<?xml version="1.0" encoding="utf-8" standalone="no"?>
<!DOCTYPE svg PUBLIC "-//W3C//DTD SVG 1.1//EN"
  "http://www.w3.org/Graphics/SVG/1.1/DTD/svg11.dtd">
<svg xmlns:xlink="http://www.w3.org/1999/xlink" width="460.8pt" height="345.6pt" viewBox="0 0 460.8 345.6" xmlns="http://www.w3.org/2000/svg" version="1.1">
 <metadata>
  <rdf:RDF xmlns:dc="http://purl.org/dc/elements/1.1/" xmlns:cc="http://creativecommons.org/ns#" xmlns:rdf="http://www.w3.org/1999/02/22-rdf-syntax-ns#">
   <cc:Work>
    <dc:type rdf:resource="http://purl.org/dc/dcmitype/StillImage"/>
    <dc:date>2022-06-19T21:03:23.664858</dc:date>
    <dc:format>image/svg+xml</dc:format>
    <dc:creator>
     <cc:Agent>
      <dc:title>Matplotlib v3.5.1, https://matplotlib.org/</dc:title>
     </cc:Agent>
    </dc:creator>
   </cc:Work>
  </rdf:RDF>
 </metadata>
 <defs>
  <style type="text/css">*{stroke-linejoin: round; stroke-linecap: butt}</style>
 </defs>
 <g id="figure_1">
  <g id="patch_1">
   <path d="M 0 345.6 
L 460.8 345.6 
L 460.8 0 
L 0 0 
z
" style="fill: #ffffff"/>
  </g>
  <g id="axes_1">
   <g id="patch_2">
    <path d="M 57.6 298.944 
L 360.8064 298.944 
L 360.8064 27.648 
L 57.6 27.648 
z
" style="fill: #ffffff"/>
   </g>
   <g id="line2d_1">
    <path d="M 40.363149 298.944 
L 40.363149 294.266483 
L 57.6 294.266483 
L 57.6 284.911448 
L 77.628862 284.911448 
L 77.628862 275.556414 
L 94.205591 275.556414 
L 94.205591 270.878897 
L 98.723018 270.878897 
L 98.723018 256.846345 
L 104.344952 256.846345 
L 104.344952 247.49131 
L 116.253478 247.49131 
L 116.253478 242.813793 
L 127.731351 242.813793 
L 127.731351 233.458759 
L 135.59842 233.458759 
L 135.59842 219.426207 
L 142.01707 219.426207 
L 142.01707 210.071172 
L 148.874221 210.071172 
L 148.874221 200.716138 
L 157.595929 200.716138 
L 157.595929 191.361103 
L 164.536144 191.361103 
L 164.536144 186.683586 
L 170.625857 186.683586 
L 170.625857 172.651034 
L 176.951458 172.651034 
L 176.951458 167.973517 
L 185.247437 167.973517 
L 185.247437 153.940966 
L 194.773779 153.940966 
L 194.773779 144.585931 
L 204.364746 144.585931 
L 204.364746 139.908414 
L 212.098812 139.908414 
L 212.098812 125.875862 
L 219.437929 125.875862 
L 219.437929 121.198345 
L 226.564812 121.198345 
L 226.564812 107.165793 
L 234.030734 107.165793 
L 234.030734 97.810759 
L 241.852863 97.810759 
L 241.852863 88.455724 
L 250.350952 88.455724 
L 250.350952 83.778207 
L 259.862543 83.778207 
L 259.862543 74.423172 
L 269.124522 74.423172 
L 269.124522 60.390621 
L 360.8064 60.390621 
" style="fill: none; stroke: #f5deb3; stroke-width: 4; stroke-linecap: square"/>
   </g>
   <g id="line2d_2">
    <defs>
     <path id="m29ebd8d8a1" d="M 0 7.778175 
L 7.778175 0 
L 0 -7.778175 
L -7.778175 0 
z
" style="stroke: #f5deb3; stroke-width: 1.5; stroke-linejoin: miter"/>
    </defs>
    <g>
     <use xlink:href="#m29ebd8d8a1" x="77.628862" y="284.911448" style="fill: #f5deb3; stroke: #f5deb3; stroke-width: 1.5; stroke-linejoin: miter"/>
     <use xlink:href="#m29ebd8d8a1" x="135.59842" y="219.426207" style="fill: #f5deb3; stroke: #f5deb3; stroke-width: 1.5; stroke-linejoin: miter"/>
     <use xlink:href="#m29ebd8d8a1" x="185.247437" y="153.940966" style="fill: #f5deb3; stroke: #f5deb3; stroke-width: 1.5; stroke-linejoin: miter"/>
     <use xlink:href="#m29ebd8d8a1" x="259.862543" y="83.778207" style="fill: #f5deb3; stroke: #f5deb3; stroke-width: 1.5; stroke-linejoin: miter"/>
     <use xlink:href="#m29ebd8d8a1" x="269.124522" y="60.390621" style="fill: #f5deb3; stroke: #f5deb3; stroke-width: 1.5; stroke-linejoin: miter"/>
     <use xlink:href="#m29ebd8d8a1" x="360.8064" y="60.390621" style="fill: #f5deb3; stroke: #f5deb3; stroke-width: 1.5; stroke-linejoin: miter"/>
    </g>
   </g>
   <g id="line2d_3">
    <path style="fill: none; stroke: #f5deb3; stroke-width: 4; stroke-linecap: square"/>
    <g/>
   </g>
   <g id="line2d_4">
    <path d="M 360.8064 60.390621 
L 380.514816 33.07392 
" style="fill: none; stroke: #f5deb3; stroke-width: 4; stroke-linecap: square"/>
    <g>
     <use xlink:href="#m29ebd8d8a1" x="360.8064" y="60.390621" style="fill: #f5deb3; stroke: #f5deb3; stroke-width: 1.5; stroke-linejoin: miter"/>
     <use xlink:href="#m29ebd8d8a1" x="380.514816" y="33.07392" style="fill: #f5deb3; stroke: #f5deb3; stroke-width: 1.5; stroke-linejoin: miter"/>
    </g>
   </g>
   <g id="matplotlib.axis_1">
    <g id="xtick_1">
     <g id="line2d_5">
      <path d="M 57.6 298.944 
L 57.6 27.648 
" clip-path="url(#p120586c95e)" style="fill: none; stroke: #b0b0b0; stroke-width: 0.8; stroke-linecap: square"/>
     </g>
     <g id="line2d_6">
      <defs>
       <path id="mdffc6fa117" d="M 0 0 
L 0 3.5 
" style="stroke: #000000; stroke-width: 0.8"/>
      </defs>
      <g>
       <use xlink:href="#mdffc6fa117" x="57.6" y="298.944" style="stroke: #000000; stroke-width: 0.8"/>
      </g>
     </g>
     <g id="text_1">
      <!-- 0 -->
      <g transform="translate(52.191875 318.861344)scale(0.17 -0.17)">
       <defs>
        <path id="DejaVuSans-30" d="M 2034 4250 
Q 1547 4250 1301 3770 
Q 1056 3291 1056 2328 
Q 1056 1369 1301 889 
Q 1547 409 2034 409 
Q 2525 409 2770 889 
Q 3016 1369 3016 2328 
Q 3016 3291 2770 3770 
Q 2525 4250 2034 4250 
z
M 2034 4750 
Q 2819 4750 3233 4129 
Q 3647 3509 3647 2328 
Q 3647 1150 3233 529 
Q 2819 -91 2034 -91 
Q 1250 -91 836 529 
Q 422 1150 422 2328 
Q 422 3509 836 4129 
Q 1250 4750 2034 4750 
z
" transform="scale(0.015625)"/>
       </defs>
       <use xlink:href="#DejaVuSans-30"/>
      </g>
     </g>
    </g>
    <g id="xtick_2">
     <g id="line2d_7">
      <path d="M 144.2304 298.944 
L 144.2304 27.648 
" clip-path="url(#p120586c95e)" style="fill: none; stroke: #b0b0b0; stroke-width: 0.8; stroke-linecap: square"/>
     </g>
     <g id="line2d_8">
      <g>
       <use xlink:href="#mdffc6fa117" x="144.2304" y="298.944" style="stroke: #000000; stroke-width: 0.8"/>
      </g>
     </g>
     <g id="text_2">
      <!-- 2 -->
      <g transform="translate(138.822275 318.861344)scale(0.17 -0.17)">
       <defs>
        <path id="DejaVuSans-32" d="M 1228 531 
L 3431 531 
L 3431 0 
L 469 0 
L 469 531 
Q 828 903 1448 1529 
Q 2069 2156 2228 2338 
Q 2531 2678 2651 2914 
Q 2772 3150 2772 3378 
Q 2772 3750 2511 3984 
Q 2250 4219 1831 4219 
Q 1534 4219 1204 4116 
Q 875 4013 500 3803 
L 500 4441 
Q 881 4594 1212 4672 
Q 1544 4750 1819 4750 
Q 2544 4750 2975 4387 
Q 3406 4025 3406 3419 
Q 3406 3131 3298 2873 
Q 3191 2616 2906 2266 
Q 2828 2175 2409 1742 
Q 1991 1309 1228 531 
z
" transform="scale(0.015625)"/>
       </defs>
       <use xlink:href="#DejaVuSans-32"/>
      </g>
     </g>
    </g>
    <g id="xtick_3">
     <g id="line2d_9">
      <path d="M 230.8608 298.944 
L 230.8608 27.648 
" clip-path="url(#p120586c95e)" style="fill: none; stroke: #b0b0b0; stroke-width: 0.8; stroke-linecap: square"/>
     </g>
     <g id="line2d_10">
      <g>
       <use xlink:href="#mdffc6fa117" x="230.8608" y="298.944" style="stroke: #000000; stroke-width: 0.8"/>
      </g>
     </g>
     <g id="text_3">
      <!-- 4 -->
      <g transform="translate(225.452675 318.861344)scale(0.17 -0.17)">
       <defs>
        <path id="DejaVuSans-34" d="M 2419 4116 
L 825 1625 
L 2419 1625 
L 2419 4116 
z
M 2253 4666 
L 3047 4666 
L 3047 1625 
L 3713 1625 
L 3713 1100 
L 3047 1100 
L 3047 0 
L 2419 0 
L 2419 1100 
L 313 1100 
L 313 1709 
L 2253 4666 
z
" transform="scale(0.015625)"/>
       </defs>
       <use xlink:href="#DejaVuSans-34"/>
      </g>
     </g>
    </g>
    <g id="xtick_4">
     <g id="line2d_11">
      <path d="M 317.4912 298.944 
L 317.4912 27.648 
" clip-path="url(#p120586c95e)" style="fill: none; stroke: #b0b0b0; stroke-width: 0.8; stroke-linecap: square"/>
     </g>
     <g id="line2d_12">
      <g>
       <use xlink:href="#mdffc6fa117" x="317.4912" y="298.944" style="stroke: #000000; stroke-width: 0.8"/>
      </g>
     </g>
     <g id="text_4">
      <!-- 6 -->
      <g transform="translate(312.083075 318.861344)scale(0.17 -0.17)">
       <defs>
        <path id="DejaVuSans-36" d="M 2113 2584 
Q 1688 2584 1439 2293 
Q 1191 2003 1191 1497 
Q 1191 994 1439 701 
Q 1688 409 2113 409 
Q 2538 409 2786 701 
Q 3034 994 3034 1497 
Q 3034 2003 2786 2293 
Q 2538 2584 2113 2584 
z
M 3366 4563 
L 3366 3988 
Q 3128 4100 2886 4159 
Q 2644 4219 2406 4219 
Q 1781 4219 1451 3797 
Q 1122 3375 1075 2522 
Q 1259 2794 1537 2939 
Q 1816 3084 2150 3084 
Q 2853 3084 3261 2657 
Q 3669 2231 3669 1497 
Q 3669 778 3244 343 
Q 2819 -91 2113 -91 
Q 1303 -91 875 529 
Q 447 1150 447 2328 
Q 447 3434 972 4092 
Q 1497 4750 2381 4750 
Q 2619 4750 2861 4703 
Q 3103 4656 3366 4563 
z
" transform="scale(0.015625)"/>
       </defs>
       <use xlink:href="#DejaVuSans-36"/>
      </g>
     </g>
    </g>
    <g id="xtick_5">
     <g id="line2d_13">
      <path d="M 100.9152 298.944 
L 100.9152 27.648 
" clip-path="url(#p120586c95e)" style="fill: none; stroke: #b0b0b0; stroke-width: 0.8; stroke-linecap: square"/>
     </g>
     <g id="line2d_14">
      <defs>
       <path id="mce0aaa50a4" d="M 0 0 
L 0 2 
" style="stroke: #000000; stroke-width: 0.6"/>
      </defs>
      <g>
       <use xlink:href="#mce0aaa50a4" x="100.9152" y="298.944" style="stroke: #000000; stroke-width: 0.6"/>
      </g>
     </g>
    </g>
    <g id="xtick_6">
     <g id="line2d_15">
      <path d="M 187.5456 298.944 
L 187.5456 27.648 
" clip-path="url(#p120586c95e)" style="fill: none; stroke: #b0b0b0; stroke-width: 0.8; stroke-linecap: square"/>
     </g>
     <g id="line2d_16">
      <g>
       <use xlink:href="#mce0aaa50a4" x="187.5456" y="298.944" style="stroke: #000000; stroke-width: 0.6"/>
      </g>
     </g>
    </g>
    <g id="xtick_7">
     <g id="line2d_17">
      <path d="M 274.176 298.944 
L 274.176 27.648 
" clip-path="url(#p120586c95e)" style="fill: none; stroke: #b0b0b0; stroke-width: 0.8; stroke-linecap: square"/>
     </g>
     <g id="line2d_18">
      <g>
       <use xlink:href="#mce0aaa50a4" x="274.176" y="298.944" style="stroke: #000000; stroke-width: 0.6"/>
      </g>
     </g>
    </g>
    <g id="xtick_8">
     <g id="line2d_19">
      <path d="M 360.8064 298.944 
L 360.8064 27.648 
" clip-path="url(#p120586c95e)" style="fill: none; stroke: #b0b0b0; stroke-width: 0.8; stroke-linecap: square"/>
     </g>
     <g id="line2d_20">
      <g>
       <use xlink:href="#mce0aaa50a4" x="360.8064" y="298.944" style="stroke: #000000; stroke-width: 0.6"/>
      </g>
     </g>
    </g>
    <g id="text_5">
     <!-- log10(# f-evals / dimension) -->
     <g transform="translate(88.823278 339.314156)scale(0.17 -0.17)">
      <defs>
       <path id="DejaVuSans-6c" d="M 603 4863 
L 1178 4863 
L 1178 0 
L 603 0 
L 603 4863 
z
" transform="scale(0.015625)"/>
       <path id="DejaVuSans-6f" d="M 1959 3097 
Q 1497 3097 1228 2736 
Q 959 2375 959 1747 
Q 959 1119 1226 758 
Q 1494 397 1959 397 
Q 2419 397 2687 759 
Q 2956 1122 2956 1747 
Q 2956 2369 2687 2733 
Q 2419 3097 1959 3097 
z
M 1959 3584 
Q 2709 3584 3137 3096 
Q 3566 2609 3566 1747 
Q 3566 888 3137 398 
Q 2709 -91 1959 -91 
Q 1206 -91 779 398 
Q 353 888 353 1747 
Q 353 2609 779 3096 
Q 1206 3584 1959 3584 
z
" transform="scale(0.015625)"/>
       <path id="DejaVuSans-67" d="M 2906 1791 
Q 2906 2416 2648 2759 
Q 2391 3103 1925 3103 
Q 1463 3103 1205 2759 
Q 947 2416 947 1791 
Q 947 1169 1205 825 
Q 1463 481 1925 481 
Q 2391 481 2648 825 
Q 2906 1169 2906 1791 
z
M 3481 434 
Q 3481 -459 3084 -895 
Q 2688 -1331 1869 -1331 
Q 1566 -1331 1297 -1286 
Q 1028 -1241 775 -1147 
L 775 -588 
Q 1028 -725 1275 -790 
Q 1522 -856 1778 -856 
Q 2344 -856 2625 -561 
Q 2906 -266 2906 331 
L 2906 616 
Q 2728 306 2450 153 
Q 2172 0 1784 0 
Q 1141 0 747 490 
Q 353 981 353 1791 
Q 353 2603 747 3093 
Q 1141 3584 1784 3584 
Q 2172 3584 2450 3431 
Q 2728 3278 2906 2969 
L 2906 3500 
L 3481 3500 
L 3481 434 
z
" transform="scale(0.015625)"/>
       <path id="DejaVuSans-31" d="M 794 531 
L 1825 531 
L 1825 4091 
L 703 3866 
L 703 4441 
L 1819 4666 
L 2450 4666 
L 2450 531 
L 3481 531 
L 3481 0 
L 794 0 
L 794 531 
z
" transform="scale(0.015625)"/>
       <path id="DejaVuSans-28" d="M 1984 4856 
Q 1566 4138 1362 3434 
Q 1159 2731 1159 2009 
Q 1159 1288 1364 580 
Q 1569 -128 1984 -844 
L 1484 -844 
Q 1016 -109 783 600 
Q 550 1309 550 2009 
Q 550 2706 781 3412 
Q 1013 4119 1484 4856 
L 1984 4856 
z
" transform="scale(0.015625)"/>
       <path id="DejaVuSans-23" d="M 3272 2816 
L 2363 2816 
L 2100 1772 
L 3016 1772 
L 3272 2816 
z
M 2803 4594 
L 2478 3297 
L 3391 3297 
L 3719 4594 
L 4219 4594 
L 3897 3297 
L 4872 3297 
L 4872 2816 
L 3775 2816 
L 3519 1772 
L 4513 1772 
L 4513 1294 
L 3397 1294 
L 3072 0 
L 2572 0 
L 2894 1294 
L 1978 1294 
L 1656 0 
L 1153 0 
L 1478 1294 
L 494 1294 
L 494 1772 
L 1594 1772 
L 1856 2816 
L 850 2816 
L 850 3297 
L 1978 3297 
L 2297 4594 
L 2803 4594 
z
" transform="scale(0.015625)"/>
       <path id="DejaVuSans-20" transform="scale(0.015625)"/>
       <path id="DejaVuSans-66" d="M 2375 4863 
L 2375 4384 
L 1825 4384 
Q 1516 4384 1395 4259 
Q 1275 4134 1275 3809 
L 1275 3500 
L 2222 3500 
L 2222 3053 
L 1275 3053 
L 1275 0 
L 697 0 
L 697 3053 
L 147 3053 
L 147 3500 
L 697 3500 
L 697 3744 
Q 697 4328 969 4595 
Q 1241 4863 1831 4863 
L 2375 4863 
z
" transform="scale(0.015625)"/>
       <path id="DejaVuSans-2d" d="M 313 2009 
L 1997 2009 
L 1997 1497 
L 313 1497 
L 313 2009 
z
" transform="scale(0.015625)"/>
       <path id="DejaVuSans-65" d="M 3597 1894 
L 3597 1613 
L 953 1613 
Q 991 1019 1311 708 
Q 1631 397 2203 397 
Q 2534 397 2845 478 
Q 3156 559 3463 722 
L 3463 178 
Q 3153 47 2828 -22 
Q 2503 -91 2169 -91 
Q 1331 -91 842 396 
Q 353 884 353 1716 
Q 353 2575 817 3079 
Q 1281 3584 2069 3584 
Q 2775 3584 3186 3129 
Q 3597 2675 3597 1894 
z
M 3022 2063 
Q 3016 2534 2758 2815 
Q 2500 3097 2075 3097 
Q 1594 3097 1305 2825 
Q 1016 2553 972 2059 
L 3022 2063 
z
" transform="scale(0.015625)"/>
       <path id="DejaVuSans-76" d="M 191 3500 
L 800 3500 
L 1894 563 
L 2988 3500 
L 3597 3500 
L 2284 0 
L 1503 0 
L 191 3500 
z
" transform="scale(0.015625)"/>
       <path id="DejaVuSans-61" d="M 2194 1759 
Q 1497 1759 1228 1600 
Q 959 1441 959 1056 
Q 959 750 1161 570 
Q 1363 391 1709 391 
Q 2188 391 2477 730 
Q 2766 1069 2766 1631 
L 2766 1759 
L 2194 1759 
z
M 3341 1997 
L 3341 0 
L 2766 0 
L 2766 531 
Q 2569 213 2275 61 
Q 1981 -91 1556 -91 
Q 1019 -91 701 211 
Q 384 513 384 1019 
Q 384 1609 779 1909 
Q 1175 2209 1959 2209 
L 2766 2209 
L 2766 2266 
Q 2766 2663 2505 2880 
Q 2244 3097 1772 3097 
Q 1472 3097 1187 3025 
Q 903 2953 641 2809 
L 641 3341 
Q 956 3463 1253 3523 
Q 1550 3584 1831 3584 
Q 2591 3584 2966 3190 
Q 3341 2797 3341 1997 
z
" transform="scale(0.015625)"/>
       <path id="DejaVuSans-73" d="M 2834 3397 
L 2834 2853 
Q 2591 2978 2328 3040 
Q 2066 3103 1784 3103 
Q 1356 3103 1142 2972 
Q 928 2841 928 2578 
Q 928 2378 1081 2264 
Q 1234 2150 1697 2047 
L 1894 2003 
Q 2506 1872 2764 1633 
Q 3022 1394 3022 966 
Q 3022 478 2636 193 
Q 2250 -91 1575 -91 
Q 1294 -91 989 -36 
Q 684 19 347 128 
L 347 722 
Q 666 556 975 473 
Q 1284 391 1588 391 
Q 1994 391 2212 530 
Q 2431 669 2431 922 
Q 2431 1156 2273 1281 
Q 2116 1406 1581 1522 
L 1381 1569 
Q 847 1681 609 1914 
Q 372 2147 372 2553 
Q 372 3047 722 3315 
Q 1072 3584 1716 3584 
Q 2034 3584 2315 3537 
Q 2597 3491 2834 3397 
z
" transform="scale(0.015625)"/>
       <path id="DejaVuSans-2f" d="M 1625 4666 
L 2156 4666 
L 531 -594 
L 0 -594 
L 1625 4666 
z
" transform="scale(0.015625)"/>
       <path id="DejaVuSans-64" d="M 2906 2969 
L 2906 4863 
L 3481 4863 
L 3481 0 
L 2906 0 
L 2906 525 
Q 2725 213 2448 61 
Q 2172 -91 1784 -91 
Q 1150 -91 751 415 
Q 353 922 353 1747 
Q 353 2572 751 3078 
Q 1150 3584 1784 3584 
Q 2172 3584 2448 3432 
Q 2725 3281 2906 2969 
z
M 947 1747 
Q 947 1113 1208 752 
Q 1469 391 1925 391 
Q 2381 391 2643 752 
Q 2906 1113 2906 1747 
Q 2906 2381 2643 2742 
Q 2381 3103 1925 3103 
Q 1469 3103 1208 2742 
Q 947 2381 947 1747 
z
" transform="scale(0.015625)"/>
       <path id="DejaVuSans-69" d="M 603 3500 
L 1178 3500 
L 1178 0 
L 603 0 
L 603 3500 
z
M 603 4863 
L 1178 4863 
L 1178 4134 
L 603 4134 
L 603 4863 
z
" transform="scale(0.015625)"/>
       <path id="DejaVuSans-6d" d="M 3328 2828 
Q 3544 3216 3844 3400 
Q 4144 3584 4550 3584 
Q 5097 3584 5394 3201 
Q 5691 2819 5691 2113 
L 5691 0 
L 5113 0 
L 5113 2094 
Q 5113 2597 4934 2840 
Q 4756 3084 4391 3084 
Q 3944 3084 3684 2787 
Q 3425 2491 3425 1978 
L 3425 0 
L 2847 0 
L 2847 2094 
Q 2847 2600 2669 2842 
Q 2491 3084 2119 3084 
Q 1678 3084 1418 2786 
Q 1159 2488 1159 1978 
L 1159 0 
L 581 0 
L 581 3500 
L 1159 3500 
L 1159 2956 
Q 1356 3278 1631 3431 
Q 1906 3584 2284 3584 
Q 2666 3584 2933 3390 
Q 3200 3197 3328 2828 
z
" transform="scale(0.015625)"/>
       <path id="DejaVuSans-6e" d="M 3513 2113 
L 3513 0 
L 2938 0 
L 2938 2094 
Q 2938 2591 2744 2837 
Q 2550 3084 2163 3084 
Q 1697 3084 1428 2787 
Q 1159 2491 1159 1978 
L 1159 0 
L 581 0 
L 581 3500 
L 1159 3500 
L 1159 2956 
Q 1366 3272 1645 3428 
Q 1925 3584 2291 3584 
Q 2894 3584 3203 3211 
Q 3513 2838 3513 2113 
z
" transform="scale(0.015625)"/>
       <path id="DejaVuSans-29" d="M 513 4856 
L 1013 4856 
Q 1481 4119 1714 3412 
Q 1947 2706 1947 2009 
Q 1947 1309 1714 600 
Q 1481 -109 1013 -844 
L 513 -844 
Q 928 -128 1133 580 
Q 1338 1288 1338 2009 
Q 1338 2731 1133 3434 
Q 928 4138 513 4856 
z
" transform="scale(0.015625)"/>
      </defs>
      <use xlink:href="#DejaVuSans-6c"/>
      <use xlink:href="#DejaVuSans-6f" x="27.783203"/>
      <use xlink:href="#DejaVuSans-67" x="88.964844"/>
      <use xlink:href="#DejaVuSans-31" x="152.441406"/>
      <use xlink:href="#DejaVuSans-30" x="216.064453"/>
      <use xlink:href="#DejaVuSans-28" x="279.6875"/>
      <use xlink:href="#DejaVuSans-23" x="318.701172"/>
      <use xlink:href="#DejaVuSans-20" x="402.490234"/>
      <use xlink:href="#DejaVuSans-66" x="434.277344"/>
      <use xlink:href="#DejaVuSans-2d" x="463.982422"/>
      <use xlink:href="#DejaVuSans-65" x="500.066406"/>
      <use xlink:href="#DejaVuSans-76" x="561.589844"/>
      <use xlink:href="#DejaVuSans-61" x="620.769531"/>
      <use xlink:href="#DejaVuSans-6c" x="682.048828"/>
      <use xlink:href="#DejaVuSans-73" x="709.832031"/>
      <use xlink:href="#DejaVuSans-20" x="761.931641"/>
      <use xlink:href="#DejaVuSans-2f" x="793.71875"/>
      <use xlink:href="#DejaVuSans-20" x="827.410156"/>
      <use xlink:href="#DejaVuSans-64" x="859.197266"/>
      <use xlink:href="#DejaVuSans-69" x="922.673828"/>
      <use xlink:href="#DejaVuSans-6d" x="950.457031"/>
      <use xlink:href="#DejaVuSans-65" x="1047.869141"/>
      <use xlink:href="#DejaVuSans-6e" x="1109.392578"/>
      <use xlink:href="#DejaVuSans-73" x="1172.771484"/>
      <use xlink:href="#DejaVuSans-69" x="1224.871094"/>
      <use xlink:href="#DejaVuSans-6f" x="1252.654297"/>
      <use xlink:href="#DejaVuSans-6e" x="1313.835938"/>
      <use xlink:href="#DejaVuSans-29" x="1377.214844"/>
     </g>
    </g>
   </g>
   <g id="matplotlib.axis_2">
    <g id="ytick_1">
     <g id="line2d_21">
      <path d="M 57.6 298.944 
L 360.8064 298.944 
" clip-path="url(#p120586c95e)" style="fill: none; stroke: #b0b0b0; stroke-width: 0.8; stroke-linecap: square"/>
     </g>
     <g id="line2d_22">
      <defs>
       <path id="m5d23ec766c" d="M 0 0 
L -3.5 0 
" style="stroke: #000000; stroke-width: 0.8"/>
      </defs>
      <g>
       <use xlink:href="#m5d23ec766c" x="57.6" y="298.944" style="stroke: #000000; stroke-width: 0.8"/>
      </g>
     </g>
     <g id="text_6">
      <!-- 0.0 -->
      <g transform="translate(25.155 305.02275)scale(0.16 -0.16)">
       <defs>
        <path id="DejaVuSans-2e" d="M 684 794 
L 1344 794 
L 1344 0 
L 684 0 
L 684 794 
z
" transform="scale(0.015625)"/>
       </defs>
       <use xlink:href="#DejaVuSans-30"/>
       <use xlink:href="#DejaVuSans-2e" x="63.623047"/>
       <use xlink:href="#DejaVuSans-30" x="95.410156"/>
      </g>
     </g>
    </g>
    <g id="ytick_2">
     <g id="line2d_23">
      <path d="M 57.6 244.6848 
L 360.8064 244.6848 
" clip-path="url(#p120586c95e)" style="fill: none; stroke: #b0b0b0; stroke-width: 0.8; stroke-linecap: square"/>
     </g>
     <g id="line2d_24">
      <g>
       <use xlink:href="#m5d23ec766c" x="57.6" y="244.6848" style="stroke: #000000; stroke-width: 0.8"/>
      </g>
     </g>
     <g id="text_7">
      <!-- 0.2 -->
      <g transform="translate(25.155 250.76355)scale(0.16 -0.16)">
       <use xlink:href="#DejaVuSans-30"/>
       <use xlink:href="#DejaVuSans-2e" x="63.623047"/>
       <use xlink:href="#DejaVuSans-32" x="95.410156"/>
      </g>
     </g>
    </g>
    <g id="ytick_3">
     <g id="line2d_25">
      <path d="M 57.6 190.4256 
L 360.8064 190.4256 
" clip-path="url(#p120586c95e)" style="fill: none; stroke: #b0b0b0; stroke-width: 0.8; stroke-linecap: square"/>
     </g>
     <g id="line2d_26">
      <g>
       <use xlink:href="#m5d23ec766c" x="57.6" y="190.4256" style="stroke: #000000; stroke-width: 0.8"/>
      </g>
     </g>
     <g id="text_8">
      <!-- 0.4 -->
      <g transform="translate(25.155 196.50435)scale(0.16 -0.16)">
       <use xlink:href="#DejaVuSans-30"/>
       <use xlink:href="#DejaVuSans-2e" x="63.623047"/>
       <use xlink:href="#DejaVuSans-34" x="95.410156"/>
      </g>
     </g>
    </g>
    <g id="ytick_4">
     <g id="line2d_27">
      <path d="M 57.6 136.1664 
L 360.8064 136.1664 
" clip-path="url(#p120586c95e)" style="fill: none; stroke: #b0b0b0; stroke-width: 0.8; stroke-linecap: square"/>
     </g>
     <g id="line2d_28">
      <g>
       <use xlink:href="#m5d23ec766c" x="57.6" y="136.1664" style="stroke: #000000; stroke-width: 0.8"/>
      </g>
     </g>
     <g id="text_9">
      <!-- 0.6 -->
      <g transform="translate(25.155 142.24515)scale(0.16 -0.16)">
       <use xlink:href="#DejaVuSans-30"/>
       <use xlink:href="#DejaVuSans-2e" x="63.623047"/>
       <use xlink:href="#DejaVuSans-36" x="95.410156"/>
      </g>
     </g>
    </g>
    <g id="ytick_5">
     <g id="line2d_29">
      <path d="M 57.6 81.9072 
L 360.8064 81.9072 
" clip-path="url(#p120586c95e)" style="fill: none; stroke: #b0b0b0; stroke-width: 0.8; stroke-linecap: square"/>
     </g>
     <g id="line2d_30">
      <g>
       <use xlink:href="#m5d23ec766c" x="57.6" y="81.9072" style="stroke: #000000; stroke-width: 0.8"/>
      </g>
     </g>
     <g id="text_10">
      <!-- 0.8 -->
      <g transform="translate(25.155 87.98595)scale(0.16 -0.16)">
       <defs>
        <path id="DejaVuSans-38" d="M 2034 2216 
Q 1584 2216 1326 1975 
Q 1069 1734 1069 1313 
Q 1069 891 1326 650 
Q 1584 409 2034 409 
Q 2484 409 2743 651 
Q 3003 894 3003 1313 
Q 3003 1734 2745 1975 
Q 2488 2216 2034 2216 
z
M 1403 2484 
Q 997 2584 770 2862 
Q 544 3141 544 3541 
Q 544 4100 942 4425 
Q 1341 4750 2034 4750 
Q 2731 4750 3128 4425 
Q 3525 4100 3525 3541 
Q 3525 3141 3298 2862 
Q 3072 2584 2669 2484 
Q 3125 2378 3379 2068 
Q 3634 1759 3634 1313 
Q 3634 634 3220 271 
Q 2806 -91 2034 -91 
Q 1263 -91 848 271 
Q 434 634 434 1313 
Q 434 1759 690 2068 
Q 947 2378 1403 2484 
z
M 1172 3481 
Q 1172 3119 1398 2916 
Q 1625 2713 2034 2713 
Q 2441 2713 2670 2916 
Q 2900 3119 2900 3481 
Q 2900 3844 2670 4047 
Q 2441 4250 2034 4250 
Q 1625 4250 1398 4047 
Q 1172 3844 1172 3481 
z
" transform="scale(0.015625)"/>
       </defs>
       <use xlink:href="#DejaVuSans-30"/>
       <use xlink:href="#DejaVuSans-2e" x="63.623047"/>
       <use xlink:href="#DejaVuSans-38" x="95.410156"/>
      </g>
     </g>
    </g>
    <g id="ytick_6">
     <g id="line2d_31">
      <path d="M 57.6 27.648 
L 360.8064 27.648 
" clip-path="url(#p120586c95e)" style="fill: none; stroke: #b0b0b0; stroke-width: 0.8; stroke-linecap: square"/>
     </g>
     <g id="line2d_32">
      <g>
       <use xlink:href="#m5d23ec766c" x="57.6" y="27.648" style="stroke: #000000; stroke-width: 0.8"/>
      </g>
     </g>
     <g id="text_11">
      <!-- 1.0 -->
      <g transform="translate(25.155 33.72675)scale(0.16 -0.16)">
       <use xlink:href="#DejaVuSans-31"/>
       <use xlink:href="#DejaVuSans-2e" x="63.623047"/>
       <use xlink:href="#DejaVuSans-30" x="95.410156"/>
      </g>
     </g>
    </g>
    <g id="text_12">
     <!-- Fraction of function,target pairs -->
     <g transform="translate(17.619531 297.681)rotate(-90)scale(0.17 -0.17)">
      <defs>
       <path id="DejaVuSans-46" d="M 628 4666 
L 3309 4666 
L 3309 4134 
L 1259 4134 
L 1259 2759 
L 3109 2759 
L 3109 2228 
L 1259 2228 
L 1259 0 
L 628 0 
L 628 4666 
z
" transform="scale(0.015625)"/>
       <path id="DejaVuSans-72" d="M 2631 2963 
Q 2534 3019 2420 3045 
Q 2306 3072 2169 3072 
Q 1681 3072 1420 2755 
Q 1159 2438 1159 1844 
L 1159 0 
L 581 0 
L 581 3500 
L 1159 3500 
L 1159 2956 
Q 1341 3275 1631 3429 
Q 1922 3584 2338 3584 
Q 2397 3584 2469 3576 
Q 2541 3569 2628 3553 
L 2631 2963 
z
" transform="scale(0.015625)"/>
       <path id="DejaVuSans-63" d="M 3122 3366 
L 3122 2828 
Q 2878 2963 2633 3030 
Q 2388 3097 2138 3097 
Q 1578 3097 1268 2742 
Q 959 2388 959 1747 
Q 959 1106 1268 751 
Q 1578 397 2138 397 
Q 2388 397 2633 464 
Q 2878 531 3122 666 
L 3122 134 
Q 2881 22 2623 -34 
Q 2366 -91 2075 -91 
Q 1284 -91 818 406 
Q 353 903 353 1747 
Q 353 2603 823 3093 
Q 1294 3584 2113 3584 
Q 2378 3584 2631 3529 
Q 2884 3475 3122 3366 
z
" transform="scale(0.015625)"/>
       <path id="DejaVuSans-74" d="M 1172 4494 
L 1172 3500 
L 2356 3500 
L 2356 3053 
L 1172 3053 
L 1172 1153 
Q 1172 725 1289 603 
Q 1406 481 1766 481 
L 2356 481 
L 2356 0 
L 1766 0 
Q 1100 0 847 248 
Q 594 497 594 1153 
L 594 3053 
L 172 3053 
L 172 3500 
L 594 3500 
L 594 4494 
L 1172 4494 
z
" transform="scale(0.015625)"/>
       <path id="DejaVuSans-75" d="M 544 1381 
L 544 3500 
L 1119 3500 
L 1119 1403 
Q 1119 906 1312 657 
Q 1506 409 1894 409 
Q 2359 409 2629 706 
Q 2900 1003 2900 1516 
L 2900 3500 
L 3475 3500 
L 3475 0 
L 2900 0 
L 2900 538 
Q 2691 219 2414 64 
Q 2138 -91 1772 -91 
Q 1169 -91 856 284 
Q 544 659 544 1381 
z
M 1991 3584 
L 1991 3584 
z
" transform="scale(0.015625)"/>
       <path id="DejaVuSans-2c" d="M 750 794 
L 1409 794 
L 1409 256 
L 897 -744 
L 494 -744 
L 750 256 
L 750 794 
z
" transform="scale(0.015625)"/>
       <path id="DejaVuSans-70" d="M 1159 525 
L 1159 -1331 
L 581 -1331 
L 581 3500 
L 1159 3500 
L 1159 2969 
Q 1341 3281 1617 3432 
Q 1894 3584 2278 3584 
Q 2916 3584 3314 3078 
Q 3713 2572 3713 1747 
Q 3713 922 3314 415 
Q 2916 -91 2278 -91 
Q 1894 -91 1617 61 
Q 1341 213 1159 525 
z
M 3116 1747 
Q 3116 2381 2855 2742 
Q 2594 3103 2138 3103 
Q 1681 3103 1420 2742 
Q 1159 2381 1159 1747 
Q 1159 1113 1420 752 
Q 1681 391 2138 391 
Q 2594 391 2855 752 
Q 3116 1113 3116 1747 
z
" transform="scale(0.015625)"/>
      </defs>
      <use xlink:href="#DejaVuSans-46"/>
      <use xlink:href="#DejaVuSans-72" x="50.269531"/>
      <use xlink:href="#DejaVuSans-61" x="91.382812"/>
      <use xlink:href="#DejaVuSans-63" x="152.662109"/>
      <use xlink:href="#DejaVuSans-74" x="207.642578"/>
      <use xlink:href="#DejaVuSans-69" x="246.851562"/>
      <use xlink:href="#DejaVuSans-6f" x="274.634766"/>
      <use xlink:href="#DejaVuSans-6e" x="335.816406"/>
      <use xlink:href="#DejaVuSans-20" x="399.195312"/>
      <use xlink:href="#DejaVuSans-6f" x="430.982422"/>
      <use xlink:href="#DejaVuSans-66" x="492.164062"/>
      <use xlink:href="#DejaVuSans-20" x="527.369141"/>
      <use xlink:href="#DejaVuSans-66" x="559.15625"/>
      <use xlink:href="#DejaVuSans-75" x="594.361328"/>
      <use xlink:href="#DejaVuSans-6e" x="657.740234"/>
      <use xlink:href="#DejaVuSans-63" x="721.119141"/>
      <use xlink:href="#DejaVuSans-74" x="776.099609"/>
      <use xlink:href="#DejaVuSans-69" x="815.308594"/>
      <use xlink:href="#DejaVuSans-6f" x="843.091797"/>
      <use xlink:href="#DejaVuSans-6e" x="904.273438"/>
      <use xlink:href="#DejaVuSans-2c" x="967.652344"/>
      <use xlink:href="#DejaVuSans-74" x="999.439453"/>
      <use xlink:href="#DejaVuSans-61" x="1038.648438"/>
      <use xlink:href="#DejaVuSans-72" x="1099.927734"/>
      <use xlink:href="#DejaVuSans-67" x="1139.291016"/>
      <use xlink:href="#DejaVuSans-65" x="1202.767578"/>
      <use xlink:href="#DejaVuSans-74" x="1264.291016"/>
      <use xlink:href="#DejaVuSans-20" x="1303.5"/>
      <use xlink:href="#DejaVuSans-70" x="1335.287109"/>
      <use xlink:href="#DejaVuSans-61" x="1398.763672"/>
      <use xlink:href="#DejaVuSans-69" x="1460.042969"/>
      <use xlink:href="#DejaVuSans-72" x="1487.826172"/>
      <use xlink:href="#DejaVuSans-73" x="1528.939453"/>
     </g>
    </g>
   </g>
   <g id="line2d_33">
    <defs>
     <path id="m3694ecfe76" d="M 0 1.5 
C 0.397805 1.5 0.77937 1.341951 1.06066 1.06066 
C 1.341951 0.77937 1.5 0.397805 1.5 0 
C 1.5 -0.397805 1.341951 -0.77937 1.06066 -1.06066 
C 0.77937 -1.341951 0.397805 -1.5 0 -1.5 
C -0.397805 -1.5 -0.77937 -1.341951 -1.06066 -1.06066 
C -1.341951 -0.77937 -1.5 -0.397805 -1.5 0 
C -1.5 0.397805 -1.341951 0.77937 -1.06066 1.06066 
C -0.77937 1.341951 -0.397805 1.5 0 1.5 
z
" style="stroke: #f5deb3"/>
    </defs>
    <g>
     <use xlink:href="#m3694ecfe76" x="269.124522" y="60.390621" style="fill: #f5deb3; stroke: #f5deb3"/>
     <use xlink:href="#m3694ecfe76" x="269.124522" y="60.390621" style="fill: #f5deb3; stroke: #f5deb3"/>
    </g>
   </g>
   <g id="line2d_34">
    <defs>
     <path id="m7c9420db0f" d="M 0 1.5 
C 0.397805 1.5 0.77937 1.341951 1.06066 1.06066 
C 1.341951 0.77937 1.5 0.397805 1.5 0 
C 1.5 -0.397805 1.341951 -0.77937 1.06066 -1.06066 
C 0.77937 -1.341951 0.397805 -1.5 0 -1.5 
C -0.397805 -1.5 -0.77937 -1.341951 -1.06066 -1.06066 
C -1.341951 -0.77937 -1.5 -0.397805 -1.5 0 
C -1.5 0.397805 -1.341951 0.77937 -1.06066 1.06066 
C -0.77937 1.341951 -0.397805 1.5 0 1.5 
z
" style="stroke: #000080"/>
    </defs>
    <g>
     <use xlink:href="#m7c9420db0f" x="79.480672" y="279.766179" style="fill: #000080; stroke: #000080"/>
     <use xlink:href="#m7c9420db0f" x="79.480672" y="279.766179" style="fill: #000080; stroke: #000080"/>
    </g>
   </g>
   <g id="line2d_35">
    <path d="M 14.2848 298.944 
L 14.2848 290.524469 
L 34.951403 290.524469 
L 34.951403 290.056717 
L 40.363149 290.056717 
L 40.363149 289.121214 
L 44.560826 289.121214 
L 44.560826 288.18571 
L 50.890391 288.18571 
L 50.890391 287.717959 
L 55.618005 287.717959 
L 55.618005 287.250207 
L 57.6 287.250207 
L 57.6 286.782455 
L 62.535479 286.782455 
L 62.535479 284.911448 
L 63.929565 284.911448 
L 63.929565 284.443697 
L 69.674268 284.443697 
L 69.674268 283.040441 
L 75.574654 283.040441 
L 75.574654 282.57269 
L 76.96874 282.57269 
L 76.96874 282.104938 
L 79.480672 282.104938 
L 79.480672 279.766179 
L 360.8064 279.766179 
" style="fill: none; stroke: #000080; stroke-width: 1.5; stroke-linecap: square"/>
   </g>
   <g id="line2d_36">
    <defs>
     <path id="ma38b729130" d="M 0 6 
C 1.591219 6 3.117479 5.367802 4.242641 4.242641 
C 5.367802 3.117479 6 1.591219 6 0 
C 6 -1.591219 5.367802 -3.117479 4.242641 -4.242641 
C 3.117479 -5.367802 1.591219 -6 0 -6 
C -1.591219 -6 -3.117479 -5.367802 -4.242641 -4.242641 
C -5.367802 -3.117479 -6 -1.591219 -6 0 
C -6 1.591219 -5.367802 3.117479 -4.242641 4.242641 
C -3.117479 5.367802 -1.591219 6 0 6 
z
" style="stroke: #000080; stroke-width: 1.5"/>
    </defs>
    <g>
     <use xlink:href="#ma38b729130" x="69.674268" y="284.443697" style="fill-opacity: 0; stroke: #000080; stroke-width: 1.5"/>
     <use xlink:href="#ma38b729130" x="79.480672" y="282.104938" style="fill-opacity: 0; stroke: #000080; stroke-width: 1.5"/>
     <use xlink:href="#ma38b729130" x="79.480672" y="279.766179" style="fill-opacity: 0; stroke: #000080; stroke-width: 1.5"/>
     <use xlink:href="#ma38b729130" x="79.480672" y="279.766179" style="fill-opacity: 0; stroke: #000080; stroke-width: 1.5"/>
     <use xlink:href="#ma38b729130" x="79.480672" y="279.766179" style="fill-opacity: 0; stroke: #000080; stroke-width: 1.5"/>
     <use xlink:href="#ma38b729130" x="360.8064" y="279.766179" style="fill-opacity: 0; stroke: #000080; stroke-width: 1.5"/>
    </g>
   </g>
   <g id="line2d_37">
    <path style="fill: none; stroke: #000080; stroke-width: 1.5; stroke-linecap: square"/>
    <g/>
   </g>
   <g id="line2d_38">
    <path d="M 79.480672 279.766179 
" clip-path="url(#p120586c95e)" style="fill: none; stroke: #000080; stroke-width: 1.5; stroke-linecap: square"/>
    <defs>
     <path id="m957f0f52d0" d="M -12 12 
L 12 -12 
M -12 -12 
L 12 12 
" style="stroke: #000080"/>
    </defs>
    <g clip-path="url(#p120586c95e)">
     <use xlink:href="#m957f0f52d0" x="79.480672" y="279.766179" style="fill: #000080; stroke: #000080"/>
    </g>
   </g>
   <g id="line2d_39">
    <defs>
     <path id="m186b54596c" d="M 0 1.5 
C 0.397805 1.5 0.77937 1.341951 1.06066 1.06066 
C 1.341951 0.77937 1.5 0.397805 1.5 0 
C 1.5 -0.397805 1.341951 -0.77937 1.06066 -1.06066 
C 0.77937 -1.341951 0.397805 -1.5 0 -1.5 
C -0.397805 -1.5 -0.77937 -1.341951 -1.06066 -1.06066 
C -1.341951 -0.77937 -1.5 -0.397805 -1.5 0 
C -1.5 0.397805 -1.341951 0.77937 -1.06066 1.06066 
C -0.77937 1.341951 -0.397805 1.5 0 1.5 
z
" style="stroke: #ff00ff"/>
    </defs>
    <g>
     <use xlink:href="#m186b54596c" x="273.429226" y="147.392441" style="fill: #ff00ff; stroke: #ff00ff"/>
     <use xlink:href="#m186b54596c" x="273.429226" y="147.392441" style="fill: #ff00ff; stroke: #ff00ff"/>
    </g>
   </g>
   <g id="line2d_40">
    <path d="M 14.2848 298.944 
L 14.2848 290.524469 
L 59.392932 290.524469 
L 59.392932 290.056717 
L 67.581941 290.056717 
L 67.581941 289.588966 
L 88.972154 289.588966 
L 88.972154 289.121214 
L 90.340871 289.121214 
L 90.340871 288.653462 
L 93.934916 288.653462 
L 93.934916 288.18571 
L 107.109915 288.18571 
L 107.109915 287.717959 
L 109.638757 287.717959 
L 109.638757 287.250207 
L 112.076599 287.250207 
L 112.076599 286.782455 
L 113.478107 286.782455 
L 113.478107 285.846952 
L 114.601519 285.846952 
L 114.601519 284.911448 
L 115.050503 284.911448 
L 115.050503 284.443697 
L 115.402131 284.443697 
L 115.402131 283.975945 
L 117.462345 283.975945 
L 117.462345 283.508193 
L 118.000953 283.508193 
L 118.000953 283.040441 
L 118.301945 283.040441 
L 118.376446 281.637186 
L 118.524569 281.637186 
L 118.524569 281.169434 
L 120.879082 281.169434 
L 120.879082 280.701683 
L 121.581803 280.701683 
L 121.581803 280.233931 
L 121.706797 280.233931 
L 121.706797 279.766179 
L 124.695386 279.766179 
L 124.695386 279.298428 
L 126.468985 279.298428 
L 126.468985 278.830676 
L 138.258593 278.830676 
L 138.258593 278.362924 
L 140.173284 278.362924 
L 140.173284 277.895172 
L 142.47693 277.895172 
L 142.47693 277.427421 
L 142.784148 277.427421 
L 142.784148 276.959669 
L 143.521169 276.959669 
L 143.521169 276.491917 
L 144.041338 276.491917 
L 144.041338 275.556414 
L 144.565997 275.556414 
L 144.565997 275.088662 
L 145.971958 275.088662 
L 145.971958 274.62091 
L 146.159649 274.62091 
L 146.159649 274.153159 
L 146.989949 274.153159 
L 146.989949 273.685407 
L 147.264104 273.685407 
L 147.264104 273.217655 
L 147.486917 273.217655 
L 147.486917 272.749903 
L 147.628773 272.749903 
L 147.628773 272.282152 
L 148.962194 272.282152 
L 148.962194 271.8144 
L 149.180344 271.8144 
L 149.180344 271.346648 
L 149.524205 271.346648 
L 149.524205 270.878897 
L 149.79204 270.878897 
L 149.79204 270.411145 
L 150.193627 270.411145 
L 150.193627 269.475641 
L 150.573397 269.475641 
L 150.573397 269.00789 
L 150.958812 269.00789 
L 150.958812 268.540138 
L 151.284843 268.540138 
L 151.284843 268.072386 
L 151.41369 268.072386 
L 151.41369 267.604634 
L 152.474656 267.604634 
L 152.474656 267.136883 
L 152.667844 267.136883 
L 152.667844 266.669131 
L 152.847174 266.669131 
L 152.847174 266.201379 
L 153.060137 266.201379 
L 153.060137 265.265876 
L 156.105602 265.265876 
L 156.105602 264.798124 
L 156.764344 264.798124 
L 156.783658 263.394869 
L 157.127956 263.394869 
L 157.127956 262.459366 
L 157.53111 262.459366 
L 157.53111 261.991614 
L 157.76159 261.991614 
L 157.779907 261.05611 
L 157.962102 261.05611 
L 157.962102 260.120607 
L 158.568692 260.120607 
L 158.577468 259.185103 
L 159.079601 259.185103 
L 159.079601 258.717352 
L 159.668298 258.717352 
L 159.668298 258.2496 
L 161.384298 258.2496 
L 161.384298 257.781848 
L 161.564818 257.781848 
L 161.579783 256.378593 
L 161.676769 256.378593 
L 161.676769 255.44309 
L 161.847145 255.44309 
L 161.847145 254.975338 
L 162.485131 254.975338 
L 162.485131 254.039834 
L 162.838212 254.039834 
L 162.838212 253.572083 
L 163.067666 253.572083 
L 163.067666 253.104331 
L 163.267023 253.104331 
L 163.267023 252.636579 
L 163.498092 252.636579 
L 163.498092 252.168828 
L 164.272231 252.168828 
L 164.324018 251.233324 
L 164.536144 251.233324 
L 164.536144 250.297821 
L 164.890731 250.297821 
L 164.965852 248.426814 
L 165.361509 248.426814 
L 165.392072 247.49131 
L 165.898243 247.49131 
L 165.951676 245.620303 
L 166.152178 245.620303 
L 166.152178 244.6848 
L 166.39115 244.6848 
L 166.39115 243.749297 
L 166.854526 243.749297 
L 166.950346 242.346041 
L 167.893313 242.346041 
L 167.962699 240.942786 
L 168.195663 240.942786 
L 168.195663 240.475034 
L 168.337202 240.475034 
L 168.337202 240.007283 
L 168.938524 240.007283 
L 168.938524 239.539531 
L 169.064557 239.539531 
L 169.064557 239.071779 
L 169.452437 239.071779 
L 169.452437 238.604028 
L 169.856584 238.604028 
L 169.933503 237.200772 
L 170.238073 237.200772 
L 170.294635 236.265269 
L 170.621233 236.265269 
L 170.621233 235.797517 
L 170.809925 235.797517 
L 170.809925 234.862014 
L 171.042029 234.862014 
L 171.042029 233.92651 
L 171.24 233.92651 
L 171.298095 232.055503 
L 171.773916 232.055503 
L 171.869384 230.652248 
L 172.276159 230.652248 
L 172.356469 229.716745 
L 172.616174 229.716745 
L 172.674324 227.845738 
L 173.66389 227.845738 
L 173.66389 226.910234 
L 174.111019 226.910234 
L 174.111019 225.974731 
L 174.290742 225.974731 
L 174.290742 225.506979 
L 174.544011 225.506979 
L 174.600249 223.635972 
L 174.73082 223.635972 
L 174.73082 222.700469 
L 175.062472 222.700469 
L 175.062472 221.764966 
L 175.591903 221.764966 
L 175.591903 220.829462 
L 175.810809 220.829462 
L 175.810809 220.36171 
L 176.319868 220.36171 
L 176.319868 219.426207 
L 176.513611 219.426207 
L 176.59796 217.087448 
L 177.508083 217.087448 
L 177.508083 216.619697 
L 178.036239 216.619697 
L 178.036239 215.684193 
L 178.151275 215.684193 
L 178.151275 215.216441 
L 178.5712 215.216441 
L 178.5712 214.280938 
L 178.883832 214.280938 
L 178.883832 213.345434 
L 179.386836 213.345434 
L 179.386836 212.877683 
L 180.031639 212.877683 
L 180.042855 211.006676 
L 180.334901 211.006676 
L 180.334901 210.071172 
L 180.464171 210.071172 
L 180.464171 209.135669 
L 180.784861 209.135669 
L 180.784861 208.200166 
L 181.308361 208.200166 
L 181.308361 207.264662 
L 182.283747 207.264662 
L 182.283747 206.79691 
L 182.667971 206.79691 
L 182.667971 206.329159 
L 183.125579 206.329159 
L 183.125579 205.393655 
L 183.31733 205.393655 
L 183.31733 204.925903 
L 184.432957 204.925903 
L 184.432957 203.9904 
L 184.620688 203.9904 
L 184.728064 202.587145 
L 185.292022 202.587145 
L 185.292022 201.651641 
L 186.019953 201.651641 
L 186.019953 201.18389 
L 187.551243 201.18389 
L 187.551243 200.716138 
L 190.324633 200.716138 
L 190.324633 200.248386 
L 190.55848 200.248386 
L 190.55848 199.780634 
L 190.903102 199.780634 
L 190.903102 198.845131 
L 191.516173 198.845131 
L 191.516173 197.909628 
L 192.065564 197.909628 
L 192.065564 197.441876 
L 193.6535 197.441876 
L 193.6535 196.974124 
L 197.931494 196.974124 
L 197.931494 196.506372 
L 199.218596 196.506372 
L 199.218596 196.038621 
L 199.38274 196.038621 
L 199.38274 195.570869 
L 203.937555 195.570869 
L 203.937555 194.635366 
L 206.284474 194.635366 
L 206.284474 194.167614 
L 206.759178 194.167614 
L 206.759178 193.699862 
L 207.161293 193.699862 
L 207.171899 192.764359 
L 208.970494 192.764359 
L 208.970494 192.296607 
L 209.242553 192.296607 
L 209.242553 191.828855 
L 210.081367 191.828855 
L 210.081367 191.361103 
L 210.99394 191.361103 
L 210.99394 190.4256 
L 212.533378 190.4256 
L 212.533378 189.957848 
L 213.190562 189.957848 
L 213.190562 189.490097 
L 213.343935 189.490097 
L 213.413022 188.554593 
L 218.329028 188.554593 
L 218.329028 188.086841 
L 218.759141 188.086841 
L 218.759141 187.151338 
L 219.008399 187.151338 
L 219.008399 186.683586 
L 219.229627 186.683586 
L 219.229627 185.748083 
L 221.803162 185.748083 
L 221.803162 184.812579 
L 222.265693 184.812579 
L 222.265693 183.877076 
L 226.535478 183.877076 
L 226.535478 183.409324 
L 226.669236 183.409324 
L 226.765134 182.473821 
L 227.290037 182.473821 
L 227.290037 182.006069 
L 228.372501 182.006069 
L 228.372501 181.538317 
L 228.552857 181.538317 
L 228.552857 181.070566 
L 229.455337 181.070566 
L 229.455337 180.135062 
L 229.726023 180.135062 
L 229.726023 179.66731 
L 231.564023 179.66731 
L 231.564023 179.199559 
L 232.980591 179.199559 
L 232.980591 178.264055 
L 233.308311 178.264055 
L 233.308311 177.796303 
L 233.969919 177.796303 
L 233.969919 177.328552 
L 234.456301 177.328552 
L 234.456301 176.393048 
L 234.939059 176.393048 
L 234.939059 175.925297 
L 235.874113 175.925297 
L 235.912551 174.989793 
L 236.300414 174.989793 
L 236.300414 174.522041 
L 237.440368 174.522041 
L 237.440368 174.05429 
L 238.953958 174.05429 
L 238.953958 173.586538 
L 240.132591 173.586538 
L 240.143964 172.651034 
L 240.260285 172.651034 
L 240.260285 172.183283 
L 241.257197 172.183283 
L 241.257197 171.715531 
L 242.442445 171.715531 
L 242.442445 171.247779 
L 243.812297 171.247779 
L 243.812297 170.312276 
L 244.417446 170.312276 
L 244.417446 169.844524 
L 244.924536 169.844524 
L 244.924536 169.376772 
L 247.189608 169.376772 
L 247.254801 167.973517 
L 247.921961 167.973517 
L 247.921961 167.038014 
L 248.295036 167.038014 
L 248.357183 165.634759 
L 249.724999 165.634759 
L 249.724999 165.167007 
L 250.064824 165.167007 
L 250.137541 164.231503 
L 251.631331 164.231503 
L 251.631331 163.296 
L 251.93407 163.296 
L 252.024915 161.892745 
L 252.056705 161.892745 
L 252.056705 161.424993 
L 253.040017 161.424993 
L 253.139793 160.021738 
L 254.242171 160.021738 
L 254.27731 157.682979 
L 255.080487 157.682979 
L 255.080487 157.215228 
L 255.431446 157.215228 
L 255.431446 156.747476 
L 256.909968 156.747476 
L 256.909968 156.279724 
L 257.496931 156.279724 
L 257.496931 155.811972 
L 257.730687 155.811972 
L 257.730687 154.876469 
L 258.514408 154.876469 
L 258.514408 154.408717 
L 260.414854 154.408717 
L 260.414854 153.473214 
L 261.151079 153.473214 
L 261.151079 153.005462 
L 262.34912 153.005462 
L 262.34912 152.53771 
L 263.251473 152.53771 
L 263.251473 152.069959 
L 265.12725 152.069959 
L 265.21148 151.134455 
L 266.230752 151.134455 
L 266.230752 150.666703 
L 266.870563 150.666703 
L 266.870563 150.198952 
L 266.995497 150.198952 
L 266.995497 149.7312 
L 271.543806 149.7312 
L 271.543806 149.263448 
L 272.755003 149.263448 
L 272.755003 148.327945 
L 272.927144 148.327945 
L 272.927144 147.860193 
L 273.429226 147.860193 
L 273.429226 147.392441 
L 360.8064 147.392441 
L 360.8064 147.392441 
" style="fill: none; stroke: #ff00ff; stroke-width: 1.5; stroke-linecap: square"/>
   </g>
   <g id="line2d_41">
    <defs>
     <path id="m2c65bd8743" d="M 0 8.485281 
L 5.091169 0 
L 0 -8.485281 
L -5.091169 0 
z
" style="stroke: #ff00ff; stroke-width: 1.5; stroke-linejoin: miter"/>
    </defs>
    <g>
     <use xlink:href="#m2c65bd8743" x="140.173284" y="278.362924" style="fill-opacity: 0; stroke: #ff00ff; stroke-width: 1.5; stroke-linejoin: miter"/>
     <use xlink:href="#m2c65bd8743" x="193.6535" y="196.974124" style="fill-opacity: 0; stroke: #ff00ff; stroke-width: 1.5; stroke-linejoin: miter"/>
     <use xlink:href="#m2c65bd8743" x="251.93407" y="162.828248" style="fill-opacity: 0; stroke: #ff00ff; stroke-width: 1.5; stroke-linejoin: miter"/>
     <use xlink:href="#m2c65bd8743" x="273.429226" y="147.392441" style="fill-opacity: 0; stroke: #ff00ff; stroke-width: 1.5; stroke-linejoin: miter"/>
     <use xlink:href="#m2c65bd8743" x="273.429226" y="147.392441" style="fill-opacity: 0; stroke: #ff00ff; stroke-width: 1.5; stroke-linejoin: miter"/>
     <use xlink:href="#m2c65bd8743" x="360.8064" y="147.392441" style="fill-opacity: 0; stroke: #ff00ff; stroke-width: 1.5; stroke-linejoin: miter"/>
    </g>
   </g>
   <g id="line2d_42">
    <path style="fill: none; stroke: #ff00ff; stroke-width: 1.5; stroke-linecap: square"/>
    <g/>
   </g>
   <g id="line2d_43">
    <path d="M 274.176019 147.392441 
" clip-path="url(#p120586c95e)" style="fill: none; stroke: #ff00ff; stroke-width: 1.5; stroke-linecap: square"/>
    <defs>
     <path id="mbbad312772" d="M -12 12 
L 12 -12 
M -12 -12 
L 12 12 
" style="stroke: #ff00ff"/>
    </defs>
    <g clip-path="url(#p120586c95e)">
     <use xlink:href="#mbbad312772" x="274.176019" y="147.392441" style="fill: #ff00ff; stroke: #ff00ff"/>
    </g>
   </g>
   <g id="line2d_44">
    <defs>
     <path id="m8fef5c9182" d="M 0 1.5 
C 0.397805 1.5 0.77937 1.341951 1.06066 1.06066 
C 1.341951 0.77937 1.5 0.397805 1.5 0 
C 1.5 -0.397805 1.341951 -0.77937 1.06066 -1.06066 
C 0.77937 -1.341951 0.397805 -1.5 0 -1.5 
C -0.397805 -1.5 -0.77937 -1.341951 -1.06066 -1.06066 
C -1.341951 -0.77937 -1.5 -0.397805 -1.5 0 
C -1.5 0.397805 -1.341951 0.77937 -1.06066 1.06066 
C -0.77937 1.341951 -0.397805 1.5 0 1.5 
z
" style="stroke: #6495ed"/>
    </defs>
    <g>
     <use xlink:href="#m8fef5c9182" x="113.478107" y="258.2496" style="fill: #6495ed; stroke: #6495ed"/>
     <use xlink:href="#m8fef5c9182" x="113.478107" y="258.2496" style="fill: #6495ed; stroke: #6495ed"/>
    </g>
   </g>
   <g id="line2d_45">
    <path d="M 14.2848 298.944 
L 14.2848 298.008497 
L 27.323974 298.008497 
L 27.323974 297.540745 
L 34.951403 297.540745 
L 34.951403 296.605241 
L 40.363149 296.605241 
L 40.363149 295.669738 
L 44.560826 295.669738 
L 44.560826 295.201986 
L 50.890391 295.201986 
L 50.890391 294.734234 
L 53.402323 294.734234 
L 53.402323 294.266483 
L 63.929565 294.266483 
L 63.929565 293.798731 
L 65.227428 293.798731 
L 65.227428 293.330979 
L 81.166416 293.330979 
L 81.166416 292.863228 
L 82.211771 292.863228 
L 82.211771 292.395476 
L 85.894031 292.395476 
L 85.894031 291.927724 
L 87.495981 291.927724 
L 87.495981 291.459972 
L 87.876026 291.459972 
L 87.876026 290.992221 
L 89.323782 290.992221 
L 89.323782 290.524469 
L 90.668036 290.524469 
L 90.668036 290.056717 
L 94.205591 290.056717 
L 94.205591 289.588966 
L 96.480897 289.588966 
L 96.480897 289.121214 
L 96.95121 289.121214 
L 96.95121 288.653462 
L 97.635342 288.653462 
L 97.635342 288.18571 
L 100.726138 288.18571 
L 100.726138 287.717959 
L 102.878374 287.717959 
L 102.878374 286.314703 
L 103.047088 286.314703 
L 103.047088 282.104938 
L 103.380045 282.104938 
L 103.380045 278.830676 
L 103.544339 278.830676 
L 103.544339 277.427421 
L 103.707211 277.427421 
L 103.707211 276.491917 
L 103.868684 276.491917 
L 103.868684 276.024166 
L 104.028784 276.024166 
L 104.028784 273.217655 
L 104.961779 273.217655 
L 104.961779 271.8144 
L 105.26277 271.8144 
L 105.26277 270.878897 
L 105.411479 270.878897 
L 105.411479 270.411145 
L 105.559021 270.411145 
L 105.559021 269.475641 
L 105.850679 269.475641 
L 105.850679 269.00789 
L 106.42077 269.00789 
L 106.42077 268.540138 
L 106.837279 268.540138 
L 106.837279 268.072386 
L 107.109915 268.072386 
L 107.109915 267.604634 
L 107.5116 267.604634 
L 107.5116 267.136883 
L 108.29012 267.136883 
L 108.29012 265.733628 
L 108.791791 265.733628 
L 108.791791 265.265876 
L 108.915146 265.265876 
L 108.915146 264.798124 
L 109.280431 264.798124 
L 109.280431 264.330372 
L 109.520071 264.330372 
L 109.520071 263.394869 
L 109.756698 263.394869 
L 109.756698 262.927117 
L 110.106149 262.927117 
L 110.106149 261.991614 
L 110.335561 261.991614 
L 110.335561 261.523862 
L 110.562208 261.523862 
L 110.562208 260.588359 
L 111.007473 260.588359 
L 111.007473 260.120607 
L 111.226215 260.120607 
L 111.226215 259.652855 
L 112.385837 259.652855 
L 112.385837 259.185103 
L 113.381389 259.185103 
L 113.381389 258.717352 
L 113.478107 258.717352 
L 113.478107 258.2496 
L 360.8064 258.2496 
" style="fill: none; stroke: #6495ed; stroke-width: 1.5; stroke-linecap: square"/>
   </g>
   <g id="line2d_46">
    <defs>
     <path id="mfb1e491a88" d="M -0 6 
L 6 -6 
L -6 -6 
z
" style="stroke: #6495ed; stroke-width: 1.5; stroke-linejoin: miter"/>
    </defs>
    <g>
     <use xlink:href="#mfb1e491a88" x="90.668036" y="290.524469" style="fill-opacity: 0; stroke: #6495ed; stroke-width: 1.5; stroke-linejoin: miter"/>
     <use xlink:href="#mfb1e491a88" x="113.478107" y="258.717352" style="fill-opacity: 0; stroke: #6495ed; stroke-width: 1.5; stroke-linejoin: miter"/>
     <use xlink:href="#mfb1e491a88" x="113.478107" y="258.717352" style="fill-opacity: 0; stroke: #6495ed; stroke-width: 1.5; stroke-linejoin: miter"/>
     <use xlink:href="#mfb1e491a88" x="113.478107" y="258.2496" style="fill-opacity: 0; stroke: #6495ed; stroke-width: 1.5; stroke-linejoin: miter"/>
     <use xlink:href="#mfb1e491a88" x="113.478107" y="258.2496" style="fill-opacity: 0; stroke: #6495ed; stroke-width: 1.5; stroke-linejoin: miter"/>
     <use xlink:href="#mfb1e491a88" x="360.8064" y="258.2496" style="fill-opacity: 0; stroke: #6495ed; stroke-width: 1.5; stroke-linejoin: miter"/>
    </g>
   </g>
   <g id="line2d_47">
    <path style="fill: none; stroke: #6495ed; stroke-width: 1.5; stroke-linecap: square"/>
    <g/>
   </g>
   <g id="line2d_48">
    <path d="M 113.954374 258.2496 
" clip-path="url(#p120586c95e)" style="fill: none; stroke: #6495ed; stroke-width: 1.5; stroke-linecap: square"/>
    <defs>
     <path id="ma9333c8e91" d="M -12 12 
L 12 -12 
M -12 -12 
L 12 12 
" style="stroke: #6495ed"/>
    </defs>
    <g clip-path="url(#p120586c95e)">
     <use xlink:href="#ma9333c8e91" x="113.954374" y="258.2496" style="fill: #6495ed; stroke: #6495ed"/>
    </g>
   </g>
   <g id="line2d_49">
    <path d="M 360.8064 279.766179 
L 380.514816 293.51808 
" style="fill: none; stroke: #000080; stroke-width: 1.5; stroke-linecap: square"/>
    <g>
     <use xlink:href="#ma38b729130" x="360.8064" y="279.766179" style="fill-opacity: 0; stroke: #000080; stroke-width: 1.5"/>
     <use xlink:href="#ma38b729130" x="380.514816" y="293.51808" style="fill-opacity: 0; stroke: #000080; stroke-width: 1.5"/>
    </g>
   </g>
   <g id="line2d_50">
    <path d="M 360.8064 258.2496 
L 380.514816 206.70336 
" style="fill: none; stroke: #6495ed; stroke-width: 1.5; stroke-linecap: square"/>
    <g>
     <use xlink:href="#mfb1e491a88" x="360.8064" y="258.2496" style="fill-opacity: 0; stroke: #6495ed; stroke-width: 1.5; stroke-linejoin: miter"/>
     <use xlink:href="#mfb1e491a88" x="380.514816" y="206.70336" style="fill-opacity: 0; stroke: #6495ed; stroke-width: 1.5; stroke-linejoin: miter"/>
    </g>
   </g>
   <g id="line2d_51">
    <path d="M 360.8064 147.392441 
L 380.514816 119.88864 
" style="fill: none; stroke: #ff00ff; stroke-width: 1.5; stroke-linecap: square"/>
    <g>
     <use xlink:href="#m2c65bd8743" x="360.8064" y="147.392441" style="fill-opacity: 0; stroke: #ff00ff; stroke-width: 1.5; stroke-linejoin: miter"/>
     <use xlink:href="#m2c65bd8743" x="380.514816" y="119.88864" style="fill-opacity: 0; stroke: #ff00ff; stroke-width: 1.5; stroke-linejoin: miter"/>
    </g>
   </g>
   <g id="line2d_52">
    <path d="M 360.8064 298.944 
L 360.8064 27.648 
" style="fill: none; stroke: #000000; stroke-width: 1.5; stroke-linecap: square"/>
   </g>
   <g id="patch_3">
    <path d="M 57.6 298.944 
L 360.8064 298.944 
" style="fill: none; stroke: #000000; stroke-width: 0.8; stroke-linejoin: miter; stroke-linecap: square"/>
   </g>
   <g id="patch_4">
    <path d="M 57.6 27.648 
L 360.8064 27.648 
" style="fill: none; stroke: #000000; stroke-width: 0.8; stroke-linejoin: miter; stroke-linecap: square"/>
   </g>
   <g id="text_13">
    <!-- cma -->
    <g transform="translate(386.578944 297.381205)scale(0.14 -0.14)">
     <use xlink:href="#DejaVuSans-63"/>
     <use xlink:href="#DejaVuSans-6d" x="54.980469"/>
     <use xlink:href="#DejaVuSans-61" x="152.392578"/>
    </g>
   </g>
   <g id="text_14">
    <!-- parEgo -->
    <g transform="translate(386.578944 210.566485)scale(0.14 -0.14)">
     <defs>
      <path id="DejaVuSans-45" d="M 628 4666 
L 3578 4666 
L 3578 4134 
L 1259 4134 
L 1259 2753 
L 3481 2753 
L 3481 2222 
L 1259 2222 
L 1259 531 
L 3634 531 
L 3634 0 
L 628 0 
L 628 4666 
z
" transform="scale(0.015625)"/>
     </defs>
     <use xlink:href="#DejaVuSans-70"/>
     <use xlink:href="#DejaVuSans-61" x="63.476562"/>
     <use xlink:href="#DejaVuSans-72" x="124.755859"/>
     <use xlink:href="#DejaVuSans-45" x="165.869141"/>
     <use xlink:href="#DejaVuSans-67" x="229.052734"/>
     <use xlink:href="#DejaVuSans-6f" x="292.529297"/>
    </g>
   </g>
   <g id="text_15">
    <!-- external- -->
    <g transform="translate(386.578944 123.751765)scale(0.14 -0.14)">
     <defs>
      <path id="DejaVuSans-78" d="M 3513 3500 
L 2247 1797 
L 3578 0 
L 2900 0 
L 1881 1375 
L 863 0 
L 184 0 
L 1544 1831 
L 300 3500 
L 978 3500 
L 1906 2253 
L 2834 3500 
L 3513 3500 
z
" transform="scale(0.015625)"/>
     </defs>
     <use xlink:href="#DejaVuSans-65"/>
     <use xlink:href="#DejaVuSans-78" x="59.773438"/>
     <use xlink:href="#DejaVuSans-74" x="118.953125"/>
     <use xlink:href="#DejaVuSans-65" x="158.162109"/>
     <use xlink:href="#DejaVuSans-72" x="219.685547"/>
     <use xlink:href="#DejaVuSans-6e" x="259.048828"/>
     <use xlink:href="#DejaVuSans-61" x="322.427734"/>
     <use xlink:href="#DejaVuSans-6c" x="383.707031"/>
     <use xlink:href="#DejaVuSans-2d" x="411.490234"/>
    </g>
   </g>
   <g id="text_16">
    <!-- best 2016 -->
    <g transform="translate(386.578944 36.937045)scale(0.14 -0.14)">
     <defs>
      <path id="DejaVuSans-62" d="M 3116 1747 
Q 3116 2381 2855 2742 
Q 2594 3103 2138 3103 
Q 1681 3103 1420 2742 
Q 1159 2381 1159 1747 
Q 1159 1113 1420 752 
Q 1681 391 2138 391 
Q 2594 391 2855 752 
Q 3116 1113 3116 1747 
z
M 1159 2969 
Q 1341 3281 1617 3432 
Q 1894 3584 2278 3584 
Q 2916 3584 3314 3078 
Q 3713 2572 3713 1747 
Q 3713 922 3314 415 
Q 2916 -91 2278 -91 
Q 1894 -91 1617 61 
Q 1341 213 1159 525 
L 1159 0 
L 581 0 
L 581 4863 
L 1159 4863 
L 1159 2969 
z
" transform="scale(0.015625)"/>
     </defs>
     <use xlink:href="#DejaVuSans-62"/>
     <use xlink:href="#DejaVuSans-65" x="63.476562"/>
     <use xlink:href="#DejaVuSans-73" x="125"/>
     <use xlink:href="#DejaVuSans-74" x="177.099609"/>
     <use xlink:href="#DejaVuSans-20" x="216.308594"/>
     <use xlink:href="#DejaVuSans-32" x="248.095703"/>
     <use xlink:href="#DejaVuSans-30" x="311.71875"/>
     <use xlink:href="#DejaVuSans-31" x="375.341797"/>
     <use xlink:href="#DejaVuSans-36" x="438.964844"/>
    </g>
   </g>
   <g id="text_17">
    <!-- bbob-biobj f6, 10-D -->
    <g transform="translate(60.632064 38.111366)scale(0.102 -0.102)">
     <defs>
      <path id="DejaVuSans-6a" d="M 603 3500 
L 1178 3500 
L 1178 -63 
Q 1178 -731 923 -1031 
Q 669 -1331 103 -1331 
L -116 -1331 
L -116 -844 
L 38 -844 
Q 366 -844 484 -692 
Q 603 -541 603 -63 
L 603 3500 
z
M 603 4863 
L 1178 4863 
L 1178 4134 
L 603 4134 
L 603 4863 
z
" transform="scale(0.015625)"/>
      <path id="DejaVuSans-44" d="M 1259 4147 
L 1259 519 
L 2022 519 
Q 2988 519 3436 956 
Q 3884 1394 3884 2338 
Q 3884 3275 3436 3711 
Q 2988 4147 2022 4147 
L 1259 4147 
z
M 628 4666 
L 1925 4666 
Q 3281 4666 3915 4102 
Q 4550 3538 4550 2338 
Q 4550 1131 3912 565 
Q 3275 0 1925 0 
L 628 0 
L 628 4666 
z
" transform="scale(0.015625)"/>
     </defs>
     <use xlink:href="#DejaVuSans-62"/>
     <use xlink:href="#DejaVuSans-62" x="63.476562"/>
     <use xlink:href="#DejaVuSans-6f" x="126.953125"/>
     <use xlink:href="#DejaVuSans-62" x="188.134766"/>
     <use xlink:href="#DejaVuSans-2d" x="251.611328"/>
     <use xlink:href="#DejaVuSans-62" x="287.695312"/>
     <use xlink:href="#DejaVuSans-69" x="351.171875"/>
     <use xlink:href="#DejaVuSans-6f" x="378.955078"/>
     <use xlink:href="#DejaVuSans-62" x="440.136719"/>
     <use xlink:href="#DejaVuSans-6a" x="503.613281"/>
     <use xlink:href="#DejaVuSans-20" x="531.396484"/>
     <use xlink:href="#DejaVuSans-66" x="563.183594"/>
     <use xlink:href="#DejaVuSans-36" x="598.388672"/>
     <use xlink:href="#DejaVuSans-2c" x="662.011719"/>
     <use xlink:href="#DejaVuSans-20" x="693.798828"/>
     <use xlink:href="#DejaVuSans-31" x="725.585938"/>
     <use xlink:href="#DejaVuSans-30" x="789.208984"/>
     <use xlink:href="#DejaVuSans-2d" x="852.832031"/>
     <use xlink:href="#DejaVuSans-44" x="888.916016"/>
    </g>
    <!-- 58 targets: 1..-1.0e-4 -->
    <g transform="translate(60.632064 49.533135)scale(0.102 -0.102)">
     <defs>
      <path id="DejaVuSans-35" d="M 691 4666 
L 3169 4666 
L 3169 4134 
L 1269 4134 
L 1269 2991 
Q 1406 3038 1543 3061 
Q 1681 3084 1819 3084 
Q 2600 3084 3056 2656 
Q 3513 2228 3513 1497 
Q 3513 744 3044 326 
Q 2575 -91 1722 -91 
Q 1428 -91 1123 -41 
Q 819 9 494 109 
L 494 744 
Q 775 591 1075 516 
Q 1375 441 1709 441 
Q 2250 441 2565 725 
Q 2881 1009 2881 1497 
Q 2881 1984 2565 2268 
Q 2250 2553 1709 2553 
Q 1456 2553 1204 2497 
Q 953 2441 691 2322 
L 691 4666 
z
" transform="scale(0.015625)"/>
      <path id="DejaVuSans-3a" d="M 750 794 
L 1409 794 
L 1409 0 
L 750 0 
L 750 794 
z
M 750 3309 
L 1409 3309 
L 1409 2516 
L 750 2516 
L 750 3309 
z
" transform="scale(0.015625)"/>
     </defs>
     <use xlink:href="#DejaVuSans-35"/>
     <use xlink:href="#DejaVuSans-38" x="63.623047"/>
     <use xlink:href="#DejaVuSans-20" x="127.246094"/>
     <use xlink:href="#DejaVuSans-74" x="159.033203"/>
     <use xlink:href="#DejaVuSans-61" x="198.242188"/>
     <use xlink:href="#DejaVuSans-72" x="259.521484"/>
     <use xlink:href="#DejaVuSans-67" x="298.884766"/>
     <use xlink:href="#DejaVuSans-65" x="362.361328"/>
     <use xlink:href="#DejaVuSans-74" x="423.884766"/>
     <use xlink:href="#DejaVuSans-73" x="463.09375"/>
     <use xlink:href="#DejaVuSans-3a" x="515.193359"/>
     <use xlink:href="#DejaVuSans-20" x="548.884766"/>
     <use xlink:href="#DejaVuSans-31" x="580.671875"/>
     <use xlink:href="#DejaVuSans-2e" x="644.294922"/>
     <use xlink:href="#DejaVuSans-2e" x="676.082031"/>
     <use xlink:href="#DejaVuSans-2d" x="707.869141"/>
     <use xlink:href="#DejaVuSans-31" x="743.953125"/>
     <use xlink:href="#DejaVuSans-2e" x="807.576172"/>
     <use xlink:href="#DejaVuSans-30" x="839.363281"/>
     <use xlink:href="#DejaVuSans-65" x="902.986328"/>
     <use xlink:href="#DejaVuSans-2d" x="964.509766"/>
     <use xlink:href="#DejaVuSans-34" x="1000.59375"/>
    </g>
    <!-- 10 instances -->
    <g transform="translate(60.632064 60.954904)scale(0.102 -0.102)">
     <use xlink:href="#DejaVuSans-31"/>
     <use xlink:href="#DejaVuSans-30" x="63.623047"/>
     <use xlink:href="#DejaVuSans-20" x="127.246094"/>
     <use xlink:href="#DejaVuSans-69" x="159.033203"/>
     <use xlink:href="#DejaVuSans-6e" x="186.816406"/>
     <use xlink:href="#DejaVuSans-73" x="250.195312"/>
     <use xlink:href="#DejaVuSans-74" x="302.294922"/>
     <use xlink:href="#DejaVuSans-61" x="341.503906"/>
     <use xlink:href="#DejaVuSans-6e" x="402.783203"/>
     <use xlink:href="#DejaVuSans-63" x="466.162109"/>
     <use xlink:href="#DejaVuSans-65" x="521.142578"/>
     <use xlink:href="#DejaVuSans-73" x="582.666016"/>
    </g>
   </g>
   <g id="text_18">
    <!-- v2.6, hv-hash=ff0e71e8cd978373 -->
    <g style="fill: #808080" transform="translate(123.707887 294.151352)scale(0.1 -0.1)">
     <defs>
      <path id="DejaVuSans-68" d="M 3513 2113 
L 3513 0 
L 2938 0 
L 2938 2094 
Q 2938 2591 2744 2837 
Q 2550 3084 2163 3084 
Q 1697 3084 1428 2787 
Q 1159 2491 1159 1978 
L 1159 0 
L 581 0 
L 581 4863 
L 1159 4863 
L 1159 2956 
Q 1366 3272 1645 3428 
Q 1925 3584 2291 3584 
Q 2894 3584 3203 3211 
Q 3513 2838 3513 2113 
z
" transform="scale(0.015625)"/>
      <path id="DejaVuSans-3d" d="M 678 2906 
L 4684 2906 
L 4684 2381 
L 678 2381 
L 678 2906 
z
M 678 1631 
L 4684 1631 
L 4684 1100 
L 678 1100 
L 678 1631 
z
" transform="scale(0.015625)"/>
      <path id="DejaVuSans-37" d="M 525 4666 
L 3525 4666 
L 3525 4397 
L 1831 0 
L 1172 0 
L 2766 4134 
L 525 4134 
L 525 4666 
z
" transform="scale(0.015625)"/>
      <path id="DejaVuSans-39" d="M 703 97 
L 703 672 
Q 941 559 1184 500 
Q 1428 441 1663 441 
Q 2288 441 2617 861 
Q 2947 1281 2994 2138 
Q 2813 1869 2534 1725 
Q 2256 1581 1919 1581 
Q 1219 1581 811 2004 
Q 403 2428 403 3163 
Q 403 3881 828 4315 
Q 1253 4750 1959 4750 
Q 2769 4750 3195 4129 
Q 3622 3509 3622 2328 
Q 3622 1225 3098 567 
Q 2575 -91 1691 -91 
Q 1453 -91 1209 -44 
Q 966 3 703 97 
z
M 1959 2075 
Q 2384 2075 2632 2365 
Q 2881 2656 2881 3163 
Q 2881 3666 2632 3958 
Q 2384 4250 1959 4250 
Q 1534 4250 1286 3958 
Q 1038 3666 1038 3163 
Q 1038 2656 1286 2365 
Q 1534 2075 1959 2075 
z
" transform="scale(0.015625)"/>
      <path id="DejaVuSans-33" d="M 2597 2516 
Q 3050 2419 3304 2112 
Q 3559 1806 3559 1356 
Q 3559 666 3084 287 
Q 2609 -91 1734 -91 
Q 1441 -91 1130 -33 
Q 819 25 488 141 
L 488 750 
Q 750 597 1062 519 
Q 1375 441 1716 441 
Q 2309 441 2620 675 
Q 2931 909 2931 1356 
Q 2931 1769 2642 2001 
Q 2353 2234 1838 2234 
L 1294 2234 
L 1294 2753 
L 1863 2753 
Q 2328 2753 2575 2939 
Q 2822 3125 2822 3475 
Q 2822 3834 2567 4026 
Q 2313 4219 1838 4219 
Q 1578 4219 1281 4162 
Q 984 4106 628 3988 
L 628 4550 
Q 988 4650 1302 4700 
Q 1616 4750 1894 4750 
Q 2613 4750 3031 4423 
Q 3450 4097 3450 3541 
Q 3450 3153 3228 2886 
Q 3006 2619 2597 2516 
z
" transform="scale(0.015625)"/>
     </defs>
     <use xlink:href="#DejaVuSans-76"/>
     <use xlink:href="#DejaVuSans-32" x="59.179688"/>
     <use xlink:href="#DejaVuSans-2e" x="122.802734"/>
     <use xlink:href="#DejaVuSans-36" x="154.589844"/>
     <use xlink:href="#DejaVuSans-2c" x="218.212891"/>
     <use xlink:href="#DejaVuSans-20" x="250"/>
     <use xlink:href="#DejaVuSans-68" x="281.787109"/>
     <use xlink:href="#DejaVuSans-76" x="345.166016"/>
     <use xlink:href="#DejaVuSans-2d" x="401.720703"/>
     <use xlink:href="#DejaVuSans-68" x="437.804688"/>
     <use xlink:href="#DejaVuSans-61" x="501.183594"/>
     <use xlink:href="#DejaVuSans-73" x="562.462891"/>
     <use xlink:href="#DejaVuSans-68" x="614.5625"/>
     <use xlink:href="#DejaVuSans-3d" x="677.941406"/>
     <use xlink:href="#DejaVuSans-66" x="761.730469"/>
     <use xlink:href="#DejaVuSans-66" x="796.935547"/>
     <use xlink:href="#DejaVuSans-30" x="832.140625"/>
     <use xlink:href="#DejaVuSans-65" x="895.763672"/>
     <use xlink:href="#DejaVuSans-37" x="957.287109"/>
     <use xlink:href="#DejaVuSans-31" x="1020.910156"/>
     <use xlink:href="#DejaVuSans-65" x="1084.533203"/>
     <use xlink:href="#DejaVuSans-38" x="1146.056641"/>
     <use xlink:href="#DejaVuSans-63" x="1209.679688"/>
     <use xlink:href="#DejaVuSans-64" x="1264.660156"/>
     <use xlink:href="#DejaVuSans-39" x="1328.136719"/>
     <use xlink:href="#DejaVuSans-37" x="1391.759766"/>
     <use xlink:href="#DejaVuSans-38" x="1455.382812"/>
     <use xlink:href="#DejaVuSans-33" x="1519.005859"/>
     <use xlink:href="#DejaVuSans-37" x="1582.628906"/>
     <use xlink:href="#DejaVuSans-33" x="1646.251953"/>
    </g>
   </g>
   <g id="text_19">
    <!-- 6 Sphere/Different Powers -->
    <g transform="translate(78.482887 21.648)scale(0.2 -0.2)">
     <defs>
      <path id="DejaVuSans-53" d="M 3425 4513 
L 3425 3897 
Q 3066 4069 2747 4153 
Q 2428 4238 2131 4238 
Q 1616 4238 1336 4038 
Q 1056 3838 1056 3469 
Q 1056 3159 1242 3001 
Q 1428 2844 1947 2747 
L 2328 2669 
Q 3034 2534 3370 2195 
Q 3706 1856 3706 1288 
Q 3706 609 3251 259 
Q 2797 -91 1919 -91 
Q 1588 -91 1214 -16 
Q 841 59 441 206 
L 441 856 
Q 825 641 1194 531 
Q 1563 422 1919 422 
Q 2459 422 2753 634 
Q 3047 847 3047 1241 
Q 3047 1584 2836 1778 
Q 2625 1972 2144 2069 
L 1759 2144 
Q 1053 2284 737 2584 
Q 422 2884 422 3419 
Q 422 4038 858 4394 
Q 1294 4750 2059 4750 
Q 2388 4750 2728 4690 
Q 3069 4631 3425 4513 
z
" transform="scale(0.015625)"/>
      <path id="DejaVuSans-50" d="M 1259 4147 
L 1259 2394 
L 2053 2394 
Q 2494 2394 2734 2622 
Q 2975 2850 2975 3272 
Q 2975 3691 2734 3919 
Q 2494 4147 2053 4147 
L 1259 4147 
z
M 628 4666 
L 2053 4666 
Q 2838 4666 3239 4311 
Q 3641 3956 3641 3272 
Q 3641 2581 3239 2228 
Q 2838 1875 2053 1875 
L 1259 1875 
L 1259 0 
L 628 0 
L 628 4666 
z
" transform="scale(0.015625)"/>
      <path id="DejaVuSans-77" d="M 269 3500 
L 844 3500 
L 1563 769 
L 2278 3500 
L 2956 3500 
L 3675 769 
L 4391 3500 
L 4966 3500 
L 4050 0 
L 3372 0 
L 2619 2869 
L 1863 0 
L 1184 0 
L 269 3500 
z
" transform="scale(0.015625)"/>
     </defs>
     <use xlink:href="#DejaVuSans-36"/>
     <use xlink:href="#DejaVuSans-20" x="63.623047"/>
     <use xlink:href="#DejaVuSans-53" x="95.410156"/>
     <use xlink:href="#DejaVuSans-70" x="158.886719"/>
     <use xlink:href="#DejaVuSans-68" x="222.363281"/>
     <use xlink:href="#DejaVuSans-65" x="285.742188"/>
     <use xlink:href="#DejaVuSans-72" x="347.265625"/>
     <use xlink:href="#DejaVuSans-65" x="386.128906"/>
     <use xlink:href="#DejaVuSans-2f" x="447.652344"/>
     <use xlink:href="#DejaVuSans-44" x="481.34375"/>
     <use xlink:href="#DejaVuSans-69" x="558.345703"/>
     <use xlink:href="#DejaVuSans-66" x="586.128906"/>
     <use xlink:href="#DejaVuSans-66" x="621.333984"/>
     <use xlink:href="#DejaVuSans-65" x="656.539062"/>
     <use xlink:href="#DejaVuSans-72" x="718.0625"/>
     <use xlink:href="#DejaVuSans-65" x="756.925781"/>
     <use xlink:href="#DejaVuSans-6e" x="818.449219"/>
     <use xlink:href="#DejaVuSans-74" x="881.828125"/>
     <use xlink:href="#DejaVuSans-20" x="921.037109"/>
     <use xlink:href="#DejaVuSans-50" x="952.824219"/>
     <use xlink:href="#DejaVuSans-6f" x="1009.501953"/>
     <use xlink:href="#DejaVuSans-77" x="1070.683594"/>
     <use xlink:href="#DejaVuSans-65" x="1152.470703"/>
     <use xlink:href="#DejaVuSans-72" x="1213.994141"/>
     <use xlink:href="#DejaVuSans-73" x="1255.107422"/>
    </g>
   </g>
  </g>
 </g>
 <defs>
  <clipPath id="p120586c95e">
   <rect x="57.6" y="27.648" width="303.2064" height="271.296"/>
  </clipPath>
 </defs>
</svg>
