<?xml version="1.0" encoding="utf-8" standalone="no"?>
<!DOCTYPE svg PUBLIC "-//W3C//DTD SVG 1.1//EN"
  "http://www.w3.org/Graphics/SVG/1.1/DTD/svg11.dtd">
<svg xmlns:xlink="http://www.w3.org/1999/xlink" width="460.8pt" height="345.6pt" viewBox="0 0 460.8 345.6" xmlns="http://www.w3.org/2000/svg" version="1.1">
 <metadata>
  <rdf:RDF xmlns:dc="http://purl.org/dc/elements/1.1/" xmlns:cc="http://creativecommons.org/ns#" xmlns:rdf="http://www.w3.org/1999/02/22-rdf-syntax-ns#">
   <cc:Work>
    <dc:type rdf:resource="http://purl.org/dc/dcmitype/StillImage"/>
    <dc:date>2022-06-19T21:03:04.589192</dc:date>
    <dc:format>image/svg+xml</dc:format>
    <dc:creator>
     <cc:Agent>
      <dc:title>Matplotlib v3.5.1, https://matplotlib.org/</dc:title>
     </cc:Agent>
    </dc:creator>
   </cc:Work>
  </rdf:RDF>
 </metadata>
 <defs>
  <style type="text/css">*{stroke-linejoin: round; stroke-linecap: butt}</style>
 </defs>
 <g id="figure_1">
  <g id="patch_1">
   <path d="M 0 345.6 
L 460.8 345.6 
L 460.8 0 
L 0 0 
z
" style="fill: #ffffff"/>
  </g>
  <g id="axes_1">
   <g id="patch_2">
    <path d="M 57.6 298.944 
L 360.8064 298.944 
L 360.8064 6.912 
L 57.6 6.912 
z
" style="fill: #ffffff"/>
   </g>
   <g id="line2d_1">
    <path d="M 27.323974 298.944 
L 27.323974 297.265655 
L 40.363149 297.265655 
L 40.363149 293.908966 
L 53.402323 293.908966 
L 53.402323 290.552276 
L 63.929565 290.552276 
L 63.929565 287.195586 
L 68.65718 287.195586 
L 68.65718 283.838897 
L 70.639174 283.838897 
L 70.639174 280.482207 
L 75.574654 280.482207 
L 75.574654 277.125517 
L 83.678349 277.125517 
L 83.678349 275.447172 
L 84.596168 275.447172 
L 84.596168 272.090483 
L 90.007914 272.090483 
L 90.007914 267.055448 
L 92.519847 267.055448 
L 92.519847 265.377103 
L 95.250946 265.377103 
L 95.250946 263.698759 
L 100.147275 263.698759 
L 100.147275 260.342069 
L 108.29012 260.342069 
L 108.29012 255.307034 
L 114.326893 255.307034 
L 114.326893 250.272 
L 116.907859 250.272 
L 116.907859 248.593655 
L 120.41783 248.593655 
L 120.41783 245.236966 
L 125.729248 245.236966 
L 125.729248 241.880276 
L 127.366067 241.880276 
L 127.366067 238.523586 
L 132.216233 238.523586 
L 132.216233 236.845241 
L 136.068734 236.845241 
L 136.068734 231.810207 
L 136.696795 231.810207 
L 136.696795 230.131862 
L 140.58877 230.131862 
L 140.58877 226.775172 
L 143.225848 226.775172 
L 143.225848 223.418483 
L 146.193574 223.418483 
L 146.193574 220.061793 
L 148.063382 220.061793 
L 148.063382 215.026759 
L 150.773735 215.026759 
L 150.773735 211.670069 
L 156.985263 211.670069 
L 156.985263 208.313379 
L 158.542339 208.313379 
L 158.542339 204.95669 
L 165.898243 204.95669 
L 165.898243 203.278345 
L 169.284344 203.278345 
L 169.284344 198.24331 
L 171.895337 198.24331 
L 171.895337 193.208276 
L 172.674324 193.208276 
L 172.674324 189.851586 
L 172.896949 189.851586 
L 172.896949 186.494897 
L 178.148176 186.494897 
L 178.148176 184.816552 
L 184.977687 184.816552 
L 184.977687 181.459862 
L 186.139934 181.459862 
L 186.139934 178.103172 
L 188.506367 178.103172 
L 188.506367 174.746483 
L 192.02113 174.746483 
L 192.02113 169.711448 
L 195.609373 169.711448 
L 195.609373 168.033103 
L 196.026239 168.033103 
L 196.026239 166.354759 
L 201.038266 166.354759 
L 201.038266 162.998069 
L 206.714416 162.998069 
L 206.714416 157.963034 
L 207.760358 157.963034 
L 207.760358 152.928 
L 208.013003 152.928 
L 208.013003 151.249655 
L 215.649724 151.249655 
L 215.649724 146.214621 
L 219.066944 146.214621 
L 219.066944 144.536276 
L 220.122727 144.536276 
L 220.122727 142.857931 
L 223.182889 142.857931 
L 223.182889 141.179586 
L 227.236057 141.179586 
L 227.236057 136.144552 
L 230.103845 136.144552 
L 230.103845 131.109517 
L 231.375892 131.109517 
L 231.375892 126.074483 
L 236.216121 126.074483 
L 236.216121 122.717793 
L 237.652774 122.717793 
L 237.652774 121.039448 
L 238.174866 121.039448 
L 238.174866 117.682759 
L 239.820439 117.682759 
L 239.820439 112.647724 
L 242.935464 112.647724 
L 242.935464 110.969379 
L 243.298848 110.969379 
L 243.298848 107.61269 
L 246.71921 107.61269 
L 246.71921 104.256 
L 246.894895 104.256 
L 246.894895 99.220966 
L 247.322984 99.220966 
L 247.322984 97.542621 
L 249.811203 97.542621 
L 249.811203 92.507586 
L 252.113135 92.507586 
L 252.113135 89.150897 
L 254.229248 89.150897 
L 254.229248 87.472552 
L 255.512186 87.472552 
L 255.512186 85.794207 
L 257.812843 85.794207 
L 257.812843 82.437517 
L 262.347956 82.437517 
L 262.347956 79.080828 
L 262.7093 79.080828 
L 262.7093 77.402483 
L 268.279186 77.402483 
L 268.279186 74.045793 
L 268.745483 74.045793 
L 268.745483 69.010759 
L 271.360954 69.010759 
L 271.360954 63.975724 
L 274.995599 63.975724 
L 274.995599 58.94069 
L 283.237966 58.94069 
L 283.237966 55.584 
L 284.701672 55.584 
L 284.701672 52.22731 
L 287.220196 52.22731 
L 287.220196 50.548966 
L 292.279619 50.548966 
L 292.279619 47.192276 
L 300.793357 47.192276 
L 300.793357 42.157241 
L 360.8064 42.157241 
L 360.8064 42.157241 
" style="fill: none; stroke: #f5deb3; stroke-width: 4; stroke-linecap: square"/>
   </g>
   <g id="line2d_2">
    <defs>
     <path id="m49b4ea30df" d="M 0 7.778175 
L 7.778175 0 
L 0 -7.778175 
L -7.778175 0 
z
" style="stroke: #f5deb3; stroke-width: 1.5; stroke-linejoin: miter"/>
    </defs>
    <g>
     <use xlink:href="#m49b4ea30df" x="136.068734" y="231.810207" style="fill: #f5deb3; stroke: #f5deb3; stroke-width: 1.5; stroke-linejoin: miter"/>
     <use xlink:href="#m49b4ea30df" x="186.139934" y="178.103172" style="fill: #f5deb3; stroke: #f5deb3; stroke-width: 1.5; stroke-linejoin: miter"/>
     <use xlink:href="#m49b4ea30df" x="239.820439" y="112.647724" style="fill: #f5deb3; stroke: #f5deb3; stroke-width: 1.5; stroke-linejoin: miter"/>
     <use xlink:href="#m49b4ea30df" x="300.793357" y="42.157241" style="fill: #f5deb3; stroke: #f5deb3; stroke-width: 1.5; stroke-linejoin: miter"/>
     <use xlink:href="#m49b4ea30df" x="300.793357" y="42.157241" style="fill: #f5deb3; stroke: #f5deb3; stroke-width: 1.5; stroke-linejoin: miter"/>
     <use xlink:href="#m49b4ea30df" x="360.8064" y="42.157241" style="fill: #f5deb3; stroke: #f5deb3; stroke-width: 1.5; stroke-linejoin: miter"/>
    </g>
   </g>
   <g id="line2d_3">
    <path style="fill: none; stroke: #f5deb3; stroke-width: 4; stroke-linecap: square"/>
    <g/>
   </g>
   <g id="line2d_4">
    <path d="M 360.8064 42.157241 
L 380.514816 12.75264 
" style="fill: none; stroke: #f5deb3; stroke-width: 4; stroke-linecap: square"/>
    <g>
     <use xlink:href="#m49b4ea30df" x="360.8064" y="42.157241" style="fill: #f5deb3; stroke: #f5deb3; stroke-width: 1.5; stroke-linejoin: miter"/>
     <use xlink:href="#m49b4ea30df" x="380.514816" y="12.75264" style="fill: #f5deb3; stroke: #f5deb3; stroke-width: 1.5; stroke-linejoin: miter"/>
    </g>
   </g>
   <g id="matplotlib.axis_1">
    <g id="xtick_1">
     <g id="line2d_5">
      <path d="M 57.6 298.944 
L 57.6 6.912 
" clip-path="url(#pa82c18605d)" style="fill: none; stroke: #b0b0b0; stroke-width: 0.8; stroke-linecap: square"/>
     </g>
     <g id="line2d_6">
      <defs>
       <path id="md30d328d94" d="M 0 0 
L 0 3.5 
" style="stroke: #000000; stroke-width: 0.8"/>
      </defs>
      <g>
       <use xlink:href="#md30d328d94" x="57.6" y="298.944" style="stroke: #000000; stroke-width: 0.8"/>
      </g>
     </g>
     <g id="text_1">
      <!-- 0 -->
      <g transform="translate(52.191875 318.861344)scale(0.17 -0.17)">
       <defs>
        <path id="DejaVuSans-30" d="M 2034 4250 
Q 1547 4250 1301 3770 
Q 1056 3291 1056 2328 
Q 1056 1369 1301 889 
Q 1547 409 2034 409 
Q 2525 409 2770 889 
Q 3016 1369 3016 2328 
Q 3016 3291 2770 3770 
Q 2525 4250 2034 4250 
z
M 2034 4750 
Q 2819 4750 3233 4129 
Q 3647 3509 3647 2328 
Q 3647 1150 3233 529 
Q 2819 -91 2034 -91 
Q 1250 -91 836 529 
Q 422 1150 422 2328 
Q 422 3509 836 4129 
Q 1250 4750 2034 4750 
z
" transform="scale(0.015625)"/>
       </defs>
       <use xlink:href="#DejaVuSans-30"/>
      </g>
     </g>
    </g>
    <g id="xtick_2">
     <g id="line2d_7">
      <path d="M 144.2304 298.944 
L 144.2304 6.912 
" clip-path="url(#pa82c18605d)" style="fill: none; stroke: #b0b0b0; stroke-width: 0.8; stroke-linecap: square"/>
     </g>
     <g id="line2d_8">
      <g>
       <use xlink:href="#md30d328d94" x="144.2304" y="298.944" style="stroke: #000000; stroke-width: 0.8"/>
      </g>
     </g>
     <g id="text_2">
      <!-- 2 -->
      <g transform="translate(138.822275 318.861344)scale(0.17 -0.17)">
       <defs>
        <path id="DejaVuSans-32" d="M 1228 531 
L 3431 531 
L 3431 0 
L 469 0 
L 469 531 
Q 828 903 1448 1529 
Q 2069 2156 2228 2338 
Q 2531 2678 2651 2914 
Q 2772 3150 2772 3378 
Q 2772 3750 2511 3984 
Q 2250 4219 1831 4219 
Q 1534 4219 1204 4116 
Q 875 4013 500 3803 
L 500 4441 
Q 881 4594 1212 4672 
Q 1544 4750 1819 4750 
Q 2544 4750 2975 4387 
Q 3406 4025 3406 3419 
Q 3406 3131 3298 2873 
Q 3191 2616 2906 2266 
Q 2828 2175 2409 1742 
Q 1991 1309 1228 531 
z
" transform="scale(0.015625)"/>
       </defs>
       <use xlink:href="#DejaVuSans-32"/>
      </g>
     </g>
    </g>
    <g id="xtick_3">
     <g id="line2d_9">
      <path d="M 230.8608 298.944 
L 230.8608 6.912 
" clip-path="url(#pa82c18605d)" style="fill: none; stroke: #b0b0b0; stroke-width: 0.8; stroke-linecap: square"/>
     </g>
     <g id="line2d_10">
      <g>
       <use xlink:href="#md30d328d94" x="230.8608" y="298.944" style="stroke: #000000; stroke-width: 0.8"/>
      </g>
     </g>
     <g id="text_3">
      <!-- 4 -->
      <g transform="translate(225.452675 318.861344)scale(0.17 -0.17)">
       <defs>
        <path id="DejaVuSans-34" d="M 2419 4116 
L 825 1625 
L 2419 1625 
L 2419 4116 
z
M 2253 4666 
L 3047 4666 
L 3047 1625 
L 3713 1625 
L 3713 1100 
L 3047 1100 
L 3047 0 
L 2419 0 
L 2419 1100 
L 313 1100 
L 313 1709 
L 2253 4666 
z
" transform="scale(0.015625)"/>
       </defs>
       <use xlink:href="#DejaVuSans-34"/>
      </g>
     </g>
    </g>
    <g id="xtick_4">
     <g id="line2d_11">
      <path d="M 317.4912 298.944 
L 317.4912 6.912 
" clip-path="url(#pa82c18605d)" style="fill: none; stroke: #b0b0b0; stroke-width: 0.8; stroke-linecap: square"/>
     </g>
     <g id="line2d_12">
      <g>
       <use xlink:href="#md30d328d94" x="317.4912" y="298.944" style="stroke: #000000; stroke-width: 0.8"/>
      </g>
     </g>
     <g id="text_4">
      <!-- 6 -->
      <g transform="translate(312.083075 318.861344)scale(0.17 -0.17)">
       <defs>
        <path id="DejaVuSans-36" d="M 2113 2584 
Q 1688 2584 1439 2293 
Q 1191 2003 1191 1497 
Q 1191 994 1439 701 
Q 1688 409 2113 409 
Q 2538 409 2786 701 
Q 3034 994 3034 1497 
Q 3034 2003 2786 2293 
Q 2538 2584 2113 2584 
z
M 3366 4563 
L 3366 3988 
Q 3128 4100 2886 4159 
Q 2644 4219 2406 4219 
Q 1781 4219 1451 3797 
Q 1122 3375 1075 2522 
Q 1259 2794 1537 2939 
Q 1816 3084 2150 3084 
Q 2853 3084 3261 2657 
Q 3669 2231 3669 1497 
Q 3669 778 3244 343 
Q 2819 -91 2113 -91 
Q 1303 -91 875 529 
Q 447 1150 447 2328 
Q 447 3434 972 4092 
Q 1497 4750 2381 4750 
Q 2619 4750 2861 4703 
Q 3103 4656 3366 4563 
z
" transform="scale(0.015625)"/>
       </defs>
       <use xlink:href="#DejaVuSans-36"/>
      </g>
     </g>
    </g>
    <g id="xtick_5">
     <g id="line2d_13">
      <path d="M 100.9152 298.944 
L 100.9152 6.912 
" clip-path="url(#pa82c18605d)" style="fill: none; stroke: #b0b0b0; stroke-width: 0.8; stroke-linecap: square"/>
     </g>
     <g id="line2d_14">
      <defs>
       <path id="mf4a977018b" d="M 0 0 
L 0 2 
" style="stroke: #000000; stroke-width: 0.6"/>
      </defs>
      <g>
       <use xlink:href="#mf4a977018b" x="100.9152" y="298.944" style="stroke: #000000; stroke-width: 0.6"/>
      </g>
     </g>
    </g>
    <g id="xtick_6">
     <g id="line2d_15">
      <path d="M 187.5456 298.944 
L 187.5456 6.912 
" clip-path="url(#pa82c18605d)" style="fill: none; stroke: #b0b0b0; stroke-width: 0.8; stroke-linecap: square"/>
     </g>
     <g id="line2d_16">
      <g>
       <use xlink:href="#mf4a977018b" x="187.5456" y="298.944" style="stroke: #000000; stroke-width: 0.6"/>
      </g>
     </g>
    </g>
    <g id="xtick_7">
     <g id="line2d_17">
      <path d="M 274.176 298.944 
L 274.176 6.912 
" clip-path="url(#pa82c18605d)" style="fill: none; stroke: #b0b0b0; stroke-width: 0.8; stroke-linecap: square"/>
     </g>
     <g id="line2d_18">
      <g>
       <use xlink:href="#mf4a977018b" x="274.176" y="298.944" style="stroke: #000000; stroke-width: 0.6"/>
      </g>
     </g>
    </g>
    <g id="xtick_8">
     <g id="line2d_19">
      <path d="M 360.8064 298.944 
L 360.8064 6.912 
" clip-path="url(#pa82c18605d)" style="fill: none; stroke: #b0b0b0; stroke-width: 0.8; stroke-linecap: square"/>
     </g>
     <g id="line2d_20">
      <g>
       <use xlink:href="#mf4a977018b" x="360.8064" y="298.944" style="stroke: #000000; stroke-width: 0.6"/>
      </g>
     </g>
    </g>
    <g id="text_5">
     <!-- log10(# f-evals / dimension) -->
     <g transform="translate(88.823278 339.314156)scale(0.17 -0.17)">
      <defs>
       <path id="DejaVuSans-6c" d="M 603 4863 
L 1178 4863 
L 1178 0 
L 603 0 
L 603 4863 
z
" transform="scale(0.015625)"/>
       <path id="DejaVuSans-6f" d="M 1959 3097 
Q 1497 3097 1228 2736 
Q 959 2375 959 1747 
Q 959 1119 1226 758 
Q 1494 397 1959 397 
Q 2419 397 2687 759 
Q 2956 1122 2956 1747 
Q 2956 2369 2687 2733 
Q 2419 3097 1959 3097 
z
M 1959 3584 
Q 2709 3584 3137 3096 
Q 3566 2609 3566 1747 
Q 3566 888 3137 398 
Q 2709 -91 1959 -91 
Q 1206 -91 779 398 
Q 353 888 353 1747 
Q 353 2609 779 3096 
Q 1206 3584 1959 3584 
z
" transform="scale(0.015625)"/>
       <path id="DejaVuSans-67" d="M 2906 1791 
Q 2906 2416 2648 2759 
Q 2391 3103 1925 3103 
Q 1463 3103 1205 2759 
Q 947 2416 947 1791 
Q 947 1169 1205 825 
Q 1463 481 1925 481 
Q 2391 481 2648 825 
Q 2906 1169 2906 1791 
z
M 3481 434 
Q 3481 -459 3084 -895 
Q 2688 -1331 1869 -1331 
Q 1566 -1331 1297 -1286 
Q 1028 -1241 775 -1147 
L 775 -588 
Q 1028 -725 1275 -790 
Q 1522 -856 1778 -856 
Q 2344 -856 2625 -561 
Q 2906 -266 2906 331 
L 2906 616 
Q 2728 306 2450 153 
Q 2172 0 1784 0 
Q 1141 0 747 490 
Q 353 981 353 1791 
Q 353 2603 747 3093 
Q 1141 3584 1784 3584 
Q 2172 3584 2450 3431 
Q 2728 3278 2906 2969 
L 2906 3500 
L 3481 3500 
L 3481 434 
z
" transform="scale(0.015625)"/>
       <path id="DejaVuSans-31" d="M 794 531 
L 1825 531 
L 1825 4091 
L 703 3866 
L 703 4441 
L 1819 4666 
L 2450 4666 
L 2450 531 
L 3481 531 
L 3481 0 
L 794 0 
L 794 531 
z
" transform="scale(0.015625)"/>
       <path id="DejaVuSans-28" d="M 1984 4856 
Q 1566 4138 1362 3434 
Q 1159 2731 1159 2009 
Q 1159 1288 1364 580 
Q 1569 -128 1984 -844 
L 1484 -844 
Q 1016 -109 783 600 
Q 550 1309 550 2009 
Q 550 2706 781 3412 
Q 1013 4119 1484 4856 
L 1984 4856 
z
" transform="scale(0.015625)"/>
       <path id="DejaVuSans-23" d="M 3272 2816 
L 2363 2816 
L 2100 1772 
L 3016 1772 
L 3272 2816 
z
M 2803 4594 
L 2478 3297 
L 3391 3297 
L 3719 4594 
L 4219 4594 
L 3897 3297 
L 4872 3297 
L 4872 2816 
L 3775 2816 
L 3519 1772 
L 4513 1772 
L 4513 1294 
L 3397 1294 
L 3072 0 
L 2572 0 
L 2894 1294 
L 1978 1294 
L 1656 0 
L 1153 0 
L 1478 1294 
L 494 1294 
L 494 1772 
L 1594 1772 
L 1856 2816 
L 850 2816 
L 850 3297 
L 1978 3297 
L 2297 4594 
L 2803 4594 
z
" transform="scale(0.015625)"/>
       <path id="DejaVuSans-20" transform="scale(0.015625)"/>
       <path id="DejaVuSans-66" d="M 2375 4863 
L 2375 4384 
L 1825 4384 
Q 1516 4384 1395 4259 
Q 1275 4134 1275 3809 
L 1275 3500 
L 2222 3500 
L 2222 3053 
L 1275 3053 
L 1275 0 
L 697 0 
L 697 3053 
L 147 3053 
L 147 3500 
L 697 3500 
L 697 3744 
Q 697 4328 969 4595 
Q 1241 4863 1831 4863 
L 2375 4863 
z
" transform="scale(0.015625)"/>
       <path id="DejaVuSans-2d" d="M 313 2009 
L 1997 2009 
L 1997 1497 
L 313 1497 
L 313 2009 
z
" transform="scale(0.015625)"/>
       <path id="DejaVuSans-65" d="M 3597 1894 
L 3597 1613 
L 953 1613 
Q 991 1019 1311 708 
Q 1631 397 2203 397 
Q 2534 397 2845 478 
Q 3156 559 3463 722 
L 3463 178 
Q 3153 47 2828 -22 
Q 2503 -91 2169 -91 
Q 1331 -91 842 396 
Q 353 884 353 1716 
Q 353 2575 817 3079 
Q 1281 3584 2069 3584 
Q 2775 3584 3186 3129 
Q 3597 2675 3597 1894 
z
M 3022 2063 
Q 3016 2534 2758 2815 
Q 2500 3097 2075 3097 
Q 1594 3097 1305 2825 
Q 1016 2553 972 2059 
L 3022 2063 
z
" transform="scale(0.015625)"/>
       <path id="DejaVuSans-76" d="M 191 3500 
L 800 3500 
L 1894 563 
L 2988 3500 
L 3597 3500 
L 2284 0 
L 1503 0 
L 191 3500 
z
" transform="scale(0.015625)"/>
       <path id="DejaVuSans-61" d="M 2194 1759 
Q 1497 1759 1228 1600 
Q 959 1441 959 1056 
Q 959 750 1161 570 
Q 1363 391 1709 391 
Q 2188 391 2477 730 
Q 2766 1069 2766 1631 
L 2766 1759 
L 2194 1759 
z
M 3341 1997 
L 3341 0 
L 2766 0 
L 2766 531 
Q 2569 213 2275 61 
Q 1981 -91 1556 -91 
Q 1019 -91 701 211 
Q 384 513 384 1019 
Q 384 1609 779 1909 
Q 1175 2209 1959 2209 
L 2766 2209 
L 2766 2266 
Q 2766 2663 2505 2880 
Q 2244 3097 1772 3097 
Q 1472 3097 1187 3025 
Q 903 2953 641 2809 
L 641 3341 
Q 956 3463 1253 3523 
Q 1550 3584 1831 3584 
Q 2591 3584 2966 3190 
Q 3341 2797 3341 1997 
z
" transform="scale(0.015625)"/>
       <path id="DejaVuSans-73" d="M 2834 3397 
L 2834 2853 
Q 2591 2978 2328 3040 
Q 2066 3103 1784 3103 
Q 1356 3103 1142 2972 
Q 928 2841 928 2578 
Q 928 2378 1081 2264 
Q 1234 2150 1697 2047 
L 1894 2003 
Q 2506 1872 2764 1633 
Q 3022 1394 3022 966 
Q 3022 478 2636 193 
Q 2250 -91 1575 -91 
Q 1294 -91 989 -36 
Q 684 19 347 128 
L 347 722 
Q 666 556 975 473 
Q 1284 391 1588 391 
Q 1994 391 2212 530 
Q 2431 669 2431 922 
Q 2431 1156 2273 1281 
Q 2116 1406 1581 1522 
L 1381 1569 
Q 847 1681 609 1914 
Q 372 2147 372 2553 
Q 372 3047 722 3315 
Q 1072 3584 1716 3584 
Q 2034 3584 2315 3537 
Q 2597 3491 2834 3397 
z
" transform="scale(0.015625)"/>
       <path id="DejaVuSans-2f" d="M 1625 4666 
L 2156 4666 
L 531 -594 
L 0 -594 
L 1625 4666 
z
" transform="scale(0.015625)"/>
       <path id="DejaVuSans-64" d="M 2906 2969 
L 2906 4863 
L 3481 4863 
L 3481 0 
L 2906 0 
L 2906 525 
Q 2725 213 2448 61 
Q 2172 -91 1784 -91 
Q 1150 -91 751 415 
Q 353 922 353 1747 
Q 353 2572 751 3078 
Q 1150 3584 1784 3584 
Q 2172 3584 2448 3432 
Q 2725 3281 2906 2969 
z
M 947 1747 
Q 947 1113 1208 752 
Q 1469 391 1925 391 
Q 2381 391 2643 752 
Q 2906 1113 2906 1747 
Q 2906 2381 2643 2742 
Q 2381 3103 1925 3103 
Q 1469 3103 1208 2742 
Q 947 2381 947 1747 
z
" transform="scale(0.015625)"/>
       <path id="DejaVuSans-69" d="M 603 3500 
L 1178 3500 
L 1178 0 
L 603 0 
L 603 3500 
z
M 603 4863 
L 1178 4863 
L 1178 4134 
L 603 4134 
L 603 4863 
z
" transform="scale(0.015625)"/>
       <path id="DejaVuSans-6d" d="M 3328 2828 
Q 3544 3216 3844 3400 
Q 4144 3584 4550 3584 
Q 5097 3584 5394 3201 
Q 5691 2819 5691 2113 
L 5691 0 
L 5113 0 
L 5113 2094 
Q 5113 2597 4934 2840 
Q 4756 3084 4391 3084 
Q 3944 3084 3684 2787 
Q 3425 2491 3425 1978 
L 3425 0 
L 2847 0 
L 2847 2094 
Q 2847 2600 2669 2842 
Q 2491 3084 2119 3084 
Q 1678 3084 1418 2786 
Q 1159 2488 1159 1978 
L 1159 0 
L 581 0 
L 581 3500 
L 1159 3500 
L 1159 2956 
Q 1356 3278 1631 3431 
Q 1906 3584 2284 3584 
Q 2666 3584 2933 3390 
Q 3200 3197 3328 2828 
z
" transform="scale(0.015625)"/>
       <path id="DejaVuSans-6e" d="M 3513 2113 
L 3513 0 
L 2938 0 
L 2938 2094 
Q 2938 2591 2744 2837 
Q 2550 3084 2163 3084 
Q 1697 3084 1428 2787 
Q 1159 2491 1159 1978 
L 1159 0 
L 581 0 
L 581 3500 
L 1159 3500 
L 1159 2956 
Q 1366 3272 1645 3428 
Q 1925 3584 2291 3584 
Q 2894 3584 3203 3211 
Q 3513 2838 3513 2113 
z
" transform="scale(0.015625)"/>
       <path id="DejaVuSans-29" d="M 513 4856 
L 1013 4856 
Q 1481 4119 1714 3412 
Q 1947 2706 1947 2009 
Q 1947 1309 1714 600 
Q 1481 -109 1013 -844 
L 513 -844 
Q 928 -128 1133 580 
Q 1338 1288 1338 2009 
Q 1338 2731 1133 3434 
Q 928 4138 513 4856 
z
" transform="scale(0.015625)"/>
      </defs>
      <use xlink:href="#DejaVuSans-6c"/>
      <use xlink:href="#DejaVuSans-6f" x="27.783203"/>
      <use xlink:href="#DejaVuSans-67" x="88.964844"/>
      <use xlink:href="#DejaVuSans-31" x="152.441406"/>
      <use xlink:href="#DejaVuSans-30" x="216.064453"/>
      <use xlink:href="#DejaVuSans-28" x="279.6875"/>
      <use xlink:href="#DejaVuSans-23" x="318.701172"/>
      <use xlink:href="#DejaVuSans-20" x="402.490234"/>
      <use xlink:href="#DejaVuSans-66" x="434.277344"/>
      <use xlink:href="#DejaVuSans-2d" x="463.982422"/>
      <use xlink:href="#DejaVuSans-65" x="500.066406"/>
      <use xlink:href="#DejaVuSans-76" x="561.589844"/>
      <use xlink:href="#DejaVuSans-61" x="620.769531"/>
      <use xlink:href="#DejaVuSans-6c" x="682.048828"/>
      <use xlink:href="#DejaVuSans-73" x="709.832031"/>
      <use xlink:href="#DejaVuSans-20" x="761.931641"/>
      <use xlink:href="#DejaVuSans-2f" x="793.71875"/>
      <use xlink:href="#DejaVuSans-20" x="827.410156"/>
      <use xlink:href="#DejaVuSans-64" x="859.197266"/>
      <use xlink:href="#DejaVuSans-69" x="922.673828"/>
      <use xlink:href="#DejaVuSans-6d" x="950.457031"/>
      <use xlink:href="#DejaVuSans-65" x="1047.869141"/>
      <use xlink:href="#DejaVuSans-6e" x="1109.392578"/>
      <use xlink:href="#DejaVuSans-73" x="1172.771484"/>
      <use xlink:href="#DejaVuSans-69" x="1224.871094"/>
      <use xlink:href="#DejaVuSans-6f" x="1252.654297"/>
      <use xlink:href="#DejaVuSans-6e" x="1313.835938"/>
      <use xlink:href="#DejaVuSans-29" x="1377.214844"/>
     </g>
    </g>
   </g>
   <g id="matplotlib.axis_2">
    <g id="ytick_1">
     <g id="line2d_21">
      <path d="M 57.6 298.944 
L 360.8064 298.944 
" clip-path="url(#pa82c18605d)" style="fill: none; stroke: #b0b0b0; stroke-width: 0.8; stroke-linecap: square"/>
     </g>
     <g id="line2d_22">
      <defs>
       <path id="m3844d71268" d="M 0 0 
L -3.5 0 
" style="stroke: #000000; stroke-width: 0.8"/>
      </defs>
      <g>
       <use xlink:href="#m3844d71268" x="57.6" y="298.944" style="stroke: #000000; stroke-width: 0.8"/>
      </g>
     </g>
     <g id="text_6">
      <!-- 0.0 -->
      <g transform="translate(25.155 305.02275)scale(0.16 -0.16)">
       <defs>
        <path id="DejaVuSans-2e" d="M 684 794 
L 1344 794 
L 1344 0 
L 684 0 
L 684 794 
z
" transform="scale(0.015625)"/>
       </defs>
       <use xlink:href="#DejaVuSans-30"/>
       <use xlink:href="#DejaVuSans-2e" x="63.623047"/>
       <use xlink:href="#DejaVuSans-30" x="95.410156"/>
      </g>
     </g>
    </g>
    <g id="ytick_2">
     <g id="line2d_23">
      <path d="M 57.6 240.5376 
L 360.8064 240.5376 
" clip-path="url(#pa82c18605d)" style="fill: none; stroke: #b0b0b0; stroke-width: 0.8; stroke-linecap: square"/>
     </g>
     <g id="line2d_24">
      <g>
       <use xlink:href="#m3844d71268" x="57.6" y="240.5376" style="stroke: #000000; stroke-width: 0.8"/>
      </g>
     </g>
     <g id="text_7">
      <!-- 0.2 -->
      <g transform="translate(25.155 246.61635)scale(0.16 -0.16)">
       <use xlink:href="#DejaVuSans-30"/>
       <use xlink:href="#DejaVuSans-2e" x="63.623047"/>
       <use xlink:href="#DejaVuSans-32" x="95.410156"/>
      </g>
     </g>
    </g>
    <g id="ytick_3">
     <g id="line2d_25">
      <path d="M 57.6 182.1312 
L 360.8064 182.1312 
" clip-path="url(#pa82c18605d)" style="fill: none; stroke: #b0b0b0; stroke-width: 0.8; stroke-linecap: square"/>
     </g>
     <g id="line2d_26">
      <g>
       <use xlink:href="#m3844d71268" x="57.6" y="182.1312" style="stroke: #000000; stroke-width: 0.8"/>
      </g>
     </g>
     <g id="text_8">
      <!-- 0.4 -->
      <g transform="translate(25.155 188.20995)scale(0.16 -0.16)">
       <use xlink:href="#DejaVuSans-30"/>
       <use xlink:href="#DejaVuSans-2e" x="63.623047"/>
       <use xlink:href="#DejaVuSans-34" x="95.410156"/>
      </g>
     </g>
    </g>
    <g id="ytick_4">
     <g id="line2d_27">
      <path d="M 57.6 123.7248 
L 360.8064 123.7248 
" clip-path="url(#pa82c18605d)" style="fill: none; stroke: #b0b0b0; stroke-width: 0.8; stroke-linecap: square"/>
     </g>
     <g id="line2d_28">
      <g>
       <use xlink:href="#m3844d71268" x="57.6" y="123.7248" style="stroke: #000000; stroke-width: 0.8"/>
      </g>
     </g>
     <g id="text_9">
      <!-- 0.6 -->
      <g transform="translate(25.155 129.80355)scale(0.16 -0.16)">
       <use xlink:href="#DejaVuSans-30"/>
       <use xlink:href="#DejaVuSans-2e" x="63.623047"/>
       <use xlink:href="#DejaVuSans-36" x="95.410156"/>
      </g>
     </g>
    </g>
    <g id="ytick_5">
     <g id="line2d_29">
      <path d="M 57.6 65.3184 
L 360.8064 65.3184 
" clip-path="url(#pa82c18605d)" style="fill: none; stroke: #b0b0b0; stroke-width: 0.8; stroke-linecap: square"/>
     </g>
     <g id="line2d_30">
      <g>
       <use xlink:href="#m3844d71268" x="57.6" y="65.3184" style="stroke: #000000; stroke-width: 0.8"/>
      </g>
     </g>
     <g id="text_10">
      <!-- 0.8 -->
      <g transform="translate(25.155 71.39715)scale(0.16 -0.16)">
       <defs>
        <path id="DejaVuSans-38" d="M 2034 2216 
Q 1584 2216 1326 1975 
Q 1069 1734 1069 1313 
Q 1069 891 1326 650 
Q 1584 409 2034 409 
Q 2484 409 2743 651 
Q 3003 894 3003 1313 
Q 3003 1734 2745 1975 
Q 2488 2216 2034 2216 
z
M 1403 2484 
Q 997 2584 770 2862 
Q 544 3141 544 3541 
Q 544 4100 942 4425 
Q 1341 4750 2034 4750 
Q 2731 4750 3128 4425 
Q 3525 4100 3525 3541 
Q 3525 3141 3298 2862 
Q 3072 2584 2669 2484 
Q 3125 2378 3379 2068 
Q 3634 1759 3634 1313 
Q 3634 634 3220 271 
Q 2806 -91 2034 -91 
Q 1263 -91 848 271 
Q 434 634 434 1313 
Q 434 1759 690 2068 
Q 947 2378 1403 2484 
z
M 1172 3481 
Q 1172 3119 1398 2916 
Q 1625 2713 2034 2713 
Q 2441 2713 2670 2916 
Q 2900 3119 2900 3481 
Q 2900 3844 2670 4047 
Q 2441 4250 2034 4250 
Q 1625 4250 1398 4047 
Q 1172 3844 1172 3481 
z
" transform="scale(0.015625)"/>
       </defs>
       <use xlink:href="#DejaVuSans-30"/>
       <use xlink:href="#DejaVuSans-2e" x="63.623047"/>
       <use xlink:href="#DejaVuSans-38" x="95.410156"/>
      </g>
     </g>
    </g>
    <g id="ytick_6">
     <g id="line2d_31">
      <path d="M 57.6 6.912 
L 360.8064 6.912 
" clip-path="url(#pa82c18605d)" style="fill: none; stroke: #b0b0b0; stroke-width: 0.8; stroke-linecap: square"/>
     </g>
     <g id="line2d_32">
      <g>
       <use xlink:href="#m3844d71268" x="57.6" y="6.912" style="stroke: #000000; stroke-width: 0.8"/>
      </g>
     </g>
     <g id="text_11">
      <!-- 1.0 -->
      <g transform="translate(25.155 12.99075)scale(0.16 -0.16)">
       <use xlink:href="#DejaVuSans-31"/>
       <use xlink:href="#DejaVuSans-2e" x="63.623047"/>
       <use xlink:href="#DejaVuSans-30" x="95.410156"/>
      </g>
     </g>
    </g>
    <g id="text_12">
     <!-- Fraction of function,target pairs -->
     <g transform="translate(17.619531 287.313)rotate(-90)scale(0.17 -0.17)">
      <defs>
       <path id="DejaVuSans-46" d="M 628 4666 
L 3309 4666 
L 3309 4134 
L 1259 4134 
L 1259 2759 
L 3109 2759 
L 3109 2228 
L 1259 2228 
L 1259 0 
L 628 0 
L 628 4666 
z
" transform="scale(0.015625)"/>
       <path id="DejaVuSans-72" d="M 2631 2963 
Q 2534 3019 2420 3045 
Q 2306 3072 2169 3072 
Q 1681 3072 1420 2755 
Q 1159 2438 1159 1844 
L 1159 0 
L 581 0 
L 581 3500 
L 1159 3500 
L 1159 2956 
Q 1341 3275 1631 3429 
Q 1922 3584 2338 3584 
Q 2397 3584 2469 3576 
Q 2541 3569 2628 3553 
L 2631 2963 
z
" transform="scale(0.015625)"/>
       <path id="DejaVuSans-63" d="M 3122 3366 
L 3122 2828 
Q 2878 2963 2633 3030 
Q 2388 3097 2138 3097 
Q 1578 3097 1268 2742 
Q 959 2388 959 1747 
Q 959 1106 1268 751 
Q 1578 397 2138 397 
Q 2388 397 2633 464 
Q 2878 531 3122 666 
L 3122 134 
Q 2881 22 2623 -34 
Q 2366 -91 2075 -91 
Q 1284 -91 818 406 
Q 353 903 353 1747 
Q 353 2603 823 3093 
Q 1294 3584 2113 3584 
Q 2378 3584 2631 3529 
Q 2884 3475 3122 3366 
z
" transform="scale(0.015625)"/>
       <path id="DejaVuSans-74" d="M 1172 4494 
L 1172 3500 
L 2356 3500 
L 2356 3053 
L 1172 3053 
L 1172 1153 
Q 1172 725 1289 603 
Q 1406 481 1766 481 
L 2356 481 
L 2356 0 
L 1766 0 
Q 1100 0 847 248 
Q 594 497 594 1153 
L 594 3053 
L 172 3053 
L 172 3500 
L 594 3500 
L 594 4494 
L 1172 4494 
z
" transform="scale(0.015625)"/>
       <path id="DejaVuSans-75" d="M 544 1381 
L 544 3500 
L 1119 3500 
L 1119 1403 
Q 1119 906 1312 657 
Q 1506 409 1894 409 
Q 2359 409 2629 706 
Q 2900 1003 2900 1516 
L 2900 3500 
L 3475 3500 
L 3475 0 
L 2900 0 
L 2900 538 
Q 2691 219 2414 64 
Q 2138 -91 1772 -91 
Q 1169 -91 856 284 
Q 544 659 544 1381 
z
M 1991 3584 
L 1991 3584 
z
" transform="scale(0.015625)"/>
       <path id="DejaVuSans-2c" d="M 750 794 
L 1409 794 
L 1409 256 
L 897 -744 
L 494 -744 
L 750 256 
L 750 794 
z
" transform="scale(0.015625)"/>
       <path id="DejaVuSans-70" d="M 1159 525 
L 1159 -1331 
L 581 -1331 
L 581 3500 
L 1159 3500 
L 1159 2969 
Q 1341 3281 1617 3432 
Q 1894 3584 2278 3584 
Q 2916 3584 3314 3078 
Q 3713 2572 3713 1747 
Q 3713 922 3314 415 
Q 2916 -91 2278 -91 
Q 1894 -91 1617 61 
Q 1341 213 1159 525 
z
M 3116 1747 
Q 3116 2381 2855 2742 
Q 2594 3103 2138 3103 
Q 1681 3103 1420 2742 
Q 1159 2381 1159 1747 
Q 1159 1113 1420 752 
Q 1681 391 2138 391 
Q 2594 391 2855 752 
Q 3116 1113 3116 1747 
z
" transform="scale(0.015625)"/>
      </defs>
      <use xlink:href="#DejaVuSans-46"/>
      <use xlink:href="#DejaVuSans-72" x="50.269531"/>
      <use xlink:href="#DejaVuSans-61" x="91.382812"/>
      <use xlink:href="#DejaVuSans-63" x="152.662109"/>
      <use xlink:href="#DejaVuSans-74" x="207.642578"/>
      <use xlink:href="#DejaVuSans-69" x="246.851562"/>
      <use xlink:href="#DejaVuSans-6f" x="274.634766"/>
      <use xlink:href="#DejaVuSans-6e" x="335.816406"/>
      <use xlink:href="#DejaVuSans-20" x="399.195312"/>
      <use xlink:href="#DejaVuSans-6f" x="430.982422"/>
      <use xlink:href="#DejaVuSans-66" x="492.164062"/>
      <use xlink:href="#DejaVuSans-20" x="527.369141"/>
      <use xlink:href="#DejaVuSans-66" x="559.15625"/>
      <use xlink:href="#DejaVuSans-75" x="594.361328"/>
      <use xlink:href="#DejaVuSans-6e" x="657.740234"/>
      <use xlink:href="#DejaVuSans-63" x="721.119141"/>
      <use xlink:href="#DejaVuSans-74" x="776.099609"/>
      <use xlink:href="#DejaVuSans-69" x="815.308594"/>
      <use xlink:href="#DejaVuSans-6f" x="843.091797"/>
      <use xlink:href="#DejaVuSans-6e" x="904.273438"/>
      <use xlink:href="#DejaVuSans-2c" x="967.652344"/>
      <use xlink:href="#DejaVuSans-74" x="999.439453"/>
      <use xlink:href="#DejaVuSans-61" x="1038.648438"/>
      <use xlink:href="#DejaVuSans-72" x="1099.927734"/>
      <use xlink:href="#DejaVuSans-67" x="1139.291016"/>
      <use xlink:href="#DejaVuSans-65" x="1202.767578"/>
      <use xlink:href="#DejaVuSans-74" x="1264.291016"/>
      <use xlink:href="#DejaVuSans-20" x="1303.5"/>
      <use xlink:href="#DejaVuSans-70" x="1335.287109"/>
      <use xlink:href="#DejaVuSans-61" x="1398.763672"/>
      <use xlink:href="#DejaVuSans-69" x="1460.042969"/>
      <use xlink:href="#DejaVuSans-72" x="1487.826172"/>
      <use xlink:href="#DejaVuSans-73" x="1528.939453"/>
     </g>
    </g>
   </g>
   <g id="line2d_33">
    <defs>
     <path id="m222aa30af3" d="M 0 1.5 
C 0.397805 1.5 0.77937 1.341951 1.06066 1.06066 
C 1.341951 0.77937 1.5 0.397805 1.5 0 
C 1.5 -0.397805 1.341951 -0.77937 1.06066 -1.06066 
C 0.77937 -1.341951 0.397805 -1.5 0 -1.5 
C -0.397805 -1.5 -0.77937 -1.341951 -1.06066 -1.06066 
C -1.341951 -0.77937 -1.5 -0.397805 -1.5 0 
C -1.5 0.397805 -1.341951 0.77937 -1.06066 1.06066 
C -0.77937 1.341951 -0.397805 1.5 0 1.5 
z
" style="stroke: #f5deb3"/>
    </defs>
    <g>
     <use xlink:href="#m222aa30af3" x="300.793357" y="42.157241" style="fill: #f5deb3; stroke: #f5deb3"/>
     <use xlink:href="#m222aa30af3" x="300.793357" y="42.157241" style="fill: #f5deb3; stroke: #f5deb3"/>
    </g>
   </g>
   <g id="line2d_34">
    <defs>
     <path id="mcd09daab12" d="M 0 1.5 
C 0.397805 1.5 0.77937 1.341951 1.06066 1.06066 
C 1.341951 0.77937 1.5 0.397805 1.5 0 
C 1.5 -0.397805 1.341951 -0.77937 1.06066 -1.06066 
C 0.77937 -1.341951 0.397805 -1.5 0 -1.5 
C -0.397805 -1.5 -0.77937 -1.341951 -1.06066 -1.06066 
C -1.341951 -0.77937 -1.5 -0.397805 -1.5 0 
C -1.5 0.397805 -1.341951 0.77937 -1.06066 1.06066 
C -0.77937 1.341951 -0.397805 1.5 0 1.5 
z
" style="stroke: #000080"/>
    </defs>
    <g>
     <use xlink:href="#mcd09daab12" x="81.696354" y="276.454179" style="fill: #000080; stroke: #000080"/>
     <use xlink:href="#mcd09daab12" x="81.696354" y="276.454179" style="fill: #000080; stroke: #000080"/>
    </g>
   </g>
   <g id="line2d_35">
    <path d="M 27.323974 298.944 
L 27.323974 287.027752 
L 40.363149 287.027752 
L 40.363149 286.692083 
L 47.990577 286.692083 
L 47.990577 285.685076 
L 53.402323 285.685076 
L 53.402323 284.3424 
L 57.6 284.3424 
L 57.6 284.006731 
L 61.029752 284.006731 
L 61.029752 283.503228 
L 63.929565 283.503228 
L 63.929565 282.664055 
L 66.441498 282.664055 
L 66.441498 282.496221 
L 68.65718 282.496221 
L 68.65718 281.824883 
L 70.639174 281.824883 
L 70.639174 280.650041 
L 72.432107 280.650041 
L 72.432107 279.4752 
L 74.068926 279.4752 
L 74.068926 279.139531 
L 75.574654 279.139531 
L 75.574654 278.636028 
L 76.96874 278.636028 
L 76.96874 278.468193 
L 78.266603 278.468193 
L 78.266603 278.300359 
L 79.480672 278.300359 
L 79.480672 277.96469 
L 80.621116 277.96469 
L 80.621116 277.629021 
L 81.696354 277.629021 
L 81.696354 276.454179 
L 360.8064 276.454179 
" style="fill: none; stroke: #000080; stroke-width: 1.5; stroke-linecap: square"/>
   </g>
   <g id="line2d_36">
    <defs>
     <path id="m530d668505" d="M 0 6 
C 1.591219 6 3.117479 5.367802 4.242641 4.242641 
C 5.367802 3.117479 6 1.591219 6 0 
C 6 -1.591219 5.367802 -3.117479 4.242641 -4.242641 
C 3.117479 -5.367802 1.591219 -6 0 -6 
C -1.591219 -6 -3.117479 -5.367802 -4.242641 -4.242641 
C -5.367802 -3.117479 -6 -1.591219 -6 0 
C -6 1.591219 -5.367802 3.117479 -4.242641 4.242641 
C -3.117479 5.367802 -1.591219 6 0 6 
z
" style="stroke: #000080; stroke-width: 1.5"/>
    </defs>
    <g>
     <use xlink:href="#m530d668505" x="81.696354" y="277.629021" style="fill-opacity: 0; stroke: #000080; stroke-width: 1.5"/>
     <use xlink:href="#m530d668505" x="81.696354" y="277.629021" style="fill-opacity: 0; stroke: #000080; stroke-width: 1.5"/>
     <use xlink:href="#m530d668505" x="81.696354" y="276.454179" style="fill-opacity: 0; stroke: #000080; stroke-width: 1.5"/>
     <use xlink:href="#m530d668505" x="81.696354" y="276.454179" style="fill-opacity: 0; stroke: #000080; stroke-width: 1.5"/>
     <use xlink:href="#m530d668505" x="81.696354" y="276.454179" style="fill-opacity: 0; stroke: #000080; stroke-width: 1.5"/>
     <use xlink:href="#m530d668505" x="360.8064" y="276.454179" style="fill-opacity: 0; stroke: #000080; stroke-width: 1.5"/>
    </g>
   </g>
   <g id="line2d_37">
    <path style="fill: none; stroke: #000080; stroke-width: 1.5; stroke-linecap: square"/>
    <g/>
   </g>
   <g id="line2d_38">
    <path d="M 81.696354 276.454179 
" clip-path="url(#pa82c18605d)" style="fill: none; stroke: #000080; stroke-width: 1.5; stroke-linecap: square"/>
    <defs>
     <path id="m4a68852697" d="M -12 12 
L 12 -12 
M -12 -12 
L 12 12 
" style="stroke: #000080"/>
    </defs>
    <g clip-path="url(#pa82c18605d)">
     <use xlink:href="#m4a68852697" x="81.696354" y="276.454179" style="fill: #000080; stroke: #000080"/>
    </g>
   </g>
   <g id="line2d_39">
    <defs>
     <path id="m4aba42aaf7" d="M 0 1.5 
C 0.397805 1.5 0.77937 1.341951 1.06066 1.06066 
C 1.341951 0.77937 1.5 0.397805 1.5 0 
C 1.5 -0.397805 1.341951 -0.77937 1.06066 -1.06066 
C 0.77937 -1.341951 0.397805 -1.5 0 -1.5 
C -0.397805 -1.5 -0.77937 -1.341951 -1.06066 -1.06066 
C -1.341951 -0.77937 -1.5 -0.397805 -1.5 0 
C -1.5 0.397805 -1.341951 0.77937 -1.06066 1.06066 
C -0.77937 1.341951 -0.397805 1.5 0 1.5 
z
" style="stroke: #ff00ff"/>
    </defs>
    <g>
     <use xlink:href="#m4aba42aaf7" x="274.076904" y="144.032772" style="fill: #ff00ff; stroke: #ff00ff"/>
     <use xlink:href="#m4aba42aaf7" x="274.076904" y="144.032772" style="fill: #ff00ff; stroke: #ff00ff"/>
    </g>
   </g>
   <g id="line2d_40">
    <path d="M 27.323974 298.944 
L 27.323974 287.027752 
L 47.990577 287.027752 
L 47.990577 285.181572 
L 53.402323 285.181572 
L 53.402323 284.845903 
L 61.029752 284.845903 
L 61.029752 284.678069 
L 63.929565 284.678069 
L 63.929565 284.174566 
L 66.441498 284.174566 
L 66.441498 284.006731 
L 68.65718 284.006731 
L 68.65718 283.671062 
L 70.639174 283.671062 
L 70.639174 283.335393 
L 72.432107 283.335393 
L 72.432107 282.664055 
L 74.068926 282.664055 
L 74.068926 282.496221 
L 76.96874 282.496221 
L 76.96874 281.992717 
L 78.266603 281.992717 
L 78.266603 281.489214 
L 81.696354 281.489214 
L 81.696354 281.321379 
L 82.713442 281.321379 
L 82.713442 280.817876 
L 83.678349 280.817876 
L 83.678349 280.650041 
L 85.471281 280.650041 
L 85.471281 280.482207 
L 86.307488 280.482207 
L 86.307488 280.314372 
L 87.876026 280.314372 
L 87.876026 280.146538 
L 89.323782 280.146538 
L 89.323782 279.978703 
L 90.668036 279.978703 
L 90.668036 279.643034 
L 91.305777 279.643034 
L 91.305777 279.4752 
L 93.098709 279.4752 
L 93.098709 278.803862 
L 93.66029 278.803862 
L 93.66029 278.636028 
L 96.717523 278.636028 
L 96.717523 278.468193 
L 97.635342 278.468193 
L 97.635342 278.300359 
L 100.535156 278.300359 
L 100.535156 278.132524 
L 104.344952 278.132524 
L 104.344952 277.96469 
L 106.699465 277.96469 
L 106.699465 277.796855 
L 106.974091 277.796855 
L 106.974091 277.629021 
L 107.5116 277.629021 
L 107.5116 277.461186 
L 108.034177 277.461186 
L 108.034177 277.293352 
L 108.791791 277.293352 
L 108.791791 277.125517 
L 110.449226 277.125517 
L 110.449226 276.622014 
L 110.897141 276.622014 
L 110.897141 276.454179 
L 112.989468 276.454179 
L 112.989468 276.286345 
L 113.765312 276.286345 
L 113.765312 275.950676 
L 113.954374 275.950676 
L 113.954374 275.782841 
L 114.141556 275.782841 
L 114.141556 275.615007 
L 114.326893 275.615007 
L 114.326893 275.447172 
L 114.510421 275.447172 
L 114.510421 275.279338 
L 115.917548 275.279338 
L 115.917548 275.111503 
L 116.086263 275.111503 
L 116.086263 274.775834 
L 116.907859 274.775834 
L 116.907859 274.608 
L 117.384126 274.608 
L 117.384126 274.104497 
L 118.152051 274.104497 
L 118.152051 273.936662 
L 119.459944 273.936662 
L 119.459944 273.600993 
L 119.599808 273.600993 
L 119.599808 273.433159 
L 120.149089 273.433159 
L 120.149089 273.265324 
L 120.41783 273.265324 
L 120.41783 273.09749 
L 120.550775 273.09749 
L 120.550775 272.929655 
L 121.329295 272.929655 
L 121.329295 272.761821 
L 121.581803 272.761821 
L 121.581803 272.593986 
L 122.559246 272.593986 
L 122.559246 272.426152 
L 122.795872 272.426152 
L 122.795872 272.090483 
L 122.913079 272.090483 
L 122.913079 271.922648 
L 123.029559 271.922648 
L 123.029559 271.754814 
L 123.374735 271.754814 
L 123.374735 271.419145 
L 123.601383 271.419145 
L 123.601383 271.25131 
L 123.825333 271.25131 
L 123.825333 271.083476 
L 124.156336 271.083476 
L 124.265389 270.747807 
L 124.695386 270.747807 
L 124.801367 269.908634 
L 125.322496 269.908634 
L 125.322496 269.7408 
L 125.526971 269.7408 
L 125.526971 269.572966 
L 125.729248 269.572966 
L 125.829577 269.237297 
L 126.127391 269.237297 
L 126.127391 268.733793 
L 126.323346 268.733793 
L 126.323346 268.565959 
L 126.613505 268.565959 
L 126.613505 268.23029 
L 126.899255 268.23029 
L 126.899255 267.726786 
L 127.18073 267.726786 
L 127.18073 267.391117 
L 127.640693 267.391117 
L 127.731351 266.887614 
L 127.821575 266.887614 
L 127.821575 266.719779 
L 128.178203 266.719779 
L 128.266313 266.216276 
L 128.528195 266.216276 
L 128.614685 265.544938 
L 128.786481 265.544938 
L 128.786481 265.377103 
L 129.209231 265.377103 
L 129.209231 265.209269 
L 130.579414 265.209269 
L 130.656987 264.537931 
L 131.563744 264.537931 
L 131.63737 264.034428 
L 131.856536 264.034428 
L 131.856536 263.698759 
L 132.073179 263.698759 
L 132.073179 263.530924 
L 132.287354 263.530924 
L 132.358208 263.027421 
L 132.499119 263.027421 
L 132.499119 262.859586 
L 132.846847 262.859586 
L 132.915628 262.523917 
L 133.120474 262.523917 
L 133.120474 262.188248 
L 133.323114 262.188248 
L 133.323114 262.020414 
L 133.983236 262.020414 
L 133.983236 261.852579 
L 134.176839 261.852579 
L 134.176839 261.684745 
L 134.304809 261.684745 
L 134.368469 261.181241 
L 135.116046 261.181241 
L 135.116046 260.845572 
L 135.478982 260.845572 
L 135.478982 260.677738 
L 135.776169 260.677738 
L 135.776169 260.509903 
L 136.242113 260.509903 
L 136.242113 260.174234 
L 136.864507 260.174234 
L 136.864507 260.0064 
L 137.412988 260.0064 
L 137.412988 259.838566 
L 137.574461 259.838566 
L 137.627979 259.502897 
L 138.768422 259.502897 
L 138.768422 259.335062 
L 139.264798 259.335062 
L 139.264798 259.167228 
L 139.604629 259.167228 
L 139.604629 258.999393 
L 140.173284 258.999393 
L 140.173284 258.663724 
L 140.679868 258.663724 
L 140.679868 258.49589 
L 141.349389 258.49589 
L 141.349389 258.328055 
L 143.811926 258.328055 
L 143.811926 258.160221 
L 145.573357 258.160221 
L 145.573357 257.992386 
L 145.7477 257.992386 
L 145.7477 257.824552 
L 146.023332 257.824552 
L 146.023332 257.656717 
L 146.859539 257.656717 
L 146.859539 257.321048 
L 147.785146 257.321048 
L 147.785146 257.153214 
L 147.940229 257.153214 
L 148.001907 256.64971 
L 150.042308 256.64971 
L 150.042308 256.481876 
L 151.32359 256.481876 
L 151.32359 256.314041 
L 152.131727 256.314041 
L 152.131727 255.978372 
L 152.377312 255.978372 
L 152.377312 255.810538 
L 152.930279 255.810538 
L 153.001222 255.307034 
L 153.189104 255.307034 
L 153.189104 255.1392 
L 154.714595 255.1392 
L 154.714595 254.803531 
L 155.266666 254.803531 
L 155.266666 254.635697 
L 155.557358 254.635697 
L 155.619069 254.300028 
L 156.423104 254.300028 
L 156.423104 254.132193 
L 156.908716 254.132193 
L 156.908716 253.964359 
L 157.099504 253.964359 
L 157.175281 253.293021 
L 157.250754 253.293021 
L 157.250754 253.125186 
L 157.438121 253.125186 
L 157.438121 252.957352 
L 157.623641 252.957352 
L 157.623641 252.621683 
L 157.807349 252.621683 
L 157.807349 252.453848 
L 158.401163 252.453848 
L 158.401163 252.286014 
L 158.577468 252.286014 
L 158.577468 251.950345 
L 158.786875 251.950345 
L 158.821551 251.446841 
L 158.907961 251.446841 
L 158.907961 251.279007 
L 159.164837 251.279007 
L 159.164837 251.111172 
L 159.996606 251.111172 
L 160.077795 250.439834 
L 160.255188 250.439834 
L 160.351247 249.936331 
L 160.383158 249.936331 
L 160.415015 249.432828 
L 160.557708 249.432828 
L 160.557708 248.76149 
L 160.82432 248.76149 
L 160.82432 248.425821 
L 160.994842 248.425821 
L 160.994842 248.257986 
L 161.255373 248.257986 
L 161.34647 247.754483 
L 161.391854 247.754483 
L 161.482294 246.747476 
L 161.78066 246.747476 
L 161.88398 246.411807 
L 161.913396 246.411807 
L 161.942766 246.076138 
L 162.030602 246.076138 
L 162.132562 245.4048 
L 162.463734 245.4048 
L 162.463734 244.901297 
L 162.605924 244.901297 
L 162.634233 244.397793 
L 162.761101 244.397793 
L 162.817213 243.89429 
L 162.901068 243.89429 
L 162.901068 243.558621 
L 163.27386 243.558621 
L 163.355708 243.055117 
L 163.639407 243.055117 
L 163.639407 242.719448 
L 163.95848 242.719448 
L 163.95848 242.551614 
L 164.142137 242.551614 
L 164.142137 242.215945 
L 164.311084 242.215945 
L 164.311084 241.880276 
L 164.619057 241.880276 
L 164.695268 241.208938 
L 164.745905 241.208938 
L 164.745905 240.873269 
L 164.884457 240.873269 
L 164.909539 240.369766 
L 164.997064 240.369766 
L 165.009535 240.034097 
L 165.318637 240.034097 
L 165.35539 239.698428 
L 165.51383 239.698428 
L 165.51383 239.362759 
L 165.755007 239.362759 
L 165.755007 239.02709 
L 166.122826 239.02709 
L 166.134572 238.355752 
L 166.321521 238.355752 
L 166.39115 237.684414 
L 166.518139 237.684414 
L 166.518139 237.348745 
L 166.632844 237.348745 
L 166.632844 237.18091 
L 166.894041 237.18091 
L 166.984048 236.677407 
L 167.051272 236.677407 
L 167.118257 235.838234 
L 167.438697 235.838234 
L 167.438697 235.502566 
L 167.558829 235.502566 
L 167.624034 235.166897 
L 167.76454 235.166897 
L 167.861203 234.663393 
L 167.882616 234.663393 
L 167.882616 234.495559 
L 168.211442 234.495559 
L 168.211442 234.327724 
L 168.358081 234.327724 
L 168.358081 233.992055 
L 168.811641 233.992055 
L 168.903083 233.488552 
L 169.134768 233.488552 
L 169.134768 232.985048 
L 169.511408 232.985048 
L 169.531024 232.649379 
L 169.755147 232.649379 
L 169.793854 232.145876 
L 169.957476 232.145876 
L 169.967056 231.810207 
L 170.308749 231.810207 
L 170.308749 231.642372 
L 170.662815 231.642372 
L 170.773255 230.467531 
L 170.782429 230.467531 
L 170.782429 230.299697 
L 170.992209 230.299697 
L 171.037505 229.796193 
L 171.208643 229.796193 
L 171.280238 229.29269 
L 171.431479 229.29269 
L 171.537509 228.621352 
L 171.572721 228.621352 
L 171.634182 228.117848 
L 171.756506 228.117848 
L 171.756506 227.782179 
L 171.90398 227.782179 
L 171.90398 227.614345 
L 172.212513 227.614345 
L 172.212513 227.44651 
L 172.331145 227.44651 
L 172.390182 226.943007 
L 172.499332 226.943007 
L 172.591198 226.607338 
L 172.624492 226.607338 
L 172.624492 226.271669 
L 172.748826 226.271669 
L 172.839484 225.600331 
L 172.864133 225.600331 
L 172.921523 225.096828 
L 173.092649 225.096828 
L 173.173594 224.761159 
L 173.430302 224.761159 
L 173.533597 224.089821 
L 173.652083 224.089821 
L 173.652083 223.754152 
L 173.879061 223.754152 
L 173.879061 223.418483 
L 174.347741 223.418483 
L 174.347741 223.250648 
L 174.468765 223.250648 
L 174.468765 222.914979 
L 174.738254 222.914979 
L 174.738254 222.57931 
L 174.856799 222.57931 
L 174.915793 222.075807 
L 175.164472 222.075807 
L 175.208017 221.0688 
L 175.345249 221.0688 
L 175.345249 220.900966 
L 175.552798 220.900966 
L 175.609652 220.229628 
L 175.694612 220.229628 
L 175.694612 219.893959 
L 175.919314 219.893959 
L 175.919314 219.726124 
L 176.030666 219.726124 
L 176.086096 219.390455 
L 176.168936 219.390455 
L 176.189589 218.719117 
L 176.496696 218.719117 
L 176.516992 218.215614 
L 176.792206 218.215614 
L 176.792206 217.879945 
L 177.174783 217.879945 
L 177.259475 217.208607 
L 177.350259 217.208607 
L 177.382575 216.537269 
L 177.479194 216.537269 
L 177.479194 216.369434 
L 177.651866 216.369434 
L 177.651866 216.033766 
L 177.917356 216.033766 
L 177.954979 215.362428 
L 178.141974 215.362428 
L 178.141974 215.026759 
L 178.412915 215.026759 
L 178.498311 214.019752 
L 178.601488 214.019752 
L 178.613589 213.348414 
L 178.794182 213.348414 
L 178.794182 213.012745 
L 178.937417 213.012745 
L 178.937417 212.677076 
L 179.097265 212.677076 
L 179.097265 212.341407 
L 179.26161 212.341407 
L 179.26161 212.005738 
L 179.424532 212.005738 
L 179.528527 211.3344 
L 179.706294 211.3344 
L 179.80307 210.327393 
L 179.876741 210.327393 
L 179.876741 209.991724 
L 179.98952 209.991724 
L 180.068066 209.488221 
L 180.163003 209.488221 
L 180.163003 209.152552 
L 180.279621 209.152552 
L 180.279621 208.816883 
L 180.395521 208.816883 
L 180.395521 208.481214 
L 180.59256 208.481214 
L 180.619764 207.97771 
L 180.765989 207.97771 
L 180.857477 207.474207 
L 180.911087 207.474207 
L 180.996545 206.635034 
L 181.192694 206.635034 
L 181.192694 206.4672 
L 181.423321 206.4672 
L 181.423321 206.299366 
L 182.358249 206.299366 
L 182.397862 205.460193 
L 182.545675 205.460193 
L 182.604477 204.621021 
L 182.672847 204.621021 
L 182.736112 203.949683 
L 182.808846 203.949683 
L 182.881301 203.446179 
L 183.352626 203.446179 
L 183.352626 203.11051 
L 183.488484 203.11051 
L 183.488484 202.942676 
L 183.6789 202.942676 
L 183.6789 202.607007 
L 183.862832 202.607007 
L 183.862832 202.439172 
L 184.054045 202.439172 
L 184.081203 202.103503 
L 184.274698 202.103503 
L 184.346191 201.767834 
L 184.620688 201.767834 
L 184.620688 201.432166 
L 184.734618 201.432166 
L 184.756448 200.760828 
L 184.908558 200.760828 
L 184.908558 200.425159 
L 185.123747 200.425159 
L 185.234679 199.418152 
L 185.4966 199.418152 
L 185.4966 199.250317 
L 185.671981 199.250317 
L 185.779737 198.914648 
L 185.829263 198.914648 
L 185.866322 198.578979 
L 186.070886 198.578979 
L 186.070886 198.24331 
L 186.241017 198.24331 
L 186.241017 198.075476 
L 186.35359 198.075476 
L 186.35359 197.907641 
L 186.592571 197.907641 
L 186.651845 197.571972 
L 186.793345 197.571972 
L 186.793345 197.236303 
L 187.743953 197.236303 
L 187.743953 197.068469 
L 187.932867 197.068469 
L 188.006435 196.564966 
L 188.427553 196.564966 
L 188.452666 195.893628 
L 188.549218 195.893628 
L 188.59553 195.390124 
L 188.895562 195.390124 
L 188.895562 195.22229 
L 189.049012 195.22229 
L 189.049012 194.886621 
L 189.36929 194.886621 
L 189.461261 194.550952 
L 189.576441 194.550952 
L 189.576441 194.215283 
L 189.694277 194.215283 
L 189.694277 194.047448 
L 190.10591 194.047448 
L 190.10591 193.711779 
L 190.327878 193.711779 
L 190.353821 193.208276 
L 190.726021 193.208276 
L 190.726021 193.040441 
L 190.956531 193.040441 
L 190.972216 192.536938 
L 191.516173 192.536938 
L 191.516173 192.369103 
L 191.707124 192.369103 
L 191.707124 192.033434 
L 192.619485 192.033434 
L 192.619485 191.8656 
L 193.006193 191.8656 
L 193.006193 191.697766 
L 193.191033 191.697766 
L 193.28555 191.362097 
L 193.79707 191.362097 
L 193.840197 191.026428 
L 194.09956 191.026428 
L 194.09956 190.690759 
L 194.40249 190.690759 
L 194.40249 190.35509 
L 194.836443 190.35509 
L 194.836443 190.187255 
L 195.074953 190.187255 
L 195.074953 190.019421 
L 195.896355 190.019421 
L 195.896355 189.851586 
L 196.050194 189.851586 
L 196.050194 189.515917 
L 197.201618 189.515917 
L 197.244354 188.844579 
L 197.771608 188.844579 
L 197.771608 188.676745 
L 198.343915 188.676745 
L 198.343915 188.50891 
L 199.34862 188.50891 
L 199.374717 187.837572 
L 200.28709 187.837572 
L 200.28709 187.669738 
L 200.42609 187.669738 
L 200.486699 187.166234 
L 200.695436 187.166234 
L 200.695436 186.9984 
L 200.959137 186.9984 
L 200.959137 186.830566 
L 201.138995 186.830566 
L 201.138995 186.662731 
L 201.634705 186.662731 
L 201.634705 186.327062 
L 202.155795 186.327062 
L 202.155795 185.991393 
L 202.807144 185.991393 
L 202.807144 185.823559 
L 203.790595 185.823559 
L 203.790595 185.655724 
L 204.322384 185.655724 
L 204.363977 185.320055 
L 204.597948 185.320055 
L 204.597948 184.984386 
L 205.01428 184.984386 
L 205.027654 184.648717 
L 205.560727 184.648717 
L 205.601114 184.145214 
L 205.9777 184.145214 
L 205.9777 183.977379 
L 206.10578 183.977379 
L 206.153412 183.64171 
L 206.464239 183.64171 
L 206.464239 183.306041 
L 207.476908 183.306041 
L 207.476908 183.138207 
L 208.217218 183.138207 
L 208.217218 182.970372 
L 208.440315 182.970372 
L 208.440315 182.634703 
L 210.520182 182.634703 
L 210.539031 182.1312 
L 211.081894 182.1312 
L 211.14531 181.795531 
L 211.357643 181.795531 
L 211.357643 181.459862 
L 211.682668 181.459862 
L 211.682668 181.292028 
L 211.927179 181.292028 
L 211.927179 181.124193 
L 212.050299 181.124193 
L 212.067676 180.62069 
L 212.967387 180.62069 
L 212.967387 180.285021 
L 213.13224 180.285021 
L 213.215089 179.949352 
L 213.686862 179.949352 
L 213.686862 179.781517 
L 215.226091 179.781517 
L 215.31829 179.445848 
L 215.623524 179.445848 
L 215.699486 178.942345 
L 216.074763 178.942345 
L 216.074763 178.606676 
L 216.805164 178.606676 
L 216.805164 178.438841 
L 216.918399 178.438841 
L 216.918399 178.103172 
L 218.140954 178.103172 
L 218.140954 177.767503 
L 218.545676 177.767503 
L 218.545676 177.599669 
L 218.817395 177.599669 
L 218.817395 177.431834 
L 218.981534 177.431834 
L 219.018993 176.928331 
L 219.497907 176.928331 
L 219.497907 176.760497 
L 220.850206 176.760497 
L 220.850206 176.592662 
L 221.072446 176.592662 
L 221.072446 176.424828 
L 221.309603 176.424828 
L 221.386958 176.089159 
L 221.631271 176.089159 
L 221.631271 175.921324 
L 222.025923 175.921324 
L 222.097995 175.417821 
L 222.293003 175.417821 
L 222.293003 175.249986 
L 222.661938 175.249986 
L 222.661938 175.082152 
L 222.898383 175.082152 
L 222.898383 174.746483 
L 223.35413 174.746483 
L 223.35413 174.410814 
L 223.835751 174.410814 
L 223.922999 174.075145 
L 224.209684 174.075145 
L 224.209684 173.739476 
L 224.832059 173.739476 
L 224.832059 173.571641 
L 225.515154 173.571641 
L 225.515154 173.403807 
L 226.563157 173.403807 
L 226.661712 172.732469 
L 227.229669 172.732469 
L 227.229669 172.3968 
L 227.350665 172.3968 
L 227.451053 171.557628 
L 227.748157 171.557628 
L 227.759696 171.221959 
L 227.963996 171.221959 
L 228.061173 170.88629 
L 228.396105 170.88629 
L 228.396105 170.718455 
L 229.027455 170.718455 
L 229.039893 170.382786 
L 229.348205 170.382786 
L 229.348205 170.214952 
L 229.732416 170.214952 
L 229.732416 170.047117 
L 230.060711 170.047117 
L 230.063851 169.711448 
L 231.136429 169.711448 
L 231.136429 169.543614 
L 232.083216 169.543614 
L 232.083216 169.207945 
L 233.375413 169.207945 
L 233.375413 169.04011 
L 233.503675 169.04011 
L 233.571877 168.536607 
L 234.129337 168.536607 
L 234.129337 168.200938 
L 234.270161 168.200938 
L 234.270161 168.033103 
L 234.549922 168.033103 
L 234.549922 167.865269 
L 234.924059 167.865269 
L 234.934363 167.361766 
L 235.118277 167.361766 
L 235.118277 167.193931 
L 235.474322 167.193931 
L 235.494919 166.690428 
L 235.691802 166.690428 
L 235.691802 166.354759 
L 235.943301 166.354759 
L 235.943301 166.186924 
L 236.314074 166.186924 
L 236.314074 166.01909 
L 236.456561 166.01909 
L 236.456561 165.683421 
L 236.5891 165.683421 
L 236.5891 165.515586 
L 236.968156 165.515586 
L 236.968156 165.347752 
L 237.128993 165.347752 
L 237.128993 165.179917 
L 237.795659 165.179917 
L 237.828939 164.844248 
L 237.908778 164.844248 
L 237.908778 164.676414 
L 238.757677 164.676414 
L 238.757677 164.508579 
L 238.996241 164.508579 
L 238.996241 164.17291 
L 239.809687 164.17291 
L 239.809687 164.005076 
L 240.176437 164.005076 
L 240.176437 163.837241 
L 240.375551 163.837241 
L 240.375551 163.501572 
L 242.377183 163.501572 
L 242.400626 163.165903 
L 242.616953 163.165903 
L 242.708565 162.6624 
L 242.833409 162.6624 
L 242.833409 162.494566 
L 244.237419 162.494566 
L 244.275074 162.158897 
L 244.427143 162.158897 
L 244.427143 161.991062 
L 244.780132 161.991062 
L 244.780132 161.823228 
L 244.910012 161.823228 
L 244.936023 161.319724 
L 245.455415 161.319724 
L 245.455415 160.984055 
L 245.632613 160.984055 
L 245.669806 160.648386 
L 246.57796 160.648386 
L 246.57796 160.480552 
L 247.035227 160.480552 
L 247.035227 160.144883 
L 247.689176 160.144883 
L 247.689176 159.809214 
L 248.601904 159.809214 
L 248.601904 159.641379 
L 248.797358 159.641379 
L 248.797358 159.30571 
L 248.983912 159.30571 
L 249.090851 158.970041 
L 249.406387 158.970041 
L 249.406387 158.802207 
L 249.678152 158.802207 
L 249.736865 158.466538 
L 249.885247 158.466538 
L 249.904396 158.130869 
L 250.030159 158.130869 
L 250.030159 157.963034 
L 250.333655 157.963034 
L 250.333655 157.7952 
L 250.925046 157.7952 
L 250.925046 157.627366 
L 251.424284 157.627366 
L 251.424284 157.459531 
L 252.413543 157.459531 
L 252.413543 157.291697 
L 252.760274 157.291697 
L 252.760274 156.956028 
L 253.381572 156.956028 
L 253.381572 156.788193 
L 253.493062 156.788193 
L 253.56421 156.28469 
L 253.636883 156.28469 
L 253.636883 156.116855 
L 253.964615 156.116855 
L 253.964615 155.949021 
L 254.728252 155.949021 
L 254.728252 155.781186 
L 254.966349 155.781186 
L 255.006939 155.445517 
L 255.163778 155.445517 
L 255.163778 155.109848 
L 255.539057 155.109848 
L 255.613485 154.606345 
L 256.25432 154.606345 
L 256.25432 154.270676 
L 256.539227 154.270676 
L 256.539227 153.935007 
L 257.23664 153.935007 
L 257.23664 153.767172 
L 257.601373 153.767172 
L 257.601373 153.431503 
L 257.858043 153.431503 
L 257.912782 152.928 
L 258.849883 152.928 
L 258.849883 152.592331 
L 259.121861 152.592331 
L 259.145883 152.256662 
L 259.527923 152.256662 
L 259.527923 152.088828 
L 260.115678 152.088828 
L 260.14949 151.585324 
L 260.237783 151.585324 
L 260.237783 151.41749 
L 260.964173 151.41749 
L 261.046161 151.081821 
L 261.269094 151.081821 
L 261.269094 150.913986 
L 261.885622 150.913986 
L 261.934368 150.578317 
L 262.402486 150.578317 
L 262.402486 150.410483 
L 263.099322 150.410483 
L 263.099322 150.074814 
L 263.282146 150.074814 
L 263.282146 149.906979 
L 263.561166 149.906979 
L 263.561166 149.57131 
L 264.231588 149.57131 
L 264.231588 149.403476 
L 264.358186 149.403476 
L 264.358186 149.235641 
L 265.000348 149.235641 
L 265.000348 149.067807 
L 265.717463 149.067807 
L 265.717463 148.732138 
L 265.88447 148.732138 
L 265.973066 148.228634 
L 267.40572 148.228634 
L 267.40572 147.892966 
L 267.642447 147.892966 
L 267.642447 147.725131 
L 268.07283 147.725131 
L 268.07283 147.557297 
L 269.33145 147.557297 
L 269.411398 146.55029 
L 269.489897 146.55029 
L 269.489897 146.382455 
L 269.632608 146.382455 
L 269.722161 145.878952 
L 269.787741 145.878952 
L 269.787741 145.711117 
L 270.229838 145.711117 
L 270.229838 145.543283 
L 270.803469 145.543283 
L 270.803469 145.375448 
L 271.726654 145.375448 
L 271.744259 144.871945 
L 272.09013 144.871945 
L 272.09013 144.70411 
L 273.685566 144.70411 
L 273.685566 144.536276 
L 273.983859 144.536276 
L 274.076904 144.032772 
L 360.8064 144.032772 
L 360.8064 144.032772 
" style="fill: none; stroke: #ff00ff; stroke-width: 1.5; stroke-linecap: square"/>
   </g>
   <g id="line2d_41">
    <defs>
     <path id="m9bf6c95bee" d="M 0 8.485281 
L 5.091169 0 
L 0 -8.485281 
L -5.091169 0 
z
" style="stroke: #ff00ff; stroke-width: 1.5; stroke-linejoin: miter"/>
    </defs>
    <g>
     <use xlink:href="#m9bf6c95bee" x="138.768422" y="259.502897" style="fill-opacity: 0; stroke: #ff00ff; stroke-width: 1.5; stroke-linejoin: miter"/>
     <use xlink:href="#m9bf6c95bee" x="182.736112" y="203.949683" style="fill-opacity: 0; stroke: #ff00ff; stroke-width: 1.5; stroke-linejoin: miter"/>
     <use xlink:href="#m9bf6c95bee" x="264.231588" y="149.57131" style="fill-opacity: 0; stroke: #ff00ff; stroke-width: 1.5; stroke-linejoin: miter"/>
     <use xlink:href="#m9bf6c95bee" x="274.076904" y="144.032772" style="fill-opacity: 0; stroke: #ff00ff; stroke-width: 1.5; stroke-linejoin: miter"/>
     <use xlink:href="#m9bf6c95bee" x="274.076904" y="144.032772" style="fill-opacity: 0; stroke: #ff00ff; stroke-width: 1.5; stroke-linejoin: miter"/>
     <use xlink:href="#m9bf6c95bee" x="360.8064" y="144.032772" style="fill-opacity: 0; stroke: #ff00ff; stroke-width: 1.5; stroke-linejoin: miter"/>
    </g>
   </g>
   <g id="line2d_42">
    <path style="fill: none; stroke: #ff00ff; stroke-width: 1.5; stroke-linecap: square"/>
    <g/>
   </g>
   <g id="line2d_43">
    <path d="M 274.176038 144.032772 
" clip-path="url(#pa82c18605d)" style="fill: none; stroke: #ff00ff; stroke-width: 1.5; stroke-linecap: square"/>
    <defs>
     <path id="m6be4f41a72" d="M -12 12 
L 12 -12 
M -12 -12 
L 12 12 
" style="stroke: #ff00ff"/>
    </defs>
    <g clip-path="url(#pa82c18605d)">
     <use xlink:href="#m6be4f41a72" x="274.176038" y="144.032772" style="fill: #ff00ff; stroke: #ff00ff"/>
    </g>
   </g>
   <g id="line2d_44">
    <defs>
     <path id="m6ea979e710" d="M 0 1.5 
C 0.397805 1.5 0.77937 1.341951 1.06066 1.06066 
C 1.341951 0.77937 1.5 0.397805 1.5 0 
C 1.5 -0.397805 1.341951 -0.77937 1.06066 -1.06066 
C 0.77937 -1.341951 0.397805 -1.5 0 -1.5 
C -0.397805 -1.5 -0.77937 -1.341951 -1.06066 -1.06066 
C -1.341951 -0.77937 -1.5 -0.397805 -1.5 0 
C -1.5 0.397805 -1.341951 0.77937 -1.06066 1.06066 
C -0.77937 1.341951 -0.397805 1.5 0 1.5 
z
" style="stroke: #6495ed"/>
    </defs>
    <g>
     <use xlink:href="#m6ea979e710" x="113.765312" y="255.642703" style="fill: #6495ed; stroke: #6495ed"/>
     <use xlink:href="#m6ea979e710" x="113.765312" y="255.642703" style="fill: #6495ed; stroke: #6495ed"/>
    </g>
   </g>
   <g id="line2d_45">
    <path d="M 27.323974 298.944 
L 27.323974 295.922979 
L 40.363149 295.922979 
L 40.363149 292.734124 
L 47.990577 292.734124 
L 47.990577 290.552276 
L 53.402323 290.552276 
L 53.402323 289.713103 
L 57.6 289.713103 
L 57.6 288.706097 
L 61.029752 288.706097 
L 61.029752 287.866924 
L 63.929565 287.866924 
L 63.929565 286.356414 
L 66.441498 286.356414 
L 66.441498 285.013738 
L 70.639174 285.013738 
L 70.639174 284.510234 
L 72.432107 284.510234 
L 72.432107 283.671062 
L 74.068926 283.671062 
L 74.068926 283.335393 
L 80.621116 283.335393 
L 80.621116 282.664055 
L 81.696354 282.664055 
L 81.696354 282.496221 
L 82.713442 282.496221 
L 82.713442 282.328386 
L 83.678349 282.328386 
L 83.678349 282.160552 
L 87.1081 282.160552 
L 87.1081 281.824883 
L 87.876026 281.824883 
L 87.876026 280.817876 
L 90.007914 280.817876 
L 90.007914 280.482207 
L 93.098709 280.482207 
L 93.098709 280.146538 
L 93.66029 280.146538 
L 93.66029 279.978703 
L 94.205591 279.978703 
L 94.205591 279.810869 
L 95.752617 279.810869 
L 95.752617 279.307366 
L 96.241256 279.307366 
L 96.241256 278.803862 
L 97.635342 278.803862 
L 97.635342 278.636028 
L 98.077987 278.636028 
L 98.077987 278.468193 
L 99.346662 278.468193 
L 99.346662 278.132524 
L 101.653002 278.132524 
L 101.653002 277.461186 
L 102.708132 277.461186 
L 102.708132 276.789848 
L 103.047088 276.789848 
L 103.047088 275.615007 
L 103.380045 275.615007 
L 103.380045 274.272331 
L 103.707211 274.272331 
L 103.707211 273.265324 
L 104.028784 273.265324 
L 104.028784 272.929655 
L 104.344952 272.929655 
L 104.344952 272.090483 
L 104.655893 272.090483 
L 104.655893 271.419145 
L 104.961779 271.419145 
L 104.961779 270.579972 
L 105.26277 270.579972 
L 105.26277 269.7408 
L 105.559021 269.7408 
L 105.559021 268.565959 
L 105.850679 268.565959 
L 105.850679 268.398124 
L 106.137884 268.398124 
L 106.137884 267.726786 
L 106.42077 267.726786 
L 106.42077 267.223283 
L 106.699465 267.223283 
L 106.699465 266.38411 
L 106.974091 266.38411 
L 106.974091 265.712772 
L 107.244765 265.712772 
L 107.244765 263.866593 
L 107.5116 263.866593 
L 107.5116 263.36309 
L 107.774703 263.36309 
L 107.774703 262.859586 
L 108.034177 262.859586 
L 108.034177 262.691752 
L 108.29012 262.691752 
L 108.29012 262.356083 
L 108.542628 262.356083 
L 108.542628 261.852579 
L 108.791791 261.852579 
L 108.791791 261.684745 
L 109.037698 261.684745 
L 109.037698 261.349076 
L 109.280431 261.349076 
L 109.280431 261.181241 
L 109.520071 261.181241 
L 109.520071 260.845572 
L 109.756698 260.845572 
L 109.756698 260.677738 
L 109.990385 260.677738 
L 109.990385 260.174234 
L 110.221204 260.174234 
L 110.221204 260.0064 
L 110.449226 260.0064 
L 110.449226 259.838566 
L 110.674517 259.838566 
L 110.674517 259.502897 
L 110.897141 259.502897 
L 110.897141 258.999393 
L 111.334639 258.999393 
L 111.334639 258.663724 
L 111.54963 258.663724 
L 111.54963 258.328055 
L 111.762192 258.328055 
L 111.762192 257.824552 
L 112.180244 257.824552 
L 112.180244 257.488883 
L 112.385837 257.488883 
L 112.385837 256.817545 
L 112.589207 256.817545 
L 112.589207 256.64971 
L 112.790402 256.64971 
L 112.790402 256.314041 
L 113.186449 256.314041 
L 113.186449 256.146207 
L 113.57433 256.146207 
L 113.57433 255.810538 
L 113.765312 255.810538 
L 113.765312 255.642703 
L 360.8064 255.642703 
L 360.8064 255.642703 
" style="fill: none; stroke: #6495ed; stroke-width: 1.5; stroke-linecap: square"/>
   </g>
   <g id="line2d_46">
    <defs>
     <path id="m890b035ae9" d="M -0 6 
L 6 -6 
L -6 -6 
z
" style="stroke: #6495ed; stroke-width: 1.5; stroke-linejoin: miter"/>
    </defs>
    <g>
     <use xlink:href="#m890b035ae9" x="96.241256" y="279.307366" style="fill-opacity: 0; stroke: #6495ed; stroke-width: 1.5; stroke-linejoin: miter"/>
     <use xlink:href="#m890b035ae9" x="113.765312" y="255.810538" style="fill-opacity: 0; stroke: #6495ed; stroke-width: 1.5; stroke-linejoin: miter"/>
     <use xlink:href="#m890b035ae9" x="113.765312" y="255.642703" style="fill-opacity: 0; stroke: #6495ed; stroke-width: 1.5; stroke-linejoin: miter"/>
     <use xlink:href="#m890b035ae9" x="113.765312" y="255.642703" style="fill-opacity: 0; stroke: #6495ed; stroke-width: 1.5; stroke-linejoin: miter"/>
     <use xlink:href="#m890b035ae9" x="113.765312" y="255.642703" style="fill-opacity: 0; stroke: #6495ed; stroke-width: 1.5; stroke-linejoin: miter"/>
     <use xlink:href="#m890b035ae9" x="360.8064" y="255.642703" style="fill-opacity: 0; stroke: #6495ed; stroke-width: 1.5; stroke-linejoin: miter"/>
    </g>
   </g>
   <g id="line2d_47">
    <path style="fill: none; stroke: #6495ed; stroke-width: 1.5; stroke-linecap: square"/>
    <g/>
   </g>
   <g id="line2d_48">
    <path d="M 113.954374 255.642703 
" clip-path="url(#pa82c18605d)" style="fill: none; stroke: #6495ed; stroke-width: 1.5; stroke-linecap: square"/>
    <defs>
     <path id="mcc16f0fc28" d="M -12 12 
L 12 -12 
M -12 -12 
L 12 12 
" style="stroke: #6495ed"/>
    </defs>
    <g clip-path="url(#pa82c18605d)">
     <use xlink:href="#mcc16f0fc28" x="113.954374" y="255.642703" style="fill: #6495ed; stroke: #6495ed"/>
    </g>
   </g>
   <g id="line2d_49">
    <path d="M 360.8064 276.454179 
L 380.514816 293.10336 
" style="fill: none; stroke: #000080; stroke-width: 1.5; stroke-linecap: square"/>
    <g>
     <use xlink:href="#m530d668505" x="360.8064" y="276.454179" style="fill-opacity: 0; stroke: #000080; stroke-width: 1.5"/>
     <use xlink:href="#m530d668505" x="380.514816" y="293.10336" style="fill-opacity: 0; stroke: #000080; stroke-width: 1.5"/>
    </g>
   </g>
   <g id="line2d_50">
    <path d="M 360.8064 255.642703 
L 380.514816 199.65312 
" style="fill: none; stroke: #6495ed; stroke-width: 1.5; stroke-linecap: square"/>
    <g>
     <use xlink:href="#m890b035ae9" x="360.8064" y="255.642703" style="fill-opacity: 0; stroke: #6495ed; stroke-width: 1.5; stroke-linejoin: miter"/>
     <use xlink:href="#m890b035ae9" x="380.514816" y="199.65312" style="fill-opacity: 0; stroke: #6495ed; stroke-width: 1.5; stroke-linejoin: miter"/>
    </g>
   </g>
   <g id="line2d_51">
    <path d="M 360.8064 144.032772 
L 380.514816 106.20288 
" style="fill: none; stroke: #ff00ff; stroke-width: 1.5; stroke-linecap: square"/>
    <g>
     <use xlink:href="#m9bf6c95bee" x="360.8064" y="144.032772" style="fill-opacity: 0; stroke: #ff00ff; stroke-width: 1.5; stroke-linejoin: miter"/>
     <use xlink:href="#m9bf6c95bee" x="380.514816" y="106.20288" style="fill-opacity: 0; stroke: #ff00ff; stroke-width: 1.5; stroke-linejoin: miter"/>
    </g>
   </g>
   <g id="line2d_52">
    <path d="M 360.8064 298.944 
L 360.8064 6.912 
" style="fill: none; stroke: #000000; stroke-width: 1.5; stroke-linecap: square"/>
   </g>
   <g id="patch_3">
    <path d="M 57.6 298.944 
L 360.8064 298.944 
" style="fill: none; stroke: #000000; stroke-width: 0.8; stroke-linejoin: miter; stroke-linecap: square"/>
   </g>
   <g id="patch_4">
    <path d="M 57.6 6.912 
L 360.8064 6.912 
" style="fill: none; stroke: #000000; stroke-width: 0.8; stroke-linejoin: miter; stroke-linecap: square"/>
   </g>
   <g id="text_13">
    <!-- cma -->
    <g transform="translate(386.578944 296.966485)scale(0.14 -0.14)">
     <use xlink:href="#DejaVuSans-63"/>
     <use xlink:href="#DejaVuSans-6d" x="54.980469"/>
     <use xlink:href="#DejaVuSans-61" x="152.392578"/>
    </g>
   </g>
   <g id="text_14">
    <!-- parEgo -->
    <g transform="translate(386.578944 203.516245)scale(0.14 -0.14)">
     <defs>
      <path id="DejaVuSans-45" d="M 628 4666 
L 3578 4666 
L 3578 4134 
L 1259 4134 
L 1259 2753 
L 3481 2753 
L 3481 2222 
L 1259 2222 
L 1259 531 
L 3634 531 
L 3634 0 
L 628 0 
L 628 4666 
z
" transform="scale(0.015625)"/>
     </defs>
     <use xlink:href="#DejaVuSans-70"/>
     <use xlink:href="#DejaVuSans-61" x="63.476562"/>
     <use xlink:href="#DejaVuSans-72" x="124.755859"/>
     <use xlink:href="#DejaVuSans-45" x="165.869141"/>
     <use xlink:href="#DejaVuSans-67" x="229.052734"/>
     <use xlink:href="#DejaVuSans-6f" x="292.529297"/>
    </g>
   </g>
   <g id="text_15">
    <!-- external- -->
    <g transform="translate(386.578944 110.066005)scale(0.14 -0.14)">
     <defs>
      <path id="DejaVuSans-78" d="M 3513 3500 
L 2247 1797 
L 3578 0 
L 2900 0 
L 1881 1375 
L 863 0 
L 184 0 
L 1544 1831 
L 300 3500 
L 978 3500 
L 1906 2253 
L 2834 3500 
L 3513 3500 
z
" transform="scale(0.015625)"/>
     </defs>
     <use xlink:href="#DejaVuSans-65"/>
     <use xlink:href="#DejaVuSans-78" x="59.773438"/>
     <use xlink:href="#DejaVuSans-74" x="118.953125"/>
     <use xlink:href="#DejaVuSans-65" x="158.162109"/>
     <use xlink:href="#DejaVuSans-72" x="219.685547"/>
     <use xlink:href="#DejaVuSans-6e" x="259.048828"/>
     <use xlink:href="#DejaVuSans-61" x="322.427734"/>
     <use xlink:href="#DejaVuSans-6c" x="383.707031"/>
     <use xlink:href="#DejaVuSans-2d" x="411.490234"/>
    </g>
   </g>
   <g id="text_16">
    <!-- best 2016 -->
    <g transform="translate(386.578944 16.615765)scale(0.14 -0.14)">
     <defs>
      <path id="DejaVuSans-62" d="M 3116 1747 
Q 3116 2381 2855 2742 
Q 2594 3103 2138 3103 
Q 1681 3103 1420 2742 
Q 1159 2381 1159 1747 
Q 1159 1113 1420 752 
Q 1681 391 2138 391 
Q 2594 391 2855 752 
Q 3116 1113 3116 1747 
z
M 1159 2969 
Q 1341 3281 1617 3432 
Q 1894 3584 2278 3584 
Q 2916 3584 3314 3078 
Q 3713 2572 3713 1747 
Q 3713 922 3314 415 
Q 2916 -91 2278 -91 
Q 1894 -91 1617 61 
Q 1341 213 1159 525 
L 1159 0 
L 581 0 
L 581 4863 
L 1159 4863 
L 1159 2969 
z
" transform="scale(0.015625)"/>
     </defs>
     <use xlink:href="#DejaVuSans-62"/>
     <use xlink:href="#DejaVuSans-65" x="63.476562"/>
     <use xlink:href="#DejaVuSans-73" x="125"/>
     <use xlink:href="#DejaVuSans-74" x="177.099609"/>
     <use xlink:href="#DejaVuSans-20" x="216.308594"/>
     <use xlink:href="#DejaVuSans-32" x="248.095703"/>
     <use xlink:href="#DejaVuSans-30" x="311.71875"/>
     <use xlink:href="#DejaVuSans-31" x="375.341797"/>
     <use xlink:href="#DejaVuSans-36" x="438.964844"/>
    </g>
   </g>
   <g id="text_17">
    <!-- bbob-biobj f35, f36, f41, 5-D -->
    <g transform="translate(60.632064 17.582726)scale(0.102 -0.102)">
     <defs>
      <path id="DejaVuSans-6a" d="M 603 3500 
L 1178 3500 
L 1178 -63 
Q 1178 -731 923 -1031 
Q 669 -1331 103 -1331 
L -116 -1331 
L -116 -844 
L 38 -844 
Q 366 -844 484 -692 
Q 603 -541 603 -63 
L 603 3500 
z
M 603 4863 
L 1178 4863 
L 1178 4134 
L 603 4134 
L 603 4863 
z
" transform="scale(0.015625)"/>
      <path id="DejaVuSans-33" d="M 2597 2516 
Q 3050 2419 3304 2112 
Q 3559 1806 3559 1356 
Q 3559 666 3084 287 
Q 2609 -91 1734 -91 
Q 1441 -91 1130 -33 
Q 819 25 488 141 
L 488 750 
Q 750 597 1062 519 
Q 1375 441 1716 441 
Q 2309 441 2620 675 
Q 2931 909 2931 1356 
Q 2931 1769 2642 2001 
Q 2353 2234 1838 2234 
L 1294 2234 
L 1294 2753 
L 1863 2753 
Q 2328 2753 2575 2939 
Q 2822 3125 2822 3475 
Q 2822 3834 2567 4026 
Q 2313 4219 1838 4219 
Q 1578 4219 1281 4162 
Q 984 4106 628 3988 
L 628 4550 
Q 988 4650 1302 4700 
Q 1616 4750 1894 4750 
Q 2613 4750 3031 4423 
Q 3450 4097 3450 3541 
Q 3450 3153 3228 2886 
Q 3006 2619 2597 2516 
z
" transform="scale(0.015625)"/>
      <path id="DejaVuSans-35" d="M 691 4666 
L 3169 4666 
L 3169 4134 
L 1269 4134 
L 1269 2991 
Q 1406 3038 1543 3061 
Q 1681 3084 1819 3084 
Q 2600 3084 3056 2656 
Q 3513 2228 3513 1497 
Q 3513 744 3044 326 
Q 2575 -91 1722 -91 
Q 1428 -91 1123 -41 
Q 819 9 494 109 
L 494 744 
Q 775 591 1075 516 
Q 1375 441 1709 441 
Q 2250 441 2565 725 
Q 2881 1009 2881 1497 
Q 2881 1984 2565 2268 
Q 2250 2553 1709 2553 
Q 1456 2553 1204 2497 
Q 953 2441 691 2322 
L 691 4666 
z
" transform="scale(0.015625)"/>
      <path id="DejaVuSans-44" d="M 1259 4147 
L 1259 519 
L 2022 519 
Q 2988 519 3436 956 
Q 3884 1394 3884 2338 
Q 3884 3275 3436 3711 
Q 2988 4147 2022 4147 
L 1259 4147 
z
M 628 4666 
L 1925 4666 
Q 3281 4666 3915 4102 
Q 4550 3538 4550 2338 
Q 4550 1131 3912 565 
Q 3275 0 1925 0 
L 628 0 
L 628 4666 
z
" transform="scale(0.015625)"/>
     </defs>
     <use xlink:href="#DejaVuSans-62"/>
     <use xlink:href="#DejaVuSans-62" x="63.476562"/>
     <use xlink:href="#DejaVuSans-6f" x="126.953125"/>
     <use xlink:href="#DejaVuSans-62" x="188.134766"/>
     <use xlink:href="#DejaVuSans-2d" x="251.611328"/>
     <use xlink:href="#DejaVuSans-62" x="287.695312"/>
     <use xlink:href="#DejaVuSans-69" x="351.171875"/>
     <use xlink:href="#DejaVuSans-6f" x="378.955078"/>
     <use xlink:href="#DejaVuSans-62" x="440.136719"/>
     <use xlink:href="#DejaVuSans-6a" x="503.613281"/>
     <use xlink:href="#DejaVuSans-20" x="531.396484"/>
     <use xlink:href="#DejaVuSans-66" x="563.183594"/>
     <use xlink:href="#DejaVuSans-33" x="598.388672"/>
     <use xlink:href="#DejaVuSans-35" x="662.011719"/>
     <use xlink:href="#DejaVuSans-2c" x="725.634766"/>
     <use xlink:href="#DejaVuSans-20" x="757.421875"/>
     <use xlink:href="#DejaVuSans-66" x="789.208984"/>
     <use xlink:href="#DejaVuSans-33" x="824.414062"/>
     <use xlink:href="#DejaVuSans-36" x="888.037109"/>
     <use xlink:href="#DejaVuSans-2c" x="951.660156"/>
     <use xlink:href="#DejaVuSans-20" x="983.447266"/>
     <use xlink:href="#DejaVuSans-66" x="1015.234375"/>
     <use xlink:href="#DejaVuSans-34" x="1050.439453"/>
     <use xlink:href="#DejaVuSans-31" x="1114.0625"/>
     <use xlink:href="#DejaVuSans-2c" x="1177.685547"/>
     <use xlink:href="#DejaVuSans-20" x="1209.472656"/>
     <use xlink:href="#DejaVuSans-35" x="1241.259766"/>
     <use xlink:href="#DejaVuSans-2d" x="1304.882812"/>
     <use xlink:href="#DejaVuSans-44" x="1340.966797"/>
    </g>
    <!-- 58 targets: 1..-1.0e-4 -->
    <g transform="translate(60.632064 29.004495)scale(0.102 -0.102)">
     <defs>
      <path id="DejaVuSans-3a" d="M 750 794 
L 1409 794 
L 1409 0 
L 750 0 
L 750 794 
z
M 750 3309 
L 1409 3309 
L 1409 2516 
L 750 2516 
L 750 3309 
z
" transform="scale(0.015625)"/>
     </defs>
     <use xlink:href="#DejaVuSans-35"/>
     <use xlink:href="#DejaVuSans-38" x="63.623047"/>
     <use xlink:href="#DejaVuSans-20" x="127.246094"/>
     <use xlink:href="#DejaVuSans-74" x="159.033203"/>
     <use xlink:href="#DejaVuSans-61" x="198.242188"/>
     <use xlink:href="#DejaVuSans-72" x="259.521484"/>
     <use xlink:href="#DejaVuSans-67" x="298.884766"/>
     <use xlink:href="#DejaVuSans-65" x="362.361328"/>
     <use xlink:href="#DejaVuSans-74" x="423.884766"/>
     <use xlink:href="#DejaVuSans-73" x="463.09375"/>
     <use xlink:href="#DejaVuSans-3a" x="515.193359"/>
     <use xlink:href="#DejaVuSans-20" x="548.884766"/>
     <use xlink:href="#DejaVuSans-31" x="580.671875"/>
     <use xlink:href="#DejaVuSans-2e" x="644.294922"/>
     <use xlink:href="#DejaVuSans-2e" x="676.082031"/>
     <use xlink:href="#DejaVuSans-2d" x="707.869141"/>
     <use xlink:href="#DejaVuSans-31" x="743.953125"/>
     <use xlink:href="#DejaVuSans-2e" x="807.576172"/>
     <use xlink:href="#DejaVuSans-30" x="839.363281"/>
     <use xlink:href="#DejaVuSans-65" x="902.986328"/>
     <use xlink:href="#DejaVuSans-2d" x="964.509766"/>
     <use xlink:href="#DejaVuSans-34" x="1000.59375"/>
    </g>
    <!-- 10 instances -->
    <g transform="translate(60.632064 40.426264)scale(0.102 -0.102)">
     <use xlink:href="#DejaVuSans-31"/>
     <use xlink:href="#DejaVuSans-30" x="63.623047"/>
     <use xlink:href="#DejaVuSans-20" x="127.246094"/>
     <use xlink:href="#DejaVuSans-69" x="159.033203"/>
     <use xlink:href="#DejaVuSans-6e" x="186.816406"/>
     <use xlink:href="#DejaVuSans-73" x="250.195312"/>
     <use xlink:href="#DejaVuSans-74" x="302.294922"/>
     <use xlink:href="#DejaVuSans-61" x="341.503906"/>
     <use xlink:href="#DejaVuSans-6e" x="402.783203"/>
     <use xlink:href="#DejaVuSans-63" x="466.162109"/>
     <use xlink:href="#DejaVuSans-65" x="521.142578"/>
     <use xlink:href="#DejaVuSans-73" x="582.666016"/>
    </g>
   </g>
   <g id="text_18">
    <!-- v2.6, hv-hash=ff0e71e8cd978373 -->
    <g style="fill: #808080" transform="translate(123.707887 293.943992)scale(0.1 -0.1)">
     <defs>
      <path id="DejaVuSans-68" d="M 3513 2113 
L 3513 0 
L 2938 0 
L 2938 2094 
Q 2938 2591 2744 2837 
Q 2550 3084 2163 3084 
Q 1697 3084 1428 2787 
Q 1159 2491 1159 1978 
L 1159 0 
L 581 0 
L 581 4863 
L 1159 4863 
L 1159 2956 
Q 1366 3272 1645 3428 
Q 1925 3584 2291 3584 
Q 2894 3584 3203 3211 
Q 3513 2838 3513 2113 
z
" transform="scale(0.015625)"/>
      <path id="DejaVuSans-3d" d="M 678 2906 
L 4684 2906 
L 4684 2381 
L 678 2381 
L 678 2906 
z
M 678 1631 
L 4684 1631 
L 4684 1100 
L 678 1100 
L 678 1631 
z
" transform="scale(0.015625)"/>
      <path id="DejaVuSans-37" d="M 525 4666 
L 3525 4666 
L 3525 4397 
L 1831 0 
L 1172 0 
L 2766 4134 
L 525 4134 
L 525 4666 
z
" transform="scale(0.015625)"/>
      <path id="DejaVuSans-39" d="M 703 97 
L 703 672 
Q 941 559 1184 500 
Q 1428 441 1663 441 
Q 2288 441 2617 861 
Q 2947 1281 2994 2138 
Q 2813 1869 2534 1725 
Q 2256 1581 1919 1581 
Q 1219 1581 811 2004 
Q 403 2428 403 3163 
Q 403 3881 828 4315 
Q 1253 4750 1959 4750 
Q 2769 4750 3195 4129 
Q 3622 3509 3622 2328 
Q 3622 1225 3098 567 
Q 2575 -91 1691 -91 
Q 1453 -91 1209 -44 
Q 966 3 703 97 
z
M 1959 2075 
Q 2384 2075 2632 2365 
Q 2881 2656 2881 3163 
Q 2881 3666 2632 3958 
Q 2384 4250 1959 4250 
Q 1534 4250 1286 3958 
Q 1038 3666 1038 3163 
Q 1038 2656 1286 2365 
Q 1534 2075 1959 2075 
z
" transform="scale(0.015625)"/>
     </defs>
     <use xlink:href="#DejaVuSans-76"/>
     <use xlink:href="#DejaVuSans-32" x="59.179688"/>
     <use xlink:href="#DejaVuSans-2e" x="122.802734"/>
     <use xlink:href="#DejaVuSans-36" x="154.589844"/>
     <use xlink:href="#DejaVuSans-2c" x="218.212891"/>
     <use xlink:href="#DejaVuSans-20" x="250"/>
     <use xlink:href="#DejaVuSans-68" x="281.787109"/>
     <use xlink:href="#DejaVuSans-76" x="345.166016"/>
     <use xlink:href="#DejaVuSans-2d" x="401.720703"/>
     <use xlink:href="#DejaVuSans-68" x="437.804688"/>
     <use xlink:href="#DejaVuSans-61" x="501.183594"/>
     <use xlink:href="#DejaVuSans-73" x="562.462891"/>
     <use xlink:href="#DejaVuSans-68" x="614.5625"/>
     <use xlink:href="#DejaVuSans-3d" x="677.941406"/>
     <use xlink:href="#DejaVuSans-66" x="761.730469"/>
     <use xlink:href="#DejaVuSans-66" x="796.935547"/>
     <use xlink:href="#DejaVuSans-30" x="832.140625"/>
     <use xlink:href="#DejaVuSans-65" x="895.763672"/>
     <use xlink:href="#DejaVuSans-37" x="957.287109"/>
     <use xlink:href="#DejaVuSans-31" x="1020.910156"/>
     <use xlink:href="#DejaVuSans-65" x="1084.533203"/>
     <use xlink:href="#DejaVuSans-38" x="1146.056641"/>
     <use xlink:href="#DejaVuSans-63" x="1209.679688"/>
     <use xlink:href="#DejaVuSans-64" x="1264.660156"/>
     <use xlink:href="#DejaVuSans-39" x="1328.136719"/>
     <use xlink:href="#DejaVuSans-37" x="1391.759766"/>
     <use xlink:href="#DejaVuSans-38" x="1455.382812"/>
     <use xlink:href="#DejaVuSans-33" x="1519.005859"/>
     <use xlink:href="#DejaVuSans-37" x="1582.628906"/>
     <use xlink:href="#DejaVuSans-33" x="1646.251953"/>
    </g>
   </g>
  </g>
 </g>
 <defs>
  <clipPath id="pa82c18605d">
   <rect x="57.6" y="6.912" width="303.2064" height="292.032"/>
  </clipPath>
 </defs>
</svg>
