<?xml version="1.0" encoding="utf-8" standalone="no"?>
<!DOCTYPE svg PUBLIC "-//W3C//DTD SVG 1.1//EN"
  "http://www.w3.org/Graphics/SVG/1.1/DTD/svg11.dtd">
<svg xmlns:xlink="http://www.w3.org/1999/xlink" width="460.8pt" height="345.6pt" viewBox="0 0 460.8 345.6" xmlns="http://www.w3.org/2000/svg" version="1.1">
 <metadata>
  <rdf:RDF xmlns:dc="http://purl.org/dc/elements/1.1/" xmlns:cc="http://creativecommons.org/ns#" xmlns:rdf="http://www.w3.org/1999/02/22-rdf-syntax-ns#">
   <cc:Work>
    <dc:type rdf:resource="http://purl.org/dc/dcmitype/StillImage"/>
    <dc:date>2022-06-19T21:02:58.820258</dc:date>
    <dc:format>image/svg+xml</dc:format>
    <dc:creator>
     <cc:Agent>
      <dc:title>Matplotlib v3.5.1, https://matplotlib.org/</dc:title>
     </cc:Agent>
    </dc:creator>
   </cc:Work>
  </rdf:RDF>
 </metadata>
 <defs>
  <style type="text/css">*{stroke-linejoin: round; stroke-linecap: butt}</style>
 </defs>
 <g id="figure_1">
  <g id="patch_1">
   <path d="M 0 345.6 
L 460.8 345.6 
L 460.8 0 
L 0 0 
z
" style="fill: #ffffff"/>
  </g>
  <g id="axes_1">
   <g id="patch_2">
    <path d="M 57.6 298.944 
L 360.8064 298.944 
L 360.8064 6.912 
L 57.6 6.912 
z
" style="fill: #ffffff"/>
   </g>
   <g id="line2d_1">
    <path d="M 70.639174 298.944 
L 70.639174 297.685241 
L 74.836851 297.685241 
L 74.836851 293.908966 
L 81.166416 293.908966 
L 81.166416 291.391448 
L 85.894031 291.391448 
L 85.894031 287.615172 
L 94.205591 287.615172 
L 94.205591 285.097655 
L 96.717523 285.097655 
L 96.717523 282.580138 
L 102.708132 282.580138 
L 102.708132 281.321379 
L 104.344952 281.321379 
L 104.344952 278.803862 
L 107.244765 278.803862 
L 107.244765 276.286345 
L 124.210942 276.286345 
L 124.210942 275.027586 
L 125.011554 275.027586 
L 125.011554 272.510069 
L 133.983236 272.510069 
L 133.983236 268.733793 
L 136.270855 268.733793 
L 136.270855 267.475034 
L 138.818654 267.475034 
L 138.818654 264.957517 
L 140.950542 264.957517 
L 140.950542 262.44 
L 141.393187 262.44 
L 141.393187 258.663724 
L 143.754133 258.663724 
L 143.754133 254.887448 
L 144.041338 254.887448 
L 144.041338 253.62869 
L 144.2304 253.62869 
L 144.2304 249.852414 
L 145.415054 249.852414 
L 145.415054 247.334897 
L 146.941151 247.334897 
L 146.941151 246.076138 
L 148.874221 246.076138 
L 148.874221 243.558621 
L 149.73597 243.558621 
L 149.73597 241.041103 
L 151.41369 241.041103 
L 151.477784 236.006069 
L 152.352898 236.006069 
L 152.352898 232.229793 
L 152.894708 232.229793 
L 152.894708 228.453517 
L 153.989717 228.453517 
L 153.989717 227.194759 
L 154.86483 227.194759 
L 154.86483 225.936 
L 155.904407 225.936 
L 155.904407 223.418483 
L 158.365703 223.418483 
L 158.365703 220.900966 
L 161.240147 220.900966 
L 161.240147 218.383448 
L 161.802848 218.383448 
L 161.802848 215.865931 
L 162.880139 215.865931 
L 162.880139 212.089655 
L 163.464289 212.089655 
L 163.464289 208.313379 
L 165.330896 208.313379 
L 165.330896 205.795862 
L 165.904188 205.795862 
L 165.904188 203.278345 
L 166.052194 203.278345 
L 166.052194 200.760828 
L 167.769923 200.760828 
L 167.769923 199.502069 
L 168.326754 199.502069 
L 168.326754 196.984552 
L 170.425955 196.984552 
L 170.425955 194.467034 
L 170.819081 194.467034 
L 170.819081 191.949517 
L 171.972982 191.949517 
L 171.972982 189.432 
L 172.958324 189.432 
L 172.958324 186.914483 
L 173.501874 186.914483 
L 173.501874 184.396966 
L 173.952824 184.396966 
L 173.952824 183.138207 
L 175.007602 183.138207 
L 175.007602 179.361931 
L 175.919314 179.361931 
L 175.919314 178.103172 
L 176.127562 178.103172 
L 176.127562 174.326897 
L 178.492224 174.326897 
L 178.507438 168.033103 
L 180.795637 168.033103 
L 180.795637 166.774345 
L 182.045861 166.774345 
L 182.045861 165.515586 
L 183.347923 165.515586 
L 183.347923 164.256828 
L 184.752084 164.256828 
L 184.752084 162.998069 
L 185.997499 162.998069 
L 185.997499 159.221793 
L 186.431592 159.221793 
L 186.471468 151.669241 
L 187.788574 151.669241 
L 187.788574 149.151724 
L 188.570607 149.151724 
L 188.570607 145.375448 
L 188.862265 145.375448 
L 188.862265 144.11669 
L 189.054221 144.11669 
L 189.158105 139.081655 
L 193.70645 139.081655 
L 193.70645 137.822897 
L 194.418162 137.822897 
L 194.418162 134.046621 
L 197.986649 134.046621 
L 197.986649 130.270345 
L 198.313163 130.270345 
L 198.313163 129.011586 
L 202.167039 129.011586 
L 202.167039 127.752828 
L 203.570388 127.752828 
L 203.570388 123.976552 
L 204.084937 123.976552 
L 204.084937 120.200276 
L 205.36405 120.200276 
L 205.36405 118.941517 
L 206.027065 118.941517 
L 206.027065 115.165241 
L 206.847035 115.165241 
L 206.847035 113.906483 
L 208.337197 113.906483 
L 208.337197 112.647724 
L 208.762161 112.647724 
L 208.762161 110.130207 
L 215.565927 110.130207 
L 215.565927 107.61269 
L 215.860521 107.61269 
L 215.90848 101.318897 
L 217.163116 101.318897 
L 217.163116 100.060138 
L 217.289323 100.060138 
L 217.289323 98.801379 
L 225.884173 98.801379 
L 225.884173 95.025103 
L 229.380999 95.025103 
L 229.380999 88.73131 
L 229.516859 88.73131 
L 229.516859 86.213793 
L 229.90876 86.213793 
L 230.006457 78.661241 
L 230.197419 78.661241 
L 230.197419 76.143724 
L 230.647971 76.143724 
L 230.676487 69.849931 
L 231.783097 69.849931 
L 231.783097 68.591172 
L 239.024784 68.591172 
L 239.024784 64.814897 
L 240.234359 64.814897 
L 240.234359 62.297379 
L 242.347788 62.297379 
L 242.347788 59.779862 
L 245.734332 59.779862 
L 245.734332 58.521103 
L 248.116077 58.521103 
L 248.116077 56.003586 
L 248.940073 56.003586 
L 248.940073 54.744828 
L 250.622136 54.744828 
L 250.622136 52.22731 
L 251.207408 52.22731 
L 251.207408 49.709793 
L 253.334581 49.709793 
L 253.334581 45.933517 
L 256.402249 45.933517 
L 256.402249 42.157241 
L 360.8064 42.157241 
L 360.8064 42.157241 
" style="fill: none; stroke: #f5deb3; stroke-width: 4; stroke-linecap: square"/>
   </g>
   <g id="line2d_2">
    <defs>
     <path id="md6868bd7b8" d="M 0 7.778175 
L 7.778175 0 
L 0 -7.778175 
L -7.778175 0 
z
" style="stroke: #f5deb3; stroke-width: 1.5; stroke-linejoin: miter"/>
    </defs>
    <g>
     <use xlink:href="#md6868bd7b8" x="152.894708" y="228.453517" style="fill: #f5deb3; stroke: #f5deb3; stroke-width: 1.5; stroke-linejoin: miter"/>
     <use xlink:href="#md6868bd7b8" x="188.570607" y="149.151724" style="fill: #f5deb3; stroke: #f5deb3; stroke-width: 1.5; stroke-linejoin: miter"/>
     <use xlink:href="#md6868bd7b8" x="253.334581" y="49.709793" style="fill: #f5deb3; stroke: #f5deb3; stroke-width: 1.5; stroke-linejoin: miter"/>
     <use xlink:href="#md6868bd7b8" x="256.402249" y="42.157241" style="fill: #f5deb3; stroke: #f5deb3; stroke-width: 1.5; stroke-linejoin: miter"/>
     <use xlink:href="#md6868bd7b8" x="360.8064" y="42.157241" style="fill: #f5deb3; stroke: #f5deb3; stroke-width: 1.5; stroke-linejoin: miter"/>
    </g>
   </g>
   <g id="line2d_3">
    <path style="fill: none; stroke: #f5deb3; stroke-width: 4; stroke-linecap: square"/>
    <g/>
   </g>
   <g id="line2d_4">
    <path d="M 360.8064 42.157241 
L 380.514816 12.75264 
" style="fill: none; stroke: #f5deb3; stroke-width: 4; stroke-linecap: square"/>
    <g>
     <use xlink:href="#md6868bd7b8" x="360.8064" y="42.157241" style="fill: #f5deb3; stroke: #f5deb3; stroke-width: 1.5; stroke-linejoin: miter"/>
     <use xlink:href="#md6868bd7b8" x="380.514816" y="12.75264" style="fill: #f5deb3; stroke: #f5deb3; stroke-width: 1.5; stroke-linejoin: miter"/>
    </g>
   </g>
   <g id="matplotlib.axis_1">
    <g id="xtick_1">
     <g id="line2d_5">
      <path d="M 57.6 298.944 
L 57.6 6.912 
" clip-path="url(#p66b2377342)" style="fill: none; stroke: #b0b0b0; stroke-width: 0.8; stroke-linecap: square"/>
     </g>
     <g id="line2d_6">
      <defs>
       <path id="ma56a4a3a73" d="M 0 0 
L 0 3.5 
" style="stroke: #000000; stroke-width: 0.8"/>
      </defs>
      <g>
       <use xlink:href="#ma56a4a3a73" x="57.6" y="298.944" style="stroke: #000000; stroke-width: 0.8"/>
      </g>
     </g>
     <g id="text_1">
      <!-- 0 -->
      <g transform="translate(52.191875 318.861344)scale(0.17 -0.17)">
       <defs>
        <path id="DejaVuSans-30" d="M 2034 4250 
Q 1547 4250 1301 3770 
Q 1056 3291 1056 2328 
Q 1056 1369 1301 889 
Q 1547 409 2034 409 
Q 2525 409 2770 889 
Q 3016 1369 3016 2328 
Q 3016 3291 2770 3770 
Q 2525 4250 2034 4250 
z
M 2034 4750 
Q 2819 4750 3233 4129 
Q 3647 3509 3647 2328 
Q 3647 1150 3233 529 
Q 2819 -91 2034 -91 
Q 1250 -91 836 529 
Q 422 1150 422 2328 
Q 422 3509 836 4129 
Q 1250 4750 2034 4750 
z
" transform="scale(0.015625)"/>
       </defs>
       <use xlink:href="#DejaVuSans-30"/>
      </g>
     </g>
    </g>
    <g id="xtick_2">
     <g id="line2d_7">
      <path d="M 144.2304 298.944 
L 144.2304 6.912 
" clip-path="url(#p66b2377342)" style="fill: none; stroke: #b0b0b0; stroke-width: 0.8; stroke-linecap: square"/>
     </g>
     <g id="line2d_8">
      <g>
       <use xlink:href="#ma56a4a3a73" x="144.2304" y="298.944" style="stroke: #000000; stroke-width: 0.8"/>
      </g>
     </g>
     <g id="text_2">
      <!-- 2 -->
      <g transform="translate(138.822275 318.861344)scale(0.17 -0.17)">
       <defs>
        <path id="DejaVuSans-32" d="M 1228 531 
L 3431 531 
L 3431 0 
L 469 0 
L 469 531 
Q 828 903 1448 1529 
Q 2069 2156 2228 2338 
Q 2531 2678 2651 2914 
Q 2772 3150 2772 3378 
Q 2772 3750 2511 3984 
Q 2250 4219 1831 4219 
Q 1534 4219 1204 4116 
Q 875 4013 500 3803 
L 500 4441 
Q 881 4594 1212 4672 
Q 1544 4750 1819 4750 
Q 2544 4750 2975 4387 
Q 3406 4025 3406 3419 
Q 3406 3131 3298 2873 
Q 3191 2616 2906 2266 
Q 2828 2175 2409 1742 
Q 1991 1309 1228 531 
z
" transform="scale(0.015625)"/>
       </defs>
       <use xlink:href="#DejaVuSans-32"/>
      </g>
     </g>
    </g>
    <g id="xtick_3">
     <g id="line2d_9">
      <path d="M 230.8608 298.944 
L 230.8608 6.912 
" clip-path="url(#p66b2377342)" style="fill: none; stroke: #b0b0b0; stroke-width: 0.8; stroke-linecap: square"/>
     </g>
     <g id="line2d_10">
      <g>
       <use xlink:href="#ma56a4a3a73" x="230.8608" y="298.944" style="stroke: #000000; stroke-width: 0.8"/>
      </g>
     </g>
     <g id="text_3">
      <!-- 4 -->
      <g transform="translate(225.452675 318.861344)scale(0.17 -0.17)">
       <defs>
        <path id="DejaVuSans-34" d="M 2419 4116 
L 825 1625 
L 2419 1625 
L 2419 4116 
z
M 2253 4666 
L 3047 4666 
L 3047 1625 
L 3713 1625 
L 3713 1100 
L 3047 1100 
L 3047 0 
L 2419 0 
L 2419 1100 
L 313 1100 
L 313 1709 
L 2253 4666 
z
" transform="scale(0.015625)"/>
       </defs>
       <use xlink:href="#DejaVuSans-34"/>
      </g>
     </g>
    </g>
    <g id="xtick_4">
     <g id="line2d_11">
      <path d="M 317.4912 298.944 
L 317.4912 6.912 
" clip-path="url(#p66b2377342)" style="fill: none; stroke: #b0b0b0; stroke-width: 0.8; stroke-linecap: square"/>
     </g>
     <g id="line2d_12">
      <g>
       <use xlink:href="#ma56a4a3a73" x="317.4912" y="298.944" style="stroke: #000000; stroke-width: 0.8"/>
      </g>
     </g>
     <g id="text_4">
      <!-- 6 -->
      <g transform="translate(312.083075 318.861344)scale(0.17 -0.17)">
       <defs>
        <path id="DejaVuSans-36" d="M 2113 2584 
Q 1688 2584 1439 2293 
Q 1191 2003 1191 1497 
Q 1191 994 1439 701 
Q 1688 409 2113 409 
Q 2538 409 2786 701 
Q 3034 994 3034 1497 
Q 3034 2003 2786 2293 
Q 2538 2584 2113 2584 
z
M 3366 4563 
L 3366 3988 
Q 3128 4100 2886 4159 
Q 2644 4219 2406 4219 
Q 1781 4219 1451 3797 
Q 1122 3375 1075 2522 
Q 1259 2794 1537 2939 
Q 1816 3084 2150 3084 
Q 2853 3084 3261 2657 
Q 3669 2231 3669 1497 
Q 3669 778 3244 343 
Q 2819 -91 2113 -91 
Q 1303 -91 875 529 
Q 447 1150 447 2328 
Q 447 3434 972 4092 
Q 1497 4750 2381 4750 
Q 2619 4750 2861 4703 
Q 3103 4656 3366 4563 
z
" transform="scale(0.015625)"/>
       </defs>
       <use xlink:href="#DejaVuSans-36"/>
      </g>
     </g>
    </g>
    <g id="xtick_5">
     <g id="line2d_13">
      <path d="M 100.9152 298.944 
L 100.9152 6.912 
" clip-path="url(#p66b2377342)" style="fill: none; stroke: #b0b0b0; stroke-width: 0.8; stroke-linecap: square"/>
     </g>
     <g id="line2d_14">
      <defs>
       <path id="m32ded5855e" d="M 0 0 
L 0 2 
" style="stroke: #000000; stroke-width: 0.6"/>
      </defs>
      <g>
       <use xlink:href="#m32ded5855e" x="100.9152" y="298.944" style="stroke: #000000; stroke-width: 0.6"/>
      </g>
     </g>
    </g>
    <g id="xtick_6">
     <g id="line2d_15">
      <path d="M 187.5456 298.944 
L 187.5456 6.912 
" clip-path="url(#p66b2377342)" style="fill: none; stroke: #b0b0b0; stroke-width: 0.8; stroke-linecap: square"/>
     </g>
     <g id="line2d_16">
      <g>
       <use xlink:href="#m32ded5855e" x="187.5456" y="298.944" style="stroke: #000000; stroke-width: 0.6"/>
      </g>
     </g>
    </g>
    <g id="xtick_7">
     <g id="line2d_17">
      <path d="M 274.176 298.944 
L 274.176 6.912 
" clip-path="url(#p66b2377342)" style="fill: none; stroke: #b0b0b0; stroke-width: 0.8; stroke-linecap: square"/>
     </g>
     <g id="line2d_18">
      <g>
       <use xlink:href="#m32ded5855e" x="274.176" y="298.944" style="stroke: #000000; stroke-width: 0.6"/>
      </g>
     </g>
    </g>
    <g id="xtick_8">
     <g id="line2d_19">
      <path d="M 360.8064 298.944 
L 360.8064 6.912 
" clip-path="url(#p66b2377342)" style="fill: none; stroke: #b0b0b0; stroke-width: 0.8; stroke-linecap: square"/>
     </g>
     <g id="line2d_20">
      <g>
       <use xlink:href="#m32ded5855e" x="360.8064" y="298.944" style="stroke: #000000; stroke-width: 0.6"/>
      </g>
     </g>
    </g>
    <g id="text_5">
     <!-- log10(# f-evals / dimension) -->
     <g transform="translate(88.823278 339.314156)scale(0.17 -0.17)">
      <defs>
       <path id="DejaVuSans-6c" d="M 603 4863 
L 1178 4863 
L 1178 0 
L 603 0 
L 603 4863 
z
" transform="scale(0.015625)"/>
       <path id="DejaVuSans-6f" d="M 1959 3097 
Q 1497 3097 1228 2736 
Q 959 2375 959 1747 
Q 959 1119 1226 758 
Q 1494 397 1959 397 
Q 2419 397 2687 759 
Q 2956 1122 2956 1747 
Q 2956 2369 2687 2733 
Q 2419 3097 1959 3097 
z
M 1959 3584 
Q 2709 3584 3137 3096 
Q 3566 2609 3566 1747 
Q 3566 888 3137 398 
Q 2709 -91 1959 -91 
Q 1206 -91 779 398 
Q 353 888 353 1747 
Q 353 2609 779 3096 
Q 1206 3584 1959 3584 
z
" transform="scale(0.015625)"/>
       <path id="DejaVuSans-67" d="M 2906 1791 
Q 2906 2416 2648 2759 
Q 2391 3103 1925 3103 
Q 1463 3103 1205 2759 
Q 947 2416 947 1791 
Q 947 1169 1205 825 
Q 1463 481 1925 481 
Q 2391 481 2648 825 
Q 2906 1169 2906 1791 
z
M 3481 434 
Q 3481 -459 3084 -895 
Q 2688 -1331 1869 -1331 
Q 1566 -1331 1297 -1286 
Q 1028 -1241 775 -1147 
L 775 -588 
Q 1028 -725 1275 -790 
Q 1522 -856 1778 -856 
Q 2344 -856 2625 -561 
Q 2906 -266 2906 331 
L 2906 616 
Q 2728 306 2450 153 
Q 2172 0 1784 0 
Q 1141 0 747 490 
Q 353 981 353 1791 
Q 353 2603 747 3093 
Q 1141 3584 1784 3584 
Q 2172 3584 2450 3431 
Q 2728 3278 2906 2969 
L 2906 3500 
L 3481 3500 
L 3481 434 
z
" transform="scale(0.015625)"/>
       <path id="DejaVuSans-31" d="M 794 531 
L 1825 531 
L 1825 4091 
L 703 3866 
L 703 4441 
L 1819 4666 
L 2450 4666 
L 2450 531 
L 3481 531 
L 3481 0 
L 794 0 
L 794 531 
z
" transform="scale(0.015625)"/>
       <path id="DejaVuSans-28" d="M 1984 4856 
Q 1566 4138 1362 3434 
Q 1159 2731 1159 2009 
Q 1159 1288 1364 580 
Q 1569 -128 1984 -844 
L 1484 -844 
Q 1016 -109 783 600 
Q 550 1309 550 2009 
Q 550 2706 781 3412 
Q 1013 4119 1484 4856 
L 1984 4856 
z
" transform="scale(0.015625)"/>
       <path id="DejaVuSans-23" d="M 3272 2816 
L 2363 2816 
L 2100 1772 
L 3016 1772 
L 3272 2816 
z
M 2803 4594 
L 2478 3297 
L 3391 3297 
L 3719 4594 
L 4219 4594 
L 3897 3297 
L 4872 3297 
L 4872 2816 
L 3775 2816 
L 3519 1772 
L 4513 1772 
L 4513 1294 
L 3397 1294 
L 3072 0 
L 2572 0 
L 2894 1294 
L 1978 1294 
L 1656 0 
L 1153 0 
L 1478 1294 
L 494 1294 
L 494 1772 
L 1594 1772 
L 1856 2816 
L 850 2816 
L 850 3297 
L 1978 3297 
L 2297 4594 
L 2803 4594 
z
" transform="scale(0.015625)"/>
       <path id="DejaVuSans-20" transform="scale(0.015625)"/>
       <path id="DejaVuSans-66" d="M 2375 4863 
L 2375 4384 
L 1825 4384 
Q 1516 4384 1395 4259 
Q 1275 4134 1275 3809 
L 1275 3500 
L 2222 3500 
L 2222 3053 
L 1275 3053 
L 1275 0 
L 697 0 
L 697 3053 
L 147 3053 
L 147 3500 
L 697 3500 
L 697 3744 
Q 697 4328 969 4595 
Q 1241 4863 1831 4863 
L 2375 4863 
z
" transform="scale(0.015625)"/>
       <path id="DejaVuSans-2d" d="M 313 2009 
L 1997 2009 
L 1997 1497 
L 313 1497 
L 313 2009 
z
" transform="scale(0.015625)"/>
       <path id="DejaVuSans-65" d="M 3597 1894 
L 3597 1613 
L 953 1613 
Q 991 1019 1311 708 
Q 1631 397 2203 397 
Q 2534 397 2845 478 
Q 3156 559 3463 722 
L 3463 178 
Q 3153 47 2828 -22 
Q 2503 -91 2169 -91 
Q 1331 -91 842 396 
Q 353 884 353 1716 
Q 353 2575 817 3079 
Q 1281 3584 2069 3584 
Q 2775 3584 3186 3129 
Q 3597 2675 3597 1894 
z
M 3022 2063 
Q 3016 2534 2758 2815 
Q 2500 3097 2075 3097 
Q 1594 3097 1305 2825 
Q 1016 2553 972 2059 
L 3022 2063 
z
" transform="scale(0.015625)"/>
       <path id="DejaVuSans-76" d="M 191 3500 
L 800 3500 
L 1894 563 
L 2988 3500 
L 3597 3500 
L 2284 0 
L 1503 0 
L 191 3500 
z
" transform="scale(0.015625)"/>
       <path id="DejaVuSans-61" d="M 2194 1759 
Q 1497 1759 1228 1600 
Q 959 1441 959 1056 
Q 959 750 1161 570 
Q 1363 391 1709 391 
Q 2188 391 2477 730 
Q 2766 1069 2766 1631 
L 2766 1759 
L 2194 1759 
z
M 3341 1997 
L 3341 0 
L 2766 0 
L 2766 531 
Q 2569 213 2275 61 
Q 1981 -91 1556 -91 
Q 1019 -91 701 211 
Q 384 513 384 1019 
Q 384 1609 779 1909 
Q 1175 2209 1959 2209 
L 2766 2209 
L 2766 2266 
Q 2766 2663 2505 2880 
Q 2244 3097 1772 3097 
Q 1472 3097 1187 3025 
Q 903 2953 641 2809 
L 641 3341 
Q 956 3463 1253 3523 
Q 1550 3584 1831 3584 
Q 2591 3584 2966 3190 
Q 3341 2797 3341 1997 
z
" transform="scale(0.015625)"/>
       <path id="DejaVuSans-73" d="M 2834 3397 
L 2834 2853 
Q 2591 2978 2328 3040 
Q 2066 3103 1784 3103 
Q 1356 3103 1142 2972 
Q 928 2841 928 2578 
Q 928 2378 1081 2264 
Q 1234 2150 1697 2047 
L 1894 2003 
Q 2506 1872 2764 1633 
Q 3022 1394 3022 966 
Q 3022 478 2636 193 
Q 2250 -91 1575 -91 
Q 1294 -91 989 -36 
Q 684 19 347 128 
L 347 722 
Q 666 556 975 473 
Q 1284 391 1588 391 
Q 1994 391 2212 530 
Q 2431 669 2431 922 
Q 2431 1156 2273 1281 
Q 2116 1406 1581 1522 
L 1381 1569 
Q 847 1681 609 1914 
Q 372 2147 372 2553 
Q 372 3047 722 3315 
Q 1072 3584 1716 3584 
Q 2034 3584 2315 3537 
Q 2597 3491 2834 3397 
z
" transform="scale(0.015625)"/>
       <path id="DejaVuSans-2f" d="M 1625 4666 
L 2156 4666 
L 531 -594 
L 0 -594 
L 1625 4666 
z
" transform="scale(0.015625)"/>
       <path id="DejaVuSans-64" d="M 2906 2969 
L 2906 4863 
L 3481 4863 
L 3481 0 
L 2906 0 
L 2906 525 
Q 2725 213 2448 61 
Q 2172 -91 1784 -91 
Q 1150 -91 751 415 
Q 353 922 353 1747 
Q 353 2572 751 3078 
Q 1150 3584 1784 3584 
Q 2172 3584 2448 3432 
Q 2725 3281 2906 2969 
z
M 947 1747 
Q 947 1113 1208 752 
Q 1469 391 1925 391 
Q 2381 391 2643 752 
Q 2906 1113 2906 1747 
Q 2906 2381 2643 2742 
Q 2381 3103 1925 3103 
Q 1469 3103 1208 2742 
Q 947 2381 947 1747 
z
" transform="scale(0.015625)"/>
       <path id="DejaVuSans-69" d="M 603 3500 
L 1178 3500 
L 1178 0 
L 603 0 
L 603 3500 
z
M 603 4863 
L 1178 4863 
L 1178 4134 
L 603 4134 
L 603 4863 
z
" transform="scale(0.015625)"/>
       <path id="DejaVuSans-6d" d="M 3328 2828 
Q 3544 3216 3844 3400 
Q 4144 3584 4550 3584 
Q 5097 3584 5394 3201 
Q 5691 2819 5691 2113 
L 5691 0 
L 5113 0 
L 5113 2094 
Q 5113 2597 4934 2840 
Q 4756 3084 4391 3084 
Q 3944 3084 3684 2787 
Q 3425 2491 3425 1978 
L 3425 0 
L 2847 0 
L 2847 2094 
Q 2847 2600 2669 2842 
Q 2491 3084 2119 3084 
Q 1678 3084 1418 2786 
Q 1159 2488 1159 1978 
L 1159 0 
L 581 0 
L 581 3500 
L 1159 3500 
L 1159 2956 
Q 1356 3278 1631 3431 
Q 1906 3584 2284 3584 
Q 2666 3584 2933 3390 
Q 3200 3197 3328 2828 
z
" transform="scale(0.015625)"/>
       <path id="DejaVuSans-6e" d="M 3513 2113 
L 3513 0 
L 2938 0 
L 2938 2094 
Q 2938 2591 2744 2837 
Q 2550 3084 2163 3084 
Q 1697 3084 1428 2787 
Q 1159 2491 1159 1978 
L 1159 0 
L 581 0 
L 581 3500 
L 1159 3500 
L 1159 2956 
Q 1366 3272 1645 3428 
Q 1925 3584 2291 3584 
Q 2894 3584 3203 3211 
Q 3513 2838 3513 2113 
z
" transform="scale(0.015625)"/>
       <path id="DejaVuSans-29" d="M 513 4856 
L 1013 4856 
Q 1481 4119 1714 3412 
Q 1947 2706 1947 2009 
Q 1947 1309 1714 600 
Q 1481 -109 1013 -844 
L 513 -844 
Q 928 -128 1133 580 
Q 1338 1288 1338 2009 
Q 1338 2731 1133 3434 
Q 928 4138 513 4856 
z
" transform="scale(0.015625)"/>
      </defs>
      <use xlink:href="#DejaVuSans-6c"/>
      <use xlink:href="#DejaVuSans-6f" x="27.783203"/>
      <use xlink:href="#DejaVuSans-67" x="88.964844"/>
      <use xlink:href="#DejaVuSans-31" x="152.441406"/>
      <use xlink:href="#DejaVuSans-30" x="216.064453"/>
      <use xlink:href="#DejaVuSans-28" x="279.6875"/>
      <use xlink:href="#DejaVuSans-23" x="318.701172"/>
      <use xlink:href="#DejaVuSans-20" x="402.490234"/>
      <use xlink:href="#DejaVuSans-66" x="434.277344"/>
      <use xlink:href="#DejaVuSans-2d" x="463.982422"/>
      <use xlink:href="#DejaVuSans-65" x="500.066406"/>
      <use xlink:href="#DejaVuSans-76" x="561.589844"/>
      <use xlink:href="#DejaVuSans-61" x="620.769531"/>
      <use xlink:href="#DejaVuSans-6c" x="682.048828"/>
      <use xlink:href="#DejaVuSans-73" x="709.832031"/>
      <use xlink:href="#DejaVuSans-20" x="761.931641"/>
      <use xlink:href="#DejaVuSans-2f" x="793.71875"/>
      <use xlink:href="#DejaVuSans-20" x="827.410156"/>
      <use xlink:href="#DejaVuSans-64" x="859.197266"/>
      <use xlink:href="#DejaVuSans-69" x="922.673828"/>
      <use xlink:href="#DejaVuSans-6d" x="950.457031"/>
      <use xlink:href="#DejaVuSans-65" x="1047.869141"/>
      <use xlink:href="#DejaVuSans-6e" x="1109.392578"/>
      <use xlink:href="#DejaVuSans-73" x="1172.771484"/>
      <use xlink:href="#DejaVuSans-69" x="1224.871094"/>
      <use xlink:href="#DejaVuSans-6f" x="1252.654297"/>
      <use xlink:href="#DejaVuSans-6e" x="1313.835938"/>
      <use xlink:href="#DejaVuSans-29" x="1377.214844"/>
     </g>
    </g>
   </g>
   <g id="matplotlib.axis_2">
    <g id="ytick_1">
     <g id="line2d_21">
      <path d="M 57.6 298.944 
L 360.8064 298.944 
" clip-path="url(#p66b2377342)" style="fill: none; stroke: #b0b0b0; stroke-width: 0.8; stroke-linecap: square"/>
     </g>
     <g id="line2d_22">
      <defs>
       <path id="m12edc86ac9" d="M 0 0 
L -3.5 0 
" style="stroke: #000000; stroke-width: 0.8"/>
      </defs>
      <g>
       <use xlink:href="#m12edc86ac9" x="57.6" y="298.944" style="stroke: #000000; stroke-width: 0.8"/>
      </g>
     </g>
     <g id="text_6">
      <!-- 0.0 -->
      <g transform="translate(25.155 305.02275)scale(0.16 -0.16)">
       <defs>
        <path id="DejaVuSans-2e" d="M 684 794 
L 1344 794 
L 1344 0 
L 684 0 
L 684 794 
z
" transform="scale(0.015625)"/>
       </defs>
       <use xlink:href="#DejaVuSans-30"/>
       <use xlink:href="#DejaVuSans-2e" x="63.623047"/>
       <use xlink:href="#DejaVuSans-30" x="95.410156"/>
      </g>
     </g>
    </g>
    <g id="ytick_2">
     <g id="line2d_23">
      <path d="M 57.6 240.5376 
L 360.8064 240.5376 
" clip-path="url(#p66b2377342)" style="fill: none; stroke: #b0b0b0; stroke-width: 0.8; stroke-linecap: square"/>
     </g>
     <g id="line2d_24">
      <g>
       <use xlink:href="#m12edc86ac9" x="57.6" y="240.5376" style="stroke: #000000; stroke-width: 0.8"/>
      </g>
     </g>
     <g id="text_7">
      <!-- 0.2 -->
      <g transform="translate(25.155 246.61635)scale(0.16 -0.16)">
       <use xlink:href="#DejaVuSans-30"/>
       <use xlink:href="#DejaVuSans-2e" x="63.623047"/>
       <use xlink:href="#DejaVuSans-32" x="95.410156"/>
      </g>
     </g>
    </g>
    <g id="ytick_3">
     <g id="line2d_25">
      <path d="M 57.6 182.1312 
L 360.8064 182.1312 
" clip-path="url(#p66b2377342)" style="fill: none; stroke: #b0b0b0; stroke-width: 0.8; stroke-linecap: square"/>
     </g>
     <g id="line2d_26">
      <g>
       <use xlink:href="#m12edc86ac9" x="57.6" y="182.1312" style="stroke: #000000; stroke-width: 0.8"/>
      </g>
     </g>
     <g id="text_8">
      <!-- 0.4 -->
      <g transform="translate(25.155 188.20995)scale(0.16 -0.16)">
       <use xlink:href="#DejaVuSans-30"/>
       <use xlink:href="#DejaVuSans-2e" x="63.623047"/>
       <use xlink:href="#DejaVuSans-34" x="95.410156"/>
      </g>
     </g>
    </g>
    <g id="ytick_4">
     <g id="line2d_27">
      <path d="M 57.6 123.7248 
L 360.8064 123.7248 
" clip-path="url(#p66b2377342)" style="fill: none; stroke: #b0b0b0; stroke-width: 0.8; stroke-linecap: square"/>
     </g>
     <g id="line2d_28">
      <g>
       <use xlink:href="#m12edc86ac9" x="57.6" y="123.7248" style="stroke: #000000; stroke-width: 0.8"/>
      </g>
     </g>
     <g id="text_9">
      <!-- 0.6 -->
      <g transform="translate(25.155 129.80355)scale(0.16 -0.16)">
       <use xlink:href="#DejaVuSans-30"/>
       <use xlink:href="#DejaVuSans-2e" x="63.623047"/>
       <use xlink:href="#DejaVuSans-36" x="95.410156"/>
      </g>
     </g>
    </g>
    <g id="ytick_5">
     <g id="line2d_29">
      <path d="M 57.6 65.3184 
L 360.8064 65.3184 
" clip-path="url(#p66b2377342)" style="fill: none; stroke: #b0b0b0; stroke-width: 0.8; stroke-linecap: square"/>
     </g>
     <g id="line2d_30">
      <g>
       <use xlink:href="#m12edc86ac9" x="57.6" y="65.3184" style="stroke: #000000; stroke-width: 0.8"/>
      </g>
     </g>
     <g id="text_10">
      <!-- 0.8 -->
      <g transform="translate(25.155 71.39715)scale(0.16 -0.16)">
       <defs>
        <path id="DejaVuSans-38" d="M 2034 2216 
Q 1584 2216 1326 1975 
Q 1069 1734 1069 1313 
Q 1069 891 1326 650 
Q 1584 409 2034 409 
Q 2484 409 2743 651 
Q 3003 894 3003 1313 
Q 3003 1734 2745 1975 
Q 2488 2216 2034 2216 
z
M 1403 2484 
Q 997 2584 770 2862 
Q 544 3141 544 3541 
Q 544 4100 942 4425 
Q 1341 4750 2034 4750 
Q 2731 4750 3128 4425 
Q 3525 4100 3525 3541 
Q 3525 3141 3298 2862 
Q 3072 2584 2669 2484 
Q 3125 2378 3379 2068 
Q 3634 1759 3634 1313 
Q 3634 634 3220 271 
Q 2806 -91 2034 -91 
Q 1263 -91 848 271 
Q 434 634 434 1313 
Q 434 1759 690 2068 
Q 947 2378 1403 2484 
z
M 1172 3481 
Q 1172 3119 1398 2916 
Q 1625 2713 2034 2713 
Q 2441 2713 2670 2916 
Q 2900 3119 2900 3481 
Q 2900 3844 2670 4047 
Q 2441 4250 2034 4250 
Q 1625 4250 1398 4047 
Q 1172 3844 1172 3481 
z
" transform="scale(0.015625)"/>
       </defs>
       <use xlink:href="#DejaVuSans-30"/>
       <use xlink:href="#DejaVuSans-2e" x="63.623047"/>
       <use xlink:href="#DejaVuSans-38" x="95.410156"/>
      </g>
     </g>
    </g>
    <g id="ytick_6">
     <g id="line2d_31">
      <path d="M 57.6 6.912 
L 360.8064 6.912 
" clip-path="url(#p66b2377342)" style="fill: none; stroke: #b0b0b0; stroke-width: 0.8; stroke-linecap: square"/>
     </g>
     <g id="line2d_32">
      <g>
       <use xlink:href="#m12edc86ac9" x="57.6" y="6.912" style="stroke: #000000; stroke-width: 0.8"/>
      </g>
     </g>
     <g id="text_11">
      <!-- 1.0 -->
      <g transform="translate(25.155 12.99075)scale(0.16 -0.16)">
       <use xlink:href="#DejaVuSans-31"/>
       <use xlink:href="#DejaVuSans-2e" x="63.623047"/>
       <use xlink:href="#DejaVuSans-30" x="95.410156"/>
      </g>
     </g>
    </g>
    <g id="text_12">
     <!-- Fraction of function,target pairs -->
     <g transform="translate(17.619531 287.313)rotate(-90)scale(0.17 -0.17)">
      <defs>
       <path id="DejaVuSans-46" d="M 628 4666 
L 3309 4666 
L 3309 4134 
L 1259 4134 
L 1259 2759 
L 3109 2759 
L 3109 2228 
L 1259 2228 
L 1259 0 
L 628 0 
L 628 4666 
z
" transform="scale(0.015625)"/>
       <path id="DejaVuSans-72" d="M 2631 2963 
Q 2534 3019 2420 3045 
Q 2306 3072 2169 3072 
Q 1681 3072 1420 2755 
Q 1159 2438 1159 1844 
L 1159 0 
L 581 0 
L 581 3500 
L 1159 3500 
L 1159 2956 
Q 1341 3275 1631 3429 
Q 1922 3584 2338 3584 
Q 2397 3584 2469 3576 
Q 2541 3569 2628 3553 
L 2631 2963 
z
" transform="scale(0.015625)"/>
       <path id="DejaVuSans-63" d="M 3122 3366 
L 3122 2828 
Q 2878 2963 2633 3030 
Q 2388 3097 2138 3097 
Q 1578 3097 1268 2742 
Q 959 2388 959 1747 
Q 959 1106 1268 751 
Q 1578 397 2138 397 
Q 2388 397 2633 464 
Q 2878 531 3122 666 
L 3122 134 
Q 2881 22 2623 -34 
Q 2366 -91 2075 -91 
Q 1284 -91 818 406 
Q 353 903 353 1747 
Q 353 2603 823 3093 
Q 1294 3584 2113 3584 
Q 2378 3584 2631 3529 
Q 2884 3475 3122 3366 
z
" transform="scale(0.015625)"/>
       <path id="DejaVuSans-74" d="M 1172 4494 
L 1172 3500 
L 2356 3500 
L 2356 3053 
L 1172 3053 
L 1172 1153 
Q 1172 725 1289 603 
Q 1406 481 1766 481 
L 2356 481 
L 2356 0 
L 1766 0 
Q 1100 0 847 248 
Q 594 497 594 1153 
L 594 3053 
L 172 3053 
L 172 3500 
L 594 3500 
L 594 4494 
L 1172 4494 
z
" transform="scale(0.015625)"/>
       <path id="DejaVuSans-75" d="M 544 1381 
L 544 3500 
L 1119 3500 
L 1119 1403 
Q 1119 906 1312 657 
Q 1506 409 1894 409 
Q 2359 409 2629 706 
Q 2900 1003 2900 1516 
L 2900 3500 
L 3475 3500 
L 3475 0 
L 2900 0 
L 2900 538 
Q 2691 219 2414 64 
Q 2138 -91 1772 -91 
Q 1169 -91 856 284 
Q 544 659 544 1381 
z
M 1991 3584 
L 1991 3584 
z
" transform="scale(0.015625)"/>
       <path id="DejaVuSans-2c" d="M 750 794 
L 1409 794 
L 1409 256 
L 897 -744 
L 494 -744 
L 750 256 
L 750 794 
z
" transform="scale(0.015625)"/>
       <path id="DejaVuSans-70" d="M 1159 525 
L 1159 -1331 
L 581 -1331 
L 581 3500 
L 1159 3500 
L 1159 2969 
Q 1341 3281 1617 3432 
Q 1894 3584 2278 3584 
Q 2916 3584 3314 3078 
Q 3713 2572 3713 1747 
Q 3713 922 3314 415 
Q 2916 -91 2278 -91 
Q 1894 -91 1617 61 
Q 1341 213 1159 525 
z
M 3116 1747 
Q 3116 2381 2855 2742 
Q 2594 3103 2138 3103 
Q 1681 3103 1420 2742 
Q 1159 2381 1159 1747 
Q 1159 1113 1420 752 
Q 1681 391 2138 391 
Q 2594 391 2855 752 
Q 3116 1113 3116 1747 
z
" transform="scale(0.015625)"/>
      </defs>
      <use xlink:href="#DejaVuSans-46"/>
      <use xlink:href="#DejaVuSans-72" x="50.269531"/>
      <use xlink:href="#DejaVuSans-61" x="91.382812"/>
      <use xlink:href="#DejaVuSans-63" x="152.662109"/>
      <use xlink:href="#DejaVuSans-74" x="207.642578"/>
      <use xlink:href="#DejaVuSans-69" x="246.851562"/>
      <use xlink:href="#DejaVuSans-6f" x="274.634766"/>
      <use xlink:href="#DejaVuSans-6e" x="335.816406"/>
      <use xlink:href="#DejaVuSans-20" x="399.195312"/>
      <use xlink:href="#DejaVuSans-6f" x="430.982422"/>
      <use xlink:href="#DejaVuSans-66" x="492.164062"/>
      <use xlink:href="#DejaVuSans-20" x="527.369141"/>
      <use xlink:href="#DejaVuSans-66" x="559.15625"/>
      <use xlink:href="#DejaVuSans-75" x="594.361328"/>
      <use xlink:href="#DejaVuSans-6e" x="657.740234"/>
      <use xlink:href="#DejaVuSans-63" x="721.119141"/>
      <use xlink:href="#DejaVuSans-74" x="776.099609"/>
      <use xlink:href="#DejaVuSans-69" x="815.308594"/>
      <use xlink:href="#DejaVuSans-6f" x="843.091797"/>
      <use xlink:href="#DejaVuSans-6e" x="904.273438"/>
      <use xlink:href="#DejaVuSans-2c" x="967.652344"/>
      <use xlink:href="#DejaVuSans-74" x="999.439453"/>
      <use xlink:href="#DejaVuSans-61" x="1038.648438"/>
      <use xlink:href="#DejaVuSans-72" x="1099.927734"/>
      <use xlink:href="#DejaVuSans-67" x="1139.291016"/>
      <use xlink:href="#DejaVuSans-65" x="1202.767578"/>
      <use xlink:href="#DejaVuSans-74" x="1264.291016"/>
      <use xlink:href="#DejaVuSans-20" x="1303.5"/>
      <use xlink:href="#DejaVuSans-70" x="1335.287109"/>
      <use xlink:href="#DejaVuSans-61" x="1398.763672"/>
      <use xlink:href="#DejaVuSans-69" x="1460.042969"/>
      <use xlink:href="#DejaVuSans-72" x="1487.826172"/>
      <use xlink:href="#DejaVuSans-73" x="1528.939453"/>
     </g>
    </g>
   </g>
   <g id="line2d_33">
    <defs>
     <path id="m7af6ca9463" d="M 0 1.5 
C 0.397805 1.5 0.77937 1.341951 1.06066 1.06066 
C 1.341951 0.77937 1.5 0.397805 1.5 0 
C 1.5 -0.397805 1.341951 -0.77937 1.06066 -1.06066 
C 0.77937 -1.341951 0.397805 -1.5 0 -1.5 
C -0.397805 -1.5 -0.77937 -1.341951 -1.06066 -1.06066 
C -1.341951 -0.77937 -1.5 -0.397805 -1.5 0 
C -1.5 0.397805 -1.341951 0.77937 -1.06066 1.06066 
C -0.77937 1.341951 -0.397805 1.5 0 1.5 
z
" style="stroke: #f5deb3"/>
    </defs>
    <g>
     <use xlink:href="#m7af6ca9463" x="256.402249" y="42.157241" style="fill: #f5deb3; stroke: #f5deb3"/>
     <use xlink:href="#m7af6ca9463" x="256.402249" y="42.157241" style="fill: #f5deb3; stroke: #f5deb3"/>
    </g>
   </g>
   <g id="line2d_34">
    <defs>
     <path id="ma26aca6e9d" d="M 0 1.5 
C 0.397805 1.5 0.77937 1.341951 1.06066 1.06066 
C 1.341951 0.77937 1.5 0.397805 1.5 0 
C 1.5 -0.397805 1.341951 -0.77937 1.06066 -1.06066 
C 0.77937 -1.341951 0.397805 -1.5 0 -1.5 
C -0.397805 -1.5 -0.77937 -1.341951 -1.06066 -1.06066 
C -1.341951 -0.77937 -1.5 -0.397805 -1.5 0 
C -1.5 0.397805 -1.341951 0.77937 -1.06066 1.06066 
C -0.77937 1.341951 -0.397805 1.5 0 1.5 
z
" style="stroke: #000080"/>
    </defs>
    <g>
     <use xlink:href="#ma26aca6e9d" x="83.678349" y="278.174483" style="fill: #000080; stroke: #000080"/>
     <use xlink:href="#ma26aca6e9d" x="83.678349" y="278.174483" style="fill: #000080; stroke: #000080"/>
    </g>
   </g>
   <g id="line2d_35">
    <path d="M 44.560826 298.944 
L 44.560826 294.034841 
L 57.6 294.034841 
L 57.6 292.020828 
L 65.227428 292.020828 
L 65.227428 287.489297 
L 70.639174 287.489297 
L 70.639174 286.608166 
L 74.836851 286.608166 
L 74.836851 285.727034 
L 78.266603 285.727034 
L 78.266603 281.950759 
L 81.166416 281.950759 
L 81.166416 281.699007 
L 83.678349 281.699007 
L 83.678349 278.174483 
L 360.8064 278.174483 
" style="fill: none; stroke: #000080; stroke-width: 1.5; stroke-linecap: square"/>
   </g>
   <g id="line2d_36">
    <defs>
     <path id="m3fccb17375" d="M 0 6 
C 1.591219 6 3.117479 5.367802 4.242641 4.242641 
C 5.367802 3.117479 6 1.591219 6 0 
C 6 -1.591219 5.367802 -3.117479 4.242641 -4.242641 
C 3.117479 -5.367802 1.591219 -6 0 -6 
C -1.591219 -6 -3.117479 -5.367802 -4.242641 -4.242641 
C -5.367802 -3.117479 -6 -1.591219 -6 0 
C -6 1.591219 -5.367802 3.117479 -4.242641 4.242641 
C -3.117479 5.367802 -1.591219 6 0 6 
z
" style="stroke: #000080; stroke-width: 1.5"/>
    </defs>
    <g>
     <use xlink:href="#m3fccb17375" x="83.678349" y="281.699007" style="fill-opacity: 0; stroke: #000080; stroke-width: 1.5"/>
     <use xlink:href="#m3fccb17375" x="83.678349" y="281.699007" style="fill-opacity: 0; stroke: #000080; stroke-width: 1.5"/>
     <use xlink:href="#m3fccb17375" x="83.678349" y="278.174483" style="fill-opacity: 0; stroke: #000080; stroke-width: 1.5"/>
     <use xlink:href="#m3fccb17375" x="83.678349" y="278.174483" style="fill-opacity: 0; stroke: #000080; stroke-width: 1.5"/>
     <use xlink:href="#m3fccb17375" x="83.678349" y="278.174483" style="fill-opacity: 0; stroke: #000080; stroke-width: 1.5"/>
     <use xlink:href="#m3fccb17375" x="360.8064" y="278.174483" style="fill-opacity: 0; stroke: #000080; stroke-width: 1.5"/>
    </g>
   </g>
   <g id="line2d_37">
    <path style="fill: none; stroke: #000080; stroke-width: 1.5; stroke-linecap: square"/>
    <g/>
   </g>
   <g id="line2d_38">
    <path d="M 83.678349 278.174483 
" clip-path="url(#p66b2377342)" style="fill: none; stroke: #000080; stroke-width: 1.5; stroke-linecap: square"/>
    <defs>
     <path id="m22652f5dbe" d="M -12 12 
L 12 -12 
M -12 -12 
L 12 12 
" style="stroke: #000080"/>
    </defs>
    <g clip-path="url(#p66b2377342)">
     <use xlink:href="#m22652f5dbe" x="83.678349" y="278.174483" style="fill: #000080; stroke: #000080"/>
    </g>
   </g>
   <g id="line2d_39">
    <defs>
     <path id="mce88503124" d="M 0 1.5 
C 0.397805 1.5 0.77937 1.341951 1.06066 1.06066 
C 1.341951 0.77937 1.5 0.397805 1.5 0 
C 1.5 -0.397805 1.341951 -0.77937 1.06066 -1.06066 
C 0.77937 -1.341951 0.397805 -1.5 0 -1.5 
C -0.397805 -1.5 -0.77937 -1.341951 -1.06066 -1.06066 
C -1.341951 -0.77937 -1.5 -0.397805 -1.5 0 
C -1.5 0.397805 -1.341951 0.77937 -1.06066 1.06066 
C -0.77937 1.341951 -0.397805 1.5 0 1.5 
z
" style="stroke: #ff00ff"/>
    </defs>
    <g>
     <use xlink:href="#mce88503124" x="273.523821" y="77.905986" style="fill: #ff00ff; stroke: #ff00ff"/>
     <use xlink:href="#mce88503124" x="273.523821" y="77.905986" style="fill: #ff00ff; stroke: #ff00ff"/>
    </g>
   </g>
   <g id="line2d_40">
    <path d="M 44.560826 298.944 
L 44.560826 294.034841 
L 57.6 294.034841 
L 57.6 290.887945 
L 65.227428 290.887945 
L 65.227428 287.489297 
L 70.639174 287.489297 
L 70.639174 286.356414 
L 74.836851 286.356414 
L 74.836851 284.3424 
L 78.266603 284.3424 
L 78.266603 280.943752 
L 81.166416 280.943752 
L 81.166416 280.440248 
L 83.678349 280.440248 
L 83.678349 279.810869 
L 87.876026 279.810869 
L 87.876026 279.307366 
L 89.668958 279.307366 
L 89.668958 278.803862 
L 91.305777 278.803862 
L 91.305777 277.167476 
L 92.811505 277.167476 
L 92.811505 276.915724 
L 95.503454 276.915724 
L 95.503454 276.286345 
L 96.717523 276.286345 
L 96.717523 276.034593 
L 97.857967 276.034593 
L 97.857967 275.53109 
L 98.933205 275.53109 
L 98.933205 274.524083 
L 99.950294 274.524083 
L 99.950294 274.146455 
L 100.9152 274.146455 
L 100.9152 274.020579 
L 101.833019 274.020579 
L 101.833019 273.642952 
L 102.708132 273.642952 
L 102.708132 272.006566 
L 103.544339 272.006566 
L 103.544339 271.503062 
L 104.344952 271.503062 
L 104.344952 270.999559 
L 105.112877 270.999559 
L 105.112877 270.621931 
L 105.850679 270.621931 
L 105.850679 269.489048 
L 106.560633 269.489048 
L 106.560633 267.852662 
L 107.244765 267.852662 
L 107.244765 267.726786 
L 107.904887 267.726786 
L 107.904887 267.349159 
L 108.542628 267.349159 
L 108.542628 266.845655 
L 109.159456 266.845655 
L 109.159456 264.831641 
L 109.756698 264.831641 
L 109.756698 263.195255 
L 110.335561 263.195255 
L 110.335561 263.069379 
L 110.897141 263.069379 
L 110.897141 262.943503 
L 111.442442 262.943503 
L 111.442442 261.055366 
L 111.97238 261.055366 
L 111.97238 260.92949 
L 112.487797 260.92949 
L 112.487797 260.803614 
L 112.989468 260.803614 
L 112.989468 260.425986 
L 114.418881 260.425986 
L 114.418881 260.174234 
L 114.872193 260.174234 
L 114.872193 259.922483 
L 115.747307 259.922483 
L 115.747307 259.544855 
L 116.988079 259.544855 
L 116.988079 258.034345 
L 117.772007 258.034345 
L 117.772007 257.908469 
L 118.152051 257.908469 
L 118.152051 257.153214 
L 118.524569 257.153214 
L 118.524569 256.901462 
L 119.599808 256.901462 
L 119.599808 256.523834 
L 119.944983 256.523834 
L 119.944983 255.768579 
L 120.28394 255.768579 
L 120.28394 255.1392 
L 120.616896 255.1392 
L 120.616896 255.013324 
L 121.265635 255.013324 
L 121.265635 254.635697 
L 121.581803 254.635697 
L 121.581803 254.383945 
L 122.19863 254.383945 
L 122.19863 254.258069 
L 123.374735 254.258069 
L 123.374735 254.132193 
L 123.657621 254.132193 
L 123.657621 253.502814 
L 123.936316 253.502814 
L 123.936316 253.125186 
L 124.210942 253.125186 
L 124.210942 252.747559 
L 124.748451 252.747559 
L 124.748451 252.621683 
L 125.011554 252.621683 
L 125.011554 252.244055 
L 125.271028 252.244055 
L 125.271028 251.740552 
L 125.526971 251.740552 
L 125.526971 251.237048 
L 125.779479 251.237048 
L 125.779479 250.355917 
L 126.028642 250.355917 
L 126.028642 250.230041 
L 126.756923 250.230041 
L 126.756923 249.97829 
L 126.993549 249.97829 
L 126.993549 249.474786 
L 127.227236 249.474786 
L 127.227236 249.223034 
L 127.911368 249.223034 
L 127.911368 249.097159 
L 128.354013 249.097159 
L 128.354013 248.971283 
L 128.786481 248.971283 
L 128.786481 248.845407 
L 129.417095 248.845407 
L 129.417095 248.467779 
L 129.826058 248.467779 
L 129.826058 247.964276 
L 130.027253 247.964276 
L 130.027253 247.460772 
L 130.226319 247.460772 
L 130.226319 247.209021 
L 130.618241 247.209021 
L 130.618241 246.957269 
L 130.811181 246.957269 
L 130.811181 246.831393 
L 131.002163 246.831393 
L 131.002163 246.705517 
L 131.191226 246.705517 
L 131.191226 246.453766 
L 131.378407 246.453766 
L 131.378407 246.32789 
L 131.747272 246.32789 
L 131.747272 246.202014 
L 131.929028 246.202014 
L 131.929028 245.69851 
L 132.109044 245.69851 
L 132.109044 245.195007 
L 132.287354 245.195007 
L 132.287354 245.069131 
L 132.46399 245.069131 
L 132.46399 244.691503 
L 132.638982 244.691503 
L 132.638982 244.188 
L 133.323114 244.188 
L 133.323114 244.062124 
L 133.490329 244.062124 
L 133.490329 243.810372 
L 133.656071 243.810372 
L 133.656071 243.684497 
L 133.820365 243.684497 
L 133.820365 243.558621 
L 133.983236 243.558621 
L 133.983236 243.180993 
L 134.463557 243.180993 
L 134.463557 243.055117 
L 134.620977 243.055117 
L 134.620977 242.929241 
L 134.77709 242.929241 
L 134.77709 242.803366 
L 134.931919 242.803366 
L 134.931919 241.544607 
L 135.085483 241.544607 
L 135.085483 241.418731 
L 135.237805 241.418731 
L 135.237805 241.166979 
L 135.388902 241.166979 
L 135.388902 240.789352 
L 135.835047 240.789352 
L 135.835047 239.656469 
L 135.981441 239.656469 
L 135.981441 239.530593 
L 136.126705 239.530593 
L 136.126705 239.152966 
L 136.555884 239.152966 
L 136.555884 238.39771 
L 136.836659 238.39771 
L 136.836659 238.020083 
L 136.97549 238.020083 
L 136.97549 237.264828 
L 137.113304 237.264828 
L 137.113304 237.138952 
L 137.38594 237.138952 
L 137.38594 236.761324 
L 137.520791 236.761324 
L 137.520791 236.635448 
L 137.654681 236.635448 
L 137.654681 236.383697 
L 137.787626 236.383697 
L 137.787626 236.131945 
L 138.438609 236.131945 
L 138.438609 236.006069 
L 138.692823 236.006069 
L 138.692823 235.628441 
L 138.818654 235.628441 
L 138.818654 235.250814 
L 139.067817 235.250814 
L 139.067817 234.999062 
L 139.191172 234.999062 
L 139.191172 234.369683 
L 139.313723 234.369683 
L 139.313723 234.243807 
L 139.556456 234.243807 
L 139.556456 233.992055 
L 139.676658 233.992055 
L 139.676658 233.740303 
L 139.796097 233.740303 
L 139.796097 233.488552 
L 139.914782 233.488552 
L 139.914782 233.362676 
L 140.14993 233.362676 
L 140.14993 233.110924 
L 140.26641 233.110924 
L 140.26641 232.859172 
L 140.382174 232.859172 
L 140.382174 232.607421 
L 140.49723 232.607421 
L 140.49723 232.355669 
L 140.611586 232.355669 
L 140.611586 232.229793 
L 140.838234 232.229793 
L 140.838234 231.72629 
L 140.950542 231.72629 
L 140.950542 231.600414 
L 141.173167 231.600414 
L 141.283499 230.845159 
L 141.393187 230.845159 
L 141.50224 230.215779 
L 141.718467 230.215779 
L 141.718467 229.712276 
L 141.932237 229.712276 
L 141.932237 229.334648 
L 142.143605 229.334648 
L 142.248405 229.082897 
L 142.45627 229.082897 
L 142.559347 228.327641 
L 142.661862 228.327641 
L 142.661862 227.950014 
L 142.865233 227.950014 
L 142.966099 227.572386 
L 143.166224 227.572386 
L 143.265494 226.943007 
L 143.462475 226.943007 
L 143.560197 226.313628 
L 143.657415 226.313628 
L 143.754133 226.061876 
L 143.946089 226.061876 
L 144.041338 225.432497 
L 144.136106 225.432497 
L 144.136106 225.054869 
L 144.786447 225.054869 
L 144.877544 224.551366 
L 144.968202 224.551366 
L 145.058426 222.159724 
L 145.415054 222.159724 
L 145.415054 222.033848 
L 145.590864 222.033848 
L 145.590864 221.907972 
L 145.765046 221.907972 
L 145.765046 221.782097 
L 145.93763 221.782097 
L 145.93763 221.530345 
L 146.193574 221.530345 
L 146.27812 221.278593 
L 146.695245 221.278593 
L 146.777571 220.77509 
L 147.103321 220.77509 
L 147.103321 220.523338 
L 147.660152 220.523338 
L 147.73837 219.768083 
L 147.816265 219.768083 
L 147.816265 219.390455 
L 148.048032 219.390455 
L 148.048032 218.6352 
L 148.276979 218.6352 
L 148.276979 218.509324 
L 148.428077 218.509324 
L 148.428077 218.383448 
L 148.57797 218.383448 
L 148.57797 218.257572 
L 148.800595 218.257572 
L 148.800595 218.131697 
L 149.453084 218.131697 
L 149.453084 218.005821 
L 149.73597 218.005821 
L 149.73597 217.754069 
L 150.152479 217.754069 
L 150.152479 217.502317 
L 150.492661 217.502317 
L 150.559965 217.250566 
L 150.693856 217.250566 
L 150.693856 216.872938 
L 151.220087 216.872938 
L 151.220087 216.117683 
L 151.668766 216.117683 
L 151.668766 215.865931 
L 151.795018 215.865931 
L 151.795018 215.614179 
L 152.106991 215.614179 
L 152.106991 215.488303 
L 152.230346 215.488303 
L 152.230346 215.236552 
L 152.474656 215.236552 
L 152.474656 214.9848 
L 152.655828 214.9848 
L 152.655828 214.733048 
L 152.894708 214.733048 
L 152.894708 214.607172 
L 153.247435 214.607172 
L 153.247435 214.355421 
L 153.593669 214.355421 
L 153.593669 213.726041 
L 153.764426 213.726041 
L 153.764426 213.600166 
L 153.989717 213.600166 
L 153.989717 213.348414 
L 154.212341 213.348414 
L 154.267588 213.096662 
L 154.86483 213.096662 
L 154.86483 212.467283 
L 155.13016 212.467283 
L 155.13016 212.341407 
L 155.904407 212.341407 
L 155.904407 212.089655 
L 156.696589 212.089655 
L 156.696589 211.837903 
L 157.175281 211.837903 
L 157.175281 211.712028 
L 157.642093 211.712028 
L 157.734081 211.3344 
L 158.007377 211.3344 
L 158.052543 210.830897 
L 158.365703 210.830897 
L 158.454228 210.327393 
L 158.542339 210.327393 
L 158.542339 210.201517 
L 159.105212 210.201517 
L 159.105212 209.82389 
L 159.317295 209.82389 
L 159.317295 209.698014 
L 159.939564 209.698014 
L 159.939564 209.446262 
L 160.263211 209.446262 
L 160.263211 209.19451 
L 160.660094 209.19451 
L 160.699326 208.691007 
L 160.894266 208.691007 
L 160.894266 208.187503 
L 161.163832 208.187503 
L 161.163832 207.935752 
L 161.316153 207.935752 
L 161.316153 207.684 
L 162.023298 207.684 
L 162.023298 207.432248 
L 162.704821 207.432248 
L 162.775144 206.802869 
L 163.088387 206.802869 
L 163.122872 206.425241 
L 163.294355 206.425241 
L 163.294355 206.17349 
L 163.464289 206.17349 
L 163.464289 205.921738 
L 164.161708 205.921738 
L 164.161708 205.795862 
L 164.356312 205.795862 
L 164.420735 205.040607 
L 164.484939 205.040607 
L 164.484939 204.788855 
L 164.739583 204.788855 
L 164.739583 204.662979 
L 165.053116 204.662979 
L 165.053116 204.411228 
L 165.17708 204.411228 
L 165.17708 204.159476 
L 165.330896 204.159476 
L 165.330896 203.907724 
L 165.993131 203.907724 
L 165.993131 203.781848 
L 166.140442 203.781848 
L 166.140442 203.655972 
L 166.373767 203.655972 
L 166.40273 203.152469 
L 167.112684 203.152469 
L 167.112684 203.026593 
L 167.553385 203.026593 
L 167.553385 202.774841 
L 167.742992 202.774841 
L 167.742992 202.52309 
L 168.090128 202.52309 
L 168.142969 202.145462 
L 168.560441 202.145462 
L 168.663377 201.89371 
L 168.740211 201.89371 
L 168.740211 201.641959 
L 168.994082 201.641959 
L 168.994082 201.516083 
L 169.219673 201.516083 
L 169.219673 201.138455 
L 169.368578 201.138455 
L 169.368578 201.012579 
L 169.491772 201.012579 
L 169.491772 200.509076 
L 169.638546 200.509076 
L 169.638546 200.3832 
L 169.880655 200.3832 
L 169.904695 200.005572 
L 170.190808 200.005572 
L 170.261661 199.753821 
L 170.355719 199.753821 
L 170.425955 197.991559 
L 170.635104 197.991559 
L 170.6582 197.613931 
L 170.773255 197.613931 
L 170.773255 197.362179 
L 170.978599 197.362179 
L 171.001277 196.984552 
L 171.20416 196.984552 
L 171.226568 196.7328 
L 171.669213 196.7328 
L 171.669213 196.355172 
L 171.800001 196.355172 
L 171.800001 196.229297 
L 172.058879 196.229297 
L 172.058879 195.977545 
L 172.335368 195.977545 
L 172.440637 194.59291 
L 172.524431 194.59291 
L 172.524431 194.215283 
L 172.896949 194.215283 
L 172.896949 193.963531 
L 173.161475 193.963531 
L 173.201843 193.585903 
L 173.718895 193.585903 
L 173.718895 193.460028 
L 174.030158 193.460028 
L 174.068707 192.956524 
L 174.260272 192.956524 
L 174.298352 192.201269 
L 174.412132 192.201269 
L 174.506426 191.949517 
L 174.600249 191.949517 
L 174.600249 191.697766 
L 174.805028 191.697766 
L 174.915793 191.194262 
L 175.007602 191.194262 
L 175.080727 190.816634 
L 175.262307 190.816634 
L 175.262307 190.690759 
L 175.460042 190.690759 
L 175.460042 190.439007 
L 175.761601 190.439007 
L 175.849382 189.935503 
L 176.006364 189.935503 
L 176.110296 189.683752 
L 176.418689 189.683752 
L 176.418689 189.432 
L 176.554146 189.432 
L 176.638314 188.928497 
L 176.705378 188.928497 
L 176.738821 188.424993 
L 177.02071 188.424993 
L 177.10282 187.543862 
L 177.200883 187.543862 
L 177.233457 187.166234 
L 177.347024 187.166234 
L 177.443825 186.285103 
L 177.475981 186.285103 
L 177.475981 186.159228 
L 177.683669 186.159228 
L 177.683669 186.033352 
L 177.826122 186.033352 
L 177.889089 184.396966 
L 178.014396 184.396966 
L 178.076737 184.019338 
L 178.231693 184.019338 
L 178.308695 183.389959 
L 178.568169 183.389959 
L 178.628705 183.138207 
L 178.764203 183.138207 
L 178.824112 182.508828 
L 178.898732 182.508828 
L 178.898732 182.382952 
L 179.120831 182.382952 
L 179.223586 181.753572 
L 179.23822 181.753572 
L 179.340338 181.375945 
L 179.354881 181.375945 
L 179.456369 180.872441 
L 179.470823 180.872441 
L 179.485266 180.62069 
L 179.828604 180.62069 
L 179.913468 180.117186 
L 180.082057 180.117186 
L 180.096038 178.606676 
L 180.249148 178.606676 
L 180.249148 178.4808 
L 180.3735 178.4808 
L 180.469652 176.97029 
L 180.524377 176.97029 
L 180.524377 176.844414 
L 180.728188 176.844414 
L 180.768686 176.592662 
L 180.862845 176.592662 
L 180.943179 175.963283 
L 181.195331 175.963283 
L 181.195331 175.459779 
L 181.313602 175.459779 
L 181.35286 175.082152 
L 181.483135 175.082152 
L 181.509082 174.578648 
L 181.651154 174.578648 
L 181.715379 174.201021 
L 181.843176 174.201021 
L 181.843176 174.075145 
L 181.982756 174.075145 
L 181.982756 173.949269 
L 182.171439 173.949269 
L 182.233915 173.571641 
L 182.395389 173.571641 
L 182.506372 173.31989 
L 182.616704 173.31989 
L 182.714236 172.312883 
L 182.787055 172.312883 
L 182.787055 172.187007 
L 182.943869 172.187007 
L 182.943869 171.683503 
L 183.111297 171.683503 
L 183.111297 171.557628 
L 183.300836 171.557628 
L 183.371423 170.928248 
L 183.418335 170.928248 
L 183.47681 170.550621 
L 183.68583 170.550621 
L 183.789475 169.66949 
L 183.81243 169.66949 
L 183.90397 169.165986 
L 183.995068 169.165986 
L 184.063102 167.655476 
L 184.175949 167.655476 
L 184.209672 167.277848 
L 184.377384 167.277848 
L 184.45514 166.396717 
L 184.598699 166.396717 
L 184.664589 166.144966 
L 184.74117 166.144966 
L 184.806563 165.641462 
L 184.860885 165.641462 
L 184.96906 165.263834 
L 185.076616 165.263834 
L 185.098054 164.886207 
L 185.215526 164.886207 
L 185.300502 163.8792 
L 185.511278 163.8792 
L 185.511278 163.627448 
L 185.626206 163.627448 
L 185.626206 163.501572 
L 185.750786 163.501572 
L 185.823079 162.494566 
L 185.946366 162.494566 
L 185.946366 162.36869 
L 186.119652 162.36869 
L 186.150067 161.73931 
L 186.230933 161.73931 
L 186.321495 161.235807 
L 186.411622 161.235807 
L 186.521195 160.858179 
L 186.590592 160.858179 
L 186.590592 160.354676 
L 186.865648 160.354676 
L 186.962916 159.725297 
L 187.050029 159.725297 
L 187.13674 158.970041 
L 187.175151 158.970041 
L 187.223054 158.71829 
L 187.328014 158.71829 
L 187.37553 158.08891 
L 187.59257 158.08891 
L 187.59257 157.963034 
L 187.945762 157.963034 
L 188.055932 157.081903 
L 188.065084 157.081903 
L 188.065084 156.956028 
L 188.210911 156.956028 
L 188.274356 156.452524 
L 188.382625 156.452524 
L 188.445494 155.823145 
L 188.543867 155.823145 
L 188.623973 155.193766 
L 188.659467 155.193766 
L 188.659467 155.06789 
L 188.800775 155.06789 
L 188.818364 154.690262 
L 188.923555 154.690262 
L 188.923555 154.564386 
L 189.054221 154.564386 
L 189.080246 154.060883 
L 189.192606 154.060883 
L 189.261418 153.557379 
L 189.304298 153.557379 
L 189.304298 153.431503 
L 189.534178 153.431503 
L 189.627033 152.928 
L 189.694277 152.928 
L 189.702666 152.676248 
L 189.877969 152.676248 
L 189.952601 151.41749 
L 190.002193 151.41749 
L 190.043419 151.039862 
L 190.117399 151.039862 
L 190.125601 150.284607 
L 190.418521 150.284607 
L 190.523186 149.781103 
L 190.531213 149.781103 
L 190.619286 149.2776 
L 190.746661 149.2776 
L 190.746661 149.025848 
L 190.873179 149.025848 
L 190.912542 148.774097 
L 190.991021 148.774097 
L 190.991021 148.648221 
L 191.178047 148.648221 
L 191.224515 147.76709 
L 191.309408 147.76709 
L 191.409245 147.13771 
L 191.500934 147.13771 
L 191.500934 146.885959 
L 191.69053 146.885959 
L 191.780862 146.004828 
L 191.863287 146.004828 
L 191.945352 144.997821 
L 191.982536 144.997821 
L 191.982536 144.746069 
L 192.09365 144.746069 
L 192.09365 144.620193 
L 192.270079 144.620193 
L 192.277394 144.242566 
L 192.423108 144.242566 
L 192.481079 143.864938 
L 192.589295 143.864938 
L 192.618048 143.48731 
L 192.796765 143.48731 
L 192.903185 142.732055 
L 192.945585 142.732055 
L 192.945585 142.480303 
L 193.072216 142.480303 
L 193.121231 141.850924 
L 193.23279 141.850924 
L 193.267517 141.347421 
L 193.419559 141.347421 
L 193.419559 140.843917 
L 193.543048 140.843917 
L 193.543048 140.46629 
L 193.672525 140.46629 
L 193.767362 139.459283 
L 193.948923 139.459283 
L 193.968988 139.207531 
L 194.068997 139.207531 
L 194.168477 138.704028 
L 194.227913 138.704028 
L 194.267433 137.948772 
L 194.424688 137.948772 
L 194.528799 137.445269 
L 194.58064 137.445269 
L 194.677457 136.81589 
L 194.996629 136.81589 
L 195.103926 136.312386 
L 195.129083 136.312386 
L 195.235629 135.431255 
L 195.254369 135.431255 
L 195.254369 135.179503 
L 195.508625 135.179503 
L 195.545546 134.550124 
L 195.753411 134.550124 
L 195.856488 134.172497 
L 195.92891 134.172497 
L 196.031033 133.543117 
L 196.114719 133.543117 
L 196.114719 133.291366 
L 196.26324 133.291366 
L 196.316422 132.787862 
L 196.387098 132.787862 
L 196.48677 132.410234 
L 196.545154 132.410234 
L 196.545154 132.284359 
L 196.661383 132.284359 
L 196.759616 131.654979 
L 196.868802 131.654979 
L 196.868802 131.529103 
L 197.06829 131.529103 
L 197.164426 131.0256 
L 197.226371 131.0256 
L 197.265685 130.647972 
L 197.349653 130.647972 
L 197.427686 130.144469 
L 197.560709 130.144469 
L 197.610351 129.766841 
L 197.758496 129.766841 
L 197.829411 129.389214 
L 197.997445 129.389214 
L 198.072842 129.011586 
L 198.121152 129.011586 
L 198.228067 128.633959 
L 198.302547 128.633959 
L 198.408438 127.878703 
L 198.434818 127.878703 
L 198.455896 127.626952 
L 198.587097 127.626952 
L 198.634106 127.3752 
L 198.820977 127.3752 
L 198.918861 127.123448 
L 199.011124 127.123448 
L 199.067286 126.871697 
L 199.184176 126.871697 
L 199.249924 126.368193 
L 199.420802 126.368193 
L 199.530549 125.738814 
L 199.585183 125.738814 
L 199.585183 125.612938 
L 199.753056 125.612938 
L 199.83154 125.23531 
L 200.11333 125.23531 
L 200.20473 124.983559 
L 200.252658 124.983559 
L 200.300463 124.605931 
L 200.409958 124.605931 
L 200.409958 124.480055 
L 200.603577 124.480055 
L 200.603577 124.228303 
L 200.753321 124.228303 
L 200.753321 124.102428 
L 200.878747 124.102428 
L 200.901883 123.7248 
L 201.06304 123.7248 
L 201.104259 123.347172 
L 201.336138 123.347172 
L 201.336138 123.221297 
L 201.516025 123.221297 
L 201.614235 122.843669 
L 201.667588 122.843669 
L 201.751756 122.466041 
L 201.787083 122.466041 
L 201.83555 121.836662 
L 202.309177 121.836662 
L 202.403342 121.58491 
L 202.552185 121.58491 
L 202.607171 121.207283 
L 202.687247 121.207283 
L 202.687247 120.955531 
L 202.966931 120.955531 
L 203.033111 120.577903 
L 203.586432 120.577903 
L 203.646475 120.326152 
L 203.896585 120.326152 
L 203.920232 119.948524 
L 204.053676 119.948524 
L 204.120044 119.319145 
L 204.224974 119.319145 
L 204.224974 119.193269 
L 204.390886 119.193269 
L 204.390886 119.067393 
L 204.505778 119.067393 
L 204.540109 118.815641 
L 204.669242 118.815641 
L 204.74479 118.56389 
L 204.868786 118.56389 
L 204.868786 118.312138 
L 205.261634 118.312138 
L 205.327537 117.808634 
L 205.685932 117.808634 
L 205.685932 117.556883 
L 206.202318 117.556883 
L 206.202318 117.431007 
L 206.355202 117.431007 
L 206.396683 117.053379 
L 206.561697 117.053379 
L 206.561697 116.801628 
L 206.860515 116.801628 
L 206.91098 116.424 
L 206.991443 116.424 
L 206.991443 116.172248 
L 207.151344 116.172248 
L 207.220875 115.542869 
L 207.655372 115.542869 
L 207.655372 115.416993 
L 207.793728 115.416993 
L 207.793728 115.165241 
L 207.966049 115.165241 
L 207.966049 114.91349 
L 208.281052 114.91349 
L 208.281052 114.787614 
L 208.560114 114.787614 
L 208.560114 114.661738 
L 208.716431 114.661738 
L 208.753024 114.409986 
L 209.058221 114.409986 
L 209.058221 114.032359 
L 209.198573 114.032359 
L 209.198573 113.780607 
L 209.364445 113.780607 
L 209.449772 113.151228 
L 209.493755 113.151228 
L 209.493755 113.025352 
L 209.703454 113.025352 
L 209.703454 112.899476 
L 210.273977 112.899476 
L 210.296442 112.521848 
L 210.450166 112.521848 
L 210.450166 112.395972 
L 210.671546 112.395972 
L 210.671546 112.270097 
L 210.86314 112.270097 
L 210.966336 111.892469 
L 211.160327 111.892469 
L 211.160327 111.640717 
L 211.407973 111.640717 
L 211.439691 111.26309 
L 211.613192 111.26309 
L 211.636728 110.759586 
L 211.805839 110.759586 
L 211.805839 110.63371 
L 212.00166 110.63371 
L 212.00166 110.507834 
L 212.248665 110.507834 
L 212.248665 110.381959 
L 212.479978 110.381959 
L 212.479978 110.256083 
L 212.619397 110.256083 
L 212.619397 110.130207 
L 212.762715 110.130207 
L 212.858473 109.752579 
L 213.377795 109.752579 
L 213.41112 109.374952 
L 213.5202 109.374952 
L 213.5202 109.249076 
L 213.65684 109.249076 
L 213.7505 108.871448 
L 213.832072 108.871448 
L 213.832072 108.619697 
L 213.9734 108.619697 
L 213.9734 108.493821 
L 214.154867 108.493821 
L 214.154867 108.242069 
L 214.463222 108.242069 
L 214.463222 108.116193 
L 215.152092 108.116193 
L 215.152092 107.864441 
L 215.595595 107.864441 
L 215.631557 107.360938 
L 215.812439 107.360938 
L 215.812439 107.235062 
L 216.803179 107.235062 
L 216.803179 106.98331 
L 217.458849 106.98331 
L 217.525852 106.605683 
L 217.647758 106.605683 
L 217.75567 105.976303 
L 217.939767 105.976303 
L 217.949111 105.724552 
L 218.120228 105.724552 
L 218.199676 105.346924 
L 218.234674 105.346924 
L 218.234674 105.221048 
L 218.600985 105.221048 
L 218.698193 104.717545 
L 218.753771 104.717545 
L 218.753771 104.465793 
L 218.997445 104.465793 
L 219.075041 104.088166 
L 219.477247 104.088166 
L 219.477247 103.836414 
L 219.664087 103.836414 
L 219.664087 103.710538 
L 219.93671 103.710538 
L 219.93671 103.584662 
L 220.208754 103.584662 
L 220.208754 103.33291 
L 220.692931 103.33291 
L 220.744536 102.829407 
L 220.990923 102.829407 
L 220.990923 102.703531 
L 221.477321 102.703531 
L 221.54535 102.325903 
L 221.636186 102.325903 
L 221.636186 102.200028 
L 222.055386 102.200028 
L 222.055386 102.074152 
L 222.610383 102.074152 
L 222.610383 101.948276 
L 222.793246 101.948276 
L 222.892637 101.444772 
L 222.909869 101.444772 
L 222.909869 101.318897 
L 223.339826 101.318897 
L 223.339826 101.193021 
L 223.514376 101.193021 
L 223.514376 100.941269 
L 223.65562 100.941269 
L 223.65562 100.815393 
L 224.021753 100.815393 
L 224.021753 100.563641 
L 224.364961 100.563641 
L 224.364961 100.31189 
L 225.09203 100.31189 
L 225.13161 99.808386 
L 225.822801 99.808386 
L 225.848602 99.556634 
L 226.131304 99.556634 
L 226.131304 99.430759 
L 226.388359 99.430759 
L 226.388359 99.304883 
L 226.73822 99.304883 
L 226.73822 99.053131 
L 226.867758 99.053131 
L 226.867758 98.927255 
L 227.279572 98.927255 
L 227.279572 98.675503 
L 227.575343 98.675503 
L 227.674766 98.423752 
L 227.77699 98.423752 
L 227.77699 98.172 
L 228.042171 98.172 
L 228.042171 98.046124 
L 228.209686 98.046124 
L 228.209686 97.794372 
L 228.32628 97.794372 
L 228.32628 97.542621 
L 228.483825 97.542621 
L 228.483825 97.290869 
L 228.754027 97.290869 
L 228.838003 96.913241 
L 229.002761 96.913241 
L 229.026625 96.66149 
L 229.150644 96.66149 
L 229.150644 96.535614 
L 229.319846 96.535614 
L 229.35758 96.03211 
L 229.5017 96.03211 
L 229.573348 95.402731 
L 229.673799 95.402731 
L 229.72882 95.025103 
L 229.786668 95.025103 
L 229.786668 94.773352 
L 229.933479 94.773352 
L 230.00252 94.395724 
L 230.20229 94.395724 
L 230.248017 93.388717 
L 230.631792 93.388717 
L 230.740019 93.01109 
L 230.743805 93.01109 
L 230.743805 92.885214 
L 230.908708 92.885214 
L 231.004161 92.38171 
L 231.150142 92.38171 
L 231.150142 92.255834 
L 231.294081 92.255834 
L 231.371132 91.752331 
L 231.501582 91.752331 
L 231.501582 91.626455 
L 232.057814 91.626455 
L 232.140595 91.122952 
L 232.772213 91.122952 
L 232.772213 90.997076 
L 232.912738 90.997076 
L 232.912738 90.8712 
L 234.413988 90.8712 
L 234.413988 90.619448 
L 234.926333 90.619448 
L 234.926333 90.493572 
L 235.663407 90.493572 
L 235.663407 90.241821 
L 236.160993 90.241821 
L 236.160993 90.115945 
L 236.396528 90.115945 
L 236.396528 89.990069 
L 236.733382 89.990069 
L 236.733382 89.864193 
L 237.304233 89.864193 
L 237.304233 89.738317 
L 237.738583 89.738317 
L 237.822574 89.36069 
L 237.908131 89.36069 
L 237.937209 88.857186 
L 238.120976 88.857186 
L 238.120976 88.73131 
L 238.315627 88.73131 
L 238.315627 88.605434 
L 238.502645 88.605434 
L 238.608238 87.976055 
L 238.68534 87.976055 
L 238.68534 87.850179 
L 238.841679 87.850179 
L 238.841679 87.724303 
L 238.99856 87.724303 
L 238.99856 87.472552 
L 239.213365 87.472552 
L 239.213365 87.2208 
L 239.761578 87.2208 
L 239.761578 87.094924 
L 240.046554 87.094924 
L 240.046554 86.969048 
L 240.193741 86.969048 
L 240.193741 86.843172 
L 240.306226 86.843172 
L 240.306226 86.591421 
L 240.644176 86.591421 
L 240.644176 86.465545 
L 241.306168 86.465545 
L 241.411139 85.71029 
L 242.178484 85.71029 
L 242.178484 85.584414 
L 242.822855 85.584414 
L 242.822855 85.458538 
L 242.956837 85.458538 
L 242.956837 85.332662 
L 243.817493 85.332662 
L 243.912668 84.955034 
L 244.103446 84.955034 
L 244.103446 84.829159 
L 244.388324 84.829159 
L 244.388324 84.703283 
L 244.637777 84.703283 
L 244.637777 84.577407 
L 245.082862 84.577407 
L 245.082862 84.451531 
L 245.256938 84.451531 
L 245.296277 84.073903 
L 245.487427 84.073903 
L 245.487427 83.822152 
L 246.108548 83.822152 
L 246.108548 83.5704 
L 246.839385 83.5704 
L 246.885989 83.066897 
L 249.134056 83.066897 
L 249.134056 82.815145 
L 249.638538 82.815145 
L 249.638538 82.689269 
L 249.80763 82.689269 
L 249.80763 82.563393 
L 251.299029 82.563393 
L 251.299029 82.311641 
L 251.920811 82.311641 
L 251.920811 82.05989 
L 252.276657 82.05989 
L 252.276657 81.934014 
L 252.563392 81.934014 
L 252.563392 81.682262 
L 253.940748 81.682262 
L 253.940748 81.43051 
L 254.295343 81.43051 
L 254.295343 81.178759 
L 255.219978 81.178759 
L 255.219978 80.927007 
L 255.731098 80.927007 
L 255.731098 80.801131 
L 256.939854 80.801131 
L 256.939854 80.549379 
L 257.119344 80.549379 
L 257.119344 80.423503 
L 257.474867 80.423503 
L 257.550362 80.171752 
L 260.613229 80.171752 
L 260.613229 79.92 
L 261.630307 79.92 
L 261.630307 79.794124 
L 262.348661 79.794124 
L 262.348661 79.542372 
L 264.856846 79.542372 
L 264.856846 79.290621 
L 266.32656 79.290621 
L 266.32656 79.038869 
L 266.673815 79.038869 
L 266.673815 78.787117 
L 269.239157 78.787117 
L 269.239157 78.535366 
L 271.919771 78.535366 
L 271.919771 78.283614 
L 272.469964 78.283614 
L 272.469964 78.031862 
L 273.523821 78.031862 
L 273.523821 77.905986 
L 360.8064 77.905986 
L 360.8064 77.905986 
" style="fill: none; stroke: #ff00ff; stroke-width: 1.5; stroke-linecap: square"/>
   </g>
   <g id="line2d_41">
    <defs>
     <path id="mfcd8407c14" d="M 0 8.485281 
L 5.091169 0 
L 0 -8.485281 
L -5.091169 0 
z
" style="stroke: #ff00ff; stroke-width: 1.5; stroke-linejoin: miter"/>
    </defs>
    <g>
     <use xlink:href="#mfcd8407c14" x="129.417095" y="248.845407" style="fill-opacity: 0; stroke: #ff00ff; stroke-width: 1.5; stroke-linejoin: miter"/>
     <use xlink:href="#mfcd8407c14" x="170.261661" y="199.753821" style="fill-opacity: 0; stroke: #ff00ff; stroke-width: 1.5; stroke-linejoin: miter"/>
     <use xlink:href="#mfcd8407c14" x="230.740019" y="93.01109" style="fill-opacity: 0; stroke: #ff00ff; stroke-width: 1.5; stroke-linejoin: miter"/>
     <use xlink:href="#mfcd8407c14" x="273.523821" y="77.905986" style="fill-opacity: 0; stroke: #ff00ff; stroke-width: 1.5; stroke-linejoin: miter"/>
     <use xlink:href="#mfcd8407c14" x="273.523821" y="77.905986" style="fill-opacity: 0; stroke: #ff00ff; stroke-width: 1.5; stroke-linejoin: miter"/>
     <use xlink:href="#mfcd8407c14" x="360.8064" y="77.905986" style="fill-opacity: 0; stroke: #ff00ff; stroke-width: 1.5; stroke-linejoin: miter"/>
    </g>
   </g>
   <g id="line2d_42">
    <path style="fill: none; stroke: #ff00ff; stroke-width: 1.5; stroke-linecap: square"/>
    <g/>
   </g>
   <g id="line2d_43">
    <path d="M 274.176094 77.905986 
" clip-path="url(#p66b2377342)" style="fill: none; stroke: #ff00ff; stroke-width: 1.5; stroke-linecap: square"/>
    <defs>
     <path id="me9d2a3c20b" d="M -12 12 
L 12 -12 
M -12 -12 
L 12 12 
" style="stroke: #ff00ff"/>
    </defs>
    <g clip-path="url(#p66b2377342)">
     <use xlink:href="#me9d2a3c20b" x="274.176094" y="77.905986" style="fill: #ff00ff; stroke: #ff00ff"/>
    </g>
   </g>
   <g id="line2d_44">
    <defs>
     <path id="mb05bc81889" d="M 0 1.5 
C 0.397805 1.5 0.77937 1.341951 1.06066 1.06066 
C 1.341951 0.77937 1.5 0.397805 1.5 0 
C 1.5 -0.397805 1.341951 -0.77937 1.06066 -1.06066 
C 0.77937 -1.341951 0.397805 -1.5 0 -1.5 
C -0.397805 -1.5 -0.77937 -1.341951 -1.06066 -1.06066 
C -1.341951 -0.77937 -1.5 -0.397805 -1.5 0 
C -1.5 0.397805 -1.341951 0.77937 -1.06066 1.06066 
C -0.77937 1.341951 -0.397805 1.5 0 1.5 
z
" style="stroke: #6495ed"/>
    </defs>
    <g>
     <use xlink:href="#mb05bc81889" x="113.954374" y="243.055117" style="fill: #6495ed; stroke: #6495ed"/>
     <use xlink:href="#mb05bc81889" x="113.954374" y="243.055117" style="fill: #6495ed; stroke: #6495ed"/>
    </g>
   </g>
   <g id="line2d_45">
    <path d="M 44.560826 298.944 
L 44.560826 296.929986 
L 57.6 296.929986 
L 57.6 295.671228 
L 65.227428 295.671228 
L 65.227428 294.286593 
L 70.639174 294.286593 
L 70.639174 292.776083 
L 74.836851 292.776083 
L 74.836851 288.999807 
L 78.266603 288.999807 
L 78.266603 288.748055 
L 81.166416 288.748055 
L 81.166416 284.3424 
L 83.678349 284.3424 
L 83.678349 279.18149 
L 85.894031 279.18149 
L 85.894031 276.915724 
L 87.876026 276.915724 
L 87.876026 276.160469 
L 89.668958 276.160469 
L 89.668958 275.405214 
L 92.811505 275.405214 
L 92.811505 275.279338 
L 94.205591 275.279338 
L 94.205591 273.265324 
L 95.503454 273.265324 
L 95.503454 271.25131 
L 96.717523 271.25131 
L 96.717523 270.370179 
L 97.857967 270.370179 
L 97.857967 269.363172 
L 98.933205 269.363172 
L 98.933205 268.607917 
L 99.950294 268.607917 
L 99.950294 268.482041 
L 100.9152 268.482041 
L 100.9152 267.726786 
L 101.833019 267.726786 
L 101.833019 266.719779 
L 102.708132 266.719779 
L 102.708132 264.705766 
L 103.544339 264.705766 
L 103.544339 262.188248 
L 104.344952 262.188248 
L 104.344952 260.551862 
L 105.112877 260.551862 
L 105.112877 257.27909 
L 105.850679 257.27909 
L 105.850679 255.894455 
L 106.560633 255.894455 
L 106.560633 254.132193 
L 107.244765 254.132193 
L 107.244765 253.251062 
L 107.904887 253.251062 
L 107.904887 251.237048 
L 108.542628 251.237048 
L 108.542628 247.586648 
L 109.159456 247.586648 
L 109.159456 246.453766 
L 109.756698 246.453766 
L 109.756698 246.202014 
L 110.335561 246.202014 
L 110.335561 245.572634 
L 110.897141 245.572634 
L 110.897141 245.069131 
L 111.442442 245.069131 
L 111.442442 244.565628 
L 111.97238 244.565628 
L 111.97238 244.313876 
L 112.487797 244.313876 
L 112.487797 243.684497 
L 112.989468 243.684497 
L 112.989468 243.306869 
L 113.478107 243.306869 
L 113.478107 243.180993 
L 113.954374 243.180993 
L 113.954374 243.055117 
L 360.8064 243.055117 
" style="fill: none; stroke: #6495ed; stroke-width: 1.5; stroke-linecap: square"/>
   </g>
   <g id="line2d_46">
    <defs>
     <path id="mc05063b5db" d="M -0 6 
L 6 -6 
L -6 -6 
z
" style="stroke: #6495ed; stroke-width: 1.5; stroke-linejoin: miter"/>
    </defs>
    <g>
     <use xlink:href="#mc05063b5db" x="103.544339" y="264.705766" style="fill-opacity: 0; stroke: #6495ed; stroke-width: 1.5; stroke-linejoin: miter"/>
     <use xlink:href="#mc05063b5db" x="113.954374" y="243.180993" style="fill-opacity: 0; stroke: #6495ed; stroke-width: 1.5; stroke-linejoin: miter"/>
     <use xlink:href="#mc05063b5db" x="113.954374" y="243.055117" style="fill-opacity: 0; stroke: #6495ed; stroke-width: 1.5; stroke-linejoin: miter"/>
     <use xlink:href="#mc05063b5db" x="113.954374" y="243.055117" style="fill-opacity: 0; stroke: #6495ed; stroke-width: 1.5; stroke-linejoin: miter"/>
     <use xlink:href="#mc05063b5db" x="113.954374" y="243.055117" style="fill-opacity: 0; stroke: #6495ed; stroke-width: 1.5; stroke-linejoin: miter"/>
     <use xlink:href="#mc05063b5db" x="360.8064" y="243.055117" style="fill-opacity: 0; stroke: #6495ed; stroke-width: 1.5; stroke-linejoin: miter"/>
    </g>
   </g>
   <g id="line2d_47">
    <path style="fill: none; stroke: #6495ed; stroke-width: 1.5; stroke-linecap: square"/>
    <g/>
   </g>
   <g id="line2d_48">
    <path d="M 113.954374 243.055117 
" clip-path="url(#p66b2377342)" style="fill: none; stroke: #6495ed; stroke-width: 1.5; stroke-linecap: square"/>
    <defs>
     <path id="m790d843a8c" d="M -12 12 
L 12 -12 
M -12 -12 
L 12 12 
" style="stroke: #6495ed"/>
    </defs>
    <g clip-path="url(#p66b2377342)">
     <use xlink:href="#m790d843a8c" x="113.954374" y="243.055117" style="fill: #6495ed; stroke: #6495ed"/>
    </g>
   </g>
   <g id="line2d_49">
    <path d="M 360.8064 278.174483 
L 380.514816 293.10336 
" style="fill: none; stroke: #000080; stroke-width: 1.5; stroke-linecap: square"/>
    <g>
     <use xlink:href="#m3fccb17375" x="360.8064" y="278.174483" style="fill-opacity: 0; stroke: #000080; stroke-width: 1.5"/>
     <use xlink:href="#m3fccb17375" x="380.514816" y="293.10336" style="fill-opacity: 0; stroke: #000080; stroke-width: 1.5"/>
    </g>
   </g>
   <g id="line2d_50">
    <path d="M 360.8064 243.055117 
L 380.514816 199.65312 
" style="fill: none; stroke: #6495ed; stroke-width: 1.5; stroke-linecap: square"/>
    <g>
     <use xlink:href="#mc05063b5db" x="360.8064" y="243.055117" style="fill-opacity: 0; stroke: #6495ed; stroke-width: 1.5; stroke-linejoin: miter"/>
     <use xlink:href="#mc05063b5db" x="380.514816" y="199.65312" style="fill-opacity: 0; stroke: #6495ed; stroke-width: 1.5; stroke-linejoin: miter"/>
    </g>
   </g>
   <g id="line2d_51">
    <path d="M 360.8064 77.905986 
L 380.514816 106.20288 
" style="fill: none; stroke: #ff00ff; stroke-width: 1.5; stroke-linecap: square"/>
    <g>
     <use xlink:href="#mfcd8407c14" x="360.8064" y="77.905986" style="fill-opacity: 0; stroke: #ff00ff; stroke-width: 1.5; stroke-linejoin: miter"/>
     <use xlink:href="#mfcd8407c14" x="380.514816" y="106.20288" style="fill-opacity: 0; stroke: #ff00ff; stroke-width: 1.5; stroke-linejoin: miter"/>
    </g>
   </g>
   <g id="line2d_52">
    <path d="M 360.8064 298.944 
L 360.8064 6.912 
" style="fill: none; stroke: #000000; stroke-width: 1.5; stroke-linecap: square"/>
   </g>
   <g id="patch_3">
    <path d="M 57.6 298.944 
L 360.8064 298.944 
" style="fill: none; stroke: #000000; stroke-width: 0.8; stroke-linejoin: miter; stroke-linecap: square"/>
   </g>
   <g id="patch_4">
    <path d="M 57.6 6.912 
L 360.8064 6.912 
" style="fill: none; stroke: #000000; stroke-width: 0.8; stroke-linejoin: miter; stroke-linecap: square"/>
   </g>
   <g id="text_13">
    <!-- cma -->
    <g transform="translate(386.578944 296.966485)scale(0.14 -0.14)">
     <use xlink:href="#DejaVuSans-63"/>
     <use xlink:href="#DejaVuSans-6d" x="54.980469"/>
     <use xlink:href="#DejaVuSans-61" x="152.392578"/>
    </g>
   </g>
   <g id="text_14">
    <!-- parEgo -->
    <g transform="translate(386.578944 203.516245)scale(0.14 -0.14)">
     <defs>
      <path id="DejaVuSans-45" d="M 628 4666 
L 3578 4666 
L 3578 4134 
L 1259 4134 
L 1259 2753 
L 3481 2753 
L 3481 2222 
L 1259 2222 
L 1259 531 
L 3634 531 
L 3634 0 
L 628 0 
L 628 4666 
z
" transform="scale(0.015625)"/>
     </defs>
     <use xlink:href="#DejaVuSans-70"/>
     <use xlink:href="#DejaVuSans-61" x="63.476562"/>
     <use xlink:href="#DejaVuSans-72" x="124.755859"/>
     <use xlink:href="#DejaVuSans-45" x="165.869141"/>
     <use xlink:href="#DejaVuSans-67" x="229.052734"/>
     <use xlink:href="#DejaVuSans-6f" x="292.529297"/>
    </g>
   </g>
   <g id="text_15">
    <!-- external- -->
    <g transform="translate(386.578944 110.066005)scale(0.14 -0.14)">
     <defs>
      <path id="DejaVuSans-78" d="M 3513 3500 
L 2247 1797 
L 3578 0 
L 2900 0 
L 1881 1375 
L 863 0 
L 184 0 
L 1544 1831 
L 300 3500 
L 978 3500 
L 1906 2253 
L 2834 3500 
L 3513 3500 
z
" transform="scale(0.015625)"/>
     </defs>
     <use xlink:href="#DejaVuSans-65"/>
     <use xlink:href="#DejaVuSans-78" x="59.773438"/>
     <use xlink:href="#DejaVuSans-74" x="118.953125"/>
     <use xlink:href="#DejaVuSans-65" x="158.162109"/>
     <use xlink:href="#DejaVuSans-72" x="219.685547"/>
     <use xlink:href="#DejaVuSans-6e" x="259.048828"/>
     <use xlink:href="#DejaVuSans-61" x="322.427734"/>
     <use xlink:href="#DejaVuSans-6c" x="383.707031"/>
     <use xlink:href="#DejaVuSans-2d" x="411.490234"/>
    </g>
   </g>
   <g id="text_16">
    <!-- best 2016 -->
    <g transform="translate(386.578944 16.615765)scale(0.14 -0.14)">
     <defs>
      <path id="DejaVuSans-62" d="M 3116 1747 
Q 3116 2381 2855 2742 
Q 2594 3103 2138 3103 
Q 1681 3103 1420 2742 
Q 1159 2381 1159 1747 
Q 1159 1113 1420 752 
Q 1681 391 2138 391 
Q 2594 391 2855 752 
Q 3116 1113 3116 1747 
z
M 1159 2969 
Q 1341 3281 1617 3432 
Q 1894 3584 2278 3584 
Q 2916 3584 3314 3078 
Q 3713 2572 3713 1747 
Q 3713 922 3314 415 
Q 2916 -91 2278 -91 
Q 1894 -91 1617 61 
Q 1341 213 1159 525 
L 1159 0 
L 581 0 
L 581 4863 
L 1159 4863 
L 1159 2969 
z
" transform="scale(0.015625)"/>
     </defs>
     <use xlink:href="#DejaVuSans-62"/>
     <use xlink:href="#DejaVuSans-65" x="63.476562"/>
     <use xlink:href="#DejaVuSans-73" x="125"/>
     <use xlink:href="#DejaVuSans-74" x="177.099609"/>
     <use xlink:href="#DejaVuSans-20" x="216.308594"/>
     <use xlink:href="#DejaVuSans-32" x="248.095703"/>
     <use xlink:href="#DejaVuSans-30" x="311.71875"/>
     <use xlink:href="#DejaVuSans-31" x="375.341797"/>
     <use xlink:href="#DejaVuSans-36" x="438.964844"/>
    </g>
   </g>
   <g id="text_17">
    <!-- bbob-biobj f26, f27, f33, f34, 2-D -->
    <g transform="translate(60.632064 17.582726)scale(0.102 -0.102)">
     <defs>
      <path id="DejaVuSans-6a" d="M 603 3500 
L 1178 3500 
L 1178 -63 
Q 1178 -731 923 -1031 
Q 669 -1331 103 -1331 
L -116 -1331 
L -116 -844 
L 38 -844 
Q 366 -844 484 -692 
Q 603 -541 603 -63 
L 603 3500 
z
M 603 4863 
L 1178 4863 
L 1178 4134 
L 603 4134 
L 603 4863 
z
" transform="scale(0.015625)"/>
      <path id="DejaVuSans-37" d="M 525 4666 
L 3525 4666 
L 3525 4397 
L 1831 0 
L 1172 0 
L 2766 4134 
L 525 4134 
L 525 4666 
z
" transform="scale(0.015625)"/>
      <path id="DejaVuSans-33" d="M 2597 2516 
Q 3050 2419 3304 2112 
Q 3559 1806 3559 1356 
Q 3559 666 3084 287 
Q 2609 -91 1734 -91 
Q 1441 -91 1130 -33 
Q 819 25 488 141 
L 488 750 
Q 750 597 1062 519 
Q 1375 441 1716 441 
Q 2309 441 2620 675 
Q 2931 909 2931 1356 
Q 2931 1769 2642 2001 
Q 2353 2234 1838 2234 
L 1294 2234 
L 1294 2753 
L 1863 2753 
Q 2328 2753 2575 2939 
Q 2822 3125 2822 3475 
Q 2822 3834 2567 4026 
Q 2313 4219 1838 4219 
Q 1578 4219 1281 4162 
Q 984 4106 628 3988 
L 628 4550 
Q 988 4650 1302 4700 
Q 1616 4750 1894 4750 
Q 2613 4750 3031 4423 
Q 3450 4097 3450 3541 
Q 3450 3153 3228 2886 
Q 3006 2619 2597 2516 
z
" transform="scale(0.015625)"/>
      <path id="DejaVuSans-44" d="M 1259 4147 
L 1259 519 
L 2022 519 
Q 2988 519 3436 956 
Q 3884 1394 3884 2338 
Q 3884 3275 3436 3711 
Q 2988 4147 2022 4147 
L 1259 4147 
z
M 628 4666 
L 1925 4666 
Q 3281 4666 3915 4102 
Q 4550 3538 4550 2338 
Q 4550 1131 3912 565 
Q 3275 0 1925 0 
L 628 0 
L 628 4666 
z
" transform="scale(0.015625)"/>
     </defs>
     <use xlink:href="#DejaVuSans-62"/>
     <use xlink:href="#DejaVuSans-62" x="63.476562"/>
     <use xlink:href="#DejaVuSans-6f" x="126.953125"/>
     <use xlink:href="#DejaVuSans-62" x="188.134766"/>
     <use xlink:href="#DejaVuSans-2d" x="251.611328"/>
     <use xlink:href="#DejaVuSans-62" x="287.695312"/>
     <use xlink:href="#DejaVuSans-69" x="351.171875"/>
     <use xlink:href="#DejaVuSans-6f" x="378.955078"/>
     <use xlink:href="#DejaVuSans-62" x="440.136719"/>
     <use xlink:href="#DejaVuSans-6a" x="503.613281"/>
     <use xlink:href="#DejaVuSans-20" x="531.396484"/>
     <use xlink:href="#DejaVuSans-66" x="563.183594"/>
     <use xlink:href="#DejaVuSans-32" x="598.388672"/>
     <use xlink:href="#DejaVuSans-36" x="662.011719"/>
     <use xlink:href="#DejaVuSans-2c" x="725.634766"/>
     <use xlink:href="#DejaVuSans-20" x="757.421875"/>
     <use xlink:href="#DejaVuSans-66" x="789.208984"/>
     <use xlink:href="#DejaVuSans-32" x="824.414062"/>
     <use xlink:href="#DejaVuSans-37" x="888.037109"/>
     <use xlink:href="#DejaVuSans-2c" x="951.660156"/>
     <use xlink:href="#DejaVuSans-20" x="983.447266"/>
     <use xlink:href="#DejaVuSans-66" x="1015.234375"/>
     <use xlink:href="#DejaVuSans-33" x="1050.439453"/>
     <use xlink:href="#DejaVuSans-33" x="1114.0625"/>
     <use xlink:href="#DejaVuSans-2c" x="1177.685547"/>
     <use xlink:href="#DejaVuSans-20" x="1209.472656"/>
     <use xlink:href="#DejaVuSans-66" x="1241.259766"/>
     <use xlink:href="#DejaVuSans-33" x="1276.464844"/>
     <use xlink:href="#DejaVuSans-34" x="1340.087891"/>
     <use xlink:href="#DejaVuSans-2c" x="1403.710938"/>
     <use xlink:href="#DejaVuSans-20" x="1435.498047"/>
     <use xlink:href="#DejaVuSans-32" x="1467.285156"/>
     <use xlink:href="#DejaVuSans-2d" x="1530.908203"/>
     <use xlink:href="#DejaVuSans-44" x="1566.992188"/>
    </g>
    <!-- 58 targets: 1..-1.0e-4 -->
    <g transform="translate(60.632064 29.004495)scale(0.102 -0.102)">
     <defs>
      <path id="DejaVuSans-35" d="M 691 4666 
L 3169 4666 
L 3169 4134 
L 1269 4134 
L 1269 2991 
Q 1406 3038 1543 3061 
Q 1681 3084 1819 3084 
Q 2600 3084 3056 2656 
Q 3513 2228 3513 1497 
Q 3513 744 3044 326 
Q 2575 -91 1722 -91 
Q 1428 -91 1123 -41 
Q 819 9 494 109 
L 494 744 
Q 775 591 1075 516 
Q 1375 441 1709 441 
Q 2250 441 2565 725 
Q 2881 1009 2881 1497 
Q 2881 1984 2565 2268 
Q 2250 2553 1709 2553 
Q 1456 2553 1204 2497 
Q 953 2441 691 2322 
L 691 4666 
z
" transform="scale(0.015625)"/>
      <path id="DejaVuSans-3a" d="M 750 794 
L 1409 794 
L 1409 0 
L 750 0 
L 750 794 
z
M 750 3309 
L 1409 3309 
L 1409 2516 
L 750 2516 
L 750 3309 
z
" transform="scale(0.015625)"/>
     </defs>
     <use xlink:href="#DejaVuSans-35"/>
     <use xlink:href="#DejaVuSans-38" x="63.623047"/>
     <use xlink:href="#DejaVuSans-20" x="127.246094"/>
     <use xlink:href="#DejaVuSans-74" x="159.033203"/>
     <use xlink:href="#DejaVuSans-61" x="198.242188"/>
     <use xlink:href="#DejaVuSans-72" x="259.521484"/>
     <use xlink:href="#DejaVuSans-67" x="298.884766"/>
     <use xlink:href="#DejaVuSans-65" x="362.361328"/>
     <use xlink:href="#DejaVuSans-74" x="423.884766"/>
     <use xlink:href="#DejaVuSans-73" x="463.09375"/>
     <use xlink:href="#DejaVuSans-3a" x="515.193359"/>
     <use xlink:href="#DejaVuSans-20" x="548.884766"/>
     <use xlink:href="#DejaVuSans-31" x="580.671875"/>
     <use xlink:href="#DejaVuSans-2e" x="644.294922"/>
     <use xlink:href="#DejaVuSans-2e" x="676.082031"/>
     <use xlink:href="#DejaVuSans-2d" x="707.869141"/>
     <use xlink:href="#DejaVuSans-31" x="743.953125"/>
     <use xlink:href="#DejaVuSans-2e" x="807.576172"/>
     <use xlink:href="#DejaVuSans-30" x="839.363281"/>
     <use xlink:href="#DejaVuSans-65" x="902.986328"/>
     <use xlink:href="#DejaVuSans-2d" x="964.509766"/>
     <use xlink:href="#DejaVuSans-34" x="1000.59375"/>
    </g>
    <!-- 10 instances -->
    <g transform="translate(60.632064 40.426264)scale(0.102 -0.102)">
     <use xlink:href="#DejaVuSans-31"/>
     <use xlink:href="#DejaVuSans-30" x="63.623047"/>
     <use xlink:href="#DejaVuSans-20" x="127.246094"/>
     <use xlink:href="#DejaVuSans-69" x="159.033203"/>
     <use xlink:href="#DejaVuSans-6e" x="186.816406"/>
     <use xlink:href="#DejaVuSans-73" x="250.195312"/>
     <use xlink:href="#DejaVuSans-74" x="302.294922"/>
     <use xlink:href="#DejaVuSans-61" x="341.503906"/>
     <use xlink:href="#DejaVuSans-6e" x="402.783203"/>
     <use xlink:href="#DejaVuSans-63" x="466.162109"/>
     <use xlink:href="#DejaVuSans-65" x="521.142578"/>
     <use xlink:href="#DejaVuSans-73" x="582.666016"/>
    </g>
   </g>
   <g id="text_18">
    <!-- v2.6, hv-hash=ff0e71e8cd978373 -->
    <g style="fill: #808080" transform="translate(123.707887 293.943992)scale(0.1 -0.1)">
     <defs>
      <path id="DejaVuSans-68" d="M 3513 2113 
L 3513 0 
L 2938 0 
L 2938 2094 
Q 2938 2591 2744 2837 
Q 2550 3084 2163 3084 
Q 1697 3084 1428 2787 
Q 1159 2491 1159 1978 
L 1159 0 
L 581 0 
L 581 4863 
L 1159 4863 
L 1159 2956 
Q 1366 3272 1645 3428 
Q 1925 3584 2291 3584 
Q 2894 3584 3203 3211 
Q 3513 2838 3513 2113 
z
" transform="scale(0.015625)"/>
      <path id="DejaVuSans-3d" d="M 678 2906 
L 4684 2906 
L 4684 2381 
L 678 2381 
L 678 2906 
z
M 678 1631 
L 4684 1631 
L 4684 1100 
L 678 1100 
L 678 1631 
z
" transform="scale(0.015625)"/>
      <path id="DejaVuSans-39" d="M 703 97 
L 703 672 
Q 941 559 1184 500 
Q 1428 441 1663 441 
Q 2288 441 2617 861 
Q 2947 1281 2994 2138 
Q 2813 1869 2534 1725 
Q 2256 1581 1919 1581 
Q 1219 1581 811 2004 
Q 403 2428 403 3163 
Q 403 3881 828 4315 
Q 1253 4750 1959 4750 
Q 2769 4750 3195 4129 
Q 3622 3509 3622 2328 
Q 3622 1225 3098 567 
Q 2575 -91 1691 -91 
Q 1453 -91 1209 -44 
Q 966 3 703 97 
z
M 1959 2075 
Q 2384 2075 2632 2365 
Q 2881 2656 2881 3163 
Q 2881 3666 2632 3958 
Q 2384 4250 1959 4250 
Q 1534 4250 1286 3958 
Q 1038 3666 1038 3163 
Q 1038 2656 1286 2365 
Q 1534 2075 1959 2075 
z
" transform="scale(0.015625)"/>
     </defs>
     <use xlink:href="#DejaVuSans-76"/>
     <use xlink:href="#DejaVuSans-32" x="59.179688"/>
     <use xlink:href="#DejaVuSans-2e" x="122.802734"/>
     <use xlink:href="#DejaVuSans-36" x="154.589844"/>
     <use xlink:href="#DejaVuSans-2c" x="218.212891"/>
     <use xlink:href="#DejaVuSans-20" x="250"/>
     <use xlink:href="#DejaVuSans-68" x="281.787109"/>
     <use xlink:href="#DejaVuSans-76" x="345.166016"/>
     <use xlink:href="#DejaVuSans-2d" x="401.720703"/>
     <use xlink:href="#DejaVuSans-68" x="437.804688"/>
     <use xlink:href="#DejaVuSans-61" x="501.183594"/>
     <use xlink:href="#DejaVuSans-73" x="562.462891"/>
     <use xlink:href="#DejaVuSans-68" x="614.5625"/>
     <use xlink:href="#DejaVuSans-3d" x="677.941406"/>
     <use xlink:href="#DejaVuSans-66" x="761.730469"/>
     <use xlink:href="#DejaVuSans-66" x="796.935547"/>
     <use xlink:href="#DejaVuSans-30" x="832.140625"/>
     <use xlink:href="#DejaVuSans-65" x="895.763672"/>
     <use xlink:href="#DejaVuSans-37" x="957.287109"/>
     <use xlink:href="#DejaVuSans-31" x="1020.910156"/>
     <use xlink:href="#DejaVuSans-65" x="1084.533203"/>
     <use xlink:href="#DejaVuSans-38" x="1146.056641"/>
     <use xlink:href="#DejaVuSans-63" x="1209.679688"/>
     <use xlink:href="#DejaVuSans-64" x="1264.660156"/>
     <use xlink:href="#DejaVuSans-39" x="1328.136719"/>
     <use xlink:href="#DejaVuSans-37" x="1391.759766"/>
     <use xlink:href="#DejaVuSans-38" x="1455.382812"/>
     <use xlink:href="#DejaVuSans-33" x="1519.005859"/>
     <use xlink:href="#DejaVuSans-37" x="1582.628906"/>
     <use xlink:href="#DejaVuSans-33" x="1646.251953"/>
    </g>
   </g>
  </g>
 </g>
 <defs>
  <clipPath id="p66b2377342">
   <rect x="57.6" y="6.912" width="303.2064" height="292.032"/>
  </clipPath>
 </defs>
</svg>
