<?xml version="1.0" encoding="utf-8" standalone="no"?>
<!DOCTYPE svg PUBLIC "-//W3C//DTD SVG 1.1//EN"
  "http://www.w3.org/Graphics/SVG/1.1/DTD/svg11.dtd">
<svg xmlns:xlink="http://www.w3.org/1999/xlink" width="460.8pt" height="345.6pt" viewBox="0 0 460.8 345.6" xmlns="http://www.w3.org/2000/svg" version="1.1">
 <metadata>
  <rdf:RDF xmlns:dc="http://purl.org/dc/elements/1.1/" xmlns:cc="http://creativecommons.org/ns#" xmlns:rdf="http://www.w3.org/1999/02/22-rdf-syntax-ns#">
   <cc:Work>
    <dc:type rdf:resource="http://purl.org/dc/dcmitype/StillImage"/>
    <dc:date>2022-06-19T21:02:56.432801</dc:date>
    <dc:format>image/svg+xml</dc:format>
    <dc:creator>
     <cc:Agent>
      <dc:title>Matplotlib v3.5.1, https://matplotlib.org/</dc:title>
     </cc:Agent>
    </dc:creator>
   </cc:Work>
  </rdf:RDF>
 </metadata>
 <defs>
  <style type="text/css">*{stroke-linejoin: round; stroke-linecap: butt}</style>
 </defs>
 <g id="figure_1">
  <g id="patch_1">
   <path d="M 0 345.6 
L 460.8 345.6 
L 460.8 0 
L 0 0 
z
" style="fill: #ffffff"/>
  </g>
  <g id="axes_1">
   <g id="patch_2">
    <path d="M 57.6 298.944 
L 360.8064 298.944 
L 360.8064 6.912 
L 57.6 6.912 
z
" style="fill: #ffffff"/>
   </g>
   <g id="line2d_1">
    <path d="M 44.560826 298.944 
L 44.560826 297.265655 
L 57.6 297.265655 
L 57.6 293.908966 
L 65.227428 293.908966 
L 65.227428 292.230621 
L 70.639174 292.230621 
L 70.639174 288.873931 
L 74.836851 288.873931 
L 74.836851 283.838897 
L 78.266603 283.838897 
L 78.266603 280.482207 
L 83.678349 280.482207 
L 83.678349 277.125517 
L 87.876026 277.125517 
L 87.876026 275.447172 
L 89.668958 275.447172 
L 89.668958 273.768828 
L 91.305777 273.768828 
L 91.305777 270.412138 
L 99.950294 270.412138 
L 99.950294 268.733793 
L 100.9152 268.733793 
L 100.9152 263.698759 
L 101.833019 263.698759 
L 101.833019 258.663724 
L 105.850679 258.663724 
L 105.850679 253.62869 
L 108.542628 253.62869 
L 108.542628 250.272 
L 109.756698 250.272 
L 109.756698 246.91531 
L 112.989468 246.91531 
L 112.989468 243.558621 
L 115.747307 243.558621 
L 115.747307 241.880276 
L 116.170056 241.880276 
L 116.170056 240.201931 
L 118.889854 240.201931 
L 118.889854 238.523586 
L 120.944062 238.523586 
L 120.944062 235.166897 
L 124.210942 235.166897 
L 124.210942 231.810207 
L 125.779479 231.810207 
L 125.779479 228.453517 
L 126.028642 228.453517 
L 126.028642 223.418483 
L 130.027253 223.418483 
L 130.027253 218.383448 
L 131.747272 218.383448 
L 131.747272 213.348414 
L 132.109044 213.348414 
L 132.109044 209.991724 
L 135.835047 209.991724 
L 135.835047 206.635034 
L 140.26641 206.635034 
L 140.26641 203.278345 
L 144.2304 203.278345 
L 144.2304 196.564966 
L 146.362288 196.564966 
L 146.362288 193.208276 
L 148.726679 193.208276 
L 148.726679 189.851586 
L 149.945377 189.851586 
L 149.945377 186.494897 
L 154.04562 186.494897 
L 154.04562 184.816552 
L 154.377597 184.816552 
L 154.377597 181.459862 
L 154.971412 181.459862 
L 154.971412 179.781517 
L 158.760826 179.781517 
L 158.760826 174.746483 
L 159.980326 174.746483 
L 159.980326 169.711448 
L 161.163832 169.711448 
L 161.163832 168.033103 
L 163.997986 168.033103 
L 163.997986 166.354759 
L 166.546881 166.354759 
L 166.546881 164.676414 
L 169.832482 164.676414 
L 169.880655 154.606345 
L 175.208017 154.606345 
L 175.208017 149.57131 
L 176.247984 149.57131 
L 176.247984 147.892966 
L 181.753809 147.892966 
L 181.753809 144.536276 
L 182.955878 144.536276 
L 182.955878 139.501241 
L 184.653623 139.501241 
L 184.653623 136.144552 
L 188.561698 136.144552 
L 188.561698 134.466207 
L 192.924397 134.466207 
L 192.924397 131.109517 
L 193.955614 131.109517 
L 193.955614 129.431172 
L 198.228067 129.431172 
L 198.228067 127.752828 
L 198.434818 127.752828 
L 198.434818 122.717793 
L 204.298465 122.717793 
L 204.298465 117.682759 
L 208.026307 117.682759 
L 208.026307 112.647724 
L 208.643032 112.647724 
L 208.643032 110.969379 
L 210.816789 110.969379 
L 210.816789 109.291034 
L 216.775357 109.291034 
L 216.775357 104.256 
L 217.960318 104.256 
L 217.960318 99.220966 
L 218.674837 99.220966 
L 218.674837 97.542621 
L 224.519756 97.542621 
L 224.519756 94.185931 
L 225.454069 94.185931 
L 225.454069 90.829241 
L 227.003339 90.829241 
L 227.003339 85.794207 
L 233.119907 85.794207 
L 233.119907 82.437517 
L 233.702207 82.437517 
L 233.702207 79.080828 
L 235.038149 79.080828 
L 235.038149 75.724138 
L 241.027731 75.724138 
L 241.027731 74.045793 
L 243.312439 74.045793 
L 243.312439 72.367448 
L 243.741764 72.367448 
L 243.741764 69.010759 
L 248.973859 69.010759 
L 248.973859 65.654069 
L 252.112041 65.654069 
L 252.199975 60.619034 
L 256.931623 60.619034 
L 256.931623 55.584 
L 260.337522 55.584 
L 260.337522 52.22731 
L 260.699299 52.22731 
L 260.699299 47.192276 
L 268.911286 47.192276 
L 268.911286 42.157241 
L 360.8064 42.157241 
L 360.8064 42.157241 
" style="fill: none; stroke: #f5deb3; stroke-width: 4; stroke-linecap: square"/>
   </g>
   <g id="line2d_2">
    <defs>
     <path id="m28175139e4" d="M 0 7.778175 
L 7.778175 0 
L 0 -7.778175 
L -7.778175 0 
z
" style="stroke: #f5deb3; stroke-width: 1.5; stroke-linejoin: miter"/>
    </defs>
    <g>
     <use xlink:href="#m28175139e4" x="130.027253" y="218.383448" style="fill: #f5deb3; stroke: #f5deb3; stroke-width: 1.5; stroke-linejoin: miter"/>
     <use xlink:href="#m28175139e4" x="176.247984" y="147.892966" style="fill: #f5deb3; stroke: #f5deb3; stroke-width: 1.5; stroke-linejoin: miter"/>
     <use xlink:href="#m28175139e4" x="227.003339" y="90.829241" style="fill: #f5deb3; stroke: #f5deb3; stroke-width: 1.5; stroke-linejoin: miter"/>
     <use xlink:href="#m28175139e4" x="268.911286" y="42.157241" style="fill: #f5deb3; stroke: #f5deb3; stroke-width: 1.5; stroke-linejoin: miter"/>
     <use xlink:href="#m28175139e4" x="268.911286" y="42.157241" style="fill: #f5deb3; stroke: #f5deb3; stroke-width: 1.5; stroke-linejoin: miter"/>
     <use xlink:href="#m28175139e4" x="360.8064" y="42.157241" style="fill: #f5deb3; stroke: #f5deb3; stroke-width: 1.5; stroke-linejoin: miter"/>
    </g>
   </g>
   <g id="line2d_3">
    <path style="fill: none; stroke: #f5deb3; stroke-width: 4; stroke-linecap: square"/>
    <g/>
   </g>
   <g id="line2d_4">
    <path d="M 360.8064 42.157241 
L 380.514816 12.75264 
" style="fill: none; stroke: #f5deb3; stroke-width: 4; stroke-linecap: square"/>
    <g>
     <use xlink:href="#m28175139e4" x="360.8064" y="42.157241" style="fill: #f5deb3; stroke: #f5deb3; stroke-width: 1.5; stroke-linejoin: miter"/>
     <use xlink:href="#m28175139e4" x="380.514816" y="12.75264" style="fill: #f5deb3; stroke: #f5deb3; stroke-width: 1.5; stroke-linejoin: miter"/>
    </g>
   </g>
   <g id="matplotlib.axis_1">
    <g id="xtick_1">
     <g id="line2d_5">
      <path d="M 57.6 298.944 
L 57.6 6.912 
" clip-path="url(#pecef0742e3)" style="fill: none; stroke: #b0b0b0; stroke-width: 0.8; stroke-linecap: square"/>
     </g>
     <g id="line2d_6">
      <defs>
       <path id="mee5f4cc583" d="M 0 0 
L 0 3.5 
" style="stroke: #000000; stroke-width: 0.8"/>
      </defs>
      <g>
       <use xlink:href="#mee5f4cc583" x="57.6" y="298.944" style="stroke: #000000; stroke-width: 0.8"/>
      </g>
     </g>
     <g id="text_1">
      <!-- 0 -->
      <g transform="translate(52.191875 318.861344)scale(0.17 -0.17)">
       <defs>
        <path id="DejaVuSans-30" d="M 2034 4250 
Q 1547 4250 1301 3770 
Q 1056 3291 1056 2328 
Q 1056 1369 1301 889 
Q 1547 409 2034 409 
Q 2525 409 2770 889 
Q 3016 1369 3016 2328 
Q 3016 3291 2770 3770 
Q 2525 4250 2034 4250 
z
M 2034 4750 
Q 2819 4750 3233 4129 
Q 3647 3509 3647 2328 
Q 3647 1150 3233 529 
Q 2819 -91 2034 -91 
Q 1250 -91 836 529 
Q 422 1150 422 2328 
Q 422 3509 836 4129 
Q 1250 4750 2034 4750 
z
" transform="scale(0.015625)"/>
       </defs>
       <use xlink:href="#DejaVuSans-30"/>
      </g>
     </g>
    </g>
    <g id="xtick_2">
     <g id="line2d_7">
      <path d="M 144.2304 298.944 
L 144.2304 6.912 
" clip-path="url(#pecef0742e3)" style="fill: none; stroke: #b0b0b0; stroke-width: 0.8; stroke-linecap: square"/>
     </g>
     <g id="line2d_8">
      <g>
       <use xlink:href="#mee5f4cc583" x="144.2304" y="298.944" style="stroke: #000000; stroke-width: 0.8"/>
      </g>
     </g>
     <g id="text_2">
      <!-- 2 -->
      <g transform="translate(138.822275 318.861344)scale(0.17 -0.17)">
       <defs>
        <path id="DejaVuSans-32" d="M 1228 531 
L 3431 531 
L 3431 0 
L 469 0 
L 469 531 
Q 828 903 1448 1529 
Q 2069 2156 2228 2338 
Q 2531 2678 2651 2914 
Q 2772 3150 2772 3378 
Q 2772 3750 2511 3984 
Q 2250 4219 1831 4219 
Q 1534 4219 1204 4116 
Q 875 4013 500 3803 
L 500 4441 
Q 881 4594 1212 4672 
Q 1544 4750 1819 4750 
Q 2544 4750 2975 4387 
Q 3406 4025 3406 3419 
Q 3406 3131 3298 2873 
Q 3191 2616 2906 2266 
Q 2828 2175 2409 1742 
Q 1991 1309 1228 531 
z
" transform="scale(0.015625)"/>
       </defs>
       <use xlink:href="#DejaVuSans-32"/>
      </g>
     </g>
    </g>
    <g id="xtick_3">
     <g id="line2d_9">
      <path d="M 230.8608 298.944 
L 230.8608 6.912 
" clip-path="url(#pecef0742e3)" style="fill: none; stroke: #b0b0b0; stroke-width: 0.8; stroke-linecap: square"/>
     </g>
     <g id="line2d_10">
      <g>
       <use xlink:href="#mee5f4cc583" x="230.8608" y="298.944" style="stroke: #000000; stroke-width: 0.8"/>
      </g>
     </g>
     <g id="text_3">
      <!-- 4 -->
      <g transform="translate(225.452675 318.861344)scale(0.17 -0.17)">
       <defs>
        <path id="DejaVuSans-34" d="M 2419 4116 
L 825 1625 
L 2419 1625 
L 2419 4116 
z
M 2253 4666 
L 3047 4666 
L 3047 1625 
L 3713 1625 
L 3713 1100 
L 3047 1100 
L 3047 0 
L 2419 0 
L 2419 1100 
L 313 1100 
L 313 1709 
L 2253 4666 
z
" transform="scale(0.015625)"/>
       </defs>
       <use xlink:href="#DejaVuSans-34"/>
      </g>
     </g>
    </g>
    <g id="xtick_4">
     <g id="line2d_11">
      <path d="M 317.4912 298.944 
L 317.4912 6.912 
" clip-path="url(#pecef0742e3)" style="fill: none; stroke: #b0b0b0; stroke-width: 0.8; stroke-linecap: square"/>
     </g>
     <g id="line2d_12">
      <g>
       <use xlink:href="#mee5f4cc583" x="317.4912" y="298.944" style="stroke: #000000; stroke-width: 0.8"/>
      </g>
     </g>
     <g id="text_4">
      <!-- 6 -->
      <g transform="translate(312.083075 318.861344)scale(0.17 -0.17)">
       <defs>
        <path id="DejaVuSans-36" d="M 2113 2584 
Q 1688 2584 1439 2293 
Q 1191 2003 1191 1497 
Q 1191 994 1439 701 
Q 1688 409 2113 409 
Q 2538 409 2786 701 
Q 3034 994 3034 1497 
Q 3034 2003 2786 2293 
Q 2538 2584 2113 2584 
z
M 3366 4563 
L 3366 3988 
Q 3128 4100 2886 4159 
Q 2644 4219 2406 4219 
Q 1781 4219 1451 3797 
Q 1122 3375 1075 2522 
Q 1259 2794 1537 2939 
Q 1816 3084 2150 3084 
Q 2853 3084 3261 2657 
Q 3669 2231 3669 1497 
Q 3669 778 3244 343 
Q 2819 -91 2113 -91 
Q 1303 -91 875 529 
Q 447 1150 447 2328 
Q 447 3434 972 4092 
Q 1497 4750 2381 4750 
Q 2619 4750 2861 4703 
Q 3103 4656 3366 4563 
z
" transform="scale(0.015625)"/>
       </defs>
       <use xlink:href="#DejaVuSans-36"/>
      </g>
     </g>
    </g>
    <g id="xtick_5">
     <g id="line2d_13">
      <path d="M 100.9152 298.944 
L 100.9152 6.912 
" clip-path="url(#pecef0742e3)" style="fill: none; stroke: #b0b0b0; stroke-width: 0.8; stroke-linecap: square"/>
     </g>
     <g id="line2d_14">
      <defs>
       <path id="m8bd7b40ee6" d="M 0 0 
L 0 2 
" style="stroke: #000000; stroke-width: 0.6"/>
      </defs>
      <g>
       <use xlink:href="#m8bd7b40ee6" x="100.9152" y="298.944" style="stroke: #000000; stroke-width: 0.6"/>
      </g>
     </g>
    </g>
    <g id="xtick_6">
     <g id="line2d_15">
      <path d="M 187.5456 298.944 
L 187.5456 6.912 
" clip-path="url(#pecef0742e3)" style="fill: none; stroke: #b0b0b0; stroke-width: 0.8; stroke-linecap: square"/>
     </g>
     <g id="line2d_16">
      <g>
       <use xlink:href="#m8bd7b40ee6" x="187.5456" y="298.944" style="stroke: #000000; stroke-width: 0.6"/>
      </g>
     </g>
    </g>
    <g id="xtick_7">
     <g id="line2d_17">
      <path d="M 274.176 298.944 
L 274.176 6.912 
" clip-path="url(#pecef0742e3)" style="fill: none; stroke: #b0b0b0; stroke-width: 0.8; stroke-linecap: square"/>
     </g>
     <g id="line2d_18">
      <g>
       <use xlink:href="#m8bd7b40ee6" x="274.176" y="298.944" style="stroke: #000000; stroke-width: 0.6"/>
      </g>
     </g>
    </g>
    <g id="xtick_8">
     <g id="line2d_19">
      <path d="M 360.8064 298.944 
L 360.8064 6.912 
" clip-path="url(#pecef0742e3)" style="fill: none; stroke: #b0b0b0; stroke-width: 0.8; stroke-linecap: square"/>
     </g>
     <g id="line2d_20">
      <g>
       <use xlink:href="#m8bd7b40ee6" x="360.8064" y="298.944" style="stroke: #000000; stroke-width: 0.6"/>
      </g>
     </g>
    </g>
    <g id="text_5">
     <!-- log10(# f-evals / dimension) -->
     <g transform="translate(88.823278 339.314156)scale(0.17 -0.17)">
      <defs>
       <path id="DejaVuSans-6c" d="M 603 4863 
L 1178 4863 
L 1178 0 
L 603 0 
L 603 4863 
z
" transform="scale(0.015625)"/>
       <path id="DejaVuSans-6f" d="M 1959 3097 
Q 1497 3097 1228 2736 
Q 959 2375 959 1747 
Q 959 1119 1226 758 
Q 1494 397 1959 397 
Q 2419 397 2687 759 
Q 2956 1122 2956 1747 
Q 2956 2369 2687 2733 
Q 2419 3097 1959 3097 
z
M 1959 3584 
Q 2709 3584 3137 3096 
Q 3566 2609 3566 1747 
Q 3566 888 3137 398 
Q 2709 -91 1959 -91 
Q 1206 -91 779 398 
Q 353 888 353 1747 
Q 353 2609 779 3096 
Q 1206 3584 1959 3584 
z
" transform="scale(0.015625)"/>
       <path id="DejaVuSans-67" d="M 2906 1791 
Q 2906 2416 2648 2759 
Q 2391 3103 1925 3103 
Q 1463 3103 1205 2759 
Q 947 2416 947 1791 
Q 947 1169 1205 825 
Q 1463 481 1925 481 
Q 2391 481 2648 825 
Q 2906 1169 2906 1791 
z
M 3481 434 
Q 3481 -459 3084 -895 
Q 2688 -1331 1869 -1331 
Q 1566 -1331 1297 -1286 
Q 1028 -1241 775 -1147 
L 775 -588 
Q 1028 -725 1275 -790 
Q 1522 -856 1778 -856 
Q 2344 -856 2625 -561 
Q 2906 -266 2906 331 
L 2906 616 
Q 2728 306 2450 153 
Q 2172 0 1784 0 
Q 1141 0 747 490 
Q 353 981 353 1791 
Q 353 2603 747 3093 
Q 1141 3584 1784 3584 
Q 2172 3584 2450 3431 
Q 2728 3278 2906 2969 
L 2906 3500 
L 3481 3500 
L 3481 434 
z
" transform="scale(0.015625)"/>
       <path id="DejaVuSans-31" d="M 794 531 
L 1825 531 
L 1825 4091 
L 703 3866 
L 703 4441 
L 1819 4666 
L 2450 4666 
L 2450 531 
L 3481 531 
L 3481 0 
L 794 0 
L 794 531 
z
" transform="scale(0.015625)"/>
       <path id="DejaVuSans-28" d="M 1984 4856 
Q 1566 4138 1362 3434 
Q 1159 2731 1159 2009 
Q 1159 1288 1364 580 
Q 1569 -128 1984 -844 
L 1484 -844 
Q 1016 -109 783 600 
Q 550 1309 550 2009 
Q 550 2706 781 3412 
Q 1013 4119 1484 4856 
L 1984 4856 
z
" transform="scale(0.015625)"/>
       <path id="DejaVuSans-23" d="M 3272 2816 
L 2363 2816 
L 2100 1772 
L 3016 1772 
L 3272 2816 
z
M 2803 4594 
L 2478 3297 
L 3391 3297 
L 3719 4594 
L 4219 4594 
L 3897 3297 
L 4872 3297 
L 4872 2816 
L 3775 2816 
L 3519 1772 
L 4513 1772 
L 4513 1294 
L 3397 1294 
L 3072 0 
L 2572 0 
L 2894 1294 
L 1978 1294 
L 1656 0 
L 1153 0 
L 1478 1294 
L 494 1294 
L 494 1772 
L 1594 1772 
L 1856 2816 
L 850 2816 
L 850 3297 
L 1978 3297 
L 2297 4594 
L 2803 4594 
z
" transform="scale(0.015625)"/>
       <path id="DejaVuSans-20" transform="scale(0.015625)"/>
       <path id="DejaVuSans-66" d="M 2375 4863 
L 2375 4384 
L 1825 4384 
Q 1516 4384 1395 4259 
Q 1275 4134 1275 3809 
L 1275 3500 
L 2222 3500 
L 2222 3053 
L 1275 3053 
L 1275 0 
L 697 0 
L 697 3053 
L 147 3053 
L 147 3500 
L 697 3500 
L 697 3744 
Q 697 4328 969 4595 
Q 1241 4863 1831 4863 
L 2375 4863 
z
" transform="scale(0.015625)"/>
       <path id="DejaVuSans-2d" d="M 313 2009 
L 1997 2009 
L 1997 1497 
L 313 1497 
L 313 2009 
z
" transform="scale(0.015625)"/>
       <path id="DejaVuSans-65" d="M 3597 1894 
L 3597 1613 
L 953 1613 
Q 991 1019 1311 708 
Q 1631 397 2203 397 
Q 2534 397 2845 478 
Q 3156 559 3463 722 
L 3463 178 
Q 3153 47 2828 -22 
Q 2503 -91 2169 -91 
Q 1331 -91 842 396 
Q 353 884 353 1716 
Q 353 2575 817 3079 
Q 1281 3584 2069 3584 
Q 2775 3584 3186 3129 
Q 3597 2675 3597 1894 
z
M 3022 2063 
Q 3016 2534 2758 2815 
Q 2500 3097 2075 3097 
Q 1594 3097 1305 2825 
Q 1016 2553 972 2059 
L 3022 2063 
z
" transform="scale(0.015625)"/>
       <path id="DejaVuSans-76" d="M 191 3500 
L 800 3500 
L 1894 563 
L 2988 3500 
L 3597 3500 
L 2284 0 
L 1503 0 
L 191 3500 
z
" transform="scale(0.015625)"/>
       <path id="DejaVuSans-61" d="M 2194 1759 
Q 1497 1759 1228 1600 
Q 959 1441 959 1056 
Q 959 750 1161 570 
Q 1363 391 1709 391 
Q 2188 391 2477 730 
Q 2766 1069 2766 1631 
L 2766 1759 
L 2194 1759 
z
M 3341 1997 
L 3341 0 
L 2766 0 
L 2766 531 
Q 2569 213 2275 61 
Q 1981 -91 1556 -91 
Q 1019 -91 701 211 
Q 384 513 384 1019 
Q 384 1609 779 1909 
Q 1175 2209 1959 2209 
L 2766 2209 
L 2766 2266 
Q 2766 2663 2505 2880 
Q 2244 3097 1772 3097 
Q 1472 3097 1187 3025 
Q 903 2953 641 2809 
L 641 3341 
Q 956 3463 1253 3523 
Q 1550 3584 1831 3584 
Q 2591 3584 2966 3190 
Q 3341 2797 3341 1997 
z
" transform="scale(0.015625)"/>
       <path id="DejaVuSans-73" d="M 2834 3397 
L 2834 2853 
Q 2591 2978 2328 3040 
Q 2066 3103 1784 3103 
Q 1356 3103 1142 2972 
Q 928 2841 928 2578 
Q 928 2378 1081 2264 
Q 1234 2150 1697 2047 
L 1894 2003 
Q 2506 1872 2764 1633 
Q 3022 1394 3022 966 
Q 3022 478 2636 193 
Q 2250 -91 1575 -91 
Q 1294 -91 989 -36 
Q 684 19 347 128 
L 347 722 
Q 666 556 975 473 
Q 1284 391 1588 391 
Q 1994 391 2212 530 
Q 2431 669 2431 922 
Q 2431 1156 2273 1281 
Q 2116 1406 1581 1522 
L 1381 1569 
Q 847 1681 609 1914 
Q 372 2147 372 2553 
Q 372 3047 722 3315 
Q 1072 3584 1716 3584 
Q 2034 3584 2315 3537 
Q 2597 3491 2834 3397 
z
" transform="scale(0.015625)"/>
       <path id="DejaVuSans-2f" d="M 1625 4666 
L 2156 4666 
L 531 -594 
L 0 -594 
L 1625 4666 
z
" transform="scale(0.015625)"/>
       <path id="DejaVuSans-64" d="M 2906 2969 
L 2906 4863 
L 3481 4863 
L 3481 0 
L 2906 0 
L 2906 525 
Q 2725 213 2448 61 
Q 2172 -91 1784 -91 
Q 1150 -91 751 415 
Q 353 922 353 1747 
Q 353 2572 751 3078 
Q 1150 3584 1784 3584 
Q 2172 3584 2448 3432 
Q 2725 3281 2906 2969 
z
M 947 1747 
Q 947 1113 1208 752 
Q 1469 391 1925 391 
Q 2381 391 2643 752 
Q 2906 1113 2906 1747 
Q 2906 2381 2643 2742 
Q 2381 3103 1925 3103 
Q 1469 3103 1208 2742 
Q 947 2381 947 1747 
z
" transform="scale(0.015625)"/>
       <path id="DejaVuSans-69" d="M 603 3500 
L 1178 3500 
L 1178 0 
L 603 0 
L 603 3500 
z
M 603 4863 
L 1178 4863 
L 1178 4134 
L 603 4134 
L 603 4863 
z
" transform="scale(0.015625)"/>
       <path id="DejaVuSans-6d" d="M 3328 2828 
Q 3544 3216 3844 3400 
Q 4144 3584 4550 3584 
Q 5097 3584 5394 3201 
Q 5691 2819 5691 2113 
L 5691 0 
L 5113 0 
L 5113 2094 
Q 5113 2597 4934 2840 
Q 4756 3084 4391 3084 
Q 3944 3084 3684 2787 
Q 3425 2491 3425 1978 
L 3425 0 
L 2847 0 
L 2847 2094 
Q 2847 2600 2669 2842 
Q 2491 3084 2119 3084 
Q 1678 3084 1418 2786 
Q 1159 2488 1159 1978 
L 1159 0 
L 581 0 
L 581 3500 
L 1159 3500 
L 1159 2956 
Q 1356 3278 1631 3431 
Q 1906 3584 2284 3584 
Q 2666 3584 2933 3390 
Q 3200 3197 3328 2828 
z
" transform="scale(0.015625)"/>
       <path id="DejaVuSans-6e" d="M 3513 2113 
L 3513 0 
L 2938 0 
L 2938 2094 
Q 2938 2591 2744 2837 
Q 2550 3084 2163 3084 
Q 1697 3084 1428 2787 
Q 1159 2491 1159 1978 
L 1159 0 
L 581 0 
L 581 3500 
L 1159 3500 
L 1159 2956 
Q 1366 3272 1645 3428 
Q 1925 3584 2291 3584 
Q 2894 3584 3203 3211 
Q 3513 2838 3513 2113 
z
" transform="scale(0.015625)"/>
       <path id="DejaVuSans-29" d="M 513 4856 
L 1013 4856 
Q 1481 4119 1714 3412 
Q 1947 2706 1947 2009 
Q 1947 1309 1714 600 
Q 1481 -109 1013 -844 
L 513 -844 
Q 928 -128 1133 580 
Q 1338 1288 1338 2009 
Q 1338 2731 1133 3434 
Q 928 4138 513 4856 
z
" transform="scale(0.015625)"/>
      </defs>
      <use xlink:href="#DejaVuSans-6c"/>
      <use xlink:href="#DejaVuSans-6f" x="27.783203"/>
      <use xlink:href="#DejaVuSans-67" x="88.964844"/>
      <use xlink:href="#DejaVuSans-31" x="152.441406"/>
      <use xlink:href="#DejaVuSans-30" x="216.064453"/>
      <use xlink:href="#DejaVuSans-28" x="279.6875"/>
      <use xlink:href="#DejaVuSans-23" x="318.701172"/>
      <use xlink:href="#DejaVuSans-20" x="402.490234"/>
      <use xlink:href="#DejaVuSans-66" x="434.277344"/>
      <use xlink:href="#DejaVuSans-2d" x="463.982422"/>
      <use xlink:href="#DejaVuSans-65" x="500.066406"/>
      <use xlink:href="#DejaVuSans-76" x="561.589844"/>
      <use xlink:href="#DejaVuSans-61" x="620.769531"/>
      <use xlink:href="#DejaVuSans-6c" x="682.048828"/>
      <use xlink:href="#DejaVuSans-73" x="709.832031"/>
      <use xlink:href="#DejaVuSans-20" x="761.931641"/>
      <use xlink:href="#DejaVuSans-2f" x="793.71875"/>
      <use xlink:href="#DejaVuSans-20" x="827.410156"/>
      <use xlink:href="#DejaVuSans-64" x="859.197266"/>
      <use xlink:href="#DejaVuSans-69" x="922.673828"/>
      <use xlink:href="#DejaVuSans-6d" x="950.457031"/>
      <use xlink:href="#DejaVuSans-65" x="1047.869141"/>
      <use xlink:href="#DejaVuSans-6e" x="1109.392578"/>
      <use xlink:href="#DejaVuSans-73" x="1172.771484"/>
      <use xlink:href="#DejaVuSans-69" x="1224.871094"/>
      <use xlink:href="#DejaVuSans-6f" x="1252.654297"/>
      <use xlink:href="#DejaVuSans-6e" x="1313.835938"/>
      <use xlink:href="#DejaVuSans-29" x="1377.214844"/>
     </g>
    </g>
   </g>
   <g id="matplotlib.axis_2">
    <g id="ytick_1">
     <g id="line2d_21">
      <path d="M 57.6 298.944 
L 360.8064 298.944 
" clip-path="url(#pecef0742e3)" style="fill: none; stroke: #b0b0b0; stroke-width: 0.8; stroke-linecap: square"/>
     </g>
     <g id="line2d_22">
      <defs>
       <path id="ma4629575b3" d="M 0 0 
L -3.5 0 
" style="stroke: #000000; stroke-width: 0.8"/>
      </defs>
      <g>
       <use xlink:href="#ma4629575b3" x="57.6" y="298.944" style="stroke: #000000; stroke-width: 0.8"/>
      </g>
     </g>
     <g id="text_6">
      <!-- 0.0 -->
      <g transform="translate(25.155 305.02275)scale(0.16 -0.16)">
       <defs>
        <path id="DejaVuSans-2e" d="M 684 794 
L 1344 794 
L 1344 0 
L 684 0 
L 684 794 
z
" transform="scale(0.015625)"/>
       </defs>
       <use xlink:href="#DejaVuSans-30"/>
       <use xlink:href="#DejaVuSans-2e" x="63.623047"/>
       <use xlink:href="#DejaVuSans-30" x="95.410156"/>
      </g>
     </g>
    </g>
    <g id="ytick_2">
     <g id="line2d_23">
      <path d="M 57.6 240.5376 
L 360.8064 240.5376 
" clip-path="url(#pecef0742e3)" style="fill: none; stroke: #b0b0b0; stroke-width: 0.8; stroke-linecap: square"/>
     </g>
     <g id="line2d_24">
      <g>
       <use xlink:href="#ma4629575b3" x="57.6" y="240.5376" style="stroke: #000000; stroke-width: 0.8"/>
      </g>
     </g>
     <g id="text_7">
      <!-- 0.2 -->
      <g transform="translate(25.155 246.61635)scale(0.16 -0.16)">
       <use xlink:href="#DejaVuSans-30"/>
       <use xlink:href="#DejaVuSans-2e" x="63.623047"/>
       <use xlink:href="#DejaVuSans-32" x="95.410156"/>
      </g>
     </g>
    </g>
    <g id="ytick_3">
     <g id="line2d_25">
      <path d="M 57.6 182.1312 
L 360.8064 182.1312 
" clip-path="url(#pecef0742e3)" style="fill: none; stroke: #b0b0b0; stroke-width: 0.8; stroke-linecap: square"/>
     </g>
     <g id="line2d_26">
      <g>
       <use xlink:href="#ma4629575b3" x="57.6" y="182.1312" style="stroke: #000000; stroke-width: 0.8"/>
      </g>
     </g>
     <g id="text_8">
      <!-- 0.4 -->
      <g transform="translate(25.155 188.20995)scale(0.16 -0.16)">
       <use xlink:href="#DejaVuSans-30"/>
       <use xlink:href="#DejaVuSans-2e" x="63.623047"/>
       <use xlink:href="#DejaVuSans-34" x="95.410156"/>
      </g>
     </g>
    </g>
    <g id="ytick_4">
     <g id="line2d_27">
      <path d="M 57.6 123.7248 
L 360.8064 123.7248 
" clip-path="url(#pecef0742e3)" style="fill: none; stroke: #b0b0b0; stroke-width: 0.8; stroke-linecap: square"/>
     </g>
     <g id="line2d_28">
      <g>
       <use xlink:href="#ma4629575b3" x="57.6" y="123.7248" style="stroke: #000000; stroke-width: 0.8"/>
      </g>
     </g>
     <g id="text_9">
      <!-- 0.6 -->
      <g transform="translate(25.155 129.80355)scale(0.16 -0.16)">
       <use xlink:href="#DejaVuSans-30"/>
       <use xlink:href="#DejaVuSans-2e" x="63.623047"/>
       <use xlink:href="#DejaVuSans-36" x="95.410156"/>
      </g>
     </g>
    </g>
    <g id="ytick_5">
     <g id="line2d_29">
      <path d="M 57.6 65.3184 
L 360.8064 65.3184 
" clip-path="url(#pecef0742e3)" style="fill: none; stroke: #b0b0b0; stroke-width: 0.8; stroke-linecap: square"/>
     </g>
     <g id="line2d_30">
      <g>
       <use xlink:href="#ma4629575b3" x="57.6" y="65.3184" style="stroke: #000000; stroke-width: 0.8"/>
      </g>
     </g>
     <g id="text_10">
      <!-- 0.8 -->
      <g transform="translate(25.155 71.39715)scale(0.16 -0.16)">
       <defs>
        <path id="DejaVuSans-38" d="M 2034 2216 
Q 1584 2216 1326 1975 
Q 1069 1734 1069 1313 
Q 1069 891 1326 650 
Q 1584 409 2034 409 
Q 2484 409 2743 651 
Q 3003 894 3003 1313 
Q 3003 1734 2745 1975 
Q 2488 2216 2034 2216 
z
M 1403 2484 
Q 997 2584 770 2862 
Q 544 3141 544 3541 
Q 544 4100 942 4425 
Q 1341 4750 2034 4750 
Q 2731 4750 3128 4425 
Q 3525 4100 3525 3541 
Q 3525 3141 3298 2862 
Q 3072 2584 2669 2484 
Q 3125 2378 3379 2068 
Q 3634 1759 3634 1313 
Q 3634 634 3220 271 
Q 2806 -91 2034 -91 
Q 1263 -91 848 271 
Q 434 634 434 1313 
Q 434 1759 690 2068 
Q 947 2378 1403 2484 
z
M 1172 3481 
Q 1172 3119 1398 2916 
Q 1625 2713 2034 2713 
Q 2441 2713 2670 2916 
Q 2900 3119 2900 3481 
Q 2900 3844 2670 4047 
Q 2441 4250 2034 4250 
Q 1625 4250 1398 4047 
Q 1172 3844 1172 3481 
z
" transform="scale(0.015625)"/>
       </defs>
       <use xlink:href="#DejaVuSans-30"/>
       <use xlink:href="#DejaVuSans-2e" x="63.623047"/>
       <use xlink:href="#DejaVuSans-38" x="95.410156"/>
      </g>
     </g>
    </g>
    <g id="ytick_6">
     <g id="line2d_31">
      <path d="M 57.6 6.912 
L 360.8064 6.912 
" clip-path="url(#pecef0742e3)" style="fill: none; stroke: #b0b0b0; stroke-width: 0.8; stroke-linecap: square"/>
     </g>
     <g id="line2d_32">
      <g>
       <use xlink:href="#ma4629575b3" x="57.6" y="6.912" style="stroke: #000000; stroke-width: 0.8"/>
      </g>
     </g>
     <g id="text_11">
      <!-- 1.0 -->
      <g transform="translate(25.155 12.99075)scale(0.16 -0.16)">
       <use xlink:href="#DejaVuSans-31"/>
       <use xlink:href="#DejaVuSans-2e" x="63.623047"/>
       <use xlink:href="#DejaVuSans-30" x="95.410156"/>
      </g>
     </g>
    </g>
    <g id="text_12">
     <!-- Fraction of function,target pairs -->
     <g transform="translate(17.619531 287.313)rotate(-90)scale(0.17 -0.17)">
      <defs>
       <path id="DejaVuSans-46" d="M 628 4666 
L 3309 4666 
L 3309 4134 
L 1259 4134 
L 1259 2759 
L 3109 2759 
L 3109 2228 
L 1259 2228 
L 1259 0 
L 628 0 
L 628 4666 
z
" transform="scale(0.015625)"/>
       <path id="DejaVuSans-72" d="M 2631 2963 
Q 2534 3019 2420 3045 
Q 2306 3072 2169 3072 
Q 1681 3072 1420 2755 
Q 1159 2438 1159 1844 
L 1159 0 
L 581 0 
L 581 3500 
L 1159 3500 
L 1159 2956 
Q 1341 3275 1631 3429 
Q 1922 3584 2338 3584 
Q 2397 3584 2469 3576 
Q 2541 3569 2628 3553 
L 2631 2963 
z
" transform="scale(0.015625)"/>
       <path id="DejaVuSans-63" d="M 3122 3366 
L 3122 2828 
Q 2878 2963 2633 3030 
Q 2388 3097 2138 3097 
Q 1578 3097 1268 2742 
Q 959 2388 959 1747 
Q 959 1106 1268 751 
Q 1578 397 2138 397 
Q 2388 397 2633 464 
Q 2878 531 3122 666 
L 3122 134 
Q 2881 22 2623 -34 
Q 2366 -91 2075 -91 
Q 1284 -91 818 406 
Q 353 903 353 1747 
Q 353 2603 823 3093 
Q 1294 3584 2113 3584 
Q 2378 3584 2631 3529 
Q 2884 3475 3122 3366 
z
" transform="scale(0.015625)"/>
       <path id="DejaVuSans-74" d="M 1172 4494 
L 1172 3500 
L 2356 3500 
L 2356 3053 
L 1172 3053 
L 1172 1153 
Q 1172 725 1289 603 
Q 1406 481 1766 481 
L 2356 481 
L 2356 0 
L 1766 0 
Q 1100 0 847 248 
Q 594 497 594 1153 
L 594 3053 
L 172 3053 
L 172 3500 
L 594 3500 
L 594 4494 
L 1172 4494 
z
" transform="scale(0.015625)"/>
       <path id="DejaVuSans-75" d="M 544 1381 
L 544 3500 
L 1119 3500 
L 1119 1403 
Q 1119 906 1312 657 
Q 1506 409 1894 409 
Q 2359 409 2629 706 
Q 2900 1003 2900 1516 
L 2900 3500 
L 3475 3500 
L 3475 0 
L 2900 0 
L 2900 538 
Q 2691 219 2414 64 
Q 2138 -91 1772 -91 
Q 1169 -91 856 284 
Q 544 659 544 1381 
z
M 1991 3584 
L 1991 3584 
z
" transform="scale(0.015625)"/>
       <path id="DejaVuSans-2c" d="M 750 794 
L 1409 794 
L 1409 256 
L 897 -744 
L 494 -744 
L 750 256 
L 750 794 
z
" transform="scale(0.015625)"/>
       <path id="DejaVuSans-70" d="M 1159 525 
L 1159 -1331 
L 581 -1331 
L 581 3500 
L 1159 3500 
L 1159 2969 
Q 1341 3281 1617 3432 
Q 1894 3584 2278 3584 
Q 2916 3584 3314 3078 
Q 3713 2572 3713 1747 
Q 3713 922 3314 415 
Q 2916 -91 2278 -91 
Q 1894 -91 1617 61 
Q 1341 213 1159 525 
z
M 3116 1747 
Q 3116 2381 2855 2742 
Q 2594 3103 2138 3103 
Q 1681 3103 1420 2742 
Q 1159 2381 1159 1747 
Q 1159 1113 1420 752 
Q 1681 391 2138 391 
Q 2594 391 2855 752 
Q 3116 1113 3116 1747 
z
" transform="scale(0.015625)"/>
      </defs>
      <use xlink:href="#DejaVuSans-46"/>
      <use xlink:href="#DejaVuSans-72" x="50.269531"/>
      <use xlink:href="#DejaVuSans-61" x="91.382812"/>
      <use xlink:href="#DejaVuSans-63" x="152.662109"/>
      <use xlink:href="#DejaVuSans-74" x="207.642578"/>
      <use xlink:href="#DejaVuSans-69" x="246.851562"/>
      <use xlink:href="#DejaVuSans-6f" x="274.634766"/>
      <use xlink:href="#DejaVuSans-6e" x="335.816406"/>
      <use xlink:href="#DejaVuSans-20" x="399.195312"/>
      <use xlink:href="#DejaVuSans-6f" x="430.982422"/>
      <use xlink:href="#DejaVuSans-66" x="492.164062"/>
      <use xlink:href="#DejaVuSans-20" x="527.369141"/>
      <use xlink:href="#DejaVuSans-66" x="559.15625"/>
      <use xlink:href="#DejaVuSans-75" x="594.361328"/>
      <use xlink:href="#DejaVuSans-6e" x="657.740234"/>
      <use xlink:href="#DejaVuSans-63" x="721.119141"/>
      <use xlink:href="#DejaVuSans-74" x="776.099609"/>
      <use xlink:href="#DejaVuSans-69" x="815.308594"/>
      <use xlink:href="#DejaVuSans-6f" x="843.091797"/>
      <use xlink:href="#DejaVuSans-6e" x="904.273438"/>
      <use xlink:href="#DejaVuSans-2c" x="967.652344"/>
      <use xlink:href="#DejaVuSans-74" x="999.439453"/>
      <use xlink:href="#DejaVuSans-61" x="1038.648438"/>
      <use xlink:href="#DejaVuSans-72" x="1099.927734"/>
      <use xlink:href="#DejaVuSans-67" x="1139.291016"/>
      <use xlink:href="#DejaVuSans-65" x="1202.767578"/>
      <use xlink:href="#DejaVuSans-74" x="1264.291016"/>
      <use xlink:href="#DejaVuSans-20" x="1303.5"/>
      <use xlink:href="#DejaVuSans-70" x="1335.287109"/>
      <use xlink:href="#DejaVuSans-61" x="1398.763672"/>
      <use xlink:href="#DejaVuSans-69" x="1460.042969"/>
      <use xlink:href="#DejaVuSans-72" x="1487.826172"/>
      <use xlink:href="#DejaVuSans-73" x="1528.939453"/>
     </g>
    </g>
   </g>
   <g id="line2d_33">
    <defs>
     <path id="m350d6a3461" d="M 0 1.5 
C 0.397805 1.5 0.77937 1.341951 1.06066 1.06066 
C 1.341951 0.77937 1.5 0.397805 1.5 0 
C 1.5 -0.397805 1.341951 -0.77937 1.06066 -1.06066 
C 0.77937 -1.341951 0.397805 -1.5 0 -1.5 
C -0.397805 -1.5 -0.77937 -1.341951 -1.06066 -1.06066 
C -1.341951 -0.77937 -1.5 -0.397805 -1.5 0 
C -1.5 0.397805 -1.341951 0.77937 -1.06066 1.06066 
C -0.77937 1.341951 -0.397805 1.5 0 1.5 
z
" style="stroke: #f5deb3"/>
    </defs>
    <g>
     <use xlink:href="#m350d6a3461" x="268.911286" y="42.157241" style="fill: #f5deb3; stroke: #f5deb3"/>
     <use xlink:href="#m350d6a3461" x="268.911286" y="42.157241" style="fill: #f5deb3; stroke: #f5deb3"/>
    </g>
   </g>
   <g id="line2d_34">
    <defs>
     <path id="m0b133058ad" d="M 0 1.5 
C 0.397805 1.5 0.77937 1.341951 1.06066 1.06066 
C 1.341951 0.77937 1.5 0.397805 1.5 0 
C 1.5 -0.397805 1.341951 -0.77937 1.06066 -1.06066 
C 0.77937 -1.341951 0.397805 -1.5 0 -1.5 
C -0.397805 -1.5 -0.77937 -1.341951 -1.06066 -1.06066 
C -1.341951 -0.77937 -1.5 -0.397805 -1.5 0 
C -1.5 0.397805 -1.341951 0.77937 -1.06066 1.06066 
C -0.77937 1.341951 -0.397805 1.5 0 1.5 
z
" style="stroke: #000080"/>
    </defs>
    <g>
     <use xlink:href="#m0b133058ad" x="83.678349" y="270.579972" style="fill: #000080; stroke: #000080"/>
     <use xlink:href="#m0b133058ad" x="83.678349" y="270.579972" style="fill: #000080; stroke: #000080"/>
    </g>
   </g>
   <g id="line2d_35">
    <path d="M 44.560826 298.944 
L 44.560826 285.517241 
L 57.6 285.517241 
L 57.6 284.006731 
L 65.227428 284.006731 
L 65.227428 283.503228 
L 70.639174 283.503228 
L 70.639174 282.160552 
L 74.836851 282.160552 
L 74.836851 278.636028 
L 78.266603 278.636028 
L 78.266603 275.950676 
L 81.166416 275.950676 
L 81.166416 272.929655 
L 83.678349 272.929655 
L 83.678349 270.579972 
L 360.8064 270.579972 
" style="fill: none; stroke: #000080; stroke-width: 1.5; stroke-linecap: square"/>
   </g>
   <g id="line2d_36">
    <defs>
     <path id="m82166b8d90" d="M 0 6 
C 1.591219 6 3.117479 5.367802 4.242641 4.242641 
C 5.367802 3.117479 6 1.591219 6 0 
C 6 -1.591219 5.367802 -3.117479 4.242641 -4.242641 
C 3.117479 -5.367802 1.591219 -6 0 -6 
C -1.591219 -6 -3.117479 -5.367802 -4.242641 -4.242641 
C -5.367802 -3.117479 -6 -1.591219 -6 0 
C -6 1.591219 -5.367802 3.117479 -4.242641 4.242641 
C -3.117479 5.367802 -1.591219 6 0 6 
z
" style="stroke: #000080; stroke-width: 1.5"/>
    </defs>
    <g>
     <use xlink:href="#m82166b8d90" x="83.678349" y="272.929655" style="fill-opacity: 0; stroke: #000080; stroke-width: 1.5"/>
     <use xlink:href="#m82166b8d90" x="83.678349" y="272.929655" style="fill-opacity: 0; stroke: #000080; stroke-width: 1.5"/>
     <use xlink:href="#m82166b8d90" x="83.678349" y="272.929655" style="fill-opacity: 0; stroke: #000080; stroke-width: 1.5"/>
     <use xlink:href="#m82166b8d90" x="83.678349" y="270.579972" style="fill-opacity: 0; stroke: #000080; stroke-width: 1.5"/>
     <use xlink:href="#m82166b8d90" x="83.678349" y="270.579972" style="fill-opacity: 0; stroke: #000080; stroke-width: 1.5"/>
     <use xlink:href="#m82166b8d90" x="360.8064" y="270.579972" style="fill-opacity: 0; stroke: #000080; stroke-width: 1.5"/>
    </g>
   </g>
   <g id="line2d_37">
    <path style="fill: none; stroke: #000080; stroke-width: 1.5; stroke-linecap: square"/>
    <g/>
   </g>
   <g id="line2d_38">
    <path d="M 83.678349 270.579972 
" clip-path="url(#pecef0742e3)" style="fill: none; stroke: #000080; stroke-width: 1.5; stroke-linecap: square"/>
    <defs>
     <path id="m7d5890be11" d="M -12 12 
L 12 -12 
M -12 -12 
L 12 12 
" style="stroke: #000080"/>
    </defs>
    <g clip-path="url(#pecef0742e3)">
     <use xlink:href="#m7d5890be11" x="83.678349" y="270.579972" style="fill: #000080; stroke: #000080"/>
    </g>
   </g>
   <g id="line2d_39">
    <defs>
     <path id="m9617861a39" d="M 0 1.5 
C 0.397805 1.5 0.77937 1.341951 1.06066 1.06066 
C 1.341951 0.77937 1.5 0.397805 1.5 0 
C 1.5 -0.397805 1.341951 -0.77937 1.06066 -1.06066 
C 0.77937 -1.341951 0.397805 -1.5 0 -1.5 
C -0.397805 -1.5 -0.77937 -1.341951 -1.06066 -1.06066 
C -1.341951 -0.77937 -1.5 -0.397805 -1.5 0 
C -1.5 0.397805 -1.341951 0.77937 -1.06066 1.06066 
C -0.77937 1.341951 -0.397805 1.5 0 1.5 
z
" style="stroke: #ff00ff"/>
    </defs>
    <g>
     <use xlink:href="#m9617861a39" x="273.673861" y="59.108524" style="fill: #ff00ff; stroke: #ff00ff"/>
     <use xlink:href="#m9617861a39" x="273.673861" y="59.108524" style="fill: #ff00ff; stroke: #ff00ff"/>
    </g>
   </g>
   <g id="line2d_40">
    <path d="M 44.560826 298.944 
L 44.560826 285.517241 
L 57.6 285.517241 
L 57.6 284.3424 
L 65.227428 284.3424 
L 65.227428 282.664055 
L 70.639174 282.664055 
L 70.639174 279.978703 
L 74.836851 279.978703 
L 74.836851 278.636028 
L 78.266603 278.636028 
L 78.266603 278.132524 
L 81.166416 278.132524 
L 81.166416 276.957683 
L 83.678349 276.957683 
L 83.678349 276.11851 
L 85.894031 276.11851 
L 85.894031 275.615007 
L 87.876026 275.615007 
L 87.876026 273.600993 
L 89.668958 273.600993 
L 89.668958 273.09749 
L 91.305777 273.09749 
L 91.305777 271.922648 
L 92.811505 271.922648 
L 92.811505 269.572966 
L 94.205591 269.572966 
L 94.205591 268.23029 
L 95.503454 268.23029 
L 95.503454 266.38411 
L 96.717523 266.38411 
L 96.717523 265.712772 
L 97.857967 265.712772 
L 97.857967 265.041434 
L 98.933205 265.041434 
L 98.933205 264.8736 
L 99.950294 264.8736 
L 99.950294 262.188248 
L 100.9152 262.188248 
L 100.9152 261.51691 
L 101.833019 261.51691 
L 101.833019 260.342069 
L 102.708132 260.342069 
L 102.708132 259.838566 
L 103.544339 259.838566 
L 103.544339 259.167228 
L 104.344952 259.167228 
L 104.344952 258.831559 
L 105.112877 258.831559 
L 105.112877 258.160221 
L 105.850679 258.160221 
L 105.850679 256.985379 
L 106.560633 256.985379 
L 106.560633 256.817545 
L 107.244765 256.817545 
L 107.244765 255.810538 
L 107.904887 255.810538 
L 107.904887 255.1392 
L 108.542628 255.1392 
L 108.542628 254.635697 
L 110.335561 254.635697 
L 110.335561 253.796524 
L 111.442442 253.796524 
L 111.442442 253.460855 
L 111.97238 253.460855 
L 111.97238 252.957352 
L 112.487797 252.957352 
L 112.487797 252.621683 
L 112.989468 252.621683 
L 112.989468 252.453848 
L 113.954374 252.453848 
L 113.954374 251.950345 
L 114.418881 251.950345 
L 114.418881 251.111172 
L 114.872193 251.111172 
L 114.872193 250.104166 
L 115.314838 250.104166 
L 115.314838 249.600662 
L 116.170056 249.600662 
L 116.170056 248.929324 
L 116.583514 248.929324 
L 116.583514 248.76149 
L 116.988079 248.76149 
L 116.988079 248.593655 
L 117.384126 248.593655 
L 117.384126 248.425821 
L 117.772007 248.425821 
L 117.772007 248.257986 
L 118.889854 248.257986 
L 118.889854 246.91531 
L 119.599808 246.91531 
L 119.599808 246.243972 
L 119.944983 246.243972 
L 119.944983 246.076138 
L 120.28394 246.076138 
L 120.28394 245.236966 
L 120.944062 245.236966 
L 120.944062 244.901297 
L 121.265635 244.901297 
L 121.265635 244.397793 
L 121.581803 244.397793 
L 121.581803 244.062124 
L 121.892744 244.062124 
L 121.892744 243.89429 
L 122.19863 243.89429 
L 122.19863 243.726455 
L 123.08753 243.726455 
L 123.08753 243.390786 
L 123.936316 243.390786 
L 123.936316 243.222952 
L 124.210942 243.222952 
L 124.210942 242.719448 
L 124.481616 242.719448 
L 124.481616 242.383779 
L 124.748451 242.383779 
L 124.748451 241.712441 
L 125.011554 241.712441 
L 125.011554 241.544607 
L 125.271028 241.544607 
L 125.271028 240.873269 
L 125.779479 240.873269 
L 125.779479 240.034097 
L 126.756923 240.034097 
L 126.756923 239.698428 
L 126.993549 239.698428 
L 126.993549 239.530593 
L 127.458055 239.530593 
L 127.458055 239.194924 
L 127.686077 239.194924 
L 127.686077 238.691421 
L 127.911368 238.691421 
L 127.911368 238.020083 
L 128.133992 238.020083 
L 128.133992 237.516579 
L 128.57149 237.516579 
L 128.57149 237.348745 
L 128.999044 237.348745 
L 128.999044 236.845241 
L 129.209231 236.845241 
L 129.209231 236.509572 
L 129.622688 236.509572 
L 129.622688 236.341738 
L 130.027253 236.341738 
L 130.027253 236.006069 
L 130.226319 236.006069 
L 130.226319 235.6704 
L 131.191226 235.6704 
L 131.191226 235.334731 
L 131.378407 235.334731 
L 131.378407 234.831228 
L 131.563744 234.831228 
L 131.563744 234.495559 
L 131.929028 234.495559 
L 131.929028 234.327724 
L 132.109044 234.327724 
L 132.109044 232.985048 
L 132.287354 232.985048 
L 132.287354 232.31371 
L 132.46399 232.31371 
L 132.46399 231.810207 
L 132.638982 231.810207 
L 132.638982 231.138869 
L 132.812362 231.138869 
L 132.812362 230.8032 
L 132.984158 230.8032 
L 132.984158 230.467531 
L 133.154399 230.467531 
L 133.154399 230.131862 
L 133.323114 230.131862 
L 133.323114 229.796193 
L 133.490329 229.796193 
L 133.490329 229.460524 
L 133.656071 229.460524 
L 133.656071 229.29269 
L 133.983236 229.29269 
L 133.983236 228.621352 
L 134.14471 228.621352 
L 134.14471 227.782179 
L 134.304809 227.782179 
L 134.304809 227.614345 
L 134.463557 227.614345 
L 134.463557 227.110841 
L 135.085483 227.110841 
L 135.085483 226.439503 
L 135.237805 226.439503 
L 135.237805 225.936 
L 135.388902 225.936 
L 135.388902 225.600331 
L 135.687504 225.600331 
L 135.687504 224.089821 
L 135.835047 224.089821 
L 135.835047 223.586317 
L 136.126705 223.586317 
L 136.126705 222.747145 
L 136.555884 222.747145 
L 136.555884 221.907972 
L 136.836659 221.907972 
L 136.836659 221.0688 
L 136.97549 221.0688 
L 136.97549 220.900966 
L 137.113304 220.900966 
L 137.113304 220.229628 
L 137.250116 220.229628 
L 137.250116 220.061793 
L 137.919637 220.061793 
L 137.919637 219.893959 
L 138.050729 219.893959 
L 138.050729 219.726124 
L 138.180913 219.726124 
L 138.180913 219.55829 
L 138.310202 219.55829 
L 138.310202 218.886952 
L 138.438609 218.886952 
L 138.438609 218.719117 
L 138.692823 218.719117 
L 138.692823 218.383448 
L 138.818654 218.383448 
L 138.818654 218.215614 
L 138.943648 218.215614 
L 138.943648 218.047779 
L 139.313723 218.047779 
L 139.313723 217.71211 
L 139.435481 217.71211 
L 139.435481 217.376441 
L 139.556456 217.376441 
L 139.556456 217.040772 
L 139.676658 217.040772 
L 139.676658 216.705103 
L 139.796097 216.705103 
L 139.796097 216.537269 
L 139.914782 216.537269 
L 139.914782 215.865931 
L 140.14993 215.865931 
L 140.14993 215.698097 
L 141.283499 215.698097 
L 141.393187 215.026759 
L 141.610664 215.026759 
L 141.718467 214.523255 
L 141.825656 214.523255 
L 141.932237 214.019752 
L 142.038218 214.019752 
L 142.038218 213.348414 
L 142.559347 213.348414 
L 142.661862 212.341407 
L 142.865233 212.341407 
L 142.966099 211.502234 
L 143.166224 211.502234 
L 143.265494 210.830897 
L 143.462475 210.830897 
L 143.560197 210.495228 
L 143.850356 210.495228 
L 143.850356 209.488221 
L 144.324223 209.488221 
L 144.324223 209.152552 
L 144.602918 209.152552 
L 144.602918 208.984717 
L 145.326529 208.984717 
L 145.415054 208.649048 
L 145.678157 208.649048 
L 145.765046 208.145545 
L 146.108646 208.145545 
L 146.193574 207.474207 
L 146.27812 207.474207 
L 146.362288 206.970703 
L 147.022411 206.970703 
L 147.022411 206.802869 
L 147.183884 206.802869 
L 147.183884 206.635034 
L 147.502732 206.635034 
L 147.502732 205.963697 
L 147.660152 205.963697 
L 147.660152 205.795862 
L 147.816265 205.795862 
L 147.893838 204.621021 
L 147.971093 204.621021 
L 147.971093 204.285352 
L 148.124658 204.285352 
L 148.124658 203.949683 
L 148.503173 203.949683 
L 148.503173 203.278345 
L 148.874221 203.278345 
L 148.947561 202.607007 
L 149.238092 202.607007 
L 149.31003 201.935669 
L 149.453084 201.935669 
L 149.453084 201.6 
L 149.595059 201.6 
L 149.595059 201.432166 
L 149.875833 201.432166 
L 149.875833 201.096497 
L 150.014665 201.096497 
L 150.014665 200.592993 
L 150.289291 200.592993 
L 150.289291 200.425159 
L 150.425115 200.425159 
L 150.425115 200.08949 
L 150.559965 200.08949 
L 150.559965 199.921655 
L 150.693856 199.921655 
L 150.693856 199.585986 
L 151.089903 199.585986 
L 151.155108 199.082483 
L 151.220087 199.082483 
L 151.284843 198.075476 
L 151.477784 198.075476 
L 151.54166 197.739807 
L 151.731998 197.739807 
L 151.731998 197.404138 
L 152.291722 197.404138 
L 152.291722 197.068469 
L 152.775647 197.068469 
L 152.775647 196.900634 
L 152.953957 196.900634 
L 152.953957 196.7328 
L 153.363556 196.7328 
L 153.363556 196.397131 
L 153.593669 196.397131 
L 153.650761 196.061462 
L 153.821002 196.061462 
L 153.821002 195.725793 
L 154.267588 195.725793 
L 154.267588 195.22229 
L 154.649839 195.22229 
L 154.649839 194.383117 
L 154.86483 194.383117 
L 154.86483 194.215283 
L 155.13016 194.215283 
L 155.18278 193.879614 
L 155.28758 193.879614 
L 155.28758 193.711779 
L 155.495444 193.711779 
L 155.547053 193.040441 
L 155.954908 193.040441 
L 155.954908 192.872607 
L 156.105602 192.872607 
L 156.105602 192.536938 
L 156.403417 192.536938 
L 156.452597 192.201269 
L 156.648044 192.201269 
L 156.648044 192.033434 
L 156.84148 192.033434 
L 156.84148 191.8656 
L 156.985263 191.8656 
L 156.985263 191.697766 
L 157.549652 191.697766 
L 157.549652 191.529931 
L 157.688143 191.529931 
L 157.688143 191.362097 
L 158.187393 191.362097 
L 158.232129 190.858593 
L 158.976805 190.858593 
L 158.976805 190.187255 
L 159.485256 190.187255 
L 159.485256 190.019421 
L 159.651731 190.019421 
L 159.651731 189.851586 
L 159.816746 189.851586 
L 159.816746 189.683752 
L 160.699326 189.683752 
L 160.738476 189.180248 
L 161.048777 189.180248 
L 161.048777 188.676745 
L 161.163832 188.676745 
L 161.163832 188.50891 
L 161.579783 188.50891 
L 161.579783 188.341076 
L 161.728786 188.341076 
L 161.728786 188.173241 
L 163.019227 188.173241 
L 163.019227 188.005407 
L 163.430425 188.005407 
L 163.430425 187.837572 
L 164.452864 187.837572 
L 164.452864 187.669738 
L 164.739583 187.669738 
L 164.834193 187.334069 
L 165.269521 187.334069 
L 165.269521 186.662731 
L 165.51383 186.662731 
L 165.574415 185.48789 
L 165.695002 185.48789 
L 165.695002 185.320055 
L 165.904188 185.320055 
L 165.904188 184.984386 
L 166.257466 184.984386 
L 166.257466 184.648717 
L 166.546881 184.648717 
L 166.575579 184.145214 
L 167.000877 184.145214 
L 167.056864 183.809545 
L 167.742992 183.809545 
L 167.742992 183.64171 
L 167.930707 183.64171 
L 167.930707 183.306041 
L 168.169334 183.306041 
L 168.169334 183.138207 
L 168.79126 183.138207 
L 168.79126 182.970372 
L 169.393282 182.970372 
L 169.442591 182.466869 
L 169.711507 182.466869 
L 169.711507 182.299034 
L 170.167131 182.299034 
L 170.261661 181.795531 
L 170.402572 181.795531 
L 170.402572 181.627697 
L 170.7503 181.627697 
L 170.7503 181.459862 
L 171.449192 181.459862 
L 171.515469 180.956359 
L 171.691074 180.956359 
L 171.756506 180.452855 
L 172.144386 180.452855 
L 172.229507 180.117186 
L 172.461621 180.117186 
L 172.461621 179.781517 
L 172.649425 179.781517 
L 172.649425 179.613683 
L 172.814802 179.613683 
L 172.814802 179.445848 
L 172.978738 179.445848 
L 173.039848 178.942345 
L 173.12102 178.942345 
L 173.18167 178.606676 
L 173.32243 178.606676 
L 173.32243 178.438841 
L 173.521707 178.438841 
L 173.541519 177.767503 
L 173.679622 177.767503 
L 173.718895 176.928331 
L 173.836223 176.928331 
L 173.87517 176.424828 
L 174.068707 176.424828 
L 174.068707 176.256993 
L 174.203007 176.256993 
L 174.203007 176.089159 
L 174.355328 176.089159 
L 174.355328 175.921324 
L 174.712223 175.921324 
L 174.786503 175.417821 
L 175.424244 175.417821 
L 175.424244 175.249986 
L 175.549238 175.249986 
L 175.655719 174.578648 
L 175.831859 174.578648 
L 175.831859 174.242979 
L 176.093013 174.242979 
L 176.093013 174.075145 
L 176.350592 174.075145 
L 176.401688 173.403807 
L 176.537267 173.403807 
L 176.638314 173.068138 
L 176.722107 173.068138 
L 176.738821 172.3968 
L 176.855405 172.3968 
L 176.855405 172.061131 
L 177.1192 172.061131 
L 177.1192 171.893297 
L 177.233457 171.893297 
L 177.233457 171.725462 
L 177.508083 171.725462 
L 177.508083 171.389793 
L 177.683669 171.389793 
L 177.699551 171.054124 
L 177.936177 171.054124 
L 177.936177 170.718455 
L 178.076737 170.718455 
L 178.18534 169.879283 
L 178.370071 169.879283 
L 178.46176 169.543614 
L 178.522639 169.543614 
L 178.613589 168.872276 
L 178.6589 168.872276 
L 178.6589 168.536607 
L 178.83906 168.536607 
L 178.898732 168.200938 
L 179.06186 168.200938 
L 179.06186 167.865269 
L 179.282053 167.865269 
L 179.296641 167.193931 
L 179.499697 167.193931 
L 179.60041 166.522593 
L 179.614753 166.522593 
L 179.657718 166.01909 
L 179.743355 166.01909 
L 179.828604 165.515586 
L 179.871084 165.515586 
L 179.871084 165.347752 
L 180.123969 165.347752 
L 180.165788 164.676414 
L 180.428504 164.676414 
L 180.44223 164.005076 
L 180.578943 164.005076 
L 180.687602 163.669407 
L 180.70114 163.669407 
L 180.755196 163.165903 
L 180.862845 163.165903 
L 180.943179 162.830234 
L 180.983218 162.830234 
L 180.983218 162.494566 
L 181.102826 162.494566 
L 181.102826 162.158897 
L 181.234837 162.158897 
L 181.274261 161.487559 
L 181.41811 161.487559 
L 181.41811 161.15189 
L 181.560869 161.15189 
L 181.664017 160.312717 
L 181.792161 160.312717 
L 181.792161 159.977048 
L 181.97011 159.977048 
L 181.97011 159.641379 
L 182.133854 159.641379 
L 182.158919 158.970041 
L 182.395389 158.970041 
L 182.395389 158.802207 
L 182.518663 158.802207 
L 182.616704 158.130869 
L 182.762814 158.130869 
L 182.799165 157.627366 
L 182.883711 157.627366 
L 182.931853 157.123862 
L 183.08747 157.123862 
L 183.182598 156.788193 
L 183.229982 156.788193 
L 183.336163 156.452524 
L 183.394894 156.452524 
L 183.394894 156.28469 
L 183.628001 156.28469 
L 183.628001 156.116855 
L 183.743481 156.116855 
L 183.743481 155.781186 
L 183.949574 155.781186 
L 183.949574 155.613352 
L 184.074417 155.613352 
L 184.11961 154.942014 
L 184.198438 154.942014 
L 184.23212 154.43851 
L 184.565667 154.43851 
L 184.565667 154.270676 
L 184.752084 154.270676 
L 184.81744 153.599338 
L 184.893403 153.599338 
L 184.893403 153.263669 
L 185.044414 153.263669 
L 185.140856 152.088828 
L 185.289901 152.088828 
L 185.289901 151.920993 
L 185.448293 151.920993 
L 185.553151 151.249655 
L 185.709351 151.249655 
L 185.709351 151.081821 
L 185.833384 151.081821 
L 185.833384 150.913986 
L 186.028112 150.913986 
L 186.028112 150.578317 
L 186.150067 150.578317 
L 186.251096 149.906979 
L 186.42161 149.906979 
L 186.491374 149.57131 
L 186.69913 149.57131 
L 186.748259 149.235641 
L 186.933788 149.235641 
L 187.001683 148.899972 
L 187.23262 148.899972 
L 187.337526 148.564303 
L 187.347034 148.564303 
L 187.347034 148.396469 
L 187.59257 148.396469 
L 187.630062 148.0608 
L 187.973365 148.0608 
L 188.019281 147.221628 
L 188.192744 147.221628 
L 188.192744 147.053793 
L 188.310515 147.053793 
L 188.355616 146.718124 
L 188.659467 146.718124 
L 188.659467 146.382455 
L 188.844717 146.382455 
L 188.844717 146.214621 
L 188.967211 146.214621 
L 188.967211 146.046786 
L 189.29573 146.046786 
L 189.338532 145.543283 
L 189.466358 145.543283 
L 189.466358 145.375448 
L 189.635451 145.375448 
L 189.685885 144.871945 
L 189.861343 144.871945 
L 189.861343 144.70411 
L 190.035181 144.70411 
L 190.035181 144.536276 
L 190.19109 144.536276 
L 190.19109 144.200607 
L 190.507122 144.200607 
L 190.507122 144.032772 
L 190.691041 144.032772 
L 190.691041 143.864938 
L 190.849521 143.864938 
L 190.873179 143.361434 
L 191.084767 143.361434 
L 191.084767 143.1936 
L 191.278582 143.1936 
L 191.278582 143.025766 
L 191.637636 143.025766 
L 191.637636 142.857931 
L 191.780862 142.857931 
L 191.878235 142.354428 
L 191.967672 142.354428 
L 191.967672 142.186593 
L 192.086263 142.186593 
L 192.086263 142.018759 
L 192.262761 142.018759 
L 192.270079 141.68309 
L 192.653928 141.68309 
L 192.653928 141.515255 
L 192.874865 141.515255 
L 192.874865 141.347421 
L 193.191033 141.347421 
L 193.225837 141.011752 
L 193.309105 141.011752 
L 193.398898 140.508248 
L 193.543048 140.508248 
L 193.618117 140.004745 
L 193.821341 140.004745 
L 193.821341 139.83691 
L 193.94223 139.83691 
L 194.002384 139.501241 
L 194.208122 139.501241 
L 194.247683 138.829903 
L 194.593578 138.829903 
L 194.593578 138.662069 
L 194.722468 138.662069 
L 194.824949 137.990731 
L 194.844102 137.990731 
L 194.85686 137.487228 
L 195.034568 137.487228 
L 195.034568 137.319393 
L 195.160483 137.319393 
L 195.204355 136.983724 
L 195.366417 136.983724 
L 195.422191 136.312386 
L 195.551693 136.312386 
L 195.551693 136.144552 
L 196.001054 136.144552 
L 196.090847 135.137545 
L 196.345903 135.137545 
L 196.345903 134.801876 
L 196.463365 134.801876 
L 196.463365 134.466207 
L 196.736549 134.466207 
L 196.84013 133.627034 
L 196.857339 133.627034 
L 196.857339 133.291366 
L 197.338479 133.291366 
L 197.338479 132.955697 
L 197.555185 132.955697 
L 197.654367 131.94869 
L 197.747562 131.94869 
L 197.753029 131.445186 
L 198.131871 131.445186 
L 198.131871 131.109517 
L 198.323773 131.109517 
L 198.366153 130.606014 
L 198.513737 130.606014 
L 198.545212 130.10251 
L 198.784786 130.10251 
L 198.857099 129.599007 
L 199.21455 129.599007 
L 199.21455 129.431172 
L 199.340582 129.431172 
L 199.350628 128.927669 
L 199.669307 128.927669 
L 199.703837 128.592 
L 199.895068 128.592 
L 199.948655 127.584993 
L 200.314782 127.584993 
L 200.414704 127.08149 
L 200.447894 127.08149 
L 200.447894 126.913655 
L 200.580071 126.913655 
L 200.580071 126.745821 
L 200.743997 126.745821 
L 200.743997 126.410152 
L 201.030919 126.410152 
L 201.030919 126.242317 
L 201.309006 126.242317 
L 201.309006 126.074483 
L 201.923352 126.074483 
L 201.940863 125.738814 
L 202.054291 125.738814 
L 202.11075 125.23531 
L 202.257615 125.23531 
L 202.257615 125.067476 
L 202.369154 125.067476 
L 202.369154 124.899641 
L 202.526752 124.899641 
L 202.55642 123.892634 
L 202.854722 123.892634 
L 202.854722 123.7248 
L 203.008321 123.7248 
L 203.057868 123.221297 
L 203.250683 123.221297 
L 203.250683 123.053462 
L 203.376785 123.053462 
L 203.376785 122.885628 
L 203.510101 122.885628 
L 203.510101 122.717793 
L 203.825464 122.717793 
L 203.825464 122.549959 
L 204.002765 122.549959 
L 204.081033 122.046455 
L 204.228849 122.046455 
L 204.3139 121.542952 
L 204.524858 121.542952 
L 204.524858 121.375117 
L 204.680593 121.375117 
L 204.778688 121.039448 
L 204.917409 121.039448 
L 204.917409 120.871614 
L 205.154969 120.871614 
L 205.235943 120.535945 
L 205.610477 120.535945 
L 205.617676 120.200276 
L 205.771797 120.200276 
L 205.771797 120.032441 
L 205.928205 120.032441 
L 205.928205 119.864607 
L 206.107884 119.864607 
L 206.107884 119.696772 
L 206.403587 119.696772 
L 206.513717 119.193269 
L 206.520579 119.193269 
L 206.520579 119.025434 
L 206.70151 119.025434 
L 206.732062 118.689766 
L 207.210958 118.689766 
L 207.230787 118.354097 
L 207.395225 118.354097 
L 207.395225 118.186262 
L 207.554991 118.186262 
L 207.554991 118.018428 
L 207.864124 118.018428 
L 207.962872 117.682759 
L 209.016211 117.682759 
L 209.103128 117.34709 
L 209.560997 117.34709 
L 209.581414 117.011421 
L 210.081934 117.011421 
L 210.144281 116.507917 
L 210.844068 116.507917 
L 210.844068 116.340083 
L 211.288551 116.340083 
L 211.336411 116.004414 
L 211.748772 116.004414 
L 211.748772 115.836579 
L 211.932326 115.836579 
L 211.93747 115.50091 
L 212.914718 115.50091 
L 212.968361 114.829572 
L 213.332475 114.829572 
L 213.332475 114.661738 
L 213.815786 114.661738 
L 213.82044 114.326069 
L 213.954925 114.326069 
L 213.954925 114.158234 
L 214.129704 114.158234 
L 214.129704 113.9904 
L 214.69566 113.9904 
L 214.740032 113.654731 
L 214.81081 113.654731 
L 214.81081 113.486897 
L 215.13257 113.486897 
L 215.206214 113.151228 
L 215.574408 113.151228 
L 215.599829 112.647724 
L 215.734831 112.647724 
L 215.736932 112.144221 
L 215.91889 112.144221 
L 215.91889 111.976386 
L 216.173174 111.976386 
L 216.283734 111.305048 
L 217.088939 111.305048 
L 217.088939 111.137214 
L 217.320259 111.137214 
L 217.320259 110.969379 
L 217.523941 110.969379 
L 217.523941 110.801545 
L 217.672424 110.801545 
L 217.753782 110.298041 
L 218.245712 110.298041 
L 218.245712 110.130207 
L 218.4014 110.130207 
L 218.506899 109.626703 
L 218.750191 109.626703 
L 218.750191 109.291034 
L 219.071521 109.291034 
L 219.178589 108.619697 
L 219.380529 108.619697 
L 219.397837 107.948359 
L 219.504789 107.948359 
L 219.609427 107.109186 
L 220.003835 107.109186 
L 220.007185 106.605683 
L 220.222005 106.605683 
L 220.296369 105.934345 
L 220.447493 105.934345 
L 220.447493 105.598676 
L 220.603904 105.598676 
L 220.67516 104.927338 
L 220.802423 104.927338 
L 220.861733 104.423834 
L 221.249809 104.423834 
L 221.249809 104.088166 
L 221.602366 104.088166 
L 221.602366 103.920331 
L 222.16621 103.920331 
L 222.16621 103.752497 
L 222.413939 103.752497 
L 222.452215 103.081159 
L 222.836524 103.081159 
L 222.836524 102.74549 
L 223.48238 102.74549 
L 223.503254 102.074152 
L 223.788962 102.074152 
L 223.884605 101.570648 
L 223.920006 101.570648 
L 223.920006 101.402814 
L 224.098714 101.402814 
L 224.098714 101.234979 
L 224.345023 101.234979 
L 224.345023 101.067145 
L 224.485467 101.067145 
L 224.575015 100.563641 
L 224.767151 100.563641 
L 224.808718 100.227972 
L 224.886409 100.227972 
L 224.972786 99.892303 
L 225.677166 99.892303 
L 225.677166 99.556634 
L 225.799428 99.556634 
L 225.799428 99.220966 
L 226.007536 99.220966 
L 226.019706 98.885297 
L 226.27708 98.885297 
L 226.27708 98.549628 
L 226.509655 98.549628 
L 226.509655 98.213959 
L 226.693667 98.213959 
L 226.693667 97.87829 
L 228.349942 97.87829 
L 228.349942 97.710455 
L 228.933071 97.710455 
L 228.945572 97.374786 
L 229.063917 97.374786 
L 229.093904 97.039117 
L 229.70283 97.039117 
L 229.705831 96.703448 
L 229.901833 96.703448 
L 229.97099 96.199945 
L 230.092875 96.199945 
L 230.092875 96.03211 
L 230.267441 96.03211 
L 230.267441 95.864276 
L 230.578399 95.864276 
L 230.588899 95.528607 
L 230.830677 95.528607 
L 230.918088 95.025103 
L 231.44787 95.025103 
L 231.44787 94.857269 
L 231.573262 94.857269 
L 231.573262 94.689434 
L 232.048986 94.689434 
L 232.048986 94.353766 
L 232.538803 94.353766 
L 232.538803 94.018097 
L 232.806171 94.018097 
L 232.85953 93.346759 
L 233.073137 93.346759 
L 233.073137 93.01109 
L 233.34049 93.01109 
L 233.34049 92.675421 
L 234.31092 92.675421 
L 234.31092 92.339752 
L 234.57449 92.339752 
L 234.633076 92.004083 
L 235.318528 92.004083 
L 235.318528 91.668414 
L 235.624018 91.668414 
L 235.665592 91.16491 
L 235.786147 91.16491 
L 235.852629 90.493572 
L 236.162412 90.493572 
L 236.162412 90.325738 
L 236.870553 90.325738 
L 236.870553 90.157903 
L 237.026395 90.157903 
L 237.026395 89.990069 
L 237.310242 89.990069 
L 237.310242 89.822234 
L 237.43135 89.822234 
L 237.43135 89.6544 
L 237.606962 89.6544 
L 237.673215 89.318731 
L 237.805675 89.318731 
L 237.805675 89.150897 
L 238.172698 89.150897 
L 238.172698 88.983062 
L 238.509536 88.983062 
L 238.509536 88.647393 
L 238.621941 88.647393 
L 238.718199 88.311724 
L 238.829368 88.311724 
L 238.908023 87.976055 
L 239.05523 87.976055 
L 239.139007 87.640386 
L 239.491252 87.640386 
L 239.521547 87.304717 
L 239.685242 87.304717 
L 239.760992 86.969048 
L 240.222926 86.969048 
L 240.249211 86.633379 
L 240.580885 86.633379 
L 240.615637 86.129876 
L 240.884191 86.129876 
L 240.884191 85.962041 
L 241.136986 85.962041 
L 241.136986 85.794207 
L 241.58214 85.794207 
L 241.58214 85.626372 
L 241.713604 85.626372 
L 241.80477 84.955034 
L 241.847828 84.955034 
L 241.847828 84.619366 
L 242.281274 84.619366 
L 242.304325 84.115862 
L 242.397774 84.115862 
L 242.397774 83.948028 
L 242.836794 83.948028 
L 242.889469 83.27669 
L 243.828826 83.27669 
L 243.907027 82.605352 
L 244.243885 82.605352 
L 244.243885 82.269683 
L 244.389241 82.269683 
L 244.389241 81.934014 
L 244.616964 81.934014 
L 244.616964 81.766179 
L 244.888874 81.766179 
L 244.888874 81.598345 
L 245.15031 81.598345 
L 245.15031 81.43051 
L 245.305008 81.43051 
L 245.376449 80.759172 
L 245.549996 80.759172 
L 245.660814 80.423503 
L 246.006652 80.423503 
L 246.006652 80.087834 
L 247.106192 80.087834 
L 247.1165 79.752166 
L 247.251968 79.752166 
L 247.251968 79.584331 
L 248.449871 79.584331 
L 248.449871 79.248662 
L 248.864011 79.248662 
L 248.864011 78.912993 
L 249.50251 78.912993 
L 249.50251 78.745159 
L 249.679051 78.745159 
L 249.773589 78.241655 
L 249.81862 78.241655 
L 249.85635 77.738152 
L 250.459245 77.738152 
L 250.459245 77.570317 
L 251.686003 77.570317 
L 251.767901 76.731145 
L 251.805936 76.731145 
L 251.912212 75.891972 
L 252.070965 75.891972 
L 252.070965 75.724138 
L 252.265205 75.724138 
L 252.27274 75.220634 
L 252.718826 75.220634 
L 252.718826 74.884966 
L 253.056269 74.884966 
L 253.056269 74.549297 
L 253.27639 74.549297 
L 253.364746 73.877959 
L 253.523595 73.877959 
L 253.523595 73.710124 
L 253.754229 73.710124 
L 253.828448 72.870952 
L 254.272596 72.870952 
L 254.296967 72.367448 
L 254.644971 72.367448 
L 254.644971 72.031779 
L 255.026264 72.031779 
L 255.026264 71.863945 
L 255.353735 71.863945 
L 255.353735 71.69611 
L 255.936582 71.69611 
L 255.936582 71.360441 
L 256.395958 71.360441 
L 256.395958 71.192607 
L 256.551185 71.192607 
L 256.551185 71.024772 
L 256.674165 71.024772 
L 256.674165 70.689103 
L 257.050512 70.689103 
L 257.050512 70.521269 
L 257.493141 70.521269 
L 257.588792 70.017766 
L 257.66881 70.017766 
L 257.66881 69.849931 
L 258.00775 69.849931 
L 258.00775 69.682097 
L 258.226192 69.682097 
L 258.226192 69.514262 
L 258.373837 69.514262 
L 258.420188 69.178593 
L 258.726095 69.178593 
L 258.820374 68.842924 
L 258.856509 68.842924 
L 258.856509 68.67509 
L 259.128267 68.67509 
L 259.128267 68.507255 
L 259.505615 68.507255 
L 259.510128 68.171586 
L 259.756481 68.171586 
L 259.756481 67.835917 
L 261.018506 67.835917 
L 261.018506 67.500248 
L 261.179479 67.500248 
L 261.179479 67.332414 
L 261.319164 67.332414 
L 261.319164 66.996745 
L 261.576539 66.996745 
L 261.609405 66.661076 
L 262.124029 66.661076 
L 262.207204 66.157572 
L 262.378622 66.157572 
L 262.378622 65.989738 
L 262.772971 65.989738 
L 262.808805 65.654069 
L 263.219606 65.654069 
L 263.219606 65.486234 
L 263.820031 65.486234 
L 263.893938 65.150566 
L 264.878444 65.150566 
L 264.878444 64.982731 
L 265.235822 64.982731 
L 265.235822 64.814897 
L 265.612208 64.814897 
L 265.612208 64.647062 
L 265.846079 64.647062 
L 265.846079 64.479228 
L 266.1425 64.479228 
L 266.163248 64.143559 
L 266.374325 64.143559 
L 266.374325 63.975724 
L 267.701803 63.975724 
L 267.71162 63.640055 
L 267.900459 63.640055 
L 267.91201 63.136552 
L 268.694899 63.136552 
L 268.7927 62.297379 
L 269.040995 62.297379 
L 269.128655 61.793876 
L 269.232553 61.793876 
L 269.232553 61.458207 
L 269.683864 61.458207 
L 269.683864 61.290372 
L 269.822366 61.290372 
L 269.931471 60.786869 
L 270.339542 60.786869 
L 270.432848 60.283366 
L 270.631374 60.283366 
L 270.631374 59.947697 
L 270.759713 59.947697 
L 270.759713 59.612028 
L 271.010678 59.612028 
L 271.010678 59.444193 
L 273.673861 59.444193 
L 273.673861 59.108524 
L 360.8064 59.108524 
L 360.8064 59.108524 
" style="fill: none; stroke: #ff00ff; stroke-width: 1.5; stroke-linecap: square"/>
   </g>
   <g id="line2d_41">
    <defs>
     <path id="mb0ddd5d5df" d="M 0 8.485281 
L 5.091169 0 
L 0 -8.485281 
L -5.091169 0 
z
" style="stroke: #ff00ff; stroke-width: 1.5; stroke-linejoin: miter"/>
    </defs>
    <g>
     <use xlink:href="#mb0ddd5d5df" x="107.244765" y="255.810538" style="fill-opacity: 0; stroke: #ff00ff; stroke-width: 1.5; stroke-linejoin: miter"/>
     <use xlink:href="#mb0ddd5d5df" x="178.46176" y="169.711448" style="fill-opacity: 0; stroke: #ff00ff; stroke-width: 1.5; stroke-linejoin: miter"/>
     <use xlink:href="#mb0ddd5d5df" x="234.633076" y="92.171917" style="fill-opacity: 0; stroke: #ff00ff; stroke-width: 1.5; stroke-linejoin: miter"/>
     <use xlink:href="#mb0ddd5d5df" x="273.673861" y="59.444193" style="fill-opacity: 0; stroke: #ff00ff; stroke-width: 1.5; stroke-linejoin: miter"/>
     <use xlink:href="#mb0ddd5d5df" x="273.673861" y="59.108524" style="fill-opacity: 0; stroke: #ff00ff; stroke-width: 1.5; stroke-linejoin: miter"/>
     <use xlink:href="#mb0ddd5d5df" x="360.8064" y="59.108524" style="fill-opacity: 0; stroke: #ff00ff; stroke-width: 1.5; stroke-linejoin: miter"/>
    </g>
   </g>
   <g id="line2d_42">
    <path style="fill: none; stroke: #ff00ff; stroke-width: 1.5; stroke-linecap: square"/>
    <g/>
   </g>
   <g id="line2d_43">
    <path d="M 274.176094 59.108524 
" clip-path="url(#pecef0742e3)" style="fill: none; stroke: #ff00ff; stroke-width: 1.5; stroke-linecap: square"/>
    <defs>
     <path id="m485bce1043" d="M -12 12 
L 12 -12 
M -12 -12 
L 12 12 
" style="stroke: #ff00ff"/>
    </defs>
    <g clip-path="url(#pecef0742e3)">
     <use xlink:href="#m485bce1043" x="274.176094" y="59.108524" style="fill: #ff00ff; stroke: #ff00ff"/>
    </g>
   </g>
   <g id="line2d_44">
    <defs>
     <path id="meef4e882b4" d="M 0 1.5 
C 0.397805 1.5 0.77937 1.341951 1.06066 1.06066 
C 1.341951 0.77937 1.5 0.397805 1.5 0 
C 1.5 -0.397805 1.341951 -0.77937 1.06066 -1.06066 
C 0.77937 -1.341951 0.397805 -1.5 0 -1.5 
C -0.397805 -1.5 -0.77937 -1.341951 -1.06066 -1.06066 
C -1.341951 -0.77937 -1.5 -0.397805 -1.5 0 
C -1.5 0.397805 -1.341951 0.77937 -1.06066 1.06066 
C -0.77937 1.341951 -0.397805 1.5 0 1.5 
z
" style="stroke: #ff7500"/>
    </defs>
    <g>
     <use xlink:href="#meef4e882b4" x="108.542628" y="280.817876" style="fill: #ff7500; stroke: #ff7500"/>
     <use xlink:href="#meef4e882b4" x="108.542628" y="280.817876" style="fill: #ff7500; stroke: #ff7500"/>
    </g>
   </g>
   <g id="line2d_45">
    <path d="M 44.560826 298.944 
L 44.560826 290.887945 
L 97.857967 290.887945 
L 97.857967 290.72011 
L 100.9152 290.72011 
L 100.9152 287.195586 
L 101.833019 287.195586 
L 101.833019 287.027752 
L 102.708132 287.027752 
L 102.708132 286.188579 
L 103.544339 286.188579 
L 103.544339 285.85291 
L 104.344952 285.85291 
L 104.344952 285.181572 
L 105.112877 285.181572 
L 105.112877 285.013738 
L 105.850679 285.013738 
L 105.850679 284.174566 
L 106.560633 284.174566 
L 106.560633 283.838897 
L 107.244765 283.838897 
L 107.244765 283.335393 
L 107.904887 283.335393 
L 107.904887 281.489214 
L 108.542628 281.489214 
L 108.542628 280.817876 
L 360.8064 280.817876 
" style="fill: none; stroke: #ff7500; stroke-width: 1.5; stroke-linecap: square"/>
   </g>
   <g id="line2d_46">
    <defs>
     <path id="m1d64ac795f" d="M 0 -6 
L -1.347084 -1.854102 
L -5.706339 -1.854102 
L -2.179628 0.708204 
L -3.526712 4.854102 
L -0 2.291796 
L 3.526712 4.854102 
L 2.179628 0.708204 
L 5.706339 -1.854102 
L 1.347084 -1.854102 
z
" style="stroke: #ff7500; stroke-width: 1.5; stroke-linejoin: bevel"/>
    </defs>
    <g>
     <use xlink:href="#m1d64ac795f" x="101.833019" y="287.195586" style="fill-opacity: 0; stroke: #ff7500; stroke-width: 1.5; stroke-linejoin: bevel"/>
     <use xlink:href="#m1d64ac795f" x="108.542628" y="281.489214" style="fill-opacity: 0; stroke: #ff7500; stroke-width: 1.5; stroke-linejoin: bevel"/>
     <use xlink:href="#m1d64ac795f" x="108.542628" y="280.817876" style="fill-opacity: 0; stroke: #ff7500; stroke-width: 1.5; stroke-linejoin: bevel"/>
     <use xlink:href="#m1d64ac795f" x="108.542628" y="280.817876" style="fill-opacity: 0; stroke: #ff7500; stroke-width: 1.5; stroke-linejoin: bevel"/>
     <use xlink:href="#m1d64ac795f" x="108.542628" y="280.817876" style="fill-opacity: 0; stroke: #ff7500; stroke-width: 1.5; stroke-linejoin: bevel"/>
     <use xlink:href="#m1d64ac795f" x="360.8064" y="280.817876" style="fill-opacity: 0; stroke: #ff7500; stroke-width: 1.5; stroke-linejoin: bevel"/>
    </g>
   </g>
   <g id="line2d_47">
    <path style="fill: none; stroke: #ff7500; stroke-width: 1.5; stroke-linecap: square"/>
    <g/>
   </g>
   <g id="line2d_48">
    <path d="M 109.159456 280.817876 
" clip-path="url(#pecef0742e3)" style="fill: none; stroke: #ff7500; stroke-width: 1.5; stroke-linecap: square"/>
    <defs>
     <path id="m78e6645da2" d="M -12 12 
L 12 -12 
M -12 -12 
L 12 12 
" style="stroke: #ff7500"/>
    </defs>
    <g clip-path="url(#pecef0742e3)">
     <use xlink:href="#m78e6645da2" x="109.159456" y="280.817876" style="fill: #ff7500; stroke: #ff7500"/>
    </g>
   </g>
   <g id="line2d_49">
    <defs>
     <path id="mf456fd4ea1" d="M 0 1.5 
C 0.397805 1.5 0.77937 1.341951 1.06066 1.06066 
C 1.341951 0.77937 1.5 0.397805 1.5 0 
C 1.5 -0.397805 1.341951 -0.77937 1.06066 -1.06066 
C 0.77937 -1.341951 0.397805 -1.5 0 -1.5 
C -0.397805 -1.5 -0.77937 -1.341951 -1.06066 -1.06066 
C -1.341951 -0.77937 -1.5 -0.397805 -1.5 0 
C -1.5 0.397805 -1.341951 0.77937 -1.06066 1.06066 
C -0.77937 1.341951 -0.397805 1.5 0 1.5 
z
" style="stroke: #6495ed"/>
    </defs>
    <g>
     <use xlink:href="#mf456fd4ea1" x="113.954374" y="227.614345" style="fill: #6495ed; stroke: #6495ed"/>
     <use xlink:href="#mf456fd4ea1" x="113.954374" y="227.614345" style="fill: #6495ed; stroke: #6495ed"/>
    </g>
   </g>
   <g id="line2d_50">
    <path d="M 44.560826 298.944 
L 44.560826 291.559283 
L 57.6 291.559283 
L 57.6 287.531255 
L 65.227428 287.531255 
L 65.227428 285.181572 
L 70.639174 285.181572 
L 70.639174 281.992717 
L 74.836851 281.992717 
L 74.836851 279.978703 
L 78.266603 279.978703 
L 78.266603 279.139531 
L 81.166416 279.139531 
L 81.166416 277.125517 
L 83.678349 277.125517 
L 83.678349 274.608 
L 85.894031 274.608 
L 85.894031 272.929655 
L 87.876026 272.929655 
L 87.876026 269.7408 
L 89.668958 269.7408 
L 89.668958 268.062455 
L 91.305777 268.062455 
L 91.305777 266.551945 
L 92.811505 266.551945 
L 92.811505 266.216276 
L 94.205591 266.216276 
L 94.205591 265.377103 
L 95.503454 265.377103 
L 95.503454 264.537931 
L 96.717523 264.537931 
L 96.717523 261.852579 
L 97.857967 261.852579 
L 97.857967 260.509903 
L 98.933205 260.509903 
L 98.933205 259.502897 
L 99.950294 259.502897 
L 99.950294 256.985379 
L 100.9152 256.985379 
L 100.9152 256.314041 
L 101.833019 256.314041 
L 101.833019 255.978372 
L 102.708132 255.978372 
L 102.708132 254.132193 
L 103.544339 254.132193 
L 103.544339 250.943338 
L 104.344952 250.943338 
L 104.344952 248.257986 
L 105.112877 248.257986 
L 105.112877 246.411807 
L 105.850679 246.411807 
L 105.850679 243.89429 
L 106.560633 243.89429 
L 106.560633 242.04811 
L 107.244765 242.04811 
L 107.244765 238.355752 
L 107.904887 238.355752 
L 107.904887 236.509572 
L 108.542628 236.509572 
L 108.542628 235.6704 
L 109.159456 235.6704 
L 109.159456 234.15989 
L 109.756698 234.15989 
L 109.756698 232.817214 
L 110.335561 232.817214 
L 110.335561 232.145876 
L 110.897141 232.145876 
L 110.897141 231.978041 
L 111.442442 231.978041 
L 111.442442 230.8032 
L 111.97238 230.8032 
L 111.97238 229.124855 
L 112.487797 229.124855 
L 112.487797 228.621352 
L 112.989468 228.621352 
L 112.989468 228.453517 
L 113.478107 228.453517 
L 113.478107 228.117848 
L 113.954374 228.117848 
L 113.954374 227.614345 
L 360.8064 227.614345 
" style="fill: none; stroke: #6495ed; stroke-width: 1.5; stroke-linecap: square"/>
   </g>
   <g id="line2d_51">
    <defs>
     <path id="m374f829542" d="M -0 6 
L 6 -6 
L -6 -6 
z
" style="stroke: #6495ed; stroke-width: 1.5; stroke-linejoin: miter"/>
    </defs>
    <g>
     <use xlink:href="#m374f829542" x="105.112877" y="248.257986" style="fill-opacity: 0; stroke: #6495ed; stroke-width: 1.5; stroke-linejoin: miter"/>
     <use xlink:href="#m374f829542" x="113.954374" y="228.117848" style="fill-opacity: 0; stroke: #6495ed; stroke-width: 1.5; stroke-linejoin: miter"/>
     <use xlink:href="#m374f829542" x="113.954374" y="227.614345" style="fill-opacity: 0; stroke: #6495ed; stroke-width: 1.5; stroke-linejoin: miter"/>
     <use xlink:href="#m374f829542" x="113.954374" y="227.614345" style="fill-opacity: 0; stroke: #6495ed; stroke-width: 1.5; stroke-linejoin: miter"/>
     <use xlink:href="#m374f829542" x="113.954374" y="227.614345" style="fill-opacity: 0; stroke: #6495ed; stroke-width: 1.5; stroke-linejoin: miter"/>
     <use xlink:href="#m374f829542" x="360.8064" y="227.614345" style="fill-opacity: 0; stroke: #6495ed; stroke-width: 1.5; stroke-linejoin: miter"/>
    </g>
   </g>
   <g id="line2d_52">
    <path style="fill: none; stroke: #6495ed; stroke-width: 1.5; stroke-linecap: square"/>
    <g/>
   </g>
   <g id="line2d_53">
    <path d="M 113.954374 227.614345 
" clip-path="url(#pecef0742e3)" style="fill: none; stroke: #6495ed; stroke-width: 1.5; stroke-linecap: square"/>
    <defs>
     <path id="mae600e5712" d="M -12 12 
L 12 -12 
M -12 -12 
L 12 12 
" style="stroke: #6495ed"/>
    </defs>
    <g clip-path="url(#pecef0742e3)">
     <use xlink:href="#mae600e5712" x="113.954374" y="227.614345" style="fill: #6495ed; stroke: #6495ed"/>
    </g>
   </g>
   <g id="line2d_54">
    <path d="M 360.8064 280.817876 
L 380.514816 293.10336 
" style="fill: none; stroke: #ff7500; stroke-width: 1.5; stroke-linecap: square"/>
    <g>
     <use xlink:href="#m1d64ac795f" x="360.8064" y="280.817876" style="fill-opacity: 0; stroke: #ff7500; stroke-width: 1.5; stroke-linejoin: bevel"/>
     <use xlink:href="#m1d64ac795f" x="380.514816" y="293.10336" style="fill-opacity: 0; stroke: #ff7500; stroke-width: 1.5; stroke-linejoin: bevel"/>
    </g>
   </g>
   <g id="line2d_55">
    <path d="M 360.8064 270.579972 
L 380.514816 223.01568 
" style="fill: none; stroke: #000080; stroke-width: 1.5; stroke-linecap: square"/>
    <g>
     <use xlink:href="#m82166b8d90" x="360.8064" y="270.579972" style="fill-opacity: 0; stroke: #000080; stroke-width: 1.5"/>
     <use xlink:href="#m82166b8d90" x="380.514816" y="223.01568" style="fill-opacity: 0; stroke: #000080; stroke-width: 1.5"/>
    </g>
   </g>
   <g id="line2d_56">
    <path d="M 360.8064 227.614345 
L 380.514816 152.928 
" style="fill: none; stroke: #6495ed; stroke-width: 1.5; stroke-linecap: square"/>
    <g>
     <use xlink:href="#m374f829542" x="360.8064" y="227.614345" style="fill-opacity: 0; stroke: #6495ed; stroke-width: 1.5; stroke-linejoin: miter"/>
     <use xlink:href="#m374f829542" x="380.514816" y="152.928" style="fill-opacity: 0; stroke: #6495ed; stroke-width: 1.5; stroke-linejoin: miter"/>
    </g>
   </g>
   <g id="line2d_57">
    <path d="M 360.8064 59.108524 
L 380.514816 82.84032 
" style="fill: none; stroke: #ff00ff; stroke-width: 1.5; stroke-linecap: square"/>
    <g>
     <use xlink:href="#mb0ddd5d5df" x="360.8064" y="59.108524" style="fill-opacity: 0; stroke: #ff00ff; stroke-width: 1.5; stroke-linejoin: miter"/>
     <use xlink:href="#mb0ddd5d5df" x="380.514816" y="82.84032" style="fill-opacity: 0; stroke: #ff00ff; stroke-width: 1.5; stroke-linejoin: miter"/>
    </g>
   </g>
   <g id="line2d_58">
    <path d="M 360.8064 298.944 
L 360.8064 6.912 
" style="fill: none; stroke: #000000; stroke-width: 1.5; stroke-linecap: square"/>
   </g>
   <g id="patch_3">
    <path d="M 57.6 298.944 
L 360.8064 298.944 
" style="fill: none; stroke: #000000; stroke-width: 0.8; stroke-linejoin: miter; stroke-linecap: square"/>
   </g>
   <g id="patch_4">
    <path d="M 57.6 6.912 
L 360.8064 6.912 
" style="fill: none; stroke: #000000; stroke-width: 0.8; stroke-linejoin: miter; stroke-linecap: square"/>
   </g>
   <g id="text_13">
    <!-- ego -->
    <g transform="translate(386.578944 296.966485)scale(0.14 -0.14)">
     <use xlink:href="#DejaVuSans-65"/>
     <use xlink:href="#DejaVuSans-67" x="61.523438"/>
     <use xlink:href="#DejaVuSans-6f" x="125"/>
    </g>
   </g>
   <g id="text_14">
    <!-- cma -->
    <g transform="translate(386.578944 226.878805)scale(0.14 -0.14)">
     <use xlink:href="#DejaVuSans-63"/>
     <use xlink:href="#DejaVuSans-6d" x="54.980469"/>
     <use xlink:href="#DejaVuSans-61" x="152.392578"/>
    </g>
   </g>
   <g id="text_15">
    <!-- parEgo -->
    <g transform="translate(386.578944 156.791125)scale(0.14 -0.14)">
     <defs>
      <path id="DejaVuSans-45" d="M 628 4666 
L 3578 4666 
L 3578 4134 
L 1259 4134 
L 1259 2753 
L 3481 2753 
L 3481 2222 
L 1259 2222 
L 1259 531 
L 3634 531 
L 3634 0 
L 628 0 
L 628 4666 
z
" transform="scale(0.015625)"/>
     </defs>
     <use xlink:href="#DejaVuSans-70"/>
     <use xlink:href="#DejaVuSans-61" x="63.476562"/>
     <use xlink:href="#DejaVuSans-72" x="124.755859"/>
     <use xlink:href="#DejaVuSans-45" x="165.869141"/>
     <use xlink:href="#DejaVuSans-67" x="229.052734"/>
     <use xlink:href="#DejaVuSans-6f" x="292.529297"/>
    </g>
   </g>
   <g id="text_16">
    <!-- external- -->
    <g transform="translate(386.578944 86.703445)scale(0.14 -0.14)">
     <defs>
      <path id="DejaVuSans-78" d="M 3513 3500 
L 2247 1797 
L 3578 0 
L 2900 0 
L 1881 1375 
L 863 0 
L 184 0 
L 1544 1831 
L 300 3500 
L 978 3500 
L 1906 2253 
L 2834 3500 
L 3513 3500 
z
" transform="scale(0.015625)"/>
     </defs>
     <use xlink:href="#DejaVuSans-65"/>
     <use xlink:href="#DejaVuSans-78" x="59.773438"/>
     <use xlink:href="#DejaVuSans-74" x="118.953125"/>
     <use xlink:href="#DejaVuSans-65" x="158.162109"/>
     <use xlink:href="#DejaVuSans-72" x="219.685547"/>
     <use xlink:href="#DejaVuSans-6e" x="259.048828"/>
     <use xlink:href="#DejaVuSans-61" x="322.427734"/>
     <use xlink:href="#DejaVuSans-6c" x="383.707031"/>
     <use xlink:href="#DejaVuSans-2d" x="411.490234"/>
    </g>
   </g>
   <g id="text_17">
    <!-- best 2016 -->
    <g transform="translate(386.578944 16.615765)scale(0.14 -0.14)">
     <defs>
      <path id="DejaVuSans-62" d="M 3116 1747 
Q 3116 2381 2855 2742 
Q 2594 3103 2138 3103 
Q 1681 3103 1420 2742 
Q 1159 2381 1159 1747 
Q 1159 1113 1420 752 
Q 1681 391 2138 391 
Q 2594 391 2855 752 
Q 3116 1113 3116 1747 
z
M 1159 2969 
Q 1341 3281 1617 3432 
Q 1894 3584 2278 3584 
Q 2916 3584 3314 3078 
Q 3713 2572 3713 1747 
Q 3713 922 3314 415 
Q 2916 -91 2278 -91 
Q 1894 -91 1617 61 
Q 1341 213 1159 525 
L 1159 0 
L 581 0 
L 581 4863 
L 1159 4863 
L 1159 2969 
z
" transform="scale(0.015625)"/>
     </defs>
     <use xlink:href="#DejaVuSans-62"/>
     <use xlink:href="#DejaVuSans-65" x="63.476562"/>
     <use xlink:href="#DejaVuSans-73" x="125"/>
     <use xlink:href="#DejaVuSans-74" x="177.099609"/>
     <use xlink:href="#DejaVuSans-20" x="216.308594"/>
     <use xlink:href="#DejaVuSans-32" x="248.095703"/>
     <use xlink:href="#DejaVuSans-30" x="311.71875"/>
     <use xlink:href="#DejaVuSans-31" x="375.341797"/>
     <use xlink:href="#DejaVuSans-36" x="438.964844"/>
    </g>
   </g>
   <g id="text_18">
    <!-- bbob-biobj f1, f2, f11, 2-D -->
    <g transform="translate(60.632064 17.582726)scale(0.102 -0.102)">
     <defs>
      <path id="DejaVuSans-6a" d="M 603 3500 
L 1178 3500 
L 1178 -63 
Q 1178 -731 923 -1031 
Q 669 -1331 103 -1331 
L -116 -1331 
L -116 -844 
L 38 -844 
Q 366 -844 484 -692 
Q 603 -541 603 -63 
L 603 3500 
z
M 603 4863 
L 1178 4863 
L 1178 4134 
L 603 4134 
L 603 4863 
z
" transform="scale(0.015625)"/>
      <path id="DejaVuSans-44" d="M 1259 4147 
L 1259 519 
L 2022 519 
Q 2988 519 3436 956 
Q 3884 1394 3884 2338 
Q 3884 3275 3436 3711 
Q 2988 4147 2022 4147 
L 1259 4147 
z
M 628 4666 
L 1925 4666 
Q 3281 4666 3915 4102 
Q 4550 3538 4550 2338 
Q 4550 1131 3912 565 
Q 3275 0 1925 0 
L 628 0 
L 628 4666 
z
" transform="scale(0.015625)"/>
     </defs>
     <use xlink:href="#DejaVuSans-62"/>
     <use xlink:href="#DejaVuSans-62" x="63.476562"/>
     <use xlink:href="#DejaVuSans-6f" x="126.953125"/>
     <use xlink:href="#DejaVuSans-62" x="188.134766"/>
     <use xlink:href="#DejaVuSans-2d" x="251.611328"/>
     <use xlink:href="#DejaVuSans-62" x="287.695312"/>
     <use xlink:href="#DejaVuSans-69" x="351.171875"/>
     <use xlink:href="#DejaVuSans-6f" x="378.955078"/>
     <use xlink:href="#DejaVuSans-62" x="440.136719"/>
     <use xlink:href="#DejaVuSans-6a" x="503.613281"/>
     <use xlink:href="#DejaVuSans-20" x="531.396484"/>
     <use xlink:href="#DejaVuSans-66" x="563.183594"/>
     <use xlink:href="#DejaVuSans-31" x="598.388672"/>
     <use xlink:href="#DejaVuSans-2c" x="662.011719"/>
     <use xlink:href="#DejaVuSans-20" x="693.798828"/>
     <use xlink:href="#DejaVuSans-66" x="725.585938"/>
     <use xlink:href="#DejaVuSans-32" x="760.791016"/>
     <use xlink:href="#DejaVuSans-2c" x="824.414062"/>
     <use xlink:href="#DejaVuSans-20" x="856.201172"/>
     <use xlink:href="#DejaVuSans-66" x="887.988281"/>
     <use xlink:href="#DejaVuSans-31" x="923.193359"/>
     <use xlink:href="#DejaVuSans-31" x="986.816406"/>
     <use xlink:href="#DejaVuSans-2c" x="1050.439453"/>
     <use xlink:href="#DejaVuSans-20" x="1082.226562"/>
     <use xlink:href="#DejaVuSans-32" x="1114.013672"/>
     <use xlink:href="#DejaVuSans-2d" x="1177.636719"/>
     <use xlink:href="#DejaVuSans-44" x="1213.720703"/>
    </g>
    <!-- 58 targets: 1..-1.0e-4 -->
    <g transform="translate(60.632064 29.004495)scale(0.102 -0.102)">
     <defs>
      <path id="DejaVuSans-35" d="M 691 4666 
L 3169 4666 
L 3169 4134 
L 1269 4134 
L 1269 2991 
Q 1406 3038 1543 3061 
Q 1681 3084 1819 3084 
Q 2600 3084 3056 2656 
Q 3513 2228 3513 1497 
Q 3513 744 3044 326 
Q 2575 -91 1722 -91 
Q 1428 -91 1123 -41 
Q 819 9 494 109 
L 494 744 
Q 775 591 1075 516 
Q 1375 441 1709 441 
Q 2250 441 2565 725 
Q 2881 1009 2881 1497 
Q 2881 1984 2565 2268 
Q 2250 2553 1709 2553 
Q 1456 2553 1204 2497 
Q 953 2441 691 2322 
L 691 4666 
z
" transform="scale(0.015625)"/>
      <path id="DejaVuSans-3a" d="M 750 794 
L 1409 794 
L 1409 0 
L 750 0 
L 750 794 
z
M 750 3309 
L 1409 3309 
L 1409 2516 
L 750 2516 
L 750 3309 
z
" transform="scale(0.015625)"/>
     </defs>
     <use xlink:href="#DejaVuSans-35"/>
     <use xlink:href="#DejaVuSans-38" x="63.623047"/>
     <use xlink:href="#DejaVuSans-20" x="127.246094"/>
     <use xlink:href="#DejaVuSans-74" x="159.033203"/>
     <use xlink:href="#DejaVuSans-61" x="198.242188"/>
     <use xlink:href="#DejaVuSans-72" x="259.521484"/>
     <use xlink:href="#DejaVuSans-67" x="298.884766"/>
     <use xlink:href="#DejaVuSans-65" x="362.361328"/>
     <use xlink:href="#DejaVuSans-74" x="423.884766"/>
     <use xlink:href="#DejaVuSans-73" x="463.09375"/>
     <use xlink:href="#DejaVuSans-3a" x="515.193359"/>
     <use xlink:href="#DejaVuSans-20" x="548.884766"/>
     <use xlink:href="#DejaVuSans-31" x="580.671875"/>
     <use xlink:href="#DejaVuSans-2e" x="644.294922"/>
     <use xlink:href="#DejaVuSans-2e" x="676.082031"/>
     <use xlink:href="#DejaVuSans-2d" x="707.869141"/>
     <use xlink:href="#DejaVuSans-31" x="743.953125"/>
     <use xlink:href="#DejaVuSans-2e" x="807.576172"/>
     <use xlink:href="#DejaVuSans-30" x="839.363281"/>
     <use xlink:href="#DejaVuSans-65" x="902.986328"/>
     <use xlink:href="#DejaVuSans-2d" x="964.509766"/>
     <use xlink:href="#DejaVuSans-34" x="1000.59375"/>
    </g>
    <!-- 10 instances -->
    <g transform="translate(60.632064 40.426264)scale(0.102 -0.102)">
     <use xlink:href="#DejaVuSans-31"/>
     <use xlink:href="#DejaVuSans-30" x="63.623047"/>
     <use xlink:href="#DejaVuSans-20" x="127.246094"/>
     <use xlink:href="#DejaVuSans-69" x="159.033203"/>
     <use xlink:href="#DejaVuSans-6e" x="186.816406"/>
     <use xlink:href="#DejaVuSans-73" x="250.195312"/>
     <use xlink:href="#DejaVuSans-74" x="302.294922"/>
     <use xlink:href="#DejaVuSans-61" x="341.503906"/>
     <use xlink:href="#DejaVuSans-6e" x="402.783203"/>
     <use xlink:href="#DejaVuSans-63" x="466.162109"/>
     <use xlink:href="#DejaVuSans-65" x="521.142578"/>
     <use xlink:href="#DejaVuSans-73" x="582.666016"/>
    </g>
   </g>
   <g id="text_19">
    <!-- v2.6, hv-hash=ff0e71e8cd978373 -->
    <g style="fill: #808080" transform="translate(123.707887 293.943992)scale(0.1 -0.1)">
     <defs>
      <path id="DejaVuSans-68" d="M 3513 2113 
L 3513 0 
L 2938 0 
L 2938 2094 
Q 2938 2591 2744 2837 
Q 2550 3084 2163 3084 
Q 1697 3084 1428 2787 
Q 1159 2491 1159 1978 
L 1159 0 
L 581 0 
L 581 4863 
L 1159 4863 
L 1159 2956 
Q 1366 3272 1645 3428 
Q 1925 3584 2291 3584 
Q 2894 3584 3203 3211 
Q 3513 2838 3513 2113 
z
" transform="scale(0.015625)"/>
      <path id="DejaVuSans-3d" d="M 678 2906 
L 4684 2906 
L 4684 2381 
L 678 2381 
L 678 2906 
z
M 678 1631 
L 4684 1631 
L 4684 1100 
L 678 1100 
L 678 1631 
z
" transform="scale(0.015625)"/>
      <path id="DejaVuSans-37" d="M 525 4666 
L 3525 4666 
L 3525 4397 
L 1831 0 
L 1172 0 
L 2766 4134 
L 525 4134 
L 525 4666 
z
" transform="scale(0.015625)"/>
      <path id="DejaVuSans-39" d="M 703 97 
L 703 672 
Q 941 559 1184 500 
Q 1428 441 1663 441 
Q 2288 441 2617 861 
Q 2947 1281 2994 2138 
Q 2813 1869 2534 1725 
Q 2256 1581 1919 1581 
Q 1219 1581 811 2004 
Q 403 2428 403 3163 
Q 403 3881 828 4315 
Q 1253 4750 1959 4750 
Q 2769 4750 3195 4129 
Q 3622 3509 3622 2328 
Q 3622 1225 3098 567 
Q 2575 -91 1691 -91 
Q 1453 -91 1209 -44 
Q 966 3 703 97 
z
M 1959 2075 
Q 2384 2075 2632 2365 
Q 2881 2656 2881 3163 
Q 2881 3666 2632 3958 
Q 2384 4250 1959 4250 
Q 1534 4250 1286 3958 
Q 1038 3666 1038 3163 
Q 1038 2656 1286 2365 
Q 1534 2075 1959 2075 
z
" transform="scale(0.015625)"/>
      <path id="DejaVuSans-33" d="M 2597 2516 
Q 3050 2419 3304 2112 
Q 3559 1806 3559 1356 
Q 3559 666 3084 287 
Q 2609 -91 1734 -91 
Q 1441 -91 1130 -33 
Q 819 25 488 141 
L 488 750 
Q 750 597 1062 519 
Q 1375 441 1716 441 
Q 2309 441 2620 675 
Q 2931 909 2931 1356 
Q 2931 1769 2642 2001 
Q 2353 2234 1838 2234 
L 1294 2234 
L 1294 2753 
L 1863 2753 
Q 2328 2753 2575 2939 
Q 2822 3125 2822 3475 
Q 2822 3834 2567 4026 
Q 2313 4219 1838 4219 
Q 1578 4219 1281 4162 
Q 984 4106 628 3988 
L 628 4550 
Q 988 4650 1302 4700 
Q 1616 4750 1894 4750 
Q 2613 4750 3031 4423 
Q 3450 4097 3450 3541 
Q 3450 3153 3228 2886 
Q 3006 2619 2597 2516 
z
" transform="scale(0.015625)"/>
     </defs>
     <use xlink:href="#DejaVuSans-76"/>
     <use xlink:href="#DejaVuSans-32" x="59.179688"/>
     <use xlink:href="#DejaVuSans-2e" x="122.802734"/>
     <use xlink:href="#DejaVuSans-36" x="154.589844"/>
     <use xlink:href="#DejaVuSans-2c" x="218.212891"/>
     <use xlink:href="#DejaVuSans-20" x="250"/>
     <use xlink:href="#DejaVuSans-68" x="281.787109"/>
     <use xlink:href="#DejaVuSans-76" x="345.166016"/>
     <use xlink:href="#DejaVuSans-2d" x="401.720703"/>
     <use xlink:href="#DejaVuSans-68" x="437.804688"/>
     <use xlink:href="#DejaVuSans-61" x="501.183594"/>
     <use xlink:href="#DejaVuSans-73" x="562.462891"/>
     <use xlink:href="#DejaVuSans-68" x="614.5625"/>
     <use xlink:href="#DejaVuSans-3d" x="677.941406"/>
     <use xlink:href="#DejaVuSans-66" x="761.730469"/>
     <use xlink:href="#DejaVuSans-66" x="796.935547"/>
     <use xlink:href="#DejaVuSans-30" x="832.140625"/>
     <use xlink:href="#DejaVuSans-65" x="895.763672"/>
     <use xlink:href="#DejaVuSans-37" x="957.287109"/>
     <use xlink:href="#DejaVuSans-31" x="1020.910156"/>
     <use xlink:href="#DejaVuSans-65" x="1084.533203"/>
     <use xlink:href="#DejaVuSans-38" x="1146.056641"/>
     <use xlink:href="#DejaVuSans-63" x="1209.679688"/>
     <use xlink:href="#DejaVuSans-64" x="1264.660156"/>
     <use xlink:href="#DejaVuSans-39" x="1328.136719"/>
     <use xlink:href="#DejaVuSans-37" x="1391.759766"/>
     <use xlink:href="#DejaVuSans-38" x="1455.382812"/>
     <use xlink:href="#DejaVuSans-33" x="1519.005859"/>
     <use xlink:href="#DejaVuSans-37" x="1582.628906"/>
     <use xlink:href="#DejaVuSans-33" x="1646.251953"/>
    </g>
   </g>
  </g>
 </g>
 <defs>
  <clipPath id="pecef0742e3">
   <rect x="57.6" y="6.912" width="303.2064" height="292.032"/>
  </clipPath>
 </defs>
</svg>
