<?xml version="1.0" encoding="utf-8" standalone="no"?>
<!DOCTYPE svg PUBLIC "-//W3C//DTD SVG 1.1//EN"
  "http://www.w3.org/Graphics/SVG/1.1/DTD/svg11.dtd">
<svg xmlns:xlink="http://www.w3.org/1999/xlink" width="460.8pt" height="345.6pt" viewBox="0 0 460.8 345.6" xmlns="http://www.w3.org/2000/svg" version="1.1">
 <metadata>
  <rdf:RDF xmlns:dc="http://purl.org/dc/elements/1.1/" xmlns:cc="http://creativecommons.org/ns#" xmlns:rdf="http://www.w3.org/1999/02/22-rdf-syntax-ns#">
   <cc:Work>
    <dc:type rdf:resource="http://purl.org/dc/dcmitype/StillImage"/>
    <dc:date>2022-06-19T21:02:34.827131</dc:date>
    <dc:format>image/svg+xml</dc:format>
    <dc:creator>
     <cc:Agent>
      <dc:title>Matplotlib v3.5.1, https://matplotlib.org/</dc:title>
     </cc:Agent>
    </dc:creator>
   </cc:Work>
  </rdf:RDF>
 </metadata>
 <defs>
  <style type="text/css">*{stroke-linejoin: round; stroke-linecap: butt}</style>
 </defs>
 <g id="figure_1">
  <g id="patch_1">
   <path d="M 0 345.6 
L 460.8 345.6 
L 460.8 0 
L 0 0 
z
" style="fill: #ffffff"/>
  </g>
  <g id="axes_1">
   <g id="patch_2">
    <path d="M 57.6 298.944 
L 360.8064 298.944 
L 360.8064 6.912 
L 57.6 6.912 
z
" style="fill: #ffffff"/>
   </g>
   <g id="line2d_1">
    <path d="M 57.6 298.944 
L 57.6 297.265655 
L 70.639174 297.265655 
L 70.639174 293.908966 
L 78.266603 293.908966 
L 78.266603 292.230621 
L 82.04153 292.230621 
L 82.04153 288.873931 
L 89.090095 288.873931 
L 89.090095 285.517241 
L 92.322865 285.517241 
L 92.322865 283.838897 
L 95.080704 283.838897 
L 95.080704 280.482207 
L 99.617337 280.482207 
L 99.617337 277.125517 
L 101.532027 277.125517 
L 101.532027 275.447172 
L 105.850679 275.447172 
L 105.850679 272.090483 
L 108.542628 272.090483 
L 108.542628 270.412138 
L 108.956085 270.412138 
L 108.956085 268.733793 
L 110.144579 268.733793 
L 110.144579 263.698759 
L 111.620752 263.698759 
L 111.620752 258.663724 
L 112.317555 258.663724 
L 112.317555 255.307034 
L 115.168444 255.307034 
L 115.168444 250.272 
L 115.747307 250.272 
L 115.747307 248.593655 
L 118.889854 248.593655 
L 118.889854 245.236966 
L 123.936316 245.236966 
L 123.936316 241.880276 
L 124.659926 241.880276 
L 124.659926 238.523586 
L 128.499277 238.523586 
L 128.499277 236.845241 
L 129.209231 236.845241 
L 129.209231 231.810207 
L 132.168669 231.810207 
L 132.168669 230.131862 
L 133.765759 230.131862 
L 133.765759 226.775172 
L 135.835047 226.775172 
L 135.835047 223.418483 
L 137.963436 223.418483 
L 137.963436 216.705103 
L 139.232111 216.705103 
L 139.232111 211.670069 
L 140.649551 211.670069 
L 140.649551 206.635034 
L 142.932537 206.635034 
L 142.932537 203.278345 
L 144.541342 203.278345 
L 144.541342 199.921655 
L 146.695245 199.921655 
L 146.695245 196.564966 
L 149.117582 196.564966 
L 149.117582 193.208276 
L 149.829328 193.208276 
L 149.829328 191.529931 
L 153.612719 191.529931 
L 153.612719 188.173241 
L 155.147716 188.173241 
L 155.147716 184.816552 
L 157.143744 184.816552 
L 157.143744 179.781517 
L 158.890711 179.781517 
L 158.890711 178.103172 
L 166.632844 178.103172 
L 166.632844 174.746483 
L 168.825216 174.746483 
L 168.825216 173.068138 
L 172.732295 173.068138 
L 172.732295 171.389793 
L 173.435613 171.389793 
L 173.435613 166.354759 
L 178.154375 166.354759 
L 178.247119 159.641379 
L 180.428504 159.641379 
L 180.428504 154.606345 
L 184.693799 154.606345 
L 184.693799 152.928 
L 186.823342 152.928 
L 186.823342 147.892966 
L 188.54684 147.892966 
L 188.54684 142.857931 
L 190.643235 142.857931 
L 190.643235 139.501241 
L 197.860239 139.501241 
L 197.860239 136.144552 
L 199.712049 136.144552 
L 199.712049 132.787862 
L 200.591044 132.787862 
L 200.591044 131.109517 
L 202.536647 131.109517 
L 202.536647 129.431172 
L 205.845423 129.431172 
L 205.845423 127.752828 
L 208.837119 127.752828 
L 208.837119 122.717793 
L 208.954024 122.717793 
L 208.954024 117.682759 
L 215.256587 117.682759 
L 215.256587 112.647724 
L 218.221174 112.647724 
L 218.221174 110.969379 
L 221.251377 110.969379 
L 221.251377 109.291034 
L 223.326259 109.291034 
L 223.326259 107.61269 
L 225.070716 107.61269 
L 225.070716 102.577655 
L 225.528313 102.577655 
L 225.528313 97.542621 
L 227.220692 97.542621 
L 227.220692 92.507586 
L 230.496106 92.507586 
L 230.496106 89.150897 
L 232.600643 89.150897 
L 232.600643 85.794207 
L 234.196783 85.794207 
L 234.196783 82.437517 
L 236.442025 82.437517 
L 236.442025 79.080828 
L 237.836644 79.080828 
L 237.836644 75.724138 
L 239.242905 75.724138 
L 239.242905 74.045793 
L 242.054044 74.045793 
L 242.054044 70.689103 
L 242.821195 70.689103 
L 242.821195 67.332414 
L 244.736399 67.332414 
L 244.736399 65.654069 
L 247.254329 65.654069 
L 247.254329 60.619034 
L 248.689218 60.619034 
L 248.689218 58.94069 
L 249.240809 58.94069 
L 249.240809 55.584 
L 254.230008 55.584 
L 254.230008 52.22731 
L 254.417539 52.22731 
L 254.417539 47.192276 
L 260.158713 47.192276 
L 260.158713 42.157241 
L 360.8064 42.157241 
L 360.8064 42.157241 
" style="fill: none; stroke: #f5deb3; stroke-width: 4; stroke-linecap: square"/>
   </g>
   <g id="line2d_2">
    <defs>
     <path id="m297edf4a12" d="M 0 7.778175 
L 7.778175 0 
L 0 -7.778175 
L -7.778175 0 
z
" style="stroke: #f5deb3; stroke-width: 1.5; stroke-linejoin: miter"/>
    </defs>
    <g>
     <use xlink:href="#m297edf4a12" x="115.168444" y="250.272" style="fill: #f5deb3; stroke: #f5deb3; stroke-width: 1.5; stroke-linejoin: miter"/>
     <use xlink:href="#m297edf4a12" x="157.143744" y="184.816552" style="fill: #f5deb3; stroke: #f5deb3; stroke-width: 1.5; stroke-linejoin: miter"/>
     <use xlink:href="#m297edf4a12" x="247.254329" y="65.654069" style="fill: #f5deb3; stroke: #f5deb3; stroke-width: 1.5; stroke-linejoin: miter"/>
     <use xlink:href="#m297edf4a12" x="260.158713" y="42.157241" style="fill: #f5deb3; stroke: #f5deb3; stroke-width: 1.5; stroke-linejoin: miter"/>
     <use xlink:href="#m297edf4a12" x="360.8064" y="42.157241" style="fill: #f5deb3; stroke: #f5deb3; stroke-width: 1.5; stroke-linejoin: miter"/>
    </g>
   </g>
   <g id="line2d_3">
    <path style="fill: none; stroke: #f5deb3; stroke-width: 4; stroke-linecap: square"/>
    <g/>
   </g>
   <g id="line2d_4">
    <path d="M 360.8064 42.157241 
L 380.514816 12.75264 
" style="fill: none; stroke: #f5deb3; stroke-width: 4; stroke-linecap: square"/>
    <g>
     <use xlink:href="#m297edf4a12" x="360.8064" y="42.157241" style="fill: #f5deb3; stroke: #f5deb3; stroke-width: 1.5; stroke-linejoin: miter"/>
     <use xlink:href="#m297edf4a12" x="380.514816" y="12.75264" style="fill: #f5deb3; stroke: #f5deb3; stroke-width: 1.5; stroke-linejoin: miter"/>
    </g>
   </g>
   <g id="matplotlib.axis_1">
    <g id="xtick_1">
     <g id="line2d_5">
      <path d="M 57.6 298.944 
L 57.6 6.912 
" clip-path="url(#pa68b9bc4cf)" style="fill: none; stroke: #b0b0b0; stroke-width: 0.8; stroke-linecap: square"/>
     </g>
     <g id="line2d_6">
      <defs>
       <path id="madbd3e840f" d="M 0 0 
L 0 3.5 
" style="stroke: #000000; stroke-width: 0.8"/>
      </defs>
      <g>
       <use xlink:href="#madbd3e840f" x="57.6" y="298.944" style="stroke: #000000; stroke-width: 0.8"/>
      </g>
     </g>
     <g id="text_1">
      <!-- 0 -->
      <g transform="translate(52.191875 318.861344)scale(0.17 -0.17)">
       <defs>
        <path id="DejaVuSans-30" d="M 2034 4250 
Q 1547 4250 1301 3770 
Q 1056 3291 1056 2328 
Q 1056 1369 1301 889 
Q 1547 409 2034 409 
Q 2525 409 2770 889 
Q 3016 1369 3016 2328 
Q 3016 3291 2770 3770 
Q 2525 4250 2034 4250 
z
M 2034 4750 
Q 2819 4750 3233 4129 
Q 3647 3509 3647 2328 
Q 3647 1150 3233 529 
Q 2819 -91 2034 -91 
Q 1250 -91 836 529 
Q 422 1150 422 2328 
Q 422 3509 836 4129 
Q 1250 4750 2034 4750 
z
" transform="scale(0.015625)"/>
       </defs>
       <use xlink:href="#DejaVuSans-30"/>
      </g>
     </g>
    </g>
    <g id="xtick_2">
     <g id="line2d_7">
      <path d="M 144.2304 298.944 
L 144.2304 6.912 
" clip-path="url(#pa68b9bc4cf)" style="fill: none; stroke: #b0b0b0; stroke-width: 0.8; stroke-linecap: square"/>
     </g>
     <g id="line2d_8">
      <g>
       <use xlink:href="#madbd3e840f" x="144.2304" y="298.944" style="stroke: #000000; stroke-width: 0.8"/>
      </g>
     </g>
     <g id="text_2">
      <!-- 2 -->
      <g transform="translate(138.822275 318.861344)scale(0.17 -0.17)">
       <defs>
        <path id="DejaVuSans-32" d="M 1228 531 
L 3431 531 
L 3431 0 
L 469 0 
L 469 531 
Q 828 903 1448 1529 
Q 2069 2156 2228 2338 
Q 2531 2678 2651 2914 
Q 2772 3150 2772 3378 
Q 2772 3750 2511 3984 
Q 2250 4219 1831 4219 
Q 1534 4219 1204 4116 
Q 875 4013 500 3803 
L 500 4441 
Q 881 4594 1212 4672 
Q 1544 4750 1819 4750 
Q 2544 4750 2975 4387 
Q 3406 4025 3406 3419 
Q 3406 3131 3298 2873 
Q 3191 2616 2906 2266 
Q 2828 2175 2409 1742 
Q 1991 1309 1228 531 
z
" transform="scale(0.015625)"/>
       </defs>
       <use xlink:href="#DejaVuSans-32"/>
      </g>
     </g>
    </g>
    <g id="xtick_3">
     <g id="line2d_9">
      <path d="M 230.8608 298.944 
L 230.8608 6.912 
" clip-path="url(#pa68b9bc4cf)" style="fill: none; stroke: #b0b0b0; stroke-width: 0.8; stroke-linecap: square"/>
     </g>
     <g id="line2d_10">
      <g>
       <use xlink:href="#madbd3e840f" x="230.8608" y="298.944" style="stroke: #000000; stroke-width: 0.8"/>
      </g>
     </g>
     <g id="text_3">
      <!-- 4 -->
      <g transform="translate(225.452675 318.861344)scale(0.17 -0.17)">
       <defs>
        <path id="DejaVuSans-34" d="M 2419 4116 
L 825 1625 
L 2419 1625 
L 2419 4116 
z
M 2253 4666 
L 3047 4666 
L 3047 1625 
L 3713 1625 
L 3713 1100 
L 3047 1100 
L 3047 0 
L 2419 0 
L 2419 1100 
L 313 1100 
L 313 1709 
L 2253 4666 
z
" transform="scale(0.015625)"/>
       </defs>
       <use xlink:href="#DejaVuSans-34"/>
      </g>
     </g>
    </g>
    <g id="xtick_4">
     <g id="line2d_11">
      <path d="M 317.4912 298.944 
L 317.4912 6.912 
" clip-path="url(#pa68b9bc4cf)" style="fill: none; stroke: #b0b0b0; stroke-width: 0.8; stroke-linecap: square"/>
     </g>
     <g id="line2d_12">
      <g>
       <use xlink:href="#madbd3e840f" x="317.4912" y="298.944" style="stroke: #000000; stroke-width: 0.8"/>
      </g>
     </g>
     <g id="text_4">
      <!-- 6 -->
      <g transform="translate(312.083075 318.861344)scale(0.17 -0.17)">
       <defs>
        <path id="DejaVuSans-36" d="M 2113 2584 
Q 1688 2584 1439 2293 
Q 1191 2003 1191 1497 
Q 1191 994 1439 701 
Q 1688 409 2113 409 
Q 2538 409 2786 701 
Q 3034 994 3034 1497 
Q 3034 2003 2786 2293 
Q 2538 2584 2113 2584 
z
M 3366 4563 
L 3366 3988 
Q 3128 4100 2886 4159 
Q 2644 4219 2406 4219 
Q 1781 4219 1451 3797 
Q 1122 3375 1075 2522 
Q 1259 2794 1537 2939 
Q 1816 3084 2150 3084 
Q 2853 3084 3261 2657 
Q 3669 2231 3669 1497 
Q 3669 778 3244 343 
Q 2819 -91 2113 -91 
Q 1303 -91 875 529 
Q 447 1150 447 2328 
Q 447 3434 972 4092 
Q 1497 4750 2381 4750 
Q 2619 4750 2861 4703 
Q 3103 4656 3366 4563 
z
" transform="scale(0.015625)"/>
       </defs>
       <use xlink:href="#DejaVuSans-36"/>
      </g>
     </g>
    </g>
    <g id="xtick_5">
     <g id="line2d_13">
      <path d="M 100.9152 298.944 
L 100.9152 6.912 
" clip-path="url(#pa68b9bc4cf)" style="fill: none; stroke: #b0b0b0; stroke-width: 0.8; stroke-linecap: square"/>
     </g>
     <g id="line2d_14">
      <defs>
       <path id="m6512dd23a9" d="M 0 0 
L 0 2 
" style="stroke: #000000; stroke-width: 0.6"/>
      </defs>
      <g>
       <use xlink:href="#m6512dd23a9" x="100.9152" y="298.944" style="stroke: #000000; stroke-width: 0.6"/>
      </g>
     </g>
    </g>
    <g id="xtick_6">
     <g id="line2d_15">
      <path d="M 187.5456 298.944 
L 187.5456 6.912 
" clip-path="url(#pa68b9bc4cf)" style="fill: none; stroke: #b0b0b0; stroke-width: 0.8; stroke-linecap: square"/>
     </g>
     <g id="line2d_16">
      <g>
       <use xlink:href="#m6512dd23a9" x="187.5456" y="298.944" style="stroke: #000000; stroke-width: 0.6"/>
      </g>
     </g>
    </g>
    <g id="xtick_7">
     <g id="line2d_17">
      <path d="M 274.176 298.944 
L 274.176 6.912 
" clip-path="url(#pa68b9bc4cf)" style="fill: none; stroke: #b0b0b0; stroke-width: 0.8; stroke-linecap: square"/>
     </g>
     <g id="line2d_18">
      <g>
       <use xlink:href="#m6512dd23a9" x="274.176" y="298.944" style="stroke: #000000; stroke-width: 0.6"/>
      </g>
     </g>
    </g>
    <g id="xtick_8">
     <g id="line2d_19">
      <path d="M 360.8064 298.944 
L 360.8064 6.912 
" clip-path="url(#pa68b9bc4cf)" style="fill: none; stroke: #b0b0b0; stroke-width: 0.8; stroke-linecap: square"/>
     </g>
     <g id="line2d_20">
      <g>
       <use xlink:href="#m6512dd23a9" x="360.8064" y="298.944" style="stroke: #000000; stroke-width: 0.6"/>
      </g>
     </g>
    </g>
    <g id="text_5">
     <!-- log10(# f-evals / dimension) -->
     <g transform="translate(88.823278 339.314156)scale(0.17 -0.17)">
      <defs>
       <path id="DejaVuSans-6c" d="M 603 4863 
L 1178 4863 
L 1178 0 
L 603 0 
L 603 4863 
z
" transform="scale(0.015625)"/>
       <path id="DejaVuSans-6f" d="M 1959 3097 
Q 1497 3097 1228 2736 
Q 959 2375 959 1747 
Q 959 1119 1226 758 
Q 1494 397 1959 397 
Q 2419 397 2687 759 
Q 2956 1122 2956 1747 
Q 2956 2369 2687 2733 
Q 2419 3097 1959 3097 
z
M 1959 3584 
Q 2709 3584 3137 3096 
Q 3566 2609 3566 1747 
Q 3566 888 3137 398 
Q 2709 -91 1959 -91 
Q 1206 -91 779 398 
Q 353 888 353 1747 
Q 353 2609 779 3096 
Q 1206 3584 1959 3584 
z
" transform="scale(0.015625)"/>
       <path id="DejaVuSans-67" d="M 2906 1791 
Q 2906 2416 2648 2759 
Q 2391 3103 1925 3103 
Q 1463 3103 1205 2759 
Q 947 2416 947 1791 
Q 947 1169 1205 825 
Q 1463 481 1925 481 
Q 2391 481 2648 825 
Q 2906 1169 2906 1791 
z
M 3481 434 
Q 3481 -459 3084 -895 
Q 2688 -1331 1869 -1331 
Q 1566 -1331 1297 -1286 
Q 1028 -1241 775 -1147 
L 775 -588 
Q 1028 -725 1275 -790 
Q 1522 -856 1778 -856 
Q 2344 -856 2625 -561 
Q 2906 -266 2906 331 
L 2906 616 
Q 2728 306 2450 153 
Q 2172 0 1784 0 
Q 1141 0 747 490 
Q 353 981 353 1791 
Q 353 2603 747 3093 
Q 1141 3584 1784 3584 
Q 2172 3584 2450 3431 
Q 2728 3278 2906 2969 
L 2906 3500 
L 3481 3500 
L 3481 434 
z
" transform="scale(0.015625)"/>
       <path id="DejaVuSans-31" d="M 794 531 
L 1825 531 
L 1825 4091 
L 703 3866 
L 703 4441 
L 1819 4666 
L 2450 4666 
L 2450 531 
L 3481 531 
L 3481 0 
L 794 0 
L 794 531 
z
" transform="scale(0.015625)"/>
       <path id="DejaVuSans-28" d="M 1984 4856 
Q 1566 4138 1362 3434 
Q 1159 2731 1159 2009 
Q 1159 1288 1364 580 
Q 1569 -128 1984 -844 
L 1484 -844 
Q 1016 -109 783 600 
Q 550 1309 550 2009 
Q 550 2706 781 3412 
Q 1013 4119 1484 4856 
L 1984 4856 
z
" transform="scale(0.015625)"/>
       <path id="DejaVuSans-23" d="M 3272 2816 
L 2363 2816 
L 2100 1772 
L 3016 1772 
L 3272 2816 
z
M 2803 4594 
L 2478 3297 
L 3391 3297 
L 3719 4594 
L 4219 4594 
L 3897 3297 
L 4872 3297 
L 4872 2816 
L 3775 2816 
L 3519 1772 
L 4513 1772 
L 4513 1294 
L 3397 1294 
L 3072 0 
L 2572 0 
L 2894 1294 
L 1978 1294 
L 1656 0 
L 1153 0 
L 1478 1294 
L 494 1294 
L 494 1772 
L 1594 1772 
L 1856 2816 
L 850 2816 
L 850 3297 
L 1978 3297 
L 2297 4594 
L 2803 4594 
z
" transform="scale(0.015625)"/>
       <path id="DejaVuSans-20" transform="scale(0.015625)"/>
       <path id="DejaVuSans-66" d="M 2375 4863 
L 2375 4384 
L 1825 4384 
Q 1516 4384 1395 4259 
Q 1275 4134 1275 3809 
L 1275 3500 
L 2222 3500 
L 2222 3053 
L 1275 3053 
L 1275 0 
L 697 0 
L 697 3053 
L 147 3053 
L 147 3500 
L 697 3500 
L 697 3744 
Q 697 4328 969 4595 
Q 1241 4863 1831 4863 
L 2375 4863 
z
" transform="scale(0.015625)"/>
       <path id="DejaVuSans-2d" d="M 313 2009 
L 1997 2009 
L 1997 1497 
L 313 1497 
L 313 2009 
z
" transform="scale(0.015625)"/>
       <path id="DejaVuSans-65" d="M 3597 1894 
L 3597 1613 
L 953 1613 
Q 991 1019 1311 708 
Q 1631 397 2203 397 
Q 2534 397 2845 478 
Q 3156 559 3463 722 
L 3463 178 
Q 3153 47 2828 -22 
Q 2503 -91 2169 -91 
Q 1331 -91 842 396 
Q 353 884 353 1716 
Q 353 2575 817 3079 
Q 1281 3584 2069 3584 
Q 2775 3584 3186 3129 
Q 3597 2675 3597 1894 
z
M 3022 2063 
Q 3016 2534 2758 2815 
Q 2500 3097 2075 3097 
Q 1594 3097 1305 2825 
Q 1016 2553 972 2059 
L 3022 2063 
z
" transform="scale(0.015625)"/>
       <path id="DejaVuSans-76" d="M 191 3500 
L 800 3500 
L 1894 563 
L 2988 3500 
L 3597 3500 
L 2284 0 
L 1503 0 
L 191 3500 
z
" transform="scale(0.015625)"/>
       <path id="DejaVuSans-61" d="M 2194 1759 
Q 1497 1759 1228 1600 
Q 959 1441 959 1056 
Q 959 750 1161 570 
Q 1363 391 1709 391 
Q 2188 391 2477 730 
Q 2766 1069 2766 1631 
L 2766 1759 
L 2194 1759 
z
M 3341 1997 
L 3341 0 
L 2766 0 
L 2766 531 
Q 2569 213 2275 61 
Q 1981 -91 1556 -91 
Q 1019 -91 701 211 
Q 384 513 384 1019 
Q 384 1609 779 1909 
Q 1175 2209 1959 2209 
L 2766 2209 
L 2766 2266 
Q 2766 2663 2505 2880 
Q 2244 3097 1772 3097 
Q 1472 3097 1187 3025 
Q 903 2953 641 2809 
L 641 3341 
Q 956 3463 1253 3523 
Q 1550 3584 1831 3584 
Q 2591 3584 2966 3190 
Q 3341 2797 3341 1997 
z
" transform="scale(0.015625)"/>
       <path id="DejaVuSans-73" d="M 2834 3397 
L 2834 2853 
Q 2591 2978 2328 3040 
Q 2066 3103 1784 3103 
Q 1356 3103 1142 2972 
Q 928 2841 928 2578 
Q 928 2378 1081 2264 
Q 1234 2150 1697 2047 
L 1894 2003 
Q 2506 1872 2764 1633 
Q 3022 1394 3022 966 
Q 3022 478 2636 193 
Q 2250 -91 1575 -91 
Q 1294 -91 989 -36 
Q 684 19 347 128 
L 347 722 
Q 666 556 975 473 
Q 1284 391 1588 391 
Q 1994 391 2212 530 
Q 2431 669 2431 922 
Q 2431 1156 2273 1281 
Q 2116 1406 1581 1522 
L 1381 1569 
Q 847 1681 609 1914 
Q 372 2147 372 2553 
Q 372 3047 722 3315 
Q 1072 3584 1716 3584 
Q 2034 3584 2315 3537 
Q 2597 3491 2834 3397 
z
" transform="scale(0.015625)"/>
       <path id="DejaVuSans-2f" d="M 1625 4666 
L 2156 4666 
L 531 -594 
L 0 -594 
L 1625 4666 
z
" transform="scale(0.015625)"/>
       <path id="DejaVuSans-64" d="M 2906 2969 
L 2906 4863 
L 3481 4863 
L 3481 0 
L 2906 0 
L 2906 525 
Q 2725 213 2448 61 
Q 2172 -91 1784 -91 
Q 1150 -91 751 415 
Q 353 922 353 1747 
Q 353 2572 751 3078 
Q 1150 3584 1784 3584 
Q 2172 3584 2448 3432 
Q 2725 3281 2906 2969 
z
M 947 1747 
Q 947 1113 1208 752 
Q 1469 391 1925 391 
Q 2381 391 2643 752 
Q 2906 1113 2906 1747 
Q 2906 2381 2643 2742 
Q 2381 3103 1925 3103 
Q 1469 3103 1208 2742 
Q 947 2381 947 1747 
z
" transform="scale(0.015625)"/>
       <path id="DejaVuSans-69" d="M 603 3500 
L 1178 3500 
L 1178 0 
L 603 0 
L 603 3500 
z
M 603 4863 
L 1178 4863 
L 1178 4134 
L 603 4134 
L 603 4863 
z
" transform="scale(0.015625)"/>
       <path id="DejaVuSans-6d" d="M 3328 2828 
Q 3544 3216 3844 3400 
Q 4144 3584 4550 3584 
Q 5097 3584 5394 3201 
Q 5691 2819 5691 2113 
L 5691 0 
L 5113 0 
L 5113 2094 
Q 5113 2597 4934 2840 
Q 4756 3084 4391 3084 
Q 3944 3084 3684 2787 
Q 3425 2491 3425 1978 
L 3425 0 
L 2847 0 
L 2847 2094 
Q 2847 2600 2669 2842 
Q 2491 3084 2119 3084 
Q 1678 3084 1418 2786 
Q 1159 2488 1159 1978 
L 1159 0 
L 581 0 
L 581 3500 
L 1159 3500 
L 1159 2956 
Q 1356 3278 1631 3431 
Q 1906 3584 2284 3584 
Q 2666 3584 2933 3390 
Q 3200 3197 3328 2828 
z
" transform="scale(0.015625)"/>
       <path id="DejaVuSans-6e" d="M 3513 2113 
L 3513 0 
L 2938 0 
L 2938 2094 
Q 2938 2591 2744 2837 
Q 2550 3084 2163 3084 
Q 1697 3084 1428 2787 
Q 1159 2491 1159 1978 
L 1159 0 
L 581 0 
L 581 3500 
L 1159 3500 
L 1159 2956 
Q 1366 3272 1645 3428 
Q 1925 3584 2291 3584 
Q 2894 3584 3203 3211 
Q 3513 2838 3513 2113 
z
" transform="scale(0.015625)"/>
       <path id="DejaVuSans-29" d="M 513 4856 
L 1013 4856 
Q 1481 4119 1714 3412 
Q 1947 2706 1947 2009 
Q 1947 1309 1714 600 
Q 1481 -109 1013 -844 
L 513 -844 
Q 928 -128 1133 580 
Q 1338 1288 1338 2009 
Q 1338 2731 1133 3434 
Q 928 4138 513 4856 
z
" transform="scale(0.015625)"/>
      </defs>
      <use xlink:href="#DejaVuSans-6c"/>
      <use xlink:href="#DejaVuSans-6f" x="27.783203"/>
      <use xlink:href="#DejaVuSans-67" x="88.964844"/>
      <use xlink:href="#DejaVuSans-31" x="152.441406"/>
      <use xlink:href="#DejaVuSans-30" x="216.064453"/>
      <use xlink:href="#DejaVuSans-28" x="279.6875"/>
      <use xlink:href="#DejaVuSans-23" x="318.701172"/>
      <use xlink:href="#DejaVuSans-20" x="402.490234"/>
      <use xlink:href="#DejaVuSans-66" x="434.277344"/>
      <use xlink:href="#DejaVuSans-2d" x="463.982422"/>
      <use xlink:href="#DejaVuSans-65" x="500.066406"/>
      <use xlink:href="#DejaVuSans-76" x="561.589844"/>
      <use xlink:href="#DejaVuSans-61" x="620.769531"/>
      <use xlink:href="#DejaVuSans-6c" x="682.048828"/>
      <use xlink:href="#DejaVuSans-73" x="709.832031"/>
      <use xlink:href="#DejaVuSans-20" x="761.931641"/>
      <use xlink:href="#DejaVuSans-2f" x="793.71875"/>
      <use xlink:href="#DejaVuSans-20" x="827.410156"/>
      <use xlink:href="#DejaVuSans-64" x="859.197266"/>
      <use xlink:href="#DejaVuSans-69" x="922.673828"/>
      <use xlink:href="#DejaVuSans-6d" x="950.457031"/>
      <use xlink:href="#DejaVuSans-65" x="1047.869141"/>
      <use xlink:href="#DejaVuSans-6e" x="1109.392578"/>
      <use xlink:href="#DejaVuSans-73" x="1172.771484"/>
      <use xlink:href="#DejaVuSans-69" x="1224.871094"/>
      <use xlink:href="#DejaVuSans-6f" x="1252.654297"/>
      <use xlink:href="#DejaVuSans-6e" x="1313.835938"/>
      <use xlink:href="#DejaVuSans-29" x="1377.214844"/>
     </g>
    </g>
   </g>
   <g id="matplotlib.axis_2">
    <g id="ytick_1">
     <g id="line2d_21">
      <path d="M 57.6 298.944 
L 360.8064 298.944 
" clip-path="url(#pa68b9bc4cf)" style="fill: none; stroke: #b0b0b0; stroke-width: 0.8; stroke-linecap: square"/>
     </g>
     <g id="line2d_22">
      <defs>
       <path id="m12030d6791" d="M 0 0 
L -3.5 0 
" style="stroke: #000000; stroke-width: 0.8"/>
      </defs>
      <g>
       <use xlink:href="#m12030d6791" x="57.6" y="298.944" style="stroke: #000000; stroke-width: 0.8"/>
      </g>
     </g>
     <g id="text_6">
      <!-- 0.0 -->
      <g transform="translate(25.155 305.02275)scale(0.16 -0.16)">
       <defs>
        <path id="DejaVuSans-2e" d="M 684 794 
L 1344 794 
L 1344 0 
L 684 0 
L 684 794 
z
" transform="scale(0.015625)"/>
       </defs>
       <use xlink:href="#DejaVuSans-30"/>
       <use xlink:href="#DejaVuSans-2e" x="63.623047"/>
       <use xlink:href="#DejaVuSans-30" x="95.410156"/>
      </g>
     </g>
    </g>
    <g id="ytick_2">
     <g id="line2d_23">
      <path d="M 57.6 240.5376 
L 360.8064 240.5376 
" clip-path="url(#pa68b9bc4cf)" style="fill: none; stroke: #b0b0b0; stroke-width: 0.8; stroke-linecap: square"/>
     </g>
     <g id="line2d_24">
      <g>
       <use xlink:href="#m12030d6791" x="57.6" y="240.5376" style="stroke: #000000; stroke-width: 0.8"/>
      </g>
     </g>
     <g id="text_7">
      <!-- 0.2 -->
      <g transform="translate(25.155 246.61635)scale(0.16 -0.16)">
       <use xlink:href="#DejaVuSans-30"/>
       <use xlink:href="#DejaVuSans-2e" x="63.623047"/>
       <use xlink:href="#DejaVuSans-32" x="95.410156"/>
      </g>
     </g>
    </g>
    <g id="ytick_3">
     <g id="line2d_25">
      <path d="M 57.6 182.1312 
L 360.8064 182.1312 
" clip-path="url(#pa68b9bc4cf)" style="fill: none; stroke: #b0b0b0; stroke-width: 0.8; stroke-linecap: square"/>
     </g>
     <g id="line2d_26">
      <g>
       <use xlink:href="#m12030d6791" x="57.6" y="182.1312" style="stroke: #000000; stroke-width: 0.8"/>
      </g>
     </g>
     <g id="text_8">
      <!-- 0.4 -->
      <g transform="translate(25.155 188.20995)scale(0.16 -0.16)">
       <use xlink:href="#DejaVuSans-30"/>
       <use xlink:href="#DejaVuSans-2e" x="63.623047"/>
       <use xlink:href="#DejaVuSans-34" x="95.410156"/>
      </g>
     </g>
    </g>
    <g id="ytick_4">
     <g id="line2d_27">
      <path d="M 57.6 123.7248 
L 360.8064 123.7248 
" clip-path="url(#pa68b9bc4cf)" style="fill: none; stroke: #b0b0b0; stroke-width: 0.8; stroke-linecap: square"/>
     </g>
     <g id="line2d_28">
      <g>
       <use xlink:href="#m12030d6791" x="57.6" y="123.7248" style="stroke: #000000; stroke-width: 0.8"/>
      </g>
     </g>
     <g id="text_9">
      <!-- 0.6 -->
      <g transform="translate(25.155 129.80355)scale(0.16 -0.16)">
       <use xlink:href="#DejaVuSans-30"/>
       <use xlink:href="#DejaVuSans-2e" x="63.623047"/>
       <use xlink:href="#DejaVuSans-36" x="95.410156"/>
      </g>
     </g>
    </g>
    <g id="ytick_5">
     <g id="line2d_29">
      <path d="M 57.6 65.3184 
L 360.8064 65.3184 
" clip-path="url(#pa68b9bc4cf)" style="fill: none; stroke: #b0b0b0; stroke-width: 0.8; stroke-linecap: square"/>
     </g>
     <g id="line2d_30">
      <g>
       <use xlink:href="#m12030d6791" x="57.6" y="65.3184" style="stroke: #000000; stroke-width: 0.8"/>
      </g>
     </g>
     <g id="text_10">
      <!-- 0.8 -->
      <g transform="translate(25.155 71.39715)scale(0.16 -0.16)">
       <defs>
        <path id="DejaVuSans-38" d="M 2034 2216 
Q 1584 2216 1326 1975 
Q 1069 1734 1069 1313 
Q 1069 891 1326 650 
Q 1584 409 2034 409 
Q 2484 409 2743 651 
Q 3003 894 3003 1313 
Q 3003 1734 2745 1975 
Q 2488 2216 2034 2216 
z
M 1403 2484 
Q 997 2584 770 2862 
Q 544 3141 544 3541 
Q 544 4100 942 4425 
Q 1341 4750 2034 4750 
Q 2731 4750 3128 4425 
Q 3525 4100 3525 3541 
Q 3525 3141 3298 2862 
Q 3072 2584 2669 2484 
Q 3125 2378 3379 2068 
Q 3634 1759 3634 1313 
Q 3634 634 3220 271 
Q 2806 -91 2034 -91 
Q 1263 -91 848 271 
Q 434 634 434 1313 
Q 434 1759 690 2068 
Q 947 2378 1403 2484 
z
M 1172 3481 
Q 1172 3119 1398 2916 
Q 1625 2713 2034 2713 
Q 2441 2713 2670 2916 
Q 2900 3119 2900 3481 
Q 2900 3844 2670 4047 
Q 2441 4250 2034 4250 
Q 1625 4250 1398 4047 
Q 1172 3844 1172 3481 
z
" transform="scale(0.015625)"/>
       </defs>
       <use xlink:href="#DejaVuSans-30"/>
       <use xlink:href="#DejaVuSans-2e" x="63.623047"/>
       <use xlink:href="#DejaVuSans-38" x="95.410156"/>
      </g>
     </g>
    </g>
    <g id="ytick_6">
     <g id="line2d_31">
      <path d="M 57.6 6.912 
L 360.8064 6.912 
" clip-path="url(#pa68b9bc4cf)" style="fill: none; stroke: #b0b0b0; stroke-width: 0.8; stroke-linecap: square"/>
     </g>
     <g id="line2d_32">
      <g>
       <use xlink:href="#m12030d6791" x="57.6" y="6.912" style="stroke: #000000; stroke-width: 0.8"/>
      </g>
     </g>
     <g id="text_11">
      <!-- 1.0 -->
      <g transform="translate(25.155 12.99075)scale(0.16 -0.16)">
       <use xlink:href="#DejaVuSans-31"/>
       <use xlink:href="#DejaVuSans-2e" x="63.623047"/>
       <use xlink:href="#DejaVuSans-30" x="95.410156"/>
      </g>
     </g>
    </g>
    <g id="text_12">
     <!-- Fraction of function,target pairs -->
     <g transform="translate(17.619531 287.313)rotate(-90)scale(0.17 -0.17)">
      <defs>
       <path id="DejaVuSans-46" d="M 628 4666 
L 3309 4666 
L 3309 4134 
L 1259 4134 
L 1259 2759 
L 3109 2759 
L 3109 2228 
L 1259 2228 
L 1259 0 
L 628 0 
L 628 4666 
z
" transform="scale(0.015625)"/>
       <path id="DejaVuSans-72" d="M 2631 2963 
Q 2534 3019 2420 3045 
Q 2306 3072 2169 3072 
Q 1681 3072 1420 2755 
Q 1159 2438 1159 1844 
L 1159 0 
L 581 0 
L 581 3500 
L 1159 3500 
L 1159 2956 
Q 1341 3275 1631 3429 
Q 1922 3584 2338 3584 
Q 2397 3584 2469 3576 
Q 2541 3569 2628 3553 
L 2631 2963 
z
" transform="scale(0.015625)"/>
       <path id="DejaVuSans-63" d="M 3122 3366 
L 3122 2828 
Q 2878 2963 2633 3030 
Q 2388 3097 2138 3097 
Q 1578 3097 1268 2742 
Q 959 2388 959 1747 
Q 959 1106 1268 751 
Q 1578 397 2138 397 
Q 2388 397 2633 464 
Q 2878 531 3122 666 
L 3122 134 
Q 2881 22 2623 -34 
Q 2366 -91 2075 -91 
Q 1284 -91 818 406 
Q 353 903 353 1747 
Q 353 2603 823 3093 
Q 1294 3584 2113 3584 
Q 2378 3584 2631 3529 
Q 2884 3475 3122 3366 
z
" transform="scale(0.015625)"/>
       <path id="DejaVuSans-74" d="M 1172 4494 
L 1172 3500 
L 2356 3500 
L 2356 3053 
L 1172 3053 
L 1172 1153 
Q 1172 725 1289 603 
Q 1406 481 1766 481 
L 2356 481 
L 2356 0 
L 1766 0 
Q 1100 0 847 248 
Q 594 497 594 1153 
L 594 3053 
L 172 3053 
L 172 3500 
L 594 3500 
L 594 4494 
L 1172 4494 
z
" transform="scale(0.015625)"/>
       <path id="DejaVuSans-75" d="M 544 1381 
L 544 3500 
L 1119 3500 
L 1119 1403 
Q 1119 906 1312 657 
Q 1506 409 1894 409 
Q 2359 409 2629 706 
Q 2900 1003 2900 1516 
L 2900 3500 
L 3475 3500 
L 3475 0 
L 2900 0 
L 2900 538 
Q 2691 219 2414 64 
Q 2138 -91 1772 -91 
Q 1169 -91 856 284 
Q 544 659 544 1381 
z
M 1991 3584 
L 1991 3584 
z
" transform="scale(0.015625)"/>
       <path id="DejaVuSans-2c" d="M 750 794 
L 1409 794 
L 1409 256 
L 897 -744 
L 494 -744 
L 750 256 
L 750 794 
z
" transform="scale(0.015625)"/>
       <path id="DejaVuSans-70" d="M 1159 525 
L 1159 -1331 
L 581 -1331 
L 581 3500 
L 1159 3500 
L 1159 2969 
Q 1341 3281 1617 3432 
Q 1894 3584 2278 3584 
Q 2916 3584 3314 3078 
Q 3713 2572 3713 1747 
Q 3713 922 3314 415 
Q 2916 -91 2278 -91 
Q 1894 -91 1617 61 
Q 1341 213 1159 525 
z
M 3116 1747 
Q 3116 2381 2855 2742 
Q 2594 3103 2138 3103 
Q 1681 3103 1420 2742 
Q 1159 2381 1159 1747 
Q 1159 1113 1420 752 
Q 1681 391 2138 391 
Q 2594 391 2855 752 
Q 3116 1113 3116 1747 
z
" transform="scale(0.015625)"/>
      </defs>
      <use xlink:href="#DejaVuSans-46"/>
      <use xlink:href="#DejaVuSans-72" x="50.269531"/>
      <use xlink:href="#DejaVuSans-61" x="91.382812"/>
      <use xlink:href="#DejaVuSans-63" x="152.662109"/>
      <use xlink:href="#DejaVuSans-74" x="207.642578"/>
      <use xlink:href="#DejaVuSans-69" x="246.851562"/>
      <use xlink:href="#DejaVuSans-6f" x="274.634766"/>
      <use xlink:href="#DejaVuSans-6e" x="335.816406"/>
      <use xlink:href="#DejaVuSans-20" x="399.195312"/>
      <use xlink:href="#DejaVuSans-6f" x="430.982422"/>
      <use xlink:href="#DejaVuSans-66" x="492.164062"/>
      <use xlink:href="#DejaVuSans-20" x="527.369141"/>
      <use xlink:href="#DejaVuSans-66" x="559.15625"/>
      <use xlink:href="#DejaVuSans-75" x="594.361328"/>
      <use xlink:href="#DejaVuSans-6e" x="657.740234"/>
      <use xlink:href="#DejaVuSans-63" x="721.119141"/>
      <use xlink:href="#DejaVuSans-74" x="776.099609"/>
      <use xlink:href="#DejaVuSans-69" x="815.308594"/>
      <use xlink:href="#DejaVuSans-6f" x="843.091797"/>
      <use xlink:href="#DejaVuSans-6e" x="904.273438"/>
      <use xlink:href="#DejaVuSans-2c" x="967.652344"/>
      <use xlink:href="#DejaVuSans-74" x="999.439453"/>
      <use xlink:href="#DejaVuSans-61" x="1038.648438"/>
      <use xlink:href="#DejaVuSans-72" x="1099.927734"/>
      <use xlink:href="#DejaVuSans-67" x="1139.291016"/>
      <use xlink:href="#DejaVuSans-65" x="1202.767578"/>
      <use xlink:href="#DejaVuSans-74" x="1264.291016"/>
      <use xlink:href="#DejaVuSans-20" x="1303.5"/>
      <use xlink:href="#DejaVuSans-70" x="1335.287109"/>
      <use xlink:href="#DejaVuSans-61" x="1398.763672"/>
      <use xlink:href="#DejaVuSans-69" x="1460.042969"/>
      <use xlink:href="#DejaVuSans-72" x="1487.826172"/>
      <use xlink:href="#DejaVuSans-73" x="1528.939453"/>
     </g>
    </g>
   </g>
   <g id="line2d_33">
    <defs>
     <path id="m0b4e6f1311" d="M 0 1.5 
C 0.397805 1.5 0.77937 1.341951 1.06066 1.06066 
C 1.341951 0.77937 1.5 0.397805 1.5 0 
C 1.5 -0.397805 1.341951 -0.77937 1.06066 -1.06066 
C 0.77937 -1.341951 0.397805 -1.5 0 -1.5 
C -0.397805 -1.5 -0.77937 -1.341951 -1.06066 -1.06066 
C -1.341951 -0.77937 -1.5 -0.397805 -1.5 0 
C -1.5 0.397805 -1.341951 0.77937 -1.06066 1.06066 
C -0.77937 1.341951 -0.397805 1.5 0 1.5 
z
" style="stroke: #f5deb3"/>
    </defs>
    <g>
     <use xlink:href="#m0b4e6f1311" x="260.158713" y="42.157241" style="fill: #f5deb3; stroke: #f5deb3"/>
     <use xlink:href="#m0b4e6f1311" x="260.158713" y="42.157241" style="fill: #f5deb3; stroke: #f5deb3"/>
    </g>
   </g>
   <g id="line2d_34">
    <defs>
     <path id="m478fc8e629" d="M 0 1.5 
C 0.397805 1.5 0.77937 1.341951 1.06066 1.06066 
C 1.341951 0.77937 1.5 0.397805 1.5 0 
C 1.5 -0.397805 1.341951 -0.77937 1.06066 -1.06066 
C 0.77937 -1.341951 0.397805 -1.5 0 -1.5 
C -0.397805 -1.5 -0.77937 -1.341951 -1.06066 -1.06066 
C -1.341951 -0.77937 -1.5 -0.397805 -1.5 0 
C -1.5 0.397805 -1.341951 0.77937 -1.06066 1.06066 
C -0.77937 1.341951 -0.397805 1.5 0 1.5 
z
" style="stroke: #000080"/>
    </defs>
    <g>
     <use xlink:href="#m478fc8e629" x="78.266603" y="274.775834" style="fill: #000080; stroke: #000080"/>
     <use xlink:href="#m478fc8e629" x="78.266603" y="274.775834" style="fill: #000080; stroke: #000080"/>
    </g>
   </g>
   <g id="line2d_35">
    <path d="M 36.933397 298.944 
L 36.933397 291.894952 
L 49.972572 291.894952 
L 49.972572 290.887945 
L 57.6 290.887945 
L 57.6 288.202593 
L 63.011746 288.202593 
L 63.011746 287.69909 
L 67.209423 287.69909 
L 67.209423 285.181572 
L 70.639174 285.181572 
L 70.639174 281.992717 
L 73.538988 281.992717 
L 73.538988 279.139531 
L 76.050921 279.139531 
L 76.050921 278.468193 
L 78.266603 278.468193 
L 78.266603 274.775834 
L 360.8064 274.775834 
" style="fill: none; stroke: #000080; stroke-width: 1.5; stroke-linecap: square"/>
   </g>
   <g id="line2d_36">
    <defs>
     <path id="m951e1a4cd0" d="M 0 6 
C 1.591219 6 3.117479 5.367802 4.242641 4.242641 
C 5.367802 3.117479 6 1.591219 6 0 
C 6 -1.591219 5.367802 -3.117479 4.242641 -4.242641 
C 3.117479 -5.367802 1.591219 -6 0 -6 
C -1.591219 -6 -3.117479 -5.367802 -4.242641 -4.242641 
C -5.367802 -3.117479 -6 -1.591219 -6 0 
C -6 1.591219 -5.367802 3.117479 -4.242641 4.242641 
C -3.117479 5.367802 -1.591219 6 0 6 
z
" style="stroke: #000080; stroke-width: 1.5"/>
    </defs>
    <g>
     <use xlink:href="#m951e1a4cd0" x="78.266603" y="278.468193" style="fill-opacity: 0; stroke: #000080; stroke-width: 1.5"/>
     <use xlink:href="#m951e1a4cd0" x="78.266603" y="278.468193" style="fill-opacity: 0; stroke: #000080; stroke-width: 1.5"/>
     <use xlink:href="#m951e1a4cd0" x="78.266603" y="274.775834" style="fill-opacity: 0; stroke: #000080; stroke-width: 1.5"/>
     <use xlink:href="#m951e1a4cd0" x="78.266603" y="274.775834" style="fill-opacity: 0; stroke: #000080; stroke-width: 1.5"/>
     <use xlink:href="#m951e1a4cd0" x="78.266603" y="274.775834" style="fill-opacity: 0; stroke: #000080; stroke-width: 1.5"/>
     <use xlink:href="#m951e1a4cd0" x="360.8064" y="274.775834" style="fill-opacity: 0; stroke: #000080; stroke-width: 1.5"/>
    </g>
   </g>
   <g id="line2d_37">
    <path style="fill: none; stroke: #000080; stroke-width: 1.5; stroke-linecap: square"/>
    <g/>
   </g>
   <g id="line2d_38">
    <path d="M 78.266603 274.775834 
" clip-path="url(#pa68b9bc4cf)" style="fill: none; stroke: #000080; stroke-width: 1.5; stroke-linecap: square"/>
    <defs>
     <path id="mff132da540" d="M -12 12 
L 12 -12 
M -12 -12 
L 12 12 
" style="stroke: #000080"/>
    </defs>
    <g clip-path="url(#pa68b9bc4cf)">
     <use xlink:href="#mff132da540" x="78.266603" y="274.775834" style="fill: #000080; stroke: #000080"/>
    </g>
   </g>
   <g id="line2d_39">
    <defs>
     <path id="m9bdc33b6a2" d="M 0 1.5 
C 0.397805 1.5 0.77937 1.341951 1.06066 1.06066 
C 1.341951 0.77937 1.5 0.397805 1.5 0 
C 1.5 -0.397805 1.341951 -0.77937 1.06066 -1.06066 
C 0.77937 -1.341951 0.397805 -1.5 0 -1.5 
C -0.397805 -1.5 -0.77937 -1.341951 -1.06066 -1.06066 
C -1.341951 -0.77937 -1.5 -0.397805 -1.5 0 
C -1.5 0.397805 -1.341951 0.77937 -1.06066 1.06066 
C -0.77937 1.341951 -0.397805 1.5 0 1.5 
z
" style="stroke: #ff00ff"/>
    </defs>
    <g>
     <use xlink:href="#m9bdc33b6a2" x="273.293683" y="96.03211" style="fill: #ff00ff; stroke: #ff00ff"/>
     <use xlink:href="#m9bdc33b6a2" x="273.293683" y="96.03211" style="fill: #ff00ff; stroke: #ff00ff"/>
    </g>
   </g>
   <g id="line2d_40">
    <path d="M 36.933397 298.944 
L 36.933397 291.894952 
L 49.972572 291.894952 
L 49.972572 291.223614 
L 57.6 291.223614 
L 57.6 288.873931 
L 63.011746 288.873931 
L 63.011746 287.866924 
L 67.209423 287.866924 
L 67.209423 286.524248 
L 70.639174 286.524248 
L 70.639174 284.845903 
L 73.538988 284.845903 
L 73.538988 280.650041 
L 76.050921 280.650041 
L 76.050921 280.482207 
L 78.266603 280.482207 
L 78.266603 279.810869 
L 80.248597 279.810869 
L 80.248597 279.643034 
L 82.04153 279.643034 
L 82.04153 279.4752 
L 86.578163 279.4752 
L 86.578163 276.622014 
L 89.090095 276.622014 
L 89.090095 276.11851 
L 90.230539 276.11851 
L 90.230539 275.447172 
L 91.305777 275.447172 
L 91.305777 274.943669 
L 92.322865 274.943669 
L 92.322865 273.433159 
L 93.287772 273.433159 
L 93.287772 272.426152 
L 94.205591 272.426152 
L 94.205591 271.25131 
L 98.223251 271.25131 
L 98.223251 269.908634 
L 98.933205 269.908634 
L 98.933205 269.7408 
L 99.617337 269.7408 
L 99.617337 269.572966 
L 100.277459 269.572966 
L 100.277459 268.901628 
L 100.9152 268.901628 
L 100.9152 268.733793 
L 101.532027 268.733793 
L 101.532027 268.398124 
L 102.12927 268.398124 
L 102.12927 268.062455 
L 102.708132 268.062455 
L 102.708132 267.558952 
L 103.269713 267.558952 
L 103.269713 266.887614 
L 103.815014 266.887614 
L 103.815014 266.38411 
L 104.860369 266.38411 
L 104.860369 266.216276 
L 105.36204 266.216276 
L 105.36204 265.880607 
L 105.850679 265.880607 
L 105.850679 265.209269 
L 106.326946 265.209269 
L 106.326946 265.041434 
L 108.956085 265.041434 
L 108.956085 264.705766 
L 109.360651 264.705766 
L 109.360651 264.370097 
L 110.897141 264.370097 
L 110.897141 263.36309 
L 111.262425 263.36309 
L 111.262425 263.195255 
L 111.620752 263.195255 
L 111.620752 262.859586 
L 114.265316 262.859586 
L 114.265316 262.356083 
L 115.168444 262.356083 
L 115.168444 261.013407 
L 116.854188 261.013407 
L 116.854188 260.845572 
L 117.121023 260.845572 
L 117.121023 260.509903 
L 117.6436 260.509903 
L 117.6436 260.0064 
L 117.899543 260.0064 
L 117.899543 258.999393 
L 118.152051 258.999393 
L 118.152051 258.831559 
L 119.599808 258.831559 
L 119.599808 257.992386 
L 120.506564 257.992386 
L 120.506564 257.824552 
L 120.726585 257.824552 
L 120.726585 257.488883 
L 120.944062 257.488883 
L 120.944062 257.153214 
L 121.789667 257.153214 
L 121.789667 256.64971 
L 121.99526 256.64971 
L 121.99526 256.481876 
L 122.19863 256.481876 
L 122.19863 255.1392 
L 122.399825 255.1392 
L 122.399825 254.803531 
L 122.990812 254.803531 
L 122.990812 254.635697 
L 123.183753 254.635697 
L 123.183753 253.62869 
L 123.374735 253.62869 
L 123.374735 252.957352 
L 123.563797 252.957352 
L 123.563797 252.118179 
L 123.750979 252.118179 
L 123.750979 251.446841 
L 123.936316 251.446841 
L 123.936316 250.943338 
L 125.011554 250.943338 
L 125.011554 250.775503 
L 125.184934 250.775503 
L 125.184934 250.272 
L 125.35673 250.272 
L 125.35673 250.104166 
L 126.355808 250.104166 
L 126.355808 249.936331 
L 126.677381 249.936331 
L 126.677381 249.432828 
L 126.836129 249.432828 
L 126.836129 248.76149 
L 127.458055 248.76149 
L 127.458055 248.425821 
L 127.610376 248.425821 
L 127.610376 248.257986 
L 127.761474 248.257986 
L 127.761474 248.090152 
L 128.354013 248.090152 
L 128.354013 247.754483 
L 128.499277 247.754483 
L 128.499277 246.579641 
L 128.643427 246.579641 
L 128.643427 245.236966 
L 128.786481 245.236966 
L 128.786481 244.901297 
L 129.209231 244.901297 
L 129.209231 244.229959 
L 129.622688 244.229959 
L 129.622688 243.726455 
L 129.758512 243.726455 
L 129.758512 243.558621 
L 130.292209 243.558621 
L 130.292209 243.390786 
L 130.553485 243.390786 
L 130.553485 242.887283 
L 130.682774 242.887283 
L 130.682774 242.551614 
L 131.191226 242.551614 
L 131.191226 242.383779 
L 131.563744 242.383779 
L 131.563744 241.880276 
L 131.808053 241.880276 
L 131.808053 241.208938 
L 131.929028 241.208938 
L 131.929028 240.5376 
L 132.168669 240.5376 
L 132.168669 240.369766 
L 132.287354 240.369766 
L 132.287354 240.201931 
L 132.405295 240.201931 
L 132.405295 239.530593 
L 132.754746 239.530593 
L 132.754746 239.194924 
L 133.097823 239.194924 
L 133.097823 238.691421 
L 133.210806 238.691421 
L 133.210806 238.523586 
L 133.656071 238.523586 
L 133.765759 237.516579 
L 133.874812 237.516579 
L 133.983236 236.845241 
L 134.516177 236.845241 
L 134.620977 236.509572 
L 134.931919 236.509572 
L 135.034434 236.006069 
L 135.438999 236.006069 
L 135.438999 235.838234 
L 135.638065 235.838234 
L 135.638065 235.166897 
L 135.835047 235.166897 
L 135.932769 233.320717 
L 136.413909 233.320717 
L 136.413909 232.985048 
L 136.696795 232.985048 
L 136.696795 232.481545 
L 136.88305 232.481545 
L 136.97549 232.145876 
L 137.067478 232.145876 
L 137.159019 231.138869 
L 137.250116 231.138869 
L 137.250116 230.635366 
L 137.430998 230.635366 
L 137.430998 230.299697 
L 137.610157 230.299697 
L 137.610157 229.964028 
L 137.787626 229.964028 
L 137.787626 229.628359 
L 137.963436 229.628359 
L 138.050729 229.124855 
L 138.224108 229.124855 
L 138.224108 228.789186 
L 138.395904 228.789186 
L 138.481218 227.614345 
L 138.566146 227.614345 
L 138.566146 227.278676 
L 138.73486 227.278676 
L 138.818654 226.607338 
L 138.902075 226.607338 
L 138.985129 226.271669 
L 139.313723 226.271669 
L 139.313723 225.936 
L 139.636676 225.936 
L 139.636676 225.432497 
L 139.875304 225.432497 
L 139.875304 225.096828 
L 140.188837 225.096828 
L 140.26641 224.761159 
L 140.420604 224.761159 
L 140.420604 224.42549 
L 140.649551 224.42549 
L 140.649551 224.089821 
L 141.246793 224.089821 
L 141.246793 223.754152 
L 141.465959 223.754152 
L 141.465959 222.914979 
L 142.178603 222.914979 
L 142.178603 222.747145 
L 142.317949 222.747145 
L 142.317949 221.907972 
L 142.45627 221.907972 
L 142.45627 221.740138 
L 142.661862 221.740138 
L 142.661862 221.404469 
L 142.932537 221.404469 
L 142.999601 220.565297 
L 143.265494 220.565297 
L 143.265494 220.397462 
L 143.786262 220.397462 
L 143.786262 220.229628 
L 144.041338 220.229628 
L 144.041338 219.893959 
L 144.293001 219.893959 
L 144.293001 219.726124 
L 144.541342 219.726124 
L 144.602918 218.886952 
L 144.664294 218.886952 
L 144.664294 218.383448 
L 144.968202 218.383448 
L 145.0284 217.71211 
L 145.678157 217.71211 
L 145.736128 217.208607 
L 146.023332 217.208607 
L 146.023332 216.872938 
L 146.695245 216.872938 
L 146.695245 216.537269 
L 147.237402 216.537269 
L 147.343984 215.362428 
L 148.175569 215.362428 
L 148.175569 215.194593 
L 149.500528 215.194593 
L 149.500528 214.858924 
L 149.829328 214.858924 
L 149.829328 214.69109 
L 150.198193 214.69109 
L 150.198193 214.523255 
L 150.334674 214.523255 
L 150.334674 214.355421 
L 150.559965 214.355421 
L 150.559965 214.187586 
L 151.392277 214.187586 
L 151.435079 213.684083 
L 151.815978 213.684083 
L 151.815978 213.516248 
L 152.675851 213.516248 
L 152.675851 213.180579 
L 153.266838 213.180579 
L 153.344252 212.84491 
L 154.322673 212.84491 
L 154.322673 212.341407 
L 155.147716 212.341407 
L 155.147716 212.173572 
L 156.105602 212.173572 
L 156.105602 211.837903 
L 156.53428 211.837903 
L 156.53428 211.670069 
L 156.793307 211.670069 
L 156.857511 211.3344 
L 157.269574 211.3344 
L 157.269574 210.495228 
L 157.672805 210.495228 
L 157.672805 210.327393 
L 158.513014 210.327393 
L 158.513014 209.991724 
L 159.176172 209.991724 
L 159.176172 209.656055 
L 159.289155 209.656055 
L 159.317295 209.152552 
L 159.651731 209.152552 
L 159.651731 208.649048 
L 160.303279 208.649048 
L 160.303279 208.313379 
L 161.492316 208.313379 
L 161.492316 207.97771 
L 161.815163 207.97771 
L 161.815163 207.642041 
L 162.180921 207.642041 
L 162.180921 207.306372 
L 162.444694 207.306372 
L 162.444694 207.138538 
L 162.610645 207.138538 
L 162.657792 205.963697 
L 163.44172 205.963697 
L 163.486831 205.628028 
L 163.666204 205.628028 
L 163.666204 205.292359 
L 163.976048 205.292359 
L 164.019898 204.788855 
L 164.129077 204.788855 
L 164.129077 204.453186 
L 164.302457 204.453186 
L 164.302457 204.285352 
L 164.452864 204.285352 
L 164.516958 203.446179 
L 164.602079 203.446179 
L 164.602079 203.11051 
L 165.31046 203.11051 
L 165.35131 202.607007 
L 165.794904 202.607007 
L 165.794904 202.439172 
L 166.032527 202.439172 
L 166.032527 201.935669 
L 166.344759 201.935669 
L 166.344759 201.6 
L 166.518139 201.6 
L 166.613775 200.760828 
L 166.632844 200.760828 
L 166.632844 200.592993 
L 166.822478 200.592993 
L 166.822478 200.425159 
L 167.251516 200.425159 
L 167.251516 200.257324 
L 167.453299 200.257324 
L 167.453299 200.08949 
L 167.634879 200.08949 
L 167.634879 199.921655 
L 167.886182 199.921655 
L 167.886182 199.418152 
L 168.063651 199.418152 
L 168.116567 197.907641 
L 168.221954 197.907641 
L 168.256952 197.404138 
L 168.465585 197.404138 
L 168.500134 196.900634 
L 168.757243 196.900634 
L 168.825216 196.061462 
L 168.876036 196.061462 
L 168.943582 195.557959 
L 169.044448 195.557959 
L 169.044448 195.390124 
L 169.178101 195.390124 
L 169.277721 194.886621 
L 169.409732 194.886621 
L 169.458999 194.383117 
L 169.589749 194.383117 
L 169.671008 194.047448 
L 169.735764 194.047448 
L 169.735764 193.879614 
L 169.896685 193.879614 
L 169.944694 192.872607 
L 170.087991 192.872607 
L 170.151329 192.536938 
L 170.324419 192.536938 
L 170.324419 192.201269 
L 170.526947 192.201269 
L 170.635104 191.362097 
L 170.834332 191.362097 
L 170.834332 191.194262 
L 171.001277 191.194262 
L 171.106748 190.858593 
L 171.345629 190.858593 
L 171.434432 190.35509 
L 171.463941 190.35509 
L 171.493403 190.019421 
L 171.654625 190.019421 
L 171.669213 189.683752 
L 171.88669 189.683752 
L 171.88669 189.515917 
L 172.04459 189.515917 
L 172.087425 188.844579 
L 172.314244 188.844579 
L 172.314244 188.50891 
L 172.440637 188.50891 
L 172.440637 188.173241 
L 172.580086 188.173241 
L 172.580086 188.005407 
L 172.801076 188.005407 
L 172.883283 187.501903 
L 172.937888 187.501903 
L 172.937888 187.166234 
L 173.060174 187.166234 
L 173.10076 186.662731 
L 173.18167 186.662731 
L 173.275627 185.48789 
L 173.395744 185.48789 
L 173.475398 183.64171 
L 173.673069 183.64171 
L 173.77765 182.802538 
L 173.946365 182.802538 
L 174.023726 182.466869 
L 174.087951 182.466869 
L 174.087951 182.299034 
L 174.266624 182.299034 
L 174.279322 181.627697 
L 174.380595 181.627697 
L 174.481327 180.788524 
L 174.506426 180.788524 
L 174.569026 180.452855 
L 174.681186 180.452855 
L 174.767961 179.445848 
L 175.02591 179.445848 
L 175.050293 178.77451 
L 175.26833 178.77451 
L 175.352444 177.431834 
L 175.55517 177.431834 
L 175.638014 176.760497 
L 175.685191 176.760497 
L 175.685191 176.592662 
L 176.173528 176.592662 
L 176.173528 176.424828 
L 176.344907 176.424828 
L 176.435674 175.585655 
L 176.57101 175.585655 
L 176.649508 174.746483 
L 176.72768 174.746483 
L 176.827712 173.739476 
L 176.927215 173.739476 
L 176.982268 173.235972 
L 177.091893 173.235972 
L 177.091893 173.068138 
L 177.265975 173.068138 
L 177.265975 172.732469 
L 177.427726 172.732469 
L 177.427726 172.564634 
L 177.545466 172.564634 
L 177.566794 172.228966 
L 177.799823 172.228966 
L 177.852384 171.893297 
L 178.113008 171.893297 
L 178.154375 171.054124 
L 178.400683 171.054124 
L 178.492224 170.047117 
L 178.522639 170.047117 
L 178.522639 169.879283 
L 178.784194 169.879283 
L 178.863946 168.704441 
L 178.943362 168.704441 
L 179.052014 167.697434 
L 179.267453 167.697434 
L 179.267453 167.5296 
L 179.403277 167.5296 
L 179.451549 166.690428 
L 179.528527 166.690428 
L 179.624309 165.851255 
L 179.738608 165.851255 
L 179.814423 165.012083 
L 179.993268 165.012083 
L 180.096038 163.837241 
L 180.299909 163.837241 
L 180.299909 163.669407 
L 180.52893 163.669407 
L 180.6107 162.998069 
L 180.646928 162.998069 
L 180.655974 162.6624 
L 180.880727 162.6624 
L 180.916439 162.158897 
L 181.005425 162.158897 
L 181.040902 161.487559 
L 181.435472 161.487559 
L 181.513403 160.144883 
L 181.736739 160.144883 
L 181.736739 159.977048 
L 181.864391 159.977048 
L 181.864391 159.809214 
L 182.05006 159.809214 
L 182.092004 158.970041 
L 182.217275 158.970041 
L 182.300329 158.634372 
L 182.563662 158.634372 
L 182.596321 158.298703 
L 182.742588 158.298703 
L 182.742588 158.130869 
L 182.887728 158.130869 
L 182.887728 157.963034 
L 183.007827 157.963034 
L 183.103358 157.459531 
L 183.198406 157.459531 
L 183.198406 157.291697 
L 183.410524 157.291697 
L 183.410524 157.123862 
L 183.64344 157.123862 
L 183.720442 156.452524 
L 183.820075 156.452524 
L 183.919184 155.949021 
L 183.979915 155.949021 
L 183.987493 155.613352 
L 184.100793 155.613352 
L 184.190945 154.774179 
L 184.310478 154.774179 
L 184.340243 154.43851 
L 184.510485 154.43851 
L 184.591363 153.599338 
L 184.781159 153.599338 
L 184.853651 153.095834 
L 184.918655 153.095834 
L 184.954672 152.760166 
L 185.479812 152.760166 
L 185.479812 152.592331 
L 185.674752 152.592331 
L 185.764578 151.753159 
L 185.79213 151.753159 
L 185.881399 150.913986 
L 185.94978 150.913986 
L 185.983877 150.074814 
L 186.06546 150.074814 
L 186.166943 149.067807 
L 186.361605 149.067807 
L 186.361605 148.564303 
L 186.541048 148.564303 
L 186.59389 148.0608 
L 186.803784 148.0608 
L 186.803784 147.892966 
L 186.979078 147.892966 
L 187.088617 147.053793 
L 187.133536 147.053793 
L 187.216674 146.214621 
L 187.40714 146.214621 
L 187.476498 145.711117 
L 187.551869 145.711117 
L 187.551869 145.543283 
L 187.670594 145.543283 
L 187.763798 145.039779 
L 187.868873 145.039779 
L 187.868873 144.871945 
L 188.186685 144.871945 
L 188.283402 143.864938 
L 188.385623 143.864938 
L 188.403605 143.1936 
L 188.694894 143.1936 
L 188.694894 143.025766 
L 188.993357 143.025766 
L 189.080246 142.522262 
L 189.10912 142.522262 
L 189.10912 142.186593 
L 189.327128 142.186593 
L 189.355626 141.68309 
L 189.615802 141.68309 
L 189.615802 141.347421 
L 189.744553 141.347421 
L 189.744553 141.179586 
L 189.982923 141.179586 
L 190.092771 140.508248 
L 190.696345 140.508248 
L 190.759879 140.004745 
L 191.105536 140.004745 
L 191.147005 139.669076 
L 191.24513 139.669076 
L 191.24513 139.333407 
L 191.363232 139.333407 
L 191.409245 138.829903 
L 191.526325 138.829903 
L 191.526325 138.662069 
L 191.64268 138.662069 
L 191.64268 138.494234 
L 191.773351 138.494234 
L 191.883214 137.990731 
L 192.360104 137.990731 
L 192.360104 137.655062 
L 192.519627 137.655062 
L 192.519627 137.487228 
L 192.692124 137.487228 
L 192.801507 137.151559 
L 193.149183 137.151559 
L 193.149183 136.983724 
L 193.599946 136.983724 
L 193.640806 136.480221 
L 193.785372 136.480221 
L 193.785372 136.312386 
L 194.04016 136.312386 
L 194.04016 136.144552 
L 194.387677 136.144552 
L 194.387677 135.976717 
L 194.522309 135.976717 
L 194.522309 135.808883 
L 195.401553 135.808883 
L 195.401553 135.473214 
L 195.94296 135.473214 
L 195.94296 135.137545 
L 196.174268 135.137545 
L 196.261268 134.801876 
L 196.288865 134.801876 
L 196.288865 134.634041 
L 196.843956 134.634041 
L 196.843956 134.466207 
L 196.988749 134.466207 
L 196.988749 134.298372 
L 197.32357 134.298372 
L 197.32357 134.130538 
L 197.685483 134.130538 
L 197.685483 133.962703 
L 198.672323 133.962703 
L 198.758893 133.4592 
L 198.975298 133.4592 
L 198.975298 133.291366 
L 199.293629 133.291366 
L 199.360669 132.787862 
L 199.675889 132.787862 
L 199.675889 132.452193 
L 199.833172 132.452193 
L 199.833172 132.284359 
L 200.889548 132.284359 
L 200.92653 131.94869 
L 202.099182 131.94869 
L 202.099182 131.613021 
L 203.631815 131.613021 
L 203.631815 131.445186 
L 203.764666 131.445186 
L 203.764666 131.277352 
L 203.930733 131.277352 
L 203.930733 130.941683 
L 204.255953 130.941683 
L 204.255953 130.606014 
L 204.524858 130.606014 
L 204.524858 130.438179 
L 204.679332 130.438179 
L 204.679332 130.270345 
L 204.792481 130.270345 
L 204.792481 130.10251 
L 205.355536 130.10251 
L 205.360402 129.766841 
L 205.599673 129.766841 
L 205.657223 129.431172 
L 205.71937 129.431172 
L 205.71937 129.263338 
L 206.062246 129.263338 
L 206.062246 129.095503 
L 206.58906 129.095503 
L 206.58906 128.759834 
L 206.860515 128.759834 
L 206.860515 128.592 
L 207.034884 128.592 
L 207.034884 128.424166 
L 207.868381 128.424166 
L 207.919402 128.088497 
L 209.016211 128.088497 
L 209.016211 127.920662 
L 209.143951 127.920662 
L 209.143951 127.752828 
L 209.341823 127.752828 
L 209.341823 127.417159 
L 209.980417 127.417159 
L 209.980417 127.249324 
L 210.372064 127.249324 
L 210.372064 127.08149 
L 211.146025 127.08149 
L 211.146025 126.745821 
L 211.54591 126.745821 
L 211.54591 126.577986 
L 211.751369 126.577986 
L 211.751369 126.074483 
L 212.932616 126.074483 
L 212.932616 125.738814 
L 213.155719 125.738814 
L 213.155719 125.570979 
L 213.461786 125.570979 
L 213.461786 125.403145 
L 213.720892 125.403145 
L 213.720892 125.23531 
L 214.002614 125.23531 
L 214.079277 124.899641 
L 214.176952 124.899641 
L 214.207371 124.396138 
L 214.514875 124.396138 
L 214.514875 124.228303 
L 214.774717 124.228303 
L 214.877658 123.7248 
L 214.972743 123.7248 
L 214.972743 123.556966 
L 216.287136 123.556966 
L 216.287136 123.221297 
L 216.405145 123.221297 
L 216.43217 122.885628 
L 216.720254 122.885628 
L 216.720254 122.717793 
L 217.261565 122.717793 
L 217.261565 122.382124 
L 217.705893 122.382124 
L 217.705893 122.21429 
L 218.689213 122.21429 
L 218.714345 121.542952 
L 219.763321 121.542952 
L 219.803997 121.207283 
L 220.404907 121.207283 
L 220.404907 120.703779 
L 220.8692 120.703779 
L 220.8692 120.36811 
L 221.258691 120.36811 
L 221.258691 120.032441 
L 222.42327 120.032441 
L 222.42327 119.864607 
L 223.056656 119.864607 
L 223.056656 119.528938 
L 223.214551 119.528938 
L 223.266263 119.025434 
L 223.709804 119.025434 
L 223.709804 118.689766 
L 223.931339 118.689766 
L 223.931339 118.521931 
L 224.585084 118.521931 
L 224.658471 118.018428 
L 225.245629 118.018428 
L 225.245629 117.682759 
L 225.698217 117.682759 
L 225.789577 117.34709 
L 226.14984 117.34709 
L 226.14984 117.179255 
L 226.331007 117.179255 
L 226.331007 117.011421 
L 226.457427 117.011421 
L 226.457427 116.843586 
L 226.612892 116.843586 
L 226.612892 116.675752 
L 227.243506 116.675752 
L 227.243506 116.507917 
L 227.615994 116.507917 
L 227.615994 116.172248 
L 227.971017 116.172248 
L 227.979789 115.836579 
L 228.587419 115.836579 
L 228.62771 115.50091 
L 228.783111 115.50091 
L 228.783111 115.333076 
L 229.522583 115.333076 
L 229.522583 115.165241 
L 230.702116 115.165241 
L 230.783514 114.661738 
L 230.925276 114.661738 
L 230.925276 114.493903 
L 231.25298 114.493903 
L 231.325918 113.822566 
L 231.472165 113.822566 
L 231.478841 113.319062 
L 233.506835 113.319062 
L 233.506835 112.983393 
L 233.864061 112.983393 
L 233.864061 112.815559 
L 234.79478 112.815559 
L 234.79478 112.47989 
L 235.571128 112.47989 
L 235.571128 112.312055 
L 236.317171 112.312055 
L 236.317171 112.144221 
L 236.449015 112.144221 
L 236.449015 111.976386 
L 236.645987 111.976386 
L 236.65797 111.472883 
L 237.275719 111.472883 
L 237.275719 111.305048 
L 237.410776 111.305048 
L 237.410776 111.137214 
L 238.884911 111.137214 
L 238.884911 110.969379 
L 239.194652 110.969379 
L 239.194652 110.801545 
L 239.701906 110.801545 
L 239.701906 110.465876 
L 239.826124 110.465876 
L 239.826124 110.130207 
L 240.237406 110.130207 
L 240.338458 109.626703 
L 240.596587 109.626703 
L 240.596587 109.458869 
L 242.744339 109.458869 
L 242.744339 109.291034 
L 242.924834 109.291034 
L 242.924834 109.1232 
L 243.686511 109.1232 
L 243.686511 108.955366 
L 243.970698 108.955366 
L 243.970698 108.787531 
L 244.337238 108.787531 
L 244.337238 108.619697 
L 245.787298 108.619697 
L 245.809405 108.116193 
L 245.950225 108.116193 
L 245.950225 107.780524 
L 246.1988 107.780524 
L 246.1988 107.61269 
L 246.482162 107.61269 
L 246.482162 107.277021 
L 246.911786 107.277021 
L 246.947815 106.773517 
L 247.026573 106.773517 
L 247.095216 106.437848 
L 248.229371 106.437848 
L 248.229371 106.270014 
L 248.82508 106.270014 
L 248.82508 106.102179 
L 249.079856 106.102179 
L 249.079856 105.934345 
L 249.281127 105.934345 
L 249.281127 105.598676 
L 250.33272 105.598676 
L 250.33272 105.263007 
L 250.488645 105.263007 
L 250.488645 104.927338 
L 251.024319 104.927338 
L 251.024319 104.759503 
L 251.645336 104.759503 
L 251.645336 104.591669 
L 252.118524 104.591669 
L 252.118524 104.256 
L 252.642255 104.256 
L 252.642255 104.088166 
L 255.665792 104.088166 
L 255.665792 103.920331 
L 256.203691 103.920331 
L 256.203691 103.416828 
L 256.541981 103.416828 
L 256.541981 103.248993 
L 257.826337 103.248993 
L 257.826337 102.913324 
L 257.939646 102.913324 
L 257.939646 102.577655 
L 260.957768 102.577655 
L 260.957768 102.409821 
L 261.07389 102.409821 
L 261.07389 102.074152 
L 261.750376 102.074152 
L 261.750376 101.906317 
L 262.182248 101.906317 
L 262.182248 101.738483 
L 263.175321 101.738483 
L 263.175321 101.570648 
L 263.805836 101.570648 
L 263.881532 100.563641 
L 264.008239 100.563641 
L 264.008239 100.227972 
L 264.30146 100.227972 
L 264.408209 99.556634 
L 264.739577 99.556634 
L 264.8144 99.220966 
L 266.193561 99.220966 
L 266.290407 97.87829 
L 266.903654 97.87829 
L 267.012987 97.374786 
L 268.375249 97.374786 
L 268.375249 97.206952 
L 270.68135 97.206952 
L 270.68135 97.039117 
L 270.816622 97.039117 
L 270.816622 96.871283 
L 272.017255 96.871283 
L 272.017255 96.703448 
L 272.899422 96.703448 
L 272.899422 96.367779 
L 273.293683 96.367779 
L 273.293683 96.03211 
L 360.8064 96.03211 
L 360.8064 96.03211 
" style="fill: none; stroke: #ff00ff; stroke-width: 1.5; stroke-linecap: square"/>
   </g>
   <g id="line2d_41">
    <defs>
     <path id="m3cf121f12a" d="M 0 8.485281 
L 5.091169 0 
L 0 -8.485281 
L -5.091169 0 
z
" style="stroke: #ff00ff; stroke-width: 1.5; stroke-linejoin: miter"/>
    </defs>
    <g>
     <use xlink:href="#m3cf121f12a" x="138.224108" y="228.789186" style="fill-opacity: 0; stroke: #ff00ff; stroke-width: 1.5; stroke-linejoin: miter"/>
     <use xlink:href="#m3cf121f12a" x="187.868873" y="145.039779" style="fill-opacity: 0; stroke: #ff00ff; stroke-width: 1.5; stroke-linejoin: miter"/>
     <use xlink:href="#m3cf121f12a" x="261.750376" y="102.074152" style="fill-opacity: 0; stroke: #ff00ff; stroke-width: 1.5; stroke-linejoin: miter"/>
     <use xlink:href="#m3cf121f12a" x="273.293683" y="96.03211" style="fill-opacity: 0; stroke: #ff00ff; stroke-width: 1.5; stroke-linejoin: miter"/>
     <use xlink:href="#m3cf121f12a" x="273.293683" y="96.03211" style="fill-opacity: 0; stroke: #ff00ff; stroke-width: 1.5; stroke-linejoin: miter"/>
     <use xlink:href="#m3cf121f12a" x="360.8064" y="96.03211" style="fill-opacity: 0; stroke: #ff00ff; stroke-width: 1.5; stroke-linejoin: miter"/>
    </g>
   </g>
   <g id="line2d_42">
    <path style="fill: none; stroke: #ff00ff; stroke-width: 1.5; stroke-linecap: square"/>
    <g/>
   </g>
   <g id="line2d_43">
    <path d="M 274.176063 96.03211 
" clip-path="url(#pa68b9bc4cf)" style="fill: none; stroke: #ff00ff; stroke-width: 1.5; stroke-linecap: square"/>
    <defs>
     <path id="me351167f22" d="M -12 12 
L 12 -12 
M -12 -12 
L 12 12 
" style="stroke: #ff00ff"/>
    </defs>
    <g clip-path="url(#pa68b9bc4cf)">
     <use xlink:href="#me351167f22" x="274.176063" y="96.03211" style="fill: #ff00ff; stroke: #ff00ff"/>
    </g>
   </g>
   <g id="line2d_44">
    <defs>
     <path id="mcddeec549d" d="M 0 1.5 
C 0.397805 1.5 0.77937 1.341951 1.06066 1.06066 
C 1.341951 0.77937 1.5 0.397805 1.5 0 
C 1.5 -0.397805 1.341951 -0.77937 1.06066 -1.06066 
C 0.77937 -1.341951 0.397805 -1.5 0 -1.5 
C -0.397805 -1.5 -0.77937 -1.341951 -1.06066 -1.06066 
C -1.341951 -0.77937 -1.5 -0.397805 -1.5 0 
C -1.5 0.397805 -1.341951 0.77937 -1.06066 1.06066 
C -0.77937 1.341951 -0.397805 1.5 0 1.5 
z
" style="stroke: #6495ed"/>
    </defs>
    <g>
     <use xlink:href="#mcddeec549d" x="113.954374" y="231.978041" style="fill: #6495ed; stroke: #6495ed"/>
     <use xlink:href="#mcddeec549d" x="113.954374" y="231.978041" style="fill: #6495ed; stroke: #6495ed"/>
    </g>
   </g>
   <g id="line2d_45">
    <path d="M 36.933397 298.944 
L 36.933397 293.405462 
L 49.972572 293.405462 
L 49.972572 292.734124 
L 57.6 292.734124 
L 57.6 291.223614 
L 63.011746 291.223614 
L 63.011746 286.020745 
L 67.209423 286.020745 
L 67.209423 285.85291 
L 70.639174 285.85291 
L 70.639174 284.845903 
L 73.538988 284.845903 
L 73.538988 284.678069 
L 76.050921 284.678069 
L 76.050921 284.3424 
L 78.266603 284.3424 
L 78.266603 283.335393 
L 80.248597 283.335393 
L 80.248597 282.83189 
L 82.04153 282.83189 
L 82.04153 282.664055 
L 83.678349 282.664055 
L 83.678349 282.328386 
L 85.184077 282.328386 
L 85.184077 280.817876 
L 86.578163 280.817876 
L 86.578163 279.978703 
L 89.090095 279.978703 
L 89.090095 279.643034 
L 90.230539 279.643034 
L 90.230539 279.139531 
L 91.305777 279.139531 
L 91.305777 277.96469 
L 92.322865 277.96469 
L 92.322865 277.629021 
L 93.287772 277.629021 
L 93.287772 276.789848 
L 94.205591 276.789848 
L 94.205591 275.950676 
L 95.080704 275.950676 
L 95.080704 275.615007 
L 95.916911 275.615007 
L 95.916911 275.111503 
L 96.717523 275.111503 
L 96.717523 271.586979 
L 97.485448 271.586979 
L 97.485448 271.419145 
L 98.933205 271.419145 
L 98.933205 270.579972 
L 99.617337 270.579972 
L 99.617337 269.405131 
L 100.277459 269.405131 
L 100.277459 267.726786 
L 100.9152 267.726786 
L 100.9152 266.719779 
L 102.708132 266.719779 
L 102.708132 265.041434 
L 103.269713 265.041434 
L 103.269713 264.202262 
L 103.815014 264.202262 
L 103.815014 262.523917 
L 104.344952 262.523917 
L 104.344952 261.852579 
L 104.860369 261.852579 
L 104.860369 260.509903 
L 105.36204 260.509903 
L 105.36204 258.49589 
L 105.850679 258.49589 
L 105.850679 257.153214 
L 106.326946 257.153214 
L 106.326946 253.796524 
L 106.791453 253.796524 
L 106.791453 253.125186 
L 107.244765 253.125186 
L 107.244765 250.104166 
L 107.68741 250.104166 
L 107.68741 248.593655 
L 108.119879 248.593655 
L 108.119879 247.586648 
L 108.542628 247.586648 
L 108.542628 245.908303 
L 108.956085 245.908303 
L 108.956085 245.572634 
L 109.360651 245.572634 
L 109.360651 245.236966 
L 109.756698 245.236966 
L 109.756698 244.062124 
L 110.144579 244.062124 
L 110.144579 243.89429 
L 110.524623 243.89429 
L 110.524623 241.712441 
L 110.897141 241.712441 
L 110.897141 238.523586 
L 111.262425 238.523586 
L 111.262425 237.684414 
L 111.620752 237.684414 
L 111.620752 235.334731 
L 111.97238 235.334731 
L 111.97238 234.999062 
L 112.656511 234.999062 
L 112.656511 234.15989 
L 112.989468 234.15989 
L 112.989468 232.817214 
L 113.954374 232.817214 
L 113.954374 231.978041 
L 360.8064 231.978041 
" style="fill: none; stroke: #6495ed; stroke-width: 1.5; stroke-linecap: square"/>
   </g>
   <g id="line2d_46">
    <defs>
     <path id="m948750d6ca" d="M -0 6 
L 6 -6 
L -6 -6 
z
" style="stroke: #6495ed; stroke-width: 1.5; stroke-linejoin: miter"/>
    </defs>
    <g>
     <use xlink:href="#m948750d6ca" x="80.248597" y="283.335393" style="fill-opacity: 0; stroke: #6495ed; stroke-width: 1.5; stroke-linejoin: miter"/>
     <use xlink:href="#m948750d6ca" x="113.954374" y="232.817214" style="fill-opacity: 0; stroke: #6495ed; stroke-width: 1.5; stroke-linejoin: miter"/>
     <use xlink:href="#m948750d6ca" x="113.954374" y="232.817214" style="fill-opacity: 0; stroke: #6495ed; stroke-width: 1.5; stroke-linejoin: miter"/>
     <use xlink:href="#m948750d6ca" x="113.954374" y="231.978041" style="fill-opacity: 0; stroke: #6495ed; stroke-width: 1.5; stroke-linejoin: miter"/>
     <use xlink:href="#m948750d6ca" x="113.954374" y="231.978041" style="fill-opacity: 0; stroke: #6495ed; stroke-width: 1.5; stroke-linejoin: miter"/>
     <use xlink:href="#m948750d6ca" x="360.8064" y="231.978041" style="fill-opacity: 0; stroke: #6495ed; stroke-width: 1.5; stroke-linejoin: miter"/>
    </g>
   </g>
   <g id="line2d_47">
    <path style="fill: none; stroke: #6495ed; stroke-width: 1.5; stroke-linecap: square"/>
    <g/>
   </g>
   <g id="line2d_48">
    <path d="M 113.954374 231.978041 
" clip-path="url(#pa68b9bc4cf)" style="fill: none; stroke: #6495ed; stroke-width: 1.5; stroke-linecap: square"/>
    <defs>
     <path id="md7ea000a3d" d="M -12 12 
L 12 -12 
M -12 -12 
L 12 12 
" style="stroke: #6495ed"/>
    </defs>
    <g clip-path="url(#pa68b9bc4cf)">
     <use xlink:href="#md7ea000a3d" x="113.954374" y="231.978041" style="fill: #6495ed; stroke: #6495ed"/>
    </g>
   </g>
   <g id="line2d_49">
    <path d="M 360.8064 274.775834 
L 380.514816 293.10336 
" style="fill: none; stroke: #000080; stroke-width: 1.5; stroke-linecap: square"/>
    <g>
     <use xlink:href="#m951e1a4cd0" x="360.8064" y="274.775834" style="fill-opacity: 0; stroke: #000080; stroke-width: 1.5"/>
     <use xlink:href="#m951e1a4cd0" x="380.514816" y="293.10336" style="fill-opacity: 0; stroke: #000080; stroke-width: 1.5"/>
    </g>
   </g>
   <g id="line2d_50">
    <path d="M 360.8064 231.978041 
L 380.514816 199.65312 
" style="fill: none; stroke: #6495ed; stroke-width: 1.5; stroke-linecap: square"/>
    <g>
     <use xlink:href="#m948750d6ca" x="360.8064" y="231.978041" style="fill-opacity: 0; stroke: #6495ed; stroke-width: 1.5; stroke-linejoin: miter"/>
     <use xlink:href="#m948750d6ca" x="380.514816" y="199.65312" style="fill-opacity: 0; stroke: #6495ed; stroke-width: 1.5; stroke-linejoin: miter"/>
    </g>
   </g>
   <g id="line2d_51">
    <path d="M 360.8064 96.03211 
L 380.514816 106.20288 
" style="fill: none; stroke: #ff00ff; stroke-width: 1.5; stroke-linecap: square"/>
    <g>
     <use xlink:href="#m3cf121f12a" x="360.8064" y="96.03211" style="fill-opacity: 0; stroke: #ff00ff; stroke-width: 1.5; stroke-linejoin: miter"/>
     <use xlink:href="#m3cf121f12a" x="380.514816" y="106.20288" style="fill-opacity: 0; stroke: #ff00ff; stroke-width: 1.5; stroke-linejoin: miter"/>
    </g>
   </g>
   <g id="line2d_52">
    <path d="M 360.8064 298.944 
L 360.8064 6.912 
" style="fill: none; stroke: #000000; stroke-width: 1.5; stroke-linecap: square"/>
   </g>
   <g id="patch_3">
    <path d="M 57.6 298.944 
L 360.8064 298.944 
" style="fill: none; stroke: #000000; stroke-width: 0.8; stroke-linejoin: miter; stroke-linecap: square"/>
   </g>
   <g id="patch_4">
    <path d="M 57.6 6.912 
L 360.8064 6.912 
" style="fill: none; stroke: #000000; stroke-width: 0.8; stroke-linejoin: miter; stroke-linecap: square"/>
   </g>
   <g id="text_13">
    <!-- cma -->
    <g transform="translate(386.578944 296.966485)scale(0.14 -0.14)">
     <use xlink:href="#DejaVuSans-63"/>
     <use xlink:href="#DejaVuSans-6d" x="54.980469"/>
     <use xlink:href="#DejaVuSans-61" x="152.392578"/>
    </g>
   </g>
   <g id="text_14">
    <!-- parEgo -->
    <g transform="translate(386.578944 203.516245)scale(0.14 -0.14)">
     <defs>
      <path id="DejaVuSans-45" d="M 628 4666 
L 3578 4666 
L 3578 4134 
L 1259 4134 
L 1259 2753 
L 3481 2753 
L 3481 2222 
L 1259 2222 
L 1259 531 
L 3634 531 
L 3634 0 
L 628 0 
L 628 4666 
z
" transform="scale(0.015625)"/>
     </defs>
     <use xlink:href="#DejaVuSans-70"/>
     <use xlink:href="#DejaVuSans-61" x="63.476562"/>
     <use xlink:href="#DejaVuSans-72" x="124.755859"/>
     <use xlink:href="#DejaVuSans-45" x="165.869141"/>
     <use xlink:href="#DejaVuSans-67" x="229.052734"/>
     <use xlink:href="#DejaVuSans-6f" x="292.529297"/>
    </g>
   </g>
   <g id="text_15">
    <!-- external- -->
    <g transform="translate(386.578944 110.066005)scale(0.14 -0.14)">
     <defs>
      <path id="DejaVuSans-78" d="M 3513 3500 
L 2247 1797 
L 3578 0 
L 2900 0 
L 1881 1375 
L 863 0 
L 184 0 
L 1544 1831 
L 300 3500 
L 978 3500 
L 1906 2253 
L 2834 3500 
L 3513 3500 
z
" transform="scale(0.015625)"/>
     </defs>
     <use xlink:href="#DejaVuSans-65"/>
     <use xlink:href="#DejaVuSans-78" x="59.773438"/>
     <use xlink:href="#DejaVuSans-74" x="118.953125"/>
     <use xlink:href="#DejaVuSans-65" x="158.162109"/>
     <use xlink:href="#DejaVuSans-72" x="219.685547"/>
     <use xlink:href="#DejaVuSans-6e" x="259.048828"/>
     <use xlink:href="#DejaVuSans-61" x="322.427734"/>
     <use xlink:href="#DejaVuSans-6c" x="383.707031"/>
     <use xlink:href="#DejaVuSans-2d" x="411.490234"/>
    </g>
   </g>
   <g id="text_16">
    <!-- best 2016 -->
    <g transform="translate(386.578944 16.615765)scale(0.14 -0.14)">
     <defs>
      <path id="DejaVuSans-62" d="M 3116 1747 
Q 3116 2381 2855 2742 
Q 2594 3103 2138 3103 
Q 1681 3103 1420 2742 
Q 1159 2381 1159 1747 
Q 1159 1113 1420 752 
Q 1681 391 2138 391 
Q 2594 391 2855 752 
Q 3116 1113 3116 1747 
z
M 1159 2969 
Q 1341 3281 1617 3432 
Q 1894 3584 2278 3584 
Q 2916 3584 3314 3078 
Q 3713 2572 3713 1747 
Q 3713 922 3314 415 
Q 2916 -91 2278 -91 
Q 1894 -91 1617 61 
Q 1341 213 1159 525 
L 1159 0 
L 581 0 
L 581 4863 
L 1159 4863 
L 1159 2969 
z
" transform="scale(0.015625)"/>
     </defs>
     <use xlink:href="#DejaVuSans-62"/>
     <use xlink:href="#DejaVuSans-65" x="63.476562"/>
     <use xlink:href="#DejaVuSans-73" x="125"/>
     <use xlink:href="#DejaVuSans-74" x="177.099609"/>
     <use xlink:href="#DejaVuSans-20" x="216.308594"/>
     <use xlink:href="#DejaVuSans-32" x="248.095703"/>
     <use xlink:href="#DejaVuSans-30" x="311.71875"/>
     <use xlink:href="#DejaVuSans-31" x="375.341797"/>
     <use xlink:href="#DejaVuSans-36" x="438.964844"/>
    </g>
   </g>
   <g id="text_17">
    <!-- bbob-biobj f20, f21, f28, 3-D -->
    <g transform="translate(60.632064 17.582726)scale(0.102 -0.102)">
     <defs>
      <path id="DejaVuSans-6a" d="M 603 3500 
L 1178 3500 
L 1178 -63 
Q 1178 -731 923 -1031 
Q 669 -1331 103 -1331 
L -116 -1331 
L -116 -844 
L 38 -844 
Q 366 -844 484 -692 
Q 603 -541 603 -63 
L 603 3500 
z
M 603 4863 
L 1178 4863 
L 1178 4134 
L 603 4134 
L 603 4863 
z
" transform="scale(0.015625)"/>
      <path id="DejaVuSans-33" d="M 2597 2516 
Q 3050 2419 3304 2112 
Q 3559 1806 3559 1356 
Q 3559 666 3084 287 
Q 2609 -91 1734 -91 
Q 1441 -91 1130 -33 
Q 819 25 488 141 
L 488 750 
Q 750 597 1062 519 
Q 1375 441 1716 441 
Q 2309 441 2620 675 
Q 2931 909 2931 1356 
Q 2931 1769 2642 2001 
Q 2353 2234 1838 2234 
L 1294 2234 
L 1294 2753 
L 1863 2753 
Q 2328 2753 2575 2939 
Q 2822 3125 2822 3475 
Q 2822 3834 2567 4026 
Q 2313 4219 1838 4219 
Q 1578 4219 1281 4162 
Q 984 4106 628 3988 
L 628 4550 
Q 988 4650 1302 4700 
Q 1616 4750 1894 4750 
Q 2613 4750 3031 4423 
Q 3450 4097 3450 3541 
Q 3450 3153 3228 2886 
Q 3006 2619 2597 2516 
z
" transform="scale(0.015625)"/>
      <path id="DejaVuSans-44" d="M 1259 4147 
L 1259 519 
L 2022 519 
Q 2988 519 3436 956 
Q 3884 1394 3884 2338 
Q 3884 3275 3436 3711 
Q 2988 4147 2022 4147 
L 1259 4147 
z
M 628 4666 
L 1925 4666 
Q 3281 4666 3915 4102 
Q 4550 3538 4550 2338 
Q 4550 1131 3912 565 
Q 3275 0 1925 0 
L 628 0 
L 628 4666 
z
" transform="scale(0.015625)"/>
     </defs>
     <use xlink:href="#DejaVuSans-62"/>
     <use xlink:href="#DejaVuSans-62" x="63.476562"/>
     <use xlink:href="#DejaVuSans-6f" x="126.953125"/>
     <use xlink:href="#DejaVuSans-62" x="188.134766"/>
     <use xlink:href="#DejaVuSans-2d" x="251.611328"/>
     <use xlink:href="#DejaVuSans-62" x="287.695312"/>
     <use xlink:href="#DejaVuSans-69" x="351.171875"/>
     <use xlink:href="#DejaVuSans-6f" x="378.955078"/>
     <use xlink:href="#DejaVuSans-62" x="440.136719"/>
     <use xlink:href="#DejaVuSans-6a" x="503.613281"/>
     <use xlink:href="#DejaVuSans-20" x="531.396484"/>
     <use xlink:href="#DejaVuSans-66" x="563.183594"/>
     <use xlink:href="#DejaVuSans-32" x="598.388672"/>
     <use xlink:href="#DejaVuSans-30" x="662.011719"/>
     <use xlink:href="#DejaVuSans-2c" x="725.634766"/>
     <use xlink:href="#DejaVuSans-20" x="757.421875"/>
     <use xlink:href="#DejaVuSans-66" x="789.208984"/>
     <use xlink:href="#DejaVuSans-32" x="824.414062"/>
     <use xlink:href="#DejaVuSans-31" x="888.037109"/>
     <use xlink:href="#DejaVuSans-2c" x="951.660156"/>
     <use xlink:href="#DejaVuSans-20" x="983.447266"/>
     <use xlink:href="#DejaVuSans-66" x="1015.234375"/>
     <use xlink:href="#DejaVuSans-32" x="1050.439453"/>
     <use xlink:href="#DejaVuSans-38" x="1114.0625"/>
     <use xlink:href="#DejaVuSans-2c" x="1177.685547"/>
     <use xlink:href="#DejaVuSans-20" x="1209.472656"/>
     <use xlink:href="#DejaVuSans-33" x="1241.259766"/>
     <use xlink:href="#DejaVuSans-2d" x="1304.882812"/>
     <use xlink:href="#DejaVuSans-44" x="1340.966797"/>
    </g>
    <!-- 58 targets: 1..-1.0e-4 -->
    <g transform="translate(60.632064 29.004495)scale(0.102 -0.102)">
     <defs>
      <path id="DejaVuSans-35" d="M 691 4666 
L 3169 4666 
L 3169 4134 
L 1269 4134 
L 1269 2991 
Q 1406 3038 1543 3061 
Q 1681 3084 1819 3084 
Q 2600 3084 3056 2656 
Q 3513 2228 3513 1497 
Q 3513 744 3044 326 
Q 2575 -91 1722 -91 
Q 1428 -91 1123 -41 
Q 819 9 494 109 
L 494 744 
Q 775 591 1075 516 
Q 1375 441 1709 441 
Q 2250 441 2565 725 
Q 2881 1009 2881 1497 
Q 2881 1984 2565 2268 
Q 2250 2553 1709 2553 
Q 1456 2553 1204 2497 
Q 953 2441 691 2322 
L 691 4666 
z
" transform="scale(0.015625)"/>
      <path id="DejaVuSans-3a" d="M 750 794 
L 1409 794 
L 1409 0 
L 750 0 
L 750 794 
z
M 750 3309 
L 1409 3309 
L 1409 2516 
L 750 2516 
L 750 3309 
z
" transform="scale(0.015625)"/>
     </defs>
     <use xlink:href="#DejaVuSans-35"/>
     <use xlink:href="#DejaVuSans-38" x="63.623047"/>
     <use xlink:href="#DejaVuSans-20" x="127.246094"/>
     <use xlink:href="#DejaVuSans-74" x="159.033203"/>
     <use xlink:href="#DejaVuSans-61" x="198.242188"/>
     <use xlink:href="#DejaVuSans-72" x="259.521484"/>
     <use xlink:href="#DejaVuSans-67" x="298.884766"/>
     <use xlink:href="#DejaVuSans-65" x="362.361328"/>
     <use xlink:href="#DejaVuSans-74" x="423.884766"/>
     <use xlink:href="#DejaVuSans-73" x="463.09375"/>
     <use xlink:href="#DejaVuSans-3a" x="515.193359"/>
     <use xlink:href="#DejaVuSans-20" x="548.884766"/>
     <use xlink:href="#DejaVuSans-31" x="580.671875"/>
     <use xlink:href="#DejaVuSans-2e" x="644.294922"/>
     <use xlink:href="#DejaVuSans-2e" x="676.082031"/>
     <use xlink:href="#DejaVuSans-2d" x="707.869141"/>
     <use xlink:href="#DejaVuSans-31" x="743.953125"/>
     <use xlink:href="#DejaVuSans-2e" x="807.576172"/>
     <use xlink:href="#DejaVuSans-30" x="839.363281"/>
     <use xlink:href="#DejaVuSans-65" x="902.986328"/>
     <use xlink:href="#DejaVuSans-2d" x="964.509766"/>
     <use xlink:href="#DejaVuSans-34" x="1000.59375"/>
    </g>
    <!-- 10 instances -->
    <g transform="translate(60.632064 40.426264)scale(0.102 -0.102)">
     <use xlink:href="#DejaVuSans-31"/>
     <use xlink:href="#DejaVuSans-30" x="63.623047"/>
     <use xlink:href="#DejaVuSans-20" x="127.246094"/>
     <use xlink:href="#DejaVuSans-69" x="159.033203"/>
     <use xlink:href="#DejaVuSans-6e" x="186.816406"/>
     <use xlink:href="#DejaVuSans-73" x="250.195312"/>
     <use xlink:href="#DejaVuSans-74" x="302.294922"/>
     <use xlink:href="#DejaVuSans-61" x="341.503906"/>
     <use xlink:href="#DejaVuSans-6e" x="402.783203"/>
     <use xlink:href="#DejaVuSans-63" x="466.162109"/>
     <use xlink:href="#DejaVuSans-65" x="521.142578"/>
     <use xlink:href="#DejaVuSans-73" x="582.666016"/>
    </g>
   </g>
   <g id="text_18">
    <!-- v2.6, hv-hash=ff0e71e8cd978373 -->
    <g style="fill: #808080" transform="translate(123.707887 293.943992)scale(0.1 -0.1)">
     <defs>
      <path id="DejaVuSans-68" d="M 3513 2113 
L 3513 0 
L 2938 0 
L 2938 2094 
Q 2938 2591 2744 2837 
Q 2550 3084 2163 3084 
Q 1697 3084 1428 2787 
Q 1159 2491 1159 1978 
L 1159 0 
L 581 0 
L 581 4863 
L 1159 4863 
L 1159 2956 
Q 1366 3272 1645 3428 
Q 1925 3584 2291 3584 
Q 2894 3584 3203 3211 
Q 3513 2838 3513 2113 
z
" transform="scale(0.015625)"/>
      <path id="DejaVuSans-3d" d="M 678 2906 
L 4684 2906 
L 4684 2381 
L 678 2381 
L 678 2906 
z
M 678 1631 
L 4684 1631 
L 4684 1100 
L 678 1100 
L 678 1631 
z
" transform="scale(0.015625)"/>
      <path id="DejaVuSans-37" d="M 525 4666 
L 3525 4666 
L 3525 4397 
L 1831 0 
L 1172 0 
L 2766 4134 
L 525 4134 
L 525 4666 
z
" transform="scale(0.015625)"/>
      <path id="DejaVuSans-39" d="M 703 97 
L 703 672 
Q 941 559 1184 500 
Q 1428 441 1663 441 
Q 2288 441 2617 861 
Q 2947 1281 2994 2138 
Q 2813 1869 2534 1725 
Q 2256 1581 1919 1581 
Q 1219 1581 811 2004 
Q 403 2428 403 3163 
Q 403 3881 828 4315 
Q 1253 4750 1959 4750 
Q 2769 4750 3195 4129 
Q 3622 3509 3622 2328 
Q 3622 1225 3098 567 
Q 2575 -91 1691 -91 
Q 1453 -91 1209 -44 
Q 966 3 703 97 
z
M 1959 2075 
Q 2384 2075 2632 2365 
Q 2881 2656 2881 3163 
Q 2881 3666 2632 3958 
Q 2384 4250 1959 4250 
Q 1534 4250 1286 3958 
Q 1038 3666 1038 3163 
Q 1038 2656 1286 2365 
Q 1534 2075 1959 2075 
z
" transform="scale(0.015625)"/>
     </defs>
     <use xlink:href="#DejaVuSans-76"/>
     <use xlink:href="#DejaVuSans-32" x="59.179688"/>
     <use xlink:href="#DejaVuSans-2e" x="122.802734"/>
     <use xlink:href="#DejaVuSans-36" x="154.589844"/>
     <use xlink:href="#DejaVuSans-2c" x="218.212891"/>
     <use xlink:href="#DejaVuSans-20" x="250"/>
     <use xlink:href="#DejaVuSans-68" x="281.787109"/>
     <use xlink:href="#DejaVuSans-76" x="345.166016"/>
     <use xlink:href="#DejaVuSans-2d" x="401.720703"/>
     <use xlink:href="#DejaVuSans-68" x="437.804688"/>
     <use xlink:href="#DejaVuSans-61" x="501.183594"/>
     <use xlink:href="#DejaVuSans-73" x="562.462891"/>
     <use xlink:href="#DejaVuSans-68" x="614.5625"/>
     <use xlink:href="#DejaVuSans-3d" x="677.941406"/>
     <use xlink:href="#DejaVuSans-66" x="761.730469"/>
     <use xlink:href="#DejaVuSans-66" x="796.935547"/>
     <use xlink:href="#DejaVuSans-30" x="832.140625"/>
     <use xlink:href="#DejaVuSans-65" x="895.763672"/>
     <use xlink:href="#DejaVuSans-37" x="957.287109"/>
     <use xlink:href="#DejaVuSans-31" x="1020.910156"/>
     <use xlink:href="#DejaVuSans-65" x="1084.533203"/>
     <use xlink:href="#DejaVuSans-38" x="1146.056641"/>
     <use xlink:href="#DejaVuSans-63" x="1209.679688"/>
     <use xlink:href="#DejaVuSans-64" x="1264.660156"/>
     <use xlink:href="#DejaVuSans-39" x="1328.136719"/>
     <use xlink:href="#DejaVuSans-37" x="1391.759766"/>
     <use xlink:href="#DejaVuSans-38" x="1455.382812"/>
     <use xlink:href="#DejaVuSans-33" x="1519.005859"/>
     <use xlink:href="#DejaVuSans-37" x="1582.628906"/>
     <use xlink:href="#DejaVuSans-33" x="1646.251953"/>
    </g>
   </g>
  </g>
 </g>
 <defs>
  <clipPath id="pa68b9bc4cf">
   <rect x="57.6" y="6.912" width="303.2064" height="292.032"/>
  </clipPath>
 </defs>
</svg>
