<?xml version="1.0" encoding="utf-8" standalone="no"?>
<!DOCTYPE svg PUBLIC "-//W3C//DTD SVG 1.1//EN"
  "http://www.w3.org/Graphics/SVG/1.1/DTD/svg11.dtd">
<svg xmlns:xlink="http://www.w3.org/1999/xlink" width="460.8pt" height="345.6pt" viewBox="0 0 460.8 345.6" xmlns="http://www.w3.org/2000/svg" version="1.1">
 <metadata>
  <rdf:RDF xmlns:dc="http://purl.org/dc/elements/1.1/" xmlns:cc="http://creativecommons.org/ns#" xmlns:rdf="http://www.w3.org/1999/02/22-rdf-syntax-ns#">
   <cc:Work>
    <dc:type rdf:resource="http://purl.org/dc/dcmitype/StillImage"/>
    <dc:date>2022-06-19T21:03:02.230810</dc:date>
    <dc:format>image/svg+xml</dc:format>
    <dc:creator>
     <cc:Agent>
      <dc:title>Matplotlib v3.5.1, https://matplotlib.org/</dc:title>
     </cc:Agent>
    </dc:creator>
   </cc:Work>
  </rdf:RDF>
 </metadata>
 <defs>
  <style type="text/css">*{stroke-linejoin: round; stroke-linecap: butt}</style>
 </defs>
 <g id="figure_1">
  <g id="patch_1">
   <path d="M 0 345.6 
L 460.8 345.6 
L 460.8 0 
L 0 0 
z
" style="fill: #ffffff"/>
  </g>
  <g id="axes_1">
   <g id="patch_2">
    <path d="M 57.6 298.944 
L 360.8064 298.944 
L 360.8064 6.912 
L 57.6 6.912 
z
" style="fill: #ffffff"/>
   </g>
   <g id="line2d_1">
    <path d="M 40.363149 298.944 
L 40.363149 296.426483 
L 53.402323 296.426483 
L 53.402323 295.167724 
L 61.029752 295.167724 
L 61.029752 293.908966 
L 66.441498 293.908966 
L 66.441498 291.391448 
L 72.432107 291.391448 
L 72.432107 288.873931 
L 76.96874 288.873931 
L 76.96874 286.356414 
L 81.696354 286.356414 
L 81.696354 283.838897 
L 91.305777 283.838897 
L 91.305777 281.321379 
L 91.922605 281.321379 
L 91.922605 277.545103 
L 93.66029 277.545103 
L 93.66029 275.027586 
L 100.147275 275.027586 
L 100.147275 271.25131 
L 105.26277 271.25131 
L 105.26277 268.733793 
L 110.221204 268.733793 
L 110.221204 267.475034 
L 111.117162 267.475034 
L 111.117162 263.698759 
L 115.747307 263.698759 
L 115.747307 262.44 
L 116.907859 262.44 
L 116.907859 261.181241 
L 119.034004 261.181241 
L 119.034004 257.404966 
L 124.906754 257.404966 
L 124.906754 254.887448 
L 128.178203 254.887448 
L 128.178203 251.111172 
L 128.354013 251.111172 
L 128.354013 248.593655 
L 131.563744 248.593655 
L 131.563744 244.817379 
L 136.242113 244.817379 
L 136.242113 243.558621 
L 139.411192 243.558621 
L 139.411192 241.041103 
L 141.953481 241.041103 
L 141.953481 238.523586 
L 144.71325 238.523586 
L 144.71325 236.006069 
L 149.165879 236.006069 
L 149.165879 233.488552 
L 149.367382 233.488552 
L 149.367382 229.712276 
L 150.124997 229.712276 
L 150.124997 225.936 
L 153.165721 225.936 
L 153.165721 224.677241 
L 153.444416 224.677241 
L 153.444416 222.159724 
L 155.30847 222.159724 
L 155.30847 219.642207 
L 157.231914 219.642207 
L 157.231914 217.12469 
L 157.344671 217.12469 
L 157.344671 213.348414 
L 160.061585 213.348414 
L 160.061585 210.830897 
L 162.577572 210.830897 
L 162.577572 209.572138 
L 163.012297 209.572138 
L 163.012297 208.313379 
L 168.872652 208.313379 
L 168.872652 204.537103 
L 176.422087 204.537103 
L 176.422087 202.019586 
L 176.54402 202.019586 
L 176.54402 199.502069 
L 179.167874 199.502069 
L 179.167874 198.24331 
L 182.677721 198.24331 
L 182.677721 194.467034 
L 184.677739 194.467034 
L 184.677739 191.949517 
L 185.037967 191.949517 
L 185.037967 189.432 
L 188.054101 189.432 
L 188.054101 188.173241 
L 190.109194 188.173241 
L 190.109194 185.655724 
L 191.601279 185.655724 
L 191.601279 183.138207 
L 201.058455 183.138207 
L 201.058455 181.879448 
L 201.282741 181.879448 
L 201.282741 178.103172 
L 204.047417 178.103172 
L 204.047417 174.326897 
L 209.012606 174.326897 
L 209.012606 171.809379 
L 212.315333 171.809379 
L 212.315333 168.033103 
L 219.097906 168.033103 
L 219.097906 166.774345 
L 222.311386 166.774345 
L 222.311386 164.256828 
L 223.243339 164.256828 
L 223.243339 162.998069 
L 223.848864 162.998069 
L 223.848864 160.480552 
L 227.606007 160.480552 
L 227.606007 159.221793 
L 229.360025 159.221793 
L 229.360025 156.704276 
L 229.884801 156.704276 
L 229.884801 152.928 
L 230.696803 152.928 
L 230.696803 149.151724 
L 231.53301 149.151724 
L 231.53301 147.892966 
L 232.187285 147.892966 
L 232.187285 144.11669 
L 232.558751 144.11669 
L 232.558751 141.599172 
L 232.942233 141.599172 
L 232.942233 139.081655 
L 233.728553 139.081655 
L 233.728553 137.822897 
L 234.216099 137.822897 
L 234.216099 136.564138 
L 235.214043 136.564138 
L 235.256681 129.011586 
L 236.073791 129.011586 
L 236.073791 125.23531 
L 237.707235 125.23531 
L 237.707235 123.976552 
L 238.507782 123.976552 
L 238.615465 120.200276 
L 241.313724 120.200276 
L 241.313724 116.424 
L 242.14444 116.424 
L 242.14444 112.647724 
L 243.707301 112.647724 
L 243.707301 111.388966 
L 246.600462 111.388966 
L 246.600462 108.871448 
L 247.73265 108.871448 
L 247.73265 106.353931 
L 247.928492 106.353931 
L 247.928492 102.577655 
L 251.90533 102.577655 
L 251.90533 100.060138 
L 254.110137 100.060138 
L 254.110137 98.801379 
L 256.471948 98.801379 
L 256.471948 97.542621 
L 256.680889 97.542621 
L 256.680889 93.766345 
L 258.868058 93.766345 
L 258.868058 91.248828 
L 260.188545 91.248828 
L 260.188545 89.990069 
L 261.854141 89.990069 
L 261.919649 83.696276 
L 266.152877 83.696276 
L 266.152877 82.437517 
L 267.686324 82.437517 
L 267.686324 78.661241 
L 268.050751 78.661241 
L 268.050751 74.884966 
L 270.597502 74.884966 
L 270.597502 72.367448 
L 273.906809 72.367448 
L 273.91608 67.332414 
L 274.926821 67.332414 
L 274.926821 66.073655 
L 281.369662 66.073655 
L 281.369662 63.556138 
L 283.747363 63.556138 
L 283.747363 61.038621 
L 288.705435 61.038621 
L 288.705435 57.262345 
L 292.064589 57.262345 
L 292.064589 56.003586 
L 293.661532 56.003586 
L 293.661532 54.744828 
L 295.960393 54.744828 
L 295.960393 52.22731 
L 296.886116 52.22731 
L 296.886116 49.709793 
L 298.515782 49.709793 
L 298.515782 45.933517 
L 300.477731 45.933517 
L 300.477731 42.157241 
L 360.8064 42.157241 
L 360.8064 42.157241 
" style="fill: none; stroke: #f5deb3; stroke-width: 4; stroke-linecap: square"/>
   </g>
   <g id="line2d_2">
    <defs>
     <path id="m6f5d9428a0" d="M 0 7.778175 
L 7.778175 0 
L 0 -7.778175 
L -7.778175 0 
z
" style="stroke: #f5deb3; stroke-width: 1.5; stroke-linejoin: miter"/>
    </defs>
    <g>
     <use xlink:href="#m6f5d9428a0" x="105.26277" y="271.25131" style="fill: #f5deb3; stroke: #f5deb3; stroke-width: 1.5; stroke-linejoin: miter"/>
     <use xlink:href="#m6f5d9428a0" x="179.167874" y="199.502069" style="fill: #f5deb3; stroke: #f5deb3; stroke-width: 1.5; stroke-linejoin: miter"/>
     <use xlink:href="#m6f5d9428a0" x="230.696803" y="152.928" style="fill: #f5deb3; stroke: #f5deb3; stroke-width: 1.5; stroke-linejoin: miter"/>
     <use xlink:href="#m6f5d9428a0" x="292.064589" y="56.003586" style="fill: #f5deb3; stroke: #f5deb3; stroke-width: 1.5; stroke-linejoin: miter"/>
     <use xlink:href="#m6f5d9428a0" x="300.477731" y="42.157241" style="fill: #f5deb3; stroke: #f5deb3; stroke-width: 1.5; stroke-linejoin: miter"/>
     <use xlink:href="#m6f5d9428a0" x="360.8064" y="42.157241" style="fill: #f5deb3; stroke: #f5deb3; stroke-width: 1.5; stroke-linejoin: miter"/>
    </g>
   </g>
   <g id="line2d_3">
    <path style="fill: none; stroke: #f5deb3; stroke-width: 4; stroke-linecap: square"/>
    <g/>
   </g>
   <g id="line2d_4">
    <path d="M 360.8064 42.157241 
L 380.514816 12.75264 
" style="fill: none; stroke: #f5deb3; stroke-width: 4; stroke-linecap: square"/>
    <g>
     <use xlink:href="#m6f5d9428a0" x="360.8064" y="42.157241" style="fill: #f5deb3; stroke: #f5deb3; stroke-width: 1.5; stroke-linejoin: miter"/>
     <use xlink:href="#m6f5d9428a0" x="380.514816" y="12.75264" style="fill: #f5deb3; stroke: #f5deb3; stroke-width: 1.5; stroke-linejoin: miter"/>
    </g>
   </g>
   <g id="matplotlib.axis_1">
    <g id="xtick_1">
     <g id="line2d_5">
      <path d="M 57.6 298.944 
L 57.6 6.912 
" clip-path="url(#p1929ea8119)" style="fill: none; stroke: #b0b0b0; stroke-width: 0.8; stroke-linecap: square"/>
     </g>
     <g id="line2d_6">
      <defs>
       <path id="m4e2a709c40" d="M 0 0 
L 0 3.5 
" style="stroke: #000000; stroke-width: 0.8"/>
      </defs>
      <g>
       <use xlink:href="#m4e2a709c40" x="57.6" y="298.944" style="stroke: #000000; stroke-width: 0.8"/>
      </g>
     </g>
     <g id="text_1">
      <!-- 0 -->
      <g transform="translate(52.191875 318.861344)scale(0.17 -0.17)">
       <defs>
        <path id="DejaVuSans-30" d="M 2034 4250 
Q 1547 4250 1301 3770 
Q 1056 3291 1056 2328 
Q 1056 1369 1301 889 
Q 1547 409 2034 409 
Q 2525 409 2770 889 
Q 3016 1369 3016 2328 
Q 3016 3291 2770 3770 
Q 2525 4250 2034 4250 
z
M 2034 4750 
Q 2819 4750 3233 4129 
Q 3647 3509 3647 2328 
Q 3647 1150 3233 529 
Q 2819 -91 2034 -91 
Q 1250 -91 836 529 
Q 422 1150 422 2328 
Q 422 3509 836 4129 
Q 1250 4750 2034 4750 
z
" transform="scale(0.015625)"/>
       </defs>
       <use xlink:href="#DejaVuSans-30"/>
      </g>
     </g>
    </g>
    <g id="xtick_2">
     <g id="line2d_7">
      <path d="M 144.2304 298.944 
L 144.2304 6.912 
" clip-path="url(#p1929ea8119)" style="fill: none; stroke: #b0b0b0; stroke-width: 0.8; stroke-linecap: square"/>
     </g>
     <g id="line2d_8">
      <g>
       <use xlink:href="#m4e2a709c40" x="144.2304" y="298.944" style="stroke: #000000; stroke-width: 0.8"/>
      </g>
     </g>
     <g id="text_2">
      <!-- 2 -->
      <g transform="translate(138.822275 318.861344)scale(0.17 -0.17)">
       <defs>
        <path id="DejaVuSans-32" d="M 1228 531 
L 3431 531 
L 3431 0 
L 469 0 
L 469 531 
Q 828 903 1448 1529 
Q 2069 2156 2228 2338 
Q 2531 2678 2651 2914 
Q 2772 3150 2772 3378 
Q 2772 3750 2511 3984 
Q 2250 4219 1831 4219 
Q 1534 4219 1204 4116 
Q 875 4013 500 3803 
L 500 4441 
Q 881 4594 1212 4672 
Q 1544 4750 1819 4750 
Q 2544 4750 2975 4387 
Q 3406 4025 3406 3419 
Q 3406 3131 3298 2873 
Q 3191 2616 2906 2266 
Q 2828 2175 2409 1742 
Q 1991 1309 1228 531 
z
" transform="scale(0.015625)"/>
       </defs>
       <use xlink:href="#DejaVuSans-32"/>
      </g>
     </g>
    </g>
    <g id="xtick_3">
     <g id="line2d_9">
      <path d="M 230.8608 298.944 
L 230.8608 6.912 
" clip-path="url(#p1929ea8119)" style="fill: none; stroke: #b0b0b0; stroke-width: 0.8; stroke-linecap: square"/>
     </g>
     <g id="line2d_10">
      <g>
       <use xlink:href="#m4e2a709c40" x="230.8608" y="298.944" style="stroke: #000000; stroke-width: 0.8"/>
      </g>
     </g>
     <g id="text_3">
      <!-- 4 -->
      <g transform="translate(225.452675 318.861344)scale(0.17 -0.17)">
       <defs>
        <path id="DejaVuSans-34" d="M 2419 4116 
L 825 1625 
L 2419 1625 
L 2419 4116 
z
M 2253 4666 
L 3047 4666 
L 3047 1625 
L 3713 1625 
L 3713 1100 
L 3047 1100 
L 3047 0 
L 2419 0 
L 2419 1100 
L 313 1100 
L 313 1709 
L 2253 4666 
z
" transform="scale(0.015625)"/>
       </defs>
       <use xlink:href="#DejaVuSans-34"/>
      </g>
     </g>
    </g>
    <g id="xtick_4">
     <g id="line2d_11">
      <path d="M 317.4912 298.944 
L 317.4912 6.912 
" clip-path="url(#p1929ea8119)" style="fill: none; stroke: #b0b0b0; stroke-width: 0.8; stroke-linecap: square"/>
     </g>
     <g id="line2d_12">
      <g>
       <use xlink:href="#m4e2a709c40" x="317.4912" y="298.944" style="stroke: #000000; stroke-width: 0.8"/>
      </g>
     </g>
     <g id="text_4">
      <!-- 6 -->
      <g transform="translate(312.083075 318.861344)scale(0.17 -0.17)">
       <defs>
        <path id="DejaVuSans-36" d="M 2113 2584 
Q 1688 2584 1439 2293 
Q 1191 2003 1191 1497 
Q 1191 994 1439 701 
Q 1688 409 2113 409 
Q 2538 409 2786 701 
Q 3034 994 3034 1497 
Q 3034 2003 2786 2293 
Q 2538 2584 2113 2584 
z
M 3366 4563 
L 3366 3988 
Q 3128 4100 2886 4159 
Q 2644 4219 2406 4219 
Q 1781 4219 1451 3797 
Q 1122 3375 1075 2522 
Q 1259 2794 1537 2939 
Q 1816 3084 2150 3084 
Q 2853 3084 3261 2657 
Q 3669 2231 3669 1497 
Q 3669 778 3244 343 
Q 2819 -91 2113 -91 
Q 1303 -91 875 529 
Q 447 1150 447 2328 
Q 447 3434 972 4092 
Q 1497 4750 2381 4750 
Q 2619 4750 2861 4703 
Q 3103 4656 3366 4563 
z
" transform="scale(0.015625)"/>
       </defs>
       <use xlink:href="#DejaVuSans-36"/>
      </g>
     </g>
    </g>
    <g id="xtick_5">
     <g id="line2d_13">
      <path d="M 100.9152 298.944 
L 100.9152 6.912 
" clip-path="url(#p1929ea8119)" style="fill: none; stroke: #b0b0b0; stroke-width: 0.8; stroke-linecap: square"/>
     </g>
     <g id="line2d_14">
      <defs>
       <path id="maf2e8c4593" d="M 0 0 
L 0 2 
" style="stroke: #000000; stroke-width: 0.6"/>
      </defs>
      <g>
       <use xlink:href="#maf2e8c4593" x="100.9152" y="298.944" style="stroke: #000000; stroke-width: 0.6"/>
      </g>
     </g>
    </g>
    <g id="xtick_6">
     <g id="line2d_15">
      <path d="M 187.5456 298.944 
L 187.5456 6.912 
" clip-path="url(#p1929ea8119)" style="fill: none; stroke: #b0b0b0; stroke-width: 0.8; stroke-linecap: square"/>
     </g>
     <g id="line2d_16">
      <g>
       <use xlink:href="#maf2e8c4593" x="187.5456" y="298.944" style="stroke: #000000; stroke-width: 0.6"/>
      </g>
     </g>
    </g>
    <g id="xtick_7">
     <g id="line2d_17">
      <path d="M 274.176 298.944 
L 274.176 6.912 
" clip-path="url(#p1929ea8119)" style="fill: none; stroke: #b0b0b0; stroke-width: 0.8; stroke-linecap: square"/>
     </g>
     <g id="line2d_18">
      <g>
       <use xlink:href="#maf2e8c4593" x="274.176" y="298.944" style="stroke: #000000; stroke-width: 0.6"/>
      </g>
     </g>
    </g>
    <g id="xtick_8">
     <g id="line2d_19">
      <path d="M 360.8064 298.944 
L 360.8064 6.912 
" clip-path="url(#p1929ea8119)" style="fill: none; stroke: #b0b0b0; stroke-width: 0.8; stroke-linecap: square"/>
     </g>
     <g id="line2d_20">
      <g>
       <use xlink:href="#maf2e8c4593" x="360.8064" y="298.944" style="stroke: #000000; stroke-width: 0.6"/>
      </g>
     </g>
    </g>
    <g id="text_5">
     <!-- log10(# f-evals / dimension) -->
     <g transform="translate(88.823278 339.314156)scale(0.17 -0.17)">
      <defs>
       <path id="DejaVuSans-6c" d="M 603 4863 
L 1178 4863 
L 1178 0 
L 603 0 
L 603 4863 
z
" transform="scale(0.015625)"/>
       <path id="DejaVuSans-6f" d="M 1959 3097 
Q 1497 3097 1228 2736 
Q 959 2375 959 1747 
Q 959 1119 1226 758 
Q 1494 397 1959 397 
Q 2419 397 2687 759 
Q 2956 1122 2956 1747 
Q 2956 2369 2687 2733 
Q 2419 3097 1959 3097 
z
M 1959 3584 
Q 2709 3584 3137 3096 
Q 3566 2609 3566 1747 
Q 3566 888 3137 398 
Q 2709 -91 1959 -91 
Q 1206 -91 779 398 
Q 353 888 353 1747 
Q 353 2609 779 3096 
Q 1206 3584 1959 3584 
z
" transform="scale(0.015625)"/>
       <path id="DejaVuSans-67" d="M 2906 1791 
Q 2906 2416 2648 2759 
Q 2391 3103 1925 3103 
Q 1463 3103 1205 2759 
Q 947 2416 947 1791 
Q 947 1169 1205 825 
Q 1463 481 1925 481 
Q 2391 481 2648 825 
Q 2906 1169 2906 1791 
z
M 3481 434 
Q 3481 -459 3084 -895 
Q 2688 -1331 1869 -1331 
Q 1566 -1331 1297 -1286 
Q 1028 -1241 775 -1147 
L 775 -588 
Q 1028 -725 1275 -790 
Q 1522 -856 1778 -856 
Q 2344 -856 2625 -561 
Q 2906 -266 2906 331 
L 2906 616 
Q 2728 306 2450 153 
Q 2172 0 1784 0 
Q 1141 0 747 490 
Q 353 981 353 1791 
Q 353 2603 747 3093 
Q 1141 3584 1784 3584 
Q 2172 3584 2450 3431 
Q 2728 3278 2906 2969 
L 2906 3500 
L 3481 3500 
L 3481 434 
z
" transform="scale(0.015625)"/>
       <path id="DejaVuSans-31" d="M 794 531 
L 1825 531 
L 1825 4091 
L 703 3866 
L 703 4441 
L 1819 4666 
L 2450 4666 
L 2450 531 
L 3481 531 
L 3481 0 
L 794 0 
L 794 531 
z
" transform="scale(0.015625)"/>
       <path id="DejaVuSans-28" d="M 1984 4856 
Q 1566 4138 1362 3434 
Q 1159 2731 1159 2009 
Q 1159 1288 1364 580 
Q 1569 -128 1984 -844 
L 1484 -844 
Q 1016 -109 783 600 
Q 550 1309 550 2009 
Q 550 2706 781 3412 
Q 1013 4119 1484 4856 
L 1984 4856 
z
" transform="scale(0.015625)"/>
       <path id="DejaVuSans-23" d="M 3272 2816 
L 2363 2816 
L 2100 1772 
L 3016 1772 
L 3272 2816 
z
M 2803 4594 
L 2478 3297 
L 3391 3297 
L 3719 4594 
L 4219 4594 
L 3897 3297 
L 4872 3297 
L 4872 2816 
L 3775 2816 
L 3519 1772 
L 4513 1772 
L 4513 1294 
L 3397 1294 
L 3072 0 
L 2572 0 
L 2894 1294 
L 1978 1294 
L 1656 0 
L 1153 0 
L 1478 1294 
L 494 1294 
L 494 1772 
L 1594 1772 
L 1856 2816 
L 850 2816 
L 850 3297 
L 1978 3297 
L 2297 4594 
L 2803 4594 
z
" transform="scale(0.015625)"/>
       <path id="DejaVuSans-20" transform="scale(0.015625)"/>
       <path id="DejaVuSans-66" d="M 2375 4863 
L 2375 4384 
L 1825 4384 
Q 1516 4384 1395 4259 
Q 1275 4134 1275 3809 
L 1275 3500 
L 2222 3500 
L 2222 3053 
L 1275 3053 
L 1275 0 
L 697 0 
L 697 3053 
L 147 3053 
L 147 3500 
L 697 3500 
L 697 3744 
Q 697 4328 969 4595 
Q 1241 4863 1831 4863 
L 2375 4863 
z
" transform="scale(0.015625)"/>
       <path id="DejaVuSans-2d" d="M 313 2009 
L 1997 2009 
L 1997 1497 
L 313 1497 
L 313 2009 
z
" transform="scale(0.015625)"/>
       <path id="DejaVuSans-65" d="M 3597 1894 
L 3597 1613 
L 953 1613 
Q 991 1019 1311 708 
Q 1631 397 2203 397 
Q 2534 397 2845 478 
Q 3156 559 3463 722 
L 3463 178 
Q 3153 47 2828 -22 
Q 2503 -91 2169 -91 
Q 1331 -91 842 396 
Q 353 884 353 1716 
Q 353 2575 817 3079 
Q 1281 3584 2069 3584 
Q 2775 3584 3186 3129 
Q 3597 2675 3597 1894 
z
M 3022 2063 
Q 3016 2534 2758 2815 
Q 2500 3097 2075 3097 
Q 1594 3097 1305 2825 
Q 1016 2553 972 2059 
L 3022 2063 
z
" transform="scale(0.015625)"/>
       <path id="DejaVuSans-76" d="M 191 3500 
L 800 3500 
L 1894 563 
L 2988 3500 
L 3597 3500 
L 2284 0 
L 1503 0 
L 191 3500 
z
" transform="scale(0.015625)"/>
       <path id="DejaVuSans-61" d="M 2194 1759 
Q 1497 1759 1228 1600 
Q 959 1441 959 1056 
Q 959 750 1161 570 
Q 1363 391 1709 391 
Q 2188 391 2477 730 
Q 2766 1069 2766 1631 
L 2766 1759 
L 2194 1759 
z
M 3341 1997 
L 3341 0 
L 2766 0 
L 2766 531 
Q 2569 213 2275 61 
Q 1981 -91 1556 -91 
Q 1019 -91 701 211 
Q 384 513 384 1019 
Q 384 1609 779 1909 
Q 1175 2209 1959 2209 
L 2766 2209 
L 2766 2266 
Q 2766 2663 2505 2880 
Q 2244 3097 1772 3097 
Q 1472 3097 1187 3025 
Q 903 2953 641 2809 
L 641 3341 
Q 956 3463 1253 3523 
Q 1550 3584 1831 3584 
Q 2591 3584 2966 3190 
Q 3341 2797 3341 1997 
z
" transform="scale(0.015625)"/>
       <path id="DejaVuSans-73" d="M 2834 3397 
L 2834 2853 
Q 2591 2978 2328 3040 
Q 2066 3103 1784 3103 
Q 1356 3103 1142 2972 
Q 928 2841 928 2578 
Q 928 2378 1081 2264 
Q 1234 2150 1697 2047 
L 1894 2003 
Q 2506 1872 2764 1633 
Q 3022 1394 3022 966 
Q 3022 478 2636 193 
Q 2250 -91 1575 -91 
Q 1294 -91 989 -36 
Q 684 19 347 128 
L 347 722 
Q 666 556 975 473 
Q 1284 391 1588 391 
Q 1994 391 2212 530 
Q 2431 669 2431 922 
Q 2431 1156 2273 1281 
Q 2116 1406 1581 1522 
L 1381 1569 
Q 847 1681 609 1914 
Q 372 2147 372 2553 
Q 372 3047 722 3315 
Q 1072 3584 1716 3584 
Q 2034 3584 2315 3537 
Q 2597 3491 2834 3397 
z
" transform="scale(0.015625)"/>
       <path id="DejaVuSans-2f" d="M 1625 4666 
L 2156 4666 
L 531 -594 
L 0 -594 
L 1625 4666 
z
" transform="scale(0.015625)"/>
       <path id="DejaVuSans-64" d="M 2906 2969 
L 2906 4863 
L 3481 4863 
L 3481 0 
L 2906 0 
L 2906 525 
Q 2725 213 2448 61 
Q 2172 -91 1784 -91 
Q 1150 -91 751 415 
Q 353 922 353 1747 
Q 353 2572 751 3078 
Q 1150 3584 1784 3584 
Q 2172 3584 2448 3432 
Q 2725 3281 2906 2969 
z
M 947 1747 
Q 947 1113 1208 752 
Q 1469 391 1925 391 
Q 2381 391 2643 752 
Q 2906 1113 2906 1747 
Q 2906 2381 2643 2742 
Q 2381 3103 1925 3103 
Q 1469 3103 1208 2742 
Q 947 2381 947 1747 
z
" transform="scale(0.015625)"/>
       <path id="DejaVuSans-69" d="M 603 3500 
L 1178 3500 
L 1178 0 
L 603 0 
L 603 3500 
z
M 603 4863 
L 1178 4863 
L 1178 4134 
L 603 4134 
L 603 4863 
z
" transform="scale(0.015625)"/>
       <path id="DejaVuSans-6d" d="M 3328 2828 
Q 3544 3216 3844 3400 
Q 4144 3584 4550 3584 
Q 5097 3584 5394 3201 
Q 5691 2819 5691 2113 
L 5691 0 
L 5113 0 
L 5113 2094 
Q 5113 2597 4934 2840 
Q 4756 3084 4391 3084 
Q 3944 3084 3684 2787 
Q 3425 2491 3425 1978 
L 3425 0 
L 2847 0 
L 2847 2094 
Q 2847 2600 2669 2842 
Q 2491 3084 2119 3084 
Q 1678 3084 1418 2786 
Q 1159 2488 1159 1978 
L 1159 0 
L 581 0 
L 581 3500 
L 1159 3500 
L 1159 2956 
Q 1356 3278 1631 3431 
Q 1906 3584 2284 3584 
Q 2666 3584 2933 3390 
Q 3200 3197 3328 2828 
z
" transform="scale(0.015625)"/>
       <path id="DejaVuSans-6e" d="M 3513 2113 
L 3513 0 
L 2938 0 
L 2938 2094 
Q 2938 2591 2744 2837 
Q 2550 3084 2163 3084 
Q 1697 3084 1428 2787 
Q 1159 2491 1159 1978 
L 1159 0 
L 581 0 
L 581 3500 
L 1159 3500 
L 1159 2956 
Q 1366 3272 1645 3428 
Q 1925 3584 2291 3584 
Q 2894 3584 3203 3211 
Q 3513 2838 3513 2113 
z
" transform="scale(0.015625)"/>
       <path id="DejaVuSans-29" d="M 513 4856 
L 1013 4856 
Q 1481 4119 1714 3412 
Q 1947 2706 1947 2009 
Q 1947 1309 1714 600 
Q 1481 -109 1013 -844 
L 513 -844 
Q 928 -128 1133 580 
Q 1338 1288 1338 2009 
Q 1338 2731 1133 3434 
Q 928 4138 513 4856 
z
" transform="scale(0.015625)"/>
      </defs>
      <use xlink:href="#DejaVuSans-6c"/>
      <use xlink:href="#DejaVuSans-6f" x="27.783203"/>
      <use xlink:href="#DejaVuSans-67" x="88.964844"/>
      <use xlink:href="#DejaVuSans-31" x="152.441406"/>
      <use xlink:href="#DejaVuSans-30" x="216.064453"/>
      <use xlink:href="#DejaVuSans-28" x="279.6875"/>
      <use xlink:href="#DejaVuSans-23" x="318.701172"/>
      <use xlink:href="#DejaVuSans-20" x="402.490234"/>
      <use xlink:href="#DejaVuSans-66" x="434.277344"/>
      <use xlink:href="#DejaVuSans-2d" x="463.982422"/>
      <use xlink:href="#DejaVuSans-65" x="500.066406"/>
      <use xlink:href="#DejaVuSans-76" x="561.589844"/>
      <use xlink:href="#DejaVuSans-61" x="620.769531"/>
      <use xlink:href="#DejaVuSans-6c" x="682.048828"/>
      <use xlink:href="#DejaVuSans-73" x="709.832031"/>
      <use xlink:href="#DejaVuSans-20" x="761.931641"/>
      <use xlink:href="#DejaVuSans-2f" x="793.71875"/>
      <use xlink:href="#DejaVuSans-20" x="827.410156"/>
      <use xlink:href="#DejaVuSans-64" x="859.197266"/>
      <use xlink:href="#DejaVuSans-69" x="922.673828"/>
      <use xlink:href="#DejaVuSans-6d" x="950.457031"/>
      <use xlink:href="#DejaVuSans-65" x="1047.869141"/>
      <use xlink:href="#DejaVuSans-6e" x="1109.392578"/>
      <use xlink:href="#DejaVuSans-73" x="1172.771484"/>
      <use xlink:href="#DejaVuSans-69" x="1224.871094"/>
      <use xlink:href="#DejaVuSans-6f" x="1252.654297"/>
      <use xlink:href="#DejaVuSans-6e" x="1313.835938"/>
      <use xlink:href="#DejaVuSans-29" x="1377.214844"/>
     </g>
    </g>
   </g>
   <g id="matplotlib.axis_2">
    <g id="ytick_1">
     <g id="line2d_21">
      <path d="M 57.6 298.944 
L 360.8064 298.944 
" clip-path="url(#p1929ea8119)" style="fill: none; stroke: #b0b0b0; stroke-width: 0.8; stroke-linecap: square"/>
     </g>
     <g id="line2d_22">
      <defs>
       <path id="m9c477cc724" d="M 0 0 
L -3.5 0 
" style="stroke: #000000; stroke-width: 0.8"/>
      </defs>
      <g>
       <use xlink:href="#m9c477cc724" x="57.6" y="298.944" style="stroke: #000000; stroke-width: 0.8"/>
      </g>
     </g>
     <g id="text_6">
      <!-- 0.0 -->
      <g transform="translate(25.155 305.02275)scale(0.16 -0.16)">
       <defs>
        <path id="DejaVuSans-2e" d="M 684 794 
L 1344 794 
L 1344 0 
L 684 0 
L 684 794 
z
" transform="scale(0.015625)"/>
       </defs>
       <use xlink:href="#DejaVuSans-30"/>
       <use xlink:href="#DejaVuSans-2e" x="63.623047"/>
       <use xlink:href="#DejaVuSans-30" x="95.410156"/>
      </g>
     </g>
    </g>
    <g id="ytick_2">
     <g id="line2d_23">
      <path d="M 57.6 240.5376 
L 360.8064 240.5376 
" clip-path="url(#p1929ea8119)" style="fill: none; stroke: #b0b0b0; stroke-width: 0.8; stroke-linecap: square"/>
     </g>
     <g id="line2d_24">
      <g>
       <use xlink:href="#m9c477cc724" x="57.6" y="240.5376" style="stroke: #000000; stroke-width: 0.8"/>
      </g>
     </g>
     <g id="text_7">
      <!-- 0.2 -->
      <g transform="translate(25.155 246.61635)scale(0.16 -0.16)">
       <use xlink:href="#DejaVuSans-30"/>
       <use xlink:href="#DejaVuSans-2e" x="63.623047"/>
       <use xlink:href="#DejaVuSans-32" x="95.410156"/>
      </g>
     </g>
    </g>
    <g id="ytick_3">
     <g id="line2d_25">
      <path d="M 57.6 182.1312 
L 360.8064 182.1312 
" clip-path="url(#p1929ea8119)" style="fill: none; stroke: #b0b0b0; stroke-width: 0.8; stroke-linecap: square"/>
     </g>
     <g id="line2d_26">
      <g>
       <use xlink:href="#m9c477cc724" x="57.6" y="182.1312" style="stroke: #000000; stroke-width: 0.8"/>
      </g>
     </g>
     <g id="text_8">
      <!-- 0.4 -->
      <g transform="translate(25.155 188.20995)scale(0.16 -0.16)">
       <use xlink:href="#DejaVuSans-30"/>
       <use xlink:href="#DejaVuSans-2e" x="63.623047"/>
       <use xlink:href="#DejaVuSans-34" x="95.410156"/>
      </g>
     </g>
    </g>
    <g id="ytick_4">
     <g id="line2d_27">
      <path d="M 57.6 123.7248 
L 360.8064 123.7248 
" clip-path="url(#p1929ea8119)" style="fill: none; stroke: #b0b0b0; stroke-width: 0.8; stroke-linecap: square"/>
     </g>
     <g id="line2d_28">
      <g>
       <use xlink:href="#m9c477cc724" x="57.6" y="123.7248" style="stroke: #000000; stroke-width: 0.8"/>
      </g>
     </g>
     <g id="text_9">
      <!-- 0.6 -->
      <g transform="translate(25.155 129.80355)scale(0.16 -0.16)">
       <use xlink:href="#DejaVuSans-30"/>
       <use xlink:href="#DejaVuSans-2e" x="63.623047"/>
       <use xlink:href="#DejaVuSans-36" x="95.410156"/>
      </g>
     </g>
    </g>
    <g id="ytick_5">
     <g id="line2d_29">
      <path d="M 57.6 65.3184 
L 360.8064 65.3184 
" clip-path="url(#p1929ea8119)" style="fill: none; stroke: #b0b0b0; stroke-width: 0.8; stroke-linecap: square"/>
     </g>
     <g id="line2d_30">
      <g>
       <use xlink:href="#m9c477cc724" x="57.6" y="65.3184" style="stroke: #000000; stroke-width: 0.8"/>
      </g>
     </g>
     <g id="text_10">
      <!-- 0.8 -->
      <g transform="translate(25.155 71.39715)scale(0.16 -0.16)">
       <defs>
        <path id="DejaVuSans-38" d="M 2034 2216 
Q 1584 2216 1326 1975 
Q 1069 1734 1069 1313 
Q 1069 891 1326 650 
Q 1584 409 2034 409 
Q 2484 409 2743 651 
Q 3003 894 3003 1313 
Q 3003 1734 2745 1975 
Q 2488 2216 2034 2216 
z
M 1403 2484 
Q 997 2584 770 2862 
Q 544 3141 544 3541 
Q 544 4100 942 4425 
Q 1341 4750 2034 4750 
Q 2731 4750 3128 4425 
Q 3525 4100 3525 3541 
Q 3525 3141 3298 2862 
Q 3072 2584 2669 2484 
Q 3125 2378 3379 2068 
Q 3634 1759 3634 1313 
Q 3634 634 3220 271 
Q 2806 -91 2034 -91 
Q 1263 -91 848 271 
Q 434 634 434 1313 
Q 434 1759 690 2068 
Q 947 2378 1403 2484 
z
M 1172 3481 
Q 1172 3119 1398 2916 
Q 1625 2713 2034 2713 
Q 2441 2713 2670 2916 
Q 2900 3119 2900 3481 
Q 2900 3844 2670 4047 
Q 2441 4250 2034 4250 
Q 1625 4250 1398 4047 
Q 1172 3844 1172 3481 
z
" transform="scale(0.015625)"/>
       </defs>
       <use xlink:href="#DejaVuSans-30"/>
       <use xlink:href="#DejaVuSans-2e" x="63.623047"/>
       <use xlink:href="#DejaVuSans-38" x="95.410156"/>
      </g>
     </g>
    </g>
    <g id="ytick_6">
     <g id="line2d_31">
      <path d="M 57.6 6.912 
L 360.8064 6.912 
" clip-path="url(#p1929ea8119)" style="fill: none; stroke: #b0b0b0; stroke-width: 0.8; stroke-linecap: square"/>
     </g>
     <g id="line2d_32">
      <g>
       <use xlink:href="#m9c477cc724" x="57.6" y="6.912" style="stroke: #000000; stroke-width: 0.8"/>
      </g>
     </g>
     <g id="text_11">
      <!-- 1.0 -->
      <g transform="translate(25.155 12.99075)scale(0.16 -0.16)">
       <use xlink:href="#DejaVuSans-31"/>
       <use xlink:href="#DejaVuSans-2e" x="63.623047"/>
       <use xlink:href="#DejaVuSans-30" x="95.410156"/>
      </g>
     </g>
    </g>
    <g id="text_12">
     <!-- Fraction of function,target pairs -->
     <g transform="translate(17.619531 287.313)rotate(-90)scale(0.17 -0.17)">
      <defs>
       <path id="DejaVuSans-46" d="M 628 4666 
L 3309 4666 
L 3309 4134 
L 1259 4134 
L 1259 2759 
L 3109 2759 
L 3109 2228 
L 1259 2228 
L 1259 0 
L 628 0 
L 628 4666 
z
" transform="scale(0.015625)"/>
       <path id="DejaVuSans-72" d="M 2631 2963 
Q 2534 3019 2420 3045 
Q 2306 3072 2169 3072 
Q 1681 3072 1420 2755 
Q 1159 2438 1159 1844 
L 1159 0 
L 581 0 
L 581 3500 
L 1159 3500 
L 1159 2956 
Q 1341 3275 1631 3429 
Q 1922 3584 2338 3584 
Q 2397 3584 2469 3576 
Q 2541 3569 2628 3553 
L 2631 2963 
z
" transform="scale(0.015625)"/>
       <path id="DejaVuSans-63" d="M 3122 3366 
L 3122 2828 
Q 2878 2963 2633 3030 
Q 2388 3097 2138 3097 
Q 1578 3097 1268 2742 
Q 959 2388 959 1747 
Q 959 1106 1268 751 
Q 1578 397 2138 397 
Q 2388 397 2633 464 
Q 2878 531 3122 666 
L 3122 134 
Q 2881 22 2623 -34 
Q 2366 -91 2075 -91 
Q 1284 -91 818 406 
Q 353 903 353 1747 
Q 353 2603 823 3093 
Q 1294 3584 2113 3584 
Q 2378 3584 2631 3529 
Q 2884 3475 3122 3366 
z
" transform="scale(0.015625)"/>
       <path id="DejaVuSans-74" d="M 1172 4494 
L 1172 3500 
L 2356 3500 
L 2356 3053 
L 1172 3053 
L 1172 1153 
Q 1172 725 1289 603 
Q 1406 481 1766 481 
L 2356 481 
L 2356 0 
L 1766 0 
Q 1100 0 847 248 
Q 594 497 594 1153 
L 594 3053 
L 172 3053 
L 172 3500 
L 594 3500 
L 594 4494 
L 1172 4494 
z
" transform="scale(0.015625)"/>
       <path id="DejaVuSans-75" d="M 544 1381 
L 544 3500 
L 1119 3500 
L 1119 1403 
Q 1119 906 1312 657 
Q 1506 409 1894 409 
Q 2359 409 2629 706 
Q 2900 1003 2900 1516 
L 2900 3500 
L 3475 3500 
L 3475 0 
L 2900 0 
L 2900 538 
Q 2691 219 2414 64 
Q 2138 -91 1772 -91 
Q 1169 -91 856 284 
Q 544 659 544 1381 
z
M 1991 3584 
L 1991 3584 
z
" transform="scale(0.015625)"/>
       <path id="DejaVuSans-2c" d="M 750 794 
L 1409 794 
L 1409 256 
L 897 -744 
L 494 -744 
L 750 256 
L 750 794 
z
" transform="scale(0.015625)"/>
       <path id="DejaVuSans-70" d="M 1159 525 
L 1159 -1331 
L 581 -1331 
L 581 3500 
L 1159 3500 
L 1159 2969 
Q 1341 3281 1617 3432 
Q 1894 3584 2278 3584 
Q 2916 3584 3314 3078 
Q 3713 2572 3713 1747 
Q 3713 922 3314 415 
Q 2916 -91 2278 -91 
Q 1894 -91 1617 61 
Q 1341 213 1159 525 
z
M 3116 1747 
Q 3116 2381 2855 2742 
Q 2594 3103 2138 3103 
Q 1681 3103 1420 2742 
Q 1159 2381 1159 1747 
Q 1159 1113 1420 752 
Q 1681 391 2138 391 
Q 2594 391 2855 752 
Q 3116 1113 3116 1747 
z
" transform="scale(0.015625)"/>
      </defs>
      <use xlink:href="#DejaVuSans-46"/>
      <use xlink:href="#DejaVuSans-72" x="50.269531"/>
      <use xlink:href="#DejaVuSans-61" x="91.382812"/>
      <use xlink:href="#DejaVuSans-63" x="152.662109"/>
      <use xlink:href="#DejaVuSans-74" x="207.642578"/>
      <use xlink:href="#DejaVuSans-69" x="246.851562"/>
      <use xlink:href="#DejaVuSans-6f" x="274.634766"/>
      <use xlink:href="#DejaVuSans-6e" x="335.816406"/>
      <use xlink:href="#DejaVuSans-20" x="399.195312"/>
      <use xlink:href="#DejaVuSans-6f" x="430.982422"/>
      <use xlink:href="#DejaVuSans-66" x="492.164062"/>
      <use xlink:href="#DejaVuSans-20" x="527.369141"/>
      <use xlink:href="#DejaVuSans-66" x="559.15625"/>
      <use xlink:href="#DejaVuSans-75" x="594.361328"/>
      <use xlink:href="#DejaVuSans-6e" x="657.740234"/>
      <use xlink:href="#DejaVuSans-63" x="721.119141"/>
      <use xlink:href="#DejaVuSans-74" x="776.099609"/>
      <use xlink:href="#DejaVuSans-69" x="815.308594"/>
      <use xlink:href="#DejaVuSans-6f" x="843.091797"/>
      <use xlink:href="#DejaVuSans-6e" x="904.273438"/>
      <use xlink:href="#DejaVuSans-2c" x="967.652344"/>
      <use xlink:href="#DejaVuSans-74" x="999.439453"/>
      <use xlink:href="#DejaVuSans-61" x="1038.648438"/>
      <use xlink:href="#DejaVuSans-72" x="1099.927734"/>
      <use xlink:href="#DejaVuSans-67" x="1139.291016"/>
      <use xlink:href="#DejaVuSans-65" x="1202.767578"/>
      <use xlink:href="#DejaVuSans-74" x="1264.291016"/>
      <use xlink:href="#DejaVuSans-20" x="1303.5"/>
      <use xlink:href="#DejaVuSans-70" x="1335.287109"/>
      <use xlink:href="#DejaVuSans-61" x="1398.763672"/>
      <use xlink:href="#DejaVuSans-69" x="1460.042969"/>
      <use xlink:href="#DejaVuSans-72" x="1487.826172"/>
      <use xlink:href="#DejaVuSans-73" x="1528.939453"/>
     </g>
    </g>
   </g>
   <g id="line2d_33">
    <defs>
     <path id="ma5e1b98e65" d="M 0 1.5 
C 0.397805 1.5 0.77937 1.341951 1.06066 1.06066 
C 1.341951 0.77937 1.5 0.397805 1.5 0 
C 1.5 -0.397805 1.341951 -0.77937 1.06066 -1.06066 
C 0.77937 -1.341951 0.397805 -1.5 0 -1.5 
C -0.397805 -1.5 -0.77937 -1.341951 -1.06066 -1.06066 
C -1.341951 -0.77937 -1.5 -0.397805 -1.5 0 
C -1.5 0.397805 -1.341951 0.77937 -1.06066 1.06066 
C -0.77937 1.341951 -0.397805 1.5 0 1.5 
z
" style="stroke: #f5deb3"/>
    </defs>
    <g>
     <use xlink:href="#ma5e1b98e65" x="300.477731" y="42.157241" style="fill: #f5deb3; stroke: #f5deb3"/>
     <use xlink:href="#ma5e1b98e65" x="300.477731" y="42.157241" style="fill: #f5deb3; stroke: #f5deb3"/>
    </g>
   </g>
   <g id="line2d_34">
    <defs>
     <path id="mc0ddcf1846" d="M 0 1.5 
C 0.397805 1.5 0.77937 1.341951 1.06066 1.06066 
C 1.341951 0.77937 1.5 0.397805 1.5 0 
C 1.5 -0.397805 1.341951 -0.77937 1.06066 -1.06066 
C 0.77937 -1.341951 0.397805 -1.5 0 -1.5 
C -0.397805 -1.5 -0.77937 -1.341951 -1.06066 -1.06066 
C -1.341951 -0.77937 -1.5 -0.397805 -1.5 0 
C -1.5 0.397805 -1.341951 0.77937 -1.06066 1.06066 
C -0.77937 1.341951 -0.397805 1.5 0 1.5 
z
" style="stroke: #000080"/>
    </defs>
    <g>
     <use xlink:href="#mc0ddcf1846" x="81.696354" y="280.440248" style="fill: #000080; stroke: #000080"/>
     <use xlink:href="#mc0ddcf1846" x="81.696354" y="280.440248" style="fill: #000080; stroke: #000080"/>
    </g>
   </g>
   <g id="line2d_35">
    <path d="M 27.323974 298.944 
L 27.323974 290.762069 
L 40.363149 290.762069 
L 40.363149 290.006814 
L 47.990577 290.006814 
L 47.990577 289.125683 
L 53.402323 289.125683 
L 53.402323 288.496303 
L 57.6 288.496303 
L 57.6 288.118676 
L 61.029752 288.118676 
L 61.029752 287.741048 
L 63.929565 287.741048 
L 63.929565 287.363421 
L 66.441498 287.363421 
L 66.441498 286.734041 
L 68.65718 286.734041 
L 68.65718 285.727034 
L 70.639174 285.727034 
L 70.639174 285.349407 
L 72.432107 285.349407 
L 72.432107 284.090648 
L 74.068926 284.090648 
L 74.068926 283.209517 
L 75.574654 283.209517 
L 75.574654 282.580138 
L 76.96874 282.580138 
L 76.96874 282.20251 
L 78.266603 282.20251 
L 78.266603 281.573131 
L 81.696354 281.573131 
L 81.696354 280.440248 
L 360.8064 280.440248 
" style="fill: none; stroke: #000080; stroke-width: 1.5; stroke-linecap: square"/>
   </g>
   <g id="line2d_36">
    <defs>
     <path id="m63958d9f85" d="M 0 6 
C 1.591219 6 3.117479 5.367802 4.242641 4.242641 
C 5.367802 3.117479 6 1.591219 6 0 
C 6 -1.591219 5.367802 -3.117479 4.242641 -4.242641 
C 3.117479 -5.367802 1.591219 -6 0 -6 
C -1.591219 -6 -3.117479 -5.367802 -4.242641 -4.242641 
C -5.367802 -3.117479 -6 -1.591219 -6 0 
C -6 1.591219 -5.367802 3.117479 -4.242641 4.242641 
C -3.117479 5.367802 -1.591219 6 0 6 
z
" style="stroke: #000080; stroke-width: 1.5"/>
    </defs>
    <g>
     <use xlink:href="#m63958d9f85" x="81.696354" y="281.573131" style="fill-opacity: 0; stroke: #000080; stroke-width: 1.5"/>
     <use xlink:href="#m63958d9f85" x="81.696354" y="281.573131" style="fill-opacity: 0; stroke: #000080; stroke-width: 1.5"/>
     <use xlink:href="#m63958d9f85" x="81.696354" y="280.440248" style="fill-opacity: 0; stroke: #000080; stroke-width: 1.5"/>
     <use xlink:href="#m63958d9f85" x="81.696354" y="280.440248" style="fill-opacity: 0; stroke: #000080; stroke-width: 1.5"/>
     <use xlink:href="#m63958d9f85" x="81.696354" y="280.440248" style="fill-opacity: 0; stroke: #000080; stroke-width: 1.5"/>
     <use xlink:href="#m63958d9f85" x="360.8064" y="280.440248" style="fill-opacity: 0; stroke: #000080; stroke-width: 1.5"/>
    </g>
   </g>
   <g id="line2d_37">
    <path style="fill: none; stroke: #000080; stroke-width: 1.5; stroke-linecap: square"/>
    <g/>
   </g>
   <g id="line2d_38">
    <path d="M 81.696354 280.440248 
" clip-path="url(#p1929ea8119)" style="fill: none; stroke: #000080; stroke-width: 1.5; stroke-linecap: square"/>
    <defs>
     <path id="me22f881ac5" d="M -12 12 
L 12 -12 
M -12 -12 
L 12 12 
" style="stroke: #000080"/>
    </defs>
    <g clip-path="url(#p1929ea8119)">
     <use xlink:href="#me22f881ac5" x="81.696354" y="280.440248" style="fill: #000080; stroke: #000080"/>
    </g>
   </g>
   <g id="line2d_39">
    <defs>
     <path id="m75e5b28006" d="M 0 1.5 
C 0.397805 1.5 0.77937 1.341951 1.06066 1.06066 
C 1.341951 0.77937 1.5 0.397805 1.5 0 
C 1.5 -0.397805 1.341951 -0.77937 1.06066 -1.06066 
C 0.77937 -1.341951 0.397805 -1.5 0 -1.5 
C -0.397805 -1.5 -0.77937 -1.341951 -1.06066 -1.06066 
C -1.341951 -0.77937 -1.5 -0.397805 -1.5 0 
C -1.5 0.397805 -1.341951 0.77937 -1.06066 1.06066 
C -0.77937 1.341951 -0.397805 1.5 0 1.5 
z
" style="stroke: #ff00ff"/>
    </defs>
    <g>
     <use xlink:href="#m75e5b28006" x="273.049453" y="144.997821" style="fill: #ff00ff; stroke: #ff00ff"/>
     <use xlink:href="#m75e5b28006" x="273.049453" y="144.997821" style="fill: #ff00ff; stroke: #ff00ff"/>
    </g>
   </g>
   <g id="line2d_40">
    <path d="M 27.323974 298.944 
L 27.323974 290.762069 
L 40.363149 290.762069 
L 40.363149 290.13269 
L 47.990577 290.13269 
L 47.990577 289.880938 
L 53.402323 289.880938 
L 53.402323 289.377434 
L 57.6 289.377434 
L 57.6 288.999807 
L 61.029752 288.999807 
L 61.029752 288.496303 
L 63.929565 288.496303 
L 63.929565 288.370428 
L 66.441498 288.370428 
L 66.441498 288.118676 
L 68.65718 288.118676 
L 68.65718 287.9928 
L 70.639174 287.9928 
L 70.639174 287.866924 
L 72.432107 287.866924 
L 72.432107 287.615172 
L 76.96874 287.615172 
L 76.96874 287.363421 
L 78.266603 287.363421 
L 78.266603 286.985793 
L 79.480672 286.985793 
L 79.480672 286.734041 
L 80.621116 286.734041 
L 80.621116 286.608166 
L 81.696354 286.608166 
L 81.696354 286.104662 
L 82.713442 286.104662 
L 82.713442 285.978786 
L 83.678349 285.978786 
L 83.678349 285.097655 
L 85.471281 285.097655 
L 85.471281 284.845903 
L 87.1081 284.845903 
L 87.1081 284.720028 
L 87.876026 284.720028 
L 87.876026 284.3424 
L 88.613828 284.3424 
L 88.613828 283.964772 
L 89.323782 283.964772 
L 89.323782 283.587145 
L 90.007914 283.587145 
L 90.007914 283.083641 
L 93.098709 283.083641 
L 93.098709 282.957766 
L 95.752617 282.957766 
L 95.752617 282.83189 
L 96.717523 282.83189 
L 96.717523 282.580138 
L 97.18203 282.580138 
L 97.18203 282.454262 
L 98.077987 282.454262 
L 98.077987 282.076634 
L 98.510456 282.076634 
L 98.510456 281.950759 
L 98.933205 281.950759 
L 98.933205 281.824883 
L 99.346662 281.824883 
L 99.346662 281.699007 
L 100.147275 281.699007 
L 100.147275 281.573131 
L 101.287718 281.573131 
L 101.287718 281.321379 
L 102.011329 281.321379 
L 102.011329 281.195503 
L 102.362957 281.195503 
L 102.362957 281.069628 
L 103.707211 281.069628 
L 103.707211 280.943752 
L 104.028784 280.943752 
L 104.028784 280.440248 
L 105.850679 280.440248 
L 105.850679 280.314372 
L 106.42077 280.314372 
L 106.42077 280.188497 
L 106.699465 280.188497 
L 106.699465 279.936745 
L 107.5116 279.936745 
L 107.5116 279.810869 
L 108.29012 279.810869 
L 108.29012 279.684993 
L 108.791791 279.684993 
L 108.791791 279.559117 
L 109.037698 279.559117 
L 109.037698 279.307366 
L 110.221204 279.307366 
L 110.221204 279.18149 
L 110.449226 279.18149 
L 110.449226 279.055614 
L 111.117162 279.055614 
L 111.117162 278.929738 
L 111.54963 278.929738 
L 111.54963 278.803862 
L 112.180244 278.803862 
L 112.180244 278.677986 
L 112.385837 278.677986 
L 112.385837 278.048607 
L 112.989468 278.048607 
L 112.989468 277.922731 
L 113.186449 277.922731 
L 113.186449 277.796855 
L 113.381389 277.796855 
L 113.381389 277.670979 
L 114.141556 277.670979 
L 114.141556 277.293352 
L 114.326893 277.293352 
L 114.326893 277.167476 
L 114.510421 277.167476 
L 114.510421 277.0416 
L 115.227139 277.0416 
L 115.227139 276.915724 
L 115.402131 276.915724 
L 115.402131 276.538097 
L 116.419219 276.538097 
L 116.419219 276.412221 
L 116.583514 276.412221 
L 116.583514 276.286345 
L 116.746385 276.286345 
L 116.746385 276.034593 
L 117.695068 276.034593 
L 117.695068 275.908717 
L 117.848632 275.908717 
L 117.848632 275.53109 
L 118.152051 275.53109 
L 118.152051 275.153462 
L 118.301945 275.153462 
L 118.301945 274.90171 
L 118.450653 274.90171 
L 118.450653 274.524083 
L 118.598196 274.524083 
L 118.598196 274.398207 
L 118.74459 274.398207 
L 118.74459 274.272331 
L 118.889854 274.272331 
L 118.889854 274.146455 
L 119.738639 274.146455 
L 119.738639 274.020579 
L 119.876453 274.020579 
L 119.876453 273.894703 
L 120.682786 273.894703 
L 120.682786 273.642952 
L 120.813877 273.642952 
L 120.813877 273.517076 
L 120.944062 273.517076 
L 120.944062 273.3912 
L 121.455972 273.3912 
L 121.455972 273.265324 
L 121.581803 273.265324 
L 121.581803 272.887697 
L 121.954321 272.887697 
L 121.954321 272.635945 
L 122.439807 272.635945 
L 122.439807 272.384193 
L 122.913079 272.384193 
L 122.913079 272.258317 
L 123.145323 272.258317 
L 123.145323 272.132441 
L 123.374735 272.132441 
L 123.374735 272.006566 
L 123.713691 272.006566 
L 123.713691 271.88069 
L 123.825333 271.88069 
L 123.825333 271.754814 
L 124.588805 271.754814 
L 124.588805 271.377186 
L 124.801367 271.377186 
L 124.801367 271.125434 
L 125.011554 271.125434 
L 125.115773 270.621931 
L 125.219419 270.621931 
L 125.322496 270.244303 
L 125.425011 270.244303 
L 125.425011 270.118428 
L 125.829577 270.118428 
L 125.829577 269.866676 
L 126.028642 269.866676 
L 126.127391 269.111421 
L 126.225624 269.111421 
L 126.323346 268.733793 
L 126.613505 268.733793 
L 126.613505 268.607917 
L 126.899255 268.607917 
L 126.993549 267.852662 
L 127.087372 267.852662 
L 127.087372 267.475034 
L 127.366067 267.475034 
L 127.458055 267.097407 
L 127.549596 267.097407 
L 127.549596 266.971531 
L 128.000734 266.971531 
L 128.000734 266.593903 
L 128.178203 266.593903 
L 128.178203 266.468028 
L 128.528195 266.468028 
L 128.614685 266.216276 
L 129.125437 266.216276 
L 129.125437 266.0904 
L 129.947033 266.0904 
L 130.027253 265.838648 
L 130.107132 265.838648 
L 130.107132 265.461021 
L 130.656987 265.461021 
L 130.734242 265.209269 
L 131.191226 265.209269 
L 131.191226 265.083393 
L 131.341119 265.083393 
L 131.41562 264.705766 
L 131.489828 264.705766 
L 131.489828 264.202262 
L 131.63737 264.202262 
L 131.63737 263.95051 
L 132.56918 263.95051 
L 132.56918 263.824634 
L 132.984158 263.824634 
L 132.984158 263.447007 
L 133.853052 263.447007 
L 133.918257 263.069379 
L 134.495147 263.069379 
L 134.495147 262.943503 
L 134.745971 262.943503 
L 134.745971 262.691752 
L 135.35878 262.691752 
L 135.35878 262.565876 
L 135.657857 262.565876 
L 135.657857 262.44 
L 135.776169 262.44 
L 135.776169 262.188248 
L 136.242113 262.188248 
L 136.242113 262.062372 
L 136.413909 262.062372 
L 136.470828 261.684745 
L 136.97549 261.684745 
L 136.97549 261.432993 
L 137.140746 261.432993 
L 137.250116 261.181241 
L 137.840541 261.181241 
L 137.840541 261.055366 
L 138.154948 261.055366 
L 138.154948 260.92949 
L 138.818654 260.92949 
L 138.818654 260.803614 
L 140.725251 260.803614 
L 140.815692 260.425986 
L 141.349389 260.425986 
L 141.349389 260.30011 
L 141.48048 260.30011 
L 141.48048 260.174234 
L 141.65386 260.174234 
L 141.65386 259.922483 
L 141.910969 259.922483 
L 141.953481 259.544855 
L 142.080444 259.544855 
L 142.164612 259.167228 
L 142.206555 259.167228 
L 142.290162 258.7896 
L 143.965177 258.7896 
L 143.965177 258.663724 
L 144.192739 258.663724 
L 144.192739 258.537848 
L 146.261241 258.537848 
L 146.261241 258.286097 
L 146.761135 258.286097 
L 146.761135 258.034345 
L 147.785146 258.034345 
L 147.785146 257.908469 
L 148.094045 257.908469 
L 148.094045 257.782593 
L 148.548087 257.782593 
L 148.548087 257.656717 
L 148.962194 257.656717 
L 148.962194 257.530841 
L 149.367382 257.530841 
L 149.367382 257.27909 
L 149.623325 257.27909 
L 149.623325 257.153214 
L 151.452172 257.153214 
L 151.452172 257.027338 
L 152.007722 257.027338 
L 152.007722 256.901462 
L 152.181101 256.901462 
L 152.181101 256.775586 
L 153.351976 256.775586 
L 153.351976 256.64971 
L 153.877408 256.64971 
L 153.877408 256.397959 
L 154.300658 256.397959 
L 154.300658 256.272083 
L 154.584859 256.272083 
L 154.693034 255.768579 
L 154.992656 255.768579 
L 155.056244 255.265076 
L 155.22477 255.265076 
L 155.22477 255.1392 
L 155.454055 255.1392 
L 155.495444 254.761572 
L 155.701037 254.761572 
L 155.762279 254.258069 
L 155.843627 254.258069 
L 155.863909 254.006317 
L 156.005274 254.006317 
L 156.005274 253.880441 
L 156.540799 253.880441 
L 156.560344 253.502814 
L 156.927882 253.502814 
L 156.927882 253.376938 
L 157.419468 253.376938 
L 157.512549 253.125186 
L 157.69734 253.125186 
L 157.69734 252.99931 
L 157.880333 252.99931 
L 157.880333 252.873434 
L 158.061563 252.873434 
L 158.151527 252.621683 
L 158.276759 252.621683 
L 158.347948 252.118179 
L 158.717331 252.118179 
L 158.769513 251.866428 
L 158.856162 251.866428 
L 158.907961 251.614676 
L 158.993977 251.614676 
L 159.096679 251.237048 
L 159.215793 251.237048 
L 159.317295 250.985297 
L 159.334159 250.985297 
L 159.334159 250.733545 
L 159.485256 250.733545 
L 159.585318 250.355917 
L 159.601943 250.355917 
L 159.601943 250.230041 
L 159.800309 250.230041 
L 159.898714 249.97829 
L 159.915064 249.97829 
L 160.012872 249.34891 
L 160.077795 249.34891 
L 160.077795 249.223034 
L 160.206974 249.223034 
L 160.206974 249.097159 
L 160.351247 249.097159 
L 160.430923 248.845407 
L 160.761927 248.845407 
L 160.808741 248.593655 
L 160.963953 248.593655 
L 160.994842 248.090152 
L 161.087207 248.090152 
L 161.087207 247.964276 
L 161.316153 247.964276 
L 161.391854 247.334897 
L 161.512345 247.334897 
L 161.527352 246.957269 
L 161.632069 246.957269 
L 161.632069 246.831393 
L 161.795455 246.831393 
L 161.898693 246.32789 
L 161.957434 246.32789 
L 162.015991 245.950262 
L 162.277267 245.950262 
L 162.291676 245.69851 
L 162.435167 245.69851 
L 162.506504 245.320883 
L 162.634233 245.320883 
L 162.634233 245.195007 
L 162.747046 245.195007 
L 162.845206 244.817379 
L 162.873158 244.817379 
L 162.970663 244.062124 
L 162.998429 244.062124 
L 162.998429 243.936248 
L 163.122872 243.936248 
L 163.232801 243.432745 
L 163.246497 243.432745 
L 163.27386 243.055117 
L 163.369315 243.055117 
L 163.3965 242.551614 
L 163.518345 242.551614 
L 163.612572 242.173986 
L 163.639407 242.173986 
L 163.639407 242.04811 
L 163.945293 242.04811 
L 163.945293 241.922234 
L 164.259262 241.922234 
L 164.259262 241.796359 
L 164.401432 241.796359 
L 164.478528 241.418731 
L 164.606324 241.418731 
L 164.606324 241.292855 
L 164.834193 241.292855 
L 164.934588 240.285848 
L 164.984586 240.285848 
L 164.984586 240.159972 
L 165.096597 240.159972 
L 165.096597 240.034097 
L 165.35539 240.034097 
L 165.35539 239.908221 
L 165.525963 239.908221 
L 165.525963 239.782345 
L 165.766985 239.782345 
L 165.766985 239.656469 
L 165.91013 239.656469 
L 165.91013 239.404717 
L 166.111072 239.404717 
L 166.146311 238.649462 
L 166.251633 238.649462 
L 166.251633 238.523586 
L 166.437427 238.523586 
L 166.541136 237.516579 
L 166.587046 237.516579 
L 166.587046 237.264828 
L 166.701332 237.264828 
L 166.701332 237.013076 
L 167.185004 237.013076 
L 167.240447 236.257821 
L 167.44965 236.257821 
L 167.558829 235.250814 
L 167.699821 235.250814 
L 167.753769 234.621434 
L 167.904005 234.621434 
L 167.925369 234.243807 
L 168.084835 234.243807 
L 168.148245 233.740303 
L 168.274427 233.740303 
L 168.305841 233.2368 
L 168.627414 233.2368 
L 168.627414 232.985048 
L 168.882801 232.985048 
L 168.903083 232.355669 
L 169.184759 232.355669 
L 169.184759 232.229793 
L 169.452437 232.229793 
L 169.560409 231.72629 
L 169.589749 231.72629 
L 169.648291 231.222786 
L 169.803519 231.222786 
L 169.8614 230.719283 
L 169.928705 230.719283 
L 169.928705 230.593407 
L 170.110183 230.593407 
L 170.110183 230.467531 
L 170.393211 230.467531 
L 170.393211 230.215779 
L 170.672043 230.215779 
L 170.754894 229.838152 
L 170.946803 229.838152 
L 171.055593 228.957021 
L 171.064631 228.957021 
L 171.064631 228.705269 
L 171.235523 228.705269 
L 171.271304 228.201766 
L 171.555123 228.201766 
L 171.634182 227.950014 
L 171.938512 227.950014 
L 172.024567 227.572386 
L 172.058879 227.572386 
L 172.118775 227.320634 
L 172.178481 227.320634 
L 172.178481 227.068883 
L 172.381759 227.068883 
L 172.440637 226.691255 
L 172.516068 226.691255 
L 172.557844 226.313628 
L 172.781843 226.313628 
L 172.814802 225.936 
L 172.921523 225.936 
L 172.921523 225.558372 
L 173.03578 225.558372 
L 173.043915 224.928993 
L 173.334447 224.928993 
L 173.366453 224.551366 
L 173.517742 224.551366 
L 173.588983 223.670234 
L 173.75417 223.670234 
L 173.832324 223.292607 
L 173.886839 223.292607 
L 173.995397 222.914979 
L 174.026299 222.914979 
L 174.026299 222.663228 
L 174.241203 222.663228 
L 174.302156 221.782097 
L 175.003938 221.782097 
L 175.040543 221.404469 
L 175.149934 221.404469 
L 175.149934 221.278593 
L 175.265921 221.278593 
L 175.352444 220.77509 
L 175.445731 220.77509 
L 175.538557 220.271586 
L 175.595454 220.271586 
L 175.666334 219.516331 
L 175.743995 219.516331 
L 175.849382 219.012828 
L 175.856387 219.012828 
L 175.856387 218.761076 
L 175.995939 218.761076 
L 176.058402 218.257572 
L 176.299358 218.257572 
L 176.36764 217.628193 
L 176.462819 217.628193 
L 176.523753 217.12469 
L 176.59796 217.12469 
L 176.691985 216.369434 
L 176.738821 216.369434 
L 176.738821 216.243559 
L 176.852084 216.243559 
L 176.918392 215.614179 
L 177.063452 215.614179 
L 177.109374 214.733048 
L 177.213919 214.733048 
L 177.304922 214.103669 
L 177.369655 214.103669 
L 177.395487 213.348414 
L 177.613631 213.348414 
L 177.613631 213.096662 
L 177.867075 213.096662 
L 177.929905 212.467283 
L 178.129566 212.467283 
L 178.160572 211.963779 
L 178.44956 211.963779 
L 178.498311 211.460276 
L 178.67398 211.460276 
L 178.728166 210.705021 
L 178.80616 210.705021 
L 178.895753 210.327393 
L 179.06186 210.327393 
L 179.138486 209.698014 
L 179.185485 209.698014 
L 179.185485 209.572138 
L 179.296641 209.572138 
L 179.349065 208.942759 
L 179.534288 208.942759 
L 179.609017 208.565131 
L 179.68345 208.565131 
L 179.75759 208.187503 
L 179.831439 208.187503 
L 179.876741 207.684 
L 180.051262 207.684 
L 180.062466 207.180497 
L 180.263006 207.180497 
L 180.318334 206.676993 
L 180.401022 206.676993 
L 180.499771 206.425241 
L 180.587114 206.425241 
L 180.695726 205.795862 
L 180.738996 205.795862 
L 180.782166 205.166483 
L 181.129302 205.166483 
L 181.240098 204.0336 
L 181.245358 204.0336 
L 181.33455 203.404221 
L 181.371153 203.404221 
L 181.44935 202.900717 
L 181.666588 202.900717 
L 181.769159 202.271338 
L 181.789607 202.271338 
L 181.789607 202.019586 
L 182.078592 202.019586 
L 182.133854 201.641959 
L 182.308614 201.641959 
L 182.407753 201.264331 
L 182.447262 201.264331 
L 182.506372 200.509076 
L 182.575099 200.509076 
L 182.624036 200.131448 
L 182.745826 200.131448 
L 182.750681 199.753821 
L 183.025378 199.753821 
L 183.025378 199.502069 
L 183.206305 199.502069 
L 183.30555 198.998566 
L 183.357327 198.998566 
L 183.380815 198.746814 
L 183.572318 198.746814 
L 183.660407 197.865683 
L 183.771091 197.865683 
L 183.835357 197.110428 
L 183.885698 197.110428 
L 183.995068 196.606924 
L 184.040451 196.606924 
L 184.085726 196.229297 
L 184.247818 196.229297 
L 184.283649 195.851669 
L 184.408525 195.851669 
L 184.408525 195.725793 
L 184.594298 195.725793 
L 184.594298 195.474041 
L 184.921539 195.474041 
L 184.921539 195.348166 
L 185.042265 195.348166 
L 185.042265 195.22229 
L 185.179295 195.22229 
L 185.247437 194.844662 
L 185.353418 194.844662 
L 185.353418 194.59291 
L 185.509182 194.59291 
L 185.509182 194.341159 
L 185.82514 194.341159 
L 185.936123 193.711779 
L 185.993413 193.711779 
L 186.099348 193.208276 
L 186.115593 193.208276 
L 186.152093 192.830648 
L 186.293367 192.830648 
L 186.361605 192.578897 
L 186.529139 192.578897 
L 186.620255 192.327145 
L 186.651845 192.327145 
L 186.74237 191.949517 
L 186.789428 191.949517 
L 186.894881 191.57189 
L 187.038437 191.57189 
L 187.100178 190.94251 
L 187.165556 190.94251 
L 187.19241 190.564883 
L 187.284193 190.564883 
L 187.284193 190.313131 
L 187.729056 190.313131 
L 187.755118 189.683752 
L 188.294252 189.683752 
L 188.294252 189.432 
L 188.474165 189.432 
L 188.584853 189.054372 
L 188.694894 189.054372 
L 188.694894 188.928497 
L 188.961978 188.928497 
L 189.066371 188.676745 
L 189.173638 188.676745 
L 189.173638 188.550869 
L 189.314575 188.550869 
L 189.314575 188.424993 
L 189.721108 188.424993 
L 189.721108 188.299117 
L 189.867995 188.299117 
L 189.867995 188.173241 
L 190.10591 188.173241 
L 190.20416 187.92149 
L 190.42175 187.92149 
L 190.42175 187.795614 
L 190.795787 187.795614 
L 190.849521 187.543862 
L 190.981621 187.543862 
L 191.072294 187.040359 
L 191.230702 187.040359 
L 191.230702 186.914483 
L 191.424558 186.914483 
L 191.455146 186.536855 
L 191.564852 186.536855 
L 191.564852 186.159228 
L 192.420205 186.159228 
L 192.420205 186.033352 
L 192.659662 186.033352 
L 192.659662 185.7816 
L 192.924397 185.7816 
L 192.924397 185.655724 
L 193.713228 185.655724 
L 193.713228 185.403972 
L 194.200199 185.403972 
L 194.200199 185.278097 
L 194.517116 185.278097 
L 194.517116 185.026345 
L 194.764809 185.026345 
L 194.764809 184.774593 
L 194.938307 184.774593 
L 194.938307 184.648717 
L 196.014251 184.648717 
L 196.014251 184.396966 
L 196.212281 184.396966 
L 196.212281 184.27109 
L 196.548652 184.27109 
L 196.548652 184.019338 
L 196.844721 184.019338 
L 196.844721 183.767586 
L 197.509828 183.767586 
L 197.509828 183.64171 
L 197.897889 183.64171 
L 197.897889 183.515834 
L 198.07929 183.515834 
L 198.085737 183.138207 
L 198.346034 183.138207 
L 198.346034 182.886455 
L 198.571401 182.886455 
L 198.571401 182.760579 
L 198.987589 182.760579 
L 199.061167 182.508828 
L 199.596091 182.508828 
L 199.596091 182.257076 
L 199.722556 182.257076 
L 199.722556 182.1312 
L 200.060211 182.1312 
L 200.060211 182.005324 
L 201.106088 182.005324 
L 201.106088 181.753572 
L 201.43439 181.753572 
L 201.502593 181.375945 
L 201.556264 181.375945 
L 201.654264 180.62069 
L 202.923789 180.62069 
L 202.923789 180.368938 
L 203.046319 180.368938 
L 203.046319 180.243062 
L 203.531826 180.243062 
L 203.531826 180.117186 
L 203.660058 180.117186 
L 203.660058 179.99131 
L 203.896585 179.99131 
L 203.896585 179.865434 
L 204.06306 179.865434 
L 204.06306 179.613683 
L 204.439226 179.613683 
L 204.439226 179.361931 
L 204.97857 179.361931 
L 205.017253 179.110179 
L 205.143162 179.110179 
L 205.15792 178.732552 
L 205.417232 178.732552 
L 205.417232 178.606676 
L 206.049589 178.606676 
L 206.049589 178.4808 
L 206.410489 178.4808 
L 206.410489 178.229048 
L 206.620477 178.229048 
L 206.620477 178.103172 
L 207.144045 178.103172 
L 207.144045 177.977297 
L 207.552394 177.977297 
L 207.552394 177.851421 
L 208.172028 177.851421 
L 208.172028 177.725545 
L 208.510805 177.725545 
L 208.510805 177.222041 
L 208.652223 177.222041 
L 208.754851 176.97029 
L 209.296496 176.97029 
L 209.296496 176.844414 
L 209.524775 176.844414 
L 209.546984 176.592662 
L 210.060917 176.592662 
L 210.101794 176.215034 
L 210.452393 176.215034 
L 210.452393 175.963283 
L 210.728681 175.963283 
L 210.831524 175.585655 
L 211.204235 175.585655 
L 211.204235 175.459779 
L 211.451836 175.459779 
L 211.53295 175.208028 
L 211.968309 175.208028 
L 211.968309 175.082152 
L 213.161183 175.082152 
L 213.161183 174.956276 
L 214.290168 174.956276 
L 214.290168 174.8304 
L 215.044688 174.8304 
L 215.044688 174.704524 
L 216.155506 174.704524 
L 216.155506 174.578648 
L 216.566979 174.578648 
L 216.566979 174.452772 
L 217.396995 174.452772 
L 217.396995 174.326897 
L 217.959572 174.326897 
L 218.04379 173.949269 
L 218.271444 173.949269 
L 218.271444 173.823393 
L 218.674118 173.823393 
L 218.674118 173.571641 
L 218.922723 173.571641 
L 219.026052 173.31989 
L 219.13794 173.31989 
L 219.149863 172.816386 
L 219.403372 172.816386 
L 219.403372 172.69051 
L 219.677386 172.69051 
L 219.734568 172.438759 
L 219.813249 172.438759 
L 219.813249 172.312883 
L 220.122727 172.312883 
L 220.122727 172.187007 
L 220.400315 172.187007 
L 220.400315 171.935255 
L 220.739704 171.935255 
L 220.739704 171.683503 
L 221.612211 171.683503 
L 221.612211 171.431752 
L 222.511244 171.431752 
L 222.511244 171.305876 
L 222.848912 171.305876 
L 222.848912 171.18 
L 223.176098 171.18 
L 223.176098 171.054124 
L 223.418504 171.054124 
L 223.418504 170.928248 
L 223.879971 170.928248 
L 223.879971 170.676497 
L 224.425972 170.676497 
L 224.425972 170.550621 
L 224.723928 170.550621 
L 224.805604 170.172993 
L 224.90604 170.172993 
L 224.90604 170.047117 
L 225.558594 170.047117 
L 225.638221 169.66949 
L 226.287877 169.66949 
L 226.287877 169.543614 
L 227.474491 169.543614 
L 227.474491 169.417738 
L 227.896289 169.417738 
L 227.896289 169.291862 
L 228.01965 169.291862 
L 228.110445 169.04011 
L 228.188231 169.04011 
L 228.188231 168.914234 
L 228.415825 168.914234 
L 228.415825 168.788359 
L 229.542905 168.788359 
L 229.542905 168.662483 
L 229.720427 168.662483 
L 229.720427 168.536607 
L 230.778224 168.536607 
L 230.778224 168.284855 
L 231.046864 168.284855 
L 231.046864 168.158979 
L 231.239956 168.158979 
L 231.312088 167.781352 
L 231.514486 167.781352 
L 231.61126 167.277848 
L 231.734853 167.277848 
L 231.734853 167.151972 
L 231.859424 167.151972 
L 231.859424 166.900221 
L 232.144813 166.900221 
L 232.25029 166.396717 
L 232.371158 166.396717 
L 232.476758 165.893214 
L 232.487458 165.893214 
L 232.487458 165.767338 
L 232.998062 165.767338 
L 233.011491 165.515586 
L 233.175213 165.515586 
L 233.249585 165.137959 
L 233.523606 165.137959 
L 233.523606 165.012083 
L 233.940876 165.012083 
L 233.995097 164.634455 
L 234.091352 164.634455 
L 234.091352 164.508579 
L 234.24032 164.508579 
L 234.24032 164.382703 
L 234.381567 164.382703 
L 234.381567 164.130952 
L 234.615674 164.130952 
L 234.615674 164.005076 
L 234.880356 164.005076 
L 234.880356 163.8792 
L 235.985466 163.8792 
L 235.985466 163.753324 
L 236.158296 163.753324 
L 236.158296 163.627448 
L 236.291255 163.627448 
L 236.291255 163.375697 
L 236.464942 163.375697 
L 236.500659 162.872193 
L 236.695898 162.872193 
L 236.789743 162.36869 
L 236.938765 162.36869 
L 236.938765 162.242814 
L 237.6685 162.242814 
L 237.6685 161.991062 
L 238.306005 161.991062 
L 238.306005 161.865186 
L 238.572066 161.865186 
L 238.572066 161.73931 
L 239.108453 161.73931 
L 239.197067 161.109931 
L 239.610604 161.109931 
L 239.610604 160.858179 
L 239.944808 160.858179 
L 239.944808 160.606428 
L 240.104071 160.606428 
L 240.115346 160.354676 
L 240.305543 160.354676 
L 240.359436 159.599421 
L 240.454565 159.599421 
L 240.454565 159.347669 
L 240.573478 159.347669 
L 240.585821 159.095917 
L 240.723742 159.095917 
L 240.723742 158.844166 
L 240.917176 158.844166 
L 240.940528 158.592414 
L 241.135897 158.592414 
L 241.135897 158.466538 
L 241.7458 158.466538 
L 241.7458 158.340662 
L 243.111267 158.340662 
L 243.161811 158.08891 
L 243.485539 158.08891 
L 243.485539 157.963034 
L 245.127149 157.963034 
L 245.127149 157.837159 
L 245.315306 157.837159 
L 245.315306 157.711283 
L 245.663298 157.711283 
L 245.663298 157.585407 
L 245.994707 157.585407 
L 245.994707 157.333655 
L 246.373893 157.333655 
L 246.460777 157.081903 
L 247.305726 157.081903 
L 247.305726 156.704276 
L 247.730348 156.704276 
L 247.730348 156.452524 
L 247.899314 156.452524 
L 248.008802 156.074897 
L 248.156252 156.074897 
L 248.156252 155.949021 
L 249.115674 155.949021 
L 249.139467 155.571393 
L 249.440327 155.571393 
L 249.440327 155.319641 
L 250.234645 155.319641 
L 250.234645 155.193766 
L 250.353555 155.193766 
L 250.353555 155.06789 
L 251.266758 155.06789 
L 251.266758 154.816138 
L 251.440166 154.816138 
L 251.440166 154.690262 
L 251.711355 154.690262 
L 251.711355 154.564386 
L 252.285935 154.564386 
L 252.386485 154.060883 
L 252.401217 154.060883 
L 252.401217 153.935007 
L 252.902677 153.935007 
L 252.943432 153.683255 
L 253.151185 153.683255 
L 253.151185 153.557379 
L 255.516448 153.557379 
L 255.516448 153.431503 
L 255.675753 153.431503 
L 255.675753 153.305628 
L 257.040458 153.305628 
L 257.113567 152.928 
L 258.02942 152.928 
L 258.02942 152.802124 
L 258.669643 152.802124 
L 258.77871 152.550372 
L 259.226013 152.550372 
L 259.226013 152.424497 
L 259.401354 152.424497 
L 259.464374 152.172745 
L 260.70927 152.172745 
L 260.773666 151.920993 
L 261.017862 151.920993 
L 261.017862 151.669241 
L 261.139384 151.669241 
L 261.139384 151.543366 
L 261.601405 151.543366 
L 261.601405 151.291614 
L 261.895671 151.291614 
L 261.895671 151.039862 
L 262.016337 151.039862 
L 262.016337 150.913986 
L 262.142299 150.913986 
L 262.142299 150.78811 
L 262.407128 150.78811 
L 262.517717 149.906979 
L 262.552575 149.906979 
L 262.552575 149.781103 
L 263.171719 149.781103 
L 263.171719 149.655228 
L 263.36715 149.655228 
L 263.36715 149.529352 
L 264.700352 149.529352 
L 264.798468 149.151724 
L 264.976374 149.151724 
L 264.976374 149.025848 
L 265.601914 149.025848 
L 265.601914 148.774097 
L 266.230523 148.774097 
L 266.230523 148.648221 
L 266.842137 148.648221 
L 266.842137 148.522345 
L 268.536185 148.522345 
L 268.536185 148.270593 
L 268.764805 148.270593 
L 268.764805 148.144717 
L 269.242899 148.144717 
L 269.351785 147.389462 
L 269.379528 147.389462 
L 269.452744 146.004828 
L 269.796765 146.004828 
L 269.796765 145.878952 
L 271.186278 145.878952 
L 271.186278 145.753076 
L 272.119405 145.753076 
L 272.119405 145.501324 
L 272.344811 145.501324 
L 272.344811 145.375448 
L 272.554757 145.375448 
L 272.554757 145.249572 
L 272.95896 145.249572 
L 273.049453 144.997821 
L 360.8064 144.997821 
L 360.8064 144.997821 
" style="fill: none; stroke: #ff00ff; stroke-width: 1.5; stroke-linecap: square"/>
   </g>
   <g id="line2d_41">
    <defs>
     <path id="mf17decdac3" d="M 0 8.485281 
L 5.091169 0 
L 0 -8.485281 
L -5.091169 0 
z
" style="stroke: #ff00ff; stroke-width: 1.5; stroke-linejoin: miter"/>
    </defs>
    <g>
     <use xlink:href="#mf17decdac3" x="96.717523" y="282.83189" style="fill-opacity: 0; stroke: #ff00ff; stroke-width: 1.5; stroke-linejoin: miter"/>
     <use xlink:href="#mf17decdac3" x="153.877408" y="256.64971" style="fill-opacity: 0; stroke: #ff00ff; stroke-width: 1.5; stroke-linejoin: miter"/>
     <use xlink:href="#mf17decdac3" x="220.739704" y="171.683503" style="fill-opacity: 0; stroke: #ff00ff; stroke-width: 1.5; stroke-linejoin: miter"/>
     <use xlink:href="#mf17decdac3" x="273.049453" y="145.123697" style="fill-opacity: 0; stroke: #ff00ff; stroke-width: 1.5; stroke-linejoin: miter"/>
     <use xlink:href="#mf17decdac3" x="273.049453" y="144.997821" style="fill-opacity: 0; stroke: #ff00ff; stroke-width: 1.5; stroke-linejoin: miter"/>
     <use xlink:href="#mf17decdac3" x="360.8064" y="144.997821" style="fill-opacity: 0; stroke: #ff00ff; stroke-width: 1.5; stroke-linejoin: miter"/>
    </g>
   </g>
   <g id="line2d_42">
    <path style="fill: none; stroke: #ff00ff; stroke-width: 1.5; stroke-linecap: square"/>
    <g/>
   </g>
   <g id="line2d_43">
    <path d="M 274.176038 144.997821 
" clip-path="url(#p1929ea8119)" style="fill: none; stroke: #ff00ff; stroke-width: 1.5; stroke-linecap: square"/>
    <defs>
     <path id="m1851a6709f" d="M -12 12 
L 12 -12 
M -12 -12 
L 12 12 
" style="stroke: #ff00ff"/>
    </defs>
    <g clip-path="url(#p1929ea8119)">
     <use xlink:href="#m1851a6709f" x="274.176038" y="144.997821" style="fill: #ff00ff; stroke: #ff00ff"/>
    </g>
   </g>
   <g id="line2d_44">
    <defs>
     <path id="m215787fcc3" d="M 0 1.5 
C 0.397805 1.5 0.77937 1.341951 1.06066 1.06066 
C 1.341951 0.77937 1.5 0.397805 1.5 0 
C 1.5 -0.397805 1.341951 -0.77937 1.06066 -1.06066 
C 0.77937 -1.341951 0.397805 -1.5 0 -1.5 
C -0.397805 -1.5 -0.77937 -1.341951 -1.06066 -1.06066 
C -1.341951 -0.77937 -1.5 -0.397805 -1.5 0 
C -1.5 0.397805 -1.341951 0.77937 -1.06066 1.06066 
C -0.77937 1.341951 -0.397805 1.5 0 1.5 
z
" style="stroke: #6495ed"/>
    </defs>
    <g>
     <use xlink:href="#m215787fcc3" x="113.954374" y="258.286097" style="fill: #6495ed; stroke: #6495ed"/>
     <use xlink:href="#m215787fcc3" x="113.954374" y="258.286097" style="fill: #6495ed; stroke: #6495ed"/>
    </g>
   </g>
   <g id="line2d_45">
    <path d="M 27.323974 298.944 
L 27.323974 297.181738 
L 40.363149 297.181738 
L 40.363149 295.922979 
L 47.990577 295.922979 
L 47.990577 295.167724 
L 53.402323 295.167724 
L 53.402323 294.664221 
L 57.6 294.664221 
L 57.6 294.160717 
L 61.029752 294.160717 
L 61.029752 292.650207 
L 63.929565 292.650207 
L 63.929565 292.146703 
L 66.441498 292.146703 
L 66.441498 291.013821 
L 68.65718 291.013821 
L 68.65718 290.762069 
L 70.639174 290.762069 
L 70.639174 290.13269 
L 72.432107 290.13269 
L 72.432107 290.006814 
L 74.068926 290.006814 
L 74.068926 289.755062 
L 75.574654 289.755062 
L 75.574654 289.50331 
L 76.96874 289.50331 
L 76.96874 288.496303 
L 78.266603 288.496303 
L 78.266603 288.244552 
L 79.480672 288.244552 
L 79.480672 287.9928 
L 80.621116 287.9928 
L 80.621116 287.741048 
L 81.696354 287.741048 
L 81.696354 287.489297 
L 82.713442 287.489297 
L 82.713442 287.111669 
L 84.596168 287.111669 
L 84.596168 286.985793 
L 85.471281 286.985793 
L 85.471281 286.859917 
L 86.307488 286.859917 
L 86.307488 286.734041 
L 90.007914 286.734041 
L 90.007914 286.48229 
L 90.668036 286.48229 
L 90.668036 285.85291 
L 91.922605 285.85291 
L 91.922605 285.601159 
L 93.098709 285.601159 
L 93.098709 285.349407 
L 93.66029 285.349407 
L 93.66029 285.097655 
L 94.205591 285.097655 
L 94.205591 284.971779 
L 94.735529 284.971779 
L 94.735529 284.720028 
L 95.752617 284.720028 
L 95.752617 284.594152 
L 96.241256 284.594152 
L 96.241256 284.468276 
L 97.18203 284.468276 
L 97.18203 284.3424 
L 97.635342 284.3424 
L 97.635342 284.090648 
L 98.077987 284.090648 
L 98.077987 283.964772 
L 98.510456 283.964772 
L 98.510456 283.713021 
L 98.933205 283.713021 
L 98.933205 283.587145 
L 99.346662 283.587145 
L 99.346662 283.461269 
L 99.751228 283.461269 
L 99.751228 283.335393 
L 100.535156 283.335393 
L 100.535156 283.209517 
L 101.287718 283.209517 
L 101.287718 283.083641 
L 101.653002 283.083641 
L 101.653002 282.580138 
L 102.362957 282.580138 
L 102.362957 282.454262 
L 102.708132 282.454262 
L 102.708132 282.076634 
L 103.047088 282.076634 
L 103.047088 280.440248 
L 103.380045 280.440248 
L 103.380045 279.684993 
L 103.707211 279.684993 
L 103.707211 279.055614 
L 104.028784 279.055614 
L 104.028784 277.796855 
L 104.344952 277.796855 
L 104.344952 276.789848 
L 104.655893 276.789848 
L 104.655893 275.782841 
L 104.961779 275.782841 
L 104.961779 274.90171 
L 105.26277 274.90171 
L 105.26277 274.020579 
L 105.559021 274.020579 
L 105.559021 272.887697 
L 105.850679 272.887697 
L 105.850679 272.384193 
L 106.137884 272.384193 
L 106.137884 271.88069 
L 106.42077 271.88069 
L 106.42077 271.503062 
L 106.699465 271.503062 
L 106.699465 271.125434 
L 106.974091 271.125434 
L 106.974091 270.873683 
L 107.244765 270.873683 
L 107.244765 270.496055 
L 107.5116 270.496055 
L 107.5116 269.992552 
L 107.774703 269.992552 
L 107.774703 269.866676 
L 108.034177 269.866676 
L 108.034177 268.985545 
L 108.29012 268.985545 
L 108.29012 268.482041 
L 108.542628 268.482041 
L 108.542628 267.475034 
L 108.791791 267.475034 
L 108.791791 267.097407 
L 109.037698 267.097407 
L 109.037698 266.0904 
L 109.280431 266.0904 
L 109.280431 265.838648 
L 109.520071 265.838648 
L 109.520071 265.586897 
L 109.756698 265.586897 
L 109.756698 265.461021 
L 109.990385 265.461021 
L 109.990385 265.209269 
L 110.221204 265.209269 
L 110.221204 264.328138 
L 110.449226 264.328138 
L 110.449226 263.95051 
L 110.674517 263.95051 
L 110.674517 263.069379 
L 110.897141 263.069379 
L 110.897141 262.188248 
L 111.117162 262.188248 
L 111.117162 262.062372 
L 111.334639 262.062372 
L 111.334639 261.936497 
L 111.54963 261.936497 
L 111.54963 261.684745 
L 111.762192 261.684745 
L 111.762192 261.055366 
L 112.180244 261.055366 
L 112.180244 260.92949 
L 112.385837 260.92949 
L 112.385837 260.803614 
L 112.589207 260.803614 
L 112.589207 260.551862 
L 112.790402 260.551862 
L 112.790402 260.30011 
L 112.989468 260.30011 
L 112.989468 260.174234 
L 113.186449 260.174234 
L 113.186449 259.418979 
L 113.381389 259.418979 
L 113.381389 258.663724 
L 113.57433 258.663724 
L 113.57433 258.411972 
L 113.954374 258.411972 
L 113.954374 258.286097 
L 360.8064 258.286097 
L 360.8064 258.286097 
" style="fill: none; stroke: #6495ed; stroke-width: 1.5; stroke-linecap: square"/>
   </g>
   <g id="line2d_46">
    <defs>
     <path id="m8cceeccb59" d="M -0 6 
L 6 -6 
L -6 -6 
z
" style="stroke: #6495ed; stroke-width: 1.5; stroke-linejoin: miter"/>
    </defs>
    <g>
     <use xlink:href="#m8cceeccb59" x="113.954374" y="258.411972" style="fill-opacity: 0; stroke: #6495ed; stroke-width: 1.5; stroke-linejoin: miter"/>
     <use xlink:href="#m8cceeccb59" x="113.954374" y="258.411972" style="fill-opacity: 0; stroke: #6495ed; stroke-width: 1.5; stroke-linejoin: miter"/>
     <use xlink:href="#m8cceeccb59" x="113.954374" y="258.286097" style="fill-opacity: 0; stroke: #6495ed; stroke-width: 1.5; stroke-linejoin: miter"/>
     <use xlink:href="#m8cceeccb59" x="113.954374" y="258.286097" style="fill-opacity: 0; stroke: #6495ed; stroke-width: 1.5; stroke-linejoin: miter"/>
     <use xlink:href="#m8cceeccb59" x="113.954374" y="258.286097" style="fill-opacity: 0; stroke: #6495ed; stroke-width: 1.5; stroke-linejoin: miter"/>
     <use xlink:href="#m8cceeccb59" x="360.8064" y="258.286097" style="fill-opacity: 0; stroke: #6495ed; stroke-width: 1.5; stroke-linejoin: miter"/>
    </g>
   </g>
   <g id="line2d_47">
    <path style="fill: none; stroke: #6495ed; stroke-width: 1.5; stroke-linecap: square"/>
    <g/>
   </g>
   <g id="line2d_48">
    <path d="M 113.954374 258.286097 
" clip-path="url(#p1929ea8119)" style="fill: none; stroke: #6495ed; stroke-width: 1.5; stroke-linecap: square"/>
    <defs>
     <path id="m4e65277ac3" d="M -12 12 
L 12 -12 
M -12 -12 
L 12 12 
" style="stroke: #6495ed"/>
    </defs>
    <g clip-path="url(#p1929ea8119)">
     <use xlink:href="#m4e65277ac3" x="113.954374" y="258.286097" style="fill: #6495ed; stroke: #6495ed"/>
    </g>
   </g>
   <g id="line2d_49">
    <path d="M 360.8064 280.440248 
L 380.514816 293.10336 
" style="fill: none; stroke: #000080; stroke-width: 1.5; stroke-linecap: square"/>
    <g>
     <use xlink:href="#m63958d9f85" x="360.8064" y="280.440248" style="fill-opacity: 0; stroke: #000080; stroke-width: 1.5"/>
     <use xlink:href="#m63958d9f85" x="380.514816" y="293.10336" style="fill-opacity: 0; stroke: #000080; stroke-width: 1.5"/>
    </g>
   </g>
   <g id="line2d_50">
    <path d="M 360.8064 258.286097 
L 380.514816 199.65312 
" style="fill: none; stroke: #6495ed; stroke-width: 1.5; stroke-linecap: square"/>
    <g>
     <use xlink:href="#m8cceeccb59" x="360.8064" y="258.286097" style="fill-opacity: 0; stroke: #6495ed; stroke-width: 1.5; stroke-linejoin: miter"/>
     <use xlink:href="#m8cceeccb59" x="380.514816" y="199.65312" style="fill-opacity: 0; stroke: #6495ed; stroke-width: 1.5; stroke-linejoin: miter"/>
    </g>
   </g>
   <g id="line2d_51">
    <path d="M 360.8064 144.997821 
L 380.514816 106.20288 
" style="fill: none; stroke: #ff00ff; stroke-width: 1.5; stroke-linecap: square"/>
    <g>
     <use xlink:href="#mf17decdac3" x="360.8064" y="144.997821" style="fill-opacity: 0; stroke: #ff00ff; stroke-width: 1.5; stroke-linejoin: miter"/>
     <use xlink:href="#mf17decdac3" x="380.514816" y="106.20288" style="fill-opacity: 0; stroke: #ff00ff; stroke-width: 1.5; stroke-linejoin: miter"/>
    </g>
   </g>
   <g id="line2d_52">
    <path d="M 360.8064 298.944 
L 360.8064 6.912 
" style="fill: none; stroke: #000000; stroke-width: 1.5; stroke-linecap: square"/>
   </g>
   <g id="patch_3">
    <path d="M 57.6 298.944 
L 360.8064 298.944 
" style="fill: none; stroke: #000000; stroke-width: 0.8; stroke-linejoin: miter; stroke-linecap: square"/>
   </g>
   <g id="patch_4">
    <path d="M 57.6 6.912 
L 360.8064 6.912 
" style="fill: none; stroke: #000000; stroke-width: 0.8; stroke-linejoin: miter; stroke-linecap: square"/>
   </g>
   <g id="text_13">
    <!-- cma -->
    <g transform="translate(386.578944 296.966485)scale(0.14 -0.14)">
     <use xlink:href="#DejaVuSans-63"/>
     <use xlink:href="#DejaVuSans-6d" x="54.980469"/>
     <use xlink:href="#DejaVuSans-61" x="152.392578"/>
    </g>
   </g>
   <g id="text_14">
    <!-- parEgo -->
    <g transform="translate(386.578944 203.516245)scale(0.14 -0.14)">
     <defs>
      <path id="DejaVuSans-45" d="M 628 4666 
L 3578 4666 
L 3578 4134 
L 1259 4134 
L 1259 2753 
L 3481 2753 
L 3481 2222 
L 1259 2222 
L 1259 531 
L 3634 531 
L 3634 0 
L 628 0 
L 628 4666 
z
" transform="scale(0.015625)"/>
     </defs>
     <use xlink:href="#DejaVuSans-70"/>
     <use xlink:href="#DejaVuSans-61" x="63.476562"/>
     <use xlink:href="#DejaVuSans-72" x="124.755859"/>
     <use xlink:href="#DejaVuSans-45" x="165.869141"/>
     <use xlink:href="#DejaVuSans-67" x="229.052734"/>
     <use xlink:href="#DejaVuSans-6f" x="292.529297"/>
    </g>
   </g>
   <g id="text_15">
    <!-- external- -->
    <g transform="translate(386.578944 110.066005)scale(0.14 -0.14)">
     <defs>
      <path id="DejaVuSans-78" d="M 3513 3500 
L 2247 1797 
L 3578 0 
L 2900 0 
L 1881 1375 
L 863 0 
L 184 0 
L 1544 1831 
L 300 3500 
L 978 3500 
L 1906 2253 
L 2834 3500 
L 3513 3500 
z
" transform="scale(0.015625)"/>
     </defs>
     <use xlink:href="#DejaVuSans-65"/>
     <use xlink:href="#DejaVuSans-78" x="59.773438"/>
     <use xlink:href="#DejaVuSans-74" x="118.953125"/>
     <use xlink:href="#DejaVuSans-65" x="158.162109"/>
     <use xlink:href="#DejaVuSans-72" x="219.685547"/>
     <use xlink:href="#DejaVuSans-6e" x="259.048828"/>
     <use xlink:href="#DejaVuSans-61" x="322.427734"/>
     <use xlink:href="#DejaVuSans-6c" x="383.707031"/>
     <use xlink:href="#DejaVuSans-2d" x="411.490234"/>
    </g>
   </g>
   <g id="text_16">
    <!-- best 2016 -->
    <g transform="translate(386.578944 16.615765)scale(0.14 -0.14)">
     <defs>
      <path id="DejaVuSans-62" d="M 3116 1747 
Q 3116 2381 2855 2742 
Q 2594 3103 2138 3103 
Q 1681 3103 1420 2742 
Q 1159 2381 1159 1747 
Q 1159 1113 1420 752 
Q 1681 391 2138 391 
Q 2594 391 2855 752 
Q 3116 1113 3116 1747 
z
M 1159 2969 
Q 1341 3281 1617 3432 
Q 1894 3584 2278 3584 
Q 2916 3584 3314 3078 
Q 3713 2572 3713 1747 
Q 3713 922 3314 415 
Q 2916 -91 2278 -91 
Q 1894 -91 1617 61 
Q 1341 213 1159 525 
L 1159 0 
L 581 0 
L 581 4863 
L 1159 4863 
L 1159 2969 
z
" transform="scale(0.015625)"/>
     </defs>
     <use xlink:href="#DejaVuSans-62"/>
     <use xlink:href="#DejaVuSans-65" x="63.476562"/>
     <use xlink:href="#DejaVuSans-73" x="125"/>
     <use xlink:href="#DejaVuSans-74" x="177.099609"/>
     <use xlink:href="#DejaVuSans-20" x="216.308594"/>
     <use xlink:href="#DejaVuSans-32" x="248.095703"/>
     <use xlink:href="#DejaVuSans-30" x="311.71875"/>
     <use xlink:href="#DejaVuSans-31" x="375.341797"/>
     <use xlink:href="#DejaVuSans-36" x="438.964844"/>
    </g>
   </g>
   <g id="text_17">
    <!-- bbob-biobj f39, f40, f44, f45, 5-D -->
    <g transform="translate(60.632064 17.582726)scale(0.102 -0.102)">
     <defs>
      <path id="DejaVuSans-6a" d="M 603 3500 
L 1178 3500 
L 1178 -63 
Q 1178 -731 923 -1031 
Q 669 -1331 103 -1331 
L -116 -1331 
L -116 -844 
L 38 -844 
Q 366 -844 484 -692 
Q 603 -541 603 -63 
L 603 3500 
z
M 603 4863 
L 1178 4863 
L 1178 4134 
L 603 4134 
L 603 4863 
z
" transform="scale(0.015625)"/>
      <path id="DejaVuSans-33" d="M 2597 2516 
Q 3050 2419 3304 2112 
Q 3559 1806 3559 1356 
Q 3559 666 3084 287 
Q 2609 -91 1734 -91 
Q 1441 -91 1130 -33 
Q 819 25 488 141 
L 488 750 
Q 750 597 1062 519 
Q 1375 441 1716 441 
Q 2309 441 2620 675 
Q 2931 909 2931 1356 
Q 2931 1769 2642 2001 
Q 2353 2234 1838 2234 
L 1294 2234 
L 1294 2753 
L 1863 2753 
Q 2328 2753 2575 2939 
Q 2822 3125 2822 3475 
Q 2822 3834 2567 4026 
Q 2313 4219 1838 4219 
Q 1578 4219 1281 4162 
Q 984 4106 628 3988 
L 628 4550 
Q 988 4650 1302 4700 
Q 1616 4750 1894 4750 
Q 2613 4750 3031 4423 
Q 3450 4097 3450 3541 
Q 3450 3153 3228 2886 
Q 3006 2619 2597 2516 
z
" transform="scale(0.015625)"/>
      <path id="DejaVuSans-39" d="M 703 97 
L 703 672 
Q 941 559 1184 500 
Q 1428 441 1663 441 
Q 2288 441 2617 861 
Q 2947 1281 2994 2138 
Q 2813 1869 2534 1725 
Q 2256 1581 1919 1581 
Q 1219 1581 811 2004 
Q 403 2428 403 3163 
Q 403 3881 828 4315 
Q 1253 4750 1959 4750 
Q 2769 4750 3195 4129 
Q 3622 3509 3622 2328 
Q 3622 1225 3098 567 
Q 2575 -91 1691 -91 
Q 1453 -91 1209 -44 
Q 966 3 703 97 
z
M 1959 2075 
Q 2384 2075 2632 2365 
Q 2881 2656 2881 3163 
Q 2881 3666 2632 3958 
Q 2384 4250 1959 4250 
Q 1534 4250 1286 3958 
Q 1038 3666 1038 3163 
Q 1038 2656 1286 2365 
Q 1534 2075 1959 2075 
z
" transform="scale(0.015625)"/>
      <path id="DejaVuSans-35" d="M 691 4666 
L 3169 4666 
L 3169 4134 
L 1269 4134 
L 1269 2991 
Q 1406 3038 1543 3061 
Q 1681 3084 1819 3084 
Q 2600 3084 3056 2656 
Q 3513 2228 3513 1497 
Q 3513 744 3044 326 
Q 2575 -91 1722 -91 
Q 1428 -91 1123 -41 
Q 819 9 494 109 
L 494 744 
Q 775 591 1075 516 
Q 1375 441 1709 441 
Q 2250 441 2565 725 
Q 2881 1009 2881 1497 
Q 2881 1984 2565 2268 
Q 2250 2553 1709 2553 
Q 1456 2553 1204 2497 
Q 953 2441 691 2322 
L 691 4666 
z
" transform="scale(0.015625)"/>
      <path id="DejaVuSans-44" d="M 1259 4147 
L 1259 519 
L 2022 519 
Q 2988 519 3436 956 
Q 3884 1394 3884 2338 
Q 3884 3275 3436 3711 
Q 2988 4147 2022 4147 
L 1259 4147 
z
M 628 4666 
L 1925 4666 
Q 3281 4666 3915 4102 
Q 4550 3538 4550 2338 
Q 4550 1131 3912 565 
Q 3275 0 1925 0 
L 628 0 
L 628 4666 
z
" transform="scale(0.015625)"/>
     </defs>
     <use xlink:href="#DejaVuSans-62"/>
     <use xlink:href="#DejaVuSans-62" x="63.476562"/>
     <use xlink:href="#DejaVuSans-6f" x="126.953125"/>
     <use xlink:href="#DejaVuSans-62" x="188.134766"/>
     <use xlink:href="#DejaVuSans-2d" x="251.611328"/>
     <use xlink:href="#DejaVuSans-62" x="287.695312"/>
     <use xlink:href="#DejaVuSans-69" x="351.171875"/>
     <use xlink:href="#DejaVuSans-6f" x="378.955078"/>
     <use xlink:href="#DejaVuSans-62" x="440.136719"/>
     <use xlink:href="#DejaVuSans-6a" x="503.613281"/>
     <use xlink:href="#DejaVuSans-20" x="531.396484"/>
     <use xlink:href="#DejaVuSans-66" x="563.183594"/>
     <use xlink:href="#DejaVuSans-33" x="598.388672"/>
     <use xlink:href="#DejaVuSans-39" x="662.011719"/>
     <use xlink:href="#DejaVuSans-2c" x="725.634766"/>
     <use xlink:href="#DejaVuSans-20" x="757.421875"/>
     <use xlink:href="#DejaVuSans-66" x="789.208984"/>
     <use xlink:href="#DejaVuSans-34" x="824.414062"/>
     <use xlink:href="#DejaVuSans-30" x="888.037109"/>
     <use xlink:href="#DejaVuSans-2c" x="951.660156"/>
     <use xlink:href="#DejaVuSans-20" x="983.447266"/>
     <use xlink:href="#DejaVuSans-66" x="1015.234375"/>
     <use xlink:href="#DejaVuSans-34" x="1050.439453"/>
     <use xlink:href="#DejaVuSans-34" x="1114.0625"/>
     <use xlink:href="#DejaVuSans-2c" x="1177.685547"/>
     <use xlink:href="#DejaVuSans-20" x="1209.472656"/>
     <use xlink:href="#DejaVuSans-66" x="1241.259766"/>
     <use xlink:href="#DejaVuSans-34" x="1276.464844"/>
     <use xlink:href="#DejaVuSans-35" x="1340.087891"/>
     <use xlink:href="#DejaVuSans-2c" x="1403.710938"/>
     <use xlink:href="#DejaVuSans-20" x="1435.498047"/>
     <use xlink:href="#DejaVuSans-35" x="1467.285156"/>
     <use xlink:href="#DejaVuSans-2d" x="1530.908203"/>
     <use xlink:href="#DejaVuSans-44" x="1566.992188"/>
    </g>
    <!-- 58 targets: 1..-1.0e-4 -->
    <g transform="translate(60.632064 29.004495)scale(0.102 -0.102)">
     <defs>
      <path id="DejaVuSans-3a" d="M 750 794 
L 1409 794 
L 1409 0 
L 750 0 
L 750 794 
z
M 750 3309 
L 1409 3309 
L 1409 2516 
L 750 2516 
L 750 3309 
z
" transform="scale(0.015625)"/>
     </defs>
     <use xlink:href="#DejaVuSans-35"/>
     <use xlink:href="#DejaVuSans-38" x="63.623047"/>
     <use xlink:href="#DejaVuSans-20" x="127.246094"/>
     <use xlink:href="#DejaVuSans-74" x="159.033203"/>
     <use xlink:href="#DejaVuSans-61" x="198.242188"/>
     <use xlink:href="#DejaVuSans-72" x="259.521484"/>
     <use xlink:href="#DejaVuSans-67" x="298.884766"/>
     <use xlink:href="#DejaVuSans-65" x="362.361328"/>
     <use xlink:href="#DejaVuSans-74" x="423.884766"/>
     <use xlink:href="#DejaVuSans-73" x="463.09375"/>
     <use xlink:href="#DejaVuSans-3a" x="515.193359"/>
     <use xlink:href="#DejaVuSans-20" x="548.884766"/>
     <use xlink:href="#DejaVuSans-31" x="580.671875"/>
     <use xlink:href="#DejaVuSans-2e" x="644.294922"/>
     <use xlink:href="#DejaVuSans-2e" x="676.082031"/>
     <use xlink:href="#DejaVuSans-2d" x="707.869141"/>
     <use xlink:href="#DejaVuSans-31" x="743.953125"/>
     <use xlink:href="#DejaVuSans-2e" x="807.576172"/>
     <use xlink:href="#DejaVuSans-30" x="839.363281"/>
     <use xlink:href="#DejaVuSans-65" x="902.986328"/>
     <use xlink:href="#DejaVuSans-2d" x="964.509766"/>
     <use xlink:href="#DejaVuSans-34" x="1000.59375"/>
    </g>
    <!-- 10 instances -->
    <g transform="translate(60.632064 40.426264)scale(0.102 -0.102)">
     <use xlink:href="#DejaVuSans-31"/>
     <use xlink:href="#DejaVuSans-30" x="63.623047"/>
     <use xlink:href="#DejaVuSans-20" x="127.246094"/>
     <use xlink:href="#DejaVuSans-69" x="159.033203"/>
     <use xlink:href="#DejaVuSans-6e" x="186.816406"/>
     <use xlink:href="#DejaVuSans-73" x="250.195312"/>
     <use xlink:href="#DejaVuSans-74" x="302.294922"/>
     <use xlink:href="#DejaVuSans-61" x="341.503906"/>
     <use xlink:href="#DejaVuSans-6e" x="402.783203"/>
     <use xlink:href="#DejaVuSans-63" x="466.162109"/>
     <use xlink:href="#DejaVuSans-65" x="521.142578"/>
     <use xlink:href="#DejaVuSans-73" x="582.666016"/>
    </g>
   </g>
   <g id="text_18">
    <!-- v2.6, hv-hash=ff0e71e8cd978373 -->
    <g style="fill: #808080" transform="translate(123.707887 293.943992)scale(0.1 -0.1)">
     <defs>
      <path id="DejaVuSans-68" d="M 3513 2113 
L 3513 0 
L 2938 0 
L 2938 2094 
Q 2938 2591 2744 2837 
Q 2550 3084 2163 3084 
Q 1697 3084 1428 2787 
Q 1159 2491 1159 1978 
L 1159 0 
L 581 0 
L 581 4863 
L 1159 4863 
L 1159 2956 
Q 1366 3272 1645 3428 
Q 1925 3584 2291 3584 
Q 2894 3584 3203 3211 
Q 3513 2838 3513 2113 
z
" transform="scale(0.015625)"/>
      <path id="DejaVuSans-3d" d="M 678 2906 
L 4684 2906 
L 4684 2381 
L 678 2381 
L 678 2906 
z
M 678 1631 
L 4684 1631 
L 4684 1100 
L 678 1100 
L 678 1631 
z
" transform="scale(0.015625)"/>
      <path id="DejaVuSans-37" d="M 525 4666 
L 3525 4666 
L 3525 4397 
L 1831 0 
L 1172 0 
L 2766 4134 
L 525 4134 
L 525 4666 
z
" transform="scale(0.015625)"/>
     </defs>
     <use xlink:href="#DejaVuSans-76"/>
     <use xlink:href="#DejaVuSans-32" x="59.179688"/>
     <use xlink:href="#DejaVuSans-2e" x="122.802734"/>
     <use xlink:href="#DejaVuSans-36" x="154.589844"/>
     <use xlink:href="#DejaVuSans-2c" x="218.212891"/>
     <use xlink:href="#DejaVuSans-20" x="250"/>
     <use xlink:href="#DejaVuSans-68" x="281.787109"/>
     <use xlink:href="#DejaVuSans-76" x="345.166016"/>
     <use xlink:href="#DejaVuSans-2d" x="401.720703"/>
     <use xlink:href="#DejaVuSans-68" x="437.804688"/>
     <use xlink:href="#DejaVuSans-61" x="501.183594"/>
     <use xlink:href="#DejaVuSans-73" x="562.462891"/>
     <use xlink:href="#DejaVuSans-68" x="614.5625"/>
     <use xlink:href="#DejaVuSans-3d" x="677.941406"/>
     <use xlink:href="#DejaVuSans-66" x="761.730469"/>
     <use xlink:href="#DejaVuSans-66" x="796.935547"/>
     <use xlink:href="#DejaVuSans-30" x="832.140625"/>
     <use xlink:href="#DejaVuSans-65" x="895.763672"/>
     <use xlink:href="#DejaVuSans-37" x="957.287109"/>
     <use xlink:href="#DejaVuSans-31" x="1020.910156"/>
     <use xlink:href="#DejaVuSans-65" x="1084.533203"/>
     <use xlink:href="#DejaVuSans-38" x="1146.056641"/>
     <use xlink:href="#DejaVuSans-63" x="1209.679688"/>
     <use xlink:href="#DejaVuSans-64" x="1264.660156"/>
     <use xlink:href="#DejaVuSans-39" x="1328.136719"/>
     <use xlink:href="#DejaVuSans-37" x="1391.759766"/>
     <use xlink:href="#DejaVuSans-38" x="1455.382812"/>
     <use xlink:href="#DejaVuSans-33" x="1519.005859"/>
     <use xlink:href="#DejaVuSans-37" x="1582.628906"/>
     <use xlink:href="#DejaVuSans-33" x="1646.251953"/>
    </g>
   </g>
  </g>
 </g>
 <defs>
  <clipPath id="p1929ea8119">
   <rect x="57.6" y="6.912" width="303.2064" height="292.032"/>
  </clipPath>
 </defs>
</svg>
