<?xml version="1.0" encoding="utf-8" standalone="no"?>
<!DOCTYPE svg PUBLIC "-//W3C//DTD SVG 1.1//EN"
  "http://www.w3.org/Graphics/SVG/1.1/DTD/svg11.dtd">
<svg xmlns:xlink="http://www.w3.org/1999/xlink" width="460.8pt" height="345.6pt" viewBox="0 0 460.8 345.6" xmlns="http://www.w3.org/2000/svg" version="1.1">
 <metadata>
  <rdf:RDF xmlns:dc="http://purl.org/dc/elements/1.1/" xmlns:cc="http://creativecommons.org/ns#" xmlns:rdf="http://www.w3.org/1999/02/22-rdf-syntax-ns#">
   <cc:Work>
    <dc:type rdf:resource="http://purl.org/dc/dcmitype/StillImage"/>
    <dc:date>2022-06-19T21:03:06.131977</dc:date>
    <dc:format>image/svg+xml</dc:format>
    <dc:creator>
     <cc:Agent>
      <dc:title>Matplotlib v3.5.1, https://matplotlib.org/</dc:title>
     </cc:Agent>
    </dc:creator>
   </cc:Work>
  </rdf:RDF>
 </metadata>
 <defs>
  <style type="text/css">*{stroke-linejoin: round; stroke-linecap: butt}</style>
 </defs>
 <g id="figure_1">
  <g id="patch_1">
   <path d="M 0 345.6 
L 460.8 345.6 
L 460.8 0 
L 0 0 
z
" style="fill: #ffffff"/>
  </g>
  <g id="axes_1">
   <g id="patch_2">
    <path d="M 57.6 298.944 
L 360.8064 298.944 
L 360.8064 6.912 
L 57.6 6.912 
z
" style="fill: #ffffff"/>
   </g>
   <g id="line2d_1">
    <path d="M 74.836851 298.944 
L 74.836851 297.685241 
L 78.266603 297.685241 
L 78.266603 296.426483 
L 81.166416 296.426483 
L 81.166416 292.650207 
L 83.678349 292.650207 
L 83.678349 287.615172 
L 85.894031 287.615172 
L 85.894031 285.097655 
L 92.811505 285.097655 
L 92.811505 282.580138 
L 94.205591 282.580138 
L 94.205591 280.062621 
L 97.857967 280.062621 
L 97.857967 277.545103 
L 99.950294 277.545103 
L 99.950294 275.027586 
L 103.544339 275.027586 
L 103.544339 273.768828 
L 107.904887 273.768828 
L 107.904887 269.992552 
L 109.756698 269.992552 
L 109.756698 266.216276 
L 112.989468 266.216276 
L 112.989468 263.698759 
L 114.872193 263.698759 
L 114.872193 261.181241 
L 116.170056 261.181241 
L 116.170056 258.663724 
L 117.384126 258.663724 
L 117.384126 257.404966 
L 120.944062 257.404966 
L 120.944062 256.146207 
L 123.657621 256.146207 
L 123.657621 253.62869 
L 125.526971 253.62869 
L 125.526971 252.369931 
L 128.999044 252.369931 
L 128.999044 248.593655 
L 133.820365 248.593655 
L 133.820365 246.076138 
L 136.270855 246.076138 
L 136.270855 242.299862 
L 137.787626 242.299862 
L 137.787626 238.523586 
L 140.14993 238.523586 
L 140.14993 236.006069 
L 141.393187 236.006069 
L 141.393187 234.74731 
L 142.966099 234.74731 
L 142.966099 232.229793 
L 145.237585 232.229793 
L 145.237585 229.712276 
L 145.765046 229.712276 
L 145.765046 227.194759 
L 148.503173 227.194759 
L 148.503173 224.677241 
L 150.083698 224.677241 
L 150.083698 223.418483 
L 150.693856 223.418483 
L 150.693856 222.159724 
L 152.953957 222.159724 
L 152.953957 219.642207 
L 153.478964 219.642207 
L 153.478964 218.383448 
L 155.547053 218.383448 
L 155.547053 214.607172 
L 157.595929 214.607172 
L 157.595929 212.089655 
L 157.871225 212.089655 
L 157.871225 209.572138 
L 158.187393 209.572138 
L 158.187393 205.795862 
L 160.4627 205.795862 
L 160.4627 199.502069 
L 163.019227 199.502069 
L 163.019227 196.984552 
L 165.053116 196.984552 
L 165.084184 191.949517 
L 165.300233 191.949517 
L 165.300233 189.432 
L 166.315707 189.432 
L 166.315707 188.173241 
L 168.482867 188.173241 
L 168.482867 185.655724 
L 169.784185 185.655724 
L 169.784185 183.138207 
L 170.61198 183.138207 
L 170.61198 179.361931 
L 172.482581 179.361931 
L 172.482581 178.103172 
L 173.060174 178.103172 
L 173.060174 175.585655 
L 173.797195 175.585655 
L 173.797195 171.809379 
L 174.18388 171.809379 
L 174.18388 169.291862 
L 176.058402 169.291862 
L 176.058402 165.515586 
L 176.57101 165.515586 
L 176.57101 162.998069 
L 179.383934 162.998069 
L 179.383934 160.480552 
L 180.59256 160.480552 
L 180.59256 159.221793 
L 181.868631 159.221793 
L 181.868631 157.963034 
L 183.800956 157.963034 
L 183.84681 152.928 
L 184.074417 152.928 
L 184.074417 149.151724 
L 186.767875 149.151724 
L 186.767875 147.892966 
L 187.030705 147.892966 
L 187.030705 146.634207 
L 189.977413 146.634207 
L 189.977413 142.857931 
L 190.288897 142.857931 
L 190.288897 139.081655 
L 194.741726 139.081655 
L 194.741726 136.564138 
L 196.203973 136.564138 
L 196.203973 134.046621 
L 198.959923 134.046621 
L 198.959923 132.787862 
L 200.108507 132.787862 
L 200.108507 131.529103 
L 202.716663 131.529103 
L 202.716663 130.270345 
L 203.742147 130.270345 
L 203.742147 126.494069 
L 204.201707 126.494069 
L 204.201707 123.976552 
L 204.74479 123.976552 
L 204.74479 121.459034 
L 207.927892 121.459034 
L 207.927892 117.682759 
L 208.553958 117.682759 
L 208.553958 113.906483 
L 209.082185 113.906483 
L 209.082185 110.130207 
L 212.38478 110.130207 
L 212.38478 108.871448 
L 214.78651 108.871448 
L 214.78651 107.61269 
L 216.809135 107.61269 
L 216.809135 105.095172 
L 221.329596 105.095172 
L 221.329596 103.836414 
L 221.665346 103.836414 
L 221.665346 100.060138 
L 228.344567 100.060138 
L 228.344567 98.801379 
L 229.367766 98.801379 
L 229.367766 95.025103 
L 230.045787 95.025103 
L 230.045787 89.990069 
L 230.160358 89.990069 
L 230.160358 88.73131 
L 230.364263 88.73131 
L 230.364263 86.213793 
L 230.482675 86.213793 
L 230.482675 79.92 
L 232.086036 79.92 
L 232.086036 76.143724 
L 234.819945 76.143724 
L 234.899792 72.367448 
L 238.077446 72.367448 
L 238.077446 68.591172 
L 240.805635 68.591172 
L 240.805635 66.073655 
L 242.014403 66.073655 
L 242.014403 63.556138 
L 242.847241 63.556138 
L 242.847241 59.779862 
L 245.88559 59.779862 
L 245.88559 57.262345 
L 249.681127 57.262345 
L 249.681127 56.003586 
L 250.780368 56.003586 
L 250.780368 54.744828 
L 255.690434 54.744828 
L 255.690434 52.22731 
L 256.808899 52.22731 
L 256.808899 49.709793 
L 262.345133 49.709793 
L 262.345133 45.933517 
L 263.06879 45.933517 
L 263.06879 42.157241 
L 360.8064 42.157241 
L 360.8064 42.157241 
" style="fill: none; stroke: #f5deb3; stroke-width: 4; stroke-linecap: square"/>
   </g>
   <g id="line2d_2">
    <defs>
     <path id="m7d8f3759f1" d="M 0 7.778175 
L 7.778175 0 
L 0 -7.778175 
L -7.778175 0 
z
" style="stroke: #f5deb3; stroke-width: 1.5; stroke-linejoin: miter"/>
    </defs>
    <g>
     <use xlink:href="#m7d8f3759f1" x="160.4627" y="205.795862" style="fill: #f5deb3; stroke: #f5deb3; stroke-width: 1.5; stroke-linejoin: miter"/>
     <use xlink:href="#m7d8f3759f1" x="232.086036" y="76.143724" style="fill: #f5deb3; stroke: #f5deb3; stroke-width: 1.5; stroke-linejoin: miter"/>
     <use xlink:href="#m7d8f3759f1" x="263.06879" y="42.157241" style="fill: #f5deb3; stroke: #f5deb3; stroke-width: 1.5; stroke-linejoin: miter"/>
     <use xlink:href="#m7d8f3759f1" x="263.06879" y="42.157241" style="fill: #f5deb3; stroke: #f5deb3; stroke-width: 1.5; stroke-linejoin: miter"/>
     <use xlink:href="#m7d8f3759f1" x="360.8064" y="42.157241" style="fill: #f5deb3; stroke: #f5deb3; stroke-width: 1.5; stroke-linejoin: miter"/>
    </g>
   </g>
   <g id="line2d_3">
    <path style="fill: none; stroke: #f5deb3; stroke-width: 4; stroke-linecap: square"/>
    <g/>
   </g>
   <g id="line2d_4">
    <path d="M 360.8064 42.157241 
L 380.514816 12.75264 
" style="fill: none; stroke: #f5deb3; stroke-width: 4; stroke-linecap: square"/>
    <g>
     <use xlink:href="#m7d8f3759f1" x="360.8064" y="42.157241" style="fill: #f5deb3; stroke: #f5deb3; stroke-width: 1.5; stroke-linejoin: miter"/>
     <use xlink:href="#m7d8f3759f1" x="380.514816" y="12.75264" style="fill: #f5deb3; stroke: #f5deb3; stroke-width: 1.5; stroke-linejoin: miter"/>
    </g>
   </g>
   <g id="matplotlib.axis_1">
    <g id="xtick_1">
     <g id="line2d_5">
      <path d="M 57.6 298.944 
L 57.6 6.912 
" clip-path="url(#pa85590a160)" style="fill: none; stroke: #b0b0b0; stroke-width: 0.8; stroke-linecap: square"/>
     </g>
     <g id="line2d_6">
      <defs>
       <path id="md66509a920" d="M 0 0 
L 0 3.5 
" style="stroke: #000000; stroke-width: 0.8"/>
      </defs>
      <g>
       <use xlink:href="#md66509a920" x="57.6" y="298.944" style="stroke: #000000; stroke-width: 0.8"/>
      </g>
     </g>
     <g id="text_1">
      <!-- 0 -->
      <g transform="translate(52.191875 318.861344)scale(0.17 -0.17)">
       <defs>
        <path id="DejaVuSans-30" d="M 2034 4250 
Q 1547 4250 1301 3770 
Q 1056 3291 1056 2328 
Q 1056 1369 1301 889 
Q 1547 409 2034 409 
Q 2525 409 2770 889 
Q 3016 1369 3016 2328 
Q 3016 3291 2770 3770 
Q 2525 4250 2034 4250 
z
M 2034 4750 
Q 2819 4750 3233 4129 
Q 3647 3509 3647 2328 
Q 3647 1150 3233 529 
Q 2819 -91 2034 -91 
Q 1250 -91 836 529 
Q 422 1150 422 2328 
Q 422 3509 836 4129 
Q 1250 4750 2034 4750 
z
" transform="scale(0.015625)"/>
       </defs>
       <use xlink:href="#DejaVuSans-30"/>
      </g>
     </g>
    </g>
    <g id="xtick_2">
     <g id="line2d_7">
      <path d="M 144.2304 298.944 
L 144.2304 6.912 
" clip-path="url(#pa85590a160)" style="fill: none; stroke: #b0b0b0; stroke-width: 0.8; stroke-linecap: square"/>
     </g>
     <g id="line2d_8">
      <g>
       <use xlink:href="#md66509a920" x="144.2304" y="298.944" style="stroke: #000000; stroke-width: 0.8"/>
      </g>
     </g>
     <g id="text_2">
      <!-- 2 -->
      <g transform="translate(138.822275 318.861344)scale(0.17 -0.17)">
       <defs>
        <path id="DejaVuSans-32" d="M 1228 531 
L 3431 531 
L 3431 0 
L 469 0 
L 469 531 
Q 828 903 1448 1529 
Q 2069 2156 2228 2338 
Q 2531 2678 2651 2914 
Q 2772 3150 2772 3378 
Q 2772 3750 2511 3984 
Q 2250 4219 1831 4219 
Q 1534 4219 1204 4116 
Q 875 4013 500 3803 
L 500 4441 
Q 881 4594 1212 4672 
Q 1544 4750 1819 4750 
Q 2544 4750 2975 4387 
Q 3406 4025 3406 3419 
Q 3406 3131 3298 2873 
Q 3191 2616 2906 2266 
Q 2828 2175 2409 1742 
Q 1991 1309 1228 531 
z
" transform="scale(0.015625)"/>
       </defs>
       <use xlink:href="#DejaVuSans-32"/>
      </g>
     </g>
    </g>
    <g id="xtick_3">
     <g id="line2d_9">
      <path d="M 230.8608 298.944 
L 230.8608 6.912 
" clip-path="url(#pa85590a160)" style="fill: none; stroke: #b0b0b0; stroke-width: 0.8; stroke-linecap: square"/>
     </g>
     <g id="line2d_10">
      <g>
       <use xlink:href="#md66509a920" x="230.8608" y="298.944" style="stroke: #000000; stroke-width: 0.8"/>
      </g>
     </g>
     <g id="text_3">
      <!-- 4 -->
      <g transform="translate(225.452675 318.861344)scale(0.17 -0.17)">
       <defs>
        <path id="DejaVuSans-34" d="M 2419 4116 
L 825 1625 
L 2419 1625 
L 2419 4116 
z
M 2253 4666 
L 3047 4666 
L 3047 1625 
L 3713 1625 
L 3713 1100 
L 3047 1100 
L 3047 0 
L 2419 0 
L 2419 1100 
L 313 1100 
L 313 1709 
L 2253 4666 
z
" transform="scale(0.015625)"/>
       </defs>
       <use xlink:href="#DejaVuSans-34"/>
      </g>
     </g>
    </g>
    <g id="xtick_4">
     <g id="line2d_11">
      <path d="M 317.4912 298.944 
L 317.4912 6.912 
" clip-path="url(#pa85590a160)" style="fill: none; stroke: #b0b0b0; stroke-width: 0.8; stroke-linecap: square"/>
     </g>
     <g id="line2d_12">
      <g>
       <use xlink:href="#md66509a920" x="317.4912" y="298.944" style="stroke: #000000; stroke-width: 0.8"/>
      </g>
     </g>
     <g id="text_4">
      <!-- 6 -->
      <g transform="translate(312.083075 318.861344)scale(0.17 -0.17)">
       <defs>
        <path id="DejaVuSans-36" d="M 2113 2584 
Q 1688 2584 1439 2293 
Q 1191 2003 1191 1497 
Q 1191 994 1439 701 
Q 1688 409 2113 409 
Q 2538 409 2786 701 
Q 3034 994 3034 1497 
Q 3034 2003 2786 2293 
Q 2538 2584 2113 2584 
z
M 3366 4563 
L 3366 3988 
Q 3128 4100 2886 4159 
Q 2644 4219 2406 4219 
Q 1781 4219 1451 3797 
Q 1122 3375 1075 2522 
Q 1259 2794 1537 2939 
Q 1816 3084 2150 3084 
Q 2853 3084 3261 2657 
Q 3669 2231 3669 1497 
Q 3669 778 3244 343 
Q 2819 -91 2113 -91 
Q 1303 -91 875 529 
Q 447 1150 447 2328 
Q 447 3434 972 4092 
Q 1497 4750 2381 4750 
Q 2619 4750 2861 4703 
Q 3103 4656 3366 4563 
z
" transform="scale(0.015625)"/>
       </defs>
       <use xlink:href="#DejaVuSans-36"/>
      </g>
     </g>
    </g>
    <g id="xtick_5">
     <g id="line2d_13">
      <path d="M 100.9152 298.944 
L 100.9152 6.912 
" clip-path="url(#pa85590a160)" style="fill: none; stroke: #b0b0b0; stroke-width: 0.8; stroke-linecap: square"/>
     </g>
     <g id="line2d_14">
      <defs>
       <path id="m0474392dbf" d="M 0 0 
L 0 2 
" style="stroke: #000000; stroke-width: 0.6"/>
      </defs>
      <g>
       <use xlink:href="#m0474392dbf" x="100.9152" y="298.944" style="stroke: #000000; stroke-width: 0.6"/>
      </g>
     </g>
    </g>
    <g id="xtick_6">
     <g id="line2d_15">
      <path d="M 187.5456 298.944 
L 187.5456 6.912 
" clip-path="url(#pa85590a160)" style="fill: none; stroke: #b0b0b0; stroke-width: 0.8; stroke-linecap: square"/>
     </g>
     <g id="line2d_16">
      <g>
       <use xlink:href="#m0474392dbf" x="187.5456" y="298.944" style="stroke: #000000; stroke-width: 0.6"/>
      </g>
     </g>
    </g>
    <g id="xtick_7">
     <g id="line2d_17">
      <path d="M 274.176 298.944 
L 274.176 6.912 
" clip-path="url(#pa85590a160)" style="fill: none; stroke: #b0b0b0; stroke-width: 0.8; stroke-linecap: square"/>
     </g>
     <g id="line2d_18">
      <g>
       <use xlink:href="#m0474392dbf" x="274.176" y="298.944" style="stroke: #000000; stroke-width: 0.6"/>
      </g>
     </g>
    </g>
    <g id="xtick_8">
     <g id="line2d_19">
      <path d="M 360.8064 298.944 
L 360.8064 6.912 
" clip-path="url(#pa85590a160)" style="fill: none; stroke: #b0b0b0; stroke-width: 0.8; stroke-linecap: square"/>
     </g>
     <g id="line2d_20">
      <g>
       <use xlink:href="#m0474392dbf" x="360.8064" y="298.944" style="stroke: #000000; stroke-width: 0.6"/>
      </g>
     </g>
    </g>
    <g id="text_5">
     <!-- log10(# f-evals / dimension) -->
     <g transform="translate(88.823278 339.314156)scale(0.17 -0.17)">
      <defs>
       <path id="DejaVuSans-6c" d="M 603 4863 
L 1178 4863 
L 1178 0 
L 603 0 
L 603 4863 
z
" transform="scale(0.015625)"/>
       <path id="DejaVuSans-6f" d="M 1959 3097 
Q 1497 3097 1228 2736 
Q 959 2375 959 1747 
Q 959 1119 1226 758 
Q 1494 397 1959 397 
Q 2419 397 2687 759 
Q 2956 1122 2956 1747 
Q 2956 2369 2687 2733 
Q 2419 3097 1959 3097 
z
M 1959 3584 
Q 2709 3584 3137 3096 
Q 3566 2609 3566 1747 
Q 3566 888 3137 398 
Q 2709 -91 1959 -91 
Q 1206 -91 779 398 
Q 353 888 353 1747 
Q 353 2609 779 3096 
Q 1206 3584 1959 3584 
z
" transform="scale(0.015625)"/>
       <path id="DejaVuSans-67" d="M 2906 1791 
Q 2906 2416 2648 2759 
Q 2391 3103 1925 3103 
Q 1463 3103 1205 2759 
Q 947 2416 947 1791 
Q 947 1169 1205 825 
Q 1463 481 1925 481 
Q 2391 481 2648 825 
Q 2906 1169 2906 1791 
z
M 3481 434 
Q 3481 -459 3084 -895 
Q 2688 -1331 1869 -1331 
Q 1566 -1331 1297 -1286 
Q 1028 -1241 775 -1147 
L 775 -588 
Q 1028 -725 1275 -790 
Q 1522 -856 1778 -856 
Q 2344 -856 2625 -561 
Q 2906 -266 2906 331 
L 2906 616 
Q 2728 306 2450 153 
Q 2172 0 1784 0 
Q 1141 0 747 490 
Q 353 981 353 1791 
Q 353 2603 747 3093 
Q 1141 3584 1784 3584 
Q 2172 3584 2450 3431 
Q 2728 3278 2906 2969 
L 2906 3500 
L 3481 3500 
L 3481 434 
z
" transform="scale(0.015625)"/>
       <path id="DejaVuSans-31" d="M 794 531 
L 1825 531 
L 1825 4091 
L 703 3866 
L 703 4441 
L 1819 4666 
L 2450 4666 
L 2450 531 
L 3481 531 
L 3481 0 
L 794 0 
L 794 531 
z
" transform="scale(0.015625)"/>
       <path id="DejaVuSans-28" d="M 1984 4856 
Q 1566 4138 1362 3434 
Q 1159 2731 1159 2009 
Q 1159 1288 1364 580 
Q 1569 -128 1984 -844 
L 1484 -844 
Q 1016 -109 783 600 
Q 550 1309 550 2009 
Q 550 2706 781 3412 
Q 1013 4119 1484 4856 
L 1984 4856 
z
" transform="scale(0.015625)"/>
       <path id="DejaVuSans-23" d="M 3272 2816 
L 2363 2816 
L 2100 1772 
L 3016 1772 
L 3272 2816 
z
M 2803 4594 
L 2478 3297 
L 3391 3297 
L 3719 4594 
L 4219 4594 
L 3897 3297 
L 4872 3297 
L 4872 2816 
L 3775 2816 
L 3519 1772 
L 4513 1772 
L 4513 1294 
L 3397 1294 
L 3072 0 
L 2572 0 
L 2894 1294 
L 1978 1294 
L 1656 0 
L 1153 0 
L 1478 1294 
L 494 1294 
L 494 1772 
L 1594 1772 
L 1856 2816 
L 850 2816 
L 850 3297 
L 1978 3297 
L 2297 4594 
L 2803 4594 
z
" transform="scale(0.015625)"/>
       <path id="DejaVuSans-20" transform="scale(0.015625)"/>
       <path id="DejaVuSans-66" d="M 2375 4863 
L 2375 4384 
L 1825 4384 
Q 1516 4384 1395 4259 
Q 1275 4134 1275 3809 
L 1275 3500 
L 2222 3500 
L 2222 3053 
L 1275 3053 
L 1275 0 
L 697 0 
L 697 3053 
L 147 3053 
L 147 3500 
L 697 3500 
L 697 3744 
Q 697 4328 969 4595 
Q 1241 4863 1831 4863 
L 2375 4863 
z
" transform="scale(0.015625)"/>
       <path id="DejaVuSans-2d" d="M 313 2009 
L 1997 2009 
L 1997 1497 
L 313 1497 
L 313 2009 
z
" transform="scale(0.015625)"/>
       <path id="DejaVuSans-65" d="M 3597 1894 
L 3597 1613 
L 953 1613 
Q 991 1019 1311 708 
Q 1631 397 2203 397 
Q 2534 397 2845 478 
Q 3156 559 3463 722 
L 3463 178 
Q 3153 47 2828 -22 
Q 2503 -91 2169 -91 
Q 1331 -91 842 396 
Q 353 884 353 1716 
Q 353 2575 817 3079 
Q 1281 3584 2069 3584 
Q 2775 3584 3186 3129 
Q 3597 2675 3597 1894 
z
M 3022 2063 
Q 3016 2534 2758 2815 
Q 2500 3097 2075 3097 
Q 1594 3097 1305 2825 
Q 1016 2553 972 2059 
L 3022 2063 
z
" transform="scale(0.015625)"/>
       <path id="DejaVuSans-76" d="M 191 3500 
L 800 3500 
L 1894 563 
L 2988 3500 
L 3597 3500 
L 2284 0 
L 1503 0 
L 191 3500 
z
" transform="scale(0.015625)"/>
       <path id="DejaVuSans-61" d="M 2194 1759 
Q 1497 1759 1228 1600 
Q 959 1441 959 1056 
Q 959 750 1161 570 
Q 1363 391 1709 391 
Q 2188 391 2477 730 
Q 2766 1069 2766 1631 
L 2766 1759 
L 2194 1759 
z
M 3341 1997 
L 3341 0 
L 2766 0 
L 2766 531 
Q 2569 213 2275 61 
Q 1981 -91 1556 -91 
Q 1019 -91 701 211 
Q 384 513 384 1019 
Q 384 1609 779 1909 
Q 1175 2209 1959 2209 
L 2766 2209 
L 2766 2266 
Q 2766 2663 2505 2880 
Q 2244 3097 1772 3097 
Q 1472 3097 1187 3025 
Q 903 2953 641 2809 
L 641 3341 
Q 956 3463 1253 3523 
Q 1550 3584 1831 3584 
Q 2591 3584 2966 3190 
Q 3341 2797 3341 1997 
z
" transform="scale(0.015625)"/>
       <path id="DejaVuSans-73" d="M 2834 3397 
L 2834 2853 
Q 2591 2978 2328 3040 
Q 2066 3103 1784 3103 
Q 1356 3103 1142 2972 
Q 928 2841 928 2578 
Q 928 2378 1081 2264 
Q 1234 2150 1697 2047 
L 1894 2003 
Q 2506 1872 2764 1633 
Q 3022 1394 3022 966 
Q 3022 478 2636 193 
Q 2250 -91 1575 -91 
Q 1294 -91 989 -36 
Q 684 19 347 128 
L 347 722 
Q 666 556 975 473 
Q 1284 391 1588 391 
Q 1994 391 2212 530 
Q 2431 669 2431 922 
Q 2431 1156 2273 1281 
Q 2116 1406 1581 1522 
L 1381 1569 
Q 847 1681 609 1914 
Q 372 2147 372 2553 
Q 372 3047 722 3315 
Q 1072 3584 1716 3584 
Q 2034 3584 2315 3537 
Q 2597 3491 2834 3397 
z
" transform="scale(0.015625)"/>
       <path id="DejaVuSans-2f" d="M 1625 4666 
L 2156 4666 
L 531 -594 
L 0 -594 
L 1625 4666 
z
" transform="scale(0.015625)"/>
       <path id="DejaVuSans-64" d="M 2906 2969 
L 2906 4863 
L 3481 4863 
L 3481 0 
L 2906 0 
L 2906 525 
Q 2725 213 2448 61 
Q 2172 -91 1784 -91 
Q 1150 -91 751 415 
Q 353 922 353 1747 
Q 353 2572 751 3078 
Q 1150 3584 1784 3584 
Q 2172 3584 2448 3432 
Q 2725 3281 2906 2969 
z
M 947 1747 
Q 947 1113 1208 752 
Q 1469 391 1925 391 
Q 2381 391 2643 752 
Q 2906 1113 2906 1747 
Q 2906 2381 2643 2742 
Q 2381 3103 1925 3103 
Q 1469 3103 1208 2742 
Q 947 2381 947 1747 
z
" transform="scale(0.015625)"/>
       <path id="DejaVuSans-69" d="M 603 3500 
L 1178 3500 
L 1178 0 
L 603 0 
L 603 3500 
z
M 603 4863 
L 1178 4863 
L 1178 4134 
L 603 4134 
L 603 4863 
z
" transform="scale(0.015625)"/>
       <path id="DejaVuSans-6d" d="M 3328 2828 
Q 3544 3216 3844 3400 
Q 4144 3584 4550 3584 
Q 5097 3584 5394 3201 
Q 5691 2819 5691 2113 
L 5691 0 
L 5113 0 
L 5113 2094 
Q 5113 2597 4934 2840 
Q 4756 3084 4391 3084 
Q 3944 3084 3684 2787 
Q 3425 2491 3425 1978 
L 3425 0 
L 2847 0 
L 2847 2094 
Q 2847 2600 2669 2842 
Q 2491 3084 2119 3084 
Q 1678 3084 1418 2786 
Q 1159 2488 1159 1978 
L 1159 0 
L 581 0 
L 581 3500 
L 1159 3500 
L 1159 2956 
Q 1356 3278 1631 3431 
Q 1906 3584 2284 3584 
Q 2666 3584 2933 3390 
Q 3200 3197 3328 2828 
z
" transform="scale(0.015625)"/>
       <path id="DejaVuSans-6e" d="M 3513 2113 
L 3513 0 
L 2938 0 
L 2938 2094 
Q 2938 2591 2744 2837 
Q 2550 3084 2163 3084 
Q 1697 3084 1428 2787 
Q 1159 2491 1159 1978 
L 1159 0 
L 581 0 
L 581 3500 
L 1159 3500 
L 1159 2956 
Q 1366 3272 1645 3428 
Q 1925 3584 2291 3584 
Q 2894 3584 3203 3211 
Q 3513 2838 3513 2113 
z
" transform="scale(0.015625)"/>
       <path id="DejaVuSans-29" d="M 513 4856 
L 1013 4856 
Q 1481 4119 1714 3412 
Q 1947 2706 1947 2009 
Q 1947 1309 1714 600 
Q 1481 -109 1013 -844 
L 513 -844 
Q 928 -128 1133 580 
Q 1338 1288 1338 2009 
Q 1338 2731 1133 3434 
Q 928 4138 513 4856 
z
" transform="scale(0.015625)"/>
      </defs>
      <use xlink:href="#DejaVuSans-6c"/>
      <use xlink:href="#DejaVuSans-6f" x="27.783203"/>
      <use xlink:href="#DejaVuSans-67" x="88.964844"/>
      <use xlink:href="#DejaVuSans-31" x="152.441406"/>
      <use xlink:href="#DejaVuSans-30" x="216.064453"/>
      <use xlink:href="#DejaVuSans-28" x="279.6875"/>
      <use xlink:href="#DejaVuSans-23" x="318.701172"/>
      <use xlink:href="#DejaVuSans-20" x="402.490234"/>
      <use xlink:href="#DejaVuSans-66" x="434.277344"/>
      <use xlink:href="#DejaVuSans-2d" x="463.982422"/>
      <use xlink:href="#DejaVuSans-65" x="500.066406"/>
      <use xlink:href="#DejaVuSans-76" x="561.589844"/>
      <use xlink:href="#DejaVuSans-61" x="620.769531"/>
      <use xlink:href="#DejaVuSans-6c" x="682.048828"/>
      <use xlink:href="#DejaVuSans-73" x="709.832031"/>
      <use xlink:href="#DejaVuSans-20" x="761.931641"/>
      <use xlink:href="#DejaVuSans-2f" x="793.71875"/>
      <use xlink:href="#DejaVuSans-20" x="827.410156"/>
      <use xlink:href="#DejaVuSans-64" x="859.197266"/>
      <use xlink:href="#DejaVuSans-69" x="922.673828"/>
      <use xlink:href="#DejaVuSans-6d" x="950.457031"/>
      <use xlink:href="#DejaVuSans-65" x="1047.869141"/>
      <use xlink:href="#DejaVuSans-6e" x="1109.392578"/>
      <use xlink:href="#DejaVuSans-73" x="1172.771484"/>
      <use xlink:href="#DejaVuSans-69" x="1224.871094"/>
      <use xlink:href="#DejaVuSans-6f" x="1252.654297"/>
      <use xlink:href="#DejaVuSans-6e" x="1313.835938"/>
      <use xlink:href="#DejaVuSans-29" x="1377.214844"/>
     </g>
    </g>
   </g>
   <g id="matplotlib.axis_2">
    <g id="ytick_1">
     <g id="line2d_21">
      <path d="M 57.6 298.944 
L 360.8064 298.944 
" clip-path="url(#pa85590a160)" style="fill: none; stroke: #b0b0b0; stroke-width: 0.8; stroke-linecap: square"/>
     </g>
     <g id="line2d_22">
      <defs>
       <path id="mab78750d09" d="M 0 0 
L -3.5 0 
" style="stroke: #000000; stroke-width: 0.8"/>
      </defs>
      <g>
       <use xlink:href="#mab78750d09" x="57.6" y="298.944" style="stroke: #000000; stroke-width: 0.8"/>
      </g>
     </g>
     <g id="text_6">
      <!-- 0.0 -->
      <g transform="translate(25.155 305.02275)scale(0.16 -0.16)">
       <defs>
        <path id="DejaVuSans-2e" d="M 684 794 
L 1344 794 
L 1344 0 
L 684 0 
L 684 794 
z
" transform="scale(0.015625)"/>
       </defs>
       <use xlink:href="#DejaVuSans-30"/>
       <use xlink:href="#DejaVuSans-2e" x="63.623047"/>
       <use xlink:href="#DejaVuSans-30" x="95.410156"/>
      </g>
     </g>
    </g>
    <g id="ytick_2">
     <g id="line2d_23">
      <path d="M 57.6 240.5376 
L 360.8064 240.5376 
" clip-path="url(#pa85590a160)" style="fill: none; stroke: #b0b0b0; stroke-width: 0.8; stroke-linecap: square"/>
     </g>
     <g id="line2d_24">
      <g>
       <use xlink:href="#mab78750d09" x="57.6" y="240.5376" style="stroke: #000000; stroke-width: 0.8"/>
      </g>
     </g>
     <g id="text_7">
      <!-- 0.2 -->
      <g transform="translate(25.155 246.61635)scale(0.16 -0.16)">
       <use xlink:href="#DejaVuSans-30"/>
       <use xlink:href="#DejaVuSans-2e" x="63.623047"/>
       <use xlink:href="#DejaVuSans-32" x="95.410156"/>
      </g>
     </g>
    </g>
    <g id="ytick_3">
     <g id="line2d_25">
      <path d="M 57.6 182.1312 
L 360.8064 182.1312 
" clip-path="url(#pa85590a160)" style="fill: none; stroke: #b0b0b0; stroke-width: 0.8; stroke-linecap: square"/>
     </g>
     <g id="line2d_26">
      <g>
       <use xlink:href="#mab78750d09" x="57.6" y="182.1312" style="stroke: #000000; stroke-width: 0.8"/>
      </g>
     </g>
     <g id="text_8">
      <!-- 0.4 -->
      <g transform="translate(25.155 188.20995)scale(0.16 -0.16)">
       <use xlink:href="#DejaVuSans-30"/>
       <use xlink:href="#DejaVuSans-2e" x="63.623047"/>
       <use xlink:href="#DejaVuSans-34" x="95.410156"/>
      </g>
     </g>
    </g>
    <g id="ytick_4">
     <g id="line2d_27">
      <path d="M 57.6 123.7248 
L 360.8064 123.7248 
" clip-path="url(#pa85590a160)" style="fill: none; stroke: #b0b0b0; stroke-width: 0.8; stroke-linecap: square"/>
     </g>
     <g id="line2d_28">
      <g>
       <use xlink:href="#mab78750d09" x="57.6" y="123.7248" style="stroke: #000000; stroke-width: 0.8"/>
      </g>
     </g>
     <g id="text_9">
      <!-- 0.6 -->
      <g transform="translate(25.155 129.80355)scale(0.16 -0.16)">
       <use xlink:href="#DejaVuSans-30"/>
       <use xlink:href="#DejaVuSans-2e" x="63.623047"/>
       <use xlink:href="#DejaVuSans-36" x="95.410156"/>
      </g>
     </g>
    </g>
    <g id="ytick_5">
     <g id="line2d_29">
      <path d="M 57.6 65.3184 
L 360.8064 65.3184 
" clip-path="url(#pa85590a160)" style="fill: none; stroke: #b0b0b0; stroke-width: 0.8; stroke-linecap: square"/>
     </g>
     <g id="line2d_30">
      <g>
       <use xlink:href="#mab78750d09" x="57.6" y="65.3184" style="stroke: #000000; stroke-width: 0.8"/>
      </g>
     </g>
     <g id="text_10">
      <!-- 0.8 -->
      <g transform="translate(25.155 71.39715)scale(0.16 -0.16)">
       <defs>
        <path id="DejaVuSans-38" d="M 2034 2216 
Q 1584 2216 1326 1975 
Q 1069 1734 1069 1313 
Q 1069 891 1326 650 
Q 1584 409 2034 409 
Q 2484 409 2743 651 
Q 3003 894 3003 1313 
Q 3003 1734 2745 1975 
Q 2488 2216 2034 2216 
z
M 1403 2484 
Q 997 2584 770 2862 
Q 544 3141 544 3541 
Q 544 4100 942 4425 
Q 1341 4750 2034 4750 
Q 2731 4750 3128 4425 
Q 3525 4100 3525 3541 
Q 3525 3141 3298 2862 
Q 3072 2584 2669 2484 
Q 3125 2378 3379 2068 
Q 3634 1759 3634 1313 
Q 3634 634 3220 271 
Q 2806 -91 2034 -91 
Q 1263 -91 848 271 
Q 434 634 434 1313 
Q 434 1759 690 2068 
Q 947 2378 1403 2484 
z
M 1172 3481 
Q 1172 3119 1398 2916 
Q 1625 2713 2034 2713 
Q 2441 2713 2670 2916 
Q 2900 3119 2900 3481 
Q 2900 3844 2670 4047 
Q 2441 4250 2034 4250 
Q 1625 4250 1398 4047 
Q 1172 3844 1172 3481 
z
" transform="scale(0.015625)"/>
       </defs>
       <use xlink:href="#DejaVuSans-30"/>
       <use xlink:href="#DejaVuSans-2e" x="63.623047"/>
       <use xlink:href="#DejaVuSans-38" x="95.410156"/>
      </g>
     </g>
    </g>
    <g id="ytick_6">
     <g id="line2d_31">
      <path d="M 57.6 6.912 
L 360.8064 6.912 
" clip-path="url(#pa85590a160)" style="fill: none; stroke: #b0b0b0; stroke-width: 0.8; stroke-linecap: square"/>
     </g>
     <g id="line2d_32">
      <g>
       <use xlink:href="#mab78750d09" x="57.6" y="6.912" style="stroke: #000000; stroke-width: 0.8"/>
      </g>
     </g>
     <g id="text_11">
      <!-- 1.0 -->
      <g transform="translate(25.155 12.99075)scale(0.16 -0.16)">
       <use xlink:href="#DejaVuSans-31"/>
       <use xlink:href="#DejaVuSans-2e" x="63.623047"/>
       <use xlink:href="#DejaVuSans-30" x="95.410156"/>
      </g>
     </g>
    </g>
    <g id="text_12">
     <!-- Fraction of function,target pairs -->
     <g transform="translate(17.619531 287.313)rotate(-90)scale(0.17 -0.17)">
      <defs>
       <path id="DejaVuSans-46" d="M 628 4666 
L 3309 4666 
L 3309 4134 
L 1259 4134 
L 1259 2759 
L 3109 2759 
L 3109 2228 
L 1259 2228 
L 1259 0 
L 628 0 
L 628 4666 
z
" transform="scale(0.015625)"/>
       <path id="DejaVuSans-72" d="M 2631 2963 
Q 2534 3019 2420 3045 
Q 2306 3072 2169 3072 
Q 1681 3072 1420 2755 
Q 1159 2438 1159 1844 
L 1159 0 
L 581 0 
L 581 3500 
L 1159 3500 
L 1159 2956 
Q 1341 3275 1631 3429 
Q 1922 3584 2338 3584 
Q 2397 3584 2469 3576 
Q 2541 3569 2628 3553 
L 2631 2963 
z
" transform="scale(0.015625)"/>
       <path id="DejaVuSans-63" d="M 3122 3366 
L 3122 2828 
Q 2878 2963 2633 3030 
Q 2388 3097 2138 3097 
Q 1578 3097 1268 2742 
Q 959 2388 959 1747 
Q 959 1106 1268 751 
Q 1578 397 2138 397 
Q 2388 397 2633 464 
Q 2878 531 3122 666 
L 3122 134 
Q 2881 22 2623 -34 
Q 2366 -91 2075 -91 
Q 1284 -91 818 406 
Q 353 903 353 1747 
Q 353 2603 823 3093 
Q 1294 3584 2113 3584 
Q 2378 3584 2631 3529 
Q 2884 3475 3122 3366 
z
" transform="scale(0.015625)"/>
       <path id="DejaVuSans-74" d="M 1172 4494 
L 1172 3500 
L 2356 3500 
L 2356 3053 
L 1172 3053 
L 1172 1153 
Q 1172 725 1289 603 
Q 1406 481 1766 481 
L 2356 481 
L 2356 0 
L 1766 0 
Q 1100 0 847 248 
Q 594 497 594 1153 
L 594 3053 
L 172 3053 
L 172 3500 
L 594 3500 
L 594 4494 
L 1172 4494 
z
" transform="scale(0.015625)"/>
       <path id="DejaVuSans-75" d="M 544 1381 
L 544 3500 
L 1119 3500 
L 1119 1403 
Q 1119 906 1312 657 
Q 1506 409 1894 409 
Q 2359 409 2629 706 
Q 2900 1003 2900 1516 
L 2900 3500 
L 3475 3500 
L 3475 0 
L 2900 0 
L 2900 538 
Q 2691 219 2414 64 
Q 2138 -91 1772 -91 
Q 1169 -91 856 284 
Q 544 659 544 1381 
z
M 1991 3584 
L 1991 3584 
z
" transform="scale(0.015625)"/>
       <path id="DejaVuSans-2c" d="M 750 794 
L 1409 794 
L 1409 256 
L 897 -744 
L 494 -744 
L 750 256 
L 750 794 
z
" transform="scale(0.015625)"/>
       <path id="DejaVuSans-70" d="M 1159 525 
L 1159 -1331 
L 581 -1331 
L 581 3500 
L 1159 3500 
L 1159 2969 
Q 1341 3281 1617 3432 
Q 1894 3584 2278 3584 
Q 2916 3584 3314 3078 
Q 3713 2572 3713 1747 
Q 3713 922 3314 415 
Q 2916 -91 2278 -91 
Q 1894 -91 1617 61 
Q 1341 213 1159 525 
z
M 3116 1747 
Q 3116 2381 2855 2742 
Q 2594 3103 2138 3103 
Q 1681 3103 1420 2742 
Q 1159 2381 1159 1747 
Q 1159 1113 1420 752 
Q 1681 391 2138 391 
Q 2594 391 2855 752 
Q 3116 1113 3116 1747 
z
" transform="scale(0.015625)"/>
      </defs>
      <use xlink:href="#DejaVuSans-46"/>
      <use xlink:href="#DejaVuSans-72" x="50.269531"/>
      <use xlink:href="#DejaVuSans-61" x="91.382812"/>
      <use xlink:href="#DejaVuSans-63" x="152.662109"/>
      <use xlink:href="#DejaVuSans-74" x="207.642578"/>
      <use xlink:href="#DejaVuSans-69" x="246.851562"/>
      <use xlink:href="#DejaVuSans-6f" x="274.634766"/>
      <use xlink:href="#DejaVuSans-6e" x="335.816406"/>
      <use xlink:href="#DejaVuSans-20" x="399.195312"/>
      <use xlink:href="#DejaVuSans-6f" x="430.982422"/>
      <use xlink:href="#DejaVuSans-66" x="492.164062"/>
      <use xlink:href="#DejaVuSans-20" x="527.369141"/>
      <use xlink:href="#DejaVuSans-66" x="559.15625"/>
      <use xlink:href="#DejaVuSans-75" x="594.361328"/>
      <use xlink:href="#DejaVuSans-6e" x="657.740234"/>
      <use xlink:href="#DejaVuSans-63" x="721.119141"/>
      <use xlink:href="#DejaVuSans-74" x="776.099609"/>
      <use xlink:href="#DejaVuSans-69" x="815.308594"/>
      <use xlink:href="#DejaVuSans-6f" x="843.091797"/>
      <use xlink:href="#DejaVuSans-6e" x="904.273438"/>
      <use xlink:href="#DejaVuSans-2c" x="967.652344"/>
      <use xlink:href="#DejaVuSans-74" x="999.439453"/>
      <use xlink:href="#DejaVuSans-61" x="1038.648438"/>
      <use xlink:href="#DejaVuSans-72" x="1099.927734"/>
      <use xlink:href="#DejaVuSans-67" x="1139.291016"/>
      <use xlink:href="#DejaVuSans-65" x="1202.767578"/>
      <use xlink:href="#DejaVuSans-74" x="1264.291016"/>
      <use xlink:href="#DejaVuSans-20" x="1303.5"/>
      <use xlink:href="#DejaVuSans-70" x="1335.287109"/>
      <use xlink:href="#DejaVuSans-61" x="1398.763672"/>
      <use xlink:href="#DejaVuSans-69" x="1460.042969"/>
      <use xlink:href="#DejaVuSans-72" x="1487.826172"/>
      <use xlink:href="#DejaVuSans-73" x="1528.939453"/>
     </g>
    </g>
   </g>
   <g id="line2d_33">
    <defs>
     <path id="m10e7d96521" d="M 0 1.5 
C 0.397805 1.5 0.77937 1.341951 1.06066 1.06066 
C 1.341951 0.77937 1.5 0.397805 1.5 0 
C 1.5 -0.397805 1.341951 -0.77937 1.06066 -1.06066 
C 0.77937 -1.341951 0.397805 -1.5 0 -1.5 
C -0.397805 -1.5 -0.77937 -1.341951 -1.06066 -1.06066 
C -1.341951 -0.77937 -1.5 -0.397805 -1.5 0 
C -1.5 0.397805 -1.341951 0.77937 -1.06066 1.06066 
C -0.77937 1.341951 -0.397805 1.5 0 1.5 
z
" style="stroke: #f5deb3"/>
    </defs>
    <g>
     <use xlink:href="#m10e7d96521" x="263.06879" y="42.157241" style="fill: #f5deb3; stroke: #f5deb3"/>
     <use xlink:href="#m10e7d96521" x="263.06879" y="42.157241" style="fill: #f5deb3; stroke: #f5deb3"/>
    </g>
   </g>
   <g id="line2d_34">
    <defs>
     <path id="m70fecf2ef4" d="M 0 1.5 
C 0.397805 1.5 0.77937 1.341951 1.06066 1.06066 
C 1.341951 0.77937 1.5 0.397805 1.5 0 
C 1.5 -0.397805 1.341951 -0.77937 1.06066 -1.06066 
C 0.77937 -1.341951 0.397805 -1.5 0 -1.5 
C -0.397805 -1.5 -0.77937 -1.341951 -1.06066 -1.06066 
C -1.341951 -0.77937 -1.5 -0.397805 -1.5 0 
C -1.5 0.397805 -1.341951 0.77937 -1.06066 1.06066 
C -0.77937 1.341951 -0.397805 1.5 0 1.5 
z
" style="stroke: #000080"/>
    </defs>
    <g>
     <use xlink:href="#m70fecf2ef4" x="83.678349" y="283.461269" style="fill: #000080; stroke: #000080"/>
     <use xlink:href="#m70fecf2ef4" x="83.678349" y="283.461269" style="fill: #000080; stroke: #000080"/>
    </g>
   </g>
   <g id="line2d_35">
    <path d="M 44.560826 298.944 
L 44.560826 293.657214 
L 57.6 293.657214 
L 57.6 290.510317 
L 65.227428 290.510317 
L 65.227428 289.251559 
L 70.639174 289.251559 
L 70.639174 287.615172 
L 74.836851 287.615172 
L 74.836851 285.978786 
L 78.266603 285.978786 
L 78.266603 285.223531 
L 81.166416 285.223531 
L 81.166416 284.971779 
L 83.678349 284.971779 
L 83.678349 283.461269 
L 360.8064 283.461269 
" style="fill: none; stroke: #000080; stroke-width: 1.5; stroke-linecap: square"/>
   </g>
   <g id="line2d_36">
    <defs>
     <path id="m9c51ab1222" d="M 0 6 
C 1.591219 6 3.117479 5.367802 4.242641 4.242641 
C 5.367802 3.117479 6 1.591219 6 0 
C 6 -1.591219 5.367802 -3.117479 4.242641 -4.242641 
C 3.117479 -5.367802 1.591219 -6 0 -6 
C -1.591219 -6 -3.117479 -5.367802 -4.242641 -4.242641 
C -5.367802 -3.117479 -6 -1.591219 -6 0 
C -6 1.591219 -5.367802 3.117479 -4.242641 4.242641 
C -3.117479 5.367802 -1.591219 6 0 6 
z
" style="stroke: #000080; stroke-width: 1.5"/>
    </defs>
    <g>
     <use xlink:href="#m9c51ab1222" x="83.678349" y="284.971779" style="fill-opacity: 0; stroke: #000080; stroke-width: 1.5"/>
     <use xlink:href="#m9c51ab1222" x="83.678349" y="284.971779" style="fill-opacity: 0; stroke: #000080; stroke-width: 1.5"/>
     <use xlink:href="#m9c51ab1222" x="83.678349" y="283.461269" style="fill-opacity: 0; stroke: #000080; stroke-width: 1.5"/>
     <use xlink:href="#m9c51ab1222" x="83.678349" y="283.461269" style="fill-opacity: 0; stroke: #000080; stroke-width: 1.5"/>
     <use xlink:href="#m9c51ab1222" x="83.678349" y="283.461269" style="fill-opacity: 0; stroke: #000080; stroke-width: 1.5"/>
     <use xlink:href="#m9c51ab1222" x="360.8064" y="283.461269" style="fill-opacity: 0; stroke: #000080; stroke-width: 1.5"/>
    </g>
   </g>
   <g id="line2d_37">
    <path style="fill: none; stroke: #000080; stroke-width: 1.5; stroke-linecap: square"/>
    <g/>
   </g>
   <g id="line2d_38">
    <path d="M 83.678349 283.461269 
" clip-path="url(#pa85590a160)" style="fill: none; stroke: #000080; stroke-width: 1.5; stroke-linecap: square"/>
    <defs>
     <path id="m23c3fa48fa" d="M -12 12 
L 12 -12 
M -12 -12 
L 12 12 
" style="stroke: #000080"/>
    </defs>
    <g clip-path="url(#pa85590a160)">
     <use xlink:href="#m23c3fa48fa" x="83.678349" y="283.461269" style="fill: #000080; stroke: #000080"/>
    </g>
   </g>
   <g id="line2d_39">
    <defs>
     <path id="mf1301474c6" d="M 0 1.5 
C 0.397805 1.5 0.77937 1.341951 1.06066 1.06066 
C 1.341951 0.77937 1.5 0.397805 1.5 0 
C 1.5 -0.397805 1.341951 -0.77937 1.06066 -1.06066 
C 0.77937 -1.341951 0.397805 -1.5 0 -1.5 
C -0.397805 -1.5 -0.77937 -1.341951 -1.06066 -1.06066 
C -1.341951 -0.77937 -1.5 -0.397805 -1.5 0 
C -1.5 0.397805 -1.341951 0.77937 -1.06066 1.06066 
C -0.77937 1.341951 -0.397805 1.5 0 1.5 
z
" style="stroke: #ff00ff"/>
    </defs>
    <g>
     <use xlink:href="#mf1301474c6" x="273.592249" y="64.940772" style="fill: #ff00ff; stroke: #ff00ff"/>
     <use xlink:href="#mf1301474c6" x="273.592249" y="64.940772" style="fill: #ff00ff; stroke: #ff00ff"/>
    </g>
   </g>
   <g id="line2d_40">
    <path d="M 44.560826 298.944 
L 44.560826 293.657214 
L 57.6 293.657214 
L 57.6 292.272579 
L 65.227428 292.272579 
L 65.227428 290.636193 
L 70.639174 290.636193 
L 70.639174 289.629186 
L 74.836851 289.629186 
L 74.836851 287.363421 
L 78.266603 287.363421 
L 78.266603 285.475283 
L 81.166416 285.475283 
L 81.166416 284.720028 
L 83.678349 284.720028 
L 83.678349 283.335393 
L 85.894031 283.335393 
L 85.894031 282.454262 
L 87.876026 282.454262 
L 87.876026 281.824883 
L 89.668958 281.824883 
L 89.668958 281.195503 
L 91.305777 281.195503 
L 91.305777 279.810869 
L 92.811505 279.810869 
L 92.811505 279.684993 
L 94.205591 279.684993 
L 94.205591 279.055614 
L 95.503454 279.055614 
L 95.503454 277.796855 
L 96.717523 277.796855 
L 96.717523 277.293352 
L 97.857967 277.293352 
L 97.857967 276.663972 
L 98.933205 276.663972 
L 98.933205 274.90171 
L 99.950294 274.90171 
L 99.950294 273.3912 
L 100.9152 273.3912 
L 100.9152 272.887697 
L 101.833019 272.887697 
L 101.833019 272.006566 
L 102.708132 272.006566 
L 102.708132 271.503062 
L 103.544339 271.503062 
L 103.544339 271.125434 
L 105.850679 271.125434 
L 105.850679 270.999559 
L 106.560633 270.999559 
L 106.560633 270.873683 
L 107.244765 270.873683 
L 107.244765 268.733793 
L 107.904887 268.733793 
L 107.904887 268.482041 
L 109.159456 268.482041 
L 109.159456 268.356166 
L 109.756698 268.356166 
L 109.756698 267.978538 
L 110.335561 267.978538 
L 110.335561 267.726786 
L 111.442442 267.726786 
L 111.442442 267.223283 
L 111.97238 267.223283 
L 111.97238 266.0904 
L 112.989468 266.0904 
L 112.989468 265.964524 
L 113.478107 265.964524 
L 113.478107 265.335145 
L 113.954374 265.335145 
L 113.954374 265.209269 
L 114.872193 265.209269 
L 114.872193 264.454014 
L 115.747307 264.454014 
L 115.747307 263.824634 
L 116.583514 263.824634 
L 116.583514 263.698759 
L 116.988079 263.698759 
L 116.988079 263.069379 
L 117.384126 263.069379 
L 117.384126 261.558869 
L 118.152051 261.558869 
L 118.152051 261.307117 
L 118.524569 261.307117 
L 118.524569 260.677738 
L 119.24818 260.677738 
L 119.24818 259.796607 
L 119.599808 259.796607 
L 119.599808 259.670731 
L 119.944983 259.670731 
L 119.944983 259.041352 
L 120.28394 259.041352 
L 120.28394 258.7896 
L 120.616896 258.7896 
L 120.616896 258.663724 
L 120.944062 258.663724 
L 120.944062 258.411972 
L 121.892744 258.411972 
L 121.892744 258.286097 
L 122.499621 258.286097 
L 122.499621 258.160221 
L 122.795872 258.160221 
L 122.795872 257.782593 
L 123.374735 257.782593 
L 123.374735 257.153214 
L 123.657621 257.153214 
L 123.657621 256.775586 
L 123.936316 256.775586 
L 123.936316 256.64971 
L 125.011554 256.64971 
L 125.011554 256.146207 
L 125.271028 256.146207 
L 125.271028 256.020331 
L 125.526971 256.020331 
L 125.526971 255.642703 
L 125.779479 255.642703 
L 125.779479 255.1392 
L 126.274549 255.1392 
L 126.274549 254.761572 
L 127.227236 254.761572 
L 127.227236 254.509821 
L 127.458055 254.509821 
L 127.458055 254.006317 
L 128.354013 254.006317 
L 128.354013 253.754566 
L 128.57149 253.754566 
L 128.57149 253.251062 
L 128.786481 253.251062 
L 128.786481 252.99931 
L 128.999044 252.99931 
L 128.999044 252.747559 
L 129.209231 252.747559 
L 129.209231 251.992303 
L 129.417095 251.992303 
L 129.417095 251.866428 
L 129.622688 251.866428 
L 129.622688 251.614676 
L 129.826058 251.614676 
L 129.826058 251.362924 
L 130.027253 251.362924 
L 130.027253 251.111172 
L 130.226319 251.111172 
L 130.226319 250.481793 
L 130.4233 250.481793 
L 130.4233 250.355917 
L 130.811181 250.355917 
L 130.811181 250.230041 
L 131.002163 250.230041 
L 131.002163 249.97829 
L 131.191226 249.97829 
L 131.191226 249.34891 
L 131.563744 249.34891 
L 131.563744 248.971283 
L 131.747272 248.971283 
L 131.747272 247.712524 
L 132.287354 247.712524 
L 132.287354 247.209021 
L 132.812362 247.209021 
L 132.812362 246.453766 
L 132.984158 246.453766 
L 132.984158 246.202014 
L 133.323114 246.202014 
L 133.323114 245.69851 
L 133.490329 245.69851 
L 133.490329 245.195007 
L 133.656071 245.195007 
L 133.656071 244.943255 
L 133.983236 244.943255 
L 133.983236 244.439752 
L 134.620977 244.439752 
L 134.620977 244.188 
L 134.931919 244.188 
L 134.931919 244.062124 
L 135.085483 244.062124 
L 135.085483 243.936248 
L 135.388902 243.936248 
L 135.388902 243.432745 
L 135.538796 243.432745 
L 135.538796 243.180993 
L 135.981441 243.180993 
L 135.981441 243.055117 
L 136.126705 243.055117 
L 136.126705 242.551614 
L 136.413909 242.551614 
L 136.413909 242.425738 
L 136.696795 242.425738 
L 136.696795 242.299862 
L 136.836659 242.299862 
L 136.836659 241.544607 
L 136.97549 241.544607 
L 136.97549 240.411724 
L 137.113304 240.411724 
L 137.113304 240.034097 
L 137.520791 240.034097 
L 137.520791 239.530593 
L 137.654681 239.530593 
L 137.654681 239.278841 
L 137.787626 239.278841 
L 137.787626 238.020083 
L 137.919637 238.020083 
L 137.919637 237.642455 
L 138.310202 237.642455 
L 138.310202 237.138952 
L 138.943648 237.138952 
L 138.943648 236.383697 
L 139.067817 236.383697 
L 139.067817 235.880193 
L 139.191172 235.880193 
L 139.191172 235.754317 
L 139.435481 235.754317 
L 139.435481 235.628441 
L 139.556456 235.628441 
L 139.556456 234.999062 
L 139.796097 234.999062 
L 139.796097 234.495559 
L 139.914782 234.495559 
L 139.914782 233.866179 
L 140.032723 233.866179 
L 140.032723 233.740303 
L 140.14993 233.740303 
L 140.14993 233.488552 
L 140.382174 233.488552 
L 140.382174 233.362676 
L 140.49723 233.362676 
L 140.49723 232.985048 
L 140.611586 232.985048 
L 140.611586 232.103917 
L 140.725251 232.103917 
L 140.725251 231.600414 
L 140.838234 231.600414 
L 140.838234 231.09691 
L 140.950542 231.09691 
L 140.950542 230.971034 
L 141.062184 230.971034 
L 141.173167 230.215779 
L 141.283499 230.215779 
L 141.393187 229.5864 
L 141.610664 229.5864 
L 141.718467 228.831145 
L 142.038218 228.831145 
L 142.038218 228.579393 
L 142.45627 228.579393 
L 142.559347 228.201766 
L 142.661862 228.201766 
L 142.661862 227.824138 
L 142.966099 227.824138 
L 143.066428 227.572386 
L 143.166224 227.572386 
L 143.265494 226.943007 
L 143.364242 226.943007 
L 143.462475 226.313628 
L 143.560197 226.313628 
L 143.657415 225.936 
L 143.754133 225.936 
L 143.754133 224.928993 
L 143.946089 224.928993 
L 143.946089 224.803117 
L 144.136106 224.803117 
L 144.2304 224.299614 
L 144.324223 224.299614 
L 144.417581 223.79611 
L 144.602918 223.79611 
L 144.602918 223.418483 
L 144.877544 223.418483 
L 144.968202 222.789103 
L 145.503164 222.789103 
L 145.503164 222.411476 
L 146.446082 222.411476 
L 146.446082 222.033848 
L 146.612557 222.033848 
L 146.695245 221.530345 
L 146.777571 221.530345 
L 146.777571 220.900966 
L 147.264104 220.900966 
L 147.264104 220.271586 
L 147.502732 220.271586 
L 147.581606 219.893959 
L 147.660152 219.893959 
L 147.73837 219.516331 
L 147.816265 219.516331 
L 147.816265 219.264579 
L 148.048032 219.264579 
L 148.048032 219.138703 
L 148.200973 219.138703 
L 148.200973 217.250566 
L 148.352679 217.250566 
L 148.428077 216.872938 
L 148.503173 216.872938 
L 148.503173 216.49531 
L 148.800595 216.49531 
L 148.800595 216.117683 
L 149.020615 216.117683 
L 149.020615 215.865931 
L 149.31003 215.865931 
L 149.381693 214.9848 
L 149.595059 214.9848 
L 149.665646 213.222538 
L 149.806031 213.222538 
L 149.806031 212.593159 
L 150.559965 212.593159 
L 150.559965 212.089655 
L 150.693856 212.089655 
L 150.693856 211.586152 
L 150.8268 211.586152 
L 150.8268 211.3344 
L 151.024471 211.3344 
L 151.024471 210.705021 
L 151.54166 210.705021 
L 151.54166 210.579145 
L 152.230346 210.579145 
L 152.230346 210.327393 
L 152.352898 210.327393 
L 152.352898 209.949766 
L 152.715833 209.949766 
L 152.775647 209.572138 
L 153.593669 209.572138 
L 153.593669 209.19451 
L 153.821002 209.19451 
L 153.877408 208.942759 
L 154.04562 208.942759 
L 154.04562 208.565131 
L 154.322673 208.565131 
L 154.322673 208.313379 
L 154.486967 208.313379 
L 154.486967 208.061628 
L 154.649839 208.061628 
L 154.757642 207.432248 
L 155.13016 207.432248 
L 155.13016 207.180497 
L 155.701037 207.180497 
L 155.701037 207.054621 
L 155.85377 207.054621 
L 155.85377 206.928745 
L 156.452597 206.928745 
L 156.452597 206.802869 
L 156.599372 206.802869 
L 156.599372 206.676993 
L 156.937458 206.676993 
L 156.937458 206.425241 
L 157.363398 206.425241 
L 157.363398 206.299366 
L 157.503261 206.299366 
L 157.503261 205.921738 
L 157.871225 205.921738 
L 157.962102 205.040607 
L 158.0976 205.040607 
L 158.14255 204.537103 
L 158.454228 204.537103 
L 158.498335 204.285352 
L 158.717331 204.285352 
L 158.717331 204.159476 
L 159.190332 204.159476 
L 159.275069 203.781848 
L 159.317295 203.781848 
L 159.317295 203.530097 
L 159.485256 203.530097 
L 159.485256 203.404221 
L 159.939564 203.404221 
L 159.980326 202.019586 
L 160.142495 202.019586 
L 160.142495 201.89371 
L 160.4627 201.89371 
L 160.541906 201.390207 
L 160.581385 201.390207 
L 160.581385 201.264331 
L 161.010268 201.264331 
L 161.010268 201.012579 
L 161.202028 201.012579 
L 161.202028 200.886703 
L 161.504837 200.886703 
L 161.504837 200.634952 
L 161.765853 200.634952 
L 161.765853 200.3832 
L 162.096211 200.3832 
L 162.096211 200.131448 
L 162.456597 200.131448 
L 162.456597 199.879697 
L 162.949812 199.879697 
L 163.053839 199.502069 
L 163.865975 199.502069 
L 163.932096 198.87269 
L 164.388551 198.87269 
L 164.388551 198.746814 
L 164.959603 198.746814 
L 164.959603 198.620938 
L 165.874446 198.620938 
L 165.874446 198.24331 
L 166.228279 198.24331 
L 166.257466 197.362179 
L 166.916583 197.362179 
L 166.916583 196.984552 
L 167.196106 196.984552 
L 167.306762 196.481048 
L 167.471536 196.481048 
L 167.526142 195.851669 
L 167.661966 195.851669 
L 167.742992 194.718786 
L 167.850487 194.718786 
L 167.877265 194.215283 
L 168.037137 194.215283 
L 168.037137 194.089407 
L 168.508761 194.089407 
L 168.508761 193.837655 
L 168.765753 193.837655 
L 168.765753 193.711779 
L 169.269439 193.711779 
L 169.269439 193.460028 
L 169.565302 193.460028 
L 169.614163 192.704772 
L 169.687218 192.704772 
L 169.687218 192.578897 
L 170.143423 192.578897 
L 170.238073 191.57189 
L 170.681267 191.57189 
L 170.681267 191.446014 
L 171.181725 191.446014 
L 171.271304 190.816634 
L 171.800001 190.816634 
L 171.843395 190.187255 
L 172.335368 190.187255 
L 172.335368 189.935503 
L 172.461621 189.935503 
L 172.461621 189.809628 
L 172.649425 189.809628 
L 172.752956 189.557876 
L 173.362455 189.557876 
L 173.362455 189.432 
L 173.77765 189.432 
L 173.836223 188.928497 
L 174.145567 188.928497 
L 174.145567 188.802621 
L 174.374282 188.802621 
L 174.449906 188.424993 
L 174.506426 188.424993 
L 174.581522 187.417986 
L 174.674972 187.417986 
L 174.674972 186.536855 
L 174.823534 186.536855 
L 174.915793 186.159228 
L 175.062472 186.159228 
L 175.062472 185.7816 
L 175.388379 185.7816 
L 175.388379 185.529848 
L 175.51361 185.529848 
L 175.584799 185.026345 
L 175.691079 185.026345 
L 175.691079 184.774593 
L 176.006364 184.774593 
L 176.006364 184.648717 
L 176.127562 184.648717 
L 176.230828 184.27109 
L 176.299358 184.27109 
L 176.299358 184.145214 
L 176.469599 184.145214 
L 176.554146 183.767586 
L 176.722107 183.767586 
L 176.822169 183.138207 
L 176.855405 183.138207 
L 176.855405 183.012331 
L 177.02071 183.012331 
L 177.03716 182.382952 
L 177.168252 182.382952 
L 177.168252 182.1312 
L 177.45991 182.1312 
L 177.556133 181.753572 
L 177.699551 181.753572 
L 177.794559 181.124193 
L 177.841883 181.124193 
L 177.936177 180.872441 
L 178.123358 180.872441 
L 178.123358 180.62069 
L 178.277932 180.62069 
L 178.354746 180.117186 
L 178.568169 180.117186 
L 178.67398 179.487807 
L 178.704102 179.487807 
L 178.734177 179.236055 
L 178.824112 179.236055 
L 178.91362 178.984303 
L 179.002704 178.984303 
L 179.06186 178.354924 
L 179.208941 178.354924 
L 179.296641 177.599669 
L 179.586055 177.599669 
L 179.672018 177.096166 
L 179.714853 177.096166 
L 179.729109 176.844414 
L 179.828604 176.844414 
L 179.927575 176.34091 
L 180.054064 176.34091 
L 180.096038 175.963283 
L 180.193616 175.963283 
L 180.304517 174.8304 
L 180.318334 174.8304 
L 180.3735 174.452772 
L 180.524377 174.452772 
L 180.524377 174.326897 
L 180.741697 174.326897 
L 180.822549 173.697517 
L 180.903055 173.697517 
L 180.983218 172.69051 
L 181.023172 172.69051 
L 181.129302 172.438759 
L 181.195331 172.438759 
L 181.195331 172.187007 
L 181.431133 172.187007 
L 181.534993 171.431752 
L 181.560869 171.431752 
L 181.560869 171.305876 
L 181.741008 171.305876 
L 181.792161 170.802372 
L 181.932119 170.802372 
L 181.932119 170.676497 
L 182.083622 170.676497 
L 182.158919 169.165986 
L 182.20895 169.165986 
L 182.221437 168.662483 
L 182.407753 168.662483 
L 182.46945 168.284855 
L 182.604477 168.284855 
L 182.604477 168.158979 
L 182.774938 168.158979 
L 182.883711 167.5296 
L 183.003836 167.5296 
L 183.111297 166.900221 
L 183.135094 166.900221 
L 183.229982 166.396717 
L 183.324394 166.396717 
L 183.383162 165.893214 
L 183.546742 165.893214 
L 183.546742 165.641462 
L 183.66272 165.641462 
L 183.766492 164.760331 
L 183.800956 164.760331 
L 183.869695 164.382703 
L 183.995068 164.382703 
L 184.074417 164.005076 
L 184.11961 164.005076 
L 184.153434 163.501572 
L 184.243334 163.501572 
L 184.343961 162.998069 
L 184.355108 162.998069 
L 184.355108 162.872193 
L 184.543614 162.872193 
L 184.598699 161.613434 
L 184.675548 161.613434 
L 184.675548 161.487559 
L 184.828311 161.487559 
L 184.904229 160.732303 
L 184.95827 160.732303 
L 184.95827 160.606428 
L 185.087338 160.606428 
L 185.16222 159.851172 
L 185.258062 159.851172 
L 185.353418 158.71829 
L 185.427251 158.71829 
L 185.511278 158.08891 
L 185.636619 158.08891 
L 185.647027 157.837159 
L 185.864265 157.837159 
L 185.91562 157.333655 
L 185.997499 157.333655 
L 186.058675 156.830152 
L 186.129796 156.830152 
L 186.129796 156.704276 
L 186.291356 156.704276 
L 186.321495 156.326648 
L 186.441569 156.326648 
L 186.451541 156.074897 
L 186.580694 156.074897 
L 186.66959 155.571393 
L 186.69913 155.571393 
L 186.807045 154.816138 
L 186.8266 154.816138 
L 186.924069 154.564386 
L 187.030705 154.564386 
L 187.107881 153.683255 
L 187.203908 153.683255 
L 187.203908 153.557379 
L 187.318496 153.557379 
L 187.394502 152.928 
L 187.451306 152.928 
L 187.470203 152.298621 
L 187.620696 152.298621 
L 187.714147 151.41749 
L 187.807135 151.41749 
L 187.862709 151.165738 
L 187.991745 151.165738 
L 187.991745 151.039862 
L 188.247192 151.039862 
L 188.355616 150.410483 
L 188.454459 150.410483 
L 188.543867 149.2776 
L 188.588413 149.2776 
L 188.694894 148.648221 
L 188.888557 148.648221 
L 188.94103 148.270593 
L 189.010767 148.270593 
L 189.080246 147.263586 
L 189.140831 147.263586 
L 189.140831 147.13771 
L 189.321423 147.13771 
L 189.338532 146.760083 
L 189.483336 146.760083 
L 189.59332 146.508331 
L 189.61861 146.508331 
L 189.702666 146.130703 
L 189.811379 146.130703 
L 189.919468 145.753076 
L 189.969146 145.753076 
L 190.076335 145.123697 
L 190.231905 145.123697 
L 190.256351 144.620193 
L 190.426593 144.620193 
L 190.531213 143.864938 
L 190.603304 143.864938 
L 190.603304 143.739062 
L 190.730786 143.739062 
L 190.730786 143.613186 
L 190.881058 143.613186 
L 190.881058 143.48731 
L 190.998851 143.48731 
L 191.061374 142.857931 
L 191.193549 142.857931 
L 191.301706 142.228552 
L 191.470421 142.228552 
L 191.516173 141.850924 
L 191.698075 141.850924 
L 191.78837 141.599172 
L 191.825866 141.599172 
L 191.825866 141.473297 
L 191.937906 141.473297 
L 191.967672 141.095669 
L 192.064084 141.095669 
L 192.078873 140.718041 
L 192.189421 140.718041 
L 192.189421 140.592166 
L 192.321227 140.592166 
L 192.430364 140.340414 
L 192.567702 140.340414 
L 192.675422 139.459283 
L 192.689739 139.459283 
L 192.725482 139.081655 
L 192.825202 139.081655 
L 192.853597 138.829903 
L 192.96675 138.829903 
L 193.05117 138.452276 
L 193.10724 138.452276 
L 193.114237 137.948772 
L 193.225837 137.948772 
L 193.225837 137.697021 
L 193.343691 137.697021 
L 193.364413 137.445269 
L 193.55672 137.445269 
L 193.604491 136.81589 
L 193.767362 136.81589 
L 193.787622 136.312386 
L 193.928836 136.312386 
L 194.009056 135.808883 
L 194.088935 135.808883 
L 194.142 135.305379 
L 194.247683 135.305379 
L 194.339671 134.927752 
L 194.392035 134.927752 
L 194.45077 134.550124 
L 194.574168 134.550124 
L 194.683894 134.298372 
L 194.81856 134.298372 
L 194.926874 133.920745 
L 195.047198 133.920745 
L 195.154207 132.913738 
L 195.329141 132.913738 
L 195.434563 131.906731 
L 195.446927 131.906731 
L 195.446927 131.780855 
L 195.57012 131.780855 
L 195.655878 131.403228 
L 195.74733 131.403228 
L 195.814113 131.0256 
L 195.868578 131.0256 
L 195.971028 130.396221 
L 196.316422 130.396221 
L 196.404725 130.018593 
L 196.48677 130.018593 
L 196.48677 129.892717 
L 196.614978 129.892717 
L 196.614978 129.640966 
L 196.742318 129.640966 
L 196.748086 129.389214 
L 197.011509 129.389214 
L 197.06262 128.88571 
L 197.209498 128.88571 
L 197.293716 128.508083 
L 197.494315 128.508083 
L 197.494315 128.382207 
L 197.709243 128.382207 
L 197.796714 128.004579 
L 197.883779 128.004579 
L 197.883779 127.878703 
L 198.029795 127.878703 
L 198.121152 127.501076 
L 198.190716 127.501076 
L 198.190716 127.249324 
L 198.318469 127.249324 
L 198.418995 126.619945 
L 198.466425 126.619945 
L 198.550453 126.368193 
L 198.64975 126.368193 
L 198.758893 125.738814 
L 199.092759 125.738814 
L 199.092759 125.487062 
L 199.300343 125.487062 
L 199.320474 125.23531 
L 199.460784 125.23531 
L 199.505663 124.857683 
L 199.639659 124.857683 
L 199.693978 124.480055 
L 199.792339 124.480055 
L 199.855999 124.102428 
L 200.438417 124.102428 
L 200.528255 123.850676 
L 200.627053 123.850676 
L 200.627053 123.7248 
L 200.767299 123.7248 
L 200.827749 123.473048 
L 200.952681 123.473048 
L 200.952681 123.347172 
L 201.067625 123.347172 
L 201.067625 123.221297 
L 201.331619 123.221297 
L 201.358718 122.969545 
L 201.56073 122.969545 
L 201.578582 122.717793 
L 201.760594 122.717793 
L 201.760594 122.591917 
L 202.010746 122.591917 
L 202.010746 122.466041 
L 202.313467 122.466041 
L 202.403342 121.962538 
L 202.573352 121.962538 
L 202.581813 121.710786 
L 203.086711 121.710786 
L 203.127838 121.207283 
L 203.67443 121.207283 
L 203.718275 120.955531 
L 203.825464 120.955531 
L 203.825464 120.703779 
L 204.065405 120.703779 
L 204.065405 120.452028 
L 204.475208 120.452028 
L 204.49814 119.948524 
L 204.699498 119.948524 
L 204.699498 119.822648 
L 204.984527 119.822648 
L 205.092159 119.445021 
L 205.371344 119.445021 
L 205.371344 119.193269 
L 205.588863 119.193269 
L 205.689517 118.815641 
L 205.721756 118.815641 
L 205.775366 118.56389 
L 206.107884 118.56389 
L 206.107884 118.312138 
L 206.27544 118.312138 
L 206.29628 117.93451 
L 207.041558 117.93451 
L 207.14139 117.556883 
L 207.405046 117.556883 
L 207.457337 117.305131 
L 207.639218 117.305131 
L 207.655372 116.927503 
L 208.054783 116.927503 
L 208.161971 116.549876 
L 208.368316 116.549876 
L 208.368316 116.298124 
L 208.597012 116.298124 
L 208.600083 116.046372 
L 208.971096 116.046372 
L 208.971096 115.794621 
L 209.186669 115.794621 
L 209.257981 115.542869 
L 209.598897 115.542869 
L 209.598897 115.416993 
L 209.72661 115.416993 
L 209.795909 115.165241 
L 209.841966 115.165241 
L 209.841966 115.039366 
L 209.962333 115.039366 
L 210.073417 114.28411 
L 210.166901 114.28411 
L 210.166901 114.158234 
L 210.425097 114.158234 
L 210.48354 113.654731 
L 210.552878 113.654731 
L 210.580543 113.277103 
L 211.165687 113.277103 
L 211.2379 113.025352 
L 211.312496 113.025352 
L 211.312496 112.7736 
L 211.473993 112.7736 
L 211.560785 112.521848 
L 211.942614 112.521848 
L 211.942614 112.270097 
L 212.213215 112.270097 
L 212.241074 112.018345 
L 212.494965 112.018345 
L 212.494965 111.892469 
L 212.636752 111.892469 
L 212.718354 111.011338 
L 212.922042 111.011338 
L 212.924483 110.507834 
L 213.084872 110.507834 
L 213.191043 110.130207 
L 213.477592 110.130207 
L 213.494173 109.878455 
L 213.602774 109.878455 
L 213.602774 109.626703 
L 213.766843 109.626703 
L 213.797156 109.374952 
L 214.056311 109.374952 
L 214.14572 108.997324 
L 214.168578 108.997324 
L 214.218766 108.619697 
L 214.440721 108.619697 
L 214.440721 108.493821 
L 214.5552 108.493821 
L 214.564149 108.242069 
L 214.702322 108.242069 
L 214.702322 108.116193 
L 215.206214 108.116193 
L 215.301091 107.738566 
L 215.397632 107.738566 
L 215.468116 107.360938 
L 215.69064 107.360938 
L 215.762135 107.109186 
L 215.831268 107.109186 
L 215.889728 106.857434 
L 215.956318 106.857434 
L 216.049562 106.353931 
L 216.500906 106.353931 
L 216.500906 106.102179 
L 216.74351 106.102179 
L 216.74351 105.850428 
L 217.036056 105.850428 
L 217.038018 105.346924 
L 217.374277 105.346924 
L 217.374277 105.095172 
L 217.640162 105.095172 
L 217.74434 104.843421 
L 217.768879 104.843421 
L 217.812217 104.465793 
L 217.904215 104.465793 
L 217.941636 104.088166 
L 218.192299 104.088166 
L 218.192299 103.836414 
L 218.333789 103.836414 
L 218.430563 103.207034 
L 218.452405 103.207034 
L 218.505086 102.829407 
L 219.288532 102.829407 
L 219.347601 102.577655 
L 219.542595 102.577655 
L 219.542595 102.325903 
L 219.662381 102.325903 
L 219.662381 102.200028 
L 220.385219 102.200028 
L 220.493247 101.696524 
L 221.186994 101.696524 
L 221.263914 101.444772 
L 221.525276 101.444772 
L 221.525276 101.318897 
L 221.691397 101.318897 
L 221.732699 101.067145 
L 221.943905 101.067145 
L 221.943905 100.941269 
L 222.128842 100.941269 
L 222.128842 100.815393 
L 222.400671 100.815393 
L 222.408043 100.563641 
L 222.762892 100.563641 
L 222.762892 100.437766 
L 223.087014 100.437766 
L 223.087014 100.186014 
L 223.926806 100.186014 
L 223.926806 99.556634 
L 224.066348 99.556634 
L 224.066348 99.430759 
L 224.274405 99.430759 
L 224.274405 99.179007 
L 224.402122 99.179007 
L 224.402122 99.053131 
L 224.601271 99.053131 
L 224.601271 98.927255 
L 224.717671 98.927255 
L 224.785348 98.549628 
L 224.847604 98.549628 
L 224.847604 98.297876 
L 225.012618 98.297876 
L 225.079244 97.794372 
L 225.132886 97.794372 
L 225.234639 97.164993 
L 225.489142 97.164993 
L 225.489142 96.913241 
L 225.799428 96.913241 
L 225.799428 96.66149 
L 225.973417 96.66149 
L 225.973417 96.535614 
L 226.444348 96.535614 
L 226.533347 95.528607 
L 226.657244 95.528607 
L 226.713612 95.150979 
L 227.385092 95.150979 
L 227.435939 94.647476 
L 228.219429 94.647476 
L 228.219429 94.395724 
L 228.626297 94.395724 
L 228.626297 94.143972 
L 228.748766 94.143972 
L 228.829622 93.514593 
L 228.897607 93.514593 
L 228.908045 93.136966 
L 229.071159 93.136966 
L 229.071159 92.885214 
L 229.418611 92.885214 
L 229.418611 92.633462 
L 229.618617 92.633462 
L 229.658766 92.129959 
L 229.87509 92.129959 
L 229.957179 91.626455 
L 230.05757 91.626455 
L 230.094834 91.248828 
L 230.476916 91.248828 
L 230.587944 90.8712 
L 230.631792 90.8712 
L 230.631792 90.619448 
L 230.977072 90.619448 
L 230.977072 90.493572 
L 231.139951 90.493572 
L 231.139951 90.367697 
L 231.376624 90.367697 
L 231.376624 90.241821 
L 231.822461 90.241821 
L 231.822461 90.115945 
L 232.506082 90.115945 
L 232.506082 89.990069 
L 232.896707 89.990069 
L 232.896707 89.738317 
L 233.525076 89.738317 
L 233.551997 89.36069 
L 233.797394 89.36069 
L 233.907308 89.108938 
L 234.761939 89.108938 
L 234.761939 88.857186 
L 235.047939 88.857186 
L 235.064495 88.353683 
L 235.310362 88.353683 
L 235.310362 88.227807 
L 235.431732 88.227807 
L 235.431732 87.976055 
L 235.55892 87.976055 
L 235.617446 87.472552 
L 235.744113 87.472552 
L 235.744113 87.2208 
L 236.014954 87.2208 
L 236.014954 87.094924 
L 236.603523 87.094924 
L 236.603523 86.969048 
L 236.743016 86.969048 
L 236.827452 86.717297 
L 237.075804 86.717297 
L 237.075804 86.591421 
L 237.190365 86.591421 
L 237.213865 86.213793 
L 237.576052 86.213793 
L 237.576052 85.962041 
L 237.909424 85.962041 
L 237.909424 85.836166 
L 238.321954 85.836166 
L 238.429193 85.332662 
L 238.589537 85.332662 
L 238.613845 85.08091 
L 239.10991 85.08091 
L 239.176525 84.829159 
L 240.080002 84.829159 
L 240.080002 84.577407 
L 240.254349 84.577407 
L 240.332963 84.073903 
L 240.936014 84.073903 
L 240.936014 83.948028 
L 241.816332 83.948028 
L 241.911708 83.5704 
L 242.362083 83.5704 
L 242.40745 83.192772 
L 242.770991 83.192772 
L 242.770991 82.941021 
L 243.332807 82.941021 
L 243.423225 82.689269 
L 243.732277 82.689269 
L 243.785346 82.311641 
L 243.908438 82.311641 
L 243.942253 81.934014 
L 244.199503 81.934014 
L 244.277103 81.556386 
L 244.315783 81.556386 
L 244.315783 81.304634 
L 245.499957 81.304634 
L 245.499957 81.052883 
L 245.717688 81.052883 
L 245.717688 80.801131 
L 245.910119 80.801131 
L 245.910119 80.549379 
L 246.319386 80.549379 
L 246.417961 80.171752 
L 246.564658 80.171752 
L 246.564658 80.045876 
L 247.20863 80.045876 
L 247.20863 79.92 
L 247.528932 79.92 
L 247.584303 79.668248 
L 247.724132 79.668248 
L 247.724132 79.542372 
L 248.473857 79.542372 
L 248.500759 79.290621 
L 248.837262 79.290621 
L 248.88495 78.912993 
L 248.959849 78.912993 
L 249.054486 78.535366 
L 250.2956 78.535366 
L 250.2956 78.40949 
L 250.426031 78.40949 
L 250.426031 78.283614 
L 250.879605 78.283614 
L 250.890959 78.031862 
L 251.170698 78.031862 
L 251.256137 77.654234 
L 251.292046 77.654234 
L 251.292046 77.402483 
L 252.057863 77.402483 
L 252.057863 77.276607 
L 252.217211 77.276607 
L 252.261587 76.898979 
L 252.638905 76.898979 
L 252.683774 76.395476 
L 252.833541 76.395476 
L 252.874446 75.640221 
L 252.996919 75.640221 
L 253.098423 75.262593 
L 253.116584 75.262593 
L 253.188191 75.010841 
L 253.248658 75.010841 
L 253.311212 74.507338 
L 253.447877 74.507338 
L 253.463158 74.12971 
L 253.685307 74.12971 
L 253.693691 73.752083 
L 253.825951 73.752083 
L 253.825951 73.626207 
L 254.637 73.626207 
L 254.637 73.500331 
L 254.827378 73.500331 
L 254.827378 73.248579 
L 255.424974 73.248579 
L 255.424974 72.996828 
L 255.878207 72.996828 
L 255.878207 72.745076 
L 256.075453 72.745076 
L 256.075453 72.6192 
L 256.533894 72.6192 
L 256.643137 72.367448 
L 256.719184 72.367448 
L 256.719184 72.241572 
L 256.92527 72.241572 
L 256.974153 71.989821 
L 257.049577 71.989821 
L 257.049577 71.863945 
L 258.107015 71.863945 
L 258.195864 71.612193 
L 258.335452 71.612193 
L 258.335452 71.360441 
L 259.238252 71.360441 
L 259.238252 71.234566 
L 260.367137 71.234566 
L 260.367137 71.10869 
L 260.694678 71.10869 
L 260.694678 70.856938 
L 260.813131 70.856938 
L 260.813131 70.605186 
L 261.209486 70.605186 
L 261.230462 69.849931 
L 261.757051 69.849931 
L 261.757051 69.724055 
L 261.929355 69.724055 
L 262.023086 69.220552 
L 262.064853 69.220552 
L 262.16397 68.717048 
L 262.444017 68.717048 
L 262.546049 68.339421 
L 262.583885 68.339421 
L 262.583885 68.213545 
L 264.122599 68.213545 
L 264.122599 68.087669 
L 265.184466 68.087669 
L 265.184466 67.835917 
L 265.440002 67.835917 
L 265.440002 67.584166 
L 267.730708 67.584166 
L 267.79433 67.206538 
L 268.046556 67.206538 
L 268.046556 67.080662 
L 268.163192 67.080662 
L 268.163192 66.954786 
L 269.328091 66.954786 
L 269.396246 66.577159 
L 269.698309 66.577159 
L 269.698309 66.451283 
L 270.173768 66.451283 
L 270.173768 66.199531 
L 270.738609 66.199531 
L 270.843329 65.570152 
L 271.320733 65.570152 
L 271.320733 65.444276 
L 273.309054 65.444276 
L 273.309054 65.192524 
L 273.592249 65.192524 
L 273.592249 64.940772 
L 360.8064 64.940772 
L 360.8064 64.940772 
" style="fill: none; stroke: #ff00ff; stroke-width: 1.5; stroke-linecap: square"/>
   </g>
   <g id="line2d_41">
    <defs>
     <path id="mdb1c4c1f13" d="M 0 8.485281 
L 5.091169 0 
L 0 -8.485281 
L -5.091169 0 
z
" style="stroke: #ff00ff; stroke-width: 1.5; stroke-linejoin: miter"/>
    </defs>
    <g>
     <use xlink:href="#mdb1c4c1f13" x="97.857967" y="276.663972" style="fill-opacity: 0; stroke: #ff00ff; stroke-width: 1.5; stroke-linejoin: miter"/>
     <use xlink:href="#mdb1c4c1f13" x="149.806031" y="213.222538" style="fill-opacity: 0; stroke: #ff00ff; stroke-width: 1.5; stroke-linejoin: miter"/>
     <use xlink:href="#mdb1c4c1f13" x="209.257981" y="115.668745" style="fill-opacity: 0; stroke: #ff00ff; stroke-width: 1.5; stroke-linejoin: miter"/>
     <use xlink:href="#mdb1c4c1f13" x="273.592249" y="65.192524" style="fill-opacity: 0; stroke: #ff00ff; stroke-width: 1.5; stroke-linejoin: miter"/>
     <use xlink:href="#mdb1c4c1f13" x="273.592249" y="64.940772" style="fill-opacity: 0; stroke: #ff00ff; stroke-width: 1.5; stroke-linejoin: miter"/>
     <use xlink:href="#mdb1c4c1f13" x="360.8064" y="64.940772" style="fill-opacity: 0; stroke: #ff00ff; stroke-width: 1.5; stroke-linejoin: miter"/>
    </g>
   </g>
   <g id="line2d_42">
    <path style="fill: none; stroke: #ff00ff; stroke-width: 1.5; stroke-linecap: square"/>
    <g/>
   </g>
   <g id="line2d_43">
    <path d="M 274.176094 64.940772 
" clip-path="url(#pa85590a160)" style="fill: none; stroke: #ff00ff; stroke-width: 1.5; stroke-linecap: square"/>
    <defs>
     <path id="mf22c6cb93a" d="M -12 12 
L 12 -12 
M -12 -12 
L 12 12 
" style="stroke: #ff00ff"/>
    </defs>
    <g clip-path="url(#pa85590a160)">
     <use xlink:href="#mf22c6cb93a" x="274.176094" y="64.940772" style="fill: #ff00ff; stroke: #ff00ff"/>
    </g>
   </g>
   <g id="line2d_44">
    <defs>
     <path id="m73ac83b889" d="M 0 1.5 
C 0.397805 1.5 0.77937 1.341951 1.06066 1.06066 
C 1.341951 0.77937 1.5 0.397805 1.5 0 
C 1.5 -0.397805 1.341951 -0.77937 1.06066 -1.06066 
C 0.77937 -1.341951 0.397805 -1.5 0 -1.5 
C -0.397805 -1.5 -0.77937 -1.341951 -1.06066 -1.06066 
C -1.341951 -0.77937 -1.5 -0.397805 -1.5 0 
C -1.5 0.397805 -1.341951 0.77937 -1.06066 1.06066 
C -0.77937 1.341951 -0.397805 1.5 0 1.5 
z
" style="stroke: #6495ed"/>
    </defs>
    <g>
     <use xlink:href="#m73ac83b889" x="113.954374" y="228.453517" style="fill: #6495ed; stroke: #6495ed"/>
     <use xlink:href="#m73ac83b889" x="113.954374" y="228.453517" style="fill: #6495ed; stroke: #6495ed"/>
    </g>
   </g>
   <g id="line2d_45">
    <path d="M 44.560826 298.944 
L 44.560826 297.43349 
L 57.6 297.43349 
L 57.6 295.545352 
L 65.227428 295.545352 
L 65.227428 294.286593 
L 70.639174 294.286593 
L 70.639174 293.531338 
L 74.836851 293.531338 
L 74.836851 291.769076 
L 78.266603 291.769076 
L 78.266603 290.258566 
L 81.166416 290.258566 
L 81.166416 288.622179 
L 83.678349 288.622179 
L 83.678349 287.9928 
L 85.894031 287.9928 
L 85.894031 286.985793 
L 87.876026 286.985793 
L 87.876026 285.223531 
L 89.668958 285.223531 
L 89.668958 282.580138 
L 91.305777 282.580138 
L 91.305777 280.566124 
L 92.811505 280.566124 
L 92.811505 279.18149 
L 94.205591 279.18149 
L 94.205591 278.803862 
L 95.503454 278.803862 
L 95.503454 277.922731 
L 96.717523 277.922731 
L 96.717523 277.670979 
L 97.857967 277.670979 
L 97.857967 276.412221 
L 98.933205 276.412221 
L 98.933205 274.90171 
L 99.950294 274.90171 
L 99.950294 274.649959 
L 100.9152 274.649959 
L 100.9152 274.146455 
L 101.833019 274.146455 
L 101.833019 272.635945 
L 102.708132 272.635945 
L 102.708132 267.475034 
L 103.544339 267.475034 
L 103.544339 265.335145 
L 104.344952 265.335145 
L 104.344952 261.558869 
L 105.112877 261.558869 
L 105.112877 258.160221 
L 105.850679 258.160221 
L 105.850679 254.258069 
L 106.560633 254.258069 
L 106.560633 251.866428 
L 107.244765 251.866428 
L 107.244765 249.474786 
L 107.904887 249.474786 
L 107.904887 247.334897 
L 108.542628 247.334897 
L 108.542628 245.069131 
L 109.159456 245.069131 
L 109.159456 240.663476 
L 109.756698 240.663476 
L 109.756698 238.145959 
L 110.335561 238.145959 
L 110.335561 236.8872 
L 110.897141 236.8872 
L 110.897141 236.131945 
L 111.442442 236.131945 
L 111.442442 234.873186 
L 111.97238 234.873186 
L 111.97238 233.614428 
L 112.487797 233.614428 
L 112.487797 231.72629 
L 112.989468 231.72629 
L 112.989468 230.341655 
L 113.478107 230.341655 
L 113.478107 229.964028 
L 113.954374 229.964028 
L 113.954374 228.453517 
L 360.8064 228.453517 
" style="fill: none; stroke: #6495ed; stroke-width: 1.5; stroke-linecap: square"/>
   </g>
   <g id="line2d_46">
    <defs>
     <path id="m9ab18f2b9c" d="M -0 6 
L 6 -6 
L -6 -6 
z
" style="stroke: #6495ed; stroke-width: 1.5; stroke-linejoin: miter"/>
    </defs>
    <g>
     <use xlink:href="#m9ab18f2b9c" x="98.933205" y="276.412221" style="fill-opacity: 0; stroke: #6495ed; stroke-width: 1.5; stroke-linejoin: miter"/>
     <use xlink:href="#m9ab18f2b9c" x="113.954374" y="229.964028" style="fill-opacity: 0; stroke: #6495ed; stroke-width: 1.5; stroke-linejoin: miter"/>
     <use xlink:href="#m9ab18f2b9c" x="113.954374" y="228.453517" style="fill-opacity: 0; stroke: #6495ed; stroke-width: 1.5; stroke-linejoin: miter"/>
     <use xlink:href="#m9ab18f2b9c" x="113.954374" y="228.453517" style="fill-opacity: 0; stroke: #6495ed; stroke-width: 1.5; stroke-linejoin: miter"/>
     <use xlink:href="#m9ab18f2b9c" x="113.954374" y="228.453517" style="fill-opacity: 0; stroke: #6495ed; stroke-width: 1.5; stroke-linejoin: miter"/>
     <use xlink:href="#m9ab18f2b9c" x="360.8064" y="228.453517" style="fill-opacity: 0; stroke: #6495ed; stroke-width: 1.5; stroke-linejoin: miter"/>
    </g>
   </g>
   <g id="line2d_47">
    <path style="fill: none; stroke: #6495ed; stroke-width: 1.5; stroke-linecap: square"/>
    <g/>
   </g>
   <g id="line2d_48">
    <path d="M 113.954374 228.453517 
" clip-path="url(#pa85590a160)" style="fill: none; stroke: #6495ed; stroke-width: 1.5; stroke-linecap: square"/>
    <defs>
     <path id="m2b18b2d988" d="M -12 12 
L 12 -12 
M -12 -12 
L 12 12 
" style="stroke: #6495ed"/>
    </defs>
    <g clip-path="url(#pa85590a160)">
     <use xlink:href="#m2b18b2d988" x="113.954374" y="228.453517" style="fill: #6495ed; stroke: #6495ed"/>
    </g>
   </g>
   <g id="line2d_49">
    <path d="M 360.8064 283.461269 
L 380.514816 293.10336 
" style="fill: none; stroke: #000080; stroke-width: 1.5; stroke-linecap: square"/>
    <g>
     <use xlink:href="#m9c51ab1222" x="360.8064" y="283.461269" style="fill-opacity: 0; stroke: #000080; stroke-width: 1.5"/>
     <use xlink:href="#m9c51ab1222" x="380.514816" y="293.10336" style="fill-opacity: 0; stroke: #000080; stroke-width: 1.5"/>
    </g>
   </g>
   <g id="line2d_50">
    <path d="M 360.8064 228.453517 
L 380.514816 199.65312 
" style="fill: none; stroke: #6495ed; stroke-width: 1.5; stroke-linecap: square"/>
    <g>
     <use xlink:href="#m9ab18f2b9c" x="360.8064" y="228.453517" style="fill-opacity: 0; stroke: #6495ed; stroke-width: 1.5; stroke-linejoin: miter"/>
     <use xlink:href="#m9ab18f2b9c" x="380.514816" y="199.65312" style="fill-opacity: 0; stroke: #6495ed; stroke-width: 1.5; stroke-linejoin: miter"/>
    </g>
   </g>
   <g id="line2d_51">
    <path d="M 360.8064 64.940772 
L 380.514816 106.20288 
" style="fill: none; stroke: #ff00ff; stroke-width: 1.5; stroke-linecap: square"/>
    <g>
     <use xlink:href="#mdb1c4c1f13" x="360.8064" y="64.940772" style="fill-opacity: 0; stroke: #ff00ff; stroke-width: 1.5; stroke-linejoin: miter"/>
     <use xlink:href="#mdb1c4c1f13" x="380.514816" y="106.20288" style="fill-opacity: 0; stroke: #ff00ff; stroke-width: 1.5; stroke-linejoin: miter"/>
    </g>
   </g>
   <g id="line2d_52">
    <path d="M 360.8064 298.944 
L 360.8064 6.912 
" style="fill: none; stroke: #000000; stroke-width: 1.5; stroke-linecap: square"/>
   </g>
   <g id="patch_3">
    <path d="M 57.6 298.944 
L 360.8064 298.944 
" style="fill: none; stroke: #000000; stroke-width: 0.8; stroke-linejoin: miter; stroke-linecap: square"/>
   </g>
   <g id="patch_4">
    <path d="M 57.6 6.912 
L 360.8064 6.912 
" style="fill: none; stroke: #000000; stroke-width: 0.8; stroke-linejoin: miter; stroke-linecap: square"/>
   </g>
   <g id="text_13">
    <!-- cma -->
    <g transform="translate(386.578944 296.966485)scale(0.14 -0.14)">
     <use xlink:href="#DejaVuSans-63"/>
     <use xlink:href="#DejaVuSans-6d" x="54.980469"/>
     <use xlink:href="#DejaVuSans-61" x="152.392578"/>
    </g>
   </g>
   <g id="text_14">
    <!-- parEgo -->
    <g transform="translate(386.578944 203.516245)scale(0.14 -0.14)">
     <defs>
      <path id="DejaVuSans-45" d="M 628 4666 
L 3578 4666 
L 3578 4134 
L 1259 4134 
L 1259 2753 
L 3481 2753 
L 3481 2222 
L 1259 2222 
L 1259 531 
L 3634 531 
L 3634 0 
L 628 0 
L 628 4666 
z
" transform="scale(0.015625)"/>
     </defs>
     <use xlink:href="#DejaVuSans-70"/>
     <use xlink:href="#DejaVuSans-61" x="63.476562"/>
     <use xlink:href="#DejaVuSans-72" x="124.755859"/>
     <use xlink:href="#DejaVuSans-45" x="165.869141"/>
     <use xlink:href="#DejaVuSans-67" x="229.052734"/>
     <use xlink:href="#DejaVuSans-6f" x="292.529297"/>
    </g>
   </g>
   <g id="text_15">
    <!-- external- -->
    <g transform="translate(386.578944 110.066005)scale(0.14 -0.14)">
     <defs>
      <path id="DejaVuSans-78" d="M 3513 3500 
L 2247 1797 
L 3578 0 
L 2900 0 
L 1881 1375 
L 863 0 
L 184 0 
L 1544 1831 
L 300 3500 
L 978 3500 
L 1906 2253 
L 2834 3500 
L 3513 3500 
z
" transform="scale(0.015625)"/>
     </defs>
     <use xlink:href="#DejaVuSans-65"/>
     <use xlink:href="#DejaVuSans-78" x="59.773438"/>
     <use xlink:href="#DejaVuSans-74" x="118.953125"/>
     <use xlink:href="#DejaVuSans-65" x="158.162109"/>
     <use xlink:href="#DejaVuSans-72" x="219.685547"/>
     <use xlink:href="#DejaVuSans-6e" x="259.048828"/>
     <use xlink:href="#DejaVuSans-61" x="322.427734"/>
     <use xlink:href="#DejaVuSans-6c" x="383.707031"/>
     <use xlink:href="#DejaVuSans-2d" x="411.490234"/>
    </g>
   </g>
   <g id="text_16">
    <!-- best 2016 -->
    <g transform="translate(386.578944 16.615765)scale(0.14 -0.14)">
     <defs>
      <path id="DejaVuSans-62" d="M 3116 1747 
Q 3116 2381 2855 2742 
Q 2594 3103 2138 3103 
Q 1681 3103 1420 2742 
Q 1159 2381 1159 1747 
Q 1159 1113 1420 752 
Q 1681 391 2138 391 
Q 2594 391 2855 752 
Q 3116 1113 3116 1747 
z
M 1159 2969 
Q 1341 3281 1617 3432 
Q 1894 3584 2278 3584 
Q 2916 3584 3314 3078 
Q 3713 2572 3713 1747 
Q 3713 922 3314 415 
Q 2916 -91 2278 -91 
Q 1894 -91 1617 61 
Q 1341 213 1159 525 
L 1159 0 
L 581 0 
L 581 4863 
L 1159 4863 
L 1159 2969 
z
" transform="scale(0.015625)"/>
     </defs>
     <use xlink:href="#DejaVuSans-62"/>
     <use xlink:href="#DejaVuSans-65" x="63.476562"/>
     <use xlink:href="#DejaVuSans-73" x="125"/>
     <use xlink:href="#DejaVuSans-74" x="177.099609"/>
     <use xlink:href="#DejaVuSans-20" x="216.308594"/>
     <use xlink:href="#DejaVuSans-32" x="248.095703"/>
     <use xlink:href="#DejaVuSans-30" x="311.71875"/>
     <use xlink:href="#DejaVuSans-31" x="375.341797"/>
     <use xlink:href="#DejaVuSans-36" x="438.964844"/>
    </g>
   </g>
   <g id="text_17">
    <!-- bbob-biobj f9, f10, f18, f19, 2-D -->
    <g transform="translate(60.632064 17.582726)scale(0.102 -0.102)">
     <defs>
      <path id="DejaVuSans-6a" d="M 603 3500 
L 1178 3500 
L 1178 -63 
Q 1178 -731 923 -1031 
Q 669 -1331 103 -1331 
L -116 -1331 
L -116 -844 
L 38 -844 
Q 366 -844 484 -692 
Q 603 -541 603 -63 
L 603 3500 
z
M 603 4863 
L 1178 4863 
L 1178 4134 
L 603 4134 
L 603 4863 
z
" transform="scale(0.015625)"/>
      <path id="DejaVuSans-39" d="M 703 97 
L 703 672 
Q 941 559 1184 500 
Q 1428 441 1663 441 
Q 2288 441 2617 861 
Q 2947 1281 2994 2138 
Q 2813 1869 2534 1725 
Q 2256 1581 1919 1581 
Q 1219 1581 811 2004 
Q 403 2428 403 3163 
Q 403 3881 828 4315 
Q 1253 4750 1959 4750 
Q 2769 4750 3195 4129 
Q 3622 3509 3622 2328 
Q 3622 1225 3098 567 
Q 2575 -91 1691 -91 
Q 1453 -91 1209 -44 
Q 966 3 703 97 
z
M 1959 2075 
Q 2384 2075 2632 2365 
Q 2881 2656 2881 3163 
Q 2881 3666 2632 3958 
Q 2384 4250 1959 4250 
Q 1534 4250 1286 3958 
Q 1038 3666 1038 3163 
Q 1038 2656 1286 2365 
Q 1534 2075 1959 2075 
z
" transform="scale(0.015625)"/>
      <path id="DejaVuSans-44" d="M 1259 4147 
L 1259 519 
L 2022 519 
Q 2988 519 3436 956 
Q 3884 1394 3884 2338 
Q 3884 3275 3436 3711 
Q 2988 4147 2022 4147 
L 1259 4147 
z
M 628 4666 
L 1925 4666 
Q 3281 4666 3915 4102 
Q 4550 3538 4550 2338 
Q 4550 1131 3912 565 
Q 3275 0 1925 0 
L 628 0 
L 628 4666 
z
" transform="scale(0.015625)"/>
     </defs>
     <use xlink:href="#DejaVuSans-62"/>
     <use xlink:href="#DejaVuSans-62" x="63.476562"/>
     <use xlink:href="#DejaVuSans-6f" x="126.953125"/>
     <use xlink:href="#DejaVuSans-62" x="188.134766"/>
     <use xlink:href="#DejaVuSans-2d" x="251.611328"/>
     <use xlink:href="#DejaVuSans-62" x="287.695312"/>
     <use xlink:href="#DejaVuSans-69" x="351.171875"/>
     <use xlink:href="#DejaVuSans-6f" x="378.955078"/>
     <use xlink:href="#DejaVuSans-62" x="440.136719"/>
     <use xlink:href="#DejaVuSans-6a" x="503.613281"/>
     <use xlink:href="#DejaVuSans-20" x="531.396484"/>
     <use xlink:href="#DejaVuSans-66" x="563.183594"/>
     <use xlink:href="#DejaVuSans-39" x="598.388672"/>
     <use xlink:href="#DejaVuSans-2c" x="662.011719"/>
     <use xlink:href="#DejaVuSans-20" x="693.798828"/>
     <use xlink:href="#DejaVuSans-66" x="725.585938"/>
     <use xlink:href="#DejaVuSans-31" x="760.791016"/>
     <use xlink:href="#DejaVuSans-30" x="824.414062"/>
     <use xlink:href="#DejaVuSans-2c" x="888.037109"/>
     <use xlink:href="#DejaVuSans-20" x="919.824219"/>
     <use xlink:href="#DejaVuSans-66" x="951.611328"/>
     <use xlink:href="#DejaVuSans-31" x="986.816406"/>
     <use xlink:href="#DejaVuSans-38" x="1050.439453"/>
     <use xlink:href="#DejaVuSans-2c" x="1114.0625"/>
     <use xlink:href="#DejaVuSans-20" x="1145.849609"/>
     <use xlink:href="#DejaVuSans-66" x="1177.636719"/>
     <use xlink:href="#DejaVuSans-31" x="1212.841797"/>
     <use xlink:href="#DejaVuSans-39" x="1276.464844"/>
     <use xlink:href="#DejaVuSans-2c" x="1340.087891"/>
     <use xlink:href="#DejaVuSans-20" x="1371.875"/>
     <use xlink:href="#DejaVuSans-32" x="1403.662109"/>
     <use xlink:href="#DejaVuSans-2d" x="1467.285156"/>
     <use xlink:href="#DejaVuSans-44" x="1503.369141"/>
    </g>
    <!-- 58 targets: 1..-1.0e-4 -->
    <g transform="translate(60.632064 29.004495)scale(0.102 -0.102)">
     <defs>
      <path id="DejaVuSans-35" d="M 691 4666 
L 3169 4666 
L 3169 4134 
L 1269 4134 
L 1269 2991 
Q 1406 3038 1543 3061 
Q 1681 3084 1819 3084 
Q 2600 3084 3056 2656 
Q 3513 2228 3513 1497 
Q 3513 744 3044 326 
Q 2575 -91 1722 -91 
Q 1428 -91 1123 -41 
Q 819 9 494 109 
L 494 744 
Q 775 591 1075 516 
Q 1375 441 1709 441 
Q 2250 441 2565 725 
Q 2881 1009 2881 1497 
Q 2881 1984 2565 2268 
Q 2250 2553 1709 2553 
Q 1456 2553 1204 2497 
Q 953 2441 691 2322 
L 691 4666 
z
" transform="scale(0.015625)"/>
      <path id="DejaVuSans-3a" d="M 750 794 
L 1409 794 
L 1409 0 
L 750 0 
L 750 794 
z
M 750 3309 
L 1409 3309 
L 1409 2516 
L 750 2516 
L 750 3309 
z
" transform="scale(0.015625)"/>
     </defs>
     <use xlink:href="#DejaVuSans-35"/>
     <use xlink:href="#DejaVuSans-38" x="63.623047"/>
     <use xlink:href="#DejaVuSans-20" x="127.246094"/>
     <use xlink:href="#DejaVuSans-74" x="159.033203"/>
     <use xlink:href="#DejaVuSans-61" x="198.242188"/>
     <use xlink:href="#DejaVuSans-72" x="259.521484"/>
     <use xlink:href="#DejaVuSans-67" x="298.884766"/>
     <use xlink:href="#DejaVuSans-65" x="362.361328"/>
     <use xlink:href="#DejaVuSans-74" x="423.884766"/>
     <use xlink:href="#DejaVuSans-73" x="463.09375"/>
     <use xlink:href="#DejaVuSans-3a" x="515.193359"/>
     <use xlink:href="#DejaVuSans-20" x="548.884766"/>
     <use xlink:href="#DejaVuSans-31" x="580.671875"/>
     <use xlink:href="#DejaVuSans-2e" x="644.294922"/>
     <use xlink:href="#DejaVuSans-2e" x="676.082031"/>
     <use xlink:href="#DejaVuSans-2d" x="707.869141"/>
     <use xlink:href="#DejaVuSans-31" x="743.953125"/>
     <use xlink:href="#DejaVuSans-2e" x="807.576172"/>
     <use xlink:href="#DejaVuSans-30" x="839.363281"/>
     <use xlink:href="#DejaVuSans-65" x="902.986328"/>
     <use xlink:href="#DejaVuSans-2d" x="964.509766"/>
     <use xlink:href="#DejaVuSans-34" x="1000.59375"/>
    </g>
    <!-- 10 instances -->
    <g transform="translate(60.632064 40.426264)scale(0.102 -0.102)">
     <use xlink:href="#DejaVuSans-31"/>
     <use xlink:href="#DejaVuSans-30" x="63.623047"/>
     <use xlink:href="#DejaVuSans-20" x="127.246094"/>
     <use xlink:href="#DejaVuSans-69" x="159.033203"/>
     <use xlink:href="#DejaVuSans-6e" x="186.816406"/>
     <use xlink:href="#DejaVuSans-73" x="250.195312"/>
     <use xlink:href="#DejaVuSans-74" x="302.294922"/>
     <use xlink:href="#DejaVuSans-61" x="341.503906"/>
     <use xlink:href="#DejaVuSans-6e" x="402.783203"/>
     <use xlink:href="#DejaVuSans-63" x="466.162109"/>
     <use xlink:href="#DejaVuSans-65" x="521.142578"/>
     <use xlink:href="#DejaVuSans-73" x="582.666016"/>
    </g>
   </g>
   <g id="text_18">
    <!-- v2.6, hv-hash=ff0e71e8cd978373 -->
    <g style="fill: #808080" transform="translate(123.707887 293.943992)scale(0.1 -0.1)">
     <defs>
      <path id="DejaVuSans-68" d="M 3513 2113 
L 3513 0 
L 2938 0 
L 2938 2094 
Q 2938 2591 2744 2837 
Q 2550 3084 2163 3084 
Q 1697 3084 1428 2787 
Q 1159 2491 1159 1978 
L 1159 0 
L 581 0 
L 581 4863 
L 1159 4863 
L 1159 2956 
Q 1366 3272 1645 3428 
Q 1925 3584 2291 3584 
Q 2894 3584 3203 3211 
Q 3513 2838 3513 2113 
z
" transform="scale(0.015625)"/>
      <path id="DejaVuSans-3d" d="M 678 2906 
L 4684 2906 
L 4684 2381 
L 678 2381 
L 678 2906 
z
M 678 1631 
L 4684 1631 
L 4684 1100 
L 678 1100 
L 678 1631 
z
" transform="scale(0.015625)"/>
      <path id="DejaVuSans-37" d="M 525 4666 
L 3525 4666 
L 3525 4397 
L 1831 0 
L 1172 0 
L 2766 4134 
L 525 4134 
L 525 4666 
z
" transform="scale(0.015625)"/>
      <path id="DejaVuSans-33" d="M 2597 2516 
Q 3050 2419 3304 2112 
Q 3559 1806 3559 1356 
Q 3559 666 3084 287 
Q 2609 -91 1734 -91 
Q 1441 -91 1130 -33 
Q 819 25 488 141 
L 488 750 
Q 750 597 1062 519 
Q 1375 441 1716 441 
Q 2309 441 2620 675 
Q 2931 909 2931 1356 
Q 2931 1769 2642 2001 
Q 2353 2234 1838 2234 
L 1294 2234 
L 1294 2753 
L 1863 2753 
Q 2328 2753 2575 2939 
Q 2822 3125 2822 3475 
Q 2822 3834 2567 4026 
Q 2313 4219 1838 4219 
Q 1578 4219 1281 4162 
Q 984 4106 628 3988 
L 628 4550 
Q 988 4650 1302 4700 
Q 1616 4750 1894 4750 
Q 2613 4750 3031 4423 
Q 3450 4097 3450 3541 
Q 3450 3153 3228 2886 
Q 3006 2619 2597 2516 
z
" transform="scale(0.015625)"/>
     </defs>
     <use xlink:href="#DejaVuSans-76"/>
     <use xlink:href="#DejaVuSans-32" x="59.179688"/>
     <use xlink:href="#DejaVuSans-2e" x="122.802734"/>
     <use xlink:href="#DejaVuSans-36" x="154.589844"/>
     <use xlink:href="#DejaVuSans-2c" x="218.212891"/>
     <use xlink:href="#DejaVuSans-20" x="250"/>
     <use xlink:href="#DejaVuSans-68" x="281.787109"/>
     <use xlink:href="#DejaVuSans-76" x="345.166016"/>
     <use xlink:href="#DejaVuSans-2d" x="401.720703"/>
     <use xlink:href="#DejaVuSans-68" x="437.804688"/>
     <use xlink:href="#DejaVuSans-61" x="501.183594"/>
     <use xlink:href="#DejaVuSans-73" x="562.462891"/>
     <use xlink:href="#DejaVuSans-68" x="614.5625"/>
     <use xlink:href="#DejaVuSans-3d" x="677.941406"/>
     <use xlink:href="#DejaVuSans-66" x="761.730469"/>
     <use xlink:href="#DejaVuSans-66" x="796.935547"/>
     <use xlink:href="#DejaVuSans-30" x="832.140625"/>
     <use xlink:href="#DejaVuSans-65" x="895.763672"/>
     <use xlink:href="#DejaVuSans-37" x="957.287109"/>
     <use xlink:href="#DejaVuSans-31" x="1020.910156"/>
     <use xlink:href="#DejaVuSans-65" x="1084.533203"/>
     <use xlink:href="#DejaVuSans-38" x="1146.056641"/>
     <use xlink:href="#DejaVuSans-63" x="1209.679688"/>
     <use xlink:href="#DejaVuSans-64" x="1264.660156"/>
     <use xlink:href="#DejaVuSans-39" x="1328.136719"/>
     <use xlink:href="#DejaVuSans-37" x="1391.759766"/>
     <use xlink:href="#DejaVuSans-38" x="1455.382812"/>
     <use xlink:href="#DejaVuSans-33" x="1519.005859"/>
     <use xlink:href="#DejaVuSans-37" x="1582.628906"/>
     <use xlink:href="#DejaVuSans-33" x="1646.251953"/>
    </g>
   </g>
  </g>
 </g>
 <defs>
  <clipPath id="pa85590a160">
   <rect x="57.6" y="6.912" width="303.2064" height="292.032"/>
  </clipPath>
 </defs>
</svg>
