<?xml version="1.0" encoding="utf-8" standalone="no"?>
<!DOCTYPE svg PUBLIC "-//W3C//DTD SVG 1.1//EN"
  "http://www.w3.org/Graphics/SVG/1.1/DTD/svg11.dtd">
<svg xmlns:xlink="http://www.w3.org/1999/xlink" width="460.8pt" height="345.6pt" viewBox="0 0 460.8 345.6" xmlns="http://www.w3.org/2000/svg" version="1.1">
 <metadata>
  <rdf:RDF xmlns:dc="http://purl.org/dc/elements/1.1/" xmlns:cc="http://creativecommons.org/ns#" xmlns:rdf="http://www.w3.org/1999/02/22-rdf-syntax-ns#">
   <cc:Work>
    <dc:type rdf:resource="http://purl.org/dc/dcmitype/StillImage"/>
    <dc:date>2022-06-19T21:02:36.115920</dc:date>
    <dc:format>image/svg+xml</dc:format>
    <dc:creator>
     <cc:Agent>
      <dc:title>Matplotlib v3.5.1, https://matplotlib.org/</dc:title>
     </cc:Agent>
    </dc:creator>
   </cc:Work>
  </rdf:RDF>
 </metadata>
 <defs>
  <style type="text/css">*{stroke-linejoin: round; stroke-linecap: butt}</style>
 </defs>
 <g id="figure_1">
  <g id="patch_1">
   <path d="M 0 345.6 
L 460.8 345.6 
L 460.8 0 
L 0 0 
z
" style="fill: #ffffff"/>
  </g>
  <g id="axes_1">
   <g id="patch_2">
    <path d="M 57.6 298.944 
L 360.8064 298.944 
L 360.8064 6.912 
L 57.6 6.912 
z
" style="fill: #ffffff"/>
   </g>
   <g id="line2d_1">
    <path d="M 1.245626 298.944 
L 1.245626 297.265655 
L 21.912228 297.265655 
L 21.912228 295.58731 
L 31.521651 295.58731 
L 31.521651 293.908966 
L 42.578831 293.908966 
L 42.578831 290.552276 
L 53.402323 290.552276 
L 53.402323 287.195586 
L 57.6 287.195586 
L 57.6 283.838897 
L 59.392932 283.838897 
L 59.392932 282.160552 
L 60.229139 282.160552 
L 60.229139 278.803862 
L 67.581941 278.803862 
L 67.581941 270.412138 
L 70.639174 270.412138 
L 70.639174 267.055448 
L 78.88343 267.055448 
L 78.88343 263.698759 
L 82.464279 263.698759 
L 82.464279 262.020414 
L 86.911119 262.020414 
L 86.911119 260.342069 
L 88.063207 260.342069 
L 88.063207 258.663724 
L 89.839199 258.663724 
L 89.839199 253.62869 
L 93.66029 253.62869 
L 93.66029 250.272 
L 98.077987 250.272 
L 98.077987 246.91531 
L 100.820906 246.91531 
L 100.820906 245.236966 
L 101.653002 245.236966 
L 101.653002 240.201931 
L 102.878374 240.201931 
L 102.878374 235.166897 
L 110.392479 235.166897 
L 110.392479 231.810207 
L 110.674517 231.810207 
L 110.674517 228.453517 
L 111.117162 228.453517 
L 111.117162 225.096828 
L 114.646902 225.096828 
L 114.646902 223.418483 
L 119.564939 223.418483 
L 119.564939 220.061793 
L 122.228947 220.061793 
L 122.228947 216.705103 
L 127.686077 216.705103 
L 127.686077 211.670069 
L 128.57149 211.670069 
L 128.57149 206.635034 
L 131.71071 206.635034 
L 131.71071 203.278345 
L 135.418977 203.278345 
L 135.418977 199.921655 
L 135.687504 199.921655 
L 135.687504 196.564966 
L 141.750688 196.564966 
L 141.750688 193.208276 
L 142.217026 193.208276 
L 142.217026 191.529931 
L 142.966099 191.529931 
L 142.966099 188.173241 
L 150.667154 188.173241 
L 150.667154 183.138207 
L 151.400845 183.138207 
L 151.400845 179.781517 
L 151.598964 179.781517 
L 151.598964 176.424828 
L 156.550574 176.424828 
L 156.550574 174.746483 
L 157.857556 174.746483 
L 157.857556 173.068138 
L 159.181837 173.068138 
L 159.181837 171.389793 
L 161.44843 171.389793 
L 161.44843 166.354759 
L 163.541946 166.354759 
L 163.541946 161.319724 
L 166.877116 161.319724 
L 166.927844 157.963034 
L 167.520688 157.963034 
L 167.520688 152.928 
L 171.758683 152.928 
L 171.758683 147.892966 
L 174.097566 147.892966 
L 174.097566 142.857931 
L 178.62266 142.857931 
L 178.62266 139.501241 
L 178.804663 139.501241 
L 178.804663 136.144552 
L 186.197618 136.144552 
L 186.197618 134.466207 
L 190.47978 134.466207 
L 190.47978 129.431172 
L 193.038531 129.431172 
L 193.038531 127.752828 
L 195.812901 127.752828 
L 195.812901 126.074483 
L 196.241925 126.074483 
L 196.241925 122.717793 
L 203.444773 122.717793 
L 203.444773 117.682759 
L 213.469058 117.682759 
L 213.469058 114.326069 
L 217.288549 114.326069 
L 217.288549 109.291034 
L 224.006458 109.291034 
L 224.006458 105.934345 
L 225.812471 105.934345 
L 225.812471 104.256 
L 238.241185 104.256 
L 238.241185 102.577655 
L 248.122165 102.577655 
L 248.122165 97.542621 
L 248.929169 97.542621 
L 248.929169 94.185931 
L 253.861295 94.185931 
L 253.861295 89.150897 
L 261.059691 89.150897 
L 261.059691 87.472552 
L 261.296216 87.472552 
L 261.296216 82.437517 
L 261.703371 82.437517 
L 261.703371 80.759172 
L 262.19259 80.759172 
L 262.19259 75.724138 
L 263.372278 75.724138 
L 263.372278 72.367448 
L 273.048165 72.367448 
L 273.048165 69.010759 
L 279.44628 69.010759 
L 279.44628 65.654069 
L 280.674391 65.654069 
L 280.674391 63.975724 
L 284.013379 63.975724 
L 284.013379 60.619034 
L 295.334829 60.619034 
L 295.334829 57.262345 
L 296.241906 57.262345 
L 296.241906 52.22731 
L 297.984027 52.22731 
L 297.984027 50.548966 
L 301.773649 50.548966 
L 301.773649 47.192276 
L 311.428809 47.192276 
L 311.428809 42.157241 
L 360.8064 42.157241 
L 360.8064 42.157241 
" style="fill: none; stroke: #f5deb3; stroke-width: 4; stroke-linecap: square"/>
   </g>
   <g id="line2d_2">
    <defs>
     <path id="m7b8a42a12f" d="M 0 7.778175 
L 7.778175 0 
L 0 -7.778175 
L -7.778175 0 
z
" style="stroke: #f5deb3; stroke-width: 1.5; stroke-linejoin: miter"/>
    </defs>
    <g>
     <use xlink:href="#m7b8a42a12f" x="110.392479" y="235.166897" style="fill: #f5deb3; stroke: #f5deb3; stroke-width: 1.5; stroke-linejoin: miter"/>
     <use xlink:href="#m7b8a42a12f" x="163.541946" y="161.319724" style="fill: #f5deb3; stroke: #f5deb3; stroke-width: 1.5; stroke-linejoin: miter"/>
     <use xlink:href="#m7b8a42a12f" x="225.812471" y="104.256" style="fill: #f5deb3; stroke: #f5deb3; stroke-width: 1.5; stroke-linejoin: miter"/>
     <use xlink:href="#m7b8a42a12f" x="311.428809" y="47.192276" style="fill: #f5deb3; stroke: #f5deb3; stroke-width: 1.5; stroke-linejoin: miter"/>
     <use xlink:href="#m7b8a42a12f" x="311.428809" y="42.157241" style="fill: #f5deb3; stroke: #f5deb3; stroke-width: 1.5; stroke-linejoin: miter"/>
     <use xlink:href="#m7b8a42a12f" x="360.8064" y="42.157241" style="fill: #f5deb3; stroke: #f5deb3; stroke-width: 1.5; stroke-linejoin: miter"/>
    </g>
   </g>
   <g id="line2d_3">
    <path style="fill: none; stroke: #f5deb3; stroke-width: 4; stroke-linecap: square"/>
    <g/>
   </g>
   <g id="line2d_4">
    <path d="M 360.8064 42.157241 
L 380.514816 12.75264 
" style="fill: none; stroke: #f5deb3; stroke-width: 4; stroke-linecap: square"/>
    <g>
     <use xlink:href="#m7b8a42a12f" x="360.8064" y="42.157241" style="fill: #f5deb3; stroke: #f5deb3; stroke-width: 1.5; stroke-linejoin: miter"/>
     <use xlink:href="#m7b8a42a12f" x="380.514816" y="12.75264" style="fill: #f5deb3; stroke: #f5deb3; stroke-width: 1.5; stroke-linejoin: miter"/>
    </g>
   </g>
   <g id="matplotlib.axis_1">
    <g id="xtick_1">
     <g id="line2d_5">
      <path d="M 57.6 298.944 
L 57.6 6.912 
" clip-path="url(#pe55cfb2321)" style="fill: none; stroke: #b0b0b0; stroke-width: 0.8; stroke-linecap: square"/>
     </g>
     <g id="line2d_6">
      <defs>
       <path id="ma607fb3c69" d="M 0 0 
L 0 3.5 
" style="stroke: #000000; stroke-width: 0.8"/>
      </defs>
      <g>
       <use xlink:href="#ma607fb3c69" x="57.6" y="298.944" style="stroke: #000000; stroke-width: 0.8"/>
      </g>
     </g>
     <g id="text_1">
      <!-- 0 -->
      <g transform="translate(52.191875 318.861344)scale(0.17 -0.17)">
       <defs>
        <path id="DejaVuSans-30" d="M 2034 4250 
Q 1547 4250 1301 3770 
Q 1056 3291 1056 2328 
Q 1056 1369 1301 889 
Q 1547 409 2034 409 
Q 2525 409 2770 889 
Q 3016 1369 3016 2328 
Q 3016 3291 2770 3770 
Q 2525 4250 2034 4250 
z
M 2034 4750 
Q 2819 4750 3233 4129 
Q 3647 3509 3647 2328 
Q 3647 1150 3233 529 
Q 2819 -91 2034 -91 
Q 1250 -91 836 529 
Q 422 1150 422 2328 
Q 422 3509 836 4129 
Q 1250 4750 2034 4750 
z
" transform="scale(0.015625)"/>
       </defs>
       <use xlink:href="#DejaVuSans-30"/>
      </g>
     </g>
    </g>
    <g id="xtick_2">
     <g id="line2d_7">
      <path d="M 144.2304 298.944 
L 144.2304 6.912 
" clip-path="url(#pe55cfb2321)" style="fill: none; stroke: #b0b0b0; stroke-width: 0.8; stroke-linecap: square"/>
     </g>
     <g id="line2d_8">
      <g>
       <use xlink:href="#ma607fb3c69" x="144.2304" y="298.944" style="stroke: #000000; stroke-width: 0.8"/>
      </g>
     </g>
     <g id="text_2">
      <!-- 2 -->
      <g transform="translate(138.822275 318.861344)scale(0.17 -0.17)">
       <defs>
        <path id="DejaVuSans-32" d="M 1228 531 
L 3431 531 
L 3431 0 
L 469 0 
L 469 531 
Q 828 903 1448 1529 
Q 2069 2156 2228 2338 
Q 2531 2678 2651 2914 
Q 2772 3150 2772 3378 
Q 2772 3750 2511 3984 
Q 2250 4219 1831 4219 
Q 1534 4219 1204 4116 
Q 875 4013 500 3803 
L 500 4441 
Q 881 4594 1212 4672 
Q 1544 4750 1819 4750 
Q 2544 4750 2975 4387 
Q 3406 4025 3406 3419 
Q 3406 3131 3298 2873 
Q 3191 2616 2906 2266 
Q 2828 2175 2409 1742 
Q 1991 1309 1228 531 
z
" transform="scale(0.015625)"/>
       </defs>
       <use xlink:href="#DejaVuSans-32"/>
      </g>
     </g>
    </g>
    <g id="xtick_3">
     <g id="line2d_9">
      <path d="M 230.8608 298.944 
L 230.8608 6.912 
" clip-path="url(#pe55cfb2321)" style="fill: none; stroke: #b0b0b0; stroke-width: 0.8; stroke-linecap: square"/>
     </g>
     <g id="line2d_10">
      <g>
       <use xlink:href="#ma607fb3c69" x="230.8608" y="298.944" style="stroke: #000000; stroke-width: 0.8"/>
      </g>
     </g>
     <g id="text_3">
      <!-- 4 -->
      <g transform="translate(225.452675 318.861344)scale(0.17 -0.17)">
       <defs>
        <path id="DejaVuSans-34" d="M 2419 4116 
L 825 1625 
L 2419 1625 
L 2419 4116 
z
M 2253 4666 
L 3047 4666 
L 3047 1625 
L 3713 1625 
L 3713 1100 
L 3047 1100 
L 3047 0 
L 2419 0 
L 2419 1100 
L 313 1100 
L 313 1709 
L 2253 4666 
z
" transform="scale(0.015625)"/>
       </defs>
       <use xlink:href="#DejaVuSans-34"/>
      </g>
     </g>
    </g>
    <g id="xtick_4">
     <g id="line2d_11">
      <path d="M 317.4912 298.944 
L 317.4912 6.912 
" clip-path="url(#pe55cfb2321)" style="fill: none; stroke: #b0b0b0; stroke-width: 0.8; stroke-linecap: square"/>
     </g>
     <g id="line2d_12">
      <g>
       <use xlink:href="#ma607fb3c69" x="317.4912" y="298.944" style="stroke: #000000; stroke-width: 0.8"/>
      </g>
     </g>
     <g id="text_4">
      <!-- 6 -->
      <g transform="translate(312.083075 318.861344)scale(0.17 -0.17)">
       <defs>
        <path id="DejaVuSans-36" d="M 2113 2584 
Q 1688 2584 1439 2293 
Q 1191 2003 1191 1497 
Q 1191 994 1439 701 
Q 1688 409 2113 409 
Q 2538 409 2786 701 
Q 3034 994 3034 1497 
Q 3034 2003 2786 2293 
Q 2538 2584 2113 2584 
z
M 3366 4563 
L 3366 3988 
Q 3128 4100 2886 4159 
Q 2644 4219 2406 4219 
Q 1781 4219 1451 3797 
Q 1122 3375 1075 2522 
Q 1259 2794 1537 2939 
Q 1816 3084 2150 3084 
Q 2853 3084 3261 2657 
Q 3669 2231 3669 1497 
Q 3669 778 3244 343 
Q 2819 -91 2113 -91 
Q 1303 -91 875 529 
Q 447 1150 447 2328 
Q 447 3434 972 4092 
Q 1497 4750 2381 4750 
Q 2619 4750 2861 4703 
Q 3103 4656 3366 4563 
z
" transform="scale(0.015625)"/>
       </defs>
       <use xlink:href="#DejaVuSans-36"/>
      </g>
     </g>
    </g>
    <g id="xtick_5">
     <g id="line2d_13">
      <path d="M 100.9152 298.944 
L 100.9152 6.912 
" clip-path="url(#pe55cfb2321)" style="fill: none; stroke: #b0b0b0; stroke-width: 0.8; stroke-linecap: square"/>
     </g>
     <g id="line2d_14">
      <defs>
       <path id="m145dffa33d" d="M 0 0 
L 0 2 
" style="stroke: #000000; stroke-width: 0.6"/>
      </defs>
      <g>
       <use xlink:href="#m145dffa33d" x="100.9152" y="298.944" style="stroke: #000000; stroke-width: 0.6"/>
      </g>
     </g>
    </g>
    <g id="xtick_6">
     <g id="line2d_15">
      <path d="M 187.5456 298.944 
L 187.5456 6.912 
" clip-path="url(#pe55cfb2321)" style="fill: none; stroke: #b0b0b0; stroke-width: 0.8; stroke-linecap: square"/>
     </g>
     <g id="line2d_16">
      <g>
       <use xlink:href="#m145dffa33d" x="187.5456" y="298.944" style="stroke: #000000; stroke-width: 0.6"/>
      </g>
     </g>
    </g>
    <g id="xtick_7">
     <g id="line2d_17">
      <path d="M 274.176 298.944 
L 274.176 6.912 
" clip-path="url(#pe55cfb2321)" style="fill: none; stroke: #b0b0b0; stroke-width: 0.8; stroke-linecap: square"/>
     </g>
     <g id="line2d_18">
      <g>
       <use xlink:href="#m145dffa33d" x="274.176" y="298.944" style="stroke: #000000; stroke-width: 0.6"/>
      </g>
     </g>
    </g>
    <g id="xtick_8">
     <g id="line2d_19">
      <path d="M 360.8064 298.944 
L 360.8064 6.912 
" clip-path="url(#pe55cfb2321)" style="fill: none; stroke: #b0b0b0; stroke-width: 0.8; stroke-linecap: square"/>
     </g>
     <g id="line2d_20">
      <g>
       <use xlink:href="#m145dffa33d" x="360.8064" y="298.944" style="stroke: #000000; stroke-width: 0.6"/>
      </g>
     </g>
    </g>
    <g id="text_5">
     <!-- log10(# f-evals / dimension) -->
     <g transform="translate(88.823278 339.314156)scale(0.17 -0.17)">
      <defs>
       <path id="DejaVuSans-6c" d="M 603 4863 
L 1178 4863 
L 1178 0 
L 603 0 
L 603 4863 
z
" transform="scale(0.015625)"/>
       <path id="DejaVuSans-6f" d="M 1959 3097 
Q 1497 3097 1228 2736 
Q 959 2375 959 1747 
Q 959 1119 1226 758 
Q 1494 397 1959 397 
Q 2419 397 2687 759 
Q 2956 1122 2956 1747 
Q 2956 2369 2687 2733 
Q 2419 3097 1959 3097 
z
M 1959 3584 
Q 2709 3584 3137 3096 
Q 3566 2609 3566 1747 
Q 3566 888 3137 398 
Q 2709 -91 1959 -91 
Q 1206 -91 779 398 
Q 353 888 353 1747 
Q 353 2609 779 3096 
Q 1206 3584 1959 3584 
z
" transform="scale(0.015625)"/>
       <path id="DejaVuSans-67" d="M 2906 1791 
Q 2906 2416 2648 2759 
Q 2391 3103 1925 3103 
Q 1463 3103 1205 2759 
Q 947 2416 947 1791 
Q 947 1169 1205 825 
Q 1463 481 1925 481 
Q 2391 481 2648 825 
Q 2906 1169 2906 1791 
z
M 3481 434 
Q 3481 -459 3084 -895 
Q 2688 -1331 1869 -1331 
Q 1566 -1331 1297 -1286 
Q 1028 -1241 775 -1147 
L 775 -588 
Q 1028 -725 1275 -790 
Q 1522 -856 1778 -856 
Q 2344 -856 2625 -561 
Q 2906 -266 2906 331 
L 2906 616 
Q 2728 306 2450 153 
Q 2172 0 1784 0 
Q 1141 0 747 490 
Q 353 981 353 1791 
Q 353 2603 747 3093 
Q 1141 3584 1784 3584 
Q 2172 3584 2450 3431 
Q 2728 3278 2906 2969 
L 2906 3500 
L 3481 3500 
L 3481 434 
z
" transform="scale(0.015625)"/>
       <path id="DejaVuSans-31" d="M 794 531 
L 1825 531 
L 1825 4091 
L 703 3866 
L 703 4441 
L 1819 4666 
L 2450 4666 
L 2450 531 
L 3481 531 
L 3481 0 
L 794 0 
L 794 531 
z
" transform="scale(0.015625)"/>
       <path id="DejaVuSans-28" d="M 1984 4856 
Q 1566 4138 1362 3434 
Q 1159 2731 1159 2009 
Q 1159 1288 1364 580 
Q 1569 -128 1984 -844 
L 1484 -844 
Q 1016 -109 783 600 
Q 550 1309 550 2009 
Q 550 2706 781 3412 
Q 1013 4119 1484 4856 
L 1984 4856 
z
" transform="scale(0.015625)"/>
       <path id="DejaVuSans-23" d="M 3272 2816 
L 2363 2816 
L 2100 1772 
L 3016 1772 
L 3272 2816 
z
M 2803 4594 
L 2478 3297 
L 3391 3297 
L 3719 4594 
L 4219 4594 
L 3897 3297 
L 4872 3297 
L 4872 2816 
L 3775 2816 
L 3519 1772 
L 4513 1772 
L 4513 1294 
L 3397 1294 
L 3072 0 
L 2572 0 
L 2894 1294 
L 1978 1294 
L 1656 0 
L 1153 0 
L 1478 1294 
L 494 1294 
L 494 1772 
L 1594 1772 
L 1856 2816 
L 850 2816 
L 850 3297 
L 1978 3297 
L 2297 4594 
L 2803 4594 
z
" transform="scale(0.015625)"/>
       <path id="DejaVuSans-20" transform="scale(0.015625)"/>
       <path id="DejaVuSans-66" d="M 2375 4863 
L 2375 4384 
L 1825 4384 
Q 1516 4384 1395 4259 
Q 1275 4134 1275 3809 
L 1275 3500 
L 2222 3500 
L 2222 3053 
L 1275 3053 
L 1275 0 
L 697 0 
L 697 3053 
L 147 3053 
L 147 3500 
L 697 3500 
L 697 3744 
Q 697 4328 969 4595 
Q 1241 4863 1831 4863 
L 2375 4863 
z
" transform="scale(0.015625)"/>
       <path id="DejaVuSans-2d" d="M 313 2009 
L 1997 2009 
L 1997 1497 
L 313 1497 
L 313 2009 
z
" transform="scale(0.015625)"/>
       <path id="DejaVuSans-65" d="M 3597 1894 
L 3597 1613 
L 953 1613 
Q 991 1019 1311 708 
Q 1631 397 2203 397 
Q 2534 397 2845 478 
Q 3156 559 3463 722 
L 3463 178 
Q 3153 47 2828 -22 
Q 2503 -91 2169 -91 
Q 1331 -91 842 396 
Q 353 884 353 1716 
Q 353 2575 817 3079 
Q 1281 3584 2069 3584 
Q 2775 3584 3186 3129 
Q 3597 2675 3597 1894 
z
M 3022 2063 
Q 3016 2534 2758 2815 
Q 2500 3097 2075 3097 
Q 1594 3097 1305 2825 
Q 1016 2553 972 2059 
L 3022 2063 
z
" transform="scale(0.015625)"/>
       <path id="DejaVuSans-76" d="M 191 3500 
L 800 3500 
L 1894 563 
L 2988 3500 
L 3597 3500 
L 2284 0 
L 1503 0 
L 191 3500 
z
" transform="scale(0.015625)"/>
       <path id="DejaVuSans-61" d="M 2194 1759 
Q 1497 1759 1228 1600 
Q 959 1441 959 1056 
Q 959 750 1161 570 
Q 1363 391 1709 391 
Q 2188 391 2477 730 
Q 2766 1069 2766 1631 
L 2766 1759 
L 2194 1759 
z
M 3341 1997 
L 3341 0 
L 2766 0 
L 2766 531 
Q 2569 213 2275 61 
Q 1981 -91 1556 -91 
Q 1019 -91 701 211 
Q 384 513 384 1019 
Q 384 1609 779 1909 
Q 1175 2209 1959 2209 
L 2766 2209 
L 2766 2266 
Q 2766 2663 2505 2880 
Q 2244 3097 1772 3097 
Q 1472 3097 1187 3025 
Q 903 2953 641 2809 
L 641 3341 
Q 956 3463 1253 3523 
Q 1550 3584 1831 3584 
Q 2591 3584 2966 3190 
Q 3341 2797 3341 1997 
z
" transform="scale(0.015625)"/>
       <path id="DejaVuSans-73" d="M 2834 3397 
L 2834 2853 
Q 2591 2978 2328 3040 
Q 2066 3103 1784 3103 
Q 1356 3103 1142 2972 
Q 928 2841 928 2578 
Q 928 2378 1081 2264 
Q 1234 2150 1697 2047 
L 1894 2003 
Q 2506 1872 2764 1633 
Q 3022 1394 3022 966 
Q 3022 478 2636 193 
Q 2250 -91 1575 -91 
Q 1294 -91 989 -36 
Q 684 19 347 128 
L 347 722 
Q 666 556 975 473 
Q 1284 391 1588 391 
Q 1994 391 2212 530 
Q 2431 669 2431 922 
Q 2431 1156 2273 1281 
Q 2116 1406 1581 1522 
L 1381 1569 
Q 847 1681 609 1914 
Q 372 2147 372 2553 
Q 372 3047 722 3315 
Q 1072 3584 1716 3584 
Q 2034 3584 2315 3537 
Q 2597 3491 2834 3397 
z
" transform="scale(0.015625)"/>
       <path id="DejaVuSans-2f" d="M 1625 4666 
L 2156 4666 
L 531 -594 
L 0 -594 
L 1625 4666 
z
" transform="scale(0.015625)"/>
       <path id="DejaVuSans-64" d="M 2906 2969 
L 2906 4863 
L 3481 4863 
L 3481 0 
L 2906 0 
L 2906 525 
Q 2725 213 2448 61 
Q 2172 -91 1784 -91 
Q 1150 -91 751 415 
Q 353 922 353 1747 
Q 353 2572 751 3078 
Q 1150 3584 1784 3584 
Q 2172 3584 2448 3432 
Q 2725 3281 2906 2969 
z
M 947 1747 
Q 947 1113 1208 752 
Q 1469 391 1925 391 
Q 2381 391 2643 752 
Q 2906 1113 2906 1747 
Q 2906 2381 2643 2742 
Q 2381 3103 1925 3103 
Q 1469 3103 1208 2742 
Q 947 2381 947 1747 
z
" transform="scale(0.015625)"/>
       <path id="DejaVuSans-69" d="M 603 3500 
L 1178 3500 
L 1178 0 
L 603 0 
L 603 3500 
z
M 603 4863 
L 1178 4863 
L 1178 4134 
L 603 4134 
L 603 4863 
z
" transform="scale(0.015625)"/>
       <path id="DejaVuSans-6d" d="M 3328 2828 
Q 3544 3216 3844 3400 
Q 4144 3584 4550 3584 
Q 5097 3584 5394 3201 
Q 5691 2819 5691 2113 
L 5691 0 
L 5113 0 
L 5113 2094 
Q 5113 2597 4934 2840 
Q 4756 3084 4391 3084 
Q 3944 3084 3684 2787 
Q 3425 2491 3425 1978 
L 3425 0 
L 2847 0 
L 2847 2094 
Q 2847 2600 2669 2842 
Q 2491 3084 2119 3084 
Q 1678 3084 1418 2786 
Q 1159 2488 1159 1978 
L 1159 0 
L 581 0 
L 581 3500 
L 1159 3500 
L 1159 2956 
Q 1356 3278 1631 3431 
Q 1906 3584 2284 3584 
Q 2666 3584 2933 3390 
Q 3200 3197 3328 2828 
z
" transform="scale(0.015625)"/>
       <path id="DejaVuSans-6e" d="M 3513 2113 
L 3513 0 
L 2938 0 
L 2938 2094 
Q 2938 2591 2744 2837 
Q 2550 3084 2163 3084 
Q 1697 3084 1428 2787 
Q 1159 2491 1159 1978 
L 1159 0 
L 581 0 
L 581 3500 
L 1159 3500 
L 1159 2956 
Q 1366 3272 1645 3428 
Q 1925 3584 2291 3584 
Q 2894 3584 3203 3211 
Q 3513 2838 3513 2113 
z
" transform="scale(0.015625)"/>
       <path id="DejaVuSans-29" d="M 513 4856 
L 1013 4856 
Q 1481 4119 1714 3412 
Q 1947 2706 1947 2009 
Q 1947 1309 1714 600 
Q 1481 -109 1013 -844 
L 513 -844 
Q 928 -128 1133 580 
Q 1338 1288 1338 2009 
Q 1338 2731 1133 3434 
Q 928 4138 513 4856 
z
" transform="scale(0.015625)"/>
      </defs>
      <use xlink:href="#DejaVuSans-6c"/>
      <use xlink:href="#DejaVuSans-6f" x="27.783203"/>
      <use xlink:href="#DejaVuSans-67" x="88.964844"/>
      <use xlink:href="#DejaVuSans-31" x="152.441406"/>
      <use xlink:href="#DejaVuSans-30" x="216.064453"/>
      <use xlink:href="#DejaVuSans-28" x="279.6875"/>
      <use xlink:href="#DejaVuSans-23" x="318.701172"/>
      <use xlink:href="#DejaVuSans-20" x="402.490234"/>
      <use xlink:href="#DejaVuSans-66" x="434.277344"/>
      <use xlink:href="#DejaVuSans-2d" x="463.982422"/>
      <use xlink:href="#DejaVuSans-65" x="500.066406"/>
      <use xlink:href="#DejaVuSans-76" x="561.589844"/>
      <use xlink:href="#DejaVuSans-61" x="620.769531"/>
      <use xlink:href="#DejaVuSans-6c" x="682.048828"/>
      <use xlink:href="#DejaVuSans-73" x="709.832031"/>
      <use xlink:href="#DejaVuSans-20" x="761.931641"/>
      <use xlink:href="#DejaVuSans-2f" x="793.71875"/>
      <use xlink:href="#DejaVuSans-20" x="827.410156"/>
      <use xlink:href="#DejaVuSans-64" x="859.197266"/>
      <use xlink:href="#DejaVuSans-69" x="922.673828"/>
      <use xlink:href="#DejaVuSans-6d" x="950.457031"/>
      <use xlink:href="#DejaVuSans-65" x="1047.869141"/>
      <use xlink:href="#DejaVuSans-6e" x="1109.392578"/>
      <use xlink:href="#DejaVuSans-73" x="1172.771484"/>
      <use xlink:href="#DejaVuSans-69" x="1224.871094"/>
      <use xlink:href="#DejaVuSans-6f" x="1252.654297"/>
      <use xlink:href="#DejaVuSans-6e" x="1313.835938"/>
      <use xlink:href="#DejaVuSans-29" x="1377.214844"/>
     </g>
    </g>
   </g>
   <g id="matplotlib.axis_2">
    <g id="ytick_1">
     <g id="line2d_21">
      <path d="M 57.6 298.944 
L 360.8064 298.944 
" clip-path="url(#pe55cfb2321)" style="fill: none; stroke: #b0b0b0; stroke-width: 0.8; stroke-linecap: square"/>
     </g>
     <g id="line2d_22">
      <defs>
       <path id="m281461b724" d="M 0 0 
L -3.5 0 
" style="stroke: #000000; stroke-width: 0.8"/>
      </defs>
      <g>
       <use xlink:href="#m281461b724" x="57.6" y="298.944" style="stroke: #000000; stroke-width: 0.8"/>
      </g>
     </g>
     <g id="text_6">
      <!-- 0.0 -->
      <g transform="translate(25.155 305.02275)scale(0.16 -0.16)">
       <defs>
        <path id="DejaVuSans-2e" d="M 684 794 
L 1344 794 
L 1344 0 
L 684 0 
L 684 794 
z
" transform="scale(0.015625)"/>
       </defs>
       <use xlink:href="#DejaVuSans-30"/>
       <use xlink:href="#DejaVuSans-2e" x="63.623047"/>
       <use xlink:href="#DejaVuSans-30" x="95.410156"/>
      </g>
     </g>
    </g>
    <g id="ytick_2">
     <g id="line2d_23">
      <path d="M 57.6 240.5376 
L 360.8064 240.5376 
" clip-path="url(#pe55cfb2321)" style="fill: none; stroke: #b0b0b0; stroke-width: 0.8; stroke-linecap: square"/>
     </g>
     <g id="line2d_24">
      <g>
       <use xlink:href="#m281461b724" x="57.6" y="240.5376" style="stroke: #000000; stroke-width: 0.8"/>
      </g>
     </g>
     <g id="text_7">
      <!-- 0.2 -->
      <g transform="translate(25.155 246.61635)scale(0.16 -0.16)">
       <use xlink:href="#DejaVuSans-30"/>
       <use xlink:href="#DejaVuSans-2e" x="63.623047"/>
       <use xlink:href="#DejaVuSans-32" x="95.410156"/>
      </g>
     </g>
    </g>
    <g id="ytick_3">
     <g id="line2d_25">
      <path d="M 57.6 182.1312 
L 360.8064 182.1312 
" clip-path="url(#pe55cfb2321)" style="fill: none; stroke: #b0b0b0; stroke-width: 0.8; stroke-linecap: square"/>
     </g>
     <g id="line2d_26">
      <g>
       <use xlink:href="#m281461b724" x="57.6" y="182.1312" style="stroke: #000000; stroke-width: 0.8"/>
      </g>
     </g>
     <g id="text_8">
      <!-- 0.4 -->
      <g transform="translate(25.155 188.20995)scale(0.16 -0.16)">
       <use xlink:href="#DejaVuSans-30"/>
       <use xlink:href="#DejaVuSans-2e" x="63.623047"/>
       <use xlink:href="#DejaVuSans-34" x="95.410156"/>
      </g>
     </g>
    </g>
    <g id="ytick_4">
     <g id="line2d_27">
      <path d="M 57.6 123.7248 
L 360.8064 123.7248 
" clip-path="url(#pe55cfb2321)" style="fill: none; stroke: #b0b0b0; stroke-width: 0.8; stroke-linecap: square"/>
     </g>
     <g id="line2d_28">
      <g>
       <use xlink:href="#m281461b724" x="57.6" y="123.7248" style="stroke: #000000; stroke-width: 0.8"/>
      </g>
     </g>
     <g id="text_9">
      <!-- 0.6 -->
      <g transform="translate(25.155 129.80355)scale(0.16 -0.16)">
       <use xlink:href="#DejaVuSans-30"/>
       <use xlink:href="#DejaVuSans-2e" x="63.623047"/>
       <use xlink:href="#DejaVuSans-36" x="95.410156"/>
      </g>
     </g>
    </g>
    <g id="ytick_5">
     <g id="line2d_29">
      <path d="M 57.6 65.3184 
L 360.8064 65.3184 
" clip-path="url(#pe55cfb2321)" style="fill: none; stroke: #b0b0b0; stroke-width: 0.8; stroke-linecap: square"/>
     </g>
     <g id="line2d_30">
      <g>
       <use xlink:href="#m281461b724" x="57.6" y="65.3184" style="stroke: #000000; stroke-width: 0.8"/>
      </g>
     </g>
     <g id="text_10">
      <!-- 0.8 -->
      <g transform="translate(25.155 71.39715)scale(0.16 -0.16)">
       <defs>
        <path id="DejaVuSans-38" d="M 2034 2216 
Q 1584 2216 1326 1975 
Q 1069 1734 1069 1313 
Q 1069 891 1326 650 
Q 1584 409 2034 409 
Q 2484 409 2743 651 
Q 3003 894 3003 1313 
Q 3003 1734 2745 1975 
Q 2488 2216 2034 2216 
z
M 1403 2484 
Q 997 2584 770 2862 
Q 544 3141 544 3541 
Q 544 4100 942 4425 
Q 1341 4750 2034 4750 
Q 2731 4750 3128 4425 
Q 3525 4100 3525 3541 
Q 3525 3141 3298 2862 
Q 3072 2584 2669 2484 
Q 3125 2378 3379 2068 
Q 3634 1759 3634 1313 
Q 3634 634 3220 271 
Q 2806 -91 2034 -91 
Q 1263 -91 848 271 
Q 434 634 434 1313 
Q 434 1759 690 2068 
Q 947 2378 1403 2484 
z
M 1172 3481 
Q 1172 3119 1398 2916 
Q 1625 2713 2034 2713 
Q 2441 2713 2670 2916 
Q 2900 3119 2900 3481 
Q 2900 3844 2670 4047 
Q 2441 4250 2034 4250 
Q 1625 4250 1398 4047 
Q 1172 3844 1172 3481 
z
" transform="scale(0.015625)"/>
       </defs>
       <use xlink:href="#DejaVuSans-30"/>
       <use xlink:href="#DejaVuSans-2e" x="63.623047"/>
       <use xlink:href="#DejaVuSans-38" x="95.410156"/>
      </g>
     </g>
    </g>
    <g id="ytick_6">
     <g id="line2d_31">
      <path d="M 57.6 6.912 
L 360.8064 6.912 
" clip-path="url(#pe55cfb2321)" style="fill: none; stroke: #b0b0b0; stroke-width: 0.8; stroke-linecap: square"/>
     </g>
     <g id="line2d_32">
      <g>
       <use xlink:href="#m281461b724" x="57.6" y="6.912" style="stroke: #000000; stroke-width: 0.8"/>
      </g>
     </g>
     <g id="text_11">
      <!-- 1.0 -->
      <g transform="translate(25.155 12.99075)scale(0.16 -0.16)">
       <use xlink:href="#DejaVuSans-31"/>
       <use xlink:href="#DejaVuSans-2e" x="63.623047"/>
       <use xlink:href="#DejaVuSans-30" x="95.410156"/>
      </g>
     </g>
    </g>
    <g id="text_12">
     <!-- Fraction of function,target pairs -->
     <g transform="translate(17.619531 287.313)rotate(-90)scale(0.17 -0.17)">
      <defs>
       <path id="DejaVuSans-46" d="M 628 4666 
L 3309 4666 
L 3309 4134 
L 1259 4134 
L 1259 2759 
L 3109 2759 
L 3109 2228 
L 1259 2228 
L 1259 0 
L 628 0 
L 628 4666 
z
" transform="scale(0.015625)"/>
       <path id="DejaVuSans-72" d="M 2631 2963 
Q 2534 3019 2420 3045 
Q 2306 3072 2169 3072 
Q 1681 3072 1420 2755 
Q 1159 2438 1159 1844 
L 1159 0 
L 581 0 
L 581 3500 
L 1159 3500 
L 1159 2956 
Q 1341 3275 1631 3429 
Q 1922 3584 2338 3584 
Q 2397 3584 2469 3576 
Q 2541 3569 2628 3553 
L 2631 2963 
z
" transform="scale(0.015625)"/>
       <path id="DejaVuSans-63" d="M 3122 3366 
L 3122 2828 
Q 2878 2963 2633 3030 
Q 2388 3097 2138 3097 
Q 1578 3097 1268 2742 
Q 959 2388 959 1747 
Q 959 1106 1268 751 
Q 1578 397 2138 397 
Q 2388 397 2633 464 
Q 2878 531 3122 666 
L 3122 134 
Q 2881 22 2623 -34 
Q 2366 -91 2075 -91 
Q 1284 -91 818 406 
Q 353 903 353 1747 
Q 353 2603 823 3093 
Q 1294 3584 2113 3584 
Q 2378 3584 2631 3529 
Q 2884 3475 3122 3366 
z
" transform="scale(0.015625)"/>
       <path id="DejaVuSans-74" d="M 1172 4494 
L 1172 3500 
L 2356 3500 
L 2356 3053 
L 1172 3053 
L 1172 1153 
Q 1172 725 1289 603 
Q 1406 481 1766 481 
L 2356 481 
L 2356 0 
L 1766 0 
Q 1100 0 847 248 
Q 594 497 594 1153 
L 594 3053 
L 172 3053 
L 172 3500 
L 594 3500 
L 594 4494 
L 1172 4494 
z
" transform="scale(0.015625)"/>
       <path id="DejaVuSans-75" d="M 544 1381 
L 544 3500 
L 1119 3500 
L 1119 1403 
Q 1119 906 1312 657 
Q 1506 409 1894 409 
Q 2359 409 2629 706 
Q 2900 1003 2900 1516 
L 2900 3500 
L 3475 3500 
L 3475 0 
L 2900 0 
L 2900 538 
Q 2691 219 2414 64 
Q 2138 -91 1772 -91 
Q 1169 -91 856 284 
Q 544 659 544 1381 
z
M 1991 3584 
L 1991 3584 
z
" transform="scale(0.015625)"/>
       <path id="DejaVuSans-2c" d="M 750 794 
L 1409 794 
L 1409 256 
L 897 -744 
L 494 -744 
L 750 256 
L 750 794 
z
" transform="scale(0.015625)"/>
       <path id="DejaVuSans-70" d="M 1159 525 
L 1159 -1331 
L 581 -1331 
L 581 3500 
L 1159 3500 
L 1159 2969 
Q 1341 3281 1617 3432 
Q 1894 3584 2278 3584 
Q 2916 3584 3314 3078 
Q 3713 2572 3713 1747 
Q 3713 922 3314 415 
Q 2916 -91 2278 -91 
Q 1894 -91 1617 61 
Q 1341 213 1159 525 
z
M 3116 1747 
Q 3116 2381 2855 2742 
Q 2594 3103 2138 3103 
Q 1681 3103 1420 2742 
Q 1159 2381 1159 1747 
Q 1159 1113 1420 752 
Q 1681 391 2138 391 
Q 2594 391 2855 752 
Q 3116 1113 3116 1747 
z
" transform="scale(0.015625)"/>
      </defs>
      <use xlink:href="#DejaVuSans-46"/>
      <use xlink:href="#DejaVuSans-72" x="50.269531"/>
      <use xlink:href="#DejaVuSans-61" x="91.382812"/>
      <use xlink:href="#DejaVuSans-63" x="152.662109"/>
      <use xlink:href="#DejaVuSans-74" x="207.642578"/>
      <use xlink:href="#DejaVuSans-69" x="246.851562"/>
      <use xlink:href="#DejaVuSans-6f" x="274.634766"/>
      <use xlink:href="#DejaVuSans-6e" x="335.816406"/>
      <use xlink:href="#DejaVuSans-20" x="399.195312"/>
      <use xlink:href="#DejaVuSans-6f" x="430.982422"/>
      <use xlink:href="#DejaVuSans-66" x="492.164062"/>
      <use xlink:href="#DejaVuSans-20" x="527.369141"/>
      <use xlink:href="#DejaVuSans-66" x="559.15625"/>
      <use xlink:href="#DejaVuSans-75" x="594.361328"/>
      <use xlink:href="#DejaVuSans-6e" x="657.740234"/>
      <use xlink:href="#DejaVuSans-63" x="721.119141"/>
      <use xlink:href="#DejaVuSans-74" x="776.099609"/>
      <use xlink:href="#DejaVuSans-69" x="815.308594"/>
      <use xlink:href="#DejaVuSans-6f" x="843.091797"/>
      <use xlink:href="#DejaVuSans-6e" x="904.273438"/>
      <use xlink:href="#DejaVuSans-2c" x="967.652344"/>
      <use xlink:href="#DejaVuSans-74" x="999.439453"/>
      <use xlink:href="#DejaVuSans-61" x="1038.648438"/>
      <use xlink:href="#DejaVuSans-72" x="1099.927734"/>
      <use xlink:href="#DejaVuSans-67" x="1139.291016"/>
      <use xlink:href="#DejaVuSans-65" x="1202.767578"/>
      <use xlink:href="#DejaVuSans-74" x="1264.291016"/>
      <use xlink:href="#DejaVuSans-20" x="1303.5"/>
      <use xlink:href="#DejaVuSans-70" x="1335.287109"/>
      <use xlink:href="#DejaVuSans-61" x="1398.763672"/>
      <use xlink:href="#DejaVuSans-69" x="1460.042969"/>
      <use xlink:href="#DejaVuSans-72" x="1487.826172"/>
      <use xlink:href="#DejaVuSans-73" x="1528.939453"/>
     </g>
    </g>
   </g>
   <g id="line2d_33">
    <defs>
     <path id="mb989fd6826" d="M 0 1.5 
C 0.397805 1.5 0.77937 1.341951 1.06066 1.06066 
C 1.341951 0.77937 1.5 0.397805 1.5 0 
C 1.5 -0.397805 1.341951 -0.77937 1.06066 -1.06066 
C 0.77937 -1.341951 0.397805 -1.5 0 -1.5 
C -0.397805 -1.5 -0.77937 -1.341951 -1.06066 -1.06066 
C -1.341951 -0.77937 -1.5 -0.397805 -1.5 0 
C -1.5 0.397805 -1.341951 0.77937 -1.06066 1.06066 
C -0.77937 1.341951 -0.397805 1.5 0 1.5 
z
" style="stroke: #f5deb3"/>
    </defs>
    <g>
     <use xlink:href="#mb989fd6826" x="311.428809" y="42.157241" style="fill: #f5deb3; stroke: #f5deb3"/>
     <use xlink:href="#mb989fd6826" x="311.428809" y="42.157241" style="fill: #f5deb3; stroke: #f5deb3"/>
    </g>
   </g>
   <g id="line2d_34">
    <defs>
     <path id="m7d86277f32" d="M 0 1.5 
C 0.397805 1.5 0.77937 1.341951 1.06066 1.06066 
C 1.341951 0.77937 1.5 0.397805 1.5 0 
C 1.5 -0.397805 1.341951 -0.77937 1.06066 -1.06066 
C 0.77937 -1.341951 0.397805 -1.5 0 -1.5 
C -0.397805 -1.5 -0.77937 -1.341951 -1.06066 -1.06066 
C -1.341951 -0.77937 -1.5 -0.397805 -1.5 0 
C -1.5 0.397805 -1.341951 0.77937 -1.06066 1.06066 
C -0.77937 1.341951 -0.397805 1.5 0 1.5 
z
" style="stroke: #000080"/>
    </defs>
    <g>
     <use xlink:href="#m7d86277f32" x="74.836851" y="277.796855" style="fill: #000080; stroke: #000080"/>
     <use xlink:href="#m7d86277f32" x="74.836851" y="277.796855" style="fill: #000080; stroke: #000080"/>
    </g>
   </g>
   <g id="line2d_35">
    <path d="M 1.245626 298.944 
L 1.245626 287.363421 
L 21.912228 287.363421 
L 21.912228 287.195586 
L 34.951403 287.195586 
L 34.951403 286.859917 
L 37.851216 286.859917 
L 37.851216 286.524248 
L 40.363149 286.524248 
L 40.363149 286.356414 
L 46.353758 286.356414 
L 46.353758 286.188579 
L 50.890391 286.188579 
L 50.890391 286.020745 
L 52.188254 286.020745 
L 52.188254 285.517241 
L 53.402323 285.517241 
L 53.402323 285.181572 
L 55.618005 285.181572 
L 55.618005 285.013738 
L 56.635094 285.013738 
L 56.635094 284.845903 
L 57.6 284.845903 
L 57.6 284.510234 
L 59.392932 284.510234 
L 59.392932 284.3424 
L 60.229139 284.3424 
L 60.229139 284.006731 
L 61.797677 284.006731 
L 61.797677 283.838897 
L 63.929565 283.838897 
L 63.929565 283.671062 
L 64.589687 283.671062 
L 64.589687 283.503228 
L 65.844256 283.503228 
L 65.844256 282.999724 
L 68.127242 282.999724 
L 68.127242 282.83189 
L 69.674268 282.83189 
L 69.674268 282.664055 
L 71.103681 282.664055 
L 71.103681 282.496221 
L 71.556993 282.496221 
L 71.556993 282.160552 
L 71.999638 282.160552 
L 71.999638 281.992717 
L 72.432107 281.992717 
L 72.432107 281.824883 
L 72.854856 281.824883 
L 72.854856 281.657048 
L 73.672879 281.657048 
L 73.672879 281.489214 
L 74.456807 281.489214 
L 74.456807 281.321379 
L 74.836851 281.321379 
L 74.836851 277.796855 
L 360.8064 277.796855 
" style="fill: none; stroke: #000080; stroke-width: 1.5; stroke-linecap: square"/>
   </g>
   <g id="line2d_36">
    <defs>
     <path id="m03f6e72b32" d="M 0 6 
C 1.591219 6 3.117479 5.367802 4.242641 4.242641 
C 5.367802 3.117479 6 1.591219 6 0 
C 6 -1.591219 5.367802 -3.117479 4.242641 -4.242641 
C 3.117479 -5.367802 1.591219 -6 0 -6 
C -1.591219 -6 -3.117479 -5.367802 -4.242641 -4.242641 
C -5.367802 -3.117479 -6 -1.591219 -6 0 
C -6 1.591219 -5.367802 3.117479 -4.242641 4.242641 
C -3.117479 5.367802 -1.591219 6 0 6 
z
" style="stroke: #000080; stroke-width: 1.5"/>
    </defs>
    <g>
     <use xlink:href="#m03f6e72b32" x="74.836851" y="281.321379" style="fill-opacity: 0; stroke: #000080; stroke-width: 1.5"/>
     <use xlink:href="#m03f6e72b32" x="74.836851" y="281.321379" style="fill-opacity: 0; stroke: #000080; stroke-width: 1.5"/>
     <use xlink:href="#m03f6e72b32" x="74.836851" y="277.796855" style="fill-opacity: 0; stroke: #000080; stroke-width: 1.5"/>
     <use xlink:href="#m03f6e72b32" x="74.836851" y="277.796855" style="fill-opacity: 0; stroke: #000080; stroke-width: 1.5"/>
     <use xlink:href="#m03f6e72b32" x="74.836851" y="277.796855" style="fill-opacity: 0; stroke: #000080; stroke-width: 1.5"/>
     <use xlink:href="#m03f6e72b32" x="360.8064" y="277.796855" style="fill-opacity: 0; stroke: #000080; stroke-width: 1.5"/>
    </g>
   </g>
   <g id="line2d_37">
    <path style="fill: none; stroke: #000080; stroke-width: 1.5; stroke-linecap: square"/>
    <g/>
   </g>
   <g id="line2d_38">
    <path d="M 74.836851 277.796855 
" clip-path="url(#pe55cfb2321)" style="fill: none; stroke: #000080; stroke-width: 1.5; stroke-linecap: square"/>
    <defs>
     <path id="m8799b3cf15" d="M -12 12 
L 12 -12 
M -12 -12 
L 12 12 
" style="stroke: #000080"/>
    </defs>
    <g clip-path="url(#pe55cfb2321)">
     <use xlink:href="#m8799b3cf15" x="74.836851" y="277.796855" style="fill: #000080; stroke: #000080"/>
    </g>
   </g>
   <g id="line2d_39">
    <defs>
     <path id="m828a9c0891" d="M 0 1.5 
C 0.397805 1.5 0.77937 1.341951 1.06066 1.06066 
C 1.341951 0.77937 1.5 0.397805 1.5 0 
C 1.5 -0.397805 1.341951 -0.77937 1.06066 -1.06066 
C 0.77937 -1.341951 0.397805 -1.5 0 -1.5 
C -0.397805 -1.5 -0.77937 -1.341951 -1.06066 -1.06066 
C -1.341951 -0.77937 -1.5 -0.397805 -1.5 0 
C -1.5 0.397805 -1.341951 0.77937 -1.06066 1.06066 
C -0.77937 1.341951 -0.397805 1.5 0 1.5 
z
" style="stroke: #ff00ff"/>
    </defs>
    <g>
     <use xlink:href="#m828a9c0891" x="273.636342" y="149.739145" style="fill: #ff00ff; stroke: #ff00ff"/>
     <use xlink:href="#m828a9c0891" x="273.636342" y="149.739145" style="fill: #ff00ff; stroke: #ff00ff"/>
    </g>
   </g>
   <g id="line2d_40">
    <path d="M 1.245626 298.944 
L 1.245626 287.363421 
L 31.521651 287.363421 
L 31.521651 287.195586 
L 61.797677 287.195586 
L 61.797677 287.027752 
L 67.020361 287.027752 
L 67.020361 286.859917 
L 81.696354 286.859917 
L 81.696354 286.692083 
L 83.202082 286.692083 
L 83.202082 286.524248 
L 85.894031 286.524248 
L 85.894031 286.356414 
L 95.503454 286.356414 
L 95.503454 286.188579 
L 96.120281 286.188579 
L 96.120281 286.020745 
L 98.295464 286.020745 
L 98.295464 285.85291 
L 99.751228 285.85291 
L 99.751228 285.685076 
L 101.471247 285.685076 
L 101.471247 285.517241 
L 102.011329 285.517241 
L 102.011329 285.349407 
L 102.878374 285.349407 
L 102.878374 285.181572 
L 103.707211 285.181572 
L 103.707211 285.013738 
L 105.037479 285.013738 
L 105.037479 284.845903 
L 106.066493 284.845903 
L 106.066493 284.678069 
L 108.162584 284.678069 
L 108.162584 284.510234 
L 109.280431 284.510234 
L 109.280431 284.3424 
L 110.106149 284.3424 
L 110.106149 284.174566 
L 111.226215 284.174566 
L 111.226215 284.006731 
L 112.740305 284.006731 
L 112.740305 283.838897 
L 113.137397 283.838897 
L 113.137397 283.671062 
L 114.737343 283.671062 
L 114.737343 283.503228 
L 116.624364 283.503228 
L 116.624364 283.335393 
L 118.450653 283.335393 
L 118.450653 283.167559 
L 127.017049 283.167559 
L 127.087372 282.83189 
L 127.29678 282.83189 
L 127.29678 282.664055 
L 127.640693 282.664055 
L 127.640693 282.496221 
L 127.821575 282.496221 
L 127.821575 282.328386 
L 129.846275 282.328386 
L 129.846275 282.160552 
L 130.521023 282.160552 
L 130.521023 281.992717 
L 131.247576 281.992717 
L 131.247576 281.824883 
L 132.019251 281.824883 
L 132.019251 281.657048 
L 132.144842 281.657048 
L 132.144842 281.489214 
L 132.760515 281.489214 
L 132.760515 281.321379 
L 133.490329 281.321379 
L 133.490329 281.153545 
L 133.820365 281.153545 
L 133.820365 280.98571 
L 133.967012 280.98571 
L 133.967012 280.817876 
L 134.272898 280.817876 
L 134.272898 280.650041 
L 134.885604 280.650041 
L 134.931919 280.314372 
L 135.070183 280.314372 
L 135.070183 280.146538 
L 135.222628 280.146538 
L 135.222628 279.978703 
L 135.449003 279.978703 
L 135.449003 279.810869 
L 135.628162 279.810869 
L 135.628162 279.643034 
L 135.74666 279.643034 
L 135.74666 279.4752 
L 135.952253 279.4752 
L 135.952253 279.307366 
L 136.141169 279.307366 
L 136.155623 278.971697 
L 136.413909 278.971697 
L 136.413909 278.803862 
L 136.626472 278.803862 
L 136.668697 278.468193 
L 136.738864 278.468193 
L 136.738864 278.300359 
L 137.614614 278.300359 
L 137.614614 278.132524 
L 137.919637 278.132524 
L 137.919637 277.96469 
L 138.476961 277.96469 
L 138.489728 277.629021 
L 138.793555 277.629021 
L 138.793555 277.461186 
L 138.918715 277.461186 
L 138.918715 277.293352 
L 139.435481 277.293352 
L 139.459738 276.789848 
L 139.652679 276.789848 
L 139.700607 276.454179 
L 140.044477 276.454179 
L 140.103135 275.950676 
L 140.16161 275.950676 
L 140.16161 275.782841 
L 140.73658 275.782841 
L 140.73658 275.615007 
L 140.871997 275.615007 
L 140.894472 275.279338 
L 141.106655 275.279338 
L 141.106655 274.943669 
L 141.48048 274.943669 
L 141.55653 274.608 
L 141.910969 274.608 
L 141.910969 274.272331 
L 142.080444 274.272331 
L 142.175106 273.936662 
L 142.47693 273.936662 
L 142.518184 273.600993 
L 142.844994 273.600993 
L 142.844994 273.433159 
L 143.096422 273.433159 
L 143.136341 273.09749 
L 143.225848 273.09749 
L 143.225848 272.929655 
L 143.47227 272.929655 
L 143.491845 272.426152 
L 143.754133 272.426152 
L 143.754133 272.258317 
L 143.926981 272.258317 
L 143.984246 271.922648 
L 144.098256 271.922648 
L 144.192739 271.586979 
L 144.211579 271.586979 
L 144.27737 271.25131 
L 144.445498 271.25131 
L 144.445498 270.915641 
L 144.612137 270.915641 
L 144.612137 270.747807 
L 144.88663 270.747807 
L 144.977244 270.412138 
L 145.219746 270.412138 
L 145.308773 269.7408 
L 145.459161 269.7408 
L 145.459161 269.572966 
L 145.79969 269.572966 
L 145.79969 269.405131 
L 146.074567 269.405131 
L 146.074567 269.237297 
L 146.261241 269.237297 
L 146.362288 268.733793 
L 146.571076 268.733793 
L 146.604268 268.398124 
L 146.785784 268.398124 
L 146.87589 268.062455 
L 147.030517 268.062455 
L 147.062909 267.726786 
L 147.351953 267.726786 
L 147.391749 266.719779 
L 147.644469 266.719779 
L 147.667988 266.38411 
L 147.785146 266.38411 
L 147.785146 266.216276 
L 147.924778 266.216276 
L 147.932506 265.880607 
L 148.170484 265.880607 
L 148.170484 265.712772 
L 148.284563 265.712772 
L 148.322436 265.377103 
L 148.413021 265.377103 
L 148.413021 265.041434 
L 148.704447 265.041434 
L 148.704447 264.705766 
L 148.874221 264.705766 
L 148.903591 264.370097 
L 149.100649 264.370097 
L 149.100649 264.202262 
L 149.388844 264.202262 
L 149.388844 264.034428 
L 149.510002 264.034428 
L 149.587985 263.698759 
L 149.728949 263.698759 
L 149.728949 263.530924 
L 149.868865 263.530924 
L 149.959255 263.195255 
L 150.042308 263.195255 
L 150.042308 263.027421 
L 150.234685 263.027421 
L 150.248351 262.188248 
L 150.438643 262.188248 
L 150.512877 261.852579 
L 150.553245 261.852579 
L 150.640414 261.013407 
L 150.680509 261.013407 
L 150.787015 260.677738 
L 150.853277 260.677738 
L 150.906118 260.0064 
L 151.031025 260.0064 
L 151.031025 259.838566 
L 151.252493 259.838566 
L 151.252493 259.670731 
L 151.432941 259.670731 
L 151.509749 258.999393 
L 151.624376 258.999393 
L 151.725684 258.328055 
L 151.864098 258.328055 
L 151.920429 257.656717 
L 152.032588 257.656717 
L 152.063625 257.321048 
L 152.187264 257.321048 
L 152.187264 257.153214 
L 152.371212 257.153214 
L 152.438211 256.314041 
L 152.637789 256.314041 
L 152.697851 255.642703 
L 152.847174 255.642703 
L 152.847174 255.474869 
L 153.036593 255.474869 
L 153.077776 254.971366 
L 153.194945 254.971366 
L 153.206622 254.467862 
L 153.334593 254.467862 
L 153.432886 253.796524 
L 153.553602 253.796524 
L 153.627945 253.460855 
L 153.696309 253.460855 
L 153.696309 253.293021 
L 153.82665 253.293021 
L 153.832297 252.789517 
L 153.972913 252.789517 
L 153.972913 252.621683 
L 154.16248 252.621683 
L 154.16248 252.453848 
L 154.328173 252.453848 
L 154.328173 252.286014 
L 154.530538 252.286014 
L 154.530538 252.118179 
L 154.811312 252.118179 
L 154.886195 251.446841 
L 154.987347 251.446841 
L 155.003269 251.111172 
L 155.433326 251.111172 
L 155.448875 250.607669 
L 155.552207 250.607669 
L 155.562509 250.104166 
L 155.701037 250.104166 
L 155.792826 248.929324 
L 155.843627 248.929324 
L 155.914518 247.754483 
L 156.045469 247.754483 
L 156.145584 246.91531 
L 156.245169 246.91531 
L 156.329404 246.579641 
L 156.457508 246.579641 
L 156.501649 246.243972 
L 156.613987 246.243972 
L 156.623723 245.908303 
L 156.79813 245.908303 
L 156.899125 244.565628 
L 156.985263 244.565628 
L 156.985263 244.397793 
L 157.236625 244.397793 
L 157.260166 243.89429 
L 157.498616 243.89429 
L 157.498616 243.726455 
L 157.76159 243.726455 
L 157.843876 243.222952 
L 157.87578 243.222952 
L 157.957569 242.04811 
L 158.007377 242.04811 
L 158.115593 241.544607 
L 158.156014 241.544607 
L 158.21872 241.208938 
L 158.272301 241.208938 
L 158.272301 240.873269 
L 158.392304 240.873269 
L 158.414443 240.5376 
L 158.537943 240.5376 
L 158.551127 240.201931 
L 158.712976 240.201931 
L 158.712976 239.866262 
L 158.933807 239.866262 
L 158.938111 239.362759 
L 159.071056 239.362759 
L 159.126528 238.859255 
L 159.211552 238.859255 
L 159.266613 238.355752 
L 159.510322 238.355752 
L 159.61025 236.677407 
L 159.626854 236.677407 
L 159.626854 236.341738 
L 159.91915 236.341738 
L 159.91915 236.173903 
L 160.033184 236.173903 
L 160.065639 235.502566 
L 160.327278 235.502566 
L 160.327278 235.166897 
L 160.438872 235.166897 
L 160.514222 233.992055 
L 160.565603 233.992055 
L 160.648309 232.985048 
L 160.683643 232.985048 
L 160.695406 232.481545 
L 160.835996 232.481545 
L 160.940753 231.978041 
L 160.979404 231.978041 
L 161.079527 230.971034 
L 161.094883 230.971034 
L 161.094883 230.8032 
L 161.285788 230.8032 
L 161.380518 230.299697 
L 161.56856 230.299697 
L 161.676769 229.628359 
L 161.687928 229.628359 
L 161.754741 228.621352 
L 161.91707 228.621352 
L 161.957434 228.285683 
L 162.255632 228.285683 
L 162.334839 227.782179 
L 162.463734 227.782179 
L 162.463734 227.614345 
L 162.59884 227.614345 
L 162.59884 227.278676 
L 162.750561 227.278676 
L 162.827715 226.103834 
L 162.897582 226.103834 
L 162.904554 225.600331 
L 163.012297 225.600331 
L 163.012297 225.432497 
L 163.160733 225.432497 
L 163.270442 224.928993 
L 163.40329 224.928993 
L 163.511597 224.42549 
L 163.585698 224.42549 
L 163.682933 223.418483 
L 163.836144 223.418483 
L 163.932096 222.411476 
L 163.96507 222.411476 
L 164.037409 222.075807 
L 164.1454 222.075807 
L 164.236544 221.236634 
L 164.356312 221.236634 
L 164.356312 221.0688 
L 164.650849 221.0688 
L 164.650849 220.900966 
L 164.796406 220.900966 
L 164.849915 220.229628 
L 164.9471 220.229628 
L 165.031338 219.390455 
L 165.077974 219.390455 
L 165.124495 218.551283 
L 165.189432 218.551283 
L 165.257222 217.879945 
L 165.303302 217.879945 
L 165.413437 217.376441 
L 165.425634 217.376441 
L 165.507761 217.040772 
L 165.796897 217.040772 
L 165.889323 216.369434 
L 165.996089 216.369434 
L 166.081656 215.698097 
L 166.204896 215.698097 
L 166.295343 214.69109 
L 166.641418 214.69109 
L 166.641418 214.523255 
L 166.761056 214.523255 
L 166.863001 213.851917 
L 166.877116 213.851917 
L 166.877116 213.516248 
L 167.023292 213.516248 
L 167.090376 213.012745 
L 167.182228 213.012745 
L 167.182228 212.677076 
L 167.381089 212.677076 
L 167.479737 211.670069 
L 167.59146 211.670069 
L 167.683607 210.998731 
L 167.775305 210.998731 
L 167.783375 210.327393 
L 167.94671 210.327393 
L 168.055701 208.816883 
L 168.15352 208.816883 
L 168.250832 207.97771 
L 168.371118 207.97771 
L 168.454343 206.970703 
L 168.555279 206.970703 
L 168.653109 205.795862 
L 168.706955 205.795862 
L 168.742767 205.460193 
L 168.824368 205.460193 
L 168.923343 204.788855 
L 169.034386 204.788855 
L 169.139773 203.781848 
L 169.15228 203.781848 
L 169.15228 203.446179 
L 169.264469 203.446179 
L 169.304197 203.11051 
L 169.67263 203.11051 
L 169.721213 202.439172 
L 169.820419 202.439172 
L 169.923905 201.264331 
L 169.990987 201.264331 
L 170.088784 200.928662 
L 170.148167 200.928662 
L 170.148167 200.760828 
L 170.463308 200.760828 
L 170.463308 200.425159 
L 170.75719 200.425159 
L 170.835094 199.753821 
L 170.873925 199.753821 
L 170.873925 199.585986 
L 170.992209 199.585986 
L 171.093973 198.411145 
L 171.253422 198.411145 
L 171.331529 197.739807 
L 171.473521 197.739807 
L 171.574919 197.068469 
L 171.612255 197.068469 
L 171.688889 196.7328 
L 171.891014 196.7328 
L 171.992343 195.725793 
L 172.069589 195.725793 
L 172.169963 195.22229 
L 172.254968 195.22229 
L 172.267686 194.718786 
L 172.755021 194.718786 
L 172.785966 194.047448 
L 172.950152 194.047448 
L 172.950152 193.711779 
L 173.092649 193.711779 
L 173.173594 193.040441 
L 173.2381 193.040441 
L 173.346455 192.033434 
L 173.736541 192.033434 
L 173.816719 191.362097 
L 174.045587 191.362097 
L 174.045587 191.194262 
L 174.180052 191.194262 
L 174.180052 191.026428 
L 174.340151 191.026428 
L 174.340151 190.690759 
L 174.481955 190.690759 
L 174.590888 190.187255 
L 174.65072 190.187255 
L 174.65072 190.019421 
L 174.773525 190.019421 
L 174.773525 189.851586 
L 175.242419 189.851586 
L 175.242419 189.683752 
L 175.590127 189.683752 
L 175.699909 188.676745 
L 175.810809 188.676745 
L 175.865139 188.173241 
L 176.020255 188.173241 
L 176.087826 187.501903 
L 176.364231 187.501903 
L 176.432278 187.166234 
L 176.596277 187.166234 
L 176.636634 186.494897 
L 177.109374 186.494897 
L 177.109374 186.159228 
L 177.269223 186.159228 
L 177.269223 185.823559 
L 177.488828 185.823559 
L 177.488828 185.655724 
L 177.61682 185.655724 
L 177.632758 185.152221 
L 178.669457 185.152221 
L 178.696576 184.816552 
L 179.014551 184.816552 
L 179.116414 184.145214 
L 179.157594 184.145214 
L 179.157594 183.809545 
L 179.322871 183.809545 
L 179.370866 183.306041 
L 179.743355 183.306041 
L 179.743355 182.970372 
L 180.555772 182.970372 
L 180.555772 182.802538 
L 181.102826 182.802538 
L 181.102826 182.466869 
L 181.470148 182.466869 
L 181.470148 182.299034 
L 181.593163 182.299034 
L 181.593163 182.1312 
L 181.943524 182.1312 
L 181.943524 181.963366 
L 182.772514 181.963366 
L 182.772514 181.627697 
L 182.929449 181.627697 
L 182.929449 181.459862 
L 183.501316 181.459862 
L 183.501316 181.292028 
L 184.206302 181.292028 
L 184.206302 180.956359 
L 185.640783 180.956359 
L 185.640783 180.788524 
L 186.064781 180.788524 
L 186.075972 180.452855 
L 186.614326 180.452855 
L 186.614326 180.285021 
L 187.107881 180.285021 
L 187.107881 179.949352 
L 187.484363 179.949352 
L 187.484363 179.781517 
L 188.281594 179.781517 
L 188.281594 179.613683 
L 189.24166 179.613683 
L 189.24166 179.445848 
L 191.397752 179.445848 
L 191.397752 179.278014 
L 192.141597 179.278014 
L 192.141597 178.942345 
L 194.041714 178.942345 
L 194.142662 178.606676 
L 196.131412 178.606676 
L 196.131412 178.438841 
L 197.176832 178.438841 
L 197.176832 178.271007 
L 198.131871 178.271007 
L 198.131871 177.935338 
L 198.451155 177.935338 
L 198.451155 177.767503 
L 198.620016 177.767503 
L 198.663818 177.264 
L 199.19228 177.264 
L 199.19228 176.928331 
L 199.384745 176.928331 
L 199.384745 176.592662 
L 199.904335 176.592662 
L 199.904335 176.424828 
L 200.659402 176.424828 
L 200.659402 176.256993 
L 201.39434 176.256993 
L 201.501249 175.585655 
L 201.683565 175.585655 
L 201.683565 175.417821 
L 202.578006 175.417821 
L 202.578006 175.082152 
L 202.844299 175.082152 
L 202.914235 174.410814 
L 203.846037 174.410814 
L 203.870143 173.90731 
L 204.023538 173.90731 
L 204.05915 173.571641 
L 205.699195 173.571641 
L 205.699195 173.403807 
L 205.8729 173.403807 
L 205.8729 173.235972 
L 206.245529 173.235972 
L 206.245529 172.900303 
L 206.564778 172.900303 
L 206.564778 172.564634 
L 206.988097 172.564634 
L 206.988097 172.228966 
L 207.542975 172.228966 
L 207.542975 171.893297 
L 207.856137 171.893297 
L 207.856137 171.725462 
L 209.434207 171.725462 
L 209.490533 171.389793 
L 209.824132 171.389793 
L 209.907404 170.718455 
L 209.988026 170.718455 
L 210.044996 170.382786 
L 210.458515 170.382786 
L 210.554263 170.047117 
L 210.884096 170.047117 
L 210.926482 169.543614 
L 211.863509 169.543614 
L 211.863509 169.375779 
L 212.146183 169.375779 
L 212.146183 169.207945 
L 213.034958 169.207945 
L 213.04078 168.872276 
L 213.319335 168.872276 
L 213.319335 168.536607 
L 213.72596 168.536607 
L 213.72596 168.368772 
L 214.53796 168.368772 
L 214.53796 168.033103 
L 214.866142 168.033103 
L 214.866142 167.865269 
L 215.437605 167.865269 
L 215.437605 167.697434 
L 215.730627 167.697434 
L 215.730627 167.5296 
L 215.897648 167.5296 
L 215.897648 167.361766 
L 216.357488 167.361766 
L 216.357488 167.193931 
L 216.855135 167.193931 
L 216.869784 166.690428 
L 217.422568 166.690428 
L 217.493529 166.354759 
L 217.582522 166.354759 
L 217.652314 165.851255 
L 217.820309 165.851255 
L 217.820309 165.683421 
L 218.189901 165.683421 
L 218.189901 165.515586 
L 218.916867 165.515586 
L 218.916867 165.347752 
L 219.09562 165.347752 
L 219.09562 165.179917 
L 219.539333 165.179917 
L 219.539333 165.012083 
L 219.785477 165.012083 
L 219.870189 164.676414 
L 220.716978 164.676414 
L 220.78379 164.005076 
L 221.250593 164.005076 
L 221.250593 163.837241 
L 221.420545 163.837241 
L 221.420545 163.501572 
L 221.85743 163.501572 
L 221.872603 163.165903 
L 222.530733 163.165903 
L 222.530733 162.998069 
L 223.417945 162.998069 
L 223.417945 162.830234 
L 223.986814 162.830234 
L 223.986814 162.6624 
L 224.660084 162.6624 
L 224.660084 162.326731 
L 226.766888 162.326731 
L 226.766888 162.158897 
L 226.885659 162.158897 
L 226.885659 161.823228 
L 227.935668 161.823228 
L 227.935668 161.655393 
L 228.217048 161.655393 
L 228.220512 161.15189 
L 230.461935 161.15189 
L 230.473556 160.648386 
L 231.838005 160.648386 
L 231.838005 160.480552 
L 232.01496 160.480552 
L 232.01496 160.144883 
L 232.479779 160.144883 
L 232.521416 159.641379 
L 232.740237 159.641379 
L 232.740237 159.473545 
L 233.265153 159.473545 
L 233.308393 159.137876 
L 233.734609 159.137876 
L 233.74978 158.802207 
L 234.602573 158.802207 
L 234.602573 158.634372 
L 234.875342 158.634372 
L 234.875342 158.466538 
L 235.748539 158.466538 
L 235.748539 158.298703 
L 236.137987 158.298703 
L 236.151837 157.627366 
L 237.359711 157.627366 
L 237.405928 157.291697 
L 238.575936 157.291697 
L 238.677085 156.788193 
L 239.899546 156.788193 
L 239.899546 156.452524 
L 241.572881 156.452524 
L 241.572881 156.28469 
L 244.294104 156.28469 
L 244.294104 156.116855 
L 245.010428 156.116855 
L 245.010428 155.949021 
L 246.13805 155.949021 
L 246.13805 155.781186 
L 247.570263 155.781186 
L 247.570263 155.445517 
L 249.148435 155.445517 
L 249.148435 155.277683 
L 250.688048 155.277683 
L 250.688048 155.109848 
L 252.724446 155.109848 
L 252.780613 154.774179 
L 254.776429 154.774179 
L 254.884091 154.43851 
L 255.066621 154.43851 
L 255.066621 154.270676 
L 255.30168 154.270676 
L 255.30168 154.102841 
L 256.088448 154.102841 
L 256.088448 153.767172 
L 256.500034 153.767172 
L 256.500034 153.599338 
L 259.327955 153.599338 
L 259.327955 153.263669 
L 261.571062 153.263669 
L 261.571062 153.095834 
L 262.150197 153.095834 
L 262.150197 152.928 
L 263.193098 152.928 
L 263.193098 152.760166 
L 263.460252 152.760166 
L 263.460252 152.424497 
L 264.38 152.424497 
L 264.38 152.256662 
L 265.700498 152.256662 
L 265.700498 152.088828 
L 268.482947 152.088828 
L 268.482947 151.753159 
L 268.661551 151.753159 
L 268.661551 151.41749 
L 268.949212 151.41749 
L 268.949212 151.249655 
L 269.700338 151.249655 
L 269.700338 150.913986 
L 270.894227 150.913986 
L 270.894227 150.746152 
L 271.520499 150.746152 
L 271.570875 150.410483 
L 272.427465 150.410483 
L 272.427465 150.242648 
L 273.236363 150.242648 
L 273.236363 149.906979 
L 273.636342 149.906979 
L 273.636342 149.739145 
L 360.8064 149.739145 
L 360.8064 149.739145 
" style="fill: none; stroke: #ff00ff; stroke-width: 1.5; stroke-linecap: square"/>
   </g>
   <g id="line2d_41">
    <defs>
     <path id="mfb6a17874d" d="M 0 8.485281 
L 5.091169 0 
L 0 -8.485281 
L -5.091169 0 
z
" style="stroke: #ff00ff; stroke-width: 1.5; stroke-linejoin: miter"/>
    </defs>
    <g>
     <use xlink:href="#mfb6a17874d" x="81.696354" y="286.692083" style="fill-opacity: 0; stroke: #ff00ff; stroke-width: 1.5; stroke-linejoin: miter"/>
     <use xlink:href="#mfb6a17874d" x="155.562509" y="250.104166" style="fill-opacity: 0; stroke: #ff00ff; stroke-width: 1.5; stroke-linejoin: miter"/>
     <use xlink:href="#mfb6a17874d" x="230.473556" y="160.648386" style="fill-opacity: 0; stroke: #ff00ff; stroke-width: 1.5; stroke-linejoin: miter"/>
     <use xlink:href="#mfb6a17874d" x="273.636342" y="149.906979" style="fill-opacity: 0; stroke: #ff00ff; stroke-width: 1.5; stroke-linejoin: miter"/>
     <use xlink:href="#mfb6a17874d" x="273.636342" y="149.739145" style="fill-opacity: 0; stroke: #ff00ff; stroke-width: 1.5; stroke-linejoin: miter"/>
     <use xlink:href="#mfb6a17874d" x="360.8064" y="149.739145" style="fill-opacity: 0; stroke: #ff00ff; stroke-width: 1.5; stroke-linejoin: miter"/>
    </g>
   </g>
   <g id="line2d_42">
    <path style="fill: none; stroke: #ff00ff; stroke-width: 1.5; stroke-linecap: square"/>
    <g/>
   </g>
   <g id="line2d_43">
    <path d="M 274.176009 149.739145 
" clip-path="url(#pe55cfb2321)" style="fill: none; stroke: #ff00ff; stroke-width: 1.5; stroke-linecap: square"/>
    <defs>
     <path id="m14ee3d7779" d="M -12 12 
L 12 -12 
M -12 -12 
L 12 12 
" style="stroke: #ff00ff"/>
    </defs>
    <g clip-path="url(#pe55cfb2321)">
     <use xlink:href="#m14ee3d7779" x="274.176009" y="149.739145" style="fill: #ff00ff; stroke: #ff00ff"/>
    </g>
   </g>
   <g id="line2d_44">
    <defs>
     <path id="m2eb3bab175" d="M 0 1.5 
C 0.397805 1.5 0.77937 1.341951 1.06066 1.06066 
C 1.341951 0.77937 1.5 0.397805 1.5 0 
C 1.5 -0.397805 1.341951 -0.77937 1.06066 -1.06066 
C 0.77937 -1.341951 0.397805 -1.5 0 -1.5 
C -0.397805 -1.5 -0.77937 -1.341951 -1.06066 -1.06066 
C -1.341951 -0.77937 -1.5 -0.397805 -1.5 0 
C -1.5 0.397805 -1.341951 0.77937 -1.06066 1.06066 
C -0.77937 1.341951 -0.397805 1.5 0 1.5 
z
" style="stroke: #6495ed"/>
    </defs>
    <g>
     <use xlink:href="#m2eb3bab175" x="113.622258" y="255.307034" style="fill: #6495ed; stroke: #6495ed"/>
     <use xlink:href="#m2eb3bab175" x="113.622258" y="255.307034" style="fill: #6495ed; stroke: #6495ed"/>
    </g>
   </g>
   <g id="line2d_45">
    <path d="M 1.245626 298.944 
L 1.245626 298.272662 
L 14.2848 298.272662 
L 14.2848 298.104828 
L 21.912228 298.104828 
L 21.912228 297.936993 
L 31.521651 297.936993 
L 31.521651 297.769159 
L 34.951403 297.769159 
L 34.951403 297.43349 
L 40.363149 297.43349 
L 40.363149 297.265655 
L 42.578831 297.265655 
L 42.578831 297.097821 
L 44.560826 297.097821 
L 44.560826 296.929986 
L 53.402323 296.929986 
L 53.402323 296.762152 
L 56.635094 296.762152 
L 56.635094 296.594317 
L 58.517819 296.594317 
L 58.517819 296.426483 
L 68.127242 296.426483 
L 68.127242 296.258648 
L 74.068926 296.258648 
L 74.068926 296.090814 
L 75.574654 296.090814 
L 75.574654 295.922979 
L 76.96874 295.922979 
L 76.96874 295.755145 
L 82.713442 295.755145 
L 82.713442 295.58731 
L 83.202082 295.58731 
L 83.202082 295.419476 
L 87.303041 295.419476 
L 87.303041 295.083807 
L 88.063207 295.083807 
L 88.063207 294.748138 
L 88.432072 294.748138 
L 88.432072 294.580303 
L 91.770283 294.580303 
L 91.770283 294.412469 
L 92.519847 294.412469 
L 92.519847 294.244634 
L 94.472426 294.244634 
L 94.472426 294.0768 
L 94.604437 294.0768 
L 94.604437 293.908966 
L 95.503454 293.908966 
L 95.503454 293.741131 
L 96.120281 293.741131 
L 96.120281 293.573297 
L 99.550033 293.573297 
L 99.550033 293.405462 
L 100.820906 293.405462 
L 100.820906 293.237628 
L 103.462371 293.237628 
L 103.544339 291.894952 
L 103.625951 291.894952 
L 103.707211 291.391448 
L 103.788121 291.391448 
L 103.868684 290.552276 
L 103.948904 290.552276 
L 104.028784 289.713103 
L 104.108325 289.713103 
L 104.187532 288.706097 
L 104.266406 288.706097 
L 104.344952 286.692083 
L 104.42317 286.692083 
L 104.501065 285.349407 
L 104.578638 285.349407 
L 104.655893 284.845903 
L 104.732832 284.845903 
L 104.809458 284.174566 
L 104.885773 284.174566 
L 104.961779 282.664055 
L 105.037479 282.664055 
L 105.112877 280.98571 
L 105.187973 280.98571 
L 105.26277 279.978703 
L 105.485395 279.978703 
L 105.559021 279.307366 
L 105.632361 279.307366 
L 105.705415 278.132524 
L 105.778187 278.132524 
L 105.850679 277.293352 
L 105.922892 277.293352 
L 105.99483 276.789848 
L 106.066493 276.789848 
L 106.066493 276.11851 
L 106.209005 276.11851 
L 106.279859 275.279338 
L 106.350446 275.279338 
L 106.42077 274.775834 
L 106.490831 274.775834 
L 106.560633 273.768828 
L 106.630177 273.768828 
L 106.630177 273.600993 
L 106.905809 273.600993 
L 106.905809 273.265324 
L 107.042125 273.265324 
L 107.109915 272.426152 
L 107.177461 272.426152 
L 107.244765 271.754814 
L 107.31183 271.754814 
L 107.378656 270.579972 
L 107.5116 270.579972 
L 107.5116 270.076469 
L 107.709271 270.076469 
L 107.774703 269.405131 
L 107.839908 269.405131 
L 107.904887 268.565959 
L 108.034177 268.565959 
L 108.09849 268.062455 
L 108.162584 268.062455 
L 108.22646 267.558952 
L 108.353566 267.558952 
L 108.353566 267.223283 
L 108.479818 267.223283 
L 108.542628 266.048441 
L 108.605229 266.048441 
L 108.667622 265.712772 
L 108.729809 265.712772 
L 108.791791 265.209269 
L 108.85357 265.209269 
L 108.85357 265.041434 
L 108.976522 265.041434 
L 109.037698 264.537931 
L 109.098675 264.537931 
L 109.159456 263.866593 
L 109.400633 263.866593 
L 109.400633 262.691752 
L 109.579508 262.691752 
L 109.638757 261.349076 
L 109.69782 261.349076 
L 109.756698 261.013407 
L 110.163764 261.013407 
L 110.163764 260.845572 
L 110.335561 260.845572 
L 110.335561 260.509903 
L 110.505802 260.509903 
L 110.562208 259.838566 
L 110.73042 259.838566 
L 110.786158 259.167228 
L 110.841731 259.167228 
L 110.841731 258.831559 
L 111.062397 258.831559 
L 111.117162 258.328055 
L 111.226215 258.328055 
L 111.280505 257.992386 
L 112.024561 257.992386 
L 112.024561 257.824552 
L 112.231853 257.824552 
L 112.231853 257.488883 
L 112.639708 257.488883 
L 112.740305 256.314041 
L 112.790402 256.314041 
L 112.890198 255.978372 
L 113.088217 255.978372 
L 113.088217 255.810538 
L 113.381389 255.810538 
L 113.478107 255.474869 
L 113.622258 255.474869 
L 113.622258 255.307034 
L 360.8064 255.307034 
L 360.8064 255.307034 
" style="fill: none; stroke: #6495ed; stroke-width: 1.5; stroke-linecap: square"/>
   </g>
   <g id="line2d_46">
    <defs>
     <path id="mcb89d1bfbb" d="M -0 6 
L 6 -6 
L -6 -6 
z
" style="stroke: #6495ed; stroke-width: 1.5; stroke-linejoin: miter"/>
    </defs>
    <g>
     <use xlink:href="#mcb89d1bfbb" x="76.96874" y="295.755145" style="fill-opacity: 0; stroke: #6495ed; stroke-width: 1.5; stroke-linejoin: miter"/>
     <use xlink:href="#mcb89d1bfbb" x="113.622258" y="255.474869" style="fill-opacity: 0; stroke: #6495ed; stroke-width: 1.5; stroke-linejoin: miter"/>
     <use xlink:href="#mcb89d1bfbb" x="113.622258" y="255.307034" style="fill-opacity: 0; stroke: #6495ed; stroke-width: 1.5; stroke-linejoin: miter"/>
     <use xlink:href="#mcb89d1bfbb" x="113.622258" y="255.307034" style="fill-opacity: 0; stroke: #6495ed; stroke-width: 1.5; stroke-linejoin: miter"/>
     <use xlink:href="#mcb89d1bfbb" x="113.622258" y="255.307034" style="fill-opacity: 0; stroke: #6495ed; stroke-width: 1.5; stroke-linejoin: miter"/>
     <use xlink:href="#mcb89d1bfbb" x="360.8064" y="255.307034" style="fill-opacity: 0; stroke: #6495ed; stroke-width: 1.5; stroke-linejoin: miter"/>
    </g>
   </g>
   <g id="line2d_47">
    <path style="fill: none; stroke: #6495ed; stroke-width: 1.5; stroke-linecap: square"/>
    <g/>
   </g>
   <g id="line2d_48">
    <path d="M 113.954374 255.307034 
" clip-path="url(#pe55cfb2321)" style="fill: none; stroke: #6495ed; stroke-width: 1.5; stroke-linecap: square"/>
    <defs>
     <path id="m8819422163" d="M -12 12 
L 12 -12 
M -12 -12 
L 12 12 
" style="stroke: #6495ed"/>
    </defs>
    <g clip-path="url(#pe55cfb2321)">
     <use xlink:href="#m8819422163" x="113.954374" y="255.307034" style="fill: #6495ed; stroke: #6495ed"/>
    </g>
   </g>
   <g id="line2d_49">
    <path d="M 360.8064 277.796855 
L 380.514816 293.10336 
" style="fill: none; stroke: #000080; stroke-width: 1.5; stroke-linecap: square"/>
    <g>
     <use xlink:href="#m03f6e72b32" x="360.8064" y="277.796855" style="fill-opacity: 0; stroke: #000080; stroke-width: 1.5"/>
     <use xlink:href="#m03f6e72b32" x="380.514816" y="293.10336" style="fill-opacity: 0; stroke: #000080; stroke-width: 1.5"/>
    </g>
   </g>
   <g id="line2d_50">
    <path d="M 360.8064 255.307034 
L 380.514816 199.65312 
" style="fill: none; stroke: #6495ed; stroke-width: 1.5; stroke-linecap: square"/>
    <g>
     <use xlink:href="#mcb89d1bfbb" x="360.8064" y="255.307034" style="fill-opacity: 0; stroke: #6495ed; stroke-width: 1.5; stroke-linejoin: miter"/>
     <use xlink:href="#mcb89d1bfbb" x="380.514816" y="199.65312" style="fill-opacity: 0; stroke: #6495ed; stroke-width: 1.5; stroke-linejoin: miter"/>
    </g>
   </g>
   <g id="line2d_51">
    <path d="M 360.8064 149.739145 
L 380.514816 106.20288 
" style="fill: none; stroke: #ff00ff; stroke-width: 1.5; stroke-linecap: square"/>
    <g>
     <use xlink:href="#mfb6a17874d" x="360.8064" y="149.739145" style="fill-opacity: 0; stroke: #ff00ff; stroke-width: 1.5; stroke-linejoin: miter"/>
     <use xlink:href="#mfb6a17874d" x="380.514816" y="106.20288" style="fill-opacity: 0; stroke: #ff00ff; stroke-width: 1.5; stroke-linejoin: miter"/>
    </g>
   </g>
   <g id="line2d_52">
    <path d="M 360.8064 298.944 
L 360.8064 6.912 
" style="fill: none; stroke: #000000; stroke-width: 1.5; stroke-linecap: square"/>
   </g>
   <g id="patch_3">
    <path d="M 57.6 298.944 
L 360.8064 298.944 
" style="fill: none; stroke: #000000; stroke-width: 0.8; stroke-linejoin: miter; stroke-linecap: square"/>
   </g>
   <g id="patch_4">
    <path d="M 57.6 6.912 
L 360.8064 6.912 
" style="fill: none; stroke: #000000; stroke-width: 0.8; stroke-linejoin: miter; stroke-linecap: square"/>
   </g>
   <g id="text_13">
    <!-- cma -->
    <g transform="translate(386.578944 296.966485)scale(0.14 -0.14)">
     <use xlink:href="#DejaVuSans-63"/>
     <use xlink:href="#DejaVuSans-6d" x="54.980469"/>
     <use xlink:href="#DejaVuSans-61" x="152.392578"/>
    </g>
   </g>
   <g id="text_14">
    <!-- parEgo -->
    <g transform="translate(386.578944 203.516245)scale(0.14 -0.14)">
     <defs>
      <path id="DejaVuSans-45" d="M 628 4666 
L 3578 4666 
L 3578 4134 
L 1259 4134 
L 1259 2753 
L 3481 2753 
L 3481 2222 
L 1259 2222 
L 1259 531 
L 3634 531 
L 3634 0 
L 628 0 
L 628 4666 
z
" transform="scale(0.015625)"/>
     </defs>
     <use xlink:href="#DejaVuSans-70"/>
     <use xlink:href="#DejaVuSans-61" x="63.476562"/>
     <use xlink:href="#DejaVuSans-72" x="124.755859"/>
     <use xlink:href="#DejaVuSans-45" x="165.869141"/>
     <use xlink:href="#DejaVuSans-67" x="229.052734"/>
     <use xlink:href="#DejaVuSans-6f" x="292.529297"/>
    </g>
   </g>
   <g id="text_15">
    <!-- external- -->
    <g transform="translate(386.578944 110.066005)scale(0.14 -0.14)">
     <defs>
      <path id="DejaVuSans-78" d="M 3513 3500 
L 2247 1797 
L 3578 0 
L 2900 0 
L 1881 1375 
L 863 0 
L 184 0 
L 1544 1831 
L 300 3500 
L 978 3500 
L 1906 2253 
L 2834 3500 
L 3513 3500 
z
" transform="scale(0.015625)"/>
     </defs>
     <use xlink:href="#DejaVuSans-65"/>
     <use xlink:href="#DejaVuSans-78" x="59.773438"/>
     <use xlink:href="#DejaVuSans-74" x="118.953125"/>
     <use xlink:href="#DejaVuSans-65" x="158.162109"/>
     <use xlink:href="#DejaVuSans-72" x="219.685547"/>
     <use xlink:href="#DejaVuSans-6e" x="259.048828"/>
     <use xlink:href="#DejaVuSans-61" x="322.427734"/>
     <use xlink:href="#DejaVuSans-6c" x="383.707031"/>
     <use xlink:href="#DejaVuSans-2d" x="411.490234"/>
    </g>
   </g>
   <g id="text_16">
    <!-- best 2016 -->
    <g transform="translate(386.578944 16.615765)scale(0.14 -0.14)">
     <defs>
      <path id="DejaVuSans-62" d="M 3116 1747 
Q 3116 2381 2855 2742 
Q 2594 3103 2138 3103 
Q 1681 3103 1420 2742 
Q 1159 2381 1159 1747 
Q 1159 1113 1420 752 
Q 1681 391 2138 391 
Q 2594 391 2855 752 
Q 3116 1113 3116 1747 
z
M 1159 2969 
Q 1341 3281 1617 3432 
Q 1894 3584 2278 3584 
Q 2916 3584 3314 3078 
Q 3713 2572 3713 1747 
Q 3713 922 3314 415 
Q 2916 -91 2278 -91 
Q 1894 -91 1617 61 
Q 1341 213 1159 525 
L 1159 0 
L 581 0 
L 581 4863 
L 1159 4863 
L 1159 2969 
z
" transform="scale(0.015625)"/>
     </defs>
     <use xlink:href="#DejaVuSans-62"/>
     <use xlink:href="#DejaVuSans-65" x="63.476562"/>
     <use xlink:href="#DejaVuSans-73" x="125"/>
     <use xlink:href="#DejaVuSans-74" x="177.099609"/>
     <use xlink:href="#DejaVuSans-20" x="216.308594"/>
     <use xlink:href="#DejaVuSans-32" x="248.095703"/>
     <use xlink:href="#DejaVuSans-30" x="311.71875"/>
     <use xlink:href="#DejaVuSans-31" x="375.341797"/>
     <use xlink:href="#DejaVuSans-36" x="438.964844"/>
    </g>
   </g>
   <g id="text_17">
    <!-- bbob-biobj f20, f21, f28, 20-D -->
    <g transform="translate(60.632064 17.582726)scale(0.102 -0.102)">
     <defs>
      <path id="DejaVuSans-6a" d="M 603 3500 
L 1178 3500 
L 1178 -63 
Q 1178 -731 923 -1031 
Q 669 -1331 103 -1331 
L -116 -1331 
L -116 -844 
L 38 -844 
Q 366 -844 484 -692 
Q 603 -541 603 -63 
L 603 3500 
z
M 603 4863 
L 1178 4863 
L 1178 4134 
L 603 4134 
L 603 4863 
z
" transform="scale(0.015625)"/>
      <path id="DejaVuSans-44" d="M 1259 4147 
L 1259 519 
L 2022 519 
Q 2988 519 3436 956 
Q 3884 1394 3884 2338 
Q 3884 3275 3436 3711 
Q 2988 4147 2022 4147 
L 1259 4147 
z
M 628 4666 
L 1925 4666 
Q 3281 4666 3915 4102 
Q 4550 3538 4550 2338 
Q 4550 1131 3912 565 
Q 3275 0 1925 0 
L 628 0 
L 628 4666 
z
" transform="scale(0.015625)"/>
     </defs>
     <use xlink:href="#DejaVuSans-62"/>
     <use xlink:href="#DejaVuSans-62" x="63.476562"/>
     <use xlink:href="#DejaVuSans-6f" x="126.953125"/>
     <use xlink:href="#DejaVuSans-62" x="188.134766"/>
     <use xlink:href="#DejaVuSans-2d" x="251.611328"/>
     <use xlink:href="#DejaVuSans-62" x="287.695312"/>
     <use xlink:href="#DejaVuSans-69" x="351.171875"/>
     <use xlink:href="#DejaVuSans-6f" x="378.955078"/>
     <use xlink:href="#DejaVuSans-62" x="440.136719"/>
     <use xlink:href="#DejaVuSans-6a" x="503.613281"/>
     <use xlink:href="#DejaVuSans-20" x="531.396484"/>
     <use xlink:href="#DejaVuSans-66" x="563.183594"/>
     <use xlink:href="#DejaVuSans-32" x="598.388672"/>
     <use xlink:href="#DejaVuSans-30" x="662.011719"/>
     <use xlink:href="#DejaVuSans-2c" x="725.634766"/>
     <use xlink:href="#DejaVuSans-20" x="757.421875"/>
     <use xlink:href="#DejaVuSans-66" x="789.208984"/>
     <use xlink:href="#DejaVuSans-32" x="824.414062"/>
     <use xlink:href="#DejaVuSans-31" x="888.037109"/>
     <use xlink:href="#DejaVuSans-2c" x="951.660156"/>
     <use xlink:href="#DejaVuSans-20" x="983.447266"/>
     <use xlink:href="#DejaVuSans-66" x="1015.234375"/>
     <use xlink:href="#DejaVuSans-32" x="1050.439453"/>
     <use xlink:href="#DejaVuSans-38" x="1114.0625"/>
     <use xlink:href="#DejaVuSans-2c" x="1177.685547"/>
     <use xlink:href="#DejaVuSans-20" x="1209.472656"/>
     <use xlink:href="#DejaVuSans-32" x="1241.259766"/>
     <use xlink:href="#DejaVuSans-30" x="1304.882812"/>
     <use xlink:href="#DejaVuSans-2d" x="1368.505859"/>
     <use xlink:href="#DejaVuSans-44" x="1404.589844"/>
    </g>
    <!-- 58 targets: 1..-1.0e-4 -->
    <g transform="translate(60.632064 29.004495)scale(0.102 -0.102)">
     <defs>
      <path id="DejaVuSans-35" d="M 691 4666 
L 3169 4666 
L 3169 4134 
L 1269 4134 
L 1269 2991 
Q 1406 3038 1543 3061 
Q 1681 3084 1819 3084 
Q 2600 3084 3056 2656 
Q 3513 2228 3513 1497 
Q 3513 744 3044 326 
Q 2575 -91 1722 -91 
Q 1428 -91 1123 -41 
Q 819 9 494 109 
L 494 744 
Q 775 591 1075 516 
Q 1375 441 1709 441 
Q 2250 441 2565 725 
Q 2881 1009 2881 1497 
Q 2881 1984 2565 2268 
Q 2250 2553 1709 2553 
Q 1456 2553 1204 2497 
Q 953 2441 691 2322 
L 691 4666 
z
" transform="scale(0.015625)"/>
      <path id="DejaVuSans-3a" d="M 750 794 
L 1409 794 
L 1409 0 
L 750 0 
L 750 794 
z
M 750 3309 
L 1409 3309 
L 1409 2516 
L 750 2516 
L 750 3309 
z
" transform="scale(0.015625)"/>
     </defs>
     <use xlink:href="#DejaVuSans-35"/>
     <use xlink:href="#DejaVuSans-38" x="63.623047"/>
     <use xlink:href="#DejaVuSans-20" x="127.246094"/>
     <use xlink:href="#DejaVuSans-74" x="159.033203"/>
     <use xlink:href="#DejaVuSans-61" x="198.242188"/>
     <use xlink:href="#DejaVuSans-72" x="259.521484"/>
     <use xlink:href="#DejaVuSans-67" x="298.884766"/>
     <use xlink:href="#DejaVuSans-65" x="362.361328"/>
     <use xlink:href="#DejaVuSans-74" x="423.884766"/>
     <use xlink:href="#DejaVuSans-73" x="463.09375"/>
     <use xlink:href="#DejaVuSans-3a" x="515.193359"/>
     <use xlink:href="#DejaVuSans-20" x="548.884766"/>
     <use xlink:href="#DejaVuSans-31" x="580.671875"/>
     <use xlink:href="#DejaVuSans-2e" x="644.294922"/>
     <use xlink:href="#DejaVuSans-2e" x="676.082031"/>
     <use xlink:href="#DejaVuSans-2d" x="707.869141"/>
     <use xlink:href="#DejaVuSans-31" x="743.953125"/>
     <use xlink:href="#DejaVuSans-2e" x="807.576172"/>
     <use xlink:href="#DejaVuSans-30" x="839.363281"/>
     <use xlink:href="#DejaVuSans-65" x="902.986328"/>
     <use xlink:href="#DejaVuSans-2d" x="964.509766"/>
     <use xlink:href="#DejaVuSans-34" x="1000.59375"/>
    </g>
    <!-- 10 instances -->
    <g transform="translate(60.632064 40.426264)scale(0.102 -0.102)">
     <use xlink:href="#DejaVuSans-31"/>
     <use xlink:href="#DejaVuSans-30" x="63.623047"/>
     <use xlink:href="#DejaVuSans-20" x="127.246094"/>
     <use xlink:href="#DejaVuSans-69" x="159.033203"/>
     <use xlink:href="#DejaVuSans-6e" x="186.816406"/>
     <use xlink:href="#DejaVuSans-73" x="250.195312"/>
     <use xlink:href="#DejaVuSans-74" x="302.294922"/>
     <use xlink:href="#DejaVuSans-61" x="341.503906"/>
     <use xlink:href="#DejaVuSans-6e" x="402.783203"/>
     <use xlink:href="#DejaVuSans-63" x="466.162109"/>
     <use xlink:href="#DejaVuSans-65" x="521.142578"/>
     <use xlink:href="#DejaVuSans-73" x="582.666016"/>
    </g>
   </g>
   <g id="text_18">
    <!-- v2.6, hv-hash=ff0e71e8cd978373 -->
    <g style="fill: #808080" transform="translate(123.707887 293.943992)scale(0.1 -0.1)">
     <defs>
      <path id="DejaVuSans-68" d="M 3513 2113 
L 3513 0 
L 2938 0 
L 2938 2094 
Q 2938 2591 2744 2837 
Q 2550 3084 2163 3084 
Q 1697 3084 1428 2787 
Q 1159 2491 1159 1978 
L 1159 0 
L 581 0 
L 581 4863 
L 1159 4863 
L 1159 2956 
Q 1366 3272 1645 3428 
Q 1925 3584 2291 3584 
Q 2894 3584 3203 3211 
Q 3513 2838 3513 2113 
z
" transform="scale(0.015625)"/>
      <path id="DejaVuSans-3d" d="M 678 2906 
L 4684 2906 
L 4684 2381 
L 678 2381 
L 678 2906 
z
M 678 1631 
L 4684 1631 
L 4684 1100 
L 678 1100 
L 678 1631 
z
" transform="scale(0.015625)"/>
      <path id="DejaVuSans-37" d="M 525 4666 
L 3525 4666 
L 3525 4397 
L 1831 0 
L 1172 0 
L 2766 4134 
L 525 4134 
L 525 4666 
z
" transform="scale(0.015625)"/>
      <path id="DejaVuSans-39" d="M 703 97 
L 703 672 
Q 941 559 1184 500 
Q 1428 441 1663 441 
Q 2288 441 2617 861 
Q 2947 1281 2994 2138 
Q 2813 1869 2534 1725 
Q 2256 1581 1919 1581 
Q 1219 1581 811 2004 
Q 403 2428 403 3163 
Q 403 3881 828 4315 
Q 1253 4750 1959 4750 
Q 2769 4750 3195 4129 
Q 3622 3509 3622 2328 
Q 3622 1225 3098 567 
Q 2575 -91 1691 -91 
Q 1453 -91 1209 -44 
Q 966 3 703 97 
z
M 1959 2075 
Q 2384 2075 2632 2365 
Q 2881 2656 2881 3163 
Q 2881 3666 2632 3958 
Q 2384 4250 1959 4250 
Q 1534 4250 1286 3958 
Q 1038 3666 1038 3163 
Q 1038 2656 1286 2365 
Q 1534 2075 1959 2075 
z
" transform="scale(0.015625)"/>
      <path id="DejaVuSans-33" d="M 2597 2516 
Q 3050 2419 3304 2112 
Q 3559 1806 3559 1356 
Q 3559 666 3084 287 
Q 2609 -91 1734 -91 
Q 1441 -91 1130 -33 
Q 819 25 488 141 
L 488 750 
Q 750 597 1062 519 
Q 1375 441 1716 441 
Q 2309 441 2620 675 
Q 2931 909 2931 1356 
Q 2931 1769 2642 2001 
Q 2353 2234 1838 2234 
L 1294 2234 
L 1294 2753 
L 1863 2753 
Q 2328 2753 2575 2939 
Q 2822 3125 2822 3475 
Q 2822 3834 2567 4026 
Q 2313 4219 1838 4219 
Q 1578 4219 1281 4162 
Q 984 4106 628 3988 
L 628 4550 
Q 988 4650 1302 4700 
Q 1616 4750 1894 4750 
Q 2613 4750 3031 4423 
Q 3450 4097 3450 3541 
Q 3450 3153 3228 2886 
Q 3006 2619 2597 2516 
z
" transform="scale(0.015625)"/>
     </defs>
     <use xlink:href="#DejaVuSans-76"/>
     <use xlink:href="#DejaVuSans-32" x="59.179688"/>
     <use xlink:href="#DejaVuSans-2e" x="122.802734"/>
     <use xlink:href="#DejaVuSans-36" x="154.589844"/>
     <use xlink:href="#DejaVuSans-2c" x="218.212891"/>
     <use xlink:href="#DejaVuSans-20" x="250"/>
     <use xlink:href="#DejaVuSans-68" x="281.787109"/>
     <use xlink:href="#DejaVuSans-76" x="345.166016"/>
     <use xlink:href="#DejaVuSans-2d" x="401.720703"/>
     <use xlink:href="#DejaVuSans-68" x="437.804688"/>
     <use xlink:href="#DejaVuSans-61" x="501.183594"/>
     <use xlink:href="#DejaVuSans-73" x="562.462891"/>
     <use xlink:href="#DejaVuSans-68" x="614.5625"/>
     <use xlink:href="#DejaVuSans-3d" x="677.941406"/>
     <use xlink:href="#DejaVuSans-66" x="761.730469"/>
     <use xlink:href="#DejaVuSans-66" x="796.935547"/>
     <use xlink:href="#DejaVuSans-30" x="832.140625"/>
     <use xlink:href="#DejaVuSans-65" x="895.763672"/>
     <use xlink:href="#DejaVuSans-37" x="957.287109"/>
     <use xlink:href="#DejaVuSans-31" x="1020.910156"/>
     <use xlink:href="#DejaVuSans-65" x="1084.533203"/>
     <use xlink:href="#DejaVuSans-38" x="1146.056641"/>
     <use xlink:href="#DejaVuSans-63" x="1209.679688"/>
     <use xlink:href="#DejaVuSans-64" x="1264.660156"/>
     <use xlink:href="#DejaVuSans-39" x="1328.136719"/>
     <use xlink:href="#DejaVuSans-37" x="1391.759766"/>
     <use xlink:href="#DejaVuSans-38" x="1455.382812"/>
     <use xlink:href="#DejaVuSans-33" x="1519.005859"/>
     <use xlink:href="#DejaVuSans-37" x="1582.628906"/>
     <use xlink:href="#DejaVuSans-33" x="1646.251953"/>
    </g>
   </g>
  </g>
 </g>
 <defs>
  <clipPath id="pe55cfb2321">
   <rect x="57.6" y="6.912" width="303.2064" height="292.032"/>
  </clipPath>
 </defs>
</svg>
