<?xml version="1.0" encoding="utf-8" standalone="no"?>
<!DOCTYPE svg PUBLIC "-//W3C//DTD SVG 1.1//EN"
  "http://www.w3.org/Graphics/SVG/1.1/DTD/svg11.dtd">
<svg xmlns:xlink="http://www.w3.org/1999/xlink" width="460.8pt" height="345.6pt" viewBox="0 0 460.8 345.6" xmlns="http://www.w3.org/2000/svg" version="1.1">
 <metadata>
  <rdf:RDF xmlns:dc="http://purl.org/dc/elements/1.1/" xmlns:cc="http://creativecommons.org/ns#" xmlns:rdf="http://www.w3.org/1999/02/22-rdf-syntax-ns#">
   <cc:Work>
    <dc:type rdf:resource="http://purl.org/dc/dcmitype/StillImage"/>
    <dc:date>2022-06-19T21:02:43.098764</dc:date>
    <dc:format>image/svg+xml</dc:format>
    <dc:creator>
     <cc:Agent>
      <dc:title>Matplotlib v3.5.1, https://matplotlib.org/</dc:title>
     </cc:Agent>
    </dc:creator>
   </cc:Work>
  </rdf:RDF>
 </metadata>
 <defs>
  <style type="text/css">*{stroke-linejoin: round; stroke-linecap: butt}</style>
 </defs>
 <g id="figure_1">
  <g id="patch_1">
   <path d="M 0 345.6 
L 460.8 345.6 
L 460.8 0 
L 0 0 
z
" style="fill: #ffffff"/>
  </g>
  <g id="axes_1">
   <g id="patch_2">
    <path d="M 57.6 298.944 
L 360.8064 298.944 
L 360.8064 6.912 
L 57.6 6.912 
z
" style="fill: #ffffff"/>
   </g>
   <g id="line2d_1">
    <path d="M 27.323974 298.944 
L 27.323974 297.265655 
L 34.951403 297.265655 
L 34.951403 292.230621 
L 44.560826 292.230621 
L 44.560826 290.552276 
L 53.402323 290.552276 
L 53.402323 287.195586 
L 61.029752 287.195586 
L 61.029752 285.517241 
L 66.441498 285.517241 
L 66.441498 280.482207 
L 75.574654 280.482207 
L 75.574654 277.125517 
L 79.480672 277.125517 
L 79.480672 275.447172 
L 82.713442 275.447172 
L 82.713442 272.090483 
L 87.1081 272.090483 
L 87.1081 268.733793 
L 90.668036 268.733793 
L 90.668036 263.698759 
L 98.295464 263.698759 
L 98.295464 260.342069 
L 103.868684 260.342069 
L 103.868684 256.985379 
L 106.560633 256.985379 
L 106.560633 253.62869 
L 113.284172 253.62869 
L 113.284172 251.950345 
L 129.78556 251.950345 
L 129.78556 246.91531 
L 134.683578 246.91531 
L 134.683578 245.236966 
L 136.836659 245.236966 
L 136.836659 241.880276 
L 148.322436 241.880276 
L 148.322436 238.523586 
L 158.74344 238.523586 
L 158.74344 233.488552 
L 159.808529 233.488552 
L 159.808529 231.810207 
L 167.629457 231.810207 
L 167.629457 228.453517 
L 170.901288 228.453517 
L 170.901288 226.775172 
L 172.839484 226.775172 
L 172.839484 223.418483 
L 175.687546 223.418483 
L 175.687546 218.383448 
L 185.027216 218.383448 
L 185.027216 215.026759 
L 187.496626 215.026759 
L 187.496626 213.348414 
L 194.216041 213.348414 
L 194.216041 208.313379 
L 198.402102 208.313379 
L 198.402102 206.635034 
L 202.749387 206.635034 
L 202.749387 203.278345 
L 203.4375 203.278345 
L 203.4375 199.921655 
L 203.933619 199.921655 
L 203.933619 194.886621 
L 209.578499 194.886621 
L 209.578499 189.851586 
L 211.657624 189.851586 
L 211.657624 188.173241 
L 216.101578 188.173241 
L 216.101578 184.816552 
L 216.875719 184.816552 
L 216.875719 183.138207 
L 220.902659 183.138207 
L 220.902659 179.781517 
L 221.608828 179.781517 
L 221.608828 176.424828 
L 225.315394 176.424828 
L 225.315394 173.068138 
L 230.281802 173.068138 
L 230.281802 171.389793 
L 241.89466 171.389793 
L 241.89466 166.354759 
L 261.728781 166.354759 
L 261.728781 162.998069 
L 264.653692 162.998069 
L 264.653692 157.963034 
L 266.842221 157.963034 
L 266.842221 154.606345 
L 271.86995 154.606345 
L 271.86995 149.57131 
L 272.336889 149.57131 
L 272.336889 147.892966 
L 273.239191 147.892966 
L 273.239191 142.857931 
L 273.777077 142.857931 
L 273.777077 139.501241 
L 274.09811 139.501241 
L 274.09811 137.822897 
L 274.539258 137.822897 
L 274.539258 134.466207 
L 275.445986 134.466207 
L 275.445986 131.109517 
L 275.88792 131.109517 
L 275.88792 129.431172 
L 276.931195 129.431172 
L 276.999979 119.361103 
L 277.280941 119.361103 
L 277.280941 117.682759 
L 277.816184 117.682759 
L 277.816184 112.647724 
L 279.06194 112.647724 
L 279.06194 109.291034 
L 283.557694 109.291034 
L 283.557694 105.934345 
L 285.587851 105.934345 
L 285.587851 102.577655 
L 288.16516 102.577655 
L 288.16516 100.89931 
L 291.654154 100.89931 
L 291.654154 99.220966 
L 294.72097 99.220966 
L 294.72097 94.185931 
L 295.181839 94.185931 
L 295.181839 90.829241 
L 296.428343 90.829241 
L 296.428343 89.150897 
L 297.099791 89.150897 
L 297.099791 84.115862 
L 299.201929 84.115862 
L 299.201929 80.759172 
L 300.417143 80.759172 
L 300.417143 75.724138 
L 302.466469 75.724138 
L 302.540492 70.689103 
L 302.676134 70.689103 
L 302.676134 65.654069 
L 305.401972 65.654069 
L 305.401972 63.975724 
L 305.678608 63.975724 
L 305.678608 58.94069 
L 305.905686 58.94069 
L 305.905686 55.584 
L 306.229109 55.584 
L 306.229109 52.22731 
L 306.751209 52.22731 
L 306.751209 50.548966 
L 307.395413 50.548966 
L 307.395413 47.192276 
L 308.269931 47.192276 
L 308.269931 42.157241 
L 360.8064 42.157241 
L 360.8064 42.157241 
" style="fill: none; stroke: #f5deb3; stroke-width: 4; stroke-linecap: square"/>
   </g>
   <g id="line2d_2">
    <defs>
     <path id="mc4b9725e1d" d="M 0 7.778175 
L 7.778175 0 
L 0 -7.778175 
L -7.778175 0 
z
" style="stroke: #f5deb3; stroke-width: 1.5; stroke-linejoin: miter"/>
    </defs>
    <g>
     <use xlink:href="#mc4b9725e1d" x="106.560633" y="256.985379" style="fill: #f5deb3; stroke: #f5deb3; stroke-width: 1.5; stroke-linejoin: miter"/>
     <use xlink:href="#mc4b9725e1d" x="203.933619" y="194.886621" style="fill: #f5deb3; stroke: #f5deb3; stroke-width: 1.5; stroke-linejoin: miter"/>
     <use xlink:href="#mc4b9725e1d" x="266.842221" y="154.606345" style="fill: #f5deb3; stroke: #f5deb3; stroke-width: 1.5; stroke-linejoin: miter"/>
     <use xlink:href="#mc4b9725e1d" x="308.269931" y="47.192276" style="fill: #f5deb3; stroke: #f5deb3; stroke-width: 1.5; stroke-linejoin: miter"/>
     <use xlink:href="#mc4b9725e1d" x="308.269931" y="42.157241" style="fill: #f5deb3; stroke: #f5deb3; stroke-width: 1.5; stroke-linejoin: miter"/>
     <use xlink:href="#mc4b9725e1d" x="360.8064" y="42.157241" style="fill: #f5deb3; stroke: #f5deb3; stroke-width: 1.5; stroke-linejoin: miter"/>
    </g>
   </g>
   <g id="line2d_3">
    <path style="fill: none; stroke: #f5deb3; stroke-width: 4; stroke-linecap: square"/>
    <g/>
   </g>
   <g id="line2d_4">
    <path d="M 360.8064 42.157241 
L 380.514816 12.75264 
" style="fill: none; stroke: #f5deb3; stroke-width: 4; stroke-linecap: square"/>
    <g>
     <use xlink:href="#mc4b9725e1d" x="360.8064" y="42.157241" style="fill: #f5deb3; stroke: #f5deb3; stroke-width: 1.5; stroke-linejoin: miter"/>
     <use xlink:href="#mc4b9725e1d" x="380.514816" y="12.75264" style="fill: #f5deb3; stroke: #f5deb3; stroke-width: 1.5; stroke-linejoin: miter"/>
    </g>
   </g>
   <g id="matplotlib.axis_1">
    <g id="xtick_1">
     <g id="line2d_5">
      <path d="M 57.6 298.944 
L 57.6 6.912 
" clip-path="url(#p6a81fb28a3)" style="fill: none; stroke: #b0b0b0; stroke-width: 0.8; stroke-linecap: square"/>
     </g>
     <g id="line2d_6">
      <defs>
       <path id="m22d5d15e9a" d="M 0 0 
L 0 3.5 
" style="stroke: #000000; stroke-width: 0.8"/>
      </defs>
      <g>
       <use xlink:href="#m22d5d15e9a" x="57.6" y="298.944" style="stroke: #000000; stroke-width: 0.8"/>
      </g>
     </g>
     <g id="text_1">
      <!-- 0 -->
      <g transform="translate(52.191875 318.861344)scale(0.17 -0.17)">
       <defs>
        <path id="DejaVuSans-30" d="M 2034 4250 
Q 1547 4250 1301 3770 
Q 1056 3291 1056 2328 
Q 1056 1369 1301 889 
Q 1547 409 2034 409 
Q 2525 409 2770 889 
Q 3016 1369 3016 2328 
Q 3016 3291 2770 3770 
Q 2525 4250 2034 4250 
z
M 2034 4750 
Q 2819 4750 3233 4129 
Q 3647 3509 3647 2328 
Q 3647 1150 3233 529 
Q 2819 -91 2034 -91 
Q 1250 -91 836 529 
Q 422 1150 422 2328 
Q 422 3509 836 4129 
Q 1250 4750 2034 4750 
z
" transform="scale(0.015625)"/>
       </defs>
       <use xlink:href="#DejaVuSans-30"/>
      </g>
     </g>
    </g>
    <g id="xtick_2">
     <g id="line2d_7">
      <path d="M 144.2304 298.944 
L 144.2304 6.912 
" clip-path="url(#p6a81fb28a3)" style="fill: none; stroke: #b0b0b0; stroke-width: 0.8; stroke-linecap: square"/>
     </g>
     <g id="line2d_8">
      <g>
       <use xlink:href="#m22d5d15e9a" x="144.2304" y="298.944" style="stroke: #000000; stroke-width: 0.8"/>
      </g>
     </g>
     <g id="text_2">
      <!-- 2 -->
      <g transform="translate(138.822275 318.861344)scale(0.17 -0.17)">
       <defs>
        <path id="DejaVuSans-32" d="M 1228 531 
L 3431 531 
L 3431 0 
L 469 0 
L 469 531 
Q 828 903 1448 1529 
Q 2069 2156 2228 2338 
Q 2531 2678 2651 2914 
Q 2772 3150 2772 3378 
Q 2772 3750 2511 3984 
Q 2250 4219 1831 4219 
Q 1534 4219 1204 4116 
Q 875 4013 500 3803 
L 500 4441 
Q 881 4594 1212 4672 
Q 1544 4750 1819 4750 
Q 2544 4750 2975 4387 
Q 3406 4025 3406 3419 
Q 3406 3131 3298 2873 
Q 3191 2616 2906 2266 
Q 2828 2175 2409 1742 
Q 1991 1309 1228 531 
z
" transform="scale(0.015625)"/>
       </defs>
       <use xlink:href="#DejaVuSans-32"/>
      </g>
     </g>
    </g>
    <g id="xtick_3">
     <g id="line2d_9">
      <path d="M 230.8608 298.944 
L 230.8608 6.912 
" clip-path="url(#p6a81fb28a3)" style="fill: none; stroke: #b0b0b0; stroke-width: 0.8; stroke-linecap: square"/>
     </g>
     <g id="line2d_10">
      <g>
       <use xlink:href="#m22d5d15e9a" x="230.8608" y="298.944" style="stroke: #000000; stroke-width: 0.8"/>
      </g>
     </g>
     <g id="text_3">
      <!-- 4 -->
      <g transform="translate(225.452675 318.861344)scale(0.17 -0.17)">
       <defs>
        <path id="DejaVuSans-34" d="M 2419 4116 
L 825 1625 
L 2419 1625 
L 2419 4116 
z
M 2253 4666 
L 3047 4666 
L 3047 1625 
L 3713 1625 
L 3713 1100 
L 3047 1100 
L 3047 0 
L 2419 0 
L 2419 1100 
L 313 1100 
L 313 1709 
L 2253 4666 
z
" transform="scale(0.015625)"/>
       </defs>
       <use xlink:href="#DejaVuSans-34"/>
      </g>
     </g>
    </g>
    <g id="xtick_4">
     <g id="line2d_11">
      <path d="M 317.4912 298.944 
L 317.4912 6.912 
" clip-path="url(#p6a81fb28a3)" style="fill: none; stroke: #b0b0b0; stroke-width: 0.8; stroke-linecap: square"/>
     </g>
     <g id="line2d_12">
      <g>
       <use xlink:href="#m22d5d15e9a" x="317.4912" y="298.944" style="stroke: #000000; stroke-width: 0.8"/>
      </g>
     </g>
     <g id="text_4">
      <!-- 6 -->
      <g transform="translate(312.083075 318.861344)scale(0.17 -0.17)">
       <defs>
        <path id="DejaVuSans-36" d="M 2113 2584 
Q 1688 2584 1439 2293 
Q 1191 2003 1191 1497 
Q 1191 994 1439 701 
Q 1688 409 2113 409 
Q 2538 409 2786 701 
Q 3034 994 3034 1497 
Q 3034 2003 2786 2293 
Q 2538 2584 2113 2584 
z
M 3366 4563 
L 3366 3988 
Q 3128 4100 2886 4159 
Q 2644 4219 2406 4219 
Q 1781 4219 1451 3797 
Q 1122 3375 1075 2522 
Q 1259 2794 1537 2939 
Q 1816 3084 2150 3084 
Q 2853 3084 3261 2657 
Q 3669 2231 3669 1497 
Q 3669 778 3244 343 
Q 2819 -91 2113 -91 
Q 1303 -91 875 529 
Q 447 1150 447 2328 
Q 447 3434 972 4092 
Q 1497 4750 2381 4750 
Q 2619 4750 2861 4703 
Q 3103 4656 3366 4563 
z
" transform="scale(0.015625)"/>
       </defs>
       <use xlink:href="#DejaVuSans-36"/>
      </g>
     </g>
    </g>
    <g id="xtick_5">
     <g id="line2d_13">
      <path d="M 100.9152 298.944 
L 100.9152 6.912 
" clip-path="url(#p6a81fb28a3)" style="fill: none; stroke: #b0b0b0; stroke-width: 0.8; stroke-linecap: square"/>
     </g>
     <g id="line2d_14">
      <defs>
       <path id="m8e87841a5a" d="M 0 0 
L 0 2 
" style="stroke: #000000; stroke-width: 0.6"/>
      </defs>
      <g>
       <use xlink:href="#m8e87841a5a" x="100.9152" y="298.944" style="stroke: #000000; stroke-width: 0.6"/>
      </g>
     </g>
    </g>
    <g id="xtick_6">
     <g id="line2d_15">
      <path d="M 187.5456 298.944 
L 187.5456 6.912 
" clip-path="url(#p6a81fb28a3)" style="fill: none; stroke: #b0b0b0; stroke-width: 0.8; stroke-linecap: square"/>
     </g>
     <g id="line2d_16">
      <g>
       <use xlink:href="#m8e87841a5a" x="187.5456" y="298.944" style="stroke: #000000; stroke-width: 0.6"/>
      </g>
     </g>
    </g>
    <g id="xtick_7">
     <g id="line2d_17">
      <path d="M 274.176 298.944 
L 274.176 6.912 
" clip-path="url(#p6a81fb28a3)" style="fill: none; stroke: #b0b0b0; stroke-width: 0.8; stroke-linecap: square"/>
     </g>
     <g id="line2d_18">
      <g>
       <use xlink:href="#m8e87841a5a" x="274.176" y="298.944" style="stroke: #000000; stroke-width: 0.6"/>
      </g>
     </g>
    </g>
    <g id="xtick_8">
     <g id="line2d_19">
      <path d="M 360.8064 298.944 
L 360.8064 6.912 
" clip-path="url(#p6a81fb28a3)" style="fill: none; stroke: #b0b0b0; stroke-width: 0.8; stroke-linecap: square"/>
     </g>
     <g id="line2d_20">
      <g>
       <use xlink:href="#m8e87841a5a" x="360.8064" y="298.944" style="stroke: #000000; stroke-width: 0.6"/>
      </g>
     </g>
    </g>
    <g id="text_5">
     <!-- log10(# f-evals / dimension) -->
     <g transform="translate(88.823278 339.314156)scale(0.17 -0.17)">
      <defs>
       <path id="DejaVuSans-6c" d="M 603 4863 
L 1178 4863 
L 1178 0 
L 603 0 
L 603 4863 
z
" transform="scale(0.015625)"/>
       <path id="DejaVuSans-6f" d="M 1959 3097 
Q 1497 3097 1228 2736 
Q 959 2375 959 1747 
Q 959 1119 1226 758 
Q 1494 397 1959 397 
Q 2419 397 2687 759 
Q 2956 1122 2956 1747 
Q 2956 2369 2687 2733 
Q 2419 3097 1959 3097 
z
M 1959 3584 
Q 2709 3584 3137 3096 
Q 3566 2609 3566 1747 
Q 3566 888 3137 398 
Q 2709 -91 1959 -91 
Q 1206 -91 779 398 
Q 353 888 353 1747 
Q 353 2609 779 3096 
Q 1206 3584 1959 3584 
z
" transform="scale(0.015625)"/>
       <path id="DejaVuSans-67" d="M 2906 1791 
Q 2906 2416 2648 2759 
Q 2391 3103 1925 3103 
Q 1463 3103 1205 2759 
Q 947 2416 947 1791 
Q 947 1169 1205 825 
Q 1463 481 1925 481 
Q 2391 481 2648 825 
Q 2906 1169 2906 1791 
z
M 3481 434 
Q 3481 -459 3084 -895 
Q 2688 -1331 1869 -1331 
Q 1566 -1331 1297 -1286 
Q 1028 -1241 775 -1147 
L 775 -588 
Q 1028 -725 1275 -790 
Q 1522 -856 1778 -856 
Q 2344 -856 2625 -561 
Q 2906 -266 2906 331 
L 2906 616 
Q 2728 306 2450 153 
Q 2172 0 1784 0 
Q 1141 0 747 490 
Q 353 981 353 1791 
Q 353 2603 747 3093 
Q 1141 3584 1784 3584 
Q 2172 3584 2450 3431 
Q 2728 3278 2906 2969 
L 2906 3500 
L 3481 3500 
L 3481 434 
z
" transform="scale(0.015625)"/>
       <path id="DejaVuSans-31" d="M 794 531 
L 1825 531 
L 1825 4091 
L 703 3866 
L 703 4441 
L 1819 4666 
L 2450 4666 
L 2450 531 
L 3481 531 
L 3481 0 
L 794 0 
L 794 531 
z
" transform="scale(0.015625)"/>
       <path id="DejaVuSans-28" d="M 1984 4856 
Q 1566 4138 1362 3434 
Q 1159 2731 1159 2009 
Q 1159 1288 1364 580 
Q 1569 -128 1984 -844 
L 1484 -844 
Q 1016 -109 783 600 
Q 550 1309 550 2009 
Q 550 2706 781 3412 
Q 1013 4119 1484 4856 
L 1984 4856 
z
" transform="scale(0.015625)"/>
       <path id="DejaVuSans-23" d="M 3272 2816 
L 2363 2816 
L 2100 1772 
L 3016 1772 
L 3272 2816 
z
M 2803 4594 
L 2478 3297 
L 3391 3297 
L 3719 4594 
L 4219 4594 
L 3897 3297 
L 4872 3297 
L 4872 2816 
L 3775 2816 
L 3519 1772 
L 4513 1772 
L 4513 1294 
L 3397 1294 
L 3072 0 
L 2572 0 
L 2894 1294 
L 1978 1294 
L 1656 0 
L 1153 0 
L 1478 1294 
L 494 1294 
L 494 1772 
L 1594 1772 
L 1856 2816 
L 850 2816 
L 850 3297 
L 1978 3297 
L 2297 4594 
L 2803 4594 
z
" transform="scale(0.015625)"/>
       <path id="DejaVuSans-20" transform="scale(0.015625)"/>
       <path id="DejaVuSans-66" d="M 2375 4863 
L 2375 4384 
L 1825 4384 
Q 1516 4384 1395 4259 
Q 1275 4134 1275 3809 
L 1275 3500 
L 2222 3500 
L 2222 3053 
L 1275 3053 
L 1275 0 
L 697 0 
L 697 3053 
L 147 3053 
L 147 3500 
L 697 3500 
L 697 3744 
Q 697 4328 969 4595 
Q 1241 4863 1831 4863 
L 2375 4863 
z
" transform="scale(0.015625)"/>
       <path id="DejaVuSans-2d" d="M 313 2009 
L 1997 2009 
L 1997 1497 
L 313 1497 
L 313 2009 
z
" transform="scale(0.015625)"/>
       <path id="DejaVuSans-65" d="M 3597 1894 
L 3597 1613 
L 953 1613 
Q 991 1019 1311 708 
Q 1631 397 2203 397 
Q 2534 397 2845 478 
Q 3156 559 3463 722 
L 3463 178 
Q 3153 47 2828 -22 
Q 2503 -91 2169 -91 
Q 1331 -91 842 396 
Q 353 884 353 1716 
Q 353 2575 817 3079 
Q 1281 3584 2069 3584 
Q 2775 3584 3186 3129 
Q 3597 2675 3597 1894 
z
M 3022 2063 
Q 3016 2534 2758 2815 
Q 2500 3097 2075 3097 
Q 1594 3097 1305 2825 
Q 1016 2553 972 2059 
L 3022 2063 
z
" transform="scale(0.015625)"/>
       <path id="DejaVuSans-76" d="M 191 3500 
L 800 3500 
L 1894 563 
L 2988 3500 
L 3597 3500 
L 2284 0 
L 1503 0 
L 191 3500 
z
" transform="scale(0.015625)"/>
       <path id="DejaVuSans-61" d="M 2194 1759 
Q 1497 1759 1228 1600 
Q 959 1441 959 1056 
Q 959 750 1161 570 
Q 1363 391 1709 391 
Q 2188 391 2477 730 
Q 2766 1069 2766 1631 
L 2766 1759 
L 2194 1759 
z
M 3341 1997 
L 3341 0 
L 2766 0 
L 2766 531 
Q 2569 213 2275 61 
Q 1981 -91 1556 -91 
Q 1019 -91 701 211 
Q 384 513 384 1019 
Q 384 1609 779 1909 
Q 1175 2209 1959 2209 
L 2766 2209 
L 2766 2266 
Q 2766 2663 2505 2880 
Q 2244 3097 1772 3097 
Q 1472 3097 1187 3025 
Q 903 2953 641 2809 
L 641 3341 
Q 956 3463 1253 3523 
Q 1550 3584 1831 3584 
Q 2591 3584 2966 3190 
Q 3341 2797 3341 1997 
z
" transform="scale(0.015625)"/>
       <path id="DejaVuSans-73" d="M 2834 3397 
L 2834 2853 
Q 2591 2978 2328 3040 
Q 2066 3103 1784 3103 
Q 1356 3103 1142 2972 
Q 928 2841 928 2578 
Q 928 2378 1081 2264 
Q 1234 2150 1697 2047 
L 1894 2003 
Q 2506 1872 2764 1633 
Q 3022 1394 3022 966 
Q 3022 478 2636 193 
Q 2250 -91 1575 -91 
Q 1294 -91 989 -36 
Q 684 19 347 128 
L 347 722 
Q 666 556 975 473 
Q 1284 391 1588 391 
Q 1994 391 2212 530 
Q 2431 669 2431 922 
Q 2431 1156 2273 1281 
Q 2116 1406 1581 1522 
L 1381 1569 
Q 847 1681 609 1914 
Q 372 2147 372 2553 
Q 372 3047 722 3315 
Q 1072 3584 1716 3584 
Q 2034 3584 2315 3537 
Q 2597 3491 2834 3397 
z
" transform="scale(0.015625)"/>
       <path id="DejaVuSans-2f" d="M 1625 4666 
L 2156 4666 
L 531 -594 
L 0 -594 
L 1625 4666 
z
" transform="scale(0.015625)"/>
       <path id="DejaVuSans-64" d="M 2906 2969 
L 2906 4863 
L 3481 4863 
L 3481 0 
L 2906 0 
L 2906 525 
Q 2725 213 2448 61 
Q 2172 -91 1784 -91 
Q 1150 -91 751 415 
Q 353 922 353 1747 
Q 353 2572 751 3078 
Q 1150 3584 1784 3584 
Q 2172 3584 2448 3432 
Q 2725 3281 2906 2969 
z
M 947 1747 
Q 947 1113 1208 752 
Q 1469 391 1925 391 
Q 2381 391 2643 752 
Q 2906 1113 2906 1747 
Q 2906 2381 2643 2742 
Q 2381 3103 1925 3103 
Q 1469 3103 1208 2742 
Q 947 2381 947 1747 
z
" transform="scale(0.015625)"/>
       <path id="DejaVuSans-69" d="M 603 3500 
L 1178 3500 
L 1178 0 
L 603 0 
L 603 3500 
z
M 603 4863 
L 1178 4863 
L 1178 4134 
L 603 4134 
L 603 4863 
z
" transform="scale(0.015625)"/>
       <path id="DejaVuSans-6d" d="M 3328 2828 
Q 3544 3216 3844 3400 
Q 4144 3584 4550 3584 
Q 5097 3584 5394 3201 
Q 5691 2819 5691 2113 
L 5691 0 
L 5113 0 
L 5113 2094 
Q 5113 2597 4934 2840 
Q 4756 3084 4391 3084 
Q 3944 3084 3684 2787 
Q 3425 2491 3425 1978 
L 3425 0 
L 2847 0 
L 2847 2094 
Q 2847 2600 2669 2842 
Q 2491 3084 2119 3084 
Q 1678 3084 1418 2786 
Q 1159 2488 1159 1978 
L 1159 0 
L 581 0 
L 581 3500 
L 1159 3500 
L 1159 2956 
Q 1356 3278 1631 3431 
Q 1906 3584 2284 3584 
Q 2666 3584 2933 3390 
Q 3200 3197 3328 2828 
z
" transform="scale(0.015625)"/>
       <path id="DejaVuSans-6e" d="M 3513 2113 
L 3513 0 
L 2938 0 
L 2938 2094 
Q 2938 2591 2744 2837 
Q 2550 3084 2163 3084 
Q 1697 3084 1428 2787 
Q 1159 2491 1159 1978 
L 1159 0 
L 581 0 
L 581 3500 
L 1159 3500 
L 1159 2956 
Q 1366 3272 1645 3428 
Q 1925 3584 2291 3584 
Q 2894 3584 3203 3211 
Q 3513 2838 3513 2113 
z
" transform="scale(0.015625)"/>
       <path id="DejaVuSans-29" d="M 513 4856 
L 1013 4856 
Q 1481 4119 1714 3412 
Q 1947 2706 1947 2009 
Q 1947 1309 1714 600 
Q 1481 -109 1013 -844 
L 513 -844 
Q 928 -128 1133 580 
Q 1338 1288 1338 2009 
Q 1338 2731 1133 3434 
Q 928 4138 513 4856 
z
" transform="scale(0.015625)"/>
      </defs>
      <use xlink:href="#DejaVuSans-6c"/>
      <use xlink:href="#DejaVuSans-6f" x="27.783203"/>
      <use xlink:href="#DejaVuSans-67" x="88.964844"/>
      <use xlink:href="#DejaVuSans-31" x="152.441406"/>
      <use xlink:href="#DejaVuSans-30" x="216.064453"/>
      <use xlink:href="#DejaVuSans-28" x="279.6875"/>
      <use xlink:href="#DejaVuSans-23" x="318.701172"/>
      <use xlink:href="#DejaVuSans-20" x="402.490234"/>
      <use xlink:href="#DejaVuSans-66" x="434.277344"/>
      <use xlink:href="#DejaVuSans-2d" x="463.982422"/>
      <use xlink:href="#DejaVuSans-65" x="500.066406"/>
      <use xlink:href="#DejaVuSans-76" x="561.589844"/>
      <use xlink:href="#DejaVuSans-61" x="620.769531"/>
      <use xlink:href="#DejaVuSans-6c" x="682.048828"/>
      <use xlink:href="#DejaVuSans-73" x="709.832031"/>
      <use xlink:href="#DejaVuSans-20" x="761.931641"/>
      <use xlink:href="#DejaVuSans-2f" x="793.71875"/>
      <use xlink:href="#DejaVuSans-20" x="827.410156"/>
      <use xlink:href="#DejaVuSans-64" x="859.197266"/>
      <use xlink:href="#DejaVuSans-69" x="922.673828"/>
      <use xlink:href="#DejaVuSans-6d" x="950.457031"/>
      <use xlink:href="#DejaVuSans-65" x="1047.869141"/>
      <use xlink:href="#DejaVuSans-6e" x="1109.392578"/>
      <use xlink:href="#DejaVuSans-73" x="1172.771484"/>
      <use xlink:href="#DejaVuSans-69" x="1224.871094"/>
      <use xlink:href="#DejaVuSans-6f" x="1252.654297"/>
      <use xlink:href="#DejaVuSans-6e" x="1313.835938"/>
      <use xlink:href="#DejaVuSans-29" x="1377.214844"/>
     </g>
    </g>
   </g>
   <g id="matplotlib.axis_2">
    <g id="ytick_1">
     <g id="line2d_21">
      <path d="M 57.6 298.944 
L 360.8064 298.944 
" clip-path="url(#p6a81fb28a3)" style="fill: none; stroke: #b0b0b0; stroke-width: 0.8; stroke-linecap: square"/>
     </g>
     <g id="line2d_22">
      <defs>
       <path id="mcf91bf60ec" d="M 0 0 
L -3.5 0 
" style="stroke: #000000; stroke-width: 0.8"/>
      </defs>
      <g>
       <use xlink:href="#mcf91bf60ec" x="57.6" y="298.944" style="stroke: #000000; stroke-width: 0.8"/>
      </g>
     </g>
     <g id="text_6">
      <!-- 0.0 -->
      <g transform="translate(25.155 305.02275)scale(0.16 -0.16)">
       <defs>
        <path id="DejaVuSans-2e" d="M 684 794 
L 1344 794 
L 1344 0 
L 684 0 
L 684 794 
z
" transform="scale(0.015625)"/>
       </defs>
       <use xlink:href="#DejaVuSans-30"/>
       <use xlink:href="#DejaVuSans-2e" x="63.623047"/>
       <use xlink:href="#DejaVuSans-30" x="95.410156"/>
      </g>
     </g>
    </g>
    <g id="ytick_2">
     <g id="line2d_23">
      <path d="M 57.6 240.5376 
L 360.8064 240.5376 
" clip-path="url(#p6a81fb28a3)" style="fill: none; stroke: #b0b0b0; stroke-width: 0.8; stroke-linecap: square"/>
     </g>
     <g id="line2d_24">
      <g>
       <use xlink:href="#mcf91bf60ec" x="57.6" y="240.5376" style="stroke: #000000; stroke-width: 0.8"/>
      </g>
     </g>
     <g id="text_7">
      <!-- 0.2 -->
      <g transform="translate(25.155 246.61635)scale(0.16 -0.16)">
       <use xlink:href="#DejaVuSans-30"/>
       <use xlink:href="#DejaVuSans-2e" x="63.623047"/>
       <use xlink:href="#DejaVuSans-32" x="95.410156"/>
      </g>
     </g>
    </g>
    <g id="ytick_3">
     <g id="line2d_25">
      <path d="M 57.6 182.1312 
L 360.8064 182.1312 
" clip-path="url(#p6a81fb28a3)" style="fill: none; stroke: #b0b0b0; stroke-width: 0.8; stroke-linecap: square"/>
     </g>
     <g id="line2d_26">
      <g>
       <use xlink:href="#mcf91bf60ec" x="57.6" y="182.1312" style="stroke: #000000; stroke-width: 0.8"/>
      </g>
     </g>
     <g id="text_8">
      <!-- 0.4 -->
      <g transform="translate(25.155 188.20995)scale(0.16 -0.16)">
       <use xlink:href="#DejaVuSans-30"/>
       <use xlink:href="#DejaVuSans-2e" x="63.623047"/>
       <use xlink:href="#DejaVuSans-34" x="95.410156"/>
      </g>
     </g>
    </g>
    <g id="ytick_4">
     <g id="line2d_27">
      <path d="M 57.6 123.7248 
L 360.8064 123.7248 
" clip-path="url(#p6a81fb28a3)" style="fill: none; stroke: #b0b0b0; stroke-width: 0.8; stroke-linecap: square"/>
     </g>
     <g id="line2d_28">
      <g>
       <use xlink:href="#mcf91bf60ec" x="57.6" y="123.7248" style="stroke: #000000; stroke-width: 0.8"/>
      </g>
     </g>
     <g id="text_9">
      <!-- 0.6 -->
      <g transform="translate(25.155 129.80355)scale(0.16 -0.16)">
       <use xlink:href="#DejaVuSans-30"/>
       <use xlink:href="#DejaVuSans-2e" x="63.623047"/>
       <use xlink:href="#DejaVuSans-36" x="95.410156"/>
      </g>
     </g>
    </g>
    <g id="ytick_5">
     <g id="line2d_29">
      <path d="M 57.6 65.3184 
L 360.8064 65.3184 
" clip-path="url(#p6a81fb28a3)" style="fill: none; stroke: #b0b0b0; stroke-width: 0.8; stroke-linecap: square"/>
     </g>
     <g id="line2d_30">
      <g>
       <use xlink:href="#mcf91bf60ec" x="57.6" y="65.3184" style="stroke: #000000; stroke-width: 0.8"/>
      </g>
     </g>
     <g id="text_10">
      <!-- 0.8 -->
      <g transform="translate(25.155 71.39715)scale(0.16 -0.16)">
       <defs>
        <path id="DejaVuSans-38" d="M 2034 2216 
Q 1584 2216 1326 1975 
Q 1069 1734 1069 1313 
Q 1069 891 1326 650 
Q 1584 409 2034 409 
Q 2484 409 2743 651 
Q 3003 894 3003 1313 
Q 3003 1734 2745 1975 
Q 2488 2216 2034 2216 
z
M 1403 2484 
Q 997 2584 770 2862 
Q 544 3141 544 3541 
Q 544 4100 942 4425 
Q 1341 4750 2034 4750 
Q 2731 4750 3128 4425 
Q 3525 4100 3525 3541 
Q 3525 3141 3298 2862 
Q 3072 2584 2669 2484 
Q 3125 2378 3379 2068 
Q 3634 1759 3634 1313 
Q 3634 634 3220 271 
Q 2806 -91 2034 -91 
Q 1263 -91 848 271 
Q 434 634 434 1313 
Q 434 1759 690 2068 
Q 947 2378 1403 2484 
z
M 1172 3481 
Q 1172 3119 1398 2916 
Q 1625 2713 2034 2713 
Q 2441 2713 2670 2916 
Q 2900 3119 2900 3481 
Q 2900 3844 2670 4047 
Q 2441 4250 2034 4250 
Q 1625 4250 1398 4047 
Q 1172 3844 1172 3481 
z
" transform="scale(0.015625)"/>
       </defs>
       <use xlink:href="#DejaVuSans-30"/>
       <use xlink:href="#DejaVuSans-2e" x="63.623047"/>
       <use xlink:href="#DejaVuSans-38" x="95.410156"/>
      </g>
     </g>
    </g>
    <g id="ytick_6">
     <g id="line2d_31">
      <path d="M 57.6 6.912 
L 360.8064 6.912 
" clip-path="url(#p6a81fb28a3)" style="fill: none; stroke: #b0b0b0; stroke-width: 0.8; stroke-linecap: square"/>
     </g>
     <g id="line2d_32">
      <g>
       <use xlink:href="#mcf91bf60ec" x="57.6" y="6.912" style="stroke: #000000; stroke-width: 0.8"/>
      </g>
     </g>
     <g id="text_11">
      <!-- 1.0 -->
      <g transform="translate(25.155 12.99075)scale(0.16 -0.16)">
       <use xlink:href="#DejaVuSans-31"/>
       <use xlink:href="#DejaVuSans-2e" x="63.623047"/>
       <use xlink:href="#DejaVuSans-30" x="95.410156"/>
      </g>
     </g>
    </g>
    <g id="text_12">
     <!-- Fraction of function,target pairs -->
     <g transform="translate(17.619531 287.313)rotate(-90)scale(0.17 -0.17)">
      <defs>
       <path id="DejaVuSans-46" d="M 628 4666 
L 3309 4666 
L 3309 4134 
L 1259 4134 
L 1259 2759 
L 3109 2759 
L 3109 2228 
L 1259 2228 
L 1259 0 
L 628 0 
L 628 4666 
z
" transform="scale(0.015625)"/>
       <path id="DejaVuSans-72" d="M 2631 2963 
Q 2534 3019 2420 3045 
Q 2306 3072 2169 3072 
Q 1681 3072 1420 2755 
Q 1159 2438 1159 1844 
L 1159 0 
L 581 0 
L 581 3500 
L 1159 3500 
L 1159 2956 
Q 1341 3275 1631 3429 
Q 1922 3584 2338 3584 
Q 2397 3584 2469 3576 
Q 2541 3569 2628 3553 
L 2631 2963 
z
" transform="scale(0.015625)"/>
       <path id="DejaVuSans-63" d="M 3122 3366 
L 3122 2828 
Q 2878 2963 2633 3030 
Q 2388 3097 2138 3097 
Q 1578 3097 1268 2742 
Q 959 2388 959 1747 
Q 959 1106 1268 751 
Q 1578 397 2138 397 
Q 2388 397 2633 464 
Q 2878 531 3122 666 
L 3122 134 
Q 2881 22 2623 -34 
Q 2366 -91 2075 -91 
Q 1284 -91 818 406 
Q 353 903 353 1747 
Q 353 2603 823 3093 
Q 1294 3584 2113 3584 
Q 2378 3584 2631 3529 
Q 2884 3475 3122 3366 
z
" transform="scale(0.015625)"/>
       <path id="DejaVuSans-74" d="M 1172 4494 
L 1172 3500 
L 2356 3500 
L 2356 3053 
L 1172 3053 
L 1172 1153 
Q 1172 725 1289 603 
Q 1406 481 1766 481 
L 2356 481 
L 2356 0 
L 1766 0 
Q 1100 0 847 248 
Q 594 497 594 1153 
L 594 3053 
L 172 3053 
L 172 3500 
L 594 3500 
L 594 4494 
L 1172 4494 
z
" transform="scale(0.015625)"/>
       <path id="DejaVuSans-75" d="M 544 1381 
L 544 3500 
L 1119 3500 
L 1119 1403 
Q 1119 906 1312 657 
Q 1506 409 1894 409 
Q 2359 409 2629 706 
Q 2900 1003 2900 1516 
L 2900 3500 
L 3475 3500 
L 3475 0 
L 2900 0 
L 2900 538 
Q 2691 219 2414 64 
Q 2138 -91 1772 -91 
Q 1169 -91 856 284 
Q 544 659 544 1381 
z
M 1991 3584 
L 1991 3584 
z
" transform="scale(0.015625)"/>
       <path id="DejaVuSans-2c" d="M 750 794 
L 1409 794 
L 1409 256 
L 897 -744 
L 494 -744 
L 750 256 
L 750 794 
z
" transform="scale(0.015625)"/>
       <path id="DejaVuSans-70" d="M 1159 525 
L 1159 -1331 
L 581 -1331 
L 581 3500 
L 1159 3500 
L 1159 2969 
Q 1341 3281 1617 3432 
Q 1894 3584 2278 3584 
Q 2916 3584 3314 3078 
Q 3713 2572 3713 1747 
Q 3713 922 3314 415 
Q 2916 -91 2278 -91 
Q 1894 -91 1617 61 
Q 1341 213 1159 525 
z
M 3116 1747 
Q 3116 2381 2855 2742 
Q 2594 3103 2138 3103 
Q 1681 3103 1420 2742 
Q 1159 2381 1159 1747 
Q 1159 1113 1420 752 
Q 1681 391 2138 391 
Q 2594 391 2855 752 
Q 3116 1113 3116 1747 
z
" transform="scale(0.015625)"/>
      </defs>
      <use xlink:href="#DejaVuSans-46"/>
      <use xlink:href="#DejaVuSans-72" x="50.269531"/>
      <use xlink:href="#DejaVuSans-61" x="91.382812"/>
      <use xlink:href="#DejaVuSans-63" x="152.662109"/>
      <use xlink:href="#DejaVuSans-74" x="207.642578"/>
      <use xlink:href="#DejaVuSans-69" x="246.851562"/>
      <use xlink:href="#DejaVuSans-6f" x="274.634766"/>
      <use xlink:href="#DejaVuSans-6e" x="335.816406"/>
      <use xlink:href="#DejaVuSans-20" x="399.195312"/>
      <use xlink:href="#DejaVuSans-6f" x="430.982422"/>
      <use xlink:href="#DejaVuSans-66" x="492.164062"/>
      <use xlink:href="#DejaVuSans-20" x="527.369141"/>
      <use xlink:href="#DejaVuSans-66" x="559.15625"/>
      <use xlink:href="#DejaVuSans-75" x="594.361328"/>
      <use xlink:href="#DejaVuSans-6e" x="657.740234"/>
      <use xlink:href="#DejaVuSans-63" x="721.119141"/>
      <use xlink:href="#DejaVuSans-74" x="776.099609"/>
      <use xlink:href="#DejaVuSans-69" x="815.308594"/>
      <use xlink:href="#DejaVuSans-6f" x="843.091797"/>
      <use xlink:href="#DejaVuSans-6e" x="904.273438"/>
      <use xlink:href="#DejaVuSans-2c" x="967.652344"/>
      <use xlink:href="#DejaVuSans-74" x="999.439453"/>
      <use xlink:href="#DejaVuSans-61" x="1038.648438"/>
      <use xlink:href="#DejaVuSans-72" x="1099.927734"/>
      <use xlink:href="#DejaVuSans-67" x="1139.291016"/>
      <use xlink:href="#DejaVuSans-65" x="1202.767578"/>
      <use xlink:href="#DejaVuSans-74" x="1264.291016"/>
      <use xlink:href="#DejaVuSans-20" x="1303.5"/>
      <use xlink:href="#DejaVuSans-70" x="1335.287109"/>
      <use xlink:href="#DejaVuSans-61" x="1398.763672"/>
      <use xlink:href="#DejaVuSans-69" x="1460.042969"/>
      <use xlink:href="#DejaVuSans-72" x="1487.826172"/>
      <use xlink:href="#DejaVuSans-73" x="1528.939453"/>
     </g>
    </g>
   </g>
   <g id="line2d_33">
    <defs>
     <path id="ma297938c54" d="M 0 1.5 
C 0.397805 1.5 0.77937 1.341951 1.06066 1.06066 
C 1.341951 0.77937 1.5 0.397805 1.5 0 
C 1.5 -0.397805 1.341951 -0.77937 1.06066 -1.06066 
C 0.77937 -1.341951 0.397805 -1.5 0 -1.5 
C -0.397805 -1.5 -0.77937 -1.341951 -1.06066 -1.06066 
C -1.341951 -0.77937 -1.5 -0.397805 -1.5 0 
C -1.5 0.397805 -1.341951 0.77937 -1.06066 1.06066 
C -0.77937 1.341951 -0.397805 1.5 0 1.5 
z
" style="stroke: #f5deb3"/>
    </defs>
    <g>
     <use xlink:href="#ma297938c54" x="308.269931" y="42.157241" style="fill: #f5deb3; stroke: #f5deb3"/>
     <use xlink:href="#ma297938c54" x="308.269931" y="42.157241" style="fill: #f5deb3; stroke: #f5deb3"/>
    </g>
   </g>
   <g id="line2d_34">
    <defs>
     <path id="m3267bf6259" d="M 0 1.5 
C 0.397805 1.5 0.77937 1.341951 1.06066 1.06066 
C 1.341951 0.77937 1.5 0.397805 1.5 0 
C 1.5 -0.397805 1.341951 -0.77937 1.06066 -1.06066 
C 0.77937 -1.341951 0.397805 -1.5 0 -1.5 
C -0.397805 -1.5 -0.77937 -1.341951 -1.06066 -1.06066 
C -1.341951 -0.77937 -1.5 -0.397805 -1.5 0 
C -1.5 0.397805 -1.341951 0.77937 -1.06066 1.06066 
C -0.77937 1.341951 -0.397805 1.5 0 1.5 
z
" style="stroke: #000080"/>
    </defs>
    <g>
     <use xlink:href="#m3267bf6259" x="79.480672" y="283.335393" style="fill: #000080; stroke: #000080"/>
     <use xlink:href="#m3267bf6259" x="79.480672" y="283.335393" style="fill: #000080; stroke: #000080"/>
    </g>
   </g>
   <g id="line2d_35">
    <path d="M 14.2848 298.944 
L 14.2848 288.873931 
L 27.323974 288.873931 
L 27.323974 288.370428 
L 44.560826 288.370428 
L 44.560826 288.202593 
L 47.990577 288.202593 
L 47.990577 288.034759 
L 50.890391 288.034759 
L 50.890391 287.69909 
L 53.402323 287.69909 
L 53.402323 287.531255 
L 59.392932 287.531255 
L 59.392932 287.363421 
L 61.029752 287.363421 
L 61.029752 287.027752 
L 62.535479 287.027752 
L 62.535479 286.524248 
L 63.929565 286.524248 
L 63.929565 286.356414 
L 70.639174 286.356414 
L 70.639174 286.188579 
L 73.268314 286.188579 
L 73.268314 286.020745 
L 74.068926 286.020745 
L 74.068926 285.85291 
L 74.836851 285.85291 
L 74.836851 285.517241 
L 75.574654 285.517241 
L 75.574654 285.013738 
L 77.628862 285.013738 
L 77.628862 284.678069 
L 79.480672 284.678069 
L 79.480672 283.335393 
L 360.8064 283.335393 
" style="fill: none; stroke: #000080; stroke-width: 1.5; stroke-linecap: square"/>
   </g>
   <g id="line2d_36">
    <defs>
     <path id="m0b1acfdaeb" d="M 0 6 
C 1.591219 6 3.117479 5.367802 4.242641 4.242641 
C 5.367802 3.117479 6 1.591219 6 0 
C 6 -1.591219 5.367802 -3.117479 4.242641 -4.242641 
C 3.117479 -5.367802 1.591219 -6 0 -6 
C -1.591219 -6 -3.117479 -5.367802 -4.242641 -4.242641 
C -5.367802 -3.117479 -6 -1.591219 -6 0 
C -6 1.591219 -5.367802 3.117479 -4.242641 4.242641 
C -3.117479 5.367802 -1.591219 6 0 6 
z
" style="stroke: #000080; stroke-width: 1.5"/>
    </defs>
    <g>
     <use xlink:href="#m0b1acfdaeb" x="79.480672" y="284.678069" style="fill-opacity: 0; stroke: #000080; stroke-width: 1.5"/>
     <use xlink:href="#m0b1acfdaeb" x="79.480672" y="284.678069" style="fill-opacity: 0; stroke: #000080; stroke-width: 1.5"/>
     <use xlink:href="#m0b1acfdaeb" x="79.480672" y="283.335393" style="fill-opacity: 0; stroke: #000080; stroke-width: 1.5"/>
     <use xlink:href="#m0b1acfdaeb" x="79.480672" y="283.335393" style="fill-opacity: 0; stroke: #000080; stroke-width: 1.5"/>
     <use xlink:href="#m0b1acfdaeb" x="79.480672" y="283.335393" style="fill-opacity: 0; stroke: #000080; stroke-width: 1.5"/>
     <use xlink:href="#m0b1acfdaeb" x="360.8064" y="283.335393" style="fill-opacity: 0; stroke: #000080; stroke-width: 1.5"/>
    </g>
   </g>
   <g id="line2d_37">
    <path style="fill: none; stroke: #000080; stroke-width: 1.5; stroke-linecap: square"/>
    <g/>
   </g>
   <g id="line2d_38">
    <path d="M 79.480672 283.335393 
" clip-path="url(#p6a81fb28a3)" style="fill: none; stroke: #000080; stroke-width: 1.5; stroke-linecap: square"/>
    <defs>
     <path id="ma98fd74429" d="M -12 12 
L 12 -12 
M -12 -12 
L 12 12 
" style="stroke: #000080"/>
    </defs>
    <g clip-path="url(#p6a81fb28a3)">
     <use xlink:href="#ma98fd74429" x="79.480672" y="283.335393" style="fill: #000080; stroke: #000080"/>
    </g>
   </g>
   <g id="line2d_39">
    <defs>
     <path id="m6d0cc51d24" d="M 0 1.5 
C 0.397805 1.5 0.77937 1.341951 1.06066 1.06066 
C 1.341951 0.77937 1.5 0.397805 1.5 0 
C 1.5 -0.397805 1.341951 -0.77937 1.06066 -1.06066 
C 0.77937 -1.341951 0.397805 -1.5 0 -1.5 
C -0.397805 -1.5 -0.77937 -1.341951 -1.06066 -1.06066 
C -1.341951 -0.77937 -1.5 -0.397805 -1.5 0 
C -1.5 0.397805 -1.341951 0.77937 -1.06066 1.06066 
C -0.77937 1.341951 -0.397805 1.5 0 1.5 
z
" style="stroke: #ff00ff"/>
    </defs>
    <g>
     <use xlink:href="#m6d0cc51d24" x="272.512244" y="177.096166" style="fill: #ff00ff; stroke: #ff00ff"/>
     <use xlink:href="#m6d0cc51d24" x="272.512244" y="177.096166" style="fill: #ff00ff; stroke: #ff00ff"/>
    </g>
   </g>
   <g id="line2d_40">
    <path d="M 14.2848 298.944 
L 14.2848 288.873931 
L 44.560826 288.873931 
L 44.560826 288.706097 
L 62.535479 288.706097 
L 62.535479 288.538262 
L 63.929565 288.538262 
L 63.929565 288.370428 
L 87.876026 288.370428 
L 87.876026 288.034759 
L 93.66029 288.034759 
L 93.66029 287.69909 
L 96.717523 287.69909 
L 96.717523 287.531255 
L 101.653002 287.531255 
L 101.653002 287.363421 
L 106.42077 287.363421 
L 106.42077 287.195586 
L 106.699465 287.195586 
L 106.699465 287.027752 
L 107.109915 287.027752 
L 107.109915 286.859917 
L 107.244765 286.859917 
L 107.244765 286.692083 
L 107.378656 286.692083 
L 107.378656 286.524248 
L 110.106149 286.524248 
L 110.106149 286.356414 
L 110.562208 286.356414 
L 110.562208 286.188579 
L 110.674517 286.188579 
L 110.674517 286.020745 
L 111.117162 286.020745 
L 111.117162 285.85291 
L 111.656212 285.85291 
L 111.656212 285.517241 
L 114.326893 285.517241 
L 114.418881 285.181572 
L 116.002095 285.181572 
L 116.086263 284.845903 
L 117.1475 284.845903 
L 117.1475 284.678069 
L 117.384126 284.678069 
L 117.462345 284.174566 
L 118.376446 284.174566 
L 118.450653 283.838897 
L 118.889854 283.838897 
L 118.889854 283.671062 
L 120.0813 283.671062 
L 120.149089 283.335393 
L 122.076872 283.335393 
L 122.076872 283.167559 
L 122.19863 283.167559 
L 122.19863 282.999724 
L 122.913079 282.999724 
L 122.913079 282.664055 
L 124.373813 282.664055 
L 124.481616 281.992717 
L 126.225624 281.992717 
L 126.225624 281.824883 
L 127.686077 281.824883 
L 127.686077 281.657048 
L 127.821575 281.657048 
L 127.821575 281.489214 
L 128.310214 281.489214 
L 128.310214 281.153545 
L 129.167381 281.153545 
L 129.167381 280.98571 
L 129.54072 280.98571 
L 129.54072 280.817876 
L 130.734242 280.817876 
L 130.734242 280.650041 
L 132.499119 280.650041 
L 132.499119 280.482207 
L 133.754819 280.482207 
L 133.853052 280.146538 
L 136.612375 280.146538 
L 136.612375 279.978703 
L 136.947806 279.978703 
L 136.97549 279.4752 
L 137.493898 279.4752 
L 137.601239 279.139531 
L 139.289277 279.139531 
L 139.289277 278.971697 
L 139.652679 278.971697 
L 139.652679 278.803862 
L 139.914782 278.803862 
L 139.914782 278.636028 
L 140.243172 278.636028 
L 140.243172 278.468193 
L 140.428281 278.468193 
L 140.428281 278.300359 
L 140.770526 278.300359 
L 140.793122 277.96469 
L 140.928134 277.96469 
L 140.928134 277.796855 
L 142.143605 277.796855 
L 142.248405 277.125517 
L 142.620923 277.125517 
L 142.620923 276.789848 
L 142.885449 276.789848 
L 142.885449 276.622014 
L 143.285285 276.622014 
L 143.285285 276.454179 
L 143.442869 276.454179 
L 143.462475 275.782841 
L 144.06033 275.782841 
L 144.06033 275.615007 
L 144.28675 275.615007 
L 144.28675 275.447172 
L 144.841158 275.447172 
L 144.841158 275.111503 
L 145.022388 275.111503 
L 145.022388 274.943669 
L 145.291002 274.943669 
L 145.308773 274.608 
L 145.538293 274.608 
L 145.538293 274.440166 
L 145.765046 274.440166 
L 145.83427 274.104497 
L 146.27812 274.104497 
L 146.27812 273.768828 
L 146.562769 273.768828 
L 146.562769 273.600993 
L 146.941151 273.600993 
L 146.973697 272.761821 
L 147.103321 272.761821 
L 147.103321 272.426152 
L 147.264104 272.426152 
L 147.264104 272.258317 
L 147.423525 272.258317 
L 147.423525 272.090483 
L 147.550096 272.090483 
L 147.550096 271.586979 
L 147.691478 271.586979 
L 147.785146 271.083476 
L 147.878349 271.083476 
L 147.986506 270.579972 
L 148.458151 270.579972 
L 148.47317 270.076469 
L 148.622706 270.076469 
L 148.622706 269.908634 
L 148.741485 269.908634 
L 148.771063 269.405131 
L 149.151403 269.405131 
L 149.151403 269.069462 
L 149.2669 269.069462 
L 149.338728 268.565959 
L 149.65155 268.565959 
L 149.65155 268.23029 
L 149.820013 268.23029 
L 149.820013 268.062455 
L 150.193627 268.062455 
L 150.302917 267.391117 
L 150.411576 267.391117 
L 150.519611 265.041434 
L 150.667154 265.041434 
L 150.707193 264.705766 
L 150.971962 264.705766 
L 150.971962 264.537931 
L 151.400845 264.537931 
L 151.41369 264.034428 
L 151.516136 264.034428 
L 151.554409 263.698759 
L 151.643413 263.698759 
L 151.643413 263.530924 
L 151.795018 263.530924 
L 151.795018 263.195255 
L 151.907925 263.195255 
L 151.95789 262.523917 
L 152.303973 262.523917 
L 152.377312 261.51691 
L 152.486788 261.51691 
L 152.486788 261.349076 
L 152.607685 261.349076 
L 152.643804 260.845572 
L 152.989417 260.845572 
L 153.071898 259.502897 
L 153.432886 259.502897 
L 153.432886 259.335062 
L 153.605101 259.335062 
L 153.696309 258.831559 
L 153.866141 258.831559 
L 153.866141 258.49589 
L 154.067935 258.49589 
L 154.168026 257.321048 
L 154.179115 257.321048 
L 154.179115 256.985379 
L 154.530538 256.985379 
L 154.639024 256.146207 
L 154.811312 256.146207 
L 154.811312 255.978372 
L 155.024477 255.978372 
L 155.024477 255.810538 
L 155.485105 255.810538 
L 155.567658 255.1392 
L 155.813163 255.1392 
L 155.813163 254.803531 
L 156.165543 254.803531 
L 156.165543 254.467862 
L 156.324459 254.467862 
L 156.393565 254.132193 
L 156.511445 254.132193 
L 156.599372 253.460855 
L 156.822226 253.460855 
L 156.822226 253.293021 
L 157.175281 253.293021 
L 157.194177 252.789517 
L 157.30716 252.789517 
L 157.30716 252.286014 
L 157.456756 252.286014 
L 157.466066 251.950345 
L 157.715719 251.950345 
L 157.752425 250.775503 
L 157.843876 250.775503 
L 157.934885 250.104166 
L 157.971166 250.104166 
L 157.971166 249.936331 
L 158.285673 249.936331 
L 158.330176 249.264993 
L 158.498335 249.264993 
L 158.577468 248.76149 
L 158.673735 248.76149 
L 158.74344 248.090152 
L 158.907961 248.090152 
L 158.907961 247.922317 
L 159.036837 247.922317 
L 159.088142 247.250979 
L 159.181837 247.250979 
L 159.181837 246.91531 
L 159.342585 246.91531 
L 159.418251 245.908303 
L 159.460157 245.908303 
L 159.460157 245.740469 
L 159.618554 245.740469 
L 159.709651 244.733462 
L 159.734419 244.733462 
L 159.841374 244.062124 
L 159.849576 244.062124 
L 159.931401 243.558621 
L 159.996606 243.558621 
L 159.996606 243.222952 
L 160.110173 243.222952 
L 160.215018 242.551614 
L 160.223059 242.551614 
L 160.223059 242.383779 
L 160.438872 242.383779 
L 160.549809 241.544607 
L 160.557708 241.544607 
L 160.636516 240.873269 
L 160.707162 240.873269 
L 160.777545 240.034097 
L 160.933013 240.034097 
L 161.041081 239.698428 
L 161.102557 239.698428 
L 161.102557 239.530593 
L 161.217285 239.530593 
L 161.316153 239.194924 
L 161.391854 239.194924 
L 161.391854 239.02709 
L 161.55733 239.02709 
L 161.617145 238.187917 
L 161.788059 238.187917 
L 161.88398 237.516579 
L 161.928087 237.516579 
L 162.008681 237.18091 
L 162.183335 237.18091 
L 162.183335 237.013076 
L 162.356383 237.013076 
L 162.38507 236.173903 
L 162.485131 236.173903 
L 162.485131 236.006069 
L 162.59884 236.006069 
L 162.620084 235.6704 
L 162.754075 235.6704 
L 162.810208 234.663393 
L 162.915008 234.663393 
L 162.915008 234.327724 
L 163.040002 234.327724 
L 163.129762 233.824221 
L 163.191653 233.824221 
L 163.301182 233.152883 
L 163.437203 233.152883 
L 163.504846 232.649379 
L 163.666204 232.649379 
L 163.713007 232.31371 
L 163.951887 232.31371 
L 164.024277 231.810207 
L 164.135608 231.810207 
L 164.155187 231.306703 
L 164.259262 231.306703 
L 164.362764 230.971034 
L 164.382108 230.971034 
L 164.433594 230.635366 
L 164.548924 230.635366 
L 164.568077 230.299697 
L 164.796406 230.299697 
L 164.897003 229.796193 
L 164.928329 229.796193 
L 164.959603 229.29269 
L 165.170902 229.29269 
L 165.183257 228.957021 
L 165.507761 228.957021 
L 165.507761 228.621352 
L 165.634805 228.621352 
L 165.713024 227.950014 
L 166.099311 227.950014 
L 166.140442 226.943007 
L 166.23412 226.943007 
L 166.251633 226.271669 
L 166.367969 226.271669 
L 166.448979 225.432497 
L 166.483591 225.432497 
L 166.523891 224.928993 
L 166.644276 224.928993 
L 166.644276 224.761159 
L 166.854526 224.761159 
L 166.939098 224.257655 
L 166.995269 224.257655 
L 166.995269 223.921986 
L 167.112684 223.921986 
L 167.212746 222.747145 
L 167.334325 222.747145 
L 167.411287 222.411476 
L 167.509777 222.411476 
L 167.564271 222.075807 
L 167.634879 222.075807 
L 167.634879 221.740138 
L 167.753769 221.740138 
L 167.786064 221.404469 
L 167.91469 221.404469 
L 167.91469 221.236634 
L 168.026521 221.236634 
L 168.132413 220.229628 
L 168.142969 220.229628 
L 168.237711 219.726124 
L 168.446557 219.726124 
L 168.550116 218.886952 
L 168.740211 218.886952 
L 168.847255 218.551283 
L 168.857418 218.551283 
L 168.943582 217.879945 
L 169.064557 217.879945 
L 169.064557 217.71211 
L 169.333939 217.71211 
L 169.368578 217.040772 
L 169.467197 217.040772 
L 169.545722 216.2016 
L 169.875843 216.2016 
L 169.986203 215.530262 
L 169.995769 215.530262 
L 169.995769 215.362428 
L 170.138678 215.362428 
L 170.138678 215.194593 
L 170.256946 215.194593 
L 170.256946 215.026759 
L 170.430628 215.026759 
L 170.50524 214.523255 
L 170.598091 214.523255 
L 170.639725 214.019752 
L 170.731916 214.019752 
L 170.787015 213.684083 
L 170.860229 213.684083 
L 170.92861 212.509241 
L 170.996743 212.509241 
L 170.996743 212.341407 
L 171.118765 212.341407 
L 171.123269 212.005738 
L 171.329302 212.005738 
L 171.378239 211.670069 
L 171.458043 211.670069 
L 171.484569 210.663062 
L 171.669213 210.663062 
L 171.717274 210.327393 
L 172.161441 210.327393 
L 172.182738 209.991724 
L 172.499332 209.991724 
L 172.595363 209.656055 
L 172.657728 209.656055 
L 172.661879 209.152552 
L 172.79833 209.152552 
L 172.823033 208.649048 
L 173.064236 208.649048 
L 173.10076 208.145545 
L 173.358456 208.145545 
L 173.442249 207.138538 
L 173.478047 207.138538 
L 173.565266 206.131531 
L 173.608724 206.131531 
L 173.695341 205.292359 
L 173.914037 205.292359 
L 173.956698 204.788855 
L 174.099488 204.788855 
L 174.20683 204.285352 
L 174.355328 204.285352 
L 174.404568 203.614014 
L 174.476303 203.614014 
L 174.581522 202.774841 
L 174.607735 202.774841 
L 174.607735 202.607007 
L 174.793915 202.607007 
L 174.882632 201.6 
L 175.135386 201.6 
L 175.160839 201.096497 
L 175.265921 201.096497 
L 175.359637 200.592993 
L 175.388379 200.592993 
L 175.388379 200.257324 
L 175.545679 200.257324 
L 175.588351 199.753821 
L 175.659258 199.753821 
L 175.659258 199.418152 
L 175.985509 199.418152 
L 176.079176 198.746814 
L 176.186149 198.746814 
L 176.186149 198.578979 
L 176.388076 198.578979 
L 176.388076 198.24331 
L 176.92501 198.24331 
L 176.92501 198.075476 
L 177.184574 198.075476 
L 177.184574 197.739807 
L 177.372886 197.739807 
L 177.372886 197.571972 
L 177.584904 197.571972 
L 177.591292 197.068469 
L 177.718591 197.068469 
L 177.718591 196.900634 
L 177.923632 196.900634 
L 177.986274 196.397131 
L 178.18534 196.397131 
L 178.253286 195.893628 
L 178.324058 195.893628 
L 178.373134 195.557959 
L 178.583321 195.557959 
L 178.631727 194.718786 
L 179.041177 194.718786 
L 179.064813 194.383117 
L 179.436116 194.383117 
L 179.436116 194.215283 
L 179.60041 194.215283 
L 179.623354 193.711779 
L 179.84844 193.711779 
L 179.84844 193.543945 
L 179.995142 193.543945 
L 180.070865 193.208276 
L 180.301752 193.208276 
L 180.351453 192.536938 
L 180.417516 192.536938 
L 180.417516 192.369103 
L 180.70114 192.369103 
L 180.70114 192.201269 
L 181.03913 192.201269 
L 181.081618 191.529931 
L 181.410292 191.529931 
L 181.410292 191.194262 
L 181.638283 191.194262 
L 181.638283 191.026428 
L 182.400335 191.026428 
L 182.400335 190.858593 
L 182.825777 190.858593 
L 182.825777 190.522924 
L 182.958279 190.522924 
L 183.037334 190.019421 
L 183.189713 190.019421 
L 183.189713 189.683752 
L 184.256782 189.683752 
L 184.256782 189.515917 
L 184.377384 189.515917 
L 184.377384 189.348083 
L 185.351304 189.348083 
L 185.414614 188.50891 
L 185.544784 188.50891 
L 185.544784 188.341076 
L 186.455528 188.341076 
L 186.455528 188.173241 
L 187.797857 188.173241 
L 187.797857 187.837572 
L 189.377825 187.837572 
L 189.377825 187.669738 
L 190.087842 187.669738 
L 190.087842 187.501903 
L 190.316517 187.501903 
L 190.316517 187.334069 
L 191.768843 187.334069 
L 191.804878 186.9984 
L 194.018392 186.9984 
L 194.018392 186.662731 
L 195.238129 186.662731 
L 195.238129 186.494897 
L 196.837835 186.494897 
L 196.837835 186.159228 
L 198.988613 186.159228 
L 198.988613 185.991393 
L 200.00112 185.991393 
L 200.00112 185.823559 
L 200.180721 185.823559 
L 200.180721 185.655724 
L 201.953986 185.655724 
L 201.953986 185.320055 
L 202.148872 185.320055 
L 202.148872 185.152221 
L 204.969632 185.152221 
L 204.969632 184.984386 
L 207.7732 184.984386 
L 207.7732 184.648717 
L 209.130021 184.648717 
L 209.130021 184.480883 
L 209.441551 184.480883 
L 209.441551 184.145214 
L 210.782361 184.145214 
L 210.782361 183.809545 
L 210.90666 183.809545 
L 210.90666 183.64171 
L 218.118747 183.64171 
L 218.118747 183.306041 
L 220.209748 183.306041 
L 220.209748 183.138207 
L 223.038323 183.138207 
L 223.038323 182.970372 
L 225.45106 182.970372 
L 225.45106 182.634703 
L 228.233279 182.634703 
L 228.317022 182.1312 
L 228.475285 182.1312 
L 228.475285 181.963366 
L 228.822915 181.963366 
L 228.822915 181.795531 
L 229.205571 181.795531 
L 229.205571 181.459862 
L 229.613995 181.459862 
L 229.613995 181.124193 
L 229.99346 181.124193 
L 230.072681 180.62069 
L 230.225848 180.62069 
L 230.225848 180.285021 
L 237.314914 180.285021 
L 237.314914 180.117186 
L 243.142236 180.117186 
L 243.142236 179.781517 
L 243.48525 179.781517 
L 243.48525 179.613683 
L 244.051734 179.613683 
L 244.051734 179.445848 
L 244.563923 179.445848 
L 244.563923 179.278014 
L 248.158877 179.278014 
L 248.158877 178.942345 
L 252.868491 178.942345 
L 252.868491 178.77451 
L 256.125069 178.77451 
L 256.125069 178.606676 
L 261.171407 178.606676 
L 261.171407 178.271007 
L 265.022394 178.271007 
L 265.022394 177.935338 
L 266.17108 177.935338 
L 266.17108 177.767503 
L 268.297554 177.767503 
L 268.297554 177.431834 
L 268.458745 177.431834 
L 268.458745 177.264 
L 272.512244 177.264 
L 272.512244 177.096166 
L 360.8064 177.096166 
L 360.8064 177.096166 
" style="fill: none; stroke: #ff00ff; stroke-width: 1.5; stroke-linecap: square"/>
   </g>
   <g id="line2d_41">
    <defs>
     <path id="m86935d2493" d="M 0 8.485281 
L 5.091169 0 
L 0 -8.485281 
L -5.091169 0 
z
" style="stroke: #ff00ff; stroke-width: 1.5; stroke-linejoin: miter"/>
    </defs>
    <g>
     <use xlink:href="#m86935d2493" x="96.717523" y="287.531255" style="fill-opacity: 0; stroke: #ff00ff; stroke-width: 1.5; stroke-linejoin: miter"/>
     <use xlink:href="#m86935d2493" x="168.857418" y="218.551283" style="fill-opacity: 0; stroke: #ff00ff; stroke-width: 1.5; stroke-linejoin: miter"/>
     <use xlink:href="#m86935d2493" x="209.441551" y="184.480883" style="fill-opacity: 0; stroke: #ff00ff; stroke-width: 1.5; stroke-linejoin: miter"/>
     <use xlink:href="#m86935d2493" x="272.512244" y="177.264" style="fill-opacity: 0; stroke: #ff00ff; stroke-width: 1.5; stroke-linejoin: miter"/>
     <use xlink:href="#m86935d2493" x="272.512244" y="177.096166" style="fill-opacity: 0; stroke: #ff00ff; stroke-width: 1.5; stroke-linejoin: miter"/>
     <use xlink:href="#m86935d2493" x="360.8064" y="177.096166" style="fill-opacity: 0; stroke: #ff00ff; stroke-width: 1.5; stroke-linejoin: miter"/>
    </g>
   </g>
   <g id="line2d_42">
    <path style="fill: none; stroke: #ff00ff; stroke-width: 1.5; stroke-linecap: square"/>
    <g/>
   </g>
   <g id="line2d_43">
    <path d="M 274.176019 177.096166 
" clip-path="url(#p6a81fb28a3)" style="fill: none; stroke: #ff00ff; stroke-width: 1.5; stroke-linecap: square"/>
    <defs>
     <path id="m8891bb6218" d="M -12 12 
L 12 -12 
M -12 -12 
L 12 12 
" style="stroke: #ff00ff"/>
    </defs>
    <g clip-path="url(#p6a81fb28a3)">
     <use xlink:href="#m8891bb6218" x="274.176019" y="177.096166" style="fill: #ff00ff; stroke: #ff00ff"/>
    </g>
   </g>
   <g id="line2d_44">
    <defs>
     <path id="m3ce4d69352" d="M 0 1.5 
C 0.397805 1.5 0.77937 1.341951 1.06066 1.06066 
C 1.341951 0.77937 1.5 0.397805 1.5 0 
C 1.5 -0.397805 1.341951 -0.77937 1.06066 -1.06066 
C 0.77937 -1.341951 0.397805 -1.5 0 -1.5 
C -0.397805 -1.5 -0.77937 -1.341951 -1.06066 -1.06066 
C -1.341951 -0.77937 -1.5 -0.397805 -1.5 0 
C -1.5 0.397805 -1.341951 0.77937 -1.06066 1.06066 
C -0.77937 1.341951 -0.397805 1.5 0 1.5 
z
" style="stroke: #6495ed"/>
    </defs>
    <g>
     <use xlink:href="#m3ce4d69352" x="113.860081" y="254.971366" style="fill: #6495ed; stroke: #6495ed"/>
     <use xlink:href="#m3ce4d69352" x="113.860081" y="254.971366" style="fill: #6495ed; stroke: #6495ed"/>
    </g>
   </g>
   <g id="line2d_45">
    <path d="M 14.2848 298.944 
L 14.2848 297.097821 
L 27.323974 297.097821 
L 27.323974 296.594317 
L 34.951403 296.594317 
L 34.951403 296.090814 
L 40.363149 296.090814 
L 40.363149 295.755145 
L 44.560826 295.755145 
L 44.560826 295.083807 
L 47.990577 295.083807 
L 47.990577 294.915972 
L 50.890391 294.915972 
L 50.890391 294.412469 
L 57.6 294.412469 
L 57.6 294.244634 
L 59.392932 294.244634 
L 59.392932 294.0768 
L 67.581941 294.0768 
L 67.581941 293.908966 
L 70.639174 293.908966 
L 70.639174 293.573297 
L 79.480672 293.573297 
L 79.480672 293.405462 
L 80.059535 293.405462 
L 80.059535 292.901959 
L 83.202082 292.901959 
L 83.202082 292.734124 
L 84.142855 292.734124 
L 84.142855 292.56629 
L 87.876026 292.56629 
L 87.876026 292.398455 
L 89.668958 292.398455 
L 89.668958 292.230621 
L 90.989609 292.230621 
L 90.989609 292.062786 
L 94.205591 292.062786 
L 94.205591 291.894952 
L 94.472426 291.894952 
L 94.472426 291.727117 
L 97.410051 291.727117 
L 97.410051 291.559283 
L 97.635342 291.559283 
L 97.635342 291.055779 
L 100.726138 291.055779 
L 100.726138 290.887945 
L 101.287718 290.887945 
L 101.287718 290.72011 
L 103.047088 290.72011 
L 103.047088 290.216607 
L 103.214303 290.216607 
L 103.214303 289.041766 
L 103.380045 289.041766 
L 103.380045 288.538262 
L 103.544339 288.538262 
L 103.544339 286.356414 
L 103.707211 286.356414 
L 103.707211 284.174566 
L 103.868684 284.174566 
L 103.868684 281.489214 
L 104.028784 281.489214 
L 104.028784 280.314372 
L 104.187532 280.314372 
L 104.187532 278.300359 
L 104.344952 278.300359 
L 104.344952 277.629021 
L 104.501065 277.629021 
L 104.501065 276.957683 
L 104.655893 276.957683 
L 104.655893 276.622014 
L 104.809458 276.622014 
L 104.809458 276.11851 
L 104.961779 276.11851 
L 104.961779 274.775834 
L 105.112877 274.775834 
L 105.112877 273.600993 
L 105.26277 273.600993 
L 105.26277 272.929655 
L 105.411479 272.929655 
L 105.411479 271.586979 
L 105.705415 271.586979 
L 105.705415 271.25131 
L 105.99483 271.25131 
L 105.99483 269.7408 
L 106.137884 269.7408 
L 106.137884 269.572966 
L 106.279859 269.572966 
L 106.279859 269.237297 
L 106.42077 269.237297 
L 106.42077 268.565959 
L 106.560633 268.565959 
L 106.560633 267.391117 
L 106.699465 267.391117 
L 106.699465 267.055448 
L 106.837279 267.055448 
L 106.837279 266.887614 
L 106.974091 266.887614 
L 106.974091 266.216276 
L 107.109915 266.216276 
L 107.109915 265.712772 
L 107.244765 265.712772 
L 107.244765 265.544938 
L 107.378656 265.544938 
L 107.378656 265.209269 
L 107.5116 265.209269 
L 107.5116 264.537931 
L 107.643612 264.537931 
L 107.643612 264.202262 
L 107.904887 264.202262 
L 107.904887 264.034428 
L 108.034177 264.034428 
L 108.034177 263.530924 
L 108.162584 263.530924 
L 108.162584 262.859586 
L 108.29012 262.859586 
L 108.29012 262.691752 
L 108.791791 262.691752 
L 108.791791 262.356083 
L 108.915146 262.356083 
L 108.915146 262.188248 
L 109.037698 262.188248 
L 109.037698 261.852579 
L 109.159456 261.852579 
L 109.159456 261.684745 
L 109.400633 261.684745 
L 109.400633 261.349076 
L 109.638757 261.349076 
L 109.638757 260.845572 
L 109.756698 260.845572 
L 109.756698 260.677738 
L 109.873904 260.677738 
L 109.873904 260.174234 
L 110.106149 260.174234 
L 110.106149 259.502897 
L 110.221204 259.502897 
L 110.221204 258.831559 
L 110.449226 258.831559 
L 110.449226 258.663724 
L 110.562208 258.663724 
L 110.562208 258.328055 
L 111.007473 258.328055 
L 111.117162 257.824552 
L 111.226215 257.824552 
L 111.226215 257.656717 
L 111.54963 257.656717 
L 111.54963 257.488883 
L 112.283321 257.488883 
L 112.385837 256.985379 
L 112.487797 256.985379 
L 112.487797 256.64971 
L 112.690074 256.64971 
L 112.690074 256.481876 
L 112.989468 256.481876 
L 113.088217 255.642703 
L 113.478107 255.642703 
L 113.57433 255.1392 
L 113.860081 255.1392 
L 113.860081 254.971366 
L 360.8064 254.971366 
L 360.8064 254.971366 
" style="fill: none; stroke: #6495ed; stroke-width: 1.5; stroke-linecap: square"/>
   </g>
   <g id="line2d_46">
    <defs>
     <path id="mf027b3b6ac" d="M -0 6 
L 6 -6 
L -6 -6 
z
" style="stroke: #6495ed; stroke-width: 1.5; stroke-linejoin: miter"/>
    </defs>
    <g>
     <use xlink:href="#mf027b3b6ac" x="113.860081" y="255.1392" style="fill-opacity: 0; stroke: #6495ed; stroke-width: 1.5; stroke-linejoin: miter"/>
     <use xlink:href="#mf027b3b6ac" x="113.860081" y="255.1392" style="fill-opacity: 0; stroke: #6495ed; stroke-width: 1.5; stroke-linejoin: miter"/>
     <use xlink:href="#mf027b3b6ac" x="113.860081" y="254.971366" style="fill-opacity: 0; stroke: #6495ed; stroke-width: 1.5; stroke-linejoin: miter"/>
     <use xlink:href="#mf027b3b6ac" x="113.860081" y="254.971366" style="fill-opacity: 0; stroke: #6495ed; stroke-width: 1.5; stroke-linejoin: miter"/>
     <use xlink:href="#mf027b3b6ac" x="360.8064" y="254.971366" style="fill-opacity: 0; stroke: #6495ed; stroke-width: 1.5; stroke-linejoin: miter"/>
    </g>
   </g>
   <g id="line2d_47">
    <path style="fill: none; stroke: #6495ed; stroke-width: 1.5; stroke-linecap: square"/>
    <g/>
   </g>
   <g id="line2d_48">
    <path d="M 113.954374 254.971366 
" clip-path="url(#p6a81fb28a3)" style="fill: none; stroke: #6495ed; stroke-width: 1.5; stroke-linecap: square"/>
    <defs>
     <path id="mce438693b4" d="M -12 12 
L 12 -12 
M -12 -12 
L 12 12 
" style="stroke: #6495ed"/>
    </defs>
    <g clip-path="url(#p6a81fb28a3)">
     <use xlink:href="#mce438693b4" x="113.954374" y="254.971366" style="fill: #6495ed; stroke: #6495ed"/>
    </g>
   </g>
   <g id="line2d_49">
    <path d="M 360.8064 283.335393 
L 380.514816 293.10336 
" style="fill: none; stroke: #000080; stroke-width: 1.5; stroke-linecap: square"/>
    <g>
     <use xlink:href="#m0b1acfdaeb" x="360.8064" y="283.335393" style="fill-opacity: 0; stroke: #000080; stroke-width: 1.5"/>
     <use xlink:href="#m0b1acfdaeb" x="380.514816" y="293.10336" style="fill-opacity: 0; stroke: #000080; stroke-width: 1.5"/>
    </g>
   </g>
   <g id="line2d_50">
    <path d="M 360.8064 254.971366 
L 380.514816 199.65312 
" style="fill: none; stroke: #6495ed; stroke-width: 1.5; stroke-linecap: square"/>
    <g>
     <use xlink:href="#mf027b3b6ac" x="360.8064" y="254.971366" style="fill-opacity: 0; stroke: #6495ed; stroke-width: 1.5; stroke-linejoin: miter"/>
     <use xlink:href="#mf027b3b6ac" x="380.514816" y="199.65312" style="fill-opacity: 0; stroke: #6495ed; stroke-width: 1.5; stroke-linejoin: miter"/>
    </g>
   </g>
   <g id="line2d_51">
    <path d="M 360.8064 177.096166 
L 380.514816 106.20288 
" style="fill: none; stroke: #ff00ff; stroke-width: 1.5; stroke-linecap: square"/>
    <g>
     <use xlink:href="#m86935d2493" x="360.8064" y="177.096166" style="fill-opacity: 0; stroke: #ff00ff; stroke-width: 1.5; stroke-linejoin: miter"/>
     <use xlink:href="#m86935d2493" x="380.514816" y="106.20288" style="fill-opacity: 0; stroke: #ff00ff; stroke-width: 1.5; stroke-linejoin: miter"/>
    </g>
   </g>
   <g id="line2d_52">
    <path d="M 360.8064 298.944 
L 360.8064 6.912 
" style="fill: none; stroke: #000000; stroke-width: 1.5; stroke-linecap: square"/>
   </g>
   <g id="patch_3">
    <path d="M 57.6 298.944 
L 360.8064 298.944 
" style="fill: none; stroke: #000000; stroke-width: 0.8; stroke-linejoin: miter; stroke-linecap: square"/>
   </g>
   <g id="patch_4">
    <path d="M 57.6 6.912 
L 360.8064 6.912 
" style="fill: none; stroke: #000000; stroke-width: 0.8; stroke-linejoin: miter; stroke-linecap: square"/>
   </g>
   <g id="text_13">
    <!-- cma -->
    <g transform="translate(386.578944 296.966485)scale(0.14 -0.14)">
     <use xlink:href="#DejaVuSans-63"/>
     <use xlink:href="#DejaVuSans-6d" x="54.980469"/>
     <use xlink:href="#DejaVuSans-61" x="152.392578"/>
    </g>
   </g>
   <g id="text_14">
    <!-- parEgo -->
    <g transform="translate(386.578944 203.516245)scale(0.14 -0.14)">
     <defs>
      <path id="DejaVuSans-45" d="M 628 4666 
L 3578 4666 
L 3578 4134 
L 1259 4134 
L 1259 2753 
L 3481 2753 
L 3481 2222 
L 1259 2222 
L 1259 531 
L 3634 531 
L 3634 0 
L 628 0 
L 628 4666 
z
" transform="scale(0.015625)"/>
     </defs>
     <use xlink:href="#DejaVuSans-70"/>
     <use xlink:href="#DejaVuSans-61" x="63.476562"/>
     <use xlink:href="#DejaVuSans-72" x="124.755859"/>
     <use xlink:href="#DejaVuSans-45" x="165.869141"/>
     <use xlink:href="#DejaVuSans-67" x="229.052734"/>
     <use xlink:href="#DejaVuSans-6f" x="292.529297"/>
    </g>
   </g>
   <g id="text_15">
    <!-- external- -->
    <g transform="translate(386.578944 110.066005)scale(0.14 -0.14)">
     <defs>
      <path id="DejaVuSans-78" d="M 3513 3500 
L 2247 1797 
L 3578 0 
L 2900 0 
L 1881 1375 
L 863 0 
L 184 0 
L 1544 1831 
L 300 3500 
L 978 3500 
L 1906 2253 
L 2834 3500 
L 3513 3500 
z
" transform="scale(0.015625)"/>
     </defs>
     <use xlink:href="#DejaVuSans-65"/>
     <use xlink:href="#DejaVuSans-78" x="59.773438"/>
     <use xlink:href="#DejaVuSans-74" x="118.953125"/>
     <use xlink:href="#DejaVuSans-65" x="158.162109"/>
     <use xlink:href="#DejaVuSans-72" x="219.685547"/>
     <use xlink:href="#DejaVuSans-6e" x="259.048828"/>
     <use xlink:href="#DejaVuSans-61" x="322.427734"/>
     <use xlink:href="#DejaVuSans-6c" x="383.707031"/>
     <use xlink:href="#DejaVuSans-2d" x="411.490234"/>
    </g>
   </g>
   <g id="text_16">
    <!-- best 2016 -->
    <g transform="translate(386.578944 16.615765)scale(0.14 -0.14)">
     <defs>
      <path id="DejaVuSans-62" d="M 3116 1747 
Q 3116 2381 2855 2742 
Q 2594 3103 2138 3103 
Q 1681 3103 1420 2742 
Q 1159 2381 1159 1747 
Q 1159 1113 1420 752 
Q 1681 391 2138 391 
Q 2594 391 2855 752 
Q 3116 1113 3116 1747 
z
M 1159 2969 
Q 1341 3281 1617 3432 
Q 1894 3584 2278 3584 
Q 2916 3584 3314 3078 
Q 3713 2572 3713 1747 
Q 3713 922 3314 415 
Q 2916 -91 2278 -91 
Q 1894 -91 1617 61 
Q 1341 213 1159 525 
L 1159 0 
L 581 0 
L 581 4863 
L 1159 4863 
L 1159 2969 
z
" transform="scale(0.015625)"/>
     </defs>
     <use xlink:href="#DejaVuSans-62"/>
     <use xlink:href="#DejaVuSans-65" x="63.476562"/>
     <use xlink:href="#DejaVuSans-73" x="125"/>
     <use xlink:href="#DejaVuSans-74" x="177.099609"/>
     <use xlink:href="#DejaVuSans-20" x="216.308594"/>
     <use xlink:href="#DejaVuSans-32" x="248.095703"/>
     <use xlink:href="#DejaVuSans-30" x="311.71875"/>
     <use xlink:href="#DejaVuSans-31" x="375.341797"/>
     <use xlink:href="#DejaVuSans-36" x="438.964844"/>
    </g>
   </g>
   <g id="text_17">
    <!-- bbob-biobj f53-f55, 10-D -->
    <g transform="translate(60.632064 17.582726)scale(0.102 -0.102)">
     <defs>
      <path id="DejaVuSans-6a" d="M 603 3500 
L 1178 3500 
L 1178 -63 
Q 1178 -731 923 -1031 
Q 669 -1331 103 -1331 
L -116 -1331 
L -116 -844 
L 38 -844 
Q 366 -844 484 -692 
Q 603 -541 603 -63 
L 603 3500 
z
M 603 4863 
L 1178 4863 
L 1178 4134 
L 603 4134 
L 603 4863 
z
" transform="scale(0.015625)"/>
      <path id="DejaVuSans-35" d="M 691 4666 
L 3169 4666 
L 3169 4134 
L 1269 4134 
L 1269 2991 
Q 1406 3038 1543 3061 
Q 1681 3084 1819 3084 
Q 2600 3084 3056 2656 
Q 3513 2228 3513 1497 
Q 3513 744 3044 326 
Q 2575 -91 1722 -91 
Q 1428 -91 1123 -41 
Q 819 9 494 109 
L 494 744 
Q 775 591 1075 516 
Q 1375 441 1709 441 
Q 2250 441 2565 725 
Q 2881 1009 2881 1497 
Q 2881 1984 2565 2268 
Q 2250 2553 1709 2553 
Q 1456 2553 1204 2497 
Q 953 2441 691 2322 
L 691 4666 
z
" transform="scale(0.015625)"/>
      <path id="DejaVuSans-33" d="M 2597 2516 
Q 3050 2419 3304 2112 
Q 3559 1806 3559 1356 
Q 3559 666 3084 287 
Q 2609 -91 1734 -91 
Q 1441 -91 1130 -33 
Q 819 25 488 141 
L 488 750 
Q 750 597 1062 519 
Q 1375 441 1716 441 
Q 2309 441 2620 675 
Q 2931 909 2931 1356 
Q 2931 1769 2642 2001 
Q 2353 2234 1838 2234 
L 1294 2234 
L 1294 2753 
L 1863 2753 
Q 2328 2753 2575 2939 
Q 2822 3125 2822 3475 
Q 2822 3834 2567 4026 
Q 2313 4219 1838 4219 
Q 1578 4219 1281 4162 
Q 984 4106 628 3988 
L 628 4550 
Q 988 4650 1302 4700 
Q 1616 4750 1894 4750 
Q 2613 4750 3031 4423 
Q 3450 4097 3450 3541 
Q 3450 3153 3228 2886 
Q 3006 2619 2597 2516 
z
" transform="scale(0.015625)"/>
      <path id="DejaVuSans-44" d="M 1259 4147 
L 1259 519 
L 2022 519 
Q 2988 519 3436 956 
Q 3884 1394 3884 2338 
Q 3884 3275 3436 3711 
Q 2988 4147 2022 4147 
L 1259 4147 
z
M 628 4666 
L 1925 4666 
Q 3281 4666 3915 4102 
Q 4550 3538 4550 2338 
Q 4550 1131 3912 565 
Q 3275 0 1925 0 
L 628 0 
L 628 4666 
z
" transform="scale(0.015625)"/>
     </defs>
     <use xlink:href="#DejaVuSans-62"/>
     <use xlink:href="#DejaVuSans-62" x="63.476562"/>
     <use xlink:href="#DejaVuSans-6f" x="126.953125"/>
     <use xlink:href="#DejaVuSans-62" x="188.134766"/>
     <use xlink:href="#DejaVuSans-2d" x="251.611328"/>
     <use xlink:href="#DejaVuSans-62" x="287.695312"/>
     <use xlink:href="#DejaVuSans-69" x="351.171875"/>
     <use xlink:href="#DejaVuSans-6f" x="378.955078"/>
     <use xlink:href="#DejaVuSans-62" x="440.136719"/>
     <use xlink:href="#DejaVuSans-6a" x="503.613281"/>
     <use xlink:href="#DejaVuSans-20" x="531.396484"/>
     <use xlink:href="#DejaVuSans-66" x="563.183594"/>
     <use xlink:href="#DejaVuSans-35" x="598.388672"/>
     <use xlink:href="#DejaVuSans-33" x="662.011719"/>
     <use xlink:href="#DejaVuSans-2d" x="725.634766"/>
     <use xlink:href="#DejaVuSans-66" x="761.71875"/>
     <use xlink:href="#DejaVuSans-35" x="796.923828"/>
     <use xlink:href="#DejaVuSans-35" x="860.546875"/>
     <use xlink:href="#DejaVuSans-2c" x="924.169922"/>
     <use xlink:href="#DejaVuSans-20" x="955.957031"/>
     <use xlink:href="#DejaVuSans-31" x="987.744141"/>
     <use xlink:href="#DejaVuSans-30" x="1051.367188"/>
     <use xlink:href="#DejaVuSans-2d" x="1114.990234"/>
     <use xlink:href="#DejaVuSans-44" x="1151.074219"/>
    </g>
    <!-- 58 targets: 1..-1.0e-4 -->
    <g transform="translate(60.632064 29.004495)scale(0.102 -0.102)">
     <defs>
      <path id="DejaVuSans-3a" d="M 750 794 
L 1409 794 
L 1409 0 
L 750 0 
L 750 794 
z
M 750 3309 
L 1409 3309 
L 1409 2516 
L 750 2516 
L 750 3309 
z
" transform="scale(0.015625)"/>
     </defs>
     <use xlink:href="#DejaVuSans-35"/>
     <use xlink:href="#DejaVuSans-38" x="63.623047"/>
     <use xlink:href="#DejaVuSans-20" x="127.246094"/>
     <use xlink:href="#DejaVuSans-74" x="159.033203"/>
     <use xlink:href="#DejaVuSans-61" x="198.242188"/>
     <use xlink:href="#DejaVuSans-72" x="259.521484"/>
     <use xlink:href="#DejaVuSans-67" x="298.884766"/>
     <use xlink:href="#DejaVuSans-65" x="362.361328"/>
     <use xlink:href="#DejaVuSans-74" x="423.884766"/>
     <use xlink:href="#DejaVuSans-73" x="463.09375"/>
     <use xlink:href="#DejaVuSans-3a" x="515.193359"/>
     <use xlink:href="#DejaVuSans-20" x="548.884766"/>
     <use xlink:href="#DejaVuSans-31" x="580.671875"/>
     <use xlink:href="#DejaVuSans-2e" x="644.294922"/>
     <use xlink:href="#DejaVuSans-2e" x="676.082031"/>
     <use xlink:href="#DejaVuSans-2d" x="707.869141"/>
     <use xlink:href="#DejaVuSans-31" x="743.953125"/>
     <use xlink:href="#DejaVuSans-2e" x="807.576172"/>
     <use xlink:href="#DejaVuSans-30" x="839.363281"/>
     <use xlink:href="#DejaVuSans-65" x="902.986328"/>
     <use xlink:href="#DejaVuSans-2d" x="964.509766"/>
     <use xlink:href="#DejaVuSans-34" x="1000.59375"/>
    </g>
    <!-- 10 instances -->
    <g transform="translate(60.632064 40.426264)scale(0.102 -0.102)">
     <use xlink:href="#DejaVuSans-31"/>
     <use xlink:href="#DejaVuSans-30" x="63.623047"/>
     <use xlink:href="#DejaVuSans-20" x="127.246094"/>
     <use xlink:href="#DejaVuSans-69" x="159.033203"/>
     <use xlink:href="#DejaVuSans-6e" x="186.816406"/>
     <use xlink:href="#DejaVuSans-73" x="250.195312"/>
     <use xlink:href="#DejaVuSans-74" x="302.294922"/>
     <use xlink:href="#DejaVuSans-61" x="341.503906"/>
     <use xlink:href="#DejaVuSans-6e" x="402.783203"/>
     <use xlink:href="#DejaVuSans-63" x="466.162109"/>
     <use xlink:href="#DejaVuSans-65" x="521.142578"/>
     <use xlink:href="#DejaVuSans-73" x="582.666016"/>
    </g>
   </g>
   <g id="text_18">
    <!-- v2.6, hv-hash=ff0e71e8cd978373 -->
    <g style="fill: #808080" transform="translate(123.707887 293.943992)scale(0.1 -0.1)">
     <defs>
      <path id="DejaVuSans-68" d="M 3513 2113 
L 3513 0 
L 2938 0 
L 2938 2094 
Q 2938 2591 2744 2837 
Q 2550 3084 2163 3084 
Q 1697 3084 1428 2787 
Q 1159 2491 1159 1978 
L 1159 0 
L 581 0 
L 581 4863 
L 1159 4863 
L 1159 2956 
Q 1366 3272 1645 3428 
Q 1925 3584 2291 3584 
Q 2894 3584 3203 3211 
Q 3513 2838 3513 2113 
z
" transform="scale(0.015625)"/>
      <path id="DejaVuSans-3d" d="M 678 2906 
L 4684 2906 
L 4684 2381 
L 678 2381 
L 678 2906 
z
M 678 1631 
L 4684 1631 
L 4684 1100 
L 678 1100 
L 678 1631 
z
" transform="scale(0.015625)"/>
      <path id="DejaVuSans-37" d="M 525 4666 
L 3525 4666 
L 3525 4397 
L 1831 0 
L 1172 0 
L 2766 4134 
L 525 4134 
L 525 4666 
z
" transform="scale(0.015625)"/>
      <path id="DejaVuSans-39" d="M 703 97 
L 703 672 
Q 941 559 1184 500 
Q 1428 441 1663 441 
Q 2288 441 2617 861 
Q 2947 1281 2994 2138 
Q 2813 1869 2534 1725 
Q 2256 1581 1919 1581 
Q 1219 1581 811 2004 
Q 403 2428 403 3163 
Q 403 3881 828 4315 
Q 1253 4750 1959 4750 
Q 2769 4750 3195 4129 
Q 3622 3509 3622 2328 
Q 3622 1225 3098 567 
Q 2575 -91 1691 -91 
Q 1453 -91 1209 -44 
Q 966 3 703 97 
z
M 1959 2075 
Q 2384 2075 2632 2365 
Q 2881 2656 2881 3163 
Q 2881 3666 2632 3958 
Q 2384 4250 1959 4250 
Q 1534 4250 1286 3958 
Q 1038 3666 1038 3163 
Q 1038 2656 1286 2365 
Q 1534 2075 1959 2075 
z
" transform="scale(0.015625)"/>
     </defs>
     <use xlink:href="#DejaVuSans-76"/>
     <use xlink:href="#DejaVuSans-32" x="59.179688"/>
     <use xlink:href="#DejaVuSans-2e" x="122.802734"/>
     <use xlink:href="#DejaVuSans-36" x="154.589844"/>
     <use xlink:href="#DejaVuSans-2c" x="218.212891"/>
     <use xlink:href="#DejaVuSans-20" x="250"/>
     <use xlink:href="#DejaVuSans-68" x="281.787109"/>
     <use xlink:href="#DejaVuSans-76" x="345.166016"/>
     <use xlink:href="#DejaVuSans-2d" x="401.720703"/>
     <use xlink:href="#DejaVuSans-68" x="437.804688"/>
     <use xlink:href="#DejaVuSans-61" x="501.183594"/>
     <use xlink:href="#DejaVuSans-73" x="562.462891"/>
     <use xlink:href="#DejaVuSans-68" x="614.5625"/>
     <use xlink:href="#DejaVuSans-3d" x="677.941406"/>
     <use xlink:href="#DejaVuSans-66" x="761.730469"/>
     <use xlink:href="#DejaVuSans-66" x="796.935547"/>
     <use xlink:href="#DejaVuSans-30" x="832.140625"/>
     <use xlink:href="#DejaVuSans-65" x="895.763672"/>
     <use xlink:href="#DejaVuSans-37" x="957.287109"/>
     <use xlink:href="#DejaVuSans-31" x="1020.910156"/>
     <use xlink:href="#DejaVuSans-65" x="1084.533203"/>
     <use xlink:href="#DejaVuSans-38" x="1146.056641"/>
     <use xlink:href="#DejaVuSans-63" x="1209.679688"/>
     <use xlink:href="#DejaVuSans-64" x="1264.660156"/>
     <use xlink:href="#DejaVuSans-39" x="1328.136719"/>
     <use xlink:href="#DejaVuSans-37" x="1391.759766"/>
     <use xlink:href="#DejaVuSans-38" x="1455.382812"/>
     <use xlink:href="#DejaVuSans-33" x="1519.005859"/>
     <use xlink:href="#DejaVuSans-37" x="1582.628906"/>
     <use xlink:href="#DejaVuSans-33" x="1646.251953"/>
    </g>
   </g>
  </g>
 </g>
 <defs>
  <clipPath id="p6a81fb28a3">
   <rect x="57.6" y="6.912" width="303.2064" height="292.032"/>
  </clipPath>
 </defs>
</svg>
