<?xml version="1.0" encoding="utf-8" standalone="no"?>
<!DOCTYPE svg PUBLIC "-//W3C//DTD SVG 1.1//EN"
  "http://www.w3.org/Graphics/SVG/1.1/DTD/svg11.dtd">
<svg xmlns:xlink="http://www.w3.org/1999/xlink" width="460.8pt" height="345.6pt" viewBox="0 0 460.8 345.6" xmlns="http://www.w3.org/2000/svg" version="1.1">
 <metadata>
  <rdf:RDF xmlns:dc="http://purl.org/dc/elements/1.1/" xmlns:cc="http://creativecommons.org/ns#" xmlns:rdf="http://www.w3.org/1999/02/22-rdf-syntax-ns#">
   <cc:Work>
    <dc:type rdf:resource="http://purl.org/dc/dcmitype/StillImage"/>
    <dc:date>2022-06-19T21:02:59.237036</dc:date>
    <dc:format>image/svg+xml</dc:format>
    <dc:creator>
     <cc:Agent>
      <dc:title>Matplotlib v3.5.1, https://matplotlib.org/</dc:title>
     </cc:Agent>
    </dc:creator>
   </cc:Work>
  </rdf:RDF>
 </metadata>
 <defs>
  <style type="text/css">*{stroke-linejoin: round; stroke-linecap: butt}</style>
 </defs>
 <g id="figure_1">
  <g id="patch_1">
   <path d="M 0 345.6 
L 460.8 345.6 
L 460.8 0 
L 0 0 
z
" style="fill: #ffffff"/>
  </g>
  <g id="axes_1">
   <g id="patch_2">
    <path d="M 57.6 298.944 
L 360.8064 298.944 
L 360.8064 6.912 
L 57.6 6.912 
z
" style="fill: #ffffff"/>
   </g>
   <g id="line2d_1">
    <path d="M 63.011746 298.944 
L 63.011746 297.685241 
L 70.639174 297.685241 
L 70.639174 295.167724 
L 76.050921 295.167724 
L 76.050921 293.908966 
L 82.04153 293.908966 
L 82.04153 292.650207 
L 86.578163 292.650207 
L 86.578163 290.13269 
L 89.090095 290.13269 
L 89.090095 287.615172 
L 91.305777 287.615172 
L 91.305777 285.097655 
L 95.080704 285.097655 
L 95.080704 283.838897 
L 97.485448 283.838897 
L 97.485448 281.321379 
L 100.9152 281.321379 
L 100.9152 278.803862 
L 102.708132 278.803862 
L 102.708132 277.545103 
L 103.815014 277.545103 
L 103.815014 275.027586 
L 114.872193 275.027586 
L 114.872193 273.768828 
L 122.598891 273.768828 
L 122.598891 271.25131 
L 125.862901 271.25131 
L 125.862901 267.475034 
L 132.869802 267.475034 
L 132.869802 266.216276 
L 139.232111 266.216276 
L 139.232111 264.957517 
L 143.133017 264.957517 
L 143.133017 261.181241 
L 149.875833 261.181241 
L 149.875833 257.404966 
L 153.612719 257.404966 
L 153.612719 253.62869 
L 155.735085 253.62869 
L 155.735085 251.111172 
L 156.88953 251.111172 
L 156.88953 248.593655 
L 159.457367 248.593655 
L 159.457367 246.076138 
L 160.777545 246.076138 
L 160.777545 244.817379 
L 161.617145 244.817379 
L 161.617145 243.558621 
L 163.509347 243.558621 
L 163.509347 241.041103 
L 168.396298 241.041103 
L 168.396298 239.782345 
L 168.876036 239.782345 
L 168.876036 237.264828 
L 170.665892 237.264828 
L 170.665892 234.74731 
L 172.229507 234.74731 
L 172.314244 230.971034 
L 173.154738 230.971034 
L 173.154738 228.453517 
L 176.526006 228.453517 
L 176.526006 224.677241 
L 176.72768 224.677241 
L 176.749956 217.12469 
L 178.257396 217.12469 
L 178.257396 213.348414 
L 179.804963 213.348414 
L 179.804963 210.830897 
L 180.853898 210.830897 
L 180.853898 208.313379 
L 180.987662 208.313379 
L 180.987662 205.795862 
L 181.138119 205.795862 
L 181.138119 203.278345 
L 181.313602 203.278345 
L 181.313602 200.760828 
L 181.813434 200.760828 
L 181.813434 199.502069 
L 181.999605 199.502069 
L 181.999605 196.984552 
L 183.14302 196.984552 
L 183.14302 194.467034 
L 184.510485 194.467034 
L 184.510485 190.690759 
L 185.140856 190.690759 
L 185.140856 189.432 
L 186.823342 189.432 
L 186.823342 186.914483 
L 187.620696 186.914483 
L 187.620696 183.138207 
L 188.534946 183.138207 
L 188.570607 179.361931 
L 189.270002 179.361931 
L 189.321423 173.068138 
L 189.531357 173.068138 
L 189.531357 171.809379 
L 190.141995 171.809379 
L 190.240057 165.515586 
L 191.048366 165.515586 
L 191.048366 162.998069 
L 193.658938 162.998069 
L 193.658938 160.480552 
L 196.253375 160.480552 
L 196.253375 159.221793 
L 197.754852 159.221793 
L 197.754852 157.963034 
L 198.336144 157.963034 
L 198.336144 154.186759 
L 198.776159 154.186759 
L 198.776159 151.669241 
L 202.445988 151.669241 
L 202.445988 150.410483 
L 207.04823 150.410483 
L 207.04823 149.151724 
L 208.680787 149.151724 
L 208.719483 144.11669 
L 215.302525 144.11669 
L 215.302525 140.340414 
L 215.779617 140.340414 
L 215.779617 139.081655 
L 215.959087 139.081655 
L 215.959087 137.822897 
L 216.142347 137.822897 
L 216.142347 134.046621 
L 216.511665 134.046621 
L 216.511665 130.270345 
L 217.082418 130.270345 
L 217.163116 125.23531 
L 226.201321 125.23531 
L 226.201321 121.459034 
L 228.396105 121.459034 
L 228.396105 118.941517 
L 229.154764 118.941517 
L 229.154764 116.424 
L 230.077846 116.424 
L 230.077846 113.906483 
L 230.323981 113.906483 
L 230.323981 110.130207 
L 230.508888 110.130207 
L 230.508888 108.871448 
L 230.852647 108.871448 
L 230.852647 107.61269 
L 231.61126 107.61269 
L 231.61126 103.836414 
L 232.264379 103.836414 
L 232.264379 100.060138 
L 232.979247 100.060138 
L 232.979247 98.801379 
L 233.287102 98.801379 
L 233.287102 97.542621 
L 234.286893 97.542621 
L 234.286893 93.766345 
L 235.321001 93.766345 
L 235.321001 89.990069 
L 236.618765 89.990069 
L 236.618765 87.472552 
L 238.587042 87.472552 
L 238.587042 84.955034 
L 239.429124 84.955034 
L 239.429124 82.437517 
L 239.794561 82.437517 
L 239.794561 79.92 
L 242.235431 79.92 
L 242.235431 78.661241 
L 243.240491 78.661241 
L 243.240491 77.402483 
L 247.084102 77.402483 
L 247.084102 74.884966 
L 247.870293 74.884966 
L 247.870293 72.367448 
L 250.396754 72.367448 
L 250.396754 68.591172 
L 252.93874 68.591172 
L 252.93874 64.814897 
L 263.880773 64.814897 
L 263.880773 62.297379 
L 265.335104 62.297379 
L 265.335104 59.779862 
L 267.774425 59.779862 
L 267.774425 57.262345 
L 270.838125 57.262345 
L 270.838125 56.003586 
L 272.058774 56.003586 
L 272.058774 54.744828 
L 273.400627 54.744828 
L 273.400627 52.22731 
L 274.010675 52.22731 
L 274.010675 49.709793 
L 275.003366 49.709793 
L 275.003366 45.933517 
L 277.20837 45.933517 
L 277.20837 42.157241 
L 360.8064 42.157241 
L 360.8064 42.157241 
" style="fill: none; stroke: #f5deb3; stroke-width: 4; stroke-linecap: square"/>
   </g>
   <g id="line2d_2">
    <defs>
     <path id="m2927cacd16" d="M 0 7.778175 
L 7.778175 0 
L 0 -7.778175 
L -7.778175 0 
z
" style="stroke: #f5deb3; stroke-width: 1.5; stroke-linejoin: miter"/>
    </defs>
    <g>
     <use xlink:href="#m2927cacd16" x="178.257396" y="213.348414" style="fill: #f5deb3; stroke: #f5deb3; stroke-width: 1.5; stroke-linejoin: miter"/>
     <use xlink:href="#m2927cacd16" x="239.429124" y="82.437517" style="fill: #f5deb3; stroke: #f5deb3; stroke-width: 1.5; stroke-linejoin: miter"/>
     <use xlink:href="#m2927cacd16" x="277.20837" y="42.157241" style="fill: #f5deb3; stroke: #f5deb3; stroke-width: 1.5; stroke-linejoin: miter"/>
     <use xlink:href="#m2927cacd16" x="277.20837" y="42.157241" style="fill: #f5deb3; stroke: #f5deb3; stroke-width: 1.5; stroke-linejoin: miter"/>
     <use xlink:href="#m2927cacd16" x="360.8064" y="42.157241" style="fill: #f5deb3; stroke: #f5deb3; stroke-width: 1.5; stroke-linejoin: miter"/>
    </g>
   </g>
   <g id="line2d_3">
    <path style="fill: none; stroke: #f5deb3; stroke-width: 4; stroke-linecap: square"/>
    <g/>
   </g>
   <g id="line2d_4">
    <path d="M 360.8064 42.157241 
L 380.514816 12.75264 
" style="fill: none; stroke: #f5deb3; stroke-width: 4; stroke-linecap: square"/>
    <g>
     <use xlink:href="#m2927cacd16" x="360.8064" y="42.157241" style="fill: #f5deb3; stroke: #f5deb3; stroke-width: 1.5; stroke-linejoin: miter"/>
     <use xlink:href="#m2927cacd16" x="380.514816" y="12.75264" style="fill: #f5deb3; stroke: #f5deb3; stroke-width: 1.5; stroke-linejoin: miter"/>
    </g>
   </g>
   <g id="matplotlib.axis_1">
    <g id="xtick_1">
     <g id="line2d_5">
      <path d="M 57.6 298.944 
L 57.6 6.912 
" clip-path="url(#pe551d1a3fd)" style="fill: none; stroke: #b0b0b0; stroke-width: 0.8; stroke-linecap: square"/>
     </g>
     <g id="line2d_6">
      <defs>
       <path id="mdef961bea0" d="M 0 0 
L 0 3.5 
" style="stroke: #000000; stroke-width: 0.8"/>
      </defs>
      <g>
       <use xlink:href="#mdef961bea0" x="57.6" y="298.944" style="stroke: #000000; stroke-width: 0.8"/>
      </g>
     </g>
     <g id="text_1">
      <!-- 0 -->
      <g transform="translate(52.191875 318.861344)scale(0.17 -0.17)">
       <defs>
        <path id="DejaVuSans-30" d="M 2034 4250 
Q 1547 4250 1301 3770 
Q 1056 3291 1056 2328 
Q 1056 1369 1301 889 
Q 1547 409 2034 409 
Q 2525 409 2770 889 
Q 3016 1369 3016 2328 
Q 3016 3291 2770 3770 
Q 2525 4250 2034 4250 
z
M 2034 4750 
Q 2819 4750 3233 4129 
Q 3647 3509 3647 2328 
Q 3647 1150 3233 529 
Q 2819 -91 2034 -91 
Q 1250 -91 836 529 
Q 422 1150 422 2328 
Q 422 3509 836 4129 
Q 1250 4750 2034 4750 
z
" transform="scale(0.015625)"/>
       </defs>
       <use xlink:href="#DejaVuSans-30"/>
      </g>
     </g>
    </g>
    <g id="xtick_2">
     <g id="line2d_7">
      <path d="M 144.2304 298.944 
L 144.2304 6.912 
" clip-path="url(#pe551d1a3fd)" style="fill: none; stroke: #b0b0b0; stroke-width: 0.8; stroke-linecap: square"/>
     </g>
     <g id="line2d_8">
      <g>
       <use xlink:href="#mdef961bea0" x="144.2304" y="298.944" style="stroke: #000000; stroke-width: 0.8"/>
      </g>
     </g>
     <g id="text_2">
      <!-- 2 -->
      <g transform="translate(138.822275 318.861344)scale(0.17 -0.17)">
       <defs>
        <path id="DejaVuSans-32" d="M 1228 531 
L 3431 531 
L 3431 0 
L 469 0 
L 469 531 
Q 828 903 1448 1529 
Q 2069 2156 2228 2338 
Q 2531 2678 2651 2914 
Q 2772 3150 2772 3378 
Q 2772 3750 2511 3984 
Q 2250 4219 1831 4219 
Q 1534 4219 1204 4116 
Q 875 4013 500 3803 
L 500 4441 
Q 881 4594 1212 4672 
Q 1544 4750 1819 4750 
Q 2544 4750 2975 4387 
Q 3406 4025 3406 3419 
Q 3406 3131 3298 2873 
Q 3191 2616 2906 2266 
Q 2828 2175 2409 1742 
Q 1991 1309 1228 531 
z
" transform="scale(0.015625)"/>
       </defs>
       <use xlink:href="#DejaVuSans-32"/>
      </g>
     </g>
    </g>
    <g id="xtick_3">
     <g id="line2d_9">
      <path d="M 230.8608 298.944 
L 230.8608 6.912 
" clip-path="url(#pe551d1a3fd)" style="fill: none; stroke: #b0b0b0; stroke-width: 0.8; stroke-linecap: square"/>
     </g>
     <g id="line2d_10">
      <g>
       <use xlink:href="#mdef961bea0" x="230.8608" y="298.944" style="stroke: #000000; stroke-width: 0.8"/>
      </g>
     </g>
     <g id="text_3">
      <!-- 4 -->
      <g transform="translate(225.452675 318.861344)scale(0.17 -0.17)">
       <defs>
        <path id="DejaVuSans-34" d="M 2419 4116 
L 825 1625 
L 2419 1625 
L 2419 4116 
z
M 2253 4666 
L 3047 4666 
L 3047 1625 
L 3713 1625 
L 3713 1100 
L 3047 1100 
L 3047 0 
L 2419 0 
L 2419 1100 
L 313 1100 
L 313 1709 
L 2253 4666 
z
" transform="scale(0.015625)"/>
       </defs>
       <use xlink:href="#DejaVuSans-34"/>
      </g>
     </g>
    </g>
    <g id="xtick_4">
     <g id="line2d_11">
      <path d="M 317.4912 298.944 
L 317.4912 6.912 
" clip-path="url(#pe551d1a3fd)" style="fill: none; stroke: #b0b0b0; stroke-width: 0.8; stroke-linecap: square"/>
     </g>
     <g id="line2d_12">
      <g>
       <use xlink:href="#mdef961bea0" x="317.4912" y="298.944" style="stroke: #000000; stroke-width: 0.8"/>
      </g>
     </g>
     <g id="text_4">
      <!-- 6 -->
      <g transform="translate(312.083075 318.861344)scale(0.17 -0.17)">
       <defs>
        <path id="DejaVuSans-36" d="M 2113 2584 
Q 1688 2584 1439 2293 
Q 1191 2003 1191 1497 
Q 1191 994 1439 701 
Q 1688 409 2113 409 
Q 2538 409 2786 701 
Q 3034 994 3034 1497 
Q 3034 2003 2786 2293 
Q 2538 2584 2113 2584 
z
M 3366 4563 
L 3366 3988 
Q 3128 4100 2886 4159 
Q 2644 4219 2406 4219 
Q 1781 4219 1451 3797 
Q 1122 3375 1075 2522 
Q 1259 2794 1537 2939 
Q 1816 3084 2150 3084 
Q 2853 3084 3261 2657 
Q 3669 2231 3669 1497 
Q 3669 778 3244 343 
Q 2819 -91 2113 -91 
Q 1303 -91 875 529 
Q 447 1150 447 2328 
Q 447 3434 972 4092 
Q 1497 4750 2381 4750 
Q 2619 4750 2861 4703 
Q 3103 4656 3366 4563 
z
" transform="scale(0.015625)"/>
       </defs>
       <use xlink:href="#DejaVuSans-36"/>
      </g>
     </g>
    </g>
    <g id="xtick_5">
     <g id="line2d_13">
      <path d="M 100.9152 298.944 
L 100.9152 6.912 
" clip-path="url(#pe551d1a3fd)" style="fill: none; stroke: #b0b0b0; stroke-width: 0.8; stroke-linecap: square"/>
     </g>
     <g id="line2d_14">
      <defs>
       <path id="m322aa8109a" d="M 0 0 
L 0 2 
" style="stroke: #000000; stroke-width: 0.6"/>
      </defs>
      <g>
       <use xlink:href="#m322aa8109a" x="100.9152" y="298.944" style="stroke: #000000; stroke-width: 0.6"/>
      </g>
     </g>
    </g>
    <g id="xtick_6">
     <g id="line2d_15">
      <path d="M 187.5456 298.944 
L 187.5456 6.912 
" clip-path="url(#pe551d1a3fd)" style="fill: none; stroke: #b0b0b0; stroke-width: 0.8; stroke-linecap: square"/>
     </g>
     <g id="line2d_16">
      <g>
       <use xlink:href="#m322aa8109a" x="187.5456" y="298.944" style="stroke: #000000; stroke-width: 0.6"/>
      </g>
     </g>
    </g>
    <g id="xtick_7">
     <g id="line2d_17">
      <path d="M 274.176 298.944 
L 274.176 6.912 
" clip-path="url(#pe551d1a3fd)" style="fill: none; stroke: #b0b0b0; stroke-width: 0.8; stroke-linecap: square"/>
     </g>
     <g id="line2d_18">
      <g>
       <use xlink:href="#m322aa8109a" x="274.176" y="298.944" style="stroke: #000000; stroke-width: 0.6"/>
      </g>
     </g>
    </g>
    <g id="xtick_8">
     <g id="line2d_19">
      <path d="M 360.8064 298.944 
L 360.8064 6.912 
" clip-path="url(#pe551d1a3fd)" style="fill: none; stroke: #b0b0b0; stroke-width: 0.8; stroke-linecap: square"/>
     </g>
     <g id="line2d_20">
      <g>
       <use xlink:href="#m322aa8109a" x="360.8064" y="298.944" style="stroke: #000000; stroke-width: 0.6"/>
      </g>
     </g>
    </g>
    <g id="text_5">
     <!-- log10(# f-evals / dimension) -->
     <g transform="translate(88.823278 339.314156)scale(0.17 -0.17)">
      <defs>
       <path id="DejaVuSans-6c" d="M 603 4863 
L 1178 4863 
L 1178 0 
L 603 0 
L 603 4863 
z
" transform="scale(0.015625)"/>
       <path id="DejaVuSans-6f" d="M 1959 3097 
Q 1497 3097 1228 2736 
Q 959 2375 959 1747 
Q 959 1119 1226 758 
Q 1494 397 1959 397 
Q 2419 397 2687 759 
Q 2956 1122 2956 1747 
Q 2956 2369 2687 2733 
Q 2419 3097 1959 3097 
z
M 1959 3584 
Q 2709 3584 3137 3096 
Q 3566 2609 3566 1747 
Q 3566 888 3137 398 
Q 2709 -91 1959 -91 
Q 1206 -91 779 398 
Q 353 888 353 1747 
Q 353 2609 779 3096 
Q 1206 3584 1959 3584 
z
" transform="scale(0.015625)"/>
       <path id="DejaVuSans-67" d="M 2906 1791 
Q 2906 2416 2648 2759 
Q 2391 3103 1925 3103 
Q 1463 3103 1205 2759 
Q 947 2416 947 1791 
Q 947 1169 1205 825 
Q 1463 481 1925 481 
Q 2391 481 2648 825 
Q 2906 1169 2906 1791 
z
M 3481 434 
Q 3481 -459 3084 -895 
Q 2688 -1331 1869 -1331 
Q 1566 -1331 1297 -1286 
Q 1028 -1241 775 -1147 
L 775 -588 
Q 1028 -725 1275 -790 
Q 1522 -856 1778 -856 
Q 2344 -856 2625 -561 
Q 2906 -266 2906 331 
L 2906 616 
Q 2728 306 2450 153 
Q 2172 0 1784 0 
Q 1141 0 747 490 
Q 353 981 353 1791 
Q 353 2603 747 3093 
Q 1141 3584 1784 3584 
Q 2172 3584 2450 3431 
Q 2728 3278 2906 2969 
L 2906 3500 
L 3481 3500 
L 3481 434 
z
" transform="scale(0.015625)"/>
       <path id="DejaVuSans-31" d="M 794 531 
L 1825 531 
L 1825 4091 
L 703 3866 
L 703 4441 
L 1819 4666 
L 2450 4666 
L 2450 531 
L 3481 531 
L 3481 0 
L 794 0 
L 794 531 
z
" transform="scale(0.015625)"/>
       <path id="DejaVuSans-28" d="M 1984 4856 
Q 1566 4138 1362 3434 
Q 1159 2731 1159 2009 
Q 1159 1288 1364 580 
Q 1569 -128 1984 -844 
L 1484 -844 
Q 1016 -109 783 600 
Q 550 1309 550 2009 
Q 550 2706 781 3412 
Q 1013 4119 1484 4856 
L 1984 4856 
z
" transform="scale(0.015625)"/>
       <path id="DejaVuSans-23" d="M 3272 2816 
L 2363 2816 
L 2100 1772 
L 3016 1772 
L 3272 2816 
z
M 2803 4594 
L 2478 3297 
L 3391 3297 
L 3719 4594 
L 4219 4594 
L 3897 3297 
L 4872 3297 
L 4872 2816 
L 3775 2816 
L 3519 1772 
L 4513 1772 
L 4513 1294 
L 3397 1294 
L 3072 0 
L 2572 0 
L 2894 1294 
L 1978 1294 
L 1656 0 
L 1153 0 
L 1478 1294 
L 494 1294 
L 494 1772 
L 1594 1772 
L 1856 2816 
L 850 2816 
L 850 3297 
L 1978 3297 
L 2297 4594 
L 2803 4594 
z
" transform="scale(0.015625)"/>
       <path id="DejaVuSans-20" transform="scale(0.015625)"/>
       <path id="DejaVuSans-66" d="M 2375 4863 
L 2375 4384 
L 1825 4384 
Q 1516 4384 1395 4259 
Q 1275 4134 1275 3809 
L 1275 3500 
L 2222 3500 
L 2222 3053 
L 1275 3053 
L 1275 0 
L 697 0 
L 697 3053 
L 147 3053 
L 147 3500 
L 697 3500 
L 697 3744 
Q 697 4328 969 4595 
Q 1241 4863 1831 4863 
L 2375 4863 
z
" transform="scale(0.015625)"/>
       <path id="DejaVuSans-2d" d="M 313 2009 
L 1997 2009 
L 1997 1497 
L 313 1497 
L 313 2009 
z
" transform="scale(0.015625)"/>
       <path id="DejaVuSans-65" d="M 3597 1894 
L 3597 1613 
L 953 1613 
Q 991 1019 1311 708 
Q 1631 397 2203 397 
Q 2534 397 2845 478 
Q 3156 559 3463 722 
L 3463 178 
Q 3153 47 2828 -22 
Q 2503 -91 2169 -91 
Q 1331 -91 842 396 
Q 353 884 353 1716 
Q 353 2575 817 3079 
Q 1281 3584 2069 3584 
Q 2775 3584 3186 3129 
Q 3597 2675 3597 1894 
z
M 3022 2063 
Q 3016 2534 2758 2815 
Q 2500 3097 2075 3097 
Q 1594 3097 1305 2825 
Q 1016 2553 972 2059 
L 3022 2063 
z
" transform="scale(0.015625)"/>
       <path id="DejaVuSans-76" d="M 191 3500 
L 800 3500 
L 1894 563 
L 2988 3500 
L 3597 3500 
L 2284 0 
L 1503 0 
L 191 3500 
z
" transform="scale(0.015625)"/>
       <path id="DejaVuSans-61" d="M 2194 1759 
Q 1497 1759 1228 1600 
Q 959 1441 959 1056 
Q 959 750 1161 570 
Q 1363 391 1709 391 
Q 2188 391 2477 730 
Q 2766 1069 2766 1631 
L 2766 1759 
L 2194 1759 
z
M 3341 1997 
L 3341 0 
L 2766 0 
L 2766 531 
Q 2569 213 2275 61 
Q 1981 -91 1556 -91 
Q 1019 -91 701 211 
Q 384 513 384 1019 
Q 384 1609 779 1909 
Q 1175 2209 1959 2209 
L 2766 2209 
L 2766 2266 
Q 2766 2663 2505 2880 
Q 2244 3097 1772 3097 
Q 1472 3097 1187 3025 
Q 903 2953 641 2809 
L 641 3341 
Q 956 3463 1253 3523 
Q 1550 3584 1831 3584 
Q 2591 3584 2966 3190 
Q 3341 2797 3341 1997 
z
" transform="scale(0.015625)"/>
       <path id="DejaVuSans-73" d="M 2834 3397 
L 2834 2853 
Q 2591 2978 2328 3040 
Q 2066 3103 1784 3103 
Q 1356 3103 1142 2972 
Q 928 2841 928 2578 
Q 928 2378 1081 2264 
Q 1234 2150 1697 2047 
L 1894 2003 
Q 2506 1872 2764 1633 
Q 3022 1394 3022 966 
Q 3022 478 2636 193 
Q 2250 -91 1575 -91 
Q 1294 -91 989 -36 
Q 684 19 347 128 
L 347 722 
Q 666 556 975 473 
Q 1284 391 1588 391 
Q 1994 391 2212 530 
Q 2431 669 2431 922 
Q 2431 1156 2273 1281 
Q 2116 1406 1581 1522 
L 1381 1569 
Q 847 1681 609 1914 
Q 372 2147 372 2553 
Q 372 3047 722 3315 
Q 1072 3584 1716 3584 
Q 2034 3584 2315 3537 
Q 2597 3491 2834 3397 
z
" transform="scale(0.015625)"/>
       <path id="DejaVuSans-2f" d="M 1625 4666 
L 2156 4666 
L 531 -594 
L 0 -594 
L 1625 4666 
z
" transform="scale(0.015625)"/>
       <path id="DejaVuSans-64" d="M 2906 2969 
L 2906 4863 
L 3481 4863 
L 3481 0 
L 2906 0 
L 2906 525 
Q 2725 213 2448 61 
Q 2172 -91 1784 -91 
Q 1150 -91 751 415 
Q 353 922 353 1747 
Q 353 2572 751 3078 
Q 1150 3584 1784 3584 
Q 2172 3584 2448 3432 
Q 2725 3281 2906 2969 
z
M 947 1747 
Q 947 1113 1208 752 
Q 1469 391 1925 391 
Q 2381 391 2643 752 
Q 2906 1113 2906 1747 
Q 2906 2381 2643 2742 
Q 2381 3103 1925 3103 
Q 1469 3103 1208 2742 
Q 947 2381 947 1747 
z
" transform="scale(0.015625)"/>
       <path id="DejaVuSans-69" d="M 603 3500 
L 1178 3500 
L 1178 0 
L 603 0 
L 603 3500 
z
M 603 4863 
L 1178 4863 
L 1178 4134 
L 603 4134 
L 603 4863 
z
" transform="scale(0.015625)"/>
       <path id="DejaVuSans-6d" d="M 3328 2828 
Q 3544 3216 3844 3400 
Q 4144 3584 4550 3584 
Q 5097 3584 5394 3201 
Q 5691 2819 5691 2113 
L 5691 0 
L 5113 0 
L 5113 2094 
Q 5113 2597 4934 2840 
Q 4756 3084 4391 3084 
Q 3944 3084 3684 2787 
Q 3425 2491 3425 1978 
L 3425 0 
L 2847 0 
L 2847 2094 
Q 2847 2600 2669 2842 
Q 2491 3084 2119 3084 
Q 1678 3084 1418 2786 
Q 1159 2488 1159 1978 
L 1159 0 
L 581 0 
L 581 3500 
L 1159 3500 
L 1159 2956 
Q 1356 3278 1631 3431 
Q 1906 3584 2284 3584 
Q 2666 3584 2933 3390 
Q 3200 3197 3328 2828 
z
" transform="scale(0.015625)"/>
       <path id="DejaVuSans-6e" d="M 3513 2113 
L 3513 0 
L 2938 0 
L 2938 2094 
Q 2938 2591 2744 2837 
Q 2550 3084 2163 3084 
Q 1697 3084 1428 2787 
Q 1159 2491 1159 1978 
L 1159 0 
L 581 0 
L 581 3500 
L 1159 3500 
L 1159 2956 
Q 1366 3272 1645 3428 
Q 1925 3584 2291 3584 
Q 2894 3584 3203 3211 
Q 3513 2838 3513 2113 
z
" transform="scale(0.015625)"/>
       <path id="DejaVuSans-29" d="M 513 4856 
L 1013 4856 
Q 1481 4119 1714 3412 
Q 1947 2706 1947 2009 
Q 1947 1309 1714 600 
Q 1481 -109 1013 -844 
L 513 -844 
Q 928 -128 1133 580 
Q 1338 1288 1338 2009 
Q 1338 2731 1133 3434 
Q 928 4138 513 4856 
z
" transform="scale(0.015625)"/>
      </defs>
      <use xlink:href="#DejaVuSans-6c"/>
      <use xlink:href="#DejaVuSans-6f" x="27.783203"/>
      <use xlink:href="#DejaVuSans-67" x="88.964844"/>
      <use xlink:href="#DejaVuSans-31" x="152.441406"/>
      <use xlink:href="#DejaVuSans-30" x="216.064453"/>
      <use xlink:href="#DejaVuSans-28" x="279.6875"/>
      <use xlink:href="#DejaVuSans-23" x="318.701172"/>
      <use xlink:href="#DejaVuSans-20" x="402.490234"/>
      <use xlink:href="#DejaVuSans-66" x="434.277344"/>
      <use xlink:href="#DejaVuSans-2d" x="463.982422"/>
      <use xlink:href="#DejaVuSans-65" x="500.066406"/>
      <use xlink:href="#DejaVuSans-76" x="561.589844"/>
      <use xlink:href="#DejaVuSans-61" x="620.769531"/>
      <use xlink:href="#DejaVuSans-6c" x="682.048828"/>
      <use xlink:href="#DejaVuSans-73" x="709.832031"/>
      <use xlink:href="#DejaVuSans-20" x="761.931641"/>
      <use xlink:href="#DejaVuSans-2f" x="793.71875"/>
      <use xlink:href="#DejaVuSans-20" x="827.410156"/>
      <use xlink:href="#DejaVuSans-64" x="859.197266"/>
      <use xlink:href="#DejaVuSans-69" x="922.673828"/>
      <use xlink:href="#DejaVuSans-6d" x="950.457031"/>
      <use xlink:href="#DejaVuSans-65" x="1047.869141"/>
      <use xlink:href="#DejaVuSans-6e" x="1109.392578"/>
      <use xlink:href="#DejaVuSans-73" x="1172.771484"/>
      <use xlink:href="#DejaVuSans-69" x="1224.871094"/>
      <use xlink:href="#DejaVuSans-6f" x="1252.654297"/>
      <use xlink:href="#DejaVuSans-6e" x="1313.835938"/>
      <use xlink:href="#DejaVuSans-29" x="1377.214844"/>
     </g>
    </g>
   </g>
   <g id="matplotlib.axis_2">
    <g id="ytick_1">
     <g id="line2d_21">
      <path d="M 57.6 298.944 
L 360.8064 298.944 
" clip-path="url(#pe551d1a3fd)" style="fill: none; stroke: #b0b0b0; stroke-width: 0.8; stroke-linecap: square"/>
     </g>
     <g id="line2d_22">
      <defs>
       <path id="m2f3e031c05" d="M 0 0 
L -3.5 0 
" style="stroke: #000000; stroke-width: 0.8"/>
      </defs>
      <g>
       <use xlink:href="#m2f3e031c05" x="57.6" y="298.944" style="stroke: #000000; stroke-width: 0.8"/>
      </g>
     </g>
     <g id="text_6">
      <!-- 0.0 -->
      <g transform="translate(25.155 305.02275)scale(0.16 -0.16)">
       <defs>
        <path id="DejaVuSans-2e" d="M 684 794 
L 1344 794 
L 1344 0 
L 684 0 
L 684 794 
z
" transform="scale(0.015625)"/>
       </defs>
       <use xlink:href="#DejaVuSans-30"/>
       <use xlink:href="#DejaVuSans-2e" x="63.623047"/>
       <use xlink:href="#DejaVuSans-30" x="95.410156"/>
      </g>
     </g>
    </g>
    <g id="ytick_2">
     <g id="line2d_23">
      <path d="M 57.6 240.5376 
L 360.8064 240.5376 
" clip-path="url(#pe551d1a3fd)" style="fill: none; stroke: #b0b0b0; stroke-width: 0.8; stroke-linecap: square"/>
     </g>
     <g id="line2d_24">
      <g>
       <use xlink:href="#m2f3e031c05" x="57.6" y="240.5376" style="stroke: #000000; stroke-width: 0.8"/>
      </g>
     </g>
     <g id="text_7">
      <!-- 0.2 -->
      <g transform="translate(25.155 246.61635)scale(0.16 -0.16)">
       <use xlink:href="#DejaVuSans-30"/>
       <use xlink:href="#DejaVuSans-2e" x="63.623047"/>
       <use xlink:href="#DejaVuSans-32" x="95.410156"/>
      </g>
     </g>
    </g>
    <g id="ytick_3">
     <g id="line2d_25">
      <path d="M 57.6 182.1312 
L 360.8064 182.1312 
" clip-path="url(#pe551d1a3fd)" style="fill: none; stroke: #b0b0b0; stroke-width: 0.8; stroke-linecap: square"/>
     </g>
     <g id="line2d_26">
      <g>
       <use xlink:href="#m2f3e031c05" x="57.6" y="182.1312" style="stroke: #000000; stroke-width: 0.8"/>
      </g>
     </g>
     <g id="text_8">
      <!-- 0.4 -->
      <g transform="translate(25.155 188.20995)scale(0.16 -0.16)">
       <use xlink:href="#DejaVuSans-30"/>
       <use xlink:href="#DejaVuSans-2e" x="63.623047"/>
       <use xlink:href="#DejaVuSans-34" x="95.410156"/>
      </g>
     </g>
    </g>
    <g id="ytick_4">
     <g id="line2d_27">
      <path d="M 57.6 123.7248 
L 360.8064 123.7248 
" clip-path="url(#pe551d1a3fd)" style="fill: none; stroke: #b0b0b0; stroke-width: 0.8; stroke-linecap: square"/>
     </g>
     <g id="line2d_28">
      <g>
       <use xlink:href="#m2f3e031c05" x="57.6" y="123.7248" style="stroke: #000000; stroke-width: 0.8"/>
      </g>
     </g>
     <g id="text_9">
      <!-- 0.6 -->
      <g transform="translate(25.155 129.80355)scale(0.16 -0.16)">
       <use xlink:href="#DejaVuSans-30"/>
       <use xlink:href="#DejaVuSans-2e" x="63.623047"/>
       <use xlink:href="#DejaVuSans-36" x="95.410156"/>
      </g>
     </g>
    </g>
    <g id="ytick_5">
     <g id="line2d_29">
      <path d="M 57.6 65.3184 
L 360.8064 65.3184 
" clip-path="url(#pe551d1a3fd)" style="fill: none; stroke: #b0b0b0; stroke-width: 0.8; stroke-linecap: square"/>
     </g>
     <g id="line2d_30">
      <g>
       <use xlink:href="#m2f3e031c05" x="57.6" y="65.3184" style="stroke: #000000; stroke-width: 0.8"/>
      </g>
     </g>
     <g id="text_10">
      <!-- 0.8 -->
      <g transform="translate(25.155 71.39715)scale(0.16 -0.16)">
       <defs>
        <path id="DejaVuSans-38" d="M 2034 2216 
Q 1584 2216 1326 1975 
Q 1069 1734 1069 1313 
Q 1069 891 1326 650 
Q 1584 409 2034 409 
Q 2484 409 2743 651 
Q 3003 894 3003 1313 
Q 3003 1734 2745 1975 
Q 2488 2216 2034 2216 
z
M 1403 2484 
Q 997 2584 770 2862 
Q 544 3141 544 3541 
Q 544 4100 942 4425 
Q 1341 4750 2034 4750 
Q 2731 4750 3128 4425 
Q 3525 4100 3525 3541 
Q 3525 3141 3298 2862 
Q 3072 2584 2669 2484 
Q 3125 2378 3379 2068 
Q 3634 1759 3634 1313 
Q 3634 634 3220 271 
Q 2806 -91 2034 -91 
Q 1263 -91 848 271 
Q 434 634 434 1313 
Q 434 1759 690 2068 
Q 947 2378 1403 2484 
z
M 1172 3481 
Q 1172 3119 1398 2916 
Q 1625 2713 2034 2713 
Q 2441 2713 2670 2916 
Q 2900 3119 2900 3481 
Q 2900 3844 2670 4047 
Q 2441 4250 2034 4250 
Q 1625 4250 1398 4047 
Q 1172 3844 1172 3481 
z
" transform="scale(0.015625)"/>
       </defs>
       <use xlink:href="#DejaVuSans-30"/>
       <use xlink:href="#DejaVuSans-2e" x="63.623047"/>
       <use xlink:href="#DejaVuSans-38" x="95.410156"/>
      </g>
     </g>
    </g>
    <g id="ytick_6">
     <g id="line2d_31">
      <path d="M 57.6 6.912 
L 360.8064 6.912 
" clip-path="url(#pe551d1a3fd)" style="fill: none; stroke: #b0b0b0; stroke-width: 0.8; stroke-linecap: square"/>
     </g>
     <g id="line2d_32">
      <g>
       <use xlink:href="#m2f3e031c05" x="57.6" y="6.912" style="stroke: #000000; stroke-width: 0.8"/>
      </g>
     </g>
     <g id="text_11">
      <!-- 1.0 -->
      <g transform="translate(25.155 12.99075)scale(0.16 -0.16)">
       <use xlink:href="#DejaVuSans-31"/>
       <use xlink:href="#DejaVuSans-2e" x="63.623047"/>
       <use xlink:href="#DejaVuSans-30" x="95.410156"/>
      </g>
     </g>
    </g>
    <g id="text_12">
     <!-- Fraction of function,target pairs -->
     <g transform="translate(17.619531 287.313)rotate(-90)scale(0.17 -0.17)">
      <defs>
       <path id="DejaVuSans-46" d="M 628 4666 
L 3309 4666 
L 3309 4134 
L 1259 4134 
L 1259 2759 
L 3109 2759 
L 3109 2228 
L 1259 2228 
L 1259 0 
L 628 0 
L 628 4666 
z
" transform="scale(0.015625)"/>
       <path id="DejaVuSans-72" d="M 2631 2963 
Q 2534 3019 2420 3045 
Q 2306 3072 2169 3072 
Q 1681 3072 1420 2755 
Q 1159 2438 1159 1844 
L 1159 0 
L 581 0 
L 581 3500 
L 1159 3500 
L 1159 2956 
Q 1341 3275 1631 3429 
Q 1922 3584 2338 3584 
Q 2397 3584 2469 3576 
Q 2541 3569 2628 3553 
L 2631 2963 
z
" transform="scale(0.015625)"/>
       <path id="DejaVuSans-63" d="M 3122 3366 
L 3122 2828 
Q 2878 2963 2633 3030 
Q 2388 3097 2138 3097 
Q 1578 3097 1268 2742 
Q 959 2388 959 1747 
Q 959 1106 1268 751 
Q 1578 397 2138 397 
Q 2388 397 2633 464 
Q 2878 531 3122 666 
L 3122 134 
Q 2881 22 2623 -34 
Q 2366 -91 2075 -91 
Q 1284 -91 818 406 
Q 353 903 353 1747 
Q 353 2603 823 3093 
Q 1294 3584 2113 3584 
Q 2378 3584 2631 3529 
Q 2884 3475 3122 3366 
z
" transform="scale(0.015625)"/>
       <path id="DejaVuSans-74" d="M 1172 4494 
L 1172 3500 
L 2356 3500 
L 2356 3053 
L 1172 3053 
L 1172 1153 
Q 1172 725 1289 603 
Q 1406 481 1766 481 
L 2356 481 
L 2356 0 
L 1766 0 
Q 1100 0 847 248 
Q 594 497 594 1153 
L 594 3053 
L 172 3053 
L 172 3500 
L 594 3500 
L 594 4494 
L 1172 4494 
z
" transform="scale(0.015625)"/>
       <path id="DejaVuSans-75" d="M 544 1381 
L 544 3500 
L 1119 3500 
L 1119 1403 
Q 1119 906 1312 657 
Q 1506 409 1894 409 
Q 2359 409 2629 706 
Q 2900 1003 2900 1516 
L 2900 3500 
L 3475 3500 
L 3475 0 
L 2900 0 
L 2900 538 
Q 2691 219 2414 64 
Q 2138 -91 1772 -91 
Q 1169 -91 856 284 
Q 544 659 544 1381 
z
M 1991 3584 
L 1991 3584 
z
" transform="scale(0.015625)"/>
       <path id="DejaVuSans-2c" d="M 750 794 
L 1409 794 
L 1409 256 
L 897 -744 
L 494 -744 
L 750 256 
L 750 794 
z
" transform="scale(0.015625)"/>
       <path id="DejaVuSans-70" d="M 1159 525 
L 1159 -1331 
L 581 -1331 
L 581 3500 
L 1159 3500 
L 1159 2969 
Q 1341 3281 1617 3432 
Q 1894 3584 2278 3584 
Q 2916 3584 3314 3078 
Q 3713 2572 3713 1747 
Q 3713 922 3314 415 
Q 2916 -91 2278 -91 
Q 1894 -91 1617 61 
Q 1341 213 1159 525 
z
M 3116 1747 
Q 3116 2381 2855 2742 
Q 2594 3103 2138 3103 
Q 1681 3103 1420 2742 
Q 1159 2381 1159 1747 
Q 1159 1113 1420 752 
Q 1681 391 2138 391 
Q 2594 391 2855 752 
Q 3116 1113 3116 1747 
z
" transform="scale(0.015625)"/>
      </defs>
      <use xlink:href="#DejaVuSans-46"/>
      <use xlink:href="#DejaVuSans-72" x="50.269531"/>
      <use xlink:href="#DejaVuSans-61" x="91.382812"/>
      <use xlink:href="#DejaVuSans-63" x="152.662109"/>
      <use xlink:href="#DejaVuSans-74" x="207.642578"/>
      <use xlink:href="#DejaVuSans-69" x="246.851562"/>
      <use xlink:href="#DejaVuSans-6f" x="274.634766"/>
      <use xlink:href="#DejaVuSans-6e" x="335.816406"/>
      <use xlink:href="#DejaVuSans-20" x="399.195312"/>
      <use xlink:href="#DejaVuSans-6f" x="430.982422"/>
      <use xlink:href="#DejaVuSans-66" x="492.164062"/>
      <use xlink:href="#DejaVuSans-20" x="527.369141"/>
      <use xlink:href="#DejaVuSans-66" x="559.15625"/>
      <use xlink:href="#DejaVuSans-75" x="594.361328"/>
      <use xlink:href="#DejaVuSans-6e" x="657.740234"/>
      <use xlink:href="#DejaVuSans-63" x="721.119141"/>
      <use xlink:href="#DejaVuSans-74" x="776.099609"/>
      <use xlink:href="#DejaVuSans-69" x="815.308594"/>
      <use xlink:href="#DejaVuSans-6f" x="843.091797"/>
      <use xlink:href="#DejaVuSans-6e" x="904.273438"/>
      <use xlink:href="#DejaVuSans-2c" x="967.652344"/>
      <use xlink:href="#DejaVuSans-74" x="999.439453"/>
      <use xlink:href="#DejaVuSans-61" x="1038.648438"/>
      <use xlink:href="#DejaVuSans-72" x="1099.927734"/>
      <use xlink:href="#DejaVuSans-67" x="1139.291016"/>
      <use xlink:href="#DejaVuSans-65" x="1202.767578"/>
      <use xlink:href="#DejaVuSans-74" x="1264.291016"/>
      <use xlink:href="#DejaVuSans-20" x="1303.5"/>
      <use xlink:href="#DejaVuSans-70" x="1335.287109"/>
      <use xlink:href="#DejaVuSans-61" x="1398.763672"/>
      <use xlink:href="#DejaVuSans-69" x="1460.042969"/>
      <use xlink:href="#DejaVuSans-72" x="1487.826172"/>
      <use xlink:href="#DejaVuSans-73" x="1528.939453"/>
     </g>
    </g>
   </g>
   <g id="line2d_33">
    <defs>
     <path id="m9bdbd3746c" d="M 0 1.5 
C 0.397805 1.5 0.77937 1.341951 1.06066 1.06066 
C 1.341951 0.77937 1.5 0.397805 1.5 0 
C 1.5 -0.397805 1.341951 -0.77937 1.06066 -1.06066 
C 0.77937 -1.341951 0.397805 -1.5 0 -1.5 
C -0.397805 -1.5 -0.77937 -1.341951 -1.06066 -1.06066 
C -1.341951 -0.77937 -1.5 -0.397805 -1.5 0 
C -1.5 0.397805 -1.341951 0.77937 -1.06066 1.06066 
C -0.77937 1.341951 -0.397805 1.5 0 1.5 
z
" style="stroke: #f5deb3"/>
    </defs>
    <g>
     <use xlink:href="#m9bdbd3746c" x="277.20837" y="42.157241" style="fill: #f5deb3; stroke: #f5deb3"/>
     <use xlink:href="#m9bdbd3746c" x="277.20837" y="42.157241" style="fill: #f5deb3; stroke: #f5deb3"/>
    </g>
   </g>
   <g id="line2d_34">
    <defs>
     <path id="mc529d2f1aa" d="M 0 1.5 
C 0.397805 1.5 0.77937 1.341951 1.06066 1.06066 
C 1.341951 0.77937 1.5 0.397805 1.5 0 
C 1.5 -0.397805 1.341951 -0.77937 1.06066 -1.06066 
C 0.77937 -1.341951 0.397805 -1.5 0 -1.5 
C -0.397805 -1.5 -0.77937 -1.341951 -1.06066 -1.06066 
C -1.341951 -0.77937 -1.5 -0.397805 -1.5 0 
C -1.5 0.397805 -1.341951 0.77937 -1.06066 1.06066 
C -0.77937 1.341951 -0.397805 1.5 0 1.5 
z
" style="stroke: #000080"/>
    </defs>
    <g>
     <use xlink:href="#mc529d2f1aa" x="78.266603" y="277.796855" style="fill: #000080; stroke: #000080"/>
     <use xlink:href="#mc529d2f1aa" x="78.266603" y="277.796855" style="fill: #000080; stroke: #000080"/>
    </g>
   </g>
   <g id="line2d_35">
    <path d="M 36.933397 298.944 
L 36.933397 294.538345 
L 49.972572 294.538345 
L 49.972572 291.894952 
L 57.6 291.894952 
L 57.6 288.999807 
L 63.011746 288.999807 
L 63.011746 286.356414 
L 67.209423 286.356414 
L 67.209423 285.601159 
L 70.639174 285.601159 
L 70.639174 284.3424 
L 73.538988 284.3424 
L 73.538988 281.195503 
L 76.050921 281.195503 
L 76.050921 280.817876 
L 78.266603 280.817876 
L 78.266603 277.796855 
L 360.8064 277.796855 
" style="fill: none; stroke: #000080; stroke-width: 1.5; stroke-linecap: square"/>
   </g>
   <g id="line2d_36">
    <defs>
     <path id="m0cff5283f0" d="M 0 6 
C 1.591219 6 3.117479 5.367802 4.242641 4.242641 
C 5.367802 3.117479 6 1.591219 6 0 
C 6 -1.591219 5.367802 -3.117479 4.242641 -4.242641 
C 3.117479 -5.367802 1.591219 -6 0 -6 
C -1.591219 -6 -3.117479 -5.367802 -4.242641 -4.242641 
C -5.367802 -3.117479 -6 -1.591219 -6 0 
C -6 1.591219 -5.367802 3.117479 -4.242641 4.242641 
C -3.117479 5.367802 -1.591219 6 0 6 
z
" style="stroke: #000080; stroke-width: 1.5"/>
    </defs>
    <g>
     <use xlink:href="#m0cff5283f0" x="78.266603" y="280.817876" style="fill-opacity: 0; stroke: #000080; stroke-width: 1.5"/>
     <use xlink:href="#m0cff5283f0" x="78.266603" y="280.817876" style="fill-opacity: 0; stroke: #000080; stroke-width: 1.5"/>
     <use xlink:href="#m0cff5283f0" x="78.266603" y="277.796855" style="fill-opacity: 0; stroke: #000080; stroke-width: 1.5"/>
     <use xlink:href="#m0cff5283f0" x="78.266603" y="277.796855" style="fill-opacity: 0; stroke: #000080; stroke-width: 1.5"/>
     <use xlink:href="#m0cff5283f0" x="78.266603" y="277.796855" style="fill-opacity: 0; stroke: #000080; stroke-width: 1.5"/>
     <use xlink:href="#m0cff5283f0" x="360.8064" y="277.796855" style="fill-opacity: 0; stroke: #000080; stroke-width: 1.5"/>
    </g>
   </g>
   <g id="line2d_37">
    <path style="fill: none; stroke: #000080; stroke-width: 1.5; stroke-linecap: square"/>
    <g/>
   </g>
   <g id="line2d_38">
    <path d="M 78.266603 277.796855 
" clip-path="url(#pe551d1a3fd)" style="fill: none; stroke: #000080; stroke-width: 1.5; stroke-linecap: square"/>
    <defs>
     <path id="meb0a9094c0" d="M -12 12 
L 12 -12 
M -12 -12 
L 12 12 
" style="stroke: #000080"/>
    </defs>
    <g clip-path="url(#pe551d1a3fd)">
     <use xlink:href="#meb0a9094c0" x="78.266603" y="277.796855" style="fill: #000080; stroke: #000080"/>
    </g>
   </g>
   <g id="line2d_39">
    <defs>
     <path id="m6b64b20042" d="M 0 1.5 
C 0.397805 1.5 0.77937 1.341951 1.06066 1.06066 
C 1.341951 0.77937 1.5 0.397805 1.5 0 
C 1.5 -0.397805 1.341951 -0.77937 1.06066 -1.06066 
C 0.77937 -1.341951 0.397805 -1.5 0 -1.5 
C -0.397805 -1.5 -0.77937 -1.341951 -1.06066 -1.06066 
C -1.341951 -0.77937 -1.5 -0.397805 -1.5 0 
C -1.5 0.397805 -1.341951 0.77937 -1.06066 1.06066 
C -0.77937 1.341951 -0.397805 1.5 0 1.5 
z
" style="stroke: #ff00ff"/>
    </defs>
    <g>
     <use xlink:href="#m6b64b20042" x="269.281948" y="133.039614" style="fill: #ff00ff; stroke: #ff00ff"/>
     <use xlink:href="#m6b64b20042" x="269.281948" y="133.039614" style="fill: #ff00ff; stroke: #ff00ff"/>
    </g>
   </g>
   <g id="line2d_40">
    <path d="M 36.933397 298.944 
L 36.933397 294.538345 
L 49.972572 294.538345 
L 49.972572 293.531338 
L 57.6 293.531338 
L 57.6 292.650207 
L 67.209423 292.650207 
L 67.209423 291.517324 
L 70.639174 291.517324 
L 70.639174 289.629186 
L 73.538988 289.629186 
L 73.538988 288.999807 
L 76.050921 288.999807 
L 76.050921 287.363421 
L 78.266603 287.363421 
L 78.266603 286.859917 
L 80.248597 286.859917 
L 80.248597 286.608166 
L 82.04153 286.608166 
L 82.04153 286.356414 
L 85.184077 286.356414 
L 85.184077 285.978786 
L 86.578163 285.978786 
L 86.578163 284.090648 
L 87.876026 284.090648 
L 87.876026 282.706014 
L 89.090095 282.706014 
L 89.090095 282.580138 
L 90.230539 282.580138 
L 90.230539 282.454262 
L 92.322865 282.454262 
L 92.322865 281.824883 
L 93.287772 281.824883 
L 93.287772 281.699007 
L 94.205591 281.699007 
L 94.205591 280.817876 
L 95.080704 280.817876 
L 95.080704 280.692 
L 95.916911 280.692 
L 95.916911 280.314372 
L 97.485448 280.314372 
L 97.485448 280.188497 
L 98.223251 280.188497 
L 98.223251 279.18149 
L 99.617337 279.18149 
L 99.617337 278.929738 
L 100.277459 278.929738 
L 100.277459 277.419228 
L 100.9152 277.419228 
L 100.9152 277.167476 
L 102.12927 277.167476 
L 102.12927 275.782841 
L 102.708132 275.782841 
L 102.708132 275.53109 
L 103.269713 275.53109 
L 103.269713 274.775834 
L 104.344952 274.775834 
L 104.344952 274.649959 
L 105.850679 274.649959 
L 105.850679 274.398207 
L 106.326946 274.398207 
L 106.326946 274.146455 
L 106.791453 274.146455 
L 106.791453 273.642952 
L 108.119879 273.642952 
L 108.119879 273.013572 
L 108.956085 273.013572 
L 108.956085 272.635945 
L 109.360651 272.635945 
L 109.360651 272.258317 
L 110.144579 272.258317 
L 110.144579 271.377186 
L 111.262425 271.377186 
L 111.262425 270.999559 
L 111.620752 270.999559 
L 111.620752 270.873683 
L 111.97238 270.873683 
L 111.97238 270.244303 
L 112.656511 270.244303 
L 112.656511 269.866676 
L 113.316634 269.866676 
L 113.316634 269.363172 
L 113.638206 269.363172 
L 113.638206 268.859669 
L 113.954374 268.859669 
L 113.954374 267.852662 
L 114.265316 267.852662 
L 114.265316 267.223283 
L 115.168444 267.223283 
L 115.168444 266.971531 
L 116.854188 266.971531 
L 116.854188 266.845655 
L 117.121023 266.845655 
L 117.121023 266.593903 
L 117.384126 266.593903 
L 117.384126 264.705766 
L 117.6436 264.705766 
L 117.6436 264.202262 
L 118.401214 264.202262 
L 118.401214 264.076386 
L 118.64712 264.076386 
L 118.64712 263.95051 
L 119.129494 263.95051 
L 119.129494 263.572883 
L 119.366121 263.572883 
L 119.366121 262.691752 
L 119.599808 262.691752 
L 119.599808 262.565876 
L 120.058649 262.565876 
L 120.058649 262.44 
L 120.28394 262.44 
L 120.28394 262.188248 
L 120.726585 262.188248 
L 120.726585 261.684745 
L 120.944062 261.684745 
L 120.944062 261.558869 
L 121.159053 261.558869 
L 121.159053 261.432993 
L 121.789667 261.432993 
L 121.789667 261.181241 
L 122.399825 261.181241 
L 122.399825 259.544855 
L 122.598891 259.544855 
L 122.598891 258.411972 
L 123.563797 258.411972 
L 123.563797 258.034345 
L 123.936316 258.034345 
L 123.936316 257.908469 
L 124.119844 257.908469 
L 124.119844 257.27909 
L 124.3016 257.27909 
L 124.3016 257.027338 
L 124.481616 257.027338 
L 124.481616 256.397959 
L 124.659926 256.397959 
L 124.659926 256.272083 
L 124.836562 256.272083 
L 124.836562 256.146207 
L 125.011554 256.146207 
L 125.011554 256.020331 
L 125.35673 256.020331 
L 125.35673 255.642703 
L 125.526971 255.642703 
L 125.526971 255.516828 
L 126.028642 255.516828 
L 126.028642 255.265076 
L 126.192937 255.265076 
L 126.192937 254.887448 
L 126.355808 254.887448 
L 126.355808 254.761572 
L 126.517282 254.761572 
L 126.517282 254.635697 
L 126.677381 254.635697 
L 126.677381 253.502814 
L 126.993549 253.502814 
L 126.993549 253.125186 
L 127.149662 253.125186 
L 127.149662 252.621683 
L 127.304491 252.621683 
L 127.304491 252.495807 
L 127.911368 252.495807 
L 127.911368 252.369931 
L 128.354013 252.369931 
L 128.354013 252.244055 
L 128.499277 252.244055 
L 128.499277 252.118179 
L 128.643427 252.118179 
L 128.643427 251.866428 
L 128.786481 251.866428 
L 128.786481 251.740552 
L 128.928456 251.740552 
L 128.928456 251.4888 
L 129.069367 251.4888 
L 129.069367 250.859421 
L 129.209231 250.859421 
L 129.209231 250.733545 
L 129.622688 250.733545 
L 129.622688 250.355917 
L 129.893363 250.355917 
L 129.893363 250.104166 
L 130.027253 250.104166 
L 130.027253 249.34891 
L 130.160198 249.34891 
L 130.160198 249.223034 
L 130.811181 249.223034 
L 130.811181 248.845407 
L 131.440389 248.845407 
L 131.440389 248.467779 
L 131.929028 248.467779 
L 131.929028 248.216028 
L 132.405295 248.216028 
L 132.405295 247.964276 
L 132.522502 247.964276 
L 132.522502 247.712524 
L 132.754746 247.712524 
L 132.754746 247.586648 
L 132.984158 247.586648 
L 132.984158 247.334897 
L 133.097823 247.334897 
L 133.097823 247.083145 
L 133.210806 247.083145 
L 133.210806 246.705517 
L 133.545739 246.705517 
L 133.656071 246.202014 
L 134.198228 246.202014 
L 134.304809 245.195007 
L 134.516177 245.195007 
L 134.620977 244.565628 
L 134.725196 244.565628 
L 134.828842 244.188 
L 134.931919 244.188 
L 134.931919 244.062124 
L 135.136394 244.062124 
L 135.237805 243.558621 
L 135.338671 243.558621 
L 135.338671 242.803366 
L 135.538796 242.803366 
L 135.538796 242.299862 
L 135.835047 242.299862 
L 135.932769 241.670483 
L 136.029987 241.670483 
L 136.029987 241.418731 
L 136.318661 241.418731 
L 136.413909 240.663476 
L 136.696795 240.663476 
L 136.790153 240.411724 
L 136.88305 240.411724 
L 136.97549 239.782345 
L 137.067478 239.782345 
L 137.067478 239.656469 
L 137.250116 239.656469 
L 137.250116 239.530593 
L 137.430998 239.530593 
L 137.520791 238.775338 
L 137.610157 238.775338 
L 137.610157 238.649462 
L 137.875736 238.649462 
L 137.963436 237.768331 
L 138.224108 237.768331 
L 138.310202 237.390703 
L 138.985129 237.390703 
L 138.985129 237.138952 
L 139.150143 237.138952 
L 139.232111 236.509572 
L 139.313723 236.509572 
L 139.313723 236.131945 
L 139.475893 236.131945 
L 139.475893 236.006069 
L 139.796097 236.006069 
L 139.796097 235.880193 
L 139.954178 235.880193 
L 140.032723 235.502566 
L 140.188837 235.502566 
L 140.26641 235.124938 
L 140.49723 235.124938 
L 140.573544 234.74731 
L 140.649551 234.74731 
L 140.649551 234.495559 
L 141.173167 234.495559 
L 141.173167 234.243807 
L 141.96763 234.243807 
L 141.96763 234.117931 
L 142.248405 234.117931 
L 142.248405 233.992055 
L 142.45627 233.992055 
L 142.45627 233.740303 
L 142.593581 233.740303 
L 142.593581 233.614428 
L 142.999601 233.614428 
L 142.999601 233.362676 
L 143.331383 233.362676 
L 143.331383 232.859172 
L 143.52768 232.859172 
L 143.52768 232.481545 
L 143.786262 232.481545 
L 143.786262 232.229793 
L 143.914232 232.229793 
L 143.914232 231.978041 
L 144.293001 231.978041 
L 144.293001 231.72629 
L 144.417581 231.72629 
L 144.417581 231.474538 
L 144.725469 231.474538 
L 144.786447 231.09691 
L 145.148219 231.09691 
L 145.207843 230.719283 
L 145.326529 230.719283 
L 145.326529 230.467531 
L 145.966241 230.467531 
L 145.966241 230.215779 
L 146.080251 230.215779 
L 146.080251 229.712276 
L 146.584913 229.712276 
L 146.584913 229.460524 
L 146.913986 229.460524 
L 147.022411 228.705269 
L 147.183884 228.705269 
L 147.183884 228.453517 
L 147.343984 228.453517 
L 147.343984 228.201766 
L 147.660152 228.201766 
L 147.712333 227.824138 
L 147.816265 227.824138 
L 147.868016 227.44651 
L 148.022421 227.44651 
L 148.022421 227.194759 
L 148.428077 227.194759 
L 148.428077 226.691255 
L 148.825169 226.691255 
L 148.825169 226.565379 
L 149.262102 226.565379 
L 149.31003 226.061876 
L 149.689117 226.061876 
L 149.73597 225.558372 
L 150.425115 225.558372 
L 150.515122 225.054869 
L 151.306379 225.054869 
L 151.306379 224.803117 
L 151.815978 224.803117 
L 151.899585 224.42549 
L 152.106991 224.42549 
L 152.106991 224.299614 
L 153.111048 224.299614 
L 153.111048 223.921986 
L 153.839823 223.921986 
L 153.839823 223.79611 
L 154.24919 223.79611 
L 154.24919 223.670234 
L 154.432362 223.670234 
L 154.432362 223.544359 
L 155.391799 223.544359 
L 155.460959 222.789103 
L 155.564225 222.789103 
L 155.564225 222.537352 
L 155.938089 222.537352 
L 155.938089 222.159724 
L 156.271636 222.159724 
L 156.271636 222.033848 
L 156.761123 222.033848 
L 156.761123 221.907972 
L 157.017067 221.907972 
L 157.017067 221.782097 
L 157.518738 221.782097 
L 157.518738 221.656221 
L 158.127579 221.656221 
L 158.127579 221.530345 
L 158.336102 221.530345 
L 158.336102 221.278593 
L 158.600851 221.278593 
L 158.600851 221.152717 
L 158.804221 221.152717 
L 158.804221 220.900966 
L 159.345393 220.900966 
L 159.429436 220.523338 
L 160.673181 220.523338 
L 160.673181 220.271586 
L 161.189305 220.271586 
L 161.189305 220.14571 
L 161.617145 220.14571 
L 161.617145 219.642207 
L 161.888886 219.642207 
L 161.937874 219.264579 
L 162.587027 219.264579 
L 162.634233 219.012828 
L 162.728291 219.012828 
L 162.728291 218.6352 
L 162.984551 218.6352 
L 163.076878 218.257572 
L 163.145827 218.257572 
L 163.145827 218.131697 
L 164.172572 218.131697 
L 164.172572 218.005821 
L 164.302457 218.005821 
L 164.388551 217.754069 
L 164.686815 217.754069 
L 164.792203 217.502317 
L 164.834193 217.502317 
L 164.834193 217.376441 
L 165.35131 217.376441 
L 165.432746 216.998814 
L 165.473332 216.998814 
L 165.473332 216.747062 
L 165.614697 216.747062 
L 165.715025 216.243559 
L 165.814821 216.243559 
L 165.814821 215.991807 
L 166.460523 215.991807 
L 166.537305 215.614179 
L 166.822478 215.614179 
L 166.822478 215.362428 
L 167.435044 215.362428 
L 167.435044 215.236552 
L 167.598703 215.236552 
L 167.598703 215.110676 
L 167.796816 215.110676 
L 167.814723 214.607172 
L 167.992864 214.607172 
L 168.098945 214.103669 
L 168.186891 214.103669 
L 168.186891 213.977793 
L 168.309328 213.977793 
L 168.309328 213.851917 
L 168.569041 213.851917 
L 168.569041 213.096662 
L 168.79126 213.096662 
L 168.79126 212.970786 
L 168.909839 212.970786 
L 168.96043 212.593159 
L 169.144777 212.593159 
L 169.144777 212.341407 
L 169.261154 212.341407 
L 169.343842 211.963779 
L 169.376816 211.963779 
L 169.475392 210.956772 
L 169.768058 210.956772 
L 169.800298 210.705021 
L 169.928705 210.705021 
L 170.024438 209.572138 
L 170.087991 209.572138 
L 170.182919 208.439255 
L 170.433743 208.439255 
L 170.526947 208.187503 
L 170.557912 208.187503 
L 170.619691 207.684 
L 170.681267 207.684 
L 170.757955 207.306372 
L 170.834332 207.306372 
L 170.834332 207.054621 
L 170.986161 207.054621 
L 171.061619 206.802869 
L 171.106748 206.802869 
L 171.211632 206.299366 
L 171.522819 206.299366 
L 171.625414 205.921738 
L 171.640025 205.921738 
L 171.669213 205.54411 
L 171.828941 205.54411 
L 171.872269 205.166483 
L 171.944262 205.166483 
L 171.958627 204.537103 
L 172.087425 204.537103 
L 172.186995 203.781848 
L 172.28604 203.781848 
L 172.356469 203.152469 
L 172.426636 203.152469 
L 172.454629 202.774841 
L 172.801076 202.774841 
L 172.910605 201.89371 
L 172.924252 201.89371 
L 172.965131 201.264331 
L 173.127768 201.264331 
L 173.154738 200.634952 
L 173.369117 200.634952 
L 173.395744 200.3832 
L 173.659955 200.3832 
L 173.659955 200.257324 
L 173.790682 200.257324 
L 173.790682 200.005572 
L 173.985085 200.005572 
L 173.985085 199.879697 
L 174.126381 199.879697 
L 174.1775 199.376193 
L 174.531491 199.376193 
L 174.63142 198.998566 
L 175.013706 198.998566 
L 175.098964 198.746814 
L 175.304425 198.746814 
L 175.412297 198.369186 
L 175.424244 198.369186 
L 175.460042 197.739807 
L 175.578877 197.739807 
L 175.578877 196.858676 
L 175.720495 196.858676 
L 175.732249 196.355172 
L 176.000573 196.355172 
L 176.104537 195.851669 
L 176.127562 195.851669 
L 176.139064 195.474041 
L 176.242267 195.474041 
L 176.310755 194.59291 
L 176.390345 194.59291 
L 176.480894 193.963531 
L 176.582244 193.963531 
L 176.615906 193.585903 
L 176.772205 193.585903 
L 176.883057 192.704772 
L 177.015223 192.704772 
L 177.10282 192.327145 
L 177.179135 192.327145 
L 177.211747 191.320138 
L 177.341632 191.320138 
L 177.406239 190.564883 
L 177.470626 190.564883 
L 177.577449 189.935503 
L 177.598741 189.935503 
L 177.620009 189.683752 
L 177.757668 189.683752 
L 177.757668 189.432 
L 177.88385 189.432 
L 177.88385 189.306124 
L 178.061171 189.306124 
L 178.061171 189.180248 
L 178.216255 189.180248 
L 178.216255 188.928497 
L 178.522639 188.928497 
L 178.593416 188.424993 
L 178.684026 188.424993 
L 178.794182 187.92149 
L 178.853996 187.92149 
L 178.933453 187.417986 
L 179.032306 187.417986 
L 179.032306 187.166234 
L 179.189397 187.166234 
L 179.189397 187.040359 
L 179.451549 187.040359 
L 179.490078 186.285103 
L 179.586055 186.285103 
L 179.662486 186.033352 
L 179.786028 186.033352 
L 179.814423 185.529848 
L 180.049394 185.529848 
L 180.123969 184.648717 
L 180.216774 184.648717 
L 180.327539 184.27109 
L 180.391852 184.27109 
L 180.401022 183.515834 
L 180.556226 183.515834 
L 180.646928 182.508828 
L 180.674054 182.508828 
L 180.674054 182.257076 
L 180.791148 182.257076 
L 180.800125 181.753572 
L 180.952084 181.753572 
L 181.040902 181.375945 
L 181.076312 181.375945 
L 181.076312 181.250069 
L 181.339783 181.250069 
L 181.400733 179.865434 
L 181.470148 179.865434 
L 181.478807 179.613683 
L 181.616811 179.613683 
L 181.616811 179.487807 
L 181.804928 179.487807 
L 181.864391 178.858428 
L 181.999605 178.858428 
L 182.108755 177.851421 
L 182.133854 177.851421 
L 182.133854 177.725545 
L 182.250541 177.725545 
L 182.250541 177.599669 
L 182.366508 177.599669 
L 182.465343 177.096166 
L 182.489971 177.096166 
L 182.555488 176.592662 
L 182.628923 176.592662 
L 182.628923 176.466786 
L 182.774938 176.466786 
L 182.863615 175.459779 
L 182.887728 175.459779 
L 182.903785 175.082152 
L 183.285113 175.082152 
L 183.347923 174.452772 
L 183.402711 174.452772 
L 183.449544 174.075145 
L 183.68198 174.075145 
L 183.758825 173.697517 
L 183.919184 173.697517 
L 184.017773 173.31989 
L 184.085726 173.31989 
L 184.123372 172.942262 
L 184.235859 172.942262 
L 184.325367 172.69051 
L 184.355108 172.69051 
L 184.451445 172.438759 
L 184.584025 172.438759 
L 184.679199 171.809379 
L 184.708387 171.809379 
L 184.81744 171.305876 
L 184.976249 171.305876 
L 185.069465 170.802372 
L 185.416721 170.802372 
L 185.479812 170.047117 
L 185.619261 170.047117 
L 185.723173 168.914234 
L 185.867693 168.914234 
L 185.874547 168.410731 
L 185.983877 168.410731 
L 185.990689 167.907228 
L 186.112887 167.907228 
L 186.112887 167.781352 
L 186.294707 167.781352 
L 186.294707 167.655476 
L 186.474787 167.655476 
L 186.554273 167.151972 
L 186.607077 167.151972 
L 186.666305 166.648469 
L 186.784206 166.648469 
L 186.784206 166.396717 
L 186.901371 166.396717 
L 186.901371 166.144966 
L 187.0629 166.144966 
L 187.082191 165.893214 
L 187.203908 165.893214 
L 187.203908 165.641462 
L 187.356538 165.641462 
L 187.40714 165.012083 
L 187.48279 165.012083 
L 187.48279 164.760331 
L 187.595697 164.760331 
L 187.60195 164.508579 
L 187.707931 164.508579 
L 187.80095 163.8792 
L 187.936552 163.8792 
L 188.022338 163.627448 
L 188.119902 163.627448 
L 188.168495 163.123945 
L 188.46939 163.123945 
L 188.54684 162.494566 
L 188.771423 162.494566 
L 188.771423 162.36869 
L 189.045539 162.36869 
L 189.097576 162.116938 
L 189.206963 162.116938 
L 189.206963 161.991062 
L 189.327128 161.991062 
L 189.401133 161.73931 
L 189.503124 161.73931 
L 189.542638 161.109931 
L 189.65508 161.109931 
L 189.660685 160.858179 
L 189.861343 160.858179 
L 189.971902 160.606428 
L 189.98843 160.606428 
L 190.032434 160.2288 
L 190.114664 160.2288 
L 190.158374 159.725297 
L 190.240057 159.725297 
L 190.240057 159.473545 
L 190.52051 159.473545 
L 190.52051 159.221793 
L 190.712249 159.221793 
L 190.712249 159.095917 
L 190.854781 159.095917 
L 190.943973 158.592414 
L 190.991021 158.592414 
L 190.991021 158.466538 
L 191.597235 158.466538 
L 191.693045 157.963034 
L 191.718178 157.963034 
L 191.823368 157.207779 
L 191.942871 157.207779 
L 191.942871 157.081903 
L 192.28227 157.081903 
L 192.287144 156.704276 
L 192.432782 156.704276 
L 192.52444 156.326648 
L 192.73976 156.326648 
L 192.73976 156.200772 
L 192.952643 156.200772 
L 193.009007 155.571393 
L 193.135213 155.571393 
L 193.218882 155.319641 
L 193.42644 155.319641 
L 193.42644 155.06789 
L 193.717745 155.06789 
L 193.717745 154.816138 
L 194.133166 154.816138 
L 194.238899 154.060883 
L 194.444253 154.060883 
L 194.509322 153.809131 
L 194.647389 153.809131 
L 194.647389 153.683255 
L 194.771643 153.683255 
L 194.771643 153.557379 
L 195.35607 153.557379 
L 195.360209 153.305628 
L 195.741247 153.305628 
L 195.741247 153.053876 
L 195.90279 153.053876 
L 195.950983 152.802124 
L 196.13459 152.802124 
L 196.13459 152.550372 
L 196.265213 152.550372 
L 196.265213 152.424497 
L 197.117362 152.424497 
L 197.222623 152.046869 
L 197.593818 152.046869 
L 197.681825 151.41749 
L 197.794896 151.41749 
L 197.794896 151.291614 
L 198.144369 151.291614 
L 198.144369 151.039862 
L 198.532978 151.039862 
L 198.532978 150.913986 
L 199.097849 150.913986 
L 199.17235 150.536359 
L 199.39076 150.536359 
L 199.39076 150.410483 
L 199.547122 150.410483 
L 199.547122 150.284607 
L 199.998856 150.284607 
L 199.998856 150.158731 
L 200.134215 150.158731 
L 200.236695 149.781103 
L 201.701596 149.781103 
L 201.701596 149.529352 
L 202.292005 149.529352 
L 202.292005 149.403476 
L 202.482871 149.403476 
L 202.482871 149.2776 
L 202.764192 149.2776 
L 202.764192 149.151724 
L 203.200277 149.151724 
L 203.200277 148.899972 
L 203.514126 148.899972 
L 203.514126 148.774097 
L 204.230141 148.774097 
L 204.230141 148.522345 
L 204.499413 148.522345 
L 204.499413 148.396469 
L 204.681854 148.396469 
L 204.681854 148.270593 
L 204.840052 148.270593 
L 204.840052 148.144717 
L 205.043986 148.144717 
L 205.043986 148.018841 
L 205.218796 148.018841 
L 205.218796 147.76709 
L 206.772721 147.76709 
L 206.772721 147.641214 
L 207.012619 147.641214 
L 207.012619 147.389462 
L 207.684414 147.389462 
L 207.776623 146.634207 
L 207.855605 146.634207 
L 207.855605 146.508331 
L 208.033694 146.508331 
L 208.033694 146.382455 
L 208.444857 146.382455 
L 208.444857 146.256579 
L 208.66651 146.256579 
L 208.721518 145.753076 
L 208.883565 145.753076 
L 208.968084 145.501324 
L 209.048227 145.501324 
L 209.048227 145.249572 
L 209.239189 145.249572 
L 209.239189 145.123697 
L 210.821338 145.123697 
L 210.821338 144.997821 
L 211.171045 144.997821 
L 211.171045 144.871945 
L 211.479264 144.871945 
L 211.554661 144.368441 
L 212.787315 144.368441 
L 212.787315 144.242566 
L 213.26309 144.242566 
L 213.26309 144.11669 
L 213.808026 144.11669 
L 213.808026 143.990814 
L 214.094572 143.990814 
L 214.094572 143.864938 
L 214.483451 143.864938 
L 214.483451 143.739062 
L 214.937691 143.739062 
L 214.937691 143.613186 
L 215.04992 143.613186 
L 215.04992 143.361434 
L 215.167262 143.361434 
L 215.167262 143.109683 
L 215.56027 143.109683 
L 215.565927 142.606179 
L 215.921665 142.606179 
L 215.921665 142.480303 
L 216.289857 142.480303 
L 216.289857 142.228552 
L 217.22147 142.228552 
L 217.328629 141.9768 
L 222.437012 141.9768 
L 222.491882 141.347421 
L 224.267284 141.347421 
L 224.329501 140.969793 
L 224.782749 140.969793 
L 224.782749 140.843917 
L 226.756947 140.843917 
L 226.756947 140.718041 
L 227.005648 140.718041 
L 227.005648 140.46629 
L 227.248825 140.46629 
L 227.273123 140.214538 
L 228.852311 140.214538 
L 228.852311 139.962786 
L 229.687486 139.962786 
L 229.687486 139.83691 
L 232.165183 139.83691 
L 232.165183 139.711034 
L 233.306384 139.711034 
L 233.306384 139.585159 
L 237.824955 139.585159 
L 237.824955 139.459283 
L 238.616544 139.459283 
L 238.616544 139.207531 
L 239.016656 139.207531 
L 239.016656 138.955779 
L 239.648923 138.955779 
L 239.648923 138.829903 
L 239.94682 138.829903 
L 239.94682 138.578152 
L 240.12968 138.578152 
L 240.12968 138.452276 
L 241.027366 138.452276 
L 241.027366 138.3264 
L 243.999724 138.3264 
L 243.999724 138.074648 
L 246.395048 138.074648 
L 246.395048 137.948772 
L 250.538499 137.948772 
L 250.538499 137.697021 
L 251.34024 137.697021 
L 251.34024 137.445269 
L 251.950059 137.445269 
L 251.950059 137.319393 
L 253.604157 137.319393 
L 253.604157 137.067641 
L 255.35868 137.067641 
L 255.35868 136.941766 
L 256.381511 136.941766 
L 256.381511 136.564138 
L 256.679013 136.564138 
L 256.679013 136.438262 
L 256.84454 136.438262 
L 256.84454 136.312386 
L 257.48393 136.312386 
L 257.48393 136.060634 
L 258.301654 136.060634 
L 258.301654 135.808883 
L 259.355665 135.808883 
L 259.355665 135.683007 
L 259.62953 135.683007 
L 259.62953 135.557131 
L 260.103413 135.557131 
L 260.170467 135.179503 
L 260.362237 135.179503 
L 260.362237 134.927752 
L 261.240255 134.927752 
L 261.240255 134.676 
L 263.018135 134.676 
L 263.018135 134.550124 
L 264.055549 134.550124 
L 264.161349 134.046621 
L 264.173731 134.046621 
L 264.173731 133.920745 
L 264.833162 133.920745 
L 264.833162 133.794869 
L 265.488775 133.794869 
L 265.571682 133.543117 
L 267.238017 133.543117 
L 267.238017 133.291366 
L 269.281948 133.291366 
L 269.281948 133.039614 
L 360.8064 133.039614 
L 360.8064 133.039614 
" style="fill: none; stroke: #ff00ff; stroke-width: 1.5; stroke-linecap: square"/>
   </g>
   <g id="line2d_41">
    <defs>
     <path id="me47b99efab" d="M 0 8.485281 
L 5.091169 0 
L 0 -8.485281 
L -5.091169 0 
z
" style="stroke: #ff00ff; stroke-width: 1.5; stroke-linejoin: miter"/>
    </defs>
    <g>
     <use xlink:href="#me47b99efab" x="102.708132" y="275.53109" style="fill-opacity: 0; stroke: #ff00ff; stroke-width: 1.5; stroke-linejoin: miter"/>
     <use xlink:href="#me47b99efab" x="147.868016" y="227.572386" style="fill-opacity: 0; stroke: #ff00ff; stroke-width: 1.5; stroke-linejoin: miter"/>
     <use xlink:href="#me47b99efab" x="207.012619" y="147.389462" style="fill-opacity: 0; stroke: #ff00ff; stroke-width: 1.5; stroke-linejoin: miter"/>
     <use xlink:href="#me47b99efab" x="269.281948" y="133.291366" style="fill-opacity: 0; stroke: #ff00ff; stroke-width: 1.5; stroke-linejoin: miter"/>
     <use xlink:href="#me47b99efab" x="269.281948" y="133.039614" style="fill-opacity: 0; stroke: #ff00ff; stroke-width: 1.5; stroke-linejoin: miter"/>
     <use xlink:href="#me47b99efab" x="360.8064" y="133.039614" style="fill-opacity: 0; stroke: #ff00ff; stroke-width: 1.5; stroke-linejoin: miter"/>
    </g>
   </g>
   <g id="line2d_42">
    <path style="fill: none; stroke: #ff00ff; stroke-width: 1.5; stroke-linecap: square"/>
    <g/>
   </g>
   <g id="line2d_43">
    <path d="M 274.176063 133.039614 
" clip-path="url(#pe551d1a3fd)" style="fill: none; stroke: #ff00ff; stroke-width: 1.5; stroke-linecap: square"/>
    <defs>
     <path id="m24992a473d" d="M -12 12 
L 12 -12 
M -12 -12 
L 12 12 
" style="stroke: #ff00ff"/>
    </defs>
    <g clip-path="url(#pe551d1a3fd)">
     <use xlink:href="#m24992a473d" x="274.176063" y="133.039614" style="fill: #ff00ff; stroke: #ff00ff"/>
    </g>
   </g>
   <g id="line2d_44">
    <defs>
     <path id="mb4d148160b" d="M 0 1.5 
C 0.397805 1.5 0.77937 1.341951 1.06066 1.06066 
C 1.341951 0.77937 1.5 0.397805 1.5 0 
C 1.5 -0.397805 1.341951 -0.77937 1.06066 -1.06066 
C 0.77937 -1.341951 0.397805 -1.5 0 -1.5 
C -0.397805 -1.5 -0.77937 -1.341951 -1.06066 -1.06066 
C -1.341951 -0.77937 -1.5 -0.397805 -1.5 0 
C -1.5 0.397805 -1.341951 0.77937 -1.06066 1.06066 
C -0.77937 1.341951 -0.397805 1.5 0 1.5 
z
" style="stroke: #6495ed"/>
    </defs>
    <g>
     <use xlink:href="#mb4d148160b" x="113.954374" y="246.453766" style="fill: #6495ed; stroke: #6495ed"/>
     <use xlink:href="#mb4d148160b" x="113.954374" y="246.453766" style="fill: #6495ed; stroke: #6495ed"/>
    </g>
   </g>
   <g id="line2d_45">
    <path d="M 36.933397 298.944 
L 36.933397 296.929986 
L 49.972572 296.929986 
L 49.972572 294.160717 
L 57.6 294.160717 
L 57.6 293.15371 
L 63.011746 293.15371 
L 63.011746 291.6432 
L 67.209423 291.6432 
L 67.209423 290.636193 
L 70.639174 290.636193 
L 70.639174 289.755062 
L 73.538988 289.755062 
L 73.538988 289.251559 
L 76.050921 289.251559 
L 76.050921 286.985793 
L 78.266603 286.985793 
L 78.266603 285.85291 
L 80.248597 285.85291 
L 80.248597 284.468276 
L 82.04153 284.468276 
L 82.04153 283.964772 
L 83.678349 283.964772 
L 83.678349 283.713021 
L 85.184077 283.713021 
L 85.184077 283.461269 
L 86.578163 283.461269 
L 86.578163 282.83189 
L 87.876026 282.83189 
L 87.876026 282.454262 
L 89.090095 282.454262 
L 89.090095 282.076634 
L 90.230539 282.076634 
L 90.230539 281.950759 
L 91.305777 281.950759 
L 91.305777 281.824883 
L 92.322865 281.824883 
L 92.322865 281.699007 
L 93.287772 281.699007 
L 93.287772 280.817876 
L 94.205591 280.817876 
L 94.205591 280.440248 
L 95.080704 280.440248 
L 95.080704 279.559117 
L 95.916911 279.559117 
L 95.916911 276.915724 
L 98.223251 276.915724 
L 98.223251 276.286345 
L 98.933205 276.286345 
L 98.933205 275.279338 
L 99.617337 275.279338 
L 99.617337 274.90171 
L 101.532027 274.90171 
L 101.532027 273.517076 
L 102.708132 273.517076 
L 102.708132 272.635945 
L 103.269713 272.635945 
L 103.269713 271.125434 
L 103.815014 271.125434 
L 103.815014 269.237297 
L 104.344952 269.237297 
L 104.344952 266.216276 
L 104.860369 266.216276 
L 104.860369 265.586897 
L 105.36204 265.586897 
L 105.36204 263.824634 
L 105.850679 263.824634 
L 105.850679 262.314124 
L 106.326946 262.314124 
L 106.326946 261.307117 
L 106.791453 261.307117 
L 106.791453 259.293103 
L 107.244765 259.293103 
L 107.244765 258.915476 
L 107.68741 258.915476 
L 107.68741 257.530841 
L 108.119879 257.530841 
L 108.119879 257.027338 
L 108.542628 257.027338 
L 108.542628 255.516828 
L 108.956085 255.516828 
L 108.956085 255.013324 
L 109.756698 255.013324 
L 109.756698 254.258069 
L 110.144579 254.258069 
L 110.144579 253.502814 
L 110.524623 253.502814 
L 110.524623 252.495807 
L 110.897141 252.495807 
L 110.897141 252.118179 
L 111.262425 252.118179 
L 111.262425 251.614676 
L 111.620752 251.614676 
L 111.620752 250.355917 
L 111.97238 250.355917 
L 111.97238 249.34891 
L 112.317555 249.34891 
L 112.317555 248.467779 
L 112.656511 248.467779 
L 112.656511 248.341903 
L 112.989468 248.341903 
L 112.989468 247.8384 
L 113.316634 247.8384 
L 113.316634 246.957269 
L 113.638206 246.957269 
L 113.638206 246.705517 
L 113.954374 246.705517 
L 113.954374 246.453766 
L 360.8064 246.453766 
" style="fill: none; stroke: #6495ed; stroke-width: 1.5; stroke-linecap: square"/>
   </g>
   <g id="line2d_46">
    <defs>
     <path id="ma0b6c1c8c5" d="M -0 6 
L 6 -6 
L -6 -6 
z
" style="stroke: #6495ed; stroke-width: 1.5; stroke-linejoin: miter"/>
    </defs>
    <g>
     <use xlink:href="#ma0b6c1c8c5" x="78.266603" y="285.85291" style="fill-opacity: 0; stroke: #6495ed; stroke-width: 1.5; stroke-linejoin: miter"/>
     <use xlink:href="#ma0b6c1c8c5" x="113.954374" y="246.705517" style="fill-opacity: 0; stroke: #6495ed; stroke-width: 1.5; stroke-linejoin: miter"/>
     <use xlink:href="#ma0b6c1c8c5" x="113.954374" y="246.705517" style="fill-opacity: 0; stroke: #6495ed; stroke-width: 1.5; stroke-linejoin: miter"/>
     <use xlink:href="#ma0b6c1c8c5" x="113.954374" y="246.453766" style="fill-opacity: 0; stroke: #6495ed; stroke-width: 1.5; stroke-linejoin: miter"/>
     <use xlink:href="#ma0b6c1c8c5" x="113.954374" y="246.453766" style="fill-opacity: 0; stroke: #6495ed; stroke-width: 1.5; stroke-linejoin: miter"/>
     <use xlink:href="#ma0b6c1c8c5" x="360.8064" y="246.453766" style="fill-opacity: 0; stroke: #6495ed; stroke-width: 1.5; stroke-linejoin: miter"/>
    </g>
   </g>
   <g id="line2d_47">
    <path style="fill: none; stroke: #6495ed; stroke-width: 1.5; stroke-linecap: square"/>
    <g/>
   </g>
   <g id="line2d_48">
    <path d="M 113.954374 246.453766 
" clip-path="url(#pe551d1a3fd)" style="fill: none; stroke: #6495ed; stroke-width: 1.5; stroke-linecap: square"/>
    <defs>
     <path id="m2cb64917ba" d="M -12 12 
L 12 -12 
M -12 -12 
L 12 12 
" style="stroke: #6495ed"/>
    </defs>
    <g clip-path="url(#pe551d1a3fd)">
     <use xlink:href="#m2cb64917ba" x="113.954374" y="246.453766" style="fill: #6495ed; stroke: #6495ed"/>
    </g>
   </g>
   <g id="line2d_49">
    <path d="M 360.8064 277.796855 
L 380.514816 293.10336 
" style="fill: none; stroke: #000080; stroke-width: 1.5; stroke-linecap: square"/>
    <g>
     <use xlink:href="#m0cff5283f0" x="360.8064" y="277.796855" style="fill-opacity: 0; stroke: #000080; stroke-width: 1.5"/>
     <use xlink:href="#m0cff5283f0" x="380.514816" y="293.10336" style="fill-opacity: 0; stroke: #000080; stroke-width: 1.5"/>
    </g>
   </g>
   <g id="line2d_50">
    <path d="M 360.8064 246.453766 
L 380.514816 199.65312 
" style="fill: none; stroke: #6495ed; stroke-width: 1.5; stroke-linecap: square"/>
    <g>
     <use xlink:href="#ma0b6c1c8c5" x="360.8064" y="246.453766" style="fill-opacity: 0; stroke: #6495ed; stroke-width: 1.5; stroke-linejoin: miter"/>
     <use xlink:href="#ma0b6c1c8c5" x="380.514816" y="199.65312" style="fill-opacity: 0; stroke: #6495ed; stroke-width: 1.5; stroke-linejoin: miter"/>
    </g>
   </g>
   <g id="line2d_51">
    <path d="M 360.8064 133.039614 
L 380.514816 106.20288 
" style="fill: none; stroke: #ff00ff; stroke-width: 1.5; stroke-linecap: square"/>
    <g>
     <use xlink:href="#me47b99efab" x="360.8064" y="133.039614" style="fill-opacity: 0; stroke: #ff00ff; stroke-width: 1.5; stroke-linejoin: miter"/>
     <use xlink:href="#me47b99efab" x="380.514816" y="106.20288" style="fill-opacity: 0; stroke: #ff00ff; stroke-width: 1.5; stroke-linejoin: miter"/>
    </g>
   </g>
   <g id="line2d_52">
    <path d="M 360.8064 298.944 
L 360.8064 6.912 
" style="fill: none; stroke: #000000; stroke-width: 1.5; stroke-linecap: square"/>
   </g>
   <g id="patch_3">
    <path d="M 57.6 298.944 
L 360.8064 298.944 
" style="fill: none; stroke: #000000; stroke-width: 0.8; stroke-linejoin: miter; stroke-linecap: square"/>
   </g>
   <g id="patch_4">
    <path d="M 57.6 6.912 
L 360.8064 6.912 
" style="fill: none; stroke: #000000; stroke-width: 0.8; stroke-linejoin: miter; stroke-linecap: square"/>
   </g>
   <g id="text_13">
    <!-- cma -->
    <g transform="translate(386.578944 296.966485)scale(0.14 -0.14)">
     <use xlink:href="#DejaVuSans-63"/>
     <use xlink:href="#DejaVuSans-6d" x="54.980469"/>
     <use xlink:href="#DejaVuSans-61" x="152.392578"/>
    </g>
   </g>
   <g id="text_14">
    <!-- parEgo -->
    <g transform="translate(386.578944 203.516245)scale(0.14 -0.14)">
     <defs>
      <path id="DejaVuSans-45" d="M 628 4666 
L 3578 4666 
L 3578 4134 
L 1259 4134 
L 1259 2753 
L 3481 2753 
L 3481 2222 
L 1259 2222 
L 1259 531 
L 3634 531 
L 3634 0 
L 628 0 
L 628 4666 
z
" transform="scale(0.015625)"/>
     </defs>
     <use xlink:href="#DejaVuSans-70"/>
     <use xlink:href="#DejaVuSans-61" x="63.476562"/>
     <use xlink:href="#DejaVuSans-72" x="124.755859"/>
     <use xlink:href="#DejaVuSans-45" x="165.869141"/>
     <use xlink:href="#DejaVuSans-67" x="229.052734"/>
     <use xlink:href="#DejaVuSans-6f" x="292.529297"/>
    </g>
   </g>
   <g id="text_15">
    <!-- external- -->
    <g transform="translate(386.578944 110.066005)scale(0.14 -0.14)">
     <defs>
      <path id="DejaVuSans-78" d="M 3513 3500 
L 2247 1797 
L 3578 0 
L 2900 0 
L 1881 1375 
L 863 0 
L 184 0 
L 1544 1831 
L 300 3500 
L 978 3500 
L 1906 2253 
L 2834 3500 
L 3513 3500 
z
" transform="scale(0.015625)"/>
     </defs>
     <use xlink:href="#DejaVuSans-65"/>
     <use xlink:href="#DejaVuSans-78" x="59.773438"/>
     <use xlink:href="#DejaVuSans-74" x="118.953125"/>
     <use xlink:href="#DejaVuSans-65" x="158.162109"/>
     <use xlink:href="#DejaVuSans-72" x="219.685547"/>
     <use xlink:href="#DejaVuSans-6e" x="259.048828"/>
     <use xlink:href="#DejaVuSans-61" x="322.427734"/>
     <use xlink:href="#DejaVuSans-6c" x="383.707031"/>
     <use xlink:href="#DejaVuSans-2d" x="411.490234"/>
    </g>
   </g>
   <g id="text_16">
    <!-- best 2016 -->
    <g transform="translate(386.578944 16.615765)scale(0.14 -0.14)">
     <defs>
      <path id="DejaVuSans-62" d="M 3116 1747 
Q 3116 2381 2855 2742 
Q 2594 3103 2138 3103 
Q 1681 3103 1420 2742 
Q 1159 2381 1159 1747 
Q 1159 1113 1420 752 
Q 1681 391 2138 391 
Q 2594 391 2855 752 
Q 3116 1113 3116 1747 
z
M 1159 2969 
Q 1341 3281 1617 3432 
Q 1894 3584 2278 3584 
Q 2916 3584 3314 3078 
Q 3713 2572 3713 1747 
Q 3713 922 3314 415 
Q 2916 -91 2278 -91 
Q 1894 -91 1617 61 
Q 1341 213 1159 525 
L 1159 0 
L 581 0 
L 581 4863 
L 1159 4863 
L 1159 2969 
z
" transform="scale(0.015625)"/>
     </defs>
     <use xlink:href="#DejaVuSans-62"/>
     <use xlink:href="#DejaVuSans-65" x="63.476562"/>
     <use xlink:href="#DejaVuSans-73" x="125"/>
     <use xlink:href="#DejaVuSans-74" x="177.099609"/>
     <use xlink:href="#DejaVuSans-20" x="216.308594"/>
     <use xlink:href="#DejaVuSans-32" x="248.095703"/>
     <use xlink:href="#DejaVuSans-30" x="311.71875"/>
     <use xlink:href="#DejaVuSans-31" x="375.341797"/>
     <use xlink:href="#DejaVuSans-36" x="438.964844"/>
    </g>
   </g>
   <g id="text_17">
    <!-- bbob-biobj f26, f27, f33, f34, 3-D -->
    <g transform="translate(60.632064 17.582726)scale(0.102 -0.102)">
     <defs>
      <path id="DejaVuSans-6a" d="M 603 3500 
L 1178 3500 
L 1178 -63 
Q 1178 -731 923 -1031 
Q 669 -1331 103 -1331 
L -116 -1331 
L -116 -844 
L 38 -844 
Q 366 -844 484 -692 
Q 603 -541 603 -63 
L 603 3500 
z
M 603 4863 
L 1178 4863 
L 1178 4134 
L 603 4134 
L 603 4863 
z
" transform="scale(0.015625)"/>
      <path id="DejaVuSans-37" d="M 525 4666 
L 3525 4666 
L 3525 4397 
L 1831 0 
L 1172 0 
L 2766 4134 
L 525 4134 
L 525 4666 
z
" transform="scale(0.015625)"/>
      <path id="DejaVuSans-33" d="M 2597 2516 
Q 3050 2419 3304 2112 
Q 3559 1806 3559 1356 
Q 3559 666 3084 287 
Q 2609 -91 1734 -91 
Q 1441 -91 1130 -33 
Q 819 25 488 141 
L 488 750 
Q 750 597 1062 519 
Q 1375 441 1716 441 
Q 2309 441 2620 675 
Q 2931 909 2931 1356 
Q 2931 1769 2642 2001 
Q 2353 2234 1838 2234 
L 1294 2234 
L 1294 2753 
L 1863 2753 
Q 2328 2753 2575 2939 
Q 2822 3125 2822 3475 
Q 2822 3834 2567 4026 
Q 2313 4219 1838 4219 
Q 1578 4219 1281 4162 
Q 984 4106 628 3988 
L 628 4550 
Q 988 4650 1302 4700 
Q 1616 4750 1894 4750 
Q 2613 4750 3031 4423 
Q 3450 4097 3450 3541 
Q 3450 3153 3228 2886 
Q 3006 2619 2597 2516 
z
" transform="scale(0.015625)"/>
      <path id="DejaVuSans-44" d="M 1259 4147 
L 1259 519 
L 2022 519 
Q 2988 519 3436 956 
Q 3884 1394 3884 2338 
Q 3884 3275 3436 3711 
Q 2988 4147 2022 4147 
L 1259 4147 
z
M 628 4666 
L 1925 4666 
Q 3281 4666 3915 4102 
Q 4550 3538 4550 2338 
Q 4550 1131 3912 565 
Q 3275 0 1925 0 
L 628 0 
L 628 4666 
z
" transform="scale(0.015625)"/>
     </defs>
     <use xlink:href="#DejaVuSans-62"/>
     <use xlink:href="#DejaVuSans-62" x="63.476562"/>
     <use xlink:href="#DejaVuSans-6f" x="126.953125"/>
     <use xlink:href="#DejaVuSans-62" x="188.134766"/>
     <use xlink:href="#DejaVuSans-2d" x="251.611328"/>
     <use xlink:href="#DejaVuSans-62" x="287.695312"/>
     <use xlink:href="#DejaVuSans-69" x="351.171875"/>
     <use xlink:href="#DejaVuSans-6f" x="378.955078"/>
     <use xlink:href="#DejaVuSans-62" x="440.136719"/>
     <use xlink:href="#DejaVuSans-6a" x="503.613281"/>
     <use xlink:href="#DejaVuSans-20" x="531.396484"/>
     <use xlink:href="#DejaVuSans-66" x="563.183594"/>
     <use xlink:href="#DejaVuSans-32" x="598.388672"/>
     <use xlink:href="#DejaVuSans-36" x="662.011719"/>
     <use xlink:href="#DejaVuSans-2c" x="725.634766"/>
     <use xlink:href="#DejaVuSans-20" x="757.421875"/>
     <use xlink:href="#DejaVuSans-66" x="789.208984"/>
     <use xlink:href="#DejaVuSans-32" x="824.414062"/>
     <use xlink:href="#DejaVuSans-37" x="888.037109"/>
     <use xlink:href="#DejaVuSans-2c" x="951.660156"/>
     <use xlink:href="#DejaVuSans-20" x="983.447266"/>
     <use xlink:href="#DejaVuSans-66" x="1015.234375"/>
     <use xlink:href="#DejaVuSans-33" x="1050.439453"/>
     <use xlink:href="#DejaVuSans-33" x="1114.0625"/>
     <use xlink:href="#DejaVuSans-2c" x="1177.685547"/>
     <use xlink:href="#DejaVuSans-20" x="1209.472656"/>
     <use xlink:href="#DejaVuSans-66" x="1241.259766"/>
     <use xlink:href="#DejaVuSans-33" x="1276.464844"/>
     <use xlink:href="#DejaVuSans-34" x="1340.087891"/>
     <use xlink:href="#DejaVuSans-2c" x="1403.710938"/>
     <use xlink:href="#DejaVuSans-20" x="1435.498047"/>
     <use xlink:href="#DejaVuSans-33" x="1467.285156"/>
     <use xlink:href="#DejaVuSans-2d" x="1530.908203"/>
     <use xlink:href="#DejaVuSans-44" x="1566.992188"/>
    </g>
    <!-- 58 targets: 1..-1.0e-4 -->
    <g transform="translate(60.632064 29.004495)scale(0.102 -0.102)">
     <defs>
      <path id="DejaVuSans-35" d="M 691 4666 
L 3169 4666 
L 3169 4134 
L 1269 4134 
L 1269 2991 
Q 1406 3038 1543 3061 
Q 1681 3084 1819 3084 
Q 2600 3084 3056 2656 
Q 3513 2228 3513 1497 
Q 3513 744 3044 326 
Q 2575 -91 1722 -91 
Q 1428 -91 1123 -41 
Q 819 9 494 109 
L 494 744 
Q 775 591 1075 516 
Q 1375 441 1709 441 
Q 2250 441 2565 725 
Q 2881 1009 2881 1497 
Q 2881 1984 2565 2268 
Q 2250 2553 1709 2553 
Q 1456 2553 1204 2497 
Q 953 2441 691 2322 
L 691 4666 
z
" transform="scale(0.015625)"/>
      <path id="DejaVuSans-3a" d="M 750 794 
L 1409 794 
L 1409 0 
L 750 0 
L 750 794 
z
M 750 3309 
L 1409 3309 
L 1409 2516 
L 750 2516 
L 750 3309 
z
" transform="scale(0.015625)"/>
     </defs>
     <use xlink:href="#DejaVuSans-35"/>
     <use xlink:href="#DejaVuSans-38" x="63.623047"/>
     <use xlink:href="#DejaVuSans-20" x="127.246094"/>
     <use xlink:href="#DejaVuSans-74" x="159.033203"/>
     <use xlink:href="#DejaVuSans-61" x="198.242188"/>
     <use xlink:href="#DejaVuSans-72" x="259.521484"/>
     <use xlink:href="#DejaVuSans-67" x="298.884766"/>
     <use xlink:href="#DejaVuSans-65" x="362.361328"/>
     <use xlink:href="#DejaVuSans-74" x="423.884766"/>
     <use xlink:href="#DejaVuSans-73" x="463.09375"/>
     <use xlink:href="#DejaVuSans-3a" x="515.193359"/>
     <use xlink:href="#DejaVuSans-20" x="548.884766"/>
     <use xlink:href="#DejaVuSans-31" x="580.671875"/>
     <use xlink:href="#DejaVuSans-2e" x="644.294922"/>
     <use xlink:href="#DejaVuSans-2e" x="676.082031"/>
     <use xlink:href="#DejaVuSans-2d" x="707.869141"/>
     <use xlink:href="#DejaVuSans-31" x="743.953125"/>
     <use xlink:href="#DejaVuSans-2e" x="807.576172"/>
     <use xlink:href="#DejaVuSans-30" x="839.363281"/>
     <use xlink:href="#DejaVuSans-65" x="902.986328"/>
     <use xlink:href="#DejaVuSans-2d" x="964.509766"/>
     <use xlink:href="#DejaVuSans-34" x="1000.59375"/>
    </g>
    <!-- 10 instances -->
    <g transform="translate(60.632064 40.426264)scale(0.102 -0.102)">
     <use xlink:href="#DejaVuSans-31"/>
     <use xlink:href="#DejaVuSans-30" x="63.623047"/>
     <use xlink:href="#DejaVuSans-20" x="127.246094"/>
     <use xlink:href="#DejaVuSans-69" x="159.033203"/>
     <use xlink:href="#DejaVuSans-6e" x="186.816406"/>
     <use xlink:href="#DejaVuSans-73" x="250.195312"/>
     <use xlink:href="#DejaVuSans-74" x="302.294922"/>
     <use xlink:href="#DejaVuSans-61" x="341.503906"/>
     <use xlink:href="#DejaVuSans-6e" x="402.783203"/>
     <use xlink:href="#DejaVuSans-63" x="466.162109"/>
     <use xlink:href="#DejaVuSans-65" x="521.142578"/>
     <use xlink:href="#DejaVuSans-73" x="582.666016"/>
    </g>
   </g>
   <g id="text_18">
    <!-- v2.6, hv-hash=ff0e71e8cd978373 -->
    <g style="fill: #808080" transform="translate(123.707887 293.943992)scale(0.1 -0.1)">
     <defs>
      <path id="DejaVuSans-68" d="M 3513 2113 
L 3513 0 
L 2938 0 
L 2938 2094 
Q 2938 2591 2744 2837 
Q 2550 3084 2163 3084 
Q 1697 3084 1428 2787 
Q 1159 2491 1159 1978 
L 1159 0 
L 581 0 
L 581 4863 
L 1159 4863 
L 1159 2956 
Q 1366 3272 1645 3428 
Q 1925 3584 2291 3584 
Q 2894 3584 3203 3211 
Q 3513 2838 3513 2113 
z
" transform="scale(0.015625)"/>
      <path id="DejaVuSans-3d" d="M 678 2906 
L 4684 2906 
L 4684 2381 
L 678 2381 
L 678 2906 
z
M 678 1631 
L 4684 1631 
L 4684 1100 
L 678 1100 
L 678 1631 
z
" transform="scale(0.015625)"/>
      <path id="DejaVuSans-39" d="M 703 97 
L 703 672 
Q 941 559 1184 500 
Q 1428 441 1663 441 
Q 2288 441 2617 861 
Q 2947 1281 2994 2138 
Q 2813 1869 2534 1725 
Q 2256 1581 1919 1581 
Q 1219 1581 811 2004 
Q 403 2428 403 3163 
Q 403 3881 828 4315 
Q 1253 4750 1959 4750 
Q 2769 4750 3195 4129 
Q 3622 3509 3622 2328 
Q 3622 1225 3098 567 
Q 2575 -91 1691 -91 
Q 1453 -91 1209 -44 
Q 966 3 703 97 
z
M 1959 2075 
Q 2384 2075 2632 2365 
Q 2881 2656 2881 3163 
Q 2881 3666 2632 3958 
Q 2384 4250 1959 4250 
Q 1534 4250 1286 3958 
Q 1038 3666 1038 3163 
Q 1038 2656 1286 2365 
Q 1534 2075 1959 2075 
z
" transform="scale(0.015625)"/>
     </defs>
     <use xlink:href="#DejaVuSans-76"/>
     <use xlink:href="#DejaVuSans-32" x="59.179688"/>
     <use xlink:href="#DejaVuSans-2e" x="122.802734"/>
     <use xlink:href="#DejaVuSans-36" x="154.589844"/>
     <use xlink:href="#DejaVuSans-2c" x="218.212891"/>
     <use xlink:href="#DejaVuSans-20" x="250"/>
     <use xlink:href="#DejaVuSans-68" x="281.787109"/>
     <use xlink:href="#DejaVuSans-76" x="345.166016"/>
     <use xlink:href="#DejaVuSans-2d" x="401.720703"/>
     <use xlink:href="#DejaVuSans-68" x="437.804688"/>
     <use xlink:href="#DejaVuSans-61" x="501.183594"/>
     <use xlink:href="#DejaVuSans-73" x="562.462891"/>
     <use xlink:href="#DejaVuSans-68" x="614.5625"/>
     <use xlink:href="#DejaVuSans-3d" x="677.941406"/>
     <use xlink:href="#DejaVuSans-66" x="761.730469"/>
     <use xlink:href="#DejaVuSans-66" x="796.935547"/>
     <use xlink:href="#DejaVuSans-30" x="832.140625"/>
     <use xlink:href="#DejaVuSans-65" x="895.763672"/>
     <use xlink:href="#DejaVuSans-37" x="957.287109"/>
     <use xlink:href="#DejaVuSans-31" x="1020.910156"/>
     <use xlink:href="#DejaVuSans-65" x="1084.533203"/>
     <use xlink:href="#DejaVuSans-38" x="1146.056641"/>
     <use xlink:href="#DejaVuSans-63" x="1209.679688"/>
     <use xlink:href="#DejaVuSans-64" x="1264.660156"/>
     <use xlink:href="#DejaVuSans-39" x="1328.136719"/>
     <use xlink:href="#DejaVuSans-37" x="1391.759766"/>
     <use xlink:href="#DejaVuSans-38" x="1455.382812"/>
     <use xlink:href="#DejaVuSans-33" x="1519.005859"/>
     <use xlink:href="#DejaVuSans-37" x="1582.628906"/>
     <use xlink:href="#DejaVuSans-33" x="1646.251953"/>
    </g>
   </g>
  </g>
 </g>
 <defs>
  <clipPath id="pe551d1a3fd">
   <rect x="57.6" y="6.912" width="303.2064" height="292.032"/>
  </clipPath>
 </defs>
</svg>
