<?xml version="1.0" encoding="utf-8" standalone="no"?>
<!DOCTYPE svg PUBLIC "-//W3C//DTD SVG 1.1//EN"
  "http://www.w3.org/Graphics/SVG/1.1/DTD/svg11.dtd">
<svg xmlns:xlink="http://www.w3.org/1999/xlink" width="460.8pt" height="345.6pt" viewBox="0 0 460.8 345.6" xmlns="http://www.w3.org/2000/svg" version="1.1">
 <metadata>
  <rdf:RDF xmlns:dc="http://purl.org/dc/elements/1.1/" xmlns:cc="http://creativecommons.org/ns#" xmlns:rdf="http://www.w3.org/1999/02/22-rdf-syntax-ns#">
   <cc:Work>
    <dc:type rdf:resource="http://purl.org/dc/dcmitype/StillImage"/>
    <dc:date>2022-06-19T21:03:03.048423</dc:date>
    <dc:format>image/svg+xml</dc:format>
    <dc:creator>
     <cc:Agent>
      <dc:title>Matplotlib v3.5.1, https://matplotlib.org/</dc:title>
     </cc:Agent>
    </dc:creator>
   </cc:Work>
  </rdf:RDF>
 </metadata>
 <defs>
  <style type="text/css">*{stroke-linejoin: round; stroke-linecap: butt}</style>
 </defs>
 <g id="figure_1">
  <g id="patch_1">
   <path d="M 0 345.6 
L 460.8 345.6 
L 460.8 0 
L 0 0 
z
" style="fill: #ffffff"/>
  </g>
  <g id="axes_1">
   <g id="patch_2">
    <path d="M 57.6 298.944 
L 360.8064 298.944 
L 360.8064 6.912 
L 57.6 6.912 
z
" style="fill: #ffffff"/>
   </g>
   <g id="line2d_1">
    <path d="M 1.245626 298.944 
L 1.245626 295.167724 
L 21.912228 295.167724 
L 21.912228 293.908966 
L 44.560826 293.908966 
L 44.560826 291.391448 
L 58.517819 291.391448 
L 58.517819 288.873931 
L 63.929565 288.873931 
L 63.929565 286.356414 
L 65.844256 286.356414 
L 65.844256 283.838897 
L 78.577544 283.838897 
L 78.577544 282.580138 
L 82.464279 282.580138 
L 82.464279 280.062621 
L 86.101895 280.062621 
L 86.101895 277.545103 
L 86.911119 277.545103 
L 86.911119 273.768828 
L 91.46189 273.768828 
L 91.46189 271.25131 
L 95.875972 271.25131 
L 95.875972 269.992552 
L 97.066974 269.992552 
L 97.066974 267.475034 
L 97.635342 267.475034 
L 97.635342 264.957517 
L 101.743226 264.957517 
L 101.743226 261.181241 
L 107.109915 261.181241 
L 107.109915 259.922483 
L 112.231853 259.922483 
L 112.231853 258.663724 
L 116.460428 258.663724 
L 116.460428 256.146207 
L 116.948011 256.146207 
L 116.948011 254.887448 
L 119.495008 254.887448 
L 119.495008 252.369931 
L 128.354013 252.369931 
L 128.354013 248.593655 
L 133.069471 248.593655 
L 133.069471 247.334897 
L 134.015642 247.334897 
L 134.015642 244.817379 
L 138.629591 244.817379 
L 138.629591 242.299862 
L 139.950242 242.299862 
L 139.950242 239.782345 
L 144.538258 239.782345 
L 144.538258 237.264828 
L 145.361989 237.264828 
L 145.361989 233.488552 
L 150.166205 233.488552 
L 150.166205 232.229793 
L 151.096434 232.229793 
L 151.096434 229.712276 
L 155.757183 229.712276 
L 155.757183 225.936 
L 156.677186 225.936 
L 156.677186 223.418483 
L 159.97218 223.418483 
L 159.97218 219.642207 
L 161.22872 219.642207 
L 161.22872 218.383448 
L 163.41347 218.383448 
L 163.41347 215.865931 
L 166.644276 215.865931 
L 166.644276 212.089655 
L 169.202224 212.089655 
L 169.202224 208.313379 
L 170.09592 208.313379 
L 170.09592 207.054621 
L 172.210388 207.054621 
L 172.210388 204.537103 
L 177.840308 204.537103 
L 177.840308 200.760828 
L 179.255765 200.760828 
L 179.255765 199.502069 
L 183.324394 199.502069 
L 183.324394 198.24331 
L 186.892934 198.24331 
L 186.892934 194.467034 
L 192.450667 194.467034 
L 192.450667 190.690759 
L 192.577782 190.690759 
L 192.577782 188.173241 
L 194.780823 188.173241 
L 194.780823 186.914483 
L 198.966587 186.914483 
L 198.966587 184.396966 
L 203.046732 184.396966 
L 203.046732 183.138207 
L 203.476659 183.138207 
L 203.476659 179.361931 
L 204.705921 179.361931 
L 204.705921 176.844414 
L 206.652864 176.844414 
L 206.652864 175.585655 
L 211.288551 175.585655 
L 211.288551 174.326897 
L 211.452364 174.326897 
L 211.452364 171.809379 
L 213.812993 171.809379 
L 213.812993 168.033103 
L 217.6692 168.033103 
L 217.6692 165.515586 
L 220.19798 165.515586 
L 220.19798 164.256828 
L 220.546704 164.256828 
L 220.546704 161.73931 
L 223.840397 161.73931 
L 223.840397 159.221793 
L 227.520267 159.221793 
L 227.520267 155.445517 
L 228.431564 155.445517 
L 228.431564 151.669241 
L 231.017038 151.669241 
L 231.026084 147.892966 
L 231.59616 147.892966 
L 231.59616 145.375448 
L 232.357612 145.375448 
L 232.357612 142.857931 
L 234.6176 142.857931 
L 234.6176 141.599172 
L 235.952632 141.599172 
L 235.952632 139.081655 
L 244.744554 139.081655 
L 244.744554 136.564138 
L 248.286508 136.564138 
L 248.286508 134.046621 
L 255.069946 134.046621 
L 255.069946 132.787862 
L 261.945778 132.787862 
L 261.945778 129.011586 
L 264.573364 129.011586 
L 264.573364 125.23531 
L 266.942766 125.23531 
L 266.942766 122.717793 
L 276.100528 122.717793 
L 276.100528 118.941517 
L 277.564399 118.941517 
L 277.564399 116.424 
L 277.77537 116.424 
L 277.816208 111.388966 
L 278.246571 111.388966 
L 278.246571 107.61269 
L 278.489223 107.61269 
L 278.489223 106.353931 
L 278.776954 106.353931 
L 278.776954 102.577655 
L 279.814737 102.577655 
L 279.814737 100.060138 
L 283.251643 100.060138 
L 283.251643 98.801379 
L 292.18049 98.801379 
L 292.278825 88.73131 
L 292.359338 88.73131 
L 292.359338 86.213793 
L 293.576122 86.213793 
L 293.576122 82.437517 
L 293.973516 82.437517 
L 293.973516 81.178759 
L 295.24379 81.178759 
L 295.24379 77.402483 
L 302.139537 77.402483 
L 302.204971 72.367448 
L 302.301854 72.367448 
L 302.301854 71.10869 
L 302.446328 71.10869 
L 302.446328 67.332414 
L 302.664052 67.332414 
L 302.664052 64.814897 
L 302.989002 64.814897 
L 302.989002 62.297379 
L 303.47507 62.297379 
L 303.47507 61.038621 
L 304.197669 61.038621 
L 304.197669 58.521103 
L 305.192738 58.521103 
L 305.282131 52.22731 
L 307.663523 52.22731 
L 307.663523 49.709793 
L 308.372497 49.709793 
L 308.372497 48.451034 
L 309.367964 48.451034 
L 309.367964 45.933517 
L 310.668708 45.933517 
L 310.668708 42.157241 
L 360.8064 42.157241 
L 360.8064 42.157241 
" style="fill: none; stroke: #f5deb3; stroke-width: 4; stroke-linecap: square"/>
   </g>
   <g id="line2d_2">
    <defs>
     <path id="m0f35dbc546" d="M 0 7.778175 
L 7.778175 0 
L 0 -7.778175 
L -7.778175 0 
z
" style="stroke: #f5deb3; stroke-width: 1.5; stroke-linejoin: miter"/>
    </defs>
    <g>
     <use xlink:href="#m0f35dbc546" x="134.015642" y="247.334897" style="fill: #f5deb3; stroke: #f5deb3; stroke-width: 1.5; stroke-linejoin: miter"/>
     <use xlink:href="#m0f35dbc546" x="203.476659" y="183.138207" style="fill: #f5deb3; stroke: #f5deb3; stroke-width: 1.5; stroke-linejoin: miter"/>
     <use xlink:href="#m0f35dbc546" x="276.100528" y="122.717793" style="fill: #f5deb3; stroke: #f5deb3; stroke-width: 1.5; stroke-linejoin: miter"/>
     <use xlink:href="#m0f35dbc546" x="310.668708" y="42.157241" style="fill: #f5deb3; stroke: #f5deb3; stroke-width: 1.5; stroke-linejoin: miter"/>
     <use xlink:href="#m0f35dbc546" x="310.668708" y="42.157241" style="fill: #f5deb3; stroke: #f5deb3; stroke-width: 1.5; stroke-linejoin: miter"/>
     <use xlink:href="#m0f35dbc546" x="360.8064" y="42.157241" style="fill: #f5deb3; stroke: #f5deb3; stroke-width: 1.5; stroke-linejoin: miter"/>
    </g>
   </g>
   <g id="line2d_3">
    <path style="fill: none; stroke: #f5deb3; stroke-width: 4; stroke-linecap: square"/>
    <g/>
   </g>
   <g id="line2d_4">
    <path d="M 360.8064 42.157241 
L 380.514816 12.75264 
" style="fill: none; stroke: #f5deb3; stroke-width: 4; stroke-linecap: square"/>
    <g>
     <use xlink:href="#m0f35dbc546" x="360.8064" y="42.157241" style="fill: #f5deb3; stroke: #f5deb3; stroke-width: 1.5; stroke-linejoin: miter"/>
     <use xlink:href="#m0f35dbc546" x="380.514816" y="12.75264" style="fill: #f5deb3; stroke: #f5deb3; stroke-width: 1.5; stroke-linejoin: miter"/>
    </g>
   </g>
   <g id="matplotlib.axis_1">
    <g id="xtick_1">
     <g id="line2d_5">
      <path d="M 57.6 298.944 
L 57.6 6.912 
" clip-path="url(#p2d8ed12252)" style="fill: none; stroke: #b0b0b0; stroke-width: 0.8; stroke-linecap: square"/>
     </g>
     <g id="line2d_6">
      <defs>
       <path id="m262b8fc33d" d="M 0 0 
L 0 3.5 
" style="stroke: #000000; stroke-width: 0.8"/>
      </defs>
      <g>
       <use xlink:href="#m262b8fc33d" x="57.6" y="298.944" style="stroke: #000000; stroke-width: 0.8"/>
      </g>
     </g>
     <g id="text_1">
      <!-- 0 -->
      <g transform="translate(52.191875 318.861344)scale(0.17 -0.17)">
       <defs>
        <path id="DejaVuSans-30" d="M 2034 4250 
Q 1547 4250 1301 3770 
Q 1056 3291 1056 2328 
Q 1056 1369 1301 889 
Q 1547 409 2034 409 
Q 2525 409 2770 889 
Q 3016 1369 3016 2328 
Q 3016 3291 2770 3770 
Q 2525 4250 2034 4250 
z
M 2034 4750 
Q 2819 4750 3233 4129 
Q 3647 3509 3647 2328 
Q 3647 1150 3233 529 
Q 2819 -91 2034 -91 
Q 1250 -91 836 529 
Q 422 1150 422 2328 
Q 422 3509 836 4129 
Q 1250 4750 2034 4750 
z
" transform="scale(0.015625)"/>
       </defs>
       <use xlink:href="#DejaVuSans-30"/>
      </g>
     </g>
    </g>
    <g id="xtick_2">
     <g id="line2d_7">
      <path d="M 144.2304 298.944 
L 144.2304 6.912 
" clip-path="url(#p2d8ed12252)" style="fill: none; stroke: #b0b0b0; stroke-width: 0.8; stroke-linecap: square"/>
     </g>
     <g id="line2d_8">
      <g>
       <use xlink:href="#m262b8fc33d" x="144.2304" y="298.944" style="stroke: #000000; stroke-width: 0.8"/>
      </g>
     </g>
     <g id="text_2">
      <!-- 2 -->
      <g transform="translate(138.822275 318.861344)scale(0.17 -0.17)">
       <defs>
        <path id="DejaVuSans-32" d="M 1228 531 
L 3431 531 
L 3431 0 
L 469 0 
L 469 531 
Q 828 903 1448 1529 
Q 2069 2156 2228 2338 
Q 2531 2678 2651 2914 
Q 2772 3150 2772 3378 
Q 2772 3750 2511 3984 
Q 2250 4219 1831 4219 
Q 1534 4219 1204 4116 
Q 875 4013 500 3803 
L 500 4441 
Q 881 4594 1212 4672 
Q 1544 4750 1819 4750 
Q 2544 4750 2975 4387 
Q 3406 4025 3406 3419 
Q 3406 3131 3298 2873 
Q 3191 2616 2906 2266 
Q 2828 2175 2409 1742 
Q 1991 1309 1228 531 
z
" transform="scale(0.015625)"/>
       </defs>
       <use xlink:href="#DejaVuSans-32"/>
      </g>
     </g>
    </g>
    <g id="xtick_3">
     <g id="line2d_9">
      <path d="M 230.8608 298.944 
L 230.8608 6.912 
" clip-path="url(#p2d8ed12252)" style="fill: none; stroke: #b0b0b0; stroke-width: 0.8; stroke-linecap: square"/>
     </g>
     <g id="line2d_10">
      <g>
       <use xlink:href="#m262b8fc33d" x="230.8608" y="298.944" style="stroke: #000000; stroke-width: 0.8"/>
      </g>
     </g>
     <g id="text_3">
      <!-- 4 -->
      <g transform="translate(225.452675 318.861344)scale(0.17 -0.17)">
       <defs>
        <path id="DejaVuSans-34" d="M 2419 4116 
L 825 1625 
L 2419 1625 
L 2419 4116 
z
M 2253 4666 
L 3047 4666 
L 3047 1625 
L 3713 1625 
L 3713 1100 
L 3047 1100 
L 3047 0 
L 2419 0 
L 2419 1100 
L 313 1100 
L 313 1709 
L 2253 4666 
z
" transform="scale(0.015625)"/>
       </defs>
       <use xlink:href="#DejaVuSans-34"/>
      </g>
     </g>
    </g>
    <g id="xtick_4">
     <g id="line2d_11">
      <path d="M 317.4912 298.944 
L 317.4912 6.912 
" clip-path="url(#p2d8ed12252)" style="fill: none; stroke: #b0b0b0; stroke-width: 0.8; stroke-linecap: square"/>
     </g>
     <g id="line2d_12">
      <g>
       <use xlink:href="#m262b8fc33d" x="317.4912" y="298.944" style="stroke: #000000; stroke-width: 0.8"/>
      </g>
     </g>
     <g id="text_4">
      <!-- 6 -->
      <g transform="translate(312.083075 318.861344)scale(0.17 -0.17)">
       <defs>
        <path id="DejaVuSans-36" d="M 2113 2584 
Q 1688 2584 1439 2293 
Q 1191 2003 1191 1497 
Q 1191 994 1439 701 
Q 1688 409 2113 409 
Q 2538 409 2786 701 
Q 3034 994 3034 1497 
Q 3034 2003 2786 2293 
Q 2538 2584 2113 2584 
z
M 3366 4563 
L 3366 3988 
Q 3128 4100 2886 4159 
Q 2644 4219 2406 4219 
Q 1781 4219 1451 3797 
Q 1122 3375 1075 2522 
Q 1259 2794 1537 2939 
Q 1816 3084 2150 3084 
Q 2853 3084 3261 2657 
Q 3669 2231 3669 1497 
Q 3669 778 3244 343 
Q 2819 -91 2113 -91 
Q 1303 -91 875 529 
Q 447 1150 447 2328 
Q 447 3434 972 4092 
Q 1497 4750 2381 4750 
Q 2619 4750 2861 4703 
Q 3103 4656 3366 4563 
z
" transform="scale(0.015625)"/>
       </defs>
       <use xlink:href="#DejaVuSans-36"/>
      </g>
     </g>
    </g>
    <g id="xtick_5">
     <g id="line2d_13">
      <path d="M 100.9152 298.944 
L 100.9152 6.912 
" clip-path="url(#p2d8ed12252)" style="fill: none; stroke: #b0b0b0; stroke-width: 0.8; stroke-linecap: square"/>
     </g>
     <g id="line2d_14">
      <defs>
       <path id="m77c24bdae2" d="M 0 0 
L 0 2 
" style="stroke: #000000; stroke-width: 0.6"/>
      </defs>
      <g>
       <use xlink:href="#m77c24bdae2" x="100.9152" y="298.944" style="stroke: #000000; stroke-width: 0.6"/>
      </g>
     </g>
    </g>
    <g id="xtick_6">
     <g id="line2d_15">
      <path d="M 187.5456 298.944 
L 187.5456 6.912 
" clip-path="url(#p2d8ed12252)" style="fill: none; stroke: #b0b0b0; stroke-width: 0.8; stroke-linecap: square"/>
     </g>
     <g id="line2d_16">
      <g>
       <use xlink:href="#m77c24bdae2" x="187.5456" y="298.944" style="stroke: #000000; stroke-width: 0.6"/>
      </g>
     </g>
    </g>
    <g id="xtick_7">
     <g id="line2d_17">
      <path d="M 274.176 298.944 
L 274.176 6.912 
" clip-path="url(#p2d8ed12252)" style="fill: none; stroke: #b0b0b0; stroke-width: 0.8; stroke-linecap: square"/>
     </g>
     <g id="line2d_18">
      <g>
       <use xlink:href="#m77c24bdae2" x="274.176" y="298.944" style="stroke: #000000; stroke-width: 0.6"/>
      </g>
     </g>
    </g>
    <g id="xtick_8">
     <g id="line2d_19">
      <path d="M 360.8064 298.944 
L 360.8064 6.912 
" clip-path="url(#p2d8ed12252)" style="fill: none; stroke: #b0b0b0; stroke-width: 0.8; stroke-linecap: square"/>
     </g>
     <g id="line2d_20">
      <g>
       <use xlink:href="#m77c24bdae2" x="360.8064" y="298.944" style="stroke: #000000; stroke-width: 0.6"/>
      </g>
     </g>
    </g>
    <g id="text_5">
     <!-- log10(# f-evals / dimension) -->
     <g transform="translate(88.823278 339.314156)scale(0.17 -0.17)">
      <defs>
       <path id="DejaVuSans-6c" d="M 603 4863 
L 1178 4863 
L 1178 0 
L 603 0 
L 603 4863 
z
" transform="scale(0.015625)"/>
       <path id="DejaVuSans-6f" d="M 1959 3097 
Q 1497 3097 1228 2736 
Q 959 2375 959 1747 
Q 959 1119 1226 758 
Q 1494 397 1959 397 
Q 2419 397 2687 759 
Q 2956 1122 2956 1747 
Q 2956 2369 2687 2733 
Q 2419 3097 1959 3097 
z
M 1959 3584 
Q 2709 3584 3137 3096 
Q 3566 2609 3566 1747 
Q 3566 888 3137 398 
Q 2709 -91 1959 -91 
Q 1206 -91 779 398 
Q 353 888 353 1747 
Q 353 2609 779 3096 
Q 1206 3584 1959 3584 
z
" transform="scale(0.015625)"/>
       <path id="DejaVuSans-67" d="M 2906 1791 
Q 2906 2416 2648 2759 
Q 2391 3103 1925 3103 
Q 1463 3103 1205 2759 
Q 947 2416 947 1791 
Q 947 1169 1205 825 
Q 1463 481 1925 481 
Q 2391 481 2648 825 
Q 2906 1169 2906 1791 
z
M 3481 434 
Q 3481 -459 3084 -895 
Q 2688 -1331 1869 -1331 
Q 1566 -1331 1297 -1286 
Q 1028 -1241 775 -1147 
L 775 -588 
Q 1028 -725 1275 -790 
Q 1522 -856 1778 -856 
Q 2344 -856 2625 -561 
Q 2906 -266 2906 331 
L 2906 616 
Q 2728 306 2450 153 
Q 2172 0 1784 0 
Q 1141 0 747 490 
Q 353 981 353 1791 
Q 353 2603 747 3093 
Q 1141 3584 1784 3584 
Q 2172 3584 2450 3431 
Q 2728 3278 2906 2969 
L 2906 3500 
L 3481 3500 
L 3481 434 
z
" transform="scale(0.015625)"/>
       <path id="DejaVuSans-31" d="M 794 531 
L 1825 531 
L 1825 4091 
L 703 3866 
L 703 4441 
L 1819 4666 
L 2450 4666 
L 2450 531 
L 3481 531 
L 3481 0 
L 794 0 
L 794 531 
z
" transform="scale(0.015625)"/>
       <path id="DejaVuSans-28" d="M 1984 4856 
Q 1566 4138 1362 3434 
Q 1159 2731 1159 2009 
Q 1159 1288 1364 580 
Q 1569 -128 1984 -844 
L 1484 -844 
Q 1016 -109 783 600 
Q 550 1309 550 2009 
Q 550 2706 781 3412 
Q 1013 4119 1484 4856 
L 1984 4856 
z
" transform="scale(0.015625)"/>
       <path id="DejaVuSans-23" d="M 3272 2816 
L 2363 2816 
L 2100 1772 
L 3016 1772 
L 3272 2816 
z
M 2803 4594 
L 2478 3297 
L 3391 3297 
L 3719 4594 
L 4219 4594 
L 3897 3297 
L 4872 3297 
L 4872 2816 
L 3775 2816 
L 3519 1772 
L 4513 1772 
L 4513 1294 
L 3397 1294 
L 3072 0 
L 2572 0 
L 2894 1294 
L 1978 1294 
L 1656 0 
L 1153 0 
L 1478 1294 
L 494 1294 
L 494 1772 
L 1594 1772 
L 1856 2816 
L 850 2816 
L 850 3297 
L 1978 3297 
L 2297 4594 
L 2803 4594 
z
" transform="scale(0.015625)"/>
       <path id="DejaVuSans-20" transform="scale(0.015625)"/>
       <path id="DejaVuSans-66" d="M 2375 4863 
L 2375 4384 
L 1825 4384 
Q 1516 4384 1395 4259 
Q 1275 4134 1275 3809 
L 1275 3500 
L 2222 3500 
L 2222 3053 
L 1275 3053 
L 1275 0 
L 697 0 
L 697 3053 
L 147 3053 
L 147 3500 
L 697 3500 
L 697 3744 
Q 697 4328 969 4595 
Q 1241 4863 1831 4863 
L 2375 4863 
z
" transform="scale(0.015625)"/>
       <path id="DejaVuSans-2d" d="M 313 2009 
L 1997 2009 
L 1997 1497 
L 313 1497 
L 313 2009 
z
" transform="scale(0.015625)"/>
       <path id="DejaVuSans-65" d="M 3597 1894 
L 3597 1613 
L 953 1613 
Q 991 1019 1311 708 
Q 1631 397 2203 397 
Q 2534 397 2845 478 
Q 3156 559 3463 722 
L 3463 178 
Q 3153 47 2828 -22 
Q 2503 -91 2169 -91 
Q 1331 -91 842 396 
Q 353 884 353 1716 
Q 353 2575 817 3079 
Q 1281 3584 2069 3584 
Q 2775 3584 3186 3129 
Q 3597 2675 3597 1894 
z
M 3022 2063 
Q 3016 2534 2758 2815 
Q 2500 3097 2075 3097 
Q 1594 3097 1305 2825 
Q 1016 2553 972 2059 
L 3022 2063 
z
" transform="scale(0.015625)"/>
       <path id="DejaVuSans-76" d="M 191 3500 
L 800 3500 
L 1894 563 
L 2988 3500 
L 3597 3500 
L 2284 0 
L 1503 0 
L 191 3500 
z
" transform="scale(0.015625)"/>
       <path id="DejaVuSans-61" d="M 2194 1759 
Q 1497 1759 1228 1600 
Q 959 1441 959 1056 
Q 959 750 1161 570 
Q 1363 391 1709 391 
Q 2188 391 2477 730 
Q 2766 1069 2766 1631 
L 2766 1759 
L 2194 1759 
z
M 3341 1997 
L 3341 0 
L 2766 0 
L 2766 531 
Q 2569 213 2275 61 
Q 1981 -91 1556 -91 
Q 1019 -91 701 211 
Q 384 513 384 1019 
Q 384 1609 779 1909 
Q 1175 2209 1959 2209 
L 2766 2209 
L 2766 2266 
Q 2766 2663 2505 2880 
Q 2244 3097 1772 3097 
Q 1472 3097 1187 3025 
Q 903 2953 641 2809 
L 641 3341 
Q 956 3463 1253 3523 
Q 1550 3584 1831 3584 
Q 2591 3584 2966 3190 
Q 3341 2797 3341 1997 
z
" transform="scale(0.015625)"/>
       <path id="DejaVuSans-73" d="M 2834 3397 
L 2834 2853 
Q 2591 2978 2328 3040 
Q 2066 3103 1784 3103 
Q 1356 3103 1142 2972 
Q 928 2841 928 2578 
Q 928 2378 1081 2264 
Q 1234 2150 1697 2047 
L 1894 2003 
Q 2506 1872 2764 1633 
Q 3022 1394 3022 966 
Q 3022 478 2636 193 
Q 2250 -91 1575 -91 
Q 1294 -91 989 -36 
Q 684 19 347 128 
L 347 722 
Q 666 556 975 473 
Q 1284 391 1588 391 
Q 1994 391 2212 530 
Q 2431 669 2431 922 
Q 2431 1156 2273 1281 
Q 2116 1406 1581 1522 
L 1381 1569 
Q 847 1681 609 1914 
Q 372 2147 372 2553 
Q 372 3047 722 3315 
Q 1072 3584 1716 3584 
Q 2034 3584 2315 3537 
Q 2597 3491 2834 3397 
z
" transform="scale(0.015625)"/>
       <path id="DejaVuSans-2f" d="M 1625 4666 
L 2156 4666 
L 531 -594 
L 0 -594 
L 1625 4666 
z
" transform="scale(0.015625)"/>
       <path id="DejaVuSans-64" d="M 2906 2969 
L 2906 4863 
L 3481 4863 
L 3481 0 
L 2906 0 
L 2906 525 
Q 2725 213 2448 61 
Q 2172 -91 1784 -91 
Q 1150 -91 751 415 
Q 353 922 353 1747 
Q 353 2572 751 3078 
Q 1150 3584 1784 3584 
Q 2172 3584 2448 3432 
Q 2725 3281 2906 2969 
z
M 947 1747 
Q 947 1113 1208 752 
Q 1469 391 1925 391 
Q 2381 391 2643 752 
Q 2906 1113 2906 1747 
Q 2906 2381 2643 2742 
Q 2381 3103 1925 3103 
Q 1469 3103 1208 2742 
Q 947 2381 947 1747 
z
" transform="scale(0.015625)"/>
       <path id="DejaVuSans-69" d="M 603 3500 
L 1178 3500 
L 1178 0 
L 603 0 
L 603 3500 
z
M 603 4863 
L 1178 4863 
L 1178 4134 
L 603 4134 
L 603 4863 
z
" transform="scale(0.015625)"/>
       <path id="DejaVuSans-6d" d="M 3328 2828 
Q 3544 3216 3844 3400 
Q 4144 3584 4550 3584 
Q 5097 3584 5394 3201 
Q 5691 2819 5691 2113 
L 5691 0 
L 5113 0 
L 5113 2094 
Q 5113 2597 4934 2840 
Q 4756 3084 4391 3084 
Q 3944 3084 3684 2787 
Q 3425 2491 3425 1978 
L 3425 0 
L 2847 0 
L 2847 2094 
Q 2847 2600 2669 2842 
Q 2491 3084 2119 3084 
Q 1678 3084 1418 2786 
Q 1159 2488 1159 1978 
L 1159 0 
L 581 0 
L 581 3500 
L 1159 3500 
L 1159 2956 
Q 1356 3278 1631 3431 
Q 1906 3584 2284 3584 
Q 2666 3584 2933 3390 
Q 3200 3197 3328 2828 
z
" transform="scale(0.015625)"/>
       <path id="DejaVuSans-6e" d="M 3513 2113 
L 3513 0 
L 2938 0 
L 2938 2094 
Q 2938 2591 2744 2837 
Q 2550 3084 2163 3084 
Q 1697 3084 1428 2787 
Q 1159 2491 1159 1978 
L 1159 0 
L 581 0 
L 581 3500 
L 1159 3500 
L 1159 2956 
Q 1366 3272 1645 3428 
Q 1925 3584 2291 3584 
Q 2894 3584 3203 3211 
Q 3513 2838 3513 2113 
z
" transform="scale(0.015625)"/>
       <path id="DejaVuSans-29" d="M 513 4856 
L 1013 4856 
Q 1481 4119 1714 3412 
Q 1947 2706 1947 2009 
Q 1947 1309 1714 600 
Q 1481 -109 1013 -844 
L 513 -844 
Q 928 -128 1133 580 
Q 1338 1288 1338 2009 
Q 1338 2731 1133 3434 
Q 928 4138 513 4856 
z
" transform="scale(0.015625)"/>
      </defs>
      <use xlink:href="#DejaVuSans-6c"/>
      <use xlink:href="#DejaVuSans-6f" x="27.783203"/>
      <use xlink:href="#DejaVuSans-67" x="88.964844"/>
      <use xlink:href="#DejaVuSans-31" x="152.441406"/>
      <use xlink:href="#DejaVuSans-30" x="216.064453"/>
      <use xlink:href="#DejaVuSans-28" x="279.6875"/>
      <use xlink:href="#DejaVuSans-23" x="318.701172"/>
      <use xlink:href="#DejaVuSans-20" x="402.490234"/>
      <use xlink:href="#DejaVuSans-66" x="434.277344"/>
      <use xlink:href="#DejaVuSans-2d" x="463.982422"/>
      <use xlink:href="#DejaVuSans-65" x="500.066406"/>
      <use xlink:href="#DejaVuSans-76" x="561.589844"/>
      <use xlink:href="#DejaVuSans-61" x="620.769531"/>
      <use xlink:href="#DejaVuSans-6c" x="682.048828"/>
      <use xlink:href="#DejaVuSans-73" x="709.832031"/>
      <use xlink:href="#DejaVuSans-20" x="761.931641"/>
      <use xlink:href="#DejaVuSans-2f" x="793.71875"/>
      <use xlink:href="#DejaVuSans-20" x="827.410156"/>
      <use xlink:href="#DejaVuSans-64" x="859.197266"/>
      <use xlink:href="#DejaVuSans-69" x="922.673828"/>
      <use xlink:href="#DejaVuSans-6d" x="950.457031"/>
      <use xlink:href="#DejaVuSans-65" x="1047.869141"/>
      <use xlink:href="#DejaVuSans-6e" x="1109.392578"/>
      <use xlink:href="#DejaVuSans-73" x="1172.771484"/>
      <use xlink:href="#DejaVuSans-69" x="1224.871094"/>
      <use xlink:href="#DejaVuSans-6f" x="1252.654297"/>
      <use xlink:href="#DejaVuSans-6e" x="1313.835938"/>
      <use xlink:href="#DejaVuSans-29" x="1377.214844"/>
     </g>
    </g>
   </g>
   <g id="matplotlib.axis_2">
    <g id="ytick_1">
     <g id="line2d_21">
      <path d="M 57.6 298.944 
L 360.8064 298.944 
" clip-path="url(#p2d8ed12252)" style="fill: none; stroke: #b0b0b0; stroke-width: 0.8; stroke-linecap: square"/>
     </g>
     <g id="line2d_22">
      <defs>
       <path id="m35ad680e7f" d="M 0 0 
L -3.5 0 
" style="stroke: #000000; stroke-width: 0.8"/>
      </defs>
      <g>
       <use xlink:href="#m35ad680e7f" x="57.6" y="298.944" style="stroke: #000000; stroke-width: 0.8"/>
      </g>
     </g>
     <g id="text_6">
      <!-- 0.0 -->
      <g transform="translate(25.155 305.02275)scale(0.16 -0.16)">
       <defs>
        <path id="DejaVuSans-2e" d="M 684 794 
L 1344 794 
L 1344 0 
L 684 0 
L 684 794 
z
" transform="scale(0.015625)"/>
       </defs>
       <use xlink:href="#DejaVuSans-30"/>
       <use xlink:href="#DejaVuSans-2e" x="63.623047"/>
       <use xlink:href="#DejaVuSans-30" x="95.410156"/>
      </g>
     </g>
    </g>
    <g id="ytick_2">
     <g id="line2d_23">
      <path d="M 57.6 240.5376 
L 360.8064 240.5376 
" clip-path="url(#p2d8ed12252)" style="fill: none; stroke: #b0b0b0; stroke-width: 0.8; stroke-linecap: square"/>
     </g>
     <g id="line2d_24">
      <g>
       <use xlink:href="#m35ad680e7f" x="57.6" y="240.5376" style="stroke: #000000; stroke-width: 0.8"/>
      </g>
     </g>
     <g id="text_7">
      <!-- 0.2 -->
      <g transform="translate(25.155 246.61635)scale(0.16 -0.16)">
       <use xlink:href="#DejaVuSans-30"/>
       <use xlink:href="#DejaVuSans-2e" x="63.623047"/>
       <use xlink:href="#DejaVuSans-32" x="95.410156"/>
      </g>
     </g>
    </g>
    <g id="ytick_3">
     <g id="line2d_25">
      <path d="M 57.6 182.1312 
L 360.8064 182.1312 
" clip-path="url(#p2d8ed12252)" style="fill: none; stroke: #b0b0b0; stroke-width: 0.8; stroke-linecap: square"/>
     </g>
     <g id="line2d_26">
      <g>
       <use xlink:href="#m35ad680e7f" x="57.6" y="182.1312" style="stroke: #000000; stroke-width: 0.8"/>
      </g>
     </g>
     <g id="text_8">
      <!-- 0.4 -->
      <g transform="translate(25.155 188.20995)scale(0.16 -0.16)">
       <use xlink:href="#DejaVuSans-30"/>
       <use xlink:href="#DejaVuSans-2e" x="63.623047"/>
       <use xlink:href="#DejaVuSans-34" x="95.410156"/>
      </g>
     </g>
    </g>
    <g id="ytick_4">
     <g id="line2d_27">
      <path d="M 57.6 123.7248 
L 360.8064 123.7248 
" clip-path="url(#p2d8ed12252)" style="fill: none; stroke: #b0b0b0; stroke-width: 0.8; stroke-linecap: square"/>
     </g>
     <g id="line2d_28">
      <g>
       <use xlink:href="#m35ad680e7f" x="57.6" y="123.7248" style="stroke: #000000; stroke-width: 0.8"/>
      </g>
     </g>
     <g id="text_9">
      <!-- 0.6 -->
      <g transform="translate(25.155 129.80355)scale(0.16 -0.16)">
       <use xlink:href="#DejaVuSans-30"/>
       <use xlink:href="#DejaVuSans-2e" x="63.623047"/>
       <use xlink:href="#DejaVuSans-36" x="95.410156"/>
      </g>
     </g>
    </g>
    <g id="ytick_5">
     <g id="line2d_29">
      <path d="M 57.6 65.3184 
L 360.8064 65.3184 
" clip-path="url(#p2d8ed12252)" style="fill: none; stroke: #b0b0b0; stroke-width: 0.8; stroke-linecap: square"/>
     </g>
     <g id="line2d_30">
      <g>
       <use xlink:href="#m35ad680e7f" x="57.6" y="65.3184" style="stroke: #000000; stroke-width: 0.8"/>
      </g>
     </g>
     <g id="text_10">
      <!-- 0.8 -->
      <g transform="translate(25.155 71.39715)scale(0.16 -0.16)">
       <defs>
        <path id="DejaVuSans-38" d="M 2034 2216 
Q 1584 2216 1326 1975 
Q 1069 1734 1069 1313 
Q 1069 891 1326 650 
Q 1584 409 2034 409 
Q 2484 409 2743 651 
Q 3003 894 3003 1313 
Q 3003 1734 2745 1975 
Q 2488 2216 2034 2216 
z
M 1403 2484 
Q 997 2584 770 2862 
Q 544 3141 544 3541 
Q 544 4100 942 4425 
Q 1341 4750 2034 4750 
Q 2731 4750 3128 4425 
Q 3525 4100 3525 3541 
Q 3525 3141 3298 2862 
Q 3072 2584 2669 2484 
Q 3125 2378 3379 2068 
Q 3634 1759 3634 1313 
Q 3634 634 3220 271 
Q 2806 -91 2034 -91 
Q 1263 -91 848 271 
Q 434 634 434 1313 
Q 434 1759 690 2068 
Q 947 2378 1403 2484 
z
M 1172 3481 
Q 1172 3119 1398 2916 
Q 1625 2713 2034 2713 
Q 2441 2713 2670 2916 
Q 2900 3119 2900 3481 
Q 2900 3844 2670 4047 
Q 2441 4250 2034 4250 
Q 1625 4250 1398 4047 
Q 1172 3844 1172 3481 
z
" transform="scale(0.015625)"/>
       </defs>
       <use xlink:href="#DejaVuSans-30"/>
       <use xlink:href="#DejaVuSans-2e" x="63.623047"/>
       <use xlink:href="#DejaVuSans-38" x="95.410156"/>
      </g>
     </g>
    </g>
    <g id="ytick_6">
     <g id="line2d_31">
      <path d="M 57.6 6.912 
L 360.8064 6.912 
" clip-path="url(#p2d8ed12252)" style="fill: none; stroke: #b0b0b0; stroke-width: 0.8; stroke-linecap: square"/>
     </g>
     <g id="line2d_32">
      <g>
       <use xlink:href="#m35ad680e7f" x="57.6" y="6.912" style="stroke: #000000; stroke-width: 0.8"/>
      </g>
     </g>
     <g id="text_11">
      <!-- 1.0 -->
      <g transform="translate(25.155 12.99075)scale(0.16 -0.16)">
       <use xlink:href="#DejaVuSans-31"/>
       <use xlink:href="#DejaVuSans-2e" x="63.623047"/>
       <use xlink:href="#DejaVuSans-30" x="95.410156"/>
      </g>
     </g>
    </g>
    <g id="text_12">
     <!-- Fraction of function,target pairs -->
     <g transform="translate(17.619531 287.313)rotate(-90)scale(0.17 -0.17)">
      <defs>
       <path id="DejaVuSans-46" d="M 628 4666 
L 3309 4666 
L 3309 4134 
L 1259 4134 
L 1259 2759 
L 3109 2759 
L 3109 2228 
L 1259 2228 
L 1259 0 
L 628 0 
L 628 4666 
z
" transform="scale(0.015625)"/>
       <path id="DejaVuSans-72" d="M 2631 2963 
Q 2534 3019 2420 3045 
Q 2306 3072 2169 3072 
Q 1681 3072 1420 2755 
Q 1159 2438 1159 1844 
L 1159 0 
L 581 0 
L 581 3500 
L 1159 3500 
L 1159 2956 
Q 1341 3275 1631 3429 
Q 1922 3584 2338 3584 
Q 2397 3584 2469 3576 
Q 2541 3569 2628 3553 
L 2631 2963 
z
" transform="scale(0.015625)"/>
       <path id="DejaVuSans-63" d="M 3122 3366 
L 3122 2828 
Q 2878 2963 2633 3030 
Q 2388 3097 2138 3097 
Q 1578 3097 1268 2742 
Q 959 2388 959 1747 
Q 959 1106 1268 751 
Q 1578 397 2138 397 
Q 2388 397 2633 464 
Q 2878 531 3122 666 
L 3122 134 
Q 2881 22 2623 -34 
Q 2366 -91 2075 -91 
Q 1284 -91 818 406 
Q 353 903 353 1747 
Q 353 2603 823 3093 
Q 1294 3584 2113 3584 
Q 2378 3584 2631 3529 
Q 2884 3475 3122 3366 
z
" transform="scale(0.015625)"/>
       <path id="DejaVuSans-74" d="M 1172 4494 
L 1172 3500 
L 2356 3500 
L 2356 3053 
L 1172 3053 
L 1172 1153 
Q 1172 725 1289 603 
Q 1406 481 1766 481 
L 2356 481 
L 2356 0 
L 1766 0 
Q 1100 0 847 248 
Q 594 497 594 1153 
L 594 3053 
L 172 3053 
L 172 3500 
L 594 3500 
L 594 4494 
L 1172 4494 
z
" transform="scale(0.015625)"/>
       <path id="DejaVuSans-75" d="M 544 1381 
L 544 3500 
L 1119 3500 
L 1119 1403 
Q 1119 906 1312 657 
Q 1506 409 1894 409 
Q 2359 409 2629 706 
Q 2900 1003 2900 1516 
L 2900 3500 
L 3475 3500 
L 3475 0 
L 2900 0 
L 2900 538 
Q 2691 219 2414 64 
Q 2138 -91 1772 -91 
Q 1169 -91 856 284 
Q 544 659 544 1381 
z
M 1991 3584 
L 1991 3584 
z
" transform="scale(0.015625)"/>
       <path id="DejaVuSans-2c" d="M 750 794 
L 1409 794 
L 1409 256 
L 897 -744 
L 494 -744 
L 750 256 
L 750 794 
z
" transform="scale(0.015625)"/>
       <path id="DejaVuSans-70" d="M 1159 525 
L 1159 -1331 
L 581 -1331 
L 581 3500 
L 1159 3500 
L 1159 2969 
Q 1341 3281 1617 3432 
Q 1894 3584 2278 3584 
Q 2916 3584 3314 3078 
Q 3713 2572 3713 1747 
Q 3713 922 3314 415 
Q 2916 -91 2278 -91 
Q 1894 -91 1617 61 
Q 1341 213 1159 525 
z
M 3116 1747 
Q 3116 2381 2855 2742 
Q 2594 3103 2138 3103 
Q 1681 3103 1420 2742 
Q 1159 2381 1159 1747 
Q 1159 1113 1420 752 
Q 1681 391 2138 391 
Q 2594 391 2855 752 
Q 3116 1113 3116 1747 
z
" transform="scale(0.015625)"/>
      </defs>
      <use xlink:href="#DejaVuSans-46"/>
      <use xlink:href="#DejaVuSans-72" x="50.269531"/>
      <use xlink:href="#DejaVuSans-61" x="91.382812"/>
      <use xlink:href="#DejaVuSans-63" x="152.662109"/>
      <use xlink:href="#DejaVuSans-74" x="207.642578"/>
      <use xlink:href="#DejaVuSans-69" x="246.851562"/>
      <use xlink:href="#DejaVuSans-6f" x="274.634766"/>
      <use xlink:href="#DejaVuSans-6e" x="335.816406"/>
      <use xlink:href="#DejaVuSans-20" x="399.195312"/>
      <use xlink:href="#DejaVuSans-6f" x="430.982422"/>
      <use xlink:href="#DejaVuSans-66" x="492.164062"/>
      <use xlink:href="#DejaVuSans-20" x="527.369141"/>
      <use xlink:href="#DejaVuSans-66" x="559.15625"/>
      <use xlink:href="#DejaVuSans-75" x="594.361328"/>
      <use xlink:href="#DejaVuSans-6e" x="657.740234"/>
      <use xlink:href="#DejaVuSans-63" x="721.119141"/>
      <use xlink:href="#DejaVuSans-74" x="776.099609"/>
      <use xlink:href="#DejaVuSans-69" x="815.308594"/>
      <use xlink:href="#DejaVuSans-6f" x="843.091797"/>
      <use xlink:href="#DejaVuSans-6e" x="904.273438"/>
      <use xlink:href="#DejaVuSans-2c" x="967.652344"/>
      <use xlink:href="#DejaVuSans-74" x="999.439453"/>
      <use xlink:href="#DejaVuSans-61" x="1038.648438"/>
      <use xlink:href="#DejaVuSans-72" x="1099.927734"/>
      <use xlink:href="#DejaVuSans-67" x="1139.291016"/>
      <use xlink:href="#DejaVuSans-65" x="1202.767578"/>
      <use xlink:href="#DejaVuSans-74" x="1264.291016"/>
      <use xlink:href="#DejaVuSans-20" x="1303.5"/>
      <use xlink:href="#DejaVuSans-70" x="1335.287109"/>
      <use xlink:href="#DejaVuSans-61" x="1398.763672"/>
      <use xlink:href="#DejaVuSans-69" x="1460.042969"/>
      <use xlink:href="#DejaVuSans-72" x="1487.826172"/>
      <use xlink:href="#DejaVuSans-73" x="1528.939453"/>
     </g>
    </g>
   </g>
   <g id="line2d_33">
    <defs>
     <path id="m8176cb2ce3" d="M 0 1.5 
C 0.397805 1.5 0.77937 1.341951 1.06066 1.06066 
C 1.341951 0.77937 1.5 0.397805 1.5 0 
C 1.5 -0.397805 1.341951 -0.77937 1.06066 -1.06066 
C 0.77937 -1.341951 0.397805 -1.5 0 -1.5 
C -0.397805 -1.5 -0.77937 -1.341951 -1.06066 -1.06066 
C -1.341951 -0.77937 -1.5 -0.397805 -1.5 0 
C -1.5 0.397805 -1.341951 0.77937 -1.06066 1.06066 
C -0.77937 1.341951 -0.397805 1.5 0 1.5 
z
" style="stroke: #f5deb3"/>
    </defs>
    <g>
     <use xlink:href="#m8176cb2ce3" x="310.668708" y="42.157241" style="fill: #f5deb3; stroke: #f5deb3"/>
     <use xlink:href="#m8176cb2ce3" x="310.668708" y="42.157241" style="fill: #f5deb3; stroke: #f5deb3"/>
    </g>
   </g>
   <g id="line2d_34">
    <defs>
     <path id="mffd4e55520" d="M 0 1.5 
C 0.397805 1.5 0.77937 1.341951 1.06066 1.06066 
C 1.341951 0.77937 1.5 0.397805 1.5 0 
C 1.5 -0.397805 1.341951 -0.77937 1.06066 -1.06066 
C 0.77937 -1.341951 0.397805 -1.5 0 -1.5 
C -0.397805 -1.5 -0.77937 -1.341951 -1.06066 -1.06066 
C -1.341951 -0.77937 -1.5 -0.397805 -1.5 0 
C -1.5 0.397805 -1.341951 0.77937 -1.06066 1.06066 
C -0.77937 1.341951 -0.397805 1.5 0 1.5 
z
" style="stroke: #000080"/>
    </defs>
    <g>
     <use xlink:href="#mffd4e55520" x="74.836851" y="285.475283" style="fill: #000080; stroke: #000080"/>
     <use xlink:href="#mffd4e55520" x="74.836851" y="285.475283" style="fill: #000080; stroke: #000080"/>
    </g>
   </g>
   <g id="line2d_35">
    <path d="M 1.245626 298.944 
L 1.245626 287.9928 
L 21.912228 287.9928 
L 21.912228 287.866924 
L 31.521651 287.866924 
L 31.521651 287.615172 
L 42.578831 287.615172 
L 42.578831 287.489297 
L 44.560826 287.489297 
L 44.560826 287.363421 
L 49.496305 287.363421 
L 49.496305 287.237545 
L 50.890391 287.237545 
L 50.890391 286.985793 
L 54.542767 286.985793 
L 54.542767 286.859917 
L 56.635094 286.859917 
L 56.635094 286.734041 
L 58.517819 286.734041 
L 58.517819 286.608166 
L 61.797677 286.608166 
L 61.797677 286.48229 
L 68.127242 286.48229 
L 68.127242 286.356414 
L 71.103681 286.356414 
L 71.103681 286.230538 
L 73.268314 286.230538 
L 73.268314 285.978786 
L 74.836851 285.978786 
L 74.836851 285.475283 
L 360.8064 285.475283 
" style="fill: none; stroke: #000080; stroke-width: 1.5; stroke-linecap: square"/>
   </g>
   <g id="line2d_36">
    <defs>
     <path id="m3c9e419e91" d="M 0 6 
C 1.591219 6 3.117479 5.367802 4.242641 4.242641 
C 5.367802 3.117479 6 1.591219 6 0 
C 6 -1.591219 5.367802 -3.117479 4.242641 -4.242641 
C 3.117479 -5.367802 1.591219 -6 0 -6 
C -1.591219 -6 -3.117479 -5.367802 -4.242641 -4.242641 
C -5.367802 -3.117479 -6 -1.591219 -6 0 
C -6 1.591219 -5.367802 3.117479 -4.242641 4.242641 
C -3.117479 5.367802 -1.591219 6 0 6 
z
" style="stroke: #000080; stroke-width: 1.5"/>
    </defs>
    <g>
     <use xlink:href="#m3c9e419e91" x="74.836851" y="285.978786" style="fill-opacity: 0; stroke: #000080; stroke-width: 1.5"/>
     <use xlink:href="#m3c9e419e91" x="74.836851" y="285.978786" style="fill-opacity: 0; stroke: #000080; stroke-width: 1.5"/>
     <use xlink:href="#m3c9e419e91" x="74.836851" y="285.475283" style="fill-opacity: 0; stroke: #000080; stroke-width: 1.5"/>
     <use xlink:href="#m3c9e419e91" x="74.836851" y="285.475283" style="fill-opacity: 0; stroke: #000080; stroke-width: 1.5"/>
     <use xlink:href="#m3c9e419e91" x="360.8064" y="285.475283" style="fill-opacity: 0; stroke: #000080; stroke-width: 1.5"/>
    </g>
   </g>
   <g id="line2d_37">
    <path style="fill: none; stroke: #000080; stroke-width: 1.5; stroke-linecap: square"/>
    <g/>
   </g>
   <g id="line2d_38">
    <path d="M 74.836851 285.475283 
" clip-path="url(#p2d8ed12252)" style="fill: none; stroke: #000080; stroke-width: 1.5; stroke-linecap: square"/>
    <defs>
     <path id="m4086a19cbe" d="M -12 12 
L 12 -12 
M -12 -12 
L 12 12 
" style="stroke: #000080"/>
    </defs>
    <g clip-path="url(#p2d8ed12252)">
     <use xlink:href="#m4086a19cbe" x="74.836851" y="285.475283" style="fill: #000080; stroke: #000080"/>
    </g>
   </g>
   <g id="line2d_39">
    <defs>
     <path id="mdfddc28104" d="M 0 1.5 
C 0.397805 1.5 0.77937 1.341951 1.06066 1.06066 
C 1.341951 0.77937 1.5 0.397805 1.5 0 
C 1.5 -0.397805 1.341951 -0.77937 1.06066 -1.06066 
C 0.77937 -1.341951 0.397805 -1.5 0 -1.5 
C -0.397805 -1.5 -0.77937 -1.341951 -1.06066 -1.06066 
C -1.341951 -0.77937 -1.5 -0.397805 -1.5 0 
C -1.5 0.397805 -1.341951 0.77937 -1.06066 1.06066 
C -0.77937 1.341951 -0.397805 1.5 0 1.5 
z
" style="stroke: #ff00ff"/>
    </defs>
    <g>
     <use xlink:href="#mdfddc28104" x="273.993729" y="195.096414" style="fill: #ff00ff; stroke: #ff00ff"/>
     <use xlink:href="#mdfddc28104" x="273.993729" y="195.096414" style="fill: #ff00ff; stroke: #ff00ff"/>
    </g>
   </g>
   <g id="line2d_40">
    <path d="M 1.245626 298.944 
L 1.245626 287.9928 
L 37.851216 287.9928 
L 37.851216 287.741048 
L 53.402323 287.741048 
L 53.402323 287.615172 
L 96.95121 287.615172 
L 96.95121 287.489297 
L 97.18203 287.489297 
L 97.18203 287.363421 
L 101.009023 287.363421 
L 101.009023 287.237545 
L 102.099854 287.237545 
L 102.187964 286.985793 
L 109.460447 286.985793 
L 109.460447 286.859917 
L 111.86758 286.859917 
L 111.86758 286.734041 
L 118.152051 286.734041 
L 118.152051 286.608166 
L 125.450553 286.608166 
L 125.450553 286.48229 
L 126.127391 286.48229 
L 126.127391 286.356414 
L 127.017049 286.356414 
L 127.017049 286.230538 
L 128.441306 286.230538 
L 128.441306 286.104662 
L 131.359772 286.104662 
L 131.359772 285.978786 
L 133.137444 285.978786 
L 133.137444 285.85291 
L 133.339903 285.85291 
L 133.339903 285.727034 
L 133.689044 285.727034 
L 133.754819 285.475283 
L 133.820365 285.475283 
L 133.820365 285.349407 
L 134.839175 285.349407 
L 134.87014 285.097655 
L 135.131309 285.097655 
L 135.131309 284.845903 
L 135.268121 284.845903 
L 135.268121 284.720028 
L 135.418977 284.720028 
L 135.418977 284.594152 
L 135.717106 284.594152 
L 135.717106 284.468276 
L 136.570023 284.468276 
L 136.570023 284.3424 
L 136.724851 284.3424 
L 136.724851 284.216524 
L 137.085822 284.216524 
L 137.085822 284.090648 
L 137.654681 284.090648 
L 137.747841 283.838897 
L 138.024583 283.838897 
L 138.024583 283.713021 
L 139.080189 283.713021 
L 139.080189 283.587145 
L 139.289277 283.587145 
L 139.289277 283.461269 
L 139.568511 283.461269 
L 139.568511 283.335393 
L 140.335954 283.335393 
L 140.335954 283.209517 
L 141.404121 283.209517 
L 141.513111 282.83189 
L 141.534833 282.83189 
L 141.534833 282.706014 
L 141.814964 282.706014 
L 141.814964 282.580138 
L 142.027647 282.580138 
L 142.027647 282.454262 
L 142.692509 282.454262 
L 142.692509 282.328386 
L 142.814596 282.328386 
L 142.844994 282.076634 
L 143.501625 282.076634 
L 143.501625 281.950759 
L 143.628302 281.950759 
L 143.628302 281.824883 
L 144.098256 281.824883 
L 144.202161 281.321379 
L 144.361622 281.321379 
L 144.361622 281.195503 
L 144.491935 281.195503 
L 144.491935 281.069628 
L 144.731576 281.069628 
L 144.731576 280.943752 
L 144.904788 280.943752 
L 144.904788 280.817876 
L 145.291002 280.817876 
L 145.291002 280.692 
L 145.538293 280.692 
L 145.538293 280.566124 
L 145.7477 280.566124 
L 145.7477 280.440248 
L 145.860163 280.440248 
L 145.860163 280.314372 
L 146.579379 280.314372 
L 146.595975 280.062621 
L 146.785784 280.062621 
L 146.785784 279.936745 
L 146.924857 279.936745 
L 146.924857 279.810869 
L 147.199956 279.810869 
L 147.199956 279.684993 
L 147.320055 279.684993 
L 147.320055 279.559117 
L 147.722752 279.559117 
L 147.80849 279.307366 
L 147.855092 279.307366 
L 147.878349 278.929738 
L 148.139946 278.929738 
L 148.139946 278.803862 
L 148.37533 278.803862 
L 148.405489 278.426234 
L 148.68219 278.426234 
L 148.734084 278.174483 
L 148.874221 278.174483 
L 148.947561 277.922731 
L 148.998729 277.922731 
L 149.093387 277.419228 
L 149.274095 277.419228 
L 149.274095 277.293352 
L 149.73597 277.293352 
L 149.73597 277.167476 
L 149.952317 277.167476 
L 149.993905 276.915724 
L 150.179921 276.915724 
L 150.200476 276.663972 
L 150.404803 276.663972 
L 150.425115 276.412221 
L 150.793652 276.412221 
L 150.793652 276.286345 
L 151.024471 276.286345 
L 151.089903 276.034593 
L 151.246016 276.034593 
L 151.349377 275.782841 
L 151.400845 275.782841 
L 151.400845 275.53109 
L 151.649755 275.53109 
L 151.70673 275.153462 
L 151.820167 275.153462 
L 151.926678 274.90171 
L 152.100802 274.90171 
L 152.162601 274.649959 
L 152.267196 274.649959 
L 152.267196 274.524083 
L 152.44429 274.524083 
L 152.468586 273.894703 
L 152.595631 273.894703 
L 152.595631 273.768828 
L 152.769674 273.768828 
L 152.769674 273.642952 
L 152.882835 273.642952 
L 152.977604 273.139448 
L 153.438652 273.139448 
L 153.455939 272.887697 
L 153.587951 272.887697 
L 153.587951 272.761821 
L 153.781417 272.761821 
L 153.88304 272.510069 
L 153.978516 272.510069 
L 154.040037 272.132441 
L 154.28413 272.132441 
L 154.28413 272.006566 
L 154.459684 272.006566 
L 154.508765 271.754814 
L 154.698427 271.754814 
L 154.773759 271.503062 
L 154.843441 271.503062 
L 154.843441 271.377186 
L 154.982037 271.377186 
L 155.082676 270.873683 
L 155.114345 270.873683 
L 155.114345 270.747807 
L 155.324122 270.747807 
L 155.371001 270.370179 
L 155.485105 270.370179 
L 155.485105 270.244303 
L 155.833477 270.244303 
L 155.879106 269.992552 
L 155.949864 269.992552 
L 155.959951 269.7408 
L 156.418184 269.7408 
L 156.457508 269.489048 
L 156.565227 269.489048 
L 156.584746 269.237297 
L 156.807772 269.237297 
L 156.807772 268.985545 
L 157.023421 268.985545 
L 157.04247 268.482041 
L 157.701936 268.482041 
L 157.729492 268.23029 
L 157.830187 268.23029 
L 157.884885 267.726786 
L 158.034489 267.726786 
L 158.133569 267.223283 
L 158.182914 267.223283 
L 158.290128 266.845655 
L 158.312387 266.845655 
L 158.414443 266.593903 
L 158.467471 266.593903 
L 158.467471 266.468028 
L 158.717331 266.468028 
L 158.82588 266.216276 
L 158.856162 266.216276 
L 158.856162 266.0904 
L 158.998267 266.0904 
L 159.053954 265.838648 
L 159.126528 265.838648 
L 159.181837 265.209269 
L 159.556188 265.209269 
L 159.556188 265.083393 
L 159.701388 265.083393 
L 159.701388 264.957517 
L 159.91915 264.957517 
L 160.016936 264.705766 
L 160.077795 264.705766 
L 160.126341 264.454014 
L 160.387143 264.454014 
L 160.45873 264.202262 
L 160.502345 264.202262 
L 160.601093 263.824634 
L 160.929142 263.824634 
L 160.994842 263.572883 
L 161.198212 263.572883 
L 161.205844 263.321131 
L 161.725076 263.321131 
L 161.83608 262.943503 
L 161.90237 262.943503 
L 161.90237 262.817628 
L 162.02695 262.817628 
L 162.02695 262.691752 
L 162.168843 262.691752 
L 162.226747 262.44 
L 162.463734 262.44 
L 162.463734 262.314124 
L 162.623622 262.314124 
L 162.623622 262.188248 
L 162.736499 262.188248 
L 162.736499 261.936497 
L 162.848702 261.936497 
L 162.946334 261.307117 
L 163.122872 261.307117 
L 163.219095 260.048359 
L 163.246497 260.048359 
L 163.352305 259.670731 
L 163.389707 259.670731 
L 163.474437 259.167228 
L 163.541946 259.167228 
L 163.609214 258.663724 
L 163.925494 258.663724 
L 163.925494 258.411972 
L 164.272231 258.411972 
L 164.272231 258.286097 
L 164.414303 258.286097 
L 164.478528 257.908469 
L 164.625419 257.908469 
L 164.730096 257.27909 
L 164.745905 257.27909 
L 164.761701 256.901462 
L 164.925199 256.901462 
L 164.925199 256.775586 
L 165.090391 256.775586 
L 165.139977 256.272083 
L 165.20486 256.272083 
L 165.244914 255.894455 
L 165.330896 255.894455 
L 165.35845 255.265076 
L 165.701011 255.265076 
L 165.728029 254.635697 
L 165.817807 254.635697 
L 165.823777 254.258069 
L 166.134572 254.258069 
L 166.201971 253.125186 
L 166.25455 253.125186 
L 166.333144 252.621683 
L 166.649989 252.621683 
L 166.698484 252.118179 
L 167.112684 252.118179 
L 167.143315 251.614676 
L 167.372845 251.614676 
L 167.372845 251.4888 
L 167.651136 251.4888 
L 167.761848 250.985297 
L 167.823671 250.985297 
L 167.823671 250.859421 
L 167.976013 250.859421 
L 167.976013 250.607669 
L 168.116567 250.607669 
L 168.116567 250.355917 
L 168.284904 250.355917 
L 168.365904 249.600662 
L 168.404973 249.600662 
L 168.480276 248.719531 
L 168.544952 248.719531 
L 168.635126 248.216028 
L 168.781062 248.216028 
L 168.887874 247.586648 
L 168.976423 247.586648 
L 168.976423 247.460772 
L 169.15728 247.460772 
L 169.214689 246.957269 
L 169.366106 246.957269 
L 169.375993 246.579641 
L 169.494227 246.579641 
L 169.579974 246.202014 
L 169.709079 246.202014 
L 169.709079 246.076138 
L 169.83007 246.076138 
L 169.935902 245.069131 
L 170.143423 245.069131 
L 170.143423 244.943255 
L 170.313451 244.943255 
L 170.393211 244.565628 
L 170.442306 244.565628 
L 170.502913 244.313876 
L 170.591143 244.313876 
L 170.591143 244.188 
L 170.725018 244.188 
L 170.725018 244.062124 
L 170.846523 244.062124 
L 170.930885 243.810372 
L 171.066889 243.810372 
L 171.105246 243.432745 
L 171.181725 243.432745 
L 171.253422 243.055117 
L 171.460255 243.055117 
L 171.486778 242.551614 
L 171.61006 242.551614 
L 171.61006 242.299862 
L 171.845562 242.299862 
L 171.90614 241.922234 
L 172.09099 241.922234 
L 172.09099 241.670483 
L 172.214638 241.670483 
L 172.320583 241.166979 
L 172.381759 241.166979 
L 172.434338 240.789352 
L 172.59328 240.789352 
L 172.653577 240.159972 
L 172.736429 240.159972 
L 172.771531 239.908221 
L 172.933798 239.908221 
L 173.033746 239.530593 
L 173.376443 239.530593 
L 173.478047 239.152966 
L 173.620559 239.152966 
L 173.709084 238.523586 
L 173.888783 238.523586 
L 173.968316 238.271834 
L 174.066781 238.271834 
L 174.107176 237.894207 
L 174.349638 237.894207 
L 174.449906 237.642455 
L 174.485721 237.642455 
L 174.485721 237.516579 
L 174.693607 237.516579 
L 174.693607 237.138952 
L 175.071602 237.138952 
L 175.126287 236.635448 
L 175.384788 236.635448 
L 175.431409 236.383697 
L 175.551018 236.383697 
L 175.551018 236.257821 
L 175.866889 236.257821 
L 175.882632 235.754317 
L 175.987248 235.754317 
L 176.042805 235.37669 
L 176.101656 235.37669 
L 176.196469 234.873186 
L 176.285672 234.873186 
L 176.299358 234.495559 
L 176.467905 234.495559 
L 176.535578 234.117931 
L 176.752182 234.117931 
L 176.813851 233.740303 
L 176.92501 233.740303 
L 176.92501 233.614428 
L 177.109374 233.614428 
L 177.166619 233.2368 
L 177.732858 233.2368 
L 177.732858 233.110924 
L 177.998778 233.110924 
L 178.076737 232.355669 
L 178.467857 232.355669 
L 178.467857 232.229793 
L 178.621149 232.229793 
L 178.621149 232.103917 
L 178.962669 232.103917 
L 178.962669 231.978041 
L 179.940262 231.978041 
L 179.985303 231.474538 
L 180.065266 231.474538 
L 180.105819 230.971034 
L 180.186663 230.971034 
L 180.186663 230.845159 
L 181.028493 230.845159 
L 181.028493 230.719283 
L 181.345015 230.719283 
L 181.345015 230.593407 
L 183.164798 230.593407 
L 183.164798 230.341655 
L 183.428874 230.341655 
L 183.428874 230.089903 
L 184.090247 230.089903 
L 184.090247 229.838152 
L 184.96906 229.838152 
L 184.96906 229.712276 
L 188.097994 229.712276 
L 188.097994 229.5864 
L 190.930621 229.5864 
L 190.930621 229.460524 
L 193.277229 229.460524 
L 193.277229 229.208772 
L 193.646021 229.208772 
L 193.646021 229.082897 
L 195.113993 229.082897 
L 195.113993 228.831145 
L 195.271842 228.831145 
L 195.271842 228.579393 
L 195.794103 228.579393 
L 195.794103 228.327641 
L 196.314652 228.327641 
L 196.378866 227.950014 
L 196.560887 227.950014 
L 196.66428 227.44651 
L 197.852808 227.44651 
L 197.852808 227.194759 
L 197.988808 227.194759 
L 198.021712 226.817131 
L 198.532628 226.817131 
L 198.532628 226.565379 
L 199.104464 226.565379 
L 199.104464 226.439503 
L 199.720094 226.439503 
L 199.720094 226.313628 
L 200.387159 226.313628 
L 200.387159 226.061876 
L 200.687487 226.061876 
L 200.687487 225.810124 
L 200.865316 225.810124 
L 200.89587 225.558372 
L 202.180437 225.558372 
L 202.180437 225.306621 
L 202.661154 225.306621 
L 202.661154 225.054869 
L 204.111079 225.054869 
L 204.111079 224.928993 
L 204.350123 224.928993 
L 204.350123 224.803117 
L 205.507588 224.803117 
L 205.507588 224.551366 
L 207.430883 224.551366 
L 207.510784 224.047862 
L 208.037702 224.047862 
L 208.037702 223.79611 
L 208.684049 223.79611 
L 208.684049 223.670234 
L 208.894453 223.670234 
L 208.894453 223.418483 
L 210.07512 223.418483 
L 210.07512 223.292607 
L 210.562842 223.292607 
L 210.619204 223.040855 
L 211.057922 223.040855 
L 211.057922 222.914979 
L 211.843358 222.914979 
L 211.843358 222.663228 
L 212.152286 222.663228 
L 212.152286 222.411476 
L 212.921066 222.411476 
L 212.921066 222.2856 
L 213.107121 222.2856 
L 213.107121 222.159724 
L 213.343457 222.159724 
L 213.343457 222.033848 
L 213.704899 222.033848 
L 213.704899 221.782097 
L 214.306955 221.782097 
L 214.306955 221.656221 
L 214.960774 221.656221 
L 214.960774 221.404469 
L 217.027228 221.404469 
L 217.027228 221.152717 
L 217.342464 221.152717 
L 217.342464 221.026841 
L 217.565749 221.026841 
L 217.565749 220.77509 
L 217.781137 220.77509 
L 217.781137 220.523338 
L 219.901543 220.523338 
L 219.901543 220.271586 
L 221.672398 220.271586 
L 221.672398 220.019834 
L 222.408485 220.019834 
L 222.408485 219.768083 
L 222.652628 219.768083 
L 222.652628 219.516331 
L 223.806761 219.516331 
L 223.806761 219.264579 
L 224.204995 219.264579 
L 224.204995 219.012828 
L 225.07886 219.012828 
L 225.07886 218.761076 
L 225.666384 218.761076 
L 225.666384 218.509324 
L 225.820711 218.509324 
L 225.820711 218.257572 
L 226.128764 218.257572 
L 226.128764 218.131697 
L 226.263874 218.131697 
L 226.263874 218.005821 
L 227.036679 218.005821 
L 227.036679 217.754069 
L 228.313576 217.754069 
L 228.313576 217.502317 
L 228.803933 217.502317 
L 228.803933 217.376441 
L 231.400037 217.376441 
L 231.400037 217.12469 
L 231.747061 217.12469 
L 231.747061 216.998814 
L 232.025483 216.998814 
L 232.025483 216.872938 
L 232.521847 216.872938 
L 232.525119 216.49531 
L 232.866041 216.49531 
L 232.866041 216.243559 
L 233.174547 216.243559 
L 233.174547 215.991807 
L 233.832845 215.991807 
L 233.832845 215.865931 
L 234.230887 215.865931 
L 234.230887 215.740055 
L 235.212998 215.740055 
L 235.27536 215.236552 
L 235.479253 215.236552 
L 235.54448 214.733048 
L 235.59062 214.733048 
L 235.612186 214.481297 
L 235.819923 214.481297 
L 235.906797 214.103669 
L 236.811966 214.103669 
L 236.811966 213.977793 
L 237.94444 213.977793 
L 237.94444 213.851917 
L 238.394565 213.851917 
L 238.394565 213.726041 
L 239.218191 213.726041 
L 239.218191 213.47429 
L 239.675943 213.47429 
L 239.675943 213.222538 
L 239.909607 213.222538 
L 239.909607 212.970786 
L 240.11155 212.970786 
L 240.11155 212.84491 
L 240.267018 212.84491 
L 240.267018 212.719034 
L 240.623364 212.719034 
L 240.623364 212.467283 
L 240.838148 212.467283 
L 240.838148 212.341407 
L 241.363517 212.341407 
L 241.363517 212.089655 
L 241.667855 212.089655 
L 241.667855 211.963779 
L 242.934078 211.963779 
L 242.934078 211.837903 
L 243.202705 211.837903 
L 243.202705 211.712028 
L 244.317163 211.712028 
L 244.317163 211.586152 
L 244.496432 211.586152 
L 244.496432 211.3344 
L 244.908586 211.3344 
L 244.908586 211.208524 
L 245.427511 211.208524 
L 245.427511 210.956772 
L 245.613646 210.956772 
L 245.613646 210.830897 
L 245.99517 210.830897 
L 245.99517 210.705021 
L 246.125937 210.705021 
L 246.125937 210.579145 
L 247.016069 210.579145 
L 247.016069 210.453269 
L 247.130527 210.453269 
L 247.130527 210.327393 
L 247.576143 210.327393 
L 247.576143 210.201517 
L 248.758676 210.201517 
L 248.758676 210.075641 
L 249.04032 210.075641 
L 249.144913 209.572138 
L 249.193957 209.572138 
L 249.245175 209.19451 
L 249.337052 209.19451 
L 249.403298 208.942759 
L 249.562052 208.942759 
L 249.629904 208.439255 
L 250.834151 208.439255 
L 250.858077 207.935752 
L 251.418987 207.935752 
L 251.418987 207.809876 
L 251.579126 207.809876 
L 251.579126 207.558124 
L 251.707505 207.558124 
L 251.707505 207.432248 
L 252.08695 207.432248 
L 252.08695 207.180497 
L 252.368985 207.180497 
L 252.368985 207.054621 
L 252.505352 207.054621 
L 252.555824 206.676993 
L 253.53022 206.676993 
L 253.610042 206.299366 
L 254.374524 206.299366 
L 254.460617 205.921738 
L 254.49653 205.921738 
L 254.49653 205.795862 
L 254.799339 205.795862 
L 254.799339 205.54411 
L 255.273877 205.54411 
L 255.273877 205.292359 
L 255.877312 205.292359 
L 255.877312 205.166483 
L 256.014619 205.166483 
L 256.014619 205.040607 
L 256.295439 205.040607 
L 256.295439 204.788855 
L 256.554617 204.788855 
L 256.626958 204.537103 
L 256.742627 204.537103 
L 256.742627 204.411228 
L 256.889468 204.411228 
L 256.889468 204.285352 
L 257.422503 204.285352 
L 257.422503 204.159476 
L 257.652947 204.159476 
L 257.691846 203.907724 
L 257.79436 203.907724 
L 257.79436 203.655972 
L 258.009327 203.655972 
L 258.009327 203.404221 
L 258.905627 203.404221 
L 258.905627 203.278345 
L 259.058016 203.278345 
L 259.058016 203.152469 
L 259.383087 203.152469 
L 259.383087 202.900717 
L 259.987716 202.900717 
L 259.987716 202.774841 
L 260.379459 202.774841 
L 260.429451 202.52309 
L 260.525053 202.52309 
L 260.599781 202.145462 
L 260.912101 202.145462 
L 260.912101 202.019586 
L 261.759253 202.019586 
L 261.759253 201.89371 
L 262.182326 201.89371 
L 262.182326 201.641959 
L 262.376896 201.641959 
L 262.460102 201.264331 
L 262.526263 201.264331 
L 262.528762 201.012579 
L 262.893862 201.012579 
L 262.893862 200.886703 
L 263.523158 200.886703 
L 263.523158 200.634952 
L 263.761433 200.634952 
L 263.761433 200.509076 
L 265.258062 200.509076 
L 265.258062 200.3832 
L 265.53564 200.3832 
L 265.53564 200.257324 
L 265.665722 200.257324 
L 265.7118 199.753821 
L 266.1004 199.753821 
L 266.202593 199.376193 
L 266.317036 199.376193 
L 266.317036 199.250317 
L 266.726983 199.250317 
L 266.726983 199.124441 
L 267.325273 199.124441 
L 267.325273 198.998566 
L 267.825045 198.998566 
L 267.825045 198.87269 
L 268.67897 198.87269 
L 268.67897 198.746814 
L 268.890082 198.746814 
L 268.928785 198.24331 
L 269.061078 198.24331 
L 269.061078 198.117434 
L 269.708199 198.117434 
L 269.708199 197.991559 
L 269.954547 197.991559 
L 269.954547 197.739807 
L 270.335724 197.739807 
L 270.335724 197.613931 
L 271.348508 197.613931 
L 271.348508 197.362179 
L 272.131457 197.362179 
L 272.214968 196.984552 
L 272.322934 196.984552 
L 272.372151 196.606924 
L 272.568521 196.606924 
L 272.643426 195.851669 
L 272.842058 195.851669 
L 272.887268 195.599917 
L 273.244637 195.599917 
L 273.244637 195.474041 
L 273.417801 195.474041 
L 273.417801 195.22229 
L 273.993729 195.22229 
L 273.993729 195.096414 
L 360.8064 195.096414 
L 360.8064 195.096414 
" style="fill: none; stroke: #ff00ff; stroke-width: 1.5; stroke-linecap: square"/>
   </g>
   <g id="line2d_41">
    <defs>
     <path id="mf720055a87" d="M 0 8.485281 
L 5.091169 0 
L 0 -8.485281 
L -5.091169 0 
z
" style="stroke: #ff00ff; stroke-width: 1.5; stroke-linejoin: miter"/>
    </defs>
    <g>
     <use xlink:href="#mf720055a87" x="133.137444" y="285.85291" style="fill-opacity: 0; stroke: #ff00ff; stroke-width: 1.5; stroke-linejoin: miter"/>
     <use xlink:href="#mf720055a87" x="200.89587" y="225.558372" style="fill-opacity: 0; stroke: #ff00ff; stroke-width: 1.5; stroke-linejoin: miter"/>
     <use xlink:href="#mf720055a87" x="270.335724" y="197.739807" style="fill-opacity: 0; stroke: #ff00ff; stroke-width: 1.5; stroke-linejoin: miter"/>
     <use xlink:href="#mf720055a87" x="273.993729" y="195.096414" style="fill-opacity: 0; stroke: #ff00ff; stroke-width: 1.5; stroke-linejoin: miter"/>
     <use xlink:href="#mf720055a87" x="273.993729" y="195.096414" style="fill-opacity: 0; stroke: #ff00ff; stroke-width: 1.5; stroke-linejoin: miter"/>
     <use xlink:href="#mf720055a87" x="360.8064" y="195.096414" style="fill-opacity: 0; stroke: #ff00ff; stroke-width: 1.5; stroke-linejoin: miter"/>
    </g>
   </g>
   <g id="line2d_42">
    <path style="fill: none; stroke: #ff00ff; stroke-width: 1.5; stroke-linecap: square"/>
    <g/>
   </g>
   <g id="line2d_43">
    <path d="M 274.176009 195.096414 
" clip-path="url(#p2d8ed12252)" style="fill: none; stroke: #ff00ff; stroke-width: 1.5; stroke-linecap: square"/>
    <defs>
     <path id="m2186d5441b" d="M -12 12 
L 12 -12 
M -12 -12 
L 12 12 
" style="stroke: #ff00ff"/>
    </defs>
    <g clip-path="url(#p2d8ed12252)">
     <use xlink:href="#m2186d5441b" x="274.176009" y="195.096414" style="fill: #ff00ff; stroke: #ff00ff"/>
    </g>
   </g>
   <g id="line2d_44">
    <path d="M 360.8064 285.475283 
L 380.514816 293.10336 
" style="fill: none; stroke: #000080; stroke-width: 1.5; stroke-linecap: square"/>
    <g>
     <use xlink:href="#m3c9e419e91" x="360.8064" y="285.475283" style="fill-opacity: 0; stroke: #000080; stroke-width: 1.5"/>
     <use xlink:href="#m3c9e419e91" x="380.514816" y="293.10336" style="fill-opacity: 0; stroke: #000080; stroke-width: 1.5"/>
    </g>
   </g>
   <g id="line2d_45">
    <path d="M 360.8064 195.096414 
L 380.514816 152.928 
" style="fill: none; stroke: #ff00ff; stroke-width: 1.5; stroke-linecap: square"/>
    <g>
     <use xlink:href="#mf720055a87" x="360.8064" y="195.096414" style="fill-opacity: 0; stroke: #ff00ff; stroke-width: 1.5; stroke-linejoin: miter"/>
     <use xlink:href="#mf720055a87" x="380.514816" y="152.928" style="fill-opacity: 0; stroke: #ff00ff; stroke-width: 1.5; stroke-linejoin: miter"/>
    </g>
   </g>
   <g id="line2d_46">
    <path d="M 360.8064 298.944 
L 360.8064 6.912 
" style="fill: none; stroke: #000000; stroke-width: 1.5; stroke-linecap: square"/>
   </g>
   <g id="patch_3">
    <path d="M 57.6 298.944 
L 360.8064 298.944 
" style="fill: none; stroke: #000000; stroke-width: 0.8; stroke-linejoin: miter; stroke-linecap: square"/>
   </g>
   <g id="patch_4">
    <path d="M 57.6 6.912 
L 360.8064 6.912 
" style="fill: none; stroke: #000000; stroke-width: 0.8; stroke-linejoin: miter; stroke-linecap: square"/>
   </g>
   <g id="text_13">
    <!-- cma -->
    <g transform="translate(386.578944 296.966485)scale(0.14 -0.14)">
     <use xlink:href="#DejaVuSans-63"/>
     <use xlink:href="#DejaVuSans-6d" x="54.980469"/>
     <use xlink:href="#DejaVuSans-61" x="152.392578"/>
    </g>
   </g>
   <g id="text_14">
    <!-- external- -->
    <g transform="translate(386.578944 156.791125)scale(0.14 -0.14)">
     <defs>
      <path id="DejaVuSans-78" d="M 3513 3500 
L 2247 1797 
L 3578 0 
L 2900 0 
L 1881 1375 
L 863 0 
L 184 0 
L 1544 1831 
L 300 3500 
L 978 3500 
L 1906 2253 
L 2834 3500 
L 3513 3500 
z
" transform="scale(0.015625)"/>
     </defs>
     <use xlink:href="#DejaVuSans-65"/>
     <use xlink:href="#DejaVuSans-78" x="59.773438"/>
     <use xlink:href="#DejaVuSans-74" x="118.953125"/>
     <use xlink:href="#DejaVuSans-65" x="158.162109"/>
     <use xlink:href="#DejaVuSans-72" x="219.685547"/>
     <use xlink:href="#DejaVuSans-6e" x="259.048828"/>
     <use xlink:href="#DejaVuSans-61" x="322.427734"/>
     <use xlink:href="#DejaVuSans-6c" x="383.707031"/>
     <use xlink:href="#DejaVuSans-2d" x="411.490234"/>
    </g>
   </g>
   <g id="text_15">
    <!-- best 2016 -->
    <g transform="translate(386.578944 16.615765)scale(0.14 -0.14)">
     <defs>
      <path id="DejaVuSans-62" d="M 3116 1747 
Q 3116 2381 2855 2742 
Q 2594 3103 2138 3103 
Q 1681 3103 1420 2742 
Q 1159 2381 1159 1747 
Q 1159 1113 1420 752 
Q 1681 391 2138 391 
Q 2594 391 2855 752 
Q 3116 1113 3116 1747 
z
M 1159 2969 
Q 1341 3281 1617 3432 
Q 1894 3584 2278 3584 
Q 2916 3584 3314 3078 
Q 3713 2572 3713 1747 
Q 3713 922 3314 415 
Q 2916 -91 2278 -91 
Q 1894 -91 1617 61 
Q 1341 213 1159 525 
L 1159 0 
L 581 0 
L 581 4863 
L 1159 4863 
L 1159 2969 
z
" transform="scale(0.015625)"/>
     </defs>
     <use xlink:href="#DejaVuSans-62"/>
     <use xlink:href="#DejaVuSans-65" x="63.476562"/>
     <use xlink:href="#DejaVuSans-73" x="125"/>
     <use xlink:href="#DejaVuSans-74" x="177.099609"/>
     <use xlink:href="#DejaVuSans-20" x="216.308594"/>
     <use xlink:href="#DejaVuSans-32" x="248.095703"/>
     <use xlink:href="#DejaVuSans-30" x="311.71875"/>
     <use xlink:href="#DejaVuSans-31" x="375.341797"/>
     <use xlink:href="#DejaVuSans-36" x="438.964844"/>
    </g>
   </g>
   <g id="text_16">
    <!-- bbob-biobj f39, f40, f44, f45, 20-D -->
    <g transform="translate(60.632064 17.582726)scale(0.102 -0.102)">
     <defs>
      <path id="DejaVuSans-6a" d="M 603 3500 
L 1178 3500 
L 1178 -63 
Q 1178 -731 923 -1031 
Q 669 -1331 103 -1331 
L -116 -1331 
L -116 -844 
L 38 -844 
Q 366 -844 484 -692 
Q 603 -541 603 -63 
L 603 3500 
z
M 603 4863 
L 1178 4863 
L 1178 4134 
L 603 4134 
L 603 4863 
z
" transform="scale(0.015625)"/>
      <path id="DejaVuSans-33" d="M 2597 2516 
Q 3050 2419 3304 2112 
Q 3559 1806 3559 1356 
Q 3559 666 3084 287 
Q 2609 -91 1734 -91 
Q 1441 -91 1130 -33 
Q 819 25 488 141 
L 488 750 
Q 750 597 1062 519 
Q 1375 441 1716 441 
Q 2309 441 2620 675 
Q 2931 909 2931 1356 
Q 2931 1769 2642 2001 
Q 2353 2234 1838 2234 
L 1294 2234 
L 1294 2753 
L 1863 2753 
Q 2328 2753 2575 2939 
Q 2822 3125 2822 3475 
Q 2822 3834 2567 4026 
Q 2313 4219 1838 4219 
Q 1578 4219 1281 4162 
Q 984 4106 628 3988 
L 628 4550 
Q 988 4650 1302 4700 
Q 1616 4750 1894 4750 
Q 2613 4750 3031 4423 
Q 3450 4097 3450 3541 
Q 3450 3153 3228 2886 
Q 3006 2619 2597 2516 
z
" transform="scale(0.015625)"/>
      <path id="DejaVuSans-39" d="M 703 97 
L 703 672 
Q 941 559 1184 500 
Q 1428 441 1663 441 
Q 2288 441 2617 861 
Q 2947 1281 2994 2138 
Q 2813 1869 2534 1725 
Q 2256 1581 1919 1581 
Q 1219 1581 811 2004 
Q 403 2428 403 3163 
Q 403 3881 828 4315 
Q 1253 4750 1959 4750 
Q 2769 4750 3195 4129 
Q 3622 3509 3622 2328 
Q 3622 1225 3098 567 
Q 2575 -91 1691 -91 
Q 1453 -91 1209 -44 
Q 966 3 703 97 
z
M 1959 2075 
Q 2384 2075 2632 2365 
Q 2881 2656 2881 3163 
Q 2881 3666 2632 3958 
Q 2384 4250 1959 4250 
Q 1534 4250 1286 3958 
Q 1038 3666 1038 3163 
Q 1038 2656 1286 2365 
Q 1534 2075 1959 2075 
z
" transform="scale(0.015625)"/>
      <path id="DejaVuSans-35" d="M 691 4666 
L 3169 4666 
L 3169 4134 
L 1269 4134 
L 1269 2991 
Q 1406 3038 1543 3061 
Q 1681 3084 1819 3084 
Q 2600 3084 3056 2656 
Q 3513 2228 3513 1497 
Q 3513 744 3044 326 
Q 2575 -91 1722 -91 
Q 1428 -91 1123 -41 
Q 819 9 494 109 
L 494 744 
Q 775 591 1075 516 
Q 1375 441 1709 441 
Q 2250 441 2565 725 
Q 2881 1009 2881 1497 
Q 2881 1984 2565 2268 
Q 2250 2553 1709 2553 
Q 1456 2553 1204 2497 
Q 953 2441 691 2322 
L 691 4666 
z
" transform="scale(0.015625)"/>
      <path id="DejaVuSans-44" d="M 1259 4147 
L 1259 519 
L 2022 519 
Q 2988 519 3436 956 
Q 3884 1394 3884 2338 
Q 3884 3275 3436 3711 
Q 2988 4147 2022 4147 
L 1259 4147 
z
M 628 4666 
L 1925 4666 
Q 3281 4666 3915 4102 
Q 4550 3538 4550 2338 
Q 4550 1131 3912 565 
Q 3275 0 1925 0 
L 628 0 
L 628 4666 
z
" transform="scale(0.015625)"/>
     </defs>
     <use xlink:href="#DejaVuSans-62"/>
     <use xlink:href="#DejaVuSans-62" x="63.476562"/>
     <use xlink:href="#DejaVuSans-6f" x="126.953125"/>
     <use xlink:href="#DejaVuSans-62" x="188.134766"/>
     <use xlink:href="#DejaVuSans-2d" x="251.611328"/>
     <use xlink:href="#DejaVuSans-62" x="287.695312"/>
     <use xlink:href="#DejaVuSans-69" x="351.171875"/>
     <use xlink:href="#DejaVuSans-6f" x="378.955078"/>
     <use xlink:href="#DejaVuSans-62" x="440.136719"/>
     <use xlink:href="#DejaVuSans-6a" x="503.613281"/>
     <use xlink:href="#DejaVuSans-20" x="531.396484"/>
     <use xlink:href="#DejaVuSans-66" x="563.183594"/>
     <use xlink:href="#DejaVuSans-33" x="598.388672"/>
     <use xlink:href="#DejaVuSans-39" x="662.011719"/>
     <use xlink:href="#DejaVuSans-2c" x="725.634766"/>
     <use xlink:href="#DejaVuSans-20" x="757.421875"/>
     <use xlink:href="#DejaVuSans-66" x="789.208984"/>
     <use xlink:href="#DejaVuSans-34" x="824.414062"/>
     <use xlink:href="#DejaVuSans-30" x="888.037109"/>
     <use xlink:href="#DejaVuSans-2c" x="951.660156"/>
     <use xlink:href="#DejaVuSans-20" x="983.447266"/>
     <use xlink:href="#DejaVuSans-66" x="1015.234375"/>
     <use xlink:href="#DejaVuSans-34" x="1050.439453"/>
     <use xlink:href="#DejaVuSans-34" x="1114.0625"/>
     <use xlink:href="#DejaVuSans-2c" x="1177.685547"/>
     <use xlink:href="#DejaVuSans-20" x="1209.472656"/>
     <use xlink:href="#DejaVuSans-66" x="1241.259766"/>
     <use xlink:href="#DejaVuSans-34" x="1276.464844"/>
     <use xlink:href="#DejaVuSans-35" x="1340.087891"/>
     <use xlink:href="#DejaVuSans-2c" x="1403.710938"/>
     <use xlink:href="#DejaVuSans-20" x="1435.498047"/>
     <use xlink:href="#DejaVuSans-32" x="1467.285156"/>
     <use xlink:href="#DejaVuSans-30" x="1530.908203"/>
     <use xlink:href="#DejaVuSans-2d" x="1594.53125"/>
     <use xlink:href="#DejaVuSans-44" x="1630.615234"/>
    </g>
    <!-- 58 targets: 1..-1.0e-4 -->
    <g transform="translate(60.632064 29.004495)scale(0.102 -0.102)">
     <defs>
      <path id="DejaVuSans-3a" d="M 750 794 
L 1409 794 
L 1409 0 
L 750 0 
L 750 794 
z
M 750 3309 
L 1409 3309 
L 1409 2516 
L 750 2516 
L 750 3309 
z
" transform="scale(0.015625)"/>
     </defs>
     <use xlink:href="#DejaVuSans-35"/>
     <use xlink:href="#DejaVuSans-38" x="63.623047"/>
     <use xlink:href="#DejaVuSans-20" x="127.246094"/>
     <use xlink:href="#DejaVuSans-74" x="159.033203"/>
     <use xlink:href="#DejaVuSans-61" x="198.242188"/>
     <use xlink:href="#DejaVuSans-72" x="259.521484"/>
     <use xlink:href="#DejaVuSans-67" x="298.884766"/>
     <use xlink:href="#DejaVuSans-65" x="362.361328"/>
     <use xlink:href="#DejaVuSans-74" x="423.884766"/>
     <use xlink:href="#DejaVuSans-73" x="463.09375"/>
     <use xlink:href="#DejaVuSans-3a" x="515.193359"/>
     <use xlink:href="#DejaVuSans-20" x="548.884766"/>
     <use xlink:href="#DejaVuSans-31" x="580.671875"/>
     <use xlink:href="#DejaVuSans-2e" x="644.294922"/>
     <use xlink:href="#DejaVuSans-2e" x="676.082031"/>
     <use xlink:href="#DejaVuSans-2d" x="707.869141"/>
     <use xlink:href="#DejaVuSans-31" x="743.953125"/>
     <use xlink:href="#DejaVuSans-2e" x="807.576172"/>
     <use xlink:href="#DejaVuSans-30" x="839.363281"/>
     <use xlink:href="#DejaVuSans-65" x="902.986328"/>
     <use xlink:href="#DejaVuSans-2d" x="964.509766"/>
     <use xlink:href="#DejaVuSans-34" x="1000.59375"/>
    </g>
    <!-- 10 instances -->
    <g transform="translate(60.632064 40.426264)scale(0.102 -0.102)">
     <use xlink:href="#DejaVuSans-31"/>
     <use xlink:href="#DejaVuSans-30" x="63.623047"/>
     <use xlink:href="#DejaVuSans-20" x="127.246094"/>
     <use xlink:href="#DejaVuSans-69" x="159.033203"/>
     <use xlink:href="#DejaVuSans-6e" x="186.816406"/>
     <use xlink:href="#DejaVuSans-73" x="250.195312"/>
     <use xlink:href="#DejaVuSans-74" x="302.294922"/>
     <use xlink:href="#DejaVuSans-61" x="341.503906"/>
     <use xlink:href="#DejaVuSans-6e" x="402.783203"/>
     <use xlink:href="#DejaVuSans-63" x="466.162109"/>
     <use xlink:href="#DejaVuSans-65" x="521.142578"/>
     <use xlink:href="#DejaVuSans-73" x="582.666016"/>
    </g>
   </g>
   <g id="text_17">
    <!-- v2.6, hv-hash=ff0e71e8cd978373 -->
    <g style="fill: #808080" transform="translate(123.707887 293.943992)scale(0.1 -0.1)">
     <defs>
      <path id="DejaVuSans-68" d="M 3513 2113 
L 3513 0 
L 2938 0 
L 2938 2094 
Q 2938 2591 2744 2837 
Q 2550 3084 2163 3084 
Q 1697 3084 1428 2787 
Q 1159 2491 1159 1978 
L 1159 0 
L 581 0 
L 581 4863 
L 1159 4863 
L 1159 2956 
Q 1366 3272 1645 3428 
Q 1925 3584 2291 3584 
Q 2894 3584 3203 3211 
Q 3513 2838 3513 2113 
z
" transform="scale(0.015625)"/>
      <path id="DejaVuSans-3d" d="M 678 2906 
L 4684 2906 
L 4684 2381 
L 678 2381 
L 678 2906 
z
M 678 1631 
L 4684 1631 
L 4684 1100 
L 678 1100 
L 678 1631 
z
" transform="scale(0.015625)"/>
      <path id="DejaVuSans-37" d="M 525 4666 
L 3525 4666 
L 3525 4397 
L 1831 0 
L 1172 0 
L 2766 4134 
L 525 4134 
L 525 4666 
z
" transform="scale(0.015625)"/>
     </defs>
     <use xlink:href="#DejaVuSans-76"/>
     <use xlink:href="#DejaVuSans-32" x="59.179688"/>
     <use xlink:href="#DejaVuSans-2e" x="122.802734"/>
     <use xlink:href="#DejaVuSans-36" x="154.589844"/>
     <use xlink:href="#DejaVuSans-2c" x="218.212891"/>
     <use xlink:href="#DejaVuSans-20" x="250"/>
     <use xlink:href="#DejaVuSans-68" x="281.787109"/>
     <use xlink:href="#DejaVuSans-76" x="345.166016"/>
     <use xlink:href="#DejaVuSans-2d" x="401.720703"/>
     <use xlink:href="#DejaVuSans-68" x="437.804688"/>
     <use xlink:href="#DejaVuSans-61" x="501.183594"/>
     <use xlink:href="#DejaVuSans-73" x="562.462891"/>
     <use xlink:href="#DejaVuSans-68" x="614.5625"/>
     <use xlink:href="#DejaVuSans-3d" x="677.941406"/>
     <use xlink:href="#DejaVuSans-66" x="761.730469"/>
     <use xlink:href="#DejaVuSans-66" x="796.935547"/>
     <use xlink:href="#DejaVuSans-30" x="832.140625"/>
     <use xlink:href="#DejaVuSans-65" x="895.763672"/>
     <use xlink:href="#DejaVuSans-37" x="957.287109"/>
     <use xlink:href="#DejaVuSans-31" x="1020.910156"/>
     <use xlink:href="#DejaVuSans-65" x="1084.533203"/>
     <use xlink:href="#DejaVuSans-38" x="1146.056641"/>
     <use xlink:href="#DejaVuSans-63" x="1209.679688"/>
     <use xlink:href="#DejaVuSans-64" x="1264.660156"/>
     <use xlink:href="#DejaVuSans-39" x="1328.136719"/>
     <use xlink:href="#DejaVuSans-37" x="1391.759766"/>
     <use xlink:href="#DejaVuSans-38" x="1455.382812"/>
     <use xlink:href="#DejaVuSans-33" x="1519.005859"/>
     <use xlink:href="#DejaVuSans-37" x="1582.628906"/>
     <use xlink:href="#DejaVuSans-33" x="1646.251953"/>
    </g>
   </g>
  </g>
 </g>
 <defs>
  <clipPath id="p2d8ed12252">
   <rect x="57.6" y="6.912" width="303.2064" height="292.032"/>
  </clipPath>
 </defs>
</svg>
