<?xml version="1.0" encoding="utf-8" standalone="no"?>
<!DOCTYPE svg PUBLIC "-//W3C//DTD SVG 1.1//EN"
  "http://www.w3.org/Graphics/SVG/1.1/DTD/svg11.dtd">
<svg xmlns:xlink="http://www.w3.org/1999/xlink" width="460.8pt" height="345.6pt" viewBox="0 0 460.8 345.6" xmlns="http://www.w3.org/2000/svg" version="1.1">
 <metadata>
  <rdf:RDF xmlns:dc="http://purl.org/dc/elements/1.1/" xmlns:cc="http://creativecommons.org/ns#" xmlns:rdf="http://www.w3.org/1999/02/22-rdf-syntax-ns#">
   <cc:Work>
    <dc:type rdf:resource="http://purl.org/dc/dcmitype/StillImage"/>
    <dc:date>2022-06-19T21:02:42.710336</dc:date>
    <dc:format>image/svg+xml</dc:format>
    <dc:creator>
     <cc:Agent>
      <dc:title>Matplotlib v3.5.1, https://matplotlib.org/</dc:title>
     </cc:Agent>
    </dc:creator>
   </cc:Work>
  </rdf:RDF>
 </metadata>
 <defs>
  <style type="text/css">*{stroke-linejoin: round; stroke-linecap: butt}</style>
 </defs>
 <g id="figure_1">
  <g id="patch_1">
   <path d="M 0 345.6 
L 460.8 345.6 
L 460.8 0 
L 0 0 
z
" style="fill: #ffffff"/>
  </g>
  <g id="axes_1">
   <g id="patch_2">
    <path d="M 57.6 298.944 
L 360.8064 298.944 
L 360.8064 6.912 
L 57.6 6.912 
z
" style="fill: #ffffff"/>
   </g>
   <g id="line2d_1">
    <path d="M 40.363149 298.944 
L 40.363149 297.265655 
L 47.990577 297.265655 
L 47.990577 292.230621 
L 53.402323 292.230621 
L 53.402323 288.873931 
L 63.929565 288.873931 
L 63.929565 287.195586 
L 66.441498 287.195586 
L 66.441498 282.160552 
L 75.574654 282.160552 
L 75.574654 278.803862 
L 79.480672 278.803862 
L 79.480672 277.125517 
L 82.713442 277.125517 
L 82.713442 273.768828 
L 85.471281 273.768828 
L 85.471281 268.733793 
L 90.668036 268.733793 
L 90.668036 265.377103 
L 97.635342 265.377103 
L 97.635342 262.020414 
L 104.028784 262.020414 
L 104.028784 258.663724 
L 113.57433 258.663724 
L 113.57433 256.985379 
L 125.115773 256.985379 
L 125.115773 253.62869 
L 133.457005 253.62869 
L 133.457005 250.272 
L 134.683578 250.272 
L 134.683578 246.91531 
L 142.248405 246.91531 
L 142.248405 243.558621 
L 142.784148 243.558621 
L 142.784148 241.880276 
L 146.859539 241.880276 
L 146.859539 240.201931 
L 147.471089 240.201931 
L 147.471089 238.523586 
L 151.037576 238.523586 
L 151.037576 233.488552 
L 153.650761 233.488552 
L 153.650761 228.453517 
L 154.80059 228.453517 
L 154.80059 226.775172 
L 155.474761 226.775172 
L 155.474761 221.740138 
L 163.79962 221.740138 
L 163.79962 218.383448 
L 164.168227 218.383448 
L 164.168227 213.348414 
L 165.071763 213.348414 
L 165.071763 209.991724 
L 167.76454 209.991724 
L 167.76454 208.313379 
L 170.718116 208.313379 
L 170.718116 204.95669 
L 171.73036 204.95669 
L 171.73036 201.6 
L 176.838794 201.6 
L 176.838794 199.921655 
L 181.97264 199.921655 
L 181.97264 198.24331 
L 182.273791 198.24331 
L 182.273791 193.208276 
L 185.30686 193.208276 
L 185.30686 189.851586 
L 191.583074 189.851586 
L 191.583074 186.494897 
L 193.982354 186.494897 
L 193.982354 181.459862 
L 200.281356 181.459862 
L 200.281356 176.424828 
L 202.298875 176.424828 
L 202.298875 174.746483 
L 205.310717 174.746483 
L 205.310717 171.389793 
L 206.177182 171.389793 
L 206.177182 168.033103 
L 210.691343 168.033103 
L 210.691343 162.998069 
L 211.731617 162.998069 
L 211.731617 159.641379 
L 212.086057 159.641379 
L 212.086057 156.28469 
L 217.492189 156.28469 
L 217.492189 154.606345 
L 218.066085 154.606345 
L 218.066085 151.249655 
L 221.957801 151.249655 
L 221.957801 146.214621 
L 224.80145 146.214621 
L 224.80145 144.536276 
L 225.620832 144.536276 
L 225.620832 142.857931 
L 228.076448 142.857931 
L 228.076448 137.822897 
L 229.087497 137.822897 
L 229.087497 132.787862 
L 230.200732 132.787862 
L 230.200732 131.109517 
L 230.386462 131.109517 
L 230.386462 127.752828 
L 231.119367 127.752828 
L 231.119367 126.074483 
L 231.323471 126.074483 
L 231.323471 121.039448 
L 231.479933 121.039448 
L 231.479933 116.004414 
L 232.076868 116.004414 
L 232.170448 110.969379 
L 233.195827 110.969379 
L 233.195827 105.934345 
L 234.206023 105.934345 
L 234.206023 102.577655 
L 234.944056 102.577655 
L 234.944056 100.89931 
L 235.269781 100.89931 
L 235.269781 97.542621 
L 237.513814 97.542621 
L 237.513814 94.185931 
L 237.985188 94.185931 
L 237.985188 89.150897 
L 240.962751 89.150897 
L 240.962751 87.472552 
L 257.90903 87.472552 
L 257.90903 84.115862 
L 260.815657 84.115862 
L 260.815657 80.759172 
L 266.041196 80.759172 
L 266.041196 75.724138 
L 278.570123 75.724138 
L 278.570123 74.045793 
L 281.103077 74.045793 
L 281.103077 69.010759 
L 282.510697 69.010759 
L 282.510697 65.654069 
L 285.170705 65.654069 
L 285.170705 63.975724 
L 289.889489 63.975724 
L 289.889489 60.619034 
L 290.437534 60.619034 
L 290.437534 58.94069 
L 290.966365 58.94069 
L 290.966365 55.584 
L 291.621476 55.584 
L 291.621476 50.548966 
L 300.774345 50.548966 
L 300.774345 47.192276 
L 300.980155 47.192276 
L 300.980155 42.157241 
L 360.8064 42.157241 
L 360.8064 42.157241 
" style="fill: none; stroke: #f5deb3; stroke-width: 4; stroke-linecap: square"/>
   </g>
   <g id="line2d_2">
    <defs>
     <path id="m78e6c9a576" d="M 0 7.778175 
L 7.778175 0 
L 0 -7.778175 
L -7.778175 0 
z
" style="stroke: #f5deb3; stroke-width: 1.5; stroke-linejoin: miter"/>
    </defs>
    <g>
     <use xlink:href="#m78e6c9a576" x="147.471089" y="240.201931" style="fill: #f5deb3; stroke: #f5deb3; stroke-width: 1.5; stroke-linejoin: miter"/>
     <use xlink:href="#m78e6c9a576" x="205.310717" y="174.746483" style="fill: #f5deb3; stroke: #f5deb3; stroke-width: 1.5; stroke-linejoin: miter"/>
     <use xlink:href="#m78e6c9a576" x="237.985188" y="89.150897" style="fill: #f5deb3; stroke: #f5deb3; stroke-width: 1.5; stroke-linejoin: miter"/>
     <use xlink:href="#m78e6c9a576" x="300.980155" y="47.192276" style="fill: #f5deb3; stroke: #f5deb3; stroke-width: 1.5; stroke-linejoin: miter"/>
     <use xlink:href="#m78e6c9a576" x="300.980155" y="42.157241" style="fill: #f5deb3; stroke: #f5deb3; stroke-width: 1.5; stroke-linejoin: miter"/>
     <use xlink:href="#m78e6c9a576" x="360.8064" y="42.157241" style="fill: #f5deb3; stroke: #f5deb3; stroke-width: 1.5; stroke-linejoin: miter"/>
    </g>
   </g>
   <g id="line2d_3">
    <path style="fill: none; stroke: #f5deb3; stroke-width: 4; stroke-linecap: square"/>
    <g/>
   </g>
   <g id="line2d_4">
    <path d="M 360.8064 42.157241 
L 380.514816 12.75264 
" style="fill: none; stroke: #f5deb3; stroke-width: 4; stroke-linecap: square"/>
    <g>
     <use xlink:href="#m78e6c9a576" x="360.8064" y="42.157241" style="fill: #f5deb3; stroke: #f5deb3; stroke-width: 1.5; stroke-linejoin: miter"/>
     <use xlink:href="#m78e6c9a576" x="380.514816" y="12.75264" style="fill: #f5deb3; stroke: #f5deb3; stroke-width: 1.5; stroke-linejoin: miter"/>
    </g>
   </g>
   <g id="matplotlib.axis_1">
    <g id="xtick_1">
     <g id="line2d_5">
      <path d="M 57.6 298.944 
L 57.6 6.912 
" clip-path="url(#p92b01aa469)" style="fill: none; stroke: #b0b0b0; stroke-width: 0.8; stroke-linecap: square"/>
     </g>
     <g id="line2d_6">
      <defs>
       <path id="m38f69f97b9" d="M 0 0 
L 0 3.5 
" style="stroke: #000000; stroke-width: 0.8"/>
      </defs>
      <g>
       <use xlink:href="#m38f69f97b9" x="57.6" y="298.944" style="stroke: #000000; stroke-width: 0.8"/>
      </g>
     </g>
     <g id="text_1">
      <!-- 0 -->
      <g transform="translate(52.191875 318.861344)scale(0.17 -0.17)">
       <defs>
        <path id="DejaVuSans-30" d="M 2034 4250 
Q 1547 4250 1301 3770 
Q 1056 3291 1056 2328 
Q 1056 1369 1301 889 
Q 1547 409 2034 409 
Q 2525 409 2770 889 
Q 3016 1369 3016 2328 
Q 3016 3291 2770 3770 
Q 2525 4250 2034 4250 
z
M 2034 4750 
Q 2819 4750 3233 4129 
Q 3647 3509 3647 2328 
Q 3647 1150 3233 529 
Q 2819 -91 2034 -91 
Q 1250 -91 836 529 
Q 422 1150 422 2328 
Q 422 3509 836 4129 
Q 1250 4750 2034 4750 
z
" transform="scale(0.015625)"/>
       </defs>
       <use xlink:href="#DejaVuSans-30"/>
      </g>
     </g>
    </g>
    <g id="xtick_2">
     <g id="line2d_7">
      <path d="M 144.2304 298.944 
L 144.2304 6.912 
" clip-path="url(#p92b01aa469)" style="fill: none; stroke: #b0b0b0; stroke-width: 0.8; stroke-linecap: square"/>
     </g>
     <g id="line2d_8">
      <g>
       <use xlink:href="#m38f69f97b9" x="144.2304" y="298.944" style="stroke: #000000; stroke-width: 0.8"/>
      </g>
     </g>
     <g id="text_2">
      <!-- 2 -->
      <g transform="translate(138.822275 318.861344)scale(0.17 -0.17)">
       <defs>
        <path id="DejaVuSans-32" d="M 1228 531 
L 3431 531 
L 3431 0 
L 469 0 
L 469 531 
Q 828 903 1448 1529 
Q 2069 2156 2228 2338 
Q 2531 2678 2651 2914 
Q 2772 3150 2772 3378 
Q 2772 3750 2511 3984 
Q 2250 4219 1831 4219 
Q 1534 4219 1204 4116 
Q 875 4013 500 3803 
L 500 4441 
Q 881 4594 1212 4672 
Q 1544 4750 1819 4750 
Q 2544 4750 2975 4387 
Q 3406 4025 3406 3419 
Q 3406 3131 3298 2873 
Q 3191 2616 2906 2266 
Q 2828 2175 2409 1742 
Q 1991 1309 1228 531 
z
" transform="scale(0.015625)"/>
       </defs>
       <use xlink:href="#DejaVuSans-32"/>
      </g>
     </g>
    </g>
    <g id="xtick_3">
     <g id="line2d_9">
      <path d="M 230.8608 298.944 
L 230.8608 6.912 
" clip-path="url(#p92b01aa469)" style="fill: none; stroke: #b0b0b0; stroke-width: 0.8; stroke-linecap: square"/>
     </g>
     <g id="line2d_10">
      <g>
       <use xlink:href="#m38f69f97b9" x="230.8608" y="298.944" style="stroke: #000000; stroke-width: 0.8"/>
      </g>
     </g>
     <g id="text_3">
      <!-- 4 -->
      <g transform="translate(225.452675 318.861344)scale(0.17 -0.17)">
       <defs>
        <path id="DejaVuSans-34" d="M 2419 4116 
L 825 1625 
L 2419 1625 
L 2419 4116 
z
M 2253 4666 
L 3047 4666 
L 3047 1625 
L 3713 1625 
L 3713 1100 
L 3047 1100 
L 3047 0 
L 2419 0 
L 2419 1100 
L 313 1100 
L 313 1709 
L 2253 4666 
z
" transform="scale(0.015625)"/>
       </defs>
       <use xlink:href="#DejaVuSans-34"/>
      </g>
     </g>
    </g>
    <g id="xtick_4">
     <g id="line2d_11">
      <path d="M 317.4912 298.944 
L 317.4912 6.912 
" clip-path="url(#p92b01aa469)" style="fill: none; stroke: #b0b0b0; stroke-width: 0.8; stroke-linecap: square"/>
     </g>
     <g id="line2d_12">
      <g>
       <use xlink:href="#m38f69f97b9" x="317.4912" y="298.944" style="stroke: #000000; stroke-width: 0.8"/>
      </g>
     </g>
     <g id="text_4">
      <!-- 6 -->
      <g transform="translate(312.083075 318.861344)scale(0.17 -0.17)">
       <defs>
        <path id="DejaVuSans-36" d="M 2113 2584 
Q 1688 2584 1439 2293 
Q 1191 2003 1191 1497 
Q 1191 994 1439 701 
Q 1688 409 2113 409 
Q 2538 409 2786 701 
Q 3034 994 3034 1497 
Q 3034 2003 2786 2293 
Q 2538 2584 2113 2584 
z
M 3366 4563 
L 3366 3988 
Q 3128 4100 2886 4159 
Q 2644 4219 2406 4219 
Q 1781 4219 1451 3797 
Q 1122 3375 1075 2522 
Q 1259 2794 1537 2939 
Q 1816 3084 2150 3084 
Q 2853 3084 3261 2657 
Q 3669 2231 3669 1497 
Q 3669 778 3244 343 
Q 2819 -91 2113 -91 
Q 1303 -91 875 529 
Q 447 1150 447 2328 
Q 447 3434 972 4092 
Q 1497 4750 2381 4750 
Q 2619 4750 2861 4703 
Q 3103 4656 3366 4563 
z
" transform="scale(0.015625)"/>
       </defs>
       <use xlink:href="#DejaVuSans-36"/>
      </g>
     </g>
    </g>
    <g id="xtick_5">
     <g id="line2d_13">
      <path d="M 100.9152 298.944 
L 100.9152 6.912 
" clip-path="url(#p92b01aa469)" style="fill: none; stroke: #b0b0b0; stroke-width: 0.8; stroke-linecap: square"/>
     </g>
     <g id="line2d_14">
      <defs>
       <path id="m9d467a6c2e" d="M 0 0 
L 0 2 
" style="stroke: #000000; stroke-width: 0.6"/>
      </defs>
      <g>
       <use xlink:href="#m9d467a6c2e" x="100.9152" y="298.944" style="stroke: #000000; stroke-width: 0.6"/>
      </g>
     </g>
    </g>
    <g id="xtick_6">
     <g id="line2d_15">
      <path d="M 187.5456 298.944 
L 187.5456 6.912 
" clip-path="url(#p92b01aa469)" style="fill: none; stroke: #b0b0b0; stroke-width: 0.8; stroke-linecap: square"/>
     </g>
     <g id="line2d_16">
      <g>
       <use xlink:href="#m9d467a6c2e" x="187.5456" y="298.944" style="stroke: #000000; stroke-width: 0.6"/>
      </g>
     </g>
    </g>
    <g id="xtick_7">
     <g id="line2d_17">
      <path d="M 274.176 298.944 
L 274.176 6.912 
" clip-path="url(#p92b01aa469)" style="fill: none; stroke: #b0b0b0; stroke-width: 0.8; stroke-linecap: square"/>
     </g>
     <g id="line2d_18">
      <g>
       <use xlink:href="#m9d467a6c2e" x="274.176" y="298.944" style="stroke: #000000; stroke-width: 0.6"/>
      </g>
     </g>
    </g>
    <g id="xtick_8">
     <g id="line2d_19">
      <path d="M 360.8064 298.944 
L 360.8064 6.912 
" clip-path="url(#p92b01aa469)" style="fill: none; stroke: #b0b0b0; stroke-width: 0.8; stroke-linecap: square"/>
     </g>
     <g id="line2d_20">
      <g>
       <use xlink:href="#m9d467a6c2e" x="360.8064" y="298.944" style="stroke: #000000; stroke-width: 0.6"/>
      </g>
     </g>
    </g>
    <g id="text_5">
     <!-- log10(# f-evals / dimension) -->
     <g transform="translate(88.823278 339.314156)scale(0.17 -0.17)">
      <defs>
       <path id="DejaVuSans-6c" d="M 603 4863 
L 1178 4863 
L 1178 0 
L 603 0 
L 603 4863 
z
" transform="scale(0.015625)"/>
       <path id="DejaVuSans-6f" d="M 1959 3097 
Q 1497 3097 1228 2736 
Q 959 2375 959 1747 
Q 959 1119 1226 758 
Q 1494 397 1959 397 
Q 2419 397 2687 759 
Q 2956 1122 2956 1747 
Q 2956 2369 2687 2733 
Q 2419 3097 1959 3097 
z
M 1959 3584 
Q 2709 3584 3137 3096 
Q 3566 2609 3566 1747 
Q 3566 888 3137 398 
Q 2709 -91 1959 -91 
Q 1206 -91 779 398 
Q 353 888 353 1747 
Q 353 2609 779 3096 
Q 1206 3584 1959 3584 
z
" transform="scale(0.015625)"/>
       <path id="DejaVuSans-67" d="M 2906 1791 
Q 2906 2416 2648 2759 
Q 2391 3103 1925 3103 
Q 1463 3103 1205 2759 
Q 947 2416 947 1791 
Q 947 1169 1205 825 
Q 1463 481 1925 481 
Q 2391 481 2648 825 
Q 2906 1169 2906 1791 
z
M 3481 434 
Q 3481 -459 3084 -895 
Q 2688 -1331 1869 -1331 
Q 1566 -1331 1297 -1286 
Q 1028 -1241 775 -1147 
L 775 -588 
Q 1028 -725 1275 -790 
Q 1522 -856 1778 -856 
Q 2344 -856 2625 -561 
Q 2906 -266 2906 331 
L 2906 616 
Q 2728 306 2450 153 
Q 2172 0 1784 0 
Q 1141 0 747 490 
Q 353 981 353 1791 
Q 353 2603 747 3093 
Q 1141 3584 1784 3584 
Q 2172 3584 2450 3431 
Q 2728 3278 2906 2969 
L 2906 3500 
L 3481 3500 
L 3481 434 
z
" transform="scale(0.015625)"/>
       <path id="DejaVuSans-31" d="M 794 531 
L 1825 531 
L 1825 4091 
L 703 3866 
L 703 4441 
L 1819 4666 
L 2450 4666 
L 2450 531 
L 3481 531 
L 3481 0 
L 794 0 
L 794 531 
z
" transform="scale(0.015625)"/>
       <path id="DejaVuSans-28" d="M 1984 4856 
Q 1566 4138 1362 3434 
Q 1159 2731 1159 2009 
Q 1159 1288 1364 580 
Q 1569 -128 1984 -844 
L 1484 -844 
Q 1016 -109 783 600 
Q 550 1309 550 2009 
Q 550 2706 781 3412 
Q 1013 4119 1484 4856 
L 1984 4856 
z
" transform="scale(0.015625)"/>
       <path id="DejaVuSans-23" d="M 3272 2816 
L 2363 2816 
L 2100 1772 
L 3016 1772 
L 3272 2816 
z
M 2803 4594 
L 2478 3297 
L 3391 3297 
L 3719 4594 
L 4219 4594 
L 3897 3297 
L 4872 3297 
L 4872 2816 
L 3775 2816 
L 3519 1772 
L 4513 1772 
L 4513 1294 
L 3397 1294 
L 3072 0 
L 2572 0 
L 2894 1294 
L 1978 1294 
L 1656 0 
L 1153 0 
L 1478 1294 
L 494 1294 
L 494 1772 
L 1594 1772 
L 1856 2816 
L 850 2816 
L 850 3297 
L 1978 3297 
L 2297 4594 
L 2803 4594 
z
" transform="scale(0.015625)"/>
       <path id="DejaVuSans-20" transform="scale(0.015625)"/>
       <path id="DejaVuSans-66" d="M 2375 4863 
L 2375 4384 
L 1825 4384 
Q 1516 4384 1395 4259 
Q 1275 4134 1275 3809 
L 1275 3500 
L 2222 3500 
L 2222 3053 
L 1275 3053 
L 1275 0 
L 697 0 
L 697 3053 
L 147 3053 
L 147 3500 
L 697 3500 
L 697 3744 
Q 697 4328 969 4595 
Q 1241 4863 1831 4863 
L 2375 4863 
z
" transform="scale(0.015625)"/>
       <path id="DejaVuSans-2d" d="M 313 2009 
L 1997 2009 
L 1997 1497 
L 313 1497 
L 313 2009 
z
" transform="scale(0.015625)"/>
       <path id="DejaVuSans-65" d="M 3597 1894 
L 3597 1613 
L 953 1613 
Q 991 1019 1311 708 
Q 1631 397 2203 397 
Q 2534 397 2845 478 
Q 3156 559 3463 722 
L 3463 178 
Q 3153 47 2828 -22 
Q 2503 -91 2169 -91 
Q 1331 -91 842 396 
Q 353 884 353 1716 
Q 353 2575 817 3079 
Q 1281 3584 2069 3584 
Q 2775 3584 3186 3129 
Q 3597 2675 3597 1894 
z
M 3022 2063 
Q 3016 2534 2758 2815 
Q 2500 3097 2075 3097 
Q 1594 3097 1305 2825 
Q 1016 2553 972 2059 
L 3022 2063 
z
" transform="scale(0.015625)"/>
       <path id="DejaVuSans-76" d="M 191 3500 
L 800 3500 
L 1894 563 
L 2988 3500 
L 3597 3500 
L 2284 0 
L 1503 0 
L 191 3500 
z
" transform="scale(0.015625)"/>
       <path id="DejaVuSans-61" d="M 2194 1759 
Q 1497 1759 1228 1600 
Q 959 1441 959 1056 
Q 959 750 1161 570 
Q 1363 391 1709 391 
Q 2188 391 2477 730 
Q 2766 1069 2766 1631 
L 2766 1759 
L 2194 1759 
z
M 3341 1997 
L 3341 0 
L 2766 0 
L 2766 531 
Q 2569 213 2275 61 
Q 1981 -91 1556 -91 
Q 1019 -91 701 211 
Q 384 513 384 1019 
Q 384 1609 779 1909 
Q 1175 2209 1959 2209 
L 2766 2209 
L 2766 2266 
Q 2766 2663 2505 2880 
Q 2244 3097 1772 3097 
Q 1472 3097 1187 3025 
Q 903 2953 641 2809 
L 641 3341 
Q 956 3463 1253 3523 
Q 1550 3584 1831 3584 
Q 2591 3584 2966 3190 
Q 3341 2797 3341 1997 
z
" transform="scale(0.015625)"/>
       <path id="DejaVuSans-73" d="M 2834 3397 
L 2834 2853 
Q 2591 2978 2328 3040 
Q 2066 3103 1784 3103 
Q 1356 3103 1142 2972 
Q 928 2841 928 2578 
Q 928 2378 1081 2264 
Q 1234 2150 1697 2047 
L 1894 2003 
Q 2506 1872 2764 1633 
Q 3022 1394 3022 966 
Q 3022 478 2636 193 
Q 2250 -91 1575 -91 
Q 1294 -91 989 -36 
Q 684 19 347 128 
L 347 722 
Q 666 556 975 473 
Q 1284 391 1588 391 
Q 1994 391 2212 530 
Q 2431 669 2431 922 
Q 2431 1156 2273 1281 
Q 2116 1406 1581 1522 
L 1381 1569 
Q 847 1681 609 1914 
Q 372 2147 372 2553 
Q 372 3047 722 3315 
Q 1072 3584 1716 3584 
Q 2034 3584 2315 3537 
Q 2597 3491 2834 3397 
z
" transform="scale(0.015625)"/>
       <path id="DejaVuSans-2f" d="M 1625 4666 
L 2156 4666 
L 531 -594 
L 0 -594 
L 1625 4666 
z
" transform="scale(0.015625)"/>
       <path id="DejaVuSans-64" d="M 2906 2969 
L 2906 4863 
L 3481 4863 
L 3481 0 
L 2906 0 
L 2906 525 
Q 2725 213 2448 61 
Q 2172 -91 1784 -91 
Q 1150 -91 751 415 
Q 353 922 353 1747 
Q 353 2572 751 3078 
Q 1150 3584 1784 3584 
Q 2172 3584 2448 3432 
Q 2725 3281 2906 2969 
z
M 947 1747 
Q 947 1113 1208 752 
Q 1469 391 1925 391 
Q 2381 391 2643 752 
Q 2906 1113 2906 1747 
Q 2906 2381 2643 2742 
Q 2381 3103 1925 3103 
Q 1469 3103 1208 2742 
Q 947 2381 947 1747 
z
" transform="scale(0.015625)"/>
       <path id="DejaVuSans-69" d="M 603 3500 
L 1178 3500 
L 1178 0 
L 603 0 
L 603 3500 
z
M 603 4863 
L 1178 4863 
L 1178 4134 
L 603 4134 
L 603 4863 
z
" transform="scale(0.015625)"/>
       <path id="DejaVuSans-6d" d="M 3328 2828 
Q 3544 3216 3844 3400 
Q 4144 3584 4550 3584 
Q 5097 3584 5394 3201 
Q 5691 2819 5691 2113 
L 5691 0 
L 5113 0 
L 5113 2094 
Q 5113 2597 4934 2840 
Q 4756 3084 4391 3084 
Q 3944 3084 3684 2787 
Q 3425 2491 3425 1978 
L 3425 0 
L 2847 0 
L 2847 2094 
Q 2847 2600 2669 2842 
Q 2491 3084 2119 3084 
Q 1678 3084 1418 2786 
Q 1159 2488 1159 1978 
L 1159 0 
L 581 0 
L 581 3500 
L 1159 3500 
L 1159 2956 
Q 1356 3278 1631 3431 
Q 1906 3584 2284 3584 
Q 2666 3584 2933 3390 
Q 3200 3197 3328 2828 
z
" transform="scale(0.015625)"/>
       <path id="DejaVuSans-6e" d="M 3513 2113 
L 3513 0 
L 2938 0 
L 2938 2094 
Q 2938 2591 2744 2837 
Q 2550 3084 2163 3084 
Q 1697 3084 1428 2787 
Q 1159 2491 1159 1978 
L 1159 0 
L 581 0 
L 581 3500 
L 1159 3500 
L 1159 2956 
Q 1366 3272 1645 3428 
Q 1925 3584 2291 3584 
Q 2894 3584 3203 3211 
Q 3513 2838 3513 2113 
z
" transform="scale(0.015625)"/>
       <path id="DejaVuSans-29" d="M 513 4856 
L 1013 4856 
Q 1481 4119 1714 3412 
Q 1947 2706 1947 2009 
Q 1947 1309 1714 600 
Q 1481 -109 1013 -844 
L 513 -844 
Q 928 -128 1133 580 
Q 1338 1288 1338 2009 
Q 1338 2731 1133 3434 
Q 928 4138 513 4856 
z
" transform="scale(0.015625)"/>
      </defs>
      <use xlink:href="#DejaVuSans-6c"/>
      <use xlink:href="#DejaVuSans-6f" x="27.783203"/>
      <use xlink:href="#DejaVuSans-67" x="88.964844"/>
      <use xlink:href="#DejaVuSans-31" x="152.441406"/>
      <use xlink:href="#DejaVuSans-30" x="216.064453"/>
      <use xlink:href="#DejaVuSans-28" x="279.6875"/>
      <use xlink:href="#DejaVuSans-23" x="318.701172"/>
      <use xlink:href="#DejaVuSans-20" x="402.490234"/>
      <use xlink:href="#DejaVuSans-66" x="434.277344"/>
      <use xlink:href="#DejaVuSans-2d" x="463.982422"/>
      <use xlink:href="#DejaVuSans-65" x="500.066406"/>
      <use xlink:href="#DejaVuSans-76" x="561.589844"/>
      <use xlink:href="#DejaVuSans-61" x="620.769531"/>
      <use xlink:href="#DejaVuSans-6c" x="682.048828"/>
      <use xlink:href="#DejaVuSans-73" x="709.832031"/>
      <use xlink:href="#DejaVuSans-20" x="761.931641"/>
      <use xlink:href="#DejaVuSans-2f" x="793.71875"/>
      <use xlink:href="#DejaVuSans-20" x="827.410156"/>
      <use xlink:href="#DejaVuSans-64" x="859.197266"/>
      <use xlink:href="#DejaVuSans-69" x="922.673828"/>
      <use xlink:href="#DejaVuSans-6d" x="950.457031"/>
      <use xlink:href="#DejaVuSans-65" x="1047.869141"/>
      <use xlink:href="#DejaVuSans-6e" x="1109.392578"/>
      <use xlink:href="#DejaVuSans-73" x="1172.771484"/>
      <use xlink:href="#DejaVuSans-69" x="1224.871094"/>
      <use xlink:href="#DejaVuSans-6f" x="1252.654297"/>
      <use xlink:href="#DejaVuSans-6e" x="1313.835938"/>
      <use xlink:href="#DejaVuSans-29" x="1377.214844"/>
     </g>
    </g>
   </g>
   <g id="matplotlib.axis_2">
    <g id="ytick_1">
     <g id="line2d_21">
      <path d="M 57.6 298.944 
L 360.8064 298.944 
" clip-path="url(#p92b01aa469)" style="fill: none; stroke: #b0b0b0; stroke-width: 0.8; stroke-linecap: square"/>
     </g>
     <g id="line2d_22">
      <defs>
       <path id="mdc7570b9b3" d="M 0 0 
L -3.5 0 
" style="stroke: #000000; stroke-width: 0.8"/>
      </defs>
      <g>
       <use xlink:href="#mdc7570b9b3" x="57.6" y="298.944" style="stroke: #000000; stroke-width: 0.8"/>
      </g>
     </g>
     <g id="text_6">
      <!-- 0.0 -->
      <g transform="translate(25.155 305.02275)scale(0.16 -0.16)">
       <defs>
        <path id="DejaVuSans-2e" d="M 684 794 
L 1344 794 
L 1344 0 
L 684 0 
L 684 794 
z
" transform="scale(0.015625)"/>
       </defs>
       <use xlink:href="#DejaVuSans-30"/>
       <use xlink:href="#DejaVuSans-2e" x="63.623047"/>
       <use xlink:href="#DejaVuSans-30" x="95.410156"/>
      </g>
     </g>
    </g>
    <g id="ytick_2">
     <g id="line2d_23">
      <path d="M 57.6 240.5376 
L 360.8064 240.5376 
" clip-path="url(#p92b01aa469)" style="fill: none; stroke: #b0b0b0; stroke-width: 0.8; stroke-linecap: square"/>
     </g>
     <g id="line2d_24">
      <g>
       <use xlink:href="#mdc7570b9b3" x="57.6" y="240.5376" style="stroke: #000000; stroke-width: 0.8"/>
      </g>
     </g>
     <g id="text_7">
      <!-- 0.2 -->
      <g transform="translate(25.155 246.61635)scale(0.16 -0.16)">
       <use xlink:href="#DejaVuSans-30"/>
       <use xlink:href="#DejaVuSans-2e" x="63.623047"/>
       <use xlink:href="#DejaVuSans-32" x="95.410156"/>
      </g>
     </g>
    </g>
    <g id="ytick_3">
     <g id="line2d_25">
      <path d="M 57.6 182.1312 
L 360.8064 182.1312 
" clip-path="url(#p92b01aa469)" style="fill: none; stroke: #b0b0b0; stroke-width: 0.8; stroke-linecap: square"/>
     </g>
     <g id="line2d_26">
      <g>
       <use xlink:href="#mdc7570b9b3" x="57.6" y="182.1312" style="stroke: #000000; stroke-width: 0.8"/>
      </g>
     </g>
     <g id="text_8">
      <!-- 0.4 -->
      <g transform="translate(25.155 188.20995)scale(0.16 -0.16)">
       <use xlink:href="#DejaVuSans-30"/>
       <use xlink:href="#DejaVuSans-2e" x="63.623047"/>
       <use xlink:href="#DejaVuSans-34" x="95.410156"/>
      </g>
     </g>
    </g>
    <g id="ytick_4">
     <g id="line2d_27">
      <path d="M 57.6 123.7248 
L 360.8064 123.7248 
" clip-path="url(#p92b01aa469)" style="fill: none; stroke: #b0b0b0; stroke-width: 0.8; stroke-linecap: square"/>
     </g>
     <g id="line2d_28">
      <g>
       <use xlink:href="#mdc7570b9b3" x="57.6" y="123.7248" style="stroke: #000000; stroke-width: 0.8"/>
      </g>
     </g>
     <g id="text_9">
      <!-- 0.6 -->
      <g transform="translate(25.155 129.80355)scale(0.16 -0.16)">
       <use xlink:href="#DejaVuSans-30"/>
       <use xlink:href="#DejaVuSans-2e" x="63.623047"/>
       <use xlink:href="#DejaVuSans-36" x="95.410156"/>
      </g>
     </g>
    </g>
    <g id="ytick_5">
     <g id="line2d_29">
      <path d="M 57.6 65.3184 
L 360.8064 65.3184 
" clip-path="url(#p92b01aa469)" style="fill: none; stroke: #b0b0b0; stroke-width: 0.8; stroke-linecap: square"/>
     </g>
     <g id="line2d_30">
      <g>
       <use xlink:href="#mdc7570b9b3" x="57.6" y="65.3184" style="stroke: #000000; stroke-width: 0.8"/>
      </g>
     </g>
     <g id="text_10">
      <!-- 0.8 -->
      <g transform="translate(25.155 71.39715)scale(0.16 -0.16)">
       <defs>
        <path id="DejaVuSans-38" d="M 2034 2216 
Q 1584 2216 1326 1975 
Q 1069 1734 1069 1313 
Q 1069 891 1326 650 
Q 1584 409 2034 409 
Q 2484 409 2743 651 
Q 3003 894 3003 1313 
Q 3003 1734 2745 1975 
Q 2488 2216 2034 2216 
z
M 1403 2484 
Q 997 2584 770 2862 
Q 544 3141 544 3541 
Q 544 4100 942 4425 
Q 1341 4750 2034 4750 
Q 2731 4750 3128 4425 
Q 3525 4100 3525 3541 
Q 3525 3141 3298 2862 
Q 3072 2584 2669 2484 
Q 3125 2378 3379 2068 
Q 3634 1759 3634 1313 
Q 3634 634 3220 271 
Q 2806 -91 2034 -91 
Q 1263 -91 848 271 
Q 434 634 434 1313 
Q 434 1759 690 2068 
Q 947 2378 1403 2484 
z
M 1172 3481 
Q 1172 3119 1398 2916 
Q 1625 2713 2034 2713 
Q 2441 2713 2670 2916 
Q 2900 3119 2900 3481 
Q 2900 3844 2670 4047 
Q 2441 4250 2034 4250 
Q 1625 4250 1398 4047 
Q 1172 3844 1172 3481 
z
" transform="scale(0.015625)"/>
       </defs>
       <use xlink:href="#DejaVuSans-30"/>
       <use xlink:href="#DejaVuSans-2e" x="63.623047"/>
       <use xlink:href="#DejaVuSans-38" x="95.410156"/>
      </g>
     </g>
    </g>
    <g id="ytick_6">
     <g id="line2d_31">
      <path d="M 57.6 6.912 
L 360.8064 6.912 
" clip-path="url(#p92b01aa469)" style="fill: none; stroke: #b0b0b0; stroke-width: 0.8; stroke-linecap: square"/>
     </g>
     <g id="line2d_32">
      <g>
       <use xlink:href="#mdc7570b9b3" x="57.6" y="6.912" style="stroke: #000000; stroke-width: 0.8"/>
      </g>
     </g>
     <g id="text_11">
      <!-- 1.0 -->
      <g transform="translate(25.155 12.99075)scale(0.16 -0.16)">
       <use xlink:href="#DejaVuSans-31"/>
       <use xlink:href="#DejaVuSans-2e" x="63.623047"/>
       <use xlink:href="#DejaVuSans-30" x="95.410156"/>
      </g>
     </g>
    </g>
    <g id="text_12">
     <!-- Fraction of function,target pairs -->
     <g transform="translate(17.619531 287.313)rotate(-90)scale(0.17 -0.17)">
      <defs>
       <path id="DejaVuSans-46" d="M 628 4666 
L 3309 4666 
L 3309 4134 
L 1259 4134 
L 1259 2759 
L 3109 2759 
L 3109 2228 
L 1259 2228 
L 1259 0 
L 628 0 
L 628 4666 
z
" transform="scale(0.015625)"/>
       <path id="DejaVuSans-72" d="M 2631 2963 
Q 2534 3019 2420 3045 
Q 2306 3072 2169 3072 
Q 1681 3072 1420 2755 
Q 1159 2438 1159 1844 
L 1159 0 
L 581 0 
L 581 3500 
L 1159 3500 
L 1159 2956 
Q 1341 3275 1631 3429 
Q 1922 3584 2338 3584 
Q 2397 3584 2469 3576 
Q 2541 3569 2628 3553 
L 2631 2963 
z
" transform="scale(0.015625)"/>
       <path id="DejaVuSans-63" d="M 3122 3366 
L 3122 2828 
Q 2878 2963 2633 3030 
Q 2388 3097 2138 3097 
Q 1578 3097 1268 2742 
Q 959 2388 959 1747 
Q 959 1106 1268 751 
Q 1578 397 2138 397 
Q 2388 397 2633 464 
Q 2878 531 3122 666 
L 3122 134 
Q 2881 22 2623 -34 
Q 2366 -91 2075 -91 
Q 1284 -91 818 406 
Q 353 903 353 1747 
Q 353 2603 823 3093 
Q 1294 3584 2113 3584 
Q 2378 3584 2631 3529 
Q 2884 3475 3122 3366 
z
" transform="scale(0.015625)"/>
       <path id="DejaVuSans-74" d="M 1172 4494 
L 1172 3500 
L 2356 3500 
L 2356 3053 
L 1172 3053 
L 1172 1153 
Q 1172 725 1289 603 
Q 1406 481 1766 481 
L 2356 481 
L 2356 0 
L 1766 0 
Q 1100 0 847 248 
Q 594 497 594 1153 
L 594 3053 
L 172 3053 
L 172 3500 
L 594 3500 
L 594 4494 
L 1172 4494 
z
" transform="scale(0.015625)"/>
       <path id="DejaVuSans-75" d="M 544 1381 
L 544 3500 
L 1119 3500 
L 1119 1403 
Q 1119 906 1312 657 
Q 1506 409 1894 409 
Q 2359 409 2629 706 
Q 2900 1003 2900 1516 
L 2900 3500 
L 3475 3500 
L 3475 0 
L 2900 0 
L 2900 538 
Q 2691 219 2414 64 
Q 2138 -91 1772 -91 
Q 1169 -91 856 284 
Q 544 659 544 1381 
z
M 1991 3584 
L 1991 3584 
z
" transform="scale(0.015625)"/>
       <path id="DejaVuSans-2c" d="M 750 794 
L 1409 794 
L 1409 256 
L 897 -744 
L 494 -744 
L 750 256 
L 750 794 
z
" transform="scale(0.015625)"/>
       <path id="DejaVuSans-70" d="M 1159 525 
L 1159 -1331 
L 581 -1331 
L 581 3500 
L 1159 3500 
L 1159 2969 
Q 1341 3281 1617 3432 
Q 1894 3584 2278 3584 
Q 2916 3584 3314 3078 
Q 3713 2572 3713 1747 
Q 3713 922 3314 415 
Q 2916 -91 2278 -91 
Q 1894 -91 1617 61 
Q 1341 213 1159 525 
z
M 3116 1747 
Q 3116 2381 2855 2742 
Q 2594 3103 2138 3103 
Q 1681 3103 1420 2742 
Q 1159 2381 1159 1747 
Q 1159 1113 1420 752 
Q 1681 391 2138 391 
Q 2594 391 2855 752 
Q 3116 1113 3116 1747 
z
" transform="scale(0.015625)"/>
      </defs>
      <use xlink:href="#DejaVuSans-46"/>
      <use xlink:href="#DejaVuSans-72" x="50.269531"/>
      <use xlink:href="#DejaVuSans-61" x="91.382812"/>
      <use xlink:href="#DejaVuSans-63" x="152.662109"/>
      <use xlink:href="#DejaVuSans-74" x="207.642578"/>
      <use xlink:href="#DejaVuSans-69" x="246.851562"/>
      <use xlink:href="#DejaVuSans-6f" x="274.634766"/>
      <use xlink:href="#DejaVuSans-6e" x="335.816406"/>
      <use xlink:href="#DejaVuSans-20" x="399.195312"/>
      <use xlink:href="#DejaVuSans-6f" x="430.982422"/>
      <use xlink:href="#DejaVuSans-66" x="492.164062"/>
      <use xlink:href="#DejaVuSans-20" x="527.369141"/>
      <use xlink:href="#DejaVuSans-66" x="559.15625"/>
      <use xlink:href="#DejaVuSans-75" x="594.361328"/>
      <use xlink:href="#DejaVuSans-6e" x="657.740234"/>
      <use xlink:href="#DejaVuSans-63" x="721.119141"/>
      <use xlink:href="#DejaVuSans-74" x="776.099609"/>
      <use xlink:href="#DejaVuSans-69" x="815.308594"/>
      <use xlink:href="#DejaVuSans-6f" x="843.091797"/>
      <use xlink:href="#DejaVuSans-6e" x="904.273438"/>
      <use xlink:href="#DejaVuSans-2c" x="967.652344"/>
      <use xlink:href="#DejaVuSans-74" x="999.439453"/>
      <use xlink:href="#DejaVuSans-61" x="1038.648438"/>
      <use xlink:href="#DejaVuSans-72" x="1099.927734"/>
      <use xlink:href="#DejaVuSans-67" x="1139.291016"/>
      <use xlink:href="#DejaVuSans-65" x="1202.767578"/>
      <use xlink:href="#DejaVuSans-74" x="1264.291016"/>
      <use xlink:href="#DejaVuSans-20" x="1303.5"/>
      <use xlink:href="#DejaVuSans-70" x="1335.287109"/>
      <use xlink:href="#DejaVuSans-61" x="1398.763672"/>
      <use xlink:href="#DejaVuSans-69" x="1460.042969"/>
      <use xlink:href="#DejaVuSans-72" x="1487.826172"/>
      <use xlink:href="#DejaVuSans-73" x="1528.939453"/>
     </g>
    </g>
   </g>
   <g id="line2d_33">
    <defs>
     <path id="mae9a7bf932" d="M 0 1.5 
C 0.397805 1.5 0.77937 1.341951 1.06066 1.06066 
C 1.341951 0.77937 1.5 0.397805 1.5 0 
C 1.5 -0.397805 1.341951 -0.77937 1.06066 -1.06066 
C 0.77937 -1.341951 0.397805 -1.5 0 -1.5 
C -0.397805 -1.5 -0.77937 -1.341951 -1.06066 -1.06066 
C -1.341951 -0.77937 -1.5 -0.397805 -1.5 0 
C -1.5 0.397805 -1.341951 0.77937 -1.06066 1.06066 
C -0.77937 1.341951 -0.397805 1.5 0 1.5 
z
" style="stroke: #f5deb3"/>
    </defs>
    <g>
     <use xlink:href="#mae9a7bf932" x="300.980155" y="42.157241" style="fill: #f5deb3; stroke: #f5deb3"/>
     <use xlink:href="#mae9a7bf932" x="300.980155" y="42.157241" style="fill: #f5deb3; stroke: #f5deb3"/>
    </g>
   </g>
   <g id="line2d_34">
    <defs>
     <path id="mad0e3a3188" d="M 0 1.5 
C 0.397805 1.5 0.77937 1.341951 1.06066 1.06066 
C 1.341951 0.77937 1.5 0.397805 1.5 0 
C 1.5 -0.397805 1.341951 -0.77937 1.06066 -1.06066 
C 0.77937 -1.341951 0.397805 -1.5 0 -1.5 
C -0.397805 -1.5 -0.77937 -1.341951 -1.06066 -1.06066 
C -1.341951 -0.77937 -1.5 -0.397805 -1.5 0 
C -1.5 0.397805 -1.341951 0.77937 -1.06066 1.06066 
C -0.77937 1.341951 -0.397805 1.5 0 1.5 
z
" style="stroke: #000080"/>
    </defs>
    <g>
     <use xlink:href="#mad0e3a3188" x="81.696354" y="269.908634" style="fill: #000080; stroke: #000080"/>
     <use xlink:href="#mad0e3a3188" x="81.696354" y="269.908634" style="fill: #000080; stroke: #000080"/>
    </g>
   </g>
   <g id="line2d_35">
    <path d="M 27.323974 298.944 
L 27.323974 289.2096 
L 40.363149 289.2096 
L 40.363149 287.363421 
L 47.990577 287.363421 
L 47.990577 285.013738 
L 53.402323 285.013738 
L 53.402323 284.006731 
L 57.6 284.006731 
L 57.6 283.671062 
L 61.029752 283.671062 
L 61.029752 283.503228 
L 63.929565 283.503228 
L 63.929565 283.167559 
L 66.441498 283.167559 
L 66.441498 282.328386 
L 68.65718 282.328386 
L 68.65718 281.657048 
L 70.639174 281.657048 
L 70.639174 277.96469 
L 72.432107 277.96469 
L 72.432107 277.461186 
L 74.068926 277.461186 
L 74.068926 276.11851 
L 75.574654 276.11851 
L 75.574654 275.615007 
L 76.96874 275.615007 
L 76.96874 273.936662 
L 78.266603 273.936662 
L 78.266603 273.600993 
L 79.480672 273.600993 
L 79.480672 272.426152 
L 80.621116 272.426152 
L 80.621116 272.090483 
L 81.696354 272.090483 
L 81.696354 269.908634 
L 360.8064 269.908634 
" style="fill: none; stroke: #000080; stroke-width: 1.5; stroke-linecap: square"/>
   </g>
   <g id="line2d_36">
    <defs>
     <path id="m77fb8c19bc" d="M 0 6 
C 1.591219 6 3.117479 5.367802 4.242641 4.242641 
C 5.367802 3.117479 6 1.591219 6 0 
C 6 -1.591219 5.367802 -3.117479 4.242641 -4.242641 
C 3.117479 -5.367802 1.591219 -6 0 -6 
C -1.591219 -6 -3.117479 -5.367802 -4.242641 -4.242641 
C -5.367802 -3.117479 -6 -1.591219 -6 0 
C -6 1.591219 -5.367802 3.117479 -4.242641 4.242641 
C -3.117479 5.367802 -1.591219 6 0 6 
z
" style="stroke: #000080; stroke-width: 1.5"/>
    </defs>
    <g>
     <use xlink:href="#m77fb8c19bc" x="80.621116" y="272.090483" style="fill-opacity: 0; stroke: #000080; stroke-width: 1.5"/>
     <use xlink:href="#m77fb8c19bc" x="81.696354" y="272.090483" style="fill-opacity: 0; stroke: #000080; stroke-width: 1.5"/>
     <use xlink:href="#m77fb8c19bc" x="81.696354" y="269.908634" style="fill-opacity: 0; stroke: #000080; stroke-width: 1.5"/>
     <use xlink:href="#m77fb8c19bc" x="81.696354" y="269.908634" style="fill-opacity: 0; stroke: #000080; stroke-width: 1.5"/>
     <use xlink:href="#m77fb8c19bc" x="81.696354" y="269.908634" style="fill-opacity: 0; stroke: #000080; stroke-width: 1.5"/>
     <use xlink:href="#m77fb8c19bc" x="360.8064" y="269.908634" style="fill-opacity: 0; stroke: #000080; stroke-width: 1.5"/>
    </g>
   </g>
   <g id="line2d_37">
    <path style="fill: none; stroke: #000080; stroke-width: 1.5; stroke-linecap: square"/>
    <g/>
   </g>
   <g id="line2d_38">
    <path d="M 81.696354 269.908634 
" clip-path="url(#p92b01aa469)" style="fill: none; stroke: #000080; stroke-width: 1.5; stroke-linecap: square"/>
    <defs>
     <path id="mf2a728b269" d="M -12 12 
L 12 -12 
M -12 -12 
L 12 12 
" style="stroke: #000080"/>
    </defs>
    <g clip-path="url(#p92b01aa469)">
     <use xlink:href="#mf2a728b269" x="81.696354" y="269.908634" style="fill: #000080; stroke: #000080"/>
    </g>
   </g>
   <g id="line2d_39">
    <defs>
     <path id="mb2b5d0482b" d="M 0 1.5 
C 0.397805 1.5 0.77937 1.341951 1.06066 1.06066 
C 1.341951 0.77937 1.5 0.397805 1.5 0 
C 1.5 -0.397805 1.341951 -0.77937 1.06066 -1.06066 
C 0.77937 -1.341951 0.397805 -1.5 0 -1.5 
C -0.397805 -1.5 -0.77937 -1.341951 -1.06066 -1.06066 
C -1.341951 -0.77937 -1.5 -0.397805 -1.5 0 
C -1.5 0.397805 -1.341951 0.77937 -1.06066 1.06066 
C -0.77937 1.341951 -0.397805 1.5 0 1.5 
z
" style="stroke: #ff00ff"/>
    </defs>
    <g>
     <use xlink:href="#mb2b5d0482b" x="272.055798" y="148.228634" style="fill: #ff00ff; stroke: #ff00ff"/>
     <use xlink:href="#mb2b5d0482b" x="272.055798" y="148.228634" style="fill: #ff00ff; stroke: #ff00ff"/>
    </g>
   </g>
   <g id="line2d_40">
    <path d="M 27.323974 298.944 
L 27.323974 289.2096 
L 40.363149 289.2096 
L 40.363149 287.866924 
L 47.990577 287.866924 
L 47.990577 287.69909 
L 53.402323 287.69909 
L 53.402323 286.859917 
L 57.6 286.859917 
L 57.6 286.524248 
L 61.029752 286.524248 
L 61.029752 286.356414 
L 63.929565 286.356414 
L 63.929565 286.188579 
L 66.441498 286.188579 
L 66.441498 284.510234 
L 70.639174 284.510234 
L 70.639174 284.006731 
L 72.432107 284.006731 
L 72.432107 283.838897 
L 75.574654 283.838897 
L 75.574654 282.83189 
L 76.96874 282.83189 
L 76.96874 282.496221 
L 78.266603 282.496221 
L 78.266603 282.160552 
L 79.480672 282.160552 
L 79.480672 281.489214 
L 80.621116 281.489214 
L 80.621116 281.321379 
L 81.696354 281.321379 
L 81.696354 281.153545 
L 82.713442 281.153545 
L 82.713442 280.650041 
L 84.596168 280.650041 
L 84.596168 280.482207 
L 85.471281 280.482207 
L 85.471281 279.139531 
L 87.1081 279.139531 
L 87.1081 278.971697 
L 88.613828 278.971697 
L 88.613828 278.468193 
L 90.007914 278.468193 
L 90.007914 278.300359 
L 90.668036 278.300359 
L 90.668036 278.132524 
L 93.66029 278.132524 
L 93.66029 277.96469 
L 96.241256 277.96469 
L 96.241256 277.796855 
L 96.717523 277.796855 
L 96.717523 277.629021 
L 97.635342 277.629021 
L 97.635342 277.293352 
L 99.346662 277.293352 
L 99.346662 277.125517 
L 99.751228 277.125517 
L 99.751228 276.789848 
L 100.147275 276.789848 
L 100.147275 276.454179 
L 102.011329 276.454179 
L 102.011329 276.286345 
L 102.362957 276.286345 
L 102.362957 276.11851 
L 103.047088 276.11851 
L 103.047088 275.782841 
L 103.380045 275.782841 
L 103.380045 275.615007 
L 104.344952 275.615007 
L 104.344952 275.111503 
L 104.961779 275.111503 
L 104.961779 274.943669 
L 105.26277 274.943669 
L 105.26277 274.775834 
L 105.559021 274.775834 
L 105.559021 274.608 
L 107.5116 274.608 
L 107.5116 274.272331 
L 108.29012 274.272331 
L 108.29012 273.936662 
L 108.791791 273.936662 
L 108.791791 273.768828 
L 109.037698 273.768828 
L 109.037698 273.600993 
L 109.280431 273.600993 
L 109.280431 273.433159 
L 109.520071 273.433159 
L 109.520071 273.265324 
L 109.756698 273.265324 
L 109.756698 273.09749 
L 109.990385 273.09749 
L 109.990385 271.083476 
L 110.221204 271.083476 
L 110.221204 270.915641 
L 110.449226 270.915641 
L 110.449226 270.579972 
L 110.897141 270.579972 
L 110.897141 270.244303 
L 111.334639 270.244303 
L 111.334639 270.076469 
L 112.180244 270.076469 
L 112.180244 269.908634 
L 112.790402 269.908634 
L 112.790402 269.572966 
L 113.186449 269.572966 
L 113.186449 269.405131 
L 113.57433 269.405131 
L 113.57433 269.069462 
L 113.765312 269.069462 
L 113.765312 268.901628 
L 114.326893 268.901628 
L 114.326893 268.733793 
L 114.510421 268.733793 
L 114.510421 267.726786 
L 114.692177 267.726786 
L 114.692177 267.391117 
L 114.872193 267.391117 
L 114.872193 266.887614 
L 115.227139 266.887614 
L 115.227139 266.719779 
L 115.917548 266.719779 
L 115.917548 266.38411 
L 116.086263 266.38411 
L 116.086263 266.216276 
L 116.419219 266.216276 
L 116.419219 266.048441 
L 116.583514 266.048441 
L 116.583514 265.544938 
L 117.226706 265.544938 
L 117.226706 265.377103 
L 117.384126 265.377103 
L 117.384126 265.209269 
L 117.540239 265.209269 
L 117.540239 265.041434 
L 118.450653 265.041434 
L 118.450653 264.537931 
L 118.598196 264.537931 
L 118.598196 264.202262 
L 118.74459 264.202262 
L 118.74459 263.530924 
L 118.889854 263.530924 
L 118.889854 263.027421 
L 119.034004 263.027421 
L 119.034004 262.859586 
L 119.177058 262.859586 
L 119.177058 262.523917 
L 119.459944 262.523917 
L 119.459944 262.356083 
L 119.599808 262.356083 
L 119.599808 261.684745 
L 120.149089 261.684745 
L 120.149089 261.51691 
L 120.28394 261.51691 
L 120.28394 261.181241 
L 120.41783 261.181241 
L 120.41783 261.013407 
L 120.550775 261.013407 
L 120.550775 260.677738 
L 120.682786 260.677738 
L 120.682786 260.509903 
L 120.944062 260.509903 
L 120.944062 260.342069 
L 121.073351 260.342069 
L 121.073351 260.174234 
L 121.329295 260.174234 
L 121.329295 259.502897 
L 121.455972 259.502897 
L 121.455972 258.831559 
L 121.830966 258.831559 
L 121.830966 258.663724 
L 122.19863 258.663724 
L 122.19863 258.49589 
L 122.319605 258.49589 
L 122.319605 257.824552 
L 122.439807 257.824552 
L 122.439807 257.656717 
L 122.795872 257.656717 
L 122.795872 256.985379 
L 123.145323 256.985379 
L 123.145323 256.146207 
L 123.374735 256.146207 
L 123.374735 255.810538 
L 123.825333 255.810538 
L 123.825333 255.307034 
L 124.046648 255.307034 
L 124.046648 254.971366 
L 124.373813 254.971366 
L 124.481616 254.467862 
L 124.695386 254.467862 
L 124.695386 254.300028 
L 125.011554 254.300028 
L 125.011554 253.796524 
L 125.219419 253.796524 
L 125.219419 253.62869 
L 125.526971 253.62869 
L 125.628382 253.125186 
L 125.729248 253.125186 
L 125.729248 252.957352 
L 126.420564 252.957352 
L 126.517282 252.286014 
L 126.709238 252.286014 
L 126.804487 251.446841 
L 127.087372 251.446841 
L 127.18073 250.104166 
L 127.366067 250.104166 
L 127.366067 249.432828 
L 127.640693 249.432828 
L 127.731351 248.593655 
L 128.000734 248.593655 
L 128.089678 248.257986 
L 128.700779 248.257986 
L 128.700779 247.922317 
L 128.956723 247.922317 
L 128.956723 247.250979 
L 129.375706 247.250979 
L 129.375706 247.083145 
L 129.622688 247.083145 
L 129.622688 246.91531 
L 129.86647 246.91531 
L 129.86647 246.579641 
L 130.344755 246.579641 
L 130.344755 246.411807 
L 130.501519 246.411807 
L 130.501519 246.243972 
L 130.734242 246.243972 
L 130.811181 245.4048 
L 131.040128 245.4048 
L 131.040128 245.236966 
L 131.341119 245.236966 
L 131.341119 244.901297 
L 131.71071 244.901297 
L 131.71071 244.565628 
L 132.001241 244.565628 
L 132.001241 244.397793 
L 132.144842 244.397793 
L 132.144842 244.229959 
L 132.358208 244.229959 
L 132.358208 243.726455 
L 133.390178 243.726455 
L 133.457005 243.055117 
L 133.72196 243.055117 
L 133.72196 242.719448 
L 133.918257 242.719448 
L 133.918257 242.383779 
L 134.240933 242.383779 
L 134.240933 241.712441 
L 134.431915 241.712441 
L 134.495147 241.376772 
L 135.298389 241.376772 
L 135.298389 241.208938 
L 136.010584 241.208938 
L 136.010584 241.041103 
L 136.584151 241.041103 
L 136.584151 240.873269 
L 136.97549 240.873269 
L 136.97549 240.5376 
L 138.616919 240.5376 
L 138.616919 240.369766 
L 139.459738 240.369766 
L 139.459738 240.034097 
L 140.032723 240.034097 
L 140.126547 239.530593 
L 140.451292 239.530593 
L 140.451292 239.362759 
L 140.725251 239.362759 
L 140.725251 239.194924 
L 140.905699 239.194924 
L 140.905699 238.859255 
L 142.331827 238.859255 
L 142.331827 238.691421 
L 142.865233 238.691421 
L 142.865233 238.355752 
L 142.986208 238.355752 
L 142.986208 237.852248 
L 143.225848 237.852248 
L 143.225848 237.348745 
L 144.117191 237.348745 
L 144.117191 237.18091 
L 145.004344 237.18091 
L 145.004344 237.013076 
L 146.193574 237.013076 
L 146.193574 236.677407 
L 148.001907 236.677407 
L 148.001907 236.509572 
L 149.73597 236.509572 
L 149.764026 235.502566 
L 149.931489 235.502566 
L 149.98698 235.166897 
L 151.832729 235.166897 
L 151.832729 234.999062 
L 152.057422 234.999062 
L 152.057422 234.663393 
L 152.906572 234.663393 
L 152.977604 234.327724 
L 153.071898 234.327724 
L 153.071898 234.15989 
L 153.375128 234.15989 
L 153.398253 233.824221 
L 153.8097 233.824221 
L 153.8097 233.320717 
L 153.967309 233.320717 
L 153.967309 233.152883 
L 154.322673 233.152883 
L 154.322673 232.985048 
L 154.73613 232.985048 
L 154.80059 232.649379 
L 155.24573 232.649379 
L 155.24573 232.31371 
L 155.391799 232.31371 
L 155.391799 232.145876 
L 155.598521 232.145876 
L 155.598521 231.978041 
L 156.105602 231.978041 
L 156.105602 230.299697 
L 156.304668 230.299697 
L 156.363979 229.796193 
L 156.618856 229.796193 
L 156.618856 229.460524 
L 156.774003 229.460524 
L 156.793307 229.124855 
L 156.88953 229.124855 
L 156.985263 228.621352 
L 157.004352 228.621352 
L 157.099504 228.117848 
L 157.250754 228.117848 
L 157.269574 227.614345 
L 157.475372 227.614345 
L 157.475372 226.943007 
L 157.605171 226.943007 
L 157.605171 226.775172 
L 157.752425 226.775172 
L 157.752425 226.103834 
L 158.007377 226.103834 
L 158.007377 225.768166 
L 158.223191 225.768166 
L 158.241064 225.264662 
L 158.418868 225.264662 
L 158.489522 224.761159 
L 158.559911 224.761159 
L 158.595008 224.257655 
L 158.682463 224.257655 
L 158.786875 223.921986 
L 158.821551 223.921986 
L 158.838864 223.250648 
L 158.959618 223.250648 
L 159.062507 222.243641 
L 159.198823 222.243641 
L 159.198823 222.075807 
L 159.418251 222.075807 
L 159.418251 221.572303 
L 159.833168 221.572303 
L 159.915064 220.900966 
L 159.964032 220.900966 
L 159.964032 220.565297 
L 160.126341 220.565297 
L 160.174762 220.061793 
L 160.699326 220.061793 
L 160.761927 218.551283 
L 160.855439 218.551283 
L 160.948489 217.544276 
L 161.025681 217.544276 
L 161.025681 217.376441 
L 161.300977 217.376441 
L 161.406958 216.033766 
L 161.437128 216.033766 
L 161.437128 215.865931 
L 161.765853 215.865931 
L 161.854518 214.69109 
L 161.957434 214.69109 
L 161.957434 214.355421 
L 162.132562 214.355421 
L 162.147083 213.851917 
L 162.277267 213.851917 
L 162.377902 212.84491 
L 162.549177 212.84491 
L 162.549177 212.509241 
L 162.676617 212.509241 
L 162.676617 212.341407 
L 162.859187 212.341407 
L 162.859187 212.005738 
L 163.040002 212.005738 
L 163.040002 211.670069 
L 163.314829 211.670069 
L 163.314829 211.502234 
L 163.625994 211.502234 
L 163.719684 210.830897 
L 164.181259 210.830897 
L 164.181259 210.495228 
L 164.349858 210.495228 
L 164.414303 209.320386 
L 164.657201 209.320386 
L 164.695268 208.816883 
L 164.796406 208.816883 
L 164.796406 208.481214 
L 164.909539 208.481214 
L 165.009535 207.306372 
L 165.096597 207.306372 
L 165.183257 206.970703 
L 165.30637 206.970703 
L 165.30637 206.802869 
L 165.610672 206.802869 
L 165.719027 206.299366 
L 165.957604 206.299366 
L 165.957604 205.963697 
L 166.099311 205.963697 
L 166.158043 205.460193 
L 166.228279 205.460193 
L 166.228279 205.124524 
L 166.344759 205.124524 
L 166.344759 204.95669 
L 166.47206 204.95669 
L 166.518139 204.453186 
L 166.701332 204.453186 
L 166.701332 204.285352 
L 166.905315 204.285352 
L 166.905315 204.117517 
L 167.306762 204.117517 
L 167.383837 203.614014 
L 167.569712 203.614014 
L 167.656552 202.607007 
L 167.807563 202.607007 
L 167.839765 201.6 
L 167.999955 201.6 
L 168.03183 200.928662 
L 168.200924 200.928662 
L 168.200924 200.592993 
L 168.337202 200.592993 
L 168.389355 199.753821 
L 168.658244 199.753821 
L 168.658244 199.585986 
L 168.892945 199.585986 
L 168.963798 198.914648 
L 169.084644 198.914648 
L 169.184759 198.075476 
L 169.599518 198.075476 
L 169.599518 197.907641 
L 169.8614 197.907641 
L 169.8614 197.571972 
L 170.148167 197.571972 
L 170.242793 196.229297 
L 170.261661 196.229297 
L 170.355719 195.725793 
L 170.421281 195.725793 
L 170.477296 194.886621 
L 171.037505 194.886621 
L 171.073664 194.047448 
L 171.315934 194.047448 
L 171.351562 193.543945 
L 171.502232 193.543945 
L 171.590302 192.704772 
L 171.616642 192.704772 
L 171.669213 192.033434 
L 171.938512 192.033434 
L 171.972982 191.529931 
L 172.144386 191.529931 
L 172.144386 191.362097 
L 172.33959 191.362097 
L 172.348032 190.690759 
L 172.465815 190.690759 
L 172.524431 190.35509 
L 172.641118 190.35509 
L 172.732295 189.851586 
L 172.995054 189.851586 
L 172.995054 189.515917 
L 173.133165 189.515917 
L 173.133165 189.348083 
L 173.501874 189.348083 
L 173.501874 189.012414 
L 173.691413 189.012414 
L 173.691413 188.844579 
L 174.010854 188.844579 
L 174.010854 188.50891 
L 174.126381 188.50891 
L 174.126381 188.341076 
L 174.271704 188.341076 
L 174.271704 188.005407 
L 174.438582 188.005407 
L 174.461224 187.669738 
L 174.886319 187.669738 
L 174.923154 187.166234 
L 175.018589 187.166234 
L 175.091672 186.662731 
L 175.323647 186.662731 
L 175.431409 185.991393 
L 175.510044 185.991393 
L 175.581246 185.152221 
L 175.680478 185.152221 
L 175.715792 184.648717 
L 175.877386 184.648717 
L 175.877386 184.313048 
L 176.127562 184.313048 
L 176.141363 183.977379 
L 176.306197 183.977379 
L 176.313034 183.306041 
L 176.54402 183.306041 
L 176.55752 182.970372 
L 176.725451 182.970372 
L 176.738821 182.466869 
L 176.898524 182.466869 
L 176.997654 181.627697 
L 177.03716 181.627697 
L 177.03716 181.459862 
L 177.285458 181.459862 
L 177.369655 180.788524 
L 177.479194 180.788524 
L 177.479194 180.62069 
L 177.683669 180.62069 
L 177.766107 179.613683 
L 177.892232 179.613683 
L 177.992527 178.77451 
L 178.03 178.77451 
L 178.054941 178.103172 
L 178.18534 178.103172 
L 178.18534 177.935338 
L 178.327129 177.935338 
L 178.327129 177.767503 
L 178.565137 177.767503 
L 178.60754 177.264 
L 178.931471 177.264 
L 179.020471 176.089159 
L 179.910646 176.089159 
L 179.910646 175.921324 
L 180.084854 175.921324 
L 180.118386 175.585655 
L 180.218626 175.585655 
L 180.318334 174.914317 
L 180.379007 174.914317 
L 180.379007 174.746483 
L 180.516178 174.746483 
L 180.516178 174.578648 
L 180.630634 174.578648 
L 180.630634 174.242979 
L 180.985884 174.242979 
L 180.985884 174.075145 
L 181.166307 174.075145 
L 181.166307 173.90731 
L 181.44935 173.90731 
L 181.454552 173.403807 
L 181.604776 173.403807 
L 181.625402 172.732469 
L 181.769159 172.732469 
L 181.769159 172.564634 
L 181.937189 172.564634 
L 182.033257 171.725462 
L 182.27877 171.725462 
L 182.308614 171.389793 
L 182.407753 171.389793 
L 182.407753 171.221959 
L 182.579998 171.221959 
L 182.579998 171.054124 
L 182.726392 171.054124 
L 182.799165 170.550621 
L 182.85718 170.550621 
L 182.85718 170.382786 
L 183.187342 170.382786 
L 183.187342 170.047117 
L 183.362027 170.047117 
L 183.469803 169.711448 
L 183.60018 169.711448 
L 183.60018 169.543614 
L 183.748085 169.543614 
L 183.771091 168.872276 
L 183.894836 168.872276 
L 183.894836 168.704441 
L 184.044984 168.704441 
L 184.058574 168.033103 
L 184.238849 168.033103 
L 184.238849 167.865269 
L 184.377384 167.865269 
L 184.377384 167.697434 
L 184.69088 167.697434 
L 184.765174 167.361766 
L 184.808739 167.361766 
L 184.81309 167.026097 
L 185.268681 167.026097 
L 185.366096 166.690428 
L 186.143988 166.690428 
L 186.143988 166.522593 
L 186.297388 166.522593 
L 186.297388 166.186924 
L 186.584653 166.186924 
L 186.643952 165.515586 
L 186.718797 165.515586 
L 186.746296 165.179917 
L 186.879296 165.179917 
L 186.879296 165.012083 
L 187.157876 165.012083 
L 187.265108 164.676414 
L 187.549362 164.676414 
L 187.628189 164.340745 
L 188.08703 164.340745 
L 188.170921 163.501572 
L 188.684273 163.501572 
L 188.684273 163.165903 
L 189.328269 163.165903 
L 189.328269 162.998069 
L 189.481639 162.998069 
L 189.576441 162.494566 
L 189.721108 162.494566 
L 189.721108 162.326731 
L 190.881058 162.326731 
L 190.906249 161.991062 
L 191.047325 161.991062 
L 191.047325 161.823228 
L 191.357089 161.823228 
L 191.357089 161.487559 
L 191.52531 161.487559 
L 191.52531 161.319724 
L 191.698075 161.319724 
L 191.698075 161.15189 
L 192.39987 161.15189 
L 192.39987 160.816221 
L 193.171515 160.816221 
L 193.171515 160.480552 
L 194.928145 160.480552 
L 194.928145 160.312717 
L 196.6857 160.312717 
L 196.6857 160.144883 
L 196.874531 160.144883 
L 196.874531 159.809214 
L 197.147497 159.809214 
L 197.147497 159.473545 
L 201.206456 159.473545 
L 201.206456 159.30571 
L 202.384546 159.30571 
L 202.389674 158.802207 
L 203.138516 158.802207 
L 203.138516 158.466538 
L 203.70314 158.466538 
L 203.70314 158.298703 
L 204.482091 158.298703 
L 204.482091 158.130869 
L 207.17985 158.130869 
L 207.17985 157.963034 
L 207.314501 157.963034 
L 207.314501 157.627366 
L 209.563331 157.627366 
L 209.563331 157.459531 
L 212.6313 157.459531 
L 212.6313 157.123862 
L 214.210107 157.123862 
L 214.210107 156.956028 
L 217.278095 156.956028 
L 217.278095 156.788193 
L 218.867286 156.788193 
L 218.867286 156.452524 
L 223.036327 156.452524 
L 223.036327 156.28469 
L 223.171569 156.28469 
L 223.171569 156.116855 
L 224.308015 156.116855 
L 224.308015 155.613352 
L 228.414968 155.613352 
L 228.414968 155.277683 
L 229.201667 155.277683 
L 229.201667 155.109848 
L 232.505738 155.109848 
L 232.505738 154.774179 
L 233.192504 154.774179 
L 233.192504 154.606345 
L 233.454901 154.606345 
L 233.454901 154.43851 
L 234.072965 154.43851 
L 234.072965 154.102841 
L 238.202899 154.102841 
L 238.202899 153.935007 
L 238.836632 153.935007 
L 238.836632 153.767172 
L 240.244414 153.767172 
L 240.334896 153.095834 
L 243.669824 153.095834 
L 243.669824 152.928 
L 244.41708 152.928 
L 244.41708 152.592331 
L 245.693078 152.592331 
L 245.796767 151.920993 
L 246.351944 151.920993 
L 246.351944 151.585324 
L 246.98484 151.585324 
L 246.98484 151.41749 
L 247.755959 151.41749 
L 247.755959 151.081821 
L 249.846479 151.081821 
L 249.846479 150.913986 
L 250.863437 150.913986 
L 250.863437 150.746152 
L 251.776195 150.746152 
L 251.776195 150.410483 
L 253.050371 150.410483 
L 253.050371 150.242648 
L 253.816626 150.242648 
L 253.816626 150.074814 
L 254.219577 150.074814 
L 254.219577 149.906979 
L 256.796204 149.906979 
L 256.796204 149.739145 
L 261.99241 149.739145 
L 261.99241 149.57131 
L 262.743045 149.57131 
L 262.743045 149.403476 
L 265.80855 149.403476 
L 265.80855 149.235641 
L 269.076133 149.235641 
L 269.076133 148.899972 
L 269.280566 148.899972 
L 269.280566 148.732138 
L 271.256625 148.732138 
L 271.256625 148.564303 
L 271.380651 148.564303 
L 271.380651 148.396469 
L 272.055798 148.396469 
L 272.055798 148.228634 
L 360.8064 148.228634 
L 360.8064 148.228634 
" style="fill: none; stroke: #ff00ff; stroke-width: 1.5; stroke-linecap: square"/>
   </g>
   <g id="line2d_41">
    <defs>
     <path id="ma6b9f6f0e6" d="M 0 8.485281 
L 5.091169 0 
L 0 -8.485281 
L -5.091169 0 
z
" style="stroke: #ff00ff; stroke-width: 1.5; stroke-linejoin: miter"/>
    </defs>
    <g>
     <use xlink:href="#ma6b9f6f0e6" x="114.692177" y="267.391117" style="fill-opacity: 0; stroke: #ff00ff; stroke-width: 1.5; stroke-linejoin: miter"/>
     <use xlink:href="#ma6b9f6f0e6" x="160.699326" y="219.726124" style="fill-opacity: 0; stroke: #ff00ff; stroke-width: 1.5; stroke-linejoin: miter"/>
     <use xlink:href="#ma6b9f6f0e6" x="249.846479" y="151.081821" style="fill-opacity: 0; stroke: #ff00ff; stroke-width: 1.5; stroke-linejoin: miter"/>
     <use xlink:href="#ma6b9f6f0e6" x="272.055798" y="148.228634" style="fill-opacity: 0; stroke: #ff00ff; stroke-width: 1.5; stroke-linejoin: miter"/>
     <use xlink:href="#ma6b9f6f0e6" x="272.055798" y="148.228634" style="fill-opacity: 0; stroke: #ff00ff; stroke-width: 1.5; stroke-linejoin: miter"/>
     <use xlink:href="#ma6b9f6f0e6" x="360.8064" y="148.228634" style="fill-opacity: 0; stroke: #ff00ff; stroke-width: 1.5; stroke-linejoin: miter"/>
    </g>
   </g>
   <g id="line2d_42">
    <path style="fill: none; stroke: #ff00ff; stroke-width: 1.5; stroke-linecap: square"/>
    <g/>
   </g>
   <g id="line2d_43">
    <path d="M 274.176038 148.228634 
" clip-path="url(#p92b01aa469)" style="fill: none; stroke: #ff00ff; stroke-width: 1.5; stroke-linecap: square"/>
    <defs>
     <path id="m9450b51c2b" d="M -12 12 
L 12 -12 
M -12 -12 
L 12 12 
" style="stroke: #ff00ff"/>
    </defs>
    <g clip-path="url(#p92b01aa469)">
     <use xlink:href="#m9450b51c2b" x="274.176038" y="148.228634" style="fill: #ff00ff; stroke: #ff00ff"/>
    </g>
   </g>
   <g id="line2d_44">
    <defs>
     <path id="m8648dc1f55" d="M 0 1.5 
C 0.397805 1.5 0.77937 1.341951 1.06066 1.06066 
C 1.341951 0.77937 1.5 0.397805 1.5 0 
C 1.5 -0.397805 1.341951 -0.77937 1.06066 -1.06066 
C 0.77937 -1.341951 0.397805 -1.5 0 -1.5 
C -0.397805 -1.5 -0.77937 -1.341951 -1.06066 -1.06066 
C -1.341951 -0.77937 -1.5 -0.397805 -1.5 0 
C -1.5 0.397805 -1.341951 0.77937 -1.06066 1.06066 
C -0.77937 1.341951 -0.397805 1.5 0 1.5 
z
" style="stroke: #6495ed"/>
    </defs>
    <g>
     <use xlink:href="#m8648dc1f55" x="113.954374" y="235.334731" style="fill: #6495ed; stroke: #6495ed"/>
     <use xlink:href="#m8648dc1f55" x="113.954374" y="235.334731" style="fill: #6495ed; stroke: #6495ed"/>
    </g>
   </g>
   <g id="line2d_45">
    <path d="M 27.323974 298.944 
L 27.323974 298.104828 
L 40.363149 298.104828 
L 40.363149 297.097821 
L 47.990577 297.097821 
L 47.990577 295.755145 
L 53.402323 295.755145 
L 53.402323 293.908966 
L 57.6 293.908966 
L 57.6 293.573297 
L 61.029752 293.573297 
L 61.029752 292.56629 
L 63.929565 292.56629 
L 63.929565 292.398455 
L 66.441498 292.398455 
L 66.441498 291.559283 
L 68.65718 291.559283 
L 68.65718 290.216607 
L 70.639174 290.216607 
L 70.639174 289.713103 
L 72.432107 289.713103 
L 72.432107 289.041766 
L 74.068926 289.041766 
L 74.068926 288.706097 
L 75.574654 288.706097 
L 75.574654 288.538262 
L 76.96874 288.538262 
L 76.96874 287.027752 
L 78.266603 287.027752 
L 78.266603 286.356414 
L 79.480672 286.356414 
L 79.480672 285.013738 
L 80.621116 285.013738 
L 80.621116 284.174566 
L 83.678349 284.174566 
L 83.678349 284.006731 
L 84.596168 284.006731 
L 84.596168 283.503228 
L 87.876026 283.503228 
L 87.876026 283.167559 
L 89.323782 283.167559 
L 89.323782 282.999724 
L 90.007914 282.999724 
L 90.007914 281.657048 
L 91.922605 281.657048 
L 91.922605 281.321379 
L 92.519847 281.321379 
L 92.519847 280.817876 
L 93.098709 280.817876 
L 93.098709 280.650041 
L 94.205591 280.650041 
L 94.205591 280.482207 
L 94.735529 280.482207 
L 94.735529 280.314372 
L 95.250946 280.314372 
L 95.250946 279.643034 
L 96.241256 279.643034 
L 96.241256 279.4752 
L 97.18203 279.4752 
L 97.18203 279.307366 
L 97.635342 279.307366 
L 97.635342 278.971697 
L 98.933205 278.971697 
L 98.933205 278.803862 
L 100.9152 278.803862 
L 100.9152 278.636028 
L 101.287718 278.636028 
L 101.287718 277.796855 
L 101.653002 277.796855 
L 101.653002 275.950676 
L 102.362957 275.950676 
L 102.362957 275.782841 
L 103.047088 275.782841 
L 103.047088 274.272331 
L 103.380045 274.272331 
L 103.380045 270.076469 
L 103.707211 270.076469 
L 103.707211 268.062455 
L 104.028784 268.062455 
L 104.028784 267.055448 
L 104.344952 267.055448 
L 104.344952 266.048441 
L 104.655893 266.048441 
L 104.655893 263.530924 
L 104.961779 263.530924 
L 104.961779 260.677738 
L 105.26277 260.677738 
L 105.26277 257.656717 
L 105.559021 257.656717 
L 105.559021 257.153214 
L 105.850679 257.153214 
L 105.850679 255.474869 
L 106.137884 255.474869 
L 106.137884 255.1392 
L 106.42077 255.1392 
L 106.42077 254.467862 
L 106.699465 254.467862 
L 106.699465 253.62869 
L 106.974091 253.62869 
L 106.974091 252.957352 
L 107.244765 252.957352 
L 107.244765 250.439834 
L 107.5116 250.439834 
L 107.5116 249.600662 
L 107.774703 249.600662 
L 107.774703 248.929324 
L 108.034177 248.929324 
L 108.034177 248.425821 
L 108.29012 248.425821 
L 108.29012 247.250979 
L 108.542628 247.250979 
L 108.542628 245.740469 
L 108.791791 245.740469 
L 108.791791 245.4048 
L 109.037698 245.4048 
L 109.037698 244.901297 
L 109.280431 244.901297 
L 109.280431 244.733462 
L 109.520071 244.733462 
L 109.520071 244.397793 
L 109.756698 244.397793 
L 109.756698 244.229959 
L 109.990385 244.229959 
L 109.990385 242.719448 
L 110.221204 242.719448 
L 110.221204 242.383779 
L 110.449226 242.383779 
L 110.449226 242.04811 
L 110.674517 242.04811 
L 110.674517 241.712441 
L 111.117162 241.712441 
L 111.117162 239.866262 
L 111.334639 239.866262 
L 111.334639 239.02709 
L 111.54963 239.02709 
L 111.54963 238.187917 
L 111.762192 238.187917 
L 111.762192 237.18091 
L 111.97238 237.18091 
L 111.97238 236.677407 
L 112.385837 236.677407 
L 112.385837 236.509572 
L 112.790402 236.509572 
L 112.790402 236.173903 
L 113.186449 236.173903 
L 113.186449 235.838234 
L 113.381389 235.838234 
L 113.381389 235.6704 
L 113.954374 235.6704 
L 113.954374 235.334731 
L 360.8064 235.334731 
L 360.8064 235.334731 
" style="fill: none; stroke: #6495ed; stroke-width: 1.5; stroke-linecap: square"/>
   </g>
   <g id="line2d_46">
    <defs>
     <path id="mc5728f473f" d="M -0 6 
L 6 -6 
L -6 -6 
z
" style="stroke: #6495ed; stroke-width: 1.5; stroke-linejoin: miter"/>
    </defs>
    <g>
     <use xlink:href="#mc5728f473f" x="90.007914" y="282.999724" style="fill-opacity: 0; stroke: #6495ed; stroke-width: 1.5; stroke-linejoin: miter"/>
     <use xlink:href="#mc5728f473f" x="113.954374" y="235.6704" style="fill-opacity: 0; stroke: #6495ed; stroke-width: 1.5; stroke-linejoin: miter"/>
     <use xlink:href="#mc5728f473f" x="113.954374" y="235.6704" style="fill-opacity: 0; stroke: #6495ed; stroke-width: 1.5; stroke-linejoin: miter"/>
     <use xlink:href="#mc5728f473f" x="113.954374" y="235.334731" style="fill-opacity: 0; stroke: #6495ed; stroke-width: 1.5; stroke-linejoin: miter"/>
     <use xlink:href="#mc5728f473f" x="113.954374" y="235.334731" style="fill-opacity: 0; stroke: #6495ed; stroke-width: 1.5; stroke-linejoin: miter"/>
     <use xlink:href="#mc5728f473f" x="360.8064" y="235.334731" style="fill-opacity: 0; stroke: #6495ed; stroke-width: 1.5; stroke-linejoin: miter"/>
    </g>
   </g>
   <g id="line2d_47">
    <path style="fill: none; stroke: #6495ed; stroke-width: 1.5; stroke-linecap: square"/>
    <g/>
   </g>
   <g id="line2d_48">
    <path d="M 113.954374 235.334731 
" clip-path="url(#p92b01aa469)" style="fill: none; stroke: #6495ed; stroke-width: 1.5; stroke-linecap: square"/>
    <defs>
     <path id="m238128d6da" d="M -12 12 
L 12 -12 
M -12 -12 
L 12 12 
" style="stroke: #6495ed"/>
    </defs>
    <g clip-path="url(#p92b01aa469)">
     <use xlink:href="#m238128d6da" x="113.954374" y="235.334731" style="fill: #6495ed; stroke: #6495ed"/>
    </g>
   </g>
   <g id="line2d_49">
    <path d="M 360.8064 269.908634 
L 380.514816 293.10336 
" style="fill: none; stroke: #000080; stroke-width: 1.5; stroke-linecap: square"/>
    <g>
     <use xlink:href="#m77fb8c19bc" x="360.8064" y="269.908634" style="fill-opacity: 0; stroke: #000080; stroke-width: 1.5"/>
     <use xlink:href="#m77fb8c19bc" x="380.514816" y="293.10336" style="fill-opacity: 0; stroke: #000080; stroke-width: 1.5"/>
    </g>
   </g>
   <g id="line2d_50">
    <path d="M 360.8064 235.334731 
L 380.514816 199.65312 
" style="fill: none; stroke: #6495ed; stroke-width: 1.5; stroke-linecap: square"/>
    <g>
     <use xlink:href="#mc5728f473f" x="360.8064" y="235.334731" style="fill-opacity: 0; stroke: #6495ed; stroke-width: 1.5; stroke-linejoin: miter"/>
     <use xlink:href="#mc5728f473f" x="380.514816" y="199.65312" style="fill-opacity: 0; stroke: #6495ed; stroke-width: 1.5; stroke-linejoin: miter"/>
    </g>
   </g>
   <g id="line2d_51">
    <path d="M 360.8064 148.228634 
L 380.514816 106.20288 
" style="fill: none; stroke: #ff00ff; stroke-width: 1.5; stroke-linecap: square"/>
    <g>
     <use xlink:href="#ma6b9f6f0e6" x="360.8064" y="148.228634" style="fill-opacity: 0; stroke: #ff00ff; stroke-width: 1.5; stroke-linejoin: miter"/>
     <use xlink:href="#ma6b9f6f0e6" x="380.514816" y="106.20288" style="fill-opacity: 0; stroke: #ff00ff; stroke-width: 1.5; stroke-linejoin: miter"/>
    </g>
   </g>
   <g id="line2d_52">
    <path d="M 360.8064 298.944 
L 360.8064 6.912 
" style="fill: none; stroke: #000000; stroke-width: 1.5; stroke-linecap: square"/>
   </g>
   <g id="patch_3">
    <path d="M 57.6 298.944 
L 360.8064 298.944 
" style="fill: none; stroke: #000000; stroke-width: 0.8; stroke-linejoin: miter; stroke-linecap: square"/>
   </g>
   <g id="patch_4">
    <path d="M 57.6 6.912 
L 360.8064 6.912 
" style="fill: none; stroke: #000000; stroke-width: 0.8; stroke-linejoin: miter; stroke-linecap: square"/>
   </g>
   <g id="text_13">
    <!-- cma -->
    <g transform="translate(386.578944 296.966485)scale(0.14 -0.14)">
     <use xlink:href="#DejaVuSans-63"/>
     <use xlink:href="#DejaVuSans-6d" x="54.980469"/>
     <use xlink:href="#DejaVuSans-61" x="152.392578"/>
    </g>
   </g>
   <g id="text_14">
    <!-- parEgo -->
    <g transform="translate(386.578944 203.516245)scale(0.14 -0.14)">
     <defs>
      <path id="DejaVuSans-45" d="M 628 4666 
L 3578 4666 
L 3578 4134 
L 1259 4134 
L 1259 2753 
L 3481 2753 
L 3481 2222 
L 1259 2222 
L 1259 531 
L 3634 531 
L 3634 0 
L 628 0 
L 628 4666 
z
" transform="scale(0.015625)"/>
     </defs>
     <use xlink:href="#DejaVuSans-70"/>
     <use xlink:href="#DejaVuSans-61" x="63.476562"/>
     <use xlink:href="#DejaVuSans-72" x="124.755859"/>
     <use xlink:href="#DejaVuSans-45" x="165.869141"/>
     <use xlink:href="#DejaVuSans-67" x="229.052734"/>
     <use xlink:href="#DejaVuSans-6f" x="292.529297"/>
    </g>
   </g>
   <g id="text_15">
    <!-- external- -->
    <g transform="translate(386.578944 110.066005)scale(0.14 -0.14)">
     <defs>
      <path id="DejaVuSans-78" d="M 3513 3500 
L 2247 1797 
L 3578 0 
L 2900 0 
L 1881 1375 
L 863 0 
L 184 0 
L 1544 1831 
L 300 3500 
L 978 3500 
L 1906 2253 
L 2834 3500 
L 3513 3500 
z
" transform="scale(0.015625)"/>
     </defs>
     <use xlink:href="#DejaVuSans-65"/>
     <use xlink:href="#DejaVuSans-78" x="59.773438"/>
     <use xlink:href="#DejaVuSans-74" x="118.953125"/>
     <use xlink:href="#DejaVuSans-65" x="158.162109"/>
     <use xlink:href="#DejaVuSans-72" x="219.685547"/>
     <use xlink:href="#DejaVuSans-6e" x="259.048828"/>
     <use xlink:href="#DejaVuSans-61" x="322.427734"/>
     <use xlink:href="#DejaVuSans-6c" x="383.707031"/>
     <use xlink:href="#DejaVuSans-2d" x="411.490234"/>
    </g>
   </g>
   <g id="text_16">
    <!-- best 2016 -->
    <g transform="translate(386.578944 16.615765)scale(0.14 -0.14)">
     <defs>
      <path id="DejaVuSans-62" d="M 3116 1747 
Q 3116 2381 2855 2742 
Q 2594 3103 2138 3103 
Q 1681 3103 1420 2742 
Q 1159 2381 1159 1747 
Q 1159 1113 1420 752 
Q 1681 391 2138 391 
Q 2594 391 2855 752 
Q 3116 1113 3116 1747 
z
M 1159 2969 
Q 1341 3281 1617 3432 
Q 1894 3584 2278 3584 
Q 2916 3584 3314 3078 
Q 3713 2572 3713 1747 
Q 3713 922 3314 415 
Q 2916 -91 2278 -91 
Q 1894 -91 1617 61 
Q 1341 213 1159 525 
L 1159 0 
L 581 0 
L 581 4863 
L 1159 4863 
L 1159 2969 
z
" transform="scale(0.015625)"/>
     </defs>
     <use xlink:href="#DejaVuSans-62"/>
     <use xlink:href="#DejaVuSans-65" x="63.476562"/>
     <use xlink:href="#DejaVuSans-73" x="125"/>
     <use xlink:href="#DejaVuSans-74" x="177.099609"/>
     <use xlink:href="#DejaVuSans-20" x="216.308594"/>
     <use xlink:href="#DejaVuSans-32" x="248.095703"/>
     <use xlink:href="#DejaVuSans-30" x="311.71875"/>
     <use xlink:href="#DejaVuSans-31" x="375.341797"/>
     <use xlink:href="#DejaVuSans-36" x="438.964844"/>
    </g>
   </g>
   <g id="text_17">
    <!-- bbob-biobj f53-f55, 5-D -->
    <g transform="translate(60.632064 17.582726)scale(0.102 -0.102)">
     <defs>
      <path id="DejaVuSans-6a" d="M 603 3500 
L 1178 3500 
L 1178 -63 
Q 1178 -731 923 -1031 
Q 669 -1331 103 -1331 
L -116 -1331 
L -116 -844 
L 38 -844 
Q 366 -844 484 -692 
Q 603 -541 603 -63 
L 603 3500 
z
M 603 4863 
L 1178 4863 
L 1178 4134 
L 603 4134 
L 603 4863 
z
" transform="scale(0.015625)"/>
      <path id="DejaVuSans-35" d="M 691 4666 
L 3169 4666 
L 3169 4134 
L 1269 4134 
L 1269 2991 
Q 1406 3038 1543 3061 
Q 1681 3084 1819 3084 
Q 2600 3084 3056 2656 
Q 3513 2228 3513 1497 
Q 3513 744 3044 326 
Q 2575 -91 1722 -91 
Q 1428 -91 1123 -41 
Q 819 9 494 109 
L 494 744 
Q 775 591 1075 516 
Q 1375 441 1709 441 
Q 2250 441 2565 725 
Q 2881 1009 2881 1497 
Q 2881 1984 2565 2268 
Q 2250 2553 1709 2553 
Q 1456 2553 1204 2497 
Q 953 2441 691 2322 
L 691 4666 
z
" transform="scale(0.015625)"/>
      <path id="DejaVuSans-33" d="M 2597 2516 
Q 3050 2419 3304 2112 
Q 3559 1806 3559 1356 
Q 3559 666 3084 287 
Q 2609 -91 1734 -91 
Q 1441 -91 1130 -33 
Q 819 25 488 141 
L 488 750 
Q 750 597 1062 519 
Q 1375 441 1716 441 
Q 2309 441 2620 675 
Q 2931 909 2931 1356 
Q 2931 1769 2642 2001 
Q 2353 2234 1838 2234 
L 1294 2234 
L 1294 2753 
L 1863 2753 
Q 2328 2753 2575 2939 
Q 2822 3125 2822 3475 
Q 2822 3834 2567 4026 
Q 2313 4219 1838 4219 
Q 1578 4219 1281 4162 
Q 984 4106 628 3988 
L 628 4550 
Q 988 4650 1302 4700 
Q 1616 4750 1894 4750 
Q 2613 4750 3031 4423 
Q 3450 4097 3450 3541 
Q 3450 3153 3228 2886 
Q 3006 2619 2597 2516 
z
" transform="scale(0.015625)"/>
      <path id="DejaVuSans-44" d="M 1259 4147 
L 1259 519 
L 2022 519 
Q 2988 519 3436 956 
Q 3884 1394 3884 2338 
Q 3884 3275 3436 3711 
Q 2988 4147 2022 4147 
L 1259 4147 
z
M 628 4666 
L 1925 4666 
Q 3281 4666 3915 4102 
Q 4550 3538 4550 2338 
Q 4550 1131 3912 565 
Q 3275 0 1925 0 
L 628 0 
L 628 4666 
z
" transform="scale(0.015625)"/>
     </defs>
     <use xlink:href="#DejaVuSans-62"/>
     <use xlink:href="#DejaVuSans-62" x="63.476562"/>
     <use xlink:href="#DejaVuSans-6f" x="126.953125"/>
     <use xlink:href="#DejaVuSans-62" x="188.134766"/>
     <use xlink:href="#DejaVuSans-2d" x="251.611328"/>
     <use xlink:href="#DejaVuSans-62" x="287.695312"/>
     <use xlink:href="#DejaVuSans-69" x="351.171875"/>
     <use xlink:href="#DejaVuSans-6f" x="378.955078"/>
     <use xlink:href="#DejaVuSans-62" x="440.136719"/>
     <use xlink:href="#DejaVuSans-6a" x="503.613281"/>
     <use xlink:href="#DejaVuSans-20" x="531.396484"/>
     <use xlink:href="#DejaVuSans-66" x="563.183594"/>
     <use xlink:href="#DejaVuSans-35" x="598.388672"/>
     <use xlink:href="#DejaVuSans-33" x="662.011719"/>
     <use xlink:href="#DejaVuSans-2d" x="725.634766"/>
     <use xlink:href="#DejaVuSans-66" x="761.71875"/>
     <use xlink:href="#DejaVuSans-35" x="796.923828"/>
     <use xlink:href="#DejaVuSans-35" x="860.546875"/>
     <use xlink:href="#DejaVuSans-2c" x="924.169922"/>
     <use xlink:href="#DejaVuSans-20" x="955.957031"/>
     <use xlink:href="#DejaVuSans-35" x="987.744141"/>
     <use xlink:href="#DejaVuSans-2d" x="1051.367188"/>
     <use xlink:href="#DejaVuSans-44" x="1087.451172"/>
    </g>
    <!-- 58 targets: 1..-1.0e-4 -->
    <g transform="translate(60.632064 29.004495)scale(0.102 -0.102)">
     <defs>
      <path id="DejaVuSans-3a" d="M 750 794 
L 1409 794 
L 1409 0 
L 750 0 
L 750 794 
z
M 750 3309 
L 1409 3309 
L 1409 2516 
L 750 2516 
L 750 3309 
z
" transform="scale(0.015625)"/>
     </defs>
     <use xlink:href="#DejaVuSans-35"/>
     <use xlink:href="#DejaVuSans-38" x="63.623047"/>
     <use xlink:href="#DejaVuSans-20" x="127.246094"/>
     <use xlink:href="#DejaVuSans-74" x="159.033203"/>
     <use xlink:href="#DejaVuSans-61" x="198.242188"/>
     <use xlink:href="#DejaVuSans-72" x="259.521484"/>
     <use xlink:href="#DejaVuSans-67" x="298.884766"/>
     <use xlink:href="#DejaVuSans-65" x="362.361328"/>
     <use xlink:href="#DejaVuSans-74" x="423.884766"/>
     <use xlink:href="#DejaVuSans-73" x="463.09375"/>
     <use xlink:href="#DejaVuSans-3a" x="515.193359"/>
     <use xlink:href="#DejaVuSans-20" x="548.884766"/>
     <use xlink:href="#DejaVuSans-31" x="580.671875"/>
     <use xlink:href="#DejaVuSans-2e" x="644.294922"/>
     <use xlink:href="#DejaVuSans-2e" x="676.082031"/>
     <use xlink:href="#DejaVuSans-2d" x="707.869141"/>
     <use xlink:href="#DejaVuSans-31" x="743.953125"/>
     <use xlink:href="#DejaVuSans-2e" x="807.576172"/>
     <use xlink:href="#DejaVuSans-30" x="839.363281"/>
     <use xlink:href="#DejaVuSans-65" x="902.986328"/>
     <use xlink:href="#DejaVuSans-2d" x="964.509766"/>
     <use xlink:href="#DejaVuSans-34" x="1000.59375"/>
    </g>
    <!-- 10 instances -->
    <g transform="translate(60.632064 40.426264)scale(0.102 -0.102)">
     <use xlink:href="#DejaVuSans-31"/>
     <use xlink:href="#DejaVuSans-30" x="63.623047"/>
     <use xlink:href="#DejaVuSans-20" x="127.246094"/>
     <use xlink:href="#DejaVuSans-69" x="159.033203"/>
     <use xlink:href="#DejaVuSans-6e" x="186.816406"/>
     <use xlink:href="#DejaVuSans-73" x="250.195312"/>
     <use xlink:href="#DejaVuSans-74" x="302.294922"/>
     <use xlink:href="#DejaVuSans-61" x="341.503906"/>
     <use xlink:href="#DejaVuSans-6e" x="402.783203"/>
     <use xlink:href="#DejaVuSans-63" x="466.162109"/>
     <use xlink:href="#DejaVuSans-65" x="521.142578"/>
     <use xlink:href="#DejaVuSans-73" x="582.666016"/>
    </g>
   </g>
   <g id="text_18">
    <!-- v2.6, hv-hash=ff0e71e8cd978373 -->
    <g style="fill: #808080" transform="translate(123.707887 293.943992)scale(0.1 -0.1)">
     <defs>
      <path id="DejaVuSans-68" d="M 3513 2113 
L 3513 0 
L 2938 0 
L 2938 2094 
Q 2938 2591 2744 2837 
Q 2550 3084 2163 3084 
Q 1697 3084 1428 2787 
Q 1159 2491 1159 1978 
L 1159 0 
L 581 0 
L 581 4863 
L 1159 4863 
L 1159 2956 
Q 1366 3272 1645 3428 
Q 1925 3584 2291 3584 
Q 2894 3584 3203 3211 
Q 3513 2838 3513 2113 
z
" transform="scale(0.015625)"/>
      <path id="DejaVuSans-3d" d="M 678 2906 
L 4684 2906 
L 4684 2381 
L 678 2381 
L 678 2906 
z
M 678 1631 
L 4684 1631 
L 4684 1100 
L 678 1100 
L 678 1631 
z
" transform="scale(0.015625)"/>
      <path id="DejaVuSans-37" d="M 525 4666 
L 3525 4666 
L 3525 4397 
L 1831 0 
L 1172 0 
L 2766 4134 
L 525 4134 
L 525 4666 
z
" transform="scale(0.015625)"/>
      <path id="DejaVuSans-39" d="M 703 97 
L 703 672 
Q 941 559 1184 500 
Q 1428 441 1663 441 
Q 2288 441 2617 861 
Q 2947 1281 2994 2138 
Q 2813 1869 2534 1725 
Q 2256 1581 1919 1581 
Q 1219 1581 811 2004 
Q 403 2428 403 3163 
Q 403 3881 828 4315 
Q 1253 4750 1959 4750 
Q 2769 4750 3195 4129 
Q 3622 3509 3622 2328 
Q 3622 1225 3098 567 
Q 2575 -91 1691 -91 
Q 1453 -91 1209 -44 
Q 966 3 703 97 
z
M 1959 2075 
Q 2384 2075 2632 2365 
Q 2881 2656 2881 3163 
Q 2881 3666 2632 3958 
Q 2384 4250 1959 4250 
Q 1534 4250 1286 3958 
Q 1038 3666 1038 3163 
Q 1038 2656 1286 2365 
Q 1534 2075 1959 2075 
z
" transform="scale(0.015625)"/>
     </defs>
     <use xlink:href="#DejaVuSans-76"/>
     <use xlink:href="#DejaVuSans-32" x="59.179688"/>
     <use xlink:href="#DejaVuSans-2e" x="122.802734"/>
     <use xlink:href="#DejaVuSans-36" x="154.589844"/>
     <use xlink:href="#DejaVuSans-2c" x="218.212891"/>
     <use xlink:href="#DejaVuSans-20" x="250"/>
     <use xlink:href="#DejaVuSans-68" x="281.787109"/>
     <use xlink:href="#DejaVuSans-76" x="345.166016"/>
     <use xlink:href="#DejaVuSans-2d" x="401.720703"/>
     <use xlink:href="#DejaVuSans-68" x="437.804688"/>
     <use xlink:href="#DejaVuSans-61" x="501.183594"/>
     <use xlink:href="#DejaVuSans-73" x="562.462891"/>
     <use xlink:href="#DejaVuSans-68" x="614.5625"/>
     <use xlink:href="#DejaVuSans-3d" x="677.941406"/>
     <use xlink:href="#DejaVuSans-66" x="761.730469"/>
     <use xlink:href="#DejaVuSans-66" x="796.935547"/>
     <use xlink:href="#DejaVuSans-30" x="832.140625"/>
     <use xlink:href="#DejaVuSans-65" x="895.763672"/>
     <use xlink:href="#DejaVuSans-37" x="957.287109"/>
     <use xlink:href="#DejaVuSans-31" x="1020.910156"/>
     <use xlink:href="#DejaVuSans-65" x="1084.533203"/>
     <use xlink:href="#DejaVuSans-38" x="1146.056641"/>
     <use xlink:href="#DejaVuSans-63" x="1209.679688"/>
     <use xlink:href="#DejaVuSans-64" x="1264.660156"/>
     <use xlink:href="#DejaVuSans-39" x="1328.136719"/>
     <use xlink:href="#DejaVuSans-37" x="1391.759766"/>
     <use xlink:href="#DejaVuSans-38" x="1455.382812"/>
     <use xlink:href="#DejaVuSans-33" x="1519.005859"/>
     <use xlink:href="#DejaVuSans-37" x="1582.628906"/>
     <use xlink:href="#DejaVuSans-33" x="1646.251953"/>
    </g>
   </g>
  </g>
 </g>
 <defs>
  <clipPath id="p92b01aa469">
   <rect x="57.6" y="6.912" width="303.2064" height="292.032"/>
  </clipPath>
 </defs>
</svg>
