<?xml version="1.0" encoding="utf-8" standalone="no"?>
<!DOCTYPE svg PUBLIC "-//W3C//DTD SVG 1.1//EN"
  "http://www.w3.org/Graphics/SVG/1.1/DTD/svg11.dtd">
<svg xmlns:xlink="http://www.w3.org/1999/xlink" width="460.8pt" height="345.6pt" viewBox="0 0 460.8 345.6" xmlns="http://www.w3.org/2000/svg" version="1.1">
 <metadata>
  <rdf:RDF xmlns:dc="http://purl.org/dc/elements/1.1/" xmlns:cc="http://creativecommons.org/ns#" xmlns:rdf="http://www.w3.org/1999/02/22-rdf-syntax-ns#">
   <cc:Work>
    <dc:type rdf:resource="http://purl.org/dc/dcmitype/StillImage"/>
    <dc:date>2022-06-19T21:03:00.116143</dc:date>
    <dc:format>image/svg+xml</dc:format>
    <dc:creator>
     <cc:Agent>
      <dc:title>Matplotlib v3.5.1, https://matplotlib.org/</dc:title>
     </cc:Agent>
    </dc:creator>
   </cc:Work>
  </rdf:RDF>
 </metadata>
 <defs>
  <style type="text/css">*{stroke-linejoin: round; stroke-linecap: butt}</style>
 </defs>
 <g id="figure_1">
  <g id="patch_1">
   <path d="M 0 345.6 
L 460.8 345.6 
L 460.8 0 
L 0 0 
z
" style="fill: #ffffff"/>
  </g>
  <g id="axes_1">
   <g id="patch_2">
    <path d="M 57.6 298.944 
L 360.8064 298.944 
L 360.8064 6.912 
L 57.6 6.912 
z
" style="fill: #ffffff"/>
   </g>
   <g id="line2d_1">
    <path d="M 27.323974 298.944 
L 27.323974 297.685241 
L 34.951403 297.685241 
L 34.951403 295.167724 
L 40.363149 295.167724 
L 40.363149 292.650207 
L 47.990577 292.650207 
L 47.990577 288.873931 
L 50.890391 288.873931 
L 50.890391 286.356414 
L 59.392932 286.356414 
L 59.392932 285.097655 
L 63.929565 285.097655 
L 63.929565 281.321379 
L 65.227428 281.321379 
L 65.227428 278.803862 
L 67.581941 278.803862 
L 67.581941 276.286345 
L 72.432107 276.286345 
L 72.432107 275.027586 
L 75.574654 275.027586 
L 75.574654 273.768828 
L 82.211771 273.768828 
L 82.211771 271.25131 
L 87.1081 271.25131 
L 87.1081 267.475034 
L 94.205591 267.475034 
L 94.205591 264.957517 
L 95.752617 264.957517 
L 95.752617 261.181241 
L 97.857967 261.181241 
L 97.857967 258.663724 
L 98.510456 258.663724 
L 98.510456 256.146207 
L 100.342215 256.146207 
L 100.342215 253.62869 
L 102.011329 253.62869 
L 102.011329 252.369931 
L 107.109915 252.369931 
L 107.109915 249.852414 
L 109.037698 249.852414 
L 109.037698 247.334897 
L 109.280431 247.334897 
L 109.280431 243.558621 
L 117.067958 243.558621 
L 117.067958 241.041103 
L 117.848632 241.041103 
L 117.848632 238.523586 
L 118.74459 238.523586 
L 118.74459 236.006069 
L 125.929373 236.006069 
L 125.929373 234.74731 
L 126.078082 234.74731 
L 126.078082 232.229793 
L 134.839175 232.229793 
L 134.87014 225.936 
L 141.458695 225.936 
L 141.458695 224.677241 
L 145.058426 224.677241 
L 145.112353 219.642207 
L 148.874221 219.642207 
L 148.874221 218.383448 
L 151.945411 218.383448 
L 151.945411 214.607172 
L 153.58223 214.607172 
L 153.58223 210.830897 
L 153.696309 210.830897 
L 153.696309 209.572138 
L 155.680579 209.572138 
L 155.690811 203.278345 
L 158.285673 203.278345 
L 158.285673 200.760828 
L 163.699647 200.760828 
L 163.699647 199.502069 
L 166.627125 199.502069 
L 166.627125 198.24331 
L 168.337202 198.24331 
L 168.337202 195.725793 
L 170.28051 195.725793 
L 170.28051 193.208276 
L 172.127316 193.208276 
L 172.135853 188.173241 
L 174.037874 188.173241 
L 174.037874 185.655724 
L 175.698143 185.655724 
L 175.698143 181.879448 
L 182.852352 181.879448 
L 182.852352 180.62069 
L 191.878235 180.62069 
L 191.878235 178.103172 
L 192.544641 178.103172 
L 192.544641 176.844414 
L 195.568893 176.844414 
L 195.568893 173.068138 
L 198.835434 173.068138 
L 198.835434 171.809379 
L 205.083275 171.809379 
L 205.083275 169.291862 
L 207.292126 169.291862 
L 207.292126 165.515586 
L 211.875641 165.515586 
L 211.875641 161.73931 
L 213.240545 161.73931 
L 213.240545 159.221793 
L 219.297926 159.221793 
L 219.297926 156.704276 
L 221.372633 156.704276 
L 221.372633 154.186759 
L 225.405612 154.186759 
L 225.405612 151.669241 
L 226.296991 151.669241 
L 226.296991 149.151724 
L 226.926746 149.151724 
L 226.926746 146.634207 
L 231.216712 146.634207 
L 231.216712 142.857931 
L 232.157283 142.857931 
L 232.157283 141.599172 
L 234.511228 141.599172 
L 234.511228 137.822897 
L 257.671253 137.822897 
L 257.671253 135.305379 
L 258.030618 135.305379 
L 258.030618 134.046621 
L 261.413715 134.046621 
L 261.413715 131.529103 
L 264.02679 131.529103 
L 264.02679 127.752828 
L 265.076604 127.752828 
L 265.076604 126.494069 
L 268.539587 126.494069 
L 268.539587 123.976552 
L 272.265728 123.976552 
L 272.265728 120.200276 
L 272.854433 120.200276 
L 272.854433 117.682759 
L 273.324984 117.682759 
L 273.324984 116.424 
L 274.818109 116.424 
L 274.818109 112.647724 
L 275.345103 112.647724 
L 275.345103 111.388966 
L 275.851473 111.388966 
L 275.851473 107.61269 
L 276.37425 107.61269 
L 276.37425 105.095172 
L 277.099313 105.095172 
L 277.099313 102.577655 
L 277.684501 102.577655 
L 277.684501 100.060138 
L 277.814262 100.060138 
L 277.814262 98.801379 
L 278.035631 98.801379 
L 278.035631 97.542621 
L 280.124822 97.542621 
L 280.124822 95.025103 
L 281.526462 95.025103 
L 281.526462 93.766345 
L 282.382911 93.766345 
L 282.382911 89.990069 
L 290.416664 89.990069 
L 290.416664 88.73131 
L 292.141846 88.73131 
L 292.141846 86.213793 
L 294.423961 86.213793 
L 294.423961 82.437517 
L 295.382187 82.437517 
L 295.382187 78.661241 
L 296.427611 78.661241 
L 296.427611 76.143724 
L 297.866213 76.143724 
L 297.882603 71.10869 
L 297.989714 71.10869 
L 298.063752 67.332414 
L 298.685592 67.332414 
L 298.685592 63.556138 
L 303.158602 63.556138 
L 303.158602 62.297379 
L 303.628383 62.297379 
L 303.628383 58.521103 
L 303.93068 58.521103 
L 303.93068 56.003586 
L 306.277802 56.003586 
L 306.277802 53.486069 
L 307.221683 53.486069 
L 307.221683 52.22731 
L 307.622932 52.22731 
L 307.622932 49.709793 
L 308.124782 49.709793 
L 308.124782 45.933517 
L 318.040313 45.933517 
L 318.040313 42.157241 
L 360.8064 42.157241 
L 360.8064 42.157241 
" style="fill: none; stroke: #f5deb3; stroke-width: 4; stroke-linecap: square"/>
   </g>
   <g id="line2d_2">
    <defs>
     <path id="m831f4f8507" d="M 0 7.778175 
L 7.778175 0 
L 0 -7.778175 
L -7.778175 0 
z
" style="stroke: #f5deb3; stroke-width: 1.5; stroke-linejoin: miter"/>
    </defs>
    <g>
     <use xlink:href="#m831f4f8507" x="109.280431" y="243.558621" style="fill: #f5deb3; stroke: #f5deb3; stroke-width: 1.5; stroke-linejoin: miter"/>
     <use xlink:href="#m831f4f8507" x="175.698143" y="185.655724" style="fill: #f5deb3; stroke: #f5deb3; stroke-width: 1.5; stroke-linejoin: miter"/>
     <use xlink:href="#m831f4f8507" x="272.265728" y="123.976552" style="fill: #f5deb3; stroke: #f5deb3; stroke-width: 1.5; stroke-linejoin: miter"/>
     <use xlink:href="#m831f4f8507" x="303.628383" y="62.297379" style="fill: #f5deb3; stroke: #f5deb3; stroke-width: 1.5; stroke-linejoin: miter"/>
     <use xlink:href="#m831f4f8507" x="318.040313" y="42.157241" style="fill: #f5deb3; stroke: #f5deb3; stroke-width: 1.5; stroke-linejoin: miter"/>
     <use xlink:href="#m831f4f8507" x="360.8064" y="42.157241" style="fill: #f5deb3; stroke: #f5deb3; stroke-width: 1.5; stroke-linejoin: miter"/>
    </g>
   </g>
   <g id="line2d_3">
    <path style="fill: none; stroke: #f5deb3; stroke-width: 4; stroke-linecap: square"/>
    <g/>
   </g>
   <g id="line2d_4">
    <path d="M 360.8064 42.157241 
L 380.514816 12.75264 
" style="fill: none; stroke: #f5deb3; stroke-width: 4; stroke-linecap: square"/>
    <g>
     <use xlink:href="#m831f4f8507" x="360.8064" y="42.157241" style="fill: #f5deb3; stroke: #f5deb3; stroke-width: 1.5; stroke-linejoin: miter"/>
     <use xlink:href="#m831f4f8507" x="380.514816" y="12.75264" style="fill: #f5deb3; stroke: #f5deb3; stroke-width: 1.5; stroke-linejoin: miter"/>
    </g>
   </g>
   <g id="matplotlib.axis_1">
    <g id="xtick_1">
     <g id="line2d_5">
      <path d="M 57.6 298.944 
L 57.6 6.912 
" clip-path="url(#p41b86951bb)" style="fill: none; stroke: #b0b0b0; stroke-width: 0.8; stroke-linecap: square"/>
     </g>
     <g id="line2d_6">
      <defs>
       <path id="m701ff3d425" d="M 0 0 
L 0 3.5 
" style="stroke: #000000; stroke-width: 0.8"/>
      </defs>
      <g>
       <use xlink:href="#m701ff3d425" x="57.6" y="298.944" style="stroke: #000000; stroke-width: 0.8"/>
      </g>
     </g>
     <g id="text_1">
      <!-- 0 -->
      <g transform="translate(52.191875 318.861344)scale(0.17 -0.17)">
       <defs>
        <path id="DejaVuSans-30" d="M 2034 4250 
Q 1547 4250 1301 3770 
Q 1056 3291 1056 2328 
Q 1056 1369 1301 889 
Q 1547 409 2034 409 
Q 2525 409 2770 889 
Q 3016 1369 3016 2328 
Q 3016 3291 2770 3770 
Q 2525 4250 2034 4250 
z
M 2034 4750 
Q 2819 4750 3233 4129 
Q 3647 3509 3647 2328 
Q 3647 1150 3233 529 
Q 2819 -91 2034 -91 
Q 1250 -91 836 529 
Q 422 1150 422 2328 
Q 422 3509 836 4129 
Q 1250 4750 2034 4750 
z
" transform="scale(0.015625)"/>
       </defs>
       <use xlink:href="#DejaVuSans-30"/>
      </g>
     </g>
    </g>
    <g id="xtick_2">
     <g id="line2d_7">
      <path d="M 144.2304 298.944 
L 144.2304 6.912 
" clip-path="url(#p41b86951bb)" style="fill: none; stroke: #b0b0b0; stroke-width: 0.8; stroke-linecap: square"/>
     </g>
     <g id="line2d_8">
      <g>
       <use xlink:href="#m701ff3d425" x="144.2304" y="298.944" style="stroke: #000000; stroke-width: 0.8"/>
      </g>
     </g>
     <g id="text_2">
      <!-- 2 -->
      <g transform="translate(138.822275 318.861344)scale(0.17 -0.17)">
       <defs>
        <path id="DejaVuSans-32" d="M 1228 531 
L 3431 531 
L 3431 0 
L 469 0 
L 469 531 
Q 828 903 1448 1529 
Q 2069 2156 2228 2338 
Q 2531 2678 2651 2914 
Q 2772 3150 2772 3378 
Q 2772 3750 2511 3984 
Q 2250 4219 1831 4219 
Q 1534 4219 1204 4116 
Q 875 4013 500 3803 
L 500 4441 
Q 881 4594 1212 4672 
Q 1544 4750 1819 4750 
Q 2544 4750 2975 4387 
Q 3406 4025 3406 3419 
Q 3406 3131 3298 2873 
Q 3191 2616 2906 2266 
Q 2828 2175 2409 1742 
Q 1991 1309 1228 531 
z
" transform="scale(0.015625)"/>
       </defs>
       <use xlink:href="#DejaVuSans-32"/>
      </g>
     </g>
    </g>
    <g id="xtick_3">
     <g id="line2d_9">
      <path d="M 230.8608 298.944 
L 230.8608 6.912 
" clip-path="url(#p41b86951bb)" style="fill: none; stroke: #b0b0b0; stroke-width: 0.8; stroke-linecap: square"/>
     </g>
     <g id="line2d_10">
      <g>
       <use xlink:href="#m701ff3d425" x="230.8608" y="298.944" style="stroke: #000000; stroke-width: 0.8"/>
      </g>
     </g>
     <g id="text_3">
      <!-- 4 -->
      <g transform="translate(225.452675 318.861344)scale(0.17 -0.17)">
       <defs>
        <path id="DejaVuSans-34" d="M 2419 4116 
L 825 1625 
L 2419 1625 
L 2419 4116 
z
M 2253 4666 
L 3047 4666 
L 3047 1625 
L 3713 1625 
L 3713 1100 
L 3047 1100 
L 3047 0 
L 2419 0 
L 2419 1100 
L 313 1100 
L 313 1709 
L 2253 4666 
z
" transform="scale(0.015625)"/>
       </defs>
       <use xlink:href="#DejaVuSans-34"/>
      </g>
     </g>
    </g>
    <g id="xtick_4">
     <g id="line2d_11">
      <path d="M 317.4912 298.944 
L 317.4912 6.912 
" clip-path="url(#p41b86951bb)" style="fill: none; stroke: #b0b0b0; stroke-width: 0.8; stroke-linecap: square"/>
     </g>
     <g id="line2d_12">
      <g>
       <use xlink:href="#m701ff3d425" x="317.4912" y="298.944" style="stroke: #000000; stroke-width: 0.8"/>
      </g>
     </g>
     <g id="text_4">
      <!-- 6 -->
      <g transform="translate(312.083075 318.861344)scale(0.17 -0.17)">
       <defs>
        <path id="DejaVuSans-36" d="M 2113 2584 
Q 1688 2584 1439 2293 
Q 1191 2003 1191 1497 
Q 1191 994 1439 701 
Q 1688 409 2113 409 
Q 2538 409 2786 701 
Q 3034 994 3034 1497 
Q 3034 2003 2786 2293 
Q 2538 2584 2113 2584 
z
M 3366 4563 
L 3366 3988 
Q 3128 4100 2886 4159 
Q 2644 4219 2406 4219 
Q 1781 4219 1451 3797 
Q 1122 3375 1075 2522 
Q 1259 2794 1537 2939 
Q 1816 3084 2150 3084 
Q 2853 3084 3261 2657 
Q 3669 2231 3669 1497 
Q 3669 778 3244 343 
Q 2819 -91 2113 -91 
Q 1303 -91 875 529 
Q 447 1150 447 2328 
Q 447 3434 972 4092 
Q 1497 4750 2381 4750 
Q 2619 4750 2861 4703 
Q 3103 4656 3366 4563 
z
" transform="scale(0.015625)"/>
       </defs>
       <use xlink:href="#DejaVuSans-36"/>
      </g>
     </g>
    </g>
    <g id="xtick_5">
     <g id="line2d_13">
      <path d="M 100.9152 298.944 
L 100.9152 6.912 
" clip-path="url(#p41b86951bb)" style="fill: none; stroke: #b0b0b0; stroke-width: 0.8; stroke-linecap: square"/>
     </g>
     <g id="line2d_14">
      <defs>
       <path id="me8a7cd6d78" d="M 0 0 
L 0 2 
" style="stroke: #000000; stroke-width: 0.6"/>
      </defs>
      <g>
       <use xlink:href="#me8a7cd6d78" x="100.9152" y="298.944" style="stroke: #000000; stroke-width: 0.6"/>
      </g>
     </g>
    </g>
    <g id="xtick_6">
     <g id="line2d_15">
      <path d="M 187.5456 298.944 
L 187.5456 6.912 
" clip-path="url(#p41b86951bb)" style="fill: none; stroke: #b0b0b0; stroke-width: 0.8; stroke-linecap: square"/>
     </g>
     <g id="line2d_16">
      <g>
       <use xlink:href="#me8a7cd6d78" x="187.5456" y="298.944" style="stroke: #000000; stroke-width: 0.6"/>
      </g>
     </g>
    </g>
    <g id="xtick_7">
     <g id="line2d_17">
      <path d="M 274.176 298.944 
L 274.176 6.912 
" clip-path="url(#p41b86951bb)" style="fill: none; stroke: #b0b0b0; stroke-width: 0.8; stroke-linecap: square"/>
     </g>
     <g id="line2d_18">
      <g>
       <use xlink:href="#me8a7cd6d78" x="274.176" y="298.944" style="stroke: #000000; stroke-width: 0.6"/>
      </g>
     </g>
    </g>
    <g id="xtick_8">
     <g id="line2d_19">
      <path d="M 360.8064 298.944 
L 360.8064 6.912 
" clip-path="url(#p41b86951bb)" style="fill: none; stroke: #b0b0b0; stroke-width: 0.8; stroke-linecap: square"/>
     </g>
     <g id="line2d_20">
      <g>
       <use xlink:href="#me8a7cd6d78" x="360.8064" y="298.944" style="stroke: #000000; stroke-width: 0.6"/>
      </g>
     </g>
    </g>
    <g id="text_5">
     <!-- log10(# f-evals / dimension) -->
     <g transform="translate(88.823278 339.314156)scale(0.17 -0.17)">
      <defs>
       <path id="DejaVuSans-6c" d="M 603 4863 
L 1178 4863 
L 1178 0 
L 603 0 
L 603 4863 
z
" transform="scale(0.015625)"/>
       <path id="DejaVuSans-6f" d="M 1959 3097 
Q 1497 3097 1228 2736 
Q 959 2375 959 1747 
Q 959 1119 1226 758 
Q 1494 397 1959 397 
Q 2419 397 2687 759 
Q 2956 1122 2956 1747 
Q 2956 2369 2687 2733 
Q 2419 3097 1959 3097 
z
M 1959 3584 
Q 2709 3584 3137 3096 
Q 3566 2609 3566 1747 
Q 3566 888 3137 398 
Q 2709 -91 1959 -91 
Q 1206 -91 779 398 
Q 353 888 353 1747 
Q 353 2609 779 3096 
Q 1206 3584 1959 3584 
z
" transform="scale(0.015625)"/>
       <path id="DejaVuSans-67" d="M 2906 1791 
Q 2906 2416 2648 2759 
Q 2391 3103 1925 3103 
Q 1463 3103 1205 2759 
Q 947 2416 947 1791 
Q 947 1169 1205 825 
Q 1463 481 1925 481 
Q 2391 481 2648 825 
Q 2906 1169 2906 1791 
z
M 3481 434 
Q 3481 -459 3084 -895 
Q 2688 -1331 1869 -1331 
Q 1566 -1331 1297 -1286 
Q 1028 -1241 775 -1147 
L 775 -588 
Q 1028 -725 1275 -790 
Q 1522 -856 1778 -856 
Q 2344 -856 2625 -561 
Q 2906 -266 2906 331 
L 2906 616 
Q 2728 306 2450 153 
Q 2172 0 1784 0 
Q 1141 0 747 490 
Q 353 981 353 1791 
Q 353 2603 747 3093 
Q 1141 3584 1784 3584 
Q 2172 3584 2450 3431 
Q 2728 3278 2906 2969 
L 2906 3500 
L 3481 3500 
L 3481 434 
z
" transform="scale(0.015625)"/>
       <path id="DejaVuSans-31" d="M 794 531 
L 1825 531 
L 1825 4091 
L 703 3866 
L 703 4441 
L 1819 4666 
L 2450 4666 
L 2450 531 
L 3481 531 
L 3481 0 
L 794 0 
L 794 531 
z
" transform="scale(0.015625)"/>
       <path id="DejaVuSans-28" d="M 1984 4856 
Q 1566 4138 1362 3434 
Q 1159 2731 1159 2009 
Q 1159 1288 1364 580 
Q 1569 -128 1984 -844 
L 1484 -844 
Q 1016 -109 783 600 
Q 550 1309 550 2009 
Q 550 2706 781 3412 
Q 1013 4119 1484 4856 
L 1984 4856 
z
" transform="scale(0.015625)"/>
       <path id="DejaVuSans-23" d="M 3272 2816 
L 2363 2816 
L 2100 1772 
L 3016 1772 
L 3272 2816 
z
M 2803 4594 
L 2478 3297 
L 3391 3297 
L 3719 4594 
L 4219 4594 
L 3897 3297 
L 4872 3297 
L 4872 2816 
L 3775 2816 
L 3519 1772 
L 4513 1772 
L 4513 1294 
L 3397 1294 
L 3072 0 
L 2572 0 
L 2894 1294 
L 1978 1294 
L 1656 0 
L 1153 0 
L 1478 1294 
L 494 1294 
L 494 1772 
L 1594 1772 
L 1856 2816 
L 850 2816 
L 850 3297 
L 1978 3297 
L 2297 4594 
L 2803 4594 
z
" transform="scale(0.015625)"/>
       <path id="DejaVuSans-20" transform="scale(0.015625)"/>
       <path id="DejaVuSans-66" d="M 2375 4863 
L 2375 4384 
L 1825 4384 
Q 1516 4384 1395 4259 
Q 1275 4134 1275 3809 
L 1275 3500 
L 2222 3500 
L 2222 3053 
L 1275 3053 
L 1275 0 
L 697 0 
L 697 3053 
L 147 3053 
L 147 3500 
L 697 3500 
L 697 3744 
Q 697 4328 969 4595 
Q 1241 4863 1831 4863 
L 2375 4863 
z
" transform="scale(0.015625)"/>
       <path id="DejaVuSans-2d" d="M 313 2009 
L 1997 2009 
L 1997 1497 
L 313 1497 
L 313 2009 
z
" transform="scale(0.015625)"/>
       <path id="DejaVuSans-65" d="M 3597 1894 
L 3597 1613 
L 953 1613 
Q 991 1019 1311 708 
Q 1631 397 2203 397 
Q 2534 397 2845 478 
Q 3156 559 3463 722 
L 3463 178 
Q 3153 47 2828 -22 
Q 2503 -91 2169 -91 
Q 1331 -91 842 396 
Q 353 884 353 1716 
Q 353 2575 817 3079 
Q 1281 3584 2069 3584 
Q 2775 3584 3186 3129 
Q 3597 2675 3597 1894 
z
M 3022 2063 
Q 3016 2534 2758 2815 
Q 2500 3097 2075 3097 
Q 1594 3097 1305 2825 
Q 1016 2553 972 2059 
L 3022 2063 
z
" transform="scale(0.015625)"/>
       <path id="DejaVuSans-76" d="M 191 3500 
L 800 3500 
L 1894 563 
L 2988 3500 
L 3597 3500 
L 2284 0 
L 1503 0 
L 191 3500 
z
" transform="scale(0.015625)"/>
       <path id="DejaVuSans-61" d="M 2194 1759 
Q 1497 1759 1228 1600 
Q 959 1441 959 1056 
Q 959 750 1161 570 
Q 1363 391 1709 391 
Q 2188 391 2477 730 
Q 2766 1069 2766 1631 
L 2766 1759 
L 2194 1759 
z
M 3341 1997 
L 3341 0 
L 2766 0 
L 2766 531 
Q 2569 213 2275 61 
Q 1981 -91 1556 -91 
Q 1019 -91 701 211 
Q 384 513 384 1019 
Q 384 1609 779 1909 
Q 1175 2209 1959 2209 
L 2766 2209 
L 2766 2266 
Q 2766 2663 2505 2880 
Q 2244 3097 1772 3097 
Q 1472 3097 1187 3025 
Q 903 2953 641 2809 
L 641 3341 
Q 956 3463 1253 3523 
Q 1550 3584 1831 3584 
Q 2591 3584 2966 3190 
Q 3341 2797 3341 1997 
z
" transform="scale(0.015625)"/>
       <path id="DejaVuSans-73" d="M 2834 3397 
L 2834 2853 
Q 2591 2978 2328 3040 
Q 2066 3103 1784 3103 
Q 1356 3103 1142 2972 
Q 928 2841 928 2578 
Q 928 2378 1081 2264 
Q 1234 2150 1697 2047 
L 1894 2003 
Q 2506 1872 2764 1633 
Q 3022 1394 3022 966 
Q 3022 478 2636 193 
Q 2250 -91 1575 -91 
Q 1294 -91 989 -36 
Q 684 19 347 128 
L 347 722 
Q 666 556 975 473 
Q 1284 391 1588 391 
Q 1994 391 2212 530 
Q 2431 669 2431 922 
Q 2431 1156 2273 1281 
Q 2116 1406 1581 1522 
L 1381 1569 
Q 847 1681 609 1914 
Q 372 2147 372 2553 
Q 372 3047 722 3315 
Q 1072 3584 1716 3584 
Q 2034 3584 2315 3537 
Q 2597 3491 2834 3397 
z
" transform="scale(0.015625)"/>
       <path id="DejaVuSans-2f" d="M 1625 4666 
L 2156 4666 
L 531 -594 
L 0 -594 
L 1625 4666 
z
" transform="scale(0.015625)"/>
       <path id="DejaVuSans-64" d="M 2906 2969 
L 2906 4863 
L 3481 4863 
L 3481 0 
L 2906 0 
L 2906 525 
Q 2725 213 2448 61 
Q 2172 -91 1784 -91 
Q 1150 -91 751 415 
Q 353 922 353 1747 
Q 353 2572 751 3078 
Q 1150 3584 1784 3584 
Q 2172 3584 2448 3432 
Q 2725 3281 2906 2969 
z
M 947 1747 
Q 947 1113 1208 752 
Q 1469 391 1925 391 
Q 2381 391 2643 752 
Q 2906 1113 2906 1747 
Q 2906 2381 2643 2742 
Q 2381 3103 1925 3103 
Q 1469 3103 1208 2742 
Q 947 2381 947 1747 
z
" transform="scale(0.015625)"/>
       <path id="DejaVuSans-69" d="M 603 3500 
L 1178 3500 
L 1178 0 
L 603 0 
L 603 3500 
z
M 603 4863 
L 1178 4863 
L 1178 4134 
L 603 4134 
L 603 4863 
z
" transform="scale(0.015625)"/>
       <path id="DejaVuSans-6d" d="M 3328 2828 
Q 3544 3216 3844 3400 
Q 4144 3584 4550 3584 
Q 5097 3584 5394 3201 
Q 5691 2819 5691 2113 
L 5691 0 
L 5113 0 
L 5113 2094 
Q 5113 2597 4934 2840 
Q 4756 3084 4391 3084 
Q 3944 3084 3684 2787 
Q 3425 2491 3425 1978 
L 3425 0 
L 2847 0 
L 2847 2094 
Q 2847 2600 2669 2842 
Q 2491 3084 2119 3084 
Q 1678 3084 1418 2786 
Q 1159 2488 1159 1978 
L 1159 0 
L 581 0 
L 581 3500 
L 1159 3500 
L 1159 2956 
Q 1356 3278 1631 3431 
Q 1906 3584 2284 3584 
Q 2666 3584 2933 3390 
Q 3200 3197 3328 2828 
z
" transform="scale(0.015625)"/>
       <path id="DejaVuSans-6e" d="M 3513 2113 
L 3513 0 
L 2938 0 
L 2938 2094 
Q 2938 2591 2744 2837 
Q 2550 3084 2163 3084 
Q 1697 3084 1428 2787 
Q 1159 2491 1159 1978 
L 1159 0 
L 581 0 
L 581 3500 
L 1159 3500 
L 1159 2956 
Q 1366 3272 1645 3428 
Q 1925 3584 2291 3584 
Q 2894 3584 3203 3211 
Q 3513 2838 3513 2113 
z
" transform="scale(0.015625)"/>
       <path id="DejaVuSans-29" d="M 513 4856 
L 1013 4856 
Q 1481 4119 1714 3412 
Q 1947 2706 1947 2009 
Q 1947 1309 1714 600 
Q 1481 -109 1013 -844 
L 513 -844 
Q 928 -128 1133 580 
Q 1338 1288 1338 2009 
Q 1338 2731 1133 3434 
Q 928 4138 513 4856 
z
" transform="scale(0.015625)"/>
      </defs>
      <use xlink:href="#DejaVuSans-6c"/>
      <use xlink:href="#DejaVuSans-6f" x="27.783203"/>
      <use xlink:href="#DejaVuSans-67" x="88.964844"/>
      <use xlink:href="#DejaVuSans-31" x="152.441406"/>
      <use xlink:href="#DejaVuSans-30" x="216.064453"/>
      <use xlink:href="#DejaVuSans-28" x="279.6875"/>
      <use xlink:href="#DejaVuSans-23" x="318.701172"/>
      <use xlink:href="#DejaVuSans-20" x="402.490234"/>
      <use xlink:href="#DejaVuSans-66" x="434.277344"/>
      <use xlink:href="#DejaVuSans-2d" x="463.982422"/>
      <use xlink:href="#DejaVuSans-65" x="500.066406"/>
      <use xlink:href="#DejaVuSans-76" x="561.589844"/>
      <use xlink:href="#DejaVuSans-61" x="620.769531"/>
      <use xlink:href="#DejaVuSans-6c" x="682.048828"/>
      <use xlink:href="#DejaVuSans-73" x="709.832031"/>
      <use xlink:href="#DejaVuSans-20" x="761.931641"/>
      <use xlink:href="#DejaVuSans-2f" x="793.71875"/>
      <use xlink:href="#DejaVuSans-20" x="827.410156"/>
      <use xlink:href="#DejaVuSans-64" x="859.197266"/>
      <use xlink:href="#DejaVuSans-69" x="922.673828"/>
      <use xlink:href="#DejaVuSans-6d" x="950.457031"/>
      <use xlink:href="#DejaVuSans-65" x="1047.869141"/>
      <use xlink:href="#DejaVuSans-6e" x="1109.392578"/>
      <use xlink:href="#DejaVuSans-73" x="1172.771484"/>
      <use xlink:href="#DejaVuSans-69" x="1224.871094"/>
      <use xlink:href="#DejaVuSans-6f" x="1252.654297"/>
      <use xlink:href="#DejaVuSans-6e" x="1313.835938"/>
      <use xlink:href="#DejaVuSans-29" x="1377.214844"/>
     </g>
    </g>
   </g>
   <g id="matplotlib.axis_2">
    <g id="ytick_1">
     <g id="line2d_21">
      <path d="M 57.6 298.944 
L 360.8064 298.944 
" clip-path="url(#p41b86951bb)" style="fill: none; stroke: #b0b0b0; stroke-width: 0.8; stroke-linecap: square"/>
     </g>
     <g id="line2d_22">
      <defs>
       <path id="m2fe8bbcfb8" d="M 0 0 
L -3.5 0 
" style="stroke: #000000; stroke-width: 0.8"/>
      </defs>
      <g>
       <use xlink:href="#m2fe8bbcfb8" x="57.6" y="298.944" style="stroke: #000000; stroke-width: 0.8"/>
      </g>
     </g>
     <g id="text_6">
      <!-- 0.0 -->
      <g transform="translate(25.155 305.02275)scale(0.16 -0.16)">
       <defs>
        <path id="DejaVuSans-2e" d="M 684 794 
L 1344 794 
L 1344 0 
L 684 0 
L 684 794 
z
" transform="scale(0.015625)"/>
       </defs>
       <use xlink:href="#DejaVuSans-30"/>
       <use xlink:href="#DejaVuSans-2e" x="63.623047"/>
       <use xlink:href="#DejaVuSans-30" x="95.410156"/>
      </g>
     </g>
    </g>
    <g id="ytick_2">
     <g id="line2d_23">
      <path d="M 57.6 240.5376 
L 360.8064 240.5376 
" clip-path="url(#p41b86951bb)" style="fill: none; stroke: #b0b0b0; stroke-width: 0.8; stroke-linecap: square"/>
     </g>
     <g id="line2d_24">
      <g>
       <use xlink:href="#m2fe8bbcfb8" x="57.6" y="240.5376" style="stroke: #000000; stroke-width: 0.8"/>
      </g>
     </g>
     <g id="text_7">
      <!-- 0.2 -->
      <g transform="translate(25.155 246.61635)scale(0.16 -0.16)">
       <use xlink:href="#DejaVuSans-30"/>
       <use xlink:href="#DejaVuSans-2e" x="63.623047"/>
       <use xlink:href="#DejaVuSans-32" x="95.410156"/>
      </g>
     </g>
    </g>
    <g id="ytick_3">
     <g id="line2d_25">
      <path d="M 57.6 182.1312 
L 360.8064 182.1312 
" clip-path="url(#p41b86951bb)" style="fill: none; stroke: #b0b0b0; stroke-width: 0.8; stroke-linecap: square"/>
     </g>
     <g id="line2d_26">
      <g>
       <use xlink:href="#m2fe8bbcfb8" x="57.6" y="182.1312" style="stroke: #000000; stroke-width: 0.8"/>
      </g>
     </g>
     <g id="text_8">
      <!-- 0.4 -->
      <g transform="translate(25.155 188.20995)scale(0.16 -0.16)">
       <use xlink:href="#DejaVuSans-30"/>
       <use xlink:href="#DejaVuSans-2e" x="63.623047"/>
       <use xlink:href="#DejaVuSans-34" x="95.410156"/>
      </g>
     </g>
    </g>
    <g id="ytick_4">
     <g id="line2d_27">
      <path d="M 57.6 123.7248 
L 360.8064 123.7248 
" clip-path="url(#p41b86951bb)" style="fill: none; stroke: #b0b0b0; stroke-width: 0.8; stroke-linecap: square"/>
     </g>
     <g id="line2d_28">
      <g>
       <use xlink:href="#m2fe8bbcfb8" x="57.6" y="123.7248" style="stroke: #000000; stroke-width: 0.8"/>
      </g>
     </g>
     <g id="text_9">
      <!-- 0.6 -->
      <g transform="translate(25.155 129.80355)scale(0.16 -0.16)">
       <use xlink:href="#DejaVuSans-30"/>
       <use xlink:href="#DejaVuSans-2e" x="63.623047"/>
       <use xlink:href="#DejaVuSans-36" x="95.410156"/>
      </g>
     </g>
    </g>
    <g id="ytick_5">
     <g id="line2d_29">
      <path d="M 57.6 65.3184 
L 360.8064 65.3184 
" clip-path="url(#p41b86951bb)" style="fill: none; stroke: #b0b0b0; stroke-width: 0.8; stroke-linecap: square"/>
     </g>
     <g id="line2d_30">
      <g>
       <use xlink:href="#m2fe8bbcfb8" x="57.6" y="65.3184" style="stroke: #000000; stroke-width: 0.8"/>
      </g>
     </g>
     <g id="text_10">
      <!-- 0.8 -->
      <g transform="translate(25.155 71.39715)scale(0.16 -0.16)">
       <defs>
        <path id="DejaVuSans-38" d="M 2034 2216 
Q 1584 2216 1326 1975 
Q 1069 1734 1069 1313 
Q 1069 891 1326 650 
Q 1584 409 2034 409 
Q 2484 409 2743 651 
Q 3003 894 3003 1313 
Q 3003 1734 2745 1975 
Q 2488 2216 2034 2216 
z
M 1403 2484 
Q 997 2584 770 2862 
Q 544 3141 544 3541 
Q 544 4100 942 4425 
Q 1341 4750 2034 4750 
Q 2731 4750 3128 4425 
Q 3525 4100 3525 3541 
Q 3525 3141 3298 2862 
Q 3072 2584 2669 2484 
Q 3125 2378 3379 2068 
Q 3634 1759 3634 1313 
Q 3634 634 3220 271 
Q 2806 -91 2034 -91 
Q 1263 -91 848 271 
Q 434 634 434 1313 
Q 434 1759 690 2068 
Q 947 2378 1403 2484 
z
M 1172 3481 
Q 1172 3119 1398 2916 
Q 1625 2713 2034 2713 
Q 2441 2713 2670 2916 
Q 2900 3119 2900 3481 
Q 2900 3844 2670 4047 
Q 2441 4250 2034 4250 
Q 1625 4250 1398 4047 
Q 1172 3844 1172 3481 
z
" transform="scale(0.015625)"/>
       </defs>
       <use xlink:href="#DejaVuSans-30"/>
       <use xlink:href="#DejaVuSans-2e" x="63.623047"/>
       <use xlink:href="#DejaVuSans-38" x="95.410156"/>
      </g>
     </g>
    </g>
    <g id="ytick_6">
     <g id="line2d_31">
      <path d="M 57.6 6.912 
L 360.8064 6.912 
" clip-path="url(#p41b86951bb)" style="fill: none; stroke: #b0b0b0; stroke-width: 0.8; stroke-linecap: square"/>
     </g>
     <g id="line2d_32">
      <g>
       <use xlink:href="#m2fe8bbcfb8" x="57.6" y="6.912" style="stroke: #000000; stroke-width: 0.8"/>
      </g>
     </g>
     <g id="text_11">
      <!-- 1.0 -->
      <g transform="translate(25.155 12.99075)scale(0.16 -0.16)">
       <use xlink:href="#DejaVuSans-31"/>
       <use xlink:href="#DejaVuSans-2e" x="63.623047"/>
       <use xlink:href="#DejaVuSans-30" x="95.410156"/>
      </g>
     </g>
    </g>
    <g id="text_12">
     <!-- Fraction of function,target pairs -->
     <g transform="translate(17.619531 287.313)rotate(-90)scale(0.17 -0.17)">
      <defs>
       <path id="DejaVuSans-46" d="M 628 4666 
L 3309 4666 
L 3309 4134 
L 1259 4134 
L 1259 2759 
L 3109 2759 
L 3109 2228 
L 1259 2228 
L 1259 0 
L 628 0 
L 628 4666 
z
" transform="scale(0.015625)"/>
       <path id="DejaVuSans-72" d="M 2631 2963 
Q 2534 3019 2420 3045 
Q 2306 3072 2169 3072 
Q 1681 3072 1420 2755 
Q 1159 2438 1159 1844 
L 1159 0 
L 581 0 
L 581 3500 
L 1159 3500 
L 1159 2956 
Q 1341 3275 1631 3429 
Q 1922 3584 2338 3584 
Q 2397 3584 2469 3576 
Q 2541 3569 2628 3553 
L 2631 2963 
z
" transform="scale(0.015625)"/>
       <path id="DejaVuSans-63" d="M 3122 3366 
L 3122 2828 
Q 2878 2963 2633 3030 
Q 2388 3097 2138 3097 
Q 1578 3097 1268 2742 
Q 959 2388 959 1747 
Q 959 1106 1268 751 
Q 1578 397 2138 397 
Q 2388 397 2633 464 
Q 2878 531 3122 666 
L 3122 134 
Q 2881 22 2623 -34 
Q 2366 -91 2075 -91 
Q 1284 -91 818 406 
Q 353 903 353 1747 
Q 353 2603 823 3093 
Q 1294 3584 2113 3584 
Q 2378 3584 2631 3529 
Q 2884 3475 3122 3366 
z
" transform="scale(0.015625)"/>
       <path id="DejaVuSans-74" d="M 1172 4494 
L 1172 3500 
L 2356 3500 
L 2356 3053 
L 1172 3053 
L 1172 1153 
Q 1172 725 1289 603 
Q 1406 481 1766 481 
L 2356 481 
L 2356 0 
L 1766 0 
Q 1100 0 847 248 
Q 594 497 594 1153 
L 594 3053 
L 172 3053 
L 172 3500 
L 594 3500 
L 594 4494 
L 1172 4494 
z
" transform="scale(0.015625)"/>
       <path id="DejaVuSans-75" d="M 544 1381 
L 544 3500 
L 1119 3500 
L 1119 1403 
Q 1119 906 1312 657 
Q 1506 409 1894 409 
Q 2359 409 2629 706 
Q 2900 1003 2900 1516 
L 2900 3500 
L 3475 3500 
L 3475 0 
L 2900 0 
L 2900 538 
Q 2691 219 2414 64 
Q 2138 -91 1772 -91 
Q 1169 -91 856 284 
Q 544 659 544 1381 
z
M 1991 3584 
L 1991 3584 
z
" transform="scale(0.015625)"/>
       <path id="DejaVuSans-2c" d="M 750 794 
L 1409 794 
L 1409 256 
L 897 -744 
L 494 -744 
L 750 256 
L 750 794 
z
" transform="scale(0.015625)"/>
       <path id="DejaVuSans-70" d="M 1159 525 
L 1159 -1331 
L 581 -1331 
L 581 3500 
L 1159 3500 
L 1159 2969 
Q 1341 3281 1617 3432 
Q 1894 3584 2278 3584 
Q 2916 3584 3314 3078 
Q 3713 2572 3713 1747 
Q 3713 922 3314 415 
Q 2916 -91 2278 -91 
Q 1894 -91 1617 61 
Q 1341 213 1159 525 
z
M 3116 1747 
Q 3116 2381 2855 2742 
Q 2594 3103 2138 3103 
Q 1681 3103 1420 2742 
Q 1159 2381 1159 1747 
Q 1159 1113 1420 752 
Q 1681 391 2138 391 
Q 2594 391 2855 752 
Q 3116 1113 3116 1747 
z
" transform="scale(0.015625)"/>
      </defs>
      <use xlink:href="#DejaVuSans-46"/>
      <use xlink:href="#DejaVuSans-72" x="50.269531"/>
      <use xlink:href="#DejaVuSans-61" x="91.382812"/>
      <use xlink:href="#DejaVuSans-63" x="152.662109"/>
      <use xlink:href="#DejaVuSans-74" x="207.642578"/>
      <use xlink:href="#DejaVuSans-69" x="246.851562"/>
      <use xlink:href="#DejaVuSans-6f" x="274.634766"/>
      <use xlink:href="#DejaVuSans-6e" x="335.816406"/>
      <use xlink:href="#DejaVuSans-20" x="399.195312"/>
      <use xlink:href="#DejaVuSans-6f" x="430.982422"/>
      <use xlink:href="#DejaVuSans-66" x="492.164062"/>
      <use xlink:href="#DejaVuSans-20" x="527.369141"/>
      <use xlink:href="#DejaVuSans-66" x="559.15625"/>
      <use xlink:href="#DejaVuSans-75" x="594.361328"/>
      <use xlink:href="#DejaVuSans-6e" x="657.740234"/>
      <use xlink:href="#DejaVuSans-63" x="721.119141"/>
      <use xlink:href="#DejaVuSans-74" x="776.099609"/>
      <use xlink:href="#DejaVuSans-69" x="815.308594"/>
      <use xlink:href="#DejaVuSans-6f" x="843.091797"/>
      <use xlink:href="#DejaVuSans-6e" x="904.273438"/>
      <use xlink:href="#DejaVuSans-2c" x="967.652344"/>
      <use xlink:href="#DejaVuSans-74" x="999.439453"/>
      <use xlink:href="#DejaVuSans-61" x="1038.648438"/>
      <use xlink:href="#DejaVuSans-72" x="1099.927734"/>
      <use xlink:href="#DejaVuSans-67" x="1139.291016"/>
      <use xlink:href="#DejaVuSans-65" x="1202.767578"/>
      <use xlink:href="#DejaVuSans-74" x="1264.291016"/>
      <use xlink:href="#DejaVuSans-20" x="1303.5"/>
      <use xlink:href="#DejaVuSans-70" x="1335.287109"/>
      <use xlink:href="#DejaVuSans-61" x="1398.763672"/>
      <use xlink:href="#DejaVuSans-69" x="1460.042969"/>
      <use xlink:href="#DejaVuSans-72" x="1487.826172"/>
      <use xlink:href="#DejaVuSans-73" x="1528.939453"/>
     </g>
    </g>
   </g>
   <g id="line2d_33">
    <defs>
     <path id="md8073daad3" d="M 0 1.5 
C 0.397805 1.5 0.77937 1.341951 1.06066 1.06066 
C 1.341951 0.77937 1.5 0.397805 1.5 0 
C 1.5 -0.397805 1.341951 -0.77937 1.06066 -1.06066 
C 0.77937 -1.341951 0.397805 -1.5 0 -1.5 
C -0.397805 -1.5 -0.77937 -1.341951 -1.06066 -1.06066 
C -1.341951 -0.77937 -1.5 -0.397805 -1.5 0 
C -1.5 0.397805 -1.341951 0.77937 -1.06066 1.06066 
C -0.77937 1.341951 -0.397805 1.5 0 1.5 
z
" style="stroke: #f5deb3"/>
    </defs>
    <g>
     <use xlink:href="#md8073daad3" x="318.040313" y="42.157241" style="fill: #f5deb3; stroke: #f5deb3"/>
     <use xlink:href="#md8073daad3" x="318.040313" y="42.157241" style="fill: #f5deb3; stroke: #f5deb3"/>
    </g>
   </g>
   <g id="line2d_34">
    <defs>
     <path id="mf1bdb2ca83" d="M 0 1.5 
C 0.397805 1.5 0.77937 1.341951 1.06066 1.06066 
C 1.341951 0.77937 1.5 0.397805 1.5 0 
C 1.5 -0.397805 1.341951 -0.77937 1.06066 -1.06066 
C 0.77937 -1.341951 0.397805 -1.5 0 -1.5 
C -0.397805 -1.5 -0.77937 -1.341951 -1.06066 -1.06066 
C -1.341951 -0.77937 -1.5 -0.397805 -1.5 0 
C -1.5 0.397805 -1.341951 0.77937 -1.06066 1.06066 
C -0.77937 1.341951 -0.397805 1.5 0 1.5 
z
" style="stroke: #000080"/>
    </defs>
    <g>
     <use xlink:href="#mf1bdb2ca83" x="79.480672" y="279.18149" style="fill: #000080; stroke: #000080"/>
     <use xlink:href="#mf1bdb2ca83" x="79.480672" y="279.18149" style="fill: #000080; stroke: #000080"/>
    </g>
   </g>
   <g id="line2d_35">
    <path d="M 14.2848 298.944 
L 14.2848 288.748055 
L 27.323974 288.748055 
L 27.323974 288.622179 
L 34.951403 288.622179 
L 34.951403 288.118676 
L 44.560826 288.118676 
L 44.560826 287.866924 
L 47.990577 287.866924 
L 47.990577 287.363421 
L 50.890391 287.363421 
L 50.890391 287.111669 
L 55.618005 287.111669 
L 55.618005 286.859917 
L 57.6 286.859917 
L 57.6 286.734041 
L 59.392932 286.734041 
L 59.392932 286.356414 
L 61.029752 286.356414 
L 61.029752 285.727034 
L 62.535479 285.727034 
L 62.535479 285.601159 
L 65.227428 285.601159 
L 65.227428 285.097655 
L 66.441498 285.097655 
L 66.441498 284.971779 
L 67.581941 284.971779 
L 67.581941 284.594152 
L 69.674268 284.594152 
L 69.674268 284.3424 
L 70.639174 284.3424 
L 70.639174 283.587145 
L 72.432107 283.587145 
L 72.432107 283.209517 
L 73.268314 283.209517 
L 73.268314 282.580138 
L 74.068926 282.580138 
L 74.068926 282.328386 
L 74.836851 282.328386 
L 74.836851 282.076634 
L 75.574654 282.076634 
L 75.574654 281.950759 
L 76.284608 281.950759 
L 76.284608 281.699007 
L 77.628862 281.699007 
L 77.628862 281.573131 
L 79.480672 281.573131 
L 79.480672 279.18149 
L 360.8064 279.18149 
" style="fill: none; stroke: #000080; stroke-width: 1.5; stroke-linecap: square"/>
   </g>
   <g id="line2d_36">
    <defs>
     <path id="m60fa55babc" d="M 0 6 
C 1.591219 6 3.117479 5.367802 4.242641 4.242641 
C 5.367802 3.117479 6 1.591219 6 0 
C 6 -1.591219 5.367802 -3.117479 4.242641 -4.242641 
C 3.117479 -5.367802 1.591219 -6 0 -6 
C -1.591219 -6 -3.117479 -5.367802 -4.242641 -4.242641 
C -5.367802 -3.117479 -6 -1.591219 -6 0 
C -6 1.591219 -5.367802 3.117479 -4.242641 4.242641 
C -3.117479 5.367802 -1.591219 6 0 6 
z
" style="stroke: #000080; stroke-width: 1.5"/>
    </defs>
    <g>
     <use xlink:href="#m60fa55babc" x="61.029752" y="286.356414" style="fill-opacity: 0; stroke: #000080; stroke-width: 1.5"/>
     <use xlink:href="#m60fa55babc" x="79.480672" y="281.573131" style="fill-opacity: 0; stroke: #000080; stroke-width: 1.5"/>
     <use xlink:href="#m60fa55babc" x="79.480672" y="281.573131" style="fill-opacity: 0; stroke: #000080; stroke-width: 1.5"/>
     <use xlink:href="#m60fa55babc" x="79.480672" y="279.18149" style="fill-opacity: 0; stroke: #000080; stroke-width: 1.5"/>
     <use xlink:href="#m60fa55babc" x="79.480672" y="279.18149" style="fill-opacity: 0; stroke: #000080; stroke-width: 1.5"/>
     <use xlink:href="#m60fa55babc" x="360.8064" y="279.18149" style="fill-opacity: 0; stroke: #000080; stroke-width: 1.5"/>
    </g>
   </g>
   <g id="line2d_37">
    <path style="fill: none; stroke: #000080; stroke-width: 1.5; stroke-linecap: square"/>
    <g/>
   </g>
   <g id="line2d_38">
    <path d="M 79.480672 279.18149 
" clip-path="url(#p41b86951bb)" style="fill: none; stroke: #000080; stroke-width: 1.5; stroke-linecap: square"/>
    <defs>
     <path id="m810c7a4097" d="M -12 12 
L 12 -12 
M -12 -12 
L 12 12 
" style="stroke: #000080"/>
    </defs>
    <g clip-path="url(#p41b86951bb)">
     <use xlink:href="#m810c7a4097" x="79.480672" y="279.18149" style="fill: #000080; stroke: #000080"/>
    </g>
   </g>
   <g id="line2d_39">
    <defs>
     <path id="md0da5ad045" d="M 0 1.5 
C 0.397805 1.5 0.77937 1.341951 1.06066 1.06066 
C 1.341951 0.77937 1.5 0.397805 1.5 0 
C 1.5 -0.397805 1.341951 -0.77937 1.06066 -1.06066 
C 0.77937 -1.341951 0.397805 -1.5 0 -1.5 
C -0.397805 -1.5 -0.77937 -1.341951 -1.06066 -1.06066 
C -1.341951 -0.77937 -1.5 -0.397805 -1.5 0 
C -1.5 0.397805 -1.341951 0.77937 -1.06066 1.06066 
C -0.77937 1.341951 -0.397805 1.5 0 1.5 
z
" style="stroke: #ff00ff"/>
    </defs>
    <g>
     <use xlink:href="#md0da5ad045" x="272.084581" y="154.312634" style="fill: #ff00ff; stroke: #ff00ff"/>
     <use xlink:href="#md0da5ad045" x="272.084581" y="154.312634" style="fill: #ff00ff; stroke: #ff00ff"/>
    </g>
   </g>
   <g id="line2d_40">
    <path d="M 14.2848 298.944 
L 14.2848 288.748055 
L 44.560826 288.748055 
L 44.560826 288.622179 
L 53.402323 288.622179 
L 53.402323 288.496303 
L 61.029752 288.496303 
L 61.029752 288.370428 
L 65.227428 288.370428 
L 65.227428 288.244552 
L 67.581941 288.244552 
L 67.581941 288.118676 
L 69.674268 288.118676 
L 69.674268 287.9928 
L 72.432107 287.9928 
L 72.432107 287.866924 
L 79.480672 287.866924 
L 79.480672 287.741048 
L 80.621116 287.741048 
L 80.621116 287.615172 
L 82.211771 287.615172 
L 82.211771 287.363421 
L 88.613828 287.363421 
L 88.613828 287.237545 
L 90.007914 287.237545 
L 90.007914 287.111669 
L 91.616719 287.111669 
L 91.616719 286.985793 
L 92.811505 286.985793 
L 92.811505 286.859917 
L 94.735529 286.859917 
L 94.735529 286.734041 
L 95.752617 286.734041 
L 95.752617 286.608166 
L 96.717523 286.608166 
L 96.717523 286.48229 
L 96.95121 286.48229 
L 96.95121 286.356414 
L 100.147275 286.356414 
L 100.147275 286.230538 
L 100.342215 286.230538 
L 100.342215 286.104662 
L 101.287718 286.104662 
L 101.287718 285.978786 
L 104.961779 285.978786 
L 104.961779 285.85291 
L 105.112877 285.85291 
L 105.112877 285.727034 
L 105.559021 285.727034 
L 105.559021 285.601159 
L 105.705415 285.601159 
L 105.705415 285.475283 
L 106.699465 285.475283 
L 106.699465 285.349407 
L 106.974091 285.349407 
L 106.974091 285.097655 
L 108.416798 285.097655 
L 108.416798 284.971779 
L 109.520071 284.971779 
L 109.520071 284.720028 
L 110.335561 284.720028 
L 110.335561 284.594152 
L 110.562208 284.594152 
L 110.562208 284.468276 
L 110.674517 284.468276 
L 110.674517 284.3424 
L 111.54963 284.3424 
L 111.54963 284.090648 
L 112.076599 284.090648 
L 112.076599 283.964772 
L 112.385837 283.964772 
L 112.487797 283.713021 
L 112.589207 283.713021 
L 112.589207 283.587145 
L 113.186449 283.587145 
L 113.186449 283.461269 
L 114.510421 283.461269 
L 114.510421 283.209517 
L 114.961559 283.209517 
L 115.050503 282.957766 
L 116.746385 282.957766 
L 116.827295 282.706014 
L 117.617813 282.706014 
L 117.617813 282.580138 
L 117.772007 282.580138 
L 117.772007 282.454262 
L 118.227147 282.454262 
L 118.301945 282.076634 
L 118.376446 282.076634 
L 118.376446 281.573131 
L 118.671535 281.573131 
L 118.671535 281.321379 
L 120.748446 281.321379 
L 120.748446 281.195503 
L 120.944062 281.195503 
L 120.944062 281.069628 
L 121.137664 281.069628 
L 121.137664 280.943752 
L 121.455972 280.943752 
L 121.518993 280.692 
L 121.581803 280.692 
L 121.644403 280.314372 
L 121.830966 280.314372 
L 121.830966 279.810869 
L 122.19863 279.810869 
L 122.19863 279.684993 
L 122.319605 279.684993 
L 122.319605 279.559117 
L 122.618682 279.559117 
L 122.618682 279.307366 
L 123.431654 279.307366 
L 123.431654 279.18149 
L 123.713691 279.18149 
L 123.713691 278.929738 
L 124.427792 278.929738 
L 124.427792 278.803862 
L 124.588805 278.803862 
L 124.695386 278.426234 
L 125.322496 278.426234 
L 125.322496 278.300359 
L 126.565455 278.300359 
L 126.613505 278.048607 
L 127.776517 278.048607 
L 127.776517 277.922731 
L 128.178203 277.922731 
L 128.178203 277.796855 
L 131.600593 277.796855 
L 131.600593 277.670979 
L 132.287354 277.670979 
L 132.287354 277.545103 
L 132.428795 277.545103 
L 132.428795 277.293352 
L 132.777813 277.293352 
L 132.777813 277.167476 
L 134.839175 277.167476 
L 134.839175 277.0416 
L 135.449003 277.0416 
L 135.449003 276.789848 
L 135.835047 276.789848 
L 135.864417 276.412221 
L 137.0583 276.412221 
L 137.113304 276.034593 
L 137.331728 276.034593 
L 137.331728 275.908717 
L 137.707972 275.908717 
L 137.707972 275.782841 
L 138.36167 275.782841 
L 138.438609 275.405214 
L 138.566146 275.405214 
L 138.566146 275.279338 
L 139.386872 275.279338 
L 139.386872 275.153462 
L 139.604629 275.153462 
L 139.604629 275.027586 
L 139.77227 275.027586 
L 139.77227 274.90171 
L 139.93843 274.90171 
L 140.032723 274.146455 
L 140.173284 274.146455 
L 140.173284 274.020579 
L 140.747902 274.020579 
L 140.747902 273.642952 
L 140.883238 273.642952 
L 140.883238 273.517076 
L 141.415049 273.517076 
L 141.458695 272.761821 
L 141.804267 272.761821 
L 141.804267 272.635945 
L 142.01707 272.635945 
L 142.01707 272.510069 
L 142.290162 272.510069 
L 142.290162 272.384193 
L 142.661862 272.384193 
L 142.661862 272.258317 
L 143.225848 272.258317 
L 143.225848 272.132441 
L 143.442869 272.132441 
L 143.540694 271.88069 
L 144.022326 271.88069 
L 144.079302 271.377186 
L 144.28675 271.377186 
L 144.28675 271.25131 
L 144.398947 271.25131 
L 144.454795 270.999559 
L 144.529002 270.999559 
L 144.529002 270.873683 
L 144.768174 270.873683 
L 144.768174 270.747807 
L 144.895711 270.747807 
L 144.968202 270.496055 
L 145.112353 270.496055 
L 145.112353 269.866676 
L 145.255407 269.866676 
L 145.326529 269.363172 
L 145.379694 269.363172 
L 145.379694 269.237297 
L 145.608355 269.237297 
L 145.608355 269.111421 
L 145.79969 269.111421 
L 145.886021 268.607917 
L 146.023332 268.607917 
L 146.108646 268.104414 
L 146.244347 268.104414 
L 146.27812 267.60091 
L 146.412609 267.60091 
L 146.412609 267.349159 
L 146.562769 267.349159 
L 146.662213 266.971531 
L 146.810401 266.971531 
L 146.87589 266.593903 
L 147.1517 266.593903 
L 147.248088 266.216276 
L 147.296097 266.216276 
L 147.359919 265.838648 
L 147.423525 265.838648 
L 147.486917 265.586897 
L 147.550096 265.586897 
L 147.550096 265.335145 
L 147.785146 265.335145 
L 147.893838 264.705766 
L 148.216198 264.705766 
L 148.216198 264.454014 
L 148.44312 264.454014 
L 148.47317 264.202262 
L 148.57797 264.202262 
L 148.68219 263.447007 
L 148.741485 263.447007 
L 148.741485 263.321131 
L 148.874221 263.321131 
L 148.962194 262.817628 
L 148.991428 262.817628 
L 148.991428 262.691752 
L 149.31003 262.691752 
L 149.381693 262.062372 
L 149.524205 262.062372 
L 149.609197 261.558869 
L 149.637443 261.558869 
L 149.637443 261.432993 
L 150.207323 261.432993 
L 150.275654 260.92949 
L 150.330141 260.92949 
L 150.425115 260.677738 
L 150.62703 260.677738 
L 150.62703 260.30011 
L 150.971962 260.30011 
L 151.050671 259.796607 
L 151.116012 259.796607 
L 151.168122 259.293103 
L 151.284843 259.293103 
L 151.387991 258.663724 
L 151.400845 258.663724 
L 151.464982 257.908469 
L 151.731998 257.908469 
L 151.757231 257.530841 
L 151.857828 257.530841 
L 151.945411 256.901462 
L 152.106991 256.901462 
L 152.144083 256.64971 
L 152.352898 256.64971 
L 152.450367 256.272083 
L 152.486788 256.272083 
L 152.51103 255.768579 
L 152.631772 255.768579 
L 152.691854 255.516828 
L 152.870956 255.516828 
L 152.942122 255.1392 
L 152.989417 255.1392 
L 153.071898 254.635697 
L 153.130592 254.635697 
L 153.130592 254.509821 
L 153.398253 254.509821 
L 153.455939 254.006317 
L 153.547871 254.006317 
L 153.650761 253.754566 
L 154.101358 253.754566 
L 154.101358 253.62869 
L 154.256552 253.62869 
L 154.300658 253.251062 
L 154.486967 253.251062 
L 154.552285 252.873434 
L 154.725366 252.873434 
L 154.725366 252.621683 
L 154.875516 252.621683 
L 154.875516 252.495807 
L 155.172267 252.495807 
L 155.256201 251.614676 
L 155.402189 251.614676 
L 155.495444 251.237048 
L 155.547053 251.237048 
L 155.547053 251.111172 
L 155.721473 251.111172 
L 155.741887 250.733545 
L 155.884169 250.733545 
L 155.954908 250.104166 
L 156.175515 250.104166 
L 156.175515 249.97829 
L 156.403417 249.97829 
L 156.511445 249.223034 
L 156.521235 249.223034 
L 156.570108 248.845407 
L 156.657763 248.845407 
L 156.735336 248.467779 
L 156.774003 248.467779 
L 156.870325 248.216028 
L 156.918301 248.216028 
L 156.918301 247.964276 
L 157.032948 247.964276 
L 157.118477 246.831393 
L 157.156365 246.831393 
L 157.156365 246.579641 
L 157.278978 246.579641 
L 157.278978 246.453766 
L 157.447441 246.453766 
L 157.521831 245.824386 
L 157.651312 245.824386 
L 157.734081 245.572634 
L 157.798206 245.572634 
L 157.798206 245.320883 
L 158.178433 245.320883 
L 158.2053 244.817379 
L 158.356828 244.817379 
L 158.356828 244.691503 
L 158.551127 244.691503 
L 158.630038 244.439752 
L 158.682463 244.439752 
L 158.682463 244.313876 
L 158.864805 244.313876 
L 158.864805 244.188 
L 159.002557 244.188 
L 159.079601 242.803366 
L 159.173339 242.803366 
L 159.190332 242.299862 
L 159.308857 242.299862 
L 159.418251 241.796359 
L 159.42664 241.796359 
L 159.443406 240.663476 
L 159.734419 240.663476 
L 159.742668 240.285848 
L 159.955879 240.285848 
L 159.980326 240.034097 
L 160.085895 240.034097 
L 160.158636 239.02709 
L 160.206974 239.02709 
L 160.231096 238.39771 
L 160.415015 238.39771 
L 160.486497 237.516579 
L 160.707162 237.516579 
L 160.707162 237.264828 
L 160.832105 237.264828 
L 160.933013 236.635448 
L 160.956223 236.635448 
L 161.025681 236.257821 
L 161.23253 236.257821 
L 161.247762 235.880193 
L 161.444664 235.880193 
L 161.54984 235.37669 
L 161.602209 235.37669 
L 161.706511 234.873186 
L 161.78066 234.873186 
L 161.869254 233.614428 
L 161.950101 233.614428 
L 161.957434 233.362676 
L 162.154339 233.362676 
L 162.226747 233.110924 
L 162.284473 233.110924 
L 162.284473 232.985048 
L 162.435167 232.985048 
L 162.542072 232.481545 
L 162.704821 232.481545 
L 162.747046 232.103917 
L 162.852198 232.103917 
L 162.873158 231.72629 
L 163.184786 231.72629 
L 163.267023 231.348662 
L 163.348901 231.348662 
L 163.430425 230.467531 
L 163.538576 230.467531 
L 163.639407 230.089903 
L 163.699647 230.089903 
L 163.773012 229.208772 
L 163.905675 229.208772 
L 163.951887 228.579393 
L 164.050532 228.579393 
L 164.142137 227.572386 
L 164.324018 227.572386 
L 164.343401 227.068883 
L 164.516958 227.068883 
L 164.55531 226.817131 
L 164.688929 226.817131 
L 164.688929 226.565379 
L 164.972099 226.565379 
L 164.997064 225.936 
L 165.1028 225.936 
L 165.164721 225.054869 
L 165.257222 225.054869 
L 165.34927 224.677241 
L 165.37374 224.677241 
L 165.37374 224.551366 
L 165.507761 224.551366 
L 165.51383 224.173738 
L 165.658907 224.173738 
L 165.743021 223.79611 
L 165.957604 223.79611 
L 166.004959 223.418483 
L 166.081656 223.418483 
L 166.140442 222.914979 
L 166.251633 222.914979 
L 166.338952 222.411476 
L 166.448979 222.411476 
L 166.477826 221.026841 
L 166.575579 221.026841 
L 166.667119 220.271586 
L 166.695635 220.271586 
L 166.695635 220.019834 
L 166.820591 220.019834 
L 166.848875 219.390455 
L 166.933472 219.390455 
L 166.933472 219.264579 
L 167.051272 219.264579 
L 167.090376 218.886952 
L 167.173896 218.886952 
L 167.251516 218.257572 
L 167.334325 218.257572 
L 167.4058 217.502317 
L 167.537044 217.502317 
L 167.537044 217.376441 
L 167.651136 217.376441 
L 167.748381 216.621186 
L 167.76454 216.621186 
L 167.850487 216.117683 
L 167.936043 216.117683 
L 167.936043 215.991807 
L 168.05305 215.991807 
L 168.111282 215.236552 
L 168.200924 215.236552 
L 168.200924 215.110676 
L 168.321528 215.110676 
L 168.321528 214.9848 
L 168.534619 214.9848 
L 168.637696 214.481297 
L 168.668509 214.481297 
L 168.750432 213.851917 
L 168.842171 213.851917 
L 168.882801 213.47429 
L 168.989038 213.47429 
L 169.094679 212.970786 
L 169.129761 212.970786 
L 169.15478 212.593159 
L 169.413021 212.593159 
L 169.516314 212.215531 
L 169.545722 212.215531 
L 169.638546 211.082648 
L 169.682356 211.082648 
L 169.716361 210.453269 
L 169.856584 210.453269 
L 169.967056 210.201517 
L 169.981418 210.201517 
L 170.076884 209.320386 
L 170.100675 209.320386 
L 170.190808 208.565131 
L 170.416606 208.565131 
L 170.4353 208.187503 
L 170.736514 208.187503 
L 170.846523 207.558124 
L 171.005809 207.558124 
L 171.082693 206.676993 
L 171.150271 206.676993 
L 171.222088 206.047614 
L 171.338209 206.047614 
L 171.440338 205.669986 
L 171.488986 205.669986 
L 171.528696 205.166483 
L 171.76086 205.166483 
L 171.856394 204.411228 
L 172.011684 204.411228 
L 172.054594 204.0336 
L 172.14012 204.0336 
L 172.14012 203.907724 
L 172.254968 203.907724 
L 172.331145 203.026593 
L 172.373333 203.026593 
L 172.449034 202.397214 
L 172.53279 202.397214 
L 172.582865 201.390207 
L 172.666028 201.390207 
L 172.666028 201.138455 
L 172.802449 201.138455 
L 172.880548 200.3832 
L 172.929707 200.3832 
L 172.982818 200.131448 
L 173.076419 200.131448 
L 173.108866 199.879697 
L 173.217966 199.879697 
L 173.318423 199.250317 
L 173.362455 199.250317 
L 173.362455 199.124441 
L 173.489964 199.124441 
L 173.581081 197.865683 
L 173.72674 197.865683 
L 173.72674 197.739807 
L 173.863495 197.739807 
L 173.972187 196.984552 
L 173.979927 196.984552 
L 174.080256 196.355172 
L 174.099488 196.355172 
L 174.103333 196.103421 
L 174.336355 196.103421 
L 174.404568 195.22229 
L 174.551519 195.22229 
L 174.622697 194.718786 
L 174.723384 194.718786 
L 174.808731 194.467034 
L 174.838326 194.467034 
L 174.838326 194.215283 
L 174.967261 194.215283 
L 175.066125 193.963531 
L 175.265921 193.963531 
L 175.298414 193.711779 
L 175.417077 193.711779 
L 175.474342 193.334152 
L 175.552798 193.334152 
L 175.599004 192.453021 
L 175.768638 192.453021 
L 175.786221 192.201269 
L 175.898362 192.201269 
L 175.898362 192.075393 
L 176.137914 192.075393 
L 176.230828 191.697766 
L 176.302778 191.697766 
L 176.302778 191.57189 
L 176.428882 191.57189 
L 176.527132 190.94251 
L 176.547396 190.94251 
L 176.631594 190.313131 
L 176.671876 190.313131 
L 176.782208 189.557876 
L 176.798869 189.557876 
L 176.862045 188.928497 
L 176.94485 188.928497 
L 176.991062 188.676745 
L 177.164986 188.676745 
L 177.275719 188.173241 
L 177.472768 188.173241 
L 177.472768 188.047366 
L 177.718591 188.047366 
L 177.826122 187.417986 
L 178.02376 187.417986 
L 178.117149 186.410979 
L 178.37926 186.410979 
L 178.458711 185.7816 
L 178.495268 185.7816 
L 178.495268 185.655724 
L 178.613589 185.655724 
L 178.652865 185.403972 
L 178.80616 185.403972 
L 178.80616 185.278097 
L 178.993815 185.278097 
L 178.993815 185.152221 
L 179.117887 185.152221 
L 179.117887 185.026345 
L 179.357788 185.026345 
L 179.421635 184.648717 
L 179.502582 184.648717 
L 179.611885 183.767586 
L 179.717705 183.767586 
L 179.794551 183.515834 
L 179.834274 183.515834 
L 179.865426 183.138207 
L 179.972646 183.138207 
L 180.051262 182.508828 
L 180.263006 182.508828 
L 180.326619 182.005324 
L 180.483348 182.005324 
L 180.483348 181.753572 
L 180.728188 181.753572 
L 180.838678 181.501821 
L 180.886981 181.501821 
L 180.943179 180.998317 
L 181.073658 180.998317 
L 181.158383 180.62069 
L 181.261129 180.62069 
L 181.261129 180.494814 
L 181.444147 180.494814 
L 181.475344 179.739559 
L 181.684578 179.739559 
L 181.684578 179.487807 
L 181.929584 179.487807 
L 182.028213 178.858428 
L 182.04082 178.858428 
L 182.101219 178.103172 
L 182.268812 178.103172 
L 182.268812 177.977297 
L 182.385492 177.977297 
L 182.415167 177.725545 
L 182.518663 177.725545 
L 182.565296 177.347917 
L 182.646017 177.347917 
L 182.658217 177.096166 
L 183.149358 177.096166 
L 183.149358 176.844414 
L 183.42302 176.844414 
L 183.50015 176.466786 
L 183.630318 176.466786 
L 183.660407 175.963283 
L 183.782583 175.963283 
L 183.887983 175.585655 
L 183.97006 175.585655 
L 183.97006 175.333903 
L 184.110581 175.333903 
L 184.110581 175.208028 
L 184.252301 175.208028 
L 184.252301 174.956276 
L 184.397409 174.956276 
L 184.397409 174.8304 
L 184.767354 174.8304 
L 184.823963 174.075145 
L 184.938833 174.075145 
L 185.046562 173.571641 
L 185.07018 173.571641 
L 185.07018 173.445766 
L 185.509182 173.445766 
L 185.555243 173.194014 
L 185.655349 173.194014 
L 185.750786 172.942262 
L 185.767335 172.942262 
L 185.767335 172.69051 
L 185.95251 172.69051 
L 185.95251 172.438759 
L 186.239001 172.438759 
L 186.239001 172.312883 
L 186.38763 172.312883 
L 186.401629 172.061131 
L 187.105955 172.061131 
L 187.157876 171.809379 
L 187.29754 171.809379 
L 187.307069 171.557628 
L 187.984395 171.557628 
L 187.997255 171.305876 
L 188.263495 171.305876 
L 188.312321 170.802372 
L 188.388022 170.802372 
L 188.388022 170.550621 
L 189.005545 170.550621 
L 189.083713 170.298869 
L 189.140831 170.298869 
L 189.206389 170.047117 
L 189.496907 170.047117 
L 189.496907 169.795366 
L 189.851361 169.795366 
L 189.851361 169.66949 
L 190.173103 169.66949 
L 190.272631 169.291862 
L 190.96908 169.291862 
L 190.96908 169.165986 
L 191.45973 169.165986 
L 191.566371 168.284855 
L 192.29494 168.284855 
L 192.29494 168.158979 
L 193.49375 168.158979 
L 193.49375 168.033103 
L 194.159214 168.033103 
L 194.159214 167.907228 
L 194.449467 167.907228 
L 194.449467 167.781352 
L 195.360209 167.781352 
L 195.360209 167.655476 
L 195.613048 167.655476 
L 195.613048 167.5296 
L 196.207534 167.5296 
L 196.207534 167.277848 
L 196.506641 167.277848 
L 196.506641 167.151972 
L 198.28236 167.151972 
L 198.28236 167.026097 
L 198.782716 167.026097 
L 198.851943 166.774345 
L 200.178798 166.774345 
L 200.178798 166.522593 
L 200.717865 166.522593 
L 200.717865 166.270841 
L 200.94161 166.270841 
L 200.94161 166.144966 
L 202.420412 166.144966 
L 202.420412 165.893214 
L 202.639242 165.893214 
L 202.639242 165.767338 
L 203.357315 165.767338 
L 203.357315 165.641462 
L 204.430028 165.641462 
L 204.516465 165.38971 
L 204.940554 165.38971 
L 204.940554 165.263834 
L 205.846608 165.263834 
L 205.853007 165.012083 
L 206.178579 165.012083 
L 206.178579 164.760331 
L 206.867252 164.760331 
L 206.867252 164.634455 
L 207.052232 164.634455 
L 207.052232 164.508579 
L 207.54265 164.508579 
L 207.54265 164.382703 
L 208.311641 164.382703 
L 208.388826 164.005076 
L 209.022218 164.005076 
L 209.022218 163.8792 
L 210.162944 163.8792 
L 210.162944 163.627448 
L 210.911549 163.627448 
L 210.911549 163.501572 
L 211.951354 163.501572 
L 211.968822 163.249821 
L 216.952316 163.249821 
L 216.952316 163.123945 
L 217.712201 163.123945 
L 217.712201 162.998069 
L 218.765583 162.998069 
L 218.765583 162.872193 
L 218.925561 162.872193 
L 218.925561 162.746317 
L 219.105638 162.746317 
L 219.105638 162.494566 
L 220.014887 162.494566 
L 220.014887 162.242814 
L 220.154991 162.242814 
L 220.154991 162.116938 
L 220.554839 162.116938 
L 220.554839 161.991062 
L 222.603965 161.991062 
L 222.603965 161.865186 
L 224.643991 161.865186 
L 224.737739 161.361683 
L 224.981274 161.361683 
L 224.981274 161.235807 
L 225.946566 161.235807 
L 225.946566 161.109931 
L 226.19626 161.109931 
L 226.19626 160.984055 
L 226.876362 160.984055 
L 226.876362 160.732303 
L 228.566038 160.732303 
L 228.566038 160.606428 
L 230.240436 160.606428 
L 230.240436 160.480552 
L 230.562925 160.480552 
L 230.562925 160.2288 
L 231.236453 160.2288 
L 231.236453 160.102924 
L 233.839831 160.102924 
L 233.839831 159.977048 
L 234.884609 159.977048 
L 234.884609 159.851172 
L 235.244615 159.851172 
L 235.244615 159.599421 
L 236.273628 159.599421 
L 236.273628 159.473545 
L 236.500798 159.473545 
L 236.500798 159.221793 
L 237.800083 159.221793 
L 237.800083 158.970041 
L 239.279375 158.970041 
L 239.279375 158.844166 
L 241.242578 158.844166 
L 241.242578 158.592414 
L 244.426685 158.592414 
L 244.426685 158.340662 
L 246.405616 158.340662 
L 246.405616 158.214786 
L 246.594595 158.214786 
L 246.594595 158.08891 
L 247.236929 158.08891 
L 247.236929 157.837159 
L 247.528777 157.837159 
L 247.528777 157.711283 
L 248.656036 157.711283 
L 248.656036 157.459531 
L 250.021058 157.459531 
L 250.031924 157.081903 
L 251.492192 157.081903 
L 251.492192 156.956028 
L 252.741472 156.956028 
L 252.741472 156.830152 
L 252.951107 156.830152 
L 252.951107 156.5784 
L 256.34909 156.5784 
L 256.452943 156.326648 
L 257.326784 156.326648 
L 257.326784 156.200772 
L 258.564944 156.200772 
L 258.564944 156.074897 
L 259.479871 156.074897 
L 259.479871 155.823145 
L 260.377599 155.823145 
L 260.425837 155.571393 
L 260.69356 155.571393 
L 260.69356 155.445517 
L 262.444298 155.445517 
L 262.444298 155.193766 
L 263.243436 155.193766 
L 263.243436 155.06789 
L 264.682537 155.06789 
L 264.682537 154.816138 
L 267.732643 154.816138 
L 267.732643 154.690262 
L 268.801514 154.690262 
L 268.801514 154.564386 
L 270.712124 154.564386 
L 270.712124 154.43851 
L 272.084581 154.43851 
L 272.084581 154.312634 
L 360.8064 154.312634 
L 360.8064 154.312634 
" style="fill: none; stroke: #ff00ff; stroke-width: 1.5; stroke-linecap: square"/>
   </g>
   <g id="line2d_41">
    <defs>
     <path id="md992f8b7a8" d="M 0 8.485281 
L 5.091169 0 
L 0 -8.485281 
L -5.091169 0 
z
" style="stroke: #ff00ff; stroke-width: 1.5; stroke-linejoin: miter"/>
    </defs>
    <g>
     <use xlink:href="#md992f8b7a8" x="79.480672" y="287.866924" style="fill-opacity: 0; stroke: #ff00ff; stroke-width: 1.5; stroke-linejoin: miter"/>
     <use xlink:href="#md992f8b7a8" x="154.541415" y="253.125186" style="fill-opacity: 0; stroke: #ff00ff; stroke-width: 1.5; stroke-linejoin: miter"/>
     <use xlink:href="#md992f8b7a8" x="209.022218" y="164.005076" style="fill-opacity: 0; stroke: #ff00ff; stroke-width: 1.5; stroke-linejoin: miter"/>
     <use xlink:href="#md992f8b7a8" x="272.084581" y="154.312634" style="fill-opacity: 0; stroke: #ff00ff; stroke-width: 1.5; stroke-linejoin: miter"/>
     <use xlink:href="#md992f8b7a8" x="272.084581" y="154.312634" style="fill-opacity: 0; stroke: #ff00ff; stroke-width: 1.5; stroke-linejoin: miter"/>
     <use xlink:href="#md992f8b7a8" x="360.8064" y="154.312634" style="fill-opacity: 0; stroke: #ff00ff; stroke-width: 1.5; stroke-linejoin: miter"/>
    </g>
   </g>
   <g id="line2d_42">
    <path style="fill: none; stroke: #ff00ff; stroke-width: 1.5; stroke-linecap: square"/>
    <g/>
   </g>
   <g id="line2d_43">
    <path d="M 274.176019 154.312634 
" clip-path="url(#p41b86951bb)" style="fill: none; stroke: #ff00ff; stroke-width: 1.5; stroke-linecap: square"/>
    <defs>
     <path id="m6d66b885ff" d="M -12 12 
L 12 -12 
M -12 -12 
L 12 12 
" style="stroke: #ff00ff"/>
    </defs>
    <g clip-path="url(#p41b86951bb)">
     <use xlink:href="#m6d66b885ff" x="274.176019" y="154.312634" style="fill: #ff00ff; stroke: #ff00ff"/>
    </g>
   </g>
   <g id="line2d_44">
    <defs>
     <path id="m7e18c15182" d="M 0 1.5 
C 0.397805 1.5 0.77937 1.341951 1.06066 1.06066 
C 1.341951 0.77937 1.5 0.397805 1.5 0 
C 1.5 -0.397805 1.341951 -0.77937 1.06066 -1.06066 
C 0.77937 -1.341951 0.397805 -1.5 0 -1.5 
C -0.397805 -1.5 -0.77937 -1.341951 -1.06066 -1.06066 
C -1.341951 -0.77937 -1.5 -0.397805 -1.5 0 
C -1.5 0.397805 -1.341951 0.77937 -1.06066 1.06066 
C -0.77937 1.341951 -0.397805 1.5 0 1.5 
z
" style="stroke: #6495ed"/>
    </defs>
    <g>
     <use xlink:href="#m7e18c15182" x="113.954374" y="246.32789" style="fill: #6495ed; stroke: #6495ed"/>
     <use xlink:href="#m7e18c15182" x="113.954374" y="246.32789" style="fill: #6495ed; stroke: #6495ed"/>
    </g>
   </g>
   <g id="line2d_45">
    <path d="M 14.2848 298.944 
L 14.2848 298.692248 
L 27.323974 298.692248 
L 27.323974 298.314621 
L 34.951403 298.314621 
L 34.951403 297.307614 
L 40.363149 297.307614 
L 40.363149 297.055862 
L 47.990577 297.055862 
L 47.990577 296.048855 
L 50.890391 296.048855 
L 50.890391 295.922979 
L 53.402323 295.922979 
L 53.402323 295.545352 
L 55.618005 295.545352 
L 55.618005 295.419476 
L 57.6 295.419476 
L 57.6 294.538345 
L 59.392932 294.538345 
L 59.392932 293.405462 
L 61.029752 293.405462 
L 61.029752 293.027834 
L 63.929565 293.027834 
L 63.929565 292.901959 
L 65.227428 292.901959 
L 65.227428 292.398455 
L 68.65718 292.398455 
L 68.65718 292.146703 
L 69.674268 292.146703 
L 69.674268 292.020828 
L 70.639174 292.020828 
L 70.639174 291.894952 
L 72.432107 291.894952 
L 72.432107 291.769076 
L 73.268314 291.769076 
L 73.268314 291.6432 
L 76.96874 291.6432 
L 76.96874 291.517324 
L 78.266603 291.517324 
L 78.266603 291.391448 
L 78.88343 291.391448 
L 78.88343 291.265572 
L 79.480672 291.265572 
L 79.480672 291.139697 
L 80.059535 291.139697 
L 80.059535 290.762069 
L 84.596168 290.762069 
L 84.596168 290.510317 
L 86.307488 290.510317 
L 86.307488 290.384441 
L 87.1081 290.384441 
L 87.1081 290.258566 
L 87.495981 290.258566 
L 87.495981 290.13269 
L 88.613828 290.13269 
L 88.613828 290.006814 
L 89.323782 290.006814 
L 89.323782 289.880938 
L 90.340871 289.880938 
L 90.340871 289.629186 
L 90.668036 289.629186 
L 90.668036 289.50331 
L 90.989609 289.50331 
L 90.989609 289.377434 
L 91.305777 289.377434 
L 91.305777 289.251559 
L 92.223596 289.251559 
L 92.223596 288.873931 
L 92.519847 288.873931 
L 92.519847 288.622179 
L 93.381595 288.622179 
L 93.381595 288.496303 
L 93.934916 288.496303 
L 93.934916 288.370428 
L 94.735529 288.370428 
L 94.735529 288.244552 
L 95.998523 288.244552 
L 95.998523 288.118676 
L 98.933205 288.118676 
L 98.933205 287.9928 
L 99.550033 287.9928 
L 99.550033 287.866924 
L 99.751228 287.866924 
L 99.751228 287.741048 
L 101.471247 287.741048 
L 101.471247 287.615172 
L 102.011329 287.615172 
L 102.011329 287.489297 
L 102.187964 287.489297 
L 102.187964 287.237545 
L 102.708132 287.237545 
L 102.708132 286.985793 
L 102.878374 286.985793 
L 102.878374 286.608166 
L 103.214303 286.608166 
L 103.214303 286.230538 
L 103.380045 286.230538 
L 103.380045 283.461269 
L 103.544339 283.461269 
L 103.544339 282.706014 
L 103.707211 282.706014 
L 103.707211 281.950759 
L 103.868684 281.950759 
L 103.868684 280.566124 
L 104.028784 280.566124 
L 104.028784 278.55211 
L 104.187532 278.55211 
L 104.187532 277.0416 
L 104.344952 277.0416 
L 104.344952 276.915724 
L 104.501065 276.915724 
L 104.501065 275.782841 
L 104.655893 275.782841 
L 104.655893 273.894703 
L 104.809458 273.894703 
L 104.809458 273.3912 
L 104.961779 273.3912 
L 104.961779 272.761821 
L 105.112877 272.761821 
L 105.112877 272.006566 
L 105.26277 272.006566 
L 105.26277 271.377186 
L 105.411479 271.377186 
L 105.411479 270.873683 
L 105.559021 270.873683 
L 105.559021 270.370179 
L 105.705415 270.370179 
L 105.705415 269.363172 
L 105.850679 269.363172 
L 105.850679 268.607917 
L 105.99483 268.607917 
L 105.99483 267.726786 
L 106.137884 267.726786 
L 106.137884 267.349159 
L 106.279859 267.349159 
L 106.279859 266.971531 
L 106.42077 266.971531 
L 106.42077 266.719779 
L 106.560633 266.719779 
L 106.560633 266.0904 
L 106.699465 266.0904 
L 106.699465 265.209269 
L 106.837279 265.209269 
L 106.837279 264.831641 
L 106.974091 264.831641 
L 106.974091 264.328138 
L 107.109915 264.328138 
L 107.109915 263.447007 
L 107.378656 263.447007 
L 107.378656 262.565876 
L 107.643612 262.565876 
L 107.643612 261.936497 
L 107.774703 261.936497 
L 107.774703 261.810621 
L 107.904887 261.810621 
L 107.904887 261.558869 
L 108.034177 261.558869 
L 108.034177 260.92949 
L 108.162584 260.92949 
L 108.162584 260.803614 
L 108.29012 260.803614 
L 108.29012 260.425986 
L 108.416798 260.425986 
L 108.416798 260.174234 
L 108.667622 260.174234 
L 108.667622 259.670731 
L 108.791791 259.670731 
L 108.791791 259.293103 
L 108.915146 259.293103 
L 108.915146 259.041352 
L 109.037698 259.041352 
L 109.037698 258.160221 
L 109.159456 258.160221 
L 109.159456 257.908469 
L 109.280431 257.908469 
L 109.280431 257.530841 
L 109.400633 257.530841 
L 109.400633 257.153214 
L 109.638757 257.153214 
L 109.638757 256.901462 
L 109.756698 256.901462 
L 109.756698 256.775586 
L 109.873904 256.775586 
L 109.873904 256.397959 
L 109.990385 256.397959 
L 109.990385 256.020331 
L 110.106149 256.020331 
L 110.106149 255.516828 
L 110.221204 255.516828 
L 110.221204 255.390952 
L 110.335561 255.390952 
L 110.335561 255.1392 
L 110.449226 255.1392 
L 110.449226 254.887448 
L 110.562208 254.887448 
L 110.562208 254.635697 
L 110.674517 254.635697 
L 110.674517 254.258069 
L 110.786158 254.258069 
L 110.897141 253.880441 
L 111.007473 253.880441 
L 111.117162 253.376938 
L 111.442442 253.376938 
L 111.54963 252.244055 
L 111.656212 252.244055 
L 111.762192 251.4888 
L 111.86758 251.4888 
L 111.97238 250.985297 
L 112.076599 250.985297 
L 112.180244 250.230041 
L 112.385837 250.230041 
L 112.487797 248.719531 
L 112.589207 248.719531 
L 112.589207 248.593655 
L 112.890198 248.593655 
L 112.989468 248.216028 
L 113.284172 248.216028 
L 113.284172 247.964276 
L 113.57433 247.964276 
L 113.670063 247.460772 
L 113.765312 247.460772 
L 113.860081 246.831393 
L 113.954374 246.831393 
L 113.954374 246.32789 
L 360.8064 246.32789 
L 360.8064 246.32789 
" style="fill: none; stroke: #6495ed; stroke-width: 1.5; stroke-linecap: square"/>
   </g>
   <g id="line2d_46">
    <defs>
     <path id="m56188506d2" d="M -0 6 
L 6 -6 
L -6 -6 
z
" style="stroke: #6495ed; stroke-width: 1.5; stroke-linejoin: miter"/>
    </defs>
    <g>
     <use xlink:href="#m56188506d2" x="113.954374" y="246.831393" style="fill-opacity: 0; stroke: #6495ed; stroke-width: 1.5; stroke-linejoin: miter"/>
     <use xlink:href="#m56188506d2" x="113.954374" y="246.831393" style="fill-opacity: 0; stroke: #6495ed; stroke-width: 1.5; stroke-linejoin: miter"/>
     <use xlink:href="#m56188506d2" x="113.954374" y="246.32789" style="fill-opacity: 0; stroke: #6495ed; stroke-width: 1.5; stroke-linejoin: miter"/>
     <use xlink:href="#m56188506d2" x="113.954374" y="246.32789" style="fill-opacity: 0; stroke: #6495ed; stroke-width: 1.5; stroke-linejoin: miter"/>
     <use xlink:href="#m56188506d2" x="113.954374" y="246.32789" style="fill-opacity: 0; stroke: #6495ed; stroke-width: 1.5; stroke-linejoin: miter"/>
     <use xlink:href="#m56188506d2" x="360.8064" y="246.32789" style="fill-opacity: 0; stroke: #6495ed; stroke-width: 1.5; stroke-linejoin: miter"/>
    </g>
   </g>
   <g id="line2d_47">
    <path style="fill: none; stroke: #6495ed; stroke-width: 1.5; stroke-linecap: square"/>
    <g/>
   </g>
   <g id="line2d_48">
    <path d="M 113.954374 246.32789 
" clip-path="url(#p41b86951bb)" style="fill: none; stroke: #6495ed; stroke-width: 1.5; stroke-linecap: square"/>
    <defs>
     <path id="mcf36e4c583" d="M -12 12 
L 12 -12 
M -12 -12 
L 12 12 
" style="stroke: #6495ed"/>
    </defs>
    <g clip-path="url(#p41b86951bb)">
     <use xlink:href="#mcf36e4c583" x="113.954374" y="246.32789" style="fill: #6495ed; stroke: #6495ed"/>
    </g>
   </g>
   <g id="line2d_49">
    <path d="M 360.8064 279.18149 
L 380.514816 293.10336 
" style="fill: none; stroke: #000080; stroke-width: 1.5; stroke-linecap: square"/>
    <g>
     <use xlink:href="#m60fa55babc" x="360.8064" y="279.18149" style="fill-opacity: 0; stroke: #000080; stroke-width: 1.5"/>
     <use xlink:href="#m60fa55babc" x="380.514816" y="293.10336" style="fill-opacity: 0; stroke: #000080; stroke-width: 1.5"/>
    </g>
   </g>
   <g id="line2d_50">
    <path d="M 360.8064 246.32789 
L 380.514816 199.65312 
" style="fill: none; stroke: #6495ed; stroke-width: 1.5; stroke-linecap: square"/>
    <g>
     <use xlink:href="#m56188506d2" x="360.8064" y="246.32789" style="fill-opacity: 0; stroke: #6495ed; stroke-width: 1.5; stroke-linejoin: miter"/>
     <use xlink:href="#m56188506d2" x="380.514816" y="199.65312" style="fill-opacity: 0; stroke: #6495ed; stroke-width: 1.5; stroke-linejoin: miter"/>
    </g>
   </g>
   <g id="line2d_51">
    <path d="M 360.8064 154.312634 
L 380.514816 106.20288 
" style="fill: none; stroke: #ff00ff; stroke-width: 1.5; stroke-linecap: square"/>
    <g>
     <use xlink:href="#md992f8b7a8" x="360.8064" y="154.312634" style="fill-opacity: 0; stroke: #ff00ff; stroke-width: 1.5; stroke-linejoin: miter"/>
     <use xlink:href="#md992f8b7a8" x="380.514816" y="106.20288" style="fill-opacity: 0; stroke: #ff00ff; stroke-width: 1.5; stroke-linejoin: miter"/>
    </g>
   </g>
   <g id="line2d_52">
    <path d="M 360.8064 298.944 
L 360.8064 6.912 
" style="fill: none; stroke: #000000; stroke-width: 1.5; stroke-linecap: square"/>
   </g>
   <g id="patch_3">
    <path d="M 57.6 298.944 
L 360.8064 298.944 
" style="fill: none; stroke: #000000; stroke-width: 0.8; stroke-linejoin: miter; stroke-linecap: square"/>
   </g>
   <g id="patch_4">
    <path d="M 57.6 6.912 
L 360.8064 6.912 
" style="fill: none; stroke: #000000; stroke-width: 0.8; stroke-linejoin: miter; stroke-linecap: square"/>
   </g>
   <g id="text_13">
    <!-- cma -->
    <g transform="translate(386.578944 296.966485)scale(0.14 -0.14)">
     <use xlink:href="#DejaVuSans-63"/>
     <use xlink:href="#DejaVuSans-6d" x="54.980469"/>
     <use xlink:href="#DejaVuSans-61" x="152.392578"/>
    </g>
   </g>
   <g id="text_14">
    <!-- parEgo -->
    <g transform="translate(386.578944 203.516245)scale(0.14 -0.14)">
     <defs>
      <path id="DejaVuSans-45" d="M 628 4666 
L 3578 4666 
L 3578 4134 
L 1259 4134 
L 1259 2753 
L 3481 2753 
L 3481 2222 
L 1259 2222 
L 1259 531 
L 3634 531 
L 3634 0 
L 628 0 
L 628 4666 
z
" transform="scale(0.015625)"/>
     </defs>
     <use xlink:href="#DejaVuSans-70"/>
     <use xlink:href="#DejaVuSans-61" x="63.476562"/>
     <use xlink:href="#DejaVuSans-72" x="124.755859"/>
     <use xlink:href="#DejaVuSans-45" x="165.869141"/>
     <use xlink:href="#DejaVuSans-67" x="229.052734"/>
     <use xlink:href="#DejaVuSans-6f" x="292.529297"/>
    </g>
   </g>
   <g id="text_15">
    <!-- external- -->
    <g transform="translate(386.578944 110.066005)scale(0.14 -0.14)">
     <defs>
      <path id="DejaVuSans-78" d="M 3513 3500 
L 2247 1797 
L 3578 0 
L 2900 0 
L 1881 1375 
L 863 0 
L 184 0 
L 1544 1831 
L 300 3500 
L 978 3500 
L 1906 2253 
L 2834 3500 
L 3513 3500 
z
" transform="scale(0.015625)"/>
     </defs>
     <use xlink:href="#DejaVuSans-65"/>
     <use xlink:href="#DejaVuSans-78" x="59.773438"/>
     <use xlink:href="#DejaVuSans-74" x="118.953125"/>
     <use xlink:href="#DejaVuSans-65" x="158.162109"/>
     <use xlink:href="#DejaVuSans-72" x="219.685547"/>
     <use xlink:href="#DejaVuSans-6e" x="259.048828"/>
     <use xlink:href="#DejaVuSans-61" x="322.427734"/>
     <use xlink:href="#DejaVuSans-6c" x="383.707031"/>
     <use xlink:href="#DejaVuSans-2d" x="411.490234"/>
    </g>
   </g>
   <g id="text_16">
    <!-- best 2016 -->
    <g transform="translate(386.578944 16.615765)scale(0.14 -0.14)">
     <defs>
      <path id="DejaVuSans-62" d="M 3116 1747 
Q 3116 2381 2855 2742 
Q 2594 3103 2138 3103 
Q 1681 3103 1420 2742 
Q 1159 2381 1159 1747 
Q 1159 1113 1420 752 
Q 1681 391 2138 391 
Q 2594 391 2855 752 
Q 3116 1113 3116 1747 
z
M 1159 2969 
Q 1341 3281 1617 3432 
Q 1894 3584 2278 3584 
Q 2916 3584 3314 3078 
Q 3713 2572 3713 1747 
Q 3713 922 3314 415 
Q 2916 -91 2278 -91 
Q 1894 -91 1617 61 
Q 1341 213 1159 525 
L 1159 0 
L 581 0 
L 581 4863 
L 1159 4863 
L 1159 2969 
z
" transform="scale(0.015625)"/>
     </defs>
     <use xlink:href="#DejaVuSans-62"/>
     <use xlink:href="#DejaVuSans-65" x="63.476562"/>
     <use xlink:href="#DejaVuSans-73" x="125"/>
     <use xlink:href="#DejaVuSans-74" x="177.099609"/>
     <use xlink:href="#DejaVuSans-20" x="216.308594"/>
     <use xlink:href="#DejaVuSans-32" x="248.095703"/>
     <use xlink:href="#DejaVuSans-30" x="311.71875"/>
     <use xlink:href="#DejaVuSans-31" x="375.341797"/>
     <use xlink:href="#DejaVuSans-36" x="438.964844"/>
    </g>
   </g>
   <g id="text_17">
    <!-- bbob-biobj f26, f27, f33, f34, 10-D -->
    <g transform="translate(60.632064 17.582726)scale(0.102 -0.102)">
     <defs>
      <path id="DejaVuSans-6a" d="M 603 3500 
L 1178 3500 
L 1178 -63 
Q 1178 -731 923 -1031 
Q 669 -1331 103 -1331 
L -116 -1331 
L -116 -844 
L 38 -844 
Q 366 -844 484 -692 
Q 603 -541 603 -63 
L 603 3500 
z
M 603 4863 
L 1178 4863 
L 1178 4134 
L 603 4134 
L 603 4863 
z
" transform="scale(0.015625)"/>
      <path id="DejaVuSans-37" d="M 525 4666 
L 3525 4666 
L 3525 4397 
L 1831 0 
L 1172 0 
L 2766 4134 
L 525 4134 
L 525 4666 
z
" transform="scale(0.015625)"/>
      <path id="DejaVuSans-33" d="M 2597 2516 
Q 3050 2419 3304 2112 
Q 3559 1806 3559 1356 
Q 3559 666 3084 287 
Q 2609 -91 1734 -91 
Q 1441 -91 1130 -33 
Q 819 25 488 141 
L 488 750 
Q 750 597 1062 519 
Q 1375 441 1716 441 
Q 2309 441 2620 675 
Q 2931 909 2931 1356 
Q 2931 1769 2642 2001 
Q 2353 2234 1838 2234 
L 1294 2234 
L 1294 2753 
L 1863 2753 
Q 2328 2753 2575 2939 
Q 2822 3125 2822 3475 
Q 2822 3834 2567 4026 
Q 2313 4219 1838 4219 
Q 1578 4219 1281 4162 
Q 984 4106 628 3988 
L 628 4550 
Q 988 4650 1302 4700 
Q 1616 4750 1894 4750 
Q 2613 4750 3031 4423 
Q 3450 4097 3450 3541 
Q 3450 3153 3228 2886 
Q 3006 2619 2597 2516 
z
" transform="scale(0.015625)"/>
      <path id="DejaVuSans-44" d="M 1259 4147 
L 1259 519 
L 2022 519 
Q 2988 519 3436 956 
Q 3884 1394 3884 2338 
Q 3884 3275 3436 3711 
Q 2988 4147 2022 4147 
L 1259 4147 
z
M 628 4666 
L 1925 4666 
Q 3281 4666 3915 4102 
Q 4550 3538 4550 2338 
Q 4550 1131 3912 565 
Q 3275 0 1925 0 
L 628 0 
L 628 4666 
z
" transform="scale(0.015625)"/>
     </defs>
     <use xlink:href="#DejaVuSans-62"/>
     <use xlink:href="#DejaVuSans-62" x="63.476562"/>
     <use xlink:href="#DejaVuSans-6f" x="126.953125"/>
     <use xlink:href="#DejaVuSans-62" x="188.134766"/>
     <use xlink:href="#DejaVuSans-2d" x="251.611328"/>
     <use xlink:href="#DejaVuSans-62" x="287.695312"/>
     <use xlink:href="#DejaVuSans-69" x="351.171875"/>
     <use xlink:href="#DejaVuSans-6f" x="378.955078"/>
     <use xlink:href="#DejaVuSans-62" x="440.136719"/>
     <use xlink:href="#DejaVuSans-6a" x="503.613281"/>
     <use xlink:href="#DejaVuSans-20" x="531.396484"/>
     <use xlink:href="#DejaVuSans-66" x="563.183594"/>
     <use xlink:href="#DejaVuSans-32" x="598.388672"/>
     <use xlink:href="#DejaVuSans-36" x="662.011719"/>
     <use xlink:href="#DejaVuSans-2c" x="725.634766"/>
     <use xlink:href="#DejaVuSans-20" x="757.421875"/>
     <use xlink:href="#DejaVuSans-66" x="789.208984"/>
     <use xlink:href="#DejaVuSans-32" x="824.414062"/>
     <use xlink:href="#DejaVuSans-37" x="888.037109"/>
     <use xlink:href="#DejaVuSans-2c" x="951.660156"/>
     <use xlink:href="#DejaVuSans-20" x="983.447266"/>
     <use xlink:href="#DejaVuSans-66" x="1015.234375"/>
     <use xlink:href="#DejaVuSans-33" x="1050.439453"/>
     <use xlink:href="#DejaVuSans-33" x="1114.0625"/>
     <use xlink:href="#DejaVuSans-2c" x="1177.685547"/>
     <use xlink:href="#DejaVuSans-20" x="1209.472656"/>
     <use xlink:href="#DejaVuSans-66" x="1241.259766"/>
     <use xlink:href="#DejaVuSans-33" x="1276.464844"/>
     <use xlink:href="#DejaVuSans-34" x="1340.087891"/>
     <use xlink:href="#DejaVuSans-2c" x="1403.710938"/>
     <use xlink:href="#DejaVuSans-20" x="1435.498047"/>
     <use xlink:href="#DejaVuSans-31" x="1467.285156"/>
     <use xlink:href="#DejaVuSans-30" x="1530.908203"/>
     <use xlink:href="#DejaVuSans-2d" x="1594.53125"/>
     <use xlink:href="#DejaVuSans-44" x="1630.615234"/>
    </g>
    <!-- 58 targets: 1..-1.0e-4 -->
    <g transform="translate(60.632064 29.004495)scale(0.102 -0.102)">
     <defs>
      <path id="DejaVuSans-35" d="M 691 4666 
L 3169 4666 
L 3169 4134 
L 1269 4134 
L 1269 2991 
Q 1406 3038 1543 3061 
Q 1681 3084 1819 3084 
Q 2600 3084 3056 2656 
Q 3513 2228 3513 1497 
Q 3513 744 3044 326 
Q 2575 -91 1722 -91 
Q 1428 -91 1123 -41 
Q 819 9 494 109 
L 494 744 
Q 775 591 1075 516 
Q 1375 441 1709 441 
Q 2250 441 2565 725 
Q 2881 1009 2881 1497 
Q 2881 1984 2565 2268 
Q 2250 2553 1709 2553 
Q 1456 2553 1204 2497 
Q 953 2441 691 2322 
L 691 4666 
z
" transform="scale(0.015625)"/>
      <path id="DejaVuSans-3a" d="M 750 794 
L 1409 794 
L 1409 0 
L 750 0 
L 750 794 
z
M 750 3309 
L 1409 3309 
L 1409 2516 
L 750 2516 
L 750 3309 
z
" transform="scale(0.015625)"/>
     </defs>
     <use xlink:href="#DejaVuSans-35"/>
     <use xlink:href="#DejaVuSans-38" x="63.623047"/>
     <use xlink:href="#DejaVuSans-20" x="127.246094"/>
     <use xlink:href="#DejaVuSans-74" x="159.033203"/>
     <use xlink:href="#DejaVuSans-61" x="198.242188"/>
     <use xlink:href="#DejaVuSans-72" x="259.521484"/>
     <use xlink:href="#DejaVuSans-67" x="298.884766"/>
     <use xlink:href="#DejaVuSans-65" x="362.361328"/>
     <use xlink:href="#DejaVuSans-74" x="423.884766"/>
     <use xlink:href="#DejaVuSans-73" x="463.09375"/>
     <use xlink:href="#DejaVuSans-3a" x="515.193359"/>
     <use xlink:href="#DejaVuSans-20" x="548.884766"/>
     <use xlink:href="#DejaVuSans-31" x="580.671875"/>
     <use xlink:href="#DejaVuSans-2e" x="644.294922"/>
     <use xlink:href="#DejaVuSans-2e" x="676.082031"/>
     <use xlink:href="#DejaVuSans-2d" x="707.869141"/>
     <use xlink:href="#DejaVuSans-31" x="743.953125"/>
     <use xlink:href="#DejaVuSans-2e" x="807.576172"/>
     <use xlink:href="#DejaVuSans-30" x="839.363281"/>
     <use xlink:href="#DejaVuSans-65" x="902.986328"/>
     <use xlink:href="#DejaVuSans-2d" x="964.509766"/>
     <use xlink:href="#DejaVuSans-34" x="1000.59375"/>
    </g>
    <!-- 10 instances -->
    <g transform="translate(60.632064 40.426264)scale(0.102 -0.102)">
     <use xlink:href="#DejaVuSans-31"/>
     <use xlink:href="#DejaVuSans-30" x="63.623047"/>
     <use xlink:href="#DejaVuSans-20" x="127.246094"/>
     <use xlink:href="#DejaVuSans-69" x="159.033203"/>
     <use xlink:href="#DejaVuSans-6e" x="186.816406"/>
     <use xlink:href="#DejaVuSans-73" x="250.195312"/>
     <use xlink:href="#DejaVuSans-74" x="302.294922"/>
     <use xlink:href="#DejaVuSans-61" x="341.503906"/>
     <use xlink:href="#DejaVuSans-6e" x="402.783203"/>
     <use xlink:href="#DejaVuSans-63" x="466.162109"/>
     <use xlink:href="#DejaVuSans-65" x="521.142578"/>
     <use xlink:href="#DejaVuSans-73" x="582.666016"/>
    </g>
   </g>
   <g id="text_18">
    <!-- v2.6, hv-hash=ff0e71e8cd978373 -->
    <g style="fill: #808080" transform="translate(123.707887 293.943992)scale(0.1 -0.1)">
     <defs>
      <path id="DejaVuSans-68" d="M 3513 2113 
L 3513 0 
L 2938 0 
L 2938 2094 
Q 2938 2591 2744 2837 
Q 2550 3084 2163 3084 
Q 1697 3084 1428 2787 
Q 1159 2491 1159 1978 
L 1159 0 
L 581 0 
L 581 4863 
L 1159 4863 
L 1159 2956 
Q 1366 3272 1645 3428 
Q 1925 3584 2291 3584 
Q 2894 3584 3203 3211 
Q 3513 2838 3513 2113 
z
" transform="scale(0.015625)"/>
      <path id="DejaVuSans-3d" d="M 678 2906 
L 4684 2906 
L 4684 2381 
L 678 2381 
L 678 2906 
z
M 678 1631 
L 4684 1631 
L 4684 1100 
L 678 1100 
L 678 1631 
z
" transform="scale(0.015625)"/>
      <path id="DejaVuSans-39" d="M 703 97 
L 703 672 
Q 941 559 1184 500 
Q 1428 441 1663 441 
Q 2288 441 2617 861 
Q 2947 1281 2994 2138 
Q 2813 1869 2534 1725 
Q 2256 1581 1919 1581 
Q 1219 1581 811 2004 
Q 403 2428 403 3163 
Q 403 3881 828 4315 
Q 1253 4750 1959 4750 
Q 2769 4750 3195 4129 
Q 3622 3509 3622 2328 
Q 3622 1225 3098 567 
Q 2575 -91 1691 -91 
Q 1453 -91 1209 -44 
Q 966 3 703 97 
z
M 1959 2075 
Q 2384 2075 2632 2365 
Q 2881 2656 2881 3163 
Q 2881 3666 2632 3958 
Q 2384 4250 1959 4250 
Q 1534 4250 1286 3958 
Q 1038 3666 1038 3163 
Q 1038 2656 1286 2365 
Q 1534 2075 1959 2075 
z
" transform="scale(0.015625)"/>
     </defs>
     <use xlink:href="#DejaVuSans-76"/>
     <use xlink:href="#DejaVuSans-32" x="59.179688"/>
     <use xlink:href="#DejaVuSans-2e" x="122.802734"/>
     <use xlink:href="#DejaVuSans-36" x="154.589844"/>
     <use xlink:href="#DejaVuSans-2c" x="218.212891"/>
     <use xlink:href="#DejaVuSans-20" x="250"/>
     <use xlink:href="#DejaVuSans-68" x="281.787109"/>
     <use xlink:href="#DejaVuSans-76" x="345.166016"/>
     <use xlink:href="#DejaVuSans-2d" x="401.720703"/>
     <use xlink:href="#DejaVuSans-68" x="437.804688"/>
     <use xlink:href="#DejaVuSans-61" x="501.183594"/>
     <use xlink:href="#DejaVuSans-73" x="562.462891"/>
     <use xlink:href="#DejaVuSans-68" x="614.5625"/>
     <use xlink:href="#DejaVuSans-3d" x="677.941406"/>
     <use xlink:href="#DejaVuSans-66" x="761.730469"/>
     <use xlink:href="#DejaVuSans-66" x="796.935547"/>
     <use xlink:href="#DejaVuSans-30" x="832.140625"/>
     <use xlink:href="#DejaVuSans-65" x="895.763672"/>
     <use xlink:href="#DejaVuSans-37" x="957.287109"/>
     <use xlink:href="#DejaVuSans-31" x="1020.910156"/>
     <use xlink:href="#DejaVuSans-65" x="1084.533203"/>
     <use xlink:href="#DejaVuSans-38" x="1146.056641"/>
     <use xlink:href="#DejaVuSans-63" x="1209.679688"/>
     <use xlink:href="#DejaVuSans-64" x="1264.660156"/>
     <use xlink:href="#DejaVuSans-39" x="1328.136719"/>
     <use xlink:href="#DejaVuSans-37" x="1391.759766"/>
     <use xlink:href="#DejaVuSans-38" x="1455.382812"/>
     <use xlink:href="#DejaVuSans-33" x="1519.005859"/>
     <use xlink:href="#DejaVuSans-37" x="1582.628906"/>
     <use xlink:href="#DejaVuSans-33" x="1646.251953"/>
    </g>
   </g>
  </g>
 </g>
 <defs>
  <clipPath id="p41b86951bb">
   <rect x="57.6" y="6.912" width="303.2064" height="292.032"/>
  </clipPath>
 </defs>
</svg>
