<?xml version="1.0" encoding="utf-8" standalone="no"?>
<!DOCTYPE svg PUBLIC "-//W3C//DTD SVG 1.1//EN"
  "http://www.w3.org/Graphics/SVG/1.1/DTD/svg11.dtd">
<svg xmlns:xlink="http://www.w3.org/1999/xlink" width="460.8pt" height="345.6pt" viewBox="0 0 460.8 345.6" xmlns="http://www.w3.org/2000/svg" version="1.1">
 <metadata>
  <rdf:RDF xmlns:dc="http://purl.org/dc/elements/1.1/" xmlns:cc="http://creativecommons.org/ns#" xmlns:rdf="http://www.w3.org/1999/02/22-rdf-syntax-ns#">
   <cc:Work>
    <dc:type rdf:resource="http://purl.org/dc/dcmitype/StillImage"/>
    <dc:date>2022-06-19T21:02:58.049408</dc:date>
    <dc:format>image/svg+xml</dc:format>
    <dc:creator>
     <cc:Agent>
      <dc:title>Matplotlib v3.5.1, https://matplotlib.org/</dc:title>
     </cc:Agent>
    </dc:creator>
   </cc:Work>
  </rdf:RDF>
 </metadata>
 <defs>
  <style type="text/css">*{stroke-linejoin: round; stroke-linecap: butt}</style>
 </defs>
 <g id="figure_1">
  <g id="patch_1">
   <path d="M 0 345.6 
L 460.8 345.6 
L 460.8 0 
L 0 0 
z
" style="fill: #ffffff"/>
  </g>
  <g id="axes_1">
   <g id="patch_2">
    <path d="M 57.6 298.944 
L 360.8064 298.944 
L 360.8064 6.912 
L 57.6 6.912 
z
" style="fill: #ffffff"/>
   </g>
   <g id="line2d_1">
    <path d="M 1.245626 298.944 
L 1.245626 293.908966 
L 21.912228 293.908966 
L 21.912228 292.230621 
L 31.521651 292.230621 
L 31.521651 290.552276 
L 40.363149 290.552276 
L 40.363149 287.195586 
L 65.227428 287.195586 
L 65.227428 283.838897 
L 67.581941 283.838897 
L 67.581941 280.482207 
L 71.103681 280.482207 
L 71.103681 277.125517 
L 76.284608 277.125517 
L 76.284608 273.768828 
L 81.433251 273.768828 
L 81.433251 272.090483 
L 83.441723 272.090483 
L 83.441723 270.412138 
L 83.678349 270.412138 
L 83.678349 268.733793 
L 89.14879 268.733793 
L 89.14879 263.698759 
L 91.616719 263.698759 
L 91.616719 258.663724 
L 95.250946 258.663724 
L 95.250946 253.62869 
L 96.361458 253.62869 
L 96.361458 250.272 
L 97.066974 250.272 
L 97.066974 246.91531 
L 103.788121 246.91531 
L 103.788121 245.236966 
L 104.028784 245.236966 
L 104.028784 243.558621 
L 104.809458 243.558621 
L 104.809458 240.201931 
L 113.429811 240.201931 
L 113.429811 238.523586 
L 116.705799 238.523586 
L 116.705799 235.166897 
L 116.86762 235.166897 
L 116.86762 231.810207 
L 121.768984 231.810207 
L 121.768984 228.453517 
L 128.871795 228.453517 
L 128.871795 223.418483 
L 130.540507 223.418483 
L 130.540507 218.383448 
L 130.887807 218.383448 
L 130.887807 213.348414 
L 134.28886 213.348414 
L 134.28886 209.991724 
L 138.412998 209.991724 
L 138.412998 206.635034 
L 139.616653 206.635034 
L 139.616653 203.278345 
L 141.051049 203.278345 
L 141.051049 199.921655 
L 143.783051 199.921655 
L 143.783051 196.564966 
L 145.765046 196.564966 
L 145.765046 193.208276 
L 149.545489 193.208276 
L 149.545489 191.529931 
L 152.936202 191.529931 
L 152.936202 188.173241 
L 154.006505 188.173241 
L 154.006505 184.816552 
L 156.265023 184.816552 
L 156.265023 179.781517 
L 161.639526 179.781517 
L 161.639526 178.103172 
L 164.093118 178.103172 
L 164.093118 176.424828 
L 165.51383 176.424828 
L 165.51383 173.068138 
L 170.460975 173.068138 
L 170.460975 168.033103 
L 170.873925 168.033103 
L 170.873925 162.998069 
L 176.713745 162.998069 
L 176.713745 161.319724 
L 177.808769 161.319724 
L 177.808769 157.963034 
L 178.764203 157.963034 
L 178.764203 156.28469 
L 184.726971 156.28469 
L 184.726971 154.606345 
L 188.599977 154.606345 
L 188.599977 149.57131 
L 189.96253 149.57131 
L 189.96253 144.536276 
L 195.87462 144.536276 
L 195.87462 139.501241 
L 201.154058 139.501241 
L 201.154058 136.144552 
L 205.229331 136.144552 
L 205.229331 134.466207 
L 206.022134 134.466207 
L 206.022134 132.787862 
L 211.044442 132.787862 
L 211.044442 131.109517 
L 214.035387 131.109517 
L 214.035387 126.074483 
L 218.976758 126.074483 
L 218.976758 121.039448 
L 219.141974 121.039448 
L 219.141974 116.004414 
L 221.939976 116.004414 
L 221.939976 112.647724 
L 228.080047 112.647724 
L 228.080047 110.969379 
L 229.043933 110.969379 
L 229.043933 107.61269 
L 233.709565 107.61269 
L 233.709565 104.256 
L 235.19941 104.256 
L 235.19941 99.220966 
L 235.921034 99.220966 
L 235.921034 97.542621 
L 242.979618 97.542621 
L 242.979618 94.185931 
L 244.736009 94.185931 
L 244.736009 90.829241 
L 247.452073 90.829241 
L 247.452073 89.150897 
L 252.042128 89.150897 
L 252.042128 84.115862 
L 253.486932 84.115862 
L 253.486932 80.759172 
L 261.640236 80.759172 
L 261.640236 79.080828 
L 265.940948 79.080828 
L 265.940948 74.045793 
L 268.834628 74.045793 
L 268.834628 70.689103 
L 278.331077 70.689103 
L 278.331077 69.010759 
L 289.445482 69.010759 
L 289.445482 63.975724 
L 290.188188 63.975724 
L 290.188188 58.94069 
L 303.541005 58.94069 
L 303.541005 55.584 
L 321.850449 55.584 
L 321.850449 52.22731 
L 329.270454 52.22731 
L 329.270454 50.548966 
L 349.534479 50.548966 
L 349.534479 47.192276 
L 359.758801 47.192276 
L 359.758801 42.157241 
L 360.8064 42.157241 
L 360.8064 42.157241 
" style="fill: none; stroke: #f5deb3; stroke-width: 4; stroke-linecap: square"/>
   </g>
   <g id="line2d_2">
    <defs>
     <path id="mff3cbdf76a" d="M 0 7.778175 
L 7.778175 0 
L 0 -7.778175 
L -7.778175 0 
z
" style="stroke: #f5deb3; stroke-width: 1.5; stroke-linejoin: miter"/>
    </defs>
    <g>
     <use xlink:href="#mff3cbdf76a" x="104.809458" y="243.558621" style="fill: #f5deb3; stroke: #f5deb3; stroke-width: 1.5; stroke-linejoin: miter"/>
     <use xlink:href="#mff3cbdf76a" x="165.51383" y="173.068138" style="fill: #f5deb3; stroke: #f5deb3; stroke-width: 1.5; stroke-linejoin: miter"/>
     <use xlink:href="#mff3cbdf76a" x="242.979618" y="94.185931" style="fill: #f5deb3; stroke: #f5deb3; stroke-width: 1.5; stroke-linejoin: miter"/>
     <use xlink:href="#mff3cbdf76a" x="329.270454" y="52.22731" style="fill: #f5deb3; stroke: #f5deb3; stroke-width: 1.5; stroke-linejoin: miter"/>
     <use xlink:href="#mff3cbdf76a" x="359.758801" y="42.157241" style="fill: #f5deb3; stroke: #f5deb3; stroke-width: 1.5; stroke-linejoin: miter"/>
     <use xlink:href="#mff3cbdf76a" x="360.8064" y="42.157241" style="fill: #f5deb3; stroke: #f5deb3; stroke-width: 1.5; stroke-linejoin: miter"/>
    </g>
   </g>
   <g id="line2d_3">
    <path style="fill: none; stroke: #f5deb3; stroke-width: 4; stroke-linecap: square"/>
    <g/>
   </g>
   <g id="line2d_4">
    <path d="M 360.8064 42.157241 
L 380.514816 12.75264 
" style="fill: none; stroke: #f5deb3; stroke-width: 4; stroke-linecap: square"/>
    <g>
     <use xlink:href="#mff3cbdf76a" x="360.8064" y="42.157241" style="fill: #f5deb3; stroke: #f5deb3; stroke-width: 1.5; stroke-linejoin: miter"/>
     <use xlink:href="#mff3cbdf76a" x="380.514816" y="12.75264" style="fill: #f5deb3; stroke: #f5deb3; stroke-width: 1.5; stroke-linejoin: miter"/>
    </g>
   </g>
   <g id="matplotlib.axis_1">
    <g id="xtick_1">
     <g id="line2d_5">
      <path d="M 57.6 298.944 
L 57.6 6.912 
" clip-path="url(#pe3abad42b1)" style="fill: none; stroke: #b0b0b0; stroke-width: 0.8; stroke-linecap: square"/>
     </g>
     <g id="line2d_6">
      <defs>
       <path id="mad6112cae7" d="M 0 0 
L 0 3.5 
" style="stroke: #000000; stroke-width: 0.8"/>
      </defs>
      <g>
       <use xlink:href="#mad6112cae7" x="57.6" y="298.944" style="stroke: #000000; stroke-width: 0.8"/>
      </g>
     </g>
     <g id="text_1">
      <!-- 0 -->
      <g transform="translate(52.191875 318.861344)scale(0.17 -0.17)">
       <defs>
        <path id="DejaVuSans-30" d="M 2034 4250 
Q 1547 4250 1301 3770 
Q 1056 3291 1056 2328 
Q 1056 1369 1301 889 
Q 1547 409 2034 409 
Q 2525 409 2770 889 
Q 3016 1369 3016 2328 
Q 3016 3291 2770 3770 
Q 2525 4250 2034 4250 
z
M 2034 4750 
Q 2819 4750 3233 4129 
Q 3647 3509 3647 2328 
Q 3647 1150 3233 529 
Q 2819 -91 2034 -91 
Q 1250 -91 836 529 
Q 422 1150 422 2328 
Q 422 3509 836 4129 
Q 1250 4750 2034 4750 
z
" transform="scale(0.015625)"/>
       </defs>
       <use xlink:href="#DejaVuSans-30"/>
      </g>
     </g>
    </g>
    <g id="xtick_2">
     <g id="line2d_7">
      <path d="M 144.2304 298.944 
L 144.2304 6.912 
" clip-path="url(#pe3abad42b1)" style="fill: none; stroke: #b0b0b0; stroke-width: 0.8; stroke-linecap: square"/>
     </g>
     <g id="line2d_8">
      <g>
       <use xlink:href="#mad6112cae7" x="144.2304" y="298.944" style="stroke: #000000; stroke-width: 0.8"/>
      </g>
     </g>
     <g id="text_2">
      <!-- 2 -->
      <g transform="translate(138.822275 318.861344)scale(0.17 -0.17)">
       <defs>
        <path id="DejaVuSans-32" d="M 1228 531 
L 3431 531 
L 3431 0 
L 469 0 
L 469 531 
Q 828 903 1448 1529 
Q 2069 2156 2228 2338 
Q 2531 2678 2651 2914 
Q 2772 3150 2772 3378 
Q 2772 3750 2511 3984 
Q 2250 4219 1831 4219 
Q 1534 4219 1204 4116 
Q 875 4013 500 3803 
L 500 4441 
Q 881 4594 1212 4672 
Q 1544 4750 1819 4750 
Q 2544 4750 2975 4387 
Q 3406 4025 3406 3419 
Q 3406 3131 3298 2873 
Q 3191 2616 2906 2266 
Q 2828 2175 2409 1742 
Q 1991 1309 1228 531 
z
" transform="scale(0.015625)"/>
       </defs>
       <use xlink:href="#DejaVuSans-32"/>
      </g>
     </g>
    </g>
    <g id="xtick_3">
     <g id="line2d_9">
      <path d="M 230.8608 298.944 
L 230.8608 6.912 
" clip-path="url(#pe3abad42b1)" style="fill: none; stroke: #b0b0b0; stroke-width: 0.8; stroke-linecap: square"/>
     </g>
     <g id="line2d_10">
      <g>
       <use xlink:href="#mad6112cae7" x="230.8608" y="298.944" style="stroke: #000000; stroke-width: 0.8"/>
      </g>
     </g>
     <g id="text_3">
      <!-- 4 -->
      <g transform="translate(225.452675 318.861344)scale(0.17 -0.17)">
       <defs>
        <path id="DejaVuSans-34" d="M 2419 4116 
L 825 1625 
L 2419 1625 
L 2419 4116 
z
M 2253 4666 
L 3047 4666 
L 3047 1625 
L 3713 1625 
L 3713 1100 
L 3047 1100 
L 3047 0 
L 2419 0 
L 2419 1100 
L 313 1100 
L 313 1709 
L 2253 4666 
z
" transform="scale(0.015625)"/>
       </defs>
       <use xlink:href="#DejaVuSans-34"/>
      </g>
     </g>
    </g>
    <g id="xtick_4">
     <g id="line2d_11">
      <path d="M 317.4912 298.944 
L 317.4912 6.912 
" clip-path="url(#pe3abad42b1)" style="fill: none; stroke: #b0b0b0; stroke-width: 0.8; stroke-linecap: square"/>
     </g>
     <g id="line2d_12">
      <g>
       <use xlink:href="#mad6112cae7" x="317.4912" y="298.944" style="stroke: #000000; stroke-width: 0.8"/>
      </g>
     </g>
     <g id="text_4">
      <!-- 6 -->
      <g transform="translate(312.083075 318.861344)scale(0.17 -0.17)">
       <defs>
        <path id="DejaVuSans-36" d="M 2113 2584 
Q 1688 2584 1439 2293 
Q 1191 2003 1191 1497 
Q 1191 994 1439 701 
Q 1688 409 2113 409 
Q 2538 409 2786 701 
Q 3034 994 3034 1497 
Q 3034 2003 2786 2293 
Q 2538 2584 2113 2584 
z
M 3366 4563 
L 3366 3988 
Q 3128 4100 2886 4159 
Q 2644 4219 2406 4219 
Q 1781 4219 1451 3797 
Q 1122 3375 1075 2522 
Q 1259 2794 1537 2939 
Q 1816 3084 2150 3084 
Q 2853 3084 3261 2657 
Q 3669 2231 3669 1497 
Q 3669 778 3244 343 
Q 2819 -91 2113 -91 
Q 1303 -91 875 529 
Q 447 1150 447 2328 
Q 447 3434 972 4092 
Q 1497 4750 2381 4750 
Q 2619 4750 2861 4703 
Q 3103 4656 3366 4563 
z
" transform="scale(0.015625)"/>
       </defs>
       <use xlink:href="#DejaVuSans-36"/>
      </g>
     </g>
    </g>
    <g id="xtick_5">
     <g id="line2d_13">
      <path d="M 100.9152 298.944 
L 100.9152 6.912 
" clip-path="url(#pe3abad42b1)" style="fill: none; stroke: #b0b0b0; stroke-width: 0.8; stroke-linecap: square"/>
     </g>
     <g id="line2d_14">
      <defs>
       <path id="mff2db0bb32" d="M 0 0 
L 0 2 
" style="stroke: #000000; stroke-width: 0.6"/>
      </defs>
      <g>
       <use xlink:href="#mff2db0bb32" x="100.9152" y="298.944" style="stroke: #000000; stroke-width: 0.6"/>
      </g>
     </g>
    </g>
    <g id="xtick_6">
     <g id="line2d_15">
      <path d="M 187.5456 298.944 
L 187.5456 6.912 
" clip-path="url(#pe3abad42b1)" style="fill: none; stroke: #b0b0b0; stroke-width: 0.8; stroke-linecap: square"/>
     </g>
     <g id="line2d_16">
      <g>
       <use xlink:href="#mff2db0bb32" x="187.5456" y="298.944" style="stroke: #000000; stroke-width: 0.6"/>
      </g>
     </g>
    </g>
    <g id="xtick_7">
     <g id="line2d_17">
      <path d="M 274.176 298.944 
L 274.176 6.912 
" clip-path="url(#pe3abad42b1)" style="fill: none; stroke: #b0b0b0; stroke-width: 0.8; stroke-linecap: square"/>
     </g>
     <g id="line2d_18">
      <g>
       <use xlink:href="#mff2db0bb32" x="274.176" y="298.944" style="stroke: #000000; stroke-width: 0.6"/>
      </g>
     </g>
    </g>
    <g id="xtick_8">
     <g id="line2d_19">
      <path d="M 360.8064 298.944 
L 360.8064 6.912 
" clip-path="url(#pe3abad42b1)" style="fill: none; stroke: #b0b0b0; stroke-width: 0.8; stroke-linecap: square"/>
     </g>
     <g id="line2d_20">
      <g>
       <use xlink:href="#mff2db0bb32" x="360.8064" y="298.944" style="stroke: #000000; stroke-width: 0.6"/>
      </g>
     </g>
    </g>
    <g id="text_5">
     <!-- log10(# f-evals / dimension) -->
     <g transform="translate(88.823278 339.314156)scale(0.17 -0.17)">
      <defs>
       <path id="DejaVuSans-6c" d="M 603 4863 
L 1178 4863 
L 1178 0 
L 603 0 
L 603 4863 
z
" transform="scale(0.015625)"/>
       <path id="DejaVuSans-6f" d="M 1959 3097 
Q 1497 3097 1228 2736 
Q 959 2375 959 1747 
Q 959 1119 1226 758 
Q 1494 397 1959 397 
Q 2419 397 2687 759 
Q 2956 1122 2956 1747 
Q 2956 2369 2687 2733 
Q 2419 3097 1959 3097 
z
M 1959 3584 
Q 2709 3584 3137 3096 
Q 3566 2609 3566 1747 
Q 3566 888 3137 398 
Q 2709 -91 1959 -91 
Q 1206 -91 779 398 
Q 353 888 353 1747 
Q 353 2609 779 3096 
Q 1206 3584 1959 3584 
z
" transform="scale(0.015625)"/>
       <path id="DejaVuSans-67" d="M 2906 1791 
Q 2906 2416 2648 2759 
Q 2391 3103 1925 3103 
Q 1463 3103 1205 2759 
Q 947 2416 947 1791 
Q 947 1169 1205 825 
Q 1463 481 1925 481 
Q 2391 481 2648 825 
Q 2906 1169 2906 1791 
z
M 3481 434 
Q 3481 -459 3084 -895 
Q 2688 -1331 1869 -1331 
Q 1566 -1331 1297 -1286 
Q 1028 -1241 775 -1147 
L 775 -588 
Q 1028 -725 1275 -790 
Q 1522 -856 1778 -856 
Q 2344 -856 2625 -561 
Q 2906 -266 2906 331 
L 2906 616 
Q 2728 306 2450 153 
Q 2172 0 1784 0 
Q 1141 0 747 490 
Q 353 981 353 1791 
Q 353 2603 747 3093 
Q 1141 3584 1784 3584 
Q 2172 3584 2450 3431 
Q 2728 3278 2906 2969 
L 2906 3500 
L 3481 3500 
L 3481 434 
z
" transform="scale(0.015625)"/>
       <path id="DejaVuSans-31" d="M 794 531 
L 1825 531 
L 1825 4091 
L 703 3866 
L 703 4441 
L 1819 4666 
L 2450 4666 
L 2450 531 
L 3481 531 
L 3481 0 
L 794 0 
L 794 531 
z
" transform="scale(0.015625)"/>
       <path id="DejaVuSans-28" d="M 1984 4856 
Q 1566 4138 1362 3434 
Q 1159 2731 1159 2009 
Q 1159 1288 1364 580 
Q 1569 -128 1984 -844 
L 1484 -844 
Q 1016 -109 783 600 
Q 550 1309 550 2009 
Q 550 2706 781 3412 
Q 1013 4119 1484 4856 
L 1984 4856 
z
" transform="scale(0.015625)"/>
       <path id="DejaVuSans-23" d="M 3272 2816 
L 2363 2816 
L 2100 1772 
L 3016 1772 
L 3272 2816 
z
M 2803 4594 
L 2478 3297 
L 3391 3297 
L 3719 4594 
L 4219 4594 
L 3897 3297 
L 4872 3297 
L 4872 2816 
L 3775 2816 
L 3519 1772 
L 4513 1772 
L 4513 1294 
L 3397 1294 
L 3072 0 
L 2572 0 
L 2894 1294 
L 1978 1294 
L 1656 0 
L 1153 0 
L 1478 1294 
L 494 1294 
L 494 1772 
L 1594 1772 
L 1856 2816 
L 850 2816 
L 850 3297 
L 1978 3297 
L 2297 4594 
L 2803 4594 
z
" transform="scale(0.015625)"/>
       <path id="DejaVuSans-20" transform="scale(0.015625)"/>
       <path id="DejaVuSans-66" d="M 2375 4863 
L 2375 4384 
L 1825 4384 
Q 1516 4384 1395 4259 
Q 1275 4134 1275 3809 
L 1275 3500 
L 2222 3500 
L 2222 3053 
L 1275 3053 
L 1275 0 
L 697 0 
L 697 3053 
L 147 3053 
L 147 3500 
L 697 3500 
L 697 3744 
Q 697 4328 969 4595 
Q 1241 4863 1831 4863 
L 2375 4863 
z
" transform="scale(0.015625)"/>
       <path id="DejaVuSans-2d" d="M 313 2009 
L 1997 2009 
L 1997 1497 
L 313 1497 
L 313 2009 
z
" transform="scale(0.015625)"/>
       <path id="DejaVuSans-65" d="M 3597 1894 
L 3597 1613 
L 953 1613 
Q 991 1019 1311 708 
Q 1631 397 2203 397 
Q 2534 397 2845 478 
Q 3156 559 3463 722 
L 3463 178 
Q 3153 47 2828 -22 
Q 2503 -91 2169 -91 
Q 1331 -91 842 396 
Q 353 884 353 1716 
Q 353 2575 817 3079 
Q 1281 3584 2069 3584 
Q 2775 3584 3186 3129 
Q 3597 2675 3597 1894 
z
M 3022 2063 
Q 3016 2534 2758 2815 
Q 2500 3097 2075 3097 
Q 1594 3097 1305 2825 
Q 1016 2553 972 2059 
L 3022 2063 
z
" transform="scale(0.015625)"/>
       <path id="DejaVuSans-76" d="M 191 3500 
L 800 3500 
L 1894 563 
L 2988 3500 
L 3597 3500 
L 2284 0 
L 1503 0 
L 191 3500 
z
" transform="scale(0.015625)"/>
       <path id="DejaVuSans-61" d="M 2194 1759 
Q 1497 1759 1228 1600 
Q 959 1441 959 1056 
Q 959 750 1161 570 
Q 1363 391 1709 391 
Q 2188 391 2477 730 
Q 2766 1069 2766 1631 
L 2766 1759 
L 2194 1759 
z
M 3341 1997 
L 3341 0 
L 2766 0 
L 2766 531 
Q 2569 213 2275 61 
Q 1981 -91 1556 -91 
Q 1019 -91 701 211 
Q 384 513 384 1019 
Q 384 1609 779 1909 
Q 1175 2209 1959 2209 
L 2766 2209 
L 2766 2266 
Q 2766 2663 2505 2880 
Q 2244 3097 1772 3097 
Q 1472 3097 1187 3025 
Q 903 2953 641 2809 
L 641 3341 
Q 956 3463 1253 3523 
Q 1550 3584 1831 3584 
Q 2591 3584 2966 3190 
Q 3341 2797 3341 1997 
z
" transform="scale(0.015625)"/>
       <path id="DejaVuSans-73" d="M 2834 3397 
L 2834 2853 
Q 2591 2978 2328 3040 
Q 2066 3103 1784 3103 
Q 1356 3103 1142 2972 
Q 928 2841 928 2578 
Q 928 2378 1081 2264 
Q 1234 2150 1697 2047 
L 1894 2003 
Q 2506 1872 2764 1633 
Q 3022 1394 3022 966 
Q 3022 478 2636 193 
Q 2250 -91 1575 -91 
Q 1294 -91 989 -36 
Q 684 19 347 128 
L 347 722 
Q 666 556 975 473 
Q 1284 391 1588 391 
Q 1994 391 2212 530 
Q 2431 669 2431 922 
Q 2431 1156 2273 1281 
Q 2116 1406 1581 1522 
L 1381 1569 
Q 847 1681 609 1914 
Q 372 2147 372 2553 
Q 372 3047 722 3315 
Q 1072 3584 1716 3584 
Q 2034 3584 2315 3537 
Q 2597 3491 2834 3397 
z
" transform="scale(0.015625)"/>
       <path id="DejaVuSans-2f" d="M 1625 4666 
L 2156 4666 
L 531 -594 
L 0 -594 
L 1625 4666 
z
" transform="scale(0.015625)"/>
       <path id="DejaVuSans-64" d="M 2906 2969 
L 2906 4863 
L 3481 4863 
L 3481 0 
L 2906 0 
L 2906 525 
Q 2725 213 2448 61 
Q 2172 -91 1784 -91 
Q 1150 -91 751 415 
Q 353 922 353 1747 
Q 353 2572 751 3078 
Q 1150 3584 1784 3584 
Q 2172 3584 2448 3432 
Q 2725 3281 2906 2969 
z
M 947 1747 
Q 947 1113 1208 752 
Q 1469 391 1925 391 
Q 2381 391 2643 752 
Q 2906 1113 2906 1747 
Q 2906 2381 2643 2742 
Q 2381 3103 1925 3103 
Q 1469 3103 1208 2742 
Q 947 2381 947 1747 
z
" transform="scale(0.015625)"/>
       <path id="DejaVuSans-69" d="M 603 3500 
L 1178 3500 
L 1178 0 
L 603 0 
L 603 3500 
z
M 603 4863 
L 1178 4863 
L 1178 4134 
L 603 4134 
L 603 4863 
z
" transform="scale(0.015625)"/>
       <path id="DejaVuSans-6d" d="M 3328 2828 
Q 3544 3216 3844 3400 
Q 4144 3584 4550 3584 
Q 5097 3584 5394 3201 
Q 5691 2819 5691 2113 
L 5691 0 
L 5113 0 
L 5113 2094 
Q 5113 2597 4934 2840 
Q 4756 3084 4391 3084 
Q 3944 3084 3684 2787 
Q 3425 2491 3425 1978 
L 3425 0 
L 2847 0 
L 2847 2094 
Q 2847 2600 2669 2842 
Q 2491 3084 2119 3084 
Q 1678 3084 1418 2786 
Q 1159 2488 1159 1978 
L 1159 0 
L 581 0 
L 581 3500 
L 1159 3500 
L 1159 2956 
Q 1356 3278 1631 3431 
Q 1906 3584 2284 3584 
Q 2666 3584 2933 3390 
Q 3200 3197 3328 2828 
z
" transform="scale(0.015625)"/>
       <path id="DejaVuSans-6e" d="M 3513 2113 
L 3513 0 
L 2938 0 
L 2938 2094 
Q 2938 2591 2744 2837 
Q 2550 3084 2163 3084 
Q 1697 3084 1428 2787 
Q 1159 2491 1159 1978 
L 1159 0 
L 581 0 
L 581 3500 
L 1159 3500 
L 1159 2956 
Q 1366 3272 1645 3428 
Q 1925 3584 2291 3584 
Q 2894 3584 3203 3211 
Q 3513 2838 3513 2113 
z
" transform="scale(0.015625)"/>
       <path id="DejaVuSans-29" d="M 513 4856 
L 1013 4856 
Q 1481 4119 1714 3412 
Q 1947 2706 1947 2009 
Q 1947 1309 1714 600 
Q 1481 -109 1013 -844 
L 513 -844 
Q 928 -128 1133 580 
Q 1338 1288 1338 2009 
Q 1338 2731 1133 3434 
Q 928 4138 513 4856 
z
" transform="scale(0.015625)"/>
      </defs>
      <use xlink:href="#DejaVuSans-6c"/>
      <use xlink:href="#DejaVuSans-6f" x="27.783203"/>
      <use xlink:href="#DejaVuSans-67" x="88.964844"/>
      <use xlink:href="#DejaVuSans-31" x="152.441406"/>
      <use xlink:href="#DejaVuSans-30" x="216.064453"/>
      <use xlink:href="#DejaVuSans-28" x="279.6875"/>
      <use xlink:href="#DejaVuSans-23" x="318.701172"/>
      <use xlink:href="#DejaVuSans-20" x="402.490234"/>
      <use xlink:href="#DejaVuSans-66" x="434.277344"/>
      <use xlink:href="#DejaVuSans-2d" x="463.982422"/>
      <use xlink:href="#DejaVuSans-65" x="500.066406"/>
      <use xlink:href="#DejaVuSans-76" x="561.589844"/>
      <use xlink:href="#DejaVuSans-61" x="620.769531"/>
      <use xlink:href="#DejaVuSans-6c" x="682.048828"/>
      <use xlink:href="#DejaVuSans-73" x="709.832031"/>
      <use xlink:href="#DejaVuSans-20" x="761.931641"/>
      <use xlink:href="#DejaVuSans-2f" x="793.71875"/>
      <use xlink:href="#DejaVuSans-20" x="827.410156"/>
      <use xlink:href="#DejaVuSans-64" x="859.197266"/>
      <use xlink:href="#DejaVuSans-69" x="922.673828"/>
      <use xlink:href="#DejaVuSans-6d" x="950.457031"/>
      <use xlink:href="#DejaVuSans-65" x="1047.869141"/>
      <use xlink:href="#DejaVuSans-6e" x="1109.392578"/>
      <use xlink:href="#DejaVuSans-73" x="1172.771484"/>
      <use xlink:href="#DejaVuSans-69" x="1224.871094"/>
      <use xlink:href="#DejaVuSans-6f" x="1252.654297"/>
      <use xlink:href="#DejaVuSans-6e" x="1313.835938"/>
      <use xlink:href="#DejaVuSans-29" x="1377.214844"/>
     </g>
    </g>
   </g>
   <g id="matplotlib.axis_2">
    <g id="ytick_1">
     <g id="line2d_21">
      <path d="M 57.6 298.944 
L 360.8064 298.944 
" clip-path="url(#pe3abad42b1)" style="fill: none; stroke: #b0b0b0; stroke-width: 0.8; stroke-linecap: square"/>
     </g>
     <g id="line2d_22">
      <defs>
       <path id="med8165d16d" d="M 0 0 
L -3.5 0 
" style="stroke: #000000; stroke-width: 0.8"/>
      </defs>
      <g>
       <use xlink:href="#med8165d16d" x="57.6" y="298.944" style="stroke: #000000; stroke-width: 0.8"/>
      </g>
     </g>
     <g id="text_6">
      <!-- 0.0 -->
      <g transform="translate(25.155 305.02275)scale(0.16 -0.16)">
       <defs>
        <path id="DejaVuSans-2e" d="M 684 794 
L 1344 794 
L 1344 0 
L 684 0 
L 684 794 
z
" transform="scale(0.015625)"/>
       </defs>
       <use xlink:href="#DejaVuSans-30"/>
       <use xlink:href="#DejaVuSans-2e" x="63.623047"/>
       <use xlink:href="#DejaVuSans-30" x="95.410156"/>
      </g>
     </g>
    </g>
    <g id="ytick_2">
     <g id="line2d_23">
      <path d="M 57.6 240.5376 
L 360.8064 240.5376 
" clip-path="url(#pe3abad42b1)" style="fill: none; stroke: #b0b0b0; stroke-width: 0.8; stroke-linecap: square"/>
     </g>
     <g id="line2d_24">
      <g>
       <use xlink:href="#med8165d16d" x="57.6" y="240.5376" style="stroke: #000000; stroke-width: 0.8"/>
      </g>
     </g>
     <g id="text_7">
      <!-- 0.2 -->
      <g transform="translate(25.155 246.61635)scale(0.16 -0.16)">
       <use xlink:href="#DejaVuSans-30"/>
       <use xlink:href="#DejaVuSans-2e" x="63.623047"/>
       <use xlink:href="#DejaVuSans-32" x="95.410156"/>
      </g>
     </g>
    </g>
    <g id="ytick_3">
     <g id="line2d_25">
      <path d="M 57.6 182.1312 
L 360.8064 182.1312 
" clip-path="url(#pe3abad42b1)" style="fill: none; stroke: #b0b0b0; stroke-width: 0.8; stroke-linecap: square"/>
     </g>
     <g id="line2d_26">
      <g>
       <use xlink:href="#med8165d16d" x="57.6" y="182.1312" style="stroke: #000000; stroke-width: 0.8"/>
      </g>
     </g>
     <g id="text_8">
      <!-- 0.4 -->
      <g transform="translate(25.155 188.20995)scale(0.16 -0.16)">
       <use xlink:href="#DejaVuSans-30"/>
       <use xlink:href="#DejaVuSans-2e" x="63.623047"/>
       <use xlink:href="#DejaVuSans-34" x="95.410156"/>
      </g>
     </g>
    </g>
    <g id="ytick_4">
     <g id="line2d_27">
      <path d="M 57.6 123.7248 
L 360.8064 123.7248 
" clip-path="url(#pe3abad42b1)" style="fill: none; stroke: #b0b0b0; stroke-width: 0.8; stroke-linecap: square"/>
     </g>
     <g id="line2d_28">
      <g>
       <use xlink:href="#med8165d16d" x="57.6" y="123.7248" style="stroke: #000000; stroke-width: 0.8"/>
      </g>
     </g>
     <g id="text_9">
      <!-- 0.6 -->
      <g transform="translate(25.155 129.80355)scale(0.16 -0.16)">
       <use xlink:href="#DejaVuSans-30"/>
       <use xlink:href="#DejaVuSans-2e" x="63.623047"/>
       <use xlink:href="#DejaVuSans-36" x="95.410156"/>
      </g>
     </g>
    </g>
    <g id="ytick_5">
     <g id="line2d_29">
      <path d="M 57.6 65.3184 
L 360.8064 65.3184 
" clip-path="url(#pe3abad42b1)" style="fill: none; stroke: #b0b0b0; stroke-width: 0.8; stroke-linecap: square"/>
     </g>
     <g id="line2d_30">
      <g>
       <use xlink:href="#med8165d16d" x="57.6" y="65.3184" style="stroke: #000000; stroke-width: 0.8"/>
      </g>
     </g>
     <g id="text_10">
      <!-- 0.8 -->
      <g transform="translate(25.155 71.39715)scale(0.16 -0.16)">
       <defs>
        <path id="DejaVuSans-38" d="M 2034 2216 
Q 1584 2216 1326 1975 
Q 1069 1734 1069 1313 
Q 1069 891 1326 650 
Q 1584 409 2034 409 
Q 2484 409 2743 651 
Q 3003 894 3003 1313 
Q 3003 1734 2745 1975 
Q 2488 2216 2034 2216 
z
M 1403 2484 
Q 997 2584 770 2862 
Q 544 3141 544 3541 
Q 544 4100 942 4425 
Q 1341 4750 2034 4750 
Q 2731 4750 3128 4425 
Q 3525 4100 3525 3541 
Q 3525 3141 3298 2862 
Q 3072 2584 2669 2484 
Q 3125 2378 3379 2068 
Q 3634 1759 3634 1313 
Q 3634 634 3220 271 
Q 2806 -91 2034 -91 
Q 1263 -91 848 271 
Q 434 634 434 1313 
Q 434 1759 690 2068 
Q 947 2378 1403 2484 
z
M 1172 3481 
Q 1172 3119 1398 2916 
Q 1625 2713 2034 2713 
Q 2441 2713 2670 2916 
Q 2900 3119 2900 3481 
Q 2900 3844 2670 4047 
Q 2441 4250 2034 4250 
Q 1625 4250 1398 4047 
Q 1172 3844 1172 3481 
z
" transform="scale(0.015625)"/>
       </defs>
       <use xlink:href="#DejaVuSans-30"/>
       <use xlink:href="#DejaVuSans-2e" x="63.623047"/>
       <use xlink:href="#DejaVuSans-38" x="95.410156"/>
      </g>
     </g>
    </g>
    <g id="ytick_6">
     <g id="line2d_31">
      <path d="M 57.6 6.912 
L 360.8064 6.912 
" clip-path="url(#pe3abad42b1)" style="fill: none; stroke: #b0b0b0; stroke-width: 0.8; stroke-linecap: square"/>
     </g>
     <g id="line2d_32">
      <g>
       <use xlink:href="#med8165d16d" x="57.6" y="6.912" style="stroke: #000000; stroke-width: 0.8"/>
      </g>
     </g>
     <g id="text_11">
      <!-- 1.0 -->
      <g transform="translate(25.155 12.99075)scale(0.16 -0.16)">
       <use xlink:href="#DejaVuSans-31"/>
       <use xlink:href="#DejaVuSans-2e" x="63.623047"/>
       <use xlink:href="#DejaVuSans-30" x="95.410156"/>
      </g>
     </g>
    </g>
    <g id="text_12">
     <!-- Fraction of function,target pairs -->
     <g transform="translate(17.619531 287.313)rotate(-90)scale(0.17 -0.17)">
      <defs>
       <path id="DejaVuSans-46" d="M 628 4666 
L 3309 4666 
L 3309 4134 
L 1259 4134 
L 1259 2759 
L 3109 2759 
L 3109 2228 
L 1259 2228 
L 1259 0 
L 628 0 
L 628 4666 
z
" transform="scale(0.015625)"/>
       <path id="DejaVuSans-72" d="M 2631 2963 
Q 2534 3019 2420 3045 
Q 2306 3072 2169 3072 
Q 1681 3072 1420 2755 
Q 1159 2438 1159 1844 
L 1159 0 
L 581 0 
L 581 3500 
L 1159 3500 
L 1159 2956 
Q 1341 3275 1631 3429 
Q 1922 3584 2338 3584 
Q 2397 3584 2469 3576 
Q 2541 3569 2628 3553 
L 2631 2963 
z
" transform="scale(0.015625)"/>
       <path id="DejaVuSans-63" d="M 3122 3366 
L 3122 2828 
Q 2878 2963 2633 3030 
Q 2388 3097 2138 3097 
Q 1578 3097 1268 2742 
Q 959 2388 959 1747 
Q 959 1106 1268 751 
Q 1578 397 2138 397 
Q 2388 397 2633 464 
Q 2878 531 3122 666 
L 3122 134 
Q 2881 22 2623 -34 
Q 2366 -91 2075 -91 
Q 1284 -91 818 406 
Q 353 903 353 1747 
Q 353 2603 823 3093 
Q 1294 3584 2113 3584 
Q 2378 3584 2631 3529 
Q 2884 3475 3122 3366 
z
" transform="scale(0.015625)"/>
       <path id="DejaVuSans-74" d="M 1172 4494 
L 1172 3500 
L 2356 3500 
L 2356 3053 
L 1172 3053 
L 1172 1153 
Q 1172 725 1289 603 
Q 1406 481 1766 481 
L 2356 481 
L 2356 0 
L 1766 0 
Q 1100 0 847 248 
Q 594 497 594 1153 
L 594 3053 
L 172 3053 
L 172 3500 
L 594 3500 
L 594 4494 
L 1172 4494 
z
" transform="scale(0.015625)"/>
       <path id="DejaVuSans-75" d="M 544 1381 
L 544 3500 
L 1119 3500 
L 1119 1403 
Q 1119 906 1312 657 
Q 1506 409 1894 409 
Q 2359 409 2629 706 
Q 2900 1003 2900 1516 
L 2900 3500 
L 3475 3500 
L 3475 0 
L 2900 0 
L 2900 538 
Q 2691 219 2414 64 
Q 2138 -91 1772 -91 
Q 1169 -91 856 284 
Q 544 659 544 1381 
z
M 1991 3584 
L 1991 3584 
z
" transform="scale(0.015625)"/>
       <path id="DejaVuSans-2c" d="M 750 794 
L 1409 794 
L 1409 256 
L 897 -744 
L 494 -744 
L 750 256 
L 750 794 
z
" transform="scale(0.015625)"/>
       <path id="DejaVuSans-70" d="M 1159 525 
L 1159 -1331 
L 581 -1331 
L 581 3500 
L 1159 3500 
L 1159 2969 
Q 1341 3281 1617 3432 
Q 1894 3584 2278 3584 
Q 2916 3584 3314 3078 
Q 3713 2572 3713 1747 
Q 3713 922 3314 415 
Q 2916 -91 2278 -91 
Q 1894 -91 1617 61 
Q 1341 213 1159 525 
z
M 3116 1747 
Q 3116 2381 2855 2742 
Q 2594 3103 2138 3103 
Q 1681 3103 1420 2742 
Q 1159 2381 1159 1747 
Q 1159 1113 1420 752 
Q 1681 391 2138 391 
Q 2594 391 2855 752 
Q 3116 1113 3116 1747 
z
" transform="scale(0.015625)"/>
      </defs>
      <use xlink:href="#DejaVuSans-46"/>
      <use xlink:href="#DejaVuSans-72" x="50.269531"/>
      <use xlink:href="#DejaVuSans-61" x="91.382812"/>
      <use xlink:href="#DejaVuSans-63" x="152.662109"/>
      <use xlink:href="#DejaVuSans-74" x="207.642578"/>
      <use xlink:href="#DejaVuSans-69" x="246.851562"/>
      <use xlink:href="#DejaVuSans-6f" x="274.634766"/>
      <use xlink:href="#DejaVuSans-6e" x="335.816406"/>
      <use xlink:href="#DejaVuSans-20" x="399.195312"/>
      <use xlink:href="#DejaVuSans-6f" x="430.982422"/>
      <use xlink:href="#DejaVuSans-66" x="492.164062"/>
      <use xlink:href="#DejaVuSans-20" x="527.369141"/>
      <use xlink:href="#DejaVuSans-66" x="559.15625"/>
      <use xlink:href="#DejaVuSans-75" x="594.361328"/>
      <use xlink:href="#DejaVuSans-6e" x="657.740234"/>
      <use xlink:href="#DejaVuSans-63" x="721.119141"/>
      <use xlink:href="#DejaVuSans-74" x="776.099609"/>
      <use xlink:href="#DejaVuSans-69" x="815.308594"/>
      <use xlink:href="#DejaVuSans-6f" x="843.091797"/>
      <use xlink:href="#DejaVuSans-6e" x="904.273438"/>
      <use xlink:href="#DejaVuSans-2c" x="967.652344"/>
      <use xlink:href="#DejaVuSans-74" x="999.439453"/>
      <use xlink:href="#DejaVuSans-61" x="1038.648438"/>
      <use xlink:href="#DejaVuSans-72" x="1099.927734"/>
      <use xlink:href="#DejaVuSans-67" x="1139.291016"/>
      <use xlink:href="#DejaVuSans-65" x="1202.767578"/>
      <use xlink:href="#DejaVuSans-74" x="1264.291016"/>
      <use xlink:href="#DejaVuSans-20" x="1303.5"/>
      <use xlink:href="#DejaVuSans-70" x="1335.287109"/>
      <use xlink:href="#DejaVuSans-61" x="1398.763672"/>
      <use xlink:href="#DejaVuSans-69" x="1460.042969"/>
      <use xlink:href="#DejaVuSans-72" x="1487.826172"/>
      <use xlink:href="#DejaVuSans-73" x="1528.939453"/>
     </g>
    </g>
   </g>
   <g id="line2d_33">
    <defs>
     <path id="m965388ffea" d="M 0 1.5 
C 0.397805 1.5 0.77937 1.341951 1.06066 1.06066 
C 1.341951 0.77937 1.5 0.397805 1.5 0 
C 1.5 -0.397805 1.341951 -0.77937 1.06066 -1.06066 
C 0.77937 -1.341951 0.397805 -1.5 0 -1.5 
C -0.397805 -1.5 -0.77937 -1.341951 -1.06066 -1.06066 
C -1.341951 -0.77937 -1.5 -0.397805 -1.5 0 
C -1.5 0.397805 -1.341951 0.77937 -1.06066 1.06066 
C -0.77937 1.341951 -0.397805 1.5 0 1.5 
z
" style="stroke: #f5deb3"/>
    </defs>
    <g>
     <use xlink:href="#m965388ffea" x="359.758801" y="42.157241" style="fill: #f5deb3; stroke: #f5deb3"/>
     <use xlink:href="#m965388ffea" x="359.758801" y="42.157241" style="fill: #f5deb3; stroke: #f5deb3"/>
    </g>
   </g>
   <g id="line2d_34">
    <defs>
     <path id="mcee948c45d" d="M 0 1.5 
C 0.397805 1.5 0.77937 1.341951 1.06066 1.06066 
C 1.341951 0.77937 1.5 0.397805 1.5 0 
C 1.5 -0.397805 1.341951 -0.77937 1.06066 -1.06066 
C 0.77937 -1.341951 0.397805 -1.5 0 -1.5 
C -0.397805 -1.5 -0.77937 -1.341951 -1.06066 -1.06066 
C -1.341951 -0.77937 -1.5 -0.397805 -1.5 0 
C -1.5 0.397805 -1.341951 0.77937 -1.06066 1.06066 
C -0.77937 1.341951 -0.397805 1.5 0 1.5 
z
" style="stroke: #000080"/>
    </defs>
    <g>
     <use xlink:href="#mcee948c45d" x="74.836851" y="276.622014" style="fill: #000080; stroke: #000080"/>
     <use xlink:href="#mcee948c45d" x="74.836851" y="276.622014" style="fill: #000080; stroke: #000080"/>
    </g>
   </g>
   <g id="line2d_35">
    <path d="M 1.245626 298.944 
L 1.245626 286.859917 
L 14.2848 286.859917 
L 14.2848 286.524248 
L 21.912228 286.524248 
L 21.912228 286.020745 
L 31.521651 286.020745 
L 31.521651 285.85291 
L 34.951403 285.85291 
L 34.951403 285.517241 
L 40.363149 285.517241 
L 40.363149 285.349407 
L 42.578831 285.349407 
L 42.578831 284.845903 
L 44.560826 284.845903 
L 44.560826 284.678069 
L 46.353758 284.678069 
L 46.353758 284.3424 
L 49.496305 284.3424 
L 49.496305 284.006731 
L 50.890391 284.006731 
L 50.890391 283.671062 
L 52.188254 283.671062 
L 52.188254 283.167559 
L 53.402323 283.167559 
L 53.402323 281.992717 
L 54.542767 281.992717 
L 54.542767 281.489214 
L 56.635094 281.489214 
L 56.635094 281.321379 
L 57.6 281.321379 
L 57.6 280.98571 
L 58.517819 280.98571 
L 58.517819 280.817876 
L 59.392932 280.817876 
L 59.392932 280.314372 
L 61.029752 280.314372 
L 61.029752 280.146538 
L 62.535479 280.146538 
L 62.535479 279.978703 
L 63.929565 279.978703 
L 63.929565 279.810869 
L 64.589687 279.810869 
L 64.589687 279.643034 
L 65.227428 279.643034 
L 65.227428 279.307366 
L 67.581941 279.307366 
L 67.581941 279.139531 
L 68.127242 279.139531 
L 68.127242 278.971697 
L 68.65718 278.971697 
L 68.65718 278.803862 
L 69.674268 278.803862 
L 69.674268 278.468193 
L 70.639174 278.468193 
L 70.639174 278.132524 
L 71.103681 278.132524 
L 71.103681 277.96469 
L 73.268314 277.96469 
L 73.268314 277.796855 
L 74.836851 277.796855 
L 74.836851 276.622014 
L 360.8064 276.622014 
" style="fill: none; stroke: #000080; stroke-width: 1.5; stroke-linecap: square"/>
   </g>
   <g id="line2d_36">
    <defs>
     <path id="m14a726c29a" d="M 0 6 
C 1.591219 6 3.117479 5.367802 4.242641 4.242641 
C 5.367802 3.117479 6 1.591219 6 0 
C 6 -1.591219 5.367802 -3.117479 4.242641 -4.242641 
C 3.117479 -5.367802 1.591219 -6 0 -6 
C -1.591219 -6 -3.117479 -5.367802 -4.242641 -4.242641 
C -5.367802 -3.117479 -6 -1.591219 -6 0 
C -6 1.591219 -5.367802 3.117479 -4.242641 4.242641 
C -3.117479 5.367802 -1.591219 6 0 6 
z
" style="stroke: #000080; stroke-width: 1.5"/>
    </defs>
    <g>
     <use xlink:href="#m14a726c29a" x="74.836851" y="277.796855" style="fill-opacity: 0; stroke: #000080; stroke-width: 1.5"/>
     <use xlink:href="#m14a726c29a" x="74.836851" y="277.796855" style="fill-opacity: 0; stroke: #000080; stroke-width: 1.5"/>
     <use xlink:href="#m14a726c29a" x="74.836851" y="276.622014" style="fill-opacity: 0; stroke: #000080; stroke-width: 1.5"/>
     <use xlink:href="#m14a726c29a" x="74.836851" y="276.622014" style="fill-opacity: 0; stroke: #000080; stroke-width: 1.5"/>
     <use xlink:href="#m14a726c29a" x="74.836851" y="276.622014" style="fill-opacity: 0; stroke: #000080; stroke-width: 1.5"/>
     <use xlink:href="#m14a726c29a" x="360.8064" y="276.622014" style="fill-opacity: 0; stroke: #000080; stroke-width: 1.5"/>
    </g>
   </g>
   <g id="line2d_37">
    <path style="fill: none; stroke: #000080; stroke-width: 1.5; stroke-linecap: square"/>
    <g/>
   </g>
   <g id="line2d_38">
    <path d="M 74.836851 276.622014 
" clip-path="url(#pe3abad42b1)" style="fill: none; stroke: #000080; stroke-width: 1.5; stroke-linecap: square"/>
    <defs>
     <path id="m83a945b873" d="M -12 12 
L 12 -12 
M -12 -12 
L 12 12 
" style="stroke: #000080"/>
    </defs>
    <g clip-path="url(#pe3abad42b1)">
     <use xlink:href="#m83a945b873" x="74.836851" y="276.622014" style="fill: #000080; stroke: #000080"/>
    </g>
   </g>
   <g id="line2d_39">
    <defs>
     <path id="meb83a31922" d="M 0 1.5 
C 0.397805 1.5 0.77937 1.341951 1.06066 1.06066 
C 1.341951 0.77937 1.5 0.397805 1.5 0 
C 1.5 -0.397805 1.341951 -0.77937 1.06066 -1.06066 
C 0.77937 -1.341951 0.397805 -1.5 0 -1.5 
C -0.397805 -1.5 -0.77937 -1.341951 -1.06066 -1.06066 
C -1.341951 -0.77937 -1.5 -0.397805 -1.5 0 
C -1.5 0.397805 -1.341951 0.77937 -1.06066 1.06066 
C -0.77937 1.341951 -0.397805 1.5 0 1.5 
z
" style="stroke: #ff00ff"/>
    </defs>
    <g>
     <use xlink:href="#meb83a31922" x="273.690682" y="172.061131" style="fill: #ff00ff; stroke: #ff00ff"/>
     <use xlink:href="#meb83a31922" x="273.690682" y="172.061131" style="fill: #ff00ff; stroke: #ff00ff"/>
    </g>
   </g>
   <g id="line2d_40">
    <path d="M 1.245626 298.944 
L 1.245626 286.859917 
L 27.323974 286.859917 
L 27.323974 286.692083 
L 31.521651 286.692083 
L 31.521651 286.356414 
L 34.951403 286.356414 
L 34.951403 286.188579 
L 46.353758 286.188579 
L 46.353758 286.020745 
L 49.496305 286.020745 
L 49.496305 285.85291 
L 50.890391 285.85291 
L 50.890391 285.181572 
L 53.402323 285.181572 
L 53.402323 285.013738 
L 54.542767 285.013738 
L 54.542767 284.678069 
L 55.618005 284.678069 
L 55.618005 284.510234 
L 58.517819 284.510234 
L 58.517819 284.3424 
L 61.029752 284.3424 
L 61.029752 284.174566 
L 62.535479 284.174566 
L 62.535479 284.006731 
L 63.245433 284.006731 
L 63.245433 283.838897 
L 64.589687 283.838897 
L 64.589687 283.503228 
L 65.227428 283.503228 
L 65.227428 283.335393 
L 66.441498 283.335393 
L 66.441498 283.167559 
L 67.020361 283.167559 
L 67.020361 282.999724 
L 68.127242 282.999724 
L 68.127242 282.83189 
L 73.268314 282.83189 
L 73.268314 282.496221 
L 75.93298 282.496221 
L 75.93298 282.160552 
L 80.342421 282.160552 
L 80.342421 281.992717 
L 81.433251 281.992717 
L 81.433251 281.824883 
L 83.441723 281.824883 
L 83.441723 281.657048 
L 84.142855 281.657048 
L 84.142855 281.489214 
L 86.510858 281.489214 
L 86.510858 281.321379 
L 87.1081 281.321379 
L 87.1081 281.153545 
L 87.495981 281.153545 
L 87.495981 280.98571 
L 87.876026 280.98571 
L 87.876026 280.817876 
L 91.46189 280.817876 
L 91.46189 280.650041 
L 91.922605 280.650041 
L 91.922605 280.482207 
L 92.372304 280.482207 
L 92.372304 280.314372 
L 93.240684 280.314372 
L 93.240684 280.146538 
L 94.604437 280.146538 
L 94.604437 279.978703 
L 94.735529 279.978703 
L 94.735529 279.810869 
L 95.123409 279.810869 
L 95.123409 279.643034 
L 95.377623 279.643034 
L 95.377623 279.4752 
L 95.628448 279.4752 
L 95.628448 279.307366 
L 97.18203 279.307366 
L 97.18203 279.139531 
L 100.535156 279.139531 
L 100.535156 278.971697 
L 100.820906 278.971697 
L 100.820906 278.803862 
L 101.379706 278.803862 
L 101.379706 278.636028 
L 102.099854 278.636028 
L 102.187964 278.132524 
L 102.708132 278.132524 
L 102.708132 277.96469 
L 103.214303 277.96469 
L 103.214303 277.629021 
L 104.028784 277.629021 
L 104.028784 277.461186 
L 104.809458 277.461186 
L 104.809458 277.293352 
L 105.485395 277.293352 
L 105.485395 277.125517 
L 105.99483 277.125517 
L 105.99483 276.454179 
L 106.905809 276.454179 
L 106.905809 276.11851 
L 107.774703 276.11851 
L 107.774703 275.950676 
L 109.340628 275.950676 
L 109.340628 275.782841 
L 110.73042 275.782841 
L 110.73042 275.615007 
L 112.989468 275.615007 
L 112.989468 275.447172 
L 114.418881 275.447172 
L 114.418881 275.279338 
L 114.737343 275.279338 
L 114.737343 275.111503 
L 118.561419 275.111503 
L 118.561419 274.943669 
L 120.846508 274.943669 
L 120.846508 274.775834 
L 121.985033 274.775834 
L 121.985033 274.608 
L 124.373813 274.608 
L 124.373813 274.440166 
L 124.535287 274.440166 
L 124.535287 274.272331 
L 126.946461 274.272331 
L 127.017049 273.936662 
L 127.157434 273.936662 
L 127.157434 273.768828 
L 128.893063 273.768828 
L 128.893063 273.600993 
L 129.86647 273.600993 
L 129.86647 273.265324 
L 130.344755 273.265324 
L 130.344755 273.09749 
L 130.695654 273.09749 
L 130.695654 272.929655 
L 131.4342 272.929655 
L 131.545292 272.593986 
L 132.126951 272.593986 
L 132.126951 272.426152 
L 132.269599 272.426152 
L 132.269599 272.090483 
L 132.777813 272.090483 
L 132.777813 271.922648 
L 132.967049 271.922648 
L 132.967049 271.754814 
L 133.103489 271.754814 
L 133.205173 271.419145 
L 133.950775 271.419145 
L 133.950775 271.25131 
L 134.080287 271.25131 
L 134.128625 270.747807 
L 134.22493 270.747807 
L 134.320744 270.076469 
L 134.336666 270.076469 
L 134.352574 269.7408 
L 134.808158 269.7408 
L 134.839175 269.405131 
L 135.403945 269.405131 
L 135.403945 269.237297 
L 135.583532 269.237297 
L 135.583532 269.069462 
L 135.864417 269.069462 
L 135.864417 268.901628 
L 136.328207 268.901628 
L 136.428155 268.398124 
L 136.513404 268.398124 
L 136.513404 268.23029 
L 136.906202 268.23029 
L 136.906202 268.062455 
L 137.099568 268.062455 
L 137.099568 267.894621 
L 137.358854 267.894621 
L 137.358854 267.726786 
L 137.534223 267.726786 
L 137.534223 267.558952 
L 137.893309 267.558952 
L 137.893309 267.391117 
L 138.024583 267.391117 
L 138.063788 266.719779 
L 138.141952 266.719779 
L 138.141952 266.551945 
L 138.425808 266.551945 
L 138.425808 266.216276 
L 138.768422 266.216276 
L 138.768422 266.048441 
L 139.277041 266.048441 
L 139.277041 265.880607 
L 139.423341 265.880607 
L 139.423341 265.712772 
L 139.985636 265.712772 
L 139.985636 265.544938 
L 140.335954 265.544938 
L 140.335954 265.377103 
L 140.462787 265.377103 
L 140.462787 265.209269 
L 141.696956 265.209269 
L 141.696956 264.8736 
L 142.112051 264.8736 
L 142.164612 264.370097 
L 142.466603 264.370097 
L 142.466603 264.202262 
L 142.672083 264.202262 
L 142.702713 263.866593 
L 142.814596 263.866593 
L 142.814596 263.698759 
L 142.986208 263.698759 
L 142.986208 263.530924 
L 143.305055 263.530924 
L 143.413423 263.195255 
L 143.618588 263.195255 
L 143.715505 262.859586 
L 143.850356 262.859586 
L 143.850356 262.691752 
L 144.012814 262.691752 
L 144.050836 262.188248 
L 144.685728 262.188248 
L 144.685728 262.020414 
L 144.968202 262.020414 
L 144.968202 261.684745 
L 145.166126 261.684745 
L 145.166126 261.51691 
L 145.317653 261.51691 
L 145.317653 261.349076 
L 145.721652 261.349076 
L 145.739021 261.013407 
L 145.894633 261.013407 
L 145.894633 260.677738 
L 146.057504 260.677738 
L 146.057504 260.509903 
L 146.579379 260.509903 
L 146.579379 260.342069 
L 147.399698 260.342069 
L 147.494826 260.0064 
L 147.518533 260.0064 
L 147.573734 259.670731 
L 147.667988 259.670731 
L 147.691478 259.167228 
L 147.800712 259.167228 
L 147.901578 258.663724 
L 148.147585 258.663724 
L 148.147585 258.49589 
L 148.322436 258.49589 
L 148.428077 257.488883 
L 148.495677 257.488883 
L 148.495677 257.321048 
L 148.925589 257.321048 
L 148.925589 256.985379 
L 149.252502 256.985379 
L 149.324384 256.64971 
L 149.580909 256.64971 
L 149.580909 256.314041 
L 149.840965 256.314041 
L 149.840965 256.146207 
L 150.673833 256.146207 
L 150.700525 255.810538 
L 150.952233 255.810538 
L 150.952233 255.642703 
L 151.122534 255.642703 
L 151.122534 255.307034 
L 151.317138 255.307034 
L 151.317138 255.1392 
L 151.50336 255.1392 
L 151.50336 254.971366 
L 152.0015 254.971366 
L 152.0015 254.635697 
L 152.218047 254.635697 
L 152.218047 254.467862 
L 152.395603 254.467862 
L 152.395603 254.300028 
L 152.685854 254.300028 
L 152.685854 254.132193 
L 152.853122 254.132193 
L 152.942122 253.796524 
L 153.247435 253.796524 
L 153.322995 253.125186 
L 153.438652 253.125186 
L 153.438652 252.957352 
L 153.610815 252.957352 
L 153.633651 252.453848 
L 153.730398 252.453848 
L 153.8097 251.950345 
L 153.956095 251.950345 
L 153.956095 251.614676 
L 154.184657 251.614676 
L 154.184657 251.279007 
L 154.366625 251.279007 
L 154.383081 250.439834 
L 154.757642 250.439834 
L 154.757642 250.272 
L 154.907535 250.272 
L 155.003269 249.936331 
L 155.072108 249.936331 
L 155.072108 249.768497 
L 155.350181 249.768497 
L 155.391799 249.264993 
L 155.690811 249.264993 
L 155.690811 249.097159 
L 155.85377 249.097159 
L 155.85377 248.76149 
L 156.000243 248.76149 
L 156.085579 247.922317 
L 156.200421 247.922317 
L 156.200421 247.754483 
L 156.55546 247.754483 
L 156.55546 247.586648 
L 156.923092 247.586648 
L 156.923092 247.250979 
L 157.056745 247.250979 
L 157.056745 246.91531 
L 157.198899 246.91531 
L 157.198899 246.579641 
L 157.53111 246.579641 
L 157.586683 245.908303 
L 157.69734 245.908303 
L 157.770751 245.4048 
L 157.87578 245.4048 
L 157.884885 245.069131 
L 158.07959 245.069131 
L 158.13806 244.565628 
L 158.290128 244.565628 
L 158.339064 243.89429 
L 158.423292 243.89429 
L 158.423292 243.726455 
L 158.542339 243.726455 
L 158.542339 243.390786 
L 158.864805 243.390786 
L 158.864805 243.055117 
L 159.032556 243.055117 
L 159.053954 242.215945 
L 159.321512 242.215945 
L 159.321512 242.04811 
L 159.655874 242.04811 
L 159.672437 241.376772 
L 159.824959 241.376772 
L 159.824959 241.041103 
L 160.061585 241.041103 
L 160.061585 240.873269 
L 160.20295 240.873269 
L 160.20295 240.705434 
L 160.35923 240.705434 
L 160.454761 239.194924 
L 160.510264 239.194924 
L 160.545858 238.859255 
L 160.671872 238.859255 
L 160.67972 238.523586 
L 160.92527 238.523586 
L 160.92527 238.355752 
L 161.31236 238.355752 
L 161.354042 238.020083 
L 161.646981 238.020083 
L 161.646981 237.852248 
L 161.909721 237.852248 
L 162.015991 237.516579 
L 162.092572 237.516579 
L 162.114395 237.013076 
L 162.377902 237.013076 
L 162.453027 236.677407 
L 162.534963 236.677407 
L 162.581118 236.006069 
L 162.704821 236.006069 
L 162.722426 235.334731 
L 162.921974 235.334731 
L 162.96024 234.831228 
L 163.129762 234.831228 
L 163.171045 234.495559 
L 163.263603 234.495559 
L 163.263603 234.15989 
L 163.430425 234.15989 
L 163.528464 233.656386 
L 163.589059 233.656386 
L 163.589059 233.488552 
L 163.922193 233.488552 
L 163.922193 233.320717 
L 164.191027 233.320717 
L 164.236544 232.817214 
L 164.423951 232.817214 
L 164.423951 232.481545 
L 164.545729 232.481545 
L 164.647672 231.978041 
L 164.733259 231.978041 
L 164.834193 231.642372 
L 164.846771 231.642372 
L 164.934588 230.971034 
L 165.068656 230.971034 
L 165.068656 230.8032 
L 165.269521 230.8032 
L 165.269521 230.635366 
L 165.640833 230.635366 
L 165.728029 230.131862 
L 165.901215 230.131862 
L 165.901215 229.964028 
L 166.019732 229.964028 
L 166.1287 229.628359 
L 166.23704 229.628359 
L 166.274957 229.124855 
L 166.359269 229.124855 
L 166.359269 228.789186 
L 166.638561 228.789186 
L 166.735484 228.453517 
L 166.829081 228.453517 
L 166.829081 228.285683 
L 167.207201 228.285683 
L 167.312278 227.614345 
L 167.47427 227.614345 
L 167.47427 227.278676 
L 167.804877 227.278676 
L 167.804877 226.943007 
L 167.962699 226.943007 
L 167.962699 226.775172 
L 168.402371 226.775172 
L 168.493229 226.271669 
L 168.923343 226.271669 
L 168.938524 225.768166 
L 169.092171 225.768166 
L 169.092171 225.432497 
L 169.594634 225.432497 
L 169.594634 225.096828 
L 169.851766 225.096828 
L 169.851766 224.761159 
L 170.00294 224.761159 
L 170.00294 224.42549 
L 170.238073 224.42549 
L 170.238073 224.089821 
L 170.61892 224.089821 
L 170.685877 223.418483 
L 171.042029 223.418483 
L 171.042029 223.082814 
L 171.313705 223.082814 
L 171.391563 222.411476 
L 171.594694 222.411476 
L 171.601281 221.740138 
L 171.776091 221.740138 
L 171.776091 221.404469 
L 172.033151 221.404469 
L 172.033151 221.0688 
L 172.184867 221.0688 
L 172.184867 220.733131 
L 172.371226 220.733131 
L 172.419631 220.061793 
L 172.576613 220.061793 
L 172.576613 219.893959 
L 173.191759 219.893959 
L 173.191759 219.726124 
L 173.352457 219.726124 
L 173.352457 219.390455 
L 173.972187 219.390455 
L 173.972187 219.222621 
L 174.260272 219.222621 
L 174.260272 218.886952 
L 174.525228 218.886952 
L 174.525228 218.551283 
L 174.777234 218.551283 
L 174.777234 218.215614 
L 175.00577 218.215614 
L 175.00577 218.047779 
L 175.258693 218.047779 
L 175.258693 217.71211 
L 175.442151 217.71211 
L 175.442151 217.376441 
L 175.607877 217.376441 
L 175.634471 216.705103 
L 176.471294 216.705103 
L 176.471294 216.537269 
L 176.613103 216.537269 
L 176.613103 216.2016 
L 176.818842 216.2016 
L 176.818842 215.865931 
L 176.999302 215.865931 
L 176.999302 215.698097 
L 177.578514 215.698097 
L 177.578514 215.530262 
L 177.931474 215.530262 
L 177.931474 215.362428 
L 178.910644 215.362428 
L 178.910644 215.194593 
L 179.283512 215.194593 
L 179.283512 214.858924 
L 179.659149 214.858924 
L 179.659149 214.523255 
L 179.890875 214.523255 
L 179.890875 214.187586 
L 180.179707 214.187586 
L 180.179707 213.851917 
L 180.327999 213.851917 
L 180.327999 213.516248 
L 180.517545 213.516248 
L 180.517545 213.180579 
L 180.865528 213.180579 
L 180.865528 212.84491 
L 181.392038 212.84491 
L 181.392038 212.677076 
L 181.531109 212.677076 
L 181.531109 212.341407 
L 182.177696 212.341407 
L 182.177696 212.005738 
L 182.342132 212.005738 
L 182.342132 211.670069 
L 183.030161 211.670069 
L 183.07793 211.166566 
L 183.270165 211.166566 
L 183.270165 210.830897 
L 183.671967 210.830897 
L 183.671967 210.663062 
L 183.819311 210.663062 
L 183.866264 210.327393 
L 184.30154 210.327393 
L 184.30154 210.159559 
L 185.095911 210.159559 
L 185.095911 209.991724 
L 185.779737 209.991724 
L 185.779737 209.656055 
L 186.807045 209.656055 
L 186.807045 209.488221 
L 187.453197 209.488221 
L 187.542778 208.816883 
L 187.743022 208.816883 
L 187.743022 208.649048 
L 188.306902 208.649048 
L 188.306902 208.313379 
L 189.338532 208.313379 
L 189.338532 208.145545 
L 189.509621 208.145545 
L 189.561237 207.809876 
L 189.650596 207.809876 
L 189.696794 207.474207 
L 189.852193 207.474207 
L 189.852193 207.138538 
L 190.544852 207.138538 
L 190.544852 206.970703 
L 191.934927 206.970703 
L 192.019647 206.635034 
L 192.801744 206.635034 
L 192.801744 206.299366 
L 193.265435 206.299366 
L 193.265435 205.963697 
L 194.197558 205.963697 
L 194.197558 205.795862 
L 194.570283 205.795862 
L 194.570283 205.628028 
L 195.130969 205.628028 
L 195.130969 205.292359 
L 195.263732 205.292359 
L 195.263732 204.95669 
L 195.960206 204.95669 
L 195.987248 204.453186 
L 197.090955 204.453186 
L 197.140721 204.117517 
L 198.260023 204.117517 
L 198.265344 203.614014 
L 199.479247 203.614014 
L 199.479247 203.446179 
L 199.78498 203.446179 
L 199.78498 203.11051 
L 200.851411 203.11051 
L 200.851411 202.774841 
L 201.71902 202.774841 
L 201.71902 202.439172 
L 203.709116 202.439172 
L 203.709116 202.103503 
L 205.203963 202.103503 
L 205.203963 201.767834 
L 205.772154 201.767834 
L 205.772154 201.432166 
L 206.580513 201.432166 
L 206.580513 201.264331 
L 207.301672 201.264331 
L 207.301672 200.928662 
L 207.446237 200.928662 
L 207.446237 200.592993 
L 207.866678 200.592993 
L 207.866678 200.257324 
L 209.057922 200.257324 
L 209.057922 200.08949 
L 209.244037 200.08949 
L 209.244037 199.753821 
L 210.322524 199.753821 
L 210.322524 199.418152 
L 210.570588 199.418152 
L 210.570588 199.082483 
L 212.419408 199.082483 
L 212.419408 198.914648 
L 212.577183 198.914648 
L 212.577183 198.746814 
L 213.457675 198.746814 
L 213.457675 198.411145 
L 213.96301 198.411145 
L 214.022269 197.907641 
L 214.123064 197.907641 
L 214.162409 197.404138 
L 214.607939 197.404138 
L 214.607939 197.236303 
L 215.625004 197.236303 
L 215.625004 196.900634 
L 216.229559 196.900634 
L 216.229559 196.7328 
L 216.396286 196.7328 
L 216.488794 196.229297 
L 216.705621 196.229297 
L 216.705621 196.061462 
L 218.123745 196.061462 
L 218.123745 195.893628 
L 218.719009 195.893628 
L 218.719009 195.725793 
L 219.69868 195.725793 
L 219.69868 195.557959 
L 220.096908 195.557959 
L 220.096908 195.390124 
L 220.351374 195.390124 
L 220.351374 195.054455 
L 220.513637 195.054455 
L 220.591406 194.383117 
L 221.140218 194.383117 
L 221.140218 194.047448 
L 221.259684 194.047448 
L 221.259684 193.711779 
L 221.742323 193.711779 
L 221.742323 193.543945 
L 221.885036 193.543945 
L 221.949495 193.040441 
L 223.052858 193.040441 
L 223.052858 192.704772 
L 223.265747 192.704772 
L 223.265747 192.369103 
L 223.530354 192.369103 
L 223.530354 192.201269 
L 223.866198 192.201269 
L 223.866198 192.033434 
L 224.60665 192.033434 
L 224.60665 191.8656 
L 225.011078 191.8656 
L 225.011078 191.697766 
L 225.643311 191.697766 
L 225.643311 191.529931 
L 225.796965 191.529931 
L 225.796965 191.362097 
L 226.110733 191.362097 
L 226.110733 191.194262 
L 227.402735 191.194262 
L 227.490362 190.858593 
L 227.719724 190.858593 
L 227.719724 190.690759 
L 228.309268 190.690759 
L 228.309268 190.35509 
L 229.084292 190.35509 
L 229.178436 190.019421 
L 229.679309 190.019421 
L 229.679309 189.851586 
L 230.414126 189.851586 
L 230.414126 189.683752 
L 231.232949 189.683752 
L 231.232949 189.515917 
L 232.40186 189.515917 
L 232.40186 189.348083 
L 232.632943 189.348083 
L 232.632943 189.012414 
L 233.142582 189.012414 
L 233.243288 188.50891 
L 233.578716 188.50891 
L 233.580751 188.005407 
L 233.801498 188.005407 
L 233.885056 187.166234 
L 234.611359 187.166234 
L 234.611359 186.9984 
L 236.308372 186.9984 
L 236.308372 186.830566 
L 236.493061 186.830566 
L 236.493061 186.662731 
L 237.691149 186.662731 
L 237.691149 186.494897 
L 238.145897 186.494897 
L 238.221797 186.159228 
L 238.326635 186.159228 
L 238.326635 185.823559 
L 238.448682 185.823559 
L 238.448682 185.655724 
L 238.598391 185.655724 
L 238.598391 185.48789 
L 238.776027 185.48789 
L 238.776027 185.152221 
L 238.927391 185.152221 
L 238.927391 184.984386 
L 239.579387 184.984386 
L 239.579387 184.816552 
L 240.67909 184.816552 
L 240.67909 184.648717 
L 241.609568 184.648717 
L 241.609568 184.313048 
L 242.227431 184.313048 
L 242.227431 184.145214 
L 242.802924 184.145214 
L 242.802924 183.977379 
L 243.378167 183.977379 
L 243.378167 183.809545 
L 243.727531 183.809545 
L 243.727531 183.473876 
L 243.842464 183.473876 
L 243.842464 183.306041 
L 244.713639 183.306041 
L 244.713639 183.138207 
L 245.65139 183.138207 
L 245.65139 182.970372 
L 245.807266 182.970372 
L 245.807266 182.634703 
L 246.016488 182.634703 
L 246.11783 182.1312 
L 246.347444 182.1312 
L 246.431655 181.627697 
L 247.040321 181.627697 
L 247.151072 181.124193 
L 247.881625 181.124193 
L 247.881625 180.788524 
L 248.316729 180.788524 
L 248.316729 180.62069 
L 248.528873 180.62069 
L 248.539092 180.285021 
L 248.678192 180.285021 
L 248.678192 180.117186 
L 248.974506 180.117186 
L 248.974506 179.949352 
L 249.199635 179.949352 
L 249.199635 179.781517 
L 249.453425 179.781517 
L 249.453425 179.613683 
L 249.775654 179.613683 
L 249.775654 179.278014 
L 250.16382 179.278014 
L 250.16382 179.110179 
L 250.809901 179.110179 
L 250.809901 178.77451 
L 251.049656 178.77451 
L 251.049656 178.606676 
L 251.205558 178.606676 
L 251.222932 178.103172 
L 251.99301 178.103172 
L 251.99301 177.935338 
L 252.196678 177.935338 
L 252.303513 177.599669 
L 253.039554 177.599669 
L 253.039554 177.431834 
L 254.183159 177.431834 
L 254.183159 177.264 
L 254.707638 177.264 
L 254.779225 176.928331 
L 255.708016 176.928331 
L 255.708016 176.760497 
L 256.720421 176.760497 
L 256.720421 176.592662 
L 258.0656 176.592662 
L 258.0656 176.424828 
L 258.777175 176.424828 
L 258.777175 176.089159 
L 260.241236 176.089159 
L 260.241236 175.921324 
L 261.629977 175.921324 
L 261.629977 175.75349 
L 261.850682 175.75349 
L 261.93691 175.417821 
L 262.637407 175.417821 
L 262.637407 175.249986 
L 263.024772 175.249986 
L 263.024772 175.082152 
L 263.546144 175.082152 
L 263.61673 174.746483 
L 264.483198 174.746483 
L 264.483198 174.578648 
L 264.945088 174.578648 
L 264.945088 174.410814 
L 266.89914 174.410814 
L 266.89914 174.075145 
L 269.203661 174.075145 
L 269.203661 173.739476 
L 269.807007 173.739476 
L 269.807007 173.403807 
L 270.179282 173.403807 
L 270.179282 173.235972 
L 270.34126 173.235972 
L 270.352156 172.732469 
L 272.310142 172.732469 
L 272.310142 172.3968 
L 273.690682 172.3968 
L 273.690682 172.061131 
L 360.8064 172.061131 
L 360.8064 172.061131 
" style="fill: none; stroke: #ff00ff; stroke-width: 1.5; stroke-linecap: square"/>
   </g>
   <g id="line2d_41">
    <defs>
     <path id="me64d8469a5" d="M 0 8.485281 
L 5.091169 0 
L 0 -8.485281 
L -5.091169 0 
z
" style="stroke: #ff00ff; stroke-width: 1.5; stroke-linejoin: miter"/>
    </defs>
    <g>
     <use xlink:href="#me64d8469a5" x="145.721652" y="261.349076" style="fill-opacity: 0; stroke: #ff00ff; stroke-width: 1.5; stroke-linejoin: miter"/>
     <use xlink:href="#me64d8469a5" x="209.244037" y="200.08949" style="fill-opacity: 0; stroke: #ff00ff; stroke-width: 1.5; stroke-linejoin: miter"/>
     <use xlink:href="#me64d8469a5" x="273.690682" y="172.3968" style="fill-opacity: 0; stroke: #ff00ff; stroke-width: 1.5; stroke-linejoin: miter"/>
     <use xlink:href="#me64d8469a5" x="273.690682" y="172.061131" style="fill-opacity: 0; stroke: #ff00ff; stroke-width: 1.5; stroke-linejoin: miter"/>
     <use xlink:href="#me64d8469a5" x="360.8064" y="172.061131" style="fill-opacity: 0; stroke: #ff00ff; stroke-width: 1.5; stroke-linejoin: miter"/>
    </g>
   </g>
   <g id="line2d_42">
    <path style="fill: none; stroke: #ff00ff; stroke-width: 1.5; stroke-linecap: square"/>
    <g/>
   </g>
   <g id="line2d_43">
    <path d="M 274.176009 172.061131 
" clip-path="url(#pe3abad42b1)" style="fill: none; stroke: #ff00ff; stroke-width: 1.5; stroke-linecap: square"/>
    <defs>
     <path id="mbc008f9cc7" d="M -12 12 
L 12 -12 
M -12 -12 
L 12 12 
" style="stroke: #ff00ff"/>
    </defs>
    <g clip-path="url(#pe3abad42b1)">
     <use xlink:href="#mbc008f9cc7" x="274.176009" y="172.061131" style="fill: #ff00ff; stroke: #ff00ff"/>
    </g>
   </g>
   <g id="line2d_44">
    <defs>
     <path id="mdac4192e47" d="M 0 1.5 
C 0.397805 1.5 0.77937 1.341951 1.06066 1.06066 
C 1.341951 0.77937 1.5 0.397805 1.5 0 
C 1.5 -0.397805 1.341951 -0.77937 1.06066 -1.06066 
C 0.77937 -1.341951 0.397805 -1.5 0 -1.5 
C -0.397805 -1.5 -0.77937 -1.341951 -1.06066 -1.06066 
C -1.341951 -0.77937 -1.5 -0.397805 -1.5 0 
C -1.5 0.397805 -1.341951 0.77937 -1.06066 1.06066 
C -0.77937 1.341951 -0.397805 1.5 0 1.5 
z
" style="stroke: #6495ed"/>
    </defs>
    <g>
     <use xlink:href="#mdac4192e47" x="113.954374" y="241.712441" style="fill: #6495ed; stroke: #6495ed"/>
     <use xlink:href="#mdac4192e47" x="113.954374" y="241.712441" style="fill: #6495ed; stroke: #6495ed"/>
    </g>
   </g>
   <g id="line2d_45">
    <path d="M 1.245626 298.944 
L 1.245626 296.426483 
L 14.2848 296.426483 
L 14.2848 295.922979 
L 21.912228 295.922979 
L 21.912228 295.419476 
L 27.323974 295.419476 
L 27.323974 295.251641 
L 31.521651 295.251641 
L 31.521651 294.915972 
L 34.951403 294.915972 
L 34.951403 294.412469 
L 37.851216 294.412469 
L 37.851216 294.0768 
L 40.363149 294.0768 
L 40.363149 293.405462 
L 42.578831 293.405462 
L 42.578831 292.734124 
L 46.353758 292.734124 
L 46.353758 292.062786 
L 47.990577 292.062786 
L 47.990577 291.055779 
L 49.496305 291.055779 
L 49.496305 290.887945 
L 50.890391 290.887945 
L 50.890391 290.384441 
L 52.188254 290.384441 
L 52.188254 289.880938 
L 56.635094 289.880938 
L 56.635094 289.2096 
L 59.392932 289.2096 
L 59.392932 289.041766 
L 63.245433 289.041766 
L 63.245433 288.873931 
L 65.844256 288.873931 
L 65.844256 288.370428 
L 66.441498 288.370428 
L 66.441498 288.034759 
L 67.020361 288.034759 
L 67.020361 287.866924 
L 68.65718 287.866924 
L 68.65718 287.69909 
L 70.639174 287.69909 
L 70.639174 287.531255 
L 72.432107 287.531255 
L 72.432107 287.363421 
L 76.284608 287.363421 
L 76.284608 287.195586 
L 76.96874 287.195586 
L 76.96874 287.027752 
L 78.266603 287.027752 
L 78.266603 286.859917 
L 78.88343 286.859917 
L 78.88343 286.524248 
L 79.184421 286.524248 
L 79.184421 286.020745 
L 80.621116 286.020745 
L 80.621116 285.85291 
L 80.895742 285.85291 
L 80.895742 285.685076 
L 81.955828 285.685076 
L 81.955828 285.517241 
L 82.464279 285.517241 
L 82.464279 285.349407 
L 84.370877 285.349407 
L 84.370877 285.181572 
L 87.686963 285.181572 
L 87.686963 285.013738 
L 88.432072 285.013738 
L 88.432072 284.845903 
L 89.14879 284.845903 
L 89.14879 284.678069 
L 90.989609 284.678069 
L 90.989609 284.510234 
L 91.616719 284.510234 
L 91.616719 284.3424 
L 91.770283 284.3424 
L 91.770283 284.174566 
L 92.372304 284.174566 
L 92.372304 284.006731 
L 93.521459 284.006731 
L 93.521459 283.838897 
L 94.472426 283.838897 
L 94.472426 283.671062 
L 96.599582 283.671062 
L 96.599582 283.503228 
L 97.296386 283.503228 
L 97.296386 283.335393 
L 98.18704 283.335393 
L 98.18704 283.167559 
L 99.650899 283.167559 
L 99.650899 282.999724 
L 101.743226 282.999724 
L 101.743226 282.664055 
L 102.011329 282.664055 
L 102.011329 282.496221 
L 103.214303 282.496221 
L 103.214303 282.328386 
L 103.462371 282.328386 
L 103.462371 282.160552 
L 103.625951 282.160552 
L 103.625951 281.657048 
L 103.788121 281.657048 
L 103.868684 280.98571 
L 103.948904 280.98571 
L 104.028784 280.482207 
L 104.108325 280.482207 
L 104.187532 279.307366 
L 104.266406 279.307366 
L 104.344952 277.796855 
L 104.42317 277.796855 
L 104.501065 276.622014 
L 104.578638 276.622014 
L 104.655893 275.447172 
L 104.809458 275.447172 
L 104.885773 273.600993 
L 104.961779 273.600993 
L 105.037479 271.586979 
L 105.112877 271.586979 
L 105.112877 271.25131 
L 105.26277 271.25131 
L 105.337272 270.076469 
L 105.411479 270.076469 
L 105.485395 269.069462 
L 105.559021 269.069462 
L 105.632361 268.062455 
L 105.778187 268.062455 
L 105.850679 267.223283 
L 105.922892 267.223283 
L 105.99483 266.551945 
L 106.066493 266.551945 
L 106.137884 265.712772 
L 106.209005 265.712772 
L 106.279859 264.537931 
L 106.350446 264.537931 
L 106.42077 263.866593 
L 106.490831 263.866593 
L 106.560633 263.195255 
L 106.630177 263.195255 
L 106.630177 262.356083 
L 106.768498 262.356083 
L 106.768498 262.188248 
L 106.905809 262.188248 
L 106.974091 261.181241 
L 107.109915 261.181241 
L 107.177461 260.0064 
L 107.244765 260.0064 
L 107.31183 258.831559 
L 107.378656 258.831559 
L 107.378656 258.663724 
L 107.5116 258.663724 
L 107.577722 257.992386 
L 107.643612 257.992386 
L 107.709271 257.488883 
L 107.774703 257.488883 
L 107.839908 257.153214 
L 107.904887 257.153214 
L 107.904887 256.817545 
L 108.034177 256.817545 
L 108.09849 256.314041 
L 108.162584 256.314041 
L 108.22646 255.810538 
L 108.29012 255.810538 
L 108.353566 255.307034 
L 108.416798 255.307034 
L 108.416798 254.971366 
L 108.542628 254.971366 
L 108.605229 253.964359 
L 108.729809 253.964359 
L 108.791791 253.62869 
L 108.85357 253.62869 
L 108.915146 252.621683 
L 109.159456 252.621683 
L 109.22004 252.118179 
L 109.280431 252.118179 
L 109.340628 251.78251 
L 109.400633 251.78251 
L 109.460447 251.111172 
L 109.520071 251.111172 
L 109.520071 250.943338 
L 109.638757 250.943338 
L 109.69782 250.607669 
L 109.756698 250.607669 
L 109.756698 250.439834 
L 109.990385 250.439834 
L 109.990385 249.768497 
L 110.106149 249.768497 
L 110.163764 248.76149 
L 110.335561 248.76149 
L 110.392479 248.257986 
L 110.505802 248.257986 
L 110.505802 247.922317 
L 110.618446 247.922317 
L 110.674517 247.586648 
L 110.786158 247.586648 
L 110.897141 247.083145 
L 111.062397 247.083145 
L 111.171767 246.243972 
L 111.226215 246.243972 
L 111.226215 246.076138 
L 111.442442 246.076138 
L 111.442442 245.740469 
L 111.602996 245.740469 
L 111.709277 244.565628 
L 111.920053 244.565628 
L 111.920053 244.397793 
L 112.076599 244.397793 
L 112.128493 243.726455 
L 112.385837 243.726455 
L 112.487797 243.390786 
L 112.790402 243.390786 
L 112.890198 242.887283 
L 113.038907 242.887283 
L 113.038907 242.383779 
L 113.332844 242.383779 
L 113.332844 242.215945 
L 113.717748 242.215945 
L 113.717748 241.880276 
L 113.954374 241.880276 
L 113.954374 241.712441 
L 360.8064 241.712441 
L 360.8064 241.712441 
" style="fill: none; stroke: #6495ed; stroke-width: 1.5; stroke-linecap: square"/>
   </g>
   <g id="line2d_46">
    <defs>
     <path id="m67bc51e947" d="M -0 6 
L 6 -6 
L -6 -6 
z
" style="stroke: #6495ed; stroke-width: 1.5; stroke-linejoin: miter"/>
    </defs>
    <g>
     <use xlink:href="#m67bc51e947" x="113.954374" y="241.880276" style="fill-opacity: 0; stroke: #6495ed; stroke-width: 1.5; stroke-linejoin: miter"/>
     <use xlink:href="#m67bc51e947" x="113.954374" y="241.880276" style="fill-opacity: 0; stroke: #6495ed; stroke-width: 1.5; stroke-linejoin: miter"/>
     <use xlink:href="#m67bc51e947" x="113.954374" y="241.712441" style="fill-opacity: 0; stroke: #6495ed; stroke-width: 1.5; stroke-linejoin: miter"/>
     <use xlink:href="#m67bc51e947" x="113.954374" y="241.712441" style="fill-opacity: 0; stroke: #6495ed; stroke-width: 1.5; stroke-linejoin: miter"/>
     <use xlink:href="#m67bc51e947" x="360.8064" y="241.712441" style="fill-opacity: 0; stroke: #6495ed; stroke-width: 1.5; stroke-linejoin: miter"/>
    </g>
   </g>
   <g id="line2d_47">
    <path style="fill: none; stroke: #6495ed; stroke-width: 1.5; stroke-linecap: square"/>
    <g/>
   </g>
   <g id="line2d_48">
    <path d="M 113.954374 241.712441 
" clip-path="url(#pe3abad42b1)" style="fill: none; stroke: #6495ed; stroke-width: 1.5; stroke-linecap: square"/>
    <defs>
     <path id="m400f8af186" d="M -12 12 
L 12 -12 
M -12 -12 
L 12 12 
" style="stroke: #6495ed"/>
    </defs>
    <g clip-path="url(#pe3abad42b1)">
     <use xlink:href="#m400f8af186" x="113.954374" y="241.712441" style="fill: #6495ed; stroke: #6495ed"/>
    </g>
   </g>
   <g id="line2d_49">
    <path d="M 360.8064 276.622014 
L 380.514816 293.10336 
" style="fill: none; stroke: #000080; stroke-width: 1.5; stroke-linecap: square"/>
    <g>
     <use xlink:href="#m14a726c29a" x="360.8064" y="276.622014" style="fill-opacity: 0; stroke: #000080; stroke-width: 1.5"/>
     <use xlink:href="#m14a726c29a" x="380.514816" y="293.10336" style="fill-opacity: 0; stroke: #000080; stroke-width: 1.5"/>
    </g>
   </g>
   <g id="line2d_50">
    <path d="M 360.8064 241.712441 
L 380.514816 199.65312 
" style="fill: none; stroke: #6495ed; stroke-width: 1.5; stroke-linecap: square"/>
    <g>
     <use xlink:href="#m67bc51e947" x="360.8064" y="241.712441" style="fill-opacity: 0; stroke: #6495ed; stroke-width: 1.5; stroke-linejoin: miter"/>
     <use xlink:href="#m67bc51e947" x="380.514816" y="199.65312" style="fill-opacity: 0; stroke: #6495ed; stroke-width: 1.5; stroke-linejoin: miter"/>
    </g>
   </g>
   <g id="line2d_51">
    <path d="M 360.8064 172.061131 
L 380.514816 106.20288 
" style="fill: none; stroke: #ff00ff; stroke-width: 1.5; stroke-linecap: square"/>
    <g>
     <use xlink:href="#me64d8469a5" x="360.8064" y="172.061131" style="fill-opacity: 0; stroke: #ff00ff; stroke-width: 1.5; stroke-linejoin: miter"/>
     <use xlink:href="#me64d8469a5" x="380.514816" y="106.20288" style="fill-opacity: 0; stroke: #ff00ff; stroke-width: 1.5; stroke-linejoin: miter"/>
    </g>
   </g>
   <g id="line2d_52">
    <path d="M 360.8064 298.944 
L 360.8064 6.912 
" style="fill: none; stroke: #000000; stroke-width: 1.5; stroke-linecap: square"/>
   </g>
   <g id="patch_3">
    <path d="M 57.6 298.944 
L 360.8064 298.944 
" style="fill: none; stroke: #000000; stroke-width: 0.8; stroke-linejoin: miter; stroke-linecap: square"/>
   </g>
   <g id="patch_4">
    <path d="M 57.6 6.912 
L 360.8064 6.912 
" style="fill: none; stroke: #000000; stroke-width: 0.8; stroke-linejoin: miter; stroke-linecap: square"/>
   </g>
   <g id="text_13">
    <!-- cma -->
    <g transform="translate(386.578944 296.966485)scale(0.14 -0.14)">
     <use xlink:href="#DejaVuSans-63"/>
     <use xlink:href="#DejaVuSans-6d" x="54.980469"/>
     <use xlink:href="#DejaVuSans-61" x="152.392578"/>
    </g>
   </g>
   <g id="text_14">
    <!-- parEgo -->
    <g transform="translate(386.578944 203.516245)scale(0.14 -0.14)">
     <defs>
      <path id="DejaVuSans-45" d="M 628 4666 
L 3578 4666 
L 3578 4134 
L 1259 4134 
L 1259 2753 
L 3481 2753 
L 3481 2222 
L 1259 2222 
L 1259 531 
L 3634 531 
L 3634 0 
L 628 0 
L 628 4666 
z
" transform="scale(0.015625)"/>
     </defs>
     <use xlink:href="#DejaVuSans-70"/>
     <use xlink:href="#DejaVuSans-61" x="63.476562"/>
     <use xlink:href="#DejaVuSans-72" x="124.755859"/>
     <use xlink:href="#DejaVuSans-45" x="165.869141"/>
     <use xlink:href="#DejaVuSans-67" x="229.052734"/>
     <use xlink:href="#DejaVuSans-6f" x="292.529297"/>
    </g>
   </g>
   <g id="text_15">
    <!-- external- -->
    <g transform="translate(386.578944 110.066005)scale(0.14 -0.14)">
     <defs>
      <path id="DejaVuSans-78" d="M 3513 3500 
L 2247 1797 
L 3578 0 
L 2900 0 
L 1881 1375 
L 863 0 
L 184 0 
L 1544 1831 
L 300 3500 
L 978 3500 
L 1906 2253 
L 2834 3500 
L 3513 3500 
z
" transform="scale(0.015625)"/>
     </defs>
     <use xlink:href="#DejaVuSans-65"/>
     <use xlink:href="#DejaVuSans-78" x="59.773438"/>
     <use xlink:href="#DejaVuSans-74" x="118.953125"/>
     <use xlink:href="#DejaVuSans-65" x="158.162109"/>
     <use xlink:href="#DejaVuSans-72" x="219.685547"/>
     <use xlink:href="#DejaVuSans-6e" x="259.048828"/>
     <use xlink:href="#DejaVuSans-61" x="322.427734"/>
     <use xlink:href="#DejaVuSans-6c" x="383.707031"/>
     <use xlink:href="#DejaVuSans-2d" x="411.490234"/>
    </g>
   </g>
   <g id="text_16">
    <!-- best 2016 -->
    <g transform="translate(386.578944 16.615765)scale(0.14 -0.14)">
     <defs>
      <path id="DejaVuSans-62" d="M 3116 1747 
Q 3116 2381 2855 2742 
Q 2594 3103 2138 3103 
Q 1681 3103 1420 2742 
Q 1159 2381 1159 1747 
Q 1159 1113 1420 752 
Q 1681 391 2138 391 
Q 2594 391 2855 752 
Q 3116 1113 3116 1747 
z
M 1159 2969 
Q 1341 3281 1617 3432 
Q 1894 3584 2278 3584 
Q 2916 3584 3314 3078 
Q 3713 2572 3713 1747 
Q 3713 922 3314 415 
Q 2916 -91 2278 -91 
Q 1894 -91 1617 61 
Q 1341 213 1159 525 
L 1159 0 
L 581 0 
L 581 4863 
L 1159 4863 
L 1159 2969 
z
" transform="scale(0.015625)"/>
     </defs>
     <use xlink:href="#DejaVuSans-62"/>
     <use xlink:href="#DejaVuSans-65" x="63.476562"/>
     <use xlink:href="#DejaVuSans-73" x="125"/>
     <use xlink:href="#DejaVuSans-74" x="177.099609"/>
     <use xlink:href="#DejaVuSans-20" x="216.308594"/>
     <use xlink:href="#DejaVuSans-32" x="248.095703"/>
     <use xlink:href="#DejaVuSans-30" x="311.71875"/>
     <use xlink:href="#DejaVuSans-31" x="375.341797"/>
     <use xlink:href="#DejaVuSans-36" x="438.964844"/>
    </g>
   </g>
   <g id="text_17">
    <!-- bbob-biobj f1, f2, f11, 20-D -->
    <g transform="translate(60.632064 17.582726)scale(0.102 -0.102)">
     <defs>
      <path id="DejaVuSans-6a" d="M 603 3500 
L 1178 3500 
L 1178 -63 
Q 1178 -731 923 -1031 
Q 669 -1331 103 -1331 
L -116 -1331 
L -116 -844 
L 38 -844 
Q 366 -844 484 -692 
Q 603 -541 603 -63 
L 603 3500 
z
M 603 4863 
L 1178 4863 
L 1178 4134 
L 603 4134 
L 603 4863 
z
" transform="scale(0.015625)"/>
      <path id="DejaVuSans-44" d="M 1259 4147 
L 1259 519 
L 2022 519 
Q 2988 519 3436 956 
Q 3884 1394 3884 2338 
Q 3884 3275 3436 3711 
Q 2988 4147 2022 4147 
L 1259 4147 
z
M 628 4666 
L 1925 4666 
Q 3281 4666 3915 4102 
Q 4550 3538 4550 2338 
Q 4550 1131 3912 565 
Q 3275 0 1925 0 
L 628 0 
L 628 4666 
z
" transform="scale(0.015625)"/>
     </defs>
     <use xlink:href="#DejaVuSans-62"/>
     <use xlink:href="#DejaVuSans-62" x="63.476562"/>
     <use xlink:href="#DejaVuSans-6f" x="126.953125"/>
     <use xlink:href="#DejaVuSans-62" x="188.134766"/>
     <use xlink:href="#DejaVuSans-2d" x="251.611328"/>
     <use xlink:href="#DejaVuSans-62" x="287.695312"/>
     <use xlink:href="#DejaVuSans-69" x="351.171875"/>
     <use xlink:href="#DejaVuSans-6f" x="378.955078"/>
     <use xlink:href="#DejaVuSans-62" x="440.136719"/>
     <use xlink:href="#DejaVuSans-6a" x="503.613281"/>
     <use xlink:href="#DejaVuSans-20" x="531.396484"/>
     <use xlink:href="#DejaVuSans-66" x="563.183594"/>
     <use xlink:href="#DejaVuSans-31" x="598.388672"/>
     <use xlink:href="#DejaVuSans-2c" x="662.011719"/>
     <use xlink:href="#DejaVuSans-20" x="693.798828"/>
     <use xlink:href="#DejaVuSans-66" x="725.585938"/>
     <use xlink:href="#DejaVuSans-32" x="760.791016"/>
     <use xlink:href="#DejaVuSans-2c" x="824.414062"/>
     <use xlink:href="#DejaVuSans-20" x="856.201172"/>
     <use xlink:href="#DejaVuSans-66" x="887.988281"/>
     <use xlink:href="#DejaVuSans-31" x="923.193359"/>
     <use xlink:href="#DejaVuSans-31" x="986.816406"/>
     <use xlink:href="#DejaVuSans-2c" x="1050.439453"/>
     <use xlink:href="#DejaVuSans-20" x="1082.226562"/>
     <use xlink:href="#DejaVuSans-32" x="1114.013672"/>
     <use xlink:href="#DejaVuSans-30" x="1177.636719"/>
     <use xlink:href="#DejaVuSans-2d" x="1241.259766"/>
     <use xlink:href="#DejaVuSans-44" x="1277.34375"/>
    </g>
    <!-- 58 targets: 1..-1.0e-4 -->
    <g transform="translate(60.632064 29.004495)scale(0.102 -0.102)">
     <defs>
      <path id="DejaVuSans-35" d="M 691 4666 
L 3169 4666 
L 3169 4134 
L 1269 4134 
L 1269 2991 
Q 1406 3038 1543 3061 
Q 1681 3084 1819 3084 
Q 2600 3084 3056 2656 
Q 3513 2228 3513 1497 
Q 3513 744 3044 326 
Q 2575 -91 1722 -91 
Q 1428 -91 1123 -41 
Q 819 9 494 109 
L 494 744 
Q 775 591 1075 516 
Q 1375 441 1709 441 
Q 2250 441 2565 725 
Q 2881 1009 2881 1497 
Q 2881 1984 2565 2268 
Q 2250 2553 1709 2553 
Q 1456 2553 1204 2497 
Q 953 2441 691 2322 
L 691 4666 
z
" transform="scale(0.015625)"/>
      <path id="DejaVuSans-3a" d="M 750 794 
L 1409 794 
L 1409 0 
L 750 0 
L 750 794 
z
M 750 3309 
L 1409 3309 
L 1409 2516 
L 750 2516 
L 750 3309 
z
" transform="scale(0.015625)"/>
     </defs>
     <use xlink:href="#DejaVuSans-35"/>
     <use xlink:href="#DejaVuSans-38" x="63.623047"/>
     <use xlink:href="#DejaVuSans-20" x="127.246094"/>
     <use xlink:href="#DejaVuSans-74" x="159.033203"/>
     <use xlink:href="#DejaVuSans-61" x="198.242188"/>
     <use xlink:href="#DejaVuSans-72" x="259.521484"/>
     <use xlink:href="#DejaVuSans-67" x="298.884766"/>
     <use xlink:href="#DejaVuSans-65" x="362.361328"/>
     <use xlink:href="#DejaVuSans-74" x="423.884766"/>
     <use xlink:href="#DejaVuSans-73" x="463.09375"/>
     <use xlink:href="#DejaVuSans-3a" x="515.193359"/>
     <use xlink:href="#DejaVuSans-20" x="548.884766"/>
     <use xlink:href="#DejaVuSans-31" x="580.671875"/>
     <use xlink:href="#DejaVuSans-2e" x="644.294922"/>
     <use xlink:href="#DejaVuSans-2e" x="676.082031"/>
     <use xlink:href="#DejaVuSans-2d" x="707.869141"/>
     <use xlink:href="#DejaVuSans-31" x="743.953125"/>
     <use xlink:href="#DejaVuSans-2e" x="807.576172"/>
     <use xlink:href="#DejaVuSans-30" x="839.363281"/>
     <use xlink:href="#DejaVuSans-65" x="902.986328"/>
     <use xlink:href="#DejaVuSans-2d" x="964.509766"/>
     <use xlink:href="#DejaVuSans-34" x="1000.59375"/>
    </g>
    <!-- 10 instances -->
    <g transform="translate(60.632064 40.426264)scale(0.102 -0.102)">
     <use xlink:href="#DejaVuSans-31"/>
     <use xlink:href="#DejaVuSans-30" x="63.623047"/>
     <use xlink:href="#DejaVuSans-20" x="127.246094"/>
     <use xlink:href="#DejaVuSans-69" x="159.033203"/>
     <use xlink:href="#DejaVuSans-6e" x="186.816406"/>
     <use xlink:href="#DejaVuSans-73" x="250.195312"/>
     <use xlink:href="#DejaVuSans-74" x="302.294922"/>
     <use xlink:href="#DejaVuSans-61" x="341.503906"/>
     <use xlink:href="#DejaVuSans-6e" x="402.783203"/>
     <use xlink:href="#DejaVuSans-63" x="466.162109"/>
     <use xlink:href="#DejaVuSans-65" x="521.142578"/>
     <use xlink:href="#DejaVuSans-73" x="582.666016"/>
    </g>
   </g>
   <g id="text_18">
    <!-- v2.6, hv-hash=ff0e71e8cd978373 -->
    <g style="fill: #808080" transform="translate(123.707887 293.943992)scale(0.1 -0.1)">
     <defs>
      <path id="DejaVuSans-68" d="M 3513 2113 
L 3513 0 
L 2938 0 
L 2938 2094 
Q 2938 2591 2744 2837 
Q 2550 3084 2163 3084 
Q 1697 3084 1428 2787 
Q 1159 2491 1159 1978 
L 1159 0 
L 581 0 
L 581 4863 
L 1159 4863 
L 1159 2956 
Q 1366 3272 1645 3428 
Q 1925 3584 2291 3584 
Q 2894 3584 3203 3211 
Q 3513 2838 3513 2113 
z
" transform="scale(0.015625)"/>
      <path id="DejaVuSans-3d" d="M 678 2906 
L 4684 2906 
L 4684 2381 
L 678 2381 
L 678 2906 
z
M 678 1631 
L 4684 1631 
L 4684 1100 
L 678 1100 
L 678 1631 
z
" transform="scale(0.015625)"/>
      <path id="DejaVuSans-37" d="M 525 4666 
L 3525 4666 
L 3525 4397 
L 1831 0 
L 1172 0 
L 2766 4134 
L 525 4134 
L 525 4666 
z
" transform="scale(0.015625)"/>
      <path id="DejaVuSans-39" d="M 703 97 
L 703 672 
Q 941 559 1184 500 
Q 1428 441 1663 441 
Q 2288 441 2617 861 
Q 2947 1281 2994 2138 
Q 2813 1869 2534 1725 
Q 2256 1581 1919 1581 
Q 1219 1581 811 2004 
Q 403 2428 403 3163 
Q 403 3881 828 4315 
Q 1253 4750 1959 4750 
Q 2769 4750 3195 4129 
Q 3622 3509 3622 2328 
Q 3622 1225 3098 567 
Q 2575 -91 1691 -91 
Q 1453 -91 1209 -44 
Q 966 3 703 97 
z
M 1959 2075 
Q 2384 2075 2632 2365 
Q 2881 2656 2881 3163 
Q 2881 3666 2632 3958 
Q 2384 4250 1959 4250 
Q 1534 4250 1286 3958 
Q 1038 3666 1038 3163 
Q 1038 2656 1286 2365 
Q 1534 2075 1959 2075 
z
" transform="scale(0.015625)"/>
      <path id="DejaVuSans-33" d="M 2597 2516 
Q 3050 2419 3304 2112 
Q 3559 1806 3559 1356 
Q 3559 666 3084 287 
Q 2609 -91 1734 -91 
Q 1441 -91 1130 -33 
Q 819 25 488 141 
L 488 750 
Q 750 597 1062 519 
Q 1375 441 1716 441 
Q 2309 441 2620 675 
Q 2931 909 2931 1356 
Q 2931 1769 2642 2001 
Q 2353 2234 1838 2234 
L 1294 2234 
L 1294 2753 
L 1863 2753 
Q 2328 2753 2575 2939 
Q 2822 3125 2822 3475 
Q 2822 3834 2567 4026 
Q 2313 4219 1838 4219 
Q 1578 4219 1281 4162 
Q 984 4106 628 3988 
L 628 4550 
Q 988 4650 1302 4700 
Q 1616 4750 1894 4750 
Q 2613 4750 3031 4423 
Q 3450 4097 3450 3541 
Q 3450 3153 3228 2886 
Q 3006 2619 2597 2516 
z
" transform="scale(0.015625)"/>
     </defs>
     <use xlink:href="#DejaVuSans-76"/>
     <use xlink:href="#DejaVuSans-32" x="59.179688"/>
     <use xlink:href="#DejaVuSans-2e" x="122.802734"/>
     <use xlink:href="#DejaVuSans-36" x="154.589844"/>
     <use xlink:href="#DejaVuSans-2c" x="218.212891"/>
     <use xlink:href="#DejaVuSans-20" x="250"/>
     <use xlink:href="#DejaVuSans-68" x="281.787109"/>
     <use xlink:href="#DejaVuSans-76" x="345.166016"/>
     <use xlink:href="#DejaVuSans-2d" x="401.720703"/>
     <use xlink:href="#DejaVuSans-68" x="437.804688"/>
     <use xlink:href="#DejaVuSans-61" x="501.183594"/>
     <use xlink:href="#DejaVuSans-73" x="562.462891"/>
     <use xlink:href="#DejaVuSans-68" x="614.5625"/>
     <use xlink:href="#DejaVuSans-3d" x="677.941406"/>
     <use xlink:href="#DejaVuSans-66" x="761.730469"/>
     <use xlink:href="#DejaVuSans-66" x="796.935547"/>
     <use xlink:href="#DejaVuSans-30" x="832.140625"/>
     <use xlink:href="#DejaVuSans-65" x="895.763672"/>
     <use xlink:href="#DejaVuSans-37" x="957.287109"/>
     <use xlink:href="#DejaVuSans-31" x="1020.910156"/>
     <use xlink:href="#DejaVuSans-65" x="1084.533203"/>
     <use xlink:href="#DejaVuSans-38" x="1146.056641"/>
     <use xlink:href="#DejaVuSans-63" x="1209.679688"/>
     <use xlink:href="#DejaVuSans-64" x="1264.660156"/>
     <use xlink:href="#DejaVuSans-39" x="1328.136719"/>
     <use xlink:href="#DejaVuSans-37" x="1391.759766"/>
     <use xlink:href="#DejaVuSans-38" x="1455.382812"/>
     <use xlink:href="#DejaVuSans-33" x="1519.005859"/>
     <use xlink:href="#DejaVuSans-37" x="1582.628906"/>
     <use xlink:href="#DejaVuSans-33" x="1646.251953"/>
    </g>
   </g>
  </g>
 </g>
 <defs>
  <clipPath id="pe3abad42b1">
   <rect x="57.6" y="6.912" width="303.2064" height="292.032"/>
  </clipPath>
 </defs>
</svg>
