<?xml version="1.0" encoding="utf-8" standalone="no"?>
<!DOCTYPE svg PUBLIC "-//W3C//DTD SVG 1.1//EN"
  "http://www.w3.org/Graphics/SVG/1.1/DTD/svg11.dtd">
<svg xmlns:xlink="http://www.w3.org/1999/xlink" width="460.8pt" height="345.6pt" viewBox="0 0 460.8 345.6" xmlns="http://www.w3.org/2000/svg" version="1.1">
 <metadata>
  <rdf:RDF xmlns:dc="http://purl.org/dc/elements/1.1/" xmlns:cc="http://creativecommons.org/ns#" xmlns:rdf="http://www.w3.org/1999/02/22-rdf-syntax-ns#">
   <cc:Work>
    <dc:type rdf:resource="http://purl.org/dc/dcmitype/StillImage"/>
    <dc:date>2022-06-19T21:03:07.007475</dc:date>
    <dc:format>image/svg+xml</dc:format>
    <dc:creator>
     <cc:Agent>
      <dc:title>Matplotlib v3.5.1, https://matplotlib.org/</dc:title>
     </cc:Agent>
    </dc:creator>
   </cc:Work>
  </rdf:RDF>
 </metadata>
 <defs>
  <style type="text/css">*{stroke-linejoin: round; stroke-linecap: butt}</style>
 </defs>
 <g id="figure_1">
  <g id="patch_1">
   <path d="M 0 345.6 
L 460.8 345.6 
L 460.8 0 
L 0 0 
z
" style="fill: #ffffff"/>
  </g>
  <g id="axes_1">
   <g id="patch_2">
    <path d="M 57.6 298.944 
L 360.8064 298.944 
L 360.8064 6.912 
L 57.6 6.912 
z
" style="fill: #ffffff"/>
   </g>
   <g id="line2d_1">
    <path d="M 40.363149 298.944 
L 40.363149 297.685241 
L 53.402323 297.685241 
L 53.402323 295.167724 
L 61.029752 295.167724 
L 61.029752 290.13269 
L 68.65718 290.13269 
L 68.65718 288.873931 
L 76.96874 288.873931 
L 76.96874 286.356414 
L 81.696354 286.356414 
L 81.696354 281.321379 
L 84.596168 281.321379 
L 84.596168 280.062621 
L 88.613828 280.062621 
L 88.613828 277.545103 
L 92.519847 277.545103 
L 92.519847 273.768828 
L 99.346662 273.768828 
L 99.346662 271.25131 
L 102.708132 271.25131 
L 102.708132 268.733793 
L 103.047088 268.733793 
L 103.047088 266.216276 
L 105.26277 266.216276 
L 105.26277 264.957517 
L 108.542628 264.957517 
L 108.542628 261.181241 
L 109.280431 261.181241 
L 109.280431 259.922483 
L 109.756698 259.922483 
L 109.756698 258.663724 
L 113.186449 258.663724 
L 113.186449 256.146207 
L 117.384126 256.146207 
L 117.384126 253.62869 
L 121.073351 253.62869 
L 121.073351 249.852414 
L 122.076872 249.852414 
L 122.076872 248.593655 
L 122.439807 248.593655 
L 122.439807 244.817379 
L 128.956723 244.817379 
L 128.956723 242.299862 
L 133.188264 242.299862 
L 133.188264 238.523586 
L 134.368469 238.523586 
L 134.368469 236.006069 
L 134.993495 236.006069 
L 134.993495 234.74731 
L 136.010584 234.74731 
L 136.010584 232.229793 
L 139.604629 232.229793 
L 139.604629 229.712276 
L 142.905644 229.712276 
L 142.905644 225.936 
L 145.004344 225.936 
L 145.004344 223.418483 
L 146.261241 223.418483 
L 146.261241 220.900966 
L 149.165879 220.900966 
L 149.165879 218.383448 
L 153.351976 218.383448 
L 153.351976 215.865931 
L 153.922412 215.865931 
L 153.922412 214.607172 
L 158.577468 214.607172 
L 158.577468 210.830897 
L 162.088932 210.830897 
L 162.088932 208.313379 
L 163.706328 208.313379 
L 163.706328 207.054621 
L 164.758543 207.054621 
L 164.758543 205.795862 
L 165.92201 205.795862 
L 165.92201 204.537103 
L 166.826251 204.537103 
L 166.826251 203.278345 
L 170.176605 203.278345 
L 170.176605 199.502069 
L 171.843395 199.502069 
L 171.843395 195.725793 
L 172.127316 195.725793 
L 172.127316 193.208276 
L 172.288863 193.208276 
L 172.288863 190.690759 
L 176.591226 190.690759 
L 176.591226 188.173241 
L 178.320986 188.173241 
L 178.320986 184.396966 
L 178.889793 184.396966 
L 178.889793 183.138207 
L 180.07926 183.138207 
L 180.07926 179.361931 
L 183.394894 179.361931 
L 183.394894 178.103172 
L 189.076778 178.103172 
L 189.076778 175.585655 
L 191.482632 175.585655 
L 191.482632 173.068138 
L 192.297862 173.068138 
L 192.297862 170.550621 
L 193.637178 170.550621 
L 193.637178 166.774345 
L 198.388365 166.774345 
L 198.388365 162.998069 
L 200.08534 162.998069 
L 200.08534 160.480552 
L 200.279444 160.480552 
L 200.279444 157.963034 
L 201.772961 157.963034 
L 201.772961 155.445517 
L 202.401634 155.445517 
L 202.401634 154.186759 
L 207.144045 154.186759 
L 207.144045 152.928 
L 209.106118 152.928 
L 209.106118 151.669241 
L 215.4391 151.669241 
L 215.4391 147.892966 
L 216.773368 147.892966 
L 216.773368 144.11669 
L 218.367442 144.11669 
L 218.367442 141.599172 
L 220.302305 141.599172 
L 220.302305 137.822897 
L 221.773911 137.822897 
L 221.773911 136.564138 
L 225.094075 136.564138 
L 225.094075 135.305379 
L 226.995024 135.305379 
L 226.995024 132.787862 
L 230.045787 132.787862 
L 230.045787 129.011586 
L 231.132721 129.011586 
L 231.159402 126.494069 
L 231.637271 126.494069 
L 231.637271 122.717793 
L 232.65168 122.717793 
L 232.65168 120.200276 
L 234.4062 120.200276 
L 234.4062 118.941517 
L 235.780355 118.941517 
L 235.780355 115.165241 
L 236.33096 115.165241 
L 236.33096 111.388966 
L 238.534323 111.388966 
L 238.534323 108.871448 
L 239.431828 108.871448 
L 239.431828 106.353931 
L 239.990251 106.353931 
L 239.990251 105.095172 
L 241.594158 105.095172 
L 241.594158 101.318897 
L 244.033438 101.318897 
L 244.033438 97.542621 
L 245.541637 97.542621 
L 245.541637 95.025103 
L 249.560729 95.025103 
L 249.560729 92.507586 
L 252.704401 92.507586 
L 252.704401 91.248828 
L 254.073041 91.248828 
L 254.073041 88.73131 
L 254.857293 88.73131 
L 254.857293 87.472552 
L 256.494304 87.472552 
L 256.494304 83.696276 
L 257.993704 83.696276 
L 258.035544 81.178759 
L 259.547502 81.178759 
L 259.547502 77.402483 
L 262.523031 77.402483 
L 262.523031 74.884966 
L 269.129 74.884966 
L 269.129 72.367448 
L 272.667237 72.367448 
L 272.667237 68.591172 
L 278.050641 68.591172 
L 278.050641 66.073655 
L 278.243715 66.073655 
L 278.243715 63.556138 
L 278.488363 63.556138 
L 278.488363 62.297379 
L 278.91616 62.297379 
L 278.91616 59.779862 
L 279.089964 59.779862 
L 279.089964 56.003586 
L 281.036417 56.003586 
L 281.036417 52.22731 
L 283.967403 52.22731 
L 283.967403 49.709793 
L 287.597428 49.709793 
L 287.597428 48.451034 
L 291.720383 48.451034 
L 291.720383 45.933517 
L 295.953503 45.933517 
L 295.953503 42.157241 
L 360.8064 42.157241 
L 360.8064 42.157241 
" style="fill: none; stroke: #f5deb3; stroke-width: 4; stroke-linecap: square"/>
   </g>
   <g id="line2d_2">
    <defs>
     <path id="m447595544a" d="M 0 7.778175 
L 7.778175 0 
L 0 -7.778175 
L -7.778175 0 
z
" style="stroke: #f5deb3; stroke-width: 1.5; stroke-linejoin: miter"/>
    </defs>
    <g>
     <use xlink:href="#m447595544a" x="149.165879" y="218.383448" style="fill: #f5deb3; stroke: #f5deb3; stroke-width: 1.5; stroke-linejoin: miter"/>
     <use xlink:href="#m447595544a" x="200.279444" y="157.963034" style="fill: #f5deb3; stroke: #f5deb3; stroke-width: 1.5; stroke-linejoin: miter"/>
     <use xlink:href="#m447595544a" x="249.560729" y="92.507586" style="fill: #f5deb3; stroke: #f5deb3; stroke-width: 1.5; stroke-linejoin: miter"/>
     <use xlink:href="#m447595544a" x="295.953503" y="42.157241" style="fill: #f5deb3; stroke: #f5deb3; stroke-width: 1.5; stroke-linejoin: miter"/>
     <use xlink:href="#m447595544a" x="295.953503" y="42.157241" style="fill: #f5deb3; stroke: #f5deb3; stroke-width: 1.5; stroke-linejoin: miter"/>
     <use xlink:href="#m447595544a" x="360.8064" y="42.157241" style="fill: #f5deb3; stroke: #f5deb3; stroke-width: 1.5; stroke-linejoin: miter"/>
    </g>
   </g>
   <g id="line2d_3">
    <path style="fill: none; stroke: #f5deb3; stroke-width: 4; stroke-linecap: square"/>
    <g/>
   </g>
   <g id="line2d_4">
    <path d="M 360.8064 42.157241 
L 380.514816 12.75264 
" style="fill: none; stroke: #f5deb3; stroke-width: 4; stroke-linecap: square"/>
    <g>
     <use xlink:href="#m447595544a" x="360.8064" y="42.157241" style="fill: #f5deb3; stroke: #f5deb3; stroke-width: 1.5; stroke-linejoin: miter"/>
     <use xlink:href="#m447595544a" x="380.514816" y="12.75264" style="fill: #f5deb3; stroke: #f5deb3; stroke-width: 1.5; stroke-linejoin: miter"/>
    </g>
   </g>
   <g id="matplotlib.axis_1">
    <g id="xtick_1">
     <g id="line2d_5">
      <path d="M 57.6 298.944 
L 57.6 6.912 
" clip-path="url(#p65b5e4d5d0)" style="fill: none; stroke: #b0b0b0; stroke-width: 0.8; stroke-linecap: square"/>
     </g>
     <g id="line2d_6">
      <defs>
       <path id="m6339e80594" d="M 0 0 
L 0 3.5 
" style="stroke: #000000; stroke-width: 0.8"/>
      </defs>
      <g>
       <use xlink:href="#m6339e80594" x="57.6" y="298.944" style="stroke: #000000; stroke-width: 0.8"/>
      </g>
     </g>
     <g id="text_1">
      <!-- 0 -->
      <g transform="translate(52.191875 318.861344)scale(0.17 -0.17)">
       <defs>
        <path id="DejaVuSans-30" d="M 2034 4250 
Q 1547 4250 1301 3770 
Q 1056 3291 1056 2328 
Q 1056 1369 1301 889 
Q 1547 409 2034 409 
Q 2525 409 2770 889 
Q 3016 1369 3016 2328 
Q 3016 3291 2770 3770 
Q 2525 4250 2034 4250 
z
M 2034 4750 
Q 2819 4750 3233 4129 
Q 3647 3509 3647 2328 
Q 3647 1150 3233 529 
Q 2819 -91 2034 -91 
Q 1250 -91 836 529 
Q 422 1150 422 2328 
Q 422 3509 836 4129 
Q 1250 4750 2034 4750 
z
" transform="scale(0.015625)"/>
       </defs>
       <use xlink:href="#DejaVuSans-30"/>
      </g>
     </g>
    </g>
    <g id="xtick_2">
     <g id="line2d_7">
      <path d="M 144.2304 298.944 
L 144.2304 6.912 
" clip-path="url(#p65b5e4d5d0)" style="fill: none; stroke: #b0b0b0; stroke-width: 0.8; stroke-linecap: square"/>
     </g>
     <g id="line2d_8">
      <g>
       <use xlink:href="#m6339e80594" x="144.2304" y="298.944" style="stroke: #000000; stroke-width: 0.8"/>
      </g>
     </g>
     <g id="text_2">
      <!-- 2 -->
      <g transform="translate(138.822275 318.861344)scale(0.17 -0.17)">
       <defs>
        <path id="DejaVuSans-32" d="M 1228 531 
L 3431 531 
L 3431 0 
L 469 0 
L 469 531 
Q 828 903 1448 1529 
Q 2069 2156 2228 2338 
Q 2531 2678 2651 2914 
Q 2772 3150 2772 3378 
Q 2772 3750 2511 3984 
Q 2250 4219 1831 4219 
Q 1534 4219 1204 4116 
Q 875 4013 500 3803 
L 500 4441 
Q 881 4594 1212 4672 
Q 1544 4750 1819 4750 
Q 2544 4750 2975 4387 
Q 3406 4025 3406 3419 
Q 3406 3131 3298 2873 
Q 3191 2616 2906 2266 
Q 2828 2175 2409 1742 
Q 1991 1309 1228 531 
z
" transform="scale(0.015625)"/>
       </defs>
       <use xlink:href="#DejaVuSans-32"/>
      </g>
     </g>
    </g>
    <g id="xtick_3">
     <g id="line2d_9">
      <path d="M 230.8608 298.944 
L 230.8608 6.912 
" clip-path="url(#p65b5e4d5d0)" style="fill: none; stroke: #b0b0b0; stroke-width: 0.8; stroke-linecap: square"/>
     </g>
     <g id="line2d_10">
      <g>
       <use xlink:href="#m6339e80594" x="230.8608" y="298.944" style="stroke: #000000; stroke-width: 0.8"/>
      </g>
     </g>
     <g id="text_3">
      <!-- 4 -->
      <g transform="translate(225.452675 318.861344)scale(0.17 -0.17)">
       <defs>
        <path id="DejaVuSans-34" d="M 2419 4116 
L 825 1625 
L 2419 1625 
L 2419 4116 
z
M 2253 4666 
L 3047 4666 
L 3047 1625 
L 3713 1625 
L 3713 1100 
L 3047 1100 
L 3047 0 
L 2419 0 
L 2419 1100 
L 313 1100 
L 313 1709 
L 2253 4666 
z
" transform="scale(0.015625)"/>
       </defs>
       <use xlink:href="#DejaVuSans-34"/>
      </g>
     </g>
    </g>
    <g id="xtick_4">
     <g id="line2d_11">
      <path d="M 317.4912 298.944 
L 317.4912 6.912 
" clip-path="url(#p65b5e4d5d0)" style="fill: none; stroke: #b0b0b0; stroke-width: 0.8; stroke-linecap: square"/>
     </g>
     <g id="line2d_12">
      <g>
       <use xlink:href="#m6339e80594" x="317.4912" y="298.944" style="stroke: #000000; stroke-width: 0.8"/>
      </g>
     </g>
     <g id="text_4">
      <!-- 6 -->
      <g transform="translate(312.083075 318.861344)scale(0.17 -0.17)">
       <defs>
        <path id="DejaVuSans-36" d="M 2113 2584 
Q 1688 2584 1439 2293 
Q 1191 2003 1191 1497 
Q 1191 994 1439 701 
Q 1688 409 2113 409 
Q 2538 409 2786 701 
Q 3034 994 3034 1497 
Q 3034 2003 2786 2293 
Q 2538 2584 2113 2584 
z
M 3366 4563 
L 3366 3988 
Q 3128 4100 2886 4159 
Q 2644 4219 2406 4219 
Q 1781 4219 1451 3797 
Q 1122 3375 1075 2522 
Q 1259 2794 1537 2939 
Q 1816 3084 2150 3084 
Q 2853 3084 3261 2657 
Q 3669 2231 3669 1497 
Q 3669 778 3244 343 
Q 2819 -91 2113 -91 
Q 1303 -91 875 529 
Q 447 1150 447 2328 
Q 447 3434 972 4092 
Q 1497 4750 2381 4750 
Q 2619 4750 2861 4703 
Q 3103 4656 3366 4563 
z
" transform="scale(0.015625)"/>
       </defs>
       <use xlink:href="#DejaVuSans-36"/>
      </g>
     </g>
    </g>
    <g id="xtick_5">
     <g id="line2d_13">
      <path d="M 100.9152 298.944 
L 100.9152 6.912 
" clip-path="url(#p65b5e4d5d0)" style="fill: none; stroke: #b0b0b0; stroke-width: 0.8; stroke-linecap: square"/>
     </g>
     <g id="line2d_14">
      <defs>
       <path id="m349045e94a" d="M 0 0 
L 0 2 
" style="stroke: #000000; stroke-width: 0.6"/>
      </defs>
      <g>
       <use xlink:href="#m349045e94a" x="100.9152" y="298.944" style="stroke: #000000; stroke-width: 0.6"/>
      </g>
     </g>
    </g>
    <g id="xtick_6">
     <g id="line2d_15">
      <path d="M 187.5456 298.944 
L 187.5456 6.912 
" clip-path="url(#p65b5e4d5d0)" style="fill: none; stroke: #b0b0b0; stroke-width: 0.8; stroke-linecap: square"/>
     </g>
     <g id="line2d_16">
      <g>
       <use xlink:href="#m349045e94a" x="187.5456" y="298.944" style="stroke: #000000; stroke-width: 0.6"/>
      </g>
     </g>
    </g>
    <g id="xtick_7">
     <g id="line2d_17">
      <path d="M 274.176 298.944 
L 274.176 6.912 
" clip-path="url(#p65b5e4d5d0)" style="fill: none; stroke: #b0b0b0; stroke-width: 0.8; stroke-linecap: square"/>
     </g>
     <g id="line2d_18">
      <g>
       <use xlink:href="#m349045e94a" x="274.176" y="298.944" style="stroke: #000000; stroke-width: 0.6"/>
      </g>
     </g>
    </g>
    <g id="xtick_8">
     <g id="line2d_19">
      <path d="M 360.8064 298.944 
L 360.8064 6.912 
" clip-path="url(#p65b5e4d5d0)" style="fill: none; stroke: #b0b0b0; stroke-width: 0.8; stroke-linecap: square"/>
     </g>
     <g id="line2d_20">
      <g>
       <use xlink:href="#m349045e94a" x="360.8064" y="298.944" style="stroke: #000000; stroke-width: 0.6"/>
      </g>
     </g>
    </g>
    <g id="text_5">
     <!-- log10(# f-evals / dimension) -->
     <g transform="translate(88.823278 339.314156)scale(0.17 -0.17)">
      <defs>
       <path id="DejaVuSans-6c" d="M 603 4863 
L 1178 4863 
L 1178 0 
L 603 0 
L 603 4863 
z
" transform="scale(0.015625)"/>
       <path id="DejaVuSans-6f" d="M 1959 3097 
Q 1497 3097 1228 2736 
Q 959 2375 959 1747 
Q 959 1119 1226 758 
Q 1494 397 1959 397 
Q 2419 397 2687 759 
Q 2956 1122 2956 1747 
Q 2956 2369 2687 2733 
Q 2419 3097 1959 3097 
z
M 1959 3584 
Q 2709 3584 3137 3096 
Q 3566 2609 3566 1747 
Q 3566 888 3137 398 
Q 2709 -91 1959 -91 
Q 1206 -91 779 398 
Q 353 888 353 1747 
Q 353 2609 779 3096 
Q 1206 3584 1959 3584 
z
" transform="scale(0.015625)"/>
       <path id="DejaVuSans-67" d="M 2906 1791 
Q 2906 2416 2648 2759 
Q 2391 3103 1925 3103 
Q 1463 3103 1205 2759 
Q 947 2416 947 1791 
Q 947 1169 1205 825 
Q 1463 481 1925 481 
Q 2391 481 2648 825 
Q 2906 1169 2906 1791 
z
M 3481 434 
Q 3481 -459 3084 -895 
Q 2688 -1331 1869 -1331 
Q 1566 -1331 1297 -1286 
Q 1028 -1241 775 -1147 
L 775 -588 
Q 1028 -725 1275 -790 
Q 1522 -856 1778 -856 
Q 2344 -856 2625 -561 
Q 2906 -266 2906 331 
L 2906 616 
Q 2728 306 2450 153 
Q 2172 0 1784 0 
Q 1141 0 747 490 
Q 353 981 353 1791 
Q 353 2603 747 3093 
Q 1141 3584 1784 3584 
Q 2172 3584 2450 3431 
Q 2728 3278 2906 2969 
L 2906 3500 
L 3481 3500 
L 3481 434 
z
" transform="scale(0.015625)"/>
       <path id="DejaVuSans-31" d="M 794 531 
L 1825 531 
L 1825 4091 
L 703 3866 
L 703 4441 
L 1819 4666 
L 2450 4666 
L 2450 531 
L 3481 531 
L 3481 0 
L 794 0 
L 794 531 
z
" transform="scale(0.015625)"/>
       <path id="DejaVuSans-28" d="M 1984 4856 
Q 1566 4138 1362 3434 
Q 1159 2731 1159 2009 
Q 1159 1288 1364 580 
Q 1569 -128 1984 -844 
L 1484 -844 
Q 1016 -109 783 600 
Q 550 1309 550 2009 
Q 550 2706 781 3412 
Q 1013 4119 1484 4856 
L 1984 4856 
z
" transform="scale(0.015625)"/>
       <path id="DejaVuSans-23" d="M 3272 2816 
L 2363 2816 
L 2100 1772 
L 3016 1772 
L 3272 2816 
z
M 2803 4594 
L 2478 3297 
L 3391 3297 
L 3719 4594 
L 4219 4594 
L 3897 3297 
L 4872 3297 
L 4872 2816 
L 3775 2816 
L 3519 1772 
L 4513 1772 
L 4513 1294 
L 3397 1294 
L 3072 0 
L 2572 0 
L 2894 1294 
L 1978 1294 
L 1656 0 
L 1153 0 
L 1478 1294 
L 494 1294 
L 494 1772 
L 1594 1772 
L 1856 2816 
L 850 2816 
L 850 3297 
L 1978 3297 
L 2297 4594 
L 2803 4594 
z
" transform="scale(0.015625)"/>
       <path id="DejaVuSans-20" transform="scale(0.015625)"/>
       <path id="DejaVuSans-66" d="M 2375 4863 
L 2375 4384 
L 1825 4384 
Q 1516 4384 1395 4259 
Q 1275 4134 1275 3809 
L 1275 3500 
L 2222 3500 
L 2222 3053 
L 1275 3053 
L 1275 0 
L 697 0 
L 697 3053 
L 147 3053 
L 147 3500 
L 697 3500 
L 697 3744 
Q 697 4328 969 4595 
Q 1241 4863 1831 4863 
L 2375 4863 
z
" transform="scale(0.015625)"/>
       <path id="DejaVuSans-2d" d="M 313 2009 
L 1997 2009 
L 1997 1497 
L 313 1497 
L 313 2009 
z
" transform="scale(0.015625)"/>
       <path id="DejaVuSans-65" d="M 3597 1894 
L 3597 1613 
L 953 1613 
Q 991 1019 1311 708 
Q 1631 397 2203 397 
Q 2534 397 2845 478 
Q 3156 559 3463 722 
L 3463 178 
Q 3153 47 2828 -22 
Q 2503 -91 2169 -91 
Q 1331 -91 842 396 
Q 353 884 353 1716 
Q 353 2575 817 3079 
Q 1281 3584 2069 3584 
Q 2775 3584 3186 3129 
Q 3597 2675 3597 1894 
z
M 3022 2063 
Q 3016 2534 2758 2815 
Q 2500 3097 2075 3097 
Q 1594 3097 1305 2825 
Q 1016 2553 972 2059 
L 3022 2063 
z
" transform="scale(0.015625)"/>
       <path id="DejaVuSans-76" d="M 191 3500 
L 800 3500 
L 1894 563 
L 2988 3500 
L 3597 3500 
L 2284 0 
L 1503 0 
L 191 3500 
z
" transform="scale(0.015625)"/>
       <path id="DejaVuSans-61" d="M 2194 1759 
Q 1497 1759 1228 1600 
Q 959 1441 959 1056 
Q 959 750 1161 570 
Q 1363 391 1709 391 
Q 2188 391 2477 730 
Q 2766 1069 2766 1631 
L 2766 1759 
L 2194 1759 
z
M 3341 1997 
L 3341 0 
L 2766 0 
L 2766 531 
Q 2569 213 2275 61 
Q 1981 -91 1556 -91 
Q 1019 -91 701 211 
Q 384 513 384 1019 
Q 384 1609 779 1909 
Q 1175 2209 1959 2209 
L 2766 2209 
L 2766 2266 
Q 2766 2663 2505 2880 
Q 2244 3097 1772 3097 
Q 1472 3097 1187 3025 
Q 903 2953 641 2809 
L 641 3341 
Q 956 3463 1253 3523 
Q 1550 3584 1831 3584 
Q 2591 3584 2966 3190 
Q 3341 2797 3341 1997 
z
" transform="scale(0.015625)"/>
       <path id="DejaVuSans-73" d="M 2834 3397 
L 2834 2853 
Q 2591 2978 2328 3040 
Q 2066 3103 1784 3103 
Q 1356 3103 1142 2972 
Q 928 2841 928 2578 
Q 928 2378 1081 2264 
Q 1234 2150 1697 2047 
L 1894 2003 
Q 2506 1872 2764 1633 
Q 3022 1394 3022 966 
Q 3022 478 2636 193 
Q 2250 -91 1575 -91 
Q 1294 -91 989 -36 
Q 684 19 347 128 
L 347 722 
Q 666 556 975 473 
Q 1284 391 1588 391 
Q 1994 391 2212 530 
Q 2431 669 2431 922 
Q 2431 1156 2273 1281 
Q 2116 1406 1581 1522 
L 1381 1569 
Q 847 1681 609 1914 
Q 372 2147 372 2553 
Q 372 3047 722 3315 
Q 1072 3584 1716 3584 
Q 2034 3584 2315 3537 
Q 2597 3491 2834 3397 
z
" transform="scale(0.015625)"/>
       <path id="DejaVuSans-2f" d="M 1625 4666 
L 2156 4666 
L 531 -594 
L 0 -594 
L 1625 4666 
z
" transform="scale(0.015625)"/>
       <path id="DejaVuSans-64" d="M 2906 2969 
L 2906 4863 
L 3481 4863 
L 3481 0 
L 2906 0 
L 2906 525 
Q 2725 213 2448 61 
Q 2172 -91 1784 -91 
Q 1150 -91 751 415 
Q 353 922 353 1747 
Q 353 2572 751 3078 
Q 1150 3584 1784 3584 
Q 2172 3584 2448 3432 
Q 2725 3281 2906 2969 
z
M 947 1747 
Q 947 1113 1208 752 
Q 1469 391 1925 391 
Q 2381 391 2643 752 
Q 2906 1113 2906 1747 
Q 2906 2381 2643 2742 
Q 2381 3103 1925 3103 
Q 1469 3103 1208 2742 
Q 947 2381 947 1747 
z
" transform="scale(0.015625)"/>
       <path id="DejaVuSans-69" d="M 603 3500 
L 1178 3500 
L 1178 0 
L 603 0 
L 603 3500 
z
M 603 4863 
L 1178 4863 
L 1178 4134 
L 603 4134 
L 603 4863 
z
" transform="scale(0.015625)"/>
       <path id="DejaVuSans-6d" d="M 3328 2828 
Q 3544 3216 3844 3400 
Q 4144 3584 4550 3584 
Q 5097 3584 5394 3201 
Q 5691 2819 5691 2113 
L 5691 0 
L 5113 0 
L 5113 2094 
Q 5113 2597 4934 2840 
Q 4756 3084 4391 3084 
Q 3944 3084 3684 2787 
Q 3425 2491 3425 1978 
L 3425 0 
L 2847 0 
L 2847 2094 
Q 2847 2600 2669 2842 
Q 2491 3084 2119 3084 
Q 1678 3084 1418 2786 
Q 1159 2488 1159 1978 
L 1159 0 
L 581 0 
L 581 3500 
L 1159 3500 
L 1159 2956 
Q 1356 3278 1631 3431 
Q 1906 3584 2284 3584 
Q 2666 3584 2933 3390 
Q 3200 3197 3328 2828 
z
" transform="scale(0.015625)"/>
       <path id="DejaVuSans-6e" d="M 3513 2113 
L 3513 0 
L 2938 0 
L 2938 2094 
Q 2938 2591 2744 2837 
Q 2550 3084 2163 3084 
Q 1697 3084 1428 2787 
Q 1159 2491 1159 1978 
L 1159 0 
L 581 0 
L 581 3500 
L 1159 3500 
L 1159 2956 
Q 1366 3272 1645 3428 
Q 1925 3584 2291 3584 
Q 2894 3584 3203 3211 
Q 3513 2838 3513 2113 
z
" transform="scale(0.015625)"/>
       <path id="DejaVuSans-29" d="M 513 4856 
L 1013 4856 
Q 1481 4119 1714 3412 
Q 1947 2706 1947 2009 
Q 1947 1309 1714 600 
Q 1481 -109 1013 -844 
L 513 -844 
Q 928 -128 1133 580 
Q 1338 1288 1338 2009 
Q 1338 2731 1133 3434 
Q 928 4138 513 4856 
z
" transform="scale(0.015625)"/>
      </defs>
      <use xlink:href="#DejaVuSans-6c"/>
      <use xlink:href="#DejaVuSans-6f" x="27.783203"/>
      <use xlink:href="#DejaVuSans-67" x="88.964844"/>
      <use xlink:href="#DejaVuSans-31" x="152.441406"/>
      <use xlink:href="#DejaVuSans-30" x="216.064453"/>
      <use xlink:href="#DejaVuSans-28" x="279.6875"/>
      <use xlink:href="#DejaVuSans-23" x="318.701172"/>
      <use xlink:href="#DejaVuSans-20" x="402.490234"/>
      <use xlink:href="#DejaVuSans-66" x="434.277344"/>
      <use xlink:href="#DejaVuSans-2d" x="463.982422"/>
      <use xlink:href="#DejaVuSans-65" x="500.066406"/>
      <use xlink:href="#DejaVuSans-76" x="561.589844"/>
      <use xlink:href="#DejaVuSans-61" x="620.769531"/>
      <use xlink:href="#DejaVuSans-6c" x="682.048828"/>
      <use xlink:href="#DejaVuSans-73" x="709.832031"/>
      <use xlink:href="#DejaVuSans-20" x="761.931641"/>
      <use xlink:href="#DejaVuSans-2f" x="793.71875"/>
      <use xlink:href="#DejaVuSans-20" x="827.410156"/>
      <use xlink:href="#DejaVuSans-64" x="859.197266"/>
      <use xlink:href="#DejaVuSans-69" x="922.673828"/>
      <use xlink:href="#DejaVuSans-6d" x="950.457031"/>
      <use xlink:href="#DejaVuSans-65" x="1047.869141"/>
      <use xlink:href="#DejaVuSans-6e" x="1109.392578"/>
      <use xlink:href="#DejaVuSans-73" x="1172.771484"/>
      <use xlink:href="#DejaVuSans-69" x="1224.871094"/>
      <use xlink:href="#DejaVuSans-6f" x="1252.654297"/>
      <use xlink:href="#DejaVuSans-6e" x="1313.835938"/>
      <use xlink:href="#DejaVuSans-29" x="1377.214844"/>
     </g>
    </g>
   </g>
   <g id="matplotlib.axis_2">
    <g id="ytick_1">
     <g id="line2d_21">
      <path d="M 57.6 298.944 
L 360.8064 298.944 
" clip-path="url(#p65b5e4d5d0)" style="fill: none; stroke: #b0b0b0; stroke-width: 0.8; stroke-linecap: square"/>
     </g>
     <g id="line2d_22">
      <defs>
       <path id="m9613557b35" d="M 0 0 
L -3.5 0 
" style="stroke: #000000; stroke-width: 0.8"/>
      </defs>
      <g>
       <use xlink:href="#m9613557b35" x="57.6" y="298.944" style="stroke: #000000; stroke-width: 0.8"/>
      </g>
     </g>
     <g id="text_6">
      <!-- 0.0 -->
      <g transform="translate(25.155 305.02275)scale(0.16 -0.16)">
       <defs>
        <path id="DejaVuSans-2e" d="M 684 794 
L 1344 794 
L 1344 0 
L 684 0 
L 684 794 
z
" transform="scale(0.015625)"/>
       </defs>
       <use xlink:href="#DejaVuSans-30"/>
       <use xlink:href="#DejaVuSans-2e" x="63.623047"/>
       <use xlink:href="#DejaVuSans-30" x="95.410156"/>
      </g>
     </g>
    </g>
    <g id="ytick_2">
     <g id="line2d_23">
      <path d="M 57.6 240.5376 
L 360.8064 240.5376 
" clip-path="url(#p65b5e4d5d0)" style="fill: none; stroke: #b0b0b0; stroke-width: 0.8; stroke-linecap: square"/>
     </g>
     <g id="line2d_24">
      <g>
       <use xlink:href="#m9613557b35" x="57.6" y="240.5376" style="stroke: #000000; stroke-width: 0.8"/>
      </g>
     </g>
     <g id="text_7">
      <!-- 0.2 -->
      <g transform="translate(25.155 246.61635)scale(0.16 -0.16)">
       <use xlink:href="#DejaVuSans-30"/>
       <use xlink:href="#DejaVuSans-2e" x="63.623047"/>
       <use xlink:href="#DejaVuSans-32" x="95.410156"/>
      </g>
     </g>
    </g>
    <g id="ytick_3">
     <g id="line2d_25">
      <path d="M 57.6 182.1312 
L 360.8064 182.1312 
" clip-path="url(#p65b5e4d5d0)" style="fill: none; stroke: #b0b0b0; stroke-width: 0.8; stroke-linecap: square"/>
     </g>
     <g id="line2d_26">
      <g>
       <use xlink:href="#m9613557b35" x="57.6" y="182.1312" style="stroke: #000000; stroke-width: 0.8"/>
      </g>
     </g>
     <g id="text_8">
      <!-- 0.4 -->
      <g transform="translate(25.155 188.20995)scale(0.16 -0.16)">
       <use xlink:href="#DejaVuSans-30"/>
       <use xlink:href="#DejaVuSans-2e" x="63.623047"/>
       <use xlink:href="#DejaVuSans-34" x="95.410156"/>
      </g>
     </g>
    </g>
    <g id="ytick_4">
     <g id="line2d_27">
      <path d="M 57.6 123.7248 
L 360.8064 123.7248 
" clip-path="url(#p65b5e4d5d0)" style="fill: none; stroke: #b0b0b0; stroke-width: 0.8; stroke-linecap: square"/>
     </g>
     <g id="line2d_28">
      <g>
       <use xlink:href="#m9613557b35" x="57.6" y="123.7248" style="stroke: #000000; stroke-width: 0.8"/>
      </g>
     </g>
     <g id="text_9">
      <!-- 0.6 -->
      <g transform="translate(25.155 129.80355)scale(0.16 -0.16)">
       <use xlink:href="#DejaVuSans-30"/>
       <use xlink:href="#DejaVuSans-2e" x="63.623047"/>
       <use xlink:href="#DejaVuSans-36" x="95.410156"/>
      </g>
     </g>
    </g>
    <g id="ytick_5">
     <g id="line2d_29">
      <path d="M 57.6 65.3184 
L 360.8064 65.3184 
" clip-path="url(#p65b5e4d5d0)" style="fill: none; stroke: #b0b0b0; stroke-width: 0.8; stroke-linecap: square"/>
     </g>
     <g id="line2d_30">
      <g>
       <use xlink:href="#m9613557b35" x="57.6" y="65.3184" style="stroke: #000000; stroke-width: 0.8"/>
      </g>
     </g>
     <g id="text_10">
      <!-- 0.8 -->
      <g transform="translate(25.155 71.39715)scale(0.16 -0.16)">
       <defs>
        <path id="DejaVuSans-38" d="M 2034 2216 
Q 1584 2216 1326 1975 
Q 1069 1734 1069 1313 
Q 1069 891 1326 650 
Q 1584 409 2034 409 
Q 2484 409 2743 651 
Q 3003 894 3003 1313 
Q 3003 1734 2745 1975 
Q 2488 2216 2034 2216 
z
M 1403 2484 
Q 997 2584 770 2862 
Q 544 3141 544 3541 
Q 544 4100 942 4425 
Q 1341 4750 2034 4750 
Q 2731 4750 3128 4425 
Q 3525 4100 3525 3541 
Q 3525 3141 3298 2862 
Q 3072 2584 2669 2484 
Q 3125 2378 3379 2068 
Q 3634 1759 3634 1313 
Q 3634 634 3220 271 
Q 2806 -91 2034 -91 
Q 1263 -91 848 271 
Q 434 634 434 1313 
Q 434 1759 690 2068 
Q 947 2378 1403 2484 
z
M 1172 3481 
Q 1172 3119 1398 2916 
Q 1625 2713 2034 2713 
Q 2441 2713 2670 2916 
Q 2900 3119 2900 3481 
Q 2900 3844 2670 4047 
Q 2441 4250 2034 4250 
Q 1625 4250 1398 4047 
Q 1172 3844 1172 3481 
z
" transform="scale(0.015625)"/>
       </defs>
       <use xlink:href="#DejaVuSans-30"/>
       <use xlink:href="#DejaVuSans-2e" x="63.623047"/>
       <use xlink:href="#DejaVuSans-38" x="95.410156"/>
      </g>
     </g>
    </g>
    <g id="ytick_6">
     <g id="line2d_31">
      <path d="M 57.6 6.912 
L 360.8064 6.912 
" clip-path="url(#p65b5e4d5d0)" style="fill: none; stroke: #b0b0b0; stroke-width: 0.8; stroke-linecap: square"/>
     </g>
     <g id="line2d_32">
      <g>
       <use xlink:href="#m9613557b35" x="57.6" y="6.912" style="stroke: #000000; stroke-width: 0.8"/>
      </g>
     </g>
     <g id="text_11">
      <!-- 1.0 -->
      <g transform="translate(25.155 12.99075)scale(0.16 -0.16)">
       <use xlink:href="#DejaVuSans-31"/>
       <use xlink:href="#DejaVuSans-2e" x="63.623047"/>
       <use xlink:href="#DejaVuSans-30" x="95.410156"/>
      </g>
     </g>
    </g>
    <g id="text_12">
     <!-- Fraction of function,target pairs -->
     <g transform="translate(17.619531 287.313)rotate(-90)scale(0.17 -0.17)">
      <defs>
       <path id="DejaVuSans-46" d="M 628 4666 
L 3309 4666 
L 3309 4134 
L 1259 4134 
L 1259 2759 
L 3109 2759 
L 3109 2228 
L 1259 2228 
L 1259 0 
L 628 0 
L 628 4666 
z
" transform="scale(0.015625)"/>
       <path id="DejaVuSans-72" d="M 2631 2963 
Q 2534 3019 2420 3045 
Q 2306 3072 2169 3072 
Q 1681 3072 1420 2755 
Q 1159 2438 1159 1844 
L 1159 0 
L 581 0 
L 581 3500 
L 1159 3500 
L 1159 2956 
Q 1341 3275 1631 3429 
Q 1922 3584 2338 3584 
Q 2397 3584 2469 3576 
Q 2541 3569 2628 3553 
L 2631 2963 
z
" transform="scale(0.015625)"/>
       <path id="DejaVuSans-63" d="M 3122 3366 
L 3122 2828 
Q 2878 2963 2633 3030 
Q 2388 3097 2138 3097 
Q 1578 3097 1268 2742 
Q 959 2388 959 1747 
Q 959 1106 1268 751 
Q 1578 397 2138 397 
Q 2388 397 2633 464 
Q 2878 531 3122 666 
L 3122 134 
Q 2881 22 2623 -34 
Q 2366 -91 2075 -91 
Q 1284 -91 818 406 
Q 353 903 353 1747 
Q 353 2603 823 3093 
Q 1294 3584 2113 3584 
Q 2378 3584 2631 3529 
Q 2884 3475 3122 3366 
z
" transform="scale(0.015625)"/>
       <path id="DejaVuSans-74" d="M 1172 4494 
L 1172 3500 
L 2356 3500 
L 2356 3053 
L 1172 3053 
L 1172 1153 
Q 1172 725 1289 603 
Q 1406 481 1766 481 
L 2356 481 
L 2356 0 
L 1766 0 
Q 1100 0 847 248 
Q 594 497 594 1153 
L 594 3053 
L 172 3053 
L 172 3500 
L 594 3500 
L 594 4494 
L 1172 4494 
z
" transform="scale(0.015625)"/>
       <path id="DejaVuSans-75" d="M 544 1381 
L 544 3500 
L 1119 3500 
L 1119 1403 
Q 1119 906 1312 657 
Q 1506 409 1894 409 
Q 2359 409 2629 706 
Q 2900 1003 2900 1516 
L 2900 3500 
L 3475 3500 
L 3475 0 
L 2900 0 
L 2900 538 
Q 2691 219 2414 64 
Q 2138 -91 1772 -91 
Q 1169 -91 856 284 
Q 544 659 544 1381 
z
M 1991 3584 
L 1991 3584 
z
" transform="scale(0.015625)"/>
       <path id="DejaVuSans-2c" d="M 750 794 
L 1409 794 
L 1409 256 
L 897 -744 
L 494 -744 
L 750 256 
L 750 794 
z
" transform="scale(0.015625)"/>
       <path id="DejaVuSans-70" d="M 1159 525 
L 1159 -1331 
L 581 -1331 
L 581 3500 
L 1159 3500 
L 1159 2969 
Q 1341 3281 1617 3432 
Q 1894 3584 2278 3584 
Q 2916 3584 3314 3078 
Q 3713 2572 3713 1747 
Q 3713 922 3314 415 
Q 2916 -91 2278 -91 
Q 1894 -91 1617 61 
Q 1341 213 1159 525 
z
M 3116 1747 
Q 3116 2381 2855 2742 
Q 2594 3103 2138 3103 
Q 1681 3103 1420 2742 
Q 1159 2381 1159 1747 
Q 1159 1113 1420 752 
Q 1681 391 2138 391 
Q 2594 391 2855 752 
Q 3116 1113 3116 1747 
z
" transform="scale(0.015625)"/>
      </defs>
      <use xlink:href="#DejaVuSans-46"/>
      <use xlink:href="#DejaVuSans-72" x="50.269531"/>
      <use xlink:href="#DejaVuSans-61" x="91.382812"/>
      <use xlink:href="#DejaVuSans-63" x="152.662109"/>
      <use xlink:href="#DejaVuSans-74" x="207.642578"/>
      <use xlink:href="#DejaVuSans-69" x="246.851562"/>
      <use xlink:href="#DejaVuSans-6f" x="274.634766"/>
      <use xlink:href="#DejaVuSans-6e" x="335.816406"/>
      <use xlink:href="#DejaVuSans-20" x="399.195312"/>
      <use xlink:href="#DejaVuSans-6f" x="430.982422"/>
      <use xlink:href="#DejaVuSans-66" x="492.164062"/>
      <use xlink:href="#DejaVuSans-20" x="527.369141"/>
      <use xlink:href="#DejaVuSans-66" x="559.15625"/>
      <use xlink:href="#DejaVuSans-75" x="594.361328"/>
      <use xlink:href="#DejaVuSans-6e" x="657.740234"/>
      <use xlink:href="#DejaVuSans-63" x="721.119141"/>
      <use xlink:href="#DejaVuSans-74" x="776.099609"/>
      <use xlink:href="#DejaVuSans-69" x="815.308594"/>
      <use xlink:href="#DejaVuSans-6f" x="843.091797"/>
      <use xlink:href="#DejaVuSans-6e" x="904.273438"/>
      <use xlink:href="#DejaVuSans-2c" x="967.652344"/>
      <use xlink:href="#DejaVuSans-74" x="999.439453"/>
      <use xlink:href="#DejaVuSans-61" x="1038.648438"/>
      <use xlink:href="#DejaVuSans-72" x="1099.927734"/>
      <use xlink:href="#DejaVuSans-67" x="1139.291016"/>
      <use xlink:href="#DejaVuSans-65" x="1202.767578"/>
      <use xlink:href="#DejaVuSans-74" x="1264.291016"/>
      <use xlink:href="#DejaVuSans-20" x="1303.5"/>
      <use xlink:href="#DejaVuSans-70" x="1335.287109"/>
      <use xlink:href="#DejaVuSans-61" x="1398.763672"/>
      <use xlink:href="#DejaVuSans-69" x="1460.042969"/>
      <use xlink:href="#DejaVuSans-72" x="1487.826172"/>
      <use xlink:href="#DejaVuSans-73" x="1528.939453"/>
     </g>
    </g>
   </g>
   <g id="line2d_33">
    <defs>
     <path id="m876a428497" d="M 0 1.5 
C 0.397805 1.5 0.77937 1.341951 1.06066 1.06066 
C 1.341951 0.77937 1.5 0.397805 1.5 0 
C 1.5 -0.397805 1.341951 -0.77937 1.06066 -1.06066 
C 0.77937 -1.341951 0.397805 -1.5 0 -1.5 
C -0.397805 -1.5 -0.77937 -1.341951 -1.06066 -1.06066 
C -1.341951 -0.77937 -1.5 -0.397805 -1.5 0 
C -1.5 0.397805 -1.341951 0.77937 -1.06066 1.06066 
C -0.77937 1.341951 -0.397805 1.5 0 1.5 
z
" style="stroke: #f5deb3"/>
    </defs>
    <g>
     <use xlink:href="#m876a428497" x="295.953503" y="42.157241" style="fill: #f5deb3; stroke: #f5deb3"/>
     <use xlink:href="#m876a428497" x="295.953503" y="42.157241" style="fill: #f5deb3; stroke: #f5deb3"/>
    </g>
   </g>
   <g id="line2d_34">
    <defs>
     <path id="mb2a32f34a4" d="M 0 1.5 
C 0.397805 1.5 0.77937 1.341951 1.06066 1.06066 
C 1.341951 0.77937 1.5 0.397805 1.5 0 
C 1.5 -0.397805 1.341951 -0.77937 1.06066 -1.06066 
C 0.77937 -1.341951 0.397805 -1.5 0 -1.5 
C -0.397805 -1.5 -0.77937 -1.341951 -1.06066 -1.06066 
C -1.341951 -0.77937 -1.5 -0.397805 -1.5 0 
C -1.5 0.397805 -1.341951 0.77937 -1.06066 1.06066 
C -0.77937 1.341951 -0.397805 1.5 0 1.5 
z
" style="stroke: #000080"/>
    </defs>
    <g>
     <use xlink:href="#mb2a32f34a4" x="81.696354" y="276.663972" style="fill: #000080; stroke: #000080"/>
     <use xlink:href="#mb2a32f34a4" x="81.696354" y="276.663972" style="fill: #000080; stroke: #000080"/>
    </g>
   </g>
   <g id="line2d_35">
    <path d="M 27.323974 298.944 
L 27.323974 291.6432 
L 40.363149 291.6432 
L 40.363149 290.258566 
L 47.990577 290.258566 
L 47.990577 288.118676 
L 53.402323 288.118676 
L 53.402323 287.237545 
L 57.6 287.237545 
L 57.6 285.601159 
L 61.029752 285.601159 
L 61.029752 284.845903 
L 63.929565 284.845903 
L 63.929565 283.838897 
L 66.441498 283.838897 
L 66.441498 282.580138 
L 68.65718 282.580138 
L 68.65718 282.076634 
L 70.639174 282.076634 
L 70.639174 281.447255 
L 72.432107 281.447255 
L 72.432107 280.692 
L 74.068926 280.692 
L 74.068926 280.566124 
L 75.574654 280.566124 
L 75.574654 279.936745 
L 76.96874 279.936745 
L 76.96874 279.810869 
L 78.266603 279.810869 
L 78.266603 279.055614 
L 79.480672 279.055614 
L 79.480672 278.300359 
L 80.621116 278.300359 
L 80.621116 277.545103 
L 81.696354 277.545103 
L 81.696354 276.663972 
L 360.8064 276.663972 
" style="fill: none; stroke: #000080; stroke-width: 1.5; stroke-linecap: square"/>
   </g>
   <g id="line2d_36">
    <defs>
     <path id="m621aba3b81" d="M 0 6 
C 1.591219 6 3.117479 5.367802 4.242641 4.242641 
C 5.367802 3.117479 6 1.591219 6 0 
C 6 -1.591219 5.367802 -3.117479 4.242641 -4.242641 
C 3.117479 -5.367802 1.591219 -6 0 -6 
C -1.591219 -6 -3.117479 -5.367802 -4.242641 -4.242641 
C -5.367802 -3.117479 -6 -1.591219 -6 0 
C -6 1.591219 -5.367802 3.117479 -4.242641 4.242641 
C -3.117479 5.367802 -1.591219 6 0 6 
z
" style="stroke: #000080; stroke-width: 1.5"/>
    </defs>
    <g>
     <use xlink:href="#m621aba3b81" x="81.696354" y="277.545103" style="fill-opacity: 0; stroke: #000080; stroke-width: 1.5"/>
     <use xlink:href="#m621aba3b81" x="81.696354" y="277.545103" style="fill-opacity: 0; stroke: #000080; stroke-width: 1.5"/>
     <use xlink:href="#m621aba3b81" x="81.696354" y="276.663972" style="fill-opacity: 0; stroke: #000080; stroke-width: 1.5"/>
     <use xlink:href="#m621aba3b81" x="81.696354" y="276.663972" style="fill-opacity: 0; stroke: #000080; stroke-width: 1.5"/>
     <use xlink:href="#m621aba3b81" x="81.696354" y="276.663972" style="fill-opacity: 0; stroke: #000080; stroke-width: 1.5"/>
     <use xlink:href="#m621aba3b81" x="360.8064" y="276.663972" style="fill-opacity: 0; stroke: #000080; stroke-width: 1.5"/>
    </g>
   </g>
   <g id="line2d_37">
    <path style="fill: none; stroke: #000080; stroke-width: 1.5; stroke-linecap: square"/>
    <g/>
   </g>
   <g id="line2d_38">
    <path d="M 81.696354 276.663972 
" clip-path="url(#p65b5e4d5d0)" style="fill: none; stroke: #000080; stroke-width: 1.5; stroke-linecap: square"/>
    <defs>
     <path id="mf86a52b056" d="M -12 12 
L 12 -12 
M -12 -12 
L 12 12 
" style="stroke: #000080"/>
    </defs>
    <g clip-path="url(#p65b5e4d5d0)">
     <use xlink:href="#mf86a52b056" x="81.696354" y="276.663972" style="fill: #000080; stroke: #000080"/>
    </g>
   </g>
   <g id="line2d_39">
    <defs>
     <path id="mbeeb237cfc" d="M 0 1.5 
C 0.397805 1.5 0.77937 1.341951 1.06066 1.06066 
C 1.341951 0.77937 1.5 0.397805 1.5 0 
C 1.5 -0.397805 1.341951 -0.77937 1.06066 -1.06066 
C 0.77937 -1.341951 0.397805 -1.5 0 -1.5 
C -0.397805 -1.5 -0.77937 -1.341951 -1.06066 -1.06066 
C -1.341951 -0.77937 -1.5 -0.397805 -1.5 0 
C -1.5 0.397805 -1.341951 0.77937 -1.06066 1.06066 
C -0.77937 1.341951 -0.397805 1.5 0 1.5 
z
" style="stroke: #ff00ff"/>
    </defs>
    <g>
     <use xlink:href="#mbeeb237cfc" x="273.829556" y="124.731807" style="fill: #ff00ff; stroke: #ff00ff"/>
     <use xlink:href="#mbeeb237cfc" x="273.829556" y="124.731807" style="fill: #ff00ff; stroke: #ff00ff"/>
    </g>
   </g>
   <g id="line2d_40">
    <path d="M 27.323974 298.944 
L 27.323974 291.6432 
L 40.363149 291.6432 
L 40.363149 291.265572 
L 47.990577 291.265572 
L 47.990577 290.258566 
L 53.402323 290.258566 
L 53.402323 289.880938 
L 57.6 289.880938 
L 57.6 288.622179 
L 61.029752 288.622179 
L 61.029752 288.244552 
L 63.929565 288.244552 
L 63.929565 287.237545 
L 68.65718 287.237545 
L 68.65718 286.608166 
L 70.639174 286.608166 
L 70.639174 285.601159 
L 72.432107 285.601159 
L 72.432107 285.475283 
L 74.068926 285.475283 
L 74.068926 285.223531 
L 75.574654 285.223531 
L 75.574654 285.097655 
L 76.96874 285.097655 
L 76.96874 284.971779 
L 78.266603 284.971779 
L 78.266603 284.720028 
L 79.480672 284.720028 
L 79.480672 284.3424 
L 80.621116 284.3424 
L 80.621116 283.713021 
L 81.696354 283.713021 
L 81.696354 283.335393 
L 83.678349 283.335393 
L 83.678349 282.580138 
L 84.596168 282.580138 
L 84.596168 282.076634 
L 85.471281 282.076634 
L 85.471281 281.447255 
L 86.307488 281.447255 
L 86.307488 281.321379 
L 87.1081 281.321379 
L 87.1081 280.943752 
L 89.323782 280.943752 
L 89.323782 280.440248 
L 90.668036 280.440248 
L 90.668036 280.188497 
L 91.305777 280.188497 
L 91.305777 279.810869 
L 94.205591 279.810869 
L 94.205591 279.433241 
L 94.735529 279.433241 
L 94.735529 279.307366 
L 95.752617 279.307366 
L 95.752617 279.18149 
L 96.241256 279.18149 
L 96.241256 278.803862 
L 97.635342 278.803862 
L 97.635342 278.426234 
L 98.510456 278.426234 
L 98.510456 278.300359 
L 98.933205 278.300359 
L 98.933205 278.048607 
L 99.751228 278.048607 
L 99.751228 277.796855 
L 100.9152 277.796855 
L 100.9152 277.670979 
L 101.287718 277.670979 
L 101.287718 277.545103 
L 102.011329 277.545103 
L 102.011329 277.167476 
L 102.708132 277.167476 
L 102.708132 276.789848 
L 104.028784 276.789848 
L 104.028784 276.663972 
L 104.344952 276.663972 
L 104.344952 276.538097 
L 104.961779 276.538097 
L 104.961779 276.412221 
L 105.559021 276.412221 
L 105.559021 276.160469 
L 106.974091 276.160469 
L 106.974091 275.908717 
L 107.244765 275.908717 
L 107.244765 275.782841 
L 107.5116 275.782841 
L 107.5116 275.279338 
L 107.774703 275.279338 
L 107.774703 275.153462 
L 108.034177 275.153462 
L 108.034177 274.90171 
L 108.29012 274.90171 
L 108.29012 274.775834 
L 108.542628 274.775834 
L 108.542628 274.649959 
L 109.280431 274.649959 
L 109.280431 274.272331 
L 109.756698 274.272331 
L 109.756698 274.146455 
L 110.674517 274.146455 
L 110.674517 273.642952 
L 110.897141 273.642952 
L 110.897141 273.265324 
L 111.762192 273.265324 
L 111.762192 273.139448 
L 111.97238 273.139448 
L 111.97238 272.761821 
L 112.385837 272.761821 
L 112.385837 272.635945 
L 112.989468 272.635945 
L 112.989468 272.384193 
L 113.57433 272.384193 
L 113.57433 272.006566 
L 114.141556 272.006566 
L 114.141556 271.88069 
L 114.692177 271.88069 
L 114.692177 271.754814 
L 115.227139 271.754814 
L 115.227139 271.628938 
L 115.747307 271.628938 
L 115.747307 270.873683 
L 116.253478 270.873683 
L 116.253478 270.747807 
L 116.419219 270.747807 
L 116.419219 270.496055 
L 116.583514 270.496055 
L 116.583514 270.370179 
L 116.907859 270.370179 
L 116.907859 269.7408 
L 117.067958 269.7408 
L 117.067958 269.614924 
L 117.226706 269.614924 
L 117.226706 269.489048 
L 117.384126 269.489048 
L 117.384126 269.363172 
L 117.695068 269.363172 
L 117.695068 269.111421 
L 118.152051 269.111421 
L 118.152051 268.985545 
L 118.450653 268.985545 
L 118.450653 268.733793 
L 119.034004 268.733793 
L 119.034004 268.356166 
L 119.177058 268.356166 
L 119.177058 268.23029 
L 119.319033 268.23029 
L 119.319033 267.978538 
L 119.599808 267.978538 
L 119.599808 267.223283 
L 119.738639 267.223283 
L 119.738639 267.097407 
L 120.013265 267.097407 
L 120.013265 266.971531 
L 120.41783 266.971531 
L 120.41783 266.845655 
L 120.550775 266.845655 
L 120.550775 266.342152 
L 120.682786 266.342152 
L 120.682786 265.964524 
L 120.813877 265.964524 
L 120.813877 265.838648 
L 120.944062 265.838648 
L 120.944062 265.335145 
L 121.455972 265.335145 
L 121.455972 265.209269 
L 121.581803 265.209269 
L 121.581803 265.083393 
L 121.706797 265.083393 
L 121.706797 264.705766 
L 122.076872 264.705766 
L 122.076872 264.57989 
L 122.439807 264.57989 
L 122.439807 264.328138 
L 122.677931 264.328138 
L 122.677931 264.202262 
L 123.029559 264.202262 
L 123.029559 263.95051 
L 123.374735 263.95051 
L 123.374735 263.572883 
L 123.4884 263.572883 
L 123.4884 263.447007 
L 123.601383 263.447007 
L 123.601383 263.195255 
L 123.713691 263.195255 
L 123.713691 262.943503 
L 123.936316 262.943503 
L 123.936316 262.565876 
L 124.265389 262.565876 
L 124.373813 262.314124 
L 124.481616 262.314124 
L 124.481616 262.062372 
L 124.801367 262.062372 
L 124.801367 261.432993 
L 125.011554 261.432993 
L 125.115773 260.677738 
L 125.322496 260.677738 
L 125.322496 260.425986 
L 125.829577 260.425986 
L 125.829577 260.30011 
L 126.028642 260.30011 
L 126.127391 259.544855 
L 126.323346 259.544855 
L 126.420564 259.293103 
L 126.613505 259.293103 
L 126.709238 258.7896 
L 126.804487 258.7896 
L 126.804487 258.537848 
L 127.087372 258.537848 
L 127.18073 258.286097 
L 127.458055 258.286097 
L 127.549596 257.27909 
L 127.911368 257.27909 
L 128.000734 256.64971 
L 128.354013 256.64971 
L 128.354013 256.523834 
L 128.700779 256.523834 
L 128.700779 256.397959 
L 129.041269 256.397959 
L 129.125437 256.146207 
L 129.209231 256.146207 
L 129.209231 255.768579 
L 129.458394 255.768579 
L 129.54072 255.516828 
L 129.622688 255.516828 
L 129.622688 255.390952 
L 129.86647 255.390952 
L 129.86647 255.265076 
L 130.579414 255.265076 
L 130.656987 254.761572 
L 130.734242 254.761572 
L 130.734242 254.635697 
L 130.964122 254.635697 
L 131.040128 254.258069 
L 131.115828 254.258069 
L 131.115828 254.006317 
L 131.41562 254.006317 
L 131.489828 253.754566 
L 131.563744 253.754566 
L 131.563744 253.502814 
L 131.71071 253.502814 
L 131.71071 253.376938 
L 132.001241 253.376938 
L 132.001241 253.251062 
L 132.358208 253.251062 
L 132.428795 252.873434 
L 132.499119 252.873434 
L 132.499119 252.621683 
L 132.638982 252.621683 
L 132.638982 252.369931 
L 133.25581 252.369931 
L 133.25581 251.740552 
L 133.457005 251.740552 
L 133.523594 251.362924 
L 133.853052 251.362924 
L 133.918257 250.859421 
L 134.176839 250.859421 
L 134.240933 250.607669 
L 134.745971 250.607669 
L 134.745971 250.481793 
L 135.35878 250.481793 
L 135.35878 250.355917 
L 135.478982 250.355917 
L 135.478982 250.104166 
L 135.717106 250.104166 
L 135.776169 249.600662 
L 135.835047 249.600662 
L 135.835047 249.223034 
L 136.068734 249.223034 
L 136.068734 249.097159 
L 136.752866 249.097159 
L 136.752866 248.845407 
L 137.358854 248.845407 
L 137.358854 248.593655 
L 138.768422 248.593655 
L 138.768422 248.216028 
L 138.968547 248.216028 
L 138.968547 248.090152 
L 139.93843 248.090152 
L 139.93843 247.8384 
L 140.905699 247.8384 
L 140.905699 247.586648 
L 141.305488 247.586648 
L 141.305488 247.460772 
L 141.782854 247.460772 
L 141.782854 247.209021 
L 142.080444 247.209021 
L 142.080444 246.957269 
L 142.702713 246.957269 
L 142.702713 246.831393 
L 143.501625 246.831393 
L 143.501625 246.705517 
L 143.618588 246.705517 
L 143.696162 246.32789 
L 144.454795 246.32789 
L 144.491935 245.950262 
L 144.602918 245.950262 
L 144.602918 245.824386 
L 145.112353 245.824386 
L 145.112353 245.69851 
L 145.397382 245.69851 
L 145.397382 245.446759 
L 145.782376 245.446759 
L 145.782376 245.195007 
L 147.878349 245.195007 
L 147.971093 244.943255 
L 148.03267 244.943255 
L 148.03267 244.817379 
L 150.58682 244.817379 
L 150.58682 244.691503 
L 151.349377 244.691503 
L 151.349377 244.565628 
L 151.50336 244.565628 
L 151.50336 244.439752 
L 151.70673 244.439752 
L 151.757231 244.062124 
L 152.082223 244.062124 
L 152.082223 243.810372 
L 152.20574 243.810372 
L 152.20574 243.684497 
L 152.377312 243.684497 
L 152.450367 243.055117 
L 152.763699 243.055117 
L 152.835271 242.803366 
L 153.071898 242.803366 
L 153.165721 242.299862 
L 153.559331 242.299862 
L 153.559331 242.04811 
L 153.764426 242.04811 
L 153.787077 241.670483 
L 154.190197 241.670483 
L 154.190197 241.418731 
L 154.432362 241.418731 
L 154.432362 241.166979 
L 155.056244 241.166979 
L 155.056244 241.041103 
L 155.203786 241.041103 
L 155.266666 240.5376 
L 155.371001 240.5376 
L 155.371001 240.411724 
L 156.185481 240.411724 
L 156.185481 240.159972 
L 156.304668 240.159972 
L 156.363979 239.908221 
L 156.462418 239.908221 
L 156.540799 239.656469 
L 156.696589 239.656469 
L 156.696589 239.530593 
L 156.908716 239.530593 
L 156.966156 239.278841 
L 157.080512 239.278841 
L 157.118477 239.02709 
L 157.250754 239.02709 
L 157.269574 238.775338 
L 157.363398 238.775338 
L 157.419468 238.39771 
L 157.512549 238.39771 
L 157.512549 238.271834 
L 157.715719 238.271834 
L 157.825621 237.642455 
L 158.07959 237.642455 
L 158.151527 237.264828 
L 158.241064 237.264828 
L 158.294582 237.013076 
L 158.365703 237.013076 
L 158.365703 236.8872 
L 158.682463 236.8872 
L 158.752135 236.635448 
L 158.856162 236.635448 
L 158.959618 235.880193 
L 158.976805 235.880193 
L 159.045398 235.37669 
L 159.096679 235.37669 
L 159.198823 234.74731 
L 159.249688 234.74731 
L 159.249688 234.621434 
L 159.401463 234.621434 
L 159.485256 233.992055 
L 159.535354 233.992055 
L 159.535354 233.740303 
L 159.833168 233.740303 
L 159.931401 233.362676 
L 159.996606 233.362676 
L 160.029123 232.859172 
L 160.383158 232.859172 
L 160.383158 232.733297 
L 160.510264 232.733297 
L 160.620781 231.978041 
L 160.855439 231.978041 
L 160.933013 231.474538 
L 161.056469 231.474538 
L 161.163832 231.222786 
L 161.285788 231.222786 
L 161.331318 230.971034 
L 161.482294 230.971034 
L 161.497325 230.593407 
L 161.632069 230.593407 
L 161.736206 230.341655 
L 161.825009 230.341655 
L 161.854518 229.964028 
L 161.942766 229.964028 
L 162.015991 229.460524 
L 162.103487 229.460524 
L 162.132562 229.082897 
L 162.306075 229.082897 
L 162.392235 228.453517 
L 162.420867 228.453517 
L 162.463734 227.824138 
L 162.577572 227.824138 
L 162.620084 227.44651 
L 162.732982 227.44651 
L 162.817213 226.943007 
L 162.845206 226.943007 
L 162.928937 226.313628 
L 163.122872 226.313628 
L 163.164171 225.810124 
L 163.287526 225.810124 
L 163.369315 225.432497 
L 163.531835 225.432497 
L 163.531835 225.180745 
L 163.65281 225.180745 
L 163.719684 224.677241 
L 163.91889 224.677241 
L 163.997986 224.047862 
L 164.116009 224.047862 
L 164.220301 223.292607 
L 164.324018 223.292607 
L 164.362764 222.914979 
L 164.580835 222.914979 
L 164.63178 222.411476 
L 164.783793 222.411476 
L 164.859342 221.907972 
L 165.059334 221.907972 
L 165.059334 221.656221 
L 165.220276 221.656221 
L 165.330896 220.77509 
L 165.45305 220.77509 
L 165.45305 220.649214 
L 165.658907 220.649214 
L 165.707018 219.768083 
L 165.790918 219.768083 
L 165.850619 219.138703 
L 165.92201 219.138703 
L 166.004959 218.761076 
L 166.251633 218.761076 
L 166.251633 218.509324 
L 166.437427 218.509324 
L 166.541136 218.131697 
L 166.758217 218.131697 
L 166.8036 217.628193 
L 166.882759 217.628193 
L 166.894041 217.12469 
L 167.15166 217.12469 
L 167.218289 216.621186 
L 167.328816 216.621186 
L 167.339833 215.865931 
L 167.48247 215.865931 
L 167.48247 215.614179 
L 167.602324 215.614179 
L 167.602324 215.488303 
L 167.721419 215.488303 
L 167.796816 215.110676 
L 167.925369 215.110676 
L 167.968026 214.607172 
L 168.084835 214.607172 
L 168.084835 214.355421 
L 168.221954 214.355421 
L 168.242961 213.977793 
L 168.482867 213.977793 
L 168.586228 213.47429 
L 168.606832 213.47429 
L 168.606832 213.222538 
L 168.832 213.222538 
L 168.933465 212.215531 
L 169.044448 212.215531 
L 169.074603 211.460276 
L 169.174771 211.460276 
L 169.214689 211.208524 
L 169.304197 211.208524 
L 169.304197 210.956772 
L 169.481946 210.956772 
L 169.550619 210.705021 
L 169.755147 210.705021 
L 169.755147 210.453269 
L 169.9383 210.453269 
L 170.00533 210.075641 
L 170.072123 210.075641 
L 170.129185 209.82389 
L 170.383845 209.82389 
L 170.458643 209.320386 
L 170.49593 209.320386 
L 170.598091 208.565131 
L 170.745706 208.565131 
L 170.745706 208.313379 
L 170.873925 208.313379 
L 170.919507 207.809876 
L 171.118765 207.809876 
L 171.154768 207.432248 
L 171.404878 207.432248 
L 171.484569 206.928745 
L 171.555123 206.928745 
L 171.555123 206.676993 
L 171.704179 206.676993 
L 171.704179 206.551117 
L 171.88669 206.551117 
L 171.990192 206.17349 
L 172.050307 206.17349 
L 172.050307 205.921738 
L 172.169963 205.921738 
L 172.169963 205.669986 
L 172.314244 205.669986 
L 172.407015 204.914731 
L 172.616174 204.914731 
L 172.71575 203.530097 
L 172.740562 203.530097 
L 172.757085 202.774841 
L 173.011355 202.774841 
L 173.011355 202.648966 
L 173.230049 202.648966 
L 173.286335 202.271338 
L 173.493935 202.271338 
L 173.50981 201.89371 
L 173.652083 201.89371 
L 173.7385 201.516083 
L 173.972187 201.516083 
L 173.987664 201.264331 
L 174.195358 201.264331 
L 174.241203 200.760828 
L 174.362912 200.760828 
L 174.362912 200.509076 
L 174.5365 200.509076 
L 174.603992 199.627945 
L 174.648853 199.627945 
L 174.693607 199.124441 
L 174.967261 199.124441 
L 175.018589 198.495062 
L 175.098964 198.495062 
L 175.171736 197.739807 
L 175.236991 197.739807 
L 175.302021 197.236303 
L 175.417077 197.236303 
L 175.502909 196.355172 
L 175.65218 196.355172 
L 175.687546 196.103421 
L 175.870389 196.103421 
L 175.968112 195.725793 
L 176.093013 195.725793 
L 176.134464 195.348166 
L 176.278825 195.348166 
L 176.3267 194.844662 
L 176.483152 194.844662 
L 176.483152 194.341159 
L 176.604692 194.341159 
L 176.712072 193.460028 
L 176.725451 193.460028 
L 176.818842 193.0824 
L 176.865364 193.0824 
L 176.92501 192.453021 
L 176.997654 192.453021 
L 176.997654 192.201269 
L 177.115925 192.201269 
L 177.115925 192.075393 
L 177.369655 192.075393 
L 177.408389 191.320138 
L 177.51129 191.320138 
L 177.581709 190.690759 
L 177.632758 190.690759 
L 177.632758 190.439007 
L 177.753447 190.439007 
L 177.804033 190.187255 
L 177.904798 190.187255 
L 178.005027 189.557876 
L 178.017518 189.557876 
L 178.017518 189.432 
L 178.179151 189.432 
L 178.234779 189.054372 
L 178.51656 189.054372 
L 178.559072 188.676745 
L 178.698081 188.676745 
L 178.740186 188.299117 
L 178.937417 188.299117 
L 178.97899 187.795614 
L 179.055953 187.795614 
L 179.138486 186.914483 
L 179.214801 186.914483 
L 179.319959 186.159228 
L 179.343247 186.159228 
L 179.343247 186.033352 
L 179.482378 186.033352 
L 179.557313 185.152221 
L 179.59754 185.152221 
L 179.68345 184.648717 
L 179.808747 184.648717 
L 179.808747 184.396966 
L 180.07926 184.396966 
L 180.101628 183.893462 
L 180.345937 183.893462 
L 180.384513 183.515834 
L 180.483348 183.515834 
L 180.581667 183.012331 
L 180.603446 183.012331 
L 180.636067 182.634703 
L 180.760594 182.634703 
L 180.760594 182.257076 
L 181.076312 182.257076 
L 181.118716 181.879448 
L 181.245358 181.879448 
L 181.318841 181.501821 
L 181.459752 181.501821 
L 181.459752 181.375945 
L 181.589291 181.375945 
L 181.589291 181.250069 
L 181.728198 181.250069 
L 181.779386 180.872441 
L 181.845723 180.872441 
L 181.942258 180.368938 
L 181.97264 180.368938 
L 181.97264 180.243062 
L 182.118798 180.243062 
L 182.153909 179.487807 
L 182.243892 179.487807 
L 182.313583 179.110179 
L 182.47684 179.110179 
L 182.535857 178.606676 
L 182.663095 178.606676 
L 182.731253 177.977297 
L 182.774938 177.977297 
L 182.871656 177.599669 
L 183.206305 177.599669 
L 183.239445 176.718538 
L 183.357327 176.718538 
L 183.357327 176.592662 
L 183.623367 176.592662 
L 183.697374 176.34091 
L 183.771091 176.34091 
L 183.858256 175.963283 
L 183.963234 175.963283 
L 183.981431 175.711531 
L 184.112838 175.711531 
L 184.112838 175.459779 
L 184.247818 175.459779 
L 184.355108 175.082152 
L 184.395185 175.082152 
L 184.426297 174.8304 
L 184.63826 174.8304 
L 184.730249 174.452772 
L 184.756448 174.452772 
L 184.756448 174.326897 
L 185.059448 174.326897 
L 185.093768 174.075145 
L 185.260186 174.075145 
L 185.366096 173.571641 
L 185.382986 173.571641 
L 185.488208 172.942262 
L 185.525944 172.942262 
L 185.605362 172.438759 
L 185.734223 172.438759 
L 185.734223 172.312883 
L 185.882769 172.312883 
L 185.882769 172.187007 
L 186.127768 172.187007 
L 186.156144 171.683503 
L 186.301408 171.683503 
L 186.301408 171.557628 
L 186.47346 171.557628 
L 186.560881 171.18 
L 186.65579 171.18 
L 186.691257 170.802372 
L 186.793345 170.802372 
L 186.79726 170.424745 
L 186.906562 170.424745 
L 186.984247 170.047117 
L 187.130972 170.047117 
L 187.130972 169.921241 
L 187.265108 169.921241 
L 187.265108 169.66949 
L 187.762558 169.66949 
L 187.762558 169.543614 
L 187.940236 169.543614 
L 188.043112 168.788359 
L 188.218173 168.788359 
L 188.297867 168.410731 
L 188.370025 168.410731 
L 188.463419 168.033103 
L 188.56348 168.033103 
L 188.673646 167.781352 
L 189.166736 167.781352 
L 189.166736 167.655476 
L 189.307725 167.655476 
L 189.355626 167.277848 
L 189.87132 167.277848 
L 189.87132 167.151972 
L 190.046713 167.151972 
L 190.122321 166.900221 
L 190.223749 166.900221 
L 190.2954 166.01909 
L 190.405598 166.01909 
L 190.405598 165.767338 
L 190.582506 165.767338 
L 190.684673 165.38971 
L 190.738725 165.38971 
L 190.738725 165.263834 
L 191.510079 165.263834 
L 191.540528 165.012083 
L 192.842244 165.012083 
L 192.842244 164.886207 
L 192.958287 164.886207 
L 192.989299 164.508579 
L 193.14639 164.508579 
L 193.157561 164.130952 
L 193.379594 164.130952 
L 193.40992 163.753324 
L 193.538945 163.753324 
L 193.538945 163.627448 
L 193.734901 163.627448 
L 193.821341 163.375697 
L 193.987697 163.375697 
L 193.987697 163.249821 
L 194.208122 163.249821 
L 194.208122 163.123945 
L 194.4651 163.123945 
L 194.4651 162.998069 
L 194.721184 162.998069 
L 194.744292 162.746317 
L 194.836443 162.746317 
L 194.836443 162.620441 
L 195.213117 162.620441 
L 195.213117 162.36869 
L 195.753411 162.36869 
L 195.753411 162.242814 
L 195.987848 162.242814 
L 196.023842 161.991062 
L 196.236 161.991062 
L 196.285713 161.73931 
L 196.613816 161.73931 
L 196.613816 161.613434 
L 197.100013 161.613434 
L 197.172322 161.361683 
L 197.487663 161.361683 
L 197.573959 160.732303 
L 197.73881 160.732303 
L 197.73881 160.480552 
L 198.320591 160.480552 
L 198.320591 160.354676 
L 198.453789 160.354676 
L 198.453789 160.2288 
L 198.657046 160.2288 
L 198.657046 159.977048 
L 198.779611 159.977048 
L 198.779611 159.851172 
L 199.108026 159.851172 
L 199.108026 159.725297 
L 199.233761 159.725297 
L 199.233761 159.473545 
L 199.438805 159.473545 
L 199.438805 159.347669 
L 199.613927 159.347669 
L 199.613927 159.221793 
L 199.89897 159.221793 
L 199.949628 158.970041 
L 200.355766 158.970041 
L 200.355766 158.844166 
L 200.526368 158.844166 
L 200.526368 158.71829 
L 200.747727 158.71829 
L 200.844454 158.466538 
L 200.866706 158.466538 
L 200.970198 157.963034 
L 201.22101 157.963034 
L 201.250085 157.585407 
L 201.369547 157.585407 
L 201.369547 157.333655 
L 201.55805 157.333655 
L 201.55805 157.207779 
L 201.75706 157.207779 
L 201.75706 156.956028 
L 201.950487 156.956028 
L 201.981951 156.704276 
L 202.564888 156.704276 
L 202.564888 156.5784 
L 203.138516 156.5784 
L 203.145085 156.326648 
L 203.326446 156.326648 
L 203.383271 156.074897 
L 203.483513 156.074897 
L 203.557543 155.823145 
L 203.909201 155.823145 
L 203.913929 155.319641 
L 204.151974 155.319641 
L 204.151974 155.193766 
L 204.684376 155.193766 
L 204.684376 155.06789 
L 205.683063 155.06789 
L 205.69597 154.816138 
L 205.865798 154.816138 
L 205.865798 154.690262 
L 206.237174 154.690262 
L 206.237174 154.564386 
L 206.396683 154.564386 
L 206.396683 154.43851 
L 206.734776 154.43851 
L 206.78896 154.186759 
L 207.142717 154.186759 
L 207.142717 154.060883 
L 207.570569 154.060883 
L 207.66764 153.809131 
L 207.692152 153.809131 
L 207.692152 153.557379 
L 207.816796 153.557379 
L 207.892208 153.305628 
L 208.144359 153.305628 
L 208.144359 153.179752 
L 208.541638 153.179752 
L 208.541638 153.053876 
L 208.76825 153.053876 
L 208.76825 152.928 
L 209.259761 152.928 
L 209.353236 152.550372 
L 209.407451 152.550372 
L 209.407451 152.424497 
L 209.829887 152.424497 
L 209.829887 152.298621 
L 210.975 152.298621 
L 210.975 152.172745 
L 211.215998 152.172745 
L 211.215998 152.046869 
L 211.410618 152.046869 
L 211.410618 151.795117 
L 211.724335 151.795117 
L 211.724335 151.543366 
L 211.891117 151.543366 
L 211.891117 151.291614 
L 212.160422 151.291614 
L 212.261815 151.039862 
L 212.805989 151.039862 
L 212.860922 150.662234 
L 212.927411 150.662234 
L 212.927411 150.536359 
L 213.321486 150.536359 
L 213.377795 150.158731 
L 214.121461 150.158731 
L 214.213753 149.781103 
L 214.2429 149.781103 
L 214.2429 149.529352 
L 214.720965 149.529352 
L 214.73427 149.2776 
L 214.872084 149.2776 
L 214.872084 149.151724 
L 215.249399 149.151724 
L 215.249399 148.899972 
L 215.374079 148.899972 
L 215.374079 148.774097 
L 215.529413 148.774097 
L 215.529413 148.648221 
L 216.024328 148.648221 
L 216.024328 148.522345 
L 216.231811 148.522345 
L 216.231811 148.396469 
L 216.934971 148.396469 
L 216.934971 148.144717 
L 217.427755 148.144717 
L 217.427755 148.018841 
L 217.888476 148.018841 
L 217.888476 147.892966 
L 218.255274 147.892966 
L 218.255274 147.76709 
L 218.559428 147.76709 
L 218.559428 147.641214 
L 218.961715 147.641214 
L 218.961715 147.515338 
L 219.457253 147.515338 
L 219.457253 147.389462 
L 219.701233 147.389462 
L 219.701233 147.13771 
L 220.523906 147.13771 
L 220.583124 146.256579 
L 220.654458 146.256579 
L 220.654458 146.130703 
L 220.770607 146.130703 
L 220.770607 146.004828 
L 221.111654 146.004828 
L 221.111654 145.878952 
L 221.327098 145.878952 
L 221.327098 145.753076 
L 221.491875 145.753076 
L 221.491875 145.6272 
L 221.796463 145.6272 
L 221.796463 145.375448 
L 221.943905 145.375448 
L 222.001837 144.997821 
L 222.367608 144.997821 
L 222.40421 144.620193 
L 222.630497 144.620193 
L 222.68868 143.990814 
L 222.751895 143.990814 
L 222.763471 143.48731 
L 223.406206 143.48731 
L 223.406206 143.361434 
L 223.774437 143.361434 
L 223.774437 143.235559 
L 224.565291 143.235559 
L 224.565291 142.983807 
L 225.143596 142.983807 
L 225.247319 142.732055 
L 225.433496 142.732055 
L 225.433496 142.606179 
L 225.550113 142.606179 
L 225.550113 142.354428 
L 225.768382 142.354428 
L 225.768382 142.228552 
L 226.159825 142.228552 
L 226.159825 142.102676 
L 226.292195 142.102676 
L 226.292195 141.9768 
L 226.69038 141.9768 
L 226.760222 141.599172 
L 227.125794 141.599172 
L 227.161552 141.221545 
L 227.256574 141.221545 
L 227.256574 141.095669 
L 227.888359 141.095669 
L 227.888359 140.969793 
L 228.024462 140.969793 
L 228.024462 140.843917 
L 228.333382 140.843917 
L 228.333382 140.718041 
L 229.162589 140.718041 
L 229.162589 140.592166 
L 229.941777 140.592166 
L 229.941777 140.46629 
L 230.539785 140.46629 
L 230.539785 140.340414 
L 230.762347 140.340414 
L 230.843109 140.088662 
L 230.997626 140.088662 
L 231.091886 139.585159 
L 231.802253 139.585159 
L 231.836219 139.333407 
L 232.080042 139.333407 
L 232.080042 139.207531 
L 232.783256 139.207531 
L 232.783256 139.081655 
L 233.861174 139.081655 
L 233.953328 138.829903 
L 235.240591 138.829903 
L 235.274244 138.578152 
L 235.400577 138.578152 
L 235.400577 138.452276 
L 235.573568 138.452276 
L 235.604001 137.948772 
L 235.751367 137.948772 
L 235.751367 137.571145 
L 236.383208 137.571145 
L 236.383208 137.445269 
L 237.133576 137.445269 
L 237.133576 137.319393 
L 237.503774 137.319393 
L 237.503774 137.193517 
L 238.529318 137.193517 
L 238.529318 137.067641 
L 240.698335 137.067641 
L 240.698335 136.941766 
L 240.974623 136.941766 
L 240.974623 136.690014 
L 241.21808 136.690014 
L 241.21808 136.564138 
L 241.465065 136.564138 
L 241.465065 136.438262 
L 241.766882 136.438262 
L 241.766882 136.312386 
L 242.097709 136.312386 
L 242.097709 136.18651 
L 242.30586 136.18651 
L 242.30586 136.060634 
L 242.454332 136.060634 
L 242.494309 135.808883 
L 243.639521 135.808883 
L 243.70369 135.431255 
L 244.061808 135.431255 
L 244.061808 135.179503 
L 244.213568 135.179503 
L 244.213568 135.053628 
L 244.450359 135.053628 
L 244.450359 134.927752 
L 245.635015 134.927752 
L 245.635015 134.801876 
L 246.508655 134.801876 
L 246.508655 134.550124 
L 246.664884 134.550124 
L 246.664884 134.424248 
L 247.043187 134.424248 
L 247.061323 134.172497 
L 247.812882 134.172497 
L 247.812882 134.046621 
L 248.56157 134.046621 
L 248.56157 133.920745 
L 248.884011 133.920745 
L 248.884011 133.794869 
L 249.09128 133.794869 
L 249.172614 133.291366 
L 249.270997 133.291366 
L 249.376743 133.039614 
L 249.418736 133.039614 
L 249.516681 132.410234 
L 249.867722 132.410234 
L 249.978076 132.158483 
L 250.179623 132.158483 
L 250.179623 131.906731 
L 250.360361 131.906731 
L 250.360361 131.654979 
L 250.591121 131.654979 
L 250.591121 131.529103 
L 250.85863 131.529103 
L 250.85863 131.277352 
L 252.371143 131.277352 
L 252.371143 131.151476 
L 253.221228 131.151476 
L 253.221228 130.899724 
L 253.416087 130.899724 
L 253.416087 130.647972 
L 253.573773 130.647972 
L 253.573773 130.396221 
L 254.23305 130.396221 
L 254.23305 130.144469 
L 254.560253 130.144469 
L 254.560253 130.018593 
L 255.744232 130.018593 
L 255.744232 129.892717 
L 256.21839 129.892717 
L 256.21839 129.766841 
L 256.355495 129.766841 
L 256.438073 129.389214 
L 256.851755 129.389214 
L 256.851755 129.263338 
L 257.250337 129.263338 
L 257.250337 129.011586 
L 258.621711 129.011586 
L 258.621711 128.759834 
L 260.419154 128.759834 
L 260.419154 128.633959 
L 262.485877 128.633959 
L 262.485877 128.382207 
L 262.98488 128.382207 
L 262.98488 128.130455 
L 264.294994 128.130455 
L 264.378211 127.752828 
L 265.539972 127.752828 
L 265.539972 127.501076 
L 266.14792 127.501076 
L 266.14792 127.3752 
L 267.155542 127.3752 
L 267.155542 127.123448 
L 268.008813 127.123448 
L 268.041579 126.619945 
L 268.172745 126.619945 
L 268.172745 126.368193 
L 268.862319 126.368193 
L 268.862319 126.116441 
L 269.745602 126.116441 
L 269.745602 125.990566 
L 270.001353 125.990566 
L 270.001353 125.738814 
L 270.598867 125.738814 
L 270.598867 125.487062 
L 271.027008 125.487062 
L 271.027008 125.361186 
L 271.202942 125.361186 
L 271.202942 125.23531 
L 272.325393 125.23531 
L 272.325393 124.983559 
L 273.829556 124.983559 
L 273.829556 124.731807 
L 360.8064 124.731807 
L 360.8064 124.731807 
" style="fill: none; stroke: #ff00ff; stroke-width: 1.5; stroke-linecap: square"/>
   </g>
   <g id="line2d_41">
    <defs>
     <path id="m0fccd92ae3" d="M 0 8.485281 
L 5.091169 0 
L 0 -8.485281 
L -5.091169 0 
z
" style="stroke: #ff00ff; stroke-width: 1.5; stroke-linejoin: miter"/>
    </defs>
    <g>
     <use xlink:href="#m0fccd92ae3" x="85.471281" y="282.076634" style="fill-opacity: 0; stroke: #ff00ff; stroke-width: 1.5; stroke-linejoin: miter"/>
     <use xlink:href="#m0fccd92ae3" x="148.03267" y="244.817379" style="fill-opacity: 0; stroke: #ff00ff; stroke-width: 1.5; stroke-linejoin: miter"/>
     <use xlink:href="#m0fccd92ae3" x="207.570569" y="153.935007" style="fill-opacity: 0; stroke: #ff00ff; stroke-width: 1.5; stroke-linejoin: miter"/>
     <use xlink:href="#m0fccd92ae3" x="273.829556" y="124.983559" style="fill-opacity: 0; stroke: #ff00ff; stroke-width: 1.5; stroke-linejoin: miter"/>
     <use xlink:href="#m0fccd92ae3" x="273.829556" y="124.731807" style="fill-opacity: 0; stroke: #ff00ff; stroke-width: 1.5; stroke-linejoin: miter"/>
     <use xlink:href="#m0fccd92ae3" x="360.8064" y="124.731807" style="fill-opacity: 0; stroke: #ff00ff; stroke-width: 1.5; stroke-linejoin: miter"/>
    </g>
   </g>
   <g id="line2d_42">
    <path style="fill: none; stroke: #ff00ff; stroke-width: 1.5; stroke-linecap: square"/>
    <g/>
   </g>
   <g id="line2d_43">
    <path d="M 274.176038 124.731807 
" clip-path="url(#p65b5e4d5d0)" style="fill: none; stroke: #ff00ff; stroke-width: 1.5; stroke-linecap: square"/>
    <defs>
     <path id="mcea9d73038" d="M -12 12 
L 12 -12 
M -12 -12 
L 12 12 
" style="stroke: #ff00ff"/>
    </defs>
    <g clip-path="url(#p65b5e4d5d0)">
     <use xlink:href="#mcea9d73038" x="274.176038" y="124.731807" style="fill: #ff00ff; stroke: #ff00ff"/>
    </g>
   </g>
   <g id="line2d_44">
    <defs>
     <path id="m7b2780b3ac" d="M 0 1.5 
C 0.397805 1.5 0.77937 1.341951 1.06066 1.06066 
C 1.341951 0.77937 1.5 0.397805 1.5 0 
C 1.5 -0.397805 1.341951 -0.77937 1.06066 -1.06066 
C 0.77937 -1.341951 0.397805 -1.5 0 -1.5 
C -0.397805 -1.5 -0.77937 -1.341951 -1.06066 -1.06066 
C -1.341951 -0.77937 -1.5 -0.397805 -1.5 0 
C -1.5 0.397805 -1.341951 0.77937 -1.06066 1.06066 
C -0.77937 1.341951 -0.397805 1.5 0 1.5 
z
" style="stroke: #6495ed"/>
    </defs>
    <g>
     <use xlink:href="#m7b2780b3ac" x="113.954374" y="245.824386" style="fill: #6495ed; stroke: #6495ed"/>
     <use xlink:href="#m7b2780b3ac" x="113.954374" y="245.824386" style="fill: #6495ed; stroke: #6495ed"/>
    </g>
   </g>
   <g id="line2d_45">
    <path d="M 27.323974 298.944 
L 27.323974 296.174731 
L 40.363149 296.174731 
L 40.363149 295.419476 
L 47.990577 295.419476 
L 47.990577 294.160717 
L 53.402323 294.160717 
L 53.402323 291.6432 
L 57.6 291.6432 
L 57.6 291.139697 
L 61.029752 291.139697 
L 61.029752 290.510317 
L 63.929565 290.510317 
L 63.929565 290.258566 
L 66.441498 290.258566 
L 66.441498 288.873931 
L 68.65718 288.873931 
L 68.65718 287.489297 
L 70.639174 287.489297 
L 70.639174 287.111669 
L 72.432107 287.111669 
L 72.432107 286.608166 
L 74.068926 286.608166 
L 74.068926 285.978786 
L 75.574654 285.978786 
L 75.574654 285.727034 
L 76.96874 285.727034 
L 76.96874 285.475283 
L 78.266603 285.475283 
L 78.266603 283.964772 
L 80.621116 283.964772 
L 80.621116 283.209517 
L 81.696354 283.209517 
L 81.696354 282.957766 
L 82.713442 282.957766 
L 82.713442 282.20251 
L 83.678349 282.20251 
L 83.678349 281.699007 
L 84.596168 281.699007 
L 84.596168 281.573131 
L 85.471281 281.573131 
L 85.471281 281.195503 
L 87.1081 281.195503 
L 87.1081 280.943752 
L 87.876026 280.943752 
L 87.876026 280.817876 
L 88.613828 280.817876 
L 88.613828 280.062621 
L 90.007914 280.062621 
L 90.007914 279.936745 
L 91.922605 279.936745 
L 91.922605 279.559117 
L 92.519847 279.559117 
L 92.519847 279.307366 
L 93.098709 279.307366 
L 93.098709 278.677986 
L 93.66029 278.677986 
L 93.66029 278.048607 
L 94.205591 278.048607 
L 94.205591 277.796855 
L 95.250946 277.796855 
L 95.250946 277.670979 
L 95.752617 277.670979 
L 95.752617 277.167476 
L 97.18203 277.167476 
L 97.18203 277.0416 
L 98.510456 277.0416 
L 98.510456 276.789848 
L 100.147275 276.789848 
L 100.147275 276.538097 
L 100.535156 276.538097 
L 100.535156 276.286345 
L 100.9152 276.286345 
L 100.9152 276.034593 
L 101.287718 276.034593 
L 101.287718 275.53109 
L 101.653002 275.53109 
L 101.653002 275.279338 
L 102.011329 275.279338 
L 102.011329 275.027586 
L 102.362957 275.027586 
L 102.362957 274.775834 
L 102.708132 274.775834 
L 102.708132 274.146455 
L 103.047088 274.146455 
L 103.047088 273.265324 
L 103.380045 273.265324 
L 103.380045 271.754814 
L 103.707211 271.754814 
L 103.707211 270.118428 
L 104.028784 270.118428 
L 104.028784 269.111421 
L 104.344952 269.111421 
L 104.344952 268.104414 
L 104.655893 268.104414 
L 104.655893 267.726786 
L 104.961779 267.726786 
L 104.961779 266.593903 
L 105.26277 266.593903 
L 105.26277 264.831641 
L 105.559021 264.831641 
L 105.559021 263.447007 
L 105.850679 263.447007 
L 105.850679 262.943503 
L 106.137884 262.943503 
L 106.137884 261.684745 
L 106.42077 261.684745 
L 106.42077 261.432993 
L 106.699465 261.432993 
L 106.699465 261.055366 
L 106.974091 261.055366 
L 106.974091 260.803614 
L 107.244765 260.803614 
L 107.244765 259.796607 
L 107.5116 259.796607 
L 107.5116 259.544855 
L 108.034177 259.544855 
L 108.034177 258.411972 
L 108.29012 258.411972 
L 108.29012 257.153214 
L 108.542628 257.153214 
L 108.542628 256.64971 
L 108.791791 256.64971 
L 108.791791 255.390952 
L 109.037698 255.390952 
L 109.037698 254.887448 
L 109.280431 254.887448 
L 109.280431 254.761572 
L 109.520071 254.761572 
L 109.520071 254.635697 
L 109.756698 254.635697 
L 109.756698 253.62869 
L 109.990385 253.62869 
L 109.990385 253.502814 
L 110.221204 253.502814 
L 110.221204 252.99931 
L 110.449226 252.99931 
L 110.449226 252.873434 
L 110.674517 252.873434 
L 110.674517 251.866428 
L 110.897141 251.866428 
L 110.897141 250.859421 
L 111.117162 250.859421 
L 111.117162 249.852414 
L 111.334639 249.852414 
L 111.334639 249.600662 
L 111.762192 249.600662 
L 111.762192 248.845407 
L 111.97238 248.845407 
L 111.97238 248.719531 
L 112.180244 248.719531 
L 112.180244 248.593655 
L 112.589207 248.593655 
L 112.589207 247.964276 
L 112.790402 247.964276 
L 112.790402 247.586648 
L 112.989468 247.586648 
L 112.989468 247.209021 
L 113.186449 247.209021 
L 113.186449 246.32789 
L 113.381389 246.32789 
L 113.381389 246.076138 
L 113.954374 246.076138 
L 113.954374 245.824386 
L 360.8064 245.824386 
L 360.8064 245.824386 
" style="fill: none; stroke: #6495ed; stroke-width: 1.5; stroke-linecap: square"/>
   </g>
   <g id="line2d_46">
    <defs>
     <path id="m2fd0ab45fb" d="M -0 6 
L 6 -6 
L -6 -6 
z
" style="stroke: #6495ed; stroke-width: 1.5; stroke-linejoin: miter"/>
    </defs>
    <g>
     <use xlink:href="#m2fd0ab45fb" x="98.510456" y="276.789848" style="fill-opacity: 0; stroke: #6495ed; stroke-width: 1.5; stroke-linejoin: miter"/>
     <use xlink:href="#m2fd0ab45fb" x="113.954374" y="246.076138" style="fill-opacity: 0; stroke: #6495ed; stroke-width: 1.5; stroke-linejoin: miter"/>
     <use xlink:href="#m2fd0ab45fb" x="113.954374" y="245.824386" style="fill-opacity: 0; stroke: #6495ed; stroke-width: 1.5; stroke-linejoin: miter"/>
     <use xlink:href="#m2fd0ab45fb" x="113.954374" y="245.824386" style="fill-opacity: 0; stroke: #6495ed; stroke-width: 1.5; stroke-linejoin: miter"/>
     <use xlink:href="#m2fd0ab45fb" x="113.954374" y="245.824386" style="fill-opacity: 0; stroke: #6495ed; stroke-width: 1.5; stroke-linejoin: miter"/>
     <use xlink:href="#m2fd0ab45fb" x="360.8064" y="245.824386" style="fill-opacity: 0; stroke: #6495ed; stroke-width: 1.5; stroke-linejoin: miter"/>
    </g>
   </g>
   <g id="line2d_47">
    <path style="fill: none; stroke: #6495ed; stroke-width: 1.5; stroke-linecap: square"/>
    <g/>
   </g>
   <g id="line2d_48">
    <path d="M 113.954374 245.824386 
" clip-path="url(#p65b5e4d5d0)" style="fill: none; stroke: #6495ed; stroke-width: 1.5; stroke-linecap: square"/>
    <defs>
     <path id="m148f2b5b02" d="M -12 12 
L 12 -12 
M -12 -12 
L 12 12 
" style="stroke: #6495ed"/>
    </defs>
    <g clip-path="url(#p65b5e4d5d0)">
     <use xlink:href="#m148f2b5b02" x="113.954374" y="245.824386" style="fill: #6495ed; stroke: #6495ed"/>
    </g>
   </g>
   <g id="line2d_49">
    <path d="M 360.8064 276.663972 
L 380.514816 293.10336 
" style="fill: none; stroke: #000080; stroke-width: 1.5; stroke-linecap: square"/>
    <g>
     <use xlink:href="#m621aba3b81" x="360.8064" y="276.663972" style="fill-opacity: 0; stroke: #000080; stroke-width: 1.5"/>
     <use xlink:href="#m621aba3b81" x="380.514816" y="293.10336" style="fill-opacity: 0; stroke: #000080; stroke-width: 1.5"/>
    </g>
   </g>
   <g id="line2d_50">
    <path d="M 360.8064 245.824386 
L 380.514816 199.65312 
" style="fill: none; stroke: #6495ed; stroke-width: 1.5; stroke-linecap: square"/>
    <g>
     <use xlink:href="#m2fd0ab45fb" x="360.8064" y="245.824386" style="fill-opacity: 0; stroke: #6495ed; stroke-width: 1.5; stroke-linejoin: miter"/>
     <use xlink:href="#m2fd0ab45fb" x="380.514816" y="199.65312" style="fill-opacity: 0; stroke: #6495ed; stroke-width: 1.5; stroke-linejoin: miter"/>
    </g>
   </g>
   <g id="line2d_51">
    <path d="M 360.8064 124.731807 
L 380.514816 106.20288 
" style="fill: none; stroke: #ff00ff; stroke-width: 1.5; stroke-linecap: square"/>
    <g>
     <use xlink:href="#m0fccd92ae3" x="360.8064" y="124.731807" style="fill-opacity: 0; stroke: #ff00ff; stroke-width: 1.5; stroke-linejoin: miter"/>
     <use xlink:href="#m0fccd92ae3" x="380.514816" y="106.20288" style="fill-opacity: 0; stroke: #ff00ff; stroke-width: 1.5; stroke-linejoin: miter"/>
    </g>
   </g>
   <g id="line2d_52">
    <path d="M 360.8064 298.944 
L 360.8064 6.912 
" style="fill: none; stroke: #000000; stroke-width: 1.5; stroke-linecap: square"/>
   </g>
   <g id="patch_3">
    <path d="M 57.6 298.944 
L 360.8064 298.944 
" style="fill: none; stroke: #000000; stroke-width: 0.8; stroke-linejoin: miter; stroke-linecap: square"/>
   </g>
   <g id="patch_4">
    <path d="M 57.6 6.912 
L 360.8064 6.912 
" style="fill: none; stroke: #000000; stroke-width: 0.8; stroke-linejoin: miter; stroke-linecap: square"/>
   </g>
   <g id="text_13">
    <!-- cma -->
    <g transform="translate(386.578944 296.966485)scale(0.14 -0.14)">
     <use xlink:href="#DejaVuSans-63"/>
     <use xlink:href="#DejaVuSans-6d" x="54.980469"/>
     <use xlink:href="#DejaVuSans-61" x="152.392578"/>
    </g>
   </g>
   <g id="text_14">
    <!-- parEgo -->
    <g transform="translate(386.578944 203.516245)scale(0.14 -0.14)">
     <defs>
      <path id="DejaVuSans-45" d="M 628 4666 
L 3578 4666 
L 3578 4134 
L 1259 4134 
L 1259 2753 
L 3481 2753 
L 3481 2222 
L 1259 2222 
L 1259 531 
L 3634 531 
L 3634 0 
L 628 0 
L 628 4666 
z
" transform="scale(0.015625)"/>
     </defs>
     <use xlink:href="#DejaVuSans-70"/>
     <use xlink:href="#DejaVuSans-61" x="63.476562"/>
     <use xlink:href="#DejaVuSans-72" x="124.755859"/>
     <use xlink:href="#DejaVuSans-45" x="165.869141"/>
     <use xlink:href="#DejaVuSans-67" x="229.052734"/>
     <use xlink:href="#DejaVuSans-6f" x="292.529297"/>
    </g>
   </g>
   <g id="text_15">
    <!-- external- -->
    <g transform="translate(386.578944 110.066005)scale(0.14 -0.14)">
     <defs>
      <path id="DejaVuSans-78" d="M 3513 3500 
L 2247 1797 
L 3578 0 
L 2900 0 
L 1881 1375 
L 863 0 
L 184 0 
L 1544 1831 
L 300 3500 
L 978 3500 
L 1906 2253 
L 2834 3500 
L 3513 3500 
z
" transform="scale(0.015625)"/>
     </defs>
     <use xlink:href="#DejaVuSans-65"/>
     <use xlink:href="#DejaVuSans-78" x="59.773438"/>
     <use xlink:href="#DejaVuSans-74" x="118.953125"/>
     <use xlink:href="#DejaVuSans-65" x="158.162109"/>
     <use xlink:href="#DejaVuSans-72" x="219.685547"/>
     <use xlink:href="#DejaVuSans-6e" x="259.048828"/>
     <use xlink:href="#DejaVuSans-61" x="322.427734"/>
     <use xlink:href="#DejaVuSans-6c" x="383.707031"/>
     <use xlink:href="#DejaVuSans-2d" x="411.490234"/>
    </g>
   </g>
   <g id="text_16">
    <!-- best 2016 -->
    <g transform="translate(386.578944 16.615765)scale(0.14 -0.14)">
     <defs>
      <path id="DejaVuSans-62" d="M 3116 1747 
Q 3116 2381 2855 2742 
Q 2594 3103 2138 3103 
Q 1681 3103 1420 2742 
Q 1159 2381 1159 1747 
Q 1159 1113 1420 752 
Q 1681 391 2138 391 
Q 2594 391 2855 752 
Q 3116 1113 3116 1747 
z
M 1159 2969 
Q 1341 3281 1617 3432 
Q 1894 3584 2278 3584 
Q 2916 3584 3314 3078 
Q 3713 2572 3713 1747 
Q 3713 922 3314 415 
Q 2916 -91 2278 -91 
Q 1894 -91 1617 61 
Q 1341 213 1159 525 
L 1159 0 
L 581 0 
L 581 4863 
L 1159 4863 
L 1159 2969 
z
" transform="scale(0.015625)"/>
     </defs>
     <use xlink:href="#DejaVuSans-62"/>
     <use xlink:href="#DejaVuSans-65" x="63.476562"/>
     <use xlink:href="#DejaVuSans-73" x="125"/>
     <use xlink:href="#DejaVuSans-74" x="177.099609"/>
     <use xlink:href="#DejaVuSans-20" x="216.308594"/>
     <use xlink:href="#DejaVuSans-32" x="248.095703"/>
     <use xlink:href="#DejaVuSans-30" x="311.71875"/>
     <use xlink:href="#DejaVuSans-31" x="375.341797"/>
     <use xlink:href="#DejaVuSans-36" x="438.964844"/>
    </g>
   </g>
   <g id="text_17">
    <!-- bbob-biobj f9, f10, f18, f19, 5-D -->
    <g transform="translate(60.632064 17.582726)scale(0.102 -0.102)">
     <defs>
      <path id="DejaVuSans-6a" d="M 603 3500 
L 1178 3500 
L 1178 -63 
Q 1178 -731 923 -1031 
Q 669 -1331 103 -1331 
L -116 -1331 
L -116 -844 
L 38 -844 
Q 366 -844 484 -692 
Q 603 -541 603 -63 
L 603 3500 
z
M 603 4863 
L 1178 4863 
L 1178 4134 
L 603 4134 
L 603 4863 
z
" transform="scale(0.015625)"/>
      <path id="DejaVuSans-39" d="M 703 97 
L 703 672 
Q 941 559 1184 500 
Q 1428 441 1663 441 
Q 2288 441 2617 861 
Q 2947 1281 2994 2138 
Q 2813 1869 2534 1725 
Q 2256 1581 1919 1581 
Q 1219 1581 811 2004 
Q 403 2428 403 3163 
Q 403 3881 828 4315 
Q 1253 4750 1959 4750 
Q 2769 4750 3195 4129 
Q 3622 3509 3622 2328 
Q 3622 1225 3098 567 
Q 2575 -91 1691 -91 
Q 1453 -91 1209 -44 
Q 966 3 703 97 
z
M 1959 2075 
Q 2384 2075 2632 2365 
Q 2881 2656 2881 3163 
Q 2881 3666 2632 3958 
Q 2384 4250 1959 4250 
Q 1534 4250 1286 3958 
Q 1038 3666 1038 3163 
Q 1038 2656 1286 2365 
Q 1534 2075 1959 2075 
z
" transform="scale(0.015625)"/>
      <path id="DejaVuSans-35" d="M 691 4666 
L 3169 4666 
L 3169 4134 
L 1269 4134 
L 1269 2991 
Q 1406 3038 1543 3061 
Q 1681 3084 1819 3084 
Q 2600 3084 3056 2656 
Q 3513 2228 3513 1497 
Q 3513 744 3044 326 
Q 2575 -91 1722 -91 
Q 1428 -91 1123 -41 
Q 819 9 494 109 
L 494 744 
Q 775 591 1075 516 
Q 1375 441 1709 441 
Q 2250 441 2565 725 
Q 2881 1009 2881 1497 
Q 2881 1984 2565 2268 
Q 2250 2553 1709 2553 
Q 1456 2553 1204 2497 
Q 953 2441 691 2322 
L 691 4666 
z
" transform="scale(0.015625)"/>
      <path id="DejaVuSans-44" d="M 1259 4147 
L 1259 519 
L 2022 519 
Q 2988 519 3436 956 
Q 3884 1394 3884 2338 
Q 3884 3275 3436 3711 
Q 2988 4147 2022 4147 
L 1259 4147 
z
M 628 4666 
L 1925 4666 
Q 3281 4666 3915 4102 
Q 4550 3538 4550 2338 
Q 4550 1131 3912 565 
Q 3275 0 1925 0 
L 628 0 
L 628 4666 
z
" transform="scale(0.015625)"/>
     </defs>
     <use xlink:href="#DejaVuSans-62"/>
     <use xlink:href="#DejaVuSans-62" x="63.476562"/>
     <use xlink:href="#DejaVuSans-6f" x="126.953125"/>
     <use xlink:href="#DejaVuSans-62" x="188.134766"/>
     <use xlink:href="#DejaVuSans-2d" x="251.611328"/>
     <use xlink:href="#DejaVuSans-62" x="287.695312"/>
     <use xlink:href="#DejaVuSans-69" x="351.171875"/>
     <use xlink:href="#DejaVuSans-6f" x="378.955078"/>
     <use xlink:href="#DejaVuSans-62" x="440.136719"/>
     <use xlink:href="#DejaVuSans-6a" x="503.613281"/>
     <use xlink:href="#DejaVuSans-20" x="531.396484"/>
     <use xlink:href="#DejaVuSans-66" x="563.183594"/>
     <use xlink:href="#DejaVuSans-39" x="598.388672"/>
     <use xlink:href="#DejaVuSans-2c" x="662.011719"/>
     <use xlink:href="#DejaVuSans-20" x="693.798828"/>
     <use xlink:href="#DejaVuSans-66" x="725.585938"/>
     <use xlink:href="#DejaVuSans-31" x="760.791016"/>
     <use xlink:href="#DejaVuSans-30" x="824.414062"/>
     <use xlink:href="#DejaVuSans-2c" x="888.037109"/>
     <use xlink:href="#DejaVuSans-20" x="919.824219"/>
     <use xlink:href="#DejaVuSans-66" x="951.611328"/>
     <use xlink:href="#DejaVuSans-31" x="986.816406"/>
     <use xlink:href="#DejaVuSans-38" x="1050.439453"/>
     <use xlink:href="#DejaVuSans-2c" x="1114.0625"/>
     <use xlink:href="#DejaVuSans-20" x="1145.849609"/>
     <use xlink:href="#DejaVuSans-66" x="1177.636719"/>
     <use xlink:href="#DejaVuSans-31" x="1212.841797"/>
     <use xlink:href="#DejaVuSans-39" x="1276.464844"/>
     <use xlink:href="#DejaVuSans-2c" x="1340.087891"/>
     <use xlink:href="#DejaVuSans-20" x="1371.875"/>
     <use xlink:href="#DejaVuSans-35" x="1403.662109"/>
     <use xlink:href="#DejaVuSans-2d" x="1467.285156"/>
     <use xlink:href="#DejaVuSans-44" x="1503.369141"/>
    </g>
    <!-- 58 targets: 1..-1.0e-4 -->
    <g transform="translate(60.632064 29.004495)scale(0.102 -0.102)">
     <defs>
      <path id="DejaVuSans-3a" d="M 750 794 
L 1409 794 
L 1409 0 
L 750 0 
L 750 794 
z
M 750 3309 
L 1409 3309 
L 1409 2516 
L 750 2516 
L 750 3309 
z
" transform="scale(0.015625)"/>
     </defs>
     <use xlink:href="#DejaVuSans-35"/>
     <use xlink:href="#DejaVuSans-38" x="63.623047"/>
     <use xlink:href="#DejaVuSans-20" x="127.246094"/>
     <use xlink:href="#DejaVuSans-74" x="159.033203"/>
     <use xlink:href="#DejaVuSans-61" x="198.242188"/>
     <use xlink:href="#DejaVuSans-72" x="259.521484"/>
     <use xlink:href="#DejaVuSans-67" x="298.884766"/>
     <use xlink:href="#DejaVuSans-65" x="362.361328"/>
     <use xlink:href="#DejaVuSans-74" x="423.884766"/>
     <use xlink:href="#DejaVuSans-73" x="463.09375"/>
     <use xlink:href="#DejaVuSans-3a" x="515.193359"/>
     <use xlink:href="#DejaVuSans-20" x="548.884766"/>
     <use xlink:href="#DejaVuSans-31" x="580.671875"/>
     <use xlink:href="#DejaVuSans-2e" x="644.294922"/>
     <use xlink:href="#DejaVuSans-2e" x="676.082031"/>
     <use xlink:href="#DejaVuSans-2d" x="707.869141"/>
     <use xlink:href="#DejaVuSans-31" x="743.953125"/>
     <use xlink:href="#DejaVuSans-2e" x="807.576172"/>
     <use xlink:href="#DejaVuSans-30" x="839.363281"/>
     <use xlink:href="#DejaVuSans-65" x="902.986328"/>
     <use xlink:href="#DejaVuSans-2d" x="964.509766"/>
     <use xlink:href="#DejaVuSans-34" x="1000.59375"/>
    </g>
    <!-- 10 instances -->
    <g transform="translate(60.632064 40.426264)scale(0.102 -0.102)">
     <use xlink:href="#DejaVuSans-31"/>
     <use xlink:href="#DejaVuSans-30" x="63.623047"/>
     <use xlink:href="#DejaVuSans-20" x="127.246094"/>
     <use xlink:href="#DejaVuSans-69" x="159.033203"/>
     <use xlink:href="#DejaVuSans-6e" x="186.816406"/>
     <use xlink:href="#DejaVuSans-73" x="250.195312"/>
     <use xlink:href="#DejaVuSans-74" x="302.294922"/>
     <use xlink:href="#DejaVuSans-61" x="341.503906"/>
     <use xlink:href="#DejaVuSans-6e" x="402.783203"/>
     <use xlink:href="#DejaVuSans-63" x="466.162109"/>
     <use xlink:href="#DejaVuSans-65" x="521.142578"/>
     <use xlink:href="#DejaVuSans-73" x="582.666016"/>
    </g>
   </g>
   <g id="text_18">
    <!-- v2.6, hv-hash=ff0e71e8cd978373 -->
    <g style="fill: #808080" transform="translate(123.707887 293.943992)scale(0.1 -0.1)">
     <defs>
      <path id="DejaVuSans-68" d="M 3513 2113 
L 3513 0 
L 2938 0 
L 2938 2094 
Q 2938 2591 2744 2837 
Q 2550 3084 2163 3084 
Q 1697 3084 1428 2787 
Q 1159 2491 1159 1978 
L 1159 0 
L 581 0 
L 581 4863 
L 1159 4863 
L 1159 2956 
Q 1366 3272 1645 3428 
Q 1925 3584 2291 3584 
Q 2894 3584 3203 3211 
Q 3513 2838 3513 2113 
z
" transform="scale(0.015625)"/>
      <path id="DejaVuSans-3d" d="M 678 2906 
L 4684 2906 
L 4684 2381 
L 678 2381 
L 678 2906 
z
M 678 1631 
L 4684 1631 
L 4684 1100 
L 678 1100 
L 678 1631 
z
" transform="scale(0.015625)"/>
      <path id="DejaVuSans-37" d="M 525 4666 
L 3525 4666 
L 3525 4397 
L 1831 0 
L 1172 0 
L 2766 4134 
L 525 4134 
L 525 4666 
z
" transform="scale(0.015625)"/>
      <path id="DejaVuSans-33" d="M 2597 2516 
Q 3050 2419 3304 2112 
Q 3559 1806 3559 1356 
Q 3559 666 3084 287 
Q 2609 -91 1734 -91 
Q 1441 -91 1130 -33 
Q 819 25 488 141 
L 488 750 
Q 750 597 1062 519 
Q 1375 441 1716 441 
Q 2309 441 2620 675 
Q 2931 909 2931 1356 
Q 2931 1769 2642 2001 
Q 2353 2234 1838 2234 
L 1294 2234 
L 1294 2753 
L 1863 2753 
Q 2328 2753 2575 2939 
Q 2822 3125 2822 3475 
Q 2822 3834 2567 4026 
Q 2313 4219 1838 4219 
Q 1578 4219 1281 4162 
Q 984 4106 628 3988 
L 628 4550 
Q 988 4650 1302 4700 
Q 1616 4750 1894 4750 
Q 2613 4750 3031 4423 
Q 3450 4097 3450 3541 
Q 3450 3153 3228 2886 
Q 3006 2619 2597 2516 
z
" transform="scale(0.015625)"/>
     </defs>
     <use xlink:href="#DejaVuSans-76"/>
     <use xlink:href="#DejaVuSans-32" x="59.179688"/>
     <use xlink:href="#DejaVuSans-2e" x="122.802734"/>
     <use xlink:href="#DejaVuSans-36" x="154.589844"/>
     <use xlink:href="#DejaVuSans-2c" x="218.212891"/>
     <use xlink:href="#DejaVuSans-20" x="250"/>
     <use xlink:href="#DejaVuSans-68" x="281.787109"/>
     <use xlink:href="#DejaVuSans-76" x="345.166016"/>
     <use xlink:href="#DejaVuSans-2d" x="401.720703"/>
     <use xlink:href="#DejaVuSans-68" x="437.804688"/>
     <use xlink:href="#DejaVuSans-61" x="501.183594"/>
     <use xlink:href="#DejaVuSans-73" x="562.462891"/>
     <use xlink:href="#DejaVuSans-68" x="614.5625"/>
     <use xlink:href="#DejaVuSans-3d" x="677.941406"/>
     <use xlink:href="#DejaVuSans-66" x="761.730469"/>
     <use xlink:href="#DejaVuSans-66" x="796.935547"/>
     <use xlink:href="#DejaVuSans-30" x="832.140625"/>
     <use xlink:href="#DejaVuSans-65" x="895.763672"/>
     <use xlink:href="#DejaVuSans-37" x="957.287109"/>
     <use xlink:href="#DejaVuSans-31" x="1020.910156"/>
     <use xlink:href="#DejaVuSans-65" x="1084.533203"/>
     <use xlink:href="#DejaVuSans-38" x="1146.056641"/>
     <use xlink:href="#DejaVuSans-63" x="1209.679688"/>
     <use xlink:href="#DejaVuSans-64" x="1264.660156"/>
     <use xlink:href="#DejaVuSans-39" x="1328.136719"/>
     <use xlink:href="#DejaVuSans-37" x="1391.759766"/>
     <use xlink:href="#DejaVuSans-38" x="1455.382812"/>
     <use xlink:href="#DejaVuSans-33" x="1519.005859"/>
     <use xlink:href="#DejaVuSans-37" x="1582.628906"/>
     <use xlink:href="#DejaVuSans-33" x="1646.251953"/>
    </g>
   </g>
  </g>
 </g>
 <defs>
  <clipPath id="p65b5e4d5d0">
   <rect x="57.6" y="6.912" width="303.2064" height="292.032"/>
  </clipPath>
 </defs>
</svg>
