<?xml version="1.0" encoding="utf-8" standalone="no"?>
<!DOCTYPE svg PUBLIC "-//W3C//DTD SVG 1.1//EN"
  "http://www.w3.org/Graphics/SVG/1.1/DTD/svg11.dtd">
<svg xmlns:xlink="http://www.w3.org/1999/xlink" width="460.8pt" height="345.6pt" viewBox="0 0 460.8 345.6" xmlns="http://www.w3.org/2000/svg" version="1.1">
 <metadata>
  <rdf:RDF xmlns:dc="http://purl.org/dc/elements/1.1/" xmlns:cc="http://creativecommons.org/ns#" xmlns:rdf="http://www.w3.org/1999/02/22-rdf-syntax-ns#">
   <cc:Work>
    <dc:type rdf:resource="http://purl.org/dc/dcmitype/StillImage"/>
    <dc:date>2022-06-19T21:02:47.668133</dc:date>
    <dc:format>image/svg+xml</dc:format>
    <dc:creator>
     <cc:Agent>
      <dc:title>Matplotlib v3.5.1, https://matplotlib.org/</dc:title>
     </cc:Agent>
    </dc:creator>
   </cc:Work>
  </rdf:RDF>
 </metadata>
 <defs>
  <style type="text/css">*{stroke-linejoin: round; stroke-linecap: butt}</style>
 </defs>
 <g id="figure_1">
  <g id="patch_1">
   <path d="M 0 345.6 
L 460.8 345.6 
L 460.8 0 
L 0 0 
z
" style="fill: #ffffff"/>
  </g>
  <g id="axes_1">
   <g id="patch_2">
    <path d="M 57.6 298.944 
L 360.8064 298.944 
L 360.8064 6.912 
L 57.6 6.912 
z
" style="fill: #ffffff"/>
   </g>
   <g id="line2d_1">
    <path d="M 40.363149 298.944 
L 40.363149 297.685241 
L 47.990577 297.685241 
L 47.990577 295.167724 
L 57.6 295.167724 
L 57.6 292.650207 
L 61.029752 292.650207 
L 61.029752 290.13269 
L 78.266603 290.13269 
L 78.266603 285.097655 
L 90.668036 285.097655 
L 90.668036 283.838897 
L 94.735529 283.838897 
L 94.735529 282.580138 
L 96.717523 282.580138 
L 96.717523 280.062621 
L 97.18203 280.062621 
L 97.18203 277.545103 
L 117.695068 277.545103 
L 117.695068 275.027586 
L 121.455972 275.027586 
L 121.455972 271.25131 
L 127.821575 271.25131 
L 127.821575 269.992552 
L 139.556456 269.992552 
L 139.556456 266.216276 
L 149.223672 266.216276 
L 149.223672 263.698759 
L 154.476059 263.698759 
L 154.476059 262.44 
L 159.668298 262.44 
L 159.668298 261.181241 
L 163.746367 261.181241 
L 163.746367 257.404966 
L 166.204896 257.404966 
L 166.204896 253.62869 
L 171.81737 253.62869 
L 171.81737 251.111172 
L 176.388076 251.111172 
L 176.388076 248.593655 
L 176.705378 248.593655 
L 176.705378 246.076138 
L 177.524113 246.076138 
L 177.524113 243.558621 
L 183.063612 243.558621 
L 183.063612 242.299862 
L 186.357598 242.299862 
L 186.357598 241.041103 
L 190.141995 241.041103 
L 190.141995 239.782345 
L 191.764334 239.782345 
L 191.764334 238.523586 
L 193.335397 238.523586 
L 193.335397 236.006069 
L 200.764504 236.006069 
L 200.764504 233.488552 
L 201.497218 233.488552 
L 201.497218 230.971034 
L 206.177182 230.971034 
L 206.177182 228.453517 
L 208.555189 228.453517 
L 208.555189 224.677241 
L 210.759374 224.677241 
L 210.759374 220.900966 
L 223.006649 220.900966 
L 223.006649 217.12469 
L 229.874099 217.12469 
L 229.893913 210.830897 
L 230.335849 210.830897 
L 230.335849 208.313379 
L 233.435881 208.313379 
L 233.435881 205.795862 
L 239.073231 205.795862 
L 239.073231 203.278345 
L 244.93905 203.278345 
L 244.93905 200.760828 
L 247.961415 200.760828 
L 247.961415 198.24331 
L 252.541956 198.24331 
L 252.541956 195.725793 
L 257.255888 195.725793 
L 257.255888 193.208276 
L 261.944823 193.208276 
L 261.999023 188.173241 
L 263.417808 188.173241 
L 263.417808 185.655724 
L 270.497899 185.655724 
L 270.497899 184.396966 
L 272.385863 184.396966 
L 272.385863 183.138207 
L 273.354543 183.138207 
L 273.354543 181.879448 
L 275.41526 181.879448 
L 275.41526 179.361931 
L 278.837713 179.361931 
L 278.837713 175.585655 
L 280.801787 175.585655 
L 280.801787 174.326897 
L 281.641202 174.326897 
L 281.641202 170.550621 
L 283.775029 170.550621 
L 283.775029 166.774345 
L 290.074268 166.774345 
L 290.074268 165.515586 
L 291.54881 165.515586 
L 291.54881 164.256828 
L 293.321484 164.256828 
L 293.321484 162.998069 
L 294.18556 162.998069 
L 294.18556 159.221793 
L 301.072426 159.221793 
L 301.072426 155.445517 
L 301.765904 155.445517 
L 301.765904 154.186759 
L 304.038151 154.186759 
L 304.038151 150.410483 
L 309.478569 150.410483 
L 309.478569 147.892966 
L 310.293633 147.892966 
L 310.293633 145.375448 
L 311.002172 145.375448 
L 311.002172 141.599172 
L 314.005872 141.599172 
L 314.005872 137.822897 
L 319.437745 137.822897 
L 319.437745 135.305379 
L 319.729602 135.305379 
L 319.729602 134.046621 
L 320.739684 134.046621 
L 320.831919 130.270345 
L 323.315582 130.270345 
L 323.315582 129.011586 
L 324.346486 129.011586 
L 324.346486 125.23531 
L 325.516553 125.23531 
L 325.516553 123.976552 
L 326.985875 123.976552 
L 326.985875 120.200276 
L 327.127935 120.200276 
L 327.127935 118.941517 
L 328.638266 118.941517 
L 328.638266 117.682759 
L 329.937885 117.682759 
L 329.937885 113.906483 
L 330.300675 113.906483 
L 330.300675 111.388966 
L 330.85074 111.388966 
L 330.85074 108.871448 
L 334.139916 108.871448 
L 334.139916 105.095172 
L 334.469876 105.095172 
L 334.469876 101.318897 
L 335.685724 101.318897 
L 335.685724 98.801379 
L 336.203417 98.801379 
L 336.203417 96.283862 
L 336.340942 96.283862 
L 336.340942 95.025103 
L 340.652264 95.025103 
L 340.652264 91.248828 
L 340.88738 91.248828 
L 340.907602 88.73131 
L 341.032423 88.73131 
L 341.116052 81.178759 
L 341.307639 81.178759 
L 341.307639 77.402483 
L 342.267025 77.402483 
L 342.267025 74.884966 
L 342.519297 74.884966 
L 342.519297 71.10869 
L 349.095741 71.10869 
L 349.095741 67.332414 
L 349.496622 67.332414 
L 349.496622 64.814897 
L 349.620692 64.814897 
L 349.620692 62.297379 
L 360.8064 62.297379 
L 360.8064 62.297379 
" style="fill: none; stroke: #f5deb3; stroke-width: 4; stroke-linecap: square"/>
   </g>
   <g id="line2d_2">
    <defs>
     <path id="m1a1971443b" d="M 0 7.778175 
L 7.778175 0 
L 0 -7.778175 
L -7.778175 0 
z
" style="stroke: #f5deb3; stroke-width: 1.5; stroke-linejoin: miter"/>
    </defs>
    <g>
     <use xlink:href="#m1a1971443b" x="154.476059" y="263.698759" style="fill: #f5deb3; stroke: #f5deb3; stroke-width: 1.5; stroke-linejoin: miter"/>
     <use xlink:href="#m1a1971443b" x="210.759374" y="220.900966" style="fill: #f5deb3; stroke: #f5deb3; stroke-width: 1.5; stroke-linejoin: miter"/>
     <use xlink:href="#m1a1971443b" x="294.18556" y="159.221793" style="fill: #f5deb3; stroke: #f5deb3; stroke-width: 1.5; stroke-linejoin: miter"/>
     <use xlink:href="#m1a1971443b" x="334.469876" y="101.318897" style="fill: #f5deb3; stroke: #f5deb3; stroke-width: 1.5; stroke-linejoin: miter"/>
     <use xlink:href="#m1a1971443b" x="349.620692" y="62.297379" style="fill: #f5deb3; stroke: #f5deb3; stroke-width: 1.5; stroke-linejoin: miter"/>
     <use xlink:href="#m1a1971443b" x="360.8064" y="62.297379" style="fill: #f5deb3; stroke: #f5deb3; stroke-width: 1.5; stroke-linejoin: miter"/>
    </g>
   </g>
   <g id="line2d_3">
    <path style="fill: none; stroke: #f5deb3; stroke-width: 4; stroke-linecap: square"/>
    <g/>
   </g>
   <g id="line2d_4">
    <path d="M 360.8064 62.297379 
L 380.514816 12.75264 
" style="fill: none; stroke: #f5deb3; stroke-width: 4; stroke-linecap: square"/>
    <g>
     <use xlink:href="#m1a1971443b" x="360.8064" y="62.297379" style="fill: #f5deb3; stroke: #f5deb3; stroke-width: 1.5; stroke-linejoin: miter"/>
     <use xlink:href="#m1a1971443b" x="380.514816" y="12.75264" style="fill: #f5deb3; stroke: #f5deb3; stroke-width: 1.5; stroke-linejoin: miter"/>
    </g>
   </g>
   <g id="matplotlib.axis_1">
    <g id="xtick_1">
     <g id="line2d_5">
      <path d="M 57.6 298.944 
L 57.6 6.912 
" clip-path="url(#pc68e19bc49)" style="fill: none; stroke: #b0b0b0; stroke-width: 0.8; stroke-linecap: square"/>
     </g>
     <g id="line2d_6">
      <defs>
       <path id="m21452c897b" d="M 0 0 
L 0 3.5 
" style="stroke: #000000; stroke-width: 0.8"/>
      </defs>
      <g>
       <use xlink:href="#m21452c897b" x="57.6" y="298.944" style="stroke: #000000; stroke-width: 0.8"/>
      </g>
     </g>
     <g id="text_1">
      <!-- 0 -->
      <g transform="translate(52.191875 318.861344)scale(0.17 -0.17)">
       <defs>
        <path id="DejaVuSans-30" d="M 2034 4250 
Q 1547 4250 1301 3770 
Q 1056 3291 1056 2328 
Q 1056 1369 1301 889 
Q 1547 409 2034 409 
Q 2525 409 2770 889 
Q 3016 1369 3016 2328 
Q 3016 3291 2770 3770 
Q 2525 4250 2034 4250 
z
M 2034 4750 
Q 2819 4750 3233 4129 
Q 3647 3509 3647 2328 
Q 3647 1150 3233 529 
Q 2819 -91 2034 -91 
Q 1250 -91 836 529 
Q 422 1150 422 2328 
Q 422 3509 836 4129 
Q 1250 4750 2034 4750 
z
" transform="scale(0.015625)"/>
       </defs>
       <use xlink:href="#DejaVuSans-30"/>
      </g>
     </g>
    </g>
    <g id="xtick_2">
     <g id="line2d_7">
      <path d="M 144.2304 298.944 
L 144.2304 6.912 
" clip-path="url(#pc68e19bc49)" style="fill: none; stroke: #b0b0b0; stroke-width: 0.8; stroke-linecap: square"/>
     </g>
     <g id="line2d_8">
      <g>
       <use xlink:href="#m21452c897b" x="144.2304" y="298.944" style="stroke: #000000; stroke-width: 0.8"/>
      </g>
     </g>
     <g id="text_2">
      <!-- 2 -->
      <g transform="translate(138.822275 318.861344)scale(0.17 -0.17)">
       <defs>
        <path id="DejaVuSans-32" d="M 1228 531 
L 3431 531 
L 3431 0 
L 469 0 
L 469 531 
Q 828 903 1448 1529 
Q 2069 2156 2228 2338 
Q 2531 2678 2651 2914 
Q 2772 3150 2772 3378 
Q 2772 3750 2511 3984 
Q 2250 4219 1831 4219 
Q 1534 4219 1204 4116 
Q 875 4013 500 3803 
L 500 4441 
Q 881 4594 1212 4672 
Q 1544 4750 1819 4750 
Q 2544 4750 2975 4387 
Q 3406 4025 3406 3419 
Q 3406 3131 3298 2873 
Q 3191 2616 2906 2266 
Q 2828 2175 2409 1742 
Q 1991 1309 1228 531 
z
" transform="scale(0.015625)"/>
       </defs>
       <use xlink:href="#DejaVuSans-32"/>
      </g>
     </g>
    </g>
    <g id="xtick_3">
     <g id="line2d_9">
      <path d="M 230.8608 298.944 
L 230.8608 6.912 
" clip-path="url(#pc68e19bc49)" style="fill: none; stroke: #b0b0b0; stroke-width: 0.8; stroke-linecap: square"/>
     </g>
     <g id="line2d_10">
      <g>
       <use xlink:href="#m21452c897b" x="230.8608" y="298.944" style="stroke: #000000; stroke-width: 0.8"/>
      </g>
     </g>
     <g id="text_3">
      <!-- 4 -->
      <g transform="translate(225.452675 318.861344)scale(0.17 -0.17)">
       <defs>
        <path id="DejaVuSans-34" d="M 2419 4116 
L 825 1625 
L 2419 1625 
L 2419 4116 
z
M 2253 4666 
L 3047 4666 
L 3047 1625 
L 3713 1625 
L 3713 1100 
L 3047 1100 
L 3047 0 
L 2419 0 
L 2419 1100 
L 313 1100 
L 313 1709 
L 2253 4666 
z
" transform="scale(0.015625)"/>
       </defs>
       <use xlink:href="#DejaVuSans-34"/>
      </g>
     </g>
    </g>
    <g id="xtick_4">
     <g id="line2d_11">
      <path d="M 317.4912 298.944 
L 317.4912 6.912 
" clip-path="url(#pc68e19bc49)" style="fill: none; stroke: #b0b0b0; stroke-width: 0.8; stroke-linecap: square"/>
     </g>
     <g id="line2d_12">
      <g>
       <use xlink:href="#m21452c897b" x="317.4912" y="298.944" style="stroke: #000000; stroke-width: 0.8"/>
      </g>
     </g>
     <g id="text_4">
      <!-- 6 -->
      <g transform="translate(312.083075 318.861344)scale(0.17 -0.17)">
       <defs>
        <path id="DejaVuSans-36" d="M 2113 2584 
Q 1688 2584 1439 2293 
Q 1191 2003 1191 1497 
Q 1191 994 1439 701 
Q 1688 409 2113 409 
Q 2538 409 2786 701 
Q 3034 994 3034 1497 
Q 3034 2003 2786 2293 
Q 2538 2584 2113 2584 
z
M 3366 4563 
L 3366 3988 
Q 3128 4100 2886 4159 
Q 2644 4219 2406 4219 
Q 1781 4219 1451 3797 
Q 1122 3375 1075 2522 
Q 1259 2794 1537 2939 
Q 1816 3084 2150 3084 
Q 2853 3084 3261 2657 
Q 3669 2231 3669 1497 
Q 3669 778 3244 343 
Q 2819 -91 2113 -91 
Q 1303 -91 875 529 
Q 447 1150 447 2328 
Q 447 3434 972 4092 
Q 1497 4750 2381 4750 
Q 2619 4750 2861 4703 
Q 3103 4656 3366 4563 
z
" transform="scale(0.015625)"/>
       </defs>
       <use xlink:href="#DejaVuSans-36"/>
      </g>
     </g>
    </g>
    <g id="xtick_5">
     <g id="line2d_13">
      <path d="M 100.9152 298.944 
L 100.9152 6.912 
" clip-path="url(#pc68e19bc49)" style="fill: none; stroke: #b0b0b0; stroke-width: 0.8; stroke-linecap: square"/>
     </g>
     <g id="line2d_14">
      <defs>
       <path id="m8c47732eb7" d="M 0 0 
L 0 2 
" style="stroke: #000000; stroke-width: 0.6"/>
      </defs>
      <g>
       <use xlink:href="#m8c47732eb7" x="100.9152" y="298.944" style="stroke: #000000; stroke-width: 0.6"/>
      </g>
     </g>
    </g>
    <g id="xtick_6">
     <g id="line2d_15">
      <path d="M 187.5456 298.944 
L 187.5456 6.912 
" clip-path="url(#pc68e19bc49)" style="fill: none; stroke: #b0b0b0; stroke-width: 0.8; stroke-linecap: square"/>
     </g>
     <g id="line2d_16">
      <g>
       <use xlink:href="#m8c47732eb7" x="187.5456" y="298.944" style="stroke: #000000; stroke-width: 0.6"/>
      </g>
     </g>
    </g>
    <g id="xtick_7">
     <g id="line2d_17">
      <path d="M 274.176 298.944 
L 274.176 6.912 
" clip-path="url(#pc68e19bc49)" style="fill: none; stroke: #b0b0b0; stroke-width: 0.8; stroke-linecap: square"/>
     </g>
     <g id="line2d_18">
      <g>
       <use xlink:href="#m8c47732eb7" x="274.176" y="298.944" style="stroke: #000000; stroke-width: 0.6"/>
      </g>
     </g>
    </g>
    <g id="xtick_8">
     <g id="line2d_19">
      <path d="M 360.8064 298.944 
L 360.8064 6.912 
" clip-path="url(#pc68e19bc49)" style="fill: none; stroke: #b0b0b0; stroke-width: 0.8; stroke-linecap: square"/>
     </g>
     <g id="line2d_20">
      <g>
       <use xlink:href="#m8c47732eb7" x="360.8064" y="298.944" style="stroke: #000000; stroke-width: 0.6"/>
      </g>
     </g>
    </g>
    <g id="text_5">
     <!-- log10(# f-evals / dimension) -->
     <g transform="translate(88.823278 339.314156)scale(0.17 -0.17)">
      <defs>
       <path id="DejaVuSans-6c" d="M 603 4863 
L 1178 4863 
L 1178 0 
L 603 0 
L 603 4863 
z
" transform="scale(0.015625)"/>
       <path id="DejaVuSans-6f" d="M 1959 3097 
Q 1497 3097 1228 2736 
Q 959 2375 959 1747 
Q 959 1119 1226 758 
Q 1494 397 1959 397 
Q 2419 397 2687 759 
Q 2956 1122 2956 1747 
Q 2956 2369 2687 2733 
Q 2419 3097 1959 3097 
z
M 1959 3584 
Q 2709 3584 3137 3096 
Q 3566 2609 3566 1747 
Q 3566 888 3137 398 
Q 2709 -91 1959 -91 
Q 1206 -91 779 398 
Q 353 888 353 1747 
Q 353 2609 779 3096 
Q 1206 3584 1959 3584 
z
" transform="scale(0.015625)"/>
       <path id="DejaVuSans-67" d="M 2906 1791 
Q 2906 2416 2648 2759 
Q 2391 3103 1925 3103 
Q 1463 3103 1205 2759 
Q 947 2416 947 1791 
Q 947 1169 1205 825 
Q 1463 481 1925 481 
Q 2391 481 2648 825 
Q 2906 1169 2906 1791 
z
M 3481 434 
Q 3481 -459 3084 -895 
Q 2688 -1331 1869 -1331 
Q 1566 -1331 1297 -1286 
Q 1028 -1241 775 -1147 
L 775 -588 
Q 1028 -725 1275 -790 
Q 1522 -856 1778 -856 
Q 2344 -856 2625 -561 
Q 2906 -266 2906 331 
L 2906 616 
Q 2728 306 2450 153 
Q 2172 0 1784 0 
Q 1141 0 747 490 
Q 353 981 353 1791 
Q 353 2603 747 3093 
Q 1141 3584 1784 3584 
Q 2172 3584 2450 3431 
Q 2728 3278 2906 2969 
L 2906 3500 
L 3481 3500 
L 3481 434 
z
" transform="scale(0.015625)"/>
       <path id="DejaVuSans-31" d="M 794 531 
L 1825 531 
L 1825 4091 
L 703 3866 
L 703 4441 
L 1819 4666 
L 2450 4666 
L 2450 531 
L 3481 531 
L 3481 0 
L 794 0 
L 794 531 
z
" transform="scale(0.015625)"/>
       <path id="DejaVuSans-28" d="M 1984 4856 
Q 1566 4138 1362 3434 
Q 1159 2731 1159 2009 
Q 1159 1288 1364 580 
Q 1569 -128 1984 -844 
L 1484 -844 
Q 1016 -109 783 600 
Q 550 1309 550 2009 
Q 550 2706 781 3412 
Q 1013 4119 1484 4856 
L 1984 4856 
z
" transform="scale(0.015625)"/>
       <path id="DejaVuSans-23" d="M 3272 2816 
L 2363 2816 
L 2100 1772 
L 3016 1772 
L 3272 2816 
z
M 2803 4594 
L 2478 3297 
L 3391 3297 
L 3719 4594 
L 4219 4594 
L 3897 3297 
L 4872 3297 
L 4872 2816 
L 3775 2816 
L 3519 1772 
L 4513 1772 
L 4513 1294 
L 3397 1294 
L 3072 0 
L 2572 0 
L 2894 1294 
L 1978 1294 
L 1656 0 
L 1153 0 
L 1478 1294 
L 494 1294 
L 494 1772 
L 1594 1772 
L 1856 2816 
L 850 2816 
L 850 3297 
L 1978 3297 
L 2297 4594 
L 2803 4594 
z
" transform="scale(0.015625)"/>
       <path id="DejaVuSans-20" transform="scale(0.015625)"/>
       <path id="DejaVuSans-66" d="M 2375 4863 
L 2375 4384 
L 1825 4384 
Q 1516 4384 1395 4259 
Q 1275 4134 1275 3809 
L 1275 3500 
L 2222 3500 
L 2222 3053 
L 1275 3053 
L 1275 0 
L 697 0 
L 697 3053 
L 147 3053 
L 147 3500 
L 697 3500 
L 697 3744 
Q 697 4328 969 4595 
Q 1241 4863 1831 4863 
L 2375 4863 
z
" transform="scale(0.015625)"/>
       <path id="DejaVuSans-2d" d="M 313 2009 
L 1997 2009 
L 1997 1497 
L 313 1497 
L 313 2009 
z
" transform="scale(0.015625)"/>
       <path id="DejaVuSans-65" d="M 3597 1894 
L 3597 1613 
L 953 1613 
Q 991 1019 1311 708 
Q 1631 397 2203 397 
Q 2534 397 2845 478 
Q 3156 559 3463 722 
L 3463 178 
Q 3153 47 2828 -22 
Q 2503 -91 2169 -91 
Q 1331 -91 842 396 
Q 353 884 353 1716 
Q 353 2575 817 3079 
Q 1281 3584 2069 3584 
Q 2775 3584 3186 3129 
Q 3597 2675 3597 1894 
z
M 3022 2063 
Q 3016 2534 2758 2815 
Q 2500 3097 2075 3097 
Q 1594 3097 1305 2825 
Q 1016 2553 972 2059 
L 3022 2063 
z
" transform="scale(0.015625)"/>
       <path id="DejaVuSans-76" d="M 191 3500 
L 800 3500 
L 1894 563 
L 2988 3500 
L 3597 3500 
L 2284 0 
L 1503 0 
L 191 3500 
z
" transform="scale(0.015625)"/>
       <path id="DejaVuSans-61" d="M 2194 1759 
Q 1497 1759 1228 1600 
Q 959 1441 959 1056 
Q 959 750 1161 570 
Q 1363 391 1709 391 
Q 2188 391 2477 730 
Q 2766 1069 2766 1631 
L 2766 1759 
L 2194 1759 
z
M 3341 1997 
L 3341 0 
L 2766 0 
L 2766 531 
Q 2569 213 2275 61 
Q 1981 -91 1556 -91 
Q 1019 -91 701 211 
Q 384 513 384 1019 
Q 384 1609 779 1909 
Q 1175 2209 1959 2209 
L 2766 2209 
L 2766 2266 
Q 2766 2663 2505 2880 
Q 2244 3097 1772 3097 
Q 1472 3097 1187 3025 
Q 903 2953 641 2809 
L 641 3341 
Q 956 3463 1253 3523 
Q 1550 3584 1831 3584 
Q 2591 3584 2966 3190 
Q 3341 2797 3341 1997 
z
" transform="scale(0.015625)"/>
       <path id="DejaVuSans-73" d="M 2834 3397 
L 2834 2853 
Q 2591 2978 2328 3040 
Q 2066 3103 1784 3103 
Q 1356 3103 1142 2972 
Q 928 2841 928 2578 
Q 928 2378 1081 2264 
Q 1234 2150 1697 2047 
L 1894 2003 
Q 2506 1872 2764 1633 
Q 3022 1394 3022 966 
Q 3022 478 2636 193 
Q 2250 -91 1575 -91 
Q 1294 -91 989 -36 
Q 684 19 347 128 
L 347 722 
Q 666 556 975 473 
Q 1284 391 1588 391 
Q 1994 391 2212 530 
Q 2431 669 2431 922 
Q 2431 1156 2273 1281 
Q 2116 1406 1581 1522 
L 1381 1569 
Q 847 1681 609 1914 
Q 372 2147 372 2553 
Q 372 3047 722 3315 
Q 1072 3584 1716 3584 
Q 2034 3584 2315 3537 
Q 2597 3491 2834 3397 
z
" transform="scale(0.015625)"/>
       <path id="DejaVuSans-2f" d="M 1625 4666 
L 2156 4666 
L 531 -594 
L 0 -594 
L 1625 4666 
z
" transform="scale(0.015625)"/>
       <path id="DejaVuSans-64" d="M 2906 2969 
L 2906 4863 
L 3481 4863 
L 3481 0 
L 2906 0 
L 2906 525 
Q 2725 213 2448 61 
Q 2172 -91 1784 -91 
Q 1150 -91 751 415 
Q 353 922 353 1747 
Q 353 2572 751 3078 
Q 1150 3584 1784 3584 
Q 2172 3584 2448 3432 
Q 2725 3281 2906 2969 
z
M 947 1747 
Q 947 1113 1208 752 
Q 1469 391 1925 391 
Q 2381 391 2643 752 
Q 2906 1113 2906 1747 
Q 2906 2381 2643 2742 
Q 2381 3103 1925 3103 
Q 1469 3103 1208 2742 
Q 947 2381 947 1747 
z
" transform="scale(0.015625)"/>
       <path id="DejaVuSans-69" d="M 603 3500 
L 1178 3500 
L 1178 0 
L 603 0 
L 603 3500 
z
M 603 4863 
L 1178 4863 
L 1178 4134 
L 603 4134 
L 603 4863 
z
" transform="scale(0.015625)"/>
       <path id="DejaVuSans-6d" d="M 3328 2828 
Q 3544 3216 3844 3400 
Q 4144 3584 4550 3584 
Q 5097 3584 5394 3201 
Q 5691 2819 5691 2113 
L 5691 0 
L 5113 0 
L 5113 2094 
Q 5113 2597 4934 2840 
Q 4756 3084 4391 3084 
Q 3944 3084 3684 2787 
Q 3425 2491 3425 1978 
L 3425 0 
L 2847 0 
L 2847 2094 
Q 2847 2600 2669 2842 
Q 2491 3084 2119 3084 
Q 1678 3084 1418 2786 
Q 1159 2488 1159 1978 
L 1159 0 
L 581 0 
L 581 3500 
L 1159 3500 
L 1159 2956 
Q 1356 3278 1631 3431 
Q 1906 3584 2284 3584 
Q 2666 3584 2933 3390 
Q 3200 3197 3328 2828 
z
" transform="scale(0.015625)"/>
       <path id="DejaVuSans-6e" d="M 3513 2113 
L 3513 0 
L 2938 0 
L 2938 2094 
Q 2938 2591 2744 2837 
Q 2550 3084 2163 3084 
Q 1697 3084 1428 2787 
Q 1159 2491 1159 1978 
L 1159 0 
L 581 0 
L 581 3500 
L 1159 3500 
L 1159 2956 
Q 1366 3272 1645 3428 
Q 1925 3584 2291 3584 
Q 2894 3584 3203 3211 
Q 3513 2838 3513 2113 
z
" transform="scale(0.015625)"/>
       <path id="DejaVuSans-29" d="M 513 4856 
L 1013 4856 
Q 1481 4119 1714 3412 
Q 1947 2706 1947 2009 
Q 1947 1309 1714 600 
Q 1481 -109 1013 -844 
L 513 -844 
Q 928 -128 1133 580 
Q 1338 1288 1338 2009 
Q 1338 2731 1133 3434 
Q 928 4138 513 4856 
z
" transform="scale(0.015625)"/>
      </defs>
      <use xlink:href="#DejaVuSans-6c"/>
      <use xlink:href="#DejaVuSans-6f" x="27.783203"/>
      <use xlink:href="#DejaVuSans-67" x="88.964844"/>
      <use xlink:href="#DejaVuSans-31" x="152.441406"/>
      <use xlink:href="#DejaVuSans-30" x="216.064453"/>
      <use xlink:href="#DejaVuSans-28" x="279.6875"/>
      <use xlink:href="#DejaVuSans-23" x="318.701172"/>
      <use xlink:href="#DejaVuSans-20" x="402.490234"/>
      <use xlink:href="#DejaVuSans-66" x="434.277344"/>
      <use xlink:href="#DejaVuSans-2d" x="463.982422"/>
      <use xlink:href="#DejaVuSans-65" x="500.066406"/>
      <use xlink:href="#DejaVuSans-76" x="561.589844"/>
      <use xlink:href="#DejaVuSans-61" x="620.769531"/>
      <use xlink:href="#DejaVuSans-6c" x="682.048828"/>
      <use xlink:href="#DejaVuSans-73" x="709.832031"/>
      <use xlink:href="#DejaVuSans-20" x="761.931641"/>
      <use xlink:href="#DejaVuSans-2f" x="793.71875"/>
      <use xlink:href="#DejaVuSans-20" x="827.410156"/>
      <use xlink:href="#DejaVuSans-64" x="859.197266"/>
      <use xlink:href="#DejaVuSans-69" x="922.673828"/>
      <use xlink:href="#DejaVuSans-6d" x="950.457031"/>
      <use xlink:href="#DejaVuSans-65" x="1047.869141"/>
      <use xlink:href="#DejaVuSans-6e" x="1109.392578"/>
      <use xlink:href="#DejaVuSans-73" x="1172.771484"/>
      <use xlink:href="#DejaVuSans-69" x="1224.871094"/>
      <use xlink:href="#DejaVuSans-6f" x="1252.654297"/>
      <use xlink:href="#DejaVuSans-6e" x="1313.835938"/>
      <use xlink:href="#DejaVuSans-29" x="1377.214844"/>
     </g>
    </g>
   </g>
   <g id="matplotlib.axis_2">
    <g id="ytick_1">
     <g id="line2d_21">
      <path d="M 57.6 298.944 
L 360.8064 298.944 
" clip-path="url(#pc68e19bc49)" style="fill: none; stroke: #b0b0b0; stroke-width: 0.8; stroke-linecap: square"/>
     </g>
     <g id="line2d_22">
      <defs>
       <path id="m3e3d21bda2" d="M 0 0 
L -3.5 0 
" style="stroke: #000000; stroke-width: 0.8"/>
      </defs>
      <g>
       <use xlink:href="#m3e3d21bda2" x="57.6" y="298.944" style="stroke: #000000; stroke-width: 0.8"/>
      </g>
     </g>
     <g id="text_6">
      <!-- 0.0 -->
      <g transform="translate(25.155 305.02275)scale(0.16 -0.16)">
       <defs>
        <path id="DejaVuSans-2e" d="M 684 794 
L 1344 794 
L 1344 0 
L 684 0 
L 684 794 
z
" transform="scale(0.015625)"/>
       </defs>
       <use xlink:href="#DejaVuSans-30"/>
       <use xlink:href="#DejaVuSans-2e" x="63.623047"/>
       <use xlink:href="#DejaVuSans-30" x="95.410156"/>
      </g>
     </g>
    </g>
    <g id="ytick_2">
     <g id="line2d_23">
      <path d="M 57.6 240.5376 
L 360.8064 240.5376 
" clip-path="url(#pc68e19bc49)" style="fill: none; stroke: #b0b0b0; stroke-width: 0.8; stroke-linecap: square"/>
     </g>
     <g id="line2d_24">
      <g>
       <use xlink:href="#m3e3d21bda2" x="57.6" y="240.5376" style="stroke: #000000; stroke-width: 0.8"/>
      </g>
     </g>
     <g id="text_7">
      <!-- 0.2 -->
      <g transform="translate(25.155 246.61635)scale(0.16 -0.16)">
       <use xlink:href="#DejaVuSans-30"/>
       <use xlink:href="#DejaVuSans-2e" x="63.623047"/>
       <use xlink:href="#DejaVuSans-32" x="95.410156"/>
      </g>
     </g>
    </g>
    <g id="ytick_3">
     <g id="line2d_25">
      <path d="M 57.6 182.1312 
L 360.8064 182.1312 
" clip-path="url(#pc68e19bc49)" style="fill: none; stroke: #b0b0b0; stroke-width: 0.8; stroke-linecap: square"/>
     </g>
     <g id="line2d_26">
      <g>
       <use xlink:href="#m3e3d21bda2" x="57.6" y="182.1312" style="stroke: #000000; stroke-width: 0.8"/>
      </g>
     </g>
     <g id="text_8">
      <!-- 0.4 -->
      <g transform="translate(25.155 188.20995)scale(0.16 -0.16)">
       <use xlink:href="#DejaVuSans-30"/>
       <use xlink:href="#DejaVuSans-2e" x="63.623047"/>
       <use xlink:href="#DejaVuSans-34" x="95.410156"/>
      </g>
     </g>
    </g>
    <g id="ytick_4">
     <g id="line2d_27">
      <path d="M 57.6 123.7248 
L 360.8064 123.7248 
" clip-path="url(#pc68e19bc49)" style="fill: none; stroke: #b0b0b0; stroke-width: 0.8; stroke-linecap: square"/>
     </g>
     <g id="line2d_28">
      <g>
       <use xlink:href="#m3e3d21bda2" x="57.6" y="123.7248" style="stroke: #000000; stroke-width: 0.8"/>
      </g>
     </g>
     <g id="text_9">
      <!-- 0.6 -->
      <g transform="translate(25.155 129.80355)scale(0.16 -0.16)">
       <use xlink:href="#DejaVuSans-30"/>
       <use xlink:href="#DejaVuSans-2e" x="63.623047"/>
       <use xlink:href="#DejaVuSans-36" x="95.410156"/>
      </g>
     </g>
    </g>
    <g id="ytick_5">
     <g id="line2d_29">
      <path d="M 57.6 65.3184 
L 360.8064 65.3184 
" clip-path="url(#pc68e19bc49)" style="fill: none; stroke: #b0b0b0; stroke-width: 0.8; stroke-linecap: square"/>
     </g>
     <g id="line2d_30">
      <g>
       <use xlink:href="#m3e3d21bda2" x="57.6" y="65.3184" style="stroke: #000000; stroke-width: 0.8"/>
      </g>
     </g>
     <g id="text_10">
      <!-- 0.8 -->
      <g transform="translate(25.155 71.39715)scale(0.16 -0.16)">
       <defs>
        <path id="DejaVuSans-38" d="M 2034 2216 
Q 1584 2216 1326 1975 
Q 1069 1734 1069 1313 
Q 1069 891 1326 650 
Q 1584 409 2034 409 
Q 2484 409 2743 651 
Q 3003 894 3003 1313 
Q 3003 1734 2745 1975 
Q 2488 2216 2034 2216 
z
M 1403 2484 
Q 997 2584 770 2862 
Q 544 3141 544 3541 
Q 544 4100 942 4425 
Q 1341 4750 2034 4750 
Q 2731 4750 3128 4425 
Q 3525 4100 3525 3541 
Q 3525 3141 3298 2862 
Q 3072 2584 2669 2484 
Q 3125 2378 3379 2068 
Q 3634 1759 3634 1313 
Q 3634 634 3220 271 
Q 2806 -91 2034 -91 
Q 1263 -91 848 271 
Q 434 634 434 1313 
Q 434 1759 690 2068 
Q 947 2378 1403 2484 
z
M 1172 3481 
Q 1172 3119 1398 2916 
Q 1625 2713 2034 2713 
Q 2441 2713 2670 2916 
Q 2900 3119 2900 3481 
Q 2900 3844 2670 4047 
Q 2441 4250 2034 4250 
Q 1625 4250 1398 4047 
Q 1172 3844 1172 3481 
z
" transform="scale(0.015625)"/>
       </defs>
       <use xlink:href="#DejaVuSans-30"/>
       <use xlink:href="#DejaVuSans-2e" x="63.623047"/>
       <use xlink:href="#DejaVuSans-38" x="95.410156"/>
      </g>
     </g>
    </g>
    <g id="ytick_6">
     <g id="line2d_31">
      <path d="M 57.6 6.912 
L 360.8064 6.912 
" clip-path="url(#pc68e19bc49)" style="fill: none; stroke: #b0b0b0; stroke-width: 0.8; stroke-linecap: square"/>
     </g>
     <g id="line2d_32">
      <g>
       <use xlink:href="#m3e3d21bda2" x="57.6" y="6.912" style="stroke: #000000; stroke-width: 0.8"/>
      </g>
     </g>
     <g id="text_11">
      <!-- 1.0 -->
      <g transform="translate(25.155 12.99075)scale(0.16 -0.16)">
       <use xlink:href="#DejaVuSans-31"/>
       <use xlink:href="#DejaVuSans-2e" x="63.623047"/>
       <use xlink:href="#DejaVuSans-30" x="95.410156"/>
      </g>
     </g>
    </g>
    <g id="text_12">
     <!-- Fraction of function,target pairs -->
     <g transform="translate(17.619531 287.313)rotate(-90)scale(0.17 -0.17)">
      <defs>
       <path id="DejaVuSans-46" d="M 628 4666 
L 3309 4666 
L 3309 4134 
L 1259 4134 
L 1259 2759 
L 3109 2759 
L 3109 2228 
L 1259 2228 
L 1259 0 
L 628 0 
L 628 4666 
z
" transform="scale(0.015625)"/>
       <path id="DejaVuSans-72" d="M 2631 2963 
Q 2534 3019 2420 3045 
Q 2306 3072 2169 3072 
Q 1681 3072 1420 2755 
Q 1159 2438 1159 1844 
L 1159 0 
L 581 0 
L 581 3500 
L 1159 3500 
L 1159 2956 
Q 1341 3275 1631 3429 
Q 1922 3584 2338 3584 
Q 2397 3584 2469 3576 
Q 2541 3569 2628 3553 
L 2631 2963 
z
" transform="scale(0.015625)"/>
       <path id="DejaVuSans-63" d="M 3122 3366 
L 3122 2828 
Q 2878 2963 2633 3030 
Q 2388 3097 2138 3097 
Q 1578 3097 1268 2742 
Q 959 2388 959 1747 
Q 959 1106 1268 751 
Q 1578 397 2138 397 
Q 2388 397 2633 464 
Q 2878 531 3122 666 
L 3122 134 
Q 2881 22 2623 -34 
Q 2366 -91 2075 -91 
Q 1284 -91 818 406 
Q 353 903 353 1747 
Q 353 2603 823 3093 
Q 1294 3584 2113 3584 
Q 2378 3584 2631 3529 
Q 2884 3475 3122 3366 
z
" transform="scale(0.015625)"/>
       <path id="DejaVuSans-74" d="M 1172 4494 
L 1172 3500 
L 2356 3500 
L 2356 3053 
L 1172 3053 
L 1172 1153 
Q 1172 725 1289 603 
Q 1406 481 1766 481 
L 2356 481 
L 2356 0 
L 1766 0 
Q 1100 0 847 248 
Q 594 497 594 1153 
L 594 3053 
L 172 3053 
L 172 3500 
L 594 3500 
L 594 4494 
L 1172 4494 
z
" transform="scale(0.015625)"/>
       <path id="DejaVuSans-75" d="M 544 1381 
L 544 3500 
L 1119 3500 
L 1119 1403 
Q 1119 906 1312 657 
Q 1506 409 1894 409 
Q 2359 409 2629 706 
Q 2900 1003 2900 1516 
L 2900 3500 
L 3475 3500 
L 3475 0 
L 2900 0 
L 2900 538 
Q 2691 219 2414 64 
Q 2138 -91 1772 -91 
Q 1169 -91 856 284 
Q 544 659 544 1381 
z
M 1991 3584 
L 1991 3584 
z
" transform="scale(0.015625)"/>
       <path id="DejaVuSans-2c" d="M 750 794 
L 1409 794 
L 1409 256 
L 897 -744 
L 494 -744 
L 750 256 
L 750 794 
z
" transform="scale(0.015625)"/>
       <path id="DejaVuSans-70" d="M 1159 525 
L 1159 -1331 
L 581 -1331 
L 581 3500 
L 1159 3500 
L 1159 2969 
Q 1341 3281 1617 3432 
Q 1894 3584 2278 3584 
Q 2916 3584 3314 3078 
Q 3713 2572 3713 1747 
Q 3713 922 3314 415 
Q 2916 -91 2278 -91 
Q 1894 -91 1617 61 
Q 1341 213 1159 525 
z
M 3116 1747 
Q 3116 2381 2855 2742 
Q 2594 3103 2138 3103 
Q 1681 3103 1420 2742 
Q 1159 2381 1159 1747 
Q 1159 1113 1420 752 
Q 1681 391 2138 391 
Q 2594 391 2855 752 
Q 3116 1113 3116 1747 
z
" transform="scale(0.015625)"/>
      </defs>
      <use xlink:href="#DejaVuSans-46"/>
      <use xlink:href="#DejaVuSans-72" x="50.269531"/>
      <use xlink:href="#DejaVuSans-61" x="91.382812"/>
      <use xlink:href="#DejaVuSans-63" x="152.662109"/>
      <use xlink:href="#DejaVuSans-74" x="207.642578"/>
      <use xlink:href="#DejaVuSans-69" x="246.851562"/>
      <use xlink:href="#DejaVuSans-6f" x="274.634766"/>
      <use xlink:href="#DejaVuSans-6e" x="335.816406"/>
      <use xlink:href="#DejaVuSans-20" x="399.195312"/>
      <use xlink:href="#DejaVuSans-6f" x="430.982422"/>
      <use xlink:href="#DejaVuSans-66" x="492.164062"/>
      <use xlink:href="#DejaVuSans-20" x="527.369141"/>
      <use xlink:href="#DejaVuSans-66" x="559.15625"/>
      <use xlink:href="#DejaVuSans-75" x="594.361328"/>
      <use xlink:href="#DejaVuSans-6e" x="657.740234"/>
      <use xlink:href="#DejaVuSans-63" x="721.119141"/>
      <use xlink:href="#DejaVuSans-74" x="776.099609"/>
      <use xlink:href="#DejaVuSans-69" x="815.308594"/>
      <use xlink:href="#DejaVuSans-6f" x="843.091797"/>
      <use xlink:href="#DejaVuSans-6e" x="904.273438"/>
      <use xlink:href="#DejaVuSans-2c" x="967.652344"/>
      <use xlink:href="#DejaVuSans-74" x="999.439453"/>
      <use xlink:href="#DejaVuSans-61" x="1038.648438"/>
      <use xlink:href="#DejaVuSans-72" x="1099.927734"/>
      <use xlink:href="#DejaVuSans-67" x="1139.291016"/>
      <use xlink:href="#DejaVuSans-65" x="1202.767578"/>
      <use xlink:href="#DejaVuSans-74" x="1264.291016"/>
      <use xlink:href="#DejaVuSans-20" x="1303.5"/>
      <use xlink:href="#DejaVuSans-70" x="1335.287109"/>
      <use xlink:href="#DejaVuSans-61" x="1398.763672"/>
      <use xlink:href="#DejaVuSans-69" x="1460.042969"/>
      <use xlink:href="#DejaVuSans-72" x="1487.826172"/>
      <use xlink:href="#DejaVuSans-73" x="1528.939453"/>
     </g>
    </g>
   </g>
   <g id="line2d_33">
    <defs>
     <path id="mfca38f42dd" d="M 0 1.5 
C 0.397805 1.5 0.77937 1.341951 1.06066 1.06066 
C 1.341951 0.77937 1.5 0.397805 1.5 0 
C 1.5 -0.397805 1.341951 -0.77937 1.06066 -1.06066 
C 0.77937 -1.341951 0.397805 -1.5 0 -1.5 
C -0.397805 -1.5 -0.77937 -1.341951 -1.06066 -1.06066 
C -1.341951 -0.77937 -1.5 -0.397805 -1.5 0 
C -1.5 0.397805 -1.341951 0.77937 -1.06066 1.06066 
C -0.77937 1.341951 -0.397805 1.5 0 1.5 
z
" style="stroke: #f5deb3"/>
    </defs>
    <g>
     <use xlink:href="#mfca38f42dd" x="363.077094" y="59.779862" style="fill: #f5deb3; stroke: #f5deb3"/>
     <use xlink:href="#mfca38f42dd" x="363.077094" y="59.779862" style="fill: #f5deb3; stroke: #f5deb3"/>
    </g>
   </g>
   <g id="line2d_34">
    <defs>
     <path id="mc3e49c11df" d="M 0 1.5 
C 0.397805 1.5 0.77937 1.341951 1.06066 1.06066 
C 1.341951 0.77937 1.5 0.397805 1.5 0 
C 1.5 -0.397805 1.341951 -0.77937 1.06066 -1.06066 
C 0.77937 -1.341951 0.397805 -1.5 0 -1.5 
C -0.397805 -1.5 -0.77937 -1.341951 -1.06066 -1.06066 
C -1.341951 -0.77937 -1.5 -0.397805 -1.5 0 
C -1.5 0.397805 -1.341951 0.77937 -1.06066 1.06066 
C -0.77937 1.341951 -0.397805 1.5 0 1.5 
z
" style="stroke: #000080"/>
    </defs>
    <g>
     <use xlink:href="#mc3e49c11df" x="81.696354" y="282.580138" style="fill: #000080; stroke: #000080"/>
     <use xlink:href="#mc3e49c11df" x="81.696354" y="282.580138" style="fill: #000080; stroke: #000080"/>
    </g>
   </g>
   <g id="line2d_35">
    <path d="M 27.323974 298.944 
L 27.323974 291.265572 
L 40.363149 291.265572 
L 40.363149 291.013821 
L 47.990577 291.013821 
L 47.990577 290.384441 
L 53.402323 290.384441 
L 53.402323 290.13269 
L 57.6 290.13269 
L 57.6 289.50331 
L 61.029752 289.50331 
L 61.029752 288.496303 
L 63.929565 288.496303 
L 63.929565 287.9928 
L 66.441498 287.9928 
L 66.441498 287.489297 
L 68.65718 287.489297 
L 68.65718 287.237545 
L 70.639174 287.237545 
L 70.639174 286.356414 
L 72.432107 286.356414 
L 72.432107 285.601159 
L 75.574654 285.601159 
L 75.574654 284.971779 
L 76.96874 284.971779 
L 76.96874 284.594152 
L 78.266603 284.594152 
L 78.266603 284.468276 
L 79.480672 284.468276 
L 79.480672 283.209517 
L 80.621116 283.209517 
L 80.621116 282.957766 
L 81.696354 282.957766 
L 81.696354 282.580138 
L 360.8064 282.580138 
" style="fill: none; stroke: #000080; stroke-width: 1.5; stroke-linecap: square"/>
   </g>
   <g id="line2d_36">
    <defs>
     <path id="m415366dd27" d="M 0 6 
C 1.591219 6 3.117479 5.367802 4.242641 4.242641 
C 5.367802 3.117479 6 1.591219 6 0 
C 6 -1.591219 5.367802 -3.117479 4.242641 -4.242641 
C 3.117479 -5.367802 1.591219 -6 0 -6 
C -1.591219 -6 -3.117479 -5.367802 -4.242641 -4.242641 
C -5.367802 -3.117479 -6 -1.591219 -6 0 
C -6 1.591219 -5.367802 3.117479 -4.242641 4.242641 
C -3.117479 5.367802 -1.591219 6 0 6 
z
" style="stroke: #000080; stroke-width: 1.5"/>
    </defs>
    <g>
     <use xlink:href="#m415366dd27" x="81.696354" y="282.957766" style="fill-opacity: 0; stroke: #000080; stroke-width: 1.5"/>
     <use xlink:href="#m415366dd27" x="81.696354" y="282.957766" style="fill-opacity: 0; stroke: #000080; stroke-width: 1.5"/>
     <use xlink:href="#m415366dd27" x="81.696354" y="282.580138" style="fill-opacity: 0; stroke: #000080; stroke-width: 1.5"/>
     <use xlink:href="#m415366dd27" x="81.696354" y="282.580138" style="fill-opacity: 0; stroke: #000080; stroke-width: 1.5"/>
     <use xlink:href="#m415366dd27" x="81.696354" y="282.580138" style="fill-opacity: 0; stroke: #000080; stroke-width: 1.5"/>
     <use xlink:href="#m415366dd27" x="360.8064" y="282.580138" style="fill-opacity: 0; stroke: #000080; stroke-width: 1.5"/>
    </g>
   </g>
   <g id="line2d_37">
    <path style="fill: none; stroke: #000080; stroke-width: 1.5; stroke-linecap: square"/>
    <g/>
   </g>
   <g id="line2d_38">
    <path d="M 81.696354 282.580138 
" clip-path="url(#pc68e19bc49)" style="fill: none; stroke: #000080; stroke-width: 1.5; stroke-linecap: square"/>
    <defs>
     <path id="m51bb525686" d="M -12 12 
L 12 -12 
M -12 -12 
L 12 12 
" style="stroke: #000080"/>
    </defs>
    <g clip-path="url(#pc68e19bc49)">
     <use xlink:href="#m51bb525686" x="81.696354" y="282.580138" style="fill: #000080; stroke: #000080"/>
    </g>
   </g>
   <g id="line2d_39">
    <defs>
     <path id="m6da869eba3" d="M 0 1.5 
C 0.397805 1.5 0.77937 1.341951 1.06066 1.06066 
C 1.341951 0.77937 1.5 0.397805 1.5 0 
C 1.5 -0.397805 1.341951 -0.77937 1.06066 -1.06066 
C 0.77937 -1.341951 0.397805 -1.5 0 -1.5 
C -0.397805 -1.5 -0.77937 -1.341951 -1.06066 -1.06066 
C -1.341951 -0.77937 -1.5 -0.397805 -1.5 0 
C -1.5 0.397805 -1.341951 0.77937 -1.06066 1.06066 
C -0.77937 1.341951 -0.397805 1.5 0 1.5 
z
" style="stroke: #ff00ff"/>
    </defs>
    <g>
     <use xlink:href="#m6da869eba3" x="274.058135" y="203.907724" style="fill: #ff00ff; stroke: #ff00ff"/>
     <use xlink:href="#m6da869eba3" x="274.058135" y="203.907724" style="fill: #ff00ff; stroke: #ff00ff"/>
    </g>
   </g>
   <g id="line2d_40">
    <path d="M 27.323974 298.944 
L 27.323974 291.265572 
L 40.363149 291.265572 
L 40.363149 291.013821 
L 47.990577 291.013821 
L 47.990577 290.13269 
L 53.402323 290.13269 
L 53.402323 289.50331 
L 57.6 289.50331 
L 57.6 288.496303 
L 61.029752 288.496303 
L 61.029752 288.370428 
L 63.929565 288.370428 
L 63.929565 288.244552 
L 66.441498 288.244552 
L 66.441498 287.615172 
L 68.65718 287.615172 
L 68.65718 287.489297 
L 70.639174 287.489297 
L 70.639174 287.111669 
L 72.432107 287.111669 
L 72.432107 286.48229 
L 75.574654 286.48229 
L 75.574654 286.104662 
L 76.96874 286.104662 
L 76.96874 285.727034 
L 78.266603 285.727034 
L 78.266603 285.349407 
L 81.696354 285.349407 
L 81.696354 284.971779 
L 84.596168 284.971779 
L 84.596168 284.468276 
L 85.471281 284.468276 
L 85.471281 284.3424 
L 87.1081 284.3424 
L 87.1081 284.090648 
L 88.613828 284.090648 
L 88.613828 283.838897 
L 89.323782 283.838897 
L 89.323782 283.713021 
L 90.007914 283.713021 
L 90.007914 283.335393 
L 90.668036 283.335393 
L 90.668036 283.209517 
L 91.305777 283.209517 
L 91.305777 282.83189 
L 93.66029 282.83189 
L 93.66029 282.706014 
L 95.250946 282.706014 
L 95.250946 282.580138 
L 95.752617 282.580138 
L 95.752617 282.328386 
L 96.717523 282.328386 
L 96.717523 282.076634 
L 97.635342 282.076634 
L 97.635342 281.699007 
L 98.077987 281.699007 
L 98.077987 281.573131 
L 98.933205 281.573131 
L 98.933205 281.195503 
L 99.346662 281.195503 
L 99.346662 281.069628 
L 100.147275 281.069628 
L 100.147275 280.692 
L 100.535156 280.692 
L 100.535156 280.566124 
L 102.362957 280.566124 
L 102.362957 280.314372 
L 105.26277 280.314372 
L 105.26277 280.188497 
L 106.137884 280.188497 
L 106.137884 279.936745 
L 106.974091 279.936745 
L 106.974091 279.810869 
L 107.244765 279.810869 
L 107.244765 279.684993 
L 107.5116 279.684993 
L 107.5116 279.433241 
L 109.037698 279.433241 
L 109.037698 279.18149 
L 110.221204 279.18149 
L 110.221204 278.929738 
L 111.334639 278.929738 
L 111.334639 278.803862 
L 112.989468 278.803862 
L 112.989468 278.677986 
L 113.186449 278.677986 
L 113.186449 278.426234 
L 113.954374 278.426234 
L 113.954374 278.048607 
L 114.141556 278.048607 
L 114.141556 277.922731 
L 114.326893 277.922731 
L 114.326893 277.796855 
L 114.510421 277.796855 
L 114.510421 277.670979 
L 114.692177 277.670979 
L 114.692177 277.545103 
L 114.872193 277.545103 
L 114.872193 277.419228 
L 115.050503 277.419228 
L 115.050503 277.167476 
L 115.402131 277.167476 
L 115.402131 277.0416 
L 115.917548 277.0416 
L 115.917548 276.915724 
L 116.086263 276.915724 
L 116.086263 276.789848 
L 116.253478 276.789848 
L 116.253478 276.663972 
L 116.419219 276.663972 
L 116.419219 276.538097 
L 116.583514 276.538097 
L 116.583514 276.286345 
L 116.746385 276.286345 
L 116.746385 276.160469 
L 117.226706 276.160469 
L 117.226706 276.034593 
L 117.384126 276.034593 
L 117.384126 275.908717 
L 117.540239 275.908717 
L 117.540239 275.782841 
L 117.848632 275.782841 
L 117.848632 275.656966 
L 118.450653 275.656966 
L 118.450653 275.53109 
L 118.598196 275.53109 
L 118.598196 275.405214 
L 118.889854 275.405214 
L 118.889854 275.279338 
L 119.177058 275.279338 
L 119.177058 275.153462 
L 119.876453 275.153462 
L 119.876453 275.027586 
L 120.013265 275.027586 
L 120.013265 274.649959 
L 120.149089 274.649959 
L 120.149089 274.524083 
L 120.41783 274.524083 
L 120.41783 274.398207 
L 120.813877 274.398207 
L 120.813877 274.146455 
L 121.329295 274.146455 
L 121.329295 274.020579 
L 121.455972 274.020579 
L 121.455972 273.894703 
L 121.830966 273.894703 
L 121.830966 273.768828 
L 121.954321 273.768828 
L 121.954321 273.265324 
L 122.319605 273.265324 
L 122.319605 273.139448 
L 123.029559 273.139448 
L 123.029559 273.013572 
L 123.145323 273.013572 
L 123.145323 272.887697 
L 123.260379 272.887697 
L 123.260379 272.635945 
L 123.374735 272.635945 
L 123.374735 272.384193 
L 123.713691 272.384193 
L 123.713691 272.132441 
L 123.936316 272.132441 
L 123.936316 272.006566 
L 124.265389 272.006566 
L 124.265389 271.88069 
L 124.481616 271.88069 
L 124.588805 271.503062 
L 125.011554 271.503062 
L 125.115773 271.25131 
L 125.219419 271.25131 
L 125.322496 270.999559 
L 125.425011 270.999559 
L 125.425011 270.747807 
L 126.028642 270.747807 
L 126.028642 270.621931 
L 126.225624 270.621931 
L 126.323346 270.370179 
L 126.420564 270.370179 
L 126.420564 270.244303 
L 126.709238 270.244303 
L 126.709238 269.866676 
L 126.899255 269.866676 
L 126.899255 269.7408 
L 127.087372 269.7408 
L 127.18073 269.489048 
L 127.549596 269.489048 
L 127.640693 269.111421 
L 127.731351 269.111421 
L 127.731351 268.859669 
L 128.441306 268.859669 
L 128.441306 268.733793 
L 128.700779 268.733793 
L 128.700779 268.607917 
L 129.041269 268.607917 
L 129.125437 268.23029 
L 129.209231 268.23029 
L 129.292652 267.978538 
L 129.458394 267.978538 
L 129.458394 267.852662 
L 129.78556 267.852662 
L 129.78556 267.726786 
L 130.344755 267.726786 
L 130.344755 267.349159 
L 130.964122 267.349159 
L 130.964122 267.223283 
L 131.266322 267.223283 
L 131.341119 266.971531 
L 131.41562 266.971531 
L 131.489828 266.468028 
L 131.856536 266.468028 
L 131.856536 266.0904 
L 132.638982 266.0904 
L 132.638982 265.838648 
L 133.25581 265.838648 
L 133.25581 265.712772 
L 133.457005 265.712772 
L 133.457005 265.586897 
L 133.78762 265.586897 
L 133.78762 265.335145 
L 134.047992 265.335145 
L 134.047992 265.209269 
L 134.495147 265.209269 
L 134.495147 264.957517 
L 135.177024 264.957517 
L 135.177024 264.831641 
L 135.835047 264.831641 
L 135.835047 264.705766 
L 136.010584 264.705766 
L 136.010584 264.454014 
L 136.808769 264.454014 
L 136.808769 264.328138 
L 137.466966 264.328138 
L 137.466966 264.202262 
L 137.734561 264.202262 
L 137.734561 263.824634 
L 137.893309 263.824634 
L 137.945929 263.572883 
L 138.718057 263.572883 
L 138.768422 263.069379 
L 139.700607 263.069379 
L 139.700607 262.943503 
L 140.032723 262.943503 
L 140.032723 262.817628 
L 140.405242 262.817628 
L 140.405242 262.691752 
L 140.543056 262.691752 
L 140.543056 262.565876 
L 140.725251 262.565876 
L 140.815692 262.314124 
L 145.851536 262.314124 
L 145.954802 262.062372 
L 146.529503 262.062372 
L 146.529503 261.936497 
L 149.764026 261.936497 
L 149.764026 261.810621 
L 150.58682 261.810621 
L 150.58682 261.558869 
L 150.72052 261.558869 
L 150.72052 261.432993 
L 150.906118 261.432993 
L 150.906118 261.307117 
L 151.477784 261.307117 
L 151.477784 261.181241 
L 152.667844 261.181241 
L 152.667844 261.055366 
L 153.282346 261.055366 
L 153.375128 260.677738 
L 153.764426 260.677738 
L 153.8097 260.425986 
L 154.079083 260.425986 
L 154.079083 260.174234 
L 155.013876 260.174234 
L 155.013876 259.922483 
L 156.521235 259.922483 
L 156.618856 259.544855 
L 156.696589 259.544855 
L 156.715973 259.293103 
L 156.927882 259.293103 
L 156.927882 259.167228 
L 157.325925 259.167228 
L 157.382107 258.7896 
L 158.2053 258.7896 
L 158.241064 258.411972 
L 158.786875 258.411972 
L 158.786875 258.286097 
L 159.232748 258.286097 
L 159.266613 257.908469 
L 159.651731 257.908469 
L 159.651731 257.782593 
L 159.980326 257.782593 
L 159.980326 257.656717 
L 160.110173 257.656717 
L 160.206974 257.27909 
L 160.478568 257.27909 
L 160.541906 256.901462 
L 160.652238 256.901462 
L 160.746296 256.64971 
L 160.917524 256.64971 
L 160.933013 256.397959 
L 161.376738 256.397959 
L 161.437128 256.020331 
L 161.55733 256.020331 
L 161.587261 255.642703 
L 162.147083 255.642703 
L 162.205054 255.390952 
L 162.761101 255.390952 
L 162.761101 255.265076 
L 162.998429 255.265076 
L 163.026155 254.509821 
L 163.136649 254.509821 
L 163.232801 254.006317 
L 163.382912 254.006317 
L 163.382912 253.754566 
L 163.706328 253.754566 
L 163.706328 253.62869 
L 164.349858 253.62869 
L 164.349858 253.376938 
L 164.516958 253.376938 
L 164.516958 253.251062 
L 164.997064 253.251062 
L 164.997064 253.125186 
L 165.109001 253.125186 
L 165.109001 252.99931 
L 165.379853 252.99931 
L 165.379853 252.621683 
L 165.695002 252.621683 
L 165.707018 252.369931 
L 165.933882 252.369931 
L 166.040396 252.118179 
L 166.146311 252.118179 
L 166.181484 251.740552 
L 166.274957 251.740552 
L 166.379563 250.859421 
L 166.414303 250.859421 
L 166.414303 250.733545 
L 166.678531 250.733545 
L 166.746854 250.104166 
L 167.54794 250.104166 
L 167.580589 249.726538 
L 167.925369 249.726538 
L 167.925369 249.474786 
L 168.105996 249.474786 
L 168.105996 249.34891 
L 168.284904 249.34891 
L 168.295375 248.971283 
L 168.4725 248.971283 
L 168.565601 248.593655 
L 169.144777 248.593655 
L 169.144777 248.341903 
L 169.363634 248.341903 
L 169.422883 247.964276 
L 169.609283 247.964276 
L 169.716361 247.209021 
L 169.755147 247.209021 
L 169.851766 246.579641 
L 169.890274 246.579641 
L 169.890274 246.453766 
L 170.271088 246.453766 
L 170.271088 246.32789 
L 170.458643 246.32789 
L 170.458643 246.202014 
L 170.635104 246.202014 
L 170.699701 245.824386 
L 171.028455 245.824386 
L 171.109753 245.572634 
L 171.315934 245.572634 
L 171.315934 245.320883 
L 171.607866 245.320883 
L 171.607866 245.069131 
L 172.127316 245.069131 
L 172.127316 244.943255 
L 172.331145 244.943255 
L 172.440637 244.313876 
L 172.449034 244.313876 
L 172.449034 243.810372 
L 172.574528 243.810372 
L 172.632807 243.306869 
L 172.699191 243.306869 
L 172.699191 242.803366 
L 172.970575 242.803366 
L 172.970575 242.67749 
L 173.189742 242.67749 
L 173.189742 242.425738 
L 173.318423 242.425738 
L 173.318423 242.173986 
L 173.573175 242.173986 
L 173.667825 241.544607 
L 173.699269 241.544607 
L 173.762 240.789352 
L 173.979927 240.789352 
L 173.979927 240.663476 
L 174.103333 240.663476 
L 174.103333 240.5376 
L 174.633911 240.5376 
L 174.633911 240.411724 
L 174.842022 240.411724 
L 174.945221 240.034097 
L 174.974602 240.034097 
L 175.033228 239.656469 
L 175.157205 239.656469 
L 175.157205 239.530593 
L 175.517176 239.530593 
L 175.517176 239.404717 
L 175.630928 239.404717 
L 175.638014 238.901214 
L 175.835365 238.901214 
L 175.856387 238.523586 
L 175.995939 238.523586 
L 176.065329 237.894207 
L 176.285672 237.894207 
L 176.388076 237.138952 
L 176.530511 237.138952 
L 176.530511 237.013076 
L 176.718763 237.013076 
L 176.718763 236.8872 
L 176.878635 236.8872 
L 176.878635 236.761324 
L 177.148646 236.761324 
L 177.226946 236.131945 
L 177.485617 236.131945 
L 177.530521 235.628441 
L 177.626385 235.628441 
L 177.626385 235.502566 
L 177.83558 235.502566 
L 177.917356 234.999062 
L 178.179151 234.999062 
L 178.179151 234.873186 
L 178.363942 234.873186 
L 178.363942 234.621434 
L 178.595434 234.621434 
L 178.595434 234.495559 
L 178.943362 234.495559 
L 178.967121 233.866179 
L 179.120831 233.866179 
L 179.120831 233.740303 
L 179.23822 233.740303 
L 179.325784 233.488552 
L 179.459261 233.488552 
L 179.540047 233.2368 
L 179.643407 233.2368 
L 179.643407 233.110924 
L 179.859766 233.110924 
L 179.859766 232.859172 
L 180.006379 232.859172 
L 180.006379 232.607421 
L 180.151859 232.607421 
L 180.151859 232.481545 
L 180.296222 232.481545 
L 180.296222 232.355669 
L 180.969881 232.355669 
L 180.969881 232.229793 
L 181.134593 232.229793 
L 181.203239 231.978041 
L 181.282135 231.978041 
L 181.318841 231.348662 
L 181.44935 231.348662 
L 181.44935 231.222786 
L 181.825336 231.222786 
L 181.825336 230.971034 
L 181.957455 230.971034 
L 181.957455 230.719283 
L 182.133854 230.719283 
L 182.223933 230.467531 
L 182.273791 230.467531 
L 182.273791 230.341655 
L 182.457127 230.341655 
L 182.565296 229.712276 
L 182.663095 229.712276 
L 182.667971 229.334648 
L 182.929449 229.334648 
L 182.929449 229.082897 
L 183.058837 229.082897 
L 183.058837 228.957021 
L 183.324394 228.957021 
L 183.408962 228.579393 
L 183.51647 228.579393 
L 183.51647 228.327641 
L 183.757291 228.327641 
L 183.761892 228.07589 
L 184.135402 228.07589 
L 184.135402 227.824138 
L 184.288124 227.824138 
L 184.288124 227.698262 
L 184.668973 227.698262 
L 184.725878 227.194759 
L 184.786969 227.194759 
L 184.786969 226.943007 
L 185.323804 226.943007 
L 185.408293 226.565379 
L 185.79626 226.565379 
L 185.874547 226.187752 
L 186.00975 226.187752 
L 186.00975 225.936 
L 187.053891 225.936 
L 187.053891 225.684248 
L 187.669348 225.684248 
L 187.74023 225.306621 
L 189.152925 225.306621 
L 189.25283 224.928993 
L 189.576441 224.928993 
L 189.623664 224.551366 
L 190.29865 224.551366 
L 190.29865 224.42549 
L 190.524792 224.42549 
L 190.524792 224.299614 
L 191.491786 224.299614 
L 191.491786 224.047862 
L 192.183542 224.047862 
L 192.183542 223.79611 
L 192.65106 223.79611 
L 192.653928 223.292607 
L 193.045554 223.292607 
L 193.045554 223.040855 
L 194.746858 223.040855 
L 194.746858 222.789103 
L 196.494955 222.789103 
L 196.494955 222.663228 
L 196.6857 222.663228 
L 196.6857 222.411476 
L 199.266073 222.411476 
L 199.266073 222.159724 
L 205.552062 222.159724 
L 205.552062 222.033848 
L 206.133813 222.033848 
L 206.133813 221.907972 
L 206.440828 221.907972 
L 206.440828 221.656221 
L 208.149393 221.656221 
L 208.149393 221.404469 
L 209.71793 221.404469 
L 209.71793 221.152717 
L 210.911006 221.152717 
L 210.911006 220.900966 
L 211.284291 220.900966 
L 211.284291 220.77509 
L 211.987814 220.77509 
L 211.987814 220.523338 
L 213.433936 220.523338 
L 213.433936 220.271586 
L 218.948254 220.271586 
L 218.948254 220.14571 
L 221.039499 220.14571 
L 221.039499 220.019834 
L 221.393804 220.019834 
L 221.393804 219.768083 
L 222.428375 219.768083 
L 222.428375 219.516331 
L 222.631663 219.516331 
L 222.631663 219.264579 
L 223.926806 219.264579 
L 223.926806 219.012828 
L 224.627229 219.012828 
L 224.627229 218.886952 
L 225.296945 218.886952 
L 225.296945 218.6352 
L 225.586004 218.6352 
L 225.586004 218.509324 
L 226.475486 218.509324 
L 226.475486 218.257572 
L 228.209902 218.257572 
L 228.209902 218.005821 
L 228.596192 218.005821 
L 228.596192 217.754069 
L 229.663578 217.754069 
L 229.663578 217.502317 
L 231.458078 217.502317 
L 231.458078 217.376441 
L 232.93381 217.376441 
L 232.93381 217.250566 
L 233.39285 217.250566 
L 233.408957 216.747062 
L 233.965135 216.747062 
L 233.965135 216.621186 
L 234.098955 216.621186 
L 234.149565 216.243559 
L 235.845992 216.243559 
L 235.845992 216.117683 
L 236.949112 216.117683 
L 236.949112 215.865931 
L 238.150111 215.865931 
L 238.150111 215.740055 
L 238.874266 215.740055 
L 238.874266 215.488303 
L 240.218351 215.488303 
L 240.218351 215.236552 
L 240.518844 215.236552 
L 240.518844 215.110676 
L 240.706808 215.110676 
L 240.706808 214.858924 
L 242.352282 214.858924 
L 242.352282 214.607172 
L 242.572393 214.607172 
L 242.572393 214.355421 
L 243.288551 214.355421 
L 243.288551 214.103669 
L 244.16355 214.103669 
L 244.16355 213.851917 
L 244.368335 213.851917 
L 244.368335 213.726041 
L 245.252387 213.726041 
L 245.252387 213.47429 
L 245.976354 213.47429 
L 245.976354 213.222538 
L 246.934639 213.222538 
L 246.934639 212.970786 
L 247.206578 212.970786 
L 247.206578 212.719034 
L 249.868681 212.719034 
L 249.868681 212.467283 
L 250.053095 212.467283 
L 250.102807 212.089655 
L 250.315473 212.089655 
L 250.350484 211.837903 
L 251.258873 211.837903 
L 251.258873 211.712028 
L 252.059936 211.712028 
L 252.065908 211.3344 
L 252.438651 211.3344 
L 252.438651 211.082648 
L 253.030583 211.082648 
L 253.030583 210.830897 
L 254.687691 210.830897 
L 254.687691 210.705021 
L 254.81722 210.705021 
L 254.906294 210.327393 
L 255.009544 210.327393 
L 255.009544 210.201517 
L 255.252876 210.201517 
L 255.252876 210.075641 
L 255.460264 210.075641 
L 255.460264 209.82389 
L 255.658343 209.82389 
L 255.658343 209.572138 
L 256.096319 209.572138 
L 256.096319 209.320386 
L 257.401912 209.320386 
L 257.401912 209.19451 
L 257.673876 209.19451 
L 257.673876 209.068634 
L 258.194588 209.068634 
L 258.194588 208.942759 
L 259.254144 208.942759 
L 259.254144 208.691007 
L 260.282719 208.691007 
L 260.282719 208.439255 
L 260.409067 208.439255 
L 260.409067 208.313379 
L 261.210273 208.313379 
L 261.210273 208.187503 
L 261.362038 208.187503 
L 261.362038 208.061628 
L 262.051706 208.061628 
L 262.051706 207.809876 
L 262.295602 207.809876 
L 262.295602 207.684 
L 262.724589 207.684 
L 262.724589 207.432248 
L 262.921753 207.432248 
L 262.966046 206.928745 
L 263.412208 206.928745 
L 263.412208 206.802869 
L 263.758569 206.802869 
L 263.804203 206.425241 
L 265.247679 206.425241 
L 265.247679 206.299366 
L 266.559611 206.299366 
L 266.559611 206.17349 
L 266.832356 206.17349 
L 266.873115 205.795862 
L 267.155487 205.795862 
L 267.155487 205.669986 
L 268.603849 205.669986 
L 268.671926 205.292359 
L 271.297839 205.292359 
L 271.374976 205.040607 
L 271.611537 205.040607 
L 271.619598 204.662979 
L 271.839878 204.662979 
L 271.839878 204.537103 
L 272.511114 204.537103 
L 272.52492 204.285352 
L 273.640175 204.285352 
L 273.640175 204.159476 
L 274.058135 204.159476 
L 274.058135 203.907724 
L 360.8064 203.907724 
L 360.8064 203.907724 
" style="fill: none; stroke: #ff00ff; stroke-width: 1.5; stroke-linecap: square"/>
   </g>
   <g id="line2d_41">
    <defs>
     <path id="me8addf6d34" d="M 0 8.485281 
L 5.091169 0 
L 0 -8.485281 
L -5.091169 0 
z
" style="stroke: #ff00ff; stroke-width: 1.5; stroke-linejoin: miter"/>
    </defs>
    <g>
     <use xlink:href="#me8addf6d34" x="95.752617" y="282.580138" style="fill-opacity: 0; stroke: #ff00ff; stroke-width: 1.5; stroke-linejoin: miter"/>
     <use xlink:href="#me8addf6d34" x="172.970575" y="242.67749" style="fill-opacity: 0; stroke: #ff00ff; stroke-width: 1.5; stroke-linejoin: miter"/>
     <use xlink:href="#me8addf6d34" x="256.096319" y="209.572138" style="fill-opacity: 0; stroke: #ff00ff; stroke-width: 1.5; stroke-linejoin: miter"/>
     <use xlink:href="#me8addf6d34" x="274.058135" y="204.159476" style="fill-opacity: 0; stroke: #ff00ff; stroke-width: 1.5; stroke-linejoin: miter"/>
     <use xlink:href="#me8addf6d34" x="274.058135" y="203.907724" style="fill-opacity: 0; stroke: #ff00ff; stroke-width: 1.5; stroke-linejoin: miter"/>
     <use xlink:href="#me8addf6d34" x="360.8064" y="203.907724" style="fill-opacity: 0; stroke: #ff00ff; stroke-width: 1.5; stroke-linejoin: miter"/>
    </g>
   </g>
   <g id="line2d_42">
    <path style="fill: none; stroke: #ff00ff; stroke-width: 1.5; stroke-linecap: square"/>
    <g/>
   </g>
   <g id="line2d_43">
    <path d="M 274.176038 203.907724 
" clip-path="url(#pc68e19bc49)" style="fill: none; stroke: #ff00ff; stroke-width: 1.5; stroke-linecap: square"/>
    <defs>
     <path id="m8fca4c5238" d="M -12 12 
L 12 -12 
M -12 -12 
L 12 12 
" style="stroke: #ff00ff"/>
    </defs>
    <g clip-path="url(#pc68e19bc49)">
     <use xlink:href="#m8fca4c5238" x="274.176038" y="203.907724" style="fill: #ff00ff; stroke: #ff00ff"/>
    </g>
   </g>
   <g id="line2d_44">
    <defs>
     <path id="m300c7b7fa1" d="M 0 1.5 
C 0.397805 1.5 0.77937 1.341951 1.06066 1.06066 
C 1.341951 0.77937 1.5 0.397805 1.5 0 
C 1.5 -0.397805 1.341951 -0.77937 1.06066 -1.06066 
C 0.77937 -1.341951 0.397805 -1.5 0 -1.5 
C -0.397805 -1.5 -0.77937 -1.341951 -1.06066 -1.06066 
C -1.341951 -0.77937 -1.5 -0.397805 -1.5 0 
C -1.5 0.397805 -1.341951 0.77937 -1.06066 1.06066 
C -0.77937 1.341951 -0.397805 1.5 0 1.5 
z
" style="stroke: #6495ed"/>
    </defs>
    <g>
     <use xlink:href="#m300c7b7fa1" x="113.954374" y="267.223283" style="fill: #6495ed; stroke: #6495ed"/>
     <use xlink:href="#m300c7b7fa1" x="113.954374" y="267.223283" style="fill: #6495ed; stroke: #6495ed"/>
    </g>
   </g>
   <g id="line2d_45">
    <path d="M 27.323974 298.944 
L 27.323974 297.811117 
L 40.363149 297.811117 
L 40.363149 295.419476 
L 47.990577 295.419476 
L 47.990577 294.286593 
L 53.402323 294.286593 
L 53.402323 293.405462 
L 57.6 293.405462 
L 57.6 292.650207 
L 61.029752 292.650207 
L 61.029752 291.6432 
L 63.929565 291.6432 
L 63.929565 291.391448 
L 66.441498 291.391448 
L 66.441498 290.636193 
L 68.65718 290.636193 
L 68.65718 290.258566 
L 70.639174 290.258566 
L 70.639174 289.629186 
L 72.432107 289.629186 
L 72.432107 288.496303 
L 74.068926 288.496303 
L 74.068926 287.9928 
L 75.574654 287.9928 
L 75.574654 287.741048 
L 76.96874 287.741048 
L 76.96874 287.615172 
L 78.266603 287.615172 
L 78.266603 287.489297 
L 79.480672 287.489297 
L 79.480672 286.859917 
L 81.696354 286.859917 
L 81.696354 286.608166 
L 82.713442 286.608166 
L 82.713442 286.48229 
L 83.678349 286.48229 
L 83.678349 286.356414 
L 84.596168 286.356414 
L 84.596168 286.230538 
L 85.471281 286.230538 
L 85.471281 285.978786 
L 86.307488 285.978786 
L 86.307488 285.349407 
L 87.876026 285.349407 
L 87.876026 285.097655 
L 88.613828 285.097655 
L 88.613828 284.971779 
L 90.007914 284.971779 
L 90.007914 284.845903 
L 90.668036 284.845903 
L 90.668036 284.720028 
L 91.305777 284.720028 
L 91.305777 284.594152 
L 91.922605 284.594152 
L 91.922605 284.3424 
L 92.519847 284.3424 
L 92.519847 283.587145 
L 93.098709 283.587145 
L 93.098709 283.209517 
L 94.205591 283.209517 
L 94.205591 283.083641 
L 95.250946 283.083641 
L 95.250946 282.83189 
L 95.752617 282.83189 
L 95.752617 282.706014 
L 96.717523 282.706014 
L 96.717523 282.454262 
L 98.510456 282.454262 
L 98.510456 282.076634 
L 98.933205 282.076634 
L 98.933205 281.950759 
L 99.751228 281.950759 
L 99.751228 281.573131 
L 102.011329 281.573131 
L 102.011329 281.321379 
L 102.708132 281.321379 
L 102.708132 280.566124 
L 103.047088 280.566124 
L 103.047088 279.936745 
L 103.380045 279.936745 
L 103.380045 279.18149 
L 103.707211 279.18149 
L 103.707211 278.174483 
L 104.028784 278.174483 
L 104.028784 277.545103 
L 104.344952 277.545103 
L 104.344952 276.789848 
L 104.655893 276.789848 
L 104.655893 276.160469 
L 104.961779 276.160469 
L 104.961779 276.034593 
L 105.26277 276.034593 
L 105.26277 275.656966 
L 105.559021 275.656966 
L 105.559021 275.53109 
L 106.137884 275.53109 
L 106.137884 275.153462 
L 106.42077 275.153462 
L 106.42077 274.775834 
L 106.699465 274.775834 
L 106.699465 274.649959 
L 106.974091 274.649959 
L 106.974091 273.894703 
L 107.244765 273.894703 
L 107.244765 273.517076 
L 107.5116 273.517076 
L 107.5116 273.3912 
L 108.034177 273.3912 
L 108.034177 273.139448 
L 108.29012 273.139448 
L 108.29012 273.013572 
L 108.791791 273.013572 
L 108.791791 272.887697 
L 109.037698 272.887697 
L 109.037698 272.761821 
L 109.280431 272.761821 
L 109.280431 272.510069 
L 109.520071 272.510069 
L 109.520071 272.006566 
L 109.756698 272.006566 
L 109.756698 271.754814 
L 109.990385 271.754814 
L 109.990385 271.628938 
L 110.221204 271.628938 
L 110.221204 271.25131 
L 110.674517 271.25131 
L 110.674517 270.999559 
L 110.897141 270.999559 
L 110.897141 270.496055 
L 111.117162 270.496055 
L 111.117162 270.370179 
L 111.334639 270.370179 
L 111.334639 270.118428 
L 111.54963 270.118428 
L 111.54963 269.7408 
L 111.762192 269.7408 
L 111.762192 269.614924 
L 111.97238 269.614924 
L 111.97238 269.111421 
L 112.180244 269.111421 
L 112.180244 268.985545 
L 112.385837 268.985545 
L 112.385837 268.859669 
L 112.790402 268.859669 
L 112.790402 268.733793 
L 112.989468 268.733793 
L 112.989468 268.482041 
L 113.186449 268.482041 
L 113.186449 268.104414 
L 113.381389 268.104414 
L 113.381389 267.978538 
L 113.57433 267.978538 
L 113.57433 267.852662 
L 113.765312 267.852662 
L 113.765312 267.726786 
L 113.954374 267.726786 
L 113.954374 267.223283 
L 360.8064 267.223283 
L 360.8064 267.223283 
" style="fill: none; stroke: #6495ed; stroke-width: 1.5; stroke-linecap: square"/>
   </g>
   <g id="line2d_46">
    <defs>
     <path id="m5353eb2cfd" d="M -0 6 
L 6 -6 
L -6 -6 
z
" style="stroke: #6495ed; stroke-width: 1.5; stroke-linejoin: miter"/>
    </defs>
    <g>
     <use xlink:href="#m5353eb2cfd" x="76.96874" y="287.741048" style="fill-opacity: 0; stroke: #6495ed; stroke-width: 1.5; stroke-linejoin: miter"/>
     <use xlink:href="#m5353eb2cfd" x="113.954374" y="267.726786" style="fill-opacity: 0; stroke: #6495ed; stroke-width: 1.5; stroke-linejoin: miter"/>
     <use xlink:href="#m5353eb2cfd" x="113.954374" y="267.726786" style="fill-opacity: 0; stroke: #6495ed; stroke-width: 1.5; stroke-linejoin: miter"/>
     <use xlink:href="#m5353eb2cfd" x="113.954374" y="267.223283" style="fill-opacity: 0; stroke: #6495ed; stroke-width: 1.5; stroke-linejoin: miter"/>
     <use xlink:href="#m5353eb2cfd" x="113.954374" y="267.223283" style="fill-opacity: 0; stroke: #6495ed; stroke-width: 1.5; stroke-linejoin: miter"/>
     <use xlink:href="#m5353eb2cfd" x="360.8064" y="267.223283" style="fill-opacity: 0; stroke: #6495ed; stroke-width: 1.5; stroke-linejoin: miter"/>
    </g>
   </g>
   <g id="line2d_47">
    <path style="fill: none; stroke: #6495ed; stroke-width: 1.5; stroke-linecap: square"/>
    <g/>
   </g>
   <g id="line2d_48">
    <path d="M 113.954374 267.223283 
" clip-path="url(#pc68e19bc49)" style="fill: none; stroke: #6495ed; stroke-width: 1.5; stroke-linecap: square"/>
    <defs>
     <path id="mab49018da6" d="M -12 12 
L 12 -12 
M -12 -12 
L 12 12 
" style="stroke: #6495ed"/>
    </defs>
    <g clip-path="url(#pc68e19bc49)">
     <use xlink:href="#mab49018da6" x="113.954374" y="267.223283" style="fill: #6495ed; stroke: #6495ed"/>
    </g>
   </g>
   <g id="line2d_49">
    <path d="M 360.8064 282.580138 
L 380.514816 293.10336 
" style="fill: none; stroke: #000080; stroke-width: 1.5; stroke-linecap: square"/>
    <g>
     <use xlink:href="#m415366dd27" x="360.8064" y="282.580138" style="fill-opacity: 0; stroke: #000080; stroke-width: 1.5"/>
     <use xlink:href="#m415366dd27" x="380.514816" y="293.10336" style="fill-opacity: 0; stroke: #000080; stroke-width: 1.5"/>
    </g>
   </g>
   <g id="line2d_50">
    <path d="M 360.8064 267.223283 
L 380.514816 199.65312 
" style="fill: none; stroke: #6495ed; stroke-width: 1.5; stroke-linecap: square"/>
    <g>
     <use xlink:href="#m5353eb2cfd" x="360.8064" y="267.223283" style="fill-opacity: 0; stroke: #6495ed; stroke-width: 1.5; stroke-linejoin: miter"/>
     <use xlink:href="#m5353eb2cfd" x="380.514816" y="199.65312" style="fill-opacity: 0; stroke: #6495ed; stroke-width: 1.5; stroke-linejoin: miter"/>
    </g>
   </g>
   <g id="line2d_51">
    <path d="M 360.8064 203.907724 
L 380.514816 106.20288 
" style="fill: none; stroke: #ff00ff; stroke-width: 1.5; stroke-linecap: square"/>
    <g>
     <use xlink:href="#me8addf6d34" x="360.8064" y="203.907724" style="fill-opacity: 0; stroke: #ff00ff; stroke-width: 1.5; stroke-linejoin: miter"/>
     <use xlink:href="#me8addf6d34" x="380.514816" y="106.20288" style="fill-opacity: 0; stroke: #ff00ff; stroke-width: 1.5; stroke-linejoin: miter"/>
    </g>
   </g>
   <g id="line2d_52">
    <path d="M 360.8064 298.944 
L 360.8064 6.912 
" style="fill: none; stroke: #000000; stroke-width: 1.5; stroke-linecap: square"/>
   </g>
   <g id="patch_3">
    <path d="M 57.6 298.944 
L 360.8064 298.944 
" style="fill: none; stroke: #000000; stroke-width: 0.8; stroke-linejoin: miter; stroke-linecap: square"/>
   </g>
   <g id="patch_4">
    <path d="M 57.6 6.912 
L 360.8064 6.912 
" style="fill: none; stroke: #000000; stroke-width: 0.8; stroke-linejoin: miter; stroke-linecap: square"/>
   </g>
   <g id="text_13">
    <!-- cma -->
    <g transform="translate(386.578944 296.966485)scale(0.14 -0.14)">
     <use xlink:href="#DejaVuSans-63"/>
     <use xlink:href="#DejaVuSans-6d" x="54.980469"/>
     <use xlink:href="#DejaVuSans-61" x="152.392578"/>
    </g>
   </g>
   <g id="text_14">
    <!-- parEgo -->
    <g transform="translate(386.578944 203.516245)scale(0.14 -0.14)">
     <defs>
      <path id="DejaVuSans-45" d="M 628 4666 
L 3578 4666 
L 3578 4134 
L 1259 4134 
L 1259 2753 
L 3481 2753 
L 3481 2222 
L 1259 2222 
L 1259 531 
L 3634 531 
L 3634 0 
L 628 0 
L 628 4666 
z
" transform="scale(0.015625)"/>
     </defs>
     <use xlink:href="#DejaVuSans-70"/>
     <use xlink:href="#DejaVuSans-61" x="63.476562"/>
     <use xlink:href="#DejaVuSans-72" x="124.755859"/>
     <use xlink:href="#DejaVuSans-45" x="165.869141"/>
     <use xlink:href="#DejaVuSans-67" x="229.052734"/>
     <use xlink:href="#DejaVuSans-6f" x="292.529297"/>
    </g>
   </g>
   <g id="text_15">
    <!-- external- -->
    <g transform="translate(386.578944 110.066005)scale(0.14 -0.14)">
     <defs>
      <path id="DejaVuSans-78" d="M 3513 3500 
L 2247 1797 
L 3578 0 
L 2900 0 
L 1881 1375 
L 863 0 
L 184 0 
L 1544 1831 
L 300 3500 
L 978 3500 
L 1906 2253 
L 2834 3500 
L 3513 3500 
z
" transform="scale(0.015625)"/>
     </defs>
     <use xlink:href="#DejaVuSans-65"/>
     <use xlink:href="#DejaVuSans-78" x="59.773438"/>
     <use xlink:href="#DejaVuSans-74" x="118.953125"/>
     <use xlink:href="#DejaVuSans-65" x="158.162109"/>
     <use xlink:href="#DejaVuSans-72" x="219.685547"/>
     <use xlink:href="#DejaVuSans-6e" x="259.048828"/>
     <use xlink:href="#DejaVuSans-61" x="322.427734"/>
     <use xlink:href="#DejaVuSans-6c" x="383.707031"/>
     <use xlink:href="#DejaVuSans-2d" x="411.490234"/>
    </g>
   </g>
   <g id="text_16">
    <!-- best 2016 -->
    <g transform="translate(386.578944 16.615765)scale(0.14 -0.14)">
     <defs>
      <path id="DejaVuSans-62" d="M 3116 1747 
Q 3116 2381 2855 2742 
Q 2594 3103 2138 3103 
Q 1681 3103 1420 2742 
Q 1159 2381 1159 1747 
Q 1159 1113 1420 752 
Q 1681 391 2138 391 
Q 2594 391 2855 752 
Q 3116 1113 3116 1747 
z
M 1159 2969 
Q 1341 3281 1617 3432 
Q 1894 3584 2278 3584 
Q 2916 3584 3314 3078 
Q 3713 2572 3713 1747 
Q 3713 922 3314 415 
Q 2916 -91 2278 -91 
Q 1894 -91 1617 61 
Q 1341 213 1159 525 
L 1159 0 
L 581 0 
L 581 4863 
L 1159 4863 
L 1159 2969 
z
" transform="scale(0.015625)"/>
     </defs>
     <use xlink:href="#DejaVuSans-62"/>
     <use xlink:href="#DejaVuSans-65" x="63.476562"/>
     <use xlink:href="#DejaVuSans-73" x="125"/>
     <use xlink:href="#DejaVuSans-74" x="177.099609"/>
     <use xlink:href="#DejaVuSans-20" x="216.308594"/>
     <use xlink:href="#DejaVuSans-32" x="248.095703"/>
     <use xlink:href="#DejaVuSans-30" x="311.71875"/>
     <use xlink:href="#DejaVuSans-31" x="375.341797"/>
     <use xlink:href="#DejaVuSans-36" x="438.964844"/>
    </g>
   </g>
   <g id="text_17">
    <!-- bbob-biobj f7, f8, f16, f17, 5-D -->
    <g transform="translate(60.632064 17.582726)scale(0.102 -0.102)">
     <defs>
      <path id="DejaVuSans-6a" d="M 603 3500 
L 1178 3500 
L 1178 -63 
Q 1178 -731 923 -1031 
Q 669 -1331 103 -1331 
L -116 -1331 
L -116 -844 
L 38 -844 
Q 366 -844 484 -692 
Q 603 -541 603 -63 
L 603 3500 
z
M 603 4863 
L 1178 4863 
L 1178 4134 
L 603 4134 
L 603 4863 
z
" transform="scale(0.015625)"/>
      <path id="DejaVuSans-37" d="M 525 4666 
L 3525 4666 
L 3525 4397 
L 1831 0 
L 1172 0 
L 2766 4134 
L 525 4134 
L 525 4666 
z
" transform="scale(0.015625)"/>
      <path id="DejaVuSans-35" d="M 691 4666 
L 3169 4666 
L 3169 4134 
L 1269 4134 
L 1269 2991 
Q 1406 3038 1543 3061 
Q 1681 3084 1819 3084 
Q 2600 3084 3056 2656 
Q 3513 2228 3513 1497 
Q 3513 744 3044 326 
Q 2575 -91 1722 -91 
Q 1428 -91 1123 -41 
Q 819 9 494 109 
L 494 744 
Q 775 591 1075 516 
Q 1375 441 1709 441 
Q 2250 441 2565 725 
Q 2881 1009 2881 1497 
Q 2881 1984 2565 2268 
Q 2250 2553 1709 2553 
Q 1456 2553 1204 2497 
Q 953 2441 691 2322 
L 691 4666 
z
" transform="scale(0.015625)"/>
      <path id="DejaVuSans-44" d="M 1259 4147 
L 1259 519 
L 2022 519 
Q 2988 519 3436 956 
Q 3884 1394 3884 2338 
Q 3884 3275 3436 3711 
Q 2988 4147 2022 4147 
L 1259 4147 
z
M 628 4666 
L 1925 4666 
Q 3281 4666 3915 4102 
Q 4550 3538 4550 2338 
Q 4550 1131 3912 565 
Q 3275 0 1925 0 
L 628 0 
L 628 4666 
z
" transform="scale(0.015625)"/>
     </defs>
     <use xlink:href="#DejaVuSans-62"/>
     <use xlink:href="#DejaVuSans-62" x="63.476562"/>
     <use xlink:href="#DejaVuSans-6f" x="126.953125"/>
     <use xlink:href="#DejaVuSans-62" x="188.134766"/>
     <use xlink:href="#DejaVuSans-2d" x="251.611328"/>
     <use xlink:href="#DejaVuSans-62" x="287.695312"/>
     <use xlink:href="#DejaVuSans-69" x="351.171875"/>
     <use xlink:href="#DejaVuSans-6f" x="378.955078"/>
     <use xlink:href="#DejaVuSans-62" x="440.136719"/>
     <use xlink:href="#DejaVuSans-6a" x="503.613281"/>
     <use xlink:href="#DejaVuSans-20" x="531.396484"/>
     <use xlink:href="#DejaVuSans-66" x="563.183594"/>
     <use xlink:href="#DejaVuSans-37" x="598.388672"/>
     <use xlink:href="#DejaVuSans-2c" x="662.011719"/>
     <use xlink:href="#DejaVuSans-20" x="693.798828"/>
     <use xlink:href="#DejaVuSans-66" x="725.585938"/>
     <use xlink:href="#DejaVuSans-38" x="760.791016"/>
     <use xlink:href="#DejaVuSans-2c" x="824.414062"/>
     <use xlink:href="#DejaVuSans-20" x="856.201172"/>
     <use xlink:href="#DejaVuSans-66" x="887.988281"/>
     <use xlink:href="#DejaVuSans-31" x="923.193359"/>
     <use xlink:href="#DejaVuSans-36" x="986.816406"/>
     <use xlink:href="#DejaVuSans-2c" x="1050.439453"/>
     <use xlink:href="#DejaVuSans-20" x="1082.226562"/>
     <use xlink:href="#DejaVuSans-66" x="1114.013672"/>
     <use xlink:href="#DejaVuSans-31" x="1149.21875"/>
     <use xlink:href="#DejaVuSans-37" x="1212.841797"/>
     <use xlink:href="#DejaVuSans-2c" x="1276.464844"/>
     <use xlink:href="#DejaVuSans-20" x="1308.251953"/>
     <use xlink:href="#DejaVuSans-35" x="1340.039062"/>
     <use xlink:href="#DejaVuSans-2d" x="1403.662109"/>
     <use xlink:href="#DejaVuSans-44" x="1439.746094"/>
    </g>
    <!-- 58 targets: 1..-1.0e-4 -->
    <g transform="translate(60.632064 29.004495)scale(0.102 -0.102)">
     <defs>
      <path id="DejaVuSans-3a" d="M 750 794 
L 1409 794 
L 1409 0 
L 750 0 
L 750 794 
z
M 750 3309 
L 1409 3309 
L 1409 2516 
L 750 2516 
L 750 3309 
z
" transform="scale(0.015625)"/>
     </defs>
     <use xlink:href="#DejaVuSans-35"/>
     <use xlink:href="#DejaVuSans-38" x="63.623047"/>
     <use xlink:href="#DejaVuSans-20" x="127.246094"/>
     <use xlink:href="#DejaVuSans-74" x="159.033203"/>
     <use xlink:href="#DejaVuSans-61" x="198.242188"/>
     <use xlink:href="#DejaVuSans-72" x="259.521484"/>
     <use xlink:href="#DejaVuSans-67" x="298.884766"/>
     <use xlink:href="#DejaVuSans-65" x="362.361328"/>
     <use xlink:href="#DejaVuSans-74" x="423.884766"/>
     <use xlink:href="#DejaVuSans-73" x="463.09375"/>
     <use xlink:href="#DejaVuSans-3a" x="515.193359"/>
     <use xlink:href="#DejaVuSans-20" x="548.884766"/>
     <use xlink:href="#DejaVuSans-31" x="580.671875"/>
     <use xlink:href="#DejaVuSans-2e" x="644.294922"/>
     <use xlink:href="#DejaVuSans-2e" x="676.082031"/>
     <use xlink:href="#DejaVuSans-2d" x="707.869141"/>
     <use xlink:href="#DejaVuSans-31" x="743.953125"/>
     <use xlink:href="#DejaVuSans-2e" x="807.576172"/>
     <use xlink:href="#DejaVuSans-30" x="839.363281"/>
     <use xlink:href="#DejaVuSans-65" x="902.986328"/>
     <use xlink:href="#DejaVuSans-2d" x="964.509766"/>
     <use xlink:href="#DejaVuSans-34" x="1000.59375"/>
    </g>
    <!-- 10 instances -->
    <g transform="translate(60.632064 40.426264)scale(0.102 -0.102)">
     <use xlink:href="#DejaVuSans-31"/>
     <use xlink:href="#DejaVuSans-30" x="63.623047"/>
     <use xlink:href="#DejaVuSans-20" x="127.246094"/>
     <use xlink:href="#DejaVuSans-69" x="159.033203"/>
     <use xlink:href="#DejaVuSans-6e" x="186.816406"/>
     <use xlink:href="#DejaVuSans-73" x="250.195312"/>
     <use xlink:href="#DejaVuSans-74" x="302.294922"/>
     <use xlink:href="#DejaVuSans-61" x="341.503906"/>
     <use xlink:href="#DejaVuSans-6e" x="402.783203"/>
     <use xlink:href="#DejaVuSans-63" x="466.162109"/>
     <use xlink:href="#DejaVuSans-65" x="521.142578"/>
     <use xlink:href="#DejaVuSans-73" x="582.666016"/>
    </g>
   </g>
   <g id="text_18">
    <!-- v2.6, hv-hash=ff0e71e8cd978373 -->
    <g style="fill: #808080" transform="translate(123.707887 293.943992)scale(0.1 -0.1)">
     <defs>
      <path id="DejaVuSans-68" d="M 3513 2113 
L 3513 0 
L 2938 0 
L 2938 2094 
Q 2938 2591 2744 2837 
Q 2550 3084 2163 3084 
Q 1697 3084 1428 2787 
Q 1159 2491 1159 1978 
L 1159 0 
L 581 0 
L 581 4863 
L 1159 4863 
L 1159 2956 
Q 1366 3272 1645 3428 
Q 1925 3584 2291 3584 
Q 2894 3584 3203 3211 
Q 3513 2838 3513 2113 
z
" transform="scale(0.015625)"/>
      <path id="DejaVuSans-3d" d="M 678 2906 
L 4684 2906 
L 4684 2381 
L 678 2381 
L 678 2906 
z
M 678 1631 
L 4684 1631 
L 4684 1100 
L 678 1100 
L 678 1631 
z
" transform="scale(0.015625)"/>
      <path id="DejaVuSans-39" d="M 703 97 
L 703 672 
Q 941 559 1184 500 
Q 1428 441 1663 441 
Q 2288 441 2617 861 
Q 2947 1281 2994 2138 
Q 2813 1869 2534 1725 
Q 2256 1581 1919 1581 
Q 1219 1581 811 2004 
Q 403 2428 403 3163 
Q 403 3881 828 4315 
Q 1253 4750 1959 4750 
Q 2769 4750 3195 4129 
Q 3622 3509 3622 2328 
Q 3622 1225 3098 567 
Q 2575 -91 1691 -91 
Q 1453 -91 1209 -44 
Q 966 3 703 97 
z
M 1959 2075 
Q 2384 2075 2632 2365 
Q 2881 2656 2881 3163 
Q 2881 3666 2632 3958 
Q 2384 4250 1959 4250 
Q 1534 4250 1286 3958 
Q 1038 3666 1038 3163 
Q 1038 2656 1286 2365 
Q 1534 2075 1959 2075 
z
" transform="scale(0.015625)"/>
      <path id="DejaVuSans-33" d="M 2597 2516 
Q 3050 2419 3304 2112 
Q 3559 1806 3559 1356 
Q 3559 666 3084 287 
Q 2609 -91 1734 -91 
Q 1441 -91 1130 -33 
Q 819 25 488 141 
L 488 750 
Q 750 597 1062 519 
Q 1375 441 1716 441 
Q 2309 441 2620 675 
Q 2931 909 2931 1356 
Q 2931 1769 2642 2001 
Q 2353 2234 1838 2234 
L 1294 2234 
L 1294 2753 
L 1863 2753 
Q 2328 2753 2575 2939 
Q 2822 3125 2822 3475 
Q 2822 3834 2567 4026 
Q 2313 4219 1838 4219 
Q 1578 4219 1281 4162 
Q 984 4106 628 3988 
L 628 4550 
Q 988 4650 1302 4700 
Q 1616 4750 1894 4750 
Q 2613 4750 3031 4423 
Q 3450 4097 3450 3541 
Q 3450 3153 3228 2886 
Q 3006 2619 2597 2516 
z
" transform="scale(0.015625)"/>
     </defs>
     <use xlink:href="#DejaVuSans-76"/>
     <use xlink:href="#DejaVuSans-32" x="59.179688"/>
     <use xlink:href="#DejaVuSans-2e" x="122.802734"/>
     <use xlink:href="#DejaVuSans-36" x="154.589844"/>
     <use xlink:href="#DejaVuSans-2c" x="218.212891"/>
     <use xlink:href="#DejaVuSans-20" x="250"/>
     <use xlink:href="#DejaVuSans-68" x="281.787109"/>
     <use xlink:href="#DejaVuSans-76" x="345.166016"/>
     <use xlink:href="#DejaVuSans-2d" x="401.720703"/>
     <use xlink:href="#DejaVuSans-68" x="437.804688"/>
     <use xlink:href="#DejaVuSans-61" x="501.183594"/>
     <use xlink:href="#DejaVuSans-73" x="562.462891"/>
     <use xlink:href="#DejaVuSans-68" x="614.5625"/>
     <use xlink:href="#DejaVuSans-3d" x="677.941406"/>
     <use xlink:href="#DejaVuSans-66" x="761.730469"/>
     <use xlink:href="#DejaVuSans-66" x="796.935547"/>
     <use xlink:href="#DejaVuSans-30" x="832.140625"/>
     <use xlink:href="#DejaVuSans-65" x="895.763672"/>
     <use xlink:href="#DejaVuSans-37" x="957.287109"/>
     <use xlink:href="#DejaVuSans-31" x="1020.910156"/>
     <use xlink:href="#DejaVuSans-65" x="1084.533203"/>
     <use xlink:href="#DejaVuSans-38" x="1146.056641"/>
     <use xlink:href="#DejaVuSans-63" x="1209.679688"/>
     <use xlink:href="#DejaVuSans-64" x="1264.660156"/>
     <use xlink:href="#DejaVuSans-39" x="1328.136719"/>
     <use xlink:href="#DejaVuSans-37" x="1391.759766"/>
     <use xlink:href="#DejaVuSans-38" x="1455.382812"/>
     <use xlink:href="#DejaVuSans-33" x="1519.005859"/>
     <use xlink:href="#DejaVuSans-37" x="1582.628906"/>
     <use xlink:href="#DejaVuSans-33" x="1646.251953"/>
    </g>
   </g>
  </g>
 </g>
 <defs>
  <clipPath id="pc68e19bc49">
   <rect x="57.6" y="6.912" width="303.2064" height="292.032"/>
  </clipPath>
 </defs>
</svg>
