<?xml version="1.0" encoding="utf-8" standalone="no"?>
<!DOCTYPE svg PUBLIC "-//W3C//DTD SVG 1.1//EN"
  "http://www.w3.org/Graphics/SVG/1.1/DTD/svg11.dtd">
<svg xmlns:xlink="http://www.w3.org/1999/xlink" width="460.8pt" height="345.6pt" viewBox="0 0 460.8 345.6" xmlns="http://www.w3.org/2000/svg" version="1.1">
 <metadata>
  <rdf:RDF xmlns:dc="http://purl.org/dc/elements/1.1/" xmlns:cc="http://creativecommons.org/ns#" xmlns:rdf="http://www.w3.org/1999/02/22-rdf-syntax-ns#">
   <cc:Work>
    <dc:type rdf:resource="http://purl.org/dc/dcmitype/StillImage"/>
    <dc:date>2022-06-19T21:02:47.255338</dc:date>
    <dc:format>image/svg+xml</dc:format>
    <dc:creator>
     <cc:Agent>
      <dc:title>Matplotlib v3.5.1, https://matplotlib.org/</dc:title>
     </cc:Agent>
    </dc:creator>
   </cc:Work>
  </rdf:RDF>
 </metadata>
 <defs>
  <style type="text/css">*{stroke-linejoin: round; stroke-linecap: butt}</style>
 </defs>
 <g id="figure_1">
  <g id="patch_1">
   <path d="M 0 345.6 
L 460.8 345.6 
L 460.8 0 
L 0 0 
z
" style="fill: #ffffff"/>
  </g>
  <g id="axes_1">
   <g id="patch_2">
    <path d="M 57.6 298.944 
L 360.8064 298.944 
L 360.8064 6.912 
L 57.6 6.912 
z
" style="fill: #ffffff"/>
   </g>
   <g id="line2d_1">
    <path d="M 63.011746 298.944 
L 63.011746 297.685241 
L 73.538988 297.685241 
L 73.538988 296.426483 
L 78.266603 296.426483 
L 78.266603 293.908966 
L 80.248597 293.908966 
L 80.248597 292.650207 
L 86.578163 292.650207 
L 86.578163 290.13269 
L 92.322865 290.13269 
L 92.322865 287.615172 
L 93.287772 287.615172 
L 93.287772 285.097655 
L 95.080704 285.097655 
L 95.080704 283.838897 
L 98.933205 283.838897 
L 98.933205 281.321379 
L 104.860369 281.321379 
L 104.860369 276.286345 
L 112.317555 276.286345 
L 112.317555 273.768828 
L 117.6436 273.768828 
L 117.6436 272.510069 
L 120.28394 272.510069 
L 120.28394 271.25131 
L 125.526971 271.25131 
L 125.526971 269.992552 
L 128.060076 269.992552 
L 128.060076 268.733793 
L 134.931919 268.733793 
L 134.931919 264.957517 
L 142.108542 264.957517 
L 142.108542 261.181241 
L 142.865233 261.181241 
L 142.865233 257.404966 
L 147.076389 257.404966 
L 147.076389 254.887448 
L 148.073609 254.887448 
L 148.073609 251.111172 
L 155.598521 251.111172 
L 155.598521 248.593655 
L 159.345393 248.593655 
L 159.345393 246.076138 
L 168.098945 246.076138 
L 168.098945 244.817379 
L 169.094679 244.817379 
L 169.094679 242.299862 
L 169.508137 242.299862 
L 169.508137 241.041103 
L 174.367966 241.041103 
L 174.367966 239.782345 
L 177.747115 239.782345 
L 177.747115 237.264828 
L 178.47192 237.264828 
L 178.47192 234.74731 
L 178.963164 234.74731 
L 178.963164 233.488552 
L 183.347923 233.488552 
L 183.347923 230.971034 
L 188.283402 230.971034 
L 188.283402 228.453517 
L 190.010445 228.453517 
L 190.010445 224.677241 
L 193.513393 224.677241 
L 193.513393 220.900966 
L 195.017716 220.900966 
L 195.017716 217.12469 
L 198.834746 217.12469 
L 198.834746 214.607172 
L 199.629766 214.607172 
L 199.629766 212.089655 
L 203.883434 212.089655 
L 203.883434 209.572138 
L 205.372559 209.572138 
L 205.372559 207.054621 
L 208.739818 207.054621 
L 208.739818 203.278345 
L 215.149924 203.278345 
L 215.149924 200.760828 
L 216.584131 200.760828 
L 216.584131 198.24331 
L 217.578013 198.24331 
L 217.578013 196.984552 
L 219.952394 196.984552 
L 219.952394 194.467034 
L 224.64277 194.467034 
L 224.64277 191.949517 
L 227.906563 191.949517 
L 227.906563 189.432 
L 229.551512 189.432 
L 229.551512 186.914483 
L 230.021543 186.914483 
L 230.021543 185.655724 
L 230.816227 185.655724 
L 230.857664 180.62069 
L 232.673104 180.62069 
L 232.673104 178.103172 
L 243.581893 178.103172 
L 243.581893 176.844414 
L 246.977654 176.844414 
L 246.977654 174.326897 
L 248.654672 174.326897 
L 248.654672 170.550621 
L 252.954633 170.550621 
L 252.962382 165.515586 
L 255.159505 165.515586 
L 255.159505 161.73931 
L 256.734562 161.73931 
L 256.734562 160.480552 
L 258.261368 160.480552 
L 258.261368 159.221793 
L 261.950565 159.221793 
L 261.950565 157.963034 
L 263.396934 157.963034 
L 263.396934 154.186759 
L 263.858215 154.186759 
L 263.858215 150.410483 
L 266.151916 150.410483 
L 266.151916 146.634207 
L 267.032247 146.634207 
L 267.032247 142.857931 
L 269.562494 142.857931 
L 269.562494 140.340414 
L 273.82051 140.340414 
L 273.82051 137.822897 
L 273.979082 137.822897 
L 273.979082 135.305379 
L 276.578697 135.305379 
L 276.578697 134.046621 
L 277.30297 134.046621 
L 277.30297 132.787862 
L 278.126252 132.787862 
L 278.126252 130.270345 
L 280.72177 130.270345 
L 280.72177 126.494069 
L 281.15431 126.494069 
L 281.15431 125.23531 
L 283.34339 125.23531 
L 283.34339 123.976552 
L 286.354301 123.976552 
L 286.354301 120.200276 
L 287.947309 120.200276 
L 287.947309 118.941517 
L 288.902609 118.941517 
L 288.902609 115.165241 
L 292.441516 115.165241 
L 292.441516 111.388966 
L 293.555128 111.388966 
L 293.555128 107.61269 
L 294.411408 107.61269 
L 294.411408 106.353931 
L 296.768852 106.353931 
L 296.768852 102.577655 
L 297.171056 102.577655 
L 297.171056 101.318897 
L 298.966091 101.318897 
L 298.966091 97.542621 
L 301.05322 97.542621 
L 301.05322 95.025103 
L 302.482944 95.025103 
L 302.482944 92.507586 
L 303.238531 92.507586 
L 303.238531 91.248828 
L 303.388831 91.248828 
L 303.388831 88.73131 
L 303.560322 88.73131 
L 303.560322 86.213793 
L 304.087395 86.213793 
L 304.087395 82.437517 
L 304.632351 82.437517 
L 304.632351 81.178759 
L 307.454399 81.178759 
L 307.454399 79.92 
L 307.675014 79.92 
L 307.675014 77.402483 
L 308.196183 77.402483 
L 308.197272 72.367448 
L 309.686534 72.367448 
L 309.686534 69.849931 
L 309.811761 69.849931 
L 309.811761 66.073655 
L 310.900221 66.073655 
L 310.900221 63.556138 
L 311.321071 63.556138 
L 311.321071 61.038621 
L 312.385971 61.038621 
L 312.385971 59.779862 
L 313.643643 59.779862 
L 313.643643 57.262345 
L 314.334401 57.262345 
L 314.334401 53.486069 
L 314.885975 53.486069 
L 314.885975 49.709793 
L 326.589695 49.709793 
L 326.589695 48.451034 
L 333.173516 48.451034 
L 333.173516 45.933517 
L 347.128805 45.933517 
L 347.128805 42.157241 
L 360.8064 42.157241 
L 360.8064 42.157241 
" style="fill: none; stroke: #f5deb3; stroke-width: 4; stroke-linecap: square"/>
   </g>
   <g id="line2d_2">
    <defs>
     <path id="m8a2f6562c3" d="M 0 7.778175 
L 7.778175 0 
L 0 -7.778175 
L -7.778175 0 
z
" style="stroke: #f5deb3; stroke-width: 1.5; stroke-linejoin: miter"/>
    </defs>
    <g>
     <use xlink:href="#m8a2f6562c3" x="205.372559" y="207.054621" style="fill: #f5deb3; stroke: #f5deb3; stroke-width: 1.5; stroke-linejoin: miter"/>
     <use xlink:href="#m8a2f6562c3" x="273.82051" y="137.822897" style="fill: #f5deb3; stroke: #f5deb3; stroke-width: 1.5; stroke-linejoin: miter"/>
     <use xlink:href="#m8a2f6562c3" x="347.128805" y="42.157241" style="fill: #f5deb3; stroke: #f5deb3; stroke-width: 1.5; stroke-linejoin: miter"/>
     <use xlink:href="#m8a2f6562c3" x="347.128805" y="42.157241" style="fill: #f5deb3; stroke: #f5deb3; stroke-width: 1.5; stroke-linejoin: miter"/>
     <use xlink:href="#m8a2f6562c3" x="360.8064" y="42.157241" style="fill: #f5deb3; stroke: #f5deb3; stroke-width: 1.5; stroke-linejoin: miter"/>
    </g>
   </g>
   <g id="line2d_3">
    <path style="fill: none; stroke: #f5deb3; stroke-width: 4; stroke-linecap: square"/>
    <g/>
   </g>
   <g id="line2d_4">
    <path d="M 360.8064 42.157241 
L 380.514816 12.75264 
" style="fill: none; stroke: #f5deb3; stroke-width: 4; stroke-linecap: square"/>
    <g>
     <use xlink:href="#m8a2f6562c3" x="360.8064" y="42.157241" style="fill: #f5deb3; stroke: #f5deb3; stroke-width: 1.5; stroke-linejoin: miter"/>
     <use xlink:href="#m8a2f6562c3" x="380.514816" y="12.75264" style="fill: #f5deb3; stroke: #f5deb3; stroke-width: 1.5; stroke-linejoin: miter"/>
    </g>
   </g>
   <g id="matplotlib.axis_1">
    <g id="xtick_1">
     <g id="line2d_5">
      <path d="M 57.6 298.944 
L 57.6 6.912 
" clip-path="url(#p55ac472934)" style="fill: none; stroke: #b0b0b0; stroke-width: 0.8; stroke-linecap: square"/>
     </g>
     <g id="line2d_6">
      <defs>
       <path id="me252d11f36" d="M 0 0 
L 0 3.5 
" style="stroke: #000000; stroke-width: 0.8"/>
      </defs>
      <g>
       <use xlink:href="#me252d11f36" x="57.6" y="298.944" style="stroke: #000000; stroke-width: 0.8"/>
      </g>
     </g>
     <g id="text_1">
      <!-- 0 -->
      <g transform="translate(52.191875 318.861344)scale(0.17 -0.17)">
       <defs>
        <path id="DejaVuSans-30" d="M 2034 4250 
Q 1547 4250 1301 3770 
Q 1056 3291 1056 2328 
Q 1056 1369 1301 889 
Q 1547 409 2034 409 
Q 2525 409 2770 889 
Q 3016 1369 3016 2328 
Q 3016 3291 2770 3770 
Q 2525 4250 2034 4250 
z
M 2034 4750 
Q 2819 4750 3233 4129 
Q 3647 3509 3647 2328 
Q 3647 1150 3233 529 
Q 2819 -91 2034 -91 
Q 1250 -91 836 529 
Q 422 1150 422 2328 
Q 422 3509 836 4129 
Q 1250 4750 2034 4750 
z
" transform="scale(0.015625)"/>
       </defs>
       <use xlink:href="#DejaVuSans-30"/>
      </g>
     </g>
    </g>
    <g id="xtick_2">
     <g id="line2d_7">
      <path d="M 144.2304 298.944 
L 144.2304 6.912 
" clip-path="url(#p55ac472934)" style="fill: none; stroke: #b0b0b0; stroke-width: 0.8; stroke-linecap: square"/>
     </g>
     <g id="line2d_8">
      <g>
       <use xlink:href="#me252d11f36" x="144.2304" y="298.944" style="stroke: #000000; stroke-width: 0.8"/>
      </g>
     </g>
     <g id="text_2">
      <!-- 2 -->
      <g transform="translate(138.822275 318.861344)scale(0.17 -0.17)">
       <defs>
        <path id="DejaVuSans-32" d="M 1228 531 
L 3431 531 
L 3431 0 
L 469 0 
L 469 531 
Q 828 903 1448 1529 
Q 2069 2156 2228 2338 
Q 2531 2678 2651 2914 
Q 2772 3150 2772 3378 
Q 2772 3750 2511 3984 
Q 2250 4219 1831 4219 
Q 1534 4219 1204 4116 
Q 875 4013 500 3803 
L 500 4441 
Q 881 4594 1212 4672 
Q 1544 4750 1819 4750 
Q 2544 4750 2975 4387 
Q 3406 4025 3406 3419 
Q 3406 3131 3298 2873 
Q 3191 2616 2906 2266 
Q 2828 2175 2409 1742 
Q 1991 1309 1228 531 
z
" transform="scale(0.015625)"/>
       </defs>
       <use xlink:href="#DejaVuSans-32"/>
      </g>
     </g>
    </g>
    <g id="xtick_3">
     <g id="line2d_9">
      <path d="M 230.8608 298.944 
L 230.8608 6.912 
" clip-path="url(#p55ac472934)" style="fill: none; stroke: #b0b0b0; stroke-width: 0.8; stroke-linecap: square"/>
     </g>
     <g id="line2d_10">
      <g>
       <use xlink:href="#me252d11f36" x="230.8608" y="298.944" style="stroke: #000000; stroke-width: 0.8"/>
      </g>
     </g>
     <g id="text_3">
      <!-- 4 -->
      <g transform="translate(225.452675 318.861344)scale(0.17 -0.17)">
       <defs>
        <path id="DejaVuSans-34" d="M 2419 4116 
L 825 1625 
L 2419 1625 
L 2419 4116 
z
M 2253 4666 
L 3047 4666 
L 3047 1625 
L 3713 1625 
L 3713 1100 
L 3047 1100 
L 3047 0 
L 2419 0 
L 2419 1100 
L 313 1100 
L 313 1709 
L 2253 4666 
z
" transform="scale(0.015625)"/>
       </defs>
       <use xlink:href="#DejaVuSans-34"/>
      </g>
     </g>
    </g>
    <g id="xtick_4">
     <g id="line2d_11">
      <path d="M 317.4912 298.944 
L 317.4912 6.912 
" clip-path="url(#p55ac472934)" style="fill: none; stroke: #b0b0b0; stroke-width: 0.8; stroke-linecap: square"/>
     </g>
     <g id="line2d_12">
      <g>
       <use xlink:href="#me252d11f36" x="317.4912" y="298.944" style="stroke: #000000; stroke-width: 0.8"/>
      </g>
     </g>
     <g id="text_4">
      <!-- 6 -->
      <g transform="translate(312.083075 318.861344)scale(0.17 -0.17)">
       <defs>
        <path id="DejaVuSans-36" d="M 2113 2584 
Q 1688 2584 1439 2293 
Q 1191 2003 1191 1497 
Q 1191 994 1439 701 
Q 1688 409 2113 409 
Q 2538 409 2786 701 
Q 3034 994 3034 1497 
Q 3034 2003 2786 2293 
Q 2538 2584 2113 2584 
z
M 3366 4563 
L 3366 3988 
Q 3128 4100 2886 4159 
Q 2644 4219 2406 4219 
Q 1781 4219 1451 3797 
Q 1122 3375 1075 2522 
Q 1259 2794 1537 2939 
Q 1816 3084 2150 3084 
Q 2853 3084 3261 2657 
Q 3669 2231 3669 1497 
Q 3669 778 3244 343 
Q 2819 -91 2113 -91 
Q 1303 -91 875 529 
Q 447 1150 447 2328 
Q 447 3434 972 4092 
Q 1497 4750 2381 4750 
Q 2619 4750 2861 4703 
Q 3103 4656 3366 4563 
z
" transform="scale(0.015625)"/>
       </defs>
       <use xlink:href="#DejaVuSans-36"/>
      </g>
     </g>
    </g>
    <g id="xtick_5">
     <g id="line2d_13">
      <path d="M 100.9152 298.944 
L 100.9152 6.912 
" clip-path="url(#p55ac472934)" style="fill: none; stroke: #b0b0b0; stroke-width: 0.8; stroke-linecap: square"/>
     </g>
     <g id="line2d_14">
      <defs>
       <path id="m7fd91677b9" d="M 0 0 
L 0 2 
" style="stroke: #000000; stroke-width: 0.6"/>
      </defs>
      <g>
       <use xlink:href="#m7fd91677b9" x="100.9152" y="298.944" style="stroke: #000000; stroke-width: 0.6"/>
      </g>
     </g>
    </g>
    <g id="xtick_6">
     <g id="line2d_15">
      <path d="M 187.5456 298.944 
L 187.5456 6.912 
" clip-path="url(#p55ac472934)" style="fill: none; stroke: #b0b0b0; stroke-width: 0.8; stroke-linecap: square"/>
     </g>
     <g id="line2d_16">
      <g>
       <use xlink:href="#m7fd91677b9" x="187.5456" y="298.944" style="stroke: #000000; stroke-width: 0.6"/>
      </g>
     </g>
    </g>
    <g id="xtick_7">
     <g id="line2d_17">
      <path d="M 274.176 298.944 
L 274.176 6.912 
" clip-path="url(#p55ac472934)" style="fill: none; stroke: #b0b0b0; stroke-width: 0.8; stroke-linecap: square"/>
     </g>
     <g id="line2d_18">
      <g>
       <use xlink:href="#m7fd91677b9" x="274.176" y="298.944" style="stroke: #000000; stroke-width: 0.6"/>
      </g>
     </g>
    </g>
    <g id="xtick_8">
     <g id="line2d_19">
      <path d="M 360.8064 298.944 
L 360.8064 6.912 
" clip-path="url(#p55ac472934)" style="fill: none; stroke: #b0b0b0; stroke-width: 0.8; stroke-linecap: square"/>
     </g>
     <g id="line2d_20">
      <g>
       <use xlink:href="#m7fd91677b9" x="360.8064" y="298.944" style="stroke: #000000; stroke-width: 0.6"/>
      </g>
     </g>
    </g>
    <g id="text_5">
     <!-- log10(# f-evals / dimension) -->
     <g transform="translate(88.823278 339.314156)scale(0.17 -0.17)">
      <defs>
       <path id="DejaVuSans-6c" d="M 603 4863 
L 1178 4863 
L 1178 0 
L 603 0 
L 603 4863 
z
" transform="scale(0.015625)"/>
       <path id="DejaVuSans-6f" d="M 1959 3097 
Q 1497 3097 1228 2736 
Q 959 2375 959 1747 
Q 959 1119 1226 758 
Q 1494 397 1959 397 
Q 2419 397 2687 759 
Q 2956 1122 2956 1747 
Q 2956 2369 2687 2733 
Q 2419 3097 1959 3097 
z
M 1959 3584 
Q 2709 3584 3137 3096 
Q 3566 2609 3566 1747 
Q 3566 888 3137 398 
Q 2709 -91 1959 -91 
Q 1206 -91 779 398 
Q 353 888 353 1747 
Q 353 2609 779 3096 
Q 1206 3584 1959 3584 
z
" transform="scale(0.015625)"/>
       <path id="DejaVuSans-67" d="M 2906 1791 
Q 2906 2416 2648 2759 
Q 2391 3103 1925 3103 
Q 1463 3103 1205 2759 
Q 947 2416 947 1791 
Q 947 1169 1205 825 
Q 1463 481 1925 481 
Q 2391 481 2648 825 
Q 2906 1169 2906 1791 
z
M 3481 434 
Q 3481 -459 3084 -895 
Q 2688 -1331 1869 -1331 
Q 1566 -1331 1297 -1286 
Q 1028 -1241 775 -1147 
L 775 -588 
Q 1028 -725 1275 -790 
Q 1522 -856 1778 -856 
Q 2344 -856 2625 -561 
Q 2906 -266 2906 331 
L 2906 616 
Q 2728 306 2450 153 
Q 2172 0 1784 0 
Q 1141 0 747 490 
Q 353 981 353 1791 
Q 353 2603 747 3093 
Q 1141 3584 1784 3584 
Q 2172 3584 2450 3431 
Q 2728 3278 2906 2969 
L 2906 3500 
L 3481 3500 
L 3481 434 
z
" transform="scale(0.015625)"/>
       <path id="DejaVuSans-31" d="M 794 531 
L 1825 531 
L 1825 4091 
L 703 3866 
L 703 4441 
L 1819 4666 
L 2450 4666 
L 2450 531 
L 3481 531 
L 3481 0 
L 794 0 
L 794 531 
z
" transform="scale(0.015625)"/>
       <path id="DejaVuSans-28" d="M 1984 4856 
Q 1566 4138 1362 3434 
Q 1159 2731 1159 2009 
Q 1159 1288 1364 580 
Q 1569 -128 1984 -844 
L 1484 -844 
Q 1016 -109 783 600 
Q 550 1309 550 2009 
Q 550 2706 781 3412 
Q 1013 4119 1484 4856 
L 1984 4856 
z
" transform="scale(0.015625)"/>
       <path id="DejaVuSans-23" d="M 3272 2816 
L 2363 2816 
L 2100 1772 
L 3016 1772 
L 3272 2816 
z
M 2803 4594 
L 2478 3297 
L 3391 3297 
L 3719 4594 
L 4219 4594 
L 3897 3297 
L 4872 3297 
L 4872 2816 
L 3775 2816 
L 3519 1772 
L 4513 1772 
L 4513 1294 
L 3397 1294 
L 3072 0 
L 2572 0 
L 2894 1294 
L 1978 1294 
L 1656 0 
L 1153 0 
L 1478 1294 
L 494 1294 
L 494 1772 
L 1594 1772 
L 1856 2816 
L 850 2816 
L 850 3297 
L 1978 3297 
L 2297 4594 
L 2803 4594 
z
" transform="scale(0.015625)"/>
       <path id="DejaVuSans-20" transform="scale(0.015625)"/>
       <path id="DejaVuSans-66" d="M 2375 4863 
L 2375 4384 
L 1825 4384 
Q 1516 4384 1395 4259 
Q 1275 4134 1275 3809 
L 1275 3500 
L 2222 3500 
L 2222 3053 
L 1275 3053 
L 1275 0 
L 697 0 
L 697 3053 
L 147 3053 
L 147 3500 
L 697 3500 
L 697 3744 
Q 697 4328 969 4595 
Q 1241 4863 1831 4863 
L 2375 4863 
z
" transform="scale(0.015625)"/>
       <path id="DejaVuSans-2d" d="M 313 2009 
L 1997 2009 
L 1997 1497 
L 313 1497 
L 313 2009 
z
" transform="scale(0.015625)"/>
       <path id="DejaVuSans-65" d="M 3597 1894 
L 3597 1613 
L 953 1613 
Q 991 1019 1311 708 
Q 1631 397 2203 397 
Q 2534 397 2845 478 
Q 3156 559 3463 722 
L 3463 178 
Q 3153 47 2828 -22 
Q 2503 -91 2169 -91 
Q 1331 -91 842 396 
Q 353 884 353 1716 
Q 353 2575 817 3079 
Q 1281 3584 2069 3584 
Q 2775 3584 3186 3129 
Q 3597 2675 3597 1894 
z
M 3022 2063 
Q 3016 2534 2758 2815 
Q 2500 3097 2075 3097 
Q 1594 3097 1305 2825 
Q 1016 2553 972 2059 
L 3022 2063 
z
" transform="scale(0.015625)"/>
       <path id="DejaVuSans-76" d="M 191 3500 
L 800 3500 
L 1894 563 
L 2988 3500 
L 3597 3500 
L 2284 0 
L 1503 0 
L 191 3500 
z
" transform="scale(0.015625)"/>
       <path id="DejaVuSans-61" d="M 2194 1759 
Q 1497 1759 1228 1600 
Q 959 1441 959 1056 
Q 959 750 1161 570 
Q 1363 391 1709 391 
Q 2188 391 2477 730 
Q 2766 1069 2766 1631 
L 2766 1759 
L 2194 1759 
z
M 3341 1997 
L 3341 0 
L 2766 0 
L 2766 531 
Q 2569 213 2275 61 
Q 1981 -91 1556 -91 
Q 1019 -91 701 211 
Q 384 513 384 1019 
Q 384 1609 779 1909 
Q 1175 2209 1959 2209 
L 2766 2209 
L 2766 2266 
Q 2766 2663 2505 2880 
Q 2244 3097 1772 3097 
Q 1472 3097 1187 3025 
Q 903 2953 641 2809 
L 641 3341 
Q 956 3463 1253 3523 
Q 1550 3584 1831 3584 
Q 2591 3584 2966 3190 
Q 3341 2797 3341 1997 
z
" transform="scale(0.015625)"/>
       <path id="DejaVuSans-73" d="M 2834 3397 
L 2834 2853 
Q 2591 2978 2328 3040 
Q 2066 3103 1784 3103 
Q 1356 3103 1142 2972 
Q 928 2841 928 2578 
Q 928 2378 1081 2264 
Q 1234 2150 1697 2047 
L 1894 2003 
Q 2506 1872 2764 1633 
Q 3022 1394 3022 966 
Q 3022 478 2636 193 
Q 2250 -91 1575 -91 
Q 1294 -91 989 -36 
Q 684 19 347 128 
L 347 722 
Q 666 556 975 473 
Q 1284 391 1588 391 
Q 1994 391 2212 530 
Q 2431 669 2431 922 
Q 2431 1156 2273 1281 
Q 2116 1406 1581 1522 
L 1381 1569 
Q 847 1681 609 1914 
Q 372 2147 372 2553 
Q 372 3047 722 3315 
Q 1072 3584 1716 3584 
Q 2034 3584 2315 3537 
Q 2597 3491 2834 3397 
z
" transform="scale(0.015625)"/>
       <path id="DejaVuSans-2f" d="M 1625 4666 
L 2156 4666 
L 531 -594 
L 0 -594 
L 1625 4666 
z
" transform="scale(0.015625)"/>
       <path id="DejaVuSans-64" d="M 2906 2969 
L 2906 4863 
L 3481 4863 
L 3481 0 
L 2906 0 
L 2906 525 
Q 2725 213 2448 61 
Q 2172 -91 1784 -91 
Q 1150 -91 751 415 
Q 353 922 353 1747 
Q 353 2572 751 3078 
Q 1150 3584 1784 3584 
Q 2172 3584 2448 3432 
Q 2725 3281 2906 2969 
z
M 947 1747 
Q 947 1113 1208 752 
Q 1469 391 1925 391 
Q 2381 391 2643 752 
Q 2906 1113 2906 1747 
Q 2906 2381 2643 2742 
Q 2381 3103 1925 3103 
Q 1469 3103 1208 2742 
Q 947 2381 947 1747 
z
" transform="scale(0.015625)"/>
       <path id="DejaVuSans-69" d="M 603 3500 
L 1178 3500 
L 1178 0 
L 603 0 
L 603 3500 
z
M 603 4863 
L 1178 4863 
L 1178 4134 
L 603 4134 
L 603 4863 
z
" transform="scale(0.015625)"/>
       <path id="DejaVuSans-6d" d="M 3328 2828 
Q 3544 3216 3844 3400 
Q 4144 3584 4550 3584 
Q 5097 3584 5394 3201 
Q 5691 2819 5691 2113 
L 5691 0 
L 5113 0 
L 5113 2094 
Q 5113 2597 4934 2840 
Q 4756 3084 4391 3084 
Q 3944 3084 3684 2787 
Q 3425 2491 3425 1978 
L 3425 0 
L 2847 0 
L 2847 2094 
Q 2847 2600 2669 2842 
Q 2491 3084 2119 3084 
Q 1678 3084 1418 2786 
Q 1159 2488 1159 1978 
L 1159 0 
L 581 0 
L 581 3500 
L 1159 3500 
L 1159 2956 
Q 1356 3278 1631 3431 
Q 1906 3584 2284 3584 
Q 2666 3584 2933 3390 
Q 3200 3197 3328 2828 
z
" transform="scale(0.015625)"/>
       <path id="DejaVuSans-6e" d="M 3513 2113 
L 3513 0 
L 2938 0 
L 2938 2094 
Q 2938 2591 2744 2837 
Q 2550 3084 2163 3084 
Q 1697 3084 1428 2787 
Q 1159 2491 1159 1978 
L 1159 0 
L 581 0 
L 581 3500 
L 1159 3500 
L 1159 2956 
Q 1366 3272 1645 3428 
Q 1925 3584 2291 3584 
Q 2894 3584 3203 3211 
Q 3513 2838 3513 2113 
z
" transform="scale(0.015625)"/>
       <path id="DejaVuSans-29" d="M 513 4856 
L 1013 4856 
Q 1481 4119 1714 3412 
Q 1947 2706 1947 2009 
Q 1947 1309 1714 600 
Q 1481 -109 1013 -844 
L 513 -844 
Q 928 -128 1133 580 
Q 1338 1288 1338 2009 
Q 1338 2731 1133 3434 
Q 928 4138 513 4856 
z
" transform="scale(0.015625)"/>
      </defs>
      <use xlink:href="#DejaVuSans-6c"/>
      <use xlink:href="#DejaVuSans-6f" x="27.783203"/>
      <use xlink:href="#DejaVuSans-67" x="88.964844"/>
      <use xlink:href="#DejaVuSans-31" x="152.441406"/>
      <use xlink:href="#DejaVuSans-30" x="216.064453"/>
      <use xlink:href="#DejaVuSans-28" x="279.6875"/>
      <use xlink:href="#DejaVuSans-23" x="318.701172"/>
      <use xlink:href="#DejaVuSans-20" x="402.490234"/>
      <use xlink:href="#DejaVuSans-66" x="434.277344"/>
      <use xlink:href="#DejaVuSans-2d" x="463.982422"/>
      <use xlink:href="#DejaVuSans-65" x="500.066406"/>
      <use xlink:href="#DejaVuSans-76" x="561.589844"/>
      <use xlink:href="#DejaVuSans-61" x="620.769531"/>
      <use xlink:href="#DejaVuSans-6c" x="682.048828"/>
      <use xlink:href="#DejaVuSans-73" x="709.832031"/>
      <use xlink:href="#DejaVuSans-20" x="761.931641"/>
      <use xlink:href="#DejaVuSans-2f" x="793.71875"/>
      <use xlink:href="#DejaVuSans-20" x="827.410156"/>
      <use xlink:href="#DejaVuSans-64" x="859.197266"/>
      <use xlink:href="#DejaVuSans-69" x="922.673828"/>
      <use xlink:href="#DejaVuSans-6d" x="950.457031"/>
      <use xlink:href="#DejaVuSans-65" x="1047.869141"/>
      <use xlink:href="#DejaVuSans-6e" x="1109.392578"/>
      <use xlink:href="#DejaVuSans-73" x="1172.771484"/>
      <use xlink:href="#DejaVuSans-69" x="1224.871094"/>
      <use xlink:href="#DejaVuSans-6f" x="1252.654297"/>
      <use xlink:href="#DejaVuSans-6e" x="1313.835938"/>
      <use xlink:href="#DejaVuSans-29" x="1377.214844"/>
     </g>
    </g>
   </g>
   <g id="matplotlib.axis_2">
    <g id="ytick_1">
     <g id="line2d_21">
      <path d="M 57.6 298.944 
L 360.8064 298.944 
" clip-path="url(#p55ac472934)" style="fill: none; stroke: #b0b0b0; stroke-width: 0.8; stroke-linecap: square"/>
     </g>
     <g id="line2d_22">
      <defs>
       <path id="mf5b2b46018" d="M 0 0 
L -3.5 0 
" style="stroke: #000000; stroke-width: 0.8"/>
      </defs>
      <g>
       <use xlink:href="#mf5b2b46018" x="57.6" y="298.944" style="stroke: #000000; stroke-width: 0.8"/>
      </g>
     </g>
     <g id="text_6">
      <!-- 0.0 -->
      <g transform="translate(25.155 305.02275)scale(0.16 -0.16)">
       <defs>
        <path id="DejaVuSans-2e" d="M 684 794 
L 1344 794 
L 1344 0 
L 684 0 
L 684 794 
z
" transform="scale(0.015625)"/>
       </defs>
       <use xlink:href="#DejaVuSans-30"/>
       <use xlink:href="#DejaVuSans-2e" x="63.623047"/>
       <use xlink:href="#DejaVuSans-30" x="95.410156"/>
      </g>
     </g>
    </g>
    <g id="ytick_2">
     <g id="line2d_23">
      <path d="M 57.6 240.5376 
L 360.8064 240.5376 
" clip-path="url(#p55ac472934)" style="fill: none; stroke: #b0b0b0; stroke-width: 0.8; stroke-linecap: square"/>
     </g>
     <g id="line2d_24">
      <g>
       <use xlink:href="#mf5b2b46018" x="57.6" y="240.5376" style="stroke: #000000; stroke-width: 0.8"/>
      </g>
     </g>
     <g id="text_7">
      <!-- 0.2 -->
      <g transform="translate(25.155 246.61635)scale(0.16 -0.16)">
       <use xlink:href="#DejaVuSans-30"/>
       <use xlink:href="#DejaVuSans-2e" x="63.623047"/>
       <use xlink:href="#DejaVuSans-32" x="95.410156"/>
      </g>
     </g>
    </g>
    <g id="ytick_3">
     <g id="line2d_25">
      <path d="M 57.6 182.1312 
L 360.8064 182.1312 
" clip-path="url(#p55ac472934)" style="fill: none; stroke: #b0b0b0; stroke-width: 0.8; stroke-linecap: square"/>
     </g>
     <g id="line2d_26">
      <g>
       <use xlink:href="#mf5b2b46018" x="57.6" y="182.1312" style="stroke: #000000; stroke-width: 0.8"/>
      </g>
     </g>
     <g id="text_8">
      <!-- 0.4 -->
      <g transform="translate(25.155 188.20995)scale(0.16 -0.16)">
       <use xlink:href="#DejaVuSans-30"/>
       <use xlink:href="#DejaVuSans-2e" x="63.623047"/>
       <use xlink:href="#DejaVuSans-34" x="95.410156"/>
      </g>
     </g>
    </g>
    <g id="ytick_4">
     <g id="line2d_27">
      <path d="M 57.6 123.7248 
L 360.8064 123.7248 
" clip-path="url(#p55ac472934)" style="fill: none; stroke: #b0b0b0; stroke-width: 0.8; stroke-linecap: square"/>
     </g>
     <g id="line2d_28">
      <g>
       <use xlink:href="#mf5b2b46018" x="57.6" y="123.7248" style="stroke: #000000; stroke-width: 0.8"/>
      </g>
     </g>
     <g id="text_9">
      <!-- 0.6 -->
      <g transform="translate(25.155 129.80355)scale(0.16 -0.16)">
       <use xlink:href="#DejaVuSans-30"/>
       <use xlink:href="#DejaVuSans-2e" x="63.623047"/>
       <use xlink:href="#DejaVuSans-36" x="95.410156"/>
      </g>
     </g>
    </g>
    <g id="ytick_5">
     <g id="line2d_29">
      <path d="M 57.6 65.3184 
L 360.8064 65.3184 
" clip-path="url(#p55ac472934)" style="fill: none; stroke: #b0b0b0; stroke-width: 0.8; stroke-linecap: square"/>
     </g>
     <g id="line2d_30">
      <g>
       <use xlink:href="#mf5b2b46018" x="57.6" y="65.3184" style="stroke: #000000; stroke-width: 0.8"/>
      </g>
     </g>
     <g id="text_10">
      <!-- 0.8 -->
      <g transform="translate(25.155 71.39715)scale(0.16 -0.16)">
       <defs>
        <path id="DejaVuSans-38" d="M 2034 2216 
Q 1584 2216 1326 1975 
Q 1069 1734 1069 1313 
Q 1069 891 1326 650 
Q 1584 409 2034 409 
Q 2484 409 2743 651 
Q 3003 894 3003 1313 
Q 3003 1734 2745 1975 
Q 2488 2216 2034 2216 
z
M 1403 2484 
Q 997 2584 770 2862 
Q 544 3141 544 3541 
Q 544 4100 942 4425 
Q 1341 4750 2034 4750 
Q 2731 4750 3128 4425 
Q 3525 4100 3525 3541 
Q 3525 3141 3298 2862 
Q 3072 2584 2669 2484 
Q 3125 2378 3379 2068 
Q 3634 1759 3634 1313 
Q 3634 634 3220 271 
Q 2806 -91 2034 -91 
Q 1263 -91 848 271 
Q 434 634 434 1313 
Q 434 1759 690 2068 
Q 947 2378 1403 2484 
z
M 1172 3481 
Q 1172 3119 1398 2916 
Q 1625 2713 2034 2713 
Q 2441 2713 2670 2916 
Q 2900 3119 2900 3481 
Q 2900 3844 2670 4047 
Q 2441 4250 2034 4250 
Q 1625 4250 1398 4047 
Q 1172 3844 1172 3481 
z
" transform="scale(0.015625)"/>
       </defs>
       <use xlink:href="#DejaVuSans-30"/>
       <use xlink:href="#DejaVuSans-2e" x="63.623047"/>
       <use xlink:href="#DejaVuSans-38" x="95.410156"/>
      </g>
     </g>
    </g>
    <g id="ytick_6">
     <g id="line2d_31">
      <path d="M 57.6 6.912 
L 360.8064 6.912 
" clip-path="url(#p55ac472934)" style="fill: none; stroke: #b0b0b0; stroke-width: 0.8; stroke-linecap: square"/>
     </g>
     <g id="line2d_32">
      <g>
       <use xlink:href="#mf5b2b46018" x="57.6" y="6.912" style="stroke: #000000; stroke-width: 0.8"/>
      </g>
     </g>
     <g id="text_11">
      <!-- 1.0 -->
      <g transform="translate(25.155 12.99075)scale(0.16 -0.16)">
       <use xlink:href="#DejaVuSans-31"/>
       <use xlink:href="#DejaVuSans-2e" x="63.623047"/>
       <use xlink:href="#DejaVuSans-30" x="95.410156"/>
      </g>
     </g>
    </g>
    <g id="text_12">
     <!-- Fraction of function,target pairs -->
     <g transform="translate(17.619531 287.313)rotate(-90)scale(0.17 -0.17)">
      <defs>
       <path id="DejaVuSans-46" d="M 628 4666 
L 3309 4666 
L 3309 4134 
L 1259 4134 
L 1259 2759 
L 3109 2759 
L 3109 2228 
L 1259 2228 
L 1259 0 
L 628 0 
L 628 4666 
z
" transform="scale(0.015625)"/>
       <path id="DejaVuSans-72" d="M 2631 2963 
Q 2534 3019 2420 3045 
Q 2306 3072 2169 3072 
Q 1681 3072 1420 2755 
Q 1159 2438 1159 1844 
L 1159 0 
L 581 0 
L 581 3500 
L 1159 3500 
L 1159 2956 
Q 1341 3275 1631 3429 
Q 1922 3584 2338 3584 
Q 2397 3584 2469 3576 
Q 2541 3569 2628 3553 
L 2631 2963 
z
" transform="scale(0.015625)"/>
       <path id="DejaVuSans-63" d="M 3122 3366 
L 3122 2828 
Q 2878 2963 2633 3030 
Q 2388 3097 2138 3097 
Q 1578 3097 1268 2742 
Q 959 2388 959 1747 
Q 959 1106 1268 751 
Q 1578 397 2138 397 
Q 2388 397 2633 464 
Q 2878 531 3122 666 
L 3122 134 
Q 2881 22 2623 -34 
Q 2366 -91 2075 -91 
Q 1284 -91 818 406 
Q 353 903 353 1747 
Q 353 2603 823 3093 
Q 1294 3584 2113 3584 
Q 2378 3584 2631 3529 
Q 2884 3475 3122 3366 
z
" transform="scale(0.015625)"/>
       <path id="DejaVuSans-74" d="M 1172 4494 
L 1172 3500 
L 2356 3500 
L 2356 3053 
L 1172 3053 
L 1172 1153 
Q 1172 725 1289 603 
Q 1406 481 1766 481 
L 2356 481 
L 2356 0 
L 1766 0 
Q 1100 0 847 248 
Q 594 497 594 1153 
L 594 3053 
L 172 3053 
L 172 3500 
L 594 3500 
L 594 4494 
L 1172 4494 
z
" transform="scale(0.015625)"/>
       <path id="DejaVuSans-75" d="M 544 1381 
L 544 3500 
L 1119 3500 
L 1119 1403 
Q 1119 906 1312 657 
Q 1506 409 1894 409 
Q 2359 409 2629 706 
Q 2900 1003 2900 1516 
L 2900 3500 
L 3475 3500 
L 3475 0 
L 2900 0 
L 2900 538 
Q 2691 219 2414 64 
Q 2138 -91 1772 -91 
Q 1169 -91 856 284 
Q 544 659 544 1381 
z
M 1991 3584 
L 1991 3584 
z
" transform="scale(0.015625)"/>
       <path id="DejaVuSans-2c" d="M 750 794 
L 1409 794 
L 1409 256 
L 897 -744 
L 494 -744 
L 750 256 
L 750 794 
z
" transform="scale(0.015625)"/>
       <path id="DejaVuSans-70" d="M 1159 525 
L 1159 -1331 
L 581 -1331 
L 581 3500 
L 1159 3500 
L 1159 2969 
Q 1341 3281 1617 3432 
Q 1894 3584 2278 3584 
Q 2916 3584 3314 3078 
Q 3713 2572 3713 1747 
Q 3713 922 3314 415 
Q 2916 -91 2278 -91 
Q 1894 -91 1617 61 
Q 1341 213 1159 525 
z
M 3116 1747 
Q 3116 2381 2855 2742 
Q 2594 3103 2138 3103 
Q 1681 3103 1420 2742 
Q 1159 2381 1159 1747 
Q 1159 1113 1420 752 
Q 1681 391 2138 391 
Q 2594 391 2855 752 
Q 3116 1113 3116 1747 
z
" transform="scale(0.015625)"/>
      </defs>
      <use xlink:href="#DejaVuSans-46"/>
      <use xlink:href="#DejaVuSans-72" x="50.269531"/>
      <use xlink:href="#DejaVuSans-61" x="91.382812"/>
      <use xlink:href="#DejaVuSans-63" x="152.662109"/>
      <use xlink:href="#DejaVuSans-74" x="207.642578"/>
      <use xlink:href="#DejaVuSans-69" x="246.851562"/>
      <use xlink:href="#DejaVuSans-6f" x="274.634766"/>
      <use xlink:href="#DejaVuSans-6e" x="335.816406"/>
      <use xlink:href="#DejaVuSans-20" x="399.195312"/>
      <use xlink:href="#DejaVuSans-6f" x="430.982422"/>
      <use xlink:href="#DejaVuSans-66" x="492.164062"/>
      <use xlink:href="#DejaVuSans-20" x="527.369141"/>
      <use xlink:href="#DejaVuSans-66" x="559.15625"/>
      <use xlink:href="#DejaVuSans-75" x="594.361328"/>
      <use xlink:href="#DejaVuSans-6e" x="657.740234"/>
      <use xlink:href="#DejaVuSans-63" x="721.119141"/>
      <use xlink:href="#DejaVuSans-74" x="776.099609"/>
      <use xlink:href="#DejaVuSans-69" x="815.308594"/>
      <use xlink:href="#DejaVuSans-6f" x="843.091797"/>
      <use xlink:href="#DejaVuSans-6e" x="904.273438"/>
      <use xlink:href="#DejaVuSans-2c" x="967.652344"/>
      <use xlink:href="#DejaVuSans-74" x="999.439453"/>
      <use xlink:href="#DejaVuSans-61" x="1038.648438"/>
      <use xlink:href="#DejaVuSans-72" x="1099.927734"/>
      <use xlink:href="#DejaVuSans-67" x="1139.291016"/>
      <use xlink:href="#DejaVuSans-65" x="1202.767578"/>
      <use xlink:href="#DejaVuSans-74" x="1264.291016"/>
      <use xlink:href="#DejaVuSans-20" x="1303.5"/>
      <use xlink:href="#DejaVuSans-70" x="1335.287109"/>
      <use xlink:href="#DejaVuSans-61" x="1398.763672"/>
      <use xlink:href="#DejaVuSans-69" x="1460.042969"/>
      <use xlink:href="#DejaVuSans-72" x="1487.826172"/>
      <use xlink:href="#DejaVuSans-73" x="1528.939453"/>
     </g>
    </g>
   </g>
   <g id="line2d_33">
    <defs>
     <path id="m48ccb21dd9" d="M 0 1.5 
C 0.397805 1.5 0.77937 1.341951 1.06066 1.06066 
C 1.341951 0.77937 1.5 0.397805 1.5 0 
C 1.5 -0.397805 1.341951 -0.77937 1.06066 -1.06066 
C 0.77937 -1.341951 0.397805 -1.5 0 -1.5 
C -0.397805 -1.5 -0.77937 -1.341951 -1.06066 -1.06066 
C -1.341951 -0.77937 -1.5 -0.397805 -1.5 0 
C -1.5 0.397805 -1.341951 0.77937 -1.06066 1.06066 
C -0.77937 1.341951 -0.397805 1.5 0 1.5 
z
" style="stroke: #f5deb3"/>
    </defs>
    <g>
     <use xlink:href="#m48ccb21dd9" x="347.128805" y="42.157241" style="fill: #f5deb3; stroke: #f5deb3"/>
     <use xlink:href="#m48ccb21dd9" x="347.128805" y="42.157241" style="fill: #f5deb3; stroke: #f5deb3"/>
    </g>
   </g>
   <g id="line2d_34">
    <defs>
     <path id="mc9e773b397" d="M 0 1.5 
C 0.397805 1.5 0.77937 1.341951 1.06066 1.06066 
C 1.341951 0.77937 1.5 0.397805 1.5 0 
C 1.5 -0.397805 1.341951 -0.77937 1.06066 -1.06066 
C 0.77937 -1.341951 0.397805 -1.5 0 -1.5 
C -0.397805 -1.5 -0.77937 -1.341951 -1.06066 -1.06066 
C -1.341951 -0.77937 -1.5 -0.397805 -1.5 0 
C -1.5 0.397805 -1.341951 0.77937 -1.06066 1.06066 
C -0.77937 1.341951 -0.397805 1.5 0 1.5 
z
" style="stroke: #000080"/>
    </defs>
    <g>
     <use xlink:href="#mc9e773b397" x="78.266603" y="282.706014" style="fill: #000080; stroke: #000080"/>
     <use xlink:href="#mc9e773b397" x="78.266603" y="282.706014" style="fill: #000080; stroke: #000080"/>
    </g>
   </g>
   <g id="line2d_35">
    <path d="M 36.933397 298.944 
L 36.933397 289.629186 
L 49.972572 289.629186 
L 49.972572 287.363421 
L 57.6 287.363421 
L 57.6 286.734041 
L 63.011746 286.734041 
L 63.011746 285.85291 
L 67.209423 285.85291 
L 67.209423 285.097655 
L 70.639174 285.097655 
L 70.639174 284.216524 
L 73.538988 284.216524 
L 73.538988 283.587145 
L 76.050921 283.587145 
L 76.050921 282.957766 
L 78.266603 282.957766 
L 78.266603 282.706014 
L 360.8064 282.706014 
" style="fill: none; stroke: #000080; stroke-width: 1.5; stroke-linecap: square"/>
   </g>
   <g id="line2d_36">
    <defs>
     <path id="m70a0218268" d="M 0 6 
C 1.591219 6 3.117479 5.367802 4.242641 4.242641 
C 5.367802 3.117479 6 1.591219 6 0 
C 6 -1.591219 5.367802 -3.117479 4.242641 -4.242641 
C 3.117479 -5.367802 1.591219 -6 0 -6 
C -1.591219 -6 -3.117479 -5.367802 -4.242641 -4.242641 
C -5.367802 -3.117479 -6 -1.591219 -6 0 
C -6 1.591219 -5.367802 3.117479 -4.242641 4.242641 
C -3.117479 5.367802 -1.591219 6 0 6 
z
" style="stroke: #000080; stroke-width: 1.5"/>
    </defs>
    <g>
     <use xlink:href="#m70a0218268" x="78.266603" y="282.957766" style="fill-opacity: 0; stroke: #000080; stroke-width: 1.5"/>
     <use xlink:href="#m70a0218268" x="78.266603" y="282.957766" style="fill-opacity: 0; stroke: #000080; stroke-width: 1.5"/>
     <use xlink:href="#m70a0218268" x="78.266603" y="282.706014" style="fill-opacity: 0; stroke: #000080; stroke-width: 1.5"/>
     <use xlink:href="#m70a0218268" x="78.266603" y="282.706014" style="fill-opacity: 0; stroke: #000080; stroke-width: 1.5"/>
     <use xlink:href="#m70a0218268" x="78.266603" y="282.706014" style="fill-opacity: 0; stroke: #000080; stroke-width: 1.5"/>
     <use xlink:href="#m70a0218268" x="360.8064" y="282.706014" style="fill-opacity: 0; stroke: #000080; stroke-width: 1.5"/>
    </g>
   </g>
   <g id="line2d_37">
    <path style="fill: none; stroke: #000080; stroke-width: 1.5; stroke-linecap: square"/>
    <g/>
   </g>
   <g id="line2d_38">
    <path d="M 78.266603 282.706014 
" clip-path="url(#p55ac472934)" style="fill: none; stroke: #000080; stroke-width: 1.5; stroke-linecap: square"/>
    <defs>
     <path id="m5221863f97" d="M -12 12 
L 12 -12 
M -12 -12 
L 12 12 
" style="stroke: #000080"/>
    </defs>
    <g clip-path="url(#p55ac472934)">
     <use xlink:href="#m5221863f97" x="78.266603" y="282.706014" style="fill: #000080; stroke: #000080"/>
    </g>
   </g>
   <g id="line2d_39">
    <defs>
     <path id="mdb54c556d1" d="M 0 1.5 
C 0.397805 1.5 0.77937 1.341951 1.06066 1.06066 
C 1.341951 0.77937 1.5 0.397805 1.5 0 
C 1.5 -0.397805 1.341951 -0.77937 1.06066 -1.06066 
C 0.77937 -1.341951 0.397805 -1.5 0 -1.5 
C -0.397805 -1.5 -0.77937 -1.341951 -1.06066 -1.06066 
C -1.341951 -0.77937 -1.5 -0.397805 -1.5 0 
C -1.5 0.397805 -1.341951 0.77937 -1.06066 1.06066 
C -0.77937 1.341951 -0.397805 1.5 0 1.5 
z
" style="stroke: #ff00ff"/>
    </defs>
    <g>
     <use xlink:href="#mdb54c556d1" x="274.062097" y="170.550621" style="fill: #ff00ff; stroke: #ff00ff"/>
     <use xlink:href="#mdb54c556d1" x="274.062097" y="170.550621" style="fill: #ff00ff; stroke: #ff00ff"/>
    </g>
   </g>
   <g id="line2d_40">
    <path d="M 36.933397 298.944 
L 36.933397 289.629186 
L 49.972572 289.629186 
L 49.972572 289.251559 
L 57.6 289.251559 
L 57.6 288.999807 
L 63.011746 288.999807 
L 63.011746 288.118676 
L 67.209423 288.118676 
L 67.209423 287.111669 
L 70.639174 287.111669 
L 70.639174 286.608166 
L 73.538988 286.608166 
L 73.538988 285.978786 
L 80.248597 285.978786 
L 80.248597 284.845903 
L 82.04153 284.845903 
L 82.04153 284.720028 
L 83.678349 284.720028 
L 83.678349 284.468276 
L 86.578163 284.468276 
L 86.578163 284.090648 
L 87.876026 284.090648 
L 87.876026 283.964772 
L 89.090095 283.964772 
L 89.090095 283.713021 
L 90.230539 283.713021 
L 90.230539 283.335393 
L 94.205591 283.335393 
L 94.205591 282.580138 
L 95.080704 282.580138 
L 95.080704 281.950759 
L 95.916911 281.950759 
L 95.916911 281.447255 
L 96.717523 281.447255 
L 96.717523 281.321379 
L 98.223251 281.321379 
L 98.223251 280.692 
L 98.933205 280.692 
L 98.933205 280.440248 
L 99.617337 280.440248 
L 99.617337 280.314372 
L 100.277459 280.314372 
L 100.277459 280.062621 
L 100.9152 280.062621 
L 100.9152 279.684993 
L 101.532027 279.684993 
L 101.532027 279.433241 
L 102.12927 279.433241 
L 102.12927 279.307366 
L 102.708132 279.307366 
L 102.708132 278.929738 
L 105.850679 278.929738 
L 105.850679 278.803862 
L 107.244765 278.803862 
L 107.244765 278.55211 
L 107.68741 278.55211 
L 107.68741 278.300359 
L 108.119879 278.300359 
L 108.119879 278.048607 
L 109.360651 278.048607 
L 109.360651 277.922731 
L 109.756698 277.922731 
L 109.756698 277.293352 
L 110.144579 277.293352 
L 110.144579 277.167476 
L 110.524623 277.167476 
L 110.524623 277.0416 
L 110.897141 277.0416 
L 110.897141 276.915724 
L 112.317555 276.915724 
L 112.317555 276.789848 
L 112.989468 276.789848 
L 112.989468 276.412221 
L 113.316634 276.412221 
L 113.316634 276.034593 
L 114.872193 276.034593 
L 114.872193 275.908717 
L 115.460102 275.908717 
L 115.460102 275.782841 
L 116.030193 275.782841 
L 116.030193 275.656966 
L 116.583514 275.656966 
L 116.583514 275.279338 
L 116.854188 275.279338 
L 116.854188 275.153462 
L 117.121023 275.153462 
L 117.121023 275.027586 
L 117.6436 275.027586 
L 117.6436 274.775834 
L 117.899543 274.775834 
L 117.899543 274.649959 
L 118.152051 274.649959 
L 118.152051 274.524083 
L 118.889854 274.524083 
L 118.889854 274.398207 
L 119.129494 274.398207 
L 119.129494 274.020579 
L 119.599808 274.020579 
L 119.599808 273.894703 
L 120.506564 273.894703 
L 120.506564 273.517076 
L 120.726585 273.517076 
L 120.726585 273.3912 
L 120.944062 273.3912 
L 120.944062 273.265324 
L 121.159053 273.265324 
L 121.159053 273.139448 
L 121.371615 273.139448 
L 121.371615 272.635945 
L 121.99526 272.635945 
L 121.99526 272.006566 
L 122.19863 272.006566 
L 122.19863 271.88069 
L 122.795872 271.88069 
L 122.795872 271.754814 
L 122.990812 271.754814 
L 122.990812 271.25131 
L 123.183753 271.25131 
L 123.183753 271.125434 
L 123.563797 271.125434 
L 123.563797 270.999559 
L 123.936316 270.999559 
L 123.936316 270.873683 
L 124.836562 270.873683 
L 124.836562 270.621931 
L 125.011554 270.621931 
L 125.011554 270.496055 
L 125.35673 270.496055 
L 125.35673 270.370179 
L 125.526971 270.370179 
L 125.526971 269.7408 
L 125.695686 269.7408 
L 125.695686 269.614924 
L 125.862901 269.614924 
L 125.862901 269.489048 
L 126.028642 269.489048 
L 126.028642 268.985545 
L 126.355808 268.985545 
L 126.355808 268.859669 
L 126.836129 268.859669 
L 126.836129 268.607917 
L 126.993549 268.607917 
L 126.993549 268.482041 
L 127.911368 268.482041 
L 127.911368 268.104414 
L 128.060076 268.104414 
L 128.060076 267.978538 
L 128.643427 267.978538 
L 128.643427 267.475034 
L 129.069367 267.475034 
L 129.069367 267.223283 
L 129.209231 267.223283 
L 129.209231 266.971531 
L 129.348062 266.971531 
L 129.348062 266.845655 
L 130.027253 266.845655 
L 130.027253 266.719779 
L 130.553485 266.719779 
L 130.553485 266.593903 
L 130.682774 266.593903 
L 130.682774 266.468028 
L 130.811181 266.468028 
L 130.811181 266.0904 
L 131.191226 266.0904 
L 131.191226 265.838648 
L 131.31622 265.838648 
L 131.31622 265.712772 
L 131.563744 265.712772 
L 131.563744 265.586897 
L 131.686295 265.586897 
L 131.686295 265.209269 
L 131.808053 265.209269 
L 131.808053 264.57989 
L 132.168669 264.57989 
L 132.168669 264.202262 
L 132.405295 264.202262 
L 132.405295 264.076386 
L 132.522502 264.076386 
L 132.522502 263.824634 
L 132.638982 263.824634 
L 132.638982 263.447007 
L 133.097823 263.447007 
L 133.097823 263.321131 
L 133.210806 263.321131 
L 133.210806 263.195255 
L 133.434756 263.195255 
L 133.434756 263.069379 
L 133.656071 263.069379 
L 133.656071 262.817628 
L 133.983236 262.817628 
L 134.091039 262.565876 
L 134.41079 262.565876 
L 134.516177 261.936497 
L 134.725196 261.936497 
L 134.828842 261.307117 
L 135.034434 261.307117 
L 135.034434 260.677738 
L 135.237805 260.677738 
L 135.237805 260.551862 
L 135.438999 260.551862 
L 135.438999 260.425986 
L 135.835047 260.425986 
L 135.932769 260.048359 
L 136.029987 260.048359 
L 136.029987 259.922483 
L 136.222928 259.922483 
L 136.318661 259.544855 
L 136.508678 259.544855 
L 136.602972 259.167228 
L 137.067478 259.167228 
L 137.067478 258.7896 
L 137.610157 258.7896 
L 137.699101 258.160221 
L 137.787626 258.160221 
L 137.787626 257.908469 
L 137.963436 257.908469 
L 137.963436 257.656717 
L 138.310202 257.656717 
L 138.395904 256.901462 
L 138.650692 256.901462 
L 138.73486 256.523834 
L 138.985129 256.523834 
L 138.985129 256.272083 
L 139.636676 256.272083 
L 139.716555 255.894455 
L 139.954178 255.894455 
L 139.954178 255.642703 
L 140.343665 255.642703 
L 140.343665 255.390952 
L 140.49723 255.390952 
L 140.573544 255.1392 
L 140.800648 255.1392 
L 140.800648 255.013324 
L 141.246793 255.013324 
L 141.246793 254.761572 
L 141.610664 254.761572 
L 141.610664 254.635697 
L 141.96763 254.635697 
L 141.96763 254.383945 
L 142.317949 254.383945 
L 142.317949 254.258069 
L 142.593581 254.258069 
L 142.661862 254.006317 
L 143.133017 254.006317 
L 143.133017 253.880441 
L 143.265494 253.880441 
L 143.265494 253.754566 
L 143.592659 253.754566 
L 143.592659 253.502814 
L 144.2304 253.502814 
L 144.2304 253.125186 
L 144.786447 253.125186 
L 144.786447 252.747559 
L 145.0284 252.747559 
L 145.0284 252.495807 
L 145.326529 252.495807 
L 145.326529 252.369931 
L 145.561676 252.369931 
L 145.561676 252.244055 
L 145.678157 252.244055 
L 145.678157 252.118179 
L 146.529503 252.118179 
L 146.584913 251.614676 
L 149.069161 251.614676 
L 149.069161 251.362924 
L 149.689117 251.362924 
L 149.782707 250.859421 
L 150.014665 250.859421 
L 150.014665 250.733545 
L 150.379949 250.733545 
L 150.379949 250.481793 
L 150.604701 250.481793 
L 150.604701 250.355917 
L 150.8268 250.355917 
L 150.8268 250.104166 
L 151.133398 250.104166 
L 151.133398 249.97829 
L 151.263283 249.97829 
L 151.263283 249.852414 
L 151.647641 249.852414 
L 151.647641 249.600662 
L 152.230346 249.600662 
L 152.230346 249.34891 
L 152.474656 249.34891 
L 152.474656 249.223034 
L 153.150116 249.223034 
L 153.150116 249.097159 
L 154.212341 249.097159 
L 154.24919 248.719531 
L 154.829169 248.719531 
L 154.829169 248.467779 
L 155.426411 248.467779 
L 155.460959 248.090152 
L 157.112155 248.090152 
L 157.112155 247.8384 
L 157.61133 247.8384 
L 157.61133 247.712524 
L 157.825621 247.712524 
L 157.825621 247.586648 
L 158.067574 247.586648 
L 158.067574 247.460772 
L 158.890711 247.460772 
L 158.890711 247.334897 
L 159.345393 247.334897 
L 159.429436 246.957269 
L 160.034538 246.957269 
L 160.034538 246.831393 
L 162.798527 246.831393 
L 162.798527 246.705517 
L 162.961399 246.705517 
L 163.007676 246.453766 
L 163.351171 246.453766 
L 163.419123 246.202014 
L 163.755253 246.202014 
L 163.777449 245.69851 
L 164.041785 245.69851 
L 164.041785 245.446759 
L 164.750119 245.446759 
L 164.750119 245.320883 
L 165.493592 245.320883 
L 165.493592 245.195007 
L 165.755007 245.195007 
L 165.755007 245.069131 
L 165.914091 245.069131 
L 165.914091 244.943255 
L 166.111072 244.943255 
L 166.111072 244.817379 
L 166.556452 244.817379 
L 166.556452 244.691503 
L 166.689935 244.691503 
L 166.784704 244.439752 
L 166.860176 244.439752 
L 166.954094 244.188 
L 167.1776 244.188 
L 167.1776 243.936248 
L 167.325142 243.936248 
L 167.416772 242.67749 
L 167.544308 242.67749 
L 167.544308 242.551614 
L 167.832614 242.551614 
L 167.832614 242.299862 
L 168.169334 242.299862 
L 168.256952 242.04811 
L 168.361558 242.04811 
L 168.361558 241.796359 
L 168.569041 241.796359 
L 168.620556 241.418731 
L 169.010886 241.418731 
L 169.111393 240.285848 
L 169.310811 240.285848 
L 169.376816 239.908221 
L 169.442591 239.908221 
L 169.442591 239.656469 
L 169.589749 239.656469 
L 169.589749 239.404717 
L 169.703414 239.404717 
L 169.703414 239.152966 
L 169.880655 239.152966 
L 169.880655 239.02709 
L 170.355719 239.02709 
L 170.386968 238.649462 
L 171.121768 238.649462 
L 171.226568 238.020083 
L 171.508116 238.020083 
L 171.566857 237.768331 
L 171.625414 237.768331 
L 171.625414 237.516579 
L 171.857838 237.516579 
L 171.944262 237.264828 
L 172.04459 237.264828 
L 172.101681 236.635448 
L 172.607852 236.635448 
L 172.704712 236.131945 
L 173.154738 236.131945 
L 173.168209 235.880193 
L 173.315751 235.880193 
L 173.409043 234.999062 
L 173.435613 234.999062 
L 173.515098 234.74731 
L 173.581081 234.74731 
L 173.659955 233.866179 
L 173.77765 233.866179 
L 173.84272 233.362676 
L 173.946365 233.362676 
L 174.010854 232.481545 
L 174.062287 232.481545 
L 174.139174 232.103917 
L 174.304691 232.103917 
L 174.405829 231.852166 
L 174.431028 231.852166 
L 174.481327 231.474538 
L 174.780325 231.474538 
L 174.780325 231.348662 
L 174.977048 231.348662 
L 175.02591 231.09691 
L 175.098964 231.09691 
L 175.098964 230.971034 
L 175.220095 230.971034 
L 175.316441 230.341655 
L 175.708734 230.341655 
L 175.708734 230.089903 
L 175.930944 230.089903 
L 176.012153 229.712276 
L 176.196469 229.712276 
L 176.196469 229.5864 
L 176.458298 229.5864 
L 176.492182 229.082897 
L 176.749956 229.082897 
L 176.84987 228.705269 
L 176.927215 228.705269 
L 177.03716 228.327641 
L 177.059073 228.327641 
L 177.059073 228.201766 
L 177.287622 228.201766 
L 177.287622 227.950014 
L 177.545466 227.950014 
L 177.566794 227.572386 
L 177.704841 227.572386 
L 177.704841 227.44651 
L 178.009191 227.44651 
L 178.019599 226.943007 
L 178.257396 226.943007 
L 178.257396 226.691255 
L 178.492224 226.691255 
L 178.512506 226.439503 
L 178.744191 226.439503 
L 178.764203 226.061876 
L 178.943362 226.061876 
L 179.012577 225.558372 
L 179.354881 225.558372 
L 179.403277 225.180745 
L 179.490078 225.180745 
L 179.490078 224.928993 
L 179.681545 224.928993 
L 179.729109 224.42549 
L 179.852216 224.42549 
L 179.852216 224.299614 
L 179.974522 224.299614 
L 179.974522 224.173738 
L 180.114663 224.173738 
L 180.114663 223.921986 
L 180.364317 223.921986 
L 180.474219 223.166731 
L 180.538033 223.166731 
L 180.538033 222.914979 
L 180.674054 222.914979 
L 180.674054 222.789103 
L 180.791148 222.789103 
L 180.809098 222.2856 
L 180.969881 222.2856 
L 180.969881 222.033848 
L 181.173347 222.033848 
L 181.234837 221.530345 
L 181.357217 221.530345 
L 181.357217 221.404469 
L 181.470148 221.404469 
L 181.539308 220.900966 
L 181.728198 220.900966 
L 181.728198 220.649214 
L 181.889818 220.649214 
L 181.889818 220.397462 
L 182.05006 220.397462 
L 182.05006 220.271586 
L 182.448907 220.271586 
L 182.448907 220.14571 
L 182.604477 220.14571 
L 182.693959 219.768083 
L 182.983869 219.768083 
L 183.08747 219.264579 
L 183.119233 219.264579 
L 183.206305 218.6352 
L 183.37925 218.6352 
L 183.433946 218.131697 
L 183.58935 218.131697 
L 183.628001 217.754069 
L 183.751154 217.754069 
L 183.81243 217.250566 
L 184.093261 217.250566 
L 184.093261 217.12469 
L 184.250806 217.12469 
L 184.250806 216.998814 
L 184.392219 216.998814 
L 184.392219 216.872938 
L 184.598699 216.872938 
L 184.598699 216.621186 
L 184.73753 216.621186 
L 184.73753 216.369434 
L 185.033667 216.369434 
L 185.040832 215.991807 
L 185.233261 215.991807 
L 185.233261 215.740055 
L 185.353418 215.740055 
L 185.458805 215.110676 
L 185.493803 215.110676 
L 185.563605 214.481297 
L 185.743887 214.481297 
L 185.743887 214.229545 
L 185.91562 214.229545 
L 185.942953 213.977793 
L 186.051887 213.977793 
L 186.14669 213.348414 
L 186.348244 213.348414 
L 186.348244 213.096662 
L 186.580694 213.096662 
L 186.580694 212.593159 
L 186.712243 212.593159 
L 186.764607 212.089655 
L 187.127126 212.089655 
L 187.197521 211.460276 
L 187.305798 211.460276 
L 187.394502 210.705021 
L 187.426081 210.705021 
L 187.426081 210.453269 
L 187.551869 210.453269 
L 187.639423 210.075641 
L 187.707931 210.075641 
L 187.707931 209.82389 
L 187.868873 209.82389 
L 187.868873 209.572138 
L 188.034561 209.572138 
L 188.034561 209.320386 
L 188.385623 209.320386 
L 188.385623 209.068634 
L 188.564668 209.068634 
L 188.564668 208.816883 
L 188.694894 208.816883 
L 188.747909 208.439255 
L 188.923555 208.439255 
L 188.970118 208.061628 
L 189.355626 208.061628 
L 189.355626 207.935752 
L 189.486164 207.935752 
L 189.59332 207.558124 
L 189.694277 207.558124 
L 189.794695 207.180497 
L 189.850252 207.180497 
L 189.850252 207.054621 
L 190.196537 207.054621 
L 190.24549 206.676993 
L 190.488362 206.676993 
L 190.504443 206.425241 
L 190.870552 206.425241 
L 190.870552 206.17349 
L 191.017109 206.17349 
L 191.105536 205.54411 
L 191.152182 205.54411 
L 191.152182 205.418234 
L 191.414351 205.418234 
L 191.414351 205.166483 
L 191.763332 205.166483 
L 191.873253 204.159476 
L 191.888193 204.159476 
L 191.987489 203.781848 
L 192.630016 203.781848 
L 192.630016 203.530097 
L 192.834672 203.530097 
L 192.834672 203.278345 
L 193.449362 203.278345 
L 193.449362 203.026593 
L 194.022393 203.026593 
L 194.022393 202.900717 
L 194.256463 202.900717 
L 194.256463 202.52309 
L 194.621579 202.52309 
L 194.681748 202.145462 
L 194.754554 202.145462 
L 194.754554 202.019586 
L 194.945924 202.019586 
L 194.945924 201.89371 
L 195.072431 201.89371 
L 195.072431 201.641959 
L 195.193918 201.641959 
L 195.193918 201.516083 
L 195.372622 201.516083 
L 195.418066 200.760828 
L 196.394934 200.760828 
L 196.394934 200.509076 
L 196.547098 200.509076 
L 196.547098 200.3832 
L 196.981156 200.3832 
L 196.981156 200.257324 
L 198.413717 200.257324 
L 198.413717 200.005572 
L 199.353976 200.005572 
L 199.353976 199.753821 
L 199.533865 199.753821 
L 199.533865 199.502069 
L 200.114937 199.502069 
L 200.114937 199.376193 
L 200.778163 199.376193 
L 200.778163 199.124441 
L 200.954219 199.124441 
L 200.954219 198.87269 
L 201.204636 198.87269 
L 201.204636 198.746814 
L 202.015105 198.746814 
L 202.015105 198.620938 
L 204.691938 198.620938 
L 204.691938 198.369186 
L 206.661832 198.369186 
L 206.661832 198.117434 
L 214.190647 198.117434 
L 214.190647 197.991559 
L 221.992194 197.991559 
L 221.992194 197.739807 
L 222.598226 197.739807 
L 222.608924 197.362179 
L 223.356186 197.362179 
L 223.44661 197.110428 
L 223.54493 197.110428 
L 223.54493 196.858676 
L 223.681354 196.858676 
L 223.681354 196.7328 
L 224.182517 196.7328 
L 224.182517 196.355172 
L 224.325951 196.355172 
L 224.325951 196.229297 
L 224.482387 196.229297 
L 224.482387 196.103421 
L 224.743729 196.103421 
L 224.743729 195.977545 
L 225.129484 195.977545 
L 225.205865 195.599917 
L 225.314805 195.599917 
L 225.314805 195.474041 
L 225.650302 195.474041 
L 225.746833 195.096414 
L 226.409027 195.096414 
L 226.409027 194.844662 
L 226.821569 194.844662 
L 226.821569 194.59291 
L 227.179557 194.59291 
L 227.179557 194.467034 
L 227.398665 194.467034 
L 227.398665 194.341159 
L 227.61674 194.341159 
L 227.61674 194.089407 
L 227.77034 194.089407 
L 227.77034 193.963531 
L 227.89115 193.963531 
L 227.89115 193.837655 
L 228.234576 193.837655 
L 228.234576 193.711779 
L 228.496628 193.711779 
L 228.496628 193.585903 
L 228.96292 193.585903 
L 228.965695 193.334152 
L 229.32563 193.334152 
L 229.32563 193.208276 
L 229.438234 193.208276 
L 229.438234 192.956524 
L 230.073923 192.956524 
L 230.073923 192.830648 
L 230.200342 192.830648 
L 230.200342 192.704772 
L 232.435281 192.704772 
L 232.435281 192.453021 
L 232.948968 192.453021 
L 232.948968 192.327145 
L 234.153671 192.327145 
L 234.153671 192.075393 
L 235.027349 192.075393 
L 235.027349 191.949517 
L 236.418707 191.949517 
L 236.418707 191.823641 
L 236.835897 191.823641 
L 236.835897 191.697766 
L 236.956006 191.697766 
L 236.956006 191.446014 
L 237.46603 191.446014 
L 237.46603 191.320138 
L 238.144407 191.320138 
L 238.144407 191.194262 
L 238.605331 191.194262 
L 238.637292 190.816634 
L 238.840243 190.816634 
L 238.948248 190.439007 
L 239.382941 190.439007 
L 239.482729 190.187255 
L 239.741448 190.187255 
L 239.823788 189.809628 
L 240.392181 189.809628 
L 240.392181 189.557876 
L 240.772158 189.557876 
L 240.829089 189.180248 
L 240.960406 189.180248 
L 240.960406 188.928497 
L 241.415612 188.928497 
L 241.470988 188.550869 
L 244.015311 188.550869 
L 244.085914 188.173241 
L 244.130255 188.173241 
L 244.201354 187.795614 
L 244.346119 187.795614 
L 244.358056 187.417986 
L 244.656459 187.417986 
L 244.7256 187.040359 
L 244.856869 187.040359 
L 244.886048 186.662731 
L 244.975091 186.662731 
L 244.975091 186.536855 
L 245.239428 186.536855 
L 245.239428 186.410979 
L 245.451084 186.410979 
L 245.542384 186.033352 
L 245.783894 186.033352 
L 245.783894 185.7816 
L 247.152008 185.7816 
L 247.152008 185.655724 
L 247.470546 185.655724 
L 247.470546 185.529848 
L 247.612378 185.529848 
L 247.612378 185.278097 
L 247.733213 185.278097 
L 247.733213 185.152221 
L 248.030059 185.152221 
L 248.030059 184.900469 
L 248.174995 184.900469 
L 248.233605 184.648717 
L 248.323781 184.648717 
L 248.323781 184.522841 
L 248.591743 184.522841 
L 248.591743 184.396966 
L 249.400396 184.396966 
L 249.400396 184.27109 
L 249.565602 184.27109 
L 249.565602 184.145214 
L 249.905627 184.145214 
L 249.905627 184.019338 
L 250.046132 184.019338 
L 250.059243 183.64171 
L 250.544666 183.64171 
L 250.544666 183.515834 
L 251.253274 183.515834 
L 251.253274 183.389959 
L 251.583336 183.389959 
L 251.583336 183.264083 
L 252.668043 183.264083 
L 252.743628 182.760579 
L 252.807003 182.760579 
L 252.807003 182.508828 
L 253.654252 182.508828 
L 253.654252 182.382952 
L 253.813183 182.382952 
L 253.89519 182.005324 
L 253.939001 182.005324 
L 253.982161 181.753572 
L 254.312385 181.753572 
L 254.312385 181.627697 
L 254.979436 181.627697 
L 254.979436 181.501821 
L 255.200644 181.501821 
L 255.200644 181.250069 
L 255.380492 181.250069 
L 255.380492 181.124193 
L 256.339965 181.124193 
L 256.339965 180.998317 
L 256.692678 180.998317 
L 256.692678 180.872441 
L 256.836188 180.872441 
L 256.836188 180.746566 
L 257.352964 180.746566 
L 257.439256 180.243062 
L 258.004195 180.243062 
L 258.004195 179.99131 
L 258.546905 179.99131 
L 258.546905 179.865434 
L 258.769525 179.865434 
L 258.769525 179.739559 
L 259.123592 179.739559 
L 259.123592 179.613683 
L 259.371926 179.613683 
L 259.371926 179.487807 
L 259.487963 179.487807 
L 259.567061 178.858428 
L 259.623007 178.858428 
L 259.623007 178.732552 
L 259.9162 178.732552 
L 259.9162 178.606676 
L 260.401661 178.606676 
L 260.401661 178.4808 
L 260.717325 178.4808 
L 260.736935 177.977297 
L 260.964983 177.977297 
L 260.964983 177.851421 
L 261.589338 177.851421 
L 261.668749 177.599669 
L 261.75608 177.599669 
L 261.846752 177.096166 
L 261.964131 177.096166 
L 262.031579 176.718538 
L 262.124981 176.718538 
L 262.186163 175.837407 
L 263.132623 175.837407 
L 263.211184 175.459779 
L 263.27711 175.459779 
L 263.27711 175.333903 
L 263.47141 175.333903 
L 263.578114 174.704524 
L 264.001671 174.704524 
L 264.001671 174.578648 
L 264.121155 174.578648 
L 264.121155 174.452772 
L 264.310362 174.452772 
L 264.310362 174.326897 
L 264.81935 174.326897 
L 264.81935 174.075145 
L 265.205339 174.075145 
L 265.228861 173.571641 
L 265.32537 173.571641 
L 265.32537 173.445766 
L 265.736505 173.445766 
L 265.736505 173.194014 
L 266.030487 173.194014 
L 266.030487 173.068138 
L 266.195286 173.068138 
L 266.274285 172.69051 
L 266.586627 172.69051 
L 266.588035 172.312883 
L 266.999951 172.312883 
L 267.084061 172.061131 
L 267.489577 172.061131 
L 267.489577 171.935255 
L 267.672099 171.935255 
L 267.672099 171.809379 
L 268.344155 171.809379 
L 268.344155 171.683503 
L 268.787649 171.683503 
L 268.787649 171.431752 
L 270.390298 171.431752 
L 270.390298 171.305876 
L 271.918251 171.305876 
L 271.918251 171.18 
L 272.262299 171.18 
L 272.262299 171.054124 
L 272.473191 171.054124 
L 272.473191 170.928248 
L 273.801586 170.928248 
L 273.801586 170.676497 
L 274.062097 170.676497 
L 274.062097 170.550621 
L 360.8064 170.550621 
L 360.8064 170.550621 
" style="fill: none; stroke: #ff00ff; stroke-width: 1.5; stroke-linecap: square"/>
   </g>
   <g id="line2d_41">
    <defs>
     <path id="m3207a7510f" d="M 0 8.485281 
L 5.091169 0 
L 0 -8.485281 
L -5.091169 0 
z
" style="stroke: #ff00ff; stroke-width: 1.5; stroke-linejoin: miter"/>
    </defs>
    <g>
     <use xlink:href="#m3207a7510f" x="144.2304" y="253.502814" style="fill-opacity: 0; stroke: #ff00ff; stroke-width: 1.5; stroke-linejoin: miter"/>
     <use xlink:href="#m3207a7510f" x="190.870552" y="206.425241" style="fill-opacity: 0; stroke: #ff00ff; stroke-width: 1.5; stroke-linejoin: miter"/>
     <use xlink:href="#m3207a7510f" x="274.062097" y="170.676497" style="fill-opacity: 0; stroke: #ff00ff; stroke-width: 1.5; stroke-linejoin: miter"/>
     <use xlink:href="#m3207a7510f" x="274.062097" y="170.550621" style="fill-opacity: 0; stroke: #ff00ff; stroke-width: 1.5; stroke-linejoin: miter"/>
     <use xlink:href="#m3207a7510f" x="274.062097" y="170.550621" style="fill-opacity: 0; stroke: #ff00ff; stroke-width: 1.5; stroke-linejoin: miter"/>
     <use xlink:href="#m3207a7510f" x="360.8064" y="170.550621" style="fill-opacity: 0; stroke: #ff00ff; stroke-width: 1.5; stroke-linejoin: miter"/>
    </g>
   </g>
   <g id="line2d_42">
    <path style="fill: none; stroke: #ff00ff; stroke-width: 1.5; stroke-linecap: square"/>
    <g/>
   </g>
   <g id="line2d_43">
    <path d="M 274.176063 170.550621 
" clip-path="url(#p55ac472934)" style="fill: none; stroke: #ff00ff; stroke-width: 1.5; stroke-linecap: square"/>
    <defs>
     <path id="m4f5e186864" d="M -12 12 
L 12 -12 
M -12 -12 
L 12 12 
" style="stroke: #ff00ff"/>
    </defs>
    <g clip-path="url(#p55ac472934)">
     <use xlink:href="#m4f5e186864" x="274.176063" y="170.550621" style="fill: #ff00ff; stroke: #ff00ff"/>
    </g>
   </g>
   <g id="line2d_44">
    <defs>
     <path id="m2ff8a800e3" d="M 0 1.5 
C 0.397805 1.5 0.77937 1.341951 1.06066 1.06066 
C 1.341951 0.77937 1.5 0.397805 1.5 0 
C 1.5 -0.397805 1.341951 -0.77937 1.06066 -1.06066 
C 0.77937 -1.341951 0.397805 -1.5 0 -1.5 
C -0.397805 -1.5 -0.77937 -1.341951 -1.06066 -1.06066 
C -1.341951 -0.77937 -1.5 -0.397805 -1.5 0 
C -1.5 0.397805 -1.341951 0.77937 -1.06066 1.06066 
C -0.77937 1.341951 -0.397805 1.5 0 1.5 
z
" style="stroke: #6495ed"/>
    </defs>
    <g>
     <use xlink:href="#m2ff8a800e3" x="113.954374" y="263.824634" style="fill: #6495ed; stroke: #6495ed"/>
     <use xlink:href="#m2ff8a800e3" x="113.954374" y="263.824634" style="fill: #6495ed; stroke: #6495ed"/>
    </g>
   </g>
   <g id="line2d_45">
    <path d="M 36.933397 298.944 
L 36.933397 296.552359 
L 49.972572 296.552359 
L 49.972572 295.797103 
L 57.6 295.797103 
L 57.6 294.034841 
L 63.011746 294.034841 
L 63.011746 292.146703 
L 67.209423 292.146703 
L 67.209423 290.384441 
L 70.639174 290.384441 
L 70.639174 287.741048 
L 73.538988 287.741048 
L 73.538988 286.859917 
L 76.050921 286.859917 
L 76.050921 285.978786 
L 78.266603 285.978786 
L 78.266603 285.85291 
L 80.248597 285.85291 
L 80.248597 285.223531 
L 83.678349 285.223531 
L 83.678349 284.845903 
L 85.184077 284.845903 
L 85.184077 284.594152 
L 86.578163 284.594152 
L 86.578163 283.964772 
L 87.876026 283.964772 
L 87.876026 283.209517 
L 90.230539 283.209517 
L 90.230539 282.580138 
L 92.322865 282.580138 
L 92.322865 282.20251 
L 93.287772 282.20251 
L 93.287772 281.447255 
L 94.205591 281.447255 
L 94.205591 281.069628 
L 95.080704 281.069628 
L 95.080704 280.440248 
L 95.916911 280.440248 
L 95.916911 280.314372 
L 96.717523 280.314372 
L 96.717523 280.062621 
L 97.485448 280.062621 
L 97.485448 279.810869 
L 98.223251 279.810869 
L 98.223251 279.684993 
L 98.933205 279.684993 
L 98.933205 279.18149 
L 99.617337 279.18149 
L 99.617337 279.055614 
L 100.9152 279.055614 
L 100.9152 278.929738 
L 101.532027 278.929738 
L 101.532027 278.677986 
L 102.12927 278.677986 
L 102.12927 278.300359 
L 102.708132 278.300359 
L 102.708132 277.419228 
L 103.269713 277.419228 
L 103.269713 276.412221 
L 103.815014 276.412221 
L 103.815014 275.908717 
L 104.344952 275.908717 
L 104.344952 274.90171 
L 104.860369 274.90171 
L 104.860369 274.272331 
L 105.36204 274.272331 
L 105.36204 273.642952 
L 105.850679 273.642952 
L 105.850679 272.761821 
L 106.326946 272.761821 
L 106.326946 272.132441 
L 106.791453 272.132441 
L 106.791453 271.503062 
L 107.244765 271.503062 
L 107.244765 270.118428 
L 107.68741 270.118428 
L 107.68741 269.992552 
L 108.119879 269.992552 
L 108.119879 269.237297 
L 108.542628 269.237297 
L 108.542628 268.733793 
L 108.956085 268.733793 
L 108.956085 267.60091 
L 109.360651 267.60091 
L 109.360651 267.475034 
L 109.756698 267.475034 
L 109.756698 266.845655 
L 110.524623 266.845655 
L 110.524623 266.468028 
L 110.897141 266.468028 
L 110.897141 266.0904 
L 111.262425 266.0904 
L 111.262425 265.838648 
L 111.620752 265.838648 
L 111.620752 265.461021 
L 111.97238 265.461021 
L 111.97238 265.209269 
L 112.317555 265.209269 
L 112.317555 264.957517 
L 112.989468 264.957517 
L 112.989468 264.57989 
L 113.316634 264.57989 
L 113.316634 264.328138 
L 113.638206 264.328138 
L 113.638206 263.95051 
L 113.954374 263.95051 
L 113.954374 263.824634 
L 360.8064 263.824634 
" style="fill: none; stroke: #6495ed; stroke-width: 1.5; stroke-linecap: square"/>
   </g>
   <g id="line2d_46">
    <defs>
     <path id="m6bc5c41af0" d="M -0 6 
L 6 -6 
L -6 -6 
z
" style="stroke: #6495ed; stroke-width: 1.5; stroke-linejoin: miter"/>
    </defs>
    <g>
     <use xlink:href="#m6bc5c41af0" x="80.248597" y="285.85291" style="fill-opacity: 0; stroke: #6495ed; stroke-width: 1.5; stroke-linejoin: miter"/>
     <use xlink:href="#m6bc5c41af0" x="113.954374" y="263.95051" style="fill-opacity: 0; stroke: #6495ed; stroke-width: 1.5; stroke-linejoin: miter"/>
     <use xlink:href="#m6bc5c41af0" x="113.954374" y="263.95051" style="fill-opacity: 0; stroke: #6495ed; stroke-width: 1.5; stroke-linejoin: miter"/>
     <use xlink:href="#m6bc5c41af0" x="113.954374" y="263.824634" style="fill-opacity: 0; stroke: #6495ed; stroke-width: 1.5; stroke-linejoin: miter"/>
     <use xlink:href="#m6bc5c41af0" x="113.954374" y="263.824634" style="fill-opacity: 0; stroke: #6495ed; stroke-width: 1.5; stroke-linejoin: miter"/>
     <use xlink:href="#m6bc5c41af0" x="360.8064" y="263.824634" style="fill-opacity: 0; stroke: #6495ed; stroke-width: 1.5; stroke-linejoin: miter"/>
    </g>
   </g>
   <g id="line2d_47">
    <path style="fill: none; stroke: #6495ed; stroke-width: 1.5; stroke-linecap: square"/>
    <g/>
   </g>
   <g id="line2d_48">
    <path d="M 113.954374 263.824634 
" clip-path="url(#p55ac472934)" style="fill: none; stroke: #6495ed; stroke-width: 1.5; stroke-linecap: square"/>
    <defs>
     <path id="m4db09b6c1c" d="M -12 12 
L 12 -12 
M -12 -12 
L 12 12 
" style="stroke: #6495ed"/>
    </defs>
    <g clip-path="url(#p55ac472934)">
     <use xlink:href="#m4db09b6c1c" x="113.954374" y="263.824634" style="fill: #6495ed; stroke: #6495ed"/>
    </g>
   </g>
   <g id="line2d_49">
    <path d="M 360.8064 282.706014 
L 380.514816 293.10336 
" style="fill: none; stroke: #000080; stroke-width: 1.5; stroke-linecap: square"/>
    <g>
     <use xlink:href="#m70a0218268" x="360.8064" y="282.706014" style="fill-opacity: 0; stroke: #000080; stroke-width: 1.5"/>
     <use xlink:href="#m70a0218268" x="380.514816" y="293.10336" style="fill-opacity: 0; stroke: #000080; stroke-width: 1.5"/>
    </g>
   </g>
   <g id="line2d_50">
    <path d="M 360.8064 263.824634 
L 380.514816 199.65312 
" style="fill: none; stroke: #6495ed; stroke-width: 1.5; stroke-linecap: square"/>
    <g>
     <use xlink:href="#m6bc5c41af0" x="360.8064" y="263.824634" style="fill-opacity: 0; stroke: #6495ed; stroke-width: 1.5; stroke-linejoin: miter"/>
     <use xlink:href="#m6bc5c41af0" x="380.514816" y="199.65312" style="fill-opacity: 0; stroke: #6495ed; stroke-width: 1.5; stroke-linejoin: miter"/>
    </g>
   </g>
   <g id="line2d_51">
    <path d="M 360.8064 170.550621 
L 380.514816 106.20288 
" style="fill: none; stroke: #ff00ff; stroke-width: 1.5; stroke-linecap: square"/>
    <g>
     <use xlink:href="#m3207a7510f" x="360.8064" y="170.550621" style="fill-opacity: 0; stroke: #ff00ff; stroke-width: 1.5; stroke-linejoin: miter"/>
     <use xlink:href="#m3207a7510f" x="380.514816" y="106.20288" style="fill-opacity: 0; stroke: #ff00ff; stroke-width: 1.5; stroke-linejoin: miter"/>
    </g>
   </g>
   <g id="line2d_52">
    <path d="M 360.8064 298.944 
L 360.8064 6.912 
" style="fill: none; stroke: #000000; stroke-width: 1.5; stroke-linecap: square"/>
   </g>
   <g id="patch_3">
    <path d="M 57.6 298.944 
L 360.8064 298.944 
" style="fill: none; stroke: #000000; stroke-width: 0.8; stroke-linejoin: miter; stroke-linecap: square"/>
   </g>
   <g id="patch_4">
    <path d="M 57.6 6.912 
L 360.8064 6.912 
" style="fill: none; stroke: #000000; stroke-width: 0.8; stroke-linejoin: miter; stroke-linecap: square"/>
   </g>
   <g id="text_13">
    <!-- cma -->
    <g transform="translate(386.578944 296.966485)scale(0.14 -0.14)">
     <use xlink:href="#DejaVuSans-63"/>
     <use xlink:href="#DejaVuSans-6d" x="54.980469"/>
     <use xlink:href="#DejaVuSans-61" x="152.392578"/>
    </g>
   </g>
   <g id="text_14">
    <!-- parEgo -->
    <g transform="translate(386.578944 203.516245)scale(0.14 -0.14)">
     <defs>
      <path id="DejaVuSans-45" d="M 628 4666 
L 3578 4666 
L 3578 4134 
L 1259 4134 
L 1259 2753 
L 3481 2753 
L 3481 2222 
L 1259 2222 
L 1259 531 
L 3634 531 
L 3634 0 
L 628 0 
L 628 4666 
z
" transform="scale(0.015625)"/>
     </defs>
     <use xlink:href="#DejaVuSans-70"/>
     <use xlink:href="#DejaVuSans-61" x="63.476562"/>
     <use xlink:href="#DejaVuSans-72" x="124.755859"/>
     <use xlink:href="#DejaVuSans-45" x="165.869141"/>
     <use xlink:href="#DejaVuSans-67" x="229.052734"/>
     <use xlink:href="#DejaVuSans-6f" x="292.529297"/>
    </g>
   </g>
   <g id="text_15">
    <!-- external- -->
    <g transform="translate(386.578944 110.066005)scale(0.14 -0.14)">
     <defs>
      <path id="DejaVuSans-78" d="M 3513 3500 
L 2247 1797 
L 3578 0 
L 2900 0 
L 1881 1375 
L 863 0 
L 184 0 
L 1544 1831 
L 300 3500 
L 978 3500 
L 1906 2253 
L 2834 3500 
L 3513 3500 
z
" transform="scale(0.015625)"/>
     </defs>
     <use xlink:href="#DejaVuSans-65"/>
     <use xlink:href="#DejaVuSans-78" x="59.773438"/>
     <use xlink:href="#DejaVuSans-74" x="118.953125"/>
     <use xlink:href="#DejaVuSans-65" x="158.162109"/>
     <use xlink:href="#DejaVuSans-72" x="219.685547"/>
     <use xlink:href="#DejaVuSans-6e" x="259.048828"/>
     <use xlink:href="#DejaVuSans-61" x="322.427734"/>
     <use xlink:href="#DejaVuSans-6c" x="383.707031"/>
     <use xlink:href="#DejaVuSans-2d" x="411.490234"/>
    </g>
   </g>
   <g id="text_16">
    <!-- best 2016 -->
    <g transform="translate(386.578944 16.615765)scale(0.14 -0.14)">
     <defs>
      <path id="DejaVuSans-62" d="M 3116 1747 
Q 3116 2381 2855 2742 
Q 2594 3103 2138 3103 
Q 1681 3103 1420 2742 
Q 1159 2381 1159 1747 
Q 1159 1113 1420 752 
Q 1681 391 2138 391 
Q 2594 391 2855 752 
Q 3116 1113 3116 1747 
z
M 1159 2969 
Q 1341 3281 1617 3432 
Q 1894 3584 2278 3584 
Q 2916 3584 3314 3078 
Q 3713 2572 3713 1747 
Q 3713 922 3314 415 
Q 2916 -91 2278 -91 
Q 1894 -91 1617 61 
Q 1341 213 1159 525 
L 1159 0 
L 581 0 
L 581 4863 
L 1159 4863 
L 1159 2969 
z
" transform="scale(0.015625)"/>
     </defs>
     <use xlink:href="#DejaVuSans-62"/>
     <use xlink:href="#DejaVuSans-65" x="63.476562"/>
     <use xlink:href="#DejaVuSans-73" x="125"/>
     <use xlink:href="#DejaVuSans-74" x="177.099609"/>
     <use xlink:href="#DejaVuSans-20" x="216.308594"/>
     <use xlink:href="#DejaVuSans-32" x="248.095703"/>
     <use xlink:href="#DejaVuSans-30" x="311.71875"/>
     <use xlink:href="#DejaVuSans-31" x="375.341797"/>
     <use xlink:href="#DejaVuSans-36" x="438.964844"/>
    </g>
   </g>
   <g id="text_17">
    <!-- bbob-biobj f7, f8, f16, f17, 3-D -->
    <g transform="translate(60.632064 17.582726)scale(0.102 -0.102)">
     <defs>
      <path id="DejaVuSans-6a" d="M 603 3500 
L 1178 3500 
L 1178 -63 
Q 1178 -731 923 -1031 
Q 669 -1331 103 -1331 
L -116 -1331 
L -116 -844 
L 38 -844 
Q 366 -844 484 -692 
Q 603 -541 603 -63 
L 603 3500 
z
M 603 4863 
L 1178 4863 
L 1178 4134 
L 603 4134 
L 603 4863 
z
" transform="scale(0.015625)"/>
      <path id="DejaVuSans-37" d="M 525 4666 
L 3525 4666 
L 3525 4397 
L 1831 0 
L 1172 0 
L 2766 4134 
L 525 4134 
L 525 4666 
z
" transform="scale(0.015625)"/>
      <path id="DejaVuSans-33" d="M 2597 2516 
Q 3050 2419 3304 2112 
Q 3559 1806 3559 1356 
Q 3559 666 3084 287 
Q 2609 -91 1734 -91 
Q 1441 -91 1130 -33 
Q 819 25 488 141 
L 488 750 
Q 750 597 1062 519 
Q 1375 441 1716 441 
Q 2309 441 2620 675 
Q 2931 909 2931 1356 
Q 2931 1769 2642 2001 
Q 2353 2234 1838 2234 
L 1294 2234 
L 1294 2753 
L 1863 2753 
Q 2328 2753 2575 2939 
Q 2822 3125 2822 3475 
Q 2822 3834 2567 4026 
Q 2313 4219 1838 4219 
Q 1578 4219 1281 4162 
Q 984 4106 628 3988 
L 628 4550 
Q 988 4650 1302 4700 
Q 1616 4750 1894 4750 
Q 2613 4750 3031 4423 
Q 3450 4097 3450 3541 
Q 3450 3153 3228 2886 
Q 3006 2619 2597 2516 
z
" transform="scale(0.015625)"/>
      <path id="DejaVuSans-44" d="M 1259 4147 
L 1259 519 
L 2022 519 
Q 2988 519 3436 956 
Q 3884 1394 3884 2338 
Q 3884 3275 3436 3711 
Q 2988 4147 2022 4147 
L 1259 4147 
z
M 628 4666 
L 1925 4666 
Q 3281 4666 3915 4102 
Q 4550 3538 4550 2338 
Q 4550 1131 3912 565 
Q 3275 0 1925 0 
L 628 0 
L 628 4666 
z
" transform="scale(0.015625)"/>
     </defs>
     <use xlink:href="#DejaVuSans-62"/>
     <use xlink:href="#DejaVuSans-62" x="63.476562"/>
     <use xlink:href="#DejaVuSans-6f" x="126.953125"/>
     <use xlink:href="#DejaVuSans-62" x="188.134766"/>
     <use xlink:href="#DejaVuSans-2d" x="251.611328"/>
     <use xlink:href="#DejaVuSans-62" x="287.695312"/>
     <use xlink:href="#DejaVuSans-69" x="351.171875"/>
     <use xlink:href="#DejaVuSans-6f" x="378.955078"/>
     <use xlink:href="#DejaVuSans-62" x="440.136719"/>
     <use xlink:href="#DejaVuSans-6a" x="503.613281"/>
     <use xlink:href="#DejaVuSans-20" x="531.396484"/>
     <use xlink:href="#DejaVuSans-66" x="563.183594"/>
     <use xlink:href="#DejaVuSans-37" x="598.388672"/>
     <use xlink:href="#DejaVuSans-2c" x="662.011719"/>
     <use xlink:href="#DejaVuSans-20" x="693.798828"/>
     <use xlink:href="#DejaVuSans-66" x="725.585938"/>
     <use xlink:href="#DejaVuSans-38" x="760.791016"/>
     <use xlink:href="#DejaVuSans-2c" x="824.414062"/>
     <use xlink:href="#DejaVuSans-20" x="856.201172"/>
     <use xlink:href="#DejaVuSans-66" x="887.988281"/>
     <use xlink:href="#DejaVuSans-31" x="923.193359"/>
     <use xlink:href="#DejaVuSans-36" x="986.816406"/>
     <use xlink:href="#DejaVuSans-2c" x="1050.439453"/>
     <use xlink:href="#DejaVuSans-20" x="1082.226562"/>
     <use xlink:href="#DejaVuSans-66" x="1114.013672"/>
     <use xlink:href="#DejaVuSans-31" x="1149.21875"/>
     <use xlink:href="#DejaVuSans-37" x="1212.841797"/>
     <use xlink:href="#DejaVuSans-2c" x="1276.464844"/>
     <use xlink:href="#DejaVuSans-20" x="1308.251953"/>
     <use xlink:href="#DejaVuSans-33" x="1340.039062"/>
     <use xlink:href="#DejaVuSans-2d" x="1403.662109"/>
     <use xlink:href="#DejaVuSans-44" x="1439.746094"/>
    </g>
    <!-- 58 targets: 1..-1.0e-4 -->
    <g transform="translate(60.632064 29.004495)scale(0.102 -0.102)">
     <defs>
      <path id="DejaVuSans-35" d="M 691 4666 
L 3169 4666 
L 3169 4134 
L 1269 4134 
L 1269 2991 
Q 1406 3038 1543 3061 
Q 1681 3084 1819 3084 
Q 2600 3084 3056 2656 
Q 3513 2228 3513 1497 
Q 3513 744 3044 326 
Q 2575 -91 1722 -91 
Q 1428 -91 1123 -41 
Q 819 9 494 109 
L 494 744 
Q 775 591 1075 516 
Q 1375 441 1709 441 
Q 2250 441 2565 725 
Q 2881 1009 2881 1497 
Q 2881 1984 2565 2268 
Q 2250 2553 1709 2553 
Q 1456 2553 1204 2497 
Q 953 2441 691 2322 
L 691 4666 
z
" transform="scale(0.015625)"/>
      <path id="DejaVuSans-3a" d="M 750 794 
L 1409 794 
L 1409 0 
L 750 0 
L 750 794 
z
M 750 3309 
L 1409 3309 
L 1409 2516 
L 750 2516 
L 750 3309 
z
" transform="scale(0.015625)"/>
     </defs>
     <use xlink:href="#DejaVuSans-35"/>
     <use xlink:href="#DejaVuSans-38" x="63.623047"/>
     <use xlink:href="#DejaVuSans-20" x="127.246094"/>
     <use xlink:href="#DejaVuSans-74" x="159.033203"/>
     <use xlink:href="#DejaVuSans-61" x="198.242188"/>
     <use xlink:href="#DejaVuSans-72" x="259.521484"/>
     <use xlink:href="#DejaVuSans-67" x="298.884766"/>
     <use xlink:href="#DejaVuSans-65" x="362.361328"/>
     <use xlink:href="#DejaVuSans-74" x="423.884766"/>
     <use xlink:href="#DejaVuSans-73" x="463.09375"/>
     <use xlink:href="#DejaVuSans-3a" x="515.193359"/>
     <use xlink:href="#DejaVuSans-20" x="548.884766"/>
     <use xlink:href="#DejaVuSans-31" x="580.671875"/>
     <use xlink:href="#DejaVuSans-2e" x="644.294922"/>
     <use xlink:href="#DejaVuSans-2e" x="676.082031"/>
     <use xlink:href="#DejaVuSans-2d" x="707.869141"/>
     <use xlink:href="#DejaVuSans-31" x="743.953125"/>
     <use xlink:href="#DejaVuSans-2e" x="807.576172"/>
     <use xlink:href="#DejaVuSans-30" x="839.363281"/>
     <use xlink:href="#DejaVuSans-65" x="902.986328"/>
     <use xlink:href="#DejaVuSans-2d" x="964.509766"/>
     <use xlink:href="#DejaVuSans-34" x="1000.59375"/>
    </g>
    <!-- 10 instances -->
    <g transform="translate(60.632064 40.426264)scale(0.102 -0.102)">
     <use xlink:href="#DejaVuSans-31"/>
     <use xlink:href="#DejaVuSans-30" x="63.623047"/>
     <use xlink:href="#DejaVuSans-20" x="127.246094"/>
     <use xlink:href="#DejaVuSans-69" x="159.033203"/>
     <use xlink:href="#DejaVuSans-6e" x="186.816406"/>
     <use xlink:href="#DejaVuSans-73" x="250.195312"/>
     <use xlink:href="#DejaVuSans-74" x="302.294922"/>
     <use xlink:href="#DejaVuSans-61" x="341.503906"/>
     <use xlink:href="#DejaVuSans-6e" x="402.783203"/>
     <use xlink:href="#DejaVuSans-63" x="466.162109"/>
     <use xlink:href="#DejaVuSans-65" x="521.142578"/>
     <use xlink:href="#DejaVuSans-73" x="582.666016"/>
    </g>
   </g>
   <g id="text_18">
    <!-- v2.6, hv-hash=ff0e71e8cd978373 -->
    <g style="fill: #808080" transform="translate(123.707887 293.943992)scale(0.1 -0.1)">
     <defs>
      <path id="DejaVuSans-68" d="M 3513 2113 
L 3513 0 
L 2938 0 
L 2938 2094 
Q 2938 2591 2744 2837 
Q 2550 3084 2163 3084 
Q 1697 3084 1428 2787 
Q 1159 2491 1159 1978 
L 1159 0 
L 581 0 
L 581 4863 
L 1159 4863 
L 1159 2956 
Q 1366 3272 1645 3428 
Q 1925 3584 2291 3584 
Q 2894 3584 3203 3211 
Q 3513 2838 3513 2113 
z
" transform="scale(0.015625)"/>
      <path id="DejaVuSans-3d" d="M 678 2906 
L 4684 2906 
L 4684 2381 
L 678 2381 
L 678 2906 
z
M 678 1631 
L 4684 1631 
L 4684 1100 
L 678 1100 
L 678 1631 
z
" transform="scale(0.015625)"/>
      <path id="DejaVuSans-39" d="M 703 97 
L 703 672 
Q 941 559 1184 500 
Q 1428 441 1663 441 
Q 2288 441 2617 861 
Q 2947 1281 2994 2138 
Q 2813 1869 2534 1725 
Q 2256 1581 1919 1581 
Q 1219 1581 811 2004 
Q 403 2428 403 3163 
Q 403 3881 828 4315 
Q 1253 4750 1959 4750 
Q 2769 4750 3195 4129 
Q 3622 3509 3622 2328 
Q 3622 1225 3098 567 
Q 2575 -91 1691 -91 
Q 1453 -91 1209 -44 
Q 966 3 703 97 
z
M 1959 2075 
Q 2384 2075 2632 2365 
Q 2881 2656 2881 3163 
Q 2881 3666 2632 3958 
Q 2384 4250 1959 4250 
Q 1534 4250 1286 3958 
Q 1038 3666 1038 3163 
Q 1038 2656 1286 2365 
Q 1534 2075 1959 2075 
z
" transform="scale(0.015625)"/>
     </defs>
     <use xlink:href="#DejaVuSans-76"/>
     <use xlink:href="#DejaVuSans-32" x="59.179688"/>
     <use xlink:href="#DejaVuSans-2e" x="122.802734"/>
     <use xlink:href="#DejaVuSans-36" x="154.589844"/>
     <use xlink:href="#DejaVuSans-2c" x="218.212891"/>
     <use xlink:href="#DejaVuSans-20" x="250"/>
     <use xlink:href="#DejaVuSans-68" x="281.787109"/>
     <use xlink:href="#DejaVuSans-76" x="345.166016"/>
     <use xlink:href="#DejaVuSans-2d" x="401.720703"/>
     <use xlink:href="#DejaVuSans-68" x="437.804688"/>
     <use xlink:href="#DejaVuSans-61" x="501.183594"/>
     <use xlink:href="#DejaVuSans-73" x="562.462891"/>
     <use xlink:href="#DejaVuSans-68" x="614.5625"/>
     <use xlink:href="#DejaVuSans-3d" x="677.941406"/>
     <use xlink:href="#DejaVuSans-66" x="761.730469"/>
     <use xlink:href="#DejaVuSans-66" x="796.935547"/>
     <use xlink:href="#DejaVuSans-30" x="832.140625"/>
     <use xlink:href="#DejaVuSans-65" x="895.763672"/>
     <use xlink:href="#DejaVuSans-37" x="957.287109"/>
     <use xlink:href="#DejaVuSans-31" x="1020.910156"/>
     <use xlink:href="#DejaVuSans-65" x="1084.533203"/>
     <use xlink:href="#DejaVuSans-38" x="1146.056641"/>
     <use xlink:href="#DejaVuSans-63" x="1209.679688"/>
     <use xlink:href="#DejaVuSans-64" x="1264.660156"/>
     <use xlink:href="#DejaVuSans-39" x="1328.136719"/>
     <use xlink:href="#DejaVuSans-37" x="1391.759766"/>
     <use xlink:href="#DejaVuSans-38" x="1455.382812"/>
     <use xlink:href="#DejaVuSans-33" x="1519.005859"/>
     <use xlink:href="#DejaVuSans-37" x="1582.628906"/>
     <use xlink:href="#DejaVuSans-33" x="1646.251953"/>
    </g>
   </g>
  </g>
 </g>
 <defs>
  <clipPath id="p55ac472934">
   <rect x="57.6" y="6.912" width="303.2064" height="292.032"/>
  </clipPath>
 </defs>
</svg>
