<?xml version="1.0" encoding="utf-8" standalone="no"?>
<!DOCTYPE svg PUBLIC "-//W3C//DTD SVG 1.1//EN"
  "http://www.w3.org/Graphics/SVG/1.1/DTD/svg11.dtd">
<svg xmlns:xlink="http://www.w3.org/1999/xlink" width="460.8pt" height="345.6pt" viewBox="0 0 460.8 345.6" xmlns="http://www.w3.org/2000/svg" version="1.1">
 <metadata>
  <rdf:RDF xmlns:dc="http://purl.org/dc/elements/1.1/" xmlns:cc="http://creativecommons.org/ns#" xmlns:rdf="http://www.w3.org/1999/02/22-rdf-syntax-ns#">
   <cc:Work>
    <dc:type rdf:resource="http://purl.org/dc/dcmitype/StillImage"/>
    <dc:date>2022-06-19T21:02:36.914374</dc:date>
    <dc:format>image/svg+xml</dc:format>
    <dc:creator>
     <cc:Agent>
      <dc:title>Matplotlib v3.5.1, https://matplotlib.org/</dc:title>
     </cc:Agent>
    </dc:creator>
   </cc:Work>
  </rdf:RDF>
 </metadata>
 <defs>
  <style type="text/css">*{stroke-linejoin: round; stroke-linecap: butt}</style>
 </defs>
 <g id="figure_1">
  <g id="patch_1">
   <path d="M 0 345.6 
L 460.8 345.6 
L 460.8 0 
L 0 0 
z
" style="fill: #ffffff"/>
  </g>
  <g id="axes_1">
   <g id="patch_2">
    <path d="M 57.6 298.944 
L 360.8064 298.944 
L 360.8064 6.912 
L 57.6 6.912 
z
" style="fill: #ffffff"/>
   </g>
   <g id="line2d_1">
    <path d="M 65.227428 298.944 
L 65.227428 297.685241 
L 70.639174 297.685241 
L 70.639174 293.908966 
L 78.266603 293.908966 
L 78.266603 292.650207 
L 83.678349 292.650207 
L 83.678349 290.13269 
L 91.305777 290.13269 
L 91.305777 288.873931 
L 97.857967 288.873931 
L 97.857967 285.097655 
L 103.544339 285.097655 
L 103.544339 282.580138 
L 108.542628 282.580138 
L 108.542628 280.062621 
L 109.159456 280.062621 
L 109.159456 276.286345 
L 119.944983 276.286345 
L 119.944983 273.768828 
L 122.499621 273.768828 
L 122.499621 271.25131 
L 127.458055 271.25131 
L 127.458055 269.992552 
L 128.133992 269.992552 
L 128.133992 267.475034 
L 130.226319 267.475034 
L 130.226319 264.957517 
L 134.463557 264.957517 
L 134.463557 263.698759 
L 134.620977 263.698759 
L 134.620977 262.44 
L 140.725251 262.44 
L 140.725251 258.663724 
L 141.825656 258.663724 
L 141.825656 254.887448 
L 145.415054 254.887448 
L 145.415054 253.62869 
L 149.73597 253.62869 
L 149.73597 251.111172 
L 153.01302 251.111172 
L 153.01302 248.593655 
L 154.156931 248.593655 
L 154.156931 244.817379 
L 155.649849 244.817379 
L 155.649849 243.558621 
L 156.105602 243.558621 
L 156.105602 241.041103 
L 157.595929 241.041103 
L 157.595929 237.264828 
L 159.485256 237.264828 
L 159.485256 236.006069 
L 159.651731 236.006069 
L 159.651731 233.488552 
L 161.504837 233.488552 
L 161.542347 228.453517 
L 163.260183 228.453517 
L 163.260183 225.936 
L 164.161708 225.936 
L 164.161708 224.677241 
L 166.286609 224.677241 
L 166.286609 220.900966 
L 167.957371 220.900966 
L 167.957371 217.12469 
L 168.560441 217.12469 
L 168.560441 214.607172 
L 168.79126 214.607172 
L 168.79126 212.089655 
L 173.242125 212.089655 
L 173.242125 209.572138 
L 174.010854 209.572138 
L 174.010854 205.795862 
L 175.262307 205.795862 
L 175.262307 203.278345 
L 175.814319 203.278345 
L 175.814319 200.760828 
L 177.249723 200.760828 
L 177.249723 198.24331 
L 177.620009 198.24331 
L 177.620009 195.725793 
L 181.234837 195.725793 
L 181.234837 194.467034 
L 181.365929 194.467034 
L 181.365929 191.949517 
L 182.444795 191.949517 
L 182.444795 189.432 
L 185.532226 189.432 
L 185.563605 183.138207 
L 186.451541 183.138207 
L 186.451541 180.62069 
L 188.623973 180.62069 
L 188.623973 178.103172 
L 194.319998 178.103172 
L 194.319998 176.844414 
L 195.698611 176.844414 
L 195.698611 175.585655 
L 195.892734 175.585655 
L 195.892734 174.326897 
L 197.310514 174.326897 
L 197.310514 173.068138 
L 199.405787 173.068138 
L 199.405787 169.291862 
L 199.880427 169.291862 
L 199.880427 165.515586 
L 202.983498 165.515586 
L 202.983498 162.998069 
L 203.262923 162.998069 
L 203.262923 159.221793 
L 203.690385 159.221793 
L 203.690385 155.445517 
L 204.002765 155.445517 
L 204.002765 154.186759 
L 207.346045 154.186759 
L 207.346045 152.928 
L 208.633837 152.928 
L 208.633837 149.151724 
L 211.291213 149.151724 
L 211.291213 147.892966 
L 212.065632 147.892966 
L 212.065632 144.11669 
L 215.421156 144.11669 
L 215.421156 141.599172 
L 216.983025 141.599172 
L 216.983025 140.340414 
L 217.10458 140.340414 
L 217.10458 136.564138 
L 220.403267 136.564138 
L 220.403267 135.305379 
L 222.948583 135.305379 
L 222.948583 131.529103 
L 223.65424 131.529103 
L 223.65424 127.752828 
L 226.081652 127.752828 
L 226.081652 125.23531 
L 228.082554 125.23531 
L 228.082554 123.976552 
L 228.833813 123.976552 
L 228.833813 122.717793 
L 230.070327 122.717793 
L 230.070327 118.941517 
L 230.528683 118.941517 
L 230.528683 116.424 
L 231.032143 116.424 
L 231.032143 112.647724 
L 231.800105 112.647724 
L 231.800105 111.388966 
L 232.597213 111.388966 
L 232.597213 110.130207 
L 233.403042 110.130207 
L 233.403042 106.353931 
L 234.013401 106.353931 
L 234.013401 103.836414 
L 234.892961 103.836414 
L 234.892961 101.318897 
L 236.194316 101.318897 
L 236.194316 100.060138 
L 236.357243 100.060138 
L 236.357243 98.801379 
L 236.729251 98.801379 
L 236.729251 95.025103 
L 238.136955 95.025103 
L 238.136955 91.248828 
L 240.41974 91.248828 
L 240.41974 89.990069 
L 242.041936 89.990069 
L 242.041936 87.472552 
L 244.496159 87.472552 
L 244.496159 83.696276 
L 247.761705 83.696276 
L 247.761705 81.178759 
L 249.28725 81.178759 
L 249.28725 78.661241 
L 249.851552 78.661241 
L 249.851552 76.143724 
L 252.985897 76.143724 
L 252.985897 74.884966 
L 253.130409 74.884966 
L 253.130409 71.10869 
L 253.802907 71.10869 
L 253.802907 68.591172 
L 254.745117 68.591172 
L 254.745117 66.073655 
L 256.152844 66.073655 
L 256.25432 62.297379 
L 257.265042 62.297379 
L 257.265042 59.779862 
L 258.614355 59.779862 
L 258.614355 56.003586 
L 260.113215 56.003586 
L 260.113215 52.22731 
L 261.425983 52.22731 
L 261.425983 49.709793 
L 263.96626 49.709793 
L 263.96626 48.451034 
L 267.226634 48.451034 
L 267.226634 45.933517 
L 269.79318 45.933517 
L 269.79318 42.157241 
L 360.8064 42.157241 
L 360.8064 42.157241 
" style="fill: none; stroke: #f5deb3; stroke-width: 4; stroke-linecap: square"/>
   </g>
   <g id="line2d_2">
    <defs>
     <path id="m5ea43bf5ff" d="M 0 7.778175 
L 7.778175 0 
L 0 -7.778175 
L -7.778175 0 
z
" style="stroke: #f5deb3; stroke-width: 1.5; stroke-linejoin: miter"/>
    </defs>
    <g>
     <use xlink:href="#m5ea43bf5ff" x="155.649849" y="243.558621" style="fill: #f5deb3; stroke: #f5deb3; stroke-width: 1.5; stroke-linejoin: miter"/>
     <use xlink:href="#m5ea43bf5ff" x="208.633837" y="149.151724" style="fill: #f5deb3; stroke: #f5deb3; stroke-width: 1.5; stroke-linejoin: miter"/>
     <use xlink:href="#m5ea43bf5ff" x="269.79318" y="45.933517" style="fill: #f5deb3; stroke: #f5deb3; stroke-width: 1.5; stroke-linejoin: miter"/>
     <use xlink:href="#m5ea43bf5ff" x="269.79318" y="42.157241" style="fill: #f5deb3; stroke: #f5deb3; stroke-width: 1.5; stroke-linejoin: miter"/>
     <use xlink:href="#m5ea43bf5ff" x="360.8064" y="42.157241" style="fill: #f5deb3; stroke: #f5deb3; stroke-width: 1.5; stroke-linejoin: miter"/>
    </g>
   </g>
   <g id="line2d_3">
    <path style="fill: none; stroke: #f5deb3; stroke-width: 4; stroke-linecap: square"/>
    <g/>
   </g>
   <g id="line2d_4">
    <path d="M 360.8064 42.157241 
L 380.514816 12.75264 
" style="fill: none; stroke: #f5deb3; stroke-width: 4; stroke-linecap: square"/>
    <g>
     <use xlink:href="#m5ea43bf5ff" x="360.8064" y="42.157241" style="fill: #f5deb3; stroke: #f5deb3; stroke-width: 1.5; stroke-linejoin: miter"/>
     <use xlink:href="#m5ea43bf5ff" x="380.514816" y="12.75264" style="fill: #f5deb3; stroke: #f5deb3; stroke-width: 1.5; stroke-linejoin: miter"/>
    </g>
   </g>
   <g id="matplotlib.axis_1">
    <g id="xtick_1">
     <g id="line2d_5">
      <path d="M 57.6 298.944 
L 57.6 6.912 
" clip-path="url(#p55711071d5)" style="fill: none; stroke: #b0b0b0; stroke-width: 0.8; stroke-linecap: square"/>
     </g>
     <g id="line2d_6">
      <defs>
       <path id="md1f6b54cef" d="M 0 0 
L 0 3.5 
" style="stroke: #000000; stroke-width: 0.8"/>
      </defs>
      <g>
       <use xlink:href="#md1f6b54cef" x="57.6" y="298.944" style="stroke: #000000; stroke-width: 0.8"/>
      </g>
     </g>
     <g id="text_1">
      <!-- 0 -->
      <g transform="translate(52.191875 318.861344)scale(0.17 -0.17)">
       <defs>
        <path id="DejaVuSans-30" d="M 2034 4250 
Q 1547 4250 1301 3770 
Q 1056 3291 1056 2328 
Q 1056 1369 1301 889 
Q 1547 409 2034 409 
Q 2525 409 2770 889 
Q 3016 1369 3016 2328 
Q 3016 3291 2770 3770 
Q 2525 4250 2034 4250 
z
M 2034 4750 
Q 2819 4750 3233 4129 
Q 3647 3509 3647 2328 
Q 3647 1150 3233 529 
Q 2819 -91 2034 -91 
Q 1250 -91 836 529 
Q 422 1150 422 2328 
Q 422 3509 836 4129 
Q 1250 4750 2034 4750 
z
" transform="scale(0.015625)"/>
       </defs>
       <use xlink:href="#DejaVuSans-30"/>
      </g>
     </g>
    </g>
    <g id="xtick_2">
     <g id="line2d_7">
      <path d="M 144.2304 298.944 
L 144.2304 6.912 
" clip-path="url(#p55711071d5)" style="fill: none; stroke: #b0b0b0; stroke-width: 0.8; stroke-linecap: square"/>
     </g>
     <g id="line2d_8">
      <g>
       <use xlink:href="#md1f6b54cef" x="144.2304" y="298.944" style="stroke: #000000; stroke-width: 0.8"/>
      </g>
     </g>
     <g id="text_2">
      <!-- 2 -->
      <g transform="translate(138.822275 318.861344)scale(0.17 -0.17)">
       <defs>
        <path id="DejaVuSans-32" d="M 1228 531 
L 3431 531 
L 3431 0 
L 469 0 
L 469 531 
Q 828 903 1448 1529 
Q 2069 2156 2228 2338 
Q 2531 2678 2651 2914 
Q 2772 3150 2772 3378 
Q 2772 3750 2511 3984 
Q 2250 4219 1831 4219 
Q 1534 4219 1204 4116 
Q 875 4013 500 3803 
L 500 4441 
Q 881 4594 1212 4672 
Q 1544 4750 1819 4750 
Q 2544 4750 2975 4387 
Q 3406 4025 3406 3419 
Q 3406 3131 3298 2873 
Q 3191 2616 2906 2266 
Q 2828 2175 2409 1742 
Q 1991 1309 1228 531 
z
" transform="scale(0.015625)"/>
       </defs>
       <use xlink:href="#DejaVuSans-32"/>
      </g>
     </g>
    </g>
    <g id="xtick_3">
     <g id="line2d_9">
      <path d="M 230.8608 298.944 
L 230.8608 6.912 
" clip-path="url(#p55711071d5)" style="fill: none; stroke: #b0b0b0; stroke-width: 0.8; stroke-linecap: square"/>
     </g>
     <g id="line2d_10">
      <g>
       <use xlink:href="#md1f6b54cef" x="230.8608" y="298.944" style="stroke: #000000; stroke-width: 0.8"/>
      </g>
     </g>
     <g id="text_3">
      <!-- 4 -->
      <g transform="translate(225.452675 318.861344)scale(0.17 -0.17)">
       <defs>
        <path id="DejaVuSans-34" d="M 2419 4116 
L 825 1625 
L 2419 1625 
L 2419 4116 
z
M 2253 4666 
L 3047 4666 
L 3047 1625 
L 3713 1625 
L 3713 1100 
L 3047 1100 
L 3047 0 
L 2419 0 
L 2419 1100 
L 313 1100 
L 313 1709 
L 2253 4666 
z
" transform="scale(0.015625)"/>
       </defs>
       <use xlink:href="#DejaVuSans-34"/>
      </g>
     </g>
    </g>
    <g id="xtick_4">
     <g id="line2d_11">
      <path d="M 317.4912 298.944 
L 317.4912 6.912 
" clip-path="url(#p55711071d5)" style="fill: none; stroke: #b0b0b0; stroke-width: 0.8; stroke-linecap: square"/>
     </g>
     <g id="line2d_12">
      <g>
       <use xlink:href="#md1f6b54cef" x="317.4912" y="298.944" style="stroke: #000000; stroke-width: 0.8"/>
      </g>
     </g>
     <g id="text_4">
      <!-- 6 -->
      <g transform="translate(312.083075 318.861344)scale(0.17 -0.17)">
       <defs>
        <path id="DejaVuSans-36" d="M 2113 2584 
Q 1688 2584 1439 2293 
Q 1191 2003 1191 1497 
Q 1191 994 1439 701 
Q 1688 409 2113 409 
Q 2538 409 2786 701 
Q 3034 994 3034 1497 
Q 3034 2003 2786 2293 
Q 2538 2584 2113 2584 
z
M 3366 4563 
L 3366 3988 
Q 3128 4100 2886 4159 
Q 2644 4219 2406 4219 
Q 1781 4219 1451 3797 
Q 1122 3375 1075 2522 
Q 1259 2794 1537 2939 
Q 1816 3084 2150 3084 
Q 2853 3084 3261 2657 
Q 3669 2231 3669 1497 
Q 3669 778 3244 343 
Q 2819 -91 2113 -91 
Q 1303 -91 875 529 
Q 447 1150 447 2328 
Q 447 3434 972 4092 
Q 1497 4750 2381 4750 
Q 2619 4750 2861 4703 
Q 3103 4656 3366 4563 
z
" transform="scale(0.015625)"/>
       </defs>
       <use xlink:href="#DejaVuSans-36"/>
      </g>
     </g>
    </g>
    <g id="xtick_5">
     <g id="line2d_13">
      <path d="M 100.9152 298.944 
L 100.9152 6.912 
" clip-path="url(#p55711071d5)" style="fill: none; stroke: #b0b0b0; stroke-width: 0.8; stroke-linecap: square"/>
     </g>
     <g id="line2d_14">
      <defs>
       <path id="ma8ab000b94" d="M 0 0 
L 0 2 
" style="stroke: #000000; stroke-width: 0.6"/>
      </defs>
      <g>
       <use xlink:href="#ma8ab000b94" x="100.9152" y="298.944" style="stroke: #000000; stroke-width: 0.6"/>
      </g>
     </g>
    </g>
    <g id="xtick_6">
     <g id="line2d_15">
      <path d="M 187.5456 298.944 
L 187.5456 6.912 
" clip-path="url(#p55711071d5)" style="fill: none; stroke: #b0b0b0; stroke-width: 0.8; stroke-linecap: square"/>
     </g>
     <g id="line2d_16">
      <g>
       <use xlink:href="#ma8ab000b94" x="187.5456" y="298.944" style="stroke: #000000; stroke-width: 0.6"/>
      </g>
     </g>
    </g>
    <g id="xtick_7">
     <g id="line2d_17">
      <path d="M 274.176 298.944 
L 274.176 6.912 
" clip-path="url(#p55711071d5)" style="fill: none; stroke: #b0b0b0; stroke-width: 0.8; stroke-linecap: square"/>
     </g>
     <g id="line2d_18">
      <g>
       <use xlink:href="#ma8ab000b94" x="274.176" y="298.944" style="stroke: #000000; stroke-width: 0.6"/>
      </g>
     </g>
    </g>
    <g id="xtick_8">
     <g id="line2d_19">
      <path d="M 360.8064 298.944 
L 360.8064 6.912 
" clip-path="url(#p55711071d5)" style="fill: none; stroke: #b0b0b0; stroke-width: 0.8; stroke-linecap: square"/>
     </g>
     <g id="line2d_20">
      <g>
       <use xlink:href="#ma8ab000b94" x="360.8064" y="298.944" style="stroke: #000000; stroke-width: 0.6"/>
      </g>
     </g>
    </g>
    <g id="text_5">
     <!-- log10(# f-evals / dimension) -->
     <g transform="translate(88.823278 339.314156)scale(0.17 -0.17)">
      <defs>
       <path id="DejaVuSans-6c" d="M 603 4863 
L 1178 4863 
L 1178 0 
L 603 0 
L 603 4863 
z
" transform="scale(0.015625)"/>
       <path id="DejaVuSans-6f" d="M 1959 3097 
Q 1497 3097 1228 2736 
Q 959 2375 959 1747 
Q 959 1119 1226 758 
Q 1494 397 1959 397 
Q 2419 397 2687 759 
Q 2956 1122 2956 1747 
Q 2956 2369 2687 2733 
Q 2419 3097 1959 3097 
z
M 1959 3584 
Q 2709 3584 3137 3096 
Q 3566 2609 3566 1747 
Q 3566 888 3137 398 
Q 2709 -91 1959 -91 
Q 1206 -91 779 398 
Q 353 888 353 1747 
Q 353 2609 779 3096 
Q 1206 3584 1959 3584 
z
" transform="scale(0.015625)"/>
       <path id="DejaVuSans-67" d="M 2906 1791 
Q 2906 2416 2648 2759 
Q 2391 3103 1925 3103 
Q 1463 3103 1205 2759 
Q 947 2416 947 1791 
Q 947 1169 1205 825 
Q 1463 481 1925 481 
Q 2391 481 2648 825 
Q 2906 1169 2906 1791 
z
M 3481 434 
Q 3481 -459 3084 -895 
Q 2688 -1331 1869 -1331 
Q 1566 -1331 1297 -1286 
Q 1028 -1241 775 -1147 
L 775 -588 
Q 1028 -725 1275 -790 
Q 1522 -856 1778 -856 
Q 2344 -856 2625 -561 
Q 2906 -266 2906 331 
L 2906 616 
Q 2728 306 2450 153 
Q 2172 0 1784 0 
Q 1141 0 747 490 
Q 353 981 353 1791 
Q 353 2603 747 3093 
Q 1141 3584 1784 3584 
Q 2172 3584 2450 3431 
Q 2728 3278 2906 2969 
L 2906 3500 
L 3481 3500 
L 3481 434 
z
" transform="scale(0.015625)"/>
       <path id="DejaVuSans-31" d="M 794 531 
L 1825 531 
L 1825 4091 
L 703 3866 
L 703 4441 
L 1819 4666 
L 2450 4666 
L 2450 531 
L 3481 531 
L 3481 0 
L 794 0 
L 794 531 
z
" transform="scale(0.015625)"/>
       <path id="DejaVuSans-28" d="M 1984 4856 
Q 1566 4138 1362 3434 
Q 1159 2731 1159 2009 
Q 1159 1288 1364 580 
Q 1569 -128 1984 -844 
L 1484 -844 
Q 1016 -109 783 600 
Q 550 1309 550 2009 
Q 550 2706 781 3412 
Q 1013 4119 1484 4856 
L 1984 4856 
z
" transform="scale(0.015625)"/>
       <path id="DejaVuSans-23" d="M 3272 2816 
L 2363 2816 
L 2100 1772 
L 3016 1772 
L 3272 2816 
z
M 2803 4594 
L 2478 3297 
L 3391 3297 
L 3719 4594 
L 4219 4594 
L 3897 3297 
L 4872 3297 
L 4872 2816 
L 3775 2816 
L 3519 1772 
L 4513 1772 
L 4513 1294 
L 3397 1294 
L 3072 0 
L 2572 0 
L 2894 1294 
L 1978 1294 
L 1656 0 
L 1153 0 
L 1478 1294 
L 494 1294 
L 494 1772 
L 1594 1772 
L 1856 2816 
L 850 2816 
L 850 3297 
L 1978 3297 
L 2297 4594 
L 2803 4594 
z
" transform="scale(0.015625)"/>
       <path id="DejaVuSans-20" transform="scale(0.015625)"/>
       <path id="DejaVuSans-66" d="M 2375 4863 
L 2375 4384 
L 1825 4384 
Q 1516 4384 1395 4259 
Q 1275 4134 1275 3809 
L 1275 3500 
L 2222 3500 
L 2222 3053 
L 1275 3053 
L 1275 0 
L 697 0 
L 697 3053 
L 147 3053 
L 147 3500 
L 697 3500 
L 697 3744 
Q 697 4328 969 4595 
Q 1241 4863 1831 4863 
L 2375 4863 
z
" transform="scale(0.015625)"/>
       <path id="DejaVuSans-2d" d="M 313 2009 
L 1997 2009 
L 1997 1497 
L 313 1497 
L 313 2009 
z
" transform="scale(0.015625)"/>
       <path id="DejaVuSans-65" d="M 3597 1894 
L 3597 1613 
L 953 1613 
Q 991 1019 1311 708 
Q 1631 397 2203 397 
Q 2534 397 2845 478 
Q 3156 559 3463 722 
L 3463 178 
Q 3153 47 2828 -22 
Q 2503 -91 2169 -91 
Q 1331 -91 842 396 
Q 353 884 353 1716 
Q 353 2575 817 3079 
Q 1281 3584 2069 3584 
Q 2775 3584 3186 3129 
Q 3597 2675 3597 1894 
z
M 3022 2063 
Q 3016 2534 2758 2815 
Q 2500 3097 2075 3097 
Q 1594 3097 1305 2825 
Q 1016 2553 972 2059 
L 3022 2063 
z
" transform="scale(0.015625)"/>
       <path id="DejaVuSans-76" d="M 191 3500 
L 800 3500 
L 1894 563 
L 2988 3500 
L 3597 3500 
L 2284 0 
L 1503 0 
L 191 3500 
z
" transform="scale(0.015625)"/>
       <path id="DejaVuSans-61" d="M 2194 1759 
Q 1497 1759 1228 1600 
Q 959 1441 959 1056 
Q 959 750 1161 570 
Q 1363 391 1709 391 
Q 2188 391 2477 730 
Q 2766 1069 2766 1631 
L 2766 1759 
L 2194 1759 
z
M 3341 1997 
L 3341 0 
L 2766 0 
L 2766 531 
Q 2569 213 2275 61 
Q 1981 -91 1556 -91 
Q 1019 -91 701 211 
Q 384 513 384 1019 
Q 384 1609 779 1909 
Q 1175 2209 1959 2209 
L 2766 2209 
L 2766 2266 
Q 2766 2663 2505 2880 
Q 2244 3097 1772 3097 
Q 1472 3097 1187 3025 
Q 903 2953 641 2809 
L 641 3341 
Q 956 3463 1253 3523 
Q 1550 3584 1831 3584 
Q 2591 3584 2966 3190 
Q 3341 2797 3341 1997 
z
" transform="scale(0.015625)"/>
       <path id="DejaVuSans-73" d="M 2834 3397 
L 2834 2853 
Q 2591 2978 2328 3040 
Q 2066 3103 1784 3103 
Q 1356 3103 1142 2972 
Q 928 2841 928 2578 
Q 928 2378 1081 2264 
Q 1234 2150 1697 2047 
L 1894 2003 
Q 2506 1872 2764 1633 
Q 3022 1394 3022 966 
Q 3022 478 2636 193 
Q 2250 -91 1575 -91 
Q 1294 -91 989 -36 
Q 684 19 347 128 
L 347 722 
Q 666 556 975 473 
Q 1284 391 1588 391 
Q 1994 391 2212 530 
Q 2431 669 2431 922 
Q 2431 1156 2273 1281 
Q 2116 1406 1581 1522 
L 1381 1569 
Q 847 1681 609 1914 
Q 372 2147 372 2553 
Q 372 3047 722 3315 
Q 1072 3584 1716 3584 
Q 2034 3584 2315 3537 
Q 2597 3491 2834 3397 
z
" transform="scale(0.015625)"/>
       <path id="DejaVuSans-2f" d="M 1625 4666 
L 2156 4666 
L 531 -594 
L 0 -594 
L 1625 4666 
z
" transform="scale(0.015625)"/>
       <path id="DejaVuSans-64" d="M 2906 2969 
L 2906 4863 
L 3481 4863 
L 3481 0 
L 2906 0 
L 2906 525 
Q 2725 213 2448 61 
Q 2172 -91 1784 -91 
Q 1150 -91 751 415 
Q 353 922 353 1747 
Q 353 2572 751 3078 
Q 1150 3584 1784 3584 
Q 2172 3584 2448 3432 
Q 2725 3281 2906 2969 
z
M 947 1747 
Q 947 1113 1208 752 
Q 1469 391 1925 391 
Q 2381 391 2643 752 
Q 2906 1113 2906 1747 
Q 2906 2381 2643 2742 
Q 2381 3103 1925 3103 
Q 1469 3103 1208 2742 
Q 947 2381 947 1747 
z
" transform="scale(0.015625)"/>
       <path id="DejaVuSans-69" d="M 603 3500 
L 1178 3500 
L 1178 0 
L 603 0 
L 603 3500 
z
M 603 4863 
L 1178 4863 
L 1178 4134 
L 603 4134 
L 603 4863 
z
" transform="scale(0.015625)"/>
       <path id="DejaVuSans-6d" d="M 3328 2828 
Q 3544 3216 3844 3400 
Q 4144 3584 4550 3584 
Q 5097 3584 5394 3201 
Q 5691 2819 5691 2113 
L 5691 0 
L 5113 0 
L 5113 2094 
Q 5113 2597 4934 2840 
Q 4756 3084 4391 3084 
Q 3944 3084 3684 2787 
Q 3425 2491 3425 1978 
L 3425 0 
L 2847 0 
L 2847 2094 
Q 2847 2600 2669 2842 
Q 2491 3084 2119 3084 
Q 1678 3084 1418 2786 
Q 1159 2488 1159 1978 
L 1159 0 
L 581 0 
L 581 3500 
L 1159 3500 
L 1159 2956 
Q 1356 3278 1631 3431 
Q 1906 3584 2284 3584 
Q 2666 3584 2933 3390 
Q 3200 3197 3328 2828 
z
" transform="scale(0.015625)"/>
       <path id="DejaVuSans-6e" d="M 3513 2113 
L 3513 0 
L 2938 0 
L 2938 2094 
Q 2938 2591 2744 2837 
Q 2550 3084 2163 3084 
Q 1697 3084 1428 2787 
Q 1159 2491 1159 1978 
L 1159 0 
L 581 0 
L 581 3500 
L 1159 3500 
L 1159 2956 
Q 1366 3272 1645 3428 
Q 1925 3584 2291 3584 
Q 2894 3584 3203 3211 
Q 3513 2838 3513 2113 
z
" transform="scale(0.015625)"/>
       <path id="DejaVuSans-29" d="M 513 4856 
L 1013 4856 
Q 1481 4119 1714 3412 
Q 1947 2706 1947 2009 
Q 1947 1309 1714 600 
Q 1481 -109 1013 -844 
L 513 -844 
Q 928 -128 1133 580 
Q 1338 1288 1338 2009 
Q 1338 2731 1133 3434 
Q 928 4138 513 4856 
z
" transform="scale(0.015625)"/>
      </defs>
      <use xlink:href="#DejaVuSans-6c"/>
      <use xlink:href="#DejaVuSans-6f" x="27.783203"/>
      <use xlink:href="#DejaVuSans-67" x="88.964844"/>
      <use xlink:href="#DejaVuSans-31" x="152.441406"/>
      <use xlink:href="#DejaVuSans-30" x="216.064453"/>
      <use xlink:href="#DejaVuSans-28" x="279.6875"/>
      <use xlink:href="#DejaVuSans-23" x="318.701172"/>
      <use xlink:href="#DejaVuSans-20" x="402.490234"/>
      <use xlink:href="#DejaVuSans-66" x="434.277344"/>
      <use xlink:href="#DejaVuSans-2d" x="463.982422"/>
      <use xlink:href="#DejaVuSans-65" x="500.066406"/>
      <use xlink:href="#DejaVuSans-76" x="561.589844"/>
      <use xlink:href="#DejaVuSans-61" x="620.769531"/>
      <use xlink:href="#DejaVuSans-6c" x="682.048828"/>
      <use xlink:href="#DejaVuSans-73" x="709.832031"/>
      <use xlink:href="#DejaVuSans-20" x="761.931641"/>
      <use xlink:href="#DejaVuSans-2f" x="793.71875"/>
      <use xlink:href="#DejaVuSans-20" x="827.410156"/>
      <use xlink:href="#DejaVuSans-64" x="859.197266"/>
      <use xlink:href="#DejaVuSans-69" x="922.673828"/>
      <use xlink:href="#DejaVuSans-6d" x="950.457031"/>
      <use xlink:href="#DejaVuSans-65" x="1047.869141"/>
      <use xlink:href="#DejaVuSans-6e" x="1109.392578"/>
      <use xlink:href="#DejaVuSans-73" x="1172.771484"/>
      <use xlink:href="#DejaVuSans-69" x="1224.871094"/>
      <use xlink:href="#DejaVuSans-6f" x="1252.654297"/>
      <use xlink:href="#DejaVuSans-6e" x="1313.835938"/>
      <use xlink:href="#DejaVuSans-29" x="1377.214844"/>
     </g>
    </g>
   </g>
   <g id="matplotlib.axis_2">
    <g id="ytick_1">
     <g id="line2d_21">
      <path d="M 57.6 298.944 
L 360.8064 298.944 
" clip-path="url(#p55711071d5)" style="fill: none; stroke: #b0b0b0; stroke-width: 0.8; stroke-linecap: square"/>
     </g>
     <g id="line2d_22">
      <defs>
       <path id="mb331375e72" d="M 0 0 
L -3.5 0 
" style="stroke: #000000; stroke-width: 0.8"/>
      </defs>
      <g>
       <use xlink:href="#mb331375e72" x="57.6" y="298.944" style="stroke: #000000; stroke-width: 0.8"/>
      </g>
     </g>
     <g id="text_6">
      <!-- 0.0 -->
      <g transform="translate(25.155 305.02275)scale(0.16 -0.16)">
       <defs>
        <path id="DejaVuSans-2e" d="M 684 794 
L 1344 794 
L 1344 0 
L 684 0 
L 684 794 
z
" transform="scale(0.015625)"/>
       </defs>
       <use xlink:href="#DejaVuSans-30"/>
       <use xlink:href="#DejaVuSans-2e" x="63.623047"/>
       <use xlink:href="#DejaVuSans-30" x="95.410156"/>
      </g>
     </g>
    </g>
    <g id="ytick_2">
     <g id="line2d_23">
      <path d="M 57.6 240.5376 
L 360.8064 240.5376 
" clip-path="url(#p55711071d5)" style="fill: none; stroke: #b0b0b0; stroke-width: 0.8; stroke-linecap: square"/>
     </g>
     <g id="line2d_24">
      <g>
       <use xlink:href="#mb331375e72" x="57.6" y="240.5376" style="stroke: #000000; stroke-width: 0.8"/>
      </g>
     </g>
     <g id="text_7">
      <!-- 0.2 -->
      <g transform="translate(25.155 246.61635)scale(0.16 -0.16)">
       <use xlink:href="#DejaVuSans-30"/>
       <use xlink:href="#DejaVuSans-2e" x="63.623047"/>
       <use xlink:href="#DejaVuSans-32" x="95.410156"/>
      </g>
     </g>
    </g>
    <g id="ytick_3">
     <g id="line2d_25">
      <path d="M 57.6 182.1312 
L 360.8064 182.1312 
" clip-path="url(#p55711071d5)" style="fill: none; stroke: #b0b0b0; stroke-width: 0.8; stroke-linecap: square"/>
     </g>
     <g id="line2d_26">
      <g>
       <use xlink:href="#mb331375e72" x="57.6" y="182.1312" style="stroke: #000000; stroke-width: 0.8"/>
      </g>
     </g>
     <g id="text_8">
      <!-- 0.4 -->
      <g transform="translate(25.155 188.20995)scale(0.16 -0.16)">
       <use xlink:href="#DejaVuSans-30"/>
       <use xlink:href="#DejaVuSans-2e" x="63.623047"/>
       <use xlink:href="#DejaVuSans-34" x="95.410156"/>
      </g>
     </g>
    </g>
    <g id="ytick_4">
     <g id="line2d_27">
      <path d="M 57.6 123.7248 
L 360.8064 123.7248 
" clip-path="url(#p55711071d5)" style="fill: none; stroke: #b0b0b0; stroke-width: 0.8; stroke-linecap: square"/>
     </g>
     <g id="line2d_28">
      <g>
       <use xlink:href="#mb331375e72" x="57.6" y="123.7248" style="stroke: #000000; stroke-width: 0.8"/>
      </g>
     </g>
     <g id="text_9">
      <!-- 0.6 -->
      <g transform="translate(25.155 129.80355)scale(0.16 -0.16)">
       <use xlink:href="#DejaVuSans-30"/>
       <use xlink:href="#DejaVuSans-2e" x="63.623047"/>
       <use xlink:href="#DejaVuSans-36" x="95.410156"/>
      </g>
     </g>
    </g>
    <g id="ytick_5">
     <g id="line2d_29">
      <path d="M 57.6 65.3184 
L 360.8064 65.3184 
" clip-path="url(#p55711071d5)" style="fill: none; stroke: #b0b0b0; stroke-width: 0.8; stroke-linecap: square"/>
     </g>
     <g id="line2d_30">
      <g>
       <use xlink:href="#mb331375e72" x="57.6" y="65.3184" style="stroke: #000000; stroke-width: 0.8"/>
      </g>
     </g>
     <g id="text_10">
      <!-- 0.8 -->
      <g transform="translate(25.155 71.39715)scale(0.16 -0.16)">
       <defs>
        <path id="DejaVuSans-38" d="M 2034 2216 
Q 1584 2216 1326 1975 
Q 1069 1734 1069 1313 
Q 1069 891 1326 650 
Q 1584 409 2034 409 
Q 2484 409 2743 651 
Q 3003 894 3003 1313 
Q 3003 1734 2745 1975 
Q 2488 2216 2034 2216 
z
M 1403 2484 
Q 997 2584 770 2862 
Q 544 3141 544 3541 
Q 544 4100 942 4425 
Q 1341 4750 2034 4750 
Q 2731 4750 3128 4425 
Q 3525 4100 3525 3541 
Q 3525 3141 3298 2862 
Q 3072 2584 2669 2484 
Q 3125 2378 3379 2068 
Q 3634 1759 3634 1313 
Q 3634 634 3220 271 
Q 2806 -91 2034 -91 
Q 1263 -91 848 271 
Q 434 634 434 1313 
Q 434 1759 690 2068 
Q 947 2378 1403 2484 
z
M 1172 3481 
Q 1172 3119 1398 2916 
Q 1625 2713 2034 2713 
Q 2441 2713 2670 2916 
Q 2900 3119 2900 3481 
Q 2900 3844 2670 4047 
Q 2441 4250 2034 4250 
Q 1625 4250 1398 4047 
Q 1172 3844 1172 3481 
z
" transform="scale(0.015625)"/>
       </defs>
       <use xlink:href="#DejaVuSans-30"/>
       <use xlink:href="#DejaVuSans-2e" x="63.623047"/>
       <use xlink:href="#DejaVuSans-38" x="95.410156"/>
      </g>
     </g>
    </g>
    <g id="ytick_6">
     <g id="line2d_31">
      <path d="M 57.6 6.912 
L 360.8064 6.912 
" clip-path="url(#p55711071d5)" style="fill: none; stroke: #b0b0b0; stroke-width: 0.8; stroke-linecap: square"/>
     </g>
     <g id="line2d_32">
      <g>
       <use xlink:href="#mb331375e72" x="57.6" y="6.912" style="stroke: #000000; stroke-width: 0.8"/>
      </g>
     </g>
     <g id="text_11">
      <!-- 1.0 -->
      <g transform="translate(25.155 12.99075)scale(0.16 -0.16)">
       <use xlink:href="#DejaVuSans-31"/>
       <use xlink:href="#DejaVuSans-2e" x="63.623047"/>
       <use xlink:href="#DejaVuSans-30" x="95.410156"/>
      </g>
     </g>
    </g>
    <g id="text_12">
     <!-- Fraction of function,target pairs -->
     <g transform="translate(17.619531 287.313)rotate(-90)scale(0.17 -0.17)">
      <defs>
       <path id="DejaVuSans-46" d="M 628 4666 
L 3309 4666 
L 3309 4134 
L 1259 4134 
L 1259 2759 
L 3109 2759 
L 3109 2228 
L 1259 2228 
L 1259 0 
L 628 0 
L 628 4666 
z
" transform="scale(0.015625)"/>
       <path id="DejaVuSans-72" d="M 2631 2963 
Q 2534 3019 2420 3045 
Q 2306 3072 2169 3072 
Q 1681 3072 1420 2755 
Q 1159 2438 1159 1844 
L 1159 0 
L 581 0 
L 581 3500 
L 1159 3500 
L 1159 2956 
Q 1341 3275 1631 3429 
Q 1922 3584 2338 3584 
Q 2397 3584 2469 3576 
Q 2541 3569 2628 3553 
L 2631 2963 
z
" transform="scale(0.015625)"/>
       <path id="DejaVuSans-63" d="M 3122 3366 
L 3122 2828 
Q 2878 2963 2633 3030 
Q 2388 3097 2138 3097 
Q 1578 3097 1268 2742 
Q 959 2388 959 1747 
Q 959 1106 1268 751 
Q 1578 397 2138 397 
Q 2388 397 2633 464 
Q 2878 531 3122 666 
L 3122 134 
Q 2881 22 2623 -34 
Q 2366 -91 2075 -91 
Q 1284 -91 818 406 
Q 353 903 353 1747 
Q 353 2603 823 3093 
Q 1294 3584 2113 3584 
Q 2378 3584 2631 3529 
Q 2884 3475 3122 3366 
z
" transform="scale(0.015625)"/>
       <path id="DejaVuSans-74" d="M 1172 4494 
L 1172 3500 
L 2356 3500 
L 2356 3053 
L 1172 3053 
L 1172 1153 
Q 1172 725 1289 603 
Q 1406 481 1766 481 
L 2356 481 
L 2356 0 
L 1766 0 
Q 1100 0 847 248 
Q 594 497 594 1153 
L 594 3053 
L 172 3053 
L 172 3500 
L 594 3500 
L 594 4494 
L 1172 4494 
z
" transform="scale(0.015625)"/>
       <path id="DejaVuSans-75" d="M 544 1381 
L 544 3500 
L 1119 3500 
L 1119 1403 
Q 1119 906 1312 657 
Q 1506 409 1894 409 
Q 2359 409 2629 706 
Q 2900 1003 2900 1516 
L 2900 3500 
L 3475 3500 
L 3475 0 
L 2900 0 
L 2900 538 
Q 2691 219 2414 64 
Q 2138 -91 1772 -91 
Q 1169 -91 856 284 
Q 544 659 544 1381 
z
M 1991 3584 
L 1991 3584 
z
" transform="scale(0.015625)"/>
       <path id="DejaVuSans-2c" d="M 750 794 
L 1409 794 
L 1409 256 
L 897 -744 
L 494 -744 
L 750 256 
L 750 794 
z
" transform="scale(0.015625)"/>
       <path id="DejaVuSans-70" d="M 1159 525 
L 1159 -1331 
L 581 -1331 
L 581 3500 
L 1159 3500 
L 1159 2969 
Q 1341 3281 1617 3432 
Q 1894 3584 2278 3584 
Q 2916 3584 3314 3078 
Q 3713 2572 3713 1747 
Q 3713 922 3314 415 
Q 2916 -91 2278 -91 
Q 1894 -91 1617 61 
Q 1341 213 1159 525 
z
M 3116 1747 
Q 3116 2381 2855 2742 
Q 2594 3103 2138 3103 
Q 1681 3103 1420 2742 
Q 1159 2381 1159 1747 
Q 1159 1113 1420 752 
Q 1681 391 2138 391 
Q 2594 391 2855 752 
Q 3116 1113 3116 1747 
z
" transform="scale(0.015625)"/>
      </defs>
      <use xlink:href="#DejaVuSans-46"/>
      <use xlink:href="#DejaVuSans-72" x="50.269531"/>
      <use xlink:href="#DejaVuSans-61" x="91.382812"/>
      <use xlink:href="#DejaVuSans-63" x="152.662109"/>
      <use xlink:href="#DejaVuSans-74" x="207.642578"/>
      <use xlink:href="#DejaVuSans-69" x="246.851562"/>
      <use xlink:href="#DejaVuSans-6f" x="274.634766"/>
      <use xlink:href="#DejaVuSans-6e" x="335.816406"/>
      <use xlink:href="#DejaVuSans-20" x="399.195312"/>
      <use xlink:href="#DejaVuSans-6f" x="430.982422"/>
      <use xlink:href="#DejaVuSans-66" x="492.164062"/>
      <use xlink:href="#DejaVuSans-20" x="527.369141"/>
      <use xlink:href="#DejaVuSans-66" x="559.15625"/>
      <use xlink:href="#DejaVuSans-75" x="594.361328"/>
      <use xlink:href="#DejaVuSans-6e" x="657.740234"/>
      <use xlink:href="#DejaVuSans-63" x="721.119141"/>
      <use xlink:href="#DejaVuSans-74" x="776.099609"/>
      <use xlink:href="#DejaVuSans-69" x="815.308594"/>
      <use xlink:href="#DejaVuSans-6f" x="843.091797"/>
      <use xlink:href="#DejaVuSans-6e" x="904.273438"/>
      <use xlink:href="#DejaVuSans-2c" x="967.652344"/>
      <use xlink:href="#DejaVuSans-74" x="999.439453"/>
      <use xlink:href="#DejaVuSans-61" x="1038.648438"/>
      <use xlink:href="#DejaVuSans-72" x="1099.927734"/>
      <use xlink:href="#DejaVuSans-67" x="1139.291016"/>
      <use xlink:href="#DejaVuSans-65" x="1202.767578"/>
      <use xlink:href="#DejaVuSans-74" x="1264.291016"/>
      <use xlink:href="#DejaVuSans-20" x="1303.5"/>
      <use xlink:href="#DejaVuSans-70" x="1335.287109"/>
      <use xlink:href="#DejaVuSans-61" x="1398.763672"/>
      <use xlink:href="#DejaVuSans-69" x="1460.042969"/>
      <use xlink:href="#DejaVuSans-72" x="1487.826172"/>
      <use xlink:href="#DejaVuSans-73" x="1528.939453"/>
     </g>
    </g>
   </g>
   <g id="line2d_33">
    <defs>
     <path id="mf3a85f2765" d="M 0 1.5 
C 0.397805 1.5 0.77937 1.341951 1.06066 1.06066 
C 1.341951 0.77937 1.5 0.397805 1.5 0 
C 1.5 -0.397805 1.341951 -0.77937 1.06066 -1.06066 
C 0.77937 -1.341951 0.397805 -1.5 0 -1.5 
C -0.397805 -1.5 -0.77937 -1.341951 -1.06066 -1.06066 
C -1.341951 -0.77937 -1.5 -0.397805 -1.5 0 
C -1.5 0.397805 -1.341951 0.77937 -1.06066 1.06066 
C -0.77937 1.341951 -0.397805 1.5 0 1.5 
z
" style="stroke: #f5deb3"/>
    </defs>
    <g>
     <use xlink:href="#mf3a85f2765" x="269.79318" y="42.157241" style="fill: #f5deb3; stroke: #f5deb3"/>
     <use xlink:href="#mf3a85f2765" x="269.79318" y="42.157241" style="fill: #f5deb3; stroke: #f5deb3"/>
    </g>
   </g>
   <g id="line2d_34">
    <defs>
     <path id="m640cb0e156" d="M 0 1.5 
C 0.397805 1.5 0.77937 1.341951 1.06066 1.06066 
C 1.341951 0.77937 1.5 0.397805 1.5 0 
C 1.5 -0.397805 1.341951 -0.77937 1.06066 -1.06066 
C 0.77937 -1.341951 0.397805 -1.5 0 -1.5 
C -0.397805 -1.5 -0.77937 -1.341951 -1.06066 -1.06066 
C -1.341951 -0.77937 -1.5 -0.397805 -1.5 0 
C -1.5 0.397805 -1.341951 0.77937 -1.06066 1.06066 
C -0.77937 1.341951 -0.397805 1.5 0 1.5 
z
" style="stroke: #000080"/>
    </defs>
    <g>
     <use xlink:href="#m640cb0e156" x="83.678349" y="276.412221" style="fill: #000080; stroke: #000080"/>
     <use xlink:href="#m640cb0e156" x="83.678349" y="276.412221" style="fill: #000080; stroke: #000080"/>
    </g>
   </g>
   <g id="line2d_35">
    <path d="M 44.560826 298.944 
L 44.560826 292.524331 
L 57.6 292.524331 
L 57.6 288.873931 
L 65.227428 288.873931 
L 65.227428 286.104662 
L 70.639174 286.104662 
L 70.639174 284.090648 
L 74.836851 284.090648 
L 74.836851 282.328386 
L 78.266603 282.328386 
L 78.266603 281.321379 
L 81.166416 281.321379 
L 81.166416 278.55211 
L 83.678349 278.55211 
L 83.678349 276.412221 
L 360.8064 276.412221 
" style="fill: none; stroke: #000080; stroke-width: 1.5; stroke-linecap: square"/>
   </g>
   <g id="line2d_36">
    <defs>
     <path id="m3f50089dd2" d="M 0 6 
C 1.591219 6 3.117479 5.367802 4.242641 4.242641 
C 5.367802 3.117479 6 1.591219 6 0 
C 6 -1.591219 5.367802 -3.117479 4.242641 -4.242641 
C 3.117479 -5.367802 1.591219 -6 0 -6 
C -1.591219 -6 -3.117479 -5.367802 -4.242641 -4.242641 
C -5.367802 -3.117479 -6 -1.591219 -6 0 
C -6 1.591219 -5.367802 3.117479 -4.242641 4.242641 
C -3.117479 5.367802 -1.591219 6 0 6 
z
" style="stroke: #000080; stroke-width: 1.5"/>
    </defs>
    <g>
     <use xlink:href="#m3f50089dd2" x="78.266603" y="281.321379" style="fill-opacity: 0; stroke: #000080; stroke-width: 1.5"/>
     <use xlink:href="#m3f50089dd2" x="83.678349" y="278.55211" style="fill-opacity: 0; stroke: #000080; stroke-width: 1.5"/>
     <use xlink:href="#m3f50089dd2" x="83.678349" y="278.55211" style="fill-opacity: 0; stroke: #000080; stroke-width: 1.5"/>
     <use xlink:href="#m3f50089dd2" x="83.678349" y="276.412221" style="fill-opacity: 0; stroke: #000080; stroke-width: 1.5"/>
     <use xlink:href="#m3f50089dd2" x="83.678349" y="276.412221" style="fill-opacity: 0; stroke: #000080; stroke-width: 1.5"/>
     <use xlink:href="#m3f50089dd2" x="360.8064" y="276.412221" style="fill-opacity: 0; stroke: #000080; stroke-width: 1.5"/>
    </g>
   </g>
   <g id="line2d_37">
    <path style="fill: none; stroke: #000080; stroke-width: 1.5; stroke-linecap: square"/>
    <g/>
   </g>
   <g id="line2d_38">
    <path d="M 83.678349 276.412221 
" clip-path="url(#p55711071d5)" style="fill: none; stroke: #000080; stroke-width: 1.5; stroke-linecap: square"/>
    <defs>
     <path id="m0ddab648fe" d="M -12 12 
L 12 -12 
M -12 -12 
L 12 12 
" style="stroke: #000080"/>
    </defs>
    <g clip-path="url(#p55711071d5)">
     <use xlink:href="#m0ddab648fe" x="83.678349" y="276.412221" style="fill: #000080; stroke: #000080"/>
    </g>
   </g>
   <g id="line2d_39">
    <defs>
     <path id="m6d81ab0216" d="M 0 1.5 
C 0.397805 1.5 0.77937 1.341951 1.06066 1.06066 
C 1.341951 0.77937 1.5 0.397805 1.5 0 
C 1.5 -0.397805 1.341951 -0.77937 1.06066 -1.06066 
C 0.77937 -1.341951 0.397805 -1.5 0 -1.5 
C -0.397805 -1.5 -0.77937 -1.341951 -1.06066 -1.06066 
C -1.341951 -0.77937 -1.5 -0.397805 -1.5 0 
C -1.5 0.397805 -1.341951 0.77937 -1.06066 1.06066 
C -0.77937 1.341951 -0.397805 1.5 0 1.5 
z
" style="stroke: #ff00ff"/>
    </defs>
    <g>
     <use xlink:href="#m6d81ab0216" x="274.038267" y="84.451531" style="fill: #ff00ff; stroke: #ff00ff"/>
     <use xlink:href="#m6d81ab0216" x="274.038267" y="84.451531" style="fill: #ff00ff; stroke: #ff00ff"/>
    </g>
   </g>
   <g id="line2d_40">
    <path d="M 44.560826 298.944 
L 44.560826 292.524331 
L 57.6 292.524331 
L 57.6 289.377434 
L 65.227428 289.377434 
L 65.227428 288.370428 
L 70.639174 288.370428 
L 70.639174 287.866924 
L 74.836851 287.866924 
L 74.836851 286.48229 
L 78.266603 286.48229 
L 78.266603 284.720028 
L 81.166416 284.720028 
L 81.166416 282.957766 
L 83.678349 282.957766 
L 83.678349 282.454262 
L 85.894031 282.454262 
L 85.894031 282.076634 
L 87.876026 282.076634 
L 87.876026 281.950759 
L 89.668958 281.950759 
L 89.668958 281.195503 
L 91.305777 281.195503 
L 91.305777 280.566124 
L 92.811505 280.566124 
L 92.811505 278.55211 
L 95.503454 278.55211 
L 95.503454 278.048607 
L 96.717523 278.048607 
L 96.717523 277.670979 
L 97.857967 277.670979 
L 97.857967 277.419228 
L 98.933205 277.419228 
L 98.933205 276.789848 
L 99.950294 276.789848 
L 99.950294 276.663972 
L 100.9152 276.663972 
L 100.9152 276.538097 
L 101.833019 276.538097 
L 101.833019 276.412221 
L 102.708132 276.412221 
L 102.708132 275.279338 
L 103.544339 275.279338 
L 103.544339 273.768828 
L 104.344952 273.768828 
L 104.344952 273.642952 
L 105.112877 273.642952 
L 105.112877 272.635945 
L 106.560633 272.635945 
L 106.560633 272.006566 
L 107.244765 272.006566 
L 107.244765 271.628938 
L 109.756698 271.628938 
L 109.756698 271.25131 
L 111.97238 271.25131 
L 111.97238 270.873683 
L 112.487797 270.873683 
L 112.487797 270.370179 
L 112.989468 270.370179 
L 112.989468 270.118428 
L 113.478107 270.118428 
L 113.478107 269.992552 
L 113.954374 269.992552 
L 113.954374 269.614924 
L 114.418881 269.614924 
L 114.418881 269.489048 
L 114.872193 269.489048 
L 114.872193 269.363172 
L 115.314838 269.363172 
L 115.314838 268.607917 
L 116.170056 268.607917 
L 116.170056 268.356166 
L 117.772007 268.356166 
L 117.772007 268.104414 
L 118.152051 268.104414 
L 118.152051 267.978538 
L 118.889854 267.978538 
L 118.889854 267.852662 
L 119.24818 267.852662 
L 119.24818 267.726786 
L 119.599808 267.726786 
L 119.599808 267.475034 
L 119.944983 267.475034 
L 119.944983 266.971531 
L 120.28394 266.971531 
L 120.28394 266.845655 
L 121.265635 266.845655 
L 121.265635 266.719779 
L 121.581803 266.719779 
L 121.581803 266.468028 
L 121.892744 266.468028 
L 121.892744 266.0904 
L 122.795872 266.0904 
L 122.795872 265.712772 
L 123.08753 265.712772 
L 123.08753 265.586897 
L 123.374735 265.586897 
L 123.374735 265.083393 
L 123.657621 265.083393 
L 123.657621 264.328138 
L 123.936316 264.328138 
L 123.936316 264.202262 
L 124.481616 264.202262 
L 124.481616 263.95051 
L 124.748451 263.95051 
L 124.748451 263.824634 
L 126.028642 263.824634 
L 126.028642 263.572883 
L 126.756923 263.572883 
L 126.756923 263.447007 
L 126.993549 263.447007 
L 126.993549 263.321131 
L 127.227236 263.321131 
L 127.227236 263.069379 
L 127.458055 263.069379 
L 127.458055 262.44 
L 127.686077 262.44 
L 127.686077 262.314124 
L 128.133992 262.314124 
L 128.133992 262.188248 
L 128.354013 262.188248 
L 128.354013 261.936497 
L 128.57149 261.936497 
L 128.57149 261.558869 
L 129.417095 261.558869 
L 129.417095 261.307117 
L 129.826058 261.307117 
L 129.826058 261.181241 
L 130.027253 261.181241 
L 130.027253 261.055366 
L 130.618241 261.055366 
L 130.618241 260.92949 
L 130.811181 260.92949 
L 130.811181 260.425986 
L 131.002163 260.425986 
L 131.002163 260.048359 
L 131.191226 260.048359 
L 131.191226 259.670731 
L 131.378407 259.670731 
L 131.378407 259.544855 
L 131.563744 259.544855 
L 131.563744 259.041352 
L 132.109044 259.041352 
L 132.109044 258.663724 
L 132.46399 258.663724 
L 132.46399 258.286097 
L 132.638982 258.286097 
L 132.638982 257.782593 
L 132.812362 257.782593 
L 132.812362 257.27909 
L 132.984158 257.27909 
L 132.984158 257.027338 
L 133.490329 257.027338 
L 133.490329 256.901462 
L 133.656071 256.901462 
L 133.656071 256.775586 
L 133.983236 256.775586 
L 133.983236 256.64971 
L 134.14471 256.64971 
L 134.14471 255.768579 
L 134.620977 255.768579 
L 134.620977 255.642703 
L 134.77709 255.642703 
L 134.77709 255.1392 
L 134.931919 255.1392 
L 134.931919 254.887448 
L 135.085483 254.887448 
L 135.085483 254.635697 
L 135.237805 254.635697 
L 135.237805 254.509821 
L 135.388902 254.509821 
L 135.388902 254.132193 
L 135.835047 254.132193 
L 135.835047 254.006317 
L 136.126705 254.006317 
L 136.126705 253.62869 
L 136.270855 253.62869 
L 136.270855 253.502814 
L 136.555884 253.502814 
L 136.555884 252.873434 
L 136.696795 252.873434 
L 136.696795 252.747559 
L 137.113304 252.747559 
L 137.113304 252.621683 
L 137.919637 252.621683 
L 137.919637 251.992303 
L 138.180913 251.992303 
L 138.180913 251.740552 
L 138.566146 251.740552 
L 138.566146 251.614676 
L 138.692823 251.614676 
L 138.692823 251.237048 
L 138.818654 251.237048 
L 138.818654 251.111172 
L 138.943648 251.111172 
L 138.943648 250.859421 
L 139.067817 250.859421 
L 139.067817 250.607669 
L 139.191172 250.607669 
L 139.191172 250.230041 
L 139.435481 250.230041 
L 139.435481 249.97829 
L 139.556456 249.97829 
L 139.556456 249.223034 
L 139.676658 249.223034 
L 139.676658 248.971283 
L 139.796097 248.971283 
L 139.796097 248.719531 
L 140.032723 248.719531 
L 140.032723 248.341903 
L 140.14993 248.341903 
L 140.14993 247.8384 
L 140.26641 247.8384 
L 140.26641 247.460772 
L 140.382174 247.460772 
L 140.382174 247.209021 
L 140.725251 247.209021 
L 140.725251 247.083145 
L 140.838234 247.083145 
L 140.838234 246.705517 
L 141.062184 246.705517 
L 141.173167 246.32789 
L 141.393187 246.32789 
L 141.50224 245.069131 
L 141.718467 245.069131 
L 141.825656 244.062124 
L 142.038218 244.062124 
L 142.143605 243.810372 
L 142.248405 243.810372 
L 142.248405 243.558621 
L 142.559347 243.558621 
L 142.661862 243.055117 
L 142.865233 243.055117 
L 142.865233 242.551614 
L 143.364242 242.551614 
L 143.462475 241.670483 
L 143.850356 241.670483 
L 143.946089 241.041103 
L 144.041338 241.041103 
L 144.041338 240.915228 
L 145.148219 240.915228 
L 145.148219 240.663476 
L 145.415054 240.663476 
L 145.503164 240.285848 
L 145.765046 240.285848 
L 145.765046 239.908221 
L 146.023332 239.908221 
L 146.023332 239.404717 
L 146.27812 239.404717 
L 146.27812 239.278841 
L 146.446082 239.278841 
L 146.446082 239.02709 
L 146.612557 239.02709 
L 146.612557 238.649462 
L 147.022411 238.649462 
L 147.103321 238.145959 
L 147.264104 238.145959 
L 147.264104 237.894207 
L 147.502732 237.894207 
L 147.502732 237.642455 
L 147.893838 237.642455 
L 147.971093 237.264828 
L 148.124658 237.264828 
L 148.200973 237.013076 
L 148.874221 237.013076 
L 148.874221 236.8872 
L 149.238092 236.8872 
L 149.238092 236.635448 
L 149.381693 236.635448 
L 149.381693 236.383697 
L 149.595059 236.383697 
L 149.595059 236.131945 
L 150.221009 236.131945 
L 150.221009 236.006069 
L 150.62703 236.006069 
L 150.62703 235.754317 
L 150.892922 235.754317 
L 150.892922 235.628441 
L 151.155108 235.628441 
L 151.155108 235.37669 
L 151.284843 235.37669 
L 151.284843 235.250814 
L 151.795018 235.250814 
L 151.795018 235.124938 
L 151.920429 235.124938 
L 151.920429 234.74731 
L 152.106991 234.74731 
L 152.106991 234.369683 
L 152.291722 234.369683 
L 152.291722 234.117931 
L 152.715833 234.117931 
L 152.775647 233.614428 
L 153.189104 233.614428 
L 153.189104 233.488552 
L 153.421349 233.488552 
L 153.421349 233.2368 
L 153.707679 233.2368 
L 153.707679 233.110924 
L 154.04562 233.110924 
L 154.04562 232.859172 
L 154.212341 232.859172 
L 154.322673 232.607421 
L 154.432362 232.607421 
L 154.486967 232.103917 
L 154.595705 232.103917 
L 154.595705 231.852166 
L 155.13016 231.852166 
L 155.235253 231.474538 
L 156.155566 231.474538 
L 156.155566 231.222786 
L 156.403417 231.222786 
L 156.501649 230.593407 
L 156.648044 230.593407 
L 156.745011 229.712276 
L 156.84148 229.712276 
L 156.84148 229.460524 
L 156.985263 229.460524 
L 156.985263 229.082897 
L 157.175281 229.082897 
L 157.175281 228.957021 
L 157.410135 228.957021 
L 157.410135 228.705269 
L 157.642093 228.705269 
L 157.642093 228.579393 
L 158.187393 228.579393 
L 158.187393 228.327641 
L 158.365703 228.327641 
L 158.365703 227.950014 
L 158.58624 227.950014 
L 158.673735 227.572386 
L 159.062507 227.572386 
L 159.062507 227.320634 
L 159.485256 227.320634 
L 159.527013 227.068883 
L 159.651731 227.068883 
L 159.651731 226.691255 
L 161.087207 226.691255 
L 161.087207 226.565379 
L 161.240147 226.565379 
L 161.278189 225.684248 
L 161.504837 225.684248 
L 161.504837 225.432497 
L 162.05979 225.432497 
L 162.05979 225.180745 
L 162.810208 225.180745 
L 162.810208 224.928993 
L 162.984551 224.928993 
L 162.984551 224.803117 
L 163.464289 224.803117 
L 163.464289 224.677241 
L 163.79962 224.677241 
L 163.79962 224.42549 
L 164.030845 224.42549 
L 164.030845 224.299614 
L 165.1152 224.299614 
L 165.1152 224.173738 
L 165.96353 224.173738 
L 165.96353 224.047862 
L 166.228279 224.047862 
L 166.315707 223.544359 
L 166.489353 223.544359 
L 166.489353 223.418483 
L 166.718416 223.418483 
L 166.718416 223.292607 
L 167.553385 223.292607 
L 167.553385 223.040855 
L 167.823671 223.040855 
L 167.823671 222.789103 
L 168.586228 222.789103 
L 168.586228 222.663228 
L 169.269439 222.663228 
L 169.269439 222.537352 
L 169.393282 222.537352 
L 169.393282 222.411476 
L 169.516314 222.411476 
L 169.516314 222.159724 
L 169.662898 222.159724 
L 169.662898 222.033848 
L 169.952684 222.033848 
L 170.024438 221.656221 
L 170.425955 221.656221 
L 170.472634 221.278593 
L 170.681267 221.278593 
L 170.7503 220.900966 
L 171.865055 220.900966 
L 171.865055 220.649214 
L 172.229507 220.649214 
L 172.335368 220.271586 
L 172.482581 220.271586 
L 172.545321 219.768083 
L 172.773594 219.768083 
L 172.773594 219.642207 
L 172.958324 219.642207 
L 173.039848 218.886952 
L 173.080478 218.886952 
L 173.12102 218.509324 
L 173.201843 218.509324 
L 173.201843 218.257572 
L 173.422332 218.257572 
L 173.48202 217.502317 
L 173.816719 217.502317 
L 173.855707 217.12469 
L 174.010854 217.12469 
L 174.107176 216.49531 
L 174.203007 216.49531 
L 174.279322 216.243559 
L 174.506426 216.243559 
L 174.506426 215.991807 
L 174.693607 215.991807 
L 174.767961 215.362428 
L 174.860492 215.362428 
L 174.915793 214.858924 
L 174.989276 214.858924 
L 175.098964 214.103669 
L 175.117184 214.103669 
L 175.171736 213.726041 
L 175.584799 213.726041 
L 175.602554 213.348414 
L 175.743995 213.348414 
L 175.743995 213.222538 
L 176.179266 213.222538 
L 176.282249 212.719034 
L 176.299358 212.719034 
L 176.299358 212.467283 
L 176.469599 212.467283 
L 176.57101 211.963779 
L 176.688635 211.963779 
L 176.688635 210.830897 
L 176.987765 210.830897 
L 177.086427 210.453269 
L 177.168252 210.453269 
L 177.217177 210.075641 
L 177.282212 210.075641 
L 177.330842 209.698014 
L 177.427726 209.698014 
L 177.492039 209.068634 
L 177.651866 209.068634 
L 177.683669 208.439255 
L 177.826122 208.439255 
L 177.936177 207.935752 
L 177.983147 207.935752 
L 177.983147 207.809876 
L 178.123358 207.809876 
L 178.200804 207.432248 
L 178.476998 207.432248 
L 178.476998 207.054621 
L 178.943362 207.054621 
L 179.047089 205.921738 
L 179.120831 205.921738 
L 179.194285 205.669986 
L 179.282053 205.669986 
L 179.282053 205.54411 
L 179.412941 205.54411 
L 179.412941 205.418234 
L 179.57169 205.418234 
L 179.643407 204.788855 
L 179.700586 204.788855 
L 179.800231 203.907724 
L 180.054064 203.907724 
L 180.096038 203.152469 
L 180.23528 203.152469 
L 180.29069 202.774841 
L 180.359723 202.774841 
L 180.3735 202.52309 
L 180.483348 202.52309 
L 180.565316 202.145462 
L 180.633351 202.145462 
L 180.633351 201.89371 
L 180.782166 201.89371 
L 180.849423 201.390207 
L 180.969881 201.390207 
L 181.063041 200.886703 
L 181.116069 200.886703 
L 181.116069 200.760828 
L 181.234837 200.760828 
L 181.234837 200.509076 
L 181.405079 200.509076 
L 181.405079 200.257324 
L 181.638283 200.257324 
L 181.638283 200.005572 
L 181.766602 200.005572 
L 181.766602 199.753821 
L 182.133854 199.753821 
L 182.183951 199.250317 
L 182.604477 199.250317 
L 182.714236 197.362179 
L 182.738541 197.362179 
L 182.762814 196.984552 
L 182.871656 196.984552 
L 182.955878 196.481048 
L 183.027769 196.481048 
L 183.08747 196.103421 
L 183.146981 196.103421 
L 183.182598 195.22229 
L 183.289045 195.22229 
L 183.371423 194.59291 
L 183.453442 194.59291 
L 183.50015 193.963531 
L 183.593219 193.963531 
L 183.628001 193.460028 
L 183.766492 193.460028 
L 183.869695 192.327145 
L 184.040451 192.327145 
L 184.11961 191.194262 
L 184.153434 191.194262 
L 184.153434 190.816634 
L 184.288124 190.816634 
L 184.288124 190.564883 
L 184.410747 190.564883 
L 184.466222 189.557876 
L 184.79568 189.557876 
L 184.839175 189.054372 
L 184.96906 189.054372 
L 185.065888 188.802621 
L 185.087338 188.802621 
L 185.140856 188.550869 
L 185.258062 188.550869 
L 185.258062 188.424993 
L 185.416721 188.424993 
L 185.511278 187.29211 
L 185.532226 187.29211 
L 185.532226 186.914483 
L 185.740436 186.914483 
L 185.79213 186.536855 
L 185.853977 186.536855 
L 185.91562 186.033352 
L 186.028112 186.033352 
L 186.068851 185.655724 
L 186.220844 185.655724 
L 186.321495 184.900469 
L 186.381628 184.900469 
L 186.471468 184.019338 
L 186.521195 184.019338 
L 186.590592 183.64171 
L 186.659734 183.64171 
L 186.708966 183.389959 
L 186.846134 183.389959 
L 186.865648 183.012331 
L 186.972615 183.012331 
L 187.078977 182.1312 
L 187.13674 182.1312 
L 187.13674 181.879448 
L 187.318496 181.879448 
L 187.413456 181.375945 
L 187.460757 181.375945 
L 187.526779 180.872441 
L 187.573796 180.872441 
L 187.583186 180.494814 
L 187.751397 180.494814 
L 187.760698 180.243062 
L 187.871955 180.243062 
L 187.982557 179.487807 
L 187.991745 179.487807 
L 187.991745 179.361931 
L 188.17456 179.361931 
L 188.247192 178.4808 
L 188.400609 178.4808 
L 188.445494 178.103172 
L 188.579512 178.103172 
L 188.579512 177.851421 
L 188.712582 177.851421 
L 188.712582 177.725545 
L 188.844717 177.725545 
L 188.879797 177.347917 
L 189.11489 177.347917 
L 189.209833 176.718538 
L 189.278582 176.718538 
L 189.347081 176.215034 
L 189.389767 176.215034 
L 189.500298 174.704524 
L 189.517246 174.704524 
L 189.627033 173.697517 
L 189.727809 173.697517 
L 189.727809 173.571641 
L 190.002193 173.571641 
L 190.109194 173.068138 
L 190.117399 173.068138 
L 190.207426 172.816386 
L 190.321387 172.816386 
L 190.394284 171.935255 
L 190.434661 171.935255 
L 190.523186 170.928248 
L 190.651211 170.928248 
L 190.730786 170.424745 
L 190.77837 170.424745 
L 190.873179 170.047117 
L 190.896806 170.047117 
L 190.967512 169.543614 
L 191.045763 169.543614 
L 191.131465 169.165986 
L 191.201295 169.165986 
L 191.278582 168.536607 
L 191.386253 168.536607 
L 191.462785 168.158979 
L 191.569409 168.158979 
L 191.614921 167.655476 
L 191.773351 167.655476 
L 191.855809 167.151972 
L 191.937906 167.151972 
L 191.937906 166.900221 
L 192.07148 166.900221 
L 192.115795 166.144966 
L 192.350392 166.144966 
L 192.452116 165.263834 
L 192.502772 165.263834 
L 192.5821 164.634455 
L 192.874865 164.634455 
L 192.881949 164.382703 
L 192.994932 164.382703 
L 193.093238 163.8792 
L 193.142199 163.8792 
L 193.246689 163.249821 
L 193.336779 163.249821 
L 193.336779 163.123945 
L 193.529367 163.123945 
L 193.597674 162.36869 
L 193.645341 162.36869 
L 193.720003 161.73931 
L 193.780871 161.73931 
L 193.814602 161.361683 
L 193.915432 161.361683 
L 194.009056 161.109931 
L 194.055693 161.109931 
L 194.161861 160.480552 
L 194.333116 160.480552 
L 194.378958 160.102924 
L 194.535287 160.102924 
L 194.612968 158.71829 
L 194.651688 158.71829 
L 194.735309 158.340662 
L 194.850482 158.340662 
L 194.914164 157.963034 
L 194.990298 157.963034 
L 195.097631 156.830152 
L 195.135367 156.830152 
L 195.185565 155.949021 
L 195.329141 155.949021 
L 195.329141 155.445517 
L 195.582396 155.445517 
L 195.582396 155.06789 
L 195.704708 155.06789 
L 195.789856 154.186759 
L 195.838339 154.186759 
L 195.892734 153.809131 
L 196.019047 153.809131 
L 196.072923 153.053876 
L 196.34001 153.053876 
L 196.445792 152.424497 
L 196.521822 152.424497 
L 196.62659 151.920993 
L 196.776898 151.920993 
L 196.885984 151.543366 
L 196.954556 151.543366 
L 196.988749 150.913986 
L 197.096617 150.913986 
L 197.113592 150.284607 
L 197.355237 150.284607 
L 197.427686 149.906979 
L 197.516472 149.906979 
L 197.626869 149.2776 
L 197.654367 149.2776 
L 197.654367 149.151724 
L 197.785802 149.151724 
L 197.872918 148.899972 
L 197.948815 148.899972 
L 198.019017 147.641214 
L 198.281297 147.641214 
L 198.371444 147.389462 
L 198.424271 147.389462 
L 198.518986 146.885959 
L 198.634106 146.885959 
L 198.670588 146.508331 
L 198.774433 146.508331 
L 198.774433 146.382455 
L 198.939403 146.382455 
L 199.031566 145.878952 
L 199.189241 145.878952 
L 199.189241 145.6272 
L 199.305378 145.6272 
L 199.305378 145.501324 
L 199.495699 145.501324 
L 199.560369 144.997821 
L 199.684113 144.997821 
L 199.684113 144.871945 
L 200.021484 144.871945 
L 200.021484 144.620193 
L 200.180721 144.620193 
L 200.228709 144.368441 
L 200.481025 144.368441 
L 200.584774 143.990814 
L 200.915751 143.990814 
L 200.915751 143.864938 
L 201.030919 143.864938 
L 201.030919 143.739062 
L 201.222829 143.739062 
L 201.222829 143.48731 
L 201.390285 143.48731 
L 201.498114 143.109683 
L 201.632036 143.109683 
L 201.632036 142.857931 
L 201.756176 142.857931 
L 201.760594 142.228552 
L 202.115086 142.228552 
L 202.180005 141.347421 
L 202.343473 141.347421 
L 202.450248 140.718041 
L 202.46302 140.718041 
L 202.497037 140.340414 
L 202.645144 140.340414 
L 202.754416 139.711034 
L 203.136053 139.711034 
L 203.213914 138.704028 
L 203.510101 138.704028 
L 203.510101 138.578152 
L 203.939916 138.578152 
L 204.038026 138.3264 
L 204.123941 138.3264 
L 204.123941 138.200524 
L 204.360129 138.200524 
L 204.360129 138.074648 
L 204.486678 138.074648 
L 204.486678 137.948772 
L 204.665456 137.948772 
L 204.665456 137.822897 
L 204.850051 137.822897 
L 204.924878 137.445269 
L 205.136517 137.445269 
L 205.136517 137.193517 
L 205.610477 137.193517 
L 205.617676 136.81589 
L 206.268489 136.81589 
L 206.268489 136.690014 
L 207.4606 136.690014 
L 207.4606 136.438262 
L 207.613342 136.438262 
L 207.629518 136.060634 
L 208.038968 136.060634 
L 208.105301 135.808883 
L 208.630771 135.808883 
L 208.734736 135.557131 
L 208.762161 135.557131 
L 208.856317 135.179503 
L 210.39162 135.179503 
L 210.39162 135.053628 
L 210.827705 135.053628 
L 210.857692 134.550124 
L 211.534527 134.550124 
L 211.534527 134.424248 
L 211.927179 134.424248 
L 211.927179 134.172497 
L 212.369705 134.172497 
L 212.369705 134.046621 
L 213.555633 134.046621 
L 213.555633 133.920745 
L 214.293799 133.920745 
L 214.293799 133.794869 
L 214.684551 133.794869 
L 214.684551 133.668993 
L 214.799769 133.668993 
L 214.799769 133.543117 
L 215.675887 133.543117 
L 215.675887 133.417241 
L 216.20395 133.417241 
L 216.20395 133.291366 
L 216.476675 133.291366 
L 216.476675 133.16549 
L 217.783965 133.16549 
L 217.783965 133.039614 
L 218.006944 133.039614 
L 218.006944 132.913738 
L 219.551176 132.913738 
L 219.551176 132.787862 
L 219.838953 132.787862 
L 219.838953 132.53611 
L 219.96191 132.53611 
L 219.96191 132.410234 
L 220.41802 132.410234 
L 220.41802 132.158483 
L 221.274877 132.158483 
L 221.274877 131.906731 
L 221.554608 131.906731 
L 221.554608 131.654979 
L 221.695991 131.654979 
L 221.735755 131.403228 
L 223.048584 131.403228 
L 223.139551 131.0256 
L 225.03699 131.0256 
L 225.03699 130.647972 
L 225.181287 130.647972 
L 225.237176 130.270345 
L 225.415162 130.270345 
L 225.415162 130.144469 
L 225.633751 130.144469 
L 225.737779 129.640966 
L 225.771094 129.640966 
L 225.816653 129.389214 
L 225.903769 129.389214 
L 225.929459 129.137462 
L 226.237435 129.137462 
L 226.274679 127.752828 
L 226.362094 127.752828 
L 226.46337 127.249324 
L 226.573556 127.249324 
L 226.606604 126.871697 
L 226.699536 126.871697 
L 226.775655 126.242317 
L 227.079392 126.242317 
L 227.119599 125.612938 
L 227.211178 125.612938 
L 227.28526 125.109434 
L 227.346583 125.109434 
L 227.407708 124.354179 
L 227.464128 124.354179 
L 227.485523 122.21429 
L 227.591017 122.21429 
L 227.591017 121.58491 
L 227.738166 121.58491 
L 227.790283 121.333159 
L 227.880867 121.333159 
L 227.880867 121.207283 
L 228.011553 121.207283 
L 228.114146 120.452028 
L 228.202104 120.452028 
L 228.282102 120.0744 
L 228.41968 120.0744 
L 228.517947 119.696772 
L 228.644295 119.696772 
L 228.730868 119.445021 
L 228.763493 119.445021 
L 228.763493 119.193269 
L 228.963267 119.193269 
L 229.070125 118.56389 
L 229.232872 118.56389 
L 229.292262 117.93451 
L 229.48248 117.93451 
L 229.550168 117.305131 
L 229.683815 117.305131 
L 229.683815 117.053379 
L 229.84136 117.053379 
L 229.881036 116.675752 
L 229.97099 116.675752 
L 230.020232 116.298124 
L 230.211055 116.298124 
L 230.211055 116.172248 
L 230.578399 116.172248 
L 230.578399 116.046372 
L 230.959302 116.046372 
L 230.984548 115.668745 
L 231.174209 115.668745 
L 231.250831 115.291117 
L 231.302351 115.291117 
L 231.360144 114.787614 
L 231.999473 114.787614 
L 231.999473 114.661738 
L 232.983448 114.661738 
L 232.983448 114.535862 
L 233.181533 114.535862 
L 233.181533 114.409986 
L 233.386601 114.409986 
L 233.386601 113.654731 
L 233.511192 113.654731 
L 233.511192 112.395972 
L 233.779684 112.395972 
L 233.779684 112.270097 
L 234.003853 112.270097 
L 234.098322 111.766593 
L 234.435779 111.766593 
L 234.477733 111.388966 
L 234.79478 111.388966 
L 234.79478 111.137214 
L 234.927848 111.137214 
L 235.026847 110.759586 
L 235.799896 110.759586 
L 235.799896 110.256083 
L 236.350921 110.256083 
L 236.350921 110.130207 
L 236.515288 110.130207 
L 236.611146 109.752579 
L 236.701001 109.752579 
L 236.701001 109.626703 
L 236.932636 109.626703 
L 236.99723 108.871448 
L 237.560248 108.871448 
L 237.599075 108.367945 
L 237.712463 108.367945 
L 237.814126 107.990317 
L 237.834913 107.990317 
L 237.834913 107.738566 
L 237.96044 107.738566 
L 237.96044 107.486814 
L 238.147174 107.486814 
L 238.160578 107.235062 
L 238.428564 107.235062 
L 238.437997 106.98331 
L 238.591408 106.98331 
L 238.591408 106.857434 
L 238.869965 106.857434 
L 238.869965 106.605683 
L 239.067395 106.605683 
L 239.067395 106.353931 
L 239.195256 106.353931 
L 239.195256 106.228055 
L 239.507297 106.228055 
L 239.610367 105.850428 
L 239.992219 105.850428 
L 239.992219 105.598676 
L 240.377253 105.598676 
L 240.445752 104.969297 
L 241.185945 104.969297 
L 241.185945 104.843421 
L 241.483469 104.843421 
L 241.483469 104.591669 
L 241.865129 104.591669 
L 241.865129 104.465793 
L 242.094293 104.465793 
L 242.094293 104.214041 
L 242.216068 104.214041 
L 242.216068 104.088166 
L 242.705459 104.088166 
L 242.807909 103.584662 
L 242.846744 103.584662 
L 242.861162 103.081159 
L 243.004246 103.081159 
L 243.004246 102.955283 
L 243.18586 102.955283 
L 243.285248 102.325903 
L 243.490154 102.325903 
L 243.490154 102.074152 
L 243.825994 102.074152 
L 243.825994 101.948276 
L 244.024657 101.948276 
L 244.105307 101.193021 
L 244.401608 101.193021 
L 244.401608 100.941269 
L 244.793591 100.941269 
L 244.881733 99.808386 
L 244.99211 99.808386 
L 244.99211 99.556634 
L 245.218832 99.556634 
L 245.218832 99.304883 
L 245.459744 99.304883 
L 245.489588 98.927255 
L 245.967087 98.927255 
L 246.056201 98.549628 
L 246.37884 98.549628 
L 246.37884 98.423752 
L 246.594432 98.423752 
L 246.594432 98.172 
L 246.730056 98.172 
L 246.83496 97.668497 
L 246.88639 97.668497 
L 246.97406 97.416745 
L 247.683023 97.416745 
L 247.683023 97.290869 
L 247.819069 97.290869 
L 247.910869 96.535614 
L 248.018098 96.535614 
L 248.101413 95.906234 
L 248.355847 95.906234 
L 248.355847 95.780359 
L 249.628829 95.780359 
L 249.628829 95.654483 
L 250.359427 95.654483 
L 250.359427 95.528607 
L 250.609631 95.528607 
L 250.609631 95.402731 
L 250.72679 95.402731 
L 250.72679 95.276855 
L 250.894202 95.276855 
L 250.894202 95.150979 
L 251.040521 95.150979 
L 251.130715 94.773352 
L 251.391785 94.773352 
L 251.419239 94.5216 
L 252.279971 94.5216 
L 252.279971 94.395724 
L 252.514368 94.395724 
L 252.514368 94.269848 
L 253.999947 94.269848 
L 253.999947 94.018097 
L 254.535206 94.018097 
L 254.577643 93.514593 
L 254.700409 93.514593 
L 254.700409 93.388717 
L 254.815536 93.388717 
L 254.815536 93.136966 
L 254.968647 93.136966 
L 254.968647 92.885214 
L 255.65648 92.885214 
L 255.65648 92.759338 
L 256.15358 92.759338 
L 256.258709 92.255834 
L 256.475901 92.255834 
L 256.475901 92.004083 
L 257.348286 92.004083 
L 257.393788 91.626455 
L 259.003944 91.626455 
L 259.003944 91.500579 
L 259.48899 91.500579 
L 259.48899 91.248828 
L 260.063291 91.248828 
L 260.063291 91.122952 
L 260.684082 91.122952 
L 260.684082 90.997076 
L 261.448754 90.997076 
L 261.448754 90.745324 
L 261.641298 90.745324 
L 261.641298 90.493572 
L 261.899392 90.493572 
L 261.899392 90.367697 
L 262.084182 90.367697 
L 262.186222 90.115945 
L 262.574303 90.115945 
L 262.574303 89.864193 
L 262.918125 89.864193 
L 262.941725 89.36069 
L 263.321212 89.36069 
L 263.321212 89.234814 
L 265.549824 89.234814 
L 265.549824 88.983062 
L 265.841539 88.983062 
L 265.948174 88.353683 
L 266.066081 88.353683 
L 266.066081 88.227807 
L 266.660075 88.227807 
L 266.768598 87.850179 
L 267.470959 87.850179 
L 267.470959 87.724303 
L 267.777949 87.724303 
L 267.777949 87.598428 
L 267.897308 87.598428 
L 267.897308 87.472552 
L 268.812099 87.472552 
L 268.812099 87.346676 
L 271.951134 87.346676 
L 271.951134 87.094924 
L 272.548789 87.094924 
L 272.634025 86.717297 
L 272.662182 86.717297 
L 272.662182 86.591421 
L 272.854675 86.591421 
L 272.854675 86.213793 
L 273.005422 86.213793 
L 273.051411 85.458538 
L 273.150502 85.458538 
L 273.159241 85.08091 
L 273.281456 85.08091 
L 273.281456 84.829159 
L 273.514957 84.829159 
L 273.514957 84.703283 
L 274.038267 84.703283 
L 274.038267 84.451531 
L 360.8064 84.451531 
L 360.8064 84.451531 
" style="fill: none; stroke: #ff00ff; stroke-width: 1.5; stroke-linecap: square"/>
   </g>
   <g id="line2d_41">
    <defs>
     <path id="m7f5c7a4ae1" d="M 0 8.485281 
L 5.091169 0 
L 0 -8.485281 
L -5.091169 0 
z
" style="stroke: #ff00ff; stroke-width: 1.5; stroke-linejoin: miter"/>
    </defs>
    <g>
     <use xlink:href="#m7f5c7a4ae1" x="104.344952" y="273.642952" style="fill-opacity: 0; stroke: #ff00ff; stroke-width: 1.5; stroke-linejoin: miter"/>
     <use xlink:href="#m7f5c7a4ae1" x="177.475981" y="209.19451" style="fill-opacity: 0; stroke: #ff00ff; stroke-width: 1.5; stroke-linejoin: miter"/>
     <use xlink:href="#m7f5c7a4ae1" x="238.591408" y="106.857434" style="fill-opacity: 0; stroke: #ff00ff; stroke-width: 1.5; stroke-linejoin: miter"/>
     <use xlink:href="#m7f5c7a4ae1" x="274.038267" y="84.703283" style="fill-opacity: 0; stroke: #ff00ff; stroke-width: 1.5; stroke-linejoin: miter"/>
     <use xlink:href="#m7f5c7a4ae1" x="274.038267" y="84.451531" style="fill-opacity: 0; stroke: #ff00ff; stroke-width: 1.5; stroke-linejoin: miter"/>
     <use xlink:href="#m7f5c7a4ae1" x="360.8064" y="84.451531" style="fill-opacity: 0; stroke: #ff00ff; stroke-width: 1.5; stroke-linejoin: miter"/>
    </g>
   </g>
   <g id="line2d_42">
    <path style="fill: none; stroke: #ff00ff; stroke-width: 1.5; stroke-linecap: square"/>
    <g/>
   </g>
   <g id="line2d_43">
    <path d="M 274.176094 84.451531 
" clip-path="url(#p55711071d5)" style="fill: none; stroke: #ff00ff; stroke-width: 1.5; stroke-linecap: square"/>
    <defs>
     <path id="m7d4b647ac5" d="M -12 12 
L 12 -12 
M -12 -12 
L 12 12 
" style="stroke: #ff00ff"/>
    </defs>
    <g clip-path="url(#p55711071d5)">
     <use xlink:href="#m7d4b647ac5" x="274.176094" y="84.451531" style="fill: #ff00ff; stroke: #ff00ff"/>
    </g>
   </g>
   <g id="line2d_44">
    <defs>
     <path id="mf2a24c477f" d="M 0 1.5 
C 0.397805 1.5 0.77937 1.341951 1.06066 1.06066 
C 1.341951 0.77937 1.5 0.397805 1.5 0 
C 1.5 -0.397805 1.341951 -0.77937 1.06066 -1.06066 
C 0.77937 -1.341951 0.397805 -1.5 0 -1.5 
C -0.397805 -1.5 -0.77937 -1.341951 -1.06066 -1.06066 
C -1.341951 -0.77937 -1.5 -0.397805 -1.5 0 
C -1.5 0.397805 -1.341951 0.77937 -1.06066 1.06066 
C -0.77937 1.341951 -0.397805 1.5 0 1.5 
z
" style="stroke: #6495ed"/>
    </defs>
    <g>
     <use xlink:href="#mf2a24c477f" x="113.954374" y="261.810621" style="fill: #6495ed; stroke: #6495ed"/>
     <use xlink:href="#mf2a24c477f" x="113.954374" y="261.810621" style="fill: #6495ed; stroke: #6495ed"/>
    </g>
   </g>
   <g id="line2d_45">
    <path d="M 44.560826 298.944 
L 44.560826 293.027834 
L 57.6 293.027834 
L 57.6 290.636193 
L 65.227428 290.636193 
L 65.227428 288.999807 
L 70.639174 288.999807 
L 70.639174 286.734041 
L 74.836851 286.734041 
L 74.836851 285.727034 
L 78.266603 285.727034 
L 78.266603 284.468276 
L 81.166416 284.468276 
L 81.166416 283.461269 
L 83.678349 283.461269 
L 83.678349 281.824883 
L 85.894031 281.824883 
L 85.894031 280.817876 
L 87.876026 280.817876 
L 87.876026 279.18149 
L 89.668958 279.18149 
L 89.668958 278.300359 
L 91.305777 278.300359 
L 91.305777 277.670979 
L 92.811505 277.670979 
L 92.811505 276.915724 
L 94.205591 276.915724 
L 94.205591 275.908717 
L 95.503454 275.908717 
L 95.503454 275.53109 
L 96.717523 275.53109 
L 96.717523 275.279338 
L 98.933205 275.279338 
L 98.933205 275.153462 
L 99.950294 275.153462 
L 99.950294 274.524083 
L 100.9152 274.524083 
L 100.9152 273.3912 
L 101.833019 273.3912 
L 101.833019 272.761821 
L 102.708132 272.761821 
L 102.708132 272.258317 
L 103.544339 272.258317 
L 103.544339 270.496055 
L 104.344952 270.496055 
L 104.344952 268.733793 
L 105.850679 268.733793 
L 105.850679 267.349159 
L 106.560633 267.349159 
L 106.560633 267.097407 
L 107.244765 267.097407 
L 107.244765 266.845655 
L 107.904887 266.845655 
L 107.904887 266.0904 
L 109.159456 266.0904 
L 109.159456 265.461021 
L 109.756698 265.461021 
L 109.756698 263.95051 
L 110.335561 263.95051 
L 110.335561 263.824634 
L 111.442442 263.824634 
L 111.442442 263.698759 
L 111.97238 263.698759 
L 111.97238 263.447007 
L 112.487797 263.447007 
L 112.487797 263.195255 
L 112.989468 263.195255 
L 112.989468 262.817628 
L 113.478107 262.817628 
L 113.478107 262.314124 
L 113.954374 262.314124 
L 113.954374 261.810621 
L 360.8064 261.810621 
" style="fill: none; stroke: #6495ed; stroke-width: 1.5; stroke-linecap: square"/>
   </g>
   <g id="line2d_46">
    <defs>
     <path id="m245ea5e592" d="M -0 6 
L 6 -6 
L -6 -6 
z
" style="stroke: #6495ed; stroke-width: 1.5; stroke-linejoin: miter"/>
    </defs>
    <g>
     <use xlink:href="#m245ea5e592" x="87.876026" y="280.817876" style="fill-opacity: 0; stroke: #6495ed; stroke-width: 1.5; stroke-linejoin: miter"/>
     <use xlink:href="#m245ea5e592" x="113.954374" y="262.314124" style="fill-opacity: 0; stroke: #6495ed; stroke-width: 1.5; stroke-linejoin: miter"/>
     <use xlink:href="#m245ea5e592" x="113.954374" y="262.314124" style="fill-opacity: 0; stroke: #6495ed; stroke-width: 1.5; stroke-linejoin: miter"/>
     <use xlink:href="#m245ea5e592" x="113.954374" y="261.810621" style="fill-opacity: 0; stroke: #6495ed; stroke-width: 1.5; stroke-linejoin: miter"/>
     <use xlink:href="#m245ea5e592" x="113.954374" y="261.810621" style="fill-opacity: 0; stroke: #6495ed; stroke-width: 1.5; stroke-linejoin: miter"/>
     <use xlink:href="#m245ea5e592" x="360.8064" y="261.810621" style="fill-opacity: 0; stroke: #6495ed; stroke-width: 1.5; stroke-linejoin: miter"/>
    </g>
   </g>
   <g id="line2d_47">
    <path style="fill: none; stroke: #6495ed; stroke-width: 1.5; stroke-linecap: square"/>
    <g/>
   </g>
   <g id="line2d_48">
    <path d="M 113.954374 261.810621 
" clip-path="url(#p55711071d5)" style="fill: none; stroke: #6495ed; stroke-width: 1.5; stroke-linecap: square"/>
    <defs>
     <path id="mfe3122fef5" d="M -12 12 
L 12 -12 
M -12 -12 
L 12 12 
" style="stroke: #6495ed"/>
    </defs>
    <g clip-path="url(#p55711071d5)">
     <use xlink:href="#mfe3122fef5" x="113.954374" y="261.810621" style="fill: #6495ed; stroke: #6495ed"/>
    </g>
   </g>
   <g id="line2d_49">
    <path d="M 360.8064 276.412221 
L 380.514816 293.10336 
" style="fill: none; stroke: #000080; stroke-width: 1.5; stroke-linecap: square"/>
    <g>
     <use xlink:href="#m3f50089dd2" x="360.8064" y="276.412221" style="fill-opacity: 0; stroke: #000080; stroke-width: 1.5"/>
     <use xlink:href="#m3f50089dd2" x="380.514816" y="293.10336" style="fill-opacity: 0; stroke: #000080; stroke-width: 1.5"/>
    </g>
   </g>
   <g id="line2d_50">
    <path d="M 360.8064 261.810621 
L 380.514816 199.65312 
" style="fill: none; stroke: #6495ed; stroke-width: 1.5; stroke-linecap: square"/>
    <g>
     <use xlink:href="#m245ea5e592" x="360.8064" y="261.810621" style="fill-opacity: 0; stroke: #6495ed; stroke-width: 1.5; stroke-linejoin: miter"/>
     <use xlink:href="#m245ea5e592" x="380.514816" y="199.65312" style="fill-opacity: 0; stroke: #6495ed; stroke-width: 1.5; stroke-linejoin: miter"/>
    </g>
   </g>
   <g id="line2d_51">
    <path d="M 360.8064 84.451531 
L 380.514816 106.20288 
" style="fill: none; stroke: #ff00ff; stroke-width: 1.5; stroke-linecap: square"/>
    <g>
     <use xlink:href="#m7f5c7a4ae1" x="360.8064" y="84.451531" style="fill-opacity: 0; stroke: #ff00ff; stroke-width: 1.5; stroke-linejoin: miter"/>
     <use xlink:href="#m7f5c7a4ae1" x="380.514816" y="106.20288" style="fill-opacity: 0; stroke: #ff00ff; stroke-width: 1.5; stroke-linejoin: miter"/>
    </g>
   </g>
   <g id="line2d_52">
    <path d="M 360.8064 298.944 
L 360.8064 6.912 
" style="fill: none; stroke: #000000; stroke-width: 1.5; stroke-linecap: square"/>
   </g>
   <g id="patch_3">
    <path d="M 57.6 298.944 
L 360.8064 298.944 
" style="fill: none; stroke: #000000; stroke-width: 0.8; stroke-linejoin: miter; stroke-linecap: square"/>
   </g>
   <g id="patch_4">
    <path d="M 57.6 6.912 
L 360.8064 6.912 
" style="fill: none; stroke: #000000; stroke-width: 0.8; stroke-linejoin: miter; stroke-linecap: square"/>
   </g>
   <g id="text_13">
    <!-- cma -->
    <g transform="translate(386.578944 296.966485)scale(0.14 -0.14)">
     <use xlink:href="#DejaVuSans-63"/>
     <use xlink:href="#DejaVuSans-6d" x="54.980469"/>
     <use xlink:href="#DejaVuSans-61" x="152.392578"/>
    </g>
   </g>
   <g id="text_14">
    <!-- parEgo -->
    <g transform="translate(386.578944 203.516245)scale(0.14 -0.14)">
     <defs>
      <path id="DejaVuSans-45" d="M 628 4666 
L 3578 4666 
L 3578 4134 
L 1259 4134 
L 1259 2753 
L 3481 2753 
L 3481 2222 
L 1259 2222 
L 1259 531 
L 3634 531 
L 3634 0 
L 628 0 
L 628 4666 
z
" transform="scale(0.015625)"/>
     </defs>
     <use xlink:href="#DejaVuSans-70"/>
     <use xlink:href="#DejaVuSans-61" x="63.476562"/>
     <use xlink:href="#DejaVuSans-72" x="124.755859"/>
     <use xlink:href="#DejaVuSans-45" x="165.869141"/>
     <use xlink:href="#DejaVuSans-67" x="229.052734"/>
     <use xlink:href="#DejaVuSans-6f" x="292.529297"/>
    </g>
   </g>
   <g id="text_15">
    <!-- external- -->
    <g transform="translate(386.578944 110.066005)scale(0.14 -0.14)">
     <defs>
      <path id="DejaVuSans-78" d="M 3513 3500 
L 2247 1797 
L 3578 0 
L 2900 0 
L 1881 1375 
L 863 0 
L 184 0 
L 1544 1831 
L 300 3500 
L 978 3500 
L 1906 2253 
L 2834 3500 
L 3513 3500 
z
" transform="scale(0.015625)"/>
     </defs>
     <use xlink:href="#DejaVuSans-65"/>
     <use xlink:href="#DejaVuSans-78" x="59.773438"/>
     <use xlink:href="#DejaVuSans-74" x="118.953125"/>
     <use xlink:href="#DejaVuSans-65" x="158.162109"/>
     <use xlink:href="#DejaVuSans-72" x="219.685547"/>
     <use xlink:href="#DejaVuSans-6e" x="259.048828"/>
     <use xlink:href="#DejaVuSans-61" x="322.427734"/>
     <use xlink:href="#DejaVuSans-6c" x="383.707031"/>
     <use xlink:href="#DejaVuSans-2d" x="411.490234"/>
    </g>
   </g>
   <g id="text_16">
    <!-- best 2016 -->
    <g transform="translate(386.578944 16.615765)scale(0.14 -0.14)">
     <defs>
      <path id="DejaVuSans-62" d="M 3116 1747 
Q 3116 2381 2855 2742 
Q 2594 3103 2138 3103 
Q 1681 3103 1420 2742 
Q 1159 2381 1159 1747 
Q 1159 1113 1420 752 
Q 1681 391 2138 391 
Q 2594 391 2855 752 
Q 3116 1113 3116 1747 
z
M 1159 2969 
Q 1341 3281 1617 3432 
Q 1894 3584 2278 3584 
Q 2916 3584 3314 3078 
Q 3713 2572 3713 1747 
Q 3713 922 3314 415 
Q 2916 -91 2278 -91 
Q 1894 -91 1617 61 
Q 1341 213 1159 525 
L 1159 0 
L 581 0 
L 581 4863 
L 1159 4863 
L 1159 2969 
z
" transform="scale(0.015625)"/>
     </defs>
     <use xlink:href="#DejaVuSans-62"/>
     <use xlink:href="#DejaVuSans-65" x="63.476562"/>
     <use xlink:href="#DejaVuSans-73" x="125"/>
     <use xlink:href="#DejaVuSans-74" x="177.099609"/>
     <use xlink:href="#DejaVuSans-20" x="216.308594"/>
     <use xlink:href="#DejaVuSans-32" x="248.095703"/>
     <use xlink:href="#DejaVuSans-30" x="311.71875"/>
     <use xlink:href="#DejaVuSans-31" x="375.341797"/>
     <use xlink:href="#DejaVuSans-36" x="438.964844"/>
    </g>
   </g>
   <g id="text_17">
    <!-- bbob-biobj f48, f49, f51, f52, 2-D -->
    <g transform="translate(60.632064 17.582726)scale(0.102 -0.102)">
     <defs>
      <path id="DejaVuSans-6a" d="M 603 3500 
L 1178 3500 
L 1178 -63 
Q 1178 -731 923 -1031 
Q 669 -1331 103 -1331 
L -116 -1331 
L -116 -844 
L 38 -844 
Q 366 -844 484 -692 
Q 603 -541 603 -63 
L 603 3500 
z
M 603 4863 
L 1178 4863 
L 1178 4134 
L 603 4134 
L 603 4863 
z
" transform="scale(0.015625)"/>
      <path id="DejaVuSans-39" d="M 703 97 
L 703 672 
Q 941 559 1184 500 
Q 1428 441 1663 441 
Q 2288 441 2617 861 
Q 2947 1281 2994 2138 
Q 2813 1869 2534 1725 
Q 2256 1581 1919 1581 
Q 1219 1581 811 2004 
Q 403 2428 403 3163 
Q 403 3881 828 4315 
Q 1253 4750 1959 4750 
Q 2769 4750 3195 4129 
Q 3622 3509 3622 2328 
Q 3622 1225 3098 567 
Q 2575 -91 1691 -91 
Q 1453 -91 1209 -44 
Q 966 3 703 97 
z
M 1959 2075 
Q 2384 2075 2632 2365 
Q 2881 2656 2881 3163 
Q 2881 3666 2632 3958 
Q 2384 4250 1959 4250 
Q 1534 4250 1286 3958 
Q 1038 3666 1038 3163 
Q 1038 2656 1286 2365 
Q 1534 2075 1959 2075 
z
" transform="scale(0.015625)"/>
      <path id="DejaVuSans-35" d="M 691 4666 
L 3169 4666 
L 3169 4134 
L 1269 4134 
L 1269 2991 
Q 1406 3038 1543 3061 
Q 1681 3084 1819 3084 
Q 2600 3084 3056 2656 
Q 3513 2228 3513 1497 
Q 3513 744 3044 326 
Q 2575 -91 1722 -91 
Q 1428 -91 1123 -41 
Q 819 9 494 109 
L 494 744 
Q 775 591 1075 516 
Q 1375 441 1709 441 
Q 2250 441 2565 725 
Q 2881 1009 2881 1497 
Q 2881 1984 2565 2268 
Q 2250 2553 1709 2553 
Q 1456 2553 1204 2497 
Q 953 2441 691 2322 
L 691 4666 
z
" transform="scale(0.015625)"/>
      <path id="DejaVuSans-44" d="M 1259 4147 
L 1259 519 
L 2022 519 
Q 2988 519 3436 956 
Q 3884 1394 3884 2338 
Q 3884 3275 3436 3711 
Q 2988 4147 2022 4147 
L 1259 4147 
z
M 628 4666 
L 1925 4666 
Q 3281 4666 3915 4102 
Q 4550 3538 4550 2338 
Q 4550 1131 3912 565 
Q 3275 0 1925 0 
L 628 0 
L 628 4666 
z
" transform="scale(0.015625)"/>
     </defs>
     <use xlink:href="#DejaVuSans-62"/>
     <use xlink:href="#DejaVuSans-62" x="63.476562"/>
     <use xlink:href="#DejaVuSans-6f" x="126.953125"/>
     <use xlink:href="#DejaVuSans-62" x="188.134766"/>
     <use xlink:href="#DejaVuSans-2d" x="251.611328"/>
     <use xlink:href="#DejaVuSans-62" x="287.695312"/>
     <use xlink:href="#DejaVuSans-69" x="351.171875"/>
     <use xlink:href="#DejaVuSans-6f" x="378.955078"/>
     <use xlink:href="#DejaVuSans-62" x="440.136719"/>
     <use xlink:href="#DejaVuSans-6a" x="503.613281"/>
     <use xlink:href="#DejaVuSans-20" x="531.396484"/>
     <use xlink:href="#DejaVuSans-66" x="563.183594"/>
     <use xlink:href="#DejaVuSans-34" x="598.388672"/>
     <use xlink:href="#DejaVuSans-38" x="662.011719"/>
     <use xlink:href="#DejaVuSans-2c" x="725.634766"/>
     <use xlink:href="#DejaVuSans-20" x="757.421875"/>
     <use xlink:href="#DejaVuSans-66" x="789.208984"/>
     <use xlink:href="#DejaVuSans-34" x="824.414062"/>
     <use xlink:href="#DejaVuSans-39" x="888.037109"/>
     <use xlink:href="#DejaVuSans-2c" x="951.660156"/>
     <use xlink:href="#DejaVuSans-20" x="983.447266"/>
     <use xlink:href="#DejaVuSans-66" x="1015.234375"/>
     <use xlink:href="#DejaVuSans-35" x="1050.439453"/>
     <use xlink:href="#DejaVuSans-31" x="1114.0625"/>
     <use xlink:href="#DejaVuSans-2c" x="1177.685547"/>
     <use xlink:href="#DejaVuSans-20" x="1209.472656"/>
     <use xlink:href="#DejaVuSans-66" x="1241.259766"/>
     <use xlink:href="#DejaVuSans-35" x="1276.464844"/>
     <use xlink:href="#DejaVuSans-32" x="1340.087891"/>
     <use xlink:href="#DejaVuSans-2c" x="1403.710938"/>
     <use xlink:href="#DejaVuSans-20" x="1435.498047"/>
     <use xlink:href="#DejaVuSans-32" x="1467.285156"/>
     <use xlink:href="#DejaVuSans-2d" x="1530.908203"/>
     <use xlink:href="#DejaVuSans-44" x="1566.992188"/>
    </g>
    <!-- 58 targets: 1..-1.0e-4 -->
    <g transform="translate(60.632064 29.004495)scale(0.102 -0.102)">
     <defs>
      <path id="DejaVuSans-3a" d="M 750 794 
L 1409 794 
L 1409 0 
L 750 0 
L 750 794 
z
M 750 3309 
L 1409 3309 
L 1409 2516 
L 750 2516 
L 750 3309 
z
" transform="scale(0.015625)"/>
     </defs>
     <use xlink:href="#DejaVuSans-35"/>
     <use xlink:href="#DejaVuSans-38" x="63.623047"/>
     <use xlink:href="#DejaVuSans-20" x="127.246094"/>
     <use xlink:href="#DejaVuSans-74" x="159.033203"/>
     <use xlink:href="#DejaVuSans-61" x="198.242188"/>
     <use xlink:href="#DejaVuSans-72" x="259.521484"/>
     <use xlink:href="#DejaVuSans-67" x="298.884766"/>
     <use xlink:href="#DejaVuSans-65" x="362.361328"/>
     <use xlink:href="#DejaVuSans-74" x="423.884766"/>
     <use xlink:href="#DejaVuSans-73" x="463.09375"/>
     <use xlink:href="#DejaVuSans-3a" x="515.193359"/>
     <use xlink:href="#DejaVuSans-20" x="548.884766"/>
     <use xlink:href="#DejaVuSans-31" x="580.671875"/>
     <use xlink:href="#DejaVuSans-2e" x="644.294922"/>
     <use xlink:href="#DejaVuSans-2e" x="676.082031"/>
     <use xlink:href="#DejaVuSans-2d" x="707.869141"/>
     <use xlink:href="#DejaVuSans-31" x="743.953125"/>
     <use xlink:href="#DejaVuSans-2e" x="807.576172"/>
     <use xlink:href="#DejaVuSans-30" x="839.363281"/>
     <use xlink:href="#DejaVuSans-65" x="902.986328"/>
     <use xlink:href="#DejaVuSans-2d" x="964.509766"/>
     <use xlink:href="#DejaVuSans-34" x="1000.59375"/>
    </g>
    <!-- 10 instances -->
    <g transform="translate(60.632064 40.426264)scale(0.102 -0.102)">
     <use xlink:href="#DejaVuSans-31"/>
     <use xlink:href="#DejaVuSans-30" x="63.623047"/>
     <use xlink:href="#DejaVuSans-20" x="127.246094"/>
     <use xlink:href="#DejaVuSans-69" x="159.033203"/>
     <use xlink:href="#DejaVuSans-6e" x="186.816406"/>
     <use xlink:href="#DejaVuSans-73" x="250.195312"/>
     <use xlink:href="#DejaVuSans-74" x="302.294922"/>
     <use xlink:href="#DejaVuSans-61" x="341.503906"/>
     <use xlink:href="#DejaVuSans-6e" x="402.783203"/>
     <use xlink:href="#DejaVuSans-63" x="466.162109"/>
     <use xlink:href="#DejaVuSans-65" x="521.142578"/>
     <use xlink:href="#DejaVuSans-73" x="582.666016"/>
    </g>
   </g>
   <g id="text_18">
    <!-- v2.6, hv-hash=ff0e71e8cd978373 -->
    <g style="fill: #808080" transform="translate(123.707887 293.943992)scale(0.1 -0.1)">
     <defs>
      <path id="DejaVuSans-68" d="M 3513 2113 
L 3513 0 
L 2938 0 
L 2938 2094 
Q 2938 2591 2744 2837 
Q 2550 3084 2163 3084 
Q 1697 3084 1428 2787 
Q 1159 2491 1159 1978 
L 1159 0 
L 581 0 
L 581 4863 
L 1159 4863 
L 1159 2956 
Q 1366 3272 1645 3428 
Q 1925 3584 2291 3584 
Q 2894 3584 3203 3211 
Q 3513 2838 3513 2113 
z
" transform="scale(0.015625)"/>
      <path id="DejaVuSans-3d" d="M 678 2906 
L 4684 2906 
L 4684 2381 
L 678 2381 
L 678 2906 
z
M 678 1631 
L 4684 1631 
L 4684 1100 
L 678 1100 
L 678 1631 
z
" transform="scale(0.015625)"/>
      <path id="DejaVuSans-37" d="M 525 4666 
L 3525 4666 
L 3525 4397 
L 1831 0 
L 1172 0 
L 2766 4134 
L 525 4134 
L 525 4666 
z
" transform="scale(0.015625)"/>
      <path id="DejaVuSans-33" d="M 2597 2516 
Q 3050 2419 3304 2112 
Q 3559 1806 3559 1356 
Q 3559 666 3084 287 
Q 2609 -91 1734 -91 
Q 1441 -91 1130 -33 
Q 819 25 488 141 
L 488 750 
Q 750 597 1062 519 
Q 1375 441 1716 441 
Q 2309 441 2620 675 
Q 2931 909 2931 1356 
Q 2931 1769 2642 2001 
Q 2353 2234 1838 2234 
L 1294 2234 
L 1294 2753 
L 1863 2753 
Q 2328 2753 2575 2939 
Q 2822 3125 2822 3475 
Q 2822 3834 2567 4026 
Q 2313 4219 1838 4219 
Q 1578 4219 1281 4162 
Q 984 4106 628 3988 
L 628 4550 
Q 988 4650 1302 4700 
Q 1616 4750 1894 4750 
Q 2613 4750 3031 4423 
Q 3450 4097 3450 3541 
Q 3450 3153 3228 2886 
Q 3006 2619 2597 2516 
z
" transform="scale(0.015625)"/>
     </defs>
     <use xlink:href="#DejaVuSans-76"/>
     <use xlink:href="#DejaVuSans-32" x="59.179688"/>
     <use xlink:href="#DejaVuSans-2e" x="122.802734"/>
     <use xlink:href="#DejaVuSans-36" x="154.589844"/>
     <use xlink:href="#DejaVuSans-2c" x="218.212891"/>
     <use xlink:href="#DejaVuSans-20" x="250"/>
     <use xlink:href="#DejaVuSans-68" x="281.787109"/>
     <use xlink:href="#DejaVuSans-76" x="345.166016"/>
     <use xlink:href="#DejaVuSans-2d" x="401.720703"/>
     <use xlink:href="#DejaVuSans-68" x="437.804688"/>
     <use xlink:href="#DejaVuSans-61" x="501.183594"/>
     <use xlink:href="#DejaVuSans-73" x="562.462891"/>
     <use xlink:href="#DejaVuSans-68" x="614.5625"/>
     <use xlink:href="#DejaVuSans-3d" x="677.941406"/>
     <use xlink:href="#DejaVuSans-66" x="761.730469"/>
     <use xlink:href="#DejaVuSans-66" x="796.935547"/>
     <use xlink:href="#DejaVuSans-30" x="832.140625"/>
     <use xlink:href="#DejaVuSans-65" x="895.763672"/>
     <use xlink:href="#DejaVuSans-37" x="957.287109"/>
     <use xlink:href="#DejaVuSans-31" x="1020.910156"/>
     <use xlink:href="#DejaVuSans-65" x="1084.533203"/>
     <use xlink:href="#DejaVuSans-38" x="1146.056641"/>
     <use xlink:href="#DejaVuSans-63" x="1209.679688"/>
     <use xlink:href="#DejaVuSans-64" x="1264.660156"/>
     <use xlink:href="#DejaVuSans-39" x="1328.136719"/>
     <use xlink:href="#DejaVuSans-37" x="1391.759766"/>
     <use xlink:href="#DejaVuSans-38" x="1455.382812"/>
     <use xlink:href="#DejaVuSans-33" x="1519.005859"/>
     <use xlink:href="#DejaVuSans-37" x="1582.628906"/>
     <use xlink:href="#DejaVuSans-33" x="1646.251953"/>
    </g>
   </g>
  </g>
 </g>
 <defs>
  <clipPath id="p55711071d5">
   <rect x="57.6" y="6.912" width="303.2064" height="292.032"/>
  </clipPath>
 </defs>
</svg>
