<?xml version="1.0" encoding="utf-8" standalone="no"?>
<!DOCTYPE svg PUBLIC "-//W3C//DTD SVG 1.1//EN"
  "http://www.w3.org/Graphics/SVG/1.1/DTD/svg11.dtd">
<svg xmlns:xlink="http://www.w3.org/1999/xlink" width="460.8pt" height="345.6pt" viewBox="0 0 460.8 345.6" xmlns="http://www.w3.org/2000/svg" version="1.1">
 <metadata>
  <rdf:RDF xmlns:dc="http://purl.org/dc/elements/1.1/" xmlns:cc="http://creativecommons.org/ns#" xmlns:rdf="http://www.w3.org/1999/02/22-rdf-syntax-ns#">
   <cc:Work>
    <dc:type rdf:resource="http://purl.org/dc/dcmitype/StillImage"/>
    <dc:date>2022-06-19T21:02:57.242338</dc:date>
    <dc:format>image/svg+xml</dc:format>
    <dc:creator>
     <cc:Agent>
      <dc:title>Matplotlib v3.5.1, https://matplotlib.org/</dc:title>
     </cc:Agent>
    </dc:creator>
   </cc:Work>
  </rdf:RDF>
 </metadata>
 <defs>
  <style type="text/css">*{stroke-linejoin: round; stroke-linecap: butt}</style>
 </defs>
 <g id="figure_1">
  <g id="patch_1">
   <path d="M 0 345.6 
L 460.8 345.6 
L 460.8 0 
L 0 0 
z
" style="fill: #ffffff"/>
  </g>
  <g id="axes_1">
   <g id="patch_2">
    <path d="M 57.6 298.944 
L 360.8064 298.944 
L 360.8064 6.912 
L 57.6 6.912 
z
" style="fill: #ffffff"/>
   </g>
   <g id="line2d_1">
    <path d="M 27.323974 298.944 
L 27.323974 297.265655 
L 40.363149 297.265655 
L 40.363149 293.908966 
L 57.6 293.908966 
L 57.6 290.552276 
L 63.929565 290.552276 
L 63.929565 283.838897 
L 72.432107 283.838897 
L 72.432107 280.482207 
L 79.480672 280.482207 
L 79.480672 277.125517 
L 84.596168 277.125517 
L 84.596168 273.768828 
L 87.1081 273.768828 
L 87.1081 272.090483 
L 87.876026 272.090483 
L 87.876026 270.412138 
L 93.66029 270.412138 
L 93.66029 265.377103 
L 99.346662 265.377103 
L 99.346662 263.698759 
L 100.147275 263.698759 
L 100.147275 258.663724 
L 103.047088 258.663724 
L 103.047088 255.307034 
L 106.699465 255.307034 
L 106.699465 250.272 
L 108.542628 250.272 
L 108.542628 246.91531 
L 110.674517 246.91531 
L 110.674517 245.236966 
L 112.790402 245.236966 
L 112.790402 243.558621 
L 114.872193 243.558621 
L 114.872193 240.201931 
L 116.907859 240.201931 
L 116.907859 236.845241 
L 120.28394 236.845241 
L 120.28394 235.166897 
L 121.581803 235.166897 
L 121.581803 230.131862 
L 124.373813 230.131862 
L 124.373813 226.775172 
L 126.899255 226.775172 
L 126.899255 223.418483 
L 128.786481 223.418483 
L 128.786481 220.061793 
L 133.983236 220.061793 
L 133.983236 215.026759 
L 134.368469 215.026759 
L 134.368469 209.991724 
L 140.950542 209.991724 
L 140.950542 206.635034 
L 141.65386 206.635034 
L 141.65386 203.278345 
L 142.661862 203.278345 
L 142.661862 199.921655 
L 147.1517 199.921655 
L 147.1517 196.564966 
L 147.691478 196.564966 
L 147.691478 193.208276 
L 149.679732 193.208276 
L 149.679732 189.851586 
L 153.282346 189.851586 
L 153.282346 186.494897 
L 154.73613 186.494897 
L 154.73613 183.138207 
L 158.223191 183.138207 
L 158.223191 181.459862 
L 158.804221 181.459862 
L 158.804221 179.781517 
L 161.010268 179.781517 
L 161.010268 178.103172 
L 165.489541 178.103172 
L 165.489541 173.068138 
L 167.861203 173.068138 
L 167.861203 168.033103 
L 172.263447 168.033103 
L 172.263447 166.354759 
L 173.03578 166.354759 
L 173.03578 161.319724 
L 174.506426 161.319724 
L 174.506426 159.641379 
L 181.67687 159.641379 
L 181.67687 154.606345 
L 181.957455 154.606345 
L 181.957455 149.57131 
L 186.576733 149.57131 
L 186.576733 147.892966 
L 189.884615 147.892966 
L 189.884615 144.536276 
L 194.30293 144.536276 
L 194.30293 141.179586 
L 198.993731 141.179586 
L 198.993731 136.144552 
L 199.46877 136.144552 
L 199.46877 134.466207 
L 201.027245 134.466207 
L 201.027245 132.787862 
L 204.328551 132.787862 
L 204.328551 127.752828 
L 209.84829 127.752828 
L 209.879305 122.717793 
L 210.656134 122.717793 
L 210.656134 117.682759 
L 215.843811 117.682759 
L 215.843811 112.647724 
L 221.688334 112.647724 
L 221.688334 110.969379 
L 222.160236 110.969379 
L 222.160236 107.61269 
L 222.590246 107.61269 
L 222.590246 105.934345 
L 228.773164 105.934345 
L 228.773164 102.577655 
L 230.554705 102.577655 
L 230.554705 97.542621 
L 231.746343 97.542621 
L 231.746343 92.507586 
L 235.614816 92.507586 
L 235.614816 90.829241 
L 237.190365 90.829241 
L 237.190365 87.472552 
L 239.62997 87.472552 
L 239.62997 85.794207 
L 242.674263 85.794207 
L 242.784569 79.080828 
L 244.28632 79.080828 
L 244.28632 74.045793 
L 249.93322 74.045793 
L 249.93322 70.689103 
L 250.082505 70.689103 
L 250.082505 65.654069 
L 250.238003 65.654069 
L 250.238003 63.975724 
L 257.063364 63.975724 
L 257.063364 60.619034 
L 258.670415 60.619034 
L 258.670415 57.262345 
L 265.400902 57.262345 
L 265.400902 52.22731 
L 276.435641 52.22731 
L 276.435641 50.548966 
L 285.267678 50.548966 
L 285.267678 47.192276 
L 288.505705 47.192276 
L 288.505705 42.157241 
L 360.8064 42.157241 
L 360.8064 42.157241 
" style="fill: none; stroke: #f5deb3; stroke-width: 4; stroke-linecap: square"/>
   </g>
   <g id="line2d_2">
    <defs>
     <path id="me9bb9c1c0f" d="M 0 7.778175 
L 7.778175 0 
L 0 -7.778175 
L -7.778175 0 
z
" style="stroke: #f5deb3; stroke-width: 1.5; stroke-linejoin: miter"/>
    </defs>
    <g>
     <use xlink:href="#me9bb9c1c0f" x="120.28394" y="235.166897" style="fill: #f5deb3; stroke: #f5deb3; stroke-width: 1.5; stroke-linejoin: miter"/>
     <use xlink:href="#me9bb9c1c0f" x="181.957455" y="154.606345" style="fill: #f5deb3; stroke: #f5deb3; stroke-width: 1.5; stroke-linejoin: miter"/>
     <use xlink:href="#me9bb9c1c0f" x="242.784569" y="82.437517" style="fill: #f5deb3; stroke: #f5deb3; stroke-width: 1.5; stroke-linejoin: miter"/>
     <use xlink:href="#me9bb9c1c0f" x="288.505705" y="47.192276" style="fill: #f5deb3; stroke: #f5deb3; stroke-width: 1.5; stroke-linejoin: miter"/>
     <use xlink:href="#me9bb9c1c0f" x="288.505705" y="42.157241" style="fill: #f5deb3; stroke: #f5deb3; stroke-width: 1.5; stroke-linejoin: miter"/>
     <use xlink:href="#me9bb9c1c0f" x="360.8064" y="42.157241" style="fill: #f5deb3; stroke: #f5deb3; stroke-width: 1.5; stroke-linejoin: miter"/>
    </g>
   </g>
   <g id="line2d_3">
    <path style="fill: none; stroke: #f5deb3; stroke-width: 4; stroke-linecap: square"/>
    <g/>
   </g>
   <g id="line2d_4">
    <path d="M 360.8064 42.157241 
L 380.514816 12.75264 
" style="fill: none; stroke: #f5deb3; stroke-width: 4; stroke-linecap: square"/>
    <g>
     <use xlink:href="#me9bb9c1c0f" x="360.8064" y="42.157241" style="fill: #f5deb3; stroke: #f5deb3; stroke-width: 1.5; stroke-linejoin: miter"/>
     <use xlink:href="#me9bb9c1c0f" x="380.514816" y="12.75264" style="fill: #f5deb3; stroke: #f5deb3; stroke-width: 1.5; stroke-linejoin: miter"/>
    </g>
   </g>
   <g id="matplotlib.axis_1">
    <g id="xtick_1">
     <g id="line2d_5">
      <path d="M 57.6 298.944 
L 57.6 6.912 
" clip-path="url(#pc4f4dd95eb)" style="fill: none; stroke: #b0b0b0; stroke-width: 0.8; stroke-linecap: square"/>
     </g>
     <g id="line2d_6">
      <defs>
       <path id="m48b38f6d79" d="M 0 0 
L 0 3.5 
" style="stroke: #000000; stroke-width: 0.8"/>
      </defs>
      <g>
       <use xlink:href="#m48b38f6d79" x="57.6" y="298.944" style="stroke: #000000; stroke-width: 0.8"/>
      </g>
     </g>
     <g id="text_1">
      <!-- 0 -->
      <g transform="translate(52.191875 318.861344)scale(0.17 -0.17)">
       <defs>
        <path id="DejaVuSans-30" d="M 2034 4250 
Q 1547 4250 1301 3770 
Q 1056 3291 1056 2328 
Q 1056 1369 1301 889 
Q 1547 409 2034 409 
Q 2525 409 2770 889 
Q 3016 1369 3016 2328 
Q 3016 3291 2770 3770 
Q 2525 4250 2034 4250 
z
M 2034 4750 
Q 2819 4750 3233 4129 
Q 3647 3509 3647 2328 
Q 3647 1150 3233 529 
Q 2819 -91 2034 -91 
Q 1250 -91 836 529 
Q 422 1150 422 2328 
Q 422 3509 836 4129 
Q 1250 4750 2034 4750 
z
" transform="scale(0.015625)"/>
       </defs>
       <use xlink:href="#DejaVuSans-30"/>
      </g>
     </g>
    </g>
    <g id="xtick_2">
     <g id="line2d_7">
      <path d="M 144.2304 298.944 
L 144.2304 6.912 
" clip-path="url(#pc4f4dd95eb)" style="fill: none; stroke: #b0b0b0; stroke-width: 0.8; stroke-linecap: square"/>
     </g>
     <g id="line2d_8">
      <g>
       <use xlink:href="#m48b38f6d79" x="144.2304" y="298.944" style="stroke: #000000; stroke-width: 0.8"/>
      </g>
     </g>
     <g id="text_2">
      <!-- 2 -->
      <g transform="translate(138.822275 318.861344)scale(0.17 -0.17)">
       <defs>
        <path id="DejaVuSans-32" d="M 1228 531 
L 3431 531 
L 3431 0 
L 469 0 
L 469 531 
Q 828 903 1448 1529 
Q 2069 2156 2228 2338 
Q 2531 2678 2651 2914 
Q 2772 3150 2772 3378 
Q 2772 3750 2511 3984 
Q 2250 4219 1831 4219 
Q 1534 4219 1204 4116 
Q 875 4013 500 3803 
L 500 4441 
Q 881 4594 1212 4672 
Q 1544 4750 1819 4750 
Q 2544 4750 2975 4387 
Q 3406 4025 3406 3419 
Q 3406 3131 3298 2873 
Q 3191 2616 2906 2266 
Q 2828 2175 2409 1742 
Q 1991 1309 1228 531 
z
" transform="scale(0.015625)"/>
       </defs>
       <use xlink:href="#DejaVuSans-32"/>
      </g>
     </g>
    </g>
    <g id="xtick_3">
     <g id="line2d_9">
      <path d="M 230.8608 298.944 
L 230.8608 6.912 
" clip-path="url(#pc4f4dd95eb)" style="fill: none; stroke: #b0b0b0; stroke-width: 0.8; stroke-linecap: square"/>
     </g>
     <g id="line2d_10">
      <g>
       <use xlink:href="#m48b38f6d79" x="230.8608" y="298.944" style="stroke: #000000; stroke-width: 0.8"/>
      </g>
     </g>
     <g id="text_3">
      <!-- 4 -->
      <g transform="translate(225.452675 318.861344)scale(0.17 -0.17)">
       <defs>
        <path id="DejaVuSans-34" d="M 2419 4116 
L 825 1625 
L 2419 1625 
L 2419 4116 
z
M 2253 4666 
L 3047 4666 
L 3047 1625 
L 3713 1625 
L 3713 1100 
L 3047 1100 
L 3047 0 
L 2419 0 
L 2419 1100 
L 313 1100 
L 313 1709 
L 2253 4666 
z
" transform="scale(0.015625)"/>
       </defs>
       <use xlink:href="#DejaVuSans-34"/>
      </g>
     </g>
    </g>
    <g id="xtick_4">
     <g id="line2d_11">
      <path d="M 317.4912 298.944 
L 317.4912 6.912 
" clip-path="url(#pc4f4dd95eb)" style="fill: none; stroke: #b0b0b0; stroke-width: 0.8; stroke-linecap: square"/>
     </g>
     <g id="line2d_12">
      <g>
       <use xlink:href="#m48b38f6d79" x="317.4912" y="298.944" style="stroke: #000000; stroke-width: 0.8"/>
      </g>
     </g>
     <g id="text_4">
      <!-- 6 -->
      <g transform="translate(312.083075 318.861344)scale(0.17 -0.17)">
       <defs>
        <path id="DejaVuSans-36" d="M 2113 2584 
Q 1688 2584 1439 2293 
Q 1191 2003 1191 1497 
Q 1191 994 1439 701 
Q 1688 409 2113 409 
Q 2538 409 2786 701 
Q 3034 994 3034 1497 
Q 3034 2003 2786 2293 
Q 2538 2584 2113 2584 
z
M 3366 4563 
L 3366 3988 
Q 3128 4100 2886 4159 
Q 2644 4219 2406 4219 
Q 1781 4219 1451 3797 
Q 1122 3375 1075 2522 
Q 1259 2794 1537 2939 
Q 1816 3084 2150 3084 
Q 2853 3084 3261 2657 
Q 3669 2231 3669 1497 
Q 3669 778 3244 343 
Q 2819 -91 2113 -91 
Q 1303 -91 875 529 
Q 447 1150 447 2328 
Q 447 3434 972 4092 
Q 1497 4750 2381 4750 
Q 2619 4750 2861 4703 
Q 3103 4656 3366 4563 
z
" transform="scale(0.015625)"/>
       </defs>
       <use xlink:href="#DejaVuSans-36"/>
      </g>
     </g>
    </g>
    <g id="xtick_5">
     <g id="line2d_13">
      <path d="M 100.9152 298.944 
L 100.9152 6.912 
" clip-path="url(#pc4f4dd95eb)" style="fill: none; stroke: #b0b0b0; stroke-width: 0.8; stroke-linecap: square"/>
     </g>
     <g id="line2d_14">
      <defs>
       <path id="mb507932cb8" d="M 0 0 
L 0 2 
" style="stroke: #000000; stroke-width: 0.6"/>
      </defs>
      <g>
       <use xlink:href="#mb507932cb8" x="100.9152" y="298.944" style="stroke: #000000; stroke-width: 0.6"/>
      </g>
     </g>
    </g>
    <g id="xtick_6">
     <g id="line2d_15">
      <path d="M 187.5456 298.944 
L 187.5456 6.912 
" clip-path="url(#pc4f4dd95eb)" style="fill: none; stroke: #b0b0b0; stroke-width: 0.8; stroke-linecap: square"/>
     </g>
     <g id="line2d_16">
      <g>
       <use xlink:href="#mb507932cb8" x="187.5456" y="298.944" style="stroke: #000000; stroke-width: 0.6"/>
      </g>
     </g>
    </g>
    <g id="xtick_7">
     <g id="line2d_17">
      <path d="M 274.176 298.944 
L 274.176 6.912 
" clip-path="url(#pc4f4dd95eb)" style="fill: none; stroke: #b0b0b0; stroke-width: 0.8; stroke-linecap: square"/>
     </g>
     <g id="line2d_18">
      <g>
       <use xlink:href="#mb507932cb8" x="274.176" y="298.944" style="stroke: #000000; stroke-width: 0.6"/>
      </g>
     </g>
    </g>
    <g id="xtick_8">
     <g id="line2d_19">
      <path d="M 360.8064 298.944 
L 360.8064 6.912 
" clip-path="url(#pc4f4dd95eb)" style="fill: none; stroke: #b0b0b0; stroke-width: 0.8; stroke-linecap: square"/>
     </g>
     <g id="line2d_20">
      <g>
       <use xlink:href="#mb507932cb8" x="360.8064" y="298.944" style="stroke: #000000; stroke-width: 0.6"/>
      </g>
     </g>
    </g>
    <g id="text_5">
     <!-- log10(# f-evals / dimension) -->
     <g transform="translate(88.823278 339.314156)scale(0.17 -0.17)">
      <defs>
       <path id="DejaVuSans-6c" d="M 603 4863 
L 1178 4863 
L 1178 0 
L 603 0 
L 603 4863 
z
" transform="scale(0.015625)"/>
       <path id="DejaVuSans-6f" d="M 1959 3097 
Q 1497 3097 1228 2736 
Q 959 2375 959 1747 
Q 959 1119 1226 758 
Q 1494 397 1959 397 
Q 2419 397 2687 759 
Q 2956 1122 2956 1747 
Q 2956 2369 2687 2733 
Q 2419 3097 1959 3097 
z
M 1959 3584 
Q 2709 3584 3137 3096 
Q 3566 2609 3566 1747 
Q 3566 888 3137 398 
Q 2709 -91 1959 -91 
Q 1206 -91 779 398 
Q 353 888 353 1747 
Q 353 2609 779 3096 
Q 1206 3584 1959 3584 
z
" transform="scale(0.015625)"/>
       <path id="DejaVuSans-67" d="M 2906 1791 
Q 2906 2416 2648 2759 
Q 2391 3103 1925 3103 
Q 1463 3103 1205 2759 
Q 947 2416 947 1791 
Q 947 1169 1205 825 
Q 1463 481 1925 481 
Q 2391 481 2648 825 
Q 2906 1169 2906 1791 
z
M 3481 434 
Q 3481 -459 3084 -895 
Q 2688 -1331 1869 -1331 
Q 1566 -1331 1297 -1286 
Q 1028 -1241 775 -1147 
L 775 -588 
Q 1028 -725 1275 -790 
Q 1522 -856 1778 -856 
Q 2344 -856 2625 -561 
Q 2906 -266 2906 331 
L 2906 616 
Q 2728 306 2450 153 
Q 2172 0 1784 0 
Q 1141 0 747 490 
Q 353 981 353 1791 
Q 353 2603 747 3093 
Q 1141 3584 1784 3584 
Q 2172 3584 2450 3431 
Q 2728 3278 2906 2969 
L 2906 3500 
L 3481 3500 
L 3481 434 
z
" transform="scale(0.015625)"/>
       <path id="DejaVuSans-31" d="M 794 531 
L 1825 531 
L 1825 4091 
L 703 3866 
L 703 4441 
L 1819 4666 
L 2450 4666 
L 2450 531 
L 3481 531 
L 3481 0 
L 794 0 
L 794 531 
z
" transform="scale(0.015625)"/>
       <path id="DejaVuSans-28" d="M 1984 4856 
Q 1566 4138 1362 3434 
Q 1159 2731 1159 2009 
Q 1159 1288 1364 580 
Q 1569 -128 1984 -844 
L 1484 -844 
Q 1016 -109 783 600 
Q 550 1309 550 2009 
Q 550 2706 781 3412 
Q 1013 4119 1484 4856 
L 1984 4856 
z
" transform="scale(0.015625)"/>
       <path id="DejaVuSans-23" d="M 3272 2816 
L 2363 2816 
L 2100 1772 
L 3016 1772 
L 3272 2816 
z
M 2803 4594 
L 2478 3297 
L 3391 3297 
L 3719 4594 
L 4219 4594 
L 3897 3297 
L 4872 3297 
L 4872 2816 
L 3775 2816 
L 3519 1772 
L 4513 1772 
L 4513 1294 
L 3397 1294 
L 3072 0 
L 2572 0 
L 2894 1294 
L 1978 1294 
L 1656 0 
L 1153 0 
L 1478 1294 
L 494 1294 
L 494 1772 
L 1594 1772 
L 1856 2816 
L 850 2816 
L 850 3297 
L 1978 3297 
L 2297 4594 
L 2803 4594 
z
" transform="scale(0.015625)"/>
       <path id="DejaVuSans-20" transform="scale(0.015625)"/>
       <path id="DejaVuSans-66" d="M 2375 4863 
L 2375 4384 
L 1825 4384 
Q 1516 4384 1395 4259 
Q 1275 4134 1275 3809 
L 1275 3500 
L 2222 3500 
L 2222 3053 
L 1275 3053 
L 1275 0 
L 697 0 
L 697 3053 
L 147 3053 
L 147 3500 
L 697 3500 
L 697 3744 
Q 697 4328 969 4595 
Q 1241 4863 1831 4863 
L 2375 4863 
z
" transform="scale(0.015625)"/>
       <path id="DejaVuSans-2d" d="M 313 2009 
L 1997 2009 
L 1997 1497 
L 313 1497 
L 313 2009 
z
" transform="scale(0.015625)"/>
       <path id="DejaVuSans-65" d="M 3597 1894 
L 3597 1613 
L 953 1613 
Q 991 1019 1311 708 
Q 1631 397 2203 397 
Q 2534 397 2845 478 
Q 3156 559 3463 722 
L 3463 178 
Q 3153 47 2828 -22 
Q 2503 -91 2169 -91 
Q 1331 -91 842 396 
Q 353 884 353 1716 
Q 353 2575 817 3079 
Q 1281 3584 2069 3584 
Q 2775 3584 3186 3129 
Q 3597 2675 3597 1894 
z
M 3022 2063 
Q 3016 2534 2758 2815 
Q 2500 3097 2075 3097 
Q 1594 3097 1305 2825 
Q 1016 2553 972 2059 
L 3022 2063 
z
" transform="scale(0.015625)"/>
       <path id="DejaVuSans-76" d="M 191 3500 
L 800 3500 
L 1894 563 
L 2988 3500 
L 3597 3500 
L 2284 0 
L 1503 0 
L 191 3500 
z
" transform="scale(0.015625)"/>
       <path id="DejaVuSans-61" d="M 2194 1759 
Q 1497 1759 1228 1600 
Q 959 1441 959 1056 
Q 959 750 1161 570 
Q 1363 391 1709 391 
Q 2188 391 2477 730 
Q 2766 1069 2766 1631 
L 2766 1759 
L 2194 1759 
z
M 3341 1997 
L 3341 0 
L 2766 0 
L 2766 531 
Q 2569 213 2275 61 
Q 1981 -91 1556 -91 
Q 1019 -91 701 211 
Q 384 513 384 1019 
Q 384 1609 779 1909 
Q 1175 2209 1959 2209 
L 2766 2209 
L 2766 2266 
Q 2766 2663 2505 2880 
Q 2244 3097 1772 3097 
Q 1472 3097 1187 3025 
Q 903 2953 641 2809 
L 641 3341 
Q 956 3463 1253 3523 
Q 1550 3584 1831 3584 
Q 2591 3584 2966 3190 
Q 3341 2797 3341 1997 
z
" transform="scale(0.015625)"/>
       <path id="DejaVuSans-73" d="M 2834 3397 
L 2834 2853 
Q 2591 2978 2328 3040 
Q 2066 3103 1784 3103 
Q 1356 3103 1142 2972 
Q 928 2841 928 2578 
Q 928 2378 1081 2264 
Q 1234 2150 1697 2047 
L 1894 2003 
Q 2506 1872 2764 1633 
Q 3022 1394 3022 966 
Q 3022 478 2636 193 
Q 2250 -91 1575 -91 
Q 1294 -91 989 -36 
Q 684 19 347 128 
L 347 722 
Q 666 556 975 473 
Q 1284 391 1588 391 
Q 1994 391 2212 530 
Q 2431 669 2431 922 
Q 2431 1156 2273 1281 
Q 2116 1406 1581 1522 
L 1381 1569 
Q 847 1681 609 1914 
Q 372 2147 372 2553 
Q 372 3047 722 3315 
Q 1072 3584 1716 3584 
Q 2034 3584 2315 3537 
Q 2597 3491 2834 3397 
z
" transform="scale(0.015625)"/>
       <path id="DejaVuSans-2f" d="M 1625 4666 
L 2156 4666 
L 531 -594 
L 0 -594 
L 1625 4666 
z
" transform="scale(0.015625)"/>
       <path id="DejaVuSans-64" d="M 2906 2969 
L 2906 4863 
L 3481 4863 
L 3481 0 
L 2906 0 
L 2906 525 
Q 2725 213 2448 61 
Q 2172 -91 1784 -91 
Q 1150 -91 751 415 
Q 353 922 353 1747 
Q 353 2572 751 3078 
Q 1150 3584 1784 3584 
Q 2172 3584 2448 3432 
Q 2725 3281 2906 2969 
z
M 947 1747 
Q 947 1113 1208 752 
Q 1469 391 1925 391 
Q 2381 391 2643 752 
Q 2906 1113 2906 1747 
Q 2906 2381 2643 2742 
Q 2381 3103 1925 3103 
Q 1469 3103 1208 2742 
Q 947 2381 947 1747 
z
" transform="scale(0.015625)"/>
       <path id="DejaVuSans-69" d="M 603 3500 
L 1178 3500 
L 1178 0 
L 603 0 
L 603 3500 
z
M 603 4863 
L 1178 4863 
L 1178 4134 
L 603 4134 
L 603 4863 
z
" transform="scale(0.015625)"/>
       <path id="DejaVuSans-6d" d="M 3328 2828 
Q 3544 3216 3844 3400 
Q 4144 3584 4550 3584 
Q 5097 3584 5394 3201 
Q 5691 2819 5691 2113 
L 5691 0 
L 5113 0 
L 5113 2094 
Q 5113 2597 4934 2840 
Q 4756 3084 4391 3084 
Q 3944 3084 3684 2787 
Q 3425 2491 3425 1978 
L 3425 0 
L 2847 0 
L 2847 2094 
Q 2847 2600 2669 2842 
Q 2491 3084 2119 3084 
Q 1678 3084 1418 2786 
Q 1159 2488 1159 1978 
L 1159 0 
L 581 0 
L 581 3500 
L 1159 3500 
L 1159 2956 
Q 1356 3278 1631 3431 
Q 1906 3584 2284 3584 
Q 2666 3584 2933 3390 
Q 3200 3197 3328 2828 
z
" transform="scale(0.015625)"/>
       <path id="DejaVuSans-6e" d="M 3513 2113 
L 3513 0 
L 2938 0 
L 2938 2094 
Q 2938 2591 2744 2837 
Q 2550 3084 2163 3084 
Q 1697 3084 1428 2787 
Q 1159 2491 1159 1978 
L 1159 0 
L 581 0 
L 581 3500 
L 1159 3500 
L 1159 2956 
Q 1366 3272 1645 3428 
Q 1925 3584 2291 3584 
Q 2894 3584 3203 3211 
Q 3513 2838 3513 2113 
z
" transform="scale(0.015625)"/>
       <path id="DejaVuSans-29" d="M 513 4856 
L 1013 4856 
Q 1481 4119 1714 3412 
Q 1947 2706 1947 2009 
Q 1947 1309 1714 600 
Q 1481 -109 1013 -844 
L 513 -844 
Q 928 -128 1133 580 
Q 1338 1288 1338 2009 
Q 1338 2731 1133 3434 
Q 928 4138 513 4856 
z
" transform="scale(0.015625)"/>
      </defs>
      <use xlink:href="#DejaVuSans-6c"/>
      <use xlink:href="#DejaVuSans-6f" x="27.783203"/>
      <use xlink:href="#DejaVuSans-67" x="88.964844"/>
      <use xlink:href="#DejaVuSans-31" x="152.441406"/>
      <use xlink:href="#DejaVuSans-30" x="216.064453"/>
      <use xlink:href="#DejaVuSans-28" x="279.6875"/>
      <use xlink:href="#DejaVuSans-23" x="318.701172"/>
      <use xlink:href="#DejaVuSans-20" x="402.490234"/>
      <use xlink:href="#DejaVuSans-66" x="434.277344"/>
      <use xlink:href="#DejaVuSans-2d" x="463.982422"/>
      <use xlink:href="#DejaVuSans-65" x="500.066406"/>
      <use xlink:href="#DejaVuSans-76" x="561.589844"/>
      <use xlink:href="#DejaVuSans-61" x="620.769531"/>
      <use xlink:href="#DejaVuSans-6c" x="682.048828"/>
      <use xlink:href="#DejaVuSans-73" x="709.832031"/>
      <use xlink:href="#DejaVuSans-20" x="761.931641"/>
      <use xlink:href="#DejaVuSans-2f" x="793.71875"/>
      <use xlink:href="#DejaVuSans-20" x="827.410156"/>
      <use xlink:href="#DejaVuSans-64" x="859.197266"/>
      <use xlink:href="#DejaVuSans-69" x="922.673828"/>
      <use xlink:href="#DejaVuSans-6d" x="950.457031"/>
      <use xlink:href="#DejaVuSans-65" x="1047.869141"/>
      <use xlink:href="#DejaVuSans-6e" x="1109.392578"/>
      <use xlink:href="#DejaVuSans-73" x="1172.771484"/>
      <use xlink:href="#DejaVuSans-69" x="1224.871094"/>
      <use xlink:href="#DejaVuSans-6f" x="1252.654297"/>
      <use xlink:href="#DejaVuSans-6e" x="1313.835938"/>
      <use xlink:href="#DejaVuSans-29" x="1377.214844"/>
     </g>
    </g>
   </g>
   <g id="matplotlib.axis_2">
    <g id="ytick_1">
     <g id="line2d_21">
      <path d="M 57.6 298.944 
L 360.8064 298.944 
" clip-path="url(#pc4f4dd95eb)" style="fill: none; stroke: #b0b0b0; stroke-width: 0.8; stroke-linecap: square"/>
     </g>
     <g id="line2d_22">
      <defs>
       <path id="m508f697a24" d="M 0 0 
L -3.5 0 
" style="stroke: #000000; stroke-width: 0.8"/>
      </defs>
      <g>
       <use xlink:href="#m508f697a24" x="57.6" y="298.944" style="stroke: #000000; stroke-width: 0.8"/>
      </g>
     </g>
     <g id="text_6">
      <!-- 0.0 -->
      <g transform="translate(25.155 305.02275)scale(0.16 -0.16)">
       <defs>
        <path id="DejaVuSans-2e" d="M 684 794 
L 1344 794 
L 1344 0 
L 684 0 
L 684 794 
z
" transform="scale(0.015625)"/>
       </defs>
       <use xlink:href="#DejaVuSans-30"/>
       <use xlink:href="#DejaVuSans-2e" x="63.623047"/>
       <use xlink:href="#DejaVuSans-30" x="95.410156"/>
      </g>
     </g>
    </g>
    <g id="ytick_2">
     <g id="line2d_23">
      <path d="M 57.6 240.5376 
L 360.8064 240.5376 
" clip-path="url(#pc4f4dd95eb)" style="fill: none; stroke: #b0b0b0; stroke-width: 0.8; stroke-linecap: square"/>
     </g>
     <g id="line2d_24">
      <g>
       <use xlink:href="#m508f697a24" x="57.6" y="240.5376" style="stroke: #000000; stroke-width: 0.8"/>
      </g>
     </g>
     <g id="text_7">
      <!-- 0.2 -->
      <g transform="translate(25.155 246.61635)scale(0.16 -0.16)">
       <use xlink:href="#DejaVuSans-30"/>
       <use xlink:href="#DejaVuSans-2e" x="63.623047"/>
       <use xlink:href="#DejaVuSans-32" x="95.410156"/>
      </g>
     </g>
    </g>
    <g id="ytick_3">
     <g id="line2d_25">
      <path d="M 57.6 182.1312 
L 360.8064 182.1312 
" clip-path="url(#pc4f4dd95eb)" style="fill: none; stroke: #b0b0b0; stroke-width: 0.8; stroke-linecap: square"/>
     </g>
     <g id="line2d_26">
      <g>
       <use xlink:href="#m508f697a24" x="57.6" y="182.1312" style="stroke: #000000; stroke-width: 0.8"/>
      </g>
     </g>
     <g id="text_8">
      <!-- 0.4 -->
      <g transform="translate(25.155 188.20995)scale(0.16 -0.16)">
       <use xlink:href="#DejaVuSans-30"/>
       <use xlink:href="#DejaVuSans-2e" x="63.623047"/>
       <use xlink:href="#DejaVuSans-34" x="95.410156"/>
      </g>
     </g>
    </g>
    <g id="ytick_4">
     <g id="line2d_27">
      <path d="M 57.6 123.7248 
L 360.8064 123.7248 
" clip-path="url(#pc4f4dd95eb)" style="fill: none; stroke: #b0b0b0; stroke-width: 0.8; stroke-linecap: square"/>
     </g>
     <g id="line2d_28">
      <g>
       <use xlink:href="#m508f697a24" x="57.6" y="123.7248" style="stroke: #000000; stroke-width: 0.8"/>
      </g>
     </g>
     <g id="text_9">
      <!-- 0.6 -->
      <g transform="translate(25.155 129.80355)scale(0.16 -0.16)">
       <use xlink:href="#DejaVuSans-30"/>
       <use xlink:href="#DejaVuSans-2e" x="63.623047"/>
       <use xlink:href="#DejaVuSans-36" x="95.410156"/>
      </g>
     </g>
    </g>
    <g id="ytick_5">
     <g id="line2d_29">
      <path d="M 57.6 65.3184 
L 360.8064 65.3184 
" clip-path="url(#pc4f4dd95eb)" style="fill: none; stroke: #b0b0b0; stroke-width: 0.8; stroke-linecap: square"/>
     </g>
     <g id="line2d_30">
      <g>
       <use xlink:href="#m508f697a24" x="57.6" y="65.3184" style="stroke: #000000; stroke-width: 0.8"/>
      </g>
     </g>
     <g id="text_10">
      <!-- 0.8 -->
      <g transform="translate(25.155 71.39715)scale(0.16 -0.16)">
       <defs>
        <path id="DejaVuSans-38" d="M 2034 2216 
Q 1584 2216 1326 1975 
Q 1069 1734 1069 1313 
Q 1069 891 1326 650 
Q 1584 409 2034 409 
Q 2484 409 2743 651 
Q 3003 894 3003 1313 
Q 3003 1734 2745 1975 
Q 2488 2216 2034 2216 
z
M 1403 2484 
Q 997 2584 770 2862 
Q 544 3141 544 3541 
Q 544 4100 942 4425 
Q 1341 4750 2034 4750 
Q 2731 4750 3128 4425 
Q 3525 4100 3525 3541 
Q 3525 3141 3298 2862 
Q 3072 2584 2669 2484 
Q 3125 2378 3379 2068 
Q 3634 1759 3634 1313 
Q 3634 634 3220 271 
Q 2806 -91 2034 -91 
Q 1263 -91 848 271 
Q 434 634 434 1313 
Q 434 1759 690 2068 
Q 947 2378 1403 2484 
z
M 1172 3481 
Q 1172 3119 1398 2916 
Q 1625 2713 2034 2713 
Q 2441 2713 2670 2916 
Q 2900 3119 2900 3481 
Q 2900 3844 2670 4047 
Q 2441 4250 2034 4250 
Q 1625 4250 1398 4047 
Q 1172 3844 1172 3481 
z
" transform="scale(0.015625)"/>
       </defs>
       <use xlink:href="#DejaVuSans-30"/>
       <use xlink:href="#DejaVuSans-2e" x="63.623047"/>
       <use xlink:href="#DejaVuSans-38" x="95.410156"/>
      </g>
     </g>
    </g>
    <g id="ytick_6">
     <g id="line2d_31">
      <path d="M 57.6 6.912 
L 360.8064 6.912 
" clip-path="url(#pc4f4dd95eb)" style="fill: none; stroke: #b0b0b0; stroke-width: 0.8; stroke-linecap: square"/>
     </g>
     <g id="line2d_32">
      <g>
       <use xlink:href="#m508f697a24" x="57.6" y="6.912" style="stroke: #000000; stroke-width: 0.8"/>
      </g>
     </g>
     <g id="text_11">
      <!-- 1.0 -->
      <g transform="translate(25.155 12.99075)scale(0.16 -0.16)">
       <use xlink:href="#DejaVuSans-31"/>
       <use xlink:href="#DejaVuSans-2e" x="63.623047"/>
       <use xlink:href="#DejaVuSans-30" x="95.410156"/>
      </g>
     </g>
    </g>
    <g id="text_12">
     <!-- Fraction of function,target pairs -->
     <g transform="translate(17.619531 287.313)rotate(-90)scale(0.17 -0.17)">
      <defs>
       <path id="DejaVuSans-46" d="M 628 4666 
L 3309 4666 
L 3309 4134 
L 1259 4134 
L 1259 2759 
L 3109 2759 
L 3109 2228 
L 1259 2228 
L 1259 0 
L 628 0 
L 628 4666 
z
" transform="scale(0.015625)"/>
       <path id="DejaVuSans-72" d="M 2631 2963 
Q 2534 3019 2420 3045 
Q 2306 3072 2169 3072 
Q 1681 3072 1420 2755 
Q 1159 2438 1159 1844 
L 1159 0 
L 581 0 
L 581 3500 
L 1159 3500 
L 1159 2956 
Q 1341 3275 1631 3429 
Q 1922 3584 2338 3584 
Q 2397 3584 2469 3576 
Q 2541 3569 2628 3553 
L 2631 2963 
z
" transform="scale(0.015625)"/>
       <path id="DejaVuSans-63" d="M 3122 3366 
L 3122 2828 
Q 2878 2963 2633 3030 
Q 2388 3097 2138 3097 
Q 1578 3097 1268 2742 
Q 959 2388 959 1747 
Q 959 1106 1268 751 
Q 1578 397 2138 397 
Q 2388 397 2633 464 
Q 2878 531 3122 666 
L 3122 134 
Q 2881 22 2623 -34 
Q 2366 -91 2075 -91 
Q 1284 -91 818 406 
Q 353 903 353 1747 
Q 353 2603 823 3093 
Q 1294 3584 2113 3584 
Q 2378 3584 2631 3529 
Q 2884 3475 3122 3366 
z
" transform="scale(0.015625)"/>
       <path id="DejaVuSans-74" d="M 1172 4494 
L 1172 3500 
L 2356 3500 
L 2356 3053 
L 1172 3053 
L 1172 1153 
Q 1172 725 1289 603 
Q 1406 481 1766 481 
L 2356 481 
L 2356 0 
L 1766 0 
Q 1100 0 847 248 
Q 594 497 594 1153 
L 594 3053 
L 172 3053 
L 172 3500 
L 594 3500 
L 594 4494 
L 1172 4494 
z
" transform="scale(0.015625)"/>
       <path id="DejaVuSans-75" d="M 544 1381 
L 544 3500 
L 1119 3500 
L 1119 1403 
Q 1119 906 1312 657 
Q 1506 409 1894 409 
Q 2359 409 2629 706 
Q 2900 1003 2900 1516 
L 2900 3500 
L 3475 3500 
L 3475 0 
L 2900 0 
L 2900 538 
Q 2691 219 2414 64 
Q 2138 -91 1772 -91 
Q 1169 -91 856 284 
Q 544 659 544 1381 
z
M 1991 3584 
L 1991 3584 
z
" transform="scale(0.015625)"/>
       <path id="DejaVuSans-2c" d="M 750 794 
L 1409 794 
L 1409 256 
L 897 -744 
L 494 -744 
L 750 256 
L 750 794 
z
" transform="scale(0.015625)"/>
       <path id="DejaVuSans-70" d="M 1159 525 
L 1159 -1331 
L 581 -1331 
L 581 3500 
L 1159 3500 
L 1159 2969 
Q 1341 3281 1617 3432 
Q 1894 3584 2278 3584 
Q 2916 3584 3314 3078 
Q 3713 2572 3713 1747 
Q 3713 922 3314 415 
Q 2916 -91 2278 -91 
Q 1894 -91 1617 61 
Q 1341 213 1159 525 
z
M 3116 1747 
Q 3116 2381 2855 2742 
Q 2594 3103 2138 3103 
Q 1681 3103 1420 2742 
Q 1159 2381 1159 1747 
Q 1159 1113 1420 752 
Q 1681 391 2138 391 
Q 2594 391 2855 752 
Q 3116 1113 3116 1747 
z
" transform="scale(0.015625)"/>
      </defs>
      <use xlink:href="#DejaVuSans-46"/>
      <use xlink:href="#DejaVuSans-72" x="50.269531"/>
      <use xlink:href="#DejaVuSans-61" x="91.382812"/>
      <use xlink:href="#DejaVuSans-63" x="152.662109"/>
      <use xlink:href="#DejaVuSans-74" x="207.642578"/>
      <use xlink:href="#DejaVuSans-69" x="246.851562"/>
      <use xlink:href="#DejaVuSans-6f" x="274.634766"/>
      <use xlink:href="#DejaVuSans-6e" x="335.816406"/>
      <use xlink:href="#DejaVuSans-20" x="399.195312"/>
      <use xlink:href="#DejaVuSans-6f" x="430.982422"/>
      <use xlink:href="#DejaVuSans-66" x="492.164062"/>
      <use xlink:href="#DejaVuSans-20" x="527.369141"/>
      <use xlink:href="#DejaVuSans-66" x="559.15625"/>
      <use xlink:href="#DejaVuSans-75" x="594.361328"/>
      <use xlink:href="#DejaVuSans-6e" x="657.740234"/>
      <use xlink:href="#DejaVuSans-63" x="721.119141"/>
      <use xlink:href="#DejaVuSans-74" x="776.099609"/>
      <use xlink:href="#DejaVuSans-69" x="815.308594"/>
      <use xlink:href="#DejaVuSans-6f" x="843.091797"/>
      <use xlink:href="#DejaVuSans-6e" x="904.273438"/>
      <use xlink:href="#DejaVuSans-2c" x="967.652344"/>
      <use xlink:href="#DejaVuSans-74" x="999.439453"/>
      <use xlink:href="#DejaVuSans-61" x="1038.648438"/>
      <use xlink:href="#DejaVuSans-72" x="1099.927734"/>
      <use xlink:href="#DejaVuSans-67" x="1139.291016"/>
      <use xlink:href="#DejaVuSans-65" x="1202.767578"/>
      <use xlink:href="#DejaVuSans-74" x="1264.291016"/>
      <use xlink:href="#DejaVuSans-20" x="1303.5"/>
      <use xlink:href="#DejaVuSans-70" x="1335.287109"/>
      <use xlink:href="#DejaVuSans-61" x="1398.763672"/>
      <use xlink:href="#DejaVuSans-69" x="1460.042969"/>
      <use xlink:href="#DejaVuSans-72" x="1487.826172"/>
      <use xlink:href="#DejaVuSans-73" x="1528.939453"/>
     </g>
    </g>
   </g>
   <g id="line2d_33">
    <defs>
     <path id="m2b55548c83" d="M 0 1.5 
C 0.397805 1.5 0.77937 1.341951 1.06066 1.06066 
C 1.341951 0.77937 1.5 0.397805 1.5 0 
C 1.5 -0.397805 1.341951 -0.77937 1.06066 -1.06066 
C 0.77937 -1.341951 0.397805 -1.5 0 -1.5 
C -0.397805 -1.5 -0.77937 -1.341951 -1.06066 -1.06066 
C -1.341951 -0.77937 -1.5 -0.397805 -1.5 0 
C -1.5 0.397805 -1.341951 0.77937 -1.06066 1.06066 
C -0.77937 1.341951 -0.397805 1.5 0 1.5 
z
" style="stroke: #f5deb3"/>
    </defs>
    <g>
     <use xlink:href="#m2b55548c83" x="288.505705" y="42.157241" style="fill: #f5deb3; stroke: #f5deb3"/>
     <use xlink:href="#m2b55548c83" x="288.505705" y="42.157241" style="fill: #f5deb3; stroke: #f5deb3"/>
    </g>
   </g>
   <g id="line2d_34">
    <defs>
     <path id="mac6fa7c92b" d="M 0 1.5 
C 0.397805 1.5 0.77937 1.341951 1.06066 1.06066 
C 1.341951 0.77937 1.5 0.397805 1.5 0 
C 1.5 -0.397805 1.341951 -0.77937 1.06066 -1.06066 
C 0.77937 -1.341951 0.397805 -1.5 0 -1.5 
C -0.397805 -1.5 -0.77937 -1.341951 -1.06066 -1.06066 
C -1.341951 -0.77937 -1.5 -0.397805 -1.5 0 
C -1.5 0.397805 -1.341951 0.77937 -1.06066 1.06066 
C -0.77937 1.341951 -0.397805 1.5 0 1.5 
z
" style="stroke: #000080"/>
    </defs>
    <g>
     <use xlink:href="#mac6fa7c92b" x="81.696354" y="268.062455" style="fill: #000080; stroke: #000080"/>
     <use xlink:href="#mac6fa7c92b" x="81.696354" y="268.062455" style="fill: #000080; stroke: #000080"/>
    </g>
   </g>
   <g id="line2d_35">
    <path d="M 27.323974 298.944 
L 27.323974 286.524248 
L 40.363149 286.524248 
L 40.363149 286.188579 
L 47.990577 286.188579 
L 47.990577 284.3424 
L 53.402323 284.3424 
L 53.402323 283.167559 
L 57.6 283.167559 
L 57.6 282.664055 
L 61.029752 282.664055 
L 61.029752 280.817876 
L 63.929565 280.817876 
L 63.929565 279.139531 
L 66.441498 279.139531 
L 66.441498 278.636028 
L 68.65718 278.636028 
L 68.65718 276.622014 
L 70.639174 276.622014 
L 70.639174 275.950676 
L 72.432107 275.950676 
L 72.432107 274.943669 
L 74.068926 274.943669 
L 74.068926 273.768828 
L 75.574654 273.768828 
L 75.574654 272.761821 
L 76.96874 272.761821 
L 76.96874 271.754814 
L 78.266603 271.754814 
L 78.266603 271.083476 
L 79.480672 271.083476 
L 79.480672 270.412138 
L 80.621116 270.412138 
L 80.621116 269.572966 
L 81.696354 269.572966 
L 81.696354 268.062455 
L 360.8064 268.062455 
" style="fill: none; stroke: #000080; stroke-width: 1.5; stroke-linecap: square"/>
   </g>
   <g id="line2d_36">
    <defs>
     <path id="me0075b2862" d="M 0 6 
C 1.591219 6 3.117479 5.367802 4.242641 4.242641 
C 5.367802 3.117479 6 1.591219 6 0 
C 6 -1.591219 5.367802 -3.117479 4.242641 -4.242641 
C 3.117479 -5.367802 1.591219 -6 0 -6 
C -1.591219 -6 -3.117479 -5.367802 -4.242641 -4.242641 
C -5.367802 -3.117479 -6 -1.591219 -6 0 
C -6 1.591219 -5.367802 3.117479 -4.242641 4.242641 
C -3.117479 5.367802 -1.591219 6 0 6 
z
" style="stroke: #000080; stroke-width: 1.5"/>
    </defs>
    <g>
     <use xlink:href="#me0075b2862" x="79.480672" y="270.412138" style="fill-opacity: 0; stroke: #000080; stroke-width: 1.5"/>
     <use xlink:href="#me0075b2862" x="81.696354" y="269.572966" style="fill-opacity: 0; stroke: #000080; stroke-width: 1.5"/>
     <use xlink:href="#me0075b2862" x="81.696354" y="268.062455" style="fill-opacity: 0; stroke: #000080; stroke-width: 1.5"/>
     <use xlink:href="#me0075b2862" x="81.696354" y="268.062455" style="fill-opacity: 0; stroke: #000080; stroke-width: 1.5"/>
     <use xlink:href="#me0075b2862" x="81.696354" y="268.062455" style="fill-opacity: 0; stroke: #000080; stroke-width: 1.5"/>
     <use xlink:href="#me0075b2862" x="360.8064" y="268.062455" style="fill-opacity: 0; stroke: #000080; stroke-width: 1.5"/>
    </g>
   </g>
   <g id="line2d_37">
    <path style="fill: none; stroke: #000080; stroke-width: 1.5; stroke-linecap: square"/>
    <g/>
   </g>
   <g id="line2d_38">
    <path d="M 81.696354 268.062455 
" clip-path="url(#pc4f4dd95eb)" style="fill: none; stroke: #000080; stroke-width: 1.5; stroke-linecap: square"/>
    <defs>
     <path id="mc1c780938e" d="M -12 12 
L 12 -12 
M -12 -12 
L 12 12 
" style="stroke: #000080"/>
    </defs>
    <g clip-path="url(#pc4f4dd95eb)">
     <use xlink:href="#mc1c780938e" x="81.696354" y="268.062455" style="fill: #000080; stroke: #000080"/>
    </g>
   </g>
   <g id="line2d_39">
    <defs>
     <path id="m73f605e804" d="M 0 1.5 
C 0.397805 1.5 0.77937 1.341951 1.06066 1.06066 
C 1.341951 0.77937 1.5 0.397805 1.5 0 
C 1.5 -0.397805 1.341951 -0.77937 1.06066 -1.06066 
C 0.77937 -1.341951 0.397805 -1.5 0 -1.5 
C -0.397805 -1.5 -0.77937 -1.341951 -1.06066 -1.06066 
C -1.341951 -0.77937 -1.5 -0.397805 -1.5 0 
C -1.5 0.397805 -1.341951 0.77937 -1.06066 1.06066 
C -0.77937 1.341951 -0.397805 1.5 0 1.5 
z
" style="stroke: #ff00ff"/>
    </defs>
    <g>
     <use xlink:href="#m73f605e804" x="273.733698" y="98.717462" style="fill: #ff00ff; stroke: #ff00ff"/>
     <use xlink:href="#m73f605e804" x="273.733698" y="98.717462" style="fill: #ff00ff; stroke: #ff00ff"/>
    </g>
   </g>
   <g id="line2d_40">
    <path d="M 27.323974 298.944 
L 27.323974 286.524248 
L 40.363149 286.524248 
L 40.363149 284.845903 
L 47.990577 284.845903 
L 47.990577 283.503228 
L 53.402323 283.503228 
L 53.402323 282.664055 
L 57.6 282.664055 
L 57.6 281.824883 
L 61.029752 281.824883 
L 61.029752 281.153545 
L 63.929565 281.153545 
L 63.929565 279.643034 
L 66.441498 279.643034 
L 66.441498 278.636028 
L 68.65718 278.636028 
L 68.65718 278.300359 
L 70.639174 278.300359 
L 70.639174 277.796855 
L 72.432107 277.796855 
L 72.432107 276.789848 
L 74.068926 276.789848 
L 74.068926 275.950676 
L 75.574654 275.950676 
L 75.574654 275.782841 
L 78.266603 275.782841 
L 78.266603 275.615007 
L 79.480672 275.615007 
L 79.480672 275.111503 
L 80.621116 275.111503 
L 80.621116 273.265324 
L 81.696354 273.265324 
L 81.696354 272.929655 
L 82.713442 272.929655 
L 82.713442 272.593986 
L 83.678349 272.593986 
L 83.678349 272.426152 
L 86.307488 272.426152 
L 86.307488 272.258317 
L 87.1081 272.258317 
L 87.1081 271.754814 
L 87.876026 271.754814 
L 87.876026 271.419145 
L 90.007914 271.419145 
L 90.007914 271.25131 
L 90.668036 271.25131 
L 90.668036 270.747807 
L 92.519847 270.747807 
L 92.519847 270.412138 
L 93.098709 270.412138 
L 93.098709 270.244303 
L 93.66029 270.244303 
L 93.66029 270.076469 
L 94.205591 270.076469 
L 94.205591 269.908634 
L 95.752617 269.908634 
L 95.752617 269.7408 
L 98.077987 269.7408 
L 98.077987 269.405131 
L 98.510456 269.405131 
L 98.510456 269.069462 
L 100.147275 269.069462 
L 100.147275 268.565959 
L 101.287718 268.565959 
L 101.287718 268.23029 
L 101.653002 268.23029 
L 101.653002 268.062455 
L 102.011329 268.062455 
L 102.011329 267.894621 
L 102.362957 267.894621 
L 102.362957 267.558952 
L 102.708132 267.558952 
L 102.708132 267.055448 
L 103.047088 267.055448 
L 103.047088 266.887614 
L 104.028784 266.887614 
L 104.028784 266.719779 
L 104.344952 266.719779 
L 104.344952 266.216276 
L 106.699465 266.216276 
L 106.699465 266.048441 
L 106.974091 266.048441 
L 106.974091 265.880607 
L 107.244765 265.880607 
L 107.244765 264.8736 
L 109.520071 264.8736 
L 109.520071 264.537931 
L 109.990385 264.537931 
L 109.990385 263.866593 
L 110.221204 263.866593 
L 110.221204 263.698759 
L 111.334639 263.698759 
L 111.334639 263.36309 
L 112.180244 263.36309 
L 112.180244 263.027421 
L 112.589207 263.027421 
L 112.589207 262.523917 
L 113.57433 262.523917 
L 113.57433 262.356083 
L 113.765312 262.356083 
L 113.765312 262.020414 
L 114.141556 262.020414 
L 114.141556 261.51691 
L 114.510421 261.51691 
L 114.510421 261.349076 
L 114.692177 261.349076 
L 114.692177 261.013407 
L 114.872193 261.013407 
L 114.872193 260.845572 
L 115.402131 260.845572 
L 115.402131 260.677738 
L 115.747307 260.677738 
L 115.747307 260.174234 
L 115.917548 260.174234 
L 115.917548 259.838566 
L 116.746385 259.838566 
L 116.746385 259.670731 
L 117.067958 259.670731 
L 117.067958 259.502897 
L 118.301945 259.502897 
L 118.301945 258.999393 
L 118.450653 258.999393 
L 118.450653 258.831559 
L 118.598196 258.831559 
L 118.598196 258.663724 
L 118.74459 258.663724 
L 118.74459 258.160221 
L 118.889854 258.160221 
L 118.889854 257.992386 
L 119.177058 257.992386 
L 119.177058 257.824552 
L 119.459944 257.824552 
L 119.459944 257.656717 
L 119.738639 257.656717 
L 119.738639 257.321048 
L 120.013265 257.321048 
L 120.013265 256.985379 
L 120.682786 256.985379 
L 120.682786 256.64971 
L 121.455972 256.64971 
L 121.455972 255.978372 
L 122.076872 255.978372 
L 122.076872 255.642703 
L 122.319605 255.642703 
L 122.319605 255.1392 
L 122.559246 255.1392 
L 122.559246 254.971366 
L 123.260379 254.971366 
L 123.260379 254.803531 
L 123.936316 254.803531 
L 124.046648 253.964359 
L 124.156336 253.964359 
L 124.156336 253.293021 
L 124.373813 253.293021 
L 124.481616 252.957352 
L 124.588805 252.957352 
L 124.588805 252.789517 
L 124.801367 252.789517 
L 124.801367 252.621683 
L 125.115773 252.621683 
L 125.219419 251.78251 
L 125.829577 251.78251 
L 125.929373 251.446841 
L 126.028642 251.446841 
L 126.028642 250.607669 
L 126.225624 250.607669 
L 126.323346 249.600662 
L 126.993549 249.600662 
L 127.087372 248.593655 
L 127.18073 248.593655 
L 127.273627 247.922317 
L 127.640693 247.922317 
L 127.640693 247.586648 
L 127.821575 247.586648 
L 127.821575 247.083145 
L 128.000734 247.083145 
L 128.089678 246.747476 
L 128.441306 246.747476 
L 128.528195 246.076138 
L 128.614685 246.076138 
L 128.700779 245.572634 
L 128.956723 245.572634 
L 128.956723 245.4048 
L 129.292652 245.4048 
L 129.292652 245.069131 
L 129.78556 245.069131 
L 129.86647 244.565628 
L 130.344755 244.565628 
L 130.4233 244.062124 
L 130.501519 244.062124 
L 130.501519 243.726455 
L 130.656987 243.726455 
L 130.656987 243.390786 
L 130.811181 243.390786 
L 130.811181 243.222952 
L 130.964122 243.222952 
L 130.964122 243.055117 
L 131.115828 243.055117 
L 131.191226 242.719448 
L 131.41562 242.719448 
L 131.41562 242.551614 
L 131.63737 242.551614 
L 131.71071 241.880276 
L 132.001241 241.880276 
L 132.001241 241.712441 
L 132.287354 241.712441 
L 132.358208 241.208938 
L 132.499119 241.208938 
L 132.499119 241.041103 
L 132.708526 241.041103 
L 132.708526 240.873269 
L 132.846847 240.873269 
L 132.846847 240.705434 
L 133.05244 240.705434 
L 133.05244 240.5376 
L 133.25581 240.5376 
L 133.25581 240.369766 
L 133.523594 240.369766 
L 133.589949 240.034097 
L 134.112526 240.034097 
L 134.176839 239.530593 
L 134.304809 239.530593 
L 134.304809 239.194924 
L 134.495147 239.194924 
L 134.558167 238.691421 
L 134.620977 238.691421 
L 134.620977 238.523586 
L 134.745971 238.523586 
L 134.745971 238.355752 
L 135.054871 238.355752 
L 135.054871 238.187917 
L 135.59842 238.187917 
L 135.59842 237.852248 
L 136.752866 237.852248 
L 136.808769 237.516579 
L 136.864507 237.516579 
L 136.864507 237.348745 
L 137.030737 237.348745 
L 137.085822 236.677407 
L 137.681345 236.677407 
L 137.681345 236.509572 
L 138.818654 236.509572 
L 138.818654 236.341738 
L 139.117256 236.341738 
L 139.117256 236.006069 
L 140.815692 236.006069 
L 140.860749 235.6704 
L 140.950542 235.6704 
L 140.950542 235.502566 
L 141.217377 235.502566 
L 141.217377 235.334731 
L 142.206555 235.334731 
L 142.206555 235.166897 
L 143.02636 235.166897 
L 143.02636 234.999062 
L 143.423243 234.999062 
L 143.423243 234.831228 
L 144.822939 234.831228 
L 144.822939 234.663393 
L 144.968202 234.663393 
L 144.968202 234.495559 
L 145.255407 234.495559 
L 145.291002 234.15989 
L 145.712961 234.15989 
L 145.712961 233.992055 
L 146.989949 233.992055 
L 146.989949 233.656386 
L 147.375841 233.656386 
L 147.375841 233.488552 
L 147.878349 233.488552 
L 147.971093 232.985048 
L 148.03267 232.985048 
L 148.03267 232.817214 
L 148.216198 232.817214 
L 148.216198 232.481545 
L 149.107908 232.481545 
L 149.107908 232.31371 
L 150.8268 232.31371 
L 150.8268 232.145876 
L 152.131727 232.145876 
L 152.131727 231.978041 
L 152.377312 231.978041 
L 152.377312 231.642372 
L 153.02481 231.642372 
L 153.02481 231.474538 
L 153.444416 231.474538 
L 153.444416 231.306703 
L 153.8097 231.306703 
L 153.8097 231.138869 
L 153.967309 231.138869 
L 153.967309 230.8032 
L 154.454223 230.8032 
L 154.563149 230.299697 
L 154.907535 230.299697 
L 154.907535 230.131862 
L 155.639595 230.131862 
L 155.639595 229.796193 
L 155.863909 229.796193 
L 155.884169 229.460524 
L 156.363979 229.460524 
L 156.363979 229.29269 
L 156.715973 229.29269 
L 156.774003 228.789186 
L 157.344671 228.789186 
L 157.344671 228.621352 
L 157.642093 228.621352 
L 157.69734 228.117848 
L 157.825621 228.117848 
L 157.880333 227.614345 
L 158.187393 227.614345 
L 158.187393 227.278676 
L 158.365703 227.278676 
L 158.365703 227.110841 
L 158.786875 227.110841 
L 158.873444 226.439503 
L 158.959618 226.439503 
L 158.959618 226.271669 
L 159.300416 226.271669 
L 159.300416 225.936 
L 159.651731 225.936 
L 159.701388 225.600331 
L 159.931401 225.600331 
L 159.931401 225.432497 
L 160.190875 225.432497 
L 160.287262 224.257655 
L 160.367209 224.257655 
L 160.446818 223.418483 
L 160.82432 223.418483 
L 160.933013 223.082814 
L 160.979404 223.082814 
L 160.994842 222.411476 
L 161.117894 222.411476 
L 161.117894 222.243641 
L 161.406958 222.243641 
L 161.406958 221.907972 
L 161.587261 221.907972 
L 161.587261 221.572303 
L 161.795455 221.572303 
L 161.869254 221.0688 
L 161.913396 221.0688 
L 161.913396 220.733131 
L 162.161592 220.733131 
L 162.190578 220.397462 
L 162.334839 220.397462 
L 162.406556 219.390455 
L 162.506504 219.390455 
L 162.506504 219.054786 
L 162.718906 219.054786 
L 162.718906 218.886952 
L 163.040002 218.886952 
L 163.040002 218.551283 
L 163.314829 218.551283 
L 163.314829 218.047779 
L 163.558786 218.047779 
L 163.666204 217.376441 
L 163.839461 217.376441 
L 163.839461 216.705103 
L 163.95848 216.705103 
L 163.95848 216.537269 
L 164.324018 216.537269 
L 164.427166 215.698097 
L 164.491347 215.698097 
L 164.491347 215.362428 
L 164.644495 215.362428 
L 164.657201 214.858924 
L 164.834193 214.858924 
L 164.834193 214.69109 
L 165.096597 214.69109 
L 165.133786 214.019752 
L 165.269521 214.019752 
L 165.367626 212.84491 
L 165.489541 212.84491 
L 165.550204 212.509241 
L 165.634805 212.509241 
L 165.707018 211.837903 
L 165.886348 211.837903 
L 165.945747 211.166566 
L 166.063985 211.166566 
L 166.087543 210.663062 
L 166.204896 210.663062 
L 166.204896 210.327393 
L 166.448979 210.327393 
L 166.552624 209.656055 
L 166.724107 209.656055 
L 166.746854 209.152552 
L 167.051272 209.152552 
L 167.051272 208.984717 
L 167.394821 208.984717 
L 167.394821 208.816883 
L 167.569712 208.816883 
L 167.569712 208.649048 
L 167.775305 208.649048 
L 167.861203 207.809876 
L 167.893313 207.809876 
L 167.978675 206.299366 
L 168.095418 206.299366 
L 168.116567 205.963697 
L 168.23246 205.963697 
L 168.23246 205.795862 
L 168.534619 205.795862 
L 168.534619 205.628028 
L 168.760648 205.628028 
L 168.79126 205.124524 
L 168.933465 205.124524 
L 168.933465 204.788855 
L 169.264469 204.788855 
L 169.264469 204.453186 
L 169.501592 204.453186 
L 169.599518 203.949683 
L 169.832482 203.949683 
L 169.832482 203.614014 
L 169.995769 203.614014 
L 170.091163 202.942676 
L 170.129185 202.942676 
L 170.176605 202.439172 
L 170.336945 202.439172 
L 170.393211 201.767834 
L 170.625857 201.767834 
L 170.736514 201.264331 
L 170.955893 201.264331 
L 171.010341 200.928662 
L 171.073664 200.928662 
L 171.073664 200.760828 
L 171.199675 200.760828 
L 171.199675 200.592993 
L 171.528696 200.592993 
L 171.581513 200.08949 
L 171.73036 200.08949 
L 171.73036 199.921655 
L 171.852062 199.921655 
L 171.895337 199.418152 
L 172.144386 199.418152 
L 172.212513 198.24331 
L 172.305787 198.24331 
L 172.305787 198.075476 
L 172.440637 198.075476 
L 172.440637 197.907641 
L 172.641118 197.907641 
L 172.682617 196.900634 
L 172.790088 196.900634 
L 172.790088 196.564966 
L 173.246148 196.564966 
L 173.246148 196.229297 
L 173.557354 196.229297 
L 173.581081 195.22229 
L 173.793288 195.22229 
L 173.793288 195.054455 
L 173.964444 195.054455 
L 174.064855 194.215283 
L 174.23357 194.215283 
L 174.23357 193.879614 
L 174.393216 193.879614 
L 174.49137 193.208276 
L 174.767961 193.208276 
L 174.856799 192.704772 
L 174.989276 192.704772 
L 175.077078 192.201269 
L 175.157205 192.201269 
L 175.164472 191.697766 
L 175.294806 191.697766 
L 175.388379 191.362097 
L 175.488631 191.362097 
L 175.595454 190.858593 
L 175.687546 190.858593 
L 175.687546 190.522924 
L 175.891372 190.522924 
L 175.912332 189.851586 
L 176.030666 189.851586 
L 176.10684 189.180248 
L 176.265124 189.180248 
L 176.306197 188.676745 
L 176.428882 188.676745 
L 176.428882 188.341076 
L 176.611421 188.341076 
L 176.611421 188.005407 
L 176.725451 188.005407 
L 176.725451 187.837572 
L 176.92501 187.837572 
L 176.92501 187.501903 
L 177.056883 187.501903 
L 177.161719 186.662731 
L 177.285458 186.662731 
L 177.395487 186.159228 
L 177.401939 186.159228 
L 177.427726 185.320055 
L 177.581709 185.320055 
L 177.677313 184.648717 
L 177.753447 184.648717 
L 177.753447 184.480883 
L 178.117149 184.480883 
L 178.222432 183.977379 
L 178.631727 183.977379 
L 178.722153 183.138207 
L 178.758202 183.138207 
L 178.853996 181.795531 
L 178.97899 181.795531 
L 179.032306 181.459862 
L 179.126718 181.459862 
L 179.150247 181.124193 
L 179.302473 181.124193 
L 179.378127 180.62069 
L 179.447692 180.62069 
L 179.534288 179.949352 
L 179.68345 179.949352 
L 179.68345 179.781517 
L 179.80307 179.781517 
L 179.80307 179.613683 
L 180.090447 179.613683 
L 180.146284 179.278014 
L 180.274084 179.278014 
L 180.274084 179.110179 
L 180.483348 179.110179 
L 180.554408 178.77451 
L 180.608887 178.77451 
L 180.706553 178.438841 
L 180.809098 178.438841 
L 180.809098 178.271007 
L 181.060386 178.271007 
L 181.139882 177.431834 
L 181.287383 177.431834 
L 181.381598 177.096166 
L 181.433737 177.096166 
L 181.501302 176.424828 
L 181.815135 176.424828 
L 181.815135 176.256993 
L 182.043341 176.256993 
L 182.148897 175.75349 
L 182.427518 175.75349 
L 182.516205 174.746483 
L 182.540767 174.746483 
L 182.540767 174.410814 
L 182.672847 174.410814 
L 182.672847 174.075145 
L 183.192084 174.075145 
L 183.192084 173.90731 
L 183.669656 173.90731 
L 183.780285 173.571641 
L 183.894836 173.571641 
L 183.894836 173.235972 
L 184.238849 173.235972 
L 184.310478 172.732469 
L 184.523743 172.732469 
L 184.603099 171.893297 
L 184.778254 171.893297 
L 184.778254 171.557628 
L 184.899899 171.557628 
L 184.899899 171.389793 
L 185.119467 171.389793 
L 185.179295 171.054124 
L 185.238933 171.054124 
L 185.238933 170.88629 
L 185.416721 170.88629 
L 185.4966 170.550621 
L 185.546876 170.550621 
L 185.592845 169.711448 
L 185.713499 169.711448 
L 185.713499 169.543614 
L 186.12371 169.543614 
L 186.176387 168.872276 
L 186.34156 168.872276 
L 186.34156 168.536607 
L 186.537079 168.536607 
L 186.537079 168.368772 
L 186.703065 168.368772 
L 186.754146 167.865269 
L 186.922125 167.865269 
L 186.945445 167.5296 
L 187.207738 167.5296 
L 187.207738 167.361766 
L 188.145429 167.361766 
L 188.203646 167.026097 
L 188.301482 167.026097 
L 188.359219 166.522593 
L 189.014247 166.522593 
L 189.014247 166.186924 
L 189.12873 166.186924 
L 189.12873 165.851255 
L 189.396588 165.851255 
L 189.501994 164.844248 
L 189.546021 164.844248 
L 189.546021 164.508579 
L 190.089485 164.508579 
L 190.089485 164.340745 
L 190.7419 164.340745 
L 190.824254 163.837241 
L 190.981621 163.837241 
L 190.981621 163.669407 
L 191.178047 163.669407 
L 191.178047 163.501572 
L 191.449032 163.501572 
L 191.449032 163.333738 
L 191.619466 163.333738 
L 191.667879 162.830234 
L 191.872257 162.830234 
L 191.91406 161.991062 
L 192.059645 161.991062 
L 192.130543 161.319724 
L 192.329981 161.319724 
L 192.382422 160.816221 
L 192.457912 160.816221 
L 192.495544 160.480552 
L 192.845083 160.480552 
L 192.845083 160.144883 
L 193.096039 160.144883 
L 193.096039 159.977048 
L 193.260577 159.977048 
L 193.260577 159.809214 
L 193.431944 159.809214 
L 193.431944 159.473545 
L 193.626288 159.473545 
L 193.626288 159.137876 
L 194.30293 159.137876 
L 194.30293 158.970041 
L 194.418162 158.970041 
L 194.418162 158.634372 
L 194.672306 158.634372 
L 194.672306 158.466538 
L 194.935767 158.466538 
L 195.019402 157.963034 
L 195.06991 157.963034 
L 195.147929 157.627366 
L 195.223125 157.627366 
L 195.298022 157.291697 
L 195.377585 157.291697 
L 195.377585 157.123862 
L 195.518478 157.123862 
L 195.621622 156.788193 
L 195.631416 156.788193 
L 195.631416 156.620359 
L 195.838339 156.620359 
L 195.838339 156.452524 
L 196.759616 156.452524 
L 196.773443 156.116855 
L 196.931727 156.116855 
L 196.931727 155.781186 
L 197.194861 155.781186 
L 197.194861 155.613352 
L 197.327298 155.613352 
L 197.327298 155.445517 
L 197.699378 155.445517 
L 197.699378 155.277683 
L 197.902229 155.277683 
L 197.902229 155.109848 
L 198.233396 155.109848 
L 198.312102 154.774179 
L 198.390479 154.774179 
L 198.390479 154.606345 
L 198.53997 154.606345 
L 198.53997 154.43851 
L 198.694523 154.43851 
L 198.694523 154.270676 
L 199.028501 154.270676 
L 199.028501 154.102841 
L 199.444802 154.102841 
L 199.444802 153.935007 
L 199.7324 153.935007 
L 199.7324 153.767172 
L 199.963244 153.767172 
L 199.963244 153.599338 
L 200.129719 153.599338 
L 200.129719 153.431503 
L 200.433677 153.431503 
L 200.433677 153.095834 
L 200.603577 153.095834 
L 200.603577 152.928 
L 201.204636 152.928 
L 201.264606 152.424497 
L 201.42 152.424497 
L 201.42 152.256662 
L 201.702187 152.256662 
L 201.764128 151.920993 
L 201.945238 151.920993 
L 201.945238 151.753159 
L 202.173091 151.753159 
L 202.173091 151.585324 
L 202.520813 151.585324 
L 202.558114 151.081821 
L 202.708263 151.081821 
L 202.708263 150.913986 
L 202.943713 150.913986 
L 202.943713 150.746152 
L 203.156574 150.746152 
L 203.156574 150.578317 
L 203.760429 150.578317 
L 203.760429 150.410483 
L 204.113028 150.410483 
L 204.155086 150.074814 
L 204.411618 150.074814 
L 204.411618 149.906979 
L 204.699498 149.906979 
L 204.699498 149.739145 
L 205.579489 149.739145 
L 205.579489 149.57131 
L 205.997461 149.57131 
L 206.011564 148.899972 
L 206.66274 148.899972 
L 206.708983 148.564303 
L 206.783549 148.564303 
L 206.783549 148.396469 
L 207.166597 148.396469 
L 207.166597 148.228634 
L 207.901135 148.228634 
L 207.901135 148.0608 
L 208.362096 148.0608 
L 208.362096 147.892966 
L 208.824175 147.892966 
L 208.867827 147.557297 
L 209.042629 147.557297 
L 209.042629 147.389462 
L 209.295312 147.389462 
L 209.295312 147.221628 
L 209.592488 147.221628 
L 209.592488 147.053793 
L 209.814921 147.053793 
L 209.814921 146.718124 
L 210.358642 146.718124 
L 210.358642 146.55029 
L 210.487985 146.55029 
L 210.489096 146.046786 
L 211.01178 146.046786 
L 211.01178 145.878952 
L 211.419081 145.878952 
L 211.419081 145.711117 
L 211.538205 145.711117 
L 211.538205 145.543283 
L 211.687882 145.543283 
L 211.687882 145.207614 
L 211.83017 145.207614 
L 211.83017 145.039779 
L 212.133969 145.039779 
L 212.133969 144.871945 
L 212.283039 144.871945 
L 212.324406 144.536276 
L 212.537863 144.536276 
L 212.537863 144.368441 
L 212.654091 144.368441 
L 212.729207 144.032772 
L 212.850144 144.032772 
L 212.901039 143.529269 
L 212.998529 143.529269 
L 212.998529 143.361434 
L 213.336773 143.361434 
L 213.371123 142.857931 
L 213.6878 142.857931 
L 213.792496 142.186593 
L 214.09029 142.186593 
L 214.09029 141.850924 
L 214.867682 141.850924 
L 214.952012 141.347421 
L 215.41175 141.347421 
L 215.50645 139.669076 
L 215.72558 139.669076 
L 215.767591 139.333407 
L 215.937197 139.333407 
L 215.937197 139.165572 
L 216.257177 139.165572 
L 216.275975 138.829903 
L 216.614377 138.829903 
L 216.692043 138.494234 
L 217.310597 138.494234 
L 217.390837 137.822897 
L 217.43006 137.822897 
L 217.43006 137.655062 
L 217.769634 137.655062 
L 217.86747 137.151559 
L 218.014766 137.151559 
L 218.097996 136.648055 
L 218.200044 136.648055 
L 218.310342 136.312386 
L 218.314007 136.312386 
L 218.314007 136.144552 
L 218.734427 136.144552 
L 218.745176 135.641048 
L 218.898578 135.641048 
L 218.898578 135.473214 
L 219.146357 135.473214 
L 219.146357 135.305379 
L 219.272169 135.305379 
L 219.272169 135.137545 
L 219.570042 135.137545 
L 219.570042 134.96971 
L 219.702595 134.96971 
L 219.760379 134.298372 
L 219.977014 134.298372 
L 220.039983 133.794869 
L 220.226309 133.794869 
L 220.226309 133.4592 
L 220.486064 133.4592 
L 220.545402 132.787862 
L 220.740349 132.787862 
L 220.789896 132.452193 
L 220.899465 132.452193 
L 220.899465 132.284359 
L 221.355181 132.284359 
L 221.404381 131.94869 
L 221.516004 131.94869 
L 221.516004 131.613021 
L 221.893068 131.613021 
L 221.893068 131.445186 
L 222.178748 131.445186 
L 222.243102 131.109517 
L 222.433087 131.109517 
L 222.488947 130.438179 
L 222.613591 130.438179 
L 222.613591 130.270345 
L 223.081895 130.270345 
L 223.131893 129.766841 
L 223.429119 129.766841 
L 223.429119 129.599007 
L 224.23485 129.599007 
L 224.26212 129.263338 
L 224.532138 129.263338 
L 224.555824 128.927669 
L 225.162451 128.927669 
L 225.258978 128.592 
L 225.698712 128.592 
L 225.698712 128.256331 
L 225.915273 128.256331 
L 225.915273 128.088497 
L 226.07025 128.088497 
L 226.07025 127.920662 
L 226.798548 127.920662 
L 226.798548 127.752828 
L 226.952003 127.752828 
L 227.015344 127.417159 
L 227.405447 127.417159 
L 227.416746 127.08149 
L 227.567052 127.08149 
L 227.567052 126.913655 
L 228.39439 126.913655 
L 228.39439 126.745821 
L 229.075917 126.745821 
L 229.075917 126.577986 
L 230.927275 126.577986 
L 230.927275 126.410152 
L 231.058036 126.410152 
L 231.058036 126.242317 
L 231.363808 126.242317 
L 231.363808 126.074483 
L 231.573262 126.074483 
L 231.650624 125.570979 
L 231.864775 125.570979 
L 231.864775 125.23531 
L 232.015756 125.23531 
L 232.064873 124.899641 
L 232.322834 124.899641 
L 232.322834 124.563972 
L 232.519522 124.563972 
L 232.593439 124.228303 
L 232.783596 124.228303 
L 232.80668 123.892634 
L 233.064773 123.892634 
L 233.064773 123.7248 
L 233.82425 123.7248 
L 233.82425 123.556966 
L 234.135029 123.556966 
L 234.135029 123.389131 
L 234.716478 123.389131 
L 234.825584 122.717793 
L 236.329553 122.717793 
L 236.41908 121.878621 
L 236.707206 121.878621 
L 236.707206 121.542952 
L 237.041976 121.542952 
L 237.074722 121.039448 
L 237.193858 121.039448 
L 237.220171 120.535945 
L 237.374619 120.535945 
L 237.374619 120.200276 
L 237.578685 120.200276 
L 237.68683 119.696772 
L 237.808406 119.696772 
L 237.808406 119.528938 
L 238.442775 119.528938 
L 238.442775 119.361103 
L 238.564573 119.361103 
L 238.564573 119.193269 
L 239.040378 119.193269 
L 239.043544 118.689766 
L 240.555734 118.689766 
L 240.627729 118.018428 
L 241.556908 118.018428 
L 241.611799 117.179255 
L 241.746433 117.179255 
L 241.746433 117.011421 
L 241.901042 117.011421 
L 241.901042 116.843586 
L 242.083626 116.843586 
L 242.083626 116.675752 
L 242.221107 116.675752 
L 242.27061 116.340083 
L 242.652566 116.340083 
L 242.652566 116.004414 
L 242.786765 116.004414 
L 242.802126 115.668745 
L 243.08005 115.668745 
L 243.08005 115.333076 
L 243.753996 115.333076 
L 243.753996 115.165241 
L 244.010824 115.165241 
L 244.010824 114.997407 
L 244.190614 114.997407 
L 244.190614 114.829572 
L 244.69034 114.829572 
L 244.69034 114.661738 
L 245.062182 114.661738 
L 245.062182 114.493903 
L 245.268311 114.493903 
L 245.268311 114.326069 
L 245.540085 114.326069 
L 245.540085 114.158234 
L 245.690513 114.158234 
L 245.690513 113.822566 
L 245.963884 113.822566 
L 245.963884 113.654731 
L 246.354091 113.654731 
L 246.354091 113.486897 
L 246.543993 113.486897 
L 246.543993 113.319062 
L 246.711111 113.319062 
L 246.711111 113.151228 
L 246.907885 113.151228 
L 246.907885 112.983393 
L 247.231178 112.983393 
L 247.231178 112.815559 
L 247.448334 112.815559 
L 247.448334 112.647724 
L 247.77189 112.647724 
L 247.77189 112.47989 
L 248.176794 112.47989 
L 248.176794 112.312055 
L 248.570671 112.312055 
L 248.570671 112.144221 
L 249.295583 112.144221 
L 249.295583 111.976386 
L 249.409054 111.976386 
L 249.409054 111.808552 
L 250.540173 111.808552 
L 250.608512 111.472883 
L 250.842769 111.472883 
L 250.842769 111.305048 
L 251.21149 111.305048 
L 251.21149 111.137214 
L 251.391217 111.137214 
L 251.391217 110.969379 
L 252.14508 110.969379 
L 252.199612 110.465876 
L 252.858211 110.465876 
L 252.858211 110.130207 
L 253.521734 110.130207 
L 253.521734 109.962372 
L 254.170604 109.962372 
L 254.170604 109.626703 
L 254.995261 109.626703 
L 254.995261 109.291034 
L 256.328795 109.291034 
L 256.328795 109.1232 
L 256.605692 109.1232 
L 256.605692 108.955366 
L 256.917503 108.955366 
L 256.917503 108.787531 
L 257.132289 108.787531 
L 257.132289 108.619697 
L 257.279088 108.619697 
L 257.279088 108.284028 
L 257.81437 108.284028 
L 257.81437 108.116193 
L 258.084018 108.116193 
L 258.084018 107.948359 
L 259.12722 107.948359 
L 259.12722 107.780524 
L 259.297507 107.780524 
L 259.344826 107.444855 
L 259.671305 107.444855 
L 259.773195 107.109186 
L 259.7964 107.109186 
L 259.7964 106.773517 
L 259.932545 106.773517 
L 260.013554 106.437848 
L 260.073685 106.437848 
L 260.073685 106.270014 
L 260.47777 106.270014 
L 260.47777 106.102179 
L 260.706807 106.102179 
L 260.706807 105.934345 
L 261.658725 105.934345 
L 261.658725 105.76651 
L 263.030659 105.76651 
L 263.084334 105.430841 
L 263.299862 105.430841 
L 263.331293 104.927338 
L 264.053165 104.927338 
L 264.053165 104.591669 
L 264.713236 104.591669 
L 264.713236 104.256 
L 265.076848 104.256 
L 265.076848 103.920331 
L 266.244752 103.920331 
L 266.344055 103.584662 
L 267.075155 103.584662 
L 267.109367 102.913324 
L 267.225682 102.913324 
L 267.287532 102.241986 
L 267.554972 102.241986 
L 267.554972 102.074152 
L 268.166014 102.074152 
L 268.215921 101.402814 
L 269.165815 101.402814 
L 269.241285 100.89931 
L 269.728739 100.89931 
L 269.728739 100.563641 
L 269.919351 100.563641 
L 269.919351 100.227972 
L 271.08922 100.227972 
L 271.123723 99.724469 
L 272.082772 99.724469 
L 272.082772 99.556634 
L 272.407368 99.556634 
L 272.407368 99.220966 
L 272.90212 99.220966 
L 272.90212 99.053131 
L 273.733698 99.053131 
L 273.733698 98.717462 
L 360.8064 98.717462 
L 360.8064 98.717462 
" style="fill: none; stroke: #ff00ff; stroke-width: 1.5; stroke-linecap: square"/>
   </g>
   <g id="line2d_41">
    <defs>
     <path id="mc283e23f75" d="M 0 8.485281 
L 5.091169 0 
L 0 -8.485281 
L -5.091169 0 
z
" style="stroke: #ff00ff; stroke-width: 1.5; stroke-linejoin: miter"/>
    </defs>
    <g>
     <use xlink:href="#mc283e23f75" x="63.929565" y="281.153545" style="fill-opacity: 0; stroke: #ff00ff; stroke-width: 1.5; stroke-linejoin: miter"/>
     <use xlink:href="#mc283e23f75" x="157.344671" y="228.621352" style="fill-opacity: 0; stroke: #ff00ff; stroke-width: 1.5; stroke-linejoin: miter"/>
     <use xlink:href="#mc283e23f75" x="213.792496" y="142.522262" style="fill-opacity: 0; stroke: #ff00ff; stroke-width: 1.5; stroke-linejoin: miter"/>
     <use xlink:href="#mc283e23f75" x="263.299862" y="105.430841" style="fill-opacity: 0; stroke: #ff00ff; stroke-width: 1.5; stroke-linejoin: miter"/>
     <use xlink:href="#mc283e23f75" x="273.733698" y="98.717462" style="fill-opacity: 0; stroke: #ff00ff; stroke-width: 1.5; stroke-linejoin: miter"/>
     <use xlink:href="#mc283e23f75" x="360.8064" y="98.717462" style="fill-opacity: 0; stroke: #ff00ff; stroke-width: 1.5; stroke-linejoin: miter"/>
    </g>
   </g>
   <g id="line2d_42">
    <path style="fill: none; stroke: #ff00ff; stroke-width: 1.5; stroke-linecap: square"/>
    <g/>
   </g>
   <g id="line2d_43">
    <path d="M 274.176038 98.717462 
" clip-path="url(#pc4f4dd95eb)" style="fill: none; stroke: #ff00ff; stroke-width: 1.5; stroke-linecap: square"/>
    <defs>
     <path id="ma189347545" d="M -12 12 
L 12 -12 
M -12 -12 
L 12 12 
" style="stroke: #ff00ff"/>
    </defs>
    <g clip-path="url(#pc4f4dd95eb)">
     <use xlink:href="#ma189347545" x="274.176038" y="98.717462" style="fill: #ff00ff; stroke: #ff00ff"/>
    </g>
   </g>
   <g id="line2d_44">
    <defs>
     <path id="m7216d7f16a" d="M 0 1.5 
C 0.397805 1.5 0.77937 1.341951 1.06066 1.06066 
C 1.341951 0.77937 1.5 0.397805 1.5 0 
C 1.5 -0.397805 1.341951 -0.77937 1.06066 -1.06066 
C 0.77937 -1.341951 0.397805 -1.5 0 -1.5 
C -0.397805 -1.5 -0.77937 -1.341951 -1.06066 -1.06066 
C -1.341951 -0.77937 -1.5 -0.397805 -1.5 0 
C -1.5 0.397805 -1.341951 0.77937 -1.06066 1.06066 
C -0.77937 1.341951 -0.397805 1.5 0 1.5 
z
" style="stroke: #6495ed"/>
    </defs>
    <g>
     <use xlink:href="#m7216d7f16a" x="113.765312" y="233.152883" style="fill: #6495ed; stroke: #6495ed"/>
     <use xlink:href="#m7216d7f16a" x="113.765312" y="233.152883" style="fill: #6495ed; stroke: #6495ed"/>
    </g>
   </g>
   <g id="line2d_45">
    <path d="M 27.323974 298.944 
L 27.323974 293.908966 
L 40.363149 293.908966 
L 40.363149 289.041766 
L 47.990577 289.041766 
L 47.990577 287.027752 
L 53.402323 287.027752 
L 53.402323 286.859917 
L 57.6 286.859917 
L 57.6 284.678069 
L 61.029752 284.678069 
L 61.029752 283.838897 
L 63.929565 283.838897 
L 63.929565 282.496221 
L 66.441498 282.496221 
L 66.441498 281.657048 
L 68.65718 281.657048 
L 68.65718 281.321379 
L 70.639174 281.321379 
L 70.639174 279.978703 
L 72.432107 279.978703 
L 72.432107 279.4752 
L 74.068926 279.4752 
L 74.068926 279.139531 
L 75.574654 279.139531 
L 75.574654 277.96469 
L 76.96874 277.96469 
L 76.96874 277.629021 
L 78.266603 277.629021 
L 78.266603 277.125517 
L 79.480672 277.125517 
L 79.480672 276.957683 
L 82.713442 276.957683 
L 82.713442 276.622014 
L 83.678349 276.622014 
L 83.678349 275.615007 
L 84.596168 275.615007 
L 84.596168 274.943669 
L 85.471281 274.943669 
L 85.471281 274.775834 
L 86.307488 274.775834 
L 86.307488 274.608 
L 87.1081 274.608 
L 87.1081 274.272331 
L 87.876026 274.272331 
L 87.876026 273.768828 
L 88.613828 273.768828 
L 88.613828 273.433159 
L 89.323782 273.433159 
L 89.323782 273.265324 
L 90.007914 273.265324 
L 90.007914 272.929655 
L 91.305777 272.929655 
L 91.305777 272.258317 
L 91.922605 272.258317 
L 91.922605 271.419145 
L 92.519847 271.419145 
L 92.519847 270.579972 
L 93.098709 270.579972 
L 93.098709 270.412138 
L 93.66029 270.412138 
L 93.66029 270.076469 
L 94.205591 270.076469 
L 94.205591 269.572966 
L 95.250946 269.572966 
L 95.250946 269.405131 
L 95.752617 269.405131 
L 95.752617 268.901628 
L 96.241256 268.901628 
L 96.241256 267.894621 
L 97.635342 267.894621 
L 97.635342 267.558952 
L 98.077987 267.558952 
L 98.077987 267.223283 
L 98.933205 267.223283 
L 98.933205 266.887614 
L 99.346662 266.887614 
L 99.346662 266.551945 
L 100.147275 266.551945 
L 100.147275 266.38411 
L 100.9152 266.38411 
L 100.9152 266.216276 
L 101.653002 266.216276 
L 101.653002 266.048441 
L 102.011329 266.048441 
L 102.011329 265.712772 
L 102.362957 265.712772 
L 102.362957 265.377103 
L 102.708132 265.377103 
L 102.708132 264.370097 
L 103.047088 264.370097 
L 103.047088 262.691752 
L 103.380045 262.691752 
L 103.380045 262.356083 
L 103.707211 262.356083 
L 103.707211 258.999393 
L 104.028784 258.999393 
L 104.028784 257.488883 
L 104.344952 257.488883 
L 104.344952 256.64971 
L 104.655893 256.64971 
L 104.655893 254.971366 
L 104.961779 254.971366 
L 104.961779 253.796524 
L 105.26277 253.796524 
L 105.26277 252.453848 
L 105.559021 252.453848 
L 105.559021 250.943338 
L 105.850679 250.943338 
L 105.850679 249.936331 
L 106.137884 249.936331 
L 106.137884 249.097159 
L 106.42077 249.097159 
L 106.42077 248.593655 
L 106.699465 248.593655 
L 106.699465 247.083145 
L 106.974091 247.083145 
L 106.974091 246.076138 
L 107.5116 246.076138 
L 107.5116 245.236966 
L 107.774703 245.236966 
L 107.774703 244.565628 
L 108.034177 244.565628 
L 108.034177 244.397793 
L 108.29012 244.397793 
L 108.29012 244.229959 
L 108.542628 244.229959 
L 108.542628 243.390786 
L 108.791791 243.390786 
L 108.791791 242.551614 
L 109.037698 242.551614 
L 109.037698 241.880276 
L 109.280431 241.880276 
L 109.280431 241.544607 
L 109.520071 241.544607 
L 109.520071 240.873269 
L 109.990385 240.873269 
L 109.990385 240.369766 
L 110.221204 240.369766 
L 110.221204 239.194924 
L 110.449226 239.194924 
L 110.449226 238.859255 
L 110.674517 238.859255 
L 110.674517 238.020083 
L 110.897141 238.020083 
L 110.897141 237.516579 
L 111.117162 237.516579 
L 111.117162 237.348745 
L 111.54963 237.348745 
L 111.54963 236.509572 
L 111.762192 236.509572 
L 111.762192 236.006069 
L 111.97238 236.006069 
L 111.97238 235.502566 
L 112.180244 235.502566 
L 112.180244 234.999062 
L 113.186449 234.999062 
L 113.186449 234.327724 
L 113.381389 234.327724 
L 113.381389 233.992055 
L 113.57433 233.992055 
L 113.57433 233.656386 
L 113.765312 233.656386 
L 113.765312 233.152883 
L 360.8064 233.152883 
L 360.8064 233.152883 
" style="fill: none; stroke: #6495ed; stroke-width: 1.5; stroke-linecap: square"/>
   </g>
   <g id="line2d_46">
    <defs>
     <path id="mfce4eb5b0c" d="M -0 6 
L 6 -6 
L -6 -6 
z
" style="stroke: #6495ed; stroke-width: 1.5; stroke-linejoin: miter"/>
    </defs>
    <g>
     <use xlink:href="#mfce4eb5b0c" x="66.441498" y="282.496221" style="fill-opacity: 0; stroke: #6495ed; stroke-width: 1.5; stroke-linejoin: miter"/>
     <use xlink:href="#mfce4eb5b0c" x="113.765312" y="233.656386" style="fill-opacity: 0; stroke: #6495ed; stroke-width: 1.5; stroke-linejoin: miter"/>
     <use xlink:href="#mfce4eb5b0c" x="113.765312" y="233.656386" style="fill-opacity: 0; stroke: #6495ed; stroke-width: 1.5; stroke-linejoin: miter"/>
     <use xlink:href="#mfce4eb5b0c" x="113.765312" y="233.152883" style="fill-opacity: 0; stroke: #6495ed; stroke-width: 1.5; stroke-linejoin: miter"/>
     <use xlink:href="#mfce4eb5b0c" x="113.765312" y="233.152883" style="fill-opacity: 0; stroke: #6495ed; stroke-width: 1.5; stroke-linejoin: miter"/>
     <use xlink:href="#mfce4eb5b0c" x="360.8064" y="233.152883" style="fill-opacity: 0; stroke: #6495ed; stroke-width: 1.5; stroke-linejoin: miter"/>
    </g>
   </g>
   <g id="line2d_47">
    <path style="fill: none; stroke: #6495ed; stroke-width: 1.5; stroke-linecap: square"/>
    <g/>
   </g>
   <g id="line2d_48">
    <path d="M 113.954374 233.152883 
" clip-path="url(#pc4f4dd95eb)" style="fill: none; stroke: #6495ed; stroke-width: 1.5; stroke-linecap: square"/>
    <defs>
     <path id="m6fbb74c3ea" d="M -12 12 
L 12 -12 
M -12 -12 
L 12 12 
" style="stroke: #6495ed"/>
    </defs>
    <g clip-path="url(#pc4f4dd95eb)">
     <use xlink:href="#m6fbb74c3ea" x="113.954374" y="233.152883" style="fill: #6495ed; stroke: #6495ed"/>
    </g>
   </g>
   <g id="line2d_49">
    <path d="M 360.8064 268.062455 
L 380.514816 293.10336 
" style="fill: none; stroke: #000080; stroke-width: 1.5; stroke-linecap: square"/>
    <g>
     <use xlink:href="#me0075b2862" x="360.8064" y="268.062455" style="fill-opacity: 0; stroke: #000080; stroke-width: 1.5"/>
     <use xlink:href="#me0075b2862" x="380.514816" y="293.10336" style="fill-opacity: 0; stroke: #000080; stroke-width: 1.5"/>
    </g>
   </g>
   <g id="line2d_50">
    <path d="M 360.8064 233.152883 
L 380.514816 199.65312 
" style="fill: none; stroke: #6495ed; stroke-width: 1.5; stroke-linecap: square"/>
    <g>
     <use xlink:href="#mfce4eb5b0c" x="360.8064" y="233.152883" style="fill-opacity: 0; stroke: #6495ed; stroke-width: 1.5; stroke-linejoin: miter"/>
     <use xlink:href="#mfce4eb5b0c" x="380.514816" y="199.65312" style="fill-opacity: 0; stroke: #6495ed; stroke-width: 1.5; stroke-linejoin: miter"/>
    </g>
   </g>
   <g id="line2d_51">
    <path d="M 360.8064 98.717462 
L 380.514816 106.20288 
" style="fill: none; stroke: #ff00ff; stroke-width: 1.5; stroke-linecap: square"/>
    <g>
     <use xlink:href="#mc283e23f75" x="360.8064" y="98.717462" style="fill-opacity: 0; stroke: #ff00ff; stroke-width: 1.5; stroke-linejoin: miter"/>
     <use xlink:href="#mc283e23f75" x="380.514816" y="106.20288" style="fill-opacity: 0; stroke: #ff00ff; stroke-width: 1.5; stroke-linejoin: miter"/>
    </g>
   </g>
   <g id="line2d_52">
    <path d="M 360.8064 298.944 
L 360.8064 6.912 
" style="fill: none; stroke: #000000; stroke-width: 1.5; stroke-linecap: square"/>
   </g>
   <g id="patch_3">
    <path d="M 57.6 298.944 
L 360.8064 298.944 
" style="fill: none; stroke: #000000; stroke-width: 0.8; stroke-linejoin: miter; stroke-linecap: square"/>
   </g>
   <g id="patch_4">
    <path d="M 57.6 6.912 
L 360.8064 6.912 
" style="fill: none; stroke: #000000; stroke-width: 0.8; stroke-linejoin: miter; stroke-linecap: square"/>
   </g>
   <g id="text_13">
    <!-- cma -->
    <g transform="translate(386.578944 296.966485)scale(0.14 -0.14)">
     <use xlink:href="#DejaVuSans-63"/>
     <use xlink:href="#DejaVuSans-6d" x="54.980469"/>
     <use xlink:href="#DejaVuSans-61" x="152.392578"/>
    </g>
   </g>
   <g id="text_14">
    <!-- parEgo -->
    <g transform="translate(386.578944 203.516245)scale(0.14 -0.14)">
     <defs>
      <path id="DejaVuSans-45" d="M 628 4666 
L 3578 4666 
L 3578 4134 
L 1259 4134 
L 1259 2753 
L 3481 2753 
L 3481 2222 
L 1259 2222 
L 1259 531 
L 3634 531 
L 3634 0 
L 628 0 
L 628 4666 
z
" transform="scale(0.015625)"/>
     </defs>
     <use xlink:href="#DejaVuSans-70"/>
     <use xlink:href="#DejaVuSans-61" x="63.476562"/>
     <use xlink:href="#DejaVuSans-72" x="124.755859"/>
     <use xlink:href="#DejaVuSans-45" x="165.869141"/>
     <use xlink:href="#DejaVuSans-67" x="229.052734"/>
     <use xlink:href="#DejaVuSans-6f" x="292.529297"/>
    </g>
   </g>
   <g id="text_15">
    <!-- external- -->
    <g transform="translate(386.578944 110.066005)scale(0.14 -0.14)">
     <defs>
      <path id="DejaVuSans-78" d="M 3513 3500 
L 2247 1797 
L 3578 0 
L 2900 0 
L 1881 1375 
L 863 0 
L 184 0 
L 1544 1831 
L 300 3500 
L 978 3500 
L 1906 2253 
L 2834 3500 
L 3513 3500 
z
" transform="scale(0.015625)"/>
     </defs>
     <use xlink:href="#DejaVuSans-65"/>
     <use xlink:href="#DejaVuSans-78" x="59.773438"/>
     <use xlink:href="#DejaVuSans-74" x="118.953125"/>
     <use xlink:href="#DejaVuSans-65" x="158.162109"/>
     <use xlink:href="#DejaVuSans-72" x="219.685547"/>
     <use xlink:href="#DejaVuSans-6e" x="259.048828"/>
     <use xlink:href="#DejaVuSans-61" x="322.427734"/>
     <use xlink:href="#DejaVuSans-6c" x="383.707031"/>
     <use xlink:href="#DejaVuSans-2d" x="411.490234"/>
    </g>
   </g>
   <g id="text_16">
    <!-- best 2016 -->
    <g transform="translate(386.578944 16.615765)scale(0.14 -0.14)">
     <defs>
      <path id="DejaVuSans-62" d="M 3116 1747 
Q 3116 2381 2855 2742 
Q 2594 3103 2138 3103 
Q 1681 3103 1420 2742 
Q 1159 2381 1159 1747 
Q 1159 1113 1420 752 
Q 1681 391 2138 391 
Q 2594 391 2855 752 
Q 3116 1113 3116 1747 
z
M 1159 2969 
Q 1341 3281 1617 3432 
Q 1894 3584 2278 3584 
Q 2916 3584 3314 3078 
Q 3713 2572 3713 1747 
Q 3713 922 3314 415 
Q 2916 -91 2278 -91 
Q 1894 -91 1617 61 
Q 1341 213 1159 525 
L 1159 0 
L 581 0 
L 581 4863 
L 1159 4863 
L 1159 2969 
z
" transform="scale(0.015625)"/>
     </defs>
     <use xlink:href="#DejaVuSans-62"/>
     <use xlink:href="#DejaVuSans-65" x="63.476562"/>
     <use xlink:href="#DejaVuSans-73" x="125"/>
     <use xlink:href="#DejaVuSans-74" x="177.099609"/>
     <use xlink:href="#DejaVuSans-20" x="216.308594"/>
     <use xlink:href="#DejaVuSans-32" x="248.095703"/>
     <use xlink:href="#DejaVuSans-30" x="311.71875"/>
     <use xlink:href="#DejaVuSans-31" x="375.341797"/>
     <use xlink:href="#DejaVuSans-36" x="438.964844"/>
    </g>
   </g>
   <g id="text_17">
    <!-- bbob-biobj f1, f2, f11, 5-D -->
    <g transform="translate(60.632064 17.582726)scale(0.102 -0.102)">
     <defs>
      <path id="DejaVuSans-6a" d="M 603 3500 
L 1178 3500 
L 1178 -63 
Q 1178 -731 923 -1031 
Q 669 -1331 103 -1331 
L -116 -1331 
L -116 -844 
L 38 -844 
Q 366 -844 484 -692 
Q 603 -541 603 -63 
L 603 3500 
z
M 603 4863 
L 1178 4863 
L 1178 4134 
L 603 4134 
L 603 4863 
z
" transform="scale(0.015625)"/>
      <path id="DejaVuSans-35" d="M 691 4666 
L 3169 4666 
L 3169 4134 
L 1269 4134 
L 1269 2991 
Q 1406 3038 1543 3061 
Q 1681 3084 1819 3084 
Q 2600 3084 3056 2656 
Q 3513 2228 3513 1497 
Q 3513 744 3044 326 
Q 2575 -91 1722 -91 
Q 1428 -91 1123 -41 
Q 819 9 494 109 
L 494 744 
Q 775 591 1075 516 
Q 1375 441 1709 441 
Q 2250 441 2565 725 
Q 2881 1009 2881 1497 
Q 2881 1984 2565 2268 
Q 2250 2553 1709 2553 
Q 1456 2553 1204 2497 
Q 953 2441 691 2322 
L 691 4666 
z
" transform="scale(0.015625)"/>
      <path id="DejaVuSans-44" d="M 1259 4147 
L 1259 519 
L 2022 519 
Q 2988 519 3436 956 
Q 3884 1394 3884 2338 
Q 3884 3275 3436 3711 
Q 2988 4147 2022 4147 
L 1259 4147 
z
M 628 4666 
L 1925 4666 
Q 3281 4666 3915 4102 
Q 4550 3538 4550 2338 
Q 4550 1131 3912 565 
Q 3275 0 1925 0 
L 628 0 
L 628 4666 
z
" transform="scale(0.015625)"/>
     </defs>
     <use xlink:href="#DejaVuSans-62"/>
     <use xlink:href="#DejaVuSans-62" x="63.476562"/>
     <use xlink:href="#DejaVuSans-6f" x="126.953125"/>
     <use xlink:href="#DejaVuSans-62" x="188.134766"/>
     <use xlink:href="#DejaVuSans-2d" x="251.611328"/>
     <use xlink:href="#DejaVuSans-62" x="287.695312"/>
     <use xlink:href="#DejaVuSans-69" x="351.171875"/>
     <use xlink:href="#DejaVuSans-6f" x="378.955078"/>
     <use xlink:href="#DejaVuSans-62" x="440.136719"/>
     <use xlink:href="#DejaVuSans-6a" x="503.613281"/>
     <use xlink:href="#DejaVuSans-20" x="531.396484"/>
     <use xlink:href="#DejaVuSans-66" x="563.183594"/>
     <use xlink:href="#DejaVuSans-31" x="598.388672"/>
     <use xlink:href="#DejaVuSans-2c" x="662.011719"/>
     <use xlink:href="#DejaVuSans-20" x="693.798828"/>
     <use xlink:href="#DejaVuSans-66" x="725.585938"/>
     <use xlink:href="#DejaVuSans-32" x="760.791016"/>
     <use xlink:href="#DejaVuSans-2c" x="824.414062"/>
     <use xlink:href="#DejaVuSans-20" x="856.201172"/>
     <use xlink:href="#DejaVuSans-66" x="887.988281"/>
     <use xlink:href="#DejaVuSans-31" x="923.193359"/>
     <use xlink:href="#DejaVuSans-31" x="986.816406"/>
     <use xlink:href="#DejaVuSans-2c" x="1050.439453"/>
     <use xlink:href="#DejaVuSans-20" x="1082.226562"/>
     <use xlink:href="#DejaVuSans-35" x="1114.013672"/>
     <use xlink:href="#DejaVuSans-2d" x="1177.636719"/>
     <use xlink:href="#DejaVuSans-44" x="1213.720703"/>
    </g>
    <!-- 58 targets: 1..-1.0e-4 -->
    <g transform="translate(60.632064 29.004495)scale(0.102 -0.102)">
     <defs>
      <path id="DejaVuSans-3a" d="M 750 794 
L 1409 794 
L 1409 0 
L 750 0 
L 750 794 
z
M 750 3309 
L 1409 3309 
L 1409 2516 
L 750 2516 
L 750 3309 
z
" transform="scale(0.015625)"/>
     </defs>
     <use xlink:href="#DejaVuSans-35"/>
     <use xlink:href="#DejaVuSans-38" x="63.623047"/>
     <use xlink:href="#DejaVuSans-20" x="127.246094"/>
     <use xlink:href="#DejaVuSans-74" x="159.033203"/>
     <use xlink:href="#DejaVuSans-61" x="198.242188"/>
     <use xlink:href="#DejaVuSans-72" x="259.521484"/>
     <use xlink:href="#DejaVuSans-67" x="298.884766"/>
     <use xlink:href="#DejaVuSans-65" x="362.361328"/>
     <use xlink:href="#DejaVuSans-74" x="423.884766"/>
     <use xlink:href="#DejaVuSans-73" x="463.09375"/>
     <use xlink:href="#DejaVuSans-3a" x="515.193359"/>
     <use xlink:href="#DejaVuSans-20" x="548.884766"/>
     <use xlink:href="#DejaVuSans-31" x="580.671875"/>
     <use xlink:href="#DejaVuSans-2e" x="644.294922"/>
     <use xlink:href="#DejaVuSans-2e" x="676.082031"/>
     <use xlink:href="#DejaVuSans-2d" x="707.869141"/>
     <use xlink:href="#DejaVuSans-31" x="743.953125"/>
     <use xlink:href="#DejaVuSans-2e" x="807.576172"/>
     <use xlink:href="#DejaVuSans-30" x="839.363281"/>
     <use xlink:href="#DejaVuSans-65" x="902.986328"/>
     <use xlink:href="#DejaVuSans-2d" x="964.509766"/>
     <use xlink:href="#DejaVuSans-34" x="1000.59375"/>
    </g>
    <!-- 10 instances -->
    <g transform="translate(60.632064 40.426264)scale(0.102 -0.102)">
     <use xlink:href="#DejaVuSans-31"/>
     <use xlink:href="#DejaVuSans-30" x="63.623047"/>
     <use xlink:href="#DejaVuSans-20" x="127.246094"/>
     <use xlink:href="#DejaVuSans-69" x="159.033203"/>
     <use xlink:href="#DejaVuSans-6e" x="186.816406"/>
     <use xlink:href="#DejaVuSans-73" x="250.195312"/>
     <use xlink:href="#DejaVuSans-74" x="302.294922"/>
     <use xlink:href="#DejaVuSans-61" x="341.503906"/>
     <use xlink:href="#DejaVuSans-6e" x="402.783203"/>
     <use xlink:href="#DejaVuSans-63" x="466.162109"/>
     <use xlink:href="#DejaVuSans-65" x="521.142578"/>
     <use xlink:href="#DejaVuSans-73" x="582.666016"/>
    </g>
   </g>
   <g id="text_18">
    <!-- v2.6, hv-hash=ff0e71e8cd978373 -->
    <g style="fill: #808080" transform="translate(123.707887 293.943992)scale(0.1 -0.1)">
     <defs>
      <path id="DejaVuSans-68" d="M 3513 2113 
L 3513 0 
L 2938 0 
L 2938 2094 
Q 2938 2591 2744 2837 
Q 2550 3084 2163 3084 
Q 1697 3084 1428 2787 
Q 1159 2491 1159 1978 
L 1159 0 
L 581 0 
L 581 4863 
L 1159 4863 
L 1159 2956 
Q 1366 3272 1645 3428 
Q 1925 3584 2291 3584 
Q 2894 3584 3203 3211 
Q 3513 2838 3513 2113 
z
" transform="scale(0.015625)"/>
      <path id="DejaVuSans-3d" d="M 678 2906 
L 4684 2906 
L 4684 2381 
L 678 2381 
L 678 2906 
z
M 678 1631 
L 4684 1631 
L 4684 1100 
L 678 1100 
L 678 1631 
z
" transform="scale(0.015625)"/>
      <path id="DejaVuSans-37" d="M 525 4666 
L 3525 4666 
L 3525 4397 
L 1831 0 
L 1172 0 
L 2766 4134 
L 525 4134 
L 525 4666 
z
" transform="scale(0.015625)"/>
      <path id="DejaVuSans-39" d="M 703 97 
L 703 672 
Q 941 559 1184 500 
Q 1428 441 1663 441 
Q 2288 441 2617 861 
Q 2947 1281 2994 2138 
Q 2813 1869 2534 1725 
Q 2256 1581 1919 1581 
Q 1219 1581 811 2004 
Q 403 2428 403 3163 
Q 403 3881 828 4315 
Q 1253 4750 1959 4750 
Q 2769 4750 3195 4129 
Q 3622 3509 3622 2328 
Q 3622 1225 3098 567 
Q 2575 -91 1691 -91 
Q 1453 -91 1209 -44 
Q 966 3 703 97 
z
M 1959 2075 
Q 2384 2075 2632 2365 
Q 2881 2656 2881 3163 
Q 2881 3666 2632 3958 
Q 2384 4250 1959 4250 
Q 1534 4250 1286 3958 
Q 1038 3666 1038 3163 
Q 1038 2656 1286 2365 
Q 1534 2075 1959 2075 
z
" transform="scale(0.015625)"/>
      <path id="DejaVuSans-33" d="M 2597 2516 
Q 3050 2419 3304 2112 
Q 3559 1806 3559 1356 
Q 3559 666 3084 287 
Q 2609 -91 1734 -91 
Q 1441 -91 1130 -33 
Q 819 25 488 141 
L 488 750 
Q 750 597 1062 519 
Q 1375 441 1716 441 
Q 2309 441 2620 675 
Q 2931 909 2931 1356 
Q 2931 1769 2642 2001 
Q 2353 2234 1838 2234 
L 1294 2234 
L 1294 2753 
L 1863 2753 
Q 2328 2753 2575 2939 
Q 2822 3125 2822 3475 
Q 2822 3834 2567 4026 
Q 2313 4219 1838 4219 
Q 1578 4219 1281 4162 
Q 984 4106 628 3988 
L 628 4550 
Q 988 4650 1302 4700 
Q 1616 4750 1894 4750 
Q 2613 4750 3031 4423 
Q 3450 4097 3450 3541 
Q 3450 3153 3228 2886 
Q 3006 2619 2597 2516 
z
" transform="scale(0.015625)"/>
     </defs>
     <use xlink:href="#DejaVuSans-76"/>
     <use xlink:href="#DejaVuSans-32" x="59.179688"/>
     <use xlink:href="#DejaVuSans-2e" x="122.802734"/>
     <use xlink:href="#DejaVuSans-36" x="154.589844"/>
     <use xlink:href="#DejaVuSans-2c" x="218.212891"/>
     <use xlink:href="#DejaVuSans-20" x="250"/>
     <use xlink:href="#DejaVuSans-68" x="281.787109"/>
     <use xlink:href="#DejaVuSans-76" x="345.166016"/>
     <use xlink:href="#DejaVuSans-2d" x="401.720703"/>
     <use xlink:href="#DejaVuSans-68" x="437.804688"/>
     <use xlink:href="#DejaVuSans-61" x="501.183594"/>
     <use xlink:href="#DejaVuSans-73" x="562.462891"/>
     <use xlink:href="#DejaVuSans-68" x="614.5625"/>
     <use xlink:href="#DejaVuSans-3d" x="677.941406"/>
     <use xlink:href="#DejaVuSans-66" x="761.730469"/>
     <use xlink:href="#DejaVuSans-66" x="796.935547"/>
     <use xlink:href="#DejaVuSans-30" x="832.140625"/>
     <use xlink:href="#DejaVuSans-65" x="895.763672"/>
     <use xlink:href="#DejaVuSans-37" x="957.287109"/>
     <use xlink:href="#DejaVuSans-31" x="1020.910156"/>
     <use xlink:href="#DejaVuSans-65" x="1084.533203"/>
     <use xlink:href="#DejaVuSans-38" x="1146.056641"/>
     <use xlink:href="#DejaVuSans-63" x="1209.679688"/>
     <use xlink:href="#DejaVuSans-64" x="1264.660156"/>
     <use xlink:href="#DejaVuSans-39" x="1328.136719"/>
     <use xlink:href="#DejaVuSans-37" x="1391.759766"/>
     <use xlink:href="#DejaVuSans-38" x="1455.382812"/>
     <use xlink:href="#DejaVuSans-33" x="1519.005859"/>
     <use xlink:href="#DejaVuSans-37" x="1582.628906"/>
     <use xlink:href="#DejaVuSans-33" x="1646.251953"/>
    </g>
   </g>
  </g>
 </g>
 <defs>
  <clipPath id="pc4f4dd95eb">
   <rect x="57.6" y="6.912" width="303.2064" height="292.032"/>
  </clipPath>
 </defs>
</svg>
