<?xml version="1.0" encoding="utf-8" standalone="no"?>
<!DOCTYPE svg PUBLIC "-//W3C//DTD SVG 1.1//EN"
  "http://www.w3.org/Graphics/SVG/1.1/DTD/svg11.dtd">
<svg xmlns:xlink="http://www.w3.org/1999/xlink" width="460.8pt" height="345.6pt" viewBox="0 0 460.8 345.6" xmlns="http://www.w3.org/2000/svg" version="1.1">
 <metadata>
  <rdf:RDF xmlns:dc="http://purl.org/dc/elements/1.1/" xmlns:cc="http://creativecommons.org/ns#" xmlns:rdf="http://www.w3.org/1999/02/22-rdf-syntax-ns#">
   <cc:Work>
    <dc:type rdf:resource="http://purl.org/dc/dcmitype/StillImage"/>
    <dc:date>2022-06-19T21:02:40.299849</dc:date>
    <dc:format>image/svg+xml</dc:format>
    <dc:creator>
     <cc:Agent>
      <dc:title>Matplotlib v3.5.1, https://matplotlib.org/</dc:title>
     </cc:Agent>
    </dc:creator>
   </cc:Work>
  </rdf:RDF>
 </metadata>
 <defs>
  <style type="text/css">*{stroke-linejoin: round; stroke-linecap: butt}</style>
 </defs>
 <g id="figure_1">
  <g id="patch_1">
   <path d="M 0 345.6 
L 460.8 345.6 
L 460.8 0 
L 0 0 
z
" style="fill: #ffffff"/>
  </g>
  <g id="axes_1">
   <g id="patch_2">
    <path d="M 57.6 298.944 
L 360.8064 298.944 
L 360.8064 6.912 
L 57.6 6.912 
z
" style="fill: #ffffff"/>
   </g>
   <g id="line2d_1">
    <path d="M 27.323974 298.944 
L 27.323974 296.426483 
L 47.990577 296.426483 
L 47.990577 293.908966 
L 53.402323 293.908966 
L 53.402323 288.873931 
L 61.029752 288.873931 
L 61.029752 286.356414 
L 68.65718 286.356414 
L 68.65718 281.321379 
L 70.639174 281.321379 
L 70.639174 278.803862 
L 76.96874 278.803862 
L 76.96874 277.545103 
L 79.480672 277.545103 
L 79.480672 275.027586 
L 86.307488 275.027586 
L 86.307488 269.992552 
L 87.1081 269.992552 
L 87.1081 267.475034 
L 91.922605 267.475034 
L 91.922605 263.698759 
L 93.098709 263.698759 
L 93.098709 261.181241 
L 94.205591 261.181241 
L 94.205591 259.922483 
L 96.717523 259.922483 
L 96.717523 258.663724 
L 98.077987 258.663724 
L 98.077987 257.404966 
L 104.028784 257.404966 
L 104.028784 254.887448 
L 104.655893 254.887448 
L 104.655893 251.111172 
L 106.699465 251.111172 
L 106.699465 248.593655 
L 106.974091 248.593655 
L 106.974091 244.817379 
L 112.385837 244.817379 
L 112.385837 243.558621 
L 113.381389 243.558621 
L 113.381389 241.041103 
L 116.419219 241.041103 
L 116.419219 238.523586 
L 120.813877 238.523586 
L 120.813877 232.229793 
L 127.18073 232.229793 
L 127.18073 230.971034 
L 128.000734 230.971034 
L 128.000734 229.712276 
L 129.458394 229.712276 
L 129.458394 227.194759 
L 131.115828 227.194759 
L 131.115828 223.418483 
L 136.92008 223.418483 
L 136.92008 220.900966 
L 138.36167 220.900966 
L 138.412998 215.865931 
L 140.905699 215.865931 
L 140.905699 213.348414 
L 146.057504 213.348414 
L 146.057504 210.830897 
L 146.362288 210.830897 
L 146.362288 207.054621 
L 146.529503 207.054621 
L 146.529503 203.278345 
L 148.216198 203.278345 
L 148.216198 200.760828 
L 153.650761 200.760828 
L 153.650761 198.24331 
L 153.944874 198.24331 
L 153.944874 196.984552 
L 154.388563 196.984552 
L 154.388563 194.467034 
L 155.495444 194.467034 
L 155.495444 191.949517 
L 160.190875 191.949517 
L 160.190875 189.432 
L 160.415015 189.432 
L 160.415015 185.655724 
L 162.520739 185.655724 
L 162.520739 184.396966 
L 163.773012 184.396966 
L 163.773012 181.879448 
L 166.984048 181.879448 
L 166.984048 180.62069 
L 167.4058 180.62069 
L 167.4058 178.103172 
L 169.442591 178.103172 
L 169.442591 174.326897 
L 172.88875 174.326897 
L 172.88875 170.550621 
L 178.46176 170.550621 
L 178.46176 168.033103 
L 178.698081 168.033103 
L 178.698081 166.774345 
L 182.383017 166.774345 
L 182.383017 165.515586 
L 184.589896 165.515586 
L 184.589896 164.256828 
L 184.730249 164.256828 
L 184.730249 161.73931 
L 185.183561 161.73931 
L 185.183561 157.963034 
L 186.469476 157.963034 
L 186.469476 154.186759 
L 189.297444 154.186759 
L 189.297444 150.410483 
L 196.190909 150.410483 
L 196.190909 149.151724 
L 196.459852 149.151724 
L 196.459852 146.634207 
L 196.945428 146.634207 
L 196.945428 145.375448 
L 197.358587 145.375448 
L 197.358587 144.11669 
L 204.078689 144.11669 
L 204.078689 142.857931 
L 204.944285 142.857931 
L 204.944285 139.081655 
L 206.451849 139.081655 
L 206.451849 135.305379 
L 207.053566 135.305379 
L 207.053566 131.529103 
L 212.42793 131.529103 
L 212.42793 127.752828 
L 213.692486 127.752828 
L 213.692486 125.23531 
L 215.520912 125.23531 
L 215.520912 123.976552 
L 217.901218 123.976552 
L 217.901218 121.459034 
L 220.601956 121.459034 
L 220.601956 120.200276 
L 223.771695 120.200276 
L 223.771695 118.941517 
L 225.492646 118.941517 
L 225.492646 117.682759 
L 227.668079 117.682759 
L 227.668079 113.906483 
L 229.9974 113.906483 
L 229.9974 110.130207 
L 232.580396 110.130207 
L 232.580396 106.353931 
L 235.555696 106.353931 
L 235.555696 103.836414 
L 236.10371 103.836414 
L 236.10371 100.060138 
L 237.660114 100.060138 
L 237.660114 97.542621 
L 238.215881 97.542621 
L 238.215881 96.283862 
L 242.241253 96.283862 
L 242.241253 93.766345 
L 244.165591 93.766345 
L 244.165591 91.248828 
L 245.603425 91.248828 
L 245.672888 86.213793 
L 246.557065 86.213793 
L 246.557065 84.955034 
L 250.937732 84.955034 
L 250.937732 82.437517 
L 251.707381 82.437517 
L 251.707381 79.92 
L 253.304367 79.92 
L 253.304367 78.661241 
L 253.852901 78.661241 
L 253.852901 74.884966 
L 257.877649 74.884966 
L 257.877649 71.10869 
L 258.837387 71.10869 
L 258.939063 66.073655 
L 259.030347 66.073655 
L 259.030347 63.556138 
L 261.168928 63.556138 
L 261.168928 61.038621 
L 264.350132 61.038621 
L 264.350132 59.779862 
L 265.223533 59.779862 
L 265.223533 56.003586 
L 268.432673 56.003586 
L 268.432673 53.486069 
L 273.541593 53.486069 
L 273.541593 49.709793 
L 282.855778 49.709793 
L 282.855778 48.451034 
L 285.971304 48.451034 
L 285.971304 45.933517 
L 288.466161 45.933517 
L 288.466161 42.157241 
L 360.8064 42.157241 
L 360.8064 42.157241 
" style="fill: none; stroke: #f5deb3; stroke-width: 4; stroke-linecap: square"/>
   </g>
   <g id="line2d_2">
    <defs>
     <path id="m5986c2e502" d="M 0 7.778175 
L 7.778175 0 
L 0 -7.778175 
L -7.778175 0 
z
" style="stroke: #f5deb3; stroke-width: 1.5; stroke-linejoin: miter"/>
    </defs>
    <g>
     <use xlink:href="#m5986c2e502" x="146.362288" y="210.830897" style="fill: #f5deb3; stroke: #f5deb3; stroke-width: 1.5; stroke-linejoin: miter"/>
     <use xlink:href="#m5986c2e502" x="189.297444" y="150.410483" style="fill: #f5deb3; stroke: #f5deb3; stroke-width: 1.5; stroke-linejoin: miter"/>
     <use xlink:href="#m5986c2e502" x="259.030347" y="63.556138" style="fill: #f5deb3; stroke: #f5deb3; stroke-width: 1.5; stroke-linejoin: miter"/>
     <use xlink:href="#m5986c2e502" x="288.466161" y="42.157241" style="fill: #f5deb3; stroke: #f5deb3; stroke-width: 1.5; stroke-linejoin: miter"/>
     <use xlink:href="#m5986c2e502" x="288.466161" y="42.157241" style="fill: #f5deb3; stroke: #f5deb3; stroke-width: 1.5; stroke-linejoin: miter"/>
     <use xlink:href="#m5986c2e502" x="360.8064" y="42.157241" style="fill: #f5deb3; stroke: #f5deb3; stroke-width: 1.5; stroke-linejoin: miter"/>
    </g>
   </g>
   <g id="line2d_3">
    <path style="fill: none; stroke: #f5deb3; stroke-width: 4; stroke-linecap: square"/>
    <g/>
   </g>
   <g id="line2d_4">
    <path d="M 360.8064 42.157241 
L 380.514816 12.75264 
" style="fill: none; stroke: #f5deb3; stroke-width: 4; stroke-linecap: square"/>
    <g>
     <use xlink:href="#m5986c2e502" x="360.8064" y="42.157241" style="fill: #f5deb3; stroke: #f5deb3; stroke-width: 1.5; stroke-linejoin: miter"/>
     <use xlink:href="#m5986c2e502" x="380.514816" y="12.75264" style="fill: #f5deb3; stroke: #f5deb3; stroke-width: 1.5; stroke-linejoin: miter"/>
    </g>
   </g>
   <g id="matplotlib.axis_1">
    <g id="xtick_1">
     <g id="line2d_5">
      <path d="M 57.6 298.944 
L 57.6 6.912 
" clip-path="url(#p84ed5c8d37)" style="fill: none; stroke: #b0b0b0; stroke-width: 0.8; stroke-linecap: square"/>
     </g>
     <g id="line2d_6">
      <defs>
       <path id="m1599b1c7e6" d="M 0 0 
L 0 3.5 
" style="stroke: #000000; stroke-width: 0.8"/>
      </defs>
      <g>
       <use xlink:href="#m1599b1c7e6" x="57.6" y="298.944" style="stroke: #000000; stroke-width: 0.8"/>
      </g>
     </g>
     <g id="text_1">
      <!-- 0 -->
      <g transform="translate(52.191875 318.861344)scale(0.17 -0.17)">
       <defs>
        <path id="DejaVuSans-30" d="M 2034 4250 
Q 1547 4250 1301 3770 
Q 1056 3291 1056 2328 
Q 1056 1369 1301 889 
Q 1547 409 2034 409 
Q 2525 409 2770 889 
Q 3016 1369 3016 2328 
Q 3016 3291 2770 3770 
Q 2525 4250 2034 4250 
z
M 2034 4750 
Q 2819 4750 3233 4129 
Q 3647 3509 3647 2328 
Q 3647 1150 3233 529 
Q 2819 -91 2034 -91 
Q 1250 -91 836 529 
Q 422 1150 422 2328 
Q 422 3509 836 4129 
Q 1250 4750 2034 4750 
z
" transform="scale(0.015625)"/>
       </defs>
       <use xlink:href="#DejaVuSans-30"/>
      </g>
     </g>
    </g>
    <g id="xtick_2">
     <g id="line2d_7">
      <path d="M 144.2304 298.944 
L 144.2304 6.912 
" clip-path="url(#p84ed5c8d37)" style="fill: none; stroke: #b0b0b0; stroke-width: 0.8; stroke-linecap: square"/>
     </g>
     <g id="line2d_8">
      <g>
       <use xlink:href="#m1599b1c7e6" x="144.2304" y="298.944" style="stroke: #000000; stroke-width: 0.8"/>
      </g>
     </g>
     <g id="text_2">
      <!-- 2 -->
      <g transform="translate(138.822275 318.861344)scale(0.17 -0.17)">
       <defs>
        <path id="DejaVuSans-32" d="M 1228 531 
L 3431 531 
L 3431 0 
L 469 0 
L 469 531 
Q 828 903 1448 1529 
Q 2069 2156 2228 2338 
Q 2531 2678 2651 2914 
Q 2772 3150 2772 3378 
Q 2772 3750 2511 3984 
Q 2250 4219 1831 4219 
Q 1534 4219 1204 4116 
Q 875 4013 500 3803 
L 500 4441 
Q 881 4594 1212 4672 
Q 1544 4750 1819 4750 
Q 2544 4750 2975 4387 
Q 3406 4025 3406 3419 
Q 3406 3131 3298 2873 
Q 3191 2616 2906 2266 
Q 2828 2175 2409 1742 
Q 1991 1309 1228 531 
z
" transform="scale(0.015625)"/>
       </defs>
       <use xlink:href="#DejaVuSans-32"/>
      </g>
     </g>
    </g>
    <g id="xtick_3">
     <g id="line2d_9">
      <path d="M 230.8608 298.944 
L 230.8608 6.912 
" clip-path="url(#p84ed5c8d37)" style="fill: none; stroke: #b0b0b0; stroke-width: 0.8; stroke-linecap: square"/>
     </g>
     <g id="line2d_10">
      <g>
       <use xlink:href="#m1599b1c7e6" x="230.8608" y="298.944" style="stroke: #000000; stroke-width: 0.8"/>
      </g>
     </g>
     <g id="text_3">
      <!-- 4 -->
      <g transform="translate(225.452675 318.861344)scale(0.17 -0.17)">
       <defs>
        <path id="DejaVuSans-34" d="M 2419 4116 
L 825 1625 
L 2419 1625 
L 2419 4116 
z
M 2253 4666 
L 3047 4666 
L 3047 1625 
L 3713 1625 
L 3713 1100 
L 3047 1100 
L 3047 0 
L 2419 0 
L 2419 1100 
L 313 1100 
L 313 1709 
L 2253 4666 
z
" transform="scale(0.015625)"/>
       </defs>
       <use xlink:href="#DejaVuSans-34"/>
      </g>
     </g>
    </g>
    <g id="xtick_4">
     <g id="line2d_11">
      <path d="M 317.4912 298.944 
L 317.4912 6.912 
" clip-path="url(#p84ed5c8d37)" style="fill: none; stroke: #b0b0b0; stroke-width: 0.8; stroke-linecap: square"/>
     </g>
     <g id="line2d_12">
      <g>
       <use xlink:href="#m1599b1c7e6" x="317.4912" y="298.944" style="stroke: #000000; stroke-width: 0.8"/>
      </g>
     </g>
     <g id="text_4">
      <!-- 6 -->
      <g transform="translate(312.083075 318.861344)scale(0.17 -0.17)">
       <defs>
        <path id="DejaVuSans-36" d="M 2113 2584 
Q 1688 2584 1439 2293 
Q 1191 2003 1191 1497 
Q 1191 994 1439 701 
Q 1688 409 2113 409 
Q 2538 409 2786 701 
Q 3034 994 3034 1497 
Q 3034 2003 2786 2293 
Q 2538 2584 2113 2584 
z
M 3366 4563 
L 3366 3988 
Q 3128 4100 2886 4159 
Q 2644 4219 2406 4219 
Q 1781 4219 1451 3797 
Q 1122 3375 1075 2522 
Q 1259 2794 1537 2939 
Q 1816 3084 2150 3084 
Q 2853 3084 3261 2657 
Q 3669 2231 3669 1497 
Q 3669 778 3244 343 
Q 2819 -91 2113 -91 
Q 1303 -91 875 529 
Q 447 1150 447 2328 
Q 447 3434 972 4092 
Q 1497 4750 2381 4750 
Q 2619 4750 2861 4703 
Q 3103 4656 3366 4563 
z
" transform="scale(0.015625)"/>
       </defs>
       <use xlink:href="#DejaVuSans-36"/>
      </g>
     </g>
    </g>
    <g id="xtick_5">
     <g id="line2d_13">
      <path d="M 100.9152 298.944 
L 100.9152 6.912 
" clip-path="url(#p84ed5c8d37)" style="fill: none; stroke: #b0b0b0; stroke-width: 0.8; stroke-linecap: square"/>
     </g>
     <g id="line2d_14">
      <defs>
       <path id="md80266ab9a" d="M 0 0 
L 0 2 
" style="stroke: #000000; stroke-width: 0.6"/>
      </defs>
      <g>
       <use xlink:href="#md80266ab9a" x="100.9152" y="298.944" style="stroke: #000000; stroke-width: 0.6"/>
      </g>
     </g>
    </g>
    <g id="xtick_6">
     <g id="line2d_15">
      <path d="M 187.5456 298.944 
L 187.5456 6.912 
" clip-path="url(#p84ed5c8d37)" style="fill: none; stroke: #b0b0b0; stroke-width: 0.8; stroke-linecap: square"/>
     </g>
     <g id="line2d_16">
      <g>
       <use xlink:href="#md80266ab9a" x="187.5456" y="298.944" style="stroke: #000000; stroke-width: 0.6"/>
      </g>
     </g>
    </g>
    <g id="xtick_7">
     <g id="line2d_17">
      <path d="M 274.176 298.944 
L 274.176 6.912 
" clip-path="url(#p84ed5c8d37)" style="fill: none; stroke: #b0b0b0; stroke-width: 0.8; stroke-linecap: square"/>
     </g>
     <g id="line2d_18">
      <g>
       <use xlink:href="#md80266ab9a" x="274.176" y="298.944" style="stroke: #000000; stroke-width: 0.6"/>
      </g>
     </g>
    </g>
    <g id="xtick_8">
     <g id="line2d_19">
      <path d="M 360.8064 298.944 
L 360.8064 6.912 
" clip-path="url(#p84ed5c8d37)" style="fill: none; stroke: #b0b0b0; stroke-width: 0.8; stroke-linecap: square"/>
     </g>
     <g id="line2d_20">
      <g>
       <use xlink:href="#md80266ab9a" x="360.8064" y="298.944" style="stroke: #000000; stroke-width: 0.6"/>
      </g>
     </g>
    </g>
    <g id="text_5">
     <!-- log10(# f-evals / dimension) -->
     <g transform="translate(88.823278 339.314156)scale(0.17 -0.17)">
      <defs>
       <path id="DejaVuSans-6c" d="M 603 4863 
L 1178 4863 
L 1178 0 
L 603 0 
L 603 4863 
z
" transform="scale(0.015625)"/>
       <path id="DejaVuSans-6f" d="M 1959 3097 
Q 1497 3097 1228 2736 
Q 959 2375 959 1747 
Q 959 1119 1226 758 
Q 1494 397 1959 397 
Q 2419 397 2687 759 
Q 2956 1122 2956 1747 
Q 2956 2369 2687 2733 
Q 2419 3097 1959 3097 
z
M 1959 3584 
Q 2709 3584 3137 3096 
Q 3566 2609 3566 1747 
Q 3566 888 3137 398 
Q 2709 -91 1959 -91 
Q 1206 -91 779 398 
Q 353 888 353 1747 
Q 353 2609 779 3096 
Q 1206 3584 1959 3584 
z
" transform="scale(0.015625)"/>
       <path id="DejaVuSans-67" d="M 2906 1791 
Q 2906 2416 2648 2759 
Q 2391 3103 1925 3103 
Q 1463 3103 1205 2759 
Q 947 2416 947 1791 
Q 947 1169 1205 825 
Q 1463 481 1925 481 
Q 2391 481 2648 825 
Q 2906 1169 2906 1791 
z
M 3481 434 
Q 3481 -459 3084 -895 
Q 2688 -1331 1869 -1331 
Q 1566 -1331 1297 -1286 
Q 1028 -1241 775 -1147 
L 775 -588 
Q 1028 -725 1275 -790 
Q 1522 -856 1778 -856 
Q 2344 -856 2625 -561 
Q 2906 -266 2906 331 
L 2906 616 
Q 2728 306 2450 153 
Q 2172 0 1784 0 
Q 1141 0 747 490 
Q 353 981 353 1791 
Q 353 2603 747 3093 
Q 1141 3584 1784 3584 
Q 2172 3584 2450 3431 
Q 2728 3278 2906 2969 
L 2906 3500 
L 3481 3500 
L 3481 434 
z
" transform="scale(0.015625)"/>
       <path id="DejaVuSans-31" d="M 794 531 
L 1825 531 
L 1825 4091 
L 703 3866 
L 703 4441 
L 1819 4666 
L 2450 4666 
L 2450 531 
L 3481 531 
L 3481 0 
L 794 0 
L 794 531 
z
" transform="scale(0.015625)"/>
       <path id="DejaVuSans-28" d="M 1984 4856 
Q 1566 4138 1362 3434 
Q 1159 2731 1159 2009 
Q 1159 1288 1364 580 
Q 1569 -128 1984 -844 
L 1484 -844 
Q 1016 -109 783 600 
Q 550 1309 550 2009 
Q 550 2706 781 3412 
Q 1013 4119 1484 4856 
L 1984 4856 
z
" transform="scale(0.015625)"/>
       <path id="DejaVuSans-23" d="M 3272 2816 
L 2363 2816 
L 2100 1772 
L 3016 1772 
L 3272 2816 
z
M 2803 4594 
L 2478 3297 
L 3391 3297 
L 3719 4594 
L 4219 4594 
L 3897 3297 
L 4872 3297 
L 4872 2816 
L 3775 2816 
L 3519 1772 
L 4513 1772 
L 4513 1294 
L 3397 1294 
L 3072 0 
L 2572 0 
L 2894 1294 
L 1978 1294 
L 1656 0 
L 1153 0 
L 1478 1294 
L 494 1294 
L 494 1772 
L 1594 1772 
L 1856 2816 
L 850 2816 
L 850 3297 
L 1978 3297 
L 2297 4594 
L 2803 4594 
z
" transform="scale(0.015625)"/>
       <path id="DejaVuSans-20" transform="scale(0.015625)"/>
       <path id="DejaVuSans-66" d="M 2375 4863 
L 2375 4384 
L 1825 4384 
Q 1516 4384 1395 4259 
Q 1275 4134 1275 3809 
L 1275 3500 
L 2222 3500 
L 2222 3053 
L 1275 3053 
L 1275 0 
L 697 0 
L 697 3053 
L 147 3053 
L 147 3500 
L 697 3500 
L 697 3744 
Q 697 4328 969 4595 
Q 1241 4863 1831 4863 
L 2375 4863 
z
" transform="scale(0.015625)"/>
       <path id="DejaVuSans-2d" d="M 313 2009 
L 1997 2009 
L 1997 1497 
L 313 1497 
L 313 2009 
z
" transform="scale(0.015625)"/>
       <path id="DejaVuSans-65" d="M 3597 1894 
L 3597 1613 
L 953 1613 
Q 991 1019 1311 708 
Q 1631 397 2203 397 
Q 2534 397 2845 478 
Q 3156 559 3463 722 
L 3463 178 
Q 3153 47 2828 -22 
Q 2503 -91 2169 -91 
Q 1331 -91 842 396 
Q 353 884 353 1716 
Q 353 2575 817 3079 
Q 1281 3584 2069 3584 
Q 2775 3584 3186 3129 
Q 3597 2675 3597 1894 
z
M 3022 2063 
Q 3016 2534 2758 2815 
Q 2500 3097 2075 3097 
Q 1594 3097 1305 2825 
Q 1016 2553 972 2059 
L 3022 2063 
z
" transform="scale(0.015625)"/>
       <path id="DejaVuSans-76" d="M 191 3500 
L 800 3500 
L 1894 563 
L 2988 3500 
L 3597 3500 
L 2284 0 
L 1503 0 
L 191 3500 
z
" transform="scale(0.015625)"/>
       <path id="DejaVuSans-61" d="M 2194 1759 
Q 1497 1759 1228 1600 
Q 959 1441 959 1056 
Q 959 750 1161 570 
Q 1363 391 1709 391 
Q 2188 391 2477 730 
Q 2766 1069 2766 1631 
L 2766 1759 
L 2194 1759 
z
M 3341 1997 
L 3341 0 
L 2766 0 
L 2766 531 
Q 2569 213 2275 61 
Q 1981 -91 1556 -91 
Q 1019 -91 701 211 
Q 384 513 384 1019 
Q 384 1609 779 1909 
Q 1175 2209 1959 2209 
L 2766 2209 
L 2766 2266 
Q 2766 2663 2505 2880 
Q 2244 3097 1772 3097 
Q 1472 3097 1187 3025 
Q 903 2953 641 2809 
L 641 3341 
Q 956 3463 1253 3523 
Q 1550 3584 1831 3584 
Q 2591 3584 2966 3190 
Q 3341 2797 3341 1997 
z
" transform="scale(0.015625)"/>
       <path id="DejaVuSans-73" d="M 2834 3397 
L 2834 2853 
Q 2591 2978 2328 3040 
Q 2066 3103 1784 3103 
Q 1356 3103 1142 2972 
Q 928 2841 928 2578 
Q 928 2378 1081 2264 
Q 1234 2150 1697 2047 
L 1894 2003 
Q 2506 1872 2764 1633 
Q 3022 1394 3022 966 
Q 3022 478 2636 193 
Q 2250 -91 1575 -91 
Q 1294 -91 989 -36 
Q 684 19 347 128 
L 347 722 
Q 666 556 975 473 
Q 1284 391 1588 391 
Q 1994 391 2212 530 
Q 2431 669 2431 922 
Q 2431 1156 2273 1281 
Q 2116 1406 1581 1522 
L 1381 1569 
Q 847 1681 609 1914 
Q 372 2147 372 2553 
Q 372 3047 722 3315 
Q 1072 3584 1716 3584 
Q 2034 3584 2315 3537 
Q 2597 3491 2834 3397 
z
" transform="scale(0.015625)"/>
       <path id="DejaVuSans-2f" d="M 1625 4666 
L 2156 4666 
L 531 -594 
L 0 -594 
L 1625 4666 
z
" transform="scale(0.015625)"/>
       <path id="DejaVuSans-64" d="M 2906 2969 
L 2906 4863 
L 3481 4863 
L 3481 0 
L 2906 0 
L 2906 525 
Q 2725 213 2448 61 
Q 2172 -91 1784 -91 
Q 1150 -91 751 415 
Q 353 922 353 1747 
Q 353 2572 751 3078 
Q 1150 3584 1784 3584 
Q 2172 3584 2448 3432 
Q 2725 3281 2906 2969 
z
M 947 1747 
Q 947 1113 1208 752 
Q 1469 391 1925 391 
Q 2381 391 2643 752 
Q 2906 1113 2906 1747 
Q 2906 2381 2643 2742 
Q 2381 3103 1925 3103 
Q 1469 3103 1208 2742 
Q 947 2381 947 1747 
z
" transform="scale(0.015625)"/>
       <path id="DejaVuSans-69" d="M 603 3500 
L 1178 3500 
L 1178 0 
L 603 0 
L 603 3500 
z
M 603 4863 
L 1178 4863 
L 1178 4134 
L 603 4134 
L 603 4863 
z
" transform="scale(0.015625)"/>
       <path id="DejaVuSans-6d" d="M 3328 2828 
Q 3544 3216 3844 3400 
Q 4144 3584 4550 3584 
Q 5097 3584 5394 3201 
Q 5691 2819 5691 2113 
L 5691 0 
L 5113 0 
L 5113 2094 
Q 5113 2597 4934 2840 
Q 4756 3084 4391 3084 
Q 3944 3084 3684 2787 
Q 3425 2491 3425 1978 
L 3425 0 
L 2847 0 
L 2847 2094 
Q 2847 2600 2669 2842 
Q 2491 3084 2119 3084 
Q 1678 3084 1418 2786 
Q 1159 2488 1159 1978 
L 1159 0 
L 581 0 
L 581 3500 
L 1159 3500 
L 1159 2956 
Q 1356 3278 1631 3431 
Q 1906 3584 2284 3584 
Q 2666 3584 2933 3390 
Q 3200 3197 3328 2828 
z
" transform="scale(0.015625)"/>
       <path id="DejaVuSans-6e" d="M 3513 2113 
L 3513 0 
L 2938 0 
L 2938 2094 
Q 2938 2591 2744 2837 
Q 2550 3084 2163 3084 
Q 1697 3084 1428 2787 
Q 1159 2491 1159 1978 
L 1159 0 
L 581 0 
L 581 3500 
L 1159 3500 
L 1159 2956 
Q 1366 3272 1645 3428 
Q 1925 3584 2291 3584 
Q 2894 3584 3203 3211 
Q 3513 2838 3513 2113 
z
" transform="scale(0.015625)"/>
       <path id="DejaVuSans-29" d="M 513 4856 
L 1013 4856 
Q 1481 4119 1714 3412 
Q 1947 2706 1947 2009 
Q 1947 1309 1714 600 
Q 1481 -109 1013 -844 
L 513 -844 
Q 928 -128 1133 580 
Q 1338 1288 1338 2009 
Q 1338 2731 1133 3434 
Q 928 4138 513 4856 
z
" transform="scale(0.015625)"/>
      </defs>
      <use xlink:href="#DejaVuSans-6c"/>
      <use xlink:href="#DejaVuSans-6f" x="27.783203"/>
      <use xlink:href="#DejaVuSans-67" x="88.964844"/>
      <use xlink:href="#DejaVuSans-31" x="152.441406"/>
      <use xlink:href="#DejaVuSans-30" x="216.064453"/>
      <use xlink:href="#DejaVuSans-28" x="279.6875"/>
      <use xlink:href="#DejaVuSans-23" x="318.701172"/>
      <use xlink:href="#DejaVuSans-20" x="402.490234"/>
      <use xlink:href="#DejaVuSans-66" x="434.277344"/>
      <use xlink:href="#DejaVuSans-2d" x="463.982422"/>
      <use xlink:href="#DejaVuSans-65" x="500.066406"/>
      <use xlink:href="#DejaVuSans-76" x="561.589844"/>
      <use xlink:href="#DejaVuSans-61" x="620.769531"/>
      <use xlink:href="#DejaVuSans-6c" x="682.048828"/>
      <use xlink:href="#DejaVuSans-73" x="709.832031"/>
      <use xlink:href="#DejaVuSans-20" x="761.931641"/>
      <use xlink:href="#DejaVuSans-2f" x="793.71875"/>
      <use xlink:href="#DejaVuSans-20" x="827.410156"/>
      <use xlink:href="#DejaVuSans-64" x="859.197266"/>
      <use xlink:href="#DejaVuSans-69" x="922.673828"/>
      <use xlink:href="#DejaVuSans-6d" x="950.457031"/>
      <use xlink:href="#DejaVuSans-65" x="1047.869141"/>
      <use xlink:href="#DejaVuSans-6e" x="1109.392578"/>
      <use xlink:href="#DejaVuSans-73" x="1172.771484"/>
      <use xlink:href="#DejaVuSans-69" x="1224.871094"/>
      <use xlink:href="#DejaVuSans-6f" x="1252.654297"/>
      <use xlink:href="#DejaVuSans-6e" x="1313.835938"/>
      <use xlink:href="#DejaVuSans-29" x="1377.214844"/>
     </g>
    </g>
   </g>
   <g id="matplotlib.axis_2">
    <g id="ytick_1">
     <g id="line2d_21">
      <path d="M 57.6 298.944 
L 360.8064 298.944 
" clip-path="url(#p84ed5c8d37)" style="fill: none; stroke: #b0b0b0; stroke-width: 0.8; stroke-linecap: square"/>
     </g>
     <g id="line2d_22">
      <defs>
       <path id="mb3340a2340" d="M 0 0 
L -3.5 0 
" style="stroke: #000000; stroke-width: 0.8"/>
      </defs>
      <g>
       <use xlink:href="#mb3340a2340" x="57.6" y="298.944" style="stroke: #000000; stroke-width: 0.8"/>
      </g>
     </g>
     <g id="text_6">
      <!-- 0.0 -->
      <g transform="translate(25.155 305.02275)scale(0.16 -0.16)">
       <defs>
        <path id="DejaVuSans-2e" d="M 684 794 
L 1344 794 
L 1344 0 
L 684 0 
L 684 794 
z
" transform="scale(0.015625)"/>
       </defs>
       <use xlink:href="#DejaVuSans-30"/>
       <use xlink:href="#DejaVuSans-2e" x="63.623047"/>
       <use xlink:href="#DejaVuSans-30" x="95.410156"/>
      </g>
     </g>
    </g>
    <g id="ytick_2">
     <g id="line2d_23">
      <path d="M 57.6 240.5376 
L 360.8064 240.5376 
" clip-path="url(#p84ed5c8d37)" style="fill: none; stroke: #b0b0b0; stroke-width: 0.8; stroke-linecap: square"/>
     </g>
     <g id="line2d_24">
      <g>
       <use xlink:href="#mb3340a2340" x="57.6" y="240.5376" style="stroke: #000000; stroke-width: 0.8"/>
      </g>
     </g>
     <g id="text_7">
      <!-- 0.2 -->
      <g transform="translate(25.155 246.61635)scale(0.16 -0.16)">
       <use xlink:href="#DejaVuSans-30"/>
       <use xlink:href="#DejaVuSans-2e" x="63.623047"/>
       <use xlink:href="#DejaVuSans-32" x="95.410156"/>
      </g>
     </g>
    </g>
    <g id="ytick_3">
     <g id="line2d_25">
      <path d="M 57.6 182.1312 
L 360.8064 182.1312 
" clip-path="url(#p84ed5c8d37)" style="fill: none; stroke: #b0b0b0; stroke-width: 0.8; stroke-linecap: square"/>
     </g>
     <g id="line2d_26">
      <g>
       <use xlink:href="#mb3340a2340" x="57.6" y="182.1312" style="stroke: #000000; stroke-width: 0.8"/>
      </g>
     </g>
     <g id="text_8">
      <!-- 0.4 -->
      <g transform="translate(25.155 188.20995)scale(0.16 -0.16)">
       <use xlink:href="#DejaVuSans-30"/>
       <use xlink:href="#DejaVuSans-2e" x="63.623047"/>
       <use xlink:href="#DejaVuSans-34" x="95.410156"/>
      </g>
     </g>
    </g>
    <g id="ytick_4">
     <g id="line2d_27">
      <path d="M 57.6 123.7248 
L 360.8064 123.7248 
" clip-path="url(#p84ed5c8d37)" style="fill: none; stroke: #b0b0b0; stroke-width: 0.8; stroke-linecap: square"/>
     </g>
     <g id="line2d_28">
      <g>
       <use xlink:href="#mb3340a2340" x="57.6" y="123.7248" style="stroke: #000000; stroke-width: 0.8"/>
      </g>
     </g>
     <g id="text_9">
      <!-- 0.6 -->
      <g transform="translate(25.155 129.80355)scale(0.16 -0.16)">
       <use xlink:href="#DejaVuSans-30"/>
       <use xlink:href="#DejaVuSans-2e" x="63.623047"/>
       <use xlink:href="#DejaVuSans-36" x="95.410156"/>
      </g>
     </g>
    </g>
    <g id="ytick_5">
     <g id="line2d_29">
      <path d="M 57.6 65.3184 
L 360.8064 65.3184 
" clip-path="url(#p84ed5c8d37)" style="fill: none; stroke: #b0b0b0; stroke-width: 0.8; stroke-linecap: square"/>
     </g>
     <g id="line2d_30">
      <g>
       <use xlink:href="#mb3340a2340" x="57.6" y="65.3184" style="stroke: #000000; stroke-width: 0.8"/>
      </g>
     </g>
     <g id="text_10">
      <!-- 0.8 -->
      <g transform="translate(25.155 71.39715)scale(0.16 -0.16)">
       <defs>
        <path id="DejaVuSans-38" d="M 2034 2216 
Q 1584 2216 1326 1975 
Q 1069 1734 1069 1313 
Q 1069 891 1326 650 
Q 1584 409 2034 409 
Q 2484 409 2743 651 
Q 3003 894 3003 1313 
Q 3003 1734 2745 1975 
Q 2488 2216 2034 2216 
z
M 1403 2484 
Q 997 2584 770 2862 
Q 544 3141 544 3541 
Q 544 4100 942 4425 
Q 1341 4750 2034 4750 
Q 2731 4750 3128 4425 
Q 3525 4100 3525 3541 
Q 3525 3141 3298 2862 
Q 3072 2584 2669 2484 
Q 3125 2378 3379 2068 
Q 3634 1759 3634 1313 
Q 3634 634 3220 271 
Q 2806 -91 2034 -91 
Q 1263 -91 848 271 
Q 434 634 434 1313 
Q 434 1759 690 2068 
Q 947 2378 1403 2484 
z
M 1172 3481 
Q 1172 3119 1398 2916 
Q 1625 2713 2034 2713 
Q 2441 2713 2670 2916 
Q 2900 3119 2900 3481 
Q 2900 3844 2670 4047 
Q 2441 4250 2034 4250 
Q 1625 4250 1398 4047 
Q 1172 3844 1172 3481 
z
" transform="scale(0.015625)"/>
       </defs>
       <use xlink:href="#DejaVuSans-30"/>
       <use xlink:href="#DejaVuSans-2e" x="63.623047"/>
       <use xlink:href="#DejaVuSans-38" x="95.410156"/>
      </g>
     </g>
    </g>
    <g id="ytick_6">
     <g id="line2d_31">
      <path d="M 57.6 6.912 
L 360.8064 6.912 
" clip-path="url(#p84ed5c8d37)" style="fill: none; stroke: #b0b0b0; stroke-width: 0.8; stroke-linecap: square"/>
     </g>
     <g id="line2d_32">
      <g>
       <use xlink:href="#mb3340a2340" x="57.6" y="6.912" style="stroke: #000000; stroke-width: 0.8"/>
      </g>
     </g>
     <g id="text_11">
      <!-- 1.0 -->
      <g transform="translate(25.155 12.99075)scale(0.16 -0.16)">
       <use xlink:href="#DejaVuSans-31"/>
       <use xlink:href="#DejaVuSans-2e" x="63.623047"/>
       <use xlink:href="#DejaVuSans-30" x="95.410156"/>
      </g>
     </g>
    </g>
    <g id="text_12">
     <!-- Fraction of function,target pairs -->
     <g transform="translate(17.619531 287.313)rotate(-90)scale(0.17 -0.17)">
      <defs>
       <path id="DejaVuSans-46" d="M 628 4666 
L 3309 4666 
L 3309 4134 
L 1259 4134 
L 1259 2759 
L 3109 2759 
L 3109 2228 
L 1259 2228 
L 1259 0 
L 628 0 
L 628 4666 
z
" transform="scale(0.015625)"/>
       <path id="DejaVuSans-72" d="M 2631 2963 
Q 2534 3019 2420 3045 
Q 2306 3072 2169 3072 
Q 1681 3072 1420 2755 
Q 1159 2438 1159 1844 
L 1159 0 
L 581 0 
L 581 3500 
L 1159 3500 
L 1159 2956 
Q 1341 3275 1631 3429 
Q 1922 3584 2338 3584 
Q 2397 3584 2469 3576 
Q 2541 3569 2628 3553 
L 2631 2963 
z
" transform="scale(0.015625)"/>
       <path id="DejaVuSans-63" d="M 3122 3366 
L 3122 2828 
Q 2878 2963 2633 3030 
Q 2388 3097 2138 3097 
Q 1578 3097 1268 2742 
Q 959 2388 959 1747 
Q 959 1106 1268 751 
Q 1578 397 2138 397 
Q 2388 397 2633 464 
Q 2878 531 3122 666 
L 3122 134 
Q 2881 22 2623 -34 
Q 2366 -91 2075 -91 
Q 1284 -91 818 406 
Q 353 903 353 1747 
Q 353 2603 823 3093 
Q 1294 3584 2113 3584 
Q 2378 3584 2631 3529 
Q 2884 3475 3122 3366 
z
" transform="scale(0.015625)"/>
       <path id="DejaVuSans-74" d="M 1172 4494 
L 1172 3500 
L 2356 3500 
L 2356 3053 
L 1172 3053 
L 1172 1153 
Q 1172 725 1289 603 
Q 1406 481 1766 481 
L 2356 481 
L 2356 0 
L 1766 0 
Q 1100 0 847 248 
Q 594 497 594 1153 
L 594 3053 
L 172 3053 
L 172 3500 
L 594 3500 
L 594 4494 
L 1172 4494 
z
" transform="scale(0.015625)"/>
       <path id="DejaVuSans-75" d="M 544 1381 
L 544 3500 
L 1119 3500 
L 1119 1403 
Q 1119 906 1312 657 
Q 1506 409 1894 409 
Q 2359 409 2629 706 
Q 2900 1003 2900 1516 
L 2900 3500 
L 3475 3500 
L 3475 0 
L 2900 0 
L 2900 538 
Q 2691 219 2414 64 
Q 2138 -91 1772 -91 
Q 1169 -91 856 284 
Q 544 659 544 1381 
z
M 1991 3584 
L 1991 3584 
z
" transform="scale(0.015625)"/>
       <path id="DejaVuSans-2c" d="M 750 794 
L 1409 794 
L 1409 256 
L 897 -744 
L 494 -744 
L 750 256 
L 750 794 
z
" transform="scale(0.015625)"/>
       <path id="DejaVuSans-70" d="M 1159 525 
L 1159 -1331 
L 581 -1331 
L 581 3500 
L 1159 3500 
L 1159 2969 
Q 1341 3281 1617 3432 
Q 1894 3584 2278 3584 
Q 2916 3584 3314 3078 
Q 3713 2572 3713 1747 
Q 3713 922 3314 415 
Q 2916 -91 2278 -91 
Q 1894 -91 1617 61 
Q 1341 213 1159 525 
z
M 3116 1747 
Q 3116 2381 2855 2742 
Q 2594 3103 2138 3103 
Q 1681 3103 1420 2742 
Q 1159 2381 1159 1747 
Q 1159 1113 1420 752 
Q 1681 391 2138 391 
Q 2594 391 2855 752 
Q 3116 1113 3116 1747 
z
" transform="scale(0.015625)"/>
      </defs>
      <use xlink:href="#DejaVuSans-46"/>
      <use xlink:href="#DejaVuSans-72" x="50.269531"/>
      <use xlink:href="#DejaVuSans-61" x="91.382812"/>
      <use xlink:href="#DejaVuSans-63" x="152.662109"/>
      <use xlink:href="#DejaVuSans-74" x="207.642578"/>
      <use xlink:href="#DejaVuSans-69" x="246.851562"/>
      <use xlink:href="#DejaVuSans-6f" x="274.634766"/>
      <use xlink:href="#DejaVuSans-6e" x="335.816406"/>
      <use xlink:href="#DejaVuSans-20" x="399.195312"/>
      <use xlink:href="#DejaVuSans-6f" x="430.982422"/>
      <use xlink:href="#DejaVuSans-66" x="492.164062"/>
      <use xlink:href="#DejaVuSans-20" x="527.369141"/>
      <use xlink:href="#DejaVuSans-66" x="559.15625"/>
      <use xlink:href="#DejaVuSans-75" x="594.361328"/>
      <use xlink:href="#DejaVuSans-6e" x="657.740234"/>
      <use xlink:href="#DejaVuSans-63" x="721.119141"/>
      <use xlink:href="#DejaVuSans-74" x="776.099609"/>
      <use xlink:href="#DejaVuSans-69" x="815.308594"/>
      <use xlink:href="#DejaVuSans-6f" x="843.091797"/>
      <use xlink:href="#DejaVuSans-6e" x="904.273438"/>
      <use xlink:href="#DejaVuSans-2c" x="967.652344"/>
      <use xlink:href="#DejaVuSans-74" x="999.439453"/>
      <use xlink:href="#DejaVuSans-61" x="1038.648438"/>
      <use xlink:href="#DejaVuSans-72" x="1099.927734"/>
      <use xlink:href="#DejaVuSans-67" x="1139.291016"/>
      <use xlink:href="#DejaVuSans-65" x="1202.767578"/>
      <use xlink:href="#DejaVuSans-74" x="1264.291016"/>
      <use xlink:href="#DejaVuSans-20" x="1303.5"/>
      <use xlink:href="#DejaVuSans-70" x="1335.287109"/>
      <use xlink:href="#DejaVuSans-61" x="1398.763672"/>
      <use xlink:href="#DejaVuSans-69" x="1460.042969"/>
      <use xlink:href="#DejaVuSans-72" x="1487.826172"/>
      <use xlink:href="#DejaVuSans-73" x="1528.939453"/>
     </g>
    </g>
   </g>
   <g id="line2d_33">
    <defs>
     <path id="m5842d331da" d="M 0 1.5 
C 0.397805 1.5 0.77937 1.341951 1.06066 1.06066 
C 1.341951 0.77937 1.5 0.397805 1.5 0 
C 1.5 -0.397805 1.341951 -0.77937 1.06066 -1.06066 
C 0.77937 -1.341951 0.397805 -1.5 0 -1.5 
C -0.397805 -1.5 -0.77937 -1.341951 -1.06066 -1.06066 
C -1.341951 -0.77937 -1.5 -0.397805 -1.5 0 
C -1.5 0.397805 -1.341951 0.77937 -1.06066 1.06066 
C -0.77937 1.341951 -0.397805 1.5 0 1.5 
z
" style="stroke: #f5deb3"/>
    </defs>
    <g>
     <use xlink:href="#m5842d331da" x="288.466161" y="42.157241" style="fill: #f5deb3; stroke: #f5deb3"/>
     <use xlink:href="#m5842d331da" x="288.466161" y="42.157241" style="fill: #f5deb3; stroke: #f5deb3"/>
    </g>
   </g>
   <g id="line2d_34">
    <defs>
     <path id="m8013acb3b1" d="M 0 1.5 
C 0.397805 1.5 0.77937 1.341951 1.06066 1.06066 
C 1.341951 0.77937 1.5 0.397805 1.5 0 
C 1.5 -0.397805 1.341951 -0.77937 1.06066 -1.06066 
C 0.77937 -1.341951 0.397805 -1.5 0 -1.5 
C -0.397805 -1.5 -0.77937 -1.341951 -1.06066 -1.06066 
C -1.341951 -0.77937 -1.5 -0.397805 -1.5 0 
C -1.5 0.397805 -1.341951 0.77937 -1.06066 1.06066 
C -0.77937 1.341951 -0.397805 1.5 0 1.5 
z
" style="stroke: #000080"/>
    </defs>
    <g>
     <use xlink:href="#m8013acb3b1" x="81.696354" y="274.146455" style="fill: #000080; stroke: #000080"/>
     <use xlink:href="#m8013acb3b1" x="81.696354" y="274.146455" style="fill: #000080; stroke: #000080"/>
    </g>
   </g>
   <g id="line2d_35">
    <path d="M 27.323974 298.944 
L 27.323974 286.104662 
L 40.363149 286.104662 
L 40.363149 284.594152 
L 47.990577 284.594152 
L 47.990577 282.83189 
L 53.402323 282.83189 
L 53.402323 281.824883 
L 57.6 281.824883 
L 57.6 281.447255 
L 61.029752 281.447255 
L 61.029752 281.069628 
L 63.929565 281.069628 
L 63.929565 280.566124 
L 66.441498 280.566124 
L 66.441498 280.188497 
L 68.65718 280.188497 
L 68.65718 279.307366 
L 70.639174 279.307366 
L 70.639174 278.426234 
L 72.432107 278.426234 
L 72.432107 278.174483 
L 74.068926 278.174483 
L 74.068926 277.922731 
L 75.574654 277.922731 
L 75.574654 277.419228 
L 76.96874 277.419228 
L 76.96874 277.167476 
L 78.266603 277.167476 
L 78.266603 276.412221 
L 79.480672 276.412221 
L 79.480672 275.782841 
L 80.621116 275.782841 
L 80.621116 275.405214 
L 81.696354 275.405214 
L 81.696354 274.146455 
L 360.8064 274.146455 
" style="fill: none; stroke: #000080; stroke-width: 1.5; stroke-linecap: square"/>
   </g>
   <g id="line2d_36">
    <defs>
     <path id="md0e7801a4c" d="M 0 6 
C 1.591219 6 3.117479 5.367802 4.242641 4.242641 
C 5.367802 3.117479 6 1.591219 6 0 
C 6 -1.591219 5.367802 -3.117479 4.242641 -4.242641 
C 3.117479 -5.367802 1.591219 -6 0 -6 
C -1.591219 -6 -3.117479 -5.367802 -4.242641 -4.242641 
C -5.367802 -3.117479 -6 -1.591219 -6 0 
C -6 1.591219 -5.367802 3.117479 -4.242641 4.242641 
C -3.117479 5.367802 -1.591219 6 0 6 
z
" style="stroke: #000080; stroke-width: 1.5"/>
    </defs>
    <g>
     <use xlink:href="#md0e7801a4c" x="81.696354" y="275.405214" style="fill-opacity: 0; stroke: #000080; stroke-width: 1.5"/>
     <use xlink:href="#md0e7801a4c" x="81.696354" y="275.405214" style="fill-opacity: 0; stroke: #000080; stroke-width: 1.5"/>
     <use xlink:href="#md0e7801a4c" x="81.696354" y="274.146455" style="fill-opacity: 0; stroke: #000080; stroke-width: 1.5"/>
     <use xlink:href="#md0e7801a4c" x="81.696354" y="274.146455" style="fill-opacity: 0; stroke: #000080; stroke-width: 1.5"/>
     <use xlink:href="#md0e7801a4c" x="81.696354" y="274.146455" style="fill-opacity: 0; stroke: #000080; stroke-width: 1.5"/>
     <use xlink:href="#md0e7801a4c" x="360.8064" y="274.146455" style="fill-opacity: 0; stroke: #000080; stroke-width: 1.5"/>
    </g>
   </g>
   <g id="line2d_37">
    <path style="fill: none; stroke: #000080; stroke-width: 1.5; stroke-linecap: square"/>
    <g/>
   </g>
   <g id="line2d_38">
    <path d="M 81.696354 274.146455 
" clip-path="url(#p84ed5c8d37)" style="fill: none; stroke: #000080; stroke-width: 1.5; stroke-linecap: square"/>
    <defs>
     <path id="m0f2076c0fb" d="M -12 12 
L 12 -12 
M -12 -12 
L 12 12 
" style="stroke: #000080"/>
    </defs>
    <g clip-path="url(#p84ed5c8d37)">
     <use xlink:href="#m0f2076c0fb" x="81.696354" y="274.146455" style="fill: #000080; stroke: #000080"/>
    </g>
   </g>
   <g id="line2d_39">
    <defs>
     <path id="m66415854a2" d="M 0 1.5 
C 0.397805 1.5 0.77937 1.341951 1.06066 1.06066 
C 1.341951 0.77937 1.5 0.397805 1.5 0 
C 1.5 -0.397805 1.341951 -0.77937 1.06066 -1.06066 
C 0.77937 -1.341951 0.397805 -1.5 0 -1.5 
C -0.397805 -1.5 -0.77937 -1.341951 -1.06066 -1.06066 
C -1.341951 -0.77937 -1.5 -0.397805 -1.5 0 
C -1.5 0.397805 -1.341951 0.77937 -1.06066 1.06066 
C -0.77937 1.341951 -0.397805 1.5 0 1.5 
z
" style="stroke: #ff00ff"/>
    </defs>
    <g>
     <use xlink:href="#m66415854a2" x="274.01944" y="124.731807" style="fill: #ff00ff; stroke: #ff00ff"/>
     <use xlink:href="#m66415854a2" x="274.01944" y="124.731807" style="fill: #ff00ff; stroke: #ff00ff"/>
    </g>
   </g>
   <g id="line2d_40">
    <path d="M 27.323974 298.944 
L 27.323974 286.104662 
L 40.363149 286.104662 
L 40.363149 284.468276 
L 47.990577 284.468276 
L 47.990577 284.090648 
L 53.402323 284.090648 
L 53.402323 282.957766 
L 57.6 282.957766 
L 57.6 282.83189 
L 61.029752 282.83189 
L 61.029752 282.706014 
L 63.929565 282.706014 
L 63.929565 282.580138 
L 66.441498 282.580138 
L 66.441498 282.454262 
L 68.65718 282.454262 
L 68.65718 281.447255 
L 72.432107 281.447255 
L 72.432107 281.195503 
L 74.068926 281.195503 
L 74.068926 281.069628 
L 75.574654 281.069628 
L 75.574654 279.936745 
L 76.96874 279.936745 
L 76.96874 279.559117 
L 79.480672 279.559117 
L 79.480672 279.433241 
L 80.621116 279.433241 
L 80.621116 279.18149 
L 81.696354 279.18149 
L 81.696354 278.929738 
L 83.678349 278.929738 
L 83.678349 277.545103 
L 84.596168 277.545103 
L 84.596168 277.293352 
L 85.471281 277.293352 
L 85.471281 276.789848 
L 86.307488 276.789848 
L 86.307488 276.538097 
L 87.1081 276.538097 
L 87.1081 276.412221 
L 88.613828 276.412221 
L 88.613828 276.286345 
L 89.323782 276.286345 
L 89.323782 276.034593 
L 90.007914 276.034593 
L 90.007914 275.782841 
L 90.668036 275.782841 
L 90.668036 275.656966 
L 91.305777 275.656966 
L 91.305777 275.53109 
L 95.250946 275.53109 
L 95.250946 275.279338 
L 97.18203 275.279338 
L 97.18203 275.153462 
L 98.077987 275.153462 
L 98.077987 275.027586 
L 98.510456 275.027586 
L 98.510456 274.90171 
L 98.933205 274.90171 
L 98.933205 274.649959 
L 99.346662 274.649959 
L 99.346662 274.524083 
L 101.287718 274.524083 
L 101.287718 274.398207 
L 101.653002 274.398207 
L 101.653002 273.768828 
L 102.011329 273.768828 
L 102.011329 273.517076 
L 102.362957 273.517076 
L 102.362957 273.3912 
L 102.708132 273.3912 
L 102.708132 273.139448 
L 104.344952 273.139448 
L 104.344952 273.013572 
L 106.137884 273.013572 
L 106.137884 272.761821 
L 106.699465 272.761821 
L 106.699465 272.510069 
L 107.774703 272.510069 
L 107.774703 272.132441 
L 108.29012 272.132441 
L 108.29012 271.88069 
L 109.037698 271.88069 
L 109.037698 271.754814 
L 109.280431 271.754814 
L 109.280431 271.503062 
L 109.756698 271.503062 
L 109.756698 271.125434 
L 110.674517 271.125434 
L 110.674517 270.999559 
L 111.54963 270.999559 
L 111.54963 270.747807 
L 111.762192 270.747807 
L 111.762192 270.118428 
L 112.589207 270.118428 
L 112.589207 269.992552 
L 112.989468 269.992552 
L 112.989468 269.866676 
L 113.186449 269.866676 
L 113.186449 269.363172 
L 113.57433 269.363172 
L 113.57433 269.237297 
L 113.765312 269.237297 
L 113.765312 269.111421 
L 114.141556 269.111421 
L 114.141556 268.985545 
L 114.510421 268.985545 
L 114.510421 268.859669 
L 115.227139 268.859669 
L 115.227139 268.733793 
L 115.402131 268.733793 
L 115.402131 268.607917 
L 115.575511 268.607917 
L 115.575511 268.356166 
L 115.917548 268.356166 
L 115.917548 268.23029 
L 116.086263 268.23029 
L 116.086263 268.104414 
L 116.253478 268.104414 
L 116.253478 267.349159 
L 116.419219 267.349159 
L 116.419219 267.097407 
L 116.583514 267.097407 
L 116.583514 266.971531 
L 116.746385 266.971531 
L 116.746385 266.845655 
L 117.695068 266.845655 
L 117.695068 266.719779 
L 118.000953 266.719779 
L 118.000953 266.593903 
L 118.301945 266.593903 
L 118.301945 266.342152 
L 118.889854 266.342152 
L 118.889854 266.216276 
L 119.034004 266.216276 
L 119.034004 265.964524 
L 119.177058 265.964524 
L 119.177058 265.838648 
L 119.319033 265.838648 
L 119.319033 265.712772 
L 119.459944 265.712772 
L 119.459944 265.461021 
L 119.738639 265.461021 
L 119.738639 265.335145 
L 119.876453 265.335145 
L 119.876453 264.957517 
L 120.013265 264.957517 
L 120.013265 264.705766 
L 120.813877 264.705766 
L 120.813877 264.454014 
L 121.073351 264.454014 
L 121.073351 264.328138 
L 121.455972 264.328138 
L 121.455972 264.076386 
L 121.581803 264.076386 
L 121.581803 263.95051 
L 122.076872 263.95051 
L 122.076872 263.824634 
L 122.19863 263.824634 
L 122.19863 263.698759 
L 122.677931 263.698759 
L 122.677931 263.447007 
L 123.374735 263.447007 
L 123.374735 263.195255 
L 123.713691 263.195255 
L 123.713691 263.069379 
L 124.156336 263.069379 
L 124.156336 262.943503 
L 124.373813 262.943503 
L 124.373813 262.817628 
L 124.588805 262.817628 
L 124.588805 262.44 
L 124.801367 262.44 
L 124.906754 262.062372 
L 125.219419 262.062372 
L 125.322496 261.810621 
L 125.526971 261.810621 
L 125.628382 261.432993 
L 125.729248 261.432993 
L 125.729248 261.307117 
L 126.028642 261.307117 
L 126.028642 261.181241 
L 126.323346 261.181241 
L 126.420564 260.803614 
L 126.517282 260.803614 
L 126.613505 259.670731 
L 126.709238 259.670731 
L 126.804487 259.167228 
L 126.993549 259.167228 
L 126.993549 259.041352 
L 127.18073 259.041352 
L 127.18073 258.915476 
L 127.640693 258.915476 
L 127.640693 258.7896 
L 127.821575 258.7896 
L 127.821575 258.537848 
L 128.089678 258.537848 
L 128.089678 258.160221 
L 128.266313 258.160221 
L 128.354013 257.908469 
L 128.528195 257.908469 
L 128.528195 257.782593 
L 128.700779 257.782593 
L 128.700779 257.530841 
L 129.292652 257.530841 
L 129.292652 257.27909 
L 129.622688 257.27909 
L 129.7043 256.901462 
L 129.78556 256.901462 
L 129.78556 256.64971 
L 129.947033 256.64971 
L 129.947033 256.523834 
L 130.186674 256.523834 
L 130.186674 256.397959 
L 130.344755 256.397959 
L 130.4233 256.146207 
L 130.501519 256.146207 
L 130.501519 255.894455 
L 131.115828 255.894455 
L 131.115828 255.768579 
L 131.266322 255.768579 
L 131.266322 255.516828 
L 131.489828 255.516828 
L 131.563744 255.265076 
L 131.783764 255.265076 
L 131.783764 255.1392 
L 132.358208 255.1392 
L 132.358208 255.013324 
L 132.56918 255.013324 
L 132.638982 254.635697 
L 133.120474 254.635697 
L 133.188264 254.383945 
L 133.589949 254.383945 
L 133.656071 254.132193 
L 133.853052 254.132193 
L 133.853052 253.880441 
L 134.495147 253.880441 
L 134.495147 253.754566 
L 134.87014 253.754566 
L 134.87014 253.62869 
L 135.776169 253.62869 
L 135.835047 253.125186 
L 135.893741 253.125186 
L 135.893741 252.99931 
L 136.184497 252.99931 
L 136.184497 252.873434 
L 136.584151 252.873434 
L 136.584151 252.621683 
L 139.166565 252.621683 
L 139.166565 252.495807 
L 139.556456 252.495807 
L 139.556456 252.369931 
L 140.173284 252.369931 
L 140.173284 252.244055 
L 140.58877 252.244055 
L 140.679868 251.992303 
L 141.128852 251.992303 
L 141.128852 251.740552 
L 141.995897 251.740552 
L 141.995897 251.614676 
L 142.122575 251.614676 
L 142.164612 250.859421 
L 142.331827 250.859421 
L 142.331827 250.733545 
L 142.579895 250.733545 
L 142.579895 250.607669 
L 143.265494 250.607669 
L 143.265494 250.481793 
L 143.734829 250.481793 
L 143.734829 250.355917 
L 144.602918 250.355917 
L 144.602918 250.104166 
L 145.712961 250.104166 
L 145.712961 249.97829 
L 146.662213 249.97829 
L 146.662213 249.852414 
L 148.185734 249.852414 
L 148.216198 249.223034 
L 148.726679 249.223034 
L 148.726679 249.097159 
L 149.903682 249.097159 
L 149.903682 248.971283 
L 150.640414 248.971283 
L 150.640414 248.719531 
L 150.853277 248.719531 
L 150.853277 248.467779 
L 151.116012 248.467779 
L 151.116012 248.216028 
L 153.513449 248.216028 
L 153.513449 247.964276 
L 153.627945 247.964276 
L 153.627945 247.8384 
L 153.787077 247.8384 
L 153.8097 247.209021 
L 154.034453 247.209021 
L 154.034453 247.083145 
L 154.256552 247.083145 
L 154.256552 246.831393 
L 154.454223 246.831393 
L 154.454223 246.579641 
L 154.843441 246.579641 
L 154.843441 246.32789 
L 155.454055 246.32789 
L 155.454055 246.202014 
L 155.843627 246.202014 
L 155.924624 245.950262 
L 156.025382 245.950262 
L 156.025382 245.824386 
L 156.501649 245.824386 
L 156.579868 245.446759 
L 156.831855 245.446759 
L 156.88953 245.195007 
L 157.004352 245.195007 
L 157.061501 244.691503 
L 157.194177 244.691503 
L 157.288377 244.439752 
L 157.325925 244.439752 
L 157.325925 244.188 
L 157.605171 244.188 
L 157.69734 243.810372 
L 157.971166 243.810372 
L 157.971166 243.684497 
L 158.187393 243.684497 
L 158.241064 243.180993 
L 158.489522 243.180993 
L 158.489522 242.803366 
L 158.838864 242.803366 
L 158.873444 242.425738 
L 159.028273 242.425738 
L 159.028273 242.04811 
L 159.367841 242.04811 
L 159.367841 241.922234 
L 159.50197 241.922234 
L 159.568678 241.544607 
L 159.865969 241.544607 
L 159.947723 240.663476 
L 160.012872 240.663476 
L 160.077795 239.782345 
L 160.158636 239.782345 
L 160.158636 239.530593 
L 160.319282 239.530593 
L 160.319282 239.278841 
L 160.430923 239.278841 
L 160.526092 238.775338 
L 160.573496 238.775338 
L 160.573496 238.523586 
L 160.714996 238.523586 
L 160.714996 238.39771 
L 160.948489 238.39771 
L 160.979404 238.145959 
L 161.13322 238.145959 
L 161.13322 237.894207 
L 161.36161 237.894207 
L 161.467251 237.138952 
L 161.497325 237.138952 
L 161.497325 237.013076 
L 161.617145 237.013076 
L 161.617145 236.761324 
L 161.765853 236.761324 
L 161.765853 236.635448 
L 161.913396 236.635448 
L 162.001369 236.257821 
L 162.11803 236.257821 
L 162.219518 236.006069 
L 162.334839 236.006069 
L 162.349204 235.754317 
L 162.620084 235.754317 
L 162.634233 235.502566 
L 162.8032 235.502566 
L 162.887118 234.873186 
L 162.956765 234.873186 
L 163.053839 234.369683 
L 163.081483 234.369683 
L 163.109086 233.866179 
L 163.205379 233.866179 
L 163.205379 233.740303 
L 163.572247 233.740303 
L 163.666204 233.2368 
L 163.773012 233.2368 
L 163.773012 232.985048 
L 164.011136 232.985048 
L 164.011136 232.859172 
L 164.362764 232.859172 
L 164.465701 232.103917 
L 164.478528 232.103917 
L 164.529751 231.72629 
L 164.644495 231.72629 
L 164.733259 231.222786 
L 164.934588 231.222786 
L 164.997064 230.593407 
L 165.046896 230.593407 
L 165.046896 230.467531 
L 165.158538 230.467531 
L 165.269521 230.215779 
L 165.343147 230.215779 
L 165.343147 230.089903 
L 165.886348 230.089903 
L 165.898243 229.712276 
L 166.087543 229.712276 
L 166.146311 228.957021 
L 166.356368 228.957021 
L 166.460523 228.07589 
L 166.701332 228.07589 
L 166.701332 227.950014 
L 166.826251 227.950014 
L 166.826251 227.824138 
L 166.961587 227.824138 
L 166.961587 227.572386 
L 167.073627 227.572386 
L 167.173896 226.565379 
L 167.251516 226.565379 
L 167.273634 225.936 
L 167.4058 225.936 
L 167.4058 225.684248 
L 167.558829 225.684248 
L 167.602324 225.180745 
L 167.829037 225.180745 
L 167.850487 224.677241 
L 168.305841 224.677241 
L 168.399768 224.299614 
L 168.430973 224.299614 
L 168.441364 223.79611 
L 168.606832 223.79611 
L 168.606832 223.418483 
L 169.104709 223.418483 
L 169.204718 223.166731 
L 169.224656 223.166731 
L 169.284344 222.663228 
L 169.403154 222.663228 
L 169.462279 221.782097 
L 169.550619 221.782097 
L 169.550619 221.530345 
L 169.667764 221.530345 
L 169.667764 221.278593 
L 169.9383 221.278593 
L 170.043526 220.77509 
L 170.214455 220.77509 
L 170.233352 220.523338 
L 170.439971 220.523338 
L 170.523847 219.516331 
L 170.699701 219.516331 
L 170.736514 218.886952 
L 171.055593 218.886952 
L 171.055593 218.761076 
L 171.307016 218.761076 
L 171.378239 218.005821 
L 171.449192 218.005821 
L 171.511058 217.628193 
L 171.607866 217.628193 
L 171.704179 217.250566 
L 171.826049 217.250566 
L 171.843395 216.998814 
L 172.144386 216.998814 
L 172.254968 216.49531 
L 172.33959 216.49531 
L 172.373333 215.991807 
L 172.557844 215.991807 
L 172.557844 215.865931 
L 172.674324 215.865931 
L 172.781843 215.362428 
L 172.79833 215.362428 
L 172.79833 215.110676 
L 173.060174 215.110676 
L 173.11697 214.481297 
L 173.262233 214.481297 
L 173.262233 214.355421 
L 173.398404 214.355421 
L 173.44623 213.977793 
L 173.573175 213.977793 
L 173.683553 213.726041 
L 173.707122 213.726041 
L 173.785471 212.719034 
L 173.863495 212.719034 
L 173.964444 212.341407 
L 174.40835 212.341407 
L 174.423472 211.837903 
L 174.559024 211.837903 
L 174.589015 211.586152 
L 174.678701 211.586152 
L 174.73082 210.705021 
L 174.79762 210.705021 
L 174.886319 210.453269 
L 174.974602 210.453269 
L 175.062472 209.446262 
L 175.164472 209.446262 
L 175.164472 209.320386 
L 175.323647 209.320386 
L 175.431409 208.691007 
L 175.708734 208.691007 
L 175.814319 208.187503 
L 176.009838 208.187503 
L 176.086096 207.432248 
L 176.127562 207.432248 
L 176.237692 206.676993 
L 176.271976 206.676993 
L 176.36764 206.17349 
L 176.40849 206.17349 
L 176.489925 205.795862 
L 176.59796 205.795862 
L 176.59796 205.54411 
L 176.752182 205.54411 
L 176.832146 205.292359 
L 176.891897 205.292359 
L 176.958065 204.537103 
L 177.142107 204.537103 
L 177.252974 203.781848 
L 177.369655 203.781848 
L 177.46634 202.900717 
L 177.498458 202.900717 
L 177.607251 202.019586 
L 177.658231 202.019586 
L 177.747115 201.390207 
L 177.778757 201.390207 
L 177.778757 201.264331 
L 178.154375 201.264331 
L 178.191527 200.760828 
L 178.296396 200.760828 
L 178.296396 200.509076 
L 178.455661 200.509076 
L 178.553005 200.131448 
L 178.680008 200.131448 
L 178.680008 200.005572 
L 179.120831 200.005572 
L 179.162 199.376193 
L 179.26161 199.376193 
L 179.343247 198.87269 
L 179.436116 198.87269 
L 179.436116 198.620938 
L 179.557313 198.620938 
L 179.620488 197.991559 
L 179.68345 197.991559 
L 179.751898 197.613931 
L 179.933215 197.613931 
L 180.000761 197.110428 
L 180.12955 197.110428 
L 180.207514 196.606924 
L 180.263006 196.606924 
L 180.263006 196.355172 
L 180.406522 196.355172 
L 180.499771 195.851669 
L 180.581667 195.851669 
L 180.581667 195.725793 
L 180.711964 195.725793 
L 180.81986 195.096414 
L 180.959205 195.096414 
L 180.959205 194.970538 
L 181.108124 194.970538 
L 181.108124 194.718786 
L 181.282135 194.718786 
L 181.308361 194.341159 
L 181.402471 194.341159 
L 181.428529 194.089407 
L 181.516859 194.089407 
L 181.516859 193.837655 
L 181.692283 193.837655 
L 181.743569 193.334152 
L 181.896592 193.334152 
L 181.992867 192.578897 
L 182.008023 192.578897 
L 182.108755 192.075393 
L 182.253864 192.075393 
L 182.253864 191.823641 
L 182.392915 191.823641 
L 182.392915 191.697766 
L 182.506372 191.697766 
L 182.570198 191.320138 
L 182.702072 191.320138 
L 182.745826 190.94251 
L 182.900575 190.94251 
L 182.900575 190.816634 
L 183.097004 190.816634 
L 183.177853 190.313131 
L 183.248903 190.313131 
L 183.352626 189.683752 
L 183.385509 189.683752 
L 183.394894 189.432 
L 183.660407 189.432 
L 183.660407 189.306124 
L 183.858256 189.306124 
L 183.858256 189.180248 
L 184.202932 189.180248 
L 184.202932 189.054372 
L 184.625082 189.054372 
L 184.642651 188.676745 
L 184.747719 188.676745 
L 184.752084 188.299117 
L 184.99062 188.299117 
L 185.072326 187.669738 
L 185.33227 187.669738 
L 185.34919 187.29211 
L 185.613703 187.29211 
L 185.688599 186.788607 
L 186.095285 186.788607 
L 186.131824 186.410979 
L 186.564846 186.410979 
L 186.675502 186.159228 
L 186.691257 186.159228 
L 186.691257 186.033352 
L 186.949329 186.033352 
L 186.995873 185.529848 
L 187.291821 185.529848 
L 187.337526 185.026345 
L 188.024783 185.026345 
L 188.024783 184.900469 
L 188.348407 184.900469 
L 188.348407 184.774593 
L 188.659467 184.774593 
L 188.659467 184.522841 
L 189.118351 184.522841 
L 189.118351 184.396966 
L 189.276866 184.396966 
L 189.276866 184.27109 
L 189.573064 184.27109 
L 189.573064 184.019338 
L 190.515156 184.019338 
L 190.515156 183.893462 
L 190.7419 183.893462 
L 190.789456 183.515834 
L 190.906249 183.515834 
L 190.906249 183.389959 
L 191.059814 183.389959 
L 191.059814 183.264083 
L 192.452116 183.264083 
L 192.452116 183.012331 
L 192.633844 183.012331 
L 192.711193 182.634703 
L 192.90177 182.634703 
L 192.90177 182.508828 
L 193.070813 182.508828 
L 193.149183 182.257076 
L 193.246689 182.257076 
L 193.246689 182.005324 
L 193.77817 182.005324 
L 193.77817 181.753572 
L 194.685181 181.753572 
L 194.713475 181.375945 
L 194.798102 181.375945 
L 194.798102 181.124193 
L 195.127826 181.124193 
L 195.127826 180.998317 
L 195.572576 180.998317 
L 195.572576 180.872441 
L 196.011852 180.872441 
L 196.100399 180.368938 
L 196.67644 180.368938 
L 196.67644 180.243062 
L 196.874531 180.243062 
L 196.924872 179.865434 
L 197.560709 179.865434 
L 197.560709 179.739559 
L 197.828322 179.739559 
L 197.828322 179.487807 
L 198.194988 179.487807 
L 198.194988 179.236055 
L 198.938376 179.236055 
L 199.024414 178.858428 
L 199.10192 178.858428 
L 199.12633 178.606676 
L 199.698908 178.606676 
L 199.698908 178.4808 
L 199.865774 178.4808 
L 199.865774 178.354924 
L 200.060211 178.354924 
L 200.060211 178.103172 
L 200.252658 178.103172 
L 200.311919 177.725545 
L 200.471565 177.725545 
L 200.471565 177.599669 
L 200.62236 177.599669 
L 200.669237 177.347917 
L 200.809169 177.347917 
L 200.862999 176.97029 
L 201.025407 176.97029 
L 201.071291 176.466786 
L 201.34427 176.466786 
L 201.369547 175.963283 
L 201.638263 175.963283 
L 201.714592 175.585655 
L 201.753524 175.585655 
L 201.753524 175.333903 
L 201.973216 175.333903 
L 202.069074 174.956276 
L 202.508929 174.956276 
L 202.527601 174.704524 
L 202.624057 174.704524 
L 202.624057 174.578648 
L 202.736807 174.578648 
L 202.830531 174.326897 
L 203.131946 174.326897 
L 203.131946 174.075145 
L 203.405953 174.075145 
L 203.405953 173.949269 
L 203.528609 173.949269 
L 203.592845 173.571641 
L 203.7127 173.571641 
L 203.7127 173.31989 
L 203.866589 173.31989 
L 203.866589 173.194014 
L 204.050547 173.194014 
L 204.150418 172.816386 
L 204.211017 172.816386 
L 204.211017 172.564634 
L 204.328551 172.564634 
L 204.328551 172.438759 
L 204.532485 172.438759 
L 204.532485 172.312883 
L 204.94876 172.312883 
L 204.996434 172.061131 
L 205.076609 172.061131 
L 205.135779 171.683503 
L 205.373532 171.683503 
L 205.473891 171.305876 
L 205.602555 171.305876 
L 205.673018 171.054124 
L 206.049589 171.054124 
L 206.049589 170.928248 
L 206.174387 170.928248 
L 206.174387 170.802372 
L 206.443584 170.802372 
L 206.446339 170.550621 
L 206.681795 170.550621 
L 206.714416 170.298869 
L 206.820046 170.298869 
L 206.820046 170.047117 
L 207.148026 170.047117 
L 207.148026 169.921241 
L 207.274998 169.921241 
L 207.338164 169.543614 
L 207.433824 169.543614 
L 207.433824 169.291862 
L 207.880724 169.291862 
L 207.880724 169.04011 
L 208.034538 169.04011 
L 208.134287 168.788359 
L 208.169515 168.788359 
L 208.278553 168.410731 
L 208.322241 168.410731 
L 208.338442 168.158979 
L 208.450224 168.158979 
L 208.450224 168.033103 
L 208.633837 168.033103 
L 208.633837 167.907228 
L 208.763379 167.907228 
L 208.763379 167.781352 
L 209.064215 167.781352 
L 209.064215 167.655476 
L 209.380363 167.655476 
L 209.380363 167.403724 
L 209.493169 167.403724 
L 209.493169 167.277848 
L 209.828736 167.277848 
L 209.858634 167.026097 
L 210.24417 167.026097 
L 210.24417 166.900221 
L 210.42454 166.900221 
L 210.42454 166.774345 
L 210.875118 166.774345 
L 210.875118 166.648469 
L 211.858086 166.648469 
L 211.948784 166.396717 
L 212.345559 166.396717 
L 212.345559 166.270841 
L 212.660032 166.270841 
L 212.746954 165.893214 
L 213.013109 165.893214 
L 213.038354 165.263834 
L 213.223739 165.263834 
L 213.331997 164.634455 
L 213.421581 164.634455 
L 213.465264 164.382703 
L 213.774776 164.382703 
L 213.774776 164.130952 
L 214.002921 164.130952 
L 214.002921 164.005076 
L 214.475362 164.005076 
L 214.475362 163.8792 
L 214.640938 163.8792 
L 214.640938 163.753324 
L 214.828905 163.753324 
L 214.828905 163.627448 
L 215.183718 163.627448 
L 215.199295 163.123945 
L 215.306253 163.123945 
L 215.306253 162.998069 
L 215.657323 162.998069 
L 215.657323 162.872193 
L 215.817043 162.872193 
L 215.817043 162.746317 
L 216.187542 162.746317 
L 216.254724 162.242814 
L 216.401359 162.242814 
L 216.401359 162.116938 
L 216.723179 162.116938 
L 216.723179 161.991062 
L 217.103016 161.991062 
L 217.103016 161.865186 
L 217.37235 161.865186 
L 217.423145 161.613434 
L 217.505968 161.613434 
L 217.505968 161.487559 
L 217.635603 161.487559 
L 217.635603 161.361683 
L 217.871973 161.361683 
L 217.923683 160.858179 
L 218.26924 160.858179 
L 218.321336 160.480552 
L 218.872979 160.480552 
L 218.921303 160.2288 
L 219.657604 160.2288 
L 219.756306 159.599421 
L 221.170943 159.599421 
L 221.170943 159.473545 
L 221.317103 159.473545 
L 221.317103 159.221793 
L 221.716495 159.221793 
L 221.772081 158.844166 
L 221.973497 158.844166 
L 221.973497 158.71829 
L 222.488947 158.71829 
L 222.488947 158.592414 
L 222.867335 158.592414 
L 222.867335 158.466538 
L 223.068806 158.466538 
L 223.159675 158.08891 
L 223.410679 158.08891 
L 223.410679 157.837159 
L 223.54271 157.837159 
L 223.577652 157.585407 
L 223.922455 157.585407 
L 223.922455 157.459531 
L 224.057977 157.459531 
L 224.081729 157.207779 
L 224.300551 157.207779 
L 224.300551 156.956028 
L 224.69471 156.956028 
L 224.69471 156.830152 
L 224.927198 156.830152 
L 224.927198 156.5784 
L 225.157866 156.5784 
L 225.157866 156.452524 
L 225.349465 156.452524 
L 225.349465 156.200772 
L 225.586004 156.200772 
L 225.664028 155.949021 
L 225.811733 155.949021 
L 225.867254 155.697269 
L 226.562211 155.697269 
L 226.562211 155.571393 
L 226.959411 155.571393 
L 226.959411 155.445517 
L 227.534752 155.445517 
L 227.567501 155.193766 
L 227.652915 155.193766 
L 227.685904 154.816138 
L 227.993377 154.816138 
L 227.993377 154.564386 
L 228.731921 154.564386 
L 228.731921 154.43851 
L 229.245585 154.43851 
L 229.351874 153.935007 
L 229.54573 153.935007 
L 229.602936 153.557379 
L 229.864581 153.557379 
L 229.889556 153.179752 
L 230.445403 153.179752 
L 230.445403 152.928 
L 230.558528 152.928 
L 230.558528 152.802124 
L 231.054685 152.802124 
L 231.054685 152.676248 
L 231.166067 152.676248 
L 231.166067 152.424497 
L 231.338882 152.424497 
L 231.338882 152.298621 
L 231.495217 152.298621 
L 231.495217 152.172745 
L 231.611983 152.172745 
L 231.622464 151.920993 
L 232.094846 151.920993 
L 232.094846 151.795117 
L 232.266358 151.795117 
L 232.360044 151.291614 
L 232.384694 151.291614 
L 232.384694 151.165738 
L 232.564251 151.165738 
L 232.564251 151.039862 
L 232.893668 151.039862 
L 232.893668 150.78811 
L 233.601496 150.78811 
L 233.601496 150.662234 
L 233.735012 150.662234 
L 233.81332 150.032855 
L 234.206023 150.032855 
L 234.206023 149.781103 
L 234.48363 149.781103 
L 234.48363 149.655228 
L 234.825279 149.655228 
L 234.825279 149.529352 
L 235.124277 149.529352 
L 235.124277 149.403476 
L 235.458712 149.403476 
L 235.458712 149.2776 
L 235.820574 149.2776 
L 235.820574 149.151724 
L 236.053818 149.151724 
L 236.059527 148.899972 
L 236.440347 148.899972 
L 236.440347 148.648221 
L 236.607404 148.648221 
L 236.707206 148.270593 
L 237.206214 148.270593 
L 237.206214 148.144717 
L 237.90231 148.144717 
L 237.969982 147.892966 
L 238.070523 147.892966 
L 238.070523 147.76709 
L 238.310816 147.76709 
L 238.310816 147.641214 
L 238.442523 147.641214 
L 238.442523 147.515338 
L 238.63638 147.515338 
L 238.63638 147.389462 
L 238.753226 147.389462 
L 238.793495 147.13771 
L 239.036481 147.13771 
L 239.036481 147.011834 
L 239.52487 147.011834 
L 239.633274 146.760083 
L 239.744811 146.760083 
L 239.744811 146.508331 
L 240.154412 146.508331 
L 240.154412 146.382455 
L 240.758454 146.382455 
L 240.845839 146.004828 
L 241.050508 146.004828 
L 241.050508 145.878952 
L 241.25514 145.878952 
L 241.25514 145.753076 
L 241.412534 145.753076 
L 241.412534 145.501324 
L 241.751705 145.501324 
L 241.751705 145.375448 
L 242.582483 145.375448 
L 242.582483 145.249572 
L 242.802525 145.249572 
L 242.802525 144.871945 
L 243.038543 144.871945 
L 243.110286 144.620193 
L 243.198751 144.620193 
L 243.198751 144.368441 
L 243.378118 144.368441 
L 243.408845 143.739062 
L 243.503415 143.739062 
L 243.545443 143.48731 
L 244.006709 143.48731 
L 244.006709 143.361434 
L 244.194133 143.361434 
L 244.194133 143.235559 
L 244.362278 143.235559 
L 244.392723 142.983807 
L 244.648627 142.983807 
L 244.648627 142.857931 
L 244.825854 142.857931 
L 244.825854 142.732055 
L 245.995885 142.732055 
L 245.995885 142.606179 
L 246.135544 142.606179 
L 246.17459 142.102676 
L 246.448296 142.102676 
L 246.448296 141.9768 
L 246.847348 141.9768 
L 246.847348 141.850924 
L 248.286769 141.850924 
L 248.32725 141.473297 
L 248.515704 141.473297 
L 248.515704 141.221545 
L 248.906658 141.221545 
L 248.921644 140.969793 
L 250.249818 140.969793 
L 250.249818 140.843917 
L 250.751507 140.843917 
L 250.797063 140.46629 
L 251.330358 140.46629 
L 251.409651 140.214538 
L 251.460188 140.214538 
L 251.460188 140.088662 
L 251.572997 140.088662 
L 251.572997 139.83691 
L 251.822301 139.83691 
L 251.900413 139.459283 
L 252.152238 139.459283 
L 252.152238 139.333407 
L 252.361188 139.333407 
L 252.41785 139.081655 
L 252.606842 139.081655 
L 252.64966 138.200524 
L 252.762036 138.200524 
L 252.868724 137.822897 
L 252.96122 137.822897 
L 252.96122 137.697021 
L 253.132309 137.697021 
L 253.132309 137.571145 
L 253.448274 137.571145 
L 253.448274 137.319393 
L 253.768261 137.319393 
L 253.861544 136.941766 
L 254.142578 136.941766 
L 254.142578 136.81589 
L 254.39354 136.81589 
L 254.39354 136.690014 
L 254.5531 136.690014 
L 254.62993 136.438262 
L 255.134813 136.438262 
L 255.196001 136.060634 
L 255.527401 136.060634 
L 255.560829 135.683007 
L 255.700081 135.683007 
L 255.75926 135.053628 
L 255.868801 135.053628 
L 255.868801 134.801876 
L 256.01825 134.801876 
L 256.01825 134.676 
L 256.27684 134.676 
L 256.27684 134.550124 
L 256.838237 134.550124 
L 256.874892 134.298372 
L 257.06925 134.298372 
L 257.14476 133.794869 
L 257.454698 133.794869 
L 257.461378 133.543117 
L 257.775094 133.543117 
L 257.775094 133.417241 
L 257.915015 133.417241 
L 257.915461 133.039614 
L 258.403881 133.039614 
L 258.403881 132.913738 
L 259.412903 132.913738 
L 259.522512 132.661986 
L 259.585211 132.661986 
L 259.616237 132.410234 
L 259.895849 132.410234 
L 259.895849 132.284359 
L 260.214879 132.284359 
L 260.214879 132.158483 
L 260.414385 132.158483 
L 260.414385 131.906731 
L 260.615975 131.906731 
L 260.615975 131.780855 
L 260.90439 131.780855 
L 260.90439 131.654979 
L 261.133213 131.654979 
L 261.133213 131.403228 
L 261.246291 131.403228 
L 261.338529 131.0256 
L 261.830369 131.0256 
L 261.856097 130.773848 
L 261.985865 130.773848 
L 262.022584 130.270345 
L 262.140016 130.270345 
L 262.140016 130.018593 
L 262.666617 130.018593 
L 262.666617 129.892717 
L 262.986176 129.892717 
L 262.986176 129.766841 
L 263.575514 129.766841 
L 263.575514 129.640966 
L 263.716302 129.640966 
L 263.716302 129.51509 
L 264.155987 129.51509 
L 264.155987 129.389214 
L 264.308094 129.389214 
L 264.308094 129.137462 
L 264.859192 129.137462 
L 264.859192 128.88571 
L 265.490426 128.88571 
L 265.554316 128.508083 
L 265.677016 128.508083 
L 265.734325 128.004579 
L 266.494128 128.004579 
L 266.494128 127.752828 
L 267.037527 127.752828 
L 267.099066 127.501076 
L 267.228893 127.501076 
L 267.228893 127.3752 
L 267.361831 127.3752 
L 267.361831 127.249324 
L 267.591153 127.249324 
L 267.591153 127.123448 
L 268.878282 127.123448 
L 268.878282 126.997572 
L 269.317914 126.997572 
L 269.317914 126.745821 
L 269.450035 126.745821 
L 269.450035 126.619945 
L 269.705038 126.619945 
L 269.705038 126.368193 
L 270.213915 126.368193 
L 270.213915 126.242317 
L 271.401156 126.242317 
L 271.401156 126.116441 
L 272.566646 126.116441 
L 272.631248 125.86469 
L 273.019031 125.86469 
L 273.019031 125.738814 
L 273.260414 125.738814 
L 273.260414 125.487062 
L 273.469934 125.487062 
L 273.469934 125.361186 
L 273.631308 125.361186 
L 273.695719 124.857683 
L 274.01944 124.857683 
L 274.01944 124.731807 
L 360.8064 124.731807 
L 360.8064 124.731807 
" style="fill: none; stroke: #ff00ff; stroke-width: 1.5; stroke-linecap: square"/>
   </g>
   <g id="line2d_41">
    <defs>
     <path id="m7f301dcf63" d="M 0 8.485281 
L 5.091169 0 
L 0 -8.485281 
L -5.091169 0 
z
" style="stroke: #ff00ff; stroke-width: 1.5; stroke-linejoin: miter"/>
    </defs>
    <g>
     <use xlink:href="#m7f301dcf63" x="98.933205" y="274.649959" style="fill-opacity: 0; stroke: #ff00ff; stroke-width: 1.5; stroke-linejoin: miter"/>
     <use xlink:href="#m7f301dcf63" x="153.8097" y="247.586648" style="fill-opacity: 0; stroke: #ff00ff; stroke-width: 1.5; stroke-linejoin: miter"/>
     <use xlink:href="#m7f301dcf63" x="209.380363" y="167.403724" style="fill-opacity: 0; stroke: #ff00ff; stroke-width: 1.5; stroke-linejoin: miter"/>
     <use xlink:href="#m7f301dcf63" x="274.01944" y="124.857683" style="fill-opacity: 0; stroke: #ff00ff; stroke-width: 1.5; stroke-linejoin: miter"/>
     <use xlink:href="#m7f301dcf63" x="274.01944" y="124.731807" style="fill-opacity: 0; stroke: #ff00ff; stroke-width: 1.5; stroke-linejoin: miter"/>
     <use xlink:href="#m7f301dcf63" x="360.8064" y="124.731807" style="fill-opacity: 0; stroke: #ff00ff; stroke-width: 1.5; stroke-linejoin: miter"/>
    </g>
   </g>
   <g id="line2d_42">
    <path style="fill: none; stroke: #ff00ff; stroke-width: 1.5; stroke-linecap: square"/>
    <g/>
   </g>
   <g id="line2d_43">
    <path d="M 274.176038 124.731807 
" clip-path="url(#p84ed5c8d37)" style="fill: none; stroke: #ff00ff; stroke-width: 1.5; stroke-linecap: square"/>
    <defs>
     <path id="m76c77f1f54" d="M -12 12 
L 12 -12 
M -12 -12 
L 12 12 
" style="stroke: #ff00ff"/>
    </defs>
    <g clip-path="url(#p84ed5c8d37)">
     <use xlink:href="#m76c77f1f54" x="274.176038" y="124.731807" style="fill: #ff00ff; stroke: #ff00ff"/>
    </g>
   </g>
   <g id="line2d_44">
    <defs>
     <path id="md525ff58f7" d="M 0 1.5 
C 0.397805 1.5 0.77937 1.341951 1.06066 1.06066 
C 1.341951 0.77937 1.5 0.397805 1.5 0 
C 1.5 -0.397805 1.341951 -0.77937 1.06066 -1.06066 
C 0.77937 -1.341951 0.397805 -1.5 0 -1.5 
C -0.397805 -1.5 -0.77937 -1.341951 -1.06066 -1.06066 
C -1.341951 -0.77937 -1.5 -0.397805 -1.5 0 
C -1.5 0.397805 -1.341951 0.77937 -1.06066 1.06066 
C -0.77937 1.341951 -0.397805 1.5 0 1.5 
z
" style="stroke: #6495ed"/>
    </defs>
    <g>
     <use xlink:href="#md525ff58f7" x="113.954374" y="250.733545" style="fill: #6495ed; stroke: #6495ed"/>
     <use xlink:href="#md525ff58f7" x="113.954374" y="250.733545" style="fill: #6495ed; stroke: #6495ed"/>
    </g>
   </g>
   <g id="line2d_45">
    <path d="M 27.323974 298.944 
L 27.323974 296.80411 
L 40.363149 296.80411 
L 40.363149 294.412469 
L 47.990577 294.412469 
L 47.990577 292.524331 
L 53.402323 292.524331 
L 53.402323 291.517324 
L 57.6 291.517324 
L 57.6 290.384441 
L 61.029752 290.384441 
L 61.029752 290.006814 
L 63.929565 290.006814 
L 63.929565 289.629186 
L 66.441498 289.629186 
L 66.441498 289.377434 
L 68.65718 289.377434 
L 68.65718 288.496303 
L 70.639174 288.496303 
L 70.639174 287.741048 
L 72.432107 287.741048 
L 72.432107 286.859917 
L 74.068926 286.859917 
L 74.068926 286.230538 
L 76.96874 286.230538 
L 76.96874 285.978786 
L 78.266603 285.978786 
L 78.266603 285.475283 
L 79.480672 285.475283 
L 79.480672 285.349407 
L 80.621116 285.349407 
L 80.621116 285.097655 
L 81.696354 285.097655 
L 81.696354 284.971779 
L 82.713442 284.971779 
L 82.713442 284.468276 
L 83.678349 284.468276 
L 83.678349 283.587145 
L 84.596168 283.587145 
L 84.596168 282.957766 
L 87.876026 282.957766 
L 87.876026 282.706014 
L 89.323782 282.706014 
L 89.323782 281.950759 
L 90.007914 281.950759 
L 90.007914 281.824883 
L 90.668036 281.824883 
L 90.668036 281.321379 
L 91.922605 281.321379 
L 91.922605 280.817876 
L 93.098709 280.817876 
L 93.098709 280.440248 
L 94.205591 280.440248 
L 94.205591 280.062621 
L 95.250946 280.062621 
L 95.250946 279.810869 
L 96.717523 279.810869 
L 96.717523 279.559117 
L 97.18203 279.559117 
L 97.18203 279.307366 
L 98.510456 279.307366 
L 98.510456 278.929738 
L 99.346662 278.929738 
L 99.346662 278.677986 
L 100.9152 278.677986 
L 100.9152 278.426234 
L 101.287718 278.426234 
L 101.287718 277.670979 
L 102.011329 277.670979 
L 102.011329 277.545103 
L 102.708132 277.545103 
L 102.708132 276.915724 
L 103.047088 276.915724 
L 103.047088 276.034593 
L 103.380045 276.034593 
L 103.380045 275.153462 
L 103.707211 275.153462 
L 103.707211 273.265324 
L 104.028784 273.265324 
L 104.028784 272.510069 
L 104.344952 272.510069 
L 104.344952 270.999559 
L 104.655893 270.999559 
L 104.655893 270.118428 
L 104.961779 270.118428 
L 104.961779 269.363172 
L 105.26277 269.363172 
L 105.26277 268.356166 
L 105.559021 268.356166 
L 105.559021 267.223283 
L 105.850679 267.223283 
L 105.850679 266.593903 
L 106.137884 266.593903 
L 106.137884 266.342152 
L 106.42077 266.342152 
L 106.42077 265.838648 
L 106.699465 265.838648 
L 106.699465 265.083393 
L 106.974091 265.083393 
L 106.974091 264.57989 
L 107.244765 264.57989 
L 107.244765 262.817628 
L 107.5116 262.817628 
L 107.5116 261.936497 
L 107.774703 261.936497 
L 107.774703 261.684745 
L 108.034177 261.684745 
L 108.034177 261.558869 
L 108.29012 261.558869 
L 108.29012 261.307117 
L 108.542628 261.307117 
L 108.542628 261.055366 
L 108.791791 261.055366 
L 108.791791 260.677738 
L 109.037698 260.677738 
L 109.037698 260.30011 
L 109.280431 260.30011 
L 109.280431 260.048359 
L 109.520071 260.048359 
L 109.520071 259.544855 
L 109.756698 259.544855 
L 109.756698 259.293103 
L 109.990385 259.293103 
L 109.990385 259.041352 
L 110.221204 259.041352 
L 110.221204 258.537848 
L 110.449226 258.537848 
L 110.449226 258.034345 
L 110.674517 258.034345 
L 110.674517 257.530841 
L 110.897141 257.530841 
L 110.897141 257.153214 
L 111.117162 257.153214 
L 111.117162 256.020331 
L 111.54963 256.020331 
L 111.54963 255.265076 
L 111.762192 255.265076 
L 111.762192 254.887448 
L 111.97238 254.887448 
L 111.97238 254.132193 
L 112.180244 254.132193 
L 112.180244 253.251062 
L 112.385837 253.251062 
L 112.385837 252.747559 
L 112.589207 252.747559 
L 112.589207 252.495807 
L 112.790402 252.495807 
L 112.790402 251.614676 
L 113.381389 251.614676 
L 113.381389 251.362924 
L 113.57433 251.362924 
L 113.57433 251.111172 
L 113.954374 251.111172 
L 113.954374 250.733545 
L 360.8064 250.733545 
L 360.8064 250.733545 
" style="fill: none; stroke: #6495ed; stroke-width: 1.5; stroke-linecap: square"/>
   </g>
   <g id="line2d_46">
    <defs>
     <path id="m2598e81b28" d="M -0 6 
L 6 -6 
L -6 -6 
z
" style="stroke: #6495ed; stroke-width: 1.5; stroke-linejoin: miter"/>
    </defs>
    <g>
     <use xlink:href="#m2598e81b28" x="105.559021" y="267.223283" style="fill-opacity: 0; stroke: #6495ed; stroke-width: 1.5; stroke-linejoin: miter"/>
     <use xlink:href="#m2598e81b28" x="113.954374" y="251.111172" style="fill-opacity: 0; stroke: #6495ed; stroke-width: 1.5; stroke-linejoin: miter"/>
     <use xlink:href="#m2598e81b28" x="113.954374" y="250.733545" style="fill-opacity: 0; stroke: #6495ed; stroke-width: 1.5; stroke-linejoin: miter"/>
     <use xlink:href="#m2598e81b28" x="113.954374" y="250.733545" style="fill-opacity: 0; stroke: #6495ed; stroke-width: 1.5; stroke-linejoin: miter"/>
     <use xlink:href="#m2598e81b28" x="113.954374" y="250.733545" style="fill-opacity: 0; stroke: #6495ed; stroke-width: 1.5; stroke-linejoin: miter"/>
     <use xlink:href="#m2598e81b28" x="360.8064" y="250.733545" style="fill-opacity: 0; stroke: #6495ed; stroke-width: 1.5; stroke-linejoin: miter"/>
    </g>
   </g>
   <g id="line2d_47">
    <path style="fill: none; stroke: #6495ed; stroke-width: 1.5; stroke-linecap: square"/>
    <g/>
   </g>
   <g id="line2d_48">
    <path d="M 113.954374 250.733545 
" clip-path="url(#p84ed5c8d37)" style="fill: none; stroke: #6495ed; stroke-width: 1.5; stroke-linecap: square"/>
    <defs>
     <path id="m413477be8b" d="M -12 12 
L 12 -12 
M -12 -12 
L 12 12 
" style="stroke: #6495ed"/>
    </defs>
    <g clip-path="url(#p84ed5c8d37)">
     <use xlink:href="#m413477be8b" x="113.954374" y="250.733545" style="fill: #6495ed; stroke: #6495ed"/>
    </g>
   </g>
   <g id="line2d_49">
    <path d="M 360.8064 274.146455 
L 380.514816 293.10336 
" style="fill: none; stroke: #000080; stroke-width: 1.5; stroke-linecap: square"/>
    <g>
     <use xlink:href="#md0e7801a4c" x="360.8064" y="274.146455" style="fill-opacity: 0; stroke: #000080; stroke-width: 1.5"/>
     <use xlink:href="#md0e7801a4c" x="380.514816" y="293.10336" style="fill-opacity: 0; stroke: #000080; stroke-width: 1.5"/>
    </g>
   </g>
   <g id="line2d_50">
    <path d="M 360.8064 250.733545 
L 380.514816 199.65312 
" style="fill: none; stroke: #6495ed; stroke-width: 1.5; stroke-linecap: square"/>
    <g>
     <use xlink:href="#m2598e81b28" x="360.8064" y="250.733545" style="fill-opacity: 0; stroke: #6495ed; stroke-width: 1.5; stroke-linejoin: miter"/>
     <use xlink:href="#m2598e81b28" x="380.514816" y="199.65312" style="fill-opacity: 0; stroke: #6495ed; stroke-width: 1.5; stroke-linejoin: miter"/>
    </g>
   </g>
   <g id="line2d_51">
    <path d="M 360.8064 124.731807 
L 380.514816 106.20288 
" style="fill: none; stroke: #ff00ff; stroke-width: 1.5; stroke-linecap: square"/>
    <g>
     <use xlink:href="#m7f301dcf63" x="360.8064" y="124.731807" style="fill-opacity: 0; stroke: #ff00ff; stroke-width: 1.5; stroke-linejoin: miter"/>
     <use xlink:href="#m7f301dcf63" x="380.514816" y="106.20288" style="fill-opacity: 0; stroke: #ff00ff; stroke-width: 1.5; stroke-linejoin: miter"/>
    </g>
   </g>
   <g id="line2d_52">
    <path d="M 360.8064 298.944 
L 360.8064 6.912 
" style="fill: none; stroke: #000000; stroke-width: 1.5; stroke-linecap: square"/>
   </g>
   <g id="patch_3">
    <path d="M 57.6 298.944 
L 360.8064 298.944 
" style="fill: none; stroke: #000000; stroke-width: 0.8; stroke-linejoin: miter; stroke-linecap: square"/>
   </g>
   <g id="patch_4">
    <path d="M 57.6 6.912 
L 360.8064 6.912 
" style="fill: none; stroke: #000000; stroke-width: 0.8; stroke-linejoin: miter; stroke-linecap: square"/>
   </g>
   <g id="text_13">
    <!-- cma -->
    <g transform="translate(386.578944 296.966485)scale(0.14 -0.14)">
     <use xlink:href="#DejaVuSans-63"/>
     <use xlink:href="#DejaVuSans-6d" x="54.980469"/>
     <use xlink:href="#DejaVuSans-61" x="152.392578"/>
    </g>
   </g>
   <g id="text_14">
    <!-- parEgo -->
    <g transform="translate(386.578944 203.516245)scale(0.14 -0.14)">
     <defs>
      <path id="DejaVuSans-45" d="M 628 4666 
L 3578 4666 
L 3578 4134 
L 1259 4134 
L 1259 2753 
L 3481 2753 
L 3481 2222 
L 1259 2222 
L 1259 531 
L 3634 531 
L 3634 0 
L 628 0 
L 628 4666 
z
" transform="scale(0.015625)"/>
     </defs>
     <use xlink:href="#DejaVuSans-70"/>
     <use xlink:href="#DejaVuSans-61" x="63.476562"/>
     <use xlink:href="#DejaVuSans-72" x="124.755859"/>
     <use xlink:href="#DejaVuSans-45" x="165.869141"/>
     <use xlink:href="#DejaVuSans-67" x="229.052734"/>
     <use xlink:href="#DejaVuSans-6f" x="292.529297"/>
    </g>
   </g>
   <g id="text_15">
    <!-- external- -->
    <g transform="translate(386.578944 110.066005)scale(0.14 -0.14)">
     <defs>
      <path id="DejaVuSans-78" d="M 3513 3500 
L 2247 1797 
L 3578 0 
L 2900 0 
L 1881 1375 
L 863 0 
L 184 0 
L 1544 1831 
L 300 3500 
L 978 3500 
L 1906 2253 
L 2834 3500 
L 3513 3500 
z
" transform="scale(0.015625)"/>
     </defs>
     <use xlink:href="#DejaVuSans-65"/>
     <use xlink:href="#DejaVuSans-78" x="59.773438"/>
     <use xlink:href="#DejaVuSans-74" x="118.953125"/>
     <use xlink:href="#DejaVuSans-65" x="158.162109"/>
     <use xlink:href="#DejaVuSans-72" x="219.685547"/>
     <use xlink:href="#DejaVuSans-6e" x="259.048828"/>
     <use xlink:href="#DejaVuSans-61" x="322.427734"/>
     <use xlink:href="#DejaVuSans-6c" x="383.707031"/>
     <use xlink:href="#DejaVuSans-2d" x="411.490234"/>
    </g>
   </g>
   <g id="text_16">
    <!-- best 2016 -->
    <g transform="translate(386.578944 16.615765)scale(0.14 -0.14)">
     <defs>
      <path id="DejaVuSans-62" d="M 3116 1747 
Q 3116 2381 2855 2742 
Q 2594 3103 2138 3103 
Q 1681 3103 1420 2742 
Q 1159 2381 1159 1747 
Q 1159 1113 1420 752 
Q 1681 391 2138 391 
Q 2594 391 2855 752 
Q 3116 1113 3116 1747 
z
M 1159 2969 
Q 1341 3281 1617 3432 
Q 1894 3584 2278 3584 
Q 2916 3584 3314 3078 
Q 3713 2572 3713 1747 
Q 3713 922 3314 415 
Q 2916 -91 2278 -91 
Q 1894 -91 1617 61 
Q 1341 213 1159 525 
L 1159 0 
L 581 0 
L 581 4863 
L 1159 4863 
L 1159 2969 
z
" transform="scale(0.015625)"/>
     </defs>
     <use xlink:href="#DejaVuSans-62"/>
     <use xlink:href="#DejaVuSans-65" x="63.476562"/>
     <use xlink:href="#DejaVuSans-73" x="125"/>
     <use xlink:href="#DejaVuSans-74" x="177.099609"/>
     <use xlink:href="#DejaVuSans-20" x="216.308594"/>
     <use xlink:href="#DejaVuSans-32" x="248.095703"/>
     <use xlink:href="#DejaVuSans-30" x="311.71875"/>
     <use xlink:href="#DejaVuSans-31" x="375.341797"/>
     <use xlink:href="#DejaVuSans-36" x="438.964844"/>
    </g>
   </g>
   <g id="text_17">
    <!-- bbob-biobj f22, f23, f29, f30, 5-D -->
    <g transform="translate(60.632064 17.582726)scale(0.102 -0.102)">
     <defs>
      <path id="DejaVuSans-6a" d="M 603 3500 
L 1178 3500 
L 1178 -63 
Q 1178 -731 923 -1031 
Q 669 -1331 103 -1331 
L -116 -1331 
L -116 -844 
L 38 -844 
Q 366 -844 484 -692 
Q 603 -541 603 -63 
L 603 3500 
z
M 603 4863 
L 1178 4863 
L 1178 4134 
L 603 4134 
L 603 4863 
z
" transform="scale(0.015625)"/>
      <path id="DejaVuSans-33" d="M 2597 2516 
Q 3050 2419 3304 2112 
Q 3559 1806 3559 1356 
Q 3559 666 3084 287 
Q 2609 -91 1734 -91 
Q 1441 -91 1130 -33 
Q 819 25 488 141 
L 488 750 
Q 750 597 1062 519 
Q 1375 441 1716 441 
Q 2309 441 2620 675 
Q 2931 909 2931 1356 
Q 2931 1769 2642 2001 
Q 2353 2234 1838 2234 
L 1294 2234 
L 1294 2753 
L 1863 2753 
Q 2328 2753 2575 2939 
Q 2822 3125 2822 3475 
Q 2822 3834 2567 4026 
Q 2313 4219 1838 4219 
Q 1578 4219 1281 4162 
Q 984 4106 628 3988 
L 628 4550 
Q 988 4650 1302 4700 
Q 1616 4750 1894 4750 
Q 2613 4750 3031 4423 
Q 3450 4097 3450 3541 
Q 3450 3153 3228 2886 
Q 3006 2619 2597 2516 
z
" transform="scale(0.015625)"/>
      <path id="DejaVuSans-39" d="M 703 97 
L 703 672 
Q 941 559 1184 500 
Q 1428 441 1663 441 
Q 2288 441 2617 861 
Q 2947 1281 2994 2138 
Q 2813 1869 2534 1725 
Q 2256 1581 1919 1581 
Q 1219 1581 811 2004 
Q 403 2428 403 3163 
Q 403 3881 828 4315 
Q 1253 4750 1959 4750 
Q 2769 4750 3195 4129 
Q 3622 3509 3622 2328 
Q 3622 1225 3098 567 
Q 2575 -91 1691 -91 
Q 1453 -91 1209 -44 
Q 966 3 703 97 
z
M 1959 2075 
Q 2384 2075 2632 2365 
Q 2881 2656 2881 3163 
Q 2881 3666 2632 3958 
Q 2384 4250 1959 4250 
Q 1534 4250 1286 3958 
Q 1038 3666 1038 3163 
Q 1038 2656 1286 2365 
Q 1534 2075 1959 2075 
z
" transform="scale(0.015625)"/>
      <path id="DejaVuSans-35" d="M 691 4666 
L 3169 4666 
L 3169 4134 
L 1269 4134 
L 1269 2991 
Q 1406 3038 1543 3061 
Q 1681 3084 1819 3084 
Q 2600 3084 3056 2656 
Q 3513 2228 3513 1497 
Q 3513 744 3044 326 
Q 2575 -91 1722 -91 
Q 1428 -91 1123 -41 
Q 819 9 494 109 
L 494 744 
Q 775 591 1075 516 
Q 1375 441 1709 441 
Q 2250 441 2565 725 
Q 2881 1009 2881 1497 
Q 2881 1984 2565 2268 
Q 2250 2553 1709 2553 
Q 1456 2553 1204 2497 
Q 953 2441 691 2322 
L 691 4666 
z
" transform="scale(0.015625)"/>
      <path id="DejaVuSans-44" d="M 1259 4147 
L 1259 519 
L 2022 519 
Q 2988 519 3436 956 
Q 3884 1394 3884 2338 
Q 3884 3275 3436 3711 
Q 2988 4147 2022 4147 
L 1259 4147 
z
M 628 4666 
L 1925 4666 
Q 3281 4666 3915 4102 
Q 4550 3538 4550 2338 
Q 4550 1131 3912 565 
Q 3275 0 1925 0 
L 628 0 
L 628 4666 
z
" transform="scale(0.015625)"/>
     </defs>
     <use xlink:href="#DejaVuSans-62"/>
     <use xlink:href="#DejaVuSans-62" x="63.476562"/>
     <use xlink:href="#DejaVuSans-6f" x="126.953125"/>
     <use xlink:href="#DejaVuSans-62" x="188.134766"/>
     <use xlink:href="#DejaVuSans-2d" x="251.611328"/>
     <use xlink:href="#DejaVuSans-62" x="287.695312"/>
     <use xlink:href="#DejaVuSans-69" x="351.171875"/>
     <use xlink:href="#DejaVuSans-6f" x="378.955078"/>
     <use xlink:href="#DejaVuSans-62" x="440.136719"/>
     <use xlink:href="#DejaVuSans-6a" x="503.613281"/>
     <use xlink:href="#DejaVuSans-20" x="531.396484"/>
     <use xlink:href="#DejaVuSans-66" x="563.183594"/>
     <use xlink:href="#DejaVuSans-32" x="598.388672"/>
     <use xlink:href="#DejaVuSans-32" x="662.011719"/>
     <use xlink:href="#DejaVuSans-2c" x="725.634766"/>
     <use xlink:href="#DejaVuSans-20" x="757.421875"/>
     <use xlink:href="#DejaVuSans-66" x="789.208984"/>
     <use xlink:href="#DejaVuSans-32" x="824.414062"/>
     <use xlink:href="#DejaVuSans-33" x="888.037109"/>
     <use xlink:href="#DejaVuSans-2c" x="951.660156"/>
     <use xlink:href="#DejaVuSans-20" x="983.447266"/>
     <use xlink:href="#DejaVuSans-66" x="1015.234375"/>
     <use xlink:href="#DejaVuSans-32" x="1050.439453"/>
     <use xlink:href="#DejaVuSans-39" x="1114.0625"/>
     <use xlink:href="#DejaVuSans-2c" x="1177.685547"/>
     <use xlink:href="#DejaVuSans-20" x="1209.472656"/>
     <use xlink:href="#DejaVuSans-66" x="1241.259766"/>
     <use xlink:href="#DejaVuSans-33" x="1276.464844"/>
     <use xlink:href="#DejaVuSans-30" x="1340.087891"/>
     <use xlink:href="#DejaVuSans-2c" x="1403.710938"/>
     <use xlink:href="#DejaVuSans-20" x="1435.498047"/>
     <use xlink:href="#DejaVuSans-35" x="1467.285156"/>
     <use xlink:href="#DejaVuSans-2d" x="1530.908203"/>
     <use xlink:href="#DejaVuSans-44" x="1566.992188"/>
    </g>
    <!-- 58 targets: 1..-1.0e-4 -->
    <g transform="translate(60.632064 29.004495)scale(0.102 -0.102)">
     <defs>
      <path id="DejaVuSans-3a" d="M 750 794 
L 1409 794 
L 1409 0 
L 750 0 
L 750 794 
z
M 750 3309 
L 1409 3309 
L 1409 2516 
L 750 2516 
L 750 3309 
z
" transform="scale(0.015625)"/>
     </defs>
     <use xlink:href="#DejaVuSans-35"/>
     <use xlink:href="#DejaVuSans-38" x="63.623047"/>
     <use xlink:href="#DejaVuSans-20" x="127.246094"/>
     <use xlink:href="#DejaVuSans-74" x="159.033203"/>
     <use xlink:href="#DejaVuSans-61" x="198.242188"/>
     <use xlink:href="#DejaVuSans-72" x="259.521484"/>
     <use xlink:href="#DejaVuSans-67" x="298.884766"/>
     <use xlink:href="#DejaVuSans-65" x="362.361328"/>
     <use xlink:href="#DejaVuSans-74" x="423.884766"/>
     <use xlink:href="#DejaVuSans-73" x="463.09375"/>
     <use xlink:href="#DejaVuSans-3a" x="515.193359"/>
     <use xlink:href="#DejaVuSans-20" x="548.884766"/>
     <use xlink:href="#DejaVuSans-31" x="580.671875"/>
     <use xlink:href="#DejaVuSans-2e" x="644.294922"/>
     <use xlink:href="#DejaVuSans-2e" x="676.082031"/>
     <use xlink:href="#DejaVuSans-2d" x="707.869141"/>
     <use xlink:href="#DejaVuSans-31" x="743.953125"/>
     <use xlink:href="#DejaVuSans-2e" x="807.576172"/>
     <use xlink:href="#DejaVuSans-30" x="839.363281"/>
     <use xlink:href="#DejaVuSans-65" x="902.986328"/>
     <use xlink:href="#DejaVuSans-2d" x="964.509766"/>
     <use xlink:href="#DejaVuSans-34" x="1000.59375"/>
    </g>
    <!-- 10 instances -->
    <g transform="translate(60.632064 40.426264)scale(0.102 -0.102)">
     <use xlink:href="#DejaVuSans-31"/>
     <use xlink:href="#DejaVuSans-30" x="63.623047"/>
     <use xlink:href="#DejaVuSans-20" x="127.246094"/>
     <use xlink:href="#DejaVuSans-69" x="159.033203"/>
     <use xlink:href="#DejaVuSans-6e" x="186.816406"/>
     <use xlink:href="#DejaVuSans-73" x="250.195312"/>
     <use xlink:href="#DejaVuSans-74" x="302.294922"/>
     <use xlink:href="#DejaVuSans-61" x="341.503906"/>
     <use xlink:href="#DejaVuSans-6e" x="402.783203"/>
     <use xlink:href="#DejaVuSans-63" x="466.162109"/>
     <use xlink:href="#DejaVuSans-65" x="521.142578"/>
     <use xlink:href="#DejaVuSans-73" x="582.666016"/>
    </g>
   </g>
   <g id="text_18">
    <!-- v2.6, hv-hash=ff0e71e8cd978373 -->
    <g style="fill: #808080" transform="translate(123.707887 293.943992)scale(0.1 -0.1)">
     <defs>
      <path id="DejaVuSans-68" d="M 3513 2113 
L 3513 0 
L 2938 0 
L 2938 2094 
Q 2938 2591 2744 2837 
Q 2550 3084 2163 3084 
Q 1697 3084 1428 2787 
Q 1159 2491 1159 1978 
L 1159 0 
L 581 0 
L 581 4863 
L 1159 4863 
L 1159 2956 
Q 1366 3272 1645 3428 
Q 1925 3584 2291 3584 
Q 2894 3584 3203 3211 
Q 3513 2838 3513 2113 
z
" transform="scale(0.015625)"/>
      <path id="DejaVuSans-3d" d="M 678 2906 
L 4684 2906 
L 4684 2381 
L 678 2381 
L 678 2906 
z
M 678 1631 
L 4684 1631 
L 4684 1100 
L 678 1100 
L 678 1631 
z
" transform="scale(0.015625)"/>
      <path id="DejaVuSans-37" d="M 525 4666 
L 3525 4666 
L 3525 4397 
L 1831 0 
L 1172 0 
L 2766 4134 
L 525 4134 
L 525 4666 
z
" transform="scale(0.015625)"/>
     </defs>
     <use xlink:href="#DejaVuSans-76"/>
     <use xlink:href="#DejaVuSans-32" x="59.179688"/>
     <use xlink:href="#DejaVuSans-2e" x="122.802734"/>
     <use xlink:href="#DejaVuSans-36" x="154.589844"/>
     <use xlink:href="#DejaVuSans-2c" x="218.212891"/>
     <use xlink:href="#DejaVuSans-20" x="250"/>
     <use xlink:href="#DejaVuSans-68" x="281.787109"/>
     <use xlink:href="#DejaVuSans-76" x="345.166016"/>
     <use xlink:href="#DejaVuSans-2d" x="401.720703"/>
     <use xlink:href="#DejaVuSans-68" x="437.804688"/>
     <use xlink:href="#DejaVuSans-61" x="501.183594"/>
     <use xlink:href="#DejaVuSans-73" x="562.462891"/>
     <use xlink:href="#DejaVuSans-68" x="614.5625"/>
     <use xlink:href="#DejaVuSans-3d" x="677.941406"/>
     <use xlink:href="#DejaVuSans-66" x="761.730469"/>
     <use xlink:href="#DejaVuSans-66" x="796.935547"/>
     <use xlink:href="#DejaVuSans-30" x="832.140625"/>
     <use xlink:href="#DejaVuSans-65" x="895.763672"/>
     <use xlink:href="#DejaVuSans-37" x="957.287109"/>
     <use xlink:href="#DejaVuSans-31" x="1020.910156"/>
     <use xlink:href="#DejaVuSans-65" x="1084.533203"/>
     <use xlink:href="#DejaVuSans-38" x="1146.056641"/>
     <use xlink:href="#DejaVuSans-63" x="1209.679688"/>
     <use xlink:href="#DejaVuSans-64" x="1264.660156"/>
     <use xlink:href="#DejaVuSans-39" x="1328.136719"/>
     <use xlink:href="#DejaVuSans-37" x="1391.759766"/>
     <use xlink:href="#DejaVuSans-38" x="1455.382812"/>
     <use xlink:href="#DejaVuSans-33" x="1519.005859"/>
     <use xlink:href="#DejaVuSans-37" x="1582.628906"/>
     <use xlink:href="#DejaVuSans-33" x="1646.251953"/>
    </g>
   </g>
  </g>
 </g>
 <defs>
  <clipPath id="p84ed5c8d37">
   <rect x="57.6" y="6.912" width="303.2064" height="292.032"/>
  </clipPath>
 </defs>
</svg>
