<?xml version="1.0" encoding="utf-8" standalone="no"?>
<!DOCTYPE svg PUBLIC "-//W3C//DTD SVG 1.1//EN"
  "http://www.w3.org/Graphics/SVG/1.1/DTD/svg11.dtd">
<svg xmlns:xlink="http://www.w3.org/1999/xlink" width="460.8pt" height="345.6pt" viewBox="0 0 460.8 345.6" xmlns="http://www.w3.org/2000/svg" version="1.1">
 <metadata>
  <rdf:RDF xmlns:dc="http://purl.org/dc/elements/1.1/" xmlns:cc="http://creativecommons.org/ns#" xmlns:rdf="http://www.w3.org/1999/02/22-rdf-syntax-ns#">
   <cc:Work>
    <dc:type rdf:resource="http://purl.org/dc/dcmitype/StillImage"/>
    <dc:date>2022-06-19T21:03:06.585437</dc:date>
    <dc:format>image/svg+xml</dc:format>
    <dc:creator>
     <cc:Agent>
      <dc:title>Matplotlib v3.5.1, https://matplotlib.org/</dc:title>
     </cc:Agent>
    </dc:creator>
   </cc:Work>
  </rdf:RDF>
 </metadata>
 <defs>
  <style type="text/css">*{stroke-linejoin: round; stroke-linecap: butt}</style>
 </defs>
 <g id="figure_1">
  <g id="patch_1">
   <path d="M 0 345.6 
L 460.8 345.6 
L 460.8 0 
L 0 0 
z
" style="fill: #ffffff"/>
  </g>
  <g id="axes_1">
   <g id="patch_2">
    <path d="M 57.6 298.944 
L 360.8064 298.944 
L 360.8064 6.912 
L 57.6 6.912 
z
" style="fill: #ffffff"/>
   </g>
   <g id="line2d_1">
    <path d="M 63.011746 298.944 
L 63.011746 297.685241 
L 70.639174 297.685241 
L 70.639174 293.908966 
L 73.538988 293.908966 
L 73.538988 292.650207 
L 83.678349 292.650207 
L 83.678349 290.13269 
L 86.578163 290.13269 
L 86.578163 286.356414 
L 89.090095 286.356414 
L 89.090095 283.838897 
L 95.080704 283.838897 
L 95.080704 281.321379 
L 95.916911 281.321379 
L 95.916911 278.803862 
L 99.617337 278.803862 
L 99.617337 276.286345 
L 102.12927 276.286345 
L 102.12927 273.768828 
L 102.708132 273.768828 
L 102.708132 272.510069 
L 106.326946 272.510069 
L 106.326946 271.25131 
L 109.360651 271.25131 
L 109.360651 267.475034 
L 111.262425 267.475034 
L 111.262425 266.216276 
L 112.317555 266.216276 
L 112.317555 262.44 
L 113.638206 262.44 
L 113.638206 258.663724 
L 116.308887 258.663724 
L 116.308887 256.146207 
L 118.889854 256.146207 
L 118.889854 253.62869 
L 120.28394 253.62869 
L 120.28394 252.369931 
L 120.726585 252.369931 
L 120.726585 251.111172 
L 121.371615 251.111172 
L 121.371615 249.852414 
L 124.481616 249.852414 
L 124.481616 247.334897 
L 128.207619 247.334897 
L 128.207619 244.817379 
L 129.069367 244.817379 
L 129.069367 241.041103 
L 135.034434 241.041103 
L 135.034434 237.264828 
L 138.566146 237.264828 
L 138.566146 234.74731 
L 138.902075 234.74731 
L 138.902075 232.229793 
L 139.475893 232.229793 
L 139.475893 229.712276 
L 140.649551 229.712276 
L 140.649551 225.936 
L 143.592659 225.936 
L 143.592659 223.418483 
L 147.022411 223.418483 
L 147.022411 220.900966 
L 148.478174 220.900966 
L 148.478174 218.383448 
L 150.198193 218.383448 
L 150.198193 217.12469 
L 152.1482 217.12469 
L 152.1482 215.865931 
L 153.305585 215.865931 
L 153.305585 214.607172 
L 157.946987 214.607172 
L 157.946987 210.830897 
L 158.365703 210.830897 
L 158.365703 208.313379 
L 159.706897 208.313379 
L 159.706897 205.795862 
L 163.305732 205.795862 
L 163.305732 203.278345 
L 166.364103 203.278345 
L 166.364103 202.019586 
L 169.671008 202.019586 
L 169.671008 198.24331 
L 172.1586 198.24331 
L 172.1586 195.725793 
L 173.127768 195.725793 
L 173.127768 194.467034 
L 173.422332 194.467034 
L 173.422332 191.949517 
L 176.559769 191.949517 
L 176.559769 188.173241 
L 179.130641 188.173241 
L 179.130641 184.396966 
L 180.428504 184.396966 
L 180.474219 179.361931 
L 182.415991 179.361931 
L 182.415991 176.844414 
L 183.237868 176.844414 
L 183.237868 174.326897 
L 185.00498 174.326897 
L 185.00498 170.550621 
L 188.367624 170.550621 
L 188.367624 168.033103 
L 190.207426 168.033103 
L 190.207426 165.515586 
L 192.243232 165.515586 
L 192.243232 164.256828 
L 194.561216 164.256828 
L 194.561216 160.480552 
L 195.35193 160.480552 
L 195.35193 157.963034 
L 197.787621 157.963034 
L 197.787621 156.704276 
L 198.367917 156.704276 
L 198.367917 155.445517 
L 200.35767 155.445517 
L 200.35767 152.928 
L 202.457345 152.928 
L 202.457345 149.151724 
L 204.392166 149.151724 
L 204.392166 145.375448 
L 207.791591 145.375448 
L 207.791591 142.857931 
L 207.995673 142.857931 
L 207.995673 141.599172 
L 209.086176 141.599172 
L 209.086176 140.340414 
L 211.371784 140.340414 
L 211.371784 139.081655 
L 212.448299 139.081655 
L 212.448299 136.564138 
L 215.737633 136.564138 
L 215.797781 129.011586 
L 218.751384 129.011586 
L 218.751384 127.752828 
L 221.292091 127.752828 
L 221.292091 123.976552 
L 221.534544 123.976552 
L 221.534544 122.717793 
L 222.744559 122.717793 
L 222.744559 120.200276 
L 229.036991 120.200276 
L 229.036991 117.682759 
L 230.52996 117.682759 
L 230.52996 113.906483 
L 232.487113 113.906483 
L 232.487113 110.130207 
L 233.732644 110.130207 
L 233.732644 108.871448 
L 235.90977 108.871448 
L 235.90977 105.095172 
L 236.416374 105.095172 
L 236.416374 103.836414 
L 238.840653 103.836414 
L 238.840653 100.060138 
L 240.606675 100.060138 
L 240.606675 98.801379 
L 241.71378 98.801379 
L 241.71378 96.283862 
L 243.079722 96.283862 
L 243.079722 93.766345 
L 244.603982 93.766345 
L 244.603982 91.248828 
L 248.993241 91.248828 
L 248.993241 88.73131 
L 249.666018 88.73131 
L 249.666018 84.955034 
L 251.522176 84.955034 
L 251.522176 82.437517 
L 252.262994 82.437517 
L 252.262994 81.178759 
L 254.3502 81.178759 
L 254.3502 79.92 
L 255.686246 79.92 
L 255.686246 76.143724 
L 259.476734 76.143724 
L 259.476734 74.884966 
L 260.950043 74.884966 
L 260.950043 71.10869 
L 261.220039 71.10869 
L 261.220039 68.591172 
L 261.689585 68.591172 
L 261.689585 66.073655 
L 262.334899 66.073655 
L 262.334899 63.556138 
L 262.919837 63.556138 
L 262.919837 62.297379 
L 264.364314 62.297379 
L 264.364314 59.779862 
L 265.175919 59.779862 
L 265.175919 56.003586 
L 267.648072 56.003586 
L 267.648072 53.486069 
L 271.017725 53.486069 
L 271.065798 48.451034 
L 275.668873 48.451034 
L 275.668873 45.933517 
L 278.441177 45.933517 
L 278.441177 42.157241 
L 360.8064 42.157241 
L 360.8064 42.157241 
" style="fill: none; stroke: #f5deb3; stroke-width: 4; stroke-linecap: square"/>
   </g>
   <g id="line2d_2">
    <defs>
     <path id="m0734087f6e" d="M 0 7.778175 
L 7.778175 0 
L 0 -7.778175 
L -7.778175 0 
z
" style="stroke: #f5deb3; stroke-width: 1.5; stroke-linejoin: miter"/>
    </defs>
    <g>
     <use xlink:href="#m0734087f6e" x="112.317555" y="266.216276" style="fill: #f5deb3; stroke: #f5deb3; stroke-width: 1.5; stroke-linejoin: miter"/>
     <use xlink:href="#m0734087f6e" x="182.415991" y="179.361931" style="fill: #f5deb3; stroke: #f5deb3; stroke-width: 1.5; stroke-linejoin: miter"/>
     <use xlink:href="#m0734087f6e" x="243.079722" y="93.766345" style="fill: #f5deb3; stroke: #f5deb3; stroke-width: 1.5; stroke-linejoin: miter"/>
     <use xlink:href="#m0734087f6e" x="278.441177" y="42.157241" style="fill: #f5deb3; stroke: #f5deb3; stroke-width: 1.5; stroke-linejoin: miter"/>
     <use xlink:href="#m0734087f6e" x="360.8064" y="42.157241" style="fill: #f5deb3; stroke: #f5deb3; stroke-width: 1.5; stroke-linejoin: miter"/>
    </g>
   </g>
   <g id="line2d_3">
    <path style="fill: none; stroke: #f5deb3; stroke-width: 4; stroke-linecap: square"/>
    <g/>
   </g>
   <g id="line2d_4">
    <path d="M 360.8064 42.157241 
L 380.514816 12.75264 
" style="fill: none; stroke: #f5deb3; stroke-width: 4; stroke-linecap: square"/>
    <g>
     <use xlink:href="#m0734087f6e" x="360.8064" y="42.157241" style="fill: #f5deb3; stroke: #f5deb3; stroke-width: 1.5; stroke-linejoin: miter"/>
     <use xlink:href="#m0734087f6e" x="380.514816" y="12.75264" style="fill: #f5deb3; stroke: #f5deb3; stroke-width: 1.5; stroke-linejoin: miter"/>
    </g>
   </g>
   <g id="matplotlib.axis_1">
    <g id="xtick_1">
     <g id="line2d_5">
      <path d="M 57.6 298.944 
L 57.6 6.912 
" clip-path="url(#pedff4747cb)" style="fill: none; stroke: #b0b0b0; stroke-width: 0.8; stroke-linecap: square"/>
     </g>
     <g id="line2d_6">
      <defs>
       <path id="me2b5fe83b5" d="M 0 0 
L 0 3.5 
" style="stroke: #000000; stroke-width: 0.8"/>
      </defs>
      <g>
       <use xlink:href="#me2b5fe83b5" x="57.6" y="298.944" style="stroke: #000000; stroke-width: 0.8"/>
      </g>
     </g>
     <g id="text_1">
      <!-- 0 -->
      <g transform="translate(52.191875 318.861344)scale(0.17 -0.17)">
       <defs>
        <path id="DejaVuSans-30" d="M 2034 4250 
Q 1547 4250 1301 3770 
Q 1056 3291 1056 2328 
Q 1056 1369 1301 889 
Q 1547 409 2034 409 
Q 2525 409 2770 889 
Q 3016 1369 3016 2328 
Q 3016 3291 2770 3770 
Q 2525 4250 2034 4250 
z
M 2034 4750 
Q 2819 4750 3233 4129 
Q 3647 3509 3647 2328 
Q 3647 1150 3233 529 
Q 2819 -91 2034 -91 
Q 1250 -91 836 529 
Q 422 1150 422 2328 
Q 422 3509 836 4129 
Q 1250 4750 2034 4750 
z
" transform="scale(0.015625)"/>
       </defs>
       <use xlink:href="#DejaVuSans-30"/>
      </g>
     </g>
    </g>
    <g id="xtick_2">
     <g id="line2d_7">
      <path d="M 144.2304 298.944 
L 144.2304 6.912 
" clip-path="url(#pedff4747cb)" style="fill: none; stroke: #b0b0b0; stroke-width: 0.8; stroke-linecap: square"/>
     </g>
     <g id="line2d_8">
      <g>
       <use xlink:href="#me2b5fe83b5" x="144.2304" y="298.944" style="stroke: #000000; stroke-width: 0.8"/>
      </g>
     </g>
     <g id="text_2">
      <!-- 2 -->
      <g transform="translate(138.822275 318.861344)scale(0.17 -0.17)">
       <defs>
        <path id="DejaVuSans-32" d="M 1228 531 
L 3431 531 
L 3431 0 
L 469 0 
L 469 531 
Q 828 903 1448 1529 
Q 2069 2156 2228 2338 
Q 2531 2678 2651 2914 
Q 2772 3150 2772 3378 
Q 2772 3750 2511 3984 
Q 2250 4219 1831 4219 
Q 1534 4219 1204 4116 
Q 875 4013 500 3803 
L 500 4441 
Q 881 4594 1212 4672 
Q 1544 4750 1819 4750 
Q 2544 4750 2975 4387 
Q 3406 4025 3406 3419 
Q 3406 3131 3298 2873 
Q 3191 2616 2906 2266 
Q 2828 2175 2409 1742 
Q 1991 1309 1228 531 
z
" transform="scale(0.015625)"/>
       </defs>
       <use xlink:href="#DejaVuSans-32"/>
      </g>
     </g>
    </g>
    <g id="xtick_3">
     <g id="line2d_9">
      <path d="M 230.8608 298.944 
L 230.8608 6.912 
" clip-path="url(#pedff4747cb)" style="fill: none; stroke: #b0b0b0; stroke-width: 0.8; stroke-linecap: square"/>
     </g>
     <g id="line2d_10">
      <g>
       <use xlink:href="#me2b5fe83b5" x="230.8608" y="298.944" style="stroke: #000000; stroke-width: 0.8"/>
      </g>
     </g>
     <g id="text_3">
      <!-- 4 -->
      <g transform="translate(225.452675 318.861344)scale(0.17 -0.17)">
       <defs>
        <path id="DejaVuSans-34" d="M 2419 4116 
L 825 1625 
L 2419 1625 
L 2419 4116 
z
M 2253 4666 
L 3047 4666 
L 3047 1625 
L 3713 1625 
L 3713 1100 
L 3047 1100 
L 3047 0 
L 2419 0 
L 2419 1100 
L 313 1100 
L 313 1709 
L 2253 4666 
z
" transform="scale(0.015625)"/>
       </defs>
       <use xlink:href="#DejaVuSans-34"/>
      </g>
     </g>
    </g>
    <g id="xtick_4">
     <g id="line2d_11">
      <path d="M 317.4912 298.944 
L 317.4912 6.912 
" clip-path="url(#pedff4747cb)" style="fill: none; stroke: #b0b0b0; stroke-width: 0.8; stroke-linecap: square"/>
     </g>
     <g id="line2d_12">
      <g>
       <use xlink:href="#me2b5fe83b5" x="317.4912" y="298.944" style="stroke: #000000; stroke-width: 0.8"/>
      </g>
     </g>
     <g id="text_4">
      <!-- 6 -->
      <g transform="translate(312.083075 318.861344)scale(0.17 -0.17)">
       <defs>
        <path id="DejaVuSans-36" d="M 2113 2584 
Q 1688 2584 1439 2293 
Q 1191 2003 1191 1497 
Q 1191 994 1439 701 
Q 1688 409 2113 409 
Q 2538 409 2786 701 
Q 3034 994 3034 1497 
Q 3034 2003 2786 2293 
Q 2538 2584 2113 2584 
z
M 3366 4563 
L 3366 3988 
Q 3128 4100 2886 4159 
Q 2644 4219 2406 4219 
Q 1781 4219 1451 3797 
Q 1122 3375 1075 2522 
Q 1259 2794 1537 2939 
Q 1816 3084 2150 3084 
Q 2853 3084 3261 2657 
Q 3669 2231 3669 1497 
Q 3669 778 3244 343 
Q 2819 -91 2113 -91 
Q 1303 -91 875 529 
Q 447 1150 447 2328 
Q 447 3434 972 4092 
Q 1497 4750 2381 4750 
Q 2619 4750 2861 4703 
Q 3103 4656 3366 4563 
z
" transform="scale(0.015625)"/>
       </defs>
       <use xlink:href="#DejaVuSans-36"/>
      </g>
     </g>
    </g>
    <g id="xtick_5">
     <g id="line2d_13">
      <path d="M 100.9152 298.944 
L 100.9152 6.912 
" clip-path="url(#pedff4747cb)" style="fill: none; stroke: #b0b0b0; stroke-width: 0.8; stroke-linecap: square"/>
     </g>
     <g id="line2d_14">
      <defs>
       <path id="m4903cc0def" d="M 0 0 
L 0 2 
" style="stroke: #000000; stroke-width: 0.6"/>
      </defs>
      <g>
       <use xlink:href="#m4903cc0def" x="100.9152" y="298.944" style="stroke: #000000; stroke-width: 0.6"/>
      </g>
     </g>
    </g>
    <g id="xtick_6">
     <g id="line2d_15">
      <path d="M 187.5456 298.944 
L 187.5456 6.912 
" clip-path="url(#pedff4747cb)" style="fill: none; stroke: #b0b0b0; stroke-width: 0.8; stroke-linecap: square"/>
     </g>
     <g id="line2d_16">
      <g>
       <use xlink:href="#m4903cc0def" x="187.5456" y="298.944" style="stroke: #000000; stroke-width: 0.6"/>
      </g>
     </g>
    </g>
    <g id="xtick_7">
     <g id="line2d_17">
      <path d="M 274.176 298.944 
L 274.176 6.912 
" clip-path="url(#pedff4747cb)" style="fill: none; stroke: #b0b0b0; stroke-width: 0.8; stroke-linecap: square"/>
     </g>
     <g id="line2d_18">
      <g>
       <use xlink:href="#m4903cc0def" x="274.176" y="298.944" style="stroke: #000000; stroke-width: 0.6"/>
      </g>
     </g>
    </g>
    <g id="xtick_8">
     <g id="line2d_19">
      <path d="M 360.8064 298.944 
L 360.8064 6.912 
" clip-path="url(#pedff4747cb)" style="fill: none; stroke: #b0b0b0; stroke-width: 0.8; stroke-linecap: square"/>
     </g>
     <g id="line2d_20">
      <g>
       <use xlink:href="#m4903cc0def" x="360.8064" y="298.944" style="stroke: #000000; stroke-width: 0.6"/>
      </g>
     </g>
    </g>
    <g id="text_5">
     <!-- log10(# f-evals / dimension) -->
     <g transform="translate(88.823278 339.314156)scale(0.17 -0.17)">
      <defs>
       <path id="DejaVuSans-6c" d="M 603 4863 
L 1178 4863 
L 1178 0 
L 603 0 
L 603 4863 
z
" transform="scale(0.015625)"/>
       <path id="DejaVuSans-6f" d="M 1959 3097 
Q 1497 3097 1228 2736 
Q 959 2375 959 1747 
Q 959 1119 1226 758 
Q 1494 397 1959 397 
Q 2419 397 2687 759 
Q 2956 1122 2956 1747 
Q 2956 2369 2687 2733 
Q 2419 3097 1959 3097 
z
M 1959 3584 
Q 2709 3584 3137 3096 
Q 3566 2609 3566 1747 
Q 3566 888 3137 398 
Q 2709 -91 1959 -91 
Q 1206 -91 779 398 
Q 353 888 353 1747 
Q 353 2609 779 3096 
Q 1206 3584 1959 3584 
z
" transform="scale(0.015625)"/>
       <path id="DejaVuSans-67" d="M 2906 1791 
Q 2906 2416 2648 2759 
Q 2391 3103 1925 3103 
Q 1463 3103 1205 2759 
Q 947 2416 947 1791 
Q 947 1169 1205 825 
Q 1463 481 1925 481 
Q 2391 481 2648 825 
Q 2906 1169 2906 1791 
z
M 3481 434 
Q 3481 -459 3084 -895 
Q 2688 -1331 1869 -1331 
Q 1566 -1331 1297 -1286 
Q 1028 -1241 775 -1147 
L 775 -588 
Q 1028 -725 1275 -790 
Q 1522 -856 1778 -856 
Q 2344 -856 2625 -561 
Q 2906 -266 2906 331 
L 2906 616 
Q 2728 306 2450 153 
Q 2172 0 1784 0 
Q 1141 0 747 490 
Q 353 981 353 1791 
Q 353 2603 747 3093 
Q 1141 3584 1784 3584 
Q 2172 3584 2450 3431 
Q 2728 3278 2906 2969 
L 2906 3500 
L 3481 3500 
L 3481 434 
z
" transform="scale(0.015625)"/>
       <path id="DejaVuSans-31" d="M 794 531 
L 1825 531 
L 1825 4091 
L 703 3866 
L 703 4441 
L 1819 4666 
L 2450 4666 
L 2450 531 
L 3481 531 
L 3481 0 
L 794 0 
L 794 531 
z
" transform="scale(0.015625)"/>
       <path id="DejaVuSans-28" d="M 1984 4856 
Q 1566 4138 1362 3434 
Q 1159 2731 1159 2009 
Q 1159 1288 1364 580 
Q 1569 -128 1984 -844 
L 1484 -844 
Q 1016 -109 783 600 
Q 550 1309 550 2009 
Q 550 2706 781 3412 
Q 1013 4119 1484 4856 
L 1984 4856 
z
" transform="scale(0.015625)"/>
       <path id="DejaVuSans-23" d="M 3272 2816 
L 2363 2816 
L 2100 1772 
L 3016 1772 
L 3272 2816 
z
M 2803 4594 
L 2478 3297 
L 3391 3297 
L 3719 4594 
L 4219 4594 
L 3897 3297 
L 4872 3297 
L 4872 2816 
L 3775 2816 
L 3519 1772 
L 4513 1772 
L 4513 1294 
L 3397 1294 
L 3072 0 
L 2572 0 
L 2894 1294 
L 1978 1294 
L 1656 0 
L 1153 0 
L 1478 1294 
L 494 1294 
L 494 1772 
L 1594 1772 
L 1856 2816 
L 850 2816 
L 850 3297 
L 1978 3297 
L 2297 4594 
L 2803 4594 
z
" transform="scale(0.015625)"/>
       <path id="DejaVuSans-20" transform="scale(0.015625)"/>
       <path id="DejaVuSans-66" d="M 2375 4863 
L 2375 4384 
L 1825 4384 
Q 1516 4384 1395 4259 
Q 1275 4134 1275 3809 
L 1275 3500 
L 2222 3500 
L 2222 3053 
L 1275 3053 
L 1275 0 
L 697 0 
L 697 3053 
L 147 3053 
L 147 3500 
L 697 3500 
L 697 3744 
Q 697 4328 969 4595 
Q 1241 4863 1831 4863 
L 2375 4863 
z
" transform="scale(0.015625)"/>
       <path id="DejaVuSans-2d" d="M 313 2009 
L 1997 2009 
L 1997 1497 
L 313 1497 
L 313 2009 
z
" transform="scale(0.015625)"/>
       <path id="DejaVuSans-65" d="M 3597 1894 
L 3597 1613 
L 953 1613 
Q 991 1019 1311 708 
Q 1631 397 2203 397 
Q 2534 397 2845 478 
Q 3156 559 3463 722 
L 3463 178 
Q 3153 47 2828 -22 
Q 2503 -91 2169 -91 
Q 1331 -91 842 396 
Q 353 884 353 1716 
Q 353 2575 817 3079 
Q 1281 3584 2069 3584 
Q 2775 3584 3186 3129 
Q 3597 2675 3597 1894 
z
M 3022 2063 
Q 3016 2534 2758 2815 
Q 2500 3097 2075 3097 
Q 1594 3097 1305 2825 
Q 1016 2553 972 2059 
L 3022 2063 
z
" transform="scale(0.015625)"/>
       <path id="DejaVuSans-76" d="M 191 3500 
L 800 3500 
L 1894 563 
L 2988 3500 
L 3597 3500 
L 2284 0 
L 1503 0 
L 191 3500 
z
" transform="scale(0.015625)"/>
       <path id="DejaVuSans-61" d="M 2194 1759 
Q 1497 1759 1228 1600 
Q 959 1441 959 1056 
Q 959 750 1161 570 
Q 1363 391 1709 391 
Q 2188 391 2477 730 
Q 2766 1069 2766 1631 
L 2766 1759 
L 2194 1759 
z
M 3341 1997 
L 3341 0 
L 2766 0 
L 2766 531 
Q 2569 213 2275 61 
Q 1981 -91 1556 -91 
Q 1019 -91 701 211 
Q 384 513 384 1019 
Q 384 1609 779 1909 
Q 1175 2209 1959 2209 
L 2766 2209 
L 2766 2266 
Q 2766 2663 2505 2880 
Q 2244 3097 1772 3097 
Q 1472 3097 1187 3025 
Q 903 2953 641 2809 
L 641 3341 
Q 956 3463 1253 3523 
Q 1550 3584 1831 3584 
Q 2591 3584 2966 3190 
Q 3341 2797 3341 1997 
z
" transform="scale(0.015625)"/>
       <path id="DejaVuSans-73" d="M 2834 3397 
L 2834 2853 
Q 2591 2978 2328 3040 
Q 2066 3103 1784 3103 
Q 1356 3103 1142 2972 
Q 928 2841 928 2578 
Q 928 2378 1081 2264 
Q 1234 2150 1697 2047 
L 1894 2003 
Q 2506 1872 2764 1633 
Q 3022 1394 3022 966 
Q 3022 478 2636 193 
Q 2250 -91 1575 -91 
Q 1294 -91 989 -36 
Q 684 19 347 128 
L 347 722 
Q 666 556 975 473 
Q 1284 391 1588 391 
Q 1994 391 2212 530 
Q 2431 669 2431 922 
Q 2431 1156 2273 1281 
Q 2116 1406 1581 1522 
L 1381 1569 
Q 847 1681 609 1914 
Q 372 2147 372 2553 
Q 372 3047 722 3315 
Q 1072 3584 1716 3584 
Q 2034 3584 2315 3537 
Q 2597 3491 2834 3397 
z
" transform="scale(0.015625)"/>
       <path id="DejaVuSans-2f" d="M 1625 4666 
L 2156 4666 
L 531 -594 
L 0 -594 
L 1625 4666 
z
" transform="scale(0.015625)"/>
       <path id="DejaVuSans-64" d="M 2906 2969 
L 2906 4863 
L 3481 4863 
L 3481 0 
L 2906 0 
L 2906 525 
Q 2725 213 2448 61 
Q 2172 -91 1784 -91 
Q 1150 -91 751 415 
Q 353 922 353 1747 
Q 353 2572 751 3078 
Q 1150 3584 1784 3584 
Q 2172 3584 2448 3432 
Q 2725 3281 2906 2969 
z
M 947 1747 
Q 947 1113 1208 752 
Q 1469 391 1925 391 
Q 2381 391 2643 752 
Q 2906 1113 2906 1747 
Q 2906 2381 2643 2742 
Q 2381 3103 1925 3103 
Q 1469 3103 1208 2742 
Q 947 2381 947 1747 
z
" transform="scale(0.015625)"/>
       <path id="DejaVuSans-69" d="M 603 3500 
L 1178 3500 
L 1178 0 
L 603 0 
L 603 3500 
z
M 603 4863 
L 1178 4863 
L 1178 4134 
L 603 4134 
L 603 4863 
z
" transform="scale(0.015625)"/>
       <path id="DejaVuSans-6d" d="M 3328 2828 
Q 3544 3216 3844 3400 
Q 4144 3584 4550 3584 
Q 5097 3584 5394 3201 
Q 5691 2819 5691 2113 
L 5691 0 
L 5113 0 
L 5113 2094 
Q 5113 2597 4934 2840 
Q 4756 3084 4391 3084 
Q 3944 3084 3684 2787 
Q 3425 2491 3425 1978 
L 3425 0 
L 2847 0 
L 2847 2094 
Q 2847 2600 2669 2842 
Q 2491 3084 2119 3084 
Q 1678 3084 1418 2786 
Q 1159 2488 1159 1978 
L 1159 0 
L 581 0 
L 581 3500 
L 1159 3500 
L 1159 2956 
Q 1356 3278 1631 3431 
Q 1906 3584 2284 3584 
Q 2666 3584 2933 3390 
Q 3200 3197 3328 2828 
z
" transform="scale(0.015625)"/>
       <path id="DejaVuSans-6e" d="M 3513 2113 
L 3513 0 
L 2938 0 
L 2938 2094 
Q 2938 2591 2744 2837 
Q 2550 3084 2163 3084 
Q 1697 3084 1428 2787 
Q 1159 2491 1159 1978 
L 1159 0 
L 581 0 
L 581 3500 
L 1159 3500 
L 1159 2956 
Q 1366 3272 1645 3428 
Q 1925 3584 2291 3584 
Q 2894 3584 3203 3211 
Q 3513 2838 3513 2113 
z
" transform="scale(0.015625)"/>
       <path id="DejaVuSans-29" d="M 513 4856 
L 1013 4856 
Q 1481 4119 1714 3412 
Q 1947 2706 1947 2009 
Q 1947 1309 1714 600 
Q 1481 -109 1013 -844 
L 513 -844 
Q 928 -128 1133 580 
Q 1338 1288 1338 2009 
Q 1338 2731 1133 3434 
Q 928 4138 513 4856 
z
" transform="scale(0.015625)"/>
      </defs>
      <use xlink:href="#DejaVuSans-6c"/>
      <use xlink:href="#DejaVuSans-6f" x="27.783203"/>
      <use xlink:href="#DejaVuSans-67" x="88.964844"/>
      <use xlink:href="#DejaVuSans-31" x="152.441406"/>
      <use xlink:href="#DejaVuSans-30" x="216.064453"/>
      <use xlink:href="#DejaVuSans-28" x="279.6875"/>
      <use xlink:href="#DejaVuSans-23" x="318.701172"/>
      <use xlink:href="#DejaVuSans-20" x="402.490234"/>
      <use xlink:href="#DejaVuSans-66" x="434.277344"/>
      <use xlink:href="#DejaVuSans-2d" x="463.982422"/>
      <use xlink:href="#DejaVuSans-65" x="500.066406"/>
      <use xlink:href="#DejaVuSans-76" x="561.589844"/>
      <use xlink:href="#DejaVuSans-61" x="620.769531"/>
      <use xlink:href="#DejaVuSans-6c" x="682.048828"/>
      <use xlink:href="#DejaVuSans-73" x="709.832031"/>
      <use xlink:href="#DejaVuSans-20" x="761.931641"/>
      <use xlink:href="#DejaVuSans-2f" x="793.71875"/>
      <use xlink:href="#DejaVuSans-20" x="827.410156"/>
      <use xlink:href="#DejaVuSans-64" x="859.197266"/>
      <use xlink:href="#DejaVuSans-69" x="922.673828"/>
      <use xlink:href="#DejaVuSans-6d" x="950.457031"/>
      <use xlink:href="#DejaVuSans-65" x="1047.869141"/>
      <use xlink:href="#DejaVuSans-6e" x="1109.392578"/>
      <use xlink:href="#DejaVuSans-73" x="1172.771484"/>
      <use xlink:href="#DejaVuSans-69" x="1224.871094"/>
      <use xlink:href="#DejaVuSans-6f" x="1252.654297"/>
      <use xlink:href="#DejaVuSans-6e" x="1313.835938"/>
      <use xlink:href="#DejaVuSans-29" x="1377.214844"/>
     </g>
    </g>
   </g>
   <g id="matplotlib.axis_2">
    <g id="ytick_1">
     <g id="line2d_21">
      <path d="M 57.6 298.944 
L 360.8064 298.944 
" clip-path="url(#pedff4747cb)" style="fill: none; stroke: #b0b0b0; stroke-width: 0.8; stroke-linecap: square"/>
     </g>
     <g id="line2d_22">
      <defs>
       <path id="m961a868170" d="M 0 0 
L -3.5 0 
" style="stroke: #000000; stroke-width: 0.8"/>
      </defs>
      <g>
       <use xlink:href="#m961a868170" x="57.6" y="298.944" style="stroke: #000000; stroke-width: 0.8"/>
      </g>
     </g>
     <g id="text_6">
      <!-- 0.0 -->
      <g transform="translate(25.155 305.02275)scale(0.16 -0.16)">
       <defs>
        <path id="DejaVuSans-2e" d="M 684 794 
L 1344 794 
L 1344 0 
L 684 0 
L 684 794 
z
" transform="scale(0.015625)"/>
       </defs>
       <use xlink:href="#DejaVuSans-30"/>
       <use xlink:href="#DejaVuSans-2e" x="63.623047"/>
       <use xlink:href="#DejaVuSans-30" x="95.410156"/>
      </g>
     </g>
    </g>
    <g id="ytick_2">
     <g id="line2d_23">
      <path d="M 57.6 240.5376 
L 360.8064 240.5376 
" clip-path="url(#pedff4747cb)" style="fill: none; stroke: #b0b0b0; stroke-width: 0.8; stroke-linecap: square"/>
     </g>
     <g id="line2d_24">
      <g>
       <use xlink:href="#m961a868170" x="57.6" y="240.5376" style="stroke: #000000; stroke-width: 0.8"/>
      </g>
     </g>
     <g id="text_7">
      <!-- 0.2 -->
      <g transform="translate(25.155 246.61635)scale(0.16 -0.16)">
       <use xlink:href="#DejaVuSans-30"/>
       <use xlink:href="#DejaVuSans-2e" x="63.623047"/>
       <use xlink:href="#DejaVuSans-32" x="95.410156"/>
      </g>
     </g>
    </g>
    <g id="ytick_3">
     <g id="line2d_25">
      <path d="M 57.6 182.1312 
L 360.8064 182.1312 
" clip-path="url(#pedff4747cb)" style="fill: none; stroke: #b0b0b0; stroke-width: 0.8; stroke-linecap: square"/>
     </g>
     <g id="line2d_26">
      <g>
       <use xlink:href="#m961a868170" x="57.6" y="182.1312" style="stroke: #000000; stroke-width: 0.8"/>
      </g>
     </g>
     <g id="text_8">
      <!-- 0.4 -->
      <g transform="translate(25.155 188.20995)scale(0.16 -0.16)">
       <use xlink:href="#DejaVuSans-30"/>
       <use xlink:href="#DejaVuSans-2e" x="63.623047"/>
       <use xlink:href="#DejaVuSans-34" x="95.410156"/>
      </g>
     </g>
    </g>
    <g id="ytick_4">
     <g id="line2d_27">
      <path d="M 57.6 123.7248 
L 360.8064 123.7248 
" clip-path="url(#pedff4747cb)" style="fill: none; stroke: #b0b0b0; stroke-width: 0.8; stroke-linecap: square"/>
     </g>
     <g id="line2d_28">
      <g>
       <use xlink:href="#m961a868170" x="57.6" y="123.7248" style="stroke: #000000; stroke-width: 0.8"/>
      </g>
     </g>
     <g id="text_9">
      <!-- 0.6 -->
      <g transform="translate(25.155 129.80355)scale(0.16 -0.16)">
       <use xlink:href="#DejaVuSans-30"/>
       <use xlink:href="#DejaVuSans-2e" x="63.623047"/>
       <use xlink:href="#DejaVuSans-36" x="95.410156"/>
      </g>
     </g>
    </g>
    <g id="ytick_5">
     <g id="line2d_29">
      <path d="M 57.6 65.3184 
L 360.8064 65.3184 
" clip-path="url(#pedff4747cb)" style="fill: none; stroke: #b0b0b0; stroke-width: 0.8; stroke-linecap: square"/>
     </g>
     <g id="line2d_30">
      <g>
       <use xlink:href="#m961a868170" x="57.6" y="65.3184" style="stroke: #000000; stroke-width: 0.8"/>
      </g>
     </g>
     <g id="text_10">
      <!-- 0.8 -->
      <g transform="translate(25.155 71.39715)scale(0.16 -0.16)">
       <defs>
        <path id="DejaVuSans-38" d="M 2034 2216 
Q 1584 2216 1326 1975 
Q 1069 1734 1069 1313 
Q 1069 891 1326 650 
Q 1584 409 2034 409 
Q 2484 409 2743 651 
Q 3003 894 3003 1313 
Q 3003 1734 2745 1975 
Q 2488 2216 2034 2216 
z
M 1403 2484 
Q 997 2584 770 2862 
Q 544 3141 544 3541 
Q 544 4100 942 4425 
Q 1341 4750 2034 4750 
Q 2731 4750 3128 4425 
Q 3525 4100 3525 3541 
Q 3525 3141 3298 2862 
Q 3072 2584 2669 2484 
Q 3125 2378 3379 2068 
Q 3634 1759 3634 1313 
Q 3634 634 3220 271 
Q 2806 -91 2034 -91 
Q 1263 -91 848 271 
Q 434 634 434 1313 
Q 434 1759 690 2068 
Q 947 2378 1403 2484 
z
M 1172 3481 
Q 1172 3119 1398 2916 
Q 1625 2713 2034 2713 
Q 2441 2713 2670 2916 
Q 2900 3119 2900 3481 
Q 2900 3844 2670 4047 
Q 2441 4250 2034 4250 
Q 1625 4250 1398 4047 
Q 1172 3844 1172 3481 
z
" transform="scale(0.015625)"/>
       </defs>
       <use xlink:href="#DejaVuSans-30"/>
       <use xlink:href="#DejaVuSans-2e" x="63.623047"/>
       <use xlink:href="#DejaVuSans-38" x="95.410156"/>
      </g>
     </g>
    </g>
    <g id="ytick_6">
     <g id="line2d_31">
      <path d="M 57.6 6.912 
L 360.8064 6.912 
" clip-path="url(#pedff4747cb)" style="fill: none; stroke: #b0b0b0; stroke-width: 0.8; stroke-linecap: square"/>
     </g>
     <g id="line2d_32">
      <g>
       <use xlink:href="#m961a868170" x="57.6" y="6.912" style="stroke: #000000; stroke-width: 0.8"/>
      </g>
     </g>
     <g id="text_11">
      <!-- 1.0 -->
      <g transform="translate(25.155 12.99075)scale(0.16 -0.16)">
       <use xlink:href="#DejaVuSans-31"/>
       <use xlink:href="#DejaVuSans-2e" x="63.623047"/>
       <use xlink:href="#DejaVuSans-30" x="95.410156"/>
      </g>
     </g>
    </g>
    <g id="text_12">
     <!-- Fraction of function,target pairs -->
     <g transform="translate(17.619531 287.313)rotate(-90)scale(0.17 -0.17)">
      <defs>
       <path id="DejaVuSans-46" d="M 628 4666 
L 3309 4666 
L 3309 4134 
L 1259 4134 
L 1259 2759 
L 3109 2759 
L 3109 2228 
L 1259 2228 
L 1259 0 
L 628 0 
L 628 4666 
z
" transform="scale(0.015625)"/>
       <path id="DejaVuSans-72" d="M 2631 2963 
Q 2534 3019 2420 3045 
Q 2306 3072 2169 3072 
Q 1681 3072 1420 2755 
Q 1159 2438 1159 1844 
L 1159 0 
L 581 0 
L 581 3500 
L 1159 3500 
L 1159 2956 
Q 1341 3275 1631 3429 
Q 1922 3584 2338 3584 
Q 2397 3584 2469 3576 
Q 2541 3569 2628 3553 
L 2631 2963 
z
" transform="scale(0.015625)"/>
       <path id="DejaVuSans-63" d="M 3122 3366 
L 3122 2828 
Q 2878 2963 2633 3030 
Q 2388 3097 2138 3097 
Q 1578 3097 1268 2742 
Q 959 2388 959 1747 
Q 959 1106 1268 751 
Q 1578 397 2138 397 
Q 2388 397 2633 464 
Q 2878 531 3122 666 
L 3122 134 
Q 2881 22 2623 -34 
Q 2366 -91 2075 -91 
Q 1284 -91 818 406 
Q 353 903 353 1747 
Q 353 2603 823 3093 
Q 1294 3584 2113 3584 
Q 2378 3584 2631 3529 
Q 2884 3475 3122 3366 
z
" transform="scale(0.015625)"/>
       <path id="DejaVuSans-74" d="M 1172 4494 
L 1172 3500 
L 2356 3500 
L 2356 3053 
L 1172 3053 
L 1172 1153 
Q 1172 725 1289 603 
Q 1406 481 1766 481 
L 2356 481 
L 2356 0 
L 1766 0 
Q 1100 0 847 248 
Q 594 497 594 1153 
L 594 3053 
L 172 3053 
L 172 3500 
L 594 3500 
L 594 4494 
L 1172 4494 
z
" transform="scale(0.015625)"/>
       <path id="DejaVuSans-75" d="M 544 1381 
L 544 3500 
L 1119 3500 
L 1119 1403 
Q 1119 906 1312 657 
Q 1506 409 1894 409 
Q 2359 409 2629 706 
Q 2900 1003 2900 1516 
L 2900 3500 
L 3475 3500 
L 3475 0 
L 2900 0 
L 2900 538 
Q 2691 219 2414 64 
Q 2138 -91 1772 -91 
Q 1169 -91 856 284 
Q 544 659 544 1381 
z
M 1991 3584 
L 1991 3584 
z
" transform="scale(0.015625)"/>
       <path id="DejaVuSans-2c" d="M 750 794 
L 1409 794 
L 1409 256 
L 897 -744 
L 494 -744 
L 750 256 
L 750 794 
z
" transform="scale(0.015625)"/>
       <path id="DejaVuSans-70" d="M 1159 525 
L 1159 -1331 
L 581 -1331 
L 581 3500 
L 1159 3500 
L 1159 2969 
Q 1341 3281 1617 3432 
Q 1894 3584 2278 3584 
Q 2916 3584 3314 3078 
Q 3713 2572 3713 1747 
Q 3713 922 3314 415 
Q 2916 -91 2278 -91 
Q 1894 -91 1617 61 
Q 1341 213 1159 525 
z
M 3116 1747 
Q 3116 2381 2855 2742 
Q 2594 3103 2138 3103 
Q 1681 3103 1420 2742 
Q 1159 2381 1159 1747 
Q 1159 1113 1420 752 
Q 1681 391 2138 391 
Q 2594 391 2855 752 
Q 3116 1113 3116 1747 
z
" transform="scale(0.015625)"/>
      </defs>
      <use xlink:href="#DejaVuSans-46"/>
      <use xlink:href="#DejaVuSans-72" x="50.269531"/>
      <use xlink:href="#DejaVuSans-61" x="91.382812"/>
      <use xlink:href="#DejaVuSans-63" x="152.662109"/>
      <use xlink:href="#DejaVuSans-74" x="207.642578"/>
      <use xlink:href="#DejaVuSans-69" x="246.851562"/>
      <use xlink:href="#DejaVuSans-6f" x="274.634766"/>
      <use xlink:href="#DejaVuSans-6e" x="335.816406"/>
      <use xlink:href="#DejaVuSans-20" x="399.195312"/>
      <use xlink:href="#DejaVuSans-6f" x="430.982422"/>
      <use xlink:href="#DejaVuSans-66" x="492.164062"/>
      <use xlink:href="#DejaVuSans-20" x="527.369141"/>
      <use xlink:href="#DejaVuSans-66" x="559.15625"/>
      <use xlink:href="#DejaVuSans-75" x="594.361328"/>
      <use xlink:href="#DejaVuSans-6e" x="657.740234"/>
      <use xlink:href="#DejaVuSans-63" x="721.119141"/>
      <use xlink:href="#DejaVuSans-74" x="776.099609"/>
      <use xlink:href="#DejaVuSans-69" x="815.308594"/>
      <use xlink:href="#DejaVuSans-6f" x="843.091797"/>
      <use xlink:href="#DejaVuSans-6e" x="904.273438"/>
      <use xlink:href="#DejaVuSans-2c" x="967.652344"/>
      <use xlink:href="#DejaVuSans-74" x="999.439453"/>
      <use xlink:href="#DejaVuSans-61" x="1038.648438"/>
      <use xlink:href="#DejaVuSans-72" x="1099.927734"/>
      <use xlink:href="#DejaVuSans-67" x="1139.291016"/>
      <use xlink:href="#DejaVuSans-65" x="1202.767578"/>
      <use xlink:href="#DejaVuSans-74" x="1264.291016"/>
      <use xlink:href="#DejaVuSans-20" x="1303.5"/>
      <use xlink:href="#DejaVuSans-70" x="1335.287109"/>
      <use xlink:href="#DejaVuSans-61" x="1398.763672"/>
      <use xlink:href="#DejaVuSans-69" x="1460.042969"/>
      <use xlink:href="#DejaVuSans-72" x="1487.826172"/>
      <use xlink:href="#DejaVuSans-73" x="1528.939453"/>
     </g>
    </g>
   </g>
   <g id="line2d_33">
    <defs>
     <path id="mf6f56771ef" d="M 0 1.5 
C 0.397805 1.5 0.77937 1.341951 1.06066 1.06066 
C 1.341951 0.77937 1.5 0.397805 1.5 0 
C 1.5 -0.397805 1.341951 -0.77937 1.06066 -1.06066 
C 0.77937 -1.341951 0.397805 -1.5 0 -1.5 
C -0.397805 -1.5 -0.77937 -1.341951 -1.06066 -1.06066 
C -1.341951 -0.77937 -1.5 -0.397805 -1.5 0 
C -1.5 0.397805 -1.341951 0.77937 -1.06066 1.06066 
C -0.77937 1.341951 -0.397805 1.5 0 1.5 
z
" style="stroke: #f5deb3"/>
    </defs>
    <g>
     <use xlink:href="#mf6f56771ef" x="278.441177" y="42.157241" style="fill: #f5deb3; stroke: #f5deb3"/>
     <use xlink:href="#mf6f56771ef" x="278.441177" y="42.157241" style="fill: #f5deb3; stroke: #f5deb3"/>
    </g>
   </g>
   <g id="line2d_34">
    <defs>
     <path id="m5fe09c67b9" d="M 0 1.5 
C 0.397805 1.5 0.77937 1.341951 1.06066 1.06066 
C 1.341951 0.77937 1.5 0.397805 1.5 0 
C 1.5 -0.397805 1.341951 -0.77937 1.06066 -1.06066 
C 0.77937 -1.341951 0.397805 -1.5 0 -1.5 
C -0.397805 -1.5 -0.77937 -1.341951 -1.06066 -1.06066 
C -1.341951 -0.77937 -1.5 -0.397805 -1.5 0 
C -1.5 0.397805 -1.341951 0.77937 -1.06066 1.06066 
C -0.77937 1.341951 -0.397805 1.5 0 1.5 
z
" style="stroke: #000080"/>
    </defs>
    <g>
     <use xlink:href="#m5fe09c67b9" x="78.266603" y="278.174483" style="fill: #000080; stroke: #000080"/>
     <use xlink:href="#m5fe09c67b9" x="78.266603" y="278.174483" style="fill: #000080; stroke: #000080"/>
    </g>
   </g>
   <g id="line2d_35">
    <path d="M 36.933397 298.944 
L 36.933397 292.020828 
L 49.972572 292.020828 
L 49.972572 288.622179 
L 57.6 288.622179 
L 57.6 286.104662 
L 63.011746 286.104662 
L 63.011746 285.097655 
L 67.209423 285.097655 
L 67.209423 284.468276 
L 70.639174 284.468276 
L 70.639174 283.461269 
L 73.538988 283.461269 
L 73.538988 281.321379 
L 76.050921 281.321379 
L 76.050921 281.195503 
L 78.266603 281.195503 
L 78.266603 278.174483 
L 360.8064 278.174483 
" style="fill: none; stroke: #000080; stroke-width: 1.5; stroke-linecap: square"/>
   </g>
   <g id="line2d_36">
    <defs>
     <path id="m7f15fd1d46" d="M 0 6 
C 1.591219 6 3.117479 5.367802 4.242641 4.242641 
C 5.367802 3.117479 6 1.591219 6 0 
C 6 -1.591219 5.367802 -3.117479 4.242641 -4.242641 
C 3.117479 -5.367802 1.591219 -6 0 -6 
C -1.591219 -6 -3.117479 -5.367802 -4.242641 -4.242641 
C -5.367802 -3.117479 -6 -1.591219 -6 0 
C -6 1.591219 -5.367802 3.117479 -4.242641 4.242641 
C -3.117479 5.367802 -1.591219 6 0 6 
z
" style="stroke: #000080; stroke-width: 1.5"/>
    </defs>
    <g>
     <use xlink:href="#m7f15fd1d46" x="78.266603" y="281.195503" style="fill-opacity: 0; stroke: #000080; stroke-width: 1.5"/>
     <use xlink:href="#m7f15fd1d46" x="78.266603" y="281.195503" style="fill-opacity: 0; stroke: #000080; stroke-width: 1.5"/>
     <use xlink:href="#m7f15fd1d46" x="78.266603" y="278.174483" style="fill-opacity: 0; stroke: #000080; stroke-width: 1.5"/>
     <use xlink:href="#m7f15fd1d46" x="78.266603" y="278.174483" style="fill-opacity: 0; stroke: #000080; stroke-width: 1.5"/>
     <use xlink:href="#m7f15fd1d46" x="78.266603" y="278.174483" style="fill-opacity: 0; stroke: #000080; stroke-width: 1.5"/>
     <use xlink:href="#m7f15fd1d46" x="360.8064" y="278.174483" style="fill-opacity: 0; stroke: #000080; stroke-width: 1.5"/>
    </g>
   </g>
   <g id="line2d_37">
    <path style="fill: none; stroke: #000080; stroke-width: 1.5; stroke-linecap: square"/>
    <g/>
   </g>
   <g id="line2d_38">
    <path d="M 78.266603 278.174483 
" clip-path="url(#pedff4747cb)" style="fill: none; stroke: #000080; stroke-width: 1.5; stroke-linecap: square"/>
    <defs>
     <path id="mef433bf961" d="M -12 12 
L 12 -12 
M -12 -12 
L 12 12 
" style="stroke: #000080"/>
    </defs>
    <g clip-path="url(#pedff4747cb)">
     <use xlink:href="#mef433bf961" x="78.266603" y="278.174483" style="fill: #000080; stroke: #000080"/>
    </g>
   </g>
   <g id="line2d_39">
    <defs>
     <path id="m047df90f58" d="M 0 1.5 
C 0.397805 1.5 0.77937 1.341951 1.06066 1.06066 
C 1.341951 0.77937 1.5 0.397805 1.5 0 
C 1.5 -0.397805 1.341951 -0.77937 1.06066 -1.06066 
C 0.77937 -1.341951 0.397805 -1.5 0 -1.5 
C -0.397805 -1.5 -0.77937 -1.341951 -1.06066 -1.06066 
C -1.341951 -0.77937 -1.5 -0.397805 -1.5 0 
C -1.5 0.397805 -1.341951 0.77937 -1.06066 1.06066 
C -0.77937 1.341951 -0.397805 1.5 0 1.5 
z
" style="stroke: #ff00ff"/>
    </defs>
    <g>
     <use xlink:href="#m047df90f58" x="274.010422" y="97.542621" style="fill: #ff00ff; stroke: #ff00ff"/>
     <use xlink:href="#m047df90f58" x="274.010422" y="97.542621" style="fill: #ff00ff; stroke: #ff00ff"/>
    </g>
   </g>
   <g id="line2d_40">
    <path d="M 36.933397 298.944 
L 36.933397 292.020828 
L 49.972572 292.020828 
L 49.972572 291.391448 
L 57.6 291.391448 
L 57.6 289.125683 
L 63.011746 289.125683 
L 63.011746 288.496303 
L 67.209423 288.496303 
L 67.209423 286.608166 
L 70.639174 286.608166 
L 70.639174 284.971779 
L 73.538988 284.971779 
L 73.538988 283.838897 
L 76.050921 283.838897 
L 76.050921 283.083641 
L 78.266603 283.083641 
L 78.266603 281.321379 
L 80.248597 281.321379 
L 80.248597 281.069628 
L 82.04153 281.069628 
L 82.04153 280.817876 
L 83.678349 280.817876 
L 83.678349 280.440248 
L 85.184077 280.440248 
L 85.184077 280.062621 
L 86.578163 280.062621 
L 86.578163 278.426234 
L 87.876026 278.426234 
L 87.876026 277.670979 
L 89.090095 277.670979 
L 89.090095 276.789848 
L 90.230539 276.789848 
L 90.230539 276.034593 
L 91.305777 276.034593 
L 91.305777 275.908717 
L 92.322865 275.908717 
L 92.322865 275.656966 
L 93.287772 275.656966 
L 93.287772 275.53109 
L 95.080704 275.53109 
L 95.080704 275.279338 
L 95.916911 275.279338 
L 95.916911 275.153462 
L 96.717523 275.153462 
L 96.717523 274.272331 
L 97.485448 274.272331 
L 97.485448 274.020579 
L 98.933205 274.020579 
L 98.933205 273.894703 
L 99.617337 273.894703 
L 99.617337 273.517076 
L 100.9152 273.517076 
L 100.9152 273.265324 
L 101.532027 273.265324 
L 101.532027 273.013572 
L 102.12927 273.013572 
L 102.12927 272.761821 
L 102.708132 272.761821 
L 102.708132 272.510069 
L 103.815014 272.510069 
L 103.815014 272.384193 
L 104.860369 272.384193 
L 104.860369 272.258317 
L 105.36204 272.258317 
L 105.36204 272.132441 
L 105.850679 272.132441 
L 105.850679 270.999559 
L 106.791453 270.999559 
L 106.791453 270.873683 
L 107.244765 270.873683 
L 107.244765 270.496055 
L 107.68741 270.496055 
L 107.68741 270.244303 
L 109.360651 270.244303 
L 109.360651 270.118428 
L 110.897141 270.118428 
L 110.897141 269.992552 
L 111.262425 269.992552 
L 111.262425 269.614924 
L 111.97238 269.614924 
L 111.97238 268.733793 
L 112.656511 268.733793 
L 112.656511 268.356166 
L 113.638206 268.356166 
L 113.638206 268.23029 
L 114.265316 268.23029 
L 114.265316 268.104414 
L 114.872193 268.104414 
L 114.872193 267.852662 
L 115.460102 267.852662 
L 115.460102 267.60091 
L 116.030193 267.60091 
L 116.030193 267.349159 
L 116.308887 267.349159 
L 116.308887 266.342152 
L 116.583514 266.342152 
L 116.583514 266.216276 
L 116.854188 266.216276 
L 116.854188 265.838648 
L 117.121023 265.838648 
L 117.121023 265.712772 
L 117.384126 265.712772 
L 117.384126 265.586897 
L 117.899543 265.586897 
L 117.899543 265.335145 
L 118.152051 265.335145 
L 118.152051 264.831641 
L 118.401214 264.831641 
L 118.401214 264.454014 
L 118.64712 264.454014 
L 118.64712 264.202262 
L 118.889854 264.202262 
L 118.889854 264.076386 
L 119.129494 264.076386 
L 119.129494 263.572883 
L 119.599808 263.572883 
L 119.599808 263.321131 
L 119.830627 263.321131 
L 119.830627 263.195255 
L 120.28394 263.195255 
L 120.28394 263.069379 
L 120.506564 263.069379 
L 120.506564 262.565876 
L 121.159053 262.565876 
L 121.159053 262.44 
L 121.371615 262.44 
L 121.371615 261.936497 
L 121.581803 261.936497 
L 121.581803 261.432993 
L 121.789667 261.432993 
L 121.789667 260.551862 
L 121.99526 260.551862 
L 121.99526 260.30011 
L 122.399825 260.30011 
L 122.399825 259.922483 
L 122.795872 259.922483 
L 122.795872 259.418979 
L 123.183753 259.418979 
L 123.183753 259.293103 
L 123.374735 259.293103 
L 123.374735 258.7896 
L 123.750979 258.7896 
L 123.750979 258.663724 
L 123.936316 258.663724 
L 123.936316 258.537848 
L 124.119844 258.537848 
L 124.119844 258.411972 
L 124.659926 258.411972 
L 124.659926 258.034345 
L 124.836562 258.034345 
L 124.836562 257.27909 
L 125.011554 257.27909 
L 125.011554 257.027338 
L 125.184934 257.027338 
L 125.184934 256.523834 
L 125.35673 256.523834 
L 125.35673 256.272083 
L 125.526971 256.272083 
L 125.526971 255.894455 
L 125.695686 255.894455 
L 125.695686 255.516828 
L 125.862901 255.516828 
L 125.862901 255.1392 
L 126.677381 255.1392 
L 126.677381 254.887448 
L 126.836129 254.887448 
L 126.836129 254.635697 
L 126.993549 254.635697 
L 126.993549 254.509821 
L 127.149662 254.509821 
L 127.149662 254.258069 
L 127.304491 254.258069 
L 127.304491 254.006317 
L 127.761474 254.006317 
L 127.761474 253.754566 
L 127.911368 253.754566 
L 127.911368 252.369931 
L 128.060076 252.369931 
L 128.060076 252.244055 
L 128.207619 252.244055 
L 128.207619 251.992303 
L 128.354013 251.992303 
L 128.354013 251.740552 
L 128.499277 251.740552 
L 128.499277 251.4888 
L 128.786481 251.4888 
L 128.786481 250.985297 
L 128.928456 250.985297 
L 128.928456 250.733545 
L 129.485876 250.733545 
L 129.485876 250.481793 
L 129.758512 250.481793 
L 129.758512 250.230041 
L 129.893363 250.230041 
L 129.893363 250.104166 
L 130.027253 250.104166 
L 130.027253 249.97829 
L 130.160198 249.97829 
L 130.160198 249.726538 
L 130.938718 249.726538 
L 130.938718 249.34891 
L 131.065395 249.34891 
L 131.065395 248.845407 
L 131.31622 248.845407 
L 131.31622 248.341903 
L 131.440389 248.341903 
L 131.440389 248.216028 
L 131.563744 248.216028 
L 131.563744 247.8384 
L 131.808053 247.8384 
L 131.808053 247.209021 
L 132.04923 247.209021 
L 132.04923 247.083145 
L 132.287354 247.083145 
L 132.287354 246.831393 
L 132.522502 246.831393 
L 132.522502 246.453766 
L 132.638982 246.453766 
L 132.638982 246.32789 
L 132.754746 246.32789 
L 132.754746 246.202014 
L 132.984158 246.202014 
L 132.984158 246.076138 
L 133.210806 246.076138 
L 133.210806 245.950262 
L 133.656071 245.950262 
L 133.765759 245.195007 
L 133.874812 245.195007 
L 133.874812 244.817379 
L 134.304809 244.817379 
L 134.304809 244.565628 
L 134.516177 244.565628 
L 134.620977 243.810372 
L 134.828842 243.810372 
L 134.828842 243.684497 
L 135.034434 243.684497 
L 135.136394 243.055117 
L 135.237805 243.055117 
L 135.338671 241.796359 
L 135.438999 241.796359 
L 135.538796 241.166979 
L 135.932769 241.166979 
L 135.932769 240.915228 
L 136.508678 240.915228 
L 136.602972 239.908221 
L 136.790153 239.908221 
L 136.88305 239.530593 
L 137.067478 239.530593 
L 137.159019 239.02709 
L 137.250116 239.02709 
L 137.250116 238.901214 
L 137.430998 238.901214 
L 137.430998 238.523586 
L 137.787626 238.523586 
L 137.787626 238.020083 
L 137.963436 238.020083 
L 137.963436 237.894207 
L 138.310202 237.894207 
L 138.395904 237.516579 
L 138.566146 237.516579 
L 138.650692 236.8872 
L 138.902075 236.8872 
L 138.902075 236.761324 
L 139.232111 236.761324 
L 139.313723 236.383697 
L 139.394983 236.383697 
L 139.394983 235.880193 
L 139.716555 235.880193 
L 139.796097 235.628441 
L 139.875304 235.628441 
L 139.875304 235.502566 
L 140.110942 235.502566 
L 140.188837 234.74731 
L 140.343665 234.74731 
L 140.343665 234.369683 
L 140.725251 234.369683 
L 140.800648 233.614428 
L 141.099251 233.614428 
L 141.173167 233.110924 
L 141.320133 233.110924 
L 141.393187 232.607421 
L 141.754265 232.607421 
L 141.825656 232.355669 
L 142.108542 232.355669 
L 142.178603 232.103917 
L 142.248405 232.103917 
L 142.248405 231.852166 
L 142.593581 231.852166 
L 142.593581 231.72629 
L 142.729897 231.72629 
L 142.729897 231.600414 
L 142.865233 231.600414 
L 142.865233 231.348662 
L 142.999601 231.348662 
L 143.066428 230.845159 
L 143.265494 230.845159 
L 143.265494 230.467531 
L 143.721949 230.467531 
L 143.721949 230.089903 
L 144.541342 230.089903 
L 144.541342 229.964028 
L 144.664294 229.964028 
L 144.664294 229.712276 
L 144.907812 229.712276 
L 144.907812 229.460524 
L 145.148219 229.460524 
L 145.148219 228.705269 
L 145.326529 228.705269 
L 145.326529 228.579393 
L 145.561676 228.579393 
L 145.561676 228.453517 
L 145.851536 228.453517 
L 145.851536 228.201766 
L 146.136998 228.201766 
L 146.193574 227.950014 
L 146.306218 227.950014 
L 146.306218 227.698262 
L 146.47393 227.698262 
L 146.47393 227.44651 
L 146.804934 227.44651 
L 146.804934 227.194759 
L 147.076389 227.194759 
L 147.076389 226.943007 
L 148.124658 226.943007 
L 148.124658 226.817131 
L 148.874221 226.817131 
L 148.971944 226.439503 
L 150.425115 226.439503 
L 150.425115 226.313628 
L 150.559965 226.313628 
L 150.559965 226.061876 
L 150.78259 226.061876 
L 150.78259 225.810124 
L 152.106991 225.810124 
L 152.106991 225.684248 
L 152.393571 225.684248 
L 152.393571 225.558372 
L 152.675851 225.558372 
L 152.675851 225.432497 
L 153.189104 225.432497 
L 153.189104 225.306621 
L 154.138425 225.306621 
L 154.138425 225.054869 
L 154.322673 225.054869 
L 154.432362 224.677241 
L 155.769072 224.677241 
L 155.769072 224.551366 
L 156.566854 224.551366 
L 156.566854 224.299614 
L 157.332175 224.299614 
L 157.332175 224.173738 
L 157.580516 224.173738 
L 157.580516 223.921986 
L 158.0976 223.921986 
L 158.0976 223.79611 
L 158.542339 223.79611 
L 158.542339 223.670234 
L 159.176172 223.670234 
L 159.176172 223.418483 
L 160.356569 223.418483 
L 160.356569 223.166731 
L 161.341421 223.166731 
L 161.391854 222.663228 
L 161.815163 222.663228 
L 161.913396 222.033848 
L 162.132562 222.033848 
L 162.132562 221.782097 
L 162.704821 221.782097 
L 162.728291 221.026841 
L 162.845206 221.026841 
L 162.938218 220.77509 
L 163.030771 220.77509 
L 163.030771 220.523338 
L 163.237368 220.523338 
L 163.328465 220.14571 
L 163.509347 220.14571 
L 163.509347 219.893959 
L 163.954085 219.893959 
L 164.063646 219.642207 
L 164.623299 219.642207 
L 164.686815 219.138703 
L 164.834193 219.138703 
L 164.834193 218.761076 
L 165.330896 218.761076 
L 165.330896 218.509324 
L 165.554242 218.509324 
L 165.614697 218.131697 
L 165.695002 218.131697 
L 165.735027 217.628193 
L 165.933882 217.628193 
L 165.933882 217.376441 
L 166.169767 217.376441 
L 166.169767 217.250566 
L 166.689935 217.250566 
L 166.708927 216.747062 
L 166.8036 216.747062 
L 166.822478 216.243559 
L 166.916583 216.243559 
L 166.916583 216.117683 
L 167.471536 216.117683 
L 167.471536 215.991807 
L 167.6168 215.991807 
L 167.689013 215.488303 
L 167.832614 215.488303 
L 167.939599 214.858924 
L 168.063651 214.858924 
L 168.134173 214.481297 
L 168.309328 214.481297 
L 168.361558 213.600166 
L 168.465585 213.600166 
L 168.569041 213.222538 
L 168.637696 213.222538 
L 168.689024 212.970786 
L 168.977264 212.970786 
L 168.994082 212.719034 
L 169.094679 212.719034 
L 169.161446 212.341407 
L 169.376816 212.341407 
L 169.376816 211.837903 
L 169.491772 211.837903 
L 169.589749 211.460276 
L 169.606029 211.460276 
L 169.606029 211.208524 
L 169.880655 211.208524 
L 169.976632 210.830897 
L 170.119687 210.830897 
L 170.230204 209.949766 
L 170.340075 209.949766 
L 170.418164 209.19451 
L 170.604265 209.19451 
L 170.69663 208.313379 
L 170.819081 208.313379 
L 170.819081 208.061628 
L 170.955893 208.061628 
L 171.046551 207.306372 
L 171.136775 207.306372 
L 171.241492 206.047614 
L 171.449192 206.047614 
L 171.552189 205.292359 
L 171.610792 205.292359 
L 171.698355 204.788855 
L 171.727453 204.788855 
L 171.727453 203.907724 
L 171.987325 203.907724 
L 171.987325 203.655972 
L 172.426636 203.655972 
L 172.426636 203.530097 
L 172.566188 203.530097 
L 172.635578 203.026593 
L 172.718509 203.026593 
L 172.801076 201.767834 
L 172.842224 201.767834 
L 172.924252 200.760828 
L 172.978738 200.760828 
L 172.978738 200.509076 
L 173.221995 200.509076 
L 173.329107 200.131448 
L 173.35579 200.131448 
L 173.448884 199.502069 
L 173.659955 199.502069 
L 173.751559 198.87269 
L 173.790682 198.87269 
L 173.868685 198.620938 
L 173.907565 198.620938 
L 174.010854 198.24331 
L 174.049442 198.24331 
L 174.151958 197.488055 
L 174.203007 197.488055 
L 174.228479 197.110428 
L 174.342681 197.110428 
L 174.443616 196.7328 
L 174.531491 196.7328 
L 174.618958 196.355172 
L 175.098964 196.355172 
L 175.098964 196.229297 
L 175.244228 196.229297 
L 175.304425 195.977545 
L 175.424244 195.977545 
L 175.483869 195.474041 
L 175.543305 195.474041 
L 175.649819 195.096414 
L 175.661617 195.096414 
L 175.767465 193.711779 
L 175.77919 193.711779 
L 175.77919 193.460028 
L 175.896032 193.460028 
L 175.942567 192.956524 
L 176.023726 192.956524 
L 176.081483 192.201269 
L 176.139064 192.201269 
L 176.139064 192.075393 
L 176.287954 192.075393 
L 176.287954 191.823641 
L 176.413023 191.823641 
L 176.503464 191.320138 
L 176.671876 191.320138 
L 176.72768 191.068386 
L 176.816624 191.068386 
L 176.860939 190.313131 
L 177.004244 190.313131 
L 177.004244 190.061379 
L 177.135565 190.061379 
L 177.244302 189.432 
L 177.287622 189.432 
L 177.287622 189.306124 
L 177.470626 189.306124 
L 177.577449 188.424993 
L 177.598741 188.424993 
L 177.662473 187.795614 
L 177.757668 187.795614 
L 177.852384 186.914483 
L 177.88385 186.914483 
L 177.967504 186.285103 
L 178.040396 186.285103 
L 178.09229 186.033352 
L 178.164702 186.033352 
L 178.164702 185.907476 
L 178.441423 185.907476 
L 178.542888 185.529848 
L 178.643809 185.529848 
L 178.684026 184.648717 
L 178.784194 184.648717 
L 178.84404 184.27109 
L 178.943362 184.27109 
L 179.052014 183.389959 
L 179.071702 183.389959 
L 179.160042 182.760579 
L 179.218706 182.760579 
L 179.218706 182.634703 
L 179.345187 182.634703 
L 179.451549 182.257076 
L 179.461189 182.257076 
L 179.461189 182.005324 
L 179.776554 182.005324 
L 179.852216 181.501821 
L 179.936974 181.501821 
L 180.002634 180.746566 
L 180.13327 180.746566 
L 180.23528 180.368938 
L 180.244527 180.368938 
L 180.327539 179.99131 
L 180.455946 179.99131 
L 180.52893 179.361931 
L 180.628823 179.361931 
L 180.683087 178.858428 
L 180.746198 178.858428 
L 180.818066 178.229048 
L 180.960985 178.229048 
L 181.032039 177.977297 
L 181.076312 177.977297 
L 181.076312 177.851421 
L 181.190936 177.851421 
L 181.287383 177.222041 
L 181.304866 177.222041 
L 181.400733 176.844414 
L 181.530677 176.844414 
L 181.530677 176.592662 
L 181.702552 176.592662 
L 181.702552 176.34091 
L 181.91521 176.34091 
L 181.974326 176.089159 
L 182.158919 176.089159 
L 182.250541 175.208028 
L 182.275451 175.208028 
L 182.275451 175.082152 
L 182.637065 175.082152 
L 182.677721 174.704524 
L 182.911809 174.704524 
L 183.007827 174.326897 
L 183.047691 174.326897 
L 183.095416 174.075145 
L 183.174689 174.075145 
L 183.285113 173.823393 
L 183.347923 173.823393 
L 183.394894 173.068138 
L 183.58161 173.068138 
L 183.68198 172.312883 
L 183.728124 172.312883 
L 183.827718 171.431752 
L 183.90397 171.431752 
L 183.979915 170.928248 
L 184.017773 170.928248 
L 184.115848 170.550621 
L 184.198438 170.550621 
L 184.273206 170.172993 
L 184.325367 170.172993 
L 184.429257 169.417738 
L 184.436656 169.417738 
L 184.466222 169.04011 
L 184.671895 169.04011 
L 184.773895 168.410731 
L 184.81019 168.410731 
L 184.911444 167.907228 
L 184.947474 167.907228 
L 185.047994 167.151972 
L 185.083765 167.151972 
L 185.155102 166.774345 
L 185.28283 166.774345 
L 185.289901 166.522593 
L 185.423742 166.522593 
L 185.493803 166.270841 
L 185.535716 166.270841 
L 185.535716 166.01909 
L 185.695519 166.01909 
L 185.79213 165.515586 
L 185.812768 165.515586 
L 185.922457 164.886207 
L 185.94978 164.886207 
L 186.03151 164.508579 
L 186.079022 164.508579 
L 186.106119 164.130952 
L 186.207383 164.130952 
L 186.314801 163.501572 
L 186.334874 163.501572 
L 186.434918 162.872193 
L 186.49469 162.872193 
L 186.534433 162.36869 
L 186.686007 162.36869 
L 186.686007 161.991062 
L 186.836369 161.991062 
L 186.907859 161.487559 
L 186.972615 161.487559 
L 187.082191 161.109931 
L 187.139944 161.109931 
L 187.203908 160.732303 
L 187.356538 160.732303 
L 187.369201 160.480552 
L 187.539328 160.480552 
L 187.61445 160.102924 
L 187.683048 160.102924 
L 187.745194 159.599421 
L 187.807135 159.599421 
L 187.807135 159.473545 
L 187.954967 159.473545 
L 187.954967 159.221793 
L 188.150287 159.221793 
L 188.186685 158.71829 
L 188.289431 158.71829 
L 188.373626 157.963034 
L 188.540894 157.963034 
L 188.540894 157.711283 
L 188.671283 157.711283 
L 188.671283 157.585407 
L 188.876876 157.585407 
L 188.917726 157.207779 
L 189.010767 157.207779 
L 189.120658 156.704276 
L 189.212702 156.704276 
L 189.315717 156.074897 
L 189.355626 156.074897 
L 189.463527 155.319641 
L 189.491819 155.319641 
L 189.491819 155.06789 
L 189.716638 155.06789 
L 189.750131 154.816138 
L 189.971902 154.816138 
L 189.971902 154.690262 
L 190.092771 154.690262 
L 190.185641 154.43851 
L 190.256351 154.43851 
L 190.256351 154.186759 
L 190.407753 154.186759 
L 190.482999 153.935007 
L 190.669809 153.935007 
L 190.754593 152.676248 
L 190.865296 152.676248 
L 190.865296 152.550372 
L 191.04316 152.550372 
L 191.152182 152.046869 
L 191.178047 152.046869 
L 191.178047 151.795117 
L 191.868271 151.795117 
L 191.868271 151.669241 
L 192.110876 151.669241 
L 192.135457 151.291614 
L 192.248116 151.291614 
L 192.262761 150.913986 
L 192.364958 150.913986 
L 192.364958 150.78811 
L 192.495544 150.78811 
L 192.495544 150.662234 
L 192.658706 150.662234 
L 192.763533 149.906979 
L 192.829938 149.906979 
L 192.877227 149.529352 
L 192.947938 149.529352 
L 192.980846 149.2776 
L 193.237424 149.2776 
L 193.237424 149.151724 
L 193.352904 149.151724 
L 193.352904 148.899972 
L 193.504259 148.899972 
L 193.590854 148.522345 
L 193.658938 148.522345 
L 193.658938 148.270593 
L 193.785372 148.270593 
L 193.870686 148.018841 
L 193.946692 148.018841 
L 193.946692 147.892966 
L 194.075645 147.892966 
L 194.075645 147.76709 
L 194.335301 147.76709 
L 194.357142 147.389462 
L 194.509322 147.389462 
L 194.604352 147.011834 
L 194.975519 147.011834 
L 194.979743 146.256579 
L 195.322922 146.256579 
L 195.322922 146.130703 
L 195.442807 146.130703 
L 195.442807 146.004828 
L 195.631416 146.004828 
L 195.692512 145.6272 
L 195.818153 145.6272 
L 195.830267 145.123697 
L 196.007054 145.123697 
L 196.007054 144.871945 
L 196.12267 144.871945 
L 196.12267 144.746069 
L 196.308553 144.746069 
L 196.316422 144.494317 
L 196.430158 144.494317 
L 196.430158 144.242566 
L 196.613042 144.242566 
L 196.613042 143.990814 
L 196.786492 143.990814 
L 196.786492 143.864938 
L 197.003925 143.864938 
L 197.075848 143.613186 
L 197.15126 143.613186 
L 197.245102 143.235559 
L 197.342204 143.235559 
L 197.342204 143.109683 
L 197.464731 143.109683 
L 197.464731 142.983807 
L 197.685483 142.983807 
L 197.71107 142.480303 
L 198.019017 142.480303 
L 198.090749 142.228552 
L 198.201395 142.228552 
L 198.26889 141.9768 
L 198.62019 141.9768 
L 198.62019 141.850924 
L 198.803752 141.850924 
L 198.869124 141.599172 
L 198.971882 141.599172 
L 199.019645 141.347421 
L 199.276831 141.347421 
L 199.276831 141.095669 
L 199.731744 141.095669 
L 199.82338 140.592166 
L 199.862516 140.592166 
L 199.869031 140.340414 
L 200.011789 140.340414 
L 200.011789 140.214538 
L 200.443156 140.214538 
L 200.443156 139.962786 
L 200.784368 139.962786 
L 200.784368 139.83691 
L 200.975726 139.83691 
L 201.006409 139.459283 
L 201.322577 139.459283 
L 201.397793 139.207531 
L 202.274818 139.207531 
L 202.274818 138.955779 
L 202.609986 138.955779 
L 202.6634 138.704028 
L 202.864446 138.704028 
L 202.961406 138.452276 
L 203.20846 138.452276 
L 203.20846 138.3264 
L 203.859741 138.3264 
L 203.888696 137.948772 
L 204.593389 137.948772 
L 204.593389 137.822897 
L 204.767396 137.822897 
L 204.774925 137.445269 
L 204.987008 137.445269 
L 204.987008 137.193517 
L 205.253074 137.193517 
L 205.253074 137.067641 
L 205.391995 137.067641 
L 205.391995 136.941766 
L 205.759894 136.941766 
L 205.778934 136.690014 
L 205.918763 136.690014 
L 205.944718 136.438262 
L 206.320565 136.438262 
L 206.320565 136.18651 
L 206.921057 136.18651 
L 206.921057 136.060634 
L 207.052677 136.060634 
L 207.097086 135.557131 
L 207.18559 135.557131 
L 207.18559 135.431255 
L 207.518159 135.431255 
L 207.518159 135.305379 
L 207.974518 135.305379 
L 207.974518 135.179503 
L 208.291462 135.179503 
L 208.291462 135.053628 
L 208.504632 135.053628 
L 208.504632 134.801876 
L 209.27873 134.801876 
L 209.318188 134.424248 
L 209.394894 134.424248 
L 209.394894 134.298372 
L 209.727575 134.298372 
L 209.727575 134.172497 
L 209.873565 134.172497 
L 209.873565 133.920745 
L 210.02033 133.920745 
L 210.022229 133.668993 
L 210.301119 133.668993 
L 210.383241 133.291366 
L 210.418592 133.291366 
L 210.418592 133.16549 
L 210.953693 133.16549 
L 210.953693 133.039614 
L 211.306291 133.039614 
L 211.389446 132.787862 
L 211.496825 132.787862 
L 211.572152 132.284359 
L 211.740976 132.284359 
L 211.740976 132.158483 
L 212.775839 132.158483 
L 212.775839 131.906731 
L 213.062273 131.906731 
L 213.065503 131.529103 
L 213.333271 131.529103 
L 213.368263 131.151476 
L 213.669355 131.151476 
L 213.703729 130.647972 
L 214.249877 130.647972 
L 214.249877 130.522097 
L 215.368365 130.522097 
L 215.45532 130.270345 
L 215.719411 130.270345 
L 215.797781 129.640966 
L 216.405145 129.640966 
L 216.483409 129.389214 
L 216.844834 129.389214 
L 216.894963 128.759834 
L 217.134521 128.759834 
L 217.214995 128.382207 
L 217.264149 128.382207 
L 217.345358 128.130455 
L 217.589444 128.130455 
L 217.631296 127.501076 
L 217.8517 127.501076 
L 217.8517 127.3752 
L 218.114055 127.3752 
L 218.122696 126.997572 
L 218.422669 126.997572 
L 218.422669 126.745821 
L 218.752578 126.745821 
L 218.810971 126.116441 
L 219.012166 126.116441 
L 219.012166 125.990566 
L 219.320406 125.990566 
L 219.402449 125.361186 
L 219.471504 125.361186 
L 219.570042 124.857683 
L 219.614558 124.857683 
L 219.614558 124.605931 
L 220.056249 124.605931 
L 220.056249 124.354179 
L 220.171712 124.354179 
L 220.171712 124.228303 
L 220.28537 124.228303 
L 220.381936 123.850676 
L 220.41802 123.850676 
L 220.511735 123.598924 
L 220.809379 123.598924 
L 220.809379 123.473048 
L 221.052811 123.473048 
L 221.059147 123.095421 
L 221.462342 123.095421 
L 221.462342 122.843669 
L 221.618772 122.843669 
L 221.692418 122.340166 
L 221.754588 122.340166 
L 221.829733 121.962538 
L 222.113375 121.962538 
L 222.20698 121.710786 
L 222.469365 121.710786 
L 222.469365 121.58491 
L 222.697198 121.58491 
L 222.75614 121.333159 
L 222.892637 121.333159 
L 222.892637 121.207283 
L 223.387931 121.207283 
L 223.387931 121.081407 
L 224.688965 121.081407 
L 224.688965 120.955531 
L 224.937166 120.955531 
L 224.937166 120.703779 
L 225.759995 120.703779 
L 225.759995 120.577903 
L 226.27748 120.577903 
L 226.27748 120.452028 
L 226.46931 120.452028 
L 226.46931 120.200276 
L 226.661556 120.200276 
L 226.763185 119.822648 
L 226.916927 119.822648 
L 226.982544 119.570897 
L 227.125336 119.570897 
L 227.125336 119.319145 
L 227.797664 119.319145 
L 227.797664 119.193269 
L 228.176085 119.193269 
L 228.176085 119.067393 
L 228.290012 119.067393 
L 228.290012 118.815641 
L 228.635475 118.815641 
L 228.705922 118.312138 
L 229.154077 118.312138 
L 229.154077 118.186262 
L 229.395578 118.186262 
L 229.395578 117.93451 
L 229.527296 117.93451 
L 229.527296 117.682759 
L 229.791315 117.682759 
L 229.791315 117.431007 
L 229.924254 117.431007 
L 229.924254 117.179255 
L 230.280703 117.179255 
L 230.280703 117.053379 
L 230.400604 117.053379 
L 230.400604 116.927503 
L 230.626078 116.927503 
L 230.695791 116.675752 
L 230.791068 116.675752 
L 230.800507 116.298124 
L 232.124185 116.298124 
L 232.124185 116.046372 
L 232.856146 116.046372 
L 232.856146 115.920497 
L 233.348733 115.920497 
L 233.348733 115.794621 
L 234.272777 115.794621 
L 234.272777 115.542869 
L 234.745879 115.542869 
L 234.745879 115.416993 
L 235.173502 115.416993 
L 235.173502 115.291117 
L 235.701501 115.291117 
L 235.701501 115.165241 
L 236.180143 115.165241 
L 236.180143 114.91349 
L 236.924688 114.91349 
L 236.924688 114.787614 
L 237.266799 114.787614 
L 237.266799 114.661738 
L 237.44925 114.661738 
L 237.482795 114.158234 
L 237.713334 114.158234 
L 237.713334 113.906483 
L 237.882461 113.906483 
L 237.882461 113.780607 
L 238.565406 113.780607 
L 238.565406 113.528855 
L 238.903321 113.528855 
L 238.903321 113.402979 
L 240.080963 113.402979 
L 240.080963 113.151228 
L 240.317229 113.151228 
L 240.317229 113.025352 
L 240.533699 113.025352 
L 240.533699 112.7736 
L 240.676764 112.7736 
L 240.676764 112.647724 
L 241.240195 112.647724 
L 241.240195 112.395972 
L 241.613499 112.395972 
L 241.62164 112.018345 
L 242.019427 112.018345 
L 242.019427 111.766593 
L 242.274781 111.766593 
L 242.274781 111.514841 
L 242.589678 111.514841 
L 242.624269 111.26309 
L 242.960793 111.26309 
L 242.960793 111.137214 
L 244.280483 111.137214 
L 244.280483 110.885462 
L 244.674821 110.885462 
L 244.674821 110.759586 
L 245.286086 110.759586 
L 245.286086 110.507834 
L 245.411779 110.507834 
L 245.411779 110.381959 
L 245.541235 110.381959 
L 245.577404 109.878455 
L 245.722526 109.878455 
L 245.722526 109.752579 
L 246.243142 109.752579 
L 246.243142 109.626703 
L 246.58057 109.626703 
L 246.58057 109.374952 
L 247.114518 109.374952 
L 247.133801 108.997324 
L 247.277399 108.997324 
L 247.376175 108.493821 
L 248.083349 108.493821 
L 248.112945 108.116193 
L 249.076999 108.116193 
L 249.076999 107.864441 
L 249.271939 107.864441 
L 249.271939 107.61269 
L 249.513098 107.61269 
L 249.595968 107.235062 
L 249.860918 107.235062 
L 249.860918 106.98331 
L 250.365431 106.98331 
L 250.365431 106.857434 
L 250.649422 106.857434 
L 250.649422 106.731559 
L 250.993809 106.731559 
L 251.054136 106.353931 
L 251.250729 106.353931 
L 251.250729 106.102179 
L 251.654473 106.102179 
L 251.689734 105.724552 
L 252.468299 105.724552 
L 252.468299 105.598676 
L 254.726524 105.598676 
L 254.806232 105.346924 
L 255.207349 105.346924 
L 255.207349 105.221048 
L 255.8831 105.221048 
L 255.988758 104.843421 
L 256.161914 104.843421 
L 256.161914 104.591669 
L 256.489553 104.591669 
L 256.489553 104.465793 
L 256.609744 104.465793 
L 256.609744 104.339917 
L 256.764649 104.339917 
L 256.764649 104.214041 
L 256.908555 104.214041 
L 256.908555 104.088166 
L 257.08002 104.088166 
L 257.08002 103.96229 
L 257.593865 103.96229 
L 257.667604 103.584662 
L 257.964305 103.584662 
L 257.964305 103.458786 
L 258.370206 103.458786 
L 258.421565 102.955283 
L 258.621309 102.955283 
L 258.621309 102.829407 
L 258.914323 102.829407 
L 258.914323 102.703531 
L 259.264038 102.703531 
L 259.264038 102.577655 
L 259.4209 102.577655 
L 259.4209 102.451779 
L 259.96885 102.451779 
L 259.96885 102.200028 
L 260.284714 102.200028 
L 260.385875 101.696524 
L 260.543143 101.696524 
L 260.570821 101.444772 
L 261.073512 101.444772 
L 261.073512 101.193021 
L 261.579051 101.193021 
L 261.579051 100.941269 
L 261.728271 100.941269 
L 261.806857 100.563641 
L 262.252584 100.563641 
L 262.252584 100.437766 
L 264.053938 100.437766 
L 264.053938 100.31189 
L 264.482574 100.31189 
L 264.482574 100.186014 
L 266.128174 100.186014 
L 266.130001 99.934262 
L 266.70938 99.934262 
L 266.70938 99.808386 
L 267.603572 99.808386 
L 267.641595 99.430759 
L 268.604304 99.430759 
L 268.660042 98.927255 
L 268.724917 98.927255 
L 268.724917 98.801379 
L 269.464556 98.801379 
L 269.464556 98.675503 
L 269.631282 98.675503 
L 269.631282 98.549628 
L 270.264578 98.549628 
L 270.264578 98.423752 
L 272.039114 98.423752 
L 272.039114 98.297876 
L 273.303078 98.297876 
L 273.303078 98.046124 
L 273.682682 98.046124 
L 273.682682 97.794372 
L 273.83916 97.794372 
L 273.83916 97.668497 
L 274.010422 97.668497 
L 274.010422 97.542621 
L 360.8064 97.542621 
L 360.8064 97.542621 
" style="fill: none; stroke: #ff00ff; stroke-width: 1.5; stroke-linecap: square"/>
   </g>
   <g id="line2d_41">
    <defs>
     <path id="m3c1af69413" d="M 0 8.485281 
L 5.091169 0 
L 0 -8.485281 
L -5.091169 0 
z
" style="stroke: #ff00ff; stroke-width: 1.5; stroke-linejoin: miter"/>
    </defs>
    <g>
     <use xlink:href="#m3c1af69413" x="140.188837" y="234.999062" style="fill-opacity: 0; stroke: #ff00ff; stroke-width: 1.5; stroke-linejoin: miter"/>
     <use xlink:href="#m3c1af69413" x="186.106119" y="164.256828" style="fill-opacity: 0; stroke: #ff00ff; stroke-width: 1.5; stroke-linejoin: miter"/>
     <use xlink:href="#m3c1af69413" x="245.411779" y="110.381959" style="fill-opacity: 0; stroke: #ff00ff; stroke-width: 1.5; stroke-linejoin: miter"/>
     <use xlink:href="#m3c1af69413" x="274.010422" y="97.542621" style="fill-opacity: 0; stroke: #ff00ff; stroke-width: 1.5; stroke-linejoin: miter"/>
     <use xlink:href="#m3c1af69413" x="274.010422" y="97.542621" style="fill-opacity: 0; stroke: #ff00ff; stroke-width: 1.5; stroke-linejoin: miter"/>
     <use xlink:href="#m3c1af69413" x="360.8064" y="97.542621" style="fill-opacity: 0; stroke: #ff00ff; stroke-width: 1.5; stroke-linejoin: miter"/>
    </g>
   </g>
   <g id="line2d_42">
    <path style="fill: none; stroke: #ff00ff; stroke-width: 1.5; stroke-linecap: square"/>
    <g/>
   </g>
   <g id="line2d_43">
    <path d="M 274.176063 97.542621 
" clip-path="url(#pedff4747cb)" style="fill: none; stroke: #ff00ff; stroke-width: 1.5; stroke-linecap: square"/>
    <defs>
     <path id="mc0955769a8" d="M -12 12 
L 12 -12 
M -12 -12 
L 12 12 
" style="stroke: #ff00ff"/>
    </defs>
    <g clip-path="url(#pedff4747cb)">
     <use xlink:href="#mc0955769a8" x="274.176063" y="97.542621" style="fill: #ff00ff; stroke: #ff00ff"/>
    </g>
   </g>
   <g id="line2d_44">
    <defs>
     <path id="m11c3bc4fe4" d="M 0 1.5 
C 0.397805 1.5 0.77937 1.341951 1.06066 1.06066 
C 1.341951 0.77937 1.5 0.397805 1.5 0 
C 1.5 -0.397805 1.341951 -0.77937 1.06066 -1.06066 
C 0.77937 -1.341951 0.397805 -1.5 0 -1.5 
C -0.397805 -1.5 -0.77937 -1.341951 -1.06066 -1.06066 
C -1.341951 -0.77937 -1.5 -0.397805 -1.5 0 
C -1.5 0.397805 -1.341951 0.77937 -1.06066 1.06066 
C -0.77937 1.341951 -0.397805 1.5 0 1.5 
z
" style="stroke: #6495ed"/>
    </defs>
    <g>
     <use xlink:href="#m11c3bc4fe4" x="113.954374" y="241.041103" style="fill: #6495ed; stroke: #6495ed"/>
     <use xlink:href="#m11c3bc4fe4" x="113.954374" y="241.041103" style="fill: #6495ed; stroke: #6495ed"/>
    </g>
   </g>
   <g id="line2d_45">
    <path d="M 36.933397 298.944 
L 36.933397 296.048855 
L 49.972572 296.048855 
L 49.972572 295.041848 
L 57.6 295.041848 
L 57.6 293.027834 
L 63.011746 293.027834 
L 63.011746 290.13269 
L 67.209423 290.13269 
L 67.209423 289.377434 
L 70.639174 289.377434 
L 70.639174 287.9928 
L 73.538988 287.9928 
L 73.538988 286.608166 
L 76.050921 286.608166 
L 76.050921 285.097655 
L 78.266603 285.097655 
L 78.266603 284.468276 
L 80.248597 284.468276 
L 80.248597 283.209517 
L 82.04153 283.209517 
L 82.04153 283.083641 
L 83.678349 283.083641 
L 83.678349 282.706014 
L 85.184077 282.706014 
L 85.184077 281.950759 
L 86.578163 281.950759 
L 86.578163 281.321379 
L 87.876026 281.321379 
L 87.876026 280.943752 
L 89.090095 280.943752 
L 89.090095 280.817876 
L 90.230539 280.817876 
L 90.230539 279.810869 
L 92.322865 279.810869 
L 92.322865 279.307366 
L 93.287772 279.307366 
L 93.287772 279.055614 
L 94.205591 279.055614 
L 94.205591 278.55211 
L 95.080704 278.55211 
L 95.080704 278.426234 
L 95.916911 278.426234 
L 95.916911 277.922731 
L 96.717523 277.922731 
L 96.717523 277.293352 
L 97.485448 277.293352 
L 97.485448 276.412221 
L 98.223251 276.412221 
L 98.223251 276.286345 
L 98.933205 276.286345 
L 98.933205 275.782841 
L 99.617337 275.782841 
L 99.617337 275.53109 
L 100.277459 275.53109 
L 100.277459 275.027586 
L 100.9152 275.027586 
L 100.9152 274.90171 
L 101.532027 274.90171 
L 101.532027 274.649959 
L 102.12927 274.649959 
L 102.12927 274.272331 
L 102.708132 274.272331 
L 102.708132 270.873683 
L 103.269713 270.873683 
L 103.269713 267.978538 
L 103.815014 267.978538 
L 103.815014 263.321131 
L 104.344952 263.321131 
L 104.344952 261.936497 
L 104.860369 261.936497 
L 104.860369 261.055366 
L 105.36204 261.055366 
L 105.36204 260.174234 
L 105.850679 260.174234 
L 105.850679 258.7896 
L 106.326946 258.7896 
L 106.326946 257.027338 
L 106.791453 257.027338 
L 106.791453 255.768579 
L 107.244765 255.768579 
L 107.244765 254.509821 
L 107.68741 254.509821 
L 107.68741 253.376938 
L 108.119879 253.376938 
L 108.119879 252.99931 
L 108.542628 252.99931 
L 108.542628 251.614676 
L 108.956085 251.614676 
L 108.956085 250.859421 
L 109.360651 250.859421 
L 109.360651 250.104166 
L 109.756698 250.104166 
L 109.756698 249.34891 
L 110.144579 249.34891 
L 110.144579 247.8384 
L 110.524623 247.8384 
L 110.524623 247.209021 
L 110.897141 247.209021 
L 110.897141 246.579641 
L 111.262425 246.579641 
L 111.262425 245.572634 
L 111.620752 245.572634 
L 111.620752 245.320883 
L 111.97238 245.320883 
L 111.97238 244.817379 
L 112.317555 244.817379 
L 112.317555 244.439752 
L 112.656511 244.439752 
L 112.656511 242.425738 
L 112.989468 242.425738 
L 112.989468 241.796359 
L 113.316634 241.796359 
L 113.316634 241.670483 
L 113.638206 241.670483 
L 113.638206 241.544607 
L 113.954374 241.544607 
L 113.954374 241.041103 
L 360.8064 241.041103 
" style="fill: none; stroke: #6495ed; stroke-width: 1.5; stroke-linecap: square"/>
   </g>
   <g id="line2d_46">
    <defs>
     <path id="mefb86b38a7" d="M -0 6 
L 6 -6 
L -6 -6 
z
" style="stroke: #6495ed; stroke-width: 1.5; stroke-linejoin: miter"/>
    </defs>
    <g>
     <use xlink:href="#mefb86b38a7" x="103.269713" y="267.978538" style="fill-opacity: 0; stroke: #6495ed; stroke-width: 1.5; stroke-linejoin: miter"/>
     <use xlink:href="#mefb86b38a7" x="113.954374" y="241.544607" style="fill-opacity: 0; stroke: #6495ed; stroke-width: 1.5; stroke-linejoin: miter"/>
     <use xlink:href="#mefb86b38a7" x="113.954374" y="241.041103" style="fill-opacity: 0; stroke: #6495ed; stroke-width: 1.5; stroke-linejoin: miter"/>
     <use xlink:href="#mefb86b38a7" x="113.954374" y="241.041103" style="fill-opacity: 0; stroke: #6495ed; stroke-width: 1.5; stroke-linejoin: miter"/>
     <use xlink:href="#mefb86b38a7" x="113.954374" y="241.041103" style="fill-opacity: 0; stroke: #6495ed; stroke-width: 1.5; stroke-linejoin: miter"/>
     <use xlink:href="#mefb86b38a7" x="360.8064" y="241.041103" style="fill-opacity: 0; stroke: #6495ed; stroke-width: 1.5; stroke-linejoin: miter"/>
    </g>
   </g>
   <g id="line2d_47">
    <path style="fill: none; stroke: #6495ed; stroke-width: 1.5; stroke-linecap: square"/>
    <g/>
   </g>
   <g id="line2d_48">
    <path d="M 113.954374 241.041103 
" clip-path="url(#pedff4747cb)" style="fill: none; stroke: #6495ed; stroke-width: 1.5; stroke-linecap: square"/>
    <defs>
     <path id="mf87fa88773" d="M -12 12 
L 12 -12 
M -12 -12 
L 12 12 
" style="stroke: #6495ed"/>
    </defs>
    <g clip-path="url(#pedff4747cb)">
     <use xlink:href="#mf87fa88773" x="113.954374" y="241.041103" style="fill: #6495ed; stroke: #6495ed"/>
    </g>
   </g>
   <g id="line2d_49">
    <path d="M 360.8064 278.174483 
L 380.514816 293.10336 
" style="fill: none; stroke: #000080; stroke-width: 1.5; stroke-linecap: square"/>
    <g>
     <use xlink:href="#m7f15fd1d46" x="360.8064" y="278.174483" style="fill-opacity: 0; stroke: #000080; stroke-width: 1.5"/>
     <use xlink:href="#m7f15fd1d46" x="380.514816" y="293.10336" style="fill-opacity: 0; stroke: #000080; stroke-width: 1.5"/>
    </g>
   </g>
   <g id="line2d_50">
    <path d="M 360.8064 241.041103 
L 380.514816 199.65312 
" style="fill: none; stroke: #6495ed; stroke-width: 1.5; stroke-linecap: square"/>
    <g>
     <use xlink:href="#mefb86b38a7" x="360.8064" y="241.041103" style="fill-opacity: 0; stroke: #6495ed; stroke-width: 1.5; stroke-linejoin: miter"/>
     <use xlink:href="#mefb86b38a7" x="380.514816" y="199.65312" style="fill-opacity: 0; stroke: #6495ed; stroke-width: 1.5; stroke-linejoin: miter"/>
    </g>
   </g>
   <g id="line2d_51">
    <path d="M 360.8064 97.542621 
L 380.514816 106.20288 
" style="fill: none; stroke: #ff00ff; stroke-width: 1.5; stroke-linecap: square"/>
    <g>
     <use xlink:href="#m3c1af69413" x="360.8064" y="97.542621" style="fill-opacity: 0; stroke: #ff00ff; stroke-width: 1.5; stroke-linejoin: miter"/>
     <use xlink:href="#m3c1af69413" x="380.514816" y="106.20288" style="fill-opacity: 0; stroke: #ff00ff; stroke-width: 1.5; stroke-linejoin: miter"/>
    </g>
   </g>
   <g id="line2d_52">
    <path d="M 360.8064 298.944 
L 360.8064 6.912 
" style="fill: none; stroke: #000000; stroke-width: 1.5; stroke-linecap: square"/>
   </g>
   <g id="patch_3">
    <path d="M 57.6 298.944 
L 360.8064 298.944 
" style="fill: none; stroke: #000000; stroke-width: 0.8; stroke-linejoin: miter; stroke-linecap: square"/>
   </g>
   <g id="patch_4">
    <path d="M 57.6 6.912 
L 360.8064 6.912 
" style="fill: none; stroke: #000000; stroke-width: 0.8; stroke-linejoin: miter; stroke-linecap: square"/>
   </g>
   <g id="text_13">
    <!-- cma -->
    <g transform="translate(386.578944 296.966485)scale(0.14 -0.14)">
     <use xlink:href="#DejaVuSans-63"/>
     <use xlink:href="#DejaVuSans-6d" x="54.980469"/>
     <use xlink:href="#DejaVuSans-61" x="152.392578"/>
    </g>
   </g>
   <g id="text_14">
    <!-- parEgo -->
    <g transform="translate(386.578944 203.516245)scale(0.14 -0.14)">
     <defs>
      <path id="DejaVuSans-45" d="M 628 4666 
L 3578 4666 
L 3578 4134 
L 1259 4134 
L 1259 2753 
L 3481 2753 
L 3481 2222 
L 1259 2222 
L 1259 531 
L 3634 531 
L 3634 0 
L 628 0 
L 628 4666 
z
" transform="scale(0.015625)"/>
     </defs>
     <use xlink:href="#DejaVuSans-70"/>
     <use xlink:href="#DejaVuSans-61" x="63.476562"/>
     <use xlink:href="#DejaVuSans-72" x="124.755859"/>
     <use xlink:href="#DejaVuSans-45" x="165.869141"/>
     <use xlink:href="#DejaVuSans-67" x="229.052734"/>
     <use xlink:href="#DejaVuSans-6f" x="292.529297"/>
    </g>
   </g>
   <g id="text_15">
    <!-- external- -->
    <g transform="translate(386.578944 110.066005)scale(0.14 -0.14)">
     <defs>
      <path id="DejaVuSans-78" d="M 3513 3500 
L 2247 1797 
L 3578 0 
L 2900 0 
L 1881 1375 
L 863 0 
L 184 0 
L 1544 1831 
L 300 3500 
L 978 3500 
L 1906 2253 
L 2834 3500 
L 3513 3500 
z
" transform="scale(0.015625)"/>
     </defs>
     <use xlink:href="#DejaVuSans-65"/>
     <use xlink:href="#DejaVuSans-78" x="59.773438"/>
     <use xlink:href="#DejaVuSans-74" x="118.953125"/>
     <use xlink:href="#DejaVuSans-65" x="158.162109"/>
     <use xlink:href="#DejaVuSans-72" x="219.685547"/>
     <use xlink:href="#DejaVuSans-6e" x="259.048828"/>
     <use xlink:href="#DejaVuSans-61" x="322.427734"/>
     <use xlink:href="#DejaVuSans-6c" x="383.707031"/>
     <use xlink:href="#DejaVuSans-2d" x="411.490234"/>
    </g>
   </g>
   <g id="text_16">
    <!-- best 2016 -->
    <g transform="translate(386.578944 16.615765)scale(0.14 -0.14)">
     <defs>
      <path id="DejaVuSans-62" d="M 3116 1747 
Q 3116 2381 2855 2742 
Q 2594 3103 2138 3103 
Q 1681 3103 1420 2742 
Q 1159 2381 1159 1747 
Q 1159 1113 1420 752 
Q 1681 391 2138 391 
Q 2594 391 2855 752 
Q 3116 1113 3116 1747 
z
M 1159 2969 
Q 1341 3281 1617 3432 
Q 1894 3584 2278 3584 
Q 2916 3584 3314 3078 
Q 3713 2572 3713 1747 
Q 3713 922 3314 415 
Q 2916 -91 2278 -91 
Q 1894 -91 1617 61 
Q 1341 213 1159 525 
L 1159 0 
L 581 0 
L 581 4863 
L 1159 4863 
L 1159 2969 
z
" transform="scale(0.015625)"/>
     </defs>
     <use xlink:href="#DejaVuSans-62"/>
     <use xlink:href="#DejaVuSans-65" x="63.476562"/>
     <use xlink:href="#DejaVuSans-73" x="125"/>
     <use xlink:href="#DejaVuSans-74" x="177.099609"/>
     <use xlink:href="#DejaVuSans-20" x="216.308594"/>
     <use xlink:href="#DejaVuSans-32" x="248.095703"/>
     <use xlink:href="#DejaVuSans-30" x="311.71875"/>
     <use xlink:href="#DejaVuSans-31" x="375.341797"/>
     <use xlink:href="#DejaVuSans-36" x="438.964844"/>
    </g>
   </g>
   <g id="text_17">
    <!-- bbob-biobj f9, f10, f18, f19, 3-D -->
    <g transform="translate(60.632064 17.582726)scale(0.102 -0.102)">
     <defs>
      <path id="DejaVuSans-6a" d="M 603 3500 
L 1178 3500 
L 1178 -63 
Q 1178 -731 923 -1031 
Q 669 -1331 103 -1331 
L -116 -1331 
L -116 -844 
L 38 -844 
Q 366 -844 484 -692 
Q 603 -541 603 -63 
L 603 3500 
z
M 603 4863 
L 1178 4863 
L 1178 4134 
L 603 4134 
L 603 4863 
z
" transform="scale(0.015625)"/>
      <path id="DejaVuSans-39" d="M 703 97 
L 703 672 
Q 941 559 1184 500 
Q 1428 441 1663 441 
Q 2288 441 2617 861 
Q 2947 1281 2994 2138 
Q 2813 1869 2534 1725 
Q 2256 1581 1919 1581 
Q 1219 1581 811 2004 
Q 403 2428 403 3163 
Q 403 3881 828 4315 
Q 1253 4750 1959 4750 
Q 2769 4750 3195 4129 
Q 3622 3509 3622 2328 
Q 3622 1225 3098 567 
Q 2575 -91 1691 -91 
Q 1453 -91 1209 -44 
Q 966 3 703 97 
z
M 1959 2075 
Q 2384 2075 2632 2365 
Q 2881 2656 2881 3163 
Q 2881 3666 2632 3958 
Q 2384 4250 1959 4250 
Q 1534 4250 1286 3958 
Q 1038 3666 1038 3163 
Q 1038 2656 1286 2365 
Q 1534 2075 1959 2075 
z
" transform="scale(0.015625)"/>
      <path id="DejaVuSans-33" d="M 2597 2516 
Q 3050 2419 3304 2112 
Q 3559 1806 3559 1356 
Q 3559 666 3084 287 
Q 2609 -91 1734 -91 
Q 1441 -91 1130 -33 
Q 819 25 488 141 
L 488 750 
Q 750 597 1062 519 
Q 1375 441 1716 441 
Q 2309 441 2620 675 
Q 2931 909 2931 1356 
Q 2931 1769 2642 2001 
Q 2353 2234 1838 2234 
L 1294 2234 
L 1294 2753 
L 1863 2753 
Q 2328 2753 2575 2939 
Q 2822 3125 2822 3475 
Q 2822 3834 2567 4026 
Q 2313 4219 1838 4219 
Q 1578 4219 1281 4162 
Q 984 4106 628 3988 
L 628 4550 
Q 988 4650 1302 4700 
Q 1616 4750 1894 4750 
Q 2613 4750 3031 4423 
Q 3450 4097 3450 3541 
Q 3450 3153 3228 2886 
Q 3006 2619 2597 2516 
z
" transform="scale(0.015625)"/>
      <path id="DejaVuSans-44" d="M 1259 4147 
L 1259 519 
L 2022 519 
Q 2988 519 3436 956 
Q 3884 1394 3884 2338 
Q 3884 3275 3436 3711 
Q 2988 4147 2022 4147 
L 1259 4147 
z
M 628 4666 
L 1925 4666 
Q 3281 4666 3915 4102 
Q 4550 3538 4550 2338 
Q 4550 1131 3912 565 
Q 3275 0 1925 0 
L 628 0 
L 628 4666 
z
" transform="scale(0.015625)"/>
     </defs>
     <use xlink:href="#DejaVuSans-62"/>
     <use xlink:href="#DejaVuSans-62" x="63.476562"/>
     <use xlink:href="#DejaVuSans-6f" x="126.953125"/>
     <use xlink:href="#DejaVuSans-62" x="188.134766"/>
     <use xlink:href="#DejaVuSans-2d" x="251.611328"/>
     <use xlink:href="#DejaVuSans-62" x="287.695312"/>
     <use xlink:href="#DejaVuSans-69" x="351.171875"/>
     <use xlink:href="#DejaVuSans-6f" x="378.955078"/>
     <use xlink:href="#DejaVuSans-62" x="440.136719"/>
     <use xlink:href="#DejaVuSans-6a" x="503.613281"/>
     <use xlink:href="#DejaVuSans-20" x="531.396484"/>
     <use xlink:href="#DejaVuSans-66" x="563.183594"/>
     <use xlink:href="#DejaVuSans-39" x="598.388672"/>
     <use xlink:href="#DejaVuSans-2c" x="662.011719"/>
     <use xlink:href="#DejaVuSans-20" x="693.798828"/>
     <use xlink:href="#DejaVuSans-66" x="725.585938"/>
     <use xlink:href="#DejaVuSans-31" x="760.791016"/>
     <use xlink:href="#DejaVuSans-30" x="824.414062"/>
     <use xlink:href="#DejaVuSans-2c" x="888.037109"/>
     <use xlink:href="#DejaVuSans-20" x="919.824219"/>
     <use xlink:href="#DejaVuSans-66" x="951.611328"/>
     <use xlink:href="#DejaVuSans-31" x="986.816406"/>
     <use xlink:href="#DejaVuSans-38" x="1050.439453"/>
     <use xlink:href="#DejaVuSans-2c" x="1114.0625"/>
     <use xlink:href="#DejaVuSans-20" x="1145.849609"/>
     <use xlink:href="#DejaVuSans-66" x="1177.636719"/>
     <use xlink:href="#DejaVuSans-31" x="1212.841797"/>
     <use xlink:href="#DejaVuSans-39" x="1276.464844"/>
     <use xlink:href="#DejaVuSans-2c" x="1340.087891"/>
     <use xlink:href="#DejaVuSans-20" x="1371.875"/>
     <use xlink:href="#DejaVuSans-33" x="1403.662109"/>
     <use xlink:href="#DejaVuSans-2d" x="1467.285156"/>
     <use xlink:href="#DejaVuSans-44" x="1503.369141"/>
    </g>
    <!-- 58 targets: 1..-1.0e-4 -->
    <g transform="translate(60.632064 29.004495)scale(0.102 -0.102)">
     <defs>
      <path id="DejaVuSans-35" d="M 691 4666 
L 3169 4666 
L 3169 4134 
L 1269 4134 
L 1269 2991 
Q 1406 3038 1543 3061 
Q 1681 3084 1819 3084 
Q 2600 3084 3056 2656 
Q 3513 2228 3513 1497 
Q 3513 744 3044 326 
Q 2575 -91 1722 -91 
Q 1428 -91 1123 -41 
Q 819 9 494 109 
L 494 744 
Q 775 591 1075 516 
Q 1375 441 1709 441 
Q 2250 441 2565 725 
Q 2881 1009 2881 1497 
Q 2881 1984 2565 2268 
Q 2250 2553 1709 2553 
Q 1456 2553 1204 2497 
Q 953 2441 691 2322 
L 691 4666 
z
" transform="scale(0.015625)"/>
      <path id="DejaVuSans-3a" d="M 750 794 
L 1409 794 
L 1409 0 
L 750 0 
L 750 794 
z
M 750 3309 
L 1409 3309 
L 1409 2516 
L 750 2516 
L 750 3309 
z
" transform="scale(0.015625)"/>
     </defs>
     <use xlink:href="#DejaVuSans-35"/>
     <use xlink:href="#DejaVuSans-38" x="63.623047"/>
     <use xlink:href="#DejaVuSans-20" x="127.246094"/>
     <use xlink:href="#DejaVuSans-74" x="159.033203"/>
     <use xlink:href="#DejaVuSans-61" x="198.242188"/>
     <use xlink:href="#DejaVuSans-72" x="259.521484"/>
     <use xlink:href="#DejaVuSans-67" x="298.884766"/>
     <use xlink:href="#DejaVuSans-65" x="362.361328"/>
     <use xlink:href="#DejaVuSans-74" x="423.884766"/>
     <use xlink:href="#DejaVuSans-73" x="463.09375"/>
     <use xlink:href="#DejaVuSans-3a" x="515.193359"/>
     <use xlink:href="#DejaVuSans-20" x="548.884766"/>
     <use xlink:href="#DejaVuSans-31" x="580.671875"/>
     <use xlink:href="#DejaVuSans-2e" x="644.294922"/>
     <use xlink:href="#DejaVuSans-2e" x="676.082031"/>
     <use xlink:href="#DejaVuSans-2d" x="707.869141"/>
     <use xlink:href="#DejaVuSans-31" x="743.953125"/>
     <use xlink:href="#DejaVuSans-2e" x="807.576172"/>
     <use xlink:href="#DejaVuSans-30" x="839.363281"/>
     <use xlink:href="#DejaVuSans-65" x="902.986328"/>
     <use xlink:href="#DejaVuSans-2d" x="964.509766"/>
     <use xlink:href="#DejaVuSans-34" x="1000.59375"/>
    </g>
    <!-- 10 instances -->
    <g transform="translate(60.632064 40.426264)scale(0.102 -0.102)">
     <use xlink:href="#DejaVuSans-31"/>
     <use xlink:href="#DejaVuSans-30" x="63.623047"/>
     <use xlink:href="#DejaVuSans-20" x="127.246094"/>
     <use xlink:href="#DejaVuSans-69" x="159.033203"/>
     <use xlink:href="#DejaVuSans-6e" x="186.816406"/>
     <use xlink:href="#DejaVuSans-73" x="250.195312"/>
     <use xlink:href="#DejaVuSans-74" x="302.294922"/>
     <use xlink:href="#DejaVuSans-61" x="341.503906"/>
     <use xlink:href="#DejaVuSans-6e" x="402.783203"/>
     <use xlink:href="#DejaVuSans-63" x="466.162109"/>
     <use xlink:href="#DejaVuSans-65" x="521.142578"/>
     <use xlink:href="#DejaVuSans-73" x="582.666016"/>
    </g>
   </g>
   <g id="text_18">
    <!-- v2.6, hv-hash=ff0e71e8cd978373 -->
    <g style="fill: #808080" transform="translate(123.707887 293.943992)scale(0.1 -0.1)">
     <defs>
      <path id="DejaVuSans-68" d="M 3513 2113 
L 3513 0 
L 2938 0 
L 2938 2094 
Q 2938 2591 2744 2837 
Q 2550 3084 2163 3084 
Q 1697 3084 1428 2787 
Q 1159 2491 1159 1978 
L 1159 0 
L 581 0 
L 581 4863 
L 1159 4863 
L 1159 2956 
Q 1366 3272 1645 3428 
Q 1925 3584 2291 3584 
Q 2894 3584 3203 3211 
Q 3513 2838 3513 2113 
z
" transform="scale(0.015625)"/>
      <path id="DejaVuSans-3d" d="M 678 2906 
L 4684 2906 
L 4684 2381 
L 678 2381 
L 678 2906 
z
M 678 1631 
L 4684 1631 
L 4684 1100 
L 678 1100 
L 678 1631 
z
" transform="scale(0.015625)"/>
      <path id="DejaVuSans-37" d="M 525 4666 
L 3525 4666 
L 3525 4397 
L 1831 0 
L 1172 0 
L 2766 4134 
L 525 4134 
L 525 4666 
z
" transform="scale(0.015625)"/>
     </defs>
     <use xlink:href="#DejaVuSans-76"/>
     <use xlink:href="#DejaVuSans-32" x="59.179688"/>
     <use xlink:href="#DejaVuSans-2e" x="122.802734"/>
     <use xlink:href="#DejaVuSans-36" x="154.589844"/>
     <use xlink:href="#DejaVuSans-2c" x="218.212891"/>
     <use xlink:href="#DejaVuSans-20" x="250"/>
     <use xlink:href="#DejaVuSans-68" x="281.787109"/>
     <use xlink:href="#DejaVuSans-76" x="345.166016"/>
     <use xlink:href="#DejaVuSans-2d" x="401.720703"/>
     <use xlink:href="#DejaVuSans-68" x="437.804688"/>
     <use xlink:href="#DejaVuSans-61" x="501.183594"/>
     <use xlink:href="#DejaVuSans-73" x="562.462891"/>
     <use xlink:href="#DejaVuSans-68" x="614.5625"/>
     <use xlink:href="#DejaVuSans-3d" x="677.941406"/>
     <use xlink:href="#DejaVuSans-66" x="761.730469"/>
     <use xlink:href="#DejaVuSans-66" x="796.935547"/>
     <use xlink:href="#DejaVuSans-30" x="832.140625"/>
     <use xlink:href="#DejaVuSans-65" x="895.763672"/>
     <use xlink:href="#DejaVuSans-37" x="957.287109"/>
     <use xlink:href="#DejaVuSans-31" x="1020.910156"/>
     <use xlink:href="#DejaVuSans-65" x="1084.533203"/>
     <use xlink:href="#DejaVuSans-38" x="1146.056641"/>
     <use xlink:href="#DejaVuSans-63" x="1209.679688"/>
     <use xlink:href="#DejaVuSans-64" x="1264.660156"/>
     <use xlink:href="#DejaVuSans-39" x="1328.136719"/>
     <use xlink:href="#DejaVuSans-37" x="1391.759766"/>
     <use xlink:href="#DejaVuSans-38" x="1455.382812"/>
     <use xlink:href="#DejaVuSans-33" x="1519.005859"/>
     <use xlink:href="#DejaVuSans-37" x="1582.628906"/>
     <use xlink:href="#DejaVuSans-33" x="1646.251953"/>
    </g>
   </g>
  </g>
 </g>
 <defs>
  <clipPath id="pedff4747cb">
   <rect x="57.6" y="6.912" width="303.2064" height="292.032"/>
  </clipPath>
 </defs>
</svg>
