<?xml version="1.0" encoding="utf-8" standalone="no"?>
<!DOCTYPE svg PUBLIC "-//W3C//DTD SVG 1.1//EN"
  "http://www.w3.org/Graphics/SVG/1.1/DTD/svg11.dtd">
<svg xmlns:xlink="http://www.w3.org/1999/xlink" width="460.8pt" height="345.6pt" viewBox="0 0 460.8 345.6" xmlns="http://www.w3.org/2000/svg" version="1.1">
 <metadata>
  <rdf:RDF xmlns:dc="http://purl.org/dc/elements/1.1/" xmlns:cc="http://creativecommons.org/ns#" xmlns:rdf="http://www.w3.org/1999/02/22-rdf-syntax-ns#">
   <cc:Work>
    <dc:type rdf:resource="http://purl.org/dc/dcmitype/StillImage"/>
    <dc:date>2022-06-19T21:02:46.089597</dc:date>
    <dc:format>image/svg+xml</dc:format>
    <dc:creator>
     <cc:Agent>
      <dc:title>Matplotlib v3.5.1, https://matplotlib.org/</dc:title>
     </cc:Agent>
    </dc:creator>
   </cc:Work>
  </rdf:RDF>
 </metadata>
 <defs>
  <style type="text/css">*{stroke-linejoin: round; stroke-linecap: butt}</style>
 </defs>
 <g id="figure_1">
  <g id="patch_1">
   <path d="M 0 345.6 
L 460.8 345.6 
L 460.8 0 
L 0 0 
z
" style="fill: #ffffff"/>
  </g>
  <g id="axes_1">
   <g id="patch_2">
    <path d="M 57.6 298.944 
L 360.8064 298.944 
L 360.8064 6.912 
L 57.6 6.912 
z
" style="fill: #ffffff"/>
   </g>
   <g id="line2d_1">
    <path d="M 1.245626 298.944 
L 1.245626 295.167724 
L 21.912228 295.167724 
L 21.912228 292.650207 
L 34.951403 292.650207 
L 34.951403 291.391448 
L 37.851216 291.391448 
L 37.851216 288.873931 
L 49.496305 288.873931 
L 49.496305 286.356414 
L 61.029752 286.356414 
L 61.029752 283.838897 
L 65.844256 283.838897 
L 65.844256 281.321379 
L 67.020361 281.321379 
L 67.020361 278.803862 
L 73.268314 278.803862 
L 73.268314 276.286345 
L 75.574654 276.286345 
L 75.574654 275.027586 
L 79.77233 275.027586 
L 79.77233 272.510069 
L 85.25629 272.510069 
L 85.25629 271.25131 
L 88.432072 271.25131 
L 88.432072 269.992552 
L 88.972154 269.992552 
L 88.972154 268.733793 
L 89.668958 268.733793 
L 89.668958 264.957517 
L 92.372304 264.957517 
L 92.372304 261.181241 
L 94.865713 261.181241 
L 94.865713 257.404966 
L 94.995002 257.404966 
L 94.995002 253.62869 
L 99.950294 253.62869 
L 99.950294 251.111172 
L 101.833019 251.111172 
L 101.833019 248.593655 
L 104.028784 248.593655 
L 104.028784 246.076138 
L 111.388617 246.076138 
L 111.388617 243.558621 
L 112.487797 243.558621 
L 112.487797 242.299862 
L 117.266185 242.299862 
L 117.266185 241.041103 
L 118.413586 241.041103 
L 118.413586 239.782345 
L 121.830966 239.782345 
L 121.830966 237.264828 
L 128.39771 237.264828 
L 128.39771 236.006069 
L 128.657782 236.006069 
L 128.657782 233.488552 
L 129.581749 233.488552 
L 129.581749 230.971034 
L 130.305359 230.971034 
L 130.305359 227.194759 
L 133.423621 227.194759 
L 133.423621 223.418483 
L 137.168148 223.418483 
L 137.168148 220.900966 
L 137.707972 220.900966 
L 137.707972 217.12469 
L 139.520245 217.12469 
L 139.520245 214.607172 
L 140.243172 214.607172 
L 140.243172 212.089655 
L 145.139259 212.089655 
L 145.192955 207.054621 
L 145.450347 207.054621 
L 145.450347 204.537103 
L 148.689612 204.537103 
L 148.689612 200.760828 
L 151.471384 200.760828 
L 151.471384 198.24331 
L 152.727811 198.24331 
L 152.727811 195.725793 
L 153.113003 195.725793 
L 153.113003 193.208276 
L 157.325925 193.208276 
L 157.325925 190.690759 
L 158.365703 190.690759 
L 158.365703 189.432 
L 160.909774 189.432 
L 160.909774 186.914483 
L 161.391854 186.914483 
L 161.391854 185.655724 
L 165.214111 185.655724 
L 165.214111 183.138207 
L 167.112684 183.138207 
L 167.112684 179.361931 
L 168.635126 179.361931 
L 168.635126 178.103172 
L 169.28186 178.103172 
L 169.28186 174.326897 
L 172.898998 174.326897 
L 172.898998 171.809379 
L 176.528822 171.809379 
L 176.528822 170.550621 
L 176.96797 170.550621 
L 176.96797 166.774345 
L 179.955757 166.774345 
L 179.955757 165.515586 
L 183.462793 165.515586 
L 183.462793 164.256828 
L 184.004153 164.256828 
L 184.004153 160.480552 
L 187.410614 160.480552 
L 187.410614 159.221793 
L 191.69053 159.221793 
L 191.75456 152.928 
L 191.813875 152.928 
L 191.813875 149.151724 
L 196.885984 149.151724 
L 196.885984 145.375448 
L 200.417551 145.375448 
L 200.417551 144.11669 
L 201.407399 144.11669 
L 201.407399 142.857931 
L 204.807642 142.857931 
L 204.807642 140.340414 
L 205.374625 140.340414 
L 205.374625 137.822897 
L 208.1261 137.822897 
L 208.1261 134.046621 
L 209.364151 134.046621 
L 209.364151 130.270345 
L 212.51493 130.270345 
L 212.51493 129.011586 
L 214.990318 129.011586 
L 214.990318 127.752828 
L 216.397098 127.752828 
L 216.397098 126.494069 
L 218.649651 126.494069 
L 218.649651 123.976552 
L 219.239748 123.976552 
L 219.239748 120.200276 
L 221.462135 120.200276 
L 221.462135 116.424 
L 226.048639 116.424 
L 226.048639 115.165241 
L 228.076775 115.165241 
L 228.103912 108.871448 
L 230.416052 108.871448 
L 230.416052 107.61269 
L 232.911641 107.61269 
L 232.911641 103.836414 
L 234.389444 103.836414 
L 234.389444 101.318897 
L 236.407948 101.318897 
L 236.407948 97.542621 
L 237.247653 97.542621 
L 237.247653 96.283862 
L 239.409809 96.283862 
L 239.409809 93.766345 
L 241.390138 93.766345 
L 241.390138 92.507586 
L 242.528738 92.507586 
L 242.528738 88.73131 
L 243.349811 88.73131 
L 243.349811 87.472552 
L 246.776609 87.472552 
L 246.776609 84.955034 
L 247.151507 84.955034 
L 247.151507 82.437517 
L 248.934208 82.437517 
L 248.934208 79.92 
L 253.709221 79.92 
L 253.709221 76.143724 
L 255.397327 76.143724 
L 255.397327 73.626207 
L 256.499384 73.626207 
L 256.499384 72.367448 
L 257.959836 72.367448 
L 257.959836 68.591172 
L 259.199966 68.591172 
L 259.199966 67.332414 
L 262.708884 67.332414 
L 262.708884 64.814897 
L 262.846014 64.814897 
L 262.846014 62.297379 
L 264.677208 62.297379 
L 264.677208 59.779862 
L 272.331474 59.779862 
L 272.331474 57.262345 
L 273.441827 57.262345 
L 273.441827 53.486069 
L 280.764238 53.486069 
L 280.764238 52.22731 
L 285.161449 52.22731 
L 285.161449 48.451034 
L 291.128827 48.451034 
L 291.128827 45.933517 
L 301.115322 45.933517 
L 301.115322 42.157241 
L 360.8064 42.157241 
L 360.8064 42.157241 
" style="fill: none; stroke: #f5deb3; stroke-width: 4; stroke-linecap: square"/>
   </g>
   <g id="line2d_2">
    <defs>
     <path id="m0b58eb98b2" d="M 0 7.778175 
L 7.778175 0 
L 0 -7.778175 
L -7.778175 0 
z
" style="stroke: #f5deb3; stroke-width: 1.5; stroke-linejoin: miter"/>
    </defs>
    <g>
     <use xlink:href="#m0b58eb98b2" x="67.020361" y="281.321379" style="fill: #f5deb3; stroke: #f5deb3; stroke-width: 1.5; stroke-linejoin: miter"/>
     <use xlink:href="#m0b58eb98b2" x="151.471384" y="198.24331" style="fill: #f5deb3; stroke: #f5deb3; stroke-width: 1.5; stroke-linejoin: miter"/>
     <use xlink:href="#m0b58eb98b2" x="205.374625" y="137.822897" style="fill: #f5deb3; stroke: #f5deb3; stroke-width: 1.5; stroke-linejoin: miter"/>
     <use xlink:href="#m0b58eb98b2" x="259.199966" y="67.332414" style="fill: #f5deb3; stroke: #f5deb3; stroke-width: 1.5; stroke-linejoin: miter"/>
     <use xlink:href="#m0b58eb98b2" x="301.115322" y="42.157241" style="fill: #f5deb3; stroke: #f5deb3; stroke-width: 1.5; stroke-linejoin: miter"/>
     <use xlink:href="#m0b58eb98b2" x="360.8064" y="42.157241" style="fill: #f5deb3; stroke: #f5deb3; stroke-width: 1.5; stroke-linejoin: miter"/>
    </g>
   </g>
   <g id="line2d_3">
    <path style="fill: none; stroke: #f5deb3; stroke-width: 4; stroke-linecap: square"/>
    <g/>
   </g>
   <g id="line2d_4">
    <path d="M 360.8064 42.157241 
L 380.514816 12.75264 
" style="fill: none; stroke: #f5deb3; stroke-width: 4; stroke-linecap: square"/>
    <g>
     <use xlink:href="#m0b58eb98b2" x="360.8064" y="42.157241" style="fill: #f5deb3; stroke: #f5deb3; stroke-width: 1.5; stroke-linejoin: miter"/>
     <use xlink:href="#m0b58eb98b2" x="380.514816" y="12.75264" style="fill: #f5deb3; stroke: #f5deb3; stroke-width: 1.5; stroke-linejoin: miter"/>
    </g>
   </g>
   <g id="matplotlib.axis_1">
    <g id="xtick_1">
     <g id="line2d_5">
      <path d="M 57.6 298.944 
L 57.6 6.912 
" clip-path="url(#p0914a92930)" style="fill: none; stroke: #b0b0b0; stroke-width: 0.8; stroke-linecap: square"/>
     </g>
     <g id="line2d_6">
      <defs>
       <path id="mc672e99bad" d="M 0 0 
L 0 3.5 
" style="stroke: #000000; stroke-width: 0.8"/>
      </defs>
      <g>
       <use xlink:href="#mc672e99bad" x="57.6" y="298.944" style="stroke: #000000; stroke-width: 0.8"/>
      </g>
     </g>
     <g id="text_1">
      <!-- 0 -->
      <g transform="translate(52.191875 318.861344)scale(0.17 -0.17)">
       <defs>
        <path id="DejaVuSans-30" d="M 2034 4250 
Q 1547 4250 1301 3770 
Q 1056 3291 1056 2328 
Q 1056 1369 1301 889 
Q 1547 409 2034 409 
Q 2525 409 2770 889 
Q 3016 1369 3016 2328 
Q 3016 3291 2770 3770 
Q 2525 4250 2034 4250 
z
M 2034 4750 
Q 2819 4750 3233 4129 
Q 3647 3509 3647 2328 
Q 3647 1150 3233 529 
Q 2819 -91 2034 -91 
Q 1250 -91 836 529 
Q 422 1150 422 2328 
Q 422 3509 836 4129 
Q 1250 4750 2034 4750 
z
" transform="scale(0.015625)"/>
       </defs>
       <use xlink:href="#DejaVuSans-30"/>
      </g>
     </g>
    </g>
    <g id="xtick_2">
     <g id="line2d_7">
      <path d="M 144.2304 298.944 
L 144.2304 6.912 
" clip-path="url(#p0914a92930)" style="fill: none; stroke: #b0b0b0; stroke-width: 0.8; stroke-linecap: square"/>
     </g>
     <g id="line2d_8">
      <g>
       <use xlink:href="#mc672e99bad" x="144.2304" y="298.944" style="stroke: #000000; stroke-width: 0.8"/>
      </g>
     </g>
     <g id="text_2">
      <!-- 2 -->
      <g transform="translate(138.822275 318.861344)scale(0.17 -0.17)">
       <defs>
        <path id="DejaVuSans-32" d="M 1228 531 
L 3431 531 
L 3431 0 
L 469 0 
L 469 531 
Q 828 903 1448 1529 
Q 2069 2156 2228 2338 
Q 2531 2678 2651 2914 
Q 2772 3150 2772 3378 
Q 2772 3750 2511 3984 
Q 2250 4219 1831 4219 
Q 1534 4219 1204 4116 
Q 875 4013 500 3803 
L 500 4441 
Q 881 4594 1212 4672 
Q 1544 4750 1819 4750 
Q 2544 4750 2975 4387 
Q 3406 4025 3406 3419 
Q 3406 3131 3298 2873 
Q 3191 2616 2906 2266 
Q 2828 2175 2409 1742 
Q 1991 1309 1228 531 
z
" transform="scale(0.015625)"/>
       </defs>
       <use xlink:href="#DejaVuSans-32"/>
      </g>
     </g>
    </g>
    <g id="xtick_3">
     <g id="line2d_9">
      <path d="M 230.8608 298.944 
L 230.8608 6.912 
" clip-path="url(#p0914a92930)" style="fill: none; stroke: #b0b0b0; stroke-width: 0.8; stroke-linecap: square"/>
     </g>
     <g id="line2d_10">
      <g>
       <use xlink:href="#mc672e99bad" x="230.8608" y="298.944" style="stroke: #000000; stroke-width: 0.8"/>
      </g>
     </g>
     <g id="text_3">
      <!-- 4 -->
      <g transform="translate(225.452675 318.861344)scale(0.17 -0.17)">
       <defs>
        <path id="DejaVuSans-34" d="M 2419 4116 
L 825 1625 
L 2419 1625 
L 2419 4116 
z
M 2253 4666 
L 3047 4666 
L 3047 1625 
L 3713 1625 
L 3713 1100 
L 3047 1100 
L 3047 0 
L 2419 0 
L 2419 1100 
L 313 1100 
L 313 1709 
L 2253 4666 
z
" transform="scale(0.015625)"/>
       </defs>
       <use xlink:href="#DejaVuSans-34"/>
      </g>
     </g>
    </g>
    <g id="xtick_4">
     <g id="line2d_11">
      <path d="M 317.4912 298.944 
L 317.4912 6.912 
" clip-path="url(#p0914a92930)" style="fill: none; stroke: #b0b0b0; stroke-width: 0.8; stroke-linecap: square"/>
     </g>
     <g id="line2d_12">
      <g>
       <use xlink:href="#mc672e99bad" x="317.4912" y="298.944" style="stroke: #000000; stroke-width: 0.8"/>
      </g>
     </g>
     <g id="text_4">
      <!-- 6 -->
      <g transform="translate(312.083075 318.861344)scale(0.17 -0.17)">
       <defs>
        <path id="DejaVuSans-36" d="M 2113 2584 
Q 1688 2584 1439 2293 
Q 1191 2003 1191 1497 
Q 1191 994 1439 701 
Q 1688 409 2113 409 
Q 2538 409 2786 701 
Q 3034 994 3034 1497 
Q 3034 2003 2786 2293 
Q 2538 2584 2113 2584 
z
M 3366 4563 
L 3366 3988 
Q 3128 4100 2886 4159 
Q 2644 4219 2406 4219 
Q 1781 4219 1451 3797 
Q 1122 3375 1075 2522 
Q 1259 2794 1537 2939 
Q 1816 3084 2150 3084 
Q 2853 3084 3261 2657 
Q 3669 2231 3669 1497 
Q 3669 778 3244 343 
Q 2819 -91 2113 -91 
Q 1303 -91 875 529 
Q 447 1150 447 2328 
Q 447 3434 972 4092 
Q 1497 4750 2381 4750 
Q 2619 4750 2861 4703 
Q 3103 4656 3366 4563 
z
" transform="scale(0.015625)"/>
       </defs>
       <use xlink:href="#DejaVuSans-36"/>
      </g>
     </g>
    </g>
    <g id="xtick_5">
     <g id="line2d_13">
      <path d="M 100.9152 298.944 
L 100.9152 6.912 
" clip-path="url(#p0914a92930)" style="fill: none; stroke: #b0b0b0; stroke-width: 0.8; stroke-linecap: square"/>
     </g>
     <g id="line2d_14">
      <defs>
       <path id="mbc6f9352f8" d="M 0 0 
L 0 2 
" style="stroke: #000000; stroke-width: 0.6"/>
      </defs>
      <g>
       <use xlink:href="#mbc6f9352f8" x="100.9152" y="298.944" style="stroke: #000000; stroke-width: 0.6"/>
      </g>
     </g>
    </g>
    <g id="xtick_6">
     <g id="line2d_15">
      <path d="M 187.5456 298.944 
L 187.5456 6.912 
" clip-path="url(#p0914a92930)" style="fill: none; stroke: #b0b0b0; stroke-width: 0.8; stroke-linecap: square"/>
     </g>
     <g id="line2d_16">
      <g>
       <use xlink:href="#mbc6f9352f8" x="187.5456" y="298.944" style="stroke: #000000; stroke-width: 0.6"/>
      </g>
     </g>
    </g>
    <g id="xtick_7">
     <g id="line2d_17">
      <path d="M 274.176 298.944 
L 274.176 6.912 
" clip-path="url(#p0914a92930)" style="fill: none; stroke: #b0b0b0; stroke-width: 0.8; stroke-linecap: square"/>
     </g>
     <g id="line2d_18">
      <g>
       <use xlink:href="#mbc6f9352f8" x="274.176" y="298.944" style="stroke: #000000; stroke-width: 0.6"/>
      </g>
     </g>
    </g>
    <g id="xtick_8">
     <g id="line2d_19">
      <path d="M 360.8064 298.944 
L 360.8064 6.912 
" clip-path="url(#p0914a92930)" style="fill: none; stroke: #b0b0b0; stroke-width: 0.8; stroke-linecap: square"/>
     </g>
     <g id="line2d_20">
      <g>
       <use xlink:href="#mbc6f9352f8" x="360.8064" y="298.944" style="stroke: #000000; stroke-width: 0.6"/>
      </g>
     </g>
    </g>
    <g id="text_5">
     <!-- log10(# f-evals / dimension) -->
     <g transform="translate(88.823278 339.314156)scale(0.17 -0.17)">
      <defs>
       <path id="DejaVuSans-6c" d="M 603 4863 
L 1178 4863 
L 1178 0 
L 603 0 
L 603 4863 
z
" transform="scale(0.015625)"/>
       <path id="DejaVuSans-6f" d="M 1959 3097 
Q 1497 3097 1228 2736 
Q 959 2375 959 1747 
Q 959 1119 1226 758 
Q 1494 397 1959 397 
Q 2419 397 2687 759 
Q 2956 1122 2956 1747 
Q 2956 2369 2687 2733 
Q 2419 3097 1959 3097 
z
M 1959 3584 
Q 2709 3584 3137 3096 
Q 3566 2609 3566 1747 
Q 3566 888 3137 398 
Q 2709 -91 1959 -91 
Q 1206 -91 779 398 
Q 353 888 353 1747 
Q 353 2609 779 3096 
Q 1206 3584 1959 3584 
z
" transform="scale(0.015625)"/>
       <path id="DejaVuSans-67" d="M 2906 1791 
Q 2906 2416 2648 2759 
Q 2391 3103 1925 3103 
Q 1463 3103 1205 2759 
Q 947 2416 947 1791 
Q 947 1169 1205 825 
Q 1463 481 1925 481 
Q 2391 481 2648 825 
Q 2906 1169 2906 1791 
z
M 3481 434 
Q 3481 -459 3084 -895 
Q 2688 -1331 1869 -1331 
Q 1566 -1331 1297 -1286 
Q 1028 -1241 775 -1147 
L 775 -588 
Q 1028 -725 1275 -790 
Q 1522 -856 1778 -856 
Q 2344 -856 2625 -561 
Q 2906 -266 2906 331 
L 2906 616 
Q 2728 306 2450 153 
Q 2172 0 1784 0 
Q 1141 0 747 490 
Q 353 981 353 1791 
Q 353 2603 747 3093 
Q 1141 3584 1784 3584 
Q 2172 3584 2450 3431 
Q 2728 3278 2906 2969 
L 2906 3500 
L 3481 3500 
L 3481 434 
z
" transform="scale(0.015625)"/>
       <path id="DejaVuSans-31" d="M 794 531 
L 1825 531 
L 1825 4091 
L 703 3866 
L 703 4441 
L 1819 4666 
L 2450 4666 
L 2450 531 
L 3481 531 
L 3481 0 
L 794 0 
L 794 531 
z
" transform="scale(0.015625)"/>
       <path id="DejaVuSans-28" d="M 1984 4856 
Q 1566 4138 1362 3434 
Q 1159 2731 1159 2009 
Q 1159 1288 1364 580 
Q 1569 -128 1984 -844 
L 1484 -844 
Q 1016 -109 783 600 
Q 550 1309 550 2009 
Q 550 2706 781 3412 
Q 1013 4119 1484 4856 
L 1984 4856 
z
" transform="scale(0.015625)"/>
       <path id="DejaVuSans-23" d="M 3272 2816 
L 2363 2816 
L 2100 1772 
L 3016 1772 
L 3272 2816 
z
M 2803 4594 
L 2478 3297 
L 3391 3297 
L 3719 4594 
L 4219 4594 
L 3897 3297 
L 4872 3297 
L 4872 2816 
L 3775 2816 
L 3519 1772 
L 4513 1772 
L 4513 1294 
L 3397 1294 
L 3072 0 
L 2572 0 
L 2894 1294 
L 1978 1294 
L 1656 0 
L 1153 0 
L 1478 1294 
L 494 1294 
L 494 1772 
L 1594 1772 
L 1856 2816 
L 850 2816 
L 850 3297 
L 1978 3297 
L 2297 4594 
L 2803 4594 
z
" transform="scale(0.015625)"/>
       <path id="DejaVuSans-20" transform="scale(0.015625)"/>
       <path id="DejaVuSans-66" d="M 2375 4863 
L 2375 4384 
L 1825 4384 
Q 1516 4384 1395 4259 
Q 1275 4134 1275 3809 
L 1275 3500 
L 2222 3500 
L 2222 3053 
L 1275 3053 
L 1275 0 
L 697 0 
L 697 3053 
L 147 3053 
L 147 3500 
L 697 3500 
L 697 3744 
Q 697 4328 969 4595 
Q 1241 4863 1831 4863 
L 2375 4863 
z
" transform="scale(0.015625)"/>
       <path id="DejaVuSans-2d" d="M 313 2009 
L 1997 2009 
L 1997 1497 
L 313 1497 
L 313 2009 
z
" transform="scale(0.015625)"/>
       <path id="DejaVuSans-65" d="M 3597 1894 
L 3597 1613 
L 953 1613 
Q 991 1019 1311 708 
Q 1631 397 2203 397 
Q 2534 397 2845 478 
Q 3156 559 3463 722 
L 3463 178 
Q 3153 47 2828 -22 
Q 2503 -91 2169 -91 
Q 1331 -91 842 396 
Q 353 884 353 1716 
Q 353 2575 817 3079 
Q 1281 3584 2069 3584 
Q 2775 3584 3186 3129 
Q 3597 2675 3597 1894 
z
M 3022 2063 
Q 3016 2534 2758 2815 
Q 2500 3097 2075 3097 
Q 1594 3097 1305 2825 
Q 1016 2553 972 2059 
L 3022 2063 
z
" transform="scale(0.015625)"/>
       <path id="DejaVuSans-76" d="M 191 3500 
L 800 3500 
L 1894 563 
L 2988 3500 
L 3597 3500 
L 2284 0 
L 1503 0 
L 191 3500 
z
" transform="scale(0.015625)"/>
       <path id="DejaVuSans-61" d="M 2194 1759 
Q 1497 1759 1228 1600 
Q 959 1441 959 1056 
Q 959 750 1161 570 
Q 1363 391 1709 391 
Q 2188 391 2477 730 
Q 2766 1069 2766 1631 
L 2766 1759 
L 2194 1759 
z
M 3341 1997 
L 3341 0 
L 2766 0 
L 2766 531 
Q 2569 213 2275 61 
Q 1981 -91 1556 -91 
Q 1019 -91 701 211 
Q 384 513 384 1019 
Q 384 1609 779 1909 
Q 1175 2209 1959 2209 
L 2766 2209 
L 2766 2266 
Q 2766 2663 2505 2880 
Q 2244 3097 1772 3097 
Q 1472 3097 1187 3025 
Q 903 2953 641 2809 
L 641 3341 
Q 956 3463 1253 3523 
Q 1550 3584 1831 3584 
Q 2591 3584 2966 3190 
Q 3341 2797 3341 1997 
z
" transform="scale(0.015625)"/>
       <path id="DejaVuSans-73" d="M 2834 3397 
L 2834 2853 
Q 2591 2978 2328 3040 
Q 2066 3103 1784 3103 
Q 1356 3103 1142 2972 
Q 928 2841 928 2578 
Q 928 2378 1081 2264 
Q 1234 2150 1697 2047 
L 1894 2003 
Q 2506 1872 2764 1633 
Q 3022 1394 3022 966 
Q 3022 478 2636 193 
Q 2250 -91 1575 -91 
Q 1294 -91 989 -36 
Q 684 19 347 128 
L 347 722 
Q 666 556 975 473 
Q 1284 391 1588 391 
Q 1994 391 2212 530 
Q 2431 669 2431 922 
Q 2431 1156 2273 1281 
Q 2116 1406 1581 1522 
L 1381 1569 
Q 847 1681 609 1914 
Q 372 2147 372 2553 
Q 372 3047 722 3315 
Q 1072 3584 1716 3584 
Q 2034 3584 2315 3537 
Q 2597 3491 2834 3397 
z
" transform="scale(0.015625)"/>
       <path id="DejaVuSans-2f" d="M 1625 4666 
L 2156 4666 
L 531 -594 
L 0 -594 
L 1625 4666 
z
" transform="scale(0.015625)"/>
       <path id="DejaVuSans-64" d="M 2906 2969 
L 2906 4863 
L 3481 4863 
L 3481 0 
L 2906 0 
L 2906 525 
Q 2725 213 2448 61 
Q 2172 -91 1784 -91 
Q 1150 -91 751 415 
Q 353 922 353 1747 
Q 353 2572 751 3078 
Q 1150 3584 1784 3584 
Q 2172 3584 2448 3432 
Q 2725 3281 2906 2969 
z
M 947 1747 
Q 947 1113 1208 752 
Q 1469 391 1925 391 
Q 2381 391 2643 752 
Q 2906 1113 2906 1747 
Q 2906 2381 2643 2742 
Q 2381 3103 1925 3103 
Q 1469 3103 1208 2742 
Q 947 2381 947 1747 
z
" transform="scale(0.015625)"/>
       <path id="DejaVuSans-69" d="M 603 3500 
L 1178 3500 
L 1178 0 
L 603 0 
L 603 3500 
z
M 603 4863 
L 1178 4863 
L 1178 4134 
L 603 4134 
L 603 4863 
z
" transform="scale(0.015625)"/>
       <path id="DejaVuSans-6d" d="M 3328 2828 
Q 3544 3216 3844 3400 
Q 4144 3584 4550 3584 
Q 5097 3584 5394 3201 
Q 5691 2819 5691 2113 
L 5691 0 
L 5113 0 
L 5113 2094 
Q 5113 2597 4934 2840 
Q 4756 3084 4391 3084 
Q 3944 3084 3684 2787 
Q 3425 2491 3425 1978 
L 3425 0 
L 2847 0 
L 2847 2094 
Q 2847 2600 2669 2842 
Q 2491 3084 2119 3084 
Q 1678 3084 1418 2786 
Q 1159 2488 1159 1978 
L 1159 0 
L 581 0 
L 581 3500 
L 1159 3500 
L 1159 2956 
Q 1356 3278 1631 3431 
Q 1906 3584 2284 3584 
Q 2666 3584 2933 3390 
Q 3200 3197 3328 2828 
z
" transform="scale(0.015625)"/>
       <path id="DejaVuSans-6e" d="M 3513 2113 
L 3513 0 
L 2938 0 
L 2938 2094 
Q 2938 2591 2744 2837 
Q 2550 3084 2163 3084 
Q 1697 3084 1428 2787 
Q 1159 2491 1159 1978 
L 1159 0 
L 581 0 
L 581 3500 
L 1159 3500 
L 1159 2956 
Q 1366 3272 1645 3428 
Q 1925 3584 2291 3584 
Q 2894 3584 3203 3211 
Q 3513 2838 3513 2113 
z
" transform="scale(0.015625)"/>
       <path id="DejaVuSans-29" d="M 513 4856 
L 1013 4856 
Q 1481 4119 1714 3412 
Q 1947 2706 1947 2009 
Q 1947 1309 1714 600 
Q 1481 -109 1013 -844 
L 513 -844 
Q 928 -128 1133 580 
Q 1338 1288 1338 2009 
Q 1338 2731 1133 3434 
Q 928 4138 513 4856 
z
" transform="scale(0.015625)"/>
      </defs>
      <use xlink:href="#DejaVuSans-6c"/>
      <use xlink:href="#DejaVuSans-6f" x="27.783203"/>
      <use xlink:href="#DejaVuSans-67" x="88.964844"/>
      <use xlink:href="#DejaVuSans-31" x="152.441406"/>
      <use xlink:href="#DejaVuSans-30" x="216.064453"/>
      <use xlink:href="#DejaVuSans-28" x="279.6875"/>
      <use xlink:href="#DejaVuSans-23" x="318.701172"/>
      <use xlink:href="#DejaVuSans-20" x="402.490234"/>
      <use xlink:href="#DejaVuSans-66" x="434.277344"/>
      <use xlink:href="#DejaVuSans-2d" x="463.982422"/>
      <use xlink:href="#DejaVuSans-65" x="500.066406"/>
      <use xlink:href="#DejaVuSans-76" x="561.589844"/>
      <use xlink:href="#DejaVuSans-61" x="620.769531"/>
      <use xlink:href="#DejaVuSans-6c" x="682.048828"/>
      <use xlink:href="#DejaVuSans-73" x="709.832031"/>
      <use xlink:href="#DejaVuSans-20" x="761.931641"/>
      <use xlink:href="#DejaVuSans-2f" x="793.71875"/>
      <use xlink:href="#DejaVuSans-20" x="827.410156"/>
      <use xlink:href="#DejaVuSans-64" x="859.197266"/>
      <use xlink:href="#DejaVuSans-69" x="922.673828"/>
      <use xlink:href="#DejaVuSans-6d" x="950.457031"/>
      <use xlink:href="#DejaVuSans-65" x="1047.869141"/>
      <use xlink:href="#DejaVuSans-6e" x="1109.392578"/>
      <use xlink:href="#DejaVuSans-73" x="1172.771484"/>
      <use xlink:href="#DejaVuSans-69" x="1224.871094"/>
      <use xlink:href="#DejaVuSans-6f" x="1252.654297"/>
      <use xlink:href="#DejaVuSans-6e" x="1313.835938"/>
      <use xlink:href="#DejaVuSans-29" x="1377.214844"/>
     </g>
    </g>
   </g>
   <g id="matplotlib.axis_2">
    <g id="ytick_1">
     <g id="line2d_21">
      <path d="M 57.6 298.944 
L 360.8064 298.944 
" clip-path="url(#p0914a92930)" style="fill: none; stroke: #b0b0b0; stroke-width: 0.8; stroke-linecap: square"/>
     </g>
     <g id="line2d_22">
      <defs>
       <path id="mc3ac207259" d="M 0 0 
L -3.5 0 
" style="stroke: #000000; stroke-width: 0.8"/>
      </defs>
      <g>
       <use xlink:href="#mc3ac207259" x="57.6" y="298.944" style="stroke: #000000; stroke-width: 0.8"/>
      </g>
     </g>
     <g id="text_6">
      <!-- 0.0 -->
      <g transform="translate(25.155 305.02275)scale(0.16 -0.16)">
       <defs>
        <path id="DejaVuSans-2e" d="M 684 794 
L 1344 794 
L 1344 0 
L 684 0 
L 684 794 
z
" transform="scale(0.015625)"/>
       </defs>
       <use xlink:href="#DejaVuSans-30"/>
       <use xlink:href="#DejaVuSans-2e" x="63.623047"/>
       <use xlink:href="#DejaVuSans-30" x="95.410156"/>
      </g>
     </g>
    </g>
    <g id="ytick_2">
     <g id="line2d_23">
      <path d="M 57.6 240.5376 
L 360.8064 240.5376 
" clip-path="url(#p0914a92930)" style="fill: none; stroke: #b0b0b0; stroke-width: 0.8; stroke-linecap: square"/>
     </g>
     <g id="line2d_24">
      <g>
       <use xlink:href="#mc3ac207259" x="57.6" y="240.5376" style="stroke: #000000; stroke-width: 0.8"/>
      </g>
     </g>
     <g id="text_7">
      <!-- 0.2 -->
      <g transform="translate(25.155 246.61635)scale(0.16 -0.16)">
       <use xlink:href="#DejaVuSans-30"/>
       <use xlink:href="#DejaVuSans-2e" x="63.623047"/>
       <use xlink:href="#DejaVuSans-32" x="95.410156"/>
      </g>
     </g>
    </g>
    <g id="ytick_3">
     <g id="line2d_25">
      <path d="M 57.6 182.1312 
L 360.8064 182.1312 
" clip-path="url(#p0914a92930)" style="fill: none; stroke: #b0b0b0; stroke-width: 0.8; stroke-linecap: square"/>
     </g>
     <g id="line2d_26">
      <g>
       <use xlink:href="#mc3ac207259" x="57.6" y="182.1312" style="stroke: #000000; stroke-width: 0.8"/>
      </g>
     </g>
     <g id="text_8">
      <!-- 0.4 -->
      <g transform="translate(25.155 188.20995)scale(0.16 -0.16)">
       <use xlink:href="#DejaVuSans-30"/>
       <use xlink:href="#DejaVuSans-2e" x="63.623047"/>
       <use xlink:href="#DejaVuSans-34" x="95.410156"/>
      </g>
     </g>
    </g>
    <g id="ytick_4">
     <g id="line2d_27">
      <path d="M 57.6 123.7248 
L 360.8064 123.7248 
" clip-path="url(#p0914a92930)" style="fill: none; stroke: #b0b0b0; stroke-width: 0.8; stroke-linecap: square"/>
     </g>
     <g id="line2d_28">
      <g>
       <use xlink:href="#mc3ac207259" x="57.6" y="123.7248" style="stroke: #000000; stroke-width: 0.8"/>
      </g>
     </g>
     <g id="text_9">
      <!-- 0.6 -->
      <g transform="translate(25.155 129.80355)scale(0.16 -0.16)">
       <use xlink:href="#DejaVuSans-30"/>
       <use xlink:href="#DejaVuSans-2e" x="63.623047"/>
       <use xlink:href="#DejaVuSans-36" x="95.410156"/>
      </g>
     </g>
    </g>
    <g id="ytick_5">
     <g id="line2d_29">
      <path d="M 57.6 65.3184 
L 360.8064 65.3184 
" clip-path="url(#p0914a92930)" style="fill: none; stroke: #b0b0b0; stroke-width: 0.8; stroke-linecap: square"/>
     </g>
     <g id="line2d_30">
      <g>
       <use xlink:href="#mc3ac207259" x="57.6" y="65.3184" style="stroke: #000000; stroke-width: 0.8"/>
      </g>
     </g>
     <g id="text_10">
      <!-- 0.8 -->
      <g transform="translate(25.155 71.39715)scale(0.16 -0.16)">
       <defs>
        <path id="DejaVuSans-38" d="M 2034 2216 
Q 1584 2216 1326 1975 
Q 1069 1734 1069 1313 
Q 1069 891 1326 650 
Q 1584 409 2034 409 
Q 2484 409 2743 651 
Q 3003 894 3003 1313 
Q 3003 1734 2745 1975 
Q 2488 2216 2034 2216 
z
M 1403 2484 
Q 997 2584 770 2862 
Q 544 3141 544 3541 
Q 544 4100 942 4425 
Q 1341 4750 2034 4750 
Q 2731 4750 3128 4425 
Q 3525 4100 3525 3541 
Q 3525 3141 3298 2862 
Q 3072 2584 2669 2484 
Q 3125 2378 3379 2068 
Q 3634 1759 3634 1313 
Q 3634 634 3220 271 
Q 2806 -91 2034 -91 
Q 1263 -91 848 271 
Q 434 634 434 1313 
Q 434 1759 690 2068 
Q 947 2378 1403 2484 
z
M 1172 3481 
Q 1172 3119 1398 2916 
Q 1625 2713 2034 2713 
Q 2441 2713 2670 2916 
Q 2900 3119 2900 3481 
Q 2900 3844 2670 4047 
Q 2441 4250 2034 4250 
Q 1625 4250 1398 4047 
Q 1172 3844 1172 3481 
z
" transform="scale(0.015625)"/>
       </defs>
       <use xlink:href="#DejaVuSans-30"/>
       <use xlink:href="#DejaVuSans-2e" x="63.623047"/>
       <use xlink:href="#DejaVuSans-38" x="95.410156"/>
      </g>
     </g>
    </g>
    <g id="ytick_6">
     <g id="line2d_31">
      <path d="M 57.6 6.912 
L 360.8064 6.912 
" clip-path="url(#p0914a92930)" style="fill: none; stroke: #b0b0b0; stroke-width: 0.8; stroke-linecap: square"/>
     </g>
     <g id="line2d_32">
      <g>
       <use xlink:href="#mc3ac207259" x="57.6" y="6.912" style="stroke: #000000; stroke-width: 0.8"/>
      </g>
     </g>
     <g id="text_11">
      <!-- 1.0 -->
      <g transform="translate(25.155 12.99075)scale(0.16 -0.16)">
       <use xlink:href="#DejaVuSans-31"/>
       <use xlink:href="#DejaVuSans-2e" x="63.623047"/>
       <use xlink:href="#DejaVuSans-30" x="95.410156"/>
      </g>
     </g>
    </g>
    <g id="text_12">
     <!-- Fraction of function,target pairs -->
     <g transform="translate(17.619531 287.313)rotate(-90)scale(0.17 -0.17)">
      <defs>
       <path id="DejaVuSans-46" d="M 628 4666 
L 3309 4666 
L 3309 4134 
L 1259 4134 
L 1259 2759 
L 3109 2759 
L 3109 2228 
L 1259 2228 
L 1259 0 
L 628 0 
L 628 4666 
z
" transform="scale(0.015625)"/>
       <path id="DejaVuSans-72" d="M 2631 2963 
Q 2534 3019 2420 3045 
Q 2306 3072 2169 3072 
Q 1681 3072 1420 2755 
Q 1159 2438 1159 1844 
L 1159 0 
L 581 0 
L 581 3500 
L 1159 3500 
L 1159 2956 
Q 1341 3275 1631 3429 
Q 1922 3584 2338 3584 
Q 2397 3584 2469 3576 
Q 2541 3569 2628 3553 
L 2631 2963 
z
" transform="scale(0.015625)"/>
       <path id="DejaVuSans-63" d="M 3122 3366 
L 3122 2828 
Q 2878 2963 2633 3030 
Q 2388 3097 2138 3097 
Q 1578 3097 1268 2742 
Q 959 2388 959 1747 
Q 959 1106 1268 751 
Q 1578 397 2138 397 
Q 2388 397 2633 464 
Q 2878 531 3122 666 
L 3122 134 
Q 2881 22 2623 -34 
Q 2366 -91 2075 -91 
Q 1284 -91 818 406 
Q 353 903 353 1747 
Q 353 2603 823 3093 
Q 1294 3584 2113 3584 
Q 2378 3584 2631 3529 
Q 2884 3475 3122 3366 
z
" transform="scale(0.015625)"/>
       <path id="DejaVuSans-74" d="M 1172 4494 
L 1172 3500 
L 2356 3500 
L 2356 3053 
L 1172 3053 
L 1172 1153 
Q 1172 725 1289 603 
Q 1406 481 1766 481 
L 2356 481 
L 2356 0 
L 1766 0 
Q 1100 0 847 248 
Q 594 497 594 1153 
L 594 3053 
L 172 3053 
L 172 3500 
L 594 3500 
L 594 4494 
L 1172 4494 
z
" transform="scale(0.015625)"/>
       <path id="DejaVuSans-75" d="M 544 1381 
L 544 3500 
L 1119 3500 
L 1119 1403 
Q 1119 906 1312 657 
Q 1506 409 1894 409 
Q 2359 409 2629 706 
Q 2900 1003 2900 1516 
L 2900 3500 
L 3475 3500 
L 3475 0 
L 2900 0 
L 2900 538 
Q 2691 219 2414 64 
Q 2138 -91 1772 -91 
Q 1169 -91 856 284 
Q 544 659 544 1381 
z
M 1991 3584 
L 1991 3584 
z
" transform="scale(0.015625)"/>
       <path id="DejaVuSans-2c" d="M 750 794 
L 1409 794 
L 1409 256 
L 897 -744 
L 494 -744 
L 750 256 
L 750 794 
z
" transform="scale(0.015625)"/>
       <path id="DejaVuSans-70" d="M 1159 525 
L 1159 -1331 
L 581 -1331 
L 581 3500 
L 1159 3500 
L 1159 2969 
Q 1341 3281 1617 3432 
Q 1894 3584 2278 3584 
Q 2916 3584 3314 3078 
Q 3713 2572 3713 1747 
Q 3713 922 3314 415 
Q 2916 -91 2278 -91 
Q 1894 -91 1617 61 
Q 1341 213 1159 525 
z
M 3116 1747 
Q 3116 2381 2855 2742 
Q 2594 3103 2138 3103 
Q 1681 3103 1420 2742 
Q 1159 2381 1159 1747 
Q 1159 1113 1420 752 
Q 1681 391 2138 391 
Q 2594 391 2855 752 
Q 3116 1113 3116 1747 
z
" transform="scale(0.015625)"/>
      </defs>
      <use xlink:href="#DejaVuSans-46"/>
      <use xlink:href="#DejaVuSans-72" x="50.269531"/>
      <use xlink:href="#DejaVuSans-61" x="91.382812"/>
      <use xlink:href="#DejaVuSans-63" x="152.662109"/>
      <use xlink:href="#DejaVuSans-74" x="207.642578"/>
      <use xlink:href="#DejaVuSans-69" x="246.851562"/>
      <use xlink:href="#DejaVuSans-6f" x="274.634766"/>
      <use xlink:href="#DejaVuSans-6e" x="335.816406"/>
      <use xlink:href="#DejaVuSans-20" x="399.195312"/>
      <use xlink:href="#DejaVuSans-6f" x="430.982422"/>
      <use xlink:href="#DejaVuSans-66" x="492.164062"/>
      <use xlink:href="#DejaVuSans-20" x="527.369141"/>
      <use xlink:href="#DejaVuSans-66" x="559.15625"/>
      <use xlink:href="#DejaVuSans-75" x="594.361328"/>
      <use xlink:href="#DejaVuSans-6e" x="657.740234"/>
      <use xlink:href="#DejaVuSans-63" x="721.119141"/>
      <use xlink:href="#DejaVuSans-74" x="776.099609"/>
      <use xlink:href="#DejaVuSans-69" x="815.308594"/>
      <use xlink:href="#DejaVuSans-6f" x="843.091797"/>
      <use xlink:href="#DejaVuSans-6e" x="904.273438"/>
      <use xlink:href="#DejaVuSans-2c" x="967.652344"/>
      <use xlink:href="#DejaVuSans-74" x="999.439453"/>
      <use xlink:href="#DejaVuSans-61" x="1038.648438"/>
      <use xlink:href="#DejaVuSans-72" x="1099.927734"/>
      <use xlink:href="#DejaVuSans-67" x="1139.291016"/>
      <use xlink:href="#DejaVuSans-65" x="1202.767578"/>
      <use xlink:href="#DejaVuSans-74" x="1264.291016"/>
      <use xlink:href="#DejaVuSans-20" x="1303.5"/>
      <use xlink:href="#DejaVuSans-70" x="1335.287109"/>
      <use xlink:href="#DejaVuSans-61" x="1398.763672"/>
      <use xlink:href="#DejaVuSans-69" x="1460.042969"/>
      <use xlink:href="#DejaVuSans-72" x="1487.826172"/>
      <use xlink:href="#DejaVuSans-73" x="1528.939453"/>
     </g>
    </g>
   </g>
   <g id="line2d_33">
    <defs>
     <path id="m168a319ec2" d="M 0 1.5 
C 0.397805 1.5 0.77937 1.341951 1.06066 1.06066 
C 1.341951 0.77937 1.5 0.397805 1.5 0 
C 1.5 -0.397805 1.341951 -0.77937 1.06066 -1.06066 
C 0.77937 -1.341951 0.397805 -1.5 0 -1.5 
C -0.397805 -1.5 -0.77937 -1.341951 -1.06066 -1.06066 
C -1.341951 -0.77937 -1.5 -0.397805 -1.5 0 
C -1.5 0.397805 -1.341951 0.77937 -1.06066 1.06066 
C -0.77937 1.341951 -0.397805 1.5 0 1.5 
z
" style="stroke: #f5deb3"/>
    </defs>
    <g>
     <use xlink:href="#m168a319ec2" x="301.115322" y="42.157241" style="fill: #f5deb3; stroke: #f5deb3"/>
     <use xlink:href="#m168a319ec2" x="301.115322" y="42.157241" style="fill: #f5deb3; stroke: #f5deb3"/>
    </g>
   </g>
   <g id="line2d_34">
    <defs>
     <path id="m19f01ff788" d="M 0 1.5 
C 0.397805 1.5 0.77937 1.341951 1.06066 1.06066 
C 1.341951 0.77937 1.5 0.397805 1.5 0 
C 1.5 -0.397805 1.341951 -0.77937 1.06066 -1.06066 
C 0.77937 -1.341951 0.397805 -1.5 0 -1.5 
C -0.397805 -1.5 -0.77937 -1.341951 -1.06066 -1.06066 
C -1.341951 -0.77937 -1.5 -0.397805 -1.5 0 
C -1.5 0.397805 -1.341951 0.77937 -1.06066 1.06066 
C -0.77937 1.341951 -0.397805 1.5 0 1.5 
z
" style="stroke: #000080"/>
    </defs>
    <g>
     <use xlink:href="#m19f01ff788" x="74.836851" y="281.573131" style="fill: #000080; stroke: #000080"/>
     <use xlink:href="#m19f01ff788" x="74.836851" y="281.573131" style="fill: #000080; stroke: #000080"/>
    </g>
   </g>
   <g id="line2d_35">
    <path d="M 1.245626 298.944 
L 1.245626 287.363421 
L 14.2848 287.363421 
L 14.2848 287.237545 
L 37.851216 287.237545 
L 37.851216 287.111669 
L 40.363149 287.111669 
L 40.363149 286.859917 
L 42.578831 286.859917 
L 42.578831 286.734041 
L 44.560826 286.734041 
L 44.560826 286.608166 
L 49.496305 286.608166 
L 49.496305 286.48229 
L 50.890391 286.48229 
L 50.890391 286.356414 
L 52.188254 286.356414 
L 52.188254 286.230538 
L 53.402323 286.230538 
L 53.402323 286.104662 
L 59.392932 286.104662 
L 59.392932 285.85291 
L 60.229139 285.85291 
L 60.229139 285.727034 
L 61.797677 285.727034 
L 61.797677 285.601159 
L 63.245433 285.601159 
L 63.245433 285.475283 
L 63.929565 285.475283 
L 63.929565 285.097655 
L 64.589687 285.097655 
L 64.589687 284.971779 
L 65.844256 284.971779 
L 65.844256 284.845903 
L 66.441498 284.845903 
L 66.441498 284.594152 
L 67.020361 284.594152 
L 67.020361 284.468276 
L 68.127242 284.468276 
L 68.127242 284.3424 
L 68.65718 284.3424 
L 68.65718 284.090648 
L 69.674268 284.090648 
L 69.674268 283.964772 
L 70.639174 283.964772 
L 70.639174 283.713021 
L 71.103681 283.713021 
L 71.103681 283.461269 
L 71.999638 283.461269 
L 71.999638 283.335393 
L 72.432107 283.335393 
L 72.432107 283.083641 
L 72.854856 283.083641 
L 72.854856 282.957766 
L 73.268314 282.957766 
L 73.268314 282.83189 
L 74.456807 282.83189 
L 74.456807 282.580138 
L 74.836851 282.580138 
L 74.836851 281.573131 
L 360.8064 281.573131 
" style="fill: none; stroke: #000080; stroke-width: 1.5; stroke-linecap: square"/>
   </g>
   <g id="line2d_36">
    <defs>
     <path id="m5dd01426ff" d="M 0 6 
C 1.591219 6 3.117479 5.367802 4.242641 4.242641 
C 5.367802 3.117479 6 1.591219 6 0 
C 6 -1.591219 5.367802 -3.117479 4.242641 -4.242641 
C 3.117479 -5.367802 1.591219 -6 0 -6 
C -1.591219 -6 -3.117479 -5.367802 -4.242641 -4.242641 
C -5.367802 -3.117479 -6 -1.591219 -6 0 
C -6 1.591219 -5.367802 3.117479 -4.242641 4.242641 
C -3.117479 5.367802 -1.591219 6 0 6 
z
" style="stroke: #000080; stroke-width: 1.5"/>
    </defs>
    <g>
     <use xlink:href="#m5dd01426ff" x="74.836851" y="282.580138" style="fill-opacity: 0; stroke: #000080; stroke-width: 1.5"/>
     <use xlink:href="#m5dd01426ff" x="74.836851" y="282.580138" style="fill-opacity: 0; stroke: #000080; stroke-width: 1.5"/>
     <use xlink:href="#m5dd01426ff" x="74.836851" y="281.573131" style="fill-opacity: 0; stroke: #000080; stroke-width: 1.5"/>
     <use xlink:href="#m5dd01426ff" x="74.836851" y="281.573131" style="fill-opacity: 0; stroke: #000080; stroke-width: 1.5"/>
     <use xlink:href="#m5dd01426ff" x="360.8064" y="281.573131" style="fill-opacity: 0; stroke: #000080; stroke-width: 1.5"/>
    </g>
   </g>
   <g id="line2d_37">
    <path style="fill: none; stroke: #000080; stroke-width: 1.5; stroke-linecap: square"/>
    <g/>
   </g>
   <g id="line2d_38">
    <path d="M 74.836851 281.573131 
" clip-path="url(#p0914a92930)" style="fill: none; stroke: #000080; stroke-width: 1.5; stroke-linecap: square"/>
    <defs>
     <path id="m50a4d8b24c" d="M -12 12 
L 12 -12 
M -12 -12 
L 12 12 
" style="stroke: #000080"/>
    </defs>
    <g clip-path="url(#p0914a92930)">
     <use xlink:href="#m50a4d8b24c" x="74.836851" y="281.573131" style="fill: #000080; stroke: #000080"/>
    </g>
   </g>
   <g id="line2d_39">
    <defs>
     <path id="me26ce38a3f" d="M 0 1.5 
C 0.397805 1.5 0.77937 1.341951 1.06066 1.06066 
C 1.341951 0.77937 1.5 0.397805 1.5 0 
C 1.5 -0.397805 1.341951 -0.77937 1.06066 -1.06066 
C 0.77937 -1.341951 0.397805 -1.5 0 -1.5 
C -0.397805 -1.5 -0.77937 -1.341951 -1.06066 -1.06066 
C -1.341951 -0.77937 -1.5 -0.397805 -1.5 0 
C -1.5 0.397805 -1.341951 0.77937 -1.06066 1.06066 
C -0.77937 1.341951 -0.397805 1.5 0 1.5 
z
" style="stroke: #ff00ff"/>
    </defs>
    <g>
     <use xlink:href="#me26ce38a3f" x="273.975666" y="192.578897" style="fill: #ff00ff; stroke: #ff00ff"/>
     <use xlink:href="#me26ce38a3f" x="273.975666" y="192.578897" style="fill: #ff00ff; stroke: #ff00ff"/>
    </g>
   </g>
   <g id="line2d_40">
    <path d="M 1.245626 298.944 
L 1.245626 287.363421 
L 37.851216 287.363421 
L 37.851216 287.237545 
L 56.635094 287.237545 
L 56.635094 287.111669 
L 63.929565 287.111669 
L 63.929565 286.985793 
L 76.96874 286.985793 
L 76.96874 286.859917 
L 80.342421 286.859917 
L 80.342421 286.734041 
L 84.370877 286.734041 
L 84.370877 286.608166 
L 86.307488 286.608166 
L 86.307488 286.48229 
L 86.712053 286.48229 
L 86.712053 286.356414 
L 89.668958 286.356414 
L 89.668958 286.230538 
L 90.175129 286.230538 
L 90.175129 286.104662 
L 92.955655 286.104662 
L 92.955655 285.978786 
L 96.95121 285.978786 
L 96.95121 285.85291 
L 97.746984 285.85291 
L 97.746984 285.727034 
L 97.968299 285.727034 
L 98.077987 285.349407 
L 98.723018 285.349407 
L 98.723018 285.223531 
L 100.049042 285.223531 
L 100.049042 285.097655 
L 100.630889 285.097655 
L 100.630889 284.971779 
L 101.562344 284.971779 
L 101.562344 284.845903 
L 101.922385 284.845903 
L 101.922385 284.720028 
L 103.625951 284.720028 
L 103.625951 284.594152 
L 104.42317 284.594152 
L 104.42317 284.468276 
L 105.850679 284.468276 
L 105.850679 284.3424 
L 107.445245 284.3424 
L 107.445245 284.216524 
L 107.643612 284.216524 
L 107.643612 284.090648 
L 107.969643 284.090648 
L 107.969643 283.964772 
L 110.618446 283.964772 
L 110.618446 283.838897 
L 110.786158 283.838897 
L 110.841731 283.587145 
L 112.180244 283.587145 
L 112.180244 283.461269 
L 113.088217 283.461269 
L 113.088217 283.335393 
L 117.107771 283.335393 
L 117.107771 283.209517 
L 120.78119 283.209517 
L 120.78119 283.083641 
L 121.613129 283.083641 
L 121.613129 282.957766 
L 126.804487 282.957766 
L 126.804487 282.83189 
L 127.017049 282.83189 
L 127.017049 282.706014 
L 127.503881 282.706014 
L 127.503881 282.580138 
L 128.441306 282.580138 
L 128.441306 282.454262 
L 129.146421 282.454262 
L 129.250988 282.20251 
L 129.846275 282.20251 
L 129.846275 282.076634 
L 130.695654 282.076634 
L 130.695654 281.950759 
L 131.820186 281.950759 
L 131.820186 281.824883 
L 131.983214 281.824883 
L 131.983214 281.699007 
L 132.126951 281.699007 
L 132.126951 281.573131 
L 132.305093 281.573131 
L 132.305093 281.447255 
L 132.691164 281.447255 
L 132.691164 281.321379 
L 133.05244 281.321379 
L 133.05244 281.195503 
L 133.473674 281.195503 
L 133.573382 280.943752 
L 133.672565 280.943752 
L 133.672565 280.817876 
L 134.336666 280.817876 
L 134.400219 280.566124 
L 135.039546 280.566124 
L 135.039546 280.440248 
L 135.373847 280.440248 
L 135.373847 280.314372 
L 135.59842 280.314372 
L 135.59842 280.188497 
L 135.820345 280.188497 
L 135.849738 279.936745 
L 136.299553 279.936745 
L 136.313886 279.684993 
L 136.612375 279.684993 
L 136.612375 279.559117 
L 136.780838 279.559117 
L 136.780838 279.433241 
L 137.0583 279.433241 
L 137.0583 279.307366 
L 137.23648 279.307366 
L 137.23648 279.18149 
L 137.601239 279.18149 
L 137.601239 279.055614 
L 137.932787 279.055614 
L 137.932787 278.929738 
L 138.206842 278.929738 
L 138.206842 278.803862 
L 138.451402 278.803862 
L 138.515235 278.55211 
L 138.743257 278.55211 
L 138.743257 278.426234 
L 138.906237 278.426234 
L 138.906237 278.300359 
L 139.018248 278.300359 
L 139.104908 278.048607 
L 139.374701 278.048607 
L 139.447614 277.796855 
L 139.796097 277.796855 
L 139.796097 277.670979 
L 140.14993 277.670979 
L 140.14993 277.545103 
L 140.485756 277.545103 
L 140.485756 277.293352 
L 140.781828 277.293352 
L 140.781828 277.167476 
L 140.928134 277.167476 
L 140.928134 277.0416 
L 141.151022 277.0416 
L 141.162098 276.663972 
L 141.349389 276.663972 
L 141.349389 276.538097 
L 141.48048 276.538097 
L 141.48048 276.412221 
L 141.750688 276.412221 
L 141.750688 276.286345 
L 142.518184 276.286345 
L 142.579895 276.034593 
L 143.146307 276.034593 
L 143.176174 275.782841 
L 143.599145 275.782841 
L 143.696162 275.279338 
L 143.859951 275.279338 
L 143.859951 275.153462 
L 144.041338 275.153462 
L 144.041338 275.027586 
L 144.33358 275.027586 
L 144.33358 274.90171 
L 144.648968 274.90171 
L 144.704081 274.649959 
L 144.777313 274.649959 
L 144.777313 274.524083 
L 144.931992 274.524083 
L 144.931992 274.398207 
L 145.255407 274.398207 
L 145.255407 274.272331 
L 145.476774 274.272331 
L 145.476774 274.146455 
L 145.886021 274.146455 
L 145.886021 274.020579 
L 146.083092 274.020579 
L 146.083092 273.894703 
L 146.328666 273.894703 
L 146.328666 273.768828 
L 146.843174 273.768828 
L 146.892226 273.517076 
L 147.216013 273.517076 
L 147.216013 273.3912 
L 147.518533 273.3912 
L 147.597342 273.139448 
L 147.714939 273.139448 
L 147.714939 272.887697 
L 147.878349 272.887697 
L 147.878349 272.761821 
L 148.139946 272.761821 
L 148.139946 272.635945 
L 148.607806 272.635945 
L 148.674765 272.384193 
L 148.748884 272.384193 
L 148.748884 272.132441 
L 148.896253 272.132441 
L 148.896253 272.006566 
L 149.374539 272.006566 
L 149.381693 271.503062 
L 149.566749 271.503062 
L 149.665646 270.999559 
L 149.73597 270.999559 
L 149.820013 270.621931 
L 150.076806 270.621931 
L 150.076806 270.370179 
L 150.370903 270.370179 
L 150.38447 270.118428 
L 150.573397 270.118428 
L 150.673833 269.7408 
L 150.733838 269.7408 
L 150.733838 269.614924 
L 150.906118 269.614924 
L 150.906118 269.489048 
L 151.076835 269.489048 
L 151.076835 269.363172 
L 151.200617 269.363172 
L 151.200617 269.237297 
L 151.381561 269.237297 
L 151.490576 268.859669 
L 151.516136 268.859669 
L 151.516136 268.733793 
L 152.144083 268.733793 
L 152.24878 268.356166 
L 152.285593 268.356166 
L 152.285593 268.23029 
L 152.667844 268.23029 
L 152.715833 267.978538 
L 152.912502 267.978538 
L 152.912502 267.852662 
L 153.17157 267.852662 
L 153.17157 267.726786 
L 153.444416 267.726786 
L 153.467455 267.349159 
L 153.787077 267.349159 
L 153.804047 266.971531 
L 154.106923 266.971531 
L 154.140277 266.719779 
L 154.476059 266.719779 
L 154.476059 266.468028 
L 154.633615 266.468028 
L 154.682245 266.0904 
L 154.896868 266.0904 
L 154.997963 265.838648 
L 155.024477 265.838648 
L 155.098517 265.586897 
L 155.188033 265.586897 
L 155.292804 265.083393 
L 155.577951 265.083393 
L 155.685695 264.705766 
L 155.695924 264.705766 
L 155.695924 264.57989 
L 155.863909 264.57989 
L 155.863909 264.454014 
L 156.025382 264.454014 
L 156.135597 264.202262 
L 156.250135 264.202262 
L 156.324459 263.824634 
L 156.521235 263.824634 
L 156.521235 263.698759 
L 156.633455 263.698759 
L 156.68689 262.943503 
L 156.980488 262.943503 
L 156.980488 262.817628 
L 157.189455 262.817628 
L 157.297771 262.44 
L 157.391454 262.44 
L 157.391454 262.314124 
L 157.517191 262.314124 
L 157.558917 262.062372 
L 157.720311 262.062372 
L 157.720311 261.936497 
L 157.848437 261.936497 
L 157.848437 261.810621 
L 158.007377 261.810621 
L 158.007377 261.558869 
L 158.120089 261.558869 
L 158.2053 261.307117 
L 158.312387 261.307117 
L 158.405591 260.92949 
L 158.445394 260.92949 
L 158.480705 260.551862 
L 158.699905 260.551862 
L 158.79555 259.922483 
L 158.838864 259.922483 
L 158.838864 259.796607 
L 159.062507 259.796607 
L 159.135048 259.544855 
L 159.20731 259.544855 
L 159.20731 259.418979 
L 159.54369 259.418979 
L 159.547857 259.041352 
L 159.713781 259.041352 
L 159.717911 258.663724 
L 159.992537 258.663724 
L 159.992537 258.537848 
L 160.194901 258.537848 
L 160.194901 258.411972 
L 160.45873 258.411972 
L 160.45873 258.160221 
L 160.82432 258.160221 
L 160.913649 257.656717 
L 161.075686 257.656717 
L 161.163832 257.153214 
L 161.308567 257.153214 
L 161.327528 256.775586 
L 161.590999 256.775586 
L 161.687928 256.397959 
L 161.717652 256.397959 
L 161.806543 256.146207 
L 161.887659 256.146207 
L 161.983075 255.894455 
L 162.001369 255.894455 
L 162.096211 255.390952 
L 162.136193 255.390952 
L 162.150711 255.013324 
L 162.485131 255.013324 
L 162.499383 254.761572 
L 162.613005 254.761572 
L 162.613005 254.635697 
L 162.761101 254.635697 
L 162.827715 254.006317 
L 162.942856 254.006317 
L 162.942856 253.880441 
L 163.057297 253.880441 
L 163.057297 253.62869 
L 163.487958 253.62869 
L 163.535206 253.125186 
L 163.622639 253.125186 
L 163.726358 252.747559 
L 163.802943 252.747559 
L 163.899064 252.244055 
L 163.915587 252.244055 
L 164.00785 251.992303 
L 164.060368 251.992303 
L 164.132343 251.740552 
L 164.181259 251.740552 
L 164.217051 251.111172 
L 164.32725 251.111172 
L 164.436807 250.733545 
L 164.526554 250.733545 
L 164.634959 250.355917 
L 164.647672 250.355917 
L 164.647672 250.104166 
L 165.112101 250.104166 
L 165.143072 249.726538 
L 165.287954 249.726538 
L 165.287954 249.600662 
L 165.404283 249.600662 
L 165.507761 249.097159 
L 165.781947 249.097159 
L 165.796897 248.845407 
L 165.916071 248.845407 
L 165.969454 248.341903 
L 166.028591 248.341903 
L 166.093428 248.090152 
L 166.306982 248.090152 
L 166.373767 247.586648 
L 166.566974 247.586648 
L 166.604233 247.209021 
L 166.71557 247.209021 
L 166.780922 246.453766 
L 166.902497 246.453766 
L 167.009285 245.572634 
L 167.028891 245.572634 
L 167.123829 244.943255 
L 167.209974 244.943255 
L 167.209974 244.817379 
L 167.356346 244.817379 
L 167.455124 244.565628 
L 167.56155 244.565628 
L 167.607754 244.188 
L 167.675494 244.188 
L 167.724117 243.558621 
L 167.810248 243.558621 
L 167.810248 243.432745 
L 168.029176 243.432745 
L 168.095418 242.67749 
L 168.15352 242.67749 
L 168.15352 242.425738 
L 168.581073 242.425738 
L 168.581073 242.299862 
L 168.719753 242.299862 
L 168.804001 242.04811 
L 168.986516 242.04811 
L 169.011726 241.796359 
L 169.127258 241.796359 
L 169.127258 241.670483 
L 169.269439 241.670483 
L 169.341367 241.292855 
L 169.380934 241.292855 
L 169.447515 240.789352 
L 169.65803 240.789352 
L 169.745458 240.411724 
L 169.880655 240.411724 
L 169.935902 239.908221 
L 170.026825 239.908221 
L 170.122062 239.278841 
L 170.322852 239.278841 
L 170.425955 238.901214 
L 170.519197 238.901214 
L 170.519197 238.775338 
L 170.782429 238.775338 
L 170.887612 238.523586 
L 170.960436 238.523586 
L 171.023928 238.020083 
L 171.331529 238.020083 
L 171.331529 237.768331 
L 171.559524 237.768331 
L 171.559524 237.516579 
L 171.725999 237.516579 
L 171.828218 236.761324 
L 171.888852 236.761324 
L 171.888852 236.509572 
L 172.316357 236.509572 
L 172.343812 236.006069 
L 172.436438 236.006069 
L 172.440637 235.628441 
L 172.549496 235.628441 
L 172.549496 235.37669 
L 172.79627 235.37669 
L 172.905144 234.495559 
L 173.175613 234.495559 
L 173.270271 234.117931 
L 173.501874 234.117931 
L 173.579105 233.866179 
L 173.937319 233.866179 
L 173.937319 233.740303 
L 174.116781 233.740303 
L 174.116781 233.614428 
L 174.343947 233.614428 
L 174.421583 233.2368 
L 174.49137 233.2368 
L 174.534622 232.859172 
L 174.732679 232.859172 
L 174.780943 232.481545 
L 175.047856 232.481545 
L 175.047856 232.355669 
L 175.169921 232.355669 
L 175.180813 232.103917 
L 175.50826 232.103917 
L 175.600779 231.852166 
L 175.641557 231.852166 
L 175.641557 231.600414 
L 175.95244 231.600414 
L 175.95244 231.348662 
L 176.581121 231.348662 
L 176.604692 230.845159 
L 176.693659 230.845159 
L 176.693659 230.719283 
L 176.818842 230.719283 
L 176.818842 230.593407 
L 176.997654 230.593407 
L 176.997654 230.341655 
L 177.197622 230.341655 
L 177.215548 229.964028 
L 177.530521 229.964028 
L 177.530521 229.838152 
L 177.674134 229.838152 
L 177.674134 229.712276 
L 177.813503 229.712276 
L 177.813503 229.460524 
L 178.37926 229.460524 
L 178.37926 229.334648 
L 178.625683 229.334648 
L 178.625683 229.082897 
L 179.347611 229.082897 
L 179.347611 228.831145 
L 179.469378 228.831145 
L 179.469378 228.705269 
L 181.141204 228.705269 
L 181.141204 228.453517 
L 181.364622 228.453517 
L 181.364622 228.201766 
L 181.527223 228.201766 
L 181.527223 228.07589 
L 181.640858 228.07589 
L 181.640858 227.572386 
L 181.806204 227.572386 
L 181.806204 227.44651 
L 182.163928 227.44651 
L 182.163928 227.194759 
L 182.518663 227.194759 
L 182.518663 227.068883 
L 182.923437 227.068883 
L 182.923437 226.817131 
L 183.590898 226.817131 
L 183.590898 226.691255 
L 183.82275 226.691255 
L 183.82275 226.565379 
L 184.023445 226.565379 
L 184.023445 226.313628 
L 184.508274 226.313628 
L 184.508274 226.061876 
L 184.81309 226.061876 
L 184.896651 225.558372 
L 185.752856 225.558372 
L 185.752856 225.432497 
L 186.691257 225.432497 
L 186.753165 225.054869 
L 186.901696 225.054869 
L 186.901696 224.803117 
L 187.323255 224.803117 
L 187.323255 224.551366 
L 188.685158 224.551366 
L 188.701086 224.173738 
L 191.820621 224.173738 
L 191.820621 223.921986 
L 192.574902 223.921986 
L 192.574902 223.670234 
L 193.261965 223.670234 
L 193.261965 223.544359 
L 194.001049 223.544359 
L 194.001049 223.292607 
L 194.198218 223.292607 
L 194.198218 223.040855 
L 195.559066 223.040855 
L 195.559066 222.914979 
L 195.677257 222.914979 
L 195.677257 222.789103 
L 196.557975 222.789103 
L 196.56904 222.2856 
L 198.176289 222.2856 
L 198.176289 222.033848 
L 198.558311 222.033848 
L 198.558311 221.907972 
L 198.917833 221.907972 
L 198.917833 221.782097 
L 199.37572 221.782097 
L 199.37572 221.656221 
L 200.039889 221.656221 
L 200.039889 221.404469 
L 200.514099 221.404469 
L 200.514099 221.152717 
L 200.918985 221.152717 
L 200.918985 221.026841 
L 202.756092 221.026841 
L 202.756092 220.77509 
L 203.035588 220.77509 
L 203.035588 220.649214 
L 203.762018 220.649214 
L 203.762018 220.523338 
L 204.003942 220.523338 
L 204.003942 220.397462 
L 204.90433 220.397462 
L 204.90433 220.14571 
L 205.178929 220.14571 
L 205.178929 220.019834 
L 205.799975 220.019834 
L 205.799975 219.768083 
L 206.144315 219.768083 
L 206.171242 219.264579 
L 207.431863 219.264579 
L 207.431863 219.012828 
L 208.034854 219.012828 
L 208.034854 218.761076 
L 208.396279 218.761076 
L 208.396279 218.509324 
L 208.713379 218.509324 
L 208.713379 218.257572 
L 209.131216 218.257572 
L 209.131216 218.005821 
L 209.843116 218.005821 
L 209.843116 217.754069 
L 210.270886 217.754069 
L 210.270886 217.502317 
L 210.722646 217.502317 
L 210.722646 217.250566 
L 211.076779 217.250566 
L 211.166491 216.998814 
L 212.013448 216.998814 
L 212.013448 216.747062 
L 212.380008 216.747062 
L 212.410632 216.243559 
L 212.545584 216.243559 
L 212.564749 215.865931 
L 213.087291 215.865931 
L 213.087291 215.614179 
L 213.408979 215.614179 
L 213.408979 215.488303 
L 214.697659 215.488303 
L 214.805953 214.733048 
L 215.171811 214.733048 
L 215.171811 214.607172 
L 216.339993 214.607172 
L 216.339993 214.355421 
L 216.853551 214.355421 
L 216.853551 214.103669 
L 216.996395 214.103669 
L 217.040959 213.600166 
L 217.46326 213.600166 
L 217.478209 213.096662 
L 217.995578 213.096662 
L 218.04602 212.719034 
L 218.317122 212.719034 
L 218.352818 212.089655 
L 220.011539 212.089655 
L 220.090906 211.586152 
L 220.315326 211.586152 
L 220.315326 211.460276 
L 221.216386 211.460276 
L 221.216386 211.3344 
L 221.440265 211.3344 
L 221.440265 211.208524 
L 221.969423 211.208524 
L 221.969423 210.956772 
L 223.137424 210.956772 
L 223.137424 210.705021 
L 223.807993 210.705021 
L 223.807993 210.579145 
L 224.623037 210.579145 
L 224.712194 210.075641 
L 224.749457 210.075641 
L 224.749457 209.82389 
L 225.709476 209.82389 
L 225.709476 209.572138 
L 226.384302 209.572138 
L 226.384302 209.320386 
L 227.347604 209.320386 
L 227.347604 209.19451 
L 227.62188 209.19451 
L 227.62188 208.942759 
L 229.685818 208.942759 
L 229.685818 208.691007 
L 230.390513 208.691007 
L 230.390513 208.439255 
L 231.30373 208.439255 
L 231.30373 208.313379 
L 233.065777 208.313379 
L 233.065777 208.061628 
L 233.31764 208.061628 
L 233.31764 207.809876 
L 233.745343 207.809876 
L 233.745343 207.558124 
L 233.983707 207.558124 
L 233.983707 207.306372 
L 234.243228 207.306372 
L 234.243228 207.054621 
L 235.670546 207.054621 
L 235.670546 206.928745 
L 235.876419 206.928745 
L 235.876419 206.802869 
L 236.3597 206.802869 
L 236.3597 206.551117 
L 236.629912 206.551117 
L 236.629912 206.299366 
L 236.77086 206.299366 
L 236.77086 206.17349 
L 237.524576 206.17349 
L 237.524576 205.921738 
L 237.838548 205.921738 
L 237.838548 205.795862 
L 238.24506 205.795862 
L 238.24506 205.54411 
L 238.855889 205.54411 
L 238.855889 205.292359 
L 238.989099 205.292359 
L 238.989099 205.040607 
L 239.352822 205.040607 
L 239.352822 204.788855 
L 240.459761 204.788855 
L 240.459761 204.662979 
L 241.262554 204.662979 
L 241.287913 204.411228 
L 241.839225 204.411228 
L 241.86953 204.0336 
L 242.128945 204.0336 
L 242.128945 203.781848 
L 242.675719 203.781848 
L 242.675719 203.655972 
L 243.202119 203.655972 
L 243.202119 203.530097 
L 244.530162 203.530097 
L 244.530162 203.278345 
L 244.683845 203.278345 
L 244.683845 203.152469 
L 245.34098 203.152469 
L 245.34098 203.026593 
L 245.466928 203.026593 
L 245.519169 202.52309 
L 245.679649 202.52309 
L 245.679649 202.271338 
L 246.007619 202.271338 
L 246.007619 202.019586 
L 246.55147 202.019586 
L 246.55147 201.767834 
L 247.058938 201.767834 
L 247.058938 201.516083 
L 247.172464 201.516083 
L 247.172464 201.390207 
L 247.676368 201.390207 
L 247.676368 201.138455 
L 247.929593 201.138455 
L 247.929593 200.886703 
L 248.592672 200.886703 
L 248.592672 200.760828 
L 248.947159 200.760828 
L 248.947159 200.509076 
L 249.30176 200.509076 
L 249.30176 200.3832 
L 251.975231 200.3832 
L 252.083389 200.005572 
L 252.318609 200.005572 
L 252.39502 199.753821 
L 252.667521 199.753821 
L 252.667521 199.502069 
L 253.099029 199.502069 
L 253.099029 199.250317 
L 253.857362 199.250317 
L 253.866224 198.998566 
L 254.142932 198.998566 
L 254.142932 198.87269 
L 254.689308 198.87269 
L 254.689308 198.746814 
L 255.011889 198.746814 
L 255.011889 198.620938 
L 255.159075 198.620938 
L 255.186428 198.369186 
L 255.453114 198.369186 
L 255.453114 198.24331 
L 255.902821 198.24331 
L 255.902821 198.117434 
L 256.214089 198.117434 
L 256.214089 197.991559 
L 256.511247 197.991559 
L 256.618684 197.613931 
L 256.749136 197.613931 
L 256.749136 197.488055 
L 256.901653 197.488055 
L 256.901653 197.362179 
L 257.240621 197.362179 
L 257.240621 197.236303 
L 257.826262 197.236303 
L 257.826262 197.110428 
L 258.696434 197.110428 
L 258.696434 196.984552 
L 258.825607 196.984552 
L 258.865426 196.7328 
L 260.570453 196.7328 
L 260.634725 196.103421 
L 261.575878 196.103421 
L 261.600745 195.725793 
L 262.299139 195.725793 
L 262.299139 195.599917 
L 262.668368 195.599917 
L 262.668368 195.474041 
L 264.740654 195.474041 
L 264.740654 195.348166 
L 265.375647 195.348166 
L 265.388511 194.970538 
L 265.631282 194.970538 
L 265.631282 194.844662 
L 266.437359 194.844662 
L 266.437359 194.718786 
L 267.74721 194.718786 
L 267.83518 194.467034 
L 268.304083 194.467034 
L 268.304083 194.341159 
L 269.739339 194.341159 
L 269.739339 194.215283 
L 270.454652 194.215283 
L 270.454652 193.963531 
L 271.00352 193.963531 
L 271.00352 193.837655 
L 271.851844 193.837655 
L 271.851844 193.585903 
L 272.060567 193.585903 
L 272.087755 193.334152 
L 272.507681 193.334152 
L 272.507681 193.208276 
L 272.853838 193.208276 
L 272.853838 192.956524 
L 273.377864 192.956524 
L 273.377864 192.830648 
L 273.975666 192.830648 
L 273.975666 192.578897 
L 360.8064 192.578897 
L 360.8064 192.578897 
" style="fill: none; stroke: #ff00ff; stroke-width: 1.5; stroke-linecap: square"/>
   </g>
   <g id="line2d_41">
    <defs>
     <path id="m3ac444c087" d="M 0 8.485281 
L 5.091169 0 
L 0 -8.485281 
L -5.091169 0 
z
" style="stroke: #ff00ff; stroke-width: 1.5; stroke-linejoin: miter"/>
    </defs>
    <g>
     <use xlink:href="#m3ac444c087" x="84.370877" y="286.734041" style="fill-opacity: 0; stroke: #ff00ff; stroke-width: 1.5; stroke-linejoin: miter"/>
     <use xlink:href="#m3ac444c087" x="164.647672" y="250.104166" style="fill-opacity: 0; stroke: #ff00ff; stroke-width: 1.5; stroke-linejoin: miter"/>
     <use xlink:href="#m3ac444c087" x="234.243228" y="207.054621" style="fill-opacity: 0; stroke: #ff00ff; stroke-width: 1.5; stroke-linejoin: miter"/>
     <use xlink:href="#m3ac444c087" x="273.975666" y="192.830648" style="fill-opacity: 0; stroke: #ff00ff; stroke-width: 1.5; stroke-linejoin: miter"/>
     <use xlink:href="#m3ac444c087" x="273.975666" y="192.578897" style="fill-opacity: 0; stroke: #ff00ff; stroke-width: 1.5; stroke-linejoin: miter"/>
     <use xlink:href="#m3ac444c087" x="360.8064" y="192.578897" style="fill-opacity: 0; stroke: #ff00ff; stroke-width: 1.5; stroke-linejoin: miter"/>
    </g>
   </g>
   <g id="line2d_42">
    <path style="fill: none; stroke: #ff00ff; stroke-width: 1.5; stroke-linecap: square"/>
    <g/>
   </g>
   <g id="line2d_43">
    <path d="M 274.176009 192.578897 
" clip-path="url(#p0914a92930)" style="fill: none; stroke: #ff00ff; stroke-width: 1.5; stroke-linecap: square"/>
    <defs>
     <path id="mc84dc22f1a" d="M -12 12 
L 12 -12 
M -12 -12 
L 12 12 
" style="stroke: #ff00ff"/>
    </defs>
    <g clip-path="url(#p0914a92930)">
     <use xlink:href="#mc84dc22f1a" x="274.176009" y="192.578897" style="fill: #ff00ff; stroke: #ff00ff"/>
    </g>
   </g>
   <g id="line2d_44">
    <defs>
     <path id="m1a4e573948" d="M 0 1.5 
C 0.397805 1.5 0.77937 1.341951 1.06066 1.06066 
C 1.341951 0.77937 1.5 0.397805 1.5 0 
C 1.5 -0.397805 1.341951 -0.77937 1.06066 -1.06066 
C 0.77937 -1.341951 0.397805 -1.5 0 -1.5 
C -0.397805 -1.5 -0.77937 -1.341951 -1.06066 -1.06066 
C -1.341951 -0.77937 -1.5 -0.397805 -1.5 0 
C -1.5 0.397805 -1.341951 0.77937 -1.06066 1.06066 
C -0.77937 1.341951 -0.397805 1.5 0 1.5 
z
" style="stroke: #6495ed"/>
    </defs>
    <g>
     <use xlink:href="#m1a4e573948" x="113.812756" y="258.537848" style="fill: #6495ed; stroke: #6495ed"/>
     <use xlink:href="#m1a4e573948" x="113.812756" y="258.537848" style="fill: #6495ed; stroke: #6495ed"/>
    </g>
   </g>
   <g id="line2d_45">
    <path d="M 1.245626 298.944 
L 1.245626 297.055862 
L 14.2848 297.055862 
L 14.2848 296.678234 
L 21.912228 296.678234 
L 21.912228 296.300607 
L 27.323974 296.300607 
L 27.323974 295.797103 
L 31.521651 295.797103 
L 31.521651 295.545352 
L 34.951403 295.545352 
L 34.951403 295.167724 
L 37.851216 295.167724 
L 37.851216 294.790097 
L 40.363149 294.790097 
L 40.363149 294.664221 
L 42.578831 294.664221 
L 42.578831 294.286593 
L 44.560826 294.286593 
L 44.560826 294.160717 
L 46.353758 294.160717 
L 46.353758 294.034841 
L 47.990577 294.034841 
L 47.990577 293.908966 
L 49.496305 293.908966 
L 49.496305 293.657214 
L 50.890391 293.657214 
L 50.890391 292.901959 
L 52.188254 292.901959 
L 52.188254 292.776083 
L 53.402323 292.776083 
L 53.402323 292.524331 
L 54.542767 292.524331 
L 54.542767 292.272579 
L 55.618005 292.272579 
L 55.618005 292.146703 
L 56.635094 292.146703 
L 56.635094 292.020828 
L 57.6 292.020828 
L 57.6 291.894952 
L 58.517819 291.894952 
L 58.517819 291.769076 
L 61.797677 291.769076 
L 61.797677 291.6432 
L 63.245433 291.6432 
L 63.245433 291.517324 
L 63.929565 291.517324 
L 63.929565 291.391448 
L 64.589687 291.391448 
L 64.589687 291.139697 
L 65.844256 291.139697 
L 65.844256 291.013821 
L 67.020361 291.013821 
L 67.020361 290.887945 
L 69.674268 290.887945 
L 69.674268 290.762069 
L 72.432107 290.762069 
L 72.432107 290.636193 
L 72.854856 290.636193 
L 72.854856 290.510317 
L 77.301696 290.510317 
L 77.301696 290.384441 
L 78.88343 290.384441 
L 78.88343 290.258566 
L 79.184421 290.258566 
L 79.184421 290.13269 
L 81.433251 290.13269 
L 81.433251 290.006814 
L 81.696354 290.006814 
L 81.696354 289.880938 
L 82.959349 289.880938 
L 82.959349 289.755062 
L 85.471281 289.755062 
L 85.471281 289.629186 
L 86.911119 289.629186 
L 86.911119 289.50331 
L 88.972154 289.50331 
L 88.972154 289.377434 
L 90.505165 289.377434 
L 90.505165 289.251559 
L 90.989609 289.251559 
L 90.989609 289.125683 
L 92.519847 289.125683 
L 92.519847 288.999807 
L 93.098709 288.999807 
L 93.098709 288.873931 
L 93.521459 288.873931 
L 93.521459 288.748055 
L 94.339481 288.748055 
L 94.339481 288.622179 
L 94.472426 288.622179 
L 94.472426 288.496303 
L 95.123409 288.496303 
L 95.123409 288.370428 
L 96.717523 288.370428 
L 96.717523 288.244552 
L 96.83473 288.244552 
L 96.83473 288.118676 
L 97.18203 288.118676 
L 97.18203 287.9928 
L 98.723018 287.9928 
L 98.723018 287.866924 
L 101.102381 287.866924 
L 101.102381 287.741048 
L 101.833019 287.741048 
L 101.833019 287.489297 
L 103.130882 287.489297 
L 103.214303 287.237545 
L 103.297357 287.237545 
L 103.380045 286.608166 
L 103.462371 286.608166 
L 103.544339 285.978786 
L 103.625951 285.978786 
L 103.707211 285.097655 
L 103.788121 285.097655 
L 103.868684 284.594152 
L 103.948904 284.594152 
L 104.028784 284.216524 
L 104.108325 284.216524 
L 104.187532 283.587145 
L 104.266406 283.587145 
L 104.344952 282.83189 
L 104.42317 282.83189 
L 104.501065 282.076634 
L 104.578638 282.076634 
L 104.655893 281.321379 
L 104.732832 281.321379 
L 104.809458 280.062621 
L 104.885773 280.062621 
L 104.961779 279.559117 
L 105.037479 279.559117 
L 105.112877 278.929738 
L 105.26277 278.929738 
L 105.337272 277.922731 
L 105.485395 277.922731 
L 105.485395 277.419228 
L 105.632361 277.419228 
L 105.705415 276.915724 
L 105.778187 276.915724 
L 105.850679 275.908717 
L 105.922892 275.908717 
L 105.99483 274.775834 
L 106.066493 274.775834 
L 106.066493 274.524083 
L 106.209005 274.524083 
L 106.279859 273.894703 
L 106.350446 273.894703 
L 106.42077 273.3912 
L 106.490831 273.3912 
L 106.560633 272.761821 
L 106.699465 272.761821 
L 106.699465 272.635945 
L 106.837279 272.635945 
L 106.905809 271.377186 
L 106.974091 271.377186 
L 107.042125 270.999559 
L 107.109915 270.999559 
L 107.177461 270.370179 
L 107.244765 270.370179 
L 107.31183 269.866676 
L 107.378656 269.866676 
L 107.378656 269.363172 
L 107.5116 269.363172 
L 107.577722 268.859669 
L 107.643612 268.859669 
L 107.709271 268.482041 
L 107.904887 268.482041 
L 107.969643 268.104414 
L 108.09849 268.104414 
L 108.162584 267.852662 
L 108.22646 267.852662 
L 108.29012 267.60091 
L 108.542628 267.60091 
L 108.542628 267.223283 
L 108.667622 267.223283 
L 108.729809 266.593903 
L 108.791791 266.593903 
L 108.85357 266.342152 
L 108.915146 266.342152 
L 108.915146 266.216276 
L 109.037698 266.216276 
L 109.037698 266.0904 
L 109.159456 266.0904 
L 109.159456 265.964524 
L 109.340628 265.964524 
L 109.340628 265.461021 
L 109.520071 265.461021 
L 109.579508 265.209269 
L 109.638757 265.209269 
L 109.638757 265.083393 
L 109.815392 265.083393 
L 109.873904 264.705766 
L 109.932235 264.705766 
L 109.932235 264.57989 
L 110.048356 264.57989 
L 110.106149 264.328138 
L 110.163764 264.328138 
L 110.221204 263.824634 
L 110.278469 263.824634 
L 110.278469 263.698759 
L 110.392479 263.698759 
L 110.449226 263.069379 
L 110.73042 263.069379 
L 110.786158 262.691752 
L 110.897141 262.691752 
L 111.007473 262.314124 
L 111.117162 262.314124 
L 111.171767 261.936497 
L 111.334639 261.936497 
L 111.388617 261.307117 
L 111.54963 261.307117 
L 111.656212 260.551862 
L 111.762192 260.551862 
L 111.762192 260.30011 
L 112.024561 260.30011 
L 112.128493 259.796607 
L 112.385837 259.796607 
L 112.385837 259.670731 
L 112.790402 259.670731 
L 112.890198 259.293103 
L 112.939899 259.293103 
L 112.989468 259.041352 
L 113.235374 259.041352 
L 113.332844 258.7896 
L 113.57433 258.7896 
L 113.57433 258.663724 
L 113.812756 258.663724 
L 113.812756 258.537848 
L 360.8064 258.537848 
L 360.8064 258.537848 
" style="fill: none; stroke: #6495ed; stroke-width: 1.5; stroke-linecap: square"/>
   </g>
   <g id="line2d_46">
    <defs>
     <path id="m160a96b155" d="M -0 6 
L 6 -6 
L -6 -6 
z
" style="stroke: #6495ed; stroke-width: 1.5; stroke-linejoin: miter"/>
    </defs>
    <g>
     <use xlink:href="#m160a96b155" x="103.462371" y="286.104662" style="fill-opacity: 0; stroke: #6495ed; stroke-width: 1.5; stroke-linejoin: miter"/>
     <use xlink:href="#m160a96b155" x="113.812756" y="258.663724" style="fill-opacity: 0; stroke: #6495ed; stroke-width: 1.5; stroke-linejoin: miter"/>
     <use xlink:href="#m160a96b155" x="113.812756" y="258.537848" style="fill-opacity: 0; stroke: #6495ed; stroke-width: 1.5; stroke-linejoin: miter"/>
     <use xlink:href="#m160a96b155" x="113.812756" y="258.537848" style="fill-opacity: 0; stroke: #6495ed; stroke-width: 1.5; stroke-linejoin: miter"/>
     <use xlink:href="#m160a96b155" x="113.812756" y="258.537848" style="fill-opacity: 0; stroke: #6495ed; stroke-width: 1.5; stroke-linejoin: miter"/>
     <use xlink:href="#m160a96b155" x="360.8064" y="258.537848" style="fill-opacity: 0; stroke: #6495ed; stroke-width: 1.5; stroke-linejoin: miter"/>
    </g>
   </g>
   <g id="line2d_47">
    <path style="fill: none; stroke: #6495ed; stroke-width: 1.5; stroke-linecap: square"/>
    <g/>
   </g>
   <g id="line2d_48">
    <path d="M 113.954374 258.537848 
" clip-path="url(#p0914a92930)" style="fill: none; stroke: #6495ed; stroke-width: 1.5; stroke-linecap: square"/>
    <defs>
     <path id="m866f61682a" d="M -12 12 
L 12 -12 
M -12 -12 
L 12 12 
" style="stroke: #6495ed"/>
    </defs>
    <g clip-path="url(#p0914a92930)">
     <use xlink:href="#m866f61682a" x="113.954374" y="258.537848" style="fill: #6495ed; stroke: #6495ed"/>
    </g>
   </g>
   <g id="line2d_49">
    <path d="M 360.8064 281.573131 
L 380.514816 293.10336 
" style="fill: none; stroke: #000080; stroke-width: 1.5; stroke-linecap: square"/>
    <g>
     <use xlink:href="#m5dd01426ff" x="360.8064" y="281.573131" style="fill-opacity: 0; stroke: #000080; stroke-width: 1.5"/>
     <use xlink:href="#m5dd01426ff" x="380.514816" y="293.10336" style="fill-opacity: 0; stroke: #000080; stroke-width: 1.5"/>
    </g>
   </g>
   <g id="line2d_50">
    <path d="M 360.8064 258.537848 
L 380.514816 199.65312 
" style="fill: none; stroke: #6495ed; stroke-width: 1.5; stroke-linecap: square"/>
    <g>
     <use xlink:href="#m160a96b155" x="360.8064" y="258.537848" style="fill-opacity: 0; stroke: #6495ed; stroke-width: 1.5; stroke-linejoin: miter"/>
     <use xlink:href="#m160a96b155" x="380.514816" y="199.65312" style="fill-opacity: 0; stroke: #6495ed; stroke-width: 1.5; stroke-linejoin: miter"/>
    </g>
   </g>
   <g id="line2d_51">
    <path d="M 360.8064 192.578897 
L 380.514816 106.20288 
" style="fill: none; stroke: #ff00ff; stroke-width: 1.5; stroke-linecap: square"/>
    <g>
     <use xlink:href="#m3ac444c087" x="360.8064" y="192.578897" style="fill-opacity: 0; stroke: #ff00ff; stroke-width: 1.5; stroke-linejoin: miter"/>
     <use xlink:href="#m3ac444c087" x="380.514816" y="106.20288" style="fill-opacity: 0; stroke: #ff00ff; stroke-width: 1.5; stroke-linejoin: miter"/>
    </g>
   </g>
   <g id="line2d_52">
    <path d="M 360.8064 298.944 
L 360.8064 6.912 
" style="fill: none; stroke: #000000; stroke-width: 1.5; stroke-linecap: square"/>
   </g>
   <g id="patch_3">
    <path d="M 57.6 298.944 
L 360.8064 298.944 
" style="fill: none; stroke: #000000; stroke-width: 0.8; stroke-linejoin: miter; stroke-linecap: square"/>
   </g>
   <g id="patch_4">
    <path d="M 57.6 6.912 
L 360.8064 6.912 
" style="fill: none; stroke: #000000; stroke-width: 0.8; stroke-linejoin: miter; stroke-linecap: square"/>
   </g>
   <g id="text_13">
    <!-- cma -->
    <g transform="translate(386.578944 296.966485)scale(0.14 -0.14)">
     <use xlink:href="#DejaVuSans-63"/>
     <use xlink:href="#DejaVuSans-6d" x="54.980469"/>
     <use xlink:href="#DejaVuSans-61" x="152.392578"/>
    </g>
   </g>
   <g id="text_14">
    <!-- parEgo -->
    <g transform="translate(386.578944 203.516245)scale(0.14 -0.14)">
     <defs>
      <path id="DejaVuSans-45" d="M 628 4666 
L 3578 4666 
L 3578 4134 
L 1259 4134 
L 1259 2753 
L 3481 2753 
L 3481 2222 
L 1259 2222 
L 1259 531 
L 3634 531 
L 3634 0 
L 628 0 
L 628 4666 
z
" transform="scale(0.015625)"/>
     </defs>
     <use xlink:href="#DejaVuSans-70"/>
     <use xlink:href="#DejaVuSans-61" x="63.476562"/>
     <use xlink:href="#DejaVuSans-72" x="124.755859"/>
     <use xlink:href="#DejaVuSans-45" x="165.869141"/>
     <use xlink:href="#DejaVuSans-67" x="229.052734"/>
     <use xlink:href="#DejaVuSans-6f" x="292.529297"/>
    </g>
   </g>
   <g id="text_15">
    <!-- external- -->
    <g transform="translate(386.578944 110.066005)scale(0.14 -0.14)">
     <defs>
      <path id="DejaVuSans-78" d="M 3513 3500 
L 2247 1797 
L 3578 0 
L 2900 0 
L 1881 1375 
L 863 0 
L 184 0 
L 1544 1831 
L 300 3500 
L 978 3500 
L 1906 2253 
L 2834 3500 
L 3513 3500 
z
" transform="scale(0.015625)"/>
     </defs>
     <use xlink:href="#DejaVuSans-65"/>
     <use xlink:href="#DejaVuSans-78" x="59.773438"/>
     <use xlink:href="#DejaVuSans-74" x="118.953125"/>
     <use xlink:href="#DejaVuSans-65" x="158.162109"/>
     <use xlink:href="#DejaVuSans-72" x="219.685547"/>
     <use xlink:href="#DejaVuSans-6e" x="259.048828"/>
     <use xlink:href="#DejaVuSans-61" x="322.427734"/>
     <use xlink:href="#DejaVuSans-6c" x="383.707031"/>
     <use xlink:href="#DejaVuSans-2d" x="411.490234"/>
    </g>
   </g>
   <g id="text_16">
    <!-- best 2016 -->
    <g transform="translate(386.578944 16.615765)scale(0.14 -0.14)">
     <defs>
      <path id="DejaVuSans-62" d="M 3116 1747 
Q 3116 2381 2855 2742 
Q 2594 3103 2138 3103 
Q 1681 3103 1420 2742 
Q 1159 2381 1159 1747 
Q 1159 1113 1420 752 
Q 1681 391 2138 391 
Q 2594 391 2855 752 
Q 3116 1113 3116 1747 
z
M 1159 2969 
Q 1341 3281 1617 3432 
Q 1894 3584 2278 3584 
Q 2916 3584 3314 3078 
Q 3713 2572 3713 1747 
Q 3713 922 3314 415 
Q 2916 -91 2278 -91 
Q 1894 -91 1617 61 
Q 1341 213 1159 525 
L 1159 0 
L 581 0 
L 581 4863 
L 1159 4863 
L 1159 2969 
z
" transform="scale(0.015625)"/>
     </defs>
     <use xlink:href="#DejaVuSans-62"/>
     <use xlink:href="#DejaVuSans-65" x="63.476562"/>
     <use xlink:href="#DejaVuSans-73" x="125"/>
     <use xlink:href="#DejaVuSans-74" x="177.099609"/>
     <use xlink:href="#DejaVuSans-20" x="216.308594"/>
     <use xlink:href="#DejaVuSans-32" x="248.095703"/>
     <use xlink:href="#DejaVuSans-30" x="311.71875"/>
     <use xlink:href="#DejaVuSans-31" x="375.341797"/>
     <use xlink:href="#DejaVuSans-36" x="438.964844"/>
    </g>
   </g>
   <g id="text_17">
    <!-- bbob-biobj f5, f6, f14, f15, 20-D -->
    <g transform="translate(60.632064 17.582726)scale(0.102 -0.102)">
     <defs>
      <path id="DejaVuSans-6a" d="M 603 3500 
L 1178 3500 
L 1178 -63 
Q 1178 -731 923 -1031 
Q 669 -1331 103 -1331 
L -116 -1331 
L -116 -844 
L 38 -844 
Q 366 -844 484 -692 
Q 603 -541 603 -63 
L 603 3500 
z
M 603 4863 
L 1178 4863 
L 1178 4134 
L 603 4134 
L 603 4863 
z
" transform="scale(0.015625)"/>
      <path id="DejaVuSans-35" d="M 691 4666 
L 3169 4666 
L 3169 4134 
L 1269 4134 
L 1269 2991 
Q 1406 3038 1543 3061 
Q 1681 3084 1819 3084 
Q 2600 3084 3056 2656 
Q 3513 2228 3513 1497 
Q 3513 744 3044 326 
Q 2575 -91 1722 -91 
Q 1428 -91 1123 -41 
Q 819 9 494 109 
L 494 744 
Q 775 591 1075 516 
Q 1375 441 1709 441 
Q 2250 441 2565 725 
Q 2881 1009 2881 1497 
Q 2881 1984 2565 2268 
Q 2250 2553 1709 2553 
Q 1456 2553 1204 2497 
Q 953 2441 691 2322 
L 691 4666 
z
" transform="scale(0.015625)"/>
      <path id="DejaVuSans-44" d="M 1259 4147 
L 1259 519 
L 2022 519 
Q 2988 519 3436 956 
Q 3884 1394 3884 2338 
Q 3884 3275 3436 3711 
Q 2988 4147 2022 4147 
L 1259 4147 
z
M 628 4666 
L 1925 4666 
Q 3281 4666 3915 4102 
Q 4550 3538 4550 2338 
Q 4550 1131 3912 565 
Q 3275 0 1925 0 
L 628 0 
L 628 4666 
z
" transform="scale(0.015625)"/>
     </defs>
     <use xlink:href="#DejaVuSans-62"/>
     <use xlink:href="#DejaVuSans-62" x="63.476562"/>
     <use xlink:href="#DejaVuSans-6f" x="126.953125"/>
     <use xlink:href="#DejaVuSans-62" x="188.134766"/>
     <use xlink:href="#DejaVuSans-2d" x="251.611328"/>
     <use xlink:href="#DejaVuSans-62" x="287.695312"/>
     <use xlink:href="#DejaVuSans-69" x="351.171875"/>
     <use xlink:href="#DejaVuSans-6f" x="378.955078"/>
     <use xlink:href="#DejaVuSans-62" x="440.136719"/>
     <use xlink:href="#DejaVuSans-6a" x="503.613281"/>
     <use xlink:href="#DejaVuSans-20" x="531.396484"/>
     <use xlink:href="#DejaVuSans-66" x="563.183594"/>
     <use xlink:href="#DejaVuSans-35" x="598.388672"/>
     <use xlink:href="#DejaVuSans-2c" x="662.011719"/>
     <use xlink:href="#DejaVuSans-20" x="693.798828"/>
     <use xlink:href="#DejaVuSans-66" x="725.585938"/>
     <use xlink:href="#DejaVuSans-36" x="760.791016"/>
     <use xlink:href="#DejaVuSans-2c" x="824.414062"/>
     <use xlink:href="#DejaVuSans-20" x="856.201172"/>
     <use xlink:href="#DejaVuSans-66" x="887.988281"/>
     <use xlink:href="#DejaVuSans-31" x="923.193359"/>
     <use xlink:href="#DejaVuSans-34" x="986.816406"/>
     <use xlink:href="#DejaVuSans-2c" x="1050.439453"/>
     <use xlink:href="#DejaVuSans-20" x="1082.226562"/>
     <use xlink:href="#DejaVuSans-66" x="1114.013672"/>
     <use xlink:href="#DejaVuSans-31" x="1149.21875"/>
     <use xlink:href="#DejaVuSans-35" x="1212.841797"/>
     <use xlink:href="#DejaVuSans-2c" x="1276.464844"/>
     <use xlink:href="#DejaVuSans-20" x="1308.251953"/>
     <use xlink:href="#DejaVuSans-32" x="1340.039062"/>
     <use xlink:href="#DejaVuSans-30" x="1403.662109"/>
     <use xlink:href="#DejaVuSans-2d" x="1467.285156"/>
     <use xlink:href="#DejaVuSans-44" x="1503.369141"/>
    </g>
    <!-- 58 targets: 1..-1.0e-4 -->
    <g transform="translate(60.632064 29.004495)scale(0.102 -0.102)">
     <defs>
      <path id="DejaVuSans-3a" d="M 750 794 
L 1409 794 
L 1409 0 
L 750 0 
L 750 794 
z
M 750 3309 
L 1409 3309 
L 1409 2516 
L 750 2516 
L 750 3309 
z
" transform="scale(0.015625)"/>
     </defs>
     <use xlink:href="#DejaVuSans-35"/>
     <use xlink:href="#DejaVuSans-38" x="63.623047"/>
     <use xlink:href="#DejaVuSans-20" x="127.246094"/>
     <use xlink:href="#DejaVuSans-74" x="159.033203"/>
     <use xlink:href="#DejaVuSans-61" x="198.242188"/>
     <use xlink:href="#DejaVuSans-72" x="259.521484"/>
     <use xlink:href="#DejaVuSans-67" x="298.884766"/>
     <use xlink:href="#DejaVuSans-65" x="362.361328"/>
     <use xlink:href="#DejaVuSans-74" x="423.884766"/>
     <use xlink:href="#DejaVuSans-73" x="463.09375"/>
     <use xlink:href="#DejaVuSans-3a" x="515.193359"/>
     <use xlink:href="#DejaVuSans-20" x="548.884766"/>
     <use xlink:href="#DejaVuSans-31" x="580.671875"/>
     <use xlink:href="#DejaVuSans-2e" x="644.294922"/>
     <use xlink:href="#DejaVuSans-2e" x="676.082031"/>
     <use xlink:href="#DejaVuSans-2d" x="707.869141"/>
     <use xlink:href="#DejaVuSans-31" x="743.953125"/>
     <use xlink:href="#DejaVuSans-2e" x="807.576172"/>
     <use xlink:href="#DejaVuSans-30" x="839.363281"/>
     <use xlink:href="#DejaVuSans-65" x="902.986328"/>
     <use xlink:href="#DejaVuSans-2d" x="964.509766"/>
     <use xlink:href="#DejaVuSans-34" x="1000.59375"/>
    </g>
    <!-- 10 instances -->
    <g transform="translate(60.632064 40.426264)scale(0.102 -0.102)">
     <use xlink:href="#DejaVuSans-31"/>
     <use xlink:href="#DejaVuSans-30" x="63.623047"/>
     <use xlink:href="#DejaVuSans-20" x="127.246094"/>
     <use xlink:href="#DejaVuSans-69" x="159.033203"/>
     <use xlink:href="#DejaVuSans-6e" x="186.816406"/>
     <use xlink:href="#DejaVuSans-73" x="250.195312"/>
     <use xlink:href="#DejaVuSans-74" x="302.294922"/>
     <use xlink:href="#DejaVuSans-61" x="341.503906"/>
     <use xlink:href="#DejaVuSans-6e" x="402.783203"/>
     <use xlink:href="#DejaVuSans-63" x="466.162109"/>
     <use xlink:href="#DejaVuSans-65" x="521.142578"/>
     <use xlink:href="#DejaVuSans-73" x="582.666016"/>
    </g>
   </g>
   <g id="text_18">
    <!-- v2.6, hv-hash=ff0e71e8cd978373 -->
    <g style="fill: #808080" transform="translate(123.707887 293.943992)scale(0.1 -0.1)">
     <defs>
      <path id="DejaVuSans-68" d="M 3513 2113 
L 3513 0 
L 2938 0 
L 2938 2094 
Q 2938 2591 2744 2837 
Q 2550 3084 2163 3084 
Q 1697 3084 1428 2787 
Q 1159 2491 1159 1978 
L 1159 0 
L 581 0 
L 581 4863 
L 1159 4863 
L 1159 2956 
Q 1366 3272 1645 3428 
Q 1925 3584 2291 3584 
Q 2894 3584 3203 3211 
Q 3513 2838 3513 2113 
z
" transform="scale(0.015625)"/>
      <path id="DejaVuSans-3d" d="M 678 2906 
L 4684 2906 
L 4684 2381 
L 678 2381 
L 678 2906 
z
M 678 1631 
L 4684 1631 
L 4684 1100 
L 678 1100 
L 678 1631 
z
" transform="scale(0.015625)"/>
      <path id="DejaVuSans-37" d="M 525 4666 
L 3525 4666 
L 3525 4397 
L 1831 0 
L 1172 0 
L 2766 4134 
L 525 4134 
L 525 4666 
z
" transform="scale(0.015625)"/>
      <path id="DejaVuSans-39" d="M 703 97 
L 703 672 
Q 941 559 1184 500 
Q 1428 441 1663 441 
Q 2288 441 2617 861 
Q 2947 1281 2994 2138 
Q 2813 1869 2534 1725 
Q 2256 1581 1919 1581 
Q 1219 1581 811 2004 
Q 403 2428 403 3163 
Q 403 3881 828 4315 
Q 1253 4750 1959 4750 
Q 2769 4750 3195 4129 
Q 3622 3509 3622 2328 
Q 3622 1225 3098 567 
Q 2575 -91 1691 -91 
Q 1453 -91 1209 -44 
Q 966 3 703 97 
z
M 1959 2075 
Q 2384 2075 2632 2365 
Q 2881 2656 2881 3163 
Q 2881 3666 2632 3958 
Q 2384 4250 1959 4250 
Q 1534 4250 1286 3958 
Q 1038 3666 1038 3163 
Q 1038 2656 1286 2365 
Q 1534 2075 1959 2075 
z
" transform="scale(0.015625)"/>
      <path id="DejaVuSans-33" d="M 2597 2516 
Q 3050 2419 3304 2112 
Q 3559 1806 3559 1356 
Q 3559 666 3084 287 
Q 2609 -91 1734 -91 
Q 1441 -91 1130 -33 
Q 819 25 488 141 
L 488 750 
Q 750 597 1062 519 
Q 1375 441 1716 441 
Q 2309 441 2620 675 
Q 2931 909 2931 1356 
Q 2931 1769 2642 2001 
Q 2353 2234 1838 2234 
L 1294 2234 
L 1294 2753 
L 1863 2753 
Q 2328 2753 2575 2939 
Q 2822 3125 2822 3475 
Q 2822 3834 2567 4026 
Q 2313 4219 1838 4219 
Q 1578 4219 1281 4162 
Q 984 4106 628 3988 
L 628 4550 
Q 988 4650 1302 4700 
Q 1616 4750 1894 4750 
Q 2613 4750 3031 4423 
Q 3450 4097 3450 3541 
Q 3450 3153 3228 2886 
Q 3006 2619 2597 2516 
z
" transform="scale(0.015625)"/>
     </defs>
     <use xlink:href="#DejaVuSans-76"/>
     <use xlink:href="#DejaVuSans-32" x="59.179688"/>
     <use xlink:href="#DejaVuSans-2e" x="122.802734"/>
     <use xlink:href="#DejaVuSans-36" x="154.589844"/>
     <use xlink:href="#DejaVuSans-2c" x="218.212891"/>
     <use xlink:href="#DejaVuSans-20" x="250"/>
     <use xlink:href="#DejaVuSans-68" x="281.787109"/>
     <use xlink:href="#DejaVuSans-76" x="345.166016"/>
     <use xlink:href="#DejaVuSans-2d" x="401.720703"/>
     <use xlink:href="#DejaVuSans-68" x="437.804688"/>
     <use xlink:href="#DejaVuSans-61" x="501.183594"/>
     <use xlink:href="#DejaVuSans-73" x="562.462891"/>
     <use xlink:href="#DejaVuSans-68" x="614.5625"/>
     <use xlink:href="#DejaVuSans-3d" x="677.941406"/>
     <use xlink:href="#DejaVuSans-66" x="761.730469"/>
     <use xlink:href="#DejaVuSans-66" x="796.935547"/>
     <use xlink:href="#DejaVuSans-30" x="832.140625"/>
     <use xlink:href="#DejaVuSans-65" x="895.763672"/>
     <use xlink:href="#DejaVuSans-37" x="957.287109"/>
     <use xlink:href="#DejaVuSans-31" x="1020.910156"/>
     <use xlink:href="#DejaVuSans-65" x="1084.533203"/>
     <use xlink:href="#DejaVuSans-38" x="1146.056641"/>
     <use xlink:href="#DejaVuSans-63" x="1209.679688"/>
     <use xlink:href="#DejaVuSans-64" x="1264.660156"/>
     <use xlink:href="#DejaVuSans-39" x="1328.136719"/>
     <use xlink:href="#DejaVuSans-37" x="1391.759766"/>
     <use xlink:href="#DejaVuSans-38" x="1455.382812"/>
     <use xlink:href="#DejaVuSans-33" x="1519.005859"/>
     <use xlink:href="#DejaVuSans-37" x="1582.628906"/>
     <use xlink:href="#DejaVuSans-33" x="1646.251953"/>
    </g>
   </g>
  </g>
 </g>
 <defs>
  <clipPath id="p0914a92930">
   <rect x="57.6" y="6.912" width="303.2064" height="292.032"/>
  </clipPath>
 </defs>
</svg>
