<?xml version="1.0" encoding="utf-8" standalone="no"?>
<!DOCTYPE svg PUBLIC "-//W3C//DTD SVG 1.1//EN"
  "http://www.w3.org/Graphics/SVG/1.1/DTD/svg11.dtd">
<svg xmlns:xlink="http://www.w3.org/1999/xlink" width="460.8pt" height="345.6pt" viewBox="0 0 460.8 345.6" xmlns="http://www.w3.org/2000/svg" version="1.1">
 <metadata>
  <rdf:RDF xmlns:dc="http://purl.org/dc/elements/1.1/" xmlns:cc="http://creativecommons.org/ns#" xmlns:rdf="http://www.w3.org/1999/02/22-rdf-syntax-ns#">
   <cc:Work>
    <dc:type rdf:resource="http://purl.org/dc/dcmitype/StillImage"/>
    <dc:date>2022-06-19T21:03:07.438480</dc:date>
    <dc:format>image/svg+xml</dc:format>
    <dc:creator>
     <cc:Agent>
      <dc:title>Matplotlib v3.5.1, https://matplotlib.org/</dc:title>
     </cc:Agent>
    </dc:creator>
   </cc:Work>
  </rdf:RDF>
 </metadata>
 <defs>
  <style type="text/css">*{stroke-linejoin: round; stroke-linecap: butt}</style>
 </defs>
 <g id="figure_1">
  <g id="patch_1">
   <path d="M 0 345.6 
L 460.8 345.6 
L 460.8 0 
L 0 0 
z
" style="fill: #ffffff"/>
  </g>
  <g id="axes_1">
   <g id="patch_2">
    <path d="M 57.6 298.944 
L 360.8064 298.944 
L 360.8064 6.912 
L 57.6 6.912 
z
" style="fill: #ffffff"/>
   </g>
   <g id="line2d_1">
    <path d="M 14.2848 298.944 
L 14.2848 297.685241 
L 27.323974 297.685241 
L 27.323974 296.426483 
L 40.363149 296.426483 
L 40.363149 292.650207 
L 50.890391 292.650207 
L 50.890391 291.391448 
L 61.029752 291.391448 
L 61.029752 288.873931 
L 66.441498 288.873931 
L 66.441498 286.356414 
L 74.836851 286.356414 
L 74.836851 285.097655 
L 85.894031 285.097655 
L 85.894031 282.580138 
L 90.007914 282.580138 
L 90.007914 278.803862 
L 91.922605 278.803862 
L 91.922605 276.286345 
L 92.223596 276.286345 
L 92.223596 273.768828 
L 95.503454 273.768828 
L 95.503454 271.25131 
L 95.752617 271.25131 
L 95.752617 269.992552 
L 100.726138 269.992552 
L 100.726138 266.216276 
L 101.287718 266.216276 
L 101.287718 264.957517 
L 103.707211 264.957517 
L 103.707211 262.44 
L 105.559021 262.44 
L 105.559021 259.922483 
L 109.400633 259.922483 
L 109.400633 258.663724 
L 110.221204 258.663724 
L 110.221204 256.146207 
L 113.860081 256.146207 
L 113.860081 252.369931 
L 116.086263 252.369931 
L 116.086263 249.852414 
L 123.601383 249.852414 
L 123.601383 247.334897 
L 127.087372 247.334897 
L 127.087372 244.817379 
L 134.112526 244.817379 
L 134.112526 241.041103 
L 136.126705 241.041103 
L 136.126705 238.523586 
L 138.335954 238.523586 
L 138.335954 236.006069 
L 142.373399 236.006069 
L 142.373399 233.488552 
L 144.173881 233.488552 
L 144.173881 230.971034 
L 146.496179 230.971034 
L 146.496179 229.712276 
L 147.816265 229.712276 
L 147.816265 227.194759 
L 148.622706 227.194759 
L 148.622706 225.936 
L 152.303973 225.936 
L 152.303973 224.677241 
L 154.04562 224.677241 
L 154.04562 223.418483 
L 157.3353 223.418483 
L 157.3353 219.642207 
L 163.369315 219.642207 
L 163.369315 218.383448 
L 164.148663 218.383448 
L 164.148663 214.607172 
L 167.212746 214.607172 
L 167.212746 210.830897 
L 169.009206 210.830897 
L 169.009206 207.054621 
L 169.614163 207.054621 
L 169.614163 204.537103 
L 171.656084 204.537103 
L 171.656084 203.278345 
L 174.389431 203.278345 
L 174.453679 196.984552 
L 175.149934 196.984552 
L 175.149934 195.725793 
L 179.856935 195.725793 
L 179.856935 194.467034 
L 180.488824 194.467034 
L 180.488824 191.949517 
L 182.033257 191.949517 
L 182.033257 190.690759 
L 184.75863 190.690759 
L 184.75863 188.173241 
L 185.498698 188.173241 
L 185.498698 184.396966 
L 189.679168 184.396966 
L 189.679168 180.62069 
L 197.081892 180.62069 
L 197.081892 178.103172 
L 199.288255 178.103172 
L 199.288255 176.844414 
L 208.038335 176.844414 
L 208.038335 174.326897 
L 208.267928 174.326897 
L 208.267928 170.550621 
L 208.597626 170.550621 
L 208.597626 166.774345 
L 208.921042 166.774345 
L 208.921042 165.515586 
L 216.102815 165.515586 
L 216.102815 161.73931 
L 217.231567 161.73931 
L 217.231567 159.221793 
L 217.641682 159.221793 
L 217.641682 155.445517 
L 218.861591 155.445517 
L 218.861591 152.928 
L 220.722299 152.928 
L 220.722299 150.410483 
L 223.011789 150.410483 
L 223.011789 147.892966 
L 226.228774 147.892966 
L 226.228774 145.375448 
L 227.371283 145.375448 
L 227.371283 144.11669 
L 229.005045 144.11669 
L 229.005045 141.599172 
L 230.517192 141.599172 
L 230.517192 139.081655 
L 231.658379 139.081655 
L 231.673158 135.305379 
L 238.27876 135.305379 
L 238.27876 131.529103 
L 243.093112 131.529103 
L 243.093112 129.011586 
L 250.03559 129.011586 
L 250.03559 126.494069 
L 255.593946 126.494069 
L 255.593946 125.23531 
L 261.388006 125.23531 
L 261.388006 121.459034 
L 268.334697 121.459034 
L 268.334697 118.941517 
L 277.571735 118.941517 
L 277.571735 117.682759 
L 277.814061 117.682759 
L 277.814061 113.906483 
L 280.887197 113.906483 
L 280.887197 112.647724 
L 281.511489 112.647724 
L 281.511489 108.871448 
L 281.75209 108.871448 
L 281.75209 107.61269 
L 286.231051 107.61269 
L 286.231051 105.095172 
L 289.229527 105.095172 
L 289.229527 101.318897 
L 292.174666 101.318897 
L 292.174666 100.060138 
L 292.6288 100.060138 
L 292.6288 96.283862 
L 293.674534 96.283862 
L 293.674534 93.766345 
L 293.934309 93.766345 
L 293.934309 92.507586 
L 294.974559 92.507586 
L 294.974559 89.990069 
L 295.749968 89.990069 
L 295.749968 88.73131 
L 295.908555 88.73131 
L 295.908555 84.955034 
L 296.207365 84.955034 
L 296.207365 83.696276 
L 297.642866 83.696276 
L 297.642866 79.92 
L 297.894906 79.92 
L 297.894906 78.661241 
L 298.297372 78.661241 
L 298.297372 74.884966 
L 298.839843 74.884966 
L 298.839843 72.367448 
L 299.045731 72.367448 
L 299.045731 68.591172 
L 299.416653 68.591172 
L 299.416653 66.073655 
L 299.674764 66.073655 
L 299.674764 63.556138 
L 300.57075 63.556138 
L 300.57075 62.297379 
L 300.786698 62.297379 
L 300.786698 59.779862 
L 301.695403 59.779862 
L 301.695403 57.262345 
L 302.343148 57.262345 
L 302.343148 56.003586 
L 302.631869 56.003586 
L 302.631869 53.486069 
L 303.05834 53.486069 
L 303.05834 49.709793 
L 303.415368 49.709793 
L 303.415368 45.933517 
L 307.585004 45.933517 
L 307.585004 42.157241 
L 360.8064 42.157241 
L 360.8064 42.157241 
" style="fill: none; stroke: #f5deb3; stroke-width: 4; stroke-linecap: square"/>
   </g>
   <g id="line2d_2">
    <defs>
     <path id="m7b1e77531b" d="M 0 7.778175 
L 7.778175 0 
L 0 -7.778175 
L -7.778175 0 
z
" style="stroke: #f5deb3; stroke-width: 1.5; stroke-linejoin: miter"/>
    </defs>
    <g>
     <use xlink:href="#m7b1e77531b" x="136.126705" y="238.523586" style="fill: #f5deb3; stroke: #f5deb3; stroke-width: 1.5; stroke-linejoin: miter"/>
     <use xlink:href="#m7b1e77531b" x="189.679168" y="180.62069" style="fill: #f5deb3; stroke: #f5deb3; stroke-width: 1.5; stroke-linejoin: miter"/>
     <use xlink:href="#m7b1e77531b" x="289.229527" y="105.095172" style="fill: #f5deb3; stroke: #f5deb3; stroke-width: 1.5; stroke-linejoin: miter"/>
     <use xlink:href="#m7b1e77531b" x="307.585004" y="45.933517" style="fill: #f5deb3; stroke: #f5deb3; stroke-width: 1.5; stroke-linejoin: miter"/>
     <use xlink:href="#m7b1e77531b" x="307.585004" y="42.157241" style="fill: #f5deb3; stroke: #f5deb3; stroke-width: 1.5; stroke-linejoin: miter"/>
     <use xlink:href="#m7b1e77531b" x="360.8064" y="42.157241" style="fill: #f5deb3; stroke: #f5deb3; stroke-width: 1.5; stroke-linejoin: miter"/>
    </g>
   </g>
   <g id="line2d_3">
    <path style="fill: none; stroke: #f5deb3; stroke-width: 4; stroke-linecap: square"/>
    <g/>
   </g>
   <g id="line2d_4">
    <path d="M 360.8064 42.157241 
L 380.514816 12.75264 
" style="fill: none; stroke: #f5deb3; stroke-width: 4; stroke-linecap: square"/>
    <g>
     <use xlink:href="#m7b1e77531b" x="360.8064" y="42.157241" style="fill: #f5deb3; stroke: #f5deb3; stroke-width: 1.5; stroke-linejoin: miter"/>
     <use xlink:href="#m7b1e77531b" x="380.514816" y="12.75264" style="fill: #f5deb3; stroke: #f5deb3; stroke-width: 1.5; stroke-linejoin: miter"/>
    </g>
   </g>
   <g id="matplotlib.axis_1">
    <g id="xtick_1">
     <g id="line2d_5">
      <path d="M 57.6 298.944 
L 57.6 6.912 
" clip-path="url(#pc60a7ebc44)" style="fill: none; stroke: #b0b0b0; stroke-width: 0.8; stroke-linecap: square"/>
     </g>
     <g id="line2d_6">
      <defs>
       <path id="m454664e8bb" d="M 0 0 
L 0 3.5 
" style="stroke: #000000; stroke-width: 0.8"/>
      </defs>
      <g>
       <use xlink:href="#m454664e8bb" x="57.6" y="298.944" style="stroke: #000000; stroke-width: 0.8"/>
      </g>
     </g>
     <g id="text_1">
      <!-- 0 -->
      <g transform="translate(52.191875 318.861344)scale(0.17 -0.17)">
       <defs>
        <path id="DejaVuSans-30" d="M 2034 4250 
Q 1547 4250 1301 3770 
Q 1056 3291 1056 2328 
Q 1056 1369 1301 889 
Q 1547 409 2034 409 
Q 2525 409 2770 889 
Q 3016 1369 3016 2328 
Q 3016 3291 2770 3770 
Q 2525 4250 2034 4250 
z
M 2034 4750 
Q 2819 4750 3233 4129 
Q 3647 3509 3647 2328 
Q 3647 1150 3233 529 
Q 2819 -91 2034 -91 
Q 1250 -91 836 529 
Q 422 1150 422 2328 
Q 422 3509 836 4129 
Q 1250 4750 2034 4750 
z
" transform="scale(0.015625)"/>
       </defs>
       <use xlink:href="#DejaVuSans-30"/>
      </g>
     </g>
    </g>
    <g id="xtick_2">
     <g id="line2d_7">
      <path d="M 144.2304 298.944 
L 144.2304 6.912 
" clip-path="url(#pc60a7ebc44)" style="fill: none; stroke: #b0b0b0; stroke-width: 0.8; stroke-linecap: square"/>
     </g>
     <g id="line2d_8">
      <g>
       <use xlink:href="#m454664e8bb" x="144.2304" y="298.944" style="stroke: #000000; stroke-width: 0.8"/>
      </g>
     </g>
     <g id="text_2">
      <!-- 2 -->
      <g transform="translate(138.822275 318.861344)scale(0.17 -0.17)">
       <defs>
        <path id="DejaVuSans-32" d="M 1228 531 
L 3431 531 
L 3431 0 
L 469 0 
L 469 531 
Q 828 903 1448 1529 
Q 2069 2156 2228 2338 
Q 2531 2678 2651 2914 
Q 2772 3150 2772 3378 
Q 2772 3750 2511 3984 
Q 2250 4219 1831 4219 
Q 1534 4219 1204 4116 
Q 875 4013 500 3803 
L 500 4441 
Q 881 4594 1212 4672 
Q 1544 4750 1819 4750 
Q 2544 4750 2975 4387 
Q 3406 4025 3406 3419 
Q 3406 3131 3298 2873 
Q 3191 2616 2906 2266 
Q 2828 2175 2409 1742 
Q 1991 1309 1228 531 
z
" transform="scale(0.015625)"/>
       </defs>
       <use xlink:href="#DejaVuSans-32"/>
      </g>
     </g>
    </g>
    <g id="xtick_3">
     <g id="line2d_9">
      <path d="M 230.8608 298.944 
L 230.8608 6.912 
" clip-path="url(#pc60a7ebc44)" style="fill: none; stroke: #b0b0b0; stroke-width: 0.8; stroke-linecap: square"/>
     </g>
     <g id="line2d_10">
      <g>
       <use xlink:href="#m454664e8bb" x="230.8608" y="298.944" style="stroke: #000000; stroke-width: 0.8"/>
      </g>
     </g>
     <g id="text_3">
      <!-- 4 -->
      <g transform="translate(225.452675 318.861344)scale(0.17 -0.17)">
       <defs>
        <path id="DejaVuSans-34" d="M 2419 4116 
L 825 1625 
L 2419 1625 
L 2419 4116 
z
M 2253 4666 
L 3047 4666 
L 3047 1625 
L 3713 1625 
L 3713 1100 
L 3047 1100 
L 3047 0 
L 2419 0 
L 2419 1100 
L 313 1100 
L 313 1709 
L 2253 4666 
z
" transform="scale(0.015625)"/>
       </defs>
       <use xlink:href="#DejaVuSans-34"/>
      </g>
     </g>
    </g>
    <g id="xtick_4">
     <g id="line2d_11">
      <path d="M 317.4912 298.944 
L 317.4912 6.912 
" clip-path="url(#pc60a7ebc44)" style="fill: none; stroke: #b0b0b0; stroke-width: 0.8; stroke-linecap: square"/>
     </g>
     <g id="line2d_12">
      <g>
       <use xlink:href="#m454664e8bb" x="317.4912" y="298.944" style="stroke: #000000; stroke-width: 0.8"/>
      </g>
     </g>
     <g id="text_4">
      <!-- 6 -->
      <g transform="translate(312.083075 318.861344)scale(0.17 -0.17)">
       <defs>
        <path id="DejaVuSans-36" d="M 2113 2584 
Q 1688 2584 1439 2293 
Q 1191 2003 1191 1497 
Q 1191 994 1439 701 
Q 1688 409 2113 409 
Q 2538 409 2786 701 
Q 3034 994 3034 1497 
Q 3034 2003 2786 2293 
Q 2538 2584 2113 2584 
z
M 3366 4563 
L 3366 3988 
Q 3128 4100 2886 4159 
Q 2644 4219 2406 4219 
Q 1781 4219 1451 3797 
Q 1122 3375 1075 2522 
Q 1259 2794 1537 2939 
Q 1816 3084 2150 3084 
Q 2853 3084 3261 2657 
Q 3669 2231 3669 1497 
Q 3669 778 3244 343 
Q 2819 -91 2113 -91 
Q 1303 -91 875 529 
Q 447 1150 447 2328 
Q 447 3434 972 4092 
Q 1497 4750 2381 4750 
Q 2619 4750 2861 4703 
Q 3103 4656 3366 4563 
z
" transform="scale(0.015625)"/>
       </defs>
       <use xlink:href="#DejaVuSans-36"/>
      </g>
     </g>
    </g>
    <g id="xtick_5">
     <g id="line2d_13">
      <path d="M 100.9152 298.944 
L 100.9152 6.912 
" clip-path="url(#pc60a7ebc44)" style="fill: none; stroke: #b0b0b0; stroke-width: 0.8; stroke-linecap: square"/>
     </g>
     <g id="line2d_14">
      <defs>
       <path id="m557d71c378" d="M 0 0 
L 0 2 
" style="stroke: #000000; stroke-width: 0.6"/>
      </defs>
      <g>
       <use xlink:href="#m557d71c378" x="100.9152" y="298.944" style="stroke: #000000; stroke-width: 0.6"/>
      </g>
     </g>
    </g>
    <g id="xtick_6">
     <g id="line2d_15">
      <path d="M 187.5456 298.944 
L 187.5456 6.912 
" clip-path="url(#pc60a7ebc44)" style="fill: none; stroke: #b0b0b0; stroke-width: 0.8; stroke-linecap: square"/>
     </g>
     <g id="line2d_16">
      <g>
       <use xlink:href="#m557d71c378" x="187.5456" y="298.944" style="stroke: #000000; stroke-width: 0.6"/>
      </g>
     </g>
    </g>
    <g id="xtick_7">
     <g id="line2d_17">
      <path d="M 274.176 298.944 
L 274.176 6.912 
" clip-path="url(#pc60a7ebc44)" style="fill: none; stroke: #b0b0b0; stroke-width: 0.8; stroke-linecap: square"/>
     </g>
     <g id="line2d_18">
      <g>
       <use xlink:href="#m557d71c378" x="274.176" y="298.944" style="stroke: #000000; stroke-width: 0.6"/>
      </g>
     </g>
    </g>
    <g id="xtick_8">
     <g id="line2d_19">
      <path d="M 360.8064 298.944 
L 360.8064 6.912 
" clip-path="url(#pc60a7ebc44)" style="fill: none; stroke: #b0b0b0; stroke-width: 0.8; stroke-linecap: square"/>
     </g>
     <g id="line2d_20">
      <g>
       <use xlink:href="#m557d71c378" x="360.8064" y="298.944" style="stroke: #000000; stroke-width: 0.6"/>
      </g>
     </g>
    </g>
    <g id="text_5">
     <!-- log10(# f-evals / dimension) -->
     <g transform="translate(88.823278 339.314156)scale(0.17 -0.17)">
      <defs>
       <path id="DejaVuSans-6c" d="M 603 4863 
L 1178 4863 
L 1178 0 
L 603 0 
L 603 4863 
z
" transform="scale(0.015625)"/>
       <path id="DejaVuSans-6f" d="M 1959 3097 
Q 1497 3097 1228 2736 
Q 959 2375 959 1747 
Q 959 1119 1226 758 
Q 1494 397 1959 397 
Q 2419 397 2687 759 
Q 2956 1122 2956 1747 
Q 2956 2369 2687 2733 
Q 2419 3097 1959 3097 
z
M 1959 3584 
Q 2709 3584 3137 3096 
Q 3566 2609 3566 1747 
Q 3566 888 3137 398 
Q 2709 -91 1959 -91 
Q 1206 -91 779 398 
Q 353 888 353 1747 
Q 353 2609 779 3096 
Q 1206 3584 1959 3584 
z
" transform="scale(0.015625)"/>
       <path id="DejaVuSans-67" d="M 2906 1791 
Q 2906 2416 2648 2759 
Q 2391 3103 1925 3103 
Q 1463 3103 1205 2759 
Q 947 2416 947 1791 
Q 947 1169 1205 825 
Q 1463 481 1925 481 
Q 2391 481 2648 825 
Q 2906 1169 2906 1791 
z
M 3481 434 
Q 3481 -459 3084 -895 
Q 2688 -1331 1869 -1331 
Q 1566 -1331 1297 -1286 
Q 1028 -1241 775 -1147 
L 775 -588 
Q 1028 -725 1275 -790 
Q 1522 -856 1778 -856 
Q 2344 -856 2625 -561 
Q 2906 -266 2906 331 
L 2906 616 
Q 2728 306 2450 153 
Q 2172 0 1784 0 
Q 1141 0 747 490 
Q 353 981 353 1791 
Q 353 2603 747 3093 
Q 1141 3584 1784 3584 
Q 2172 3584 2450 3431 
Q 2728 3278 2906 2969 
L 2906 3500 
L 3481 3500 
L 3481 434 
z
" transform="scale(0.015625)"/>
       <path id="DejaVuSans-31" d="M 794 531 
L 1825 531 
L 1825 4091 
L 703 3866 
L 703 4441 
L 1819 4666 
L 2450 4666 
L 2450 531 
L 3481 531 
L 3481 0 
L 794 0 
L 794 531 
z
" transform="scale(0.015625)"/>
       <path id="DejaVuSans-28" d="M 1984 4856 
Q 1566 4138 1362 3434 
Q 1159 2731 1159 2009 
Q 1159 1288 1364 580 
Q 1569 -128 1984 -844 
L 1484 -844 
Q 1016 -109 783 600 
Q 550 1309 550 2009 
Q 550 2706 781 3412 
Q 1013 4119 1484 4856 
L 1984 4856 
z
" transform="scale(0.015625)"/>
       <path id="DejaVuSans-23" d="M 3272 2816 
L 2363 2816 
L 2100 1772 
L 3016 1772 
L 3272 2816 
z
M 2803 4594 
L 2478 3297 
L 3391 3297 
L 3719 4594 
L 4219 4594 
L 3897 3297 
L 4872 3297 
L 4872 2816 
L 3775 2816 
L 3519 1772 
L 4513 1772 
L 4513 1294 
L 3397 1294 
L 3072 0 
L 2572 0 
L 2894 1294 
L 1978 1294 
L 1656 0 
L 1153 0 
L 1478 1294 
L 494 1294 
L 494 1772 
L 1594 1772 
L 1856 2816 
L 850 2816 
L 850 3297 
L 1978 3297 
L 2297 4594 
L 2803 4594 
z
" transform="scale(0.015625)"/>
       <path id="DejaVuSans-20" transform="scale(0.015625)"/>
       <path id="DejaVuSans-66" d="M 2375 4863 
L 2375 4384 
L 1825 4384 
Q 1516 4384 1395 4259 
Q 1275 4134 1275 3809 
L 1275 3500 
L 2222 3500 
L 2222 3053 
L 1275 3053 
L 1275 0 
L 697 0 
L 697 3053 
L 147 3053 
L 147 3500 
L 697 3500 
L 697 3744 
Q 697 4328 969 4595 
Q 1241 4863 1831 4863 
L 2375 4863 
z
" transform="scale(0.015625)"/>
       <path id="DejaVuSans-2d" d="M 313 2009 
L 1997 2009 
L 1997 1497 
L 313 1497 
L 313 2009 
z
" transform="scale(0.015625)"/>
       <path id="DejaVuSans-65" d="M 3597 1894 
L 3597 1613 
L 953 1613 
Q 991 1019 1311 708 
Q 1631 397 2203 397 
Q 2534 397 2845 478 
Q 3156 559 3463 722 
L 3463 178 
Q 3153 47 2828 -22 
Q 2503 -91 2169 -91 
Q 1331 -91 842 396 
Q 353 884 353 1716 
Q 353 2575 817 3079 
Q 1281 3584 2069 3584 
Q 2775 3584 3186 3129 
Q 3597 2675 3597 1894 
z
M 3022 2063 
Q 3016 2534 2758 2815 
Q 2500 3097 2075 3097 
Q 1594 3097 1305 2825 
Q 1016 2553 972 2059 
L 3022 2063 
z
" transform="scale(0.015625)"/>
       <path id="DejaVuSans-76" d="M 191 3500 
L 800 3500 
L 1894 563 
L 2988 3500 
L 3597 3500 
L 2284 0 
L 1503 0 
L 191 3500 
z
" transform="scale(0.015625)"/>
       <path id="DejaVuSans-61" d="M 2194 1759 
Q 1497 1759 1228 1600 
Q 959 1441 959 1056 
Q 959 750 1161 570 
Q 1363 391 1709 391 
Q 2188 391 2477 730 
Q 2766 1069 2766 1631 
L 2766 1759 
L 2194 1759 
z
M 3341 1997 
L 3341 0 
L 2766 0 
L 2766 531 
Q 2569 213 2275 61 
Q 1981 -91 1556 -91 
Q 1019 -91 701 211 
Q 384 513 384 1019 
Q 384 1609 779 1909 
Q 1175 2209 1959 2209 
L 2766 2209 
L 2766 2266 
Q 2766 2663 2505 2880 
Q 2244 3097 1772 3097 
Q 1472 3097 1187 3025 
Q 903 2953 641 2809 
L 641 3341 
Q 956 3463 1253 3523 
Q 1550 3584 1831 3584 
Q 2591 3584 2966 3190 
Q 3341 2797 3341 1997 
z
" transform="scale(0.015625)"/>
       <path id="DejaVuSans-73" d="M 2834 3397 
L 2834 2853 
Q 2591 2978 2328 3040 
Q 2066 3103 1784 3103 
Q 1356 3103 1142 2972 
Q 928 2841 928 2578 
Q 928 2378 1081 2264 
Q 1234 2150 1697 2047 
L 1894 2003 
Q 2506 1872 2764 1633 
Q 3022 1394 3022 966 
Q 3022 478 2636 193 
Q 2250 -91 1575 -91 
Q 1294 -91 989 -36 
Q 684 19 347 128 
L 347 722 
Q 666 556 975 473 
Q 1284 391 1588 391 
Q 1994 391 2212 530 
Q 2431 669 2431 922 
Q 2431 1156 2273 1281 
Q 2116 1406 1581 1522 
L 1381 1569 
Q 847 1681 609 1914 
Q 372 2147 372 2553 
Q 372 3047 722 3315 
Q 1072 3584 1716 3584 
Q 2034 3584 2315 3537 
Q 2597 3491 2834 3397 
z
" transform="scale(0.015625)"/>
       <path id="DejaVuSans-2f" d="M 1625 4666 
L 2156 4666 
L 531 -594 
L 0 -594 
L 1625 4666 
z
" transform="scale(0.015625)"/>
       <path id="DejaVuSans-64" d="M 2906 2969 
L 2906 4863 
L 3481 4863 
L 3481 0 
L 2906 0 
L 2906 525 
Q 2725 213 2448 61 
Q 2172 -91 1784 -91 
Q 1150 -91 751 415 
Q 353 922 353 1747 
Q 353 2572 751 3078 
Q 1150 3584 1784 3584 
Q 2172 3584 2448 3432 
Q 2725 3281 2906 2969 
z
M 947 1747 
Q 947 1113 1208 752 
Q 1469 391 1925 391 
Q 2381 391 2643 752 
Q 2906 1113 2906 1747 
Q 2906 2381 2643 2742 
Q 2381 3103 1925 3103 
Q 1469 3103 1208 2742 
Q 947 2381 947 1747 
z
" transform="scale(0.015625)"/>
       <path id="DejaVuSans-69" d="M 603 3500 
L 1178 3500 
L 1178 0 
L 603 0 
L 603 3500 
z
M 603 4863 
L 1178 4863 
L 1178 4134 
L 603 4134 
L 603 4863 
z
" transform="scale(0.015625)"/>
       <path id="DejaVuSans-6d" d="M 3328 2828 
Q 3544 3216 3844 3400 
Q 4144 3584 4550 3584 
Q 5097 3584 5394 3201 
Q 5691 2819 5691 2113 
L 5691 0 
L 5113 0 
L 5113 2094 
Q 5113 2597 4934 2840 
Q 4756 3084 4391 3084 
Q 3944 3084 3684 2787 
Q 3425 2491 3425 1978 
L 3425 0 
L 2847 0 
L 2847 2094 
Q 2847 2600 2669 2842 
Q 2491 3084 2119 3084 
Q 1678 3084 1418 2786 
Q 1159 2488 1159 1978 
L 1159 0 
L 581 0 
L 581 3500 
L 1159 3500 
L 1159 2956 
Q 1356 3278 1631 3431 
Q 1906 3584 2284 3584 
Q 2666 3584 2933 3390 
Q 3200 3197 3328 2828 
z
" transform="scale(0.015625)"/>
       <path id="DejaVuSans-6e" d="M 3513 2113 
L 3513 0 
L 2938 0 
L 2938 2094 
Q 2938 2591 2744 2837 
Q 2550 3084 2163 3084 
Q 1697 3084 1428 2787 
Q 1159 2491 1159 1978 
L 1159 0 
L 581 0 
L 581 3500 
L 1159 3500 
L 1159 2956 
Q 1366 3272 1645 3428 
Q 1925 3584 2291 3584 
Q 2894 3584 3203 3211 
Q 3513 2838 3513 2113 
z
" transform="scale(0.015625)"/>
       <path id="DejaVuSans-29" d="M 513 4856 
L 1013 4856 
Q 1481 4119 1714 3412 
Q 1947 2706 1947 2009 
Q 1947 1309 1714 600 
Q 1481 -109 1013 -844 
L 513 -844 
Q 928 -128 1133 580 
Q 1338 1288 1338 2009 
Q 1338 2731 1133 3434 
Q 928 4138 513 4856 
z
" transform="scale(0.015625)"/>
      </defs>
      <use xlink:href="#DejaVuSans-6c"/>
      <use xlink:href="#DejaVuSans-6f" x="27.783203"/>
      <use xlink:href="#DejaVuSans-67" x="88.964844"/>
      <use xlink:href="#DejaVuSans-31" x="152.441406"/>
      <use xlink:href="#DejaVuSans-30" x="216.064453"/>
      <use xlink:href="#DejaVuSans-28" x="279.6875"/>
      <use xlink:href="#DejaVuSans-23" x="318.701172"/>
      <use xlink:href="#DejaVuSans-20" x="402.490234"/>
      <use xlink:href="#DejaVuSans-66" x="434.277344"/>
      <use xlink:href="#DejaVuSans-2d" x="463.982422"/>
      <use xlink:href="#DejaVuSans-65" x="500.066406"/>
      <use xlink:href="#DejaVuSans-76" x="561.589844"/>
      <use xlink:href="#DejaVuSans-61" x="620.769531"/>
      <use xlink:href="#DejaVuSans-6c" x="682.048828"/>
      <use xlink:href="#DejaVuSans-73" x="709.832031"/>
      <use xlink:href="#DejaVuSans-20" x="761.931641"/>
      <use xlink:href="#DejaVuSans-2f" x="793.71875"/>
      <use xlink:href="#DejaVuSans-20" x="827.410156"/>
      <use xlink:href="#DejaVuSans-64" x="859.197266"/>
      <use xlink:href="#DejaVuSans-69" x="922.673828"/>
      <use xlink:href="#DejaVuSans-6d" x="950.457031"/>
      <use xlink:href="#DejaVuSans-65" x="1047.869141"/>
      <use xlink:href="#DejaVuSans-6e" x="1109.392578"/>
      <use xlink:href="#DejaVuSans-73" x="1172.771484"/>
      <use xlink:href="#DejaVuSans-69" x="1224.871094"/>
      <use xlink:href="#DejaVuSans-6f" x="1252.654297"/>
      <use xlink:href="#DejaVuSans-6e" x="1313.835938"/>
      <use xlink:href="#DejaVuSans-29" x="1377.214844"/>
     </g>
    </g>
   </g>
   <g id="matplotlib.axis_2">
    <g id="ytick_1">
     <g id="line2d_21">
      <path d="M 57.6 298.944 
L 360.8064 298.944 
" clip-path="url(#pc60a7ebc44)" style="fill: none; stroke: #b0b0b0; stroke-width: 0.8; stroke-linecap: square"/>
     </g>
     <g id="line2d_22">
      <defs>
       <path id="m278e288eab" d="M 0 0 
L -3.5 0 
" style="stroke: #000000; stroke-width: 0.8"/>
      </defs>
      <g>
       <use xlink:href="#m278e288eab" x="57.6" y="298.944" style="stroke: #000000; stroke-width: 0.8"/>
      </g>
     </g>
     <g id="text_6">
      <!-- 0.0 -->
      <g transform="translate(25.155 305.02275)scale(0.16 -0.16)">
       <defs>
        <path id="DejaVuSans-2e" d="M 684 794 
L 1344 794 
L 1344 0 
L 684 0 
L 684 794 
z
" transform="scale(0.015625)"/>
       </defs>
       <use xlink:href="#DejaVuSans-30"/>
       <use xlink:href="#DejaVuSans-2e" x="63.623047"/>
       <use xlink:href="#DejaVuSans-30" x="95.410156"/>
      </g>
     </g>
    </g>
    <g id="ytick_2">
     <g id="line2d_23">
      <path d="M 57.6 240.5376 
L 360.8064 240.5376 
" clip-path="url(#pc60a7ebc44)" style="fill: none; stroke: #b0b0b0; stroke-width: 0.8; stroke-linecap: square"/>
     </g>
     <g id="line2d_24">
      <g>
       <use xlink:href="#m278e288eab" x="57.6" y="240.5376" style="stroke: #000000; stroke-width: 0.8"/>
      </g>
     </g>
     <g id="text_7">
      <!-- 0.2 -->
      <g transform="translate(25.155 246.61635)scale(0.16 -0.16)">
       <use xlink:href="#DejaVuSans-30"/>
       <use xlink:href="#DejaVuSans-2e" x="63.623047"/>
       <use xlink:href="#DejaVuSans-32" x="95.410156"/>
      </g>
     </g>
    </g>
    <g id="ytick_3">
     <g id="line2d_25">
      <path d="M 57.6 182.1312 
L 360.8064 182.1312 
" clip-path="url(#pc60a7ebc44)" style="fill: none; stroke: #b0b0b0; stroke-width: 0.8; stroke-linecap: square"/>
     </g>
     <g id="line2d_26">
      <g>
       <use xlink:href="#m278e288eab" x="57.6" y="182.1312" style="stroke: #000000; stroke-width: 0.8"/>
      </g>
     </g>
     <g id="text_8">
      <!-- 0.4 -->
      <g transform="translate(25.155 188.20995)scale(0.16 -0.16)">
       <use xlink:href="#DejaVuSans-30"/>
       <use xlink:href="#DejaVuSans-2e" x="63.623047"/>
       <use xlink:href="#DejaVuSans-34" x="95.410156"/>
      </g>
     </g>
    </g>
    <g id="ytick_4">
     <g id="line2d_27">
      <path d="M 57.6 123.7248 
L 360.8064 123.7248 
" clip-path="url(#pc60a7ebc44)" style="fill: none; stroke: #b0b0b0; stroke-width: 0.8; stroke-linecap: square"/>
     </g>
     <g id="line2d_28">
      <g>
       <use xlink:href="#m278e288eab" x="57.6" y="123.7248" style="stroke: #000000; stroke-width: 0.8"/>
      </g>
     </g>
     <g id="text_9">
      <!-- 0.6 -->
      <g transform="translate(25.155 129.80355)scale(0.16 -0.16)">
       <use xlink:href="#DejaVuSans-30"/>
       <use xlink:href="#DejaVuSans-2e" x="63.623047"/>
       <use xlink:href="#DejaVuSans-36" x="95.410156"/>
      </g>
     </g>
    </g>
    <g id="ytick_5">
     <g id="line2d_29">
      <path d="M 57.6 65.3184 
L 360.8064 65.3184 
" clip-path="url(#pc60a7ebc44)" style="fill: none; stroke: #b0b0b0; stroke-width: 0.8; stroke-linecap: square"/>
     </g>
     <g id="line2d_30">
      <g>
       <use xlink:href="#m278e288eab" x="57.6" y="65.3184" style="stroke: #000000; stroke-width: 0.8"/>
      </g>
     </g>
     <g id="text_10">
      <!-- 0.8 -->
      <g transform="translate(25.155 71.39715)scale(0.16 -0.16)">
       <defs>
        <path id="DejaVuSans-38" d="M 2034 2216 
Q 1584 2216 1326 1975 
Q 1069 1734 1069 1313 
Q 1069 891 1326 650 
Q 1584 409 2034 409 
Q 2484 409 2743 651 
Q 3003 894 3003 1313 
Q 3003 1734 2745 1975 
Q 2488 2216 2034 2216 
z
M 1403 2484 
Q 997 2584 770 2862 
Q 544 3141 544 3541 
Q 544 4100 942 4425 
Q 1341 4750 2034 4750 
Q 2731 4750 3128 4425 
Q 3525 4100 3525 3541 
Q 3525 3141 3298 2862 
Q 3072 2584 2669 2484 
Q 3125 2378 3379 2068 
Q 3634 1759 3634 1313 
Q 3634 634 3220 271 
Q 2806 -91 2034 -91 
Q 1263 -91 848 271 
Q 434 634 434 1313 
Q 434 1759 690 2068 
Q 947 2378 1403 2484 
z
M 1172 3481 
Q 1172 3119 1398 2916 
Q 1625 2713 2034 2713 
Q 2441 2713 2670 2916 
Q 2900 3119 2900 3481 
Q 2900 3844 2670 4047 
Q 2441 4250 2034 4250 
Q 1625 4250 1398 4047 
Q 1172 3844 1172 3481 
z
" transform="scale(0.015625)"/>
       </defs>
       <use xlink:href="#DejaVuSans-30"/>
       <use xlink:href="#DejaVuSans-2e" x="63.623047"/>
       <use xlink:href="#DejaVuSans-38" x="95.410156"/>
      </g>
     </g>
    </g>
    <g id="ytick_6">
     <g id="line2d_31">
      <path d="M 57.6 6.912 
L 360.8064 6.912 
" clip-path="url(#pc60a7ebc44)" style="fill: none; stroke: #b0b0b0; stroke-width: 0.8; stroke-linecap: square"/>
     </g>
     <g id="line2d_32">
      <g>
       <use xlink:href="#m278e288eab" x="57.6" y="6.912" style="stroke: #000000; stroke-width: 0.8"/>
      </g>
     </g>
     <g id="text_11">
      <!-- 1.0 -->
      <g transform="translate(25.155 12.99075)scale(0.16 -0.16)">
       <use xlink:href="#DejaVuSans-31"/>
       <use xlink:href="#DejaVuSans-2e" x="63.623047"/>
       <use xlink:href="#DejaVuSans-30" x="95.410156"/>
      </g>
     </g>
    </g>
    <g id="text_12">
     <!-- Fraction of function,target pairs -->
     <g transform="translate(17.619531 287.313)rotate(-90)scale(0.17 -0.17)">
      <defs>
       <path id="DejaVuSans-46" d="M 628 4666 
L 3309 4666 
L 3309 4134 
L 1259 4134 
L 1259 2759 
L 3109 2759 
L 3109 2228 
L 1259 2228 
L 1259 0 
L 628 0 
L 628 4666 
z
" transform="scale(0.015625)"/>
       <path id="DejaVuSans-72" d="M 2631 2963 
Q 2534 3019 2420 3045 
Q 2306 3072 2169 3072 
Q 1681 3072 1420 2755 
Q 1159 2438 1159 1844 
L 1159 0 
L 581 0 
L 581 3500 
L 1159 3500 
L 1159 2956 
Q 1341 3275 1631 3429 
Q 1922 3584 2338 3584 
Q 2397 3584 2469 3576 
Q 2541 3569 2628 3553 
L 2631 2963 
z
" transform="scale(0.015625)"/>
       <path id="DejaVuSans-63" d="M 3122 3366 
L 3122 2828 
Q 2878 2963 2633 3030 
Q 2388 3097 2138 3097 
Q 1578 3097 1268 2742 
Q 959 2388 959 1747 
Q 959 1106 1268 751 
Q 1578 397 2138 397 
Q 2388 397 2633 464 
Q 2878 531 3122 666 
L 3122 134 
Q 2881 22 2623 -34 
Q 2366 -91 2075 -91 
Q 1284 -91 818 406 
Q 353 903 353 1747 
Q 353 2603 823 3093 
Q 1294 3584 2113 3584 
Q 2378 3584 2631 3529 
Q 2884 3475 3122 3366 
z
" transform="scale(0.015625)"/>
       <path id="DejaVuSans-74" d="M 1172 4494 
L 1172 3500 
L 2356 3500 
L 2356 3053 
L 1172 3053 
L 1172 1153 
Q 1172 725 1289 603 
Q 1406 481 1766 481 
L 2356 481 
L 2356 0 
L 1766 0 
Q 1100 0 847 248 
Q 594 497 594 1153 
L 594 3053 
L 172 3053 
L 172 3500 
L 594 3500 
L 594 4494 
L 1172 4494 
z
" transform="scale(0.015625)"/>
       <path id="DejaVuSans-75" d="M 544 1381 
L 544 3500 
L 1119 3500 
L 1119 1403 
Q 1119 906 1312 657 
Q 1506 409 1894 409 
Q 2359 409 2629 706 
Q 2900 1003 2900 1516 
L 2900 3500 
L 3475 3500 
L 3475 0 
L 2900 0 
L 2900 538 
Q 2691 219 2414 64 
Q 2138 -91 1772 -91 
Q 1169 -91 856 284 
Q 544 659 544 1381 
z
M 1991 3584 
L 1991 3584 
z
" transform="scale(0.015625)"/>
       <path id="DejaVuSans-2c" d="M 750 794 
L 1409 794 
L 1409 256 
L 897 -744 
L 494 -744 
L 750 256 
L 750 794 
z
" transform="scale(0.015625)"/>
       <path id="DejaVuSans-70" d="M 1159 525 
L 1159 -1331 
L 581 -1331 
L 581 3500 
L 1159 3500 
L 1159 2969 
Q 1341 3281 1617 3432 
Q 1894 3584 2278 3584 
Q 2916 3584 3314 3078 
Q 3713 2572 3713 1747 
Q 3713 922 3314 415 
Q 2916 -91 2278 -91 
Q 1894 -91 1617 61 
Q 1341 213 1159 525 
z
M 3116 1747 
Q 3116 2381 2855 2742 
Q 2594 3103 2138 3103 
Q 1681 3103 1420 2742 
Q 1159 2381 1159 1747 
Q 1159 1113 1420 752 
Q 1681 391 2138 391 
Q 2594 391 2855 752 
Q 3116 1113 3116 1747 
z
" transform="scale(0.015625)"/>
      </defs>
      <use xlink:href="#DejaVuSans-46"/>
      <use xlink:href="#DejaVuSans-72" x="50.269531"/>
      <use xlink:href="#DejaVuSans-61" x="91.382812"/>
      <use xlink:href="#DejaVuSans-63" x="152.662109"/>
      <use xlink:href="#DejaVuSans-74" x="207.642578"/>
      <use xlink:href="#DejaVuSans-69" x="246.851562"/>
      <use xlink:href="#DejaVuSans-6f" x="274.634766"/>
      <use xlink:href="#DejaVuSans-6e" x="335.816406"/>
      <use xlink:href="#DejaVuSans-20" x="399.195312"/>
      <use xlink:href="#DejaVuSans-6f" x="430.982422"/>
      <use xlink:href="#DejaVuSans-66" x="492.164062"/>
      <use xlink:href="#DejaVuSans-20" x="527.369141"/>
      <use xlink:href="#DejaVuSans-66" x="559.15625"/>
      <use xlink:href="#DejaVuSans-75" x="594.361328"/>
      <use xlink:href="#DejaVuSans-6e" x="657.740234"/>
      <use xlink:href="#DejaVuSans-63" x="721.119141"/>
      <use xlink:href="#DejaVuSans-74" x="776.099609"/>
      <use xlink:href="#DejaVuSans-69" x="815.308594"/>
      <use xlink:href="#DejaVuSans-6f" x="843.091797"/>
      <use xlink:href="#DejaVuSans-6e" x="904.273438"/>
      <use xlink:href="#DejaVuSans-2c" x="967.652344"/>
      <use xlink:href="#DejaVuSans-74" x="999.439453"/>
      <use xlink:href="#DejaVuSans-61" x="1038.648438"/>
      <use xlink:href="#DejaVuSans-72" x="1099.927734"/>
      <use xlink:href="#DejaVuSans-67" x="1139.291016"/>
      <use xlink:href="#DejaVuSans-65" x="1202.767578"/>
      <use xlink:href="#DejaVuSans-74" x="1264.291016"/>
      <use xlink:href="#DejaVuSans-20" x="1303.5"/>
      <use xlink:href="#DejaVuSans-70" x="1335.287109"/>
      <use xlink:href="#DejaVuSans-61" x="1398.763672"/>
      <use xlink:href="#DejaVuSans-69" x="1460.042969"/>
      <use xlink:href="#DejaVuSans-72" x="1487.826172"/>
      <use xlink:href="#DejaVuSans-73" x="1528.939453"/>
     </g>
    </g>
   </g>
   <g id="line2d_33">
    <defs>
     <path id="meefa885f91" d="M 0 1.5 
C 0.397805 1.5 0.77937 1.341951 1.06066 1.06066 
C 1.341951 0.77937 1.5 0.397805 1.5 0 
C 1.5 -0.397805 1.341951 -0.77937 1.06066 -1.06066 
C 0.77937 -1.341951 0.397805 -1.5 0 -1.5 
C -0.397805 -1.5 -0.77937 -1.341951 -1.06066 -1.06066 
C -1.341951 -0.77937 -1.5 -0.397805 -1.5 0 
C -1.5 0.397805 -1.341951 0.77937 -1.06066 1.06066 
C -0.77937 1.341951 -0.397805 1.5 0 1.5 
z
" style="stroke: #f5deb3"/>
    </defs>
    <g>
     <use xlink:href="#meefa885f91" x="307.585004" y="42.157241" style="fill: #f5deb3; stroke: #f5deb3"/>
     <use xlink:href="#meefa885f91" x="307.585004" y="42.157241" style="fill: #f5deb3; stroke: #f5deb3"/>
    </g>
   </g>
   <g id="line2d_34">
    <defs>
     <path id="m6be2c52eac" d="M 0 1.5 
C 0.397805 1.5 0.77937 1.341951 1.06066 1.06066 
C 1.341951 0.77937 1.5 0.397805 1.5 0 
C 1.5 -0.397805 1.341951 -0.77937 1.06066 -1.06066 
C 0.77937 -1.341951 0.397805 -1.5 0 -1.5 
C -0.397805 -1.5 -0.77937 -1.341951 -1.06066 -1.06066 
C -1.341951 -0.77937 -1.5 -0.397805 -1.5 0 
C -1.5 0.397805 -1.341951 0.77937 -1.06066 1.06066 
C -0.77937 1.341951 -0.397805 1.5 0 1.5 
z
" style="stroke: #000080"/>
    </defs>
    <g>
     <use xlink:href="#m6be2c52eac" x="79.480672" y="280.314372" style="fill: #000080; stroke: #000080"/>
     <use xlink:href="#m6be2c52eac" x="79.480672" y="280.314372" style="fill: #000080; stroke: #000080"/>
    </g>
   </g>
   <g id="line2d_35">
    <path d="M 14.2848 298.944 
L 14.2848 289.125683 
L 27.323974 289.125683 
L 27.323974 288.999807 
L 34.951403 288.999807 
L 34.951403 288.496303 
L 40.363149 288.496303 
L 40.363149 288.370428 
L 44.560826 288.370428 
L 44.560826 287.363421 
L 47.990577 287.363421 
L 47.990577 286.48229 
L 50.890391 286.48229 
L 50.890391 285.349407 
L 55.618005 285.349407 
L 55.618005 284.971779 
L 59.392932 284.971779 
L 59.392932 284.845903 
L 61.029752 284.845903 
L 61.029752 284.720028 
L 62.535479 284.720028 
L 62.535479 284.216524 
L 65.227428 284.216524 
L 65.227428 284.090648 
L 66.441498 284.090648 
L 66.441498 283.964772 
L 67.581941 283.964772 
L 67.581941 283.461269 
L 68.65718 283.461269 
L 68.65718 283.335393 
L 69.674268 283.335393 
L 69.674268 283.083641 
L 70.639174 283.083641 
L 70.639174 282.580138 
L 72.432107 282.580138 
L 72.432107 282.328386 
L 74.068926 282.328386 
L 74.068926 282.20251 
L 74.836851 282.20251 
L 74.836851 282.076634 
L 76.284608 282.076634 
L 76.284608 281.573131 
L 76.96874 281.573131 
L 76.96874 281.447255 
L 77.628862 281.447255 
L 77.628862 281.069628 
L 78.88343 281.069628 
L 78.88343 280.943752 
L 79.480672 280.943752 
L 79.480672 280.314372 
L 360.8064 280.314372 
" style="fill: none; stroke: #000080; stroke-width: 1.5; stroke-linecap: square"/>
   </g>
   <g id="line2d_36">
    <defs>
     <path id="mdab78c594e" d="M 0 6 
C 1.591219 6 3.117479 5.367802 4.242641 4.242641 
C 5.367802 3.117479 6 1.591219 6 0 
C 6 -1.591219 5.367802 -3.117479 4.242641 -4.242641 
C 3.117479 -5.367802 1.591219 -6 0 -6 
C -1.591219 -6 -3.117479 -5.367802 -4.242641 -4.242641 
C -5.367802 -3.117479 -6 -1.591219 -6 0 
C -6 1.591219 -5.367802 3.117479 -4.242641 4.242641 
C -3.117479 5.367802 -1.591219 6 0 6 
z
" style="stroke: #000080; stroke-width: 1.5"/>
    </defs>
    <g>
     <use xlink:href="#mdab78c594e" x="70.639174" y="283.083641" style="fill-opacity: 0; stroke: #000080; stroke-width: 1.5"/>
     <use xlink:href="#mdab78c594e" x="79.480672" y="280.943752" style="fill-opacity: 0; stroke: #000080; stroke-width: 1.5"/>
     <use xlink:href="#mdab78c594e" x="79.480672" y="280.943752" style="fill-opacity: 0; stroke: #000080; stroke-width: 1.5"/>
     <use xlink:href="#mdab78c594e" x="79.480672" y="280.314372" style="fill-opacity: 0; stroke: #000080; stroke-width: 1.5"/>
     <use xlink:href="#mdab78c594e" x="79.480672" y="280.314372" style="fill-opacity: 0; stroke: #000080; stroke-width: 1.5"/>
     <use xlink:href="#mdab78c594e" x="360.8064" y="280.314372" style="fill-opacity: 0; stroke: #000080; stroke-width: 1.5"/>
    </g>
   </g>
   <g id="line2d_37">
    <path style="fill: none; stroke: #000080; stroke-width: 1.5; stroke-linecap: square"/>
    <g/>
   </g>
   <g id="line2d_38">
    <path d="M 79.480672 280.314372 
" clip-path="url(#pc60a7ebc44)" style="fill: none; stroke: #000080; stroke-width: 1.5; stroke-linecap: square"/>
    <defs>
     <path id="m06371e91e2" d="M -12 12 
L 12 -12 
M -12 -12 
L 12 12 
" style="stroke: #000080"/>
    </defs>
    <g clip-path="url(#pc60a7ebc44)">
     <use xlink:href="#m06371e91e2" x="79.480672" y="280.314372" style="fill: #000080; stroke: #000080"/>
    </g>
   </g>
   <g id="line2d_39">
    <defs>
     <path id="maec4826243" d="M 0 1.5 
C 0.397805 1.5 0.77937 1.341951 1.06066 1.06066 
C 1.341951 0.77937 1.5 0.397805 1.5 0 
C 1.5 -0.397805 1.341951 -0.77937 1.06066 -1.06066 
C 0.77937 -1.341951 0.397805 -1.5 0 -1.5 
C -0.397805 -1.5 -0.77937 -1.341951 -1.06066 -1.06066 
C -1.341951 -0.77937 -1.5 -0.397805 -1.5 0 
C -1.5 0.397805 -1.341951 0.77937 -1.06066 1.06066 
C -0.77937 1.341951 -0.397805 1.5 0 1.5 
z
" style="stroke: #ff00ff"/>
    </defs>
    <g>
     <use xlink:href="#maec4826243" x="272.812228" y="161.865186" style="fill: #ff00ff; stroke: #ff00ff"/>
     <use xlink:href="#maec4826243" x="272.812228" y="161.865186" style="fill: #ff00ff; stroke: #ff00ff"/>
    </g>
   </g>
   <g id="line2d_40">
    <path d="M 14.2848 298.944 
L 14.2848 289.125683 
L 27.323974 289.125683 
L 27.323974 288.999807 
L 34.951403 288.999807 
L 34.951403 288.873931 
L 40.363149 288.873931 
L 40.363149 288.244552 
L 47.990577 288.244552 
L 47.990577 288.118676 
L 55.618005 288.118676 
L 55.618005 287.741048 
L 57.6 287.741048 
L 57.6 287.489297 
L 59.392932 287.489297 
L 59.392932 287.363421 
L 62.535479 287.363421 
L 62.535479 287.237545 
L 65.227428 287.237545 
L 65.227428 287.111669 
L 66.441498 287.111669 
L 66.441498 286.608166 
L 68.65718 286.608166 
L 68.65718 286.48229 
L 74.068926 286.48229 
L 74.068926 286.356414 
L 76.96874 286.356414 
L 76.96874 286.230538 
L 78.266603 286.230538 
L 78.266603 285.978786 
L 78.88343 285.978786 
L 78.88343 285.85291 
L 81.696354 285.85291 
L 81.696354 285.475283 
L 87.1081 285.475283 
L 87.1081 285.349407 
L 87.495981 285.349407 
L 87.495981 285.223531 
L 87.876026 285.223531 
L 87.876026 285.097655 
L 91.616719 285.097655 
L 91.616719 284.971779 
L 94.735529 284.971779 
L 94.735529 284.845903 
L 97.635342 284.845903 
L 97.635342 284.720028 
L 98.510456 284.720028 
L 98.510456 284.594152 
L 98.933205 284.594152 
L 98.933205 284.468276 
L 99.550033 284.468276 
L 99.550033 284.3424 
L 100.726138 284.3424 
L 100.726138 284.216524 
L 101.471247 284.216524 
L 101.471247 283.964772 
L 102.362957 283.964772 
L 102.362957 283.838897 
L 103.047088 283.838897 
L 103.047088 283.587145 
L 104.501065 283.587145 
L 104.501065 283.461269 
L 104.809458 283.461269 
L 104.809458 283.209517 
L 105.26277 283.209517 
L 105.26277 283.083641 
L 105.411479 283.083641 
L 105.411479 282.957766 
L 105.850679 282.957766 
L 105.850679 282.83189 
L 105.99483 282.83189 
L 105.99483 282.706014 
L 106.279859 282.706014 
L 106.279859 282.454262 
L 106.974091 282.454262 
L 106.974091 282.328386 
L 108.162584 282.328386 
L 108.162584 282.20251 
L 108.542628 282.20251 
L 108.542628 281.950759 
L 109.520071 281.950759 
L 109.520071 281.824883 
L 109.990385 281.824883 
L 109.990385 281.573131 
L 110.106149 281.573131 
L 110.106149 281.447255 
L 110.562208 281.447255 
L 110.562208 281.321379 
L 110.674517 281.321379 
L 110.674517 281.069628 
L 110.897141 281.069628 
L 110.897141 280.566124 
L 111.334639 280.566124 
L 111.442442 280.314372 
L 111.656212 280.314372 
L 111.656212 280.188497 
L 111.97238 280.188497 
L 111.97238 280.062621 
L 112.283321 280.062621 
L 112.283321 279.810869 
L 112.487797 279.810869 
L 112.487797 279.684993 
L 112.690074 279.684993 
L 112.690074 279.433241 
L 113.088217 279.433241 
L 113.186449 279.055614 
L 113.381389 279.055614 
L 113.381389 278.929738 
L 113.765312 278.929738 
L 113.765312 278.803862 
L 114.141556 278.803862 
L 114.141556 278.677986 
L 114.418881 278.677986 
L 114.418881 278.55211 
L 114.601519 278.55211 
L 114.601519 278.426234 
L 115.314838 278.426234 
L 115.402131 278.174483 
L 115.489021 278.174483 
L 115.575511 277.922731 
L 115.747307 277.922731 
L 115.747307 277.796855 
L 116.002095 277.796855 
L 116.002095 277.670979 
L 116.253478 277.670979 
L 116.253478 277.545103 
L 116.419219 277.545103 
L 116.501546 277.167476 
L 116.583514 277.167476 
L 116.583514 276.915724 
L 116.746385 276.915724 
L 116.827295 276.663972 
L 117.462345 276.663972 
L 117.540239 276.412221 
L 118.450653 276.412221 
L 118.524569 276.160469 
L 118.889854 276.160469 
L 118.889854 276.034593 
L 119.034004 276.034593 
L 119.034004 275.782841 
L 119.319033 275.782841 
L 119.319033 275.656966 
L 119.530006 275.656966 
L 119.530006 275.53109 
L 119.669351 275.53109 
L 119.669351 275.405214 
L 120.28394 275.405214 
L 120.351004 275.153462 
L 120.616896 275.153462 
L 120.616896 275.027586 
L 120.813877 275.027586 
L 120.813877 274.90171 
L 121.137664 274.90171 
L 121.137664 274.775834 
L 122.015696 274.775834 
L 122.015696 274.649959 
L 123.029559 274.649959 
L 123.029559 274.524083 
L 123.374735 274.524083 
L 123.374735 274.398207 
L 124.156336 274.398207 
L 124.265389 273.894703 
L 124.427792 273.894703 
L 124.481616 273.642952 
L 124.748451 273.642952 
L 124.748451 273.517076 
L 128.310214 273.517076 
L 128.310214 273.3912 
L 128.57149 273.3912 
L 128.57149 273.265324 
L 128.829186 273.265324 
L 128.829186 273.139448 
L 129.041269 273.139448 
L 129.041269 273.013572 
L 131.526822 273.013572 
L 131.526822 272.887697 
L 132.915628 272.887697 
L 132.915628 272.635945 
L 133.623039 272.635945 
L 133.623039 272.384193 
L 133.885683 272.384193 
L 133.885683 272.258317 
L 134.683578 272.258317 
L 134.683578 272.006566 
L 134.808158 272.006566 
L 134.808158 271.88069 
L 136.356818 271.88069 
L 136.356818 271.628938 
L 136.555884 271.628938 
L 136.555884 271.503062 
L 136.92008 271.503062 
L 136.92008 271.377186 
L 137.601239 271.377186 
L 137.601239 271.125434 
L 137.919637 271.125434 
L 137.919637 270.999559 
L 139.289277 270.999559 
L 139.289277 270.873683 
L 141.305488 270.873683 
L 141.305488 270.747807 
L 141.718467 270.747807 
L 141.718467 270.621931 
L 142.185595 270.621931 
L 142.185595 270.496055 
L 142.352625 270.496055 
L 142.352625 270.370179 
L 142.723105 270.370179 
L 142.784148 269.992552 
L 142.905644 269.992552 
L 143.006295 269.7408 
L 143.126369 269.7408 
L 143.146307 269.489048 
L 143.245681 269.489048 
L 143.285285 269.237297 
L 143.364242 269.237297 
L 143.364242 269.111421 
L 143.599145 269.111421 
L 143.618588 268.859669 
L 143.734829 268.859669 
L 143.792681 268.607917 
L 144.041338 268.607917 
L 144.079302 268.23029 
L 144.473374 268.23029 
L 144.529002 267.726786 
L 144.676545 267.726786 
L 144.731576 267.349159 
L 145.237585 267.349159 
L 145.237585 267.223283 
L 145.520737 267.223283 
L 145.520737 267.097407 
L 145.971958 267.097407 
L 145.989098 266.845655 
L 146.159649 266.845655 
L 146.261241 266.342152 
L 146.479495 266.342152 
L 146.479495 266.216276 
L 146.595975 266.216276 
L 146.645676 265.838648 
L 146.941151 265.838648 
L 147.006187 265.335145 
L 147.054816 265.335145 
L 147.054816 265.209269 
L 147.375841 265.209269 
L 147.486917 264.57989 
L 147.581606 264.57989 
L 147.581606 264.328138 
L 147.800712 264.328138 
L 147.800712 264.202262 
L 147.955668 264.202262 
L 147.955668 263.95051 
L 148.139946 263.95051 
L 148.231412 263.447007 
L 148.307296 263.447007 
L 148.322436 263.069379 
L 148.607806 263.069379 
L 148.697031 262.817628 
L 148.726679 262.817628 
L 148.726679 262.691752 
L 148.888912 262.691752 
L 148.947561 261.810621 
L 149.107908 261.810621 
L 149.107908 261.684745 
L 149.238092 261.684745 
L 149.324384 261.432993 
L 149.35306 261.432993 
L 149.35306 261.307117 
L 149.524205 261.307117 
L 149.609197 260.92949 
L 149.637443 260.92949 
L 149.73597 260.425986 
L 149.778038 260.425986 
L 149.778038 260.30011 
L 149.889763 260.30011 
L 149.889763 260.048359 
L 150.316534 260.048359 
L 150.38447 259.796607 
L 150.519611 259.796607 
L 150.613636 259.293103 
L 150.72052 259.293103 
L 150.733838 258.915476 
L 150.879716 258.915476 
L 150.958812 258.537848 
L 150.998235 258.537848 
L 151.063758 258.160221 
L 151.297768 258.160221 
L 151.349377 257.782593 
L 151.516136 257.782593 
L 151.516136 257.656717 
L 152.069827 257.656717 
L 152.069827 257.404966 
L 152.193425 257.404966 
L 152.193425 257.27909 
L 152.328451 257.27909 
L 152.328451 256.901462 
L 152.547334 256.901462 
L 152.655828 256.523834 
L 152.715833 256.523834 
L 152.715833 256.146207 
L 152.882835 256.146207 
L 152.989417 255.265076 
L 153.048369 255.265076 
L 153.142309 255.013324 
L 153.259079 255.013324 
L 153.259079 254.887448 
L 153.375128 254.887448 
L 153.375128 254.635697 
L 153.547871 254.635697 
L 153.547871 254.383945 
L 153.75309 254.383945 
L 153.821002 253.754566 
L 154.056781 253.754566 
L 154.123607 253.502814 
L 154.179115 253.502814 
L 154.179115 253.251062 
L 154.476059 253.251062 
L 154.476059 253.125186 
L 154.639024 253.125186 
L 154.714595 252.873434 
L 154.80059 252.873434 
L 154.86483 252.495807 
L 154.918196 252.495807 
L 155.024477 251.866428 
L 155.035072 251.866428 
L 155.035072 251.740552 
L 155.214281 251.740552 
L 155.318906 251.362924 
L 155.649849 251.362924 
L 155.649849 251.237048 
L 155.782649 251.237048 
L 155.874041 250.355917 
L 156.115606 250.355917 
L 156.225294 249.726538 
L 156.521235 249.726538 
L 156.521235 249.474786 
L 156.638319 249.474786 
L 156.715973 248.719531 
L 156.793307 248.719531 
L 156.793307 248.467779 
L 156.908716 248.467779 
L 156.937458 248.216028 
L 157.04247 248.216028 
L 157.108993 247.8384 
L 157.213055 247.8384 
L 157.278978 247.460772 
L 157.447441 247.460772 
L 157.447441 247.334897 
L 157.76159 247.334897 
L 157.76159 247.083145 
L 157.980225 247.083145 
L 158.070579 246.579641 
L 158.489522 246.579641 
L 158.551127 245.950262 
L 158.647529 245.950262 
L 158.647529 245.824386 
L 158.769513 245.824386 
L 158.838864 245.446759 
L 158.88208 245.446759 
L 158.976805 245.195007 
L 159.062507 245.195007 
L 159.062507 245.069131 
L 159.291971 245.069131 
L 159.291971 244.565628 
L 159.409859 244.565628 
L 159.42664 244.313876 
L 159.577 244.313876 
L 159.577 244.188 
L 159.898714 244.188 
L 159.97218 243.936248 
L 160.093991 243.936248 
L 160.093991 243.810372 
L 160.206974 243.810372 
L 160.23913 243.180993 
L 160.446818 243.180993 
L 160.549809 242.67749 
L 160.589271 242.67749 
L 160.675797 242.04811 
L 160.722826 242.04811 
L 160.722826 241.796359 
L 160.894266 241.796359 
L 160.92527 241.292855 
L 161.041081 241.292855 
L 161.041081 241.041103 
L 161.171478 241.041103 
L 161.202028 240.663476 
L 161.369176 240.663476 
L 161.474774 240.159972 
L 161.482294 240.159972 
L 161.587261 239.404717 
L 161.624608 239.404717 
L 161.639526 239.152966 
L 161.78066 239.152966 
L 161.861887 238.775338 
L 161.898693 238.775338 
L 161.964763 238.145959 
L 162.06708 238.145959 
L 162.17609 237.516579 
L 162.320462 237.516579 
L 162.399397 237.013076 
L 162.485131 237.013076 
L 162.499383 236.509572 
L 162.648372 236.509572 
L 162.648372 236.383697 
L 162.866174 236.383697 
L 162.963715 236.131945 
L 163.22595 236.131945 
L 163.22595 236.006069 
L 163.410077 236.006069 
L 163.423645 235.628441 
L 163.625994 235.628441 
L 163.726358 235.250814 
L 163.852722 235.250814 
L 163.852722 235.124938 
L 164.043972 235.124938 
L 164.142137 234.495559 
L 164.161708 234.495559 
L 164.2268 234.117931 
L 164.278712 234.117931 
L 164.278712 233.992055 
L 164.504157 233.992055 
L 164.516958 233.614428 
L 164.638138 233.614428 
L 164.638138 233.488552 
L 164.790101 233.488552 
L 164.897003 233.110924 
L 164.909539 233.110924 
L 164.953353 232.355669 
L 165.040674 232.355669 
L 165.1152 231.978041 
L 165.164721 231.978041 
L 165.269521 231.474538 
L 165.300233 231.474538 
L 165.337023 231.09691 
L 165.446961 231.09691 
L 165.55626 230.215779 
L 165.562313 230.215779 
L 165.562313 229.964028 
L 165.713024 229.964028 
L 165.820792 229.082897 
L 165.850619 229.082897 
L 165.868492 228.831145 
L 166.152178 228.831145 
L 166.152178 228.705269 
L 166.292432 228.705269 
L 166.321521 228.453517 
L 166.667119 228.453517 
L 166.684234 227.950014 
L 166.826251 227.950014 
L 166.837566 227.44651 
L 167.068041 227.44651 
L 167.118257 227.068883 
L 167.245982 227.068883 
L 167.245982 226.817131 
L 167.383837 226.817131 
L 167.493397 226.565379 
L 167.509777 226.565379 
L 167.607754 225.936 
L 167.694418 225.936 
L 167.759155 225.306621 
L 167.930707 225.306621 
L 168.03183 224.928993 
L 168.174603 224.928993 
L 168.269186 224.173738 
L 168.305841 224.173738 
L 168.378936 223.544359 
L 168.565601 223.544359 
L 168.611979 223.292607 
L 168.806548 223.292607 
L 168.913216 222.663228 
L 168.928405 222.663228 
L 169.039418 222.2856 
L 169.06958 222.2856 
L 169.134768 222.033848 
L 169.259497 222.033848 
L 169.259497 221.782097 
L 169.427812 221.782097 
L 169.427812 221.656221 
L 169.614163 221.656221 
L 169.687218 221.026841 
L 169.822832 221.026841 
L 169.875843 220.649214 
L 169.967056 220.649214 
L 170.053063 219.768083 
L 170.129185 219.768083 
L 170.138678 219.264579 
L 170.351027 219.264579 
L 170.411929 219.012828 
L 170.542436 219.012828 
L 170.542436 218.761076 
L 170.722717 218.761076 
L 170.741111 218.131697 
L 170.869361 218.131697 
L 170.964979 217.879945 
L 171.082693 217.879945 
L 171.150271 217.376441 
L 171.208643 217.376441 
L 171.307016 216.621186 
L 171.342661 216.621186 
L 171.364905 216.243559 
L 171.488986 216.243559 
L 171.585908 215.488303 
L 171.656084 215.488303 
L 171.656084 215.362428 
L 171.882365 215.362428 
L 171.947136 214.9848 
L 172.011684 214.9848 
L 172.058879 214.607172 
L 172.152916 214.607172 
L 172.216763 214.229545 
L 172.301557 214.229545 
L 172.373333 213.851917 
L 172.591198 213.851917 
L 172.695049 213.348414 
L 172.71575 213.348414 
L 172.781843 213.096662 
L 172.872342 213.096662 
L 172.982818 212.467283 
L 173.007281 212.467283 
L 173.007281 212.341407 
L 173.129118 212.341407 
L 173.129118 212.215531 
L 173.310406 212.215531 
L 173.390421 211.712028 
L 173.652083 211.712028 
L 173.758086 210.956772 
L 173.765914 210.956772 
L 173.765914 210.830897 
L 174.076407 210.830897 
L 174.145567 210.201517 
L 174.241203 210.201517 
L 174.298352 209.572138 
L 174.453679 209.572138 
L 174.453679 209.320386 
L 174.985608 209.320386 
L 175.003938 208.691007 
L 175.193513 208.691007 
L 175.193513 208.439255 
L 175.338051 208.439255 
L 175.345249 208.061628 
L 175.52787 208.061628 
L 175.599004 207.306372 
L 175.768638 207.306372 
L 175.873888 206.802869 
L 175.971592 206.802869 
L 176.006364 206.425241 
L 176.357413 206.425241 
L 176.46621 205.669986 
L 176.695334 205.669986 
L 176.805529 205.166483 
L 176.934932 205.166483 
L 176.934932 205.040607 
L 177.060168 205.040607 
L 177.106097 204.662979 
L 177.174783 204.662979 
L 177.259475 204.285352 
L 177.46634 204.285352 
L 177.46634 204.159476 
L 177.623197 204.159476 
L 177.705899 203.530097 
L 177.951847 203.530097 
L 178.03312 203.152469 
L 178.176056 203.152469 
L 178.284089 202.648966 
L 178.391505 202.648966 
L 178.452611 202.271338 
L 178.534791 202.271338 
L 178.637769 201.767834 
L 178.746193 201.767834 
L 178.782196 201.390207 
L 179.109051 201.390207 
L 179.20308 201.012579 
L 179.496812 201.012579 
L 179.594669 200.509076 
L 179.780344 200.509076 
L 179.780344 200.257324 
L 180.076462 200.257324 
L 180.076462 200.131448 
L 180.600725 200.131448 
L 180.636067 199.753821 
L 180.714669 199.753821 
L 180.717373 199.502069 
L 180.870894 199.502069 
L 180.870894 199.250317 
L 181.28476 199.250317 
L 181.28476 199.124441 
L 181.542759 199.124441 
L 181.586709 198.746814 
L 181.83808 198.746814 
L 181.942258 198.495062 
L 182.407753 198.495062 
L 182.429987 197.991559 
L 182.535857 197.991559 
L 182.636251 197.488055 
L 182.653338 197.488055 
L 182.653338 197.236303 
L 182.78221 197.236303 
L 182.78221 197.110428 
L 182.893349 197.110428 
L 182.893349 196.984552 
L 183.161236 196.984552 
L 183.260718 196.7328 
L 183.352626 196.7328 
L 183.352626 196.606924 
L 183.68121 196.606924 
L 183.775688 196.229297 
L 183.81243 196.229297 
L 183.81243 196.103421 
L 184.060838 196.103421 
L 184.060838 195.977545 
L 184.649235 195.977545 
L 184.649235 195.725793 
L 185.046562 195.725793 
L 185.046562 195.599917 
L 186.239001 195.599917 
L 186.34156 194.970538 
L 187.02297 194.970538 
L 187.090544 194.59291 
L 187.307069 194.59291 
L 187.307069 194.467034 
L 187.639423 194.467034 
L 187.639423 194.341159 
L 187.796001 194.341159 
L 187.796001 194.215283 
L 188.279785 194.215283 
L 188.279785 193.963531 
L 188.545651 193.963531 
L 188.575951 193.585903 
L 189.990633 193.585903 
L 189.990633 193.460028 
L 190.306773 193.460028 
L 190.306773 193.208276 
L 190.803699 193.208276 
L 190.803699 192.956524 
L 191.094116 192.956524 
L 191.094116 192.704772 
L 191.69053 192.704772 
L 191.69053 192.578897 
L 191.882716 192.578897 
L 191.882716 192.327145 
L 192.078873 192.327145 
L 192.078873 192.075393 
L 192.589295 192.075393 
L 192.589295 191.949517 
L 192.978028 191.949517 
L 192.978028 191.697766 
L 194.30687 191.697766 
L 194.358015 191.446014 
L 194.442949 191.446014 
L 194.442949 191.194262 
L 194.676169 191.194262 
L 194.676169 191.068386 
L 194.850482 191.068386 
L 194.850482 190.816634 
L 195.020666 190.816634 
L 195.020666 190.690759 
L 195.664433 190.690759 
L 195.687632 190.439007 
L 196.714608 190.439007 
L 196.760769 189.809628 
L 197.118116 189.809628 
L 197.118116 189.683752 
L 197.51315 189.683752 
L 197.534179 189.432 
L 197.935826 189.432 
L 198.038412 188.928497 
L 198.233396 188.928497 
L 198.248312 188.550869 
L 198.38625 188.550869 
L 198.38625 188.424993 
L 198.771326 188.424993 
L 198.771326 188.173241 
L 199.998209 188.173241 
L 200.107542 187.92149 
L 200.217203 187.92149 
L 200.217203 187.795614 
L 200.662681 187.795614 
L 200.662681 187.669738 
L 201.117978 187.669738 
L 201.117978 187.543862 
L 201.634705 187.543862 
L 201.634705 187.29211 
L 201.766778 187.29211 
L 201.817059 187.040359 
L 202.111617 187.040359 
L 202.111617 186.914483 
L 202.236089 186.914483 
L 202.236089 186.788607 
L 202.392237 186.788607 
L 202.392237 186.662731 
L 202.971074 186.662731 
L 202.971074 186.536855 
L 203.726236 186.536855 
L 203.726236 186.410979 
L 204.443823 186.410979 
L 204.443823 186.285103 
L 205.705286 186.285103 
L 205.737498 186.033352 
L 205.833093 186.033352 
L 205.833093 185.907476 
L 206.265012 185.907476 
L 206.32819 185.655724 
L 206.720526 185.655724 
L 206.720526 185.403972 
L 206.89081 185.403972 
L 206.89081 185.278097 
L 208.082584 185.278097 
L 208.082584 185.152221 
L 208.380749 185.152221 
L 208.380749 184.774593 
L 208.513891 184.774593 
L 208.536708 184.522841 
L 208.962662 184.522841 
L 208.962662 184.396966 
L 209.263912 184.396966 
L 209.329615 184.145214 
L 209.614036 184.145214 
L 209.715036 183.64171 
L 211.333755 183.64171 
L 211.39633 183.138207 
L 211.512967 183.138207 
L 211.512967 182.886455 
L 211.688403 182.886455 
L 211.688403 182.760579 
L 212.166521 182.760579 
L 212.274957 182.382952 
L 212.538361 182.382952 
L 212.538361 182.257076 
L 212.988316 182.257076 
L 212.988316 182.1312 
L 213.335818 182.1312 
L 213.397797 181.753572 
L 213.713092 181.753572 
L 213.713092 181.627697 
L 214.362204 181.627697 
L 214.362204 181.501821 
L 214.55699 181.501821 
L 214.55699 181.375945 
L 214.846981 181.375945 
L 214.846981 181.250069 
L 215.077366 181.250069 
L 215.077366 181.124193 
L 215.356931 181.124193 
L 215.457027 180.746566 
L 215.50262 180.746566 
L 215.50262 180.494814 
L 215.661966 180.494814 
L 215.661966 180.243062 
L 216.132883 180.243062 
L 216.132883 180.117186 
L 216.666857 180.117186 
L 216.681653 179.739559 
L 216.881257 179.739559 
L 216.881257 179.487807 
L 218.311808 179.487807 
L 218.311808 179.361931 
L 218.493109 179.361931 
L 218.493109 179.236055 
L 218.836298 179.236055 
L 218.836298 178.984303 
L 219.633702 178.984303 
L 219.668862 178.732552 
L 219.828135 178.732552 
L 219.828135 178.606676 
L 220.3494 178.606676 
L 220.37701 178.229048 
L 220.605526 178.229048 
L 220.690994 177.851421 
L 220.879009 177.851421 
L 220.879009 177.599669 
L 221.2589 177.599669 
L 221.2589 177.473793 
L 221.669332 177.473793 
L 221.669332 177.347917 
L 222.006958 177.347917 
L 222.006958 177.222041 
L 222.838253 177.222041 
L 222.838253 177.096166 
L 223.070798 177.096166 
L 223.070798 176.97029 
L 223.195051 176.97029 
L 223.195051 176.718538 
L 223.405367 176.718538 
L 223.405367 176.592662 
L 223.702191 176.592662 
L 223.702191 176.34091 
L 224.427561 176.34091 
L 224.427561 176.215034 
L 224.806642 176.215034 
L 224.806642 176.089159 
L 225.067986 176.089159 
L 225.177979 175.837407 
L 226.233105 175.837407 
L 226.233105 175.711531 
L 226.619571 175.711531 
L 226.679341 175.333903 
L 227.292766 175.333903 
L 227.320034 175.082152 
L 228.426747 175.082152 
L 228.521355 174.8304 
L 229.07964 174.8304 
L 229.096383 174.578648 
L 229.235743 174.578648 
L 229.259723 174.075145 
L 230.447326 174.075145 
L 230.447326 173.949269 
L 231.364907 173.949269 
L 231.364907 173.823393 
L 231.818171 173.823393 
L 231.818171 173.697517 
L 231.990086 173.697517 
L 231.990086 173.571641 
L 232.703773 173.571641 
L 232.792765 173.194014 
L 233.74857 173.194014 
L 233.74857 172.942262 
L 233.894664 172.942262 
L 233.894664 172.816386 
L 234.262313 172.816386 
L 234.262313 172.69051 
L 234.398408 172.69051 
L 234.429867 172.187007 
L 235.128176 172.187007 
L 235.128176 172.061131 
L 235.55467 172.061131 
L 235.620075 171.809379 
L 235.839352 171.809379 
L 235.839352 171.557628 
L 236.187089 171.557628 
L 236.294214 171.054124 
L 236.482111 171.054124 
L 236.482111 170.928248 
L 236.686929 170.928248 
L 236.686929 170.676497 
L 236.865495 170.676497 
L 236.865495 170.424745 
L 236.999131 170.424745 
L 236.999131 170.298869 
L 238.343198 170.298869 
L 238.343198 170.047117 
L 238.894405 170.047117 
L 238.966188 169.795366 
L 240.259258 169.795366 
L 240.259258 169.543614 
L 240.629072 169.543614 
L 240.629072 169.291862 
L 240.829458 169.291862 
L 240.829458 169.04011 
L 241.253516 169.04011 
L 241.253516 168.914234 
L 241.391911 168.914234 
L 241.391911 168.788359 
L 242.843759 168.788359 
L 242.933781 168.536607 
L 243.101358 168.536607 
L 243.101358 168.410731 
L 244.453464 168.410731 
L 244.537483 168.158979 
L 244.73205 168.158979 
L 244.73205 168.033103 
L 246.104115 168.033103 
L 246.185505 167.781352 
L 247.036182 167.781352 
L 247.129576 167.5296 
L 247.339364 167.5296 
L 247.339364 167.277848 
L 247.809138 167.277848 
L 247.809138 167.151972 
L 247.999576 167.151972 
L 247.999576 166.900221 
L 249.642073 166.900221 
L 249.730657 166.270841 
L 250.191004 166.270841 
L 250.217241 166.01909 
L 250.864996 166.01909 
L 250.864996 165.893214 
L 251.448291 165.893214 
L 251.448291 165.767338 
L 251.680904 165.767338 
L 251.680904 165.641462 
L 252.152663 165.641462 
L 252.152663 165.515586 
L 253.042042 165.515586 
L 253.042042 165.38971 
L 254.590435 165.38971 
L 254.590435 165.263834 
L 254.729944 165.263834 
L 254.823063 165.012083 
L 255.695861 165.012083 
L 255.695861 164.760331 
L 256.331758 164.760331 
L 256.331758 164.508579 
L 256.495797 164.508579 
L 256.495797 164.382703 
L 256.775816 164.382703 
L 256.775816 164.256828 
L 258.557135 164.256828 
L 258.557135 164.130952 
L 258.831774 164.130952 
L 258.831774 163.8792 
L 260.410162 163.8792 
L 260.410162 163.627448 
L 260.815543 163.627448 
L 260.815543 163.501572 
L 263.424072 163.501572 
L 263.424072 163.375697 
L 265.904775 163.375697 
L 265.926633 163.123945 
L 266.80301 163.123945 
L 266.80301 162.872193 
L 267.112954 162.872193 
L 267.112954 162.746317 
L 267.57072 162.746317 
L 267.57072 162.620441 
L 268.618035 162.620441 
L 268.618035 162.494566 
L 269.225138 162.494566 
L 269.225138 162.36869 
L 271.649163 162.36869 
L 271.649163 162.242814 
L 272.076569 162.242814 
L 272.076569 162.116938 
L 272.738583 162.116938 
L 272.812228 161.865186 
L 360.8064 161.865186 
L 360.8064 161.865186 
" style="fill: none; stroke: #ff00ff; stroke-width: 1.5; stroke-linecap: square"/>
   </g>
   <g id="line2d_41">
    <defs>
     <path id="mccf90becb4" d="M 0 8.485281 
L 5.091169 0 
L 0 -8.485281 
L -5.091169 0 
z
" style="stroke: #ff00ff; stroke-width: 1.5; stroke-linejoin: miter"/>
    </defs>
    <g>
     <use xlink:href="#mccf90becb4" x="87.876026" y="285.097655" style="fill-opacity: 0; stroke: #ff00ff; stroke-width: 1.5; stroke-linejoin: miter"/>
     <use xlink:href="#mccf90becb4" x="164.161708" y="234.369683" style="fill-opacity: 0; stroke: #ff00ff; stroke-width: 1.5; stroke-linejoin: miter"/>
     <use xlink:href="#mccf90becb4" x="250.217241" y="166.144966" style="fill-opacity: 0; stroke: #ff00ff; stroke-width: 1.5; stroke-linejoin: miter"/>
     <use xlink:href="#mccf90becb4" x="272.812228" y="161.865186" style="fill-opacity: 0; stroke: #ff00ff; stroke-width: 1.5; stroke-linejoin: miter"/>
     <use xlink:href="#mccf90becb4" x="272.812228" y="161.865186" style="fill-opacity: 0; stroke: #ff00ff; stroke-width: 1.5; stroke-linejoin: miter"/>
     <use xlink:href="#mccf90becb4" x="360.8064" y="161.865186" style="fill-opacity: 0; stroke: #ff00ff; stroke-width: 1.5; stroke-linejoin: miter"/>
    </g>
   </g>
   <g id="line2d_42">
    <path style="fill: none; stroke: #ff00ff; stroke-width: 1.5; stroke-linecap: square"/>
    <g/>
   </g>
   <g id="line2d_43">
    <path d="M 274.176019 161.865186 
" clip-path="url(#pc60a7ebc44)" style="fill: none; stroke: #ff00ff; stroke-width: 1.5; stroke-linecap: square"/>
    <defs>
     <path id="m5a7dd92c23" d="M -12 12 
L 12 -12 
M -12 -12 
L 12 12 
" style="stroke: #ff00ff"/>
    </defs>
    <g clip-path="url(#pc60a7ebc44)">
     <use xlink:href="#m5a7dd92c23" x="274.176019" y="161.865186" style="fill: #ff00ff; stroke: #ff00ff"/>
    </g>
   </g>
   <g id="line2d_44">
    <defs>
     <path id="m8fdee7b96a" d="M 0 1.5 
C 0.397805 1.5 0.77937 1.341951 1.06066 1.06066 
C 1.341951 0.77937 1.5 0.397805 1.5 0 
C 1.5 -0.397805 1.341951 -0.77937 1.06066 -1.06066 
C 0.77937 -1.341951 0.397805 -1.5 0 -1.5 
C -0.397805 -1.5 -0.77937 -1.341951 -1.06066 -1.06066 
C -1.341951 -0.77937 -1.5 -0.397805 -1.5 0 
C -1.5 0.397805 -1.341951 0.77937 -1.06066 1.06066 
C -0.77937 1.341951 -0.397805 1.5 0 1.5 
z
" style="stroke: #6495ed"/>
    </defs>
    <g>
     <use xlink:href="#m8fdee7b96a" x="113.860081" y="255.390952" style="fill: #6495ed; stroke: #6495ed"/>
     <use xlink:href="#m8fdee7b96a" x="113.860081" y="255.390952" style="fill: #6495ed; stroke: #6495ed"/>
    </g>
   </g>
   <g id="line2d_45">
    <path d="M 14.2848 298.944 
L 14.2848 296.552359 
L 27.323974 296.552359 
L 27.323974 295.922979 
L 34.951403 295.922979 
L 34.951403 295.671228 
L 40.363149 295.671228 
L 40.363149 295.2936 
L 44.560826 295.2936 
L 44.560826 294.664221 
L 47.990577 294.664221 
L 47.990577 294.412469 
L 50.890391 294.412469 
L 50.890391 293.531338 
L 53.402323 293.531338 
L 53.402323 292.776083 
L 55.618005 292.776083 
L 55.618005 292.020828 
L 61.029752 292.020828 
L 61.029752 291.894952 
L 62.535479 291.894952 
L 62.535479 291.517324 
L 66.441498 291.517324 
L 66.441498 291.391448 
L 67.581941 291.391448 
L 67.581941 291.013821 
L 69.674268 291.013821 
L 69.674268 290.636193 
L 70.639174 290.636193 
L 70.639174 290.384441 
L 74.068926 290.384441 
L 74.068926 290.258566 
L 75.574654 290.258566 
L 75.574654 290.13269 
L 77.628862 290.13269 
L 77.628862 290.006814 
L 78.266603 290.006814 
L 78.266603 289.880938 
L 78.88343 289.880938 
L 78.88343 289.755062 
L 81.696354 289.755062 
L 81.696354 289.629186 
L 82.211771 289.629186 
L 82.211771 289.377434 
L 83.202082 289.377434 
L 83.202082 289.251559 
L 85.038813 289.251559 
L 85.038813 289.125683 
L 85.471281 289.125683 
L 85.471281 288.999807 
L 87.1081 288.999807 
L 87.1081 288.873931 
L 88.248544 288.873931 
L 88.248544 288.748055 
L 89.668958 288.748055 
L 89.668958 288.244552 
L 90.989609 288.244552 
L 90.989609 287.489297 
L 91.305777 287.489297 
L 91.305777 287.237545 
L 93.098709 287.237545 
L 93.098709 286.859917 
L 94.472426 286.859917 
L 94.472426 286.734041 
L 94.735529 286.734041 
L 94.735529 286.356414 
L 94.995002 286.356414 
L 94.995002 286.230538 
L 98.295464 286.230538 
L 98.295464 286.104662 
L 98.510456 286.104662 
L 98.510456 285.978786 
L 99.14107 285.978786 
L 99.14107 285.85291 
L 99.550033 285.85291 
L 99.550033 285.727034 
L 99.751228 285.727034 
L 99.751228 285.601159 
L 100.342215 285.601159 
L 100.342215 285.475283 
L 100.535156 285.475283 
L 100.535156 285.349407 
L 101.102381 285.349407 
L 101.102381 285.223531 
L 101.287718 285.223531 
L 101.287718 285.097655 
L 101.833019 285.097655 
L 101.833019 284.971779 
L 102.878374 284.971779 
L 102.878374 284.845903 
L 103.047088 284.845903 
L 103.047088 283.838897 
L 103.214303 283.838897 
L 103.214303 282.706014 
L 103.380045 282.706014 
L 103.380045 281.321379 
L 103.544339 281.321379 
L 103.544339 280.440248 
L 103.707211 280.440248 
L 103.707211 278.929738 
L 103.868684 278.929738 
L 103.868684 277.419228 
L 104.028784 277.419228 
L 104.028784 276.789848 
L 104.187532 276.789848 
L 104.187532 275.656966 
L 104.344952 275.656966 
L 104.344952 275.153462 
L 104.501065 275.153462 
L 104.501065 274.398207 
L 104.655893 274.398207 
L 104.655893 273.139448 
L 104.809458 273.139448 
L 104.809458 272.384193 
L 104.961779 272.384193 
L 104.961779 271.88069 
L 105.112877 271.88069 
L 105.112877 271.25131 
L 105.26277 271.25131 
L 105.26277 270.118428 
L 105.411479 270.118428 
L 105.411479 269.992552 
L 105.559021 269.992552 
L 105.559021 269.111421 
L 105.705415 269.111421 
L 105.705415 268.607917 
L 105.99483 268.607917 
L 105.99483 268.356166 
L 106.137884 268.356166 
L 106.137884 268.23029 
L 106.279859 268.23029 
L 106.279859 267.978538 
L 106.42077 267.978538 
L 106.42077 267.852662 
L 106.560633 267.852662 
L 106.560633 267.097407 
L 106.699465 267.097407 
L 106.699465 266.971531 
L 106.837279 266.971531 
L 106.837279 266.719779 
L 107.109915 266.719779 
L 107.109915 266.342152 
L 107.244765 266.342152 
L 107.244765 265.964524 
L 107.378656 265.964524 
L 107.378656 265.712772 
L 107.5116 265.712772 
L 107.5116 265.335145 
L 107.774703 265.335145 
L 107.774703 265.083393 
L 107.904887 265.083393 
L 107.904887 264.957517 
L 108.034177 264.957517 
L 108.034177 264.831641 
L 108.162584 264.831641 
L 108.162584 264.454014 
L 108.29012 264.454014 
L 108.29012 263.95051 
L 108.416798 263.95051 
L 108.416798 263.698759 
L 108.542628 263.698759 
L 108.542628 263.321131 
L 108.915146 263.321131 
L 108.915146 262.817628 
L 109.037698 262.817628 
L 109.037698 262.314124 
L 109.159456 262.314124 
L 109.159456 262.188248 
L 109.280431 262.188248 
L 109.280431 261.936497 
L 109.400633 261.936497 
L 109.400633 261.810621 
L 109.520071 261.810621 
L 109.520071 261.432993 
L 109.756698 261.432993 
L 109.756698 261.181241 
L 109.873904 261.181241 
L 109.873904 261.055366 
L 109.990385 261.055366 
L 109.990385 260.92949 
L 110.106149 260.92949 
L 110.106149 260.677738 
L 110.335561 260.677738 
L 110.335561 260.30011 
L 110.449226 260.30011 
L 110.449226 260.174234 
L 110.786158 260.174234 
L 110.786158 259.418979 
L 111.007473 259.418979 
L 111.117162 259.041352 
L 111.226215 259.041352 
L 111.226215 258.7896 
L 111.442442 258.7896 
L 111.54963 258.286097 
L 111.656212 258.286097 
L 111.656212 258.160221 
L 111.86758 258.160221 
L 111.86758 258.034345 
L 112.076599 258.034345 
L 112.180244 257.656717 
L 112.283321 257.656717 
L 112.385837 256.901462 
L 112.487797 256.901462 
L 112.589207 256.397959 
L 112.690074 256.397959 
L 112.790402 256.020331 
L 112.989468 256.020331 
L 112.989468 255.768579 
L 113.186449 255.768579 
L 113.186449 255.642703 
L 113.381389 255.642703 
L 113.381389 255.516828 
L 113.860081 255.516828 
L 113.860081 255.390952 
L 360.8064 255.390952 
L 360.8064 255.390952 
" style="fill: none; stroke: #6495ed; stroke-width: 1.5; stroke-linecap: square"/>
   </g>
   <g id="line2d_46">
    <defs>
     <path id="m7654d95457" d="M -0 6 
L 6 -6 
L -6 -6 
z
" style="stroke: #6495ed; stroke-width: 1.5; stroke-linejoin: miter"/>
    </defs>
    <g>
     <use xlink:href="#m7654d95457" x="83.202082" y="289.377434" style="fill-opacity: 0; stroke: #6495ed; stroke-width: 1.5; stroke-linejoin: miter"/>
     <use xlink:href="#m7654d95457" x="113.860081" y="255.516828" style="fill-opacity: 0; stroke: #6495ed; stroke-width: 1.5; stroke-linejoin: miter"/>
     <use xlink:href="#m7654d95457" x="113.860081" y="255.516828" style="fill-opacity: 0; stroke: #6495ed; stroke-width: 1.5; stroke-linejoin: miter"/>
     <use xlink:href="#m7654d95457" x="113.860081" y="255.390952" style="fill-opacity: 0; stroke: #6495ed; stroke-width: 1.5; stroke-linejoin: miter"/>
     <use xlink:href="#m7654d95457" x="113.860081" y="255.390952" style="fill-opacity: 0; stroke: #6495ed; stroke-width: 1.5; stroke-linejoin: miter"/>
     <use xlink:href="#m7654d95457" x="360.8064" y="255.390952" style="fill-opacity: 0; stroke: #6495ed; stroke-width: 1.5; stroke-linejoin: miter"/>
    </g>
   </g>
   <g id="line2d_47">
    <path style="fill: none; stroke: #6495ed; stroke-width: 1.5; stroke-linecap: square"/>
    <g/>
   </g>
   <g id="line2d_48">
    <path d="M 113.954374 255.390952 
" clip-path="url(#pc60a7ebc44)" style="fill: none; stroke: #6495ed; stroke-width: 1.5; stroke-linecap: square"/>
    <defs>
     <path id="mf28aa86cc9" d="M -12 12 
L 12 -12 
M -12 -12 
L 12 12 
" style="stroke: #6495ed"/>
    </defs>
    <g clip-path="url(#pc60a7ebc44)">
     <use xlink:href="#mf28aa86cc9" x="113.954374" y="255.390952" style="fill: #6495ed; stroke: #6495ed"/>
    </g>
   </g>
   <g id="line2d_49">
    <path d="M 360.8064 280.314372 
L 380.514816 293.10336 
" style="fill: none; stroke: #000080; stroke-width: 1.5; stroke-linecap: square"/>
    <g>
     <use xlink:href="#mdab78c594e" x="360.8064" y="280.314372" style="fill-opacity: 0; stroke: #000080; stroke-width: 1.5"/>
     <use xlink:href="#mdab78c594e" x="380.514816" y="293.10336" style="fill-opacity: 0; stroke: #000080; stroke-width: 1.5"/>
    </g>
   </g>
   <g id="line2d_50">
    <path d="M 360.8064 255.390952 
L 380.514816 199.65312 
" style="fill: none; stroke: #6495ed; stroke-width: 1.5; stroke-linecap: square"/>
    <g>
     <use xlink:href="#m7654d95457" x="360.8064" y="255.390952" style="fill-opacity: 0; stroke: #6495ed; stroke-width: 1.5; stroke-linejoin: miter"/>
     <use xlink:href="#m7654d95457" x="380.514816" y="199.65312" style="fill-opacity: 0; stroke: #6495ed; stroke-width: 1.5; stroke-linejoin: miter"/>
    </g>
   </g>
   <g id="line2d_51">
    <path d="M 360.8064 161.865186 
L 380.514816 106.20288 
" style="fill: none; stroke: #ff00ff; stroke-width: 1.5; stroke-linecap: square"/>
    <g>
     <use xlink:href="#mccf90becb4" x="360.8064" y="161.865186" style="fill-opacity: 0; stroke: #ff00ff; stroke-width: 1.5; stroke-linejoin: miter"/>
     <use xlink:href="#mccf90becb4" x="380.514816" y="106.20288" style="fill-opacity: 0; stroke: #ff00ff; stroke-width: 1.5; stroke-linejoin: miter"/>
    </g>
   </g>
   <g id="line2d_52">
    <path d="M 360.8064 298.944 
L 360.8064 6.912 
" style="fill: none; stroke: #000000; stroke-width: 1.5; stroke-linecap: square"/>
   </g>
   <g id="patch_3">
    <path d="M 57.6 298.944 
L 360.8064 298.944 
" style="fill: none; stroke: #000000; stroke-width: 0.8; stroke-linejoin: miter; stroke-linecap: square"/>
   </g>
   <g id="patch_4">
    <path d="M 57.6 6.912 
L 360.8064 6.912 
" style="fill: none; stroke: #000000; stroke-width: 0.8; stroke-linejoin: miter; stroke-linecap: square"/>
   </g>
   <g id="text_13">
    <!-- cma -->
    <g transform="translate(386.578944 296.966485)scale(0.14 -0.14)">
     <use xlink:href="#DejaVuSans-63"/>
     <use xlink:href="#DejaVuSans-6d" x="54.980469"/>
     <use xlink:href="#DejaVuSans-61" x="152.392578"/>
    </g>
   </g>
   <g id="text_14">
    <!-- parEgo -->
    <g transform="translate(386.578944 203.516245)scale(0.14 -0.14)">
     <defs>
      <path id="DejaVuSans-45" d="M 628 4666 
L 3578 4666 
L 3578 4134 
L 1259 4134 
L 1259 2753 
L 3481 2753 
L 3481 2222 
L 1259 2222 
L 1259 531 
L 3634 531 
L 3634 0 
L 628 0 
L 628 4666 
z
" transform="scale(0.015625)"/>
     </defs>
     <use xlink:href="#DejaVuSans-70"/>
     <use xlink:href="#DejaVuSans-61" x="63.476562"/>
     <use xlink:href="#DejaVuSans-72" x="124.755859"/>
     <use xlink:href="#DejaVuSans-45" x="165.869141"/>
     <use xlink:href="#DejaVuSans-67" x="229.052734"/>
     <use xlink:href="#DejaVuSans-6f" x="292.529297"/>
    </g>
   </g>
   <g id="text_15">
    <!-- external- -->
    <g transform="translate(386.578944 110.066005)scale(0.14 -0.14)">
     <defs>
      <path id="DejaVuSans-78" d="M 3513 3500 
L 2247 1797 
L 3578 0 
L 2900 0 
L 1881 1375 
L 863 0 
L 184 0 
L 1544 1831 
L 300 3500 
L 978 3500 
L 1906 2253 
L 2834 3500 
L 3513 3500 
z
" transform="scale(0.015625)"/>
     </defs>
     <use xlink:href="#DejaVuSans-65"/>
     <use xlink:href="#DejaVuSans-78" x="59.773438"/>
     <use xlink:href="#DejaVuSans-74" x="118.953125"/>
     <use xlink:href="#DejaVuSans-65" x="158.162109"/>
     <use xlink:href="#DejaVuSans-72" x="219.685547"/>
     <use xlink:href="#DejaVuSans-6e" x="259.048828"/>
     <use xlink:href="#DejaVuSans-61" x="322.427734"/>
     <use xlink:href="#DejaVuSans-6c" x="383.707031"/>
     <use xlink:href="#DejaVuSans-2d" x="411.490234"/>
    </g>
   </g>
   <g id="text_16">
    <!-- best 2016 -->
    <g transform="translate(386.578944 16.615765)scale(0.14 -0.14)">
     <defs>
      <path id="DejaVuSans-62" d="M 3116 1747 
Q 3116 2381 2855 2742 
Q 2594 3103 2138 3103 
Q 1681 3103 1420 2742 
Q 1159 2381 1159 1747 
Q 1159 1113 1420 752 
Q 1681 391 2138 391 
Q 2594 391 2855 752 
Q 3116 1113 3116 1747 
z
M 1159 2969 
Q 1341 3281 1617 3432 
Q 1894 3584 2278 3584 
Q 2916 3584 3314 3078 
Q 3713 2572 3713 1747 
Q 3713 922 3314 415 
Q 2916 -91 2278 -91 
Q 1894 -91 1617 61 
Q 1341 213 1159 525 
L 1159 0 
L 581 0 
L 581 4863 
L 1159 4863 
L 1159 2969 
z
" transform="scale(0.015625)"/>
     </defs>
     <use xlink:href="#DejaVuSans-62"/>
     <use xlink:href="#DejaVuSans-65" x="63.476562"/>
     <use xlink:href="#DejaVuSans-73" x="125"/>
     <use xlink:href="#DejaVuSans-74" x="177.099609"/>
     <use xlink:href="#DejaVuSans-20" x="216.308594"/>
     <use xlink:href="#DejaVuSans-32" x="248.095703"/>
     <use xlink:href="#DejaVuSans-30" x="311.71875"/>
     <use xlink:href="#DejaVuSans-31" x="375.341797"/>
     <use xlink:href="#DejaVuSans-36" x="438.964844"/>
    </g>
   </g>
   <g id="text_17">
    <!-- bbob-biobj f9, f10, f18, f19, 10-D -->
    <g transform="translate(60.632064 17.582726)scale(0.102 -0.102)">
     <defs>
      <path id="DejaVuSans-6a" d="M 603 3500 
L 1178 3500 
L 1178 -63 
Q 1178 -731 923 -1031 
Q 669 -1331 103 -1331 
L -116 -1331 
L -116 -844 
L 38 -844 
Q 366 -844 484 -692 
Q 603 -541 603 -63 
L 603 3500 
z
M 603 4863 
L 1178 4863 
L 1178 4134 
L 603 4134 
L 603 4863 
z
" transform="scale(0.015625)"/>
      <path id="DejaVuSans-39" d="M 703 97 
L 703 672 
Q 941 559 1184 500 
Q 1428 441 1663 441 
Q 2288 441 2617 861 
Q 2947 1281 2994 2138 
Q 2813 1869 2534 1725 
Q 2256 1581 1919 1581 
Q 1219 1581 811 2004 
Q 403 2428 403 3163 
Q 403 3881 828 4315 
Q 1253 4750 1959 4750 
Q 2769 4750 3195 4129 
Q 3622 3509 3622 2328 
Q 3622 1225 3098 567 
Q 2575 -91 1691 -91 
Q 1453 -91 1209 -44 
Q 966 3 703 97 
z
M 1959 2075 
Q 2384 2075 2632 2365 
Q 2881 2656 2881 3163 
Q 2881 3666 2632 3958 
Q 2384 4250 1959 4250 
Q 1534 4250 1286 3958 
Q 1038 3666 1038 3163 
Q 1038 2656 1286 2365 
Q 1534 2075 1959 2075 
z
" transform="scale(0.015625)"/>
      <path id="DejaVuSans-44" d="M 1259 4147 
L 1259 519 
L 2022 519 
Q 2988 519 3436 956 
Q 3884 1394 3884 2338 
Q 3884 3275 3436 3711 
Q 2988 4147 2022 4147 
L 1259 4147 
z
M 628 4666 
L 1925 4666 
Q 3281 4666 3915 4102 
Q 4550 3538 4550 2338 
Q 4550 1131 3912 565 
Q 3275 0 1925 0 
L 628 0 
L 628 4666 
z
" transform="scale(0.015625)"/>
     </defs>
     <use xlink:href="#DejaVuSans-62"/>
     <use xlink:href="#DejaVuSans-62" x="63.476562"/>
     <use xlink:href="#DejaVuSans-6f" x="126.953125"/>
     <use xlink:href="#DejaVuSans-62" x="188.134766"/>
     <use xlink:href="#DejaVuSans-2d" x="251.611328"/>
     <use xlink:href="#DejaVuSans-62" x="287.695312"/>
     <use xlink:href="#DejaVuSans-69" x="351.171875"/>
     <use xlink:href="#DejaVuSans-6f" x="378.955078"/>
     <use xlink:href="#DejaVuSans-62" x="440.136719"/>
     <use xlink:href="#DejaVuSans-6a" x="503.613281"/>
     <use xlink:href="#DejaVuSans-20" x="531.396484"/>
     <use xlink:href="#DejaVuSans-66" x="563.183594"/>
     <use xlink:href="#DejaVuSans-39" x="598.388672"/>
     <use xlink:href="#DejaVuSans-2c" x="662.011719"/>
     <use xlink:href="#DejaVuSans-20" x="693.798828"/>
     <use xlink:href="#DejaVuSans-66" x="725.585938"/>
     <use xlink:href="#DejaVuSans-31" x="760.791016"/>
     <use xlink:href="#DejaVuSans-30" x="824.414062"/>
     <use xlink:href="#DejaVuSans-2c" x="888.037109"/>
     <use xlink:href="#DejaVuSans-20" x="919.824219"/>
     <use xlink:href="#DejaVuSans-66" x="951.611328"/>
     <use xlink:href="#DejaVuSans-31" x="986.816406"/>
     <use xlink:href="#DejaVuSans-38" x="1050.439453"/>
     <use xlink:href="#DejaVuSans-2c" x="1114.0625"/>
     <use xlink:href="#DejaVuSans-20" x="1145.849609"/>
     <use xlink:href="#DejaVuSans-66" x="1177.636719"/>
     <use xlink:href="#DejaVuSans-31" x="1212.841797"/>
     <use xlink:href="#DejaVuSans-39" x="1276.464844"/>
     <use xlink:href="#DejaVuSans-2c" x="1340.087891"/>
     <use xlink:href="#DejaVuSans-20" x="1371.875"/>
     <use xlink:href="#DejaVuSans-31" x="1403.662109"/>
     <use xlink:href="#DejaVuSans-30" x="1467.285156"/>
     <use xlink:href="#DejaVuSans-2d" x="1530.908203"/>
     <use xlink:href="#DejaVuSans-44" x="1566.992188"/>
    </g>
    <!-- 58 targets: 1..-1.0e-4 -->
    <g transform="translate(60.632064 29.004495)scale(0.102 -0.102)">
     <defs>
      <path id="DejaVuSans-35" d="M 691 4666 
L 3169 4666 
L 3169 4134 
L 1269 4134 
L 1269 2991 
Q 1406 3038 1543 3061 
Q 1681 3084 1819 3084 
Q 2600 3084 3056 2656 
Q 3513 2228 3513 1497 
Q 3513 744 3044 326 
Q 2575 -91 1722 -91 
Q 1428 -91 1123 -41 
Q 819 9 494 109 
L 494 744 
Q 775 591 1075 516 
Q 1375 441 1709 441 
Q 2250 441 2565 725 
Q 2881 1009 2881 1497 
Q 2881 1984 2565 2268 
Q 2250 2553 1709 2553 
Q 1456 2553 1204 2497 
Q 953 2441 691 2322 
L 691 4666 
z
" transform="scale(0.015625)"/>
      <path id="DejaVuSans-3a" d="M 750 794 
L 1409 794 
L 1409 0 
L 750 0 
L 750 794 
z
M 750 3309 
L 1409 3309 
L 1409 2516 
L 750 2516 
L 750 3309 
z
" transform="scale(0.015625)"/>
     </defs>
     <use xlink:href="#DejaVuSans-35"/>
     <use xlink:href="#DejaVuSans-38" x="63.623047"/>
     <use xlink:href="#DejaVuSans-20" x="127.246094"/>
     <use xlink:href="#DejaVuSans-74" x="159.033203"/>
     <use xlink:href="#DejaVuSans-61" x="198.242188"/>
     <use xlink:href="#DejaVuSans-72" x="259.521484"/>
     <use xlink:href="#DejaVuSans-67" x="298.884766"/>
     <use xlink:href="#DejaVuSans-65" x="362.361328"/>
     <use xlink:href="#DejaVuSans-74" x="423.884766"/>
     <use xlink:href="#DejaVuSans-73" x="463.09375"/>
     <use xlink:href="#DejaVuSans-3a" x="515.193359"/>
     <use xlink:href="#DejaVuSans-20" x="548.884766"/>
     <use xlink:href="#DejaVuSans-31" x="580.671875"/>
     <use xlink:href="#DejaVuSans-2e" x="644.294922"/>
     <use xlink:href="#DejaVuSans-2e" x="676.082031"/>
     <use xlink:href="#DejaVuSans-2d" x="707.869141"/>
     <use xlink:href="#DejaVuSans-31" x="743.953125"/>
     <use xlink:href="#DejaVuSans-2e" x="807.576172"/>
     <use xlink:href="#DejaVuSans-30" x="839.363281"/>
     <use xlink:href="#DejaVuSans-65" x="902.986328"/>
     <use xlink:href="#DejaVuSans-2d" x="964.509766"/>
     <use xlink:href="#DejaVuSans-34" x="1000.59375"/>
    </g>
    <!-- 10 instances -->
    <g transform="translate(60.632064 40.426264)scale(0.102 -0.102)">
     <use xlink:href="#DejaVuSans-31"/>
     <use xlink:href="#DejaVuSans-30" x="63.623047"/>
     <use xlink:href="#DejaVuSans-20" x="127.246094"/>
     <use xlink:href="#DejaVuSans-69" x="159.033203"/>
     <use xlink:href="#DejaVuSans-6e" x="186.816406"/>
     <use xlink:href="#DejaVuSans-73" x="250.195312"/>
     <use xlink:href="#DejaVuSans-74" x="302.294922"/>
     <use xlink:href="#DejaVuSans-61" x="341.503906"/>
     <use xlink:href="#DejaVuSans-6e" x="402.783203"/>
     <use xlink:href="#DejaVuSans-63" x="466.162109"/>
     <use xlink:href="#DejaVuSans-65" x="521.142578"/>
     <use xlink:href="#DejaVuSans-73" x="582.666016"/>
    </g>
   </g>
   <g id="text_18">
    <!-- v2.6, hv-hash=ff0e71e8cd978373 -->
    <g style="fill: #808080" transform="translate(123.707887 293.943992)scale(0.1 -0.1)">
     <defs>
      <path id="DejaVuSans-68" d="M 3513 2113 
L 3513 0 
L 2938 0 
L 2938 2094 
Q 2938 2591 2744 2837 
Q 2550 3084 2163 3084 
Q 1697 3084 1428 2787 
Q 1159 2491 1159 1978 
L 1159 0 
L 581 0 
L 581 4863 
L 1159 4863 
L 1159 2956 
Q 1366 3272 1645 3428 
Q 1925 3584 2291 3584 
Q 2894 3584 3203 3211 
Q 3513 2838 3513 2113 
z
" transform="scale(0.015625)"/>
      <path id="DejaVuSans-3d" d="M 678 2906 
L 4684 2906 
L 4684 2381 
L 678 2381 
L 678 2906 
z
M 678 1631 
L 4684 1631 
L 4684 1100 
L 678 1100 
L 678 1631 
z
" transform="scale(0.015625)"/>
      <path id="DejaVuSans-37" d="M 525 4666 
L 3525 4666 
L 3525 4397 
L 1831 0 
L 1172 0 
L 2766 4134 
L 525 4134 
L 525 4666 
z
" transform="scale(0.015625)"/>
      <path id="DejaVuSans-33" d="M 2597 2516 
Q 3050 2419 3304 2112 
Q 3559 1806 3559 1356 
Q 3559 666 3084 287 
Q 2609 -91 1734 -91 
Q 1441 -91 1130 -33 
Q 819 25 488 141 
L 488 750 
Q 750 597 1062 519 
Q 1375 441 1716 441 
Q 2309 441 2620 675 
Q 2931 909 2931 1356 
Q 2931 1769 2642 2001 
Q 2353 2234 1838 2234 
L 1294 2234 
L 1294 2753 
L 1863 2753 
Q 2328 2753 2575 2939 
Q 2822 3125 2822 3475 
Q 2822 3834 2567 4026 
Q 2313 4219 1838 4219 
Q 1578 4219 1281 4162 
Q 984 4106 628 3988 
L 628 4550 
Q 988 4650 1302 4700 
Q 1616 4750 1894 4750 
Q 2613 4750 3031 4423 
Q 3450 4097 3450 3541 
Q 3450 3153 3228 2886 
Q 3006 2619 2597 2516 
z
" transform="scale(0.015625)"/>
     </defs>
     <use xlink:href="#DejaVuSans-76"/>
     <use xlink:href="#DejaVuSans-32" x="59.179688"/>
     <use xlink:href="#DejaVuSans-2e" x="122.802734"/>
     <use xlink:href="#DejaVuSans-36" x="154.589844"/>
     <use xlink:href="#DejaVuSans-2c" x="218.212891"/>
     <use xlink:href="#DejaVuSans-20" x="250"/>
     <use xlink:href="#DejaVuSans-68" x="281.787109"/>
     <use xlink:href="#DejaVuSans-76" x="345.166016"/>
     <use xlink:href="#DejaVuSans-2d" x="401.720703"/>
     <use xlink:href="#DejaVuSans-68" x="437.804688"/>
     <use xlink:href="#DejaVuSans-61" x="501.183594"/>
     <use xlink:href="#DejaVuSans-73" x="562.462891"/>
     <use xlink:href="#DejaVuSans-68" x="614.5625"/>
     <use xlink:href="#DejaVuSans-3d" x="677.941406"/>
     <use xlink:href="#DejaVuSans-66" x="761.730469"/>
     <use xlink:href="#DejaVuSans-66" x="796.935547"/>
     <use xlink:href="#DejaVuSans-30" x="832.140625"/>
     <use xlink:href="#DejaVuSans-65" x="895.763672"/>
     <use xlink:href="#DejaVuSans-37" x="957.287109"/>
     <use xlink:href="#DejaVuSans-31" x="1020.910156"/>
     <use xlink:href="#DejaVuSans-65" x="1084.533203"/>
     <use xlink:href="#DejaVuSans-38" x="1146.056641"/>
     <use xlink:href="#DejaVuSans-63" x="1209.679688"/>
     <use xlink:href="#DejaVuSans-64" x="1264.660156"/>
     <use xlink:href="#DejaVuSans-39" x="1328.136719"/>
     <use xlink:href="#DejaVuSans-37" x="1391.759766"/>
     <use xlink:href="#DejaVuSans-38" x="1455.382812"/>
     <use xlink:href="#DejaVuSans-33" x="1519.005859"/>
     <use xlink:href="#DejaVuSans-37" x="1582.628906"/>
     <use xlink:href="#DejaVuSans-33" x="1646.251953"/>
    </g>
   </g>
  </g>
 </g>
 <defs>
  <clipPath id="pc60a7ebc44">
   <rect x="57.6" y="6.912" width="303.2064" height="292.032"/>
  </clipPath>
 </defs>
</svg>
