<?xml version="1.0" encoding="utf-8" standalone="no"?>
<!DOCTYPE svg PUBLIC "-//W3C//DTD SVG 1.1//EN"
  "http://www.w3.org/Graphics/SVG/1.1/DTD/svg11.dtd">
<svg xmlns:xlink="http://www.w3.org/1999/xlink" width="460.8pt" height="345.6pt" viewBox="0 0 460.8 345.6" xmlns="http://www.w3.org/2000/svg" version="1.1">
 <metadata>
  <rdf:RDF xmlns:dc="http://purl.org/dc/elements/1.1/" xmlns:cc="http://creativecommons.org/ns#" xmlns:rdf="http://www.w3.org/1999/02/22-rdf-syntax-ns#">
   <cc:Work>
    <dc:type rdf:resource="http://purl.org/dc/dcmitype/StillImage"/>
    <dc:date>2022-06-19T21:02:40.738302</dc:date>
    <dc:format>image/svg+xml</dc:format>
    <dc:creator>
     <cc:Agent>
      <dc:title>Matplotlib v3.5.1, https://matplotlib.org/</dc:title>
     </cc:Agent>
    </dc:creator>
   </cc:Work>
  </rdf:RDF>
 </metadata>
 <defs>
  <style type="text/css">*{stroke-linejoin: round; stroke-linecap: butt}</style>
 </defs>
 <g id="figure_1">
  <g id="patch_1">
   <path d="M 0 345.6 
L 460.8 345.6 
L 460.8 0 
L 0 0 
z
" style="fill: #ffffff"/>
  </g>
  <g id="axes_1">
   <g id="patch_2">
    <path d="M 57.6 298.944 
L 360.8064 298.944 
L 360.8064 6.912 
L 57.6 6.912 
z
" style="fill: #ffffff"/>
   </g>
   <g id="line2d_1">
    <path d="M 14.2848 298.944 
L 14.2848 296.426483 
L 27.323974 296.426483 
L 27.323974 293.908966 
L 44.560826 293.908966 
L 44.560826 291.391448 
L 53.402323 291.391448 
L 53.402323 288.873931 
L 57.6 288.873931 
L 57.6 286.356414 
L 61.029752 286.356414 
L 61.029752 283.838897 
L 62.535479 283.838897 
L 62.535479 281.321379 
L 67.581941 281.321379 
L 67.581941 278.803862 
L 75.574654 278.803862 
L 75.574654 276.286345 
L 80.059535 276.286345 
L 80.059535 275.027586 
L 84.596168 275.027586 
L 84.596168 272.510069 
L 85.894031 272.510069 
L 85.894031 271.25131 
L 89.323782 271.25131 
L 89.323782 267.475034 
L 89.668958 267.475034 
L 89.668958 266.216276 
L 90.340871 266.216276 
L 90.340871 264.957517 
L 96.241256 264.957517 
L 96.241256 261.181241 
L 97.18203 261.181241 
L 97.18203 257.404966 
L 100.535156 257.404966 
L 100.535156 253.62869 
L 102.362957 253.62869 
L 102.362957 251.111172 
L 102.536336 251.111172 
L 102.536336 248.593655 
L 103.544339 248.593655 
L 103.544339 246.076138 
L 110.674517 246.076138 
L 110.674517 244.817379 
L 114.141556 244.817379 
L 114.141556 243.558621 
L 120.682786 243.558621 
L 120.682786 241.041103 
L 121.768984 241.041103 
L 121.768984 238.523586 
L 122.971409 238.523586 
L 122.971409 236.006069 
L 126.078082 236.006069 
L 126.078082 234.74731 
L 129.375706 234.74731 
L 129.375706 230.971034 
L 129.7043 230.971034 
L 129.7043 229.712276 
L 131.63737 229.712276 
L 131.63737 225.936 
L 137.140746 225.936 
L 137.140746 223.418483 
L 137.601239 223.418483 
L 137.681345 218.383448 
L 141.393187 218.383448 
L 141.393187 215.865931 
L 143.126369 215.865931 
L 143.126369 213.348414 
L 143.618588 213.348414 
L 143.618588 210.830897 
L 146.612557 210.830897 
L 146.612557 207.054621 
L 148.607806 207.054621 
L 148.607806 203.278345 
L 149.395993 203.278345 
L 149.395993 200.760828 
L 149.820013 200.760828 
L 149.820013 198.24331 
L 155.474761 198.24331 
L 155.474761 195.725793 
L 156.482044 195.725793 
L 156.482044 194.467034 
L 157.032948 194.467034 
L 157.032948 193.208276 
L 162.442313 193.208276 
L 162.442313 190.690759 
L 163.64611 190.690759 
L 163.692963 183.138207 
L 168.462127 183.138207 
L 168.462127 180.62069 
L 169.274409 180.62069 
L 169.274409 179.361931 
L 170.00055 179.361931 
L 170.00055 178.103172 
L 170.336945 178.103172 
L 170.336945 175.585655 
L 175.477915 175.585655 
L 175.477915 174.326897 
L 175.849382 174.326897 
L 175.849382 170.550621 
L 176.560893 170.550621 
L 176.560893 166.774345 
L 181.428529 166.774345 
L 181.428529 162.998069 
L 182.689901 162.998069 
L 182.689901 160.480552 
L 182.804006 160.480552 
L 182.804006 157.963034 
L 185.336501 157.963034 
L 185.336501 155.445517 
L 186.152093 155.445517 
L 186.152093 152.928 
L 191.147005 152.928 
L 191.147005 151.669241 
L 191.494836 151.669241 
L 191.494836 150.410483 
L 194.40249 150.410483 
L 194.40249 149.151724 
L 199.353641 149.151724 
L 199.353641 145.375448 
L 199.699894 145.375448 
L 199.699894 144.11669 
L 200.637373 144.11669 
L 200.637373 140.340414 
L 202.806308 140.340414 
L 202.806308 136.564138 
L 204.604027 136.564138 
L 204.604027 135.305379 
L 208.950608 135.305379 
L 208.950608 134.046621 
L 213.798088 134.046621 
L 213.798088 130.270345 
L 216.503327 130.270345 
L 216.503327 126.494069 
L 217.412766 126.494069 
L 217.412766 123.976552 
L 225.123701 123.976552 
L 225.123701 122.717793 
L 225.861611 122.717793 
L 225.861611 120.200276 
L 231.025245 120.200276 
L 231.025245 117.682759 
L 234.379227 117.682759 
L 234.379227 113.906483 
L 234.792338 113.906483 
L 234.792338 112.647724 
L 235.271566 112.647724 
L 235.271566 108.871448 
L 235.654223 108.871448 
L 235.654223 106.353931 
L 236.171634 106.353931 
L 236.171634 105.095172 
L 238.973034 105.095172 
L 238.973034 101.318897 
L 242.428617 101.318897 
L 242.428617 97.542621 
L 243.152613 97.542621 
L 243.152613 95.025103 
L 243.91436 95.025103 
L 243.91436 93.766345 
L 244.977371 93.766345 
L 244.977371 92.507586 
L 247.057507 92.507586 
L 247.057507 91.248828 
L 249.077285 91.248828 
L 249.077285 88.73131 
L 250.745233 88.73131 
L 250.745233 84.955034 
L 252.958489 84.955034 
L 252.958489 83.696276 
L 253.645681 83.696276 
L 253.645681 81.178759 
L 259.543244 81.178759 
L 259.58803 76.143724 
L 259.670695 76.143724 
L 259.670695 72.367448 
L 261.380171 72.367448 
L 261.380171 68.591172 
L 263.54482 68.591172 
L 263.54482 66.073655 
L 266.881711 66.073655 
L 266.881711 62.297379 
L 267.79808 62.297379 
L 267.79808 59.779862 
L 268.01975 59.779862 
L 268.01975 57.262345 
L 275.319117 57.262345 
L 275.319117 56.003586 
L 276.187564 56.003586 
L 276.187564 54.744828 
L 280.768081 54.744828 
L 280.768081 52.22731 
L 284.473494 52.22731 
L 284.473494 49.709793 
L 288.251054 49.709793 
L 288.251054 45.933517 
L 291.465832 45.933517 
L 291.465832 42.157241 
L 360.8064 42.157241 
L 360.8064 42.157241 
" style="fill: none; stroke: #f5deb3; stroke-width: 4; stroke-linecap: square"/>
   </g>
   <g id="line2d_2">
    <defs>
     <path id="m5476106dbf" d="M 0 7.778175 
L 7.778175 0 
L 0 -7.778175 
L -7.778175 0 
z
" style="stroke: #f5deb3; stroke-width: 1.5; stroke-linejoin: miter"/>
    </defs>
    <g>
     <use xlink:href="#m5476106dbf" x="121.768984" y="238.523586" style="fill: #f5deb3; stroke: #f5deb3; stroke-width: 1.5; stroke-linejoin: miter"/>
     <use xlink:href="#m5476106dbf" x="191.494836" y="150.410483" style="fill: #f5deb3; stroke: #f5deb3; stroke-width: 1.5; stroke-linejoin: miter"/>
     <use xlink:href="#m5476106dbf" x="253.645681" y="81.178759" style="fill: #f5deb3; stroke: #f5deb3; stroke-width: 1.5; stroke-linejoin: miter"/>
     <use xlink:href="#m5476106dbf" x="291.465832" y="42.157241" style="fill: #f5deb3; stroke: #f5deb3; stroke-width: 1.5; stroke-linejoin: miter"/>
     <use xlink:href="#m5476106dbf" x="291.465832" y="42.157241" style="fill: #f5deb3; stroke: #f5deb3; stroke-width: 1.5; stroke-linejoin: miter"/>
     <use xlink:href="#m5476106dbf" x="360.8064" y="42.157241" style="fill: #f5deb3; stroke: #f5deb3; stroke-width: 1.5; stroke-linejoin: miter"/>
    </g>
   </g>
   <g id="line2d_3">
    <path style="fill: none; stroke: #f5deb3; stroke-width: 4; stroke-linecap: square"/>
    <g/>
   </g>
   <g id="line2d_4">
    <path d="M 360.8064 42.157241 
L 380.514816 12.75264 
" style="fill: none; stroke: #f5deb3; stroke-width: 4; stroke-linecap: square"/>
    <g>
     <use xlink:href="#m5476106dbf" x="360.8064" y="42.157241" style="fill: #f5deb3; stroke: #f5deb3; stroke-width: 1.5; stroke-linejoin: miter"/>
     <use xlink:href="#m5476106dbf" x="380.514816" y="12.75264" style="fill: #f5deb3; stroke: #f5deb3; stroke-width: 1.5; stroke-linejoin: miter"/>
    </g>
   </g>
   <g id="matplotlib.axis_1">
    <g id="xtick_1">
     <g id="line2d_5">
      <path d="M 57.6 298.944 
L 57.6 6.912 
" clip-path="url(#p29d793a21d)" style="fill: none; stroke: #b0b0b0; stroke-width: 0.8; stroke-linecap: square"/>
     </g>
     <g id="line2d_6">
      <defs>
       <path id="mfba446e539" d="M 0 0 
L 0 3.5 
" style="stroke: #000000; stroke-width: 0.8"/>
      </defs>
      <g>
       <use xlink:href="#mfba446e539" x="57.6" y="298.944" style="stroke: #000000; stroke-width: 0.8"/>
      </g>
     </g>
     <g id="text_1">
      <!-- 0 -->
      <g transform="translate(52.191875 318.861344)scale(0.17 -0.17)">
       <defs>
        <path id="DejaVuSans-30" d="M 2034 4250 
Q 1547 4250 1301 3770 
Q 1056 3291 1056 2328 
Q 1056 1369 1301 889 
Q 1547 409 2034 409 
Q 2525 409 2770 889 
Q 3016 1369 3016 2328 
Q 3016 3291 2770 3770 
Q 2525 4250 2034 4250 
z
M 2034 4750 
Q 2819 4750 3233 4129 
Q 3647 3509 3647 2328 
Q 3647 1150 3233 529 
Q 2819 -91 2034 -91 
Q 1250 -91 836 529 
Q 422 1150 422 2328 
Q 422 3509 836 4129 
Q 1250 4750 2034 4750 
z
" transform="scale(0.015625)"/>
       </defs>
       <use xlink:href="#DejaVuSans-30"/>
      </g>
     </g>
    </g>
    <g id="xtick_2">
     <g id="line2d_7">
      <path d="M 144.2304 298.944 
L 144.2304 6.912 
" clip-path="url(#p29d793a21d)" style="fill: none; stroke: #b0b0b0; stroke-width: 0.8; stroke-linecap: square"/>
     </g>
     <g id="line2d_8">
      <g>
       <use xlink:href="#mfba446e539" x="144.2304" y="298.944" style="stroke: #000000; stroke-width: 0.8"/>
      </g>
     </g>
     <g id="text_2">
      <!-- 2 -->
      <g transform="translate(138.822275 318.861344)scale(0.17 -0.17)">
       <defs>
        <path id="DejaVuSans-32" d="M 1228 531 
L 3431 531 
L 3431 0 
L 469 0 
L 469 531 
Q 828 903 1448 1529 
Q 2069 2156 2228 2338 
Q 2531 2678 2651 2914 
Q 2772 3150 2772 3378 
Q 2772 3750 2511 3984 
Q 2250 4219 1831 4219 
Q 1534 4219 1204 4116 
Q 875 4013 500 3803 
L 500 4441 
Q 881 4594 1212 4672 
Q 1544 4750 1819 4750 
Q 2544 4750 2975 4387 
Q 3406 4025 3406 3419 
Q 3406 3131 3298 2873 
Q 3191 2616 2906 2266 
Q 2828 2175 2409 1742 
Q 1991 1309 1228 531 
z
" transform="scale(0.015625)"/>
       </defs>
       <use xlink:href="#DejaVuSans-32"/>
      </g>
     </g>
    </g>
    <g id="xtick_3">
     <g id="line2d_9">
      <path d="M 230.8608 298.944 
L 230.8608 6.912 
" clip-path="url(#p29d793a21d)" style="fill: none; stroke: #b0b0b0; stroke-width: 0.8; stroke-linecap: square"/>
     </g>
     <g id="line2d_10">
      <g>
       <use xlink:href="#mfba446e539" x="230.8608" y="298.944" style="stroke: #000000; stroke-width: 0.8"/>
      </g>
     </g>
     <g id="text_3">
      <!-- 4 -->
      <g transform="translate(225.452675 318.861344)scale(0.17 -0.17)">
       <defs>
        <path id="DejaVuSans-34" d="M 2419 4116 
L 825 1625 
L 2419 1625 
L 2419 4116 
z
M 2253 4666 
L 3047 4666 
L 3047 1625 
L 3713 1625 
L 3713 1100 
L 3047 1100 
L 3047 0 
L 2419 0 
L 2419 1100 
L 313 1100 
L 313 1709 
L 2253 4666 
z
" transform="scale(0.015625)"/>
       </defs>
       <use xlink:href="#DejaVuSans-34"/>
      </g>
     </g>
    </g>
    <g id="xtick_4">
     <g id="line2d_11">
      <path d="M 317.4912 298.944 
L 317.4912 6.912 
" clip-path="url(#p29d793a21d)" style="fill: none; stroke: #b0b0b0; stroke-width: 0.8; stroke-linecap: square"/>
     </g>
     <g id="line2d_12">
      <g>
       <use xlink:href="#mfba446e539" x="317.4912" y="298.944" style="stroke: #000000; stroke-width: 0.8"/>
      </g>
     </g>
     <g id="text_4">
      <!-- 6 -->
      <g transform="translate(312.083075 318.861344)scale(0.17 -0.17)">
       <defs>
        <path id="DejaVuSans-36" d="M 2113 2584 
Q 1688 2584 1439 2293 
Q 1191 2003 1191 1497 
Q 1191 994 1439 701 
Q 1688 409 2113 409 
Q 2538 409 2786 701 
Q 3034 994 3034 1497 
Q 3034 2003 2786 2293 
Q 2538 2584 2113 2584 
z
M 3366 4563 
L 3366 3988 
Q 3128 4100 2886 4159 
Q 2644 4219 2406 4219 
Q 1781 4219 1451 3797 
Q 1122 3375 1075 2522 
Q 1259 2794 1537 2939 
Q 1816 3084 2150 3084 
Q 2853 3084 3261 2657 
Q 3669 2231 3669 1497 
Q 3669 778 3244 343 
Q 2819 -91 2113 -91 
Q 1303 -91 875 529 
Q 447 1150 447 2328 
Q 447 3434 972 4092 
Q 1497 4750 2381 4750 
Q 2619 4750 2861 4703 
Q 3103 4656 3366 4563 
z
" transform="scale(0.015625)"/>
       </defs>
       <use xlink:href="#DejaVuSans-36"/>
      </g>
     </g>
    </g>
    <g id="xtick_5">
     <g id="line2d_13">
      <path d="M 100.9152 298.944 
L 100.9152 6.912 
" clip-path="url(#p29d793a21d)" style="fill: none; stroke: #b0b0b0; stroke-width: 0.8; stroke-linecap: square"/>
     </g>
     <g id="line2d_14">
      <defs>
       <path id="md9cd6609d7" d="M 0 0 
L 0 2 
" style="stroke: #000000; stroke-width: 0.6"/>
      </defs>
      <g>
       <use xlink:href="#md9cd6609d7" x="100.9152" y="298.944" style="stroke: #000000; stroke-width: 0.6"/>
      </g>
     </g>
    </g>
    <g id="xtick_6">
     <g id="line2d_15">
      <path d="M 187.5456 298.944 
L 187.5456 6.912 
" clip-path="url(#p29d793a21d)" style="fill: none; stroke: #b0b0b0; stroke-width: 0.8; stroke-linecap: square"/>
     </g>
     <g id="line2d_16">
      <g>
       <use xlink:href="#md9cd6609d7" x="187.5456" y="298.944" style="stroke: #000000; stroke-width: 0.6"/>
      </g>
     </g>
    </g>
    <g id="xtick_7">
     <g id="line2d_17">
      <path d="M 274.176 298.944 
L 274.176 6.912 
" clip-path="url(#p29d793a21d)" style="fill: none; stroke: #b0b0b0; stroke-width: 0.8; stroke-linecap: square"/>
     </g>
     <g id="line2d_18">
      <g>
       <use xlink:href="#md9cd6609d7" x="274.176" y="298.944" style="stroke: #000000; stroke-width: 0.6"/>
      </g>
     </g>
    </g>
    <g id="xtick_8">
     <g id="line2d_19">
      <path d="M 360.8064 298.944 
L 360.8064 6.912 
" clip-path="url(#p29d793a21d)" style="fill: none; stroke: #b0b0b0; stroke-width: 0.8; stroke-linecap: square"/>
     </g>
     <g id="line2d_20">
      <g>
       <use xlink:href="#md9cd6609d7" x="360.8064" y="298.944" style="stroke: #000000; stroke-width: 0.6"/>
      </g>
     </g>
    </g>
    <g id="text_5">
     <!-- log10(# f-evals / dimension) -->
     <g transform="translate(88.823278 339.314156)scale(0.17 -0.17)">
      <defs>
       <path id="DejaVuSans-6c" d="M 603 4863 
L 1178 4863 
L 1178 0 
L 603 0 
L 603 4863 
z
" transform="scale(0.015625)"/>
       <path id="DejaVuSans-6f" d="M 1959 3097 
Q 1497 3097 1228 2736 
Q 959 2375 959 1747 
Q 959 1119 1226 758 
Q 1494 397 1959 397 
Q 2419 397 2687 759 
Q 2956 1122 2956 1747 
Q 2956 2369 2687 2733 
Q 2419 3097 1959 3097 
z
M 1959 3584 
Q 2709 3584 3137 3096 
Q 3566 2609 3566 1747 
Q 3566 888 3137 398 
Q 2709 -91 1959 -91 
Q 1206 -91 779 398 
Q 353 888 353 1747 
Q 353 2609 779 3096 
Q 1206 3584 1959 3584 
z
" transform="scale(0.015625)"/>
       <path id="DejaVuSans-67" d="M 2906 1791 
Q 2906 2416 2648 2759 
Q 2391 3103 1925 3103 
Q 1463 3103 1205 2759 
Q 947 2416 947 1791 
Q 947 1169 1205 825 
Q 1463 481 1925 481 
Q 2391 481 2648 825 
Q 2906 1169 2906 1791 
z
M 3481 434 
Q 3481 -459 3084 -895 
Q 2688 -1331 1869 -1331 
Q 1566 -1331 1297 -1286 
Q 1028 -1241 775 -1147 
L 775 -588 
Q 1028 -725 1275 -790 
Q 1522 -856 1778 -856 
Q 2344 -856 2625 -561 
Q 2906 -266 2906 331 
L 2906 616 
Q 2728 306 2450 153 
Q 2172 0 1784 0 
Q 1141 0 747 490 
Q 353 981 353 1791 
Q 353 2603 747 3093 
Q 1141 3584 1784 3584 
Q 2172 3584 2450 3431 
Q 2728 3278 2906 2969 
L 2906 3500 
L 3481 3500 
L 3481 434 
z
" transform="scale(0.015625)"/>
       <path id="DejaVuSans-31" d="M 794 531 
L 1825 531 
L 1825 4091 
L 703 3866 
L 703 4441 
L 1819 4666 
L 2450 4666 
L 2450 531 
L 3481 531 
L 3481 0 
L 794 0 
L 794 531 
z
" transform="scale(0.015625)"/>
       <path id="DejaVuSans-28" d="M 1984 4856 
Q 1566 4138 1362 3434 
Q 1159 2731 1159 2009 
Q 1159 1288 1364 580 
Q 1569 -128 1984 -844 
L 1484 -844 
Q 1016 -109 783 600 
Q 550 1309 550 2009 
Q 550 2706 781 3412 
Q 1013 4119 1484 4856 
L 1984 4856 
z
" transform="scale(0.015625)"/>
       <path id="DejaVuSans-23" d="M 3272 2816 
L 2363 2816 
L 2100 1772 
L 3016 1772 
L 3272 2816 
z
M 2803 4594 
L 2478 3297 
L 3391 3297 
L 3719 4594 
L 4219 4594 
L 3897 3297 
L 4872 3297 
L 4872 2816 
L 3775 2816 
L 3519 1772 
L 4513 1772 
L 4513 1294 
L 3397 1294 
L 3072 0 
L 2572 0 
L 2894 1294 
L 1978 1294 
L 1656 0 
L 1153 0 
L 1478 1294 
L 494 1294 
L 494 1772 
L 1594 1772 
L 1856 2816 
L 850 2816 
L 850 3297 
L 1978 3297 
L 2297 4594 
L 2803 4594 
z
" transform="scale(0.015625)"/>
       <path id="DejaVuSans-20" transform="scale(0.015625)"/>
       <path id="DejaVuSans-66" d="M 2375 4863 
L 2375 4384 
L 1825 4384 
Q 1516 4384 1395 4259 
Q 1275 4134 1275 3809 
L 1275 3500 
L 2222 3500 
L 2222 3053 
L 1275 3053 
L 1275 0 
L 697 0 
L 697 3053 
L 147 3053 
L 147 3500 
L 697 3500 
L 697 3744 
Q 697 4328 969 4595 
Q 1241 4863 1831 4863 
L 2375 4863 
z
" transform="scale(0.015625)"/>
       <path id="DejaVuSans-2d" d="M 313 2009 
L 1997 2009 
L 1997 1497 
L 313 1497 
L 313 2009 
z
" transform="scale(0.015625)"/>
       <path id="DejaVuSans-65" d="M 3597 1894 
L 3597 1613 
L 953 1613 
Q 991 1019 1311 708 
Q 1631 397 2203 397 
Q 2534 397 2845 478 
Q 3156 559 3463 722 
L 3463 178 
Q 3153 47 2828 -22 
Q 2503 -91 2169 -91 
Q 1331 -91 842 396 
Q 353 884 353 1716 
Q 353 2575 817 3079 
Q 1281 3584 2069 3584 
Q 2775 3584 3186 3129 
Q 3597 2675 3597 1894 
z
M 3022 2063 
Q 3016 2534 2758 2815 
Q 2500 3097 2075 3097 
Q 1594 3097 1305 2825 
Q 1016 2553 972 2059 
L 3022 2063 
z
" transform="scale(0.015625)"/>
       <path id="DejaVuSans-76" d="M 191 3500 
L 800 3500 
L 1894 563 
L 2988 3500 
L 3597 3500 
L 2284 0 
L 1503 0 
L 191 3500 
z
" transform="scale(0.015625)"/>
       <path id="DejaVuSans-61" d="M 2194 1759 
Q 1497 1759 1228 1600 
Q 959 1441 959 1056 
Q 959 750 1161 570 
Q 1363 391 1709 391 
Q 2188 391 2477 730 
Q 2766 1069 2766 1631 
L 2766 1759 
L 2194 1759 
z
M 3341 1997 
L 3341 0 
L 2766 0 
L 2766 531 
Q 2569 213 2275 61 
Q 1981 -91 1556 -91 
Q 1019 -91 701 211 
Q 384 513 384 1019 
Q 384 1609 779 1909 
Q 1175 2209 1959 2209 
L 2766 2209 
L 2766 2266 
Q 2766 2663 2505 2880 
Q 2244 3097 1772 3097 
Q 1472 3097 1187 3025 
Q 903 2953 641 2809 
L 641 3341 
Q 956 3463 1253 3523 
Q 1550 3584 1831 3584 
Q 2591 3584 2966 3190 
Q 3341 2797 3341 1997 
z
" transform="scale(0.015625)"/>
       <path id="DejaVuSans-73" d="M 2834 3397 
L 2834 2853 
Q 2591 2978 2328 3040 
Q 2066 3103 1784 3103 
Q 1356 3103 1142 2972 
Q 928 2841 928 2578 
Q 928 2378 1081 2264 
Q 1234 2150 1697 2047 
L 1894 2003 
Q 2506 1872 2764 1633 
Q 3022 1394 3022 966 
Q 3022 478 2636 193 
Q 2250 -91 1575 -91 
Q 1294 -91 989 -36 
Q 684 19 347 128 
L 347 722 
Q 666 556 975 473 
Q 1284 391 1588 391 
Q 1994 391 2212 530 
Q 2431 669 2431 922 
Q 2431 1156 2273 1281 
Q 2116 1406 1581 1522 
L 1381 1569 
Q 847 1681 609 1914 
Q 372 2147 372 2553 
Q 372 3047 722 3315 
Q 1072 3584 1716 3584 
Q 2034 3584 2315 3537 
Q 2597 3491 2834 3397 
z
" transform="scale(0.015625)"/>
       <path id="DejaVuSans-2f" d="M 1625 4666 
L 2156 4666 
L 531 -594 
L 0 -594 
L 1625 4666 
z
" transform="scale(0.015625)"/>
       <path id="DejaVuSans-64" d="M 2906 2969 
L 2906 4863 
L 3481 4863 
L 3481 0 
L 2906 0 
L 2906 525 
Q 2725 213 2448 61 
Q 2172 -91 1784 -91 
Q 1150 -91 751 415 
Q 353 922 353 1747 
Q 353 2572 751 3078 
Q 1150 3584 1784 3584 
Q 2172 3584 2448 3432 
Q 2725 3281 2906 2969 
z
M 947 1747 
Q 947 1113 1208 752 
Q 1469 391 1925 391 
Q 2381 391 2643 752 
Q 2906 1113 2906 1747 
Q 2906 2381 2643 2742 
Q 2381 3103 1925 3103 
Q 1469 3103 1208 2742 
Q 947 2381 947 1747 
z
" transform="scale(0.015625)"/>
       <path id="DejaVuSans-69" d="M 603 3500 
L 1178 3500 
L 1178 0 
L 603 0 
L 603 3500 
z
M 603 4863 
L 1178 4863 
L 1178 4134 
L 603 4134 
L 603 4863 
z
" transform="scale(0.015625)"/>
       <path id="DejaVuSans-6d" d="M 3328 2828 
Q 3544 3216 3844 3400 
Q 4144 3584 4550 3584 
Q 5097 3584 5394 3201 
Q 5691 2819 5691 2113 
L 5691 0 
L 5113 0 
L 5113 2094 
Q 5113 2597 4934 2840 
Q 4756 3084 4391 3084 
Q 3944 3084 3684 2787 
Q 3425 2491 3425 1978 
L 3425 0 
L 2847 0 
L 2847 2094 
Q 2847 2600 2669 2842 
Q 2491 3084 2119 3084 
Q 1678 3084 1418 2786 
Q 1159 2488 1159 1978 
L 1159 0 
L 581 0 
L 581 3500 
L 1159 3500 
L 1159 2956 
Q 1356 3278 1631 3431 
Q 1906 3584 2284 3584 
Q 2666 3584 2933 3390 
Q 3200 3197 3328 2828 
z
" transform="scale(0.015625)"/>
       <path id="DejaVuSans-6e" d="M 3513 2113 
L 3513 0 
L 2938 0 
L 2938 2094 
Q 2938 2591 2744 2837 
Q 2550 3084 2163 3084 
Q 1697 3084 1428 2787 
Q 1159 2491 1159 1978 
L 1159 0 
L 581 0 
L 581 3500 
L 1159 3500 
L 1159 2956 
Q 1366 3272 1645 3428 
Q 1925 3584 2291 3584 
Q 2894 3584 3203 3211 
Q 3513 2838 3513 2113 
z
" transform="scale(0.015625)"/>
       <path id="DejaVuSans-29" d="M 513 4856 
L 1013 4856 
Q 1481 4119 1714 3412 
Q 1947 2706 1947 2009 
Q 1947 1309 1714 600 
Q 1481 -109 1013 -844 
L 513 -844 
Q 928 -128 1133 580 
Q 1338 1288 1338 2009 
Q 1338 2731 1133 3434 
Q 928 4138 513 4856 
z
" transform="scale(0.015625)"/>
      </defs>
      <use xlink:href="#DejaVuSans-6c"/>
      <use xlink:href="#DejaVuSans-6f" x="27.783203"/>
      <use xlink:href="#DejaVuSans-67" x="88.964844"/>
      <use xlink:href="#DejaVuSans-31" x="152.441406"/>
      <use xlink:href="#DejaVuSans-30" x="216.064453"/>
      <use xlink:href="#DejaVuSans-28" x="279.6875"/>
      <use xlink:href="#DejaVuSans-23" x="318.701172"/>
      <use xlink:href="#DejaVuSans-20" x="402.490234"/>
      <use xlink:href="#DejaVuSans-66" x="434.277344"/>
      <use xlink:href="#DejaVuSans-2d" x="463.982422"/>
      <use xlink:href="#DejaVuSans-65" x="500.066406"/>
      <use xlink:href="#DejaVuSans-76" x="561.589844"/>
      <use xlink:href="#DejaVuSans-61" x="620.769531"/>
      <use xlink:href="#DejaVuSans-6c" x="682.048828"/>
      <use xlink:href="#DejaVuSans-73" x="709.832031"/>
      <use xlink:href="#DejaVuSans-20" x="761.931641"/>
      <use xlink:href="#DejaVuSans-2f" x="793.71875"/>
      <use xlink:href="#DejaVuSans-20" x="827.410156"/>
      <use xlink:href="#DejaVuSans-64" x="859.197266"/>
      <use xlink:href="#DejaVuSans-69" x="922.673828"/>
      <use xlink:href="#DejaVuSans-6d" x="950.457031"/>
      <use xlink:href="#DejaVuSans-65" x="1047.869141"/>
      <use xlink:href="#DejaVuSans-6e" x="1109.392578"/>
      <use xlink:href="#DejaVuSans-73" x="1172.771484"/>
      <use xlink:href="#DejaVuSans-69" x="1224.871094"/>
      <use xlink:href="#DejaVuSans-6f" x="1252.654297"/>
      <use xlink:href="#DejaVuSans-6e" x="1313.835938"/>
      <use xlink:href="#DejaVuSans-29" x="1377.214844"/>
     </g>
    </g>
   </g>
   <g id="matplotlib.axis_2">
    <g id="ytick_1">
     <g id="line2d_21">
      <path d="M 57.6 298.944 
L 360.8064 298.944 
" clip-path="url(#p29d793a21d)" style="fill: none; stroke: #b0b0b0; stroke-width: 0.8; stroke-linecap: square"/>
     </g>
     <g id="line2d_22">
      <defs>
       <path id="m97800af6e7" d="M 0 0 
L -3.5 0 
" style="stroke: #000000; stroke-width: 0.8"/>
      </defs>
      <g>
       <use xlink:href="#m97800af6e7" x="57.6" y="298.944" style="stroke: #000000; stroke-width: 0.8"/>
      </g>
     </g>
     <g id="text_6">
      <!-- 0.0 -->
      <g transform="translate(25.155 305.02275)scale(0.16 -0.16)">
       <defs>
        <path id="DejaVuSans-2e" d="M 684 794 
L 1344 794 
L 1344 0 
L 684 0 
L 684 794 
z
" transform="scale(0.015625)"/>
       </defs>
       <use xlink:href="#DejaVuSans-30"/>
       <use xlink:href="#DejaVuSans-2e" x="63.623047"/>
       <use xlink:href="#DejaVuSans-30" x="95.410156"/>
      </g>
     </g>
    </g>
    <g id="ytick_2">
     <g id="line2d_23">
      <path d="M 57.6 240.5376 
L 360.8064 240.5376 
" clip-path="url(#p29d793a21d)" style="fill: none; stroke: #b0b0b0; stroke-width: 0.8; stroke-linecap: square"/>
     </g>
     <g id="line2d_24">
      <g>
       <use xlink:href="#m97800af6e7" x="57.6" y="240.5376" style="stroke: #000000; stroke-width: 0.8"/>
      </g>
     </g>
     <g id="text_7">
      <!-- 0.2 -->
      <g transform="translate(25.155 246.61635)scale(0.16 -0.16)">
       <use xlink:href="#DejaVuSans-30"/>
       <use xlink:href="#DejaVuSans-2e" x="63.623047"/>
       <use xlink:href="#DejaVuSans-32" x="95.410156"/>
      </g>
     </g>
    </g>
    <g id="ytick_3">
     <g id="line2d_25">
      <path d="M 57.6 182.1312 
L 360.8064 182.1312 
" clip-path="url(#p29d793a21d)" style="fill: none; stroke: #b0b0b0; stroke-width: 0.8; stroke-linecap: square"/>
     </g>
     <g id="line2d_26">
      <g>
       <use xlink:href="#m97800af6e7" x="57.6" y="182.1312" style="stroke: #000000; stroke-width: 0.8"/>
      </g>
     </g>
     <g id="text_8">
      <!-- 0.4 -->
      <g transform="translate(25.155 188.20995)scale(0.16 -0.16)">
       <use xlink:href="#DejaVuSans-30"/>
       <use xlink:href="#DejaVuSans-2e" x="63.623047"/>
       <use xlink:href="#DejaVuSans-34" x="95.410156"/>
      </g>
     </g>
    </g>
    <g id="ytick_4">
     <g id="line2d_27">
      <path d="M 57.6 123.7248 
L 360.8064 123.7248 
" clip-path="url(#p29d793a21d)" style="fill: none; stroke: #b0b0b0; stroke-width: 0.8; stroke-linecap: square"/>
     </g>
     <g id="line2d_28">
      <g>
       <use xlink:href="#m97800af6e7" x="57.6" y="123.7248" style="stroke: #000000; stroke-width: 0.8"/>
      </g>
     </g>
     <g id="text_9">
      <!-- 0.6 -->
      <g transform="translate(25.155 129.80355)scale(0.16 -0.16)">
       <use xlink:href="#DejaVuSans-30"/>
       <use xlink:href="#DejaVuSans-2e" x="63.623047"/>
       <use xlink:href="#DejaVuSans-36" x="95.410156"/>
      </g>
     </g>
    </g>
    <g id="ytick_5">
     <g id="line2d_29">
      <path d="M 57.6 65.3184 
L 360.8064 65.3184 
" clip-path="url(#p29d793a21d)" style="fill: none; stroke: #b0b0b0; stroke-width: 0.8; stroke-linecap: square"/>
     </g>
     <g id="line2d_30">
      <g>
       <use xlink:href="#m97800af6e7" x="57.6" y="65.3184" style="stroke: #000000; stroke-width: 0.8"/>
      </g>
     </g>
     <g id="text_10">
      <!-- 0.8 -->
      <g transform="translate(25.155 71.39715)scale(0.16 -0.16)">
       <defs>
        <path id="DejaVuSans-38" d="M 2034 2216 
Q 1584 2216 1326 1975 
Q 1069 1734 1069 1313 
Q 1069 891 1326 650 
Q 1584 409 2034 409 
Q 2484 409 2743 651 
Q 3003 894 3003 1313 
Q 3003 1734 2745 1975 
Q 2488 2216 2034 2216 
z
M 1403 2484 
Q 997 2584 770 2862 
Q 544 3141 544 3541 
Q 544 4100 942 4425 
Q 1341 4750 2034 4750 
Q 2731 4750 3128 4425 
Q 3525 4100 3525 3541 
Q 3525 3141 3298 2862 
Q 3072 2584 2669 2484 
Q 3125 2378 3379 2068 
Q 3634 1759 3634 1313 
Q 3634 634 3220 271 
Q 2806 -91 2034 -91 
Q 1263 -91 848 271 
Q 434 634 434 1313 
Q 434 1759 690 2068 
Q 947 2378 1403 2484 
z
M 1172 3481 
Q 1172 3119 1398 2916 
Q 1625 2713 2034 2713 
Q 2441 2713 2670 2916 
Q 2900 3119 2900 3481 
Q 2900 3844 2670 4047 
Q 2441 4250 2034 4250 
Q 1625 4250 1398 4047 
Q 1172 3844 1172 3481 
z
" transform="scale(0.015625)"/>
       </defs>
       <use xlink:href="#DejaVuSans-30"/>
       <use xlink:href="#DejaVuSans-2e" x="63.623047"/>
       <use xlink:href="#DejaVuSans-38" x="95.410156"/>
      </g>
     </g>
    </g>
    <g id="ytick_6">
     <g id="line2d_31">
      <path d="M 57.6 6.912 
L 360.8064 6.912 
" clip-path="url(#p29d793a21d)" style="fill: none; stroke: #b0b0b0; stroke-width: 0.8; stroke-linecap: square"/>
     </g>
     <g id="line2d_32">
      <g>
       <use xlink:href="#m97800af6e7" x="57.6" y="6.912" style="stroke: #000000; stroke-width: 0.8"/>
      </g>
     </g>
     <g id="text_11">
      <!-- 1.0 -->
      <g transform="translate(25.155 12.99075)scale(0.16 -0.16)">
       <use xlink:href="#DejaVuSans-31"/>
       <use xlink:href="#DejaVuSans-2e" x="63.623047"/>
       <use xlink:href="#DejaVuSans-30" x="95.410156"/>
      </g>
     </g>
    </g>
    <g id="text_12">
     <!-- Fraction of function,target pairs -->
     <g transform="translate(17.619531 287.313)rotate(-90)scale(0.17 -0.17)">
      <defs>
       <path id="DejaVuSans-46" d="M 628 4666 
L 3309 4666 
L 3309 4134 
L 1259 4134 
L 1259 2759 
L 3109 2759 
L 3109 2228 
L 1259 2228 
L 1259 0 
L 628 0 
L 628 4666 
z
" transform="scale(0.015625)"/>
       <path id="DejaVuSans-72" d="M 2631 2963 
Q 2534 3019 2420 3045 
Q 2306 3072 2169 3072 
Q 1681 3072 1420 2755 
Q 1159 2438 1159 1844 
L 1159 0 
L 581 0 
L 581 3500 
L 1159 3500 
L 1159 2956 
Q 1341 3275 1631 3429 
Q 1922 3584 2338 3584 
Q 2397 3584 2469 3576 
Q 2541 3569 2628 3553 
L 2631 2963 
z
" transform="scale(0.015625)"/>
       <path id="DejaVuSans-63" d="M 3122 3366 
L 3122 2828 
Q 2878 2963 2633 3030 
Q 2388 3097 2138 3097 
Q 1578 3097 1268 2742 
Q 959 2388 959 1747 
Q 959 1106 1268 751 
Q 1578 397 2138 397 
Q 2388 397 2633 464 
Q 2878 531 3122 666 
L 3122 134 
Q 2881 22 2623 -34 
Q 2366 -91 2075 -91 
Q 1284 -91 818 406 
Q 353 903 353 1747 
Q 353 2603 823 3093 
Q 1294 3584 2113 3584 
Q 2378 3584 2631 3529 
Q 2884 3475 3122 3366 
z
" transform="scale(0.015625)"/>
       <path id="DejaVuSans-74" d="M 1172 4494 
L 1172 3500 
L 2356 3500 
L 2356 3053 
L 1172 3053 
L 1172 1153 
Q 1172 725 1289 603 
Q 1406 481 1766 481 
L 2356 481 
L 2356 0 
L 1766 0 
Q 1100 0 847 248 
Q 594 497 594 1153 
L 594 3053 
L 172 3053 
L 172 3500 
L 594 3500 
L 594 4494 
L 1172 4494 
z
" transform="scale(0.015625)"/>
       <path id="DejaVuSans-75" d="M 544 1381 
L 544 3500 
L 1119 3500 
L 1119 1403 
Q 1119 906 1312 657 
Q 1506 409 1894 409 
Q 2359 409 2629 706 
Q 2900 1003 2900 1516 
L 2900 3500 
L 3475 3500 
L 3475 0 
L 2900 0 
L 2900 538 
Q 2691 219 2414 64 
Q 2138 -91 1772 -91 
Q 1169 -91 856 284 
Q 544 659 544 1381 
z
M 1991 3584 
L 1991 3584 
z
" transform="scale(0.015625)"/>
       <path id="DejaVuSans-2c" d="M 750 794 
L 1409 794 
L 1409 256 
L 897 -744 
L 494 -744 
L 750 256 
L 750 794 
z
" transform="scale(0.015625)"/>
       <path id="DejaVuSans-70" d="M 1159 525 
L 1159 -1331 
L 581 -1331 
L 581 3500 
L 1159 3500 
L 1159 2969 
Q 1341 3281 1617 3432 
Q 1894 3584 2278 3584 
Q 2916 3584 3314 3078 
Q 3713 2572 3713 1747 
Q 3713 922 3314 415 
Q 2916 -91 2278 -91 
Q 1894 -91 1617 61 
Q 1341 213 1159 525 
z
M 3116 1747 
Q 3116 2381 2855 2742 
Q 2594 3103 2138 3103 
Q 1681 3103 1420 2742 
Q 1159 2381 1159 1747 
Q 1159 1113 1420 752 
Q 1681 391 2138 391 
Q 2594 391 2855 752 
Q 3116 1113 3116 1747 
z
" transform="scale(0.015625)"/>
      </defs>
      <use xlink:href="#DejaVuSans-46"/>
      <use xlink:href="#DejaVuSans-72" x="50.269531"/>
      <use xlink:href="#DejaVuSans-61" x="91.382812"/>
      <use xlink:href="#DejaVuSans-63" x="152.662109"/>
      <use xlink:href="#DejaVuSans-74" x="207.642578"/>
      <use xlink:href="#DejaVuSans-69" x="246.851562"/>
      <use xlink:href="#DejaVuSans-6f" x="274.634766"/>
      <use xlink:href="#DejaVuSans-6e" x="335.816406"/>
      <use xlink:href="#DejaVuSans-20" x="399.195312"/>
      <use xlink:href="#DejaVuSans-6f" x="430.982422"/>
      <use xlink:href="#DejaVuSans-66" x="492.164062"/>
      <use xlink:href="#DejaVuSans-20" x="527.369141"/>
      <use xlink:href="#DejaVuSans-66" x="559.15625"/>
      <use xlink:href="#DejaVuSans-75" x="594.361328"/>
      <use xlink:href="#DejaVuSans-6e" x="657.740234"/>
      <use xlink:href="#DejaVuSans-63" x="721.119141"/>
      <use xlink:href="#DejaVuSans-74" x="776.099609"/>
      <use xlink:href="#DejaVuSans-69" x="815.308594"/>
      <use xlink:href="#DejaVuSans-6f" x="843.091797"/>
      <use xlink:href="#DejaVuSans-6e" x="904.273438"/>
      <use xlink:href="#DejaVuSans-2c" x="967.652344"/>
      <use xlink:href="#DejaVuSans-74" x="999.439453"/>
      <use xlink:href="#DejaVuSans-61" x="1038.648438"/>
      <use xlink:href="#DejaVuSans-72" x="1099.927734"/>
      <use xlink:href="#DejaVuSans-67" x="1139.291016"/>
      <use xlink:href="#DejaVuSans-65" x="1202.767578"/>
      <use xlink:href="#DejaVuSans-74" x="1264.291016"/>
      <use xlink:href="#DejaVuSans-20" x="1303.5"/>
      <use xlink:href="#DejaVuSans-70" x="1335.287109"/>
      <use xlink:href="#DejaVuSans-61" x="1398.763672"/>
      <use xlink:href="#DejaVuSans-69" x="1460.042969"/>
      <use xlink:href="#DejaVuSans-72" x="1487.826172"/>
      <use xlink:href="#DejaVuSans-73" x="1528.939453"/>
     </g>
    </g>
   </g>
   <g id="line2d_33">
    <defs>
     <path id="md081bd7dde" d="M 0 1.5 
C 0.397805 1.5 0.77937 1.341951 1.06066 1.06066 
C 1.341951 0.77937 1.5 0.397805 1.5 0 
C 1.5 -0.397805 1.341951 -0.77937 1.06066 -1.06066 
C 0.77937 -1.341951 0.397805 -1.5 0 -1.5 
C -0.397805 -1.5 -0.77937 -1.341951 -1.06066 -1.06066 
C -1.341951 -0.77937 -1.5 -0.397805 -1.5 0 
C -1.5 0.397805 -1.341951 0.77937 -1.06066 1.06066 
C -0.77937 1.341951 -0.397805 1.5 0 1.5 
z
" style="stroke: #f5deb3"/>
    </defs>
    <g>
     <use xlink:href="#md081bd7dde" x="291.465832" y="42.157241" style="fill: #f5deb3; stroke: #f5deb3"/>
     <use xlink:href="#md081bd7dde" x="291.465832" y="42.157241" style="fill: #f5deb3; stroke: #f5deb3"/>
    </g>
   </g>
   <g id="line2d_34">
    <defs>
     <path id="mc42d01893a" d="M 0 1.5 
C 0.397805 1.5 0.77937 1.341951 1.06066 1.06066 
C 1.341951 0.77937 1.5 0.397805 1.5 0 
C 1.5 -0.397805 1.341951 -0.77937 1.06066 -1.06066 
C 0.77937 -1.341951 0.397805 -1.5 0 -1.5 
C -0.397805 -1.5 -0.77937 -1.341951 -1.06066 -1.06066 
C -1.341951 -0.77937 -1.5 -0.397805 -1.5 0 
C -1.5 0.397805 -1.341951 0.77937 -1.06066 1.06066 
C -0.77937 1.341951 -0.397805 1.5 0 1.5 
z
" style="stroke: #000080"/>
    </defs>
    <g>
     <use xlink:href="#mc42d01893a" x="79.480672" y="280.943752" style="fill: #000080; stroke: #000080"/>
     <use xlink:href="#mc42d01893a" x="79.480672" y="280.943752" style="fill: #000080; stroke: #000080"/>
    </g>
   </g>
   <g id="line2d_35">
    <path d="M 14.2848 298.944 
L 14.2848 288.622179 
L 27.323974 288.622179 
L 27.323974 288.496303 
L 34.951403 288.496303 
L 34.951403 288.370428 
L 40.363149 288.370428 
L 40.363149 287.489297 
L 44.560826 287.489297 
L 44.560826 287.111669 
L 47.990577 287.111669 
L 47.990577 286.859917 
L 50.890391 286.859917 
L 50.890391 286.734041 
L 55.618005 286.734041 
L 55.618005 286.230538 
L 57.6 286.230538 
L 57.6 285.85291 
L 59.392932 285.85291 
L 59.392932 285.601159 
L 61.029752 285.601159 
L 61.029752 284.845903 
L 62.535479 284.845903 
L 62.535479 284.594152 
L 65.227428 284.594152 
L 65.227428 284.3424 
L 66.441498 284.3424 
L 66.441498 284.090648 
L 67.581941 284.090648 
L 67.581941 283.838897 
L 68.65718 283.838897 
L 68.65718 283.209517 
L 69.674268 283.209517 
L 69.674268 283.083641 
L 70.639174 283.083641 
L 70.639174 282.83189 
L 71.556993 282.83189 
L 71.556993 282.706014 
L 73.268314 282.706014 
L 73.268314 282.580138 
L 74.068926 282.580138 
L 74.068926 282.454262 
L 75.574654 282.454262 
L 75.574654 282.328386 
L 76.284608 282.328386 
L 76.284608 282.20251 
L 76.96874 282.20251 
L 76.96874 281.950759 
L 77.628862 281.950759 
L 77.628862 281.824883 
L 78.266603 281.824883 
L 78.266603 281.447255 
L 79.480672 281.447255 
L 79.480672 280.943752 
L 360.8064 280.943752 
" style="fill: none; stroke: #000080; stroke-width: 1.5; stroke-linecap: square"/>
   </g>
   <g id="line2d_36">
    <defs>
     <path id="m3be11a83e9" d="M 0 6 
C 1.591219 6 3.117479 5.367802 4.242641 4.242641 
C 5.367802 3.117479 6 1.591219 6 0 
C 6 -1.591219 5.367802 -3.117479 4.242641 -4.242641 
C 3.117479 -5.367802 1.591219 -6 0 -6 
C -1.591219 -6 -3.117479 -5.367802 -4.242641 -4.242641 
C -5.367802 -3.117479 -6 -1.591219 -6 0 
C -6 1.591219 -5.367802 3.117479 -4.242641 4.242641 
C -3.117479 5.367802 -1.591219 6 0 6 
z
" style="stroke: #000080; stroke-width: 1.5"/>
    </defs>
    <g>
     <use xlink:href="#m3be11a83e9" x="79.480672" y="281.447255" style="fill-opacity: 0; stroke: #000080; stroke-width: 1.5"/>
     <use xlink:href="#m3be11a83e9" x="79.480672" y="281.447255" style="fill-opacity: 0; stroke: #000080; stroke-width: 1.5"/>
     <use xlink:href="#m3be11a83e9" x="79.480672" y="280.943752" style="fill-opacity: 0; stroke: #000080; stroke-width: 1.5"/>
     <use xlink:href="#m3be11a83e9" x="79.480672" y="280.943752" style="fill-opacity: 0; stroke: #000080; stroke-width: 1.5"/>
     <use xlink:href="#m3be11a83e9" x="79.480672" y="280.943752" style="fill-opacity: 0; stroke: #000080; stroke-width: 1.5"/>
     <use xlink:href="#m3be11a83e9" x="360.8064" y="280.943752" style="fill-opacity: 0; stroke: #000080; stroke-width: 1.5"/>
    </g>
   </g>
   <g id="line2d_37">
    <path style="fill: none; stroke: #000080; stroke-width: 1.5; stroke-linecap: square"/>
    <g/>
   </g>
   <g id="line2d_38">
    <path d="M 79.480672 280.943752 
" clip-path="url(#p29d793a21d)" style="fill: none; stroke: #000080; stroke-width: 1.5; stroke-linecap: square"/>
    <defs>
     <path id="m423f8acfc9" d="M -12 12 
L 12 -12 
M -12 -12 
L 12 12 
" style="stroke: #000080"/>
    </defs>
    <g clip-path="url(#p29d793a21d)">
     <use xlink:href="#m423f8acfc9" x="79.480672" y="280.943752" style="fill: #000080; stroke: #000080"/>
    </g>
   </g>
   <g id="line2d_39">
    <defs>
     <path id="m114cc6d08e" d="M 0 1.5 
C 0.397805 1.5 0.77937 1.341951 1.06066 1.06066 
C 1.341951 0.77937 1.5 0.397805 1.5 0 
C 1.5 -0.397805 1.341951 -0.77937 1.06066 -1.06066 
C 0.77937 -1.341951 0.397805 -1.5 0 -1.5 
C -0.397805 -1.5 -0.77937 -1.341951 -1.06066 -1.06066 
C -1.341951 -0.77937 -1.5 -0.397805 -1.5 0 
C -1.5 0.397805 -1.341951 0.77937 -1.06066 1.06066 
C -0.77937 1.341951 -0.397805 1.5 0 1.5 
z
" style="stroke: #ff00ff"/>
    </defs>
    <g>
     <use xlink:href="#m114cc6d08e" x="274.097052" y="152.046869" style="fill: #ff00ff; stroke: #ff00ff"/>
     <use xlink:href="#m114cc6d08e" x="274.097052" y="152.046869" style="fill: #ff00ff; stroke: #ff00ff"/>
    </g>
   </g>
   <g id="line2d_40">
    <path d="M 14.2848 298.944 
L 14.2848 288.622179 
L 34.951403 288.622179 
L 34.951403 288.496303 
L 40.363149 288.496303 
L 40.363149 288.370428 
L 44.560826 288.370428 
L 44.560826 288.118676 
L 47.990577 288.118676 
L 47.990577 287.741048 
L 57.6 287.741048 
L 57.6 287.615172 
L 59.392932 287.615172 
L 59.392932 287.489297 
L 66.441498 287.489297 
L 66.441498 287.237545 
L 69.674268 287.237545 
L 69.674268 286.985793 
L 70.639174 286.985793 
L 70.639174 286.734041 
L 71.556993 286.734041 
L 71.556993 286.608166 
L 72.432107 286.608166 
L 72.432107 286.48229 
L 75.574654 286.48229 
L 75.574654 286.230538 
L 76.284608 286.230538 
L 76.284608 286.104662 
L 79.480672 286.104662 
L 79.480672 285.978786 
L 81.696354 285.978786 
L 81.696354 285.85291 
L 82.211771 285.85291 
L 82.211771 285.727034 
L 85.471281 285.727034 
L 85.471281 285.475283 
L 88.248544 285.475283 
L 88.248544 285.349407 
L 94.472426 285.349407 
L 94.472426 285.223531 
L 94.995002 285.223531 
L 94.995002 284.971779 
L 95.503454 284.971779 
L 95.503454 284.845903 
L 95.752617 284.845903 
L 95.752617 284.720028 
L 100.342215 284.720028 
L 100.342215 284.594152 
L 100.535156 284.594152 
L 100.535156 284.468276 
L 101.102381 284.468276 
L 101.102381 284.3424 
L 102.011329 284.3424 
L 102.011329 284.216524 
L 102.878374 284.216524 
L 102.878374 284.090648 
L 103.380045 284.090648 
L 103.380045 283.838897 
L 103.707211 283.838897 
L 103.707211 283.713021 
L 104.344952 283.713021 
L 104.344952 283.587145 
L 105.26277 283.587145 
L 105.26277 283.335393 
L 106.279859 283.335393 
L 106.279859 283.209517 
L 106.42077 283.209517 
L 106.42077 282.957766 
L 106.560633 282.957766 
L 106.560633 282.83189 
L 107.244765 282.83189 
L 107.244765 282.706014 
L 107.5116 282.706014 
L 107.5116 282.580138 
L 108.416798 282.580138 
L 108.416798 282.454262 
L 108.915146 282.454262 
L 108.915146 282.328386 
L 109.990385 282.328386 
L 109.990385 282.20251 
L 110.106149 282.20251 
L 110.106149 282.076634 
L 110.449226 282.076634 
L 110.449226 281.950759 
L 110.674517 281.950759 
L 110.674517 281.824883 
L 110.897141 281.824883 
L 110.897141 281.573131 
L 111.226215 281.573131 
L 111.226215 281.447255 
L 111.54963 281.447255 
L 111.656212 281.069628 
L 112.180244 281.069628 
L 112.180244 280.943752 
L 113.088217 280.943752 
L 113.088217 280.817876 
L 114.141556 280.817876 
L 114.234452 280.566124 
L 114.326893 280.566124 
L 114.326893 280.440248 
L 114.510421 280.440248 
L 114.510421 280.314372 
L 114.692177 280.314372 
L 114.7824 280.062621 
L 114.872193 280.062621 
L 114.961559 279.810869 
L 115.050503 279.810869 
L 115.139028 279.559117 
L 115.83262 279.559117 
L 115.83262 279.307366 
L 116.002095 279.307366 
L 116.002095 279.055614 
L 116.253478 279.055614 
L 116.253478 278.929738 
L 117.305581 278.929738 
L 117.305581 278.677986 
L 117.695068 278.677986 
L 117.695068 278.55211 
L 118.076654 278.55211 
L 118.076654 278.426234 
L 118.227147 278.426234 
L 118.227147 278.300359 
L 118.671535 278.300359 
L 118.671535 278.174483 
L 118.889854 278.174483 
L 118.889854 278.048607 
L 119.034004 278.048607 
L 119.034004 277.922731 
L 119.24818 277.922731 
L 119.319033 277.545103 
L 119.944983 277.545103 
L 119.944983 277.419228 
L 120.149089 277.419228 
L 120.149089 277.167476 
L 120.944062 277.167476 
L 120.944062 277.0416 
L 121.073351 277.0416 
L 121.073351 276.915724 
L 121.39274 276.915724 
L 121.455972 276.663972 
L 122.736994 276.663972 
L 122.736994 276.412221 
L 123.202939 276.412221 
L 123.202939 276.286345 
L 123.936316 276.286345 
L 123.936316 276.160469 
L 124.156336 276.160469 
L 124.156336 276.034593 
L 124.481616 276.034593 
L 124.481616 275.908717 
L 126.372018 275.908717 
L 126.372018 275.782841 
L 127.640693 275.782841 
L 127.640693 275.656966 
L 128.743679 275.656966 
L 128.743679 275.53109 
L 129.125437 275.53109 
L 129.167381 275.153462 
L 129.987186 275.153462 
L 129.987186 275.027586 
L 133.222067 275.027586 
L 133.222067 274.90171 
L 134.176839 274.90171 
L 134.176839 274.775834 
L 136.527575 274.775834 
L 136.527575 274.649959 
L 137.195511 274.649959 
L 137.195511 274.524083 
L 137.893309 274.524083 
L 137.893309 274.398207 
L 138.692823 274.398207 
L 138.692823 274.272331 
L 139.043049 274.272331 
L 139.043049 274.146455 
L 139.264798 274.146455 
L 139.264798 274.020579 
L 140.702573 274.020579 
L 140.793122 273.642952 
L 141.151022 273.642952 
L 141.151022 273.517076 
L 141.371301 273.517076 
L 141.436884 273.265324 
L 142.080444 273.265324 
L 142.101521 273.013572 
L 142.269295 273.013572 
L 142.331827 272.635945 
L 142.435586 272.635945 
L 142.435586 272.510069 
L 142.641404 272.510069 
L 142.723105 272.132441 
L 142.763822 272.132441 
L 142.763822 272.006566 
L 143.285285 272.006566 
L 143.305055 271.754814 
L 143.888708 271.754814 
L 143.888708 271.628938 
L 144.155003 271.628938 
L 144.155003 271.503062 
L 144.267986 271.503062 
L 144.267986 271.377186 
L 144.473374 271.377186 
L 144.547509 270.999559 
L 144.694906 270.999559 
L 144.694906 270.747807 
L 144.822939 270.747807 
L 144.895711 269.992552 
L 145.219746 269.992552 
L 145.219746 269.866676 
L 145.397382 269.866676 
L 145.46797 269.614924 
L 145.590864 269.614924 
L 145.590864 269.363172 
L 146.429353 269.363172 
L 146.429353 269.237297 
L 146.546143 269.237297 
L 146.546143 269.111421 
L 146.744684 269.111421 
L 146.793994 268.859669 
L 147.312072 268.859669 
L 147.312072 268.733793 
L 147.502732 268.733793 
L 147.502732 268.607917 
L 147.816265 268.607917 
L 147.924778 268.23029 
L 147.971093 268.23029 
L 147.971093 268.104414 
L 148.200973 268.104414 
L 148.200973 267.978538 
L 148.337564 267.978538 
L 148.413021 267.349159 
L 148.548087 267.349159 
L 148.652472 266.971531 
L 148.771063 266.971531 
L 148.771063 266.845655 
L 149.064312 266.845655 
L 149.151403 266.216276 
L 149.20924 266.216276 
L 149.2669 265.838648 
L 149.580909 265.838648 
L 149.580909 265.712772 
L 149.707872 265.712772 
L 149.707872 265.586897 
L 149.889763 265.586897 
L 149.931489 265.209269 
L 150.152479 265.209269 
L 150.152479 265.083393 
L 150.357325 265.083393 
L 150.411576 264.57989 
L 150.559965 264.57989 
L 150.653788 263.95051 
L 150.932483 263.95051 
L 150.945652 263.698759 
L 151.063758 263.698759 
L 151.168122 263.447007 
L 151.194122 263.447007 
L 151.284843 263.195255 
L 151.439354 263.195255 
L 151.439354 262.943503 
L 151.60532 262.943503 
L 151.60532 262.691752 
L 152.057422 262.691752 
L 152.057422 262.565876 
L 152.242637 262.565876 
L 152.328451 262.314124 
L 152.486788 262.314124 
L 152.55942 261.936497 
L 153.177416 261.936497 
L 153.259079 261.684745 
L 153.421349 261.684745 
L 153.501961 261.181241 
L 153.605101 261.181241 
L 153.605101 261.055366 
L 153.832297 261.055366 
L 153.843585 260.551862 
L 154.012098 260.551862 
L 154.012098 260.425986 
L 154.179115 260.425986 
L 154.289641 260.048359 
L 154.322673 260.048359 
L 154.322673 259.922483 
L 154.530538 259.922483 
L 154.595705 259.544855 
L 154.811312 259.544855 
L 154.896868 259.167228 
L 155.18278 259.167228 
L 155.203786 258.663724 
L 155.318906 258.663724 
L 155.412574 258.286097 
L 155.536743 258.286097 
L 155.547053 257.908469 
L 155.670341 257.908469 
L 155.731683 257.530841 
L 155.944819 257.530841 
L 156.025382 256.901462 
L 156.145584 256.901462 
L 156.145584 256.64971 
L 156.462418 256.64971 
L 156.462418 256.523834 
L 156.75468 256.523834 
L 156.8511 255.894455 
L 157.099504 255.894455 
L 157.1469 255.642703 
L 157.447441 255.642703 
L 157.447441 255.516828 
L 157.651312 255.516828 
L 157.651312 255.265076 
L 157.798206 255.265076 
L 157.807349 255.013324 
L 158.0976 255.013324 
L 158.196349 254.635697 
L 158.769513 254.635697 
L 158.838864 254.258069 
L 159.096679 254.258069 
L 159.181837 253.880441 
L 159.709651 253.880441 
L 159.783859 253.376938 
L 160.029123 253.376938 
L 160.029123 253.125186 
L 160.1667 253.125186 
L 160.263211 252.873434 
L 160.327278 252.873434 
L 160.327278 252.747559 
L 160.470635 252.747559 
L 160.526092 251.866428 
L 160.660094 251.866428 
L 160.722826 251.4888 
L 160.800947 251.4888 
L 160.800947 251.362924 
L 160.92527 251.362924 
L 160.933013 250.985297 
L 161.117894 250.985297 
L 161.117894 250.859421 
L 161.285788 250.859421 
L 161.285788 250.607669 
L 161.497325 250.607669 
L 161.497325 250.355917 
L 161.624608 250.355917 
L 161.728786 249.97829 
L 161.88398 249.97829 
L 161.957434 249.474786 
L 162.161592 249.474786 
L 162.226747 248.971283 
L 162.306075 248.971283 
L 162.370732 248.216028 
L 162.442313 248.216028 
L 162.442313 248.090152 
L 162.79619 248.090152 
L 162.887118 247.586648 
L 162.963715 247.586648 
L 162.963715 247.460772 
L 163.355708 247.460772 
L 163.416862 247.083145 
L 163.612572 247.083145 
L 163.713007 246.579641 
L 163.786321 246.579641 
L 163.786321 246.453766 
L 163.912284 246.453766 
L 163.91889 245.950262 
L 164.043972 245.950262 
L 164.135608 245.446759 
L 164.207296 245.446759 
L 164.207296 245.320883 
L 164.330481 245.320883 
L 164.330481 245.195007 
L 164.472115 245.195007 
L 164.568077 244.313876 
L 164.695268 244.313876 
L 164.758543 243.684497 
L 164.9471 243.684497 
L 165.040674 243.306869 
L 165.121398 243.306869 
L 165.195605 242.67749 
L 165.343147 242.67749 
L 165.398179 242.173986 
L 165.525963 242.173986 
L 165.634805 241.796359 
L 165.707018 241.796359 
L 165.814821 241.418731 
L 166.111072 241.418731 
L 166.1287 241.041103 
L 166.263299 241.041103 
L 166.304073 240.159972 
L 166.47206 240.159972 
L 166.47206 239.908221 
L 166.609959 239.908221 
L 166.689935 239.530593 
L 166.939098 239.530593 
L 167.04568 238.775338 
L 167.073627 238.775338 
L 167.073627 238.649462 
L 167.23491 238.649462 
L 167.23491 238.39771 
L 167.356346 238.39771 
L 167.356346 238.145959 
L 167.732209 238.145959 
L 167.769923 237.642455 
L 167.893313 237.642455 
L 167.893313 237.516579 
L 168.347644 237.516579 
L 168.410176 237.138952 
L 168.544952 237.138952 
L 168.627414 236.635448 
L 168.755541 236.635448 
L 168.755541 236.509572 
L 168.872652 236.509572 
L 168.973898 235.880193 
L 169.104709 235.880193 
L 169.194741 234.999062 
L 169.269439 234.999062 
L 169.269439 234.873186 
L 169.575085 234.873186 
L 169.575085 234.621434 
L 169.726065 234.621434 
L 169.827658 233.614428 
L 169.846947 233.614428 
L 169.909499 233.110924 
L 169.976632 233.110924 
L 170.05783 232.733297 
L 170.138678 232.733297 
L 170.242793 232.229793 
L 170.4353 232.229793 
L 170.467971 231.72629 
L 170.648965 231.72629 
L 170.708911 231.09691 
L 170.764077 231.09691 
L 170.764077 230.845159 
L 170.892171 230.845159 
L 170.946803 230.593407 
L 171.177235 230.593407 
L 171.199675 229.964028 
L 171.427048 229.964028 
L 171.528696 229.460524 
L 171.629799 229.460524 
L 171.721637 229.082897 
L 171.891014 229.082897 
L 171.994493 228.327641 
L 172.135853 228.327641 
L 172.135853 228.07589 
L 172.348032 228.07589 
L 172.348032 227.824138 
L 172.574528 227.824138 
L 172.645272 227.572386 
L 172.690906 227.572386 
L 172.757085 226.943007 
L 172.83126 226.943007 
L 172.876446 226.313628 
L 173.039848 226.313628 
L 173.145303 225.936 
L 173.177632 225.936 
L 173.266252 225.558372 
L 173.458168 225.558372 
L 173.537558 224.928993 
L 173.60083 224.928993 
L 173.703196 224.299614 
L 173.762 224.299614 
L 173.762 224.047862 
L 173.921801 224.047862 
L 174.026299 223.670234 
L 174.302156 223.670234 
L 174.35912 223.040855 
L 174.427251 223.040855 
L 174.427251 222.789103 
L 174.611476 222.789103 
L 174.611476 222.663228 
L 174.727102 222.663228 
L 174.738254 222.411476 
L 174.978272 222.411476 
L 174.978272 222.2856 
L 175.109898 222.2856 
L 175.109898 222.033848 
L 175.255078 222.033848 
L 175.258693 221.656221 
L 175.481488 221.656221 
L 175.49934 221.026841 
L 175.821337 221.026841 
L 175.856387 220.523338 
L 175.978552 220.523338 
L 176.082637 220.271586 
L 176.120657 220.271586 
L 176.196469 219.768083 
L 176.237692 219.768083 
L 176.316452 218.761076 
L 176.462819 218.761076 
L 176.462819 218.6352 
L 176.825495 218.6352 
L 176.825495 218.383448 
L 177.004244 218.383448 
L 177.083146 218.005821 
L 177.33408 218.005821 
L 177.33408 217.879945 
L 177.463125 217.879945 
L 177.572122 217.502317 
L 177.658231 217.502317 
L 177.677313 216.998814 
L 177.857632 216.998814 
L 177.857632 216.747062 
L 178.222432 216.747062 
L 178.265613 216.243559 
L 178.342476 216.243559 
L 178.357812 215.991807 
L 178.473951 215.991807 
L 178.473951 215.740055 
L 178.81813 215.740055 
L 178.81813 215.614179 
L 179.241145 215.614179 
L 179.340338 215.110676 
L 179.43901 215.110676 
L 179.43901 214.9848 
L 179.98952 214.9848 
L 179.98952 214.858924 
L 180.238055 214.858924 
L 180.238055 214.733048 
L 180.39277 214.733048 
L 180.483348 213.977793 
L 181.020511 213.977793 
L 181.116069 213.47429 
L 181.258501 213.47429 
L 181.274261 212.970786 
L 181.402471 212.970786 
L 181.402471 212.84491 
L 181.524633 212.84491 
L 181.524633 212.593159 
L 181.694851 212.593159 
L 181.694851 212.341407 
L 182.06601 212.341407 
L 182.06601 212.089655 
L 182.392915 212.089655 
L 182.432456 211.586152 
L 182.677721 211.586152 
L 182.723962 211.3344 
L 183.411305 211.3344 
L 183.411305 211.208524 
L 183.722747 211.208524 
L 183.722747 210.956772 
L 184.157939 210.956772 
L 184.157939 210.705021 
L 184.736802 210.705021 
L 184.736802 210.453269 
L 184.856545 210.453269 
L 184.856545 210.201517 
L 185.215526 210.201517 
L 185.215526 210.075641 
L 185.773537 210.075641 
L 185.864265 209.698014 
L 186.906562 209.698014 
L 186.906562 209.572138 
L 188.728487 209.572138 
L 188.728487 209.446262 
L 188.954998 209.446262 
L 188.960233 209.068634 
L 189.251112 209.068634 
L 189.31115 208.691007 
L 191.229155 208.691007 
L 191.238433 208.187503 
L 191.561813 208.187503 
L 191.561813 208.061628 
L 192.22466 208.061628 
L 192.22466 207.935752 
L 192.748322 207.935752 
L 192.748322 207.809876 
L 193.523892 207.809876 
L 193.523892 207.558124 
L 194.054362 207.558124 
L 194.108852 207.306372 
L 194.572873 207.306372 
L 194.572873 207.054621 
L 194.771216 207.054621 
L 194.858135 206.676993 
L 195.37014 206.676993 
L 195.37014 206.551117 
L 195.58853 206.551117 
L 195.679088 206.17349 
L 195.91927 206.17349 
L 195.91927 206.047614 
L 196.06814 206.047614 
L 196.06814 205.921738 
L 196.279802 205.921738 
L 196.279802 205.795862 
L 196.417642 205.795862 
L 196.417642 205.54411 
L 196.566129 205.54411 
L 196.566129 205.292359 
L 197.086424 205.292359 
L 197.179086 204.914731 
L 197.295957 204.914731 
L 197.400968 204.411228 
L 197.869659 204.411228 
L 197.869659 204.159476 
L 198.48957 204.159476 
L 198.48957 203.907724 
L 198.676835 203.907724 
L 198.676835 203.781848 
L 198.789961 203.781848 
L 198.875649 203.404221 
L 199.306385 203.404221 
L 199.306385 203.152469 
L 199.512634 203.152469 
L 199.512634 202.900717 
L 199.783508 202.900717 
L 199.791358 202.397214 
L 200.087272 202.397214 
L 200.087272 202.271338 
L 200.347196 202.271338 
L 200.433677 201.641959 
L 200.498987 201.641959 
L 200.498987 201.390207 
L 200.671109 201.390207 
L 200.671109 201.138455 
L 200.904657 201.138455 
L 201.001503 200.634952 
L 201.11432 200.634952 
L 201.11432 200.509076 
L 201.257347 200.509076 
L 201.270048 200.131448 
L 201.768545 200.131448 
L 201.780906 199.753821 
L 202.068204 199.753821 
L 202.068204 199.502069 
L 202.445136 199.502069 
L 202.553032 199.250317 
L 202.690611 199.250317 
L 202.690611 198.998566 
L 202.818841 198.998566 
L 202.818841 198.87269 
L 203.06364 198.87269 
L 203.135231 198.369186 
L 203.342699 198.369186 
L 203.342699 198.24331 
L 203.984717 198.24331 
L 203.984717 197.991559 
L 204.186956 197.991559 
L 204.211793 197.739807 
L 204.360129 197.739807 
L 204.360129 197.488055 
L 204.617695 197.488055 
L 204.617695 197.236303 
L 204.838801 197.236303 
L 204.886754 196.858676 
L 204.990481 196.858676 
L 205.021711 196.355172 
L 205.571554 196.355172 
L 205.598953 195.851669 
L 205.788209 195.851669 
L 205.788209 195.725793 
L 206.053809 195.725793 
L 206.098064 195.22229 
L 207.328308 195.22229 
L 207.328308 195.096414 
L 207.482776 195.096414 
L 207.486035 194.844662 
L 207.74108 194.844662 
L 207.804625 194.467034 
L 208.178939 194.467034 
L 208.178939 194.215283 
L 208.480539 194.215283 
L 208.480539 194.089407 
L 208.94699 194.089407 
L 209.005393 193.585903 
L 209.16105 193.585903 
L 209.212848 193.208276 
L 209.339658 193.208276 
L 209.351465 192.704772 
L 209.477933 192.704772 
L 209.517756 192.453021 
L 210.135791 192.453021 
L 210.23122 192.075393 
L 210.433457 192.075393 
L 210.433457 191.823641 
L 210.624721 191.823641 
L 210.624721 191.57189 
L 210.804227 191.57189 
L 210.804227 191.446014 
L 210.991776 191.446014 
L 210.991776 191.194262 
L 211.131892 191.194262 
L 211.183365 190.816634 
L 211.628363 190.816634 
L 211.628363 190.690759 
L 211.751889 190.690759 
L 211.854986 190.313131 
L 212.175666 190.313131 
L 212.22487 189.935503 
L 212.47048 189.935503 
L 212.47048 189.809628 
L 213.258296 189.809628 
L 213.361588 189.432 
L 213.556105 189.432 
L 213.588644 189.180248 
L 214.073308 189.180248 
L 214.080195 188.802621 
L 214.427657 188.802621 
L 214.42991 188.550869 
L 214.813901 188.550869 
L 214.862399 188.173241 
L 215.025054 188.173241 
L 215.025054 188.047366 
L 215.31915 188.047366 
L 215.31915 187.92149 
L 215.509003 187.92149 
L 215.509003 187.795614 
L 215.659012 187.795614 
L 215.659012 187.669738 
L 216.111882 187.669738 
L 216.111882 187.543862 
L 216.418797 187.543862 
L 216.418797 187.417986 
L 216.658053 187.417986 
L 216.658053 187.166234 
L 216.775754 187.166234 
L 216.883235 186.536855 
L 217.114348 186.536855 
L 217.196205 186.285103 
L 217.569753 186.285103 
L 217.673562 185.7816 
L 217.76737 185.7816 
L 217.861839 185.529848 
L 218.363421 185.529848 
L 218.363421 185.403972 
L 218.629119 185.403972 
L 218.629119 185.152221 
L 219.310792 185.152221 
L 219.310792 184.900469 
L 219.8474 184.900469 
L 219.8474 184.648717 
L 219.973658 184.648717 
L 219.973658 184.522841 
L 220.240872 184.522841 
L 220.348414 184.27109 
L 220.36321 184.27109 
L 220.396706 183.893462 
L 220.669663 183.893462 
L 220.704232 183.64171 
L 220.876131 183.64171 
L 220.876131 183.515834 
L 221.154562 183.515834 
L 221.197688 183.264083 
L 221.277695 183.264083 
L 221.296783 182.886455 
L 221.438558 182.886455 
L 221.483825 182.257076 
L 221.910937 182.257076 
L 221.910937 182.005324 
L 222.062894 182.005324 
L 222.062894 181.879448 
L 222.496284 181.879448 
L 222.496284 181.753572 
L 222.827876 181.753572 
L 222.849488 181.501821 
L 223.226693 181.501821 
L 223.267859 180.998317 
L 223.545208 180.998317 
L 223.631048 180.62069 
L 223.65893 180.62069 
L 223.65893 180.494814 
L 223.990609 180.494814 
L 223.990609 180.243062 
L 224.219326 180.243062 
L 224.219326 180.117186 
L 224.462221 180.117186 
L 224.462221 179.99131 
L 225.051341 179.99131 
L 225.107106 179.739559 
L 225.33004 179.739559 
L 225.418931 179.236055 
L 225.511905 179.236055 
L 225.511905 178.984303 
L 225.669731 178.984303 
L 225.684351 178.732552 
L 226.066852 178.732552 
L 226.095956 178.4808 
L 226.237435 178.4808 
L 226.331485 178.229048 
L 226.671587 178.229048 
L 226.671587 178.103172 
L 226.870084 178.103172 
L 226.968899 177.599669 
L 226.98185 177.599669 
L 226.98185 177.347917 
L 228.008926 177.347917 
L 228.028618 176.97029 
L 228.36971 176.97029 
L 228.36971 176.718538 
L 228.517307 176.718538 
L 228.517307 176.592662 
L 228.691854 176.592662 
L 228.728129 176.215034 
L 228.861658 176.215034 
L 228.954109 175.963283 
L 229.336377 175.963283 
L 229.336377 175.837407 
L 229.761755 175.837407 
L 229.761755 175.711531 
L 229.903021 175.711531 
L 229.903021 175.585655 
L 230.241019 175.585655 
L 230.241019 175.459779 
L 230.400347 175.459779 
L 230.444057 175.208028 
L 230.73396 175.208028 
L 230.73396 175.082152 
L 230.910585 175.082152 
L 230.910585 174.956276 
L 231.72138 174.956276 
L 231.777365 174.704524 
L 231.958348 174.704524 
L 231.958348 174.452772 
L 232.289213 174.452772 
L 232.289213 174.326897 
L 232.512114 174.326897 
L 232.618984 173.949269 
L 232.703091 173.949269 
L 232.779689 173.697517 
L 233.174547 173.697517 
L 233.174547 173.571641 
L 233.700266 173.571641 
L 233.700266 173.445766 
L 233.905708 173.445766 
L 233.905708 173.31989 
L 234.15967 173.31989 
L 234.163932 173.068138 
L 234.647233 173.068138 
L 234.647233 172.816386 
L 234.837464 172.816386 
L 234.837464 172.69051 
L 235.090504 172.69051 
L 235.090504 172.438759 
L 235.357375 172.438759 
L 235.42642 172.061131 
L 235.536339 172.061131 
L 235.536339 171.935255 
L 235.876851 171.935255 
L 235.876851 171.809379 
L 236.106841 171.809379 
L 236.106841 171.683503 
L 236.223761 171.683503 
L 236.223761 171.557628 
L 236.509577 171.557628 
L 236.509577 171.431752 
L 237.347855 171.431752 
L 237.450575 170.928248 
L 237.76584 170.928248 
L 237.817636 170.550621 
L 237.947021 170.550621 
L 238.053846 170.298869 
L 238.126219 170.298869 
L 238.167979 170.047117 
L 239.059975 170.047117 
L 239.059975 169.921241 
L 239.299085 169.921241 
L 239.299085 169.795366 
L 239.669938 169.795366 
L 239.669938 169.66949 
L 239.855807 169.66949 
L 239.855807 169.543614 
L 240.29176 169.543614 
L 240.29176 169.291862 
L 240.510174 169.291862 
L 240.510174 169.04011 
L 240.744443 169.04011 
L 240.744443 168.914234 
L 241.093251 168.914234 
L 241.158762 168.662483 
L 241.557014 168.662483 
L 241.650001 168.410731 
L 241.774255 168.410731 
L 241.774255 168.284855 
L 241.896962 168.284855 
L 241.896962 168.158979 
L 242.114471 168.158979 
L 242.114471 168.033103 
L 242.453926 168.033103 
L 242.453926 167.907228 
L 242.938137 167.907228 
L 243.039627 167.5296 
L 243.06629 167.5296 
L 243.102928 167.277848 
L 243.191818 167.277848 
L 243.191818 167.151972 
L 243.600188 167.151972 
L 243.600188 166.900221 
L 244.55684 166.900221 
L 244.55684 166.774345 
L 245.100872 166.774345 
L 245.100872 166.648469 
L 245.247747 166.648469 
L 245.247747 166.396717 
L 245.373579 166.396717 
L 245.389141 166.01909 
L 246.26107 166.01909 
L 246.26107 165.767338 
L 246.37513 165.767338 
L 246.37513 165.641462 
L 246.572004 165.641462 
L 246.572004 165.515586 
L 247.277609 165.515586 
L 247.277609 165.263834 
L 247.550868 165.263834 
L 247.592421 165.012083 
L 247.687484 165.012083 
L 247.715226 164.634455 
L 247.872908 164.634455 
L 247.872908 164.508579 
L 248.247022 164.508579 
L 248.247022 164.382703 
L 248.528505 164.382703 
L 248.528505 164.256828 
L 249.007514 164.256828 
L 249.007514 164.130952 
L 249.617936 164.130952 
L 249.679397 163.753324 
L 249.866832 163.753324 
L 249.866832 163.627448 
L 250.208835 163.627448 
L 250.250489 163.375697 
L 250.52715 163.375697 
L 250.52715 163.123945 
L 250.857005 163.123945 
L 250.869152 162.872193 
L 250.976642 162.872193 
L 250.976642 162.620441 
L 251.514293 162.620441 
L 251.514293 162.494566 
L 252.22398 162.494566 
L 252.22398 162.36869 
L 252.359508 162.36869 
L 252.359508 162.242814 
L 252.53114 162.242814 
L 252.55995 161.865186 
L 252.704695 161.865186 
L 252.704695 161.73931 
L 253.017727 161.73931 
L 253.017727 161.487559 
L 253.381402 161.487559 
L 253.381402 161.361683 
L 253.52912 161.361683 
L 253.52912 161.109931 
L 254.354895 161.109931 
L 254.354895 160.984055 
L 254.599172 160.984055 
L 254.599172 160.858179 
L 254.754997 160.858179 
L 254.754997 160.732303 
L 255.123267 160.732303 
L 255.123267 160.480552 
L 255.40187 160.480552 
L 255.424515 160.2288 
L 256.151275 160.2288 
L 256.151275 160.102924 
L 256.529905 160.102924 
L 256.529905 159.851172 
L 256.792602 159.851172 
L 256.792602 159.725297 
L 257.131963 159.725297 
L 257.146063 159.473545 
L 257.566017 159.473545 
L 257.566017 159.347669 
L 257.759163 159.347669 
L 257.808623 158.844166 
L 257.914568 158.844166 
L 257.914568 158.71829 
L 258.475572 158.71829 
L 258.475572 158.466538 
L 259.306134 158.466538 
L 259.306134 158.214786 
L 259.563094 158.214786 
L 259.594973 157.963034 
L 259.684031 157.963034 
L 259.684031 157.837159 
L 259.875422 157.837159 
L 259.956957 157.585407 
L 260.388916 157.585407 
L 260.44384 157.333655 
L 260.835471 157.333655 
L 260.835471 157.081903 
L 261.75949 157.081903 
L 261.75949 156.956028 
L 262.564227 156.956028 
L 262.657527 156.5784 
L 263.173644 156.5784 
L 263.182656 156.200772 
L 264.178277 156.200772 
L 264.178277 156.074897 
L 264.343566 156.074897 
L 264.343566 155.949021 
L 264.879092 155.949021 
L 264.939987 155.697269 
L 265.685201 155.697269 
L 265.685201 155.445517 
L 265.881576 155.445517 
L 265.881576 155.319641 
L 266.304991 155.319641 
L 266.336551 155.06789 
L 266.712821 155.06789 
L 266.712821 154.942014 
L 267.338116 154.942014 
L 267.338116 154.816138 
L 267.943189 154.816138 
L 267.943189 154.690262 
L 268.541643 154.690262 
L 268.541643 154.43851 
L 268.6846 154.43851 
L 268.6846 154.312634 
L 268.85296 154.312634 
L 268.85296 154.186759 
L 269.282371 154.186759 
L 269.282371 154.060883 
L 269.676912 154.060883 
L 269.676912 153.935007 
L 270.892895 153.935007 
L 270.892895 153.683255 
L 271.33894 153.683255 
L 271.33894 153.557379 
L 271.670494 153.557379 
L 271.731003 153.305628 
L 272.075244 153.305628 
L 272.106915 152.802124 
L 272.494315 152.802124 
L 272.494315 152.676248 
L 273.573456 152.676248 
L 273.595392 152.298621 
L 274.097052 152.298621 
L 274.097052 152.046869 
L 360.8064 152.046869 
L 360.8064 152.046869 
" style="fill: none; stroke: #ff00ff; stroke-width: 1.5; stroke-linecap: square"/>
   </g>
   <g id="line2d_41">
    <defs>
     <path id="m7bcfca8dec" d="M 0 8.485281 
L 5.091169 0 
L 0 -8.485281 
L -5.091169 0 
z
" style="stroke: #ff00ff; stroke-width: 1.5; stroke-linejoin: miter"/>
    </defs>
    <g>
     <use xlink:href="#m7bcfca8dec" x="123.202939" y="276.286345" style="fill-opacity: 0; stroke: #ff00ff; stroke-width: 1.5; stroke-linejoin: miter"/>
     <use xlink:href="#m7bcfca8dec" x="168.575917" y="236.8872" style="fill-opacity: 0; stroke: #ff00ff; stroke-width: 1.5; stroke-linejoin: miter"/>
     <use xlink:href="#m7bcfca8dec" x="230.910585" y="175.082152" style="fill-opacity: 0; stroke: #ff00ff; stroke-width: 1.5; stroke-linejoin: miter"/>
     <use xlink:href="#m7bcfca8dec" x="274.097052" y="152.046869" style="fill-opacity: 0; stroke: #ff00ff; stroke-width: 1.5; stroke-linejoin: miter"/>
     <use xlink:href="#m7bcfca8dec" x="274.097052" y="152.046869" style="fill-opacity: 0; stroke: #ff00ff; stroke-width: 1.5; stroke-linejoin: miter"/>
     <use xlink:href="#m7bcfca8dec" x="360.8064" y="152.046869" style="fill-opacity: 0; stroke: #ff00ff; stroke-width: 1.5; stroke-linejoin: miter"/>
    </g>
   </g>
   <g id="line2d_42">
    <path style="fill: none; stroke: #ff00ff; stroke-width: 1.5; stroke-linecap: square"/>
    <g/>
   </g>
   <g id="line2d_43">
    <path d="M 274.176019 152.046869 
" clip-path="url(#p29d793a21d)" style="fill: none; stroke: #ff00ff; stroke-width: 1.5; stroke-linecap: square"/>
    <defs>
     <path id="m71332dafa5" d="M -12 12 
L 12 -12 
M -12 -12 
L 12 12 
" style="stroke: #ff00ff"/>
    </defs>
    <g clip-path="url(#p29d793a21d)">
     <use xlink:href="#m71332dafa5" x="274.176019" y="152.046869" style="fill: #ff00ff; stroke: #ff00ff"/>
    </g>
   </g>
   <g id="line2d_44">
    <defs>
     <path id="mb0429b8d02" d="M 0 1.5 
C 0.397805 1.5 0.77937 1.341951 1.06066 1.06066 
C 1.341951 0.77937 1.5 0.397805 1.5 0 
C 1.5 -0.397805 1.341951 -0.77937 1.06066 -1.06066 
C 0.77937 -1.341951 0.397805 -1.5 0 -1.5 
C -0.397805 -1.5 -0.77937 -1.341951 -1.06066 -1.06066 
C -1.341951 -0.77937 -1.5 -0.397805 -1.5 0 
C -1.5 0.397805 -1.341951 0.77937 -1.06066 1.06066 
C -0.77937 1.341951 -0.397805 1.5 0 1.5 
z
" style="stroke: #6495ed"/>
    </defs>
    <g>
     <use xlink:href="#mb0429b8d02" x="113.954374" y="253.376938" style="fill: #6495ed; stroke: #6495ed"/>
     <use xlink:href="#mb0429b8d02" x="113.954374" y="253.376938" style="fill: #6495ed; stroke: #6495ed"/>
    </g>
   </g>
   <g id="line2d_45">
    <path d="M 14.2848 298.944 
L 14.2848 297.307614 
L 27.323974 297.307614 
L 27.323974 297.181738 
L 34.951403 297.181738 
L 34.951403 296.678234 
L 40.363149 296.678234 
L 40.363149 296.048855 
L 44.560826 296.048855 
L 44.560826 295.545352 
L 47.990577 295.545352 
L 47.990577 295.041848 
L 50.890391 295.041848 
L 50.890391 294.915972 
L 53.402323 294.915972 
L 53.402323 294.412469 
L 55.618005 294.412469 
L 55.618005 294.286593 
L 57.6 294.286593 
L 57.6 293.15371 
L 59.392932 293.15371 
L 59.392932 292.901959 
L 62.535479 292.901959 
L 62.535479 292.272579 
L 63.929565 292.272579 
L 63.929565 292.146703 
L 65.227428 292.146703 
L 65.227428 292.020828 
L 67.581941 292.020828 
L 67.581941 291.769076 
L 68.65718 291.769076 
L 68.65718 291.391448 
L 69.674268 291.391448 
L 69.674268 291.265572 
L 71.556993 291.265572 
L 71.556993 291.139697 
L 73.268314 291.139697 
L 73.268314 290.762069 
L 74.068926 290.762069 
L 74.068926 290.636193 
L 74.836851 290.636193 
L 74.836851 290.258566 
L 77.628862 290.258566 
L 77.628862 290.13269 
L 78.266603 290.13269 
L 78.266603 289.880938 
L 78.88343 289.880938 
L 78.88343 289.755062 
L 80.059535 289.755062 
L 80.059535 289.629186 
L 80.621116 289.629186 
L 80.621116 289.251559 
L 84.596168 289.251559 
L 84.596168 289.125683 
L 85.038813 289.125683 
L 85.038813 288.999807 
L 85.471281 288.999807 
L 85.471281 288.873931 
L 86.712053 288.873931 
L 86.712053 288.748055 
L 87.1081 288.748055 
L 87.1081 288.496303 
L 87.876026 288.496303 
L 87.876026 288.370428 
L 88.972154 288.370428 
L 88.972154 288.118676 
L 89.323782 288.118676 
L 89.323782 287.9928 
L 89.668958 287.9928 
L 89.668958 287.866924 
L 90.007914 287.866924 
L 90.007914 287.489297 
L 90.340871 287.489297 
L 90.340871 287.237545 
L 90.989609 287.237545 
L 90.989609 287.111669 
L 91.305777 287.111669 
L 91.305777 286.985793 
L 91.616719 286.985793 
L 91.616719 286.734041 
L 94.735529 286.734041 
L 94.735529 286.608166 
L 96.95121 286.608166 
L 96.95121 286.230538 
L 97.410051 286.230538 
L 97.410051 286.104662 
L 98.295464 286.104662 
L 98.295464 285.85291 
L 98.723018 285.85291 
L 98.723018 285.727034 
L 99.14107 285.727034 
L 99.14107 285.601159 
L 101.102381 285.601159 
L 101.102381 285.475283 
L 101.833019 285.475283 
L 101.833019 285.349407 
L 102.536336 285.349407 
L 102.536336 285.223531 
L 102.878374 285.223531 
L 102.878374 285.097655 
L 103.047088 285.097655 
L 103.047088 284.594152 
L 103.214303 284.594152 
L 103.214303 282.83189 
L 103.380045 282.83189 
L 103.380045 281.573131 
L 103.544339 281.573131 
L 103.544339 280.062621 
L 103.707211 280.062621 
L 103.707211 279.307366 
L 103.868684 279.307366 
L 103.868684 278.426234 
L 104.028784 278.426234 
L 104.028784 277.293352 
L 104.187532 277.293352 
L 104.187532 275.782841 
L 104.344952 275.782841 
L 104.344952 275.027586 
L 104.501065 275.027586 
L 104.501065 274.90171 
L 104.655893 274.90171 
L 104.655893 274.398207 
L 104.809458 274.398207 
L 104.809458 274.020579 
L 104.961779 274.020579 
L 104.961779 273.265324 
L 105.112877 273.265324 
L 105.112877 272.384193 
L 105.26277 272.384193 
L 105.26277 272.258317 
L 105.411479 272.258317 
L 105.411479 271.628938 
L 105.559021 271.628938 
L 105.559021 271.377186 
L 105.705415 271.377186 
L 105.705415 270.747807 
L 105.850679 270.747807 
L 105.850679 270.496055 
L 105.99483 270.496055 
L 105.99483 270.370179 
L 106.137884 270.370179 
L 106.137884 269.992552 
L 106.42077 269.992552 
L 106.42077 269.7408 
L 106.560633 269.7408 
L 106.560633 269.489048 
L 106.699465 269.489048 
L 106.699465 268.985545 
L 106.974091 268.985545 
L 106.974091 268.859669 
L 107.109915 268.859669 
L 107.109915 268.482041 
L 107.244765 268.482041 
L 107.244765 268.23029 
L 107.378656 268.23029 
L 107.378656 267.60091 
L 107.5116 267.60091 
L 107.5116 267.349159 
L 107.643612 267.349159 
L 107.643612 267.223283 
L 107.774703 267.223283 
L 107.774703 266.971531 
L 107.904887 266.971531 
L 107.904887 266.468028 
L 108.034177 266.468028 
L 108.034177 265.461021 
L 108.162584 265.461021 
L 108.162584 265.209269 
L 108.29012 265.209269 
L 108.29012 265.083393 
L 108.416798 265.083393 
L 108.416798 264.454014 
L 108.542628 264.454014 
L 108.542628 263.95051 
L 108.667622 263.95051 
L 108.667622 263.572883 
L 108.791791 263.572883 
L 108.791791 263.069379 
L 109.037698 263.069379 
L 109.037698 262.943503 
L 109.159456 262.943503 
L 109.159456 262.817628 
L 109.520071 262.817628 
L 109.520071 262.691752 
L 109.756698 262.691752 
L 109.756698 262.565876 
L 109.873904 262.565876 
L 109.873904 261.684745 
L 109.990385 261.684745 
L 109.990385 261.432993 
L 110.106149 261.432993 
L 110.106149 261.307117 
L 110.335561 261.307117 
L 110.335561 260.92949 
L 110.449226 260.92949 
L 110.449226 260.551862 
L 110.562208 260.551862 
L 110.562208 260.425986 
L 110.674517 260.425986 
L 110.674517 260.048359 
L 110.786158 260.048359 
L 110.897141 259.293103 
L 111.117162 259.293103 
L 111.117162 259.167228 
L 111.334639 259.167228 
L 111.442442 258.286097 
L 111.54963 258.286097 
L 111.656212 257.656717 
L 111.762192 257.656717 
L 111.86758 257.27909 
L 111.97238 257.27909 
L 112.076599 256.64971 
L 112.180244 256.64971 
L 112.283321 255.894455 
L 112.487797 255.894455 
L 112.589207 255.642703 
L 112.790402 255.642703 
L 112.890198 255.1392 
L 112.989468 255.1392 
L 112.989468 254.887448 
L 113.186449 254.887448 
L 113.186449 254.761572 
L 113.381389 254.761572 
L 113.381389 254.258069 
L 113.765312 254.258069 
L 113.860081 253.502814 
L 113.954374 253.502814 
L 113.954374 253.376938 
L 360.8064 253.376938 
L 360.8064 253.376938 
" style="fill: none; stroke: #6495ed; stroke-width: 1.5; stroke-linecap: square"/>
   </g>
   <g id="line2d_46">
    <defs>
     <path id="m0028ad4f94" d="M -0 6 
L 6 -6 
L -6 -6 
z
" style="stroke: #6495ed; stroke-width: 1.5; stroke-linejoin: miter"/>
    </defs>
    <g>
     <use xlink:href="#m0028ad4f94" x="113.954374" y="253.502814" style="fill-opacity: 0; stroke: #6495ed; stroke-width: 1.5; stroke-linejoin: miter"/>
     <use xlink:href="#m0028ad4f94" x="113.954374" y="253.502814" style="fill-opacity: 0; stroke: #6495ed; stroke-width: 1.5; stroke-linejoin: miter"/>
     <use xlink:href="#m0028ad4f94" x="113.954374" y="253.376938" style="fill-opacity: 0; stroke: #6495ed; stroke-width: 1.5; stroke-linejoin: miter"/>
     <use xlink:href="#m0028ad4f94" x="113.954374" y="253.376938" style="fill-opacity: 0; stroke: #6495ed; stroke-width: 1.5; stroke-linejoin: miter"/>
     <use xlink:href="#m0028ad4f94" x="360.8064" y="253.376938" style="fill-opacity: 0; stroke: #6495ed; stroke-width: 1.5; stroke-linejoin: miter"/>
    </g>
   </g>
   <g id="line2d_47">
    <path style="fill: none; stroke: #6495ed; stroke-width: 1.5; stroke-linecap: square"/>
    <g/>
   </g>
   <g id="line2d_48">
    <path d="M 113.954374 253.376938 
" clip-path="url(#p29d793a21d)" style="fill: none; stroke: #6495ed; stroke-width: 1.5; stroke-linecap: square"/>
    <defs>
     <path id="m687fa02134" d="M -12 12 
L 12 -12 
M -12 -12 
L 12 12 
" style="stroke: #6495ed"/>
    </defs>
    <g clip-path="url(#p29d793a21d)">
     <use xlink:href="#m687fa02134" x="113.954374" y="253.376938" style="fill: #6495ed; stroke: #6495ed"/>
    </g>
   </g>
   <g id="line2d_49">
    <path d="M 360.8064 280.943752 
L 380.514816 293.10336 
" style="fill: none; stroke: #000080; stroke-width: 1.5; stroke-linecap: square"/>
    <g>
     <use xlink:href="#m3be11a83e9" x="360.8064" y="280.943752" style="fill-opacity: 0; stroke: #000080; stroke-width: 1.5"/>
     <use xlink:href="#m3be11a83e9" x="380.514816" y="293.10336" style="fill-opacity: 0; stroke: #000080; stroke-width: 1.5"/>
    </g>
   </g>
   <g id="line2d_50">
    <path d="M 360.8064 253.376938 
L 380.514816 199.65312 
" style="fill: none; stroke: #6495ed; stroke-width: 1.5; stroke-linecap: square"/>
    <g>
     <use xlink:href="#m0028ad4f94" x="360.8064" y="253.376938" style="fill-opacity: 0; stroke: #6495ed; stroke-width: 1.5; stroke-linejoin: miter"/>
     <use xlink:href="#m0028ad4f94" x="380.514816" y="199.65312" style="fill-opacity: 0; stroke: #6495ed; stroke-width: 1.5; stroke-linejoin: miter"/>
    </g>
   </g>
   <g id="line2d_51">
    <path d="M 360.8064 152.046869 
L 380.514816 106.20288 
" style="fill: none; stroke: #ff00ff; stroke-width: 1.5; stroke-linecap: square"/>
    <g>
     <use xlink:href="#m7bcfca8dec" x="360.8064" y="152.046869" style="fill-opacity: 0; stroke: #ff00ff; stroke-width: 1.5; stroke-linejoin: miter"/>
     <use xlink:href="#m7bcfca8dec" x="380.514816" y="106.20288" style="fill-opacity: 0; stroke: #ff00ff; stroke-width: 1.5; stroke-linejoin: miter"/>
    </g>
   </g>
   <g id="line2d_52">
    <path d="M 360.8064 298.944 
L 360.8064 6.912 
" style="fill: none; stroke: #000000; stroke-width: 1.5; stroke-linecap: square"/>
   </g>
   <g id="patch_3">
    <path d="M 57.6 298.944 
L 360.8064 298.944 
" style="fill: none; stroke: #000000; stroke-width: 0.8; stroke-linejoin: miter; stroke-linecap: square"/>
   </g>
   <g id="patch_4">
    <path d="M 57.6 6.912 
L 360.8064 6.912 
" style="fill: none; stroke: #000000; stroke-width: 0.8; stroke-linejoin: miter; stroke-linecap: square"/>
   </g>
   <g id="text_13">
    <!-- cma -->
    <g transform="translate(386.578944 296.966485)scale(0.14 -0.14)">
     <use xlink:href="#DejaVuSans-63"/>
     <use xlink:href="#DejaVuSans-6d" x="54.980469"/>
     <use xlink:href="#DejaVuSans-61" x="152.392578"/>
    </g>
   </g>
   <g id="text_14">
    <!-- parEgo -->
    <g transform="translate(386.578944 203.516245)scale(0.14 -0.14)">
     <defs>
      <path id="DejaVuSans-45" d="M 628 4666 
L 3578 4666 
L 3578 4134 
L 1259 4134 
L 1259 2753 
L 3481 2753 
L 3481 2222 
L 1259 2222 
L 1259 531 
L 3634 531 
L 3634 0 
L 628 0 
L 628 4666 
z
" transform="scale(0.015625)"/>
     </defs>
     <use xlink:href="#DejaVuSans-70"/>
     <use xlink:href="#DejaVuSans-61" x="63.476562"/>
     <use xlink:href="#DejaVuSans-72" x="124.755859"/>
     <use xlink:href="#DejaVuSans-45" x="165.869141"/>
     <use xlink:href="#DejaVuSans-67" x="229.052734"/>
     <use xlink:href="#DejaVuSans-6f" x="292.529297"/>
    </g>
   </g>
   <g id="text_15">
    <!-- external- -->
    <g transform="translate(386.578944 110.066005)scale(0.14 -0.14)">
     <defs>
      <path id="DejaVuSans-78" d="M 3513 3500 
L 2247 1797 
L 3578 0 
L 2900 0 
L 1881 1375 
L 863 0 
L 184 0 
L 1544 1831 
L 300 3500 
L 978 3500 
L 1906 2253 
L 2834 3500 
L 3513 3500 
z
" transform="scale(0.015625)"/>
     </defs>
     <use xlink:href="#DejaVuSans-65"/>
     <use xlink:href="#DejaVuSans-78" x="59.773438"/>
     <use xlink:href="#DejaVuSans-74" x="118.953125"/>
     <use xlink:href="#DejaVuSans-65" x="158.162109"/>
     <use xlink:href="#DejaVuSans-72" x="219.685547"/>
     <use xlink:href="#DejaVuSans-6e" x="259.048828"/>
     <use xlink:href="#DejaVuSans-61" x="322.427734"/>
     <use xlink:href="#DejaVuSans-6c" x="383.707031"/>
     <use xlink:href="#DejaVuSans-2d" x="411.490234"/>
    </g>
   </g>
   <g id="text_16">
    <!-- best 2016 -->
    <g transform="translate(386.578944 16.615765)scale(0.14 -0.14)">
     <defs>
      <path id="DejaVuSans-62" d="M 3116 1747 
Q 3116 2381 2855 2742 
Q 2594 3103 2138 3103 
Q 1681 3103 1420 2742 
Q 1159 2381 1159 1747 
Q 1159 1113 1420 752 
Q 1681 391 2138 391 
Q 2594 391 2855 752 
Q 3116 1113 3116 1747 
z
M 1159 2969 
Q 1341 3281 1617 3432 
Q 1894 3584 2278 3584 
Q 2916 3584 3314 3078 
Q 3713 2572 3713 1747 
Q 3713 922 3314 415 
Q 2916 -91 2278 -91 
Q 1894 -91 1617 61 
Q 1341 213 1159 525 
L 1159 0 
L 581 0 
L 581 4863 
L 1159 4863 
L 1159 2969 
z
" transform="scale(0.015625)"/>
     </defs>
     <use xlink:href="#DejaVuSans-62"/>
     <use xlink:href="#DejaVuSans-65" x="63.476562"/>
     <use xlink:href="#DejaVuSans-73" x="125"/>
     <use xlink:href="#DejaVuSans-74" x="177.099609"/>
     <use xlink:href="#DejaVuSans-20" x="216.308594"/>
     <use xlink:href="#DejaVuSans-32" x="248.095703"/>
     <use xlink:href="#DejaVuSans-30" x="311.71875"/>
     <use xlink:href="#DejaVuSans-31" x="375.341797"/>
     <use xlink:href="#DejaVuSans-36" x="438.964844"/>
    </g>
   </g>
   <g id="text_17">
    <!-- bbob-biobj f22, f23, f29, f30, 10-D -->
    <g transform="translate(60.632064 17.582726)scale(0.102 -0.102)">
     <defs>
      <path id="DejaVuSans-6a" d="M 603 3500 
L 1178 3500 
L 1178 -63 
Q 1178 -731 923 -1031 
Q 669 -1331 103 -1331 
L -116 -1331 
L -116 -844 
L 38 -844 
Q 366 -844 484 -692 
Q 603 -541 603 -63 
L 603 3500 
z
M 603 4863 
L 1178 4863 
L 1178 4134 
L 603 4134 
L 603 4863 
z
" transform="scale(0.015625)"/>
      <path id="DejaVuSans-33" d="M 2597 2516 
Q 3050 2419 3304 2112 
Q 3559 1806 3559 1356 
Q 3559 666 3084 287 
Q 2609 -91 1734 -91 
Q 1441 -91 1130 -33 
Q 819 25 488 141 
L 488 750 
Q 750 597 1062 519 
Q 1375 441 1716 441 
Q 2309 441 2620 675 
Q 2931 909 2931 1356 
Q 2931 1769 2642 2001 
Q 2353 2234 1838 2234 
L 1294 2234 
L 1294 2753 
L 1863 2753 
Q 2328 2753 2575 2939 
Q 2822 3125 2822 3475 
Q 2822 3834 2567 4026 
Q 2313 4219 1838 4219 
Q 1578 4219 1281 4162 
Q 984 4106 628 3988 
L 628 4550 
Q 988 4650 1302 4700 
Q 1616 4750 1894 4750 
Q 2613 4750 3031 4423 
Q 3450 4097 3450 3541 
Q 3450 3153 3228 2886 
Q 3006 2619 2597 2516 
z
" transform="scale(0.015625)"/>
      <path id="DejaVuSans-39" d="M 703 97 
L 703 672 
Q 941 559 1184 500 
Q 1428 441 1663 441 
Q 2288 441 2617 861 
Q 2947 1281 2994 2138 
Q 2813 1869 2534 1725 
Q 2256 1581 1919 1581 
Q 1219 1581 811 2004 
Q 403 2428 403 3163 
Q 403 3881 828 4315 
Q 1253 4750 1959 4750 
Q 2769 4750 3195 4129 
Q 3622 3509 3622 2328 
Q 3622 1225 3098 567 
Q 2575 -91 1691 -91 
Q 1453 -91 1209 -44 
Q 966 3 703 97 
z
M 1959 2075 
Q 2384 2075 2632 2365 
Q 2881 2656 2881 3163 
Q 2881 3666 2632 3958 
Q 2384 4250 1959 4250 
Q 1534 4250 1286 3958 
Q 1038 3666 1038 3163 
Q 1038 2656 1286 2365 
Q 1534 2075 1959 2075 
z
" transform="scale(0.015625)"/>
      <path id="DejaVuSans-44" d="M 1259 4147 
L 1259 519 
L 2022 519 
Q 2988 519 3436 956 
Q 3884 1394 3884 2338 
Q 3884 3275 3436 3711 
Q 2988 4147 2022 4147 
L 1259 4147 
z
M 628 4666 
L 1925 4666 
Q 3281 4666 3915 4102 
Q 4550 3538 4550 2338 
Q 4550 1131 3912 565 
Q 3275 0 1925 0 
L 628 0 
L 628 4666 
z
" transform="scale(0.015625)"/>
     </defs>
     <use xlink:href="#DejaVuSans-62"/>
     <use xlink:href="#DejaVuSans-62" x="63.476562"/>
     <use xlink:href="#DejaVuSans-6f" x="126.953125"/>
     <use xlink:href="#DejaVuSans-62" x="188.134766"/>
     <use xlink:href="#DejaVuSans-2d" x="251.611328"/>
     <use xlink:href="#DejaVuSans-62" x="287.695312"/>
     <use xlink:href="#DejaVuSans-69" x="351.171875"/>
     <use xlink:href="#DejaVuSans-6f" x="378.955078"/>
     <use xlink:href="#DejaVuSans-62" x="440.136719"/>
     <use xlink:href="#DejaVuSans-6a" x="503.613281"/>
     <use xlink:href="#DejaVuSans-20" x="531.396484"/>
     <use xlink:href="#DejaVuSans-66" x="563.183594"/>
     <use xlink:href="#DejaVuSans-32" x="598.388672"/>
     <use xlink:href="#DejaVuSans-32" x="662.011719"/>
     <use xlink:href="#DejaVuSans-2c" x="725.634766"/>
     <use xlink:href="#DejaVuSans-20" x="757.421875"/>
     <use xlink:href="#DejaVuSans-66" x="789.208984"/>
     <use xlink:href="#DejaVuSans-32" x="824.414062"/>
     <use xlink:href="#DejaVuSans-33" x="888.037109"/>
     <use xlink:href="#DejaVuSans-2c" x="951.660156"/>
     <use xlink:href="#DejaVuSans-20" x="983.447266"/>
     <use xlink:href="#DejaVuSans-66" x="1015.234375"/>
     <use xlink:href="#DejaVuSans-32" x="1050.439453"/>
     <use xlink:href="#DejaVuSans-39" x="1114.0625"/>
     <use xlink:href="#DejaVuSans-2c" x="1177.685547"/>
     <use xlink:href="#DejaVuSans-20" x="1209.472656"/>
     <use xlink:href="#DejaVuSans-66" x="1241.259766"/>
     <use xlink:href="#DejaVuSans-33" x="1276.464844"/>
     <use xlink:href="#DejaVuSans-30" x="1340.087891"/>
     <use xlink:href="#DejaVuSans-2c" x="1403.710938"/>
     <use xlink:href="#DejaVuSans-20" x="1435.498047"/>
     <use xlink:href="#DejaVuSans-31" x="1467.285156"/>
     <use xlink:href="#DejaVuSans-30" x="1530.908203"/>
     <use xlink:href="#DejaVuSans-2d" x="1594.53125"/>
     <use xlink:href="#DejaVuSans-44" x="1630.615234"/>
    </g>
    <!-- 58 targets: 1..-1.0e-4 -->
    <g transform="translate(60.632064 29.004495)scale(0.102 -0.102)">
     <defs>
      <path id="DejaVuSans-35" d="M 691 4666 
L 3169 4666 
L 3169 4134 
L 1269 4134 
L 1269 2991 
Q 1406 3038 1543 3061 
Q 1681 3084 1819 3084 
Q 2600 3084 3056 2656 
Q 3513 2228 3513 1497 
Q 3513 744 3044 326 
Q 2575 -91 1722 -91 
Q 1428 -91 1123 -41 
Q 819 9 494 109 
L 494 744 
Q 775 591 1075 516 
Q 1375 441 1709 441 
Q 2250 441 2565 725 
Q 2881 1009 2881 1497 
Q 2881 1984 2565 2268 
Q 2250 2553 1709 2553 
Q 1456 2553 1204 2497 
Q 953 2441 691 2322 
L 691 4666 
z
" transform="scale(0.015625)"/>
      <path id="DejaVuSans-3a" d="M 750 794 
L 1409 794 
L 1409 0 
L 750 0 
L 750 794 
z
M 750 3309 
L 1409 3309 
L 1409 2516 
L 750 2516 
L 750 3309 
z
" transform="scale(0.015625)"/>
     </defs>
     <use xlink:href="#DejaVuSans-35"/>
     <use xlink:href="#DejaVuSans-38" x="63.623047"/>
     <use xlink:href="#DejaVuSans-20" x="127.246094"/>
     <use xlink:href="#DejaVuSans-74" x="159.033203"/>
     <use xlink:href="#DejaVuSans-61" x="198.242188"/>
     <use xlink:href="#DejaVuSans-72" x="259.521484"/>
     <use xlink:href="#DejaVuSans-67" x="298.884766"/>
     <use xlink:href="#DejaVuSans-65" x="362.361328"/>
     <use xlink:href="#DejaVuSans-74" x="423.884766"/>
     <use xlink:href="#DejaVuSans-73" x="463.09375"/>
     <use xlink:href="#DejaVuSans-3a" x="515.193359"/>
     <use xlink:href="#DejaVuSans-20" x="548.884766"/>
     <use xlink:href="#DejaVuSans-31" x="580.671875"/>
     <use xlink:href="#DejaVuSans-2e" x="644.294922"/>
     <use xlink:href="#DejaVuSans-2e" x="676.082031"/>
     <use xlink:href="#DejaVuSans-2d" x="707.869141"/>
     <use xlink:href="#DejaVuSans-31" x="743.953125"/>
     <use xlink:href="#DejaVuSans-2e" x="807.576172"/>
     <use xlink:href="#DejaVuSans-30" x="839.363281"/>
     <use xlink:href="#DejaVuSans-65" x="902.986328"/>
     <use xlink:href="#DejaVuSans-2d" x="964.509766"/>
     <use xlink:href="#DejaVuSans-34" x="1000.59375"/>
    </g>
    <!-- 10 instances -->
    <g transform="translate(60.632064 40.426264)scale(0.102 -0.102)">
     <use xlink:href="#DejaVuSans-31"/>
     <use xlink:href="#DejaVuSans-30" x="63.623047"/>
     <use xlink:href="#DejaVuSans-20" x="127.246094"/>
     <use xlink:href="#DejaVuSans-69" x="159.033203"/>
     <use xlink:href="#DejaVuSans-6e" x="186.816406"/>
     <use xlink:href="#DejaVuSans-73" x="250.195312"/>
     <use xlink:href="#DejaVuSans-74" x="302.294922"/>
     <use xlink:href="#DejaVuSans-61" x="341.503906"/>
     <use xlink:href="#DejaVuSans-6e" x="402.783203"/>
     <use xlink:href="#DejaVuSans-63" x="466.162109"/>
     <use xlink:href="#DejaVuSans-65" x="521.142578"/>
     <use xlink:href="#DejaVuSans-73" x="582.666016"/>
    </g>
   </g>
   <g id="text_18">
    <!-- v2.6, hv-hash=ff0e71e8cd978373 -->
    <g style="fill: #808080" transform="translate(123.707887 293.943992)scale(0.1 -0.1)">
     <defs>
      <path id="DejaVuSans-68" d="M 3513 2113 
L 3513 0 
L 2938 0 
L 2938 2094 
Q 2938 2591 2744 2837 
Q 2550 3084 2163 3084 
Q 1697 3084 1428 2787 
Q 1159 2491 1159 1978 
L 1159 0 
L 581 0 
L 581 4863 
L 1159 4863 
L 1159 2956 
Q 1366 3272 1645 3428 
Q 1925 3584 2291 3584 
Q 2894 3584 3203 3211 
Q 3513 2838 3513 2113 
z
" transform="scale(0.015625)"/>
      <path id="DejaVuSans-3d" d="M 678 2906 
L 4684 2906 
L 4684 2381 
L 678 2381 
L 678 2906 
z
M 678 1631 
L 4684 1631 
L 4684 1100 
L 678 1100 
L 678 1631 
z
" transform="scale(0.015625)"/>
      <path id="DejaVuSans-37" d="M 525 4666 
L 3525 4666 
L 3525 4397 
L 1831 0 
L 1172 0 
L 2766 4134 
L 525 4134 
L 525 4666 
z
" transform="scale(0.015625)"/>
     </defs>
     <use xlink:href="#DejaVuSans-76"/>
     <use xlink:href="#DejaVuSans-32" x="59.179688"/>
     <use xlink:href="#DejaVuSans-2e" x="122.802734"/>
     <use xlink:href="#DejaVuSans-36" x="154.589844"/>
     <use xlink:href="#DejaVuSans-2c" x="218.212891"/>
     <use xlink:href="#DejaVuSans-20" x="250"/>
     <use xlink:href="#DejaVuSans-68" x="281.787109"/>
     <use xlink:href="#DejaVuSans-76" x="345.166016"/>
     <use xlink:href="#DejaVuSans-2d" x="401.720703"/>
     <use xlink:href="#DejaVuSans-68" x="437.804688"/>
     <use xlink:href="#DejaVuSans-61" x="501.183594"/>
     <use xlink:href="#DejaVuSans-73" x="562.462891"/>
     <use xlink:href="#DejaVuSans-68" x="614.5625"/>
     <use xlink:href="#DejaVuSans-3d" x="677.941406"/>
     <use xlink:href="#DejaVuSans-66" x="761.730469"/>
     <use xlink:href="#DejaVuSans-66" x="796.935547"/>
     <use xlink:href="#DejaVuSans-30" x="832.140625"/>
     <use xlink:href="#DejaVuSans-65" x="895.763672"/>
     <use xlink:href="#DejaVuSans-37" x="957.287109"/>
     <use xlink:href="#DejaVuSans-31" x="1020.910156"/>
     <use xlink:href="#DejaVuSans-65" x="1084.533203"/>
     <use xlink:href="#DejaVuSans-38" x="1146.056641"/>
     <use xlink:href="#DejaVuSans-63" x="1209.679688"/>
     <use xlink:href="#DejaVuSans-64" x="1264.660156"/>
     <use xlink:href="#DejaVuSans-39" x="1328.136719"/>
     <use xlink:href="#DejaVuSans-37" x="1391.759766"/>
     <use xlink:href="#DejaVuSans-38" x="1455.382812"/>
     <use xlink:href="#DejaVuSans-33" x="1519.005859"/>
     <use xlink:href="#DejaVuSans-37" x="1582.628906"/>
     <use xlink:href="#DejaVuSans-33" x="1646.251953"/>
    </g>
   </g>
  </g>
 </g>
 <defs>
  <clipPath id="p29d793a21d">
   <rect x="57.6" y="6.912" width="303.2064" height="292.032"/>
  </clipPath>
 </defs>
</svg>
