<?xml version="1.0" encoding="utf-8" standalone="no"?>
<!DOCTYPE svg PUBLIC "-//W3C//DTD SVG 1.1//EN"
  "http://www.w3.org/Graphics/SVG/1.1/DTD/svg11.dtd">
<svg xmlns:xlink="http://www.w3.org/1999/xlink" width="460.8pt" height="345.6pt" viewBox="0 0 460.8 345.6" xmlns="http://www.w3.org/2000/svg" version="1.1">
 <metadata>
  <rdf:RDF xmlns:dc="http://purl.org/dc/elements/1.1/" xmlns:cc="http://creativecommons.org/ns#" xmlns:rdf="http://www.w3.org/1999/02/22-rdf-syntax-ns#">
   <cc:Work>
    <dc:type rdf:resource="http://purl.org/dc/dcmitype/StillImage"/>
    <dc:date>2022-06-19T21:02:53.969811</dc:date>
    <dc:format>image/svg+xml</dc:format>
    <dc:creator>
     <cc:Agent>
      <dc:title>Matplotlib v3.5.1, https://matplotlib.org/</dc:title>
     </cc:Agent>
    </dc:creator>
   </cc:Work>
  </rdf:RDF>
 </metadata>
 <defs>
  <style type="text/css">*{stroke-linejoin: round; stroke-linecap: butt}</style>
 </defs>
 <g id="figure_1">
  <g id="patch_1">
   <path d="M 0 345.6 
L 460.8 345.6 
L 460.8 0 
L 0 0 
z
" style="fill: #ffffff"/>
  </g>
  <g id="axes_1">
   <g id="patch_2">
    <path d="M 57.6 298.944 
L 360.8064 298.944 
L 360.8064 6.912 
L 57.6 6.912 
z
" style="fill: #ffffff"/>
   </g>
   <g id="line2d_1">
    <path d="M 57.6 298.944 
L 57.6 296.426483 
L 65.227428 296.426483 
L 65.227428 293.908966 
L 74.836851 293.908966 
L 74.836851 292.650207 
L 78.266603 292.650207 
L 78.266603 290.13269 
L 81.166416 290.13269 
L 81.166416 288.873931 
L 83.678349 288.873931 
L 83.678349 286.356414 
L 87.876026 286.356414 
L 87.876026 283.838897 
L 91.305777 283.838897 
L 91.305777 281.321379 
L 100.9152 281.321379 
L 100.9152 278.803862 
L 101.833019 278.803862 
L 101.833019 276.286345 
L 105.112877 276.286345 
L 105.112877 273.768828 
L 106.560633 273.768828 
L 106.560633 272.510069 
L 112.989468 272.510069 
L 112.989468 271.25131 
L 116.170056 271.25131 
L 116.170056 269.992552 
L 118.152051 269.992552 
L 118.152051 268.733793 
L 121.265635 268.733793 
L 121.265635 264.957517 
L 124.210942 264.957517 
L 124.210942 262.44 
L 130.811181 262.44 
L 130.811181 258.663724 
L 133.323114 258.663724 
L 133.323114 254.887448 
L 134.77709 254.887448 
L 134.77709 251.111172 
L 138.818654 251.111172 
L 138.818654 249.852414 
L 140.14993 249.852414 
L 140.14993 247.334897 
L 142.248405 247.334897 
L 142.248405 244.817379 
L 146.695245 244.817379 
L 146.695245 243.558621 
L 153.707679 243.558621 
L 153.707679 242.299862 
L 154.703817 242.299862 
L 154.703817 239.782345 
L 156.501649 239.782345 
L 156.501649 237.264828 
L 157.916719 237.264828 
L 157.916719 234.74731 
L 160.343261 234.74731 
L 160.343261 230.971034 
L 160.738476 230.971034 
L 160.738476 228.453517 
L 163.498092 228.453517 
L 163.498092 224.677241 
L 165.664928 224.677241 
L 165.664928 223.418483 
L 166.860176 223.418483 
L 166.860176 219.642207 
L 167.112684 219.642207 
L 167.112684 217.12469 
L 168.169334 217.12469 
L 168.169334 214.607172 
L 171.82171 214.607172 
L 171.82171 212.089655 
L 173.541519 212.089655 
L 173.541519 209.572138 
L 174.203007 209.572138 
L 174.203007 207.054621 
L 179.106105 207.054621 
L 179.106105 204.537103 
L 180.687602 204.537103 
L 180.768686 199.502069 
L 180.889661 199.502069 
L 180.889661 195.725793 
L 187.881197 195.725793 
L 187.881197 193.208276 
L 189.761282 193.208276 
L 189.761282 190.690759 
L 190.991021 190.690759 
L 190.991021 189.432 
L 191.278582 189.432 
L 191.278582 186.914483 
L 193.733547 186.914483 
L 193.733547 184.396966 
L 194.869609 184.396966 
L 194.869609 183.138207 
L 196.475071 183.138207 
L 196.475071 181.879448 
L 198.476949 181.879448 
L 198.476949 178.103172 
L 200.118152 178.103172 
L 200.118152 174.326897 
L 200.537687 174.326897 
L 200.537687 171.809379 
L 202.102075 171.809379 
L 202.102075 170.550621 
L 204.54392 170.550621 
L 204.54392 169.291862 
L 205.206538 169.291862 
L 205.206538 168.033103 
L 205.789636 168.033103 
L 205.789636 164.256828 
L 206.708304 164.256828 
L 206.708304 160.480552 
L 209.320159 160.480552 
L 209.320159 156.704276 
L 210.882192 156.704276 
L 210.882192 155.445517 
L 211.339066 155.445517 
L 211.339066 152.928 
L 215.073883 152.928 
L 215.073883 150.410483 
L 216.486775 150.410483 
L 216.595513 145.375448 
L 217.814099 145.375448 
L 217.814099 141.599172 
L 221.605443 141.599172 
L 221.605443 137.822897 
L 223.397257 137.822897 
L 223.397257 136.564138 
L 227.476517 136.564138 
L 227.476517 135.305379 
L 229.29124 135.305379 
L 229.29124 132.787862 
L 230.526769 132.787862 
L 230.526769 131.529103 
L 232.268452 131.529103 
L 232.305073 123.976552 
L 233.332244 123.976552 
L 233.332244 122.717793 
L 233.685216 122.717793 
L 233.685216 120.200276 
L 234.177342 120.200276 
L 234.177342 116.424 
L 234.690713 116.424 
L 234.690713 112.647724 
L 235.19194 112.647724 
L 235.19194 111.388966 
L 235.749917 111.388966 
L 235.749917 108.871448 
L 236.611838 108.871448 
L 236.611838 107.61269 
L 236.751958 107.61269 
L 236.751958 105.095172 
L 237.525302 105.095172 
L 237.525302 101.318897 
L 237.74576 101.318897 
L 237.74576 97.542621 
L 238.559577 97.542621 
L 238.559577 95.025103 
L 238.873037 95.025103 
L 238.873037 92.507586 
L 239.948173 92.507586 
L 239.948173 91.248828 
L 240.717839 91.248828 
L 240.717839 89.990069 
L 242.170752 89.990069 
L 242.170752 86.213793 
L 242.539863 86.213793 
L 242.539863 84.955034 
L 244.089949 84.955034 
L 244.089949 81.178759 
L 244.869231 81.178759 
L 244.869231 78.661241 
L 247.904788 78.661241 
L 247.904788 77.402483 
L 248.689461 77.402483 
L 248.785827 72.367448 
L 251.997414 72.367448 
L 251.997414 69.849931 
L 252.793133 69.849931 
L 252.793133 67.332414 
L 256.202061 67.332414 
L 256.202061 63.556138 
L 257.494739 63.556138 
L 257.494739 62.297379 
L 260.099901 62.297379 
L 260.099901 61.038621 
L 261.488123 61.038621 
L 261.488123 58.521103 
L 267.996198 58.521103 
L 267.996198 56.003586 
L 269.530975 56.003586 
L 269.530975 52.22731 
L 271.85891 52.22731 
L 271.85891 49.709793 
L 274.442544 49.709793 
L 274.442544 45.933517 
L 276.9145 45.933517 
L 276.9145 42.157241 
L 360.8064 42.157241 
L 360.8064 42.157241 
" style="fill: none; stroke: #f5deb3; stroke-width: 4; stroke-linecap: square"/>
   </g>
   <g id="line2d_2">
    <defs>
     <path id="mdf995c7d67" d="M 0 7.778175 
L 7.778175 0 
L 0 -7.778175 
L -7.778175 0 
z
" style="stroke: #f5deb3; stroke-width: 1.5; stroke-linejoin: miter"/>
    </defs>
    <g>
     <use xlink:href="#mdf995c7d67" x="180.889661" y="195.725793" style="fill: #f5deb3; stroke: #f5deb3; stroke-width: 1.5; stroke-linejoin: miter"/>
     <use xlink:href="#mdf995c7d67" x="237.74576" y="101.318897" style="fill: #f5deb3; stroke: #f5deb3; stroke-width: 1.5; stroke-linejoin: miter"/>
     <use xlink:href="#mdf995c7d67" x="276.9145" y="45.933517" style="fill: #f5deb3; stroke: #f5deb3; stroke-width: 1.5; stroke-linejoin: miter"/>
     <use xlink:href="#mdf995c7d67" x="276.9145" y="42.157241" style="fill: #f5deb3; stroke: #f5deb3; stroke-width: 1.5; stroke-linejoin: miter"/>
     <use xlink:href="#mdf995c7d67" x="360.8064" y="42.157241" style="fill: #f5deb3; stroke: #f5deb3; stroke-width: 1.5; stroke-linejoin: miter"/>
    </g>
   </g>
   <g id="line2d_3">
    <path style="fill: none; stroke: #f5deb3; stroke-width: 4; stroke-linecap: square"/>
    <g/>
   </g>
   <g id="line2d_4">
    <path d="M 360.8064 42.157241 
L 380.514816 12.75264 
" style="fill: none; stroke: #f5deb3; stroke-width: 4; stroke-linecap: square"/>
    <g>
     <use xlink:href="#mdf995c7d67" x="360.8064" y="42.157241" style="fill: #f5deb3; stroke: #f5deb3; stroke-width: 1.5; stroke-linejoin: miter"/>
     <use xlink:href="#mdf995c7d67" x="380.514816" y="12.75264" style="fill: #f5deb3; stroke: #f5deb3; stroke-width: 1.5; stroke-linejoin: miter"/>
    </g>
   </g>
   <g id="matplotlib.axis_1">
    <g id="xtick_1">
     <g id="line2d_5">
      <path d="M 57.6 298.944 
L 57.6 6.912 
" clip-path="url(#p4ad948d5e4)" style="fill: none; stroke: #b0b0b0; stroke-width: 0.8; stroke-linecap: square"/>
     </g>
     <g id="line2d_6">
      <defs>
       <path id="me83bc494b0" d="M 0 0 
L 0 3.5 
" style="stroke: #000000; stroke-width: 0.8"/>
      </defs>
      <g>
       <use xlink:href="#me83bc494b0" x="57.6" y="298.944" style="stroke: #000000; stroke-width: 0.8"/>
      </g>
     </g>
     <g id="text_1">
      <!-- 0 -->
      <g transform="translate(52.191875 318.861344)scale(0.17 -0.17)">
       <defs>
        <path id="DejaVuSans-30" d="M 2034 4250 
Q 1547 4250 1301 3770 
Q 1056 3291 1056 2328 
Q 1056 1369 1301 889 
Q 1547 409 2034 409 
Q 2525 409 2770 889 
Q 3016 1369 3016 2328 
Q 3016 3291 2770 3770 
Q 2525 4250 2034 4250 
z
M 2034 4750 
Q 2819 4750 3233 4129 
Q 3647 3509 3647 2328 
Q 3647 1150 3233 529 
Q 2819 -91 2034 -91 
Q 1250 -91 836 529 
Q 422 1150 422 2328 
Q 422 3509 836 4129 
Q 1250 4750 2034 4750 
z
" transform="scale(0.015625)"/>
       </defs>
       <use xlink:href="#DejaVuSans-30"/>
      </g>
     </g>
    </g>
    <g id="xtick_2">
     <g id="line2d_7">
      <path d="M 144.2304 298.944 
L 144.2304 6.912 
" clip-path="url(#p4ad948d5e4)" style="fill: none; stroke: #b0b0b0; stroke-width: 0.8; stroke-linecap: square"/>
     </g>
     <g id="line2d_8">
      <g>
       <use xlink:href="#me83bc494b0" x="144.2304" y="298.944" style="stroke: #000000; stroke-width: 0.8"/>
      </g>
     </g>
     <g id="text_2">
      <!-- 2 -->
      <g transform="translate(138.822275 318.861344)scale(0.17 -0.17)">
       <defs>
        <path id="DejaVuSans-32" d="M 1228 531 
L 3431 531 
L 3431 0 
L 469 0 
L 469 531 
Q 828 903 1448 1529 
Q 2069 2156 2228 2338 
Q 2531 2678 2651 2914 
Q 2772 3150 2772 3378 
Q 2772 3750 2511 3984 
Q 2250 4219 1831 4219 
Q 1534 4219 1204 4116 
Q 875 4013 500 3803 
L 500 4441 
Q 881 4594 1212 4672 
Q 1544 4750 1819 4750 
Q 2544 4750 2975 4387 
Q 3406 4025 3406 3419 
Q 3406 3131 3298 2873 
Q 3191 2616 2906 2266 
Q 2828 2175 2409 1742 
Q 1991 1309 1228 531 
z
" transform="scale(0.015625)"/>
       </defs>
       <use xlink:href="#DejaVuSans-32"/>
      </g>
     </g>
    </g>
    <g id="xtick_3">
     <g id="line2d_9">
      <path d="M 230.8608 298.944 
L 230.8608 6.912 
" clip-path="url(#p4ad948d5e4)" style="fill: none; stroke: #b0b0b0; stroke-width: 0.8; stroke-linecap: square"/>
     </g>
     <g id="line2d_10">
      <g>
       <use xlink:href="#me83bc494b0" x="230.8608" y="298.944" style="stroke: #000000; stroke-width: 0.8"/>
      </g>
     </g>
     <g id="text_3">
      <!-- 4 -->
      <g transform="translate(225.452675 318.861344)scale(0.17 -0.17)">
       <defs>
        <path id="DejaVuSans-34" d="M 2419 4116 
L 825 1625 
L 2419 1625 
L 2419 4116 
z
M 2253 4666 
L 3047 4666 
L 3047 1625 
L 3713 1625 
L 3713 1100 
L 3047 1100 
L 3047 0 
L 2419 0 
L 2419 1100 
L 313 1100 
L 313 1709 
L 2253 4666 
z
" transform="scale(0.015625)"/>
       </defs>
       <use xlink:href="#DejaVuSans-34"/>
      </g>
     </g>
    </g>
    <g id="xtick_4">
     <g id="line2d_11">
      <path d="M 317.4912 298.944 
L 317.4912 6.912 
" clip-path="url(#p4ad948d5e4)" style="fill: none; stroke: #b0b0b0; stroke-width: 0.8; stroke-linecap: square"/>
     </g>
     <g id="line2d_12">
      <g>
       <use xlink:href="#me83bc494b0" x="317.4912" y="298.944" style="stroke: #000000; stroke-width: 0.8"/>
      </g>
     </g>
     <g id="text_4">
      <!-- 6 -->
      <g transform="translate(312.083075 318.861344)scale(0.17 -0.17)">
       <defs>
        <path id="DejaVuSans-36" d="M 2113 2584 
Q 1688 2584 1439 2293 
Q 1191 2003 1191 1497 
Q 1191 994 1439 701 
Q 1688 409 2113 409 
Q 2538 409 2786 701 
Q 3034 994 3034 1497 
Q 3034 2003 2786 2293 
Q 2538 2584 2113 2584 
z
M 3366 4563 
L 3366 3988 
Q 3128 4100 2886 4159 
Q 2644 4219 2406 4219 
Q 1781 4219 1451 3797 
Q 1122 3375 1075 2522 
Q 1259 2794 1537 2939 
Q 1816 3084 2150 3084 
Q 2853 3084 3261 2657 
Q 3669 2231 3669 1497 
Q 3669 778 3244 343 
Q 2819 -91 2113 -91 
Q 1303 -91 875 529 
Q 447 1150 447 2328 
Q 447 3434 972 4092 
Q 1497 4750 2381 4750 
Q 2619 4750 2861 4703 
Q 3103 4656 3366 4563 
z
" transform="scale(0.015625)"/>
       </defs>
       <use xlink:href="#DejaVuSans-36"/>
      </g>
     </g>
    </g>
    <g id="xtick_5">
     <g id="line2d_13">
      <path d="M 100.9152 298.944 
L 100.9152 6.912 
" clip-path="url(#p4ad948d5e4)" style="fill: none; stroke: #b0b0b0; stroke-width: 0.8; stroke-linecap: square"/>
     </g>
     <g id="line2d_14">
      <defs>
       <path id="m509420173e" d="M 0 0 
L 0 2 
" style="stroke: #000000; stroke-width: 0.6"/>
      </defs>
      <g>
       <use xlink:href="#m509420173e" x="100.9152" y="298.944" style="stroke: #000000; stroke-width: 0.6"/>
      </g>
     </g>
    </g>
    <g id="xtick_6">
     <g id="line2d_15">
      <path d="M 187.5456 298.944 
L 187.5456 6.912 
" clip-path="url(#p4ad948d5e4)" style="fill: none; stroke: #b0b0b0; stroke-width: 0.8; stroke-linecap: square"/>
     </g>
     <g id="line2d_16">
      <g>
       <use xlink:href="#m509420173e" x="187.5456" y="298.944" style="stroke: #000000; stroke-width: 0.6"/>
      </g>
     </g>
    </g>
    <g id="xtick_7">
     <g id="line2d_17">
      <path d="M 274.176 298.944 
L 274.176 6.912 
" clip-path="url(#p4ad948d5e4)" style="fill: none; stroke: #b0b0b0; stroke-width: 0.8; stroke-linecap: square"/>
     </g>
     <g id="line2d_18">
      <g>
       <use xlink:href="#m509420173e" x="274.176" y="298.944" style="stroke: #000000; stroke-width: 0.6"/>
      </g>
     </g>
    </g>
    <g id="xtick_8">
     <g id="line2d_19">
      <path d="M 360.8064 298.944 
L 360.8064 6.912 
" clip-path="url(#p4ad948d5e4)" style="fill: none; stroke: #b0b0b0; stroke-width: 0.8; stroke-linecap: square"/>
     </g>
     <g id="line2d_20">
      <g>
       <use xlink:href="#m509420173e" x="360.8064" y="298.944" style="stroke: #000000; stroke-width: 0.6"/>
      </g>
     </g>
    </g>
    <g id="text_5">
     <!-- log10(# f-evals / dimension) -->
     <g transform="translate(88.823278 339.314156)scale(0.17 -0.17)">
      <defs>
       <path id="DejaVuSans-6c" d="M 603 4863 
L 1178 4863 
L 1178 0 
L 603 0 
L 603 4863 
z
" transform="scale(0.015625)"/>
       <path id="DejaVuSans-6f" d="M 1959 3097 
Q 1497 3097 1228 2736 
Q 959 2375 959 1747 
Q 959 1119 1226 758 
Q 1494 397 1959 397 
Q 2419 397 2687 759 
Q 2956 1122 2956 1747 
Q 2956 2369 2687 2733 
Q 2419 3097 1959 3097 
z
M 1959 3584 
Q 2709 3584 3137 3096 
Q 3566 2609 3566 1747 
Q 3566 888 3137 398 
Q 2709 -91 1959 -91 
Q 1206 -91 779 398 
Q 353 888 353 1747 
Q 353 2609 779 3096 
Q 1206 3584 1959 3584 
z
" transform="scale(0.015625)"/>
       <path id="DejaVuSans-67" d="M 2906 1791 
Q 2906 2416 2648 2759 
Q 2391 3103 1925 3103 
Q 1463 3103 1205 2759 
Q 947 2416 947 1791 
Q 947 1169 1205 825 
Q 1463 481 1925 481 
Q 2391 481 2648 825 
Q 2906 1169 2906 1791 
z
M 3481 434 
Q 3481 -459 3084 -895 
Q 2688 -1331 1869 -1331 
Q 1566 -1331 1297 -1286 
Q 1028 -1241 775 -1147 
L 775 -588 
Q 1028 -725 1275 -790 
Q 1522 -856 1778 -856 
Q 2344 -856 2625 -561 
Q 2906 -266 2906 331 
L 2906 616 
Q 2728 306 2450 153 
Q 2172 0 1784 0 
Q 1141 0 747 490 
Q 353 981 353 1791 
Q 353 2603 747 3093 
Q 1141 3584 1784 3584 
Q 2172 3584 2450 3431 
Q 2728 3278 2906 2969 
L 2906 3500 
L 3481 3500 
L 3481 434 
z
" transform="scale(0.015625)"/>
       <path id="DejaVuSans-31" d="M 794 531 
L 1825 531 
L 1825 4091 
L 703 3866 
L 703 4441 
L 1819 4666 
L 2450 4666 
L 2450 531 
L 3481 531 
L 3481 0 
L 794 0 
L 794 531 
z
" transform="scale(0.015625)"/>
       <path id="DejaVuSans-28" d="M 1984 4856 
Q 1566 4138 1362 3434 
Q 1159 2731 1159 2009 
Q 1159 1288 1364 580 
Q 1569 -128 1984 -844 
L 1484 -844 
Q 1016 -109 783 600 
Q 550 1309 550 2009 
Q 550 2706 781 3412 
Q 1013 4119 1484 4856 
L 1984 4856 
z
" transform="scale(0.015625)"/>
       <path id="DejaVuSans-23" d="M 3272 2816 
L 2363 2816 
L 2100 1772 
L 3016 1772 
L 3272 2816 
z
M 2803 4594 
L 2478 3297 
L 3391 3297 
L 3719 4594 
L 4219 4594 
L 3897 3297 
L 4872 3297 
L 4872 2816 
L 3775 2816 
L 3519 1772 
L 4513 1772 
L 4513 1294 
L 3397 1294 
L 3072 0 
L 2572 0 
L 2894 1294 
L 1978 1294 
L 1656 0 
L 1153 0 
L 1478 1294 
L 494 1294 
L 494 1772 
L 1594 1772 
L 1856 2816 
L 850 2816 
L 850 3297 
L 1978 3297 
L 2297 4594 
L 2803 4594 
z
" transform="scale(0.015625)"/>
       <path id="DejaVuSans-20" transform="scale(0.015625)"/>
       <path id="DejaVuSans-66" d="M 2375 4863 
L 2375 4384 
L 1825 4384 
Q 1516 4384 1395 4259 
Q 1275 4134 1275 3809 
L 1275 3500 
L 2222 3500 
L 2222 3053 
L 1275 3053 
L 1275 0 
L 697 0 
L 697 3053 
L 147 3053 
L 147 3500 
L 697 3500 
L 697 3744 
Q 697 4328 969 4595 
Q 1241 4863 1831 4863 
L 2375 4863 
z
" transform="scale(0.015625)"/>
       <path id="DejaVuSans-2d" d="M 313 2009 
L 1997 2009 
L 1997 1497 
L 313 1497 
L 313 2009 
z
" transform="scale(0.015625)"/>
       <path id="DejaVuSans-65" d="M 3597 1894 
L 3597 1613 
L 953 1613 
Q 991 1019 1311 708 
Q 1631 397 2203 397 
Q 2534 397 2845 478 
Q 3156 559 3463 722 
L 3463 178 
Q 3153 47 2828 -22 
Q 2503 -91 2169 -91 
Q 1331 -91 842 396 
Q 353 884 353 1716 
Q 353 2575 817 3079 
Q 1281 3584 2069 3584 
Q 2775 3584 3186 3129 
Q 3597 2675 3597 1894 
z
M 3022 2063 
Q 3016 2534 2758 2815 
Q 2500 3097 2075 3097 
Q 1594 3097 1305 2825 
Q 1016 2553 972 2059 
L 3022 2063 
z
" transform="scale(0.015625)"/>
       <path id="DejaVuSans-76" d="M 191 3500 
L 800 3500 
L 1894 563 
L 2988 3500 
L 3597 3500 
L 2284 0 
L 1503 0 
L 191 3500 
z
" transform="scale(0.015625)"/>
       <path id="DejaVuSans-61" d="M 2194 1759 
Q 1497 1759 1228 1600 
Q 959 1441 959 1056 
Q 959 750 1161 570 
Q 1363 391 1709 391 
Q 2188 391 2477 730 
Q 2766 1069 2766 1631 
L 2766 1759 
L 2194 1759 
z
M 3341 1997 
L 3341 0 
L 2766 0 
L 2766 531 
Q 2569 213 2275 61 
Q 1981 -91 1556 -91 
Q 1019 -91 701 211 
Q 384 513 384 1019 
Q 384 1609 779 1909 
Q 1175 2209 1959 2209 
L 2766 2209 
L 2766 2266 
Q 2766 2663 2505 2880 
Q 2244 3097 1772 3097 
Q 1472 3097 1187 3025 
Q 903 2953 641 2809 
L 641 3341 
Q 956 3463 1253 3523 
Q 1550 3584 1831 3584 
Q 2591 3584 2966 3190 
Q 3341 2797 3341 1997 
z
" transform="scale(0.015625)"/>
       <path id="DejaVuSans-73" d="M 2834 3397 
L 2834 2853 
Q 2591 2978 2328 3040 
Q 2066 3103 1784 3103 
Q 1356 3103 1142 2972 
Q 928 2841 928 2578 
Q 928 2378 1081 2264 
Q 1234 2150 1697 2047 
L 1894 2003 
Q 2506 1872 2764 1633 
Q 3022 1394 3022 966 
Q 3022 478 2636 193 
Q 2250 -91 1575 -91 
Q 1294 -91 989 -36 
Q 684 19 347 128 
L 347 722 
Q 666 556 975 473 
Q 1284 391 1588 391 
Q 1994 391 2212 530 
Q 2431 669 2431 922 
Q 2431 1156 2273 1281 
Q 2116 1406 1581 1522 
L 1381 1569 
Q 847 1681 609 1914 
Q 372 2147 372 2553 
Q 372 3047 722 3315 
Q 1072 3584 1716 3584 
Q 2034 3584 2315 3537 
Q 2597 3491 2834 3397 
z
" transform="scale(0.015625)"/>
       <path id="DejaVuSans-2f" d="M 1625 4666 
L 2156 4666 
L 531 -594 
L 0 -594 
L 1625 4666 
z
" transform="scale(0.015625)"/>
       <path id="DejaVuSans-64" d="M 2906 2969 
L 2906 4863 
L 3481 4863 
L 3481 0 
L 2906 0 
L 2906 525 
Q 2725 213 2448 61 
Q 2172 -91 1784 -91 
Q 1150 -91 751 415 
Q 353 922 353 1747 
Q 353 2572 751 3078 
Q 1150 3584 1784 3584 
Q 2172 3584 2448 3432 
Q 2725 3281 2906 2969 
z
M 947 1747 
Q 947 1113 1208 752 
Q 1469 391 1925 391 
Q 2381 391 2643 752 
Q 2906 1113 2906 1747 
Q 2906 2381 2643 2742 
Q 2381 3103 1925 3103 
Q 1469 3103 1208 2742 
Q 947 2381 947 1747 
z
" transform="scale(0.015625)"/>
       <path id="DejaVuSans-69" d="M 603 3500 
L 1178 3500 
L 1178 0 
L 603 0 
L 603 3500 
z
M 603 4863 
L 1178 4863 
L 1178 4134 
L 603 4134 
L 603 4863 
z
" transform="scale(0.015625)"/>
       <path id="DejaVuSans-6d" d="M 3328 2828 
Q 3544 3216 3844 3400 
Q 4144 3584 4550 3584 
Q 5097 3584 5394 3201 
Q 5691 2819 5691 2113 
L 5691 0 
L 5113 0 
L 5113 2094 
Q 5113 2597 4934 2840 
Q 4756 3084 4391 3084 
Q 3944 3084 3684 2787 
Q 3425 2491 3425 1978 
L 3425 0 
L 2847 0 
L 2847 2094 
Q 2847 2600 2669 2842 
Q 2491 3084 2119 3084 
Q 1678 3084 1418 2786 
Q 1159 2488 1159 1978 
L 1159 0 
L 581 0 
L 581 3500 
L 1159 3500 
L 1159 2956 
Q 1356 3278 1631 3431 
Q 1906 3584 2284 3584 
Q 2666 3584 2933 3390 
Q 3200 3197 3328 2828 
z
" transform="scale(0.015625)"/>
       <path id="DejaVuSans-6e" d="M 3513 2113 
L 3513 0 
L 2938 0 
L 2938 2094 
Q 2938 2591 2744 2837 
Q 2550 3084 2163 3084 
Q 1697 3084 1428 2787 
Q 1159 2491 1159 1978 
L 1159 0 
L 581 0 
L 581 3500 
L 1159 3500 
L 1159 2956 
Q 1366 3272 1645 3428 
Q 1925 3584 2291 3584 
Q 2894 3584 3203 3211 
Q 3513 2838 3513 2113 
z
" transform="scale(0.015625)"/>
       <path id="DejaVuSans-29" d="M 513 4856 
L 1013 4856 
Q 1481 4119 1714 3412 
Q 1947 2706 1947 2009 
Q 1947 1309 1714 600 
Q 1481 -109 1013 -844 
L 513 -844 
Q 928 -128 1133 580 
Q 1338 1288 1338 2009 
Q 1338 2731 1133 3434 
Q 928 4138 513 4856 
z
" transform="scale(0.015625)"/>
      </defs>
      <use xlink:href="#DejaVuSans-6c"/>
      <use xlink:href="#DejaVuSans-6f" x="27.783203"/>
      <use xlink:href="#DejaVuSans-67" x="88.964844"/>
      <use xlink:href="#DejaVuSans-31" x="152.441406"/>
      <use xlink:href="#DejaVuSans-30" x="216.064453"/>
      <use xlink:href="#DejaVuSans-28" x="279.6875"/>
      <use xlink:href="#DejaVuSans-23" x="318.701172"/>
      <use xlink:href="#DejaVuSans-20" x="402.490234"/>
      <use xlink:href="#DejaVuSans-66" x="434.277344"/>
      <use xlink:href="#DejaVuSans-2d" x="463.982422"/>
      <use xlink:href="#DejaVuSans-65" x="500.066406"/>
      <use xlink:href="#DejaVuSans-76" x="561.589844"/>
      <use xlink:href="#DejaVuSans-61" x="620.769531"/>
      <use xlink:href="#DejaVuSans-6c" x="682.048828"/>
      <use xlink:href="#DejaVuSans-73" x="709.832031"/>
      <use xlink:href="#DejaVuSans-20" x="761.931641"/>
      <use xlink:href="#DejaVuSans-2f" x="793.71875"/>
      <use xlink:href="#DejaVuSans-20" x="827.410156"/>
      <use xlink:href="#DejaVuSans-64" x="859.197266"/>
      <use xlink:href="#DejaVuSans-69" x="922.673828"/>
      <use xlink:href="#DejaVuSans-6d" x="950.457031"/>
      <use xlink:href="#DejaVuSans-65" x="1047.869141"/>
      <use xlink:href="#DejaVuSans-6e" x="1109.392578"/>
      <use xlink:href="#DejaVuSans-73" x="1172.771484"/>
      <use xlink:href="#DejaVuSans-69" x="1224.871094"/>
      <use xlink:href="#DejaVuSans-6f" x="1252.654297"/>
      <use xlink:href="#DejaVuSans-6e" x="1313.835938"/>
      <use xlink:href="#DejaVuSans-29" x="1377.214844"/>
     </g>
    </g>
   </g>
   <g id="matplotlib.axis_2">
    <g id="ytick_1">
     <g id="line2d_21">
      <path d="M 57.6 298.944 
L 360.8064 298.944 
" clip-path="url(#p4ad948d5e4)" style="fill: none; stroke: #b0b0b0; stroke-width: 0.8; stroke-linecap: square"/>
     </g>
     <g id="line2d_22">
      <defs>
       <path id="ma81dfeb1f8" d="M 0 0 
L -3.5 0 
" style="stroke: #000000; stroke-width: 0.8"/>
      </defs>
      <g>
       <use xlink:href="#ma81dfeb1f8" x="57.6" y="298.944" style="stroke: #000000; stroke-width: 0.8"/>
      </g>
     </g>
     <g id="text_6">
      <!-- 0.0 -->
      <g transform="translate(25.155 305.02275)scale(0.16 -0.16)">
       <defs>
        <path id="DejaVuSans-2e" d="M 684 794 
L 1344 794 
L 1344 0 
L 684 0 
L 684 794 
z
" transform="scale(0.015625)"/>
       </defs>
       <use xlink:href="#DejaVuSans-30"/>
       <use xlink:href="#DejaVuSans-2e" x="63.623047"/>
       <use xlink:href="#DejaVuSans-30" x="95.410156"/>
      </g>
     </g>
    </g>
    <g id="ytick_2">
     <g id="line2d_23">
      <path d="M 57.6 240.5376 
L 360.8064 240.5376 
" clip-path="url(#p4ad948d5e4)" style="fill: none; stroke: #b0b0b0; stroke-width: 0.8; stroke-linecap: square"/>
     </g>
     <g id="line2d_24">
      <g>
       <use xlink:href="#ma81dfeb1f8" x="57.6" y="240.5376" style="stroke: #000000; stroke-width: 0.8"/>
      </g>
     </g>
     <g id="text_7">
      <!-- 0.2 -->
      <g transform="translate(25.155 246.61635)scale(0.16 -0.16)">
       <use xlink:href="#DejaVuSans-30"/>
       <use xlink:href="#DejaVuSans-2e" x="63.623047"/>
       <use xlink:href="#DejaVuSans-32" x="95.410156"/>
      </g>
     </g>
    </g>
    <g id="ytick_3">
     <g id="line2d_25">
      <path d="M 57.6 182.1312 
L 360.8064 182.1312 
" clip-path="url(#p4ad948d5e4)" style="fill: none; stroke: #b0b0b0; stroke-width: 0.8; stroke-linecap: square"/>
     </g>
     <g id="line2d_26">
      <g>
       <use xlink:href="#ma81dfeb1f8" x="57.6" y="182.1312" style="stroke: #000000; stroke-width: 0.8"/>
      </g>
     </g>
     <g id="text_8">
      <!-- 0.4 -->
      <g transform="translate(25.155 188.20995)scale(0.16 -0.16)">
       <use xlink:href="#DejaVuSans-30"/>
       <use xlink:href="#DejaVuSans-2e" x="63.623047"/>
       <use xlink:href="#DejaVuSans-34" x="95.410156"/>
      </g>
     </g>
    </g>
    <g id="ytick_4">
     <g id="line2d_27">
      <path d="M 57.6 123.7248 
L 360.8064 123.7248 
" clip-path="url(#p4ad948d5e4)" style="fill: none; stroke: #b0b0b0; stroke-width: 0.8; stroke-linecap: square"/>
     </g>
     <g id="line2d_28">
      <g>
       <use xlink:href="#ma81dfeb1f8" x="57.6" y="123.7248" style="stroke: #000000; stroke-width: 0.8"/>
      </g>
     </g>
     <g id="text_9">
      <!-- 0.6 -->
      <g transform="translate(25.155 129.80355)scale(0.16 -0.16)">
       <use xlink:href="#DejaVuSans-30"/>
       <use xlink:href="#DejaVuSans-2e" x="63.623047"/>
       <use xlink:href="#DejaVuSans-36" x="95.410156"/>
      </g>
     </g>
    </g>
    <g id="ytick_5">
     <g id="line2d_29">
      <path d="M 57.6 65.3184 
L 360.8064 65.3184 
" clip-path="url(#p4ad948d5e4)" style="fill: none; stroke: #b0b0b0; stroke-width: 0.8; stroke-linecap: square"/>
     </g>
     <g id="line2d_30">
      <g>
       <use xlink:href="#ma81dfeb1f8" x="57.6" y="65.3184" style="stroke: #000000; stroke-width: 0.8"/>
      </g>
     </g>
     <g id="text_10">
      <!-- 0.8 -->
      <g transform="translate(25.155 71.39715)scale(0.16 -0.16)">
       <defs>
        <path id="DejaVuSans-38" d="M 2034 2216 
Q 1584 2216 1326 1975 
Q 1069 1734 1069 1313 
Q 1069 891 1326 650 
Q 1584 409 2034 409 
Q 2484 409 2743 651 
Q 3003 894 3003 1313 
Q 3003 1734 2745 1975 
Q 2488 2216 2034 2216 
z
M 1403 2484 
Q 997 2584 770 2862 
Q 544 3141 544 3541 
Q 544 4100 942 4425 
Q 1341 4750 2034 4750 
Q 2731 4750 3128 4425 
Q 3525 4100 3525 3541 
Q 3525 3141 3298 2862 
Q 3072 2584 2669 2484 
Q 3125 2378 3379 2068 
Q 3634 1759 3634 1313 
Q 3634 634 3220 271 
Q 2806 -91 2034 -91 
Q 1263 -91 848 271 
Q 434 634 434 1313 
Q 434 1759 690 2068 
Q 947 2378 1403 2484 
z
M 1172 3481 
Q 1172 3119 1398 2916 
Q 1625 2713 2034 2713 
Q 2441 2713 2670 2916 
Q 2900 3119 2900 3481 
Q 2900 3844 2670 4047 
Q 2441 4250 2034 4250 
Q 1625 4250 1398 4047 
Q 1172 3844 1172 3481 
z
" transform="scale(0.015625)"/>
       </defs>
       <use xlink:href="#DejaVuSans-30"/>
       <use xlink:href="#DejaVuSans-2e" x="63.623047"/>
       <use xlink:href="#DejaVuSans-38" x="95.410156"/>
      </g>
     </g>
    </g>
    <g id="ytick_6">
     <g id="line2d_31">
      <path d="M 57.6 6.912 
L 360.8064 6.912 
" clip-path="url(#p4ad948d5e4)" style="fill: none; stroke: #b0b0b0; stroke-width: 0.8; stroke-linecap: square"/>
     </g>
     <g id="line2d_32">
      <g>
       <use xlink:href="#ma81dfeb1f8" x="57.6" y="6.912" style="stroke: #000000; stroke-width: 0.8"/>
      </g>
     </g>
     <g id="text_11">
      <!-- 1.0 -->
      <g transform="translate(25.155 12.99075)scale(0.16 -0.16)">
       <use xlink:href="#DejaVuSans-31"/>
       <use xlink:href="#DejaVuSans-2e" x="63.623047"/>
       <use xlink:href="#DejaVuSans-30" x="95.410156"/>
      </g>
     </g>
    </g>
    <g id="text_12">
     <!-- Fraction of function,target pairs -->
     <g transform="translate(17.619531 287.313)rotate(-90)scale(0.17 -0.17)">
      <defs>
       <path id="DejaVuSans-46" d="M 628 4666 
L 3309 4666 
L 3309 4134 
L 1259 4134 
L 1259 2759 
L 3109 2759 
L 3109 2228 
L 1259 2228 
L 1259 0 
L 628 0 
L 628 4666 
z
" transform="scale(0.015625)"/>
       <path id="DejaVuSans-72" d="M 2631 2963 
Q 2534 3019 2420 3045 
Q 2306 3072 2169 3072 
Q 1681 3072 1420 2755 
Q 1159 2438 1159 1844 
L 1159 0 
L 581 0 
L 581 3500 
L 1159 3500 
L 1159 2956 
Q 1341 3275 1631 3429 
Q 1922 3584 2338 3584 
Q 2397 3584 2469 3576 
Q 2541 3569 2628 3553 
L 2631 2963 
z
" transform="scale(0.015625)"/>
       <path id="DejaVuSans-63" d="M 3122 3366 
L 3122 2828 
Q 2878 2963 2633 3030 
Q 2388 3097 2138 3097 
Q 1578 3097 1268 2742 
Q 959 2388 959 1747 
Q 959 1106 1268 751 
Q 1578 397 2138 397 
Q 2388 397 2633 464 
Q 2878 531 3122 666 
L 3122 134 
Q 2881 22 2623 -34 
Q 2366 -91 2075 -91 
Q 1284 -91 818 406 
Q 353 903 353 1747 
Q 353 2603 823 3093 
Q 1294 3584 2113 3584 
Q 2378 3584 2631 3529 
Q 2884 3475 3122 3366 
z
" transform="scale(0.015625)"/>
       <path id="DejaVuSans-74" d="M 1172 4494 
L 1172 3500 
L 2356 3500 
L 2356 3053 
L 1172 3053 
L 1172 1153 
Q 1172 725 1289 603 
Q 1406 481 1766 481 
L 2356 481 
L 2356 0 
L 1766 0 
Q 1100 0 847 248 
Q 594 497 594 1153 
L 594 3053 
L 172 3053 
L 172 3500 
L 594 3500 
L 594 4494 
L 1172 4494 
z
" transform="scale(0.015625)"/>
       <path id="DejaVuSans-75" d="M 544 1381 
L 544 3500 
L 1119 3500 
L 1119 1403 
Q 1119 906 1312 657 
Q 1506 409 1894 409 
Q 2359 409 2629 706 
Q 2900 1003 2900 1516 
L 2900 3500 
L 3475 3500 
L 3475 0 
L 2900 0 
L 2900 538 
Q 2691 219 2414 64 
Q 2138 -91 1772 -91 
Q 1169 -91 856 284 
Q 544 659 544 1381 
z
M 1991 3584 
L 1991 3584 
z
" transform="scale(0.015625)"/>
       <path id="DejaVuSans-2c" d="M 750 794 
L 1409 794 
L 1409 256 
L 897 -744 
L 494 -744 
L 750 256 
L 750 794 
z
" transform="scale(0.015625)"/>
       <path id="DejaVuSans-70" d="M 1159 525 
L 1159 -1331 
L 581 -1331 
L 581 3500 
L 1159 3500 
L 1159 2969 
Q 1341 3281 1617 3432 
Q 1894 3584 2278 3584 
Q 2916 3584 3314 3078 
Q 3713 2572 3713 1747 
Q 3713 922 3314 415 
Q 2916 -91 2278 -91 
Q 1894 -91 1617 61 
Q 1341 213 1159 525 
z
M 3116 1747 
Q 3116 2381 2855 2742 
Q 2594 3103 2138 3103 
Q 1681 3103 1420 2742 
Q 1159 2381 1159 1747 
Q 1159 1113 1420 752 
Q 1681 391 2138 391 
Q 2594 391 2855 752 
Q 3116 1113 3116 1747 
z
" transform="scale(0.015625)"/>
      </defs>
      <use xlink:href="#DejaVuSans-46"/>
      <use xlink:href="#DejaVuSans-72" x="50.269531"/>
      <use xlink:href="#DejaVuSans-61" x="91.382812"/>
      <use xlink:href="#DejaVuSans-63" x="152.662109"/>
      <use xlink:href="#DejaVuSans-74" x="207.642578"/>
      <use xlink:href="#DejaVuSans-69" x="246.851562"/>
      <use xlink:href="#DejaVuSans-6f" x="274.634766"/>
      <use xlink:href="#DejaVuSans-6e" x="335.816406"/>
      <use xlink:href="#DejaVuSans-20" x="399.195312"/>
      <use xlink:href="#DejaVuSans-6f" x="430.982422"/>
      <use xlink:href="#DejaVuSans-66" x="492.164062"/>
      <use xlink:href="#DejaVuSans-20" x="527.369141"/>
      <use xlink:href="#DejaVuSans-66" x="559.15625"/>
      <use xlink:href="#DejaVuSans-75" x="594.361328"/>
      <use xlink:href="#DejaVuSans-6e" x="657.740234"/>
      <use xlink:href="#DejaVuSans-63" x="721.119141"/>
      <use xlink:href="#DejaVuSans-74" x="776.099609"/>
      <use xlink:href="#DejaVuSans-69" x="815.308594"/>
      <use xlink:href="#DejaVuSans-6f" x="843.091797"/>
      <use xlink:href="#DejaVuSans-6e" x="904.273438"/>
      <use xlink:href="#DejaVuSans-2c" x="967.652344"/>
      <use xlink:href="#DejaVuSans-74" x="999.439453"/>
      <use xlink:href="#DejaVuSans-61" x="1038.648438"/>
      <use xlink:href="#DejaVuSans-72" x="1099.927734"/>
      <use xlink:href="#DejaVuSans-67" x="1139.291016"/>
      <use xlink:href="#DejaVuSans-65" x="1202.767578"/>
      <use xlink:href="#DejaVuSans-74" x="1264.291016"/>
      <use xlink:href="#DejaVuSans-20" x="1303.5"/>
      <use xlink:href="#DejaVuSans-70" x="1335.287109"/>
      <use xlink:href="#DejaVuSans-61" x="1398.763672"/>
      <use xlink:href="#DejaVuSans-69" x="1460.042969"/>
      <use xlink:href="#DejaVuSans-72" x="1487.826172"/>
      <use xlink:href="#DejaVuSans-73" x="1528.939453"/>
     </g>
    </g>
   </g>
   <g id="line2d_33">
    <defs>
     <path id="m153b2525b4" d="M 0 1.5 
C 0.397805 1.5 0.77937 1.341951 1.06066 1.06066 
C 1.341951 0.77937 1.5 0.397805 1.5 0 
C 1.5 -0.397805 1.341951 -0.77937 1.06066 -1.06066 
C 0.77937 -1.341951 0.397805 -1.5 0 -1.5 
C -0.397805 -1.5 -0.77937 -1.341951 -1.06066 -1.06066 
C -1.341951 -0.77937 -1.5 -0.397805 -1.5 0 
C -1.5 0.397805 -1.341951 0.77937 -1.06066 1.06066 
C -0.77937 1.341951 -0.397805 1.5 0 1.5 
z
" style="stroke: #f5deb3"/>
    </defs>
    <g>
     <use xlink:href="#m153b2525b4" x="276.9145" y="42.157241" style="fill: #f5deb3; stroke: #f5deb3"/>
     <use xlink:href="#m153b2525b4" x="276.9145" y="42.157241" style="fill: #f5deb3; stroke: #f5deb3"/>
    </g>
   </g>
   <g id="line2d_34">
    <defs>
     <path id="mc89f766326" d="M 0 1.5 
C 0.397805 1.5 0.77937 1.341951 1.06066 1.06066 
C 1.341951 0.77937 1.5 0.397805 1.5 0 
C 1.5 -0.397805 1.341951 -0.77937 1.06066 -1.06066 
C 0.77937 -1.341951 0.397805 -1.5 0 -1.5 
C -0.397805 -1.5 -0.77937 -1.341951 -1.06066 -1.06066 
C -1.341951 -0.77937 -1.5 -0.397805 -1.5 0 
C -1.5 0.397805 -1.341951 0.77937 -1.06066 1.06066 
C -0.77937 1.341951 -0.397805 1.5 0 1.5 
z
" style="stroke: #000080"/>
    </defs>
    <g>
     <use xlink:href="#mc89f766326" x="83.678349" y="277.545103" style="fill: #000080; stroke: #000080"/>
     <use xlink:href="#mc89f766326" x="83.678349" y="277.545103" style="fill: #000080; stroke: #000080"/>
    </g>
   </g>
   <g id="line2d_35">
    <path d="M 44.560826 298.944 
L 44.560826 288.748055 
L 57.6 288.748055 
L 57.6 285.978786 
L 65.227428 285.978786 
L 65.227428 283.209517 
L 70.639174 283.209517 
L 70.639174 282.20251 
L 74.836851 282.20251 
L 74.836851 281.447255 
L 78.266603 281.447255 
L 78.266603 279.559117 
L 81.166416 279.559117 
L 81.166416 279.307366 
L 83.678349 279.307366 
L 83.678349 277.545103 
L 360.8064 277.545103 
" style="fill: none; stroke: #000080; stroke-width: 1.5; stroke-linecap: square"/>
   </g>
   <g id="line2d_36">
    <defs>
     <path id="m00b9eec334" d="M 0 6 
C 1.591219 6 3.117479 5.367802 4.242641 4.242641 
C 5.367802 3.117479 6 1.591219 6 0 
C 6 -1.591219 5.367802 -3.117479 4.242641 -4.242641 
C 3.117479 -5.367802 1.591219 -6 0 -6 
C -1.591219 -6 -3.117479 -5.367802 -4.242641 -4.242641 
C -5.367802 -3.117479 -6 -1.591219 -6 0 
C -6 1.591219 -5.367802 3.117479 -4.242641 4.242641 
C -3.117479 5.367802 -1.591219 6 0 6 
z
" style="stroke: #000080; stroke-width: 1.5"/>
    </defs>
    <g>
     <use xlink:href="#m00b9eec334" x="83.678349" y="279.307366" style="fill-opacity: 0; stroke: #000080; stroke-width: 1.5"/>
     <use xlink:href="#m00b9eec334" x="83.678349" y="279.307366" style="fill-opacity: 0; stroke: #000080; stroke-width: 1.5"/>
     <use xlink:href="#m00b9eec334" x="83.678349" y="277.545103" style="fill-opacity: 0; stroke: #000080; stroke-width: 1.5"/>
     <use xlink:href="#m00b9eec334" x="83.678349" y="277.545103" style="fill-opacity: 0; stroke: #000080; stroke-width: 1.5"/>
     <use xlink:href="#m00b9eec334" x="83.678349" y="277.545103" style="fill-opacity: 0; stroke: #000080; stroke-width: 1.5"/>
     <use xlink:href="#m00b9eec334" x="360.8064" y="277.545103" style="fill-opacity: 0; stroke: #000080; stroke-width: 1.5"/>
    </g>
   </g>
   <g id="line2d_37">
    <path style="fill: none; stroke: #000080; stroke-width: 1.5; stroke-linecap: square"/>
    <g/>
   </g>
   <g id="line2d_38">
    <path d="M 83.678349 277.545103 
" clip-path="url(#p4ad948d5e4)" style="fill: none; stroke: #000080; stroke-width: 1.5; stroke-linecap: square"/>
    <defs>
     <path id="m0b85ead08a" d="M -12 12 
L 12 -12 
M -12 -12 
L 12 12 
" style="stroke: #000080"/>
    </defs>
    <g clip-path="url(#p4ad948d5e4)">
     <use xlink:href="#m0b85ead08a" x="83.678349" y="277.545103" style="fill: #000080; stroke: #000080"/>
    </g>
   </g>
   <g id="line2d_39">
    <defs>
     <path id="m5bc72bad13" d="M 0 1.5 
C 0.397805 1.5 0.77937 1.341951 1.06066 1.06066 
C 1.341951 0.77937 1.5 0.397805 1.5 0 
C 1.5 -0.397805 1.341951 -0.77937 1.06066 -1.06066 
C 0.77937 -1.341951 0.397805 -1.5 0 -1.5 
C -0.397805 -1.5 -0.77937 -1.341951 -1.06066 -1.06066 
C -1.341951 -0.77937 -1.5 -0.397805 -1.5 0 
C -1.5 0.397805 -1.341951 0.77937 -1.06066 1.06066 
C -0.77937 1.341951 -0.397805 1.5 0 1.5 
z
" style="stroke: #ff00ff"/>
    </defs>
    <g>
     <use xlink:href="#m5bc72bad13" x="274.039309" y="95.906234" style="fill: #ff00ff; stroke: #ff00ff"/>
     <use xlink:href="#m5bc72bad13" x="274.039309" y="95.906234" style="fill: #ff00ff; stroke: #ff00ff"/>
    </g>
   </g>
   <g id="line2d_40">
    <path d="M 44.560826 298.944 
L 44.560826 288.748055 
L 57.6 288.748055 
L 57.6 286.230538 
L 65.227428 286.230538 
L 65.227428 284.720028 
L 70.639174 284.720028 
L 70.639174 284.594152 
L 74.836851 284.594152 
L 74.836851 283.335393 
L 78.266603 283.335393 
L 78.266603 281.573131 
L 81.166416 281.573131 
L 81.166416 280.817876 
L 83.678349 280.817876 
L 83.678349 280.440248 
L 85.894031 280.440248 
L 85.894031 280.188497 
L 87.876026 280.188497 
L 87.876026 278.803862 
L 89.668958 278.803862 
L 89.668958 278.55211 
L 91.305777 278.55211 
L 91.305777 278.300359 
L 92.811505 278.300359 
L 92.811505 277.922731 
L 94.205591 277.922731 
L 94.205591 277.0416 
L 95.503454 277.0416 
L 95.503454 276.915724 
L 96.717523 276.915724 
L 96.717523 275.908717 
L 98.933205 275.908717 
L 98.933205 275.53109 
L 99.950294 275.53109 
L 99.950294 275.279338 
L 100.9152 275.279338 
L 100.9152 274.272331 
L 101.833019 274.272331 
L 101.833019 273.894703 
L 102.708132 273.894703 
L 102.708132 273.642952 
L 103.544339 273.642952 
L 103.544339 273.265324 
L 104.344952 273.265324 
L 104.344952 272.887697 
L 105.850679 272.887697 
L 105.850679 272.510069 
L 107.244765 272.510069 
L 107.244765 272.132441 
L 108.542628 272.132441 
L 108.542628 271.503062 
L 109.756698 271.503062 
L 109.756698 271.377186 
L 110.335561 271.377186 
L 110.335561 271.25131 
L 110.897141 271.25131 
L 110.897141 270.118428 
L 111.442442 270.118428 
L 111.442442 269.614924 
L 111.97238 269.614924 
L 111.97238 269.489048 
L 112.989468 269.489048 
L 112.989468 268.985545 
L 113.478107 268.985545 
L 113.478107 268.733793 
L 113.954374 268.733793 
L 113.954374 268.356166 
L 114.418881 268.356166 
L 114.418881 267.475034 
L 114.872193 267.475034 
L 114.872193 266.468028 
L 115.314838 266.468028 
L 115.314838 265.712772 
L 116.583514 265.712772 
L 116.583514 264.57989 
L 116.988079 264.57989 
L 116.988079 264.202262 
L 117.384126 264.202262 
L 117.384126 264.076386 
L 117.772007 264.076386 
L 117.772007 263.824634 
L 118.152051 263.824634 
L 118.152051 263.572883 
L 118.889854 263.572883 
L 118.889854 263.447007 
L 121.265635 263.447007 
L 121.265635 263.069379 
L 121.581803 263.069379 
L 121.581803 262.943503 
L 121.892744 262.943503 
L 121.892744 262.817628 
L 122.19863 262.817628 
L 122.19863 262.565876 
L 122.499621 262.565876 
L 122.499621 262.188248 
L 122.795872 262.188248 
L 122.795872 262.062372 
L 123.374735 262.062372 
L 123.374735 261.936497 
L 123.657621 261.936497 
L 123.657621 261.810621 
L 123.936316 261.810621 
L 123.936316 261.558869 
L 124.210942 261.558869 
L 124.210942 261.432993 
L 124.481616 261.432993 
L 124.481616 261.181241 
L 124.748451 261.181241 
L 124.748451 261.055366 
L 125.011554 261.055366 
L 125.011554 260.677738 
L 125.271028 260.677738 
L 125.271028 260.551862 
L 125.779479 260.551862 
L 125.779479 260.425986 
L 126.028642 260.425986 
L 126.028642 260.174234 
L 126.756923 260.174234 
L 126.756923 260.048359 
L 126.993549 260.048359 
L 126.993549 259.922483 
L 127.458055 259.922483 
L 127.458055 259.418979 
L 128.354013 259.418979 
L 128.354013 259.167228 
L 128.57149 259.167228 
L 128.57149 258.915476 
L 129.209231 258.915476 
L 129.209231 258.7896 
L 129.417095 258.7896 
L 129.417095 258.537848 
L 129.622688 258.537848 
L 129.622688 258.286097 
L 129.826058 258.286097 
L 129.826058 257.782593 
L 130.618241 257.782593 
L 130.618241 257.530841 
L 130.811181 257.530841 
L 130.811181 257.404966 
L 131.378407 257.404966 
L 131.378407 257.27909 
L 131.563744 257.27909 
L 131.563744 256.901462 
L 131.929028 256.901462 
L 131.929028 256.64971 
L 132.287354 256.64971 
L 132.287354 256.523834 
L 132.812362 256.523834 
L 132.812362 256.272083 
L 133.490329 256.272083 
L 133.490329 256.146207 
L 133.656071 256.146207 
L 133.656071 256.020331 
L 133.983236 256.020331 
L 133.983236 255.894455 
L 134.14471 255.894455 
L 134.14471 255.516828 
L 134.304809 255.516828 
L 134.304809 255.265076 
L 134.77709 255.265076 
L 134.77709 254.761572 
L 134.931919 254.761572 
L 134.931919 254.509821 
L 135.085483 254.509821 
L 135.085483 254.383945 
L 135.237805 254.383945 
L 135.237805 254.132193 
L 135.388902 254.132193 
L 135.388902 253.754566 
L 135.687504 253.754566 
L 135.687504 253.502814 
L 135.835047 253.502814 
L 135.835047 253.125186 
L 135.981441 253.125186 
L 135.981441 252.495807 
L 136.126705 252.495807 
L 136.126705 251.866428 
L 136.413909 251.866428 
L 136.413909 251.740552 
L 136.555884 251.740552 
L 136.555884 251.237048 
L 136.696795 251.237048 
L 136.696795 251.111172 
L 136.836659 251.111172 
L 136.836659 250.985297 
L 137.654681 250.985297 
L 137.654681 250.481793 
L 138.050729 250.481793 
L 138.050729 250.355917 
L 138.180913 250.355917 
L 138.180913 250.230041 
L 138.310202 250.230041 
L 138.310202 250.104166 
L 138.566146 250.104166 
L 138.566146 249.852414 
L 138.692823 249.852414 
L 138.692823 249.726538 
L 138.818654 249.726538 
L 138.818654 249.097159 
L 139.067817 249.097159 
L 139.067817 248.719531 
L 139.435481 248.719531 
L 139.435481 248.593655 
L 139.556456 248.593655 
L 139.556456 248.467779 
L 139.796097 248.467779 
L 139.796097 248.090152 
L 139.914782 248.090152 
L 139.914782 247.586648 
L 140.14993 247.586648 
L 140.14993 247.334897 
L 140.26641 247.334897 
L 140.26641 247.209021 
L 140.382174 247.209021 
L 140.382174 246.957269 
L 140.725251 246.957269 
L 140.725251 246.705517 
L 140.838234 246.705517 
L 140.838234 246.453766 
L 140.950542 246.453766 
L 140.950542 246.32789 
L 141.062184 246.32789 
L 141.173167 245.824386 
L 141.283499 245.824386 
L 141.393187 245.320883 
L 141.610664 245.320883 
L 141.610664 245.195007 
L 141.825656 245.195007 
L 141.825656 244.943255 
L 142.143605 244.943255 
L 142.143605 244.691503 
L 142.45627 244.691503 
L 142.45627 244.565628 
L 143.265494 244.565628 
L 143.265494 244.439752 
L 143.946089 244.439752 
L 143.946089 243.810372 
L 144.136106 243.810372 
L 144.2304 243.180993 
L 144.324223 243.180993 
L 144.417581 242.425738 
L 144.510478 242.425738 
L 144.510478 242.173986 
L 144.694906 242.173986 
L 144.694906 242.04811 
L 144.877544 242.04811 
L 144.877544 241.796359 
L 145.590864 241.796359 
L 145.590864 241.166979 
L 145.851536 241.166979 
L 145.93763 240.915228 
L 146.023332 240.915228 
L 146.108646 240.285848 
L 146.529503 240.285848 
L 146.612557 239.782345 
L 146.695245 239.782345 
L 146.777571 239.404717 
L 147.022411 239.404717 
L 147.022411 239.278841 
L 147.502732 239.278841 
L 147.502732 239.02709 
L 147.660152 239.02709 
L 147.660152 238.775338 
L 147.893838 238.775338 
L 147.893838 238.39771 
L 148.124658 238.39771 
L 148.124658 238.145959 
L 148.352679 238.145959 
L 148.428077 237.768331 
L 148.726679 237.768331 
L 148.726679 237.516579 
L 149.093387 237.516579 
L 149.093387 237.264828 
L 149.238092 237.264828 
L 149.31003 236.761324 
L 149.453084 236.761324 
L 149.453084 236.635448 
L 149.595059 236.635448 
L 149.595059 236.131945 
L 149.73597 236.131945 
L 149.73597 235.880193 
L 149.945377 235.880193 
L 150.014665 235.37669 
L 150.425115 235.37669 
L 150.425115 235.250814 
L 150.559965 235.250814 
L 150.62703 234.873186 
L 151.155108 234.873186 
L 151.155108 234.74731 
L 152.16877 234.74731 
L 152.16877 234.495559 
L 152.352898 234.495559 
L 152.352898 234.369683 
L 152.53524 234.369683 
L 152.595631 233.740303 
L 152.655828 233.740303 
L 152.655828 233.488552 
L 153.01302 233.488552 
L 153.01302 233.362676 
L 153.989717 233.362676 
L 153.989717 233.110924 
L 154.703817 233.110924 
L 154.811312 232.733297 
L 155.28758 232.733297 
L 155.339761 231.978041 
L 155.598521 231.978041 
L 155.598521 231.72629 
L 156.105602 231.72629 
L 156.105602 231.600414 
L 156.354107 231.600414 
L 156.354107 231.222786 
L 156.648044 231.222786 
L 156.648044 230.971034 
L 157.642093 230.971034 
L 157.642093 230.593407 
L 157.962102 230.593407 
L 158.007377 230.215779 
L 158.542339 230.215779 
L 158.542339 230.089903 
L 158.804221 230.089903 
L 158.804221 229.712276 
L 158.933807 229.712276 
L 158.933807 229.460524 
L 159.062507 229.460524 
L 159.062507 229.208772 
L 160.383158 229.208772 
L 160.383158 229.082897 
L 160.738476 229.082897 
L 160.777545 228.705269 
L 161.354042 228.705269 
L 161.354042 228.327641 
L 161.839769 228.327641 
L 161.839769 228.201766 
L 162.05979 228.201766 
L 162.168843 227.824138 
L 162.66956 227.824138 
L 162.66956 227.572386 
L 162.845206 227.572386 
L 162.949812 227.068883 
L 163.498092 227.068883 
L 163.498092 226.943007 
L 164.388551 226.943007 
L 164.388551 226.439503 
L 164.928329 226.439503 
L 164.928329 226.187752 
L 165.392072 226.187752 
L 165.392072 225.936 
L 165.574415 225.936 
L 165.604634 225.432497 
L 165.695002 225.432497 
L 165.695002 225.180745 
L 166.199045 225.180745 
L 166.199045 224.928993 
L 167.056864 224.928993 
L 167.084795 224.42549 
L 167.361848 224.42549 
L 167.361848 224.173738 
L 167.526142 224.173738 
L 167.580589 223.921986 
L 167.850487 223.921986 
L 167.877265 223.670234 
L 168.274427 223.670234 
L 168.378936 223.292607 
L 168.430973 223.292607 
L 168.430973 223.040855 
L 169.269439 223.040855 
L 169.368578 222.411476 
L 169.589749 222.411476 
L 169.638546 221.907972 
L 169.711507 221.907972 
L 169.711507 221.656221 
L 169.856584 221.656221 
L 169.856584 221.404469 
L 170.00055 221.404469 
L 170.048295 221.152717 
L 170.773255 221.152717 
L 170.819081 220.900966 
L 170.978599 220.900966 
L 170.978599 220.649214 
L 171.091717 220.649214 
L 171.181725 220.271586 
L 171.647326 220.271586 
L 171.756506 219.768083 
L 172.144386 219.768083 
L 172.186995 219.390455 
L 172.482581 219.390455 
L 172.587032 219.138703 
L 172.835373 219.138703 
L 172.835373 219.012828 
L 173.0195 219.012828 
L 173.12102 218.131697 
L 173.262233 218.131697 
L 173.262233 217.879945 
L 173.77765 217.879945 
L 173.77765 217.628193 
L 174.18388 217.628193 
L 174.279322 217.250566 
L 174.600249 217.250566 
L 174.600249 217.12469 
L 174.712223 217.12469 
L 174.786503 216.872938 
L 174.897377 216.872938 
L 174.970932 216.49531 
L 175.02591 216.49531 
L 175.02591 216.243559 
L 175.208017 216.243559 
L 175.244228 215.740055 
L 175.761601 215.740055 
L 175.831859 215.236552 
L 176.058402 215.236552 
L 176.058402 215.110676 
L 176.384671 215.110676 
L 176.418689 214.733048 
L 176.638314 214.733048 
L 176.638314 214.481297 
L 176.838794 214.481297 
L 176.838794 214.355421 
L 177.070019 214.355421 
L 177.168252 213.47429 
L 177.298436 213.47429 
L 177.298436 213.222538 
L 177.45991 213.222538 
L 177.45991 212.970786 
L 177.588098 212.970786 
L 177.683669 212.719034 
L 177.967504 212.719034 
L 177.967504 212.467283 
L 178.216255 212.467283 
L 178.216255 212.341407 
L 178.446509 212.341407 
L 178.522639 211.712028 
L 178.704102 211.712028 
L 178.704102 211.460276 
L 178.853996 211.460276 
L 178.91362 211.082648 
L 179.120831 211.082648 
L 179.179617 210.579145 
L 179.252842 210.579145 
L 179.311218 209.446262 
L 179.441905 209.446262 
L 179.470823 209.068634 
L 179.714853 209.068634 
L 179.743355 208.439255 
L 179.828604 208.439255 
L 179.856935 208.187503 
L 179.941672 208.187503 
L 179.983897 207.809876 
L 180.110009 207.809876 
L 180.207514 206.928745 
L 180.387266 206.928745 
L 180.497035 206.047614 
L 180.59256 206.047614 
L 180.687602 205.54411 
L 180.849423 205.54411 
L 180.862845 205.292359 
L 181.326697 205.292359 
L 181.339783 204.537103 
L 181.496113 204.537103 
L 181.496113 204.285352 
L 181.855908 204.285352 
L 181.90675 204.0336 
L 182.008023 204.0336 
L 182.108755 203.278345 
L 182.158919 203.278345 
L 182.158919 203.152469 
L 182.321035 203.152469 
L 182.321035 202.900717 
L 182.555488 202.900717 
L 182.604477 202.271338 
L 182.702072 202.271338 
L 182.702072 202.019586 
L 182.823359 202.019586 
L 182.883711 201.390207 
L 183.075545 201.390207 
L 183.170733 200.760828 
L 183.347923 200.760828 
L 183.347923 200.509076 
L 183.535105 200.509076 
L 183.58161 199.879697 
L 183.68583 199.879697 
L 183.743481 199.627945 
L 183.81243 199.627945 
L 183.869695 199.124441 
L 184.097028 199.124441 
L 184.130892 198.620938 
L 184.299304 198.620938 
L 184.377384 197.991559 
L 184.432957 197.991559 
L 184.432957 197.865683 
L 184.631672 197.865683 
L 184.631672 197.613931 
L 184.752084 197.613931 
L 184.762993 196.7328 
L 184.99062 196.7328 
L 185.098054 196.481048 
L 185.226169 196.481048 
L 185.311097 195.977545 
L 185.353418 195.977545 
L 185.448293 194.970538 
L 185.511278 194.970538 
L 185.584495 194.467034 
L 185.750786 194.467034 
L 185.823079 193.963531 
L 185.864265 193.963531 
L 185.90536 193.0824 
L 186.099348 193.0824 
L 186.099348 192.830648 
L 186.210749 192.830648 
L 186.261169 192.453021 
L 186.33153 192.453021 
L 186.431592 191.949517 
L 186.451541 191.949517 
L 186.51126 191.446014 
L 186.600485 191.446014 
L 186.600485 191.320138 
L 186.816825 191.320138 
L 186.846134 190.94251 
L 186.972615 190.94251 
L 187.059683 190.439007 
L 187.088617 190.439007 
L 187.175151 189.432 
L 187.242181 189.432 
L 187.251738 189.180248 
L 187.422926 189.180248 
L 187.526779 188.550869 
L 187.536192 188.550869 
L 187.536192 188.299117 
L 187.658132 188.299117 
L 187.760698 187.166234 
L 187.807135 187.166234 
L 187.871955 186.410979 
L 187.945762 186.410979 
L 188.037615 185.7816 
L 188.110777 185.7816 
L 188.138139 185.403972 
L 188.256251 185.403972 
L 188.256251 185.278097 
L 188.436526 185.278097 
L 188.517089 184.900469 
L 188.623973 184.900469 
L 188.712582 184.522841 
L 188.897312 184.522841 
L 188.97593 184.27109 
L 189.054221 184.27109 
L 189.14947 183.64171 
L 189.21844 183.64171 
L 189.21844 183.515834 
L 189.347081 183.515834 
L 189.423846 183.138207 
L 189.508774 183.138207 
L 189.551095 182.886455 
L 189.627033 182.886455 
L 189.660685 182.508828 
L 189.761282 182.508828 
L 189.761282 182.257076 
L 189.894579 182.257076 
L 189.993936 181.627697 
L 190.068111 181.627697 
L 190.150186 180.872441 
L 190.207426 180.872441 
L 190.297025 179.99131 
L 190.458846 179.99131 
L 190.499084 179.361931 
L 190.754593 179.361931 
L 190.754593 179.110179 
L 190.873179 179.110179 
L 190.896806 178.858428 
L 190.998851 178.858428 
L 191.10813 177.851421 
L 191.178047 177.851421 
L 191.255429 177.347917 
L 191.294001 177.347917 
L 191.309408 176.97029 
L 191.462785 176.97029 
L 191.531398 176.34091 
L 191.584592 176.34091 
L 191.675433 176.089159 
L 191.765837 176.089159 
L 191.855809 175.711531 
L 191.878235 175.711531 
L 191.915552 175.333903 
L 192.004812 175.333903 
L 192.108416 174.704524 
L 192.152644 174.704524 
L 192.196768 174.452772 
L 192.423108 174.452772 
L 192.473842 174.075145 
L 192.560499 174.075145 
L 192.653928 173.31989 
L 192.675422 173.31989 
L 192.675422 173.068138 
L 192.889031 173.068138 
L 192.980846 172.564634 
L 193.009007 172.564634 
L 193.086233 172.061131 
L 193.184065 172.061131 
L 193.204963 171.683503 
L 193.316027 171.683503 
L 193.350601 171.054124 
L 193.43332 171.054124 
L 193.522523 170.550621 
L 193.638539 170.550621 
L 193.638539 170.424745 
L 193.794371 170.424745 
L 193.868445 169.921241 
L 194.03572 169.921241 
L 194.108852 169.543614 
L 194.313435 169.543614 
L 194.39857 168.788359 
L 194.45077 168.788359 
L 194.45077 168.662483 
L 194.81856 168.662483 
L 194.907805 168.284855 
L 194.95227 168.284855 
L 194.977631 168.033103 
L 195.078734 168.033103 
L 195.078734 167.907228 
L 195.241878 167.907228 
L 195.347788 167.277848 
L 195.366417 167.277848 
L 195.366417 167.026097 
L 195.539398 167.026097 
L 195.539398 166.774345 
L 195.716895 166.774345 
L 195.716895 166.648469 
L 196.001054 166.648469 
L 196.048997 165.893214 
L 196.198035 165.893214 
L 196.245479 165.38971 
L 196.404725 165.38971 
L 196.498461 165.012083 
L 196.533492 165.012083 
L 196.638195 164.634455 
L 196.696112 164.634455 
L 196.696112 164.508579 
L 196.817161 164.508579 
L 196.817161 164.256828 
L 197.005822 164.256828 
L 197.107935 163.8792 
L 197.20387 163.8792 
L 197.20387 163.753324 
L 197.449922 163.753324 
L 197.499857 163.375697 
L 197.736622 163.375697 
L 197.834855 162.746317 
L 197.867485 162.746317 
L 197.975847 162.494566 
L 198.15329 162.494566 
L 198.18003 162.116938 
L 198.344975 162.116938 
L 198.355567 161.865186 
L 198.53997 161.865186 
L 198.53997 161.73931 
L 198.665381 161.73931 
L 198.774433 161.361683 
L 198.888005 161.361683 
L 198.888005 161.109931 
L 199.48573 161.109931 
L 199.490715 160.858179 
L 199.679179 160.858179 
L 199.679179 160.732303 
L 199.948655 160.732303 
L 199.948655 160.606428 
L 200.252658 160.606428 
L 200.252658 160.354676 
L 200.757981 160.354676 
L 200.864852 159.851172 
L 201.295425 159.851172 
L 201.295425 159.725297 
L 201.4128 159.725297 
L 201.4128 159.599421 
L 201.795905 159.599421 
L 201.795905 159.347669 
L 202.386256 159.347669 
L 202.386256 159.221793 
L 202.598722 159.221793 
L 202.640929 158.970041 
L 202.787911 158.970041 
L 202.787911 158.71829 
L 203.123729 158.71829 
L 203.123729 158.592414 
L 203.441541 158.592414 
L 203.4819 158.214786 
L 203.722256 158.214786 
L 203.722256 157.963034 
L 205.043986 157.963034 
L 205.043986 157.711283 
L 205.38228 157.711283 
L 205.38228 157.459531 
L 206.188358 157.459531 
L 206.188358 157.333655 
L 206.809915 157.333655 
L 206.809915 157.207779 
L 207.332908 157.207779 
L 207.332908 157.081903 
L 208.374534 157.081903 
L 208.374534 156.956028 
L 208.919834 156.956028 
L 208.919834 156.704276 
L 209.21047 156.704276 
L 209.21047 156.5784 
L 209.657056 156.5784 
L 209.657056 156.452524 
L 210.522401 156.452524 
L 210.522401 156.326648 
L 211.033921 156.326648 
L 211.033921 156.200772 
L 214.722296 156.200772 
L 214.722296 156.074897 
L 214.854912 156.074897 
L 214.854912 155.949021 
L 214.99316 155.949021 
L 214.99316 155.823145 
L 215.294637 155.823145 
L 215.294637 155.571393 
L 215.829177 155.571393 
L 215.829177 155.193766 
L 216.669657 155.193766 
L 216.669657 154.942014 
L 217.108488 154.942014 
L 217.108488 154.690262 
L 217.240882 154.690262 
L 217.240882 154.564386 
L 217.433901 154.564386 
L 217.433901 154.43851 
L 217.683798 154.43851 
L 217.683798 154.312634 
L 217.840428 154.312634 
L 217.926676 153.683255 
L 217.986443 153.683255 
L 217.986443 153.305628 
L 218.144282 153.305628 
L 218.144282 153.179752 
L 218.317306 153.179752 
L 218.32097 152.928 
L 218.441487 152.928 
L 218.441487 152.802124 
L 218.566662 152.802124 
L 218.566662 152.676248 
L 219.025699 152.676248 
L 219.025699 152.550372 
L 219.378797 152.550372 
L 219.378797 152.424497 
L 220.329325 152.424497 
L 220.329325 152.172745 
L 220.440947 152.172745 
L 220.475285 151.543366 
L 221.017925 151.543366 
L 221.017925 151.41749 
L 221.251377 151.41749 
L 221.324912 151.165738 
L 221.472674 151.165738 
L 221.472674 151.039862 
L 221.773911 151.039862 
L 221.773911 150.913986 
L 221.948437 150.913986 
L 221.948437 150.78811 
L 222.101891 150.78811 
L 222.131834 150.410483 
L 222.512417 150.410483 
L 222.512417 150.284607 
L 222.755658 150.284607 
L 222.755658 150.158731 
L 223.218787 150.158731 
L 223.218787 150.032855 
L 223.478203 150.032855 
L 223.501863 149.655228 
L 223.633534 149.655228 
L 223.65148 149.151724 
L 224.058247 149.151724 
L 224.131025 148.899972 
L 224.338372 148.899972 
L 224.338372 148.648221 
L 224.560558 148.648221 
L 224.660215 147.892966 
L 224.694188 147.892966 
L 224.756745 147.641214 
L 224.957345 147.641214 
L 224.957345 147.515338 
L 225.52415 147.515338 
L 225.590236 147.263586 
L 225.737779 147.263586 
L 225.763696 146.760083 
L 226.065881 146.760083 
L 226.160308 146.256579 
L 226.200116 146.256579 
L 226.200116 146.130703 
L 226.359705 146.130703 
L 226.447916 145.753076 
L 226.507284 145.753076 
L 226.507284 145.6272 
L 226.692494 145.6272 
L 226.692494 145.501324 
L 226.839825 145.501324 
L 226.923499 145.249572 
L 226.973294 145.249572 
L 227.056378 144.997821 
L 227.102378 144.997821 
L 227.106972 144.746069 
L 227.229441 144.746069 
L 227.309132 144.11669 
L 227.61674 144.11669 
L 227.620092 143.864938 
L 227.774774 143.864938 
L 227.827895 143.235559 
L 228.002796 143.235559 
L 228.078193 142.983807 
L 228.148944 142.983807 
L 228.148944 142.857931 
L 228.493428 142.857931 
L 228.493428 142.732055 
L 228.727708 142.732055 
L 228.83486 142.480303 
L 228.897607 142.480303 
L 228.897607 142.354428 
L 229.08977 142.354428 
L 229.08977 142.228552 
L 229.32597 142.228552 
L 229.32597 142.102676 
L 229.690823 142.102676 
L 229.690823 141.9768 
L 229.924584 141.9768 
L 229.924584 141.850924 
L 230.307198 141.850924 
L 230.307198 141.725048 
L 230.471156 141.725048 
L 230.471156 141.599172 
L 231.165882 141.599172 
L 231.165882 141.473297 
L 231.295 141.473297 
L 231.295 141.221545 
L 231.688826 141.221545 
L 231.688826 141.095669 
L 231.805473 141.095669 
L 231.807262 140.843917 
L 232.049869 140.843917 
L 232.049869 140.718041 
L 232.195873 140.718041 
L 232.292874 140.340414 
L 232.355527 140.340414 
L 232.377233 140.088662 
L 232.482799 140.088662 
L 232.527615 139.711034 
L 232.624638 139.711034 
L 232.624638 139.459283 
L 232.75266 139.459283 
L 232.75266 139.207531 
L 232.93381 139.207531 
L 232.93381 139.081655 
L 233.289307 139.081655 
L 233.394001 138.829903 
L 233.662538 138.829903 
L 233.727261 138.578152 
L 233.781295 138.578152 
L 233.858448 138.200524 
L 233.900907 138.200524 
L 233.900907 138.074648 
L 234.35159 138.074648 
L 234.366428 137.822897 
L 234.583753 137.822897 
L 234.583753 137.697021 
L 234.712186 137.697021 
L 234.712186 137.445269 
L 234.865613 137.445269 
L 234.904345 137.067641 
L 235.31259 137.067641 
L 235.31259 136.941766 
L 235.464899 136.941766 
L 235.464899 136.81589 
L 235.659034 136.81589 
L 235.659034 136.312386 
L 236.315059 136.312386 
L 236.315059 136.18651 
L 236.758834 136.18651 
L 236.758834 136.060634 
L 237.050101 136.060634 
L 237.050101 135.934759 
L 237.225939 135.934759 
L 237.225939 135.808883 
L 237.86216 135.808883 
L 237.86216 135.557131 
L 238.030602 135.557131 
L 238.030602 135.431255 
L 238.191181 135.431255 
L 238.275716 135.179503 
L 238.339659 135.179503 
L 238.373757 134.927752 
L 238.514546 134.927752 
L 238.514546 134.676 
L 238.651802 134.676 
L 238.721296 134.298372 
L 238.768306 134.298372 
L 238.768306 134.172497 
L 239.066179 134.172497 
L 239.140218 133.668993 
L 239.271196 133.668993 
L 239.271196 133.417241 
L 239.54053 133.417241 
L 239.54053 133.291366 
L 239.739883 133.291366 
L 239.832352 132.787862 
L 239.852775 132.787862 
L 239.852775 132.661986 
L 240.050017 132.661986 
L 240.050017 132.410234 
L 240.18744 132.410234 
L 240.18744 132.284359 
L 240.366474 132.284359 
L 240.423701 131.654979 
L 240.532011 131.654979 
L 240.532011 131.529103 
L 240.703352 131.529103 
L 240.794544 130.647972 
L 240.873147 130.647972 
L 240.873147 130.522097 
L 241.044707 130.522097 
L 241.132628 130.018593 
L 241.43099 130.018593 
L 241.488282 129.640966 
L 241.649577 129.640966 
L 241.649577 129.51509 
L 241.770569 129.51509 
L 241.770569 129.389214 
L 242.124294 129.389214 
L 242.124294 128.759834 
L 242.940513 128.759834 
L 242.940513 128.633959 
L 243.110973 128.633959 
L 243.197091 127.878703 
L 243.229772 127.878703 
L 243.229772 127.752828 
L 243.347341 127.752828 
L 243.347341 127.626952 
L 243.464181 127.626952 
L 243.51129 126.871697 
L 243.661443 126.871697 
L 243.661443 126.745821 
L 243.846757 126.745821 
L 243.846757 126.619945 
L 244.035866 126.619945 
L 244.111818 126.242317 
L 244.541211 126.242317 
L 244.541211 125.990566 
L 244.870571 125.990566 
L 244.879948 125.612938 
L 245.039975 125.612938 
L 245.121244 125.361186 
L 245.208745 125.361186 
L 245.208745 125.23531 
L 245.332048 125.23531 
L 245.400347 124.857683 
L 245.988563 124.857683 
L 245.988563 124.605931 
L 246.297042 124.605931 
L 246.34129 124.228303 
L 246.442216 124.228303 
L 246.442216 124.102428 
L 246.575268 124.102428 
L 246.575268 123.976552 
L 246.700902 123.976552 
L 246.700902 123.850676 
L 247.649147 123.850676 
L 247.649147 123.7248 
L 248.092759 123.7248 
L 248.092759 123.473048 
L 248.218409 123.473048 
L 248.218409 123.347172 
L 248.365864 123.347172 
L 248.365864 123.095421 
L 248.556651 123.095421 
L 248.576467 122.717793 
L 248.741523 122.717793 
L 248.741523 122.591917 
L 249.044829 122.591917 
L 249.044829 122.340166 
L 249.304548 122.340166 
L 249.304548 122.088414 
L 249.539833 122.088414 
L 249.539833 121.962538 
L 249.954434 121.962538 
L 249.954434 121.333159 
L 250.218787 121.333159 
L 250.218787 121.081407 
L 250.524505 121.081407 
L 250.561176 120.703779 
L 250.788848 120.703779 
L 250.872139 119.948524 
L 251.05628 119.948524 
L 251.154075 119.193269 
L 251.183475 119.193269 
L 251.26377 118.438014 
L 251.666718 118.438014 
L 251.666718 118.186262 
L 251.920197 118.186262 
L 251.991603 117.808634 
L 252.244392 117.808634 
L 252.244392 117.682759 
L 252.773484 117.682759 
L 252.773484 117.556883 
L 253.065516 117.556883 
L 253.065516 117.305131 
L 253.854231 117.305131 
L 253.854231 117.053379 
L 254.024672 117.053379 
L 254.024672 116.927503 
L 254.455681 116.927503 
L 254.455681 116.801628 
L 254.708883 116.801628 
L 254.755948 116.549876 
L 254.983263 116.549876 
L 255.061114 116.298124 
L 255.279914 116.298124 
L 255.376745 115.920497 
L 255.558552 115.920497 
L 255.658746 115.542869 
L 255.78493 115.542869 
L 255.78493 115.416993 
L 255.989335 115.416993 
L 255.989335 115.165241 
L 256.140826 115.165241 
L 256.223324 114.787614 
L 256.741771 114.787614 
L 256.741771 114.535862 
L 256.957246 114.535862 
L 257.017992 113.654731 
L 257.120043 113.654731 
L 257.192334 113.277103 
L 257.255333 113.277103 
L 257.340462 112.7736 
L 257.479437 112.7736 
L 257.479437 112.647724 
L 257.614217 112.647724 
L 257.614217 112.395972 
L 257.81437 112.395972 
L 257.879573 112.018345 
L 258.038827 112.018345 
L 258.070295 111.640717 
L 258.48831 111.640717 
L 258.48831 111.388966 
L 258.707054 111.388966 
L 258.707054 111.26309 
L 258.914394 111.26309 
L 258.95542 110.885462 
L 259.091811 110.885462 
L 259.091811 110.63371 
L 259.485293 110.63371 
L 259.485293 110.381959 
L 260.089363 110.381959 
L 260.160232 109.752579 
L 260.964667 109.752579 
L 260.968274 109.500828 
L 261.286533 109.500828 
L 261.395578 109.1232 
L 262.01052 109.1232 
L 262.096699 108.745572 
L 262.141692 108.745572 
L 262.213245 108.116193 
L 262.262036 108.116193 
L 262.343193 107.486814 
L 262.703 107.486814 
L 262.703 107.360938 
L 262.884213 107.360938 
L 262.903575 107.109186 
L 263.329418 107.109186 
L 263.375235 106.731559 
L 263.457059 106.731559 
L 263.457059 106.605683 
L 263.584006 106.605683 
L 263.673972 106.228055 
L 263.701076 106.228055 
L 263.701076 105.976303 
L 263.853765 105.976303 
L 263.853765 105.724552 
L 264.109433 105.724552 
L 264.109433 105.598676 
L 264.954304 105.598676 
L 265.021752 105.221048 
L 265.209177 105.221048 
L 265.250339 104.717545 
L 265.350598 104.717545 
L 265.387101 104.339917 
L 265.529579 104.339917 
L 265.546699 104.088166 
L 265.827324 104.088166 
L 265.929228 103.710538 
L 265.998796 103.710538 
L 266.027828 102.955283 
L 266.154606 102.955283 
L 266.154606 102.703531 
L 266.74753 102.703531 
L 266.836108 102.325903 
L 267.07016 102.325903 
L 267.07016 102.200028 
L 267.279771 102.200028 
L 267.279771 102.074152 
L 267.807266 102.074152 
L 267.895994 101.8224 
L 268.061533 101.8224 
L 268.061533 101.570648 
L 268.384465 101.570648 
L 268.421029 100.815393 
L 268.522547 100.815393 
L 268.522547 100.563641 
L 269.333081 100.563641 
L 269.341474 100.31189 
L 269.512303 100.31189 
L 269.512303 100.060138 
L 270.203648 100.060138 
L 270.203648 99.934262 
L 270.450513 99.934262 
L 270.488427 99.430759 
L 270.699387 99.430759 
L 270.754749 98.801379 
L 270.816135 98.801379 
L 270.845574 98.549628 
L 271.505925 98.549628 
L 271.505925 98.297876 
L 272.075538 98.297876 
L 272.075538 98.172 
L 272.186688 98.172 
L 272.196304 97.668497 
L 272.306537 97.668497 
L 272.368455 97.416745 
L 272.663405 97.416745 
L 272.663405 97.290869 
L 272.811136 97.290869 
L 272.811136 97.164993 
L 273.197326 97.164993 
L 273.197326 96.913241 
L 273.632083 96.913241 
L 273.710052 96.409738 
L 273.840532 96.409738 
L 273.840532 96.157986 
L 273.984372 96.157986 
L 274.039309 95.906234 
L 360.8064 95.906234 
L 360.8064 95.906234 
" style="fill: none; stroke: #ff00ff; stroke-width: 1.5; stroke-linecap: square"/>
   </g>
   <g id="line2d_41">
    <defs>
     <path id="mf6b447abd8" d="M 0 8.485281 
L 5.091169 0 
L 0 -8.485281 
L -5.091169 0 
z
" style="stroke: #ff00ff; stroke-width: 1.5; stroke-linejoin: miter"/>
    </defs>
    <g>
     <use xlink:href="#mf6b447abd8" x="109.756698" y="271.377186" style="fill-opacity: 0; stroke: #ff00ff; stroke-width: 1.5; stroke-linejoin: miter"/>
     <use xlink:href="#mf6b447abd8" x="183.569995" y="200.257324" style="fill-opacity: 0; stroke: #ff00ff; stroke-width: 1.5; stroke-linejoin: miter"/>
     <use xlink:href="#mf6b447abd8" x="230.307198" y="141.850924" style="fill-opacity: 0; stroke: #ff00ff; stroke-width: 1.5; stroke-linejoin: miter"/>
     <use xlink:href="#mf6b447abd8" x="274.039309" y="95.906234" style="fill-opacity: 0; stroke: #ff00ff; stroke-width: 1.5; stroke-linejoin: miter"/>
     <use xlink:href="#mf6b447abd8" x="274.039309" y="95.906234" style="fill-opacity: 0; stroke: #ff00ff; stroke-width: 1.5; stroke-linejoin: miter"/>
     <use xlink:href="#mf6b447abd8" x="360.8064" y="95.906234" style="fill-opacity: 0; stroke: #ff00ff; stroke-width: 1.5; stroke-linejoin: miter"/>
    </g>
   </g>
   <g id="line2d_42">
    <path style="fill: none; stroke: #ff00ff; stroke-width: 1.5; stroke-linecap: square"/>
    <g/>
   </g>
   <g id="line2d_43">
    <path d="M 274.176094 95.906234 
" clip-path="url(#p4ad948d5e4)" style="fill: none; stroke: #ff00ff; stroke-width: 1.5; stroke-linecap: square"/>
    <defs>
     <path id="m6d94f02a6d" d="M -12 12 
L 12 -12 
M -12 -12 
L 12 12 
" style="stroke: #ff00ff"/>
    </defs>
    <g clip-path="url(#p4ad948d5e4)">
     <use xlink:href="#m6d94f02a6d" x="274.176094" y="95.906234" style="fill: #ff00ff; stroke: #ff00ff"/>
    </g>
   </g>
   <g id="line2d_44">
    <defs>
     <path id="mc30a6c416d" d="M 0 1.5 
C 0.397805 1.5 0.77937 1.341951 1.06066 1.06066 
C 1.341951 0.77937 1.5 0.397805 1.5 0 
C 1.5 -0.397805 1.341951 -0.77937 1.06066 -1.06066 
C 0.77937 -1.341951 0.397805 -1.5 0 -1.5 
C -0.397805 -1.5 -0.77937 -1.341951 -1.06066 -1.06066 
C -1.341951 -0.77937 -1.5 -0.397805 -1.5 0 
C -1.5 0.397805 -1.341951 0.77937 -1.06066 1.06066 
C -0.77937 1.341951 -0.397805 1.5 0 1.5 
z
" style="stroke: #6495ed"/>
    </defs>
    <g>
     <use xlink:href="#mc30a6c416d" x="113.478107" y="261.558869" style="fill: #6495ed; stroke: #6495ed"/>
     <use xlink:href="#mc30a6c416d" x="113.478107" y="261.558869" style="fill: #6495ed; stroke: #6495ed"/>
    </g>
   </g>
   <g id="line2d_45">
    <path d="M 44.560826 298.944 
L 44.560826 295.797103 
L 57.6 295.797103 
L 57.6 290.510317 
L 65.227428 290.510317 
L 65.227428 288.496303 
L 70.639174 288.496303 
L 70.639174 287.111669 
L 74.836851 287.111669 
L 74.836851 286.104662 
L 78.266603 286.104662 
L 78.266603 284.468276 
L 81.166416 284.468276 
L 81.166416 284.216524 
L 83.678349 284.216524 
L 83.678349 283.083641 
L 85.894031 283.083641 
L 85.894031 282.454262 
L 87.876026 282.454262 
L 87.876026 281.699007 
L 89.668958 281.699007 
L 89.668958 280.314372 
L 91.305777 280.314372 
L 91.305777 279.936745 
L 92.811505 279.936745 
L 92.811505 278.803862 
L 95.503454 278.803862 
L 95.503454 278.55211 
L 96.717523 278.55211 
L 96.717523 277.419228 
L 98.933205 277.419228 
L 98.933205 276.789848 
L 99.950294 276.789848 
L 99.950294 276.538097 
L 101.833019 276.538097 
L 101.833019 276.160469 
L 102.708132 276.160469 
L 102.708132 274.524083 
L 103.544339 274.524083 
L 103.544339 272.887697 
L 104.344952 272.887697 
L 104.344952 270.999559 
L 105.112877 270.999559 
L 105.112877 269.7408 
L 105.850679 269.7408 
L 105.850679 269.111421 
L 106.560633 269.111421 
L 106.560633 267.852662 
L 107.244765 267.852662 
L 107.244765 267.475034 
L 107.904887 267.475034 
L 107.904887 266.845655 
L 108.542628 266.845655 
L 108.542628 266.342152 
L 109.159456 266.342152 
L 109.159456 265.586897 
L 109.756698 265.586897 
L 109.756698 264.957517 
L 110.335561 264.957517 
L 110.335561 264.454014 
L 110.897141 264.454014 
L 110.897141 264.076386 
L 111.442442 264.076386 
L 111.442442 263.572883 
L 111.97238 263.572883 
L 111.97238 262.691752 
L 112.487797 262.691752 
L 112.487797 262.062372 
L 112.989468 262.062372 
L 112.989468 261.810621 
L 113.478107 261.810621 
L 113.478107 261.558869 
L 360.8064 261.558869 
" style="fill: none; stroke: #6495ed; stroke-width: 1.5; stroke-linecap: square"/>
   </g>
   <g id="line2d_46">
    <defs>
     <path id="m1c5ef4ff50" d="M -0 6 
L 6 -6 
L -6 -6 
z
" style="stroke: #6495ed; stroke-width: 1.5; stroke-linejoin: miter"/>
    </defs>
    <g>
     <use xlink:href="#m1c5ef4ff50" x="81.166416" y="284.468276" style="fill-opacity: 0; stroke: #6495ed; stroke-width: 1.5; stroke-linejoin: miter"/>
     <use xlink:href="#m1c5ef4ff50" x="113.478107" y="261.810621" style="fill-opacity: 0; stroke: #6495ed; stroke-width: 1.5; stroke-linejoin: miter"/>
     <use xlink:href="#m1c5ef4ff50" x="113.478107" y="261.810621" style="fill-opacity: 0; stroke: #6495ed; stroke-width: 1.5; stroke-linejoin: miter"/>
     <use xlink:href="#m1c5ef4ff50" x="113.478107" y="261.558869" style="fill-opacity: 0; stroke: #6495ed; stroke-width: 1.5; stroke-linejoin: miter"/>
     <use xlink:href="#m1c5ef4ff50" x="113.478107" y="261.558869" style="fill-opacity: 0; stroke: #6495ed; stroke-width: 1.5; stroke-linejoin: miter"/>
     <use xlink:href="#m1c5ef4ff50" x="360.8064" y="261.558869" style="fill-opacity: 0; stroke: #6495ed; stroke-width: 1.5; stroke-linejoin: miter"/>
    </g>
   </g>
   <g id="line2d_47">
    <path style="fill: none; stroke: #6495ed; stroke-width: 1.5; stroke-linecap: square"/>
    <g/>
   </g>
   <g id="line2d_48">
    <path d="M 113.954374 261.558869 
" clip-path="url(#p4ad948d5e4)" style="fill: none; stroke: #6495ed; stroke-width: 1.5; stroke-linecap: square"/>
    <defs>
     <path id="m22c9f41b79" d="M -12 12 
L 12 -12 
M -12 -12 
L 12 12 
" style="stroke: #6495ed"/>
    </defs>
    <g clip-path="url(#p4ad948d5e4)">
     <use xlink:href="#m22c9f41b79" x="113.954374" y="261.558869" style="fill: #6495ed; stroke: #6495ed"/>
    </g>
   </g>
   <g id="line2d_49">
    <path d="M 360.8064 277.545103 
L 380.514816 293.10336 
" style="fill: none; stroke: #000080; stroke-width: 1.5; stroke-linecap: square"/>
    <g>
     <use xlink:href="#m00b9eec334" x="360.8064" y="277.545103" style="fill-opacity: 0; stroke: #000080; stroke-width: 1.5"/>
     <use xlink:href="#m00b9eec334" x="380.514816" y="293.10336" style="fill-opacity: 0; stroke: #000080; stroke-width: 1.5"/>
    </g>
   </g>
   <g id="line2d_50">
    <path d="M 360.8064 261.558869 
L 380.514816 199.65312 
" style="fill: none; stroke: #6495ed; stroke-width: 1.5; stroke-linecap: square"/>
    <g>
     <use xlink:href="#m1c5ef4ff50" x="360.8064" y="261.558869" style="fill-opacity: 0; stroke: #6495ed; stroke-width: 1.5; stroke-linejoin: miter"/>
     <use xlink:href="#m1c5ef4ff50" x="380.514816" y="199.65312" style="fill-opacity: 0; stroke: #6495ed; stroke-width: 1.5; stroke-linejoin: miter"/>
    </g>
   </g>
   <g id="line2d_51">
    <path d="M 360.8064 95.906234 
L 380.514816 106.20288 
" style="fill: none; stroke: #ff00ff; stroke-width: 1.5; stroke-linecap: square"/>
    <g>
     <use xlink:href="#mf6b447abd8" x="360.8064" y="95.906234" style="fill-opacity: 0; stroke: #ff00ff; stroke-width: 1.5; stroke-linejoin: miter"/>
     <use xlink:href="#mf6b447abd8" x="380.514816" y="106.20288" style="fill-opacity: 0; stroke: #ff00ff; stroke-width: 1.5; stroke-linejoin: miter"/>
    </g>
   </g>
   <g id="line2d_52">
    <path d="M 360.8064 298.944 
L 360.8064 6.912 
" style="fill: none; stroke: #000000; stroke-width: 1.5; stroke-linecap: square"/>
   </g>
   <g id="patch_3">
    <path d="M 57.6 298.944 
L 360.8064 298.944 
" style="fill: none; stroke: #000000; stroke-width: 0.8; stroke-linejoin: miter; stroke-linecap: square"/>
   </g>
   <g id="patch_4">
    <path d="M 57.6 6.912 
L 360.8064 6.912 
" style="fill: none; stroke: #000000; stroke-width: 0.8; stroke-linejoin: miter; stroke-linecap: square"/>
   </g>
   <g id="text_13">
    <!-- cma -->
    <g transform="translate(386.578944 296.966485)scale(0.14 -0.14)">
     <use xlink:href="#DejaVuSans-63"/>
     <use xlink:href="#DejaVuSans-6d" x="54.980469"/>
     <use xlink:href="#DejaVuSans-61" x="152.392578"/>
    </g>
   </g>
   <g id="text_14">
    <!-- parEgo -->
    <g transform="translate(386.578944 203.516245)scale(0.14 -0.14)">
     <defs>
      <path id="DejaVuSans-45" d="M 628 4666 
L 3578 4666 
L 3578 4134 
L 1259 4134 
L 1259 2753 
L 3481 2753 
L 3481 2222 
L 1259 2222 
L 1259 531 
L 3634 531 
L 3634 0 
L 628 0 
L 628 4666 
z
" transform="scale(0.015625)"/>
     </defs>
     <use xlink:href="#DejaVuSans-70"/>
     <use xlink:href="#DejaVuSans-61" x="63.476562"/>
     <use xlink:href="#DejaVuSans-72" x="124.755859"/>
     <use xlink:href="#DejaVuSans-45" x="165.869141"/>
     <use xlink:href="#DejaVuSans-67" x="229.052734"/>
     <use xlink:href="#DejaVuSans-6f" x="292.529297"/>
    </g>
   </g>
   <g id="text_15">
    <!-- external- -->
    <g transform="translate(386.578944 110.066005)scale(0.14 -0.14)">
     <defs>
      <path id="DejaVuSans-78" d="M 3513 3500 
L 2247 1797 
L 3578 0 
L 2900 0 
L 1881 1375 
L 863 0 
L 184 0 
L 1544 1831 
L 300 3500 
L 978 3500 
L 1906 2253 
L 2834 3500 
L 3513 3500 
z
" transform="scale(0.015625)"/>
     </defs>
     <use xlink:href="#DejaVuSans-65"/>
     <use xlink:href="#DejaVuSans-78" x="59.773438"/>
     <use xlink:href="#DejaVuSans-74" x="118.953125"/>
     <use xlink:href="#DejaVuSans-65" x="158.162109"/>
     <use xlink:href="#DejaVuSans-72" x="219.685547"/>
     <use xlink:href="#DejaVuSans-6e" x="259.048828"/>
     <use xlink:href="#DejaVuSans-61" x="322.427734"/>
     <use xlink:href="#DejaVuSans-6c" x="383.707031"/>
     <use xlink:href="#DejaVuSans-2d" x="411.490234"/>
    </g>
   </g>
   <g id="text_16">
    <!-- best 2016 -->
    <g transform="translate(386.578944 16.615765)scale(0.14 -0.14)">
     <defs>
      <path id="DejaVuSans-62" d="M 3116 1747 
Q 3116 2381 2855 2742 
Q 2594 3103 2138 3103 
Q 1681 3103 1420 2742 
Q 1159 2381 1159 1747 
Q 1159 1113 1420 752 
Q 1681 391 2138 391 
Q 2594 391 2855 752 
Q 3116 1113 3116 1747 
z
M 1159 2969 
Q 1341 3281 1617 3432 
Q 1894 3584 2278 3584 
Q 2916 3584 3314 3078 
Q 3713 2572 3713 1747 
Q 3713 922 3314 415 
Q 2916 -91 2278 -91 
Q 1894 -91 1617 61 
Q 1341 213 1159 525 
L 1159 0 
L 581 0 
L 581 4863 
L 1159 4863 
L 1159 2969 
z
" transform="scale(0.015625)"/>
     </defs>
     <use xlink:href="#DejaVuSans-62"/>
     <use xlink:href="#DejaVuSans-65" x="63.476562"/>
     <use xlink:href="#DejaVuSans-73" x="125"/>
     <use xlink:href="#DejaVuSans-74" x="177.099609"/>
     <use xlink:href="#DejaVuSans-20" x="216.308594"/>
     <use xlink:href="#DejaVuSans-32" x="248.095703"/>
     <use xlink:href="#DejaVuSans-30" x="311.71875"/>
     <use xlink:href="#DejaVuSans-31" x="375.341797"/>
     <use xlink:href="#DejaVuSans-36" x="438.964844"/>
    </g>
   </g>
   <g id="text_17">
    <!-- bbob-biobj f37, f38, f42, f43, 2-D -->
    <g transform="translate(60.632064 17.582726)scale(0.102 -0.102)">
     <defs>
      <path id="DejaVuSans-6a" d="M 603 3500 
L 1178 3500 
L 1178 -63 
Q 1178 -731 923 -1031 
Q 669 -1331 103 -1331 
L -116 -1331 
L -116 -844 
L 38 -844 
Q 366 -844 484 -692 
Q 603 -541 603 -63 
L 603 3500 
z
M 603 4863 
L 1178 4863 
L 1178 4134 
L 603 4134 
L 603 4863 
z
" transform="scale(0.015625)"/>
      <path id="DejaVuSans-33" d="M 2597 2516 
Q 3050 2419 3304 2112 
Q 3559 1806 3559 1356 
Q 3559 666 3084 287 
Q 2609 -91 1734 -91 
Q 1441 -91 1130 -33 
Q 819 25 488 141 
L 488 750 
Q 750 597 1062 519 
Q 1375 441 1716 441 
Q 2309 441 2620 675 
Q 2931 909 2931 1356 
Q 2931 1769 2642 2001 
Q 2353 2234 1838 2234 
L 1294 2234 
L 1294 2753 
L 1863 2753 
Q 2328 2753 2575 2939 
Q 2822 3125 2822 3475 
Q 2822 3834 2567 4026 
Q 2313 4219 1838 4219 
Q 1578 4219 1281 4162 
Q 984 4106 628 3988 
L 628 4550 
Q 988 4650 1302 4700 
Q 1616 4750 1894 4750 
Q 2613 4750 3031 4423 
Q 3450 4097 3450 3541 
Q 3450 3153 3228 2886 
Q 3006 2619 2597 2516 
z
" transform="scale(0.015625)"/>
      <path id="DejaVuSans-37" d="M 525 4666 
L 3525 4666 
L 3525 4397 
L 1831 0 
L 1172 0 
L 2766 4134 
L 525 4134 
L 525 4666 
z
" transform="scale(0.015625)"/>
      <path id="DejaVuSans-44" d="M 1259 4147 
L 1259 519 
L 2022 519 
Q 2988 519 3436 956 
Q 3884 1394 3884 2338 
Q 3884 3275 3436 3711 
Q 2988 4147 2022 4147 
L 1259 4147 
z
M 628 4666 
L 1925 4666 
Q 3281 4666 3915 4102 
Q 4550 3538 4550 2338 
Q 4550 1131 3912 565 
Q 3275 0 1925 0 
L 628 0 
L 628 4666 
z
" transform="scale(0.015625)"/>
     </defs>
     <use xlink:href="#DejaVuSans-62"/>
     <use xlink:href="#DejaVuSans-62" x="63.476562"/>
     <use xlink:href="#DejaVuSans-6f" x="126.953125"/>
     <use xlink:href="#DejaVuSans-62" x="188.134766"/>
     <use xlink:href="#DejaVuSans-2d" x="251.611328"/>
     <use xlink:href="#DejaVuSans-62" x="287.695312"/>
     <use xlink:href="#DejaVuSans-69" x="351.171875"/>
     <use xlink:href="#DejaVuSans-6f" x="378.955078"/>
     <use xlink:href="#DejaVuSans-62" x="440.136719"/>
     <use xlink:href="#DejaVuSans-6a" x="503.613281"/>
     <use xlink:href="#DejaVuSans-20" x="531.396484"/>
     <use xlink:href="#DejaVuSans-66" x="563.183594"/>
     <use xlink:href="#DejaVuSans-33" x="598.388672"/>
     <use xlink:href="#DejaVuSans-37" x="662.011719"/>
     <use xlink:href="#DejaVuSans-2c" x="725.634766"/>
     <use xlink:href="#DejaVuSans-20" x="757.421875"/>
     <use xlink:href="#DejaVuSans-66" x="789.208984"/>
     <use xlink:href="#DejaVuSans-33" x="824.414062"/>
     <use xlink:href="#DejaVuSans-38" x="888.037109"/>
     <use xlink:href="#DejaVuSans-2c" x="951.660156"/>
     <use xlink:href="#DejaVuSans-20" x="983.447266"/>
     <use xlink:href="#DejaVuSans-66" x="1015.234375"/>
     <use xlink:href="#DejaVuSans-34" x="1050.439453"/>
     <use xlink:href="#DejaVuSans-32" x="1114.0625"/>
     <use xlink:href="#DejaVuSans-2c" x="1177.685547"/>
     <use xlink:href="#DejaVuSans-20" x="1209.472656"/>
     <use xlink:href="#DejaVuSans-66" x="1241.259766"/>
     <use xlink:href="#DejaVuSans-34" x="1276.464844"/>
     <use xlink:href="#DejaVuSans-33" x="1340.087891"/>
     <use xlink:href="#DejaVuSans-2c" x="1403.710938"/>
     <use xlink:href="#DejaVuSans-20" x="1435.498047"/>
     <use xlink:href="#DejaVuSans-32" x="1467.285156"/>
     <use xlink:href="#DejaVuSans-2d" x="1530.908203"/>
     <use xlink:href="#DejaVuSans-44" x="1566.992188"/>
    </g>
    <!-- 58 targets: 1..-1.0e-4 -->
    <g transform="translate(60.632064 29.004495)scale(0.102 -0.102)">
     <defs>
      <path id="DejaVuSans-35" d="M 691 4666 
L 3169 4666 
L 3169 4134 
L 1269 4134 
L 1269 2991 
Q 1406 3038 1543 3061 
Q 1681 3084 1819 3084 
Q 2600 3084 3056 2656 
Q 3513 2228 3513 1497 
Q 3513 744 3044 326 
Q 2575 -91 1722 -91 
Q 1428 -91 1123 -41 
Q 819 9 494 109 
L 494 744 
Q 775 591 1075 516 
Q 1375 441 1709 441 
Q 2250 441 2565 725 
Q 2881 1009 2881 1497 
Q 2881 1984 2565 2268 
Q 2250 2553 1709 2553 
Q 1456 2553 1204 2497 
Q 953 2441 691 2322 
L 691 4666 
z
" transform="scale(0.015625)"/>
      <path id="DejaVuSans-3a" d="M 750 794 
L 1409 794 
L 1409 0 
L 750 0 
L 750 794 
z
M 750 3309 
L 1409 3309 
L 1409 2516 
L 750 2516 
L 750 3309 
z
" transform="scale(0.015625)"/>
     </defs>
     <use xlink:href="#DejaVuSans-35"/>
     <use xlink:href="#DejaVuSans-38" x="63.623047"/>
     <use xlink:href="#DejaVuSans-20" x="127.246094"/>
     <use xlink:href="#DejaVuSans-74" x="159.033203"/>
     <use xlink:href="#DejaVuSans-61" x="198.242188"/>
     <use xlink:href="#DejaVuSans-72" x="259.521484"/>
     <use xlink:href="#DejaVuSans-67" x="298.884766"/>
     <use xlink:href="#DejaVuSans-65" x="362.361328"/>
     <use xlink:href="#DejaVuSans-74" x="423.884766"/>
     <use xlink:href="#DejaVuSans-73" x="463.09375"/>
     <use xlink:href="#DejaVuSans-3a" x="515.193359"/>
     <use xlink:href="#DejaVuSans-20" x="548.884766"/>
     <use xlink:href="#DejaVuSans-31" x="580.671875"/>
     <use xlink:href="#DejaVuSans-2e" x="644.294922"/>
     <use xlink:href="#DejaVuSans-2e" x="676.082031"/>
     <use xlink:href="#DejaVuSans-2d" x="707.869141"/>
     <use xlink:href="#DejaVuSans-31" x="743.953125"/>
     <use xlink:href="#DejaVuSans-2e" x="807.576172"/>
     <use xlink:href="#DejaVuSans-30" x="839.363281"/>
     <use xlink:href="#DejaVuSans-65" x="902.986328"/>
     <use xlink:href="#DejaVuSans-2d" x="964.509766"/>
     <use xlink:href="#DejaVuSans-34" x="1000.59375"/>
    </g>
    <!-- 10 instances -->
    <g transform="translate(60.632064 40.426264)scale(0.102 -0.102)">
     <use xlink:href="#DejaVuSans-31"/>
     <use xlink:href="#DejaVuSans-30" x="63.623047"/>
     <use xlink:href="#DejaVuSans-20" x="127.246094"/>
     <use xlink:href="#DejaVuSans-69" x="159.033203"/>
     <use xlink:href="#DejaVuSans-6e" x="186.816406"/>
     <use xlink:href="#DejaVuSans-73" x="250.195312"/>
     <use xlink:href="#DejaVuSans-74" x="302.294922"/>
     <use xlink:href="#DejaVuSans-61" x="341.503906"/>
     <use xlink:href="#DejaVuSans-6e" x="402.783203"/>
     <use xlink:href="#DejaVuSans-63" x="466.162109"/>
     <use xlink:href="#DejaVuSans-65" x="521.142578"/>
     <use xlink:href="#DejaVuSans-73" x="582.666016"/>
    </g>
   </g>
   <g id="text_18">
    <!-- v2.6, hv-hash=ff0e71e8cd978373 -->
    <g style="fill: #808080" transform="translate(123.707887 293.943992)scale(0.1 -0.1)">
     <defs>
      <path id="DejaVuSans-68" d="M 3513 2113 
L 3513 0 
L 2938 0 
L 2938 2094 
Q 2938 2591 2744 2837 
Q 2550 3084 2163 3084 
Q 1697 3084 1428 2787 
Q 1159 2491 1159 1978 
L 1159 0 
L 581 0 
L 581 4863 
L 1159 4863 
L 1159 2956 
Q 1366 3272 1645 3428 
Q 1925 3584 2291 3584 
Q 2894 3584 3203 3211 
Q 3513 2838 3513 2113 
z
" transform="scale(0.015625)"/>
      <path id="DejaVuSans-3d" d="M 678 2906 
L 4684 2906 
L 4684 2381 
L 678 2381 
L 678 2906 
z
M 678 1631 
L 4684 1631 
L 4684 1100 
L 678 1100 
L 678 1631 
z
" transform="scale(0.015625)"/>
      <path id="DejaVuSans-39" d="M 703 97 
L 703 672 
Q 941 559 1184 500 
Q 1428 441 1663 441 
Q 2288 441 2617 861 
Q 2947 1281 2994 2138 
Q 2813 1869 2534 1725 
Q 2256 1581 1919 1581 
Q 1219 1581 811 2004 
Q 403 2428 403 3163 
Q 403 3881 828 4315 
Q 1253 4750 1959 4750 
Q 2769 4750 3195 4129 
Q 3622 3509 3622 2328 
Q 3622 1225 3098 567 
Q 2575 -91 1691 -91 
Q 1453 -91 1209 -44 
Q 966 3 703 97 
z
M 1959 2075 
Q 2384 2075 2632 2365 
Q 2881 2656 2881 3163 
Q 2881 3666 2632 3958 
Q 2384 4250 1959 4250 
Q 1534 4250 1286 3958 
Q 1038 3666 1038 3163 
Q 1038 2656 1286 2365 
Q 1534 2075 1959 2075 
z
" transform="scale(0.015625)"/>
     </defs>
     <use xlink:href="#DejaVuSans-76"/>
     <use xlink:href="#DejaVuSans-32" x="59.179688"/>
     <use xlink:href="#DejaVuSans-2e" x="122.802734"/>
     <use xlink:href="#DejaVuSans-36" x="154.589844"/>
     <use xlink:href="#DejaVuSans-2c" x="218.212891"/>
     <use xlink:href="#DejaVuSans-20" x="250"/>
     <use xlink:href="#DejaVuSans-68" x="281.787109"/>
     <use xlink:href="#DejaVuSans-76" x="345.166016"/>
     <use xlink:href="#DejaVuSans-2d" x="401.720703"/>
     <use xlink:href="#DejaVuSans-68" x="437.804688"/>
     <use xlink:href="#DejaVuSans-61" x="501.183594"/>
     <use xlink:href="#DejaVuSans-73" x="562.462891"/>
     <use xlink:href="#DejaVuSans-68" x="614.5625"/>
     <use xlink:href="#DejaVuSans-3d" x="677.941406"/>
     <use xlink:href="#DejaVuSans-66" x="761.730469"/>
     <use xlink:href="#DejaVuSans-66" x="796.935547"/>
     <use xlink:href="#DejaVuSans-30" x="832.140625"/>
     <use xlink:href="#DejaVuSans-65" x="895.763672"/>
     <use xlink:href="#DejaVuSans-37" x="957.287109"/>
     <use xlink:href="#DejaVuSans-31" x="1020.910156"/>
     <use xlink:href="#DejaVuSans-65" x="1084.533203"/>
     <use xlink:href="#DejaVuSans-38" x="1146.056641"/>
     <use xlink:href="#DejaVuSans-63" x="1209.679688"/>
     <use xlink:href="#DejaVuSans-64" x="1264.660156"/>
     <use xlink:href="#DejaVuSans-39" x="1328.136719"/>
     <use xlink:href="#DejaVuSans-37" x="1391.759766"/>
     <use xlink:href="#DejaVuSans-38" x="1455.382812"/>
     <use xlink:href="#DejaVuSans-33" x="1519.005859"/>
     <use xlink:href="#DejaVuSans-37" x="1582.628906"/>
     <use xlink:href="#DejaVuSans-33" x="1646.251953"/>
    </g>
   </g>
  </g>
 </g>
 <defs>
  <clipPath id="p4ad948d5e4">
   <rect x="57.6" y="6.912" width="303.2064" height="292.032"/>
  </clipPath>
 </defs>
</svg>
