<?xml version="1.0" encoding="utf-8" standalone="no"?>
<!DOCTYPE svg PUBLIC "-//W3C//DTD SVG 1.1//EN"
  "http://www.w3.org/Graphics/SVG/1.1/DTD/svg11.dtd">
<svg xmlns:xlink="http://www.w3.org/1999/xlink" width="460.8pt" height="345.6pt" viewBox="0 0 460.8 345.6" xmlns="http://www.w3.org/2000/svg" version="1.1">
 <metadata>
  <rdf:RDF xmlns:dc="http://purl.org/dc/elements/1.1/" xmlns:cc="http://creativecommons.org/ns#" xmlns:rdf="http://www.w3.org/1999/02/22-rdf-syntax-ns#">
   <cc:Work>
    <dc:type rdf:resource="http://purl.org/dc/dcmitype/StillImage"/>
    <dc:date>2022-06-19T21:02:35.663747</dc:date>
    <dc:format>image/svg+xml</dc:format>
    <dc:creator>
     <cc:Agent>
      <dc:title>Matplotlib v3.5.1, https://matplotlib.org/</dc:title>
     </cc:Agent>
    </dc:creator>
   </cc:Work>
  </rdf:RDF>
 </metadata>
 <defs>
  <style type="text/css">*{stroke-linejoin: round; stroke-linecap: butt}</style>
 </defs>
 <g id="figure_1">
  <g id="patch_1">
   <path d="M 0 345.6 
L 460.8 345.6 
L 460.8 0 
L 0 0 
z
" style="fill: #ffffff"/>
  </g>
  <g id="axes_1">
   <g id="patch_2">
    <path d="M 57.6 298.944 
L 360.8064 298.944 
L 360.8064 6.912 
L 57.6 6.912 
z
" style="fill: #ffffff"/>
   </g>
   <g id="line2d_1">
    <path d="M 27.323974 298.944 
L 27.323974 297.265655 
L 34.951403 297.265655 
L 34.951403 295.58731 
L 40.363149 295.58731 
L 40.363149 292.230621 
L 50.890391 292.230621 
L 50.890391 288.873931 
L 53.402323 288.873931 
L 53.402323 287.195586 
L 59.392932 287.195586 
L 59.392932 283.838897 
L 62.535479 283.838897 
L 62.535479 280.482207 
L 63.929565 280.482207 
L 63.929565 278.803862 
L 65.227428 278.803862 
L 65.227428 273.768828 
L 70.639174 273.768828 
L 70.639174 270.412138 
L 73.268314 270.412138 
L 73.268314 267.055448 
L 74.068926 267.055448 
L 74.068926 263.698759 
L 77.628862 263.698759 
L 77.628862 262.020414 
L 86.307488 262.020414 
L 86.307488 258.663724 
L 88.613828 258.663724 
L 88.613828 253.62869 
L 93.66029 253.62869 
L 93.66029 248.593655 
L 94.735529 248.593655 
L 94.735529 245.236966 
L 97.635342 245.236966 
L 97.635342 241.880276 
L 101.833019 241.880276 
L 101.833019 238.523586 
L 104.655893 238.523586 
L 104.655893 233.488552 
L 105.411479 233.488552 
L 105.411479 231.810207 
L 109.400633 231.810207 
L 109.400633 230.131862 
L 113.088217 230.131862 
L 113.088217 226.775172 
L 114.692177 226.775172 
L 114.692177 223.418483 
L 115.661605 223.418483 
L 115.661605 220.061793 
L 123.713691 220.061793 
L 123.713691 209.991724 
L 124.906754 209.991724 
L 124.906754 206.635034 
L 128.528195 206.635034 
L 128.528195 203.278345 
L 132.037244 203.278345 
L 132.037244 199.921655 
L 133.78762 199.921655 
L 133.78762 196.564966 
L 135.835047 196.564966 
L 135.835047 193.208276 
L 140.634374 193.208276 
L 140.634374 189.851586 
L 142.865233 189.851586 
L 142.865233 186.494897 
L 143.540694 186.494897 
L 143.540694 184.816552 
L 146.261241 184.816552 
L 146.261241 181.459862 
L 149.65155 181.459862 
L 149.65155 179.781517 
L 151.820167 179.781517 
L 151.820167 174.746483 
L 152.715833 174.746483 
L 152.715833 173.068138 
L 155.762279 173.068138 
L 155.762279 168.033103 
L 159.577 168.033103 
L 159.577 166.354759 
L 164.978343 166.354759 
L 164.978343 164.676414 
L 170.374474 164.676414 
L 170.374474 159.641379 
L 176.712072 159.641379 
L 176.712072 154.606345 
L 180.224179 154.606345 
L 180.224179 151.249655 
L 184.880402 151.249655 
L 184.880402 149.57131 
L 186.279287 149.57131 
L 186.279287 144.536276 
L 191.162533 144.536276 
L 191.162533 139.501241 
L 193.338162 139.501241 
L 193.338162 136.144552 
L 196.496123 136.144552 
L 196.496123 134.466207 
L 196.784958 134.466207 
L 196.784958 132.787862 
L 204.173748 132.787862 
L 204.173748 127.752828 
L 204.482855 127.752828 
L 204.482855 122.717793 
L 205.829535 122.717793 
L 205.829535 119.361103 
L 208.062369 119.361103 
L 208.062369 117.682759 
L 208.388205 117.682759 
L 208.388205 116.004414 
L 212.019595 116.004414 
L 212.019595 112.647724 
L 212.520417 112.647724 
L 212.520417 107.61269 
L 215.381791 107.61269 
L 215.381791 102.577655 
L 217.882101 102.577655 
L 217.882101 100.89931 
L 222.094998 100.89931 
L 222.094998 97.542621 
L 224.220665 97.542621 
L 224.220665 95.864276 
L 225.435504 95.864276 
L 225.435504 90.829241 
L 230.473076 90.829241 
L 230.473076 85.794207 
L 231.053009 85.794207 
L 231.053009 84.115862 
L 239.14797 84.115862 
L 239.14797 80.759172 
L 239.297884 80.759172 
L 239.297884 77.402483 
L 241.047663 77.402483 
L 241.047663 74.045793 
L 245.647019 74.045793 
L 245.647019 70.689103 
L 245.987722 70.689103 
L 245.987722 67.332414 
L 246.334763 67.332414 
L 246.334763 62.297379 
L 252.767966 62.297379 
L 252.767966 60.619034 
L 256.361315 60.619034 
L 256.361315 58.94069 
L 269.26985 58.94069 
L 269.26985 55.584 
L 294.464593 55.584 
L 294.464593 52.22731 
L 301.806195 52.22731 
L 301.806195 47.192276 
L 305.17239 47.192276 
L 305.17239 42.157241 
L 360.8064 42.157241 
L 360.8064 42.157241 
" style="fill: none; stroke: #f5deb3; stroke-width: 4; stroke-linecap: square"/>
   </g>
   <g id="line2d_2">
    <defs>
     <path id="ma8bb69f2a1" d="M 0 7.778175 
L 7.778175 0 
L 0 -7.778175 
L -7.778175 0 
z
" style="stroke: #f5deb3; stroke-width: 1.5; stroke-linejoin: miter"/>
    </defs>
    <g>
     <use xlink:href="#ma8bb69f2a1" x="88.613828" y="253.62869" style="fill: #f5deb3; stroke: #f5deb3; stroke-width: 1.5; stroke-linejoin: miter"/>
     <use xlink:href="#ma8bb69f2a1" x="135.835047" y="193.208276" style="fill: #f5deb3; stroke: #f5deb3; stroke-width: 1.5; stroke-linejoin: miter"/>
     <use xlink:href="#ma8bb69f2a1" x="204.173748" y="127.752828" style="fill: #f5deb3; stroke: #f5deb3; stroke-width: 1.5; stroke-linejoin: miter"/>
     <use xlink:href="#ma8bb69f2a1" x="269.26985" y="55.584" style="fill: #f5deb3; stroke: #f5deb3; stroke-width: 1.5; stroke-linejoin: miter"/>
     <use xlink:href="#ma8bb69f2a1" x="305.17239" y="42.157241" style="fill: #f5deb3; stroke: #f5deb3; stroke-width: 1.5; stroke-linejoin: miter"/>
     <use xlink:href="#ma8bb69f2a1" x="360.8064" y="42.157241" style="fill: #f5deb3; stroke: #f5deb3; stroke-width: 1.5; stroke-linejoin: miter"/>
    </g>
   </g>
   <g id="line2d_3">
    <path style="fill: none; stroke: #f5deb3; stroke-width: 4; stroke-linecap: square"/>
    <g/>
   </g>
   <g id="line2d_4">
    <path d="M 360.8064 42.157241 
L 380.514816 12.75264 
" style="fill: none; stroke: #f5deb3; stroke-width: 4; stroke-linecap: square"/>
    <g>
     <use xlink:href="#ma8bb69f2a1" x="360.8064" y="42.157241" style="fill: #f5deb3; stroke: #f5deb3; stroke-width: 1.5; stroke-linejoin: miter"/>
     <use xlink:href="#ma8bb69f2a1" x="380.514816" y="12.75264" style="fill: #f5deb3; stroke: #f5deb3; stroke-width: 1.5; stroke-linejoin: miter"/>
    </g>
   </g>
   <g id="matplotlib.axis_1">
    <g id="xtick_1">
     <g id="line2d_5">
      <path d="M 57.6 298.944 
L 57.6 6.912 
" clip-path="url(#p32f6185b35)" style="fill: none; stroke: #b0b0b0; stroke-width: 0.8; stroke-linecap: square"/>
     </g>
     <g id="line2d_6">
      <defs>
       <path id="mf165c6a1ed" d="M 0 0 
L 0 3.5 
" style="stroke: #000000; stroke-width: 0.8"/>
      </defs>
      <g>
       <use xlink:href="#mf165c6a1ed" x="57.6" y="298.944" style="stroke: #000000; stroke-width: 0.8"/>
      </g>
     </g>
     <g id="text_1">
      <!-- 0 -->
      <g transform="translate(52.191875 318.861344)scale(0.17 -0.17)">
       <defs>
        <path id="DejaVuSans-30" d="M 2034 4250 
Q 1547 4250 1301 3770 
Q 1056 3291 1056 2328 
Q 1056 1369 1301 889 
Q 1547 409 2034 409 
Q 2525 409 2770 889 
Q 3016 1369 3016 2328 
Q 3016 3291 2770 3770 
Q 2525 4250 2034 4250 
z
M 2034 4750 
Q 2819 4750 3233 4129 
Q 3647 3509 3647 2328 
Q 3647 1150 3233 529 
Q 2819 -91 2034 -91 
Q 1250 -91 836 529 
Q 422 1150 422 2328 
Q 422 3509 836 4129 
Q 1250 4750 2034 4750 
z
" transform="scale(0.015625)"/>
       </defs>
       <use xlink:href="#DejaVuSans-30"/>
      </g>
     </g>
    </g>
    <g id="xtick_2">
     <g id="line2d_7">
      <path d="M 144.2304 298.944 
L 144.2304 6.912 
" clip-path="url(#p32f6185b35)" style="fill: none; stroke: #b0b0b0; stroke-width: 0.8; stroke-linecap: square"/>
     </g>
     <g id="line2d_8">
      <g>
       <use xlink:href="#mf165c6a1ed" x="144.2304" y="298.944" style="stroke: #000000; stroke-width: 0.8"/>
      </g>
     </g>
     <g id="text_2">
      <!-- 2 -->
      <g transform="translate(138.822275 318.861344)scale(0.17 -0.17)">
       <defs>
        <path id="DejaVuSans-32" d="M 1228 531 
L 3431 531 
L 3431 0 
L 469 0 
L 469 531 
Q 828 903 1448 1529 
Q 2069 2156 2228 2338 
Q 2531 2678 2651 2914 
Q 2772 3150 2772 3378 
Q 2772 3750 2511 3984 
Q 2250 4219 1831 4219 
Q 1534 4219 1204 4116 
Q 875 4013 500 3803 
L 500 4441 
Q 881 4594 1212 4672 
Q 1544 4750 1819 4750 
Q 2544 4750 2975 4387 
Q 3406 4025 3406 3419 
Q 3406 3131 3298 2873 
Q 3191 2616 2906 2266 
Q 2828 2175 2409 1742 
Q 1991 1309 1228 531 
z
" transform="scale(0.015625)"/>
       </defs>
       <use xlink:href="#DejaVuSans-32"/>
      </g>
     </g>
    </g>
    <g id="xtick_3">
     <g id="line2d_9">
      <path d="M 230.8608 298.944 
L 230.8608 6.912 
" clip-path="url(#p32f6185b35)" style="fill: none; stroke: #b0b0b0; stroke-width: 0.8; stroke-linecap: square"/>
     </g>
     <g id="line2d_10">
      <g>
       <use xlink:href="#mf165c6a1ed" x="230.8608" y="298.944" style="stroke: #000000; stroke-width: 0.8"/>
      </g>
     </g>
     <g id="text_3">
      <!-- 4 -->
      <g transform="translate(225.452675 318.861344)scale(0.17 -0.17)">
       <defs>
        <path id="DejaVuSans-34" d="M 2419 4116 
L 825 1625 
L 2419 1625 
L 2419 4116 
z
M 2253 4666 
L 3047 4666 
L 3047 1625 
L 3713 1625 
L 3713 1100 
L 3047 1100 
L 3047 0 
L 2419 0 
L 2419 1100 
L 313 1100 
L 313 1709 
L 2253 4666 
z
" transform="scale(0.015625)"/>
       </defs>
       <use xlink:href="#DejaVuSans-34"/>
      </g>
     </g>
    </g>
    <g id="xtick_4">
     <g id="line2d_11">
      <path d="M 317.4912 298.944 
L 317.4912 6.912 
" clip-path="url(#p32f6185b35)" style="fill: none; stroke: #b0b0b0; stroke-width: 0.8; stroke-linecap: square"/>
     </g>
     <g id="line2d_12">
      <g>
       <use xlink:href="#mf165c6a1ed" x="317.4912" y="298.944" style="stroke: #000000; stroke-width: 0.8"/>
      </g>
     </g>
     <g id="text_4">
      <!-- 6 -->
      <g transform="translate(312.083075 318.861344)scale(0.17 -0.17)">
       <defs>
        <path id="DejaVuSans-36" d="M 2113 2584 
Q 1688 2584 1439 2293 
Q 1191 2003 1191 1497 
Q 1191 994 1439 701 
Q 1688 409 2113 409 
Q 2538 409 2786 701 
Q 3034 994 3034 1497 
Q 3034 2003 2786 2293 
Q 2538 2584 2113 2584 
z
M 3366 4563 
L 3366 3988 
Q 3128 4100 2886 4159 
Q 2644 4219 2406 4219 
Q 1781 4219 1451 3797 
Q 1122 3375 1075 2522 
Q 1259 2794 1537 2939 
Q 1816 3084 2150 3084 
Q 2853 3084 3261 2657 
Q 3669 2231 3669 1497 
Q 3669 778 3244 343 
Q 2819 -91 2113 -91 
Q 1303 -91 875 529 
Q 447 1150 447 2328 
Q 447 3434 972 4092 
Q 1497 4750 2381 4750 
Q 2619 4750 2861 4703 
Q 3103 4656 3366 4563 
z
" transform="scale(0.015625)"/>
       </defs>
       <use xlink:href="#DejaVuSans-36"/>
      </g>
     </g>
    </g>
    <g id="xtick_5">
     <g id="line2d_13">
      <path d="M 100.9152 298.944 
L 100.9152 6.912 
" clip-path="url(#p32f6185b35)" style="fill: none; stroke: #b0b0b0; stroke-width: 0.8; stroke-linecap: square"/>
     </g>
     <g id="line2d_14">
      <defs>
       <path id="m3fc4d0cf85" d="M 0 0 
L 0 2 
" style="stroke: #000000; stroke-width: 0.6"/>
      </defs>
      <g>
       <use xlink:href="#m3fc4d0cf85" x="100.9152" y="298.944" style="stroke: #000000; stroke-width: 0.6"/>
      </g>
     </g>
    </g>
    <g id="xtick_6">
     <g id="line2d_15">
      <path d="M 187.5456 298.944 
L 187.5456 6.912 
" clip-path="url(#p32f6185b35)" style="fill: none; stroke: #b0b0b0; stroke-width: 0.8; stroke-linecap: square"/>
     </g>
     <g id="line2d_16">
      <g>
       <use xlink:href="#m3fc4d0cf85" x="187.5456" y="298.944" style="stroke: #000000; stroke-width: 0.6"/>
      </g>
     </g>
    </g>
    <g id="xtick_7">
     <g id="line2d_17">
      <path d="M 274.176 298.944 
L 274.176 6.912 
" clip-path="url(#p32f6185b35)" style="fill: none; stroke: #b0b0b0; stroke-width: 0.8; stroke-linecap: square"/>
     </g>
     <g id="line2d_18">
      <g>
       <use xlink:href="#m3fc4d0cf85" x="274.176" y="298.944" style="stroke: #000000; stroke-width: 0.6"/>
      </g>
     </g>
    </g>
    <g id="xtick_8">
     <g id="line2d_19">
      <path d="M 360.8064 298.944 
L 360.8064 6.912 
" clip-path="url(#p32f6185b35)" style="fill: none; stroke: #b0b0b0; stroke-width: 0.8; stroke-linecap: square"/>
     </g>
     <g id="line2d_20">
      <g>
       <use xlink:href="#m3fc4d0cf85" x="360.8064" y="298.944" style="stroke: #000000; stroke-width: 0.6"/>
      </g>
     </g>
    </g>
    <g id="text_5">
     <!-- log10(# f-evals / dimension) -->
     <g transform="translate(88.823278 339.314156)scale(0.17 -0.17)">
      <defs>
       <path id="DejaVuSans-6c" d="M 603 4863 
L 1178 4863 
L 1178 0 
L 603 0 
L 603 4863 
z
" transform="scale(0.015625)"/>
       <path id="DejaVuSans-6f" d="M 1959 3097 
Q 1497 3097 1228 2736 
Q 959 2375 959 1747 
Q 959 1119 1226 758 
Q 1494 397 1959 397 
Q 2419 397 2687 759 
Q 2956 1122 2956 1747 
Q 2956 2369 2687 2733 
Q 2419 3097 1959 3097 
z
M 1959 3584 
Q 2709 3584 3137 3096 
Q 3566 2609 3566 1747 
Q 3566 888 3137 398 
Q 2709 -91 1959 -91 
Q 1206 -91 779 398 
Q 353 888 353 1747 
Q 353 2609 779 3096 
Q 1206 3584 1959 3584 
z
" transform="scale(0.015625)"/>
       <path id="DejaVuSans-67" d="M 2906 1791 
Q 2906 2416 2648 2759 
Q 2391 3103 1925 3103 
Q 1463 3103 1205 2759 
Q 947 2416 947 1791 
Q 947 1169 1205 825 
Q 1463 481 1925 481 
Q 2391 481 2648 825 
Q 2906 1169 2906 1791 
z
M 3481 434 
Q 3481 -459 3084 -895 
Q 2688 -1331 1869 -1331 
Q 1566 -1331 1297 -1286 
Q 1028 -1241 775 -1147 
L 775 -588 
Q 1028 -725 1275 -790 
Q 1522 -856 1778 -856 
Q 2344 -856 2625 -561 
Q 2906 -266 2906 331 
L 2906 616 
Q 2728 306 2450 153 
Q 2172 0 1784 0 
Q 1141 0 747 490 
Q 353 981 353 1791 
Q 353 2603 747 3093 
Q 1141 3584 1784 3584 
Q 2172 3584 2450 3431 
Q 2728 3278 2906 2969 
L 2906 3500 
L 3481 3500 
L 3481 434 
z
" transform="scale(0.015625)"/>
       <path id="DejaVuSans-31" d="M 794 531 
L 1825 531 
L 1825 4091 
L 703 3866 
L 703 4441 
L 1819 4666 
L 2450 4666 
L 2450 531 
L 3481 531 
L 3481 0 
L 794 0 
L 794 531 
z
" transform="scale(0.015625)"/>
       <path id="DejaVuSans-28" d="M 1984 4856 
Q 1566 4138 1362 3434 
Q 1159 2731 1159 2009 
Q 1159 1288 1364 580 
Q 1569 -128 1984 -844 
L 1484 -844 
Q 1016 -109 783 600 
Q 550 1309 550 2009 
Q 550 2706 781 3412 
Q 1013 4119 1484 4856 
L 1984 4856 
z
" transform="scale(0.015625)"/>
       <path id="DejaVuSans-23" d="M 3272 2816 
L 2363 2816 
L 2100 1772 
L 3016 1772 
L 3272 2816 
z
M 2803 4594 
L 2478 3297 
L 3391 3297 
L 3719 4594 
L 4219 4594 
L 3897 3297 
L 4872 3297 
L 4872 2816 
L 3775 2816 
L 3519 1772 
L 4513 1772 
L 4513 1294 
L 3397 1294 
L 3072 0 
L 2572 0 
L 2894 1294 
L 1978 1294 
L 1656 0 
L 1153 0 
L 1478 1294 
L 494 1294 
L 494 1772 
L 1594 1772 
L 1856 2816 
L 850 2816 
L 850 3297 
L 1978 3297 
L 2297 4594 
L 2803 4594 
z
" transform="scale(0.015625)"/>
       <path id="DejaVuSans-20" transform="scale(0.015625)"/>
       <path id="DejaVuSans-66" d="M 2375 4863 
L 2375 4384 
L 1825 4384 
Q 1516 4384 1395 4259 
Q 1275 4134 1275 3809 
L 1275 3500 
L 2222 3500 
L 2222 3053 
L 1275 3053 
L 1275 0 
L 697 0 
L 697 3053 
L 147 3053 
L 147 3500 
L 697 3500 
L 697 3744 
Q 697 4328 969 4595 
Q 1241 4863 1831 4863 
L 2375 4863 
z
" transform="scale(0.015625)"/>
       <path id="DejaVuSans-2d" d="M 313 2009 
L 1997 2009 
L 1997 1497 
L 313 1497 
L 313 2009 
z
" transform="scale(0.015625)"/>
       <path id="DejaVuSans-65" d="M 3597 1894 
L 3597 1613 
L 953 1613 
Q 991 1019 1311 708 
Q 1631 397 2203 397 
Q 2534 397 2845 478 
Q 3156 559 3463 722 
L 3463 178 
Q 3153 47 2828 -22 
Q 2503 -91 2169 -91 
Q 1331 -91 842 396 
Q 353 884 353 1716 
Q 353 2575 817 3079 
Q 1281 3584 2069 3584 
Q 2775 3584 3186 3129 
Q 3597 2675 3597 1894 
z
M 3022 2063 
Q 3016 2534 2758 2815 
Q 2500 3097 2075 3097 
Q 1594 3097 1305 2825 
Q 1016 2553 972 2059 
L 3022 2063 
z
" transform="scale(0.015625)"/>
       <path id="DejaVuSans-76" d="M 191 3500 
L 800 3500 
L 1894 563 
L 2988 3500 
L 3597 3500 
L 2284 0 
L 1503 0 
L 191 3500 
z
" transform="scale(0.015625)"/>
       <path id="DejaVuSans-61" d="M 2194 1759 
Q 1497 1759 1228 1600 
Q 959 1441 959 1056 
Q 959 750 1161 570 
Q 1363 391 1709 391 
Q 2188 391 2477 730 
Q 2766 1069 2766 1631 
L 2766 1759 
L 2194 1759 
z
M 3341 1997 
L 3341 0 
L 2766 0 
L 2766 531 
Q 2569 213 2275 61 
Q 1981 -91 1556 -91 
Q 1019 -91 701 211 
Q 384 513 384 1019 
Q 384 1609 779 1909 
Q 1175 2209 1959 2209 
L 2766 2209 
L 2766 2266 
Q 2766 2663 2505 2880 
Q 2244 3097 1772 3097 
Q 1472 3097 1187 3025 
Q 903 2953 641 2809 
L 641 3341 
Q 956 3463 1253 3523 
Q 1550 3584 1831 3584 
Q 2591 3584 2966 3190 
Q 3341 2797 3341 1997 
z
" transform="scale(0.015625)"/>
       <path id="DejaVuSans-73" d="M 2834 3397 
L 2834 2853 
Q 2591 2978 2328 3040 
Q 2066 3103 1784 3103 
Q 1356 3103 1142 2972 
Q 928 2841 928 2578 
Q 928 2378 1081 2264 
Q 1234 2150 1697 2047 
L 1894 2003 
Q 2506 1872 2764 1633 
Q 3022 1394 3022 966 
Q 3022 478 2636 193 
Q 2250 -91 1575 -91 
Q 1294 -91 989 -36 
Q 684 19 347 128 
L 347 722 
Q 666 556 975 473 
Q 1284 391 1588 391 
Q 1994 391 2212 530 
Q 2431 669 2431 922 
Q 2431 1156 2273 1281 
Q 2116 1406 1581 1522 
L 1381 1569 
Q 847 1681 609 1914 
Q 372 2147 372 2553 
Q 372 3047 722 3315 
Q 1072 3584 1716 3584 
Q 2034 3584 2315 3537 
Q 2597 3491 2834 3397 
z
" transform="scale(0.015625)"/>
       <path id="DejaVuSans-2f" d="M 1625 4666 
L 2156 4666 
L 531 -594 
L 0 -594 
L 1625 4666 
z
" transform="scale(0.015625)"/>
       <path id="DejaVuSans-64" d="M 2906 2969 
L 2906 4863 
L 3481 4863 
L 3481 0 
L 2906 0 
L 2906 525 
Q 2725 213 2448 61 
Q 2172 -91 1784 -91 
Q 1150 -91 751 415 
Q 353 922 353 1747 
Q 353 2572 751 3078 
Q 1150 3584 1784 3584 
Q 2172 3584 2448 3432 
Q 2725 3281 2906 2969 
z
M 947 1747 
Q 947 1113 1208 752 
Q 1469 391 1925 391 
Q 2381 391 2643 752 
Q 2906 1113 2906 1747 
Q 2906 2381 2643 2742 
Q 2381 3103 1925 3103 
Q 1469 3103 1208 2742 
Q 947 2381 947 1747 
z
" transform="scale(0.015625)"/>
       <path id="DejaVuSans-69" d="M 603 3500 
L 1178 3500 
L 1178 0 
L 603 0 
L 603 3500 
z
M 603 4863 
L 1178 4863 
L 1178 4134 
L 603 4134 
L 603 4863 
z
" transform="scale(0.015625)"/>
       <path id="DejaVuSans-6d" d="M 3328 2828 
Q 3544 3216 3844 3400 
Q 4144 3584 4550 3584 
Q 5097 3584 5394 3201 
Q 5691 2819 5691 2113 
L 5691 0 
L 5113 0 
L 5113 2094 
Q 5113 2597 4934 2840 
Q 4756 3084 4391 3084 
Q 3944 3084 3684 2787 
Q 3425 2491 3425 1978 
L 3425 0 
L 2847 0 
L 2847 2094 
Q 2847 2600 2669 2842 
Q 2491 3084 2119 3084 
Q 1678 3084 1418 2786 
Q 1159 2488 1159 1978 
L 1159 0 
L 581 0 
L 581 3500 
L 1159 3500 
L 1159 2956 
Q 1356 3278 1631 3431 
Q 1906 3584 2284 3584 
Q 2666 3584 2933 3390 
Q 3200 3197 3328 2828 
z
" transform="scale(0.015625)"/>
       <path id="DejaVuSans-6e" d="M 3513 2113 
L 3513 0 
L 2938 0 
L 2938 2094 
Q 2938 2591 2744 2837 
Q 2550 3084 2163 3084 
Q 1697 3084 1428 2787 
Q 1159 2491 1159 1978 
L 1159 0 
L 581 0 
L 581 3500 
L 1159 3500 
L 1159 2956 
Q 1366 3272 1645 3428 
Q 1925 3584 2291 3584 
Q 2894 3584 3203 3211 
Q 3513 2838 3513 2113 
z
" transform="scale(0.015625)"/>
       <path id="DejaVuSans-29" d="M 513 4856 
L 1013 4856 
Q 1481 4119 1714 3412 
Q 1947 2706 1947 2009 
Q 1947 1309 1714 600 
Q 1481 -109 1013 -844 
L 513 -844 
Q 928 -128 1133 580 
Q 1338 1288 1338 2009 
Q 1338 2731 1133 3434 
Q 928 4138 513 4856 
z
" transform="scale(0.015625)"/>
      </defs>
      <use xlink:href="#DejaVuSans-6c"/>
      <use xlink:href="#DejaVuSans-6f" x="27.783203"/>
      <use xlink:href="#DejaVuSans-67" x="88.964844"/>
      <use xlink:href="#DejaVuSans-31" x="152.441406"/>
      <use xlink:href="#DejaVuSans-30" x="216.064453"/>
      <use xlink:href="#DejaVuSans-28" x="279.6875"/>
      <use xlink:href="#DejaVuSans-23" x="318.701172"/>
      <use xlink:href="#DejaVuSans-20" x="402.490234"/>
      <use xlink:href="#DejaVuSans-66" x="434.277344"/>
      <use xlink:href="#DejaVuSans-2d" x="463.982422"/>
      <use xlink:href="#DejaVuSans-65" x="500.066406"/>
      <use xlink:href="#DejaVuSans-76" x="561.589844"/>
      <use xlink:href="#DejaVuSans-61" x="620.769531"/>
      <use xlink:href="#DejaVuSans-6c" x="682.048828"/>
      <use xlink:href="#DejaVuSans-73" x="709.832031"/>
      <use xlink:href="#DejaVuSans-20" x="761.931641"/>
      <use xlink:href="#DejaVuSans-2f" x="793.71875"/>
      <use xlink:href="#DejaVuSans-20" x="827.410156"/>
      <use xlink:href="#DejaVuSans-64" x="859.197266"/>
      <use xlink:href="#DejaVuSans-69" x="922.673828"/>
      <use xlink:href="#DejaVuSans-6d" x="950.457031"/>
      <use xlink:href="#DejaVuSans-65" x="1047.869141"/>
      <use xlink:href="#DejaVuSans-6e" x="1109.392578"/>
      <use xlink:href="#DejaVuSans-73" x="1172.771484"/>
      <use xlink:href="#DejaVuSans-69" x="1224.871094"/>
      <use xlink:href="#DejaVuSans-6f" x="1252.654297"/>
      <use xlink:href="#DejaVuSans-6e" x="1313.835938"/>
      <use xlink:href="#DejaVuSans-29" x="1377.214844"/>
     </g>
    </g>
   </g>
   <g id="matplotlib.axis_2">
    <g id="ytick_1">
     <g id="line2d_21">
      <path d="M 57.6 298.944 
L 360.8064 298.944 
" clip-path="url(#p32f6185b35)" style="fill: none; stroke: #b0b0b0; stroke-width: 0.8; stroke-linecap: square"/>
     </g>
     <g id="line2d_22">
      <defs>
       <path id="m9825245a9e" d="M 0 0 
L -3.5 0 
" style="stroke: #000000; stroke-width: 0.8"/>
      </defs>
      <g>
       <use xlink:href="#m9825245a9e" x="57.6" y="298.944" style="stroke: #000000; stroke-width: 0.8"/>
      </g>
     </g>
     <g id="text_6">
      <!-- 0.0 -->
      <g transform="translate(25.155 305.02275)scale(0.16 -0.16)">
       <defs>
        <path id="DejaVuSans-2e" d="M 684 794 
L 1344 794 
L 1344 0 
L 684 0 
L 684 794 
z
" transform="scale(0.015625)"/>
       </defs>
       <use xlink:href="#DejaVuSans-30"/>
       <use xlink:href="#DejaVuSans-2e" x="63.623047"/>
       <use xlink:href="#DejaVuSans-30" x="95.410156"/>
      </g>
     </g>
    </g>
    <g id="ytick_2">
     <g id="line2d_23">
      <path d="M 57.6 240.5376 
L 360.8064 240.5376 
" clip-path="url(#p32f6185b35)" style="fill: none; stroke: #b0b0b0; stroke-width: 0.8; stroke-linecap: square"/>
     </g>
     <g id="line2d_24">
      <g>
       <use xlink:href="#m9825245a9e" x="57.6" y="240.5376" style="stroke: #000000; stroke-width: 0.8"/>
      </g>
     </g>
     <g id="text_7">
      <!-- 0.2 -->
      <g transform="translate(25.155 246.61635)scale(0.16 -0.16)">
       <use xlink:href="#DejaVuSans-30"/>
       <use xlink:href="#DejaVuSans-2e" x="63.623047"/>
       <use xlink:href="#DejaVuSans-32" x="95.410156"/>
      </g>
     </g>
    </g>
    <g id="ytick_3">
     <g id="line2d_25">
      <path d="M 57.6 182.1312 
L 360.8064 182.1312 
" clip-path="url(#p32f6185b35)" style="fill: none; stroke: #b0b0b0; stroke-width: 0.8; stroke-linecap: square"/>
     </g>
     <g id="line2d_26">
      <g>
       <use xlink:href="#m9825245a9e" x="57.6" y="182.1312" style="stroke: #000000; stroke-width: 0.8"/>
      </g>
     </g>
     <g id="text_8">
      <!-- 0.4 -->
      <g transform="translate(25.155 188.20995)scale(0.16 -0.16)">
       <use xlink:href="#DejaVuSans-30"/>
       <use xlink:href="#DejaVuSans-2e" x="63.623047"/>
       <use xlink:href="#DejaVuSans-34" x="95.410156"/>
      </g>
     </g>
    </g>
    <g id="ytick_4">
     <g id="line2d_27">
      <path d="M 57.6 123.7248 
L 360.8064 123.7248 
" clip-path="url(#p32f6185b35)" style="fill: none; stroke: #b0b0b0; stroke-width: 0.8; stroke-linecap: square"/>
     </g>
     <g id="line2d_28">
      <g>
       <use xlink:href="#m9825245a9e" x="57.6" y="123.7248" style="stroke: #000000; stroke-width: 0.8"/>
      </g>
     </g>
     <g id="text_9">
      <!-- 0.6 -->
      <g transform="translate(25.155 129.80355)scale(0.16 -0.16)">
       <use xlink:href="#DejaVuSans-30"/>
       <use xlink:href="#DejaVuSans-2e" x="63.623047"/>
       <use xlink:href="#DejaVuSans-36" x="95.410156"/>
      </g>
     </g>
    </g>
    <g id="ytick_5">
     <g id="line2d_29">
      <path d="M 57.6 65.3184 
L 360.8064 65.3184 
" clip-path="url(#p32f6185b35)" style="fill: none; stroke: #b0b0b0; stroke-width: 0.8; stroke-linecap: square"/>
     </g>
     <g id="line2d_30">
      <g>
       <use xlink:href="#m9825245a9e" x="57.6" y="65.3184" style="stroke: #000000; stroke-width: 0.8"/>
      </g>
     </g>
     <g id="text_10">
      <!-- 0.8 -->
      <g transform="translate(25.155 71.39715)scale(0.16 -0.16)">
       <defs>
        <path id="DejaVuSans-38" d="M 2034 2216 
Q 1584 2216 1326 1975 
Q 1069 1734 1069 1313 
Q 1069 891 1326 650 
Q 1584 409 2034 409 
Q 2484 409 2743 651 
Q 3003 894 3003 1313 
Q 3003 1734 2745 1975 
Q 2488 2216 2034 2216 
z
M 1403 2484 
Q 997 2584 770 2862 
Q 544 3141 544 3541 
Q 544 4100 942 4425 
Q 1341 4750 2034 4750 
Q 2731 4750 3128 4425 
Q 3525 4100 3525 3541 
Q 3525 3141 3298 2862 
Q 3072 2584 2669 2484 
Q 3125 2378 3379 2068 
Q 3634 1759 3634 1313 
Q 3634 634 3220 271 
Q 2806 -91 2034 -91 
Q 1263 -91 848 271 
Q 434 634 434 1313 
Q 434 1759 690 2068 
Q 947 2378 1403 2484 
z
M 1172 3481 
Q 1172 3119 1398 2916 
Q 1625 2713 2034 2713 
Q 2441 2713 2670 2916 
Q 2900 3119 2900 3481 
Q 2900 3844 2670 4047 
Q 2441 4250 2034 4250 
Q 1625 4250 1398 4047 
Q 1172 3844 1172 3481 
z
" transform="scale(0.015625)"/>
       </defs>
       <use xlink:href="#DejaVuSans-30"/>
       <use xlink:href="#DejaVuSans-2e" x="63.623047"/>
       <use xlink:href="#DejaVuSans-38" x="95.410156"/>
      </g>
     </g>
    </g>
    <g id="ytick_6">
     <g id="line2d_31">
      <path d="M 57.6 6.912 
L 360.8064 6.912 
" clip-path="url(#p32f6185b35)" style="fill: none; stroke: #b0b0b0; stroke-width: 0.8; stroke-linecap: square"/>
     </g>
     <g id="line2d_32">
      <g>
       <use xlink:href="#m9825245a9e" x="57.6" y="6.912" style="stroke: #000000; stroke-width: 0.8"/>
      </g>
     </g>
     <g id="text_11">
      <!-- 1.0 -->
      <g transform="translate(25.155 12.99075)scale(0.16 -0.16)">
       <use xlink:href="#DejaVuSans-31"/>
       <use xlink:href="#DejaVuSans-2e" x="63.623047"/>
       <use xlink:href="#DejaVuSans-30" x="95.410156"/>
      </g>
     </g>
    </g>
    <g id="text_12">
     <!-- Fraction of function,target pairs -->
     <g transform="translate(17.619531 287.313)rotate(-90)scale(0.17 -0.17)">
      <defs>
       <path id="DejaVuSans-46" d="M 628 4666 
L 3309 4666 
L 3309 4134 
L 1259 4134 
L 1259 2759 
L 3109 2759 
L 3109 2228 
L 1259 2228 
L 1259 0 
L 628 0 
L 628 4666 
z
" transform="scale(0.015625)"/>
       <path id="DejaVuSans-72" d="M 2631 2963 
Q 2534 3019 2420 3045 
Q 2306 3072 2169 3072 
Q 1681 3072 1420 2755 
Q 1159 2438 1159 1844 
L 1159 0 
L 581 0 
L 581 3500 
L 1159 3500 
L 1159 2956 
Q 1341 3275 1631 3429 
Q 1922 3584 2338 3584 
Q 2397 3584 2469 3576 
Q 2541 3569 2628 3553 
L 2631 2963 
z
" transform="scale(0.015625)"/>
       <path id="DejaVuSans-63" d="M 3122 3366 
L 3122 2828 
Q 2878 2963 2633 3030 
Q 2388 3097 2138 3097 
Q 1578 3097 1268 2742 
Q 959 2388 959 1747 
Q 959 1106 1268 751 
Q 1578 397 2138 397 
Q 2388 397 2633 464 
Q 2878 531 3122 666 
L 3122 134 
Q 2881 22 2623 -34 
Q 2366 -91 2075 -91 
Q 1284 -91 818 406 
Q 353 903 353 1747 
Q 353 2603 823 3093 
Q 1294 3584 2113 3584 
Q 2378 3584 2631 3529 
Q 2884 3475 3122 3366 
z
" transform="scale(0.015625)"/>
       <path id="DejaVuSans-74" d="M 1172 4494 
L 1172 3500 
L 2356 3500 
L 2356 3053 
L 1172 3053 
L 1172 1153 
Q 1172 725 1289 603 
Q 1406 481 1766 481 
L 2356 481 
L 2356 0 
L 1766 0 
Q 1100 0 847 248 
Q 594 497 594 1153 
L 594 3053 
L 172 3053 
L 172 3500 
L 594 3500 
L 594 4494 
L 1172 4494 
z
" transform="scale(0.015625)"/>
       <path id="DejaVuSans-75" d="M 544 1381 
L 544 3500 
L 1119 3500 
L 1119 1403 
Q 1119 906 1312 657 
Q 1506 409 1894 409 
Q 2359 409 2629 706 
Q 2900 1003 2900 1516 
L 2900 3500 
L 3475 3500 
L 3475 0 
L 2900 0 
L 2900 538 
Q 2691 219 2414 64 
Q 2138 -91 1772 -91 
Q 1169 -91 856 284 
Q 544 659 544 1381 
z
M 1991 3584 
L 1991 3584 
z
" transform="scale(0.015625)"/>
       <path id="DejaVuSans-2c" d="M 750 794 
L 1409 794 
L 1409 256 
L 897 -744 
L 494 -744 
L 750 256 
L 750 794 
z
" transform="scale(0.015625)"/>
       <path id="DejaVuSans-70" d="M 1159 525 
L 1159 -1331 
L 581 -1331 
L 581 3500 
L 1159 3500 
L 1159 2969 
Q 1341 3281 1617 3432 
Q 1894 3584 2278 3584 
Q 2916 3584 3314 3078 
Q 3713 2572 3713 1747 
Q 3713 922 3314 415 
Q 2916 -91 2278 -91 
Q 1894 -91 1617 61 
Q 1341 213 1159 525 
z
M 3116 1747 
Q 3116 2381 2855 2742 
Q 2594 3103 2138 3103 
Q 1681 3103 1420 2742 
Q 1159 2381 1159 1747 
Q 1159 1113 1420 752 
Q 1681 391 2138 391 
Q 2594 391 2855 752 
Q 3116 1113 3116 1747 
z
" transform="scale(0.015625)"/>
      </defs>
      <use xlink:href="#DejaVuSans-46"/>
      <use xlink:href="#DejaVuSans-72" x="50.269531"/>
      <use xlink:href="#DejaVuSans-61" x="91.382812"/>
      <use xlink:href="#DejaVuSans-63" x="152.662109"/>
      <use xlink:href="#DejaVuSans-74" x="207.642578"/>
      <use xlink:href="#DejaVuSans-69" x="246.851562"/>
      <use xlink:href="#DejaVuSans-6f" x="274.634766"/>
      <use xlink:href="#DejaVuSans-6e" x="335.816406"/>
      <use xlink:href="#DejaVuSans-20" x="399.195312"/>
      <use xlink:href="#DejaVuSans-6f" x="430.982422"/>
      <use xlink:href="#DejaVuSans-66" x="492.164062"/>
      <use xlink:href="#DejaVuSans-20" x="527.369141"/>
      <use xlink:href="#DejaVuSans-66" x="559.15625"/>
      <use xlink:href="#DejaVuSans-75" x="594.361328"/>
      <use xlink:href="#DejaVuSans-6e" x="657.740234"/>
      <use xlink:href="#DejaVuSans-63" x="721.119141"/>
      <use xlink:href="#DejaVuSans-74" x="776.099609"/>
      <use xlink:href="#DejaVuSans-69" x="815.308594"/>
      <use xlink:href="#DejaVuSans-6f" x="843.091797"/>
      <use xlink:href="#DejaVuSans-6e" x="904.273438"/>
      <use xlink:href="#DejaVuSans-2c" x="967.652344"/>
      <use xlink:href="#DejaVuSans-74" x="999.439453"/>
      <use xlink:href="#DejaVuSans-61" x="1038.648438"/>
      <use xlink:href="#DejaVuSans-72" x="1099.927734"/>
      <use xlink:href="#DejaVuSans-67" x="1139.291016"/>
      <use xlink:href="#DejaVuSans-65" x="1202.767578"/>
      <use xlink:href="#DejaVuSans-74" x="1264.291016"/>
      <use xlink:href="#DejaVuSans-20" x="1303.5"/>
      <use xlink:href="#DejaVuSans-70" x="1335.287109"/>
      <use xlink:href="#DejaVuSans-61" x="1398.763672"/>
      <use xlink:href="#DejaVuSans-69" x="1460.042969"/>
      <use xlink:href="#DejaVuSans-72" x="1487.826172"/>
      <use xlink:href="#DejaVuSans-73" x="1528.939453"/>
     </g>
    </g>
   </g>
   <g id="line2d_33">
    <defs>
     <path id="me524694cd5" d="M 0 1.5 
C 0.397805 1.5 0.77937 1.341951 1.06066 1.06066 
C 1.341951 0.77937 1.5 0.397805 1.5 0 
C 1.5 -0.397805 1.341951 -0.77937 1.06066 -1.06066 
C 0.77937 -1.341951 0.397805 -1.5 0 -1.5 
C -0.397805 -1.5 -0.77937 -1.341951 -1.06066 -1.06066 
C -1.341951 -0.77937 -1.5 -0.397805 -1.5 0 
C -1.5 0.397805 -1.341951 0.77937 -1.06066 1.06066 
C -0.77937 1.341951 -0.397805 1.5 0 1.5 
z
" style="stroke: #f5deb3"/>
    </defs>
    <g>
     <use xlink:href="#me524694cd5" x="305.17239" y="42.157241" style="fill: #f5deb3; stroke: #f5deb3"/>
     <use xlink:href="#me524694cd5" x="305.17239" y="42.157241" style="fill: #f5deb3; stroke: #f5deb3"/>
    </g>
   </g>
   <g id="line2d_34">
    <defs>
     <path id="m75f6100db8" d="M 0 1.5 
C 0.397805 1.5 0.77937 1.341951 1.06066 1.06066 
C 1.341951 0.77937 1.5 0.397805 1.5 0 
C 1.5 -0.397805 1.341951 -0.77937 1.06066 -1.06066 
C 0.77937 -1.341951 0.397805 -1.5 0 -1.5 
C -0.397805 -1.5 -0.77937 -1.341951 -1.06066 -1.06066 
C -1.341951 -0.77937 -1.5 -0.397805 -1.5 0 
C -1.5 0.397805 -1.341951 0.77937 -1.06066 1.06066 
C -0.77937 1.341951 -0.397805 1.5 0 1.5 
z
" style="stroke: #000080"/>
    </defs>
    <g>
     <use xlink:href="#m75f6100db8" x="79.480672" y="276.11851" style="fill: #000080; stroke: #000080"/>
     <use xlink:href="#m75f6100db8" x="79.480672" y="276.11851" style="fill: #000080; stroke: #000080"/>
    </g>
   </g>
   <g id="line2d_35">
    <path d="M 14.2848 298.944 
L 14.2848 287.69909 
L 27.323974 287.69909 
L 27.323974 287.363421 
L 40.363149 287.363421 
L 40.363149 287.195586 
L 44.560826 287.195586 
L 44.560826 287.027752 
L 47.990577 287.027752 
L 47.990577 286.859917 
L 50.890391 286.859917 
L 50.890391 286.524248 
L 57.6 286.524248 
L 57.6 286.020745 
L 59.392932 286.020745 
L 59.392932 285.517241 
L 61.029752 285.517241 
L 61.029752 285.181572 
L 62.535479 285.181572 
L 62.535479 284.678069 
L 63.929565 284.678069 
L 63.929565 284.174566 
L 65.227428 284.174566 
L 65.227428 282.83189 
L 66.441498 282.83189 
L 66.441498 282.328386 
L 67.581941 282.328386 
L 67.581941 282.160552 
L 69.674268 282.160552 
L 69.674268 281.992717 
L 70.639174 281.992717 
L 70.639174 281.657048 
L 71.556993 281.657048 
L 71.556993 281.321379 
L 72.432107 281.321379 
L 72.432107 280.817876 
L 73.268314 280.817876 
L 73.268314 280.650041 
L 74.068926 280.650041 
L 74.068926 280.314372 
L 74.836851 280.314372 
L 74.836851 280.146538 
L 75.574654 280.146538 
L 75.574654 279.810869 
L 76.284608 279.810869 
L 76.284608 279.4752 
L 77.628862 279.4752 
L 77.628862 279.307366 
L 78.266603 279.307366 
L 78.266603 278.636028 
L 78.88343 278.636028 
L 78.88343 278.468193 
L 79.480672 278.468193 
L 79.480672 276.11851 
L 360.8064 276.11851 
" style="fill: none; stroke: #000080; stroke-width: 1.5; stroke-linecap: square"/>
   </g>
   <g id="line2d_36">
    <defs>
     <path id="mc04bf97973" d="M 0 6 
C 1.591219 6 3.117479 5.367802 4.242641 4.242641 
C 5.367802 3.117479 6 1.591219 6 0 
C 6 -1.591219 5.367802 -3.117479 4.242641 -4.242641 
C 3.117479 -5.367802 1.591219 -6 0 -6 
C -1.591219 -6 -3.117479 -5.367802 -4.242641 -4.242641 
C -5.367802 -3.117479 -6 -1.591219 -6 0 
C -6 1.591219 -5.367802 3.117479 -4.242641 4.242641 
C -3.117479 5.367802 -1.591219 6 0 6 
z
" style="stroke: #000080; stroke-width: 1.5"/>
    </defs>
    <g>
     <use xlink:href="#mc04bf97973" x="79.480672" y="278.468193" style="fill-opacity: 0; stroke: #000080; stroke-width: 1.5"/>
     <use xlink:href="#mc04bf97973" x="79.480672" y="278.468193" style="fill-opacity: 0; stroke: #000080; stroke-width: 1.5"/>
     <use xlink:href="#mc04bf97973" x="79.480672" y="276.11851" style="fill-opacity: 0; stroke: #000080; stroke-width: 1.5"/>
     <use xlink:href="#mc04bf97973" x="79.480672" y="276.11851" style="fill-opacity: 0; stroke: #000080; stroke-width: 1.5"/>
     <use xlink:href="#mc04bf97973" x="79.480672" y="276.11851" style="fill-opacity: 0; stroke: #000080; stroke-width: 1.5"/>
     <use xlink:href="#mc04bf97973" x="360.8064" y="276.11851" style="fill-opacity: 0; stroke: #000080; stroke-width: 1.5"/>
    </g>
   </g>
   <g id="line2d_37">
    <path style="fill: none; stroke: #000080; stroke-width: 1.5; stroke-linecap: square"/>
    <g/>
   </g>
   <g id="line2d_38">
    <path d="M 79.480672 276.11851 
" clip-path="url(#p32f6185b35)" style="fill: none; stroke: #000080; stroke-width: 1.5; stroke-linecap: square"/>
    <defs>
     <path id="m61525e17e1" d="M -12 12 
L 12 -12 
M -12 -12 
L 12 12 
" style="stroke: #000080"/>
    </defs>
    <g clip-path="url(#p32f6185b35)">
     <use xlink:href="#m61525e17e1" x="79.480672" y="276.11851" style="fill: #000080; stroke: #000080"/>
    </g>
   </g>
   <g id="line2d_39">
    <defs>
     <path id="ma14956d273" d="M 0 1.5 
C 0.397805 1.5 0.77937 1.341951 1.06066 1.06066 
C 1.341951 0.77937 1.5 0.397805 1.5 0 
C 1.5 -0.397805 1.341951 -0.77937 1.06066 -1.06066 
C 0.77937 -1.341951 0.397805 -1.5 0 -1.5 
C -0.397805 -1.5 -0.77937 -1.341951 -1.06066 -1.06066 
C -1.341951 -0.77937 -1.5 -0.397805 -1.5 0 
C -1.5 0.397805 -1.341951 0.77937 -1.06066 1.06066 
C -0.77937 1.341951 -0.397805 1.5 0 1.5 
z
" style="stroke: #ff00ff"/>
    </defs>
    <g>
     <use xlink:href="#ma14956d273" x="273.910281" y="129.766841" style="fill: #ff00ff; stroke: #ff00ff"/>
     <use xlink:href="#ma14956d273" x="273.910281" y="129.766841" style="fill: #ff00ff; stroke: #ff00ff"/>
    </g>
   </g>
   <g id="line2d_40">
    <path d="M 14.2848 298.944 
L 14.2848 287.69909 
L 44.560826 287.69909 
L 44.560826 287.027752 
L 53.402323 287.027752 
L 53.402323 286.692083 
L 59.392932 286.692083 
L 59.392932 286.524248 
L 66.441498 286.524248 
L 66.441498 286.356414 
L 70.639174 286.356414 
L 70.639174 286.020745 
L 74.068926 286.020745 
L 74.068926 285.85291 
L 74.836851 285.85291 
L 74.836851 285.685076 
L 79.480672 285.685076 
L 79.480672 285.181572 
L 82.211771 285.181572 
L 82.211771 285.013738 
L 89.323782 285.013738 
L 89.323782 284.845903 
L 90.007914 284.845903 
L 90.007914 284.678069 
L 92.519847 284.678069 
L 92.519847 284.510234 
L 93.934916 284.510234 
L 93.934916 284.3424 
L 95.503454 284.3424 
L 95.503454 284.174566 
L 96.480897 284.174566 
L 96.480897 284.006731 
L 97.857967 284.006731 
L 97.857967 283.503228 
L 98.723018 283.503228 
L 98.723018 283.335393 
L 99.346662 283.335393 
L 99.346662 283.167559 
L 99.550033 283.167559 
L 99.550033 282.83189 
L 100.342215 282.83189 
L 100.342215 282.496221 
L 100.535156 282.496221 
L 100.535156 282.328386 
L 101.287718 282.328386 
L 101.287718 282.160552 
L 101.653002 282.160552 
L 101.653002 281.824883 
L 102.011329 281.824883 
L 102.011329 281.657048 
L 104.187532 281.657048 
L 104.187532 281.489214 
L 104.344952 281.489214 
L 104.344952 281.321379 
L 105.26277 281.321379 
L 105.26277 281.153545 
L 105.559021 281.153545 
L 105.559021 280.98571 
L 106.560633 280.98571 
L 106.560633 280.817876 
L 107.109915 280.817876 
L 107.109915 280.650041 
L 107.244765 280.650041 
L 107.244765 280.146538 
L 107.774703 280.146538 
L 107.774703 279.978703 
L 108.915146 279.978703 
L 108.915146 279.810869 
L 109.520071 279.810869 
L 109.520071 279.643034 
L 109.990385 279.643034 
L 109.990385 279.4752 
L 110.221204 279.4752 
L 110.221204 279.139531 
L 110.897141 279.139531 
L 110.897141 278.971697 
L 111.117162 278.971697 
L 111.226215 278.636028 
L 111.442442 278.636028 
L 111.442442 278.468193 
L 111.86758 278.468193 
L 111.97238 278.132524 
L 112.385837 278.132524 
L 112.385837 277.96469 
L 112.790402 277.96469 
L 112.890198 277.629021 
L 113.381389 277.629021 
L 113.478107 277.125517 
L 114.418881 277.125517 
L 114.418881 276.957683 
L 114.7824 276.957683 
L 114.7824 276.454179 
L 115.489021 276.454179 
L 115.489021 276.11851 
L 115.917548 276.11851 
L 116.002095 275.615007 
L 116.419219 275.615007 
L 116.419219 275.447172 
L 116.827295 275.447172 
L 116.907859 275.111503 
L 117.1475 275.111503 
L 117.1475 274.943669 
L 117.305581 274.943669 
L 117.305581 274.775834 
L 117.772007 274.775834 
L 117.772007 274.608 
L 118.152051 274.608 
L 118.227147 274.104497 
L 118.301945 274.104497 
L 118.376446 273.433159 
L 118.450653 273.433159 
L 118.450653 272.761821 
L 119.807672 272.761821 
L 119.807672 272.593986 
L 120.41783 272.593986 
L 120.41783 272.426152 
L 120.616896 272.426152 
L 120.616896 271.586979 
L 121.201758 271.586979 
L 121.201758 271.419145 
L 121.455972 271.419145 
L 121.455972 271.083476 
L 122.19863 271.083476 
L 122.19863 270.915641 
L 122.379802 270.915641 
L 122.439807 270.412138 
L 122.618682 270.412138 
L 122.618682 270.244303 
L 123.769595 270.244303 
L 123.769595 269.572966 
L 123.991562 269.572966 
L 123.991562 269.405131 
L 124.588805 269.405131 
L 124.588805 269.237297 
L 125.577745 269.237297 
L 125.577745 269.069462 
L 127.227236 269.069462 
L 127.227236 268.901628 
L 127.640693 268.901628 
L 127.731351 268.398124 
L 127.776517 268.398124 
L 127.776517 268.23029 
L 128.000734 268.23029 
L 128.000734 267.558952 
L 129.209231 267.558952 
L 129.209231 267.391117 
L 129.375706 267.391117 
L 129.375706 266.551945 
L 129.622688 266.551945 
L 129.622688 266.38411 
L 130.067235 266.38411 
L 130.067235 266.216276 
L 130.226319 266.216276 
L 130.226319 266.048441 
L 132.708526 266.048441 
L 132.708526 265.712772 
L 133.983236 265.712772 
L 134.015642 265.377103 
L 138.076838 265.377103 
L 138.076838 265.209269 
L 138.515235 265.209269 
L 138.515235 264.705766 
L 138.718057 264.705766 
L 138.718057 264.537931 
L 139.117256 264.537931 
L 139.191172 263.866593 
L 139.914782 263.866593 
L 139.914782 263.698759 
L 140.702573 263.698759 
L 140.747902 263.027421 
L 141.48048 263.027421 
L 141.48048 262.691752 
L 142.122575 262.691752 
L 142.227492 262.020414 
L 142.311006 262.020414 
L 142.41488 261.51691 
L 142.723105 261.51691 
L 142.723105 261.349076 
L 142.844994 261.349076 
L 142.844994 261.013407 
L 142.966099 261.013407 
L 142.966099 260.677738 
L 143.599145 260.677738 
L 143.599145 260.509903 
L 143.83115 260.509903 
L 143.83115 260.174234 
L 143.946089 260.174234 
L 143.946089 260.0064 
L 144.06033 260.0064 
L 144.06033 259.838566 
L 144.267986 259.838566 
L 144.267986 259.670731 
L 144.547509 259.670731 
L 144.584466 259.335062 
L 144.804702 259.335062 
L 144.804702 259.167228 
L 145.040416 259.167228 
L 145.040416 258.999393 
L 145.219746 258.999393 
L 145.219746 258.831559 
L 145.344267 258.831559 
L 145.344267 258.663724 
L 145.590864 258.663724 
L 145.678157 258.328055 
L 145.79969 258.328055 
L 145.79969 257.992386 
L 146.362288 257.992386 
L 146.462796 257.321048 
L 146.595975 257.321048 
L 146.595975 257.153214 
L 146.711739 257.153214 
L 146.744684 256.817545 
L 146.859539 256.817545 
L 146.859539 255.978372 
L 147.103321 255.978372 
L 147.103321 255.810538 
L 147.407644 255.810538 
L 147.407644 255.642703 
L 147.660152 255.642703 
L 147.707122 255.307034 
L 147.816265 255.307034 
L 147.847333 254.971366 
L 147.971093 254.971366 
L 148.03267 254.635697 
L 148.139946 254.635697 
L 148.200973 253.293021 
L 148.503173 253.293021 
L 148.503173 253.125186 
L 148.637595 253.125186 
L 148.667336 252.789517 
L 148.771063 252.789517 
L 148.874221 252.118179 
L 148.976817 252.118179 
L 148.976817 251.950345 
L 149.122418 251.950345 
L 149.223672 251.614676 
L 149.338728 251.614676 
L 149.338728 250.943338 
L 149.538397 250.943338 
L 149.552579 250.439834 
L 149.693807 250.439834 
L 149.707872 249.936331 
L 149.806031 249.936331 
L 149.889763 249.097159 
L 150.124997 249.097159 
L 150.193627 248.425821 
L 150.262008 248.425821 
L 150.262008 248.257986 
L 150.546523 248.257986 
L 150.546523 248.090152 
L 150.693856 248.090152 
L 150.773735 247.586648 
L 150.919305 247.586648 
L 150.919305 247.418814 
L 151.050671 247.418814 
L 151.116012 247.083145 
L 151.375128 247.083145 
L 151.477784 246.411807 
L 151.528902 246.411807 
L 151.54166 246.076138 
L 151.643413 246.076138 
L 151.70673 245.740469 
L 151.782431 245.740469 
L 151.857828 244.565628 
L 151.895414 244.565628 
L 151.995276 244.062124 
L 152.181101 244.062124 
L 152.218047 243.558621 
L 152.377312 243.558621 
L 152.377312 243.390786 
L 152.547334 243.390786 
L 152.619733 242.551614 
L 152.703847 242.551614 
L 152.703847 242.383779 
L 152.953957 242.383779 
L 153.02481 241.880276 
L 153.409804 241.880276 
L 153.421349 241.544607 
L 153.639356 241.544607 
L 153.639356 241.208938 
L 153.832297 241.208938 
L 153.832297 241.041103 
L 154.267588 241.041103 
L 154.366625 240.034097 
L 154.399522 240.034097 
L 154.454223 239.698428 
L 154.530538 239.698428 
L 154.530538 239.362759 
L 154.725366 239.362759 
L 154.725366 239.194924 
L 154.875516 239.194924 
L 154.982037 238.691421 
L 155.161749 238.691421 
L 155.214281 238.020083 
L 155.277126 238.020083 
L 155.329337 236.845241 
L 155.557358 236.845241 
L 155.598521 236.341738 
L 156.045469 236.341738 
L 156.135597 235.838234 
L 156.185481 235.838234 
L 156.195443 235.502566 
L 156.501649 235.502566 
L 156.550574 235.166897 
L 156.618856 235.166897 
L 156.715973 234.495559 
L 156.745011 234.495559 
L 156.84148 233.992055 
L 157.04247 233.992055 
L 157.099504 233.320717 
L 157.156365 233.320717 
L 157.156365 232.985048 
L 157.354037 232.985048 
L 157.428797 232.31371 
L 157.651312 232.31371 
L 157.76159 230.299697 
L 157.943962 230.299697 
L 157.98928 229.964028 
L 158.2053 229.964028 
L 158.2053 229.796193 
L 158.330176 229.796193 
L 158.339064 229.29269 
L 158.673735 229.29269 
L 158.726038 228.453517 
L 158.804221 228.453517 
L 158.856162 228.117848 
L 158.993977 228.117848 
L 158.993977 227.950014 
L 159.173339 227.950014 
L 159.24122 227.278676 
L 159.401463 227.278676 
L 159.493615 225.936 
L 159.560352 225.936 
L 159.560352 225.600331 
L 159.68485 225.600331 
L 159.792086 224.42549 
L 159.833168 224.42549 
L 159.939564 222.914979 
L 160.020999 222.914979 
L 160.037244 222.243641 
L 160.255188 222.243641 
L 160.255188 221.907972 
L 160.4627 221.907972 
L 160.494422 221.236634 
L 160.636516 221.236634 
L 160.683643 220.565297 
L 160.917524 220.565297 
L 160.963953 220.229628 
L 161.125559 220.229628 
L 161.217285 219.390455 
L 161.262981 219.390455 
L 161.262981 219.222621 
L 161.444664 219.222621 
L 161.452196 218.886952 
L 161.572302 218.886952 
L 161.654432 218.215614 
L 161.691646 218.215614 
L 161.691646 217.879945 
L 161.920743 217.879945 
L 161.97209 216.872938 
L 162.147083 216.872938 
L 162.147083 216.537269 
L 162.262846 216.537269 
L 162.356383 216.033766 
L 162.38507 216.033766 
L 162.478002 215.194593 
L 162.513623 215.194593 
L 162.56338 214.523255 
L 162.761101 214.523255 
L 162.859187 213.851917 
L 163.03308 213.851917 
L 163.088387 213.348414 
L 163.219095 213.348414 
L 163.314829 212.509241 
L 163.33528 212.509241 
L 163.33528 212.173572 
L 163.457521 212.173572 
L 163.538576 211.502234 
L 163.619284 211.502234 
L 163.713007 210.663062 
L 163.786321 210.663062 
L 163.879217 209.991724 
L 163.899064 209.991724 
L 163.925494 208.984717 
L 164.20079 208.984717 
L 164.20079 208.649048 
L 164.472115 208.649048 
L 164.561694 208.313379 
L 164.701605 208.313379 
L 164.80901 207.138538 
L 164.9471 207.138538 
L 165.034451 206.131531 
L 165.146166 206.131531 
L 165.146166 205.795862 
L 165.337023 205.795862 
L 165.367626 205.292359 
L 165.562313 205.292359 
L 165.598594 204.95669 
L 165.701011 204.95669 
L 165.737026 204.285352 
L 165.969454 204.285352 
L 165.969454 203.949683 
L 166.087543 203.949683 
L 166.193193 203.446179 
L 166.292432 203.446179 
L 166.309891 202.439172 
L 166.483591 202.439172 
L 166.483591 202.103503 
L 166.615683 202.103503 
L 166.661411 201.6 
L 166.746854 201.6 
L 166.797933 201.096497 
L 166.933472 201.096497 
L 167.040085 200.08949 
L 167.062453 200.08949 
L 167.146097 199.418152 
L 167.312278 199.418152 
L 167.411287 198.578979 
L 167.444174 198.578979 
L 167.553385 197.907641 
L 167.683607 197.907641 
L 167.791441 196.7328 
L 167.989318 196.7328 
L 168.084835 196.229297 
L 168.29014 196.229297 
L 168.29014 196.061462 
L 168.550116 196.061462 
L 168.601683 195.22229 
L 168.678769 195.22229 
L 168.781062 194.215283 
L 168.887874 194.215283 
L 168.968849 193.711779 
L 169.109722 193.711779 
L 169.219673 193.208276 
L 169.229637 193.208276 
L 169.249549 192.872607 
L 169.383404 192.872607 
L 169.383404 192.704772 
L 169.540824 192.704772 
L 169.540824 192.369103 
L 169.730915 192.369103 
L 169.837305 191.529931 
L 169.856584 191.529931 
L 169.919104 190.690759 
L 170.038756 190.690759 
L 170.086404 189.515917 
L 170.233352 189.515917 
L 170.28522 188.844579 
L 170.397892 188.844579 
L 170.458643 187.837572 
L 170.579558 187.837572 
L 170.690486 187.334069 
L 170.731916 187.334069 
L 170.731916 186.9984 
L 170.846523 186.9984 
L 170.846523 186.830566 
L 171.324847 186.830566 
L 171.422616 186.494897 
L 171.599086 186.494897 
L 171.625414 185.823559 
L 172.007388 185.823559 
L 172.088851 184.648717 
L 172.178481 184.648717 
L 172.22526 183.977379 
L 172.293095 183.977379 
L 172.343812 183.64171 
L 172.461621 183.64171 
L 172.528611 182.802538 
L 172.595363 182.802538 
L 172.616174 182.466869 
L 172.732295 182.466869 
L 172.732295 182.1312 
L 172.876446 182.1312 
L 172.88465 181.795531 
L 173.129118 181.795531 
L 173.18167 180.956359 
L 173.302386 180.956359 
L 173.378441 180.285021 
L 173.521707 180.285021 
L 173.628445 179.949352 
L 173.750254 179.949352 
L 173.812816 179.445848 
L 173.863495 179.445848 
L 173.863495 179.278014 
L 174.003127 179.278014 
L 174.076407 178.77451 
L 174.118701 178.77451 
L 174.218295 177.935338 
L 174.237387 177.935338 
L 174.237387 177.599669 
L 174.393216 177.599669 
L 174.476303 176.760497 
L 174.585269 176.760497 
L 174.585269 176.424828 
L 174.882632 176.424828 
L 174.963589 175.75349 
L 175.062472 175.75349 
L 175.062472 175.417821 
L 175.186257 175.417821 
L 175.186257 175.249986 
L 175.420661 175.249986 
L 175.481488 174.746483 
L 175.534995 174.746483 
L 175.645098 174.242979 
L 175.740472 174.242979 
L 175.800275 173.90731 
L 175.894867 173.90731 
L 175.978552 172.732469 
L 176.158601 172.732469 
L 176.168936 172.228966 
L 176.299358 172.228966 
L 176.405089 171.221959 
L 176.41529 171.221959 
L 176.432278 170.88629 
L 176.655103 170.88629 
L 176.655103 170.550621 
L 176.825495 170.550621 
L 176.858725 169.879283 
L 177.033871 169.879283 
L 177.056883 169.207945 
L 177.350259 169.207945 
L 177.353493 168.704441 
L 177.648683 168.704441 
L 177.648683 168.368772 
L 177.829275 168.368772 
L 177.923632 168.033103 
L 178.176056 168.033103 
L 178.262532 167.361766 
L 178.299472 167.361766 
L 178.382322 166.690428 
L 178.470904 166.690428 
L 178.498311 166.354759 
L 178.649847 166.354759 
L 178.667949 166.01909 
L 178.845036 166.01909 
L 178.862952 165.683421 
L 179.070718 165.683421 
L 179.153186 165.179917 
L 179.308303 165.179917 
L 179.383934 164.676414 
L 179.58031 164.676414 
L 179.58031 164.508579 
L 179.888049 164.508579 
L 179.986709 164.005076 
L 180.020416 164.005076 
L 180.020416 163.837241 
L 180.343178 163.837241 
L 180.343178 163.669407 
L 180.747098 163.669407 
L 180.792944 163.333738 
L 181.036471 163.333738 
L 181.065696 162.830234 
L 181.297875 162.830234 
L 181.297875 162.6624 
L 181.573793 162.6624 
L 181.6743 162.326731 
L 181.705118 162.326731 
L 181.705118 162.158897 
L 181.909288 162.158897 
L 181.929584 161.655393 
L 182.131345 161.655393 
L 182.131345 161.319724 
L 182.258848 161.319724 
L 182.258848 161.15189 
L 182.511289 161.15189 
L 182.511289 160.816221 
L 182.655778 160.816221 
L 182.655778 160.648386 
L 182.828195 160.648386 
L 182.900575 160.312717 
L 182.958279 160.312717 
L 182.98227 159.30571 
L 183.336163 159.30571 
L 183.336163 159.137876 
L 184.743353 159.137876 
L 184.784791 158.802207 
L 184.966902 158.802207 
L 184.966902 158.466538 
L 185.433566 158.466538 
L 185.433566 158.298703 
L 186.117623 158.298703 
L 186.117623 158.130869 
L 187.175151 158.130869 
L 187.175151 157.7952 
L 187.80899 157.7952 
L 187.80899 157.459531 
L 188.054101 157.459531 
L 188.054101 157.291697 
L 188.234501 157.291697 
L 188.234501 157.123862 
L 188.963723 157.123862 
L 188.963723 156.956028 
L 190.79737 156.956028 
L 190.825834 156.620359 
L 191.367839 156.620359 
L 191.367839 156.452524 
L 191.503983 156.452524 
L 191.503983 156.28469 
L 193.376835 156.28469 
L 193.376835 156.116855 
L 194.071657 156.116855 
L 194.071657 155.949021 
L 194.786584 155.949021 
L 194.786584 155.613352 
L 195.423429 155.613352 
L 195.423429 155.277683 
L 196.054981 155.277683 
L 196.114719 154.942014 
L 196.231259 154.942014 
L 196.231259 154.774179 
L 196.492616 154.774179 
L 196.492616 154.606345 
L 197.85444 154.606345 
L 197.85444 154.43851 
L 197.970444 154.43851 
L 197.970444 154.270676 
L 198.37356 154.270676 
L 198.37356 154.102841 
L 198.58082 154.102841 
L 198.617405 153.767172 
L 199.17404 153.767172 
L 199.17404 153.599338 
L 199.501678 153.599338 
L 199.591134 153.095834 
L 200.2517 153.095834 
L 200.2517 152.760166 
L 200.404261 152.760166 
L 200.404261 152.592331 
L 200.796153 152.592331 
L 200.871338 152.256662 
L 200.908356 152.256662 
L 200.908356 152.088828 
L 201.144474 152.088828 
L 201.144474 151.920993 
L 201.288178 151.920993 
L 201.288178 151.585324 
L 202.225747 151.585324 
L 202.319472 151.081821 
L 202.980186 151.081821 
L 202.980186 150.913986 
L 203.543082 150.913986 
L 203.543082 150.746152 
L 203.752483 150.746152 
L 203.752483 150.578317 
L 204.411618 150.578317 
L 204.411618 150.242648 
L 204.745544 150.242648 
L 204.838051 149.906979 
L 205.739643 149.906979 
L 205.739643 149.739145 
L 206.007334 149.739145 
L 206.007334 149.57131 
L 206.779489 149.57131 
L 206.880044 149.067807 
L 207.821918 149.067807 
L 207.857735 148.732138 
L 209.082784 148.732138 
L 209.082784 148.564303 
L 210.185542 148.564303 
L 210.185542 148.396469 
L 210.717707 148.396469 
L 210.814605 147.892966 
L 211.370901 147.892966 
L 211.370901 147.557297 
L 211.879769 147.557297 
L 211.879769 147.389462 
L 213.865066 147.389462 
L 213.865066 147.221628 
L 214.730279 147.221628 
L 214.730279 147.053793 
L 215.016322 147.053793 
L 215.016322 146.718124 
L 215.485589 146.718124 
L 215.485589 146.55029 
L 215.995329 146.55029 
L 215.995329 146.382455 
L 216.710412 146.382455 
L 216.724775 145.878952 
L 217.25058 145.878952 
L 217.25058 145.711117 
L 217.456164 145.711117 
L 217.456164 145.543283 
L 217.753027 145.543283 
L 217.753027 145.375448 
L 217.875725 145.375448 
L 217.875725 145.207614 
L 218.089096 145.207614 
L 218.089096 145.039779 
L 220.435055 145.039779 
L 220.435055 144.871945 
L 222.796423 144.871945 
L 222.796423 144.70411 
L 223.248979 144.70411 
L 223.248979 144.536276 
L 224.273604 144.536276 
L 224.273604 144.200607 
L 224.42041 144.200607 
L 224.42041 144.032772 
L 225.129314 144.032772 
L 225.129314 143.697103 
L 227.850426 143.697103 
L 227.850426 143.529269 
L 228.670732 143.529269 
L 228.670732 143.361434 
L 230.181433 143.361434 
L 230.181433 143.025766 
L 230.843297 143.025766 
L 230.843297 142.857931 
L 230.983614 142.857931 
L 230.983614 142.522262 
L 232.032378 142.522262 
L 232.032378 142.186593 
L 232.474168 142.186593 
L 232.474168 142.018759 
L 232.81092 142.018759 
L 232.81092 141.68309 
L 233.52083 141.68309 
L 233.52083 141.515255 
L 234.400746 141.515255 
L 234.400746 141.179586 
L 235.96712 141.179586 
L 235.96712 140.843917 
L 236.187656 140.843917 
L 236.187656 140.676083 
L 236.982699 140.676083 
L 237.062551 140.172579 
L 237.340392 140.172579 
L 237.38925 139.83691 
L 237.652249 139.83691 
L 237.652249 139.669076 
L 239.254829 139.669076 
L 239.254829 139.333407 
L 240.123281 139.333407 
L 240.123281 139.165572 
L 240.745333 139.165572 
L 240.760455 138.662069 
L 240.93271 138.662069 
L 240.93271 138.494234 
L 242.629637 138.494234 
L 242.629637 138.3264 
L 244.093301 138.3264 
L 244.093301 138.158566 
L 245.416667 138.158566 
L 245.416667 137.990731 
L 247.545754 137.990731 
L 247.545754 137.822897 
L 249.619463 137.822897 
L 249.639924 137.319393 
L 249.743347 137.319393 
L 249.743347 137.151559 
L 250.084198 137.151559 
L 250.084198 136.983724 
L 250.3731 136.983724 
L 250.3731 136.81589 
L 254.298374 136.81589 
L 254.298374 136.648055 
L 255.156645 136.648055 
L 255.156645 136.480221 
L 255.770523 136.480221 
L 255.770523 136.144552 
L 256.258368 136.144552 
L 256.258368 135.976717 
L 257.281166 135.976717 
L 257.281166 135.641048 
L 257.671208 135.641048 
L 257.671208 135.473214 
L 258.046233 135.473214 
L 258.046233 135.305379 
L 258.294756 135.305379 
L 258.294756 135.137545 
L 259.071121 135.137545 
L 259.071121 134.96971 
L 260.093261 134.96971 
L 260.093261 134.801876 
L 260.686934 134.801876 
L 260.686934 134.634041 
L 260.946851 134.634041 
L 260.946851 134.298372 
L 261.29366 134.298372 
L 261.295861 133.962703 
L 262.385665 133.962703 
L 262.385665 133.794869 
L 264.17402 133.794869 
L 264.17402 133.627034 
L 265.644743 133.627034 
L 265.644743 133.4592 
L 265.914 133.4592 
L 265.914 133.291366 
L 266.193551 133.291366 
L 266.193551 133.123531 
L 267.066153 133.123531 
L 267.066153 132.955697 
L 267.737094 132.955697 
L 267.737094 132.620028 
L 267.861027 132.620028 
L 267.861027 132.452193 
L 268.034409 132.452193 
L 268.034409 132.284359 
L 268.267343 132.284359 
L 268.267343 131.94869 
L 268.775086 131.94869 
L 268.775086 131.613021 
L 268.980964 131.613021 
L 268.980964 131.277352 
L 269.933004 131.277352 
L 269.933004 130.941683 
L 270.592428 130.941683 
L 270.592428 130.773848 
L 270.714249 130.773848 
L 270.714249 130.438179 
L 271.536275 130.438179 
L 271.536275 130.270345 
L 273.517724 130.270345 
L 273.517724 130.10251 
L 273.856018 130.10251 
L 273.910281 129.766841 
L 360.8064 129.766841 
L 360.8064 129.766841 
" style="fill: none; stroke: #ff00ff; stroke-width: 1.5; stroke-linecap: square"/>
   </g>
   <g id="line2d_41">
    <defs>
     <path id="m241a3c5a50" d="M 0 8.485281 
L 5.091169 0 
L 0 -8.485281 
L -5.091169 0 
z
" style="stroke: #ff00ff; stroke-width: 1.5; stroke-linejoin: miter"/>
    </defs>
    <g>
     <use xlink:href="#m241a3c5a50" x="146.595975" y="257.153214" style="fill-opacity: 0; stroke: #ff00ff; stroke-width: 1.5; stroke-linejoin: miter"/>
     <use xlink:href="#m241a3c5a50" x="172.732295" y="182.1312" style="fill-opacity: 0; stroke: #ff00ff; stroke-width: 1.5; stroke-linejoin: miter"/>
     <use xlink:href="#m241a3c5a50" x="260.093261" y="134.801876" style="fill-opacity: 0; stroke: #ff00ff; stroke-width: 1.5; stroke-linejoin: miter"/>
     <use xlink:href="#m241a3c5a50" x="273.910281" y="129.766841" style="fill-opacity: 0; stroke: #ff00ff; stroke-width: 1.5; stroke-linejoin: miter"/>
     <use xlink:href="#m241a3c5a50" x="273.910281" y="129.766841" style="fill-opacity: 0; stroke: #ff00ff; stroke-width: 1.5; stroke-linejoin: miter"/>
     <use xlink:href="#m241a3c5a50" x="360.8064" y="129.766841" style="fill-opacity: 0; stroke: #ff00ff; stroke-width: 1.5; stroke-linejoin: miter"/>
    </g>
   </g>
   <g id="line2d_42">
    <path style="fill: none; stroke: #ff00ff; stroke-width: 1.5; stroke-linecap: square"/>
    <g/>
   </g>
   <g id="line2d_43">
    <path d="M 274.176019 129.766841 
" clip-path="url(#p32f6185b35)" style="fill: none; stroke: #ff00ff; stroke-width: 1.5; stroke-linecap: square"/>
    <defs>
     <path id="m98f53dbb72" d="M -12 12 
L 12 -12 
M -12 -12 
L 12 12 
" style="stroke: #ff00ff"/>
    </defs>
    <g clip-path="url(#p32f6185b35)">
     <use xlink:href="#m98f53dbb72" x="274.176019" y="129.766841" style="fill: #ff00ff; stroke: #ff00ff"/>
    </g>
   </g>
   <g id="line2d_44">
    <defs>
     <path id="me8a4b46d70" d="M 0 1.5 
C 0.397805 1.5 0.77937 1.341951 1.06066 1.06066 
C 1.341951 0.77937 1.5 0.397805 1.5 0 
C 1.5 -0.397805 1.341951 -0.77937 1.06066 -1.06066 
C 0.77937 -1.341951 0.397805 -1.5 0 -1.5 
C -0.397805 -1.5 -0.77937 -1.341951 -1.06066 -1.06066 
C -1.341951 -0.77937 -1.5 -0.397805 -1.5 0 
C -1.5 0.397805 -1.341951 0.77937 -1.06066 1.06066 
C -0.77937 1.341951 -0.397805 1.5 0 1.5 
z
" style="stroke: #6495ed"/>
    </defs>
    <g>
     <use xlink:href="#me8a4b46d70" x="113.954374" y="228.957021" style="fill: #6495ed; stroke: #6495ed"/>
     <use xlink:href="#me8a4b46d70" x="113.954374" y="228.957021" style="fill: #6495ed; stroke: #6495ed"/>
    </g>
   </g>
   <g id="line2d_45">
    <path d="M 14.2848 298.944 
L 14.2848 298.608331 
L 27.323974 298.608331 
L 27.323974 298.272662 
L 34.951403 298.272662 
L 34.951403 298.104828 
L 40.363149 298.104828 
L 40.363149 297.43349 
L 44.560826 297.43349 
L 44.560826 297.265655 
L 47.990577 297.265655 
L 47.990577 297.097821 
L 50.890391 297.097821 
L 50.890391 296.594317 
L 55.618005 296.594317 
L 55.618005 296.258648 
L 57.6 296.258648 
L 57.6 295.755145 
L 59.392932 295.755145 
L 59.392932 295.419476 
L 63.929565 295.419476 
L 63.929565 295.083807 
L 67.581941 295.083807 
L 67.581941 294.915972 
L 68.65718 294.915972 
L 68.65718 294.412469 
L 69.674268 294.412469 
L 69.674268 293.741131 
L 70.639174 293.741131 
L 70.639174 293.069793 
L 72.432107 293.069793 
L 72.432107 292.901959 
L 73.268314 292.901959 
L 73.268314 292.56629 
L 74.836851 292.56629 
L 74.836851 292.398455 
L 76.96874 292.398455 
L 76.96874 292.230621 
L 78.266603 292.230621 
L 78.266603 291.727117 
L 78.88343 291.727117 
L 78.88343 291.223614 
L 79.480672 291.223614 
L 79.480672 291.055779 
L 81.166416 291.055779 
L 81.166416 290.887945 
L 82.211771 290.887945 
L 82.211771 290.384441 
L 83.202082 290.384441 
L 83.202082 289.880938 
L 85.038813 289.880938 
L 85.038813 289.713103 
L 86.712053 289.713103 
L 86.712053 289.2096 
L 87.876026 289.2096 
L 87.876026 289.041766 
L 88.248544 289.041766 
L 88.248544 288.873931 
L 88.972154 288.873931 
L 88.972154 288.706097 
L 89.323782 288.706097 
L 89.323782 288.538262 
L 89.668958 288.538262 
L 89.668958 288.370428 
L 90.989609 288.370428 
L 90.989609 288.202593 
L 92.223596 288.202593 
L 92.223596 288.034759 
L 92.811505 288.034759 
L 92.811505 287.69909 
L 93.66029 287.69909 
L 93.66029 287.531255 
L 93.934916 287.531255 
L 93.934916 287.363421 
L 94.735529 287.363421 
L 94.735529 287.195586 
L 95.503454 287.195586 
L 95.503454 287.027752 
L 98.295464 287.027752 
L 98.295464 286.859917 
L 98.510456 286.859917 
L 98.510456 286.692083 
L 99.550033 286.692083 
L 99.550033 286.356414 
L 100.342215 286.356414 
L 100.342215 286.188579 
L 100.726138 286.188579 
L 100.726138 286.020745 
L 101.833019 286.020745 
L 101.833019 285.685076 
L 102.878374 285.685076 
L 102.878374 284.174566 
L 103.047088 284.174566 
L 103.047088 282.999724 
L 103.214303 282.999724 
L 103.214303 281.153545 
L 103.380045 281.153545 
L 103.380045 278.803862 
L 103.544339 278.803862 
L 103.544339 276.789848 
L 103.707211 276.789848 
L 103.707211 276.11851 
L 103.868684 276.11851 
L 103.868684 274.104497 
L 104.028784 274.104497 
L 104.028784 272.258317 
L 104.187532 272.258317 
L 104.187532 271.25131 
L 104.344952 271.25131 
L 104.344952 269.908634 
L 104.501065 269.908634 
L 104.501065 268.23029 
L 104.655893 268.23029 
L 104.655893 266.048441 
L 104.809458 266.048441 
L 104.809458 265.209269 
L 104.961779 265.209269 
L 104.961779 264.705766 
L 105.112877 264.705766 
L 105.112877 264.034428 
L 105.26277 264.034428 
L 105.26277 263.866593 
L 105.411479 263.866593 
L 105.411479 262.523917 
L 105.559021 262.523917 
L 105.559021 261.684745 
L 105.705415 261.684745 
L 105.705415 261.349076 
L 105.850679 261.349076 
L 105.850679 260.342069 
L 105.99483 260.342069 
L 105.99483 260.174234 
L 106.137884 260.174234 
L 106.137884 259.335062 
L 106.279859 259.335062 
L 106.279859 258.999393 
L 106.42077 258.999393 
L 106.42077 258.831559 
L 106.560633 258.831559 
L 106.560633 257.992386 
L 106.699465 257.992386 
L 106.699465 256.817545 
L 106.837279 256.817545 
L 106.837279 256.314041 
L 106.974091 256.314041 
L 106.974091 255.810538 
L 107.109915 255.810538 
L 107.109915 255.474869 
L 107.244765 255.474869 
L 107.244765 255.307034 
L 107.378656 255.307034 
L 107.378656 253.796524 
L 107.5116 253.796524 
L 107.5116 253.62869 
L 107.643612 253.62869 
L 107.643612 253.293021 
L 107.774703 253.293021 
L 107.774703 252.118179 
L 107.904887 252.118179 
L 107.904887 251.950345 
L 108.162584 251.950345 
L 108.162584 251.111172 
L 108.29012 251.111172 
L 108.29012 250.607669 
L 108.416798 250.607669 
L 108.416798 250.272 
L 108.542628 250.272 
L 108.542628 249.936331 
L 108.667622 249.936331 
L 108.667622 249.097159 
L 108.791791 249.097159 
L 108.791791 248.090152 
L 108.915146 248.090152 
L 108.915146 246.747476 
L 109.159456 246.747476 
L 109.159456 246.243972 
L 109.400633 246.243972 
L 109.400633 245.908303 
L 109.520071 245.908303 
L 109.520071 245.4048 
L 109.638757 245.4048 
L 109.638757 244.733462 
L 109.756698 244.733462 
L 109.756698 243.558621 
L 109.873904 243.558621 
L 109.873904 242.719448 
L 109.990385 242.719448 
L 109.990385 241.544607 
L 110.221204 241.544607 
L 110.221204 241.376772 
L 110.335561 241.376772 
L 110.335561 240.369766 
L 110.562208 240.369766 
L 110.562208 239.866262 
L 110.674517 239.866262 
L 110.674517 239.530593 
L 110.786158 239.530593 
L 110.897141 238.355752 
L 111.007473 238.355752 
L 111.117162 236.509572 
L 111.226215 236.509572 
L 111.334639 236.173903 
L 111.54963 236.173903 
L 111.656212 234.999062 
L 111.762192 234.999062 
L 111.86758 234.327724 
L 111.97238 234.327724 
L 111.97238 234.15989 
L 112.283321 234.15989 
L 112.385837 233.320717 
L 112.589207 233.320717 
L 112.690074 232.649379 
L 112.790402 232.649379 
L 112.790402 232.31371 
L 113.088217 232.31371 
L 113.088217 231.978041 
L 113.284172 231.978041 
L 113.381389 230.971034 
L 113.57433 230.971034 
L 113.57433 230.635366 
L 113.765312 230.635366 
L 113.860081 229.460524 
L 113.954374 229.460524 
L 113.954374 228.957021 
L 360.8064 228.957021 
L 360.8064 228.957021 
" style="fill: none; stroke: #6495ed; stroke-width: 1.5; stroke-linecap: square"/>
   </g>
   <g id="line2d_46">
    <defs>
     <path id="mb0d7e41dfb" d="M -0 6 
L 6 -6 
L -6 -6 
z
" style="stroke: #6495ed; stroke-width: 1.5; stroke-linejoin: miter"/>
    </defs>
    <g>
     <use xlink:href="#mb0d7e41dfb" x="108.915146" y="246.747476" style="fill-opacity: 0; stroke: #6495ed; stroke-width: 1.5; stroke-linejoin: miter"/>
     <use xlink:href="#mb0d7e41dfb" x="113.954374" y="229.460524" style="fill-opacity: 0; stroke: #6495ed; stroke-width: 1.5; stroke-linejoin: miter"/>
     <use xlink:href="#mb0d7e41dfb" x="113.954374" y="228.957021" style="fill-opacity: 0; stroke: #6495ed; stroke-width: 1.5; stroke-linejoin: miter"/>
     <use xlink:href="#mb0d7e41dfb" x="113.954374" y="228.957021" style="fill-opacity: 0; stroke: #6495ed; stroke-width: 1.5; stroke-linejoin: miter"/>
     <use xlink:href="#mb0d7e41dfb" x="113.954374" y="228.957021" style="fill-opacity: 0; stroke: #6495ed; stroke-width: 1.5; stroke-linejoin: miter"/>
     <use xlink:href="#mb0d7e41dfb" x="360.8064" y="228.957021" style="fill-opacity: 0; stroke: #6495ed; stroke-width: 1.5; stroke-linejoin: miter"/>
    </g>
   </g>
   <g id="line2d_47">
    <path style="fill: none; stroke: #6495ed; stroke-width: 1.5; stroke-linecap: square"/>
    <g/>
   </g>
   <g id="line2d_48">
    <path d="M 113.954374 228.957021 
" clip-path="url(#p32f6185b35)" style="fill: none; stroke: #6495ed; stroke-width: 1.5; stroke-linecap: square"/>
    <defs>
     <path id="mc1529cbe01" d="M -12 12 
L 12 -12 
M -12 -12 
L 12 12 
" style="stroke: #6495ed"/>
    </defs>
    <g clip-path="url(#p32f6185b35)">
     <use xlink:href="#mc1529cbe01" x="113.954374" y="228.957021" style="fill: #6495ed; stroke: #6495ed"/>
    </g>
   </g>
   <g id="line2d_49">
    <path d="M 360.8064 276.11851 
L 380.514816 293.10336 
" style="fill: none; stroke: #000080; stroke-width: 1.5; stroke-linecap: square"/>
    <g>
     <use xlink:href="#mc04bf97973" x="360.8064" y="276.11851" style="fill-opacity: 0; stroke: #000080; stroke-width: 1.5"/>
     <use xlink:href="#mc04bf97973" x="380.514816" y="293.10336" style="fill-opacity: 0; stroke: #000080; stroke-width: 1.5"/>
    </g>
   </g>
   <g id="line2d_50">
    <path d="M 360.8064 228.957021 
L 380.514816 199.65312 
" style="fill: none; stroke: #6495ed; stroke-width: 1.5; stroke-linecap: square"/>
    <g>
     <use xlink:href="#mb0d7e41dfb" x="360.8064" y="228.957021" style="fill-opacity: 0; stroke: #6495ed; stroke-width: 1.5; stroke-linejoin: miter"/>
     <use xlink:href="#mb0d7e41dfb" x="380.514816" y="199.65312" style="fill-opacity: 0; stroke: #6495ed; stroke-width: 1.5; stroke-linejoin: miter"/>
    </g>
   </g>
   <g id="line2d_51">
    <path d="M 360.8064 129.766841 
L 380.514816 106.20288 
" style="fill: none; stroke: #ff00ff; stroke-width: 1.5; stroke-linecap: square"/>
    <g>
     <use xlink:href="#m241a3c5a50" x="360.8064" y="129.766841" style="fill-opacity: 0; stroke: #ff00ff; stroke-width: 1.5; stroke-linejoin: miter"/>
     <use xlink:href="#m241a3c5a50" x="380.514816" y="106.20288" style="fill-opacity: 0; stroke: #ff00ff; stroke-width: 1.5; stroke-linejoin: miter"/>
    </g>
   </g>
   <g id="line2d_52">
    <path d="M 360.8064 298.944 
L 360.8064 6.912 
" style="fill: none; stroke: #000000; stroke-width: 1.5; stroke-linecap: square"/>
   </g>
   <g id="patch_3">
    <path d="M 57.6 298.944 
L 360.8064 298.944 
" style="fill: none; stroke: #000000; stroke-width: 0.8; stroke-linejoin: miter; stroke-linecap: square"/>
   </g>
   <g id="patch_4">
    <path d="M 57.6 6.912 
L 360.8064 6.912 
" style="fill: none; stroke: #000000; stroke-width: 0.8; stroke-linejoin: miter; stroke-linecap: square"/>
   </g>
   <g id="text_13">
    <!-- cma -->
    <g transform="translate(386.578944 296.966485)scale(0.14 -0.14)">
     <use xlink:href="#DejaVuSans-63"/>
     <use xlink:href="#DejaVuSans-6d" x="54.980469"/>
     <use xlink:href="#DejaVuSans-61" x="152.392578"/>
    </g>
   </g>
   <g id="text_14">
    <!-- parEgo -->
    <g transform="translate(386.578944 203.516245)scale(0.14 -0.14)">
     <defs>
      <path id="DejaVuSans-45" d="M 628 4666 
L 3578 4666 
L 3578 4134 
L 1259 4134 
L 1259 2753 
L 3481 2753 
L 3481 2222 
L 1259 2222 
L 1259 531 
L 3634 531 
L 3634 0 
L 628 0 
L 628 4666 
z
" transform="scale(0.015625)"/>
     </defs>
     <use xlink:href="#DejaVuSans-70"/>
     <use xlink:href="#DejaVuSans-61" x="63.476562"/>
     <use xlink:href="#DejaVuSans-72" x="124.755859"/>
     <use xlink:href="#DejaVuSans-45" x="165.869141"/>
     <use xlink:href="#DejaVuSans-67" x="229.052734"/>
     <use xlink:href="#DejaVuSans-6f" x="292.529297"/>
    </g>
   </g>
   <g id="text_15">
    <!-- external- -->
    <g transform="translate(386.578944 110.066005)scale(0.14 -0.14)">
     <defs>
      <path id="DejaVuSans-78" d="M 3513 3500 
L 2247 1797 
L 3578 0 
L 2900 0 
L 1881 1375 
L 863 0 
L 184 0 
L 1544 1831 
L 300 3500 
L 978 3500 
L 1906 2253 
L 2834 3500 
L 3513 3500 
z
" transform="scale(0.015625)"/>
     </defs>
     <use xlink:href="#DejaVuSans-65"/>
     <use xlink:href="#DejaVuSans-78" x="59.773438"/>
     <use xlink:href="#DejaVuSans-74" x="118.953125"/>
     <use xlink:href="#DejaVuSans-65" x="158.162109"/>
     <use xlink:href="#DejaVuSans-72" x="219.685547"/>
     <use xlink:href="#DejaVuSans-6e" x="259.048828"/>
     <use xlink:href="#DejaVuSans-61" x="322.427734"/>
     <use xlink:href="#DejaVuSans-6c" x="383.707031"/>
     <use xlink:href="#DejaVuSans-2d" x="411.490234"/>
    </g>
   </g>
   <g id="text_16">
    <!-- best 2016 -->
    <g transform="translate(386.578944 16.615765)scale(0.14 -0.14)">
     <defs>
      <path id="DejaVuSans-62" d="M 3116 1747 
Q 3116 2381 2855 2742 
Q 2594 3103 2138 3103 
Q 1681 3103 1420 2742 
Q 1159 2381 1159 1747 
Q 1159 1113 1420 752 
Q 1681 391 2138 391 
Q 2594 391 2855 752 
Q 3116 1113 3116 1747 
z
M 1159 2969 
Q 1341 3281 1617 3432 
Q 1894 3584 2278 3584 
Q 2916 3584 3314 3078 
Q 3713 2572 3713 1747 
Q 3713 922 3314 415 
Q 2916 -91 2278 -91 
Q 1894 -91 1617 61 
Q 1341 213 1159 525 
L 1159 0 
L 581 0 
L 581 4863 
L 1159 4863 
L 1159 2969 
z
" transform="scale(0.015625)"/>
     </defs>
     <use xlink:href="#DejaVuSans-62"/>
     <use xlink:href="#DejaVuSans-65" x="63.476562"/>
     <use xlink:href="#DejaVuSans-73" x="125"/>
     <use xlink:href="#DejaVuSans-74" x="177.099609"/>
     <use xlink:href="#DejaVuSans-20" x="216.308594"/>
     <use xlink:href="#DejaVuSans-32" x="248.095703"/>
     <use xlink:href="#DejaVuSans-30" x="311.71875"/>
     <use xlink:href="#DejaVuSans-31" x="375.341797"/>
     <use xlink:href="#DejaVuSans-36" x="438.964844"/>
    </g>
   </g>
   <g id="text_17">
    <!-- bbob-biobj f20, f21, f28, 10-D -->
    <g transform="translate(60.632064 17.582726)scale(0.102 -0.102)">
     <defs>
      <path id="DejaVuSans-6a" d="M 603 3500 
L 1178 3500 
L 1178 -63 
Q 1178 -731 923 -1031 
Q 669 -1331 103 -1331 
L -116 -1331 
L -116 -844 
L 38 -844 
Q 366 -844 484 -692 
Q 603 -541 603 -63 
L 603 3500 
z
M 603 4863 
L 1178 4863 
L 1178 4134 
L 603 4134 
L 603 4863 
z
" transform="scale(0.015625)"/>
      <path id="DejaVuSans-44" d="M 1259 4147 
L 1259 519 
L 2022 519 
Q 2988 519 3436 956 
Q 3884 1394 3884 2338 
Q 3884 3275 3436 3711 
Q 2988 4147 2022 4147 
L 1259 4147 
z
M 628 4666 
L 1925 4666 
Q 3281 4666 3915 4102 
Q 4550 3538 4550 2338 
Q 4550 1131 3912 565 
Q 3275 0 1925 0 
L 628 0 
L 628 4666 
z
" transform="scale(0.015625)"/>
     </defs>
     <use xlink:href="#DejaVuSans-62"/>
     <use xlink:href="#DejaVuSans-62" x="63.476562"/>
     <use xlink:href="#DejaVuSans-6f" x="126.953125"/>
     <use xlink:href="#DejaVuSans-62" x="188.134766"/>
     <use xlink:href="#DejaVuSans-2d" x="251.611328"/>
     <use xlink:href="#DejaVuSans-62" x="287.695312"/>
     <use xlink:href="#DejaVuSans-69" x="351.171875"/>
     <use xlink:href="#DejaVuSans-6f" x="378.955078"/>
     <use xlink:href="#DejaVuSans-62" x="440.136719"/>
     <use xlink:href="#DejaVuSans-6a" x="503.613281"/>
     <use xlink:href="#DejaVuSans-20" x="531.396484"/>
     <use xlink:href="#DejaVuSans-66" x="563.183594"/>
     <use xlink:href="#DejaVuSans-32" x="598.388672"/>
     <use xlink:href="#DejaVuSans-30" x="662.011719"/>
     <use xlink:href="#DejaVuSans-2c" x="725.634766"/>
     <use xlink:href="#DejaVuSans-20" x="757.421875"/>
     <use xlink:href="#DejaVuSans-66" x="789.208984"/>
     <use xlink:href="#DejaVuSans-32" x="824.414062"/>
     <use xlink:href="#DejaVuSans-31" x="888.037109"/>
     <use xlink:href="#DejaVuSans-2c" x="951.660156"/>
     <use xlink:href="#DejaVuSans-20" x="983.447266"/>
     <use xlink:href="#DejaVuSans-66" x="1015.234375"/>
     <use xlink:href="#DejaVuSans-32" x="1050.439453"/>
     <use xlink:href="#DejaVuSans-38" x="1114.0625"/>
     <use xlink:href="#DejaVuSans-2c" x="1177.685547"/>
     <use xlink:href="#DejaVuSans-20" x="1209.472656"/>
     <use xlink:href="#DejaVuSans-31" x="1241.259766"/>
     <use xlink:href="#DejaVuSans-30" x="1304.882812"/>
     <use xlink:href="#DejaVuSans-2d" x="1368.505859"/>
     <use xlink:href="#DejaVuSans-44" x="1404.589844"/>
    </g>
    <!-- 58 targets: 1..-1.0e-4 -->
    <g transform="translate(60.632064 29.004495)scale(0.102 -0.102)">
     <defs>
      <path id="DejaVuSans-35" d="M 691 4666 
L 3169 4666 
L 3169 4134 
L 1269 4134 
L 1269 2991 
Q 1406 3038 1543 3061 
Q 1681 3084 1819 3084 
Q 2600 3084 3056 2656 
Q 3513 2228 3513 1497 
Q 3513 744 3044 326 
Q 2575 -91 1722 -91 
Q 1428 -91 1123 -41 
Q 819 9 494 109 
L 494 744 
Q 775 591 1075 516 
Q 1375 441 1709 441 
Q 2250 441 2565 725 
Q 2881 1009 2881 1497 
Q 2881 1984 2565 2268 
Q 2250 2553 1709 2553 
Q 1456 2553 1204 2497 
Q 953 2441 691 2322 
L 691 4666 
z
" transform="scale(0.015625)"/>
      <path id="DejaVuSans-3a" d="M 750 794 
L 1409 794 
L 1409 0 
L 750 0 
L 750 794 
z
M 750 3309 
L 1409 3309 
L 1409 2516 
L 750 2516 
L 750 3309 
z
" transform="scale(0.015625)"/>
     </defs>
     <use xlink:href="#DejaVuSans-35"/>
     <use xlink:href="#DejaVuSans-38" x="63.623047"/>
     <use xlink:href="#DejaVuSans-20" x="127.246094"/>
     <use xlink:href="#DejaVuSans-74" x="159.033203"/>
     <use xlink:href="#DejaVuSans-61" x="198.242188"/>
     <use xlink:href="#DejaVuSans-72" x="259.521484"/>
     <use xlink:href="#DejaVuSans-67" x="298.884766"/>
     <use xlink:href="#DejaVuSans-65" x="362.361328"/>
     <use xlink:href="#DejaVuSans-74" x="423.884766"/>
     <use xlink:href="#DejaVuSans-73" x="463.09375"/>
     <use xlink:href="#DejaVuSans-3a" x="515.193359"/>
     <use xlink:href="#DejaVuSans-20" x="548.884766"/>
     <use xlink:href="#DejaVuSans-31" x="580.671875"/>
     <use xlink:href="#DejaVuSans-2e" x="644.294922"/>
     <use xlink:href="#DejaVuSans-2e" x="676.082031"/>
     <use xlink:href="#DejaVuSans-2d" x="707.869141"/>
     <use xlink:href="#DejaVuSans-31" x="743.953125"/>
     <use xlink:href="#DejaVuSans-2e" x="807.576172"/>
     <use xlink:href="#DejaVuSans-30" x="839.363281"/>
     <use xlink:href="#DejaVuSans-65" x="902.986328"/>
     <use xlink:href="#DejaVuSans-2d" x="964.509766"/>
     <use xlink:href="#DejaVuSans-34" x="1000.59375"/>
    </g>
    <!-- 10 instances -->
    <g transform="translate(60.632064 40.426264)scale(0.102 -0.102)">
     <use xlink:href="#DejaVuSans-31"/>
     <use xlink:href="#DejaVuSans-30" x="63.623047"/>
     <use xlink:href="#DejaVuSans-20" x="127.246094"/>
     <use xlink:href="#DejaVuSans-69" x="159.033203"/>
     <use xlink:href="#DejaVuSans-6e" x="186.816406"/>
     <use xlink:href="#DejaVuSans-73" x="250.195312"/>
     <use xlink:href="#DejaVuSans-74" x="302.294922"/>
     <use xlink:href="#DejaVuSans-61" x="341.503906"/>
     <use xlink:href="#DejaVuSans-6e" x="402.783203"/>
     <use xlink:href="#DejaVuSans-63" x="466.162109"/>
     <use xlink:href="#DejaVuSans-65" x="521.142578"/>
     <use xlink:href="#DejaVuSans-73" x="582.666016"/>
    </g>
   </g>
   <g id="text_18">
    <!-- v2.6, hv-hash=ff0e71e8cd978373 -->
    <g style="fill: #808080" transform="translate(123.707887 293.943992)scale(0.1 -0.1)">
     <defs>
      <path id="DejaVuSans-68" d="M 3513 2113 
L 3513 0 
L 2938 0 
L 2938 2094 
Q 2938 2591 2744 2837 
Q 2550 3084 2163 3084 
Q 1697 3084 1428 2787 
Q 1159 2491 1159 1978 
L 1159 0 
L 581 0 
L 581 4863 
L 1159 4863 
L 1159 2956 
Q 1366 3272 1645 3428 
Q 1925 3584 2291 3584 
Q 2894 3584 3203 3211 
Q 3513 2838 3513 2113 
z
" transform="scale(0.015625)"/>
      <path id="DejaVuSans-3d" d="M 678 2906 
L 4684 2906 
L 4684 2381 
L 678 2381 
L 678 2906 
z
M 678 1631 
L 4684 1631 
L 4684 1100 
L 678 1100 
L 678 1631 
z
" transform="scale(0.015625)"/>
      <path id="DejaVuSans-37" d="M 525 4666 
L 3525 4666 
L 3525 4397 
L 1831 0 
L 1172 0 
L 2766 4134 
L 525 4134 
L 525 4666 
z
" transform="scale(0.015625)"/>
      <path id="DejaVuSans-39" d="M 703 97 
L 703 672 
Q 941 559 1184 500 
Q 1428 441 1663 441 
Q 2288 441 2617 861 
Q 2947 1281 2994 2138 
Q 2813 1869 2534 1725 
Q 2256 1581 1919 1581 
Q 1219 1581 811 2004 
Q 403 2428 403 3163 
Q 403 3881 828 4315 
Q 1253 4750 1959 4750 
Q 2769 4750 3195 4129 
Q 3622 3509 3622 2328 
Q 3622 1225 3098 567 
Q 2575 -91 1691 -91 
Q 1453 -91 1209 -44 
Q 966 3 703 97 
z
M 1959 2075 
Q 2384 2075 2632 2365 
Q 2881 2656 2881 3163 
Q 2881 3666 2632 3958 
Q 2384 4250 1959 4250 
Q 1534 4250 1286 3958 
Q 1038 3666 1038 3163 
Q 1038 2656 1286 2365 
Q 1534 2075 1959 2075 
z
" transform="scale(0.015625)"/>
      <path id="DejaVuSans-33" d="M 2597 2516 
Q 3050 2419 3304 2112 
Q 3559 1806 3559 1356 
Q 3559 666 3084 287 
Q 2609 -91 1734 -91 
Q 1441 -91 1130 -33 
Q 819 25 488 141 
L 488 750 
Q 750 597 1062 519 
Q 1375 441 1716 441 
Q 2309 441 2620 675 
Q 2931 909 2931 1356 
Q 2931 1769 2642 2001 
Q 2353 2234 1838 2234 
L 1294 2234 
L 1294 2753 
L 1863 2753 
Q 2328 2753 2575 2939 
Q 2822 3125 2822 3475 
Q 2822 3834 2567 4026 
Q 2313 4219 1838 4219 
Q 1578 4219 1281 4162 
Q 984 4106 628 3988 
L 628 4550 
Q 988 4650 1302 4700 
Q 1616 4750 1894 4750 
Q 2613 4750 3031 4423 
Q 3450 4097 3450 3541 
Q 3450 3153 3228 2886 
Q 3006 2619 2597 2516 
z
" transform="scale(0.015625)"/>
     </defs>
     <use xlink:href="#DejaVuSans-76"/>
     <use xlink:href="#DejaVuSans-32" x="59.179688"/>
     <use xlink:href="#DejaVuSans-2e" x="122.802734"/>
     <use xlink:href="#DejaVuSans-36" x="154.589844"/>
     <use xlink:href="#DejaVuSans-2c" x="218.212891"/>
     <use xlink:href="#DejaVuSans-20" x="250"/>
     <use xlink:href="#DejaVuSans-68" x="281.787109"/>
     <use xlink:href="#DejaVuSans-76" x="345.166016"/>
     <use xlink:href="#DejaVuSans-2d" x="401.720703"/>
     <use xlink:href="#DejaVuSans-68" x="437.804688"/>
     <use xlink:href="#DejaVuSans-61" x="501.183594"/>
     <use xlink:href="#DejaVuSans-73" x="562.462891"/>
     <use xlink:href="#DejaVuSans-68" x="614.5625"/>
     <use xlink:href="#DejaVuSans-3d" x="677.941406"/>
     <use xlink:href="#DejaVuSans-66" x="761.730469"/>
     <use xlink:href="#DejaVuSans-66" x="796.935547"/>
     <use xlink:href="#DejaVuSans-30" x="832.140625"/>
     <use xlink:href="#DejaVuSans-65" x="895.763672"/>
     <use xlink:href="#DejaVuSans-37" x="957.287109"/>
     <use xlink:href="#DejaVuSans-31" x="1020.910156"/>
     <use xlink:href="#DejaVuSans-65" x="1084.533203"/>
     <use xlink:href="#DejaVuSans-38" x="1146.056641"/>
     <use xlink:href="#DejaVuSans-63" x="1209.679688"/>
     <use xlink:href="#DejaVuSans-64" x="1264.660156"/>
     <use xlink:href="#DejaVuSans-39" x="1328.136719"/>
     <use xlink:href="#DejaVuSans-37" x="1391.759766"/>
     <use xlink:href="#DejaVuSans-38" x="1455.382812"/>
     <use xlink:href="#DejaVuSans-33" x="1519.005859"/>
     <use xlink:href="#DejaVuSans-37" x="1582.628906"/>
     <use xlink:href="#DejaVuSans-33" x="1646.251953"/>
    </g>
   </g>
  </g>
 </g>
 <defs>
  <clipPath id="p32f6185b35">
   <rect x="57.6" y="6.912" width="303.2064" height="292.032"/>
  </clipPath>
 </defs>
</svg>
