<?xml version="1.0" encoding="utf-8" standalone="no"?>
<!DOCTYPE svg PUBLIC "-//W3C//DTD SVG 1.1//EN"
  "http://www.w3.org/Graphics/SVG/1.1/DTD/svg11.dtd">
<svg xmlns:xlink="http://www.w3.org/1999/xlink" width="460.8pt" height="345.6pt" viewBox="0 0 460.8 345.6" xmlns="http://www.w3.org/2000/svg" version="1.1">
 <metadata>
  <rdf:RDF xmlns:dc="http://purl.org/dc/elements/1.1/" xmlns:cc="http://creativecommons.org/ns#" xmlns:rdf="http://www.w3.org/1999/02/22-rdf-syntax-ns#">
   <cc:Work>
    <dc:type rdf:resource="http://purl.org/dc/dcmitype/StillImage"/>
    <dc:date>2022-06-19T21:02:56.860831</dc:date>
    <dc:format>image/svg+xml</dc:format>
    <dc:creator>
     <cc:Agent>
      <dc:title>Matplotlib v3.5.1, https://matplotlib.org/</dc:title>
     </cc:Agent>
    </dc:creator>
   </cc:Work>
  </rdf:RDF>
 </metadata>
 <defs>
  <style type="text/css">*{stroke-linejoin: round; stroke-linecap: butt}</style>
 </defs>
 <g id="figure_1">
  <g id="patch_1">
   <path d="M 0 345.6 
L 460.8 345.6 
L 460.8 0 
L 0 0 
z
" style="fill: #ffffff"/>
  </g>
  <g id="axes_1">
   <g id="patch_2">
    <path d="M 57.6 298.944 
L 360.8064 298.944 
L 360.8064 6.912 
L 57.6 6.912 
z
" style="fill: #ffffff"/>
   </g>
   <g id="line2d_1">
    <path d="M 36.933397 298.944 
L 36.933397 297.265655 
L 49.972572 297.265655 
L 49.972572 293.908966 
L 67.209423 293.908966 
L 67.209423 290.552276 
L 70.639174 290.552276 
L 70.639174 288.873931 
L 76.050921 288.873931 
L 76.050921 283.838897 
L 80.248597 283.838897 
L 80.248597 280.482207 
L 89.090095 280.482207 
L 89.090095 277.125517 
L 91.305777 277.125517 
L 91.305777 275.447172 
L 95.080704 275.447172 
L 95.080704 272.090483 
L 96.717523 272.090483 
L 96.717523 267.055448 
L 98.933205 267.055448 
L 98.933205 265.377103 
L 102.708132 265.377103 
L 102.708132 263.698759 
L 105.36204 263.698759 
L 105.36204 258.663724 
L 107.244765 258.663724 
L 107.244765 255.307034 
L 108.542628 255.307034 
L 108.542628 250.272 
L 110.524623 250.272 
L 110.524623 246.91531 
L 113.638206 246.91531 
L 113.638206 245.236966 
L 117.6436 245.236966 
L 117.6436 240.201931 
L 118.889854 240.201931 
L 118.889854 236.845241 
L 123.750979 236.845241 
L 123.750979 233.488552 
L 123.936316 233.488552 
L 123.936316 231.810207 
L 129.069367 231.810207 
L 129.069367 226.775172 
L 132.168669 226.775172 
L 132.168669 223.418483 
L 132.869802 223.418483 
L 132.869802 218.383448 
L 136.508678 218.383448 
L 136.508678 215.026759 
L 136.790153 215.026759 
L 136.790153 209.991724 
L 141.96763 209.991724 
L 141.96763 206.635034 
L 144.2304 206.635034 
L 144.2304 203.278345 
L 145.44447 203.278345 
L 145.44447 199.921655 
L 146.750169 199.921655 
L 146.750169 196.564966 
L 150.289291 196.564966 
L 150.379949 189.851586 
L 152.75573 189.851586 
L 152.75573 186.494897 
L 155.252711 186.494897 
L 155.252711 184.816552 
L 156.599372 184.816552 
L 156.599372 181.459862 
L 160.594526 181.459862 
L 160.594526 176.424828 
L 160.725435 176.424828 
L 160.725435 174.746483 
L 163.099889 174.746483 
L 163.099889 173.068138 
L 166.822478 173.068138 
L 166.841337 166.354759 
L 168.842171 166.354759 
L 168.842171 161.319724 
L 173.435613 161.319724 
L 173.435613 156.28469 
L 175.340451 156.28469 
L 175.340451 154.606345 
L 182.117125 154.606345 
L 182.117125 151.249655 
L 182.300329 151.249655 
L 182.300329 146.214621 
L 183.58161 146.214621 
L 183.58161 144.536276 
L 189.039748 144.536276 
L 189.039748 139.501241 
L 191.682983 139.501241 
L 191.682983 137.822897 
L 193.771866 137.822897 
L 193.771866 134.466207 
L 198.261797 134.466207 
L 198.261797 132.787862 
L 198.941114 132.787862 
L 198.941114 127.752828 
L 200.147055 127.752828 
L 200.147055 124.396138 
L 203.59712 124.396138 
L 203.59712 119.361103 
L 209.310303 119.361103 
L 209.310303 117.682759 
L 209.547373 117.682759 
L 209.547373 116.004414 
L 211.279675 116.004414 
L 211.279675 114.326069 
L 215.657605 114.326069 
L 215.657605 109.291034 
L 219.203077 109.291034 
L 219.203077 104.256 
L 220.16064 104.256 
L 220.16064 99.220966 
L 222.434068 99.220966 
L 222.434068 95.864276 
L 227.956387 95.864276 
L 227.956387 92.507586 
L 228.474573 92.507586 
L 228.474573 90.829241 
L 229.638033 90.829241 
L 229.638033 87.472552 
L 235.854553 87.472552 
L 235.854553 84.115862 
L 237.026621 84.115862 
L 237.026621 82.437517 
L 238.698573 82.437517 
L 238.698573 77.402483 
L 243.007534 77.402483 
L 243.007534 75.724138 
L 244.629032 75.724138 
L 244.629032 72.367448 
L 247.949587 72.367448 
L 247.949587 69.010759 
L 250.824465 69.010759 
L 250.824465 65.654069 
L 252.242078 65.654069 
L 252.242078 60.619034 
L 254.4014 60.619034 
L 254.4014 57.262345 
L 260.224649 57.262345 
L 260.224649 52.22731 
L 261.189424 52.22731 
L 261.189424 50.548966 
L 268.36304 50.548966 
L 268.36304 47.192276 
L 275.821742 47.192276 
L 275.821742 42.157241 
L 360.8064 42.157241 
L 360.8064 42.157241 
" style="fill: none; stroke: #f5deb3; stroke-width: 4; stroke-linecap: square"/>
   </g>
   <g id="line2d_2">
    <defs>
     <path id="m17a999f90f" d="M 0 7.778175 
L 7.778175 0 
L 0 -7.778175 
L -7.778175 0 
z
" style="stroke: #f5deb3; stroke-width: 1.5; stroke-linejoin: miter"/>
    </defs>
    <g>
     <use xlink:href="#m17a999f90f" x="96.717523" y="272.090483" style="fill: #f5deb3; stroke: #f5deb3; stroke-width: 1.5; stroke-linejoin: miter"/>
     <use xlink:href="#m17a999f90f" x="150.379949" y="193.208276" style="fill: #f5deb3; stroke: #f5deb3; stroke-width: 1.5; stroke-linejoin: miter"/>
     <use xlink:href="#m17a999f90f" x="203.59712" y="124.396138" style="fill: #f5deb3; stroke: #f5deb3; stroke-width: 1.5; stroke-linejoin: miter"/>
     <use xlink:href="#m17a999f90f" x="261.189424" y="50.548966" style="fill: #f5deb3; stroke: #f5deb3; stroke-width: 1.5; stroke-linejoin: miter"/>
     <use xlink:href="#m17a999f90f" x="275.821742" y="42.157241" style="fill: #f5deb3; stroke: #f5deb3; stroke-width: 1.5; stroke-linejoin: miter"/>
     <use xlink:href="#m17a999f90f" x="360.8064" y="42.157241" style="fill: #f5deb3; stroke: #f5deb3; stroke-width: 1.5; stroke-linejoin: miter"/>
    </g>
   </g>
   <g id="line2d_3">
    <path style="fill: none; stroke: #f5deb3; stroke-width: 4; stroke-linecap: square"/>
    <g/>
   </g>
   <g id="line2d_4">
    <path d="M 360.8064 42.157241 
L 380.514816 12.75264 
" style="fill: none; stroke: #f5deb3; stroke-width: 4; stroke-linecap: square"/>
    <g>
     <use xlink:href="#m17a999f90f" x="360.8064" y="42.157241" style="fill: #f5deb3; stroke: #f5deb3; stroke-width: 1.5; stroke-linejoin: miter"/>
     <use xlink:href="#m17a999f90f" x="380.514816" y="12.75264" style="fill: #f5deb3; stroke: #f5deb3; stroke-width: 1.5; stroke-linejoin: miter"/>
    </g>
   </g>
   <g id="matplotlib.axis_1">
    <g id="xtick_1">
     <g id="line2d_5">
      <path d="M 57.6 298.944 
L 57.6 6.912 
" clip-path="url(#p44a7cf7e5c)" style="fill: none; stroke: #b0b0b0; stroke-width: 0.8; stroke-linecap: square"/>
     </g>
     <g id="line2d_6">
      <defs>
       <path id="m0c876c1439" d="M 0 0 
L 0 3.5 
" style="stroke: #000000; stroke-width: 0.8"/>
      </defs>
      <g>
       <use xlink:href="#m0c876c1439" x="57.6" y="298.944" style="stroke: #000000; stroke-width: 0.8"/>
      </g>
     </g>
     <g id="text_1">
      <!-- 0 -->
      <g transform="translate(52.191875 318.861344)scale(0.17 -0.17)">
       <defs>
        <path id="DejaVuSans-30" d="M 2034 4250 
Q 1547 4250 1301 3770 
Q 1056 3291 1056 2328 
Q 1056 1369 1301 889 
Q 1547 409 2034 409 
Q 2525 409 2770 889 
Q 3016 1369 3016 2328 
Q 3016 3291 2770 3770 
Q 2525 4250 2034 4250 
z
M 2034 4750 
Q 2819 4750 3233 4129 
Q 3647 3509 3647 2328 
Q 3647 1150 3233 529 
Q 2819 -91 2034 -91 
Q 1250 -91 836 529 
Q 422 1150 422 2328 
Q 422 3509 836 4129 
Q 1250 4750 2034 4750 
z
" transform="scale(0.015625)"/>
       </defs>
       <use xlink:href="#DejaVuSans-30"/>
      </g>
     </g>
    </g>
    <g id="xtick_2">
     <g id="line2d_7">
      <path d="M 144.2304 298.944 
L 144.2304 6.912 
" clip-path="url(#p44a7cf7e5c)" style="fill: none; stroke: #b0b0b0; stroke-width: 0.8; stroke-linecap: square"/>
     </g>
     <g id="line2d_8">
      <g>
       <use xlink:href="#m0c876c1439" x="144.2304" y="298.944" style="stroke: #000000; stroke-width: 0.8"/>
      </g>
     </g>
     <g id="text_2">
      <!-- 2 -->
      <g transform="translate(138.822275 318.861344)scale(0.17 -0.17)">
       <defs>
        <path id="DejaVuSans-32" d="M 1228 531 
L 3431 531 
L 3431 0 
L 469 0 
L 469 531 
Q 828 903 1448 1529 
Q 2069 2156 2228 2338 
Q 2531 2678 2651 2914 
Q 2772 3150 2772 3378 
Q 2772 3750 2511 3984 
Q 2250 4219 1831 4219 
Q 1534 4219 1204 4116 
Q 875 4013 500 3803 
L 500 4441 
Q 881 4594 1212 4672 
Q 1544 4750 1819 4750 
Q 2544 4750 2975 4387 
Q 3406 4025 3406 3419 
Q 3406 3131 3298 2873 
Q 3191 2616 2906 2266 
Q 2828 2175 2409 1742 
Q 1991 1309 1228 531 
z
" transform="scale(0.015625)"/>
       </defs>
       <use xlink:href="#DejaVuSans-32"/>
      </g>
     </g>
    </g>
    <g id="xtick_3">
     <g id="line2d_9">
      <path d="M 230.8608 298.944 
L 230.8608 6.912 
" clip-path="url(#p44a7cf7e5c)" style="fill: none; stroke: #b0b0b0; stroke-width: 0.8; stroke-linecap: square"/>
     </g>
     <g id="line2d_10">
      <g>
       <use xlink:href="#m0c876c1439" x="230.8608" y="298.944" style="stroke: #000000; stroke-width: 0.8"/>
      </g>
     </g>
     <g id="text_3">
      <!-- 4 -->
      <g transform="translate(225.452675 318.861344)scale(0.17 -0.17)">
       <defs>
        <path id="DejaVuSans-34" d="M 2419 4116 
L 825 1625 
L 2419 1625 
L 2419 4116 
z
M 2253 4666 
L 3047 4666 
L 3047 1625 
L 3713 1625 
L 3713 1100 
L 3047 1100 
L 3047 0 
L 2419 0 
L 2419 1100 
L 313 1100 
L 313 1709 
L 2253 4666 
z
" transform="scale(0.015625)"/>
       </defs>
       <use xlink:href="#DejaVuSans-34"/>
      </g>
     </g>
    </g>
    <g id="xtick_4">
     <g id="line2d_11">
      <path d="M 317.4912 298.944 
L 317.4912 6.912 
" clip-path="url(#p44a7cf7e5c)" style="fill: none; stroke: #b0b0b0; stroke-width: 0.8; stroke-linecap: square"/>
     </g>
     <g id="line2d_12">
      <g>
       <use xlink:href="#m0c876c1439" x="317.4912" y="298.944" style="stroke: #000000; stroke-width: 0.8"/>
      </g>
     </g>
     <g id="text_4">
      <!-- 6 -->
      <g transform="translate(312.083075 318.861344)scale(0.17 -0.17)">
       <defs>
        <path id="DejaVuSans-36" d="M 2113 2584 
Q 1688 2584 1439 2293 
Q 1191 2003 1191 1497 
Q 1191 994 1439 701 
Q 1688 409 2113 409 
Q 2538 409 2786 701 
Q 3034 994 3034 1497 
Q 3034 2003 2786 2293 
Q 2538 2584 2113 2584 
z
M 3366 4563 
L 3366 3988 
Q 3128 4100 2886 4159 
Q 2644 4219 2406 4219 
Q 1781 4219 1451 3797 
Q 1122 3375 1075 2522 
Q 1259 2794 1537 2939 
Q 1816 3084 2150 3084 
Q 2853 3084 3261 2657 
Q 3669 2231 3669 1497 
Q 3669 778 3244 343 
Q 2819 -91 2113 -91 
Q 1303 -91 875 529 
Q 447 1150 447 2328 
Q 447 3434 972 4092 
Q 1497 4750 2381 4750 
Q 2619 4750 2861 4703 
Q 3103 4656 3366 4563 
z
" transform="scale(0.015625)"/>
       </defs>
       <use xlink:href="#DejaVuSans-36"/>
      </g>
     </g>
    </g>
    <g id="xtick_5">
     <g id="line2d_13">
      <path d="M 100.9152 298.944 
L 100.9152 6.912 
" clip-path="url(#p44a7cf7e5c)" style="fill: none; stroke: #b0b0b0; stroke-width: 0.8; stroke-linecap: square"/>
     </g>
     <g id="line2d_14">
      <defs>
       <path id="m2f151e7376" d="M 0 0 
L 0 2 
" style="stroke: #000000; stroke-width: 0.6"/>
      </defs>
      <g>
       <use xlink:href="#m2f151e7376" x="100.9152" y="298.944" style="stroke: #000000; stroke-width: 0.6"/>
      </g>
     </g>
    </g>
    <g id="xtick_6">
     <g id="line2d_15">
      <path d="M 187.5456 298.944 
L 187.5456 6.912 
" clip-path="url(#p44a7cf7e5c)" style="fill: none; stroke: #b0b0b0; stroke-width: 0.8; stroke-linecap: square"/>
     </g>
     <g id="line2d_16">
      <g>
       <use xlink:href="#m2f151e7376" x="187.5456" y="298.944" style="stroke: #000000; stroke-width: 0.6"/>
      </g>
     </g>
    </g>
    <g id="xtick_7">
     <g id="line2d_17">
      <path d="M 274.176 298.944 
L 274.176 6.912 
" clip-path="url(#p44a7cf7e5c)" style="fill: none; stroke: #b0b0b0; stroke-width: 0.8; stroke-linecap: square"/>
     </g>
     <g id="line2d_18">
      <g>
       <use xlink:href="#m2f151e7376" x="274.176" y="298.944" style="stroke: #000000; stroke-width: 0.6"/>
      </g>
     </g>
    </g>
    <g id="xtick_8">
     <g id="line2d_19">
      <path d="M 360.8064 298.944 
L 360.8064 6.912 
" clip-path="url(#p44a7cf7e5c)" style="fill: none; stroke: #b0b0b0; stroke-width: 0.8; stroke-linecap: square"/>
     </g>
     <g id="line2d_20">
      <g>
       <use xlink:href="#m2f151e7376" x="360.8064" y="298.944" style="stroke: #000000; stroke-width: 0.6"/>
      </g>
     </g>
    </g>
    <g id="text_5">
     <!-- log10(# f-evals / dimension) -->
     <g transform="translate(88.823278 339.314156)scale(0.17 -0.17)">
      <defs>
       <path id="DejaVuSans-6c" d="M 603 4863 
L 1178 4863 
L 1178 0 
L 603 0 
L 603 4863 
z
" transform="scale(0.015625)"/>
       <path id="DejaVuSans-6f" d="M 1959 3097 
Q 1497 3097 1228 2736 
Q 959 2375 959 1747 
Q 959 1119 1226 758 
Q 1494 397 1959 397 
Q 2419 397 2687 759 
Q 2956 1122 2956 1747 
Q 2956 2369 2687 2733 
Q 2419 3097 1959 3097 
z
M 1959 3584 
Q 2709 3584 3137 3096 
Q 3566 2609 3566 1747 
Q 3566 888 3137 398 
Q 2709 -91 1959 -91 
Q 1206 -91 779 398 
Q 353 888 353 1747 
Q 353 2609 779 3096 
Q 1206 3584 1959 3584 
z
" transform="scale(0.015625)"/>
       <path id="DejaVuSans-67" d="M 2906 1791 
Q 2906 2416 2648 2759 
Q 2391 3103 1925 3103 
Q 1463 3103 1205 2759 
Q 947 2416 947 1791 
Q 947 1169 1205 825 
Q 1463 481 1925 481 
Q 2391 481 2648 825 
Q 2906 1169 2906 1791 
z
M 3481 434 
Q 3481 -459 3084 -895 
Q 2688 -1331 1869 -1331 
Q 1566 -1331 1297 -1286 
Q 1028 -1241 775 -1147 
L 775 -588 
Q 1028 -725 1275 -790 
Q 1522 -856 1778 -856 
Q 2344 -856 2625 -561 
Q 2906 -266 2906 331 
L 2906 616 
Q 2728 306 2450 153 
Q 2172 0 1784 0 
Q 1141 0 747 490 
Q 353 981 353 1791 
Q 353 2603 747 3093 
Q 1141 3584 1784 3584 
Q 2172 3584 2450 3431 
Q 2728 3278 2906 2969 
L 2906 3500 
L 3481 3500 
L 3481 434 
z
" transform="scale(0.015625)"/>
       <path id="DejaVuSans-31" d="M 794 531 
L 1825 531 
L 1825 4091 
L 703 3866 
L 703 4441 
L 1819 4666 
L 2450 4666 
L 2450 531 
L 3481 531 
L 3481 0 
L 794 0 
L 794 531 
z
" transform="scale(0.015625)"/>
       <path id="DejaVuSans-28" d="M 1984 4856 
Q 1566 4138 1362 3434 
Q 1159 2731 1159 2009 
Q 1159 1288 1364 580 
Q 1569 -128 1984 -844 
L 1484 -844 
Q 1016 -109 783 600 
Q 550 1309 550 2009 
Q 550 2706 781 3412 
Q 1013 4119 1484 4856 
L 1984 4856 
z
" transform="scale(0.015625)"/>
       <path id="DejaVuSans-23" d="M 3272 2816 
L 2363 2816 
L 2100 1772 
L 3016 1772 
L 3272 2816 
z
M 2803 4594 
L 2478 3297 
L 3391 3297 
L 3719 4594 
L 4219 4594 
L 3897 3297 
L 4872 3297 
L 4872 2816 
L 3775 2816 
L 3519 1772 
L 4513 1772 
L 4513 1294 
L 3397 1294 
L 3072 0 
L 2572 0 
L 2894 1294 
L 1978 1294 
L 1656 0 
L 1153 0 
L 1478 1294 
L 494 1294 
L 494 1772 
L 1594 1772 
L 1856 2816 
L 850 2816 
L 850 3297 
L 1978 3297 
L 2297 4594 
L 2803 4594 
z
" transform="scale(0.015625)"/>
       <path id="DejaVuSans-20" transform="scale(0.015625)"/>
       <path id="DejaVuSans-66" d="M 2375 4863 
L 2375 4384 
L 1825 4384 
Q 1516 4384 1395 4259 
Q 1275 4134 1275 3809 
L 1275 3500 
L 2222 3500 
L 2222 3053 
L 1275 3053 
L 1275 0 
L 697 0 
L 697 3053 
L 147 3053 
L 147 3500 
L 697 3500 
L 697 3744 
Q 697 4328 969 4595 
Q 1241 4863 1831 4863 
L 2375 4863 
z
" transform="scale(0.015625)"/>
       <path id="DejaVuSans-2d" d="M 313 2009 
L 1997 2009 
L 1997 1497 
L 313 1497 
L 313 2009 
z
" transform="scale(0.015625)"/>
       <path id="DejaVuSans-65" d="M 3597 1894 
L 3597 1613 
L 953 1613 
Q 991 1019 1311 708 
Q 1631 397 2203 397 
Q 2534 397 2845 478 
Q 3156 559 3463 722 
L 3463 178 
Q 3153 47 2828 -22 
Q 2503 -91 2169 -91 
Q 1331 -91 842 396 
Q 353 884 353 1716 
Q 353 2575 817 3079 
Q 1281 3584 2069 3584 
Q 2775 3584 3186 3129 
Q 3597 2675 3597 1894 
z
M 3022 2063 
Q 3016 2534 2758 2815 
Q 2500 3097 2075 3097 
Q 1594 3097 1305 2825 
Q 1016 2553 972 2059 
L 3022 2063 
z
" transform="scale(0.015625)"/>
       <path id="DejaVuSans-76" d="M 191 3500 
L 800 3500 
L 1894 563 
L 2988 3500 
L 3597 3500 
L 2284 0 
L 1503 0 
L 191 3500 
z
" transform="scale(0.015625)"/>
       <path id="DejaVuSans-61" d="M 2194 1759 
Q 1497 1759 1228 1600 
Q 959 1441 959 1056 
Q 959 750 1161 570 
Q 1363 391 1709 391 
Q 2188 391 2477 730 
Q 2766 1069 2766 1631 
L 2766 1759 
L 2194 1759 
z
M 3341 1997 
L 3341 0 
L 2766 0 
L 2766 531 
Q 2569 213 2275 61 
Q 1981 -91 1556 -91 
Q 1019 -91 701 211 
Q 384 513 384 1019 
Q 384 1609 779 1909 
Q 1175 2209 1959 2209 
L 2766 2209 
L 2766 2266 
Q 2766 2663 2505 2880 
Q 2244 3097 1772 3097 
Q 1472 3097 1187 3025 
Q 903 2953 641 2809 
L 641 3341 
Q 956 3463 1253 3523 
Q 1550 3584 1831 3584 
Q 2591 3584 2966 3190 
Q 3341 2797 3341 1997 
z
" transform="scale(0.015625)"/>
       <path id="DejaVuSans-73" d="M 2834 3397 
L 2834 2853 
Q 2591 2978 2328 3040 
Q 2066 3103 1784 3103 
Q 1356 3103 1142 2972 
Q 928 2841 928 2578 
Q 928 2378 1081 2264 
Q 1234 2150 1697 2047 
L 1894 2003 
Q 2506 1872 2764 1633 
Q 3022 1394 3022 966 
Q 3022 478 2636 193 
Q 2250 -91 1575 -91 
Q 1294 -91 989 -36 
Q 684 19 347 128 
L 347 722 
Q 666 556 975 473 
Q 1284 391 1588 391 
Q 1994 391 2212 530 
Q 2431 669 2431 922 
Q 2431 1156 2273 1281 
Q 2116 1406 1581 1522 
L 1381 1569 
Q 847 1681 609 1914 
Q 372 2147 372 2553 
Q 372 3047 722 3315 
Q 1072 3584 1716 3584 
Q 2034 3584 2315 3537 
Q 2597 3491 2834 3397 
z
" transform="scale(0.015625)"/>
       <path id="DejaVuSans-2f" d="M 1625 4666 
L 2156 4666 
L 531 -594 
L 0 -594 
L 1625 4666 
z
" transform="scale(0.015625)"/>
       <path id="DejaVuSans-64" d="M 2906 2969 
L 2906 4863 
L 3481 4863 
L 3481 0 
L 2906 0 
L 2906 525 
Q 2725 213 2448 61 
Q 2172 -91 1784 -91 
Q 1150 -91 751 415 
Q 353 922 353 1747 
Q 353 2572 751 3078 
Q 1150 3584 1784 3584 
Q 2172 3584 2448 3432 
Q 2725 3281 2906 2969 
z
M 947 1747 
Q 947 1113 1208 752 
Q 1469 391 1925 391 
Q 2381 391 2643 752 
Q 2906 1113 2906 1747 
Q 2906 2381 2643 2742 
Q 2381 3103 1925 3103 
Q 1469 3103 1208 2742 
Q 947 2381 947 1747 
z
" transform="scale(0.015625)"/>
       <path id="DejaVuSans-69" d="M 603 3500 
L 1178 3500 
L 1178 0 
L 603 0 
L 603 3500 
z
M 603 4863 
L 1178 4863 
L 1178 4134 
L 603 4134 
L 603 4863 
z
" transform="scale(0.015625)"/>
       <path id="DejaVuSans-6d" d="M 3328 2828 
Q 3544 3216 3844 3400 
Q 4144 3584 4550 3584 
Q 5097 3584 5394 3201 
Q 5691 2819 5691 2113 
L 5691 0 
L 5113 0 
L 5113 2094 
Q 5113 2597 4934 2840 
Q 4756 3084 4391 3084 
Q 3944 3084 3684 2787 
Q 3425 2491 3425 1978 
L 3425 0 
L 2847 0 
L 2847 2094 
Q 2847 2600 2669 2842 
Q 2491 3084 2119 3084 
Q 1678 3084 1418 2786 
Q 1159 2488 1159 1978 
L 1159 0 
L 581 0 
L 581 3500 
L 1159 3500 
L 1159 2956 
Q 1356 3278 1631 3431 
Q 1906 3584 2284 3584 
Q 2666 3584 2933 3390 
Q 3200 3197 3328 2828 
z
" transform="scale(0.015625)"/>
       <path id="DejaVuSans-6e" d="M 3513 2113 
L 3513 0 
L 2938 0 
L 2938 2094 
Q 2938 2591 2744 2837 
Q 2550 3084 2163 3084 
Q 1697 3084 1428 2787 
Q 1159 2491 1159 1978 
L 1159 0 
L 581 0 
L 581 3500 
L 1159 3500 
L 1159 2956 
Q 1366 3272 1645 3428 
Q 1925 3584 2291 3584 
Q 2894 3584 3203 3211 
Q 3513 2838 3513 2113 
z
" transform="scale(0.015625)"/>
       <path id="DejaVuSans-29" d="M 513 4856 
L 1013 4856 
Q 1481 4119 1714 3412 
Q 1947 2706 1947 2009 
Q 1947 1309 1714 600 
Q 1481 -109 1013 -844 
L 513 -844 
Q 928 -128 1133 580 
Q 1338 1288 1338 2009 
Q 1338 2731 1133 3434 
Q 928 4138 513 4856 
z
" transform="scale(0.015625)"/>
      </defs>
      <use xlink:href="#DejaVuSans-6c"/>
      <use xlink:href="#DejaVuSans-6f" x="27.783203"/>
      <use xlink:href="#DejaVuSans-67" x="88.964844"/>
      <use xlink:href="#DejaVuSans-31" x="152.441406"/>
      <use xlink:href="#DejaVuSans-30" x="216.064453"/>
      <use xlink:href="#DejaVuSans-28" x="279.6875"/>
      <use xlink:href="#DejaVuSans-23" x="318.701172"/>
      <use xlink:href="#DejaVuSans-20" x="402.490234"/>
      <use xlink:href="#DejaVuSans-66" x="434.277344"/>
      <use xlink:href="#DejaVuSans-2d" x="463.982422"/>
      <use xlink:href="#DejaVuSans-65" x="500.066406"/>
      <use xlink:href="#DejaVuSans-76" x="561.589844"/>
      <use xlink:href="#DejaVuSans-61" x="620.769531"/>
      <use xlink:href="#DejaVuSans-6c" x="682.048828"/>
      <use xlink:href="#DejaVuSans-73" x="709.832031"/>
      <use xlink:href="#DejaVuSans-20" x="761.931641"/>
      <use xlink:href="#DejaVuSans-2f" x="793.71875"/>
      <use xlink:href="#DejaVuSans-20" x="827.410156"/>
      <use xlink:href="#DejaVuSans-64" x="859.197266"/>
      <use xlink:href="#DejaVuSans-69" x="922.673828"/>
      <use xlink:href="#DejaVuSans-6d" x="950.457031"/>
      <use xlink:href="#DejaVuSans-65" x="1047.869141"/>
      <use xlink:href="#DejaVuSans-6e" x="1109.392578"/>
      <use xlink:href="#DejaVuSans-73" x="1172.771484"/>
      <use xlink:href="#DejaVuSans-69" x="1224.871094"/>
      <use xlink:href="#DejaVuSans-6f" x="1252.654297"/>
      <use xlink:href="#DejaVuSans-6e" x="1313.835938"/>
      <use xlink:href="#DejaVuSans-29" x="1377.214844"/>
     </g>
    </g>
   </g>
   <g id="matplotlib.axis_2">
    <g id="ytick_1">
     <g id="line2d_21">
      <path d="M 57.6 298.944 
L 360.8064 298.944 
" clip-path="url(#p44a7cf7e5c)" style="fill: none; stroke: #b0b0b0; stroke-width: 0.8; stroke-linecap: square"/>
     </g>
     <g id="line2d_22">
      <defs>
       <path id="mb87c62ea64" d="M 0 0 
L -3.5 0 
" style="stroke: #000000; stroke-width: 0.8"/>
      </defs>
      <g>
       <use xlink:href="#mb87c62ea64" x="57.6" y="298.944" style="stroke: #000000; stroke-width: 0.8"/>
      </g>
     </g>
     <g id="text_6">
      <!-- 0.0 -->
      <g transform="translate(25.155 305.02275)scale(0.16 -0.16)">
       <defs>
        <path id="DejaVuSans-2e" d="M 684 794 
L 1344 794 
L 1344 0 
L 684 0 
L 684 794 
z
" transform="scale(0.015625)"/>
       </defs>
       <use xlink:href="#DejaVuSans-30"/>
       <use xlink:href="#DejaVuSans-2e" x="63.623047"/>
       <use xlink:href="#DejaVuSans-30" x="95.410156"/>
      </g>
     </g>
    </g>
    <g id="ytick_2">
     <g id="line2d_23">
      <path d="M 57.6 240.5376 
L 360.8064 240.5376 
" clip-path="url(#p44a7cf7e5c)" style="fill: none; stroke: #b0b0b0; stroke-width: 0.8; stroke-linecap: square"/>
     </g>
     <g id="line2d_24">
      <g>
       <use xlink:href="#mb87c62ea64" x="57.6" y="240.5376" style="stroke: #000000; stroke-width: 0.8"/>
      </g>
     </g>
     <g id="text_7">
      <!-- 0.2 -->
      <g transform="translate(25.155 246.61635)scale(0.16 -0.16)">
       <use xlink:href="#DejaVuSans-30"/>
       <use xlink:href="#DejaVuSans-2e" x="63.623047"/>
       <use xlink:href="#DejaVuSans-32" x="95.410156"/>
      </g>
     </g>
    </g>
    <g id="ytick_3">
     <g id="line2d_25">
      <path d="M 57.6 182.1312 
L 360.8064 182.1312 
" clip-path="url(#p44a7cf7e5c)" style="fill: none; stroke: #b0b0b0; stroke-width: 0.8; stroke-linecap: square"/>
     </g>
     <g id="line2d_26">
      <g>
       <use xlink:href="#mb87c62ea64" x="57.6" y="182.1312" style="stroke: #000000; stroke-width: 0.8"/>
      </g>
     </g>
     <g id="text_8">
      <!-- 0.4 -->
      <g transform="translate(25.155 188.20995)scale(0.16 -0.16)">
       <use xlink:href="#DejaVuSans-30"/>
       <use xlink:href="#DejaVuSans-2e" x="63.623047"/>
       <use xlink:href="#DejaVuSans-34" x="95.410156"/>
      </g>
     </g>
    </g>
    <g id="ytick_4">
     <g id="line2d_27">
      <path d="M 57.6 123.7248 
L 360.8064 123.7248 
" clip-path="url(#p44a7cf7e5c)" style="fill: none; stroke: #b0b0b0; stroke-width: 0.8; stroke-linecap: square"/>
     </g>
     <g id="line2d_28">
      <g>
       <use xlink:href="#mb87c62ea64" x="57.6" y="123.7248" style="stroke: #000000; stroke-width: 0.8"/>
      </g>
     </g>
     <g id="text_9">
      <!-- 0.6 -->
      <g transform="translate(25.155 129.80355)scale(0.16 -0.16)">
       <use xlink:href="#DejaVuSans-30"/>
       <use xlink:href="#DejaVuSans-2e" x="63.623047"/>
       <use xlink:href="#DejaVuSans-36" x="95.410156"/>
      </g>
     </g>
    </g>
    <g id="ytick_5">
     <g id="line2d_29">
      <path d="M 57.6 65.3184 
L 360.8064 65.3184 
" clip-path="url(#p44a7cf7e5c)" style="fill: none; stroke: #b0b0b0; stroke-width: 0.8; stroke-linecap: square"/>
     </g>
     <g id="line2d_30">
      <g>
       <use xlink:href="#mb87c62ea64" x="57.6" y="65.3184" style="stroke: #000000; stroke-width: 0.8"/>
      </g>
     </g>
     <g id="text_10">
      <!-- 0.8 -->
      <g transform="translate(25.155 71.39715)scale(0.16 -0.16)">
       <defs>
        <path id="DejaVuSans-38" d="M 2034 2216 
Q 1584 2216 1326 1975 
Q 1069 1734 1069 1313 
Q 1069 891 1326 650 
Q 1584 409 2034 409 
Q 2484 409 2743 651 
Q 3003 894 3003 1313 
Q 3003 1734 2745 1975 
Q 2488 2216 2034 2216 
z
M 1403 2484 
Q 997 2584 770 2862 
Q 544 3141 544 3541 
Q 544 4100 942 4425 
Q 1341 4750 2034 4750 
Q 2731 4750 3128 4425 
Q 3525 4100 3525 3541 
Q 3525 3141 3298 2862 
Q 3072 2584 2669 2484 
Q 3125 2378 3379 2068 
Q 3634 1759 3634 1313 
Q 3634 634 3220 271 
Q 2806 -91 2034 -91 
Q 1263 -91 848 271 
Q 434 634 434 1313 
Q 434 1759 690 2068 
Q 947 2378 1403 2484 
z
M 1172 3481 
Q 1172 3119 1398 2916 
Q 1625 2713 2034 2713 
Q 2441 2713 2670 2916 
Q 2900 3119 2900 3481 
Q 2900 3844 2670 4047 
Q 2441 4250 2034 4250 
Q 1625 4250 1398 4047 
Q 1172 3844 1172 3481 
z
" transform="scale(0.015625)"/>
       </defs>
       <use xlink:href="#DejaVuSans-30"/>
       <use xlink:href="#DejaVuSans-2e" x="63.623047"/>
       <use xlink:href="#DejaVuSans-38" x="95.410156"/>
      </g>
     </g>
    </g>
    <g id="ytick_6">
     <g id="line2d_31">
      <path d="M 57.6 6.912 
L 360.8064 6.912 
" clip-path="url(#p44a7cf7e5c)" style="fill: none; stroke: #b0b0b0; stroke-width: 0.8; stroke-linecap: square"/>
     </g>
     <g id="line2d_32">
      <g>
       <use xlink:href="#mb87c62ea64" x="57.6" y="6.912" style="stroke: #000000; stroke-width: 0.8"/>
      </g>
     </g>
     <g id="text_11">
      <!-- 1.0 -->
      <g transform="translate(25.155 12.99075)scale(0.16 -0.16)">
       <use xlink:href="#DejaVuSans-31"/>
       <use xlink:href="#DejaVuSans-2e" x="63.623047"/>
       <use xlink:href="#DejaVuSans-30" x="95.410156"/>
      </g>
     </g>
    </g>
    <g id="text_12">
     <!-- Fraction of function,target pairs -->
     <g transform="translate(17.619531 287.313)rotate(-90)scale(0.17 -0.17)">
      <defs>
       <path id="DejaVuSans-46" d="M 628 4666 
L 3309 4666 
L 3309 4134 
L 1259 4134 
L 1259 2759 
L 3109 2759 
L 3109 2228 
L 1259 2228 
L 1259 0 
L 628 0 
L 628 4666 
z
" transform="scale(0.015625)"/>
       <path id="DejaVuSans-72" d="M 2631 2963 
Q 2534 3019 2420 3045 
Q 2306 3072 2169 3072 
Q 1681 3072 1420 2755 
Q 1159 2438 1159 1844 
L 1159 0 
L 581 0 
L 581 3500 
L 1159 3500 
L 1159 2956 
Q 1341 3275 1631 3429 
Q 1922 3584 2338 3584 
Q 2397 3584 2469 3576 
Q 2541 3569 2628 3553 
L 2631 2963 
z
" transform="scale(0.015625)"/>
       <path id="DejaVuSans-63" d="M 3122 3366 
L 3122 2828 
Q 2878 2963 2633 3030 
Q 2388 3097 2138 3097 
Q 1578 3097 1268 2742 
Q 959 2388 959 1747 
Q 959 1106 1268 751 
Q 1578 397 2138 397 
Q 2388 397 2633 464 
Q 2878 531 3122 666 
L 3122 134 
Q 2881 22 2623 -34 
Q 2366 -91 2075 -91 
Q 1284 -91 818 406 
Q 353 903 353 1747 
Q 353 2603 823 3093 
Q 1294 3584 2113 3584 
Q 2378 3584 2631 3529 
Q 2884 3475 3122 3366 
z
" transform="scale(0.015625)"/>
       <path id="DejaVuSans-74" d="M 1172 4494 
L 1172 3500 
L 2356 3500 
L 2356 3053 
L 1172 3053 
L 1172 1153 
Q 1172 725 1289 603 
Q 1406 481 1766 481 
L 2356 481 
L 2356 0 
L 1766 0 
Q 1100 0 847 248 
Q 594 497 594 1153 
L 594 3053 
L 172 3053 
L 172 3500 
L 594 3500 
L 594 4494 
L 1172 4494 
z
" transform="scale(0.015625)"/>
       <path id="DejaVuSans-75" d="M 544 1381 
L 544 3500 
L 1119 3500 
L 1119 1403 
Q 1119 906 1312 657 
Q 1506 409 1894 409 
Q 2359 409 2629 706 
Q 2900 1003 2900 1516 
L 2900 3500 
L 3475 3500 
L 3475 0 
L 2900 0 
L 2900 538 
Q 2691 219 2414 64 
Q 2138 -91 1772 -91 
Q 1169 -91 856 284 
Q 544 659 544 1381 
z
M 1991 3584 
L 1991 3584 
z
" transform="scale(0.015625)"/>
       <path id="DejaVuSans-2c" d="M 750 794 
L 1409 794 
L 1409 256 
L 897 -744 
L 494 -744 
L 750 256 
L 750 794 
z
" transform="scale(0.015625)"/>
       <path id="DejaVuSans-70" d="M 1159 525 
L 1159 -1331 
L 581 -1331 
L 581 3500 
L 1159 3500 
L 1159 2969 
Q 1341 3281 1617 3432 
Q 1894 3584 2278 3584 
Q 2916 3584 3314 3078 
Q 3713 2572 3713 1747 
Q 3713 922 3314 415 
Q 2916 -91 2278 -91 
Q 1894 -91 1617 61 
Q 1341 213 1159 525 
z
M 3116 1747 
Q 3116 2381 2855 2742 
Q 2594 3103 2138 3103 
Q 1681 3103 1420 2742 
Q 1159 2381 1159 1747 
Q 1159 1113 1420 752 
Q 1681 391 2138 391 
Q 2594 391 2855 752 
Q 3116 1113 3116 1747 
z
" transform="scale(0.015625)"/>
      </defs>
      <use xlink:href="#DejaVuSans-46"/>
      <use xlink:href="#DejaVuSans-72" x="50.269531"/>
      <use xlink:href="#DejaVuSans-61" x="91.382812"/>
      <use xlink:href="#DejaVuSans-63" x="152.662109"/>
      <use xlink:href="#DejaVuSans-74" x="207.642578"/>
      <use xlink:href="#DejaVuSans-69" x="246.851562"/>
      <use xlink:href="#DejaVuSans-6f" x="274.634766"/>
      <use xlink:href="#DejaVuSans-6e" x="335.816406"/>
      <use xlink:href="#DejaVuSans-20" x="399.195312"/>
      <use xlink:href="#DejaVuSans-6f" x="430.982422"/>
      <use xlink:href="#DejaVuSans-66" x="492.164062"/>
      <use xlink:href="#DejaVuSans-20" x="527.369141"/>
      <use xlink:href="#DejaVuSans-66" x="559.15625"/>
      <use xlink:href="#DejaVuSans-75" x="594.361328"/>
      <use xlink:href="#DejaVuSans-6e" x="657.740234"/>
      <use xlink:href="#DejaVuSans-63" x="721.119141"/>
      <use xlink:href="#DejaVuSans-74" x="776.099609"/>
      <use xlink:href="#DejaVuSans-69" x="815.308594"/>
      <use xlink:href="#DejaVuSans-6f" x="843.091797"/>
      <use xlink:href="#DejaVuSans-6e" x="904.273438"/>
      <use xlink:href="#DejaVuSans-2c" x="967.652344"/>
      <use xlink:href="#DejaVuSans-74" x="999.439453"/>
      <use xlink:href="#DejaVuSans-61" x="1038.648438"/>
      <use xlink:href="#DejaVuSans-72" x="1099.927734"/>
      <use xlink:href="#DejaVuSans-67" x="1139.291016"/>
      <use xlink:href="#DejaVuSans-65" x="1202.767578"/>
      <use xlink:href="#DejaVuSans-74" x="1264.291016"/>
      <use xlink:href="#DejaVuSans-20" x="1303.5"/>
      <use xlink:href="#DejaVuSans-70" x="1335.287109"/>
      <use xlink:href="#DejaVuSans-61" x="1398.763672"/>
      <use xlink:href="#DejaVuSans-69" x="1460.042969"/>
      <use xlink:href="#DejaVuSans-72" x="1487.826172"/>
      <use xlink:href="#DejaVuSans-73" x="1528.939453"/>
     </g>
    </g>
   </g>
   <g id="line2d_33">
    <defs>
     <path id="m20bc7ab51a" d="M 0 1.5 
C 0.397805 1.5 0.77937 1.341951 1.06066 1.06066 
C 1.341951 0.77937 1.5 0.397805 1.5 0 
C 1.5 -0.397805 1.341951 -0.77937 1.06066 -1.06066 
C 0.77937 -1.341951 0.397805 -1.5 0 -1.5 
C -0.397805 -1.5 -0.77937 -1.341951 -1.06066 -1.06066 
C -1.341951 -0.77937 -1.5 -0.397805 -1.5 0 
C -1.5 0.397805 -1.341951 0.77937 -1.06066 1.06066 
C -0.77937 1.341951 -0.397805 1.5 0 1.5 
z
" style="stroke: #f5deb3"/>
    </defs>
    <g>
     <use xlink:href="#m20bc7ab51a" x="275.821742" y="42.157241" style="fill: #f5deb3; stroke: #f5deb3"/>
     <use xlink:href="#m20bc7ab51a" x="275.821742" y="42.157241" style="fill: #f5deb3; stroke: #f5deb3"/>
    </g>
   </g>
   <g id="line2d_34">
    <defs>
     <path id="m595029f48e" d="M 0 1.5 
C 0.397805 1.5 0.77937 1.341951 1.06066 1.06066 
C 1.341951 0.77937 1.5 0.397805 1.5 0 
C 1.5 -0.397805 1.341951 -0.77937 1.06066 -1.06066 
C 0.77937 -1.341951 0.397805 -1.5 0 -1.5 
C -0.397805 -1.5 -0.77937 -1.341951 -1.06066 -1.06066 
C -1.341951 -0.77937 -1.5 -0.397805 -1.5 0 
C -1.5 0.397805 -1.341951 0.77937 -1.06066 1.06066 
C -0.77937 1.341951 -0.397805 1.5 0 1.5 
z
" style="stroke: #000080"/>
    </defs>
    <g>
     <use xlink:href="#m595029f48e" x="78.266603" y="273.768828" style="fill: #000080; stroke: #000080"/>
     <use xlink:href="#m595029f48e" x="78.266603" y="273.768828" style="fill: #000080; stroke: #000080"/>
    </g>
   </g>
   <g id="line2d_35">
    <path d="M 36.933397 298.944 
L 36.933397 289.041766 
L 49.972572 289.041766 
L 49.972572 286.692083 
L 57.6 286.692083 
L 57.6 284.3424 
L 63.011746 284.3424 
L 63.011746 282.664055 
L 67.209423 282.664055 
L 67.209423 279.307366 
L 70.639174 279.307366 
L 70.639174 277.629021 
L 73.538988 277.629021 
L 73.538988 276.622014 
L 76.050921 276.622014 
L 76.050921 275.950676 
L 78.266603 275.950676 
L 78.266603 273.768828 
L 360.8064 273.768828 
" style="fill: none; stroke: #000080; stroke-width: 1.5; stroke-linecap: square"/>
   </g>
   <g id="line2d_36">
    <defs>
     <path id="mdd0c5846ad" d="M 0 6 
C 1.591219 6 3.117479 5.367802 4.242641 4.242641 
C 5.367802 3.117479 6 1.591219 6 0 
C 6 -1.591219 5.367802 -3.117479 4.242641 -4.242641 
C 3.117479 -5.367802 1.591219 -6 0 -6 
C -1.591219 -6 -3.117479 -5.367802 -4.242641 -4.242641 
C -5.367802 -3.117479 -6 -1.591219 -6 0 
C -6 1.591219 -5.367802 3.117479 -4.242641 4.242641 
C -3.117479 5.367802 -1.591219 6 0 6 
z
" style="stroke: #000080; stroke-width: 1.5"/>
    </defs>
    <g>
     <use xlink:href="#mdd0c5846ad" x="78.266603" y="275.950676" style="fill-opacity: 0; stroke: #000080; stroke-width: 1.5"/>
     <use xlink:href="#mdd0c5846ad" x="78.266603" y="275.950676" style="fill-opacity: 0; stroke: #000080; stroke-width: 1.5"/>
     <use xlink:href="#mdd0c5846ad" x="78.266603" y="273.768828" style="fill-opacity: 0; stroke: #000080; stroke-width: 1.5"/>
     <use xlink:href="#mdd0c5846ad" x="78.266603" y="273.768828" style="fill-opacity: 0; stroke: #000080; stroke-width: 1.5"/>
     <use xlink:href="#mdd0c5846ad" x="78.266603" y="273.768828" style="fill-opacity: 0; stroke: #000080; stroke-width: 1.5"/>
     <use xlink:href="#mdd0c5846ad" x="360.8064" y="273.768828" style="fill-opacity: 0; stroke: #000080; stroke-width: 1.5"/>
    </g>
   </g>
   <g id="line2d_37">
    <path style="fill: none; stroke: #000080; stroke-width: 1.5; stroke-linecap: square"/>
    <g/>
   </g>
   <g id="line2d_38">
    <path d="M 78.266603 273.768828 
" clip-path="url(#p44a7cf7e5c)" style="fill: none; stroke: #000080; stroke-width: 1.5; stroke-linecap: square"/>
    <defs>
     <path id="mc0e6a328eb" d="M -12 12 
L 12 -12 
M -12 -12 
L 12 12 
" style="stroke: #000080"/>
    </defs>
    <g clip-path="url(#p44a7cf7e5c)">
     <use xlink:href="#mc0e6a328eb" x="78.266603" y="273.768828" style="fill: #000080; stroke: #000080"/>
    </g>
   </g>
   <g id="line2d_39">
    <defs>
     <path id="m9c4b0bd0f4" d="M 0 1.5 
C 0.397805 1.5 0.77937 1.341951 1.06066 1.06066 
C 1.341951 0.77937 1.5 0.397805 1.5 0 
C 1.5 -0.397805 1.341951 -0.77937 1.06066 -1.06066 
C 0.77937 -1.341951 0.397805 -1.5 0 -1.5 
C -0.397805 -1.5 -0.77937 -1.341951 -1.06066 -1.06066 
C -1.341951 -0.77937 -1.5 -0.397805 -1.5 0 
C -1.5 0.397805 -1.341951 0.77937 -1.06066 1.06066 
C -0.77937 1.341951 -0.397805 1.5 0 1.5 
z
" style="stroke: #ff00ff"/>
    </defs>
    <g>
     <use xlink:href="#m9c4b0bd0f4" x="274.148892" y="71.024772" style="fill: #ff00ff; stroke: #ff00ff"/>
     <use xlink:href="#m9c4b0bd0f4" x="274.148892" y="71.024772" style="fill: #ff00ff; stroke: #ff00ff"/>
    </g>
   </g>
   <g id="line2d_40">
    <path d="M 36.933397 298.944 
L 36.933397 289.041766 
L 49.972572 289.041766 
L 49.972572 287.531255 
L 57.6 287.531255 
L 57.6 287.363421 
L 63.011746 287.363421 
L 63.011746 285.181572 
L 67.209423 285.181572 
L 67.209423 284.845903 
L 70.639174 284.845903 
L 70.639174 284.006731 
L 73.538988 284.006731 
L 73.538988 283.335393 
L 76.050921 283.335393 
L 76.050921 281.824883 
L 78.266603 281.824883 
L 78.266603 280.314372 
L 80.248597 280.314372 
L 80.248597 279.810869 
L 82.04153 279.810869 
L 82.04153 278.468193 
L 83.678349 278.468193 
L 83.678349 277.96469 
L 85.184077 277.96469 
L 85.184077 275.950676 
L 86.578163 275.950676 
L 86.578163 275.782841 
L 87.876026 275.782841 
L 87.876026 274.775834 
L 89.090095 274.775834 
L 89.090095 274.272331 
L 90.230539 274.272331 
L 90.230539 274.104497 
L 91.305777 274.104497 
L 91.305777 273.600993 
L 92.322865 273.600993 
L 92.322865 272.761821 
L 93.287772 272.761821 
L 93.287772 272.593986 
L 94.205591 272.593986 
L 94.205591 271.586979 
L 95.080704 271.586979 
L 95.080704 271.419145 
L 97.485448 271.419145 
L 97.485448 270.747807 
L 98.933205 270.747807 
L 98.933205 270.076469 
L 99.617337 270.076469 
L 99.617337 269.405131 
L 100.277459 269.405131 
L 100.277459 269.069462 
L 100.9152 269.069462 
L 100.9152 268.565959 
L 101.532027 268.565959 
L 101.532027 268.062455 
L 102.12927 268.062455 
L 102.12927 267.558952 
L 102.708132 267.558952 
L 102.708132 266.887614 
L 103.269713 266.887614 
L 103.269713 266.216276 
L 105.36204 266.216276 
L 105.36204 266.048441 
L 106.326946 266.048441 
L 106.326946 265.712772 
L 106.791453 265.712772 
L 106.791453 265.377103 
L 107.244765 265.377103 
L 107.244765 264.8736 
L 107.68741 264.8736 
L 107.68741 264.034428 
L 108.119879 264.034428 
L 108.119879 263.530924 
L 108.542628 263.530924 
L 108.542628 263.195255 
L 108.956085 263.195255 
L 108.956085 262.859586 
L 109.360651 262.859586 
L 109.360651 262.691752 
L 110.524623 262.691752 
L 110.524623 262.523917 
L 111.620752 262.523917 
L 111.620752 262.188248 
L 113.638206 262.188248 
L 113.638206 262.020414 
L 114.265316 262.020414 
L 114.265316 261.349076 
L 114.571202 261.349076 
L 114.571202 261.181241 
L 114.872193 261.181241 
L 114.872193 260.677738 
L 115.168444 260.677738 
L 115.168444 260.509903 
L 116.854188 260.509903 
L 116.854188 260.174234 
L 117.121023 260.174234 
L 117.121023 259.838566 
L 117.384126 259.838566 
L 117.384126 259.670731 
L 117.899543 259.670731 
L 117.899543 258.999393 
L 118.152051 258.999393 
L 118.152051 258.49589 
L 118.64712 258.49589 
L 118.64712 258.160221 
L 118.889854 258.160221 
L 118.889854 257.992386 
L 119.599808 257.992386 
L 119.599808 257.824552 
L 119.830627 257.824552 
L 119.830627 257.488883 
L 120.28394 257.488883 
L 120.28394 257.153214 
L 120.726585 257.153214 
L 120.726585 256.817545 
L 120.944062 256.817545 
L 120.944062 256.64971 
L 121.159053 256.64971 
L 121.159053 256.481876 
L 121.789667 256.481876 
L 121.789667 256.314041 
L 121.99526 256.314041 
L 121.99526 256.146207 
L 122.598891 256.146207 
L 122.598891 255.474869 
L 122.795872 255.474869 
L 122.795872 255.1392 
L 122.990812 255.1392 
L 122.990812 254.971366 
L 123.183753 254.971366 
L 123.183753 254.467862 
L 123.374735 254.467862 
L 123.374735 254.300028 
L 123.563797 254.300028 
L 123.563797 253.125186 
L 123.750979 253.125186 
L 123.750979 252.957352 
L 123.936316 252.957352 
L 123.936316 252.453848 
L 124.3016 252.453848 
L 124.3016 252.286014 
L 124.481616 252.286014 
L 124.481616 252.118179 
L 125.011554 252.118179 
L 125.011554 251.950345 
L 125.184934 251.950345 
L 125.184934 251.78251 
L 125.35673 251.78251 
L 125.35673 251.279007 
L 125.695686 251.279007 
L 125.695686 251.111172 
L 125.862901 251.111172 
L 125.862901 250.607669 
L 126.355808 250.607669 
L 126.355808 250.104166 
L 127.149662 250.104166 
L 127.149662 249.936331 
L 127.610376 249.936331 
L 127.610376 249.264993 
L 128.060076 249.264993 
L 128.060076 248.929324 
L 128.499277 248.929324 
L 128.499277 248.76149 
L 128.786481 248.76149 
L 128.786481 248.090152 
L 128.928456 248.090152 
L 128.928456 247.754483 
L 129.209231 247.754483 
L 129.209231 247.250979 
L 129.485876 247.250979 
L 129.485876 246.747476 
L 129.758512 246.747476 
L 129.758512 246.579641 
L 129.893363 246.579641 
L 129.893363 246.076138 
L 130.027253 246.076138 
L 130.027253 245.740469 
L 130.292209 245.740469 
L 130.292209 245.236966 
L 130.4233 245.236966 
L 130.4233 245.069131 
L 130.682774 245.069131 
L 130.682774 244.901297 
L 130.811181 244.901297 
L 130.811181 244.733462 
L 130.938718 244.733462 
L 130.938718 244.229959 
L 131.065395 244.229959 
L 131.065395 243.89429 
L 131.191226 243.89429 
L 131.191226 243.390786 
L 131.31622 243.390786 
L 131.31622 243.222952 
L 131.686295 243.222952 
L 131.686295 242.887283 
L 131.929028 242.887283 
L 131.929028 242.551614 
L 132.04923 242.551614 
L 132.04923 242.383779 
L 132.168669 242.383779 
L 132.168669 242.04811 
L 132.405295 242.04811 
L 132.405295 241.208938 
L 132.522502 241.208938 
L 132.522502 241.041103 
L 132.638982 241.041103 
L 132.638982 240.705434 
L 132.984158 240.705434 
L 132.984158 240.201931 
L 133.434756 240.201931 
L 133.434756 239.698428 
L 133.765759 239.698428 
L 133.765759 239.362759 
L 133.983236 239.362759 
L 133.983236 239.194924 
L 134.198228 239.194924 
L 134.304809 238.691421 
L 134.41079 238.691421 
L 134.516177 237.18091 
L 134.620977 237.18091 
L 134.620977 236.845241 
L 135.034434 236.845241 
L 135.034434 236.173903 
L 135.237805 236.173903 
L 135.237805 235.838234 
L 135.438999 235.838234 
L 135.538796 235.502566 
L 135.736814 235.502566 
L 135.736814 235.334731 
L 135.932769 235.334731 
L 135.932769 235.166897 
L 136.318661 235.166897 
L 136.413909 233.992055 
L 136.602972 233.992055 
L 136.602972 233.824221 
L 137.250116 233.824221 
L 137.340774 233.320717 
L 137.787626 233.320717 
L 137.787626 232.985048 
L 138.310202 232.985048 
L 138.395904 232.31371 
L 138.481218 232.31371 
L 138.481218 231.978041 
L 138.73486 231.978041 
L 138.73486 231.810207 
L 138.902075 231.810207 
L 138.902075 231.642372 
L 139.067817 231.642372 
L 139.067817 231.306703 
L 139.313723 231.306703 
L 139.313723 230.971034 
L 139.716555 230.971034 
L 139.796097 230.299697 
L 139.875304 230.299697 
L 139.875304 229.964028 
L 140.032723 229.964028 
L 140.032723 229.796193 
L 140.188837 229.796193 
L 140.188837 229.628359 
L 140.420604 229.628359 
L 140.420604 228.957021 
L 140.649551 228.957021 
L 140.649551 228.621352 
L 140.800648 228.621352 
L 140.800648 228.453517 
L 141.320133 228.453517 
L 141.320133 228.117848 
L 141.754265 228.117848 
L 141.754265 227.782179 
L 141.96763 227.782179 
L 141.96763 227.44651 
L 142.108542 227.44651 
L 142.108542 227.278676 
L 142.317949 227.278676 
L 142.317949 227.110841 
L 142.593581 227.110841 
L 142.593581 226.943007 
L 142.729897 226.943007 
L 142.729897 226.607338 
L 142.932537 226.607338 
L 142.999601 226.271669 
L 143.133017 226.271669 
L 143.133017 225.936 
L 143.265494 225.936 
L 143.331383 225.264662 
L 143.462475 225.264662 
L 143.462475 224.928993 
L 143.592659 224.928993 
L 143.592659 224.761159 
L 144.664294 224.761159 
L 144.664294 224.593324 
L 144.907812 224.593324 
L 144.907812 224.42549 
L 145.26728 224.42549 
L 145.326529 224.089821 
L 145.385592 224.089821 
L 145.385592 223.418483 
L 145.503164 223.418483 
L 145.561676 222.747145 
L 145.678157 222.747145 
L 145.678157 222.411476 
L 145.966241 222.411476 
L 145.966241 222.075807 
L 146.859539 222.075807 
L 146.859539 221.907972 
L 147.076389 221.907972 
L 147.076389 221.740138 
L 147.290768 221.740138 
L 147.290768 221.404469 
L 148.874221 221.404469 
L 148.874221 221.0688 
L 149.069161 221.0688 
L 149.069161 220.733131 
L 149.829328 220.733131 
L 149.829328 220.565297 
L 150.243797 220.565297 
L 150.243797 220.397462 
L 150.425115 220.397462 
L 150.425115 220.229628 
L 150.649331 220.229628 
L 150.649331 220.061793 
L 151.089903 220.061793 
L 151.089903 219.893959 
L 151.815978 219.893959 
L 151.815978 219.55829 
L 152.024303 219.55829 
L 152.024303 219.054786 
L 152.312136 219.054786 
L 152.312136 218.719117 
L 152.595631 218.719117 
L 152.595631 218.383448 
L 153.150116 218.383448 
L 153.150116 218.215614 
L 153.305585 218.215614 
L 153.38284 217.544276 
L 153.650761 217.544276 
L 153.688725 217.208607 
L 154.793439 217.208607 
L 154.900425 216.872938 
L 155.077392 216.872938 
L 155.18278 216.2016 
L 155.391799 216.2016 
L 155.391799 216.033766 
L 155.632755 216.033766 
L 155.701037 215.530262 
L 156.271636 215.530262 
L 156.271636 215.194593 
L 157.269574 215.194593 
L 157.269574 215.026759 
L 158.746339 215.026759 
L 158.746339 214.858924 
L 160.751508 214.858924 
L 160.751508 214.69109 
L 160.933013 214.69109 
L 161.035949 214.019752 
L 161.138325 214.019752 
L 161.138325 213.684083 
L 162.084079 213.684083 
L 162.084079 213.516248 
L 162.492258 213.516248 
L 162.515995 213.180579 
L 162.751732 213.180579 
L 162.845206 212.341407 
L 163.59914 212.341407 
L 163.688506 211.837903 
L 164.019898 211.837903 
L 164.019898 211.670069 
L 164.259262 211.670069 
L 164.345553 211.3344 
L 164.70794 211.3344 
L 164.70794 210.998731 
L 164.855153 210.998731 
L 164.855153 210.830897 
L 165.125528 210.830897 
L 165.125528 210.663062 
L 165.473332 210.663062 
L 165.473332 210.327393 
L 165.735027 210.327393 
L 165.735027 209.991724 
L 165.953653 209.991724 
L 166.012839 209.488221 
L 166.228279 209.488221 
L 166.228279 209.152552 
L 166.7279 209.152552 
L 166.7279 208.816883 
L 166.916583 208.816883 
L 166.916583 208.481214 
L 167.435044 208.481214 
L 167.471536 207.809876 
L 167.904005 207.809876 
L 167.975126 206.802869 
L 168.448287 206.802869 
L 168.482867 205.124524 
L 168.6034 205.124524 
L 168.6034 204.95669 
L 168.723164 204.95669 
L 168.757243 203.949683 
L 169.343842 203.949683 
L 169.360337 203.278345 
L 169.557146 203.278345 
L 169.654784 202.942676 
L 169.976632 202.942676 
L 170.008516 202.439172 
L 170.119687 202.439172 
L 170.230204 201.935669 
L 170.340075 201.935669 
L 170.402572 201.6 
L 170.480403 201.6 
L 170.573376 200.760828 
L 170.619691 200.760828 
L 170.727317 199.585986 
L 170.788543 199.585986 
L 170.803818 199.250317 
L 170.955893 199.250317 
L 171.001277 198.746814 
L 171.091717 198.746814 
L 171.091717 198.24331 
L 171.211632 198.24331 
L 171.315934 197.571972 
L 171.360458 197.571972 
L 171.463941 197.068469 
L 171.581513 197.068469 
L 171.640025 196.7328 
L 171.741985 196.7328 
L 171.771015 196.061462 
L 171.857838 196.061462 
L 171.958627 195.390124 
L 171.987325 195.390124 
L 172.015979 194.550952 
L 172.370523 194.550952 
L 172.440637 194.047448 
L 172.649425 194.047448 
L 172.732295 193.711779 
L 172.773594 193.711779 
L 172.85592 193.040441 
L 172.910605 193.040441 
L 172.910605 192.872607 
L 173.033068 192.872607 
L 173.114269 192.369103 
L 173.154738 192.369103 
L 173.154738 192.033434 
L 173.369117 192.033434 
L 173.369117 191.8656 
L 173.581081 191.8656 
L 173.686173 191.194262 
L 173.7385 191.194262 
L 173.7385 190.858593 
L 173.959281 190.858593 
L 173.997974 190.187255 
L 174.139174 190.187255 
L 174.228479 189.515917 
L 174.330027 189.515917 
L 174.431028 189.012414 
L 174.456194 189.012414 
L 174.518962 188.005407 
L 174.618958 188.005407 
L 174.706019 187.501903 
L 174.755589 187.501903 
L 174.755589 187.166234 
L 174.903518 187.166234 
L 174.915793 186.662731 
L 175.400341 186.662731 
L 175.400341 186.327062 
L 175.614382 186.327062 
L 175.708734 185.655724 
L 175.732249 185.655724 
L 175.826014 184.648717 
L 175.896032 184.648717 
L 175.988986 184.313048 
L 176.023726 184.313048 
L 176.023726 184.145214 
L 176.310755 184.145214 
L 176.33353 183.809545 
L 176.593471 183.809545 
L 176.638314 183.473876 
L 176.872001 183.473876 
L 176.949256 182.970372 
L 177.080959 182.970372 
L 177.190012 182.634703 
L 177.276801 182.634703 
L 177.276801 182.299034 
L 177.502736 182.299034 
L 177.534792 181.795531 
L 177.904798 181.795531 
L 178.009191 180.788524 
L 178.133703 180.788524 
L 178.205956 179.949352 
L 178.359855 179.949352 
L 178.441423 179.278014 
L 178.47192 179.278014 
L 178.492224 178.77451 
L 178.613589 178.77451 
L 178.613589 178.606676 
L 178.754199 178.606676 
L 178.754199 178.438841 
L 178.883832 178.438841 
L 178.883832 178.271007 
L 179.101194 178.271007 
L 179.140447 177.935338 
L 179.286917 177.935338 
L 179.393608 177.096166 
L 179.470823 177.096166 
L 179.490078 176.760497 
L 179.595626 176.760497 
L 179.643407 176.424828 
L 179.748101 176.424828 
L 179.776554 175.921324 
L 179.871084 175.921324 
L 179.908764 175.249986 
L 180.161146 175.249986 
L 180.161146 174.914317 
L 180.501594 174.914317 
L 180.547132 174.410814 
L 180.862845 174.410814 
L 180.952084 173.90731 
L 181.014301 173.90731 
L 181.023172 173.571641 
L 181.234837 173.571641 
L 181.287383 173.068138 
L 181.400733 173.068138 
L 181.461485 172.3968 
L 181.573793 172.3968 
L 181.642574 171.893297 
L 181.685435 171.893297 
L 181.787904 170.88629 
L 181.90675 170.88629 
L 181.932119 170.382786 
L 182.024849 170.382786 
L 182.075238 170.047117 
L 182.183951 170.047117 
L 182.200621 169.543614 
L 182.349985 169.543614 
L 182.349985 169.207945 
L 182.465343 169.207945 
L 182.571832 168.368772 
L 182.693959 168.368772 
L 182.693959 168.200938 
L 183.047691 168.200938 
L 183.047691 167.865269 
L 183.277247 167.865269 
L 183.363593 167.361766 
L 183.550619 167.361766 
L 183.658865 166.858262 
L 183.705066 166.858262 
L 183.705066 166.690428 
L 183.850626 166.690428 
L 183.957164 166.186924 
L 183.979915 166.186924 
L 184.085726 165.515586 
L 184.130892 165.515586 
L 184.130892 165.179917 
L 184.243334 165.179917 
L 184.347677 164.340745 
L 184.355108 164.340745 
L 184.355108 164.17291 
L 184.466222 164.17291 
L 184.495742 163.837241 
L 184.628012 163.837241 
L 184.628012 163.669407 
L 184.88257 163.669407 
L 184.99062 163.165903 
L 185.00498 163.165903 
L 185.00498 162.830234 
L 185.33227 162.830234 
L 185.353418 162.326731 
L 185.472812 162.326731 
L 185.479812 161.823228 
L 185.640089 161.823228 
L 185.73008 160.648386 
L 186.004306 160.648386 
L 186.106119 159.977048 
L 186.261169 159.977048 
L 186.34156 159.30571 
L 186.381628 159.30571 
L 186.381628 159.137876 
L 186.527815 159.137876 
L 186.580694 158.298703 
L 186.855894 158.298703 
L 186.914345 157.7952 
L 187.133536 157.7952 
L 187.197521 157.459531 
L 187.324842 157.459531 
L 187.369201 156.956028 
L 187.626941 156.956028 
L 187.714147 156.28469 
L 187.763798 156.28469 
L 187.83803 155.613352 
L 187.905819 155.613352 
L 187.930409 155.277683 
L 188.07728 155.277683 
L 188.095558 154.774179 
L 188.319544 154.774179 
L 188.319544 154.606345 
L 188.439516 154.606345 
L 188.439516 154.270676 
L 188.576544 154.270676 
L 188.671283 153.935007 
L 188.78317 153.935007 
L 188.876876 153.095834 
L 189.132188 153.095834 
L 189.201221 152.592331 
L 189.292873 152.592331 
L 189.292873 152.424497 
L 189.42952 152.424497 
L 189.536998 152.088828 
L 189.576441 152.088828 
L 189.576441 151.920993 
L 190.010445 151.920993 
L 190.103721 151.41749 
L 190.24549 151.41749 
L 190.24549 151.249655 
L 190.472268 151.249655 
L 190.568628 150.913986 
L 190.648553 150.913986 
L 190.648553 150.746152 
L 190.8232 150.746152 
L 190.875805 150.410483 
L 190.964898 150.410483 
L 191.074374 150.074814 
L 191.084767 150.074814 
L 191.084767 149.906979 
L 191.450051 149.906979 
L 191.450051 149.739145 
L 191.99244 149.739145 
L 191.99244 149.57131 
L 192.538872 149.57131 
L 192.538872 149.403476 
L 192.66826 149.403476 
L 192.66826 149.235641 
L 192.844137 149.235641 
L 192.844137 149.067807 
L 193.172445 149.067807 
L 193.26983 148.396469 
L 193.495121 148.396469 
L 193.499691 148.0608 
L 193.749335 148.0608 
L 193.749335 147.892966 
L 193.951153 147.892966 
L 194.022393 147.389462 
L 194.194916 147.389462 
L 194.194916 147.221628 
L 194.422513 147.221628 
L 194.422513 147.053793 
L 194.565534 147.053793 
L 194.64309 146.55029 
L 195.438686 146.55029 
L 195.508625 146.046786 
L 195.708771 146.046786 
L 195.741247 145.711117 
L 195.950983 145.711117 
L 196.050992 145.039779 
L 196.375337 145.039779 
L 196.418424 144.368441 
L 196.558752 144.368441 
L 196.609169 144.032772 
L 196.87835 144.032772 
L 196.87835 143.864938 
L 197.003925 143.864938 
L 197.003925 143.697103 
L 197.241358 143.697103 
L 197.241358 143.361434 
L 197.630538 143.361434 
L 197.630538 143.1936 
L 198.172903 143.1936 
L 198.272436 142.354428 
L 198.413717 142.354428 
L 198.413717 142.186593 
L 198.807199 142.186593 
L 198.872558 141.68309 
L 199.343931 141.68309 
L 199.384077 141.011752 
L 199.560369 141.011752 
L 199.603359 140.508248 
L 199.685758 140.508248 
L 199.685758 140.340414 
L 199.833172 140.340414 
L 199.833172 140.004745 
L 200.274982 140.004745 
L 200.287727 139.501241 
L 200.603577 139.501241 
L 200.647375 138.997738 
L 200.874117 138.997738 
L 200.911129 138.662069 
L 201.009474 138.662069 
L 201.009474 138.494234 
L 201.204636 138.494234 
L 201.231919 137.990731 
L 201.349689 137.990731 
L 201.349689 137.822897 
L 201.828214 137.822897 
L 201.845814 137.319393 
L 202.277683 137.319393 
L 202.277683 137.151559 
L 202.389104 137.151559 
L 202.482871 136.648055 
L 202.74184 136.648055 
L 202.794882 136.144552 
L 202.90329 136.144552 
L 202.955879 135.305379 
L 203.330781 135.305379 
L 203.374082 134.801876 
L 203.642478 134.801876 
L 203.642478 134.634041 
L 204.310042 134.634041 
L 204.310042 134.466207 
L 204.427983 134.466207 
L 204.427983 134.298372 
L 204.583252 134.298372 
L 204.583252 134.130538 
L 204.842552 134.130538 
L 204.877522 133.4592 
L 205.066235 133.4592 
L 205.066235 133.291366 
L 205.348236 133.291366 
L 205.348236 133.123531 
L 205.476792 133.123531 
L 205.539538 132.787862 
L 206.141748 132.787862 
L 206.141748 132.620028 
L 206.652751 132.620028 
L 206.691315 132.284359 
L 206.786255 132.284359 
L 206.856023 131.780855 
L 206.950137 131.780855 
L 207.050454 130.941683 
L 207.315378 130.941683 
L 207.315378 130.773848 
L 207.572299 130.773848 
L 207.652142 130.438179 
L 207.838556 130.438179 
L 207.910908 129.934676 
L 208.082163 129.934676 
L 208.187104 129.431172 
L 208.384892 129.431172 
L 208.459303 129.095503 
L 208.7581 129.095503 
L 208.7581 128.927669 
L 209.35953 128.927669 
L 209.469333 128.424166 
L 209.504491 128.424166 
L 209.560997 127.920662 
L 209.652216 127.920662 
L 209.66383 127.417159 
L 209.791104 127.417159 
L 209.816073 127.08149 
L 209.93279 127.08149 
L 209.93279 126.913655 
L 210.084773 126.913655 
L 210.126354 126.577986 
L 210.316077 126.577986 
L 210.316077 126.410152 
L 210.459443 126.410152 
L 210.459443 126.242317 
L 210.823157 126.242317 
L 210.823157 125.906648 
L 211.119181 125.906648 
L 211.201382 125.403145 
L 211.558161 125.403145 
L 211.591374 125.067476 
L 212.099662 125.067476 
L 212.099662 124.899641 
L 212.581326 124.899641 
L 212.581326 124.563972 
L 213.136424 124.563972 
L 213.136424 124.396138 
L 213.255099 124.396138 
L 213.293428 124.060469 
L 213.57529 124.060469 
L 213.57529 123.892634 
L 213.94414 123.892634 
L 213.998004 123.556966 
L 214.216488 123.556966 
L 214.251393 123.053462 
L 214.723035 123.053462 
L 214.723035 122.885628 
L 214.860051 122.885628 
L 214.860051 122.549959 
L 215.06009 122.549959 
L 215.06009 122.382124 
L 215.233576 122.382124 
L 215.335474 122.046455 
L 215.536212 122.046455 
L 215.536212 121.878621 
L 215.983994 121.878621 
L 215.983994 121.542952 
L 216.246271 121.542952 
L 216.246271 121.375117 
L 216.83162 121.375117 
L 216.83162 121.207283 
L 217.583094 121.207283 
L 217.692007 120.535945 
L 217.905463 120.535945 
L 217.905463 120.36811 
L 218.254294 120.36811 
L 218.254294 120.200276 
L 218.689213 120.200276 
L 218.77405 119.864607 
L 219.013343 119.864607 
L 219.013343 119.696772 
L 219.415128 119.696772 
L 219.497907 119.193269 
L 219.856969 119.193269 
L 219.956873 118.8576 
L 220.014999 118.8576 
L 220.092963 118.018428 
L 220.376462 118.018428 
L 220.457307 117.514924 
L 220.548657 117.514924 
L 220.548657 117.34709 
L 221.14973 117.34709 
L 221.14973 117.179255 
L 221.450971 117.179255 
L 221.531455 116.675752 
L 221.746446 116.675752 
L 221.797275 116.340083 
L 222.198038 116.340083 
L 222.198038 116.172248 
L 223.903222 116.172248 
L 223.903222 115.836579 
L 224.042487 115.836579 
L 224.042487 115.50091 
L 224.556175 115.50091 
L 224.556175 115.165241 
L 224.739389 115.165241 
L 224.774085 114.661738 
L 224.900187 114.661738 
L 224.900187 114.326069 
L 225.086064 114.326069 
L 225.086064 114.158234 
L 225.265058 114.158234 
L 225.311436 113.654731 
L 225.506654 113.654731 
L 225.54662 113.319062 
L 226.079631 113.319062 
L 226.160308 112.815559 
L 226.595594 112.815559 
L 226.639594 112.312055 
L 227.027187 112.312055 
L 227.114625 111.808552 
L 227.494899 111.808552 
L 227.558534 111.137214 
L 228.475997 111.137214 
L 228.569013 110.801545 
L 229.405066 110.801545 
L 229.515849 110.130207 
L 229.573683 110.130207 
L 229.619287 109.626703 
L 230.013674 109.626703 
L 230.013674 109.458869 
L 230.54782 109.458869 
L 230.54782 109.291034 
L 230.711599 109.291034 
L 230.770917 108.955366 
L 231.114913 108.955366 
L 231.190852 108.619697 
L 231.425977 108.619697 
L 231.515819 108.116193 
L 231.921994 108.116193 
L 231.999473 107.780524 
L 232.068402 107.780524 
L 232.179219 107.109186 
L 232.689042 107.109186 
L 232.689042 106.941352 
L 232.832446 106.941352 
L 232.832446 106.605683 
L 233.103774 106.605683 
L 233.166006 106.270014 
L 233.244062 106.270014 
L 233.244062 106.102179 
L 233.425488 106.102179 
L 233.425488 105.934345 
L 233.593255 105.934345 
L 233.593255 105.76651 
L 234.042809 105.76651 
L 234.042809 105.598676 
L 234.275392 105.598676 
L 234.289506 105.095172 
L 234.429037 105.095172 
L 234.429037 104.927338 
L 234.739247 104.927338 
L 234.739247 104.759503 
L 235.360041 104.759503 
L 235.360041 104.591669 
L 235.634968 104.591669 
L 235.634968 104.423834 
L 235.776492 104.423834 
L 235.822308 104.088166 
L 236.294637 104.088166 
L 236.391622 103.248993 
L 236.519234 103.248993 
L 236.519234 102.913324 
L 236.786998 102.913324 
L 236.786998 102.74549 
L 237.261446 102.74549 
L 237.334037 102.074152 
L 238.216645 102.074152 
L 238.216645 101.906317 
L 238.479029 101.906317 
L 238.547496 101.234979 
L 238.986962 101.234979 
L 238.986962 100.89931 
L 239.111123 100.89931 
L 239.111123 100.563641 
L 239.416793 100.563641 
L 239.525899 100.060138 
L 239.714051 100.060138 
L 239.714051 99.724469 
L 240.105529 99.724469 
L 240.105529 99.3888 
L 240.229786 99.3888 
L 240.229786 99.053131 
L 240.886952 99.053131 
L 240.886952 98.717462 
L 241.092632 98.717462 
L 241.092632 98.549628 
L 241.697574 98.549628 
L 241.697574 98.213959 
L 242.120675 98.213959 
L 242.136522 97.710455 
L 242.28879 97.710455 
L 242.28879 97.542621 
L 242.589006 97.542621 
L 242.589006 97.374786 
L 242.823187 97.374786 
L 242.823187 97.206952 
L 243.282008 97.206952 
L 243.286219 96.871283 
L 243.611207 96.871283 
L 243.611207 96.703448 
L 243.897153 96.703448 
L 243.897153 96.535614 
L 244.039912 96.535614 
L 244.039912 96.367779 
L 244.599754 96.367779 
L 244.599754 96.199945 
L 244.781927 96.199945 
L 244.781927 95.864276 
L 245.011182 95.864276 
L 245.011182 95.696441 
L 245.276764 95.696441 
L 245.276764 95.528607 
L 246.034382 95.528607 
L 246.088604 95.025103 
L 246.20629 95.025103 
L 246.20629 94.689434 
L 246.412887 94.689434 
L 246.510566 94.185931 
L 246.571052 94.185931 
L 246.571052 94.018097 
L 246.93101 94.018097 
L 246.93101 93.850262 
L 247.508886 93.850262 
L 247.508886 93.682428 
L 247.931377 93.682428 
L 247.931377 93.346759 
L 248.342111 93.346759 
L 248.342111 93.01109 
L 248.695293 93.01109 
L 248.695293 92.675421 
L 248.952061 92.675421 
L 248.952061 92.339752 
L 249.48982 92.339752 
L 249.568849 91.668414 
L 250.030974 91.668414 
L 250.070539 91.16491 
L 250.452164 91.16491 
L 250.452164 90.829241 
L 250.629482 90.829241 
L 250.629482 90.493572 
L 250.790587 90.493572 
L 250.793195 89.990069 
L 251.230568 89.990069 
L 251.313622 89.486566 
L 251.743947 89.486566 
L 251.743947 89.150897 
L 252.549441 89.150897 
L 252.549441 88.815228 
L 252.754597 88.815228 
L 252.754597 88.479559 
L 252.968965 88.479559 
L 252.968965 88.14389 
L 253.087268 88.14389 
L 253.087268 87.808221 
L 253.283436 87.808221 
L 253.369485 87.136883 
L 253.433623 87.136883 
L 253.533085 86.465545 
L 254.319413 86.465545 
L 254.319413 86.29771 
L 255.105665 86.29771 
L 255.105665 85.962041 
L 255.344011 85.962041 
L 255.344011 85.626372 
L 255.480704 85.626372 
L 255.480704 85.458538 
L 255.839606 85.458538 
L 255.839606 85.290703 
L 256.068066 85.290703 
L 256.068066 84.955034 
L 256.20744 84.955034 
L 256.20744 84.619366 
L 256.433919 84.619366 
L 256.433919 84.283697 
L 256.949336 84.283697 
L 257.037651 83.948028 
L 257.06679 83.948028 
L 257.171752 83.108855 
L 257.205476 83.108855 
L 257.271203 82.773186 
L 257.906172 82.773186 
L 257.906172 82.605352 
L 258.371223 82.605352 
L 258.371223 82.437517 
L 258.519829 82.437517 
L 258.519829 82.101848 
L 259.356079 82.101848 
L 259.356079 81.766179 
L 259.677026 81.766179 
L 259.677026 81.43051 
L 260.267384 81.43051 
L 260.323253 80.927007 
L 260.390313 80.927007 
L 260.390313 80.759172 
L 260.716171 80.759172 
L 260.716171 80.423503 
L 261.088983 80.423503 
L 261.143095 79.92 
L 261.488184 79.92 
L 261.488184 79.584331 
L 261.729729 79.584331 
L 261.729729 79.248662 
L 262.029665 79.248662 
L 262.029665 78.912993 
L 262.252702 78.912993 
L 262.252702 78.745159 
L 262.933976 78.745159 
L 262.933976 78.40949 
L 263.258074 78.40949 
L 263.311551 77.738152 
L 263.371894 77.738152 
L 263.41683 77.402483 
L 263.785584 77.402483 
L 263.785584 77.234648 
L 264.294994 77.234648 
L 264.294994 77.066814 
L 264.675265 77.066814 
L 264.675265 76.898979 
L 265.11085 76.898979 
L 265.112272 76.395476 
L 265.552849 76.395476 
L 265.65018 75.891972 
L 266.542175 75.891972 
L 266.546597 75.388469 
L 266.862351 75.388469 
L 266.862351 75.220634 
L 267.025279 75.220634 
L 267.069154 74.717131 
L 267.324501 74.717131 
L 267.324501 74.549297 
L 267.873917 74.549297 
L 267.873917 74.381462 
L 268.215215 74.381462 
L 268.301444 73.877959 
L 268.588192 73.877959 
L 268.680628 73.54229 
L 268.815518 73.54229 
L 268.815518 73.374455 
L 269.325333 73.374455 
L 269.381567 72.870952 
L 271.208406 72.870952 
L 271.208406 72.703117 
L 271.497865 72.703117 
L 271.497865 72.535283 
L 271.73745 72.535283 
L 271.73745 72.367448 
L 271.866426 72.367448 
L 271.872664 72.031779 
L 271.986636 72.031779 
L 272.065299 71.69611 
L 273.015563 71.69611 
L 273.015563 71.528276 
L 273.41023 71.528276 
L 273.41023 71.360441 
L 274.060456 71.360441 
L 274.148892 71.024772 
L 360.8064 71.024772 
L 360.8064 71.024772 
" style="fill: none; stroke: #ff00ff; stroke-width: 1.5; stroke-linecap: square"/>
   </g>
   <g id="line2d_41">
    <defs>
     <path id="m5720c9aeac" d="M 0 8.485281 
L 5.091169 0 
L 0 -8.485281 
L -5.091169 0 
z
" style="stroke: #ff00ff; stroke-width: 1.5; stroke-linejoin: miter"/>
    </defs>
    <g>
     <use xlink:href="#m5720c9aeac" x="94.205591" y="271.586979" style="fill-opacity: 0; stroke: #ff00ff; stroke-width: 1.5; stroke-linejoin: miter"/>
     <use xlink:href="#m5720c9aeac" x="149.069161" y="221.0688" style="fill-opacity: 0; stroke: #ff00ff; stroke-width: 1.5; stroke-linejoin: miter"/>
     <use xlink:href="#m5720c9aeac" x="215.536212" y="121.878621" style="fill-opacity: 0; stroke: #ff00ff; stroke-width: 1.5; stroke-linejoin: miter"/>
     <use xlink:href="#m5720c9aeac" x="274.148892" y="71.192607" style="fill-opacity: 0; stroke: #ff00ff; stroke-width: 1.5; stroke-linejoin: miter"/>
     <use xlink:href="#m5720c9aeac" x="274.148892" y="71.024772" style="fill-opacity: 0; stroke: #ff00ff; stroke-width: 1.5; stroke-linejoin: miter"/>
     <use xlink:href="#m5720c9aeac" x="360.8064" y="71.024772" style="fill-opacity: 0; stroke: #ff00ff; stroke-width: 1.5; stroke-linejoin: miter"/>
    </g>
   </g>
   <g id="line2d_42">
    <path style="fill: none; stroke: #ff00ff; stroke-width: 1.5; stroke-linecap: square"/>
    <g/>
   </g>
   <g id="line2d_43">
    <path d="M 274.176063 71.024772 
" clip-path="url(#p44a7cf7e5c)" style="fill: none; stroke: #ff00ff; stroke-width: 1.5; stroke-linecap: square"/>
    <defs>
     <path id="m0697540b16" d="M -12 12 
L 12 -12 
M -12 -12 
L 12 12 
" style="stroke: #ff00ff"/>
    </defs>
    <g clip-path="url(#p44a7cf7e5c)">
     <use xlink:href="#m0697540b16" x="274.176063" y="71.024772" style="fill: #ff00ff; stroke: #ff00ff"/>
    </g>
   </g>
   <g id="line2d_44">
    <defs>
     <path id="m9a06290384" d="M 0 1.5 
C 0.397805 1.5 0.77937 1.341951 1.06066 1.06066 
C 1.341951 0.77937 1.5 0.397805 1.5 0 
C 1.5 -0.397805 1.341951 -0.77937 1.06066 -1.06066 
C 0.77937 -1.341951 0.397805 -1.5 0 -1.5 
C -0.397805 -1.5 -0.77937 -1.341951 -1.06066 -1.06066 
C -1.341951 -0.77937 -1.5 -0.397805 -1.5 0 
C -1.5 0.397805 -1.341951 0.77937 -1.06066 1.06066 
C -0.77937 1.341951 -0.397805 1.5 0 1.5 
z
" style="stroke: #6495ed"/>
    </defs>
    <g>
     <use xlink:href="#m9a06290384" x="113.954374" y="229.460524" style="fill: #6495ed; stroke: #6495ed"/>
     <use xlink:href="#m9a06290384" x="113.954374" y="229.460524" style="fill: #6495ed; stroke: #6495ed"/>
    </g>
   </g>
   <g id="line2d_45">
    <path d="M 36.933397 298.944 
L 36.933397 295.755145 
L 49.972572 295.755145 
L 49.972572 291.894952 
L 57.6 291.894952 
L 57.6 290.048772 
L 63.011746 290.048772 
L 63.011746 287.866924 
L 67.209423 287.866924 
L 67.209423 286.188579 
L 70.639174 286.188579 
L 70.639174 285.517241 
L 73.538988 285.517241 
L 73.538988 283.503228 
L 76.050921 283.503228 
L 76.050921 281.992717 
L 78.266603 281.992717 
L 78.266603 281.153545 
L 80.248597 281.153545 
L 80.248597 278.971697 
L 82.04153 278.971697 
L 82.04153 277.293352 
L 83.678349 277.293352 
L 83.678349 276.957683 
L 86.578163 276.957683 
L 86.578163 275.447172 
L 87.876026 275.447172 
L 87.876026 274.775834 
L 89.090095 274.775834 
L 89.090095 273.09749 
L 90.230539 273.09749 
L 90.230539 271.419145 
L 91.305777 271.419145 
L 91.305777 270.747807 
L 92.322865 270.747807 
L 92.322865 270.579972 
L 94.205591 270.579972 
L 94.205591 269.908634 
L 95.080704 269.908634 
L 95.080704 267.894621 
L 95.916911 267.894621 
L 95.916911 267.726786 
L 96.717523 267.726786 
L 96.717523 267.223283 
L 97.485448 267.223283 
L 97.485448 266.887614 
L 98.223251 266.887614 
L 98.223251 265.880607 
L 98.933205 265.880607 
L 98.933205 265.544938 
L 99.617337 265.544938 
L 99.617337 265.209269 
L 100.277459 265.209269 
L 100.277459 264.202262 
L 100.9152 264.202262 
L 100.9152 263.698759 
L 102.708132 263.698759 
L 102.708132 261.51691 
L 103.269713 261.51691 
L 103.269713 257.992386 
L 103.815014 257.992386 
L 103.815014 255.1392 
L 104.344952 255.1392 
L 104.344952 253.293021 
L 104.860369 253.293021 
L 104.860369 251.78251 
L 105.36204 251.78251 
L 105.36204 248.425821 
L 105.850679 248.425821 
L 105.850679 246.411807 
L 106.326946 246.411807 
L 106.326946 244.901297 
L 106.791453 244.901297 
L 106.791453 243.558621 
L 107.244765 243.558621 
L 107.244765 242.215945 
L 107.68741 242.215945 
L 107.68741 241.376772 
L 108.119879 241.376772 
L 108.119879 240.5376 
L 108.542628 240.5376 
L 108.542628 238.355752 
L 108.956085 238.355752 
L 108.956085 237.684414 
L 109.360651 237.684414 
L 109.360651 237.18091 
L 109.756698 237.18091 
L 109.756698 236.677407 
L 110.144579 236.677407 
L 110.144579 236.173903 
L 110.524623 236.173903 
L 110.524623 234.663393 
L 110.897141 234.663393 
L 110.897141 234.15989 
L 111.262425 234.15989 
L 111.262425 233.320717 
L 111.620752 233.320717 
L 111.620752 233.152883 
L 111.97238 233.152883 
L 111.97238 232.985048 
L 112.317555 232.985048 
L 112.317555 232.145876 
L 113.316634 232.145876 
L 113.316634 230.467531 
L 113.638206 230.467531 
L 113.638206 230.131862 
L 113.954374 230.131862 
L 113.954374 229.460524 
L 360.8064 229.460524 
" style="fill: none; stroke: #6495ed; stroke-width: 1.5; stroke-linecap: square"/>
   </g>
   <g id="line2d_46">
    <defs>
     <path id="mb9ce2b1ad6" d="M -0 6 
L 6 -6 
L -6 -6 
z
" style="stroke: #6495ed; stroke-width: 1.5; stroke-linejoin: miter"/>
    </defs>
    <g>
     <use xlink:href="#mb9ce2b1ad6" x="111.620752" y="233.152883" style="fill-opacity: 0; stroke: #6495ed; stroke-width: 1.5; stroke-linejoin: miter"/>
     <use xlink:href="#mb9ce2b1ad6" x="113.954374" y="230.131862" style="fill-opacity: 0; stroke: #6495ed; stroke-width: 1.5; stroke-linejoin: miter"/>
     <use xlink:href="#mb9ce2b1ad6" x="113.954374" y="229.460524" style="fill-opacity: 0; stroke: #6495ed; stroke-width: 1.5; stroke-linejoin: miter"/>
     <use xlink:href="#mb9ce2b1ad6" x="113.954374" y="229.460524" style="fill-opacity: 0; stroke: #6495ed; stroke-width: 1.5; stroke-linejoin: miter"/>
     <use xlink:href="#mb9ce2b1ad6" x="113.954374" y="229.460524" style="fill-opacity: 0; stroke: #6495ed; stroke-width: 1.5; stroke-linejoin: miter"/>
     <use xlink:href="#mb9ce2b1ad6" x="360.8064" y="229.460524" style="fill-opacity: 0; stroke: #6495ed; stroke-width: 1.5; stroke-linejoin: miter"/>
    </g>
   </g>
   <g id="line2d_47">
    <path style="fill: none; stroke: #6495ed; stroke-width: 1.5; stroke-linecap: square"/>
    <g/>
   </g>
   <g id="line2d_48">
    <path d="M 113.954374 229.460524 
" clip-path="url(#p44a7cf7e5c)" style="fill: none; stroke: #6495ed; stroke-width: 1.5; stroke-linecap: square"/>
    <defs>
     <path id="mb897ec2ce2" d="M -12 12 
L 12 -12 
M -12 -12 
L 12 12 
" style="stroke: #6495ed"/>
    </defs>
    <g clip-path="url(#p44a7cf7e5c)">
     <use xlink:href="#mb897ec2ce2" x="113.954374" y="229.460524" style="fill: #6495ed; stroke: #6495ed"/>
    </g>
   </g>
   <g id="line2d_49">
    <path d="M 360.8064 273.768828 
L 380.514816 293.10336 
" style="fill: none; stroke: #000080; stroke-width: 1.5; stroke-linecap: square"/>
    <g>
     <use xlink:href="#mdd0c5846ad" x="360.8064" y="273.768828" style="fill-opacity: 0; stroke: #000080; stroke-width: 1.5"/>
     <use xlink:href="#mdd0c5846ad" x="380.514816" y="293.10336" style="fill-opacity: 0; stroke: #000080; stroke-width: 1.5"/>
    </g>
   </g>
   <g id="line2d_50">
    <path d="M 360.8064 229.460524 
L 380.514816 199.65312 
" style="fill: none; stroke: #6495ed; stroke-width: 1.5; stroke-linecap: square"/>
    <g>
     <use xlink:href="#mb9ce2b1ad6" x="360.8064" y="229.460524" style="fill-opacity: 0; stroke: #6495ed; stroke-width: 1.5; stroke-linejoin: miter"/>
     <use xlink:href="#mb9ce2b1ad6" x="380.514816" y="199.65312" style="fill-opacity: 0; stroke: #6495ed; stroke-width: 1.5; stroke-linejoin: miter"/>
    </g>
   </g>
   <g id="line2d_51">
    <path d="M 360.8064 71.024772 
L 380.514816 106.20288 
" style="fill: none; stroke: #ff00ff; stroke-width: 1.5; stroke-linecap: square"/>
    <g>
     <use xlink:href="#m5720c9aeac" x="360.8064" y="71.024772" style="fill-opacity: 0; stroke: #ff00ff; stroke-width: 1.5; stroke-linejoin: miter"/>
     <use xlink:href="#m5720c9aeac" x="380.514816" y="106.20288" style="fill-opacity: 0; stroke: #ff00ff; stroke-width: 1.5; stroke-linejoin: miter"/>
    </g>
   </g>
   <g id="line2d_52">
    <path d="M 360.8064 298.944 
L 360.8064 6.912 
" style="fill: none; stroke: #000000; stroke-width: 1.5; stroke-linecap: square"/>
   </g>
   <g id="patch_3">
    <path d="M 57.6 298.944 
L 360.8064 298.944 
" style="fill: none; stroke: #000000; stroke-width: 0.8; stroke-linejoin: miter; stroke-linecap: square"/>
   </g>
   <g id="patch_4">
    <path d="M 57.6 6.912 
L 360.8064 6.912 
" style="fill: none; stroke: #000000; stroke-width: 0.8; stroke-linejoin: miter; stroke-linecap: square"/>
   </g>
   <g id="text_13">
    <!-- cma -->
    <g transform="translate(386.578944 296.966485)scale(0.14 -0.14)">
     <use xlink:href="#DejaVuSans-63"/>
     <use xlink:href="#DejaVuSans-6d" x="54.980469"/>
     <use xlink:href="#DejaVuSans-61" x="152.392578"/>
    </g>
   </g>
   <g id="text_14">
    <!-- parEgo -->
    <g transform="translate(386.578944 203.516245)scale(0.14 -0.14)">
     <defs>
      <path id="DejaVuSans-45" d="M 628 4666 
L 3578 4666 
L 3578 4134 
L 1259 4134 
L 1259 2753 
L 3481 2753 
L 3481 2222 
L 1259 2222 
L 1259 531 
L 3634 531 
L 3634 0 
L 628 0 
L 628 4666 
z
" transform="scale(0.015625)"/>
     </defs>
     <use xlink:href="#DejaVuSans-70"/>
     <use xlink:href="#DejaVuSans-61" x="63.476562"/>
     <use xlink:href="#DejaVuSans-72" x="124.755859"/>
     <use xlink:href="#DejaVuSans-45" x="165.869141"/>
     <use xlink:href="#DejaVuSans-67" x="229.052734"/>
     <use xlink:href="#DejaVuSans-6f" x="292.529297"/>
    </g>
   </g>
   <g id="text_15">
    <!-- external- -->
    <g transform="translate(386.578944 110.066005)scale(0.14 -0.14)">
     <defs>
      <path id="DejaVuSans-78" d="M 3513 3500 
L 2247 1797 
L 3578 0 
L 2900 0 
L 1881 1375 
L 863 0 
L 184 0 
L 1544 1831 
L 300 3500 
L 978 3500 
L 1906 2253 
L 2834 3500 
L 3513 3500 
z
" transform="scale(0.015625)"/>
     </defs>
     <use xlink:href="#DejaVuSans-65"/>
     <use xlink:href="#DejaVuSans-78" x="59.773438"/>
     <use xlink:href="#DejaVuSans-74" x="118.953125"/>
     <use xlink:href="#DejaVuSans-65" x="158.162109"/>
     <use xlink:href="#DejaVuSans-72" x="219.685547"/>
     <use xlink:href="#DejaVuSans-6e" x="259.048828"/>
     <use xlink:href="#DejaVuSans-61" x="322.427734"/>
     <use xlink:href="#DejaVuSans-6c" x="383.707031"/>
     <use xlink:href="#DejaVuSans-2d" x="411.490234"/>
    </g>
   </g>
   <g id="text_16">
    <!-- best 2016 -->
    <g transform="translate(386.578944 16.615765)scale(0.14 -0.14)">
     <defs>
      <path id="DejaVuSans-62" d="M 3116 1747 
Q 3116 2381 2855 2742 
Q 2594 3103 2138 3103 
Q 1681 3103 1420 2742 
Q 1159 2381 1159 1747 
Q 1159 1113 1420 752 
Q 1681 391 2138 391 
Q 2594 391 2855 752 
Q 3116 1113 3116 1747 
z
M 1159 2969 
Q 1341 3281 1617 3432 
Q 1894 3584 2278 3584 
Q 2916 3584 3314 3078 
Q 3713 2572 3713 1747 
Q 3713 922 3314 415 
Q 2916 -91 2278 -91 
Q 1894 -91 1617 61 
Q 1341 213 1159 525 
L 1159 0 
L 581 0 
L 581 4863 
L 1159 4863 
L 1159 2969 
z
" transform="scale(0.015625)"/>
     </defs>
     <use xlink:href="#DejaVuSans-62"/>
     <use xlink:href="#DejaVuSans-65" x="63.476562"/>
     <use xlink:href="#DejaVuSans-73" x="125"/>
     <use xlink:href="#DejaVuSans-74" x="177.099609"/>
     <use xlink:href="#DejaVuSans-20" x="216.308594"/>
     <use xlink:href="#DejaVuSans-32" x="248.095703"/>
     <use xlink:href="#DejaVuSans-30" x="311.71875"/>
     <use xlink:href="#DejaVuSans-31" x="375.341797"/>
     <use xlink:href="#DejaVuSans-36" x="438.964844"/>
    </g>
   </g>
   <g id="text_17">
    <!-- bbob-biobj f1, f2, f11, 3-D -->
    <g transform="translate(60.632064 17.582726)scale(0.102 -0.102)">
     <defs>
      <path id="DejaVuSans-6a" d="M 603 3500 
L 1178 3500 
L 1178 -63 
Q 1178 -731 923 -1031 
Q 669 -1331 103 -1331 
L -116 -1331 
L -116 -844 
L 38 -844 
Q 366 -844 484 -692 
Q 603 -541 603 -63 
L 603 3500 
z
M 603 4863 
L 1178 4863 
L 1178 4134 
L 603 4134 
L 603 4863 
z
" transform="scale(0.015625)"/>
      <path id="DejaVuSans-33" d="M 2597 2516 
Q 3050 2419 3304 2112 
Q 3559 1806 3559 1356 
Q 3559 666 3084 287 
Q 2609 -91 1734 -91 
Q 1441 -91 1130 -33 
Q 819 25 488 141 
L 488 750 
Q 750 597 1062 519 
Q 1375 441 1716 441 
Q 2309 441 2620 675 
Q 2931 909 2931 1356 
Q 2931 1769 2642 2001 
Q 2353 2234 1838 2234 
L 1294 2234 
L 1294 2753 
L 1863 2753 
Q 2328 2753 2575 2939 
Q 2822 3125 2822 3475 
Q 2822 3834 2567 4026 
Q 2313 4219 1838 4219 
Q 1578 4219 1281 4162 
Q 984 4106 628 3988 
L 628 4550 
Q 988 4650 1302 4700 
Q 1616 4750 1894 4750 
Q 2613 4750 3031 4423 
Q 3450 4097 3450 3541 
Q 3450 3153 3228 2886 
Q 3006 2619 2597 2516 
z
" transform="scale(0.015625)"/>
      <path id="DejaVuSans-44" d="M 1259 4147 
L 1259 519 
L 2022 519 
Q 2988 519 3436 956 
Q 3884 1394 3884 2338 
Q 3884 3275 3436 3711 
Q 2988 4147 2022 4147 
L 1259 4147 
z
M 628 4666 
L 1925 4666 
Q 3281 4666 3915 4102 
Q 4550 3538 4550 2338 
Q 4550 1131 3912 565 
Q 3275 0 1925 0 
L 628 0 
L 628 4666 
z
" transform="scale(0.015625)"/>
     </defs>
     <use xlink:href="#DejaVuSans-62"/>
     <use xlink:href="#DejaVuSans-62" x="63.476562"/>
     <use xlink:href="#DejaVuSans-6f" x="126.953125"/>
     <use xlink:href="#DejaVuSans-62" x="188.134766"/>
     <use xlink:href="#DejaVuSans-2d" x="251.611328"/>
     <use xlink:href="#DejaVuSans-62" x="287.695312"/>
     <use xlink:href="#DejaVuSans-69" x="351.171875"/>
     <use xlink:href="#DejaVuSans-6f" x="378.955078"/>
     <use xlink:href="#DejaVuSans-62" x="440.136719"/>
     <use xlink:href="#DejaVuSans-6a" x="503.613281"/>
     <use xlink:href="#DejaVuSans-20" x="531.396484"/>
     <use xlink:href="#DejaVuSans-66" x="563.183594"/>
     <use xlink:href="#DejaVuSans-31" x="598.388672"/>
     <use xlink:href="#DejaVuSans-2c" x="662.011719"/>
     <use xlink:href="#DejaVuSans-20" x="693.798828"/>
     <use xlink:href="#DejaVuSans-66" x="725.585938"/>
     <use xlink:href="#DejaVuSans-32" x="760.791016"/>
     <use xlink:href="#DejaVuSans-2c" x="824.414062"/>
     <use xlink:href="#DejaVuSans-20" x="856.201172"/>
     <use xlink:href="#DejaVuSans-66" x="887.988281"/>
     <use xlink:href="#DejaVuSans-31" x="923.193359"/>
     <use xlink:href="#DejaVuSans-31" x="986.816406"/>
     <use xlink:href="#DejaVuSans-2c" x="1050.439453"/>
     <use xlink:href="#DejaVuSans-20" x="1082.226562"/>
     <use xlink:href="#DejaVuSans-33" x="1114.013672"/>
     <use xlink:href="#DejaVuSans-2d" x="1177.636719"/>
     <use xlink:href="#DejaVuSans-44" x="1213.720703"/>
    </g>
    <!-- 58 targets: 1..-1.0e-4 -->
    <g transform="translate(60.632064 29.004495)scale(0.102 -0.102)">
     <defs>
      <path id="DejaVuSans-35" d="M 691 4666 
L 3169 4666 
L 3169 4134 
L 1269 4134 
L 1269 2991 
Q 1406 3038 1543 3061 
Q 1681 3084 1819 3084 
Q 2600 3084 3056 2656 
Q 3513 2228 3513 1497 
Q 3513 744 3044 326 
Q 2575 -91 1722 -91 
Q 1428 -91 1123 -41 
Q 819 9 494 109 
L 494 744 
Q 775 591 1075 516 
Q 1375 441 1709 441 
Q 2250 441 2565 725 
Q 2881 1009 2881 1497 
Q 2881 1984 2565 2268 
Q 2250 2553 1709 2553 
Q 1456 2553 1204 2497 
Q 953 2441 691 2322 
L 691 4666 
z
" transform="scale(0.015625)"/>
      <path id="DejaVuSans-3a" d="M 750 794 
L 1409 794 
L 1409 0 
L 750 0 
L 750 794 
z
M 750 3309 
L 1409 3309 
L 1409 2516 
L 750 2516 
L 750 3309 
z
" transform="scale(0.015625)"/>
     </defs>
     <use xlink:href="#DejaVuSans-35"/>
     <use xlink:href="#DejaVuSans-38" x="63.623047"/>
     <use xlink:href="#DejaVuSans-20" x="127.246094"/>
     <use xlink:href="#DejaVuSans-74" x="159.033203"/>
     <use xlink:href="#DejaVuSans-61" x="198.242188"/>
     <use xlink:href="#DejaVuSans-72" x="259.521484"/>
     <use xlink:href="#DejaVuSans-67" x="298.884766"/>
     <use xlink:href="#DejaVuSans-65" x="362.361328"/>
     <use xlink:href="#DejaVuSans-74" x="423.884766"/>
     <use xlink:href="#DejaVuSans-73" x="463.09375"/>
     <use xlink:href="#DejaVuSans-3a" x="515.193359"/>
     <use xlink:href="#DejaVuSans-20" x="548.884766"/>
     <use xlink:href="#DejaVuSans-31" x="580.671875"/>
     <use xlink:href="#DejaVuSans-2e" x="644.294922"/>
     <use xlink:href="#DejaVuSans-2e" x="676.082031"/>
     <use xlink:href="#DejaVuSans-2d" x="707.869141"/>
     <use xlink:href="#DejaVuSans-31" x="743.953125"/>
     <use xlink:href="#DejaVuSans-2e" x="807.576172"/>
     <use xlink:href="#DejaVuSans-30" x="839.363281"/>
     <use xlink:href="#DejaVuSans-65" x="902.986328"/>
     <use xlink:href="#DejaVuSans-2d" x="964.509766"/>
     <use xlink:href="#DejaVuSans-34" x="1000.59375"/>
    </g>
    <!-- 10 instances -->
    <g transform="translate(60.632064 40.426264)scale(0.102 -0.102)">
     <use xlink:href="#DejaVuSans-31"/>
     <use xlink:href="#DejaVuSans-30" x="63.623047"/>
     <use xlink:href="#DejaVuSans-20" x="127.246094"/>
     <use xlink:href="#DejaVuSans-69" x="159.033203"/>
     <use xlink:href="#DejaVuSans-6e" x="186.816406"/>
     <use xlink:href="#DejaVuSans-73" x="250.195312"/>
     <use xlink:href="#DejaVuSans-74" x="302.294922"/>
     <use xlink:href="#DejaVuSans-61" x="341.503906"/>
     <use xlink:href="#DejaVuSans-6e" x="402.783203"/>
     <use xlink:href="#DejaVuSans-63" x="466.162109"/>
     <use xlink:href="#DejaVuSans-65" x="521.142578"/>
     <use xlink:href="#DejaVuSans-73" x="582.666016"/>
    </g>
   </g>
   <g id="text_18">
    <!-- v2.6, hv-hash=ff0e71e8cd978373 -->
    <g style="fill: #808080" transform="translate(123.707887 293.943992)scale(0.1 -0.1)">
     <defs>
      <path id="DejaVuSans-68" d="M 3513 2113 
L 3513 0 
L 2938 0 
L 2938 2094 
Q 2938 2591 2744 2837 
Q 2550 3084 2163 3084 
Q 1697 3084 1428 2787 
Q 1159 2491 1159 1978 
L 1159 0 
L 581 0 
L 581 4863 
L 1159 4863 
L 1159 2956 
Q 1366 3272 1645 3428 
Q 1925 3584 2291 3584 
Q 2894 3584 3203 3211 
Q 3513 2838 3513 2113 
z
" transform="scale(0.015625)"/>
      <path id="DejaVuSans-3d" d="M 678 2906 
L 4684 2906 
L 4684 2381 
L 678 2381 
L 678 2906 
z
M 678 1631 
L 4684 1631 
L 4684 1100 
L 678 1100 
L 678 1631 
z
" transform="scale(0.015625)"/>
      <path id="DejaVuSans-37" d="M 525 4666 
L 3525 4666 
L 3525 4397 
L 1831 0 
L 1172 0 
L 2766 4134 
L 525 4134 
L 525 4666 
z
" transform="scale(0.015625)"/>
      <path id="DejaVuSans-39" d="M 703 97 
L 703 672 
Q 941 559 1184 500 
Q 1428 441 1663 441 
Q 2288 441 2617 861 
Q 2947 1281 2994 2138 
Q 2813 1869 2534 1725 
Q 2256 1581 1919 1581 
Q 1219 1581 811 2004 
Q 403 2428 403 3163 
Q 403 3881 828 4315 
Q 1253 4750 1959 4750 
Q 2769 4750 3195 4129 
Q 3622 3509 3622 2328 
Q 3622 1225 3098 567 
Q 2575 -91 1691 -91 
Q 1453 -91 1209 -44 
Q 966 3 703 97 
z
M 1959 2075 
Q 2384 2075 2632 2365 
Q 2881 2656 2881 3163 
Q 2881 3666 2632 3958 
Q 2384 4250 1959 4250 
Q 1534 4250 1286 3958 
Q 1038 3666 1038 3163 
Q 1038 2656 1286 2365 
Q 1534 2075 1959 2075 
z
" transform="scale(0.015625)"/>
     </defs>
     <use xlink:href="#DejaVuSans-76"/>
     <use xlink:href="#DejaVuSans-32" x="59.179688"/>
     <use xlink:href="#DejaVuSans-2e" x="122.802734"/>
     <use xlink:href="#DejaVuSans-36" x="154.589844"/>
     <use xlink:href="#DejaVuSans-2c" x="218.212891"/>
     <use xlink:href="#DejaVuSans-20" x="250"/>
     <use xlink:href="#DejaVuSans-68" x="281.787109"/>
     <use xlink:href="#DejaVuSans-76" x="345.166016"/>
     <use xlink:href="#DejaVuSans-2d" x="401.720703"/>
     <use xlink:href="#DejaVuSans-68" x="437.804688"/>
     <use xlink:href="#DejaVuSans-61" x="501.183594"/>
     <use xlink:href="#DejaVuSans-73" x="562.462891"/>
     <use xlink:href="#DejaVuSans-68" x="614.5625"/>
     <use xlink:href="#DejaVuSans-3d" x="677.941406"/>
     <use xlink:href="#DejaVuSans-66" x="761.730469"/>
     <use xlink:href="#DejaVuSans-66" x="796.935547"/>
     <use xlink:href="#DejaVuSans-30" x="832.140625"/>
     <use xlink:href="#DejaVuSans-65" x="895.763672"/>
     <use xlink:href="#DejaVuSans-37" x="957.287109"/>
     <use xlink:href="#DejaVuSans-31" x="1020.910156"/>
     <use xlink:href="#DejaVuSans-65" x="1084.533203"/>
     <use xlink:href="#DejaVuSans-38" x="1146.056641"/>
     <use xlink:href="#DejaVuSans-63" x="1209.679688"/>
     <use xlink:href="#DejaVuSans-64" x="1264.660156"/>
     <use xlink:href="#DejaVuSans-39" x="1328.136719"/>
     <use xlink:href="#DejaVuSans-37" x="1391.759766"/>
     <use xlink:href="#DejaVuSans-38" x="1455.382812"/>
     <use xlink:href="#DejaVuSans-33" x="1519.005859"/>
     <use xlink:href="#DejaVuSans-37" x="1582.628906"/>
     <use xlink:href="#DejaVuSans-33" x="1646.251953"/>
    </g>
   </g>
  </g>
 </g>
 <defs>
  <clipPath id="p44a7cf7e5c">
   <rect x="57.6" y="6.912" width="303.2064" height="292.032"/>
  </clipPath>
 </defs>
</svg>
