<?xml version="1.0" encoding="utf-8" standalone="no"?>
<!DOCTYPE svg PUBLIC "-//W3C//DTD SVG 1.1//EN"
  "http://www.w3.org/Graphics/SVG/1.1/DTD/svg11.dtd">
<svg xmlns:xlink="http://www.w3.org/1999/xlink" width="460.8pt" height="345.6pt" viewBox="0 0 460.8 345.6" xmlns="http://www.w3.org/2000/svg" version="1.1">
 <metadata>
  <rdf:RDF xmlns:dc="http://purl.org/dc/elements/1.1/" xmlns:cc="http://creativecommons.org/ns#" xmlns:rdf="http://www.w3.org/1999/02/22-rdf-syntax-ns#">
   <cc:Work>
    <dc:type rdf:resource="http://purl.org/dc/dcmitype/StillImage"/>
    <dc:date>2022-06-19T21:03:09.848328</dc:date>
    <dc:format>image/svg+xml</dc:format>
    <dc:creator>
     <cc:Agent>
      <dc:title>Matplotlib v3.5.1, https://matplotlib.org/</dc:title>
     </cc:Agent>
    </dc:creator>
   </cc:Work>
  </rdf:RDF>
 </metadata>
 <defs>
  <style type="text/css">*{stroke-linejoin: round; stroke-linecap: butt}</style>
 </defs>
 <g id="figure_1">
  <g id="patch_1">
   <path d="M 0 345.6 
L 460.8 345.6 
L 460.8 0 
L 0 0 
z
" style="fill: #ffffff"/>
  </g>
  <g id="axes_1">
   <g id="patch_2">
    <path d="M 57.6 298.944 
L 360.8064 298.944 
L 360.8064 6.912 
L 57.6 6.912 
z
" style="fill: #ffffff"/>
   </g>
   <g id="line2d_1">
    <path d="M 14.2848 298.944 
L 14.2848 297.685241 
L 27.323974 297.685241 
L 27.323974 296.426483 
L 40.363149 296.426483 
L 40.363149 295.167724 
L 53.402323 295.167724 
L 53.402323 290.13269 
L 55.618005 290.13269 
L 55.618005 288.873931 
L 66.441498 288.873931 
L 66.441498 281.321379 
L 70.639174 281.321379 
L 70.639174 278.803862 
L 74.068926 278.803862 
L 74.068926 277.545103 
L 74.836851 277.545103 
L 74.836851 276.286345 
L 75.574654 276.286345 
L 75.574654 272.510069 
L 79.480672 272.510069 
L 79.480672 269.992552 
L 80.621116 269.992552 
L 80.621116 264.957517 
L 84.142855 264.957517 
L 84.142855 261.181241 
L 85.894031 261.181241 
L 85.894031 259.922483 
L 90.668036 259.922483 
L 90.668036 257.404966 
L 90.989609 257.404966 
L 90.989609 254.887448 
L 92.223596 254.887448 
L 92.223596 253.62869 
L 96.95121 253.62869 
L 96.95121 252.369931 
L 98.723018 252.369931 
L 98.723018 248.593655 
L 98.933205 248.593655 
L 98.933205 244.817379 
L 100.147275 244.817379 
L 100.147275 243.558621 
L 100.726138 243.558621 
L 100.726138 239.782345 
L 103.380045 239.782345 
L 103.380045 237.264828 
L 104.028784 237.264828 
L 104.028784 234.74731 
L 108.034177 234.74731 
L 108.034177 229.712276 
L 108.542628 229.712276 
L 108.542628 228.453517 
L 109.873904 228.453517 
L 109.873904 227.194759 
L 115.747307 227.194759 
L 115.747307 224.677241 
L 117.617813 224.677241 
L 117.617813 220.900966 
L 120.41783 220.900966 
L 120.41783 218.383448 
L 122.015696 218.383448 
L 122.015696 215.865931 
L 123.825333 215.865931 
L 123.825333 213.348414 
L 125.47606 213.348414 
L 125.47606 210.830897 
L 129.0834 210.830897 
L 129.0834 208.313379 
L 129.744974 208.313379 
L 129.744974 204.537103 
L 136.242113 204.537103 
L 136.242113 200.760828 
L 137.168148 200.760828 
L 137.195511 196.984552 
L 137.840541 196.984552 
L 137.840541 194.467034 
L 140.219905 194.467034 
L 140.219905 191.949517 
L 144.249202 191.949517 
L 144.249202 189.432 
L 144.473374 189.432 
L 144.473374 186.914483 
L 146.529503 186.914483 
L 146.529503 185.655724 
L 149.093387 185.655724 
L 149.093387 181.879448 
L 151.297768 181.879448 
L 151.297768 179.361931 
L 152.069827 179.361931 
L 152.069827 176.844414 
L 154.86483 176.844414 
L 154.86483 173.068138 
L 157.363398 173.068138 
L 157.363398 171.809379 
L 159.019705 171.809379 
L 159.019705 170.550621 
L 162.277267 170.550621 
L 162.277267 169.291862 
L 163.457521 169.291862 
L 163.457521 165.515586 
L 164.510559 165.515586 
L 164.510559 164.256828 
L 165.158538 164.256828 
L 165.158538 160.480552 
L 169.477031 160.480552 
L 169.477031 156.704276 
L 170.053063 156.704276 
L 170.053063 155.445517 
L 171.302556 155.445517 
L 171.302556 154.186759 
L 173.262233 154.186759 
L 173.262233 150.410483 
L 174.480071 150.410483 
L 174.480071 147.892966 
L 178.135771 147.892966 
L 178.135771 144.11669 
L 178.704102 144.11669 
L 178.704102 140.340414 
L 181.397255 140.340414 
L 181.397255 139.081655 
L 182.088652 139.081655 
L 182.088652 136.564138 
L 186.750221 136.564138 
L 186.750221 135.305379 
L 186.877347 135.305379 
L 186.877347 132.787862 
L 188.984646 132.787862 
L 188.984646 130.270345 
L 194.685181 130.270345 
L 194.741726 125.23531 
L 197.310514 125.23531 
L 197.310514 121.459034 
L 197.733338 121.459034 
L 197.733338 120.200276 
L 204.430795 120.200276 
L 204.430795 116.424 
L 206.131712 116.424 
L 206.131712 112.647724 
L 206.862537 112.647724 
L 206.862537 111.388966 
L 212.034953 111.388966 
L 212.034953 110.130207 
L 212.906414 110.130207 
L 212.906414 108.871448 
L 215.166396 108.871448 
L 215.166396 105.095172 
L 215.799456 105.095172 
L 215.799456 103.836414 
L 218.584734 103.836414 
L 218.584734 100.060138 
L 221.136591 100.060138 
L 221.136591 96.283862 
L 222.691875 96.283862 
L 222.691875 93.766345 
L 228.304527 93.766345 
L 228.41154 88.73131 
L 230.547438 88.73131 
L 230.547438 86.213793 
L 233.507924 86.213793 
L 233.507924 83.696276 
L 234.70268 83.696276 
L 234.70268 82.437517 
L 235.203592 82.437517 
L 235.203592 78.661241 
L 236.141681 78.661241 
L 236.141681 76.143724 
L 236.662623 76.143724 
L 236.662623 73.626207 
L 238.051536 73.626207 
L 238.051536 69.849931 
L 240.480867 69.849931 
L 240.480867 68.591172 
L 244.557567 68.591172 
L 244.557567 66.073655 
L 245.274607 66.073655 
L 245.274607 63.556138 
L 246.060982 63.556138 
L 246.060982 62.297379 
L 251.269492 62.297379 
L 251.269492 59.779862 
L 251.714894 59.779862 
L 251.714894 56.003586 
L 257.354084 56.003586 
L 257.354084 53.486069 
L 262.96212 53.486069 
L 262.96212 52.22731 
L 267.545207 52.22731 
L 267.545207 48.451034 
L 287.837111 48.451034 
L 287.837111 45.933517 
L 289.156906 45.933517 
L 289.156906 42.157241 
L 360.8064 42.157241 
L 360.8064 42.157241 
" style="fill: none; stroke: #f5deb3; stroke-width: 4; stroke-linecap: square"/>
   </g>
   <g id="line2d_2">
    <defs>
     <path id="m6fa6c49dc3" d="M 0 7.778175 
L 7.778175 0 
L 0 -7.778175 
L -7.778175 0 
z
" style="stroke: #f5deb3; stroke-width: 1.5; stroke-linejoin: miter"/>
    </defs>
    <g>
     <use xlink:href="#m6fa6c49dc3" x="66.441498" y="281.321379" style="fill: #f5deb3; stroke: #f5deb3; stroke-width: 1.5; stroke-linejoin: miter"/>
     <use xlink:href="#m6fa6c49dc3" x="140.219905" y="194.467034" style="fill: #f5deb3; stroke: #f5deb3; stroke-width: 1.5; stroke-linejoin: miter"/>
     <use xlink:href="#m6fa6c49dc3" x="197.733338" y="120.200276" style="fill: #f5deb3; stroke: #f5deb3; stroke-width: 1.5; stroke-linejoin: miter"/>
     <use xlink:href="#m6fa6c49dc3" x="257.354084" y="53.486069" style="fill: #f5deb3; stroke: #f5deb3; stroke-width: 1.5; stroke-linejoin: miter"/>
     <use xlink:href="#m6fa6c49dc3" x="289.156906" y="42.157241" style="fill: #f5deb3; stroke: #f5deb3; stroke-width: 1.5; stroke-linejoin: miter"/>
     <use xlink:href="#m6fa6c49dc3" x="360.8064" y="42.157241" style="fill: #f5deb3; stroke: #f5deb3; stroke-width: 1.5; stroke-linejoin: miter"/>
    </g>
   </g>
   <g id="line2d_3">
    <path style="fill: none; stroke: #f5deb3; stroke-width: 4; stroke-linecap: square"/>
    <g/>
   </g>
   <g id="line2d_4">
    <path d="M 360.8064 42.157241 
L 380.514816 12.75264 
" style="fill: none; stroke: #f5deb3; stroke-width: 4; stroke-linecap: square"/>
    <g>
     <use xlink:href="#m6fa6c49dc3" x="360.8064" y="42.157241" style="fill: #f5deb3; stroke: #f5deb3; stroke-width: 1.5; stroke-linejoin: miter"/>
     <use xlink:href="#m6fa6c49dc3" x="380.514816" y="12.75264" style="fill: #f5deb3; stroke: #f5deb3; stroke-width: 1.5; stroke-linejoin: miter"/>
    </g>
   </g>
   <g id="matplotlib.axis_1">
    <g id="xtick_1">
     <g id="line2d_5">
      <path d="M 57.6 298.944 
L 57.6 6.912 
" clip-path="url(#p8cde2e8ca4)" style="fill: none; stroke: #b0b0b0; stroke-width: 0.8; stroke-linecap: square"/>
     </g>
     <g id="line2d_6">
      <defs>
       <path id="m6f57a605d1" d="M 0 0 
L 0 3.5 
" style="stroke: #000000; stroke-width: 0.8"/>
      </defs>
      <g>
       <use xlink:href="#m6f57a605d1" x="57.6" y="298.944" style="stroke: #000000; stroke-width: 0.8"/>
      </g>
     </g>
     <g id="text_1">
      <!-- 0 -->
      <g transform="translate(52.191875 318.861344)scale(0.17 -0.17)">
       <defs>
        <path id="DejaVuSans-30" d="M 2034 4250 
Q 1547 4250 1301 3770 
Q 1056 3291 1056 2328 
Q 1056 1369 1301 889 
Q 1547 409 2034 409 
Q 2525 409 2770 889 
Q 3016 1369 3016 2328 
Q 3016 3291 2770 3770 
Q 2525 4250 2034 4250 
z
M 2034 4750 
Q 2819 4750 3233 4129 
Q 3647 3509 3647 2328 
Q 3647 1150 3233 529 
Q 2819 -91 2034 -91 
Q 1250 -91 836 529 
Q 422 1150 422 2328 
Q 422 3509 836 4129 
Q 1250 4750 2034 4750 
z
" transform="scale(0.015625)"/>
       </defs>
       <use xlink:href="#DejaVuSans-30"/>
      </g>
     </g>
    </g>
    <g id="xtick_2">
     <g id="line2d_7">
      <path d="M 144.2304 298.944 
L 144.2304 6.912 
" clip-path="url(#p8cde2e8ca4)" style="fill: none; stroke: #b0b0b0; stroke-width: 0.8; stroke-linecap: square"/>
     </g>
     <g id="line2d_8">
      <g>
       <use xlink:href="#m6f57a605d1" x="144.2304" y="298.944" style="stroke: #000000; stroke-width: 0.8"/>
      </g>
     </g>
     <g id="text_2">
      <!-- 2 -->
      <g transform="translate(138.822275 318.861344)scale(0.17 -0.17)">
       <defs>
        <path id="DejaVuSans-32" d="M 1228 531 
L 3431 531 
L 3431 0 
L 469 0 
L 469 531 
Q 828 903 1448 1529 
Q 2069 2156 2228 2338 
Q 2531 2678 2651 2914 
Q 2772 3150 2772 3378 
Q 2772 3750 2511 3984 
Q 2250 4219 1831 4219 
Q 1534 4219 1204 4116 
Q 875 4013 500 3803 
L 500 4441 
Q 881 4594 1212 4672 
Q 1544 4750 1819 4750 
Q 2544 4750 2975 4387 
Q 3406 4025 3406 3419 
Q 3406 3131 3298 2873 
Q 3191 2616 2906 2266 
Q 2828 2175 2409 1742 
Q 1991 1309 1228 531 
z
" transform="scale(0.015625)"/>
       </defs>
       <use xlink:href="#DejaVuSans-32"/>
      </g>
     </g>
    </g>
    <g id="xtick_3">
     <g id="line2d_9">
      <path d="M 230.8608 298.944 
L 230.8608 6.912 
" clip-path="url(#p8cde2e8ca4)" style="fill: none; stroke: #b0b0b0; stroke-width: 0.8; stroke-linecap: square"/>
     </g>
     <g id="line2d_10">
      <g>
       <use xlink:href="#m6f57a605d1" x="230.8608" y="298.944" style="stroke: #000000; stroke-width: 0.8"/>
      </g>
     </g>
     <g id="text_3">
      <!-- 4 -->
      <g transform="translate(225.452675 318.861344)scale(0.17 -0.17)">
       <defs>
        <path id="DejaVuSans-34" d="M 2419 4116 
L 825 1625 
L 2419 1625 
L 2419 4116 
z
M 2253 4666 
L 3047 4666 
L 3047 1625 
L 3713 1625 
L 3713 1100 
L 3047 1100 
L 3047 0 
L 2419 0 
L 2419 1100 
L 313 1100 
L 313 1709 
L 2253 4666 
z
" transform="scale(0.015625)"/>
       </defs>
       <use xlink:href="#DejaVuSans-34"/>
      </g>
     </g>
    </g>
    <g id="xtick_4">
     <g id="line2d_11">
      <path d="M 317.4912 298.944 
L 317.4912 6.912 
" clip-path="url(#p8cde2e8ca4)" style="fill: none; stroke: #b0b0b0; stroke-width: 0.8; stroke-linecap: square"/>
     </g>
     <g id="line2d_12">
      <g>
       <use xlink:href="#m6f57a605d1" x="317.4912" y="298.944" style="stroke: #000000; stroke-width: 0.8"/>
      </g>
     </g>
     <g id="text_4">
      <!-- 6 -->
      <g transform="translate(312.083075 318.861344)scale(0.17 -0.17)">
       <defs>
        <path id="DejaVuSans-36" d="M 2113 2584 
Q 1688 2584 1439 2293 
Q 1191 2003 1191 1497 
Q 1191 994 1439 701 
Q 1688 409 2113 409 
Q 2538 409 2786 701 
Q 3034 994 3034 1497 
Q 3034 2003 2786 2293 
Q 2538 2584 2113 2584 
z
M 3366 4563 
L 3366 3988 
Q 3128 4100 2886 4159 
Q 2644 4219 2406 4219 
Q 1781 4219 1451 3797 
Q 1122 3375 1075 2522 
Q 1259 2794 1537 2939 
Q 1816 3084 2150 3084 
Q 2853 3084 3261 2657 
Q 3669 2231 3669 1497 
Q 3669 778 3244 343 
Q 2819 -91 2113 -91 
Q 1303 -91 875 529 
Q 447 1150 447 2328 
Q 447 3434 972 4092 
Q 1497 4750 2381 4750 
Q 2619 4750 2861 4703 
Q 3103 4656 3366 4563 
z
" transform="scale(0.015625)"/>
       </defs>
       <use xlink:href="#DejaVuSans-36"/>
      </g>
     </g>
    </g>
    <g id="xtick_5">
     <g id="line2d_13">
      <path d="M 100.9152 298.944 
L 100.9152 6.912 
" clip-path="url(#p8cde2e8ca4)" style="fill: none; stroke: #b0b0b0; stroke-width: 0.8; stroke-linecap: square"/>
     </g>
     <g id="line2d_14">
      <defs>
       <path id="m4ed87efd0f" d="M 0 0 
L 0 2 
" style="stroke: #000000; stroke-width: 0.6"/>
      </defs>
      <g>
       <use xlink:href="#m4ed87efd0f" x="100.9152" y="298.944" style="stroke: #000000; stroke-width: 0.6"/>
      </g>
     </g>
    </g>
    <g id="xtick_6">
     <g id="line2d_15">
      <path d="M 187.5456 298.944 
L 187.5456 6.912 
" clip-path="url(#p8cde2e8ca4)" style="fill: none; stroke: #b0b0b0; stroke-width: 0.8; stroke-linecap: square"/>
     </g>
     <g id="line2d_16">
      <g>
       <use xlink:href="#m4ed87efd0f" x="187.5456" y="298.944" style="stroke: #000000; stroke-width: 0.6"/>
      </g>
     </g>
    </g>
    <g id="xtick_7">
     <g id="line2d_17">
      <path d="M 274.176 298.944 
L 274.176 6.912 
" clip-path="url(#p8cde2e8ca4)" style="fill: none; stroke: #b0b0b0; stroke-width: 0.8; stroke-linecap: square"/>
     </g>
     <g id="line2d_18">
      <g>
       <use xlink:href="#m4ed87efd0f" x="274.176" y="298.944" style="stroke: #000000; stroke-width: 0.6"/>
      </g>
     </g>
    </g>
    <g id="xtick_8">
     <g id="line2d_19">
      <path d="M 360.8064 298.944 
L 360.8064 6.912 
" clip-path="url(#p8cde2e8ca4)" style="fill: none; stroke: #b0b0b0; stroke-width: 0.8; stroke-linecap: square"/>
     </g>
     <g id="line2d_20">
      <g>
       <use xlink:href="#m4ed87efd0f" x="360.8064" y="298.944" style="stroke: #000000; stroke-width: 0.6"/>
      </g>
     </g>
    </g>
    <g id="text_5">
     <!-- log10(# f-evals / dimension) -->
     <g transform="translate(88.823278 339.314156)scale(0.17 -0.17)">
      <defs>
       <path id="DejaVuSans-6c" d="M 603 4863 
L 1178 4863 
L 1178 0 
L 603 0 
L 603 4863 
z
" transform="scale(0.015625)"/>
       <path id="DejaVuSans-6f" d="M 1959 3097 
Q 1497 3097 1228 2736 
Q 959 2375 959 1747 
Q 959 1119 1226 758 
Q 1494 397 1959 397 
Q 2419 397 2687 759 
Q 2956 1122 2956 1747 
Q 2956 2369 2687 2733 
Q 2419 3097 1959 3097 
z
M 1959 3584 
Q 2709 3584 3137 3096 
Q 3566 2609 3566 1747 
Q 3566 888 3137 398 
Q 2709 -91 1959 -91 
Q 1206 -91 779 398 
Q 353 888 353 1747 
Q 353 2609 779 3096 
Q 1206 3584 1959 3584 
z
" transform="scale(0.015625)"/>
       <path id="DejaVuSans-67" d="M 2906 1791 
Q 2906 2416 2648 2759 
Q 2391 3103 1925 3103 
Q 1463 3103 1205 2759 
Q 947 2416 947 1791 
Q 947 1169 1205 825 
Q 1463 481 1925 481 
Q 2391 481 2648 825 
Q 2906 1169 2906 1791 
z
M 3481 434 
Q 3481 -459 3084 -895 
Q 2688 -1331 1869 -1331 
Q 1566 -1331 1297 -1286 
Q 1028 -1241 775 -1147 
L 775 -588 
Q 1028 -725 1275 -790 
Q 1522 -856 1778 -856 
Q 2344 -856 2625 -561 
Q 2906 -266 2906 331 
L 2906 616 
Q 2728 306 2450 153 
Q 2172 0 1784 0 
Q 1141 0 747 490 
Q 353 981 353 1791 
Q 353 2603 747 3093 
Q 1141 3584 1784 3584 
Q 2172 3584 2450 3431 
Q 2728 3278 2906 2969 
L 2906 3500 
L 3481 3500 
L 3481 434 
z
" transform="scale(0.015625)"/>
       <path id="DejaVuSans-31" d="M 794 531 
L 1825 531 
L 1825 4091 
L 703 3866 
L 703 4441 
L 1819 4666 
L 2450 4666 
L 2450 531 
L 3481 531 
L 3481 0 
L 794 0 
L 794 531 
z
" transform="scale(0.015625)"/>
       <path id="DejaVuSans-28" d="M 1984 4856 
Q 1566 4138 1362 3434 
Q 1159 2731 1159 2009 
Q 1159 1288 1364 580 
Q 1569 -128 1984 -844 
L 1484 -844 
Q 1016 -109 783 600 
Q 550 1309 550 2009 
Q 550 2706 781 3412 
Q 1013 4119 1484 4856 
L 1984 4856 
z
" transform="scale(0.015625)"/>
       <path id="DejaVuSans-23" d="M 3272 2816 
L 2363 2816 
L 2100 1772 
L 3016 1772 
L 3272 2816 
z
M 2803 4594 
L 2478 3297 
L 3391 3297 
L 3719 4594 
L 4219 4594 
L 3897 3297 
L 4872 3297 
L 4872 2816 
L 3775 2816 
L 3519 1772 
L 4513 1772 
L 4513 1294 
L 3397 1294 
L 3072 0 
L 2572 0 
L 2894 1294 
L 1978 1294 
L 1656 0 
L 1153 0 
L 1478 1294 
L 494 1294 
L 494 1772 
L 1594 1772 
L 1856 2816 
L 850 2816 
L 850 3297 
L 1978 3297 
L 2297 4594 
L 2803 4594 
z
" transform="scale(0.015625)"/>
       <path id="DejaVuSans-20" transform="scale(0.015625)"/>
       <path id="DejaVuSans-66" d="M 2375 4863 
L 2375 4384 
L 1825 4384 
Q 1516 4384 1395 4259 
Q 1275 4134 1275 3809 
L 1275 3500 
L 2222 3500 
L 2222 3053 
L 1275 3053 
L 1275 0 
L 697 0 
L 697 3053 
L 147 3053 
L 147 3500 
L 697 3500 
L 697 3744 
Q 697 4328 969 4595 
Q 1241 4863 1831 4863 
L 2375 4863 
z
" transform="scale(0.015625)"/>
       <path id="DejaVuSans-2d" d="M 313 2009 
L 1997 2009 
L 1997 1497 
L 313 1497 
L 313 2009 
z
" transform="scale(0.015625)"/>
       <path id="DejaVuSans-65" d="M 3597 1894 
L 3597 1613 
L 953 1613 
Q 991 1019 1311 708 
Q 1631 397 2203 397 
Q 2534 397 2845 478 
Q 3156 559 3463 722 
L 3463 178 
Q 3153 47 2828 -22 
Q 2503 -91 2169 -91 
Q 1331 -91 842 396 
Q 353 884 353 1716 
Q 353 2575 817 3079 
Q 1281 3584 2069 3584 
Q 2775 3584 3186 3129 
Q 3597 2675 3597 1894 
z
M 3022 2063 
Q 3016 2534 2758 2815 
Q 2500 3097 2075 3097 
Q 1594 3097 1305 2825 
Q 1016 2553 972 2059 
L 3022 2063 
z
" transform="scale(0.015625)"/>
       <path id="DejaVuSans-76" d="M 191 3500 
L 800 3500 
L 1894 563 
L 2988 3500 
L 3597 3500 
L 2284 0 
L 1503 0 
L 191 3500 
z
" transform="scale(0.015625)"/>
       <path id="DejaVuSans-61" d="M 2194 1759 
Q 1497 1759 1228 1600 
Q 959 1441 959 1056 
Q 959 750 1161 570 
Q 1363 391 1709 391 
Q 2188 391 2477 730 
Q 2766 1069 2766 1631 
L 2766 1759 
L 2194 1759 
z
M 3341 1997 
L 3341 0 
L 2766 0 
L 2766 531 
Q 2569 213 2275 61 
Q 1981 -91 1556 -91 
Q 1019 -91 701 211 
Q 384 513 384 1019 
Q 384 1609 779 1909 
Q 1175 2209 1959 2209 
L 2766 2209 
L 2766 2266 
Q 2766 2663 2505 2880 
Q 2244 3097 1772 3097 
Q 1472 3097 1187 3025 
Q 903 2953 641 2809 
L 641 3341 
Q 956 3463 1253 3523 
Q 1550 3584 1831 3584 
Q 2591 3584 2966 3190 
Q 3341 2797 3341 1997 
z
" transform="scale(0.015625)"/>
       <path id="DejaVuSans-73" d="M 2834 3397 
L 2834 2853 
Q 2591 2978 2328 3040 
Q 2066 3103 1784 3103 
Q 1356 3103 1142 2972 
Q 928 2841 928 2578 
Q 928 2378 1081 2264 
Q 1234 2150 1697 2047 
L 1894 2003 
Q 2506 1872 2764 1633 
Q 3022 1394 3022 966 
Q 3022 478 2636 193 
Q 2250 -91 1575 -91 
Q 1294 -91 989 -36 
Q 684 19 347 128 
L 347 722 
Q 666 556 975 473 
Q 1284 391 1588 391 
Q 1994 391 2212 530 
Q 2431 669 2431 922 
Q 2431 1156 2273 1281 
Q 2116 1406 1581 1522 
L 1381 1569 
Q 847 1681 609 1914 
Q 372 2147 372 2553 
Q 372 3047 722 3315 
Q 1072 3584 1716 3584 
Q 2034 3584 2315 3537 
Q 2597 3491 2834 3397 
z
" transform="scale(0.015625)"/>
       <path id="DejaVuSans-2f" d="M 1625 4666 
L 2156 4666 
L 531 -594 
L 0 -594 
L 1625 4666 
z
" transform="scale(0.015625)"/>
       <path id="DejaVuSans-64" d="M 2906 2969 
L 2906 4863 
L 3481 4863 
L 3481 0 
L 2906 0 
L 2906 525 
Q 2725 213 2448 61 
Q 2172 -91 1784 -91 
Q 1150 -91 751 415 
Q 353 922 353 1747 
Q 353 2572 751 3078 
Q 1150 3584 1784 3584 
Q 2172 3584 2448 3432 
Q 2725 3281 2906 2969 
z
M 947 1747 
Q 947 1113 1208 752 
Q 1469 391 1925 391 
Q 2381 391 2643 752 
Q 2906 1113 2906 1747 
Q 2906 2381 2643 2742 
Q 2381 3103 1925 3103 
Q 1469 3103 1208 2742 
Q 947 2381 947 1747 
z
" transform="scale(0.015625)"/>
       <path id="DejaVuSans-69" d="M 603 3500 
L 1178 3500 
L 1178 0 
L 603 0 
L 603 3500 
z
M 603 4863 
L 1178 4863 
L 1178 4134 
L 603 4134 
L 603 4863 
z
" transform="scale(0.015625)"/>
       <path id="DejaVuSans-6d" d="M 3328 2828 
Q 3544 3216 3844 3400 
Q 4144 3584 4550 3584 
Q 5097 3584 5394 3201 
Q 5691 2819 5691 2113 
L 5691 0 
L 5113 0 
L 5113 2094 
Q 5113 2597 4934 2840 
Q 4756 3084 4391 3084 
Q 3944 3084 3684 2787 
Q 3425 2491 3425 1978 
L 3425 0 
L 2847 0 
L 2847 2094 
Q 2847 2600 2669 2842 
Q 2491 3084 2119 3084 
Q 1678 3084 1418 2786 
Q 1159 2488 1159 1978 
L 1159 0 
L 581 0 
L 581 3500 
L 1159 3500 
L 1159 2956 
Q 1356 3278 1631 3431 
Q 1906 3584 2284 3584 
Q 2666 3584 2933 3390 
Q 3200 3197 3328 2828 
z
" transform="scale(0.015625)"/>
       <path id="DejaVuSans-6e" d="M 3513 2113 
L 3513 0 
L 2938 0 
L 2938 2094 
Q 2938 2591 2744 2837 
Q 2550 3084 2163 3084 
Q 1697 3084 1428 2787 
Q 1159 2491 1159 1978 
L 1159 0 
L 581 0 
L 581 3500 
L 1159 3500 
L 1159 2956 
Q 1366 3272 1645 3428 
Q 1925 3584 2291 3584 
Q 2894 3584 3203 3211 
Q 3513 2838 3513 2113 
z
" transform="scale(0.015625)"/>
       <path id="DejaVuSans-29" d="M 513 4856 
L 1013 4856 
Q 1481 4119 1714 3412 
Q 1947 2706 1947 2009 
Q 1947 1309 1714 600 
Q 1481 -109 1013 -844 
L 513 -844 
Q 928 -128 1133 580 
Q 1338 1288 1338 2009 
Q 1338 2731 1133 3434 
Q 928 4138 513 4856 
z
" transform="scale(0.015625)"/>
      </defs>
      <use xlink:href="#DejaVuSans-6c"/>
      <use xlink:href="#DejaVuSans-6f" x="27.783203"/>
      <use xlink:href="#DejaVuSans-67" x="88.964844"/>
      <use xlink:href="#DejaVuSans-31" x="152.441406"/>
      <use xlink:href="#DejaVuSans-30" x="216.064453"/>
      <use xlink:href="#DejaVuSans-28" x="279.6875"/>
      <use xlink:href="#DejaVuSans-23" x="318.701172"/>
      <use xlink:href="#DejaVuSans-20" x="402.490234"/>
      <use xlink:href="#DejaVuSans-66" x="434.277344"/>
      <use xlink:href="#DejaVuSans-2d" x="463.982422"/>
      <use xlink:href="#DejaVuSans-65" x="500.066406"/>
      <use xlink:href="#DejaVuSans-76" x="561.589844"/>
      <use xlink:href="#DejaVuSans-61" x="620.769531"/>
      <use xlink:href="#DejaVuSans-6c" x="682.048828"/>
      <use xlink:href="#DejaVuSans-73" x="709.832031"/>
      <use xlink:href="#DejaVuSans-20" x="761.931641"/>
      <use xlink:href="#DejaVuSans-2f" x="793.71875"/>
      <use xlink:href="#DejaVuSans-20" x="827.410156"/>
      <use xlink:href="#DejaVuSans-64" x="859.197266"/>
      <use xlink:href="#DejaVuSans-69" x="922.673828"/>
      <use xlink:href="#DejaVuSans-6d" x="950.457031"/>
      <use xlink:href="#DejaVuSans-65" x="1047.869141"/>
      <use xlink:href="#DejaVuSans-6e" x="1109.392578"/>
      <use xlink:href="#DejaVuSans-73" x="1172.771484"/>
      <use xlink:href="#DejaVuSans-69" x="1224.871094"/>
      <use xlink:href="#DejaVuSans-6f" x="1252.654297"/>
      <use xlink:href="#DejaVuSans-6e" x="1313.835938"/>
      <use xlink:href="#DejaVuSans-29" x="1377.214844"/>
     </g>
    </g>
   </g>
   <g id="matplotlib.axis_2">
    <g id="ytick_1">
     <g id="line2d_21">
      <path d="M 57.6 298.944 
L 360.8064 298.944 
" clip-path="url(#p8cde2e8ca4)" style="fill: none; stroke: #b0b0b0; stroke-width: 0.8; stroke-linecap: square"/>
     </g>
     <g id="line2d_22">
      <defs>
       <path id="m8360c9920f" d="M 0 0 
L -3.5 0 
" style="stroke: #000000; stroke-width: 0.8"/>
      </defs>
      <g>
       <use xlink:href="#m8360c9920f" x="57.6" y="298.944" style="stroke: #000000; stroke-width: 0.8"/>
      </g>
     </g>
     <g id="text_6">
      <!-- 0.0 -->
      <g transform="translate(25.155 305.02275)scale(0.16 -0.16)">
       <defs>
        <path id="DejaVuSans-2e" d="M 684 794 
L 1344 794 
L 1344 0 
L 684 0 
L 684 794 
z
" transform="scale(0.015625)"/>
       </defs>
       <use xlink:href="#DejaVuSans-30"/>
       <use xlink:href="#DejaVuSans-2e" x="63.623047"/>
       <use xlink:href="#DejaVuSans-30" x="95.410156"/>
      </g>
     </g>
    </g>
    <g id="ytick_2">
     <g id="line2d_23">
      <path d="M 57.6 240.5376 
L 360.8064 240.5376 
" clip-path="url(#p8cde2e8ca4)" style="fill: none; stroke: #b0b0b0; stroke-width: 0.8; stroke-linecap: square"/>
     </g>
     <g id="line2d_24">
      <g>
       <use xlink:href="#m8360c9920f" x="57.6" y="240.5376" style="stroke: #000000; stroke-width: 0.8"/>
      </g>
     </g>
     <g id="text_7">
      <!-- 0.2 -->
      <g transform="translate(25.155 246.61635)scale(0.16 -0.16)">
       <use xlink:href="#DejaVuSans-30"/>
       <use xlink:href="#DejaVuSans-2e" x="63.623047"/>
       <use xlink:href="#DejaVuSans-32" x="95.410156"/>
      </g>
     </g>
    </g>
    <g id="ytick_3">
     <g id="line2d_25">
      <path d="M 57.6 182.1312 
L 360.8064 182.1312 
" clip-path="url(#p8cde2e8ca4)" style="fill: none; stroke: #b0b0b0; stroke-width: 0.8; stroke-linecap: square"/>
     </g>
     <g id="line2d_26">
      <g>
       <use xlink:href="#m8360c9920f" x="57.6" y="182.1312" style="stroke: #000000; stroke-width: 0.8"/>
      </g>
     </g>
     <g id="text_8">
      <!-- 0.4 -->
      <g transform="translate(25.155 188.20995)scale(0.16 -0.16)">
       <use xlink:href="#DejaVuSans-30"/>
       <use xlink:href="#DejaVuSans-2e" x="63.623047"/>
       <use xlink:href="#DejaVuSans-34" x="95.410156"/>
      </g>
     </g>
    </g>
    <g id="ytick_4">
     <g id="line2d_27">
      <path d="M 57.6 123.7248 
L 360.8064 123.7248 
" clip-path="url(#p8cde2e8ca4)" style="fill: none; stroke: #b0b0b0; stroke-width: 0.8; stroke-linecap: square"/>
     </g>
     <g id="line2d_28">
      <g>
       <use xlink:href="#m8360c9920f" x="57.6" y="123.7248" style="stroke: #000000; stroke-width: 0.8"/>
      </g>
     </g>
     <g id="text_9">
      <!-- 0.6 -->
      <g transform="translate(25.155 129.80355)scale(0.16 -0.16)">
       <use xlink:href="#DejaVuSans-30"/>
       <use xlink:href="#DejaVuSans-2e" x="63.623047"/>
       <use xlink:href="#DejaVuSans-36" x="95.410156"/>
      </g>
     </g>
    </g>
    <g id="ytick_5">
     <g id="line2d_29">
      <path d="M 57.6 65.3184 
L 360.8064 65.3184 
" clip-path="url(#p8cde2e8ca4)" style="fill: none; stroke: #b0b0b0; stroke-width: 0.8; stroke-linecap: square"/>
     </g>
     <g id="line2d_30">
      <g>
       <use xlink:href="#m8360c9920f" x="57.6" y="65.3184" style="stroke: #000000; stroke-width: 0.8"/>
      </g>
     </g>
     <g id="text_10">
      <!-- 0.8 -->
      <g transform="translate(25.155 71.39715)scale(0.16 -0.16)">
       <defs>
        <path id="DejaVuSans-38" d="M 2034 2216 
Q 1584 2216 1326 1975 
Q 1069 1734 1069 1313 
Q 1069 891 1326 650 
Q 1584 409 2034 409 
Q 2484 409 2743 651 
Q 3003 894 3003 1313 
Q 3003 1734 2745 1975 
Q 2488 2216 2034 2216 
z
M 1403 2484 
Q 997 2584 770 2862 
Q 544 3141 544 3541 
Q 544 4100 942 4425 
Q 1341 4750 2034 4750 
Q 2731 4750 3128 4425 
Q 3525 4100 3525 3541 
Q 3525 3141 3298 2862 
Q 3072 2584 2669 2484 
Q 3125 2378 3379 2068 
Q 3634 1759 3634 1313 
Q 3634 634 3220 271 
Q 2806 -91 2034 -91 
Q 1263 -91 848 271 
Q 434 634 434 1313 
Q 434 1759 690 2068 
Q 947 2378 1403 2484 
z
M 1172 3481 
Q 1172 3119 1398 2916 
Q 1625 2713 2034 2713 
Q 2441 2713 2670 2916 
Q 2900 3119 2900 3481 
Q 2900 3844 2670 4047 
Q 2441 4250 2034 4250 
Q 1625 4250 1398 4047 
Q 1172 3844 1172 3481 
z
" transform="scale(0.015625)"/>
       </defs>
       <use xlink:href="#DejaVuSans-30"/>
       <use xlink:href="#DejaVuSans-2e" x="63.623047"/>
       <use xlink:href="#DejaVuSans-38" x="95.410156"/>
      </g>
     </g>
    </g>
    <g id="ytick_6">
     <g id="line2d_31">
      <path d="M 57.6 6.912 
L 360.8064 6.912 
" clip-path="url(#p8cde2e8ca4)" style="fill: none; stroke: #b0b0b0; stroke-width: 0.8; stroke-linecap: square"/>
     </g>
     <g id="line2d_32">
      <g>
       <use xlink:href="#m8360c9920f" x="57.6" y="6.912" style="stroke: #000000; stroke-width: 0.8"/>
      </g>
     </g>
     <g id="text_11">
      <!-- 1.0 -->
      <g transform="translate(25.155 12.99075)scale(0.16 -0.16)">
       <use xlink:href="#DejaVuSans-31"/>
       <use xlink:href="#DejaVuSans-2e" x="63.623047"/>
       <use xlink:href="#DejaVuSans-30" x="95.410156"/>
      </g>
     </g>
    </g>
    <g id="text_12">
     <!-- Fraction of function,target pairs -->
     <g transform="translate(17.619531 287.313)rotate(-90)scale(0.17 -0.17)">
      <defs>
       <path id="DejaVuSans-46" d="M 628 4666 
L 3309 4666 
L 3309 4134 
L 1259 4134 
L 1259 2759 
L 3109 2759 
L 3109 2228 
L 1259 2228 
L 1259 0 
L 628 0 
L 628 4666 
z
" transform="scale(0.015625)"/>
       <path id="DejaVuSans-72" d="M 2631 2963 
Q 2534 3019 2420 3045 
Q 2306 3072 2169 3072 
Q 1681 3072 1420 2755 
Q 1159 2438 1159 1844 
L 1159 0 
L 581 0 
L 581 3500 
L 1159 3500 
L 1159 2956 
Q 1341 3275 1631 3429 
Q 1922 3584 2338 3584 
Q 2397 3584 2469 3576 
Q 2541 3569 2628 3553 
L 2631 2963 
z
" transform="scale(0.015625)"/>
       <path id="DejaVuSans-63" d="M 3122 3366 
L 3122 2828 
Q 2878 2963 2633 3030 
Q 2388 3097 2138 3097 
Q 1578 3097 1268 2742 
Q 959 2388 959 1747 
Q 959 1106 1268 751 
Q 1578 397 2138 397 
Q 2388 397 2633 464 
Q 2878 531 3122 666 
L 3122 134 
Q 2881 22 2623 -34 
Q 2366 -91 2075 -91 
Q 1284 -91 818 406 
Q 353 903 353 1747 
Q 353 2603 823 3093 
Q 1294 3584 2113 3584 
Q 2378 3584 2631 3529 
Q 2884 3475 3122 3366 
z
" transform="scale(0.015625)"/>
       <path id="DejaVuSans-74" d="M 1172 4494 
L 1172 3500 
L 2356 3500 
L 2356 3053 
L 1172 3053 
L 1172 1153 
Q 1172 725 1289 603 
Q 1406 481 1766 481 
L 2356 481 
L 2356 0 
L 1766 0 
Q 1100 0 847 248 
Q 594 497 594 1153 
L 594 3053 
L 172 3053 
L 172 3500 
L 594 3500 
L 594 4494 
L 1172 4494 
z
" transform="scale(0.015625)"/>
       <path id="DejaVuSans-75" d="M 544 1381 
L 544 3500 
L 1119 3500 
L 1119 1403 
Q 1119 906 1312 657 
Q 1506 409 1894 409 
Q 2359 409 2629 706 
Q 2900 1003 2900 1516 
L 2900 3500 
L 3475 3500 
L 3475 0 
L 2900 0 
L 2900 538 
Q 2691 219 2414 64 
Q 2138 -91 1772 -91 
Q 1169 -91 856 284 
Q 544 659 544 1381 
z
M 1991 3584 
L 1991 3584 
z
" transform="scale(0.015625)"/>
       <path id="DejaVuSans-2c" d="M 750 794 
L 1409 794 
L 1409 256 
L 897 -744 
L 494 -744 
L 750 256 
L 750 794 
z
" transform="scale(0.015625)"/>
       <path id="DejaVuSans-70" d="M 1159 525 
L 1159 -1331 
L 581 -1331 
L 581 3500 
L 1159 3500 
L 1159 2969 
Q 1341 3281 1617 3432 
Q 1894 3584 2278 3584 
Q 2916 3584 3314 3078 
Q 3713 2572 3713 1747 
Q 3713 922 3314 415 
Q 2916 -91 2278 -91 
Q 1894 -91 1617 61 
Q 1341 213 1159 525 
z
M 3116 1747 
Q 3116 2381 2855 2742 
Q 2594 3103 2138 3103 
Q 1681 3103 1420 2742 
Q 1159 2381 1159 1747 
Q 1159 1113 1420 752 
Q 1681 391 2138 391 
Q 2594 391 2855 752 
Q 3116 1113 3116 1747 
z
" transform="scale(0.015625)"/>
      </defs>
      <use xlink:href="#DejaVuSans-46"/>
      <use xlink:href="#DejaVuSans-72" x="50.269531"/>
      <use xlink:href="#DejaVuSans-61" x="91.382812"/>
      <use xlink:href="#DejaVuSans-63" x="152.662109"/>
      <use xlink:href="#DejaVuSans-74" x="207.642578"/>
      <use xlink:href="#DejaVuSans-69" x="246.851562"/>
      <use xlink:href="#DejaVuSans-6f" x="274.634766"/>
      <use xlink:href="#DejaVuSans-6e" x="335.816406"/>
      <use xlink:href="#DejaVuSans-20" x="399.195312"/>
      <use xlink:href="#DejaVuSans-6f" x="430.982422"/>
      <use xlink:href="#DejaVuSans-66" x="492.164062"/>
      <use xlink:href="#DejaVuSans-20" x="527.369141"/>
      <use xlink:href="#DejaVuSans-66" x="559.15625"/>
      <use xlink:href="#DejaVuSans-75" x="594.361328"/>
      <use xlink:href="#DejaVuSans-6e" x="657.740234"/>
      <use xlink:href="#DejaVuSans-63" x="721.119141"/>
      <use xlink:href="#DejaVuSans-74" x="776.099609"/>
      <use xlink:href="#DejaVuSans-69" x="815.308594"/>
      <use xlink:href="#DejaVuSans-6f" x="843.091797"/>
      <use xlink:href="#DejaVuSans-6e" x="904.273438"/>
      <use xlink:href="#DejaVuSans-2c" x="967.652344"/>
      <use xlink:href="#DejaVuSans-74" x="999.439453"/>
      <use xlink:href="#DejaVuSans-61" x="1038.648438"/>
      <use xlink:href="#DejaVuSans-72" x="1099.927734"/>
      <use xlink:href="#DejaVuSans-67" x="1139.291016"/>
      <use xlink:href="#DejaVuSans-65" x="1202.767578"/>
      <use xlink:href="#DejaVuSans-74" x="1264.291016"/>
      <use xlink:href="#DejaVuSans-20" x="1303.5"/>
      <use xlink:href="#DejaVuSans-70" x="1335.287109"/>
      <use xlink:href="#DejaVuSans-61" x="1398.763672"/>
      <use xlink:href="#DejaVuSans-69" x="1460.042969"/>
      <use xlink:href="#DejaVuSans-72" x="1487.826172"/>
      <use xlink:href="#DejaVuSans-73" x="1528.939453"/>
     </g>
    </g>
   </g>
   <g id="line2d_33">
    <defs>
     <path id="mb102d17d9b" d="M 0 1.5 
C 0.397805 1.5 0.77937 1.341951 1.06066 1.06066 
C 1.341951 0.77937 1.5 0.397805 1.5 0 
C 1.5 -0.397805 1.341951 -0.77937 1.06066 -1.06066 
C 0.77937 -1.341951 0.397805 -1.5 0 -1.5 
C -0.397805 -1.5 -0.77937 -1.341951 -1.06066 -1.06066 
C -1.341951 -0.77937 -1.5 -0.397805 -1.5 0 
C -1.5 0.397805 -1.341951 0.77937 -1.06066 1.06066 
C -0.77937 1.341951 -0.397805 1.5 0 1.5 
z
" style="stroke: #f5deb3"/>
    </defs>
    <g>
     <use xlink:href="#mb102d17d9b" x="289.156906" y="42.157241" style="fill: #f5deb3; stroke: #f5deb3"/>
     <use xlink:href="#mb102d17d9b" x="289.156906" y="42.157241" style="fill: #f5deb3; stroke: #f5deb3"/>
    </g>
   </g>
   <g id="line2d_34">
    <defs>
     <path id="m041bd5dbf2" d="M 0 1.5 
C 0.397805 1.5 0.77937 1.341951 1.06066 1.06066 
C 1.341951 0.77937 1.5 0.397805 1.5 0 
C 1.5 -0.397805 1.341951 -0.77937 1.06066 -1.06066 
C 0.77937 -1.341951 0.397805 -1.5 0 -1.5 
C -0.397805 -1.5 -0.77937 -1.341951 -1.06066 -1.06066 
C -1.341951 -0.77937 -1.5 -0.397805 -1.5 0 
C -1.5 0.397805 -1.341951 0.77937 -1.06066 1.06066 
C -0.77937 1.341951 -0.397805 1.5 0 1.5 
z
" style="stroke: #000080"/>
    </defs>
    <g>
     <use xlink:href="#m041bd5dbf2" x="79.480672" y="275.782841" style="fill: #000080; stroke: #000080"/>
     <use xlink:href="#m041bd5dbf2" x="79.480672" y="275.782841" style="fill: #000080; stroke: #000080"/>
    </g>
   </g>
   <g id="line2d_35">
    <path d="M 14.2848 298.944 
L 14.2848 288.622179 
L 27.323974 288.622179 
L 27.323974 287.866924 
L 34.951403 287.866924 
L 34.951403 286.734041 
L 40.363149 286.734041 
L 40.363149 286.104662 
L 44.560826 286.104662 
L 44.560826 285.475283 
L 47.990577 285.475283 
L 47.990577 283.838897 
L 50.890391 283.838897 
L 50.890391 283.587145 
L 53.402323 283.587145 
L 53.402323 283.461269 
L 55.618005 283.461269 
L 55.618005 283.083641 
L 59.392932 283.083641 
L 59.392932 282.580138 
L 61.029752 282.580138 
L 61.029752 282.20251 
L 62.535479 282.20251 
L 62.535479 281.699007 
L 63.929565 281.699007 
L 63.929565 281.195503 
L 65.227428 281.195503 
L 65.227428 280.817876 
L 66.441498 280.817876 
L 66.441498 280.440248 
L 67.581941 280.440248 
L 67.581941 280.188497 
L 68.65718 280.188497 
L 68.65718 279.936745 
L 69.674268 279.936745 
L 69.674268 279.559117 
L 70.639174 279.559117 
L 70.639174 279.18149 
L 71.556993 279.18149 
L 71.556993 278.55211 
L 72.432107 278.55211 
L 72.432107 278.426234 
L 73.268314 278.426234 
L 73.268314 278.048607 
L 74.836851 278.048607 
L 74.836851 277.922731 
L 75.574654 277.922731 
L 75.574654 277.0416 
L 76.96874 277.0416 
L 76.96874 276.915724 
L 78.266603 276.915724 
L 78.266603 276.538097 
L 79.480672 276.538097 
L 79.480672 275.782841 
L 360.8064 275.782841 
" style="fill: none; stroke: #000080; stroke-width: 1.5; stroke-linecap: square"/>
   </g>
   <g id="line2d_36">
    <defs>
     <path id="mecf4daaab5" d="M 0 6 
C 1.591219 6 3.117479 5.367802 4.242641 4.242641 
C 5.367802 3.117479 6 1.591219 6 0 
C 6 -1.591219 5.367802 -3.117479 4.242641 -4.242641 
C 3.117479 -5.367802 1.591219 -6 0 -6 
C -1.591219 -6 -3.117479 -5.367802 -4.242641 -4.242641 
C -5.367802 -3.117479 -6 -1.591219 -6 0 
C -6 1.591219 -5.367802 3.117479 -4.242641 4.242641 
C -3.117479 5.367802 -1.591219 6 0 6 
z
" style="stroke: #000080; stroke-width: 1.5"/>
    </defs>
    <g>
     <use xlink:href="#mecf4daaab5" x="71.556993" y="279.18149" style="fill-opacity: 0; stroke: #000080; stroke-width: 1.5"/>
     <use xlink:href="#mecf4daaab5" x="79.480672" y="276.538097" style="fill-opacity: 0; stroke: #000080; stroke-width: 1.5"/>
     <use xlink:href="#mecf4daaab5" x="79.480672" y="275.782841" style="fill-opacity: 0; stroke: #000080; stroke-width: 1.5"/>
     <use xlink:href="#mecf4daaab5" x="79.480672" y="275.782841" style="fill-opacity: 0; stroke: #000080; stroke-width: 1.5"/>
     <use xlink:href="#mecf4daaab5" x="79.480672" y="275.782841" style="fill-opacity: 0; stroke: #000080; stroke-width: 1.5"/>
     <use xlink:href="#mecf4daaab5" x="360.8064" y="275.782841" style="fill-opacity: 0; stroke: #000080; stroke-width: 1.5"/>
    </g>
   </g>
   <g id="line2d_37">
    <path style="fill: none; stroke: #000080; stroke-width: 1.5; stroke-linecap: square"/>
    <g/>
   </g>
   <g id="line2d_38">
    <path d="M 79.480672 275.782841 
" clip-path="url(#p8cde2e8ca4)" style="fill: none; stroke: #000080; stroke-width: 1.5; stroke-linecap: square"/>
    <defs>
     <path id="m0495a30641" d="M -12 12 
L 12 -12 
M -12 -12 
L 12 12 
" style="stroke: #000080"/>
    </defs>
    <g clip-path="url(#p8cde2e8ca4)">
     <use xlink:href="#m0495a30641" x="79.480672" y="275.782841" style="fill: #000080; stroke: #000080"/>
    </g>
   </g>
   <g id="line2d_39">
    <defs>
     <path id="m8f557ffc88" d="M 0 1.5 
C 0.397805 1.5 0.77937 1.341951 1.06066 1.06066 
C 1.341951 0.77937 1.5 0.397805 1.5 0 
C 1.5 -0.397805 1.341951 -0.77937 1.06066 -1.06066 
C 0.77937 -1.341951 0.397805 -1.5 0 -1.5 
C -0.397805 -1.5 -0.77937 -1.341951 -1.06066 -1.06066 
C -1.341951 -0.77937 -1.5 -0.397805 -1.5 0 
C -1.5 0.397805 -1.341951 0.77937 -1.06066 1.06066 
C -0.77937 1.341951 -0.397805 1.5 0 1.5 
z
" style="stroke: #ff00ff"/>
    </defs>
    <g>
     <use xlink:href="#m8f557ffc88" x="273.626505" y="132.913738" style="fill: #ff00ff; stroke: #ff00ff"/>
     <use xlink:href="#m8f557ffc88" x="273.626505" y="132.913738" style="fill: #ff00ff; stroke: #ff00ff"/>
    </g>
   </g>
   <g id="line2d_40">
    <path d="M 14.2848 298.944 
L 14.2848 288.622179 
L 27.323974 288.622179 
L 27.323974 287.615172 
L 34.951403 287.615172 
L 34.951403 287.489297 
L 40.363149 287.489297 
L 40.363149 287.111669 
L 44.560826 287.111669 
L 44.560826 286.859917 
L 47.990577 286.859917 
L 47.990577 286.48229 
L 50.890391 286.48229 
L 50.890391 286.104662 
L 53.402323 286.104662 
L 53.402323 285.727034 
L 55.618005 285.727034 
L 55.618005 285.349407 
L 61.029752 285.349407 
L 61.029752 284.971779 
L 62.535479 284.971779 
L 62.535479 284.845903 
L 65.227428 284.845903 
L 65.227428 284.468276 
L 66.441498 284.468276 
L 66.441498 283.964772 
L 67.581941 283.964772 
L 67.581941 283.713021 
L 68.65718 283.713021 
L 68.65718 283.461269 
L 72.432107 283.461269 
L 72.432107 283.209517 
L 73.268314 283.209517 
L 73.268314 283.083641 
L 74.068926 283.083641 
L 74.068926 282.580138 
L 74.836851 282.580138 
L 74.836851 282.328386 
L 76.284608 282.328386 
L 76.284608 281.950759 
L 77.628862 281.950759 
L 77.628862 281.824883 
L 78.266603 281.824883 
L 78.266603 281.699007 
L 78.88343 281.699007 
L 78.88343 281.447255 
L 79.480672 281.447255 
L 79.480672 281.321379 
L 80.059535 281.321379 
L 80.059535 281.195503 
L 81.696354 281.195503 
L 81.696354 281.069628 
L 83.678349 281.069628 
L 83.678349 280.943752 
L 86.712053 280.943752 
L 86.712053 280.566124 
L 87.495981 280.566124 
L 87.495981 280.440248 
L 90.989609 280.440248 
L 90.989609 280.314372 
L 93.381595 280.314372 
L 93.381595 280.188497 
L 93.934916 280.188497 
L 93.934916 279.936745 
L 94.205591 279.936745 
L 94.205591 279.810869 
L 94.472426 279.810869 
L 94.472426 279.684993 
L 94.735529 279.684993 
L 94.735529 279.433241 
L 96.480897 279.433241 
L 96.480897 279.307366 
L 98.077987 279.307366 
L 98.077987 279.18149 
L 98.295464 279.18149 
L 98.295464 278.929738 
L 98.723018 278.929738 
L 98.723018 278.677986 
L 100.9152 278.677986 
L 100.9152 278.55211 
L 101.653002 278.55211 
L 101.653002 278.300359 
L 101.833019 278.300359 
L 101.833019 278.048607 
L 102.536336 278.048607 
L 102.536336 277.922731 
L 103.047088 277.922731 
L 103.047088 277.796855 
L 103.214303 277.796855 
L 103.214303 277.545103 
L 103.707211 277.545103 
L 103.707211 277.419228 
L 103.868684 277.419228 
L 103.868684 277.293352 
L 104.501065 277.293352 
L 104.501065 277.0416 
L 104.655893 277.0416 
L 104.655893 276.915724 
L 104.809458 276.915724 
L 104.809458 276.663972 
L 104.961779 276.663972 
L 104.961779 276.538097 
L 105.705415 276.538097 
L 105.705415 276.412221 
L 105.99483 276.412221 
L 105.99483 276.160469 
L 106.279859 276.160469 
L 106.279859 275.908717 
L 106.42077 275.908717 
L 106.42077 275.782841 
L 106.560633 275.782841 
L 106.560633 275.656966 
L 106.837279 275.656966 
L 106.837279 275.53109 
L 107.109915 275.53109 
L 107.109915 275.405214 
L 107.244765 275.405214 
L 107.244765 275.153462 
L 107.378656 275.153462 
L 107.378656 275.027586 
L 107.5116 275.027586 
L 107.5116 274.649959 
L 107.904887 274.649959 
L 107.904887 274.524083 
L 108.162584 274.524083 
L 108.162584 274.398207 
L 108.29012 274.398207 
L 108.29012 274.272331 
L 108.667622 274.272331 
L 108.667622 274.146455 
L 108.915146 274.146455 
L 108.915146 274.020579 
L 109.520071 274.020579 
L 109.520071 273.894703 
L 109.756698 273.894703 
L 109.756698 273.768828 
L 110.106149 273.768828 
L 110.106149 273.517076 
L 110.335561 273.517076 
L 110.335561 273.265324 
L 110.562208 273.265324 
L 110.562208 273.139448 
L 110.897141 273.139448 
L 111.007473 272.635945 
L 111.117162 272.635945 
L 111.226215 272.384193 
L 111.334639 272.384193 
L 111.334639 272.258317 
L 111.656212 272.258317 
L 111.656212 272.132441 
L 111.86758 272.132441 
L 111.86758 271.88069 
L 112.283321 271.88069 
L 112.385837 271.628938 
L 112.989468 271.628938 
L 112.989468 271.503062 
L 113.478107 271.503062 
L 113.478107 271.125434 
L 113.670063 271.125434 
L 113.670063 270.999559 
L 113.860081 270.999559 
L 113.954374 270.747807 
L 114.141556 270.747807 
L 114.234452 270.496055 
L 114.510421 270.496055 
L 114.601519 269.111421 
L 114.692177 269.111421 
L 114.7824 268.859669 
L 115.050503 268.859669 
L 115.050503 268.733793 
L 115.402131 268.733793 
L 115.402131 268.482041 
L 116.170056 268.482041 
L 116.170056 268.356166 
L 116.583514 268.356166 
L 116.583514 267.978538 
L 116.746385 267.978538 
L 116.746385 267.852662 
L 116.907859 267.852662 
L 116.907859 267.726786 
L 117.1475 267.726786 
L 117.1475 267.60091 
L 117.462345 267.60091 
L 117.462345 267.475034 
L 117.617813 267.475034 
L 117.617813 267.223283 
L 117.924947 267.223283 
L 117.924947 266.971531 
L 118.152051 266.971531 
L 118.152051 266.845655 
L 118.301945 266.845655 
L 118.301945 266.468028 
L 118.524569 266.468028 
L 118.524569 266.0904 
L 119.034004 266.0904 
L 119.034004 265.964524 
L 119.738639 265.964524 
L 119.807672 265.712772 
L 119.876453 265.712772 
L 119.944983 265.209269 
L 120.216635 265.209269 
L 120.216635 265.083393 
L 120.351004 265.083393 
L 120.351004 264.831641 
L 120.48442 264.831641 
L 120.48442 264.076386 
L 120.682786 264.076386 
L 120.748446 263.824634 
L 120.813877 263.824634 
L 120.879082 263.572883 
L 121.073351 263.572883 
L 121.073351 263.447007 
L 122.076872 263.447007 
L 122.13785 263.069379 
L 122.618682 263.069379 
L 122.618682 262.943503 
L 122.736994 262.943503 
L 122.736994 262.817628 
L 122.854567 262.817628 
L 122.854567 262.565876 
L 123.260379 262.565876 
L 123.260379 262.314124 
L 123.991562 262.314124 
L 123.991562 262.188248 
L 124.210942 262.188248 
L 124.210942 262.062372 
L 124.801367 262.062372 
L 124.801367 261.684745 
L 125.678882 261.684745 
L 125.678882 261.558869 
L 126.274549 261.558869 
L 126.274549 261.307117 
L 126.804487 261.307117 
L 126.804487 261.181241 
L 127.5952 261.181241 
L 127.5952 260.92949 
L 128.266313 260.92949 
L 128.266313 260.803614 
L 128.829186 260.803614 
L 128.829186 260.677738 
L 129.499602 260.677738 
L 129.499602 260.425986 
L 130.344755 260.425986 
L 130.344755 260.30011 
L 131.856536 260.30011 
L 131.856536 260.174234 
L 133.086488 260.174234 
L 133.086488 259.796607 
L 134.87014 259.796607 
L 134.87014 259.670731 
L 135.054871 259.670731 
L 135.054871 259.544855 
L 135.864417 259.544855 
L 135.864417 259.293103 
L 138.232735 259.293103 
L 138.232735 259.167228 
L 138.489728 259.167228 
L 138.489728 258.7896 
L 139.386872 258.7896 
L 139.386872 258.537848 
L 139.77227 258.537848 
L 139.843661 258.160221 
L 140.219905 258.160221 
L 140.219905 257.908469 
L 140.634374 257.908469 
L 140.702573 257.404966 
L 140.838234 257.404966 
L 140.883238 257.153214 
L 141.523975 257.153214 
L 141.632274 256.901462 
L 141.739954 256.901462 
L 141.739954 256.775586 
L 142.164612 256.775586 
L 142.248405 256.523834 
L 142.41488 256.523834 
L 142.45627 256.272083 
L 142.723105 256.272083 
L 142.784148 255.894455 
L 143.166224 255.894455 
L 143.166224 255.642703 
L 143.364242 255.642703 
L 143.423243 255.265076 
L 143.521169 255.265076 
L 143.599145 254.761572 
L 144.136106 254.761572 
L 144.136106 254.635697 
L 144.398947 254.635697 
L 144.398947 254.509821 
L 144.602918 254.509821 
L 144.658165 254.258069 
L 144.822939 254.258069 
L 144.822939 254.132193 
L 144.968202 254.132193 
L 145.022388 253.754566 
L 145.219746 253.754566 
L 145.326529 252.99931 
L 145.379694 252.99931 
L 145.379694 252.873434 
L 145.730339 252.873434 
L 145.79969 252.495807 
L 145.851536 252.495807 
L 145.851536 252.244055 
L 145.971958 252.244055 
L 145.971958 252.118179 
L 146.142663 252.118179 
L 146.176619 251.740552 
L 146.27812 251.740552 
L 146.27812 251.614676 
L 146.429353 251.614676 
L 146.429353 251.237048 
L 146.546143 251.237048 
L 146.595975 250.859421 
L 146.678736 250.859421 
L 146.678736 250.607669 
L 146.793994 250.607669 
L 146.793994 250.355917 
L 146.941151 250.355917 
L 146.941151 250.230041 
L 147.135588 250.230041 
L 147.135588 249.852414 
L 147.312072 249.852414 
L 147.375841 249.474786 
L 147.534321 249.474786 
L 147.613064 249.097159 
L 147.816265 249.097159 
L 147.816265 248.971283 
L 147.940229 248.971283 
L 148.017294 248.341903 
L 148.155221 248.341903 
L 148.155221 248.216028 
L 148.352679 248.216028 
L 148.458151 247.586648 
L 148.488177 247.586648 
L 148.57797 246.831393 
L 148.800595 246.831393 
L 148.800595 246.705517 
L 148.918259 246.705517 
L 148.947561 246.32789 
L 149.049758 246.32789 
L 149.064312 246.076138 
L 149.252502 246.076138 
L 149.2669 245.69851 
L 149.381693 245.69851 
L 149.381693 245.572634 
L 149.707872 245.572634 
L 149.707872 245.446759 
L 149.833983 245.446759 
L 149.833983 245.195007 
L 150.234685 245.195007 
L 150.330141 244.691503 
L 150.357325 244.691503 
L 150.357325 244.565628 
L 150.559965 244.565628 
L 150.667154 244.062124 
L 150.813548 244.062124 
L 150.813548 243.810372 
L 150.998235 243.810372 
L 150.998235 243.684497 
L 151.233056 243.684497 
L 151.233056 243.432745 
L 151.464982 243.432745 
L 151.528902 242.803366 
L 151.656094 242.803366 
L 151.70673 242.425738 
L 151.782431 242.425738 
L 151.782431 242.299862 
L 151.995276 242.299862 
L 152.045009 241.796359 
L 152.25492 241.796359 
L 152.340678 241.166979 
L 152.583568 241.166979 
L 152.595631 240.663476 
L 152.835271 240.663476 
L 152.835271 240.5376 
L 152.989417 240.5376 
L 153.083651 240.034097 
L 153.317193 240.034097 
L 153.340389 239.782345 
L 153.719042 239.782345 
L 153.821002 239.152966 
L 153.843585 239.152966 
L 153.843585 239.02709 
L 153.956095 239.02709 
L 154.000911 238.523586 
L 154.090224 238.523586 
L 154.201272 237.768331 
L 154.399522 237.768331 
L 154.508765 236.8872 
L 154.563149 236.8872 
L 154.671449 236.131945 
L 154.854139 236.131945 
L 154.886195 235.37669 
L 155.151225 235.37669 
L 155.203786 234.621434 
L 155.391799 234.621434 
L 155.412574 234.117931 
L 155.526427 234.117931 
L 155.526427 233.992055 
L 155.701037 233.992055 
L 155.772467 233.614428 
L 155.884169 233.614428 
L 155.934724 232.985048 
L 156.07556 232.985048 
L 156.07556 232.859172 
L 156.284856 232.859172 
L 156.284856 232.607421 
L 156.403417 232.607421 
L 156.511445 231.978041 
L 156.521235 231.978041 
L 156.521235 231.600414 
L 156.657763 231.600414 
L 156.75468 230.845159 
L 157.051988 230.845159 
L 157.127956 230.341655 
L 157.184731 230.341655 
L 157.203619 229.964028 
L 157.382107 229.964028 
L 157.484673 229.5864 
L 157.53111 229.5864 
L 157.53111 229.460524 
L 157.660526 229.460524 
L 157.69734 229.208772 
L 157.843876 229.208772 
L 157.843876 228.957021 
L 157.971166 228.957021 
L 157.971166 228.579393 
L 158.115593 228.579393 
L 158.178433 227.950014 
L 158.249994 227.950014 
L 158.294582 227.320634 
L 158.374574 227.320634 
L 158.480705 226.691255 
L 158.734741 226.691255 
L 158.821551 226.313628 
L 158.856162 226.313628 
L 158.873444 226.061876 
L 159.071056 226.061876 
L 159.071056 225.936 
L 159.291971 225.936 
L 159.393063 225.306621 
L 159.418251 225.306621 
L 159.418251 225.054869 
L 159.593632 225.054869 
L 159.676576 224.42549 
L 159.865969 224.42549 
L 159.955879 223.921986 
L 160.069692 223.921986 
L 160.102084 223.418483 
L 160.206974 223.418483 
L 160.271232 222.789103 
L 160.375185 222.789103 
L 160.470635 222.2856 
L 160.526092 222.2856 
L 160.597153 221.530345 
L 160.714996 221.530345 
L 160.722826 221.278593 
L 160.92527 221.278593 
L 160.979404 221.026841 
L 161.048777 221.026841 
L 161.048777 220.77509 
L 161.171478 220.77509 
L 161.23253 220.271586 
L 161.369176 220.271586 
L 161.422049 219.264579 
L 161.646981 219.264579 
L 161.691646 218.761076 
L 161.847145 218.761076 
L 161.942766 218.257572 
L 162.030602 218.257572 
L 162.132562 217.376441 
L 162.17609 217.376441 
L 162.241195 217.12469 
L 162.370732 217.12469 
L 162.478002 216.621186 
L 162.584664 216.621186 
L 162.605924 216.243559 
L 162.768124 216.243559 
L 162.79619 215.740055 
L 162.991492 215.740055 
L 163.074576 215.110676 
L 163.260183 215.110676 
L 163.260183 214.9848 
L 163.464289 214.9848 
L 163.498092 214.355421 
L 163.726358 214.355421 
L 163.82619 213.600166 
L 163.846093 213.600166 
L 163.925494 213.096662 
L 164.024277 213.096662 
L 164.037409 212.719034 
L 164.2268 212.719034 
L 164.2268 212.341407 
L 164.343401 212.341407 
L 164.356312 211.963779 
L 164.726932 211.963779 
L 164.726932 211.712028 
L 164.853058 211.712028 
L 164.865624 211.460276 
L 165.015767 211.460276 
L 165.1152 211.208524 
L 165.133786 211.208524 
L 165.133786 210.956772 
L 165.263372 210.956772 
L 165.263372 210.830897 
L 165.507761 210.830897 
L 165.592552 210.327393 
L 165.652884 210.327393 
L 165.713024 209.698014 
L 165.868492 209.698014 
L 165.939815 209.068634 
L 166.01087 209.068634 
L 166.075768 208.061628 
L 166.122826 208.061628 
L 166.228279 207.432248 
L 166.257466 207.432248 
L 166.257466 207.306372 
L 166.512385 207.306372 
L 166.512385 207.054621 
L 166.661411 207.054621 
L 166.689935 206.676993 
L 166.83191 206.676993 
L 166.83191 206.425241 
L 166.995269 206.425241 
L 167.073627 205.795862 
L 167.140533 205.795862 
L 167.190556 205.418234 
L 167.493397 205.418234 
L 167.493397 205.166483 
L 167.807563 205.166483 
L 167.807563 205.040607 
L 167.920031 205.040607 
L 167.930707 204.537103 
L 168.074246 204.537103 
L 168.142969 203.781848 
L 168.237711 203.781848 
L 168.279666 203.026593 
L 168.404973 203.026593 
L 168.477684 202.52309 
L 168.539786 202.52309 
L 168.637696 201.767834 
L 168.658244 201.767834 
L 168.750432 201.138455 
L 168.892945 201.138455 
L 168.994082 200.634952 
L 169.034386 200.634952 
L 169.119745 200.005572 
L 169.174771 200.005572 
L 169.174771 199.879697 
L 169.348792 199.879697 
L 169.368578 199.124441 
L 169.560409 199.124441 
L 169.584862 198.746814 
L 169.78902 198.746814 
L 169.851766 198.495062 
L 170.00533 198.495062 
L 170.048295 198.117434 
L 170.129185 198.117434 
L 170.18134 197.739807 
L 170.271088 197.739807 
L 170.294635 196.984552 
L 170.402572 196.984552 
L 170.402572 196.7328 
L 170.574922 196.7328 
L 170.676656 195.725793 
L 170.819081 195.725793 
L 170.924059 194.970538 
L 171.064631 194.970538 
L 171.145773 194.215283 
L 171.356011 194.215283 
L 171.440338 193.837655 
L 171.484569 193.837655 
L 171.484569 193.585903 
L 171.656084 193.585903 
L 171.656084 193.460028 
L 171.81737 193.460028 
L 171.873712 193.0824 
L 171.951446 193.0824 
L 172.02886 192.453021 
L 172.114503 192.453021 
L 172.114503 192.327145 
L 172.259208 192.327145 
L 172.293095 192.075393 
L 172.423834 192.075393 
L 172.461621 191.320138 
L 172.55367 191.320138 
L 172.562016 190.816634 
L 172.823033 190.816634 
L 172.88875 190.187255 
L 172.941977 190.187255 
L 173.003206 189.683752 
L 173.088593 189.683752 
L 173.088593 189.557876 
L 173.201843 189.557876 
L 173.213936 189.054372 
L 173.370449 189.054372 
L 173.370449 188.802621 
L 173.493935 188.802621 
L 173.525671 188.424993 
L 173.644207 188.424993 
L 173.644207 188.047366 
L 174.037874 188.047366 
L 174.037874 187.795614 
L 174.157069 187.795614 
L 174.241203 187.166234 
L 174.275513 187.166234 
L 174.275513 187.040359 
L 174.431028 187.040359 
L 174.431028 186.914483 
L 174.663783 186.914483 
L 174.753113 186.159228 
L 174.948896 186.159228 
L 174.948896 186.033352 
L 175.098964 186.033352 
L 175.208017 185.403972 
L 175.438571 185.403972 
L 175.506477 185.026345 
L 175.581246 185.026345 
L 175.602554 184.522841 
L 175.751039 184.522841 
L 175.83887 183.767586 
L 176.037604 183.767586 
L 176.144812 182.634703 
L 176.206783 182.634703 
L 176.223961 182.382952 
L 176.445858 182.382952 
L 176.533889 182.1312 
L 176.772205 182.1312 
L 176.77554 181.753572 
L 176.958065 181.753572 
L 176.981169 181.250069 
L 177.200883 181.250069 
L 177.200883 181.124193 
L 177.369655 181.124193 
L 177.369655 180.872441 
L 177.578514 180.872441 
L 177.629572 180.368938 
L 177.78824 180.368938 
L 177.882802 179.99131 
L 178.076737 179.99131 
L 178.076737 179.865434 
L 178.44956 179.865434 
L 178.498311 179.236055 
L 178.574231 179.236055 
L 178.574231 179.110179 
L 178.686034 179.110179 
L 178.686034 178.858428 
L 178.83906 178.858428 
L 178.859967 178.354924 
L 178.955245 178.354924 
L 178.955245 178.103172 
L 179.123774 178.103172 
L 179.147307 177.599669 
L 179.24407 177.599669 
L 179.24407 177.473793 
L 179.805909 177.473793 
L 179.859766 177.096166 
L 179.919112 177.096166 
L 179.919112 176.844414 
L 180.070865 176.844414 
L 180.12955 176.592662 
L 180.22973 176.592662 
L 180.32938 176.215034 
L 180.351453 176.215034 
L 180.43125 175.837407 
L 180.576218 175.837407 
L 180.676764 175.585655 
L 181.192694 175.585655 
L 181.192694 175.459779 
L 181.462351 175.459779 
L 181.483135 175.208028 
L 181.67173 175.208028 
L 181.761486 174.956276 
L 181.858453 174.956276 
L 181.932119 174.326897 
L 182.221437 174.326897 
L 182.246386 173.949269 
L 182.348332 173.949269 
L 182.402808 173.445766 
L 182.52112 173.445766 
L 182.599583 173.194014 
L 182.757962 173.194014 
L 182.757962 173.068138 
L 183.203936 173.068138 
L 183.203936 172.942262 
L 183.791772 172.942262 
L 183.871982 172.564634 
L 184.087987 172.564634 
L 184.164695 172.312883 
L 184.31718 172.312883 
L 184.31718 172.061131 
L 184.554643 172.061131 
L 184.554643 171.935255 
L 185.091625 171.935255 
L 185.091625 171.809379 
L 185.37032 171.809379 
L 185.37032 171.683503 
L 185.736294 171.683503 
L 185.736294 171.557628 
L 185.999541 171.557628 
L 186.032189 171.054124 
L 186.881245 171.054124 
L 186.881245 170.928248 
L 187.157876 170.928248 
L 187.157876 170.802372 
L 189.660685 170.802372 
L 189.660685 170.676497 
L 190.756179 170.676497 
L 190.767278 170.298869 
L 190.926692 170.298869 
L 190.926692 170.172993 
L 191.165637 170.172993 
L 191.165637 169.921241 
L 191.304787 169.921241 
L 191.377048 169.543614 
L 192.136439 169.543614 
L 192.136439 169.417738 
L 192.993524 169.417738 
L 192.993524 169.165986 
L 194.04238 169.165986 
L 194.04238 169.04011 
L 194.193595 169.04011 
L 194.193595 168.914234 
L 194.655555 168.914234 
L 194.655555 168.788359 
L 194.80066 168.788359 
L 194.80066 168.662483 
L 195.004223 168.662483 
L 195.004223 168.536607 
L 195.368899 168.536607 
L 195.368899 168.410731 
L 195.806839 168.410731 
L 195.88066 168.158979 
L 196.503136 168.158979 
L 196.55681 167.907228 
L 196.70305 167.907228 
L 196.70305 167.781352 
L 197.369749 167.781352 
L 197.369749 167.5296 
L 197.580581 167.5296 
L 197.676337 167.151972 
L 197.6917 167.151972 
L 197.6917 167.026097 
L 198.254701 167.026097 
L 198.254701 166.900221 
L 198.377791 166.900221 
L 198.406326 166.522593 
L 198.68412 166.522593 
L 198.68412 166.396717 
L 198.899325 166.396717 
L 198.984517 166.01909 
L 199.075441 166.01909 
L 199.075441 165.893214 
L 199.648558 165.893214 
L 199.648558 165.767338 
L 201.162725 165.767338 
L 201.207366 165.515586 
L 201.402897 165.515586 
L 201.402897 165.38971 
L 201.554477 165.38971 
L 201.554477 165.263834 
L 201.800314 165.263834 
L 201.817059 165.012083 
L 202.224885 165.012083 
L 202.224885 164.886207 
L 202.405049 164.886207 
L 202.405049 164.760331 
L 203.121264 164.760331 
L 203.121264 164.634455 
L 203.965081 164.634455 
L 203.965081 164.508579 
L 204.228849 164.508579 
L 204.228849 164.256828 
L 204.430028 164.256828 
L 204.430028 164.130952 
L 204.575899 164.130952 
L 204.575899 163.8792 
L 204.896479 163.8792 
L 204.896479 163.753324 
L 205.32315 163.753324 
L 205.393209 163.375697 
L 205.610477 163.375697 
L 205.66225 162.998069 
L 205.860825 162.998069 
L 205.8729 162.746317 
L 205.988995 162.746317 
L 205.988995 162.494566 
L 206.12891 162.494566 
L 206.12891 162.36869 
L 206.241352 162.36869 
L 206.260143 161.991062 
L 206.529496 161.991062 
L 206.529496 161.73931 
L 206.713058 161.73931 
L 206.803158 160.984055 
L 207.037554 160.984055 
L 207.037554 160.858179 
L 207.4606 160.858179 
L 207.463863 160.606428 
L 208.223486 160.606428 
L 208.223486 160.354676 
L 208.538557 160.354676 
L 208.638129 159.851172 
L 208.898686 159.851172 
L 208.948196 159.599421 
L 209.10851 159.599421 
L 209.10851 159.347669 
L 209.305373 159.347669 
L 209.305373 159.221793 
L 209.737021 159.221793 
L 209.737021 159.095917 
L 210.447382 159.095917 
L 210.447382 158.970041 
L 210.783455 158.970041 
L 210.839706 158.71829 
L 211.153892 158.71829 
L 211.153892 158.592414 
L 211.688403 158.592414 
L 211.69153 158.214786 
L 211.98884 158.214786 
L 211.98884 158.08891 
L 212.137024 158.08891 
L 212.189375 157.711283 
L 212.663002 157.711283 
L 212.663002 157.585407 
L 212.994153 157.585407 
L 212.994153 157.333655 
L 213.145752 157.333655 
L 213.194892 156.956028 
L 213.509793 156.956028 
L 213.509793 156.830152 
L 213.649797 156.830152 
L 213.723387 156.5784 
L 213.810664 156.5784 
L 213.810664 156.326648 
L 213.954463 156.326648 
L 213.955849 156.074897 
L 214.182279 156.074897 
L 214.182279 155.949021 
L 214.997095 155.949021 
L 214.997095 155.823145 
L 215.419874 155.823145 
L 215.419874 155.697269 
L 215.770109 155.697269 
L 215.770109 155.571393 
L 217.242434 155.571393 
L 217.242434 155.445517 
L 217.388527 155.445517 
L 217.388527 155.319641 
L 217.674699 155.319641 
L 217.680007 154.942014 
L 217.999492 154.942014 
L 218.054198 154.564386 
L 218.238722 154.564386 
L 218.238722 154.43851 
L 218.510164 154.43851 
L 218.582566 154.060883 
L 218.85803 154.060883 
L 218.85803 153.935007 
L 219.122498 153.935007 
L 219.122498 153.809131 
L 219.344478 153.809131 
L 219.344478 153.683255 
L 219.520952 153.683255 
L 219.588203 153.305628 
L 219.660675 153.305628 
L 219.660675 153.053876 
L 219.885535 153.053876 
L 219.885535 152.928 
L 220.407202 152.928 
L 220.507604 152.676248 
L 220.668693 152.676248 
L 220.721332 152.172745 
L 220.871013 152.172745 
L 220.871013 152.046869 
L 220.982656 152.046869 
L 221.090479 151.795117 
L 221.143529 151.795117 
L 221.143529 151.669241 
L 221.606674 151.669241 
L 221.606674 151.543366 
L 221.795549 151.543366 
L 221.795549 151.41749 
L 222.023215 151.41749 
L 222.023215 151.291614 
L 222.275791 151.291614 
L 222.275791 151.165738 
L 222.468974 151.165738 
L 222.468974 150.913986 
L 222.707551 150.913986 
L 222.809703 150.536359 
L 222.82557 150.536359 
L 222.82557 150.410483 
L 223.019781 150.410483 
L 223.020352 150.032855 
L 223.221329 150.032855 
L 223.221329 149.906979 
L 223.488227 149.906979 
L 223.498524 149.403476 
L 224.008218 149.403476 
L 224.008218 149.2776 
L 224.442121 149.2776 
L 224.502092 149.025848 
L 225.443786 149.025848 
L 225.443786 148.899972 
L 225.739754 148.899972 
L 225.739754 148.774097 
L 226.941348 148.774097 
L 226.941348 148.648221 
L 227.202497 148.648221 
L 227.202497 148.522345 
L 227.414261 148.522345 
L 227.514761 148.144717 
L 227.599744 148.144717 
L 227.599744 147.892966 
L 227.765241 147.892966 
L 227.765241 147.76709 
L 228.747503 147.76709 
L 228.807185 147.515338 
L 229.232461 147.515338 
L 229.323113 147.263586 
L 229.401136 147.263586 
L 229.401136 147.13771 
L 229.546133 147.13771 
L 229.583216 146.885959 
L 229.694026 146.885959 
L 229.694026 146.760083 
L 230.129483 146.760083 
L 230.129483 146.634207 
L 230.427894 146.634207 
L 230.427894 146.382455 
L 230.726383 146.382455 
L 230.726383 146.130703 
L 230.870579 146.130703 
L 230.870579 146.004828 
L 231.031397 146.004828 
L 231.031397 145.878952 
L 231.198983 145.878952 
L 231.198983 145.753076 
L 231.454797 145.753076 
L 231.454797 145.6272 
L 231.643949 145.6272 
L 231.643949 145.501324 
L 231.880462 145.501324 
L 231.896137 145.249572 
L 232.36838 145.249572 
L 232.36838 145.123697 
L 233.425378 145.123697 
L 233.425378 144.997821 
L 234.254618 144.997821 
L 234.280359 144.746069 
L 234.767595 144.746069 
L 234.767595 144.620193 
L 235.321644 144.620193 
L 235.321644 144.494317 
L 235.860995 144.494317 
L 235.95708 144.11669 
L 235.982314 144.11669 
L 235.982314 143.864938 
L 236.122065 143.864938 
L 236.122065 143.739062 
L 236.41572 143.739062 
L 236.433074 143.361434 
L 237.099447 143.361434 
L 237.099447 143.109683 
L 237.428298 143.109683 
L 237.428298 142.857931 
L 237.576842 142.857931 
L 237.576842 142.606179 
L 237.91757 142.606179 
L 237.993687 142.354428 
L 238.295872 142.354428 
L 238.295872 142.102676 
L 238.847094 142.102676 
L 238.847094 141.850924 
L 239.078458 141.850924 
L 239.078458 141.725048 
L 240.524022 141.725048 
L 240.569212 141.221545 
L 240.799314 141.221545 
L 240.799314 141.095669 
L 241.107223 141.095669 
L 241.107223 140.969793 
L 241.345749 140.969793 
L 241.404696 140.718041 
L 241.767619 140.718041 
L 241.767619 140.592166 
L 242.037159 140.592166 
L 242.119745 140.214538 
L 242.500693 140.214538 
L 242.500693 140.088662 
L 242.840973 140.088662 
L 242.840973 139.962786 
L 243.121857 139.962786 
L 243.121857 139.83691 
L 243.726392 139.83691 
L 243.726392 139.711034 
L 243.870982 139.711034 
L 243.870982 139.585159 
L 245.145292 139.585159 
L 245.145292 139.459283 
L 245.61356 139.459283 
L 245.614419 139.207531 
L 245.790048 139.207531 
L 245.790048 139.081655 
L 246.36647 139.081655 
L 246.36647 138.955779 
L 247.398185 138.955779 
L 247.398185 138.829903 
L 247.818916 138.829903 
L 247.818916 138.578152 
L 248.726829 138.578152 
L 248.726829 138.3264 
L 249.16515 138.3264 
L 249.16515 138.200524 
L 250.041359 138.200524 
L 250.041359 138.074648 
L 251.961541 138.074648 
L 252.032059 137.822897 
L 253.044298 137.822897 
L 253.044298 137.697021 
L 253.733551 137.697021 
L 253.733551 137.571145 
L 254.081747 137.571145 
L 254.081747 137.445269 
L 255.339711 137.445269 
L 255.339711 137.319393 
L 256.048155 137.319393 
L 256.048155 137.193517 
L 256.450095 137.193517 
L 256.541485 136.81589 
L 256.741581 136.81589 
L 256.741581 136.690014 
L 257.789843 136.690014 
L 257.789843 136.438262 
L 258.123229 136.438262 
L 258.123229 136.312386 
L 258.436525 136.312386 
L 258.436525 136.18651 
L 259.423703 136.18651 
L 259.47609 135.683007 
L 259.803308 135.683007 
L 259.803308 135.557131 
L 260.279766 135.557131 
L 260.279766 135.431255 
L 260.758893 135.431255 
L 260.758893 135.179503 
L 261.699045 135.179503 
L 261.699045 135.053628 
L 262.005024 135.053628 
L 262.005024 134.927752 
L 263.602463 134.927752 
L 263.602463 134.801876 
L 264.578957 134.801876 
L 264.578957 134.676 
L 265.988363 134.676 
L 265.988363 134.550124 
L 268.15195 134.550124 
L 268.15195 134.424248 
L 269.007203 134.424248 
L 269.007203 134.298372 
L 269.224771 134.298372 
L 269.224771 134.046621 
L 271.496643 134.046621 
L 271.496643 133.794869 
L 272.301301 133.794869 
L 272.301301 133.668993 
L 272.631228 133.668993 
L 272.631228 133.417241 
L 273.144998 133.417241 
L 273.171349 133.039614 
L 273.626505 133.039614 
L 273.626505 132.913738 
L 360.8064 132.913738 
L 360.8064 132.913738 
" style="fill: none; stroke: #ff00ff; stroke-width: 1.5; stroke-linecap: square"/>
   </g>
   <g id="line2d_41">
    <defs>
     <path id="m7f08a2cc25" d="M 0 8.485281 
L 5.091169 0 
L 0 -8.485281 
L -5.091169 0 
z
" style="stroke: #ff00ff; stroke-width: 1.5; stroke-linejoin: miter"/>
    </defs>
    <g>
     <use xlink:href="#m7f08a2cc25" x="104.961779" y="276.538097" style="fill-opacity: 0; stroke: #ff00ff; stroke-width: 1.5; stroke-linejoin: miter"/>
     <use xlink:href="#m7f08a2cc25" x="171.145773" y="194.467034" style="fill-opacity: 0; stroke: #ff00ff; stroke-width: 1.5; stroke-linejoin: miter"/>
     <use xlink:href="#m7f08a2cc25" x="227.765241" y="147.76709" style="fill-opacity: 0; stroke: #ff00ff; stroke-width: 1.5; stroke-linejoin: miter"/>
     <use xlink:href="#m7f08a2cc25" x="273.626505" y="132.913738" style="fill-opacity: 0; stroke: #ff00ff; stroke-width: 1.5; stroke-linejoin: miter"/>
     <use xlink:href="#m7f08a2cc25" x="273.626505" y="132.913738" style="fill-opacity: 0; stroke: #ff00ff; stroke-width: 1.5; stroke-linejoin: miter"/>
     <use xlink:href="#m7f08a2cc25" x="360.8064" y="132.913738" style="fill-opacity: 0; stroke: #ff00ff; stroke-width: 1.5; stroke-linejoin: miter"/>
    </g>
   </g>
   <g id="line2d_42">
    <path style="fill: none; stroke: #ff00ff; stroke-width: 1.5; stroke-linecap: square"/>
    <g/>
   </g>
   <g id="line2d_43">
    <path d="M 274.176019 132.913738 
" clip-path="url(#p8cde2e8ca4)" style="fill: none; stroke: #ff00ff; stroke-width: 1.5; stroke-linecap: square"/>
    <defs>
     <path id="mae57a3229c" d="M -12 12 
L 12 -12 
M -12 -12 
L 12 12 
" style="stroke: #ff00ff"/>
    </defs>
    <g clip-path="url(#p8cde2e8ca4)">
     <use xlink:href="#mae57a3229c" x="274.176019" y="132.913738" style="fill: #ff00ff; stroke: #ff00ff"/>
    </g>
   </g>
   <g id="line2d_44">
    <defs>
     <path id="m3e9a27ce42" d="M 0 1.5 
C 0.397805 1.5 0.77937 1.341951 1.06066 1.06066 
C 1.341951 0.77937 1.5 0.397805 1.5 0 
C 1.5 -0.397805 1.341951 -0.77937 1.06066 -1.06066 
C 0.77937 -1.341951 0.397805 -1.5 0 -1.5 
C -0.397805 -1.5 -0.77937 -1.341951 -1.06066 -1.06066 
C -1.341951 -0.77937 -1.5 -0.397805 -1.5 0 
C -1.5 0.397805 -1.341951 0.77937 -1.06066 1.06066 
C -0.77937 1.341951 -0.397805 1.5 0 1.5 
z
" style="stroke: #6495ed"/>
    </defs>
    <g>
     <use xlink:href="#m3e9a27ce42" x="113.765312" y="228.831145" style="fill: #6495ed; stroke: #6495ed"/>
     <use xlink:href="#m3e9a27ce42" x="113.765312" y="228.831145" style="fill: #6495ed; stroke: #6495ed"/>
    </g>
   </g>
   <g id="line2d_45">
    <path d="M 14.2848 298.944 
L 14.2848 297.181738 
L 27.323974 297.181738 
L 27.323974 293.908966 
L 34.951403 293.908966 
L 34.951403 291.517324 
L 40.363149 291.517324 
L 40.363149 291.139697 
L 44.560826 291.139697 
L 44.560826 290.887945 
L 47.990577 290.887945 
L 47.990577 290.510317 
L 50.890391 290.510317 
L 50.890391 290.13269 
L 53.402323 290.13269 
L 53.402323 290.006814 
L 55.618005 290.006814 
L 55.618005 288.999807 
L 57.6 288.999807 
L 57.6 288.873931 
L 61.029752 288.873931 
L 61.029752 288.244552 
L 62.535479 288.244552 
L 62.535479 287.9928 
L 63.929565 287.9928 
L 63.929565 287.866924 
L 65.227428 287.866924 
L 65.227428 287.363421 
L 66.441498 287.363421 
L 66.441498 286.859917 
L 67.581941 286.859917 
L 67.581941 286.608166 
L 69.674268 286.608166 
L 69.674268 286.48229 
L 70.639174 286.48229 
L 70.639174 286.356414 
L 71.556993 286.356414 
L 71.556993 285.978786 
L 72.432107 285.978786 
L 72.432107 285.727034 
L 73.268314 285.727034 
L 73.268314 285.475283 
L 74.068926 285.475283 
L 74.068926 285.349407 
L 75.574654 285.349407 
L 75.574654 285.223531 
L 77.628862 285.223531 
L 77.628862 284.3424 
L 78.88343 284.3424 
L 78.88343 284.090648 
L 80.621116 284.090648 
L 80.621116 283.964772 
L 81.166416 283.964772 
L 81.166416 283.587145 
L 81.696354 283.587145 
L 81.696354 283.461269 
L 82.211771 283.461269 
L 82.211771 283.335393 
L 83.202082 283.335393 
L 83.202082 283.209517 
L 83.678349 283.209517 
L 83.678349 282.957766 
L 84.142855 282.957766 
L 84.142855 282.706014 
L 85.038813 282.706014 
L 85.038813 282.454262 
L 85.471281 282.454262 
L 85.471281 282.20251 
L 87.1081 282.20251 
L 87.1081 282.076634 
L 87.495981 282.076634 
L 87.495981 281.950759 
L 87.876026 281.950759 
L 87.876026 281.447255 
L 88.613828 281.447255 
L 88.613828 281.069628 
L 88.972154 281.069628 
L 88.972154 280.943752 
L 89.668958 280.943752 
L 89.668958 280.692 
L 90.668036 280.692 
L 90.668036 280.566124 
L 90.989609 280.566124 
L 90.989609 280.314372 
L 91.616719 280.314372 
L 91.616719 280.188497 
L 92.223596 280.188497 
L 92.223596 280.062621 
L 93.934916 280.062621 
L 93.934916 279.936745 
L 94.735529 279.936745 
L 94.735529 279.307366 
L 95.503454 279.307366 
L 95.503454 279.18149 
L 95.998523 279.18149 
L 95.998523 278.803862 
L 96.717523 278.803862 
L 96.717523 278.677986 
L 97.635342 278.677986 
L 97.635342 278.426234 
L 98.077987 278.426234 
L 98.077987 278.300359 
L 99.14107 278.300359 
L 99.14107 278.174483 
L 99.751228 278.174483 
L 99.751228 277.922731 
L 100.147275 277.922731 
L 100.147275 277.796855 
L 100.535156 277.796855 
L 100.535156 277.670979 
L 100.726138 277.670979 
L 100.726138 277.419228 
L 102.708132 277.419228 
L 102.708132 277.0416 
L 102.878374 277.0416 
L 102.878374 275.908717 
L 103.047088 275.908717 
L 103.047088 274.524083 
L 103.214303 274.524083 
L 103.214303 273.642952 
L 103.380045 273.642952 
L 103.380045 273.013572 
L 103.544339 273.013572 
L 103.544339 272.258317 
L 103.707211 272.258317 
L 103.707211 270.496055 
L 103.868684 270.496055 
L 103.868684 269.7408 
L 104.028784 269.7408 
L 104.028784 267.726786 
L 104.187532 267.726786 
L 104.187532 267.349159 
L 104.344952 267.349159 
L 104.344952 265.712772 
L 104.501065 265.712772 
L 104.501065 264.57989 
L 104.655893 264.57989 
L 104.655893 263.195255 
L 104.809458 263.195255 
L 104.809458 262.565876 
L 104.961779 262.565876 
L 104.961779 261.810621 
L 105.112877 261.810621 
L 105.112877 261.055366 
L 105.26277 261.055366 
L 105.26277 260.048359 
L 105.411479 260.048359 
L 105.411479 258.915476 
L 105.559021 258.915476 
L 105.559021 258.411972 
L 105.705415 258.411972 
L 105.705415 258.034345 
L 105.850679 258.034345 
L 105.850679 257.530841 
L 105.99483 257.530841 
L 105.99483 256.901462 
L 106.137884 256.901462 
L 106.137884 255.516828 
L 106.279859 255.516828 
L 106.279859 255.265076 
L 106.42077 255.265076 
L 106.42077 254.887448 
L 106.560633 254.887448 
L 106.560633 254.509821 
L 106.699465 254.509821 
L 106.699465 253.880441 
L 106.837279 253.880441 
L 106.837279 253.376938 
L 106.974091 253.376938 
L 106.974091 252.99931 
L 107.109915 252.99931 
L 107.109915 251.866428 
L 107.244765 251.866428 
L 107.244765 250.985297 
L 107.378656 250.985297 
L 107.378656 250.355917 
L 107.5116 250.355917 
L 107.5116 250.230041 
L 107.643612 250.230041 
L 107.643612 249.852414 
L 107.774703 249.852414 
L 107.774703 248.467779 
L 107.904887 248.467779 
L 107.904887 248.216028 
L 108.034177 248.216028 
L 108.034177 247.334897 
L 108.162584 247.334897 
L 108.162584 247.083145 
L 108.416798 247.083145 
L 108.416798 243.936248 
L 108.667622 243.936248 
L 108.667622 243.306869 
L 108.791791 243.306869 
L 108.791791 243.180993 
L 108.915146 243.180993 
L 108.915146 243.055117 
L 109.037698 243.055117 
L 109.037698 242.929241 
L 109.159456 242.929241 
L 109.159456 242.425738 
L 109.400633 242.425738 
L 109.400633 242.04811 
L 109.520071 242.04811 
L 109.520071 241.670483 
L 109.638757 241.670483 
L 109.638757 241.544607 
L 109.756698 241.544607 
L 109.756698 241.041103 
L 109.990385 241.041103 
L 109.990385 240.411724 
L 110.106149 240.411724 
L 110.106149 239.656469 
L 110.221204 239.656469 
L 110.221204 239.02709 
L 110.335561 239.02709 
L 110.335561 238.523586 
L 110.449226 238.523586 
L 110.449226 238.271834 
L 110.674517 238.271834 
L 110.674517 237.138952 
L 110.786158 237.138952 
L 110.897141 235.754317 
L 111.117162 235.754317 
L 111.226215 234.873186 
L 111.334639 234.873186 
L 111.442442 233.866179 
L 111.54963 233.866179 
L 111.54963 233.2368 
L 111.97238 233.2368 
L 111.97238 232.985048 
L 112.487797 232.985048 
L 112.487797 232.733297 
L 112.690074 232.733297 
L 112.790402 231.978041 
L 112.890198 231.978041 
L 112.989468 230.971034 
L 113.088217 230.971034 
L 113.088217 230.845159 
L 113.478107 230.845159 
L 113.57433 229.460524 
L 113.670063 229.460524 
L 113.765312 228.831145 
L 360.8064 228.831145 
L 360.8064 228.831145 
" style="fill: none; stroke: #6495ed; stroke-width: 1.5; stroke-linecap: square"/>
   </g>
   <g id="line2d_46">
    <defs>
     <path id="m0f887ef410" d="M -0 6 
L 6 -6 
L -6 -6 
z
" style="stroke: #6495ed; stroke-width: 1.5; stroke-linejoin: miter"/>
    </defs>
    <g>
     <use xlink:href="#m0f887ef410" x="113.765312" y="229.208772" style="fill-opacity: 0; stroke: #6495ed; stroke-width: 1.5; stroke-linejoin: miter"/>
     <use xlink:href="#m0f887ef410" x="113.765312" y="229.208772" style="fill-opacity: 0; stroke: #6495ed; stroke-width: 1.5; stroke-linejoin: miter"/>
     <use xlink:href="#m0f887ef410" x="113.765312" y="228.831145" style="fill-opacity: 0; stroke: #6495ed; stroke-width: 1.5; stroke-linejoin: miter"/>
     <use xlink:href="#m0f887ef410" x="113.765312" y="228.831145" style="fill-opacity: 0; stroke: #6495ed; stroke-width: 1.5; stroke-linejoin: miter"/>
     <use xlink:href="#m0f887ef410" x="360.8064" y="228.831145" style="fill-opacity: 0; stroke: #6495ed; stroke-width: 1.5; stroke-linejoin: miter"/>
    </g>
   </g>
   <g id="line2d_47">
    <path style="fill: none; stroke: #6495ed; stroke-width: 1.5; stroke-linecap: square"/>
    <g/>
   </g>
   <g id="line2d_48">
    <path d="M 113.954374 228.831145 
" clip-path="url(#p8cde2e8ca4)" style="fill: none; stroke: #6495ed; stroke-width: 1.5; stroke-linecap: square"/>
    <defs>
     <path id="m4a448882c0" d="M -12 12 
L 12 -12 
M -12 -12 
L 12 12 
" style="stroke: #6495ed"/>
    </defs>
    <g clip-path="url(#p8cde2e8ca4)">
     <use xlink:href="#m4a448882c0" x="113.954374" y="228.831145" style="fill: #6495ed; stroke: #6495ed"/>
    </g>
   </g>
   <g id="line2d_49">
    <path d="M 360.8064 275.782841 
L 380.514816 293.10336 
" style="fill: none; stroke: #000080; stroke-width: 1.5; stroke-linecap: square"/>
    <g>
     <use xlink:href="#mecf4daaab5" x="360.8064" y="275.782841" style="fill-opacity: 0; stroke: #000080; stroke-width: 1.5"/>
     <use xlink:href="#mecf4daaab5" x="380.514816" y="293.10336" style="fill-opacity: 0; stroke: #000080; stroke-width: 1.5"/>
    </g>
   </g>
   <g id="line2d_50">
    <path d="M 360.8064 228.831145 
L 380.514816 199.65312 
" style="fill: none; stroke: #6495ed; stroke-width: 1.5; stroke-linecap: square"/>
    <g>
     <use xlink:href="#m0f887ef410" x="360.8064" y="228.831145" style="fill-opacity: 0; stroke: #6495ed; stroke-width: 1.5; stroke-linejoin: miter"/>
     <use xlink:href="#m0f887ef410" x="380.514816" y="199.65312" style="fill-opacity: 0; stroke: #6495ed; stroke-width: 1.5; stroke-linejoin: miter"/>
    </g>
   </g>
   <g id="line2d_51">
    <path d="M 360.8064 132.913738 
L 380.514816 106.20288 
" style="fill: none; stroke: #ff00ff; stroke-width: 1.5; stroke-linecap: square"/>
    <g>
     <use xlink:href="#m7f08a2cc25" x="360.8064" y="132.913738" style="fill-opacity: 0; stroke: #ff00ff; stroke-width: 1.5; stroke-linejoin: miter"/>
     <use xlink:href="#m7f08a2cc25" x="380.514816" y="106.20288" style="fill-opacity: 0; stroke: #ff00ff; stroke-width: 1.5; stroke-linejoin: miter"/>
    </g>
   </g>
   <g id="line2d_52">
    <path d="M 360.8064 298.944 
L 360.8064 6.912 
" style="fill: none; stroke: #000000; stroke-width: 1.5; stroke-linecap: square"/>
   </g>
   <g id="patch_3">
    <path d="M 57.6 298.944 
L 360.8064 298.944 
" style="fill: none; stroke: #000000; stroke-width: 0.8; stroke-linejoin: miter; stroke-linecap: square"/>
   </g>
   <g id="patch_4">
    <path d="M 57.6 6.912 
L 360.8064 6.912 
" style="fill: none; stroke: #000000; stroke-width: 0.8; stroke-linejoin: miter; stroke-linecap: square"/>
   </g>
   <g id="text_13">
    <!-- cma -->
    <g transform="translate(386.578944 296.966485)scale(0.14 -0.14)">
     <use xlink:href="#DejaVuSans-63"/>
     <use xlink:href="#DejaVuSans-6d" x="54.980469"/>
     <use xlink:href="#DejaVuSans-61" x="152.392578"/>
    </g>
   </g>
   <g id="text_14">
    <!-- parEgo -->
    <g transform="translate(386.578944 203.516245)scale(0.14 -0.14)">
     <defs>
      <path id="DejaVuSans-45" d="M 628 4666 
L 3578 4666 
L 3578 4134 
L 1259 4134 
L 1259 2753 
L 3481 2753 
L 3481 2222 
L 1259 2222 
L 1259 531 
L 3634 531 
L 3634 0 
L 628 0 
L 628 4666 
z
" transform="scale(0.015625)"/>
     </defs>
     <use xlink:href="#DejaVuSans-70"/>
     <use xlink:href="#DejaVuSans-61" x="63.476562"/>
     <use xlink:href="#DejaVuSans-72" x="124.755859"/>
     <use xlink:href="#DejaVuSans-45" x="165.869141"/>
     <use xlink:href="#DejaVuSans-67" x="229.052734"/>
     <use xlink:href="#DejaVuSans-6f" x="292.529297"/>
    </g>
   </g>
   <g id="text_15">
    <!-- external- -->
    <g transform="translate(386.578944 110.066005)scale(0.14 -0.14)">
     <defs>
      <path id="DejaVuSans-78" d="M 3513 3500 
L 2247 1797 
L 3578 0 
L 2900 0 
L 1881 1375 
L 863 0 
L 184 0 
L 1544 1831 
L 300 3500 
L 978 3500 
L 1906 2253 
L 2834 3500 
L 3513 3500 
z
" transform="scale(0.015625)"/>
     </defs>
     <use xlink:href="#DejaVuSans-65"/>
     <use xlink:href="#DejaVuSans-78" x="59.773438"/>
     <use xlink:href="#DejaVuSans-74" x="118.953125"/>
     <use xlink:href="#DejaVuSans-65" x="158.162109"/>
     <use xlink:href="#DejaVuSans-72" x="219.685547"/>
     <use xlink:href="#DejaVuSans-6e" x="259.048828"/>
     <use xlink:href="#DejaVuSans-61" x="322.427734"/>
     <use xlink:href="#DejaVuSans-6c" x="383.707031"/>
     <use xlink:href="#DejaVuSans-2d" x="411.490234"/>
    </g>
   </g>
   <g id="text_16">
    <!-- best 2016 -->
    <g transform="translate(386.578944 16.615765)scale(0.14 -0.14)">
     <defs>
      <path id="DejaVuSans-62" d="M 3116 1747 
Q 3116 2381 2855 2742 
Q 2594 3103 2138 3103 
Q 1681 3103 1420 2742 
Q 1159 2381 1159 1747 
Q 1159 1113 1420 752 
Q 1681 391 2138 391 
Q 2594 391 2855 752 
Q 3116 1113 3116 1747 
z
M 1159 2969 
Q 1341 3281 1617 3432 
Q 1894 3584 2278 3584 
Q 2916 3584 3314 3078 
Q 3713 2572 3713 1747 
Q 3713 922 3314 415 
Q 2916 -91 2278 -91 
Q 1894 -91 1617 61 
Q 1341 213 1159 525 
L 1159 0 
L 581 0 
L 581 4863 
L 1159 4863 
L 1159 2969 
z
" transform="scale(0.015625)"/>
     </defs>
     <use xlink:href="#DejaVuSans-62"/>
     <use xlink:href="#DejaVuSans-65" x="63.476562"/>
     <use xlink:href="#DejaVuSans-73" x="125"/>
     <use xlink:href="#DejaVuSans-74" x="177.099609"/>
     <use xlink:href="#DejaVuSans-20" x="216.308594"/>
     <use xlink:href="#DejaVuSans-32" x="248.095703"/>
     <use xlink:href="#DejaVuSans-30" x="311.71875"/>
     <use xlink:href="#DejaVuSans-31" x="375.341797"/>
     <use xlink:href="#DejaVuSans-36" x="438.964844"/>
    </g>
   </g>
   <g id="text_17">
    <!-- bbob-biobj f3, f4, f12, f13, 10-D -->
    <g transform="translate(60.632064 17.582726)scale(0.102 -0.102)">
     <defs>
      <path id="DejaVuSans-6a" d="M 603 3500 
L 1178 3500 
L 1178 -63 
Q 1178 -731 923 -1031 
Q 669 -1331 103 -1331 
L -116 -1331 
L -116 -844 
L 38 -844 
Q 366 -844 484 -692 
Q 603 -541 603 -63 
L 603 3500 
z
M 603 4863 
L 1178 4863 
L 1178 4134 
L 603 4134 
L 603 4863 
z
" transform="scale(0.015625)"/>
      <path id="DejaVuSans-33" d="M 2597 2516 
Q 3050 2419 3304 2112 
Q 3559 1806 3559 1356 
Q 3559 666 3084 287 
Q 2609 -91 1734 -91 
Q 1441 -91 1130 -33 
Q 819 25 488 141 
L 488 750 
Q 750 597 1062 519 
Q 1375 441 1716 441 
Q 2309 441 2620 675 
Q 2931 909 2931 1356 
Q 2931 1769 2642 2001 
Q 2353 2234 1838 2234 
L 1294 2234 
L 1294 2753 
L 1863 2753 
Q 2328 2753 2575 2939 
Q 2822 3125 2822 3475 
Q 2822 3834 2567 4026 
Q 2313 4219 1838 4219 
Q 1578 4219 1281 4162 
Q 984 4106 628 3988 
L 628 4550 
Q 988 4650 1302 4700 
Q 1616 4750 1894 4750 
Q 2613 4750 3031 4423 
Q 3450 4097 3450 3541 
Q 3450 3153 3228 2886 
Q 3006 2619 2597 2516 
z
" transform="scale(0.015625)"/>
      <path id="DejaVuSans-44" d="M 1259 4147 
L 1259 519 
L 2022 519 
Q 2988 519 3436 956 
Q 3884 1394 3884 2338 
Q 3884 3275 3436 3711 
Q 2988 4147 2022 4147 
L 1259 4147 
z
M 628 4666 
L 1925 4666 
Q 3281 4666 3915 4102 
Q 4550 3538 4550 2338 
Q 4550 1131 3912 565 
Q 3275 0 1925 0 
L 628 0 
L 628 4666 
z
" transform="scale(0.015625)"/>
     </defs>
     <use xlink:href="#DejaVuSans-62"/>
     <use xlink:href="#DejaVuSans-62" x="63.476562"/>
     <use xlink:href="#DejaVuSans-6f" x="126.953125"/>
     <use xlink:href="#DejaVuSans-62" x="188.134766"/>
     <use xlink:href="#DejaVuSans-2d" x="251.611328"/>
     <use xlink:href="#DejaVuSans-62" x="287.695312"/>
     <use xlink:href="#DejaVuSans-69" x="351.171875"/>
     <use xlink:href="#DejaVuSans-6f" x="378.955078"/>
     <use xlink:href="#DejaVuSans-62" x="440.136719"/>
     <use xlink:href="#DejaVuSans-6a" x="503.613281"/>
     <use xlink:href="#DejaVuSans-20" x="531.396484"/>
     <use xlink:href="#DejaVuSans-66" x="563.183594"/>
     <use xlink:href="#DejaVuSans-33" x="598.388672"/>
     <use xlink:href="#DejaVuSans-2c" x="662.011719"/>
     <use xlink:href="#DejaVuSans-20" x="693.798828"/>
     <use xlink:href="#DejaVuSans-66" x="725.585938"/>
     <use xlink:href="#DejaVuSans-34" x="760.791016"/>
     <use xlink:href="#DejaVuSans-2c" x="824.414062"/>
     <use xlink:href="#DejaVuSans-20" x="856.201172"/>
     <use xlink:href="#DejaVuSans-66" x="887.988281"/>
     <use xlink:href="#DejaVuSans-31" x="923.193359"/>
     <use xlink:href="#DejaVuSans-32" x="986.816406"/>
     <use xlink:href="#DejaVuSans-2c" x="1050.439453"/>
     <use xlink:href="#DejaVuSans-20" x="1082.226562"/>
     <use xlink:href="#DejaVuSans-66" x="1114.013672"/>
     <use xlink:href="#DejaVuSans-31" x="1149.21875"/>
     <use xlink:href="#DejaVuSans-33" x="1212.841797"/>
     <use xlink:href="#DejaVuSans-2c" x="1276.464844"/>
     <use xlink:href="#DejaVuSans-20" x="1308.251953"/>
     <use xlink:href="#DejaVuSans-31" x="1340.039062"/>
     <use xlink:href="#DejaVuSans-30" x="1403.662109"/>
     <use xlink:href="#DejaVuSans-2d" x="1467.285156"/>
     <use xlink:href="#DejaVuSans-44" x="1503.369141"/>
    </g>
    <!-- 58 targets: 1..-1.0e-4 -->
    <g transform="translate(60.632064 29.004495)scale(0.102 -0.102)">
     <defs>
      <path id="DejaVuSans-35" d="M 691 4666 
L 3169 4666 
L 3169 4134 
L 1269 4134 
L 1269 2991 
Q 1406 3038 1543 3061 
Q 1681 3084 1819 3084 
Q 2600 3084 3056 2656 
Q 3513 2228 3513 1497 
Q 3513 744 3044 326 
Q 2575 -91 1722 -91 
Q 1428 -91 1123 -41 
Q 819 9 494 109 
L 494 744 
Q 775 591 1075 516 
Q 1375 441 1709 441 
Q 2250 441 2565 725 
Q 2881 1009 2881 1497 
Q 2881 1984 2565 2268 
Q 2250 2553 1709 2553 
Q 1456 2553 1204 2497 
Q 953 2441 691 2322 
L 691 4666 
z
" transform="scale(0.015625)"/>
      <path id="DejaVuSans-3a" d="M 750 794 
L 1409 794 
L 1409 0 
L 750 0 
L 750 794 
z
M 750 3309 
L 1409 3309 
L 1409 2516 
L 750 2516 
L 750 3309 
z
" transform="scale(0.015625)"/>
     </defs>
     <use xlink:href="#DejaVuSans-35"/>
     <use xlink:href="#DejaVuSans-38" x="63.623047"/>
     <use xlink:href="#DejaVuSans-20" x="127.246094"/>
     <use xlink:href="#DejaVuSans-74" x="159.033203"/>
     <use xlink:href="#DejaVuSans-61" x="198.242188"/>
     <use xlink:href="#DejaVuSans-72" x="259.521484"/>
     <use xlink:href="#DejaVuSans-67" x="298.884766"/>
     <use xlink:href="#DejaVuSans-65" x="362.361328"/>
     <use xlink:href="#DejaVuSans-74" x="423.884766"/>
     <use xlink:href="#DejaVuSans-73" x="463.09375"/>
     <use xlink:href="#DejaVuSans-3a" x="515.193359"/>
     <use xlink:href="#DejaVuSans-20" x="548.884766"/>
     <use xlink:href="#DejaVuSans-31" x="580.671875"/>
     <use xlink:href="#DejaVuSans-2e" x="644.294922"/>
     <use xlink:href="#DejaVuSans-2e" x="676.082031"/>
     <use xlink:href="#DejaVuSans-2d" x="707.869141"/>
     <use xlink:href="#DejaVuSans-31" x="743.953125"/>
     <use xlink:href="#DejaVuSans-2e" x="807.576172"/>
     <use xlink:href="#DejaVuSans-30" x="839.363281"/>
     <use xlink:href="#DejaVuSans-65" x="902.986328"/>
     <use xlink:href="#DejaVuSans-2d" x="964.509766"/>
     <use xlink:href="#DejaVuSans-34" x="1000.59375"/>
    </g>
    <!-- 10 instances -->
    <g transform="translate(60.632064 40.426264)scale(0.102 -0.102)">
     <use xlink:href="#DejaVuSans-31"/>
     <use xlink:href="#DejaVuSans-30" x="63.623047"/>
     <use xlink:href="#DejaVuSans-20" x="127.246094"/>
     <use xlink:href="#DejaVuSans-69" x="159.033203"/>
     <use xlink:href="#DejaVuSans-6e" x="186.816406"/>
     <use xlink:href="#DejaVuSans-73" x="250.195312"/>
     <use xlink:href="#DejaVuSans-74" x="302.294922"/>
     <use xlink:href="#DejaVuSans-61" x="341.503906"/>
     <use xlink:href="#DejaVuSans-6e" x="402.783203"/>
     <use xlink:href="#DejaVuSans-63" x="466.162109"/>
     <use xlink:href="#DejaVuSans-65" x="521.142578"/>
     <use xlink:href="#DejaVuSans-73" x="582.666016"/>
    </g>
   </g>
   <g id="text_18">
    <!-- v2.6, hv-hash=ff0e71e8cd978373 -->
    <g style="fill: #808080" transform="translate(123.707887 293.943992)scale(0.1 -0.1)">
     <defs>
      <path id="DejaVuSans-68" d="M 3513 2113 
L 3513 0 
L 2938 0 
L 2938 2094 
Q 2938 2591 2744 2837 
Q 2550 3084 2163 3084 
Q 1697 3084 1428 2787 
Q 1159 2491 1159 1978 
L 1159 0 
L 581 0 
L 581 4863 
L 1159 4863 
L 1159 2956 
Q 1366 3272 1645 3428 
Q 1925 3584 2291 3584 
Q 2894 3584 3203 3211 
Q 3513 2838 3513 2113 
z
" transform="scale(0.015625)"/>
      <path id="DejaVuSans-3d" d="M 678 2906 
L 4684 2906 
L 4684 2381 
L 678 2381 
L 678 2906 
z
M 678 1631 
L 4684 1631 
L 4684 1100 
L 678 1100 
L 678 1631 
z
" transform="scale(0.015625)"/>
      <path id="DejaVuSans-37" d="M 525 4666 
L 3525 4666 
L 3525 4397 
L 1831 0 
L 1172 0 
L 2766 4134 
L 525 4134 
L 525 4666 
z
" transform="scale(0.015625)"/>
      <path id="DejaVuSans-39" d="M 703 97 
L 703 672 
Q 941 559 1184 500 
Q 1428 441 1663 441 
Q 2288 441 2617 861 
Q 2947 1281 2994 2138 
Q 2813 1869 2534 1725 
Q 2256 1581 1919 1581 
Q 1219 1581 811 2004 
Q 403 2428 403 3163 
Q 403 3881 828 4315 
Q 1253 4750 1959 4750 
Q 2769 4750 3195 4129 
Q 3622 3509 3622 2328 
Q 3622 1225 3098 567 
Q 2575 -91 1691 -91 
Q 1453 -91 1209 -44 
Q 966 3 703 97 
z
M 1959 2075 
Q 2384 2075 2632 2365 
Q 2881 2656 2881 3163 
Q 2881 3666 2632 3958 
Q 2384 4250 1959 4250 
Q 1534 4250 1286 3958 
Q 1038 3666 1038 3163 
Q 1038 2656 1286 2365 
Q 1534 2075 1959 2075 
z
" transform="scale(0.015625)"/>
     </defs>
     <use xlink:href="#DejaVuSans-76"/>
     <use xlink:href="#DejaVuSans-32" x="59.179688"/>
     <use xlink:href="#DejaVuSans-2e" x="122.802734"/>
     <use xlink:href="#DejaVuSans-36" x="154.589844"/>
     <use xlink:href="#DejaVuSans-2c" x="218.212891"/>
     <use xlink:href="#DejaVuSans-20" x="250"/>
     <use xlink:href="#DejaVuSans-68" x="281.787109"/>
     <use xlink:href="#DejaVuSans-76" x="345.166016"/>
     <use xlink:href="#DejaVuSans-2d" x="401.720703"/>
     <use xlink:href="#DejaVuSans-68" x="437.804688"/>
     <use xlink:href="#DejaVuSans-61" x="501.183594"/>
     <use xlink:href="#DejaVuSans-73" x="562.462891"/>
     <use xlink:href="#DejaVuSans-68" x="614.5625"/>
     <use xlink:href="#DejaVuSans-3d" x="677.941406"/>
     <use xlink:href="#DejaVuSans-66" x="761.730469"/>
     <use xlink:href="#DejaVuSans-66" x="796.935547"/>
     <use xlink:href="#DejaVuSans-30" x="832.140625"/>
     <use xlink:href="#DejaVuSans-65" x="895.763672"/>
     <use xlink:href="#DejaVuSans-37" x="957.287109"/>
     <use xlink:href="#DejaVuSans-31" x="1020.910156"/>
     <use xlink:href="#DejaVuSans-65" x="1084.533203"/>
     <use xlink:href="#DejaVuSans-38" x="1146.056641"/>
     <use xlink:href="#DejaVuSans-63" x="1209.679688"/>
     <use xlink:href="#DejaVuSans-64" x="1264.660156"/>
     <use xlink:href="#DejaVuSans-39" x="1328.136719"/>
     <use xlink:href="#DejaVuSans-37" x="1391.759766"/>
     <use xlink:href="#DejaVuSans-38" x="1455.382812"/>
     <use xlink:href="#DejaVuSans-33" x="1519.005859"/>
     <use xlink:href="#DejaVuSans-37" x="1582.628906"/>
     <use xlink:href="#DejaVuSans-33" x="1646.251953"/>
    </g>
   </g>
  </g>
 </g>
 <defs>
  <clipPath id="p8cde2e8ca4">
   <rect x="57.6" y="6.912" width="303.2064" height="292.032"/>
  </clipPath>
 </defs>
</svg>
