<?xml version="1.0" encoding="utf-8" standalone="no"?>
<!DOCTYPE svg PUBLIC "-//W3C//DTD SVG 1.1//EN"
  "http://www.w3.org/Graphics/SVG/1.1/DTD/svg11.dtd">
<svg xmlns:xlink="http://www.w3.org/1999/xlink" width="460.8pt" height="345.6pt" viewBox="0 0 460.8 345.6" xmlns="http://www.w3.org/2000/svg" version="1.1">
 <metadata>
  <rdf:RDF xmlns:dc="http://purl.org/dc/elements/1.1/" xmlns:cc="http://creativecommons.org/ns#" xmlns:rdf="http://www.w3.org/1999/02/22-rdf-syntax-ns#">
   <cc:Work>
    <dc:type rdf:resource="http://purl.org/dc/dcmitype/StillImage"/>
    <dc:date>2022-06-19T21:02:48.447106</dc:date>
    <dc:format>image/svg+xml</dc:format>
    <dc:creator>
     <cc:Agent>
      <dc:title>Matplotlib v3.5.1, https://matplotlib.org/</dc:title>
     </cc:Agent>
    </dc:creator>
   </cc:Work>
  </rdf:RDF>
 </metadata>
 <defs>
  <style type="text/css">*{stroke-linejoin: round; stroke-linecap: butt}</style>
 </defs>
 <g id="figure_1">
  <g id="patch_1">
   <path d="M 0 345.6 
L 460.8 345.6 
L 460.8 0 
L 0 0 
z
" style="fill: #ffffff"/>
  </g>
  <g id="axes_1">
   <g id="patch_2">
    <path d="M 57.6 298.944 
L 360.8064 298.944 
L 360.8064 6.912 
L 57.6 6.912 
z
" style="fill: #ffffff"/>
   </g>
   <g id="line2d_1">
    <path d="M 1.245626 298.944 
L 1.245626 296.426483 
L 27.323974 296.426483 
L 27.323974 295.167724 
L 34.951403 295.167724 
L 34.951403 293.908966 
L 44.560826 293.908966 
L 44.560826 291.391448 
L 67.581941 291.391448 
L 67.581941 288.873931 
L 73.268314 288.873931 
L 73.268314 286.356414 
L 78.266603 286.356414 
L 78.266603 283.838897 
L 80.895742 283.838897 
L 80.895742 281.321379 
L 97.410051 281.321379 
L 97.410051 280.062621 
L 115.83262 280.062621 
L 115.83262 277.545103 
L 134.792631 277.545103 
L 134.792631 275.027586 
L 137.439996 275.027586 
L 137.439996 272.510069 
L 157.632869 272.510069 
L 157.632869 268.733793 
L 160.769737 268.733793 
L 160.769737 267.475034 
L 166.778085 267.475034 
L 166.778085 266.216276 
L 168.596533 266.216276 
L 168.596533 262.44 
L 169.752725 262.44 
L 169.752725 261.181241 
L 175.46183 261.181241 
L 175.46183 257.404966 
L 183.867408 257.404966 
L 183.867408 254.887448 
L 184.430737 254.887448 
L 184.430737 251.111172 
L 191.728974 251.111172 
L 191.728974 248.593655 
L 196.528825 248.593655 
L 196.528825 246.076138 
L 197.466582 246.076138 
L 197.466582 243.558621 
L 199.805088 243.558621 
L 199.805088 242.299862 
L 208.024407 242.299862 
L 208.024407 241.041103 
L 209.339067 241.041103 
L 209.339067 238.523586 
L 210.342971 238.523586 
L 210.342971 237.264828 
L 218.172553 237.264828 
L 218.172553 236.006069 
L 219.404409 236.006069 
L 219.404409 233.488552 
L 220.298018 233.488552 
L 220.298018 230.971034 
L 222.466769 230.971034 
L 222.466769 227.194759 
L 225.24136 227.194759 
L 225.24136 223.418483 
L 235.188578 223.418483 
L 235.188578 219.642207 
L 237.564398 219.642207 
L 237.564398 217.12469 
L 238.35059 217.12469 
L 238.35059 214.607172 
L 241.423911 214.607172 
L 241.423911 212.089655 
L 246.19146 212.089655 
L 246.19146 209.572138 
L 250.081422 209.572138 
L 250.081422 205.795862 
L 253.778751 205.795862 
L 253.778751 203.278345 
L 259.681613 203.278345 
L 259.681613 200.760828 
L 261.305055 200.760828 
L 261.305055 198.24331 
L 268.172862 198.24331 
L 268.172862 195.725793 
L 268.350433 195.725793 
L 268.350433 193.208276 
L 272.455571 193.208276 
L 272.455571 190.690759 
L 277.234575 190.690759 
L 277.234575 188.173241 
L 277.738554 188.173241 
L 277.738554 185.655724 
L 280.680376 185.655724 
L 280.680376 184.396966 
L 288.443138 184.396966 
L 288.443138 181.879448 
L 288.84931 181.879448 
L 288.84931 180.62069 
L 294.230036 180.62069 
L 294.230036 179.361931 
L 297.357029 179.361931 
L 297.357029 175.585655 
L 298.962827 175.585655 
L 298.962827 171.809379 
L 303.767605 171.809379 
L 303.767605 170.550621 
L 304.841511 170.550621 
L 304.841511 166.774345 
L 306.357 166.774345 
L 306.357 165.515586 
L 311.669541 165.515586 
L 311.669541 161.73931 
L 312.924126 161.73931 
L 312.924126 160.480552 
L 316.455159 160.480552 
L 316.455159 156.704276 
L 318.73551 156.704276 
L 318.801561 154.186759 
L 322.788647 154.186759 
L 322.788647 150.410483 
L 324.05662 150.410483 
L 324.05662 146.634207 
L 326.788528 146.634207 
L 326.788528 144.11669 
L 327.82272 144.11669 
L 327.82272 141.599172 
L 329.441454 141.599172 
L 329.441454 137.822897 
L 339.505703 137.822897 
L 339.505703 136.564138 
L 341.834517 136.564138 
L 341.834517 135.305379 
L 348.808268 135.305379 
L 348.811389 129.011586 
L 350.061777 129.011586 
L 350.061777 125.23531 
L 360.8064 125.23531 
L 360.8064 125.23531 
" style="fill: none; stroke: #f5deb3; stroke-width: 4; stroke-linecap: square"/>
   </g>
   <g id="line2d_2">
    <defs>
     <path id="m1622f01868" d="M 0 7.778175 
L 7.778175 0 
L 0 -7.778175 
L -7.778175 0 
z
" style="stroke: #f5deb3; stroke-width: 1.5; stroke-linejoin: miter"/>
    </defs>
    <g>
     <use xlink:href="#m1622f01868" x="78.266603" y="286.356414" style="fill: #f5deb3; stroke: #f5deb3; stroke-width: 1.5; stroke-linejoin: miter"/>
     <use xlink:href="#m1622f01868" x="184.430737" y="251.111172" style="fill: #f5deb3; stroke: #f5deb3; stroke-width: 1.5; stroke-linejoin: miter"/>
     <use xlink:href="#m1622f01868" x="250.081422" y="209.572138" style="fill: #f5deb3; stroke: #f5deb3; stroke-width: 1.5; stroke-linejoin: miter"/>
     <use xlink:href="#m1622f01868" x="316.455159" y="160.480552" style="fill: #f5deb3; stroke: #f5deb3; stroke-width: 1.5; stroke-linejoin: miter"/>
     <use xlink:href="#m1622f01868" x="350.061777" y="125.23531" style="fill: #f5deb3; stroke: #f5deb3; stroke-width: 1.5; stroke-linejoin: miter"/>
     <use xlink:href="#m1622f01868" x="360.8064" y="125.23531" style="fill: #f5deb3; stroke: #f5deb3; stroke-width: 1.5; stroke-linejoin: miter"/>
    </g>
   </g>
   <g id="line2d_3">
    <path style="fill: none; stroke: #f5deb3; stroke-width: 4; stroke-linecap: square"/>
    <g/>
   </g>
   <g id="line2d_4">
    <path d="M 360.8064 125.23531 
L 380.514816 12.75264 
" style="fill: none; stroke: #f5deb3; stroke-width: 4; stroke-linecap: square"/>
    <g>
     <use xlink:href="#m1622f01868" x="360.8064" y="125.23531" style="fill: #f5deb3; stroke: #f5deb3; stroke-width: 1.5; stroke-linejoin: miter"/>
     <use xlink:href="#m1622f01868" x="380.514816" y="12.75264" style="fill: #f5deb3; stroke: #f5deb3; stroke-width: 1.5; stroke-linejoin: miter"/>
    </g>
   </g>
   <g id="matplotlib.axis_1">
    <g id="xtick_1">
     <g id="line2d_5">
      <path d="M 57.6 298.944 
L 57.6 6.912 
" clip-path="url(#p576fbda2d9)" style="fill: none; stroke: #b0b0b0; stroke-width: 0.8; stroke-linecap: square"/>
     </g>
     <g id="line2d_6">
      <defs>
       <path id="m8cc1d36a38" d="M 0 0 
L 0 3.5 
" style="stroke: #000000; stroke-width: 0.8"/>
      </defs>
      <g>
       <use xlink:href="#m8cc1d36a38" x="57.6" y="298.944" style="stroke: #000000; stroke-width: 0.8"/>
      </g>
     </g>
     <g id="text_1">
      <!-- 0 -->
      <g transform="translate(52.191875 318.861344)scale(0.17 -0.17)">
       <defs>
        <path id="DejaVuSans-30" d="M 2034 4250 
Q 1547 4250 1301 3770 
Q 1056 3291 1056 2328 
Q 1056 1369 1301 889 
Q 1547 409 2034 409 
Q 2525 409 2770 889 
Q 3016 1369 3016 2328 
Q 3016 3291 2770 3770 
Q 2525 4250 2034 4250 
z
M 2034 4750 
Q 2819 4750 3233 4129 
Q 3647 3509 3647 2328 
Q 3647 1150 3233 529 
Q 2819 -91 2034 -91 
Q 1250 -91 836 529 
Q 422 1150 422 2328 
Q 422 3509 836 4129 
Q 1250 4750 2034 4750 
z
" transform="scale(0.015625)"/>
       </defs>
       <use xlink:href="#DejaVuSans-30"/>
      </g>
     </g>
    </g>
    <g id="xtick_2">
     <g id="line2d_7">
      <path d="M 144.2304 298.944 
L 144.2304 6.912 
" clip-path="url(#p576fbda2d9)" style="fill: none; stroke: #b0b0b0; stroke-width: 0.8; stroke-linecap: square"/>
     </g>
     <g id="line2d_8">
      <g>
       <use xlink:href="#m8cc1d36a38" x="144.2304" y="298.944" style="stroke: #000000; stroke-width: 0.8"/>
      </g>
     </g>
     <g id="text_2">
      <!-- 2 -->
      <g transform="translate(138.822275 318.861344)scale(0.17 -0.17)">
       <defs>
        <path id="DejaVuSans-32" d="M 1228 531 
L 3431 531 
L 3431 0 
L 469 0 
L 469 531 
Q 828 903 1448 1529 
Q 2069 2156 2228 2338 
Q 2531 2678 2651 2914 
Q 2772 3150 2772 3378 
Q 2772 3750 2511 3984 
Q 2250 4219 1831 4219 
Q 1534 4219 1204 4116 
Q 875 4013 500 3803 
L 500 4441 
Q 881 4594 1212 4672 
Q 1544 4750 1819 4750 
Q 2544 4750 2975 4387 
Q 3406 4025 3406 3419 
Q 3406 3131 3298 2873 
Q 3191 2616 2906 2266 
Q 2828 2175 2409 1742 
Q 1991 1309 1228 531 
z
" transform="scale(0.015625)"/>
       </defs>
       <use xlink:href="#DejaVuSans-32"/>
      </g>
     </g>
    </g>
    <g id="xtick_3">
     <g id="line2d_9">
      <path d="M 230.8608 298.944 
L 230.8608 6.912 
" clip-path="url(#p576fbda2d9)" style="fill: none; stroke: #b0b0b0; stroke-width: 0.8; stroke-linecap: square"/>
     </g>
     <g id="line2d_10">
      <g>
       <use xlink:href="#m8cc1d36a38" x="230.8608" y="298.944" style="stroke: #000000; stroke-width: 0.8"/>
      </g>
     </g>
     <g id="text_3">
      <!-- 4 -->
      <g transform="translate(225.452675 318.861344)scale(0.17 -0.17)">
       <defs>
        <path id="DejaVuSans-34" d="M 2419 4116 
L 825 1625 
L 2419 1625 
L 2419 4116 
z
M 2253 4666 
L 3047 4666 
L 3047 1625 
L 3713 1625 
L 3713 1100 
L 3047 1100 
L 3047 0 
L 2419 0 
L 2419 1100 
L 313 1100 
L 313 1709 
L 2253 4666 
z
" transform="scale(0.015625)"/>
       </defs>
       <use xlink:href="#DejaVuSans-34"/>
      </g>
     </g>
    </g>
    <g id="xtick_4">
     <g id="line2d_11">
      <path d="M 317.4912 298.944 
L 317.4912 6.912 
" clip-path="url(#p576fbda2d9)" style="fill: none; stroke: #b0b0b0; stroke-width: 0.8; stroke-linecap: square"/>
     </g>
     <g id="line2d_12">
      <g>
       <use xlink:href="#m8cc1d36a38" x="317.4912" y="298.944" style="stroke: #000000; stroke-width: 0.8"/>
      </g>
     </g>
     <g id="text_4">
      <!-- 6 -->
      <g transform="translate(312.083075 318.861344)scale(0.17 -0.17)">
       <defs>
        <path id="DejaVuSans-36" d="M 2113 2584 
Q 1688 2584 1439 2293 
Q 1191 2003 1191 1497 
Q 1191 994 1439 701 
Q 1688 409 2113 409 
Q 2538 409 2786 701 
Q 3034 994 3034 1497 
Q 3034 2003 2786 2293 
Q 2538 2584 2113 2584 
z
M 3366 4563 
L 3366 3988 
Q 3128 4100 2886 4159 
Q 2644 4219 2406 4219 
Q 1781 4219 1451 3797 
Q 1122 3375 1075 2522 
Q 1259 2794 1537 2939 
Q 1816 3084 2150 3084 
Q 2853 3084 3261 2657 
Q 3669 2231 3669 1497 
Q 3669 778 3244 343 
Q 2819 -91 2113 -91 
Q 1303 -91 875 529 
Q 447 1150 447 2328 
Q 447 3434 972 4092 
Q 1497 4750 2381 4750 
Q 2619 4750 2861 4703 
Q 3103 4656 3366 4563 
z
" transform="scale(0.015625)"/>
       </defs>
       <use xlink:href="#DejaVuSans-36"/>
      </g>
     </g>
    </g>
    <g id="xtick_5">
     <g id="line2d_13">
      <path d="M 100.9152 298.944 
L 100.9152 6.912 
" clip-path="url(#p576fbda2d9)" style="fill: none; stroke: #b0b0b0; stroke-width: 0.8; stroke-linecap: square"/>
     </g>
     <g id="line2d_14">
      <defs>
       <path id="m1bc6365af4" d="M 0 0 
L 0 2 
" style="stroke: #000000; stroke-width: 0.6"/>
      </defs>
      <g>
       <use xlink:href="#m1bc6365af4" x="100.9152" y="298.944" style="stroke: #000000; stroke-width: 0.6"/>
      </g>
     </g>
    </g>
    <g id="xtick_6">
     <g id="line2d_15">
      <path d="M 187.5456 298.944 
L 187.5456 6.912 
" clip-path="url(#p576fbda2d9)" style="fill: none; stroke: #b0b0b0; stroke-width: 0.8; stroke-linecap: square"/>
     </g>
     <g id="line2d_16">
      <g>
       <use xlink:href="#m1bc6365af4" x="187.5456" y="298.944" style="stroke: #000000; stroke-width: 0.6"/>
      </g>
     </g>
    </g>
    <g id="xtick_7">
     <g id="line2d_17">
      <path d="M 274.176 298.944 
L 274.176 6.912 
" clip-path="url(#p576fbda2d9)" style="fill: none; stroke: #b0b0b0; stroke-width: 0.8; stroke-linecap: square"/>
     </g>
     <g id="line2d_18">
      <g>
       <use xlink:href="#m1bc6365af4" x="274.176" y="298.944" style="stroke: #000000; stroke-width: 0.6"/>
      </g>
     </g>
    </g>
    <g id="xtick_8">
     <g id="line2d_19">
      <path d="M 360.8064 298.944 
L 360.8064 6.912 
" clip-path="url(#p576fbda2d9)" style="fill: none; stroke: #b0b0b0; stroke-width: 0.8; stroke-linecap: square"/>
     </g>
     <g id="line2d_20">
      <g>
       <use xlink:href="#m1bc6365af4" x="360.8064" y="298.944" style="stroke: #000000; stroke-width: 0.6"/>
      </g>
     </g>
    </g>
    <g id="text_5">
     <!-- log10(# f-evals / dimension) -->
     <g transform="translate(88.823278 339.314156)scale(0.17 -0.17)">
      <defs>
       <path id="DejaVuSans-6c" d="M 603 4863 
L 1178 4863 
L 1178 0 
L 603 0 
L 603 4863 
z
" transform="scale(0.015625)"/>
       <path id="DejaVuSans-6f" d="M 1959 3097 
Q 1497 3097 1228 2736 
Q 959 2375 959 1747 
Q 959 1119 1226 758 
Q 1494 397 1959 397 
Q 2419 397 2687 759 
Q 2956 1122 2956 1747 
Q 2956 2369 2687 2733 
Q 2419 3097 1959 3097 
z
M 1959 3584 
Q 2709 3584 3137 3096 
Q 3566 2609 3566 1747 
Q 3566 888 3137 398 
Q 2709 -91 1959 -91 
Q 1206 -91 779 398 
Q 353 888 353 1747 
Q 353 2609 779 3096 
Q 1206 3584 1959 3584 
z
" transform="scale(0.015625)"/>
       <path id="DejaVuSans-67" d="M 2906 1791 
Q 2906 2416 2648 2759 
Q 2391 3103 1925 3103 
Q 1463 3103 1205 2759 
Q 947 2416 947 1791 
Q 947 1169 1205 825 
Q 1463 481 1925 481 
Q 2391 481 2648 825 
Q 2906 1169 2906 1791 
z
M 3481 434 
Q 3481 -459 3084 -895 
Q 2688 -1331 1869 -1331 
Q 1566 -1331 1297 -1286 
Q 1028 -1241 775 -1147 
L 775 -588 
Q 1028 -725 1275 -790 
Q 1522 -856 1778 -856 
Q 2344 -856 2625 -561 
Q 2906 -266 2906 331 
L 2906 616 
Q 2728 306 2450 153 
Q 2172 0 1784 0 
Q 1141 0 747 490 
Q 353 981 353 1791 
Q 353 2603 747 3093 
Q 1141 3584 1784 3584 
Q 2172 3584 2450 3431 
Q 2728 3278 2906 2969 
L 2906 3500 
L 3481 3500 
L 3481 434 
z
" transform="scale(0.015625)"/>
       <path id="DejaVuSans-31" d="M 794 531 
L 1825 531 
L 1825 4091 
L 703 3866 
L 703 4441 
L 1819 4666 
L 2450 4666 
L 2450 531 
L 3481 531 
L 3481 0 
L 794 0 
L 794 531 
z
" transform="scale(0.015625)"/>
       <path id="DejaVuSans-28" d="M 1984 4856 
Q 1566 4138 1362 3434 
Q 1159 2731 1159 2009 
Q 1159 1288 1364 580 
Q 1569 -128 1984 -844 
L 1484 -844 
Q 1016 -109 783 600 
Q 550 1309 550 2009 
Q 550 2706 781 3412 
Q 1013 4119 1484 4856 
L 1984 4856 
z
" transform="scale(0.015625)"/>
       <path id="DejaVuSans-23" d="M 3272 2816 
L 2363 2816 
L 2100 1772 
L 3016 1772 
L 3272 2816 
z
M 2803 4594 
L 2478 3297 
L 3391 3297 
L 3719 4594 
L 4219 4594 
L 3897 3297 
L 4872 3297 
L 4872 2816 
L 3775 2816 
L 3519 1772 
L 4513 1772 
L 4513 1294 
L 3397 1294 
L 3072 0 
L 2572 0 
L 2894 1294 
L 1978 1294 
L 1656 0 
L 1153 0 
L 1478 1294 
L 494 1294 
L 494 1772 
L 1594 1772 
L 1856 2816 
L 850 2816 
L 850 3297 
L 1978 3297 
L 2297 4594 
L 2803 4594 
z
" transform="scale(0.015625)"/>
       <path id="DejaVuSans-20" transform="scale(0.015625)"/>
       <path id="DejaVuSans-66" d="M 2375 4863 
L 2375 4384 
L 1825 4384 
Q 1516 4384 1395 4259 
Q 1275 4134 1275 3809 
L 1275 3500 
L 2222 3500 
L 2222 3053 
L 1275 3053 
L 1275 0 
L 697 0 
L 697 3053 
L 147 3053 
L 147 3500 
L 697 3500 
L 697 3744 
Q 697 4328 969 4595 
Q 1241 4863 1831 4863 
L 2375 4863 
z
" transform="scale(0.015625)"/>
       <path id="DejaVuSans-2d" d="M 313 2009 
L 1997 2009 
L 1997 1497 
L 313 1497 
L 313 2009 
z
" transform="scale(0.015625)"/>
       <path id="DejaVuSans-65" d="M 3597 1894 
L 3597 1613 
L 953 1613 
Q 991 1019 1311 708 
Q 1631 397 2203 397 
Q 2534 397 2845 478 
Q 3156 559 3463 722 
L 3463 178 
Q 3153 47 2828 -22 
Q 2503 -91 2169 -91 
Q 1331 -91 842 396 
Q 353 884 353 1716 
Q 353 2575 817 3079 
Q 1281 3584 2069 3584 
Q 2775 3584 3186 3129 
Q 3597 2675 3597 1894 
z
M 3022 2063 
Q 3016 2534 2758 2815 
Q 2500 3097 2075 3097 
Q 1594 3097 1305 2825 
Q 1016 2553 972 2059 
L 3022 2063 
z
" transform="scale(0.015625)"/>
       <path id="DejaVuSans-76" d="M 191 3500 
L 800 3500 
L 1894 563 
L 2988 3500 
L 3597 3500 
L 2284 0 
L 1503 0 
L 191 3500 
z
" transform="scale(0.015625)"/>
       <path id="DejaVuSans-61" d="M 2194 1759 
Q 1497 1759 1228 1600 
Q 959 1441 959 1056 
Q 959 750 1161 570 
Q 1363 391 1709 391 
Q 2188 391 2477 730 
Q 2766 1069 2766 1631 
L 2766 1759 
L 2194 1759 
z
M 3341 1997 
L 3341 0 
L 2766 0 
L 2766 531 
Q 2569 213 2275 61 
Q 1981 -91 1556 -91 
Q 1019 -91 701 211 
Q 384 513 384 1019 
Q 384 1609 779 1909 
Q 1175 2209 1959 2209 
L 2766 2209 
L 2766 2266 
Q 2766 2663 2505 2880 
Q 2244 3097 1772 3097 
Q 1472 3097 1187 3025 
Q 903 2953 641 2809 
L 641 3341 
Q 956 3463 1253 3523 
Q 1550 3584 1831 3584 
Q 2591 3584 2966 3190 
Q 3341 2797 3341 1997 
z
" transform="scale(0.015625)"/>
       <path id="DejaVuSans-73" d="M 2834 3397 
L 2834 2853 
Q 2591 2978 2328 3040 
Q 2066 3103 1784 3103 
Q 1356 3103 1142 2972 
Q 928 2841 928 2578 
Q 928 2378 1081 2264 
Q 1234 2150 1697 2047 
L 1894 2003 
Q 2506 1872 2764 1633 
Q 3022 1394 3022 966 
Q 3022 478 2636 193 
Q 2250 -91 1575 -91 
Q 1294 -91 989 -36 
Q 684 19 347 128 
L 347 722 
Q 666 556 975 473 
Q 1284 391 1588 391 
Q 1994 391 2212 530 
Q 2431 669 2431 922 
Q 2431 1156 2273 1281 
Q 2116 1406 1581 1522 
L 1381 1569 
Q 847 1681 609 1914 
Q 372 2147 372 2553 
Q 372 3047 722 3315 
Q 1072 3584 1716 3584 
Q 2034 3584 2315 3537 
Q 2597 3491 2834 3397 
z
" transform="scale(0.015625)"/>
       <path id="DejaVuSans-2f" d="M 1625 4666 
L 2156 4666 
L 531 -594 
L 0 -594 
L 1625 4666 
z
" transform="scale(0.015625)"/>
       <path id="DejaVuSans-64" d="M 2906 2969 
L 2906 4863 
L 3481 4863 
L 3481 0 
L 2906 0 
L 2906 525 
Q 2725 213 2448 61 
Q 2172 -91 1784 -91 
Q 1150 -91 751 415 
Q 353 922 353 1747 
Q 353 2572 751 3078 
Q 1150 3584 1784 3584 
Q 2172 3584 2448 3432 
Q 2725 3281 2906 2969 
z
M 947 1747 
Q 947 1113 1208 752 
Q 1469 391 1925 391 
Q 2381 391 2643 752 
Q 2906 1113 2906 1747 
Q 2906 2381 2643 2742 
Q 2381 3103 1925 3103 
Q 1469 3103 1208 2742 
Q 947 2381 947 1747 
z
" transform="scale(0.015625)"/>
       <path id="DejaVuSans-69" d="M 603 3500 
L 1178 3500 
L 1178 0 
L 603 0 
L 603 3500 
z
M 603 4863 
L 1178 4863 
L 1178 4134 
L 603 4134 
L 603 4863 
z
" transform="scale(0.015625)"/>
       <path id="DejaVuSans-6d" d="M 3328 2828 
Q 3544 3216 3844 3400 
Q 4144 3584 4550 3584 
Q 5097 3584 5394 3201 
Q 5691 2819 5691 2113 
L 5691 0 
L 5113 0 
L 5113 2094 
Q 5113 2597 4934 2840 
Q 4756 3084 4391 3084 
Q 3944 3084 3684 2787 
Q 3425 2491 3425 1978 
L 3425 0 
L 2847 0 
L 2847 2094 
Q 2847 2600 2669 2842 
Q 2491 3084 2119 3084 
Q 1678 3084 1418 2786 
Q 1159 2488 1159 1978 
L 1159 0 
L 581 0 
L 581 3500 
L 1159 3500 
L 1159 2956 
Q 1356 3278 1631 3431 
Q 1906 3584 2284 3584 
Q 2666 3584 2933 3390 
Q 3200 3197 3328 2828 
z
" transform="scale(0.015625)"/>
       <path id="DejaVuSans-6e" d="M 3513 2113 
L 3513 0 
L 2938 0 
L 2938 2094 
Q 2938 2591 2744 2837 
Q 2550 3084 2163 3084 
Q 1697 3084 1428 2787 
Q 1159 2491 1159 1978 
L 1159 0 
L 581 0 
L 581 3500 
L 1159 3500 
L 1159 2956 
Q 1366 3272 1645 3428 
Q 1925 3584 2291 3584 
Q 2894 3584 3203 3211 
Q 3513 2838 3513 2113 
z
" transform="scale(0.015625)"/>
       <path id="DejaVuSans-29" d="M 513 4856 
L 1013 4856 
Q 1481 4119 1714 3412 
Q 1947 2706 1947 2009 
Q 1947 1309 1714 600 
Q 1481 -109 1013 -844 
L 513 -844 
Q 928 -128 1133 580 
Q 1338 1288 1338 2009 
Q 1338 2731 1133 3434 
Q 928 4138 513 4856 
z
" transform="scale(0.015625)"/>
      </defs>
      <use xlink:href="#DejaVuSans-6c"/>
      <use xlink:href="#DejaVuSans-6f" x="27.783203"/>
      <use xlink:href="#DejaVuSans-67" x="88.964844"/>
      <use xlink:href="#DejaVuSans-31" x="152.441406"/>
      <use xlink:href="#DejaVuSans-30" x="216.064453"/>
      <use xlink:href="#DejaVuSans-28" x="279.6875"/>
      <use xlink:href="#DejaVuSans-23" x="318.701172"/>
      <use xlink:href="#DejaVuSans-20" x="402.490234"/>
      <use xlink:href="#DejaVuSans-66" x="434.277344"/>
      <use xlink:href="#DejaVuSans-2d" x="463.982422"/>
      <use xlink:href="#DejaVuSans-65" x="500.066406"/>
      <use xlink:href="#DejaVuSans-76" x="561.589844"/>
      <use xlink:href="#DejaVuSans-61" x="620.769531"/>
      <use xlink:href="#DejaVuSans-6c" x="682.048828"/>
      <use xlink:href="#DejaVuSans-73" x="709.832031"/>
      <use xlink:href="#DejaVuSans-20" x="761.931641"/>
      <use xlink:href="#DejaVuSans-2f" x="793.71875"/>
      <use xlink:href="#DejaVuSans-20" x="827.410156"/>
      <use xlink:href="#DejaVuSans-64" x="859.197266"/>
      <use xlink:href="#DejaVuSans-69" x="922.673828"/>
      <use xlink:href="#DejaVuSans-6d" x="950.457031"/>
      <use xlink:href="#DejaVuSans-65" x="1047.869141"/>
      <use xlink:href="#DejaVuSans-6e" x="1109.392578"/>
      <use xlink:href="#DejaVuSans-73" x="1172.771484"/>
      <use xlink:href="#DejaVuSans-69" x="1224.871094"/>
      <use xlink:href="#DejaVuSans-6f" x="1252.654297"/>
      <use xlink:href="#DejaVuSans-6e" x="1313.835938"/>
      <use xlink:href="#DejaVuSans-29" x="1377.214844"/>
     </g>
    </g>
   </g>
   <g id="matplotlib.axis_2">
    <g id="ytick_1">
     <g id="line2d_21">
      <path d="M 57.6 298.944 
L 360.8064 298.944 
" clip-path="url(#p576fbda2d9)" style="fill: none; stroke: #b0b0b0; stroke-width: 0.8; stroke-linecap: square"/>
     </g>
     <g id="line2d_22">
      <defs>
       <path id="m98737d3e9a" d="M 0 0 
L -3.5 0 
" style="stroke: #000000; stroke-width: 0.8"/>
      </defs>
      <g>
       <use xlink:href="#m98737d3e9a" x="57.6" y="298.944" style="stroke: #000000; stroke-width: 0.8"/>
      </g>
     </g>
     <g id="text_6">
      <!-- 0.0 -->
      <g transform="translate(25.155 305.02275)scale(0.16 -0.16)">
       <defs>
        <path id="DejaVuSans-2e" d="M 684 794 
L 1344 794 
L 1344 0 
L 684 0 
L 684 794 
z
" transform="scale(0.015625)"/>
       </defs>
       <use xlink:href="#DejaVuSans-30"/>
       <use xlink:href="#DejaVuSans-2e" x="63.623047"/>
       <use xlink:href="#DejaVuSans-30" x="95.410156"/>
      </g>
     </g>
    </g>
    <g id="ytick_2">
     <g id="line2d_23">
      <path d="M 57.6 240.5376 
L 360.8064 240.5376 
" clip-path="url(#p576fbda2d9)" style="fill: none; stroke: #b0b0b0; stroke-width: 0.8; stroke-linecap: square"/>
     </g>
     <g id="line2d_24">
      <g>
       <use xlink:href="#m98737d3e9a" x="57.6" y="240.5376" style="stroke: #000000; stroke-width: 0.8"/>
      </g>
     </g>
     <g id="text_7">
      <!-- 0.2 -->
      <g transform="translate(25.155 246.61635)scale(0.16 -0.16)">
       <use xlink:href="#DejaVuSans-30"/>
       <use xlink:href="#DejaVuSans-2e" x="63.623047"/>
       <use xlink:href="#DejaVuSans-32" x="95.410156"/>
      </g>
     </g>
    </g>
    <g id="ytick_3">
     <g id="line2d_25">
      <path d="M 57.6 182.1312 
L 360.8064 182.1312 
" clip-path="url(#p576fbda2d9)" style="fill: none; stroke: #b0b0b0; stroke-width: 0.8; stroke-linecap: square"/>
     </g>
     <g id="line2d_26">
      <g>
       <use xlink:href="#m98737d3e9a" x="57.6" y="182.1312" style="stroke: #000000; stroke-width: 0.8"/>
      </g>
     </g>
     <g id="text_8">
      <!-- 0.4 -->
      <g transform="translate(25.155 188.20995)scale(0.16 -0.16)">
       <use xlink:href="#DejaVuSans-30"/>
       <use xlink:href="#DejaVuSans-2e" x="63.623047"/>
       <use xlink:href="#DejaVuSans-34" x="95.410156"/>
      </g>
     </g>
    </g>
    <g id="ytick_4">
     <g id="line2d_27">
      <path d="M 57.6 123.7248 
L 360.8064 123.7248 
" clip-path="url(#p576fbda2d9)" style="fill: none; stroke: #b0b0b0; stroke-width: 0.8; stroke-linecap: square"/>
     </g>
     <g id="line2d_28">
      <g>
       <use xlink:href="#m98737d3e9a" x="57.6" y="123.7248" style="stroke: #000000; stroke-width: 0.8"/>
      </g>
     </g>
     <g id="text_9">
      <!-- 0.6 -->
      <g transform="translate(25.155 129.80355)scale(0.16 -0.16)">
       <use xlink:href="#DejaVuSans-30"/>
       <use xlink:href="#DejaVuSans-2e" x="63.623047"/>
       <use xlink:href="#DejaVuSans-36" x="95.410156"/>
      </g>
     </g>
    </g>
    <g id="ytick_5">
     <g id="line2d_29">
      <path d="M 57.6 65.3184 
L 360.8064 65.3184 
" clip-path="url(#p576fbda2d9)" style="fill: none; stroke: #b0b0b0; stroke-width: 0.8; stroke-linecap: square"/>
     </g>
     <g id="line2d_30">
      <g>
       <use xlink:href="#m98737d3e9a" x="57.6" y="65.3184" style="stroke: #000000; stroke-width: 0.8"/>
      </g>
     </g>
     <g id="text_10">
      <!-- 0.8 -->
      <g transform="translate(25.155 71.39715)scale(0.16 -0.16)">
       <defs>
        <path id="DejaVuSans-38" d="M 2034 2216 
Q 1584 2216 1326 1975 
Q 1069 1734 1069 1313 
Q 1069 891 1326 650 
Q 1584 409 2034 409 
Q 2484 409 2743 651 
Q 3003 894 3003 1313 
Q 3003 1734 2745 1975 
Q 2488 2216 2034 2216 
z
M 1403 2484 
Q 997 2584 770 2862 
Q 544 3141 544 3541 
Q 544 4100 942 4425 
Q 1341 4750 2034 4750 
Q 2731 4750 3128 4425 
Q 3525 4100 3525 3541 
Q 3525 3141 3298 2862 
Q 3072 2584 2669 2484 
Q 3125 2378 3379 2068 
Q 3634 1759 3634 1313 
Q 3634 634 3220 271 
Q 2806 -91 2034 -91 
Q 1263 -91 848 271 
Q 434 634 434 1313 
Q 434 1759 690 2068 
Q 947 2378 1403 2484 
z
M 1172 3481 
Q 1172 3119 1398 2916 
Q 1625 2713 2034 2713 
Q 2441 2713 2670 2916 
Q 2900 3119 2900 3481 
Q 2900 3844 2670 4047 
Q 2441 4250 2034 4250 
Q 1625 4250 1398 4047 
Q 1172 3844 1172 3481 
z
" transform="scale(0.015625)"/>
       </defs>
       <use xlink:href="#DejaVuSans-30"/>
       <use xlink:href="#DejaVuSans-2e" x="63.623047"/>
       <use xlink:href="#DejaVuSans-38" x="95.410156"/>
      </g>
     </g>
    </g>
    <g id="ytick_6">
     <g id="line2d_31">
      <path d="M 57.6 6.912 
L 360.8064 6.912 
" clip-path="url(#p576fbda2d9)" style="fill: none; stroke: #b0b0b0; stroke-width: 0.8; stroke-linecap: square"/>
     </g>
     <g id="line2d_32">
      <g>
       <use xlink:href="#m98737d3e9a" x="57.6" y="6.912" style="stroke: #000000; stroke-width: 0.8"/>
      </g>
     </g>
     <g id="text_11">
      <!-- 1.0 -->
      <g transform="translate(25.155 12.99075)scale(0.16 -0.16)">
       <use xlink:href="#DejaVuSans-31"/>
       <use xlink:href="#DejaVuSans-2e" x="63.623047"/>
       <use xlink:href="#DejaVuSans-30" x="95.410156"/>
      </g>
     </g>
    </g>
    <g id="text_12">
     <!-- Fraction of function,target pairs -->
     <g transform="translate(17.619531 287.313)rotate(-90)scale(0.17 -0.17)">
      <defs>
       <path id="DejaVuSans-46" d="M 628 4666 
L 3309 4666 
L 3309 4134 
L 1259 4134 
L 1259 2759 
L 3109 2759 
L 3109 2228 
L 1259 2228 
L 1259 0 
L 628 0 
L 628 4666 
z
" transform="scale(0.015625)"/>
       <path id="DejaVuSans-72" d="M 2631 2963 
Q 2534 3019 2420 3045 
Q 2306 3072 2169 3072 
Q 1681 3072 1420 2755 
Q 1159 2438 1159 1844 
L 1159 0 
L 581 0 
L 581 3500 
L 1159 3500 
L 1159 2956 
Q 1341 3275 1631 3429 
Q 1922 3584 2338 3584 
Q 2397 3584 2469 3576 
Q 2541 3569 2628 3553 
L 2631 2963 
z
" transform="scale(0.015625)"/>
       <path id="DejaVuSans-63" d="M 3122 3366 
L 3122 2828 
Q 2878 2963 2633 3030 
Q 2388 3097 2138 3097 
Q 1578 3097 1268 2742 
Q 959 2388 959 1747 
Q 959 1106 1268 751 
Q 1578 397 2138 397 
Q 2388 397 2633 464 
Q 2878 531 3122 666 
L 3122 134 
Q 2881 22 2623 -34 
Q 2366 -91 2075 -91 
Q 1284 -91 818 406 
Q 353 903 353 1747 
Q 353 2603 823 3093 
Q 1294 3584 2113 3584 
Q 2378 3584 2631 3529 
Q 2884 3475 3122 3366 
z
" transform="scale(0.015625)"/>
       <path id="DejaVuSans-74" d="M 1172 4494 
L 1172 3500 
L 2356 3500 
L 2356 3053 
L 1172 3053 
L 1172 1153 
Q 1172 725 1289 603 
Q 1406 481 1766 481 
L 2356 481 
L 2356 0 
L 1766 0 
Q 1100 0 847 248 
Q 594 497 594 1153 
L 594 3053 
L 172 3053 
L 172 3500 
L 594 3500 
L 594 4494 
L 1172 4494 
z
" transform="scale(0.015625)"/>
       <path id="DejaVuSans-75" d="M 544 1381 
L 544 3500 
L 1119 3500 
L 1119 1403 
Q 1119 906 1312 657 
Q 1506 409 1894 409 
Q 2359 409 2629 706 
Q 2900 1003 2900 1516 
L 2900 3500 
L 3475 3500 
L 3475 0 
L 2900 0 
L 2900 538 
Q 2691 219 2414 64 
Q 2138 -91 1772 -91 
Q 1169 -91 856 284 
Q 544 659 544 1381 
z
M 1991 3584 
L 1991 3584 
z
" transform="scale(0.015625)"/>
       <path id="DejaVuSans-2c" d="M 750 794 
L 1409 794 
L 1409 256 
L 897 -744 
L 494 -744 
L 750 256 
L 750 794 
z
" transform="scale(0.015625)"/>
       <path id="DejaVuSans-70" d="M 1159 525 
L 1159 -1331 
L 581 -1331 
L 581 3500 
L 1159 3500 
L 1159 2969 
Q 1341 3281 1617 3432 
Q 1894 3584 2278 3584 
Q 2916 3584 3314 3078 
Q 3713 2572 3713 1747 
Q 3713 922 3314 415 
Q 2916 -91 2278 -91 
Q 1894 -91 1617 61 
Q 1341 213 1159 525 
z
M 3116 1747 
Q 3116 2381 2855 2742 
Q 2594 3103 2138 3103 
Q 1681 3103 1420 2742 
Q 1159 2381 1159 1747 
Q 1159 1113 1420 752 
Q 1681 391 2138 391 
Q 2594 391 2855 752 
Q 3116 1113 3116 1747 
z
" transform="scale(0.015625)"/>
      </defs>
      <use xlink:href="#DejaVuSans-46"/>
      <use xlink:href="#DejaVuSans-72" x="50.269531"/>
      <use xlink:href="#DejaVuSans-61" x="91.382812"/>
      <use xlink:href="#DejaVuSans-63" x="152.662109"/>
      <use xlink:href="#DejaVuSans-74" x="207.642578"/>
      <use xlink:href="#DejaVuSans-69" x="246.851562"/>
      <use xlink:href="#DejaVuSans-6f" x="274.634766"/>
      <use xlink:href="#DejaVuSans-6e" x="335.816406"/>
      <use xlink:href="#DejaVuSans-20" x="399.195312"/>
      <use xlink:href="#DejaVuSans-6f" x="430.982422"/>
      <use xlink:href="#DejaVuSans-66" x="492.164062"/>
      <use xlink:href="#DejaVuSans-20" x="527.369141"/>
      <use xlink:href="#DejaVuSans-66" x="559.15625"/>
      <use xlink:href="#DejaVuSans-75" x="594.361328"/>
      <use xlink:href="#DejaVuSans-6e" x="657.740234"/>
      <use xlink:href="#DejaVuSans-63" x="721.119141"/>
      <use xlink:href="#DejaVuSans-74" x="776.099609"/>
      <use xlink:href="#DejaVuSans-69" x="815.308594"/>
      <use xlink:href="#DejaVuSans-6f" x="843.091797"/>
      <use xlink:href="#DejaVuSans-6e" x="904.273438"/>
      <use xlink:href="#DejaVuSans-2c" x="967.652344"/>
      <use xlink:href="#DejaVuSans-74" x="999.439453"/>
      <use xlink:href="#DejaVuSans-61" x="1038.648438"/>
      <use xlink:href="#DejaVuSans-72" x="1099.927734"/>
      <use xlink:href="#DejaVuSans-67" x="1139.291016"/>
      <use xlink:href="#DejaVuSans-65" x="1202.767578"/>
      <use xlink:href="#DejaVuSans-74" x="1264.291016"/>
      <use xlink:href="#DejaVuSans-20" x="1303.5"/>
      <use xlink:href="#DejaVuSans-70" x="1335.287109"/>
      <use xlink:href="#DejaVuSans-61" x="1398.763672"/>
      <use xlink:href="#DejaVuSans-69" x="1460.042969"/>
      <use xlink:href="#DejaVuSans-72" x="1487.826172"/>
      <use xlink:href="#DejaVuSans-73" x="1528.939453"/>
     </g>
    </g>
   </g>
   <g id="line2d_33">
    <defs>
     <path id="m07d965f405" d="M 0 1.5 
C 0.397805 1.5 0.77937 1.341951 1.06066 1.06066 
C 1.341951 0.77937 1.5 0.397805 1.5 0 
C 1.5 -0.397805 1.341951 -0.77937 1.06066 -1.06066 
C 0.77937 -1.341951 0.397805 -1.5 0 -1.5 
C -0.397805 -1.5 -0.77937 -1.341951 -1.06066 -1.06066 
C -1.341951 -0.77937 -1.5 -0.397805 -1.5 0 
C -1.5 0.397805 -1.341951 0.77937 -1.06066 1.06066 
C -0.77937 1.341951 -0.397805 1.5 0 1.5 
z
" style="stroke: #f5deb3"/>
    </defs>
    <g>
     <use xlink:href="#m07d965f405" x="363.674931" y="110.130207" style="fill: #f5deb3; stroke: #f5deb3"/>
     <use xlink:href="#m07d965f405" x="363.674931" y="110.130207" style="fill: #f5deb3; stroke: #f5deb3"/>
    </g>
   </g>
   <g id="line2d_34">
    <defs>
     <path id="m7c4ce9a84b" d="M 0 1.5 
C 0.397805 1.5 0.77937 1.341951 1.06066 1.06066 
C 1.341951 0.77937 1.5 0.397805 1.5 0 
C 1.5 -0.397805 1.341951 -0.77937 1.06066 -1.06066 
C 0.77937 -1.341951 0.397805 -1.5 0 -1.5 
C -0.397805 -1.5 -0.77937 -1.341951 -1.06066 -1.06066 
C -1.341951 -0.77937 -1.5 -0.397805 -1.5 0 
C -1.5 0.397805 -1.341951 0.77937 -1.06066 1.06066 
C -0.77937 1.341951 -0.397805 1.5 0 1.5 
z
" style="stroke: #000080"/>
    </defs>
    <g>
     <use xlink:href="#m7c4ce9a84b" x="74.836851" y="284.216524" style="fill: #000080; stroke: #000080"/>
     <use xlink:href="#m7c4ce9a84b" x="74.836851" y="284.216524" style="fill: #000080; stroke: #000080"/>
    </g>
   </g>
   <g id="line2d_35">
    <path d="M 1.245626 298.944 
L 1.245626 290.13269 
L 14.2848 290.13269 
L 14.2848 289.880938 
L 27.323974 289.880938 
L 27.323974 289.377434 
L 31.521651 289.377434 
L 31.521651 288.999807 
L 34.951403 288.999807 
L 34.951403 288.873931 
L 37.851216 288.873931 
L 37.851216 288.622179 
L 40.363149 288.622179 
L 40.363149 288.496303 
L 42.578831 288.496303 
L 42.578831 288.370428 
L 49.496305 288.370428 
L 49.496305 288.244552 
L 50.890391 288.244552 
L 50.890391 288.118676 
L 54.542767 288.118676 
L 54.542767 287.741048 
L 55.618005 287.741048 
L 55.618005 287.615172 
L 56.635094 287.615172 
L 56.635094 287.489297 
L 57.6 287.489297 
L 57.6 287.111669 
L 59.392932 287.111669 
L 59.392932 286.985793 
L 61.029752 286.985793 
L 61.029752 286.859917 
L 61.797677 286.859917 
L 61.797677 286.734041 
L 63.929565 286.734041 
L 63.929565 286.356414 
L 65.844256 286.356414 
L 65.844256 286.230538 
L 66.441498 286.230538 
L 66.441498 286.104662 
L 67.020361 286.104662 
L 67.020361 285.978786 
L 67.581941 285.978786 
L 67.581941 285.727034 
L 69.172597 285.727034 
L 69.172597 285.601159 
L 69.674268 285.601159 
L 69.674268 285.475283 
L 70.639174 285.475283 
L 70.639174 285.097655 
L 72.432107 285.097655 
L 72.432107 284.971779 
L 72.854856 284.971779 
L 72.854856 284.845903 
L 73.268314 284.845903 
L 73.268314 284.720028 
L 74.836851 284.720028 
L 74.836851 284.216524 
L 360.8064 284.216524 
" style="fill: none; stroke: #000080; stroke-width: 1.5; stroke-linecap: square"/>
   </g>
   <g id="line2d_36">
    <defs>
     <path id="mfdeb1666b1" d="M 0 6 
C 1.591219 6 3.117479 5.367802 4.242641 4.242641 
C 5.367802 3.117479 6 1.591219 6 0 
C 6 -1.591219 5.367802 -3.117479 4.242641 -4.242641 
C 3.117479 -5.367802 1.591219 -6 0 -6 
C -1.591219 -6 -3.117479 -5.367802 -4.242641 -4.242641 
C -5.367802 -3.117479 -6 -1.591219 -6 0 
C -6 1.591219 -5.367802 3.117479 -4.242641 4.242641 
C -3.117479 5.367802 -1.591219 6 0 6 
z
" style="stroke: #000080; stroke-width: 1.5"/>
    </defs>
    <g>
     <use xlink:href="#mfdeb1666b1" x="74.836851" y="284.720028" style="fill-opacity: 0; stroke: #000080; stroke-width: 1.5"/>
     <use xlink:href="#mfdeb1666b1" x="74.836851" y="284.720028" style="fill-opacity: 0; stroke: #000080; stroke-width: 1.5"/>
     <use xlink:href="#mfdeb1666b1" x="74.836851" y="284.216524" style="fill-opacity: 0; stroke: #000080; stroke-width: 1.5"/>
     <use xlink:href="#mfdeb1666b1" x="74.836851" y="284.216524" style="fill-opacity: 0; stroke: #000080; stroke-width: 1.5"/>
     <use xlink:href="#mfdeb1666b1" x="360.8064" y="284.216524" style="fill-opacity: 0; stroke: #000080; stroke-width: 1.5"/>
    </g>
   </g>
   <g id="line2d_37">
    <path style="fill: none; stroke: #000080; stroke-width: 1.5; stroke-linecap: square"/>
    <g/>
   </g>
   <g id="line2d_38">
    <path d="M 74.836851 284.216524 
" clip-path="url(#p576fbda2d9)" style="fill: none; stroke: #000080; stroke-width: 1.5; stroke-linecap: square"/>
    <defs>
     <path id="ma315152de6" d="M -12 12 
L 12 -12 
M -12 -12 
L 12 12 
" style="stroke: #000080"/>
    </defs>
    <g clip-path="url(#p576fbda2d9)">
     <use xlink:href="#ma315152de6" x="74.836851" y="284.216524" style="fill: #000080; stroke: #000080"/>
    </g>
   </g>
   <g id="line2d_39">
    <defs>
     <path id="m2cdc345c86" d="M 0 1.5 
C 0.397805 1.5 0.77937 1.341951 1.06066 1.06066 
C 1.341951 0.77937 1.5 0.397805 1.5 0 
C 1.5 -0.397805 1.341951 -0.77937 1.06066 -1.06066 
C 0.77937 -1.341951 0.397805 -1.5 0 -1.5 
C -0.397805 -1.5 -0.77937 -1.341951 -1.06066 -1.06066 
C -1.341951 -0.77937 -1.5 -0.397805 -1.5 0 
C -1.5 0.397805 -1.341951 0.77937 -1.06066 1.06066 
C -0.77937 1.341951 -0.397805 1.5 0 1.5 
z
" style="stroke: #ff00ff"/>
    </defs>
    <g>
     <use xlink:href="#m2cdc345c86" x="273.97116" y="242.803366" style="fill: #ff00ff; stroke: #ff00ff"/>
     <use xlink:href="#m2cdc345c86" x="273.97116" y="242.803366" style="fill: #ff00ff; stroke: #ff00ff"/>
    </g>
   </g>
   <g id="line2d_40">
    <path d="M 1.245626 298.944 
L 1.245626 290.13269 
L 14.2848 290.13269 
L 14.2848 290.006814 
L 34.951403 290.006814 
L 34.951403 289.880938 
L 37.851216 289.880938 
L 37.851216 289.755062 
L 46.353758 289.755062 
L 46.353758 289.629186 
L 59.392932 289.629186 
L 59.392932 289.50331 
L 65.227428 289.50331 
L 65.227428 289.377434 
L 69.674268 289.377434 
L 69.674268 289.251559 
L 71.556993 289.251559 
L 71.556993 289.125683 
L 74.068926 289.125683 
L 74.068926 288.999807 
L 74.456807 288.999807 
L 74.456807 288.873931 
L 84.142855 288.873931 
L 84.142855 288.748055 
L 84.596168 288.748055 
L 84.596168 288.622179 
L 88.063207 288.622179 
L 88.063207 288.496303 
L 88.432072 288.496303 
L 88.432072 288.244552 
L 89.323782 288.244552 
L 89.323782 288.118676 
L 89.497162 288.118676 
L 89.497162 287.9928 
L 90.175129 287.9928 
L 90.175129 287.866924 
L 93.66029 287.866924 
L 93.66029 287.741048 
L 94.865713 287.741048 
L 94.865713 287.615172 
L 97.410051 287.615172 
L 97.410051 287.489297 
L 97.857967 287.489297 
L 97.857967 287.363421 
L 98.077987 287.363421 
L 98.077987 287.237545 
L 98.295464 287.237545 
L 98.403267 286.985793 
L 98.828405 286.985793 
L 98.828405 286.859917 
L 100.535156 286.859917 
L 100.535156 286.734041 
L 101.102381 286.734041 
L 101.102381 286.608166 
L 102.878374 286.608166 
L 102.878374 286.356414 
L 103.707211 286.356414 
L 103.707211 286.230538 
L 105.037479 286.230538 
L 105.037479 286.104662 
L 106.350446 286.104662 
L 106.350446 285.978786 
L 106.630177 285.978786 
L 106.630177 285.85291 
L 107.042125 285.85291 
L 107.042125 285.727034 
L 108.976522 285.727034 
L 108.976522 285.601159 
L 109.579508 285.601159 
L 109.579508 285.475283 
L 109.990385 285.475283 
L 109.990385 285.349407 
L 110.221204 285.349407 
L 110.221204 285.223531 
L 117.226706 285.223531 
L 117.226706 285.097655 
L 124.906754 285.097655 
L 124.906754 284.971779 
L 127.572412 284.971779 
L 127.663399 284.594152 
L 129.581749 284.594152 
L 129.581749 284.468276 
L 129.724648 284.468276 
L 129.724648 284.3424 
L 130.107132 284.3424 
L 130.107132 284.216524 
L 130.344755 284.216524 
L 130.344755 284.090648 
L 130.926003 284.090648 
L 130.926003 283.838897 
L 131.153565 283.838897 
L 131.153565 283.713021 
L 131.378407 283.713021 
L 131.378407 283.587145 
L 131.820186 283.587145 
L 131.820186 283.461269 
L 132.037244 283.461269 
L 132.037244 283.335393 
L 132.287354 283.335393 
L 132.287354 283.209517 
L 132.691164 283.209517 
L 132.691164 283.083641 
L 132.812362 283.083641 
L 132.812362 282.957766 
L 133.222067 282.957766 
L 133.222067 282.83189 
L 133.373435 282.83189 
L 133.373435 282.580138 
L 133.78762 282.580138 
L 133.885683 282.20251 
L 134.730392 282.20251 
L 134.792631 281.950759 
L 134.885604 281.950759 
L 134.885604 281.824883 
L 135.328609 281.824883 
L 135.328609 281.573131 
L 135.657857 281.573131 
L 135.657857 281.447255 
L 136.083243 281.447255 
L 136.170066 281.195503 
L 136.584151 281.195503 
L 136.584151 281.069628 
L 136.892314 281.069628 
L 136.92008 280.817876 
L 137.547645 280.817876 
L 137.547645 280.692 
L 138.128947 280.692 
L 138.180913 280.440248 
L 138.400179 280.440248 
L 138.400179 280.314372 
L 138.692823 280.314372 
L 138.692823 280.188497 
L 138.918715 280.188497 
L 138.918715 280.062621 
L 139.166565 280.062621 
L 139.166565 279.936745 
L 139.879255 279.936745 
L 139.879255 279.810869 
L 140.091418 279.810869 
L 140.091418 279.684993 
L 140.301214 279.684993 
L 140.301214 279.559117 
L 140.577352 279.559117 
L 140.577352 279.433241 
L 141.073312 279.433241 
L 141.084433 279.18149 
L 141.782854 279.18149 
L 141.782854 279.055614 
L 142.175106 279.055614 
L 142.175106 278.929738 
L 142.743475 278.929738 
L 142.743475 278.803862 
L 142.925817 278.803862 
L 142.925817 278.677986 
L 143.225848 278.677986 
L 143.225848 278.55211 
L 143.628302 278.55211 
L 143.628302 278.426234 
L 143.888708 278.426234 
L 143.888708 278.300359 
L 144.022326 278.300359 
L 144.126651 277.922731 
L 144.612137 277.922731 
L 144.667357 277.670979 
L 144.850261 277.670979 
L 144.904788 277.167476 
L 145.40622 277.167476 
L 145.40622 277.0416 
L 145.573357 277.0416 
L 145.573357 276.915724 
L 145.791035 276.915724 
L 145.851536 276.663972 
L 146.023332 276.663972 
L 146.074567 276.412221 
L 146.168136 276.412221 
L 146.185098 276.160469 
L 146.752911 276.160469 
L 146.8186 275.782841 
L 146.900389 275.782841 
L 146.900389 275.53109 
L 147.135588 275.53109 
L 147.135588 275.405214 
L 147.534321 275.405214 
L 147.534321 275.279338 
L 147.683651 275.279338 
L 147.683651 275.153462 
L 148.055709 275.153462 
L 148.055709 275.027586 
L 148.284563 275.027586 
L 148.284563 274.90171 
L 148.450637 274.90171 
L 148.450637 274.775834 
L 149.107908 274.775834 
L 149.107908 274.649959 
L 149.35306 274.649959 
L 149.35306 274.524083 
L 149.531303 274.524083 
L 149.531303 274.398207 
L 149.78504 274.398207 
L 149.78504 274.272331 
L 149.931489 274.272331 
L 149.931489 274.146455 
L 150.255181 274.146455 
L 150.275654 273.894703 
L 150.566682 273.894703 
L 150.653788 273.517076 
L 150.806918 273.517076 
L 150.85989 273.139448 
L 151.109488 273.139448 
L 151.109488 273.013572 
L 151.226573 273.013572 
L 151.226573 272.887697 
L 151.668766 272.887697 
L 151.70673 272.635945 
L 152.174937 272.635945 
L 152.24878 272.384193 
L 152.297848 272.384193 
L 152.334566 272.006566 
L 152.474656 272.006566 
L 152.53524 271.628938 
L 153.077776 271.628938 
L 153.154019 271.377186 
L 153.276532 271.377186 
L 153.276532 271.25131 
L 153.547871 271.25131 
L 153.633651 270.999559 
L 153.764426 270.999559 
L 153.804047 270.747807 
L 154.195735 270.747807 
L 154.195735 270.621931 
L 154.519655 270.621931 
L 154.519655 270.496055 
L 154.639024 270.496055 
L 154.639024 270.370179 
L 155.18278 270.370179 
L 155.261434 270.118428 
L 155.329337 270.118428 
L 155.339761 269.866676 
L 155.619069 269.866676 
L 155.649849 269.614924 
L 155.914518 269.614924 
L 156.020357 269.237297 
L 156.339289 269.237297 
L 156.388637 268.985545 
L 156.531019 268.985545 
L 156.531019 268.859669 
L 156.947029 268.859669 
L 156.947029 268.607917 
L 157.76159 268.607917 
L 157.76159 268.482041 
L 157.966635 268.482041 
L 157.966635 268.356166 
L 158.267842 268.356166 
L 158.312387 268.104414 
L 158.612531 268.104414 
L 158.612531 267.978538 
L 158.804221 267.978538 
L 158.907961 267.349159 
L 158.981099 267.349159 
L 158.981099 267.223283 
L 159.266613 267.223283 
L 159.296194 266.971531 
L 159.522842 266.971531 
L 159.522842 266.845655 
L 159.639297 266.845655 
L 159.717911 266.593903 
L 160.000673 266.593903 
L 160.000673 266.342152 
L 160.339266 266.342152 
L 160.430923 266.0904 
L 160.514222 266.0904 
L 160.514222 265.964524 
L 161.017976 265.964524 
L 161.017976 265.838648 
L 161.391854 265.838648 
L 161.440896 265.335145 
L 161.538599 265.335145 
L 161.538599 265.209269 
L 161.788059 265.209269 
L 161.788059 264.957517 
L 161.928087 264.957517 
L 162.019645 264.328138 
L 162.114395 264.328138 
L 162.114395 264.202262 
L 162.6625 264.202262 
L 162.6625 264.076386 
L 162.845206 264.076386 
L 162.845206 263.95051 
L 163.338686 263.95051 
L 163.369315 263.698759 
L 163.450751 263.698759 
L 163.477818 263.321131 
L 163.81623 263.321131 
L 163.81623 263.069379 
L 164.129077 263.069379 
L 164.210548 262.817628 
L 164.356312 262.817628 
L 164.356312 262.691752 
L 165.223357 262.691752 
L 165.223357 262.44 
L 165.544147 262.44 
L 165.562313 262.188248 
L 165.772971 262.188248 
L 165.772971 261.936497 
L 165.972415 261.936497 
L 166.078712 261.558869 
L 166.152178 261.558869 
L 166.152178 261.307117 
L 166.396941 261.307117 
L 166.463408 260.92949 
L 166.661411 260.92949 
L 166.661411 260.677738 
L 166.8036 260.677738 
L 166.823421 260.425986 
L 167.215518 260.425986 
L 167.295726 260.048359 
L 167.550662 260.048359 
L 167.550662 259.796607 
L 167.732209 259.796607 
L 167.732209 259.670731 
L 167.978675 259.670731 
L 168.037137 259.418979 
L 168.171969 259.418979 
L 168.1904 259.041352 
L 168.436169 259.041352 
L 168.436169 258.7896 
L 168.547534 258.7896 
L 168.547534 258.663724 
L 168.783612 258.663724 
L 168.783612 258.537848 
L 169.139773 258.537848 
L 169.239596 258.160221 
L 169.643419 258.160221 
L 169.643419 257.908469 
L 170.064978 257.908469 
L 170.064978 257.656717 
L 170.190808 257.656717 
L 170.190808 257.530841 
L 170.318152 257.530841 
L 170.318152 257.404966 
L 170.54708 257.404966 
L 170.54708 257.27909 
L 170.862513 257.27909 
L 170.862513 257.153214 
L 171.035243 257.153214 
L 171.035243 256.901462 
L 171.215367 256.901462 
L 171.215367 256.64971 
L 171.360458 256.64971 
L 171.360458 256.523834 
L 171.63199 256.523834 
L 171.6714 256.146207 
L 172.235875 256.146207 
L 172.324809 255.768579 
L 172.645272 255.768579 
L 172.657728 255.390952 
L 172.75915 255.390952 
L 172.83126 255.013324 
L 172.915383 255.013324 
L 172.915383 254.887448 
L 173.545479 254.887448 
L 173.644207 254.258069 
L 173.771783 254.258069 
L 173.793288 254.006317 
L 174.005059 254.006317 
L 174.005059 253.880441 
L 174.678701 253.880441 
L 174.678701 253.62869 
L 174.998441 253.62869 
L 174.998441 253.376938 
L 175.215265 253.376938 
L 175.215265 253.251062 
L 175.584799 253.251062 
L 175.584799 253.125186 
L 175.756321 253.125186 
L 175.756321 252.99931 
L 176.089555 252.99931 
L 176.120657 252.747559 
L 176.321577 252.747559 
L 176.37786 252.244055 
L 176.908461 252.244055 
L 176.908461 252.118179 
L 178.606027 252.118179 
L 178.606027 251.992303 
L 178.758202 251.992303 
L 178.758202 251.866428 
L 179.239683 251.866428 
L 179.239683 251.740552 
L 181.234837 251.740552 
L 181.234837 251.614676 
L 181.375071 251.614676 
L 181.375071 251.4888 
L 181.854635 251.4888 
L 181.854635 251.362924 
L 181.991603 251.362924 
L 181.991603 251.111172 
L 182.910204 251.111172 
L 182.910204 250.985297 
L 184.696353 250.985297 
L 184.696353 250.859421 
L 184.873899 250.859421 
L 184.873899 250.733545 
L 185.668864 250.733545 
L 185.668864 250.607669 
L 186.411622 250.607669 
L 186.411622 250.481793 
L 187.559703 250.481793 
L 187.616011 250.104166 
L 187.821044 250.104166 
L 187.821044 249.97829 
L 188.374526 249.97829 
L 188.374526 249.852414 
L 189.227044 249.852414 
L 189.227044 249.600662 
L 190.998068 249.600662 
L 190.998068 249.34891 
L 194.766732 249.34891 
L 194.766732 249.223034 
L 204.520281 249.223034 
L 204.520281 249.097159 
L 214.519808 249.097159 
L 214.519808 248.971283 
L 217.579474 248.971283 
L 217.579474 248.845407 
L 218.462407 248.845407 
L 218.462407 248.719531 
L 221.995811 248.719531 
L 221.995811 248.593655 
L 222.805663 248.593655 
L 222.805663 248.341903 
L 225.398948 248.341903 
L 225.398948 248.216028 
L 228.15937 248.216028 
L 228.15937 248.090152 
L 228.510381 248.090152 
L 228.510381 247.964276 
L 228.894266 247.964276 
L 228.894266 247.8384 
L 229.766441 247.8384 
L 229.766441 247.586648 
L 230.825213 247.586648 
L 230.825213 247.460772 
L 231.458898 247.460772 
L 231.458898 247.334897 
L 231.851395 247.334897 
L 231.851395 247.209021 
L 236.267067 247.209021 
L 236.267067 246.957269 
L 243.765557 246.957269 
L 243.863492 246.705517 
L 246.572575 246.705517 
L 246.572575 246.453766 
L 251.0108 246.453766 
L 251.0108 246.32789 
L 254.379266 246.32789 
L 254.379266 246.202014 
L 254.95117 246.202014 
L 254.95117 246.076138 
L 258.770456 246.076138 
L 258.798744 245.69851 
L 259.582514 245.69851 
L 259.582514 245.446759 
L 259.992315 245.446759 
L 259.992315 245.320883 
L 260.547194 245.320883 
L 260.547194 245.195007 
L 262.157005 245.195007 
L 262.157005 244.943255 
L 264.455323 244.943255 
L 264.495885 244.565628 
L 265.29657 244.565628 
L 265.29657 244.313876 
L 267.219175 244.313876 
L 267.219175 244.062124 
L 268.58122 244.062124 
L 268.58122 243.936248 
L 269.233519 243.936248 
L 269.299298 243.432745 
L 272.669112 243.432745 
L 272.669112 243.306869 
L 273.941107 243.306869 
L 273.97116 242.803366 
L 360.8064 242.803366 
L 360.8064 242.803366 
" style="fill: none; stroke: #ff00ff; stroke-width: 1.5; stroke-linecap: square"/>
   </g>
   <g id="line2d_41">
    <defs>
     <path id="m58b351e32d" d="M 0 8.485281 
L 5.091169 0 
L 0 -8.485281 
L -5.091169 0 
z
" style="stroke: #ff00ff; stroke-width: 1.5; stroke-linejoin: miter"/>
    </defs>
    <g>
     <use xlink:href="#m58b351e32d" x="154.639024" y="270.496055" style="fill-opacity: 0; stroke: #ff00ff; stroke-width: 1.5; stroke-linejoin: miter"/>
     <use xlink:href="#m58b351e32d" x="222.805663" y="248.593655" style="fill-opacity: 0; stroke: #ff00ff; stroke-width: 1.5; stroke-linejoin: miter"/>
     <use xlink:href="#m58b351e32d" x="273.97116" y="242.803366" style="fill-opacity: 0; stroke: #ff00ff; stroke-width: 1.5; stroke-linejoin: miter"/>
     <use xlink:href="#m58b351e32d" x="273.97116" y="242.803366" style="fill-opacity: 0; stroke: #ff00ff; stroke-width: 1.5; stroke-linejoin: miter"/>
     <use xlink:href="#m58b351e32d" x="360.8064" y="242.803366" style="fill-opacity: 0; stroke: #ff00ff; stroke-width: 1.5; stroke-linejoin: miter"/>
    </g>
   </g>
   <g id="line2d_42">
    <path style="fill: none; stroke: #ff00ff; stroke-width: 1.5; stroke-linecap: square"/>
    <g/>
   </g>
   <g id="line2d_43">
    <path d="M 274.176009 242.803366 
" clip-path="url(#p576fbda2d9)" style="fill: none; stroke: #ff00ff; stroke-width: 1.5; stroke-linecap: square"/>
    <defs>
     <path id="m7738bbe1a9" d="M -12 12 
L 12 -12 
M -12 -12 
L 12 12 
" style="stroke: #ff00ff"/>
    </defs>
    <g clip-path="url(#p576fbda2d9)">
     <use xlink:href="#m7738bbe1a9" x="274.176009" y="242.803366" style="fill: #ff00ff; stroke: #ff00ff"/>
    </g>
   </g>
   <g id="line2d_44">
    <defs>
     <path id="m9a0dce882f" d="M 0 1.5 
C 0.397805 1.5 0.77937 1.341951 1.06066 1.06066 
C 1.341951 0.77937 1.5 0.397805 1.5 0 
C 1.5 -0.397805 1.341951 -0.77937 1.06066 -1.06066 
C 0.77937 -1.341951 0.397805 -1.5 0 -1.5 
C -0.397805 -1.5 -0.77937 -1.341951 -1.06066 -1.06066 
C -1.341951 -0.77937 -1.5 -0.397805 -1.5 0 
C -1.5 0.397805 -1.341951 0.77937 -1.06066 1.06066 
C -0.77937 1.341951 -0.397805 1.5 0 1.5 
z
" style="stroke: #6495ed"/>
    </defs>
    <g>
     <use xlink:href="#m9a0dce882f" x="113.812756" y="271.503062" style="fill: #6495ed; stroke: #6495ed"/>
     <use xlink:href="#m9a0dce882f" x="113.812756" y="271.503062" style="fill: #6495ed; stroke: #6495ed"/>
    </g>
   </g>
   <g id="line2d_45">
    <path d="M 1.245626 298.944 
L 1.245626 298.566372 
L 14.2848 298.566372 
L 14.2848 297.936993 
L 21.912228 297.936993 
L 21.912228 297.181738 
L 27.323974 297.181738 
L 27.323974 296.300607 
L 31.521651 296.300607 
L 31.521651 295.671228 
L 34.951403 295.671228 
L 34.951403 295.419476 
L 37.851216 295.419476 
L 37.851216 295.167724 
L 40.363149 295.167724 
L 40.363149 294.915972 
L 42.578831 294.915972 
L 42.578831 294.790097 
L 44.560826 294.790097 
L 44.560826 294.412469 
L 47.990577 294.412469 
L 47.990577 294.286593 
L 49.496305 294.286593 
L 49.496305 294.160717 
L 50.890391 294.160717 
L 50.890391 294.034841 
L 52.188254 294.034841 
L 52.188254 293.908966 
L 53.402323 293.908966 
L 53.402323 293.78309 
L 54.542767 293.78309 
L 54.542767 293.657214 
L 55.618005 293.657214 
L 55.618005 293.531338 
L 61.029752 293.531338 
L 61.029752 293.279586 
L 61.797677 293.279586 
L 61.797677 293.15371 
L 65.227428 293.15371 
L 65.227428 293.027834 
L 65.844256 293.027834 
L 65.844256 292.901959 
L 66.441498 292.901959 
L 66.441498 292.776083 
L 68.65718 292.776083 
L 68.65718 292.650207 
L 69.172597 292.650207 
L 69.172597 292.524331 
L 70.639174 292.524331 
L 70.639174 292.398455 
L 71.999638 292.398455 
L 71.999638 292.272579 
L 72.854856 292.272579 
L 72.854856 292.146703 
L 73.268314 292.146703 
L 73.268314 291.894952 
L 75.574654 291.894952 
L 75.574654 291.769076 
L 77.301696 291.769076 
L 77.301696 291.517324 
L 78.266603 291.517324 
L 78.266603 291.391448 
L 78.577544 291.391448 
L 78.577544 291.265572 
L 78.88343 291.265572 
L 78.88343 291.139697 
L 79.184421 291.139697 
L 79.184421 291.013821 
L 81.433251 291.013821 
L 81.433251 290.887945 
L 81.955828 290.887945 
L 81.955828 290.762069 
L 82.713442 290.762069 
L 82.713442 290.636193 
L 84.142855 290.636193 
L 84.142855 290.384441 
L 87.686963 290.384441 
L 87.686963 290.258566 
L 89.497162 290.258566 
L 89.497162 290.13269 
L 94.865713 290.13269 
L 94.865713 290.006814 
L 95.503454 290.006814 
L 95.503454 289.880938 
L 97.296386 289.880938 
L 97.296386 289.755062 
L 97.857967 289.755062 
L 97.968299 289.50331 
L 98.510456 289.50331 
L 98.510456 289.377434 
L 99.244147 289.377434 
L 99.346662 289.125683 
L 100.147275 289.125683 
L 100.147275 288.999807 
L 100.535156 288.999807 
L 100.535156 288.873931 
L 101.102381 288.873931 
L 101.102381 288.748055 
L 102.011329 288.748055 
L 102.011329 288.622179 
L 102.275664 288.622179 
L 102.275664 288.496303 
L 102.536336 288.496303 
L 102.536336 288.370428 
L 103.544339 288.370428 
L 103.625951 287.9928 
L 103.707211 287.9928 
L 103.788121 287.363421 
L 103.868684 287.363421 
L 103.868684 287.111669 
L 104.108325 287.111669 
L 104.108325 286.985793 
L 104.344952 286.985793 
L 104.42317 286.734041 
L 104.501065 286.734041 
L 104.578638 286.356414 
L 104.655893 286.356414 
L 104.732832 285.978786 
L 104.809458 285.978786 
L 104.885773 285.349407 
L 105.037479 285.349407 
L 105.112877 284.845903 
L 105.187973 284.845903 
L 105.26277 284.090648 
L 105.337272 284.090648 
L 105.411479 283.587145 
L 105.485395 283.587145 
L 105.485395 283.335393 
L 105.632361 283.335393 
L 105.705415 283.083641 
L 105.778187 283.083641 
L 105.850679 282.328386 
L 105.922892 282.328386 
L 105.922892 281.699007 
L 106.066493 281.699007 
L 106.066493 281.321379 
L 106.209005 281.321379 
L 106.209005 281.195503 
L 106.350446 281.195503 
L 106.350446 280.943752 
L 106.490831 280.943752 
L 106.560633 280.440248 
L 106.699465 280.440248 
L 106.768498 280.188497 
L 106.837279 280.188497 
L 106.905809 279.684993 
L 106.974091 279.684993 
L 107.042125 278.803862 
L 107.109915 278.803862 
L 107.109915 278.677986 
L 107.244765 278.677986 
L 107.244765 278.300359 
L 107.577722 278.300359 
L 107.577722 278.048607 
L 107.774703 278.048607 
L 107.839908 277.796855 
L 108.034177 277.796855 
L 108.034177 277.167476 
L 108.162584 277.167476 
L 108.22646 276.789848 
L 108.29012 276.789848 
L 108.29012 276.412221 
L 108.479818 276.412221 
L 108.479818 276.286345 
L 108.667622 276.286345 
L 108.729809 276.034593 
L 108.85357 276.034593 
L 108.85357 275.908717 
L 109.037698 275.908717 
L 109.098675 275.405214 
L 109.22004 275.405214 
L 109.22004 275.153462 
L 109.400633 275.153462 
L 109.460447 274.90171 
L 109.932235 274.90171 
L 109.932235 274.775834 
L 110.048356 274.775834 
L 110.106149 274.146455 
L 110.335561 274.146455 
L 110.392479 273.768828 
L 110.618446 273.768828 
L 110.618446 273.642952 
L 110.897141 273.642952 
L 110.897141 273.517076 
L 111.062397 273.517076 
L 111.117162 273.265324 
L 111.280505 273.265324 
L 111.334639 273.013572 
L 111.920053 273.013572 
L 111.920053 272.887697 
L 112.180244 272.887697 
L 112.283321 272.635945 
L 112.487797 272.635945 
L 112.487797 272.384193 
L 112.690074 272.384193 
L 112.690074 272.258317 
L 113.088217 272.258317 
L 113.088217 272.132441 
L 113.284172 272.132441 
L 113.284172 272.006566 
L 113.429811 272.006566 
L 113.429811 271.88069 
L 113.670063 271.88069 
L 113.670063 271.628938 
L 113.812756 271.628938 
L 113.812756 271.503062 
L 360.8064 271.503062 
L 360.8064 271.503062 
" style="fill: none; stroke: #6495ed; stroke-width: 1.5; stroke-linecap: square"/>
   </g>
   <g id="line2d_46">
    <defs>
     <path id="mb918ec4357" d="M -0 6 
L 6 -6 
L -6 -6 
z
" style="stroke: #6495ed; stroke-width: 1.5; stroke-linejoin: miter"/>
    </defs>
    <g>
     <use xlink:href="#mb918ec4357" x="71.999638" y="292.398455" style="fill-opacity: 0; stroke: #6495ed; stroke-width: 1.5; stroke-linejoin: miter"/>
     <use xlink:href="#mb918ec4357" x="113.812756" y="271.628938" style="fill-opacity: 0; stroke: #6495ed; stroke-width: 1.5; stroke-linejoin: miter"/>
     <use xlink:href="#mb918ec4357" x="113.812756" y="271.628938" style="fill-opacity: 0; stroke: #6495ed; stroke-width: 1.5; stroke-linejoin: miter"/>
     <use xlink:href="#mb918ec4357" x="113.812756" y="271.503062" style="fill-opacity: 0; stroke: #6495ed; stroke-width: 1.5; stroke-linejoin: miter"/>
     <use xlink:href="#mb918ec4357" x="113.812756" y="271.503062" style="fill-opacity: 0; stroke: #6495ed; stroke-width: 1.5; stroke-linejoin: miter"/>
     <use xlink:href="#mb918ec4357" x="360.8064" y="271.503062" style="fill-opacity: 0; stroke: #6495ed; stroke-width: 1.5; stroke-linejoin: miter"/>
    </g>
   </g>
   <g id="line2d_47">
    <path style="fill: none; stroke: #6495ed; stroke-width: 1.5; stroke-linecap: square"/>
    <g/>
   </g>
   <g id="line2d_48">
    <path d="M 113.954374 271.503062 
" clip-path="url(#p576fbda2d9)" style="fill: none; stroke: #6495ed; stroke-width: 1.5; stroke-linecap: square"/>
    <defs>
     <path id="mf5a57fbb2a" d="M -12 12 
L 12 -12 
M -12 -12 
L 12 12 
" style="stroke: #6495ed"/>
    </defs>
    <g clip-path="url(#p576fbda2d9)">
     <use xlink:href="#mf5a57fbb2a" x="113.954374" y="271.503062" style="fill: #6495ed; stroke: #6495ed"/>
    </g>
   </g>
   <g id="line2d_49">
    <path d="M 360.8064 284.216524 
L 380.514816 293.10336 
" style="fill: none; stroke: #000080; stroke-width: 1.5; stroke-linecap: square"/>
    <g>
     <use xlink:href="#mfdeb1666b1" x="360.8064" y="284.216524" style="fill-opacity: 0; stroke: #000080; stroke-width: 1.5"/>
     <use xlink:href="#mfdeb1666b1" x="380.514816" y="293.10336" style="fill-opacity: 0; stroke: #000080; stroke-width: 1.5"/>
    </g>
   </g>
   <g id="line2d_50">
    <path d="M 360.8064 271.503062 
L 380.514816 199.65312 
" style="fill: none; stroke: #6495ed; stroke-width: 1.5; stroke-linecap: square"/>
    <g>
     <use xlink:href="#mb918ec4357" x="360.8064" y="271.503062" style="fill-opacity: 0; stroke: #6495ed; stroke-width: 1.5; stroke-linejoin: miter"/>
     <use xlink:href="#mb918ec4357" x="380.514816" y="199.65312" style="fill-opacity: 0; stroke: #6495ed; stroke-width: 1.5; stroke-linejoin: miter"/>
    </g>
   </g>
   <g id="line2d_51">
    <path d="M 360.8064 242.803366 
L 380.514816 106.20288 
" style="fill: none; stroke: #ff00ff; stroke-width: 1.5; stroke-linecap: square"/>
    <g>
     <use xlink:href="#m58b351e32d" x="360.8064" y="242.803366" style="fill-opacity: 0; stroke: #ff00ff; stroke-width: 1.5; stroke-linejoin: miter"/>
     <use xlink:href="#m58b351e32d" x="380.514816" y="106.20288" style="fill-opacity: 0; stroke: #ff00ff; stroke-width: 1.5; stroke-linejoin: miter"/>
    </g>
   </g>
   <g id="line2d_52">
    <path d="M 360.8064 298.944 
L 360.8064 6.912 
" style="fill: none; stroke: #000000; stroke-width: 1.5; stroke-linecap: square"/>
   </g>
   <g id="patch_3">
    <path d="M 57.6 298.944 
L 360.8064 298.944 
" style="fill: none; stroke: #000000; stroke-width: 0.8; stroke-linejoin: miter; stroke-linecap: square"/>
   </g>
   <g id="patch_4">
    <path d="M 57.6 6.912 
L 360.8064 6.912 
" style="fill: none; stroke: #000000; stroke-width: 0.8; stroke-linejoin: miter; stroke-linecap: square"/>
   </g>
   <g id="text_13">
    <!-- cma -->
    <g transform="translate(386.578944 296.966485)scale(0.14 -0.14)">
     <use xlink:href="#DejaVuSans-63"/>
     <use xlink:href="#DejaVuSans-6d" x="54.980469"/>
     <use xlink:href="#DejaVuSans-61" x="152.392578"/>
    </g>
   </g>
   <g id="text_14">
    <!-- parEgo -->
    <g transform="translate(386.578944 203.516245)scale(0.14 -0.14)">
     <defs>
      <path id="DejaVuSans-45" d="M 628 4666 
L 3578 4666 
L 3578 4134 
L 1259 4134 
L 1259 2753 
L 3481 2753 
L 3481 2222 
L 1259 2222 
L 1259 531 
L 3634 531 
L 3634 0 
L 628 0 
L 628 4666 
z
" transform="scale(0.015625)"/>
     </defs>
     <use xlink:href="#DejaVuSans-70"/>
     <use xlink:href="#DejaVuSans-61" x="63.476562"/>
     <use xlink:href="#DejaVuSans-72" x="124.755859"/>
     <use xlink:href="#DejaVuSans-45" x="165.869141"/>
     <use xlink:href="#DejaVuSans-67" x="229.052734"/>
     <use xlink:href="#DejaVuSans-6f" x="292.529297"/>
    </g>
   </g>
   <g id="text_15">
    <!-- external- -->
    <g transform="translate(386.578944 110.066005)scale(0.14 -0.14)">
     <defs>
      <path id="DejaVuSans-78" d="M 3513 3500 
L 2247 1797 
L 3578 0 
L 2900 0 
L 1881 1375 
L 863 0 
L 184 0 
L 1544 1831 
L 300 3500 
L 978 3500 
L 1906 2253 
L 2834 3500 
L 3513 3500 
z
" transform="scale(0.015625)"/>
     </defs>
     <use xlink:href="#DejaVuSans-65"/>
     <use xlink:href="#DejaVuSans-78" x="59.773438"/>
     <use xlink:href="#DejaVuSans-74" x="118.953125"/>
     <use xlink:href="#DejaVuSans-65" x="158.162109"/>
     <use xlink:href="#DejaVuSans-72" x="219.685547"/>
     <use xlink:href="#DejaVuSans-6e" x="259.048828"/>
     <use xlink:href="#DejaVuSans-61" x="322.427734"/>
     <use xlink:href="#DejaVuSans-6c" x="383.707031"/>
     <use xlink:href="#DejaVuSans-2d" x="411.490234"/>
    </g>
   </g>
   <g id="text_16">
    <!-- best 2016 -->
    <g transform="translate(386.578944 16.615765)scale(0.14 -0.14)">
     <defs>
      <path id="DejaVuSans-62" d="M 3116 1747 
Q 3116 2381 2855 2742 
Q 2594 3103 2138 3103 
Q 1681 3103 1420 2742 
Q 1159 2381 1159 1747 
Q 1159 1113 1420 752 
Q 1681 391 2138 391 
Q 2594 391 2855 752 
Q 3116 1113 3116 1747 
z
M 1159 2969 
Q 1341 3281 1617 3432 
Q 1894 3584 2278 3584 
Q 2916 3584 3314 3078 
Q 3713 2572 3713 1747 
Q 3713 922 3314 415 
Q 2916 -91 2278 -91 
Q 1894 -91 1617 61 
Q 1341 213 1159 525 
L 1159 0 
L 581 0 
L 581 4863 
L 1159 4863 
L 1159 2969 
z
" transform="scale(0.015625)"/>
     </defs>
     <use xlink:href="#DejaVuSans-62"/>
     <use xlink:href="#DejaVuSans-65" x="63.476562"/>
     <use xlink:href="#DejaVuSans-73" x="125"/>
     <use xlink:href="#DejaVuSans-74" x="177.099609"/>
     <use xlink:href="#DejaVuSans-20" x="216.308594"/>
     <use xlink:href="#DejaVuSans-32" x="248.095703"/>
     <use xlink:href="#DejaVuSans-30" x="311.71875"/>
     <use xlink:href="#DejaVuSans-31" x="375.341797"/>
     <use xlink:href="#DejaVuSans-36" x="438.964844"/>
    </g>
   </g>
   <g id="text_17">
    <!-- bbob-biobj f7, f8, f16, f17, 20-D -->
    <g transform="translate(60.632064 17.582726)scale(0.102 -0.102)">
     <defs>
      <path id="DejaVuSans-6a" d="M 603 3500 
L 1178 3500 
L 1178 -63 
Q 1178 -731 923 -1031 
Q 669 -1331 103 -1331 
L -116 -1331 
L -116 -844 
L 38 -844 
Q 366 -844 484 -692 
Q 603 -541 603 -63 
L 603 3500 
z
M 603 4863 
L 1178 4863 
L 1178 4134 
L 603 4134 
L 603 4863 
z
" transform="scale(0.015625)"/>
      <path id="DejaVuSans-37" d="M 525 4666 
L 3525 4666 
L 3525 4397 
L 1831 0 
L 1172 0 
L 2766 4134 
L 525 4134 
L 525 4666 
z
" transform="scale(0.015625)"/>
      <path id="DejaVuSans-44" d="M 1259 4147 
L 1259 519 
L 2022 519 
Q 2988 519 3436 956 
Q 3884 1394 3884 2338 
Q 3884 3275 3436 3711 
Q 2988 4147 2022 4147 
L 1259 4147 
z
M 628 4666 
L 1925 4666 
Q 3281 4666 3915 4102 
Q 4550 3538 4550 2338 
Q 4550 1131 3912 565 
Q 3275 0 1925 0 
L 628 0 
L 628 4666 
z
" transform="scale(0.015625)"/>
     </defs>
     <use xlink:href="#DejaVuSans-62"/>
     <use xlink:href="#DejaVuSans-62" x="63.476562"/>
     <use xlink:href="#DejaVuSans-6f" x="126.953125"/>
     <use xlink:href="#DejaVuSans-62" x="188.134766"/>
     <use xlink:href="#DejaVuSans-2d" x="251.611328"/>
     <use xlink:href="#DejaVuSans-62" x="287.695312"/>
     <use xlink:href="#DejaVuSans-69" x="351.171875"/>
     <use xlink:href="#DejaVuSans-6f" x="378.955078"/>
     <use xlink:href="#DejaVuSans-62" x="440.136719"/>
     <use xlink:href="#DejaVuSans-6a" x="503.613281"/>
     <use xlink:href="#DejaVuSans-20" x="531.396484"/>
     <use xlink:href="#DejaVuSans-66" x="563.183594"/>
     <use xlink:href="#DejaVuSans-37" x="598.388672"/>
     <use xlink:href="#DejaVuSans-2c" x="662.011719"/>
     <use xlink:href="#DejaVuSans-20" x="693.798828"/>
     <use xlink:href="#DejaVuSans-66" x="725.585938"/>
     <use xlink:href="#DejaVuSans-38" x="760.791016"/>
     <use xlink:href="#DejaVuSans-2c" x="824.414062"/>
     <use xlink:href="#DejaVuSans-20" x="856.201172"/>
     <use xlink:href="#DejaVuSans-66" x="887.988281"/>
     <use xlink:href="#DejaVuSans-31" x="923.193359"/>
     <use xlink:href="#DejaVuSans-36" x="986.816406"/>
     <use xlink:href="#DejaVuSans-2c" x="1050.439453"/>
     <use xlink:href="#DejaVuSans-20" x="1082.226562"/>
     <use xlink:href="#DejaVuSans-66" x="1114.013672"/>
     <use xlink:href="#DejaVuSans-31" x="1149.21875"/>
     <use xlink:href="#DejaVuSans-37" x="1212.841797"/>
     <use xlink:href="#DejaVuSans-2c" x="1276.464844"/>
     <use xlink:href="#DejaVuSans-20" x="1308.251953"/>
     <use xlink:href="#DejaVuSans-32" x="1340.039062"/>
     <use xlink:href="#DejaVuSans-30" x="1403.662109"/>
     <use xlink:href="#DejaVuSans-2d" x="1467.285156"/>
     <use xlink:href="#DejaVuSans-44" x="1503.369141"/>
    </g>
    <!-- 58 targets: 1..-1.0e-4 -->
    <g transform="translate(60.632064 29.004495)scale(0.102 -0.102)">
     <defs>
      <path id="DejaVuSans-35" d="M 691 4666 
L 3169 4666 
L 3169 4134 
L 1269 4134 
L 1269 2991 
Q 1406 3038 1543 3061 
Q 1681 3084 1819 3084 
Q 2600 3084 3056 2656 
Q 3513 2228 3513 1497 
Q 3513 744 3044 326 
Q 2575 -91 1722 -91 
Q 1428 -91 1123 -41 
Q 819 9 494 109 
L 494 744 
Q 775 591 1075 516 
Q 1375 441 1709 441 
Q 2250 441 2565 725 
Q 2881 1009 2881 1497 
Q 2881 1984 2565 2268 
Q 2250 2553 1709 2553 
Q 1456 2553 1204 2497 
Q 953 2441 691 2322 
L 691 4666 
z
" transform="scale(0.015625)"/>
      <path id="DejaVuSans-3a" d="M 750 794 
L 1409 794 
L 1409 0 
L 750 0 
L 750 794 
z
M 750 3309 
L 1409 3309 
L 1409 2516 
L 750 2516 
L 750 3309 
z
" transform="scale(0.015625)"/>
     </defs>
     <use xlink:href="#DejaVuSans-35"/>
     <use xlink:href="#DejaVuSans-38" x="63.623047"/>
     <use xlink:href="#DejaVuSans-20" x="127.246094"/>
     <use xlink:href="#DejaVuSans-74" x="159.033203"/>
     <use xlink:href="#DejaVuSans-61" x="198.242188"/>
     <use xlink:href="#DejaVuSans-72" x="259.521484"/>
     <use xlink:href="#DejaVuSans-67" x="298.884766"/>
     <use xlink:href="#DejaVuSans-65" x="362.361328"/>
     <use xlink:href="#DejaVuSans-74" x="423.884766"/>
     <use xlink:href="#DejaVuSans-73" x="463.09375"/>
     <use xlink:href="#DejaVuSans-3a" x="515.193359"/>
     <use xlink:href="#DejaVuSans-20" x="548.884766"/>
     <use xlink:href="#DejaVuSans-31" x="580.671875"/>
     <use xlink:href="#DejaVuSans-2e" x="644.294922"/>
     <use xlink:href="#DejaVuSans-2e" x="676.082031"/>
     <use xlink:href="#DejaVuSans-2d" x="707.869141"/>
     <use xlink:href="#DejaVuSans-31" x="743.953125"/>
     <use xlink:href="#DejaVuSans-2e" x="807.576172"/>
     <use xlink:href="#DejaVuSans-30" x="839.363281"/>
     <use xlink:href="#DejaVuSans-65" x="902.986328"/>
     <use xlink:href="#DejaVuSans-2d" x="964.509766"/>
     <use xlink:href="#DejaVuSans-34" x="1000.59375"/>
    </g>
    <!-- 10 instances -->
    <g transform="translate(60.632064 40.426264)scale(0.102 -0.102)">
     <use xlink:href="#DejaVuSans-31"/>
     <use xlink:href="#DejaVuSans-30" x="63.623047"/>
     <use xlink:href="#DejaVuSans-20" x="127.246094"/>
     <use xlink:href="#DejaVuSans-69" x="159.033203"/>
     <use xlink:href="#DejaVuSans-6e" x="186.816406"/>
     <use xlink:href="#DejaVuSans-73" x="250.195312"/>
     <use xlink:href="#DejaVuSans-74" x="302.294922"/>
     <use xlink:href="#DejaVuSans-61" x="341.503906"/>
     <use xlink:href="#DejaVuSans-6e" x="402.783203"/>
     <use xlink:href="#DejaVuSans-63" x="466.162109"/>
     <use xlink:href="#DejaVuSans-65" x="521.142578"/>
     <use xlink:href="#DejaVuSans-73" x="582.666016"/>
    </g>
   </g>
   <g id="text_18">
    <!-- v2.6, hv-hash=ff0e71e8cd978373 -->
    <g style="fill: #808080" transform="translate(123.707887 293.943992)scale(0.1 -0.1)">
     <defs>
      <path id="DejaVuSans-68" d="M 3513 2113 
L 3513 0 
L 2938 0 
L 2938 2094 
Q 2938 2591 2744 2837 
Q 2550 3084 2163 3084 
Q 1697 3084 1428 2787 
Q 1159 2491 1159 1978 
L 1159 0 
L 581 0 
L 581 4863 
L 1159 4863 
L 1159 2956 
Q 1366 3272 1645 3428 
Q 1925 3584 2291 3584 
Q 2894 3584 3203 3211 
Q 3513 2838 3513 2113 
z
" transform="scale(0.015625)"/>
      <path id="DejaVuSans-3d" d="M 678 2906 
L 4684 2906 
L 4684 2381 
L 678 2381 
L 678 2906 
z
M 678 1631 
L 4684 1631 
L 4684 1100 
L 678 1100 
L 678 1631 
z
" transform="scale(0.015625)"/>
      <path id="DejaVuSans-39" d="M 703 97 
L 703 672 
Q 941 559 1184 500 
Q 1428 441 1663 441 
Q 2288 441 2617 861 
Q 2947 1281 2994 2138 
Q 2813 1869 2534 1725 
Q 2256 1581 1919 1581 
Q 1219 1581 811 2004 
Q 403 2428 403 3163 
Q 403 3881 828 4315 
Q 1253 4750 1959 4750 
Q 2769 4750 3195 4129 
Q 3622 3509 3622 2328 
Q 3622 1225 3098 567 
Q 2575 -91 1691 -91 
Q 1453 -91 1209 -44 
Q 966 3 703 97 
z
M 1959 2075 
Q 2384 2075 2632 2365 
Q 2881 2656 2881 3163 
Q 2881 3666 2632 3958 
Q 2384 4250 1959 4250 
Q 1534 4250 1286 3958 
Q 1038 3666 1038 3163 
Q 1038 2656 1286 2365 
Q 1534 2075 1959 2075 
z
" transform="scale(0.015625)"/>
      <path id="DejaVuSans-33" d="M 2597 2516 
Q 3050 2419 3304 2112 
Q 3559 1806 3559 1356 
Q 3559 666 3084 287 
Q 2609 -91 1734 -91 
Q 1441 -91 1130 -33 
Q 819 25 488 141 
L 488 750 
Q 750 597 1062 519 
Q 1375 441 1716 441 
Q 2309 441 2620 675 
Q 2931 909 2931 1356 
Q 2931 1769 2642 2001 
Q 2353 2234 1838 2234 
L 1294 2234 
L 1294 2753 
L 1863 2753 
Q 2328 2753 2575 2939 
Q 2822 3125 2822 3475 
Q 2822 3834 2567 4026 
Q 2313 4219 1838 4219 
Q 1578 4219 1281 4162 
Q 984 4106 628 3988 
L 628 4550 
Q 988 4650 1302 4700 
Q 1616 4750 1894 4750 
Q 2613 4750 3031 4423 
Q 3450 4097 3450 3541 
Q 3450 3153 3228 2886 
Q 3006 2619 2597 2516 
z
" transform="scale(0.015625)"/>
     </defs>
     <use xlink:href="#DejaVuSans-76"/>
     <use xlink:href="#DejaVuSans-32" x="59.179688"/>
     <use xlink:href="#DejaVuSans-2e" x="122.802734"/>
     <use xlink:href="#DejaVuSans-36" x="154.589844"/>
     <use xlink:href="#DejaVuSans-2c" x="218.212891"/>
     <use xlink:href="#DejaVuSans-20" x="250"/>
     <use xlink:href="#DejaVuSans-68" x="281.787109"/>
     <use xlink:href="#DejaVuSans-76" x="345.166016"/>
     <use xlink:href="#DejaVuSans-2d" x="401.720703"/>
     <use xlink:href="#DejaVuSans-68" x="437.804688"/>
     <use xlink:href="#DejaVuSans-61" x="501.183594"/>
     <use xlink:href="#DejaVuSans-73" x="562.462891"/>
     <use xlink:href="#DejaVuSans-68" x="614.5625"/>
     <use xlink:href="#DejaVuSans-3d" x="677.941406"/>
     <use xlink:href="#DejaVuSans-66" x="761.730469"/>
     <use xlink:href="#DejaVuSans-66" x="796.935547"/>
     <use xlink:href="#DejaVuSans-30" x="832.140625"/>
     <use xlink:href="#DejaVuSans-65" x="895.763672"/>
     <use xlink:href="#DejaVuSans-37" x="957.287109"/>
     <use xlink:href="#DejaVuSans-31" x="1020.910156"/>
     <use xlink:href="#DejaVuSans-65" x="1084.533203"/>
     <use xlink:href="#DejaVuSans-38" x="1146.056641"/>
     <use xlink:href="#DejaVuSans-63" x="1209.679688"/>
     <use xlink:href="#DejaVuSans-64" x="1264.660156"/>
     <use xlink:href="#DejaVuSans-39" x="1328.136719"/>
     <use xlink:href="#DejaVuSans-37" x="1391.759766"/>
     <use xlink:href="#DejaVuSans-38" x="1455.382812"/>
     <use xlink:href="#DejaVuSans-33" x="1519.005859"/>
     <use xlink:href="#DejaVuSans-37" x="1582.628906"/>
     <use xlink:href="#DejaVuSans-33" x="1646.251953"/>
    </g>
   </g>
  </g>
 </g>
 <defs>
  <clipPath id="p576fbda2d9">
   <rect x="57.6" y="6.912" width="303.2064" height="292.032"/>
  </clipPath>
 </defs>
</svg>
