<?xml version="1.0" encoding="utf-8" standalone="no"?>
<!DOCTYPE svg PUBLIC "-//W3C//DTD SVG 1.1//EN"
  "http://www.w3.org/Graphics/SVG/1.1/DTD/svg11.dtd">
<svg xmlns:xlink="http://www.w3.org/1999/xlink" width="460.8pt" height="345.6pt" viewBox="0 0 460.8 345.6" xmlns="http://www.w3.org/2000/svg" version="1.1">
 <metadata>
  <rdf:RDF xmlns:dc="http://purl.org/dc/elements/1.1/" xmlns:cc="http://creativecommons.org/ns#" xmlns:rdf="http://www.w3.org/1999/02/22-rdf-syntax-ns#">
   <cc:Work>
    <dc:type rdf:resource="http://purl.org/dc/dcmitype/StillImage"/>
    <dc:date>2022-06-19T21:02:55.266752</dc:date>
    <dc:format>image/svg+xml</dc:format>
    <dc:creator>
     <cc:Agent>
      <dc:title>Matplotlib v3.5.1, https://matplotlib.org/</dc:title>
     </cc:Agent>
    </dc:creator>
   </cc:Work>
  </rdf:RDF>
 </metadata>
 <defs>
  <style type="text/css">*{stroke-linejoin: round; stroke-linecap: butt}</style>
 </defs>
 <g id="figure_1">
  <g id="patch_1">
   <path d="M 0 345.6 
L 460.8 345.6 
L 460.8 0 
L 0 0 
z
" style="fill: #ffffff"/>
  </g>
  <g id="axes_1">
   <g id="patch_2">
    <path d="M 57.6 298.944 
L 360.8064 298.944 
L 360.8064 6.912 
L 57.6 6.912 
z
" style="fill: #ffffff"/>
   </g>
   <g id="line2d_1">
    <path d="M 14.2848 298.944 
L 14.2848 296.426483 
L 27.323974 296.426483 
L 27.323974 293.908966 
L 47.990577 293.908966 
L 47.990577 288.873931 
L 71.556993 288.873931 
L 71.556993 286.356414 
L 83.202082 286.356414 
L 83.202082 283.838897 
L 91.616719 283.838897 
L 91.616719 281.321379 
L 97.635342 281.321379 
L 97.635342 278.803862 
L 100.9152 278.803862 
L 100.9152 276.286345 
L 115.661605 276.286345 
L 115.661605 273.768828 
L 128.310214 273.768828 
L 128.310214 272.510069 
L 146.908549 272.510069 
L 146.908549 271.25131 
L 147.407644 271.25131 
L 147.407644 269.992552 
L 167.290205 269.992552 
L 167.290205 268.733793 
L 167.716022 268.733793 
L 167.716022 264.957517 
L 170.233352 264.957517 
L 170.233352 261.181241 
L 175.171736 261.181241 
L 175.171736 258.663724 
L 175.898362 258.663724 
L 175.898362 254.887448 
L 176.838794 254.887448 
L 176.838794 251.111172 
L 182.168936 251.111172 
L 182.168936 249.852414 
L 187.676822 249.852414 
L 187.676822 247.334897 
L 190.418521 247.334897 
L 190.418521 244.817379 
L 197.522007 244.817379 
L 197.522007 242.299862 
L 198.779611 242.299862 
L 198.779611 239.782345 
L 208.475593 239.782345 
L 208.475593 238.523586 
L 210.655033 238.523586 
L 210.655033 237.264828 
L 215.394636 237.264828 
L 215.394636 236.006069 
L 222.982072 236.006069 
L 222.982072 233.488552 
L 228.383019 233.488552 
L 228.383019 230.971034 
L 235.008598 230.971034 
L 235.008598 227.194759 
L 235.243572 227.194759 
L 235.243572 224.677241 
L 236.003078 224.677241 
L 236.003078 220.900966 
L 238.553329 220.900966 
L 238.553329 217.12469 
L 245.28763 217.12469 
L 245.28763 214.607172 
L 245.452384 214.607172 
L 245.452384 212.089655 
L 247.696864 212.089655 
L 247.696864 208.313379 
L 249.857789 208.313379 
L 249.857789 205.795862 
L 253.000283 205.795862 
L 253.000283 203.278345 
L 260.799883 203.278345 
L 260.835663 198.24331 
L 265.683015 198.24331 
L 265.683015 195.725793 
L 266.510364 195.725793 
L 266.510364 193.208276 
L 275.03419 193.208276 
L 275.03419 190.690759 
L 275.20457 190.690759 
L 275.20457 189.432 
L 276.557063 189.432 
L 276.557063 186.914483 
L 280.235872 186.914483 
L 280.235872 184.396966 
L 287.346583 184.396966 
L 287.346583 180.62069 
L 287.808907 180.62069 
L 287.808907 178.103172 
L 290.660854 178.103172 
L 290.660854 176.844414 
L 294.483917 176.844414 
L 294.483917 175.585655 
L 298.787227 175.585655 
L 298.787227 174.326897 
L 299.009745 174.326897 
L 299.009745 173.068138 
L 304.281891 173.068138 
L 304.281891 169.291862 
L 309.187798 169.291862 
L 309.187798 165.515586 
L 309.827617 165.515586 
L 309.827617 161.73931 
L 311.519336 161.73931 
L 311.519336 157.963034 
L 320.090426 157.963034 
L 320.090426 156.704276 
L 321.497063 156.704276 
L 321.497063 155.445517 
L 322.047649 155.445517 
L 322.047649 152.928 
L 322.813265 152.928 
L 322.841704 147.892966 
L 327.859388 147.892966 
L 327.859388 144.11669 
L 328.440138 144.11669 
L 328.440138 141.599172 
L 332.945349 141.599172 
L 333.028612 136.564138 
L 340.168595 136.564138 
L 340.276833 131.529103 
L 341.11439 131.529103 
L 341.11439 130.270345 
L 348.912645 130.270345 
L 348.912645 126.494069 
L 349.309121 126.494069 
L 349.309121 125.23531 
L 349.621916 125.23531 
L 349.621916 121.459034 
L 360.8064 121.459034 
L 360.8064 121.459034 
" style="fill: none; stroke: #f5deb3; stroke-width: 4; stroke-linecap: square"/>
   </g>
   <g id="line2d_2">
    <defs>
     <path id="mfd6eb3e8e6" d="M 0 7.778175 
L 7.778175 0 
L 0 -7.778175 
L -7.778175 0 
z
" style="stroke: #f5deb3; stroke-width: 1.5; stroke-linejoin: miter"/>
    </defs>
    <g>
     <use xlink:href="#mfd6eb3e8e6" x="100.9152" y="278.803862" style="fill: #f5deb3; stroke: #f5deb3; stroke-width: 1.5; stroke-linejoin: miter"/>
     <use xlink:href="#mfd6eb3e8e6" x="197.522007" y="244.817379" style="fill: #f5deb3; stroke: #f5deb3; stroke-width: 1.5; stroke-linejoin: miter"/>
     <use xlink:href="#mfd6eb3e8e6" x="280.235872" y="186.914483" style="fill: #f5deb3; stroke: #f5deb3; stroke-width: 1.5; stroke-linejoin: miter"/>
     <use xlink:href="#mfd6eb3e8e6" x="332.945349" y="140.340414" style="fill: #f5deb3; stroke: #f5deb3; stroke-width: 1.5; stroke-linejoin: miter"/>
     <use xlink:href="#mfd6eb3e8e6" x="349.621916" y="121.459034" style="fill: #f5deb3; stroke: #f5deb3; stroke-width: 1.5; stroke-linejoin: miter"/>
     <use xlink:href="#mfd6eb3e8e6" x="360.8064" y="121.459034" style="fill: #f5deb3; stroke: #f5deb3; stroke-width: 1.5; stroke-linejoin: miter"/>
    </g>
   </g>
   <g id="line2d_3">
    <path style="fill: none; stroke: #f5deb3; stroke-width: 4; stroke-linecap: square"/>
    <g/>
   </g>
   <g id="line2d_4">
    <path d="M 360.8064 121.459034 
L 380.514816 12.75264 
" style="fill: none; stroke: #f5deb3; stroke-width: 4; stroke-linecap: square"/>
    <g>
     <use xlink:href="#mfd6eb3e8e6" x="360.8064" y="121.459034" style="fill: #f5deb3; stroke: #f5deb3; stroke-width: 1.5; stroke-linejoin: miter"/>
     <use xlink:href="#mfd6eb3e8e6" x="380.514816" y="12.75264" style="fill: #f5deb3; stroke: #f5deb3; stroke-width: 1.5; stroke-linejoin: miter"/>
    </g>
   </g>
   <g id="matplotlib.axis_1">
    <g id="xtick_1">
     <g id="line2d_5">
      <path d="M 57.6 298.944 
L 57.6 6.912 
" clip-path="url(#p3b14061280)" style="fill: none; stroke: #b0b0b0; stroke-width: 0.8; stroke-linecap: square"/>
     </g>
     <g id="line2d_6">
      <defs>
       <path id="m8d3c8a2fd5" d="M 0 0 
L 0 3.5 
" style="stroke: #000000; stroke-width: 0.8"/>
      </defs>
      <g>
       <use xlink:href="#m8d3c8a2fd5" x="57.6" y="298.944" style="stroke: #000000; stroke-width: 0.8"/>
      </g>
     </g>
     <g id="text_1">
      <!-- 0 -->
      <g transform="translate(52.191875 318.861344)scale(0.17 -0.17)">
       <defs>
        <path id="DejaVuSans-30" d="M 2034 4250 
Q 1547 4250 1301 3770 
Q 1056 3291 1056 2328 
Q 1056 1369 1301 889 
Q 1547 409 2034 409 
Q 2525 409 2770 889 
Q 3016 1369 3016 2328 
Q 3016 3291 2770 3770 
Q 2525 4250 2034 4250 
z
M 2034 4750 
Q 2819 4750 3233 4129 
Q 3647 3509 3647 2328 
Q 3647 1150 3233 529 
Q 2819 -91 2034 -91 
Q 1250 -91 836 529 
Q 422 1150 422 2328 
Q 422 3509 836 4129 
Q 1250 4750 2034 4750 
z
" transform="scale(0.015625)"/>
       </defs>
       <use xlink:href="#DejaVuSans-30"/>
      </g>
     </g>
    </g>
    <g id="xtick_2">
     <g id="line2d_7">
      <path d="M 144.2304 298.944 
L 144.2304 6.912 
" clip-path="url(#p3b14061280)" style="fill: none; stroke: #b0b0b0; stroke-width: 0.8; stroke-linecap: square"/>
     </g>
     <g id="line2d_8">
      <g>
       <use xlink:href="#m8d3c8a2fd5" x="144.2304" y="298.944" style="stroke: #000000; stroke-width: 0.8"/>
      </g>
     </g>
     <g id="text_2">
      <!-- 2 -->
      <g transform="translate(138.822275 318.861344)scale(0.17 -0.17)">
       <defs>
        <path id="DejaVuSans-32" d="M 1228 531 
L 3431 531 
L 3431 0 
L 469 0 
L 469 531 
Q 828 903 1448 1529 
Q 2069 2156 2228 2338 
Q 2531 2678 2651 2914 
Q 2772 3150 2772 3378 
Q 2772 3750 2511 3984 
Q 2250 4219 1831 4219 
Q 1534 4219 1204 4116 
Q 875 4013 500 3803 
L 500 4441 
Q 881 4594 1212 4672 
Q 1544 4750 1819 4750 
Q 2544 4750 2975 4387 
Q 3406 4025 3406 3419 
Q 3406 3131 3298 2873 
Q 3191 2616 2906 2266 
Q 2828 2175 2409 1742 
Q 1991 1309 1228 531 
z
" transform="scale(0.015625)"/>
       </defs>
       <use xlink:href="#DejaVuSans-32"/>
      </g>
     </g>
    </g>
    <g id="xtick_3">
     <g id="line2d_9">
      <path d="M 230.8608 298.944 
L 230.8608 6.912 
" clip-path="url(#p3b14061280)" style="fill: none; stroke: #b0b0b0; stroke-width: 0.8; stroke-linecap: square"/>
     </g>
     <g id="line2d_10">
      <g>
       <use xlink:href="#m8d3c8a2fd5" x="230.8608" y="298.944" style="stroke: #000000; stroke-width: 0.8"/>
      </g>
     </g>
     <g id="text_3">
      <!-- 4 -->
      <g transform="translate(225.452675 318.861344)scale(0.17 -0.17)">
       <defs>
        <path id="DejaVuSans-34" d="M 2419 4116 
L 825 1625 
L 2419 1625 
L 2419 4116 
z
M 2253 4666 
L 3047 4666 
L 3047 1625 
L 3713 1625 
L 3713 1100 
L 3047 1100 
L 3047 0 
L 2419 0 
L 2419 1100 
L 313 1100 
L 313 1709 
L 2253 4666 
z
" transform="scale(0.015625)"/>
       </defs>
       <use xlink:href="#DejaVuSans-34"/>
      </g>
     </g>
    </g>
    <g id="xtick_4">
     <g id="line2d_11">
      <path d="M 317.4912 298.944 
L 317.4912 6.912 
" clip-path="url(#p3b14061280)" style="fill: none; stroke: #b0b0b0; stroke-width: 0.8; stroke-linecap: square"/>
     </g>
     <g id="line2d_12">
      <g>
       <use xlink:href="#m8d3c8a2fd5" x="317.4912" y="298.944" style="stroke: #000000; stroke-width: 0.8"/>
      </g>
     </g>
     <g id="text_4">
      <!-- 6 -->
      <g transform="translate(312.083075 318.861344)scale(0.17 -0.17)">
       <defs>
        <path id="DejaVuSans-36" d="M 2113 2584 
Q 1688 2584 1439 2293 
Q 1191 2003 1191 1497 
Q 1191 994 1439 701 
Q 1688 409 2113 409 
Q 2538 409 2786 701 
Q 3034 994 3034 1497 
Q 3034 2003 2786 2293 
Q 2538 2584 2113 2584 
z
M 3366 4563 
L 3366 3988 
Q 3128 4100 2886 4159 
Q 2644 4219 2406 4219 
Q 1781 4219 1451 3797 
Q 1122 3375 1075 2522 
Q 1259 2794 1537 2939 
Q 1816 3084 2150 3084 
Q 2853 3084 3261 2657 
Q 3669 2231 3669 1497 
Q 3669 778 3244 343 
Q 2819 -91 2113 -91 
Q 1303 -91 875 529 
Q 447 1150 447 2328 
Q 447 3434 972 4092 
Q 1497 4750 2381 4750 
Q 2619 4750 2861 4703 
Q 3103 4656 3366 4563 
z
" transform="scale(0.015625)"/>
       </defs>
       <use xlink:href="#DejaVuSans-36"/>
      </g>
     </g>
    </g>
    <g id="xtick_5">
     <g id="line2d_13">
      <path d="M 100.9152 298.944 
L 100.9152 6.912 
" clip-path="url(#p3b14061280)" style="fill: none; stroke: #b0b0b0; stroke-width: 0.8; stroke-linecap: square"/>
     </g>
     <g id="line2d_14">
      <defs>
       <path id="m311c35678c" d="M 0 0 
L 0 2 
" style="stroke: #000000; stroke-width: 0.6"/>
      </defs>
      <g>
       <use xlink:href="#m311c35678c" x="100.9152" y="298.944" style="stroke: #000000; stroke-width: 0.6"/>
      </g>
     </g>
    </g>
    <g id="xtick_6">
     <g id="line2d_15">
      <path d="M 187.5456 298.944 
L 187.5456 6.912 
" clip-path="url(#p3b14061280)" style="fill: none; stroke: #b0b0b0; stroke-width: 0.8; stroke-linecap: square"/>
     </g>
     <g id="line2d_16">
      <g>
       <use xlink:href="#m311c35678c" x="187.5456" y="298.944" style="stroke: #000000; stroke-width: 0.6"/>
      </g>
     </g>
    </g>
    <g id="xtick_7">
     <g id="line2d_17">
      <path d="M 274.176 298.944 
L 274.176 6.912 
" clip-path="url(#p3b14061280)" style="fill: none; stroke: #b0b0b0; stroke-width: 0.8; stroke-linecap: square"/>
     </g>
     <g id="line2d_18">
      <g>
       <use xlink:href="#m311c35678c" x="274.176" y="298.944" style="stroke: #000000; stroke-width: 0.6"/>
      </g>
     </g>
    </g>
    <g id="xtick_8">
     <g id="line2d_19">
      <path d="M 360.8064 298.944 
L 360.8064 6.912 
" clip-path="url(#p3b14061280)" style="fill: none; stroke: #b0b0b0; stroke-width: 0.8; stroke-linecap: square"/>
     </g>
     <g id="line2d_20">
      <g>
       <use xlink:href="#m311c35678c" x="360.8064" y="298.944" style="stroke: #000000; stroke-width: 0.6"/>
      </g>
     </g>
    </g>
    <g id="text_5">
     <!-- log10(# f-evals / dimension) -->
     <g transform="translate(88.823278 339.314156)scale(0.17 -0.17)">
      <defs>
       <path id="DejaVuSans-6c" d="M 603 4863 
L 1178 4863 
L 1178 0 
L 603 0 
L 603 4863 
z
" transform="scale(0.015625)"/>
       <path id="DejaVuSans-6f" d="M 1959 3097 
Q 1497 3097 1228 2736 
Q 959 2375 959 1747 
Q 959 1119 1226 758 
Q 1494 397 1959 397 
Q 2419 397 2687 759 
Q 2956 1122 2956 1747 
Q 2956 2369 2687 2733 
Q 2419 3097 1959 3097 
z
M 1959 3584 
Q 2709 3584 3137 3096 
Q 3566 2609 3566 1747 
Q 3566 888 3137 398 
Q 2709 -91 1959 -91 
Q 1206 -91 779 398 
Q 353 888 353 1747 
Q 353 2609 779 3096 
Q 1206 3584 1959 3584 
z
" transform="scale(0.015625)"/>
       <path id="DejaVuSans-67" d="M 2906 1791 
Q 2906 2416 2648 2759 
Q 2391 3103 1925 3103 
Q 1463 3103 1205 2759 
Q 947 2416 947 1791 
Q 947 1169 1205 825 
Q 1463 481 1925 481 
Q 2391 481 2648 825 
Q 2906 1169 2906 1791 
z
M 3481 434 
Q 3481 -459 3084 -895 
Q 2688 -1331 1869 -1331 
Q 1566 -1331 1297 -1286 
Q 1028 -1241 775 -1147 
L 775 -588 
Q 1028 -725 1275 -790 
Q 1522 -856 1778 -856 
Q 2344 -856 2625 -561 
Q 2906 -266 2906 331 
L 2906 616 
Q 2728 306 2450 153 
Q 2172 0 1784 0 
Q 1141 0 747 490 
Q 353 981 353 1791 
Q 353 2603 747 3093 
Q 1141 3584 1784 3584 
Q 2172 3584 2450 3431 
Q 2728 3278 2906 2969 
L 2906 3500 
L 3481 3500 
L 3481 434 
z
" transform="scale(0.015625)"/>
       <path id="DejaVuSans-31" d="M 794 531 
L 1825 531 
L 1825 4091 
L 703 3866 
L 703 4441 
L 1819 4666 
L 2450 4666 
L 2450 531 
L 3481 531 
L 3481 0 
L 794 0 
L 794 531 
z
" transform="scale(0.015625)"/>
       <path id="DejaVuSans-28" d="M 1984 4856 
Q 1566 4138 1362 3434 
Q 1159 2731 1159 2009 
Q 1159 1288 1364 580 
Q 1569 -128 1984 -844 
L 1484 -844 
Q 1016 -109 783 600 
Q 550 1309 550 2009 
Q 550 2706 781 3412 
Q 1013 4119 1484 4856 
L 1984 4856 
z
" transform="scale(0.015625)"/>
       <path id="DejaVuSans-23" d="M 3272 2816 
L 2363 2816 
L 2100 1772 
L 3016 1772 
L 3272 2816 
z
M 2803 4594 
L 2478 3297 
L 3391 3297 
L 3719 4594 
L 4219 4594 
L 3897 3297 
L 4872 3297 
L 4872 2816 
L 3775 2816 
L 3519 1772 
L 4513 1772 
L 4513 1294 
L 3397 1294 
L 3072 0 
L 2572 0 
L 2894 1294 
L 1978 1294 
L 1656 0 
L 1153 0 
L 1478 1294 
L 494 1294 
L 494 1772 
L 1594 1772 
L 1856 2816 
L 850 2816 
L 850 3297 
L 1978 3297 
L 2297 4594 
L 2803 4594 
z
" transform="scale(0.015625)"/>
       <path id="DejaVuSans-20" transform="scale(0.015625)"/>
       <path id="DejaVuSans-66" d="M 2375 4863 
L 2375 4384 
L 1825 4384 
Q 1516 4384 1395 4259 
Q 1275 4134 1275 3809 
L 1275 3500 
L 2222 3500 
L 2222 3053 
L 1275 3053 
L 1275 0 
L 697 0 
L 697 3053 
L 147 3053 
L 147 3500 
L 697 3500 
L 697 3744 
Q 697 4328 969 4595 
Q 1241 4863 1831 4863 
L 2375 4863 
z
" transform="scale(0.015625)"/>
       <path id="DejaVuSans-2d" d="M 313 2009 
L 1997 2009 
L 1997 1497 
L 313 1497 
L 313 2009 
z
" transform="scale(0.015625)"/>
       <path id="DejaVuSans-65" d="M 3597 1894 
L 3597 1613 
L 953 1613 
Q 991 1019 1311 708 
Q 1631 397 2203 397 
Q 2534 397 2845 478 
Q 3156 559 3463 722 
L 3463 178 
Q 3153 47 2828 -22 
Q 2503 -91 2169 -91 
Q 1331 -91 842 396 
Q 353 884 353 1716 
Q 353 2575 817 3079 
Q 1281 3584 2069 3584 
Q 2775 3584 3186 3129 
Q 3597 2675 3597 1894 
z
M 3022 2063 
Q 3016 2534 2758 2815 
Q 2500 3097 2075 3097 
Q 1594 3097 1305 2825 
Q 1016 2553 972 2059 
L 3022 2063 
z
" transform="scale(0.015625)"/>
       <path id="DejaVuSans-76" d="M 191 3500 
L 800 3500 
L 1894 563 
L 2988 3500 
L 3597 3500 
L 2284 0 
L 1503 0 
L 191 3500 
z
" transform="scale(0.015625)"/>
       <path id="DejaVuSans-61" d="M 2194 1759 
Q 1497 1759 1228 1600 
Q 959 1441 959 1056 
Q 959 750 1161 570 
Q 1363 391 1709 391 
Q 2188 391 2477 730 
Q 2766 1069 2766 1631 
L 2766 1759 
L 2194 1759 
z
M 3341 1997 
L 3341 0 
L 2766 0 
L 2766 531 
Q 2569 213 2275 61 
Q 1981 -91 1556 -91 
Q 1019 -91 701 211 
Q 384 513 384 1019 
Q 384 1609 779 1909 
Q 1175 2209 1959 2209 
L 2766 2209 
L 2766 2266 
Q 2766 2663 2505 2880 
Q 2244 3097 1772 3097 
Q 1472 3097 1187 3025 
Q 903 2953 641 2809 
L 641 3341 
Q 956 3463 1253 3523 
Q 1550 3584 1831 3584 
Q 2591 3584 2966 3190 
Q 3341 2797 3341 1997 
z
" transform="scale(0.015625)"/>
       <path id="DejaVuSans-73" d="M 2834 3397 
L 2834 2853 
Q 2591 2978 2328 3040 
Q 2066 3103 1784 3103 
Q 1356 3103 1142 2972 
Q 928 2841 928 2578 
Q 928 2378 1081 2264 
Q 1234 2150 1697 2047 
L 1894 2003 
Q 2506 1872 2764 1633 
Q 3022 1394 3022 966 
Q 3022 478 2636 193 
Q 2250 -91 1575 -91 
Q 1294 -91 989 -36 
Q 684 19 347 128 
L 347 722 
Q 666 556 975 473 
Q 1284 391 1588 391 
Q 1994 391 2212 530 
Q 2431 669 2431 922 
Q 2431 1156 2273 1281 
Q 2116 1406 1581 1522 
L 1381 1569 
Q 847 1681 609 1914 
Q 372 2147 372 2553 
Q 372 3047 722 3315 
Q 1072 3584 1716 3584 
Q 2034 3584 2315 3537 
Q 2597 3491 2834 3397 
z
" transform="scale(0.015625)"/>
       <path id="DejaVuSans-2f" d="M 1625 4666 
L 2156 4666 
L 531 -594 
L 0 -594 
L 1625 4666 
z
" transform="scale(0.015625)"/>
       <path id="DejaVuSans-64" d="M 2906 2969 
L 2906 4863 
L 3481 4863 
L 3481 0 
L 2906 0 
L 2906 525 
Q 2725 213 2448 61 
Q 2172 -91 1784 -91 
Q 1150 -91 751 415 
Q 353 922 353 1747 
Q 353 2572 751 3078 
Q 1150 3584 1784 3584 
Q 2172 3584 2448 3432 
Q 2725 3281 2906 2969 
z
M 947 1747 
Q 947 1113 1208 752 
Q 1469 391 1925 391 
Q 2381 391 2643 752 
Q 2906 1113 2906 1747 
Q 2906 2381 2643 2742 
Q 2381 3103 1925 3103 
Q 1469 3103 1208 2742 
Q 947 2381 947 1747 
z
" transform="scale(0.015625)"/>
       <path id="DejaVuSans-69" d="M 603 3500 
L 1178 3500 
L 1178 0 
L 603 0 
L 603 3500 
z
M 603 4863 
L 1178 4863 
L 1178 4134 
L 603 4134 
L 603 4863 
z
" transform="scale(0.015625)"/>
       <path id="DejaVuSans-6d" d="M 3328 2828 
Q 3544 3216 3844 3400 
Q 4144 3584 4550 3584 
Q 5097 3584 5394 3201 
Q 5691 2819 5691 2113 
L 5691 0 
L 5113 0 
L 5113 2094 
Q 5113 2597 4934 2840 
Q 4756 3084 4391 3084 
Q 3944 3084 3684 2787 
Q 3425 2491 3425 1978 
L 3425 0 
L 2847 0 
L 2847 2094 
Q 2847 2600 2669 2842 
Q 2491 3084 2119 3084 
Q 1678 3084 1418 2786 
Q 1159 2488 1159 1978 
L 1159 0 
L 581 0 
L 581 3500 
L 1159 3500 
L 1159 2956 
Q 1356 3278 1631 3431 
Q 1906 3584 2284 3584 
Q 2666 3584 2933 3390 
Q 3200 3197 3328 2828 
z
" transform="scale(0.015625)"/>
       <path id="DejaVuSans-6e" d="M 3513 2113 
L 3513 0 
L 2938 0 
L 2938 2094 
Q 2938 2591 2744 2837 
Q 2550 3084 2163 3084 
Q 1697 3084 1428 2787 
Q 1159 2491 1159 1978 
L 1159 0 
L 581 0 
L 581 3500 
L 1159 3500 
L 1159 2956 
Q 1366 3272 1645 3428 
Q 1925 3584 2291 3584 
Q 2894 3584 3203 3211 
Q 3513 2838 3513 2113 
z
" transform="scale(0.015625)"/>
       <path id="DejaVuSans-29" d="M 513 4856 
L 1013 4856 
Q 1481 4119 1714 3412 
Q 1947 2706 1947 2009 
Q 1947 1309 1714 600 
Q 1481 -109 1013 -844 
L 513 -844 
Q 928 -128 1133 580 
Q 1338 1288 1338 2009 
Q 1338 2731 1133 3434 
Q 928 4138 513 4856 
z
" transform="scale(0.015625)"/>
      </defs>
      <use xlink:href="#DejaVuSans-6c"/>
      <use xlink:href="#DejaVuSans-6f" x="27.783203"/>
      <use xlink:href="#DejaVuSans-67" x="88.964844"/>
      <use xlink:href="#DejaVuSans-31" x="152.441406"/>
      <use xlink:href="#DejaVuSans-30" x="216.064453"/>
      <use xlink:href="#DejaVuSans-28" x="279.6875"/>
      <use xlink:href="#DejaVuSans-23" x="318.701172"/>
      <use xlink:href="#DejaVuSans-20" x="402.490234"/>
      <use xlink:href="#DejaVuSans-66" x="434.277344"/>
      <use xlink:href="#DejaVuSans-2d" x="463.982422"/>
      <use xlink:href="#DejaVuSans-65" x="500.066406"/>
      <use xlink:href="#DejaVuSans-76" x="561.589844"/>
      <use xlink:href="#DejaVuSans-61" x="620.769531"/>
      <use xlink:href="#DejaVuSans-6c" x="682.048828"/>
      <use xlink:href="#DejaVuSans-73" x="709.832031"/>
      <use xlink:href="#DejaVuSans-20" x="761.931641"/>
      <use xlink:href="#DejaVuSans-2f" x="793.71875"/>
      <use xlink:href="#DejaVuSans-20" x="827.410156"/>
      <use xlink:href="#DejaVuSans-64" x="859.197266"/>
      <use xlink:href="#DejaVuSans-69" x="922.673828"/>
      <use xlink:href="#DejaVuSans-6d" x="950.457031"/>
      <use xlink:href="#DejaVuSans-65" x="1047.869141"/>
      <use xlink:href="#DejaVuSans-6e" x="1109.392578"/>
      <use xlink:href="#DejaVuSans-73" x="1172.771484"/>
      <use xlink:href="#DejaVuSans-69" x="1224.871094"/>
      <use xlink:href="#DejaVuSans-6f" x="1252.654297"/>
      <use xlink:href="#DejaVuSans-6e" x="1313.835938"/>
      <use xlink:href="#DejaVuSans-29" x="1377.214844"/>
     </g>
    </g>
   </g>
   <g id="matplotlib.axis_2">
    <g id="ytick_1">
     <g id="line2d_21">
      <path d="M 57.6 298.944 
L 360.8064 298.944 
" clip-path="url(#p3b14061280)" style="fill: none; stroke: #b0b0b0; stroke-width: 0.8; stroke-linecap: square"/>
     </g>
     <g id="line2d_22">
      <defs>
       <path id="m418096c5e1" d="M 0 0 
L -3.5 0 
" style="stroke: #000000; stroke-width: 0.8"/>
      </defs>
      <g>
       <use xlink:href="#m418096c5e1" x="57.6" y="298.944" style="stroke: #000000; stroke-width: 0.8"/>
      </g>
     </g>
     <g id="text_6">
      <!-- 0.0 -->
      <g transform="translate(25.155 305.02275)scale(0.16 -0.16)">
       <defs>
        <path id="DejaVuSans-2e" d="M 684 794 
L 1344 794 
L 1344 0 
L 684 0 
L 684 794 
z
" transform="scale(0.015625)"/>
       </defs>
       <use xlink:href="#DejaVuSans-30"/>
       <use xlink:href="#DejaVuSans-2e" x="63.623047"/>
       <use xlink:href="#DejaVuSans-30" x="95.410156"/>
      </g>
     </g>
    </g>
    <g id="ytick_2">
     <g id="line2d_23">
      <path d="M 57.6 240.5376 
L 360.8064 240.5376 
" clip-path="url(#p3b14061280)" style="fill: none; stroke: #b0b0b0; stroke-width: 0.8; stroke-linecap: square"/>
     </g>
     <g id="line2d_24">
      <g>
       <use xlink:href="#m418096c5e1" x="57.6" y="240.5376" style="stroke: #000000; stroke-width: 0.8"/>
      </g>
     </g>
     <g id="text_7">
      <!-- 0.2 -->
      <g transform="translate(25.155 246.61635)scale(0.16 -0.16)">
       <use xlink:href="#DejaVuSans-30"/>
       <use xlink:href="#DejaVuSans-2e" x="63.623047"/>
       <use xlink:href="#DejaVuSans-32" x="95.410156"/>
      </g>
     </g>
    </g>
    <g id="ytick_3">
     <g id="line2d_25">
      <path d="M 57.6 182.1312 
L 360.8064 182.1312 
" clip-path="url(#p3b14061280)" style="fill: none; stroke: #b0b0b0; stroke-width: 0.8; stroke-linecap: square"/>
     </g>
     <g id="line2d_26">
      <g>
       <use xlink:href="#m418096c5e1" x="57.6" y="182.1312" style="stroke: #000000; stroke-width: 0.8"/>
      </g>
     </g>
     <g id="text_8">
      <!-- 0.4 -->
      <g transform="translate(25.155 188.20995)scale(0.16 -0.16)">
       <use xlink:href="#DejaVuSans-30"/>
       <use xlink:href="#DejaVuSans-2e" x="63.623047"/>
       <use xlink:href="#DejaVuSans-34" x="95.410156"/>
      </g>
     </g>
    </g>
    <g id="ytick_4">
     <g id="line2d_27">
      <path d="M 57.6 123.7248 
L 360.8064 123.7248 
" clip-path="url(#p3b14061280)" style="fill: none; stroke: #b0b0b0; stroke-width: 0.8; stroke-linecap: square"/>
     </g>
     <g id="line2d_28">
      <g>
       <use xlink:href="#m418096c5e1" x="57.6" y="123.7248" style="stroke: #000000; stroke-width: 0.8"/>
      </g>
     </g>
     <g id="text_9">
      <!-- 0.6 -->
      <g transform="translate(25.155 129.80355)scale(0.16 -0.16)">
       <use xlink:href="#DejaVuSans-30"/>
       <use xlink:href="#DejaVuSans-2e" x="63.623047"/>
       <use xlink:href="#DejaVuSans-36" x="95.410156"/>
      </g>
     </g>
    </g>
    <g id="ytick_5">
     <g id="line2d_29">
      <path d="M 57.6 65.3184 
L 360.8064 65.3184 
" clip-path="url(#p3b14061280)" style="fill: none; stroke: #b0b0b0; stroke-width: 0.8; stroke-linecap: square"/>
     </g>
     <g id="line2d_30">
      <g>
       <use xlink:href="#m418096c5e1" x="57.6" y="65.3184" style="stroke: #000000; stroke-width: 0.8"/>
      </g>
     </g>
     <g id="text_10">
      <!-- 0.8 -->
      <g transform="translate(25.155 71.39715)scale(0.16 -0.16)">
       <defs>
        <path id="DejaVuSans-38" d="M 2034 2216 
Q 1584 2216 1326 1975 
Q 1069 1734 1069 1313 
Q 1069 891 1326 650 
Q 1584 409 2034 409 
Q 2484 409 2743 651 
Q 3003 894 3003 1313 
Q 3003 1734 2745 1975 
Q 2488 2216 2034 2216 
z
M 1403 2484 
Q 997 2584 770 2862 
Q 544 3141 544 3541 
Q 544 4100 942 4425 
Q 1341 4750 2034 4750 
Q 2731 4750 3128 4425 
Q 3525 4100 3525 3541 
Q 3525 3141 3298 2862 
Q 3072 2584 2669 2484 
Q 3125 2378 3379 2068 
Q 3634 1759 3634 1313 
Q 3634 634 3220 271 
Q 2806 -91 2034 -91 
Q 1263 -91 848 271 
Q 434 634 434 1313 
Q 434 1759 690 2068 
Q 947 2378 1403 2484 
z
M 1172 3481 
Q 1172 3119 1398 2916 
Q 1625 2713 2034 2713 
Q 2441 2713 2670 2916 
Q 2900 3119 2900 3481 
Q 2900 3844 2670 4047 
Q 2441 4250 2034 4250 
Q 1625 4250 1398 4047 
Q 1172 3844 1172 3481 
z
" transform="scale(0.015625)"/>
       </defs>
       <use xlink:href="#DejaVuSans-30"/>
       <use xlink:href="#DejaVuSans-2e" x="63.623047"/>
       <use xlink:href="#DejaVuSans-38" x="95.410156"/>
      </g>
     </g>
    </g>
    <g id="ytick_6">
     <g id="line2d_31">
      <path d="M 57.6 6.912 
L 360.8064 6.912 
" clip-path="url(#p3b14061280)" style="fill: none; stroke: #b0b0b0; stroke-width: 0.8; stroke-linecap: square"/>
     </g>
     <g id="line2d_32">
      <g>
       <use xlink:href="#m418096c5e1" x="57.6" y="6.912" style="stroke: #000000; stroke-width: 0.8"/>
      </g>
     </g>
     <g id="text_11">
      <!-- 1.0 -->
      <g transform="translate(25.155 12.99075)scale(0.16 -0.16)">
       <use xlink:href="#DejaVuSans-31"/>
       <use xlink:href="#DejaVuSans-2e" x="63.623047"/>
       <use xlink:href="#DejaVuSans-30" x="95.410156"/>
      </g>
     </g>
    </g>
    <g id="text_12">
     <!-- Fraction of function,target pairs -->
     <g transform="translate(17.619531 287.313)rotate(-90)scale(0.17 -0.17)">
      <defs>
       <path id="DejaVuSans-46" d="M 628 4666 
L 3309 4666 
L 3309 4134 
L 1259 4134 
L 1259 2759 
L 3109 2759 
L 3109 2228 
L 1259 2228 
L 1259 0 
L 628 0 
L 628 4666 
z
" transform="scale(0.015625)"/>
       <path id="DejaVuSans-72" d="M 2631 2963 
Q 2534 3019 2420 3045 
Q 2306 3072 2169 3072 
Q 1681 3072 1420 2755 
Q 1159 2438 1159 1844 
L 1159 0 
L 581 0 
L 581 3500 
L 1159 3500 
L 1159 2956 
Q 1341 3275 1631 3429 
Q 1922 3584 2338 3584 
Q 2397 3584 2469 3576 
Q 2541 3569 2628 3553 
L 2631 2963 
z
" transform="scale(0.015625)"/>
       <path id="DejaVuSans-63" d="M 3122 3366 
L 3122 2828 
Q 2878 2963 2633 3030 
Q 2388 3097 2138 3097 
Q 1578 3097 1268 2742 
Q 959 2388 959 1747 
Q 959 1106 1268 751 
Q 1578 397 2138 397 
Q 2388 397 2633 464 
Q 2878 531 3122 666 
L 3122 134 
Q 2881 22 2623 -34 
Q 2366 -91 2075 -91 
Q 1284 -91 818 406 
Q 353 903 353 1747 
Q 353 2603 823 3093 
Q 1294 3584 2113 3584 
Q 2378 3584 2631 3529 
Q 2884 3475 3122 3366 
z
" transform="scale(0.015625)"/>
       <path id="DejaVuSans-74" d="M 1172 4494 
L 1172 3500 
L 2356 3500 
L 2356 3053 
L 1172 3053 
L 1172 1153 
Q 1172 725 1289 603 
Q 1406 481 1766 481 
L 2356 481 
L 2356 0 
L 1766 0 
Q 1100 0 847 248 
Q 594 497 594 1153 
L 594 3053 
L 172 3053 
L 172 3500 
L 594 3500 
L 594 4494 
L 1172 4494 
z
" transform="scale(0.015625)"/>
       <path id="DejaVuSans-75" d="M 544 1381 
L 544 3500 
L 1119 3500 
L 1119 1403 
Q 1119 906 1312 657 
Q 1506 409 1894 409 
Q 2359 409 2629 706 
Q 2900 1003 2900 1516 
L 2900 3500 
L 3475 3500 
L 3475 0 
L 2900 0 
L 2900 538 
Q 2691 219 2414 64 
Q 2138 -91 1772 -91 
Q 1169 -91 856 284 
Q 544 659 544 1381 
z
M 1991 3584 
L 1991 3584 
z
" transform="scale(0.015625)"/>
       <path id="DejaVuSans-2c" d="M 750 794 
L 1409 794 
L 1409 256 
L 897 -744 
L 494 -744 
L 750 256 
L 750 794 
z
" transform="scale(0.015625)"/>
       <path id="DejaVuSans-70" d="M 1159 525 
L 1159 -1331 
L 581 -1331 
L 581 3500 
L 1159 3500 
L 1159 2969 
Q 1341 3281 1617 3432 
Q 1894 3584 2278 3584 
Q 2916 3584 3314 3078 
Q 3713 2572 3713 1747 
Q 3713 922 3314 415 
Q 2916 -91 2278 -91 
Q 1894 -91 1617 61 
Q 1341 213 1159 525 
z
M 3116 1747 
Q 3116 2381 2855 2742 
Q 2594 3103 2138 3103 
Q 1681 3103 1420 2742 
Q 1159 2381 1159 1747 
Q 1159 1113 1420 752 
Q 1681 391 2138 391 
Q 2594 391 2855 752 
Q 3116 1113 3116 1747 
z
" transform="scale(0.015625)"/>
      </defs>
      <use xlink:href="#DejaVuSans-46"/>
      <use xlink:href="#DejaVuSans-72" x="50.269531"/>
      <use xlink:href="#DejaVuSans-61" x="91.382812"/>
      <use xlink:href="#DejaVuSans-63" x="152.662109"/>
      <use xlink:href="#DejaVuSans-74" x="207.642578"/>
      <use xlink:href="#DejaVuSans-69" x="246.851562"/>
      <use xlink:href="#DejaVuSans-6f" x="274.634766"/>
      <use xlink:href="#DejaVuSans-6e" x="335.816406"/>
      <use xlink:href="#DejaVuSans-20" x="399.195312"/>
      <use xlink:href="#DejaVuSans-6f" x="430.982422"/>
      <use xlink:href="#DejaVuSans-66" x="492.164062"/>
      <use xlink:href="#DejaVuSans-20" x="527.369141"/>
      <use xlink:href="#DejaVuSans-66" x="559.15625"/>
      <use xlink:href="#DejaVuSans-75" x="594.361328"/>
      <use xlink:href="#DejaVuSans-6e" x="657.740234"/>
      <use xlink:href="#DejaVuSans-63" x="721.119141"/>
      <use xlink:href="#DejaVuSans-74" x="776.099609"/>
      <use xlink:href="#DejaVuSans-69" x="815.308594"/>
      <use xlink:href="#DejaVuSans-6f" x="843.091797"/>
      <use xlink:href="#DejaVuSans-6e" x="904.273438"/>
      <use xlink:href="#DejaVuSans-2c" x="967.652344"/>
      <use xlink:href="#DejaVuSans-74" x="999.439453"/>
      <use xlink:href="#DejaVuSans-61" x="1038.648438"/>
      <use xlink:href="#DejaVuSans-72" x="1099.927734"/>
      <use xlink:href="#DejaVuSans-67" x="1139.291016"/>
      <use xlink:href="#DejaVuSans-65" x="1202.767578"/>
      <use xlink:href="#DejaVuSans-74" x="1264.291016"/>
      <use xlink:href="#DejaVuSans-20" x="1303.5"/>
      <use xlink:href="#DejaVuSans-70" x="1335.287109"/>
      <use xlink:href="#DejaVuSans-61" x="1398.763672"/>
      <use xlink:href="#DejaVuSans-69" x="1460.042969"/>
      <use xlink:href="#DejaVuSans-72" x="1487.826172"/>
      <use xlink:href="#DejaVuSans-73" x="1528.939453"/>
     </g>
    </g>
   </g>
   <g id="line2d_33">
    <defs>
     <path id="m82a8f37fc7" d="M 0 1.5 
C 0.397805 1.5 0.77937 1.341951 1.06066 1.06066 
C 1.341951 0.77937 1.5 0.397805 1.5 0 
C 1.5 -0.397805 1.341951 -0.77937 1.06066 -1.06066 
C 0.77937 -1.341951 0.397805 -1.5 0 -1.5 
C -0.397805 -1.5 -0.77937 -1.341951 -1.06066 -1.06066 
C -1.341951 -0.77937 -1.5 -0.397805 -1.5 0 
C -1.5 0.397805 -1.341951 0.77937 -1.06066 1.06066 
C -0.77937 1.341951 -0.397805 1.5 0 1.5 
z
" style="stroke: #f5deb3"/>
    </defs>
    <g>
     <use xlink:href="#m82a8f37fc7" x="363.152542" y="113.906483" style="fill: #f5deb3; stroke: #f5deb3"/>
     <use xlink:href="#m82a8f37fc7" x="363.152542" y="113.906483" style="fill: #f5deb3; stroke: #f5deb3"/>
    </g>
   </g>
   <g id="line2d_34">
    <defs>
     <path id="m02e14fee83" d="M 0 1.5 
C 0.397805 1.5 0.77937 1.341951 1.06066 1.06066 
C 1.341951 0.77937 1.5 0.397805 1.5 0 
C 1.5 -0.397805 1.341951 -0.77937 1.06066 -1.06066 
C 0.77937 -1.341951 0.397805 -1.5 0 -1.5 
C -0.397805 -1.5 -0.77937 -1.341951 -1.06066 -1.06066 
C -1.341951 -0.77937 -1.5 -0.397805 -1.5 0 
C -1.5 0.397805 -1.341951 0.77937 -1.06066 1.06066 
C -0.77937 1.341951 -0.397805 1.5 0 1.5 
z
" style="stroke: #000080"/>
    </defs>
    <g>
     <use xlink:href="#m02e14fee83" x="79.480672" y="280.188497" style="fill: #000080; stroke: #000080"/>
     <use xlink:href="#m02e14fee83" x="79.480672" y="280.188497" style="fill: #000080; stroke: #000080"/>
    </g>
   </g>
   <g id="line2d_35">
    <path d="M 14.2848 298.944 
L 14.2848 286.608166 
L 27.323974 286.608166 
L 27.323974 286.48229 
L 34.951403 286.48229 
L 34.951403 286.356414 
L 40.363149 286.356414 
L 40.363149 285.978786 
L 50.890391 285.978786 
L 50.890391 285.727034 
L 53.402323 285.727034 
L 53.402323 285.475283 
L 57.6 285.475283 
L 57.6 285.223531 
L 59.392932 285.223531 
L 59.392932 285.097655 
L 61.029752 285.097655 
L 61.029752 284.845903 
L 62.535479 284.845903 
L 62.535479 284.468276 
L 63.929565 284.468276 
L 63.929565 284.090648 
L 65.227428 284.090648 
L 65.227428 283.713021 
L 66.441498 283.713021 
L 66.441498 283.461269 
L 67.581941 283.461269 
L 67.581941 282.83189 
L 68.65718 282.83189 
L 68.65718 282.706014 
L 69.674268 282.706014 
L 69.674268 282.580138 
L 70.639174 282.580138 
L 70.639174 282.20251 
L 71.556993 282.20251 
L 71.556993 282.076634 
L 72.432107 282.076634 
L 72.432107 281.950759 
L 73.268314 281.950759 
L 73.268314 281.824883 
L 75.574654 281.824883 
L 75.574654 281.699007 
L 76.284608 281.699007 
L 76.284608 281.447255 
L 76.96874 281.447255 
L 76.96874 281.195503 
L 77.628862 281.195503 
L 77.628862 280.943752 
L 78.266603 280.943752 
L 78.266603 280.692 
L 79.480672 280.692 
L 79.480672 280.188497 
L 360.8064 280.188497 
" style="fill: none; stroke: #000080; stroke-width: 1.5; stroke-linecap: square"/>
   </g>
   <g id="line2d_36">
    <defs>
     <path id="m8c5d37978e" d="M 0 6 
C 1.591219 6 3.117479 5.367802 4.242641 4.242641 
C 5.367802 3.117479 6 1.591219 6 0 
C 6 -1.591219 5.367802 -3.117479 4.242641 -4.242641 
C 3.117479 -5.367802 1.591219 -6 0 -6 
C -1.591219 -6 -3.117479 -5.367802 -4.242641 -4.242641 
C -5.367802 -3.117479 -6 -1.591219 -6 0 
C -6 1.591219 -5.367802 3.117479 -4.242641 4.242641 
C -3.117479 5.367802 -1.591219 6 0 6 
z
" style="stroke: #000080; stroke-width: 1.5"/>
    </defs>
    <g>
     <use xlink:href="#m8c5d37978e" x="66.441498" y="283.461269" style="fill-opacity: 0; stroke: #000080; stroke-width: 1.5"/>
     <use xlink:href="#m8c5d37978e" x="79.480672" y="280.692" style="fill-opacity: 0; stroke: #000080; stroke-width: 1.5"/>
     <use xlink:href="#m8c5d37978e" x="79.480672" y="280.188497" style="fill-opacity: 0; stroke: #000080; stroke-width: 1.5"/>
     <use xlink:href="#m8c5d37978e" x="79.480672" y="280.188497" style="fill-opacity: 0; stroke: #000080; stroke-width: 1.5"/>
     <use xlink:href="#m8c5d37978e" x="79.480672" y="280.188497" style="fill-opacity: 0; stroke: #000080; stroke-width: 1.5"/>
     <use xlink:href="#m8c5d37978e" x="360.8064" y="280.188497" style="fill-opacity: 0; stroke: #000080; stroke-width: 1.5"/>
    </g>
   </g>
   <g id="line2d_37">
    <path style="fill: none; stroke: #000080; stroke-width: 1.5; stroke-linecap: square"/>
    <g/>
   </g>
   <g id="line2d_38">
    <path d="M 79.480672 280.188497 
" clip-path="url(#p3b14061280)" style="fill: none; stroke: #000080; stroke-width: 1.5; stroke-linecap: square"/>
    <defs>
     <path id="m2e101717f5" d="M -12 12 
L 12 -12 
M -12 -12 
L 12 12 
" style="stroke: #000080"/>
    </defs>
    <g clip-path="url(#p3b14061280)">
     <use xlink:href="#m2e101717f5" x="79.480672" y="280.188497" style="fill: #000080; stroke: #000080"/>
    </g>
   </g>
   <g id="line2d_39">
    <defs>
     <path id="mb5c26b3031" d="M 0 1.5 
C 0.397805 1.5 0.77937 1.341951 1.06066 1.06066 
C 1.341951 0.77937 1.5 0.397805 1.5 0 
C 1.5 -0.397805 1.341951 -0.77937 1.06066 -1.06066 
C 0.77937 -1.341951 0.397805 -1.5 0 -1.5 
C -0.397805 -1.5 -0.77937 -1.341951 -1.06066 -1.06066 
C -1.341951 -0.77937 -1.5 -0.397805 -1.5 0 
C -1.5 0.397805 -1.341951 0.77937 -1.06066 1.06066 
C -0.77937 1.341951 -0.397805 1.5 0 1.5 
z
" style="stroke: #ff00ff"/>
    </defs>
    <g>
     <use xlink:href="#mb5c26b3031" x="273.35694" y="222.789103" style="fill: #ff00ff; stroke: #ff00ff"/>
     <use xlink:href="#mb5c26b3031" x="273.35694" y="222.789103" style="fill: #ff00ff; stroke: #ff00ff"/>
    </g>
   </g>
   <g id="line2d_40">
    <path d="M 14.2848 298.944 
L 14.2848 286.608166 
L 34.951403 286.608166 
L 34.951403 286.230538 
L 44.560826 286.230538 
L 44.560826 286.104662 
L 50.890391 286.104662 
L 50.890391 285.978786 
L 53.402323 285.978786 
L 53.402323 285.85291 
L 59.392932 285.85291 
L 59.392932 285.727034 
L 65.227428 285.727034 
L 65.227428 285.475283 
L 67.581941 285.475283 
L 67.581941 285.349407 
L 73.268314 285.349407 
L 73.268314 284.971779 
L 80.621116 284.971779 
L 80.621116 284.845903 
L 85.894031 284.845903 
L 85.894031 284.720028 
L 87.495981 284.720028 
L 87.495981 284.468276 
L 87.876026 284.468276 
L 87.876026 284.3424 
L 88.972154 284.3424 
L 88.972154 284.216524 
L 89.668958 284.216524 
L 89.668958 283.964772 
L 95.250946 283.964772 
L 95.250946 283.838897 
L 98.295464 283.838897 
L 98.295464 283.713021 
L 98.723018 283.713021 
L 98.723018 283.587145 
L 99.751228 283.587145 
L 99.751228 283.461269 
L 100.726138 283.461269 
L 100.726138 283.335393 
L 101.653002 283.335393 
L 101.653002 283.209517 
L 101.833019 283.209517 
L 101.833019 282.957766 
L 102.362957 282.957766 
L 102.362957 282.83189 
L 102.536336 282.83189 
L 102.536336 282.706014 
L 103.868684 282.706014 
L 103.868684 282.580138 
L 104.655893 282.580138 
L 104.655893 282.454262 
L 105.112877 282.454262 
L 105.112877 282.328386 
L 105.411479 282.328386 
L 105.411479 282.076634 
L 105.559021 282.076634 
L 105.559021 281.824883 
L 106.837279 281.824883 
L 106.837279 281.699007 
L 107.643612 281.699007 
L 107.643612 281.573131 
L 107.904887 281.573131 
L 107.904887 281.447255 
L 108.034177 281.447255 
L 108.034177 281.321379 
L 109.280431 281.321379 
L 109.280431 281.195503 
L 109.400633 281.195503 
L 109.400633 281.069628 
L 109.520071 281.069628 
L 109.520071 280.943752 
L 110.106149 280.943752 
L 110.106149 280.817876 
L 110.562208 280.817876 
L 110.562208 280.692 
L 110.674517 280.692 
L 110.674517 280.566124 
L 112.283321 280.566124 
L 112.283321 280.314372 
L 113.284172 280.314372 
L 113.284172 280.188497 
L 113.57433 280.188497 
L 113.57433 280.062621 
L 113.954374 280.062621 
L 113.954374 279.936745 
L 114.510421 279.936745 
L 114.510421 279.684993 
L 114.692177 279.684993 
L 114.692177 279.559117 
L 115.227139 279.559117 
L 115.314838 279.307366 
L 115.402131 279.307366 
L 115.489021 279.055614 
L 115.83262 279.055614 
L 115.917548 278.803862 
L 116.002095 278.803862 
L 116.002095 278.677986 
L 116.170056 278.677986 
L 116.253478 278.426234 
L 117.067958 278.426234 
L 117.067958 278.300359 
L 118.076654 278.300359 
L 118.076654 278.174483 
L 118.450653 278.174483 
L 118.524569 277.922731 
L 119.389621 277.922731 
L 119.389621 277.796855 
L 119.738639 277.796855 
L 119.738639 277.670979 
L 120.28394 277.670979 
L 120.28394 277.545103 
L 123.936316 277.545103 
L 123.936316 277.419228 
L 124.801367 277.419228 
L 124.801367 277.293352 
L 126.517282 277.293352 
L 126.517282 277.167476 
L 126.804487 277.167476 
L 126.804487 277.0416 
L 129.041269 277.0416 
L 129.041269 276.915724 
L 129.167381 276.915724 
L 129.167381 276.789848 
L 132.777813 276.789848 
L 132.777813 276.663972 
L 133.885683 276.663972 
L 133.885683 276.538097 
L 135.59842 276.538097 
L 135.59842 276.412221 
L 138.692823 276.412221 
L 138.692823 276.286345 
L 140.770526 276.286345 
L 140.770526 276.160469 
L 141.436884 276.160469 
L 141.436884 276.034593 
L 142.164612 276.034593 
L 142.185595 275.782841 
L 143.462475 275.782841 
L 143.48206 275.53109 
L 143.946089 275.53109 
L 143.946089 275.405214 
L 144.639767 275.405214 
L 144.658165 275.153462 
L 144.768174 275.153462 
L 144.768174 275.027586 
L 144.968202 275.027586 
L 144.968202 274.90171 
L 145.094395 274.90171 
L 145.201889 274.524083 
L 145.379694 274.524083 
L 145.379694 274.398207 
L 145.590864 274.398207 
L 145.590864 274.272331 
L 145.989098 274.272331 
L 145.989098 274.146455 
L 146.711739 274.146455 
L 146.711739 274.020579 
L 146.989949 274.020579 
L 147.054816 273.642952 
L 147.103321 273.642952 
L 147.103321 273.517076 
L 147.312072 273.517076 
L 147.328035 273.265324 
L 147.565858 273.265324 
L 147.565858 273.139448 
L 147.769567 273.139448 
L 147.769567 273.013572 
L 148.017294 273.013572 
L 148.017294 272.887697 
L 148.800595 272.887697 
L 148.800595 272.761821 
L 149.064312 272.761821 
L 149.064312 272.635945 
L 149.31003 272.635945 
L 149.324384 272.384193 
L 149.42456 272.384193 
L 149.42456 272.258317 
L 149.538397 272.258317 
L 149.538397 272.132441 
L 149.665646 272.132441 
L 149.665646 272.006566 
L 150.207323 272.006566 
L 150.302917 271.503062 
L 150.425115 271.503062 
L 150.533072 271.25131 
L 150.640414 271.25131 
L 150.640414 271.125434 
L 150.760445 271.125434 
L 150.866501 270.873683 
L 151.207109 270.873683 
L 151.246016 270.496055 
L 151.477784 270.496055 
L 151.477784 270.370179 
L 151.681429 270.370179 
L 151.744619 270.118428 
L 151.820167 270.118428 
L 151.907925 269.866676 
L 152.20574 269.866676 
L 152.20574 269.7408 
L 152.328451 269.7408 
L 152.328451 269.614924 
L 153.01302 269.614924 
L 153.02481 269.237297 
L 153.177416 269.237297 
L 153.177416 269.111421 
L 153.639356 269.111421 
L 153.639356 268.985545 
L 153.821002 268.985545 
L 153.877408 268.733793 
L 154.023279 268.733793 
L 154.023279 268.607917 
L 154.134722 268.607917 
L 154.134722 268.482041 
L 154.344662 268.482041 
L 154.344662 268.356166 
L 154.530538 268.356166 
L 154.639024 267.978538 
L 154.746889 267.978538 
L 154.746889 267.852662 
L 154.86483 267.852662 
L 154.86483 267.60091 
L 155.035072 267.60091 
L 155.035072 267.475034 
L 155.172267 267.475034 
L 155.256201 267.223283 
L 155.813163 267.223283 
L 155.813163 267.097407 
L 156.195443 267.097407 
L 156.195443 266.845655 
L 156.491849 266.845655 
L 156.491849 266.719779 
L 157.051988 266.719779 
L 157.137431 266.216276 
L 157.382107 266.216276 
L 157.382107 265.838648 
L 157.521831 265.838648 
L 157.521831 265.712772 
L 157.678942 265.712772 
L 157.678942 265.586897 
L 158.2053 265.586897 
L 158.2053 265.461021 
L 158.436556 265.461021 
L 158.436556 265.335145 
L 158.621287 265.335145 
L 158.621287 265.209269 
L 159.028273 265.209269 
L 159.028273 265.083393 
L 159.198823 265.083393 
L 159.198823 264.957517 
L 159.384659 264.957517 
L 159.384659 264.705766 
L 159.54369 264.705766 
L 159.54369 264.57989 
L 159.701388 264.57989 
L 159.701388 264.454014 
L 159.939564 264.454014 
L 159.939564 264.328138 
L 160.190875 264.328138 
L 160.190875 264.202262 
L 160.391127 264.202262 
L 160.470635 263.698759 
L 160.652238 263.698759 
L 160.675797 263.321131 
L 160.917524 263.321131 
L 160.92527 262.943503 
L 161.041081 262.943503 
L 161.041081 262.817628 
L 161.186759 262.817628 
L 161.202028 262.314124 
L 161.534851 262.314124 
L 161.534851 262.188248 
L 161.847145 262.188248 
L 161.928087 261.936497 
L 162.06708 261.936497 
L 162.06708 261.810621 
L 162.392235 261.810621 
L 162.492258 261.307117 
L 162.620084 261.307117 
L 162.62716 260.92949 
L 162.935898 260.92949 
L 162.935898 260.803614 
L 163.33528 260.803614 
L 163.33528 260.677738 
L 163.984826 260.677738 
L 164.030845 260.425986 
L 164.102932 260.425986 
L 164.207296 259.796607 
L 164.516958 259.796607 
L 164.516958 259.670731 
L 164.720604 259.670731 
L 164.802709 259.293103 
L 164.984586 259.293103 
L 165.015767 258.915476 
L 165.263372 258.915476 
L 165.324768 258.663724 
L 165.410386 258.663724 
L 165.410386 258.537848 
L 166.105193 258.537848 
L 166.105193 258.411972 
L 166.304073 258.411972 
L 166.304073 258.286097 
L 166.437427 258.286097 
L 166.483591 257.908469 
L 166.820591 257.908469 
L 166.843221 257.656717 
L 167.051272 257.656717 
L 167.051272 257.530841 
L 167.16834 257.530841 
L 167.190556 257.27909 
L 167.400311 257.27909 
L 167.427738 257.027338 
L 167.613182 257.027338 
L 167.613182 256.901462 
L 167.823671 256.901462 
L 167.834402 256.523834 
L 167.952041 256.523834 
L 167.952041 256.397959 
L 168.132413 256.397959 
L 168.132413 256.272083 
L 168.373724 256.272083 
L 168.425776 255.642703 
L 168.503585 255.642703 
L 168.503585 255.516828 
L 168.77596 255.516828 
L 168.832 255.265076 
L 169.004166 255.265076 
L 169.059531 255.013324 
L 169.274409 255.013324 
L 169.274409 254.761572 
L 169.971845 254.761572 
L 170.00533 254.383945 
L 170.148167 254.383945 
L 170.148167 254.258069 
L 170.37916 254.258069 
L 170.37916 254.132193 
L 170.551723 254.132193 
L 170.551723 254.006317 
L 170.66743 254.006317 
L 170.722717 253.376938 
L 171.055593 253.376938 
L 171.073664 252.99931 
L 171.40044 252.99931 
L 171.40044 252.747559 
L 171.834724 252.747559 
L 171.860725 252.495807 
L 171.955755 252.495807 
L 171.990192 252.118179 
L 172.152916 252.118179 
L 172.152916 251.992303 
L 172.314244 251.992303 
L 172.3986 251.4888 
L 172.574528 251.4888 
L 172.599527 251.111172 
L 172.765341 251.111172 
L 172.810685 250.733545 
L 173.189742 250.733545 
L 173.189742 250.481793 
L 173.386429 250.481793 
L 173.386429 250.355917 
L 173.533597 250.355917 
L 173.533597 250.230041 
L 173.968316 250.230041 
L 174.030158 249.600662 
L 174.199183 249.600662 
L 174.225934 249.34891 
L 174.37807 249.34891 
L 174.438582 248.971283 
L 174.652586 248.971283 
L 174.738254 248.593655 
L 174.941545 248.593655 
L 174.941545 248.341903 
L 175.189886 248.341903 
L 175.269534 247.8384 
L 175.32725 247.8384 
L 175.431409 247.083145 
L 175.510044 247.083145 
L 175.510044 246.831393 
L 175.943728 246.831393 
L 176.041072 245.824386 
L 176.089555 245.824386 
L 176.089555 245.69851 
L 176.340357 245.69851 
L 176.394883 245.320883 
L 176.788874 245.320883 
L 176.788874 245.195007 
L 177.00095 245.195007 
L 177.099543 244.943255 
L 177.230202 244.943255 
L 177.33408 244.439752 
L 177.395487 244.439752 
L 177.395487 244.313876 
L 177.635944 244.313876 
L 177.658231 244.062124 
L 178.268694 244.062124 
L 178.299472 243.684497 
L 178.391505 243.684497 
L 178.486135 243.306869 
L 178.616613 243.306869 
L 178.698081 242.803366 
L 178.764203 242.803366 
L 178.764203 242.67749 
L 179.343247 242.67749 
L 179.343247 242.551614 
L 179.868255 242.551614 
L 179.94449 242.173986 
L 180.279621 242.173986 
L 180.33214 241.796359 
L 180.803715 241.796359 
L 180.913763 241.544607 
L 180.919115 241.544607 
L 180.919115 241.418731 
L 181.150457 241.418731 
L 181.150457 241.166979 
L 181.279511 241.166979 
L 181.279511 241.041103 
L 181.524633 241.041103 
L 181.630555 240.663476 
L 181.919439 240.663476 
L 182.023168 240.411724 
L 182.363205 240.411724 
L 182.459592 240.034097 
L 183.108916 240.034097 
L 183.108916 239.782345 
L 183.579288 239.782345 
L 183.579288 239.530593 
L 183.738875 239.530593 
L 183.738875 239.404717 
L 184.925864 239.404717 
L 184.992775 239.152966 
L 185.509182 239.152966 
L 185.509182 239.02709 
L 185.759062 239.02709 
L 185.759062 238.901214 
L 186.590592 238.901214 
L 186.590592 238.649462 
L 187.013297 238.649462 
L 187.067403 238.39771 
L 187.14635 238.39771 
L 187.14635 238.271834 
L 187.543719 238.271834 
L 187.543719 238.145959 
L 187.699226 238.145959 
L 187.699226 237.894207 
L 188.077889 237.894207 
L 188.077889 237.642455 
L 188.276166 237.642455 
L 188.276166 237.390703 
L 188.41678 237.390703 
L 188.524234 237.013076 
L 188.972443 237.013076 
L 188.972443 236.761324 
L 189.428952 236.761324 
L 189.428952 236.509572 
L 189.839709 236.509572 
L 189.839709 236.383697 
L 190.334367 236.383697 
L 190.344096 236.131945 
L 191.119023 236.131945 
L 191.119023 236.006069 
L 191.634609 236.006069 
L 191.634609 235.880193 
L 192.832305 235.880193 
L 192.832305 235.628441 
L 193.698314 235.628441 
L 193.698314 235.502566 
L 195.091334 235.502566 
L 195.091334 235.250814 
L 195.927705 235.250814 
L 195.927705 234.999062 
L 197.132812 234.999062 
L 197.132812 234.74731 
L 197.887036 234.74731 
L 197.887036 234.495559 
L 198.620538 234.495559 
L 198.620538 234.243807 
L 199.558383 234.243807 
L 199.558383 233.992055 
L 200.132609 233.992055 
L 200.132609 233.866179 
L 204.357821 233.866179 
L 204.457609 233.362676 
L 208.942768 233.362676 
L 208.942768 233.110924 
L 211.737337 233.110924 
L 211.737337 232.985048 
L 214.858876 232.985048 
L 214.858876 232.859172 
L 223.469567 232.859172 
L 223.469567 232.607421 
L 225.471614 232.607421 
L 225.471614 232.355669 
L 226.05034 232.355669 
L 226.05034 232.229793 
L 227.466156 232.229793 
L 227.466156 232.103917 
L 227.835188 232.103917 
L 227.936767 231.852166 
L 231.872977 231.852166 
L 231.872977 231.72629 
L 233.664159 231.72629 
L 233.664159 231.474538 
L 237.429625 231.474538 
L 237.429625 231.348662 
L 238.210918 231.348662 
L 238.210918 231.09691 
L 240.05071 231.09691 
L 240.05071 230.845159 
L 240.819157 230.845159 
L 240.819157 230.719283 
L 241.315666 230.719283 
L 241.315666 230.467531 
L 241.6624 230.467531 
L 241.731556 230.089903 
L 244.413694 230.089903 
L 244.413694 229.838152 
L 246.098676 229.838152 
L 246.098676 229.712276 
L 246.55633 229.712276 
L 246.55633 229.460524 
L 247.668479 229.460524 
L 247.743618 229.082897 
L 248.515263 229.082897 
L 248.515263 228.831145 
L 249.617589 228.831145 
L 249.617589 228.579393 
L 250.069093 228.579393 
L 250.119912 228.201766 
L 250.48067 228.201766 
L 250.48067 228.07589 
L 251.614486 228.07589 
L 251.614486 227.950014 
L 251.9529 227.950014 
L 252.020579 227.572386 
L 253.546983 227.572386 
L 253.546983 227.44651 
L 254.326331 227.44651 
L 254.326331 227.320634 
L 255.540526 227.320634 
L 255.540526 227.068883 
L 257.375417 227.068883 
L 257.375417 226.943007 
L 257.904251 226.943007 
L 257.904251 226.817131 
L 259.931021 226.817131 
L 259.931021 226.691255 
L 262.382777 226.691255 
L 262.382777 226.439503 
L 262.862051 226.439503 
L 262.862051 226.313628 
L 263.481521 226.313628 
L 263.481521 226.061876 
L 264.629272 226.061876 
L 264.629272 225.810124 
L 265.55738 225.810124 
L 265.55738 225.684248 
L 265.691138 225.684248 
L 265.70705 225.180745 
L 267.836933 225.180745 
L 267.836933 224.928993 
L 268.022098 224.928993 
L 268.119116 224.551366 
L 268.628497 224.551366 
L 268.628497 224.299614 
L 269.678298 224.299614 
L 269.678298 224.173738 
L 270.070298 224.173738 
L 270.070298 223.921986 
L 270.374295 223.921986 
L 270.374295 223.670234 
L 270.577651 223.670234 
L 270.656817 223.166731 
L 270.839982 223.166731 
L 270.839982 222.914979 
L 273.35694 222.914979 
L 273.35694 222.789103 
L 360.8064 222.789103 
L 360.8064 222.789103 
" style="fill: none; stroke: #ff00ff; stroke-width: 1.5; stroke-linecap: square"/>
   </g>
   <g id="line2d_41">
    <defs>
     <path id="m8ce50de8a1" d="M 0 8.485281 
L 5.091169 0 
L 0 -8.485281 
L -5.091169 0 
z
" style="stroke: #ff00ff; stroke-width: 1.5; stroke-linejoin: miter"/>
    </defs>
    <g>
     <use xlink:href="#m8ce50de8a1" x="88.972154" y="284.216524" style="fill-opacity: 0; stroke: #ff00ff; stroke-width: 1.5; stroke-linejoin: miter"/>
     <use xlink:href="#m8ce50de8a1" x="158.621287" y="265.209269" style="fill-opacity: 0; stroke: #ff00ff; stroke-width: 1.5; stroke-linejoin: miter"/>
     <use xlink:href="#m8ce50de8a1" x="241.731556" y="230.089903" style="fill-opacity: 0; stroke: #ff00ff; stroke-width: 1.5; stroke-linejoin: miter"/>
     <use xlink:href="#m8ce50de8a1" x="273.35694" y="222.914979" style="fill-opacity: 0; stroke: #ff00ff; stroke-width: 1.5; stroke-linejoin: miter"/>
     <use xlink:href="#m8ce50de8a1" x="273.35694" y="222.789103" style="fill-opacity: 0; stroke: #ff00ff; stroke-width: 1.5; stroke-linejoin: miter"/>
     <use xlink:href="#m8ce50de8a1" x="360.8064" y="222.789103" style="fill-opacity: 0; stroke: #ff00ff; stroke-width: 1.5; stroke-linejoin: miter"/>
    </g>
   </g>
   <g id="line2d_42">
    <path style="fill: none; stroke: #ff00ff; stroke-width: 1.5; stroke-linecap: square"/>
    <g/>
   </g>
   <g id="line2d_43">
    <path d="M 274.176019 222.789103 
" clip-path="url(#p3b14061280)" style="fill: none; stroke: #ff00ff; stroke-width: 1.5; stroke-linecap: square"/>
    <defs>
     <path id="mcb7cb71f37" d="M -12 12 
L 12 -12 
M -12 -12 
L 12 12 
" style="stroke: #ff00ff"/>
    </defs>
    <g clip-path="url(#p3b14061280)">
     <use xlink:href="#mcb7cb71f37" x="274.176019" y="222.789103" style="fill: #ff00ff; stroke: #ff00ff"/>
    </g>
   </g>
   <g id="line2d_44">
    <defs>
     <path id="m755f1b25cc" d="M 0 1.5 
C 0.397805 1.5 0.77937 1.341951 1.06066 1.06066 
C 1.341951 0.77937 1.5 0.397805 1.5 0 
C 1.5 -0.397805 1.341951 -0.77937 1.06066 -1.06066 
C 0.77937 -1.341951 0.397805 -1.5 0 -1.5 
C -0.397805 -1.5 -0.77937 -1.341951 -1.06066 -1.06066 
C -1.341951 -0.77937 -1.5 -0.397805 -1.5 0 
C -1.5 0.397805 -1.341951 0.77937 -1.06066 1.06066 
C -0.77937 1.341951 -0.397805 1.5 0 1.5 
z
" style="stroke: #6495ed"/>
    </defs>
    <g>
     <use xlink:href="#m755f1b25cc" x="113.954374" y="269.992552" style="fill: #6495ed; stroke: #6495ed"/>
     <use xlink:href="#m755f1b25cc" x="113.954374" y="269.992552" style="fill: #6495ed; stroke: #6495ed"/>
    </g>
   </g>
   <g id="line2d_45">
    <path d="M 14.2848 298.944 
L 14.2848 295.797103 
L 27.323974 295.797103 
L 27.323974 294.790097 
L 34.951403 294.790097 
L 34.951403 294.034841 
L 40.363149 294.034841 
L 40.363149 293.279586 
L 44.560826 293.279586 
L 44.560826 292.776083 
L 47.990577 292.776083 
L 47.990577 292.146703 
L 50.890391 292.146703 
L 50.890391 291.769076 
L 53.402323 291.769076 
L 53.402323 291.265572 
L 55.618005 291.265572 
L 55.618005 291.139697 
L 57.6 291.139697 
L 57.6 290.762069 
L 59.392932 290.762069 
L 59.392932 290.258566 
L 62.535479 290.258566 
L 62.535479 289.880938 
L 63.929565 289.880938 
L 63.929565 289.629186 
L 66.441498 289.629186 
L 66.441498 289.251559 
L 67.581941 289.251559 
L 67.581941 289.125683 
L 69.674268 289.125683 
L 69.674268 288.999807 
L 71.556993 288.999807 
L 71.556993 288.748055 
L 72.432107 288.748055 
L 72.432107 288.370428 
L 73.268314 288.370428 
L 73.268314 288.244552 
L 75.574654 288.244552 
L 75.574654 287.741048 
L 76.96874 287.741048 
L 76.96874 287.489297 
L 79.480672 287.489297 
L 79.480672 287.363421 
L 81.166416 287.363421 
L 81.166416 287.111669 
L 82.211771 287.111669 
L 82.211771 286.859917 
L 83.678349 286.859917 
L 83.678349 286.734041 
L 84.142855 286.734041 
L 84.142855 286.608166 
L 85.038813 286.608166 
L 85.038813 286.48229 
L 87.1081 286.48229 
L 87.1081 286.356414 
L 88.248544 286.356414 
L 88.248544 286.230538 
L 89.323782 286.230538 
L 89.323782 286.104662 
L 89.668958 286.104662 
L 89.668958 285.978786 
L 92.223596 285.978786 
L 92.223596 285.727034 
L 93.098709 285.727034 
L 93.098709 285.601159 
L 93.66029 285.601159 
L 93.66029 285.475283 
L 93.934916 285.475283 
L 93.934916 285.349407 
L 94.205591 285.349407 
L 94.205591 285.223531 
L 94.472426 285.223531 
L 94.472426 285.097655 
L 94.995002 285.097655 
L 94.995002 284.971779 
L 95.250946 284.971779 
L 95.250946 284.845903 
L 95.752617 284.845903 
L 95.752617 284.720028 
L 96.717523 284.720028 
L 96.717523 284.468276 
L 96.95121 284.468276 
L 96.95121 284.3424 
L 98.077987 284.3424 
L 98.077987 284.216524 
L 98.510456 284.216524 
L 98.510456 284.090648 
L 99.346662 284.090648 
L 99.346662 283.964772 
L 99.550033 283.964772 
L 99.550033 283.838897 
L 100.147275 283.838897 
L 100.147275 283.713021 
L 102.187964 283.713021 
L 102.187964 283.587145 
L 103.047088 283.587145 
L 103.047088 282.957766 
L 103.214303 282.957766 
L 103.214303 282.454262 
L 103.380045 282.454262 
L 103.380045 282.20251 
L 103.544339 282.20251 
L 103.544339 281.950759 
L 103.868684 281.950759 
L 103.868684 281.447255 
L 104.028784 281.447255 
L 104.028784 281.195503 
L 104.187532 281.195503 
L 104.187532 280.943752 
L 104.344952 280.943752 
L 104.344952 280.440248 
L 104.501065 280.440248 
L 104.501065 280.314372 
L 104.655893 280.314372 
L 104.655893 280.062621 
L 104.809458 280.062621 
L 104.809458 279.936745 
L 104.961779 279.936745 
L 104.961779 279.810869 
L 105.112877 279.810869 
L 105.112877 279.684993 
L 105.26277 279.684993 
L 105.26277 279.559117 
L 105.559021 279.559117 
L 105.559021 278.929738 
L 105.705415 278.929738 
L 105.705415 278.803862 
L 105.99483 278.803862 
L 105.99483 278.677986 
L 106.137884 278.677986 
L 106.137884 278.55211 
L 106.279859 278.55211 
L 106.279859 278.048607 
L 106.42077 278.048607 
L 106.42077 277.922731 
L 106.699465 277.922731 
L 106.699465 277.670979 
L 106.837279 277.670979 
L 106.837279 277.293352 
L 106.974091 277.293352 
L 106.974091 277.0416 
L 107.378656 277.0416 
L 107.378656 276.789848 
L 107.5116 276.789848 
L 107.5116 276.663972 
L 107.643612 276.663972 
L 107.643612 276.538097 
L 107.774703 276.538097 
L 107.774703 276.286345 
L 107.904887 276.286345 
L 107.904887 276.034593 
L 108.034177 276.034593 
L 108.034177 275.53109 
L 108.162584 275.53109 
L 108.162584 275.405214 
L 108.416798 275.405214 
L 108.416798 275.279338 
L 108.542628 275.279338 
L 108.542628 275.153462 
L 108.667622 275.153462 
L 108.667622 274.90171 
L 108.791791 274.90171 
L 108.791791 274.524083 
L 109.037698 274.524083 
L 109.037698 274.272331 
L 109.159456 274.272331 
L 109.159456 274.146455 
L 109.280431 274.146455 
L 109.280431 273.894703 
L 109.520071 273.894703 
L 109.520071 273.768828 
L 109.873904 273.768828 
L 109.873904 273.642952 
L 110.221204 273.642952 
L 110.221204 273.3912 
L 110.674517 273.3912 
L 110.674517 273.139448 
L 110.897141 273.139448 
L 111.007473 272.761821 
L 111.334639 272.761821 
L 111.334639 272.635945 
L 111.54963 272.635945 
L 111.54963 272.510069 
L 111.86758 272.510069 
L 111.97238 272.006566 
L 112.180244 272.006566 
L 112.283321 271.25131 
L 112.487797 271.25131 
L 112.487797 271.125434 
L 112.690074 271.125434 
L 112.690074 270.999559 
L 112.890198 270.999559 
L 112.890198 270.747807 
L 113.186449 270.747807 
L 113.186449 270.496055 
L 113.57433 270.496055 
L 113.57433 270.370179 
L 113.860081 270.370179 
L 113.954374 269.992552 
L 360.8064 269.992552 
L 360.8064 269.992552 
" style="fill: none; stroke: #6495ed; stroke-width: 1.5; stroke-linecap: square"/>
   </g>
   <g id="line2d_46">
    <defs>
     <path id="maf0749b73b" d="M -0 6 
L 6 -6 
L -6 -6 
z
" style="stroke: #6495ed; stroke-width: 1.5; stroke-linejoin: miter"/>
    </defs>
    <g>
     <use xlink:href="#maf0749b73b" x="113.954374" y="270.244303" style="fill-opacity: 0; stroke: #6495ed; stroke-width: 1.5; stroke-linejoin: miter"/>
     <use xlink:href="#maf0749b73b" x="113.954374" y="270.244303" style="fill-opacity: 0; stroke: #6495ed; stroke-width: 1.5; stroke-linejoin: miter"/>
     <use xlink:href="#maf0749b73b" x="113.954374" y="269.992552" style="fill-opacity: 0; stroke: #6495ed; stroke-width: 1.5; stroke-linejoin: miter"/>
     <use xlink:href="#maf0749b73b" x="113.954374" y="269.992552" style="fill-opacity: 0; stroke: #6495ed; stroke-width: 1.5; stroke-linejoin: miter"/>
     <use xlink:href="#maf0749b73b" x="113.954374" y="269.992552" style="fill-opacity: 0; stroke: #6495ed; stroke-width: 1.5; stroke-linejoin: miter"/>
     <use xlink:href="#maf0749b73b" x="360.8064" y="269.992552" style="fill-opacity: 0; stroke: #6495ed; stroke-width: 1.5; stroke-linejoin: miter"/>
    </g>
   </g>
   <g id="line2d_47">
    <path style="fill: none; stroke: #6495ed; stroke-width: 1.5; stroke-linecap: square"/>
    <g/>
   </g>
   <g id="line2d_48">
    <path d="M 113.954374 269.992552 
" clip-path="url(#p3b14061280)" style="fill: none; stroke: #6495ed; stroke-width: 1.5; stroke-linecap: square"/>
    <defs>
     <path id="m6f1b63624e" d="M -12 12 
L 12 -12 
M -12 -12 
L 12 12 
" style="stroke: #6495ed"/>
    </defs>
    <g clip-path="url(#p3b14061280)">
     <use xlink:href="#m6f1b63624e" x="113.954374" y="269.992552" style="fill: #6495ed; stroke: #6495ed"/>
    </g>
   </g>
   <g id="line2d_49">
    <path d="M 360.8064 280.188497 
L 380.514816 293.10336 
" style="fill: none; stroke: #000080; stroke-width: 1.5; stroke-linecap: square"/>
    <g>
     <use xlink:href="#m8c5d37978e" x="360.8064" y="280.188497" style="fill-opacity: 0; stroke: #000080; stroke-width: 1.5"/>
     <use xlink:href="#m8c5d37978e" x="380.514816" y="293.10336" style="fill-opacity: 0; stroke: #000080; stroke-width: 1.5"/>
    </g>
   </g>
   <g id="line2d_50">
    <path d="M 360.8064 269.992552 
L 380.514816 199.65312 
" style="fill: none; stroke: #6495ed; stroke-width: 1.5; stroke-linecap: square"/>
    <g>
     <use xlink:href="#maf0749b73b" x="360.8064" y="269.992552" style="fill-opacity: 0; stroke: #6495ed; stroke-width: 1.5; stroke-linejoin: miter"/>
     <use xlink:href="#maf0749b73b" x="380.514816" y="199.65312" style="fill-opacity: 0; stroke: #6495ed; stroke-width: 1.5; stroke-linejoin: miter"/>
    </g>
   </g>
   <g id="line2d_51">
    <path d="M 360.8064 222.789103 
L 380.514816 106.20288 
" style="fill: none; stroke: #ff00ff; stroke-width: 1.5; stroke-linecap: square"/>
    <g>
     <use xlink:href="#m8ce50de8a1" x="360.8064" y="222.789103" style="fill-opacity: 0; stroke: #ff00ff; stroke-width: 1.5; stroke-linejoin: miter"/>
     <use xlink:href="#m8ce50de8a1" x="380.514816" y="106.20288" style="fill-opacity: 0; stroke: #ff00ff; stroke-width: 1.5; stroke-linejoin: miter"/>
    </g>
   </g>
   <g id="line2d_52">
    <path d="M 360.8064 298.944 
L 360.8064 6.912 
" style="fill: none; stroke: #000000; stroke-width: 1.5; stroke-linecap: square"/>
   </g>
   <g id="patch_3">
    <path d="M 57.6 298.944 
L 360.8064 298.944 
" style="fill: none; stroke: #000000; stroke-width: 0.8; stroke-linejoin: miter; stroke-linecap: square"/>
   </g>
   <g id="patch_4">
    <path d="M 57.6 6.912 
L 360.8064 6.912 
" style="fill: none; stroke: #000000; stroke-width: 0.8; stroke-linejoin: miter; stroke-linecap: square"/>
   </g>
   <g id="text_13">
    <!-- cma -->
    <g transform="translate(386.578944 296.966485)scale(0.14 -0.14)">
     <use xlink:href="#DejaVuSans-63"/>
     <use xlink:href="#DejaVuSans-6d" x="54.980469"/>
     <use xlink:href="#DejaVuSans-61" x="152.392578"/>
    </g>
   </g>
   <g id="text_14">
    <!-- parEgo -->
    <g transform="translate(386.578944 203.516245)scale(0.14 -0.14)">
     <defs>
      <path id="DejaVuSans-45" d="M 628 4666 
L 3578 4666 
L 3578 4134 
L 1259 4134 
L 1259 2753 
L 3481 2753 
L 3481 2222 
L 1259 2222 
L 1259 531 
L 3634 531 
L 3634 0 
L 628 0 
L 628 4666 
z
" transform="scale(0.015625)"/>
     </defs>
     <use xlink:href="#DejaVuSans-70"/>
     <use xlink:href="#DejaVuSans-61" x="63.476562"/>
     <use xlink:href="#DejaVuSans-72" x="124.755859"/>
     <use xlink:href="#DejaVuSans-45" x="165.869141"/>
     <use xlink:href="#DejaVuSans-67" x="229.052734"/>
     <use xlink:href="#DejaVuSans-6f" x="292.529297"/>
    </g>
   </g>
   <g id="text_15">
    <!-- external- -->
    <g transform="translate(386.578944 110.066005)scale(0.14 -0.14)">
     <defs>
      <path id="DejaVuSans-78" d="M 3513 3500 
L 2247 1797 
L 3578 0 
L 2900 0 
L 1881 1375 
L 863 0 
L 184 0 
L 1544 1831 
L 300 3500 
L 978 3500 
L 1906 2253 
L 2834 3500 
L 3513 3500 
z
" transform="scale(0.015625)"/>
     </defs>
     <use xlink:href="#DejaVuSans-65"/>
     <use xlink:href="#DejaVuSans-78" x="59.773438"/>
     <use xlink:href="#DejaVuSans-74" x="118.953125"/>
     <use xlink:href="#DejaVuSans-65" x="158.162109"/>
     <use xlink:href="#DejaVuSans-72" x="219.685547"/>
     <use xlink:href="#DejaVuSans-6e" x="259.048828"/>
     <use xlink:href="#DejaVuSans-61" x="322.427734"/>
     <use xlink:href="#DejaVuSans-6c" x="383.707031"/>
     <use xlink:href="#DejaVuSans-2d" x="411.490234"/>
    </g>
   </g>
   <g id="text_16">
    <!-- best 2016 -->
    <g transform="translate(386.578944 16.615765)scale(0.14 -0.14)">
     <defs>
      <path id="DejaVuSans-62" d="M 3116 1747 
Q 3116 2381 2855 2742 
Q 2594 3103 2138 3103 
Q 1681 3103 1420 2742 
Q 1159 2381 1159 1747 
Q 1159 1113 1420 752 
Q 1681 391 2138 391 
Q 2594 391 2855 752 
Q 3116 1113 3116 1747 
z
M 1159 2969 
Q 1341 3281 1617 3432 
Q 1894 3584 2278 3584 
Q 2916 3584 3314 3078 
Q 3713 2572 3713 1747 
Q 3713 922 3314 415 
Q 2916 -91 2278 -91 
Q 1894 -91 1617 61 
Q 1341 213 1159 525 
L 1159 0 
L 581 0 
L 581 4863 
L 1159 4863 
L 1159 2969 
z
" transform="scale(0.015625)"/>
     </defs>
     <use xlink:href="#DejaVuSans-62"/>
     <use xlink:href="#DejaVuSans-65" x="63.476562"/>
     <use xlink:href="#DejaVuSans-73" x="125"/>
     <use xlink:href="#DejaVuSans-74" x="177.099609"/>
     <use xlink:href="#DejaVuSans-20" x="216.308594"/>
     <use xlink:href="#DejaVuSans-32" x="248.095703"/>
     <use xlink:href="#DejaVuSans-30" x="311.71875"/>
     <use xlink:href="#DejaVuSans-31" x="375.341797"/>
     <use xlink:href="#DejaVuSans-36" x="438.964844"/>
    </g>
   </g>
   <g id="text_17">
    <!-- bbob-biobj f37, f38, f42, f43, 10-D -->
    <g transform="translate(60.632064 17.582726)scale(0.102 -0.102)">
     <defs>
      <path id="DejaVuSans-6a" d="M 603 3500 
L 1178 3500 
L 1178 -63 
Q 1178 -731 923 -1031 
Q 669 -1331 103 -1331 
L -116 -1331 
L -116 -844 
L 38 -844 
Q 366 -844 484 -692 
Q 603 -541 603 -63 
L 603 3500 
z
M 603 4863 
L 1178 4863 
L 1178 4134 
L 603 4134 
L 603 4863 
z
" transform="scale(0.015625)"/>
      <path id="DejaVuSans-33" d="M 2597 2516 
Q 3050 2419 3304 2112 
Q 3559 1806 3559 1356 
Q 3559 666 3084 287 
Q 2609 -91 1734 -91 
Q 1441 -91 1130 -33 
Q 819 25 488 141 
L 488 750 
Q 750 597 1062 519 
Q 1375 441 1716 441 
Q 2309 441 2620 675 
Q 2931 909 2931 1356 
Q 2931 1769 2642 2001 
Q 2353 2234 1838 2234 
L 1294 2234 
L 1294 2753 
L 1863 2753 
Q 2328 2753 2575 2939 
Q 2822 3125 2822 3475 
Q 2822 3834 2567 4026 
Q 2313 4219 1838 4219 
Q 1578 4219 1281 4162 
Q 984 4106 628 3988 
L 628 4550 
Q 988 4650 1302 4700 
Q 1616 4750 1894 4750 
Q 2613 4750 3031 4423 
Q 3450 4097 3450 3541 
Q 3450 3153 3228 2886 
Q 3006 2619 2597 2516 
z
" transform="scale(0.015625)"/>
      <path id="DejaVuSans-37" d="M 525 4666 
L 3525 4666 
L 3525 4397 
L 1831 0 
L 1172 0 
L 2766 4134 
L 525 4134 
L 525 4666 
z
" transform="scale(0.015625)"/>
      <path id="DejaVuSans-44" d="M 1259 4147 
L 1259 519 
L 2022 519 
Q 2988 519 3436 956 
Q 3884 1394 3884 2338 
Q 3884 3275 3436 3711 
Q 2988 4147 2022 4147 
L 1259 4147 
z
M 628 4666 
L 1925 4666 
Q 3281 4666 3915 4102 
Q 4550 3538 4550 2338 
Q 4550 1131 3912 565 
Q 3275 0 1925 0 
L 628 0 
L 628 4666 
z
" transform="scale(0.015625)"/>
     </defs>
     <use xlink:href="#DejaVuSans-62"/>
     <use xlink:href="#DejaVuSans-62" x="63.476562"/>
     <use xlink:href="#DejaVuSans-6f" x="126.953125"/>
     <use xlink:href="#DejaVuSans-62" x="188.134766"/>
     <use xlink:href="#DejaVuSans-2d" x="251.611328"/>
     <use xlink:href="#DejaVuSans-62" x="287.695312"/>
     <use xlink:href="#DejaVuSans-69" x="351.171875"/>
     <use xlink:href="#DejaVuSans-6f" x="378.955078"/>
     <use xlink:href="#DejaVuSans-62" x="440.136719"/>
     <use xlink:href="#DejaVuSans-6a" x="503.613281"/>
     <use xlink:href="#DejaVuSans-20" x="531.396484"/>
     <use xlink:href="#DejaVuSans-66" x="563.183594"/>
     <use xlink:href="#DejaVuSans-33" x="598.388672"/>
     <use xlink:href="#DejaVuSans-37" x="662.011719"/>
     <use xlink:href="#DejaVuSans-2c" x="725.634766"/>
     <use xlink:href="#DejaVuSans-20" x="757.421875"/>
     <use xlink:href="#DejaVuSans-66" x="789.208984"/>
     <use xlink:href="#DejaVuSans-33" x="824.414062"/>
     <use xlink:href="#DejaVuSans-38" x="888.037109"/>
     <use xlink:href="#DejaVuSans-2c" x="951.660156"/>
     <use xlink:href="#DejaVuSans-20" x="983.447266"/>
     <use xlink:href="#DejaVuSans-66" x="1015.234375"/>
     <use xlink:href="#DejaVuSans-34" x="1050.439453"/>
     <use xlink:href="#DejaVuSans-32" x="1114.0625"/>
     <use xlink:href="#DejaVuSans-2c" x="1177.685547"/>
     <use xlink:href="#DejaVuSans-20" x="1209.472656"/>
     <use xlink:href="#DejaVuSans-66" x="1241.259766"/>
     <use xlink:href="#DejaVuSans-34" x="1276.464844"/>
     <use xlink:href="#DejaVuSans-33" x="1340.087891"/>
     <use xlink:href="#DejaVuSans-2c" x="1403.710938"/>
     <use xlink:href="#DejaVuSans-20" x="1435.498047"/>
     <use xlink:href="#DejaVuSans-31" x="1467.285156"/>
     <use xlink:href="#DejaVuSans-30" x="1530.908203"/>
     <use xlink:href="#DejaVuSans-2d" x="1594.53125"/>
     <use xlink:href="#DejaVuSans-44" x="1630.615234"/>
    </g>
    <!-- 58 targets: 1..-1.0e-4 -->
    <g transform="translate(60.632064 29.004495)scale(0.102 -0.102)">
     <defs>
      <path id="DejaVuSans-35" d="M 691 4666 
L 3169 4666 
L 3169 4134 
L 1269 4134 
L 1269 2991 
Q 1406 3038 1543 3061 
Q 1681 3084 1819 3084 
Q 2600 3084 3056 2656 
Q 3513 2228 3513 1497 
Q 3513 744 3044 326 
Q 2575 -91 1722 -91 
Q 1428 -91 1123 -41 
Q 819 9 494 109 
L 494 744 
Q 775 591 1075 516 
Q 1375 441 1709 441 
Q 2250 441 2565 725 
Q 2881 1009 2881 1497 
Q 2881 1984 2565 2268 
Q 2250 2553 1709 2553 
Q 1456 2553 1204 2497 
Q 953 2441 691 2322 
L 691 4666 
z
" transform="scale(0.015625)"/>
      <path id="DejaVuSans-3a" d="M 750 794 
L 1409 794 
L 1409 0 
L 750 0 
L 750 794 
z
M 750 3309 
L 1409 3309 
L 1409 2516 
L 750 2516 
L 750 3309 
z
" transform="scale(0.015625)"/>
     </defs>
     <use xlink:href="#DejaVuSans-35"/>
     <use xlink:href="#DejaVuSans-38" x="63.623047"/>
     <use xlink:href="#DejaVuSans-20" x="127.246094"/>
     <use xlink:href="#DejaVuSans-74" x="159.033203"/>
     <use xlink:href="#DejaVuSans-61" x="198.242188"/>
     <use xlink:href="#DejaVuSans-72" x="259.521484"/>
     <use xlink:href="#DejaVuSans-67" x="298.884766"/>
     <use xlink:href="#DejaVuSans-65" x="362.361328"/>
     <use xlink:href="#DejaVuSans-74" x="423.884766"/>
     <use xlink:href="#DejaVuSans-73" x="463.09375"/>
     <use xlink:href="#DejaVuSans-3a" x="515.193359"/>
     <use xlink:href="#DejaVuSans-20" x="548.884766"/>
     <use xlink:href="#DejaVuSans-31" x="580.671875"/>
     <use xlink:href="#DejaVuSans-2e" x="644.294922"/>
     <use xlink:href="#DejaVuSans-2e" x="676.082031"/>
     <use xlink:href="#DejaVuSans-2d" x="707.869141"/>
     <use xlink:href="#DejaVuSans-31" x="743.953125"/>
     <use xlink:href="#DejaVuSans-2e" x="807.576172"/>
     <use xlink:href="#DejaVuSans-30" x="839.363281"/>
     <use xlink:href="#DejaVuSans-65" x="902.986328"/>
     <use xlink:href="#DejaVuSans-2d" x="964.509766"/>
     <use xlink:href="#DejaVuSans-34" x="1000.59375"/>
    </g>
    <!-- 10 instances -->
    <g transform="translate(60.632064 40.426264)scale(0.102 -0.102)">
     <use xlink:href="#DejaVuSans-31"/>
     <use xlink:href="#DejaVuSans-30" x="63.623047"/>
     <use xlink:href="#DejaVuSans-20" x="127.246094"/>
     <use xlink:href="#DejaVuSans-69" x="159.033203"/>
     <use xlink:href="#DejaVuSans-6e" x="186.816406"/>
     <use xlink:href="#DejaVuSans-73" x="250.195312"/>
     <use xlink:href="#DejaVuSans-74" x="302.294922"/>
     <use xlink:href="#DejaVuSans-61" x="341.503906"/>
     <use xlink:href="#DejaVuSans-6e" x="402.783203"/>
     <use xlink:href="#DejaVuSans-63" x="466.162109"/>
     <use xlink:href="#DejaVuSans-65" x="521.142578"/>
     <use xlink:href="#DejaVuSans-73" x="582.666016"/>
    </g>
   </g>
   <g id="text_18">
    <!-- v2.6, hv-hash=ff0e71e8cd978373 -->
    <g style="fill: #808080" transform="translate(123.707887 293.943992)scale(0.1 -0.1)">
     <defs>
      <path id="DejaVuSans-68" d="M 3513 2113 
L 3513 0 
L 2938 0 
L 2938 2094 
Q 2938 2591 2744 2837 
Q 2550 3084 2163 3084 
Q 1697 3084 1428 2787 
Q 1159 2491 1159 1978 
L 1159 0 
L 581 0 
L 581 4863 
L 1159 4863 
L 1159 2956 
Q 1366 3272 1645 3428 
Q 1925 3584 2291 3584 
Q 2894 3584 3203 3211 
Q 3513 2838 3513 2113 
z
" transform="scale(0.015625)"/>
      <path id="DejaVuSans-3d" d="M 678 2906 
L 4684 2906 
L 4684 2381 
L 678 2381 
L 678 2906 
z
M 678 1631 
L 4684 1631 
L 4684 1100 
L 678 1100 
L 678 1631 
z
" transform="scale(0.015625)"/>
      <path id="DejaVuSans-39" d="M 703 97 
L 703 672 
Q 941 559 1184 500 
Q 1428 441 1663 441 
Q 2288 441 2617 861 
Q 2947 1281 2994 2138 
Q 2813 1869 2534 1725 
Q 2256 1581 1919 1581 
Q 1219 1581 811 2004 
Q 403 2428 403 3163 
Q 403 3881 828 4315 
Q 1253 4750 1959 4750 
Q 2769 4750 3195 4129 
Q 3622 3509 3622 2328 
Q 3622 1225 3098 567 
Q 2575 -91 1691 -91 
Q 1453 -91 1209 -44 
Q 966 3 703 97 
z
M 1959 2075 
Q 2384 2075 2632 2365 
Q 2881 2656 2881 3163 
Q 2881 3666 2632 3958 
Q 2384 4250 1959 4250 
Q 1534 4250 1286 3958 
Q 1038 3666 1038 3163 
Q 1038 2656 1286 2365 
Q 1534 2075 1959 2075 
z
" transform="scale(0.015625)"/>
     </defs>
     <use xlink:href="#DejaVuSans-76"/>
     <use xlink:href="#DejaVuSans-32" x="59.179688"/>
     <use xlink:href="#DejaVuSans-2e" x="122.802734"/>
     <use xlink:href="#DejaVuSans-36" x="154.589844"/>
     <use xlink:href="#DejaVuSans-2c" x="218.212891"/>
     <use xlink:href="#DejaVuSans-20" x="250"/>
     <use xlink:href="#DejaVuSans-68" x="281.787109"/>
     <use xlink:href="#DejaVuSans-76" x="345.166016"/>
     <use xlink:href="#DejaVuSans-2d" x="401.720703"/>
     <use xlink:href="#DejaVuSans-68" x="437.804688"/>
     <use xlink:href="#DejaVuSans-61" x="501.183594"/>
     <use xlink:href="#DejaVuSans-73" x="562.462891"/>
     <use xlink:href="#DejaVuSans-68" x="614.5625"/>
     <use xlink:href="#DejaVuSans-3d" x="677.941406"/>
     <use xlink:href="#DejaVuSans-66" x="761.730469"/>
     <use xlink:href="#DejaVuSans-66" x="796.935547"/>
     <use xlink:href="#DejaVuSans-30" x="832.140625"/>
     <use xlink:href="#DejaVuSans-65" x="895.763672"/>
     <use xlink:href="#DejaVuSans-37" x="957.287109"/>
     <use xlink:href="#DejaVuSans-31" x="1020.910156"/>
     <use xlink:href="#DejaVuSans-65" x="1084.533203"/>
     <use xlink:href="#DejaVuSans-38" x="1146.056641"/>
     <use xlink:href="#DejaVuSans-63" x="1209.679688"/>
     <use xlink:href="#DejaVuSans-64" x="1264.660156"/>
     <use xlink:href="#DejaVuSans-39" x="1328.136719"/>
     <use xlink:href="#DejaVuSans-37" x="1391.759766"/>
     <use xlink:href="#DejaVuSans-38" x="1455.382812"/>
     <use xlink:href="#DejaVuSans-33" x="1519.005859"/>
     <use xlink:href="#DejaVuSans-37" x="1582.628906"/>
     <use xlink:href="#DejaVuSans-33" x="1646.251953"/>
    </g>
   </g>
  </g>
 </g>
 <defs>
  <clipPath id="p3b14061280">
   <rect x="57.6" y="6.912" width="303.2064" height="292.032"/>
  </clipPath>
 </defs>
</svg>
