<?xml version="1.0" encoding="utf-8" standalone="no"?>
<!DOCTYPE svg PUBLIC "-//W3C//DTD SVG 1.1//EN"
  "http://www.w3.org/Graphics/SVG/1.1/DTD/svg11.dtd">
<svg xmlns:xlink="http://www.w3.org/1999/xlink" width="460.8pt" height="345.6pt" viewBox="0 0 460.8 345.6" xmlns="http://www.w3.org/2000/svg" version="1.1">
 <metadata>
  <rdf:RDF xmlns:dc="http://purl.org/dc/elements/1.1/" xmlns:cc="http://creativecommons.org/ns#" xmlns:rdf="http://www.w3.org/1999/02/22-rdf-syntax-ns#">
   <cc:Work>
    <dc:type rdf:resource="http://purl.org/dc/dcmitype/StillImage"/>
    <dc:date>2022-06-19T21:02:39.894186</dc:date>
    <dc:format>image/svg+xml</dc:format>
    <dc:creator>
     <cc:Agent>
      <dc:title>Matplotlib v3.5.1, https://matplotlib.org/</dc:title>
     </cc:Agent>
    </dc:creator>
   </cc:Work>
  </rdf:RDF>
 </metadata>
 <defs>
  <style type="text/css">*{stroke-linejoin: round; stroke-linecap: butt}</style>
 </defs>
 <g id="figure_1">
  <g id="patch_1">
   <path d="M 0 345.6 
L 460.8 345.6 
L 460.8 0 
L 0 0 
z
" style="fill: #ffffff"/>
  </g>
  <g id="axes_1">
   <g id="patch_2">
    <path d="M 57.6 298.944 
L 360.8064 298.944 
L 360.8064 6.912 
L 57.6 6.912 
z
" style="fill: #ffffff"/>
   </g>
   <g id="line2d_1">
    <path d="M 36.933397 298.944 
L 36.933397 296.426483 
L 49.972572 296.426483 
L 49.972572 292.650207 
L 63.011746 292.650207 
L 63.011746 286.356414 
L 70.639174 286.356414 
L 70.639174 283.838897 
L 73.538988 283.838897 
L 73.538988 281.321379 
L 76.050921 281.321379 
L 76.050921 280.062621 
L 78.266603 280.062621 
L 78.266603 277.545103 
L 82.04153 277.545103 
L 82.04153 275.027586 
L 86.578163 275.027586 
L 86.578163 273.768828 
L 91.305777 273.768828 
L 91.305777 269.992552 
L 94.205591 269.992552 
L 94.205591 266.216276 
L 99.617337 266.216276 
L 99.617337 258.663724 
L 108.956085 258.663724 
L 108.956085 252.369931 
L 111.262425 252.369931 
L 111.262425 251.111172 
L 111.97238 251.111172 
L 111.97238 247.334897 
L 116.854188 247.334897 
L 116.854188 246.076138 
L 117.899543 246.076138 
L 117.899543 243.558621 
L 118.401214 243.558621 
L 118.401214 241.041103 
L 122.399825 241.041103 
L 122.399825 238.523586 
L 125.526971 238.523586 
L 125.526971 236.006069 
L 126.993549 236.006069 
L 126.993549 234.74731 
L 128.354013 234.74731 
L 128.354013 233.488552 
L 129.893363 233.488552 
L 129.893363 229.712276 
L 131.929028 229.712276 
L 131.929028 225.936 
L 137.520791 225.936 
L 137.520791 223.418483 
L 138.481218 223.418483 
L 138.481218 220.900966 
L 139.636676 220.900966 
L 139.716555 215.865931 
L 144.847227 215.865931 
L 144.847227 212.089655 
L 146.529503 212.089655 
L 146.529503 209.572138 
L 148.124658 209.572138 
L 148.124658 207.054621 
L 152.312136 207.054621 
L 152.352898 202.019586 
L 156.271636 202.019586 
L 156.271636 199.502069 
L 158.0976 199.502069 
L 158.0976 198.24331 
L 159.540912 198.24331 
L 159.540912 195.725793 
L 163.145827 195.725793 
L 163.145827 194.467034 
L 164.559567 194.467034 
L 164.559567 190.690759 
L 167.725016 190.690759 
L 167.725016 188.173241 
L 169.832482 188.173241 
L 169.832482 184.396966 
L 170.665892 184.396966 
L 170.665892 183.138207 
L 176.526006 183.138207 
L 176.526006 179.361931 
L 177.673074 179.361931 
L 177.673074 178.103172 
L 178.814141 178.103172 
L 178.814141 176.844414 
L 180.925357 176.844414 
L 180.925357 173.068138 
L 182.100381 173.068138 
L 182.100381 170.550621 
L 184.108322 170.550621 
L 184.108322 168.033103 
L 186.580694 168.033103 
L 186.580694 165.515586 
L 188.594344 165.515586 
L 188.594344 161.73931 
L 192.2139 161.73931 
L 192.26764 155.445517 
L 193.640806 155.445517 
L 193.640806 154.186759 
L 196.308553 154.186759 
L 196.308553 150.410483 
L 199.813583 150.410483 
L 199.882054 146.634207 
L 201.307498 146.634207 
L 201.307498 145.375448 
L 203.562361 145.375448 
L 203.626482 140.340414 
L 208.295624 140.340414 
L 208.295624 137.822897 
L 210.182907 137.822897 
L 210.282405 132.787862 
L 216.340128 132.787862 
L 216.340128 129.011586 
L 217.169608 129.011586 
L 217.169608 125.23531 
L 217.990172 125.23531 
L 217.990172 122.717793 
L 223.247475 122.717793 
L 223.247475 121.459034 
L 223.959413 121.459034 
L 223.959413 120.200276 
L 229.290218 120.200276 
L 229.290218 116.424 
L 229.656092 116.424 
L 229.656092 115.165241 
L 230.816855 115.165241 
L 230.816855 113.906483 
L 231.069078 113.906483 
L 231.069078 110.130207 
L 234.546933 110.130207 
L 234.546933 106.353931 
L 234.903839 106.353931 
L 234.903839 102.577655 
L 236.797977 102.577655 
L 236.797977 101.318897 
L 237.434224 101.318897 
L 237.434224 100.060138 
L 238.55916 100.060138 
L 238.55916 97.542621 
L 238.74564 97.542621 
L 238.74564 95.025103 
L 239.644992 95.025103 
L 239.644992 91.248828 
L 243.104923 91.248828 
L 243.104923 88.73131 
L 243.978818 88.73131 
L 243.978818 86.213793 
L 245.640961 86.213793 
L 245.640961 82.437517 
L 247.11399 82.437517 
L 247.222036 77.402483 
L 250.363875 77.402483 
L 250.363875 76.143724 
L 250.941484 76.143724 
L 250.941484 73.626207 
L 252.14868 73.626207 
L 252.14868 72.367448 
L 254.433486 72.367448 
L 254.433486 71.10869 
L 256.479756 71.10869 
L 256.479756 68.591172 
L 257.820504 68.591172 
L 257.820504 66.073655 
L 258.062913 66.073655 
L 258.062913 63.556138 
L 260.399444 63.556138 
L 260.399444 61.038621 
L 262.756466 61.038621 
L 262.756466 59.779862 
L 264.08838 59.779862 
L 264.08838 56.003586 
L 266.662787 56.003586 
L 266.662787 52.22731 
L 266.985345 52.22731 
L 266.985345 48.451034 
L 269.459723 48.451034 
L 269.459723 45.933517 
L 276.39497 45.933517 
L 276.39497 42.157241 
L 360.8064 42.157241 
L 360.8064 42.157241 
" style="fill: none; stroke: #f5deb3; stroke-width: 4; stroke-linecap: square"/>
   </g>
   <g id="line2d_2">
    <defs>
     <path id="m156d93882f" d="M 0 7.778175 
L 7.778175 0 
L 0 -7.778175 
L -7.778175 0 
z
" style="stroke: #f5deb3; stroke-width: 1.5; stroke-linejoin: miter"/>
    </defs>
    <g>
     <use xlink:href="#m156d93882f" x="131.929028" y="225.936" style="fill: #f5deb3; stroke: #f5deb3; stroke-width: 1.5; stroke-linejoin: miter"/>
     <use xlink:href="#m156d93882f" x="176.526006" y="183.138207" style="fill: #f5deb3; stroke: #f5deb3; stroke-width: 1.5; stroke-linejoin: miter"/>
     <use xlink:href="#m156d93882f" x="236.797977" y="101.318897" style="fill: #f5deb3; stroke: #f5deb3; stroke-width: 1.5; stroke-linejoin: miter"/>
     <use xlink:href="#m156d93882f" x="276.39497" y="42.157241" style="fill: #f5deb3; stroke: #f5deb3; stroke-width: 1.5; stroke-linejoin: miter"/>
     <use xlink:href="#m156d93882f" x="276.39497" y="42.157241" style="fill: #f5deb3; stroke: #f5deb3; stroke-width: 1.5; stroke-linejoin: miter"/>
     <use xlink:href="#m156d93882f" x="360.8064" y="42.157241" style="fill: #f5deb3; stroke: #f5deb3; stroke-width: 1.5; stroke-linejoin: miter"/>
    </g>
   </g>
   <g id="line2d_3">
    <path style="fill: none; stroke: #f5deb3; stroke-width: 4; stroke-linecap: square"/>
    <g/>
   </g>
   <g id="line2d_4">
    <path d="M 360.8064 42.157241 
L 380.514816 12.75264 
" style="fill: none; stroke: #f5deb3; stroke-width: 4; stroke-linecap: square"/>
    <g>
     <use xlink:href="#m156d93882f" x="360.8064" y="42.157241" style="fill: #f5deb3; stroke: #f5deb3; stroke-width: 1.5; stroke-linejoin: miter"/>
     <use xlink:href="#m156d93882f" x="380.514816" y="12.75264" style="fill: #f5deb3; stroke: #f5deb3; stroke-width: 1.5; stroke-linejoin: miter"/>
    </g>
   </g>
   <g id="matplotlib.axis_1">
    <g id="xtick_1">
     <g id="line2d_5">
      <path d="M 57.6 298.944 
L 57.6 6.912 
" clip-path="url(#pd4fd895419)" style="fill: none; stroke: #b0b0b0; stroke-width: 0.8; stroke-linecap: square"/>
     </g>
     <g id="line2d_6">
      <defs>
       <path id="me963044318" d="M 0 0 
L 0 3.5 
" style="stroke: #000000; stroke-width: 0.8"/>
      </defs>
      <g>
       <use xlink:href="#me963044318" x="57.6" y="298.944" style="stroke: #000000; stroke-width: 0.8"/>
      </g>
     </g>
     <g id="text_1">
      <!-- 0 -->
      <g transform="translate(52.191875 318.861344)scale(0.17 -0.17)">
       <defs>
        <path id="DejaVuSans-30" d="M 2034 4250 
Q 1547 4250 1301 3770 
Q 1056 3291 1056 2328 
Q 1056 1369 1301 889 
Q 1547 409 2034 409 
Q 2525 409 2770 889 
Q 3016 1369 3016 2328 
Q 3016 3291 2770 3770 
Q 2525 4250 2034 4250 
z
M 2034 4750 
Q 2819 4750 3233 4129 
Q 3647 3509 3647 2328 
Q 3647 1150 3233 529 
Q 2819 -91 2034 -91 
Q 1250 -91 836 529 
Q 422 1150 422 2328 
Q 422 3509 836 4129 
Q 1250 4750 2034 4750 
z
" transform="scale(0.015625)"/>
       </defs>
       <use xlink:href="#DejaVuSans-30"/>
      </g>
     </g>
    </g>
    <g id="xtick_2">
     <g id="line2d_7">
      <path d="M 144.2304 298.944 
L 144.2304 6.912 
" clip-path="url(#pd4fd895419)" style="fill: none; stroke: #b0b0b0; stroke-width: 0.8; stroke-linecap: square"/>
     </g>
     <g id="line2d_8">
      <g>
       <use xlink:href="#me963044318" x="144.2304" y="298.944" style="stroke: #000000; stroke-width: 0.8"/>
      </g>
     </g>
     <g id="text_2">
      <!-- 2 -->
      <g transform="translate(138.822275 318.861344)scale(0.17 -0.17)">
       <defs>
        <path id="DejaVuSans-32" d="M 1228 531 
L 3431 531 
L 3431 0 
L 469 0 
L 469 531 
Q 828 903 1448 1529 
Q 2069 2156 2228 2338 
Q 2531 2678 2651 2914 
Q 2772 3150 2772 3378 
Q 2772 3750 2511 3984 
Q 2250 4219 1831 4219 
Q 1534 4219 1204 4116 
Q 875 4013 500 3803 
L 500 4441 
Q 881 4594 1212 4672 
Q 1544 4750 1819 4750 
Q 2544 4750 2975 4387 
Q 3406 4025 3406 3419 
Q 3406 3131 3298 2873 
Q 3191 2616 2906 2266 
Q 2828 2175 2409 1742 
Q 1991 1309 1228 531 
z
" transform="scale(0.015625)"/>
       </defs>
       <use xlink:href="#DejaVuSans-32"/>
      </g>
     </g>
    </g>
    <g id="xtick_3">
     <g id="line2d_9">
      <path d="M 230.8608 298.944 
L 230.8608 6.912 
" clip-path="url(#pd4fd895419)" style="fill: none; stroke: #b0b0b0; stroke-width: 0.8; stroke-linecap: square"/>
     </g>
     <g id="line2d_10">
      <g>
       <use xlink:href="#me963044318" x="230.8608" y="298.944" style="stroke: #000000; stroke-width: 0.8"/>
      </g>
     </g>
     <g id="text_3">
      <!-- 4 -->
      <g transform="translate(225.452675 318.861344)scale(0.17 -0.17)">
       <defs>
        <path id="DejaVuSans-34" d="M 2419 4116 
L 825 1625 
L 2419 1625 
L 2419 4116 
z
M 2253 4666 
L 3047 4666 
L 3047 1625 
L 3713 1625 
L 3713 1100 
L 3047 1100 
L 3047 0 
L 2419 0 
L 2419 1100 
L 313 1100 
L 313 1709 
L 2253 4666 
z
" transform="scale(0.015625)"/>
       </defs>
       <use xlink:href="#DejaVuSans-34"/>
      </g>
     </g>
    </g>
    <g id="xtick_4">
     <g id="line2d_11">
      <path d="M 317.4912 298.944 
L 317.4912 6.912 
" clip-path="url(#pd4fd895419)" style="fill: none; stroke: #b0b0b0; stroke-width: 0.8; stroke-linecap: square"/>
     </g>
     <g id="line2d_12">
      <g>
       <use xlink:href="#me963044318" x="317.4912" y="298.944" style="stroke: #000000; stroke-width: 0.8"/>
      </g>
     </g>
     <g id="text_4">
      <!-- 6 -->
      <g transform="translate(312.083075 318.861344)scale(0.17 -0.17)">
       <defs>
        <path id="DejaVuSans-36" d="M 2113 2584 
Q 1688 2584 1439 2293 
Q 1191 2003 1191 1497 
Q 1191 994 1439 701 
Q 1688 409 2113 409 
Q 2538 409 2786 701 
Q 3034 994 3034 1497 
Q 3034 2003 2786 2293 
Q 2538 2584 2113 2584 
z
M 3366 4563 
L 3366 3988 
Q 3128 4100 2886 4159 
Q 2644 4219 2406 4219 
Q 1781 4219 1451 3797 
Q 1122 3375 1075 2522 
Q 1259 2794 1537 2939 
Q 1816 3084 2150 3084 
Q 2853 3084 3261 2657 
Q 3669 2231 3669 1497 
Q 3669 778 3244 343 
Q 2819 -91 2113 -91 
Q 1303 -91 875 529 
Q 447 1150 447 2328 
Q 447 3434 972 4092 
Q 1497 4750 2381 4750 
Q 2619 4750 2861 4703 
Q 3103 4656 3366 4563 
z
" transform="scale(0.015625)"/>
       </defs>
       <use xlink:href="#DejaVuSans-36"/>
      </g>
     </g>
    </g>
    <g id="xtick_5">
     <g id="line2d_13">
      <path d="M 100.9152 298.944 
L 100.9152 6.912 
" clip-path="url(#pd4fd895419)" style="fill: none; stroke: #b0b0b0; stroke-width: 0.8; stroke-linecap: square"/>
     </g>
     <g id="line2d_14">
      <defs>
       <path id="m37bdf781e8" d="M 0 0 
L 0 2 
" style="stroke: #000000; stroke-width: 0.6"/>
      </defs>
      <g>
       <use xlink:href="#m37bdf781e8" x="100.9152" y="298.944" style="stroke: #000000; stroke-width: 0.6"/>
      </g>
     </g>
    </g>
    <g id="xtick_6">
     <g id="line2d_15">
      <path d="M 187.5456 298.944 
L 187.5456 6.912 
" clip-path="url(#pd4fd895419)" style="fill: none; stroke: #b0b0b0; stroke-width: 0.8; stroke-linecap: square"/>
     </g>
     <g id="line2d_16">
      <g>
       <use xlink:href="#m37bdf781e8" x="187.5456" y="298.944" style="stroke: #000000; stroke-width: 0.6"/>
      </g>
     </g>
    </g>
    <g id="xtick_7">
     <g id="line2d_17">
      <path d="M 274.176 298.944 
L 274.176 6.912 
" clip-path="url(#pd4fd895419)" style="fill: none; stroke: #b0b0b0; stroke-width: 0.8; stroke-linecap: square"/>
     </g>
     <g id="line2d_18">
      <g>
       <use xlink:href="#m37bdf781e8" x="274.176" y="298.944" style="stroke: #000000; stroke-width: 0.6"/>
      </g>
     </g>
    </g>
    <g id="xtick_8">
     <g id="line2d_19">
      <path d="M 360.8064 298.944 
L 360.8064 6.912 
" clip-path="url(#pd4fd895419)" style="fill: none; stroke: #b0b0b0; stroke-width: 0.8; stroke-linecap: square"/>
     </g>
     <g id="line2d_20">
      <g>
       <use xlink:href="#m37bdf781e8" x="360.8064" y="298.944" style="stroke: #000000; stroke-width: 0.6"/>
      </g>
     </g>
    </g>
    <g id="text_5">
     <!-- log10(# f-evals / dimension) -->
     <g transform="translate(88.823278 339.314156)scale(0.17 -0.17)">
      <defs>
       <path id="DejaVuSans-6c" d="M 603 4863 
L 1178 4863 
L 1178 0 
L 603 0 
L 603 4863 
z
" transform="scale(0.015625)"/>
       <path id="DejaVuSans-6f" d="M 1959 3097 
Q 1497 3097 1228 2736 
Q 959 2375 959 1747 
Q 959 1119 1226 758 
Q 1494 397 1959 397 
Q 2419 397 2687 759 
Q 2956 1122 2956 1747 
Q 2956 2369 2687 2733 
Q 2419 3097 1959 3097 
z
M 1959 3584 
Q 2709 3584 3137 3096 
Q 3566 2609 3566 1747 
Q 3566 888 3137 398 
Q 2709 -91 1959 -91 
Q 1206 -91 779 398 
Q 353 888 353 1747 
Q 353 2609 779 3096 
Q 1206 3584 1959 3584 
z
" transform="scale(0.015625)"/>
       <path id="DejaVuSans-67" d="M 2906 1791 
Q 2906 2416 2648 2759 
Q 2391 3103 1925 3103 
Q 1463 3103 1205 2759 
Q 947 2416 947 1791 
Q 947 1169 1205 825 
Q 1463 481 1925 481 
Q 2391 481 2648 825 
Q 2906 1169 2906 1791 
z
M 3481 434 
Q 3481 -459 3084 -895 
Q 2688 -1331 1869 -1331 
Q 1566 -1331 1297 -1286 
Q 1028 -1241 775 -1147 
L 775 -588 
Q 1028 -725 1275 -790 
Q 1522 -856 1778 -856 
Q 2344 -856 2625 -561 
Q 2906 -266 2906 331 
L 2906 616 
Q 2728 306 2450 153 
Q 2172 0 1784 0 
Q 1141 0 747 490 
Q 353 981 353 1791 
Q 353 2603 747 3093 
Q 1141 3584 1784 3584 
Q 2172 3584 2450 3431 
Q 2728 3278 2906 2969 
L 2906 3500 
L 3481 3500 
L 3481 434 
z
" transform="scale(0.015625)"/>
       <path id="DejaVuSans-31" d="M 794 531 
L 1825 531 
L 1825 4091 
L 703 3866 
L 703 4441 
L 1819 4666 
L 2450 4666 
L 2450 531 
L 3481 531 
L 3481 0 
L 794 0 
L 794 531 
z
" transform="scale(0.015625)"/>
       <path id="DejaVuSans-28" d="M 1984 4856 
Q 1566 4138 1362 3434 
Q 1159 2731 1159 2009 
Q 1159 1288 1364 580 
Q 1569 -128 1984 -844 
L 1484 -844 
Q 1016 -109 783 600 
Q 550 1309 550 2009 
Q 550 2706 781 3412 
Q 1013 4119 1484 4856 
L 1984 4856 
z
" transform="scale(0.015625)"/>
       <path id="DejaVuSans-23" d="M 3272 2816 
L 2363 2816 
L 2100 1772 
L 3016 1772 
L 3272 2816 
z
M 2803 4594 
L 2478 3297 
L 3391 3297 
L 3719 4594 
L 4219 4594 
L 3897 3297 
L 4872 3297 
L 4872 2816 
L 3775 2816 
L 3519 1772 
L 4513 1772 
L 4513 1294 
L 3397 1294 
L 3072 0 
L 2572 0 
L 2894 1294 
L 1978 1294 
L 1656 0 
L 1153 0 
L 1478 1294 
L 494 1294 
L 494 1772 
L 1594 1772 
L 1856 2816 
L 850 2816 
L 850 3297 
L 1978 3297 
L 2297 4594 
L 2803 4594 
z
" transform="scale(0.015625)"/>
       <path id="DejaVuSans-20" transform="scale(0.015625)"/>
       <path id="DejaVuSans-66" d="M 2375 4863 
L 2375 4384 
L 1825 4384 
Q 1516 4384 1395 4259 
Q 1275 4134 1275 3809 
L 1275 3500 
L 2222 3500 
L 2222 3053 
L 1275 3053 
L 1275 0 
L 697 0 
L 697 3053 
L 147 3053 
L 147 3500 
L 697 3500 
L 697 3744 
Q 697 4328 969 4595 
Q 1241 4863 1831 4863 
L 2375 4863 
z
" transform="scale(0.015625)"/>
       <path id="DejaVuSans-2d" d="M 313 2009 
L 1997 2009 
L 1997 1497 
L 313 1497 
L 313 2009 
z
" transform="scale(0.015625)"/>
       <path id="DejaVuSans-65" d="M 3597 1894 
L 3597 1613 
L 953 1613 
Q 991 1019 1311 708 
Q 1631 397 2203 397 
Q 2534 397 2845 478 
Q 3156 559 3463 722 
L 3463 178 
Q 3153 47 2828 -22 
Q 2503 -91 2169 -91 
Q 1331 -91 842 396 
Q 353 884 353 1716 
Q 353 2575 817 3079 
Q 1281 3584 2069 3584 
Q 2775 3584 3186 3129 
Q 3597 2675 3597 1894 
z
M 3022 2063 
Q 3016 2534 2758 2815 
Q 2500 3097 2075 3097 
Q 1594 3097 1305 2825 
Q 1016 2553 972 2059 
L 3022 2063 
z
" transform="scale(0.015625)"/>
       <path id="DejaVuSans-76" d="M 191 3500 
L 800 3500 
L 1894 563 
L 2988 3500 
L 3597 3500 
L 2284 0 
L 1503 0 
L 191 3500 
z
" transform="scale(0.015625)"/>
       <path id="DejaVuSans-61" d="M 2194 1759 
Q 1497 1759 1228 1600 
Q 959 1441 959 1056 
Q 959 750 1161 570 
Q 1363 391 1709 391 
Q 2188 391 2477 730 
Q 2766 1069 2766 1631 
L 2766 1759 
L 2194 1759 
z
M 3341 1997 
L 3341 0 
L 2766 0 
L 2766 531 
Q 2569 213 2275 61 
Q 1981 -91 1556 -91 
Q 1019 -91 701 211 
Q 384 513 384 1019 
Q 384 1609 779 1909 
Q 1175 2209 1959 2209 
L 2766 2209 
L 2766 2266 
Q 2766 2663 2505 2880 
Q 2244 3097 1772 3097 
Q 1472 3097 1187 3025 
Q 903 2953 641 2809 
L 641 3341 
Q 956 3463 1253 3523 
Q 1550 3584 1831 3584 
Q 2591 3584 2966 3190 
Q 3341 2797 3341 1997 
z
" transform="scale(0.015625)"/>
       <path id="DejaVuSans-73" d="M 2834 3397 
L 2834 2853 
Q 2591 2978 2328 3040 
Q 2066 3103 1784 3103 
Q 1356 3103 1142 2972 
Q 928 2841 928 2578 
Q 928 2378 1081 2264 
Q 1234 2150 1697 2047 
L 1894 2003 
Q 2506 1872 2764 1633 
Q 3022 1394 3022 966 
Q 3022 478 2636 193 
Q 2250 -91 1575 -91 
Q 1294 -91 989 -36 
Q 684 19 347 128 
L 347 722 
Q 666 556 975 473 
Q 1284 391 1588 391 
Q 1994 391 2212 530 
Q 2431 669 2431 922 
Q 2431 1156 2273 1281 
Q 2116 1406 1581 1522 
L 1381 1569 
Q 847 1681 609 1914 
Q 372 2147 372 2553 
Q 372 3047 722 3315 
Q 1072 3584 1716 3584 
Q 2034 3584 2315 3537 
Q 2597 3491 2834 3397 
z
" transform="scale(0.015625)"/>
       <path id="DejaVuSans-2f" d="M 1625 4666 
L 2156 4666 
L 531 -594 
L 0 -594 
L 1625 4666 
z
" transform="scale(0.015625)"/>
       <path id="DejaVuSans-64" d="M 2906 2969 
L 2906 4863 
L 3481 4863 
L 3481 0 
L 2906 0 
L 2906 525 
Q 2725 213 2448 61 
Q 2172 -91 1784 -91 
Q 1150 -91 751 415 
Q 353 922 353 1747 
Q 353 2572 751 3078 
Q 1150 3584 1784 3584 
Q 2172 3584 2448 3432 
Q 2725 3281 2906 2969 
z
M 947 1747 
Q 947 1113 1208 752 
Q 1469 391 1925 391 
Q 2381 391 2643 752 
Q 2906 1113 2906 1747 
Q 2906 2381 2643 2742 
Q 2381 3103 1925 3103 
Q 1469 3103 1208 2742 
Q 947 2381 947 1747 
z
" transform="scale(0.015625)"/>
       <path id="DejaVuSans-69" d="M 603 3500 
L 1178 3500 
L 1178 0 
L 603 0 
L 603 3500 
z
M 603 4863 
L 1178 4863 
L 1178 4134 
L 603 4134 
L 603 4863 
z
" transform="scale(0.015625)"/>
       <path id="DejaVuSans-6d" d="M 3328 2828 
Q 3544 3216 3844 3400 
Q 4144 3584 4550 3584 
Q 5097 3584 5394 3201 
Q 5691 2819 5691 2113 
L 5691 0 
L 5113 0 
L 5113 2094 
Q 5113 2597 4934 2840 
Q 4756 3084 4391 3084 
Q 3944 3084 3684 2787 
Q 3425 2491 3425 1978 
L 3425 0 
L 2847 0 
L 2847 2094 
Q 2847 2600 2669 2842 
Q 2491 3084 2119 3084 
Q 1678 3084 1418 2786 
Q 1159 2488 1159 1978 
L 1159 0 
L 581 0 
L 581 3500 
L 1159 3500 
L 1159 2956 
Q 1356 3278 1631 3431 
Q 1906 3584 2284 3584 
Q 2666 3584 2933 3390 
Q 3200 3197 3328 2828 
z
" transform="scale(0.015625)"/>
       <path id="DejaVuSans-6e" d="M 3513 2113 
L 3513 0 
L 2938 0 
L 2938 2094 
Q 2938 2591 2744 2837 
Q 2550 3084 2163 3084 
Q 1697 3084 1428 2787 
Q 1159 2491 1159 1978 
L 1159 0 
L 581 0 
L 581 3500 
L 1159 3500 
L 1159 2956 
Q 1366 3272 1645 3428 
Q 1925 3584 2291 3584 
Q 2894 3584 3203 3211 
Q 3513 2838 3513 2113 
z
" transform="scale(0.015625)"/>
       <path id="DejaVuSans-29" d="M 513 4856 
L 1013 4856 
Q 1481 4119 1714 3412 
Q 1947 2706 1947 2009 
Q 1947 1309 1714 600 
Q 1481 -109 1013 -844 
L 513 -844 
Q 928 -128 1133 580 
Q 1338 1288 1338 2009 
Q 1338 2731 1133 3434 
Q 928 4138 513 4856 
z
" transform="scale(0.015625)"/>
      </defs>
      <use xlink:href="#DejaVuSans-6c"/>
      <use xlink:href="#DejaVuSans-6f" x="27.783203"/>
      <use xlink:href="#DejaVuSans-67" x="88.964844"/>
      <use xlink:href="#DejaVuSans-31" x="152.441406"/>
      <use xlink:href="#DejaVuSans-30" x="216.064453"/>
      <use xlink:href="#DejaVuSans-28" x="279.6875"/>
      <use xlink:href="#DejaVuSans-23" x="318.701172"/>
      <use xlink:href="#DejaVuSans-20" x="402.490234"/>
      <use xlink:href="#DejaVuSans-66" x="434.277344"/>
      <use xlink:href="#DejaVuSans-2d" x="463.982422"/>
      <use xlink:href="#DejaVuSans-65" x="500.066406"/>
      <use xlink:href="#DejaVuSans-76" x="561.589844"/>
      <use xlink:href="#DejaVuSans-61" x="620.769531"/>
      <use xlink:href="#DejaVuSans-6c" x="682.048828"/>
      <use xlink:href="#DejaVuSans-73" x="709.832031"/>
      <use xlink:href="#DejaVuSans-20" x="761.931641"/>
      <use xlink:href="#DejaVuSans-2f" x="793.71875"/>
      <use xlink:href="#DejaVuSans-20" x="827.410156"/>
      <use xlink:href="#DejaVuSans-64" x="859.197266"/>
      <use xlink:href="#DejaVuSans-69" x="922.673828"/>
      <use xlink:href="#DejaVuSans-6d" x="950.457031"/>
      <use xlink:href="#DejaVuSans-65" x="1047.869141"/>
      <use xlink:href="#DejaVuSans-6e" x="1109.392578"/>
      <use xlink:href="#DejaVuSans-73" x="1172.771484"/>
      <use xlink:href="#DejaVuSans-69" x="1224.871094"/>
      <use xlink:href="#DejaVuSans-6f" x="1252.654297"/>
      <use xlink:href="#DejaVuSans-6e" x="1313.835938"/>
      <use xlink:href="#DejaVuSans-29" x="1377.214844"/>
     </g>
    </g>
   </g>
   <g id="matplotlib.axis_2">
    <g id="ytick_1">
     <g id="line2d_21">
      <path d="M 57.6 298.944 
L 360.8064 298.944 
" clip-path="url(#pd4fd895419)" style="fill: none; stroke: #b0b0b0; stroke-width: 0.8; stroke-linecap: square"/>
     </g>
     <g id="line2d_22">
      <defs>
       <path id="mf70180b41e" d="M 0 0 
L -3.5 0 
" style="stroke: #000000; stroke-width: 0.8"/>
      </defs>
      <g>
       <use xlink:href="#mf70180b41e" x="57.6" y="298.944" style="stroke: #000000; stroke-width: 0.8"/>
      </g>
     </g>
     <g id="text_6">
      <!-- 0.0 -->
      <g transform="translate(25.155 305.02275)scale(0.16 -0.16)">
       <defs>
        <path id="DejaVuSans-2e" d="M 684 794 
L 1344 794 
L 1344 0 
L 684 0 
L 684 794 
z
" transform="scale(0.015625)"/>
       </defs>
       <use xlink:href="#DejaVuSans-30"/>
       <use xlink:href="#DejaVuSans-2e" x="63.623047"/>
       <use xlink:href="#DejaVuSans-30" x="95.410156"/>
      </g>
     </g>
    </g>
    <g id="ytick_2">
     <g id="line2d_23">
      <path d="M 57.6 240.5376 
L 360.8064 240.5376 
" clip-path="url(#pd4fd895419)" style="fill: none; stroke: #b0b0b0; stroke-width: 0.8; stroke-linecap: square"/>
     </g>
     <g id="line2d_24">
      <g>
       <use xlink:href="#mf70180b41e" x="57.6" y="240.5376" style="stroke: #000000; stroke-width: 0.8"/>
      </g>
     </g>
     <g id="text_7">
      <!-- 0.2 -->
      <g transform="translate(25.155 246.61635)scale(0.16 -0.16)">
       <use xlink:href="#DejaVuSans-30"/>
       <use xlink:href="#DejaVuSans-2e" x="63.623047"/>
       <use xlink:href="#DejaVuSans-32" x="95.410156"/>
      </g>
     </g>
    </g>
    <g id="ytick_3">
     <g id="line2d_25">
      <path d="M 57.6 182.1312 
L 360.8064 182.1312 
" clip-path="url(#pd4fd895419)" style="fill: none; stroke: #b0b0b0; stroke-width: 0.8; stroke-linecap: square"/>
     </g>
     <g id="line2d_26">
      <g>
       <use xlink:href="#mf70180b41e" x="57.6" y="182.1312" style="stroke: #000000; stroke-width: 0.8"/>
      </g>
     </g>
     <g id="text_8">
      <!-- 0.4 -->
      <g transform="translate(25.155 188.20995)scale(0.16 -0.16)">
       <use xlink:href="#DejaVuSans-30"/>
       <use xlink:href="#DejaVuSans-2e" x="63.623047"/>
       <use xlink:href="#DejaVuSans-34" x="95.410156"/>
      </g>
     </g>
    </g>
    <g id="ytick_4">
     <g id="line2d_27">
      <path d="M 57.6 123.7248 
L 360.8064 123.7248 
" clip-path="url(#pd4fd895419)" style="fill: none; stroke: #b0b0b0; stroke-width: 0.8; stroke-linecap: square"/>
     </g>
     <g id="line2d_28">
      <g>
       <use xlink:href="#mf70180b41e" x="57.6" y="123.7248" style="stroke: #000000; stroke-width: 0.8"/>
      </g>
     </g>
     <g id="text_9">
      <!-- 0.6 -->
      <g transform="translate(25.155 129.80355)scale(0.16 -0.16)">
       <use xlink:href="#DejaVuSans-30"/>
       <use xlink:href="#DejaVuSans-2e" x="63.623047"/>
       <use xlink:href="#DejaVuSans-36" x="95.410156"/>
      </g>
     </g>
    </g>
    <g id="ytick_5">
     <g id="line2d_29">
      <path d="M 57.6 65.3184 
L 360.8064 65.3184 
" clip-path="url(#pd4fd895419)" style="fill: none; stroke: #b0b0b0; stroke-width: 0.8; stroke-linecap: square"/>
     </g>
     <g id="line2d_30">
      <g>
       <use xlink:href="#mf70180b41e" x="57.6" y="65.3184" style="stroke: #000000; stroke-width: 0.8"/>
      </g>
     </g>
     <g id="text_10">
      <!-- 0.8 -->
      <g transform="translate(25.155 71.39715)scale(0.16 -0.16)">
       <defs>
        <path id="DejaVuSans-38" d="M 2034 2216 
Q 1584 2216 1326 1975 
Q 1069 1734 1069 1313 
Q 1069 891 1326 650 
Q 1584 409 2034 409 
Q 2484 409 2743 651 
Q 3003 894 3003 1313 
Q 3003 1734 2745 1975 
Q 2488 2216 2034 2216 
z
M 1403 2484 
Q 997 2584 770 2862 
Q 544 3141 544 3541 
Q 544 4100 942 4425 
Q 1341 4750 2034 4750 
Q 2731 4750 3128 4425 
Q 3525 4100 3525 3541 
Q 3525 3141 3298 2862 
Q 3072 2584 2669 2484 
Q 3125 2378 3379 2068 
Q 3634 1759 3634 1313 
Q 3634 634 3220 271 
Q 2806 -91 2034 -91 
Q 1263 -91 848 271 
Q 434 634 434 1313 
Q 434 1759 690 2068 
Q 947 2378 1403 2484 
z
M 1172 3481 
Q 1172 3119 1398 2916 
Q 1625 2713 2034 2713 
Q 2441 2713 2670 2916 
Q 2900 3119 2900 3481 
Q 2900 3844 2670 4047 
Q 2441 4250 2034 4250 
Q 1625 4250 1398 4047 
Q 1172 3844 1172 3481 
z
" transform="scale(0.015625)"/>
       </defs>
       <use xlink:href="#DejaVuSans-30"/>
       <use xlink:href="#DejaVuSans-2e" x="63.623047"/>
       <use xlink:href="#DejaVuSans-38" x="95.410156"/>
      </g>
     </g>
    </g>
    <g id="ytick_6">
     <g id="line2d_31">
      <path d="M 57.6 6.912 
L 360.8064 6.912 
" clip-path="url(#pd4fd895419)" style="fill: none; stroke: #b0b0b0; stroke-width: 0.8; stroke-linecap: square"/>
     </g>
     <g id="line2d_32">
      <g>
       <use xlink:href="#mf70180b41e" x="57.6" y="6.912" style="stroke: #000000; stroke-width: 0.8"/>
      </g>
     </g>
     <g id="text_11">
      <!-- 1.0 -->
      <g transform="translate(25.155 12.99075)scale(0.16 -0.16)">
       <use xlink:href="#DejaVuSans-31"/>
       <use xlink:href="#DejaVuSans-2e" x="63.623047"/>
       <use xlink:href="#DejaVuSans-30" x="95.410156"/>
      </g>
     </g>
    </g>
    <g id="text_12">
     <!-- Fraction of function,target pairs -->
     <g transform="translate(17.619531 287.313)rotate(-90)scale(0.17 -0.17)">
      <defs>
       <path id="DejaVuSans-46" d="M 628 4666 
L 3309 4666 
L 3309 4134 
L 1259 4134 
L 1259 2759 
L 3109 2759 
L 3109 2228 
L 1259 2228 
L 1259 0 
L 628 0 
L 628 4666 
z
" transform="scale(0.015625)"/>
       <path id="DejaVuSans-72" d="M 2631 2963 
Q 2534 3019 2420 3045 
Q 2306 3072 2169 3072 
Q 1681 3072 1420 2755 
Q 1159 2438 1159 1844 
L 1159 0 
L 581 0 
L 581 3500 
L 1159 3500 
L 1159 2956 
Q 1341 3275 1631 3429 
Q 1922 3584 2338 3584 
Q 2397 3584 2469 3576 
Q 2541 3569 2628 3553 
L 2631 2963 
z
" transform="scale(0.015625)"/>
       <path id="DejaVuSans-63" d="M 3122 3366 
L 3122 2828 
Q 2878 2963 2633 3030 
Q 2388 3097 2138 3097 
Q 1578 3097 1268 2742 
Q 959 2388 959 1747 
Q 959 1106 1268 751 
Q 1578 397 2138 397 
Q 2388 397 2633 464 
Q 2878 531 3122 666 
L 3122 134 
Q 2881 22 2623 -34 
Q 2366 -91 2075 -91 
Q 1284 -91 818 406 
Q 353 903 353 1747 
Q 353 2603 823 3093 
Q 1294 3584 2113 3584 
Q 2378 3584 2631 3529 
Q 2884 3475 3122 3366 
z
" transform="scale(0.015625)"/>
       <path id="DejaVuSans-74" d="M 1172 4494 
L 1172 3500 
L 2356 3500 
L 2356 3053 
L 1172 3053 
L 1172 1153 
Q 1172 725 1289 603 
Q 1406 481 1766 481 
L 2356 481 
L 2356 0 
L 1766 0 
Q 1100 0 847 248 
Q 594 497 594 1153 
L 594 3053 
L 172 3053 
L 172 3500 
L 594 3500 
L 594 4494 
L 1172 4494 
z
" transform="scale(0.015625)"/>
       <path id="DejaVuSans-75" d="M 544 1381 
L 544 3500 
L 1119 3500 
L 1119 1403 
Q 1119 906 1312 657 
Q 1506 409 1894 409 
Q 2359 409 2629 706 
Q 2900 1003 2900 1516 
L 2900 3500 
L 3475 3500 
L 3475 0 
L 2900 0 
L 2900 538 
Q 2691 219 2414 64 
Q 2138 -91 1772 -91 
Q 1169 -91 856 284 
Q 544 659 544 1381 
z
M 1991 3584 
L 1991 3584 
z
" transform="scale(0.015625)"/>
       <path id="DejaVuSans-2c" d="M 750 794 
L 1409 794 
L 1409 256 
L 897 -744 
L 494 -744 
L 750 256 
L 750 794 
z
" transform="scale(0.015625)"/>
       <path id="DejaVuSans-70" d="M 1159 525 
L 1159 -1331 
L 581 -1331 
L 581 3500 
L 1159 3500 
L 1159 2969 
Q 1341 3281 1617 3432 
Q 1894 3584 2278 3584 
Q 2916 3584 3314 3078 
Q 3713 2572 3713 1747 
Q 3713 922 3314 415 
Q 2916 -91 2278 -91 
Q 1894 -91 1617 61 
Q 1341 213 1159 525 
z
M 3116 1747 
Q 3116 2381 2855 2742 
Q 2594 3103 2138 3103 
Q 1681 3103 1420 2742 
Q 1159 2381 1159 1747 
Q 1159 1113 1420 752 
Q 1681 391 2138 391 
Q 2594 391 2855 752 
Q 3116 1113 3116 1747 
z
" transform="scale(0.015625)"/>
      </defs>
      <use xlink:href="#DejaVuSans-46"/>
      <use xlink:href="#DejaVuSans-72" x="50.269531"/>
      <use xlink:href="#DejaVuSans-61" x="91.382812"/>
      <use xlink:href="#DejaVuSans-63" x="152.662109"/>
      <use xlink:href="#DejaVuSans-74" x="207.642578"/>
      <use xlink:href="#DejaVuSans-69" x="246.851562"/>
      <use xlink:href="#DejaVuSans-6f" x="274.634766"/>
      <use xlink:href="#DejaVuSans-6e" x="335.816406"/>
      <use xlink:href="#DejaVuSans-20" x="399.195312"/>
      <use xlink:href="#DejaVuSans-6f" x="430.982422"/>
      <use xlink:href="#DejaVuSans-66" x="492.164062"/>
      <use xlink:href="#DejaVuSans-20" x="527.369141"/>
      <use xlink:href="#DejaVuSans-66" x="559.15625"/>
      <use xlink:href="#DejaVuSans-75" x="594.361328"/>
      <use xlink:href="#DejaVuSans-6e" x="657.740234"/>
      <use xlink:href="#DejaVuSans-63" x="721.119141"/>
      <use xlink:href="#DejaVuSans-74" x="776.099609"/>
      <use xlink:href="#DejaVuSans-69" x="815.308594"/>
      <use xlink:href="#DejaVuSans-6f" x="843.091797"/>
      <use xlink:href="#DejaVuSans-6e" x="904.273438"/>
      <use xlink:href="#DejaVuSans-2c" x="967.652344"/>
      <use xlink:href="#DejaVuSans-74" x="999.439453"/>
      <use xlink:href="#DejaVuSans-61" x="1038.648438"/>
      <use xlink:href="#DejaVuSans-72" x="1099.927734"/>
      <use xlink:href="#DejaVuSans-67" x="1139.291016"/>
      <use xlink:href="#DejaVuSans-65" x="1202.767578"/>
      <use xlink:href="#DejaVuSans-74" x="1264.291016"/>
      <use xlink:href="#DejaVuSans-20" x="1303.5"/>
      <use xlink:href="#DejaVuSans-70" x="1335.287109"/>
      <use xlink:href="#DejaVuSans-61" x="1398.763672"/>
      <use xlink:href="#DejaVuSans-69" x="1460.042969"/>
      <use xlink:href="#DejaVuSans-72" x="1487.826172"/>
      <use xlink:href="#DejaVuSans-73" x="1528.939453"/>
     </g>
    </g>
   </g>
   <g id="line2d_33">
    <defs>
     <path id="ma90c39ba11" d="M 0 1.5 
C 0.397805 1.5 0.77937 1.341951 1.06066 1.06066 
C 1.341951 0.77937 1.5 0.397805 1.5 0 
C 1.5 -0.397805 1.341951 -0.77937 1.06066 -1.06066 
C 0.77937 -1.341951 0.397805 -1.5 0 -1.5 
C -0.397805 -1.5 -0.77937 -1.341951 -1.06066 -1.06066 
C -1.341951 -0.77937 -1.5 -0.397805 -1.5 0 
C -1.5 0.397805 -1.341951 0.77937 -1.06066 1.06066 
C -0.77937 1.341951 -0.397805 1.5 0 1.5 
z
" style="stroke: #f5deb3"/>
    </defs>
    <g>
     <use xlink:href="#ma90c39ba11" x="276.39497" y="42.157241" style="fill: #f5deb3; stroke: #f5deb3"/>
     <use xlink:href="#ma90c39ba11" x="276.39497" y="42.157241" style="fill: #f5deb3; stroke: #f5deb3"/>
    </g>
   </g>
   <g id="line2d_34">
    <defs>
     <path id="m205aab8fbc" d="M 0 1.5 
C 0.397805 1.5 0.77937 1.341951 1.06066 1.06066 
C 1.341951 0.77937 1.5 0.397805 1.5 0 
C 1.5 -0.397805 1.341951 -0.77937 1.06066 -1.06066 
C 0.77937 -1.341951 0.397805 -1.5 0 -1.5 
C -0.397805 -1.5 -0.77937 -1.341951 -1.06066 -1.06066 
C -1.341951 -0.77937 -1.5 -0.397805 -1.5 0 
C -1.5 0.397805 -1.341951 0.77937 -1.06066 1.06066 
C -0.77937 1.341951 -0.397805 1.5 0 1.5 
z
" style="stroke: #000080"/>
    </defs>
    <g>
     <use xlink:href="#m205aab8fbc" x="78.266603" y="272.887697" style="fill: #000080; stroke: #000080"/>
     <use xlink:href="#m205aab8fbc" x="78.266603" y="272.887697" style="fill: #000080; stroke: #000080"/>
    </g>
   </g>
   <g id="line2d_35">
    <path d="M 36.933397 298.944 
L 36.933397 284.090648 
L 49.972572 284.090648 
L 49.972572 282.076634 
L 57.6 282.076634 
L 57.6 280.692 
L 63.011746 280.692 
L 63.011746 278.677986 
L 67.209423 278.677986 
L 67.209423 277.0416 
L 70.639174 277.0416 
L 70.639174 275.279338 
L 73.538988 275.279338 
L 73.538988 274.272331 
L 76.050921 274.272331 
L 76.050921 273.265324 
L 78.266603 273.265324 
L 78.266603 272.887697 
L 360.8064 272.887697 
" style="fill: none; stroke: #000080; stroke-width: 1.5; stroke-linecap: square"/>
   </g>
   <g id="line2d_36">
    <defs>
     <path id="m0c549aa175" d="M 0 6 
C 1.591219 6 3.117479 5.367802 4.242641 4.242641 
C 5.367802 3.117479 6 1.591219 6 0 
C 6 -1.591219 5.367802 -3.117479 4.242641 -4.242641 
C 3.117479 -5.367802 1.591219 -6 0 -6 
C -1.591219 -6 -3.117479 -5.367802 -4.242641 -4.242641 
C -5.367802 -3.117479 -6 -1.591219 -6 0 
C -6 1.591219 -5.367802 3.117479 -4.242641 4.242641 
C -3.117479 5.367802 -1.591219 6 0 6 
z
" style="stroke: #000080; stroke-width: 1.5"/>
    </defs>
    <g>
     <use xlink:href="#m0c549aa175" x="78.266603" y="273.265324" style="fill-opacity: 0; stroke: #000080; stroke-width: 1.5"/>
     <use xlink:href="#m0c549aa175" x="78.266603" y="273.265324" style="fill-opacity: 0; stroke: #000080; stroke-width: 1.5"/>
     <use xlink:href="#m0c549aa175" x="78.266603" y="272.887697" style="fill-opacity: 0; stroke: #000080; stroke-width: 1.5"/>
     <use xlink:href="#m0c549aa175" x="78.266603" y="272.887697" style="fill-opacity: 0; stroke: #000080; stroke-width: 1.5"/>
     <use xlink:href="#m0c549aa175" x="78.266603" y="272.887697" style="fill-opacity: 0; stroke: #000080; stroke-width: 1.5"/>
     <use xlink:href="#m0c549aa175" x="360.8064" y="272.887697" style="fill-opacity: 0; stroke: #000080; stroke-width: 1.5"/>
    </g>
   </g>
   <g id="line2d_37">
    <path style="fill: none; stroke: #000080; stroke-width: 1.5; stroke-linecap: square"/>
    <g/>
   </g>
   <g id="line2d_38">
    <path d="M 78.266603 272.887697 
" clip-path="url(#pd4fd895419)" style="fill: none; stroke: #000080; stroke-width: 1.5; stroke-linecap: square"/>
    <defs>
     <path id="mb19412c423" d="M -12 12 
L 12 -12 
M -12 -12 
L 12 12 
" style="stroke: #000080"/>
    </defs>
    <g clip-path="url(#pd4fd895419)">
     <use xlink:href="#mb19412c423" x="78.266603" y="272.887697" style="fill: #000080; stroke: #000080"/>
    </g>
   </g>
   <g id="line2d_39">
    <defs>
     <path id="m7a8afbcc2e" d="M 0 1.5 
C 0.397805 1.5 0.77937 1.341951 1.06066 1.06066 
C 1.341951 0.77937 1.5 0.397805 1.5 0 
C 1.5 -0.397805 1.341951 -0.77937 1.06066 -1.06066 
C 0.77937 -1.341951 0.397805 -1.5 0 -1.5 
C -0.397805 -1.5 -0.77937 -1.341951 -1.06066 -1.06066 
C -1.341951 -0.77937 -1.5 -0.397805 -1.5 0 
C -1.5 0.397805 -1.341951 0.77937 -1.06066 1.06066 
C -0.77937 1.341951 -0.397805 1.5 0 1.5 
z
" style="stroke: #ff00ff"/>
    </defs>
    <g>
     <use xlink:href="#m7a8afbcc2e" x="273.98415" y="101.193021" style="fill: #ff00ff; stroke: #ff00ff"/>
     <use xlink:href="#m7a8afbcc2e" x="273.98415" y="101.193021" style="fill: #ff00ff; stroke: #ff00ff"/>
    </g>
   </g>
   <g id="line2d_40">
    <path d="M 36.933397 298.944 
L 36.933397 284.090648 
L 49.972572 284.090648 
L 49.972572 282.454262 
L 57.6 282.454262 
L 57.6 282.20251 
L 63.011746 282.20251 
L 63.011746 280.440248 
L 67.209423 280.440248 
L 67.209423 279.810869 
L 70.639174 279.810869 
L 70.639174 279.307366 
L 73.538988 279.307366 
L 73.538988 277.922731 
L 76.050921 277.922731 
L 76.050921 277.545103 
L 78.266603 277.545103 
L 78.266603 276.538097 
L 80.248597 276.538097 
L 80.248597 274.649959 
L 82.04153 274.649959 
L 82.04153 274.272331 
L 83.678349 274.272331 
L 83.678349 273.894703 
L 85.184077 273.894703 
L 85.184077 273.3912 
L 86.578163 273.3912 
L 86.578163 272.258317 
L 87.876026 272.258317 
L 87.876026 271.88069 
L 89.090095 271.88069 
L 89.090095 271.754814 
L 90.230539 271.754814 
L 90.230539 271.503062 
L 91.305777 271.503062 
L 91.305777 271.125434 
L 92.322865 271.125434 
L 92.322865 270.999559 
L 94.205591 270.999559 
L 94.205591 270.873683 
L 95.080704 270.873683 
L 95.080704 270.496055 
L 95.916911 270.496055 
L 95.916911 270.370179 
L 96.717523 270.370179 
L 96.717523 270.244303 
L 97.485448 270.244303 
L 97.485448 269.7408 
L 98.223251 269.7408 
L 98.223251 269.614924 
L 98.933205 269.614924 
L 98.933205 269.111421 
L 100.9152 269.111421 
L 100.9152 268.859669 
L 101.532027 268.859669 
L 101.532027 268.23029 
L 102.12927 268.23029 
L 102.12927 267.978538 
L 102.708132 267.978538 
L 102.708132 267.726786 
L 103.269713 267.726786 
L 103.269713 267.223283 
L 103.815014 267.223283 
L 103.815014 267.097407 
L 104.344952 267.097407 
L 104.344952 266.593903 
L 104.860369 266.593903 
L 104.860369 266.216276 
L 105.850679 266.216276 
L 105.850679 266.0904 
L 106.326946 266.0904 
L 106.326946 265.838648 
L 107.244765 265.838648 
L 107.244765 265.586897 
L 109.756698 265.586897 
L 109.756698 265.461021 
L 110.144579 265.461021 
L 110.144579 265.335145 
L 111.262425 265.335145 
L 111.262425 264.831641 
L 111.620752 264.831641 
L 111.620752 264.454014 
L 112.317555 264.454014 
L 112.317555 264.076386 
L 112.989468 264.076386 
L 112.989468 263.95051 
L 113.638206 263.95051 
L 113.638206 263.824634 
L 113.954374 263.824634 
L 113.954374 263.321131 
L 114.265316 263.321131 
L 114.265316 263.195255 
L 114.571202 263.195255 
L 114.571202 263.069379 
L 114.872193 263.069379 
L 114.872193 262.943503 
L 115.168444 262.943503 
L 115.168444 262.817628 
L 115.460102 262.817628 
L 115.460102 262.691752 
L 115.747307 262.691752 
L 115.747307 262.565876 
L 116.030193 262.565876 
L 116.030193 262.188248 
L 116.854188 262.188248 
L 116.854188 261.684745 
L 117.121023 261.684745 
L 117.121023 261.181241 
L 117.384126 261.181241 
L 117.384126 260.803614 
L 117.6436 260.803614 
L 117.6436 260.174234 
L 118.152051 260.174234 
L 118.152051 259.796607 
L 118.64712 259.796607 
L 118.64712 259.544855 
L 118.889854 259.544855 
L 118.889854 259.418979 
L 119.129494 259.418979 
L 119.129494 259.293103 
L 119.366121 259.293103 
L 119.366121 259.167228 
L 119.599808 259.167228 
L 119.599808 258.537848 
L 119.830627 258.537848 
L 119.830627 258.411972 
L 120.058649 258.411972 
L 120.058649 258.160221 
L 120.506564 258.160221 
L 120.506564 257.782593 
L 120.726585 257.782593 
L 120.726585 257.530841 
L 120.944062 257.530841 
L 120.944062 257.404966 
L 121.159053 257.404966 
L 121.159053 256.64971 
L 121.371615 256.64971 
L 121.371615 256.523834 
L 121.789667 256.523834 
L 121.789667 256.397959 
L 121.99526 256.397959 
L 121.99526 255.894455 
L 122.399825 255.894455 
L 122.399825 255.390952 
L 122.795872 255.390952 
L 122.795872 254.509821 
L 122.990812 254.509821 
L 122.990812 254.258069 
L 123.183753 254.258069 
L 123.183753 254.132193 
L 123.374735 254.132193 
L 123.374735 254.006317 
L 123.936316 254.006317 
L 123.936316 253.62869 
L 124.3016 253.62869 
L 124.3016 253.502814 
L 124.481616 253.502814 
L 124.481616 252.99931 
L 124.659926 252.99931 
L 124.659926 252.747559 
L 124.836562 252.747559 
L 124.836562 252.621683 
L 125.011554 252.621683 
L 125.011554 252.369931 
L 125.35673 252.369931 
L 125.35673 252.244055 
L 125.695686 252.244055 
L 125.695686 252.118179 
L 125.862901 252.118179 
L 125.862901 251.740552 
L 126.028642 251.740552 
L 126.028642 251.614676 
L 126.192937 251.614676 
L 126.192937 251.4888 
L 126.517282 251.4888 
L 126.517282 251.362924 
L 126.836129 251.362924 
L 126.836129 251.237048 
L 126.993549 251.237048 
L 126.993549 251.111172 
L 127.149662 251.111172 
L 127.149662 250.733545 
L 127.458055 250.733545 
L 127.458055 250.607669 
L 127.610376 250.607669 
L 127.610376 250.481793 
L 127.761474 250.481793 
L 127.761474 250.230041 
L 127.911368 250.230041 
L 127.911368 250.104166 
L 128.060076 250.104166 
L 128.060076 249.852414 
L 128.207619 249.852414 
L 128.207619 249.600662 
L 128.354013 249.600662 
L 128.354013 249.474786 
L 128.643427 249.474786 
L 128.643427 248.971283 
L 128.928456 248.971283 
L 128.928456 248.845407 
L 129.069367 248.845407 
L 129.069367 248.593655 
L 129.348062 248.593655 
L 129.348062 248.341903 
L 129.485876 248.341903 
L 129.485876 248.216028 
L 129.758512 248.216028 
L 129.758512 247.712524 
L 129.893363 247.712524 
L 129.893363 247.586648 
L 130.160198 247.586648 
L 130.160198 246.579641 
L 130.292209 246.579641 
L 130.292209 246.076138 
L 130.4233 246.076138 
L 130.4233 245.69851 
L 130.811181 245.69851 
L 130.811181 245.572634 
L 131.191226 245.572634 
L 131.191226 245.320883 
L 131.440389 245.320883 
L 131.440389 245.069131 
L 131.808053 245.069131 
L 131.808053 244.565628 
L 132.168669 244.565628 
L 132.168669 244.188 
L 132.287354 244.188 
L 132.287354 243.810372 
L 132.754746 243.810372 
L 132.754746 243.432745 
L 132.869802 243.432745 
L 132.869802 243.306869 
L 133.097823 243.306869 
L 133.097823 242.929241 
L 133.656071 242.929241 
L 133.765759 242.425738 
L 133.874812 242.425738 
L 133.874812 242.173986 
L 134.198228 242.173986 
L 134.198228 241.670483 
L 134.41079 241.670483 
L 134.516177 241.166979 
L 134.931919 241.166979 
L 135.034434 240.663476 
L 135.538796 240.663476 
L 135.638065 239.530593 
L 135.932769 239.530593 
L 135.932769 239.404717 
L 136.126705 239.404717 
L 136.222928 239.02709 
L 136.318661 239.02709 
L 136.318661 238.271834 
L 136.602972 238.271834 
L 136.696795 237.768331 
L 136.88305 237.768331 
L 136.88305 237.642455 
L 137.067478 237.642455 
L 137.067478 237.516579 
L 137.340774 237.516579 
L 137.340774 237.264828 
L 137.963436 237.264828 
L 138.050729 237.013076 
L 138.137618 237.013076 
L 138.224108 236.509572 
L 138.395904 236.509572 
L 138.481218 236.131945 
L 139.067817 236.131945 
L 139.067817 235.880193 
L 139.232111 235.880193 
L 139.232111 235.502566 
L 139.394983 235.502566 
L 139.394983 235.37669 
L 139.636676 235.37669 
L 139.716555 234.999062 
L 139.954178 234.999062 
L 139.954178 234.873186 
L 140.110942 234.873186 
L 140.110942 234.621434 
L 140.49723 234.621434 
L 140.49723 234.495559 
L 140.875745 234.495559 
L 140.875745 234.243807 
L 141.025043 234.243807 
L 141.099251 233.740303 
L 141.320133 233.740303 
L 141.393187 233.362676 
L 141.538451 233.362676 
L 141.538451 233.110924 
L 141.682602 233.110924 
L 141.682602 232.985048 
L 141.896777 232.985048 
L 141.96763 232.607421 
L 142.038218 232.607421 
L 142.038218 232.355669 
L 142.387236 232.355669 
L 142.387236 231.978041 
L 142.525051 231.978041 
L 142.525051 231.852166 
L 142.999601 231.852166 
L 142.999601 231.600414 
L 143.265494 231.600414 
L 143.265494 231.474538 
L 143.462475 231.474538 
L 143.52768 231.09691 
L 143.850356 231.09691 
L 143.850356 230.845159 
L 143.977892 230.845159 
L 143.977892 230.719283 
L 144.10457 230.719283 
L 144.16759 230.467531 
L 144.2304 230.467531 
L 144.2304 230.215779 
L 144.725469 230.215779 
L 144.725469 229.964028 
L 145.0284 229.964028 
L 145.0284 229.712276 
L 146.418192 229.712276 
L 146.418192 229.5864 
L 146.529503 229.5864 
L 146.64016 229.082897 
L 147.130214 229.082897 
L 147.130214 228.957021 
L 147.868016 228.957021 
L 147.868016 228.831145 
L 148.428077 228.831145 
L 148.428077 228.705269 
L 148.874221 228.705269 
L 148.923146 228.201766 
L 150.470172 228.201766 
L 150.470172 227.950014 
L 150.870907 227.950014 
L 150.870907 227.698262 
L 151.857828 227.698262 
L 151.857828 227.44651 
L 152.675851 227.44651 
L 152.75573 227.068883 
L 153.344252 227.068883 
L 153.38284 226.565379 
L 153.989717 226.565379 
L 153.989717 226.313628 
L 154.285968 226.313628 
L 154.285968 226.061876 
L 155.006805 226.061876 
L 155.006805 225.936 
L 156.728884 225.936 
L 156.793307 225.432497 
L 157.175281 225.432497 
L 157.175281 225.306621 
L 157.487772 225.306621 
L 157.487772 225.180745 
L 158.007377 225.180745 
L 158.007377 224.928993 
L 158.217229 224.928993 
L 158.217229 224.803117 
L 159.373449 224.803117 
L 159.429436 224.551366 
L 160.409709 224.551366 
L 160.409709 224.299614 
L 161.214743 224.299614 
L 161.214743 224.047862 
L 161.666845 224.047862 
L 161.666845 223.79611 
L 162.156757 223.79611 
L 162.156757 223.670234 
L 162.373122 223.670234 
L 162.468491 223.166731 
L 162.634233 223.166731 
L 162.634233 222.914979 
L 162.845206 222.914979 
L 162.938218 222.159724 
L 163.260183 222.159724 
L 163.260183 221.656221 
L 163.464289 221.656221 
L 163.464289 221.278593 
L 163.710781 221.278593 
L 163.710781 221.026841 
L 163.910081 221.026841 
L 163.976048 220.649214 
L 164.150838 220.649214 
L 164.259262 220.14571 
L 164.410013 220.14571 
L 164.516958 219.642207 
L 164.665667 219.642207 
L 164.665667 219.516331 
L 165.45305 219.516331 
L 165.493592 219.138703 
L 165.735027 219.138703 
L 165.735027 218.886952 
L 165.854592 218.886952 
L 165.953653 218.6352 
L 166.169767 218.6352 
L 166.189291 217.754069 
L 166.556452 217.754069 
L 166.556452 217.502317 
L 166.7279 217.502317 
L 166.8036 216.747062 
L 166.916583 216.747062 
L 166.916583 216.49531 
L 167.121972 216.49531 
L 167.121972 216.369434 
L 167.251516 216.369434 
L 167.251516 216.243559 
L 167.398482 216.243559 
L 167.453299 215.865931 
L 167.670986 215.865931 
L 167.742992 215.488303 
L 167.814723 215.488303 
L 167.92181 215.110676 
L 167.957371 215.110676 
L 167.957371 214.858924 
L 168.098945 214.858924 
L 168.098945 214.607172 
L 168.221954 214.607172 
L 168.221954 214.103669 
L 168.361558 214.103669 
L 168.465585 213.600166 
L 168.500134 213.600166 
L 168.500134 213.348414 
L 168.654821 213.348414 
L 168.706102 212.970786 
L 168.892945 212.970786 
L 168.977264 212.467283 
L 169.044448 212.467283 
L 169.144777 212.089655 
L 169.294273 212.089655 
L 169.310811 211.712028 
L 169.409732 211.712028 
L 169.508137 211.3344 
L 169.687218 211.3344 
L 169.687218 211.208524 
L 169.912702 211.208524 
L 169.912702 210.956772 
L 170.024438 210.956772 
L 170.024438 210.830897 
L 170.151329 210.830897 
L 170.151329 210.579145 
L 170.293066 210.579145 
L 170.386968 210.201517 
L 170.542436 210.201517 
L 170.619691 209.949766 
L 170.757955 209.949766 
L 170.757955 209.82389 
L 170.955893 209.82389 
L 171.031472 209.446262 
L 171.226568 209.446262 
L 171.330787 209.068634 
L 171.493403 209.068634 
L 171.581513 208.691007 
L 171.640025 208.691007 
L 171.741985 208.061628 
L 171.929885 208.061628 
L 171.972982 207.558124 
L 172.04459 207.558124 
L 172.04459 207.306372 
L 172.215347 207.306372 
L 172.257795 206.928745 
L 172.356469 206.928745 
L 172.426636 206.425241 
L 172.496541 206.425241 
L 172.496541 206.299366 
L 172.635578 206.299366 
L 172.732295 205.166483 
L 172.814802 205.166483 
L 172.910605 204.537103 
L 173.060174 204.537103 
L 173.141258 204.159476 
L 173.329107 204.159476 
L 173.329107 204.0336 
L 173.594249 204.0336 
L 173.686173 203.404221 
L 173.829724 203.404221 
L 173.933441 203.026593 
L 174.010854 203.026593 
L 174.010854 202.900717 
L 174.292011 202.900717 
L 174.380595 202.52309 
L 174.405829 202.52309 
L 174.49388 201.89371 
L 174.531491 201.89371 
L 174.531491 201.641959 
L 174.817367 201.641959 
L 174.92806 200.886703 
L 174.95257 200.886703 
L 175.038105 200.257324 
L 175.171736 200.257324 
L 175.171736 200.005572 
L 175.292401 200.005572 
L 175.376408 199.250317 
L 175.626202 199.250317 
L 175.673408 198.998566 
L 175.743995 198.998566 
L 175.743995 198.746814 
L 175.88438 198.746814 
L 175.907676 198.24331 
L 176.035292 198.24331 
L 176.116053 197.613931 
L 176.253699 197.613931 
L 176.322146 197.362179 
L 176.469599 197.362179 
L 176.492182 196.984552 
L 176.68305 196.984552 
L 176.68305 196.858676 
L 176.805529 196.858676 
L 176.894106 195.851669 
L 176.938239 195.851669 
L 176.938239 195.599917 
L 177.135565 195.599917 
L 177.233457 195.22229 
L 177.363192 195.22229 
L 177.470626 194.970538 
L 177.556133 194.970538 
L 177.641253 194.59291 
L 177.799823 194.59291 
L 177.873367 193.963531 
L 177.967504 193.963531 
L 178.061171 193.585903 
L 178.154375 193.585903 
L 178.175024 193.334152 
L 178.277932 193.334152 
L 178.308695 192.956524 
L 178.502368 192.956524 
L 178.603505 192.453021 
L 178.764203 192.453021 
L 178.834079 191.949517 
L 178.893767 191.949517 
L 178.933453 191.446014 
L 179.042162 191.446014 
L 179.091369 191.194262 
L 179.23822 191.194262 
L 179.335488 190.690759 
L 179.422601 190.690759 
L 179.480453 190.439007 
L 179.547723 190.439007 
L 179.595626 190.187255 
L 179.729109 190.187255 
L 179.729109 189.935503 
L 179.852216 189.935503 
L 179.946368 189.306124 
L 179.983897 189.306124 
L 180.030704 188.928497 
L 180.272238 188.928497 
L 180.272238 188.676745 
L 180.674054 188.676745 
L 180.71016 188.299117 
L 180.818066 188.299117 
L 180.907518 187.795614 
L 180.969881 187.795614 
L 181.040902 187.166234 
L 181.129302 187.166234 
L 181.129302 186.914483 
L 181.452818 186.914483 
L 181.547935 186.159228 
L 181.616811 186.159228 
L 181.693995 185.907476 
L 181.932119 185.907476 
L 182.041661 185.529848 
L 182.058457 185.529848 
L 182.158919 184.774593 
L 182.183951 184.774593 
L 182.183951 184.648717 
L 182.316895 184.648717 
L 182.325173 184.396966 
L 182.489971 184.396966 
L 182.588161 183.767586 
L 182.693959 183.767586 
L 182.750681 183.138207 
L 182.855571 183.138207 
L 182.855571 182.886455 
L 183.023783 182.886455 
L 183.119233 182.634703 
L 183.46513 182.634703 
L 183.46513 182.508828 
L 183.58935 182.508828 
L 183.68198 181.753572 
L 183.743481 181.753572 
L 183.820075 181.250069 
L 183.865883 181.250069 
L 183.949574 180.62069 
L 184.078188 180.62069 
L 184.085726 180.368938 
L 184.250806 180.368938 
L 184.265742 179.99131 
L 184.377384 179.99131 
L 184.377384 179.865434 
L 184.539935 179.865434 
L 184.539935 179.613683 
L 184.686501 179.613683 
L 184.686501 179.487807 
L 184.81019 179.487807 
L 184.911444 179.110179 
L 184.93307 179.110179 
L 185.019329 178.4808 
L 185.140856 178.4808 
L 185.140856 178.354924 
L 185.261602 178.354924 
L 185.275757 178.103172 
L 185.674752 178.103172 
L 185.674752 177.977297 
L 185.799012 177.977297 
L 185.799012 177.725545 
L 185.922457 177.725545 
L 186.024713 177.347917 
L 186.106119 177.347917 
L 186.193913 176.97029 
L 186.434918 176.97029 
L 186.434918 176.844414 
L 186.620255 176.844414 
L 186.705688 176.466786 
L 186.79726 176.466786 
L 186.849388 176.089159 
L 187.127126 176.089159 
L 187.203908 175.711531 
L 187.261289 175.711531 
L 187.293092 175.333903 
L 187.41977 175.333903 
L 187.41977 175.208028 
L 187.701713 175.208028 
L 187.745194 174.8304 
L 187.850373 174.8304 
L 187.850373 174.704524 
L 187.967235 174.704524 
L 187.98562 174.326897 
L 188.22906 174.326897 
L 188.24115 174.075145 
L 188.700792 174.075145 
L 188.724365 173.697517 
L 188.882717 173.697517 
L 188.882717 173.571641 
L 189.10912 173.571641 
L 189.10912 173.31989 
L 189.321423 173.31989 
L 189.338532 173.068138 
L 189.486164 173.068138 
L 189.503124 172.816386 
L 189.716638 172.816386 
L 189.716638 172.69051 
L 189.96639 172.69051 
L 189.96639 172.564634 
L 190.223749 172.564634 
L 190.250921 172.312883 
L 190.493724 172.312883 
L 190.493724 172.187007 
L 190.749305 172.187007 
L 190.749305 172.061131 
L 190.870552 172.061131 
L 190.938738 171.557628 
L 191.074374 171.557628 
L 191.084767 171.18 
L 191.434759 171.18 
L 191.521249 170.928248 
L 191.577002 170.928248 
L 191.577002 170.676497 
L 191.693045 170.676497 
L 191.718178 170.298869 
L 192.277394 170.298869 
L 192.350392 169.795366 
L 192.47143 169.795366 
L 192.47143 169.66949 
L 192.844137 169.66949 
L 192.844137 169.543614 
L 193.088568 169.543614 
L 193.149183 169.165986 
L 193.807861 169.165986 
L 193.906492 168.410731 
L 194.111064 168.410731 
L 194.111064 168.284855 
L 194.63879 168.284855 
L 194.63879 168.158979 
L 195.160483 168.158979 
L 195.160483 168.033103 
L 195.376758 168.033103 
L 195.376758 167.907228 
L 195.586485 167.907228 
L 195.594663 167.655476 
L 196.422337 167.655476 
L 196.496513 167.277848 
L 196.824821 167.277848 
L 196.882167 166.900221 
L 197.207622 166.900221 
L 197.215124 166.648469 
L 197.46103 166.648469 
L 197.46103 166.396717 
L 198.133657 166.396717 
L 198.133657 166.270841 
L 198.307856 166.270841 
L 198.396115 166.01909 
L 198.553946 166.01909 
L 198.553946 165.893214 
L 199.337232 165.893214 
L 199.337232 165.767338 
L 199.533865 165.767338 
L 199.533865 165.641462 
L 200.102075 165.641462 
L 200.102075 165.515586 
L 200.230307 165.515586 
L 200.230307 165.38971 
L 200.38304 165.38971 
L 200.38304 165.263834 
L 200.528255 165.263834 
L 200.528255 165.137959 
L 201.015604 165.137959 
L 201.015604 165.012083 
L 201.505579 165.012083 
L 201.505579 164.886207 
L 202.249007 164.886207 
L 202.249007 164.760331 
L 202.716663 164.760331 
L 202.716663 164.634455 
L 202.994534 164.634455 
L 203.063366 164.382703 
L 203.341616 164.382703 
L 203.341616 164.130952 
L 204.004072 164.130952 
L 204.045852 163.501572 
L 204.18618 163.501572 
L 204.243051 163.123945 
L 204.600988 163.123945 
L 204.600988 162.872193 
L 205.135287 162.872193 
L 205.135287 162.746317 
L 205.27752 162.746317 
L 205.27752 162.620441 
L 205.493706 162.620441 
L 205.522665 162.242814 
L 205.821704 162.242814 
L 205.821704 162.116938 
L 206.151079 162.116938 
L 206.151079 161.991062 
L 206.522866 161.991062 
L 206.522866 161.73931 
L 206.657292 161.73931 
L 206.657292 161.613434 
L 207.28027 161.613434 
L 207.370105 160.984055 
L 207.632752 160.984055 
L 207.632752 160.858179 
L 207.783039 160.858179 
L 207.783039 160.732303 
L 207.915155 160.732303 
L 207.959695 160.480552 
L 208.210112 160.480552 
L 208.210112 160.354676 
L 208.376606 160.354676 
L 208.376606 160.2288 
L 208.66447 160.2288 
L 208.66447 160.102924 
L 209.110104 160.102924 
L 209.110104 159.977048 
L 209.414511 159.977048 
L 209.522045 159.599421 
L 209.729503 159.599421 
L 209.819911 159.095917 
L 209.85442 159.095917 
L 209.85442 158.844166 
L 210.065842 158.844166 
L 210.065842 158.71829 
L 210.939234 158.71829 
L 210.939234 158.466538 
L 211.366483 158.466538 
L 211.366483 158.340662 
L 211.533651 158.340662 
L 211.533651 158.08891 
L 211.922032 158.08891 
L 212.011057 157.711283 
L 212.16076 157.711283 
L 212.165843 157.333655 
L 212.378082 157.333655 
L 212.378082 157.081903 
L 212.838053 157.081903 
L 212.921229 156.5784 
L 213.158933 156.5784 
L 213.219895 156.074897 
L 213.445968 156.074897 
L 213.513894 155.823145 
L 213.60042 155.823145 
L 213.60042 155.697269 
L 214.070094 155.697269 
L 214.070094 155.571393 
L 214.496925 155.571393 
L 214.537288 154.816138 
L 214.746679 154.816138 
L 214.787984 154.43851 
L 214.893783 154.43851 
L 214.893783 154.312634 
L 215.035383 154.312634 
L 215.035383 154.060883 
L 215.207655 154.060883 
L 215.229258 153.809131 
L 215.378364 153.809131 
L 215.378364 153.683255 
L 215.653383 153.683255 
L 215.701171 153.305628 
L 215.898065 153.305628 
L 215.91889 153.053876 
L 216.413257 153.053876 
L 216.49687 152.424497 
L 216.777345 152.424497 
L 216.777345 152.298621 
L 217.049781 152.298621 
L 217.049781 152.172745 
L 217.337639 152.172745 
L 217.406998 151.669241 
L 217.538588 151.669241 
L 217.569118 151.165738 
L 217.669264 151.165738 
L 217.76259 150.913986 
L 217.802805 150.913986 
L 217.849196 150.410483 
L 218.144899 150.410483 
L 218.246939 150.032855 
L 218.514758 150.032855 
L 218.535295 149.781103 
L 218.707168 149.781103 
L 218.707168 149.655228 
L 218.851383 149.655228 
L 218.884598 149.2776 
L 219.151733 149.2776 
L 219.151733 149.151724 
L 219.396683 149.151724 
L 219.495613 148.899972 
L 219.526565 148.899972 
L 219.526565 148.774097 
L 219.702141 148.774097 
L 219.735021 148.270593 
L 219.850215 148.270593 
L 219.850215 148.144717 
L 220.040651 148.144717 
L 220.040651 147.892966 
L 220.209306 147.892966 
L 220.209306 147.76709 
L 221.12239 147.76709 
L 221.12239 147.641214 
L 221.367025 147.641214 
L 221.465442 147.263586 
L 221.491256 147.263586 
L 221.491256 147.13771 
L 221.603392 147.13771 
L 221.603392 146.885959 
L 221.799305 146.885959 
L 221.882358 146.004828 
L 221.918705 146.004828 
L 221.918705 145.878952 
L 222.935688 145.878952 
L 222.935688 145.753076 
L 223.091754 145.753076 
L 223.091754 145.6272 
L 223.377666 145.6272 
L 223.404715 145.249572 
L 223.718055 145.249572 
L 223.718055 144.997821 
L 223.903222 144.997821 
L 224.00551 144.746069 
L 224.052395 144.746069 
L 224.143127 144.242566 
L 224.581582 144.242566 
L 224.581582 144.11669 
L 224.78708 144.11669 
L 224.838106 143.739062 
L 225.177894 143.739062 
L 225.177894 143.613186 
L 225.819932 143.613186 
L 225.819932 143.361434 
L 225.985609 143.361434 
L 225.985609 143.235559 
L 226.45822 143.235559 
L 226.45822 143.109683 
L 226.701491 143.109683 
L 226.807573 142.606179 
L 226.832447 142.606179 
L 226.832447 142.480303 
L 227.110034 142.480303 
L 227.110034 142.354428 
L 227.261737 142.354428 
L 227.261737 142.228552 
L 227.488149 142.228552 
L 227.580942 141.725048 
L 227.72002 141.725048 
L 227.72002 141.473297 
L 228.142062 141.473297 
L 228.142062 141.347421 
L 228.253313 141.347421 
L 228.253313 141.221545 
L 228.433954 141.221545 
L 228.433954 141.095669 
L 228.583881 141.095669 
L 228.608636 140.718041 
L 228.824382 140.718041 
L 228.824382 140.46629 
L 229.0363 140.46629 
L 229.108707 140.088662 
L 229.177407 140.088662 
L 229.286127 139.711034 
L 229.404388 139.711034 
L 229.404388 139.585159 
L 229.616608 139.585159 
L 229.616608 139.459283 
L 229.728154 139.459283 
L 229.728154 139.333407 
L 230.074577 139.333407 
L 230.074577 139.207531 
L 230.331077 139.207531 
L 230.331077 139.081655 
L 230.638138 139.081655 
L 230.686933 138.578152 
L 231.025618 138.578152 
L 231.069698 138.200524 
L 231.160637 138.200524 
L 231.264645 137.697021 
L 231.594381 137.697021 
L 231.594381 137.571145 
L 231.804877 137.571145 
L 231.804877 137.445269 
L 232.253901 137.445269 
L 232.354368 137.067641 
L 232.467549 137.067641 
L 232.467549 136.941766 
L 232.58749 136.941766 
L 232.697575 136.690014 
L 232.90852 136.690014 
L 232.90852 136.564138 
L 233.067562 136.564138 
L 233.169335 136.312386 
L 233.182087 136.312386 
L 233.273318 135.934759 
L 233.361913 135.934759 
L 233.361913 135.808883 
L 233.479031 135.808883 
L 233.479031 135.683007 
L 233.675501 135.683007 
L 233.724568 135.431255 
L 233.856576 135.431255 
L 233.856576 135.305379 
L 234.226169 135.305379 
L 234.226169 135.053628 
L 234.491179 135.053628 
L 234.536105 134.801876 
L 234.633846 134.801876 
L 234.633846 134.550124 
L 234.748939 134.550124 
L 234.748939 134.298372 
L 234.930121 134.298372 
L 234.930121 134.172497 
L 235.122577 134.172497 
L 235.174 133.920745 
L 235.553546 133.920745 
L 235.553546 133.794869 
L 235.747015 133.794869 
L 235.747015 133.668993 
L 236.202342 133.668993 
L 236.202342 133.417241 
L 236.402834 133.417241 
L 236.402834 133.291366 
L 236.623843 133.291366 
L 236.703989 132.787862 
L 236.769143 132.787862 
L 236.807578 132.53611 
L 236.913783 132.53611 
L 236.99723 132.158483 
L 237.119015 132.158483 
L 237.127106 131.906731 
L 237.232867 131.906731 
L 237.287308 131.151476 
L 237.43776 131.151476 
L 237.43776 130.899724 
L 237.773353 130.899724 
L 237.883756 130.522097 
L 237.908778 130.522097 
L 237.987506 130.270345 
L 238.31647 130.270345 
L 238.411992 130.018593 
L 238.754298 130.018593 
L 238.754298 129.892717 
L 238.910271 129.892717 
L 238.910271 129.640966 
L 239.078336 129.640966 
L 239.078336 129.51509 
L 239.198275 129.51509 
L 239.198275 129.389214 
L 239.325053 129.389214 
L 239.353021 129.011586 
L 239.621785 129.011586 
L 239.62454 128.759834 
L 239.93792 128.759834 
L 240.043283 128.256331 
L 240.110131 128.256331 
L 240.188967 127.752828 
L 240.420495 127.752828 
L 240.420495 127.626952 
L 240.77586 127.626952 
L 240.861912 127.123448 
L 241.202236 127.123448 
L 241.202236 126.871697 
L 241.325232 126.871697 
L 241.412034 126.494069 
L 241.805121 126.494069 
L 241.911708 126.116441 
L 241.967382 126.116441 
L 241.967382 125.990566 
L 242.354937 125.990566 
L 242.354937 125.86469 
L 242.495322 125.86469 
L 242.557044 125.361186 
L 242.70596 125.361186 
L 242.805915 124.983559 
L 243.039397 124.983559 
L 243.101652 124.731807 
L 243.347664 124.731807 
L 243.347664 124.605931 
L 244.332643 124.605931 
L 244.414273 124.102428 
L 244.555296 124.102428 
L 244.555296 123.976552 
L 244.685349 123.976552 
L 244.778038 123.347172 
L 244.862529 123.347172 
L 244.963243 123.095421 
L 245.233003 123.095421 
L 245.233003 122.843669 
L 245.381956 122.843669 
L 245.429708 122.591917 
L 245.721103 122.591917 
L 245.813937 122.340166 
L 245.892501 122.340166 
L 245.892501 122.21429 
L 246.460832 122.21429 
L 246.460832 121.962538 
L 246.648149 121.962538 
L 246.728168 121.58491 
L 247.092041 121.58491 
L 247.092041 121.459034 
L 247.546374 121.459034 
L 247.624985 121.207283 
L 247.739093 121.207283 
L 247.739093 120.955531 
L 247.851243 120.955531 
L 247.916947 120.703779 
L 248.008902 120.703779 
L 248.092383 120.326152 
L 248.198711 120.326152 
L 248.198711 120.200276 
L 248.310642 120.200276 
L 248.346319 119.822648 
L 249.656555 119.822648 
L 249.762458 119.445021 
L 249.917015 119.445021 
L 249.969994 118.815641 
L 250.576792 118.815641 
L 250.576792 118.689766 
L 250.925952 118.689766 
L 250.925952 118.438014 
L 251.500839 118.438014 
L 251.500839 118.312138 
L 251.84225 118.312138 
L 251.84225 118.186262 
L 252.001287 118.186262 
L 252.001287 117.93451 
L 252.304756 117.93451 
L 252.304756 117.808634 
L 252.731476 117.808634 
L 252.822228 117.305131 
L 253.18111 117.305131 
L 253.18111 117.179255 
L 253.768521 117.179255 
L 253.853492 116.675752 
L 253.915083 116.675752 
L 253.915083 116.424 
L 254.278827 116.424 
L 254.278827 116.298124 
L 254.453176 116.298124 
L 254.55221 116.046372 
L 254.969691 116.046372 
L 254.969691 115.794621 
L 255.253871 115.794621 
L 255.253871 115.668745 
L 255.74931 115.668745 
L 255.74931 115.542869 
L 255.988263 115.542869 
L 255.988263 115.416993 
L 256.126919 115.416993 
L 256.168774 115.039366 
L 256.259197 115.039366 
L 256.287781 114.787614 
L 256.804321 114.787614 
L 256.804321 114.535862 
L 256.989715 114.535862 
L 257.031412 114.158234 
L 257.12602 114.158234 
L 257.12602 114.032359 
L 257.59447 114.032359 
L 257.628655 113.528855 
L 257.706773 113.528855 
L 257.795356 113.151228 
L 257.980775 113.151228 
L 257.980775 113.025352 
L 258.341855 113.025352 
L 258.341855 112.7736 
L 258.556114 112.7736 
L 258.556114 112.521848 
L 258.74063 112.521848 
L 258.74063 112.395972 
L 258.920956 112.395972 
L 258.952674 111.892469 
L 259.121358 111.892469 
L 259.121358 111.766593 
L 259.392027 111.766593 
L 259.392027 111.640717 
L 259.623415 111.640717 
L 259.623415 111.514841 
L 259.754659 111.514841 
L 259.754659 111.26309 
L 260.564228 111.26309 
L 260.660044 110.885462 
L 261.004555 110.885462 
L 261.06231 110.130207 
L 261.606103 110.130207 
L 261.606103 109.878455 
L 262.089965 109.878455 
L 262.089965 109.752579 
L 262.250102 109.752579 
L 262.250102 109.500828 
L 262.929188 109.500828 
L 262.929188 109.374952 
L 263.961242 109.374952 
L 263.961242 109.249076 
L 264.135061 109.249076 
L 264.135061 108.997324 
L 264.782915 108.997324 
L 264.881733 108.116193 
L 264.906177 108.116193 
L 264.989744 107.61269 
L 265.05961 107.61269 
L 265.05961 107.486814 
L 265.208369 107.486814 
L 265.31091 107.109186 
L 265.605336 107.109186 
L 265.605336 106.98331 
L 266.127404 106.98331 
L 266.198449 106.731559 
L 267.096855 106.731559 
L 267.174621 106.479807 
L 267.510144 106.479807 
L 267.587914 106.228055 
L 267.866465 106.228055 
L 267.866465 105.976303 
L 268.023655 105.976303 
L 268.132566 105.598676 
L 268.21048 105.598676 
L 268.310011 105.095172 
L 268.325337 105.095172 
L 268.325337 104.969297 
L 268.650624 104.969297 
L 268.650624 104.717545 
L 268.844512 104.717545 
L 268.920947 104.214041 
L 269.289837 104.214041 
L 269.332716 103.96229 
L 269.708012 103.96229 
L 269.708569 103.584662 
L 269.866533 103.584662 
L 269.866533 103.458786 
L 270.262494 103.458786 
L 270.262494 103.33291 
L 270.378255 103.33291 
L 270.378255 103.207034 
L 270.494224 103.207034 
L 270.494224 102.955283 
L 270.828688 102.955283 
L 270.909723 102.451779 
L 272.234928 102.451779 
L 272.234928 102.325903 
L 272.405246 102.325903 
L 272.405246 102.200028 
L 272.617411 102.200028 
L 272.726701 101.8224 
L 272.854271 101.8224 
L 272.878204 101.444772 
L 273.140136 101.444772 
L 273.140136 101.318897 
L 273.98415 101.318897 
L 273.98415 101.193021 
L 360.8064 101.193021 
L 360.8064 101.193021 
" style="fill: none; stroke: #ff00ff; stroke-width: 1.5; stroke-linecap: square"/>
   </g>
   <g id="line2d_41">
    <defs>
     <path id="m853693ebff" d="M 0 8.485281 
L 5.091169 0 
L 0 -8.485281 
L -5.091169 0 
z
" style="stroke: #ff00ff; stroke-width: 1.5; stroke-linejoin: miter"/>
    </defs>
    <g>
     <use xlink:href="#m853693ebff" x="112.989468" y="263.95051" style="fill-opacity: 0; stroke: #ff00ff; stroke-width: 1.5; stroke-linejoin: miter"/>
     <use xlink:href="#m853693ebff" x="175.907676" y="198.24331" style="fill-opacity: 0; stroke: #ff00ff; stroke-width: 1.5; stroke-linejoin: miter"/>
     <use xlink:href="#m853693ebff" x="225.985609" y="143.361434" style="fill-opacity: 0; stroke: #ff00ff; stroke-width: 1.5; stroke-linejoin: miter"/>
     <use xlink:href="#m853693ebff" x="273.98415" y="101.318897" style="fill-opacity: 0; stroke: #ff00ff; stroke-width: 1.5; stroke-linejoin: miter"/>
     <use xlink:href="#m853693ebff" x="273.98415" y="101.193021" style="fill-opacity: 0; stroke: #ff00ff; stroke-width: 1.5; stroke-linejoin: miter"/>
     <use xlink:href="#m853693ebff" x="360.8064" y="101.193021" style="fill-opacity: 0; stroke: #ff00ff; stroke-width: 1.5; stroke-linejoin: miter"/>
    </g>
   </g>
   <g id="line2d_42">
    <path style="fill: none; stroke: #ff00ff; stroke-width: 1.5; stroke-linecap: square"/>
    <g/>
   </g>
   <g id="line2d_43">
    <path d="M 274.176063 101.193021 
" clip-path="url(#pd4fd895419)" style="fill: none; stroke: #ff00ff; stroke-width: 1.5; stroke-linecap: square"/>
    <defs>
     <path id="mda3c33b22d" d="M -12 12 
L 12 -12 
M -12 -12 
L 12 12 
" style="stroke: #ff00ff"/>
    </defs>
    <g clip-path="url(#pd4fd895419)">
     <use xlink:href="#mda3c33b22d" x="274.176063" y="101.193021" style="fill: #ff00ff; stroke: #ff00ff"/>
    </g>
   </g>
   <g id="line2d_44">
    <defs>
     <path id="m434ced543a" d="M 0 1.5 
C 0.397805 1.5 0.77937 1.341951 1.06066 1.06066 
C 1.341951 0.77937 1.5 0.397805 1.5 0 
C 1.5 -0.397805 1.341951 -0.77937 1.06066 -1.06066 
C 0.77937 -1.341951 0.397805 -1.5 0 -1.5 
C -0.397805 -1.5 -0.77937 -1.341951 -1.06066 -1.06066 
C -1.341951 -0.77937 -1.5 -0.397805 -1.5 0 
C -1.5 0.397805 -1.341951 0.77937 -1.06066 1.06066 
C -0.77937 1.341951 -0.397805 1.5 0 1.5 
z
" style="stroke: #6495ed"/>
    </defs>
    <g>
     <use xlink:href="#m434ced543a" x="113.954374" y="241.922234" style="fill: #6495ed; stroke: #6495ed"/>
     <use xlink:href="#m434ced543a" x="113.954374" y="241.922234" style="fill: #6495ed; stroke: #6495ed"/>
    </g>
   </g>
   <g id="line2d_45">
    <path d="M 36.933397 298.944 
L 36.933397 294.664221 
L 49.972572 294.664221 
L 49.972572 291.894952 
L 57.6 291.894952 
L 57.6 290.510317 
L 63.011746 290.510317 
L 63.011746 288.370428 
L 67.209423 288.370428 
L 67.209423 286.734041 
L 70.639174 286.734041 
L 70.639174 285.601159 
L 73.538988 285.601159 
L 73.538988 284.090648 
L 76.050921 284.090648 
L 76.050921 283.209517 
L 78.266603 283.209517 
L 78.266603 281.950759 
L 80.248597 281.950759 
L 80.248597 281.699007 
L 82.04153 281.699007 
L 82.04153 280.062621 
L 83.678349 280.062621 
L 83.678349 278.929738 
L 85.184077 278.929738 
L 85.184077 278.677986 
L 86.578163 278.677986 
L 86.578163 278.174483 
L 87.876026 278.174483 
L 87.876026 277.670979 
L 89.090095 277.670979 
L 89.090095 277.167476 
L 90.230539 277.167476 
L 90.230539 276.538097 
L 91.305777 276.538097 
L 91.305777 275.908717 
L 92.322865 275.908717 
L 92.322865 274.524083 
L 93.287772 274.524083 
L 93.287772 273.642952 
L 94.205591 273.642952 
L 94.205591 273.013572 
L 95.080704 273.013572 
L 95.080704 272.132441 
L 96.717523 272.132441 
L 96.717523 271.754814 
L 97.485448 271.754814 
L 97.485448 271.25131 
L 98.223251 271.25131 
L 98.223251 270.999559 
L 98.933205 270.999559 
L 98.933205 270.621931 
L 100.277459 270.621931 
L 100.277459 270.496055 
L 100.9152 270.496055 
L 100.9152 270.370179 
L 102.708132 270.370179 
L 102.708132 268.356166 
L 103.269713 268.356166 
L 103.269713 266.468028 
L 103.815014 266.468028 
L 103.815014 264.957517 
L 104.344952 264.957517 
L 104.344952 263.195255 
L 104.860369 263.195255 
L 104.860369 261.684745 
L 105.36204 261.684745 
L 105.36204 259.418979 
L 105.850679 259.418979 
L 105.850679 258.034345 
L 106.326946 258.034345 
L 106.326946 257.404966 
L 106.791453 257.404966 
L 106.791453 256.64971 
L 107.244765 256.64971 
L 107.244765 255.1392 
L 107.68741 255.1392 
L 107.68741 254.635697 
L 108.119879 254.635697 
L 108.119879 254.258069 
L 108.542628 254.258069 
L 108.542628 253.376938 
L 108.956085 253.376938 
L 108.956085 252.621683 
L 109.360651 252.621683 
L 109.360651 251.614676 
L 109.756698 251.614676 
L 109.756698 249.726538 
L 110.144579 249.726538 
L 110.144579 248.719531 
L 110.524623 248.719531 
L 110.524623 248.341903 
L 110.897141 248.341903 
L 110.897141 246.705517 
L 111.262425 246.705517 
L 111.262425 245.572634 
L 111.620752 245.572634 
L 111.620752 244.691503 
L 111.97238 244.691503 
L 111.97238 244.565628 
L 112.317555 244.565628 
L 112.317555 243.684497 
L 112.656511 243.684497 
L 112.656511 243.306869 
L 112.989468 243.306869 
L 112.989468 242.67749 
L 113.316634 242.67749 
L 113.316634 242.425738 
L 113.638206 242.425738 
L 113.638206 242.173986 
L 113.954374 242.173986 
L 113.954374 241.922234 
L 360.8064 241.922234 
" style="fill: none; stroke: #6495ed; stroke-width: 1.5; stroke-linecap: square"/>
   </g>
   <g id="line2d_46">
    <defs>
     <path id="m5b4367f704" d="M -0 6 
L 6 -6 
L -6 -6 
z
" style="stroke: #6495ed; stroke-width: 1.5; stroke-linejoin: miter"/>
    </defs>
    <g>
     <use xlink:href="#m5b4367f704" x="90.230539" y="276.538097" style="fill-opacity: 0; stroke: #6495ed; stroke-width: 1.5; stroke-linejoin: miter"/>
     <use xlink:href="#m5b4367f704" x="113.954374" y="242.173986" style="fill-opacity: 0; stroke: #6495ed; stroke-width: 1.5; stroke-linejoin: miter"/>
     <use xlink:href="#m5b4367f704" x="113.954374" y="242.173986" style="fill-opacity: 0; stroke: #6495ed; stroke-width: 1.5; stroke-linejoin: miter"/>
     <use xlink:href="#m5b4367f704" x="113.954374" y="241.922234" style="fill-opacity: 0; stroke: #6495ed; stroke-width: 1.5; stroke-linejoin: miter"/>
     <use xlink:href="#m5b4367f704" x="113.954374" y="241.922234" style="fill-opacity: 0; stroke: #6495ed; stroke-width: 1.5; stroke-linejoin: miter"/>
     <use xlink:href="#m5b4367f704" x="360.8064" y="241.922234" style="fill-opacity: 0; stroke: #6495ed; stroke-width: 1.5; stroke-linejoin: miter"/>
    </g>
   </g>
   <g id="line2d_47">
    <path style="fill: none; stroke: #6495ed; stroke-width: 1.5; stroke-linecap: square"/>
    <g/>
   </g>
   <g id="line2d_48">
    <path d="M 113.954374 241.922234 
" clip-path="url(#pd4fd895419)" style="fill: none; stroke: #6495ed; stroke-width: 1.5; stroke-linecap: square"/>
    <defs>
     <path id="m5a7d57ab66" d="M -12 12 
L 12 -12 
M -12 -12 
L 12 12 
" style="stroke: #6495ed"/>
    </defs>
    <g clip-path="url(#pd4fd895419)">
     <use xlink:href="#m5a7d57ab66" x="113.954374" y="241.922234" style="fill: #6495ed; stroke: #6495ed"/>
    </g>
   </g>
   <g id="line2d_49">
    <path d="M 360.8064 272.887697 
L 380.514816 293.10336 
" style="fill: none; stroke: #000080; stroke-width: 1.5; stroke-linecap: square"/>
    <g>
     <use xlink:href="#m0c549aa175" x="360.8064" y="272.887697" style="fill-opacity: 0; stroke: #000080; stroke-width: 1.5"/>
     <use xlink:href="#m0c549aa175" x="380.514816" y="293.10336" style="fill-opacity: 0; stroke: #000080; stroke-width: 1.5"/>
    </g>
   </g>
   <g id="line2d_50">
    <path d="M 360.8064 241.922234 
L 380.514816 199.65312 
" style="fill: none; stroke: #6495ed; stroke-width: 1.5; stroke-linecap: square"/>
    <g>
     <use xlink:href="#m5b4367f704" x="360.8064" y="241.922234" style="fill-opacity: 0; stroke: #6495ed; stroke-width: 1.5; stroke-linejoin: miter"/>
     <use xlink:href="#m5b4367f704" x="380.514816" y="199.65312" style="fill-opacity: 0; stroke: #6495ed; stroke-width: 1.5; stroke-linejoin: miter"/>
    </g>
   </g>
   <g id="line2d_51">
    <path d="M 360.8064 101.193021 
L 380.514816 106.20288 
" style="fill: none; stroke: #ff00ff; stroke-width: 1.5; stroke-linecap: square"/>
    <g>
     <use xlink:href="#m853693ebff" x="360.8064" y="101.193021" style="fill-opacity: 0; stroke: #ff00ff; stroke-width: 1.5; stroke-linejoin: miter"/>
     <use xlink:href="#m853693ebff" x="380.514816" y="106.20288" style="fill-opacity: 0; stroke: #ff00ff; stroke-width: 1.5; stroke-linejoin: miter"/>
    </g>
   </g>
   <g id="line2d_52">
    <path d="M 360.8064 298.944 
L 360.8064 6.912 
" style="fill: none; stroke: #000000; stroke-width: 1.5; stroke-linecap: square"/>
   </g>
   <g id="patch_3">
    <path d="M 57.6 298.944 
L 360.8064 298.944 
" style="fill: none; stroke: #000000; stroke-width: 0.8; stroke-linejoin: miter; stroke-linecap: square"/>
   </g>
   <g id="patch_4">
    <path d="M 57.6 6.912 
L 360.8064 6.912 
" style="fill: none; stroke: #000000; stroke-width: 0.8; stroke-linejoin: miter; stroke-linecap: square"/>
   </g>
   <g id="text_13">
    <!-- cma -->
    <g transform="translate(386.578944 296.966485)scale(0.14 -0.14)">
     <use xlink:href="#DejaVuSans-63"/>
     <use xlink:href="#DejaVuSans-6d" x="54.980469"/>
     <use xlink:href="#DejaVuSans-61" x="152.392578"/>
    </g>
   </g>
   <g id="text_14">
    <!-- parEgo -->
    <g transform="translate(386.578944 203.516245)scale(0.14 -0.14)">
     <defs>
      <path id="DejaVuSans-45" d="M 628 4666 
L 3578 4666 
L 3578 4134 
L 1259 4134 
L 1259 2753 
L 3481 2753 
L 3481 2222 
L 1259 2222 
L 1259 531 
L 3634 531 
L 3634 0 
L 628 0 
L 628 4666 
z
" transform="scale(0.015625)"/>
     </defs>
     <use xlink:href="#DejaVuSans-70"/>
     <use xlink:href="#DejaVuSans-61" x="63.476562"/>
     <use xlink:href="#DejaVuSans-72" x="124.755859"/>
     <use xlink:href="#DejaVuSans-45" x="165.869141"/>
     <use xlink:href="#DejaVuSans-67" x="229.052734"/>
     <use xlink:href="#DejaVuSans-6f" x="292.529297"/>
    </g>
   </g>
   <g id="text_15">
    <!-- external- -->
    <g transform="translate(386.578944 110.066005)scale(0.14 -0.14)">
     <defs>
      <path id="DejaVuSans-78" d="M 3513 3500 
L 2247 1797 
L 3578 0 
L 2900 0 
L 1881 1375 
L 863 0 
L 184 0 
L 1544 1831 
L 300 3500 
L 978 3500 
L 1906 2253 
L 2834 3500 
L 3513 3500 
z
" transform="scale(0.015625)"/>
     </defs>
     <use xlink:href="#DejaVuSans-65"/>
     <use xlink:href="#DejaVuSans-78" x="59.773438"/>
     <use xlink:href="#DejaVuSans-74" x="118.953125"/>
     <use xlink:href="#DejaVuSans-65" x="158.162109"/>
     <use xlink:href="#DejaVuSans-72" x="219.685547"/>
     <use xlink:href="#DejaVuSans-6e" x="259.048828"/>
     <use xlink:href="#DejaVuSans-61" x="322.427734"/>
     <use xlink:href="#DejaVuSans-6c" x="383.707031"/>
     <use xlink:href="#DejaVuSans-2d" x="411.490234"/>
    </g>
   </g>
   <g id="text_16">
    <!-- best 2016 -->
    <g transform="translate(386.578944 16.615765)scale(0.14 -0.14)">
     <defs>
      <path id="DejaVuSans-62" d="M 3116 1747 
Q 3116 2381 2855 2742 
Q 2594 3103 2138 3103 
Q 1681 3103 1420 2742 
Q 1159 2381 1159 1747 
Q 1159 1113 1420 752 
Q 1681 391 2138 391 
Q 2594 391 2855 752 
Q 3116 1113 3116 1747 
z
M 1159 2969 
Q 1341 3281 1617 3432 
Q 1894 3584 2278 3584 
Q 2916 3584 3314 3078 
Q 3713 2572 3713 1747 
Q 3713 922 3314 415 
Q 2916 -91 2278 -91 
Q 1894 -91 1617 61 
Q 1341 213 1159 525 
L 1159 0 
L 581 0 
L 581 4863 
L 1159 4863 
L 1159 2969 
z
" transform="scale(0.015625)"/>
     </defs>
     <use xlink:href="#DejaVuSans-62"/>
     <use xlink:href="#DejaVuSans-65" x="63.476562"/>
     <use xlink:href="#DejaVuSans-73" x="125"/>
     <use xlink:href="#DejaVuSans-74" x="177.099609"/>
     <use xlink:href="#DejaVuSans-20" x="216.308594"/>
     <use xlink:href="#DejaVuSans-32" x="248.095703"/>
     <use xlink:href="#DejaVuSans-30" x="311.71875"/>
     <use xlink:href="#DejaVuSans-31" x="375.341797"/>
     <use xlink:href="#DejaVuSans-36" x="438.964844"/>
    </g>
   </g>
   <g id="text_17">
    <!-- bbob-biobj f22, f23, f29, f30, 3-D -->
    <g transform="translate(60.632064 17.582726)scale(0.102 -0.102)">
     <defs>
      <path id="DejaVuSans-6a" d="M 603 3500 
L 1178 3500 
L 1178 -63 
Q 1178 -731 923 -1031 
Q 669 -1331 103 -1331 
L -116 -1331 
L -116 -844 
L 38 -844 
Q 366 -844 484 -692 
Q 603 -541 603 -63 
L 603 3500 
z
M 603 4863 
L 1178 4863 
L 1178 4134 
L 603 4134 
L 603 4863 
z
" transform="scale(0.015625)"/>
      <path id="DejaVuSans-33" d="M 2597 2516 
Q 3050 2419 3304 2112 
Q 3559 1806 3559 1356 
Q 3559 666 3084 287 
Q 2609 -91 1734 -91 
Q 1441 -91 1130 -33 
Q 819 25 488 141 
L 488 750 
Q 750 597 1062 519 
Q 1375 441 1716 441 
Q 2309 441 2620 675 
Q 2931 909 2931 1356 
Q 2931 1769 2642 2001 
Q 2353 2234 1838 2234 
L 1294 2234 
L 1294 2753 
L 1863 2753 
Q 2328 2753 2575 2939 
Q 2822 3125 2822 3475 
Q 2822 3834 2567 4026 
Q 2313 4219 1838 4219 
Q 1578 4219 1281 4162 
Q 984 4106 628 3988 
L 628 4550 
Q 988 4650 1302 4700 
Q 1616 4750 1894 4750 
Q 2613 4750 3031 4423 
Q 3450 4097 3450 3541 
Q 3450 3153 3228 2886 
Q 3006 2619 2597 2516 
z
" transform="scale(0.015625)"/>
      <path id="DejaVuSans-39" d="M 703 97 
L 703 672 
Q 941 559 1184 500 
Q 1428 441 1663 441 
Q 2288 441 2617 861 
Q 2947 1281 2994 2138 
Q 2813 1869 2534 1725 
Q 2256 1581 1919 1581 
Q 1219 1581 811 2004 
Q 403 2428 403 3163 
Q 403 3881 828 4315 
Q 1253 4750 1959 4750 
Q 2769 4750 3195 4129 
Q 3622 3509 3622 2328 
Q 3622 1225 3098 567 
Q 2575 -91 1691 -91 
Q 1453 -91 1209 -44 
Q 966 3 703 97 
z
M 1959 2075 
Q 2384 2075 2632 2365 
Q 2881 2656 2881 3163 
Q 2881 3666 2632 3958 
Q 2384 4250 1959 4250 
Q 1534 4250 1286 3958 
Q 1038 3666 1038 3163 
Q 1038 2656 1286 2365 
Q 1534 2075 1959 2075 
z
" transform="scale(0.015625)"/>
      <path id="DejaVuSans-44" d="M 1259 4147 
L 1259 519 
L 2022 519 
Q 2988 519 3436 956 
Q 3884 1394 3884 2338 
Q 3884 3275 3436 3711 
Q 2988 4147 2022 4147 
L 1259 4147 
z
M 628 4666 
L 1925 4666 
Q 3281 4666 3915 4102 
Q 4550 3538 4550 2338 
Q 4550 1131 3912 565 
Q 3275 0 1925 0 
L 628 0 
L 628 4666 
z
" transform="scale(0.015625)"/>
     </defs>
     <use xlink:href="#DejaVuSans-62"/>
     <use xlink:href="#DejaVuSans-62" x="63.476562"/>
     <use xlink:href="#DejaVuSans-6f" x="126.953125"/>
     <use xlink:href="#DejaVuSans-62" x="188.134766"/>
     <use xlink:href="#DejaVuSans-2d" x="251.611328"/>
     <use xlink:href="#DejaVuSans-62" x="287.695312"/>
     <use xlink:href="#DejaVuSans-69" x="351.171875"/>
     <use xlink:href="#DejaVuSans-6f" x="378.955078"/>
     <use xlink:href="#DejaVuSans-62" x="440.136719"/>
     <use xlink:href="#DejaVuSans-6a" x="503.613281"/>
     <use xlink:href="#DejaVuSans-20" x="531.396484"/>
     <use xlink:href="#DejaVuSans-66" x="563.183594"/>
     <use xlink:href="#DejaVuSans-32" x="598.388672"/>
     <use xlink:href="#DejaVuSans-32" x="662.011719"/>
     <use xlink:href="#DejaVuSans-2c" x="725.634766"/>
     <use xlink:href="#DejaVuSans-20" x="757.421875"/>
     <use xlink:href="#DejaVuSans-66" x="789.208984"/>
     <use xlink:href="#DejaVuSans-32" x="824.414062"/>
     <use xlink:href="#DejaVuSans-33" x="888.037109"/>
     <use xlink:href="#DejaVuSans-2c" x="951.660156"/>
     <use xlink:href="#DejaVuSans-20" x="983.447266"/>
     <use xlink:href="#DejaVuSans-66" x="1015.234375"/>
     <use xlink:href="#DejaVuSans-32" x="1050.439453"/>
     <use xlink:href="#DejaVuSans-39" x="1114.0625"/>
     <use xlink:href="#DejaVuSans-2c" x="1177.685547"/>
     <use xlink:href="#DejaVuSans-20" x="1209.472656"/>
     <use xlink:href="#DejaVuSans-66" x="1241.259766"/>
     <use xlink:href="#DejaVuSans-33" x="1276.464844"/>
     <use xlink:href="#DejaVuSans-30" x="1340.087891"/>
     <use xlink:href="#DejaVuSans-2c" x="1403.710938"/>
     <use xlink:href="#DejaVuSans-20" x="1435.498047"/>
     <use xlink:href="#DejaVuSans-33" x="1467.285156"/>
     <use xlink:href="#DejaVuSans-2d" x="1530.908203"/>
     <use xlink:href="#DejaVuSans-44" x="1566.992188"/>
    </g>
    <!-- 58 targets: 1..-1.0e-4 -->
    <g transform="translate(60.632064 29.004495)scale(0.102 -0.102)">
     <defs>
      <path id="DejaVuSans-35" d="M 691 4666 
L 3169 4666 
L 3169 4134 
L 1269 4134 
L 1269 2991 
Q 1406 3038 1543 3061 
Q 1681 3084 1819 3084 
Q 2600 3084 3056 2656 
Q 3513 2228 3513 1497 
Q 3513 744 3044 326 
Q 2575 -91 1722 -91 
Q 1428 -91 1123 -41 
Q 819 9 494 109 
L 494 744 
Q 775 591 1075 516 
Q 1375 441 1709 441 
Q 2250 441 2565 725 
Q 2881 1009 2881 1497 
Q 2881 1984 2565 2268 
Q 2250 2553 1709 2553 
Q 1456 2553 1204 2497 
Q 953 2441 691 2322 
L 691 4666 
z
" transform="scale(0.015625)"/>
      <path id="DejaVuSans-3a" d="M 750 794 
L 1409 794 
L 1409 0 
L 750 0 
L 750 794 
z
M 750 3309 
L 1409 3309 
L 1409 2516 
L 750 2516 
L 750 3309 
z
" transform="scale(0.015625)"/>
     </defs>
     <use xlink:href="#DejaVuSans-35"/>
     <use xlink:href="#DejaVuSans-38" x="63.623047"/>
     <use xlink:href="#DejaVuSans-20" x="127.246094"/>
     <use xlink:href="#DejaVuSans-74" x="159.033203"/>
     <use xlink:href="#DejaVuSans-61" x="198.242188"/>
     <use xlink:href="#DejaVuSans-72" x="259.521484"/>
     <use xlink:href="#DejaVuSans-67" x="298.884766"/>
     <use xlink:href="#DejaVuSans-65" x="362.361328"/>
     <use xlink:href="#DejaVuSans-74" x="423.884766"/>
     <use xlink:href="#DejaVuSans-73" x="463.09375"/>
     <use xlink:href="#DejaVuSans-3a" x="515.193359"/>
     <use xlink:href="#DejaVuSans-20" x="548.884766"/>
     <use xlink:href="#DejaVuSans-31" x="580.671875"/>
     <use xlink:href="#DejaVuSans-2e" x="644.294922"/>
     <use xlink:href="#DejaVuSans-2e" x="676.082031"/>
     <use xlink:href="#DejaVuSans-2d" x="707.869141"/>
     <use xlink:href="#DejaVuSans-31" x="743.953125"/>
     <use xlink:href="#DejaVuSans-2e" x="807.576172"/>
     <use xlink:href="#DejaVuSans-30" x="839.363281"/>
     <use xlink:href="#DejaVuSans-65" x="902.986328"/>
     <use xlink:href="#DejaVuSans-2d" x="964.509766"/>
     <use xlink:href="#DejaVuSans-34" x="1000.59375"/>
    </g>
    <!-- 10 instances -->
    <g transform="translate(60.632064 40.426264)scale(0.102 -0.102)">
     <use xlink:href="#DejaVuSans-31"/>
     <use xlink:href="#DejaVuSans-30" x="63.623047"/>
     <use xlink:href="#DejaVuSans-20" x="127.246094"/>
     <use xlink:href="#DejaVuSans-69" x="159.033203"/>
     <use xlink:href="#DejaVuSans-6e" x="186.816406"/>
     <use xlink:href="#DejaVuSans-73" x="250.195312"/>
     <use xlink:href="#DejaVuSans-74" x="302.294922"/>
     <use xlink:href="#DejaVuSans-61" x="341.503906"/>
     <use xlink:href="#DejaVuSans-6e" x="402.783203"/>
     <use xlink:href="#DejaVuSans-63" x="466.162109"/>
     <use xlink:href="#DejaVuSans-65" x="521.142578"/>
     <use xlink:href="#DejaVuSans-73" x="582.666016"/>
    </g>
   </g>
   <g id="text_18">
    <!-- v2.6, hv-hash=ff0e71e8cd978373 -->
    <g style="fill: #808080" transform="translate(123.707887 293.943992)scale(0.1 -0.1)">
     <defs>
      <path id="DejaVuSans-68" d="M 3513 2113 
L 3513 0 
L 2938 0 
L 2938 2094 
Q 2938 2591 2744 2837 
Q 2550 3084 2163 3084 
Q 1697 3084 1428 2787 
Q 1159 2491 1159 1978 
L 1159 0 
L 581 0 
L 581 4863 
L 1159 4863 
L 1159 2956 
Q 1366 3272 1645 3428 
Q 1925 3584 2291 3584 
Q 2894 3584 3203 3211 
Q 3513 2838 3513 2113 
z
" transform="scale(0.015625)"/>
      <path id="DejaVuSans-3d" d="M 678 2906 
L 4684 2906 
L 4684 2381 
L 678 2381 
L 678 2906 
z
M 678 1631 
L 4684 1631 
L 4684 1100 
L 678 1100 
L 678 1631 
z
" transform="scale(0.015625)"/>
      <path id="DejaVuSans-37" d="M 525 4666 
L 3525 4666 
L 3525 4397 
L 1831 0 
L 1172 0 
L 2766 4134 
L 525 4134 
L 525 4666 
z
" transform="scale(0.015625)"/>
     </defs>
     <use xlink:href="#DejaVuSans-76"/>
     <use xlink:href="#DejaVuSans-32" x="59.179688"/>
     <use xlink:href="#DejaVuSans-2e" x="122.802734"/>
     <use xlink:href="#DejaVuSans-36" x="154.589844"/>
     <use xlink:href="#DejaVuSans-2c" x="218.212891"/>
     <use xlink:href="#DejaVuSans-20" x="250"/>
     <use xlink:href="#DejaVuSans-68" x="281.787109"/>
     <use xlink:href="#DejaVuSans-76" x="345.166016"/>
     <use xlink:href="#DejaVuSans-2d" x="401.720703"/>
     <use xlink:href="#DejaVuSans-68" x="437.804688"/>
     <use xlink:href="#DejaVuSans-61" x="501.183594"/>
     <use xlink:href="#DejaVuSans-73" x="562.462891"/>
     <use xlink:href="#DejaVuSans-68" x="614.5625"/>
     <use xlink:href="#DejaVuSans-3d" x="677.941406"/>
     <use xlink:href="#DejaVuSans-66" x="761.730469"/>
     <use xlink:href="#DejaVuSans-66" x="796.935547"/>
     <use xlink:href="#DejaVuSans-30" x="832.140625"/>
     <use xlink:href="#DejaVuSans-65" x="895.763672"/>
     <use xlink:href="#DejaVuSans-37" x="957.287109"/>
     <use xlink:href="#DejaVuSans-31" x="1020.910156"/>
     <use xlink:href="#DejaVuSans-65" x="1084.533203"/>
     <use xlink:href="#DejaVuSans-38" x="1146.056641"/>
     <use xlink:href="#DejaVuSans-63" x="1209.679688"/>
     <use xlink:href="#DejaVuSans-64" x="1264.660156"/>
     <use xlink:href="#DejaVuSans-39" x="1328.136719"/>
     <use xlink:href="#DejaVuSans-37" x="1391.759766"/>
     <use xlink:href="#DejaVuSans-38" x="1455.382812"/>
     <use xlink:href="#DejaVuSans-33" x="1519.005859"/>
     <use xlink:href="#DejaVuSans-37" x="1582.628906"/>
     <use xlink:href="#DejaVuSans-33" x="1646.251953"/>
    </g>
   </g>
  </g>
 </g>
 <defs>
  <clipPath id="pd4fd895419">
   <rect x="57.6" y="6.912" width="303.2064" height="292.032"/>
  </clipPath>
 </defs>
</svg>
