<?xml version="1.0" encoding="utf-8" standalone="no"?>
<!DOCTYPE svg PUBLIC "-//W3C//DTD SVG 1.1//EN"
  "http://www.w3.org/Graphics/SVG/1.1/DTD/svg11.dtd">
<svg xmlns:xlink="http://www.w3.org/1999/xlink" width="460.8pt" height="345.6pt" viewBox="0 0 460.8 345.6" xmlns="http://www.w3.org/2000/svg" version="1.1">
 <metadata>
  <rdf:RDF xmlns:dc="http://purl.org/dc/elements/1.1/" xmlns:cc="http://creativecommons.org/ns#" xmlns:rdf="http://www.w3.org/1999/02/22-rdf-syntax-ns#">
   <cc:Work>
    <dc:type rdf:resource="http://purl.org/dc/dcmitype/StillImage"/>
    <dc:date>2022-06-19T21:02:39.395293</dc:date>
    <dc:format>image/svg+xml</dc:format>
    <dc:creator>
     <cc:Agent>
      <dc:title>Matplotlib v3.5.1, https://matplotlib.org/</dc:title>
     </cc:Agent>
    </dc:creator>
   </cc:Work>
  </rdf:RDF>
 </metadata>
 <defs>
  <style type="text/css">*{stroke-linejoin: round; stroke-linecap: butt}</style>
 </defs>
 <g id="figure_1">
  <g id="patch_1">
   <path d="M 0 345.6 
L 460.8 345.6 
L 460.8 0 
L 0 0 
z
" style="fill: #ffffff"/>
  </g>
  <g id="axes_1">
   <g id="patch_2">
    <path d="M 57.6 298.944 
L 360.8064 298.944 
L 360.8064 6.912 
L 57.6 6.912 
z
" style="fill: #ffffff"/>
   </g>
   <g id="line2d_1">
    <path d="M 44.560826 298.944 
L 44.560826 295.167724 
L 65.227428 295.167724 
L 65.227428 292.650207 
L 70.639174 292.650207 
L 70.639174 290.13269 
L 74.836851 290.13269 
L 74.836851 287.615172 
L 78.266603 287.615172 
L 78.266603 286.356414 
L 83.678349 286.356414 
L 83.678349 283.838897 
L 87.876026 283.838897 
L 87.876026 282.580138 
L 89.668958 282.580138 
L 89.668958 280.062621 
L 94.205591 280.062621 
L 94.205591 276.286345 
L 97.857967 276.286345 
L 97.857967 273.768828 
L 99.950294 273.768828 
L 99.950294 271.25131 
L 102.708132 271.25131 
L 102.708132 268.733793 
L 107.244765 268.733793 
L 107.244765 266.216276 
L 108.542628 266.216276 
L 108.542628 264.957517 
L 109.756698 264.957517 
L 109.756698 263.698759 
L 113.954374 263.698759 
L 113.954374 259.922483 
L 118.152051 259.922483 
L 118.152051 258.663724 
L 119.24818 258.663724 
L 119.24818 252.369931 
L 123.657621 252.369931 
L 123.657621 249.852414 
L 123.936316 249.852414 
L 123.936316 247.334897 
L 124.210942 247.334897 
L 124.210942 246.076138 
L 127.227236 246.076138 
L 127.227236 244.817379 
L 130.027253 244.817379 
L 130.027253 241.041103 
L 132.287354 241.041103 
L 132.287354 238.523586 
L 133.154399 238.523586 
L 133.154399 237.264828 
L 134.463557 237.264828 
L 134.463557 233.488552 
L 135.835047 233.488552 
L 135.835047 229.712276 
L 138.180913 229.712276 
L 138.180913 227.194759 
L 138.692823 227.194759 
L 138.692823 224.677241 
L 140.49723 224.677241 
L 140.49723 222.159724 
L 141.173167 222.159724 
L 141.173167 219.642207 
L 141.393187 219.642207 
L 141.393187 218.383448 
L 142.559347 218.383448 
L 142.559347 215.865931 
L 146.362288 215.865931 
L 146.362288 213.348414 
L 147.423525 213.348414 
L 147.423525 210.830897 
L 148.652472 210.830897 
L 148.652472 207.054621 
L 149.665646 207.054621 
L 149.665646 204.537103 
L 153.130592 204.537103 
L 153.130592 202.019586 
L 154.377597 202.019586 
L 154.377597 200.760828 
L 157.222487 200.760828 
L 157.222487 198.24331 
L 159.61025 198.24331 
L 159.61025 194.467034 
L 162.023298 194.467034 
L 162.023298 190.690759 
L 165.51383 190.690759 
L 165.51383 188.173241 
L 165.664928 188.173241 
L 165.755007 184.396966 
L 169.094679 184.396966 
L 169.194741 180.62069 
L 170.565646 180.62069 
L 170.565646 176.844414 
L 171.73472 176.844414 
L 171.73472 174.326897 
L 172.037442 174.326897 
L 172.037442 171.809379 
L 175.189886 171.809379 
L 175.189886 170.550621 
L 177.873367 170.550621 
L 177.873367 166.774345 
L 179.208941 166.774345 
L 179.208941 165.515586 
L 179.686307 165.515586 
L 179.686307 164.256828 
L 182.750681 164.256828 
L 182.750681 160.480552 
L 183.300836 160.480552 
L 183.300836 156.704276 
L 186.371619 156.704276 
L 186.371619 155.445517 
L 187.583186 155.445517 
L 187.583186 152.928 
L 187.825678 152.928 
L 187.825678 149.151724 
L 190.730786 149.151724 
L 190.730786 146.634207 
L 194.194916 146.634207 
L 194.194916 142.857931 
L 196.001054 142.857931 
L 196.001054 141.599172 
L 198.587097 141.599172 
L 198.587097 140.340414 
L 200.419449 140.340414 
L 200.419449 136.564138 
L 200.915751 136.564138 
L 200.915751 135.305379 
L 202.05864 135.305379 
L 202.05864 132.787862 
L 202.450248 132.787862 
L 202.450248 129.011586 
L 206.451849 129.011586 
L 206.451849 127.752828 
L 206.636848 127.752828 
L 206.636848 125.23531 
L 207.26379 125.23531 
L 207.26379 121.459034 
L 212.529889 121.459034 
L 212.529889 117.682759 
L 214.896713 117.682759 
L 214.896713 116.424 
L 215.7894 116.424 
L 215.7894 115.165241 
L 216.080541 115.165241 
L 216.080541 113.906483 
L 217.478017 113.906483 
L 217.478017 112.647724 
L 224.032573 112.647724 
L 224.032573 108.871448 
L 224.349012 108.871448 
L 224.349012 105.095172 
L 224.513167 105.095172 
L 224.513167 101.318897 
L 226.493053 101.318897 
L 226.493053 97.542621 
L 230.996692 97.542621 
L 230.996692 95.025103 
L 232.053401 95.025103 
L 232.053401 92.507586 
L 234.596096 92.507586 
L 234.596096 89.990069 
L 237.783555 89.990069 
L 237.783555 87.472552 
L 238.284592 87.472552 
L 238.284592 86.213793 
L 238.7751 86.213793 
L 238.7751 83.696276 
L 239.766266 83.696276 
L 239.766266 81.178759 
L 240.939317 81.178759 
L 240.939317 79.92 
L 241.991514 79.92 
L 241.991514 76.143724 
L 244.960576 76.143724 
L 244.960576 73.626207 
L 246.433176 73.626207 
L 246.433176 71.10869 
L 246.662366 71.10869 
L 246.662366 69.849931 
L 246.837374 69.849931 
L 246.837374 68.591172 
L 249.991552 68.591172 
L 249.991552 64.814897 
L 251.569994 64.814897 
L 251.569994 62.297379 
L 252.114472 62.297379 
L 252.114472 59.779862 
L 252.461339 59.779862 
L 252.461339 57.262345 
L 257.428644 57.262345 
L 257.428644 56.003586 
L 258.243313 56.003586 
L 258.243313 52.22731 
L 258.632631 52.22731 
L 258.632631 48.451034 
L 263.918617 48.451034 
L 263.918617 45.933517 
L 270.900732 45.933517 
L 270.900732 42.157241 
L 360.8064 42.157241 
L 360.8064 42.157241 
" style="fill: none; stroke: #f5deb3; stroke-width: 4; stroke-linecap: square"/>
   </g>
   <g id="line2d_2">
    <defs>
     <path id="ma0bc565cea" d="M 0 7.778175 
L 7.778175 0 
L 0 -7.778175 
L -7.778175 0 
z
" style="stroke: #f5deb3; stroke-width: 1.5; stroke-linejoin: miter"/>
    </defs>
    <g>
     <use xlink:href="#ma0bc565cea" x="138.180913" y="227.194759" style="fill: #f5deb3; stroke: #f5deb3; stroke-width: 1.5; stroke-linejoin: miter"/>
     <use xlink:href="#ma0bc565cea" x="182.750681" y="160.480552" style="fill: #f5deb3; stroke: #f5deb3; stroke-width: 1.5; stroke-linejoin: miter"/>
     <use xlink:href="#ma0bc565cea" x="246.837374" y="68.591172" style="fill: #f5deb3; stroke: #f5deb3; stroke-width: 1.5; stroke-linejoin: miter"/>
     <use xlink:href="#ma0bc565cea" x="270.900732" y="42.157241" style="fill: #f5deb3; stroke: #f5deb3; stroke-width: 1.5; stroke-linejoin: miter"/>
     <use xlink:href="#ma0bc565cea" x="270.900732" y="42.157241" style="fill: #f5deb3; stroke: #f5deb3; stroke-width: 1.5; stroke-linejoin: miter"/>
     <use xlink:href="#ma0bc565cea" x="360.8064" y="42.157241" style="fill: #f5deb3; stroke: #f5deb3; stroke-width: 1.5; stroke-linejoin: miter"/>
    </g>
   </g>
   <g id="line2d_3">
    <path style="fill: none; stroke: #f5deb3; stroke-width: 4; stroke-linecap: square"/>
    <g/>
   </g>
   <g id="line2d_4">
    <path d="M 360.8064 42.157241 
L 380.514816 12.75264 
" style="fill: none; stroke: #f5deb3; stroke-width: 4; stroke-linecap: square"/>
    <g>
     <use xlink:href="#ma0bc565cea" x="360.8064" y="42.157241" style="fill: #f5deb3; stroke: #f5deb3; stroke-width: 1.5; stroke-linejoin: miter"/>
     <use xlink:href="#ma0bc565cea" x="380.514816" y="12.75264" style="fill: #f5deb3; stroke: #f5deb3; stroke-width: 1.5; stroke-linejoin: miter"/>
    </g>
   </g>
   <g id="matplotlib.axis_1">
    <g id="xtick_1">
     <g id="line2d_5">
      <path d="M 57.6 298.944 
L 57.6 6.912 
" clip-path="url(#p8c32205d12)" style="fill: none; stroke: #b0b0b0; stroke-width: 0.8; stroke-linecap: square"/>
     </g>
     <g id="line2d_6">
      <defs>
       <path id="m5df5e2f98d" d="M 0 0 
L 0 3.5 
" style="stroke: #000000; stroke-width: 0.8"/>
      </defs>
      <g>
       <use xlink:href="#m5df5e2f98d" x="57.6" y="298.944" style="stroke: #000000; stroke-width: 0.8"/>
      </g>
     </g>
     <g id="text_1">
      <!-- 0 -->
      <g transform="translate(52.191875 318.861344)scale(0.17 -0.17)">
       <defs>
        <path id="DejaVuSans-30" d="M 2034 4250 
Q 1547 4250 1301 3770 
Q 1056 3291 1056 2328 
Q 1056 1369 1301 889 
Q 1547 409 2034 409 
Q 2525 409 2770 889 
Q 3016 1369 3016 2328 
Q 3016 3291 2770 3770 
Q 2525 4250 2034 4250 
z
M 2034 4750 
Q 2819 4750 3233 4129 
Q 3647 3509 3647 2328 
Q 3647 1150 3233 529 
Q 2819 -91 2034 -91 
Q 1250 -91 836 529 
Q 422 1150 422 2328 
Q 422 3509 836 4129 
Q 1250 4750 2034 4750 
z
" transform="scale(0.015625)"/>
       </defs>
       <use xlink:href="#DejaVuSans-30"/>
      </g>
     </g>
    </g>
    <g id="xtick_2">
     <g id="line2d_7">
      <path d="M 144.2304 298.944 
L 144.2304 6.912 
" clip-path="url(#p8c32205d12)" style="fill: none; stroke: #b0b0b0; stroke-width: 0.8; stroke-linecap: square"/>
     </g>
     <g id="line2d_8">
      <g>
       <use xlink:href="#m5df5e2f98d" x="144.2304" y="298.944" style="stroke: #000000; stroke-width: 0.8"/>
      </g>
     </g>
     <g id="text_2">
      <!-- 2 -->
      <g transform="translate(138.822275 318.861344)scale(0.17 -0.17)">
       <defs>
        <path id="DejaVuSans-32" d="M 1228 531 
L 3431 531 
L 3431 0 
L 469 0 
L 469 531 
Q 828 903 1448 1529 
Q 2069 2156 2228 2338 
Q 2531 2678 2651 2914 
Q 2772 3150 2772 3378 
Q 2772 3750 2511 3984 
Q 2250 4219 1831 4219 
Q 1534 4219 1204 4116 
Q 875 4013 500 3803 
L 500 4441 
Q 881 4594 1212 4672 
Q 1544 4750 1819 4750 
Q 2544 4750 2975 4387 
Q 3406 4025 3406 3419 
Q 3406 3131 3298 2873 
Q 3191 2616 2906 2266 
Q 2828 2175 2409 1742 
Q 1991 1309 1228 531 
z
" transform="scale(0.015625)"/>
       </defs>
       <use xlink:href="#DejaVuSans-32"/>
      </g>
     </g>
    </g>
    <g id="xtick_3">
     <g id="line2d_9">
      <path d="M 230.8608 298.944 
L 230.8608 6.912 
" clip-path="url(#p8c32205d12)" style="fill: none; stroke: #b0b0b0; stroke-width: 0.8; stroke-linecap: square"/>
     </g>
     <g id="line2d_10">
      <g>
       <use xlink:href="#m5df5e2f98d" x="230.8608" y="298.944" style="stroke: #000000; stroke-width: 0.8"/>
      </g>
     </g>
     <g id="text_3">
      <!-- 4 -->
      <g transform="translate(225.452675 318.861344)scale(0.17 -0.17)">
       <defs>
        <path id="DejaVuSans-34" d="M 2419 4116 
L 825 1625 
L 2419 1625 
L 2419 4116 
z
M 2253 4666 
L 3047 4666 
L 3047 1625 
L 3713 1625 
L 3713 1100 
L 3047 1100 
L 3047 0 
L 2419 0 
L 2419 1100 
L 313 1100 
L 313 1709 
L 2253 4666 
z
" transform="scale(0.015625)"/>
       </defs>
       <use xlink:href="#DejaVuSans-34"/>
      </g>
     </g>
    </g>
    <g id="xtick_4">
     <g id="line2d_11">
      <path d="M 317.4912 298.944 
L 317.4912 6.912 
" clip-path="url(#p8c32205d12)" style="fill: none; stroke: #b0b0b0; stroke-width: 0.8; stroke-linecap: square"/>
     </g>
     <g id="line2d_12">
      <g>
       <use xlink:href="#m5df5e2f98d" x="317.4912" y="298.944" style="stroke: #000000; stroke-width: 0.8"/>
      </g>
     </g>
     <g id="text_4">
      <!-- 6 -->
      <g transform="translate(312.083075 318.861344)scale(0.17 -0.17)">
       <defs>
        <path id="DejaVuSans-36" d="M 2113 2584 
Q 1688 2584 1439 2293 
Q 1191 2003 1191 1497 
Q 1191 994 1439 701 
Q 1688 409 2113 409 
Q 2538 409 2786 701 
Q 3034 994 3034 1497 
Q 3034 2003 2786 2293 
Q 2538 2584 2113 2584 
z
M 3366 4563 
L 3366 3988 
Q 3128 4100 2886 4159 
Q 2644 4219 2406 4219 
Q 1781 4219 1451 3797 
Q 1122 3375 1075 2522 
Q 1259 2794 1537 2939 
Q 1816 3084 2150 3084 
Q 2853 3084 3261 2657 
Q 3669 2231 3669 1497 
Q 3669 778 3244 343 
Q 2819 -91 2113 -91 
Q 1303 -91 875 529 
Q 447 1150 447 2328 
Q 447 3434 972 4092 
Q 1497 4750 2381 4750 
Q 2619 4750 2861 4703 
Q 3103 4656 3366 4563 
z
" transform="scale(0.015625)"/>
       </defs>
       <use xlink:href="#DejaVuSans-36"/>
      </g>
     </g>
    </g>
    <g id="xtick_5">
     <g id="line2d_13">
      <path d="M 100.9152 298.944 
L 100.9152 6.912 
" clip-path="url(#p8c32205d12)" style="fill: none; stroke: #b0b0b0; stroke-width: 0.8; stroke-linecap: square"/>
     </g>
     <g id="line2d_14">
      <defs>
       <path id="mf3f791c788" d="M 0 0 
L 0 2 
" style="stroke: #000000; stroke-width: 0.6"/>
      </defs>
      <g>
       <use xlink:href="#mf3f791c788" x="100.9152" y="298.944" style="stroke: #000000; stroke-width: 0.6"/>
      </g>
     </g>
    </g>
    <g id="xtick_6">
     <g id="line2d_15">
      <path d="M 187.5456 298.944 
L 187.5456 6.912 
" clip-path="url(#p8c32205d12)" style="fill: none; stroke: #b0b0b0; stroke-width: 0.8; stroke-linecap: square"/>
     </g>
     <g id="line2d_16">
      <g>
       <use xlink:href="#mf3f791c788" x="187.5456" y="298.944" style="stroke: #000000; stroke-width: 0.6"/>
      </g>
     </g>
    </g>
    <g id="xtick_7">
     <g id="line2d_17">
      <path d="M 274.176 298.944 
L 274.176 6.912 
" clip-path="url(#p8c32205d12)" style="fill: none; stroke: #b0b0b0; stroke-width: 0.8; stroke-linecap: square"/>
     </g>
     <g id="line2d_18">
      <g>
       <use xlink:href="#mf3f791c788" x="274.176" y="298.944" style="stroke: #000000; stroke-width: 0.6"/>
      </g>
     </g>
    </g>
    <g id="xtick_8">
     <g id="line2d_19">
      <path d="M 360.8064 298.944 
L 360.8064 6.912 
" clip-path="url(#p8c32205d12)" style="fill: none; stroke: #b0b0b0; stroke-width: 0.8; stroke-linecap: square"/>
     </g>
     <g id="line2d_20">
      <g>
       <use xlink:href="#mf3f791c788" x="360.8064" y="298.944" style="stroke: #000000; stroke-width: 0.6"/>
      </g>
     </g>
    </g>
    <g id="text_5">
     <!-- log10(# f-evals / dimension) -->
     <g transform="translate(88.823278 339.314156)scale(0.17 -0.17)">
      <defs>
       <path id="DejaVuSans-6c" d="M 603 4863 
L 1178 4863 
L 1178 0 
L 603 0 
L 603 4863 
z
" transform="scale(0.015625)"/>
       <path id="DejaVuSans-6f" d="M 1959 3097 
Q 1497 3097 1228 2736 
Q 959 2375 959 1747 
Q 959 1119 1226 758 
Q 1494 397 1959 397 
Q 2419 397 2687 759 
Q 2956 1122 2956 1747 
Q 2956 2369 2687 2733 
Q 2419 3097 1959 3097 
z
M 1959 3584 
Q 2709 3584 3137 3096 
Q 3566 2609 3566 1747 
Q 3566 888 3137 398 
Q 2709 -91 1959 -91 
Q 1206 -91 779 398 
Q 353 888 353 1747 
Q 353 2609 779 3096 
Q 1206 3584 1959 3584 
z
" transform="scale(0.015625)"/>
       <path id="DejaVuSans-67" d="M 2906 1791 
Q 2906 2416 2648 2759 
Q 2391 3103 1925 3103 
Q 1463 3103 1205 2759 
Q 947 2416 947 1791 
Q 947 1169 1205 825 
Q 1463 481 1925 481 
Q 2391 481 2648 825 
Q 2906 1169 2906 1791 
z
M 3481 434 
Q 3481 -459 3084 -895 
Q 2688 -1331 1869 -1331 
Q 1566 -1331 1297 -1286 
Q 1028 -1241 775 -1147 
L 775 -588 
Q 1028 -725 1275 -790 
Q 1522 -856 1778 -856 
Q 2344 -856 2625 -561 
Q 2906 -266 2906 331 
L 2906 616 
Q 2728 306 2450 153 
Q 2172 0 1784 0 
Q 1141 0 747 490 
Q 353 981 353 1791 
Q 353 2603 747 3093 
Q 1141 3584 1784 3584 
Q 2172 3584 2450 3431 
Q 2728 3278 2906 2969 
L 2906 3500 
L 3481 3500 
L 3481 434 
z
" transform="scale(0.015625)"/>
       <path id="DejaVuSans-31" d="M 794 531 
L 1825 531 
L 1825 4091 
L 703 3866 
L 703 4441 
L 1819 4666 
L 2450 4666 
L 2450 531 
L 3481 531 
L 3481 0 
L 794 0 
L 794 531 
z
" transform="scale(0.015625)"/>
       <path id="DejaVuSans-28" d="M 1984 4856 
Q 1566 4138 1362 3434 
Q 1159 2731 1159 2009 
Q 1159 1288 1364 580 
Q 1569 -128 1984 -844 
L 1484 -844 
Q 1016 -109 783 600 
Q 550 1309 550 2009 
Q 550 2706 781 3412 
Q 1013 4119 1484 4856 
L 1984 4856 
z
" transform="scale(0.015625)"/>
       <path id="DejaVuSans-23" d="M 3272 2816 
L 2363 2816 
L 2100 1772 
L 3016 1772 
L 3272 2816 
z
M 2803 4594 
L 2478 3297 
L 3391 3297 
L 3719 4594 
L 4219 4594 
L 3897 3297 
L 4872 3297 
L 4872 2816 
L 3775 2816 
L 3519 1772 
L 4513 1772 
L 4513 1294 
L 3397 1294 
L 3072 0 
L 2572 0 
L 2894 1294 
L 1978 1294 
L 1656 0 
L 1153 0 
L 1478 1294 
L 494 1294 
L 494 1772 
L 1594 1772 
L 1856 2816 
L 850 2816 
L 850 3297 
L 1978 3297 
L 2297 4594 
L 2803 4594 
z
" transform="scale(0.015625)"/>
       <path id="DejaVuSans-20" transform="scale(0.015625)"/>
       <path id="DejaVuSans-66" d="M 2375 4863 
L 2375 4384 
L 1825 4384 
Q 1516 4384 1395 4259 
Q 1275 4134 1275 3809 
L 1275 3500 
L 2222 3500 
L 2222 3053 
L 1275 3053 
L 1275 0 
L 697 0 
L 697 3053 
L 147 3053 
L 147 3500 
L 697 3500 
L 697 3744 
Q 697 4328 969 4595 
Q 1241 4863 1831 4863 
L 2375 4863 
z
" transform="scale(0.015625)"/>
       <path id="DejaVuSans-2d" d="M 313 2009 
L 1997 2009 
L 1997 1497 
L 313 1497 
L 313 2009 
z
" transform="scale(0.015625)"/>
       <path id="DejaVuSans-65" d="M 3597 1894 
L 3597 1613 
L 953 1613 
Q 991 1019 1311 708 
Q 1631 397 2203 397 
Q 2534 397 2845 478 
Q 3156 559 3463 722 
L 3463 178 
Q 3153 47 2828 -22 
Q 2503 -91 2169 -91 
Q 1331 -91 842 396 
Q 353 884 353 1716 
Q 353 2575 817 3079 
Q 1281 3584 2069 3584 
Q 2775 3584 3186 3129 
Q 3597 2675 3597 1894 
z
M 3022 2063 
Q 3016 2534 2758 2815 
Q 2500 3097 2075 3097 
Q 1594 3097 1305 2825 
Q 1016 2553 972 2059 
L 3022 2063 
z
" transform="scale(0.015625)"/>
       <path id="DejaVuSans-76" d="M 191 3500 
L 800 3500 
L 1894 563 
L 2988 3500 
L 3597 3500 
L 2284 0 
L 1503 0 
L 191 3500 
z
" transform="scale(0.015625)"/>
       <path id="DejaVuSans-61" d="M 2194 1759 
Q 1497 1759 1228 1600 
Q 959 1441 959 1056 
Q 959 750 1161 570 
Q 1363 391 1709 391 
Q 2188 391 2477 730 
Q 2766 1069 2766 1631 
L 2766 1759 
L 2194 1759 
z
M 3341 1997 
L 3341 0 
L 2766 0 
L 2766 531 
Q 2569 213 2275 61 
Q 1981 -91 1556 -91 
Q 1019 -91 701 211 
Q 384 513 384 1019 
Q 384 1609 779 1909 
Q 1175 2209 1959 2209 
L 2766 2209 
L 2766 2266 
Q 2766 2663 2505 2880 
Q 2244 3097 1772 3097 
Q 1472 3097 1187 3025 
Q 903 2953 641 2809 
L 641 3341 
Q 956 3463 1253 3523 
Q 1550 3584 1831 3584 
Q 2591 3584 2966 3190 
Q 3341 2797 3341 1997 
z
" transform="scale(0.015625)"/>
       <path id="DejaVuSans-73" d="M 2834 3397 
L 2834 2853 
Q 2591 2978 2328 3040 
Q 2066 3103 1784 3103 
Q 1356 3103 1142 2972 
Q 928 2841 928 2578 
Q 928 2378 1081 2264 
Q 1234 2150 1697 2047 
L 1894 2003 
Q 2506 1872 2764 1633 
Q 3022 1394 3022 966 
Q 3022 478 2636 193 
Q 2250 -91 1575 -91 
Q 1294 -91 989 -36 
Q 684 19 347 128 
L 347 722 
Q 666 556 975 473 
Q 1284 391 1588 391 
Q 1994 391 2212 530 
Q 2431 669 2431 922 
Q 2431 1156 2273 1281 
Q 2116 1406 1581 1522 
L 1381 1569 
Q 847 1681 609 1914 
Q 372 2147 372 2553 
Q 372 3047 722 3315 
Q 1072 3584 1716 3584 
Q 2034 3584 2315 3537 
Q 2597 3491 2834 3397 
z
" transform="scale(0.015625)"/>
       <path id="DejaVuSans-2f" d="M 1625 4666 
L 2156 4666 
L 531 -594 
L 0 -594 
L 1625 4666 
z
" transform="scale(0.015625)"/>
       <path id="DejaVuSans-64" d="M 2906 2969 
L 2906 4863 
L 3481 4863 
L 3481 0 
L 2906 0 
L 2906 525 
Q 2725 213 2448 61 
Q 2172 -91 1784 -91 
Q 1150 -91 751 415 
Q 353 922 353 1747 
Q 353 2572 751 3078 
Q 1150 3584 1784 3584 
Q 2172 3584 2448 3432 
Q 2725 3281 2906 2969 
z
M 947 1747 
Q 947 1113 1208 752 
Q 1469 391 1925 391 
Q 2381 391 2643 752 
Q 2906 1113 2906 1747 
Q 2906 2381 2643 2742 
Q 2381 3103 1925 3103 
Q 1469 3103 1208 2742 
Q 947 2381 947 1747 
z
" transform="scale(0.015625)"/>
       <path id="DejaVuSans-69" d="M 603 3500 
L 1178 3500 
L 1178 0 
L 603 0 
L 603 3500 
z
M 603 4863 
L 1178 4863 
L 1178 4134 
L 603 4134 
L 603 4863 
z
" transform="scale(0.015625)"/>
       <path id="DejaVuSans-6d" d="M 3328 2828 
Q 3544 3216 3844 3400 
Q 4144 3584 4550 3584 
Q 5097 3584 5394 3201 
Q 5691 2819 5691 2113 
L 5691 0 
L 5113 0 
L 5113 2094 
Q 5113 2597 4934 2840 
Q 4756 3084 4391 3084 
Q 3944 3084 3684 2787 
Q 3425 2491 3425 1978 
L 3425 0 
L 2847 0 
L 2847 2094 
Q 2847 2600 2669 2842 
Q 2491 3084 2119 3084 
Q 1678 3084 1418 2786 
Q 1159 2488 1159 1978 
L 1159 0 
L 581 0 
L 581 3500 
L 1159 3500 
L 1159 2956 
Q 1356 3278 1631 3431 
Q 1906 3584 2284 3584 
Q 2666 3584 2933 3390 
Q 3200 3197 3328 2828 
z
" transform="scale(0.015625)"/>
       <path id="DejaVuSans-6e" d="M 3513 2113 
L 3513 0 
L 2938 0 
L 2938 2094 
Q 2938 2591 2744 2837 
Q 2550 3084 2163 3084 
Q 1697 3084 1428 2787 
Q 1159 2491 1159 1978 
L 1159 0 
L 581 0 
L 581 3500 
L 1159 3500 
L 1159 2956 
Q 1366 3272 1645 3428 
Q 1925 3584 2291 3584 
Q 2894 3584 3203 3211 
Q 3513 2838 3513 2113 
z
" transform="scale(0.015625)"/>
       <path id="DejaVuSans-29" d="M 513 4856 
L 1013 4856 
Q 1481 4119 1714 3412 
Q 1947 2706 1947 2009 
Q 1947 1309 1714 600 
Q 1481 -109 1013 -844 
L 513 -844 
Q 928 -128 1133 580 
Q 1338 1288 1338 2009 
Q 1338 2731 1133 3434 
Q 928 4138 513 4856 
z
" transform="scale(0.015625)"/>
      </defs>
      <use xlink:href="#DejaVuSans-6c"/>
      <use xlink:href="#DejaVuSans-6f" x="27.783203"/>
      <use xlink:href="#DejaVuSans-67" x="88.964844"/>
      <use xlink:href="#DejaVuSans-31" x="152.441406"/>
      <use xlink:href="#DejaVuSans-30" x="216.064453"/>
      <use xlink:href="#DejaVuSans-28" x="279.6875"/>
      <use xlink:href="#DejaVuSans-23" x="318.701172"/>
      <use xlink:href="#DejaVuSans-20" x="402.490234"/>
      <use xlink:href="#DejaVuSans-66" x="434.277344"/>
      <use xlink:href="#DejaVuSans-2d" x="463.982422"/>
      <use xlink:href="#DejaVuSans-65" x="500.066406"/>
      <use xlink:href="#DejaVuSans-76" x="561.589844"/>
      <use xlink:href="#DejaVuSans-61" x="620.769531"/>
      <use xlink:href="#DejaVuSans-6c" x="682.048828"/>
      <use xlink:href="#DejaVuSans-73" x="709.832031"/>
      <use xlink:href="#DejaVuSans-20" x="761.931641"/>
      <use xlink:href="#DejaVuSans-2f" x="793.71875"/>
      <use xlink:href="#DejaVuSans-20" x="827.410156"/>
      <use xlink:href="#DejaVuSans-64" x="859.197266"/>
      <use xlink:href="#DejaVuSans-69" x="922.673828"/>
      <use xlink:href="#DejaVuSans-6d" x="950.457031"/>
      <use xlink:href="#DejaVuSans-65" x="1047.869141"/>
      <use xlink:href="#DejaVuSans-6e" x="1109.392578"/>
      <use xlink:href="#DejaVuSans-73" x="1172.771484"/>
      <use xlink:href="#DejaVuSans-69" x="1224.871094"/>
      <use xlink:href="#DejaVuSans-6f" x="1252.654297"/>
      <use xlink:href="#DejaVuSans-6e" x="1313.835938"/>
      <use xlink:href="#DejaVuSans-29" x="1377.214844"/>
     </g>
    </g>
   </g>
   <g id="matplotlib.axis_2">
    <g id="ytick_1">
     <g id="line2d_21">
      <path d="M 57.6 298.944 
L 360.8064 298.944 
" clip-path="url(#p8c32205d12)" style="fill: none; stroke: #b0b0b0; stroke-width: 0.8; stroke-linecap: square"/>
     </g>
     <g id="line2d_22">
      <defs>
       <path id="m5c1d05f73e" d="M 0 0 
L -3.5 0 
" style="stroke: #000000; stroke-width: 0.8"/>
      </defs>
      <g>
       <use xlink:href="#m5c1d05f73e" x="57.6" y="298.944" style="stroke: #000000; stroke-width: 0.8"/>
      </g>
     </g>
     <g id="text_6">
      <!-- 0.0 -->
      <g transform="translate(25.155 305.02275)scale(0.16 -0.16)">
       <defs>
        <path id="DejaVuSans-2e" d="M 684 794 
L 1344 794 
L 1344 0 
L 684 0 
L 684 794 
z
" transform="scale(0.015625)"/>
       </defs>
       <use xlink:href="#DejaVuSans-30"/>
       <use xlink:href="#DejaVuSans-2e" x="63.623047"/>
       <use xlink:href="#DejaVuSans-30" x="95.410156"/>
      </g>
     </g>
    </g>
    <g id="ytick_2">
     <g id="line2d_23">
      <path d="M 57.6 240.5376 
L 360.8064 240.5376 
" clip-path="url(#p8c32205d12)" style="fill: none; stroke: #b0b0b0; stroke-width: 0.8; stroke-linecap: square"/>
     </g>
     <g id="line2d_24">
      <g>
       <use xlink:href="#m5c1d05f73e" x="57.6" y="240.5376" style="stroke: #000000; stroke-width: 0.8"/>
      </g>
     </g>
     <g id="text_7">
      <!-- 0.2 -->
      <g transform="translate(25.155 246.61635)scale(0.16 -0.16)">
       <use xlink:href="#DejaVuSans-30"/>
       <use xlink:href="#DejaVuSans-2e" x="63.623047"/>
       <use xlink:href="#DejaVuSans-32" x="95.410156"/>
      </g>
     </g>
    </g>
    <g id="ytick_3">
     <g id="line2d_25">
      <path d="M 57.6 182.1312 
L 360.8064 182.1312 
" clip-path="url(#p8c32205d12)" style="fill: none; stroke: #b0b0b0; stroke-width: 0.8; stroke-linecap: square"/>
     </g>
     <g id="line2d_26">
      <g>
       <use xlink:href="#m5c1d05f73e" x="57.6" y="182.1312" style="stroke: #000000; stroke-width: 0.8"/>
      </g>
     </g>
     <g id="text_8">
      <!-- 0.4 -->
      <g transform="translate(25.155 188.20995)scale(0.16 -0.16)">
       <use xlink:href="#DejaVuSans-30"/>
       <use xlink:href="#DejaVuSans-2e" x="63.623047"/>
       <use xlink:href="#DejaVuSans-34" x="95.410156"/>
      </g>
     </g>
    </g>
    <g id="ytick_4">
     <g id="line2d_27">
      <path d="M 57.6 123.7248 
L 360.8064 123.7248 
" clip-path="url(#p8c32205d12)" style="fill: none; stroke: #b0b0b0; stroke-width: 0.8; stroke-linecap: square"/>
     </g>
     <g id="line2d_28">
      <g>
       <use xlink:href="#m5c1d05f73e" x="57.6" y="123.7248" style="stroke: #000000; stroke-width: 0.8"/>
      </g>
     </g>
     <g id="text_9">
      <!-- 0.6 -->
      <g transform="translate(25.155 129.80355)scale(0.16 -0.16)">
       <use xlink:href="#DejaVuSans-30"/>
       <use xlink:href="#DejaVuSans-2e" x="63.623047"/>
       <use xlink:href="#DejaVuSans-36" x="95.410156"/>
      </g>
     </g>
    </g>
    <g id="ytick_5">
     <g id="line2d_29">
      <path d="M 57.6 65.3184 
L 360.8064 65.3184 
" clip-path="url(#p8c32205d12)" style="fill: none; stroke: #b0b0b0; stroke-width: 0.8; stroke-linecap: square"/>
     </g>
     <g id="line2d_30">
      <g>
       <use xlink:href="#m5c1d05f73e" x="57.6" y="65.3184" style="stroke: #000000; stroke-width: 0.8"/>
      </g>
     </g>
     <g id="text_10">
      <!-- 0.8 -->
      <g transform="translate(25.155 71.39715)scale(0.16 -0.16)">
       <defs>
        <path id="DejaVuSans-38" d="M 2034 2216 
Q 1584 2216 1326 1975 
Q 1069 1734 1069 1313 
Q 1069 891 1326 650 
Q 1584 409 2034 409 
Q 2484 409 2743 651 
Q 3003 894 3003 1313 
Q 3003 1734 2745 1975 
Q 2488 2216 2034 2216 
z
M 1403 2484 
Q 997 2584 770 2862 
Q 544 3141 544 3541 
Q 544 4100 942 4425 
Q 1341 4750 2034 4750 
Q 2731 4750 3128 4425 
Q 3525 4100 3525 3541 
Q 3525 3141 3298 2862 
Q 3072 2584 2669 2484 
Q 3125 2378 3379 2068 
Q 3634 1759 3634 1313 
Q 3634 634 3220 271 
Q 2806 -91 2034 -91 
Q 1263 -91 848 271 
Q 434 634 434 1313 
Q 434 1759 690 2068 
Q 947 2378 1403 2484 
z
M 1172 3481 
Q 1172 3119 1398 2916 
Q 1625 2713 2034 2713 
Q 2441 2713 2670 2916 
Q 2900 3119 2900 3481 
Q 2900 3844 2670 4047 
Q 2441 4250 2034 4250 
Q 1625 4250 1398 4047 
Q 1172 3844 1172 3481 
z
" transform="scale(0.015625)"/>
       </defs>
       <use xlink:href="#DejaVuSans-30"/>
       <use xlink:href="#DejaVuSans-2e" x="63.623047"/>
       <use xlink:href="#DejaVuSans-38" x="95.410156"/>
      </g>
     </g>
    </g>
    <g id="ytick_6">
     <g id="line2d_31">
      <path d="M 57.6 6.912 
L 360.8064 6.912 
" clip-path="url(#p8c32205d12)" style="fill: none; stroke: #b0b0b0; stroke-width: 0.8; stroke-linecap: square"/>
     </g>
     <g id="line2d_32">
      <g>
       <use xlink:href="#m5c1d05f73e" x="57.6" y="6.912" style="stroke: #000000; stroke-width: 0.8"/>
      </g>
     </g>
     <g id="text_11">
      <!-- 1.0 -->
      <g transform="translate(25.155 12.99075)scale(0.16 -0.16)">
       <use xlink:href="#DejaVuSans-31"/>
       <use xlink:href="#DejaVuSans-2e" x="63.623047"/>
       <use xlink:href="#DejaVuSans-30" x="95.410156"/>
      </g>
     </g>
    </g>
    <g id="text_12">
     <!-- Fraction of function,target pairs -->
     <g transform="translate(17.619531 287.313)rotate(-90)scale(0.17 -0.17)">
      <defs>
       <path id="DejaVuSans-46" d="M 628 4666 
L 3309 4666 
L 3309 4134 
L 1259 4134 
L 1259 2759 
L 3109 2759 
L 3109 2228 
L 1259 2228 
L 1259 0 
L 628 0 
L 628 4666 
z
" transform="scale(0.015625)"/>
       <path id="DejaVuSans-72" d="M 2631 2963 
Q 2534 3019 2420 3045 
Q 2306 3072 2169 3072 
Q 1681 3072 1420 2755 
Q 1159 2438 1159 1844 
L 1159 0 
L 581 0 
L 581 3500 
L 1159 3500 
L 1159 2956 
Q 1341 3275 1631 3429 
Q 1922 3584 2338 3584 
Q 2397 3584 2469 3576 
Q 2541 3569 2628 3553 
L 2631 2963 
z
" transform="scale(0.015625)"/>
       <path id="DejaVuSans-63" d="M 3122 3366 
L 3122 2828 
Q 2878 2963 2633 3030 
Q 2388 3097 2138 3097 
Q 1578 3097 1268 2742 
Q 959 2388 959 1747 
Q 959 1106 1268 751 
Q 1578 397 2138 397 
Q 2388 397 2633 464 
Q 2878 531 3122 666 
L 3122 134 
Q 2881 22 2623 -34 
Q 2366 -91 2075 -91 
Q 1284 -91 818 406 
Q 353 903 353 1747 
Q 353 2603 823 3093 
Q 1294 3584 2113 3584 
Q 2378 3584 2631 3529 
Q 2884 3475 3122 3366 
z
" transform="scale(0.015625)"/>
       <path id="DejaVuSans-74" d="M 1172 4494 
L 1172 3500 
L 2356 3500 
L 2356 3053 
L 1172 3053 
L 1172 1153 
Q 1172 725 1289 603 
Q 1406 481 1766 481 
L 2356 481 
L 2356 0 
L 1766 0 
Q 1100 0 847 248 
Q 594 497 594 1153 
L 594 3053 
L 172 3053 
L 172 3500 
L 594 3500 
L 594 4494 
L 1172 4494 
z
" transform="scale(0.015625)"/>
       <path id="DejaVuSans-75" d="M 544 1381 
L 544 3500 
L 1119 3500 
L 1119 1403 
Q 1119 906 1312 657 
Q 1506 409 1894 409 
Q 2359 409 2629 706 
Q 2900 1003 2900 1516 
L 2900 3500 
L 3475 3500 
L 3475 0 
L 2900 0 
L 2900 538 
Q 2691 219 2414 64 
Q 2138 -91 1772 -91 
Q 1169 -91 856 284 
Q 544 659 544 1381 
z
M 1991 3584 
L 1991 3584 
z
" transform="scale(0.015625)"/>
       <path id="DejaVuSans-2c" d="M 750 794 
L 1409 794 
L 1409 256 
L 897 -744 
L 494 -744 
L 750 256 
L 750 794 
z
" transform="scale(0.015625)"/>
       <path id="DejaVuSans-70" d="M 1159 525 
L 1159 -1331 
L 581 -1331 
L 581 3500 
L 1159 3500 
L 1159 2969 
Q 1341 3281 1617 3432 
Q 1894 3584 2278 3584 
Q 2916 3584 3314 3078 
Q 3713 2572 3713 1747 
Q 3713 922 3314 415 
Q 2916 -91 2278 -91 
Q 1894 -91 1617 61 
Q 1341 213 1159 525 
z
M 3116 1747 
Q 3116 2381 2855 2742 
Q 2594 3103 2138 3103 
Q 1681 3103 1420 2742 
Q 1159 2381 1159 1747 
Q 1159 1113 1420 752 
Q 1681 391 2138 391 
Q 2594 391 2855 752 
Q 3116 1113 3116 1747 
z
" transform="scale(0.015625)"/>
      </defs>
      <use xlink:href="#DejaVuSans-46"/>
      <use xlink:href="#DejaVuSans-72" x="50.269531"/>
      <use xlink:href="#DejaVuSans-61" x="91.382812"/>
      <use xlink:href="#DejaVuSans-63" x="152.662109"/>
      <use xlink:href="#DejaVuSans-74" x="207.642578"/>
      <use xlink:href="#DejaVuSans-69" x="246.851562"/>
      <use xlink:href="#DejaVuSans-6f" x="274.634766"/>
      <use xlink:href="#DejaVuSans-6e" x="335.816406"/>
      <use xlink:href="#DejaVuSans-20" x="399.195312"/>
      <use xlink:href="#DejaVuSans-6f" x="430.982422"/>
      <use xlink:href="#DejaVuSans-66" x="492.164062"/>
      <use xlink:href="#DejaVuSans-20" x="527.369141"/>
      <use xlink:href="#DejaVuSans-66" x="559.15625"/>
      <use xlink:href="#DejaVuSans-75" x="594.361328"/>
      <use xlink:href="#DejaVuSans-6e" x="657.740234"/>
      <use xlink:href="#DejaVuSans-63" x="721.119141"/>
      <use xlink:href="#DejaVuSans-74" x="776.099609"/>
      <use xlink:href="#DejaVuSans-69" x="815.308594"/>
      <use xlink:href="#DejaVuSans-6f" x="843.091797"/>
      <use xlink:href="#DejaVuSans-6e" x="904.273438"/>
      <use xlink:href="#DejaVuSans-2c" x="967.652344"/>
      <use xlink:href="#DejaVuSans-74" x="999.439453"/>
      <use xlink:href="#DejaVuSans-61" x="1038.648438"/>
      <use xlink:href="#DejaVuSans-72" x="1099.927734"/>
      <use xlink:href="#DejaVuSans-67" x="1139.291016"/>
      <use xlink:href="#DejaVuSans-65" x="1202.767578"/>
      <use xlink:href="#DejaVuSans-74" x="1264.291016"/>
      <use xlink:href="#DejaVuSans-20" x="1303.5"/>
      <use xlink:href="#DejaVuSans-70" x="1335.287109"/>
      <use xlink:href="#DejaVuSans-61" x="1398.763672"/>
      <use xlink:href="#DejaVuSans-69" x="1460.042969"/>
      <use xlink:href="#DejaVuSans-72" x="1487.826172"/>
      <use xlink:href="#DejaVuSans-73" x="1528.939453"/>
     </g>
    </g>
   </g>
   <g id="line2d_33">
    <defs>
     <path id="m0d5cc5818f" d="M 0 1.5 
C 0.397805 1.5 0.77937 1.341951 1.06066 1.06066 
C 1.341951 0.77937 1.5 0.397805 1.5 0 
C 1.5 -0.397805 1.341951 -0.77937 1.06066 -1.06066 
C 0.77937 -1.341951 0.397805 -1.5 0 -1.5 
C -0.397805 -1.5 -0.77937 -1.341951 -1.06066 -1.06066 
C -1.341951 -0.77937 -1.5 -0.397805 -1.5 0 
C -1.5 0.397805 -1.341951 0.77937 -1.06066 1.06066 
C -0.77937 1.341951 -0.397805 1.5 0 1.5 
z
" style="stroke: #f5deb3"/>
    </defs>
    <g>
     <use xlink:href="#m0d5cc5818f" x="270.900732" y="42.157241" style="fill: #f5deb3; stroke: #f5deb3"/>
     <use xlink:href="#m0d5cc5818f" x="270.900732" y="42.157241" style="fill: #f5deb3; stroke: #f5deb3"/>
    </g>
   </g>
   <g id="line2d_34">
    <defs>
     <path id="m18a1b77351" d="M 0 1.5 
C 0.397805 1.5 0.77937 1.341951 1.06066 1.06066 
C 1.341951 0.77937 1.5 0.397805 1.5 0 
C 1.5 -0.397805 1.341951 -0.77937 1.06066 -1.06066 
C 0.77937 -1.341951 0.397805 -1.5 0 -1.5 
C -0.397805 -1.5 -0.77937 -1.341951 -1.06066 -1.06066 
C -1.341951 -0.77937 -1.5 -0.397805 -1.5 0 
C -1.5 0.397805 -1.341951 0.77937 -1.06066 1.06066 
C -0.77937 1.341951 -0.397805 1.5 0 1.5 
z
" style="stroke: #000080"/>
    </defs>
    <g>
     <use xlink:href="#m18a1b77351" x="83.678349" y="272.635945" style="fill: #000080; stroke: #000080"/>
     <use xlink:href="#m18a1b77351" x="83.678349" y="272.635945" style="fill: #000080; stroke: #000080"/>
    </g>
   </g>
   <g id="line2d_35">
    <path d="M 44.560826 298.944 
L 44.560826 288.622179 
L 57.6 288.622179 
L 57.6 285.727034 
L 65.227428 285.727034 
L 65.227428 282.706014 
L 70.639174 282.706014 
L 70.639174 280.566124 
L 74.836851 280.566124 
L 74.836851 278.929738 
L 78.266603 278.929738 
L 78.266603 277.0416 
L 81.166416 277.0416 
L 81.166416 274.90171 
L 83.678349 274.90171 
L 83.678349 272.635945 
L 360.8064 272.635945 
" style="fill: none; stroke: #000080; stroke-width: 1.5; stroke-linecap: square"/>
   </g>
   <g id="line2d_36">
    <defs>
     <path id="m5384054288" d="M 0 6 
C 1.591219 6 3.117479 5.367802 4.242641 4.242641 
C 5.367802 3.117479 6 1.591219 6 0 
C 6 -1.591219 5.367802 -3.117479 4.242641 -4.242641 
C 3.117479 -5.367802 1.591219 -6 0 -6 
C -1.591219 -6 -3.117479 -5.367802 -4.242641 -4.242641 
C -5.367802 -3.117479 -6 -1.591219 -6 0 
C -6 1.591219 -5.367802 3.117479 -4.242641 4.242641 
C -3.117479 5.367802 -1.591219 6 0 6 
z
" style="stroke: #000080; stroke-width: 1.5"/>
    </defs>
    <g>
     <use xlink:href="#m5384054288" x="83.678349" y="274.90171" style="fill-opacity: 0; stroke: #000080; stroke-width: 1.5"/>
     <use xlink:href="#m5384054288" x="83.678349" y="274.90171" style="fill-opacity: 0; stroke: #000080; stroke-width: 1.5"/>
     <use xlink:href="#m5384054288" x="83.678349" y="272.635945" style="fill-opacity: 0; stroke: #000080; stroke-width: 1.5"/>
     <use xlink:href="#m5384054288" x="83.678349" y="272.635945" style="fill-opacity: 0; stroke: #000080; stroke-width: 1.5"/>
     <use xlink:href="#m5384054288" x="83.678349" y="272.635945" style="fill-opacity: 0; stroke: #000080; stroke-width: 1.5"/>
     <use xlink:href="#m5384054288" x="360.8064" y="272.635945" style="fill-opacity: 0; stroke: #000080; stroke-width: 1.5"/>
    </g>
   </g>
   <g id="line2d_37">
    <path style="fill: none; stroke: #000080; stroke-width: 1.5; stroke-linecap: square"/>
    <g/>
   </g>
   <g id="line2d_38">
    <path d="M 83.678349 272.635945 
" clip-path="url(#p8c32205d12)" style="fill: none; stroke: #000080; stroke-width: 1.5; stroke-linecap: square"/>
    <defs>
     <path id="mf922d7d2ff" d="M -12 12 
L 12 -12 
M -12 -12 
L 12 12 
" style="stroke: #000080"/>
    </defs>
    <g clip-path="url(#p8c32205d12)">
     <use xlink:href="#mf922d7d2ff" x="83.678349" y="272.635945" style="fill: #000080; stroke: #000080"/>
    </g>
   </g>
   <g id="line2d_39">
    <defs>
     <path id="mcc14c5547a" d="M 0 1.5 
C 0.397805 1.5 0.77937 1.341951 1.06066 1.06066 
C 1.341951 0.77937 1.5 0.397805 1.5 0 
C 1.5 -0.397805 1.341951 -0.77937 1.06066 -1.06066 
C 0.77937 -1.341951 0.397805 -1.5 0 -1.5 
C -0.397805 -1.5 -0.77937 -1.341951 -1.06066 -1.06066 
C -1.341951 -0.77937 -1.5 -0.397805 -1.5 0 
C -1.5 0.397805 -1.341951 0.77937 -1.06066 1.06066 
C -0.77937 1.341951 -0.397805 1.5 0 1.5 
z
" style="stroke: #ff00ff"/>
    </defs>
    <g>
     <use xlink:href="#mcc14c5547a" x="273.325495" y="63.304386" style="fill: #ff00ff; stroke: #ff00ff"/>
     <use xlink:href="#mcc14c5547a" x="273.325495" y="63.304386" style="fill: #ff00ff; stroke: #ff00ff"/>
    </g>
   </g>
   <g id="line2d_40">
    <path d="M 44.560826 298.944 
L 44.560826 288.622179 
L 57.6 288.622179 
L 57.6 287.237545 
L 65.227428 287.237545 
L 65.227428 286.104662 
L 70.639174 286.104662 
L 70.639174 285.727034 
L 74.836851 285.727034 
L 74.836851 280.943752 
L 78.266603 280.943752 
L 78.266603 278.174483 
L 81.166416 278.174483 
L 81.166416 276.160469 
L 83.678349 276.160469 
L 83.678349 274.775834 
L 85.894031 274.775834 
L 85.894031 272.887697 
L 87.876026 272.887697 
L 87.876026 272.006566 
L 89.668958 272.006566 
L 89.668958 270.747807 
L 91.305777 270.747807 
L 91.305777 268.859669 
L 92.811505 268.859669 
L 92.811505 267.852662 
L 94.205591 267.852662 
L 94.205591 267.475034 
L 95.503454 267.475034 
L 95.503454 267.097407 
L 96.717523 267.097407 
L 96.717523 266.216276 
L 97.857967 266.216276 
L 97.857967 265.461021 
L 98.933205 265.461021 
L 98.933205 264.202262 
L 101.833019 264.202262 
L 101.833019 263.572883 
L 102.708132 263.572883 
L 102.708132 263.069379 
L 103.544339 263.069379 
L 103.544339 262.188248 
L 104.344952 262.188248 
L 104.344952 261.558869 
L 105.112877 261.558869 
L 105.112877 261.181241 
L 105.850679 261.181241 
L 105.850679 261.055366 
L 106.560633 261.055366 
L 106.560633 260.425986 
L 107.244765 260.425986 
L 107.244765 260.174234 
L 107.904887 260.174234 
L 107.904887 259.670731 
L 108.542628 259.670731 
L 108.542628 259.544855 
L 109.159456 259.544855 
L 109.159456 259.167228 
L 109.756698 259.167228 
L 109.756698 259.041352 
L 111.442442 259.041352 
L 111.442442 258.7896 
L 111.97238 258.7896 
L 111.97238 258.411972 
L 112.487797 258.411972 
L 112.487797 258.286097 
L 112.989468 258.286097 
L 112.989468 257.404966 
L 113.478107 257.404966 
L 113.478107 257.153214 
L 115.314838 257.153214 
L 115.314838 256.775586 
L 116.988079 256.775586 
L 116.988079 256.272083 
L 117.772007 256.272083 
L 117.772007 256.146207 
L 118.152051 256.146207 
L 118.152051 255.894455 
L 119.599808 255.894455 
L 119.599808 255.390952 
L 119.944983 255.390952 
L 119.944983 254.509821 
L 120.28394 254.509821 
L 120.28394 254.132193 
L 121.892744 254.132193 
L 121.892744 253.62869 
L 122.19863 253.62869 
L 122.19863 253.502814 
L 123.374735 253.502814 
L 123.374735 253.251062 
L 124.210942 253.251062 
L 124.210942 252.747559 
L 124.481616 252.747559 
L 124.481616 252.495807 
L 124.748451 252.495807 
L 124.748451 251.992303 
L 125.011554 251.992303 
L 125.011554 251.866428 
L 125.271028 251.866428 
L 125.271028 251.614676 
L 125.526971 251.614676 
L 125.526971 251.111172 
L 125.779479 251.111172 
L 125.779479 250.859421 
L 126.028642 250.859421 
L 126.028642 250.607669 
L 126.517282 250.607669 
L 126.517282 250.355917 
L 126.756923 250.355917 
L 126.756923 250.104166 
L 126.993549 250.104166 
L 126.993549 249.97829 
L 127.227236 249.97829 
L 127.227236 249.474786 
L 127.458055 249.474786 
L 127.458055 248.971283 
L 127.686077 248.971283 
L 127.686077 248.845407 
L 127.911368 248.845407 
L 127.911368 247.964276 
L 128.999044 247.964276 
L 128.999044 247.8384 
L 129.209231 247.8384 
L 129.209231 247.712524 
L 129.417095 247.712524 
L 129.417095 246.579641 
L 129.622688 246.579641 
L 129.622688 246.32789 
L 129.826058 246.32789 
L 129.826058 246.076138 
L 130.027253 246.076138 
L 130.027253 245.950262 
L 130.811181 245.950262 
L 130.811181 245.572634 
L 131.002163 245.572634 
L 131.002163 244.943255 
L 131.191226 244.943255 
L 131.191226 243.936248 
L 131.378407 243.936248 
L 131.378407 243.558621 
L 131.563744 243.558621 
L 131.563744 243.180993 
L 131.747272 243.180993 
L 131.747272 242.929241 
L 131.929028 242.929241 
L 131.929028 242.803366 
L 132.287354 242.803366 
L 132.287354 242.425738 
L 132.46399 242.425738 
L 132.46399 241.796359 
L 132.638982 241.796359 
L 132.638982 241.670483 
L 132.984158 241.670483 
L 132.984158 241.166979 
L 133.154399 241.166979 
L 133.154399 241.041103 
L 133.490329 241.041103 
L 133.490329 240.915228 
L 133.656071 240.915228 
L 133.656071 240.789352 
L 133.820365 240.789352 
L 133.820365 240.411724 
L 133.983236 240.411724 
L 133.983236 239.278841 
L 134.14471 239.278841 
L 134.14471 239.152966 
L 134.463557 239.152966 
L 134.463557 238.775338 
L 134.620977 238.775338 
L 134.620977 238.39771 
L 134.77709 238.39771 
L 134.77709 238.020083 
L 134.931919 238.020083 
L 134.931919 237.516579 
L 135.085483 237.516579 
L 135.085483 237.138952 
L 135.237805 237.138952 
L 135.237805 236.761324 
L 135.538796 236.761324 
L 135.538796 236.635448 
L 135.687504 236.635448 
L 135.687504 236.383697 
L 135.835047 236.383697 
L 135.835047 235.754317 
L 135.981441 235.754317 
L 135.981441 235.628441 
L 136.126705 235.628441 
L 136.126705 235.502566 
L 136.696795 235.502566 
L 136.696795 235.37669 
L 136.97549 235.37669 
L 136.97549 235.124938 
L 137.113304 235.124938 
L 137.113304 234.495559 
L 137.250116 234.495559 
L 137.250116 233.992055 
L 137.520791 233.992055 
L 137.520791 233.740303 
L 138.050729 233.740303 
L 138.050729 233.488552 
L 138.180913 233.488552 
L 138.180913 233.2368 
L 138.566146 233.2368 
L 138.566146 233.110924 
L 138.818654 233.110924 
L 138.818654 232.859172 
L 139.313723 232.859172 
L 139.313723 232.733297 
L 139.435481 232.733297 
L 139.435481 232.481545 
L 139.676658 232.481545 
L 139.676658 231.852166 
L 139.796097 231.852166 
L 139.796097 231.474538 
L 139.914782 231.474538 
L 139.914782 231.09691 
L 140.032723 231.09691 
L 140.032723 230.971034 
L 140.14993 230.971034 
L 140.14993 230.593407 
L 140.26641 230.593407 
L 140.26641 230.341655 
L 140.49723 230.341655 
L 140.49723 230.215779 
L 140.950542 230.215779 
L 140.950542 230.089903 
L 141.283499 230.089903 
L 141.393187 229.712276 
L 141.50224 229.712276 
L 141.50224 229.334648 
L 142.038218 229.334648 
L 142.143605 228.327641 
L 142.352625 228.327641 
L 142.45627 227.950014 
L 142.559347 227.950014 
L 142.559347 227.824138 
L 142.865233 227.824138 
L 142.865233 226.943007 
L 143.066428 226.943007 
L 143.166224 226.691255 
L 143.364242 226.691255 
L 143.462475 226.313628 
L 143.560197 226.313628 
L 143.657415 225.306621 
L 143.754133 225.306621 
L 143.754133 225.180745 
L 144.136106 225.180745 
L 144.2304 224.42549 
L 144.324223 224.42549 
L 144.417581 224.047862 
L 144.510478 224.047862 
L 144.602918 223.79611 
L 144.786447 223.79611 
L 144.877544 223.292607 
L 144.968202 223.292607 
L 144.968202 223.166731 
L 145.237585 223.166731 
L 145.237585 223.040855 
L 145.503164 223.040855 
L 145.590864 222.789103 
L 145.851536 222.789103 
L 145.93763 222.159724 
L 146.023332 222.159724 
L 146.023332 221.782097 
L 146.27812 221.782097 
L 146.27812 221.404469 
L 146.529503 221.404469 
L 146.529503 221.278593 
L 147.022411 221.278593 
L 147.103321 220.14571 
L 147.423525 220.14571 
L 147.423525 219.768083 
L 147.73837 219.768083 
L 147.816265 219.390455 
L 147.893838 219.390455 
L 147.971093 219.012828 
L 148.048032 219.012828 
L 148.048032 218.886952 
L 148.352679 218.886952 
L 148.428077 218.257572 
L 148.726679 218.257572 
L 148.726679 218.005821 
L 148.947561 218.005821 
L 148.947561 217.376441 
L 149.238092 217.376441 
L 149.238092 216.49531 
L 149.453084 216.49531 
L 149.453084 216.243559 
L 149.945377 216.243559 
L 149.945377 215.865931 
L 150.083698 215.865931 
L 150.083698 215.740055 
L 150.357325 215.740055 
L 150.425115 215.362428 
L 150.559965 215.362428 
L 150.62703 214.9848 
L 150.693856 214.9848 
L 150.693856 213.726041 
L 150.958812 213.726041 
L 151.024471 213.222538 
L 151.155108 213.222538 
L 151.155108 212.970786 
L 151.477784 212.970786 
L 151.477784 212.719034 
L 152.106991 212.719034 
L 152.16877 212.467283 
L 152.291722 212.467283 
L 152.291722 212.215531 
L 152.595631 212.215531 
L 152.595631 211.837903 
L 152.715833 211.837903 
L 152.715833 211.712028 
L 152.835271 211.712028 
L 152.894708 211.460276 
L 153.071898 211.460276 
L 153.130592 211.082648 
L 153.305585 211.082648 
L 153.305585 210.327393 
L 153.821002 210.327393 
L 153.877408 209.949766 
L 153.933646 209.949766 
L 153.989717 209.572138 
L 154.156931 209.572138 
L 154.156931 209.320386 
L 154.595705 209.320386 
L 154.703817 208.565131 
L 154.811312 208.565131 
L 154.811312 208.439255 
L 155.024477 208.439255 
L 155.077392 208.187503 
L 155.391799 208.187503 
L 155.391799 208.061628 
L 155.649849 208.061628 
L 155.649849 207.935752 
L 155.85377 207.935752 
L 155.85377 207.684 
L 156.304668 207.684 
L 156.403417 207.306372 
L 156.696589 207.306372 
L 156.696589 207.054621 
L 157.316545 207.054621 
L 157.316545 206.928745 
L 157.825621 206.928745 
L 157.916719 206.551117 
L 158.052543 206.551117 
L 158.0976 206.299366 
L 158.58624 206.299366 
L 158.58624 206.17349 
L 158.847515 206.17349 
L 158.847515 206.047614 
L 158.976805 206.047614 
L 158.976805 205.795862 
L 159.443406 205.795862 
L 159.527013 205.54411 
L 159.651731 205.54411 
L 159.693121 205.292359 
L 159.816746 205.292359 
L 159.816746 204.914731 
L 159.939564 204.914731 
L 160.020999 204.411228 
L 160.343261 204.411228 
L 160.343261 204.0336 
L 160.699326 204.0336 
L 160.738476 203.781848 
L 161.163832 203.781848 
L 161.240147 203.152469 
L 162.096211 203.152469 
L 162.096211 202.900717 
L 162.456597 202.900717 
L 162.456597 202.397214 
L 162.880139 202.397214 
L 162.915008 202.019586 
L 163.362513 202.019586 
L 163.430425 201.641959 
L 164.030845 201.641959 
L 164.030845 201.516083 
L 164.291668 201.516083 
L 164.291668 201.264331 
L 165.053116 201.264331 
L 165.053116 201.012579 
L 166.111072 201.012579 
L 166.111072 200.886703 
L 166.286609 200.886703 
L 166.373767 200.634952 
L 166.431649 200.634952 
L 166.431649 200.509076 
L 166.546881 200.509076 
L 166.604233 200.131448 
L 167.084795 200.131448 
L 167.16834 199.376193 
L 167.904005 199.376193 
L 167.904005 199.124441 
L 168.195663 199.124441 
L 168.195663 198.746814 
L 168.534619 198.746814 
L 168.586228 198.495062 
L 168.714635 198.495062 
L 168.79126 198.117434 
L 169.094679 198.117434 
L 169.094679 197.991559 
L 169.540824 197.991559 
L 169.540824 197.865683 
L 169.687218 197.865683 
L 169.687218 197.739807 
L 170.024438 197.739807 
L 170.024438 197.488055 
L 170.472634 197.488055 
L 170.472634 197.236303 
L 170.635104 197.236303 
L 170.6582 196.606924 
L 171.069148 196.606924 
L 171.069148 196.481048 
L 171.248949 196.481048 
L 171.248949 196.355172 
L 171.778266 196.355172 
L 171.778266 196.103421 
L 172.208263 196.103421 
L 172.229507 195.725793 
L 172.356469 195.725793 
L 172.377547 194.970538 
L 172.773594 194.970538 
L 172.835373 194.718786 
L 172.91743 194.718786 
L 172.91743 194.341159 
L 173.060174 194.341159 
L 173.060174 194.089407 
L 173.221995 194.089407 
L 173.221995 193.963531 
L 173.48202 193.963531 
L 173.48202 193.711779 
L 173.659955 193.711779 
L 173.7385 192.830648 
L 173.77765 192.830648 
L 173.836223 192.453021 
L 174.030158 192.453021 
L 174.126381 192.201269 
L 174.336355 192.201269 
L 174.393216 191.949517 
L 174.712223 191.949517 
L 174.786503 191.57189 
L 175.02591 191.57189 
L 175.02591 191.446014 
L 175.316441 191.446014 
L 175.316441 191.194262 
L 175.460042 191.194262 
L 175.567027 190.564883 
L 175.584799 190.564883 
L 175.691079 190.061379 
L 175.831859 190.061379 
L 175.936756 189.557876 
L 176.023726 189.557876 
L 176.127562 189.180248 
L 176.196469 189.180248 
L 176.230828 188.802621 
L 176.316452 188.802621 
L 176.316452 188.550869 
L 176.554146 188.550869 
L 176.638314 188.299117 
L 176.888582 188.299117 
L 176.987765 187.92149 
L 177.168252 187.92149 
L 177.184574 187.543862 
L 177.282212 187.543862 
L 177.330842 187.29211 
L 177.475981 187.29211 
L 177.556133 186.788607 
L 177.588098 186.788607 
L 177.683669 186.285103 
L 177.841883 186.285103 
L 177.920494 185.7816 
L 178.014396 185.7816 
L 178.09229 185.403972 
L 178.200804 185.403972 
L 178.308695 184.774593 
L 178.67398 184.774593 
L 178.734177 184.396966 
L 178.853996 184.396966 
L 178.958215 183.767586 
L 179.002704 183.767586 
L 179.106105 183.389959 
L 179.135545 183.389959 
L 179.223586 183.012331 
L 179.340338 183.012331 
L 179.340338 182.634703 
L 179.743355 182.634703 
L 179.842775 182.005324 
L 179.941672 182.005324 
L 179.941672 181.879448 
L 180.110009 181.879448 
L 180.207514 181.627697 
L 180.23528 181.627697 
L 180.263006 181.375945 
L 180.401022 181.375945 
L 180.510711 180.494814 
L 180.524377 180.494814 
L 180.606166 179.613683 
L 180.876258 179.613683 
L 180.943179 178.984303 
L 181.036471 178.984303 
L 181.142526 178.4808 
L 181.182144 178.4808 
L 181.261129 178.229048 
L 181.326697 178.229048 
L 181.41811 176.97029 
L 181.547935 176.97029 
L 181.612513 176.718538 
L 181.792161 176.718538 
L 181.792161 176.466786 
L 181.919439 176.466786 
L 181.919439 176.34091 
L 182.033257 176.34091 
L 182.133854 175.459779 
L 182.258848 175.459779 
L 182.271302 175.082152 
L 182.432456 175.082152 
L 182.481765 174.8304 
L 182.555488 174.8304 
L 182.579998 174.452772 
L 182.774938 174.452772 
L 182.811266 173.949269 
L 182.919829 173.949269 
L 182.991858 173.571641 
L 183.170733 173.571641 
L 183.24181 172.564634 
L 183.312619 172.564634 
L 183.371423 172.312883 
L 183.535105 172.312883 
L 183.535105 172.061131 
L 183.697374 172.061131 
L 183.697374 171.935255 
L 183.881127 171.935255 
L 183.881127 171.809379 
L 184.029116 171.809379 
L 184.097028 171.18 
L 184.243334 171.18 
L 184.299304 170.928248 
L 184.388512 170.928248 
L 184.388512 170.802372 
L 184.543614 170.802372 
L 184.598699 170.550621 
L 184.893403 170.550621 
L 184.925864 170.047117 
L 185.16222 170.047117 
L 185.194222 169.543614 
L 185.289901 169.543614 
L 185.385096 168.914234 
L 185.448293 168.914234 
L 185.532226 168.662483 
L 185.750786 168.662483 
L 185.750786 168.536607 
L 185.925875 168.536607 
L 186.007709 168.158979 
L 186.251096 168.158979 
L 186.251096 168.033103 
L 186.491374 168.033103 
L 186.600485 167.403724 
L 186.708966 167.403724 
L 186.79726 166.648469 
L 187.001683 166.648469 
L 187.011362 166.270841 
L 187.251738 166.270841 
L 187.337526 165.263834 
L 187.385018 165.263834 
L 187.394502 164.886207 
L 187.60195 164.886207 
L 187.695494 164.634455 
L 187.797857 164.634455 
L 187.899666 164.256828 
L 188.02845 164.256828 
L 188.046776 164.005076 
L 188.238128 164.005076 
L 188.319544 163.627448 
L 188.364623 163.627448 
L 188.400609 163.123945 
L 188.490273 163.123945 
L 188.490273 162.998069 
L 188.66833 162.998069 
L 188.75673 162.494566 
L 189.054221 162.494566 
L 189.054221 162.242814 
L 189.175363 162.242814 
L 189.175363 161.991062 
L 189.29573 161.991062 
L 189.364167 161.487559 
L 189.423846 161.487559 
L 189.483336 161.109931 
L 189.601754 161.109931 
L 189.601754 160.858179 
L 189.736183 160.858179 
L 189.744553 160.480552 
L 189.936042 160.480552 
L 189.977413 160.102924 
L 190.174739 160.102924 
L 190.264493 159.725297 
L 190.370016 159.725297 
L 190.394284 159.473545 
L 190.515156 159.473545 
L 190.619286 158.592414 
L 190.691041 158.592414 
L 190.802117 158.214786 
L 190.849521 158.214786 
L 190.849521 158.08891 
L 191.030139 158.08891 
L 191.10813 157.459531 
L 191.363232 157.459531 
L 191.455146 157.207779 
L 191.485684 157.207779 
L 191.500934 156.830152 
L 191.667879 156.830152 
L 191.667879 156.5784 
L 191.878235 156.5784 
L 191.982536 155.823145 
L 191.989965 155.823145 
L 191.989965 155.697269 
L 192.51722 155.697269 
L 192.62523 155.445517 
L 192.632408 155.445517 
L 192.632408 155.319641 
L 193.121231 155.319641 
L 193.218882 154.690262 
L 193.267517 154.690262 
L 193.267517 154.564386 
L 193.42644 154.564386 
L 193.501975 154.186759 
L 193.787622 154.186759 
L 193.848272 153.809131 
L 194.17509 153.809131 
L 194.208122 153.431503 
L 194.287162 153.431503 
L 194.339671 153.179752 
L 194.463797 153.179752 
L 194.548256 152.676248 
L 194.58711 152.676248 
L 194.58711 152.424497 
L 194.914164 152.424497 
L 194.958613 152.046869 
L 195.335359 152.046869 
L 195.335359 151.920993 
L 195.465458 151.920993 
L 195.527095 151.41749 
L 195.710803 151.41749 
L 195.735162 151.039862 
L 196.001054 151.039862 
L 196.001054 150.78811 
L 196.186156 150.78811 
L 196.26324 150.284607 
L 196.445792 150.284607 
L 196.445792 150.032855 
L 196.649793 150.032855 
L 196.753852 149.655228 
L 197.19824 149.655228 
L 197.282509 149.2776 
L 197.488772 149.2776 
L 197.533073 149.025848 
L 197.626869 149.025848 
L 197.648871 148.522345 
L 198.013627 148.522345 
L 198.013627 148.396469 
L 198.665381 148.396469 
L 198.696603 148.144717 
L 198.851943 148.144717 
L 198.908581 147.892966 
L 198.98042 147.892966 
L 198.98042 147.76709 
L 199.179109 147.76709 
L 199.179109 147.515338 
L 199.300343 147.515338 
L 199.300343 147.389462 
L 199.515621 147.389462 
L 199.515621 147.263586 
L 199.674244 147.263586 
L 199.674244 147.13771 
L 199.865774 147.13771 
L 199.895068 146.760083 
L 199.992386 146.760083 
L 199.992386 146.634207 
L 200.594178 146.634207 
L 200.594178 146.508331 
L 200.743997 146.508331 
L 200.743997 146.382455 
L 201.236462 146.382455 
L 201.318054 146.130703 
L 201.367743 146.130703 
L 201.367743 146.004828 
L 201.676466 146.004828 
L 201.787083 145.753076 
L 201.975837 145.753076 
L 202.006386 145.501324 
L 202.266218 145.501324 
L 202.28771 145.249572 
L 202.484288 145.249572 
L 202.518267 144.997821 
L 202.737646 144.997821 
L 202.792094 144.620193 
L 203.11962 144.620193 
L 203.193455 143.990814 
L 203.485932 143.990814 
L 203.49802 143.613186 
L 204.112249 143.613186 
L 204.112249 143.361434 
L 204.375514 143.361434 
L 204.375514 143.235559 
L 204.532485 143.235559 
L 204.642728 142.983807 
L 204.718383 142.983807 
L 204.718383 142.857931 
L 205.685932 142.857931 
L 205.685932 142.732055 
L 205.882129 142.732055 
L 205.94236 142.480303 
L 206.072788 142.480303 
L 206.072788 142.228552 
L 206.427733 142.228552 
L 206.43118 141.9768 
L 206.660697 141.9768 
L 206.755791 141.347421 
L 207.194417 141.347421 
L 207.21757 140.969793 
L 207.427941 140.969793 
L 207.427941 140.843917 
L 207.597152 140.843917 
L 207.674739 140.592166 
L 207.816155 140.592166 
L 207.851344 140.088662 
L 207.988272 140.088662 
L 208.035804 139.83691 
L 208.302906 139.83691 
L 208.302906 139.585159 
L 208.498457 139.585159 
L 208.498457 139.459283 
L 208.643032 139.459283 
L 208.753024 139.081655 
L 208.801703 139.081655 
L 208.801703 138.955779 
L 209.317202 138.955779 
L 209.361496 138.578152 
L 209.882174 138.578152 
L 209.882174 138.452276 
L 210.079096 138.452276 
L 210.186671 137.697021 
L 210.20078 137.697021 
L 210.21206 137.445269 
L 210.416733 137.445269 
L 210.416733 137.193517 
L 210.638505 137.193517 
L 210.668795 136.81589 
L 210.79767 136.81589 
L 210.871307 136.438262 
L 210.960919 136.438262 
L 210.960919 136.312386 
L 211.112016 136.312386 
L 211.112016 136.060634 
L 211.320471 136.060634 
L 211.421196 135.305379 
L 211.492437 135.305379 
L 211.508231 134.927752 
L 211.69153 134.927752 
L 211.714968 134.676 
L 211.878221 134.676 
L 211.880801 134.298372 
L 212.119201 134.298372 
L 212.187852 133.668993 
L 212.357133 133.668993 
L 212.422416 133.417241 
L 212.641708 133.417241 
L 212.641708 133.16549 
L 212.865819 133.16549 
L 212.865819 132.913738 
L 213.147682 132.913738 
L 213.243905 132.410234 
L 213.294225 132.410234 
L 213.294225 132.284359 
L 213.487068 132.284359 
L 213.487068 132.032607 
L 213.638052 132.032607 
L 213.67561 131.780855 
L 213.952615 131.780855 
L 214.058608 131.151476 
L 214.093043 131.151476 
L 214.093043 130.899724 
L 214.391122 130.899724 
L 214.483451 130.522097 
L 214.595438 130.522097 
L 214.595438 130.396221 
L 214.7843 130.396221 
L 214.788721 130.144469 
L 214.896713 130.144469 
L 214.918676 129.892717 
L 215.21918 129.892717 
L 215.21918 129.766841 
L 215.382647 129.766841 
L 215.478772 129.263338 
L 215.906398 129.263338 
L 215.906398 129.137462 
L 216.055762 129.137462 
L 216.055762 128.88571 
L 216.197799 128.88571 
L 216.234676 128.256331 
L 216.3347 128.256331 
L 216.405821 127.626952 
L 216.51301 127.626952 
L 216.51301 127.501076 
L 216.659654 127.501076 
L 216.709613 126.997572 
L 216.914056 126.997572 
L 217.004648 126.745821 
L 217.153372 126.745821 
L 217.153372 126.619945 
L 217.39738 126.619945 
L 217.481849 126.368193 
L 217.72355 126.368193 
L 217.787734 125.990566 
L 217.909833 125.990566 
L 217.909833 125.86469 
L 218.049738 125.86469 
L 218.14798 125.361186 
L 218.177538 125.361186 
L 218.227311 125.109434 
L 218.381325 125.109434 
L 218.454224 124.731807 
L 218.802045 124.731807 
L 218.899999 124.228303 
L 219.025699 124.228303 
L 219.073281 123.850676 
L 219.264156 123.850676 
L 219.264156 123.7248 
L 219.403026 123.7248 
L 219.441036 123.473048 
L 219.552892 123.473048 
L 219.552892 123.347172 
L 219.718588 123.347172 
L 219.718588 123.221297 
L 219.876093 123.221297 
L 219.965268 122.969545 
L 220.012208 122.969545 
L 220.027272 122.591917 
L 220.312854 122.591917 
L 220.373725 121.710786 
L 220.489983 121.710786 
L 220.597412 120.703779 
L 220.621743 120.703779 
L 220.717139 119.948524 
L 220.744536 119.948524 
L 220.847323 119.319145 
L 220.900104 119.319145 
L 220.935209 118.815641 
L 221.131858 118.815641 
L 221.221568 118.186262 
L 221.384156 118.186262 
L 221.486612 117.431007 
L 221.508274 117.431007 
L 221.591593 117.179255 
L 221.643864 117.179255 
L 221.645399 116.801628 
L 221.802858 116.801628 
L 221.909121 116.172248 
L 221.933325 116.172248 
L 221.939372 115.542869 
L 222.05839 115.542869 
L 222.163223 115.039366 
L 222.194559 115.039366 
L 222.260048 114.787614 
L 222.320867 114.787614 
L 222.400671 114.409986 
L 222.617673 114.409986 
L 222.638071 114.032359 
L 222.830759 114.032359 
L 222.925651 113.151228 
L 222.962902 113.151228 
L 223.005792 112.647724 
L 223.077059 112.647724 
L 223.115431 112.270097 
L 223.241365 112.270097 
L 223.31877 111.388966 
L 223.360857 111.388966 
L 223.360857 111.26309 
L 223.510206 111.26309 
L 223.542155 111.011338 
L 223.695584 111.011338 
L 223.771146 110.759586 
L 223.884605 110.759586 
L 223.892781 110.507834 
L 224.160594 110.507834 
L 224.219594 110.130207 
L 224.327726 110.130207 
L 224.327726 110.004331 
L 224.465657 110.004331 
L 224.507894 109.626703 
L 224.615697 109.626703 
L 224.720279 108.745572 
L 224.73331 108.745572 
L 224.73331 108.619697 
L 225.095864 108.619697 
L 225.115022 108.242069 
L 225.335844 108.242069 
L 225.446545 107.864441 
L 225.740248 107.864441 
L 225.82526 107.61269 
L 225.853512 107.61269 
L 225.963657 107.235062 
L 226.011187 107.235062 
L 226.011187 107.109186 
L 226.443158 107.109186 
L 226.535715 106.731559 
L 226.846812 106.731559 
L 226.846812 106.479807 
L 227.019497 106.479807 
L 227.019497 106.353931 
L 227.50577 106.353931 
L 227.555171 105.976303 
L 227.762579 105.976303 
L 227.848881 105.4728 
L 227.909498 105.4728 
L 227.912799 105.221048 
L 228.154375 105.221048 
L 228.256194 104.717545 
L 228.302588 104.717545 
L 228.302588 104.591669 
L 228.510488 104.591669 
L 228.555196 104.214041 
L 228.735081 104.214041 
L 228.746661 103.96229 
L 228.932029 103.96229 
L 228.932029 103.836414 
L 229.595493 103.836414 
L 229.595493 103.710538 
L 229.806574 103.710538 
L 229.806574 103.584662 
L 229.930514 103.584662 
L 230.018265 103.081159 
L 230.157429 103.081159 
L 230.157429 102.955283 
L 230.281026 102.955283 
L 230.281026 102.829407 
L 230.442326 102.829407 
L 230.465393 102.451779 
L 230.997626 102.451779 
L 230.997626 102.325903 
L 231.297757 102.325903 
L 231.394918 101.948276 
L 231.40954 101.948276 
L 231.47611 101.696524 
L 231.650985 101.696524 
L 231.650985 101.570648 
L 231.846576 101.570648 
L 231.846576 101.444772 
L 231.963139 101.444772 
L 231.963139 101.193021 
L 232.074576 101.193021 
L 232.074576 101.067145 
L 232.272816 101.067145 
L 232.304202 100.689517 
L 232.447388 100.689517 
L 232.447388 100.437766 
L 232.820584 100.437766 
L 232.914424 99.934262 
L 233.06561 99.934262 
L 233.142416 99.430759 
L 233.238813 99.430759 
L 233.334719 98.801379 
L 233.697354 98.801379 
L 233.697354 98.549628 
L 234.309354 98.549628 
L 234.318748 98.172 
L 234.464535 98.172 
L 234.464535 98.046124 
L 234.586839 98.046124 
L 234.586839 97.920248 
L 234.70682 97.920248 
L 234.812323 97.542621 
L 234.818421 97.542621 
L 234.848881 97.290869 
L 234.960401 97.290869 
L 234.966451 96.913241 
L 235.128326 96.913241 
L 235.128326 96.66149 
L 235.354116 96.66149 
L 235.42214 96.03211 
L 235.721608 96.03211 
L 235.792661 95.654483 
L 235.849022 95.654483 
L 235.849022 95.528607 
L 236.002076 95.528607 
L 236.070654 95.276855 
L 236.251607 95.276855 
L 236.321393 94.899228 
L 236.469271 94.899228 
L 236.469271 94.773352 
L 236.876019 94.773352 
L 236.876019 94.647476 
L 237.014192 94.647476 
L 237.014192 94.5216 
L 237.248725 94.5216 
L 237.355582 94.269848 
L 237.464485 94.269848 
L 237.547069 94.018097 
L 237.805675 94.018097 
L 237.805675 93.766345 
L 238.195639 93.766345 
L 238.195639 93.640469 
L 238.33713 93.640469 
L 238.433595 93.262841 
L 238.618205 93.262841 
L 238.618205 93.136966 
L 238.93376 93.136966 
L 238.93376 92.885214 
L 239.064354 92.885214 
L 239.097772 92.507586 
L 239.233264 92.507586 
L 239.285026 92.004083 
L 239.374369 92.004083 
L 239.374369 91.878207 
L 239.561272 91.878207 
L 239.561272 91.752331 
L 239.938888 91.752331 
L 240.037317 91.374703 
L 240.165084 91.374703 
L 240.232073 90.745324 
L 240.346034 90.745324 
L 240.346034 90.493572 
L 240.476242 90.493572 
L 240.510624 90.115945 
L 240.603873 90.115945 
L 240.603873 89.990069 
L 240.916184 89.990069 
L 241.004706 89.486566 
L 241.034304 89.486566 
L 241.09336 88.73131 
L 241.154953 88.73131 
L 241.210377 88.101931 
L 241.407381 88.101931 
L 241.407381 87.850179 
L 241.583735 87.850179 
L 241.678707 87.472552 
L 242.167659 87.472552 
L 242.167659 87.346676 
L 242.437972 87.346676 
L 242.437972 87.094924 
L 242.775485 87.094924 
L 242.838784 86.465545 
L 243.110482 86.465545 
L 243.144782 85.962041 
L 243.67525 85.962041 
L 243.67525 85.836166 
L 243.987714 85.836166 
L 244.084362 85.458538 
L 244.109958 85.458538 
L 244.168465 85.08091 
L 244.236957 85.08091 
L 244.245732 84.703283 
L 244.392448 84.703283 
L 244.413053 84.199779 
L 244.505724 84.199779 
L 244.505724 83.948028 
L 244.744644 83.948028 
L 244.774746 83.444524 
L 245.095223 83.444524 
L 245.095223 83.192772 
L 245.259126 83.192772 
L 245.259126 83.066897 
L 245.481375 83.066897 
L 245.591737 82.689269 
L 245.619227 82.689269 
L 245.619227 82.563393 
L 245.900818 82.563393 
L 245.900818 82.437517 
L 246.444271 82.437517 
L 246.444271 82.185766 
L 247.019934 82.185766 
L 247.019934 82.05989 
L 247.14383 82.05989 
L 247.14383 81.934014 
L 247.47612 81.934014 
L 247.47612 81.808138 
L 247.715687 81.808138 
L 247.715687 81.682262 
L 247.847685 81.682262 
L 247.893762 81.304634 
L 248.085608 81.304634 
L 248.085608 81.178759 
L 248.557385 81.178759 
L 248.573166 80.927007 
L 248.850641 80.927007 
L 248.893968 80.423503 
L 249.383069 80.423503 
L 249.383069 80.297628 
L 249.694956 80.297628 
L 249.694956 80.045876 
L 249.813126 80.045876 
L 249.922707 79.668248 
L 250.183125 79.668248 
L 250.265784 79.164745 
L 250.497037 79.164745 
L 250.497037 78.912993 
L 250.626413 78.912993 
L 250.626413 78.787117 
L 250.881876 78.787117 
L 250.881876 78.661241 
L 251.107005 78.661241 
L 251.150557 78.283614 
L 251.504815 78.283614 
L 251.504815 78.031862 
L 252.612584 78.031862 
L 252.703517 77.528359 
L 252.810127 77.528359 
L 252.898072 76.647228 
L 253.11716 76.647228 
L 253.207126 76.2696 
L 253.272676 76.2696 
L 253.272676 76.143724 
L 253.81596 76.143724 
L 253.823731 75.640221 
L 254.214251 75.640221 
L 254.214251 75.514345 
L 254.423722 75.514345 
L 254.501242 74.884966 
L 254.928131 74.884966 
L 254.967863 74.381462 
L 255.843345 74.381462 
L 255.843345 74.255586 
L 256.201083 74.255586 
L 256.201083 74.12971 
L 256.406362 74.12971 
L 256.502633 73.752083 
L 256.768129 73.752083 
L 256.768129 73.500331 
L 256.987761 73.500331 
L 257.023845 73.122703 
L 257.337699 73.122703 
L 257.337699 72.870952 
L 257.718282 72.870952 
L 257.718282 72.745076 
L 258.141017 72.745076 
L 258.141017 72.6192 
L 258.974634 72.6192 
L 258.974634 72.493324 
L 259.253021 72.493324 
L 259.253021 72.367448 
L 259.438203 72.367448 
L 259.438203 72.241572 
L 259.744939 72.241572 
L 259.773276 71.989821 
L 260.950043 71.989821 
L 260.950043 71.863945 
L 261.104819 71.863945 
L 261.127794 71.360441 
L 261.225594 71.360441 
L 261.225594 71.234566 
L 261.747037 71.234566 
L 261.747037 70.982814 
L 262.00603 70.982814 
L 262.00603 70.731062 
L 262.331015 70.731062 
L 262.331015 70.47931 
L 262.513207 70.47931 
L 262.513207 70.353434 
L 262.684471 70.353434 
L 262.684471 70.101683 
L 262.92514 70.101683 
L 262.92514 69.975807 
L 263.320542 69.975807 
L 263.320542 69.849931 
L 263.65654 69.849931 
L 263.65654 69.598179 
L 263.873781 69.598179 
L 263.937267 69.220552 
L 264.119871 69.220552 
L 264.122118 68.842924 
L 264.279083 68.842924 
L 264.279083 68.717048 
L 264.431749 68.717048 
L 264.431749 68.465297 
L 264.843875 68.465297 
L 264.843875 68.213545 
L 265.285378 68.213545 
L 265.285378 68.087669 
L 265.41859 68.087669 
L 265.41859 67.835917 
L 266.028698 67.835917 
L 266.028698 67.710041 
L 266.38244 67.710041 
L 266.424667 67.332414 
L 266.638885 67.332414 
L 266.73091 66.954786 
L 266.941965 66.954786 
L 266.941965 66.703034 
L 267.49244 66.703034 
L 267.49244 66.451283 
L 267.851683 66.451283 
L 267.851683 66.325407 
L 268.195018 66.325407 
L 268.195018 66.199531 
L 268.540957 66.199531 
L 268.649278 65.947779 
L 268.796957 65.947779 
L 268.796957 65.696028 
L 269.260422 65.696028 
L 269.260422 65.570152 
L 269.496991 65.570152 
L 269.496991 65.444276 
L 270.372499 65.444276 
L 270.372499 65.3184 
L 270.731156 65.3184 
L 270.731156 65.192524 
L 270.867006 65.192524 
L 270.867006 65.066648 
L 271.667937 65.066648 
L 271.679862 64.689021 
L 271.862208 64.689021 
L 271.94065 64.311393 
L 272.15425 64.311393 
L 272.250564 63.933766 
L 272.540891 63.933766 
L 272.608792 63.556138 
L 273.167479 63.556138 
L 273.167479 63.430262 
L 273.325495 63.430262 
L 273.325495 63.304386 
L 360.8064 63.304386 
L 360.8064 63.304386 
" style="fill: none; stroke: #ff00ff; stroke-width: 1.5; stroke-linecap: square"/>
   </g>
   <g id="line2d_41">
    <defs>
     <path id="m2defe885bd" d="M 0 8.485281 
L 5.091169 0 
L 0 -8.485281 
L -5.091169 0 
z
" style="stroke: #ff00ff; stroke-width: 1.5; stroke-linejoin: miter"/>
    </defs>
    <g>
     <use xlink:href="#m2defe885bd" x="156.403417" y="207.432248" style="fill-opacity: 0; stroke: #ff00ff; stroke-width: 1.5; stroke-linejoin: miter"/>
     <use xlink:href="#m2defe885bd" x="191.878235" y="156.452524" style="fill-opacity: 0; stroke: #ff00ff; stroke-width: 1.5; stroke-linejoin: miter"/>
     <use xlink:href="#m2defe885bd" x="259.773276" y="72.115697" style="fill-opacity: 0; stroke: #ff00ff; stroke-width: 1.5; stroke-linejoin: miter"/>
     <use xlink:href="#m2defe885bd" x="273.325495" y="63.304386" style="fill-opacity: 0; stroke: #ff00ff; stroke-width: 1.5; stroke-linejoin: miter"/>
     <use xlink:href="#m2defe885bd" x="273.325495" y="63.304386" style="fill-opacity: 0; stroke: #ff00ff; stroke-width: 1.5; stroke-linejoin: miter"/>
     <use xlink:href="#m2defe885bd" x="360.8064" y="63.304386" style="fill-opacity: 0; stroke: #ff00ff; stroke-width: 1.5; stroke-linejoin: miter"/>
    </g>
   </g>
   <g id="line2d_42">
    <path style="fill: none; stroke: #ff00ff; stroke-width: 1.5; stroke-linecap: square"/>
    <g/>
   </g>
   <g id="line2d_43">
    <path d="M 274.176094 63.304386 
" clip-path="url(#p8c32205d12)" style="fill: none; stroke: #ff00ff; stroke-width: 1.5; stroke-linecap: square"/>
    <defs>
     <path id="m43eacb9420" d="M -12 12 
L 12 -12 
M -12 -12 
L 12 12 
" style="stroke: #ff00ff"/>
    </defs>
    <g clip-path="url(#p8c32205d12)">
     <use xlink:href="#m43eacb9420" x="274.176094" y="63.304386" style="fill: #ff00ff; stroke: #ff00ff"/>
    </g>
   </g>
   <g id="line2d_44">
    <defs>
     <path id="mf33ac89dcc" d="M 0 1.5 
C 0.397805 1.5 0.77937 1.341951 1.06066 1.06066 
C 1.341951 0.77937 1.5 0.397805 1.5 0 
C 1.5 -0.397805 1.341951 -0.77937 1.06066 -1.06066 
C 0.77937 -1.341951 0.397805 -1.5 0 -1.5 
C -0.397805 -1.5 -0.77937 -1.341951 -1.06066 -1.06066 
C -1.341951 -0.77937 -1.5 -0.397805 -1.5 0 
C -1.5 0.397805 -1.341951 0.77937 -1.06066 1.06066 
C -0.77937 1.341951 -0.397805 1.5 0 1.5 
z
" style="stroke: #6495ed"/>
    </defs>
    <g>
     <use xlink:href="#mf33ac89dcc" x="113.954374" y="235.880193" style="fill: #6495ed; stroke: #6495ed"/>
     <use xlink:href="#mf33ac89dcc" x="113.954374" y="235.880193" style="fill: #6495ed; stroke: #6495ed"/>
    </g>
   </g>
   <g id="line2d_45">
    <path d="M 44.560826 298.944 
L 44.560826 295.671228 
L 57.6 295.671228 
L 57.6 291.139697 
L 65.227428 291.139697 
L 65.227428 288.118676 
L 70.639174 288.118676 
L 70.639174 287.363421 
L 74.836851 287.363421 
L 74.836851 286.734041 
L 78.266603 286.734041 
L 78.266603 284.845903 
L 81.166416 284.845903 
L 81.166416 282.076634 
L 83.678349 282.076634 
L 83.678349 279.810869 
L 85.894031 279.810869 
L 85.894031 277.545103 
L 87.876026 277.545103 
L 87.876026 274.90171 
L 89.668958 274.90171 
L 89.668958 274.146455 
L 91.305777 274.146455 
L 91.305777 272.761821 
L 92.811505 272.761821 
L 92.811505 271.754814 
L 94.205591 271.754814 
L 94.205591 271.377186 
L 95.503454 271.377186 
L 95.503454 270.118428 
L 96.717523 270.118428 
L 96.717523 268.607917 
L 97.857967 268.607917 
L 97.857967 268.104414 
L 98.933205 268.104414 
L 98.933205 266.216276 
L 99.950294 266.216276 
L 99.950294 265.461021 
L 100.9152 265.461021 
L 100.9152 265.209269 
L 101.833019 265.209269 
L 101.833019 264.202262 
L 102.708132 264.202262 
L 102.708132 260.048359 
L 103.544339 260.048359 
L 103.544339 256.775586 
L 104.344952 256.775586 
L 104.344952 255.390952 
L 105.112877 255.390952 
L 105.112877 253.754566 
L 105.850679 253.754566 
L 105.850679 251.740552 
L 106.560633 251.740552 
L 106.560633 248.593655 
L 107.244765 248.593655 
L 107.244765 247.334897 
L 107.904887 247.334897 
L 107.904887 245.69851 
L 108.542628 245.69851 
L 108.542628 244.439752 
L 109.159456 244.439752 
L 109.159456 242.929241 
L 109.756698 242.929241 
L 109.756698 242.425738 
L 110.335561 242.425738 
L 110.335561 241.670483 
L 110.897141 241.670483 
L 110.897141 239.656469 
L 111.442442 239.656469 
L 111.442442 238.523586 
L 111.97238 238.523586 
L 111.97238 238.271834 
L 112.487797 238.271834 
L 112.487797 238.145959 
L 112.989468 238.145959 
L 112.989468 238.020083 
L 113.478107 238.020083 
L 113.478107 236.8872 
L 113.954374 236.8872 
L 113.954374 235.880193 
L 360.8064 235.880193 
" style="fill: none; stroke: #6495ed; stroke-width: 1.5; stroke-linecap: square"/>
   </g>
   <g id="line2d_46">
    <defs>
     <path id="m369add3890" d="M -0 6 
L 6 -6 
L -6 -6 
z
" style="stroke: #6495ed; stroke-width: 1.5; stroke-linejoin: miter"/>
    </defs>
    <g>
     <use xlink:href="#m369add3890" x="106.560633" y="248.593655" style="fill-opacity: 0; stroke: #6495ed; stroke-width: 1.5; stroke-linejoin: miter"/>
     <use xlink:href="#m369add3890" x="113.954374" y="236.8872" style="fill-opacity: 0; stroke: #6495ed; stroke-width: 1.5; stroke-linejoin: miter"/>
     <use xlink:href="#m369add3890" x="113.954374" y="235.880193" style="fill-opacity: 0; stroke: #6495ed; stroke-width: 1.5; stroke-linejoin: miter"/>
     <use xlink:href="#m369add3890" x="113.954374" y="235.880193" style="fill-opacity: 0; stroke: #6495ed; stroke-width: 1.5; stroke-linejoin: miter"/>
     <use xlink:href="#m369add3890" x="113.954374" y="235.880193" style="fill-opacity: 0; stroke: #6495ed; stroke-width: 1.5; stroke-linejoin: miter"/>
     <use xlink:href="#m369add3890" x="360.8064" y="235.880193" style="fill-opacity: 0; stroke: #6495ed; stroke-width: 1.5; stroke-linejoin: miter"/>
    </g>
   </g>
   <g id="line2d_47">
    <path style="fill: none; stroke: #6495ed; stroke-width: 1.5; stroke-linecap: square"/>
    <g/>
   </g>
   <g id="line2d_48">
    <path d="M 113.954374 235.880193 
" clip-path="url(#p8c32205d12)" style="fill: none; stroke: #6495ed; stroke-width: 1.5; stroke-linecap: square"/>
    <defs>
     <path id="m4f0012c70e" d="M -12 12 
L 12 -12 
M -12 -12 
L 12 12 
" style="stroke: #6495ed"/>
    </defs>
    <g clip-path="url(#p8c32205d12)">
     <use xlink:href="#m4f0012c70e" x="113.954374" y="235.880193" style="fill: #6495ed; stroke: #6495ed"/>
    </g>
   </g>
   <g id="line2d_49">
    <path d="M 360.8064 272.635945 
L 380.514816 293.10336 
" style="fill: none; stroke: #000080; stroke-width: 1.5; stroke-linecap: square"/>
    <g>
     <use xlink:href="#m5384054288" x="360.8064" y="272.635945" style="fill-opacity: 0; stroke: #000080; stroke-width: 1.5"/>
     <use xlink:href="#m5384054288" x="380.514816" y="293.10336" style="fill-opacity: 0; stroke: #000080; stroke-width: 1.5"/>
    </g>
   </g>
   <g id="line2d_50">
    <path d="M 360.8064 235.880193 
L 380.514816 199.65312 
" style="fill: none; stroke: #6495ed; stroke-width: 1.5; stroke-linecap: square"/>
    <g>
     <use xlink:href="#m369add3890" x="360.8064" y="235.880193" style="fill-opacity: 0; stroke: #6495ed; stroke-width: 1.5; stroke-linejoin: miter"/>
     <use xlink:href="#m369add3890" x="380.514816" y="199.65312" style="fill-opacity: 0; stroke: #6495ed; stroke-width: 1.5; stroke-linejoin: miter"/>
    </g>
   </g>
   <g id="line2d_51">
    <path d="M 360.8064 63.304386 
L 380.514816 106.20288 
" style="fill: none; stroke: #ff00ff; stroke-width: 1.5; stroke-linecap: square"/>
    <g>
     <use xlink:href="#m2defe885bd" x="360.8064" y="63.304386" style="fill-opacity: 0; stroke: #ff00ff; stroke-width: 1.5; stroke-linejoin: miter"/>
     <use xlink:href="#m2defe885bd" x="380.514816" y="106.20288" style="fill-opacity: 0; stroke: #ff00ff; stroke-width: 1.5; stroke-linejoin: miter"/>
    </g>
   </g>
   <g id="line2d_52">
    <path d="M 360.8064 298.944 
L 360.8064 6.912 
" style="fill: none; stroke: #000000; stroke-width: 1.5; stroke-linecap: square"/>
   </g>
   <g id="patch_3">
    <path d="M 57.6 298.944 
L 360.8064 298.944 
" style="fill: none; stroke: #000000; stroke-width: 0.8; stroke-linejoin: miter; stroke-linecap: square"/>
   </g>
   <g id="patch_4">
    <path d="M 57.6 6.912 
L 360.8064 6.912 
" style="fill: none; stroke: #000000; stroke-width: 0.8; stroke-linejoin: miter; stroke-linecap: square"/>
   </g>
   <g id="text_13">
    <!-- cma -->
    <g transform="translate(386.578944 296.966485)scale(0.14 -0.14)">
     <use xlink:href="#DejaVuSans-63"/>
     <use xlink:href="#DejaVuSans-6d" x="54.980469"/>
     <use xlink:href="#DejaVuSans-61" x="152.392578"/>
    </g>
   </g>
   <g id="text_14">
    <!-- parEgo -->
    <g transform="translate(386.578944 203.516245)scale(0.14 -0.14)">
     <defs>
      <path id="DejaVuSans-45" d="M 628 4666 
L 3578 4666 
L 3578 4134 
L 1259 4134 
L 1259 2753 
L 3481 2753 
L 3481 2222 
L 1259 2222 
L 1259 531 
L 3634 531 
L 3634 0 
L 628 0 
L 628 4666 
z
" transform="scale(0.015625)"/>
     </defs>
     <use xlink:href="#DejaVuSans-70"/>
     <use xlink:href="#DejaVuSans-61" x="63.476562"/>
     <use xlink:href="#DejaVuSans-72" x="124.755859"/>
     <use xlink:href="#DejaVuSans-45" x="165.869141"/>
     <use xlink:href="#DejaVuSans-67" x="229.052734"/>
     <use xlink:href="#DejaVuSans-6f" x="292.529297"/>
    </g>
   </g>
   <g id="text_15">
    <!-- external- -->
    <g transform="translate(386.578944 110.066005)scale(0.14 -0.14)">
     <defs>
      <path id="DejaVuSans-78" d="M 3513 3500 
L 2247 1797 
L 3578 0 
L 2900 0 
L 1881 1375 
L 863 0 
L 184 0 
L 1544 1831 
L 300 3500 
L 978 3500 
L 1906 2253 
L 2834 3500 
L 3513 3500 
z
" transform="scale(0.015625)"/>
     </defs>
     <use xlink:href="#DejaVuSans-65"/>
     <use xlink:href="#DejaVuSans-78" x="59.773438"/>
     <use xlink:href="#DejaVuSans-74" x="118.953125"/>
     <use xlink:href="#DejaVuSans-65" x="158.162109"/>
     <use xlink:href="#DejaVuSans-72" x="219.685547"/>
     <use xlink:href="#DejaVuSans-6e" x="259.048828"/>
     <use xlink:href="#DejaVuSans-61" x="322.427734"/>
     <use xlink:href="#DejaVuSans-6c" x="383.707031"/>
     <use xlink:href="#DejaVuSans-2d" x="411.490234"/>
    </g>
   </g>
   <g id="text_16">
    <!-- best 2016 -->
    <g transform="translate(386.578944 16.615765)scale(0.14 -0.14)">
     <defs>
      <path id="DejaVuSans-62" d="M 3116 1747 
Q 3116 2381 2855 2742 
Q 2594 3103 2138 3103 
Q 1681 3103 1420 2742 
Q 1159 2381 1159 1747 
Q 1159 1113 1420 752 
Q 1681 391 2138 391 
Q 2594 391 2855 752 
Q 3116 1113 3116 1747 
z
M 1159 2969 
Q 1341 3281 1617 3432 
Q 1894 3584 2278 3584 
Q 2916 3584 3314 3078 
Q 3713 2572 3713 1747 
Q 3713 922 3314 415 
Q 2916 -91 2278 -91 
Q 1894 -91 1617 61 
Q 1341 213 1159 525 
L 1159 0 
L 581 0 
L 581 4863 
L 1159 4863 
L 1159 2969 
z
" transform="scale(0.015625)"/>
     </defs>
     <use xlink:href="#DejaVuSans-62"/>
     <use xlink:href="#DejaVuSans-65" x="63.476562"/>
     <use xlink:href="#DejaVuSans-73" x="125"/>
     <use xlink:href="#DejaVuSans-74" x="177.099609"/>
     <use xlink:href="#DejaVuSans-20" x="216.308594"/>
     <use xlink:href="#DejaVuSans-32" x="248.095703"/>
     <use xlink:href="#DejaVuSans-30" x="311.71875"/>
     <use xlink:href="#DejaVuSans-31" x="375.341797"/>
     <use xlink:href="#DejaVuSans-36" x="438.964844"/>
    </g>
   </g>
   <g id="text_17">
    <!-- bbob-biobj f22, f23, f29, f30, 2-D -->
    <g transform="translate(60.632064 17.582726)scale(0.102 -0.102)">
     <defs>
      <path id="DejaVuSans-6a" d="M 603 3500 
L 1178 3500 
L 1178 -63 
Q 1178 -731 923 -1031 
Q 669 -1331 103 -1331 
L -116 -1331 
L -116 -844 
L 38 -844 
Q 366 -844 484 -692 
Q 603 -541 603 -63 
L 603 3500 
z
M 603 4863 
L 1178 4863 
L 1178 4134 
L 603 4134 
L 603 4863 
z
" transform="scale(0.015625)"/>
      <path id="DejaVuSans-33" d="M 2597 2516 
Q 3050 2419 3304 2112 
Q 3559 1806 3559 1356 
Q 3559 666 3084 287 
Q 2609 -91 1734 -91 
Q 1441 -91 1130 -33 
Q 819 25 488 141 
L 488 750 
Q 750 597 1062 519 
Q 1375 441 1716 441 
Q 2309 441 2620 675 
Q 2931 909 2931 1356 
Q 2931 1769 2642 2001 
Q 2353 2234 1838 2234 
L 1294 2234 
L 1294 2753 
L 1863 2753 
Q 2328 2753 2575 2939 
Q 2822 3125 2822 3475 
Q 2822 3834 2567 4026 
Q 2313 4219 1838 4219 
Q 1578 4219 1281 4162 
Q 984 4106 628 3988 
L 628 4550 
Q 988 4650 1302 4700 
Q 1616 4750 1894 4750 
Q 2613 4750 3031 4423 
Q 3450 4097 3450 3541 
Q 3450 3153 3228 2886 
Q 3006 2619 2597 2516 
z
" transform="scale(0.015625)"/>
      <path id="DejaVuSans-39" d="M 703 97 
L 703 672 
Q 941 559 1184 500 
Q 1428 441 1663 441 
Q 2288 441 2617 861 
Q 2947 1281 2994 2138 
Q 2813 1869 2534 1725 
Q 2256 1581 1919 1581 
Q 1219 1581 811 2004 
Q 403 2428 403 3163 
Q 403 3881 828 4315 
Q 1253 4750 1959 4750 
Q 2769 4750 3195 4129 
Q 3622 3509 3622 2328 
Q 3622 1225 3098 567 
Q 2575 -91 1691 -91 
Q 1453 -91 1209 -44 
Q 966 3 703 97 
z
M 1959 2075 
Q 2384 2075 2632 2365 
Q 2881 2656 2881 3163 
Q 2881 3666 2632 3958 
Q 2384 4250 1959 4250 
Q 1534 4250 1286 3958 
Q 1038 3666 1038 3163 
Q 1038 2656 1286 2365 
Q 1534 2075 1959 2075 
z
" transform="scale(0.015625)"/>
      <path id="DejaVuSans-44" d="M 1259 4147 
L 1259 519 
L 2022 519 
Q 2988 519 3436 956 
Q 3884 1394 3884 2338 
Q 3884 3275 3436 3711 
Q 2988 4147 2022 4147 
L 1259 4147 
z
M 628 4666 
L 1925 4666 
Q 3281 4666 3915 4102 
Q 4550 3538 4550 2338 
Q 4550 1131 3912 565 
Q 3275 0 1925 0 
L 628 0 
L 628 4666 
z
" transform="scale(0.015625)"/>
     </defs>
     <use xlink:href="#DejaVuSans-62"/>
     <use xlink:href="#DejaVuSans-62" x="63.476562"/>
     <use xlink:href="#DejaVuSans-6f" x="126.953125"/>
     <use xlink:href="#DejaVuSans-62" x="188.134766"/>
     <use xlink:href="#DejaVuSans-2d" x="251.611328"/>
     <use xlink:href="#DejaVuSans-62" x="287.695312"/>
     <use xlink:href="#DejaVuSans-69" x="351.171875"/>
     <use xlink:href="#DejaVuSans-6f" x="378.955078"/>
     <use xlink:href="#DejaVuSans-62" x="440.136719"/>
     <use xlink:href="#DejaVuSans-6a" x="503.613281"/>
     <use xlink:href="#DejaVuSans-20" x="531.396484"/>
     <use xlink:href="#DejaVuSans-66" x="563.183594"/>
     <use xlink:href="#DejaVuSans-32" x="598.388672"/>
     <use xlink:href="#DejaVuSans-32" x="662.011719"/>
     <use xlink:href="#DejaVuSans-2c" x="725.634766"/>
     <use xlink:href="#DejaVuSans-20" x="757.421875"/>
     <use xlink:href="#DejaVuSans-66" x="789.208984"/>
     <use xlink:href="#DejaVuSans-32" x="824.414062"/>
     <use xlink:href="#DejaVuSans-33" x="888.037109"/>
     <use xlink:href="#DejaVuSans-2c" x="951.660156"/>
     <use xlink:href="#DejaVuSans-20" x="983.447266"/>
     <use xlink:href="#DejaVuSans-66" x="1015.234375"/>
     <use xlink:href="#DejaVuSans-32" x="1050.439453"/>
     <use xlink:href="#DejaVuSans-39" x="1114.0625"/>
     <use xlink:href="#DejaVuSans-2c" x="1177.685547"/>
     <use xlink:href="#DejaVuSans-20" x="1209.472656"/>
     <use xlink:href="#DejaVuSans-66" x="1241.259766"/>
     <use xlink:href="#DejaVuSans-33" x="1276.464844"/>
     <use xlink:href="#DejaVuSans-30" x="1340.087891"/>
     <use xlink:href="#DejaVuSans-2c" x="1403.710938"/>
     <use xlink:href="#DejaVuSans-20" x="1435.498047"/>
     <use xlink:href="#DejaVuSans-32" x="1467.285156"/>
     <use xlink:href="#DejaVuSans-2d" x="1530.908203"/>
     <use xlink:href="#DejaVuSans-44" x="1566.992188"/>
    </g>
    <!-- 58 targets: 1..-1.0e-4 -->
    <g transform="translate(60.632064 29.004495)scale(0.102 -0.102)">
     <defs>
      <path id="DejaVuSans-35" d="M 691 4666 
L 3169 4666 
L 3169 4134 
L 1269 4134 
L 1269 2991 
Q 1406 3038 1543 3061 
Q 1681 3084 1819 3084 
Q 2600 3084 3056 2656 
Q 3513 2228 3513 1497 
Q 3513 744 3044 326 
Q 2575 -91 1722 -91 
Q 1428 -91 1123 -41 
Q 819 9 494 109 
L 494 744 
Q 775 591 1075 516 
Q 1375 441 1709 441 
Q 2250 441 2565 725 
Q 2881 1009 2881 1497 
Q 2881 1984 2565 2268 
Q 2250 2553 1709 2553 
Q 1456 2553 1204 2497 
Q 953 2441 691 2322 
L 691 4666 
z
" transform="scale(0.015625)"/>
      <path id="DejaVuSans-3a" d="M 750 794 
L 1409 794 
L 1409 0 
L 750 0 
L 750 794 
z
M 750 3309 
L 1409 3309 
L 1409 2516 
L 750 2516 
L 750 3309 
z
" transform="scale(0.015625)"/>
     </defs>
     <use xlink:href="#DejaVuSans-35"/>
     <use xlink:href="#DejaVuSans-38" x="63.623047"/>
     <use xlink:href="#DejaVuSans-20" x="127.246094"/>
     <use xlink:href="#DejaVuSans-74" x="159.033203"/>
     <use xlink:href="#DejaVuSans-61" x="198.242188"/>
     <use xlink:href="#DejaVuSans-72" x="259.521484"/>
     <use xlink:href="#DejaVuSans-67" x="298.884766"/>
     <use xlink:href="#DejaVuSans-65" x="362.361328"/>
     <use xlink:href="#DejaVuSans-74" x="423.884766"/>
     <use xlink:href="#DejaVuSans-73" x="463.09375"/>
     <use xlink:href="#DejaVuSans-3a" x="515.193359"/>
     <use xlink:href="#DejaVuSans-20" x="548.884766"/>
     <use xlink:href="#DejaVuSans-31" x="580.671875"/>
     <use xlink:href="#DejaVuSans-2e" x="644.294922"/>
     <use xlink:href="#DejaVuSans-2e" x="676.082031"/>
     <use xlink:href="#DejaVuSans-2d" x="707.869141"/>
     <use xlink:href="#DejaVuSans-31" x="743.953125"/>
     <use xlink:href="#DejaVuSans-2e" x="807.576172"/>
     <use xlink:href="#DejaVuSans-30" x="839.363281"/>
     <use xlink:href="#DejaVuSans-65" x="902.986328"/>
     <use xlink:href="#DejaVuSans-2d" x="964.509766"/>
     <use xlink:href="#DejaVuSans-34" x="1000.59375"/>
    </g>
    <!-- 10 instances -->
    <g transform="translate(60.632064 40.426264)scale(0.102 -0.102)">
     <use xlink:href="#DejaVuSans-31"/>
     <use xlink:href="#DejaVuSans-30" x="63.623047"/>
     <use xlink:href="#DejaVuSans-20" x="127.246094"/>
     <use xlink:href="#DejaVuSans-69" x="159.033203"/>
     <use xlink:href="#DejaVuSans-6e" x="186.816406"/>
     <use xlink:href="#DejaVuSans-73" x="250.195312"/>
     <use xlink:href="#DejaVuSans-74" x="302.294922"/>
     <use xlink:href="#DejaVuSans-61" x="341.503906"/>
     <use xlink:href="#DejaVuSans-6e" x="402.783203"/>
     <use xlink:href="#DejaVuSans-63" x="466.162109"/>
     <use xlink:href="#DejaVuSans-65" x="521.142578"/>
     <use xlink:href="#DejaVuSans-73" x="582.666016"/>
    </g>
   </g>
   <g id="text_18">
    <!-- v2.6, hv-hash=ff0e71e8cd978373 -->
    <g style="fill: #808080" transform="translate(123.707887 293.943992)scale(0.1 -0.1)">
     <defs>
      <path id="DejaVuSans-68" d="M 3513 2113 
L 3513 0 
L 2938 0 
L 2938 2094 
Q 2938 2591 2744 2837 
Q 2550 3084 2163 3084 
Q 1697 3084 1428 2787 
Q 1159 2491 1159 1978 
L 1159 0 
L 581 0 
L 581 4863 
L 1159 4863 
L 1159 2956 
Q 1366 3272 1645 3428 
Q 1925 3584 2291 3584 
Q 2894 3584 3203 3211 
Q 3513 2838 3513 2113 
z
" transform="scale(0.015625)"/>
      <path id="DejaVuSans-3d" d="M 678 2906 
L 4684 2906 
L 4684 2381 
L 678 2381 
L 678 2906 
z
M 678 1631 
L 4684 1631 
L 4684 1100 
L 678 1100 
L 678 1631 
z
" transform="scale(0.015625)"/>
      <path id="DejaVuSans-37" d="M 525 4666 
L 3525 4666 
L 3525 4397 
L 1831 0 
L 1172 0 
L 2766 4134 
L 525 4134 
L 525 4666 
z
" transform="scale(0.015625)"/>
     </defs>
     <use xlink:href="#DejaVuSans-76"/>
     <use xlink:href="#DejaVuSans-32" x="59.179688"/>
     <use xlink:href="#DejaVuSans-2e" x="122.802734"/>
     <use xlink:href="#DejaVuSans-36" x="154.589844"/>
     <use xlink:href="#DejaVuSans-2c" x="218.212891"/>
     <use xlink:href="#DejaVuSans-20" x="250"/>
     <use xlink:href="#DejaVuSans-68" x="281.787109"/>
     <use xlink:href="#DejaVuSans-76" x="345.166016"/>
     <use xlink:href="#DejaVuSans-2d" x="401.720703"/>
     <use xlink:href="#DejaVuSans-68" x="437.804688"/>
     <use xlink:href="#DejaVuSans-61" x="501.183594"/>
     <use xlink:href="#DejaVuSans-73" x="562.462891"/>
     <use xlink:href="#DejaVuSans-68" x="614.5625"/>
     <use xlink:href="#DejaVuSans-3d" x="677.941406"/>
     <use xlink:href="#DejaVuSans-66" x="761.730469"/>
     <use xlink:href="#DejaVuSans-66" x="796.935547"/>
     <use xlink:href="#DejaVuSans-30" x="832.140625"/>
     <use xlink:href="#DejaVuSans-65" x="895.763672"/>
     <use xlink:href="#DejaVuSans-37" x="957.287109"/>
     <use xlink:href="#DejaVuSans-31" x="1020.910156"/>
     <use xlink:href="#DejaVuSans-65" x="1084.533203"/>
     <use xlink:href="#DejaVuSans-38" x="1146.056641"/>
     <use xlink:href="#DejaVuSans-63" x="1209.679688"/>
     <use xlink:href="#DejaVuSans-64" x="1264.660156"/>
     <use xlink:href="#DejaVuSans-39" x="1328.136719"/>
     <use xlink:href="#DejaVuSans-37" x="1391.759766"/>
     <use xlink:href="#DejaVuSans-38" x="1455.382812"/>
     <use xlink:href="#DejaVuSans-33" x="1519.005859"/>
     <use xlink:href="#DejaVuSans-37" x="1582.628906"/>
     <use xlink:href="#DejaVuSans-33" x="1646.251953"/>
    </g>
   </g>
  </g>
 </g>
 <defs>
  <clipPath id="p8c32205d12">
   <rect x="57.6" y="6.912" width="303.2064" height="292.032"/>
  </clipPath>
 </defs>
</svg>
