<?xml version="1.0" encoding="utf-8" standalone="no"?>
<!DOCTYPE svg PUBLIC "-//W3C//DTD SVG 1.1//EN"
  "http://www.w3.org/Graphics/SVG/1.1/DTD/svg11.dtd">
<svg xmlns:xlink="http://www.w3.org/1999/xlink" width="460.8pt" height="345.6pt" viewBox="0 0 460.8 345.6" xmlns="http://www.w3.org/2000/svg" version="1.1">
 <metadata>
  <rdf:RDF xmlns:dc="http://purl.org/dc/elements/1.1/" xmlns:cc="http://creativecommons.org/ns#" xmlns:rdf="http://www.w3.org/1999/02/22-rdf-syntax-ns#">
   <cc:Work>
    <dc:type rdf:resource="http://purl.org/dc/dcmitype/StillImage"/>
    <dc:date>2022-06-19T21:02:37.784509</dc:date>
    <dc:format>image/svg+xml</dc:format>
    <dc:creator>
     <cc:Agent>
      <dc:title>Matplotlib v3.5.1, https://matplotlib.org/</dc:title>
     </cc:Agent>
    </dc:creator>
   </cc:Work>
  </rdf:RDF>
 </metadata>
 <defs>
  <style type="text/css">*{stroke-linejoin: round; stroke-linecap: butt}</style>
 </defs>
 <g id="figure_1">
  <g id="patch_1">
   <path d="M 0 345.6 
L 460.8 345.6 
L 460.8 0 
L 0 0 
z
" style="fill: #ffffff"/>
  </g>
  <g id="axes_1">
   <g id="patch_2">
    <path d="M 57.6 298.944 
L 360.8064 298.944 
L 360.8064 6.912 
L 57.6 6.912 
z
" style="fill: #ffffff"/>
   </g>
   <g id="line2d_1">
    <path d="M 40.363149 298.944 
L 40.363149 297.685241 
L 66.441498 297.685241 
L 66.441498 296.426483 
L 68.65718 296.426483 
L 68.65718 293.908966 
L 80.621116 293.908966 
L 80.621116 288.873931 
L 81.696354 288.873931 
L 81.696354 286.356414 
L 95.752617 286.356414 
L 95.752617 283.838897 
L 100.147275 283.838897 
L 100.147275 281.321379 
L 111.54963 281.321379 
L 111.54963 278.803862 
L 114.872193 278.803862 
L 114.872193 276.286345 
L 118.74459 276.286345 
L 118.74459 273.768828 
L 119.876453 273.768828 
L 119.876453 272.510069 
L 131.191226 272.510069 
L 131.191226 271.25131 
L 134.683578 271.25131 
L 134.683578 269.992552 
L 137.734561 269.992552 
L 137.734561 266.216276 
L 147.628773 266.216276 
L 147.628773 264.957517 
L 160.351247 264.957517 
L 160.351247 261.181241 
L 161.482294 261.181241 
L 161.482294 258.663724 
L 161.942766 258.663724 
L 161.942766 254.887448 
L 171.756506 254.887448 
L 171.756506 252.369931 
L 176.54402 252.369931 
L 176.54402 248.593655 
L 178.104724 248.593655 
L 178.104724 246.076138 
L 179.383934 246.076138 
L 179.383934 244.817379 
L 181.967579 244.817379 
L 182.068527 241.041103 
L 185.391425 241.041103 
L 185.391425 238.523586 
L 186.103411 238.523586 
L 186.103411 236.006069 
L 190.579304 236.006069 
L 190.579304 234.74731 
L 194.66973 234.74731 
L 194.66973 230.971034 
L 198.371444 230.971034 
L 198.371444 229.712276 
L 207.486035 229.712276 
L 207.486035 227.194759 
L 210.783455 227.194759 
L 210.783455 223.418483 
L 214.313757 223.418483 
L 214.313757 220.900966 
L 214.908137 220.900966 
L 214.908137 217.12469 
L 217.58157 217.12469 
L 217.58157 214.607172 
L 222.736835 214.607172 
L 222.736835 212.089655 
L 226.722287 212.089655 
L 226.722287 209.572138 
L 230.362911 209.572138 
L 230.362911 205.795862 
L 237.585265 205.795862 
L 237.585265 203.278345 
L 240.456147 203.278345 
L 240.456147 200.760828 
L 246.456016 200.760828 
L 246.456016 198.24331 
L 250.049976 198.24331 
L 250.049976 195.725793 
L 250.758171 195.725793 
L 250.758171 193.208276 
L 257.397965 193.208276 
L 257.397965 190.690759 
L 258.010149 190.690759 
L 258.010149 188.173241 
L 261.582676 188.173241 
L 261.582676 186.914483 
L 262.972736 186.914483 
L 262.972736 184.396966 
L 263.362537 184.396966 
L 263.362537 181.879448 
L 264.554597 181.879448 
L 264.554597 180.62069 
L 269.764115 180.62069 
L 269.764115 179.361931 
L 271.659251 179.361931 
L 271.659251 178.103172 
L 272.36309 178.103172 
L 272.36309 174.326897 
L 277.870533 174.326897 
L 277.870533 170.550621 
L 278.52575 170.550621 
L 278.52575 166.774345 
L 280.441955 166.774345 
L 280.441955 162.998069 
L 288.312953 162.998069 
L 288.312953 161.73931 
L 292.717319 161.73931 
L 292.717319 157.963034 
L 294.102352 157.963034 
L 294.102352 156.704276 
L 295.138909 156.704276 
L 295.138909 155.445517 
L 296.407427 155.445517 
L 296.407427 154.186759 
L 301.247558 154.186759 
L 301.247558 150.410483 
L 301.531921 150.410483 
L 301.531921 146.634207 
L 304.70893 146.634207 
L 304.70893 142.857931 
L 306.900778 142.857931 
L 306.900778 140.340414 
L 309.128961 140.340414 
L 309.128961 137.822897 
L 309.403705 137.822897 
L 309.403705 135.305379 
L 311.118417 135.305379 
L 311.118417 132.787862 
L 315.269827 132.787862 
L 315.269827 131.529103 
L 316.719375 131.529103 
L 316.719375 130.270345 
L 318.215609 130.270345 
L 318.215609 126.494069 
L 319.010104 126.494069 
L 319.010104 125.23531 
L 321.225981 125.23531 
L 321.225981 123.976552 
L 321.76197 123.976552 
L 321.76197 122.717793 
L 324.700587 122.717793 
L 324.700587 118.941517 
L 325.588348 118.941517 
L 325.588348 115.165241 
L 332.340264 115.165241 
L 332.340264 111.388966 
L 332.822443 111.388966 
L 332.822443 107.61269 
L 333.30072 107.61269 
L 333.30072 106.353931 
L 333.808798 106.353931 
L 333.808798 102.577655 
L 334.117418 102.577655 
L 334.184783 98.801379 
L 334.866514 98.801379 
L 334.866514 96.283862 
L 335.034794 96.283862 
L 335.034794 92.507586 
L 338.85785 92.507586 
L 338.85785 91.248828 
L 347.429754 91.248828 
L 347.429754 87.472552 
L 347.545214 87.472552 
L 347.568885 82.437517 
L 347.711453 82.437517 
L 347.711453 81.178759 
L 348.553793 81.178759 
L 348.553793 78.661241 
L 348.908783 78.661241 
L 348.908783 76.143724 
L 349.029389 76.143724 
L 349.13066 69.849931 
L 349.406277 69.849931 
L 349.406277 68.591172 
L 349.718058 68.591172 
L 349.718058 66.073655 
L 350.018423 66.073655 
L 350.018423 63.556138 
L 360.8064 63.556138 
L 360.8064 63.556138 
" style="fill: none; stroke: #f5deb3; stroke-width: 4; stroke-linecap: square"/>
   </g>
   <g id="line2d_2">
    <defs>
     <path id="ma42cb90894" d="M 0 7.778175 
L 7.778175 0 
L 0 -7.778175 
L -7.778175 0 
z
" style="stroke: #f5deb3; stroke-width: 1.5; stroke-linejoin: miter"/>
    </defs>
    <g>
     <use xlink:href="#ma42cb90894" x="147.628773" y="266.216276" style="fill: #f5deb3; stroke: #f5deb3; stroke-width: 1.5; stroke-linejoin: miter"/>
     <use xlink:href="#ma42cb90894" x="230.362911" y="205.795862" style="fill: #f5deb3; stroke: #f5deb3; stroke-width: 1.5; stroke-linejoin: miter"/>
     <use xlink:href="#ma42cb90894" x="301.247558" y="154.186759" style="fill: #f5deb3; stroke: #f5deb3; stroke-width: 1.5; stroke-linejoin: miter"/>
     <use xlink:href="#ma42cb90894" x="349.029389" y="72.367448" style="fill: #f5deb3; stroke: #f5deb3; stroke-width: 1.5; stroke-linejoin: miter"/>
     <use xlink:href="#ma42cb90894" x="350.018423" y="63.556138" style="fill: #f5deb3; stroke: #f5deb3; stroke-width: 1.5; stroke-linejoin: miter"/>
     <use xlink:href="#ma42cb90894" x="360.8064" y="63.556138" style="fill: #f5deb3; stroke: #f5deb3; stroke-width: 1.5; stroke-linejoin: miter"/>
    </g>
   </g>
   <g id="line2d_3">
    <path style="fill: none; stroke: #f5deb3; stroke-width: 4; stroke-linecap: square"/>
    <g/>
   </g>
   <g id="line2d_4">
    <path d="M 360.8064 63.556138 
L 380.514816 12.75264 
" style="fill: none; stroke: #f5deb3; stroke-width: 4; stroke-linecap: square"/>
    <g>
     <use xlink:href="#ma42cb90894" x="360.8064" y="63.556138" style="fill: #f5deb3; stroke: #f5deb3; stroke-width: 1.5; stroke-linejoin: miter"/>
     <use xlink:href="#ma42cb90894" x="380.514816" y="12.75264" style="fill: #f5deb3; stroke: #f5deb3; stroke-width: 1.5; stroke-linejoin: miter"/>
    </g>
   </g>
   <g id="matplotlib.axis_1">
    <g id="xtick_1">
     <g id="line2d_5">
      <path d="M 57.6 298.944 
L 57.6 6.912 
" clip-path="url(#p627f3a3aba)" style="fill: none; stroke: #b0b0b0; stroke-width: 0.8; stroke-linecap: square"/>
     </g>
     <g id="line2d_6">
      <defs>
       <path id="meafb1137f2" d="M 0 0 
L 0 3.5 
" style="stroke: #000000; stroke-width: 0.8"/>
      </defs>
      <g>
       <use xlink:href="#meafb1137f2" x="57.6" y="298.944" style="stroke: #000000; stroke-width: 0.8"/>
      </g>
     </g>
     <g id="text_1">
      <!-- 0 -->
      <g transform="translate(52.191875 318.861344)scale(0.17 -0.17)">
       <defs>
        <path id="DejaVuSans-30" d="M 2034 4250 
Q 1547 4250 1301 3770 
Q 1056 3291 1056 2328 
Q 1056 1369 1301 889 
Q 1547 409 2034 409 
Q 2525 409 2770 889 
Q 3016 1369 3016 2328 
Q 3016 3291 2770 3770 
Q 2525 4250 2034 4250 
z
M 2034 4750 
Q 2819 4750 3233 4129 
Q 3647 3509 3647 2328 
Q 3647 1150 3233 529 
Q 2819 -91 2034 -91 
Q 1250 -91 836 529 
Q 422 1150 422 2328 
Q 422 3509 836 4129 
Q 1250 4750 2034 4750 
z
" transform="scale(0.015625)"/>
       </defs>
       <use xlink:href="#DejaVuSans-30"/>
      </g>
     </g>
    </g>
    <g id="xtick_2">
     <g id="line2d_7">
      <path d="M 144.2304 298.944 
L 144.2304 6.912 
" clip-path="url(#p627f3a3aba)" style="fill: none; stroke: #b0b0b0; stroke-width: 0.8; stroke-linecap: square"/>
     </g>
     <g id="line2d_8">
      <g>
       <use xlink:href="#meafb1137f2" x="144.2304" y="298.944" style="stroke: #000000; stroke-width: 0.8"/>
      </g>
     </g>
     <g id="text_2">
      <!-- 2 -->
      <g transform="translate(138.822275 318.861344)scale(0.17 -0.17)">
       <defs>
        <path id="DejaVuSans-32" d="M 1228 531 
L 3431 531 
L 3431 0 
L 469 0 
L 469 531 
Q 828 903 1448 1529 
Q 2069 2156 2228 2338 
Q 2531 2678 2651 2914 
Q 2772 3150 2772 3378 
Q 2772 3750 2511 3984 
Q 2250 4219 1831 4219 
Q 1534 4219 1204 4116 
Q 875 4013 500 3803 
L 500 4441 
Q 881 4594 1212 4672 
Q 1544 4750 1819 4750 
Q 2544 4750 2975 4387 
Q 3406 4025 3406 3419 
Q 3406 3131 3298 2873 
Q 3191 2616 2906 2266 
Q 2828 2175 2409 1742 
Q 1991 1309 1228 531 
z
" transform="scale(0.015625)"/>
       </defs>
       <use xlink:href="#DejaVuSans-32"/>
      </g>
     </g>
    </g>
    <g id="xtick_3">
     <g id="line2d_9">
      <path d="M 230.8608 298.944 
L 230.8608 6.912 
" clip-path="url(#p627f3a3aba)" style="fill: none; stroke: #b0b0b0; stroke-width: 0.8; stroke-linecap: square"/>
     </g>
     <g id="line2d_10">
      <g>
       <use xlink:href="#meafb1137f2" x="230.8608" y="298.944" style="stroke: #000000; stroke-width: 0.8"/>
      </g>
     </g>
     <g id="text_3">
      <!-- 4 -->
      <g transform="translate(225.452675 318.861344)scale(0.17 -0.17)">
       <defs>
        <path id="DejaVuSans-34" d="M 2419 4116 
L 825 1625 
L 2419 1625 
L 2419 4116 
z
M 2253 4666 
L 3047 4666 
L 3047 1625 
L 3713 1625 
L 3713 1100 
L 3047 1100 
L 3047 0 
L 2419 0 
L 2419 1100 
L 313 1100 
L 313 1709 
L 2253 4666 
z
" transform="scale(0.015625)"/>
       </defs>
       <use xlink:href="#DejaVuSans-34"/>
      </g>
     </g>
    </g>
    <g id="xtick_4">
     <g id="line2d_11">
      <path d="M 317.4912 298.944 
L 317.4912 6.912 
" clip-path="url(#p627f3a3aba)" style="fill: none; stroke: #b0b0b0; stroke-width: 0.8; stroke-linecap: square"/>
     </g>
     <g id="line2d_12">
      <g>
       <use xlink:href="#meafb1137f2" x="317.4912" y="298.944" style="stroke: #000000; stroke-width: 0.8"/>
      </g>
     </g>
     <g id="text_4">
      <!-- 6 -->
      <g transform="translate(312.083075 318.861344)scale(0.17 -0.17)">
       <defs>
        <path id="DejaVuSans-36" d="M 2113 2584 
Q 1688 2584 1439 2293 
Q 1191 2003 1191 1497 
Q 1191 994 1439 701 
Q 1688 409 2113 409 
Q 2538 409 2786 701 
Q 3034 994 3034 1497 
Q 3034 2003 2786 2293 
Q 2538 2584 2113 2584 
z
M 3366 4563 
L 3366 3988 
Q 3128 4100 2886 4159 
Q 2644 4219 2406 4219 
Q 1781 4219 1451 3797 
Q 1122 3375 1075 2522 
Q 1259 2794 1537 2939 
Q 1816 3084 2150 3084 
Q 2853 3084 3261 2657 
Q 3669 2231 3669 1497 
Q 3669 778 3244 343 
Q 2819 -91 2113 -91 
Q 1303 -91 875 529 
Q 447 1150 447 2328 
Q 447 3434 972 4092 
Q 1497 4750 2381 4750 
Q 2619 4750 2861 4703 
Q 3103 4656 3366 4563 
z
" transform="scale(0.015625)"/>
       </defs>
       <use xlink:href="#DejaVuSans-36"/>
      </g>
     </g>
    </g>
    <g id="xtick_5">
     <g id="line2d_13">
      <path d="M 100.9152 298.944 
L 100.9152 6.912 
" clip-path="url(#p627f3a3aba)" style="fill: none; stroke: #b0b0b0; stroke-width: 0.8; stroke-linecap: square"/>
     </g>
     <g id="line2d_14">
      <defs>
       <path id="m6278c8fb39" d="M 0 0 
L 0 2 
" style="stroke: #000000; stroke-width: 0.6"/>
      </defs>
      <g>
       <use xlink:href="#m6278c8fb39" x="100.9152" y="298.944" style="stroke: #000000; stroke-width: 0.6"/>
      </g>
     </g>
    </g>
    <g id="xtick_6">
     <g id="line2d_15">
      <path d="M 187.5456 298.944 
L 187.5456 6.912 
" clip-path="url(#p627f3a3aba)" style="fill: none; stroke: #b0b0b0; stroke-width: 0.8; stroke-linecap: square"/>
     </g>
     <g id="line2d_16">
      <g>
       <use xlink:href="#m6278c8fb39" x="187.5456" y="298.944" style="stroke: #000000; stroke-width: 0.6"/>
      </g>
     </g>
    </g>
    <g id="xtick_7">
     <g id="line2d_17">
      <path d="M 274.176 298.944 
L 274.176 6.912 
" clip-path="url(#p627f3a3aba)" style="fill: none; stroke: #b0b0b0; stroke-width: 0.8; stroke-linecap: square"/>
     </g>
     <g id="line2d_18">
      <g>
       <use xlink:href="#m6278c8fb39" x="274.176" y="298.944" style="stroke: #000000; stroke-width: 0.6"/>
      </g>
     </g>
    </g>
    <g id="xtick_8">
     <g id="line2d_19">
      <path d="M 360.8064 298.944 
L 360.8064 6.912 
" clip-path="url(#p627f3a3aba)" style="fill: none; stroke: #b0b0b0; stroke-width: 0.8; stroke-linecap: square"/>
     </g>
     <g id="line2d_20">
      <g>
       <use xlink:href="#m6278c8fb39" x="360.8064" y="298.944" style="stroke: #000000; stroke-width: 0.6"/>
      </g>
     </g>
    </g>
    <g id="text_5">
     <!-- log10(# f-evals / dimension) -->
     <g transform="translate(88.823278 339.314156)scale(0.17 -0.17)">
      <defs>
       <path id="DejaVuSans-6c" d="M 603 4863 
L 1178 4863 
L 1178 0 
L 603 0 
L 603 4863 
z
" transform="scale(0.015625)"/>
       <path id="DejaVuSans-6f" d="M 1959 3097 
Q 1497 3097 1228 2736 
Q 959 2375 959 1747 
Q 959 1119 1226 758 
Q 1494 397 1959 397 
Q 2419 397 2687 759 
Q 2956 1122 2956 1747 
Q 2956 2369 2687 2733 
Q 2419 3097 1959 3097 
z
M 1959 3584 
Q 2709 3584 3137 3096 
Q 3566 2609 3566 1747 
Q 3566 888 3137 398 
Q 2709 -91 1959 -91 
Q 1206 -91 779 398 
Q 353 888 353 1747 
Q 353 2609 779 3096 
Q 1206 3584 1959 3584 
z
" transform="scale(0.015625)"/>
       <path id="DejaVuSans-67" d="M 2906 1791 
Q 2906 2416 2648 2759 
Q 2391 3103 1925 3103 
Q 1463 3103 1205 2759 
Q 947 2416 947 1791 
Q 947 1169 1205 825 
Q 1463 481 1925 481 
Q 2391 481 2648 825 
Q 2906 1169 2906 1791 
z
M 3481 434 
Q 3481 -459 3084 -895 
Q 2688 -1331 1869 -1331 
Q 1566 -1331 1297 -1286 
Q 1028 -1241 775 -1147 
L 775 -588 
Q 1028 -725 1275 -790 
Q 1522 -856 1778 -856 
Q 2344 -856 2625 -561 
Q 2906 -266 2906 331 
L 2906 616 
Q 2728 306 2450 153 
Q 2172 0 1784 0 
Q 1141 0 747 490 
Q 353 981 353 1791 
Q 353 2603 747 3093 
Q 1141 3584 1784 3584 
Q 2172 3584 2450 3431 
Q 2728 3278 2906 2969 
L 2906 3500 
L 3481 3500 
L 3481 434 
z
" transform="scale(0.015625)"/>
       <path id="DejaVuSans-31" d="M 794 531 
L 1825 531 
L 1825 4091 
L 703 3866 
L 703 4441 
L 1819 4666 
L 2450 4666 
L 2450 531 
L 3481 531 
L 3481 0 
L 794 0 
L 794 531 
z
" transform="scale(0.015625)"/>
       <path id="DejaVuSans-28" d="M 1984 4856 
Q 1566 4138 1362 3434 
Q 1159 2731 1159 2009 
Q 1159 1288 1364 580 
Q 1569 -128 1984 -844 
L 1484 -844 
Q 1016 -109 783 600 
Q 550 1309 550 2009 
Q 550 2706 781 3412 
Q 1013 4119 1484 4856 
L 1984 4856 
z
" transform="scale(0.015625)"/>
       <path id="DejaVuSans-23" d="M 3272 2816 
L 2363 2816 
L 2100 1772 
L 3016 1772 
L 3272 2816 
z
M 2803 4594 
L 2478 3297 
L 3391 3297 
L 3719 4594 
L 4219 4594 
L 3897 3297 
L 4872 3297 
L 4872 2816 
L 3775 2816 
L 3519 1772 
L 4513 1772 
L 4513 1294 
L 3397 1294 
L 3072 0 
L 2572 0 
L 2894 1294 
L 1978 1294 
L 1656 0 
L 1153 0 
L 1478 1294 
L 494 1294 
L 494 1772 
L 1594 1772 
L 1856 2816 
L 850 2816 
L 850 3297 
L 1978 3297 
L 2297 4594 
L 2803 4594 
z
" transform="scale(0.015625)"/>
       <path id="DejaVuSans-20" transform="scale(0.015625)"/>
       <path id="DejaVuSans-66" d="M 2375 4863 
L 2375 4384 
L 1825 4384 
Q 1516 4384 1395 4259 
Q 1275 4134 1275 3809 
L 1275 3500 
L 2222 3500 
L 2222 3053 
L 1275 3053 
L 1275 0 
L 697 0 
L 697 3053 
L 147 3053 
L 147 3500 
L 697 3500 
L 697 3744 
Q 697 4328 969 4595 
Q 1241 4863 1831 4863 
L 2375 4863 
z
" transform="scale(0.015625)"/>
       <path id="DejaVuSans-2d" d="M 313 2009 
L 1997 2009 
L 1997 1497 
L 313 1497 
L 313 2009 
z
" transform="scale(0.015625)"/>
       <path id="DejaVuSans-65" d="M 3597 1894 
L 3597 1613 
L 953 1613 
Q 991 1019 1311 708 
Q 1631 397 2203 397 
Q 2534 397 2845 478 
Q 3156 559 3463 722 
L 3463 178 
Q 3153 47 2828 -22 
Q 2503 -91 2169 -91 
Q 1331 -91 842 396 
Q 353 884 353 1716 
Q 353 2575 817 3079 
Q 1281 3584 2069 3584 
Q 2775 3584 3186 3129 
Q 3597 2675 3597 1894 
z
M 3022 2063 
Q 3016 2534 2758 2815 
Q 2500 3097 2075 3097 
Q 1594 3097 1305 2825 
Q 1016 2553 972 2059 
L 3022 2063 
z
" transform="scale(0.015625)"/>
       <path id="DejaVuSans-76" d="M 191 3500 
L 800 3500 
L 1894 563 
L 2988 3500 
L 3597 3500 
L 2284 0 
L 1503 0 
L 191 3500 
z
" transform="scale(0.015625)"/>
       <path id="DejaVuSans-61" d="M 2194 1759 
Q 1497 1759 1228 1600 
Q 959 1441 959 1056 
Q 959 750 1161 570 
Q 1363 391 1709 391 
Q 2188 391 2477 730 
Q 2766 1069 2766 1631 
L 2766 1759 
L 2194 1759 
z
M 3341 1997 
L 3341 0 
L 2766 0 
L 2766 531 
Q 2569 213 2275 61 
Q 1981 -91 1556 -91 
Q 1019 -91 701 211 
Q 384 513 384 1019 
Q 384 1609 779 1909 
Q 1175 2209 1959 2209 
L 2766 2209 
L 2766 2266 
Q 2766 2663 2505 2880 
Q 2244 3097 1772 3097 
Q 1472 3097 1187 3025 
Q 903 2953 641 2809 
L 641 3341 
Q 956 3463 1253 3523 
Q 1550 3584 1831 3584 
Q 2591 3584 2966 3190 
Q 3341 2797 3341 1997 
z
" transform="scale(0.015625)"/>
       <path id="DejaVuSans-73" d="M 2834 3397 
L 2834 2853 
Q 2591 2978 2328 3040 
Q 2066 3103 1784 3103 
Q 1356 3103 1142 2972 
Q 928 2841 928 2578 
Q 928 2378 1081 2264 
Q 1234 2150 1697 2047 
L 1894 2003 
Q 2506 1872 2764 1633 
Q 3022 1394 3022 966 
Q 3022 478 2636 193 
Q 2250 -91 1575 -91 
Q 1294 -91 989 -36 
Q 684 19 347 128 
L 347 722 
Q 666 556 975 473 
Q 1284 391 1588 391 
Q 1994 391 2212 530 
Q 2431 669 2431 922 
Q 2431 1156 2273 1281 
Q 2116 1406 1581 1522 
L 1381 1569 
Q 847 1681 609 1914 
Q 372 2147 372 2553 
Q 372 3047 722 3315 
Q 1072 3584 1716 3584 
Q 2034 3584 2315 3537 
Q 2597 3491 2834 3397 
z
" transform="scale(0.015625)"/>
       <path id="DejaVuSans-2f" d="M 1625 4666 
L 2156 4666 
L 531 -594 
L 0 -594 
L 1625 4666 
z
" transform="scale(0.015625)"/>
       <path id="DejaVuSans-64" d="M 2906 2969 
L 2906 4863 
L 3481 4863 
L 3481 0 
L 2906 0 
L 2906 525 
Q 2725 213 2448 61 
Q 2172 -91 1784 -91 
Q 1150 -91 751 415 
Q 353 922 353 1747 
Q 353 2572 751 3078 
Q 1150 3584 1784 3584 
Q 2172 3584 2448 3432 
Q 2725 3281 2906 2969 
z
M 947 1747 
Q 947 1113 1208 752 
Q 1469 391 1925 391 
Q 2381 391 2643 752 
Q 2906 1113 2906 1747 
Q 2906 2381 2643 2742 
Q 2381 3103 1925 3103 
Q 1469 3103 1208 2742 
Q 947 2381 947 1747 
z
" transform="scale(0.015625)"/>
       <path id="DejaVuSans-69" d="M 603 3500 
L 1178 3500 
L 1178 0 
L 603 0 
L 603 3500 
z
M 603 4863 
L 1178 4863 
L 1178 4134 
L 603 4134 
L 603 4863 
z
" transform="scale(0.015625)"/>
       <path id="DejaVuSans-6d" d="M 3328 2828 
Q 3544 3216 3844 3400 
Q 4144 3584 4550 3584 
Q 5097 3584 5394 3201 
Q 5691 2819 5691 2113 
L 5691 0 
L 5113 0 
L 5113 2094 
Q 5113 2597 4934 2840 
Q 4756 3084 4391 3084 
Q 3944 3084 3684 2787 
Q 3425 2491 3425 1978 
L 3425 0 
L 2847 0 
L 2847 2094 
Q 2847 2600 2669 2842 
Q 2491 3084 2119 3084 
Q 1678 3084 1418 2786 
Q 1159 2488 1159 1978 
L 1159 0 
L 581 0 
L 581 3500 
L 1159 3500 
L 1159 2956 
Q 1356 3278 1631 3431 
Q 1906 3584 2284 3584 
Q 2666 3584 2933 3390 
Q 3200 3197 3328 2828 
z
" transform="scale(0.015625)"/>
       <path id="DejaVuSans-6e" d="M 3513 2113 
L 3513 0 
L 2938 0 
L 2938 2094 
Q 2938 2591 2744 2837 
Q 2550 3084 2163 3084 
Q 1697 3084 1428 2787 
Q 1159 2491 1159 1978 
L 1159 0 
L 581 0 
L 581 3500 
L 1159 3500 
L 1159 2956 
Q 1366 3272 1645 3428 
Q 1925 3584 2291 3584 
Q 2894 3584 3203 3211 
Q 3513 2838 3513 2113 
z
" transform="scale(0.015625)"/>
       <path id="DejaVuSans-29" d="M 513 4856 
L 1013 4856 
Q 1481 4119 1714 3412 
Q 1947 2706 1947 2009 
Q 1947 1309 1714 600 
Q 1481 -109 1013 -844 
L 513 -844 
Q 928 -128 1133 580 
Q 1338 1288 1338 2009 
Q 1338 2731 1133 3434 
Q 928 4138 513 4856 
z
" transform="scale(0.015625)"/>
      </defs>
      <use xlink:href="#DejaVuSans-6c"/>
      <use xlink:href="#DejaVuSans-6f" x="27.783203"/>
      <use xlink:href="#DejaVuSans-67" x="88.964844"/>
      <use xlink:href="#DejaVuSans-31" x="152.441406"/>
      <use xlink:href="#DejaVuSans-30" x="216.064453"/>
      <use xlink:href="#DejaVuSans-28" x="279.6875"/>
      <use xlink:href="#DejaVuSans-23" x="318.701172"/>
      <use xlink:href="#DejaVuSans-20" x="402.490234"/>
      <use xlink:href="#DejaVuSans-66" x="434.277344"/>
      <use xlink:href="#DejaVuSans-2d" x="463.982422"/>
      <use xlink:href="#DejaVuSans-65" x="500.066406"/>
      <use xlink:href="#DejaVuSans-76" x="561.589844"/>
      <use xlink:href="#DejaVuSans-61" x="620.769531"/>
      <use xlink:href="#DejaVuSans-6c" x="682.048828"/>
      <use xlink:href="#DejaVuSans-73" x="709.832031"/>
      <use xlink:href="#DejaVuSans-20" x="761.931641"/>
      <use xlink:href="#DejaVuSans-2f" x="793.71875"/>
      <use xlink:href="#DejaVuSans-20" x="827.410156"/>
      <use xlink:href="#DejaVuSans-64" x="859.197266"/>
      <use xlink:href="#DejaVuSans-69" x="922.673828"/>
      <use xlink:href="#DejaVuSans-6d" x="950.457031"/>
      <use xlink:href="#DejaVuSans-65" x="1047.869141"/>
      <use xlink:href="#DejaVuSans-6e" x="1109.392578"/>
      <use xlink:href="#DejaVuSans-73" x="1172.771484"/>
      <use xlink:href="#DejaVuSans-69" x="1224.871094"/>
      <use xlink:href="#DejaVuSans-6f" x="1252.654297"/>
      <use xlink:href="#DejaVuSans-6e" x="1313.835938"/>
      <use xlink:href="#DejaVuSans-29" x="1377.214844"/>
     </g>
    </g>
   </g>
   <g id="matplotlib.axis_2">
    <g id="ytick_1">
     <g id="line2d_21">
      <path d="M 57.6 298.944 
L 360.8064 298.944 
" clip-path="url(#p627f3a3aba)" style="fill: none; stroke: #b0b0b0; stroke-width: 0.8; stroke-linecap: square"/>
     </g>
     <g id="line2d_22">
      <defs>
       <path id="maf0265f184" d="M 0 0 
L -3.5 0 
" style="stroke: #000000; stroke-width: 0.8"/>
      </defs>
      <g>
       <use xlink:href="#maf0265f184" x="57.6" y="298.944" style="stroke: #000000; stroke-width: 0.8"/>
      </g>
     </g>
     <g id="text_6">
      <!-- 0.0 -->
      <g transform="translate(25.155 305.02275)scale(0.16 -0.16)">
       <defs>
        <path id="DejaVuSans-2e" d="M 684 794 
L 1344 794 
L 1344 0 
L 684 0 
L 684 794 
z
" transform="scale(0.015625)"/>
       </defs>
       <use xlink:href="#DejaVuSans-30"/>
       <use xlink:href="#DejaVuSans-2e" x="63.623047"/>
       <use xlink:href="#DejaVuSans-30" x="95.410156"/>
      </g>
     </g>
    </g>
    <g id="ytick_2">
     <g id="line2d_23">
      <path d="M 57.6 240.5376 
L 360.8064 240.5376 
" clip-path="url(#p627f3a3aba)" style="fill: none; stroke: #b0b0b0; stroke-width: 0.8; stroke-linecap: square"/>
     </g>
     <g id="line2d_24">
      <g>
       <use xlink:href="#maf0265f184" x="57.6" y="240.5376" style="stroke: #000000; stroke-width: 0.8"/>
      </g>
     </g>
     <g id="text_7">
      <!-- 0.2 -->
      <g transform="translate(25.155 246.61635)scale(0.16 -0.16)">
       <use xlink:href="#DejaVuSans-30"/>
       <use xlink:href="#DejaVuSans-2e" x="63.623047"/>
       <use xlink:href="#DejaVuSans-32" x="95.410156"/>
      </g>
     </g>
    </g>
    <g id="ytick_3">
     <g id="line2d_25">
      <path d="M 57.6 182.1312 
L 360.8064 182.1312 
" clip-path="url(#p627f3a3aba)" style="fill: none; stroke: #b0b0b0; stroke-width: 0.8; stroke-linecap: square"/>
     </g>
     <g id="line2d_26">
      <g>
       <use xlink:href="#maf0265f184" x="57.6" y="182.1312" style="stroke: #000000; stroke-width: 0.8"/>
      </g>
     </g>
     <g id="text_8">
      <!-- 0.4 -->
      <g transform="translate(25.155 188.20995)scale(0.16 -0.16)">
       <use xlink:href="#DejaVuSans-30"/>
       <use xlink:href="#DejaVuSans-2e" x="63.623047"/>
       <use xlink:href="#DejaVuSans-34" x="95.410156"/>
      </g>
     </g>
    </g>
    <g id="ytick_4">
     <g id="line2d_27">
      <path d="M 57.6 123.7248 
L 360.8064 123.7248 
" clip-path="url(#p627f3a3aba)" style="fill: none; stroke: #b0b0b0; stroke-width: 0.8; stroke-linecap: square"/>
     </g>
     <g id="line2d_28">
      <g>
       <use xlink:href="#maf0265f184" x="57.6" y="123.7248" style="stroke: #000000; stroke-width: 0.8"/>
      </g>
     </g>
     <g id="text_9">
      <!-- 0.6 -->
      <g transform="translate(25.155 129.80355)scale(0.16 -0.16)">
       <use xlink:href="#DejaVuSans-30"/>
       <use xlink:href="#DejaVuSans-2e" x="63.623047"/>
       <use xlink:href="#DejaVuSans-36" x="95.410156"/>
      </g>
     </g>
    </g>
    <g id="ytick_5">
     <g id="line2d_29">
      <path d="M 57.6 65.3184 
L 360.8064 65.3184 
" clip-path="url(#p627f3a3aba)" style="fill: none; stroke: #b0b0b0; stroke-width: 0.8; stroke-linecap: square"/>
     </g>
     <g id="line2d_30">
      <g>
       <use xlink:href="#maf0265f184" x="57.6" y="65.3184" style="stroke: #000000; stroke-width: 0.8"/>
      </g>
     </g>
     <g id="text_10">
      <!-- 0.8 -->
      <g transform="translate(25.155 71.39715)scale(0.16 -0.16)">
       <defs>
        <path id="DejaVuSans-38" d="M 2034 2216 
Q 1584 2216 1326 1975 
Q 1069 1734 1069 1313 
Q 1069 891 1326 650 
Q 1584 409 2034 409 
Q 2484 409 2743 651 
Q 3003 894 3003 1313 
Q 3003 1734 2745 1975 
Q 2488 2216 2034 2216 
z
M 1403 2484 
Q 997 2584 770 2862 
Q 544 3141 544 3541 
Q 544 4100 942 4425 
Q 1341 4750 2034 4750 
Q 2731 4750 3128 4425 
Q 3525 4100 3525 3541 
Q 3525 3141 3298 2862 
Q 3072 2584 2669 2484 
Q 3125 2378 3379 2068 
Q 3634 1759 3634 1313 
Q 3634 634 3220 271 
Q 2806 -91 2034 -91 
Q 1263 -91 848 271 
Q 434 634 434 1313 
Q 434 1759 690 2068 
Q 947 2378 1403 2484 
z
M 1172 3481 
Q 1172 3119 1398 2916 
Q 1625 2713 2034 2713 
Q 2441 2713 2670 2916 
Q 2900 3119 2900 3481 
Q 2900 3844 2670 4047 
Q 2441 4250 2034 4250 
Q 1625 4250 1398 4047 
Q 1172 3844 1172 3481 
z
" transform="scale(0.015625)"/>
       </defs>
       <use xlink:href="#DejaVuSans-30"/>
       <use xlink:href="#DejaVuSans-2e" x="63.623047"/>
       <use xlink:href="#DejaVuSans-38" x="95.410156"/>
      </g>
     </g>
    </g>
    <g id="ytick_6">
     <g id="line2d_31">
      <path d="M 57.6 6.912 
L 360.8064 6.912 
" clip-path="url(#p627f3a3aba)" style="fill: none; stroke: #b0b0b0; stroke-width: 0.8; stroke-linecap: square"/>
     </g>
     <g id="line2d_32">
      <g>
       <use xlink:href="#maf0265f184" x="57.6" y="6.912" style="stroke: #000000; stroke-width: 0.8"/>
      </g>
     </g>
     <g id="text_11">
      <!-- 1.0 -->
      <g transform="translate(25.155 12.99075)scale(0.16 -0.16)">
       <use xlink:href="#DejaVuSans-31"/>
       <use xlink:href="#DejaVuSans-2e" x="63.623047"/>
       <use xlink:href="#DejaVuSans-30" x="95.410156"/>
      </g>
     </g>
    </g>
    <g id="text_12">
     <!-- Fraction of function,target pairs -->
     <g transform="translate(17.619531 287.313)rotate(-90)scale(0.17 -0.17)">
      <defs>
       <path id="DejaVuSans-46" d="M 628 4666 
L 3309 4666 
L 3309 4134 
L 1259 4134 
L 1259 2759 
L 3109 2759 
L 3109 2228 
L 1259 2228 
L 1259 0 
L 628 0 
L 628 4666 
z
" transform="scale(0.015625)"/>
       <path id="DejaVuSans-72" d="M 2631 2963 
Q 2534 3019 2420 3045 
Q 2306 3072 2169 3072 
Q 1681 3072 1420 2755 
Q 1159 2438 1159 1844 
L 1159 0 
L 581 0 
L 581 3500 
L 1159 3500 
L 1159 2956 
Q 1341 3275 1631 3429 
Q 1922 3584 2338 3584 
Q 2397 3584 2469 3576 
Q 2541 3569 2628 3553 
L 2631 2963 
z
" transform="scale(0.015625)"/>
       <path id="DejaVuSans-63" d="M 3122 3366 
L 3122 2828 
Q 2878 2963 2633 3030 
Q 2388 3097 2138 3097 
Q 1578 3097 1268 2742 
Q 959 2388 959 1747 
Q 959 1106 1268 751 
Q 1578 397 2138 397 
Q 2388 397 2633 464 
Q 2878 531 3122 666 
L 3122 134 
Q 2881 22 2623 -34 
Q 2366 -91 2075 -91 
Q 1284 -91 818 406 
Q 353 903 353 1747 
Q 353 2603 823 3093 
Q 1294 3584 2113 3584 
Q 2378 3584 2631 3529 
Q 2884 3475 3122 3366 
z
" transform="scale(0.015625)"/>
       <path id="DejaVuSans-74" d="M 1172 4494 
L 1172 3500 
L 2356 3500 
L 2356 3053 
L 1172 3053 
L 1172 1153 
Q 1172 725 1289 603 
Q 1406 481 1766 481 
L 2356 481 
L 2356 0 
L 1766 0 
Q 1100 0 847 248 
Q 594 497 594 1153 
L 594 3053 
L 172 3053 
L 172 3500 
L 594 3500 
L 594 4494 
L 1172 4494 
z
" transform="scale(0.015625)"/>
       <path id="DejaVuSans-75" d="M 544 1381 
L 544 3500 
L 1119 3500 
L 1119 1403 
Q 1119 906 1312 657 
Q 1506 409 1894 409 
Q 2359 409 2629 706 
Q 2900 1003 2900 1516 
L 2900 3500 
L 3475 3500 
L 3475 0 
L 2900 0 
L 2900 538 
Q 2691 219 2414 64 
Q 2138 -91 1772 -91 
Q 1169 -91 856 284 
Q 544 659 544 1381 
z
M 1991 3584 
L 1991 3584 
z
" transform="scale(0.015625)"/>
       <path id="DejaVuSans-2c" d="M 750 794 
L 1409 794 
L 1409 256 
L 897 -744 
L 494 -744 
L 750 256 
L 750 794 
z
" transform="scale(0.015625)"/>
       <path id="DejaVuSans-70" d="M 1159 525 
L 1159 -1331 
L 581 -1331 
L 581 3500 
L 1159 3500 
L 1159 2969 
Q 1341 3281 1617 3432 
Q 1894 3584 2278 3584 
Q 2916 3584 3314 3078 
Q 3713 2572 3713 1747 
Q 3713 922 3314 415 
Q 2916 -91 2278 -91 
Q 1894 -91 1617 61 
Q 1341 213 1159 525 
z
M 3116 1747 
Q 3116 2381 2855 2742 
Q 2594 3103 2138 3103 
Q 1681 3103 1420 2742 
Q 1159 2381 1159 1747 
Q 1159 1113 1420 752 
Q 1681 391 2138 391 
Q 2594 391 2855 752 
Q 3116 1113 3116 1747 
z
" transform="scale(0.015625)"/>
      </defs>
      <use xlink:href="#DejaVuSans-46"/>
      <use xlink:href="#DejaVuSans-72" x="50.269531"/>
      <use xlink:href="#DejaVuSans-61" x="91.382812"/>
      <use xlink:href="#DejaVuSans-63" x="152.662109"/>
      <use xlink:href="#DejaVuSans-74" x="207.642578"/>
      <use xlink:href="#DejaVuSans-69" x="246.851562"/>
      <use xlink:href="#DejaVuSans-6f" x="274.634766"/>
      <use xlink:href="#DejaVuSans-6e" x="335.816406"/>
      <use xlink:href="#DejaVuSans-20" x="399.195312"/>
      <use xlink:href="#DejaVuSans-6f" x="430.982422"/>
      <use xlink:href="#DejaVuSans-66" x="492.164062"/>
      <use xlink:href="#DejaVuSans-20" x="527.369141"/>
      <use xlink:href="#DejaVuSans-66" x="559.15625"/>
      <use xlink:href="#DejaVuSans-75" x="594.361328"/>
      <use xlink:href="#DejaVuSans-6e" x="657.740234"/>
      <use xlink:href="#DejaVuSans-63" x="721.119141"/>
      <use xlink:href="#DejaVuSans-74" x="776.099609"/>
      <use xlink:href="#DejaVuSans-69" x="815.308594"/>
      <use xlink:href="#DejaVuSans-6f" x="843.091797"/>
      <use xlink:href="#DejaVuSans-6e" x="904.273438"/>
      <use xlink:href="#DejaVuSans-2c" x="967.652344"/>
      <use xlink:href="#DejaVuSans-74" x="999.439453"/>
      <use xlink:href="#DejaVuSans-61" x="1038.648438"/>
      <use xlink:href="#DejaVuSans-72" x="1099.927734"/>
      <use xlink:href="#DejaVuSans-67" x="1139.291016"/>
      <use xlink:href="#DejaVuSans-65" x="1202.767578"/>
      <use xlink:href="#DejaVuSans-74" x="1264.291016"/>
      <use xlink:href="#DejaVuSans-20" x="1303.5"/>
      <use xlink:href="#DejaVuSans-70" x="1335.287109"/>
      <use xlink:href="#DejaVuSans-61" x="1398.763672"/>
      <use xlink:href="#DejaVuSans-69" x="1460.042969"/>
      <use xlink:href="#DejaVuSans-72" x="1487.826172"/>
      <use xlink:href="#DejaVuSans-73" x="1528.939453"/>
     </g>
    </g>
   </g>
   <g id="line2d_33">
    <defs>
     <path id="mbba29db358" d="M 0 1.5 
C 0.397805 1.5 0.77937 1.341951 1.06066 1.06066 
C 1.341951 0.77937 1.5 0.397805 1.5 0 
C 1.5 -0.397805 1.341951 -0.77937 1.06066 -1.06066 
C 0.77937 -1.341951 0.397805 -1.5 0 -1.5 
C -0.397805 -1.5 -0.77937 -1.341951 -1.06066 -1.06066 
C -1.341951 -0.77937 -1.5 -0.397805 -1.5 0 
C -1.5 0.397805 -1.341951 0.77937 -1.06066 1.06066 
C -0.77937 1.341951 -0.397805 1.5 0 1.5 
z
" style="stroke: #f5deb3"/>
    </defs>
    <g>
     <use xlink:href="#mbba29db358" x="363.502202" y="42.157241" style="fill: #f5deb3; stroke: #f5deb3"/>
     <use xlink:href="#mbba29db358" x="363.502202" y="42.157241" style="fill: #f5deb3; stroke: #f5deb3"/>
    </g>
   </g>
   <g id="line2d_34">
    <defs>
     <path id="m658e2ef6bb" d="M 0 1.5 
C 0.397805 1.5 0.77937 1.341951 1.06066 1.06066 
C 1.341951 0.77937 1.5 0.397805 1.5 0 
C 1.5 -0.397805 1.341951 -0.77937 1.06066 -1.06066 
C 0.77937 -1.341951 0.397805 -1.5 0 -1.5 
C -0.397805 -1.5 -0.77937 -1.341951 -1.06066 -1.06066 
C -1.341951 -0.77937 -1.5 -0.397805 -1.5 0 
C -1.5 0.397805 -1.341951 0.77937 -1.06066 1.06066 
C -0.77937 1.341951 -0.397805 1.5 0 1.5 
z
" style="stroke: #000080"/>
    </defs>
    <g>
     <use xlink:href="#m658e2ef6bb" x="81.696354" y="282.076634" style="fill: #000080; stroke: #000080"/>
     <use xlink:href="#m658e2ef6bb" x="81.696354" y="282.076634" style="fill: #000080; stroke: #000080"/>
    </g>
   </g>
   <g id="line2d_35">
    <path d="M 27.323974 298.944 
L 27.323974 292.901959 
L 40.363149 292.901959 
L 40.363149 292.146703 
L 47.990577 292.146703 
L 47.990577 291.769076 
L 53.402323 291.769076 
L 53.402323 290.13269 
L 57.6 290.13269 
L 57.6 289.629186 
L 61.029752 289.629186 
L 61.029752 288.873931 
L 63.929565 288.873931 
L 63.929565 288.370428 
L 66.441498 288.370428 
L 66.441498 287.866924 
L 68.65718 287.866924 
L 68.65718 287.489297 
L 70.639174 287.489297 
L 70.639174 286.356414 
L 72.432107 286.356414 
L 72.432107 286.230538 
L 74.068926 286.230538 
L 74.068926 285.475283 
L 75.574654 285.475283 
L 75.574654 284.594152 
L 76.96874 284.594152 
L 76.96874 283.461269 
L 78.266603 283.461269 
L 78.266603 283.335393 
L 79.480672 283.335393 
L 79.480672 283.209517 
L 80.621116 283.209517 
L 80.621116 282.83189 
L 81.696354 282.83189 
L 81.696354 282.076634 
L 360.8064 282.076634 
" style="fill: none; stroke: #000080; stroke-width: 1.5; stroke-linecap: square"/>
   </g>
   <g id="line2d_36">
    <defs>
     <path id="m7e665807b4" d="M 0 6 
C 1.591219 6 3.117479 5.367802 4.242641 4.242641 
C 5.367802 3.117479 6 1.591219 6 0 
C 6 -1.591219 5.367802 -3.117479 4.242641 -4.242641 
C 3.117479 -5.367802 1.591219 -6 0 -6 
C -1.591219 -6 -3.117479 -5.367802 -4.242641 -4.242641 
C -5.367802 -3.117479 -6 -1.591219 -6 0 
C -6 1.591219 -5.367802 3.117479 -4.242641 4.242641 
C -3.117479 5.367802 -1.591219 6 0 6 
z
" style="stroke: #000080; stroke-width: 1.5"/>
    </defs>
    <g>
     <use xlink:href="#m7e665807b4" x="81.696354" y="282.83189" style="fill-opacity: 0; stroke: #000080; stroke-width: 1.5"/>
     <use xlink:href="#m7e665807b4" x="81.696354" y="282.83189" style="fill-opacity: 0; stroke: #000080; stroke-width: 1.5"/>
     <use xlink:href="#m7e665807b4" x="81.696354" y="282.076634" style="fill-opacity: 0; stroke: #000080; stroke-width: 1.5"/>
     <use xlink:href="#m7e665807b4" x="81.696354" y="282.076634" style="fill-opacity: 0; stroke: #000080; stroke-width: 1.5"/>
     <use xlink:href="#m7e665807b4" x="81.696354" y="282.076634" style="fill-opacity: 0; stroke: #000080; stroke-width: 1.5"/>
     <use xlink:href="#m7e665807b4" x="360.8064" y="282.076634" style="fill-opacity: 0; stroke: #000080; stroke-width: 1.5"/>
    </g>
   </g>
   <g id="line2d_37">
    <path style="fill: none; stroke: #000080; stroke-width: 1.5; stroke-linecap: square"/>
    <g/>
   </g>
   <g id="line2d_38">
    <path d="M 81.696354 282.076634 
" clip-path="url(#p627f3a3aba)" style="fill: none; stroke: #000080; stroke-width: 1.5; stroke-linecap: square"/>
    <defs>
     <path id="mf52b92a4fd" d="M -12 12 
L 12 -12 
M -12 -12 
L 12 12 
" style="stroke: #000080"/>
    </defs>
    <g clip-path="url(#p627f3a3aba)">
     <use xlink:href="#mf52b92a4fd" x="81.696354" y="282.076634" style="fill: #000080; stroke: #000080"/>
    </g>
   </g>
   <g id="line2d_39">
    <defs>
     <path id="m07f00e380b" d="M 0 1.5 
C 0.397805 1.5 0.77937 1.341951 1.06066 1.06066 
C 1.341951 0.77937 1.5 0.397805 1.5 0 
C 1.5 -0.397805 1.341951 -0.77937 1.06066 -1.06066 
C 0.77937 -1.341951 0.397805 -1.5 0 -1.5 
C -0.397805 -1.5 -0.77937 -1.341951 -1.06066 -1.06066 
C -1.341951 -0.77937 -1.5 -0.397805 -1.5 0 
C -1.5 0.397805 -1.341951 0.77937 -1.06066 1.06066 
C -0.77937 1.341951 -0.397805 1.5 0 1.5 
z
" style="stroke: #ff00ff"/>
    </defs>
    <g>
     <use xlink:href="#m07f00e380b" x="273.434471" y="198.746814" style="fill: #ff00ff; stroke: #ff00ff"/>
     <use xlink:href="#m07f00e380b" x="273.434471" y="198.746814" style="fill: #ff00ff; stroke: #ff00ff"/>
    </g>
   </g>
   <g id="line2d_40">
    <path d="M 27.323974 298.944 
L 27.323974 292.901959 
L 47.990577 292.901959 
L 47.990577 292.020828 
L 53.402323 292.020828 
L 53.402323 291.769076 
L 57.6 291.769076 
L 57.6 291.139697 
L 61.029752 291.139697 
L 61.029752 290.887945 
L 63.929565 290.887945 
L 63.929565 290.384441 
L 72.432107 290.384441 
L 72.432107 289.755062 
L 75.574654 289.755062 
L 75.574654 289.251559 
L 76.96874 289.251559 
L 76.96874 288.999807 
L 78.266603 288.999807 
L 78.266603 288.873931 
L 81.696354 288.873931 
L 81.696354 288.748055 
L 82.713442 288.748055 
L 82.713442 288.244552 
L 84.596168 288.244552 
L 84.596168 287.111669 
L 86.307488 287.111669 
L 86.307488 286.859917 
L 87.1081 286.859917 
L 87.1081 286.608166 
L 87.876026 286.608166 
L 87.876026 286.356414 
L 88.613828 286.356414 
L 88.613828 285.727034 
L 89.323782 285.727034 
L 89.323782 285.601159 
L 91.305777 285.601159 
L 91.305777 285.475283 
L 91.922605 285.475283 
L 91.922605 285.349407 
L 92.519847 285.349407 
L 92.519847 285.097655 
L 94.205591 285.097655 
L 94.205591 284.971779 
L 95.250946 284.971779 
L 95.250946 284.845903 
L 96.241256 284.845903 
L 96.241256 284.720028 
L 96.717523 284.720028 
L 96.717523 284.468276 
L 98.933205 284.468276 
L 98.933205 284.216524 
L 102.708132 284.216524 
L 102.708132 283.964772 
L 103.380045 283.964772 
L 103.380045 283.713021 
L 104.344952 283.713021 
L 104.344952 283.587145 
L 104.655893 283.587145 
L 104.655893 283.335393 
L 105.559021 283.335393 
L 105.559021 283.209517 
L 106.137884 283.209517 
L 106.137884 282.957766 
L 107.5116 282.957766 
L 107.5116 282.706014 
L 108.034177 282.706014 
L 108.034177 282.580138 
L 108.29012 282.580138 
L 108.29012 282.454262 
L 108.542628 282.454262 
L 108.542628 282.328386 
L 108.791791 282.328386 
L 108.791791 282.20251 
L 109.520071 282.20251 
L 109.520071 281.950759 
L 109.756698 281.950759 
L 109.756698 281.699007 
L 109.990385 281.699007 
L 109.990385 281.573131 
L 111.54963 281.573131 
L 111.54963 281.321379 
L 111.97238 281.321379 
L 111.97238 281.195503 
L 112.180244 281.195503 
L 112.180244 281.069628 
L 113.765312 281.069628 
L 113.765312 280.943752 
L 114.872193 280.943752 
L 114.872193 280.817876 
L 115.050503 280.817876 
L 115.050503 280.692 
L 115.747307 280.692 
L 115.747307 280.566124 
L 115.917548 280.566124 
L 115.917548 280.440248 
L 116.253478 280.440248 
L 116.253478 280.188497 
L 116.583514 280.188497 
L 116.583514 280.062621 
L 116.907859 280.062621 
L 116.907859 279.936745 
L 117.067958 279.936745 
L 117.067958 279.810869 
L 117.226706 279.810869 
L 117.226706 279.559117 
L 117.384126 279.559117 
L 117.384126 279.307366 
L 117.540239 279.307366 
L 117.540239 278.677986 
L 118.152051 278.677986 
L 118.152051 278.426234 
L 118.74459 278.426234 
L 118.74459 278.300359 
L 118.889854 278.300359 
L 118.889854 278.174483 
L 119.319033 278.174483 
L 119.319033 278.048607 
L 119.459944 278.048607 
L 119.459944 277.922731 
L 119.876453 277.922731 
L 119.876453 277.796855 
L 120.41783 277.796855 
L 120.41783 277.670979 
L 120.550775 277.670979 
L 120.550775 277.545103 
L 120.682786 277.545103 
L 120.682786 277.293352 
L 121.073351 277.293352 
L 121.073351 277.167476 
L 121.201758 277.167476 
L 121.201758 276.915724 
L 121.329295 276.915724 
L 121.329295 276.412221 
L 121.830966 276.412221 
L 121.830966 276.286345 
L 121.954321 276.286345 
L 121.954321 276.160469 
L 122.076872 276.160469 
L 122.076872 275.908717 
L 122.319605 275.908717 
L 122.319605 275.782841 
L 123.374735 275.782841 
L 123.374735 275.656966 
L 123.4884 275.656966 
L 123.4884 275.53109 
L 123.713691 275.53109 
L 123.713691 275.405214 
L 124.156336 275.405214 
L 124.265389 274.90171 
L 124.481616 274.90171 
L 124.588805 274.524083 
L 125.322496 274.524083 
L 125.322496 274.398207 
L 125.526971 274.398207 
L 125.526971 274.272331 
L 125.729248 274.272331 
L 125.829577 273.894703 
L 125.929373 273.894703 
L 125.929373 273.768828 
L 126.420564 273.768828 
L 126.517282 273.3912 
L 127.640693 273.3912 
L 127.731351 272.761821 
L 127.821575 272.761821 
L 127.911368 272.258317 
L 128.266313 272.258317 
L 128.266313 272.006566 
L 128.786481 272.006566 
L 128.786481 271.754814 
L 128.956723 271.754814 
L 129.041269 271.25131 
L 129.7043 271.25131 
L 129.78556 270.999559 
L 129.86647 270.999559 
L 129.86647 270.873683 
L 130.265881 270.873683 
L 130.265881 270.621931 
L 130.579414 270.621931 
L 130.579414 270.496055 
L 130.887807 270.496055 
L 130.887807 270.370179 
L 131.341119 270.370179 
L 131.341119 270.244303 
L 131.563744 270.244303 
L 131.63737 269.992552 
L 131.929028 269.992552 
L 131.929028 269.866676 
L 132.216233 269.866676 
L 132.216233 269.7408 
L 132.984158 269.7408 
L 133.05244 269.489048 
L 133.390178 269.489048 
L 133.390178 269.111421 
L 133.523594 269.111421 
L 133.523594 268.985545 
L 133.72196 268.985545 
L 133.72196 268.607917 
L 134.683578 268.607917 
L 134.683578 268.356166 
L 134.808158 268.356166 
L 134.808158 268.23029 
L 135.054871 268.23029 
L 135.116046 267.852662 
L 135.657857 267.852662 
L 135.717106 267.475034 
L 136.413909 267.475034 
L 136.413909 267.349159 
L 136.696795 267.349159 
L 136.696795 267.223283 
L 137.358854 267.223283 
L 137.412988 266.971531 
L 137.893309 266.971531 
L 137.893309 266.845655 
L 139.508159 266.845655 
L 139.508159 266.593903 
L 139.891105 266.593903 
L 139.891105 266.468028 
L 140.815692 266.468028 
L 140.815692 266.342152 
L 140.995278 266.342152 
L 141.039908 266.0904 
L 141.782854 266.0904 
L 141.782854 265.964524 
L 141.910969 265.964524 
L 141.910969 265.838648 
L 142.290162 265.838648 
L 142.290162 265.712772 
L 142.41488 265.712772 
L 142.41488 265.586897 
L 145.573357 265.586897 
L 145.643288 265.335145 
L 146.395851 265.335145 
L 146.395851 264.957517 
L 147.054816 264.957517 
L 147.054816 264.831641 
L 147.183884 264.831641 
L 147.183884 264.57989 
L 149.194798 264.57989 
L 149.194798 264.454014 
L 149.875833 264.454014 
L 149.875833 264.328138 
L 150.932483 264.328138 
L 150.932483 264.202262 
L 151.731998 264.202262 
L 151.731998 263.95051 
L 152.082223 263.95051 
L 152.082223 263.824634 
L 152.328451 263.824634 
L 152.328451 263.698759 
L 152.739781 263.698759 
L 152.739781 263.572883 
L 153.048369 263.572883 
L 153.071898 263.321131 
L 153.696309 263.321131 
L 153.764426 263.069379 
L 153.832297 263.069379 
L 153.922412 262.691752 
L 153.989717 262.691752 
L 154.034453 262.44 
L 154.322673 262.44 
L 154.322673 262.188248 
L 155.161749 262.188248 
L 155.161749 262.062372 
L 155.454055 262.062372 
L 155.454055 261.810621 
L 155.660098 261.810621 
L 155.660098 261.684745 
L 155.863909 261.684745 
L 155.863909 261.558869 
L 156.304668 261.558869 
L 156.403417 261.307117 
L 156.657763 261.307117 
L 156.657763 261.055366 
L 156.831855 261.055366 
L 156.831855 260.92949 
L 156.966156 260.92949 
L 156.966156 260.803614 
L 157.099504 260.803614 
L 157.099504 260.677738 
L 157.250754 260.677738 
L 157.250754 260.425986 
L 157.419468 260.425986 
L 157.475372 260.048359 
L 157.789059 260.048359 
L 157.898535 259.544855 
L 157.98928 259.544855 
L 157.98928 259.418979 
L 158.133569 259.418979 
L 158.133569 259.167228 
L 158.276759 259.167228 
L 158.312387 258.7896 
L 158.52475 258.7896 
L 158.612531 258.537848 
L 158.925196 258.537848 
L 158.925196 258.286097 
L 159.717911 258.286097 
L 159.717911 258.160221 
L 159.898714 258.160221 
L 159.964032 257.782593 
L 160.045361 257.782593 
L 160.061585 257.153214 
L 160.367209 257.153214 
L 160.430923 256.397959 
L 160.589271 256.397959 
L 160.589271 256.146207 
L 160.979404 256.146207 
L 160.979404 256.020331 
L 161.285788 256.020331 
L 161.391854 255.768579 
L 161.452196 255.768579 
L 161.452196 255.642703 
L 161.587261 255.642703 
L 161.587261 255.390952 
L 162.262846 255.390952 
L 162.334839 255.1392 
L 162.620084 255.1392 
L 162.620084 255.013324 
L 162.942856 255.013324 
L 162.942856 254.887448 
L 163.219095 254.887448 
L 163.219095 254.761572 
L 163.342092 254.761572 
L 163.342092 254.509821 
L 163.59914 254.509821 
L 163.59914 254.258069 
L 163.719684 254.258069 
L 163.719684 253.880441 
L 163.839461 253.880441 
L 163.839461 253.754566 
L 164.285191 253.754566 
L 164.285191 253.62869 
L 164.70794 253.62869 
L 164.80901 253.376938 
L 164.934588 253.376938 
L 164.959603 252.99931 
L 165.232599 252.99931 
L 165.232599 252.873434 
L 165.428682 252.873434 
L 165.489541 252.369931 
L 165.610672 252.369931 
L 165.610672 252.118179 
L 166.158043 252.118179 
L 166.263299 251.740552 
L 166.414303 251.740552 
L 166.448979 251.362924 
L 166.632844 251.362924 
L 166.678531 250.985297 
L 166.8036 250.985297 
L 166.860176 250.607669 
L 166.916583 250.607669 
L 166.916583 250.481793 
L 167.140533 250.481793 
L 167.196106 250.104166 
L 167.295726 250.104166 
L 167.383837 249.34891 
L 167.515233 249.34891 
L 167.515233 249.097159 
L 167.634879 249.097159 
L 167.634879 248.971283 
L 167.904005 248.971283 
L 167.94671 248.593655 
L 168.211442 248.593655 
L 168.284904 247.964276 
L 168.410176 247.964276 
L 168.410176 247.8384 
L 168.689024 247.8384 
L 168.689024 247.712524 
L 168.994082 247.712524 
L 169.064557 247.334897 
L 169.114734 247.334897 
L 169.204718 246.579641 
L 169.462279 246.579641 
L 169.462279 246.453766 
L 169.638546 246.453766 
L 169.687218 245.950262 
L 169.755147 245.950262 
L 169.842126 245.446759 
L 170.014887 245.446759 
L 170.033985 245.069131 
L 170.205 245.069131 
L 170.205 244.943255 
L 170.819081 244.943255 
L 170.855662 244.691503 
L 171.046551 244.691503 
L 171.154768 244.439752 
L 171.253422 244.439752 
L 171.351562 244.188 
L 171.669213 244.188 
L 171.773916 243.684497 
L 171.869384 243.684497 
L 171.929885 243.432745 
L 172.127316 243.432745 
L 172.186995 242.929241 
L 172.297327 242.929241 
L 172.297327 242.803366 
L 172.4742 242.803366 
L 172.4742 242.67749 
L 172.954239 242.67749 
L 172.954239 242.551614 
L 173.076419 242.551614 
L 173.076419 242.425738 
L 173.334447 242.425738 
L 173.342453 242.173986 
L 173.454189 242.173986 
L 173.549438 241.796359 
L 173.61267 241.796359 
L 173.722818 241.418731 
L 174.241203 241.418731 
L 174.241203 241.041103 
L 174.355328 241.041103 
L 174.415913 240.5376 
L 174.708501 240.5376 
L 174.708501 240.411724 
L 174.930512 240.411724 
L 175.040543 239.908221 
L 175.149934 239.908221 
L 175.178998 239.404717 
L 175.265921 239.404717 
L 175.366826 239.152966 
L 175.431409 239.152966 
L 175.510044 238.649462 
L 175.687546 238.649462 
L 175.708734 238.271834 
L 175.954182 238.271834 
L 175.995939 237.894207 
L 176.086096 237.894207 
L 176.11375 237.390703 
L 176.223961 237.390703 
L 176.251413 237.013076 
L 176.97787 237.013076 
L 176.97787 236.8872 
L 177.200883 236.8872 
L 177.311405 236.257821 
L 177.350259 236.257821 
L 177.389032 235.754317 
L 177.46634 235.754317 
L 177.51129 235.37669 
L 177.709073 235.37669 
L 177.709073 235.250814 
L 178.129566 235.250814 
L 178.179151 234.74731 
L 178.296396 234.74731 
L 178.351679 234.117931 
L 178.431246 234.117931 
L 178.480044 233.614428 
L 178.961184 233.614428 
L 179.002704 232.859172 
L 179.337428 232.859172 
L 179.383934 232.607421 
L 179.517001 232.607421 
L 179.517001 232.355669 
L 179.706294 232.355669 
L 179.723408 232.103917 
L 180.034443 232.103917 
L 180.034443 231.852166 
L 180.151859 231.852166 
L 180.151859 231.72629 
L 180.488824 231.72629 
L 180.488824 231.474538 
L 180.636067 231.474538 
L 180.636067 231.222786 
L 180.803715 231.222786 
L 180.803715 230.971034 
L 181.182144 230.971034 
L 181.203239 230.593407 
L 181.392038 230.593407 
L 181.392038 230.341655 
L 181.57896 230.341655 
L 181.661445 229.964028 
L 181.916902 229.964028 
L 181.916902 229.712276 
L 182.313583 229.712276 
L 182.313583 229.5864 
L 182.437393 229.5864 
L 182.437393 229.460524 
L 182.584897 229.460524 
L 182.584897 229.208772 
L 182.750681 229.208772 
L 182.770089 228.705269 
L 182.89094 228.705269 
L 182.89094 228.579393 
L 183.006231 228.579393 
L 183.063612 227.824138 
L 183.201566 227.824138 
L 183.215779 227.320634 
L 183.609459 227.320634 
L 183.68352 226.313628 
L 183.780285 226.313628 
L 183.780285 226.061876 
L 184.117353 226.061876 
L 184.216409 225.684248 
L 184.470653 225.684248 
L 184.470653 225.558372 
L 184.633869 225.558372 
L 184.64704 225.054869 
L 184.778254 225.054869 
L 184.778254 224.803117 
L 185.217655 224.803117 
L 185.217655 224.551366 
L 185.492405 224.551366 
L 185.509182 224.299614 
L 185.663667 224.299614 
L 185.663667 224.047862 
L 185.821017 224.047862 
L 185.907413 223.166731 
L 186.107472 223.166731 
L 186.143988 222.663228 
L 186.281299 222.663228 
L 186.35359 222.2856 
L 187.061614 222.2856 
L 187.061614 222.159724 
L 187.284193 222.159724 
L 187.383121 221.782097 
L 187.755118 221.782097 
L 187.755118 221.656221 
L 188.441908 221.656221 
L 188.441908 221.404469 
L 190.624078 221.404469 
L 190.624078 221.278593 
L 191.396986 221.278593 
L 191.396986 221.026841 
L 191.719182 221.026841 
L 191.77936 220.77509 
L 192.946997 220.77509 
L 192.946997 220.523338 
L 194.152595 220.523338 
L 194.152595 220.397462 
L 194.713475 220.397462 
L 194.713475 220.271586 
L 196.4856 220.271586 
L 196.4856 220.14571 
L 197.059217 220.14571 
L 197.059217 219.893959 
L 197.206121 219.893959 
L 197.289234 219.516331 
L 217.475335 219.516331 
L 217.475335 219.264579 
L 218.253803 219.264579 
L 218.308142 218.886952 
L 219.352804 218.886952 
L 219.352804 218.6352 
L 219.843684 218.6352 
L 219.843684 218.509324 
L 220.626605 218.509324 
L 220.626605 218.383448 
L 221.569102 218.383448 
L 221.569102 218.131697 
L 221.850598 218.131697 
L 221.850598 217.879945 
L 222.493643 217.879945 
L 222.493643 217.754069 
L 223.439169 217.754069 
L 223.439169 217.628193 
L 223.5843 217.628193 
L 223.5843 217.502317 
L 223.887058 217.502317 
L 223.887058 217.376441 
L 224.624085 217.376441 
L 224.624085 217.250566 
L 224.767671 217.250566 
L 224.767671 216.998814 
L 224.941118 216.998814 
L 224.941118 216.747062 
L 225.238697 216.747062 
L 225.238697 216.621186 
L 225.567569 216.621186 
L 225.567569 216.369434 
L 225.955358 216.369434 
L 225.955358 216.117683 
L 226.08335 216.117683 
L 226.08335 215.991807 
L 226.334836 215.991807 
L 226.334836 215.865931 
L 227.156055 215.865931 
L 227.156055 215.740055 
L 227.621209 215.740055 
L 227.621209 215.488303 
L 229.029528 215.488303 
L 229.029528 215.362428 
L 230.287427 215.362428 
L 230.287427 215.110676 
L 230.414992 215.110676 
L 230.414992 214.858924 
L 231.398209 214.858924 
L 231.434737 214.481297 
L 231.791872 214.481297 
L 231.803326 214.103669 
L 231.983175 214.103669 
L 231.983175 213.977793 
L 232.309253 213.977793 
L 232.309253 213.851917 
L 232.7353 213.851917 
L 232.7353 213.600166 
L 233.569597 213.600166 
L 233.591085 213.222538 
L 236.170216 213.222538 
L 236.170216 213.096662 
L 237.475473 213.096662 
L 237.475473 212.84491 
L 237.819065 212.84491 
L 237.819065 212.593159 
L 238.302966 212.593159 
L 238.302966 212.467283 
L 239.308092 212.467283 
L 239.308092 212.215531 
L 239.679475 212.215531 
L 239.679475 211.963779 
L 240.096013 211.963779 
L 240.096013 211.837903 
L 240.317381 211.837903 
L 240.317381 211.586152 
L 240.500823 211.586152 
L 240.540222 211.208524 
L 240.663065 211.208524 
L 240.719733 210.705021 
L 241.309622 210.705021 
L 241.309622 210.453269 
L 241.833766 210.453269 
L 241.833766 210.201517 
L 242.646133 210.201517 
L 242.646133 210.075641 
L 243.646577 210.075641 
L 243.646577 209.82389 
L 243.994359 209.82389 
L 243.994359 209.572138 
L 244.274706 209.572138 
L 244.28079 209.19451 
L 244.790362 209.19451 
L 244.790362 209.068634 
L 245.88906 209.068634 
L 245.88906 208.942759 
L 247.437271 208.942759 
L 247.437271 208.816883 
L 247.569914 208.816883 
L 247.569914 208.691007 
L 248.458215 208.691007 
L 248.458215 208.439255 
L 249.337475 208.439255 
L 249.337475 208.187503 
L 252.037247 208.187503 
L 252.037247 207.935752 
L 252.167518 207.935752 
L 252.167518 207.809876 
L 252.294364 207.809876 
L 252.340541 207.432248 
L 252.50937 207.432248 
L 252.50937 207.180497 
L 252.647415 207.180497 
L 252.647415 207.054621 
L 253.097615 207.054621 
L 253.097615 206.802869 
L 254.165155 206.802869 
L 254.212294 206.425241 
L 254.511304 206.425241 
L 254.511304 206.17349 
L 255.544325 206.17349 
L 255.594804 205.54411 
L 256.457286 205.54411 
L 256.457286 205.292359 
L 257.57011 205.292359 
L 257.63775 205.040607 
L 258.575725 205.040607 
L 258.575725 204.788855 
L 258.818161 204.788855 
L 258.818161 204.537103 
L 259.081952 204.537103 
L 259.081952 204.411228 
L 259.2657 204.411228 
L 259.2657 204.159476 
L 259.49634 204.159476 
L 259.49634 204.0336 
L 259.640533 204.0336 
L 259.640533 203.781848 
L 260.785399 203.781848 
L 260.785399 203.655972 
L 261.009682 203.655972 
L 261.009682 203.530097 
L 261.184696 203.530097 
L 261.184696 203.404221 
L 261.837257 203.404221 
L 261.837257 203.278345 
L 262.885173 203.278345 
L 262.885173 203.152469 
L 263.588795 203.152469 
L 263.588795 203.026593 
L 264.480537 203.026593 
L 264.576545 202.648966 
L 265.744871 202.648966 
L 265.826268 202.019586 
L 265.973647 202.019586 
L 265.973647 201.767834 
L 267.351289 201.767834 
L 267.351289 201.516083 
L 268.202798 201.516083 
L 268.202798 201.390207 
L 270.22942 201.390207 
L 270.283683 201.138455 
L 270.767155 201.138455 
L 270.855968 200.509076 
L 270.929257 200.509076 
L 270.958788 200.131448 
L 271.524582 200.131448 
L 271.524582 200.005572 
L 271.640619 200.005572 
L 271.696717 199.502069 
L 271.7568 199.502069 
L 271.7568 199.376193 
L 272.481536 199.376193 
L 272.481536 199.124441 
L 272.76486 199.124441 
L 272.76486 198.998566 
L 273.434471 198.998566 
L 273.434471 198.746814 
L 360.8064 198.746814 
L 360.8064 198.746814 
" style="fill: none; stroke: #ff00ff; stroke-width: 1.5; stroke-linecap: square"/>
   </g>
   <g id="line2d_41">
    <defs>
     <path id="mb37678eabf" d="M 0 8.485281 
L 5.091169 0 
L 0 -8.485281 
L -5.091169 0 
z
" style="stroke: #ff00ff; stroke-width: 1.5; stroke-linejoin: miter"/>
    </defs>
    <g>
     <use xlink:href="#mb37678eabf" x="108.791791" y="282.328386" style="fill-opacity: 0; stroke: #ff00ff; stroke-width: 1.5; stroke-linejoin: miter"/>
     <use xlink:href="#mb37678eabf" x="184.216409" y="225.810124" style="fill-opacity: 0; stroke: #ff00ff; stroke-width: 1.5; stroke-linejoin: miter"/>
     <use xlink:href="#mb37678eabf" x="249.337475" y="208.439255" style="fill-opacity: 0; stroke: #ff00ff; stroke-width: 1.5; stroke-linejoin: miter"/>
     <use xlink:href="#mb37678eabf" x="273.434471" y="198.746814" style="fill-opacity: 0; stroke: #ff00ff; stroke-width: 1.5; stroke-linejoin: miter"/>
     <use xlink:href="#mb37678eabf" x="273.434471" y="198.746814" style="fill-opacity: 0; stroke: #ff00ff; stroke-width: 1.5; stroke-linejoin: miter"/>
     <use xlink:href="#mb37678eabf" x="360.8064" y="198.746814" style="fill-opacity: 0; stroke: #ff00ff; stroke-width: 1.5; stroke-linejoin: miter"/>
    </g>
   </g>
   <g id="line2d_42">
    <path style="fill: none; stroke: #ff00ff; stroke-width: 1.5; stroke-linecap: square"/>
    <g/>
   </g>
   <g id="line2d_43">
    <path d="M 274.176038 198.746814 
" clip-path="url(#p627f3a3aba)" style="fill: none; stroke: #ff00ff; stroke-width: 1.5; stroke-linecap: square"/>
    <defs>
     <path id="mc136cded25" d="M -12 12 
L 12 -12 
M -12 -12 
L 12 12 
" style="stroke: #ff00ff"/>
    </defs>
    <g clip-path="url(#p627f3a3aba)">
     <use xlink:href="#mc136cded25" x="274.176038" y="198.746814" style="fill: #ff00ff; stroke: #ff00ff"/>
    </g>
   </g>
   <g id="line2d_44">
    <defs>
     <path id="me66c53dc16" d="M 0 1.5 
C 0.397805 1.5 0.77937 1.341951 1.06066 1.06066 
C 1.341951 0.77937 1.5 0.397805 1.5 0 
C 1.5 -0.397805 1.341951 -0.77937 1.06066 -1.06066 
C 0.77937 -1.341951 0.397805 -1.5 0 -1.5 
C -0.397805 -1.5 -0.77937 -1.341951 -1.06066 -1.06066 
C -1.341951 -0.77937 -1.5 -0.397805 -1.5 0 
C -1.5 0.397805 -1.341951 0.77937 -1.06066 1.06066 
C -0.77937 1.341951 -0.397805 1.5 0 1.5 
z
" style="stroke: #6495ed"/>
    </defs>
    <g>
     <use xlink:href="#me66c53dc16" x="113.954374" y="269.489048" style="fill: #6495ed; stroke: #6495ed"/>
     <use xlink:href="#me66c53dc16" x="113.954374" y="269.489048" style="fill: #6495ed; stroke: #6495ed"/>
    </g>
   </g>
   <g id="line2d_45">
    <path d="M 27.323974 298.944 
L 27.323974 297.559366 
L 40.363149 297.559366 
L 40.363149 295.167724 
L 47.990577 295.167724 
L 47.990577 294.790097 
L 53.402323 294.790097 
L 53.402323 293.405462 
L 57.6 293.405462 
L 57.6 292.650207 
L 61.029752 292.650207 
L 61.029752 291.265572 
L 63.929565 291.265572 
L 63.929565 290.887945 
L 66.441498 290.887945 
L 66.441498 290.13269 
L 68.65718 290.13269 
L 68.65718 289.755062 
L 70.639174 289.755062 
L 70.639174 289.50331 
L 72.432107 289.50331 
L 72.432107 288.999807 
L 74.068926 288.999807 
L 74.068926 288.370428 
L 75.574654 288.370428 
L 75.574654 288.244552 
L 76.96874 288.244552 
L 76.96874 288.118676 
L 78.266603 288.118676 
L 78.266603 287.9928 
L 80.621116 287.9928 
L 80.621116 287.866924 
L 81.696354 287.866924 
L 81.696354 287.741048 
L 83.678349 287.741048 
L 83.678349 287.615172 
L 84.596168 287.615172 
L 84.596168 287.237545 
L 86.307488 287.237545 
L 86.307488 286.985793 
L 87.1081 286.985793 
L 87.1081 286.608166 
L 87.876026 286.608166 
L 87.876026 286.104662 
L 88.613828 286.104662 
L 88.613828 285.978786 
L 89.323782 285.978786 
L 89.323782 285.85291 
L 90.007914 285.85291 
L 90.007914 285.727034 
L 90.668036 285.727034 
L 90.668036 285.475283 
L 91.305777 285.475283 
L 91.305777 285.349407 
L 91.922605 285.349407 
L 91.922605 285.097655 
L 93.098709 285.097655 
L 93.098709 284.594152 
L 94.205591 284.594152 
L 94.205591 284.468276 
L 95.752617 284.468276 
L 95.752617 284.3424 
L 97.18203 284.3424 
L 97.18203 284.090648 
L 97.635342 284.090648 
L 97.635342 283.838897 
L 98.077987 283.838897 
L 98.077987 283.587145 
L 98.510456 283.587145 
L 98.510456 283.461269 
L 99.751228 283.461269 
L 99.751228 283.209517 
L 100.535156 283.209517 
L 100.535156 282.706014 
L 101.287718 282.706014 
L 101.287718 282.580138 
L 102.362957 282.580138 
L 102.362957 282.454262 
L 102.708132 282.454262 
L 102.708132 282.328386 
L 103.047088 282.328386 
L 103.047088 282.076634 
L 103.707211 282.076634 
L 103.707211 281.824883 
L 104.028784 281.824883 
L 104.028784 281.195503 
L 104.344952 281.195503 
L 104.344952 280.188497 
L 104.655893 280.188497 
L 104.655893 280.062621 
L 104.961779 280.062621 
L 104.961779 279.307366 
L 105.26277 279.307366 
L 105.26277 277.922731 
L 105.559021 277.922731 
L 105.559021 277.545103 
L 105.850679 277.545103 
L 105.850679 277.0416 
L 106.137884 277.0416 
L 106.137884 276.663972 
L 106.42077 276.663972 
L 106.42077 276.034593 
L 106.699465 276.034593 
L 106.699465 275.908717 
L 106.974091 275.908717 
L 106.974091 275.153462 
L 107.244765 275.153462 
L 107.244765 274.90171 
L 107.5116 274.90171 
L 107.5116 274.398207 
L 107.774703 274.398207 
L 107.774703 274.272331 
L 108.034177 274.272331 
L 108.034177 274.020579 
L 108.542628 274.020579 
L 108.542628 273.768828 
L 109.756698 273.768828 
L 109.756698 273.642952 
L 109.990385 273.642952 
L 109.990385 273.265324 
L 110.221204 273.265324 
L 110.221204 273.139448 
L 110.674517 273.139448 
L 110.674517 272.761821 
L 110.897141 272.761821 
L 110.897141 272.635945 
L 111.117162 272.635945 
L 111.117162 272.384193 
L 111.54963 272.384193 
L 111.54963 272.132441 
L 111.97238 272.132441 
L 111.97238 271.754814 
L 112.180244 271.754814 
L 112.180244 271.377186 
L 112.385837 271.377186 
L 112.385837 270.999559 
L 112.989468 270.999559 
L 112.989468 270.496055 
L 113.57433 270.496055 
L 113.57433 270.118428 
L 113.765312 270.118428 
L 113.765312 269.866676 
L 113.954374 269.866676 
L 113.954374 269.489048 
L 360.8064 269.489048 
L 360.8064 269.489048 
" style="fill: none; stroke: #6495ed; stroke-width: 1.5; stroke-linecap: square"/>
   </g>
   <g id="line2d_46">
    <defs>
     <path id="m5a236ba4cb" d="M -0 6 
L 6 -6 
L -6 -6 
z
" style="stroke: #6495ed; stroke-width: 1.5; stroke-linejoin: miter"/>
    </defs>
    <g>
     <use xlink:href="#m5a236ba4cb" x="83.678349" y="287.741048" style="fill-opacity: 0; stroke: #6495ed; stroke-width: 1.5; stroke-linejoin: miter"/>
     <use xlink:href="#m5a236ba4cb" x="113.954374" y="269.866676" style="fill-opacity: 0; stroke: #6495ed; stroke-width: 1.5; stroke-linejoin: miter"/>
     <use xlink:href="#m5a236ba4cb" x="113.954374" y="269.866676" style="fill-opacity: 0; stroke: #6495ed; stroke-width: 1.5; stroke-linejoin: miter"/>
     <use xlink:href="#m5a236ba4cb" x="113.954374" y="269.489048" style="fill-opacity: 0; stroke: #6495ed; stroke-width: 1.5; stroke-linejoin: miter"/>
     <use xlink:href="#m5a236ba4cb" x="113.954374" y="269.489048" style="fill-opacity: 0; stroke: #6495ed; stroke-width: 1.5; stroke-linejoin: miter"/>
     <use xlink:href="#m5a236ba4cb" x="360.8064" y="269.489048" style="fill-opacity: 0; stroke: #6495ed; stroke-width: 1.5; stroke-linejoin: miter"/>
    </g>
   </g>
   <g id="line2d_47">
    <path style="fill: none; stroke: #6495ed; stroke-width: 1.5; stroke-linecap: square"/>
    <g/>
   </g>
   <g id="line2d_48">
    <path d="M 113.954374 269.489048 
" clip-path="url(#p627f3a3aba)" style="fill: none; stroke: #6495ed; stroke-width: 1.5; stroke-linecap: square"/>
    <defs>
     <path id="m33dc7f306b" d="M -12 12 
L 12 -12 
M -12 -12 
L 12 12 
" style="stroke: #6495ed"/>
    </defs>
    <g clip-path="url(#p627f3a3aba)">
     <use xlink:href="#m33dc7f306b" x="113.954374" y="269.489048" style="fill: #6495ed; stroke: #6495ed"/>
    </g>
   </g>
   <g id="line2d_49">
    <path d="M 360.8064 282.076634 
L 380.514816 293.10336 
" style="fill: none; stroke: #000080; stroke-width: 1.5; stroke-linecap: square"/>
    <g>
     <use xlink:href="#m7e665807b4" x="360.8064" y="282.076634" style="fill-opacity: 0; stroke: #000080; stroke-width: 1.5"/>
     <use xlink:href="#m7e665807b4" x="380.514816" y="293.10336" style="fill-opacity: 0; stroke: #000080; stroke-width: 1.5"/>
    </g>
   </g>
   <g id="line2d_50">
    <path d="M 360.8064 269.489048 
L 380.514816 199.65312 
" style="fill: none; stroke: #6495ed; stroke-width: 1.5; stroke-linecap: square"/>
    <g>
     <use xlink:href="#m5a236ba4cb" x="360.8064" y="269.489048" style="fill-opacity: 0; stroke: #6495ed; stroke-width: 1.5; stroke-linejoin: miter"/>
     <use xlink:href="#m5a236ba4cb" x="380.514816" y="199.65312" style="fill-opacity: 0; stroke: #6495ed; stroke-width: 1.5; stroke-linejoin: miter"/>
    </g>
   </g>
   <g id="line2d_51">
    <path d="M 360.8064 198.746814 
L 380.514816 106.20288 
" style="fill: none; stroke: #ff00ff; stroke-width: 1.5; stroke-linecap: square"/>
    <g>
     <use xlink:href="#mb37678eabf" x="360.8064" y="198.746814" style="fill-opacity: 0; stroke: #ff00ff; stroke-width: 1.5; stroke-linejoin: miter"/>
     <use xlink:href="#mb37678eabf" x="380.514816" y="106.20288" style="fill-opacity: 0; stroke: #ff00ff; stroke-width: 1.5; stroke-linejoin: miter"/>
    </g>
   </g>
   <g id="line2d_52">
    <path d="M 360.8064 298.944 
L 360.8064 6.912 
" style="fill: none; stroke: #000000; stroke-width: 1.5; stroke-linecap: square"/>
   </g>
   <g id="patch_3">
    <path d="M 57.6 298.944 
L 360.8064 298.944 
" style="fill: none; stroke: #000000; stroke-width: 0.8; stroke-linejoin: miter; stroke-linecap: square"/>
   </g>
   <g id="patch_4">
    <path d="M 57.6 6.912 
L 360.8064 6.912 
" style="fill: none; stroke: #000000; stroke-width: 0.8; stroke-linejoin: miter; stroke-linecap: square"/>
   </g>
   <g id="text_13">
    <!-- cma -->
    <g transform="translate(386.578944 296.966485)scale(0.14 -0.14)">
     <use xlink:href="#DejaVuSans-63"/>
     <use xlink:href="#DejaVuSans-6d" x="54.980469"/>
     <use xlink:href="#DejaVuSans-61" x="152.392578"/>
    </g>
   </g>
   <g id="text_14">
    <!-- parEgo -->
    <g transform="translate(386.578944 203.516245)scale(0.14 -0.14)">
     <defs>
      <path id="DejaVuSans-45" d="M 628 4666 
L 3578 4666 
L 3578 4134 
L 1259 4134 
L 1259 2753 
L 3481 2753 
L 3481 2222 
L 1259 2222 
L 1259 531 
L 3634 531 
L 3634 0 
L 628 0 
L 628 4666 
z
" transform="scale(0.015625)"/>
     </defs>
     <use xlink:href="#DejaVuSans-70"/>
     <use xlink:href="#DejaVuSans-61" x="63.476562"/>
     <use xlink:href="#DejaVuSans-72" x="124.755859"/>
     <use xlink:href="#DejaVuSans-45" x="165.869141"/>
     <use xlink:href="#DejaVuSans-67" x="229.052734"/>
     <use xlink:href="#DejaVuSans-6f" x="292.529297"/>
    </g>
   </g>
   <g id="text_15">
    <!-- external- -->
    <g transform="translate(386.578944 110.066005)scale(0.14 -0.14)">
     <defs>
      <path id="DejaVuSans-78" d="M 3513 3500 
L 2247 1797 
L 3578 0 
L 2900 0 
L 1881 1375 
L 863 0 
L 184 0 
L 1544 1831 
L 300 3500 
L 978 3500 
L 1906 2253 
L 2834 3500 
L 3513 3500 
z
" transform="scale(0.015625)"/>
     </defs>
     <use xlink:href="#DejaVuSans-65"/>
     <use xlink:href="#DejaVuSans-78" x="59.773438"/>
     <use xlink:href="#DejaVuSans-74" x="118.953125"/>
     <use xlink:href="#DejaVuSans-65" x="158.162109"/>
     <use xlink:href="#DejaVuSans-72" x="219.685547"/>
     <use xlink:href="#DejaVuSans-6e" x="259.048828"/>
     <use xlink:href="#DejaVuSans-61" x="322.427734"/>
     <use xlink:href="#DejaVuSans-6c" x="383.707031"/>
     <use xlink:href="#DejaVuSans-2d" x="411.490234"/>
    </g>
   </g>
   <g id="text_16">
    <!-- best 2016 -->
    <g transform="translate(386.578944 16.615765)scale(0.14 -0.14)">
     <defs>
      <path id="DejaVuSans-62" d="M 3116 1747 
Q 3116 2381 2855 2742 
Q 2594 3103 2138 3103 
Q 1681 3103 1420 2742 
Q 1159 2381 1159 1747 
Q 1159 1113 1420 752 
Q 1681 391 2138 391 
Q 2594 391 2855 752 
Q 3116 1113 3116 1747 
z
M 1159 2969 
Q 1341 3281 1617 3432 
Q 1894 3584 2278 3584 
Q 2916 3584 3314 3078 
Q 3713 2572 3713 1747 
Q 3713 922 3314 415 
Q 2916 -91 2278 -91 
Q 1894 -91 1617 61 
Q 1341 213 1159 525 
L 1159 0 
L 581 0 
L 581 4863 
L 1159 4863 
L 1159 2969 
z
" transform="scale(0.015625)"/>
     </defs>
     <use xlink:href="#DejaVuSans-62"/>
     <use xlink:href="#DejaVuSans-65" x="63.476562"/>
     <use xlink:href="#DejaVuSans-73" x="125"/>
     <use xlink:href="#DejaVuSans-74" x="177.099609"/>
     <use xlink:href="#DejaVuSans-20" x="216.308594"/>
     <use xlink:href="#DejaVuSans-32" x="248.095703"/>
     <use xlink:href="#DejaVuSans-30" x="311.71875"/>
     <use xlink:href="#DejaVuSans-31" x="375.341797"/>
     <use xlink:href="#DejaVuSans-36" x="438.964844"/>
    </g>
   </g>
   <g id="text_17">
    <!-- bbob-biobj f48, f49, f51, f52, 5-D -->
    <g transform="translate(60.632064 17.582726)scale(0.102 -0.102)">
     <defs>
      <path id="DejaVuSans-6a" d="M 603 3500 
L 1178 3500 
L 1178 -63 
Q 1178 -731 923 -1031 
Q 669 -1331 103 -1331 
L -116 -1331 
L -116 -844 
L 38 -844 
Q 366 -844 484 -692 
Q 603 -541 603 -63 
L 603 3500 
z
M 603 4863 
L 1178 4863 
L 1178 4134 
L 603 4134 
L 603 4863 
z
" transform="scale(0.015625)"/>
      <path id="DejaVuSans-39" d="M 703 97 
L 703 672 
Q 941 559 1184 500 
Q 1428 441 1663 441 
Q 2288 441 2617 861 
Q 2947 1281 2994 2138 
Q 2813 1869 2534 1725 
Q 2256 1581 1919 1581 
Q 1219 1581 811 2004 
Q 403 2428 403 3163 
Q 403 3881 828 4315 
Q 1253 4750 1959 4750 
Q 2769 4750 3195 4129 
Q 3622 3509 3622 2328 
Q 3622 1225 3098 567 
Q 2575 -91 1691 -91 
Q 1453 -91 1209 -44 
Q 966 3 703 97 
z
M 1959 2075 
Q 2384 2075 2632 2365 
Q 2881 2656 2881 3163 
Q 2881 3666 2632 3958 
Q 2384 4250 1959 4250 
Q 1534 4250 1286 3958 
Q 1038 3666 1038 3163 
Q 1038 2656 1286 2365 
Q 1534 2075 1959 2075 
z
" transform="scale(0.015625)"/>
      <path id="DejaVuSans-35" d="M 691 4666 
L 3169 4666 
L 3169 4134 
L 1269 4134 
L 1269 2991 
Q 1406 3038 1543 3061 
Q 1681 3084 1819 3084 
Q 2600 3084 3056 2656 
Q 3513 2228 3513 1497 
Q 3513 744 3044 326 
Q 2575 -91 1722 -91 
Q 1428 -91 1123 -41 
Q 819 9 494 109 
L 494 744 
Q 775 591 1075 516 
Q 1375 441 1709 441 
Q 2250 441 2565 725 
Q 2881 1009 2881 1497 
Q 2881 1984 2565 2268 
Q 2250 2553 1709 2553 
Q 1456 2553 1204 2497 
Q 953 2441 691 2322 
L 691 4666 
z
" transform="scale(0.015625)"/>
      <path id="DejaVuSans-44" d="M 1259 4147 
L 1259 519 
L 2022 519 
Q 2988 519 3436 956 
Q 3884 1394 3884 2338 
Q 3884 3275 3436 3711 
Q 2988 4147 2022 4147 
L 1259 4147 
z
M 628 4666 
L 1925 4666 
Q 3281 4666 3915 4102 
Q 4550 3538 4550 2338 
Q 4550 1131 3912 565 
Q 3275 0 1925 0 
L 628 0 
L 628 4666 
z
" transform="scale(0.015625)"/>
     </defs>
     <use xlink:href="#DejaVuSans-62"/>
     <use xlink:href="#DejaVuSans-62" x="63.476562"/>
     <use xlink:href="#DejaVuSans-6f" x="126.953125"/>
     <use xlink:href="#DejaVuSans-62" x="188.134766"/>
     <use xlink:href="#DejaVuSans-2d" x="251.611328"/>
     <use xlink:href="#DejaVuSans-62" x="287.695312"/>
     <use xlink:href="#DejaVuSans-69" x="351.171875"/>
     <use xlink:href="#DejaVuSans-6f" x="378.955078"/>
     <use xlink:href="#DejaVuSans-62" x="440.136719"/>
     <use xlink:href="#DejaVuSans-6a" x="503.613281"/>
     <use xlink:href="#DejaVuSans-20" x="531.396484"/>
     <use xlink:href="#DejaVuSans-66" x="563.183594"/>
     <use xlink:href="#DejaVuSans-34" x="598.388672"/>
     <use xlink:href="#DejaVuSans-38" x="662.011719"/>
     <use xlink:href="#DejaVuSans-2c" x="725.634766"/>
     <use xlink:href="#DejaVuSans-20" x="757.421875"/>
     <use xlink:href="#DejaVuSans-66" x="789.208984"/>
     <use xlink:href="#DejaVuSans-34" x="824.414062"/>
     <use xlink:href="#DejaVuSans-39" x="888.037109"/>
     <use xlink:href="#DejaVuSans-2c" x="951.660156"/>
     <use xlink:href="#DejaVuSans-20" x="983.447266"/>
     <use xlink:href="#DejaVuSans-66" x="1015.234375"/>
     <use xlink:href="#DejaVuSans-35" x="1050.439453"/>
     <use xlink:href="#DejaVuSans-31" x="1114.0625"/>
     <use xlink:href="#DejaVuSans-2c" x="1177.685547"/>
     <use xlink:href="#DejaVuSans-20" x="1209.472656"/>
     <use xlink:href="#DejaVuSans-66" x="1241.259766"/>
     <use xlink:href="#DejaVuSans-35" x="1276.464844"/>
     <use xlink:href="#DejaVuSans-32" x="1340.087891"/>
     <use xlink:href="#DejaVuSans-2c" x="1403.710938"/>
     <use xlink:href="#DejaVuSans-20" x="1435.498047"/>
     <use xlink:href="#DejaVuSans-35" x="1467.285156"/>
     <use xlink:href="#DejaVuSans-2d" x="1530.908203"/>
     <use xlink:href="#DejaVuSans-44" x="1566.992188"/>
    </g>
    <!-- 58 targets: 1..-1.0e-4 -->
    <g transform="translate(60.632064 29.004495)scale(0.102 -0.102)">
     <defs>
      <path id="DejaVuSans-3a" d="M 750 794 
L 1409 794 
L 1409 0 
L 750 0 
L 750 794 
z
M 750 3309 
L 1409 3309 
L 1409 2516 
L 750 2516 
L 750 3309 
z
" transform="scale(0.015625)"/>
     </defs>
     <use xlink:href="#DejaVuSans-35"/>
     <use xlink:href="#DejaVuSans-38" x="63.623047"/>
     <use xlink:href="#DejaVuSans-20" x="127.246094"/>
     <use xlink:href="#DejaVuSans-74" x="159.033203"/>
     <use xlink:href="#DejaVuSans-61" x="198.242188"/>
     <use xlink:href="#DejaVuSans-72" x="259.521484"/>
     <use xlink:href="#DejaVuSans-67" x="298.884766"/>
     <use xlink:href="#DejaVuSans-65" x="362.361328"/>
     <use xlink:href="#DejaVuSans-74" x="423.884766"/>
     <use xlink:href="#DejaVuSans-73" x="463.09375"/>
     <use xlink:href="#DejaVuSans-3a" x="515.193359"/>
     <use xlink:href="#DejaVuSans-20" x="548.884766"/>
     <use xlink:href="#DejaVuSans-31" x="580.671875"/>
     <use xlink:href="#DejaVuSans-2e" x="644.294922"/>
     <use xlink:href="#DejaVuSans-2e" x="676.082031"/>
     <use xlink:href="#DejaVuSans-2d" x="707.869141"/>
     <use xlink:href="#DejaVuSans-31" x="743.953125"/>
     <use xlink:href="#DejaVuSans-2e" x="807.576172"/>
     <use xlink:href="#DejaVuSans-30" x="839.363281"/>
     <use xlink:href="#DejaVuSans-65" x="902.986328"/>
     <use xlink:href="#DejaVuSans-2d" x="964.509766"/>
     <use xlink:href="#DejaVuSans-34" x="1000.59375"/>
    </g>
    <!-- 10 instances -->
    <g transform="translate(60.632064 40.426264)scale(0.102 -0.102)">
     <use xlink:href="#DejaVuSans-31"/>
     <use xlink:href="#DejaVuSans-30" x="63.623047"/>
     <use xlink:href="#DejaVuSans-20" x="127.246094"/>
     <use xlink:href="#DejaVuSans-69" x="159.033203"/>
     <use xlink:href="#DejaVuSans-6e" x="186.816406"/>
     <use xlink:href="#DejaVuSans-73" x="250.195312"/>
     <use xlink:href="#DejaVuSans-74" x="302.294922"/>
     <use xlink:href="#DejaVuSans-61" x="341.503906"/>
     <use xlink:href="#DejaVuSans-6e" x="402.783203"/>
     <use xlink:href="#DejaVuSans-63" x="466.162109"/>
     <use xlink:href="#DejaVuSans-65" x="521.142578"/>
     <use xlink:href="#DejaVuSans-73" x="582.666016"/>
    </g>
   </g>
   <g id="text_18">
    <!-- v2.6, hv-hash=ff0e71e8cd978373 -->
    <g style="fill: #808080" transform="translate(123.707887 293.943992)scale(0.1 -0.1)">
     <defs>
      <path id="DejaVuSans-68" d="M 3513 2113 
L 3513 0 
L 2938 0 
L 2938 2094 
Q 2938 2591 2744 2837 
Q 2550 3084 2163 3084 
Q 1697 3084 1428 2787 
Q 1159 2491 1159 1978 
L 1159 0 
L 581 0 
L 581 4863 
L 1159 4863 
L 1159 2956 
Q 1366 3272 1645 3428 
Q 1925 3584 2291 3584 
Q 2894 3584 3203 3211 
Q 3513 2838 3513 2113 
z
" transform="scale(0.015625)"/>
      <path id="DejaVuSans-3d" d="M 678 2906 
L 4684 2906 
L 4684 2381 
L 678 2381 
L 678 2906 
z
M 678 1631 
L 4684 1631 
L 4684 1100 
L 678 1100 
L 678 1631 
z
" transform="scale(0.015625)"/>
      <path id="DejaVuSans-37" d="M 525 4666 
L 3525 4666 
L 3525 4397 
L 1831 0 
L 1172 0 
L 2766 4134 
L 525 4134 
L 525 4666 
z
" transform="scale(0.015625)"/>
      <path id="DejaVuSans-33" d="M 2597 2516 
Q 3050 2419 3304 2112 
Q 3559 1806 3559 1356 
Q 3559 666 3084 287 
Q 2609 -91 1734 -91 
Q 1441 -91 1130 -33 
Q 819 25 488 141 
L 488 750 
Q 750 597 1062 519 
Q 1375 441 1716 441 
Q 2309 441 2620 675 
Q 2931 909 2931 1356 
Q 2931 1769 2642 2001 
Q 2353 2234 1838 2234 
L 1294 2234 
L 1294 2753 
L 1863 2753 
Q 2328 2753 2575 2939 
Q 2822 3125 2822 3475 
Q 2822 3834 2567 4026 
Q 2313 4219 1838 4219 
Q 1578 4219 1281 4162 
Q 984 4106 628 3988 
L 628 4550 
Q 988 4650 1302 4700 
Q 1616 4750 1894 4750 
Q 2613 4750 3031 4423 
Q 3450 4097 3450 3541 
Q 3450 3153 3228 2886 
Q 3006 2619 2597 2516 
z
" transform="scale(0.015625)"/>
     </defs>
     <use xlink:href="#DejaVuSans-76"/>
     <use xlink:href="#DejaVuSans-32" x="59.179688"/>
     <use xlink:href="#DejaVuSans-2e" x="122.802734"/>
     <use xlink:href="#DejaVuSans-36" x="154.589844"/>
     <use xlink:href="#DejaVuSans-2c" x="218.212891"/>
     <use xlink:href="#DejaVuSans-20" x="250"/>
     <use xlink:href="#DejaVuSans-68" x="281.787109"/>
     <use xlink:href="#DejaVuSans-76" x="345.166016"/>
     <use xlink:href="#DejaVuSans-2d" x="401.720703"/>
     <use xlink:href="#DejaVuSans-68" x="437.804688"/>
     <use xlink:href="#DejaVuSans-61" x="501.183594"/>
     <use xlink:href="#DejaVuSans-73" x="562.462891"/>
     <use xlink:href="#DejaVuSans-68" x="614.5625"/>
     <use xlink:href="#DejaVuSans-3d" x="677.941406"/>
     <use xlink:href="#DejaVuSans-66" x="761.730469"/>
     <use xlink:href="#DejaVuSans-66" x="796.935547"/>
     <use xlink:href="#DejaVuSans-30" x="832.140625"/>
     <use xlink:href="#DejaVuSans-65" x="895.763672"/>
     <use xlink:href="#DejaVuSans-37" x="957.287109"/>
     <use xlink:href="#DejaVuSans-31" x="1020.910156"/>
     <use xlink:href="#DejaVuSans-65" x="1084.533203"/>
     <use xlink:href="#DejaVuSans-38" x="1146.056641"/>
     <use xlink:href="#DejaVuSans-63" x="1209.679688"/>
     <use xlink:href="#DejaVuSans-64" x="1264.660156"/>
     <use xlink:href="#DejaVuSans-39" x="1328.136719"/>
     <use xlink:href="#DejaVuSans-37" x="1391.759766"/>
     <use xlink:href="#DejaVuSans-38" x="1455.382812"/>
     <use xlink:href="#DejaVuSans-33" x="1519.005859"/>
     <use xlink:href="#DejaVuSans-37" x="1582.628906"/>
     <use xlink:href="#DejaVuSans-33" x="1646.251953"/>
    </g>
   </g>
  </g>
 </g>
 <defs>
  <clipPath id="p627f3a3aba">
   <rect x="57.6" y="6.912" width="303.2064" height="292.032"/>
  </clipPath>
 </defs>
</svg>
