<?xml version="1.0" encoding="utf-8" standalone="no"?>
<!DOCTYPE svg PUBLIC "-//W3C//DTD SVG 1.1//EN"
  "http://www.w3.org/Graphics/SVG/1.1/DTD/svg11.dtd">
<svg xmlns:xlink="http://www.w3.org/1999/xlink" width="460.8pt" height="345.6pt" viewBox="0 0 460.8 345.6" xmlns="http://www.w3.org/2000/svg" version="1.1">
 <metadata>
  <rdf:RDF xmlns:dc="http://purl.org/dc/elements/1.1/" xmlns:cc="http://creativecommons.org/ns#" xmlns:rdf="http://www.w3.org/1999/02/22-rdf-syntax-ns#">
   <cc:Work>
    <dc:type rdf:resource="http://purl.org/dc/dcmitype/StillImage"/>
    <dc:date>2022-06-19T21:03:01.369521</dc:date>
    <dc:format>image/svg+xml</dc:format>
    <dc:creator>
     <cc:Agent>
      <dc:title>Matplotlib v3.5.1, https://matplotlib.org/</dc:title>
     </cc:Agent>
    </dc:creator>
   </cc:Work>
  </rdf:RDF>
 </metadata>
 <defs>
  <style type="text/css">*{stroke-linejoin: round; stroke-linecap: butt}</style>
 </defs>
 <g id="figure_1">
  <g id="patch_1">
   <path d="M 0 345.6 
L 460.8 345.6 
L 460.8 0 
L 0 0 
z
" style="fill: #ffffff"/>
  </g>
  <g id="axes_1">
   <g id="patch_2">
    <path d="M 57.6 298.944 
L 360.8064 298.944 
L 360.8064 6.912 
L 57.6 6.912 
z
" style="fill: #ffffff"/>
   </g>
   <g id="line2d_1">
    <path d="M 57.6 298.944 
L 57.6 297.685241 
L 65.227428 297.685241 
L 65.227428 296.426483 
L 70.639174 296.426483 
L 70.639174 293.908966 
L 74.836851 293.908966 
L 74.836851 288.873931 
L 78.266603 288.873931 
L 78.266603 286.356414 
L 81.166416 286.356414 
L 81.166416 283.838897 
L 83.678349 283.838897 
L 83.678349 281.321379 
L 89.668958 281.321379 
L 89.668958 280.062621 
L 91.305777 280.062621 
L 91.305777 277.545103 
L 97.857967 277.545103 
L 97.857967 273.768828 
L 102.708132 273.768828 
L 102.708132 271.25131 
L 105.850679 271.25131 
L 105.850679 268.733793 
L 111.442442 268.733793 
L 111.442442 266.216276 
L 113.478107 266.216276 
L 113.478107 264.957517 
L 117.772007 264.957517 
L 117.772007 263.698759 
L 121.265635 263.698759 
L 121.265635 262.44 
L 126.756923 262.44 
L 126.756923 259.922483 
L 133.983236 259.922483 
L 133.983236 256.146207 
L 135.835047 256.146207 
L 135.835047 252.369931 
L 138.566146 252.369931 
L 138.566146 251.111172 
L 144.968202 251.111172 
L 145.058426 243.558621 
L 147.022411 243.558621 
L 147.022411 241.041103 
L 147.581606 241.041103 
L 147.581606 238.523586 
L 151.41369 238.523586 
L 151.41369 237.264828 
L 151.857828 237.264828 
L 151.857828 234.74731 
L 153.478964 234.74731 
L 153.478964 233.488552 
L 153.821002 233.488552 
L 153.821002 230.971034 
L 157.269574 230.971034 
L 157.269574 229.712276 
L 158.673735 229.712276 
L 158.673735 227.194759 
L 158.976805 227.194759 
L 158.976805 224.677241 
L 160.816532 224.677241 
L 160.816532 222.159724 
L 162.845206 222.159724 
L 162.845206 219.642207 
L 163.260183 219.642207 
L 163.260183 217.12469 
L 165.604634 217.12469 
L 165.604634 213.348414 
L 166.972821 213.348414 
L 166.972821 209.572138 
L 167.196106 209.572138 
L 167.196106 205.795862 
L 168.248209 205.795862 
L 168.248209 204.537103 
L 169.491772 204.537103 
L 169.491772 202.019586 
L 169.808349 202.019586 
L 169.808349 199.502069 
L 170.28522 199.502069 
L 170.28522 196.984552 
L 173.718895 196.984552 
L 173.718895 193.208276 
L 174.562776 193.208276 
L 174.562776 190.690759 
L 176.350592 190.690759 
L 176.350592 188.173241 
L 176.822169 188.173241 
L 176.822169 185.655724 
L 178.262532 185.655724 
L 178.262532 184.396966 
L 179.955757 184.396966 
L 179.955757 181.879448 
L 182.702072 181.879448 
L 182.702072 179.361931 
L 183.995068 179.361931 
L 183.995068 176.844414 
L 186.058675 176.844414 
L 186.058675 173.068138 
L 187.04037 173.068138 
L 187.04037 171.809379 
L 187.908895 171.809379 
L 187.908895 169.291862 
L 188.827153 169.291862 
L 188.827153 168.033103 
L 189.702666 168.033103 
L 189.702666 166.774345 
L 192.618048 166.774345 
L 192.618048 162.998069 
L 194.029057 162.998069 
L 194.029057 159.221793 
L 194.313435 159.221793 
L 194.313435 157.963034 
L 195.298022 157.963034 
L 195.298022 154.186759 
L 196.381218 154.186759 
L 196.381218 152.928 
L 198.995779 152.928 
L 198.995779 149.151724 
L 201.716363 149.151724 
L 201.716363 147.892966 
L 202.049941 147.892966 
L 202.049941 144.11669 
L 203.405143 144.11669 
L 203.405143 141.599172 
L 204.255953 141.599172 
L 204.255953 140.340414 
L 208.433499 140.340414 
L 208.433499 139.081655 
L 213.517835 139.081655 
L 213.517835 135.305379 
L 215.232137 135.305379 
L 215.232137 131.529103 
L 216.004034 131.529103 
L 216.004034 127.752828 
L 217.453095 127.752828 
L 217.453095 126.494069 
L 224.999778 126.494069 
L 224.999778 125.23531 
L 225.656091 125.23531 
L 225.656091 121.459034 
L 229.591469 121.459034 
L 229.618617 116.424 
L 230.130069 116.424 
L 230.130069 113.906483 
L 231.591366 113.906483 
L 231.591366 112.647724 
L 231.782202 112.647724 
L 231.782202 111.388966 
L 233.014511 111.388966 
L 233.014511 107.61269 
L 233.551181 107.61269 
L 233.551181 103.836414 
L 235.591132 103.836414 
L 235.591132 102.577655 
L 235.779631 102.577655 
L 235.779631 98.801379 
L 236.291114 98.801379 
L 236.291114 97.542621 
L 237.811527 97.542621 
L 237.811527 95.025103 
L 238.206463 95.025103 
L 238.206463 91.248828 
L 238.461246 91.248828 
L 238.461246 88.73131 
L 239.229648 88.73131 
L 239.229648 84.955034 
L 241.633669 84.955034 
L 241.633669 82.437517 
L 241.968598 82.437517 
L 241.968598 79.92 
L 242.181576 79.92 
L 242.181576 77.402483 
L 242.693929 77.402483 
L 242.693929 76.143724 
L 246.11691 76.143724 
L 246.11691 73.626207 
L 247.046211 73.626207 
L 247.046211 72.367448 
L 247.435634 72.367448 
L 247.435634 69.849931 
L 247.73334 69.849931 
L 247.73334 67.332414 
L 250.80319 67.332414 
L 250.80319 66.073655 
L 252.634767 66.073655 
L 252.634767 63.556138 
L 253.433717 63.556138 
L 253.433717 59.779862 
L 256.504799 59.779862 
L 256.504799 57.262345 
L 257.977735 57.262345 
L 257.977735 53.486069 
L 261.411528 53.486069 
L 261.411528 52.22731 
L 265.304681 52.22731 
L 265.304681 49.709793 
L 266.766785 49.709793 
L 266.766785 45.933517 
L 270.032798 45.933517 
L 270.032798 42.157241 
L 360.8064 42.157241 
L 360.8064 42.157241 
" style="fill: none; stroke: #f5deb3; stroke-width: 4; stroke-linecap: square"/>
   </g>
   <g id="line2d_2">
    <defs>
     <path id="mf4be2241f8" d="M 0 7.778175 
L 7.778175 0 
L 0 -7.778175 
L -7.778175 0 
z
" style="stroke: #f5deb3; stroke-width: 1.5; stroke-linejoin: miter"/>
    </defs>
    <g>
     <use xlink:href="#mf4be2241f8" x="167.196106" y="209.572138" style="fill: #f5deb3; stroke: #f5deb3; stroke-width: 1.5; stroke-linejoin: miter"/>
     <use xlink:href="#mf4be2241f8" x="236.291114" y="97.542621" style="fill: #f5deb3; stroke: #f5deb3; stroke-width: 1.5; stroke-linejoin: miter"/>
     <use xlink:href="#mf4be2241f8" x="270.032798" y="42.157241" style="fill: #f5deb3; stroke: #f5deb3; stroke-width: 1.5; stroke-linejoin: miter"/>
     <use xlink:href="#mf4be2241f8" x="270.032798" y="42.157241" style="fill: #f5deb3; stroke: #f5deb3; stroke-width: 1.5; stroke-linejoin: miter"/>
     <use xlink:href="#mf4be2241f8" x="360.8064" y="42.157241" style="fill: #f5deb3; stroke: #f5deb3; stroke-width: 1.5; stroke-linejoin: miter"/>
    </g>
   </g>
   <g id="line2d_3">
    <path style="fill: none; stroke: #f5deb3; stroke-width: 4; stroke-linecap: square"/>
    <g/>
   </g>
   <g id="line2d_4">
    <path d="M 360.8064 42.157241 
L 380.514816 12.75264 
" style="fill: none; stroke: #f5deb3; stroke-width: 4; stroke-linecap: square"/>
    <g>
     <use xlink:href="#mf4be2241f8" x="360.8064" y="42.157241" style="fill: #f5deb3; stroke: #f5deb3; stroke-width: 1.5; stroke-linejoin: miter"/>
     <use xlink:href="#mf4be2241f8" x="380.514816" y="12.75264" style="fill: #f5deb3; stroke: #f5deb3; stroke-width: 1.5; stroke-linejoin: miter"/>
    </g>
   </g>
   <g id="matplotlib.axis_1">
    <g id="xtick_1">
     <g id="line2d_5">
      <path d="M 57.6 298.944 
L 57.6 6.912 
" clip-path="url(#p29cd7b6020)" style="fill: none; stroke: #b0b0b0; stroke-width: 0.8; stroke-linecap: square"/>
     </g>
     <g id="line2d_6">
      <defs>
       <path id="mea86bc4e34" d="M 0 0 
L 0 3.5 
" style="stroke: #000000; stroke-width: 0.8"/>
      </defs>
      <g>
       <use xlink:href="#mea86bc4e34" x="57.6" y="298.944" style="stroke: #000000; stroke-width: 0.8"/>
      </g>
     </g>
     <g id="text_1">
      <!-- 0 -->
      <g transform="translate(52.191875 318.861344)scale(0.17 -0.17)">
       <defs>
        <path id="DejaVuSans-30" d="M 2034 4250 
Q 1547 4250 1301 3770 
Q 1056 3291 1056 2328 
Q 1056 1369 1301 889 
Q 1547 409 2034 409 
Q 2525 409 2770 889 
Q 3016 1369 3016 2328 
Q 3016 3291 2770 3770 
Q 2525 4250 2034 4250 
z
M 2034 4750 
Q 2819 4750 3233 4129 
Q 3647 3509 3647 2328 
Q 3647 1150 3233 529 
Q 2819 -91 2034 -91 
Q 1250 -91 836 529 
Q 422 1150 422 2328 
Q 422 3509 836 4129 
Q 1250 4750 2034 4750 
z
" transform="scale(0.015625)"/>
       </defs>
       <use xlink:href="#DejaVuSans-30"/>
      </g>
     </g>
    </g>
    <g id="xtick_2">
     <g id="line2d_7">
      <path d="M 144.2304 298.944 
L 144.2304 6.912 
" clip-path="url(#p29cd7b6020)" style="fill: none; stroke: #b0b0b0; stroke-width: 0.8; stroke-linecap: square"/>
     </g>
     <g id="line2d_8">
      <g>
       <use xlink:href="#mea86bc4e34" x="144.2304" y="298.944" style="stroke: #000000; stroke-width: 0.8"/>
      </g>
     </g>
     <g id="text_2">
      <!-- 2 -->
      <g transform="translate(138.822275 318.861344)scale(0.17 -0.17)">
       <defs>
        <path id="DejaVuSans-32" d="M 1228 531 
L 3431 531 
L 3431 0 
L 469 0 
L 469 531 
Q 828 903 1448 1529 
Q 2069 2156 2228 2338 
Q 2531 2678 2651 2914 
Q 2772 3150 2772 3378 
Q 2772 3750 2511 3984 
Q 2250 4219 1831 4219 
Q 1534 4219 1204 4116 
Q 875 4013 500 3803 
L 500 4441 
Q 881 4594 1212 4672 
Q 1544 4750 1819 4750 
Q 2544 4750 2975 4387 
Q 3406 4025 3406 3419 
Q 3406 3131 3298 2873 
Q 3191 2616 2906 2266 
Q 2828 2175 2409 1742 
Q 1991 1309 1228 531 
z
" transform="scale(0.015625)"/>
       </defs>
       <use xlink:href="#DejaVuSans-32"/>
      </g>
     </g>
    </g>
    <g id="xtick_3">
     <g id="line2d_9">
      <path d="M 230.8608 298.944 
L 230.8608 6.912 
" clip-path="url(#p29cd7b6020)" style="fill: none; stroke: #b0b0b0; stroke-width: 0.8; stroke-linecap: square"/>
     </g>
     <g id="line2d_10">
      <g>
       <use xlink:href="#mea86bc4e34" x="230.8608" y="298.944" style="stroke: #000000; stroke-width: 0.8"/>
      </g>
     </g>
     <g id="text_3">
      <!-- 4 -->
      <g transform="translate(225.452675 318.861344)scale(0.17 -0.17)">
       <defs>
        <path id="DejaVuSans-34" d="M 2419 4116 
L 825 1625 
L 2419 1625 
L 2419 4116 
z
M 2253 4666 
L 3047 4666 
L 3047 1625 
L 3713 1625 
L 3713 1100 
L 3047 1100 
L 3047 0 
L 2419 0 
L 2419 1100 
L 313 1100 
L 313 1709 
L 2253 4666 
z
" transform="scale(0.015625)"/>
       </defs>
       <use xlink:href="#DejaVuSans-34"/>
      </g>
     </g>
    </g>
    <g id="xtick_4">
     <g id="line2d_11">
      <path d="M 317.4912 298.944 
L 317.4912 6.912 
" clip-path="url(#p29cd7b6020)" style="fill: none; stroke: #b0b0b0; stroke-width: 0.8; stroke-linecap: square"/>
     </g>
     <g id="line2d_12">
      <g>
       <use xlink:href="#mea86bc4e34" x="317.4912" y="298.944" style="stroke: #000000; stroke-width: 0.8"/>
      </g>
     </g>
     <g id="text_4">
      <!-- 6 -->
      <g transform="translate(312.083075 318.861344)scale(0.17 -0.17)">
       <defs>
        <path id="DejaVuSans-36" d="M 2113 2584 
Q 1688 2584 1439 2293 
Q 1191 2003 1191 1497 
Q 1191 994 1439 701 
Q 1688 409 2113 409 
Q 2538 409 2786 701 
Q 3034 994 3034 1497 
Q 3034 2003 2786 2293 
Q 2538 2584 2113 2584 
z
M 3366 4563 
L 3366 3988 
Q 3128 4100 2886 4159 
Q 2644 4219 2406 4219 
Q 1781 4219 1451 3797 
Q 1122 3375 1075 2522 
Q 1259 2794 1537 2939 
Q 1816 3084 2150 3084 
Q 2853 3084 3261 2657 
Q 3669 2231 3669 1497 
Q 3669 778 3244 343 
Q 2819 -91 2113 -91 
Q 1303 -91 875 529 
Q 447 1150 447 2328 
Q 447 3434 972 4092 
Q 1497 4750 2381 4750 
Q 2619 4750 2861 4703 
Q 3103 4656 3366 4563 
z
" transform="scale(0.015625)"/>
       </defs>
       <use xlink:href="#DejaVuSans-36"/>
      </g>
     </g>
    </g>
    <g id="xtick_5">
     <g id="line2d_13">
      <path d="M 100.9152 298.944 
L 100.9152 6.912 
" clip-path="url(#p29cd7b6020)" style="fill: none; stroke: #b0b0b0; stroke-width: 0.8; stroke-linecap: square"/>
     </g>
     <g id="line2d_14">
      <defs>
       <path id="m98b4e01828" d="M 0 0 
L 0 2 
" style="stroke: #000000; stroke-width: 0.6"/>
      </defs>
      <g>
       <use xlink:href="#m98b4e01828" x="100.9152" y="298.944" style="stroke: #000000; stroke-width: 0.6"/>
      </g>
     </g>
    </g>
    <g id="xtick_6">
     <g id="line2d_15">
      <path d="M 187.5456 298.944 
L 187.5456 6.912 
" clip-path="url(#p29cd7b6020)" style="fill: none; stroke: #b0b0b0; stroke-width: 0.8; stroke-linecap: square"/>
     </g>
     <g id="line2d_16">
      <g>
       <use xlink:href="#m98b4e01828" x="187.5456" y="298.944" style="stroke: #000000; stroke-width: 0.6"/>
      </g>
     </g>
    </g>
    <g id="xtick_7">
     <g id="line2d_17">
      <path d="M 274.176 298.944 
L 274.176 6.912 
" clip-path="url(#p29cd7b6020)" style="fill: none; stroke: #b0b0b0; stroke-width: 0.8; stroke-linecap: square"/>
     </g>
     <g id="line2d_18">
      <g>
       <use xlink:href="#m98b4e01828" x="274.176" y="298.944" style="stroke: #000000; stroke-width: 0.6"/>
      </g>
     </g>
    </g>
    <g id="xtick_8">
     <g id="line2d_19">
      <path d="M 360.8064 298.944 
L 360.8064 6.912 
" clip-path="url(#p29cd7b6020)" style="fill: none; stroke: #b0b0b0; stroke-width: 0.8; stroke-linecap: square"/>
     </g>
     <g id="line2d_20">
      <g>
       <use xlink:href="#m98b4e01828" x="360.8064" y="298.944" style="stroke: #000000; stroke-width: 0.6"/>
      </g>
     </g>
    </g>
    <g id="text_5">
     <!-- log10(# f-evals / dimension) -->
     <g transform="translate(88.823278 339.314156)scale(0.17 -0.17)">
      <defs>
       <path id="DejaVuSans-6c" d="M 603 4863 
L 1178 4863 
L 1178 0 
L 603 0 
L 603 4863 
z
" transform="scale(0.015625)"/>
       <path id="DejaVuSans-6f" d="M 1959 3097 
Q 1497 3097 1228 2736 
Q 959 2375 959 1747 
Q 959 1119 1226 758 
Q 1494 397 1959 397 
Q 2419 397 2687 759 
Q 2956 1122 2956 1747 
Q 2956 2369 2687 2733 
Q 2419 3097 1959 3097 
z
M 1959 3584 
Q 2709 3584 3137 3096 
Q 3566 2609 3566 1747 
Q 3566 888 3137 398 
Q 2709 -91 1959 -91 
Q 1206 -91 779 398 
Q 353 888 353 1747 
Q 353 2609 779 3096 
Q 1206 3584 1959 3584 
z
" transform="scale(0.015625)"/>
       <path id="DejaVuSans-67" d="M 2906 1791 
Q 2906 2416 2648 2759 
Q 2391 3103 1925 3103 
Q 1463 3103 1205 2759 
Q 947 2416 947 1791 
Q 947 1169 1205 825 
Q 1463 481 1925 481 
Q 2391 481 2648 825 
Q 2906 1169 2906 1791 
z
M 3481 434 
Q 3481 -459 3084 -895 
Q 2688 -1331 1869 -1331 
Q 1566 -1331 1297 -1286 
Q 1028 -1241 775 -1147 
L 775 -588 
Q 1028 -725 1275 -790 
Q 1522 -856 1778 -856 
Q 2344 -856 2625 -561 
Q 2906 -266 2906 331 
L 2906 616 
Q 2728 306 2450 153 
Q 2172 0 1784 0 
Q 1141 0 747 490 
Q 353 981 353 1791 
Q 353 2603 747 3093 
Q 1141 3584 1784 3584 
Q 2172 3584 2450 3431 
Q 2728 3278 2906 2969 
L 2906 3500 
L 3481 3500 
L 3481 434 
z
" transform="scale(0.015625)"/>
       <path id="DejaVuSans-31" d="M 794 531 
L 1825 531 
L 1825 4091 
L 703 3866 
L 703 4441 
L 1819 4666 
L 2450 4666 
L 2450 531 
L 3481 531 
L 3481 0 
L 794 0 
L 794 531 
z
" transform="scale(0.015625)"/>
       <path id="DejaVuSans-28" d="M 1984 4856 
Q 1566 4138 1362 3434 
Q 1159 2731 1159 2009 
Q 1159 1288 1364 580 
Q 1569 -128 1984 -844 
L 1484 -844 
Q 1016 -109 783 600 
Q 550 1309 550 2009 
Q 550 2706 781 3412 
Q 1013 4119 1484 4856 
L 1984 4856 
z
" transform="scale(0.015625)"/>
       <path id="DejaVuSans-23" d="M 3272 2816 
L 2363 2816 
L 2100 1772 
L 3016 1772 
L 3272 2816 
z
M 2803 4594 
L 2478 3297 
L 3391 3297 
L 3719 4594 
L 4219 4594 
L 3897 3297 
L 4872 3297 
L 4872 2816 
L 3775 2816 
L 3519 1772 
L 4513 1772 
L 4513 1294 
L 3397 1294 
L 3072 0 
L 2572 0 
L 2894 1294 
L 1978 1294 
L 1656 0 
L 1153 0 
L 1478 1294 
L 494 1294 
L 494 1772 
L 1594 1772 
L 1856 2816 
L 850 2816 
L 850 3297 
L 1978 3297 
L 2297 4594 
L 2803 4594 
z
" transform="scale(0.015625)"/>
       <path id="DejaVuSans-20" transform="scale(0.015625)"/>
       <path id="DejaVuSans-66" d="M 2375 4863 
L 2375 4384 
L 1825 4384 
Q 1516 4384 1395 4259 
Q 1275 4134 1275 3809 
L 1275 3500 
L 2222 3500 
L 2222 3053 
L 1275 3053 
L 1275 0 
L 697 0 
L 697 3053 
L 147 3053 
L 147 3500 
L 697 3500 
L 697 3744 
Q 697 4328 969 4595 
Q 1241 4863 1831 4863 
L 2375 4863 
z
" transform="scale(0.015625)"/>
       <path id="DejaVuSans-2d" d="M 313 2009 
L 1997 2009 
L 1997 1497 
L 313 1497 
L 313 2009 
z
" transform="scale(0.015625)"/>
       <path id="DejaVuSans-65" d="M 3597 1894 
L 3597 1613 
L 953 1613 
Q 991 1019 1311 708 
Q 1631 397 2203 397 
Q 2534 397 2845 478 
Q 3156 559 3463 722 
L 3463 178 
Q 3153 47 2828 -22 
Q 2503 -91 2169 -91 
Q 1331 -91 842 396 
Q 353 884 353 1716 
Q 353 2575 817 3079 
Q 1281 3584 2069 3584 
Q 2775 3584 3186 3129 
Q 3597 2675 3597 1894 
z
M 3022 2063 
Q 3016 2534 2758 2815 
Q 2500 3097 2075 3097 
Q 1594 3097 1305 2825 
Q 1016 2553 972 2059 
L 3022 2063 
z
" transform="scale(0.015625)"/>
       <path id="DejaVuSans-76" d="M 191 3500 
L 800 3500 
L 1894 563 
L 2988 3500 
L 3597 3500 
L 2284 0 
L 1503 0 
L 191 3500 
z
" transform="scale(0.015625)"/>
       <path id="DejaVuSans-61" d="M 2194 1759 
Q 1497 1759 1228 1600 
Q 959 1441 959 1056 
Q 959 750 1161 570 
Q 1363 391 1709 391 
Q 2188 391 2477 730 
Q 2766 1069 2766 1631 
L 2766 1759 
L 2194 1759 
z
M 3341 1997 
L 3341 0 
L 2766 0 
L 2766 531 
Q 2569 213 2275 61 
Q 1981 -91 1556 -91 
Q 1019 -91 701 211 
Q 384 513 384 1019 
Q 384 1609 779 1909 
Q 1175 2209 1959 2209 
L 2766 2209 
L 2766 2266 
Q 2766 2663 2505 2880 
Q 2244 3097 1772 3097 
Q 1472 3097 1187 3025 
Q 903 2953 641 2809 
L 641 3341 
Q 956 3463 1253 3523 
Q 1550 3584 1831 3584 
Q 2591 3584 2966 3190 
Q 3341 2797 3341 1997 
z
" transform="scale(0.015625)"/>
       <path id="DejaVuSans-73" d="M 2834 3397 
L 2834 2853 
Q 2591 2978 2328 3040 
Q 2066 3103 1784 3103 
Q 1356 3103 1142 2972 
Q 928 2841 928 2578 
Q 928 2378 1081 2264 
Q 1234 2150 1697 2047 
L 1894 2003 
Q 2506 1872 2764 1633 
Q 3022 1394 3022 966 
Q 3022 478 2636 193 
Q 2250 -91 1575 -91 
Q 1294 -91 989 -36 
Q 684 19 347 128 
L 347 722 
Q 666 556 975 473 
Q 1284 391 1588 391 
Q 1994 391 2212 530 
Q 2431 669 2431 922 
Q 2431 1156 2273 1281 
Q 2116 1406 1581 1522 
L 1381 1569 
Q 847 1681 609 1914 
Q 372 2147 372 2553 
Q 372 3047 722 3315 
Q 1072 3584 1716 3584 
Q 2034 3584 2315 3537 
Q 2597 3491 2834 3397 
z
" transform="scale(0.015625)"/>
       <path id="DejaVuSans-2f" d="M 1625 4666 
L 2156 4666 
L 531 -594 
L 0 -594 
L 1625 4666 
z
" transform="scale(0.015625)"/>
       <path id="DejaVuSans-64" d="M 2906 2969 
L 2906 4863 
L 3481 4863 
L 3481 0 
L 2906 0 
L 2906 525 
Q 2725 213 2448 61 
Q 2172 -91 1784 -91 
Q 1150 -91 751 415 
Q 353 922 353 1747 
Q 353 2572 751 3078 
Q 1150 3584 1784 3584 
Q 2172 3584 2448 3432 
Q 2725 3281 2906 2969 
z
M 947 1747 
Q 947 1113 1208 752 
Q 1469 391 1925 391 
Q 2381 391 2643 752 
Q 2906 1113 2906 1747 
Q 2906 2381 2643 2742 
Q 2381 3103 1925 3103 
Q 1469 3103 1208 2742 
Q 947 2381 947 1747 
z
" transform="scale(0.015625)"/>
       <path id="DejaVuSans-69" d="M 603 3500 
L 1178 3500 
L 1178 0 
L 603 0 
L 603 3500 
z
M 603 4863 
L 1178 4863 
L 1178 4134 
L 603 4134 
L 603 4863 
z
" transform="scale(0.015625)"/>
       <path id="DejaVuSans-6d" d="M 3328 2828 
Q 3544 3216 3844 3400 
Q 4144 3584 4550 3584 
Q 5097 3584 5394 3201 
Q 5691 2819 5691 2113 
L 5691 0 
L 5113 0 
L 5113 2094 
Q 5113 2597 4934 2840 
Q 4756 3084 4391 3084 
Q 3944 3084 3684 2787 
Q 3425 2491 3425 1978 
L 3425 0 
L 2847 0 
L 2847 2094 
Q 2847 2600 2669 2842 
Q 2491 3084 2119 3084 
Q 1678 3084 1418 2786 
Q 1159 2488 1159 1978 
L 1159 0 
L 581 0 
L 581 3500 
L 1159 3500 
L 1159 2956 
Q 1356 3278 1631 3431 
Q 1906 3584 2284 3584 
Q 2666 3584 2933 3390 
Q 3200 3197 3328 2828 
z
" transform="scale(0.015625)"/>
       <path id="DejaVuSans-6e" d="M 3513 2113 
L 3513 0 
L 2938 0 
L 2938 2094 
Q 2938 2591 2744 2837 
Q 2550 3084 2163 3084 
Q 1697 3084 1428 2787 
Q 1159 2491 1159 1978 
L 1159 0 
L 581 0 
L 581 3500 
L 1159 3500 
L 1159 2956 
Q 1366 3272 1645 3428 
Q 1925 3584 2291 3584 
Q 2894 3584 3203 3211 
Q 3513 2838 3513 2113 
z
" transform="scale(0.015625)"/>
       <path id="DejaVuSans-29" d="M 513 4856 
L 1013 4856 
Q 1481 4119 1714 3412 
Q 1947 2706 1947 2009 
Q 1947 1309 1714 600 
Q 1481 -109 1013 -844 
L 513 -844 
Q 928 -128 1133 580 
Q 1338 1288 1338 2009 
Q 1338 2731 1133 3434 
Q 928 4138 513 4856 
z
" transform="scale(0.015625)"/>
      </defs>
      <use xlink:href="#DejaVuSans-6c"/>
      <use xlink:href="#DejaVuSans-6f" x="27.783203"/>
      <use xlink:href="#DejaVuSans-67" x="88.964844"/>
      <use xlink:href="#DejaVuSans-31" x="152.441406"/>
      <use xlink:href="#DejaVuSans-30" x="216.064453"/>
      <use xlink:href="#DejaVuSans-28" x="279.6875"/>
      <use xlink:href="#DejaVuSans-23" x="318.701172"/>
      <use xlink:href="#DejaVuSans-20" x="402.490234"/>
      <use xlink:href="#DejaVuSans-66" x="434.277344"/>
      <use xlink:href="#DejaVuSans-2d" x="463.982422"/>
      <use xlink:href="#DejaVuSans-65" x="500.066406"/>
      <use xlink:href="#DejaVuSans-76" x="561.589844"/>
      <use xlink:href="#DejaVuSans-61" x="620.769531"/>
      <use xlink:href="#DejaVuSans-6c" x="682.048828"/>
      <use xlink:href="#DejaVuSans-73" x="709.832031"/>
      <use xlink:href="#DejaVuSans-20" x="761.931641"/>
      <use xlink:href="#DejaVuSans-2f" x="793.71875"/>
      <use xlink:href="#DejaVuSans-20" x="827.410156"/>
      <use xlink:href="#DejaVuSans-64" x="859.197266"/>
      <use xlink:href="#DejaVuSans-69" x="922.673828"/>
      <use xlink:href="#DejaVuSans-6d" x="950.457031"/>
      <use xlink:href="#DejaVuSans-65" x="1047.869141"/>
      <use xlink:href="#DejaVuSans-6e" x="1109.392578"/>
      <use xlink:href="#DejaVuSans-73" x="1172.771484"/>
      <use xlink:href="#DejaVuSans-69" x="1224.871094"/>
      <use xlink:href="#DejaVuSans-6f" x="1252.654297"/>
      <use xlink:href="#DejaVuSans-6e" x="1313.835938"/>
      <use xlink:href="#DejaVuSans-29" x="1377.214844"/>
     </g>
    </g>
   </g>
   <g id="matplotlib.axis_2">
    <g id="ytick_1">
     <g id="line2d_21">
      <path d="M 57.6 298.944 
L 360.8064 298.944 
" clip-path="url(#p29cd7b6020)" style="fill: none; stroke: #b0b0b0; stroke-width: 0.8; stroke-linecap: square"/>
     </g>
     <g id="line2d_22">
      <defs>
       <path id="m92aaa91e2d" d="M 0 0 
L -3.5 0 
" style="stroke: #000000; stroke-width: 0.8"/>
      </defs>
      <g>
       <use xlink:href="#m92aaa91e2d" x="57.6" y="298.944" style="stroke: #000000; stroke-width: 0.8"/>
      </g>
     </g>
     <g id="text_6">
      <!-- 0.0 -->
      <g transform="translate(25.155 305.02275)scale(0.16 -0.16)">
       <defs>
        <path id="DejaVuSans-2e" d="M 684 794 
L 1344 794 
L 1344 0 
L 684 0 
L 684 794 
z
" transform="scale(0.015625)"/>
       </defs>
       <use xlink:href="#DejaVuSans-30"/>
       <use xlink:href="#DejaVuSans-2e" x="63.623047"/>
       <use xlink:href="#DejaVuSans-30" x="95.410156"/>
      </g>
     </g>
    </g>
    <g id="ytick_2">
     <g id="line2d_23">
      <path d="M 57.6 240.5376 
L 360.8064 240.5376 
" clip-path="url(#p29cd7b6020)" style="fill: none; stroke: #b0b0b0; stroke-width: 0.8; stroke-linecap: square"/>
     </g>
     <g id="line2d_24">
      <g>
       <use xlink:href="#m92aaa91e2d" x="57.6" y="240.5376" style="stroke: #000000; stroke-width: 0.8"/>
      </g>
     </g>
     <g id="text_7">
      <!-- 0.2 -->
      <g transform="translate(25.155 246.61635)scale(0.16 -0.16)">
       <use xlink:href="#DejaVuSans-30"/>
       <use xlink:href="#DejaVuSans-2e" x="63.623047"/>
       <use xlink:href="#DejaVuSans-32" x="95.410156"/>
      </g>
     </g>
    </g>
    <g id="ytick_3">
     <g id="line2d_25">
      <path d="M 57.6 182.1312 
L 360.8064 182.1312 
" clip-path="url(#p29cd7b6020)" style="fill: none; stroke: #b0b0b0; stroke-width: 0.8; stroke-linecap: square"/>
     </g>
     <g id="line2d_26">
      <g>
       <use xlink:href="#m92aaa91e2d" x="57.6" y="182.1312" style="stroke: #000000; stroke-width: 0.8"/>
      </g>
     </g>
     <g id="text_8">
      <!-- 0.4 -->
      <g transform="translate(25.155 188.20995)scale(0.16 -0.16)">
       <use xlink:href="#DejaVuSans-30"/>
       <use xlink:href="#DejaVuSans-2e" x="63.623047"/>
       <use xlink:href="#DejaVuSans-34" x="95.410156"/>
      </g>
     </g>
    </g>
    <g id="ytick_4">
     <g id="line2d_27">
      <path d="M 57.6 123.7248 
L 360.8064 123.7248 
" clip-path="url(#p29cd7b6020)" style="fill: none; stroke: #b0b0b0; stroke-width: 0.8; stroke-linecap: square"/>
     </g>
     <g id="line2d_28">
      <g>
       <use xlink:href="#m92aaa91e2d" x="57.6" y="123.7248" style="stroke: #000000; stroke-width: 0.8"/>
      </g>
     </g>
     <g id="text_9">
      <!-- 0.6 -->
      <g transform="translate(25.155 129.80355)scale(0.16 -0.16)">
       <use xlink:href="#DejaVuSans-30"/>
       <use xlink:href="#DejaVuSans-2e" x="63.623047"/>
       <use xlink:href="#DejaVuSans-36" x="95.410156"/>
      </g>
     </g>
    </g>
    <g id="ytick_5">
     <g id="line2d_29">
      <path d="M 57.6 65.3184 
L 360.8064 65.3184 
" clip-path="url(#p29cd7b6020)" style="fill: none; stroke: #b0b0b0; stroke-width: 0.8; stroke-linecap: square"/>
     </g>
     <g id="line2d_30">
      <g>
       <use xlink:href="#m92aaa91e2d" x="57.6" y="65.3184" style="stroke: #000000; stroke-width: 0.8"/>
      </g>
     </g>
     <g id="text_10">
      <!-- 0.8 -->
      <g transform="translate(25.155 71.39715)scale(0.16 -0.16)">
       <defs>
        <path id="DejaVuSans-38" d="M 2034 2216 
Q 1584 2216 1326 1975 
Q 1069 1734 1069 1313 
Q 1069 891 1326 650 
Q 1584 409 2034 409 
Q 2484 409 2743 651 
Q 3003 894 3003 1313 
Q 3003 1734 2745 1975 
Q 2488 2216 2034 2216 
z
M 1403 2484 
Q 997 2584 770 2862 
Q 544 3141 544 3541 
Q 544 4100 942 4425 
Q 1341 4750 2034 4750 
Q 2731 4750 3128 4425 
Q 3525 4100 3525 3541 
Q 3525 3141 3298 2862 
Q 3072 2584 2669 2484 
Q 3125 2378 3379 2068 
Q 3634 1759 3634 1313 
Q 3634 634 3220 271 
Q 2806 -91 2034 -91 
Q 1263 -91 848 271 
Q 434 634 434 1313 
Q 434 1759 690 2068 
Q 947 2378 1403 2484 
z
M 1172 3481 
Q 1172 3119 1398 2916 
Q 1625 2713 2034 2713 
Q 2441 2713 2670 2916 
Q 2900 3119 2900 3481 
Q 2900 3844 2670 4047 
Q 2441 4250 2034 4250 
Q 1625 4250 1398 4047 
Q 1172 3844 1172 3481 
z
" transform="scale(0.015625)"/>
       </defs>
       <use xlink:href="#DejaVuSans-30"/>
       <use xlink:href="#DejaVuSans-2e" x="63.623047"/>
       <use xlink:href="#DejaVuSans-38" x="95.410156"/>
      </g>
     </g>
    </g>
    <g id="ytick_6">
     <g id="line2d_31">
      <path d="M 57.6 6.912 
L 360.8064 6.912 
" clip-path="url(#p29cd7b6020)" style="fill: none; stroke: #b0b0b0; stroke-width: 0.8; stroke-linecap: square"/>
     </g>
     <g id="line2d_32">
      <g>
       <use xlink:href="#m92aaa91e2d" x="57.6" y="6.912" style="stroke: #000000; stroke-width: 0.8"/>
      </g>
     </g>
     <g id="text_11">
      <!-- 1.0 -->
      <g transform="translate(25.155 12.99075)scale(0.16 -0.16)">
       <use xlink:href="#DejaVuSans-31"/>
       <use xlink:href="#DejaVuSans-2e" x="63.623047"/>
       <use xlink:href="#DejaVuSans-30" x="95.410156"/>
      </g>
     </g>
    </g>
    <g id="text_12">
     <!-- Fraction of function,target pairs -->
     <g transform="translate(17.619531 287.313)rotate(-90)scale(0.17 -0.17)">
      <defs>
       <path id="DejaVuSans-46" d="M 628 4666 
L 3309 4666 
L 3309 4134 
L 1259 4134 
L 1259 2759 
L 3109 2759 
L 3109 2228 
L 1259 2228 
L 1259 0 
L 628 0 
L 628 4666 
z
" transform="scale(0.015625)"/>
       <path id="DejaVuSans-72" d="M 2631 2963 
Q 2534 3019 2420 3045 
Q 2306 3072 2169 3072 
Q 1681 3072 1420 2755 
Q 1159 2438 1159 1844 
L 1159 0 
L 581 0 
L 581 3500 
L 1159 3500 
L 1159 2956 
Q 1341 3275 1631 3429 
Q 1922 3584 2338 3584 
Q 2397 3584 2469 3576 
Q 2541 3569 2628 3553 
L 2631 2963 
z
" transform="scale(0.015625)"/>
       <path id="DejaVuSans-63" d="M 3122 3366 
L 3122 2828 
Q 2878 2963 2633 3030 
Q 2388 3097 2138 3097 
Q 1578 3097 1268 2742 
Q 959 2388 959 1747 
Q 959 1106 1268 751 
Q 1578 397 2138 397 
Q 2388 397 2633 464 
Q 2878 531 3122 666 
L 3122 134 
Q 2881 22 2623 -34 
Q 2366 -91 2075 -91 
Q 1284 -91 818 406 
Q 353 903 353 1747 
Q 353 2603 823 3093 
Q 1294 3584 2113 3584 
Q 2378 3584 2631 3529 
Q 2884 3475 3122 3366 
z
" transform="scale(0.015625)"/>
       <path id="DejaVuSans-74" d="M 1172 4494 
L 1172 3500 
L 2356 3500 
L 2356 3053 
L 1172 3053 
L 1172 1153 
Q 1172 725 1289 603 
Q 1406 481 1766 481 
L 2356 481 
L 2356 0 
L 1766 0 
Q 1100 0 847 248 
Q 594 497 594 1153 
L 594 3053 
L 172 3053 
L 172 3500 
L 594 3500 
L 594 4494 
L 1172 4494 
z
" transform="scale(0.015625)"/>
       <path id="DejaVuSans-75" d="M 544 1381 
L 544 3500 
L 1119 3500 
L 1119 1403 
Q 1119 906 1312 657 
Q 1506 409 1894 409 
Q 2359 409 2629 706 
Q 2900 1003 2900 1516 
L 2900 3500 
L 3475 3500 
L 3475 0 
L 2900 0 
L 2900 538 
Q 2691 219 2414 64 
Q 2138 -91 1772 -91 
Q 1169 -91 856 284 
Q 544 659 544 1381 
z
M 1991 3584 
L 1991 3584 
z
" transform="scale(0.015625)"/>
       <path id="DejaVuSans-2c" d="M 750 794 
L 1409 794 
L 1409 256 
L 897 -744 
L 494 -744 
L 750 256 
L 750 794 
z
" transform="scale(0.015625)"/>
       <path id="DejaVuSans-70" d="M 1159 525 
L 1159 -1331 
L 581 -1331 
L 581 3500 
L 1159 3500 
L 1159 2969 
Q 1341 3281 1617 3432 
Q 1894 3584 2278 3584 
Q 2916 3584 3314 3078 
Q 3713 2572 3713 1747 
Q 3713 922 3314 415 
Q 2916 -91 2278 -91 
Q 1894 -91 1617 61 
Q 1341 213 1159 525 
z
M 3116 1747 
Q 3116 2381 2855 2742 
Q 2594 3103 2138 3103 
Q 1681 3103 1420 2742 
Q 1159 2381 1159 1747 
Q 1159 1113 1420 752 
Q 1681 391 2138 391 
Q 2594 391 2855 752 
Q 3116 1113 3116 1747 
z
" transform="scale(0.015625)"/>
      </defs>
      <use xlink:href="#DejaVuSans-46"/>
      <use xlink:href="#DejaVuSans-72" x="50.269531"/>
      <use xlink:href="#DejaVuSans-61" x="91.382812"/>
      <use xlink:href="#DejaVuSans-63" x="152.662109"/>
      <use xlink:href="#DejaVuSans-74" x="207.642578"/>
      <use xlink:href="#DejaVuSans-69" x="246.851562"/>
      <use xlink:href="#DejaVuSans-6f" x="274.634766"/>
      <use xlink:href="#DejaVuSans-6e" x="335.816406"/>
      <use xlink:href="#DejaVuSans-20" x="399.195312"/>
      <use xlink:href="#DejaVuSans-6f" x="430.982422"/>
      <use xlink:href="#DejaVuSans-66" x="492.164062"/>
      <use xlink:href="#DejaVuSans-20" x="527.369141"/>
      <use xlink:href="#DejaVuSans-66" x="559.15625"/>
      <use xlink:href="#DejaVuSans-75" x="594.361328"/>
      <use xlink:href="#DejaVuSans-6e" x="657.740234"/>
      <use xlink:href="#DejaVuSans-63" x="721.119141"/>
      <use xlink:href="#DejaVuSans-74" x="776.099609"/>
      <use xlink:href="#DejaVuSans-69" x="815.308594"/>
      <use xlink:href="#DejaVuSans-6f" x="843.091797"/>
      <use xlink:href="#DejaVuSans-6e" x="904.273438"/>
      <use xlink:href="#DejaVuSans-2c" x="967.652344"/>
      <use xlink:href="#DejaVuSans-74" x="999.439453"/>
      <use xlink:href="#DejaVuSans-61" x="1038.648438"/>
      <use xlink:href="#DejaVuSans-72" x="1099.927734"/>
      <use xlink:href="#DejaVuSans-67" x="1139.291016"/>
      <use xlink:href="#DejaVuSans-65" x="1202.767578"/>
      <use xlink:href="#DejaVuSans-74" x="1264.291016"/>
      <use xlink:href="#DejaVuSans-20" x="1303.5"/>
      <use xlink:href="#DejaVuSans-70" x="1335.287109"/>
      <use xlink:href="#DejaVuSans-61" x="1398.763672"/>
      <use xlink:href="#DejaVuSans-69" x="1460.042969"/>
      <use xlink:href="#DejaVuSans-72" x="1487.826172"/>
      <use xlink:href="#DejaVuSans-73" x="1528.939453"/>
     </g>
    </g>
   </g>
   <g id="line2d_33">
    <defs>
     <path id="m9584d9cbef" d="M 0 1.5 
C 0.397805 1.5 0.77937 1.341951 1.06066 1.06066 
C 1.341951 0.77937 1.5 0.397805 1.5 0 
C 1.5 -0.397805 1.341951 -0.77937 1.06066 -1.06066 
C 0.77937 -1.341951 0.397805 -1.5 0 -1.5 
C -0.397805 -1.5 -0.77937 -1.341951 -1.06066 -1.06066 
C -1.341951 -0.77937 -1.5 -0.397805 -1.5 0 
C -1.5 0.397805 -1.341951 0.77937 -1.06066 1.06066 
C -0.77937 1.341951 -0.397805 1.5 0 1.5 
z
" style="stroke: #f5deb3"/>
    </defs>
    <g>
     <use xlink:href="#m9584d9cbef" x="270.032798" y="42.157241" style="fill: #f5deb3; stroke: #f5deb3"/>
     <use xlink:href="#m9584d9cbef" x="270.032798" y="42.157241" style="fill: #f5deb3; stroke: #f5deb3"/>
    </g>
   </g>
   <g id="line2d_34">
    <defs>
     <path id="m9d941c9e2f" d="M 0 1.5 
C 0.397805 1.5 0.77937 1.341951 1.06066 1.06066 
C 1.341951 0.77937 1.5 0.397805 1.5 0 
C 1.5 -0.397805 1.341951 -0.77937 1.06066 -1.06066 
C 0.77937 -1.341951 0.397805 -1.5 0 -1.5 
C -0.397805 -1.5 -0.77937 -1.341951 -1.06066 -1.06066 
C -1.341951 -0.77937 -1.5 -0.397805 -1.5 0 
C -1.5 0.397805 -1.341951 0.77937 -1.06066 1.06066 
C -0.77937 1.341951 -0.397805 1.5 0 1.5 
z
" style="stroke: #000080"/>
    </defs>
    <g>
     <use xlink:href="#m9d941c9e2f" x="83.678349" y="276.538097" style="fill: #000080; stroke: #000080"/>
     <use xlink:href="#m9d941c9e2f" x="83.678349" y="276.538097" style="fill: #000080; stroke: #000080"/>
    </g>
   </g>
   <g id="line2d_35">
    <path d="M 44.560826 298.944 
L 44.560826 291.769076 
L 57.6 291.769076 
L 57.6 288.622179 
L 65.227428 288.622179 
L 65.227428 285.978786 
L 70.639174 285.978786 
L 70.639174 283.713021 
L 74.836851 283.713021 
L 74.836851 281.573131 
L 78.266603 281.573131 
L 78.266603 279.307366 
L 81.166416 279.307366 
L 81.166416 278.426234 
L 83.678349 278.426234 
L 83.678349 276.538097 
L 360.8064 276.538097 
" style="fill: none; stroke: #000080; stroke-width: 1.5; stroke-linecap: square"/>
   </g>
   <g id="line2d_36">
    <defs>
     <path id="m756f32e016" d="M 0 6 
C 1.591219 6 3.117479 5.367802 4.242641 4.242641 
C 5.367802 3.117479 6 1.591219 6 0 
C 6 -1.591219 5.367802 -3.117479 4.242641 -4.242641 
C 3.117479 -5.367802 1.591219 -6 0 -6 
C -1.591219 -6 -3.117479 -5.367802 -4.242641 -4.242641 
C -5.367802 -3.117479 -6 -1.591219 -6 0 
C -6 1.591219 -5.367802 3.117479 -4.242641 4.242641 
C -3.117479 5.367802 -1.591219 6 0 6 
z
" style="stroke: #000080; stroke-width: 1.5"/>
    </defs>
    <g>
     <use xlink:href="#m756f32e016" x="83.678349" y="278.426234" style="fill-opacity: 0; stroke: #000080; stroke-width: 1.5"/>
     <use xlink:href="#m756f32e016" x="83.678349" y="278.426234" style="fill-opacity: 0; stroke: #000080; stroke-width: 1.5"/>
     <use xlink:href="#m756f32e016" x="83.678349" y="276.538097" style="fill-opacity: 0; stroke: #000080; stroke-width: 1.5"/>
     <use xlink:href="#m756f32e016" x="83.678349" y="276.538097" style="fill-opacity: 0; stroke: #000080; stroke-width: 1.5"/>
     <use xlink:href="#m756f32e016" x="83.678349" y="276.538097" style="fill-opacity: 0; stroke: #000080; stroke-width: 1.5"/>
     <use xlink:href="#m756f32e016" x="360.8064" y="276.538097" style="fill-opacity: 0; stroke: #000080; stroke-width: 1.5"/>
    </g>
   </g>
   <g id="line2d_37">
    <path style="fill: none; stroke: #000080; stroke-width: 1.5; stroke-linecap: square"/>
    <g/>
   </g>
   <g id="line2d_38">
    <path d="M 83.678349 276.538097 
" clip-path="url(#p29cd7b6020)" style="fill: none; stroke: #000080; stroke-width: 1.5; stroke-linecap: square"/>
    <defs>
     <path id="m10521e36c7" d="M -12 12 
L 12 -12 
M -12 -12 
L 12 12 
" style="stroke: #000080"/>
    </defs>
    <g clip-path="url(#p29cd7b6020)">
     <use xlink:href="#m10521e36c7" x="83.678349" y="276.538097" style="fill: #000080; stroke: #000080"/>
    </g>
   </g>
   <g id="line2d_39">
    <defs>
     <path id="maee3baf89b" d="M 0 1.5 
C 0.397805 1.5 0.77937 1.341951 1.06066 1.06066 
C 1.341951 0.77937 1.5 0.397805 1.5 0 
C 1.5 -0.397805 1.341951 -0.77937 1.06066 -1.06066 
C 0.77937 -1.341951 0.397805 -1.5 0 -1.5 
C -0.397805 -1.5 -0.77937 -1.341951 -1.06066 -1.06066 
C -1.341951 -0.77937 -1.5 -0.397805 -1.5 0 
C -1.5 0.397805 -1.341951 0.77937 -1.06066 1.06066 
C -0.77937 1.341951 -0.397805 1.5 0 1.5 
z
" style="stroke: #ff00ff"/>
    </defs>
    <g>
     <use xlink:href="#maee3baf89b" x="274.167345" y="62.926759" style="fill: #ff00ff; stroke: #ff00ff"/>
     <use xlink:href="#maee3baf89b" x="274.167345" y="62.926759" style="fill: #ff00ff; stroke: #ff00ff"/>
    </g>
   </g>
   <g id="line2d_40">
    <path d="M 44.560826 298.944 
L 44.560826 291.769076 
L 57.6 291.769076 
L 57.6 289.755062 
L 65.227428 289.755062 
L 65.227428 289.125683 
L 70.639174 289.125683 
L 70.639174 288.118676 
L 74.836851 288.118676 
L 74.836851 287.489297 
L 78.266603 287.489297 
L 78.266603 284.468276 
L 81.166416 284.468276 
L 81.166416 283.083641 
L 83.678349 283.083641 
L 83.678349 281.699007 
L 85.894031 281.699007 
L 85.894031 280.566124 
L 87.876026 280.566124 
L 87.876026 280.440248 
L 89.668958 280.440248 
L 89.668958 279.559117 
L 91.305777 279.559117 
L 91.305777 279.055614 
L 92.811505 279.055614 
L 92.811505 278.174483 
L 94.205591 278.174483 
L 94.205591 277.293352 
L 95.503454 277.293352 
L 95.503454 277.167476 
L 96.717523 277.167476 
L 96.717523 276.538097 
L 97.857967 276.538097 
L 97.857967 275.782841 
L 98.933205 275.782841 
L 98.933205 274.524083 
L 99.950294 274.524083 
L 99.950294 274.146455 
L 100.9152 274.146455 
L 100.9152 274.020579 
L 101.833019 274.020579 
L 101.833019 273.768828 
L 102.708132 273.768828 
L 102.708132 273.013572 
L 104.344952 273.013572 
L 104.344952 272.635945 
L 105.112877 272.635945 
L 105.112877 272.384193 
L 105.850679 272.384193 
L 105.850679 272.132441 
L 107.244765 272.132441 
L 107.244765 271.88069 
L 107.904887 271.88069 
L 107.904887 271.628938 
L 108.542628 271.628938 
L 108.542628 271.377186 
L 109.159456 271.377186 
L 109.159456 271.25131 
L 110.335561 271.25131 
L 110.335561 270.244303 
L 111.442442 270.244303 
L 111.442442 269.866676 
L 112.989468 269.866676 
L 112.989468 269.7408 
L 113.478107 269.7408 
L 113.478107 269.111421 
L 113.954374 269.111421 
L 113.954374 268.733793 
L 114.418881 268.733793 
L 114.418881 268.607917 
L 114.872193 268.607917 
L 114.872193 268.356166 
L 115.314838 268.356166 
L 115.314838 267.852662 
L 117.384126 267.852662 
L 117.384126 267.60091 
L 117.772007 267.60091 
L 117.772007 266.971531 
L 118.152051 266.971531 
L 118.152051 266.845655 
L 118.524569 266.845655 
L 118.524569 266.593903 
L 119.599808 266.593903 
L 119.599808 265.586897 
L 120.944062 265.586897 
L 120.944062 265.461021 
L 121.581803 265.461021 
L 121.581803 264.831641 
L 122.19863 264.831641 
L 122.19863 264.705766 
L 122.795872 264.705766 
L 122.795872 264.57989 
L 123.08753 264.57989 
L 123.08753 264.454014 
L 123.374735 264.454014 
L 123.374735 262.44 
L 123.657621 262.44 
L 123.657621 261.810621 
L 123.936316 261.810621 
L 123.936316 261.558869 
L 124.210942 261.558869 
L 124.210942 261.307117 
L 124.481616 261.307117 
L 124.481616 261.181241 
L 124.748451 261.181241 
L 124.748451 260.92949 
L 125.011554 260.92949 
L 125.011554 260.803614 
L 125.526971 260.803614 
L 125.526971 260.174234 
L 125.779479 260.174234 
L 125.779479 259.544855 
L 126.028642 259.544855 
L 126.028642 259.293103 
L 126.517282 259.293103 
L 126.517282 258.915476 
L 126.756923 258.915476 
L 126.756923 258.537848 
L 126.993549 258.537848 
L 126.993549 258.411972 
L 128.133992 258.411972 
L 128.133992 258.160221 
L 128.57149 258.160221 
L 128.57149 258.034345 
L 128.999044 258.034345 
L 128.999044 257.908469 
L 129.417095 257.908469 
L 129.417095 257.782593 
L 129.622688 257.782593 
L 129.622688 257.530841 
L 129.826058 257.530841 
L 129.826058 257.27909 
L 130.027253 257.27909 
L 130.027253 257.153214 
L 130.226319 257.153214 
L 130.226319 256.775586 
L 130.618241 256.775586 
L 130.618241 256.397959 
L 131.191226 256.397959 
L 131.191226 256.272083 
L 131.563744 256.272083 
L 131.563744 256.020331 
L 131.929028 256.020331 
L 131.929028 255.265076 
L 132.109044 255.265076 
L 132.109044 255.013324 
L 132.46399 255.013324 
L 132.46399 254.761572 
L 132.638982 254.761572 
L 132.638982 254.383945 
L 132.984158 254.383945 
L 132.984158 253.880441 
L 133.154399 253.880441 
L 133.154399 253.754566 
L 133.490329 253.754566 
L 133.490329 253.62869 
L 133.656071 253.62869 
L 133.656071 253.376938 
L 133.820365 253.376938 
L 133.820365 253.125186 
L 133.983236 253.125186 
L 133.983236 252.873434 
L 134.304809 252.873434 
L 134.304809 252.747559 
L 134.463557 252.747559 
L 134.463557 252.244055 
L 134.77709 252.244055 
L 134.77709 251.992303 
L 134.931919 251.992303 
L 134.931919 251.866428 
L 135.085483 251.866428 
L 135.085483 251.614676 
L 135.237805 251.614676 
L 135.237805 251.362924 
L 135.388902 251.362924 
L 135.388902 250.859421 
L 135.538796 250.859421 
L 135.538796 250.733545 
L 135.687504 250.733545 
L 135.687504 250.607669 
L 135.981441 250.607669 
L 135.981441 250.355917 
L 136.555884 250.355917 
L 136.555884 249.97829 
L 136.97549 249.97829 
L 136.97549 249.852414 
L 137.113304 249.852414 
L 137.113304 249.726538 
L 138.180913 249.726538 
L 138.180913 249.474786 
L 138.310202 249.474786 
L 138.310202 248.971283 
L 138.438609 248.971283 
L 138.438609 248.719531 
L 138.692823 248.719531 
L 138.692823 248.216028 
L 138.943648 248.216028 
L 138.943648 247.964276 
L 139.191172 247.964276 
L 139.191172 247.712524 
L 139.313723 247.712524 
L 139.313723 247.209021 
L 139.435481 247.209021 
L 139.435481 245.824386 
L 139.796097 245.824386 
L 139.796097 245.446759 
L 140.14993 245.446759 
L 140.14993 245.195007 
L 140.26641 245.195007 
L 140.26641 244.565628 
L 140.49723 244.565628 
L 140.49723 244.439752 
L 140.611586 244.439752 
L 140.611586 244.188 
L 141.062184 244.188 
L 141.173167 243.810372 
L 141.50224 243.810372 
L 141.50224 243.684497 
L 142.038218 243.684497 
L 142.038218 243.306869 
L 142.559347 243.306869 
L 142.661862 242.67749 
L 142.763822 242.67749 
L 142.865233 242.299862 
L 143.166224 242.299862 
L 143.166224 242.173986 
L 143.364242 242.173986 
L 143.462475 241.796359 
L 143.657415 241.796359 
L 143.657415 241.544607 
L 143.946089 241.544607 
L 143.946089 241.292855 
L 144.417581 241.292855 
L 144.510478 240.789352 
L 144.786447 240.789352 
L 144.877544 240.159972 
L 145.058426 240.159972 
L 145.058426 240.034097 
L 145.237585 240.034097 
L 145.237585 239.908221 
L 145.415054 239.908221 
L 145.503164 239.404717 
L 145.590864 239.404717 
L 145.678157 238.523586 
L 145.765046 238.523586 
L 145.765046 238.39771 
L 145.93763 238.39771 
L 146.023332 237.894207 
L 146.108646 237.894207 
L 146.108646 237.390703 
L 146.362288 237.390703 
L 146.362288 237.013076 
L 146.529503 237.013076 
L 146.529503 236.635448 
L 146.777571 236.635448 
L 146.777571 236.383697 
L 147.423525 236.383697 
L 147.423525 236.131945 
L 147.73837 236.131945 
L 147.73837 235.754317 
L 148.048032 235.754317 
L 148.048032 235.502566 
L 148.428077 235.502566 
L 148.428077 235.37669 
L 148.726679 235.37669 
L 148.726679 235.124938 
L 149.238092 235.124938 
L 149.238092 234.873186 
L 149.595059 234.873186 
L 149.595059 234.74731 
L 150.221009 234.74731 
L 150.289291 234.369683 
L 150.492661 234.369683 
L 150.492661 234.117931 
L 150.8268 234.117931 
L 150.8268 233.866179 
L 151.024471 233.866179 
L 151.024471 233.740303 
L 151.284843 233.740303 
L 151.284843 233.614428 
L 151.60532 233.614428 
L 151.60532 233.488552 
L 151.795018 233.488552 
L 151.857828 232.859172 
L 151.982822 232.859172 
L 151.982822 232.607421 
L 152.106991 232.607421 
L 152.106991 232.481545 
L 152.230346 232.481545 
L 152.230346 232.355669 
L 152.352898 232.355669 
L 152.352898 232.229793 
L 152.53524 232.229793 
L 152.595631 231.474538 
L 152.953957 231.474538 
L 152.953957 231.348662 
L 153.130592 231.348662 
L 153.130592 231.09691 
L 153.421349 231.09691 
L 153.421349 230.845159 
L 153.593669 230.845159 
L 153.593669 230.719283 
L 153.821002 230.719283 
L 153.821002 230.467531 
L 153.933646 230.467531 
L 153.933646 230.215779 
L 154.212341 230.215779 
L 154.212341 229.5864 
L 154.486967 229.5864 
L 154.595705 229.082897 
L 154.649839 229.082897 
L 154.703817 227.950014 
L 154.86483 227.950014 
L 154.971412 227.698262 
L 155.28758 227.698262 
L 155.391799 226.943007 
L 155.649849 226.943007 
L 155.649849 226.691255 
L 156.304668 226.691255 
L 156.354107 226.439503 
L 156.985263 226.439503 
L 156.985263 226.313628 
L 157.175281 226.313628 
L 157.175281 226.187752 
L 157.363398 226.187752 
L 157.410135 225.306621 
L 157.549652 225.306621 
L 157.595929 225.054869 
L 157.779907 225.054869 
L 157.871225 224.677241 
L 158.052543 224.677241 
L 158.052543 224.551366 
L 158.276759 224.551366 
L 158.276759 224.42549 
L 158.804221 224.42549 
L 158.890711 223.79611 
L 158.933807 223.79611 
L 158.933807 223.670234 
L 159.105212 223.670234 
L 159.105212 223.544359 
L 159.527013 223.544359 
L 159.568678 223.166731 
L 159.939564 223.166731 
L 159.939564 223.040855 
L 160.541906 223.040855 
L 160.541906 222.914979 
L 160.699326 222.914979 
L 160.777545 222.159724 
L 160.97168 222.159724 
L 160.97168 221.907972 
L 161.42959 221.907972 
L 161.467251 221.404469 
L 161.728786 221.404469 
L 161.839769 220.019834 
L 161.913396 220.019834 
L 161.913396 219.768083 
L 162.915008 219.768083 
L 162.915008 219.642207 
L 163.053839 219.642207 
L 163.053839 219.390455 
L 163.362513 219.390455 
L 163.464289 218.886952 
L 163.79962 218.886952 
L 163.79962 218.6352 
L 164.063646 218.6352 
L 164.063646 218.509324 
L 164.324018 218.509324 
L 164.420735 218.257572 
L 164.548924 218.257572 
L 164.548924 217.754069 
L 164.990826 217.754069 
L 165.084184 217.250566 
L 165.238758 217.250566 
L 165.300233 216.49531 
L 165.361509 216.49531 
L 165.361509 215.991807 
L 165.604634 215.991807 
L 165.604634 215.740055 
L 165.904188 215.740055 
L 165.904188 215.614179 
L 166.022686 215.614179 
L 166.022686 215.236552 
L 166.169767 215.236552 
L 166.169767 215.110676 
L 166.344759 215.110676 
L 166.344759 214.9848 
L 166.746854 214.9848 
L 166.746854 214.858924 
L 167.084795 214.858924 
L 167.084795 214.733048 
L 168.142969 214.733048 
L 168.142969 214.607172 
L 168.326754 214.607172 
L 168.326754 214.355421 
L 168.586228 214.355421 
L 168.586228 213.977793 
L 168.816733 213.977793 
L 168.91828 213.726041 
L 169.589749 213.726041 
L 169.638546 213.222538 
L 170.072123 213.222538 
L 170.072123 212.84491 
L 170.449309 212.84491 
L 170.449309 212.593159 
L 171.136775 212.593159 
L 171.136775 212.341407 
L 171.778266 212.341407 
L 171.778266 212.089655 
L 172.080292 212.089655 
L 172.080292 211.963779 
L 172.3986 211.963779 
L 172.461621 211.586152 
L 172.670177 211.586152 
L 172.752956 211.082648 
L 172.794209 211.082648 
L 172.794209 210.830897 
L 173.10076 210.830897 
L 173.161475 210.327393 
L 173.402394 210.327393 
L 173.442249 209.82389 
L 173.718895 209.82389 
L 173.816719 208.816883 
L 174.107176 208.816883 
L 174.126381 208.439255 
L 174.241203 208.439255 
L 174.241203 208.187503 
L 174.468765 208.187503 
L 174.544011 207.684 
L 174.581522 207.684 
L 174.656319 207.432248 
L 174.73082 207.432248 
L 174.73082 207.054621 
L 175.0442 207.054621 
L 175.135386 206.551117 
L 175.208017 206.551117 
L 175.262307 205.921738 
L 175.88438 205.921738 
L 175.901855 205.54411 
L 176.075715 205.54411 
L 176.144812 205.040607 
L 176.282249 205.040607 
L 176.33353 204.662979 
L 176.855405 204.662979 
L 176.905149 204.0336 
L 177.200883 204.0336 
L 177.282212 202.900717 
L 177.330842 202.900717 
L 177.330842 202.774841 
L 177.54013 202.774841 
L 177.635944 202.52309 
L 177.651866 202.52309 
L 177.683669 202.271338 
L 177.936177 202.271338 
L 177.936177 202.145462 
L 178.061171 202.145462 
L 178.123358 201.390207 
L 178.200804 201.390207 
L 178.308695 200.886703 
L 178.385383 200.886703 
L 178.385383 200.760828 
L 178.613589 200.760828 
L 178.719145 199.627945 
L 178.749196 199.627945 
L 178.749196 199.502069 
L 178.883832 199.502069 
L 178.883832 199.376193 
L 179.002704 199.376193 
L 179.047089 198.746814 
L 179.135545 198.746814 
L 179.179617 198.24331 
L 179.398443 198.24331 
L 179.499697 197.865683 
L 179.514118 197.865683 
L 179.514118 197.739807 
L 179.657718 197.739807 
L 179.743355 196.606924 
L 179.856935 196.606924 
L 179.913468 195.725793 
L 179.997952 195.725793 
L 179.997952 195.599917 
L 180.345937 195.599917 
L 180.44223 194.215283 
L 180.59256 194.215283 
L 180.674054 193.711779 
L 180.862845 193.711779 
L 180.943179 192.453021 
L 180.996545 192.453021 
L 181.102826 192.201269 
L 181.142526 192.201269 
L 181.142526 192.075393 
L 181.365929 192.075393 
L 181.457152 191.57189 
L 181.573793 191.57189 
L 181.599615 191.194262 
L 181.689715 191.194262 
L 181.779386 190.564883 
L 181.894052 190.564883 
L 181.894052 190.439007 
L 182.020644 190.439007 
L 182.020644 190.313131 
L 182.14639 190.313131 
L 182.14639 190.187255 
L 182.345852 190.187255 
L 182.444795 189.683752 
L 182.530946 189.683752 
L 182.592241 189.306124 
L 182.774938 189.306124 
L 182.799165 188.802621 
L 182.895758 188.802621 
L 182.991858 187.92149 
L 183.063612 187.92149 
L 183.135094 187.29211 
L 183.218147 187.29211 
L 183.300836 186.914483 
L 183.371423 186.914483 
L 183.430044 186.285103 
L 183.50015 186.285103 
L 183.569995 185.529848 
L 183.628001 185.529848 
L 183.674278 185.278097 
L 183.777987 185.278097 
L 183.777987 185.026345 
L 183.926786 185.026345 
L 183.995068 184.648717 
L 184.040451 184.648717 
L 184.142166 184.145214 
L 184.187197 184.145214 
L 184.276936 183.64171 
L 184.332807 183.64171 
L 184.388512 183.389959 
L 184.45514 183.389959 
L 184.510485 183.138207 
L 184.664589 183.138207 
L 184.752084 182.760579 
L 184.850033 182.760579 
L 184.91505 182.1312 
L 184.96906 182.1312 
L 184.96906 181.879448 
L 185.130164 181.879448 
L 185.226169 180.872441 
L 185.268681 180.872441 
L 185.342847 180.368938 
L 185.385096 180.368938 
L 185.490306 179.613683 
L 185.615787 179.613683 
L 185.647027 179.236055 
L 185.750786 179.236055 
L 185.812768 178.354924 
L 185.895095 178.354924 
L 185.946366 177.977297 
L 186.007709 177.977297 
L 186.089188 177.347917 
L 186.160194 177.347917 
L 186.170316 176.97029 
L 186.291356 176.97029 
L 186.291356 176.718538 
L 186.461507 176.718538 
L 186.560881 176.089159 
L 186.610373 176.089159 
L 186.679442 175.711531 
L 186.8266 175.711531 
L 186.924069 175.333903 
L 186.962916 175.333903 
L 186.962916 175.208028 
L 187.117506 175.208028 
L 187.223054 174.075145 
L 187.251738 174.075145 
L 187.337526 173.697517 
L 187.536192 173.697517 
L 187.620696 172.816386 
L 187.64878 172.816386 
L 187.742092 172.438759 
L 187.927337 172.438759 
L 188.019281 171.054124 
L 188.046776 171.054124 
L 188.110777 170.676497 
L 188.219988 170.676497 
L 188.310515 169.921241 
L 188.355616 169.921241 
L 188.409595 168.914234 
L 188.517089 168.914234 
L 188.606202 168.662483 
L 188.791974 168.662483 
L 188.871033 168.033103 
L 188.94103 168.033103 
L 189.002064 167.403724 
L 189.054221 167.403724 
L 189.14947 166.522593 
L 189.29573 166.522593 
L 189.406814 166.144966 
L 189.576441 166.144966 
L 189.635451 165.893214 
L 189.711051 165.893214 
L 189.794695 165.38971 
L 189.828049 165.38971 
L 189.902879 164.760331 
L 189.969146 164.760331 
L 190.059884 164.256828 
L 190.125601 164.256828 
L 190.125601 163.8792 
L 190.256351 163.8792 
L 190.256351 163.753324 
L 190.378109 163.753324 
L 190.458846 163.375697 
L 190.507122 163.375697 
L 190.595307 162.872193 
L 190.627272 162.872193 
L 190.627272 162.620441 
L 190.754593 162.620441 
L 190.754593 162.494566 
L 190.943973 162.494566 
L 190.991021 162.242814 
L 191.061374 162.242814 
L 191.147005 161.487559 
L 191.193549 161.487559 
L 191.26315 160.984055 
L 191.309408 160.984055 
L 191.39392 160.354676 
L 191.424558 160.354676 
L 191.470421 159.851172 
L 191.614921 159.851172 
L 191.69053 159.347669 
L 191.75832 159.347669 
L 191.780862 159.095917 
L 191.89317 159.095917 
L 191.982536 158.340662 
L 192.12317 158.340662 
L 192.182072 157.711283 
L 192.379512 157.711283 
L 192.473842 157.207779 
L 192.62523 157.207779 
L 192.711193 156.200772 
L 192.775408 156.200772 
L 192.825202 155.697269 
L 192.896109 155.697269 
L 192.896109 155.445517 
L 193.058188 155.445517 
L 193.072216 155.193766 
L 193.191033 155.193766 
L 193.239741 154.816138 
L 193.30218 154.816138 
L 193.405787 154.186759 
L 193.43332 154.186759 
L 193.495121 153.683255 
L 193.577208 153.683255 
L 193.584032 153.431503 
L 193.692888 153.431503 
L 193.692888 153.179752 
L 194.022393 153.179752 
L 194.088935 152.676248 
L 194.161861 152.676248 
L 194.241095 152.172745 
L 194.280588 152.172745 
L 194.385497 151.795117 
L 194.444253 151.795117 
L 194.483322 151.41749 
L 194.606506 151.41749 
L 194.651688 150.913986 
L 194.88235 150.913986 
L 194.964955 150.284607 
L 195.009284 150.284607 
L 195.091334 149.906979 
L 195.141649 149.906979 
L 195.248124 149.151724 
L 195.266852 149.151724 
L 195.372622 148.648221 
L 195.446927 148.648221 
L 195.533247 148.396469 
L 195.619173 148.396469 
L 195.661989 148.144717 
L 195.832285 148.144717 
L 195.87462 147.76709 
L 195.983044 147.76709 
L 196.025041 147.389462 
L 196.138562 147.389462 
L 196.23363 146.508331 
L 196.31052 146.508331 
L 196.31052 146.382455 
L 196.545154 146.382455 
L 196.597546 146.130703 
L 196.684543 146.130703 
L 196.794164 145.753076 
L 197.056948 145.753076 
L 197.1249 145.249572 
L 197.215124 145.249572 
L 197.265685 144.871945 
L 197.47768 144.871945 
L 197.47768 144.746069 
L 197.725675 144.746069 
L 197.747562 143.990814 
L 197.916325 143.990814 
L 197.959632 143.613186 
L 198.131871 143.613186 
L 198.174685 142.983807 
L 198.244052 142.983807 
L 198.339677 142.354428 
L 198.434818 142.354428 
L 198.434818 142.102676 
L 198.639322 142.102676 
L 198.639322 141.9768 
L 198.836466 141.9768 
L 198.836466 141.850924 
L 198.959923 141.850924 
L 198.959923 141.725048 
L 199.128363 141.725048 
L 199.128363 141.599172 
L 199.29027 141.599172 
L 199.365688 141.095669 
L 199.679179 141.095669 
L 199.772708 140.718041 
L 199.81195 140.718041 
L 199.846219 140.46629 
L 199.987532 140.46629 
L 200.031173 140.088662 
L 200.286135 140.088662 
L 200.305237 139.711034 
L 200.414704 139.711034 
L 200.443156 139.459283 
L 200.580071 139.459283 
L 200.580071 139.333407 
L 200.952681 139.333407 
L 201.044692 138.955779 
L 201.245545 138.955779 
L 201.245545 138.829903 
L 201.426297 138.829903 
L 201.426297 138.704028 
L 201.596417 138.704028 
L 201.698641 138.452276 
L 201.88828 138.452276 
L 201.88828 138.3264 
L 202.149737 138.3264 
L 202.257615 137.571145 
L 202.552185 137.571145 
L 202.552185 137.445269 
L 202.687247 137.445269 
L 202.691452 136.941766 
L 202.846384 136.941766 
L 202.946202 136.438262 
L 203.429416 136.438262 
L 203.538259 135.808883 
L 203.658461 135.808883 
L 203.690385 135.431255 
L 203.853154 135.431255 
L 203.872908 135.179503 
L 203.967438 135.179503 
L 203.967438 135.053628 
L 204.096647 135.053628 
L 204.190063 134.676 
L 204.252083 134.676 
L 204.252083 134.550124 
L 204.367823 134.550124 
L 204.367823 134.424248 
L 204.559155 134.424248 
L 204.559155 134.298372 
L 204.786213 134.298372 
L 204.786213 134.046621 
L 205.210216 134.046621 
L 205.210216 133.920745 
L 205.34215 133.920745 
L 205.34215 133.794869 
L 205.632066 133.794869 
L 205.707435 133.16549 
L 206.016497 133.16549 
L 206.114896 132.787862 
L 206.212782 132.787862 
L 206.212782 132.661986 
L 207.713412 132.661986 
L 207.713412 132.53611 
L 207.832158 132.53611 
L 207.892846 132.032607 
L 208.563192 132.032607 
L 208.563192 131.780855 
L 208.771293 131.780855 
L 208.771293 131.654979 
L 208.934926 131.654979 
L 209.028224 131.403228 
L 209.370342 131.403228 
L 209.47031 131.151476 
L 209.499612 131.151476 
L 209.499612 131.0256 
L 209.870695 131.0256 
L 209.968045 130.773848 
L 210.181025 130.773848 
L 210.234599 130.396221 
L 210.296442 130.396221 
L 210.296442 130.270345 
L 210.522401 130.270345 
L 210.630236 129.766841 
L 211.103952 129.766841 
L 211.157646 129.51509 
L 211.307178 129.51509 
L 211.307178 129.389214 
L 211.545034 129.389214 
L 211.6315 129.137462 
L 211.805839 129.137462 
L 211.829135 128.88571 
L 212.09116 128.88571 
L 212.09116 128.759834 
L 212.372218 128.759834 
L 212.479978 128.256331 
L 212.681306 128.256331 
L 212.728221 127.752828 
L 213.077611 127.752828 
L 213.077611 127.626952 
L 213.408741 127.626952 
L 213.408741 127.501076 
L 213.560353 127.501076 
L 213.560353 127.3752 
L 213.82044 127.3752 
L 213.82044 127.123448 
L 214.028714 127.123448 
L 214.028714 126.871697 
L 214.175429 126.871697 
L 214.2256 126.619945 
L 214.537288 126.619945 
L 214.5552 126.242317 
L 214.775455 126.242317 
L 214.775455 125.990566 
L 215.128229 125.990566 
L 215.128229 125.86469 
L 215.442516 125.86469 
L 215.54683 124.983559 
L 215.646345 124.983559 
L 215.646345 124.731807 
L 215.887643 124.731807 
L 215.948007 124.354179 
L 216.222392 124.354179 
L 216.326555 123.7248 
L 216.502924 123.7248 
L 216.502924 123.598924 
L 216.657653 123.598924 
L 216.74351 123.221297 
L 217.161167 123.221297 
L 217.227296 122.969545 
L 217.293192 122.969545 
L 217.385832 122.717793 
L 217.470352 122.717793 
L 217.539224 122.340166 
L 217.661044 122.340166 
L 217.715985 122.088414 
L 218.432384 122.088414 
L 218.506899 121.710786 
L 218.719727 121.710786 
L 218.78418 121.207283 
L 218.949671 121.207283 
L 219.057434 120.577903 
L 219.113719 120.577903 
L 219.168085 120.200276 
L 219.328511 120.200276 
L 219.373602 119.948524 
L 219.444488 119.948524 
L 219.478969 119.696772 
L 219.674318 119.696772 
L 219.674318 119.445021 
L 219.946794 119.445021 
L 219.946794 119.319145 
L 220.064042 119.319145 
L 220.064042 119.193269 
L 220.31615 119.193269 
L 220.31615 118.941517 
L 220.460577 118.941517 
L 220.551911 118.312138 
L 220.600658 118.312138 
L 220.600658 118.060386 
L 220.713913 118.060386 
L 220.713913 117.808634 
L 220.840915 117.808634 
L 220.938397 117.431007 
L 221.029032 117.431007 
L 221.090795 117.179255 
L 221.352998 117.179255 
L 221.443214 116.675752 
L 221.525276 116.675752 
L 221.625432 116.298124 
L 221.737283 116.298124 
L 221.7495 115.794621 
L 221.851509 115.794621 
L 221.851509 115.668745 
L 222.035849 115.668745 
L 222.092899 115.165241 
L 222.16621 115.165241 
L 222.249644 114.787614 
L 222.623503 114.787614 
L 222.623503 114.535862 
L 222.882578 114.535862 
L 222.882578 114.409986 
L 223.149474 114.409986 
L 223.149474 114.28411 
L 223.518546 114.28411 
L 223.518546 114.032359 
L 223.672167 114.032359 
L 223.756058 113.654731 
L 223.914564 113.654731 
L 224.004156 113.277103 
L 224.101409 113.277103 
L 224.10949 113.025352 
L 224.219594 113.025352 
L 224.219594 112.7736 
L 224.463014 112.7736 
L 224.519756 112.521848 
L 224.852782 112.521848 
L 224.859254 112.270097 
L 225.22068 112.270097 
L 225.314384 111.766593 
L 225.65237 111.766593 
L 225.753827 111.388966 
L 225.801889 111.388966 
L 225.865782 111.137214 
L 226.145812 111.137214 
L 226.244649 110.759586 
L 226.521505 110.759586 
L 226.521505 110.63371 
L 226.816516 110.63371 
L 226.88868 110.004331 
L 226.939726 110.004331 
L 226.939726 109.878455 
L 227.482146 109.878455 
L 227.482146 109.626703 
L 227.783638 109.626703 
L 227.784746 109.249076 
L 228.01593 109.249076 
L 228.01593 109.1232 
L 228.145684 109.1232 
L 228.18693 108.367945 
L 228.30582 108.367945 
L 228.30582 108.242069 
L 228.440016 108.242069 
L 228.536048 107.990317 
L 228.793962 107.990317 
L 228.838003 107.360938 
L 229.060812 107.360938 
L 229.060812 107.235062 
L 229.403372 107.235062 
L 229.43891 106.857434 
L 229.590462 106.857434 
L 229.596499 106.228055 
L 229.760758 106.228055 
L 229.760758 105.976303 
L 230.05168 105.976303 
L 230.05168 105.724552 
L 230.474036 105.724552 
L 230.474036 105.4728 
L 230.658432 105.4728 
L 230.682186 105.095172 
L 230.979876 105.095172 
L 231.074039 104.717545 
L 231.141805 104.717545 
L 231.245302 104.339917 
L 231.40954 104.339917 
L 231.485211 103.710538 
L 231.545167 103.710538 
L 231.643768 103.207034 
L 231.940062 103.207034 
L 231.956041 102.703531 
L 232.134443 102.703531 
L 232.194121 102.451779 
L 232.274561 102.451779 
L 232.381571 102.200028 
L 232.730532 102.200028 
L 232.827363 101.8224 
L 232.92117 101.8224 
L 232.996047 101.318897 
L 233.381666 101.318897 
L 233.381666 101.067145 
L 233.760345 101.067145 
L 233.760345 100.941269 
L 234.123645 100.941269 
L 234.19547 100.689517 
L 234.314051 100.689517 
L 234.314051 100.31189 
L 234.461428 100.31189 
L 234.461428 100.186014 
L 234.618447 100.186014 
L 234.728274 99.808386 
L 234.878533 99.808386 
L 234.878533 99.68251 
L 235.057724 99.68251 
L 235.128326 99.304883 
L 235.434683 99.304883 
L 235.481828 98.927255 
L 235.701258 98.927255 
L 235.807129 98.046124 
L 235.845414 98.046124 
L 235.895861 97.416745 
L 236.035682 97.416745 
L 236.035682 97.164993 
L 236.257256 97.164993 
L 236.257256 97.039117 
L 236.393024 97.039117 
L 236.486017 96.535614 
L 236.527819 96.535614 
L 236.527819 96.409738 
L 236.889677 96.409738 
L 236.975497 96.03211 
L 237.039267 96.03211 
L 237.039267 95.780359 
L 237.37422 95.780359 
L 237.471767 95.150979 
L 237.591185 95.150979 
L 237.591185 94.899228 
L 237.773136 94.899228 
L 237.773136 94.647476 
L 237.927522 94.647476 
L 238.016462 94.395724 
L 238.142704 94.395724 
L 238.2071 93.892221 
L 238.457477 93.892221 
L 238.498885 93.640469 
L 238.672926 93.640469 
L 238.733678 93.262841 
L 239.245315 93.262841 
L 239.245315 93.136966 
L 239.38035 93.136966 
L 239.38035 93.01109 
L 239.602095 93.01109 
L 239.62454 92.633462 
L 240.017672 92.633462 
L 240.017672 92.38171 
L 240.547755 92.38171 
L 240.547755 92.255834 
L 240.926652 92.255834 
L 240.998123 91.878207 
L 241.763194 91.878207 
L 241.815281 91.374703 
L 241.96964 91.374703 
L 242.052834 90.745324 
L 242.202176 90.745324 
L 242.29562 90.493572 
L 242.342169 90.493572 
L 242.417629 90.115945 
L 242.665828 90.115945 
L 242.774986 89.612441 
L 242.85818 89.612441 
L 242.959804 89.234814 
L 243.101652 89.234814 
L 243.101652 88.983062 
L 243.472361 88.983062 
L 243.501686 88.73131 
L 243.611843 88.73131 
L 243.611843 88.479559 
L 243.776353 88.479559 
L 243.776353 88.227807 
L 243.938499 88.227807 
L 243.938499 87.976055 
L 244.258656 87.976055 
L 244.258656 87.724303 
L 245.010738 87.724303 
L 245.010738 87.472552 
L 245.264813 87.472552 
L 245.342069 87.2208 
L 245.464937 87.2208 
L 245.464937 87.094924 
L 245.580558 87.094924 
L 245.595175 86.591421 
L 245.918992 86.591421 
L 245.925327 86.339669 
L 246.036481 86.339669 
L 246.036481 86.213793 
L 246.313596 86.213793 
L 246.313596 86.087917 
L 246.429476 86.087917 
L 246.468082 85.458538 
L 246.644491 85.458538 
L 246.687931 85.08091 
L 246.897622 85.08091 
L 246.998806 84.451531 
L 247.042232 84.451531 
L 247.042232 84.199779 
L 247.484673 84.199779 
L 247.485451 83.822152 
L 248.07996 83.822152 
L 248.084855 83.5704 
L 248.253143 83.5704 
L 248.253143 83.444524 
L 248.615671 83.444524 
L 248.656985 83.066897 
L 248.85534 83.066897 
L 248.85534 82.941021 
L 248.971345 82.941021 
L 249.041966 82.563393 
L 249.158253 82.563393 
L 249.245883 82.311641 
L 249.47106 82.311641 
L 249.47106 82.185766 
L 249.6749 82.185766 
L 249.748104 81.808138 
L 249.91895 81.808138 
L 249.928169 81.43051 
L 250.110246 81.43051 
L 250.110246 81.304634 
L 250.32871 81.304634 
L 250.345077 80.927007 
L 250.527481 80.927007 
L 250.527481 80.801131 
L 251.097705 80.801131 
L 251.097705 80.675255 
L 251.527403 80.675255 
L 251.527403 80.549379 
L 252.138768 80.549379 
L 252.138768 80.423503 
L 252.558347 80.423503 
L 252.618502 80.045876 
L 252.682594 80.045876 
L 252.716472 79.542372 
L 252.820081 79.542372 
L 252.820081 79.416497 
L 253.017206 79.416497 
L 253.09525 78.912993 
L 253.182737 78.912993 
L 253.182737 78.787117 
L 253.296092 78.787117 
L 253.296092 78.661241 
L 253.520775 78.661241 
L 253.631557 78.283614 
L 253.874445 78.283614 
L 253.885235 77.905986 
L 254.020554 77.905986 
L 254.020554 77.78011 
L 254.235982 77.78011 
L 254.235982 77.654234 
L 254.58484 77.654234 
L 254.58484 77.528359 
L 254.801052 77.528359 
L 254.801052 77.276607 
L 255.124147 77.276607 
L 255.124147 77.150731 
L 255.238519 77.150731 
L 255.340939 76.773103 
L 255.424719 76.773103 
L 255.449678 76.395476 
L 256.060922 76.395476 
L 256.060922 76.143724 
L 256.320534 76.143724 
L 256.320534 76.017848 
L 256.584282 76.017848 
L 256.598893 75.640221 
L 256.748186 75.640221 
L 256.847927 75.262593 
L 257.19535 75.262593 
L 257.19535 75.136717 
L 257.343454 75.136717 
L 257.343454 75.010841 
L 257.513451 75.010841 
L 257.614217 74.633214 
L 257.985521 74.633214 
L 257.996416 74.12971 
L 258.165046 74.12971 
L 258.232998 73.626207 
L 258.512765 73.626207 
L 258.577536 73.248579 
L 259.04982 73.248579 
L 259.04982 72.996828 
L 259.453022 72.996828 
L 259.536363 72.745076 
L 259.807225 72.745076 
L 259.807225 72.6192 
L 259.943011 72.6192 
L 259.943011 72.367448 
L 260.059507 72.367448 
L 260.145366 71.863945 
L 260.306287 71.863945 
L 260.312578 71.612193 
L 260.597555 71.612193 
L 260.597555 71.486317 
L 260.945673 71.486317 
L 260.945673 71.360441 
L 261.475748 71.360441 
L 261.475748 71.234566 
L 261.879149 71.234566 
L 261.879149 71.10869 
L 262.469445 71.10869 
L 262.469445 70.856938 
L 262.674072 70.856938 
L 262.674072 70.731062 
L 263.237616 70.731062 
L 263.270897 70.47931 
L 263.694673 70.47931 
L 263.752219 69.975807 
L 263.961728 69.975807 
L 264.02395 69.472303 
L 264.181093 69.472303 
L 264.181093 69.220552 
L 264.428907 69.220552 
L 264.428907 68.9688 
L 264.569399 68.9688 
L 264.576764 68.465297 
L 265.158356 68.465297 
L 265.182039 68.087669 
L 265.47439 68.087669 
L 265.518405 67.332414 
L 265.877979 67.332414 
L 265.906906 67.080662 
L 266.047254 67.080662 
L 266.14668 66.703034 
L 266.632847 66.703034 
L 266.632847 66.577159 
L 266.841943 66.577159 
L 266.883568 66.325407 
L 267.282892 66.325407 
L 267.282892 66.073655 
L 267.837855 66.073655 
L 267.878519 65.821903 
L 269.039759 65.821903 
L 269.074825 65.444276 
L 269.371977 65.444276 
L 269.371977 65.3184 
L 269.511219 65.3184 
L 269.511219 65.066648 
L 269.786292 65.066648 
L 269.786292 64.940772 
L 270.541903 64.940772 
L 270.640683 64.563145 
L 270.748543 64.563145 
L 270.828501 64.311393 
L 271.7458 64.311393 
L 271.7458 64.059641 
L 271.982127 64.059641 
L 271.982127 63.933766 
L 272.109162 63.933766 
L 272.109162 63.682014 
L 272.385532 63.682014 
L 272.385532 63.430262 
L 272.655351 63.430262 
L 272.655351 63.17851 
L 274.066008 63.17851 
L 274.167345 62.926759 
L 360.8064 62.926759 
L 360.8064 62.926759 
" style="fill: none; stroke: #ff00ff; stroke-width: 1.5; stroke-linecap: square"/>
   </g>
   <g id="line2d_41">
    <defs>
     <path id="m552b1dd26f" d="M 0 8.485281 
L 5.091169 0 
L 0 -8.485281 
L -5.091169 0 
z
" style="stroke: #ff00ff; stroke-width: 1.5; stroke-linejoin: miter"/>
    </defs>
    <g>
     <use xlink:href="#m552b1dd26f" x="117.772007" y="267.60091" style="fill-opacity: 0; stroke: #ff00ff; stroke-width: 1.5; stroke-linejoin: miter"/>
     <use xlink:href="#m552b1dd26f" x="184.850033" y="182.508828" style="fill-opacity: 0; stroke: #ff00ff; stroke-width: 1.5; stroke-linejoin: miter"/>
     <use xlink:href="#m552b1dd26f" x="232.730532" y="102.074152" style="fill-opacity: 0; stroke: #ff00ff; stroke-width: 1.5; stroke-linejoin: miter"/>
     <use xlink:href="#m552b1dd26f" x="274.167345" y="62.926759" style="fill-opacity: 0; stroke: #ff00ff; stroke-width: 1.5; stroke-linejoin: miter"/>
     <use xlink:href="#m552b1dd26f" x="274.167345" y="62.926759" style="fill-opacity: 0; stroke: #ff00ff; stroke-width: 1.5; stroke-linejoin: miter"/>
     <use xlink:href="#m552b1dd26f" x="360.8064" y="62.926759" style="fill-opacity: 0; stroke: #ff00ff; stroke-width: 1.5; stroke-linejoin: miter"/>
    </g>
   </g>
   <g id="line2d_42">
    <path style="fill: none; stroke: #ff00ff; stroke-width: 1.5; stroke-linecap: square"/>
    <g/>
   </g>
   <g id="line2d_43">
    <path d="M 274.176094 62.926759 
" clip-path="url(#p29cd7b6020)" style="fill: none; stroke: #ff00ff; stroke-width: 1.5; stroke-linecap: square"/>
    <defs>
     <path id="mbb2eec4913" d="M -12 12 
L 12 -12 
M -12 -12 
L 12 12 
" style="stroke: #ff00ff"/>
    </defs>
    <g clip-path="url(#p29cd7b6020)">
     <use xlink:href="#mbb2eec4913" x="274.176094" y="62.926759" style="fill: #ff00ff; stroke: #ff00ff"/>
    </g>
   </g>
   <g id="line2d_44">
    <defs>
     <path id="m1064985666" d="M 0 1.5 
C 0.397805 1.5 0.77937 1.341951 1.06066 1.06066 
C 1.341951 0.77937 1.5 0.397805 1.5 0 
C 1.5 -0.397805 1.341951 -0.77937 1.06066 -1.06066 
C 0.77937 -1.341951 0.397805 -1.5 0 -1.5 
C -0.397805 -1.5 -0.77937 -1.341951 -1.06066 -1.06066 
C -1.341951 -0.77937 -1.5 -0.397805 -1.5 0 
C -1.5 0.397805 -1.341951 0.77937 -1.06066 1.06066 
C -0.77937 1.341951 -0.397805 1.5 0 1.5 
z
" style="stroke: #6495ed"/>
    </defs>
    <g>
     <use xlink:href="#m1064985666" x="113.954374" y="249.34891" style="fill: #6495ed; stroke: #6495ed"/>
     <use xlink:href="#m1064985666" x="113.954374" y="249.34891" style="fill: #6495ed; stroke: #6495ed"/>
    </g>
   </g>
   <g id="line2d_45">
    <path d="M 44.560826 298.944 
L 44.560826 296.426483 
L 57.6 296.426483 
L 57.6 293.908966 
L 65.227428 293.908966 
L 65.227428 291.769076 
L 70.639174 291.769076 
L 70.639174 290.384441 
L 74.836851 290.384441 
L 74.836851 288.370428 
L 78.266603 288.370428 
L 78.266603 285.727034 
L 81.166416 285.727034 
L 81.166416 282.957766 
L 83.678349 282.957766 
L 83.678349 282.328386 
L 85.894031 282.328386 
L 85.894031 282.20251 
L 87.876026 282.20251 
L 87.876026 281.950759 
L 89.668958 281.950759 
L 89.668958 281.321379 
L 91.305777 281.321379 
L 91.305777 281.195503 
L 92.811505 281.195503 
L 92.811505 279.307366 
L 94.205591 279.307366 
L 94.205591 278.929738 
L 95.503454 278.929738 
L 95.503454 278.426234 
L 96.717523 278.426234 
L 96.717523 276.789848 
L 97.857967 276.789848 
L 97.857967 275.405214 
L 98.933205 275.405214 
L 98.933205 274.398207 
L 99.950294 274.398207 
L 99.950294 273.768828 
L 100.9152 273.768828 
L 100.9152 273.013572 
L 101.833019 273.013572 
L 101.833019 272.761821 
L 102.708132 272.761821 
L 102.708132 271.503062 
L 103.544339 271.503062 
L 103.544339 268.607917 
L 104.344952 268.607917 
L 104.344952 267.097407 
L 105.112877 267.097407 
L 105.112877 265.712772 
L 105.850679 265.712772 
L 105.850679 264.957517 
L 106.560633 264.957517 
L 106.560633 263.572883 
L 107.244765 263.572883 
L 107.244765 261.684745 
L 107.904887 261.684745 
L 107.904887 260.92949 
L 108.542628 260.92949 
L 108.542628 259.922483 
L 109.159456 259.922483 
L 109.159456 258.286097 
L 109.756698 258.286097 
L 109.756698 257.27909 
L 110.897141 257.27909 
L 110.897141 256.146207 
L 111.442442 256.146207 
L 111.442442 254.132193 
L 111.97238 254.132193 
L 111.97238 252.621683 
L 112.487797 252.621683 
L 112.487797 250.985297 
L 112.989468 250.985297 
L 112.989468 250.733545 
L 113.478107 250.733545 
L 113.478107 250.230041 
L 113.954374 250.230041 
L 113.954374 249.34891 
L 360.8064 249.34891 
" style="fill: none; stroke: #6495ed; stroke-width: 1.5; stroke-linecap: square"/>
   </g>
   <g id="line2d_46">
    <defs>
     <path id="m50f64350de" d="M -0 6 
L 6 -6 
L -6 -6 
z
" style="stroke: #6495ed; stroke-width: 1.5; stroke-linejoin: miter"/>
    </defs>
    <g>
     <use xlink:href="#m50f64350de" x="113.954374" y="250.230041" style="fill-opacity: 0; stroke: #6495ed; stroke-width: 1.5; stroke-linejoin: miter"/>
     <use xlink:href="#m50f64350de" x="113.954374" y="250.230041" style="fill-opacity: 0; stroke: #6495ed; stroke-width: 1.5; stroke-linejoin: miter"/>
     <use xlink:href="#m50f64350de" x="113.954374" y="249.34891" style="fill-opacity: 0; stroke: #6495ed; stroke-width: 1.5; stroke-linejoin: miter"/>
     <use xlink:href="#m50f64350de" x="113.954374" y="249.34891" style="fill-opacity: 0; stroke: #6495ed; stroke-width: 1.5; stroke-linejoin: miter"/>
     <use xlink:href="#m50f64350de" x="113.954374" y="249.34891" style="fill-opacity: 0; stroke: #6495ed; stroke-width: 1.5; stroke-linejoin: miter"/>
     <use xlink:href="#m50f64350de" x="360.8064" y="249.34891" style="fill-opacity: 0; stroke: #6495ed; stroke-width: 1.5; stroke-linejoin: miter"/>
    </g>
   </g>
   <g id="line2d_47">
    <path style="fill: none; stroke: #6495ed; stroke-width: 1.5; stroke-linecap: square"/>
    <g/>
   </g>
   <g id="line2d_48">
    <path d="M 113.954374 249.34891 
" clip-path="url(#p29cd7b6020)" style="fill: none; stroke: #6495ed; stroke-width: 1.5; stroke-linecap: square"/>
    <defs>
     <path id="m26242abad6" d="M -12 12 
L 12 -12 
M -12 -12 
L 12 12 
" style="stroke: #6495ed"/>
    </defs>
    <g clip-path="url(#p29cd7b6020)">
     <use xlink:href="#m26242abad6" x="113.954374" y="249.34891" style="fill: #6495ed; stroke: #6495ed"/>
    </g>
   </g>
   <g id="line2d_49">
    <path d="M 360.8064 276.538097 
L 380.514816 293.10336 
" style="fill: none; stroke: #000080; stroke-width: 1.5; stroke-linecap: square"/>
    <g>
     <use xlink:href="#m756f32e016" x="360.8064" y="276.538097" style="fill-opacity: 0; stroke: #000080; stroke-width: 1.5"/>
     <use xlink:href="#m756f32e016" x="380.514816" y="293.10336" style="fill-opacity: 0; stroke: #000080; stroke-width: 1.5"/>
    </g>
   </g>
   <g id="line2d_50">
    <path d="M 360.8064 249.34891 
L 380.514816 199.65312 
" style="fill: none; stroke: #6495ed; stroke-width: 1.5; stroke-linecap: square"/>
    <g>
     <use xlink:href="#m50f64350de" x="360.8064" y="249.34891" style="fill-opacity: 0; stroke: #6495ed; stroke-width: 1.5; stroke-linejoin: miter"/>
     <use xlink:href="#m50f64350de" x="380.514816" y="199.65312" style="fill-opacity: 0; stroke: #6495ed; stroke-width: 1.5; stroke-linejoin: miter"/>
    </g>
   </g>
   <g id="line2d_51">
    <path d="M 360.8064 62.926759 
L 380.514816 106.20288 
" style="fill: none; stroke: #ff00ff; stroke-width: 1.5; stroke-linecap: square"/>
    <g>
     <use xlink:href="#m552b1dd26f" x="360.8064" y="62.926759" style="fill-opacity: 0; stroke: #ff00ff; stroke-width: 1.5; stroke-linejoin: miter"/>
     <use xlink:href="#m552b1dd26f" x="380.514816" y="106.20288" style="fill-opacity: 0; stroke: #ff00ff; stroke-width: 1.5; stroke-linejoin: miter"/>
    </g>
   </g>
   <g id="line2d_52">
    <path d="M 360.8064 298.944 
L 360.8064 6.912 
" style="fill: none; stroke: #000000; stroke-width: 1.5; stroke-linecap: square"/>
   </g>
   <g id="patch_3">
    <path d="M 57.6 298.944 
L 360.8064 298.944 
" style="fill: none; stroke: #000000; stroke-width: 0.8; stroke-linejoin: miter; stroke-linecap: square"/>
   </g>
   <g id="patch_4">
    <path d="M 57.6 6.912 
L 360.8064 6.912 
" style="fill: none; stroke: #000000; stroke-width: 0.8; stroke-linejoin: miter; stroke-linecap: square"/>
   </g>
   <g id="text_13">
    <!-- cma -->
    <g transform="translate(386.578944 296.966485)scale(0.14 -0.14)">
     <use xlink:href="#DejaVuSans-63"/>
     <use xlink:href="#DejaVuSans-6d" x="54.980469"/>
     <use xlink:href="#DejaVuSans-61" x="152.392578"/>
    </g>
   </g>
   <g id="text_14">
    <!-- parEgo -->
    <g transform="translate(386.578944 203.516245)scale(0.14 -0.14)">
     <defs>
      <path id="DejaVuSans-45" d="M 628 4666 
L 3578 4666 
L 3578 4134 
L 1259 4134 
L 1259 2753 
L 3481 2753 
L 3481 2222 
L 1259 2222 
L 1259 531 
L 3634 531 
L 3634 0 
L 628 0 
L 628 4666 
z
" transform="scale(0.015625)"/>
     </defs>
     <use xlink:href="#DejaVuSans-70"/>
     <use xlink:href="#DejaVuSans-61" x="63.476562"/>
     <use xlink:href="#DejaVuSans-72" x="124.755859"/>
     <use xlink:href="#DejaVuSans-45" x="165.869141"/>
     <use xlink:href="#DejaVuSans-67" x="229.052734"/>
     <use xlink:href="#DejaVuSans-6f" x="292.529297"/>
    </g>
   </g>
   <g id="text_15">
    <!-- external- -->
    <g transform="translate(386.578944 110.066005)scale(0.14 -0.14)">
     <defs>
      <path id="DejaVuSans-78" d="M 3513 3500 
L 2247 1797 
L 3578 0 
L 2900 0 
L 1881 1375 
L 863 0 
L 184 0 
L 1544 1831 
L 300 3500 
L 978 3500 
L 1906 2253 
L 2834 3500 
L 3513 3500 
z
" transform="scale(0.015625)"/>
     </defs>
     <use xlink:href="#DejaVuSans-65"/>
     <use xlink:href="#DejaVuSans-78" x="59.773438"/>
     <use xlink:href="#DejaVuSans-74" x="118.953125"/>
     <use xlink:href="#DejaVuSans-65" x="158.162109"/>
     <use xlink:href="#DejaVuSans-72" x="219.685547"/>
     <use xlink:href="#DejaVuSans-6e" x="259.048828"/>
     <use xlink:href="#DejaVuSans-61" x="322.427734"/>
     <use xlink:href="#DejaVuSans-6c" x="383.707031"/>
     <use xlink:href="#DejaVuSans-2d" x="411.490234"/>
    </g>
   </g>
   <g id="text_16">
    <!-- best 2016 -->
    <g transform="translate(386.578944 16.615765)scale(0.14 -0.14)">
     <defs>
      <path id="DejaVuSans-62" d="M 3116 1747 
Q 3116 2381 2855 2742 
Q 2594 3103 2138 3103 
Q 1681 3103 1420 2742 
Q 1159 2381 1159 1747 
Q 1159 1113 1420 752 
Q 1681 391 2138 391 
Q 2594 391 2855 752 
Q 3116 1113 3116 1747 
z
M 1159 2969 
Q 1341 3281 1617 3432 
Q 1894 3584 2278 3584 
Q 2916 3584 3314 3078 
Q 3713 2572 3713 1747 
Q 3713 922 3314 415 
Q 2916 -91 2278 -91 
Q 1894 -91 1617 61 
Q 1341 213 1159 525 
L 1159 0 
L 581 0 
L 581 4863 
L 1159 4863 
L 1159 2969 
z
" transform="scale(0.015625)"/>
     </defs>
     <use xlink:href="#DejaVuSans-62"/>
     <use xlink:href="#DejaVuSans-65" x="63.476562"/>
     <use xlink:href="#DejaVuSans-73" x="125"/>
     <use xlink:href="#DejaVuSans-74" x="177.099609"/>
     <use xlink:href="#DejaVuSans-20" x="216.308594"/>
     <use xlink:href="#DejaVuSans-32" x="248.095703"/>
     <use xlink:href="#DejaVuSans-30" x="311.71875"/>
     <use xlink:href="#DejaVuSans-31" x="375.341797"/>
     <use xlink:href="#DejaVuSans-36" x="438.964844"/>
    </g>
   </g>
   <g id="text_17">
    <!-- bbob-biobj f39, f40, f44, f45, 2-D -->
    <g transform="translate(60.632064 17.582726)scale(0.102 -0.102)">
     <defs>
      <path id="DejaVuSans-6a" d="M 603 3500 
L 1178 3500 
L 1178 -63 
Q 1178 -731 923 -1031 
Q 669 -1331 103 -1331 
L -116 -1331 
L -116 -844 
L 38 -844 
Q 366 -844 484 -692 
Q 603 -541 603 -63 
L 603 3500 
z
M 603 4863 
L 1178 4863 
L 1178 4134 
L 603 4134 
L 603 4863 
z
" transform="scale(0.015625)"/>
      <path id="DejaVuSans-33" d="M 2597 2516 
Q 3050 2419 3304 2112 
Q 3559 1806 3559 1356 
Q 3559 666 3084 287 
Q 2609 -91 1734 -91 
Q 1441 -91 1130 -33 
Q 819 25 488 141 
L 488 750 
Q 750 597 1062 519 
Q 1375 441 1716 441 
Q 2309 441 2620 675 
Q 2931 909 2931 1356 
Q 2931 1769 2642 2001 
Q 2353 2234 1838 2234 
L 1294 2234 
L 1294 2753 
L 1863 2753 
Q 2328 2753 2575 2939 
Q 2822 3125 2822 3475 
Q 2822 3834 2567 4026 
Q 2313 4219 1838 4219 
Q 1578 4219 1281 4162 
Q 984 4106 628 3988 
L 628 4550 
Q 988 4650 1302 4700 
Q 1616 4750 1894 4750 
Q 2613 4750 3031 4423 
Q 3450 4097 3450 3541 
Q 3450 3153 3228 2886 
Q 3006 2619 2597 2516 
z
" transform="scale(0.015625)"/>
      <path id="DejaVuSans-39" d="M 703 97 
L 703 672 
Q 941 559 1184 500 
Q 1428 441 1663 441 
Q 2288 441 2617 861 
Q 2947 1281 2994 2138 
Q 2813 1869 2534 1725 
Q 2256 1581 1919 1581 
Q 1219 1581 811 2004 
Q 403 2428 403 3163 
Q 403 3881 828 4315 
Q 1253 4750 1959 4750 
Q 2769 4750 3195 4129 
Q 3622 3509 3622 2328 
Q 3622 1225 3098 567 
Q 2575 -91 1691 -91 
Q 1453 -91 1209 -44 
Q 966 3 703 97 
z
M 1959 2075 
Q 2384 2075 2632 2365 
Q 2881 2656 2881 3163 
Q 2881 3666 2632 3958 
Q 2384 4250 1959 4250 
Q 1534 4250 1286 3958 
Q 1038 3666 1038 3163 
Q 1038 2656 1286 2365 
Q 1534 2075 1959 2075 
z
" transform="scale(0.015625)"/>
      <path id="DejaVuSans-35" d="M 691 4666 
L 3169 4666 
L 3169 4134 
L 1269 4134 
L 1269 2991 
Q 1406 3038 1543 3061 
Q 1681 3084 1819 3084 
Q 2600 3084 3056 2656 
Q 3513 2228 3513 1497 
Q 3513 744 3044 326 
Q 2575 -91 1722 -91 
Q 1428 -91 1123 -41 
Q 819 9 494 109 
L 494 744 
Q 775 591 1075 516 
Q 1375 441 1709 441 
Q 2250 441 2565 725 
Q 2881 1009 2881 1497 
Q 2881 1984 2565 2268 
Q 2250 2553 1709 2553 
Q 1456 2553 1204 2497 
Q 953 2441 691 2322 
L 691 4666 
z
" transform="scale(0.015625)"/>
      <path id="DejaVuSans-44" d="M 1259 4147 
L 1259 519 
L 2022 519 
Q 2988 519 3436 956 
Q 3884 1394 3884 2338 
Q 3884 3275 3436 3711 
Q 2988 4147 2022 4147 
L 1259 4147 
z
M 628 4666 
L 1925 4666 
Q 3281 4666 3915 4102 
Q 4550 3538 4550 2338 
Q 4550 1131 3912 565 
Q 3275 0 1925 0 
L 628 0 
L 628 4666 
z
" transform="scale(0.015625)"/>
     </defs>
     <use xlink:href="#DejaVuSans-62"/>
     <use xlink:href="#DejaVuSans-62" x="63.476562"/>
     <use xlink:href="#DejaVuSans-6f" x="126.953125"/>
     <use xlink:href="#DejaVuSans-62" x="188.134766"/>
     <use xlink:href="#DejaVuSans-2d" x="251.611328"/>
     <use xlink:href="#DejaVuSans-62" x="287.695312"/>
     <use xlink:href="#DejaVuSans-69" x="351.171875"/>
     <use xlink:href="#DejaVuSans-6f" x="378.955078"/>
     <use xlink:href="#DejaVuSans-62" x="440.136719"/>
     <use xlink:href="#DejaVuSans-6a" x="503.613281"/>
     <use xlink:href="#DejaVuSans-20" x="531.396484"/>
     <use xlink:href="#DejaVuSans-66" x="563.183594"/>
     <use xlink:href="#DejaVuSans-33" x="598.388672"/>
     <use xlink:href="#DejaVuSans-39" x="662.011719"/>
     <use xlink:href="#DejaVuSans-2c" x="725.634766"/>
     <use xlink:href="#DejaVuSans-20" x="757.421875"/>
     <use xlink:href="#DejaVuSans-66" x="789.208984"/>
     <use xlink:href="#DejaVuSans-34" x="824.414062"/>
     <use xlink:href="#DejaVuSans-30" x="888.037109"/>
     <use xlink:href="#DejaVuSans-2c" x="951.660156"/>
     <use xlink:href="#DejaVuSans-20" x="983.447266"/>
     <use xlink:href="#DejaVuSans-66" x="1015.234375"/>
     <use xlink:href="#DejaVuSans-34" x="1050.439453"/>
     <use xlink:href="#DejaVuSans-34" x="1114.0625"/>
     <use xlink:href="#DejaVuSans-2c" x="1177.685547"/>
     <use xlink:href="#DejaVuSans-20" x="1209.472656"/>
     <use xlink:href="#DejaVuSans-66" x="1241.259766"/>
     <use xlink:href="#DejaVuSans-34" x="1276.464844"/>
     <use xlink:href="#DejaVuSans-35" x="1340.087891"/>
     <use xlink:href="#DejaVuSans-2c" x="1403.710938"/>
     <use xlink:href="#DejaVuSans-20" x="1435.498047"/>
     <use xlink:href="#DejaVuSans-32" x="1467.285156"/>
     <use xlink:href="#DejaVuSans-2d" x="1530.908203"/>
     <use xlink:href="#DejaVuSans-44" x="1566.992188"/>
    </g>
    <!-- 58 targets: 1..-1.0e-4 -->
    <g transform="translate(60.632064 29.004495)scale(0.102 -0.102)">
     <defs>
      <path id="DejaVuSans-3a" d="M 750 794 
L 1409 794 
L 1409 0 
L 750 0 
L 750 794 
z
M 750 3309 
L 1409 3309 
L 1409 2516 
L 750 2516 
L 750 3309 
z
" transform="scale(0.015625)"/>
     </defs>
     <use xlink:href="#DejaVuSans-35"/>
     <use xlink:href="#DejaVuSans-38" x="63.623047"/>
     <use xlink:href="#DejaVuSans-20" x="127.246094"/>
     <use xlink:href="#DejaVuSans-74" x="159.033203"/>
     <use xlink:href="#DejaVuSans-61" x="198.242188"/>
     <use xlink:href="#DejaVuSans-72" x="259.521484"/>
     <use xlink:href="#DejaVuSans-67" x="298.884766"/>
     <use xlink:href="#DejaVuSans-65" x="362.361328"/>
     <use xlink:href="#DejaVuSans-74" x="423.884766"/>
     <use xlink:href="#DejaVuSans-73" x="463.09375"/>
     <use xlink:href="#DejaVuSans-3a" x="515.193359"/>
     <use xlink:href="#DejaVuSans-20" x="548.884766"/>
     <use xlink:href="#DejaVuSans-31" x="580.671875"/>
     <use xlink:href="#DejaVuSans-2e" x="644.294922"/>
     <use xlink:href="#DejaVuSans-2e" x="676.082031"/>
     <use xlink:href="#DejaVuSans-2d" x="707.869141"/>
     <use xlink:href="#DejaVuSans-31" x="743.953125"/>
     <use xlink:href="#DejaVuSans-2e" x="807.576172"/>
     <use xlink:href="#DejaVuSans-30" x="839.363281"/>
     <use xlink:href="#DejaVuSans-65" x="902.986328"/>
     <use xlink:href="#DejaVuSans-2d" x="964.509766"/>
     <use xlink:href="#DejaVuSans-34" x="1000.59375"/>
    </g>
    <!-- 10 instances -->
    <g transform="translate(60.632064 40.426264)scale(0.102 -0.102)">
     <use xlink:href="#DejaVuSans-31"/>
     <use xlink:href="#DejaVuSans-30" x="63.623047"/>
     <use xlink:href="#DejaVuSans-20" x="127.246094"/>
     <use xlink:href="#DejaVuSans-69" x="159.033203"/>
     <use xlink:href="#DejaVuSans-6e" x="186.816406"/>
     <use xlink:href="#DejaVuSans-73" x="250.195312"/>
     <use xlink:href="#DejaVuSans-74" x="302.294922"/>
     <use xlink:href="#DejaVuSans-61" x="341.503906"/>
     <use xlink:href="#DejaVuSans-6e" x="402.783203"/>
     <use xlink:href="#DejaVuSans-63" x="466.162109"/>
     <use xlink:href="#DejaVuSans-65" x="521.142578"/>
     <use xlink:href="#DejaVuSans-73" x="582.666016"/>
    </g>
   </g>
   <g id="text_18">
    <!-- v2.6, hv-hash=ff0e71e8cd978373 -->
    <g style="fill: #808080" transform="translate(123.707887 293.943992)scale(0.1 -0.1)">
     <defs>
      <path id="DejaVuSans-68" d="M 3513 2113 
L 3513 0 
L 2938 0 
L 2938 2094 
Q 2938 2591 2744 2837 
Q 2550 3084 2163 3084 
Q 1697 3084 1428 2787 
Q 1159 2491 1159 1978 
L 1159 0 
L 581 0 
L 581 4863 
L 1159 4863 
L 1159 2956 
Q 1366 3272 1645 3428 
Q 1925 3584 2291 3584 
Q 2894 3584 3203 3211 
Q 3513 2838 3513 2113 
z
" transform="scale(0.015625)"/>
      <path id="DejaVuSans-3d" d="M 678 2906 
L 4684 2906 
L 4684 2381 
L 678 2381 
L 678 2906 
z
M 678 1631 
L 4684 1631 
L 4684 1100 
L 678 1100 
L 678 1631 
z
" transform="scale(0.015625)"/>
      <path id="DejaVuSans-37" d="M 525 4666 
L 3525 4666 
L 3525 4397 
L 1831 0 
L 1172 0 
L 2766 4134 
L 525 4134 
L 525 4666 
z
" transform="scale(0.015625)"/>
     </defs>
     <use xlink:href="#DejaVuSans-76"/>
     <use xlink:href="#DejaVuSans-32" x="59.179688"/>
     <use xlink:href="#DejaVuSans-2e" x="122.802734"/>
     <use xlink:href="#DejaVuSans-36" x="154.589844"/>
     <use xlink:href="#DejaVuSans-2c" x="218.212891"/>
     <use xlink:href="#DejaVuSans-20" x="250"/>
     <use xlink:href="#DejaVuSans-68" x="281.787109"/>
     <use xlink:href="#DejaVuSans-76" x="345.166016"/>
     <use xlink:href="#DejaVuSans-2d" x="401.720703"/>
     <use xlink:href="#DejaVuSans-68" x="437.804688"/>
     <use xlink:href="#DejaVuSans-61" x="501.183594"/>
     <use xlink:href="#DejaVuSans-73" x="562.462891"/>
     <use xlink:href="#DejaVuSans-68" x="614.5625"/>
     <use xlink:href="#DejaVuSans-3d" x="677.941406"/>
     <use xlink:href="#DejaVuSans-66" x="761.730469"/>
     <use xlink:href="#DejaVuSans-66" x="796.935547"/>
     <use xlink:href="#DejaVuSans-30" x="832.140625"/>
     <use xlink:href="#DejaVuSans-65" x="895.763672"/>
     <use xlink:href="#DejaVuSans-37" x="957.287109"/>
     <use xlink:href="#DejaVuSans-31" x="1020.910156"/>
     <use xlink:href="#DejaVuSans-65" x="1084.533203"/>
     <use xlink:href="#DejaVuSans-38" x="1146.056641"/>
     <use xlink:href="#DejaVuSans-63" x="1209.679688"/>
     <use xlink:href="#DejaVuSans-64" x="1264.660156"/>
     <use xlink:href="#DejaVuSans-39" x="1328.136719"/>
     <use xlink:href="#DejaVuSans-37" x="1391.759766"/>
     <use xlink:href="#DejaVuSans-38" x="1455.382812"/>
     <use xlink:href="#DejaVuSans-33" x="1519.005859"/>
     <use xlink:href="#DejaVuSans-37" x="1582.628906"/>
     <use xlink:href="#DejaVuSans-33" x="1646.251953"/>
    </g>
   </g>
  </g>
 </g>
 <defs>
  <clipPath id="p29cd7b6020">
   <rect x="57.6" y="6.912" width="303.2064" height="292.032"/>
  </clipPath>
 </defs>
</svg>
