<?xml version="1.0" encoding="utf-8" standalone="no"?>
<!DOCTYPE svg PUBLIC "-//W3C//DTD SVG 1.1//EN"
  "http://www.w3.org/Graphics/SVG/1.1/DTD/svg11.dtd">
<svg xmlns:xlink="http://www.w3.org/1999/xlink" width="460.8pt" height="345.6pt" viewBox="0 0 460.8 345.6" xmlns="http://www.w3.org/2000/svg" version="1.1">
 <metadata>
  <rdf:RDF xmlns:dc="http://purl.org/dc/elements/1.1/" xmlns:cc="http://creativecommons.org/ns#" xmlns:rdf="http://www.w3.org/1999/02/22-rdf-syntax-ns#">
   <cc:Work>
    <dc:type rdf:resource="http://purl.org/dc/dcmitype/StillImage"/>
    <dc:date>2022-06-19T21:03:04.993787</dc:date>
    <dc:format>image/svg+xml</dc:format>
    <dc:creator>
     <cc:Agent>
      <dc:title>Matplotlib v3.5.1, https://matplotlib.org/</dc:title>
     </cc:Agent>
    </dc:creator>
   </cc:Work>
  </rdf:RDF>
 </metadata>
 <defs>
  <style type="text/css">*{stroke-linejoin: round; stroke-linecap: butt}</style>
 </defs>
 <g id="figure_1">
  <g id="patch_1">
   <path d="M 0 345.6 
L 460.8 345.6 
L 460.8 0 
L 0 0 
z
" style="fill: #ffffff"/>
  </g>
  <g id="axes_1">
   <g id="patch_2">
    <path d="M 57.6 298.944 
L 360.8064 298.944 
L 360.8064 6.912 
L 57.6 6.912 
z
" style="fill: #ffffff"/>
   </g>
   <g id="line2d_1">
    <path d="M 14.2848 298.944 
L 14.2848 292.230621 
L 44.560826 292.230621 
L 44.560826 290.552276 
L 47.990577 290.552276 
L 47.990577 287.195586 
L 53.402323 287.195586 
L 53.402323 283.838897 
L 57.6 283.838897 
L 57.6 280.482207 
L 77.628862 280.482207 
L 77.628862 277.125517 
L 82.713442 277.125517 
L 82.713442 275.447172 
L 83.678349 275.447172 
L 83.678349 272.090483 
L 85.894031 272.090483 
L 85.894031 270.412138 
L 99.550033 270.412138 
L 99.550033 268.733793 
L 100.147275 268.733793 
L 100.147275 263.698759 
L 101.471247 263.698759 
L 101.471247 258.663724 
L 105.26277 258.663724 
L 105.26277 255.307034 
L 111.656212 255.307034 
L 111.656212 250.272 
L 114.510421 250.272 
L 114.510421 246.91531 
L 123.202939 246.91531 
L 123.202939 243.558621 
L 123.825333 243.558621 
L 123.936316 240.201931 
L 131.002163 240.201931 
L 131.002163 236.845241 
L 133.457005 236.845241 
L 133.457005 235.166897 
L 136.242113 235.166897 
L 136.242113 231.810207 
L 139.628669 231.810207 
L 139.628669 226.775172 
L 141.062184 226.775172 
L 141.062184 223.418483 
L 144.694906 223.418483 
L 144.694906 218.383448 
L 146.328666 218.383448 
L 146.328666 215.026759 
L 151.089903 215.026759 
L 151.089903 209.991724 
L 153.071898 209.991724 
L 153.071898 206.635034 
L 153.340389 206.635034 
L 153.340389 203.278345 
L 159.14782 203.278345 
L 159.14782 199.921655 
L 160.279249 199.921655 
L 160.279249 196.564966 
L 162.168843 196.564966 
L 162.168843 193.208276 
L 166.758217 193.208276 
L 166.758217 189.851586 
L 167.23491 189.851586 
L 167.23491 188.173241 
L 170.209728 188.173241 
L 170.209728 184.816552 
L 173.458168 184.816552 
L 173.458168 181.459862 
L 173.588983 181.459862 
L 173.588983 176.424828 
L 176.842118 176.424828 
L 176.842118 174.746483 
L 179.577437 174.746483 
L 179.577437 173.068138 
L 181.717944 173.068138 
L 181.717944 171.389793 
L 184.252301 171.389793 
L 184.252301 166.354759 
L 190.051653 166.354759 
L 190.051653 161.319724 
L 194.948463 161.319724 
L 194.948463 156.28469 
L 196.400026 156.28469 
L 196.400026 154.606345 
L 199.924316 154.606345 
L 199.924316 151.249655 
L 204.016877 151.249655 
L 204.016877 149.57131 
L 204.987504 149.57131 
L 204.987504 144.536276 
L 208.063633 144.536276 
L 208.063633 142.857931 
L 210.399436 142.857931 
L 210.399436 137.822897 
L 214.655635 137.822897 
L 214.655635 134.466207 
L 214.967781 134.466207 
L 214.967781 129.431172 
L 218.387532 129.431172 
L 218.387532 126.074483 
L 222.338926 126.074483 
L 222.338926 124.396138 
L 224.852006 124.396138 
L 224.852006 122.717793 
L 225.126253 122.717793 
L 225.126253 121.039448 
L 228.948071 121.039448 
L 228.948071 116.004414 
L 231.851752 116.004414 
L 231.851752 110.969379 
L 232.12442 110.969379 
L 232.12442 105.934345 
L 236.235357 105.934345 
L 236.235357 102.577655 
L 238.07719 102.577655 
L 238.07719 100.89931 
L 238.998683 100.89931 
L 238.998683 99.220966 
L 243.426119 99.220966 
L 243.426119 95.864276 
L 245.058999 95.864276 
L 245.058999 90.829241 
L 249.049908 90.829241 
L 249.049908 85.794207 
L 252.863702 85.794207 
L 252.863702 84.115862 
L 253.336176 84.115862 
L 253.336176 80.759172 
L 256.319659 80.759172 
L 256.319659 77.402483 
L 262.170275 77.402483 
L 262.170275 74.045793 
L 262.90128 74.045793 
L 262.90128 70.689103 
L 266.865958 70.689103 
L 266.865958 67.332414 
L 270.120331 67.332414 
L 270.120331 62.297379 
L 271.502152 62.297379 
L 271.502152 60.619034 
L 274.56498 60.619034 
L 274.56498 58.94069 
L 280.079725 58.94069 
L 280.079725 55.584 
L 284.452982 55.584 
L 284.452982 52.22731 
L 288.965236 52.22731 
L 288.965236 47.192276 
L 292.617588 47.192276 
L 292.617588 42.157241 
L 360.8064 42.157241 
L 360.8064 42.157241 
" style="fill: none; stroke: #f5deb3; stroke-width: 4; stroke-linecap: square"/>
   </g>
   <g id="line2d_2">
    <defs>
     <path id="mff2e3f6c35" d="M 0 7.778175 
L 7.778175 0 
L 0 -7.778175 
L -7.778175 0 
z
" style="stroke: #f5deb3; stroke-width: 1.5; stroke-linejoin: miter"/>
    </defs>
    <g>
     <use xlink:href="#mff2e3f6c35" x="77.628862" y="277.125517" style="fill: #f5deb3; stroke: #f5deb3; stroke-width: 1.5; stroke-linejoin: miter"/>
     <use xlink:href="#mff2e3f6c35" x="146.328666" y="215.026759" style="fill: #f5deb3; stroke: #f5deb3; stroke-width: 1.5; stroke-linejoin: miter"/>
     <use xlink:href="#mff2e3f6c35" x="210.399436" y="142.857931" style="fill: #f5deb3; stroke: #f5deb3; stroke-width: 1.5; stroke-linejoin: miter"/>
     <use xlink:href="#mff2e3f6c35" x="262.170275" y="74.045793" style="fill: #f5deb3; stroke: #f5deb3; stroke-width: 1.5; stroke-linejoin: miter"/>
     <use xlink:href="#mff2e3f6c35" x="292.617588" y="42.157241" style="fill: #f5deb3; stroke: #f5deb3; stroke-width: 1.5; stroke-linejoin: miter"/>
     <use xlink:href="#mff2e3f6c35" x="360.8064" y="42.157241" style="fill: #f5deb3; stroke: #f5deb3; stroke-width: 1.5; stroke-linejoin: miter"/>
    </g>
   </g>
   <g id="line2d_3">
    <path style="fill: none; stroke: #f5deb3; stroke-width: 4; stroke-linecap: square"/>
    <g/>
   </g>
   <g id="line2d_4">
    <path d="M 360.8064 42.157241 
L 380.514816 12.75264 
" style="fill: none; stroke: #f5deb3; stroke-width: 4; stroke-linecap: square"/>
    <g>
     <use xlink:href="#mff2e3f6c35" x="360.8064" y="42.157241" style="fill: #f5deb3; stroke: #f5deb3; stroke-width: 1.5; stroke-linejoin: miter"/>
     <use xlink:href="#mff2e3f6c35" x="380.514816" y="12.75264" style="fill: #f5deb3; stroke: #f5deb3; stroke-width: 1.5; stroke-linejoin: miter"/>
    </g>
   </g>
   <g id="matplotlib.axis_1">
    <g id="xtick_1">
     <g id="line2d_5">
      <path d="M 57.6 298.944 
L 57.6 6.912 
" clip-path="url(#p766300dc19)" style="fill: none; stroke: #b0b0b0; stroke-width: 0.8; stroke-linecap: square"/>
     </g>
     <g id="line2d_6">
      <defs>
       <path id="mce1c33744c" d="M 0 0 
L 0 3.5 
" style="stroke: #000000; stroke-width: 0.8"/>
      </defs>
      <g>
       <use xlink:href="#mce1c33744c" x="57.6" y="298.944" style="stroke: #000000; stroke-width: 0.8"/>
      </g>
     </g>
     <g id="text_1">
      <!-- 0 -->
      <g transform="translate(52.191875 318.861344)scale(0.17 -0.17)">
       <defs>
        <path id="DejaVuSans-30" d="M 2034 4250 
Q 1547 4250 1301 3770 
Q 1056 3291 1056 2328 
Q 1056 1369 1301 889 
Q 1547 409 2034 409 
Q 2525 409 2770 889 
Q 3016 1369 3016 2328 
Q 3016 3291 2770 3770 
Q 2525 4250 2034 4250 
z
M 2034 4750 
Q 2819 4750 3233 4129 
Q 3647 3509 3647 2328 
Q 3647 1150 3233 529 
Q 2819 -91 2034 -91 
Q 1250 -91 836 529 
Q 422 1150 422 2328 
Q 422 3509 836 4129 
Q 1250 4750 2034 4750 
z
" transform="scale(0.015625)"/>
       </defs>
       <use xlink:href="#DejaVuSans-30"/>
      </g>
     </g>
    </g>
    <g id="xtick_2">
     <g id="line2d_7">
      <path d="M 144.2304 298.944 
L 144.2304 6.912 
" clip-path="url(#p766300dc19)" style="fill: none; stroke: #b0b0b0; stroke-width: 0.8; stroke-linecap: square"/>
     </g>
     <g id="line2d_8">
      <g>
       <use xlink:href="#mce1c33744c" x="144.2304" y="298.944" style="stroke: #000000; stroke-width: 0.8"/>
      </g>
     </g>
     <g id="text_2">
      <!-- 2 -->
      <g transform="translate(138.822275 318.861344)scale(0.17 -0.17)">
       <defs>
        <path id="DejaVuSans-32" d="M 1228 531 
L 3431 531 
L 3431 0 
L 469 0 
L 469 531 
Q 828 903 1448 1529 
Q 2069 2156 2228 2338 
Q 2531 2678 2651 2914 
Q 2772 3150 2772 3378 
Q 2772 3750 2511 3984 
Q 2250 4219 1831 4219 
Q 1534 4219 1204 4116 
Q 875 4013 500 3803 
L 500 4441 
Q 881 4594 1212 4672 
Q 1544 4750 1819 4750 
Q 2544 4750 2975 4387 
Q 3406 4025 3406 3419 
Q 3406 3131 3298 2873 
Q 3191 2616 2906 2266 
Q 2828 2175 2409 1742 
Q 1991 1309 1228 531 
z
" transform="scale(0.015625)"/>
       </defs>
       <use xlink:href="#DejaVuSans-32"/>
      </g>
     </g>
    </g>
    <g id="xtick_3">
     <g id="line2d_9">
      <path d="M 230.8608 298.944 
L 230.8608 6.912 
" clip-path="url(#p766300dc19)" style="fill: none; stroke: #b0b0b0; stroke-width: 0.8; stroke-linecap: square"/>
     </g>
     <g id="line2d_10">
      <g>
       <use xlink:href="#mce1c33744c" x="230.8608" y="298.944" style="stroke: #000000; stroke-width: 0.8"/>
      </g>
     </g>
     <g id="text_3">
      <!-- 4 -->
      <g transform="translate(225.452675 318.861344)scale(0.17 -0.17)">
       <defs>
        <path id="DejaVuSans-34" d="M 2419 4116 
L 825 1625 
L 2419 1625 
L 2419 4116 
z
M 2253 4666 
L 3047 4666 
L 3047 1625 
L 3713 1625 
L 3713 1100 
L 3047 1100 
L 3047 0 
L 2419 0 
L 2419 1100 
L 313 1100 
L 313 1709 
L 2253 4666 
z
" transform="scale(0.015625)"/>
       </defs>
       <use xlink:href="#DejaVuSans-34"/>
      </g>
     </g>
    </g>
    <g id="xtick_4">
     <g id="line2d_11">
      <path d="M 317.4912 298.944 
L 317.4912 6.912 
" clip-path="url(#p766300dc19)" style="fill: none; stroke: #b0b0b0; stroke-width: 0.8; stroke-linecap: square"/>
     </g>
     <g id="line2d_12">
      <g>
       <use xlink:href="#mce1c33744c" x="317.4912" y="298.944" style="stroke: #000000; stroke-width: 0.8"/>
      </g>
     </g>
     <g id="text_4">
      <!-- 6 -->
      <g transform="translate(312.083075 318.861344)scale(0.17 -0.17)">
       <defs>
        <path id="DejaVuSans-36" d="M 2113 2584 
Q 1688 2584 1439 2293 
Q 1191 2003 1191 1497 
Q 1191 994 1439 701 
Q 1688 409 2113 409 
Q 2538 409 2786 701 
Q 3034 994 3034 1497 
Q 3034 2003 2786 2293 
Q 2538 2584 2113 2584 
z
M 3366 4563 
L 3366 3988 
Q 3128 4100 2886 4159 
Q 2644 4219 2406 4219 
Q 1781 4219 1451 3797 
Q 1122 3375 1075 2522 
Q 1259 2794 1537 2939 
Q 1816 3084 2150 3084 
Q 2853 3084 3261 2657 
Q 3669 2231 3669 1497 
Q 3669 778 3244 343 
Q 2819 -91 2113 -91 
Q 1303 -91 875 529 
Q 447 1150 447 2328 
Q 447 3434 972 4092 
Q 1497 4750 2381 4750 
Q 2619 4750 2861 4703 
Q 3103 4656 3366 4563 
z
" transform="scale(0.015625)"/>
       </defs>
       <use xlink:href="#DejaVuSans-36"/>
      </g>
     </g>
    </g>
    <g id="xtick_5">
     <g id="line2d_13">
      <path d="M 100.9152 298.944 
L 100.9152 6.912 
" clip-path="url(#p766300dc19)" style="fill: none; stroke: #b0b0b0; stroke-width: 0.8; stroke-linecap: square"/>
     </g>
     <g id="line2d_14">
      <defs>
       <path id="mc4a72a03ab" d="M 0 0 
L 0 2 
" style="stroke: #000000; stroke-width: 0.6"/>
      </defs>
      <g>
       <use xlink:href="#mc4a72a03ab" x="100.9152" y="298.944" style="stroke: #000000; stroke-width: 0.6"/>
      </g>
     </g>
    </g>
    <g id="xtick_6">
     <g id="line2d_15">
      <path d="M 187.5456 298.944 
L 187.5456 6.912 
" clip-path="url(#p766300dc19)" style="fill: none; stroke: #b0b0b0; stroke-width: 0.8; stroke-linecap: square"/>
     </g>
     <g id="line2d_16">
      <g>
       <use xlink:href="#mc4a72a03ab" x="187.5456" y="298.944" style="stroke: #000000; stroke-width: 0.6"/>
      </g>
     </g>
    </g>
    <g id="xtick_7">
     <g id="line2d_17">
      <path d="M 274.176 298.944 
L 274.176 6.912 
" clip-path="url(#p766300dc19)" style="fill: none; stroke: #b0b0b0; stroke-width: 0.8; stroke-linecap: square"/>
     </g>
     <g id="line2d_18">
      <g>
       <use xlink:href="#mc4a72a03ab" x="274.176" y="298.944" style="stroke: #000000; stroke-width: 0.6"/>
      </g>
     </g>
    </g>
    <g id="xtick_8">
     <g id="line2d_19">
      <path d="M 360.8064 298.944 
L 360.8064 6.912 
" clip-path="url(#p766300dc19)" style="fill: none; stroke: #b0b0b0; stroke-width: 0.8; stroke-linecap: square"/>
     </g>
     <g id="line2d_20">
      <g>
       <use xlink:href="#mc4a72a03ab" x="360.8064" y="298.944" style="stroke: #000000; stroke-width: 0.6"/>
      </g>
     </g>
    </g>
    <g id="text_5">
     <!-- log10(# f-evals / dimension) -->
     <g transform="translate(88.823278 339.314156)scale(0.17 -0.17)">
      <defs>
       <path id="DejaVuSans-6c" d="M 603 4863 
L 1178 4863 
L 1178 0 
L 603 0 
L 603 4863 
z
" transform="scale(0.015625)"/>
       <path id="DejaVuSans-6f" d="M 1959 3097 
Q 1497 3097 1228 2736 
Q 959 2375 959 1747 
Q 959 1119 1226 758 
Q 1494 397 1959 397 
Q 2419 397 2687 759 
Q 2956 1122 2956 1747 
Q 2956 2369 2687 2733 
Q 2419 3097 1959 3097 
z
M 1959 3584 
Q 2709 3584 3137 3096 
Q 3566 2609 3566 1747 
Q 3566 888 3137 398 
Q 2709 -91 1959 -91 
Q 1206 -91 779 398 
Q 353 888 353 1747 
Q 353 2609 779 3096 
Q 1206 3584 1959 3584 
z
" transform="scale(0.015625)"/>
       <path id="DejaVuSans-67" d="M 2906 1791 
Q 2906 2416 2648 2759 
Q 2391 3103 1925 3103 
Q 1463 3103 1205 2759 
Q 947 2416 947 1791 
Q 947 1169 1205 825 
Q 1463 481 1925 481 
Q 2391 481 2648 825 
Q 2906 1169 2906 1791 
z
M 3481 434 
Q 3481 -459 3084 -895 
Q 2688 -1331 1869 -1331 
Q 1566 -1331 1297 -1286 
Q 1028 -1241 775 -1147 
L 775 -588 
Q 1028 -725 1275 -790 
Q 1522 -856 1778 -856 
Q 2344 -856 2625 -561 
Q 2906 -266 2906 331 
L 2906 616 
Q 2728 306 2450 153 
Q 2172 0 1784 0 
Q 1141 0 747 490 
Q 353 981 353 1791 
Q 353 2603 747 3093 
Q 1141 3584 1784 3584 
Q 2172 3584 2450 3431 
Q 2728 3278 2906 2969 
L 2906 3500 
L 3481 3500 
L 3481 434 
z
" transform="scale(0.015625)"/>
       <path id="DejaVuSans-31" d="M 794 531 
L 1825 531 
L 1825 4091 
L 703 3866 
L 703 4441 
L 1819 4666 
L 2450 4666 
L 2450 531 
L 3481 531 
L 3481 0 
L 794 0 
L 794 531 
z
" transform="scale(0.015625)"/>
       <path id="DejaVuSans-28" d="M 1984 4856 
Q 1566 4138 1362 3434 
Q 1159 2731 1159 2009 
Q 1159 1288 1364 580 
Q 1569 -128 1984 -844 
L 1484 -844 
Q 1016 -109 783 600 
Q 550 1309 550 2009 
Q 550 2706 781 3412 
Q 1013 4119 1484 4856 
L 1984 4856 
z
" transform="scale(0.015625)"/>
       <path id="DejaVuSans-23" d="M 3272 2816 
L 2363 2816 
L 2100 1772 
L 3016 1772 
L 3272 2816 
z
M 2803 4594 
L 2478 3297 
L 3391 3297 
L 3719 4594 
L 4219 4594 
L 3897 3297 
L 4872 3297 
L 4872 2816 
L 3775 2816 
L 3519 1772 
L 4513 1772 
L 4513 1294 
L 3397 1294 
L 3072 0 
L 2572 0 
L 2894 1294 
L 1978 1294 
L 1656 0 
L 1153 0 
L 1478 1294 
L 494 1294 
L 494 1772 
L 1594 1772 
L 1856 2816 
L 850 2816 
L 850 3297 
L 1978 3297 
L 2297 4594 
L 2803 4594 
z
" transform="scale(0.015625)"/>
       <path id="DejaVuSans-20" transform="scale(0.015625)"/>
       <path id="DejaVuSans-66" d="M 2375 4863 
L 2375 4384 
L 1825 4384 
Q 1516 4384 1395 4259 
Q 1275 4134 1275 3809 
L 1275 3500 
L 2222 3500 
L 2222 3053 
L 1275 3053 
L 1275 0 
L 697 0 
L 697 3053 
L 147 3053 
L 147 3500 
L 697 3500 
L 697 3744 
Q 697 4328 969 4595 
Q 1241 4863 1831 4863 
L 2375 4863 
z
" transform="scale(0.015625)"/>
       <path id="DejaVuSans-2d" d="M 313 2009 
L 1997 2009 
L 1997 1497 
L 313 1497 
L 313 2009 
z
" transform="scale(0.015625)"/>
       <path id="DejaVuSans-65" d="M 3597 1894 
L 3597 1613 
L 953 1613 
Q 991 1019 1311 708 
Q 1631 397 2203 397 
Q 2534 397 2845 478 
Q 3156 559 3463 722 
L 3463 178 
Q 3153 47 2828 -22 
Q 2503 -91 2169 -91 
Q 1331 -91 842 396 
Q 353 884 353 1716 
Q 353 2575 817 3079 
Q 1281 3584 2069 3584 
Q 2775 3584 3186 3129 
Q 3597 2675 3597 1894 
z
M 3022 2063 
Q 3016 2534 2758 2815 
Q 2500 3097 2075 3097 
Q 1594 3097 1305 2825 
Q 1016 2553 972 2059 
L 3022 2063 
z
" transform="scale(0.015625)"/>
       <path id="DejaVuSans-76" d="M 191 3500 
L 800 3500 
L 1894 563 
L 2988 3500 
L 3597 3500 
L 2284 0 
L 1503 0 
L 191 3500 
z
" transform="scale(0.015625)"/>
       <path id="DejaVuSans-61" d="M 2194 1759 
Q 1497 1759 1228 1600 
Q 959 1441 959 1056 
Q 959 750 1161 570 
Q 1363 391 1709 391 
Q 2188 391 2477 730 
Q 2766 1069 2766 1631 
L 2766 1759 
L 2194 1759 
z
M 3341 1997 
L 3341 0 
L 2766 0 
L 2766 531 
Q 2569 213 2275 61 
Q 1981 -91 1556 -91 
Q 1019 -91 701 211 
Q 384 513 384 1019 
Q 384 1609 779 1909 
Q 1175 2209 1959 2209 
L 2766 2209 
L 2766 2266 
Q 2766 2663 2505 2880 
Q 2244 3097 1772 3097 
Q 1472 3097 1187 3025 
Q 903 2953 641 2809 
L 641 3341 
Q 956 3463 1253 3523 
Q 1550 3584 1831 3584 
Q 2591 3584 2966 3190 
Q 3341 2797 3341 1997 
z
" transform="scale(0.015625)"/>
       <path id="DejaVuSans-73" d="M 2834 3397 
L 2834 2853 
Q 2591 2978 2328 3040 
Q 2066 3103 1784 3103 
Q 1356 3103 1142 2972 
Q 928 2841 928 2578 
Q 928 2378 1081 2264 
Q 1234 2150 1697 2047 
L 1894 2003 
Q 2506 1872 2764 1633 
Q 3022 1394 3022 966 
Q 3022 478 2636 193 
Q 2250 -91 1575 -91 
Q 1294 -91 989 -36 
Q 684 19 347 128 
L 347 722 
Q 666 556 975 473 
Q 1284 391 1588 391 
Q 1994 391 2212 530 
Q 2431 669 2431 922 
Q 2431 1156 2273 1281 
Q 2116 1406 1581 1522 
L 1381 1569 
Q 847 1681 609 1914 
Q 372 2147 372 2553 
Q 372 3047 722 3315 
Q 1072 3584 1716 3584 
Q 2034 3584 2315 3537 
Q 2597 3491 2834 3397 
z
" transform="scale(0.015625)"/>
       <path id="DejaVuSans-2f" d="M 1625 4666 
L 2156 4666 
L 531 -594 
L 0 -594 
L 1625 4666 
z
" transform="scale(0.015625)"/>
       <path id="DejaVuSans-64" d="M 2906 2969 
L 2906 4863 
L 3481 4863 
L 3481 0 
L 2906 0 
L 2906 525 
Q 2725 213 2448 61 
Q 2172 -91 1784 -91 
Q 1150 -91 751 415 
Q 353 922 353 1747 
Q 353 2572 751 3078 
Q 1150 3584 1784 3584 
Q 2172 3584 2448 3432 
Q 2725 3281 2906 2969 
z
M 947 1747 
Q 947 1113 1208 752 
Q 1469 391 1925 391 
Q 2381 391 2643 752 
Q 2906 1113 2906 1747 
Q 2906 2381 2643 2742 
Q 2381 3103 1925 3103 
Q 1469 3103 1208 2742 
Q 947 2381 947 1747 
z
" transform="scale(0.015625)"/>
       <path id="DejaVuSans-69" d="M 603 3500 
L 1178 3500 
L 1178 0 
L 603 0 
L 603 3500 
z
M 603 4863 
L 1178 4863 
L 1178 4134 
L 603 4134 
L 603 4863 
z
" transform="scale(0.015625)"/>
       <path id="DejaVuSans-6d" d="M 3328 2828 
Q 3544 3216 3844 3400 
Q 4144 3584 4550 3584 
Q 5097 3584 5394 3201 
Q 5691 2819 5691 2113 
L 5691 0 
L 5113 0 
L 5113 2094 
Q 5113 2597 4934 2840 
Q 4756 3084 4391 3084 
Q 3944 3084 3684 2787 
Q 3425 2491 3425 1978 
L 3425 0 
L 2847 0 
L 2847 2094 
Q 2847 2600 2669 2842 
Q 2491 3084 2119 3084 
Q 1678 3084 1418 2786 
Q 1159 2488 1159 1978 
L 1159 0 
L 581 0 
L 581 3500 
L 1159 3500 
L 1159 2956 
Q 1356 3278 1631 3431 
Q 1906 3584 2284 3584 
Q 2666 3584 2933 3390 
Q 3200 3197 3328 2828 
z
" transform="scale(0.015625)"/>
       <path id="DejaVuSans-6e" d="M 3513 2113 
L 3513 0 
L 2938 0 
L 2938 2094 
Q 2938 2591 2744 2837 
Q 2550 3084 2163 3084 
Q 1697 3084 1428 2787 
Q 1159 2491 1159 1978 
L 1159 0 
L 581 0 
L 581 3500 
L 1159 3500 
L 1159 2956 
Q 1366 3272 1645 3428 
Q 1925 3584 2291 3584 
Q 2894 3584 3203 3211 
Q 3513 2838 3513 2113 
z
" transform="scale(0.015625)"/>
       <path id="DejaVuSans-29" d="M 513 4856 
L 1013 4856 
Q 1481 4119 1714 3412 
Q 1947 2706 1947 2009 
Q 1947 1309 1714 600 
Q 1481 -109 1013 -844 
L 513 -844 
Q 928 -128 1133 580 
Q 1338 1288 1338 2009 
Q 1338 2731 1133 3434 
Q 928 4138 513 4856 
z
" transform="scale(0.015625)"/>
      </defs>
      <use xlink:href="#DejaVuSans-6c"/>
      <use xlink:href="#DejaVuSans-6f" x="27.783203"/>
      <use xlink:href="#DejaVuSans-67" x="88.964844"/>
      <use xlink:href="#DejaVuSans-31" x="152.441406"/>
      <use xlink:href="#DejaVuSans-30" x="216.064453"/>
      <use xlink:href="#DejaVuSans-28" x="279.6875"/>
      <use xlink:href="#DejaVuSans-23" x="318.701172"/>
      <use xlink:href="#DejaVuSans-20" x="402.490234"/>
      <use xlink:href="#DejaVuSans-66" x="434.277344"/>
      <use xlink:href="#DejaVuSans-2d" x="463.982422"/>
      <use xlink:href="#DejaVuSans-65" x="500.066406"/>
      <use xlink:href="#DejaVuSans-76" x="561.589844"/>
      <use xlink:href="#DejaVuSans-61" x="620.769531"/>
      <use xlink:href="#DejaVuSans-6c" x="682.048828"/>
      <use xlink:href="#DejaVuSans-73" x="709.832031"/>
      <use xlink:href="#DejaVuSans-20" x="761.931641"/>
      <use xlink:href="#DejaVuSans-2f" x="793.71875"/>
      <use xlink:href="#DejaVuSans-20" x="827.410156"/>
      <use xlink:href="#DejaVuSans-64" x="859.197266"/>
      <use xlink:href="#DejaVuSans-69" x="922.673828"/>
      <use xlink:href="#DejaVuSans-6d" x="950.457031"/>
      <use xlink:href="#DejaVuSans-65" x="1047.869141"/>
      <use xlink:href="#DejaVuSans-6e" x="1109.392578"/>
      <use xlink:href="#DejaVuSans-73" x="1172.771484"/>
      <use xlink:href="#DejaVuSans-69" x="1224.871094"/>
      <use xlink:href="#DejaVuSans-6f" x="1252.654297"/>
      <use xlink:href="#DejaVuSans-6e" x="1313.835938"/>
      <use xlink:href="#DejaVuSans-29" x="1377.214844"/>
     </g>
    </g>
   </g>
   <g id="matplotlib.axis_2">
    <g id="ytick_1">
     <g id="line2d_21">
      <path d="M 57.6 298.944 
L 360.8064 298.944 
" clip-path="url(#p766300dc19)" style="fill: none; stroke: #b0b0b0; stroke-width: 0.8; stroke-linecap: square"/>
     </g>
     <g id="line2d_22">
      <defs>
       <path id="md9f570cd85" d="M 0 0 
L -3.5 0 
" style="stroke: #000000; stroke-width: 0.8"/>
      </defs>
      <g>
       <use xlink:href="#md9f570cd85" x="57.6" y="298.944" style="stroke: #000000; stroke-width: 0.8"/>
      </g>
     </g>
     <g id="text_6">
      <!-- 0.0 -->
      <g transform="translate(25.155 305.02275)scale(0.16 -0.16)">
       <defs>
        <path id="DejaVuSans-2e" d="M 684 794 
L 1344 794 
L 1344 0 
L 684 0 
L 684 794 
z
" transform="scale(0.015625)"/>
       </defs>
       <use xlink:href="#DejaVuSans-30"/>
       <use xlink:href="#DejaVuSans-2e" x="63.623047"/>
       <use xlink:href="#DejaVuSans-30" x="95.410156"/>
      </g>
     </g>
    </g>
    <g id="ytick_2">
     <g id="line2d_23">
      <path d="M 57.6 240.5376 
L 360.8064 240.5376 
" clip-path="url(#p766300dc19)" style="fill: none; stroke: #b0b0b0; stroke-width: 0.8; stroke-linecap: square"/>
     </g>
     <g id="line2d_24">
      <g>
       <use xlink:href="#md9f570cd85" x="57.6" y="240.5376" style="stroke: #000000; stroke-width: 0.8"/>
      </g>
     </g>
     <g id="text_7">
      <!-- 0.2 -->
      <g transform="translate(25.155 246.61635)scale(0.16 -0.16)">
       <use xlink:href="#DejaVuSans-30"/>
       <use xlink:href="#DejaVuSans-2e" x="63.623047"/>
       <use xlink:href="#DejaVuSans-32" x="95.410156"/>
      </g>
     </g>
    </g>
    <g id="ytick_3">
     <g id="line2d_25">
      <path d="M 57.6 182.1312 
L 360.8064 182.1312 
" clip-path="url(#p766300dc19)" style="fill: none; stroke: #b0b0b0; stroke-width: 0.8; stroke-linecap: square"/>
     </g>
     <g id="line2d_26">
      <g>
       <use xlink:href="#md9f570cd85" x="57.6" y="182.1312" style="stroke: #000000; stroke-width: 0.8"/>
      </g>
     </g>
     <g id="text_8">
      <!-- 0.4 -->
      <g transform="translate(25.155 188.20995)scale(0.16 -0.16)">
       <use xlink:href="#DejaVuSans-30"/>
       <use xlink:href="#DejaVuSans-2e" x="63.623047"/>
       <use xlink:href="#DejaVuSans-34" x="95.410156"/>
      </g>
     </g>
    </g>
    <g id="ytick_4">
     <g id="line2d_27">
      <path d="M 57.6 123.7248 
L 360.8064 123.7248 
" clip-path="url(#p766300dc19)" style="fill: none; stroke: #b0b0b0; stroke-width: 0.8; stroke-linecap: square"/>
     </g>
     <g id="line2d_28">
      <g>
       <use xlink:href="#md9f570cd85" x="57.6" y="123.7248" style="stroke: #000000; stroke-width: 0.8"/>
      </g>
     </g>
     <g id="text_9">
      <!-- 0.6 -->
      <g transform="translate(25.155 129.80355)scale(0.16 -0.16)">
       <use xlink:href="#DejaVuSans-30"/>
       <use xlink:href="#DejaVuSans-2e" x="63.623047"/>
       <use xlink:href="#DejaVuSans-36" x="95.410156"/>
      </g>
     </g>
    </g>
    <g id="ytick_5">
     <g id="line2d_29">
      <path d="M 57.6 65.3184 
L 360.8064 65.3184 
" clip-path="url(#p766300dc19)" style="fill: none; stroke: #b0b0b0; stroke-width: 0.8; stroke-linecap: square"/>
     </g>
     <g id="line2d_30">
      <g>
       <use xlink:href="#md9f570cd85" x="57.6" y="65.3184" style="stroke: #000000; stroke-width: 0.8"/>
      </g>
     </g>
     <g id="text_10">
      <!-- 0.8 -->
      <g transform="translate(25.155 71.39715)scale(0.16 -0.16)">
       <defs>
        <path id="DejaVuSans-38" d="M 2034 2216 
Q 1584 2216 1326 1975 
Q 1069 1734 1069 1313 
Q 1069 891 1326 650 
Q 1584 409 2034 409 
Q 2484 409 2743 651 
Q 3003 894 3003 1313 
Q 3003 1734 2745 1975 
Q 2488 2216 2034 2216 
z
M 1403 2484 
Q 997 2584 770 2862 
Q 544 3141 544 3541 
Q 544 4100 942 4425 
Q 1341 4750 2034 4750 
Q 2731 4750 3128 4425 
Q 3525 4100 3525 3541 
Q 3525 3141 3298 2862 
Q 3072 2584 2669 2484 
Q 3125 2378 3379 2068 
Q 3634 1759 3634 1313 
Q 3634 634 3220 271 
Q 2806 -91 2034 -91 
Q 1263 -91 848 271 
Q 434 634 434 1313 
Q 434 1759 690 2068 
Q 947 2378 1403 2484 
z
M 1172 3481 
Q 1172 3119 1398 2916 
Q 1625 2713 2034 2713 
Q 2441 2713 2670 2916 
Q 2900 3119 2900 3481 
Q 2900 3844 2670 4047 
Q 2441 4250 2034 4250 
Q 1625 4250 1398 4047 
Q 1172 3844 1172 3481 
z
" transform="scale(0.015625)"/>
       </defs>
       <use xlink:href="#DejaVuSans-30"/>
       <use xlink:href="#DejaVuSans-2e" x="63.623047"/>
       <use xlink:href="#DejaVuSans-38" x="95.410156"/>
      </g>
     </g>
    </g>
    <g id="ytick_6">
     <g id="line2d_31">
      <path d="M 57.6 6.912 
L 360.8064 6.912 
" clip-path="url(#p766300dc19)" style="fill: none; stroke: #b0b0b0; stroke-width: 0.8; stroke-linecap: square"/>
     </g>
     <g id="line2d_32">
      <g>
       <use xlink:href="#md9f570cd85" x="57.6" y="6.912" style="stroke: #000000; stroke-width: 0.8"/>
      </g>
     </g>
     <g id="text_11">
      <!-- 1.0 -->
      <g transform="translate(25.155 12.99075)scale(0.16 -0.16)">
       <use xlink:href="#DejaVuSans-31"/>
       <use xlink:href="#DejaVuSans-2e" x="63.623047"/>
       <use xlink:href="#DejaVuSans-30" x="95.410156"/>
      </g>
     </g>
    </g>
    <g id="text_12">
     <!-- Fraction of function,target pairs -->
     <g transform="translate(17.619531 287.313)rotate(-90)scale(0.17 -0.17)">
      <defs>
       <path id="DejaVuSans-46" d="M 628 4666 
L 3309 4666 
L 3309 4134 
L 1259 4134 
L 1259 2759 
L 3109 2759 
L 3109 2228 
L 1259 2228 
L 1259 0 
L 628 0 
L 628 4666 
z
" transform="scale(0.015625)"/>
       <path id="DejaVuSans-72" d="M 2631 2963 
Q 2534 3019 2420 3045 
Q 2306 3072 2169 3072 
Q 1681 3072 1420 2755 
Q 1159 2438 1159 1844 
L 1159 0 
L 581 0 
L 581 3500 
L 1159 3500 
L 1159 2956 
Q 1341 3275 1631 3429 
Q 1922 3584 2338 3584 
Q 2397 3584 2469 3576 
Q 2541 3569 2628 3553 
L 2631 2963 
z
" transform="scale(0.015625)"/>
       <path id="DejaVuSans-63" d="M 3122 3366 
L 3122 2828 
Q 2878 2963 2633 3030 
Q 2388 3097 2138 3097 
Q 1578 3097 1268 2742 
Q 959 2388 959 1747 
Q 959 1106 1268 751 
Q 1578 397 2138 397 
Q 2388 397 2633 464 
Q 2878 531 3122 666 
L 3122 134 
Q 2881 22 2623 -34 
Q 2366 -91 2075 -91 
Q 1284 -91 818 406 
Q 353 903 353 1747 
Q 353 2603 823 3093 
Q 1294 3584 2113 3584 
Q 2378 3584 2631 3529 
Q 2884 3475 3122 3366 
z
" transform="scale(0.015625)"/>
       <path id="DejaVuSans-74" d="M 1172 4494 
L 1172 3500 
L 2356 3500 
L 2356 3053 
L 1172 3053 
L 1172 1153 
Q 1172 725 1289 603 
Q 1406 481 1766 481 
L 2356 481 
L 2356 0 
L 1766 0 
Q 1100 0 847 248 
Q 594 497 594 1153 
L 594 3053 
L 172 3053 
L 172 3500 
L 594 3500 
L 594 4494 
L 1172 4494 
z
" transform="scale(0.015625)"/>
       <path id="DejaVuSans-75" d="M 544 1381 
L 544 3500 
L 1119 3500 
L 1119 1403 
Q 1119 906 1312 657 
Q 1506 409 1894 409 
Q 2359 409 2629 706 
Q 2900 1003 2900 1516 
L 2900 3500 
L 3475 3500 
L 3475 0 
L 2900 0 
L 2900 538 
Q 2691 219 2414 64 
Q 2138 -91 1772 -91 
Q 1169 -91 856 284 
Q 544 659 544 1381 
z
M 1991 3584 
L 1991 3584 
z
" transform="scale(0.015625)"/>
       <path id="DejaVuSans-2c" d="M 750 794 
L 1409 794 
L 1409 256 
L 897 -744 
L 494 -744 
L 750 256 
L 750 794 
z
" transform="scale(0.015625)"/>
       <path id="DejaVuSans-70" d="M 1159 525 
L 1159 -1331 
L 581 -1331 
L 581 3500 
L 1159 3500 
L 1159 2969 
Q 1341 3281 1617 3432 
Q 1894 3584 2278 3584 
Q 2916 3584 3314 3078 
Q 3713 2572 3713 1747 
Q 3713 922 3314 415 
Q 2916 -91 2278 -91 
Q 1894 -91 1617 61 
Q 1341 213 1159 525 
z
M 3116 1747 
Q 3116 2381 2855 2742 
Q 2594 3103 2138 3103 
Q 1681 3103 1420 2742 
Q 1159 2381 1159 1747 
Q 1159 1113 1420 752 
Q 1681 391 2138 391 
Q 2594 391 2855 752 
Q 3116 1113 3116 1747 
z
" transform="scale(0.015625)"/>
      </defs>
      <use xlink:href="#DejaVuSans-46"/>
      <use xlink:href="#DejaVuSans-72" x="50.269531"/>
      <use xlink:href="#DejaVuSans-61" x="91.382812"/>
      <use xlink:href="#DejaVuSans-63" x="152.662109"/>
      <use xlink:href="#DejaVuSans-74" x="207.642578"/>
      <use xlink:href="#DejaVuSans-69" x="246.851562"/>
      <use xlink:href="#DejaVuSans-6f" x="274.634766"/>
      <use xlink:href="#DejaVuSans-6e" x="335.816406"/>
      <use xlink:href="#DejaVuSans-20" x="399.195312"/>
      <use xlink:href="#DejaVuSans-6f" x="430.982422"/>
      <use xlink:href="#DejaVuSans-66" x="492.164062"/>
      <use xlink:href="#DejaVuSans-20" x="527.369141"/>
      <use xlink:href="#DejaVuSans-66" x="559.15625"/>
      <use xlink:href="#DejaVuSans-75" x="594.361328"/>
      <use xlink:href="#DejaVuSans-6e" x="657.740234"/>
      <use xlink:href="#DejaVuSans-63" x="721.119141"/>
      <use xlink:href="#DejaVuSans-74" x="776.099609"/>
      <use xlink:href="#DejaVuSans-69" x="815.308594"/>
      <use xlink:href="#DejaVuSans-6f" x="843.091797"/>
      <use xlink:href="#DejaVuSans-6e" x="904.273438"/>
      <use xlink:href="#DejaVuSans-2c" x="967.652344"/>
      <use xlink:href="#DejaVuSans-74" x="999.439453"/>
      <use xlink:href="#DejaVuSans-61" x="1038.648438"/>
      <use xlink:href="#DejaVuSans-72" x="1099.927734"/>
      <use xlink:href="#DejaVuSans-67" x="1139.291016"/>
      <use xlink:href="#DejaVuSans-65" x="1202.767578"/>
      <use xlink:href="#DejaVuSans-74" x="1264.291016"/>
      <use xlink:href="#DejaVuSans-20" x="1303.5"/>
      <use xlink:href="#DejaVuSans-70" x="1335.287109"/>
      <use xlink:href="#DejaVuSans-61" x="1398.763672"/>
      <use xlink:href="#DejaVuSans-69" x="1460.042969"/>
      <use xlink:href="#DejaVuSans-72" x="1487.826172"/>
      <use xlink:href="#DejaVuSans-73" x="1528.939453"/>
     </g>
    </g>
   </g>
   <g id="line2d_33">
    <defs>
     <path id="m7e1467667a" d="M 0 1.5 
C 0.397805 1.5 0.77937 1.341951 1.06066 1.06066 
C 1.341951 0.77937 1.5 0.397805 1.5 0 
C 1.5 -0.397805 1.341951 -0.77937 1.06066 -1.06066 
C 0.77937 -1.341951 0.397805 -1.5 0 -1.5 
C -0.397805 -1.5 -0.77937 -1.341951 -1.06066 -1.06066 
C -1.341951 -0.77937 -1.5 -0.397805 -1.5 0 
C -1.5 0.397805 -1.341951 0.77937 -1.06066 1.06066 
C -0.77937 1.341951 -0.397805 1.5 0 1.5 
z
" style="stroke: #f5deb3"/>
    </defs>
    <g>
     <use xlink:href="#m7e1467667a" x="292.617588" y="42.157241" style="fill: #f5deb3; stroke: #f5deb3"/>
     <use xlink:href="#m7e1467667a" x="292.617588" y="42.157241" style="fill: #f5deb3; stroke: #f5deb3"/>
    </g>
   </g>
   <g id="line2d_34">
    <defs>
     <path id="m6c5227829e" d="M 0 1.5 
C 0.397805 1.5 0.77937 1.341951 1.06066 1.06066 
C 1.341951 0.77937 1.5 0.397805 1.5 0 
C 1.5 -0.397805 1.341951 -0.77937 1.06066 -1.06066 
C 0.77937 -1.341951 0.397805 -1.5 0 -1.5 
C -0.397805 -1.5 -0.77937 -1.341951 -1.06066 -1.06066 
C -1.341951 -0.77937 -1.5 -0.397805 -1.5 0 
C -1.5 0.397805 -1.341951 0.77937 -1.06066 1.06066 
C -0.77937 1.341951 -0.397805 1.5 0 1.5 
z
" style="stroke: #000080"/>
    </defs>
    <g>
     <use xlink:href="#m6c5227829e" x="79.480672" y="276.286345" style="fill: #000080; stroke: #000080"/>
     <use xlink:href="#m6c5227829e" x="79.480672" y="276.286345" style="fill: #000080; stroke: #000080"/>
    </g>
   </g>
   <g id="line2d_35">
    <path d="M 14.2848 298.944 
L 14.2848 286.524248 
L 27.323974 286.524248 
L 27.323974 286.020745 
L 34.951403 286.020745 
L 34.951403 285.349407 
L 40.363149 285.349407 
L 40.363149 285.013738 
L 44.560826 285.013738 
L 44.560826 284.845903 
L 47.990577 284.845903 
L 47.990577 284.510234 
L 50.890391 284.510234 
L 50.890391 283.335393 
L 53.402323 283.335393 
L 53.402323 282.999724 
L 57.6 282.999724 
L 57.6 282.83189 
L 59.392932 282.83189 
L 59.392932 282.664055 
L 61.029752 282.664055 
L 61.029752 282.328386 
L 62.535479 282.328386 
L 62.535479 281.489214 
L 66.441498 281.489214 
L 66.441498 281.321379 
L 68.65718 281.321379 
L 68.65718 280.650041 
L 69.674268 280.650041 
L 69.674268 280.314372 
L 70.639174 280.314372 
L 70.639174 280.146538 
L 71.556993 280.146538 
L 71.556993 279.643034 
L 72.432107 279.643034 
L 72.432107 279.4752 
L 73.268314 279.4752 
L 73.268314 279.307366 
L 74.836851 279.307366 
L 74.836851 278.971697 
L 75.574654 278.971697 
L 75.574654 278.803862 
L 76.284608 278.803862 
L 76.284608 278.300359 
L 78.266603 278.300359 
L 78.266603 277.796855 
L 79.480672 277.796855 
L 79.480672 276.286345 
L 360.8064 276.286345 
" style="fill: none; stroke: #000080; stroke-width: 1.5; stroke-linecap: square"/>
   </g>
   <g id="line2d_36">
    <defs>
     <path id="m1080d0df4e" d="M 0 6 
C 1.591219 6 3.117479 5.367802 4.242641 4.242641 
C 5.367802 3.117479 6 1.591219 6 0 
C 6 -1.591219 5.367802 -3.117479 4.242641 -4.242641 
C 3.117479 -5.367802 1.591219 -6 0 -6 
C -1.591219 -6 -3.117479 -5.367802 -4.242641 -4.242641 
C -5.367802 -3.117479 -6 -1.591219 -6 0 
C -6 1.591219 -5.367802 3.117479 -4.242641 4.242641 
C -3.117479 5.367802 -1.591219 6 0 6 
z
" style="stroke: #000080; stroke-width: 1.5"/>
    </defs>
    <g>
     <use xlink:href="#m1080d0df4e" x="79.480672" y="277.796855" style="fill-opacity: 0; stroke: #000080; stroke-width: 1.5"/>
     <use xlink:href="#m1080d0df4e" x="79.480672" y="277.796855" style="fill-opacity: 0; stroke: #000080; stroke-width: 1.5"/>
     <use xlink:href="#m1080d0df4e" x="79.480672" y="276.286345" style="fill-opacity: 0; stroke: #000080; stroke-width: 1.5"/>
     <use xlink:href="#m1080d0df4e" x="79.480672" y="276.286345" style="fill-opacity: 0; stroke: #000080; stroke-width: 1.5"/>
     <use xlink:href="#m1080d0df4e" x="79.480672" y="276.286345" style="fill-opacity: 0; stroke: #000080; stroke-width: 1.5"/>
     <use xlink:href="#m1080d0df4e" x="360.8064" y="276.286345" style="fill-opacity: 0; stroke: #000080; stroke-width: 1.5"/>
    </g>
   </g>
   <g id="line2d_37">
    <path style="fill: none; stroke: #000080; stroke-width: 1.5; stroke-linecap: square"/>
    <g/>
   </g>
   <g id="line2d_38">
    <path d="M 79.480672 276.286345 
" clip-path="url(#p766300dc19)" style="fill: none; stroke: #000080; stroke-width: 1.5; stroke-linecap: square"/>
    <defs>
     <path id="m0bf7e17ce3" d="M -12 12 
L 12 -12 
M -12 -12 
L 12 12 
" style="stroke: #000080"/>
    </defs>
    <g clip-path="url(#p766300dc19)">
     <use xlink:href="#m0bf7e17ce3" x="79.480672" y="276.286345" style="fill: #000080; stroke: #000080"/>
    </g>
   </g>
   <g id="line2d_39">
    <defs>
     <path id="mae714d2ccb" d="M 0 1.5 
C 0.397805 1.5 0.77937 1.341951 1.06066 1.06066 
C 1.341951 0.77937 1.5 0.397805 1.5 0 
C 1.5 -0.397805 1.341951 -0.77937 1.06066 -1.06066 
C 0.77937 -1.341951 0.397805 -1.5 0 -1.5 
C -0.397805 -1.5 -0.77937 -1.341951 -1.06066 -1.06066 
C -1.341951 -0.77937 -1.5 -0.397805 -1.5 0 
C -1.5 0.397805 -1.341951 0.77937 -1.06066 1.06066 
C -0.77937 1.341951 -0.397805 1.5 0 1.5 
z
" style="stroke: #ff00ff"/>
    </defs>
    <g>
     <use xlink:href="#mae714d2ccb" x="273.741304" y="165.179917" style="fill: #ff00ff; stroke: #ff00ff"/>
     <use xlink:href="#mae714d2ccb" x="273.741304" y="165.179917" style="fill: #ff00ff; stroke: #ff00ff"/>
    </g>
   </g>
   <g id="line2d_40">
    <path d="M 14.2848 298.944 
L 14.2848 286.524248 
L 27.323974 286.524248 
L 27.323974 286.356414 
L 61.029752 286.356414 
L 61.029752 286.188579 
L 62.535479 286.188579 
L 62.535479 286.020745 
L 63.929565 286.020745 
L 63.929565 285.685076 
L 65.227428 285.685076 
L 65.227428 285.517241 
L 67.581941 285.517241 
L 67.581941 285.349407 
L 74.068926 285.349407 
L 74.068926 285.181572 
L 75.574654 285.181572 
L 75.574654 285.013738 
L 80.059535 285.013738 
L 80.059535 284.845903 
L 85.471281 284.845903 
L 85.471281 284.678069 
L 90.668036 284.678069 
L 90.668036 284.3424 
L 92.519847 284.3424 
L 92.519847 284.174566 
L 101.102381 284.174566 
L 101.102381 284.006731 
L 102.011329 284.006731 
L 102.011329 283.838897 
L 103.047088 283.838897 
L 103.047088 283.671062 
L 104.028784 283.671062 
L 104.028784 283.503228 
L 104.961779 283.503228 
L 104.961779 283.335393 
L 105.112877 283.335393 
L 105.112877 282.999724 
L 106.42077 282.999724 
L 106.42077 282.83189 
L 107.643612 282.83189 
L 107.643612 282.496221 
L 108.667622 282.496221 
L 108.667622 282.328386 
L 109.873904 282.328386 
L 109.873904 282.160552 
L 109.990385 282.160552 
L 109.990385 281.992717 
L 110.221204 281.992717 
L 110.221204 281.657048 
L 110.562208 281.657048 
L 110.562208 281.489214 
L 110.674517 281.489214 
L 110.674517 281.321379 
L 111.007473 281.321379 
L 111.007473 281.153545 
L 112.076599 281.153545 
L 112.076599 280.98571 
L 112.487797 280.98571 
L 112.589207 280.314372 
L 112.989468 280.314372 
L 112.989468 279.978703 
L 113.57433 279.978703 
L 113.57433 279.810869 
L 114.234452 279.810869 
L 114.234452 279.643034 
L 114.510421 279.643034 
L 114.510421 279.4752 
L 114.692177 279.4752 
L 114.692177 279.307366 
L 114.872193 279.307366 
L 114.961559 278.971697 
L 115.402131 278.971697 
L 115.489021 278.636028 
L 115.661605 278.636028 
L 115.747307 278.300359 
L 115.917548 278.300359 
L 115.917548 278.132524 
L 116.170056 278.132524 
L 116.170056 277.96469 
L 117.305581 277.96469 
L 117.305581 277.796855 
L 118.000953 277.796855 
L 118.000953 277.629021 
L 118.598196 277.629021 
L 118.598196 277.461186 
L 119.105667 277.461186 
L 119.105667 277.293352 
L 119.599808 277.293352 
L 119.599808 277.125517 
L 119.807672 277.125517 
L 119.807672 276.957683 
L 120.013265 276.957683 
L 120.013265 276.789848 
L 120.149089 276.789848 
L 120.149089 276.622014 
L 120.879082 276.622014 
L 120.879082 276.454179 
L 121.265635 276.454179 
L 121.329295 276.11851 
L 122.13785 276.11851 
L 122.13785 275.950676 
L 122.499621 275.950676 
L 122.499621 275.782841 
L 123.260379 275.782841 
L 123.260379 275.615007 
L 123.374735 275.615007 
L 123.374735 275.447172 
L 124.588805 275.447172 
L 124.695386 275.111503 
L 124.854134 275.111503 
L 124.854134 274.943669 
L 127.227236 274.943669 
L 127.227236 274.775834 
L 137.304564 274.775834 
L 137.304564 274.608 
L 138.387352 274.608 
L 138.387352 274.440166 
L 139.289277 274.440166 
L 139.289277 274.272331 
L 141.974701 274.272331 
L 142.080444 273.768828 
L 142.164612 273.768828 
L 142.164612 273.600993 
L 142.352625 273.600993 
L 142.352625 273.433159 
L 143.146307 273.433159 
L 143.146307 273.265324 
L 143.305055 273.265324 
L 143.305055 273.09749 
L 144.06033 273.09749 
L 144.06033 272.929655 
L 145.166126 272.929655 
L 145.166126 272.593986 
L 145.538293 272.593986 
L 145.538293 272.426152 
L 146.142663 272.426152 
L 146.244347 272.090483 
L 146.562769 272.090483 
L 146.562769 271.922648 
L 146.924857 271.922648 
L 146.924857 271.586979 
L 147.054816 271.586979 
L 147.054816 271.419145 
L 147.312072 271.419145 
L 147.407644 270.915641 
L 148.413021 270.915641 
L 148.413021 270.747807 
L 148.726679 270.747807 
L 148.83008 270.244303 
L 148.976817 270.244303 
L 148.976817 270.076469 
L 149.438827 270.076469 
L 149.481565 269.572966 
L 150.042308 269.572966 
L 150.042308 269.405131 
L 150.506141 269.405131 
L 150.600232 269.069462 
L 150.693856 269.069462 
L 150.693856 268.901628 
L 150.866501 268.901628 
L 150.866501 268.733793 
L 150.998235 268.733793 
L 150.998235 268.565959 
L 151.116012 268.565959 
L 151.116012 268.398124 
L 151.375128 268.398124 
L 151.375128 268.23029 
L 151.694084 268.23029 
L 151.694084 268.062455 
L 151.820167 268.062455 
L 151.870365 267.726786 
L 152.094611 267.726786 
L 152.16877 267.391117 
L 152.715833 267.391117 
L 152.715833 267.223283 
L 152.894708 267.223283 
L 152.894708 267.055448 
L 153.071898 267.055448 
L 153.071898 266.887614 
L 153.317193 266.887614 
L 153.317193 266.719779 
L 153.730398 266.719779 
L 153.798392 266.048441 
L 154.079083 266.048441 
L 154.123607 265.712772 
L 154.476059 265.712772 
L 154.552285 265.041434 
L 154.628204 265.041434 
L 154.628204 264.8736 
L 154.896868 264.8736 
L 154.896868 264.705766 
L 155.454055 264.705766 
L 155.505777 264.202262 
L 155.884169 264.202262 
L 155.944819 263.530924 
L 156.065535 263.530924 
L 156.065535 263.195255 
L 156.383708 263.195255 
L 156.383708 262.691752 
L 156.657763 262.691752 
L 156.657763 262.356083 
L 157.419468 262.356083 
L 157.419468 262.188248 
L 157.752425 262.188248 
L 157.752425 261.852579 
L 157.980225 261.852579 
L 158.088598 260.845572 
L 158.339064 260.845572 
L 158.339064 260.677738 
L 158.612531 260.677738 
L 158.612531 260.509903 
L 158.899338 260.509903 
L 158.942415 260.174234 
L 159.079601 260.174234 
L 159.105212 259.502897 
L 159.215793 259.502897 
L 159.215793 259.335062 
L 159.376252 259.335062 
L 159.376252 259.167228 
L 159.593632 259.167228 
L 159.693121 258.49589 
L 159.816746 258.49589 
L 159.849576 257.824552 
L 160.198926 257.824552 
L 160.231096 257.488883 
L 160.375185 257.488883 
L 160.407056 257.153214 
L 160.683643 257.153214 
L 160.754113 256.314041 
L 160.92527 256.314041 
L 160.994842 255.810538 
L 161.194395 255.810538 
L 161.247762 255.474869 
L 161.316153 255.474869 
L 161.331318 254.971366 
L 161.602209 254.971366 
L 161.602209 254.803531 
L 161.891338 254.803531 
L 161.964763 253.964359 
L 162.081651 253.964359 
L 162.168843 252.957352 
L 162.704821 252.957352 
L 162.79619 252.286014 
L 162.824215 252.286014 
L 162.824215 252.118179 
L 163.27386 252.118179 
L 163.294355 251.78251 
L 163.437203 251.78251 
L 163.437203 251.446841 
L 163.612572 251.446841 
L 163.65281 250.607669 
L 163.79962 250.607669 
L 163.852722 250.272 
L 163.925494 250.272 
L 163.95848 249.936331 
L 164.07675 249.936331 
L 164.168227 249.600662 
L 164.356312 249.600662 
L 164.459284 249.264993 
L 164.497753 249.264993 
L 164.536144 248.929324 
L 164.745905 248.929324 
L 164.796406 248.425821 
L 164.871904 248.425821 
L 164.903272 248.090152 
L 165.109001 248.090152 
L 165.170902 247.754483 
L 165.300233 247.754483 
L 165.410386 247.250979 
L 165.55626 247.250979 
L 165.580463 246.91531 
L 165.701011 246.91531 
L 165.701011 246.747476 
L 165.826761 246.747476 
L 165.826761 246.579641 
L 166.05809 246.579641 
L 166.05809 246.411807 
L 166.286609 246.411807 
L 166.286609 246.243972 
L 166.460523 246.243972 
L 166.535389 245.4048 
L 166.598506 245.4048 
L 166.598506 245.236966 
L 166.712723 245.236966 
L 166.712723 245.069131 
L 166.826251 245.069131 
L 166.927844 244.733462 
L 167.000877 244.733462 
L 167.01769 244.397793 
L 167.212746 244.397793 
L 167.323305 243.89429 
L 167.580589 243.89429 
L 167.6403 243.558621 
L 167.786064 243.558621 
L 167.786064 243.390786 
L 168.105996 243.390786 
L 168.12185 242.887283 
L 168.274427 242.887283 
L 168.274427 242.719448 
L 168.425776 242.719448 
L 168.425776 242.383779 
L 168.668509 242.383779 
L 168.755541 241.544607 
L 168.801454 241.544607 
L 168.882801 240.705434 
L 169.209704 240.705434 
L 169.319074 240.369766 
L 169.328985 240.369766 
L 169.328985 240.034097 
L 169.481946 240.034097 
L 169.545722 238.859255 
L 169.667764 238.859255 
L 169.755147 238.187917 
L 169.808349 238.187917 
L 169.875843 237.852248 
L 169.952684 237.852248 
L 169.952684 237.684414 
L 170.271088 237.684414 
L 170.34164 237.18091 
L 170.481956 237.18091 
L 170.481956 237.013076 
L 170.602722 237.013076 
L 170.602722 236.845241 
L 170.942257 236.845241 
L 170.942257 236.677407 
L 171.195189 236.677407 
L 171.284704 236.173903 
L 171.81737 236.173903 
L 171.81737 236.006069 
L 171.947136 236.006069 
L 172.033151 235.166897 
L 172.058879 235.166897 
L 172.127316 234.663393 
L 172.195505 234.663393 
L 172.297327 233.992055 
L 172.310016 233.992055 
L 172.343812 233.488552 
L 172.695049 233.488552 
L 172.695049 233.320717 
L 172.810685 233.320717 
L 172.810685 233.152883 
L 173.153391 233.152883 
L 173.18167 232.31371 
L 173.278305 232.31371 
L 173.362455 231.306703 
L 173.718895 231.306703 
L 173.718895 231.138869 
L 173.871279 231.138869 
L 173.979927 230.467531 
L 174.229752 230.467531 
L 174.229752 230.299697 
L 174.370492 230.299697 
L 174.446132 229.628359 
L 174.547765 229.628359 
L 174.630174 228.957021 
L 174.715944 228.957021 
L 174.715944 228.621352 
L 174.860492 228.621352 
L 174.941545 228.117848 
L 174.992942 228.117848 
L 175.014927 227.44651 
L 175.182628 227.44651 
L 175.182628 227.110841 
L 175.638014 227.110841 
L 175.736948 226.439503 
L 175.999415 226.439503 
L 176.072254 225.768166 
L 176.299358 225.768166 
L 176.36764 224.593324 
L 176.651746 224.593324 
L 176.651746 224.257655 
L 176.848762 224.257655 
L 176.94485 223.586317 
L 177.369655 223.586317 
L 177.385804 222.914979 
L 177.696375 222.914979 
L 177.734443 221.907972 
L 178.039357 221.907972 
L 178.039357 221.572303 
L 178.492224 221.572303 
L 178.492224 221.236634 
L 178.683021 221.236634 
L 178.764203 220.565297 
L 178.859967 220.565297 
L 178.859967 220.229628 
L 179.191352 220.229628 
L 179.264532 219.222621 
L 179.346157 219.222621 
L 179.346157 218.886952 
L 179.514118 218.886952 
L 179.519883 218.215614 
L 179.862596 218.215614 
L 179.862596 218.047779 
L 180.059666 218.047779 
L 180.059666 217.71211 
L 180.348695 217.71211 
L 180.348695 217.544276 
L 180.538033 217.544276 
L 180.538033 217.208607 
L 180.776776 217.208607 
L 180.873576 216.705103 
L 181.129302 216.705103 
L 181.184782 216.2016 
L 181.464951 216.2016 
L 181.464951 215.865931 
L 181.589291 215.865931 
L 181.67944 215.026759 
L 181.911826 215.026759 
L 181.911826 214.858924 
L 182.143884 214.858924 
L 182.143884 214.69109 
L 182.380542 214.69109 
L 182.380542 214.355421 
L 182.587345 214.355421 
L 182.62648 213.516248 
L 182.808846 213.516248 
L 182.808846 213.180579 
L 183.094621 213.180579 
L 183.094621 212.84491 
L 183.345572 212.84491 
L 183.345572 212.677076 
L 183.745783 212.677076 
L 183.745783 212.341407 
L 184.090247 212.341407 
L 184.182699 212.005738 
L 184.428517 212.005738 
L 184.530369 211.670069 
L 184.541407 211.670069 
L 184.541407 211.502234 
L 184.949634 211.502234 
L 184.979843 210.998731 
L 185.599105 210.998731 
L 185.634537 210.663062 
L 185.788 210.663062 
L 185.788 210.327393 
L 186.194587 210.327393 
L 186.194587 209.991724 
L 186.307436 209.991724 
L 186.307436 209.82389 
L 186.716831 209.82389 
L 186.716831 209.488221 
L 186.914345 209.488221 
L 186.914345 209.152552 
L 187.407772 209.152552 
L 187.407772 208.816883 
L 188.161821 208.816883 
L 188.161821 208.649048 
L 188.588413 208.649048 
L 188.588413 208.481214 
L 190.487826 208.481214 
L 190.487826 208.313379 
L 191.548133 208.313379 
L 191.633095 207.809876 
L 191.806377 207.809876 
L 191.872257 207.306372 
L 191.939396 207.306372 
L 191.939396 207.138538 
L 192.744041 207.138538 
L 192.744041 206.802869 
L 193.852309 206.802869 
L 193.852309 206.4672 
L 194.074316 206.4672 
L 194.172445 205.795862 
L 194.292419 205.795862 
L 194.348846 205.460193 
L 194.88235 205.460193 
L 194.88235 205.292359 
L 195.235629 205.292359 
L 195.235629 204.95669 
L 195.37014 204.95669 
L 195.37014 204.621021 
L 195.99025 204.621021 
L 196.098012 204.117517 
L 196.582426 204.117517 
L 196.647474 203.614014 
L 197.006959 203.614014 
L 197.006959 203.446179 
L 197.265685 203.446179 
L 197.278024 202.774841 
L 197.908736 202.774841 
L 197.908736 202.607007 
L 198.218469 202.607007 
L 198.218469 202.271338 
L 198.801339 202.271338 
L 198.801339 201.935669 
L 198.975298 201.935669 
L 198.975298 201.6 
L 200.162453 201.6 
L 200.162453 201.432166 
L 200.432729 201.432166 
L 200.432729 201.096497 
L 201.493633 201.096497 
L 201.493633 200.928662 
L 201.634705 200.928662 
L 201.678241 200.592993 
L 202.125488 200.592993 
L 202.125488 200.257324 
L 202.896359 200.257324 
L 202.896359 199.921655 
L 203.475449 199.921655 
L 203.475449 199.585986 
L 203.932045 199.585986 
L 203.932045 199.418152 
L 205.273367 199.418152 
L 205.273367 199.082483 
L 206.251794 199.082483 
L 206.269184 198.746814 
L 206.628664 198.746814 
L 206.628664 198.411145 
L 207.026872 198.411145 
L 207.128774 197.907641 
L 207.507529 197.907641 
L 207.507529 197.739807 
L 208.78103 197.739807 
L 208.793801 197.236303 
L 209.493169 197.236303 
L 209.493169 196.900634 
L 211.974471 196.900634 
L 211.974471 196.564966 
L 212.787315 196.564966 
L 212.787315 196.229297 
L 213.44391 196.229297 
L 213.44391 196.061462 
L 213.563184 196.061462 
L 213.616893 195.557959 
L 214.448824 195.557959 
L 214.448824 195.390124 
L 215.787723 195.390124 
L 215.787723 195.22229 
L 216.25595 195.22229 
L 216.357895 194.550952 
L 217.827268 194.550952 
L 217.827268 194.215283 
L 219.13373 194.215283 
L 219.13373 194.047448 
L 219.485858 194.047448 
L 219.485858 193.711779 
L 220.529119 193.711779 
L 220.529119 193.37611 
L 221.468955 193.37611 
L 221.468955 193.040441 
L 221.852117 193.040441 
L 221.852117 192.872607 
L 221.984657 192.872607 
L 221.984657 192.536938 
L 222.36879 192.536938 
L 222.36879 192.369103 
L 223.829465 192.369103 
L 223.829465 192.033434 
L 224.474376 192.033434 
L 224.474376 191.8656 
L 224.670152 191.8656 
L 224.670152 191.697766 
L 225.102508 191.697766 
L 225.102508 191.529931 
L 225.85793 191.529931 
L 225.957799 191.026428 
L 226.579934 191.026428 
L 226.579934 190.690759 
L 226.837029 190.690759 
L 226.837029 190.522924 
L 227.072721 190.522924 
L 227.072721 190.35509 
L 227.239706 190.35509 
L 227.239706 190.187255 
L 227.943358 190.187255 
L 227.984831 189.683752 
L 228.062046 189.683752 
L 228.062046 189.348083 
L 229.520698 189.348083 
L 229.520698 189.180248 
L 230.032424 189.180248 
L 230.032424 189.012414 
L 230.437709 189.012414 
L 230.437709 188.844579 
L 231.414473 188.844579 
L 231.414473 188.676745 
L 231.656756 188.676745 
L 231.656756 188.50891 
L 232.043334 188.50891 
L 232.109639 187.837572 
L 232.239804 187.837572 
L 232.239804 187.669738 
L 233.626846 187.669738 
L 233.626846 187.501903 
L 234.058052 187.501903 
L 234.130444 186.9984 
L 235.030916 186.9984 
L 235.080887 186.327062 
L 238.899804 186.327062 
L 238.899804 185.991393 
L 239.58199 185.991393 
L 239.58199 185.823559 
L 239.786409 185.823559 
L 239.894251 185.152221 
L 239.982723 185.152221 
L 239.982723 184.816552 
L 240.281047 184.816552 
L 240.3516 184.313048 
L 241.326023 184.313048 
L 241.326023 183.977379 
L 241.583948 183.977379 
L 241.583948 183.809545 
L 241.877282 183.809545 
L 241.877282 183.473876 
L 242.320597 183.473876 
L 242.320597 183.138207 
L 242.895721 183.138207 
L 243.004049 182.802538 
L 243.144488 182.802538 
L 243.144488 182.466869 
L 243.752574 182.466869 
L 243.752574 182.299034 
L 244.448623 182.299034 
L 244.448623 182.1312 
L 244.560382 182.1312 
L 244.560382 181.963366 
L 244.797089 181.963366 
L 244.797089 181.627697 
L 245.286756 181.627697 
L 245.286756 181.459862 
L 245.512652 181.459862 
L 245.512652 181.292028 
L 246.235334 181.292028 
L 246.235334 181.124193 
L 246.580734 181.124193 
L 246.580734 180.956359 
L 247.566509 180.956359 
L 247.615132 180.62069 
L 247.844177 180.62069 
L 247.945643 180.117186 
L 248.385215 180.117186 
L 248.426224 179.613683 
L 249.389744 179.613683 
L 249.389744 179.278014 
L 249.902551 179.278014 
L 249.902551 179.110179 
L 250.949439 179.110179 
L 250.949439 178.942345 
L 251.613425 178.942345 
L 251.674994 178.438841 
L 251.864539 178.438841 
L 251.864539 178.271007 
L 252.582254 178.271007 
L 252.582254 178.103172 
L 252.926209 178.103172 
L 253.010079 177.431834 
L 253.676303 177.431834 
L 253.775273 177.096166 
L 253.855229 177.096166 
L 253.855229 176.928331 
L 254.124835 176.928331 
L 254.124835 176.592662 
L 254.493477 176.592662 
L 254.59262 175.921324 
L 254.913628 175.921324 
L 254.913628 175.75349 
L 255.852864 175.75349 
L 255.852864 175.585655 
L 256.005503 175.585655 
L 256.005503 175.417821 
L 256.328649 175.417821 
L 256.328649 175.249986 
L 256.986541 175.249986 
L 257.067989 174.746483 
L 258.603382 174.746483 
L 258.603382 174.578648 
L 258.766424 174.578648 
L 258.826245 174.242979 
L 259.070869 174.242979 
L 259.070869 174.075145 
L 259.848608 174.075145 
L 259.848608 173.90731 
L 260.536243 173.90731 
L 260.536243 173.571641 
L 261.344223 173.571641 
L 261.42602 173.068138 
L 262.062955 173.068138 
L 262.131311 172.732469 
L 262.197854 172.732469 
L 262.267635 172.3968 
L 262.31837 172.3968 
L 262.31837 172.228966 
L 262.444824 172.228966 
L 262.444824 172.061131 
L 262.566877 172.061131 
L 262.655584 171.557628 
L 262.844743 171.557628 
L 262.844743 171.389793 
L 263.046505 171.389793 
L 263.046505 171.221959 
L 263.609985 171.221959 
L 263.609985 171.054124 
L 264.043464 171.054124 
L 264.096997 170.718455 
L 264.463521 170.718455 
L 264.517446 170.047117 
L 265.041756 170.047117 
L 265.041756 169.879283 
L 265.170566 169.879283 
L 265.170566 169.711448 
L 265.393463 169.711448 
L 265.393463 169.543614 
L 265.642227 169.543614 
L 265.701177 169.04011 
L 266.011314 169.04011 
L 266.011314 168.704441 
L 267.148929 168.704441 
L 267.148929 168.536607 
L 267.522821 168.536607 
L 267.522821 168.368772 
L 268.107744 168.368772 
L 268.107744 168.200938 
L 268.376581 168.200938 
L 268.376581 167.865269 
L 268.61485 167.865269 
L 268.61485 167.697434 
L 269.026135 167.697434 
L 269.026135 167.361766 
L 269.377755 167.361766 
L 269.377755 167.193931 
L 270.703279 167.193931 
L 270.703279 167.026097 
L 271.484058 167.026097 
L 271.484058 166.858262 
L 272.023745 166.858262 
L 272.023745 166.522593 
L 272.193274 166.522593 
L 272.254335 166.01909 
L 272.637741 166.01909 
L 272.637741 165.683421 
L 273.163589 165.683421 
L 273.191936 165.347752 
L 273.741304 165.347752 
L 273.741304 165.179917 
L 360.8064 165.179917 
L 360.8064 165.179917 
" style="fill: none; stroke: #ff00ff; stroke-width: 1.5; stroke-linecap: square"/>
   </g>
   <g id="line2d_41">
    <defs>
     <path id="m9b9eb047b1" d="M 0 8.485281 
L 5.091169 0 
L 0 -8.485281 
L -5.091169 0 
z
" style="stroke: #ff00ff; stroke-width: 1.5; stroke-linejoin: miter"/>
    </defs>
    <g>
     <use xlink:href="#m9b9eb047b1" x="85.471281" y="284.845903" style="fill-opacity: 0; stroke: #ff00ff; stroke-width: 1.5; stroke-linejoin: miter"/>
     <use xlink:href="#m9b9eb047b1" x="156.657763" y="262.691752" style="fill-opacity: 0; stroke: #ff00ff; stroke-width: 1.5; stroke-linejoin: miter"/>
     <use xlink:href="#m9b9eb047b1" x="221.468955" y="193.040441" style="fill-opacity: 0; stroke: #ff00ff; stroke-width: 1.5; stroke-linejoin: miter"/>
     <use xlink:href="#m9b9eb047b1" x="273.741304" y="165.347752" style="fill-opacity: 0; stroke: #ff00ff; stroke-width: 1.5; stroke-linejoin: miter"/>
     <use xlink:href="#m9b9eb047b1" x="273.741304" y="165.179917" style="fill-opacity: 0; stroke: #ff00ff; stroke-width: 1.5; stroke-linejoin: miter"/>
     <use xlink:href="#m9b9eb047b1" x="360.8064" y="165.179917" style="fill-opacity: 0; stroke: #ff00ff; stroke-width: 1.5; stroke-linejoin: miter"/>
    </g>
   </g>
   <g id="line2d_42">
    <path style="fill: none; stroke: #ff00ff; stroke-width: 1.5; stroke-linecap: square"/>
    <g/>
   </g>
   <g id="line2d_43">
    <path d="M 274.176019 165.179917 
" clip-path="url(#p766300dc19)" style="fill: none; stroke: #ff00ff; stroke-width: 1.5; stroke-linecap: square"/>
    <defs>
     <path id="m1a2e42ff1b" d="M -12 12 
L 12 -12 
M -12 -12 
L 12 12 
" style="stroke: #ff00ff"/>
    </defs>
    <g clip-path="url(#p766300dc19)">
     <use xlink:href="#m1a2e42ff1b" x="274.176019" y="165.179917" style="fill: #ff00ff; stroke: #ff00ff"/>
    </g>
   </g>
   <g id="line2d_44">
    <defs>
     <path id="m8e2fbac884" d="M 0 1.5 
C 0.397805 1.5 0.77937 1.341951 1.06066 1.06066 
C 1.341951 0.77937 1.5 0.397805 1.5 0 
C 1.5 -0.397805 1.341951 -0.77937 1.06066 -1.06066 
C 0.77937 -1.341951 0.397805 -1.5 0 -1.5 
C -0.397805 -1.5 -0.77937 -1.341951 -1.06066 -1.06066 
C -1.341951 -0.77937 -1.5 -0.397805 -1.5 0 
C -1.5 0.397805 -1.341951 0.77937 -1.06066 1.06066 
C -0.77937 1.341951 -0.397805 1.5 0 1.5 
z
" style="stroke: #6495ed"/>
    </defs>
    <g>
     <use xlink:href="#m8e2fbac884" x="113.765312" y="257.321048" style="fill: #6495ed; stroke: #6495ed"/>
     <use xlink:href="#m8e2fbac884" x="113.765312" y="257.321048" style="fill: #6495ed; stroke: #6495ed"/>
    </g>
   </g>
   <g id="line2d_45">
    <path d="M 14.2848 298.944 
L 14.2848 293.908966 
L 27.323974 293.908966 
L 27.323974 293.069793 
L 34.951403 293.069793 
L 34.951403 292.56629 
L 40.363149 292.56629 
L 40.363149 291.727117 
L 44.560826 291.727117 
L 44.560826 291.391448 
L 47.990577 291.391448 
L 47.990577 291.223614 
L 50.890391 291.223614 
L 50.890391 290.72011 
L 53.402323 290.72011 
L 53.402323 289.880938 
L 55.618005 289.880938 
L 55.618005 289.377434 
L 57.6 289.377434 
L 57.6 289.041766 
L 61.029752 289.041766 
L 61.029752 288.202593 
L 62.535479 288.202593 
L 62.535479 288.034759 
L 65.227428 288.034759 
L 65.227428 287.531255 
L 66.441498 287.531255 
L 66.441498 287.027752 
L 68.65718 287.027752 
L 68.65718 286.859917 
L 70.639174 286.859917 
L 70.639174 286.692083 
L 74.068926 286.692083 
L 74.068926 286.524248 
L 75.574654 286.524248 
L 75.574654 286.356414 
L 78.266603 286.356414 
L 78.266603 286.188579 
L 83.678349 286.188579 
L 83.678349 285.85291 
L 87.1081 285.85291 
L 87.1081 285.685076 
L 87.495981 285.685076 
L 87.495981 285.517241 
L 90.340871 285.517241 
L 90.340871 285.181572 
L 96.241256 285.181572 
L 96.241256 285.013738 
L 97.635342 285.013738 
L 97.635342 284.3424 
L 100.147275 284.3424 
L 100.147275 284.174566 
L 100.342215 284.174566 
L 100.342215 284.006731 
L 100.726138 284.006731 
L 100.726138 283.671062 
L 100.9152 283.671062 
L 100.9152 283.503228 
L 102.536336 283.503228 
L 102.536336 283.335393 
L 103.047088 283.335393 
L 103.047088 282.664055 
L 103.214303 282.664055 
L 103.214303 281.824883 
L 103.380045 281.824883 
L 103.380045 280.314372 
L 103.544339 280.314372 
L 103.544339 279.307366 
L 103.707211 279.307366 
L 103.707211 278.971697 
L 103.868684 278.971697 
L 103.868684 278.468193 
L 104.028784 278.468193 
L 104.028784 277.629021 
L 104.187532 277.629021 
L 104.187532 277.293352 
L 104.501065 277.293352 
L 104.501065 276.957683 
L 104.655893 276.957683 
L 104.655893 275.279338 
L 104.809458 275.279338 
L 104.809458 274.943669 
L 104.961779 274.943669 
L 104.961779 273.768828 
L 105.112877 273.768828 
L 105.112877 273.433159 
L 105.26277 273.433159 
L 105.26277 273.265324 
L 105.411479 273.265324 
L 105.411479 272.761821 
L 105.559021 272.761821 
L 105.559021 272.593986 
L 105.705415 272.593986 
L 105.705415 272.258317 
L 105.850679 272.258317 
L 105.850679 271.754814 
L 105.99483 271.754814 
L 105.99483 271.419145 
L 106.137884 271.419145 
L 106.137884 270.915641 
L 106.42077 270.915641 
L 106.42077 270.244303 
L 106.560633 270.244303 
L 106.560633 269.7408 
L 106.837279 269.7408 
L 106.837279 269.405131 
L 106.974091 269.405131 
L 106.974091 269.069462 
L 107.109915 269.069462 
L 107.109915 268.565959 
L 107.244765 268.565959 
L 107.244765 268.398124 
L 107.643612 268.398124 
L 107.643612 268.062455 
L 107.774703 268.062455 
L 107.774703 267.558952 
L 107.904887 267.558952 
L 107.904887 266.887614 
L 108.034177 266.887614 
L 108.034177 266.216276 
L 108.162584 266.216276 
L 108.162584 266.048441 
L 108.29012 266.048441 
L 108.29012 265.209269 
L 108.416798 265.209269 
L 108.416798 265.041434 
L 108.542628 265.041434 
L 108.542628 264.8736 
L 108.667622 264.8736 
L 108.667622 264.537931 
L 109.037698 264.537931 
L 109.037698 264.370097 
L 109.159456 264.370097 
L 109.159456 263.866593 
L 109.280431 263.866593 
L 109.280431 263.195255 
L 109.400633 263.195255 
L 109.400633 263.027421 
L 109.520071 263.027421 
L 109.520071 262.859586 
L 109.638757 262.859586 
L 109.638757 262.356083 
L 109.756698 262.356083 
L 109.756698 261.51691 
L 110.335561 261.51691 
L 110.335561 261.181241 
L 110.449226 261.181241 
L 110.449226 260.845572 
L 110.562208 260.845572 
L 110.562208 260.677738 
L 110.674517 260.677738 
L 110.674517 260.509903 
L 110.786158 260.509903 
L 110.786158 260.174234 
L 111.007473 260.174234 
L 111.007473 260.0064 
L 111.334639 260.0064 
L 111.334639 259.838566 
L 111.762192 259.838566 
L 111.762192 259.670731 
L 112.076599 259.670731 
L 112.180244 259.167228 
L 112.283321 259.167228 
L 112.283321 258.663724 
L 112.487797 258.663724 
L 112.589207 258.160221 
L 112.989468 258.160221 
L 112.989468 257.992386 
L 113.284172 257.992386 
L 113.381389 257.656717 
L 113.57433 257.656717 
L 113.57433 257.488883 
L 113.765312 257.488883 
L 113.765312 257.321048 
L 360.8064 257.321048 
L 360.8064 257.321048 
" style="fill: none; stroke: #6495ed; stroke-width: 1.5; stroke-linecap: square"/>
   </g>
   <g id="line2d_46">
    <defs>
     <path id="m0911e3c4f6" d="M -0 6 
L 6 -6 
L -6 -6 
z
" style="stroke: #6495ed; stroke-width: 1.5; stroke-linejoin: miter"/>
    </defs>
    <g>
     <use xlink:href="#m0911e3c4f6" x="70.639174" y="286.692083" style="fill-opacity: 0; stroke: #6495ed; stroke-width: 1.5; stroke-linejoin: miter"/>
     <use xlink:href="#m0911e3c4f6" x="113.765312" y="257.488883" style="fill-opacity: 0; stroke: #6495ed; stroke-width: 1.5; stroke-linejoin: miter"/>
     <use xlink:href="#m0911e3c4f6" x="113.765312" y="257.321048" style="fill-opacity: 0; stroke: #6495ed; stroke-width: 1.5; stroke-linejoin: miter"/>
     <use xlink:href="#m0911e3c4f6" x="113.765312" y="257.321048" style="fill-opacity: 0; stroke: #6495ed; stroke-width: 1.5; stroke-linejoin: miter"/>
     <use xlink:href="#m0911e3c4f6" x="113.765312" y="257.321048" style="fill-opacity: 0; stroke: #6495ed; stroke-width: 1.5; stroke-linejoin: miter"/>
     <use xlink:href="#m0911e3c4f6" x="360.8064" y="257.321048" style="fill-opacity: 0; stroke: #6495ed; stroke-width: 1.5; stroke-linejoin: miter"/>
    </g>
   </g>
   <g id="line2d_47">
    <path style="fill: none; stroke: #6495ed; stroke-width: 1.5; stroke-linecap: square"/>
    <g/>
   </g>
   <g id="line2d_48">
    <path d="M 113.954374 257.321048 
" clip-path="url(#p766300dc19)" style="fill: none; stroke: #6495ed; stroke-width: 1.5; stroke-linecap: square"/>
    <defs>
     <path id="md8d440ccaf" d="M -12 12 
L 12 -12 
M -12 -12 
L 12 12 
" style="stroke: #6495ed"/>
    </defs>
    <g clip-path="url(#p766300dc19)">
     <use xlink:href="#md8d440ccaf" x="113.954374" y="257.321048" style="fill: #6495ed; stroke: #6495ed"/>
    </g>
   </g>
   <g id="line2d_49">
    <path d="M 360.8064 276.286345 
L 380.514816 293.10336 
" style="fill: none; stroke: #000080; stroke-width: 1.5; stroke-linecap: square"/>
    <g>
     <use xlink:href="#m1080d0df4e" x="360.8064" y="276.286345" style="fill-opacity: 0; stroke: #000080; stroke-width: 1.5"/>
     <use xlink:href="#m1080d0df4e" x="380.514816" y="293.10336" style="fill-opacity: 0; stroke: #000080; stroke-width: 1.5"/>
    </g>
   </g>
   <g id="line2d_50">
    <path d="M 360.8064 257.321048 
L 380.514816 199.65312 
" style="fill: none; stroke: #6495ed; stroke-width: 1.5; stroke-linecap: square"/>
    <g>
     <use xlink:href="#m0911e3c4f6" x="360.8064" y="257.321048" style="fill-opacity: 0; stroke: #6495ed; stroke-width: 1.5; stroke-linejoin: miter"/>
     <use xlink:href="#m0911e3c4f6" x="380.514816" y="199.65312" style="fill-opacity: 0; stroke: #6495ed; stroke-width: 1.5; stroke-linejoin: miter"/>
    </g>
   </g>
   <g id="line2d_51">
    <path d="M 360.8064 165.179917 
L 380.514816 106.20288 
" style="fill: none; stroke: #ff00ff; stroke-width: 1.5; stroke-linecap: square"/>
    <g>
     <use xlink:href="#m9b9eb047b1" x="360.8064" y="165.179917" style="fill-opacity: 0; stroke: #ff00ff; stroke-width: 1.5; stroke-linejoin: miter"/>
     <use xlink:href="#m9b9eb047b1" x="380.514816" y="106.20288" style="fill-opacity: 0; stroke: #ff00ff; stroke-width: 1.5; stroke-linejoin: miter"/>
    </g>
   </g>
   <g id="line2d_52">
    <path d="M 360.8064 298.944 
L 360.8064 6.912 
" style="fill: none; stroke: #000000; stroke-width: 1.5; stroke-linecap: square"/>
   </g>
   <g id="patch_3">
    <path d="M 57.6 298.944 
L 360.8064 298.944 
" style="fill: none; stroke: #000000; stroke-width: 0.8; stroke-linejoin: miter; stroke-linecap: square"/>
   </g>
   <g id="patch_4">
    <path d="M 57.6 6.912 
L 360.8064 6.912 
" style="fill: none; stroke: #000000; stroke-width: 0.8; stroke-linejoin: miter; stroke-linecap: square"/>
   </g>
   <g id="text_13">
    <!-- cma -->
    <g transform="translate(386.578944 296.966485)scale(0.14 -0.14)">
     <use xlink:href="#DejaVuSans-63"/>
     <use xlink:href="#DejaVuSans-6d" x="54.980469"/>
     <use xlink:href="#DejaVuSans-61" x="152.392578"/>
    </g>
   </g>
   <g id="text_14">
    <!-- parEgo -->
    <g transform="translate(386.578944 203.516245)scale(0.14 -0.14)">
     <defs>
      <path id="DejaVuSans-45" d="M 628 4666 
L 3578 4666 
L 3578 4134 
L 1259 4134 
L 1259 2753 
L 3481 2753 
L 3481 2222 
L 1259 2222 
L 1259 531 
L 3634 531 
L 3634 0 
L 628 0 
L 628 4666 
z
" transform="scale(0.015625)"/>
     </defs>
     <use xlink:href="#DejaVuSans-70"/>
     <use xlink:href="#DejaVuSans-61" x="63.476562"/>
     <use xlink:href="#DejaVuSans-72" x="124.755859"/>
     <use xlink:href="#DejaVuSans-45" x="165.869141"/>
     <use xlink:href="#DejaVuSans-67" x="229.052734"/>
     <use xlink:href="#DejaVuSans-6f" x="292.529297"/>
    </g>
   </g>
   <g id="text_15">
    <!-- external- -->
    <g transform="translate(386.578944 110.066005)scale(0.14 -0.14)">
     <defs>
      <path id="DejaVuSans-78" d="M 3513 3500 
L 2247 1797 
L 3578 0 
L 2900 0 
L 1881 1375 
L 863 0 
L 184 0 
L 1544 1831 
L 300 3500 
L 978 3500 
L 1906 2253 
L 2834 3500 
L 3513 3500 
z
" transform="scale(0.015625)"/>
     </defs>
     <use xlink:href="#DejaVuSans-65"/>
     <use xlink:href="#DejaVuSans-78" x="59.773438"/>
     <use xlink:href="#DejaVuSans-74" x="118.953125"/>
     <use xlink:href="#DejaVuSans-65" x="158.162109"/>
     <use xlink:href="#DejaVuSans-72" x="219.685547"/>
     <use xlink:href="#DejaVuSans-6e" x="259.048828"/>
     <use xlink:href="#DejaVuSans-61" x="322.427734"/>
     <use xlink:href="#DejaVuSans-6c" x="383.707031"/>
     <use xlink:href="#DejaVuSans-2d" x="411.490234"/>
    </g>
   </g>
   <g id="text_16">
    <!-- best 2016 -->
    <g transform="translate(386.578944 16.615765)scale(0.14 -0.14)">
     <defs>
      <path id="DejaVuSans-62" d="M 3116 1747 
Q 3116 2381 2855 2742 
Q 2594 3103 2138 3103 
Q 1681 3103 1420 2742 
Q 1159 2381 1159 1747 
Q 1159 1113 1420 752 
Q 1681 391 2138 391 
Q 2594 391 2855 752 
Q 3116 1113 3116 1747 
z
M 1159 2969 
Q 1341 3281 1617 3432 
Q 1894 3584 2278 3584 
Q 2916 3584 3314 3078 
Q 3713 2572 3713 1747 
Q 3713 922 3314 415 
Q 2916 -91 2278 -91 
Q 1894 -91 1617 61 
Q 1341 213 1159 525 
L 1159 0 
L 581 0 
L 581 4863 
L 1159 4863 
L 1159 2969 
z
" transform="scale(0.015625)"/>
     </defs>
     <use xlink:href="#DejaVuSans-62"/>
     <use xlink:href="#DejaVuSans-65" x="63.476562"/>
     <use xlink:href="#DejaVuSans-73" x="125"/>
     <use xlink:href="#DejaVuSans-74" x="177.099609"/>
     <use xlink:href="#DejaVuSans-20" x="216.308594"/>
     <use xlink:href="#DejaVuSans-32" x="248.095703"/>
     <use xlink:href="#DejaVuSans-30" x="311.71875"/>
     <use xlink:href="#DejaVuSans-31" x="375.341797"/>
     <use xlink:href="#DejaVuSans-36" x="438.964844"/>
    </g>
   </g>
   <g id="text_17">
    <!-- bbob-biobj f35, f36, f41, 10-D -->
    <g transform="translate(60.632064 17.582726)scale(0.102 -0.102)">
     <defs>
      <path id="DejaVuSans-6a" d="M 603 3500 
L 1178 3500 
L 1178 -63 
Q 1178 -731 923 -1031 
Q 669 -1331 103 -1331 
L -116 -1331 
L -116 -844 
L 38 -844 
Q 366 -844 484 -692 
Q 603 -541 603 -63 
L 603 3500 
z
M 603 4863 
L 1178 4863 
L 1178 4134 
L 603 4134 
L 603 4863 
z
" transform="scale(0.015625)"/>
      <path id="DejaVuSans-33" d="M 2597 2516 
Q 3050 2419 3304 2112 
Q 3559 1806 3559 1356 
Q 3559 666 3084 287 
Q 2609 -91 1734 -91 
Q 1441 -91 1130 -33 
Q 819 25 488 141 
L 488 750 
Q 750 597 1062 519 
Q 1375 441 1716 441 
Q 2309 441 2620 675 
Q 2931 909 2931 1356 
Q 2931 1769 2642 2001 
Q 2353 2234 1838 2234 
L 1294 2234 
L 1294 2753 
L 1863 2753 
Q 2328 2753 2575 2939 
Q 2822 3125 2822 3475 
Q 2822 3834 2567 4026 
Q 2313 4219 1838 4219 
Q 1578 4219 1281 4162 
Q 984 4106 628 3988 
L 628 4550 
Q 988 4650 1302 4700 
Q 1616 4750 1894 4750 
Q 2613 4750 3031 4423 
Q 3450 4097 3450 3541 
Q 3450 3153 3228 2886 
Q 3006 2619 2597 2516 
z
" transform="scale(0.015625)"/>
      <path id="DejaVuSans-35" d="M 691 4666 
L 3169 4666 
L 3169 4134 
L 1269 4134 
L 1269 2991 
Q 1406 3038 1543 3061 
Q 1681 3084 1819 3084 
Q 2600 3084 3056 2656 
Q 3513 2228 3513 1497 
Q 3513 744 3044 326 
Q 2575 -91 1722 -91 
Q 1428 -91 1123 -41 
Q 819 9 494 109 
L 494 744 
Q 775 591 1075 516 
Q 1375 441 1709 441 
Q 2250 441 2565 725 
Q 2881 1009 2881 1497 
Q 2881 1984 2565 2268 
Q 2250 2553 1709 2553 
Q 1456 2553 1204 2497 
Q 953 2441 691 2322 
L 691 4666 
z
" transform="scale(0.015625)"/>
      <path id="DejaVuSans-44" d="M 1259 4147 
L 1259 519 
L 2022 519 
Q 2988 519 3436 956 
Q 3884 1394 3884 2338 
Q 3884 3275 3436 3711 
Q 2988 4147 2022 4147 
L 1259 4147 
z
M 628 4666 
L 1925 4666 
Q 3281 4666 3915 4102 
Q 4550 3538 4550 2338 
Q 4550 1131 3912 565 
Q 3275 0 1925 0 
L 628 0 
L 628 4666 
z
" transform="scale(0.015625)"/>
     </defs>
     <use xlink:href="#DejaVuSans-62"/>
     <use xlink:href="#DejaVuSans-62" x="63.476562"/>
     <use xlink:href="#DejaVuSans-6f" x="126.953125"/>
     <use xlink:href="#DejaVuSans-62" x="188.134766"/>
     <use xlink:href="#DejaVuSans-2d" x="251.611328"/>
     <use xlink:href="#DejaVuSans-62" x="287.695312"/>
     <use xlink:href="#DejaVuSans-69" x="351.171875"/>
     <use xlink:href="#DejaVuSans-6f" x="378.955078"/>
     <use xlink:href="#DejaVuSans-62" x="440.136719"/>
     <use xlink:href="#DejaVuSans-6a" x="503.613281"/>
     <use xlink:href="#DejaVuSans-20" x="531.396484"/>
     <use xlink:href="#DejaVuSans-66" x="563.183594"/>
     <use xlink:href="#DejaVuSans-33" x="598.388672"/>
     <use xlink:href="#DejaVuSans-35" x="662.011719"/>
     <use xlink:href="#DejaVuSans-2c" x="725.634766"/>
     <use xlink:href="#DejaVuSans-20" x="757.421875"/>
     <use xlink:href="#DejaVuSans-66" x="789.208984"/>
     <use xlink:href="#DejaVuSans-33" x="824.414062"/>
     <use xlink:href="#DejaVuSans-36" x="888.037109"/>
     <use xlink:href="#DejaVuSans-2c" x="951.660156"/>
     <use xlink:href="#DejaVuSans-20" x="983.447266"/>
     <use xlink:href="#DejaVuSans-66" x="1015.234375"/>
     <use xlink:href="#DejaVuSans-34" x="1050.439453"/>
     <use xlink:href="#DejaVuSans-31" x="1114.0625"/>
     <use xlink:href="#DejaVuSans-2c" x="1177.685547"/>
     <use xlink:href="#DejaVuSans-20" x="1209.472656"/>
     <use xlink:href="#DejaVuSans-31" x="1241.259766"/>
     <use xlink:href="#DejaVuSans-30" x="1304.882812"/>
     <use xlink:href="#DejaVuSans-2d" x="1368.505859"/>
     <use xlink:href="#DejaVuSans-44" x="1404.589844"/>
    </g>
    <!-- 58 targets: 1..-1.0e-4 -->
    <g transform="translate(60.632064 29.004495)scale(0.102 -0.102)">
     <defs>
      <path id="DejaVuSans-3a" d="M 750 794 
L 1409 794 
L 1409 0 
L 750 0 
L 750 794 
z
M 750 3309 
L 1409 3309 
L 1409 2516 
L 750 2516 
L 750 3309 
z
" transform="scale(0.015625)"/>
     </defs>
     <use xlink:href="#DejaVuSans-35"/>
     <use xlink:href="#DejaVuSans-38" x="63.623047"/>
     <use xlink:href="#DejaVuSans-20" x="127.246094"/>
     <use xlink:href="#DejaVuSans-74" x="159.033203"/>
     <use xlink:href="#DejaVuSans-61" x="198.242188"/>
     <use xlink:href="#DejaVuSans-72" x="259.521484"/>
     <use xlink:href="#DejaVuSans-67" x="298.884766"/>
     <use xlink:href="#DejaVuSans-65" x="362.361328"/>
     <use xlink:href="#DejaVuSans-74" x="423.884766"/>
     <use xlink:href="#DejaVuSans-73" x="463.09375"/>
     <use xlink:href="#DejaVuSans-3a" x="515.193359"/>
     <use xlink:href="#DejaVuSans-20" x="548.884766"/>
     <use xlink:href="#DejaVuSans-31" x="580.671875"/>
     <use xlink:href="#DejaVuSans-2e" x="644.294922"/>
     <use xlink:href="#DejaVuSans-2e" x="676.082031"/>
     <use xlink:href="#DejaVuSans-2d" x="707.869141"/>
     <use xlink:href="#DejaVuSans-31" x="743.953125"/>
     <use xlink:href="#DejaVuSans-2e" x="807.576172"/>
     <use xlink:href="#DejaVuSans-30" x="839.363281"/>
     <use xlink:href="#DejaVuSans-65" x="902.986328"/>
     <use xlink:href="#DejaVuSans-2d" x="964.509766"/>
     <use xlink:href="#DejaVuSans-34" x="1000.59375"/>
    </g>
    <!-- 10 instances -->
    <g transform="translate(60.632064 40.426264)scale(0.102 -0.102)">
     <use xlink:href="#DejaVuSans-31"/>
     <use xlink:href="#DejaVuSans-30" x="63.623047"/>
     <use xlink:href="#DejaVuSans-20" x="127.246094"/>
     <use xlink:href="#DejaVuSans-69" x="159.033203"/>
     <use xlink:href="#DejaVuSans-6e" x="186.816406"/>
     <use xlink:href="#DejaVuSans-73" x="250.195312"/>
     <use xlink:href="#DejaVuSans-74" x="302.294922"/>
     <use xlink:href="#DejaVuSans-61" x="341.503906"/>
     <use xlink:href="#DejaVuSans-6e" x="402.783203"/>
     <use xlink:href="#DejaVuSans-63" x="466.162109"/>
     <use xlink:href="#DejaVuSans-65" x="521.142578"/>
     <use xlink:href="#DejaVuSans-73" x="582.666016"/>
    </g>
   </g>
   <g id="text_18">
    <!-- v2.6, hv-hash=ff0e71e8cd978373 -->
    <g style="fill: #808080" transform="translate(123.707887 293.943992)scale(0.1 -0.1)">
     <defs>
      <path id="DejaVuSans-68" d="M 3513 2113 
L 3513 0 
L 2938 0 
L 2938 2094 
Q 2938 2591 2744 2837 
Q 2550 3084 2163 3084 
Q 1697 3084 1428 2787 
Q 1159 2491 1159 1978 
L 1159 0 
L 581 0 
L 581 4863 
L 1159 4863 
L 1159 2956 
Q 1366 3272 1645 3428 
Q 1925 3584 2291 3584 
Q 2894 3584 3203 3211 
Q 3513 2838 3513 2113 
z
" transform="scale(0.015625)"/>
      <path id="DejaVuSans-3d" d="M 678 2906 
L 4684 2906 
L 4684 2381 
L 678 2381 
L 678 2906 
z
M 678 1631 
L 4684 1631 
L 4684 1100 
L 678 1100 
L 678 1631 
z
" transform="scale(0.015625)"/>
      <path id="DejaVuSans-37" d="M 525 4666 
L 3525 4666 
L 3525 4397 
L 1831 0 
L 1172 0 
L 2766 4134 
L 525 4134 
L 525 4666 
z
" transform="scale(0.015625)"/>
      <path id="DejaVuSans-39" d="M 703 97 
L 703 672 
Q 941 559 1184 500 
Q 1428 441 1663 441 
Q 2288 441 2617 861 
Q 2947 1281 2994 2138 
Q 2813 1869 2534 1725 
Q 2256 1581 1919 1581 
Q 1219 1581 811 2004 
Q 403 2428 403 3163 
Q 403 3881 828 4315 
Q 1253 4750 1959 4750 
Q 2769 4750 3195 4129 
Q 3622 3509 3622 2328 
Q 3622 1225 3098 567 
Q 2575 -91 1691 -91 
Q 1453 -91 1209 -44 
Q 966 3 703 97 
z
M 1959 2075 
Q 2384 2075 2632 2365 
Q 2881 2656 2881 3163 
Q 2881 3666 2632 3958 
Q 2384 4250 1959 4250 
Q 1534 4250 1286 3958 
Q 1038 3666 1038 3163 
Q 1038 2656 1286 2365 
Q 1534 2075 1959 2075 
z
" transform="scale(0.015625)"/>
     </defs>
     <use xlink:href="#DejaVuSans-76"/>
     <use xlink:href="#DejaVuSans-32" x="59.179688"/>
     <use xlink:href="#DejaVuSans-2e" x="122.802734"/>
     <use xlink:href="#DejaVuSans-36" x="154.589844"/>
     <use xlink:href="#DejaVuSans-2c" x="218.212891"/>
     <use xlink:href="#DejaVuSans-20" x="250"/>
     <use xlink:href="#DejaVuSans-68" x="281.787109"/>
     <use xlink:href="#DejaVuSans-76" x="345.166016"/>
     <use xlink:href="#DejaVuSans-2d" x="401.720703"/>
     <use xlink:href="#DejaVuSans-68" x="437.804688"/>
     <use xlink:href="#DejaVuSans-61" x="501.183594"/>
     <use xlink:href="#DejaVuSans-73" x="562.462891"/>
     <use xlink:href="#DejaVuSans-68" x="614.5625"/>
     <use xlink:href="#DejaVuSans-3d" x="677.941406"/>
     <use xlink:href="#DejaVuSans-66" x="761.730469"/>
     <use xlink:href="#DejaVuSans-66" x="796.935547"/>
     <use xlink:href="#DejaVuSans-30" x="832.140625"/>
     <use xlink:href="#DejaVuSans-65" x="895.763672"/>
     <use xlink:href="#DejaVuSans-37" x="957.287109"/>
     <use xlink:href="#DejaVuSans-31" x="1020.910156"/>
     <use xlink:href="#DejaVuSans-65" x="1084.533203"/>
     <use xlink:href="#DejaVuSans-38" x="1146.056641"/>
     <use xlink:href="#DejaVuSans-63" x="1209.679688"/>
     <use xlink:href="#DejaVuSans-64" x="1264.660156"/>
     <use xlink:href="#DejaVuSans-39" x="1328.136719"/>
     <use xlink:href="#DejaVuSans-37" x="1391.759766"/>
     <use xlink:href="#DejaVuSans-38" x="1455.382812"/>
     <use xlink:href="#DejaVuSans-33" x="1519.005859"/>
     <use xlink:href="#DejaVuSans-37" x="1582.628906"/>
     <use xlink:href="#DejaVuSans-33" x="1646.251953"/>
    </g>
   </g>
  </g>
 </g>
 <defs>
  <clipPath id="p766300dc19">
   <rect x="57.6" y="6.912" width="303.2064" height="292.032"/>
  </clipPath>
 </defs>
</svg>
