<?xml version="1.0" encoding="utf-8" standalone="no"?>
<!DOCTYPE svg PUBLIC "-//W3C//DTD SVG 1.1//EN"
  "http://www.w3.org/Graphics/SVG/1.1/DTD/svg11.dtd">
<svg xmlns:xlink="http://www.w3.org/1999/xlink" width="460.8pt" height="345.6pt" viewBox="0 0 460.8 345.6" xmlns="http://www.w3.org/2000/svg" version="1.1">
 <metadata>
  <rdf:RDF xmlns:dc="http://purl.org/dc/elements/1.1/" xmlns:cc="http://creativecommons.org/ns#" xmlns:rdf="http://www.w3.org/1999/02/22-rdf-syntax-ns#">
   <cc:Work>
    <dc:type rdf:resource="http://purl.org/dc/dcmitype/StillImage"/>
    <dc:date>2022-06-19T21:02:33.967262</dc:date>
    <dc:format>image/svg+xml</dc:format>
    <dc:creator>
     <cc:Agent>
      <dc:title>Matplotlib v3.5.1, https://matplotlib.org/</dc:title>
     </cc:Agent>
    </dc:creator>
   </cc:Work>
  </rdf:RDF>
 </metadata>
 <defs>
  <style type="text/css">*{stroke-linejoin: round; stroke-linecap: butt}</style>
 </defs>
 <g id="figure_1">
  <g id="patch_1">
   <path d="M 0 345.6 
L 460.8 345.6 
L 460.8 0 
L 0 0 
z
" style="fill: #ffffff"/>
  </g>
  <g id="axes_1">
   <g id="patch_2">
    <path d="M 57.6 298.944 
L 360.8064 298.944 
L 360.8064 6.912 
L 57.6 6.912 
z
" style="fill: #ffffff"/>
   </g>
   <g id="line2d_1">
    <path d="M -1 296.655348 
L 1.245626 296.655348 
L 1.245626 296.472256 
L 8.873054 296.472256 
L 8.873054 296.289164 
L 14.2848 296.289164 
L 14.2848 296.106071 
L 18.482477 296.106071 
L 18.482477 295.922979 
L 21.912228 295.922979 
L 21.912228 295.648341 
L 24.812042 295.648341 
L 24.812042 295.373703 
L 27.323974 295.373703 
L 27.323974 295.190611 
L 29.539656 295.190611 
L 29.539656 295.007518 
L 33.314583 294.915972 
L 33.314583 294.641334 
L 53.402323 294.549788 
L 53.402323 294.458242 
L 58.517819 294.366696 
L 58.517819 294.27515 
L 64.262522 294.183604 
L 64.262522 294.092058 
L 70.639174 294.000512 
L 70.639174 293.817419 
L 74.456807 293.725873 
L 74.456807 293.634327 
L 88.704051 293.542781 
L 88.704051 293.451235 
L 99.751228 293.359689 
L 99.751228 293.176597 
L 104.384101 293.176597 
L 104.384101 292.993505 
L 107.244765 292.993505 
L 107.244765 292.810413 
L 109.961332 292.810413 
L 109.961332 292.62732 
L 111.117162 292.62732 
L 111.117162 292.444228 
L 114.418881 292.444228 
L 114.418881 292.261136 
L 114.624224 292.261136 
L 114.624224 292.078044 
L 114.759885 292.078044 
L 114.759885 291.894952 
L 115.183135 291.894952 
L 115.183135 291.71186 
L 115.358535 291.71186 
L 115.358535 291.528767 
L 115.51068 291.528767 
L 115.51068 291.345675 
L 118.189637 291.345675 
L 118.189637 291.162583 
L 119.194864 291.162583 
L 119.194864 290.979491 
L 119.893609 290.979491 
L 119.893609 290.796399 
L 121.361044 290.796399 
L 121.361044 290.613307 
L 121.985033 290.613307 
L 122.046309 290.247122 
L 123.174153 290.247122 
L 123.217315 289.880938 
L 123.431654 289.880938 
L 123.431654 289.697846 
L 124.346766 289.697846 
L 124.346766 289.514754 
L 124.814573 289.514754 
L 124.814573 289.331661 
L 126.420564 289.331661 
L 126.481071 288.965477 
L 128.871795 288.965477 
L 128.871795 288.782385 
L 130.077217 288.782385 
L 130.077217 288.599293 
L 131.765527 288.599293 
L 131.765527 288.416201 
L 132.56918 288.416201 
L 132.56918 288.233108 
L 133.060957 288.233108 
L 133.060957 288.050016 
L 134.184863 288.050016 
L 134.184863 287.866924 
L 135.471491 287.866924 
L 135.471491 287.683832 
L 138.271509 287.683832 
L 138.271509 287.50074 
L 138.476961 287.50074 
L 138.476961 287.317648 
L 140.312801 287.317648 
L 140.312801 287.134555 
L 140.491494 287.134555 
L 140.491494 286.951463 
L 141.365825 286.951463 
L 141.365825 286.768371 
L 142.048783 286.676825 
L 142.048783 286.493733 
L 142.487252 286.493733 
L 142.487252 286.310641 
L 142.60042 286.310641 
L 142.60042 286.127549 
L 142.718009 286.127549 
L 142.718009 285.944456 
L 143.220887 285.944456 
L 143.280339 285.578272 
L 144.873 285.578272 
L 144.873 285.39518 
L 145.121326 285.39518 
L 145.121326 285.212088 
L 145.419469 285.212088 
L 145.419469 285.028996 
L 146.320251 285.028996 
L 146.349687 284.662811 
L 146.859539 284.662811 
L 146.859539 284.479719 
L 147.427493 284.479719 
L 147.435427 284.113535 
L 147.546154 284.113535 
L 147.656232 283.74735 
L 147.699301 283.74735 
L 147.76567 283.381166 
L 147.998058 283.381166 
L 147.998058 283.014982 
L 148.124658 283.014982 
L 148.162854 282.648797 
L 148.596623 282.557251 
L 148.659905 282.282613 
L 149.136916 282.191067 
L 149.220065 281.641791 
L 149.259702 281.641791 
L 149.342312 281.367152 
L 149.456646 281.367152 
L 149.499343 281.000968 
L 149.648024 281.000968 
L 149.648024 280.817876 
L 150.166205 280.817876 
L 150.275654 280.085507 
L 150.279064 280.085507 
L 150.279064 279.810869 
L 150.489289 279.810869 
L 150.573397 279.353139 
L 150.643758 279.353139 
L 150.643758 279.0785 
L 150.760445 279.0785 
L 150.849969 278.712316 
L 151.207109 278.62077 
L 151.281611 278.346132 
L 151.895414 278.346132 
L 151.973476 277.430671 
L 152.103897 277.430671 
L 152.171854 276.789848 
L 152.27333 276.789848 
L 152.319275 276.332118 
L 152.456442 276.332118 
L 152.480723 275.965934 
L 152.595631 275.965934 
L 152.700849 275.508203 
L 152.814424 275.416657 
L 152.882835 274.958927 
L 153.142309 274.867381 
L 153.174493 274.501196 
L 153.276532 274.40965 
L 153.383803 273.860374 
L 153.401141 273.860374 
L 153.432886 273.402643 
L 153.642208 273.311097 
L 153.642208 273.219551 
L 153.868958 273.128005 
L 153.978516 272.670275 
L 154.000911 272.670275 
L 154.000911 272.487182 
L 154.173572 272.487182 
L 154.234459 272.029452 
L 154.410475 271.937906 
L 154.440563 271.663268 
L 154.660647 271.663268 
L 154.738821 271.297083 
L 154.781812 271.297083 
L 154.886195 270.656261 
L 154.915532 270.656261 
L 155.019177 269.832346 
L 155.077392 269.832346 
L 155.098517 269.374616 
L 155.22477 269.374616 
L 155.33455 268.459155 
L 155.357991 268.459155 
L 155.357991 268.276063 
L 155.523847 268.276063 
L 155.523847 268.092971 
L 155.711258 268.001424 
L 155.711258 267.726786 
L 156.025382 267.63524 
L 156.073054 267.360602 
L 156.190463 267.360602 
L 156.210374 266.811325 
L 156.386173 266.811325 
L 156.418184 266.170503 
L 156.521235 266.170503 
L 156.562785 265.712772 
L 156.643182 265.712772 
L 156.737755 265.255042 
L 156.79813 265.255042 
L 156.894328 264.614219 
L 157.227201 264.522673 
L 157.227201 264.431127 
L 157.400797 264.431127 
L 157.43579 263.973397 
L 157.517191 263.973397 
L 157.628256 263.332574 
L 157.76159 263.332574 
L 157.868948 262.50866 
L 157.893986 262.50866 
L 157.998331 262.142475 
L 158.061563 262.142475 
L 158.061563 261.867837 
L 158.180674 261.867837 
L 158.227661 261.318561 
L 158.310163 261.227014 
L 158.352388 260.86083 
L 158.447603 260.86083 
L 158.447603 260.677738 
L 158.660637 260.586192 
L 158.660637 260.4031 
L 159.118005 260.311554 
L 159.137177 260.128461 
L 159.266613 260.128461 
L 159.353112 259.670731 
L 159.424543 259.670731 
L 159.533269 259.396093 
L 159.653803 259.304547 
L 159.746791 258.75527 
L 159.970143 258.663724 
L 160.031154 258.29754 
L 160.333273 258.29754 
L 160.333273 258.114448 
L 160.534001 258.114448 
L 160.63455 257.015895 
L 160.656167 257.015895 
L 160.75802 256.466618 
L 160.808741 256.466618 
L 160.900083 255.917342 
L 160.987125 255.917342 
L 161.019902 255.459611 
L 161.17912 255.459611 
L 161.268685 254.910335 
L 161.395631 254.910335 
L 161.501081 254.54415 
L 161.596605 254.452604 
L 161.630204 254.269512 
L 162.112578 254.177966 
L 162.147083 253.62869 
L 162.324057 253.62869 
L 162.324057 253.445597 
L 162.579345 253.354051 
L 162.6625 252.530137 
L 162.901068 252.530137 
L 162.991492 251.889314 
L 163.01403 251.889314 
L 163.050381 251.52313 
L 163.146974 251.52313 
L 163.146974 251.340038 
L 163.404987 251.248492 
L 163.471055 250.882307 
L 163.625994 250.882307 
L 163.625994 250.607669 
L 163.879217 250.516123 
L 163.879217 250.333031 
L 164.102932 250.333031 
L 164.1454 249.783754 
L 164.415911 249.783754 
L 164.415911 249.600662 
L 164.623829 249.600662 
L 164.706357 249.142932 
L 164.744325 249.142932 
L 164.744325 248.868293 
L 165.039119 248.868293 
L 165.095045 248.410563 
L 165.387491 248.319017 
L 165.404283 247.952833 
L 165.50169 247.952833 
L 165.578951 246.945826 
L 165.811835 246.945826 
L 165.917556 246.396549 
L 166.03597 246.396549 
L 166.03597 246.121911 
L 166.282241 246.030365 
L 166.346211 245.664181 
L 166.470619 245.664181 
L 166.529641 245.297996 
L 166.594209 245.297996 
L 166.594209 245.114904 
L 166.71557 245.114904 
L 166.71557 244.931812 
L 167.009285 244.840266 
L 167.009285 244.74872 
L 167.183616 244.74872 
L 167.243215 244.382535 
L 167.326061 244.382535 
L 167.401684 243.924805 
L 167.467434 243.924805 
L 167.564271 243.467075 
L 167.62539 243.467075 
L 167.62539 243.192436 
L 168.17987 243.192436 
L 168.17987 242.917798 
L 168.311071 242.917798 
L 168.412777 242.276976 
L 168.577206 242.276976 
L 168.577206 242.093883 
L 168.891677 242.002337 
L 168.97516 241.544607 
L 169.230882 241.544607 
L 169.230882 241.269969 
L 169.485631 241.269969 
L 169.533474 240.903784 
L 169.822832 240.903784 
L 169.822832 240.720692 
L 170.05783 240.720692 
L 170.05783 240.446054 
L 170.186075 240.446054 
L 170.186075 240.171416 
L 170.702004 240.171416 
L 170.754894 239.805231 
L 170.977464 239.805231 
L 171.001277 238.889771 
L 171.292516 238.889771 
L 171.399331 238.340494 
L 171.847729 238.340494 
L 171.946058 237.882764 
L 172.130518 237.882764 
L 172.130518 237.608125 
L 172.506656 237.516579 
L 172.506656 237.241941 
L 172.863107 237.241941 
L 172.863107 237.058849 
L 173.043915 237.058849 
L 173.066267 236.692665 
L 173.270271 236.692665 
L 173.270271 236.509572 
L 173.52468 236.509572 
L 173.52468 236.32648 
L 173.890727 236.32648 
L 173.890727 236.143388 
L 174.109097 236.143388 
L 174.109097 235.960296 
L 174.240249 235.960296 
L 174.334457 235.594112 
L 174.59276 235.502566 
L 174.59276 235.319473 
L 174.794842 235.227927 
L 174.794842 235.136381 
L 174.958999 235.136381 
L 175.046942 234.678651 
L 175.612312 234.587105 
L 175.612312 234.404013 
L 175.773915 234.404013 
L 175.781827 234.037828 
L 176.003758 234.037828 
L 176.003758 233.76319 
L 176.613103 233.76319 
L 176.624872 233.397006 
L 177.012479 233.397006 
L 177.012479 233.213913 
L 177.169885 233.213913 
L 177.169885 233.030821 
L 177.866288 233.030821 
L 177.866288 232.847729 
L 178.741688 232.847729 
L 178.839807 232.481545 
L 178.939647 232.481545 
L 178.939647 232.298453 
L 179.244801 232.298453 
L 179.244801 232.115361 
L 179.389739 232.115361 
L 179.490318 231.566084 
L 179.671303 231.566084 
L 179.751898 231.291446 
L 180.20543 231.1999 
L 180.305899 230.742169 
L 180.38589 230.742169 
L 180.428504 230.375985 
L 181.195331 230.284439 
L 181.195331 230.101347 
L 181.494815 230.009801 
L 181.533698 229.643616 
L 182.04082 229.643616 
L 182.04082 229.368978 
L 182.165806 229.368978 
L 182.165806 229.09434 
L 182.292454 229.09434 
L 182.305507 228.819702 
L 182.760388 228.819702 
L 182.760388 228.636609 
L 183.216371 228.636609 
L 183.253039 228.270425 
L 183.688139 228.270425 
L 183.688139 227.995787 
L 183.877126 227.995787 
L 183.917663 227.721149 
L 184.970678 227.721149 
L 185.039041 227.263418 
L 185.211267 227.263418 
L 185.211267 226.98878 
L 186.038305 226.98878 
L 186.038305 226.805688 
L 187.735575 226.714142 
L 187.809918 226.256411 
L 188.349759 226.164865 
L 188.349759 225.981773 
L 189.546444 225.890227 
L 189.546444 225.615589 
L 189.855521 225.615589 
L 189.944323 225.249404 
L 190.392263 225.249404 
L 190.392263 225.066312 
L 191.155547 224.974766 
L 191.155547 224.791674 
L 191.511602 224.700128 
L 191.511602 224.517036 
L 191.724456 224.42549 
L 191.724456 224.242397 
L 192.604396 224.150851 
L 192.708334 223.693121 
L 193.509854 223.693121 
L 193.535525 223.235391 
L 193.675921 223.235391 
L 193.675921 222.960752 
L 193.816287 222.960752 
L 193.816287 222.77766 
L 194.252293 222.686114 
L 194.263814 222.228384 
L 195.020666 222.228384 
L 195.020666 222.045292 
L 195.672372 221.953745 
L 195.672372 221.679107 
L 196.134094 221.679107 
L 196.170998 221.404469 
L 196.389743 221.404469 
L 196.418816 221.038285 
L 196.573406 221.038285 
L 196.630362 220.763646 
L 197.479899 220.763646 
L 197.479899 220.580554 
L 197.688135 220.580554 
L 197.688135 220.397462 
L 197.827233 220.397462 
L 197.827233 220.122824 
L 198.051061 220.122824 
L 198.153826 219.848186 
L 198.824334 219.848186 
L 198.824334 219.665093 
L 199.389757 219.573547 
L 199.432306 219.390455 
L 199.933569 219.390455 
L 199.940627 219.115817 
L 200.286135 219.115817 
L 200.286135 218.841179 
L 200.434625 218.841179 
L 200.434625 218.56654 
L 200.864852 218.56654 
L 200.864852 218.291902 
L 202.24341 218.200356 
L 202.24341 218.10881 
L 202.549643 218.017264 
L 202.561925 217.65108 
L 203.714492 217.65108 
L 203.714492 217.467987 
L 203.876461 217.467987 
L 203.876461 217.284895 
L 204.260788 217.284895 
L 204.331827 216.918711 
L 206.780504 216.827165 
L 206.780504 216.552527 
L 207.290151 216.552527 
L 207.290151 216.369434 
L 207.439868 216.369434 
L 207.439868 216.186342 
L 209.80945 216.094796 
L 209.80945 215.820158 
L 212.595074 215.820158 
L 212.595074 215.637066 
L 212.774035 215.637066 
L 212.774035 215.453974 
L 215.244007 215.362428 
L 215.244007 215.087789 
L 216.430752 214.996243 
L 216.430752 214.904697 
L 216.749386 214.904697 
L 216.749386 214.630059 
L 216.892032 214.630059 
L 216.892032 214.355421 
L 217.725819 214.355421 
L 217.725819 214.172329 
L 220.888281 214.172329 
L 220.888281 213.989236 
L 221.435299 213.989236 
L 221.435299 213.806144 
L 222.102191 213.806144 
L 222.102191 213.623052 
L 225.115022 213.623052 
L 225.115022 213.43996 
L 225.670164 213.348414 
L 225.670164 213.256868 
L 225.95548 213.256868 
L 225.95548 212.982229 
L 227.755037 212.982229 
L 227.755037 212.707591 
L 228.248793 212.707591 
L 228.248793 212.524499 
L 229.70323 212.432953 
L 229.70323 212.249861 
L 229.936937 212.249861 
L 229.936937 211.975223 
L 230.066697 211.975223 
L 230.066697 211.700584 
L 230.6838 211.700584 
L 230.6838 211.517492 
L 233.172385 211.425946 
L 233.250704 210.968216 
L 233.294845 210.968216 
L 233.300174 210.510485 
L 233.506535 210.510485 
L 233.506535 210.327393 
L 233.743971 210.235847 
L 233.743971 210.144301 
L 233.875283 210.144301 
L 233.979006 209.869663 
L 234.288866 209.869663 
L 234.288866 209.686571 
L 234.874088 209.686571 
L 234.874088 209.411932 
L 235.165735 209.411932 
L 235.256085 209.137294 
L 235.302899 209.137294 
L 235.302899 208.862656 
L 236.207062 208.77111 
L 236.207062 208.679564 
L 237.033476 208.679564 
L 237.033476 208.496471 
L 238.139989 208.404925 
L 238.139989 208.313379 
L 238.568476 208.221833 
L 238.616772 207.764103 
L 239.259795 207.764103 
L 239.317034 207.489465 
L 242.503074 207.489465 
L 242.589972 207.031734 
L 242.698893 207.031734 
L 242.765647 206.482458 
L 243.158069 206.482458 
L 243.158069 206.207819 
L 243.842464 206.207819 
L 243.842464 205.933181 
L 245.745079 205.933181 
L 245.745079 205.750089 
L 248.253217 205.658543 
L 248.346437 204.743082 
L 248.462459 204.651536 
L 248.462459 204.376898 
L 248.672008 204.376898 
L 248.672008 204.193806 
L 248.912405 204.193806 
L 248.957782 203.644529 
L 249.110024 203.552983 
L 249.161986 202.729068 
L 249.55871 202.637522 
L 249.55871 202.45443 
L 249.675229 202.45443 
L 249.675229 202.179792 
L 251.128457 202.088246 
L 251.128457 201.813608 
L 251.691474 201.813608 
L 251.691474 201.538969 
L 252.8257 201.447423 
L 252.8257 201.172785 
L 253.249945 201.172785 
L 253.249945 200.989693 
L 255.614103 200.898147 
L 255.614103 200.623508 
L 255.975963 200.623508 
L 255.975963 200.34887 
L 257.241975 200.257324 
L 257.286499 199.799594 
L 257.955002 199.708048 
L 257.955002 199.524955 
L 258.341466 199.433409 
L 258.404446 198.701041 
L 258.491396 198.701041 
L 258.593844 198.24331 
L 259.072654 198.151764 
L 259.072654 198.060218 
L 259.37935 197.968672 
L 259.37935 197.78558 
L 259.55309 197.78558 
L 259.55309 197.510942 
L 259.962184 197.510942 
L 259.962184 197.32785 
L 260.209169 197.236303 
L 260.301125 196.778573 
L 260.494595 196.778573 
L 260.562027 196.229297 
L 261.076334 196.13775 
L 261.177753 195.771566 
L 261.661579 195.68002 
L 261.661579 195.405382 
L 261.824911 195.405382 
L 261.824911 195.130744 
L 262.308607 195.039197 
L 262.308607 194.947651 
L 262.62222 194.947651 
L 262.62222 194.764559 
L 264.502469 194.673013 
L 264.502469 194.398375 
L 265.658365 194.306829 
L 265.658365 194.123737 
L 266.625176 194.123737 
L 266.67762 192.933638 
L 267.355128 192.933638 
L 267.412169 192.567453 
L 267.486307 192.567453 
L 267.486307 192.384361 
L 267.624327 192.384361 
L 267.684006 191.926631 
L 268.642577 191.835085 
L 268.642577 191.651992 
L 270.421689 191.560446 
L 270.421689 191.377354 
L 270.533857 191.377354 
L 270.533857 191.102716 
L 271.018494 191.01117 
L 271.018494 190.736532 
L 271.652911 190.644986 
L 271.652911 190.553439 
L 272.537879 190.553439 
L 272.537879 190.278801 
L 272.716193 190.278801 
L 272.716193 190.095709 
L 273.178432 190.095709 
L 273.178432 189.912617 
L 274.23649 189.821071 
L 274.347245 188.539426 
L 274.386295 188.539426 
L 274.386295 188.356334 
L 274.834019 188.356334 
L 274.841915 187.898603 
L 275.129777 187.898603 
L 275.194959 187.532419 
L 275.605001 187.440873 
L 275.605001 187.257781 
L 275.955533 187.257781 
L 275.986312 186.80005 
L 276.129482 186.80005 
L 276.168749 186.433866 
L 276.387664 186.433866 
L 276.489452 185.884589 
L 277.214467 185.793043 
L 277.277643 185.243767 
L 277.477282 185.243767 
L 277.510024 184.69449 
L 277.839562 184.69449 
L 277.839562 184.419852 
L 278.409343 184.419852 
L 278.409343 184.145214 
L 278.580155 184.053668 
L 278.641173 183.595937 
L 278.873354 183.595937 
L 278.873354 183.412845 
L 280.193108 183.321299 
L 280.193108 183.046661 
L 280.484669 183.046661 
L 280.484669 182.863569 
L 280.677184 182.863569 
L 280.677184 182.680476 
L 281.471181 182.58893 
L 281.471181 182.497384 
L 281.844039 182.497384 
L 281.918865 180.300278 
L 281.979334 180.300278 
L 282.020005 179.751002 
L 282.090915 179.751002 
L 282.175122 178.927087 
L 282.39491 178.927087 
L 282.465594 178.286265 
L 282.553792 178.286265 
L 282.553792 178.103172 
L 282.716525 178.103172 
L 282.716525 177.92008 
L 283.221106 177.828534 
L 283.221106 177.645442 
L 283.562338 177.645442 
L 283.562338 177.370804 
L 283.884288 177.370804 
L 283.884288 177.096166 
L 284.15414 177.004619 
L 284.178247 176.638435 
L 284.69467 176.546889 
L 284.69467 176.272251 
L 284.846184 176.272251 
L 284.846184 176.089159 
L 285.307448 176.089159 
L 285.307448 175.81452 
L 285.523078 175.81452 
L 285.523078 175.631428 
L 286.013125 175.631428 
L 286.113946 174.990606 
L 286.447171 174.89906 
L 286.447171 174.807513 
L 286.681846 174.807513 
L 286.681846 174.624421 
L 286.91594 174.624421 
L 286.91594 174.349783 
L 288.200401 174.349783 
L 288.200401 174.166691 
L 288.59885 174.075145 
L 288.647551 173.708961 
L 290.146818 173.617414 
L 290.217557 171.694947 
L 290.263522 171.694947 
L 290.356843 171.420308 
L 290.419069 171.420308 
L 290.47484 170.68794 
L 290.668946 170.596394 
L 290.68126 170.321755 
L 290.90951 170.321755 
L 290.90951 170.138663 
L 291.223857 170.138663 
L 291.243686 169.314749 
L 291.459264 169.314749 
L 291.485835 168.948564 
L 291.728461 168.948564 
L 291.728461 168.673926 
L 291.957204 168.673926 
L 292.028646 167.575373 
L 292.458001 167.575373 
L 292.483485 167.117643 
L 292.580406 167.117643 
L 292.670944 166.659912 
L 293.028113 166.659912 
L 293.028113 166.385274 
L 293.185538 166.385274 
L 293.185538 166.110636 
L 293.32594 166.110636 
L 293.32594 165.835997 
L 294.567477 165.744451 
L 294.632267 165.286721 
L 295.269632 165.195175 
L 295.269632 164.920537 
L 300.287729 164.828991 
L 300.351397 163.91353 
L 300.398937 163.91353 
L 300.467428 163.089615 
L 300.556841 163.089615 
L 300.641384 162.723431 
L 300.692535 162.723431 
L 300.74208 162.448792 
L 300.816445 162.448792 
L 300.836671 161.991062 
L 301.031073 161.899516 
L 301.09685 161.441786 
L 301.154908 161.441786 
L 301.262619 160.800963 
L 301.379811 160.709417 
L 301.432364 160.251687 
L 301.558562 160.16014 
L 301.558562 160.068594 
L 301.750876 159.977048 
L 301.750876 159.885502 
L 302.073647 159.885502 
L 302.073647 159.70241 
L 302.535281 159.70241 
L 302.535281 159.427772 
L 303.199189 159.336226 
L 303.22013 158.786949 
L 303.351112 158.786949 
L 303.444503 158.512311 
L 303.558613 158.420765 
L 303.664003 158.054581 
L 303.801693 158.054581 
L 303.801693 157.779942 
L 303.962392 157.779942 
L 303.97078 157.230666 
L 304.084213 157.230666 
L 304.175544 156.589843 
L 304.337726 156.498297 
L 304.369405 156.040567 
L 315.550935 155.949021 
L 315.595923 155.125106 
L 315.747241 155.03356 
L 315.858189 154.392737 
L 315.901523 154.392737 
L 315.998495 153.660369 
L 316.092957 153.660369 
L 316.177121 152.928 
L 316.212452 152.928 
L 316.257272 152.104085 
L 316.341095 152.104085 
L 316.435526 151.188624 
L 316.554044 151.188624 
L 316.59002 150.181618 
L 316.736008 150.181618 
L 316.791604 149.083065 
L 316.916431 149.083065 
L 317.021684 147.801419 
L 317.046192 147.801419 
L 317.138635 146.794413 
L 317.176337 146.794413 
L 317.286526 145.970498 
L 317.329414 145.970498 
L 317.419548 144.688853 
L 317.444881 144.688853 
L 317.483841 143.5903 
L 360.8064 143.5903 
L 360.8064 143.5903 
" style="fill: none; stroke: #f5deb3; stroke-width: 4; stroke-linecap: square"/>
   </g>
   <g id="line2d_2">
    <defs>
     <path id="m38862a9b28" d="M 0 7.778175 
L 7.778175 0 
L 0 -7.778175 
L -7.778175 0 
z
" style="stroke: #f5deb3; stroke-width: 1.5; stroke-linejoin: miter"/>
    </defs>
    <g>
     <use xlink:href="#m38862a9b28" x="155.019177" y="269.923892" style="fill: #f5deb3; stroke: #f5deb3; stroke-width: 1.5; stroke-linejoin: miter"/>
     <use xlink:href="#m38862a9b28" x="217.725819" y="214.172329" style="fill: #f5deb3; stroke: #f5deb3; stroke-width: 1.5; stroke-linejoin: miter"/>
     <use xlink:href="#m38862a9b28" x="296.066765" y="164.828991" style="fill: #f5deb3; stroke: #f5deb3; stroke-width: 1.5; stroke-linejoin: miter"/>
     <use xlink:href="#m38862a9b28" x="317.483841" y="143.5903" style="fill: #f5deb3; stroke: #f5deb3; stroke-width: 1.5; stroke-linejoin: miter"/>
     <use xlink:href="#m38862a9b28" x="360.8064" y="143.5903" style="fill: #f5deb3; stroke: #f5deb3; stroke-width: 1.5; stroke-linejoin: miter"/>
    </g>
   </g>
   <g id="line2d_3">
    <path style="fill: none; stroke: #f5deb3; stroke-width: 4; stroke-linecap: square"/>
    <g/>
   </g>
   <g id="line2d_4">
    <path d="M 360.8064 143.5903 
L 380.514816 12.75264 
" style="fill: none; stroke: #f5deb3; stroke-width: 4; stroke-linecap: square"/>
    <g>
     <use xlink:href="#m38862a9b28" x="360.8064" y="143.5903" style="fill: #f5deb3; stroke: #f5deb3; stroke-width: 1.5; stroke-linejoin: miter"/>
     <use xlink:href="#m38862a9b28" x="380.514816" y="12.75264" style="fill: #f5deb3; stroke: #f5deb3; stroke-width: 1.5; stroke-linejoin: miter"/>
    </g>
   </g>
   <g id="matplotlib.axis_1">
    <g id="xtick_1">
     <g id="line2d_5">
      <path d="M 57.6 298.944 
L 57.6 6.912 
" clip-path="url(#pb47c608d8d)" style="fill: none; stroke: #b0b0b0; stroke-width: 0.8; stroke-linecap: square"/>
     </g>
     <g id="line2d_6">
      <defs>
       <path id="m085e965842" d="M 0 0 
L 0 3.5 
" style="stroke: #000000; stroke-width: 0.8"/>
      </defs>
      <g>
       <use xlink:href="#m085e965842" x="57.6" y="298.944" style="stroke: #000000; stroke-width: 0.8"/>
      </g>
     </g>
     <g id="text_1">
      <!-- 0 -->
      <g transform="translate(52.191875 318.861344)scale(0.17 -0.17)">
       <defs>
        <path id="DejaVuSans-30" d="M 2034 4250 
Q 1547 4250 1301 3770 
Q 1056 3291 1056 2328 
Q 1056 1369 1301 889 
Q 1547 409 2034 409 
Q 2525 409 2770 889 
Q 3016 1369 3016 2328 
Q 3016 3291 2770 3770 
Q 2525 4250 2034 4250 
z
M 2034 4750 
Q 2819 4750 3233 4129 
Q 3647 3509 3647 2328 
Q 3647 1150 3233 529 
Q 2819 -91 2034 -91 
Q 1250 -91 836 529 
Q 422 1150 422 2328 
Q 422 3509 836 4129 
Q 1250 4750 2034 4750 
z
" transform="scale(0.015625)"/>
       </defs>
       <use xlink:href="#DejaVuSans-30"/>
      </g>
     </g>
    </g>
    <g id="xtick_2">
     <g id="line2d_7">
      <path d="M 144.2304 298.944 
L 144.2304 6.912 
" clip-path="url(#pb47c608d8d)" style="fill: none; stroke: #b0b0b0; stroke-width: 0.8; stroke-linecap: square"/>
     </g>
     <g id="line2d_8">
      <g>
       <use xlink:href="#m085e965842" x="144.2304" y="298.944" style="stroke: #000000; stroke-width: 0.8"/>
      </g>
     </g>
     <g id="text_2">
      <!-- 2 -->
      <g transform="translate(138.822275 318.861344)scale(0.17 -0.17)">
       <defs>
        <path id="DejaVuSans-32" d="M 1228 531 
L 3431 531 
L 3431 0 
L 469 0 
L 469 531 
Q 828 903 1448 1529 
Q 2069 2156 2228 2338 
Q 2531 2678 2651 2914 
Q 2772 3150 2772 3378 
Q 2772 3750 2511 3984 
Q 2250 4219 1831 4219 
Q 1534 4219 1204 4116 
Q 875 4013 500 3803 
L 500 4441 
Q 881 4594 1212 4672 
Q 1544 4750 1819 4750 
Q 2544 4750 2975 4387 
Q 3406 4025 3406 3419 
Q 3406 3131 3298 2873 
Q 3191 2616 2906 2266 
Q 2828 2175 2409 1742 
Q 1991 1309 1228 531 
z
" transform="scale(0.015625)"/>
       </defs>
       <use xlink:href="#DejaVuSans-32"/>
      </g>
     </g>
    </g>
    <g id="xtick_3">
     <g id="line2d_9">
      <path d="M 230.8608 298.944 
L 230.8608 6.912 
" clip-path="url(#pb47c608d8d)" style="fill: none; stroke: #b0b0b0; stroke-width: 0.8; stroke-linecap: square"/>
     </g>
     <g id="line2d_10">
      <g>
       <use xlink:href="#m085e965842" x="230.8608" y="298.944" style="stroke: #000000; stroke-width: 0.8"/>
      </g>
     </g>
     <g id="text_3">
      <!-- 4 -->
      <g transform="translate(225.452675 318.861344)scale(0.17 -0.17)">
       <defs>
        <path id="DejaVuSans-34" d="M 2419 4116 
L 825 1625 
L 2419 1625 
L 2419 4116 
z
M 2253 4666 
L 3047 4666 
L 3047 1625 
L 3713 1625 
L 3713 1100 
L 3047 1100 
L 3047 0 
L 2419 0 
L 2419 1100 
L 313 1100 
L 313 1709 
L 2253 4666 
z
" transform="scale(0.015625)"/>
       </defs>
       <use xlink:href="#DejaVuSans-34"/>
      </g>
     </g>
    </g>
    <g id="xtick_4">
     <g id="line2d_11">
      <path d="M 317.4912 298.944 
L 317.4912 6.912 
" clip-path="url(#pb47c608d8d)" style="fill: none; stroke: #b0b0b0; stroke-width: 0.8; stroke-linecap: square"/>
     </g>
     <g id="line2d_12">
      <g>
       <use xlink:href="#m085e965842" x="317.4912" y="298.944" style="stroke: #000000; stroke-width: 0.8"/>
      </g>
     </g>
     <g id="text_4">
      <!-- 6 -->
      <g transform="translate(312.083075 318.861344)scale(0.17 -0.17)">
       <defs>
        <path id="DejaVuSans-36" d="M 2113 2584 
Q 1688 2584 1439 2293 
Q 1191 2003 1191 1497 
Q 1191 994 1439 701 
Q 1688 409 2113 409 
Q 2538 409 2786 701 
Q 3034 994 3034 1497 
Q 3034 2003 2786 2293 
Q 2538 2584 2113 2584 
z
M 3366 4563 
L 3366 3988 
Q 3128 4100 2886 4159 
Q 2644 4219 2406 4219 
Q 1781 4219 1451 3797 
Q 1122 3375 1075 2522 
Q 1259 2794 1537 2939 
Q 1816 3084 2150 3084 
Q 2853 3084 3261 2657 
Q 3669 2231 3669 1497 
Q 3669 778 3244 343 
Q 2819 -91 2113 -91 
Q 1303 -91 875 529 
Q 447 1150 447 2328 
Q 447 3434 972 4092 
Q 1497 4750 2381 4750 
Q 2619 4750 2861 4703 
Q 3103 4656 3366 4563 
z
" transform="scale(0.015625)"/>
       </defs>
       <use xlink:href="#DejaVuSans-36"/>
      </g>
     </g>
    </g>
    <g id="xtick_5">
     <g id="line2d_13">
      <path d="M 100.9152 298.944 
L 100.9152 6.912 
" clip-path="url(#pb47c608d8d)" style="fill: none; stroke: #b0b0b0; stroke-width: 0.8; stroke-linecap: square"/>
     </g>
     <g id="line2d_14">
      <defs>
       <path id="m59c145d563" d="M 0 0 
L 0 2 
" style="stroke: #000000; stroke-width: 0.6"/>
      </defs>
      <g>
       <use xlink:href="#m59c145d563" x="100.9152" y="298.944" style="stroke: #000000; stroke-width: 0.6"/>
      </g>
     </g>
    </g>
    <g id="xtick_6">
     <g id="line2d_15">
      <path d="M 187.5456 298.944 
L 187.5456 6.912 
" clip-path="url(#pb47c608d8d)" style="fill: none; stroke: #b0b0b0; stroke-width: 0.8; stroke-linecap: square"/>
     </g>
     <g id="line2d_16">
      <g>
       <use xlink:href="#m59c145d563" x="187.5456" y="298.944" style="stroke: #000000; stroke-width: 0.6"/>
      </g>
     </g>
    </g>
    <g id="xtick_7">
     <g id="line2d_17">
      <path d="M 274.176 298.944 
L 274.176 6.912 
" clip-path="url(#pb47c608d8d)" style="fill: none; stroke: #b0b0b0; stroke-width: 0.8; stroke-linecap: square"/>
     </g>
     <g id="line2d_18">
      <g>
       <use xlink:href="#m59c145d563" x="274.176" y="298.944" style="stroke: #000000; stroke-width: 0.6"/>
      </g>
     </g>
    </g>
    <g id="xtick_8">
     <g id="line2d_19">
      <path d="M 360.8064 298.944 
L 360.8064 6.912 
" clip-path="url(#pb47c608d8d)" style="fill: none; stroke: #b0b0b0; stroke-width: 0.8; stroke-linecap: square"/>
     </g>
     <g id="line2d_20">
      <g>
       <use xlink:href="#m59c145d563" x="360.8064" y="298.944" style="stroke: #000000; stroke-width: 0.6"/>
      </g>
     </g>
    </g>
    <g id="text_5">
     <!-- log10(# f-evals / dimension) -->
     <g transform="translate(88.823278 339.314156)scale(0.17 -0.17)">
      <defs>
       <path id="DejaVuSans-6c" d="M 603 4863 
L 1178 4863 
L 1178 0 
L 603 0 
L 603 4863 
z
" transform="scale(0.015625)"/>
       <path id="DejaVuSans-6f" d="M 1959 3097 
Q 1497 3097 1228 2736 
Q 959 2375 959 1747 
Q 959 1119 1226 758 
Q 1494 397 1959 397 
Q 2419 397 2687 759 
Q 2956 1122 2956 1747 
Q 2956 2369 2687 2733 
Q 2419 3097 1959 3097 
z
M 1959 3584 
Q 2709 3584 3137 3096 
Q 3566 2609 3566 1747 
Q 3566 888 3137 398 
Q 2709 -91 1959 -91 
Q 1206 -91 779 398 
Q 353 888 353 1747 
Q 353 2609 779 3096 
Q 1206 3584 1959 3584 
z
" transform="scale(0.015625)"/>
       <path id="DejaVuSans-67" d="M 2906 1791 
Q 2906 2416 2648 2759 
Q 2391 3103 1925 3103 
Q 1463 3103 1205 2759 
Q 947 2416 947 1791 
Q 947 1169 1205 825 
Q 1463 481 1925 481 
Q 2391 481 2648 825 
Q 2906 1169 2906 1791 
z
M 3481 434 
Q 3481 -459 3084 -895 
Q 2688 -1331 1869 -1331 
Q 1566 -1331 1297 -1286 
Q 1028 -1241 775 -1147 
L 775 -588 
Q 1028 -725 1275 -790 
Q 1522 -856 1778 -856 
Q 2344 -856 2625 -561 
Q 2906 -266 2906 331 
L 2906 616 
Q 2728 306 2450 153 
Q 2172 0 1784 0 
Q 1141 0 747 490 
Q 353 981 353 1791 
Q 353 2603 747 3093 
Q 1141 3584 1784 3584 
Q 2172 3584 2450 3431 
Q 2728 3278 2906 2969 
L 2906 3500 
L 3481 3500 
L 3481 434 
z
" transform="scale(0.015625)"/>
       <path id="DejaVuSans-31" d="M 794 531 
L 1825 531 
L 1825 4091 
L 703 3866 
L 703 4441 
L 1819 4666 
L 2450 4666 
L 2450 531 
L 3481 531 
L 3481 0 
L 794 0 
L 794 531 
z
" transform="scale(0.015625)"/>
       <path id="DejaVuSans-28" d="M 1984 4856 
Q 1566 4138 1362 3434 
Q 1159 2731 1159 2009 
Q 1159 1288 1364 580 
Q 1569 -128 1984 -844 
L 1484 -844 
Q 1016 -109 783 600 
Q 550 1309 550 2009 
Q 550 2706 781 3412 
Q 1013 4119 1484 4856 
L 1984 4856 
z
" transform="scale(0.015625)"/>
       <path id="DejaVuSans-23" d="M 3272 2816 
L 2363 2816 
L 2100 1772 
L 3016 1772 
L 3272 2816 
z
M 2803 4594 
L 2478 3297 
L 3391 3297 
L 3719 4594 
L 4219 4594 
L 3897 3297 
L 4872 3297 
L 4872 2816 
L 3775 2816 
L 3519 1772 
L 4513 1772 
L 4513 1294 
L 3397 1294 
L 3072 0 
L 2572 0 
L 2894 1294 
L 1978 1294 
L 1656 0 
L 1153 0 
L 1478 1294 
L 494 1294 
L 494 1772 
L 1594 1772 
L 1856 2816 
L 850 2816 
L 850 3297 
L 1978 3297 
L 2297 4594 
L 2803 4594 
z
" transform="scale(0.015625)"/>
       <path id="DejaVuSans-20" transform="scale(0.015625)"/>
       <path id="DejaVuSans-66" d="M 2375 4863 
L 2375 4384 
L 1825 4384 
Q 1516 4384 1395 4259 
Q 1275 4134 1275 3809 
L 1275 3500 
L 2222 3500 
L 2222 3053 
L 1275 3053 
L 1275 0 
L 697 0 
L 697 3053 
L 147 3053 
L 147 3500 
L 697 3500 
L 697 3744 
Q 697 4328 969 4595 
Q 1241 4863 1831 4863 
L 2375 4863 
z
" transform="scale(0.015625)"/>
       <path id="DejaVuSans-2d" d="M 313 2009 
L 1997 2009 
L 1997 1497 
L 313 1497 
L 313 2009 
z
" transform="scale(0.015625)"/>
       <path id="DejaVuSans-65" d="M 3597 1894 
L 3597 1613 
L 953 1613 
Q 991 1019 1311 708 
Q 1631 397 2203 397 
Q 2534 397 2845 478 
Q 3156 559 3463 722 
L 3463 178 
Q 3153 47 2828 -22 
Q 2503 -91 2169 -91 
Q 1331 -91 842 396 
Q 353 884 353 1716 
Q 353 2575 817 3079 
Q 1281 3584 2069 3584 
Q 2775 3584 3186 3129 
Q 3597 2675 3597 1894 
z
M 3022 2063 
Q 3016 2534 2758 2815 
Q 2500 3097 2075 3097 
Q 1594 3097 1305 2825 
Q 1016 2553 972 2059 
L 3022 2063 
z
" transform="scale(0.015625)"/>
       <path id="DejaVuSans-76" d="M 191 3500 
L 800 3500 
L 1894 563 
L 2988 3500 
L 3597 3500 
L 2284 0 
L 1503 0 
L 191 3500 
z
" transform="scale(0.015625)"/>
       <path id="DejaVuSans-61" d="M 2194 1759 
Q 1497 1759 1228 1600 
Q 959 1441 959 1056 
Q 959 750 1161 570 
Q 1363 391 1709 391 
Q 2188 391 2477 730 
Q 2766 1069 2766 1631 
L 2766 1759 
L 2194 1759 
z
M 3341 1997 
L 3341 0 
L 2766 0 
L 2766 531 
Q 2569 213 2275 61 
Q 1981 -91 1556 -91 
Q 1019 -91 701 211 
Q 384 513 384 1019 
Q 384 1609 779 1909 
Q 1175 2209 1959 2209 
L 2766 2209 
L 2766 2266 
Q 2766 2663 2505 2880 
Q 2244 3097 1772 3097 
Q 1472 3097 1187 3025 
Q 903 2953 641 2809 
L 641 3341 
Q 956 3463 1253 3523 
Q 1550 3584 1831 3584 
Q 2591 3584 2966 3190 
Q 3341 2797 3341 1997 
z
" transform="scale(0.015625)"/>
       <path id="DejaVuSans-73" d="M 2834 3397 
L 2834 2853 
Q 2591 2978 2328 3040 
Q 2066 3103 1784 3103 
Q 1356 3103 1142 2972 
Q 928 2841 928 2578 
Q 928 2378 1081 2264 
Q 1234 2150 1697 2047 
L 1894 2003 
Q 2506 1872 2764 1633 
Q 3022 1394 3022 966 
Q 3022 478 2636 193 
Q 2250 -91 1575 -91 
Q 1294 -91 989 -36 
Q 684 19 347 128 
L 347 722 
Q 666 556 975 473 
Q 1284 391 1588 391 
Q 1994 391 2212 530 
Q 2431 669 2431 922 
Q 2431 1156 2273 1281 
Q 2116 1406 1581 1522 
L 1381 1569 
Q 847 1681 609 1914 
Q 372 2147 372 2553 
Q 372 3047 722 3315 
Q 1072 3584 1716 3584 
Q 2034 3584 2315 3537 
Q 2597 3491 2834 3397 
z
" transform="scale(0.015625)"/>
       <path id="DejaVuSans-2f" d="M 1625 4666 
L 2156 4666 
L 531 -594 
L 0 -594 
L 1625 4666 
z
" transform="scale(0.015625)"/>
       <path id="DejaVuSans-64" d="M 2906 2969 
L 2906 4863 
L 3481 4863 
L 3481 0 
L 2906 0 
L 2906 525 
Q 2725 213 2448 61 
Q 2172 -91 1784 -91 
Q 1150 -91 751 415 
Q 353 922 353 1747 
Q 353 2572 751 3078 
Q 1150 3584 1784 3584 
Q 2172 3584 2448 3432 
Q 2725 3281 2906 2969 
z
M 947 1747 
Q 947 1113 1208 752 
Q 1469 391 1925 391 
Q 2381 391 2643 752 
Q 2906 1113 2906 1747 
Q 2906 2381 2643 2742 
Q 2381 3103 1925 3103 
Q 1469 3103 1208 2742 
Q 947 2381 947 1747 
z
" transform="scale(0.015625)"/>
       <path id="DejaVuSans-69" d="M 603 3500 
L 1178 3500 
L 1178 0 
L 603 0 
L 603 3500 
z
M 603 4863 
L 1178 4863 
L 1178 4134 
L 603 4134 
L 603 4863 
z
" transform="scale(0.015625)"/>
       <path id="DejaVuSans-6d" d="M 3328 2828 
Q 3544 3216 3844 3400 
Q 4144 3584 4550 3584 
Q 5097 3584 5394 3201 
Q 5691 2819 5691 2113 
L 5691 0 
L 5113 0 
L 5113 2094 
Q 5113 2597 4934 2840 
Q 4756 3084 4391 3084 
Q 3944 3084 3684 2787 
Q 3425 2491 3425 1978 
L 3425 0 
L 2847 0 
L 2847 2094 
Q 2847 2600 2669 2842 
Q 2491 3084 2119 3084 
Q 1678 3084 1418 2786 
Q 1159 2488 1159 1978 
L 1159 0 
L 581 0 
L 581 3500 
L 1159 3500 
L 1159 2956 
Q 1356 3278 1631 3431 
Q 1906 3584 2284 3584 
Q 2666 3584 2933 3390 
Q 3200 3197 3328 2828 
z
" transform="scale(0.015625)"/>
       <path id="DejaVuSans-6e" d="M 3513 2113 
L 3513 0 
L 2938 0 
L 2938 2094 
Q 2938 2591 2744 2837 
Q 2550 3084 2163 3084 
Q 1697 3084 1428 2787 
Q 1159 2491 1159 1978 
L 1159 0 
L 581 0 
L 581 3500 
L 1159 3500 
L 1159 2956 
Q 1366 3272 1645 3428 
Q 1925 3584 2291 3584 
Q 2894 3584 3203 3211 
Q 3513 2838 3513 2113 
z
" transform="scale(0.015625)"/>
       <path id="DejaVuSans-29" d="M 513 4856 
L 1013 4856 
Q 1481 4119 1714 3412 
Q 1947 2706 1947 2009 
Q 1947 1309 1714 600 
Q 1481 -109 1013 -844 
L 513 -844 
Q 928 -128 1133 580 
Q 1338 1288 1338 2009 
Q 1338 2731 1133 3434 
Q 928 4138 513 4856 
z
" transform="scale(0.015625)"/>
      </defs>
      <use xlink:href="#DejaVuSans-6c"/>
      <use xlink:href="#DejaVuSans-6f" x="27.783203"/>
      <use xlink:href="#DejaVuSans-67" x="88.964844"/>
      <use xlink:href="#DejaVuSans-31" x="152.441406"/>
      <use xlink:href="#DejaVuSans-30" x="216.064453"/>
      <use xlink:href="#DejaVuSans-28" x="279.6875"/>
      <use xlink:href="#DejaVuSans-23" x="318.701172"/>
      <use xlink:href="#DejaVuSans-20" x="402.490234"/>
      <use xlink:href="#DejaVuSans-66" x="434.277344"/>
      <use xlink:href="#DejaVuSans-2d" x="463.982422"/>
      <use xlink:href="#DejaVuSans-65" x="500.066406"/>
      <use xlink:href="#DejaVuSans-76" x="561.589844"/>
      <use xlink:href="#DejaVuSans-61" x="620.769531"/>
      <use xlink:href="#DejaVuSans-6c" x="682.048828"/>
      <use xlink:href="#DejaVuSans-73" x="709.832031"/>
      <use xlink:href="#DejaVuSans-20" x="761.931641"/>
      <use xlink:href="#DejaVuSans-2f" x="793.71875"/>
      <use xlink:href="#DejaVuSans-20" x="827.410156"/>
      <use xlink:href="#DejaVuSans-64" x="859.197266"/>
      <use xlink:href="#DejaVuSans-69" x="922.673828"/>
      <use xlink:href="#DejaVuSans-6d" x="950.457031"/>
      <use xlink:href="#DejaVuSans-65" x="1047.869141"/>
      <use xlink:href="#DejaVuSans-6e" x="1109.392578"/>
      <use xlink:href="#DejaVuSans-73" x="1172.771484"/>
      <use xlink:href="#DejaVuSans-69" x="1224.871094"/>
      <use xlink:href="#DejaVuSans-6f" x="1252.654297"/>
      <use xlink:href="#DejaVuSans-6e" x="1313.835938"/>
      <use xlink:href="#DejaVuSans-29" x="1377.214844"/>
     </g>
    </g>
   </g>
   <g id="matplotlib.axis_2">
    <g id="ytick_1">
     <g id="line2d_21">
      <path d="M 57.6 298.944 
L 360.8064 298.944 
" clip-path="url(#pb47c608d8d)" style="fill: none; stroke: #b0b0b0; stroke-width: 0.8; stroke-linecap: square"/>
     </g>
     <g id="line2d_22">
      <defs>
       <path id="mc5c8f7bde4" d="M 0 0 
L -3.5 0 
" style="stroke: #000000; stroke-width: 0.8"/>
      </defs>
      <g>
       <use xlink:href="#mc5c8f7bde4" x="57.6" y="298.944" style="stroke: #000000; stroke-width: 0.8"/>
      </g>
     </g>
     <g id="text_6">
      <!-- 0.0 -->
      <g transform="translate(25.155 305.02275)scale(0.16 -0.16)">
       <defs>
        <path id="DejaVuSans-2e" d="M 684 794 
L 1344 794 
L 1344 0 
L 684 0 
L 684 794 
z
" transform="scale(0.015625)"/>
       </defs>
       <use xlink:href="#DejaVuSans-30"/>
       <use xlink:href="#DejaVuSans-2e" x="63.623047"/>
       <use xlink:href="#DejaVuSans-30" x="95.410156"/>
      </g>
     </g>
    </g>
    <g id="ytick_2">
     <g id="line2d_23">
      <path d="M 57.6 240.5376 
L 360.8064 240.5376 
" clip-path="url(#pb47c608d8d)" style="fill: none; stroke: #b0b0b0; stroke-width: 0.8; stroke-linecap: square"/>
     </g>
     <g id="line2d_24">
      <g>
       <use xlink:href="#mc5c8f7bde4" x="57.6" y="240.5376" style="stroke: #000000; stroke-width: 0.8"/>
      </g>
     </g>
     <g id="text_7">
      <!-- 0.2 -->
      <g transform="translate(25.155 246.61635)scale(0.16 -0.16)">
       <use xlink:href="#DejaVuSans-30"/>
       <use xlink:href="#DejaVuSans-2e" x="63.623047"/>
       <use xlink:href="#DejaVuSans-32" x="95.410156"/>
      </g>
     </g>
    </g>
    <g id="ytick_3">
     <g id="line2d_25">
      <path d="M 57.6 182.1312 
L 360.8064 182.1312 
" clip-path="url(#pb47c608d8d)" style="fill: none; stroke: #b0b0b0; stroke-width: 0.8; stroke-linecap: square"/>
     </g>
     <g id="line2d_26">
      <g>
       <use xlink:href="#mc5c8f7bde4" x="57.6" y="182.1312" style="stroke: #000000; stroke-width: 0.8"/>
      </g>
     </g>
     <g id="text_8">
      <!-- 0.4 -->
      <g transform="translate(25.155 188.20995)scale(0.16 -0.16)">
       <use xlink:href="#DejaVuSans-30"/>
       <use xlink:href="#DejaVuSans-2e" x="63.623047"/>
       <use xlink:href="#DejaVuSans-34" x="95.410156"/>
      </g>
     </g>
    </g>
    <g id="ytick_4">
     <g id="line2d_27">
      <path d="M 57.6 123.7248 
L 360.8064 123.7248 
" clip-path="url(#pb47c608d8d)" style="fill: none; stroke: #b0b0b0; stroke-width: 0.8; stroke-linecap: square"/>
     </g>
     <g id="line2d_28">
      <g>
       <use xlink:href="#mc5c8f7bde4" x="57.6" y="123.7248" style="stroke: #000000; stroke-width: 0.8"/>
      </g>
     </g>
     <g id="text_9">
      <!-- 0.6 -->
      <g transform="translate(25.155 129.80355)scale(0.16 -0.16)">
       <use xlink:href="#DejaVuSans-30"/>
       <use xlink:href="#DejaVuSans-2e" x="63.623047"/>
       <use xlink:href="#DejaVuSans-36" x="95.410156"/>
      </g>
     </g>
    </g>
    <g id="ytick_5">
     <g id="line2d_29">
      <path d="M 57.6 65.3184 
L 360.8064 65.3184 
" clip-path="url(#pb47c608d8d)" style="fill: none; stroke: #b0b0b0; stroke-width: 0.8; stroke-linecap: square"/>
     </g>
     <g id="line2d_30">
      <g>
       <use xlink:href="#mc5c8f7bde4" x="57.6" y="65.3184" style="stroke: #000000; stroke-width: 0.8"/>
      </g>
     </g>
     <g id="text_10">
      <!-- 0.8 -->
      <g transform="translate(25.155 71.39715)scale(0.16 -0.16)">
       <defs>
        <path id="DejaVuSans-38" d="M 2034 2216 
Q 1584 2216 1326 1975 
Q 1069 1734 1069 1313 
Q 1069 891 1326 650 
Q 1584 409 2034 409 
Q 2484 409 2743 651 
Q 3003 894 3003 1313 
Q 3003 1734 2745 1975 
Q 2488 2216 2034 2216 
z
M 1403 2484 
Q 997 2584 770 2862 
Q 544 3141 544 3541 
Q 544 4100 942 4425 
Q 1341 4750 2034 4750 
Q 2731 4750 3128 4425 
Q 3525 4100 3525 3541 
Q 3525 3141 3298 2862 
Q 3072 2584 2669 2484 
Q 3125 2378 3379 2068 
Q 3634 1759 3634 1313 
Q 3634 634 3220 271 
Q 2806 -91 2034 -91 
Q 1263 -91 848 271 
Q 434 634 434 1313 
Q 434 1759 690 2068 
Q 947 2378 1403 2484 
z
M 1172 3481 
Q 1172 3119 1398 2916 
Q 1625 2713 2034 2713 
Q 2441 2713 2670 2916 
Q 2900 3119 2900 3481 
Q 2900 3844 2670 4047 
Q 2441 4250 2034 4250 
Q 1625 4250 1398 4047 
Q 1172 3844 1172 3481 
z
" transform="scale(0.015625)"/>
       </defs>
       <use xlink:href="#DejaVuSans-30"/>
       <use xlink:href="#DejaVuSans-2e" x="63.623047"/>
       <use xlink:href="#DejaVuSans-38" x="95.410156"/>
      </g>
     </g>
    </g>
    <g id="ytick_6">
     <g id="line2d_31">
      <path d="M 57.6 6.912 
L 360.8064 6.912 
" clip-path="url(#pb47c608d8d)" style="fill: none; stroke: #b0b0b0; stroke-width: 0.8; stroke-linecap: square"/>
     </g>
     <g id="line2d_32">
      <g>
       <use xlink:href="#mc5c8f7bde4" x="57.6" y="6.912" style="stroke: #000000; stroke-width: 0.8"/>
      </g>
     </g>
     <g id="text_11">
      <!-- 1.0 -->
      <g transform="translate(25.155 12.99075)scale(0.16 -0.16)">
       <use xlink:href="#DejaVuSans-31"/>
       <use xlink:href="#DejaVuSans-2e" x="63.623047"/>
       <use xlink:href="#DejaVuSans-30" x="95.410156"/>
      </g>
     </g>
    </g>
    <g id="text_12">
     <!-- Fraction of function,target pairs -->
     <g transform="translate(17.619531 287.313)rotate(-90)scale(0.17 -0.17)">
      <defs>
       <path id="DejaVuSans-46" d="M 628 4666 
L 3309 4666 
L 3309 4134 
L 1259 4134 
L 1259 2759 
L 3109 2759 
L 3109 2228 
L 1259 2228 
L 1259 0 
L 628 0 
L 628 4666 
z
" transform="scale(0.015625)"/>
       <path id="DejaVuSans-72" d="M 2631 2963 
Q 2534 3019 2420 3045 
Q 2306 3072 2169 3072 
Q 1681 3072 1420 2755 
Q 1159 2438 1159 1844 
L 1159 0 
L 581 0 
L 581 3500 
L 1159 3500 
L 1159 2956 
Q 1341 3275 1631 3429 
Q 1922 3584 2338 3584 
Q 2397 3584 2469 3576 
Q 2541 3569 2628 3553 
L 2631 2963 
z
" transform="scale(0.015625)"/>
       <path id="DejaVuSans-63" d="M 3122 3366 
L 3122 2828 
Q 2878 2963 2633 3030 
Q 2388 3097 2138 3097 
Q 1578 3097 1268 2742 
Q 959 2388 959 1747 
Q 959 1106 1268 751 
Q 1578 397 2138 397 
Q 2388 397 2633 464 
Q 2878 531 3122 666 
L 3122 134 
Q 2881 22 2623 -34 
Q 2366 -91 2075 -91 
Q 1284 -91 818 406 
Q 353 903 353 1747 
Q 353 2603 823 3093 
Q 1294 3584 2113 3584 
Q 2378 3584 2631 3529 
Q 2884 3475 3122 3366 
z
" transform="scale(0.015625)"/>
       <path id="DejaVuSans-74" d="M 1172 4494 
L 1172 3500 
L 2356 3500 
L 2356 3053 
L 1172 3053 
L 1172 1153 
Q 1172 725 1289 603 
Q 1406 481 1766 481 
L 2356 481 
L 2356 0 
L 1766 0 
Q 1100 0 847 248 
Q 594 497 594 1153 
L 594 3053 
L 172 3053 
L 172 3500 
L 594 3500 
L 594 4494 
L 1172 4494 
z
" transform="scale(0.015625)"/>
       <path id="DejaVuSans-75" d="M 544 1381 
L 544 3500 
L 1119 3500 
L 1119 1403 
Q 1119 906 1312 657 
Q 1506 409 1894 409 
Q 2359 409 2629 706 
Q 2900 1003 2900 1516 
L 2900 3500 
L 3475 3500 
L 3475 0 
L 2900 0 
L 2900 538 
Q 2691 219 2414 64 
Q 2138 -91 1772 -91 
Q 1169 -91 856 284 
Q 544 659 544 1381 
z
M 1991 3584 
L 1991 3584 
z
" transform="scale(0.015625)"/>
       <path id="DejaVuSans-2c" d="M 750 794 
L 1409 794 
L 1409 256 
L 897 -744 
L 494 -744 
L 750 256 
L 750 794 
z
" transform="scale(0.015625)"/>
       <path id="DejaVuSans-70" d="M 1159 525 
L 1159 -1331 
L 581 -1331 
L 581 3500 
L 1159 3500 
L 1159 2969 
Q 1341 3281 1617 3432 
Q 1894 3584 2278 3584 
Q 2916 3584 3314 3078 
Q 3713 2572 3713 1747 
Q 3713 922 3314 415 
Q 2916 -91 2278 -91 
Q 1894 -91 1617 61 
Q 1341 213 1159 525 
z
M 3116 1747 
Q 3116 2381 2855 2742 
Q 2594 3103 2138 3103 
Q 1681 3103 1420 2742 
Q 1159 2381 1159 1747 
Q 1159 1113 1420 752 
Q 1681 391 2138 391 
Q 2594 391 2855 752 
Q 3116 1113 3116 1747 
z
" transform="scale(0.015625)"/>
      </defs>
      <use xlink:href="#DejaVuSans-46"/>
      <use xlink:href="#DejaVuSans-72" x="50.269531"/>
      <use xlink:href="#DejaVuSans-61" x="91.382812"/>
      <use xlink:href="#DejaVuSans-63" x="152.662109"/>
      <use xlink:href="#DejaVuSans-74" x="207.642578"/>
      <use xlink:href="#DejaVuSans-69" x="246.851562"/>
      <use xlink:href="#DejaVuSans-6f" x="274.634766"/>
      <use xlink:href="#DejaVuSans-6e" x="335.816406"/>
      <use xlink:href="#DejaVuSans-20" x="399.195312"/>
      <use xlink:href="#DejaVuSans-6f" x="430.982422"/>
      <use xlink:href="#DejaVuSans-66" x="492.164062"/>
      <use xlink:href="#DejaVuSans-20" x="527.369141"/>
      <use xlink:href="#DejaVuSans-66" x="559.15625"/>
      <use xlink:href="#DejaVuSans-75" x="594.361328"/>
      <use xlink:href="#DejaVuSans-6e" x="657.740234"/>
      <use xlink:href="#DejaVuSans-63" x="721.119141"/>
      <use xlink:href="#DejaVuSans-74" x="776.099609"/>
      <use xlink:href="#DejaVuSans-69" x="815.308594"/>
      <use xlink:href="#DejaVuSans-6f" x="843.091797"/>
      <use xlink:href="#DejaVuSans-6e" x="904.273438"/>
      <use xlink:href="#DejaVuSans-2c" x="967.652344"/>
      <use xlink:href="#DejaVuSans-74" x="999.439453"/>
      <use xlink:href="#DejaVuSans-61" x="1038.648438"/>
      <use xlink:href="#DejaVuSans-72" x="1099.927734"/>
      <use xlink:href="#DejaVuSans-67" x="1139.291016"/>
      <use xlink:href="#DejaVuSans-65" x="1202.767578"/>
      <use xlink:href="#DejaVuSans-74" x="1264.291016"/>
      <use xlink:href="#DejaVuSans-20" x="1303.5"/>
      <use xlink:href="#DejaVuSans-70" x="1335.287109"/>
      <use xlink:href="#DejaVuSans-61" x="1398.763672"/>
      <use xlink:href="#DejaVuSans-69" x="1460.042969"/>
      <use xlink:href="#DejaVuSans-72" x="1487.826172"/>
      <use xlink:href="#DejaVuSans-73" x="1528.939453"/>
     </g>
    </g>
   </g>
   <g id="line2d_33">
    <defs>
     <path id="mfef7624003" d="M 0 1.5 
C 0.397805 1.5 0.77937 1.341951 1.06066 1.06066 
C 1.341951 0.77937 1.5 0.397805 1.5 0 
C 1.5 -0.397805 1.341951 -0.77937 1.06066 -1.06066 
C 0.77937 -1.341951 0.397805 -1.5 0 -1.5 
C -0.397805 -1.5 -0.77937 -1.341951 -1.06066 -1.06066 
C -1.341951 -0.77937 -1.5 -0.397805 -1.5 0 
C -1.5 0.397805 -1.341951 0.77937 -1.06066 1.06066 
C -0.77937 1.341951 -0.397805 1.5 0 1.5 
z
" style="stroke: #f5deb3"/>
    </defs>
    <g>
     <use xlink:href="#mfef7624003" x="317.483841" y="143.5903" style="fill: #f5deb3; stroke: #f5deb3"/>
     <use xlink:href="#mfef7624003" x="317.483841" y="143.5903" style="fill: #f5deb3; stroke: #f5deb3"/>
    </g>
   </g>
   <g id="line2d_34">
    <defs>
     <path id="m13663c331d" d="M 0 1.5 
C 0.397805 1.5 0.77937 1.341951 1.06066 1.06066 
C 1.341951 0.77937 1.5 0.397805 1.5 0 
C 1.5 -0.397805 1.341951 -0.77937 1.06066 -1.06066 
C 0.77937 -1.341951 0.397805 -1.5 0 -1.5 
C -0.397805 -1.5 -0.77937 -1.341951 -1.06066 -1.06066 
C -1.341951 -0.77937 -1.5 -0.397805 -1.5 0 
C -1.5 0.397805 -1.341951 0.77937 -1.06066 1.06066 
C -0.77937 1.341951 -0.397805 1.5 0 1.5 
z
" style="stroke: #000080"/>
    </defs>
    <g>
     <use xlink:href="#m13663c331d" x="73.268314" y="283.271311" style="fill: #000080; stroke: #000080"/>
     <use xlink:href="#m13663c331d" x="73.268314" y="283.271311" style="fill: #000080; stroke: #000080"/>
    </g>
   </g>
   <g id="line2d_35">
    <path d="M -1 286.978927 
L 8.873054 286.887381 
L 8.873054 286.823299 
L 18.482477 286.78668 
L 18.482477 286.704289 
L 27.323974 286.603588 
L 27.323974 286.576124 
L 34.951403 286.502888 
L 34.951403 286.457114 
L 39.149079 286.347259 
L 39.149079 286.301486 
L 44.560826 286.200785 
L 44.560826 286.127549 
L 47.189965 286.045157 
L 47.189965 285.981075 
L 49.496305 285.926147 
L 49.496305 285.85291 
L 52.188254 285.788828 
L 52.188254 285.724746 
L 53.402323 285.688127 
L 53.402323 285.605736 
L 55.618005 285.495881 
L 55.618005 285.413489 
L 58.064506 285.303634 
L 58.064506 285.285325 
L 60.633704 285.202933 
L 60.633704 285.148006 
L 62.170195 285.047305 
L 62.170195 285.019841 
L 63.929565 284.91914 
L 63.929565 284.891676 
L 65.53837 284.781821 
L 65.53837 284.763512 
L 67.303246 284.653657 
L 67.303246 284.607884 
L 68.916653 284.525492 
L 68.916653 284.488874 
L 70.402548 284.379018 
L 70.402548 284.360709 
L 71.779618 284.250854 
L 71.779618 284.241699 
L 73.268314 284.131844 
L 73.268314 283.271311 
L 360.8064 283.271311 
L 360.8064 283.271311 
" style="fill: none; stroke: #000080; stroke-width: 1.5; stroke-linecap: square"/>
   </g>
   <g id="line2d_36">
    <defs>
     <path id="m755b9989d3" d="M 0 6 
C 1.591219 6 3.117479 5.367802 4.242641 4.242641 
C 5.367802 3.117479 6 1.591219 6 0 
C 6 -1.591219 5.367802 -3.117479 4.242641 -4.242641 
C 3.117479 -5.367802 1.591219 -6 0 -6 
C -1.591219 -6 -3.117479 -5.367802 -4.242641 -4.242641 
C -5.367802 -3.117479 -6 -1.591219 -6 0 
C -6 1.591219 -5.367802 3.117479 -4.242641 4.242641 
C -3.117479 5.367802 -1.591219 6 0 6 
z
" style="stroke: #000080; stroke-width: 1.5"/>
    </defs>
    <g>
     <use xlink:href="#m755b9989d3" x="73.268314" y="284.131844" style="fill-opacity: 0; stroke: #000080; stroke-width: 1.5"/>
     <use xlink:href="#m755b9989d3" x="73.268314" y="284.131844" style="fill-opacity: 0; stroke: #000080; stroke-width: 1.5"/>
     <use xlink:href="#m755b9989d3" x="73.268314" y="283.271311" style="fill-opacity: 0; stroke: #000080; stroke-width: 1.5"/>
     <use xlink:href="#m755b9989d3" x="73.268314" y="283.271311" style="fill-opacity: 0; stroke: #000080; stroke-width: 1.5"/>
     <use xlink:href="#m755b9989d3" x="73.268314" y="283.271311" style="fill-opacity: 0; stroke: #000080; stroke-width: 1.5"/>
     <use xlink:href="#m755b9989d3" x="360.8064" y="283.271311" style="fill-opacity: 0; stroke: #000080; stroke-width: 1.5"/>
    </g>
   </g>
   <g id="line2d_37">
    <path style="fill: none; stroke: #000080; stroke-width: 1.5; stroke-linecap: square"/>
    <g/>
   </g>
   <g id="line2d_38">
    <path d="M 73.268314 283.271311 
" clip-path="url(#pb47c608d8d)" style="fill: none; stroke: #000080; stroke-width: 1.5; stroke-linecap: square"/>
    <defs>
     <path id="mf06ab7f24d" d="M -12 12 
L 12 -12 
M -12 -12 
L 12 12 
" style="stroke: #000080"/>
    </defs>
    <g clip-path="url(#pb47c608d8d)">
     <use xlink:href="#mf06ab7f24d" x="73.268314" y="283.271311" style="fill: #000080; stroke: #000080"/>
    </g>
   </g>
   <g id="line2d_39">
    <path d="M 360.8064 283.271311 
L 380.514816 293.10336 
" style="fill: none; stroke: #000080; stroke-width: 1.5; stroke-linecap: square"/>
    <g>
     <use xlink:href="#m755b9989d3" x="360.8064" y="283.271311" style="fill-opacity: 0; stroke: #000080; stroke-width: 1.5"/>
     <use xlink:href="#m755b9989d3" x="380.514816" y="293.10336" style="fill-opacity: 0; stroke: #000080; stroke-width: 1.5"/>
    </g>
   </g>
   <g id="line2d_40">
    <path d="M 360.8064 298.944 
L 360.8064 6.912 
" style="fill: none; stroke: #000000; stroke-width: 1.5; stroke-linecap: square"/>
   </g>
   <g id="patch_3">
    <path d="M 57.6 298.944 
L 360.8064 298.944 
" style="fill: none; stroke: #000000; stroke-width: 0.8; stroke-linejoin: miter; stroke-linecap: square"/>
   </g>
   <g id="patch_4">
    <path d="M 57.6 6.912 
L 360.8064 6.912 
" style="fill: none; stroke: #000000; stroke-width: 0.8; stroke-linejoin: miter; stroke-linecap: square"/>
   </g>
   <g id="text_13">
    <!-- cma -->
    <g transform="translate(386.578944 296.966485)scale(0.14 -0.14)">
     <use xlink:href="#DejaVuSans-63"/>
     <use xlink:href="#DejaVuSans-6d" x="54.980469"/>
     <use xlink:href="#DejaVuSans-61" x="152.392578"/>
    </g>
   </g>
   <g id="text_14">
    <!-- best 2016 -->
    <g transform="translate(386.578944 16.615765)scale(0.14 -0.14)">
     <defs>
      <path id="DejaVuSans-62" d="M 3116 1747 
Q 3116 2381 2855 2742 
Q 2594 3103 2138 3103 
Q 1681 3103 1420 2742 
Q 1159 2381 1159 1747 
Q 1159 1113 1420 752 
Q 1681 391 2138 391 
Q 2594 391 2855 752 
Q 3116 1113 3116 1747 
z
M 1159 2969 
Q 1341 3281 1617 3432 
Q 1894 3584 2278 3584 
Q 2916 3584 3314 3078 
Q 3713 2572 3713 1747 
Q 3713 922 3314 415 
Q 2916 -91 2278 -91 
Q 1894 -91 1617 61 
Q 1341 213 1159 525 
L 1159 0 
L 581 0 
L 581 4863 
L 1159 4863 
L 1159 2969 
z
" transform="scale(0.015625)"/>
     </defs>
     <use xlink:href="#DejaVuSans-62"/>
     <use xlink:href="#DejaVuSans-65" x="63.476562"/>
     <use xlink:href="#DejaVuSans-73" x="125"/>
     <use xlink:href="#DejaVuSans-74" x="177.099609"/>
     <use xlink:href="#DejaVuSans-20" x="216.308594"/>
     <use xlink:href="#DejaVuSans-32" x="248.095703"/>
     <use xlink:href="#DejaVuSans-30" x="311.71875"/>
     <use xlink:href="#DejaVuSans-31" x="375.341797"/>
     <use xlink:href="#DejaVuSans-36" x="438.964844"/>
    </g>
   </g>
   <g id="text_15">
    <!-- bbob-biobj f1-f55, 40-D -->
    <g transform="translate(60.632064 17.582726)scale(0.102 -0.102)">
     <defs>
      <path id="DejaVuSans-6a" d="M 603 3500 
L 1178 3500 
L 1178 -63 
Q 1178 -731 923 -1031 
Q 669 -1331 103 -1331 
L -116 -1331 
L -116 -844 
L 38 -844 
Q 366 -844 484 -692 
Q 603 -541 603 -63 
L 603 3500 
z
M 603 4863 
L 1178 4863 
L 1178 4134 
L 603 4134 
L 603 4863 
z
" transform="scale(0.015625)"/>
      <path id="DejaVuSans-35" d="M 691 4666 
L 3169 4666 
L 3169 4134 
L 1269 4134 
L 1269 2991 
Q 1406 3038 1543 3061 
Q 1681 3084 1819 3084 
Q 2600 3084 3056 2656 
Q 3513 2228 3513 1497 
Q 3513 744 3044 326 
Q 2575 -91 1722 -91 
Q 1428 -91 1123 -41 
Q 819 9 494 109 
L 494 744 
Q 775 591 1075 516 
Q 1375 441 1709 441 
Q 2250 441 2565 725 
Q 2881 1009 2881 1497 
Q 2881 1984 2565 2268 
Q 2250 2553 1709 2553 
Q 1456 2553 1204 2497 
Q 953 2441 691 2322 
L 691 4666 
z
" transform="scale(0.015625)"/>
      <path id="DejaVuSans-44" d="M 1259 4147 
L 1259 519 
L 2022 519 
Q 2988 519 3436 956 
Q 3884 1394 3884 2338 
Q 3884 3275 3436 3711 
Q 2988 4147 2022 4147 
L 1259 4147 
z
M 628 4666 
L 1925 4666 
Q 3281 4666 3915 4102 
Q 4550 3538 4550 2338 
Q 4550 1131 3912 565 
Q 3275 0 1925 0 
L 628 0 
L 628 4666 
z
" transform="scale(0.015625)"/>
     </defs>
     <use xlink:href="#DejaVuSans-62"/>
     <use xlink:href="#DejaVuSans-62" x="63.476562"/>
     <use xlink:href="#DejaVuSans-6f" x="126.953125"/>
     <use xlink:href="#DejaVuSans-62" x="188.134766"/>
     <use xlink:href="#DejaVuSans-2d" x="251.611328"/>
     <use xlink:href="#DejaVuSans-62" x="287.695312"/>
     <use xlink:href="#DejaVuSans-69" x="351.171875"/>
     <use xlink:href="#DejaVuSans-6f" x="378.955078"/>
     <use xlink:href="#DejaVuSans-62" x="440.136719"/>
     <use xlink:href="#DejaVuSans-6a" x="503.613281"/>
     <use xlink:href="#DejaVuSans-20" x="531.396484"/>
     <use xlink:href="#DejaVuSans-66" x="563.183594"/>
     <use xlink:href="#DejaVuSans-31" x="598.388672"/>
     <use xlink:href="#DejaVuSans-2d" x="662.011719"/>
     <use xlink:href="#DejaVuSans-66" x="698.095703"/>
     <use xlink:href="#DejaVuSans-35" x="733.300781"/>
     <use xlink:href="#DejaVuSans-35" x="796.923828"/>
     <use xlink:href="#DejaVuSans-2c" x="860.546875"/>
     <use xlink:href="#DejaVuSans-20" x="892.333984"/>
     <use xlink:href="#DejaVuSans-34" x="924.121094"/>
     <use xlink:href="#DejaVuSans-30" x="987.744141"/>
     <use xlink:href="#DejaVuSans-2d" x="1051.367188"/>
     <use xlink:href="#DejaVuSans-44" x="1087.451172"/>
    </g>
    <!-- 58 targets: 1..-1.0e-4 -->
    <g transform="translate(60.632064 29.004495)scale(0.102 -0.102)">
     <defs>
      <path id="DejaVuSans-3a" d="M 750 794 
L 1409 794 
L 1409 0 
L 750 0 
L 750 794 
z
M 750 3309 
L 1409 3309 
L 1409 2516 
L 750 2516 
L 750 3309 
z
" transform="scale(0.015625)"/>
     </defs>
     <use xlink:href="#DejaVuSans-35"/>
     <use xlink:href="#DejaVuSans-38" x="63.623047"/>
     <use xlink:href="#DejaVuSans-20" x="127.246094"/>
     <use xlink:href="#DejaVuSans-74" x="159.033203"/>
     <use xlink:href="#DejaVuSans-61" x="198.242188"/>
     <use xlink:href="#DejaVuSans-72" x="259.521484"/>
     <use xlink:href="#DejaVuSans-67" x="298.884766"/>
     <use xlink:href="#DejaVuSans-65" x="362.361328"/>
     <use xlink:href="#DejaVuSans-74" x="423.884766"/>
     <use xlink:href="#DejaVuSans-73" x="463.09375"/>
     <use xlink:href="#DejaVuSans-3a" x="515.193359"/>
     <use xlink:href="#DejaVuSans-20" x="548.884766"/>
     <use xlink:href="#DejaVuSans-31" x="580.671875"/>
     <use xlink:href="#DejaVuSans-2e" x="644.294922"/>
     <use xlink:href="#DejaVuSans-2e" x="676.082031"/>
     <use xlink:href="#DejaVuSans-2d" x="707.869141"/>
     <use xlink:href="#DejaVuSans-31" x="743.953125"/>
     <use xlink:href="#DejaVuSans-2e" x="807.576172"/>
     <use xlink:href="#DejaVuSans-30" x="839.363281"/>
     <use xlink:href="#DejaVuSans-65" x="902.986328"/>
     <use xlink:href="#DejaVuSans-2d" x="964.509766"/>
     <use xlink:href="#DejaVuSans-34" x="1000.59375"/>
    </g>
    <!-- 10 instances -->
    <g transform="translate(60.632064 40.426264)scale(0.102 -0.102)">
     <use xlink:href="#DejaVuSans-31"/>
     <use xlink:href="#DejaVuSans-30" x="63.623047"/>
     <use xlink:href="#DejaVuSans-20" x="127.246094"/>
     <use xlink:href="#DejaVuSans-69" x="159.033203"/>
     <use xlink:href="#DejaVuSans-6e" x="186.816406"/>
     <use xlink:href="#DejaVuSans-73" x="250.195312"/>
     <use xlink:href="#DejaVuSans-74" x="302.294922"/>
     <use xlink:href="#DejaVuSans-61" x="341.503906"/>
     <use xlink:href="#DejaVuSans-6e" x="402.783203"/>
     <use xlink:href="#DejaVuSans-63" x="466.162109"/>
     <use xlink:href="#DejaVuSans-65" x="521.142578"/>
     <use xlink:href="#DejaVuSans-73" x="582.666016"/>
    </g>
   </g>
   <g id="text_16">
    <!-- v2.6, hv-hash=ff0e71e8cd978373 -->
    <g style="fill: #808080" transform="translate(123.707887 293.943992)scale(0.1 -0.1)">
     <defs>
      <path id="DejaVuSans-68" d="M 3513 2113 
L 3513 0 
L 2938 0 
L 2938 2094 
Q 2938 2591 2744 2837 
Q 2550 3084 2163 3084 
Q 1697 3084 1428 2787 
Q 1159 2491 1159 1978 
L 1159 0 
L 581 0 
L 581 4863 
L 1159 4863 
L 1159 2956 
Q 1366 3272 1645 3428 
Q 1925 3584 2291 3584 
Q 2894 3584 3203 3211 
Q 3513 2838 3513 2113 
z
" transform="scale(0.015625)"/>
      <path id="DejaVuSans-3d" d="M 678 2906 
L 4684 2906 
L 4684 2381 
L 678 2381 
L 678 2906 
z
M 678 1631 
L 4684 1631 
L 4684 1100 
L 678 1100 
L 678 1631 
z
" transform="scale(0.015625)"/>
      <path id="DejaVuSans-37" d="M 525 4666 
L 3525 4666 
L 3525 4397 
L 1831 0 
L 1172 0 
L 2766 4134 
L 525 4134 
L 525 4666 
z
" transform="scale(0.015625)"/>
      <path id="DejaVuSans-39" d="M 703 97 
L 703 672 
Q 941 559 1184 500 
Q 1428 441 1663 441 
Q 2288 441 2617 861 
Q 2947 1281 2994 2138 
Q 2813 1869 2534 1725 
Q 2256 1581 1919 1581 
Q 1219 1581 811 2004 
Q 403 2428 403 3163 
Q 403 3881 828 4315 
Q 1253 4750 1959 4750 
Q 2769 4750 3195 4129 
Q 3622 3509 3622 2328 
Q 3622 1225 3098 567 
Q 2575 -91 1691 -91 
Q 1453 -91 1209 -44 
Q 966 3 703 97 
z
M 1959 2075 
Q 2384 2075 2632 2365 
Q 2881 2656 2881 3163 
Q 2881 3666 2632 3958 
Q 2384 4250 1959 4250 
Q 1534 4250 1286 3958 
Q 1038 3666 1038 3163 
Q 1038 2656 1286 2365 
Q 1534 2075 1959 2075 
z
" transform="scale(0.015625)"/>
      <path id="DejaVuSans-33" d="M 2597 2516 
Q 3050 2419 3304 2112 
Q 3559 1806 3559 1356 
Q 3559 666 3084 287 
Q 2609 -91 1734 -91 
Q 1441 -91 1130 -33 
Q 819 25 488 141 
L 488 750 
Q 750 597 1062 519 
Q 1375 441 1716 441 
Q 2309 441 2620 675 
Q 2931 909 2931 1356 
Q 2931 1769 2642 2001 
Q 2353 2234 1838 2234 
L 1294 2234 
L 1294 2753 
L 1863 2753 
Q 2328 2753 2575 2939 
Q 2822 3125 2822 3475 
Q 2822 3834 2567 4026 
Q 2313 4219 1838 4219 
Q 1578 4219 1281 4162 
Q 984 4106 628 3988 
L 628 4550 
Q 988 4650 1302 4700 
Q 1616 4750 1894 4750 
Q 2613 4750 3031 4423 
Q 3450 4097 3450 3541 
Q 3450 3153 3228 2886 
Q 3006 2619 2597 2516 
z
" transform="scale(0.015625)"/>
     </defs>
     <use xlink:href="#DejaVuSans-76"/>
     <use xlink:href="#DejaVuSans-32" x="59.179688"/>
     <use xlink:href="#DejaVuSans-2e" x="122.802734"/>
     <use xlink:href="#DejaVuSans-36" x="154.589844"/>
     <use xlink:href="#DejaVuSans-2c" x="218.212891"/>
     <use xlink:href="#DejaVuSans-20" x="250"/>
     <use xlink:href="#DejaVuSans-68" x="281.787109"/>
     <use xlink:href="#DejaVuSans-76" x="345.166016"/>
     <use xlink:href="#DejaVuSans-2d" x="401.720703"/>
     <use xlink:href="#DejaVuSans-68" x="437.804688"/>
     <use xlink:href="#DejaVuSans-61" x="501.183594"/>
     <use xlink:href="#DejaVuSans-73" x="562.462891"/>
     <use xlink:href="#DejaVuSans-68" x="614.5625"/>
     <use xlink:href="#DejaVuSans-3d" x="677.941406"/>
     <use xlink:href="#DejaVuSans-66" x="761.730469"/>
     <use xlink:href="#DejaVuSans-66" x="796.935547"/>
     <use xlink:href="#DejaVuSans-30" x="832.140625"/>
     <use xlink:href="#DejaVuSans-65" x="895.763672"/>
     <use xlink:href="#DejaVuSans-37" x="957.287109"/>
     <use xlink:href="#DejaVuSans-31" x="1020.910156"/>
     <use xlink:href="#DejaVuSans-65" x="1084.533203"/>
     <use xlink:href="#DejaVuSans-38" x="1146.056641"/>
     <use xlink:href="#DejaVuSans-63" x="1209.679688"/>
     <use xlink:href="#DejaVuSans-64" x="1264.660156"/>
     <use xlink:href="#DejaVuSans-39" x="1328.136719"/>
     <use xlink:href="#DejaVuSans-37" x="1391.759766"/>
     <use xlink:href="#DejaVuSans-38" x="1455.382812"/>
     <use xlink:href="#DejaVuSans-33" x="1519.005859"/>
     <use xlink:href="#DejaVuSans-37" x="1582.628906"/>
     <use xlink:href="#DejaVuSans-33" x="1646.251953"/>
    </g>
   </g>
  </g>
 </g>
 <defs>
  <clipPath id="pb47c608d8d">
   <rect x="57.6" y="6.912" width="303.2064" height="292.032"/>
  </clipPath>
 </defs>
</svg>
