<?xml version="1.0" encoding="utf-8" standalone="no"?>
<!DOCTYPE svg PUBLIC "-//W3C//DTD SVG 1.1//EN"
  "http://www.w3.org/Graphics/SVG/1.1/DTD/svg11.dtd">
<svg xmlns:xlink="http://www.w3.org/1999/xlink" width="460.8pt" height="345.6pt" viewBox="0 0 460.8 345.6" xmlns="http://www.w3.org/2000/svg" version="1.1">
 <metadata>
  <rdf:RDF xmlns:dc="http://purl.org/dc/elements/1.1/" xmlns:cc="http://creativecommons.org/ns#" xmlns:rdf="http://www.w3.org/1999/02/22-rdf-syntax-ns#">
   <cc:Work>
    <dc:type rdf:resource="http://purl.org/dc/dcmitype/StillImage"/>
    <dc:date>2022-06-19T21:03:09.024829</dc:date>
    <dc:format>image/svg+xml</dc:format>
    <dc:creator>
     <cc:Agent>
      <dc:title>Matplotlib v3.5.1, https://matplotlib.org/</dc:title>
     </cc:Agent>
    </dc:creator>
   </cc:Work>
  </rdf:RDF>
 </metadata>
 <defs>
  <style type="text/css">*{stroke-linejoin: round; stroke-linecap: butt}</style>
 </defs>
 <g id="figure_1">
  <g id="patch_1">
   <path d="M 0 345.6 
L 460.8 345.6 
L 460.8 0 
L 0 0 
z
" style="fill: #ffffff"/>
  </g>
  <g id="axes_1">
   <g id="patch_2">
    <path d="M 57.6 298.944 
L 360.8064 298.944 
L 360.8064 6.912 
L 57.6 6.912 
z
" style="fill: #ffffff"/>
   </g>
   <g id="line2d_1">
    <path d="M 57.6 298.944 
L 57.6 296.426483 
L 63.011746 296.426483 
L 63.011746 293.908966 
L 67.209423 293.908966 
L 67.209423 291.391448 
L 70.639174 291.391448 
L 70.639174 288.873931 
L 76.050921 288.873931 
L 76.050921 285.097655 
L 78.266603 285.097655 
L 78.266603 281.321379 
L 80.248597 281.321379 
L 80.248597 276.286345 
L 83.678349 276.286345 
L 83.678349 275.027586 
L 90.230539 275.027586 
L 90.230539 269.992552 
L 92.322865 269.992552 
L 92.322865 267.475034 
L 95.080704 267.475034 
L 95.080704 263.698759 
L 100.277459 263.698759 
L 100.277459 261.181241 
L 102.12927 261.181241 
L 102.12927 257.404966 
L 106.326946 257.404966 
L 106.326946 256.146207 
L 107.244765 256.146207 
L 107.244765 254.887448 
L 115.168444 254.887448 
L 115.168444 251.111172 
L 115.747307 251.111172 
L 115.747307 246.076138 
L 118.889854 246.076138 
L 118.889854 243.558621 
L 119.599808 243.558621 
L 119.599808 241.041103 
L 120.726585 241.041103 
L 120.726585 238.523586 
L 121.789667 238.523586 
L 121.789667 236.006069 
L 122.19863 236.006069 
L 122.19863 232.229793 
L 125.011554 232.229793 
L 125.011554 228.453517 
L 125.862901 228.453517 
L 125.862901 227.194759 
L 126.192937 227.194759 
L 126.192937 225.936 
L 127.911368 225.936 
L 127.911368 223.418483 
L 129.069367 223.418483 
L 129.069367 220.900966 
L 132.168669 220.900966 
L 132.168669 218.383448 
L 132.405295 218.383448 
L 132.405295 215.865931 
L 132.754746 215.865931 
L 132.754746 213.348414 
L 133.323114 213.348414 
L 133.323114 209.572138 
L 138.481218 209.572138 
L 138.481218 205.795862 
L 139.875304 205.795862 
L 139.875304 203.278345 
L 140.573544 203.278345 
L 140.573544 200.760828 
L 142.932537 200.760828 
L 142.932537 198.24331 
L 144.16759 198.24331 
L 144.16759 195.725793 
L 146.362288 195.725793 
L 146.362288 193.208276 
L 146.913986 193.208276 
L 146.913986 190.690759 
L 147.712333 190.690759 
L 147.712333 189.432 
L 149.262102 189.432 
L 149.262102 186.914483 
L 149.875833 186.914483 
L 149.875833 185.655724 
L 151.133398 185.655724 
L 151.133398 183.138207 
L 151.306379 183.138207 
L 151.306379 179.361931 
L 154.541415 179.361931 
L 154.541415 178.103172 
L 155.769072 178.103172 
L 155.769072 174.326897 
L 156.172192 174.326897 
L 156.271636 170.550621 
L 157.916719 170.550621 
L 157.916719 166.774345 
L 161.010268 166.774345 
L 161.010268 164.256828 
L 161.316153 164.256828 
L 161.316153 160.480552 
L 161.74115 160.480552 
L 161.74115 159.221793 
L 162.984551 159.221793 
L 162.984551 157.963034 
L 166.670924 157.963034 
L 166.670924 156.704276 
L 167.121972 156.704276 
L 167.121972 152.928 
L 173.10076 152.928 
L 173.10076 151.669241 
L 175.495771 151.669241 
L 175.55517 146.634207 
L 180.583483 146.634207 
L 180.583483 142.857931 
L 183.371423 142.857931 
L 183.371423 140.340414 
L 183.620277 140.340414 
L 183.620277 136.564138 
L 185.963426 136.564138 
L 185.963426 132.787862 
L 186.972615 132.787862 
L 186.972615 131.529103 
L 189.889044 131.529103 
L 189.889044 129.011586 
L 194.844102 129.011586 
L 194.844102 126.494069 
L 195.122797 126.494069 
L 195.122797 125.23531 
L 195.331214 125.23531 
L 195.331214 121.459034 
L 197.831225 121.459034 
L 197.831225 120.200276 
L 200.978797 120.200276 
L 200.978797 118.941517 
L 205.353103 118.941517 
L 205.353103 117.682759 
L 206.538865 117.682759 
L 206.538865 113.906483 
L 207.755219 113.906483 
L 207.755219 110.130207 
L 208.699127 110.130207 
L 208.699127 106.353931 
L 212.031541 106.353931 
L 212.031541 102.577655 
L 213.57529 102.577655 
L 213.57529 100.060138 
L 215.326884 100.060138 
L 215.391212 96.283862 
L 218.898815 96.283862 
L 218.898815 93.766345 
L 220.979794 93.766345 
L 220.979794 92.507586 
L 222.059391 92.507586 
L 222.059391 91.248828 
L 222.913696 91.248828 
L 222.913696 88.73131 
L 223.480988 88.73131 
L 223.480988 84.955034 
L 226.963269 84.955034 
L 226.963269 82.437517 
L 227.554797 82.437517 
L 227.554797 78.661241 
L 231.465487 78.661241 
L 231.465487 76.143724 
L 231.760694 76.143724 
L 231.760694 74.884966 
L 232.52044 74.884966 
L 232.52044 71.10869 
L 235.90977 71.10869 
L 235.90977 68.591172 
L 239.776613 68.591172 
L 239.776613 66.073655 
L 240.052133 66.073655 
L 240.052133 63.556138 
L 244.700979 63.556138 
L 244.700979 61.038621 
L 247.223612 61.038621 
L 247.223612 57.262345 
L 247.571411 57.262345 
L 247.571411 56.003586 
L 254.060695 56.003586 
L 254.060695 54.744828 
L 255.743464 54.744828 
L 255.743464 52.22731 
L 260.327443 52.22731 
L 260.327443 49.709793 
L 262.019856 49.709793 
L 262.019856 45.933517 
L 266.951312 45.933517 
L 266.951312 42.157241 
L 360.8064 42.157241 
L 360.8064 42.157241 
" style="fill: none; stroke: #f5deb3; stroke-width: 4; stroke-linecap: square"/>
   </g>
   <g id="line2d_2">
    <defs>
     <path id="m601e5414ad" d="M 0 7.778175 
L 7.778175 0 
L 0 -7.778175 
L -7.778175 0 
z
" style="stroke: #f5deb3; stroke-width: 1.5; stroke-linejoin: miter"/>
    </defs>
    <g>
     <use xlink:href="#m601e5414ad" x="133.323114" y="209.572138" style="fill: #f5deb3; stroke: #f5deb3; stroke-width: 1.5; stroke-linejoin: miter"/>
     <use xlink:href="#m601e5414ad" x="189.889044" y="131.529103" style="fill: #f5deb3; stroke: #f5deb3; stroke-width: 1.5; stroke-linejoin: miter"/>
     <use xlink:href="#m601e5414ad" x="266.951312" y="42.157241" style="fill: #f5deb3; stroke: #f5deb3; stroke-width: 1.5; stroke-linejoin: miter"/>
     <use xlink:href="#m601e5414ad" x="266.951312" y="42.157241" style="fill: #f5deb3; stroke: #f5deb3; stroke-width: 1.5; stroke-linejoin: miter"/>
     <use xlink:href="#m601e5414ad" x="360.8064" y="42.157241" style="fill: #f5deb3; stroke: #f5deb3; stroke-width: 1.5; stroke-linejoin: miter"/>
    </g>
   </g>
   <g id="line2d_3">
    <path style="fill: none; stroke: #f5deb3; stroke-width: 4; stroke-linecap: square"/>
    <g/>
   </g>
   <g id="line2d_4">
    <path d="M 360.8064 42.157241 
L 380.514816 12.75264 
" style="fill: none; stroke: #f5deb3; stroke-width: 4; stroke-linecap: square"/>
    <g>
     <use xlink:href="#m601e5414ad" x="360.8064" y="42.157241" style="fill: #f5deb3; stroke: #f5deb3; stroke-width: 1.5; stroke-linejoin: miter"/>
     <use xlink:href="#m601e5414ad" x="380.514816" y="12.75264" style="fill: #f5deb3; stroke: #f5deb3; stroke-width: 1.5; stroke-linejoin: miter"/>
    </g>
   </g>
   <g id="matplotlib.axis_1">
    <g id="xtick_1">
     <g id="line2d_5">
      <path d="M 57.6 298.944 
L 57.6 6.912 
" clip-path="url(#p60812e24c2)" style="fill: none; stroke: #b0b0b0; stroke-width: 0.8; stroke-linecap: square"/>
     </g>
     <g id="line2d_6">
      <defs>
       <path id="mea73976f3b" d="M 0 0 
L 0 3.5 
" style="stroke: #000000; stroke-width: 0.8"/>
      </defs>
      <g>
       <use xlink:href="#mea73976f3b" x="57.6" y="298.944" style="stroke: #000000; stroke-width: 0.8"/>
      </g>
     </g>
     <g id="text_1">
      <!-- 0 -->
      <g transform="translate(52.191875 318.861344)scale(0.17 -0.17)">
       <defs>
        <path id="DejaVuSans-30" d="M 2034 4250 
Q 1547 4250 1301 3770 
Q 1056 3291 1056 2328 
Q 1056 1369 1301 889 
Q 1547 409 2034 409 
Q 2525 409 2770 889 
Q 3016 1369 3016 2328 
Q 3016 3291 2770 3770 
Q 2525 4250 2034 4250 
z
M 2034 4750 
Q 2819 4750 3233 4129 
Q 3647 3509 3647 2328 
Q 3647 1150 3233 529 
Q 2819 -91 2034 -91 
Q 1250 -91 836 529 
Q 422 1150 422 2328 
Q 422 3509 836 4129 
Q 1250 4750 2034 4750 
z
" transform="scale(0.015625)"/>
       </defs>
       <use xlink:href="#DejaVuSans-30"/>
      </g>
     </g>
    </g>
    <g id="xtick_2">
     <g id="line2d_7">
      <path d="M 144.2304 298.944 
L 144.2304 6.912 
" clip-path="url(#p60812e24c2)" style="fill: none; stroke: #b0b0b0; stroke-width: 0.8; stroke-linecap: square"/>
     </g>
     <g id="line2d_8">
      <g>
       <use xlink:href="#mea73976f3b" x="144.2304" y="298.944" style="stroke: #000000; stroke-width: 0.8"/>
      </g>
     </g>
     <g id="text_2">
      <!-- 2 -->
      <g transform="translate(138.822275 318.861344)scale(0.17 -0.17)">
       <defs>
        <path id="DejaVuSans-32" d="M 1228 531 
L 3431 531 
L 3431 0 
L 469 0 
L 469 531 
Q 828 903 1448 1529 
Q 2069 2156 2228 2338 
Q 2531 2678 2651 2914 
Q 2772 3150 2772 3378 
Q 2772 3750 2511 3984 
Q 2250 4219 1831 4219 
Q 1534 4219 1204 4116 
Q 875 4013 500 3803 
L 500 4441 
Q 881 4594 1212 4672 
Q 1544 4750 1819 4750 
Q 2544 4750 2975 4387 
Q 3406 4025 3406 3419 
Q 3406 3131 3298 2873 
Q 3191 2616 2906 2266 
Q 2828 2175 2409 1742 
Q 1991 1309 1228 531 
z
" transform="scale(0.015625)"/>
       </defs>
       <use xlink:href="#DejaVuSans-32"/>
      </g>
     </g>
    </g>
    <g id="xtick_3">
     <g id="line2d_9">
      <path d="M 230.8608 298.944 
L 230.8608 6.912 
" clip-path="url(#p60812e24c2)" style="fill: none; stroke: #b0b0b0; stroke-width: 0.8; stroke-linecap: square"/>
     </g>
     <g id="line2d_10">
      <g>
       <use xlink:href="#mea73976f3b" x="230.8608" y="298.944" style="stroke: #000000; stroke-width: 0.8"/>
      </g>
     </g>
     <g id="text_3">
      <!-- 4 -->
      <g transform="translate(225.452675 318.861344)scale(0.17 -0.17)">
       <defs>
        <path id="DejaVuSans-34" d="M 2419 4116 
L 825 1625 
L 2419 1625 
L 2419 4116 
z
M 2253 4666 
L 3047 4666 
L 3047 1625 
L 3713 1625 
L 3713 1100 
L 3047 1100 
L 3047 0 
L 2419 0 
L 2419 1100 
L 313 1100 
L 313 1709 
L 2253 4666 
z
" transform="scale(0.015625)"/>
       </defs>
       <use xlink:href="#DejaVuSans-34"/>
      </g>
     </g>
    </g>
    <g id="xtick_4">
     <g id="line2d_11">
      <path d="M 317.4912 298.944 
L 317.4912 6.912 
" clip-path="url(#p60812e24c2)" style="fill: none; stroke: #b0b0b0; stroke-width: 0.8; stroke-linecap: square"/>
     </g>
     <g id="line2d_12">
      <g>
       <use xlink:href="#mea73976f3b" x="317.4912" y="298.944" style="stroke: #000000; stroke-width: 0.8"/>
      </g>
     </g>
     <g id="text_4">
      <!-- 6 -->
      <g transform="translate(312.083075 318.861344)scale(0.17 -0.17)">
       <defs>
        <path id="DejaVuSans-36" d="M 2113 2584 
Q 1688 2584 1439 2293 
Q 1191 2003 1191 1497 
Q 1191 994 1439 701 
Q 1688 409 2113 409 
Q 2538 409 2786 701 
Q 3034 994 3034 1497 
Q 3034 2003 2786 2293 
Q 2538 2584 2113 2584 
z
M 3366 4563 
L 3366 3988 
Q 3128 4100 2886 4159 
Q 2644 4219 2406 4219 
Q 1781 4219 1451 3797 
Q 1122 3375 1075 2522 
Q 1259 2794 1537 2939 
Q 1816 3084 2150 3084 
Q 2853 3084 3261 2657 
Q 3669 2231 3669 1497 
Q 3669 778 3244 343 
Q 2819 -91 2113 -91 
Q 1303 -91 875 529 
Q 447 1150 447 2328 
Q 447 3434 972 4092 
Q 1497 4750 2381 4750 
Q 2619 4750 2861 4703 
Q 3103 4656 3366 4563 
z
" transform="scale(0.015625)"/>
       </defs>
       <use xlink:href="#DejaVuSans-36"/>
      </g>
     </g>
    </g>
    <g id="xtick_5">
     <g id="line2d_13">
      <path d="M 100.9152 298.944 
L 100.9152 6.912 
" clip-path="url(#p60812e24c2)" style="fill: none; stroke: #b0b0b0; stroke-width: 0.8; stroke-linecap: square"/>
     </g>
     <g id="line2d_14">
      <defs>
       <path id="m3eeaf5bae5" d="M 0 0 
L 0 2 
" style="stroke: #000000; stroke-width: 0.6"/>
      </defs>
      <g>
       <use xlink:href="#m3eeaf5bae5" x="100.9152" y="298.944" style="stroke: #000000; stroke-width: 0.6"/>
      </g>
     </g>
    </g>
    <g id="xtick_6">
     <g id="line2d_15">
      <path d="M 187.5456 298.944 
L 187.5456 6.912 
" clip-path="url(#p60812e24c2)" style="fill: none; stroke: #b0b0b0; stroke-width: 0.8; stroke-linecap: square"/>
     </g>
     <g id="line2d_16">
      <g>
       <use xlink:href="#m3eeaf5bae5" x="187.5456" y="298.944" style="stroke: #000000; stroke-width: 0.6"/>
      </g>
     </g>
    </g>
    <g id="xtick_7">
     <g id="line2d_17">
      <path d="M 274.176 298.944 
L 274.176 6.912 
" clip-path="url(#p60812e24c2)" style="fill: none; stroke: #b0b0b0; stroke-width: 0.8; stroke-linecap: square"/>
     </g>
     <g id="line2d_18">
      <g>
       <use xlink:href="#m3eeaf5bae5" x="274.176" y="298.944" style="stroke: #000000; stroke-width: 0.6"/>
      </g>
     </g>
    </g>
    <g id="xtick_8">
     <g id="line2d_19">
      <path d="M 360.8064 298.944 
L 360.8064 6.912 
" clip-path="url(#p60812e24c2)" style="fill: none; stroke: #b0b0b0; stroke-width: 0.8; stroke-linecap: square"/>
     </g>
     <g id="line2d_20">
      <g>
       <use xlink:href="#m3eeaf5bae5" x="360.8064" y="298.944" style="stroke: #000000; stroke-width: 0.6"/>
      </g>
     </g>
    </g>
    <g id="text_5">
     <!-- log10(# f-evals / dimension) -->
     <g transform="translate(88.823278 339.314156)scale(0.17 -0.17)">
      <defs>
       <path id="DejaVuSans-6c" d="M 603 4863 
L 1178 4863 
L 1178 0 
L 603 0 
L 603 4863 
z
" transform="scale(0.015625)"/>
       <path id="DejaVuSans-6f" d="M 1959 3097 
Q 1497 3097 1228 2736 
Q 959 2375 959 1747 
Q 959 1119 1226 758 
Q 1494 397 1959 397 
Q 2419 397 2687 759 
Q 2956 1122 2956 1747 
Q 2956 2369 2687 2733 
Q 2419 3097 1959 3097 
z
M 1959 3584 
Q 2709 3584 3137 3096 
Q 3566 2609 3566 1747 
Q 3566 888 3137 398 
Q 2709 -91 1959 -91 
Q 1206 -91 779 398 
Q 353 888 353 1747 
Q 353 2609 779 3096 
Q 1206 3584 1959 3584 
z
" transform="scale(0.015625)"/>
       <path id="DejaVuSans-67" d="M 2906 1791 
Q 2906 2416 2648 2759 
Q 2391 3103 1925 3103 
Q 1463 3103 1205 2759 
Q 947 2416 947 1791 
Q 947 1169 1205 825 
Q 1463 481 1925 481 
Q 2391 481 2648 825 
Q 2906 1169 2906 1791 
z
M 3481 434 
Q 3481 -459 3084 -895 
Q 2688 -1331 1869 -1331 
Q 1566 -1331 1297 -1286 
Q 1028 -1241 775 -1147 
L 775 -588 
Q 1028 -725 1275 -790 
Q 1522 -856 1778 -856 
Q 2344 -856 2625 -561 
Q 2906 -266 2906 331 
L 2906 616 
Q 2728 306 2450 153 
Q 2172 0 1784 0 
Q 1141 0 747 490 
Q 353 981 353 1791 
Q 353 2603 747 3093 
Q 1141 3584 1784 3584 
Q 2172 3584 2450 3431 
Q 2728 3278 2906 2969 
L 2906 3500 
L 3481 3500 
L 3481 434 
z
" transform="scale(0.015625)"/>
       <path id="DejaVuSans-31" d="M 794 531 
L 1825 531 
L 1825 4091 
L 703 3866 
L 703 4441 
L 1819 4666 
L 2450 4666 
L 2450 531 
L 3481 531 
L 3481 0 
L 794 0 
L 794 531 
z
" transform="scale(0.015625)"/>
       <path id="DejaVuSans-28" d="M 1984 4856 
Q 1566 4138 1362 3434 
Q 1159 2731 1159 2009 
Q 1159 1288 1364 580 
Q 1569 -128 1984 -844 
L 1484 -844 
Q 1016 -109 783 600 
Q 550 1309 550 2009 
Q 550 2706 781 3412 
Q 1013 4119 1484 4856 
L 1984 4856 
z
" transform="scale(0.015625)"/>
       <path id="DejaVuSans-23" d="M 3272 2816 
L 2363 2816 
L 2100 1772 
L 3016 1772 
L 3272 2816 
z
M 2803 4594 
L 2478 3297 
L 3391 3297 
L 3719 4594 
L 4219 4594 
L 3897 3297 
L 4872 3297 
L 4872 2816 
L 3775 2816 
L 3519 1772 
L 4513 1772 
L 4513 1294 
L 3397 1294 
L 3072 0 
L 2572 0 
L 2894 1294 
L 1978 1294 
L 1656 0 
L 1153 0 
L 1478 1294 
L 494 1294 
L 494 1772 
L 1594 1772 
L 1856 2816 
L 850 2816 
L 850 3297 
L 1978 3297 
L 2297 4594 
L 2803 4594 
z
" transform="scale(0.015625)"/>
       <path id="DejaVuSans-20" transform="scale(0.015625)"/>
       <path id="DejaVuSans-66" d="M 2375 4863 
L 2375 4384 
L 1825 4384 
Q 1516 4384 1395 4259 
Q 1275 4134 1275 3809 
L 1275 3500 
L 2222 3500 
L 2222 3053 
L 1275 3053 
L 1275 0 
L 697 0 
L 697 3053 
L 147 3053 
L 147 3500 
L 697 3500 
L 697 3744 
Q 697 4328 969 4595 
Q 1241 4863 1831 4863 
L 2375 4863 
z
" transform="scale(0.015625)"/>
       <path id="DejaVuSans-2d" d="M 313 2009 
L 1997 2009 
L 1997 1497 
L 313 1497 
L 313 2009 
z
" transform="scale(0.015625)"/>
       <path id="DejaVuSans-65" d="M 3597 1894 
L 3597 1613 
L 953 1613 
Q 991 1019 1311 708 
Q 1631 397 2203 397 
Q 2534 397 2845 478 
Q 3156 559 3463 722 
L 3463 178 
Q 3153 47 2828 -22 
Q 2503 -91 2169 -91 
Q 1331 -91 842 396 
Q 353 884 353 1716 
Q 353 2575 817 3079 
Q 1281 3584 2069 3584 
Q 2775 3584 3186 3129 
Q 3597 2675 3597 1894 
z
M 3022 2063 
Q 3016 2534 2758 2815 
Q 2500 3097 2075 3097 
Q 1594 3097 1305 2825 
Q 1016 2553 972 2059 
L 3022 2063 
z
" transform="scale(0.015625)"/>
       <path id="DejaVuSans-76" d="M 191 3500 
L 800 3500 
L 1894 563 
L 2988 3500 
L 3597 3500 
L 2284 0 
L 1503 0 
L 191 3500 
z
" transform="scale(0.015625)"/>
       <path id="DejaVuSans-61" d="M 2194 1759 
Q 1497 1759 1228 1600 
Q 959 1441 959 1056 
Q 959 750 1161 570 
Q 1363 391 1709 391 
Q 2188 391 2477 730 
Q 2766 1069 2766 1631 
L 2766 1759 
L 2194 1759 
z
M 3341 1997 
L 3341 0 
L 2766 0 
L 2766 531 
Q 2569 213 2275 61 
Q 1981 -91 1556 -91 
Q 1019 -91 701 211 
Q 384 513 384 1019 
Q 384 1609 779 1909 
Q 1175 2209 1959 2209 
L 2766 2209 
L 2766 2266 
Q 2766 2663 2505 2880 
Q 2244 3097 1772 3097 
Q 1472 3097 1187 3025 
Q 903 2953 641 2809 
L 641 3341 
Q 956 3463 1253 3523 
Q 1550 3584 1831 3584 
Q 2591 3584 2966 3190 
Q 3341 2797 3341 1997 
z
" transform="scale(0.015625)"/>
       <path id="DejaVuSans-73" d="M 2834 3397 
L 2834 2853 
Q 2591 2978 2328 3040 
Q 2066 3103 1784 3103 
Q 1356 3103 1142 2972 
Q 928 2841 928 2578 
Q 928 2378 1081 2264 
Q 1234 2150 1697 2047 
L 1894 2003 
Q 2506 1872 2764 1633 
Q 3022 1394 3022 966 
Q 3022 478 2636 193 
Q 2250 -91 1575 -91 
Q 1294 -91 989 -36 
Q 684 19 347 128 
L 347 722 
Q 666 556 975 473 
Q 1284 391 1588 391 
Q 1994 391 2212 530 
Q 2431 669 2431 922 
Q 2431 1156 2273 1281 
Q 2116 1406 1581 1522 
L 1381 1569 
Q 847 1681 609 1914 
Q 372 2147 372 2553 
Q 372 3047 722 3315 
Q 1072 3584 1716 3584 
Q 2034 3584 2315 3537 
Q 2597 3491 2834 3397 
z
" transform="scale(0.015625)"/>
       <path id="DejaVuSans-2f" d="M 1625 4666 
L 2156 4666 
L 531 -594 
L 0 -594 
L 1625 4666 
z
" transform="scale(0.015625)"/>
       <path id="DejaVuSans-64" d="M 2906 2969 
L 2906 4863 
L 3481 4863 
L 3481 0 
L 2906 0 
L 2906 525 
Q 2725 213 2448 61 
Q 2172 -91 1784 -91 
Q 1150 -91 751 415 
Q 353 922 353 1747 
Q 353 2572 751 3078 
Q 1150 3584 1784 3584 
Q 2172 3584 2448 3432 
Q 2725 3281 2906 2969 
z
M 947 1747 
Q 947 1113 1208 752 
Q 1469 391 1925 391 
Q 2381 391 2643 752 
Q 2906 1113 2906 1747 
Q 2906 2381 2643 2742 
Q 2381 3103 1925 3103 
Q 1469 3103 1208 2742 
Q 947 2381 947 1747 
z
" transform="scale(0.015625)"/>
       <path id="DejaVuSans-69" d="M 603 3500 
L 1178 3500 
L 1178 0 
L 603 0 
L 603 3500 
z
M 603 4863 
L 1178 4863 
L 1178 4134 
L 603 4134 
L 603 4863 
z
" transform="scale(0.015625)"/>
       <path id="DejaVuSans-6d" d="M 3328 2828 
Q 3544 3216 3844 3400 
Q 4144 3584 4550 3584 
Q 5097 3584 5394 3201 
Q 5691 2819 5691 2113 
L 5691 0 
L 5113 0 
L 5113 2094 
Q 5113 2597 4934 2840 
Q 4756 3084 4391 3084 
Q 3944 3084 3684 2787 
Q 3425 2491 3425 1978 
L 3425 0 
L 2847 0 
L 2847 2094 
Q 2847 2600 2669 2842 
Q 2491 3084 2119 3084 
Q 1678 3084 1418 2786 
Q 1159 2488 1159 1978 
L 1159 0 
L 581 0 
L 581 3500 
L 1159 3500 
L 1159 2956 
Q 1356 3278 1631 3431 
Q 1906 3584 2284 3584 
Q 2666 3584 2933 3390 
Q 3200 3197 3328 2828 
z
" transform="scale(0.015625)"/>
       <path id="DejaVuSans-6e" d="M 3513 2113 
L 3513 0 
L 2938 0 
L 2938 2094 
Q 2938 2591 2744 2837 
Q 2550 3084 2163 3084 
Q 1697 3084 1428 2787 
Q 1159 2491 1159 1978 
L 1159 0 
L 581 0 
L 581 3500 
L 1159 3500 
L 1159 2956 
Q 1366 3272 1645 3428 
Q 1925 3584 2291 3584 
Q 2894 3584 3203 3211 
Q 3513 2838 3513 2113 
z
" transform="scale(0.015625)"/>
       <path id="DejaVuSans-29" d="M 513 4856 
L 1013 4856 
Q 1481 4119 1714 3412 
Q 1947 2706 1947 2009 
Q 1947 1309 1714 600 
Q 1481 -109 1013 -844 
L 513 -844 
Q 928 -128 1133 580 
Q 1338 1288 1338 2009 
Q 1338 2731 1133 3434 
Q 928 4138 513 4856 
z
" transform="scale(0.015625)"/>
      </defs>
      <use xlink:href="#DejaVuSans-6c"/>
      <use xlink:href="#DejaVuSans-6f" x="27.783203"/>
      <use xlink:href="#DejaVuSans-67" x="88.964844"/>
      <use xlink:href="#DejaVuSans-31" x="152.441406"/>
      <use xlink:href="#DejaVuSans-30" x="216.064453"/>
      <use xlink:href="#DejaVuSans-28" x="279.6875"/>
      <use xlink:href="#DejaVuSans-23" x="318.701172"/>
      <use xlink:href="#DejaVuSans-20" x="402.490234"/>
      <use xlink:href="#DejaVuSans-66" x="434.277344"/>
      <use xlink:href="#DejaVuSans-2d" x="463.982422"/>
      <use xlink:href="#DejaVuSans-65" x="500.066406"/>
      <use xlink:href="#DejaVuSans-76" x="561.589844"/>
      <use xlink:href="#DejaVuSans-61" x="620.769531"/>
      <use xlink:href="#DejaVuSans-6c" x="682.048828"/>
      <use xlink:href="#DejaVuSans-73" x="709.832031"/>
      <use xlink:href="#DejaVuSans-20" x="761.931641"/>
      <use xlink:href="#DejaVuSans-2f" x="793.71875"/>
      <use xlink:href="#DejaVuSans-20" x="827.410156"/>
      <use xlink:href="#DejaVuSans-64" x="859.197266"/>
      <use xlink:href="#DejaVuSans-69" x="922.673828"/>
      <use xlink:href="#DejaVuSans-6d" x="950.457031"/>
      <use xlink:href="#DejaVuSans-65" x="1047.869141"/>
      <use xlink:href="#DejaVuSans-6e" x="1109.392578"/>
      <use xlink:href="#DejaVuSans-73" x="1172.771484"/>
      <use xlink:href="#DejaVuSans-69" x="1224.871094"/>
      <use xlink:href="#DejaVuSans-6f" x="1252.654297"/>
      <use xlink:href="#DejaVuSans-6e" x="1313.835938"/>
      <use xlink:href="#DejaVuSans-29" x="1377.214844"/>
     </g>
    </g>
   </g>
   <g id="matplotlib.axis_2">
    <g id="ytick_1">
     <g id="line2d_21">
      <path d="M 57.6 298.944 
L 360.8064 298.944 
" clip-path="url(#p60812e24c2)" style="fill: none; stroke: #b0b0b0; stroke-width: 0.8; stroke-linecap: square"/>
     </g>
     <g id="line2d_22">
      <defs>
       <path id="m208d741f3a" d="M 0 0 
L -3.5 0 
" style="stroke: #000000; stroke-width: 0.8"/>
      </defs>
      <g>
       <use xlink:href="#m208d741f3a" x="57.6" y="298.944" style="stroke: #000000; stroke-width: 0.8"/>
      </g>
     </g>
     <g id="text_6">
      <!-- 0.0 -->
      <g transform="translate(25.155 305.02275)scale(0.16 -0.16)">
       <defs>
        <path id="DejaVuSans-2e" d="M 684 794 
L 1344 794 
L 1344 0 
L 684 0 
L 684 794 
z
" transform="scale(0.015625)"/>
       </defs>
       <use xlink:href="#DejaVuSans-30"/>
       <use xlink:href="#DejaVuSans-2e" x="63.623047"/>
       <use xlink:href="#DejaVuSans-30" x="95.410156"/>
      </g>
     </g>
    </g>
    <g id="ytick_2">
     <g id="line2d_23">
      <path d="M 57.6 240.5376 
L 360.8064 240.5376 
" clip-path="url(#p60812e24c2)" style="fill: none; stroke: #b0b0b0; stroke-width: 0.8; stroke-linecap: square"/>
     </g>
     <g id="line2d_24">
      <g>
       <use xlink:href="#m208d741f3a" x="57.6" y="240.5376" style="stroke: #000000; stroke-width: 0.8"/>
      </g>
     </g>
     <g id="text_7">
      <!-- 0.2 -->
      <g transform="translate(25.155 246.61635)scale(0.16 -0.16)">
       <use xlink:href="#DejaVuSans-30"/>
       <use xlink:href="#DejaVuSans-2e" x="63.623047"/>
       <use xlink:href="#DejaVuSans-32" x="95.410156"/>
      </g>
     </g>
    </g>
    <g id="ytick_3">
     <g id="line2d_25">
      <path d="M 57.6 182.1312 
L 360.8064 182.1312 
" clip-path="url(#p60812e24c2)" style="fill: none; stroke: #b0b0b0; stroke-width: 0.8; stroke-linecap: square"/>
     </g>
     <g id="line2d_26">
      <g>
       <use xlink:href="#m208d741f3a" x="57.6" y="182.1312" style="stroke: #000000; stroke-width: 0.8"/>
      </g>
     </g>
     <g id="text_8">
      <!-- 0.4 -->
      <g transform="translate(25.155 188.20995)scale(0.16 -0.16)">
       <use xlink:href="#DejaVuSans-30"/>
       <use xlink:href="#DejaVuSans-2e" x="63.623047"/>
       <use xlink:href="#DejaVuSans-34" x="95.410156"/>
      </g>
     </g>
    </g>
    <g id="ytick_4">
     <g id="line2d_27">
      <path d="M 57.6 123.7248 
L 360.8064 123.7248 
" clip-path="url(#p60812e24c2)" style="fill: none; stroke: #b0b0b0; stroke-width: 0.8; stroke-linecap: square"/>
     </g>
     <g id="line2d_28">
      <g>
       <use xlink:href="#m208d741f3a" x="57.6" y="123.7248" style="stroke: #000000; stroke-width: 0.8"/>
      </g>
     </g>
     <g id="text_9">
      <!-- 0.6 -->
      <g transform="translate(25.155 129.80355)scale(0.16 -0.16)">
       <use xlink:href="#DejaVuSans-30"/>
       <use xlink:href="#DejaVuSans-2e" x="63.623047"/>
       <use xlink:href="#DejaVuSans-36" x="95.410156"/>
      </g>
     </g>
    </g>
    <g id="ytick_5">
     <g id="line2d_29">
      <path d="M 57.6 65.3184 
L 360.8064 65.3184 
" clip-path="url(#p60812e24c2)" style="fill: none; stroke: #b0b0b0; stroke-width: 0.8; stroke-linecap: square"/>
     </g>
     <g id="line2d_30">
      <g>
       <use xlink:href="#m208d741f3a" x="57.6" y="65.3184" style="stroke: #000000; stroke-width: 0.8"/>
      </g>
     </g>
     <g id="text_10">
      <!-- 0.8 -->
      <g transform="translate(25.155 71.39715)scale(0.16 -0.16)">
       <defs>
        <path id="DejaVuSans-38" d="M 2034 2216 
Q 1584 2216 1326 1975 
Q 1069 1734 1069 1313 
Q 1069 891 1326 650 
Q 1584 409 2034 409 
Q 2484 409 2743 651 
Q 3003 894 3003 1313 
Q 3003 1734 2745 1975 
Q 2488 2216 2034 2216 
z
M 1403 2484 
Q 997 2584 770 2862 
Q 544 3141 544 3541 
Q 544 4100 942 4425 
Q 1341 4750 2034 4750 
Q 2731 4750 3128 4425 
Q 3525 4100 3525 3541 
Q 3525 3141 3298 2862 
Q 3072 2584 2669 2484 
Q 3125 2378 3379 2068 
Q 3634 1759 3634 1313 
Q 3634 634 3220 271 
Q 2806 -91 2034 -91 
Q 1263 -91 848 271 
Q 434 634 434 1313 
Q 434 1759 690 2068 
Q 947 2378 1403 2484 
z
M 1172 3481 
Q 1172 3119 1398 2916 
Q 1625 2713 2034 2713 
Q 2441 2713 2670 2916 
Q 2900 3119 2900 3481 
Q 2900 3844 2670 4047 
Q 2441 4250 2034 4250 
Q 1625 4250 1398 4047 
Q 1172 3844 1172 3481 
z
" transform="scale(0.015625)"/>
       </defs>
       <use xlink:href="#DejaVuSans-30"/>
       <use xlink:href="#DejaVuSans-2e" x="63.623047"/>
       <use xlink:href="#DejaVuSans-38" x="95.410156"/>
      </g>
     </g>
    </g>
    <g id="ytick_6">
     <g id="line2d_31">
      <path d="M 57.6 6.912 
L 360.8064 6.912 
" clip-path="url(#p60812e24c2)" style="fill: none; stroke: #b0b0b0; stroke-width: 0.8; stroke-linecap: square"/>
     </g>
     <g id="line2d_32">
      <g>
       <use xlink:href="#m208d741f3a" x="57.6" y="6.912" style="stroke: #000000; stroke-width: 0.8"/>
      </g>
     </g>
     <g id="text_11">
      <!-- 1.0 -->
      <g transform="translate(25.155 12.99075)scale(0.16 -0.16)">
       <use xlink:href="#DejaVuSans-31"/>
       <use xlink:href="#DejaVuSans-2e" x="63.623047"/>
       <use xlink:href="#DejaVuSans-30" x="95.410156"/>
      </g>
     </g>
    </g>
    <g id="text_12">
     <!-- Fraction of function,target pairs -->
     <g transform="translate(17.619531 287.313)rotate(-90)scale(0.17 -0.17)">
      <defs>
       <path id="DejaVuSans-46" d="M 628 4666 
L 3309 4666 
L 3309 4134 
L 1259 4134 
L 1259 2759 
L 3109 2759 
L 3109 2228 
L 1259 2228 
L 1259 0 
L 628 0 
L 628 4666 
z
" transform="scale(0.015625)"/>
       <path id="DejaVuSans-72" d="M 2631 2963 
Q 2534 3019 2420 3045 
Q 2306 3072 2169 3072 
Q 1681 3072 1420 2755 
Q 1159 2438 1159 1844 
L 1159 0 
L 581 0 
L 581 3500 
L 1159 3500 
L 1159 2956 
Q 1341 3275 1631 3429 
Q 1922 3584 2338 3584 
Q 2397 3584 2469 3576 
Q 2541 3569 2628 3553 
L 2631 2963 
z
" transform="scale(0.015625)"/>
       <path id="DejaVuSans-63" d="M 3122 3366 
L 3122 2828 
Q 2878 2963 2633 3030 
Q 2388 3097 2138 3097 
Q 1578 3097 1268 2742 
Q 959 2388 959 1747 
Q 959 1106 1268 751 
Q 1578 397 2138 397 
Q 2388 397 2633 464 
Q 2878 531 3122 666 
L 3122 134 
Q 2881 22 2623 -34 
Q 2366 -91 2075 -91 
Q 1284 -91 818 406 
Q 353 903 353 1747 
Q 353 2603 823 3093 
Q 1294 3584 2113 3584 
Q 2378 3584 2631 3529 
Q 2884 3475 3122 3366 
z
" transform="scale(0.015625)"/>
       <path id="DejaVuSans-74" d="M 1172 4494 
L 1172 3500 
L 2356 3500 
L 2356 3053 
L 1172 3053 
L 1172 1153 
Q 1172 725 1289 603 
Q 1406 481 1766 481 
L 2356 481 
L 2356 0 
L 1766 0 
Q 1100 0 847 248 
Q 594 497 594 1153 
L 594 3053 
L 172 3053 
L 172 3500 
L 594 3500 
L 594 4494 
L 1172 4494 
z
" transform="scale(0.015625)"/>
       <path id="DejaVuSans-75" d="M 544 1381 
L 544 3500 
L 1119 3500 
L 1119 1403 
Q 1119 906 1312 657 
Q 1506 409 1894 409 
Q 2359 409 2629 706 
Q 2900 1003 2900 1516 
L 2900 3500 
L 3475 3500 
L 3475 0 
L 2900 0 
L 2900 538 
Q 2691 219 2414 64 
Q 2138 -91 1772 -91 
Q 1169 -91 856 284 
Q 544 659 544 1381 
z
M 1991 3584 
L 1991 3584 
z
" transform="scale(0.015625)"/>
       <path id="DejaVuSans-2c" d="M 750 794 
L 1409 794 
L 1409 256 
L 897 -744 
L 494 -744 
L 750 256 
L 750 794 
z
" transform="scale(0.015625)"/>
       <path id="DejaVuSans-70" d="M 1159 525 
L 1159 -1331 
L 581 -1331 
L 581 3500 
L 1159 3500 
L 1159 2969 
Q 1341 3281 1617 3432 
Q 1894 3584 2278 3584 
Q 2916 3584 3314 3078 
Q 3713 2572 3713 1747 
Q 3713 922 3314 415 
Q 2916 -91 2278 -91 
Q 1894 -91 1617 61 
Q 1341 213 1159 525 
z
M 3116 1747 
Q 3116 2381 2855 2742 
Q 2594 3103 2138 3103 
Q 1681 3103 1420 2742 
Q 1159 2381 1159 1747 
Q 1159 1113 1420 752 
Q 1681 391 2138 391 
Q 2594 391 2855 752 
Q 3116 1113 3116 1747 
z
" transform="scale(0.015625)"/>
      </defs>
      <use xlink:href="#DejaVuSans-46"/>
      <use xlink:href="#DejaVuSans-72" x="50.269531"/>
      <use xlink:href="#DejaVuSans-61" x="91.382812"/>
      <use xlink:href="#DejaVuSans-63" x="152.662109"/>
      <use xlink:href="#DejaVuSans-74" x="207.642578"/>
      <use xlink:href="#DejaVuSans-69" x="246.851562"/>
      <use xlink:href="#DejaVuSans-6f" x="274.634766"/>
      <use xlink:href="#DejaVuSans-6e" x="335.816406"/>
      <use xlink:href="#DejaVuSans-20" x="399.195312"/>
      <use xlink:href="#DejaVuSans-6f" x="430.982422"/>
      <use xlink:href="#DejaVuSans-66" x="492.164062"/>
      <use xlink:href="#DejaVuSans-20" x="527.369141"/>
      <use xlink:href="#DejaVuSans-66" x="559.15625"/>
      <use xlink:href="#DejaVuSans-75" x="594.361328"/>
      <use xlink:href="#DejaVuSans-6e" x="657.740234"/>
      <use xlink:href="#DejaVuSans-63" x="721.119141"/>
      <use xlink:href="#DejaVuSans-74" x="776.099609"/>
      <use xlink:href="#DejaVuSans-69" x="815.308594"/>
      <use xlink:href="#DejaVuSans-6f" x="843.091797"/>
      <use xlink:href="#DejaVuSans-6e" x="904.273438"/>
      <use xlink:href="#DejaVuSans-2c" x="967.652344"/>
      <use xlink:href="#DejaVuSans-74" x="999.439453"/>
      <use xlink:href="#DejaVuSans-61" x="1038.648438"/>
      <use xlink:href="#DejaVuSans-72" x="1099.927734"/>
      <use xlink:href="#DejaVuSans-67" x="1139.291016"/>
      <use xlink:href="#DejaVuSans-65" x="1202.767578"/>
      <use xlink:href="#DejaVuSans-74" x="1264.291016"/>
      <use xlink:href="#DejaVuSans-20" x="1303.5"/>
      <use xlink:href="#DejaVuSans-70" x="1335.287109"/>
      <use xlink:href="#DejaVuSans-61" x="1398.763672"/>
      <use xlink:href="#DejaVuSans-69" x="1460.042969"/>
      <use xlink:href="#DejaVuSans-72" x="1487.826172"/>
      <use xlink:href="#DejaVuSans-73" x="1528.939453"/>
     </g>
    </g>
   </g>
   <g id="line2d_33">
    <defs>
     <path id="m6809379b4b" d="M 0 1.5 
C 0.397805 1.5 0.77937 1.341951 1.06066 1.06066 
C 1.341951 0.77937 1.5 0.397805 1.5 0 
C 1.5 -0.397805 1.341951 -0.77937 1.06066 -1.06066 
C 0.77937 -1.341951 0.397805 -1.5 0 -1.5 
C -0.397805 -1.5 -0.77937 -1.341951 -1.06066 -1.06066 
C -1.341951 -0.77937 -1.5 -0.397805 -1.5 0 
C -1.5 0.397805 -1.341951 0.77937 -1.06066 1.06066 
C -0.77937 1.341951 -0.397805 1.5 0 1.5 
z
" style="stroke: #f5deb3"/>
    </defs>
    <g>
     <use xlink:href="#m6809379b4b" x="266.951312" y="42.157241" style="fill: #f5deb3; stroke: #f5deb3"/>
     <use xlink:href="#m6809379b4b" x="266.951312" y="42.157241" style="fill: #f5deb3; stroke: #f5deb3"/>
    </g>
   </g>
   <g id="line2d_34">
    <defs>
     <path id="m1c9afc64ed" d="M 0 1.5 
C 0.397805 1.5 0.77937 1.341951 1.06066 1.06066 
C 1.341951 0.77937 1.5 0.397805 1.5 0 
C 1.5 -0.397805 1.341951 -0.77937 1.06066 -1.06066 
C 0.77937 -1.341951 0.397805 -1.5 0 -1.5 
C -0.397805 -1.5 -0.77937 -1.341951 -1.06066 -1.06066 
C -1.341951 -0.77937 -1.5 -0.397805 -1.5 0 
C -1.5 0.397805 -1.341951 0.77937 -1.06066 1.06066 
C -0.77937 1.341951 -0.397805 1.5 0 1.5 
z
" style="stroke: #000080"/>
    </defs>
    <g>
     <use xlink:href="#m1c9afc64ed" x="78.266603" y="269.363172" style="fill: #000080; stroke: #000080"/>
     <use xlink:href="#m1c9afc64ed" x="78.266603" y="269.363172" style="fill: #000080; stroke: #000080"/>
    </g>
   </g>
   <g id="line2d_35">
    <path d="M 36.933397 298.944 
L 36.933397 288.244552 
L 49.972572 288.244552 
L 49.972572 286.356414 
L 57.6 286.356414 
L 57.6 282.83189 
L 63.011746 282.83189 
L 63.011746 280.692 
L 67.209423 280.692 
L 67.209423 279.055614 
L 70.639174 279.055614 
L 70.639174 278.174483 
L 73.538988 278.174483 
L 73.538988 272.635945 
L 76.050921 272.635945 
L 76.050921 271.503062 
L 78.266603 271.503062 
L 78.266603 269.363172 
L 360.8064 269.363172 
" style="fill: none; stroke: #000080; stroke-width: 1.5; stroke-linecap: square"/>
   </g>
   <g id="line2d_36">
    <defs>
     <path id="md0063292b8" d="M 0 6 
C 1.591219 6 3.117479 5.367802 4.242641 4.242641 
C 5.367802 3.117479 6 1.591219 6 0 
C 6 -1.591219 5.367802 -3.117479 4.242641 -4.242641 
C 3.117479 -5.367802 1.591219 -6 0 -6 
C -1.591219 -6 -3.117479 -5.367802 -4.242641 -4.242641 
C -5.367802 -3.117479 -6 -1.591219 -6 0 
C -6 1.591219 -5.367802 3.117479 -4.242641 4.242641 
C -3.117479 5.367802 -1.591219 6 0 6 
z
" style="stroke: #000080; stroke-width: 1.5"/>
    </defs>
    <g>
     <use xlink:href="#md0063292b8" x="78.266603" y="271.503062" style="fill-opacity: 0; stroke: #000080; stroke-width: 1.5"/>
     <use xlink:href="#md0063292b8" x="78.266603" y="269.363172" style="fill-opacity: 0; stroke: #000080; stroke-width: 1.5"/>
     <use xlink:href="#md0063292b8" x="78.266603" y="269.363172" style="fill-opacity: 0; stroke: #000080; stroke-width: 1.5"/>
     <use xlink:href="#md0063292b8" x="78.266603" y="269.363172" style="fill-opacity: 0; stroke: #000080; stroke-width: 1.5"/>
     <use xlink:href="#md0063292b8" x="78.266603" y="269.363172" style="fill-opacity: 0; stroke: #000080; stroke-width: 1.5"/>
     <use xlink:href="#md0063292b8" x="360.8064" y="269.363172" style="fill-opacity: 0; stroke: #000080; stroke-width: 1.5"/>
    </g>
   </g>
   <g id="line2d_37">
    <path style="fill: none; stroke: #000080; stroke-width: 1.5; stroke-linecap: square"/>
    <g/>
   </g>
   <g id="line2d_38">
    <path d="M 78.266603 269.363172 
" clip-path="url(#p60812e24c2)" style="fill: none; stroke: #000080; stroke-width: 1.5; stroke-linecap: square"/>
    <defs>
     <path id="m7e05823e03" d="M -12 12 
L 12 -12 
M -12 -12 
L 12 12 
" style="stroke: #000080"/>
    </defs>
    <g clip-path="url(#p60812e24c2)">
     <use xlink:href="#m7e05823e03" x="78.266603" y="269.363172" style="fill: #000080; stroke: #000080"/>
    </g>
   </g>
   <g id="line2d_39">
    <defs>
     <path id="m3ad8b35024" d="M 0 1.5 
C 0.397805 1.5 0.77937 1.341951 1.06066 1.06066 
C 1.341951 0.77937 1.5 0.397805 1.5 0 
C 1.5 -0.397805 1.341951 -0.77937 1.06066 -1.06066 
C 0.77937 -1.341951 0.397805 -1.5 0 -1.5 
C -0.397805 -1.5 -0.77937 -1.341951 -1.06066 -1.06066 
C -1.341951 -0.77937 -1.5 -0.397805 -1.5 0 
C -1.5 0.397805 -1.341951 0.77937 -1.06066 1.06066 
C -0.77937 1.341951 -0.397805 1.5 0 1.5 
z
" style="stroke: #ff00ff"/>
    </defs>
    <g>
     <use xlink:href="#m3ad8b35024" x="274.125895" y="65.444276" style="fill: #ff00ff; stroke: #ff00ff"/>
     <use xlink:href="#m3ad8b35024" x="274.125895" y="65.444276" style="fill: #ff00ff; stroke: #ff00ff"/>
    </g>
   </g>
   <g id="line2d_40">
    <path d="M 36.933397 298.944 
L 36.933397 288.244552 
L 49.972572 288.244552 
L 49.972572 286.859917 
L 57.6 286.859917 
L 57.6 285.85291 
L 63.011746 285.85291 
L 63.011746 284.090648 
L 67.209423 284.090648 
L 67.209423 282.328386 
L 70.639174 282.328386 
L 70.639174 281.573131 
L 73.538988 281.573131 
L 73.538988 280.566124 
L 76.050921 280.566124 
L 76.050921 280.314372 
L 78.266603 280.314372 
L 78.266603 280.062621 
L 80.248597 280.062621 
L 80.248597 276.915724 
L 82.04153 276.915724 
L 82.04153 276.538097 
L 83.678349 276.538097 
L 83.678349 276.160469 
L 85.184077 276.160469 
L 85.184077 275.782841 
L 86.578163 275.782841 
L 86.578163 274.524083 
L 87.876026 274.524083 
L 87.876026 273.3912 
L 89.090095 273.3912 
L 89.090095 273.139448 
L 90.230539 273.139448 
L 90.230539 273.013572 
L 91.305777 273.013572 
L 91.305777 272.258317 
L 92.322865 272.258317 
L 92.322865 270.244303 
L 93.287772 270.244303 
L 93.287772 269.7408 
L 94.205591 269.7408 
L 94.205591 269.111421 
L 95.080704 269.111421 
L 95.080704 267.349159 
L 95.916911 267.349159 
L 95.916911 264.705766 
L 97.485448 264.705766 
L 97.485448 264.328138 
L 98.223251 264.328138 
L 98.223251 263.95051 
L 98.933205 263.95051 
L 98.933205 263.824634 
L 99.617337 263.824634 
L 99.617337 263.698759 
L 100.277459 263.698759 
L 100.277459 263.447007 
L 102.12927 263.447007 
L 102.12927 263.195255 
L 102.708132 263.195255 
L 102.708132 262.565876 
L 103.269713 262.565876 
L 103.269713 262.44 
L 104.344952 262.44 
L 104.344952 262.062372 
L 104.860369 262.062372 
L 104.860369 261.432993 
L 105.36204 261.432993 
L 105.36204 261.181241 
L 105.850679 261.181241 
L 105.850679 260.551862 
L 106.791453 260.551862 
L 106.791453 260.425986 
L 107.244765 260.425986 
L 107.244765 260.048359 
L 107.68741 260.048359 
L 107.68741 259.544855 
L 108.119879 259.544855 
L 108.119879 259.418979 
L 108.956085 259.418979 
L 108.956085 259.293103 
L 109.756698 259.293103 
L 109.756698 259.167228 
L 110.144579 259.167228 
L 110.144579 258.915476 
L 110.897141 258.915476 
L 110.897141 257.908469 
L 111.262425 257.908469 
L 111.262425 257.27909 
L 111.620752 257.27909 
L 111.620752 257.153214 
L 112.656511 257.153214 
L 112.656511 256.901462 
L 112.989468 256.901462 
L 112.989468 256.775586 
L 113.316634 256.775586 
L 113.316634 255.390952 
L 113.638206 255.390952 
L 113.638206 254.509821 
L 114.571202 254.509821 
L 114.571202 254.132193 
L 116.030193 254.132193 
L 116.030193 254.006317 
L 116.583514 254.006317 
L 116.583514 253.880441 
L 116.854188 253.880441 
L 116.854188 253.754566 
L 117.121023 253.754566 
L 117.121023 253.502814 
L 117.899543 253.502814 
L 117.899543 253.376938 
L 118.401214 253.376938 
L 118.401214 253.251062 
L 118.64712 253.251062 
L 118.64712 252.244055 
L 118.889854 252.244055 
L 118.889854 252.118179 
L 119.129494 252.118179 
L 119.129494 251.992303 
L 119.366121 251.992303 
L 119.366121 251.866428 
L 119.599808 251.866428 
L 119.599808 251.4888 
L 120.058649 251.4888 
L 120.058649 251.111172 
L 120.28394 251.111172 
L 120.28394 250.733545 
L 120.506564 250.733545 
L 120.506564 250.355917 
L 120.944062 250.355917 
L 120.944062 249.852414 
L 121.159053 249.852414 
L 121.159053 249.600662 
L 121.371615 249.600662 
L 121.371615 248.971283 
L 121.789667 248.971283 
L 121.789667 248.593655 
L 121.99526 248.593655 
L 121.99526 248.216028 
L 122.19863 248.216028 
L 122.19863 247.8384 
L 122.795872 247.8384 
L 122.795872 247.712524 
L 122.990812 247.712524 
L 122.990812 247.586648 
L 123.183753 247.586648 
L 123.183753 246.831393 
L 123.374735 246.831393 
L 123.374735 246.076138 
L 123.563797 246.076138 
L 123.563797 245.950262 
L 123.750979 245.950262 
L 123.750979 245.195007 
L 123.936316 245.195007 
L 123.936316 245.069131 
L 124.119844 245.069131 
L 124.119844 243.810372 
L 124.3016 243.810372 
L 124.3016 243.684497 
L 124.481616 243.684497 
L 124.481616 243.306869 
L 124.659926 243.306869 
L 124.659926 242.929241 
L 125.011554 242.929241 
L 125.011554 242.67749 
L 125.184934 242.67749 
L 125.184934 242.173986 
L 125.695686 242.173986 
L 125.695686 242.04811 
L 125.862901 242.04811 
L 125.862901 241.418731 
L 126.028642 241.418731 
L 126.028642 240.915228 
L 126.192937 240.915228 
L 126.192937 240.285848 
L 126.677381 240.285848 
L 126.677381 240.034097 
L 126.836129 240.034097 
L 126.836129 239.02709 
L 126.993549 239.02709 
L 126.993549 238.775338 
L 127.304491 238.775338 
L 127.304491 238.523586 
L 127.610376 238.523586 
L 127.610376 238.271834 
L 127.761474 238.271834 
L 127.761474 238.020083 
L 127.911368 238.020083 
L 127.911368 237.894207 
L 128.207619 237.894207 
L 128.207619 237.768331 
L 128.643427 237.768331 
L 128.643427 236.761324 
L 128.786481 236.761324 
L 128.786481 236.509572 
L 128.928456 236.509572 
L 128.928456 236.131945 
L 129.069367 236.131945 
L 129.069367 235.880193 
L 129.209231 235.880193 
L 129.209231 235.37669 
L 129.348062 235.37669 
L 129.348062 235.250814 
L 129.485876 235.250814 
L 129.485876 234.74731 
L 129.758512 234.74731 
L 129.758512 234.621434 
L 129.893363 234.621434 
L 129.893363 234.369683 
L 130.027253 234.369683 
L 130.027253 233.866179 
L 130.160198 233.866179 
L 130.160198 233.488552 
L 130.292209 233.488552 
L 130.292209 233.362676 
L 130.553485 233.362676 
L 130.553485 232.985048 
L 130.682774 232.985048 
L 130.682774 232.103917 
L 130.811181 232.103917 
L 130.811181 231.474538 
L 130.938718 231.474538 
L 130.938718 230.341655 
L 131.686295 230.341655 
L 131.686295 230.215779 
L 131.808053 230.215779 
L 131.808053 229.334648 
L 132.405295 229.334648 
L 132.405295 228.705269 
L 132.522502 228.705269 
L 132.522502 228.579393 
L 132.754746 228.579393 
L 132.754746 228.201766 
L 132.869802 228.201766 
L 132.869802 227.950014 
L 132.984158 227.950014 
L 132.984158 227.698262 
L 133.097823 227.698262 
L 133.097823 227.572386 
L 133.210806 227.572386 
L 133.210806 227.194759 
L 133.323114 227.194759 
L 133.323114 226.691255 
L 133.434756 226.691255 
L 133.545739 225.432497 
L 133.656071 225.432497 
L 133.765759 223.544359 
L 133.874812 223.544359 
L 133.983236 223.292607 
L 134.198228 223.292607 
L 134.304809 222.663228 
L 134.41079 222.663228 
L 134.516177 222.411476 
L 134.620977 222.411476 
L 134.620977 222.033848 
L 134.828842 222.033848 
L 134.931919 221.404469 
L 135.136394 221.404469 
L 135.237805 220.77509 
L 135.338671 220.77509 
L 135.438999 219.642207 
L 135.538796 219.642207 
L 135.538796 219.390455 
L 135.835047 219.390455 
L 135.932769 218.761076 
L 136.126705 218.761076 
L 136.222928 217.754069 
L 136.413909 217.754069 
L 136.508678 217.376441 
L 136.696795 217.376441 
L 136.696795 216.998814 
L 136.97549 216.998814 
L 137.067478 216.49531 
L 137.159019 216.49531 
L 137.159019 216.243559 
L 137.340774 216.243559 
L 137.340774 216.117683 
L 137.610157 216.117683 
L 137.610157 215.865931 
L 137.787626 215.865931 
L 137.787626 215.110676 
L 138.224108 215.110676 
L 138.224108 214.355421 
L 138.395904 214.355421 
L 138.395904 214.229545 
L 138.566146 214.229545 
L 138.650692 213.851917 
L 138.73486 213.851917 
L 138.818654 212.84491 
L 139.067817 212.84491 
L 139.067817 212.593159 
L 139.232111 212.593159 
L 139.232111 212.341407 
L 139.394983 212.341407 
L 139.394983 211.963779 
L 139.556456 211.963779 
L 139.556456 211.712028 
L 139.716555 211.712028 
L 139.716555 211.586152 
L 140.032723 211.586152 
L 140.110942 210.830897 
L 140.343665 210.830897 
L 140.420604 210.201517 
L 140.649551 210.201517 
L 140.649551 209.949766 
L 141.173167 209.949766 
L 141.246793 209.446262 
L 141.465959 209.446262 
L 141.465959 209.19451 
L 141.754265 209.19451 
L 141.754265 208.816883 
L 141.896777 208.816883 
L 141.896777 207.432248 
L 142.108542 207.432248 
L 142.178603 207.054621 
L 142.387236 207.054621 
L 142.387236 206.928745 
L 142.525051 206.928745 
L 142.525051 206.802869 
L 142.729897 206.802869 
L 142.729897 206.676993 
L 142.932537 206.676993 
L 142.932537 206.551117 
L 143.397043 206.551117 
L 143.397043 206.17349 
L 143.592659 206.17349 
L 143.657415 205.921738 
L 143.721949 205.921738 
L 143.786262 205.669986 
L 143.850356 205.669986 
L 143.850356 205.418234 
L 143.977892 205.418234 
L 143.977892 205.040607 
L 144.10457 205.040607 
L 144.10457 204.411228 
L 144.355394 204.411228 
L 144.355394 204.159476 
L 144.725469 204.159476 
L 144.725469 203.655972 
L 144.968202 203.655972 
L 144.968202 203.404221 
L 145.088405 203.404221 
L 145.088405 203.278345 
L 145.207843 203.278345 
L 145.207843 203.152469 
L 145.326529 203.152469 
L 145.326529 202.900717 
L 145.678157 202.900717 
L 145.678157 202.774841 
L 145.966241 202.774841 
L 145.966241 202.397214 
L 146.418192 202.397214 
L 146.418192 202.271338 
L 146.529503 202.271338 
L 146.529503 201.767834 
L 146.695245 201.767834 
L 146.695245 201.641959 
L 147.816265 201.641959 
L 147.816265 201.390207 
L 148.022421 201.390207 
L 148.022421 201.264331 
L 148.276979 201.264331 
L 148.32748 200.634952 
L 148.428077 200.634952 
L 148.428077 200.257324 
L 148.67724 200.257324 
L 148.67724 200.005572 
L 149.214052 200.005572 
L 149.214052 199.879697 
L 150.604701 199.879697 
L 150.693856 199.502069 
L 151.562904 199.502069 
L 151.562904 199.250317 
L 152.271285 199.250317 
L 152.271285 198.746814 
L 152.474656 198.746814 
L 152.555392 198.369186 
L 153.189104 198.369186 
L 153.189104 198.117434 
L 153.952355 198.117434 
L 153.952355 197.613931 
L 154.971412 197.613931 
L 154.971412 197.488055 
L 155.252711 197.488055 
L 155.322384 196.858676 
L 155.391799 196.858676 
L 155.391799 196.606924 
L 155.529866 196.606924 
L 155.529866 196.481048 
L 155.802997 196.481048 
L 155.802997 196.355172 
L 155.971711 196.355172 
L 155.971711 196.229297 
L 156.304668 196.229297 
L 156.370558 195.599917 
L 156.664239 195.599917 
L 156.664239 195.474041 
L 156.857511 195.474041 
L 156.857511 195.348166 
L 157.363398 195.348166 
L 157.456756 194.718786 
L 157.916719 194.718786 
L 157.916719 194.59291 
L 158.513014 194.59291 
L 158.513014 194.467034 
L 159.429436 194.467034 
L 159.429436 194.089407 
L 159.761902 194.089407 
L 159.816746 193.711779 
L 160.142495 193.711779 
L 160.142495 193.585903 
L 160.436223 193.585903 
L 160.436223 193.460028 
L 160.725435 193.460028 
L 160.82951 192.956524 
L 160.984551 192.956524 
L 160.984551 192.578897 
L 161.366654 192.578897 
L 161.366654 192.453021 
L 161.542347 192.453021 
L 161.567313 192.075393 
L 161.74115 192.075393 
L 161.74115 191.697766 
L 162.011118 191.697766 
L 162.011118 191.57189 
L 162.845206 191.57189 
L 162.845206 191.446014 
L 163.053839 191.446014 
L 163.053839 191.320138 
L 163.328465 191.320138 
L 163.373849 190.816634 
L 163.554297 190.816634 
L 163.554297 190.690759 
L 164.150838 190.690759 
L 164.259262 189.809628 
L 164.410013 189.809628 
L 164.495618 189.306124 
L 164.876089 189.306124 
L 164.876089 189.180248 
L 165.021997 189.180248 
L 165.021997 189.054372 
L 165.330896 189.054372 
L 165.330896 188.928497 
L 165.534047 188.928497 
L 165.534047 188.550869 
L 165.774966 188.550869 
L 165.814821 188.173241 
L 166.012839 188.173241 
L 166.012839 187.92149 
L 166.422014 187.92149 
L 166.479748 187.417986 
L 166.613775 187.417986 
L 166.689935 186.914483 
L 167.047544 186.914483 
L 167.047544 186.662731 
L 167.196106 186.662731 
L 167.196106 186.159228 
L 167.526142 186.159228 
L 167.526142 185.907476 
L 167.670986 185.907476 
L 167.689013 185.403972 
L 167.796816 185.403972 
L 167.886182 185.026345 
L 167.92181 185.026345 
L 167.92181 184.774593 
L 168.045979 184.774593 
L 168.045979 184.648717 
L 168.309328 184.648717 
L 168.378936 183.389959 
L 168.569041 183.389959 
L 168.67193 182.634703 
L 168.79126 182.634703 
L 168.825216 182.257076 
L 168.926718 182.257076 
L 168.994082 181.501821 
L 169.07795 181.501821 
L 169.07795 181.250069 
L 169.194741 181.250069 
L 169.194741 181.124193 
L 169.393282 181.124193 
L 169.491772 180.494814 
L 169.508137 180.494814 
L 169.508137 180.368938 
L 169.622295 180.368938 
L 169.703414 180.117186 
L 169.751918 180.117186 
L 169.848553 179.739559 
L 169.896685 179.739559 
L 169.992581 179.487807 
L 170.087991 179.487807 
L 170.087991 179.236055 
L 170.27737 179.236055 
L 170.324419 178.606676 
L 170.449309 178.606676 
L 170.526947 178.229048 
L 170.588827 178.229048 
L 170.650504 177.599669 
L 170.788543 177.599669 
L 170.788543 177.347917 
L 170.940741 177.347917 
L 171.016381 176.718538 
L 171.061619 176.718538 
L 171.166753 176.215034 
L 171.211632 176.215034 
L 171.315934 175.963283 
L 171.493403 175.963283 
L 171.566857 175.459779 
L 171.756506 175.459779 
L 171.843395 174.704524 
L 171.901099 174.704524 
L 171.915498 174.201021 
L 172.087425 174.201021 
L 172.144386 173.949269 
L 172.229507 173.949269 
L 172.328329 173.194014 
L 172.370523 173.194014 
L 172.454629 172.816386 
L 172.524431 172.816386 
L 172.552279 172.438759 
L 172.677089 172.438759 
L 172.773594 171.557628 
L 172.801076 171.557628 
L 172.910605 170.424745 
L 173.235417 170.424745 
L 173.289011 169.795366 
L 173.382435 169.795366 
L 173.409043 169.291862 
L 173.501874 169.291862 
L 173.607409 168.914234 
L 173.646832 168.914234 
L 173.646832 168.788359 
L 173.803705 168.788359 
L 173.855707 168.536607 
L 173.997974 168.536607 
L 173.997974 168.410731 
L 174.253918 168.410731 
L 174.253918 168.158979 
L 174.367966 168.158979 
L 174.431028 167.655476 
L 174.49388 167.655476 
L 174.569026 167.277848 
L 174.63142 167.277848 
L 174.643874 166.900221 
L 174.780325 166.900221 
L 174.891235 166.522593 
L 174.903518 166.522593 
L 175.001495 165.767338 
L 175.02591 165.767338 
L 175.02591 165.515586 
L 175.316441 165.515586 
L 175.388379 165.012083 
L 175.531433 165.012083 
L 175.590719 164.760331 
L 175.814319 164.760331 
L 175.907676 164.256828 
L 175.954182 164.256828 
L 175.954182 164.130952 
L 176.104537 164.130952 
L 176.185002 163.375697 
L 176.253699 163.375697 
L 176.344907 162.998069 
L 176.36764 162.998069 
L 176.458298 162.116938 
L 176.615906 162.116938 
L 176.705378 161.109931 
L 176.772205 161.109931 
L 176.872001 160.2288 
L 176.916185 160.2288 
L 176.916185 160.102924 
L 177.03716 160.102924 
L 177.080959 159.599421 
L 177.233457 159.599421 
L 177.341632 159.221793 
L 177.363192 159.221793 
L 177.470626 158.592414 
L 177.481335 158.592414 
L 177.481335 158.466538 
L 177.598741 158.466538 
L 177.673074 158.08891 
L 177.72599 158.08891 
L 177.778757 157.585407 
L 177.841883 157.585407 
L 177.904798 157.081903 
L 177.957067 157.081903 
L 177.957067 156.830152 
L 178.07155 156.830152 
L 178.07155 156.704276 
L 178.18534 156.704276 
L 178.18534 156.452524 
L 178.46176 156.452524 
L 178.553005 155.697269 
L 178.623668 155.697269 
L 178.684026 155.193766 
L 178.744191 155.193766 
L 178.804164 154.690262 
L 178.873892 154.690262 
L 178.933453 153.809131 
L 179.374254 153.809131 
L 179.441905 153.305628 
L 179.566899 153.305628 
L 179.566899 153.179752 
L 179.681545 153.179752 
L 179.776554 152.550372 
L 179.823878 152.550372 
L 179.889933 152.172745 
L 180.049394 152.172745 
L 180.13327 151.795117 
L 180.188981 151.795117 
L 180.29069 151.41749 
L 180.318334 151.41749 
L 180.391852 151.039862 
L 180.59256 151.039862 
L 180.683087 150.662234 
L 180.969881 150.662234 
L 181.076312 149.781103 
L 181.173347 149.781103 
L 181.234837 149.025848 
L 181.287383 149.025848 
L 181.322333 148.522345 
L 181.444147 148.522345 
L 181.496113 147.76709 
L 181.702552 147.76709 
L 181.702552 147.641214 
L 181.932119 147.641214 
L 181.957455 147.389462 
L 182.108755 147.389462 
L 182.217275 146.634207 
L 182.374764 146.634207 
L 182.399511 145.753076 
L 182.53913 145.753076 
L 182.612629 145.249572 
L 182.661469 145.249572 
L 182.766856 144.997821 
L 182.815298 144.997821 
L 182.887728 144.368441 
L 183.071568 144.368441 
L 183.071568 144.242566 
L 183.269378 144.242566 
L 183.340084 143.235559 
L 183.535105 143.235559 
L 183.535105 142.983807 
L 183.651154 142.983807 
L 183.689679 142.732055 
L 183.81243 142.732055 
L 183.873506 142.228552 
L 183.934385 142.228552 
L 184.010208 141.850924 
L 184.220899 141.850924 
L 184.280666 141.221545 
L 184.340243 141.221545 
L 184.429257 140.718041 
L 184.532577 140.718041 
L 184.539935 140.46629 
L 184.664589 140.46629 
L 184.766627 139.962786 
L 184.788421 139.962786 
L 184.788421 139.83691 
L 184.997802 139.83691 
L 185.083765 139.459283 
L 185.155102 139.459283 
L 185.261602 138.955779 
L 185.275757 138.955779 
L 185.275757 138.829903 
L 185.437775 138.829903 
L 185.437775 138.704028 
L 185.73008 138.704028 
L 185.826515 138.3264 
L 185.936123 138.3264 
L 185.970245 137.697021 
L 186.058675 137.697021 
L 186.112887 137.193517 
L 186.274591 137.193517 
L 186.314801 136.81589 
L 186.428265 136.81589 
L 186.428265 136.690014 
L 186.560881 136.690014 
L 186.620255 136.18651 
L 186.777675 136.18651 
L 186.875397 135.808883 
L 186.894881 135.808883 
L 186.914345 135.557131 
L 187.203908 135.557131 
L 187.203908 135.305379 
L 187.36287 135.305379 
L 187.463906 134.801876 
L 187.570665 134.801876 
L 187.595697 134.550124 
L 187.751397 134.550124 
L 187.819499 133.920745 
L 187.948831 133.920745 
L 188.046776 133.543117 
L 188.415583 133.543117 
L 188.493255 133.291366 
L 188.594344 133.291366 
L 188.594344 132.913738 
L 188.78904 132.913738 
L 188.78904 132.787862 
L 188.911896 132.787862 
L 188.911896 132.53611 
L 189.13795 132.53611 
L 189.178238 132.284359 
L 189.65508 132.284359 
L 189.666288 131.906731 
L 190.048909 131.906731 
L 190.098247 131.529103 
L 190.174739 131.529103 
L 190.272631 131.151476 
L 190.332204 131.151476 
L 190.364619 130.899724 
L 190.621949 130.899724 
L 190.706949 130.396221 
L 190.796843 130.396221 
L 190.854781 130.144469 
L 191.157358 130.144469 
L 191.239978 129.892717 
L 191.388809 129.892717 
L 191.39392 129.640966 
L 191.531398 129.640966 
L 191.531398 129.51509 
L 191.718178 129.51509 
L 191.803377 129.263338 
L 192.012231 129.263338 
L 192.110876 128.759834 
L 192.223682 128.759834 
L 192.223682 128.508083 
L 192.990238 128.508083 
L 193.097907 128.004579 
L 193.265204 128.004579 
L 193.265204 127.878703 
L 193.408083 127.878703 
L 193.408083 127.752828 
L 193.875165 127.752828 
L 193.875165 127.626952 
L 194.278396 127.626952 
L 194.383318 127.3752 
L 194.655985 127.3752 
L 194.655985 127.249324 
L 194.780182 127.249324 
L 194.780182 127.123448 
L 194.967068 127.123448 
L 195.059819 126.745821 
L 195.24396 126.745821 
L 195.281404 126.368193 
L 195.533247 126.368193 
L 195.566027 125.990566 
L 195.854472 125.990566 
L 195.882673 125.487062 
L 196.031033 125.487062 
L 196.031033 125.23531 
L 196.402768 125.23531 
L 196.402768 125.109434 
L 196.550983 125.109434 
L 196.570398 124.857683 
L 196.797999 124.857683 
L 196.84013 124.605931 
L 196.996339 124.605931 
L 197.098503 124.102428 
L 197.301184 124.102428 
L 197.301184 123.976552 
L 197.438807 123.976552 
L 197.438807 123.850676 
L 197.834855 123.850676 
L 197.834855 123.7248 
L 197.950618 123.7248 
L 197.950618 123.473048 
L 198.339677 123.473048 
L 198.339677 123.347172 
L 198.675794 123.347172 
L 198.675794 123.095421 
L 198.882858 123.095421 
L 198.965049 122.717793 
L 199.13175 122.717793 
L 199.13175 122.466041 
L 199.34728 122.466041 
L 199.34728 122.340166 
L 199.464112 122.340166 
L 199.464112 121.836662 
L 199.744862 121.836662 
L 199.810316 121.58491 
L 199.982677 121.58491 
L 200.034401 121.333159 
L 200.249466 121.333159 
L 200.249466 121.081407 
L 200.509377 121.081407 
L 200.597311 120.703779 
L 200.740888 120.703779 
L 200.747105 120.452028 
L 200.948069 120.452028 
L 201.055397 120.0744 
L 201.340656 120.0744 
L 201.340656 119.948524 
L 201.523483 119.948524 
L 201.523483 119.696772 
L 202.087608 119.696772 
L 202.087608 119.570897 
L 202.530993 119.570897 
L 202.621244 119.193269 
L 202.652168 119.193269 
L 202.652168 118.941517 
L 203.011077 118.941517 
L 203.101801 118.689766 
L 203.322651 118.689766 
L 203.322651 118.56389 
L 203.631815 118.56389 
L 203.631815 118.438014 
L 203.78848 118.438014 
L 203.854471 118.060386 
L 204.121343 118.060386 
L 204.126539 117.682759 
L 204.343448 117.682759 
L 204.343448 117.556883 
L 204.575645 117.556883 
L 204.623767 117.305131 
L 204.987008 117.305131 
L 205.019234 116.801628 
L 205.10819 116.801628 
L 205.10819 116.675752 
L 205.599673 116.675752 
L 205.652434 116.172248 
L 205.902227 116.172248 
L 205.9777 115.794621 
L 206.146414 115.794621 
L 206.146414 115.542869 
L 206.373649 115.542869 
L 206.438072 115.165241 
L 206.618657 115.165241 
L 206.618657 115.039366 
L 206.799778 115.039366 
L 206.84254 114.661738 
L 207.061567 114.661738 
L 207.112604 113.906483 
L 207.341667 113.906483 
L 207.400682 113.654731 
L 207.6155 113.654731 
L 207.658601 113.277103 
L 207.789453 113.277103 
L 207.789453 113.025352 
L 208.063212 113.025352 
L 208.115808 112.7736 
L 208.322657 112.7736 
L 208.343425 112.395972 
L 208.584721 112.395972 
L 208.584721 112.270097 
L 208.859347 112.270097 
L 208.964068 111.640717 
L 209.022218 111.640717 
L 209.022218 111.514841 
L 209.381149 111.514841 
L 209.398819 111.137214 
L 209.89269 111.137214 
L 209.89269 111.011338 
L 210.039307 111.011338 
L 210.080988 110.759586 
L 210.192316 110.759586 
L 210.263672 110.381959 
L 210.390689 110.381959 
L 210.390689 110.256083 
L 210.509456 110.256083 
L 210.561182 109.878455 
L 210.710021 109.878455 
L 210.819519 109.374952 
L 210.953693 109.374952 
L 211.000609 108.997324 
L 211.558161 108.997324 
L 211.629757 108.493821 
L 211.678497 108.493821 
L 211.678497 108.242069 
L 212.000806 108.242069 
L 212.096262 107.61269 
L 212.292464 107.61269 
L 212.292464 107.486814 
L 212.558114 107.486814 
L 212.558114 107.360938 
L 212.678834 107.360938 
L 212.678834 107.235062 
L 212.898433 107.235062 
L 212.93099 106.857434 
L 213.054196 106.857434 
L 213.157326 106.479807 
L 213.271079 106.479807 
L 213.271079 106.353931 
L 213.569002 106.353931 
L 213.569002 106.102179 
L 213.789388 106.102179 
L 213.789388 105.976303 
L 213.919465 105.976303 
L 213.936433 105.598676 
L 214.210411 105.598676 
L 214.210411 105.346924 
L 214.423451 105.346924 
L 214.423451 105.221048 
L 214.576075 105.221048 
L 214.644502 104.843421 
L 214.700842 104.843421 
L 214.700842 104.717545 
L 214.971284 104.717545 
L 214.982955 104.214041 
L 215.13691 104.214041 
L 215.13691 103.96229 
L 215.346921 103.96229 
L 215.428279 103.584662 
L 215.53338 103.584662 
L 215.53338 103.33291 
L 216.025432 103.33291 
L 216.109409 102.955283 
L 216.183438 102.955283 
L 216.250362 102.451779 
L 216.750813 102.451779 
L 216.750813 102.325903 
L 217.22147 102.325903 
L 217.22147 102.200028 
L 217.345358 102.200028 
L 217.345358 101.948276 
L 217.590713 101.948276 
L 217.590713 101.696524 
L 217.825387 101.696524 
L 217.911705 101.318897 
L 218.04726 101.318897 
L 218.04726 101.067145 
L 218.178153 101.067145 
L 218.178153 100.941269 
L 218.310586 100.941269 
L 218.319138 100.563641 
L 218.588347 100.563641 
L 218.588347 100.437766 
L 218.772857 100.437766 
L 218.81573 100.186014 
L 218.904735 100.186014 
L 218.929582 99.934262 
L 219.101421 99.934262 
L 219.197249 99.68251 
L 219.330826 99.68251 
L 219.330826 99.430759 
L 219.715754 99.430759 
L 219.715754 99.179007 
L 219.981487 99.179007 
L 219.981487 99.053131 
L 220.200467 99.053131 
L 220.264456 98.675503 
L 220.550826 98.675503 
L 220.550826 98.423752 
L 220.76975 98.423752 
L 220.76975 98.172 
L 221.39816 98.172 
L 221.430278 97.794372 
L 221.907607 97.794372 
L 221.907607 97.668497 
L 222.153264 97.668497 
L 222.153264 97.542621 
L 222.404603 97.542621 
L 222.404603 97.290869 
L 222.626418 97.290869 
L 222.678802 97.039117 
L 222.833162 97.039117 
L 222.931865 96.66149 
L 223.301909 96.66149 
L 223.301909 96.535614 
L 223.572664 96.535614 
L 223.572664 96.409738 
L 223.740958 96.409738 
L 223.762003 96.03211 
L 224.060498 96.03211 
L 224.060498 95.906234 
L 224.188776 95.906234 
L 224.188776 95.780359 
L 224.397702 95.780359 
L 224.397702 95.654483 
L 224.898465 95.654483 
L 224.904491 95.402731 
L 225.251544 95.402731 
L 225.251544 95.276855 
L 225.603094 95.276855 
L 225.603094 95.025103 
L 226.006724 95.025103 
L 226.101448 94.647476 
L 226.588513 94.647476 
L 226.588513 94.5216 
L 226.742123 94.5216 
L 226.818459 94.269848 
L 227.131453 94.269848 
L 227.132982 93.766345 
L 227.909498 93.766345 
L 227.998781 93.262841 
L 228.503737 93.262841 
L 228.573262 92.885214 
L 228.749468 92.885214 
L 228.810402 92.507586 
L 228.957371 92.507586 
L 229.025242 92.129959 
L 229.240391 92.129959 
L 229.240391 91.878207 
L 229.78534 91.878207 
L 229.78534 91.752331 
L 230.082421 91.752331 
L 230.082421 91.500579 
L 230.243805 91.500579 
L 230.300739 91.122952 
L 230.633061 91.122952 
L 230.633061 90.745324 
L 231.146437 90.745324 
L 231.146437 90.619448 
L 232.551416 90.619448 
L 232.551416 90.367697 
L 233.380569 90.367697 
L 233.418921 89.990069 
L 233.524804 89.990069 
L 233.524804 89.864193 
L 233.934486 89.864193 
L 233.934486 89.612441 
L 234.206758 89.612441 
L 234.270684 89.36069 
L 234.337 89.36069 
L 234.419179 88.983062 
L 234.621528 88.983062 
L 234.621528 88.857186 
L 234.829342 88.857186 
L 234.829342 88.73131 
L 235.576009 88.73131 
L 235.590156 88.353683 
L 235.796761 88.353683 
L 235.796761 88.227807 
L 236.255138 88.227807 
L 236.255138 88.101931 
L 237.229739 88.101931 
L 237.229739 87.850179 
L 237.840971 87.850179 
L 237.840971 87.724303 
L 238.312251 87.724303 
L 238.312251 87.598428 
L 238.602422 87.598428 
L 238.643098 87.094924 
L 239.159187 87.094924 
L 239.159187 86.969048 
L 239.460511 86.969048 
L 239.460511 86.843172 
L 239.685046 86.843172 
L 239.685046 86.717297 
L 239.854913 86.717297 
L 239.88327 86.465545 
L 240.637278 86.465545 
L 240.637278 86.339669 
L 241.740526 86.339669 
L 241.740526 86.213793 
L 242.83248 86.213793 
L 242.907325 85.584414 
L 243.16468 85.584414 
L 243.236269 84.829159 
L 243.376055 84.829159 
L 243.376055 84.577407 
L 243.619483 84.577407 
L 243.619483 84.451531 
L 243.82741 84.451531 
L 243.82741 84.199779 
L 244.064481 84.199779 
L 244.064481 83.822152 
L 244.410002 83.822152 
L 244.457543 83.318648 
L 245.622088 83.318648 
L 245.708007 82.437517 
L 245.772545 82.437517 
L 245.777085 81.934014 
L 246.045575 81.934014 
L 246.112869 81.556386 
L 246.538108 81.556386 
L 246.538108 81.304634 
L 247.153063 81.304634 
L 247.240421 80.927007 
L 247.392848 80.927007 
L 247.456277 80.675255 
L 248.599071 80.675255 
L 248.599071 80.549379 
L 249.229004 80.549379 
L 249.262983 80.045876 
L 249.372525 80.045876 
L 249.372525 79.92 
L 249.661633 79.92 
L 249.661633 79.794124 
L 249.803049 79.794124 
L 249.907677 79.542372 
L 250.029842 79.542372 
L 250.104386 78.912993 
L 250.141322 78.912993 
L 250.141322 78.787117 
L 250.320466 78.787117 
L 250.320466 78.661241 
L 250.501452 78.661241 
L 250.501452 78.535366 
L 250.825333 78.535366 
L 250.915375 78.157738 
L 251.042129 78.157738 
L 251.042129 77.905986 
L 251.709823 77.905986 
L 251.764599 77.654234 
L 251.868131 77.654234 
L 251.971302 77.276607 
L 252.317587 77.276607 
L 252.368825 77.024855 
L 252.727947 77.024855 
L 252.727947 76.773103 
L 252.943974 76.773103 
L 252.943974 76.647228 
L 253.396567 76.647228 
L 253.423987 76.143724 
L 254.281897 76.143724 
L 254.281897 75.891972 
L 255.017498 75.891972 
L 255.017498 75.640221 
L 255.268439 75.640221 
L 255.274948 75.262593 
L 256.981271 75.262593 
L 257.038587 74.884966 
L 257.150372 74.884966 
L 257.150372 74.75909 
L 257.651762 74.75909 
L 257.651762 74.507338 
L 258.759708 74.507338 
L 258.798943 74.12971 
L 259.986457 74.12971 
L 259.986457 74.003834 
L 260.275132 74.003834 
L 260.295208 73.500331 
L 260.542107 73.500331 
L 260.542107 73.248579 
L 260.859516 73.248579 
L 260.859516 73.122703 
L 261.130178 73.122703 
L 261.130178 72.996828 
L 262.399507 72.996828 
L 262.495189 72.745076 
L 262.555181 72.745076 
L 262.555181 72.493324 
L 263.00599 72.493324 
L 263.00599 72.241572 
L 263.181734 72.241572 
L 263.181734 72.115697 
L 263.477612 72.115697 
L 263.477612 71.989821 
L 264.862402 71.989821 
L 264.862402 71.863945 
L 264.994138 71.863945 
L 264.994138 71.612193 
L 265.421286 71.612193 
L 265.421286 71.360441 
L 265.57505 71.360441 
L 265.57505 71.234566 
L 265.894932 71.234566 
L 265.894932 71.10869 
L 266.024201 71.10869 
L 266.10132 70.605186 
L 266.668956 70.605186 
L 266.668956 70.47931 
L 267.102062 70.47931 
L 267.102062 70.353434 
L 267.467466 70.353434 
L 267.578121 69.975807 
L 267.785261 69.975807 
L 267.785261 69.724055 
L 267.995458 69.724055 
L 267.995458 69.472303 
L 268.11717 69.472303 
L 268.11717 69.346428 
L 268.429797 69.346428 
L 268.533426 68.339421 
L 268.564378 68.339421 
L 268.668784 67.710041 
L 268.733461 67.710041 
L 268.733461 67.584166 
L 268.875788 67.584166 
L 268.88551 67.080662 
L 269.055448 67.080662 
L 269.055448 66.82891 
L 269.207459 66.82891 
L 269.225823 66.577159 
L 269.664228 66.577159 
L 269.730105 66.325407 
L 271.014535 66.325407 
L 271.014535 66.199531 
L 271.140148 66.199531 
L 271.140148 65.947779 
L 272.649197 65.947779 
L 272.660958 65.696028 
L 273.530344 65.696028 
L 273.530344 65.570152 
L 274.125895 65.570152 
L 274.125895 65.444276 
L 360.8064 65.444276 
L 360.8064 65.444276 
" style="fill: none; stroke: #ff00ff; stroke-width: 1.5; stroke-linecap: square"/>
   </g>
   <g id="line2d_41">
    <defs>
     <path id="m6a054995fa" d="M 0 8.485281 
L 5.091169 0 
L 0 -8.485281 
L -5.091169 0 
z
" style="stroke: #ff00ff; stroke-width: 1.5; stroke-linejoin: miter"/>
    </defs>
    <g>
     <use xlink:href="#m6a054995fa" x="100.277459" y="263.698759" style="fill-opacity: 0; stroke: #ff00ff; stroke-width: 1.5; stroke-linejoin: miter"/>
     <use xlink:href="#m6a054995fa" x="157.456756" y="194.970538" style="fill-opacity: 0; stroke: #ff00ff; stroke-width: 1.5; stroke-linejoin: miter"/>
     <use xlink:href="#m6a054995fa" x="206.146414" y="115.542869" style="fill-opacity: 0; stroke: #ff00ff; stroke-width: 1.5; stroke-linejoin: miter"/>
     <use xlink:href="#m6a054995fa" x="271.140148" y="65.947779" style="fill-opacity: 0; stroke: #ff00ff; stroke-width: 1.5; stroke-linejoin: miter"/>
     <use xlink:href="#m6a054995fa" x="274.125895" y="65.444276" style="fill-opacity: 0; stroke: #ff00ff; stroke-width: 1.5; stroke-linejoin: miter"/>
     <use xlink:href="#m6a054995fa" x="360.8064" y="65.444276" style="fill-opacity: 0; stroke: #ff00ff; stroke-width: 1.5; stroke-linejoin: miter"/>
    </g>
   </g>
   <g id="line2d_42">
    <path style="fill: none; stroke: #ff00ff; stroke-width: 1.5; stroke-linecap: square"/>
    <g/>
   </g>
   <g id="line2d_43">
    <path d="M 274.176063 65.444276 
" clip-path="url(#p60812e24c2)" style="fill: none; stroke: #ff00ff; stroke-width: 1.5; stroke-linecap: square"/>
    <defs>
     <path id="m8272b1a413" d="M -12 12 
L 12 -12 
M -12 -12 
L 12 12 
" style="stroke: #ff00ff"/>
    </defs>
    <g clip-path="url(#p60812e24c2)">
     <use xlink:href="#m8272b1a413" x="274.176063" y="65.444276" style="fill: #ff00ff; stroke: #ff00ff"/>
    </g>
   </g>
   <g id="line2d_44">
    <defs>
     <path id="m0374087006" d="M 0 1.5 
C 0.397805 1.5 0.77937 1.341951 1.06066 1.06066 
C 1.341951 0.77937 1.5 0.397805 1.5 0 
C 1.5 -0.397805 1.341951 -0.77937 1.06066 -1.06066 
C 0.77937 -1.341951 0.397805 -1.5 0 -1.5 
C -0.397805 -1.5 -0.77937 -1.341951 -1.06066 -1.06066 
C -1.341951 -0.77937 -1.5 -0.397805 -1.5 0 
C -1.5 0.397805 -1.341951 0.77937 -1.06066 1.06066 
C -0.77937 1.341951 -0.397805 1.5 0 1.5 
z
" style="stroke: #6495ed"/>
    </defs>
    <g>
     <use xlink:href="#m0374087006" x="113.954374" y="213.851917" style="fill: #6495ed; stroke: #6495ed"/>
     <use xlink:href="#m0374087006" x="113.954374" y="213.851917" style="fill: #6495ed; stroke: #6495ed"/>
    </g>
   </g>
   <g id="line2d_45">
    <path d="M 36.933397 298.944 
L 36.933397 293.531338 
L 49.972572 293.531338 
L 49.972572 291.265572 
L 57.6 291.265572 
L 57.6 288.244552 
L 63.011746 288.244552 
L 63.011746 286.104662 
L 67.209423 286.104662 
L 67.209423 283.083641 
L 70.639174 283.083641 
L 70.639174 281.321379 
L 73.538988 281.321379 
L 73.538988 280.692 
L 76.050921 280.692 
L 76.050921 279.055614 
L 78.266603 279.055614 
L 78.266603 278.300359 
L 80.248597 278.300359 
L 80.248597 275.656966 
L 82.04153 275.656966 
L 82.04153 273.642952 
L 83.678349 273.642952 
L 83.678349 273.139448 
L 85.184077 273.139448 
L 85.184077 271.377186 
L 86.578163 271.377186 
L 86.578163 268.607917 
L 87.876026 268.607917 
L 87.876026 267.978538 
L 89.090095 267.978538 
L 89.090095 267.60091 
L 90.230539 267.60091 
L 90.230539 266.971531 
L 92.322865 266.971531 
L 92.322865 266.719779 
L 93.287772 266.719779 
L 93.287772 266.216276 
L 94.205591 266.216276 
L 94.205591 266.0904 
L 95.080704 266.0904 
L 95.080704 265.964524 
L 96.717523 265.964524 
L 96.717523 265.209269 
L 97.485448 265.209269 
L 97.485448 264.57989 
L 98.223251 264.57989 
L 98.223251 264.202262 
L 99.617337 264.202262 
L 99.617337 263.321131 
L 100.277459 263.321131 
L 100.277459 263.069379 
L 100.9152 263.069379 
L 100.9152 262.943503 
L 101.532027 262.943503 
L 101.532027 262.691752 
L 102.12927 262.691752 
L 102.12927 262.314124 
L 102.708132 262.314124 
L 102.708132 259.167228 
L 103.269713 259.167228 
L 103.269713 256.272083 
L 103.815014 256.272083 
L 103.815014 250.985297 
L 104.344952 250.985297 
L 104.344952 248.593655 
L 104.860369 248.593655 
L 104.860369 245.572634 
L 105.36204 245.572634 
L 105.36204 244.439752 
L 105.850679 244.439752 
L 105.850679 242.425738 
L 106.326946 242.425738 
L 106.326946 238.020083 
L 106.791453 238.020083 
L 106.791453 237.264828 
L 107.244765 237.264828 
L 107.244765 235.628441 
L 107.68741 235.628441 
L 107.68741 233.2368 
L 108.119879 233.2368 
L 108.119879 230.845159 
L 108.542628 230.845159 
L 108.542628 230.215779 
L 108.956085 230.215779 
L 108.956085 228.453517 
L 109.360651 228.453517 
L 109.360651 225.684248 
L 109.756698 225.684248 
L 109.756698 224.173738 
L 110.144579 224.173738 
L 110.144579 223.166731 
L 110.524623 223.166731 
L 110.524623 223.040855 
L 110.897141 223.040855 
L 110.897141 220.397462 
L 111.262425 220.397462 
L 111.262425 218.131697 
L 111.620752 218.131697 
L 111.620752 217.376441 
L 111.97238 217.376441 
L 111.97238 217.250566 
L 112.317555 217.250566 
L 112.317555 215.865931 
L 112.656511 215.865931 
L 112.656511 215.362428 
L 112.989468 215.362428 
L 112.989468 215.110676 
L 113.316634 215.110676 
L 113.316634 214.481297 
L 113.954374 214.481297 
L 113.954374 213.851917 
L 360.8064 213.851917 
" style="fill: none; stroke: #6495ed; stroke-width: 1.5; stroke-linecap: square"/>
   </g>
   <g id="line2d_46">
    <defs>
     <path id="mb42970a412" d="M -0 6 
L 6 -6 
L -6 -6 
z
" style="stroke: #6495ed; stroke-width: 1.5; stroke-linejoin: miter"/>
    </defs>
    <g>
     <use xlink:href="#mb42970a412" x="111.262425" y="220.397462" style="fill-opacity: 0; stroke: #6495ed; stroke-width: 1.5; stroke-linejoin: miter"/>
     <use xlink:href="#mb42970a412" x="113.954374" y="214.481297" style="fill-opacity: 0; stroke: #6495ed; stroke-width: 1.5; stroke-linejoin: miter"/>
     <use xlink:href="#mb42970a412" x="113.954374" y="213.851917" style="fill-opacity: 0; stroke: #6495ed; stroke-width: 1.5; stroke-linejoin: miter"/>
     <use xlink:href="#mb42970a412" x="113.954374" y="213.851917" style="fill-opacity: 0; stroke: #6495ed; stroke-width: 1.5; stroke-linejoin: miter"/>
     <use xlink:href="#mb42970a412" x="113.954374" y="213.851917" style="fill-opacity: 0; stroke: #6495ed; stroke-width: 1.5; stroke-linejoin: miter"/>
     <use xlink:href="#mb42970a412" x="360.8064" y="213.851917" style="fill-opacity: 0; stroke: #6495ed; stroke-width: 1.5; stroke-linejoin: miter"/>
    </g>
   </g>
   <g id="line2d_47">
    <path style="fill: none; stroke: #6495ed; stroke-width: 1.5; stroke-linecap: square"/>
    <g/>
   </g>
   <g id="line2d_48">
    <path d="M 113.954374 213.851917 
" clip-path="url(#p60812e24c2)" style="fill: none; stroke: #6495ed; stroke-width: 1.5; stroke-linecap: square"/>
    <defs>
     <path id="ma00611cfa7" d="M -12 12 
L 12 -12 
M -12 -12 
L 12 12 
" style="stroke: #6495ed"/>
    </defs>
    <g clip-path="url(#p60812e24c2)">
     <use xlink:href="#ma00611cfa7" x="113.954374" y="213.851917" style="fill: #6495ed; stroke: #6495ed"/>
    </g>
   </g>
   <g id="line2d_49">
    <path d="M 360.8064 269.363172 
L 380.514816 293.10336 
" style="fill: none; stroke: #000080; stroke-width: 1.5; stroke-linecap: square"/>
    <g>
     <use xlink:href="#md0063292b8" x="360.8064" y="269.363172" style="fill-opacity: 0; stroke: #000080; stroke-width: 1.5"/>
     <use xlink:href="#md0063292b8" x="380.514816" y="293.10336" style="fill-opacity: 0; stroke: #000080; stroke-width: 1.5"/>
    </g>
   </g>
   <g id="line2d_50">
    <path d="M 360.8064 213.851917 
L 380.514816 199.65312 
" style="fill: none; stroke: #6495ed; stroke-width: 1.5; stroke-linecap: square"/>
    <g>
     <use xlink:href="#mb42970a412" x="360.8064" y="213.851917" style="fill-opacity: 0; stroke: #6495ed; stroke-width: 1.5; stroke-linejoin: miter"/>
     <use xlink:href="#mb42970a412" x="380.514816" y="199.65312" style="fill-opacity: 0; stroke: #6495ed; stroke-width: 1.5; stroke-linejoin: miter"/>
    </g>
   </g>
   <g id="line2d_51">
    <path d="M 360.8064 65.444276 
L 380.514816 106.20288 
" style="fill: none; stroke: #ff00ff; stroke-width: 1.5; stroke-linecap: square"/>
    <g>
     <use xlink:href="#m6a054995fa" x="360.8064" y="65.444276" style="fill-opacity: 0; stroke: #ff00ff; stroke-width: 1.5; stroke-linejoin: miter"/>
     <use xlink:href="#m6a054995fa" x="380.514816" y="106.20288" style="fill-opacity: 0; stroke: #ff00ff; stroke-width: 1.5; stroke-linejoin: miter"/>
    </g>
   </g>
   <g id="line2d_52">
    <path d="M 360.8064 298.944 
L 360.8064 6.912 
" style="fill: none; stroke: #000000; stroke-width: 1.5; stroke-linecap: square"/>
   </g>
   <g id="patch_3">
    <path d="M 57.6 298.944 
L 360.8064 298.944 
" style="fill: none; stroke: #000000; stroke-width: 0.8; stroke-linejoin: miter; stroke-linecap: square"/>
   </g>
   <g id="patch_4">
    <path d="M 57.6 6.912 
L 360.8064 6.912 
" style="fill: none; stroke: #000000; stroke-width: 0.8; stroke-linejoin: miter; stroke-linecap: square"/>
   </g>
   <g id="text_13">
    <!-- cma -->
    <g transform="translate(386.578944 296.966485)scale(0.14 -0.14)">
     <use xlink:href="#DejaVuSans-63"/>
     <use xlink:href="#DejaVuSans-6d" x="54.980469"/>
     <use xlink:href="#DejaVuSans-61" x="152.392578"/>
    </g>
   </g>
   <g id="text_14">
    <!-- parEgo -->
    <g transform="translate(386.578944 203.516245)scale(0.14 -0.14)">
     <defs>
      <path id="DejaVuSans-45" d="M 628 4666 
L 3578 4666 
L 3578 4134 
L 1259 4134 
L 1259 2753 
L 3481 2753 
L 3481 2222 
L 1259 2222 
L 1259 531 
L 3634 531 
L 3634 0 
L 628 0 
L 628 4666 
z
" transform="scale(0.015625)"/>
     </defs>
     <use xlink:href="#DejaVuSans-70"/>
     <use xlink:href="#DejaVuSans-61" x="63.476562"/>
     <use xlink:href="#DejaVuSans-72" x="124.755859"/>
     <use xlink:href="#DejaVuSans-45" x="165.869141"/>
     <use xlink:href="#DejaVuSans-67" x="229.052734"/>
     <use xlink:href="#DejaVuSans-6f" x="292.529297"/>
    </g>
   </g>
   <g id="text_15">
    <!-- external- -->
    <g transform="translate(386.578944 110.066005)scale(0.14 -0.14)">
     <defs>
      <path id="DejaVuSans-78" d="M 3513 3500 
L 2247 1797 
L 3578 0 
L 2900 0 
L 1881 1375 
L 863 0 
L 184 0 
L 1544 1831 
L 300 3500 
L 978 3500 
L 1906 2253 
L 2834 3500 
L 3513 3500 
z
" transform="scale(0.015625)"/>
     </defs>
     <use xlink:href="#DejaVuSans-65"/>
     <use xlink:href="#DejaVuSans-78" x="59.773438"/>
     <use xlink:href="#DejaVuSans-74" x="118.953125"/>
     <use xlink:href="#DejaVuSans-65" x="158.162109"/>
     <use xlink:href="#DejaVuSans-72" x="219.685547"/>
     <use xlink:href="#DejaVuSans-6e" x="259.048828"/>
     <use xlink:href="#DejaVuSans-61" x="322.427734"/>
     <use xlink:href="#DejaVuSans-6c" x="383.707031"/>
     <use xlink:href="#DejaVuSans-2d" x="411.490234"/>
    </g>
   </g>
   <g id="text_16">
    <!-- best 2016 -->
    <g transform="translate(386.578944 16.615765)scale(0.14 -0.14)">
     <defs>
      <path id="DejaVuSans-62" d="M 3116 1747 
Q 3116 2381 2855 2742 
Q 2594 3103 2138 3103 
Q 1681 3103 1420 2742 
Q 1159 2381 1159 1747 
Q 1159 1113 1420 752 
Q 1681 391 2138 391 
Q 2594 391 2855 752 
Q 3116 1113 3116 1747 
z
M 1159 2969 
Q 1341 3281 1617 3432 
Q 1894 3584 2278 3584 
Q 2916 3584 3314 3078 
Q 3713 2572 3713 1747 
Q 3713 922 3314 415 
Q 2916 -91 2278 -91 
Q 1894 -91 1617 61 
Q 1341 213 1159 525 
L 1159 0 
L 581 0 
L 581 4863 
L 1159 4863 
L 1159 2969 
z
" transform="scale(0.015625)"/>
     </defs>
     <use xlink:href="#DejaVuSans-62"/>
     <use xlink:href="#DejaVuSans-65" x="63.476562"/>
     <use xlink:href="#DejaVuSans-73" x="125"/>
     <use xlink:href="#DejaVuSans-74" x="177.099609"/>
     <use xlink:href="#DejaVuSans-20" x="216.308594"/>
     <use xlink:href="#DejaVuSans-32" x="248.095703"/>
     <use xlink:href="#DejaVuSans-30" x="311.71875"/>
     <use xlink:href="#DejaVuSans-31" x="375.341797"/>
     <use xlink:href="#DejaVuSans-36" x="438.964844"/>
    </g>
   </g>
   <g id="text_17">
    <!-- bbob-biobj f3, f4, f12, f13, 3-D -->
    <g transform="translate(60.632064 17.582726)scale(0.102 -0.102)">
     <defs>
      <path id="DejaVuSans-6a" d="M 603 3500 
L 1178 3500 
L 1178 -63 
Q 1178 -731 923 -1031 
Q 669 -1331 103 -1331 
L -116 -1331 
L -116 -844 
L 38 -844 
Q 366 -844 484 -692 
Q 603 -541 603 -63 
L 603 3500 
z
M 603 4863 
L 1178 4863 
L 1178 4134 
L 603 4134 
L 603 4863 
z
" transform="scale(0.015625)"/>
      <path id="DejaVuSans-33" d="M 2597 2516 
Q 3050 2419 3304 2112 
Q 3559 1806 3559 1356 
Q 3559 666 3084 287 
Q 2609 -91 1734 -91 
Q 1441 -91 1130 -33 
Q 819 25 488 141 
L 488 750 
Q 750 597 1062 519 
Q 1375 441 1716 441 
Q 2309 441 2620 675 
Q 2931 909 2931 1356 
Q 2931 1769 2642 2001 
Q 2353 2234 1838 2234 
L 1294 2234 
L 1294 2753 
L 1863 2753 
Q 2328 2753 2575 2939 
Q 2822 3125 2822 3475 
Q 2822 3834 2567 4026 
Q 2313 4219 1838 4219 
Q 1578 4219 1281 4162 
Q 984 4106 628 3988 
L 628 4550 
Q 988 4650 1302 4700 
Q 1616 4750 1894 4750 
Q 2613 4750 3031 4423 
Q 3450 4097 3450 3541 
Q 3450 3153 3228 2886 
Q 3006 2619 2597 2516 
z
" transform="scale(0.015625)"/>
      <path id="DejaVuSans-44" d="M 1259 4147 
L 1259 519 
L 2022 519 
Q 2988 519 3436 956 
Q 3884 1394 3884 2338 
Q 3884 3275 3436 3711 
Q 2988 4147 2022 4147 
L 1259 4147 
z
M 628 4666 
L 1925 4666 
Q 3281 4666 3915 4102 
Q 4550 3538 4550 2338 
Q 4550 1131 3912 565 
Q 3275 0 1925 0 
L 628 0 
L 628 4666 
z
" transform="scale(0.015625)"/>
     </defs>
     <use xlink:href="#DejaVuSans-62"/>
     <use xlink:href="#DejaVuSans-62" x="63.476562"/>
     <use xlink:href="#DejaVuSans-6f" x="126.953125"/>
     <use xlink:href="#DejaVuSans-62" x="188.134766"/>
     <use xlink:href="#DejaVuSans-2d" x="251.611328"/>
     <use xlink:href="#DejaVuSans-62" x="287.695312"/>
     <use xlink:href="#DejaVuSans-69" x="351.171875"/>
     <use xlink:href="#DejaVuSans-6f" x="378.955078"/>
     <use xlink:href="#DejaVuSans-62" x="440.136719"/>
     <use xlink:href="#DejaVuSans-6a" x="503.613281"/>
     <use xlink:href="#DejaVuSans-20" x="531.396484"/>
     <use xlink:href="#DejaVuSans-66" x="563.183594"/>
     <use xlink:href="#DejaVuSans-33" x="598.388672"/>
     <use xlink:href="#DejaVuSans-2c" x="662.011719"/>
     <use xlink:href="#DejaVuSans-20" x="693.798828"/>
     <use xlink:href="#DejaVuSans-66" x="725.585938"/>
     <use xlink:href="#DejaVuSans-34" x="760.791016"/>
     <use xlink:href="#DejaVuSans-2c" x="824.414062"/>
     <use xlink:href="#DejaVuSans-20" x="856.201172"/>
     <use xlink:href="#DejaVuSans-66" x="887.988281"/>
     <use xlink:href="#DejaVuSans-31" x="923.193359"/>
     <use xlink:href="#DejaVuSans-32" x="986.816406"/>
     <use xlink:href="#DejaVuSans-2c" x="1050.439453"/>
     <use xlink:href="#DejaVuSans-20" x="1082.226562"/>
     <use xlink:href="#DejaVuSans-66" x="1114.013672"/>
     <use xlink:href="#DejaVuSans-31" x="1149.21875"/>
     <use xlink:href="#DejaVuSans-33" x="1212.841797"/>
     <use xlink:href="#DejaVuSans-2c" x="1276.464844"/>
     <use xlink:href="#DejaVuSans-20" x="1308.251953"/>
     <use xlink:href="#DejaVuSans-33" x="1340.039062"/>
     <use xlink:href="#DejaVuSans-2d" x="1403.662109"/>
     <use xlink:href="#DejaVuSans-44" x="1439.746094"/>
    </g>
    <!-- 58 targets: 1..-1.0e-4 -->
    <g transform="translate(60.632064 29.004495)scale(0.102 -0.102)">
     <defs>
      <path id="DejaVuSans-35" d="M 691 4666 
L 3169 4666 
L 3169 4134 
L 1269 4134 
L 1269 2991 
Q 1406 3038 1543 3061 
Q 1681 3084 1819 3084 
Q 2600 3084 3056 2656 
Q 3513 2228 3513 1497 
Q 3513 744 3044 326 
Q 2575 -91 1722 -91 
Q 1428 -91 1123 -41 
Q 819 9 494 109 
L 494 744 
Q 775 591 1075 516 
Q 1375 441 1709 441 
Q 2250 441 2565 725 
Q 2881 1009 2881 1497 
Q 2881 1984 2565 2268 
Q 2250 2553 1709 2553 
Q 1456 2553 1204 2497 
Q 953 2441 691 2322 
L 691 4666 
z
" transform="scale(0.015625)"/>
      <path id="DejaVuSans-3a" d="M 750 794 
L 1409 794 
L 1409 0 
L 750 0 
L 750 794 
z
M 750 3309 
L 1409 3309 
L 1409 2516 
L 750 2516 
L 750 3309 
z
" transform="scale(0.015625)"/>
     </defs>
     <use xlink:href="#DejaVuSans-35"/>
     <use xlink:href="#DejaVuSans-38" x="63.623047"/>
     <use xlink:href="#DejaVuSans-20" x="127.246094"/>
     <use xlink:href="#DejaVuSans-74" x="159.033203"/>
     <use xlink:href="#DejaVuSans-61" x="198.242188"/>
     <use xlink:href="#DejaVuSans-72" x="259.521484"/>
     <use xlink:href="#DejaVuSans-67" x="298.884766"/>
     <use xlink:href="#DejaVuSans-65" x="362.361328"/>
     <use xlink:href="#DejaVuSans-74" x="423.884766"/>
     <use xlink:href="#DejaVuSans-73" x="463.09375"/>
     <use xlink:href="#DejaVuSans-3a" x="515.193359"/>
     <use xlink:href="#DejaVuSans-20" x="548.884766"/>
     <use xlink:href="#DejaVuSans-31" x="580.671875"/>
     <use xlink:href="#DejaVuSans-2e" x="644.294922"/>
     <use xlink:href="#DejaVuSans-2e" x="676.082031"/>
     <use xlink:href="#DejaVuSans-2d" x="707.869141"/>
     <use xlink:href="#DejaVuSans-31" x="743.953125"/>
     <use xlink:href="#DejaVuSans-2e" x="807.576172"/>
     <use xlink:href="#DejaVuSans-30" x="839.363281"/>
     <use xlink:href="#DejaVuSans-65" x="902.986328"/>
     <use xlink:href="#DejaVuSans-2d" x="964.509766"/>
     <use xlink:href="#DejaVuSans-34" x="1000.59375"/>
    </g>
    <!-- 10 instances -->
    <g transform="translate(60.632064 40.426264)scale(0.102 -0.102)">
     <use xlink:href="#DejaVuSans-31"/>
     <use xlink:href="#DejaVuSans-30" x="63.623047"/>
     <use xlink:href="#DejaVuSans-20" x="127.246094"/>
     <use xlink:href="#DejaVuSans-69" x="159.033203"/>
     <use xlink:href="#DejaVuSans-6e" x="186.816406"/>
     <use xlink:href="#DejaVuSans-73" x="250.195312"/>
     <use xlink:href="#DejaVuSans-74" x="302.294922"/>
     <use xlink:href="#DejaVuSans-61" x="341.503906"/>
     <use xlink:href="#DejaVuSans-6e" x="402.783203"/>
     <use xlink:href="#DejaVuSans-63" x="466.162109"/>
     <use xlink:href="#DejaVuSans-65" x="521.142578"/>
     <use xlink:href="#DejaVuSans-73" x="582.666016"/>
    </g>
   </g>
   <g id="text_18">
    <!-- v2.6, hv-hash=ff0e71e8cd978373 -->
    <g style="fill: #808080" transform="translate(123.707887 293.943992)scale(0.1 -0.1)">
     <defs>
      <path id="DejaVuSans-68" d="M 3513 2113 
L 3513 0 
L 2938 0 
L 2938 2094 
Q 2938 2591 2744 2837 
Q 2550 3084 2163 3084 
Q 1697 3084 1428 2787 
Q 1159 2491 1159 1978 
L 1159 0 
L 581 0 
L 581 4863 
L 1159 4863 
L 1159 2956 
Q 1366 3272 1645 3428 
Q 1925 3584 2291 3584 
Q 2894 3584 3203 3211 
Q 3513 2838 3513 2113 
z
" transform="scale(0.015625)"/>
      <path id="DejaVuSans-3d" d="M 678 2906 
L 4684 2906 
L 4684 2381 
L 678 2381 
L 678 2906 
z
M 678 1631 
L 4684 1631 
L 4684 1100 
L 678 1100 
L 678 1631 
z
" transform="scale(0.015625)"/>
      <path id="DejaVuSans-37" d="M 525 4666 
L 3525 4666 
L 3525 4397 
L 1831 0 
L 1172 0 
L 2766 4134 
L 525 4134 
L 525 4666 
z
" transform="scale(0.015625)"/>
      <path id="DejaVuSans-39" d="M 703 97 
L 703 672 
Q 941 559 1184 500 
Q 1428 441 1663 441 
Q 2288 441 2617 861 
Q 2947 1281 2994 2138 
Q 2813 1869 2534 1725 
Q 2256 1581 1919 1581 
Q 1219 1581 811 2004 
Q 403 2428 403 3163 
Q 403 3881 828 4315 
Q 1253 4750 1959 4750 
Q 2769 4750 3195 4129 
Q 3622 3509 3622 2328 
Q 3622 1225 3098 567 
Q 2575 -91 1691 -91 
Q 1453 -91 1209 -44 
Q 966 3 703 97 
z
M 1959 2075 
Q 2384 2075 2632 2365 
Q 2881 2656 2881 3163 
Q 2881 3666 2632 3958 
Q 2384 4250 1959 4250 
Q 1534 4250 1286 3958 
Q 1038 3666 1038 3163 
Q 1038 2656 1286 2365 
Q 1534 2075 1959 2075 
z
" transform="scale(0.015625)"/>
     </defs>
     <use xlink:href="#DejaVuSans-76"/>
     <use xlink:href="#DejaVuSans-32" x="59.179688"/>
     <use xlink:href="#DejaVuSans-2e" x="122.802734"/>
     <use xlink:href="#DejaVuSans-36" x="154.589844"/>
     <use xlink:href="#DejaVuSans-2c" x="218.212891"/>
     <use xlink:href="#DejaVuSans-20" x="250"/>
     <use xlink:href="#DejaVuSans-68" x="281.787109"/>
     <use xlink:href="#DejaVuSans-76" x="345.166016"/>
     <use xlink:href="#DejaVuSans-2d" x="401.720703"/>
     <use xlink:href="#DejaVuSans-68" x="437.804688"/>
     <use xlink:href="#DejaVuSans-61" x="501.183594"/>
     <use xlink:href="#DejaVuSans-73" x="562.462891"/>
     <use xlink:href="#DejaVuSans-68" x="614.5625"/>
     <use xlink:href="#DejaVuSans-3d" x="677.941406"/>
     <use xlink:href="#DejaVuSans-66" x="761.730469"/>
     <use xlink:href="#DejaVuSans-66" x="796.935547"/>
     <use xlink:href="#DejaVuSans-30" x="832.140625"/>
     <use xlink:href="#DejaVuSans-65" x="895.763672"/>
     <use xlink:href="#DejaVuSans-37" x="957.287109"/>
     <use xlink:href="#DejaVuSans-31" x="1020.910156"/>
     <use xlink:href="#DejaVuSans-65" x="1084.533203"/>
     <use xlink:href="#DejaVuSans-38" x="1146.056641"/>
     <use xlink:href="#DejaVuSans-63" x="1209.679688"/>
     <use xlink:href="#DejaVuSans-64" x="1264.660156"/>
     <use xlink:href="#DejaVuSans-39" x="1328.136719"/>
     <use xlink:href="#DejaVuSans-37" x="1391.759766"/>
     <use xlink:href="#DejaVuSans-38" x="1455.382812"/>
     <use xlink:href="#DejaVuSans-33" x="1519.005859"/>
     <use xlink:href="#DejaVuSans-37" x="1582.628906"/>
     <use xlink:href="#DejaVuSans-33" x="1646.251953"/>
    </g>
   </g>
  </g>
 </g>
 <defs>
  <clipPath id="p60812e24c2">
   <rect x="57.6" y="6.912" width="303.2064" height="292.032"/>
  </clipPath>
 </defs>
</svg>
