<?xml version="1.0" encoding="utf-8" standalone="no"?>
<!DOCTYPE svg PUBLIC "-//W3C//DTD SVG 1.1//EN"
  "http://www.w3.org/Graphics/SVG/1.1/DTD/svg11.dtd">
<svg xmlns:xlink="http://www.w3.org/1999/xlink" width="460.8pt" height="345.6pt" viewBox="0 0 460.8 345.6" xmlns="http://www.w3.org/2000/svg" version="1.1">
 <metadata>
  <rdf:RDF xmlns:dc="http://purl.org/dc/elements/1.1/" xmlns:cc="http://creativecommons.org/ns#" xmlns:rdf="http://www.w3.org/1999/02/22-rdf-syntax-ns#">
   <cc:Work>
    <dc:type rdf:resource="http://purl.org/dc/dcmitype/StillImage"/>
    <dc:date>2022-06-19T21:02:46.870637</dc:date>
    <dc:format>image/svg+xml</dc:format>
    <dc:creator>
     <cc:Agent>
      <dc:title>Matplotlib v3.5.1, https://matplotlib.org/</dc:title>
     </cc:Agent>
    </dc:creator>
   </cc:Work>
  </rdf:RDF>
 </metadata>
 <defs>
  <style type="text/css">*{stroke-linejoin: round; stroke-linecap: butt}</style>
 </defs>
 <g id="figure_1">
  <g id="patch_1">
   <path d="M 0 345.6 
L 460.8 345.6 
L 460.8 0 
L 0 0 
z
" style="fill: #ffffff"/>
  </g>
  <g id="axes_1">
   <g id="patch_2">
    <path d="M 57.6 298.944 
L 360.8064 298.944 
L 360.8064 6.912 
L 57.6 6.912 
z
" style="fill: #ffffff"/>
   </g>
   <g id="line2d_1">
    <path d="M 78.266603 298.944 
L 78.266603 297.685241 
L 85.894031 297.685241 
L 85.894031 295.167724 
L 87.876026 295.167724 
L 87.876026 292.650207 
L 91.305777 292.650207 
L 91.305777 287.615172 
L 92.811505 287.615172 
L 92.811505 286.356414 
L 94.205591 286.356414 
L 94.205591 283.838897 
L 97.857967 283.838897 
L 97.857967 281.321379 
L 100.9152 281.321379 
L 100.9152 278.803862 
L 107.244765 278.803862 
L 107.244765 277.545103 
L 111.442442 277.545103 
L 111.442442 275.027586 
L 113.478107 275.027586 
L 113.478107 273.768828 
L 117.384126 273.768828 
L 117.384126 269.992552 
L 118.152051 269.992552 
L 118.152051 266.216276 
L 122.19863 266.216276 
L 122.19863 264.957517 
L 122.499621 264.957517 
L 122.499621 261.181241 
L 130.027253 261.181241 
L 130.027253 257.404966 
L 131.563744 257.404966 
L 131.563744 254.887448 
L 138.310202 254.887448 
L 138.310202 248.593655 
L 140.725251 248.593655 
L 140.725251 247.334897 
L 142.352625 247.334897 
L 142.352625 244.817379 
L 144.2304 244.817379 
L 144.2304 242.299862 
L 148.124658 242.299862 
L 148.124658 241.041103 
L 150.357325 241.041103 
L 150.357325 239.782345 
L 152.474656 239.782345 
L 152.474656 237.264828 
L 153.247435 237.264828 
L 153.247435 234.74731 
L 156.155566 234.74731 
L 156.255099 228.453517 
L 158.232129 228.453517 
L 158.232129 227.194759 
L 159.485256 227.194759 
L 159.485256 224.677241 
L 160.699326 224.677241 
L 160.699326 220.900966 
L 161.802848 220.900966 
L 161.802848 218.383448 
L 164.580835 218.383448 
L 164.580835 215.865931 
L 165.1152 215.865931 
L 165.1152 213.348414 
L 165.634805 213.348414 
L 165.634805 210.830897 
L 168.79126 210.830897 
L 168.79126 209.572138 
L 169.019282 209.572138 
L 169.019282 207.054621 
L 169.565302 207.054621 
L 169.565302 203.278345 
L 172.144386 203.278345 
L 172.144386 199.502069 
L 173.382435 199.502069 
L 173.382435 196.984552 
L 173.836223 196.984552 
L 173.836223 193.208276 
L 175.262307 193.208276 
L 175.262307 190.690759 
L 177.983147 190.690759 
L 177.983147 188.173241 
L 181.881346 188.173241 
L 181.881346 186.914483 
L 182.689901 186.914483 
L 182.689901 185.655724 
L 184.377384 185.655724 
L 184.377384 183.138207 
L 185.226169 183.138207 
L 185.226169 179.361931 
L 187.098251 179.361931 
L 187.098251 176.844414 
L 187.356538 176.844414 
L 187.356538 173.068138 
L 191.73575 173.068138 
L 191.73575 170.550621 
L 191.989965 170.550621 
L 191.989965 169.291862 
L 192.423108 169.291862 
L 192.423108 166.774345 
L 193.861723 166.774345 
L 193.861723 165.515586 
L 195.291792 165.515586 
L 195.291792 161.73931 
L 196.275071 161.73931 
L 196.275071 159.221793 
L 198.918861 159.221793 
L 198.918861 155.445517 
L 199.545465 155.445517 
L 199.545465 154.186759 
L 200.084374 154.186759 
L 200.084374 152.928 
L 203.686398 152.928 
L 203.686398 149.151724 
L 205.599673 149.151724 
L 205.599673 147.892966 
L 207.250596 147.892966 
L 207.250596 144.11669 
L 207.444277 144.11669 
L 207.444277 141.599172 
L 208.399384 141.599172 
L 208.399384 140.340414 
L 210.307664 140.340414 
L 210.307664 139.081655 
L 211.098575 139.081655 
L 211.098575 135.305379 
L 211.269906 135.305379 
L 211.269906 131.529103 
L 213.897075 131.529103 
L 214.005686 127.752828 
L 214.640047 127.752828 
L 214.640047 123.976552 
L 217.0772 123.976552 
L 217.0772 121.459034 
L 219.134782 121.459034 
L 219.134782 120.200276 
L 219.527138 120.200276 
L 219.527138 116.424 
L 220.248479 116.424 
L 220.248479 115.165241 
L 223.469845 115.165241 
L 223.469845 111.388966 
L 225.527897 111.388966 
L 225.527897 107.61269 
L 226.207345 107.61269 
L 226.207345 105.095172 
L 226.619571 105.095172 
L 226.619571 102.577655 
L 228.832765 102.577655 
L 228.878805 98.801379 
L 231.22594 98.801379 
L 231.22594 97.542621 
L 234.612284 97.542621 
L 234.612284 95.025103 
L 235.547193 95.025103 
L 235.589669 91.248828 
L 236.029251 91.248828 
L 236.029251 87.472552 
L 238.705186 87.472552 
L 238.705186 83.696276 
L 239.145669 83.696276 
L 239.145669 82.437517 
L 241.09609 82.437517 
L 241.099911 77.402483 
L 242.621081 77.402483 
L 242.621081 74.884966 
L 243.133029 74.884966 
L 243.133029 71.10869 
L 245.221024 71.10869 
L 245.221024 68.591172 
L 247.233857 68.591172 
L 247.233857 66.073655 
L 251.098667 66.073655 
L 251.098667 62.297379 
L 251.813966 62.297379 
L 251.813966 59.779862 
L 252.811884 59.779862 
L 252.811884 57.262345 
L 255.081629 57.262345 
L 255.081629 56.003586 
L 256.532692 56.003586 
L 256.532692 53.486069 
L 258.36512 53.486069 
L 258.36512 49.709793 
L 258.588309 49.709793 
L 258.588309 48.451034 
L 263.699598 48.451034 
L 263.699598 45.933517 
L 269.918502 45.933517 
L 269.918502 42.157241 
L 360.8064 42.157241 
L 360.8064 42.157241 
" style="fill: none; stroke: #f5deb3; stroke-width: 4; stroke-linecap: square"/>
   </g>
   <g id="line2d_2">
    <defs>
     <path id="mbeb6a890cc" d="M 0 7.778175 
L 7.778175 0 
L 0 -7.778175 
L -7.778175 0 
z
" style="stroke: #f5deb3; stroke-width: 1.5; stroke-linejoin: miter"/>
    </defs>
    <g>
     <use xlink:href="#mbeb6a890cc" x="165.634805" y="210.830897" style="fill: #f5deb3; stroke: #f5deb3; stroke-width: 1.5; stroke-linejoin: miter"/>
     <use xlink:href="#mbeb6a890cc" x="211.269906" y="131.529103" style="fill: #f5deb3; stroke: #f5deb3; stroke-width: 1.5; stroke-linejoin: miter"/>
     <use xlink:href="#mbeb6a890cc" x="269.918502" y="45.933517" style="fill: #f5deb3; stroke: #f5deb3; stroke-width: 1.5; stroke-linejoin: miter"/>
     <use xlink:href="#mbeb6a890cc" x="269.918502" y="42.157241" style="fill: #f5deb3; stroke: #f5deb3; stroke-width: 1.5; stroke-linejoin: miter"/>
     <use xlink:href="#mbeb6a890cc" x="360.8064" y="42.157241" style="fill: #f5deb3; stroke: #f5deb3; stroke-width: 1.5; stroke-linejoin: miter"/>
    </g>
   </g>
   <g id="line2d_3">
    <path style="fill: none; stroke: #f5deb3; stroke-width: 4; stroke-linecap: square"/>
    <g/>
   </g>
   <g id="line2d_4">
    <path d="M 360.8064 42.157241 
L 380.514816 12.75264 
" style="fill: none; stroke: #f5deb3; stroke-width: 4; stroke-linecap: square"/>
    <g>
     <use xlink:href="#mbeb6a890cc" x="360.8064" y="42.157241" style="fill: #f5deb3; stroke: #f5deb3; stroke-width: 1.5; stroke-linejoin: miter"/>
     <use xlink:href="#mbeb6a890cc" x="380.514816" y="12.75264" style="fill: #f5deb3; stroke: #f5deb3; stroke-width: 1.5; stroke-linejoin: miter"/>
    </g>
   </g>
   <g id="matplotlib.axis_1">
    <g id="xtick_1">
     <g id="line2d_5">
      <path d="M 57.6 298.944 
L 57.6 6.912 
" clip-path="url(#pa98f5bcebe)" style="fill: none; stroke: #b0b0b0; stroke-width: 0.8; stroke-linecap: square"/>
     </g>
     <g id="line2d_6">
      <defs>
       <path id="m2a8f56ac90" d="M 0 0 
L 0 3.5 
" style="stroke: #000000; stroke-width: 0.8"/>
      </defs>
      <g>
       <use xlink:href="#m2a8f56ac90" x="57.6" y="298.944" style="stroke: #000000; stroke-width: 0.8"/>
      </g>
     </g>
     <g id="text_1">
      <!-- 0 -->
      <g transform="translate(52.191875 318.861344)scale(0.17 -0.17)">
       <defs>
        <path id="DejaVuSans-30" d="M 2034 4250 
Q 1547 4250 1301 3770 
Q 1056 3291 1056 2328 
Q 1056 1369 1301 889 
Q 1547 409 2034 409 
Q 2525 409 2770 889 
Q 3016 1369 3016 2328 
Q 3016 3291 2770 3770 
Q 2525 4250 2034 4250 
z
M 2034 4750 
Q 2819 4750 3233 4129 
Q 3647 3509 3647 2328 
Q 3647 1150 3233 529 
Q 2819 -91 2034 -91 
Q 1250 -91 836 529 
Q 422 1150 422 2328 
Q 422 3509 836 4129 
Q 1250 4750 2034 4750 
z
" transform="scale(0.015625)"/>
       </defs>
       <use xlink:href="#DejaVuSans-30"/>
      </g>
     </g>
    </g>
    <g id="xtick_2">
     <g id="line2d_7">
      <path d="M 144.2304 298.944 
L 144.2304 6.912 
" clip-path="url(#pa98f5bcebe)" style="fill: none; stroke: #b0b0b0; stroke-width: 0.8; stroke-linecap: square"/>
     </g>
     <g id="line2d_8">
      <g>
       <use xlink:href="#m2a8f56ac90" x="144.2304" y="298.944" style="stroke: #000000; stroke-width: 0.8"/>
      </g>
     </g>
     <g id="text_2">
      <!-- 2 -->
      <g transform="translate(138.822275 318.861344)scale(0.17 -0.17)">
       <defs>
        <path id="DejaVuSans-32" d="M 1228 531 
L 3431 531 
L 3431 0 
L 469 0 
L 469 531 
Q 828 903 1448 1529 
Q 2069 2156 2228 2338 
Q 2531 2678 2651 2914 
Q 2772 3150 2772 3378 
Q 2772 3750 2511 3984 
Q 2250 4219 1831 4219 
Q 1534 4219 1204 4116 
Q 875 4013 500 3803 
L 500 4441 
Q 881 4594 1212 4672 
Q 1544 4750 1819 4750 
Q 2544 4750 2975 4387 
Q 3406 4025 3406 3419 
Q 3406 3131 3298 2873 
Q 3191 2616 2906 2266 
Q 2828 2175 2409 1742 
Q 1991 1309 1228 531 
z
" transform="scale(0.015625)"/>
       </defs>
       <use xlink:href="#DejaVuSans-32"/>
      </g>
     </g>
    </g>
    <g id="xtick_3">
     <g id="line2d_9">
      <path d="M 230.8608 298.944 
L 230.8608 6.912 
" clip-path="url(#pa98f5bcebe)" style="fill: none; stroke: #b0b0b0; stroke-width: 0.8; stroke-linecap: square"/>
     </g>
     <g id="line2d_10">
      <g>
       <use xlink:href="#m2a8f56ac90" x="230.8608" y="298.944" style="stroke: #000000; stroke-width: 0.8"/>
      </g>
     </g>
     <g id="text_3">
      <!-- 4 -->
      <g transform="translate(225.452675 318.861344)scale(0.17 -0.17)">
       <defs>
        <path id="DejaVuSans-34" d="M 2419 4116 
L 825 1625 
L 2419 1625 
L 2419 4116 
z
M 2253 4666 
L 3047 4666 
L 3047 1625 
L 3713 1625 
L 3713 1100 
L 3047 1100 
L 3047 0 
L 2419 0 
L 2419 1100 
L 313 1100 
L 313 1709 
L 2253 4666 
z
" transform="scale(0.015625)"/>
       </defs>
       <use xlink:href="#DejaVuSans-34"/>
      </g>
     </g>
    </g>
    <g id="xtick_4">
     <g id="line2d_11">
      <path d="M 317.4912 298.944 
L 317.4912 6.912 
" clip-path="url(#pa98f5bcebe)" style="fill: none; stroke: #b0b0b0; stroke-width: 0.8; stroke-linecap: square"/>
     </g>
     <g id="line2d_12">
      <g>
       <use xlink:href="#m2a8f56ac90" x="317.4912" y="298.944" style="stroke: #000000; stroke-width: 0.8"/>
      </g>
     </g>
     <g id="text_4">
      <!-- 6 -->
      <g transform="translate(312.083075 318.861344)scale(0.17 -0.17)">
       <defs>
        <path id="DejaVuSans-36" d="M 2113 2584 
Q 1688 2584 1439 2293 
Q 1191 2003 1191 1497 
Q 1191 994 1439 701 
Q 1688 409 2113 409 
Q 2538 409 2786 701 
Q 3034 994 3034 1497 
Q 3034 2003 2786 2293 
Q 2538 2584 2113 2584 
z
M 3366 4563 
L 3366 3988 
Q 3128 4100 2886 4159 
Q 2644 4219 2406 4219 
Q 1781 4219 1451 3797 
Q 1122 3375 1075 2522 
Q 1259 2794 1537 2939 
Q 1816 3084 2150 3084 
Q 2853 3084 3261 2657 
Q 3669 2231 3669 1497 
Q 3669 778 3244 343 
Q 2819 -91 2113 -91 
Q 1303 -91 875 529 
Q 447 1150 447 2328 
Q 447 3434 972 4092 
Q 1497 4750 2381 4750 
Q 2619 4750 2861 4703 
Q 3103 4656 3366 4563 
z
" transform="scale(0.015625)"/>
       </defs>
       <use xlink:href="#DejaVuSans-36"/>
      </g>
     </g>
    </g>
    <g id="xtick_5">
     <g id="line2d_13">
      <path d="M 100.9152 298.944 
L 100.9152 6.912 
" clip-path="url(#pa98f5bcebe)" style="fill: none; stroke: #b0b0b0; stroke-width: 0.8; stroke-linecap: square"/>
     </g>
     <g id="line2d_14">
      <defs>
       <path id="m92465c5ae9" d="M 0 0 
L 0 2 
" style="stroke: #000000; stroke-width: 0.6"/>
      </defs>
      <g>
       <use xlink:href="#m92465c5ae9" x="100.9152" y="298.944" style="stroke: #000000; stroke-width: 0.6"/>
      </g>
     </g>
    </g>
    <g id="xtick_6">
     <g id="line2d_15">
      <path d="M 187.5456 298.944 
L 187.5456 6.912 
" clip-path="url(#pa98f5bcebe)" style="fill: none; stroke: #b0b0b0; stroke-width: 0.8; stroke-linecap: square"/>
     </g>
     <g id="line2d_16">
      <g>
       <use xlink:href="#m92465c5ae9" x="187.5456" y="298.944" style="stroke: #000000; stroke-width: 0.6"/>
      </g>
     </g>
    </g>
    <g id="xtick_7">
     <g id="line2d_17">
      <path d="M 274.176 298.944 
L 274.176 6.912 
" clip-path="url(#pa98f5bcebe)" style="fill: none; stroke: #b0b0b0; stroke-width: 0.8; stroke-linecap: square"/>
     </g>
     <g id="line2d_18">
      <g>
       <use xlink:href="#m92465c5ae9" x="274.176" y="298.944" style="stroke: #000000; stroke-width: 0.6"/>
      </g>
     </g>
    </g>
    <g id="xtick_8">
     <g id="line2d_19">
      <path d="M 360.8064 298.944 
L 360.8064 6.912 
" clip-path="url(#pa98f5bcebe)" style="fill: none; stroke: #b0b0b0; stroke-width: 0.8; stroke-linecap: square"/>
     </g>
     <g id="line2d_20">
      <g>
       <use xlink:href="#m92465c5ae9" x="360.8064" y="298.944" style="stroke: #000000; stroke-width: 0.6"/>
      </g>
     </g>
    </g>
    <g id="text_5">
     <!-- log10(# f-evals / dimension) -->
     <g transform="translate(88.823278 339.314156)scale(0.17 -0.17)">
      <defs>
       <path id="DejaVuSans-6c" d="M 603 4863 
L 1178 4863 
L 1178 0 
L 603 0 
L 603 4863 
z
" transform="scale(0.015625)"/>
       <path id="DejaVuSans-6f" d="M 1959 3097 
Q 1497 3097 1228 2736 
Q 959 2375 959 1747 
Q 959 1119 1226 758 
Q 1494 397 1959 397 
Q 2419 397 2687 759 
Q 2956 1122 2956 1747 
Q 2956 2369 2687 2733 
Q 2419 3097 1959 3097 
z
M 1959 3584 
Q 2709 3584 3137 3096 
Q 3566 2609 3566 1747 
Q 3566 888 3137 398 
Q 2709 -91 1959 -91 
Q 1206 -91 779 398 
Q 353 888 353 1747 
Q 353 2609 779 3096 
Q 1206 3584 1959 3584 
z
" transform="scale(0.015625)"/>
       <path id="DejaVuSans-67" d="M 2906 1791 
Q 2906 2416 2648 2759 
Q 2391 3103 1925 3103 
Q 1463 3103 1205 2759 
Q 947 2416 947 1791 
Q 947 1169 1205 825 
Q 1463 481 1925 481 
Q 2391 481 2648 825 
Q 2906 1169 2906 1791 
z
M 3481 434 
Q 3481 -459 3084 -895 
Q 2688 -1331 1869 -1331 
Q 1566 -1331 1297 -1286 
Q 1028 -1241 775 -1147 
L 775 -588 
Q 1028 -725 1275 -790 
Q 1522 -856 1778 -856 
Q 2344 -856 2625 -561 
Q 2906 -266 2906 331 
L 2906 616 
Q 2728 306 2450 153 
Q 2172 0 1784 0 
Q 1141 0 747 490 
Q 353 981 353 1791 
Q 353 2603 747 3093 
Q 1141 3584 1784 3584 
Q 2172 3584 2450 3431 
Q 2728 3278 2906 2969 
L 2906 3500 
L 3481 3500 
L 3481 434 
z
" transform="scale(0.015625)"/>
       <path id="DejaVuSans-31" d="M 794 531 
L 1825 531 
L 1825 4091 
L 703 3866 
L 703 4441 
L 1819 4666 
L 2450 4666 
L 2450 531 
L 3481 531 
L 3481 0 
L 794 0 
L 794 531 
z
" transform="scale(0.015625)"/>
       <path id="DejaVuSans-28" d="M 1984 4856 
Q 1566 4138 1362 3434 
Q 1159 2731 1159 2009 
Q 1159 1288 1364 580 
Q 1569 -128 1984 -844 
L 1484 -844 
Q 1016 -109 783 600 
Q 550 1309 550 2009 
Q 550 2706 781 3412 
Q 1013 4119 1484 4856 
L 1984 4856 
z
" transform="scale(0.015625)"/>
       <path id="DejaVuSans-23" d="M 3272 2816 
L 2363 2816 
L 2100 1772 
L 3016 1772 
L 3272 2816 
z
M 2803 4594 
L 2478 3297 
L 3391 3297 
L 3719 4594 
L 4219 4594 
L 3897 3297 
L 4872 3297 
L 4872 2816 
L 3775 2816 
L 3519 1772 
L 4513 1772 
L 4513 1294 
L 3397 1294 
L 3072 0 
L 2572 0 
L 2894 1294 
L 1978 1294 
L 1656 0 
L 1153 0 
L 1478 1294 
L 494 1294 
L 494 1772 
L 1594 1772 
L 1856 2816 
L 850 2816 
L 850 3297 
L 1978 3297 
L 2297 4594 
L 2803 4594 
z
" transform="scale(0.015625)"/>
       <path id="DejaVuSans-20" transform="scale(0.015625)"/>
       <path id="DejaVuSans-66" d="M 2375 4863 
L 2375 4384 
L 1825 4384 
Q 1516 4384 1395 4259 
Q 1275 4134 1275 3809 
L 1275 3500 
L 2222 3500 
L 2222 3053 
L 1275 3053 
L 1275 0 
L 697 0 
L 697 3053 
L 147 3053 
L 147 3500 
L 697 3500 
L 697 3744 
Q 697 4328 969 4595 
Q 1241 4863 1831 4863 
L 2375 4863 
z
" transform="scale(0.015625)"/>
       <path id="DejaVuSans-2d" d="M 313 2009 
L 1997 2009 
L 1997 1497 
L 313 1497 
L 313 2009 
z
" transform="scale(0.015625)"/>
       <path id="DejaVuSans-65" d="M 3597 1894 
L 3597 1613 
L 953 1613 
Q 991 1019 1311 708 
Q 1631 397 2203 397 
Q 2534 397 2845 478 
Q 3156 559 3463 722 
L 3463 178 
Q 3153 47 2828 -22 
Q 2503 -91 2169 -91 
Q 1331 -91 842 396 
Q 353 884 353 1716 
Q 353 2575 817 3079 
Q 1281 3584 2069 3584 
Q 2775 3584 3186 3129 
Q 3597 2675 3597 1894 
z
M 3022 2063 
Q 3016 2534 2758 2815 
Q 2500 3097 2075 3097 
Q 1594 3097 1305 2825 
Q 1016 2553 972 2059 
L 3022 2063 
z
" transform="scale(0.015625)"/>
       <path id="DejaVuSans-76" d="M 191 3500 
L 800 3500 
L 1894 563 
L 2988 3500 
L 3597 3500 
L 2284 0 
L 1503 0 
L 191 3500 
z
" transform="scale(0.015625)"/>
       <path id="DejaVuSans-61" d="M 2194 1759 
Q 1497 1759 1228 1600 
Q 959 1441 959 1056 
Q 959 750 1161 570 
Q 1363 391 1709 391 
Q 2188 391 2477 730 
Q 2766 1069 2766 1631 
L 2766 1759 
L 2194 1759 
z
M 3341 1997 
L 3341 0 
L 2766 0 
L 2766 531 
Q 2569 213 2275 61 
Q 1981 -91 1556 -91 
Q 1019 -91 701 211 
Q 384 513 384 1019 
Q 384 1609 779 1909 
Q 1175 2209 1959 2209 
L 2766 2209 
L 2766 2266 
Q 2766 2663 2505 2880 
Q 2244 3097 1772 3097 
Q 1472 3097 1187 3025 
Q 903 2953 641 2809 
L 641 3341 
Q 956 3463 1253 3523 
Q 1550 3584 1831 3584 
Q 2591 3584 2966 3190 
Q 3341 2797 3341 1997 
z
" transform="scale(0.015625)"/>
       <path id="DejaVuSans-73" d="M 2834 3397 
L 2834 2853 
Q 2591 2978 2328 3040 
Q 2066 3103 1784 3103 
Q 1356 3103 1142 2972 
Q 928 2841 928 2578 
Q 928 2378 1081 2264 
Q 1234 2150 1697 2047 
L 1894 2003 
Q 2506 1872 2764 1633 
Q 3022 1394 3022 966 
Q 3022 478 2636 193 
Q 2250 -91 1575 -91 
Q 1294 -91 989 -36 
Q 684 19 347 128 
L 347 722 
Q 666 556 975 473 
Q 1284 391 1588 391 
Q 1994 391 2212 530 
Q 2431 669 2431 922 
Q 2431 1156 2273 1281 
Q 2116 1406 1581 1522 
L 1381 1569 
Q 847 1681 609 1914 
Q 372 2147 372 2553 
Q 372 3047 722 3315 
Q 1072 3584 1716 3584 
Q 2034 3584 2315 3537 
Q 2597 3491 2834 3397 
z
" transform="scale(0.015625)"/>
       <path id="DejaVuSans-2f" d="M 1625 4666 
L 2156 4666 
L 531 -594 
L 0 -594 
L 1625 4666 
z
" transform="scale(0.015625)"/>
       <path id="DejaVuSans-64" d="M 2906 2969 
L 2906 4863 
L 3481 4863 
L 3481 0 
L 2906 0 
L 2906 525 
Q 2725 213 2448 61 
Q 2172 -91 1784 -91 
Q 1150 -91 751 415 
Q 353 922 353 1747 
Q 353 2572 751 3078 
Q 1150 3584 1784 3584 
Q 2172 3584 2448 3432 
Q 2725 3281 2906 2969 
z
M 947 1747 
Q 947 1113 1208 752 
Q 1469 391 1925 391 
Q 2381 391 2643 752 
Q 2906 1113 2906 1747 
Q 2906 2381 2643 2742 
Q 2381 3103 1925 3103 
Q 1469 3103 1208 2742 
Q 947 2381 947 1747 
z
" transform="scale(0.015625)"/>
       <path id="DejaVuSans-69" d="M 603 3500 
L 1178 3500 
L 1178 0 
L 603 0 
L 603 3500 
z
M 603 4863 
L 1178 4863 
L 1178 4134 
L 603 4134 
L 603 4863 
z
" transform="scale(0.015625)"/>
       <path id="DejaVuSans-6d" d="M 3328 2828 
Q 3544 3216 3844 3400 
Q 4144 3584 4550 3584 
Q 5097 3584 5394 3201 
Q 5691 2819 5691 2113 
L 5691 0 
L 5113 0 
L 5113 2094 
Q 5113 2597 4934 2840 
Q 4756 3084 4391 3084 
Q 3944 3084 3684 2787 
Q 3425 2491 3425 1978 
L 3425 0 
L 2847 0 
L 2847 2094 
Q 2847 2600 2669 2842 
Q 2491 3084 2119 3084 
Q 1678 3084 1418 2786 
Q 1159 2488 1159 1978 
L 1159 0 
L 581 0 
L 581 3500 
L 1159 3500 
L 1159 2956 
Q 1356 3278 1631 3431 
Q 1906 3584 2284 3584 
Q 2666 3584 2933 3390 
Q 3200 3197 3328 2828 
z
" transform="scale(0.015625)"/>
       <path id="DejaVuSans-6e" d="M 3513 2113 
L 3513 0 
L 2938 0 
L 2938 2094 
Q 2938 2591 2744 2837 
Q 2550 3084 2163 3084 
Q 1697 3084 1428 2787 
Q 1159 2491 1159 1978 
L 1159 0 
L 581 0 
L 581 3500 
L 1159 3500 
L 1159 2956 
Q 1366 3272 1645 3428 
Q 1925 3584 2291 3584 
Q 2894 3584 3203 3211 
Q 3513 2838 3513 2113 
z
" transform="scale(0.015625)"/>
       <path id="DejaVuSans-29" d="M 513 4856 
L 1013 4856 
Q 1481 4119 1714 3412 
Q 1947 2706 1947 2009 
Q 1947 1309 1714 600 
Q 1481 -109 1013 -844 
L 513 -844 
Q 928 -128 1133 580 
Q 1338 1288 1338 2009 
Q 1338 2731 1133 3434 
Q 928 4138 513 4856 
z
" transform="scale(0.015625)"/>
      </defs>
      <use xlink:href="#DejaVuSans-6c"/>
      <use xlink:href="#DejaVuSans-6f" x="27.783203"/>
      <use xlink:href="#DejaVuSans-67" x="88.964844"/>
      <use xlink:href="#DejaVuSans-31" x="152.441406"/>
      <use xlink:href="#DejaVuSans-30" x="216.064453"/>
      <use xlink:href="#DejaVuSans-28" x="279.6875"/>
      <use xlink:href="#DejaVuSans-23" x="318.701172"/>
      <use xlink:href="#DejaVuSans-20" x="402.490234"/>
      <use xlink:href="#DejaVuSans-66" x="434.277344"/>
      <use xlink:href="#DejaVuSans-2d" x="463.982422"/>
      <use xlink:href="#DejaVuSans-65" x="500.066406"/>
      <use xlink:href="#DejaVuSans-76" x="561.589844"/>
      <use xlink:href="#DejaVuSans-61" x="620.769531"/>
      <use xlink:href="#DejaVuSans-6c" x="682.048828"/>
      <use xlink:href="#DejaVuSans-73" x="709.832031"/>
      <use xlink:href="#DejaVuSans-20" x="761.931641"/>
      <use xlink:href="#DejaVuSans-2f" x="793.71875"/>
      <use xlink:href="#DejaVuSans-20" x="827.410156"/>
      <use xlink:href="#DejaVuSans-64" x="859.197266"/>
      <use xlink:href="#DejaVuSans-69" x="922.673828"/>
      <use xlink:href="#DejaVuSans-6d" x="950.457031"/>
      <use xlink:href="#DejaVuSans-65" x="1047.869141"/>
      <use xlink:href="#DejaVuSans-6e" x="1109.392578"/>
      <use xlink:href="#DejaVuSans-73" x="1172.771484"/>
      <use xlink:href="#DejaVuSans-69" x="1224.871094"/>
      <use xlink:href="#DejaVuSans-6f" x="1252.654297"/>
      <use xlink:href="#DejaVuSans-6e" x="1313.835938"/>
      <use xlink:href="#DejaVuSans-29" x="1377.214844"/>
     </g>
    </g>
   </g>
   <g id="matplotlib.axis_2">
    <g id="ytick_1">
     <g id="line2d_21">
      <path d="M 57.6 298.944 
L 360.8064 298.944 
" clip-path="url(#pa98f5bcebe)" style="fill: none; stroke: #b0b0b0; stroke-width: 0.8; stroke-linecap: square"/>
     </g>
     <g id="line2d_22">
      <defs>
       <path id="m5a9190ccb0" d="M 0 0 
L -3.5 0 
" style="stroke: #000000; stroke-width: 0.8"/>
      </defs>
      <g>
       <use xlink:href="#m5a9190ccb0" x="57.6" y="298.944" style="stroke: #000000; stroke-width: 0.8"/>
      </g>
     </g>
     <g id="text_6">
      <!-- 0.0 -->
      <g transform="translate(25.155 305.02275)scale(0.16 -0.16)">
       <defs>
        <path id="DejaVuSans-2e" d="M 684 794 
L 1344 794 
L 1344 0 
L 684 0 
L 684 794 
z
" transform="scale(0.015625)"/>
       </defs>
       <use xlink:href="#DejaVuSans-30"/>
       <use xlink:href="#DejaVuSans-2e" x="63.623047"/>
       <use xlink:href="#DejaVuSans-30" x="95.410156"/>
      </g>
     </g>
    </g>
    <g id="ytick_2">
     <g id="line2d_23">
      <path d="M 57.6 240.5376 
L 360.8064 240.5376 
" clip-path="url(#pa98f5bcebe)" style="fill: none; stroke: #b0b0b0; stroke-width: 0.8; stroke-linecap: square"/>
     </g>
     <g id="line2d_24">
      <g>
       <use xlink:href="#m5a9190ccb0" x="57.6" y="240.5376" style="stroke: #000000; stroke-width: 0.8"/>
      </g>
     </g>
     <g id="text_7">
      <!-- 0.2 -->
      <g transform="translate(25.155 246.61635)scale(0.16 -0.16)">
       <use xlink:href="#DejaVuSans-30"/>
       <use xlink:href="#DejaVuSans-2e" x="63.623047"/>
       <use xlink:href="#DejaVuSans-32" x="95.410156"/>
      </g>
     </g>
    </g>
    <g id="ytick_3">
     <g id="line2d_25">
      <path d="M 57.6 182.1312 
L 360.8064 182.1312 
" clip-path="url(#pa98f5bcebe)" style="fill: none; stroke: #b0b0b0; stroke-width: 0.8; stroke-linecap: square"/>
     </g>
     <g id="line2d_26">
      <g>
       <use xlink:href="#m5a9190ccb0" x="57.6" y="182.1312" style="stroke: #000000; stroke-width: 0.8"/>
      </g>
     </g>
     <g id="text_8">
      <!-- 0.4 -->
      <g transform="translate(25.155 188.20995)scale(0.16 -0.16)">
       <use xlink:href="#DejaVuSans-30"/>
       <use xlink:href="#DejaVuSans-2e" x="63.623047"/>
       <use xlink:href="#DejaVuSans-34" x="95.410156"/>
      </g>
     </g>
    </g>
    <g id="ytick_4">
     <g id="line2d_27">
      <path d="M 57.6 123.7248 
L 360.8064 123.7248 
" clip-path="url(#pa98f5bcebe)" style="fill: none; stroke: #b0b0b0; stroke-width: 0.8; stroke-linecap: square"/>
     </g>
     <g id="line2d_28">
      <g>
       <use xlink:href="#m5a9190ccb0" x="57.6" y="123.7248" style="stroke: #000000; stroke-width: 0.8"/>
      </g>
     </g>
     <g id="text_9">
      <!-- 0.6 -->
      <g transform="translate(25.155 129.80355)scale(0.16 -0.16)">
       <use xlink:href="#DejaVuSans-30"/>
       <use xlink:href="#DejaVuSans-2e" x="63.623047"/>
       <use xlink:href="#DejaVuSans-36" x="95.410156"/>
      </g>
     </g>
    </g>
    <g id="ytick_5">
     <g id="line2d_29">
      <path d="M 57.6 65.3184 
L 360.8064 65.3184 
" clip-path="url(#pa98f5bcebe)" style="fill: none; stroke: #b0b0b0; stroke-width: 0.8; stroke-linecap: square"/>
     </g>
     <g id="line2d_30">
      <g>
       <use xlink:href="#m5a9190ccb0" x="57.6" y="65.3184" style="stroke: #000000; stroke-width: 0.8"/>
      </g>
     </g>
     <g id="text_10">
      <!-- 0.8 -->
      <g transform="translate(25.155 71.39715)scale(0.16 -0.16)">
       <defs>
        <path id="DejaVuSans-38" d="M 2034 2216 
Q 1584 2216 1326 1975 
Q 1069 1734 1069 1313 
Q 1069 891 1326 650 
Q 1584 409 2034 409 
Q 2484 409 2743 651 
Q 3003 894 3003 1313 
Q 3003 1734 2745 1975 
Q 2488 2216 2034 2216 
z
M 1403 2484 
Q 997 2584 770 2862 
Q 544 3141 544 3541 
Q 544 4100 942 4425 
Q 1341 4750 2034 4750 
Q 2731 4750 3128 4425 
Q 3525 4100 3525 3541 
Q 3525 3141 3298 2862 
Q 3072 2584 2669 2484 
Q 3125 2378 3379 2068 
Q 3634 1759 3634 1313 
Q 3634 634 3220 271 
Q 2806 -91 2034 -91 
Q 1263 -91 848 271 
Q 434 634 434 1313 
Q 434 1759 690 2068 
Q 947 2378 1403 2484 
z
M 1172 3481 
Q 1172 3119 1398 2916 
Q 1625 2713 2034 2713 
Q 2441 2713 2670 2916 
Q 2900 3119 2900 3481 
Q 2900 3844 2670 4047 
Q 2441 4250 2034 4250 
Q 1625 4250 1398 4047 
Q 1172 3844 1172 3481 
z
" transform="scale(0.015625)"/>
       </defs>
       <use xlink:href="#DejaVuSans-30"/>
       <use xlink:href="#DejaVuSans-2e" x="63.623047"/>
       <use xlink:href="#DejaVuSans-38" x="95.410156"/>
      </g>
     </g>
    </g>
    <g id="ytick_6">
     <g id="line2d_31">
      <path d="M 57.6 6.912 
L 360.8064 6.912 
" clip-path="url(#pa98f5bcebe)" style="fill: none; stroke: #b0b0b0; stroke-width: 0.8; stroke-linecap: square"/>
     </g>
     <g id="line2d_32">
      <g>
       <use xlink:href="#m5a9190ccb0" x="57.6" y="6.912" style="stroke: #000000; stroke-width: 0.8"/>
      </g>
     </g>
     <g id="text_11">
      <!-- 1.0 -->
      <g transform="translate(25.155 12.99075)scale(0.16 -0.16)">
       <use xlink:href="#DejaVuSans-31"/>
       <use xlink:href="#DejaVuSans-2e" x="63.623047"/>
       <use xlink:href="#DejaVuSans-30" x="95.410156"/>
      </g>
     </g>
    </g>
    <g id="text_12">
     <!-- Fraction of function,target pairs -->
     <g transform="translate(17.619531 287.313)rotate(-90)scale(0.17 -0.17)">
      <defs>
       <path id="DejaVuSans-46" d="M 628 4666 
L 3309 4666 
L 3309 4134 
L 1259 4134 
L 1259 2759 
L 3109 2759 
L 3109 2228 
L 1259 2228 
L 1259 0 
L 628 0 
L 628 4666 
z
" transform="scale(0.015625)"/>
       <path id="DejaVuSans-72" d="M 2631 2963 
Q 2534 3019 2420 3045 
Q 2306 3072 2169 3072 
Q 1681 3072 1420 2755 
Q 1159 2438 1159 1844 
L 1159 0 
L 581 0 
L 581 3500 
L 1159 3500 
L 1159 2956 
Q 1341 3275 1631 3429 
Q 1922 3584 2338 3584 
Q 2397 3584 2469 3576 
Q 2541 3569 2628 3553 
L 2631 2963 
z
" transform="scale(0.015625)"/>
       <path id="DejaVuSans-63" d="M 3122 3366 
L 3122 2828 
Q 2878 2963 2633 3030 
Q 2388 3097 2138 3097 
Q 1578 3097 1268 2742 
Q 959 2388 959 1747 
Q 959 1106 1268 751 
Q 1578 397 2138 397 
Q 2388 397 2633 464 
Q 2878 531 3122 666 
L 3122 134 
Q 2881 22 2623 -34 
Q 2366 -91 2075 -91 
Q 1284 -91 818 406 
Q 353 903 353 1747 
Q 353 2603 823 3093 
Q 1294 3584 2113 3584 
Q 2378 3584 2631 3529 
Q 2884 3475 3122 3366 
z
" transform="scale(0.015625)"/>
       <path id="DejaVuSans-74" d="M 1172 4494 
L 1172 3500 
L 2356 3500 
L 2356 3053 
L 1172 3053 
L 1172 1153 
Q 1172 725 1289 603 
Q 1406 481 1766 481 
L 2356 481 
L 2356 0 
L 1766 0 
Q 1100 0 847 248 
Q 594 497 594 1153 
L 594 3053 
L 172 3053 
L 172 3500 
L 594 3500 
L 594 4494 
L 1172 4494 
z
" transform="scale(0.015625)"/>
       <path id="DejaVuSans-75" d="M 544 1381 
L 544 3500 
L 1119 3500 
L 1119 1403 
Q 1119 906 1312 657 
Q 1506 409 1894 409 
Q 2359 409 2629 706 
Q 2900 1003 2900 1516 
L 2900 3500 
L 3475 3500 
L 3475 0 
L 2900 0 
L 2900 538 
Q 2691 219 2414 64 
Q 2138 -91 1772 -91 
Q 1169 -91 856 284 
Q 544 659 544 1381 
z
M 1991 3584 
L 1991 3584 
z
" transform="scale(0.015625)"/>
       <path id="DejaVuSans-2c" d="M 750 794 
L 1409 794 
L 1409 256 
L 897 -744 
L 494 -744 
L 750 256 
L 750 794 
z
" transform="scale(0.015625)"/>
       <path id="DejaVuSans-70" d="M 1159 525 
L 1159 -1331 
L 581 -1331 
L 581 3500 
L 1159 3500 
L 1159 2969 
Q 1341 3281 1617 3432 
Q 1894 3584 2278 3584 
Q 2916 3584 3314 3078 
Q 3713 2572 3713 1747 
Q 3713 922 3314 415 
Q 2916 -91 2278 -91 
Q 1894 -91 1617 61 
Q 1341 213 1159 525 
z
M 3116 1747 
Q 3116 2381 2855 2742 
Q 2594 3103 2138 3103 
Q 1681 3103 1420 2742 
Q 1159 2381 1159 1747 
Q 1159 1113 1420 752 
Q 1681 391 2138 391 
Q 2594 391 2855 752 
Q 3116 1113 3116 1747 
z
" transform="scale(0.015625)"/>
      </defs>
      <use xlink:href="#DejaVuSans-46"/>
      <use xlink:href="#DejaVuSans-72" x="50.269531"/>
      <use xlink:href="#DejaVuSans-61" x="91.382812"/>
      <use xlink:href="#DejaVuSans-63" x="152.662109"/>
      <use xlink:href="#DejaVuSans-74" x="207.642578"/>
      <use xlink:href="#DejaVuSans-69" x="246.851562"/>
      <use xlink:href="#DejaVuSans-6f" x="274.634766"/>
      <use xlink:href="#DejaVuSans-6e" x="335.816406"/>
      <use xlink:href="#DejaVuSans-20" x="399.195312"/>
      <use xlink:href="#DejaVuSans-6f" x="430.982422"/>
      <use xlink:href="#DejaVuSans-66" x="492.164062"/>
      <use xlink:href="#DejaVuSans-20" x="527.369141"/>
      <use xlink:href="#DejaVuSans-66" x="559.15625"/>
      <use xlink:href="#DejaVuSans-75" x="594.361328"/>
      <use xlink:href="#DejaVuSans-6e" x="657.740234"/>
      <use xlink:href="#DejaVuSans-63" x="721.119141"/>
      <use xlink:href="#DejaVuSans-74" x="776.099609"/>
      <use xlink:href="#DejaVuSans-69" x="815.308594"/>
      <use xlink:href="#DejaVuSans-6f" x="843.091797"/>
      <use xlink:href="#DejaVuSans-6e" x="904.273438"/>
      <use xlink:href="#DejaVuSans-2c" x="967.652344"/>
      <use xlink:href="#DejaVuSans-74" x="999.439453"/>
      <use xlink:href="#DejaVuSans-61" x="1038.648438"/>
      <use xlink:href="#DejaVuSans-72" x="1099.927734"/>
      <use xlink:href="#DejaVuSans-67" x="1139.291016"/>
      <use xlink:href="#DejaVuSans-65" x="1202.767578"/>
      <use xlink:href="#DejaVuSans-74" x="1264.291016"/>
      <use xlink:href="#DejaVuSans-20" x="1303.5"/>
      <use xlink:href="#DejaVuSans-70" x="1335.287109"/>
      <use xlink:href="#DejaVuSans-61" x="1398.763672"/>
      <use xlink:href="#DejaVuSans-69" x="1460.042969"/>
      <use xlink:href="#DejaVuSans-72" x="1487.826172"/>
      <use xlink:href="#DejaVuSans-73" x="1528.939453"/>
     </g>
    </g>
   </g>
   <g id="line2d_33">
    <defs>
     <path id="me326fd4fc7" d="M 0 1.5 
C 0.397805 1.5 0.77937 1.341951 1.06066 1.06066 
C 1.341951 0.77937 1.5 0.397805 1.5 0 
C 1.5 -0.397805 1.341951 -0.77937 1.06066 -1.06066 
C 0.77937 -1.341951 0.397805 -1.5 0 -1.5 
C -0.397805 -1.5 -0.77937 -1.341951 -1.06066 -1.06066 
C -1.341951 -0.77937 -1.5 -0.397805 -1.5 0 
C -1.5 0.397805 -1.341951 0.77937 -1.06066 1.06066 
C -0.77937 1.341951 -0.397805 1.5 0 1.5 
z
" style="stroke: #f5deb3"/>
    </defs>
    <g>
     <use xlink:href="#me326fd4fc7" x="269.918502" y="42.157241" style="fill: #f5deb3; stroke: #f5deb3"/>
     <use xlink:href="#me326fd4fc7" x="269.918502" y="42.157241" style="fill: #f5deb3; stroke: #f5deb3"/>
    </g>
   </g>
   <g id="line2d_34">
    <defs>
     <path id="m1288e8ae20" d="M 0 1.5 
C 0.397805 1.5 0.77937 1.341951 1.06066 1.06066 
C 1.341951 0.77937 1.5 0.397805 1.5 0 
C 1.5 -0.397805 1.341951 -0.77937 1.06066 -1.06066 
C 0.77937 -1.341951 0.397805 -1.5 0 -1.5 
C -0.397805 -1.5 -0.77937 -1.341951 -1.06066 -1.06066 
C -1.341951 -0.77937 -1.5 -0.397805 -1.5 0 
C -1.5 0.397805 -1.341951 0.77937 -1.06066 1.06066 
C -0.77937 1.341951 -0.397805 1.5 0 1.5 
z
" style="stroke: #000080"/>
    </defs>
    <g>
     <use xlink:href="#m1288e8ae20" x="83.678349" y="283.713021" style="fill: #000080; stroke: #000080"/>
     <use xlink:href="#m1288e8ae20" x="83.678349" y="283.713021" style="fill: #000080; stroke: #000080"/>
    </g>
   </g>
   <g id="line2d_35">
    <path d="M 44.560826 298.944 
L 44.560826 293.657214 
L 57.6 293.657214 
L 57.6 290.887945 
L 65.227428 290.887945 
L 65.227428 289.755062 
L 70.639174 289.755062 
L 70.639174 288.873931 
L 74.836851 288.873931 
L 74.836851 287.489297 
L 78.266603 287.489297 
L 78.266603 286.230538 
L 81.166416 286.230538 
L 81.166416 284.971779 
L 83.678349 284.971779 
L 83.678349 283.713021 
L 360.8064 283.713021 
" style="fill: none; stroke: #000080; stroke-width: 1.5; stroke-linecap: square"/>
   </g>
   <g id="line2d_36">
    <defs>
     <path id="m9de2e3f272" d="M 0 6 
C 1.591219 6 3.117479 5.367802 4.242641 4.242641 
C 5.367802 3.117479 6 1.591219 6 0 
C 6 -1.591219 5.367802 -3.117479 4.242641 -4.242641 
C 3.117479 -5.367802 1.591219 -6 0 -6 
C -1.591219 -6 -3.117479 -5.367802 -4.242641 -4.242641 
C -5.367802 -3.117479 -6 -1.591219 -6 0 
C -6 1.591219 -5.367802 3.117479 -4.242641 4.242641 
C -3.117479 5.367802 -1.591219 6 0 6 
z
" style="stroke: #000080; stroke-width: 1.5"/>
    </defs>
    <g>
     <use xlink:href="#m9de2e3f272" x="83.678349" y="284.971779" style="fill-opacity: 0; stroke: #000080; stroke-width: 1.5"/>
     <use xlink:href="#m9de2e3f272" x="83.678349" y="284.971779" style="fill-opacity: 0; stroke: #000080; stroke-width: 1.5"/>
     <use xlink:href="#m9de2e3f272" x="83.678349" y="283.713021" style="fill-opacity: 0; stroke: #000080; stroke-width: 1.5"/>
     <use xlink:href="#m9de2e3f272" x="83.678349" y="283.713021" style="fill-opacity: 0; stroke: #000080; stroke-width: 1.5"/>
     <use xlink:href="#m9de2e3f272" x="83.678349" y="283.713021" style="fill-opacity: 0; stroke: #000080; stroke-width: 1.5"/>
     <use xlink:href="#m9de2e3f272" x="360.8064" y="283.713021" style="fill-opacity: 0; stroke: #000080; stroke-width: 1.5"/>
    </g>
   </g>
   <g id="line2d_37">
    <path style="fill: none; stroke: #000080; stroke-width: 1.5; stroke-linecap: square"/>
    <g/>
   </g>
   <g id="line2d_38">
    <path d="M 83.678349 283.713021 
" clip-path="url(#pa98f5bcebe)" style="fill: none; stroke: #000080; stroke-width: 1.5; stroke-linecap: square"/>
    <defs>
     <path id="me3895bedd9" d="M -12 12 
L 12 -12 
M -12 -12 
L 12 12 
" style="stroke: #000080"/>
    </defs>
    <g clip-path="url(#pa98f5bcebe)">
     <use xlink:href="#me3895bedd9" x="83.678349" y="283.713021" style="fill: #000080; stroke: #000080"/>
    </g>
   </g>
   <g id="line2d_39">
    <defs>
     <path id="mfbf4177071" d="M 0 1.5 
C 0.397805 1.5 0.77937 1.341951 1.06066 1.06066 
C 1.341951 0.77937 1.5 0.397805 1.5 0 
C 1.5 -0.397805 1.341951 -0.77937 1.06066 -1.06066 
C 0.77937 -1.341951 0.397805 -1.5 0 -1.5 
C -0.397805 -1.5 -0.77937 -1.341951 -1.06066 -1.06066 
C -1.341951 -0.77937 -1.5 -0.397805 -1.5 0 
C -1.5 0.397805 -1.341951 0.77937 -1.06066 1.06066 
C -0.77937 1.341951 -0.397805 1.5 0 1.5 
z
" style="stroke: #ff00ff"/>
    </defs>
    <g>
     <use xlink:href="#mfbf4177071" x="273.401607" y="93.766345" style="fill: #ff00ff; stroke: #ff00ff"/>
     <use xlink:href="#mfbf4177071" x="273.401607" y="93.766345" style="fill: #ff00ff; stroke: #ff00ff"/>
    </g>
   </g>
   <g id="line2d_40">
    <path d="M 44.560826 298.944 
L 44.560826 293.657214 
L 57.6 293.657214 
L 57.6 290.13269 
L 65.227428 290.13269 
L 65.227428 288.370428 
L 70.639174 288.370428 
L 70.639174 287.237545 
L 74.836851 287.237545 
L 74.836851 286.734041 
L 78.266603 286.734041 
L 78.266603 286.104662 
L 81.166416 286.104662 
L 81.166416 284.216524 
L 83.678349 284.216524 
L 83.678349 283.461269 
L 85.894031 283.461269 
L 85.894031 281.824883 
L 87.876026 281.824883 
L 87.876026 281.069628 
L 89.668958 281.069628 
L 89.668958 280.692 
L 91.305777 280.692 
L 91.305777 280.188497 
L 92.811505 280.188497 
L 92.811505 280.062621 
L 94.205591 280.062621 
L 94.205591 279.684993 
L 95.503454 279.684993 
L 95.503454 279.559117 
L 96.717523 279.559117 
L 96.717523 279.055614 
L 97.857967 279.055614 
L 97.857967 278.426234 
L 98.933205 278.426234 
L 98.933205 277.922731 
L 99.950294 277.922731 
L 99.950294 277.670979 
L 100.9152 277.670979 
L 100.9152 277.419228 
L 102.708132 277.419228 
L 102.708132 277.0416 
L 104.344952 277.0416 
L 104.344952 276.538097 
L 105.850679 276.538097 
L 105.850679 275.782841 
L 107.244765 275.782841 
L 107.244765 275.656966 
L 108.542628 275.656966 
L 108.542628 274.649959 
L 109.159456 274.649959 
L 109.159456 274.020579 
L 109.756698 274.020579 
L 109.756698 273.642952 
L 110.335561 273.642952 
L 110.335561 273.517076 
L 110.897141 273.517076 
L 110.897141 273.139448 
L 111.442442 273.139448 
L 111.442442 272.761821 
L 111.97238 272.761821 
L 111.97238 272.635945 
L 113.478107 272.635945 
L 113.478107 271.754814 
L 113.954374 271.754814 
L 113.954374 271.503062 
L 114.872193 271.503062 
L 114.872193 271.377186 
L 115.314838 271.377186 
L 115.314838 271.25131 
L 115.747307 271.25131 
L 115.747307 271.125434 
L 116.170056 271.125434 
L 116.170056 270.999559 
L 116.583514 270.999559 
L 116.583514 270.621931 
L 116.988079 270.621931 
L 116.988079 270.118428 
L 118.152051 270.118428 
L 118.152051 269.614924 
L 118.524569 269.614924 
L 118.524569 268.985545 
L 119.24818 268.985545 
L 119.24818 268.859669 
L 120.944062 268.859669 
L 120.944062 268.733793 
L 121.581803 268.733793 
L 121.581803 268.482041 
L 122.19863 268.482041 
L 122.19863 268.104414 
L 122.499621 268.104414 
L 122.499621 267.852662 
L 123.374735 267.852662 
L 123.374735 267.726786 
L 123.936316 267.726786 
L 123.936316 266.845655 
L 124.481616 266.845655 
L 124.481616 266.593903 
L 124.748451 266.593903 
L 124.748451 266.342152 
L 125.011554 266.342152 
L 125.011554 265.964524 
L 125.271028 265.964524 
L 125.271028 265.335145 
L 125.526971 265.335145 
L 125.526971 264.831641 
L 126.274549 264.831641 
L 126.274549 264.454014 
L 126.517282 264.454014 
L 126.517282 264.328138 
L 126.993549 264.328138 
L 126.993549 263.95051 
L 127.227236 263.95051 
L 127.227236 263.824634 
L 127.911368 263.824634 
L 127.911368 263.572883 
L 128.57149 263.572883 
L 128.57149 263.447007 
L 128.786481 263.447007 
L 128.786481 262.691752 
L 128.999044 262.691752 
L 128.999044 262.062372 
L 129.209231 262.062372 
L 129.209231 261.810621 
L 129.417095 261.810621 
L 129.417095 261.558869 
L 130.618241 261.558869 
L 130.618241 261.055366 
L 130.811181 261.055366 
L 130.811181 260.677738 
L 131.002163 260.677738 
L 131.002163 260.048359 
L 131.378407 260.048359 
L 131.378407 259.293103 
L 131.563744 259.293103 
L 131.563744 259.041352 
L 131.747272 259.041352 
L 131.747272 258.663724 
L 131.929028 258.663724 
L 131.929028 258.160221 
L 132.109044 258.160221 
L 132.109044 257.782593 
L 132.287354 257.782593 
L 132.287354 257.656717 
L 132.46399 257.656717 
L 132.46399 257.027338 
L 132.638982 257.027338 
L 132.638982 256.397959 
L 132.812362 256.397959 
L 132.812362 256.272083 
L 132.984158 256.272083 
L 132.984158 255.265076 
L 133.154399 255.265076 
L 133.154399 255.013324 
L 133.323114 255.013324 
L 133.323114 254.761572 
L 133.656071 254.761572 
L 133.656071 254.635697 
L 133.983236 254.635697 
L 133.983236 254.383945 
L 134.14471 254.383945 
L 134.14471 254.132193 
L 134.304809 254.132193 
L 134.304809 254.006317 
L 134.463557 254.006317 
L 134.463557 253.376938 
L 134.931919 253.376938 
L 134.931919 252.747559 
L 135.388902 252.747559 
L 135.388902 252.621683 
L 135.538796 252.621683 
L 135.538796 252.495807 
L 135.981441 252.495807 
L 135.981441 252.244055 
L 136.270855 252.244055 
L 136.270855 252.118179 
L 136.555884 252.118179 
L 136.555884 251.614676 
L 136.696795 251.614676 
L 136.696795 251.4888 
L 136.97549 251.4888 
L 136.97549 251.362924 
L 137.113304 251.362924 
L 137.113304 250.733545 
L 137.250116 250.733545 
L 137.250116 250.607669 
L 137.520791 250.607669 
L 137.520791 250.481793 
L 138.050729 250.481793 
L 138.050729 250.230041 
L 138.180913 250.230041 
L 138.180913 250.104166 
L 138.438609 250.104166 
L 138.438609 249.726538 
L 138.566146 249.726538 
L 138.566146 249.600662 
L 138.692823 249.600662 
L 138.692823 249.097159 
L 138.943648 249.097159 
L 138.943648 248.971283 
L 139.067817 248.971283 
L 139.067817 248.719531 
L 139.313723 248.719531 
L 139.313723 248.341903 
L 139.435481 248.341903 
L 139.435481 248.090152 
L 139.676658 248.090152 
L 139.676658 247.586648 
L 139.796097 247.586648 
L 139.796097 247.083145 
L 140.032723 247.083145 
L 140.032723 246.705517 
L 140.26641 246.705517 
L 140.26641 246.579641 
L 140.382174 246.579641 
L 140.382174 246.32789 
L 140.49723 246.32789 
L 140.49723 246.076138 
L 141.062184 246.076138 
L 141.173167 245.320883 
L 141.393187 245.320883 
L 141.393187 245.069131 
L 141.610664 245.069131 
L 141.610664 244.565628 
L 141.825656 244.565628 
L 141.932237 243.936248 
L 142.352625 243.936248 
L 142.352625 243.810372 
L 142.661862 243.810372 
L 142.763822 242.803366 
L 142.865233 242.803366 
L 142.966099 242.04811 
L 143.364242 242.04811 
L 143.462475 241.796359 
L 144.041338 241.796359 
L 144.136106 241.041103 
L 144.324223 241.041103 
L 144.324223 240.5376 
L 144.602918 240.5376 
L 144.694906 240.034097 
L 144.786447 240.034097 
L 144.877544 239.782345 
L 145.058426 239.782345 
L 145.148219 239.152966 
L 145.326529 239.152966 
L 145.326529 238.901214 
L 145.503164 238.901214 
L 145.503164 238.523586 
L 145.678157 238.523586 
L 145.765046 238.145959 
L 146.108646 238.145959 
L 146.108646 238.020083 
L 146.27812 238.020083 
L 146.27812 237.894207 
L 146.612557 237.894207 
L 146.612557 237.642455 
L 147.022411 237.642455 
L 147.022411 237.390703 
L 147.264104 237.390703 
L 147.264104 237.138952 
L 147.816265 237.138952 
L 147.893838 236.509572 
L 148.124658 236.509572 
L 148.124658 236.257821 
L 148.276979 236.257821 
L 148.352679 235.502566 
L 148.503173 235.502566 
L 148.503173 235.250814 
L 148.800595 235.250814 
L 148.874221 234.621434 
L 149.165879 234.621434 
L 149.165879 234.495559 
L 149.945377 234.495559 
L 149.945377 234.369683 
L 150.083698 234.369683 
L 150.083698 234.243807 
L 150.221009 234.243807 
L 150.221009 233.992055 
L 150.62703 233.992055 
L 150.62703 233.740303 
L 150.958812 233.740303 
L 151.024471 232.733297 
L 151.089903 232.733297 
L 151.089903 232.481545 
L 151.349377 232.481545 
L 151.349377 232.103917 
L 151.477784 232.103917 
L 151.477784 231.978041 
L 151.731998 231.978041 
L 151.731998 231.72629 
L 152.045009 231.72629 
L 152.106991 231.09691 
L 152.775647 231.09691 
L 152.775647 230.845159 
L 153.130592 230.845159 
L 153.130592 230.341655 
L 153.536404 230.341655 
L 153.593669 229.964028 
L 153.877408 229.964028 
L 153.877408 229.712276 
L 153.989717 229.712276 
L 153.989717 229.5864 
L 154.101358 229.5864 
L 154.212341 229.208772 
L 154.377597 229.208772 
L 154.377597 228.957021 
L 154.541415 228.957021 
L 154.541415 228.705269 
L 154.86483 228.705269 
L 154.971412 228.327641 
L 155.077392 228.327641 
L 155.077392 228.07589 
L 155.339761 228.07589 
L 155.339761 227.824138 
L 155.701037 227.824138 
L 155.701037 227.698262 
L 155.904407 227.698262 
L 155.904407 227.44651 
L 156.88953 227.44651 
L 156.88953 227.194759 
L 157.127956 227.194759 
L 157.222487 226.817131 
L 157.503261 226.817131 
L 157.503261 226.691255 
L 158.542339 226.691255 
L 158.542339 226.439503 
L 158.933807 226.439503 
L 158.933807 226.187752 
L 159.443406 226.187752 
L 159.443406 226.061876 
L 159.898714 226.061876 
L 159.898714 225.810124 
L 160.738476 225.810124 
L 160.738476 225.684248 
L 161.087207 225.684248 
L 161.087207 225.432497 
L 161.617145 225.432497 
L 161.654432 224.928993 
L 161.950101 224.928993 
L 162.023298 224.551366 
L 162.132562 224.551366 
L 162.132562 224.047862 
L 162.456597 224.047862 
L 162.456597 223.79611 
L 162.66956 223.79611 
L 162.66956 223.670234 
L 163.498092 223.670234 
L 163.498092 223.544359 
L 163.899064 223.544359 
L 163.899064 223.418483 
L 164.516958 223.418483 
L 164.580835 222.914979 
L 164.739583 222.914979 
L 164.802709 222.2856 
L 165.574415 222.2856 
L 165.604634 221.907972 
L 165.993131 221.907972 
L 166.081656 221.404469 
L 166.169767 221.404469 
L 166.257466 221.026841 
L 166.518139 221.026841 
L 166.518139 220.77509 
L 167.056864 220.77509 
L 167.140533 220.523338 
L 167.471536 220.523338 
L 167.471536 220.271586 
L 167.716022 220.271586 
L 167.716022 220.14571 
L 168.221954 220.14571 
L 168.221954 220.019834 
L 168.482867 220.019834 
L 168.534619 219.390455 
L 168.689024 219.390455 
L 168.689024 219.264579 
L 168.816733 219.264579 
L 168.816733 219.138703 
L 169.711507 219.138703 
L 169.784185 218.761076 
L 170.190808 218.761076 
L 170.190808 218.6352 
L 170.355719 218.6352 
L 170.449309 218.257572 
L 170.542436 218.257572 
L 170.542436 218.131697 
L 170.6582 218.131697 
L 170.6582 217.879945 
L 171.091717 217.879945 
L 171.091717 217.754069 
L 171.493403 217.754069 
L 171.493403 217.628193 
L 171.669213 217.628193 
L 171.669213 217.376441 
L 171.843395 217.376441 
L 171.843395 217.250566 
L 172.037442 217.250566 
L 172.037442 216.998814 
L 172.419631 216.998814 
L 172.419631 216.49531 
L 172.91743 216.49531 
L 172.91743 216.369434 
L 173.039848 216.369434 
L 173.039848 216.243559 
L 173.501874 216.243559 
L 173.501874 216.117683 
L 173.855707 216.117683 
L 173.855707 215.991807 
L 174.260272 215.991807 
L 174.298352 215.488303 
L 174.468765 215.488303 
L 174.468765 215.362428 
L 174.618958 215.362428 
L 174.618958 215.236552 
L 174.823534 215.236552 
L 174.934191 214.481297 
L 174.95257 214.481297 
L 175.0442 213.600166 
L 175.135386 213.600166 
L 175.135386 213.348414 
L 175.442151 213.348414 
L 175.442151 212.84491 
L 175.584799 212.84491 
L 175.673408 212.593159 
L 175.954182 212.593159 
L 176.023726 212.089655 
L 176.093013 212.089655 
L 176.179266 211.712028 
L 176.384671 211.712028 
L 176.486539 210.956772 
L 176.655103 210.956772 
L 176.722107 210.453269 
L 176.855405 210.453269 
L 176.855405 210.075641 
L 177.330842 210.075641 
L 177.347024 209.446262 
L 177.45991 209.446262 
L 177.45991 209.320386 
L 177.60406 209.320386 
L 177.667774 208.942759 
L 177.762943 208.942759 
L 177.857632 208.691007 
L 178.061171 208.691007 
L 178.123358 207.935752 
L 178.262532 207.935752 
L 178.370071 207.054621 
L 178.400683 207.054621 
L 178.400683 206.802869 
L 178.583321 206.802869 
L 178.689047 206.299366 
L 178.794182 206.299366 
L 178.898732 205.292359 
L 179.135545 205.292359 
L 179.179617 204.788855 
L 179.340338 204.788855 
L 179.441905 204.411228 
L 179.514118 204.411228 
L 179.57169 203.907724 
L 179.75759 203.907724 
L 179.828604 203.530097 
L 179.871084 203.530097 
L 179.969833 202.774841 
L 180.068066 202.774841 
L 180.151859 201.89371 
L 180.359723 201.89371 
L 180.3735 201.516083 
L 180.578943 201.516083 
L 180.578943 201.264331 
L 180.889661 201.264331 
L 180.943179 200.886703 
L 181.036471 200.886703 
L 181.089573 200.3832 
L 181.300497 200.3832 
L 181.35286 199.879697 
L 181.612513 199.879697 
L 181.67687 199.502069 
L 181.830435 199.502069 
L 181.830435 199.250317 
L 181.97011 199.250317 
L 182.045861 198.998566 
L 182.14639 198.998566 
L 182.183951 198.369186 
L 182.420108 198.369186 
L 182.420108 197.991559 
L 182.604477 197.991559 
L 182.604477 197.739807 
L 182.847523 197.739807 
L 182.943869 197.362179 
L 182.979872 197.362179 
L 183.08747 196.858676 
L 183.135094 196.858676 
L 183.146981 196.481048 
L 183.25363 196.481048 
L 183.300836 194.844662 
L 183.394894 194.844662 
L 183.406618 194.467034 
L 183.52346 194.467034 
L 183.58161 194.089407 
L 183.639581 194.089407 
L 183.639581 193.963531 
L 183.75499 193.963531 
L 183.835357 193.208276 
L 183.90397 193.208276 
L 183.995068 192.704772 
L 184.029116 192.704772 
L 184.029116 192.327145 
L 184.164695 192.327145 
L 184.187197 192.075393 
L 184.276936 192.075393 
L 184.288124 191.57189 
L 184.499429 191.57189 
L 184.587695 190.564883 
L 184.730249 190.564883 
L 184.762993 190.187255 
L 184.904229 190.187255 
L 184.91505 189.809628 
L 185.087338 189.809628 
L 185.151541 189.306124 
L 185.268681 189.306124 
L 185.374543 188.424993 
L 185.458805 188.424993 
L 185.521755 188.047366 
L 185.626206 188.047366 
L 185.719719 187.040359 
L 185.781803 187.040359 
L 185.802452 186.410979 
L 185.895095 186.410979 
L 185.977062 185.7816 
L 186.028112 185.7816 
L 186.109503 185.026345 
L 186.251096 185.026345 
L 186.311454 184.522841 
L 186.381628 184.522841 
L 186.481424 183.64171 
L 186.50132 183.64171 
L 186.600485 182.760579 
L 186.728623 182.760579 
L 186.758069 182.508828 
L 186.865648 182.508828 
L 186.865648 182.382952 
L 187.069333 182.382952 
L 187.175151 182.005324 
L 187.213483 182.005324 
L 187.213483 181.375945 
L 187.328014 181.375945 
L 187.366036 181.124193 
L 187.470203 181.124193 
L 187.470203 180.998317 
L 187.59257 180.998317 
L 187.64878 180.62069 
L 187.732781 180.62069 
L 187.797857 180.243062 
L 187.862709 180.243062 
L 187.973365 179.487807 
L 188.000928 179.487807 
L 188.055932 178.858428 
L 188.119902 178.858428 
L 188.210911 178.4808 
L 188.274356 178.4808 
L 188.328568 178.103172 
L 188.391619 178.103172 
L 188.391619 177.851421 
L 188.52602 177.851421 
L 188.606202 177.096166 
L 188.641729 177.096166 
L 188.730254 176.592662 
L 188.75673 176.592662 
L 188.75673 176.34091 
L 188.871033 176.34091 
L 188.967211 175.711531 
L 188.984646 175.711531 
L 189.0629 175.333903 
L 189.183987 175.333903 
L 189.287158 174.578648 
L 189.312863 174.578648 
L 189.406814 174.326897 
L 189.474849 174.326897 
L 189.542638 174.075145 
L 189.601754 174.075145 
L 189.711051 172.942262 
L 189.960876 172.942262 
L 190.018694 172.438759 
L 190.150186 172.438759 
L 190.207426 171.809379 
L 190.531213 171.809379 
L 190.603304 171.431752 
L 190.683081 171.431752 
L 190.762522 170.298869 
L 190.833733 170.298869 
L 190.943973 169.66949 
L 190.959669 169.66949 
L 190.998851 169.165986 
L 191.084767 169.165986 
L 191.084767 169.04011 
L 191.224515 169.04011 
L 191.26315 168.536607 
L 191.355553 168.536607 
L 191.439858 167.907228 
L 191.470421 167.907228 
L 191.554214 167.277848 
L 191.728221 167.277848 
L 191.73575 166.900221 
L 191.930458 166.900221 
L 191.989965 166.396717 
L 192.101035 166.396717 
L 192.137913 166.01909 
L 192.218791 166.01909 
L 192.218791 165.893214 
L 192.372237 165.893214 
L 192.481079 165.012083 
L 192.62523 165.012083 
L 192.682582 164.256828 
L 192.73976 164.256828 
L 192.73976 164.130952 
L 192.853597 164.130952 
L 192.910259 163.627448 
L 192.994932 163.627448 
L 193.079226 163.249821 
L 193.177094 163.249821 
L 193.267517 162.746317 
L 193.288323 162.746317 
L 193.364413 161.991062 
L 193.405787 161.991062 
L 193.501975 161.73931 
L 193.543048 161.73931 
L 193.624927 161.235807 
L 193.733547 161.235807 
L 193.828077 160.858179 
L 193.982354 160.858179 
L 194.082291 160.2288 
L 194.221318 160.2288 
L 194.274012 159.851172 
L 194.365871 159.851172 
L 194.444253 159.473545 
L 194.58711 159.473545 
L 194.600043 158.970041 
L 194.716045 158.970041 
L 194.716045 158.71829 
L 194.831336 158.71829 
L 194.92052 158.340662 
L 195.141649 158.340662 
L 195.248124 157.837159 
L 195.260611 157.837159 
L 195.266852 157.585407 
L 195.416002 157.585407 
L 195.446927 157.207779 
L 195.545546 157.207779 
L 195.600793 156.704276 
L 195.661989 156.704276 
L 195.729075 156.074897 
L 195.777715 156.074897 
L 195.85044 155.445517 
L 195.910831 155.445517 
L 196.001054 155.193766 
L 196.031033 155.193766 
L 196.138562 154.942014 
L 196.162374 154.942014 
L 196.162374 154.816138 
L 196.498461 154.816138 
L 196.550983 154.186759 
L 196.655589 154.186759 
L 196.759616 153.809131 
L 196.84013 153.809131 
L 196.948851 152.928 
L 197.017195 152.928 
L 197.1249 152.298621 
L 197.282509 152.298621 
L 197.38871 151.795117 
L 197.427686 151.795117 
L 197.494315 151.291614 
L 197.643373 151.291614 
L 197.659862 150.913986 
L 197.889208 150.913986 
L 197.965039 150.158731 
L 198.131871 150.158731 
L 198.158641 149.781103 
L 198.244052 149.781103 
L 198.244052 149.655228 
L 198.418995 149.655228 
L 198.466425 149.2776 
L 198.53997 149.2776 
L 198.644537 148.774097 
L 198.882858 148.774097 
L 198.882858 148.522345 
L 199.041779 148.522345 
L 199.041779 148.396469 
L 199.184176 148.396469 
L 199.184176 148.270593 
L 199.325503 148.270593 
L 199.330531 147.892966 
L 199.440804 147.892966 
L 199.440804 147.76709 
L 199.590142 147.76709 
L 199.664369 147.389462 
L 199.899946 147.389462 
L 199.929187 147.13771 
L 200.040857 147.13771 
L 200.137426 146.885959 
L 200.457366 146.885959 
L 200.556536 146.634207 
L 200.603577 146.634207 
L 200.627053 146.382455 
L 200.874117 146.382455 
L 200.906507 146.130703 
L 201.01254 146.130703 
L 201.044692 145.878952 
L 201.272769 145.878952 
L 201.345173 145.6272 
L 201.435289 145.6272 
L 201.435289 145.375448 
L 201.765012 145.375448 
L 201.765012 145.249572 
L 201.897054 145.249572 
L 202.006386 144.746069 
L 202.084713 144.746069 
L 202.089055 144.368441 
L 202.445988 144.368441 
L 202.475784 143.864938 
L 202.833869 143.864938 
L 202.942054 143.48731 
L 203.360561 143.48731 
L 203.360561 143.361434 
L 203.670439 143.361434 
L 203.670439 143.235559 
L 203.880803 143.235559 
L 203.880803 143.109683 
L 203.998843 143.109683 
L 203.998843 142.983807 
L 204.279153 142.983807 
L 204.283017 142.606179 
L 204.984527 142.606179 
L 204.984527 142.480303 
L 205.243287 142.480303 
L 205.243287 142.354428 
L 205.509398 142.354428 
L 205.509398 142.228552 
L 205.621275 142.228552 
L 205.621275 141.9768 
L 205.864377 141.9768 
L 205.917582 141.599172 
L 206.626618 141.599172 
L 206.626618 141.473297 
L 207.22418 141.473297 
L 207.326336 141.221545 
L 207.375568 141.221545 
L 207.375568 141.095669 
L 207.713412 141.095669 
L 207.713412 140.843917 
L 207.87051 140.843917 
L 207.87051 140.718041 
L 209.043229 140.718041 
L 209.043229 140.592166 
L 209.22533 140.592166 
L 209.284654 140.340414 
L 210.497428 140.340414 
L 210.497428 140.214538 
L 211.328443 140.214538 
L 211.328443 140.088662 
L 211.576523 140.088662 
L 211.576523 139.83691 
L 211.973444 139.83691 
L 211.973444 139.711034 
L 212.329445 139.711034 
L 212.329445 139.459283 
L 213.327698 139.459283 
L 213.42063 138.955779 
L 214.189125 138.955779 
L 214.264276 138.704028 
L 214.424953 138.704028 
L 214.508146 138.452276 
L 214.550723 138.452276 
L 214.550723 138.3264 
L 214.830669 138.3264 
L 214.830669 137.948772 
L 215.099989 137.948772 
L 215.099989 137.697021 
L 215.311843 137.697021 
L 215.311843 137.571145 
L 216.289857 137.571145 
L 216.289857 137.445269 
L 216.517043 137.445269 
L 216.517043 137.319393 
L 217.057619 137.319393 
L 217.057619 137.067641 
L 217.368497 137.067641 
L 217.368497 136.81589 
L 218.388627 136.81589 
L 218.388627 136.690014 
L 222.538786 136.690014 
L 222.538786 136.564138 
L 223.254053 136.564138 
L 223.254053 136.438262 
L 223.702466 136.438262 
L 223.79581 136.18651 
L 224.048793 136.18651 
L 224.048793 135.934759 
L 224.345023 135.934759 
L 224.345023 135.683007 
L 225.688313 135.683007 
L 225.688313 135.431255 
L 225.911113 135.431255 
L 225.990484 135.053628 
L 226.128885 135.053628 
L 226.128885 134.801876 
L 226.430068 134.801876 
L 226.430068 134.676 
L 226.659596 134.676 
L 226.685449 134.298372 
L 226.787339 134.298372 
L 226.787339 134.046621 
L 227.002184 134.046621 
L 227.002184 133.920745 
L 227.340914 133.920745 
L 227.340914 133.543117 
L 227.538344 133.543117 
L 227.631263 133.039614 
L 227.711497 133.039614 
L 227.817946 132.787862 
L 227.884173 132.787862 
L 227.952362 132.410234 
L 228.023587 132.410234 
L 228.023587 132.284359 
L 228.19777 132.284359 
L 228.19777 132.032607 
L 228.323051 132.032607 
L 228.407897 131.654979 
L 228.516881 131.654979 
L 228.558385 131.151476 
L 228.682352 131.151476 
L 228.682352 130.899724 
L 228.835908 130.899724 
L 228.908045 130.396221 
L 229.1032 130.396221 
L 229.134155 130.018593 
L 229.434852 130.018593 
L 229.49361 129.389214 
L 229.583417 129.389214 
L 229.678808 128.759834 
L 229.703831 128.759834 
L 229.772721 128.382207 
L 229.842353 128.382207 
L 229.842353 128.256331 
L 230.178898 128.256331 
L 230.215922 127.752828 
L 230.627983 127.752828 
L 230.627983 127.501076 
L 230.775012 127.501076 
L 230.775012 127.249324 
L 232.059579 127.249324 
L 232.059579 127.123448 
L 232.387643 127.123448 
L 232.387643 126.871697 
L 232.574901 126.871697 
L 232.574901 126.745821 
L 233.36603 126.745821 
L 233.36603 126.619945 
L 233.869673 126.619945 
L 233.870474 126.242317 
L 234.473076 126.242317 
L 234.473076 125.86469 
L 234.811561 125.86469 
L 234.854967 125.612938 
L 234.960401 125.612938 
L 234.960401 125.487062 
L 235.308135 125.487062 
L 235.308135 125.361186 
L 236.402134 125.361186 
L 236.402134 125.109434 
L 236.897185 125.109434 
L 236.906736 124.731807 
L 237.164145 124.731807 
L 237.164145 124.605931 
L 237.643725 124.605931 
L 237.643725 124.480055 
L 237.792667 124.480055 
L 237.792667 124.228303 
L 237.948828 124.228303 
L 237.98493 123.976552 
L 238.112662 123.976552 
L 238.112662 123.850676 
L 238.548954 123.850676 
L 238.548954 123.598924 
L 238.683479 123.598924 
L 238.689683 123.221297 
L 240.089795 123.221297 
L 240.089795 122.969545 
L 240.388592 122.969545 
L 240.457615 122.591917 
L 240.524135 122.591917 
L 240.604994 122.340166 
L 240.855462 122.340166 
L 240.855462 122.21429 
L 241.472771 122.21429 
L 241.472771 122.088414 
L 241.897589 122.088414 
L 241.948263 121.710786 
L 242.046607 121.710786 
L 242.046607 121.459034 
L 242.313025 121.459034 
L 242.313025 121.333159 
L 242.431363 121.333159 
L 242.431363 121.207283 
L 242.631146 121.207283 
L 242.631146 120.829655 
L 242.792452 120.829655 
L 242.862156 120.577903 
L 243.021501 120.577903 
L 243.050552 120.200276 
L 243.289134 120.200276 
L 243.289134 120.0744 
L 243.59799 120.0744 
L 243.670014 119.822648 
L 244.370445 119.822648 
L 244.468345 119.570897 
L 246.051168 119.570897 
L 246.051168 119.445021 
L 246.249784 119.445021 
L 246.249784 118.815641 
L 246.518478 118.815641 
L 246.535656 118.312138 
L 246.646929 118.312138 
L 246.677384 117.808634 
L 246.793068 117.808634 
L 246.821677 117.305131 
L 246.914056 117.305131 
L 246.914056 117.179255 
L 247.110554 117.179255 
L 247.110554 117.053379 
L 247.377478 117.053379 
L 247.485062 116.549876 
L 247.669942 116.549876 
L 247.772043 115.668745 
L 247.851879 115.668745 
L 247.900606 115.039366 
L 248.41328 115.039366 
L 248.41328 114.91349 
L 248.878093 114.91349 
L 248.928557 114.535862 
L 249.222862 114.535862 
L 249.231365 113.906483 
L 249.933971 113.906483 
L 249.933971 113.654731 
L 251.123989 113.654731 
L 251.18092 113.277103 
L 251.345306 113.277103 
L 251.382309 112.647724 
L 251.509523 112.647724 
L 251.566553 112.395972 
L 251.629024 112.395972 
L 251.629024 112.144221 
L 252.069747 112.144221 
L 252.111129 111.514841 
L 252.274247 111.514841 
L 252.274247 111.388966 
L 252.625897 111.388966 
L 252.660467 111.011338 
L 252.885241 111.011338 
L 252.885241 110.885462 
L 253.254093 110.885462 
L 253.254093 110.63371 
L 253.952051 110.63371 
L 253.952051 110.507834 
L 254.087166 110.507834 
L 254.125709 110.130207 
L 254.756476 110.130207 
L 254.862335 109.626703 
L 255.305322 109.626703 
L 255.305322 109.500828 
L 255.584598 109.500828 
L 255.584598 109.374952 
L 256.259441 109.374952 
L 256.259441 109.249076 
L 256.699189 109.249076 
L 256.790659 108.997324 
L 256.902666 108.997324 
L 256.91562 108.493821 
L 257.0311 108.493821 
L 257.066401 107.864441 
L 257.150527 107.864441 
L 257.187229 107.486814 
L 257.297138 107.486814 
L 257.385753 106.605683 
L 257.576749 106.605683 
L 257.576749 106.479807 
L 257.757722 106.479807 
L 257.757722 106.228055 
L 258.129542 106.228055 
L 258.129542 106.102179 
L 258.638003 106.102179 
L 258.726309 105.346924 
L 259.058856 105.346924 
L 259.058856 105.221048 
L 259.928975 105.221048 
L 260.021819 104.339917 
L 260.062494 104.339917 
L 260.111427 103.584662 
L 260.235572 103.584662 
L 260.235572 103.33291 
L 260.702765 103.33291 
L 260.702765 103.081159 
L 261.43765 103.081159 
L 261.464105 102.829407 
L 261.706018 102.829407 
L 261.726265 102.325903 
L 262.094912 102.325903 
L 262.094912 102.200028 
L 263.512351 102.200028 
L 263.521634 101.8224 
L 263.830468 101.8224 
L 263.830468 101.570648 
L 264.07519 101.570648 
L 264.143935 101.193021 
L 264.190052 101.193021 
L 264.276536 100.941269 
L 264.317088 100.941269 
L 264.320106 100.563641 
L 265.119732 100.563641 
L 265.119732 100.437766 
L 265.275869 100.437766 
L 265.358866 99.053131 
L 265.711741 99.053131 
L 265.711741 98.801379 
L 266.07896 98.801379 
L 266.07896 98.675503 
L 266.424951 98.675503 
L 266.424951 98.423752 
L 266.911128 98.423752 
L 266.911128 98.297876 
L 267.147125 98.297876 
L 267.147125 98.172 
L 267.311635 98.172 
L 267.311635 97.920248 
L 267.596812 97.920248 
L 267.596812 97.668497 
L 268.937647 97.668497 
L 268.937647 97.290869 
L 269.343542 97.290869 
L 269.343542 97.039117 
L 269.73348 97.039117 
L 269.82687 96.66149 
L 270.310917 96.66149 
L 270.310917 96.409738 
L 270.437208 96.409738 
L 270.522153 95.654483 
L 270.858481 95.654483 
L 270.858481 95.528607 
L 271.285449 95.528607 
L 271.285449 95.402731 
L 271.480976 95.402731 
L 271.480976 95.150979 
L 271.791873 95.150979 
L 271.827286 94.647476 
L 272.80972 94.647476 
L 272.914214 94.018097 
L 273.401607 94.018097 
L 273.401607 93.766345 
L 360.8064 93.766345 
L 360.8064 93.766345 
" style="fill: none; stroke: #ff00ff; stroke-width: 1.5; stroke-linecap: square"/>
   </g>
   <g id="line2d_41">
    <defs>
     <path id="m34cd266fd4" d="M 0 8.485281 
L 5.091169 0 
L 0 -8.485281 
L -5.091169 0 
z
" style="stroke: #ff00ff; stroke-width: 1.5; stroke-linejoin: miter"/>
    </defs>
    <g>
     <use xlink:href="#m34cd266fd4" x="138.180913" y="250.104166" style="fill-opacity: 0; stroke: #ff00ff; stroke-width: 1.5; stroke-linejoin: miter"/>
     <use xlink:href="#m34cd266fd4" x="178.339408" y="207.684" style="fill-opacity: 0; stroke: #ff00ff; stroke-width: 1.5; stroke-linejoin: miter"/>
     <use xlink:href="#m34cd266fd4" x="238.112662" y="123.976552" style="fill-opacity: 0; stroke: #ff00ff; stroke-width: 1.5; stroke-linejoin: miter"/>
     <use xlink:href="#m34cd266fd4" x="273.401607" y="93.766345" style="fill-opacity: 0; stroke: #ff00ff; stroke-width: 1.5; stroke-linejoin: miter"/>
     <use xlink:href="#m34cd266fd4" x="273.401607" y="93.766345" style="fill-opacity: 0; stroke: #ff00ff; stroke-width: 1.5; stroke-linejoin: miter"/>
     <use xlink:href="#m34cd266fd4" x="360.8064" y="93.766345" style="fill-opacity: 0; stroke: #ff00ff; stroke-width: 1.5; stroke-linejoin: miter"/>
    </g>
   </g>
   <g id="line2d_42">
    <path style="fill: none; stroke: #ff00ff; stroke-width: 1.5; stroke-linecap: square"/>
    <g/>
   </g>
   <g id="line2d_43">
    <path d="M 274.176094 93.766345 
" clip-path="url(#pa98f5bcebe)" style="fill: none; stroke: #ff00ff; stroke-width: 1.5; stroke-linecap: square"/>
    <defs>
     <path id="m6c91bf3b1d" d="M -12 12 
L 12 -12 
M -12 -12 
L 12 12 
" style="stroke: #ff00ff"/>
    </defs>
    <g clip-path="url(#pa98f5bcebe)">
     <use xlink:href="#m6c91bf3b1d" x="274.176094" y="93.766345" style="fill: #ff00ff; stroke: #ff00ff"/>
    </g>
   </g>
   <g id="line2d_44">
    <defs>
     <path id="m28ca80f378" d="M 0 1.5 
C 0.397805 1.5 0.77937 1.341951 1.06066 1.06066 
C 1.341951 0.77937 1.5 0.397805 1.5 0 
C 1.5 -0.397805 1.341951 -0.77937 1.06066 -1.06066 
C 0.77937 -1.341951 0.397805 -1.5 0 -1.5 
C -0.397805 -1.5 -0.77937 -1.341951 -1.06066 -1.06066 
C -1.341951 -0.77937 -1.5 -0.397805 -1.5 0 
C -1.5 0.397805 -1.341951 0.77937 -1.06066 1.06066 
C -0.77937 1.341951 -0.397805 1.5 0 1.5 
z
" style="stroke: #6495ed"/>
    </defs>
    <g>
     <use xlink:href="#m28ca80f378" x="113.954374" y="257.656717" style="fill: #6495ed; stroke: #6495ed"/>
     <use xlink:href="#m28ca80f378" x="113.954374" y="257.656717" style="fill: #6495ed; stroke: #6495ed"/>
    </g>
   </g>
   <g id="line2d_45">
    <path d="M 44.560826 298.944 
L 44.560826 297.055862 
L 57.6 297.055862 
L 57.6 294.790097 
L 65.227428 294.790097 
L 65.227428 293.405462 
L 70.639174 293.405462 
L 70.639174 291.265572 
L 74.836851 291.265572 
L 74.836851 288.496303 
L 78.266603 288.496303 
L 78.266603 285.85291 
L 81.166416 285.85291 
L 81.166416 284.971779 
L 83.678349 284.971779 
L 83.678349 283.838897 
L 85.894031 283.838897 
L 85.894031 282.957766 
L 87.876026 282.957766 
L 87.876026 282.580138 
L 89.668958 282.580138 
L 89.668958 281.447255 
L 91.305777 281.447255 
L 91.305777 281.069628 
L 92.811505 281.069628 
L 92.811505 280.314372 
L 94.205591 280.314372 
L 94.205591 279.936745 
L 95.503454 279.936745 
L 95.503454 279.307366 
L 96.717523 279.307366 
L 96.717523 278.929738 
L 97.857967 278.929738 
L 97.857967 278.174483 
L 98.933205 278.174483 
L 98.933205 276.412221 
L 99.950294 276.412221 
L 99.950294 275.279338 
L 100.9152 275.279338 
L 100.9152 274.020579 
L 101.833019 274.020579 
L 101.833019 273.265324 
L 102.708132 273.265324 
L 102.708132 272.132441 
L 103.544339 272.132441 
L 103.544339 271.25131 
L 104.344952 271.25131 
L 104.344952 268.356166 
L 105.112877 268.356166 
L 105.112877 267.852662 
L 105.850679 267.852662 
L 105.850679 267.097407 
L 106.560633 267.097407 
L 106.560633 265.335145 
L 107.244765 265.335145 
L 107.244765 264.202262 
L 107.904887 264.202262 
L 107.904887 263.698759 
L 108.542628 263.698759 
L 108.542628 263.195255 
L 109.159456 263.195255 
L 109.159456 262.314124 
L 109.756698 262.314124 
L 109.756698 261.558869 
L 110.335561 261.558869 
L 110.335561 260.803614 
L 110.897141 260.803614 
L 110.897141 260.677738 
L 111.442442 260.677738 
L 111.442442 259.796607 
L 111.97238 259.796607 
L 111.97238 259.293103 
L 112.487797 259.293103 
L 112.487797 258.7896 
L 112.989468 258.7896 
L 112.989468 258.286097 
L 113.478107 258.286097 
L 113.478107 258.034345 
L 113.954374 258.034345 
L 113.954374 257.656717 
L 360.8064 257.656717 
" style="fill: none; stroke: #6495ed; stroke-width: 1.5; stroke-linecap: square"/>
   </g>
   <g id="line2d_46">
    <defs>
     <path id="m368e76cbd6" d="M -0 6 
L 6 -6 
L -6 -6 
z
" style="stroke: #6495ed; stroke-width: 1.5; stroke-linejoin: miter"/>
    </defs>
    <g>
     <use xlink:href="#m368e76cbd6" x="113.954374" y="258.034345" style="fill-opacity: 0; stroke: #6495ed; stroke-width: 1.5; stroke-linejoin: miter"/>
     <use xlink:href="#m368e76cbd6" x="113.954374" y="258.034345" style="fill-opacity: 0; stroke: #6495ed; stroke-width: 1.5; stroke-linejoin: miter"/>
     <use xlink:href="#m368e76cbd6" x="113.954374" y="257.656717" style="fill-opacity: 0; stroke: #6495ed; stroke-width: 1.5; stroke-linejoin: miter"/>
     <use xlink:href="#m368e76cbd6" x="113.954374" y="257.656717" style="fill-opacity: 0; stroke: #6495ed; stroke-width: 1.5; stroke-linejoin: miter"/>
     <use xlink:href="#m368e76cbd6" x="113.954374" y="257.656717" style="fill-opacity: 0; stroke: #6495ed; stroke-width: 1.5; stroke-linejoin: miter"/>
     <use xlink:href="#m368e76cbd6" x="360.8064" y="257.656717" style="fill-opacity: 0; stroke: #6495ed; stroke-width: 1.5; stroke-linejoin: miter"/>
    </g>
   </g>
   <g id="line2d_47">
    <path style="fill: none; stroke: #6495ed; stroke-width: 1.5; stroke-linecap: square"/>
    <g/>
   </g>
   <g id="line2d_48">
    <path d="M 113.954374 257.656717 
" clip-path="url(#pa98f5bcebe)" style="fill: none; stroke: #6495ed; stroke-width: 1.5; stroke-linecap: square"/>
    <defs>
     <path id="mbcc2dbfd26" d="M -12 12 
L 12 -12 
M -12 -12 
L 12 12 
" style="stroke: #6495ed"/>
    </defs>
    <g clip-path="url(#pa98f5bcebe)">
     <use xlink:href="#mbcc2dbfd26" x="113.954374" y="257.656717" style="fill: #6495ed; stroke: #6495ed"/>
    </g>
   </g>
   <g id="line2d_49">
    <path d="M 360.8064 283.713021 
L 380.514816 293.10336 
" style="fill: none; stroke: #000080; stroke-width: 1.5; stroke-linecap: square"/>
    <g>
     <use xlink:href="#m9de2e3f272" x="360.8064" y="283.713021" style="fill-opacity: 0; stroke: #000080; stroke-width: 1.5"/>
     <use xlink:href="#m9de2e3f272" x="380.514816" y="293.10336" style="fill-opacity: 0; stroke: #000080; stroke-width: 1.5"/>
    </g>
   </g>
   <g id="line2d_50">
    <path d="M 360.8064 257.656717 
L 380.514816 199.65312 
" style="fill: none; stroke: #6495ed; stroke-width: 1.5; stroke-linecap: square"/>
    <g>
     <use xlink:href="#m368e76cbd6" x="360.8064" y="257.656717" style="fill-opacity: 0; stroke: #6495ed; stroke-width: 1.5; stroke-linejoin: miter"/>
     <use xlink:href="#m368e76cbd6" x="380.514816" y="199.65312" style="fill-opacity: 0; stroke: #6495ed; stroke-width: 1.5; stroke-linejoin: miter"/>
    </g>
   </g>
   <g id="line2d_51">
    <path d="M 360.8064 93.766345 
L 380.514816 106.20288 
" style="fill: none; stroke: #ff00ff; stroke-width: 1.5; stroke-linecap: square"/>
    <g>
     <use xlink:href="#m34cd266fd4" x="360.8064" y="93.766345" style="fill-opacity: 0; stroke: #ff00ff; stroke-width: 1.5; stroke-linejoin: miter"/>
     <use xlink:href="#m34cd266fd4" x="380.514816" y="106.20288" style="fill-opacity: 0; stroke: #ff00ff; stroke-width: 1.5; stroke-linejoin: miter"/>
    </g>
   </g>
   <g id="line2d_52">
    <path d="M 360.8064 298.944 
L 360.8064 6.912 
" style="fill: none; stroke: #000000; stroke-width: 1.5; stroke-linecap: square"/>
   </g>
   <g id="patch_3">
    <path d="M 57.6 298.944 
L 360.8064 298.944 
" style="fill: none; stroke: #000000; stroke-width: 0.8; stroke-linejoin: miter; stroke-linecap: square"/>
   </g>
   <g id="patch_4">
    <path d="M 57.6 6.912 
L 360.8064 6.912 
" style="fill: none; stroke: #000000; stroke-width: 0.8; stroke-linejoin: miter; stroke-linecap: square"/>
   </g>
   <g id="text_13">
    <!-- cma -->
    <g transform="translate(386.578944 296.966485)scale(0.14 -0.14)">
     <use xlink:href="#DejaVuSans-63"/>
     <use xlink:href="#DejaVuSans-6d" x="54.980469"/>
     <use xlink:href="#DejaVuSans-61" x="152.392578"/>
    </g>
   </g>
   <g id="text_14">
    <!-- parEgo -->
    <g transform="translate(386.578944 203.516245)scale(0.14 -0.14)">
     <defs>
      <path id="DejaVuSans-45" d="M 628 4666 
L 3578 4666 
L 3578 4134 
L 1259 4134 
L 1259 2753 
L 3481 2753 
L 3481 2222 
L 1259 2222 
L 1259 531 
L 3634 531 
L 3634 0 
L 628 0 
L 628 4666 
z
" transform="scale(0.015625)"/>
     </defs>
     <use xlink:href="#DejaVuSans-70"/>
     <use xlink:href="#DejaVuSans-61" x="63.476562"/>
     <use xlink:href="#DejaVuSans-72" x="124.755859"/>
     <use xlink:href="#DejaVuSans-45" x="165.869141"/>
     <use xlink:href="#DejaVuSans-67" x="229.052734"/>
     <use xlink:href="#DejaVuSans-6f" x="292.529297"/>
    </g>
   </g>
   <g id="text_15">
    <!-- external- -->
    <g transform="translate(386.578944 110.066005)scale(0.14 -0.14)">
     <defs>
      <path id="DejaVuSans-78" d="M 3513 3500 
L 2247 1797 
L 3578 0 
L 2900 0 
L 1881 1375 
L 863 0 
L 184 0 
L 1544 1831 
L 300 3500 
L 978 3500 
L 1906 2253 
L 2834 3500 
L 3513 3500 
z
" transform="scale(0.015625)"/>
     </defs>
     <use xlink:href="#DejaVuSans-65"/>
     <use xlink:href="#DejaVuSans-78" x="59.773438"/>
     <use xlink:href="#DejaVuSans-74" x="118.953125"/>
     <use xlink:href="#DejaVuSans-65" x="158.162109"/>
     <use xlink:href="#DejaVuSans-72" x="219.685547"/>
     <use xlink:href="#DejaVuSans-6e" x="259.048828"/>
     <use xlink:href="#DejaVuSans-61" x="322.427734"/>
     <use xlink:href="#DejaVuSans-6c" x="383.707031"/>
     <use xlink:href="#DejaVuSans-2d" x="411.490234"/>
    </g>
   </g>
   <g id="text_16">
    <!-- best 2016 -->
    <g transform="translate(386.578944 16.615765)scale(0.14 -0.14)">
     <defs>
      <path id="DejaVuSans-62" d="M 3116 1747 
Q 3116 2381 2855 2742 
Q 2594 3103 2138 3103 
Q 1681 3103 1420 2742 
Q 1159 2381 1159 1747 
Q 1159 1113 1420 752 
Q 1681 391 2138 391 
Q 2594 391 2855 752 
Q 3116 1113 3116 1747 
z
M 1159 2969 
Q 1341 3281 1617 3432 
Q 1894 3584 2278 3584 
Q 2916 3584 3314 3078 
Q 3713 2572 3713 1747 
Q 3713 922 3314 415 
Q 2916 -91 2278 -91 
Q 1894 -91 1617 61 
Q 1341 213 1159 525 
L 1159 0 
L 581 0 
L 581 4863 
L 1159 4863 
L 1159 2969 
z
" transform="scale(0.015625)"/>
     </defs>
     <use xlink:href="#DejaVuSans-62"/>
     <use xlink:href="#DejaVuSans-65" x="63.476562"/>
     <use xlink:href="#DejaVuSans-73" x="125"/>
     <use xlink:href="#DejaVuSans-74" x="177.099609"/>
     <use xlink:href="#DejaVuSans-20" x="216.308594"/>
     <use xlink:href="#DejaVuSans-32" x="248.095703"/>
     <use xlink:href="#DejaVuSans-30" x="311.71875"/>
     <use xlink:href="#DejaVuSans-31" x="375.341797"/>
     <use xlink:href="#DejaVuSans-36" x="438.964844"/>
    </g>
   </g>
   <g id="text_17">
    <!-- bbob-biobj f7, f8, f16, f17, 2-D -->
    <g transform="translate(60.632064 17.582726)scale(0.102 -0.102)">
     <defs>
      <path id="DejaVuSans-6a" d="M 603 3500 
L 1178 3500 
L 1178 -63 
Q 1178 -731 923 -1031 
Q 669 -1331 103 -1331 
L -116 -1331 
L -116 -844 
L 38 -844 
Q 366 -844 484 -692 
Q 603 -541 603 -63 
L 603 3500 
z
M 603 4863 
L 1178 4863 
L 1178 4134 
L 603 4134 
L 603 4863 
z
" transform="scale(0.015625)"/>
      <path id="DejaVuSans-37" d="M 525 4666 
L 3525 4666 
L 3525 4397 
L 1831 0 
L 1172 0 
L 2766 4134 
L 525 4134 
L 525 4666 
z
" transform="scale(0.015625)"/>
      <path id="DejaVuSans-44" d="M 1259 4147 
L 1259 519 
L 2022 519 
Q 2988 519 3436 956 
Q 3884 1394 3884 2338 
Q 3884 3275 3436 3711 
Q 2988 4147 2022 4147 
L 1259 4147 
z
M 628 4666 
L 1925 4666 
Q 3281 4666 3915 4102 
Q 4550 3538 4550 2338 
Q 4550 1131 3912 565 
Q 3275 0 1925 0 
L 628 0 
L 628 4666 
z
" transform="scale(0.015625)"/>
     </defs>
     <use xlink:href="#DejaVuSans-62"/>
     <use xlink:href="#DejaVuSans-62" x="63.476562"/>
     <use xlink:href="#DejaVuSans-6f" x="126.953125"/>
     <use xlink:href="#DejaVuSans-62" x="188.134766"/>
     <use xlink:href="#DejaVuSans-2d" x="251.611328"/>
     <use xlink:href="#DejaVuSans-62" x="287.695312"/>
     <use xlink:href="#DejaVuSans-69" x="351.171875"/>
     <use xlink:href="#DejaVuSans-6f" x="378.955078"/>
     <use xlink:href="#DejaVuSans-62" x="440.136719"/>
     <use xlink:href="#DejaVuSans-6a" x="503.613281"/>
     <use xlink:href="#DejaVuSans-20" x="531.396484"/>
     <use xlink:href="#DejaVuSans-66" x="563.183594"/>
     <use xlink:href="#DejaVuSans-37" x="598.388672"/>
     <use xlink:href="#DejaVuSans-2c" x="662.011719"/>
     <use xlink:href="#DejaVuSans-20" x="693.798828"/>
     <use xlink:href="#DejaVuSans-66" x="725.585938"/>
     <use xlink:href="#DejaVuSans-38" x="760.791016"/>
     <use xlink:href="#DejaVuSans-2c" x="824.414062"/>
     <use xlink:href="#DejaVuSans-20" x="856.201172"/>
     <use xlink:href="#DejaVuSans-66" x="887.988281"/>
     <use xlink:href="#DejaVuSans-31" x="923.193359"/>
     <use xlink:href="#DejaVuSans-36" x="986.816406"/>
     <use xlink:href="#DejaVuSans-2c" x="1050.439453"/>
     <use xlink:href="#DejaVuSans-20" x="1082.226562"/>
     <use xlink:href="#DejaVuSans-66" x="1114.013672"/>
     <use xlink:href="#DejaVuSans-31" x="1149.21875"/>
     <use xlink:href="#DejaVuSans-37" x="1212.841797"/>
     <use xlink:href="#DejaVuSans-2c" x="1276.464844"/>
     <use xlink:href="#DejaVuSans-20" x="1308.251953"/>
     <use xlink:href="#DejaVuSans-32" x="1340.039062"/>
     <use xlink:href="#DejaVuSans-2d" x="1403.662109"/>
     <use xlink:href="#DejaVuSans-44" x="1439.746094"/>
    </g>
    <!-- 58 targets: 1..-1.0e-4 -->
    <g transform="translate(60.632064 29.004495)scale(0.102 -0.102)">
     <defs>
      <path id="DejaVuSans-35" d="M 691 4666 
L 3169 4666 
L 3169 4134 
L 1269 4134 
L 1269 2991 
Q 1406 3038 1543 3061 
Q 1681 3084 1819 3084 
Q 2600 3084 3056 2656 
Q 3513 2228 3513 1497 
Q 3513 744 3044 326 
Q 2575 -91 1722 -91 
Q 1428 -91 1123 -41 
Q 819 9 494 109 
L 494 744 
Q 775 591 1075 516 
Q 1375 441 1709 441 
Q 2250 441 2565 725 
Q 2881 1009 2881 1497 
Q 2881 1984 2565 2268 
Q 2250 2553 1709 2553 
Q 1456 2553 1204 2497 
Q 953 2441 691 2322 
L 691 4666 
z
" transform="scale(0.015625)"/>
      <path id="DejaVuSans-3a" d="M 750 794 
L 1409 794 
L 1409 0 
L 750 0 
L 750 794 
z
M 750 3309 
L 1409 3309 
L 1409 2516 
L 750 2516 
L 750 3309 
z
" transform="scale(0.015625)"/>
     </defs>
     <use xlink:href="#DejaVuSans-35"/>
     <use xlink:href="#DejaVuSans-38" x="63.623047"/>
     <use xlink:href="#DejaVuSans-20" x="127.246094"/>
     <use xlink:href="#DejaVuSans-74" x="159.033203"/>
     <use xlink:href="#DejaVuSans-61" x="198.242188"/>
     <use xlink:href="#DejaVuSans-72" x="259.521484"/>
     <use xlink:href="#DejaVuSans-67" x="298.884766"/>
     <use xlink:href="#DejaVuSans-65" x="362.361328"/>
     <use xlink:href="#DejaVuSans-74" x="423.884766"/>
     <use xlink:href="#DejaVuSans-73" x="463.09375"/>
     <use xlink:href="#DejaVuSans-3a" x="515.193359"/>
     <use xlink:href="#DejaVuSans-20" x="548.884766"/>
     <use xlink:href="#DejaVuSans-31" x="580.671875"/>
     <use xlink:href="#DejaVuSans-2e" x="644.294922"/>
     <use xlink:href="#DejaVuSans-2e" x="676.082031"/>
     <use xlink:href="#DejaVuSans-2d" x="707.869141"/>
     <use xlink:href="#DejaVuSans-31" x="743.953125"/>
     <use xlink:href="#DejaVuSans-2e" x="807.576172"/>
     <use xlink:href="#DejaVuSans-30" x="839.363281"/>
     <use xlink:href="#DejaVuSans-65" x="902.986328"/>
     <use xlink:href="#DejaVuSans-2d" x="964.509766"/>
     <use xlink:href="#DejaVuSans-34" x="1000.59375"/>
    </g>
    <!-- 10 instances -->
    <g transform="translate(60.632064 40.426264)scale(0.102 -0.102)">
     <use xlink:href="#DejaVuSans-31"/>
     <use xlink:href="#DejaVuSans-30" x="63.623047"/>
     <use xlink:href="#DejaVuSans-20" x="127.246094"/>
     <use xlink:href="#DejaVuSans-69" x="159.033203"/>
     <use xlink:href="#DejaVuSans-6e" x="186.816406"/>
     <use xlink:href="#DejaVuSans-73" x="250.195312"/>
     <use xlink:href="#DejaVuSans-74" x="302.294922"/>
     <use xlink:href="#DejaVuSans-61" x="341.503906"/>
     <use xlink:href="#DejaVuSans-6e" x="402.783203"/>
     <use xlink:href="#DejaVuSans-63" x="466.162109"/>
     <use xlink:href="#DejaVuSans-65" x="521.142578"/>
     <use xlink:href="#DejaVuSans-73" x="582.666016"/>
    </g>
   </g>
   <g id="text_18">
    <!-- v2.6, hv-hash=ff0e71e8cd978373 -->
    <g style="fill: #808080" transform="translate(123.707887 293.943992)scale(0.1 -0.1)">
     <defs>
      <path id="DejaVuSans-68" d="M 3513 2113 
L 3513 0 
L 2938 0 
L 2938 2094 
Q 2938 2591 2744 2837 
Q 2550 3084 2163 3084 
Q 1697 3084 1428 2787 
Q 1159 2491 1159 1978 
L 1159 0 
L 581 0 
L 581 4863 
L 1159 4863 
L 1159 2956 
Q 1366 3272 1645 3428 
Q 1925 3584 2291 3584 
Q 2894 3584 3203 3211 
Q 3513 2838 3513 2113 
z
" transform="scale(0.015625)"/>
      <path id="DejaVuSans-3d" d="M 678 2906 
L 4684 2906 
L 4684 2381 
L 678 2381 
L 678 2906 
z
M 678 1631 
L 4684 1631 
L 4684 1100 
L 678 1100 
L 678 1631 
z
" transform="scale(0.015625)"/>
      <path id="DejaVuSans-39" d="M 703 97 
L 703 672 
Q 941 559 1184 500 
Q 1428 441 1663 441 
Q 2288 441 2617 861 
Q 2947 1281 2994 2138 
Q 2813 1869 2534 1725 
Q 2256 1581 1919 1581 
Q 1219 1581 811 2004 
Q 403 2428 403 3163 
Q 403 3881 828 4315 
Q 1253 4750 1959 4750 
Q 2769 4750 3195 4129 
Q 3622 3509 3622 2328 
Q 3622 1225 3098 567 
Q 2575 -91 1691 -91 
Q 1453 -91 1209 -44 
Q 966 3 703 97 
z
M 1959 2075 
Q 2384 2075 2632 2365 
Q 2881 2656 2881 3163 
Q 2881 3666 2632 3958 
Q 2384 4250 1959 4250 
Q 1534 4250 1286 3958 
Q 1038 3666 1038 3163 
Q 1038 2656 1286 2365 
Q 1534 2075 1959 2075 
z
" transform="scale(0.015625)"/>
      <path id="DejaVuSans-33" d="M 2597 2516 
Q 3050 2419 3304 2112 
Q 3559 1806 3559 1356 
Q 3559 666 3084 287 
Q 2609 -91 1734 -91 
Q 1441 -91 1130 -33 
Q 819 25 488 141 
L 488 750 
Q 750 597 1062 519 
Q 1375 441 1716 441 
Q 2309 441 2620 675 
Q 2931 909 2931 1356 
Q 2931 1769 2642 2001 
Q 2353 2234 1838 2234 
L 1294 2234 
L 1294 2753 
L 1863 2753 
Q 2328 2753 2575 2939 
Q 2822 3125 2822 3475 
Q 2822 3834 2567 4026 
Q 2313 4219 1838 4219 
Q 1578 4219 1281 4162 
Q 984 4106 628 3988 
L 628 4550 
Q 988 4650 1302 4700 
Q 1616 4750 1894 4750 
Q 2613 4750 3031 4423 
Q 3450 4097 3450 3541 
Q 3450 3153 3228 2886 
Q 3006 2619 2597 2516 
z
" transform="scale(0.015625)"/>
     </defs>
     <use xlink:href="#DejaVuSans-76"/>
     <use xlink:href="#DejaVuSans-32" x="59.179688"/>
     <use xlink:href="#DejaVuSans-2e" x="122.802734"/>
     <use xlink:href="#DejaVuSans-36" x="154.589844"/>
     <use xlink:href="#DejaVuSans-2c" x="218.212891"/>
     <use xlink:href="#DejaVuSans-20" x="250"/>
     <use xlink:href="#DejaVuSans-68" x="281.787109"/>
     <use xlink:href="#DejaVuSans-76" x="345.166016"/>
     <use xlink:href="#DejaVuSans-2d" x="401.720703"/>
     <use xlink:href="#DejaVuSans-68" x="437.804688"/>
     <use xlink:href="#DejaVuSans-61" x="501.183594"/>
     <use xlink:href="#DejaVuSans-73" x="562.462891"/>
     <use xlink:href="#DejaVuSans-68" x="614.5625"/>
     <use xlink:href="#DejaVuSans-3d" x="677.941406"/>
     <use xlink:href="#DejaVuSans-66" x="761.730469"/>
     <use xlink:href="#DejaVuSans-66" x="796.935547"/>
     <use xlink:href="#DejaVuSans-30" x="832.140625"/>
     <use xlink:href="#DejaVuSans-65" x="895.763672"/>
     <use xlink:href="#DejaVuSans-37" x="957.287109"/>
     <use xlink:href="#DejaVuSans-31" x="1020.910156"/>
     <use xlink:href="#DejaVuSans-65" x="1084.533203"/>
     <use xlink:href="#DejaVuSans-38" x="1146.056641"/>
     <use xlink:href="#DejaVuSans-63" x="1209.679688"/>
     <use xlink:href="#DejaVuSans-64" x="1264.660156"/>
     <use xlink:href="#DejaVuSans-39" x="1328.136719"/>
     <use xlink:href="#DejaVuSans-37" x="1391.759766"/>
     <use xlink:href="#DejaVuSans-38" x="1455.382812"/>
     <use xlink:href="#DejaVuSans-33" x="1519.005859"/>
     <use xlink:href="#DejaVuSans-37" x="1582.628906"/>
     <use xlink:href="#DejaVuSans-33" x="1646.251953"/>
    </g>
   </g>
  </g>
 </g>
 <defs>
  <clipPath id="pa98f5bcebe">
   <rect x="57.6" y="6.912" width="303.2064" height="292.032"/>
  </clipPath>
 </defs>
</svg>
