<?xml version="1.0" encoding="utf-8" standalone="no"?>
<!DOCTYPE svg PUBLIC "-//W3C//DTD SVG 1.1//EN"
  "http://www.w3.org/Graphics/SVG/1.1/DTD/svg11.dtd">
<svg xmlns:xlink="http://www.w3.org/1999/xlink" width="460.8pt" height="345.6pt" viewBox="0 0 460.8 345.6" xmlns="http://www.w3.org/2000/svg" version="1.1">
 <metadata>
  <rdf:RDF xmlns:dc="http://purl.org/dc/elements/1.1/" xmlns:cc="http://creativecommons.org/ns#" xmlns:rdf="http://www.w3.org/1999/02/22-rdf-syntax-ns#">
   <cc:Work>
    <dc:type rdf:resource="http://purl.org/dc/dcmitype/StillImage"/>
    <dc:date>2022-06-19T21:03:07.839507</dc:date>
    <dc:format>image/svg+xml</dc:format>
    <dc:creator>
     <cc:Agent>
      <dc:title>Matplotlib v3.5.1, https://matplotlib.org/</dc:title>
     </cc:Agent>
    </dc:creator>
   </cc:Work>
  </rdf:RDF>
 </metadata>
 <defs>
  <style type="text/css">*{stroke-linejoin: round; stroke-linecap: butt}</style>
 </defs>
 <g id="figure_1">
  <g id="patch_1">
   <path d="M 0 345.6 
L 460.8 345.6 
L 460.8 0 
L 0 0 
z
" style="fill: #ffffff"/>
  </g>
  <g id="axes_1">
   <g id="patch_2">
    <path d="M 57.6 298.944 
L 360.8064 298.944 
L 360.8064 6.912 
L 57.6 6.912 
z
" style="fill: #ffffff"/>
   </g>
   <g id="line2d_1">
    <path d="M 1.245626 298.944 
L 1.245626 296.426483 
L 34.951403 296.426483 
L 34.951403 295.167724 
L 37.851216 295.167724 
L 37.851216 293.908966 
L 44.560826 293.908966 
L 44.560826 291.391448 
L 46.353758 291.391448 
L 46.353758 288.873931 
L 57.6 288.873931 
L 57.6 286.356414 
L 74.836851 286.356414 
L 74.836851 285.097655 
L 82.211771 285.097655 
L 82.211771 282.580138 
L 85.038813 282.580138 
L 85.038813 281.321379 
L 87.686963 281.321379 
L 87.686963 277.545103 
L 90.007914 277.545103 
L 90.007914 271.25131 
L 93.381595 271.25131 
L 93.381595 268.733793 
L 94.339481 268.733793 
L 94.339481 266.216276 
L 94.735529 266.216276 
L 94.735529 263.698759 
L 97.18203 263.698759 
L 97.18203 262.44 
L 98.510456 262.44 
L 98.510456 261.181241 
L 101.379706 261.181241 
L 101.379706 258.663724 
L 104.732832 258.663724 
L 104.732832 256.146207 
L 108.034177 256.146207 
L 108.034177 253.62869 
L 119.28364 253.62869 
L 119.28364 249.852414 
L 119.773187 249.852414 
L 119.773187 246.076138 
L 129.926925 246.076138 
L 129.926925 243.558621 
L 133.069471 243.558621 
L 133.069471 241.041103 
L 138.412998 241.041103 
L 138.412998 238.523586 
L 138.906237 238.523586 
L 138.906237 236.006069 
L 143.046405 236.006069 
L 143.046405 233.488552 
L 145.83427 233.488552 
L 145.83427 230.971034 
L 147.597342 230.971034 
L 147.597342 229.712276 
L 153.200785 229.712276 
L 153.200785 225.936 
L 154.982037 225.936 
L 154.982037 224.677241 
L 158.925196 224.677241 
L 158.998267 220.900966 
L 160.351247 220.900966 
L 160.351247 219.642207 
L 160.967817 219.642207 
L 160.967817 218.383448 
L 162.673089 218.383448 
L 162.673089 214.607172 
L 163.232801 214.607172 
L 163.232801 210.830897 
L 164.720604 210.830897 
L 164.720604 207.054621 
L 165.281812 207.054621 
L 165.281812 204.537103 
L 170.207364 204.537103 
L 170.207364 202.019586 
L 171.362682 202.019586 
L 171.362682 198.24331 
L 173.458168 198.24331 
L 173.458168 196.984552 
L 177.778757 196.984552 
L 177.778757 195.725793 
L 184.809827 195.725793 
L 184.809827 191.949517 
L 185.077688 191.949517 
L 185.077688 188.173241 
L 186.470472 188.173241 
L 186.470472 185.655724 
L 193.646701 185.655724 
L 193.646701 184.396966 
L 198.440617 184.396966 
L 198.440617 181.879448 
L 201.988935 181.879448 
L 201.988935 178.103172 
L 209.160752 178.103172 
L 209.160752 176.844414 
L 209.778896 176.844414 
L 209.778896 175.585655 
L 210.507144 175.585655 
L 210.507144 173.068138 
L 211.569967 173.068138 
L 211.569967 171.809379 
L 214.289714 171.809379 
L 214.289714 169.291862 
L 216.004241 169.291862 
L 216.004241 166.774345 
L 219.431713 166.774345 
L 219.431713 164.256828 
L 220.215215 164.256828 
L 220.215215 160.480552 
L 222.867623 160.480552 
L 222.867623 156.704276 
L 223.985187 156.704276 
L 223.985187 152.928 
L 228.995492 152.928 
L 228.995492 151.669241 
L 229.137867 151.669241 
L 229.137867 149.151724 
L 229.93911 149.151724 
L 229.93911 146.634207 
L 231.053475 146.634207 
L 231.053475 144.11669 
L 231.379369 144.11669 
L 231.379369 141.599172 
L 231.902723 141.599172 
L 231.902723 140.340414 
L 232.573355 140.340414 
L 232.573355 136.564138 
L 233.629363 136.564138 
L 233.629363 135.305379 
L 234.278398 135.305379 
L 234.278398 132.787862 
L 234.590774 132.787862 
L 234.590774 129.011586 
L 235.623872 129.011586 
L 235.623872 127.752828 
L 235.91025 127.752828 
L 235.91025 125.23531 
L 238.135997 125.23531 
L 238.135997 123.976552 
L 240.217435 123.976552 
L 240.217435 121.459034 
L 241.887595 121.459034 
L 241.887595 117.682759 
L 245.000894 117.682759 
L 245.000894 113.906483 
L 245.199092 113.906483 
L 245.199092 112.647724 
L 249.328526 112.647724 
L 249.328526 108.871448 
L 252.037308 108.871448 
L 252.037308 106.353931 
L 255.415414 106.353931 
L 255.415414 102.577655 
L 255.731223 102.577655 
L 255.731223 100.060138 
L 260.103578 100.060138 
L 260.103578 97.542621 
L 261.98092 97.542621 
L 261.98092 95.025103 
L 268.317663 95.025103 
L 268.317663 93.766345 
L 270.277458 93.766345 
L 270.277458 92.507586 
L 275.465784 92.507586 
L 275.465784 89.990069 
L 278.271229 89.990069 
L 278.271229 87.472552 
L 281.077599 87.472552 
L 281.077599 83.696276 
L 282.211501 83.696276 
L 282.211501 81.178759 
L 287.172834 81.178759 
L 287.172834 79.92 
L 288.593483 79.92 
L 288.593483 76.143724 
L 289.084366 76.143724 
L 289.084366 74.884966 
L 291.905856 74.884966 
L 291.905856 71.10869 
L 298.91259 71.10869 
L 298.91259 68.591172 
L 299.024498 68.591172 
L 299.024498 64.814897 
L 300.504504 64.814897 
L 300.504504 63.556138 
L 301.184778 63.556138 
L 301.184778 59.779862 
L 310.309242 59.779862 
L 310.309242 58.521103 
L 310.751543 58.521103 
L 310.751543 54.744828 
L 311.972959 54.744828 
L 311.972959 52.22731 
L 315.900032 52.22731 
L 315.900032 49.709793 
L 316.590228 49.709793 
L 316.590228 48.451034 
L 317.364243 48.451034 
L 317.364243 45.933517 
L 318.688117 45.933517 
L 318.688117 42.157241 
L 360.8064 42.157241 
L 360.8064 42.157241 
" style="fill: none; stroke: #f5deb3; stroke-width: 4; stroke-linecap: square"/>
   </g>
   <g id="line2d_2">
    <defs>
     <path id="m76d70338dc" d="M 0 7.778175 
L 7.778175 0 
L 0 -7.778175 
L -7.778175 0 
z
" style="stroke: #f5deb3; stroke-width: 1.5; stroke-linejoin: miter"/>
    </defs>
    <g>
     <use xlink:href="#m76d70338dc" x="85.038813" y="282.580138" style="fill: #f5deb3; stroke: #f5deb3; stroke-width: 1.5; stroke-linejoin: miter"/>
     <use xlink:href="#m76d70338dc" x="147.597342" y="229.712276" style="fill: #f5deb3; stroke: #f5deb3; stroke-width: 1.5; stroke-linejoin: miter"/>
     <use xlink:href="#m76d70338dc" x="216.004241" y="166.774345" style="fill: #f5deb3; stroke: #f5deb3; stroke-width: 1.5; stroke-linejoin: miter"/>
     <use xlink:href="#m76d70338dc" x="291.905856" y="71.10869" style="fill: #f5deb3; stroke: #f5deb3; stroke-width: 1.5; stroke-linejoin: miter"/>
     <use xlink:href="#m76d70338dc" x="318.688117" y="42.157241" style="fill: #f5deb3; stroke: #f5deb3; stroke-width: 1.5; stroke-linejoin: miter"/>
     <use xlink:href="#m76d70338dc" x="360.8064" y="42.157241" style="fill: #f5deb3; stroke: #f5deb3; stroke-width: 1.5; stroke-linejoin: miter"/>
    </g>
   </g>
   <g id="line2d_3">
    <path style="fill: none; stroke: #f5deb3; stroke-width: 4; stroke-linecap: square"/>
    <g/>
   </g>
   <g id="line2d_4">
    <path d="M 360.8064 42.157241 
L 380.514816 12.75264 
" style="fill: none; stroke: #f5deb3; stroke-width: 4; stroke-linecap: square"/>
    <g>
     <use xlink:href="#m76d70338dc" x="360.8064" y="42.157241" style="fill: #f5deb3; stroke: #f5deb3; stroke-width: 1.5; stroke-linejoin: miter"/>
     <use xlink:href="#m76d70338dc" x="380.514816" y="12.75264" style="fill: #f5deb3; stroke: #f5deb3; stroke-width: 1.5; stroke-linejoin: miter"/>
    </g>
   </g>
   <g id="matplotlib.axis_1">
    <g id="xtick_1">
     <g id="line2d_5">
      <path d="M 57.6 298.944 
L 57.6 6.912 
" clip-path="url(#p0fd7278695)" style="fill: none; stroke: #b0b0b0; stroke-width: 0.8; stroke-linecap: square"/>
     </g>
     <g id="line2d_6">
      <defs>
       <path id="mc40914388a" d="M 0 0 
L 0 3.5 
" style="stroke: #000000; stroke-width: 0.8"/>
      </defs>
      <g>
       <use xlink:href="#mc40914388a" x="57.6" y="298.944" style="stroke: #000000; stroke-width: 0.8"/>
      </g>
     </g>
     <g id="text_1">
      <!-- 0 -->
      <g transform="translate(52.191875 318.861344)scale(0.17 -0.17)">
       <defs>
        <path id="DejaVuSans-30" d="M 2034 4250 
Q 1547 4250 1301 3770 
Q 1056 3291 1056 2328 
Q 1056 1369 1301 889 
Q 1547 409 2034 409 
Q 2525 409 2770 889 
Q 3016 1369 3016 2328 
Q 3016 3291 2770 3770 
Q 2525 4250 2034 4250 
z
M 2034 4750 
Q 2819 4750 3233 4129 
Q 3647 3509 3647 2328 
Q 3647 1150 3233 529 
Q 2819 -91 2034 -91 
Q 1250 -91 836 529 
Q 422 1150 422 2328 
Q 422 3509 836 4129 
Q 1250 4750 2034 4750 
z
" transform="scale(0.015625)"/>
       </defs>
       <use xlink:href="#DejaVuSans-30"/>
      </g>
     </g>
    </g>
    <g id="xtick_2">
     <g id="line2d_7">
      <path d="M 144.2304 298.944 
L 144.2304 6.912 
" clip-path="url(#p0fd7278695)" style="fill: none; stroke: #b0b0b0; stroke-width: 0.8; stroke-linecap: square"/>
     </g>
     <g id="line2d_8">
      <g>
       <use xlink:href="#mc40914388a" x="144.2304" y="298.944" style="stroke: #000000; stroke-width: 0.8"/>
      </g>
     </g>
     <g id="text_2">
      <!-- 2 -->
      <g transform="translate(138.822275 318.861344)scale(0.17 -0.17)">
       <defs>
        <path id="DejaVuSans-32" d="M 1228 531 
L 3431 531 
L 3431 0 
L 469 0 
L 469 531 
Q 828 903 1448 1529 
Q 2069 2156 2228 2338 
Q 2531 2678 2651 2914 
Q 2772 3150 2772 3378 
Q 2772 3750 2511 3984 
Q 2250 4219 1831 4219 
Q 1534 4219 1204 4116 
Q 875 4013 500 3803 
L 500 4441 
Q 881 4594 1212 4672 
Q 1544 4750 1819 4750 
Q 2544 4750 2975 4387 
Q 3406 4025 3406 3419 
Q 3406 3131 3298 2873 
Q 3191 2616 2906 2266 
Q 2828 2175 2409 1742 
Q 1991 1309 1228 531 
z
" transform="scale(0.015625)"/>
       </defs>
       <use xlink:href="#DejaVuSans-32"/>
      </g>
     </g>
    </g>
    <g id="xtick_3">
     <g id="line2d_9">
      <path d="M 230.8608 298.944 
L 230.8608 6.912 
" clip-path="url(#p0fd7278695)" style="fill: none; stroke: #b0b0b0; stroke-width: 0.8; stroke-linecap: square"/>
     </g>
     <g id="line2d_10">
      <g>
       <use xlink:href="#mc40914388a" x="230.8608" y="298.944" style="stroke: #000000; stroke-width: 0.8"/>
      </g>
     </g>
     <g id="text_3">
      <!-- 4 -->
      <g transform="translate(225.452675 318.861344)scale(0.17 -0.17)">
       <defs>
        <path id="DejaVuSans-34" d="M 2419 4116 
L 825 1625 
L 2419 1625 
L 2419 4116 
z
M 2253 4666 
L 3047 4666 
L 3047 1625 
L 3713 1625 
L 3713 1100 
L 3047 1100 
L 3047 0 
L 2419 0 
L 2419 1100 
L 313 1100 
L 313 1709 
L 2253 4666 
z
" transform="scale(0.015625)"/>
       </defs>
       <use xlink:href="#DejaVuSans-34"/>
      </g>
     </g>
    </g>
    <g id="xtick_4">
     <g id="line2d_11">
      <path d="M 317.4912 298.944 
L 317.4912 6.912 
" clip-path="url(#p0fd7278695)" style="fill: none; stroke: #b0b0b0; stroke-width: 0.8; stroke-linecap: square"/>
     </g>
     <g id="line2d_12">
      <g>
       <use xlink:href="#mc40914388a" x="317.4912" y="298.944" style="stroke: #000000; stroke-width: 0.8"/>
      </g>
     </g>
     <g id="text_4">
      <!-- 6 -->
      <g transform="translate(312.083075 318.861344)scale(0.17 -0.17)">
       <defs>
        <path id="DejaVuSans-36" d="M 2113 2584 
Q 1688 2584 1439 2293 
Q 1191 2003 1191 1497 
Q 1191 994 1439 701 
Q 1688 409 2113 409 
Q 2538 409 2786 701 
Q 3034 994 3034 1497 
Q 3034 2003 2786 2293 
Q 2538 2584 2113 2584 
z
M 3366 4563 
L 3366 3988 
Q 3128 4100 2886 4159 
Q 2644 4219 2406 4219 
Q 1781 4219 1451 3797 
Q 1122 3375 1075 2522 
Q 1259 2794 1537 2939 
Q 1816 3084 2150 3084 
Q 2853 3084 3261 2657 
Q 3669 2231 3669 1497 
Q 3669 778 3244 343 
Q 2819 -91 2113 -91 
Q 1303 -91 875 529 
Q 447 1150 447 2328 
Q 447 3434 972 4092 
Q 1497 4750 2381 4750 
Q 2619 4750 2861 4703 
Q 3103 4656 3366 4563 
z
" transform="scale(0.015625)"/>
       </defs>
       <use xlink:href="#DejaVuSans-36"/>
      </g>
     </g>
    </g>
    <g id="xtick_5">
     <g id="line2d_13">
      <path d="M 100.9152 298.944 
L 100.9152 6.912 
" clip-path="url(#p0fd7278695)" style="fill: none; stroke: #b0b0b0; stroke-width: 0.8; stroke-linecap: square"/>
     </g>
     <g id="line2d_14">
      <defs>
       <path id="m173f83e0d4" d="M 0 0 
L 0 2 
" style="stroke: #000000; stroke-width: 0.6"/>
      </defs>
      <g>
       <use xlink:href="#m173f83e0d4" x="100.9152" y="298.944" style="stroke: #000000; stroke-width: 0.6"/>
      </g>
     </g>
    </g>
    <g id="xtick_6">
     <g id="line2d_15">
      <path d="M 187.5456 298.944 
L 187.5456 6.912 
" clip-path="url(#p0fd7278695)" style="fill: none; stroke: #b0b0b0; stroke-width: 0.8; stroke-linecap: square"/>
     </g>
     <g id="line2d_16">
      <g>
       <use xlink:href="#m173f83e0d4" x="187.5456" y="298.944" style="stroke: #000000; stroke-width: 0.6"/>
      </g>
     </g>
    </g>
    <g id="xtick_7">
     <g id="line2d_17">
      <path d="M 274.176 298.944 
L 274.176 6.912 
" clip-path="url(#p0fd7278695)" style="fill: none; stroke: #b0b0b0; stroke-width: 0.8; stroke-linecap: square"/>
     </g>
     <g id="line2d_18">
      <g>
       <use xlink:href="#m173f83e0d4" x="274.176" y="298.944" style="stroke: #000000; stroke-width: 0.6"/>
      </g>
     </g>
    </g>
    <g id="xtick_8">
     <g id="line2d_19">
      <path d="M 360.8064 298.944 
L 360.8064 6.912 
" clip-path="url(#p0fd7278695)" style="fill: none; stroke: #b0b0b0; stroke-width: 0.8; stroke-linecap: square"/>
     </g>
     <g id="line2d_20">
      <g>
       <use xlink:href="#m173f83e0d4" x="360.8064" y="298.944" style="stroke: #000000; stroke-width: 0.6"/>
      </g>
     </g>
    </g>
    <g id="text_5">
     <!-- log10(# f-evals / dimension) -->
     <g transform="translate(88.823278 339.314156)scale(0.17 -0.17)">
      <defs>
       <path id="DejaVuSans-6c" d="M 603 4863 
L 1178 4863 
L 1178 0 
L 603 0 
L 603 4863 
z
" transform="scale(0.015625)"/>
       <path id="DejaVuSans-6f" d="M 1959 3097 
Q 1497 3097 1228 2736 
Q 959 2375 959 1747 
Q 959 1119 1226 758 
Q 1494 397 1959 397 
Q 2419 397 2687 759 
Q 2956 1122 2956 1747 
Q 2956 2369 2687 2733 
Q 2419 3097 1959 3097 
z
M 1959 3584 
Q 2709 3584 3137 3096 
Q 3566 2609 3566 1747 
Q 3566 888 3137 398 
Q 2709 -91 1959 -91 
Q 1206 -91 779 398 
Q 353 888 353 1747 
Q 353 2609 779 3096 
Q 1206 3584 1959 3584 
z
" transform="scale(0.015625)"/>
       <path id="DejaVuSans-67" d="M 2906 1791 
Q 2906 2416 2648 2759 
Q 2391 3103 1925 3103 
Q 1463 3103 1205 2759 
Q 947 2416 947 1791 
Q 947 1169 1205 825 
Q 1463 481 1925 481 
Q 2391 481 2648 825 
Q 2906 1169 2906 1791 
z
M 3481 434 
Q 3481 -459 3084 -895 
Q 2688 -1331 1869 -1331 
Q 1566 -1331 1297 -1286 
Q 1028 -1241 775 -1147 
L 775 -588 
Q 1028 -725 1275 -790 
Q 1522 -856 1778 -856 
Q 2344 -856 2625 -561 
Q 2906 -266 2906 331 
L 2906 616 
Q 2728 306 2450 153 
Q 2172 0 1784 0 
Q 1141 0 747 490 
Q 353 981 353 1791 
Q 353 2603 747 3093 
Q 1141 3584 1784 3584 
Q 2172 3584 2450 3431 
Q 2728 3278 2906 2969 
L 2906 3500 
L 3481 3500 
L 3481 434 
z
" transform="scale(0.015625)"/>
       <path id="DejaVuSans-31" d="M 794 531 
L 1825 531 
L 1825 4091 
L 703 3866 
L 703 4441 
L 1819 4666 
L 2450 4666 
L 2450 531 
L 3481 531 
L 3481 0 
L 794 0 
L 794 531 
z
" transform="scale(0.015625)"/>
       <path id="DejaVuSans-28" d="M 1984 4856 
Q 1566 4138 1362 3434 
Q 1159 2731 1159 2009 
Q 1159 1288 1364 580 
Q 1569 -128 1984 -844 
L 1484 -844 
Q 1016 -109 783 600 
Q 550 1309 550 2009 
Q 550 2706 781 3412 
Q 1013 4119 1484 4856 
L 1984 4856 
z
" transform="scale(0.015625)"/>
       <path id="DejaVuSans-23" d="M 3272 2816 
L 2363 2816 
L 2100 1772 
L 3016 1772 
L 3272 2816 
z
M 2803 4594 
L 2478 3297 
L 3391 3297 
L 3719 4594 
L 4219 4594 
L 3897 3297 
L 4872 3297 
L 4872 2816 
L 3775 2816 
L 3519 1772 
L 4513 1772 
L 4513 1294 
L 3397 1294 
L 3072 0 
L 2572 0 
L 2894 1294 
L 1978 1294 
L 1656 0 
L 1153 0 
L 1478 1294 
L 494 1294 
L 494 1772 
L 1594 1772 
L 1856 2816 
L 850 2816 
L 850 3297 
L 1978 3297 
L 2297 4594 
L 2803 4594 
z
" transform="scale(0.015625)"/>
       <path id="DejaVuSans-20" transform="scale(0.015625)"/>
       <path id="DejaVuSans-66" d="M 2375 4863 
L 2375 4384 
L 1825 4384 
Q 1516 4384 1395 4259 
Q 1275 4134 1275 3809 
L 1275 3500 
L 2222 3500 
L 2222 3053 
L 1275 3053 
L 1275 0 
L 697 0 
L 697 3053 
L 147 3053 
L 147 3500 
L 697 3500 
L 697 3744 
Q 697 4328 969 4595 
Q 1241 4863 1831 4863 
L 2375 4863 
z
" transform="scale(0.015625)"/>
       <path id="DejaVuSans-2d" d="M 313 2009 
L 1997 2009 
L 1997 1497 
L 313 1497 
L 313 2009 
z
" transform="scale(0.015625)"/>
       <path id="DejaVuSans-65" d="M 3597 1894 
L 3597 1613 
L 953 1613 
Q 991 1019 1311 708 
Q 1631 397 2203 397 
Q 2534 397 2845 478 
Q 3156 559 3463 722 
L 3463 178 
Q 3153 47 2828 -22 
Q 2503 -91 2169 -91 
Q 1331 -91 842 396 
Q 353 884 353 1716 
Q 353 2575 817 3079 
Q 1281 3584 2069 3584 
Q 2775 3584 3186 3129 
Q 3597 2675 3597 1894 
z
M 3022 2063 
Q 3016 2534 2758 2815 
Q 2500 3097 2075 3097 
Q 1594 3097 1305 2825 
Q 1016 2553 972 2059 
L 3022 2063 
z
" transform="scale(0.015625)"/>
       <path id="DejaVuSans-76" d="M 191 3500 
L 800 3500 
L 1894 563 
L 2988 3500 
L 3597 3500 
L 2284 0 
L 1503 0 
L 191 3500 
z
" transform="scale(0.015625)"/>
       <path id="DejaVuSans-61" d="M 2194 1759 
Q 1497 1759 1228 1600 
Q 959 1441 959 1056 
Q 959 750 1161 570 
Q 1363 391 1709 391 
Q 2188 391 2477 730 
Q 2766 1069 2766 1631 
L 2766 1759 
L 2194 1759 
z
M 3341 1997 
L 3341 0 
L 2766 0 
L 2766 531 
Q 2569 213 2275 61 
Q 1981 -91 1556 -91 
Q 1019 -91 701 211 
Q 384 513 384 1019 
Q 384 1609 779 1909 
Q 1175 2209 1959 2209 
L 2766 2209 
L 2766 2266 
Q 2766 2663 2505 2880 
Q 2244 3097 1772 3097 
Q 1472 3097 1187 3025 
Q 903 2953 641 2809 
L 641 3341 
Q 956 3463 1253 3523 
Q 1550 3584 1831 3584 
Q 2591 3584 2966 3190 
Q 3341 2797 3341 1997 
z
" transform="scale(0.015625)"/>
       <path id="DejaVuSans-73" d="M 2834 3397 
L 2834 2853 
Q 2591 2978 2328 3040 
Q 2066 3103 1784 3103 
Q 1356 3103 1142 2972 
Q 928 2841 928 2578 
Q 928 2378 1081 2264 
Q 1234 2150 1697 2047 
L 1894 2003 
Q 2506 1872 2764 1633 
Q 3022 1394 3022 966 
Q 3022 478 2636 193 
Q 2250 -91 1575 -91 
Q 1294 -91 989 -36 
Q 684 19 347 128 
L 347 722 
Q 666 556 975 473 
Q 1284 391 1588 391 
Q 1994 391 2212 530 
Q 2431 669 2431 922 
Q 2431 1156 2273 1281 
Q 2116 1406 1581 1522 
L 1381 1569 
Q 847 1681 609 1914 
Q 372 2147 372 2553 
Q 372 3047 722 3315 
Q 1072 3584 1716 3584 
Q 2034 3584 2315 3537 
Q 2597 3491 2834 3397 
z
" transform="scale(0.015625)"/>
       <path id="DejaVuSans-2f" d="M 1625 4666 
L 2156 4666 
L 531 -594 
L 0 -594 
L 1625 4666 
z
" transform="scale(0.015625)"/>
       <path id="DejaVuSans-64" d="M 2906 2969 
L 2906 4863 
L 3481 4863 
L 3481 0 
L 2906 0 
L 2906 525 
Q 2725 213 2448 61 
Q 2172 -91 1784 -91 
Q 1150 -91 751 415 
Q 353 922 353 1747 
Q 353 2572 751 3078 
Q 1150 3584 1784 3584 
Q 2172 3584 2448 3432 
Q 2725 3281 2906 2969 
z
M 947 1747 
Q 947 1113 1208 752 
Q 1469 391 1925 391 
Q 2381 391 2643 752 
Q 2906 1113 2906 1747 
Q 2906 2381 2643 2742 
Q 2381 3103 1925 3103 
Q 1469 3103 1208 2742 
Q 947 2381 947 1747 
z
" transform="scale(0.015625)"/>
       <path id="DejaVuSans-69" d="M 603 3500 
L 1178 3500 
L 1178 0 
L 603 0 
L 603 3500 
z
M 603 4863 
L 1178 4863 
L 1178 4134 
L 603 4134 
L 603 4863 
z
" transform="scale(0.015625)"/>
       <path id="DejaVuSans-6d" d="M 3328 2828 
Q 3544 3216 3844 3400 
Q 4144 3584 4550 3584 
Q 5097 3584 5394 3201 
Q 5691 2819 5691 2113 
L 5691 0 
L 5113 0 
L 5113 2094 
Q 5113 2597 4934 2840 
Q 4756 3084 4391 3084 
Q 3944 3084 3684 2787 
Q 3425 2491 3425 1978 
L 3425 0 
L 2847 0 
L 2847 2094 
Q 2847 2600 2669 2842 
Q 2491 3084 2119 3084 
Q 1678 3084 1418 2786 
Q 1159 2488 1159 1978 
L 1159 0 
L 581 0 
L 581 3500 
L 1159 3500 
L 1159 2956 
Q 1356 3278 1631 3431 
Q 1906 3584 2284 3584 
Q 2666 3584 2933 3390 
Q 3200 3197 3328 2828 
z
" transform="scale(0.015625)"/>
       <path id="DejaVuSans-6e" d="M 3513 2113 
L 3513 0 
L 2938 0 
L 2938 2094 
Q 2938 2591 2744 2837 
Q 2550 3084 2163 3084 
Q 1697 3084 1428 2787 
Q 1159 2491 1159 1978 
L 1159 0 
L 581 0 
L 581 3500 
L 1159 3500 
L 1159 2956 
Q 1366 3272 1645 3428 
Q 1925 3584 2291 3584 
Q 2894 3584 3203 3211 
Q 3513 2838 3513 2113 
z
" transform="scale(0.015625)"/>
       <path id="DejaVuSans-29" d="M 513 4856 
L 1013 4856 
Q 1481 4119 1714 3412 
Q 1947 2706 1947 2009 
Q 1947 1309 1714 600 
Q 1481 -109 1013 -844 
L 513 -844 
Q 928 -128 1133 580 
Q 1338 1288 1338 2009 
Q 1338 2731 1133 3434 
Q 928 4138 513 4856 
z
" transform="scale(0.015625)"/>
      </defs>
      <use xlink:href="#DejaVuSans-6c"/>
      <use xlink:href="#DejaVuSans-6f" x="27.783203"/>
      <use xlink:href="#DejaVuSans-67" x="88.964844"/>
      <use xlink:href="#DejaVuSans-31" x="152.441406"/>
      <use xlink:href="#DejaVuSans-30" x="216.064453"/>
      <use xlink:href="#DejaVuSans-28" x="279.6875"/>
      <use xlink:href="#DejaVuSans-23" x="318.701172"/>
      <use xlink:href="#DejaVuSans-20" x="402.490234"/>
      <use xlink:href="#DejaVuSans-66" x="434.277344"/>
      <use xlink:href="#DejaVuSans-2d" x="463.982422"/>
      <use xlink:href="#DejaVuSans-65" x="500.066406"/>
      <use xlink:href="#DejaVuSans-76" x="561.589844"/>
      <use xlink:href="#DejaVuSans-61" x="620.769531"/>
      <use xlink:href="#DejaVuSans-6c" x="682.048828"/>
      <use xlink:href="#DejaVuSans-73" x="709.832031"/>
      <use xlink:href="#DejaVuSans-20" x="761.931641"/>
      <use xlink:href="#DejaVuSans-2f" x="793.71875"/>
      <use xlink:href="#DejaVuSans-20" x="827.410156"/>
      <use xlink:href="#DejaVuSans-64" x="859.197266"/>
      <use xlink:href="#DejaVuSans-69" x="922.673828"/>
      <use xlink:href="#DejaVuSans-6d" x="950.457031"/>
      <use xlink:href="#DejaVuSans-65" x="1047.869141"/>
      <use xlink:href="#DejaVuSans-6e" x="1109.392578"/>
      <use xlink:href="#DejaVuSans-73" x="1172.771484"/>
      <use xlink:href="#DejaVuSans-69" x="1224.871094"/>
      <use xlink:href="#DejaVuSans-6f" x="1252.654297"/>
      <use xlink:href="#DejaVuSans-6e" x="1313.835938"/>
      <use xlink:href="#DejaVuSans-29" x="1377.214844"/>
     </g>
    </g>
   </g>
   <g id="matplotlib.axis_2">
    <g id="ytick_1">
     <g id="line2d_21">
      <path d="M 57.6 298.944 
L 360.8064 298.944 
" clip-path="url(#p0fd7278695)" style="fill: none; stroke: #b0b0b0; stroke-width: 0.8; stroke-linecap: square"/>
     </g>
     <g id="line2d_22">
      <defs>
       <path id="mf1274d1372" d="M 0 0 
L -3.5 0 
" style="stroke: #000000; stroke-width: 0.8"/>
      </defs>
      <g>
       <use xlink:href="#mf1274d1372" x="57.6" y="298.944" style="stroke: #000000; stroke-width: 0.8"/>
      </g>
     </g>
     <g id="text_6">
      <!-- 0.0 -->
      <g transform="translate(25.155 305.02275)scale(0.16 -0.16)">
       <defs>
        <path id="DejaVuSans-2e" d="M 684 794 
L 1344 794 
L 1344 0 
L 684 0 
L 684 794 
z
" transform="scale(0.015625)"/>
       </defs>
       <use xlink:href="#DejaVuSans-30"/>
       <use xlink:href="#DejaVuSans-2e" x="63.623047"/>
       <use xlink:href="#DejaVuSans-30" x="95.410156"/>
      </g>
     </g>
    </g>
    <g id="ytick_2">
     <g id="line2d_23">
      <path d="M 57.6 240.5376 
L 360.8064 240.5376 
" clip-path="url(#p0fd7278695)" style="fill: none; stroke: #b0b0b0; stroke-width: 0.8; stroke-linecap: square"/>
     </g>
     <g id="line2d_24">
      <g>
       <use xlink:href="#mf1274d1372" x="57.6" y="240.5376" style="stroke: #000000; stroke-width: 0.8"/>
      </g>
     </g>
     <g id="text_7">
      <!-- 0.2 -->
      <g transform="translate(25.155 246.61635)scale(0.16 -0.16)">
       <use xlink:href="#DejaVuSans-30"/>
       <use xlink:href="#DejaVuSans-2e" x="63.623047"/>
       <use xlink:href="#DejaVuSans-32" x="95.410156"/>
      </g>
     </g>
    </g>
    <g id="ytick_3">
     <g id="line2d_25">
      <path d="M 57.6 182.1312 
L 360.8064 182.1312 
" clip-path="url(#p0fd7278695)" style="fill: none; stroke: #b0b0b0; stroke-width: 0.8; stroke-linecap: square"/>
     </g>
     <g id="line2d_26">
      <g>
       <use xlink:href="#mf1274d1372" x="57.6" y="182.1312" style="stroke: #000000; stroke-width: 0.8"/>
      </g>
     </g>
     <g id="text_8">
      <!-- 0.4 -->
      <g transform="translate(25.155 188.20995)scale(0.16 -0.16)">
       <use xlink:href="#DejaVuSans-30"/>
       <use xlink:href="#DejaVuSans-2e" x="63.623047"/>
       <use xlink:href="#DejaVuSans-34" x="95.410156"/>
      </g>
     </g>
    </g>
    <g id="ytick_4">
     <g id="line2d_27">
      <path d="M 57.6 123.7248 
L 360.8064 123.7248 
" clip-path="url(#p0fd7278695)" style="fill: none; stroke: #b0b0b0; stroke-width: 0.8; stroke-linecap: square"/>
     </g>
     <g id="line2d_28">
      <g>
       <use xlink:href="#mf1274d1372" x="57.6" y="123.7248" style="stroke: #000000; stroke-width: 0.8"/>
      </g>
     </g>
     <g id="text_9">
      <!-- 0.6 -->
      <g transform="translate(25.155 129.80355)scale(0.16 -0.16)">
       <use xlink:href="#DejaVuSans-30"/>
       <use xlink:href="#DejaVuSans-2e" x="63.623047"/>
       <use xlink:href="#DejaVuSans-36" x="95.410156"/>
      </g>
     </g>
    </g>
    <g id="ytick_5">
     <g id="line2d_29">
      <path d="M 57.6 65.3184 
L 360.8064 65.3184 
" clip-path="url(#p0fd7278695)" style="fill: none; stroke: #b0b0b0; stroke-width: 0.8; stroke-linecap: square"/>
     </g>
     <g id="line2d_30">
      <g>
       <use xlink:href="#mf1274d1372" x="57.6" y="65.3184" style="stroke: #000000; stroke-width: 0.8"/>
      </g>
     </g>
     <g id="text_10">
      <!-- 0.8 -->
      <g transform="translate(25.155 71.39715)scale(0.16 -0.16)">
       <defs>
        <path id="DejaVuSans-38" d="M 2034 2216 
Q 1584 2216 1326 1975 
Q 1069 1734 1069 1313 
Q 1069 891 1326 650 
Q 1584 409 2034 409 
Q 2484 409 2743 651 
Q 3003 894 3003 1313 
Q 3003 1734 2745 1975 
Q 2488 2216 2034 2216 
z
M 1403 2484 
Q 997 2584 770 2862 
Q 544 3141 544 3541 
Q 544 4100 942 4425 
Q 1341 4750 2034 4750 
Q 2731 4750 3128 4425 
Q 3525 4100 3525 3541 
Q 3525 3141 3298 2862 
Q 3072 2584 2669 2484 
Q 3125 2378 3379 2068 
Q 3634 1759 3634 1313 
Q 3634 634 3220 271 
Q 2806 -91 2034 -91 
Q 1263 -91 848 271 
Q 434 634 434 1313 
Q 434 1759 690 2068 
Q 947 2378 1403 2484 
z
M 1172 3481 
Q 1172 3119 1398 2916 
Q 1625 2713 2034 2713 
Q 2441 2713 2670 2916 
Q 2900 3119 2900 3481 
Q 2900 3844 2670 4047 
Q 2441 4250 2034 4250 
Q 1625 4250 1398 4047 
Q 1172 3844 1172 3481 
z
" transform="scale(0.015625)"/>
       </defs>
       <use xlink:href="#DejaVuSans-30"/>
       <use xlink:href="#DejaVuSans-2e" x="63.623047"/>
       <use xlink:href="#DejaVuSans-38" x="95.410156"/>
      </g>
     </g>
    </g>
    <g id="ytick_6">
     <g id="line2d_31">
      <path d="M 57.6 6.912 
L 360.8064 6.912 
" clip-path="url(#p0fd7278695)" style="fill: none; stroke: #b0b0b0; stroke-width: 0.8; stroke-linecap: square"/>
     </g>
     <g id="line2d_32">
      <g>
       <use xlink:href="#mf1274d1372" x="57.6" y="6.912" style="stroke: #000000; stroke-width: 0.8"/>
      </g>
     </g>
     <g id="text_11">
      <!-- 1.0 -->
      <g transform="translate(25.155 12.99075)scale(0.16 -0.16)">
       <use xlink:href="#DejaVuSans-31"/>
       <use xlink:href="#DejaVuSans-2e" x="63.623047"/>
       <use xlink:href="#DejaVuSans-30" x="95.410156"/>
      </g>
     </g>
    </g>
    <g id="text_12">
     <!-- Fraction of function,target pairs -->
     <g transform="translate(17.619531 287.313)rotate(-90)scale(0.17 -0.17)">
      <defs>
       <path id="DejaVuSans-46" d="M 628 4666 
L 3309 4666 
L 3309 4134 
L 1259 4134 
L 1259 2759 
L 3109 2759 
L 3109 2228 
L 1259 2228 
L 1259 0 
L 628 0 
L 628 4666 
z
" transform="scale(0.015625)"/>
       <path id="DejaVuSans-72" d="M 2631 2963 
Q 2534 3019 2420 3045 
Q 2306 3072 2169 3072 
Q 1681 3072 1420 2755 
Q 1159 2438 1159 1844 
L 1159 0 
L 581 0 
L 581 3500 
L 1159 3500 
L 1159 2956 
Q 1341 3275 1631 3429 
Q 1922 3584 2338 3584 
Q 2397 3584 2469 3576 
Q 2541 3569 2628 3553 
L 2631 2963 
z
" transform="scale(0.015625)"/>
       <path id="DejaVuSans-63" d="M 3122 3366 
L 3122 2828 
Q 2878 2963 2633 3030 
Q 2388 3097 2138 3097 
Q 1578 3097 1268 2742 
Q 959 2388 959 1747 
Q 959 1106 1268 751 
Q 1578 397 2138 397 
Q 2388 397 2633 464 
Q 2878 531 3122 666 
L 3122 134 
Q 2881 22 2623 -34 
Q 2366 -91 2075 -91 
Q 1284 -91 818 406 
Q 353 903 353 1747 
Q 353 2603 823 3093 
Q 1294 3584 2113 3584 
Q 2378 3584 2631 3529 
Q 2884 3475 3122 3366 
z
" transform="scale(0.015625)"/>
       <path id="DejaVuSans-74" d="M 1172 4494 
L 1172 3500 
L 2356 3500 
L 2356 3053 
L 1172 3053 
L 1172 1153 
Q 1172 725 1289 603 
Q 1406 481 1766 481 
L 2356 481 
L 2356 0 
L 1766 0 
Q 1100 0 847 248 
Q 594 497 594 1153 
L 594 3053 
L 172 3053 
L 172 3500 
L 594 3500 
L 594 4494 
L 1172 4494 
z
" transform="scale(0.015625)"/>
       <path id="DejaVuSans-75" d="M 544 1381 
L 544 3500 
L 1119 3500 
L 1119 1403 
Q 1119 906 1312 657 
Q 1506 409 1894 409 
Q 2359 409 2629 706 
Q 2900 1003 2900 1516 
L 2900 3500 
L 3475 3500 
L 3475 0 
L 2900 0 
L 2900 538 
Q 2691 219 2414 64 
Q 2138 -91 1772 -91 
Q 1169 -91 856 284 
Q 544 659 544 1381 
z
M 1991 3584 
L 1991 3584 
z
" transform="scale(0.015625)"/>
       <path id="DejaVuSans-2c" d="M 750 794 
L 1409 794 
L 1409 256 
L 897 -744 
L 494 -744 
L 750 256 
L 750 794 
z
" transform="scale(0.015625)"/>
       <path id="DejaVuSans-70" d="M 1159 525 
L 1159 -1331 
L 581 -1331 
L 581 3500 
L 1159 3500 
L 1159 2969 
Q 1341 3281 1617 3432 
Q 1894 3584 2278 3584 
Q 2916 3584 3314 3078 
Q 3713 2572 3713 1747 
Q 3713 922 3314 415 
Q 2916 -91 2278 -91 
Q 1894 -91 1617 61 
Q 1341 213 1159 525 
z
M 3116 1747 
Q 3116 2381 2855 2742 
Q 2594 3103 2138 3103 
Q 1681 3103 1420 2742 
Q 1159 2381 1159 1747 
Q 1159 1113 1420 752 
Q 1681 391 2138 391 
Q 2594 391 2855 752 
Q 3116 1113 3116 1747 
z
" transform="scale(0.015625)"/>
      </defs>
      <use xlink:href="#DejaVuSans-46"/>
      <use xlink:href="#DejaVuSans-72" x="50.269531"/>
      <use xlink:href="#DejaVuSans-61" x="91.382812"/>
      <use xlink:href="#DejaVuSans-63" x="152.662109"/>
      <use xlink:href="#DejaVuSans-74" x="207.642578"/>
      <use xlink:href="#DejaVuSans-69" x="246.851562"/>
      <use xlink:href="#DejaVuSans-6f" x="274.634766"/>
      <use xlink:href="#DejaVuSans-6e" x="335.816406"/>
      <use xlink:href="#DejaVuSans-20" x="399.195312"/>
      <use xlink:href="#DejaVuSans-6f" x="430.982422"/>
      <use xlink:href="#DejaVuSans-66" x="492.164062"/>
      <use xlink:href="#DejaVuSans-20" x="527.369141"/>
      <use xlink:href="#DejaVuSans-66" x="559.15625"/>
      <use xlink:href="#DejaVuSans-75" x="594.361328"/>
      <use xlink:href="#DejaVuSans-6e" x="657.740234"/>
      <use xlink:href="#DejaVuSans-63" x="721.119141"/>
      <use xlink:href="#DejaVuSans-74" x="776.099609"/>
      <use xlink:href="#DejaVuSans-69" x="815.308594"/>
      <use xlink:href="#DejaVuSans-6f" x="843.091797"/>
      <use xlink:href="#DejaVuSans-6e" x="904.273438"/>
      <use xlink:href="#DejaVuSans-2c" x="967.652344"/>
      <use xlink:href="#DejaVuSans-74" x="999.439453"/>
      <use xlink:href="#DejaVuSans-61" x="1038.648438"/>
      <use xlink:href="#DejaVuSans-72" x="1099.927734"/>
      <use xlink:href="#DejaVuSans-67" x="1139.291016"/>
      <use xlink:href="#DejaVuSans-65" x="1202.767578"/>
      <use xlink:href="#DejaVuSans-74" x="1264.291016"/>
      <use xlink:href="#DejaVuSans-20" x="1303.5"/>
      <use xlink:href="#DejaVuSans-70" x="1335.287109"/>
      <use xlink:href="#DejaVuSans-61" x="1398.763672"/>
      <use xlink:href="#DejaVuSans-69" x="1460.042969"/>
      <use xlink:href="#DejaVuSans-72" x="1487.826172"/>
      <use xlink:href="#DejaVuSans-73" x="1528.939453"/>
     </g>
    </g>
   </g>
   <g id="line2d_33">
    <defs>
     <path id="mda1672f359" d="M 0 1.5 
C 0.397805 1.5 0.77937 1.341951 1.06066 1.06066 
C 1.341951 0.77937 1.5 0.397805 1.5 0 
C 1.5 -0.397805 1.341951 -0.77937 1.06066 -1.06066 
C 0.77937 -1.341951 0.397805 -1.5 0 -1.5 
C -0.397805 -1.5 -0.77937 -1.341951 -1.06066 -1.06066 
C -1.341951 -0.77937 -1.5 -0.397805 -1.5 0 
C -1.5 0.397805 -1.341951 0.77937 -1.06066 1.06066 
C -0.77937 1.341951 -0.397805 1.5 0 1.5 
z
" style="stroke: #f5deb3"/>
    </defs>
    <g>
     <use xlink:href="#mda1672f359" x="318.688117" y="42.157241" style="fill: #f5deb3; stroke: #f5deb3"/>
     <use xlink:href="#mda1672f359" x="318.688117" y="42.157241" style="fill: #f5deb3; stroke: #f5deb3"/>
    </g>
   </g>
   <g id="line2d_34">
    <defs>
     <path id="m26dca4579d" d="M 0 1.5 
C 0.397805 1.5 0.77937 1.341951 1.06066 1.06066 
C 1.341951 0.77937 1.5 0.397805 1.5 0 
C 1.5 -0.397805 1.341951 -0.77937 1.06066 -1.06066 
C 0.77937 -1.341951 0.397805 -1.5 0 -1.5 
C -0.397805 -1.5 -0.77937 -1.341951 -1.06066 -1.06066 
C -1.341951 -0.77937 -1.5 -0.397805 -1.5 0 
C -1.5 0.397805 -1.341951 0.77937 -1.06066 1.06066 
C -0.77937 1.341951 -0.397805 1.5 0 1.5 
z
" style="stroke: #000080"/>
    </defs>
    <g>
     <use xlink:href="#m26dca4579d" x="74.836851" y="285.978786" style="fill: #000080; stroke: #000080"/>
     <use xlink:href="#m26dca4579d" x="74.836851" y="285.978786" style="fill: #000080; stroke: #000080"/>
    </g>
   </g>
   <g id="line2d_35">
    <path d="M 1.245626 298.944 
L 1.245626 289.629186 
L 14.2848 289.629186 
L 14.2848 289.50331 
L 21.912228 289.50331 
L 21.912228 289.377434 
L 34.951403 289.377434 
L 34.951403 289.251559 
L 42.578831 289.251559 
L 42.578831 288.748055 
L 46.353758 288.748055 
L 46.353758 288.496303 
L 50.890391 288.496303 
L 50.890391 288.244552 
L 52.188254 288.244552 
L 52.188254 288.118676 
L 54.542767 288.118676 
L 54.542767 287.9928 
L 55.618005 287.9928 
L 55.618005 287.489297 
L 60.229139 287.489297 
L 60.229139 286.985793 
L 63.929565 286.985793 
L 63.929565 286.859917 
L 64.589687 286.859917 
L 64.589687 286.734041 
L 68.65718 286.734041 
L 68.65718 286.608166 
L 70.162907 286.608166 
L 70.162907 286.48229 
L 70.639174 286.48229 
L 70.639174 286.356414 
L 71.556993 286.356414 
L 71.556993 286.230538 
L 74.836851 286.230538 
L 74.836851 285.978786 
L 360.8064 285.978786 
" style="fill: none; stroke: #000080; stroke-width: 1.5; stroke-linecap: square"/>
   </g>
   <g id="line2d_36">
    <defs>
     <path id="m935d9401a2" d="M 0 6 
C 1.591219 6 3.117479 5.367802 4.242641 4.242641 
C 5.367802 3.117479 6 1.591219 6 0 
C 6 -1.591219 5.367802 -3.117479 4.242641 -4.242641 
C 3.117479 -5.367802 1.591219 -6 0 -6 
C -1.591219 -6 -3.117479 -5.367802 -4.242641 -4.242641 
C -5.367802 -3.117479 -6 -1.591219 -6 0 
C -6 1.591219 -5.367802 3.117479 -4.242641 4.242641 
C -3.117479 5.367802 -1.591219 6 0 6 
z
" style="stroke: #000080; stroke-width: 1.5"/>
    </defs>
    <g>
     <use xlink:href="#m935d9401a2" x="74.836851" y="286.230538" style="fill-opacity: 0; stroke: #000080; stroke-width: 1.5"/>
     <use xlink:href="#m935d9401a2" x="74.836851" y="286.230538" style="fill-opacity: 0; stroke: #000080; stroke-width: 1.5"/>
     <use xlink:href="#m935d9401a2" x="74.836851" y="285.978786" style="fill-opacity: 0; stroke: #000080; stroke-width: 1.5"/>
     <use xlink:href="#m935d9401a2" x="74.836851" y="285.978786" style="fill-opacity: 0; stroke: #000080; stroke-width: 1.5"/>
     <use xlink:href="#m935d9401a2" x="74.836851" y="285.978786" style="fill-opacity: 0; stroke: #000080; stroke-width: 1.5"/>
     <use xlink:href="#m935d9401a2" x="360.8064" y="285.978786" style="fill-opacity: 0; stroke: #000080; stroke-width: 1.5"/>
    </g>
   </g>
   <g id="line2d_37">
    <path style="fill: none; stroke: #000080; stroke-width: 1.5; stroke-linecap: square"/>
    <g/>
   </g>
   <g id="line2d_38">
    <path d="M 74.836851 285.978786 
" clip-path="url(#p0fd7278695)" style="fill: none; stroke: #000080; stroke-width: 1.5; stroke-linecap: square"/>
    <defs>
     <path id="m660f5acbb9" d="M -12 12 
L 12 -12 
M -12 -12 
L 12 12 
" style="stroke: #000080"/>
    </defs>
    <g clip-path="url(#p0fd7278695)">
     <use xlink:href="#m660f5acbb9" x="74.836851" y="285.978786" style="fill: #000080; stroke: #000080"/>
    </g>
   </g>
   <g id="line2d_39">
    <defs>
     <path id="mc5ee643d3e" d="M 0 1.5 
C 0.397805 1.5 0.77937 1.341951 1.06066 1.06066 
C 1.341951 0.77937 1.5 0.397805 1.5 0 
C 1.5 -0.397805 1.341951 -0.77937 1.06066 -1.06066 
C 0.77937 -1.341951 0.397805 -1.5 0 -1.5 
C -0.397805 -1.5 -0.77937 -1.341951 -1.06066 -1.06066 
C -1.341951 -0.77937 -1.5 -0.397805 -1.5 0 
C -1.5 0.397805 -1.341951 0.77937 -1.06066 1.06066 
C -0.77937 1.341951 -0.397805 1.5 0 1.5 
z
" style="stroke: #ff00ff"/>
    </defs>
    <g>
     <use xlink:href="#mc5ee643d3e" x="273.01779" y="177.977297" style="fill: #ff00ff; stroke: #ff00ff"/>
     <use xlink:href="#mc5ee643d3e" x="273.01779" y="177.977297" style="fill: #ff00ff; stroke: #ff00ff"/>
    </g>
   </g>
   <g id="line2d_40">
    <path d="M 1.245626 298.944 
L 1.245626 289.629186 
L 21.912228 289.629186 
L 21.912228 289.50331 
L 27.323974 289.50331 
L 27.323974 289.377434 
L 31.521651 289.377434 
L 31.521651 289.251559 
L 57.6 289.251559 
L 57.6 289.125683 
L 58.517819 289.125683 
L 58.517819 288.999807 
L 80.342421 288.999807 
L 80.342421 288.873931 
L 81.433251 288.873931 
L 81.433251 288.748055 
L 81.696354 288.748055 
L 81.696354 288.622179 
L 82.713442 288.622179 
L 82.713442 288.496303 
L 90.668036 288.496303 
L 90.668036 288.370428 
L 94.735529 288.370428 
L 94.735529 288.244552 
L 96.120281 288.244552 
L 96.120281 288.118676 
L 96.480897 288.118676 
L 96.480897 287.9928 
L 97.968299 287.9928 
L 97.968299 287.866924 
L 101.562344 287.866924 
L 101.562344 287.741048 
L 103.130882 287.741048 
L 103.130882 287.615172 
L 105.26277 287.615172 
L 105.26277 287.489297 
L 106.279859 287.489297 
L 106.279859 287.363421 
L 106.630177 287.363421 
L 106.630177 287.111669 
L 107.109915 287.111669 
L 107.109915 286.985793 
L 109.69782 286.985793 
L 109.69782 286.859917 
L 110.841731 286.859917 
L 110.841731 286.734041 
L 113.717748 286.734041 
L 113.717748 286.608166 
L 117.772007 286.608166 
L 117.772007 286.48229 
L 122.825242 286.48229 
L 122.825242 286.356414 
L 123.657621 286.356414 
L 123.657621 286.230538 
L 124.373813 286.230538 
L 124.373813 285.978786 
L 126.946461 285.978786 
L 126.946461 285.85291 
L 128.484801 285.85291 
L 128.484801 285.727034 
L 129.926925 285.727034 
L 129.926925 285.601159 
L 130.734242 285.601159 
L 130.734242 285.475283 
L 131.040128 285.475283 
L 131.040128 285.349407 
L 131.210028 285.349407 
L 131.266322 285.097655 
L 131.801984 285.097655 
L 131.801984 284.971779 
L 132.829612 284.971779 
L 132.829612 284.845903 
L 133.339903 284.845903 
L 133.339903 284.720028 
L 133.672565 284.720028 
L 133.672565 284.468276 
L 135.252969 284.468276 
L 135.328609 284.090648 
L 135.478982 284.090648 
L 135.478982 283.964772 
L 135.893741 283.964772 
L 135.893741 283.838897 
L 136.584151 283.838897 
L 136.584151 283.713021 
L 136.864507 283.713021 
L 136.864507 283.587145 
L 137.534223 283.587145 
L 137.534223 283.461269 
L 137.840541 283.461269 
L 137.840541 283.335393 
L 137.998402 283.335393 
L 138.076838 283.083641 
L 138.167935 283.083641 
L 138.167935 282.957766 
L 138.335954 282.957766 
L 138.335954 282.83189 
L 138.553431 282.83189 
L 138.553431 282.706014 
L 138.743257 282.706014 
L 138.743257 282.580138 
L 138.918715 282.580138 
L 138.918715 282.454262 
L 139.483965 282.454262 
L 139.483965 282.328386 
L 139.950242 282.328386 
L 139.950242 282.076634 
L 140.405242 282.076634 
L 140.405242 281.950759 
L 140.793122 281.950759 
L 140.793122 281.824883 
L 141.106655 281.824883 
L 141.106655 281.699007 
L 141.393187 281.699007 
L 141.415049 281.447255 
L 141.686191 281.447255 
L 141.718467 281.195503 
L 141.889677 281.195503 
L 141.910969 280.943752 
L 142.069896 280.943752 
L 142.133093 280.692 
L 142.217026 280.692 
L 142.217026 280.566124 
L 142.45627 280.566124 
L 142.45627 280.440248 
L 142.753651 280.440248 
L 142.753651 280.314372 
L 143.993774 280.314372 
L 144.088782 279.936745 
L 144.211579 279.936745 
L 144.305496 279.433241 
L 144.37096 279.433241 
L 144.37096 279.307366 
L 144.482657 279.307366 
L 144.482657 279.18149 
L 145.049423 279.18149 
L 145.049423 279.055614 
L 145.3354 279.055614 
L 145.415054 278.803862 
L 145.808341 278.803862 
L 145.808341 278.677986 
L 146.01478 278.677986 
L 146.066037 278.300359 
L 146.345485 278.300359 
L 146.370685 278.048607 
L 146.562769 278.048607 
L 146.637401 277.796855 
L 146.859539 277.796855 
L 146.924857 277.545103 
L 147.030517 277.545103 
L 147.054816 277.167476 
L 147.143646 277.167476 
L 147.183884 276.915724 
L 147.383796 276.915724 
L 147.46317 276.538097 
L 147.901578 276.538097 
L 147.901578 276.412221 
L 148.124658 276.412221 
L 148.185734 276.034593 
L 148.322436 276.034593 
L 148.367783 275.782841 
L 148.458151 275.782841 
L 148.458151 275.656966 
L 148.570504 275.656966 
L 148.615258 275.153462 
L 148.704447 275.153462 
L 148.704447 275.027586 
L 148.822713 275.027586 
L 148.925589 274.649959 
L 148.976817 274.649959 
L 148.976817 274.524083 
L 149.093387 274.524083 
L 149.093387 274.398207 
L 149.288477 274.398207 
L 149.35306 274.146455 
L 149.679732 274.146455 
L 149.757016 273.642952 
L 149.980053 273.642952 
L 149.980053 273.517076 
L 150.138743 273.517076 
L 150.221009 273.013572 
L 150.452162 273.013572 
L 150.559965 272.635945 
L 150.693856 272.635945 
L 150.693856 272.384193 
L 150.820175 272.384193 
L 150.88632 272.006566 
L 151.239537 272.006566 
L 151.297768 271.628938 
L 151.432941 271.628938 
L 151.471384 271.377186 
L 151.548036 271.377186 
L 151.548036 271.25131 
L 151.757231 271.25131 
L 151.757231 271.125434 
L 151.907925 271.125434 
L 151.907925 270.999559 
L 152.063625 270.999559 
L 152.137906 270.621931 
L 152.365109 270.621931 
L 152.365109 270.496055 
L 152.51103 270.496055 
L 152.529191 270.244303 
L 152.637789 270.244303 
L 152.721823 269.866676 
L 153.148165 269.866676 
L 153.206622 269.237297 
L 153.276532 269.237297 
L 153.346183 268.985545 
L 153.415577 268.985545 
L 153.450178 268.733793 
L 153.616527 268.733793 
L 153.645059 268.356166 
L 153.770091 268.356166 
L 153.770091 268.23029 
L 153.967309 268.23029 
L 153.967309 267.978538 
L 154.079083 267.978538 
L 154.151382 267.60091 
L 154.201272 267.60091 
L 154.201272 267.349159 
L 154.405 267.349159 
L 154.503318 266.971531 
L 154.552285 266.971531 
L 154.552285 266.845655 
L 154.698427 266.845655 
L 154.725366 266.342152 
L 155.019177 266.342152 
L 155.050953 266.0904 
L 155.235253 266.0904 
L 155.235253 265.964524 
L 155.360594 265.964524 
L 155.454055 265.586897 
L 155.505777 265.586897 
L 155.505777 265.461021 
L 155.634465 265.461021 
L 155.670341 264.957517 
L 155.85884 264.957517 
L 155.959951 264.328138 
L 155.980108 264.328138 
L 155.980108 264.202262 
L 156.140591 264.202262 
L 156.17053 263.95051 
L 156.378778 263.95051 
L 156.378778 263.824634 
L 156.652904 263.824634 
L 156.725657 263.321131 
L 156.807772 263.321131 
L 156.807772 263.069379 
L 156.999582 263.069379 
L 156.999582 262.943503 
L 157.1469 262.943503 
L 157.241336 262.565876 
L 157.470719 262.565876 
L 157.545018 262.188248 
L 157.637481 262.188248 
L 157.678942 261.810621 
L 157.907629 261.810621 
L 158.007377 260.803614 
L 158.120089 260.803614 
L 158.151527 260.551862 
L 158.24553 260.551862 
L 158.339064 260.048359 
L 158.356828 260.048359 
L 158.449812 259.418979 
L 158.546733 259.418979 
L 158.546733 259.167228 
L 158.673735 259.167228 
L 158.74344 258.286097 
L 158.912271 258.286097 
L 158.912271 258.034345 
L 159.215793 258.034345 
L 159.279296 257.782593 
L 159.481075 257.782593 
L 159.552023 256.901462 
L 159.614403 256.901462 
L 159.676576 256.397959 
L 159.783859 256.397959 
L 159.849576 256.146207 
L 159.935483 256.146207 
L 159.992537 255.768579 
L 160.093991 255.768579 
L 160.130381 255.390952 
L 160.223059 255.390952 
L 160.223059 255.1392 
L 160.411036 255.1392 
L 160.514222 254.635697 
L 160.530046 254.635697 
L 160.565603 254.258069 
L 160.722826 254.258069 
L 160.812637 253.880441 
L 160.940753 253.880441 
L 160.987125 253.376938 
L 161.209658 253.376938 
L 161.270586 252.99931 
L 161.350256 252.99931 
L 161.350256 252.747559 
L 161.643254 252.747559 
L 161.751035 252.369931 
L 161.825009 252.369931 
L 161.825009 252.244055 
L 162.005026 252.244055 
L 162.078009 251.740552 
L 162.150711 251.740552 
L 162.223133 251.237048 
L 162.277267 251.237048 
L 162.377902 250.733545 
L 162.431593 250.733545 
L 162.478002 250.355917 
L 162.66956 250.355917 
L 162.694249 250.104166 
L 162.848702 250.104166 
L 162.928937 249.726538 
L 163.071121 249.726538 
L 163.181352 249.097159 
L 163.232801 249.097159 
L 163.232801 248.845407 
L 163.440591 248.845407 
L 163.440591 248.719531 
L 163.555419 248.719531 
L 163.659508 247.8384 
L 163.672897 247.8384 
L 163.77634 247.334897 
L 163.809588 247.334897 
L 163.842777 247.083145 
L 164.210548 247.083145 
L 164.311084 246.453766 
L 164.324018 246.453766 
L 164.40465 246.076138 
L 164.440019 246.076138 
L 164.529751 245.069131 
L 164.752225 245.069131 
L 164.752225 244.943255 
L 164.937717 244.943255 
L 165.046896 244.313876 
L 165.244914 244.313876 
L 165.35233 243.684497 
L 165.392072 243.684497 
L 165.474345 243.055117 
L 165.538087 243.055117 
L 165.538087 242.929241 
L 165.676963 242.929241 
L 165.766985 242.425738 
L 165.832729 242.425738 
L 165.907159 241.796359 
L 165.954641 241.796359 
L 165.954641 241.544607 
L 166.187339 241.544607 
L 166.292432 240.915228 
L 166.338952 240.915228 
L 166.405624 240.159972 
L 166.641418 240.159972 
L 166.698484 239.782345 
L 166.800767 239.782345 
L 166.888401 239.278841 
L 167.014889 239.278841 
L 167.026092 238.901214 
L 167.218289 238.901214 
L 167.326061 238.649462 
L 167.364598 238.649462 
L 167.364598 238.39771 
L 167.621321 238.39771 
L 167.626746 237.894207 
L 167.812933 237.894207 
L 167.812933 237.642455 
L 167.93871 237.642455 
L 167.981336 237.138952 
L 168.05305 237.138952 
L 168.05305 236.8872 
L 168.171969 236.8872 
L 168.206184 236.509572 
L 168.655677 236.509572 
L 168.719753 236.131945 
L 168.788711 236.131945 
L 168.842171 235.754317 
L 168.971374 235.754317 
L 169.06958 235.250814 
L 169.149779 235.250814 
L 169.224656 234.873186 
L 169.356214 234.873186 
L 169.393282 234.117931 
L 169.550619 234.117931 
L 169.660464 233.614428 
L 169.687218 233.614428 
L 169.781767 233.110924 
L 169.986203 233.110924 
L 170.064978 232.355669 
L 170.138678 232.355669 
L 170.143423 232.103917 
L 170.362755 232.103917 
L 170.365099 231.72629 
L 170.584193 231.72629 
L 170.688182 231.222786 
L 170.722717 231.222786 
L 170.812214 230.719283 
L 171.309246 230.719283 
L 171.351562 229.964028 
L 171.497818 229.964028 
L 171.526492 229.5864 
L 171.618835 229.5864 
L 171.721637 228.957021 
L 171.82388 228.957021 
L 171.828218 228.579393 
L 171.96437 228.579393 
L 171.96437 228.453517 
L 172.118775 228.453517 
L 172.229507 228.07589 
L 172.24012 228.07589 
L 172.24012 227.950014 
L 172.362795 227.950014 
L 172.362795 227.824138 
L 172.566188 227.824138 
L 172.587032 227.320634 
L 172.775657 227.320634 
L 172.845649 226.943007 
L 172.8908 226.943007 
L 172.950152 226.565379 
L 173.102787 226.565379 
L 173.110892 226.187752 
L 173.230049 226.187752 
L 173.254192 225.558372 
L 173.404389 225.558372 
L 173.404389 225.432497 
L 173.527653 225.432497 
L 173.527653 225.180745 
L 173.769827 225.180745 
L 173.769827 224.928993 
L 173.917919 224.928993 
L 173.917919 224.677241 
L 174.168564 224.677241 
L 174.245018 224.173738 
L 174.292645 224.173738 
L 174.370492 223.921986 
L 174.630174 223.921986 
L 174.630174 223.79611 
L 174.817984 223.79611 
L 174.878944 223.292607 
L 174.937868 223.292607 
L 174.937868 223.166731 
L 175.066125 223.166731 
L 175.151752 222.663228 
L 175.675175 222.663228 
L 175.675175 222.537352 
L 175.936756 222.537352 
L 175.936756 222.411476 
L 176.048006 222.411476 
L 176.048006 222.2856 
L 176.40849 222.2856 
L 176.40849 222.159724 
L 176.783875 222.159724 
L 176.878635 221.656221 
L 176.958065 221.656221 
L 177.004244 221.278593 
L 177.291948 221.278593 
L 177.291948 221.152717 
L 177.608846 221.152717 
L 177.608846 220.900966 
L 177.764525 220.900966 
L 177.834004 220.523338 
L 178.0222 220.523338 
L 178.050267 220.019834 
L 178.18534 220.019834 
L 178.18534 219.768083 
L 178.331734 219.768083 
L 178.331734 219.516331 
L 179.245532 219.516331 
L 179.245532 219.390455 
L 180.006379 219.390455 
L 180.006379 219.264579 
L 180.160218 219.264579 
L 180.160218 219.012828 
L 180.501138 219.012828 
L 180.580305 218.761076 
L 180.945851 218.761076 
L 181.016519 218.383448 
L 181.263756 218.383448 
L 181.263756 218.257572 
L 181.533698 218.257572 
L 181.567332 217.879945 
L 182.010548 217.879945 
L 182.010548 217.754069 
L 183.007428 217.754069 
L 183.007428 217.502317 
L 184.152308 217.502317 
L 184.152308 217.376441 
L 184.326111 217.376441 
L 184.326111 217.250566 
L 184.895568 217.250566 
L 184.895568 217.12469 
L 185.01646 217.12469 
L 185.01646 216.872938 
L 185.191024 216.872938 
L 185.191024 216.747062 
L 185.358701 216.747062 
L 185.358701 216.621186 
L 186.099348 216.621186 
L 186.099348 216.369434 
L 186.388631 216.369434 
L 186.388631 216.243559 
L 189.291445 216.243559 
L 189.291445 216.117683 
L 190.485413 216.117683 
L 190.578504 215.740055 
L 190.780746 215.740055 
L 190.780746 215.614179 
L 191.46813 215.614179 
L 191.46813 215.488303 
L 192.418753 215.488303 
L 192.418753 215.236552 
L 193.59631 215.236552 
L 193.670488 214.858924 
L 194.126759 214.858924 
L 194.126759 214.733048 
L 194.662644 214.733048 
L 194.662644 214.607172 
L 195.741247 214.607172 
L 195.741247 214.481297 
L 196.033429 214.481297 
L 196.033429 214.355421 
L 196.760192 214.355421 
L 196.760192 214.103669 
L 197.150319 214.103669 
L 197.150319 213.851917 
L 197.528094 213.851917 
L 197.528094 213.726041 
L 197.952061 213.726041 
L 197.952061 213.600166 
L 198.738153 213.600166 
L 198.802374 213.222538 
L 199.308398 213.222538 
L 199.308398 212.970786 
L 199.762885 212.970786 
L 199.763376 212.467283 
L 200.533915 212.467283 
L 200.533915 212.341407 
L 200.838424 212.341407 
L 200.93561 212.089655 
L 201.269141 212.089655 
L 201.269141 211.837903 
L 202.805472 211.837903 
L 202.805472 211.586152 
L 203.866194 211.586152 
L 203.866194 211.460276 
L 204.34011 211.460276 
L 204.34011 211.3344 
L 205.18114 211.3344 
L 205.18114 211.208524 
L 205.337402 211.208524 
L 205.337402 211.082648 
L 205.763228 211.082648 
L 205.763228 210.830897 
L 206.361084 210.830897 
L 206.409799 210.579145 
L 207.26412 210.579145 
L 207.26412 210.453269 
L 207.692474 210.453269 
L 207.709226 210.075641 
L 207.828959 210.075641 
L 207.828959 209.949766 
L 208.677932 209.949766 
L 208.677932 209.82389 
L 208.866313 209.82389 
L 208.866313 209.572138 
L 209.041129 209.572138 
L 209.041129 209.446262 
L 209.522143 209.446262 
L 209.522143 209.19451 
L 209.857485 209.19451 
L 209.857485 209.068634 
L 210.846248 209.068634 
L 210.846248 208.942759 
L 211.0466 208.942759 
L 211.0466 208.816883 
L 212.109774 208.816883 
L 212.109774 208.691007 
L 212.786577 208.691007 
L 212.786577 208.439255 
L 214.113673 208.439255 
L 214.113673 208.187503 
L 214.667652 208.187503 
L 214.673435 207.684 
L 215.563382 207.684 
L 215.563382 207.432248 
L 215.766962 207.432248 
L 215.766962 207.306372 
L 216.257586 207.306372 
L 216.257586 207.180497 
L 216.432777 207.180497 
L 216.524905 206.928745 
L 217.269574 206.928745 
L 217.269574 206.802869 
L 218.033748 206.802869 
L 218.03598 206.299366 
L 218.329211 206.299366 
L 218.329211 206.17349 
L 218.464225 206.17349 
L 218.522311 205.921738 
L 219.065183 205.921738 
L 219.065183 205.795862 
L 220.58621 205.795862 
L 220.58621 205.669986 
L 220.715687 205.669986 
L 220.715687 205.418234 
L 221.019195 205.418234 
L 221.110706 205.040607 
L 221.254355 205.040607 
L 221.254355 204.914731 
L 221.619591 204.914731 
L 221.619591 204.662979 
L 222.171734 204.662979 
L 222.171734 204.537103 
L 222.619422 204.537103 
L 222.721619 204.159476 
L 222.874814 204.159476 
L 222.972489 203.907724 
L 223.248274 203.907724 
L 223.248274 203.781848 
L 223.580837 203.781848 
L 223.580837 203.530097 
L 223.991558 203.530097 
L 224.010114 203.278345 
L 224.116492 203.278345 
L 224.214774 202.900717 
L 224.326528 202.900717 
L 224.326528 202.774841 
L 224.439739 202.774841 
L 224.439739 202.52309 
L 224.936221 202.52309 
L 224.936221 202.397214 
L 225.528146 202.397214 
L 225.528146 202.271338 
L 225.788222 202.271338 
L 225.788222 202.019586 
L 225.990118 202.019586 
L 226.023599 201.641959 
L 227.176545 201.641959 
L 227.181921 201.390207 
L 227.949508 201.390207 
L 228.019103 201.138455 
L 228.496095 201.138455 
L 228.496095 200.886703 
L 229.531906 200.886703 
L 229.531906 200.634952 
L 229.822584 200.634952 
L 229.85347 200.257324 
L 229.977694 200.257324 
L 229.977694 200.005572 
L 230.369671 200.005572 
L 230.418941 199.502069 
L 230.639407 199.502069 
L 230.639407 199.376193 
L 231.128271 199.376193 
L 231.128271 199.124441 
L 231.620838 199.124441 
L 231.620838 198.998566 
L 231.791066 198.998566 
L 231.791066 198.87269 
L 233.385203 198.87269 
L 233.385203 198.746814 
L 233.768083 198.746814 
L 233.797394 198.369186 
L 233.896585 198.369186 
L 233.922101 198.117434 
L 234.310293 198.117434 
L 234.320391 197.865683 
L 234.474706 197.865683 
L 234.474706 197.613931 
L 234.613362 197.613931 
L 234.717167 196.984552 
L 234.814762 196.984552 
L 234.814762 196.858676 
L 235.065699 196.858676 
L 235.132224 196.481048 
L 235.708165 196.481048 
L 235.752673 196.103421 
L 235.858616 196.103421 
L 235.858616 195.977545 
L 236.18312 195.977545 
L 236.231186 195.599917 
L 236.489156 195.599917 
L 236.489156 195.474041 
L 236.852025 195.474041 
L 236.958705 195.22229 
L 237.028428 195.22229 
L 237.028428 194.970538 
L 237.224263 194.970538 
L 237.321254 194.718786 
L 237.919962 194.718786 
L 237.919962 194.467034 
L 238.822839 194.467034 
L 238.822839 194.341159 
L 239.313914 194.341159 
L 239.313914 194.089407 
L 239.474658 194.089407 
L 239.474658 193.837655 
L 240.03027 193.837655 
L 240.03027 193.711779 
L 240.349045 193.711779 
L 240.349045 193.460028 
L 240.548598 193.460028 
L 240.548598 193.334152 
L 240.900525 193.334152 
L 240.900525 193.208276 
L 241.204842 193.208276 
L 241.204842 192.956524 
L 241.455642 192.956524 
L 241.455642 192.830648 
L 242.33435 192.830648 
L 242.33435 192.578897 
L 242.53157 192.578897 
L 242.53157 192.453021 
L 243.198849 192.453021 
L 243.26439 192.075393 
L 243.325632 192.075393 
L 243.325632 191.823641 
L 243.751247 191.823641 
L 243.758261 191.57189 
L 243.971932 191.57189 
L 244.077468 191.320138 
L 244.206259 191.320138 
L 244.303037 190.94251 
L 244.43752 190.94251 
L 244.43752 190.816634 
L 244.967509 190.816634 
L 244.967509 190.564883 
L 245.203568 190.564883 
L 245.203568 190.439007 
L 245.380927 190.439007 
L 245.380927 190.313131 
L 246.133874 190.313131 
L 246.186963 189.809628 
L 247.249252 189.809628 
L 247.249252 189.557876 
L 247.829452 189.557876 
L 247.873289 189.054372 
L 248.716165 189.054372 
L 248.716165 188.928497 
L 248.901143 188.928497 
L 248.901143 188.802621 
L 249.050767 188.802621 
L 249.050767 188.676745 
L 249.613147 188.676745 
L 249.613147 188.550869 
L 249.930831 188.550869 
L 249.930831 188.424993 
L 250.273125 188.424993 
L 250.3743 188.047366 
L 250.627202 188.047366 
L 250.627202 187.92149 
L 251.228253 187.92149 
L 251.228253 187.669738 
L 251.439882 187.669738 
L 251.439882 187.543862 
L 252.003773 187.543862 
L 252.018563 187.166234 
L 252.371293 187.166234 
L 252.419046 186.788607 
L 252.841027 186.788607 
L 252.934037 186.536855 
L 253.090808 186.536855 
L 253.090808 186.410979 
L 253.448925 186.410979 
L 253.448925 186.285103 
L 253.593869 186.285103 
L 253.61355 185.907476 
L 254.069343 185.907476 
L 254.069343 185.7816 
L 254.261674 185.7816 
L 254.261674 185.655724 
L 254.803976 185.655724 
L 254.803976 185.529848 
L 255.016916 185.529848 
L 255.024207 185.278097 
L 256.574167 185.278097 
L 256.646767 185.026345 
L 256.961146 185.026345 
L 256.963377 184.648717 
L 257.128262 184.648717 
L 257.128262 184.522841 
L 257.558009 184.522841 
L 257.558009 184.27109 
L 258.0173 184.27109 
L 258.117686 184.019338 
L 258.793716 184.019338 
L 258.793716 183.893462 
L 259.226804 183.893462 
L 259.291801 183.515834 
L 259.598567 183.515834 
L 259.598567 183.389959 
L 259.769979 183.389959 
L 259.878419 183.138207 
L 260.300427 183.138207 
L 260.300427 183.012331 
L 260.856639 183.012331 
L 260.856639 182.886455 
L 261.245954 182.886455 
L 261.2945 182.634703 
L 262.332569 182.634703 
L 262.332569 182.508828 
L 262.570799 182.508828 
L 262.598268 182.257076 
L 262.85685 182.257076 
L 262.85685 182.1312 
L 262.974067 182.1312 
L 262.974067 181.879448 
L 263.236421 181.879448 
L 263.271552 181.627697 
L 263.942923 181.627697 
L 263.942923 181.375945 
L 264.156067 181.375945 
L 264.156067 181.124193 
L 265.555328 181.124193 
L 265.555328 180.998317 
L 265.73126 180.998317 
L 265.73126 180.872441 
L 266.072232 180.872441 
L 266.072232 180.62069 
L 266.285443 180.62069 
L 266.285443 180.494814 
L 266.754411 180.494814 
L 266.754411 180.368938 
L 267.247907 180.368938 
L 267.247907 180.243062 
L 267.468957 180.243062 
L 267.468957 180.117186 
L 268.04498 180.117186 
L 268.04498 179.865434 
L 268.180237 179.865434 
L 268.180237 179.739559 
L 268.721918 179.739559 
L 268.721918 179.613683 
L 269.636272 179.613683 
L 269.636272 179.361931 
L 269.90184 179.361931 
L 270.00086 178.984303 
L 270.900453 178.984303 
L 270.900453 178.858428 
L 271.109923 178.858428 
L 271.109923 178.732552 
L 271.409656 178.732552 
L 271.409656 178.606676 
L 272.040358 178.606676 
L 272.040358 178.354924 
L 272.316186 178.354924 
L 272.316186 178.229048 
L 272.833605 178.229048 
L 272.833605 178.103172 
L 273.01779 178.103172 
L 273.01779 177.977297 
L 360.8064 177.977297 
L 360.8064 177.977297 
" style="fill: none; stroke: #ff00ff; stroke-width: 1.5; stroke-linecap: square"/>
   </g>
   <g id="line2d_41">
    <defs>
     <path id="mf677cdcef7" d="M 0 8.485281 
L 5.091169 0 
L 0 -8.485281 
L -5.091169 0 
z
" style="stroke: #ff00ff; stroke-width: 1.5; stroke-linejoin: miter"/>
    </defs>
    <g>
     <use xlink:href="#mf677cdcef7" x="101.562344" y="287.866924" style="fill-opacity: 0; stroke: #ff00ff; stroke-width: 1.5; stroke-linejoin: miter"/>
     <use xlink:href="#mf677cdcef7" x="180.160218" y="219.264579" style="fill-opacity: 0; stroke: #ff00ff; stroke-width: 1.5; stroke-linejoin: miter"/>
     <use xlink:href="#mf677cdcef7" x="248.901143" y="188.928497" style="fill-opacity: 0; stroke: #ff00ff; stroke-width: 1.5; stroke-linejoin: miter"/>
     <use xlink:href="#mf677cdcef7" x="273.01779" y="177.977297" style="fill-opacity: 0; stroke: #ff00ff; stroke-width: 1.5; stroke-linejoin: miter"/>
     <use xlink:href="#mf677cdcef7" x="273.01779" y="177.977297" style="fill-opacity: 0; stroke: #ff00ff; stroke-width: 1.5; stroke-linejoin: miter"/>
     <use xlink:href="#mf677cdcef7" x="360.8064" y="177.977297" style="fill-opacity: 0; stroke: #ff00ff; stroke-width: 1.5; stroke-linejoin: miter"/>
    </g>
   </g>
   <g id="line2d_42">
    <path style="fill: none; stroke: #ff00ff; stroke-width: 1.5; stroke-linecap: square"/>
    <g/>
   </g>
   <g id="line2d_43">
    <path d="M 274.176009 177.977297 
" clip-path="url(#p0fd7278695)" style="fill: none; stroke: #ff00ff; stroke-width: 1.5; stroke-linecap: square"/>
    <defs>
     <path id="mc4e68968aa" d="M -12 12 
L 12 -12 
M -12 -12 
L 12 12 
" style="stroke: #ff00ff"/>
    </defs>
    <g clip-path="url(#p0fd7278695)">
     <use xlink:href="#mc4e68968aa" x="274.176009" y="177.977297" style="fill: #ff00ff; stroke: #ff00ff"/>
    </g>
   </g>
   <g id="line2d_44">
    <defs>
     <path id="m638e1e9818" d="M 0 1.5 
C 0.397805 1.5 0.77937 1.341951 1.06066 1.06066 
C 1.341951 0.77937 1.5 0.397805 1.5 0 
C 1.5 -0.397805 1.341951 -0.77937 1.06066 -1.06066 
C 0.77937 -1.341951 0.397805 -1.5 0 -1.5 
C -0.397805 -1.5 -0.77937 -1.341951 -1.06066 -1.06066 
C -1.341951 -0.77937 -1.5 -0.397805 -1.5 0 
C -1.5 0.397805 -1.341951 0.77937 -1.06066 1.06066 
C -0.77937 1.341951 -0.397805 1.5 0 1.5 
z
" style="stroke: #6495ed"/>
    </defs>
    <g>
     <use xlink:href="#m638e1e9818" x="113.907287" y="262.314124" style="fill: #6495ed; stroke: #6495ed"/>
     <use xlink:href="#m638e1e9818" x="113.907287" y="262.314124" style="fill: #6495ed; stroke: #6495ed"/>
    </g>
   </g>
   <g id="line2d_45">
    <path d="M 1.245626 298.944 
L 1.245626 298.062869 
L 14.2848 298.062869 
L 14.2848 297.181738 
L 21.912228 297.181738 
L 21.912228 297.055862 
L 27.323974 297.055862 
L 27.323974 296.678234 
L 31.521651 296.678234 
L 31.521651 296.552359 
L 34.951403 296.552359 
L 34.951403 295.797103 
L 37.851216 295.797103 
L 37.851216 295.671228 
L 42.578831 295.671228 
L 42.578831 295.545352 
L 53.402323 295.545352 
L 53.402323 295.419476 
L 54.542767 295.419476 
L 54.542767 295.167724 
L 55.618005 295.167724 
L 55.618005 295.041848 
L 56.635094 295.041848 
L 56.635094 294.915972 
L 58.517819 294.915972 
L 58.517819 294.790097 
L 62.535479 294.790097 
L 62.535479 294.412469 
L 63.929565 294.412469 
L 63.929565 294.286593 
L 65.844256 294.286593 
L 65.844256 294.034841 
L 70.162907 294.034841 
L 70.162907 293.78309 
L 70.639174 293.78309 
L 70.639174 293.657214 
L 71.999638 293.657214 
L 71.999638 293.531338 
L 78.266603 293.531338 
L 78.266603 293.405462 
L 78.577544 293.405462 
L 78.577544 293.279586 
L 79.184421 293.279586 
L 79.184421 293.15371 
L 81.166416 293.15371 
L 81.166416 293.027834 
L 81.433251 293.027834 
L 81.433251 292.776083 
L 81.955828 292.776083 
L 81.955828 292.650207 
L 83.441723 292.650207 
L 83.441723 292.524331 
L 85.683844 292.524331 
L 85.683844 292.398455 
L 87.1081 292.398455 
L 87.1081 292.272579 
L 87.686963 292.272579 
L 87.686963 292.146703 
L 89.668958 292.146703 
L 89.668958 292.020828 
L 92.666241 292.020828 
L 92.666241 291.769076 
L 92.811505 291.769076 
L 92.811505 291.6432 
L 95.875972 291.6432 
L 95.875972 291.517324 
L 96.95121 291.517324 
L 96.95121 291.391448 
L 98.933205 291.391448 
L 98.933205 291.139697 
L 99.346662 291.139697 
L 99.346662 291.013821 
L 103.544339 291.013821 
L 103.625951 290.762069 
L 103.707211 290.762069 
L 103.788121 289.50331 
L 103.868684 289.50331 
L 103.948904 288.999807 
L 104.028784 288.999807 
L 104.108325 287.9928 
L 104.187532 287.9928 
L 104.266406 287.489297 
L 104.344952 287.489297 
L 104.42317 286.985793 
L 104.501065 286.985793 
L 104.578638 286.356414 
L 104.655893 286.356414 
L 104.732832 285.978786 
L 104.809458 285.978786 
L 104.885773 285.727034 
L 104.961779 285.727034 
L 105.037479 285.097655 
L 105.112877 285.097655 
L 105.187973 283.335393 
L 105.26277 283.335393 
L 105.337272 282.706014 
L 105.411479 282.706014 
L 105.485395 282.328386 
L 105.559021 282.328386 
L 105.632361 281.195503 
L 105.705415 281.195503 
L 105.778187 280.692 
L 105.850679 280.692 
L 105.922892 280.188497 
L 105.99483 280.188497 
L 106.066493 279.433241 
L 106.137884 279.433241 
L 106.137884 279.055614 
L 106.279859 279.055614 
L 106.350446 278.803862 
L 106.42077 278.803862 
L 106.490831 278.174483 
L 106.630177 278.174483 
L 106.630177 278.048607 
L 106.768498 278.048607 
L 106.837279 277.545103 
L 106.905809 277.545103 
L 106.905809 277.419228 
L 107.177461 277.419228 
L 107.177461 277.0416 
L 107.31183 277.0416 
L 107.31183 276.789848 
L 107.5116 276.789848 
L 107.5116 276.663972 
L 107.643612 276.663972 
L 107.709271 275.782841 
L 107.839908 275.782841 
L 107.839908 275.53109 
L 108.034177 275.53109 
L 108.09849 275.153462 
L 108.162584 275.153462 
L 108.22646 274.649959 
L 108.29012 274.649959 
L 108.353566 273.894703 
L 108.542628 273.894703 
L 108.605229 273.517076 
L 108.667622 273.517076 
L 108.729809 273.013572 
L 108.791791 273.013572 
L 108.85357 272.510069 
L 108.915146 272.510069 
L 108.915146 272.258317 
L 109.037698 272.258317 
L 109.098675 271.25131 
L 109.159456 271.25131 
L 109.22004 270.999559 
L 109.280431 270.999559 
L 109.340628 270.244303 
L 109.400633 270.244303 
L 109.460447 269.614924 
L 109.520071 269.614924 
L 109.579508 269.363172 
L 109.638757 269.363172 
L 109.69782 268.985545 
L 109.756698 268.985545 
L 109.756698 268.859669 
L 109.932235 268.859669 
L 109.932235 268.607917 
L 110.048356 268.607917 
L 110.048356 268.482041 
L 110.163764 268.482041 
L 110.221204 268.104414 
L 110.449226 268.104414 
L 110.449226 267.852662 
L 110.73042 267.852662 
L 110.786158 267.223283 
L 110.841731 267.223283 
L 110.897141 266.468028 
L 111.117162 266.468028 
L 111.117162 266.342152 
L 111.280505 266.342152 
L 111.334639 266.0904 
L 111.496112 266.0904 
L 111.54963 265.335145 
L 111.709277 265.335145 
L 111.81496 264.831641 
L 111.920053 264.831641 
L 111.920053 264.57989 
L 112.128493 264.57989 
L 112.180244 264.328138 
L 112.283321 264.328138 
L 112.283321 264.202262 
L 112.436886 264.202262 
L 112.436886 264.076386 
L 112.589207 264.076386 
L 112.589207 263.95051 
L 112.840366 263.95051 
L 112.939899 263.195255 
L 113.670063 263.195255 
L 113.717748 262.691752 
L 113.812756 262.691752 
L 113.907287 262.314124 
L 360.8064 262.314124 
L 360.8064 262.314124 
" style="fill: none; stroke: #6495ed; stroke-width: 1.5; stroke-linecap: square"/>
   </g>
   <g id="line2d_46">
    <defs>
     <path id="mbd47a431a5" d="M -0 6 
L 6 -6 
L -6 -6 
z
" style="stroke: #6495ed; stroke-width: 1.5; stroke-linejoin: miter"/>
    </defs>
    <g>
     <use xlink:href="#mbd47a431a5" x="99.346662" y="291.139697" style="fill-opacity: 0; stroke: #6495ed; stroke-width: 1.5; stroke-linejoin: miter"/>
     <use xlink:href="#mbd47a431a5" x="113.907287" y="262.44" style="fill-opacity: 0; stroke: #6495ed; stroke-width: 1.5; stroke-linejoin: miter"/>
     <use xlink:href="#mbd47a431a5" x="113.907287" y="262.44" style="fill-opacity: 0; stroke: #6495ed; stroke-width: 1.5; stroke-linejoin: miter"/>
     <use xlink:href="#mbd47a431a5" x="113.907287" y="262.314124" style="fill-opacity: 0; stroke: #6495ed; stroke-width: 1.5; stroke-linejoin: miter"/>
     <use xlink:href="#mbd47a431a5" x="113.907287" y="262.314124" style="fill-opacity: 0; stroke: #6495ed; stroke-width: 1.5; stroke-linejoin: miter"/>
     <use xlink:href="#mbd47a431a5" x="360.8064" y="262.314124" style="fill-opacity: 0; stroke: #6495ed; stroke-width: 1.5; stroke-linejoin: miter"/>
    </g>
   </g>
   <g id="line2d_47">
    <path style="fill: none; stroke: #6495ed; stroke-width: 1.5; stroke-linecap: square"/>
    <g/>
   </g>
   <g id="line2d_48">
    <path d="M 113.954374 262.314124 
" clip-path="url(#p0fd7278695)" style="fill: none; stroke: #6495ed; stroke-width: 1.5; stroke-linecap: square"/>
    <defs>
     <path id="m3de2da448b" d="M -12 12 
L 12 -12 
M -12 -12 
L 12 12 
" style="stroke: #6495ed"/>
    </defs>
    <g clip-path="url(#p0fd7278695)">
     <use xlink:href="#m3de2da448b" x="113.954374" y="262.314124" style="fill: #6495ed; stroke: #6495ed"/>
    </g>
   </g>
   <g id="line2d_49">
    <path d="M 360.8064 285.978786 
L 380.514816 293.10336 
" style="fill: none; stroke: #000080; stroke-width: 1.5; stroke-linecap: square"/>
    <g>
     <use xlink:href="#m935d9401a2" x="360.8064" y="285.978786" style="fill-opacity: 0; stroke: #000080; stroke-width: 1.5"/>
     <use xlink:href="#m935d9401a2" x="380.514816" y="293.10336" style="fill-opacity: 0; stroke: #000080; stroke-width: 1.5"/>
    </g>
   </g>
   <g id="line2d_50">
    <path d="M 360.8064 262.314124 
L 380.514816 199.65312 
" style="fill: none; stroke: #6495ed; stroke-width: 1.5; stroke-linecap: square"/>
    <g>
     <use xlink:href="#mbd47a431a5" x="360.8064" y="262.314124" style="fill-opacity: 0; stroke: #6495ed; stroke-width: 1.5; stroke-linejoin: miter"/>
     <use xlink:href="#mbd47a431a5" x="380.514816" y="199.65312" style="fill-opacity: 0; stroke: #6495ed; stroke-width: 1.5; stroke-linejoin: miter"/>
    </g>
   </g>
   <g id="line2d_51">
    <path d="M 360.8064 177.977297 
L 380.514816 106.20288 
" style="fill: none; stroke: #ff00ff; stroke-width: 1.5; stroke-linecap: square"/>
    <g>
     <use xlink:href="#mf677cdcef7" x="360.8064" y="177.977297" style="fill-opacity: 0; stroke: #ff00ff; stroke-width: 1.5; stroke-linejoin: miter"/>
     <use xlink:href="#mf677cdcef7" x="380.514816" y="106.20288" style="fill-opacity: 0; stroke: #ff00ff; stroke-width: 1.5; stroke-linejoin: miter"/>
    </g>
   </g>
   <g id="line2d_52">
    <path d="M 360.8064 298.944 
L 360.8064 6.912 
" style="fill: none; stroke: #000000; stroke-width: 1.5; stroke-linecap: square"/>
   </g>
   <g id="patch_3">
    <path d="M 57.6 298.944 
L 360.8064 298.944 
" style="fill: none; stroke: #000000; stroke-width: 0.8; stroke-linejoin: miter; stroke-linecap: square"/>
   </g>
   <g id="patch_4">
    <path d="M 57.6 6.912 
L 360.8064 6.912 
" style="fill: none; stroke: #000000; stroke-width: 0.8; stroke-linejoin: miter; stroke-linecap: square"/>
   </g>
   <g id="text_13">
    <!-- cma -->
    <g transform="translate(386.578944 296.966485)scale(0.14 -0.14)">
     <use xlink:href="#DejaVuSans-63"/>
     <use xlink:href="#DejaVuSans-6d" x="54.980469"/>
     <use xlink:href="#DejaVuSans-61" x="152.392578"/>
    </g>
   </g>
   <g id="text_14">
    <!-- parEgo -->
    <g transform="translate(386.578944 203.516245)scale(0.14 -0.14)">
     <defs>
      <path id="DejaVuSans-45" d="M 628 4666 
L 3578 4666 
L 3578 4134 
L 1259 4134 
L 1259 2753 
L 3481 2753 
L 3481 2222 
L 1259 2222 
L 1259 531 
L 3634 531 
L 3634 0 
L 628 0 
L 628 4666 
z
" transform="scale(0.015625)"/>
     </defs>
     <use xlink:href="#DejaVuSans-70"/>
     <use xlink:href="#DejaVuSans-61" x="63.476562"/>
     <use xlink:href="#DejaVuSans-72" x="124.755859"/>
     <use xlink:href="#DejaVuSans-45" x="165.869141"/>
     <use xlink:href="#DejaVuSans-67" x="229.052734"/>
     <use xlink:href="#DejaVuSans-6f" x="292.529297"/>
    </g>
   </g>
   <g id="text_15">
    <!-- external- -->
    <g transform="translate(386.578944 110.066005)scale(0.14 -0.14)">
     <defs>
      <path id="DejaVuSans-78" d="M 3513 3500 
L 2247 1797 
L 3578 0 
L 2900 0 
L 1881 1375 
L 863 0 
L 184 0 
L 1544 1831 
L 300 3500 
L 978 3500 
L 1906 2253 
L 2834 3500 
L 3513 3500 
z
" transform="scale(0.015625)"/>
     </defs>
     <use xlink:href="#DejaVuSans-65"/>
     <use xlink:href="#DejaVuSans-78" x="59.773438"/>
     <use xlink:href="#DejaVuSans-74" x="118.953125"/>
     <use xlink:href="#DejaVuSans-65" x="158.162109"/>
     <use xlink:href="#DejaVuSans-72" x="219.685547"/>
     <use xlink:href="#DejaVuSans-6e" x="259.048828"/>
     <use xlink:href="#DejaVuSans-61" x="322.427734"/>
     <use xlink:href="#DejaVuSans-6c" x="383.707031"/>
     <use xlink:href="#DejaVuSans-2d" x="411.490234"/>
    </g>
   </g>
   <g id="text_16">
    <!-- best 2016 -->
    <g transform="translate(386.578944 16.615765)scale(0.14 -0.14)">
     <defs>
      <path id="DejaVuSans-62" d="M 3116 1747 
Q 3116 2381 2855 2742 
Q 2594 3103 2138 3103 
Q 1681 3103 1420 2742 
Q 1159 2381 1159 1747 
Q 1159 1113 1420 752 
Q 1681 391 2138 391 
Q 2594 391 2855 752 
Q 3116 1113 3116 1747 
z
M 1159 2969 
Q 1341 3281 1617 3432 
Q 1894 3584 2278 3584 
Q 2916 3584 3314 3078 
Q 3713 2572 3713 1747 
Q 3713 922 3314 415 
Q 2916 -91 2278 -91 
Q 1894 -91 1617 61 
Q 1341 213 1159 525 
L 1159 0 
L 581 0 
L 581 4863 
L 1159 4863 
L 1159 2969 
z
" transform="scale(0.015625)"/>
     </defs>
     <use xlink:href="#DejaVuSans-62"/>
     <use xlink:href="#DejaVuSans-65" x="63.476562"/>
     <use xlink:href="#DejaVuSans-73" x="125"/>
     <use xlink:href="#DejaVuSans-74" x="177.099609"/>
     <use xlink:href="#DejaVuSans-20" x="216.308594"/>
     <use xlink:href="#DejaVuSans-32" x="248.095703"/>
     <use xlink:href="#DejaVuSans-30" x="311.71875"/>
     <use xlink:href="#DejaVuSans-31" x="375.341797"/>
     <use xlink:href="#DejaVuSans-36" x="438.964844"/>
    </g>
   </g>
   <g id="text_17">
    <!-- bbob-biobj f9, f10, f18, f19, 20-D -->
    <g transform="translate(60.632064 17.582726)scale(0.102 -0.102)">
     <defs>
      <path id="DejaVuSans-6a" d="M 603 3500 
L 1178 3500 
L 1178 -63 
Q 1178 -731 923 -1031 
Q 669 -1331 103 -1331 
L -116 -1331 
L -116 -844 
L 38 -844 
Q 366 -844 484 -692 
Q 603 -541 603 -63 
L 603 3500 
z
M 603 4863 
L 1178 4863 
L 1178 4134 
L 603 4134 
L 603 4863 
z
" transform="scale(0.015625)"/>
      <path id="DejaVuSans-39" d="M 703 97 
L 703 672 
Q 941 559 1184 500 
Q 1428 441 1663 441 
Q 2288 441 2617 861 
Q 2947 1281 2994 2138 
Q 2813 1869 2534 1725 
Q 2256 1581 1919 1581 
Q 1219 1581 811 2004 
Q 403 2428 403 3163 
Q 403 3881 828 4315 
Q 1253 4750 1959 4750 
Q 2769 4750 3195 4129 
Q 3622 3509 3622 2328 
Q 3622 1225 3098 567 
Q 2575 -91 1691 -91 
Q 1453 -91 1209 -44 
Q 966 3 703 97 
z
M 1959 2075 
Q 2384 2075 2632 2365 
Q 2881 2656 2881 3163 
Q 2881 3666 2632 3958 
Q 2384 4250 1959 4250 
Q 1534 4250 1286 3958 
Q 1038 3666 1038 3163 
Q 1038 2656 1286 2365 
Q 1534 2075 1959 2075 
z
" transform="scale(0.015625)"/>
      <path id="DejaVuSans-44" d="M 1259 4147 
L 1259 519 
L 2022 519 
Q 2988 519 3436 956 
Q 3884 1394 3884 2338 
Q 3884 3275 3436 3711 
Q 2988 4147 2022 4147 
L 1259 4147 
z
M 628 4666 
L 1925 4666 
Q 3281 4666 3915 4102 
Q 4550 3538 4550 2338 
Q 4550 1131 3912 565 
Q 3275 0 1925 0 
L 628 0 
L 628 4666 
z
" transform="scale(0.015625)"/>
     </defs>
     <use xlink:href="#DejaVuSans-62"/>
     <use xlink:href="#DejaVuSans-62" x="63.476562"/>
     <use xlink:href="#DejaVuSans-6f" x="126.953125"/>
     <use xlink:href="#DejaVuSans-62" x="188.134766"/>
     <use xlink:href="#DejaVuSans-2d" x="251.611328"/>
     <use xlink:href="#DejaVuSans-62" x="287.695312"/>
     <use xlink:href="#DejaVuSans-69" x="351.171875"/>
     <use xlink:href="#DejaVuSans-6f" x="378.955078"/>
     <use xlink:href="#DejaVuSans-62" x="440.136719"/>
     <use xlink:href="#DejaVuSans-6a" x="503.613281"/>
     <use xlink:href="#DejaVuSans-20" x="531.396484"/>
     <use xlink:href="#DejaVuSans-66" x="563.183594"/>
     <use xlink:href="#DejaVuSans-39" x="598.388672"/>
     <use xlink:href="#DejaVuSans-2c" x="662.011719"/>
     <use xlink:href="#DejaVuSans-20" x="693.798828"/>
     <use xlink:href="#DejaVuSans-66" x="725.585938"/>
     <use xlink:href="#DejaVuSans-31" x="760.791016"/>
     <use xlink:href="#DejaVuSans-30" x="824.414062"/>
     <use xlink:href="#DejaVuSans-2c" x="888.037109"/>
     <use xlink:href="#DejaVuSans-20" x="919.824219"/>
     <use xlink:href="#DejaVuSans-66" x="951.611328"/>
     <use xlink:href="#DejaVuSans-31" x="986.816406"/>
     <use xlink:href="#DejaVuSans-38" x="1050.439453"/>
     <use xlink:href="#DejaVuSans-2c" x="1114.0625"/>
     <use xlink:href="#DejaVuSans-20" x="1145.849609"/>
     <use xlink:href="#DejaVuSans-66" x="1177.636719"/>
     <use xlink:href="#DejaVuSans-31" x="1212.841797"/>
     <use xlink:href="#DejaVuSans-39" x="1276.464844"/>
     <use xlink:href="#DejaVuSans-2c" x="1340.087891"/>
     <use xlink:href="#DejaVuSans-20" x="1371.875"/>
     <use xlink:href="#DejaVuSans-32" x="1403.662109"/>
     <use xlink:href="#DejaVuSans-30" x="1467.285156"/>
     <use xlink:href="#DejaVuSans-2d" x="1530.908203"/>
     <use xlink:href="#DejaVuSans-44" x="1566.992188"/>
    </g>
    <!-- 58 targets: 1..-1.0e-4 -->
    <g transform="translate(60.632064 29.004495)scale(0.102 -0.102)">
     <defs>
      <path id="DejaVuSans-35" d="M 691 4666 
L 3169 4666 
L 3169 4134 
L 1269 4134 
L 1269 2991 
Q 1406 3038 1543 3061 
Q 1681 3084 1819 3084 
Q 2600 3084 3056 2656 
Q 3513 2228 3513 1497 
Q 3513 744 3044 326 
Q 2575 -91 1722 -91 
Q 1428 -91 1123 -41 
Q 819 9 494 109 
L 494 744 
Q 775 591 1075 516 
Q 1375 441 1709 441 
Q 2250 441 2565 725 
Q 2881 1009 2881 1497 
Q 2881 1984 2565 2268 
Q 2250 2553 1709 2553 
Q 1456 2553 1204 2497 
Q 953 2441 691 2322 
L 691 4666 
z
" transform="scale(0.015625)"/>
      <path id="DejaVuSans-3a" d="M 750 794 
L 1409 794 
L 1409 0 
L 750 0 
L 750 794 
z
M 750 3309 
L 1409 3309 
L 1409 2516 
L 750 2516 
L 750 3309 
z
" transform="scale(0.015625)"/>
     </defs>
     <use xlink:href="#DejaVuSans-35"/>
     <use xlink:href="#DejaVuSans-38" x="63.623047"/>
     <use xlink:href="#DejaVuSans-20" x="127.246094"/>
     <use xlink:href="#DejaVuSans-74" x="159.033203"/>
     <use xlink:href="#DejaVuSans-61" x="198.242188"/>
     <use xlink:href="#DejaVuSans-72" x="259.521484"/>
     <use xlink:href="#DejaVuSans-67" x="298.884766"/>
     <use xlink:href="#DejaVuSans-65" x="362.361328"/>
     <use xlink:href="#DejaVuSans-74" x="423.884766"/>
     <use xlink:href="#DejaVuSans-73" x="463.09375"/>
     <use xlink:href="#DejaVuSans-3a" x="515.193359"/>
     <use xlink:href="#DejaVuSans-20" x="548.884766"/>
     <use xlink:href="#DejaVuSans-31" x="580.671875"/>
     <use xlink:href="#DejaVuSans-2e" x="644.294922"/>
     <use xlink:href="#DejaVuSans-2e" x="676.082031"/>
     <use xlink:href="#DejaVuSans-2d" x="707.869141"/>
     <use xlink:href="#DejaVuSans-31" x="743.953125"/>
     <use xlink:href="#DejaVuSans-2e" x="807.576172"/>
     <use xlink:href="#DejaVuSans-30" x="839.363281"/>
     <use xlink:href="#DejaVuSans-65" x="902.986328"/>
     <use xlink:href="#DejaVuSans-2d" x="964.509766"/>
     <use xlink:href="#DejaVuSans-34" x="1000.59375"/>
    </g>
    <!-- 10 instances -->
    <g transform="translate(60.632064 40.426264)scale(0.102 -0.102)">
     <use xlink:href="#DejaVuSans-31"/>
     <use xlink:href="#DejaVuSans-30" x="63.623047"/>
     <use xlink:href="#DejaVuSans-20" x="127.246094"/>
     <use xlink:href="#DejaVuSans-69" x="159.033203"/>
     <use xlink:href="#DejaVuSans-6e" x="186.816406"/>
     <use xlink:href="#DejaVuSans-73" x="250.195312"/>
     <use xlink:href="#DejaVuSans-74" x="302.294922"/>
     <use xlink:href="#DejaVuSans-61" x="341.503906"/>
     <use xlink:href="#DejaVuSans-6e" x="402.783203"/>
     <use xlink:href="#DejaVuSans-63" x="466.162109"/>
     <use xlink:href="#DejaVuSans-65" x="521.142578"/>
     <use xlink:href="#DejaVuSans-73" x="582.666016"/>
    </g>
   </g>
   <g id="text_18">
    <!-- v2.6, hv-hash=ff0e71e8cd978373 -->
    <g style="fill: #808080" transform="translate(123.707887 293.943992)scale(0.1 -0.1)">
     <defs>
      <path id="DejaVuSans-68" d="M 3513 2113 
L 3513 0 
L 2938 0 
L 2938 2094 
Q 2938 2591 2744 2837 
Q 2550 3084 2163 3084 
Q 1697 3084 1428 2787 
Q 1159 2491 1159 1978 
L 1159 0 
L 581 0 
L 581 4863 
L 1159 4863 
L 1159 2956 
Q 1366 3272 1645 3428 
Q 1925 3584 2291 3584 
Q 2894 3584 3203 3211 
Q 3513 2838 3513 2113 
z
" transform="scale(0.015625)"/>
      <path id="DejaVuSans-3d" d="M 678 2906 
L 4684 2906 
L 4684 2381 
L 678 2381 
L 678 2906 
z
M 678 1631 
L 4684 1631 
L 4684 1100 
L 678 1100 
L 678 1631 
z
" transform="scale(0.015625)"/>
      <path id="DejaVuSans-37" d="M 525 4666 
L 3525 4666 
L 3525 4397 
L 1831 0 
L 1172 0 
L 2766 4134 
L 525 4134 
L 525 4666 
z
" transform="scale(0.015625)"/>
      <path id="DejaVuSans-33" d="M 2597 2516 
Q 3050 2419 3304 2112 
Q 3559 1806 3559 1356 
Q 3559 666 3084 287 
Q 2609 -91 1734 -91 
Q 1441 -91 1130 -33 
Q 819 25 488 141 
L 488 750 
Q 750 597 1062 519 
Q 1375 441 1716 441 
Q 2309 441 2620 675 
Q 2931 909 2931 1356 
Q 2931 1769 2642 2001 
Q 2353 2234 1838 2234 
L 1294 2234 
L 1294 2753 
L 1863 2753 
Q 2328 2753 2575 2939 
Q 2822 3125 2822 3475 
Q 2822 3834 2567 4026 
Q 2313 4219 1838 4219 
Q 1578 4219 1281 4162 
Q 984 4106 628 3988 
L 628 4550 
Q 988 4650 1302 4700 
Q 1616 4750 1894 4750 
Q 2613 4750 3031 4423 
Q 3450 4097 3450 3541 
Q 3450 3153 3228 2886 
Q 3006 2619 2597 2516 
z
" transform="scale(0.015625)"/>
     </defs>
     <use xlink:href="#DejaVuSans-76"/>
     <use xlink:href="#DejaVuSans-32" x="59.179688"/>
     <use xlink:href="#DejaVuSans-2e" x="122.802734"/>
     <use xlink:href="#DejaVuSans-36" x="154.589844"/>
     <use xlink:href="#DejaVuSans-2c" x="218.212891"/>
     <use xlink:href="#DejaVuSans-20" x="250"/>
     <use xlink:href="#DejaVuSans-68" x="281.787109"/>
     <use xlink:href="#DejaVuSans-76" x="345.166016"/>
     <use xlink:href="#DejaVuSans-2d" x="401.720703"/>
     <use xlink:href="#DejaVuSans-68" x="437.804688"/>
     <use xlink:href="#DejaVuSans-61" x="501.183594"/>
     <use xlink:href="#DejaVuSans-73" x="562.462891"/>
     <use xlink:href="#DejaVuSans-68" x="614.5625"/>
     <use xlink:href="#DejaVuSans-3d" x="677.941406"/>
     <use xlink:href="#DejaVuSans-66" x="761.730469"/>
     <use xlink:href="#DejaVuSans-66" x="796.935547"/>
     <use xlink:href="#DejaVuSans-30" x="832.140625"/>
     <use xlink:href="#DejaVuSans-65" x="895.763672"/>
     <use xlink:href="#DejaVuSans-37" x="957.287109"/>
     <use xlink:href="#DejaVuSans-31" x="1020.910156"/>
     <use xlink:href="#DejaVuSans-65" x="1084.533203"/>
     <use xlink:href="#DejaVuSans-38" x="1146.056641"/>
     <use xlink:href="#DejaVuSans-63" x="1209.679688"/>
     <use xlink:href="#DejaVuSans-64" x="1264.660156"/>
     <use xlink:href="#DejaVuSans-39" x="1328.136719"/>
     <use xlink:href="#DejaVuSans-37" x="1391.759766"/>
     <use xlink:href="#DejaVuSans-38" x="1455.382812"/>
     <use xlink:href="#DejaVuSans-33" x="1519.005859"/>
     <use xlink:href="#DejaVuSans-37" x="1582.628906"/>
     <use xlink:href="#DejaVuSans-33" x="1646.251953"/>
    </g>
   </g>
  </g>
 </g>
 <defs>
  <clipPath id="p0fd7278695">
   <rect x="57.6" y="6.912" width="303.2064" height="292.032"/>
  </clipPath>
 </defs>
</svg>
