<?xml version="1.0" encoding="utf-8" standalone="no"?>
<!DOCTYPE svg PUBLIC "-//W3C//DTD SVG 1.1//EN"
  "http://www.w3.org/Graphics/SVG/1.1/DTD/svg11.dtd">
<svg xmlns:xlink="http://www.w3.org/1999/xlink" width="460.8pt" height="345.6pt" viewBox="0 0 460.8 345.6" xmlns="http://www.w3.org/2000/svg" version="1.1">
 <metadata>
  <rdf:RDF xmlns:dc="http://purl.org/dc/elements/1.1/" xmlns:cc="http://creativecommons.org/ns#" xmlns:rdf="http://www.w3.org/1999/02/22-rdf-syntax-ns#">
   <cc:Work>
    <dc:type rdf:resource="http://purl.org/dc/dcmitype/StillImage"/>
    <dc:date>2022-06-19T21:02:57.673375</dc:date>
    <dc:format>image/svg+xml</dc:format>
    <dc:creator>
     <cc:Agent>
      <dc:title>Matplotlib v3.5.1, https://matplotlib.org/</dc:title>
     </cc:Agent>
    </dc:creator>
   </cc:Work>
  </rdf:RDF>
 </metadata>
 <defs>
  <style type="text/css">*{stroke-linejoin: round; stroke-linecap: butt}</style>
 </defs>
 <g id="figure_1">
  <g id="patch_1">
   <path d="M 0 345.6 
L 460.8 345.6 
L 460.8 0 
L 0 0 
z
" style="fill: #ffffff"/>
  </g>
  <g id="axes_1">
   <g id="patch_2">
    <path d="M 57.6 298.944 
L 360.8064 298.944 
L 360.8064 6.912 
L 57.6 6.912 
z
" style="fill: #ffffff"/>
   </g>
   <g id="line2d_1">
    <path d="M 14.2848 298.944 
L 14.2848 297.265655 
L 27.323974 297.265655 
L 27.323974 292.230621 
L 50.890391 292.230621 
L 50.890391 290.552276 
L 55.618005 290.552276 
L 55.618005 287.195586 
L 59.392932 287.195586 
L 59.392932 283.838897 
L 61.029752 283.838897 
L 61.029752 280.482207 
L 74.068926 280.482207 
L 74.068926 277.125517 
L 81.696354 277.125517 
L 81.696354 275.447172 
L 82.211771 275.447172 
L 82.211771 272.090483 
L 87.1081 272.090483 
L 87.1081 270.412138 
L 90.340871 270.412138 
L 90.340871 268.733793 
L 92.811505 268.733793 
L 92.811505 263.698759 
L 97.410051 263.698759 
L 97.410051 258.663724 
L 98.077987 258.663724 
L 98.077987 253.62869 
L 99.550033 253.62869 
L 99.550033 250.272 
L 100.535156 250.272 
L 100.535156 246.91531 
L 105.26277 246.91531 
L 105.26277 245.236966 
L 106.974091 245.236966 
L 106.974091 241.880276 
L 107.5116 241.880276 
L 107.5116 240.201931 
L 111.334639 240.201931 
L 111.334639 236.845241 
L 114.510421 236.845241 
L 114.510421 235.166897 
L 120.616896 235.166897 
L 120.616896 231.810207 
L 121.455972 231.810207 
L 121.455972 228.453517 
L 127.087372 228.453517 
L 127.087372 223.418483 
L 128.829186 223.418483 
L 128.829186 218.383448 
L 131.078016 218.383448 
L 131.078016 213.348414 
L 135.298389 213.348414 
L 135.298389 209.991724 
L 135.568632 209.991724 
L 135.568632 206.635034 
L 136.385386 206.635034 
L 136.385386 203.278345 
L 141.825656 203.278345 
L 141.825656 199.921655 
L 141.953481 199.921655 
L 141.953481 196.564966 
L 146.562769 196.564966 
L 146.562769 193.208276 
L 148.292143 193.208276 
L 148.292143 189.851586 
L 149.495789 189.851586 
L 149.495789 186.494897 
L 155.371001 186.494897 
L 155.371001 184.816552 
L 156.68689 184.816552 
L 156.68689 181.459862 
L 157.419468 181.459862 
L 157.419468 179.781517 
L 161.869254 179.781517 
L 161.869254 174.746483 
L 164.965852 174.746483 
L 164.965852 169.711448 
L 167.279159 169.711448 
L 167.279159 168.033103 
L 169.62392 168.033103 
L 169.62392 166.354759 
L 172.263447 166.354759 
L 172.263447 164.676414 
L 176.41529 164.676414 
L 176.41529 159.641379 
L 179.141427 159.641379 
L 179.141427 154.606345 
L 180.959205 154.606345 
L 180.959205 149.57131 
L 182.628923 149.57131 
L 182.628923 146.214621 
L 190.251464 146.214621 
L 190.251464 142.857931 
L 195.053509 142.857931 
L 195.053509 141.179586 
L 196.588243 141.179586 
L 196.588243 139.501241 
L 198.867407 139.501241 
L 198.867407 137.822897 
L 204.864291 137.822897 
L 204.864291 132.787862 
L 207.850066 132.787862 
L 207.850066 127.752828 
L 209.214037 127.752828 
L 209.214037 122.717793 
L 212.938145 122.717793 
L 212.938145 121.039448 
L 216.656452 121.039448 
L 216.656452 119.361103 
L 219.956201 119.361103 
L 219.956201 116.004414 
L 220.58962 116.004414 
L 220.58962 110.969379 
L 224.232442 110.969379 
L 224.232442 105.934345 
L 227.287535 105.934345 
L 227.287535 102.577655 
L 231.609814 102.577655 
L 231.609814 99.220966 
L 233.091024 99.220966 
L 233.091024 97.542621 
L 233.634801 97.542621 
L 233.634801 94.185931 
L 239.797057 94.185931 
L 239.797057 89.150897 
L 240.299963 89.150897 
L 240.362728 84.115862 
L 244.552025 84.115862 
L 244.552025 82.437517 
L 247.178312 82.437517 
L 247.178312 79.080828 
L 250.584199 79.080828 
L 250.584199 77.402483 
L 253.152738 77.402483 
L 253.152738 72.367448 
L 254.575617 72.367448 
L 254.575617 67.332414 
L 259.380423 67.332414 
L 259.380423 63.975724 
L 273.338264 63.975724 
L 273.338264 58.94069 
L 281.232227 58.94069 
L 281.232227 55.584 
L 288.274763 55.584 
L 288.274763 52.22731 
L 295.989448 52.22731 
L 295.989448 50.548966 
L 298.926353 50.548966 
L 298.926353 47.192276 
L 308.266838 47.192276 
L 308.266838 42.157241 
L 360.8064 42.157241 
L 360.8064 42.157241 
" style="fill: none; stroke: #f5deb3; stroke-width: 4; stroke-linecap: square"/>
   </g>
   <g id="line2d_2">
    <defs>
     <path id="m63ce6e586d" d="M 0 7.778175 
L 7.778175 0 
L 0 -7.778175 
L -7.778175 0 
z
" style="stroke: #f5deb3; stroke-width: 1.5; stroke-linejoin: miter"/>
    </defs>
    <g>
     <use xlink:href="#m63ce6e586d" x="81.696354" y="275.447172" style="fill: #f5deb3; stroke: #f5deb3; stroke-width: 1.5; stroke-linejoin: miter"/>
     <use xlink:href="#m63ce6e586d" x="146.562769" y="193.208276" style="fill: #f5deb3; stroke: #f5deb3; stroke-width: 1.5; stroke-linejoin: miter"/>
     <use xlink:href="#m63ce6e586d" x="219.956201" y="119.361103" style="fill: #f5deb3; stroke: #f5deb3; stroke-width: 1.5; stroke-linejoin: miter"/>
     <use xlink:href="#m63ce6e586d" x="273.338264" y="63.975724" style="fill: #f5deb3; stroke: #f5deb3; stroke-width: 1.5; stroke-linejoin: miter"/>
     <use xlink:href="#m63ce6e586d" x="308.266838" y="42.157241" style="fill: #f5deb3; stroke: #f5deb3; stroke-width: 1.5; stroke-linejoin: miter"/>
     <use xlink:href="#m63ce6e586d" x="360.8064" y="42.157241" style="fill: #f5deb3; stroke: #f5deb3; stroke-width: 1.5; stroke-linejoin: miter"/>
    </g>
   </g>
   <g id="line2d_3">
    <path style="fill: none; stroke: #f5deb3; stroke-width: 4; stroke-linecap: square"/>
    <g/>
   </g>
   <g id="line2d_4">
    <path d="M 360.8064 42.157241 
L 380.514816 12.75264 
" style="fill: none; stroke: #f5deb3; stroke-width: 4; stroke-linecap: square"/>
    <g>
     <use xlink:href="#m63ce6e586d" x="360.8064" y="42.157241" style="fill: #f5deb3; stroke: #f5deb3; stroke-width: 1.5; stroke-linejoin: miter"/>
     <use xlink:href="#m63ce6e586d" x="380.514816" y="12.75264" style="fill: #f5deb3; stroke: #f5deb3; stroke-width: 1.5; stroke-linejoin: miter"/>
    </g>
   </g>
   <g id="matplotlib.axis_1">
    <g id="xtick_1">
     <g id="line2d_5">
      <path d="M 57.6 298.944 
L 57.6 6.912 
" clip-path="url(#pdbc3e041ed)" style="fill: none; stroke: #b0b0b0; stroke-width: 0.8; stroke-linecap: square"/>
     </g>
     <g id="line2d_6">
      <defs>
       <path id="m08b76192f2" d="M 0 0 
L 0 3.5 
" style="stroke: #000000; stroke-width: 0.8"/>
      </defs>
      <g>
       <use xlink:href="#m08b76192f2" x="57.6" y="298.944" style="stroke: #000000; stroke-width: 0.8"/>
      </g>
     </g>
     <g id="text_1">
      <!-- 0 -->
      <g transform="translate(52.191875 318.861344)scale(0.17 -0.17)">
       <defs>
        <path id="DejaVuSans-30" d="M 2034 4250 
Q 1547 4250 1301 3770 
Q 1056 3291 1056 2328 
Q 1056 1369 1301 889 
Q 1547 409 2034 409 
Q 2525 409 2770 889 
Q 3016 1369 3016 2328 
Q 3016 3291 2770 3770 
Q 2525 4250 2034 4250 
z
M 2034 4750 
Q 2819 4750 3233 4129 
Q 3647 3509 3647 2328 
Q 3647 1150 3233 529 
Q 2819 -91 2034 -91 
Q 1250 -91 836 529 
Q 422 1150 422 2328 
Q 422 3509 836 4129 
Q 1250 4750 2034 4750 
z
" transform="scale(0.015625)"/>
       </defs>
       <use xlink:href="#DejaVuSans-30"/>
      </g>
     </g>
    </g>
    <g id="xtick_2">
     <g id="line2d_7">
      <path d="M 144.2304 298.944 
L 144.2304 6.912 
" clip-path="url(#pdbc3e041ed)" style="fill: none; stroke: #b0b0b0; stroke-width: 0.8; stroke-linecap: square"/>
     </g>
     <g id="line2d_8">
      <g>
       <use xlink:href="#m08b76192f2" x="144.2304" y="298.944" style="stroke: #000000; stroke-width: 0.8"/>
      </g>
     </g>
     <g id="text_2">
      <!-- 2 -->
      <g transform="translate(138.822275 318.861344)scale(0.17 -0.17)">
       <defs>
        <path id="DejaVuSans-32" d="M 1228 531 
L 3431 531 
L 3431 0 
L 469 0 
L 469 531 
Q 828 903 1448 1529 
Q 2069 2156 2228 2338 
Q 2531 2678 2651 2914 
Q 2772 3150 2772 3378 
Q 2772 3750 2511 3984 
Q 2250 4219 1831 4219 
Q 1534 4219 1204 4116 
Q 875 4013 500 3803 
L 500 4441 
Q 881 4594 1212 4672 
Q 1544 4750 1819 4750 
Q 2544 4750 2975 4387 
Q 3406 4025 3406 3419 
Q 3406 3131 3298 2873 
Q 3191 2616 2906 2266 
Q 2828 2175 2409 1742 
Q 1991 1309 1228 531 
z
" transform="scale(0.015625)"/>
       </defs>
       <use xlink:href="#DejaVuSans-32"/>
      </g>
     </g>
    </g>
    <g id="xtick_3">
     <g id="line2d_9">
      <path d="M 230.8608 298.944 
L 230.8608 6.912 
" clip-path="url(#pdbc3e041ed)" style="fill: none; stroke: #b0b0b0; stroke-width: 0.8; stroke-linecap: square"/>
     </g>
     <g id="line2d_10">
      <g>
       <use xlink:href="#m08b76192f2" x="230.8608" y="298.944" style="stroke: #000000; stroke-width: 0.8"/>
      </g>
     </g>
     <g id="text_3">
      <!-- 4 -->
      <g transform="translate(225.452675 318.861344)scale(0.17 -0.17)">
       <defs>
        <path id="DejaVuSans-34" d="M 2419 4116 
L 825 1625 
L 2419 1625 
L 2419 4116 
z
M 2253 4666 
L 3047 4666 
L 3047 1625 
L 3713 1625 
L 3713 1100 
L 3047 1100 
L 3047 0 
L 2419 0 
L 2419 1100 
L 313 1100 
L 313 1709 
L 2253 4666 
z
" transform="scale(0.015625)"/>
       </defs>
       <use xlink:href="#DejaVuSans-34"/>
      </g>
     </g>
    </g>
    <g id="xtick_4">
     <g id="line2d_11">
      <path d="M 317.4912 298.944 
L 317.4912 6.912 
" clip-path="url(#pdbc3e041ed)" style="fill: none; stroke: #b0b0b0; stroke-width: 0.8; stroke-linecap: square"/>
     </g>
     <g id="line2d_12">
      <g>
       <use xlink:href="#m08b76192f2" x="317.4912" y="298.944" style="stroke: #000000; stroke-width: 0.8"/>
      </g>
     </g>
     <g id="text_4">
      <!-- 6 -->
      <g transform="translate(312.083075 318.861344)scale(0.17 -0.17)">
       <defs>
        <path id="DejaVuSans-36" d="M 2113 2584 
Q 1688 2584 1439 2293 
Q 1191 2003 1191 1497 
Q 1191 994 1439 701 
Q 1688 409 2113 409 
Q 2538 409 2786 701 
Q 3034 994 3034 1497 
Q 3034 2003 2786 2293 
Q 2538 2584 2113 2584 
z
M 3366 4563 
L 3366 3988 
Q 3128 4100 2886 4159 
Q 2644 4219 2406 4219 
Q 1781 4219 1451 3797 
Q 1122 3375 1075 2522 
Q 1259 2794 1537 2939 
Q 1816 3084 2150 3084 
Q 2853 3084 3261 2657 
Q 3669 2231 3669 1497 
Q 3669 778 3244 343 
Q 2819 -91 2113 -91 
Q 1303 -91 875 529 
Q 447 1150 447 2328 
Q 447 3434 972 4092 
Q 1497 4750 2381 4750 
Q 2619 4750 2861 4703 
Q 3103 4656 3366 4563 
z
" transform="scale(0.015625)"/>
       </defs>
       <use xlink:href="#DejaVuSans-36"/>
      </g>
     </g>
    </g>
    <g id="xtick_5">
     <g id="line2d_13">
      <path d="M 100.9152 298.944 
L 100.9152 6.912 
" clip-path="url(#pdbc3e041ed)" style="fill: none; stroke: #b0b0b0; stroke-width: 0.8; stroke-linecap: square"/>
     </g>
     <g id="line2d_14">
      <defs>
       <path id="m535e724c8e" d="M 0 0 
L 0 2 
" style="stroke: #000000; stroke-width: 0.6"/>
      </defs>
      <g>
       <use xlink:href="#m535e724c8e" x="100.9152" y="298.944" style="stroke: #000000; stroke-width: 0.6"/>
      </g>
     </g>
    </g>
    <g id="xtick_6">
     <g id="line2d_15">
      <path d="M 187.5456 298.944 
L 187.5456 6.912 
" clip-path="url(#pdbc3e041ed)" style="fill: none; stroke: #b0b0b0; stroke-width: 0.8; stroke-linecap: square"/>
     </g>
     <g id="line2d_16">
      <g>
       <use xlink:href="#m535e724c8e" x="187.5456" y="298.944" style="stroke: #000000; stroke-width: 0.6"/>
      </g>
     </g>
    </g>
    <g id="xtick_7">
     <g id="line2d_17">
      <path d="M 274.176 298.944 
L 274.176 6.912 
" clip-path="url(#pdbc3e041ed)" style="fill: none; stroke: #b0b0b0; stroke-width: 0.8; stroke-linecap: square"/>
     </g>
     <g id="line2d_18">
      <g>
       <use xlink:href="#m535e724c8e" x="274.176" y="298.944" style="stroke: #000000; stroke-width: 0.6"/>
      </g>
     </g>
    </g>
    <g id="xtick_8">
     <g id="line2d_19">
      <path d="M 360.8064 298.944 
L 360.8064 6.912 
" clip-path="url(#pdbc3e041ed)" style="fill: none; stroke: #b0b0b0; stroke-width: 0.8; stroke-linecap: square"/>
     </g>
     <g id="line2d_20">
      <g>
       <use xlink:href="#m535e724c8e" x="360.8064" y="298.944" style="stroke: #000000; stroke-width: 0.6"/>
      </g>
     </g>
    </g>
    <g id="text_5">
     <!-- log10(# f-evals / dimension) -->
     <g transform="translate(88.823278 339.314156)scale(0.17 -0.17)">
      <defs>
       <path id="DejaVuSans-6c" d="M 603 4863 
L 1178 4863 
L 1178 0 
L 603 0 
L 603 4863 
z
" transform="scale(0.015625)"/>
       <path id="DejaVuSans-6f" d="M 1959 3097 
Q 1497 3097 1228 2736 
Q 959 2375 959 1747 
Q 959 1119 1226 758 
Q 1494 397 1959 397 
Q 2419 397 2687 759 
Q 2956 1122 2956 1747 
Q 2956 2369 2687 2733 
Q 2419 3097 1959 3097 
z
M 1959 3584 
Q 2709 3584 3137 3096 
Q 3566 2609 3566 1747 
Q 3566 888 3137 398 
Q 2709 -91 1959 -91 
Q 1206 -91 779 398 
Q 353 888 353 1747 
Q 353 2609 779 3096 
Q 1206 3584 1959 3584 
z
" transform="scale(0.015625)"/>
       <path id="DejaVuSans-67" d="M 2906 1791 
Q 2906 2416 2648 2759 
Q 2391 3103 1925 3103 
Q 1463 3103 1205 2759 
Q 947 2416 947 1791 
Q 947 1169 1205 825 
Q 1463 481 1925 481 
Q 2391 481 2648 825 
Q 2906 1169 2906 1791 
z
M 3481 434 
Q 3481 -459 3084 -895 
Q 2688 -1331 1869 -1331 
Q 1566 -1331 1297 -1286 
Q 1028 -1241 775 -1147 
L 775 -588 
Q 1028 -725 1275 -790 
Q 1522 -856 1778 -856 
Q 2344 -856 2625 -561 
Q 2906 -266 2906 331 
L 2906 616 
Q 2728 306 2450 153 
Q 2172 0 1784 0 
Q 1141 0 747 490 
Q 353 981 353 1791 
Q 353 2603 747 3093 
Q 1141 3584 1784 3584 
Q 2172 3584 2450 3431 
Q 2728 3278 2906 2969 
L 2906 3500 
L 3481 3500 
L 3481 434 
z
" transform="scale(0.015625)"/>
       <path id="DejaVuSans-31" d="M 794 531 
L 1825 531 
L 1825 4091 
L 703 3866 
L 703 4441 
L 1819 4666 
L 2450 4666 
L 2450 531 
L 3481 531 
L 3481 0 
L 794 0 
L 794 531 
z
" transform="scale(0.015625)"/>
       <path id="DejaVuSans-28" d="M 1984 4856 
Q 1566 4138 1362 3434 
Q 1159 2731 1159 2009 
Q 1159 1288 1364 580 
Q 1569 -128 1984 -844 
L 1484 -844 
Q 1016 -109 783 600 
Q 550 1309 550 2009 
Q 550 2706 781 3412 
Q 1013 4119 1484 4856 
L 1984 4856 
z
" transform="scale(0.015625)"/>
       <path id="DejaVuSans-23" d="M 3272 2816 
L 2363 2816 
L 2100 1772 
L 3016 1772 
L 3272 2816 
z
M 2803 4594 
L 2478 3297 
L 3391 3297 
L 3719 4594 
L 4219 4594 
L 3897 3297 
L 4872 3297 
L 4872 2816 
L 3775 2816 
L 3519 1772 
L 4513 1772 
L 4513 1294 
L 3397 1294 
L 3072 0 
L 2572 0 
L 2894 1294 
L 1978 1294 
L 1656 0 
L 1153 0 
L 1478 1294 
L 494 1294 
L 494 1772 
L 1594 1772 
L 1856 2816 
L 850 2816 
L 850 3297 
L 1978 3297 
L 2297 4594 
L 2803 4594 
z
" transform="scale(0.015625)"/>
       <path id="DejaVuSans-20" transform="scale(0.015625)"/>
       <path id="DejaVuSans-66" d="M 2375 4863 
L 2375 4384 
L 1825 4384 
Q 1516 4384 1395 4259 
Q 1275 4134 1275 3809 
L 1275 3500 
L 2222 3500 
L 2222 3053 
L 1275 3053 
L 1275 0 
L 697 0 
L 697 3053 
L 147 3053 
L 147 3500 
L 697 3500 
L 697 3744 
Q 697 4328 969 4595 
Q 1241 4863 1831 4863 
L 2375 4863 
z
" transform="scale(0.015625)"/>
       <path id="DejaVuSans-2d" d="M 313 2009 
L 1997 2009 
L 1997 1497 
L 313 1497 
L 313 2009 
z
" transform="scale(0.015625)"/>
       <path id="DejaVuSans-65" d="M 3597 1894 
L 3597 1613 
L 953 1613 
Q 991 1019 1311 708 
Q 1631 397 2203 397 
Q 2534 397 2845 478 
Q 3156 559 3463 722 
L 3463 178 
Q 3153 47 2828 -22 
Q 2503 -91 2169 -91 
Q 1331 -91 842 396 
Q 353 884 353 1716 
Q 353 2575 817 3079 
Q 1281 3584 2069 3584 
Q 2775 3584 3186 3129 
Q 3597 2675 3597 1894 
z
M 3022 2063 
Q 3016 2534 2758 2815 
Q 2500 3097 2075 3097 
Q 1594 3097 1305 2825 
Q 1016 2553 972 2059 
L 3022 2063 
z
" transform="scale(0.015625)"/>
       <path id="DejaVuSans-76" d="M 191 3500 
L 800 3500 
L 1894 563 
L 2988 3500 
L 3597 3500 
L 2284 0 
L 1503 0 
L 191 3500 
z
" transform="scale(0.015625)"/>
       <path id="DejaVuSans-61" d="M 2194 1759 
Q 1497 1759 1228 1600 
Q 959 1441 959 1056 
Q 959 750 1161 570 
Q 1363 391 1709 391 
Q 2188 391 2477 730 
Q 2766 1069 2766 1631 
L 2766 1759 
L 2194 1759 
z
M 3341 1997 
L 3341 0 
L 2766 0 
L 2766 531 
Q 2569 213 2275 61 
Q 1981 -91 1556 -91 
Q 1019 -91 701 211 
Q 384 513 384 1019 
Q 384 1609 779 1909 
Q 1175 2209 1959 2209 
L 2766 2209 
L 2766 2266 
Q 2766 2663 2505 2880 
Q 2244 3097 1772 3097 
Q 1472 3097 1187 3025 
Q 903 2953 641 2809 
L 641 3341 
Q 956 3463 1253 3523 
Q 1550 3584 1831 3584 
Q 2591 3584 2966 3190 
Q 3341 2797 3341 1997 
z
" transform="scale(0.015625)"/>
       <path id="DejaVuSans-73" d="M 2834 3397 
L 2834 2853 
Q 2591 2978 2328 3040 
Q 2066 3103 1784 3103 
Q 1356 3103 1142 2972 
Q 928 2841 928 2578 
Q 928 2378 1081 2264 
Q 1234 2150 1697 2047 
L 1894 2003 
Q 2506 1872 2764 1633 
Q 3022 1394 3022 966 
Q 3022 478 2636 193 
Q 2250 -91 1575 -91 
Q 1294 -91 989 -36 
Q 684 19 347 128 
L 347 722 
Q 666 556 975 473 
Q 1284 391 1588 391 
Q 1994 391 2212 530 
Q 2431 669 2431 922 
Q 2431 1156 2273 1281 
Q 2116 1406 1581 1522 
L 1381 1569 
Q 847 1681 609 1914 
Q 372 2147 372 2553 
Q 372 3047 722 3315 
Q 1072 3584 1716 3584 
Q 2034 3584 2315 3537 
Q 2597 3491 2834 3397 
z
" transform="scale(0.015625)"/>
       <path id="DejaVuSans-2f" d="M 1625 4666 
L 2156 4666 
L 531 -594 
L 0 -594 
L 1625 4666 
z
" transform="scale(0.015625)"/>
       <path id="DejaVuSans-64" d="M 2906 2969 
L 2906 4863 
L 3481 4863 
L 3481 0 
L 2906 0 
L 2906 525 
Q 2725 213 2448 61 
Q 2172 -91 1784 -91 
Q 1150 -91 751 415 
Q 353 922 353 1747 
Q 353 2572 751 3078 
Q 1150 3584 1784 3584 
Q 2172 3584 2448 3432 
Q 2725 3281 2906 2969 
z
M 947 1747 
Q 947 1113 1208 752 
Q 1469 391 1925 391 
Q 2381 391 2643 752 
Q 2906 1113 2906 1747 
Q 2906 2381 2643 2742 
Q 2381 3103 1925 3103 
Q 1469 3103 1208 2742 
Q 947 2381 947 1747 
z
" transform="scale(0.015625)"/>
       <path id="DejaVuSans-69" d="M 603 3500 
L 1178 3500 
L 1178 0 
L 603 0 
L 603 3500 
z
M 603 4863 
L 1178 4863 
L 1178 4134 
L 603 4134 
L 603 4863 
z
" transform="scale(0.015625)"/>
       <path id="DejaVuSans-6d" d="M 3328 2828 
Q 3544 3216 3844 3400 
Q 4144 3584 4550 3584 
Q 5097 3584 5394 3201 
Q 5691 2819 5691 2113 
L 5691 0 
L 5113 0 
L 5113 2094 
Q 5113 2597 4934 2840 
Q 4756 3084 4391 3084 
Q 3944 3084 3684 2787 
Q 3425 2491 3425 1978 
L 3425 0 
L 2847 0 
L 2847 2094 
Q 2847 2600 2669 2842 
Q 2491 3084 2119 3084 
Q 1678 3084 1418 2786 
Q 1159 2488 1159 1978 
L 1159 0 
L 581 0 
L 581 3500 
L 1159 3500 
L 1159 2956 
Q 1356 3278 1631 3431 
Q 1906 3584 2284 3584 
Q 2666 3584 2933 3390 
Q 3200 3197 3328 2828 
z
" transform="scale(0.015625)"/>
       <path id="DejaVuSans-6e" d="M 3513 2113 
L 3513 0 
L 2938 0 
L 2938 2094 
Q 2938 2591 2744 2837 
Q 2550 3084 2163 3084 
Q 1697 3084 1428 2787 
Q 1159 2491 1159 1978 
L 1159 0 
L 581 0 
L 581 3500 
L 1159 3500 
L 1159 2956 
Q 1366 3272 1645 3428 
Q 1925 3584 2291 3584 
Q 2894 3584 3203 3211 
Q 3513 2838 3513 2113 
z
" transform="scale(0.015625)"/>
       <path id="DejaVuSans-29" d="M 513 4856 
L 1013 4856 
Q 1481 4119 1714 3412 
Q 1947 2706 1947 2009 
Q 1947 1309 1714 600 
Q 1481 -109 1013 -844 
L 513 -844 
Q 928 -128 1133 580 
Q 1338 1288 1338 2009 
Q 1338 2731 1133 3434 
Q 928 4138 513 4856 
z
" transform="scale(0.015625)"/>
      </defs>
      <use xlink:href="#DejaVuSans-6c"/>
      <use xlink:href="#DejaVuSans-6f" x="27.783203"/>
      <use xlink:href="#DejaVuSans-67" x="88.964844"/>
      <use xlink:href="#DejaVuSans-31" x="152.441406"/>
      <use xlink:href="#DejaVuSans-30" x="216.064453"/>
      <use xlink:href="#DejaVuSans-28" x="279.6875"/>
      <use xlink:href="#DejaVuSans-23" x="318.701172"/>
      <use xlink:href="#DejaVuSans-20" x="402.490234"/>
      <use xlink:href="#DejaVuSans-66" x="434.277344"/>
      <use xlink:href="#DejaVuSans-2d" x="463.982422"/>
      <use xlink:href="#DejaVuSans-65" x="500.066406"/>
      <use xlink:href="#DejaVuSans-76" x="561.589844"/>
      <use xlink:href="#DejaVuSans-61" x="620.769531"/>
      <use xlink:href="#DejaVuSans-6c" x="682.048828"/>
      <use xlink:href="#DejaVuSans-73" x="709.832031"/>
      <use xlink:href="#DejaVuSans-20" x="761.931641"/>
      <use xlink:href="#DejaVuSans-2f" x="793.71875"/>
      <use xlink:href="#DejaVuSans-20" x="827.410156"/>
      <use xlink:href="#DejaVuSans-64" x="859.197266"/>
      <use xlink:href="#DejaVuSans-69" x="922.673828"/>
      <use xlink:href="#DejaVuSans-6d" x="950.457031"/>
      <use xlink:href="#DejaVuSans-65" x="1047.869141"/>
      <use xlink:href="#DejaVuSans-6e" x="1109.392578"/>
      <use xlink:href="#DejaVuSans-73" x="1172.771484"/>
      <use xlink:href="#DejaVuSans-69" x="1224.871094"/>
      <use xlink:href="#DejaVuSans-6f" x="1252.654297"/>
      <use xlink:href="#DejaVuSans-6e" x="1313.835938"/>
      <use xlink:href="#DejaVuSans-29" x="1377.214844"/>
     </g>
    </g>
   </g>
   <g id="matplotlib.axis_2">
    <g id="ytick_1">
     <g id="line2d_21">
      <path d="M 57.6 298.944 
L 360.8064 298.944 
" clip-path="url(#pdbc3e041ed)" style="fill: none; stroke: #b0b0b0; stroke-width: 0.8; stroke-linecap: square"/>
     </g>
     <g id="line2d_22">
      <defs>
       <path id="m4b57805c89" d="M 0 0 
L -3.5 0 
" style="stroke: #000000; stroke-width: 0.8"/>
      </defs>
      <g>
       <use xlink:href="#m4b57805c89" x="57.6" y="298.944" style="stroke: #000000; stroke-width: 0.8"/>
      </g>
     </g>
     <g id="text_6">
      <!-- 0.0 -->
      <g transform="translate(25.155 305.02275)scale(0.16 -0.16)">
       <defs>
        <path id="DejaVuSans-2e" d="M 684 794 
L 1344 794 
L 1344 0 
L 684 0 
L 684 794 
z
" transform="scale(0.015625)"/>
       </defs>
       <use xlink:href="#DejaVuSans-30"/>
       <use xlink:href="#DejaVuSans-2e" x="63.623047"/>
       <use xlink:href="#DejaVuSans-30" x="95.410156"/>
      </g>
     </g>
    </g>
    <g id="ytick_2">
     <g id="line2d_23">
      <path d="M 57.6 240.5376 
L 360.8064 240.5376 
" clip-path="url(#pdbc3e041ed)" style="fill: none; stroke: #b0b0b0; stroke-width: 0.8; stroke-linecap: square"/>
     </g>
     <g id="line2d_24">
      <g>
       <use xlink:href="#m4b57805c89" x="57.6" y="240.5376" style="stroke: #000000; stroke-width: 0.8"/>
      </g>
     </g>
     <g id="text_7">
      <!-- 0.2 -->
      <g transform="translate(25.155 246.61635)scale(0.16 -0.16)">
       <use xlink:href="#DejaVuSans-30"/>
       <use xlink:href="#DejaVuSans-2e" x="63.623047"/>
       <use xlink:href="#DejaVuSans-32" x="95.410156"/>
      </g>
     </g>
    </g>
    <g id="ytick_3">
     <g id="line2d_25">
      <path d="M 57.6 182.1312 
L 360.8064 182.1312 
" clip-path="url(#pdbc3e041ed)" style="fill: none; stroke: #b0b0b0; stroke-width: 0.8; stroke-linecap: square"/>
     </g>
     <g id="line2d_26">
      <g>
       <use xlink:href="#m4b57805c89" x="57.6" y="182.1312" style="stroke: #000000; stroke-width: 0.8"/>
      </g>
     </g>
     <g id="text_8">
      <!-- 0.4 -->
      <g transform="translate(25.155 188.20995)scale(0.16 -0.16)">
       <use xlink:href="#DejaVuSans-30"/>
       <use xlink:href="#DejaVuSans-2e" x="63.623047"/>
       <use xlink:href="#DejaVuSans-34" x="95.410156"/>
      </g>
     </g>
    </g>
    <g id="ytick_4">
     <g id="line2d_27">
      <path d="M 57.6 123.7248 
L 360.8064 123.7248 
" clip-path="url(#pdbc3e041ed)" style="fill: none; stroke: #b0b0b0; stroke-width: 0.8; stroke-linecap: square"/>
     </g>
     <g id="line2d_28">
      <g>
       <use xlink:href="#m4b57805c89" x="57.6" y="123.7248" style="stroke: #000000; stroke-width: 0.8"/>
      </g>
     </g>
     <g id="text_9">
      <!-- 0.6 -->
      <g transform="translate(25.155 129.80355)scale(0.16 -0.16)">
       <use xlink:href="#DejaVuSans-30"/>
       <use xlink:href="#DejaVuSans-2e" x="63.623047"/>
       <use xlink:href="#DejaVuSans-36" x="95.410156"/>
      </g>
     </g>
    </g>
    <g id="ytick_5">
     <g id="line2d_29">
      <path d="M 57.6 65.3184 
L 360.8064 65.3184 
" clip-path="url(#pdbc3e041ed)" style="fill: none; stroke: #b0b0b0; stroke-width: 0.8; stroke-linecap: square"/>
     </g>
     <g id="line2d_30">
      <g>
       <use xlink:href="#m4b57805c89" x="57.6" y="65.3184" style="stroke: #000000; stroke-width: 0.8"/>
      </g>
     </g>
     <g id="text_10">
      <!-- 0.8 -->
      <g transform="translate(25.155 71.39715)scale(0.16 -0.16)">
       <defs>
        <path id="DejaVuSans-38" d="M 2034 2216 
Q 1584 2216 1326 1975 
Q 1069 1734 1069 1313 
Q 1069 891 1326 650 
Q 1584 409 2034 409 
Q 2484 409 2743 651 
Q 3003 894 3003 1313 
Q 3003 1734 2745 1975 
Q 2488 2216 2034 2216 
z
M 1403 2484 
Q 997 2584 770 2862 
Q 544 3141 544 3541 
Q 544 4100 942 4425 
Q 1341 4750 2034 4750 
Q 2731 4750 3128 4425 
Q 3525 4100 3525 3541 
Q 3525 3141 3298 2862 
Q 3072 2584 2669 2484 
Q 3125 2378 3379 2068 
Q 3634 1759 3634 1313 
Q 3634 634 3220 271 
Q 2806 -91 2034 -91 
Q 1263 -91 848 271 
Q 434 634 434 1313 
Q 434 1759 690 2068 
Q 947 2378 1403 2484 
z
M 1172 3481 
Q 1172 3119 1398 2916 
Q 1625 2713 2034 2713 
Q 2441 2713 2670 2916 
Q 2900 3119 2900 3481 
Q 2900 3844 2670 4047 
Q 2441 4250 2034 4250 
Q 1625 4250 1398 4047 
Q 1172 3844 1172 3481 
z
" transform="scale(0.015625)"/>
       </defs>
       <use xlink:href="#DejaVuSans-30"/>
       <use xlink:href="#DejaVuSans-2e" x="63.623047"/>
       <use xlink:href="#DejaVuSans-38" x="95.410156"/>
      </g>
     </g>
    </g>
    <g id="ytick_6">
     <g id="line2d_31">
      <path d="M 57.6 6.912 
L 360.8064 6.912 
" clip-path="url(#pdbc3e041ed)" style="fill: none; stroke: #b0b0b0; stroke-width: 0.8; stroke-linecap: square"/>
     </g>
     <g id="line2d_32">
      <g>
       <use xlink:href="#m4b57805c89" x="57.6" y="6.912" style="stroke: #000000; stroke-width: 0.8"/>
      </g>
     </g>
     <g id="text_11">
      <!-- 1.0 -->
      <g transform="translate(25.155 12.99075)scale(0.16 -0.16)">
       <use xlink:href="#DejaVuSans-31"/>
       <use xlink:href="#DejaVuSans-2e" x="63.623047"/>
       <use xlink:href="#DejaVuSans-30" x="95.410156"/>
      </g>
     </g>
    </g>
    <g id="text_12">
     <!-- Fraction of function,target pairs -->
     <g transform="translate(17.619531 287.313)rotate(-90)scale(0.17 -0.17)">
      <defs>
       <path id="DejaVuSans-46" d="M 628 4666 
L 3309 4666 
L 3309 4134 
L 1259 4134 
L 1259 2759 
L 3109 2759 
L 3109 2228 
L 1259 2228 
L 1259 0 
L 628 0 
L 628 4666 
z
" transform="scale(0.015625)"/>
       <path id="DejaVuSans-72" d="M 2631 2963 
Q 2534 3019 2420 3045 
Q 2306 3072 2169 3072 
Q 1681 3072 1420 2755 
Q 1159 2438 1159 1844 
L 1159 0 
L 581 0 
L 581 3500 
L 1159 3500 
L 1159 2956 
Q 1341 3275 1631 3429 
Q 1922 3584 2338 3584 
Q 2397 3584 2469 3576 
Q 2541 3569 2628 3553 
L 2631 2963 
z
" transform="scale(0.015625)"/>
       <path id="DejaVuSans-63" d="M 3122 3366 
L 3122 2828 
Q 2878 2963 2633 3030 
Q 2388 3097 2138 3097 
Q 1578 3097 1268 2742 
Q 959 2388 959 1747 
Q 959 1106 1268 751 
Q 1578 397 2138 397 
Q 2388 397 2633 464 
Q 2878 531 3122 666 
L 3122 134 
Q 2881 22 2623 -34 
Q 2366 -91 2075 -91 
Q 1284 -91 818 406 
Q 353 903 353 1747 
Q 353 2603 823 3093 
Q 1294 3584 2113 3584 
Q 2378 3584 2631 3529 
Q 2884 3475 3122 3366 
z
" transform="scale(0.015625)"/>
       <path id="DejaVuSans-74" d="M 1172 4494 
L 1172 3500 
L 2356 3500 
L 2356 3053 
L 1172 3053 
L 1172 1153 
Q 1172 725 1289 603 
Q 1406 481 1766 481 
L 2356 481 
L 2356 0 
L 1766 0 
Q 1100 0 847 248 
Q 594 497 594 1153 
L 594 3053 
L 172 3053 
L 172 3500 
L 594 3500 
L 594 4494 
L 1172 4494 
z
" transform="scale(0.015625)"/>
       <path id="DejaVuSans-75" d="M 544 1381 
L 544 3500 
L 1119 3500 
L 1119 1403 
Q 1119 906 1312 657 
Q 1506 409 1894 409 
Q 2359 409 2629 706 
Q 2900 1003 2900 1516 
L 2900 3500 
L 3475 3500 
L 3475 0 
L 2900 0 
L 2900 538 
Q 2691 219 2414 64 
Q 2138 -91 1772 -91 
Q 1169 -91 856 284 
Q 544 659 544 1381 
z
M 1991 3584 
L 1991 3584 
z
" transform="scale(0.015625)"/>
       <path id="DejaVuSans-2c" d="M 750 794 
L 1409 794 
L 1409 256 
L 897 -744 
L 494 -744 
L 750 256 
L 750 794 
z
" transform="scale(0.015625)"/>
       <path id="DejaVuSans-70" d="M 1159 525 
L 1159 -1331 
L 581 -1331 
L 581 3500 
L 1159 3500 
L 1159 2969 
Q 1341 3281 1617 3432 
Q 1894 3584 2278 3584 
Q 2916 3584 3314 3078 
Q 3713 2572 3713 1747 
Q 3713 922 3314 415 
Q 2916 -91 2278 -91 
Q 1894 -91 1617 61 
Q 1341 213 1159 525 
z
M 3116 1747 
Q 3116 2381 2855 2742 
Q 2594 3103 2138 3103 
Q 1681 3103 1420 2742 
Q 1159 2381 1159 1747 
Q 1159 1113 1420 752 
Q 1681 391 2138 391 
Q 2594 391 2855 752 
Q 3116 1113 3116 1747 
z
" transform="scale(0.015625)"/>
      </defs>
      <use xlink:href="#DejaVuSans-46"/>
      <use xlink:href="#DejaVuSans-72" x="50.269531"/>
      <use xlink:href="#DejaVuSans-61" x="91.382812"/>
      <use xlink:href="#DejaVuSans-63" x="152.662109"/>
      <use xlink:href="#DejaVuSans-74" x="207.642578"/>
      <use xlink:href="#DejaVuSans-69" x="246.851562"/>
      <use xlink:href="#DejaVuSans-6f" x="274.634766"/>
      <use xlink:href="#DejaVuSans-6e" x="335.816406"/>
      <use xlink:href="#DejaVuSans-20" x="399.195312"/>
      <use xlink:href="#DejaVuSans-6f" x="430.982422"/>
      <use xlink:href="#DejaVuSans-66" x="492.164062"/>
      <use xlink:href="#DejaVuSans-20" x="527.369141"/>
      <use xlink:href="#DejaVuSans-66" x="559.15625"/>
      <use xlink:href="#DejaVuSans-75" x="594.361328"/>
      <use xlink:href="#DejaVuSans-6e" x="657.740234"/>
      <use xlink:href="#DejaVuSans-63" x="721.119141"/>
      <use xlink:href="#DejaVuSans-74" x="776.099609"/>
      <use xlink:href="#DejaVuSans-69" x="815.308594"/>
      <use xlink:href="#DejaVuSans-6f" x="843.091797"/>
      <use xlink:href="#DejaVuSans-6e" x="904.273438"/>
      <use xlink:href="#DejaVuSans-2c" x="967.652344"/>
      <use xlink:href="#DejaVuSans-74" x="999.439453"/>
      <use xlink:href="#DejaVuSans-61" x="1038.648438"/>
      <use xlink:href="#DejaVuSans-72" x="1099.927734"/>
      <use xlink:href="#DejaVuSans-67" x="1139.291016"/>
      <use xlink:href="#DejaVuSans-65" x="1202.767578"/>
      <use xlink:href="#DejaVuSans-74" x="1264.291016"/>
      <use xlink:href="#DejaVuSans-20" x="1303.5"/>
      <use xlink:href="#DejaVuSans-70" x="1335.287109"/>
      <use xlink:href="#DejaVuSans-61" x="1398.763672"/>
      <use xlink:href="#DejaVuSans-69" x="1460.042969"/>
      <use xlink:href="#DejaVuSans-72" x="1487.826172"/>
      <use xlink:href="#DejaVuSans-73" x="1528.939453"/>
     </g>
    </g>
   </g>
   <g id="line2d_33">
    <defs>
     <path id="m9f67c3a0f5" d="M 0 1.5 
C 0.397805 1.5 0.77937 1.341951 1.06066 1.06066 
C 1.341951 0.77937 1.5 0.397805 1.5 0 
C 1.5 -0.397805 1.341951 -0.77937 1.06066 -1.06066 
C 0.77937 -1.341951 0.397805 -1.5 0 -1.5 
C -0.397805 -1.5 -0.77937 -1.341951 -1.06066 -1.06066 
C -1.341951 -0.77937 -1.5 -0.397805 -1.5 0 
C -1.5 0.397805 -1.341951 0.77937 -1.06066 1.06066 
C -0.77937 1.341951 -0.397805 1.5 0 1.5 
z
" style="stroke: #f5deb3"/>
    </defs>
    <g>
     <use xlink:href="#m9f67c3a0f5" x="308.266838" y="42.157241" style="fill: #f5deb3; stroke: #f5deb3"/>
     <use xlink:href="#m9f67c3a0f5" x="308.266838" y="42.157241" style="fill: #f5deb3; stroke: #f5deb3"/>
    </g>
   </g>
   <g id="line2d_34">
    <defs>
     <path id="m0563eb7a7a" d="M 0 1.5 
C 0.397805 1.5 0.77937 1.341951 1.06066 1.06066 
C 1.341951 0.77937 1.5 0.397805 1.5 0 
C 1.5 -0.397805 1.341951 -0.77937 1.06066 -1.06066 
C 0.77937 -1.341951 0.397805 -1.5 0 -1.5 
C -0.397805 -1.5 -0.77937 -1.341951 -1.06066 -1.06066 
C -1.341951 -0.77937 -1.5 -0.397805 -1.5 0 
C -1.5 0.397805 -1.341951 0.77937 -1.06066 1.06066 
C -0.77937 1.341951 -0.397805 1.5 0 1.5 
z
" style="stroke: #000080"/>
    </defs>
    <g>
     <use xlink:href="#m0563eb7a7a" x="79.480672" y="270.412138" style="fill: #000080; stroke: #000080"/>
     <use xlink:href="#m0563eb7a7a" x="79.480672" y="270.412138" style="fill: #000080; stroke: #000080"/>
    </g>
   </g>
   <g id="line2d_35">
    <path d="M 14.2848 298.944 
L 14.2848 285.685076 
L 27.323974 285.685076 
L 27.323974 284.678069 
L 34.951403 284.678069 
L 34.951403 284.174566 
L 40.363149 284.174566 
L 40.363149 283.167559 
L 44.560826 283.167559 
L 44.560826 282.496221 
L 47.990577 282.496221 
L 47.990577 281.992717 
L 50.890391 281.992717 
L 50.890391 280.98571 
L 53.402323 280.98571 
L 53.402323 279.810869 
L 55.618005 279.810869 
L 55.618005 278.803862 
L 57.6 278.803862 
L 57.6 278.468193 
L 61.029752 278.468193 
L 61.029752 277.796855 
L 62.535479 277.796855 
L 62.535479 276.957683 
L 63.929565 276.957683 
L 63.929565 276.454179 
L 65.227428 276.454179 
L 65.227428 275.950676 
L 66.441498 275.950676 
L 66.441498 275.782841 
L 67.581941 275.782841 
L 67.581941 275.111503 
L 68.65718 275.111503 
L 68.65718 274.104497 
L 69.674268 274.104497 
L 69.674268 273.768828 
L 70.639174 273.768828 
L 70.639174 273.600993 
L 71.556993 273.600993 
L 71.556993 273.265324 
L 72.432107 273.265324 
L 72.432107 272.593986 
L 73.268314 272.593986 
L 73.268314 272.426152 
L 74.836851 272.426152 
L 74.836851 272.258317 
L 75.574654 272.258317 
L 75.574654 271.922648 
L 76.284608 271.922648 
L 76.284608 271.586979 
L 76.96874 271.586979 
L 76.96874 271.25131 
L 77.628862 271.25131 
L 77.628862 270.915641 
L 79.480672 270.915641 
L 79.480672 270.412138 
L 360.8064 270.412138 
" style="fill: none; stroke: #000080; stroke-width: 1.5; stroke-linecap: square"/>
   </g>
   <g id="line2d_36">
    <defs>
     <path id="m04adf0a15a" d="M 0 6 
C 1.591219 6 3.117479 5.367802 4.242641 4.242641 
C 5.367802 3.117479 6 1.591219 6 0 
C 6 -1.591219 5.367802 -3.117479 4.242641 -4.242641 
C 3.117479 -5.367802 1.591219 -6 0 -6 
C -1.591219 -6 -3.117479 -5.367802 -4.242641 -4.242641 
C -5.367802 -3.117479 -6 -1.591219 -6 0 
C -6 1.591219 -5.367802 3.117479 -4.242641 4.242641 
C -3.117479 5.367802 -1.591219 6 0 6 
z
" style="stroke: #000080; stroke-width: 1.5"/>
    </defs>
    <g>
     <use xlink:href="#m04adf0a15a" x="79.480672" y="270.915641" style="fill-opacity: 0; stroke: #000080; stroke-width: 1.5"/>
     <use xlink:href="#m04adf0a15a" x="79.480672" y="270.915641" style="fill-opacity: 0; stroke: #000080; stroke-width: 1.5"/>
     <use xlink:href="#m04adf0a15a" x="79.480672" y="270.412138" style="fill-opacity: 0; stroke: #000080; stroke-width: 1.5"/>
     <use xlink:href="#m04adf0a15a" x="79.480672" y="270.412138" style="fill-opacity: 0; stroke: #000080; stroke-width: 1.5"/>
     <use xlink:href="#m04adf0a15a" x="79.480672" y="270.412138" style="fill-opacity: 0; stroke: #000080; stroke-width: 1.5"/>
     <use xlink:href="#m04adf0a15a" x="360.8064" y="270.412138" style="fill-opacity: 0; stroke: #000080; stroke-width: 1.5"/>
    </g>
   </g>
   <g id="line2d_37">
    <path style="fill: none; stroke: #000080; stroke-width: 1.5; stroke-linecap: square"/>
    <g/>
   </g>
   <g id="line2d_38">
    <path d="M 79.480672 270.412138 
" clip-path="url(#pdbc3e041ed)" style="fill: none; stroke: #000080; stroke-width: 1.5; stroke-linecap: square"/>
    <defs>
     <path id="mdfda586d8c" d="M -12 12 
L 12 -12 
M -12 -12 
L 12 12 
" style="stroke: #000080"/>
    </defs>
    <g clip-path="url(#pdbc3e041ed)">
     <use xlink:href="#mdfda586d8c" x="79.480672" y="270.412138" style="fill: #000080; stroke: #000080"/>
    </g>
   </g>
   <g id="line2d_39">
    <defs>
     <path id="mdf141de1d8" d="M 0 1.5 
C 0.397805 1.5 0.77937 1.341951 1.06066 1.06066 
C 1.341951 0.77937 1.5 0.397805 1.5 0 
C 1.5 -0.397805 1.341951 -0.77937 1.06066 -1.06066 
C 0.77937 -1.341951 0.397805 -1.5 0 -1.5 
C -0.397805 -1.5 -0.77937 -1.341951 -1.06066 -1.06066 
C -1.341951 -0.77937 -1.5 -0.397805 -1.5 0 
C -1.5 0.397805 -1.341951 0.77937 -1.06066 1.06066 
C -0.77937 1.341951 -0.397805 1.5 0 1.5 
z
" style="stroke: #ff00ff"/>
    </defs>
    <g>
     <use xlink:href="#mdf141de1d8" x="274.120669" y="138.494234" style="fill: #ff00ff; stroke: #ff00ff"/>
     <use xlink:href="#mdf141de1d8" x="274.120669" y="138.494234" style="fill: #ff00ff; stroke: #ff00ff"/>
    </g>
   </g>
   <g id="line2d_40">
    <path d="M 14.2848 298.944 
L 14.2848 285.685076 
L 27.323974 285.685076 
L 27.323974 285.349407 
L 34.951403 285.349407 
L 34.951403 284.3424 
L 44.560826 284.3424 
L 44.560826 283.335393 
L 47.990577 283.335393 
L 47.990577 282.83189 
L 50.890391 282.83189 
L 50.890391 281.489214 
L 53.402323 281.489214 
L 53.402323 281.153545 
L 55.618005 281.153545 
L 55.618005 280.98571 
L 57.6 280.98571 
L 57.6 280.817876 
L 62.535479 280.817876 
L 62.535479 279.978703 
L 63.929565 279.978703 
L 63.929565 279.810869 
L 67.581941 279.810869 
L 67.581941 279.307366 
L 70.639174 279.307366 
L 70.639174 278.971697 
L 71.556993 278.971697 
L 71.556993 278.803862 
L 72.432107 278.803862 
L 72.432107 278.636028 
L 73.268314 278.636028 
L 73.268314 278.468193 
L 75.574654 278.468193 
L 75.574654 277.96469 
L 76.284608 277.96469 
L 76.284608 277.461186 
L 78.266603 277.461186 
L 78.266603 277.293352 
L 78.88343 277.293352 
L 78.88343 277.125517 
L 80.059535 277.125517 
L 80.059535 276.789848 
L 82.713442 276.789848 
L 82.713442 276.622014 
L 84.142855 276.622014 
L 84.142855 276.454179 
L 84.596168 276.454179 
L 84.596168 275.782841 
L 85.038813 275.782841 
L 85.038813 275.615007 
L 86.712053 275.615007 
L 86.712053 275.447172 
L 87.1081 275.447172 
L 87.1081 274.943669 
L 87.495981 274.943669 
L 87.495981 274.775834 
L 89.323782 274.775834 
L 89.323782 274.608 
L 90.007914 274.608 
L 90.007914 274.440166 
L 93.381595 274.440166 
L 93.381595 273.936662 
L 93.934916 273.936662 
L 93.934916 273.768828 
L 94.205591 273.768828 
L 94.205591 273.433159 
L 95.752617 273.433159 
L 95.752617 273.265324 
L 96.241256 273.265324 
L 96.241256 273.09749 
L 96.717523 273.09749 
L 96.717523 272.761821 
L 97.410051 272.761821 
L 97.410051 272.426152 
L 97.857967 272.426152 
L 97.857967 272.258317 
L 98.510456 272.258317 
L 98.510456 272.090483 
L 99.14107 272.090483 
L 99.14107 271.754814 
L 100.726138 271.754814 
L 100.726138 271.586979 
L 100.9152 271.586979 
L 100.9152 271.419145 
L 101.471247 271.419145 
L 101.471247 271.25131 
L 102.011329 271.25131 
L 102.011329 270.747807 
L 102.708132 270.747807 
L 102.708132 270.579972 
L 102.878374 270.579972 
L 102.878374 270.412138 
L 103.214303 270.412138 
L 103.214303 270.244303 
L 103.544339 270.244303 
L 103.544339 269.908634 
L 103.707211 269.908634 
L 103.707211 269.7408 
L 104.344952 269.7408 
L 104.344952 269.572966 
L 105.112877 269.572966 
L 105.112877 269.237297 
L 105.705415 269.237297 
L 105.705415 269.069462 
L 105.850679 269.069462 
L 105.850679 268.901628 
L 106.137884 268.901628 
L 106.137884 268.565959 
L 106.42077 268.565959 
L 106.42077 268.398124 
L 106.837279 268.398124 
L 106.837279 268.062455 
L 106.974091 268.062455 
L 106.974091 267.726786 
L 107.5116 267.726786 
L 107.5116 267.558952 
L 107.643612 267.558952 
L 107.643612 267.391117 
L 108.162584 267.391117 
L 108.162584 267.223283 
L 108.29012 267.223283 
L 108.29012 266.887614 
L 108.416798 266.887614 
L 108.416798 266.719779 
L 109.400633 266.719779 
L 109.400633 266.551945 
L 109.520071 266.551945 
L 109.520071 266.38411 
L 109.638757 266.38411 
L 109.638757 266.216276 
L 109.756698 266.216276 
L 109.756698 266.048441 
L 109.873904 266.048441 
L 109.873904 265.880607 
L 110.221204 265.880607 
L 110.221204 265.544938 
L 110.897141 265.544938 
L 111.007473 265.209269 
L 111.762192 265.209269 
L 111.86758 264.8736 
L 112.283321 264.8736 
L 112.283321 264.370097 
L 112.589207 264.370097 
L 112.589207 264.202262 
L 112.890198 264.202262 
L 112.890198 264.034428 
L 113.954374 264.034428 
L 113.954374 263.866593 
L 114.418881 263.866593 
L 114.510421 263.530924 
L 114.7824 263.530924 
L 114.872193 263.195255 
L 115.139028 263.195255 
L 115.139028 263.027421 
L 115.575511 263.027421 
L 115.575511 262.523917 
L 115.747307 262.523917 
L 115.83262 262.188248 
L 116.170056 262.188248 
L 116.170056 262.020414 
L 116.746385 262.020414 
L 116.746385 261.684745 
L 117.1475 261.684745 
L 117.1475 261.51691 
L 117.462345 261.51691 
L 117.462345 261.181241 
L 117.617813 261.181241 
L 117.617813 261.013407 
L 117.924947 261.013407 
L 117.924947 260.845572 
L 118.376446 260.845572 
L 118.376446 260.677738 
L 118.671535 260.677738 
L 118.671535 260.509903 
L 118.889854 260.509903 
L 118.889854 260.342069 
L 119.034004 260.342069 
L 119.034004 260.174234 
L 119.319033 260.174234 
L 119.319033 260.0064 
L 121.329295 260.0064 
L 121.329295 259.838566 
L 121.706797 259.838566 
L 121.706797 259.502897 
L 122.259215 259.502897 
L 122.259215 259.167228 
L 122.618682 259.167228 
L 122.618682 258.663724 
L 122.795872 258.663724 
L 122.795872 258.49589 
L 125.47606 258.49589 
L 125.47606 258.160221 
L 131.820186 258.160221 
L 131.820186 257.992386 
L 133.086488 257.992386 
L 133.086488 257.824552 
L 133.289492 257.824552 
L 133.289492 257.488883 
L 134.993495 257.488883 
L 134.993495 257.153214 
L 135.717106 257.153214 
L 135.717106 256.985379 
L 136.184497 256.985379 
L 136.184497 256.817545 
L 137.168148 256.817545 
L 137.222833 256.481876 
L 138.258593 256.481876 
L 138.258593 256.146207 
L 139.362521 256.146207 
L 139.362521 255.810538 
L 140.611586 255.810538 
L 140.702573 255.474869 
L 141.106655 255.474869 
L 141.106655 255.307034 
L 142.185595 255.307034 
L 142.185595 254.971366 
L 142.804452 254.971366 
L 142.905644 254.467862 
L 143.324805 254.467862 
L 143.324805 254.300028 
L 143.462475 254.300028 
L 143.48206 253.293021 
L 144.639767 253.293021 
L 144.676545 252.621683 
L 144.950106 252.621683 
L 145.022388 252.118179 
L 145.344267 252.118179 
L 145.450347 251.614676 
L 145.590864 251.614676 
L 145.590864 251.446841 
L 145.93763 251.446841 
L 146.006223 250.943338 
L 146.142663 250.943338 
L 146.142663 250.775503 
L 146.429353 250.775503 
L 146.512849 250.104166 
L 146.612557 250.104166 
L 146.612557 249.936331 
L 147.006187 249.936331 
L 147.006187 249.432828 
L 147.135588 249.432828 
L 147.167799 248.929324 
L 147.565858 248.929324 
L 147.581606 248.425821 
L 147.831805 248.425821 
L 147.831805 248.257986 
L 148.03267 248.257986 
L 148.139946 247.922317 
L 148.155221 247.922317 
L 148.155221 247.586648 
L 148.458151 247.586648 
L 148.458151 247.250979 
L 148.771063 247.250979 
L 148.771063 247.083145 
L 148.947561 247.083145 
L 148.947561 246.411807 
L 149.281288 246.411807 
L 149.381693 245.908303 
L 149.438827 245.908303 
L 149.438827 245.740469 
L 149.79204 245.740469 
L 149.79204 245.572634 
L 150.193627 245.572634 
L 150.221009 244.901297 
L 150.330141 244.901297 
L 150.398028 244.565628 
L 150.62703 244.565628 
L 150.72052 244.229959 
L 150.773735 244.229959 
L 150.773735 243.89429 
L 151.037576 243.89429 
L 151.037576 243.726455 
L 151.194122 243.726455 
L 151.258968 243.222952 
L 151.336488 243.222952 
L 151.439354 242.887283 
L 151.490576 242.887283 
L 151.490576 242.719448 
L 151.643413 242.719448 
L 151.694084 242.383779 
L 151.795018 242.383779 
L 151.845283 241.880276 
L 151.932924 241.880276 
L 151.932924 241.544607 
L 152.377312 241.544607 
L 152.377312 241.376772 
L 152.655828 241.376772 
L 152.691854 241.041103 
L 153.01302 241.041103 
L 153.107137 240.5376 
L 153.798392 240.5376 
L 153.798392 240.369766 
L 153.978516 240.369766 
L 154.056781 239.530593 
L 154.090224 239.530593 
L 154.090224 239.362759 
L 154.278618 239.362759 
L 154.344662 239.02709 
L 154.454223 239.02709 
L 154.454223 238.859255 
L 154.595705 238.859255 
L 154.595705 238.691421 
L 154.746889 238.691421 
L 154.768388 238.355752 
L 155.256201 238.355752 
L 155.298028 237.516579 
L 155.391799 237.516579 
L 155.412574 236.845241 
L 155.995211 236.845241 
L 155.995211 236.509572 
L 156.165543 236.509572 
L 156.215349 236.173903 
L 156.570108 236.173903 
L 156.599372 235.838234 
L 157.080512 235.838234 
L 157.137431 235.502566 
L 157.222487 235.502566 
L 157.316545 234.831228 
L 157.363398 234.831228 
L 157.438121 234.495559 
L 157.549652 234.495559 
L 157.549652 234.327724 
L 157.688143 234.327724 
L 157.69734 233.992055 
L 157.807349 233.992055 
L 157.807349 233.824221 
L 158.365703 233.824221 
L 158.454228 233.320717 
L 158.52475 233.320717 
L 158.52475 233.152883 
L 159.122267 233.152883 
L 159.130788 232.817214 
L 159.451784 232.817214 
L 159.451784 232.481545 
L 159.626854 232.481545 
L 159.701388 231.642372 
L 159.800309 231.642372 
L 159.800309 231.474538 
L 159.955879 231.474538 
L 159.996606 230.971034 
L 160.215018 230.971034 
L 160.215018 230.299697 
L 160.383158 230.299697 
L 160.486497 229.796193 
L 160.565603 229.796193 
L 160.667947 229.124855 
L 160.82432 229.124855 
L 160.909774 228.453517 
L 160.963953 228.453517 
L 161.071844 227.950014 
L 161.278189 227.950014 
L 161.376738 227.44651 
L 161.489811 227.44651 
L 161.55733 226.607338 
L 161.751035 226.607338 
L 161.832391 226.271669 
L 161.920743 226.271669 
L 161.920743 226.103834 
L 162.074367 226.103834 
L 162.132562 225.768166 
L 162.205054 225.768166 
L 162.205054 225.432497 
L 162.549177 225.432497 
L 162.613005 224.761159 
L 163.005365 224.761159 
L 163.026155 224.257655 
L 163.239651 224.257655 
L 163.348901 223.921986 
L 163.498092 223.921986 
L 163.498092 223.754152 
L 163.672897 223.754152 
L 163.726358 222.914979 
L 163.879217 222.914979 
L 163.905675 222.411476 
L 164.089846 222.411476 
L 164.135608 222.075807 
L 164.336942 222.075807 
L 164.394992 221.404469 
L 164.739583 221.404469 
L 164.846771 220.733131 
L 164.909539 220.733131 
L 165.009535 219.893959 
L 165.127593 219.893959 
L 165.127593 219.726124 
L 165.562313 219.726124 
L 165.562313 219.55829 
L 165.695002 219.55829 
L 165.695002 219.390455 
L 165.945747 219.390455 
L 165.945747 219.222621 
L 166.099311 219.222621 
L 166.099311 218.886952 
L 166.239959 218.886952 
L 166.280784 218.383448 
L 166.552624 218.383448 
L 166.581313 217.544276 
L 166.877116 217.544276 
L 166.950346 216.537269 
L 167.16834 216.537269 
L 167.245982 215.865931 
L 167.602324 215.865931 
L 167.602324 215.698097 
L 168.010586 215.698097 
L 168.074246 215.026759 
L 168.200924 215.026759 
L 168.300609 214.187586 
L 168.493229 214.187586 
L 168.550116 213.012745 
L 169.309158 213.012745 
L 169.309158 212.677076 
L 169.457359 212.677076 
L 169.550619 211.3344 
L 169.619042 211.3344 
L 169.619042 211.166566 
L 169.851766 211.166566 
L 169.851766 210.495228 
L 169.967056 210.495228 
L 170.019663 210.159559 
L 170.15291 210.159559 
L 170.247512 209.656055 
L 170.294635 209.656055 
L 170.294635 209.488221 
L 170.472634 209.488221 
L 170.551723 208.984717 
L 170.607351 208.984717 
L 170.607351 208.816883 
L 170.901288 208.816883 
L 170.901288 208.481214 
L 171.023928 208.481214 
L 171.096228 207.306372 
L 171.150271 207.306372 
L 171.20416 206.4672 
L 171.537509 206.4672 
L 171.629799 205.795862 
L 171.73036 205.795862 
L 171.73036 205.628028 
L 171.990192 205.628028 
L 171.990192 205.292359 
L 172.440637 205.292359 
L 172.549496 204.95669 
L 172.682617 204.95669 
L 172.790088 204.285352 
L 173.125069 204.285352 
L 173.125069 204.117517 
L 173.362455 204.117517 
L 173.44623 203.278345 
L 173.711047 203.278345 
L 173.711047 202.942676 
L 173.917919 202.942676 
L 173.917919 202.607007 
L 174.218295 202.607007 
L 174.294547 202.103503 
L 174.366702 202.103503 
L 174.438582 201.432166 
L 174.652586 201.432166 
L 174.652586 201.264331 
L 174.956244 201.264331 
L 175.051511 200.425159 
L 175.280369 200.425159 
L 175.280369 200.08949 
L 175.662797 200.08949 
L 175.71932 199.585986 
L 175.828352 199.585986 
L 175.828352 199.418152 
L 176.645031 199.418152 
L 176.668523 198.746814 
L 177.135565 198.746814 
L 177.135565 198.411145 
L 177.262725 198.411145 
L 177.269223 197.739807 
L 177.552933 197.739807 
L 177.581709 197.068469 
L 177.674134 197.068469 
L 177.674134 196.900634 
L 178.154375 196.900634 
L 178.154375 196.7328 
L 178.37926 196.7328 
L 178.37926 196.564966 
L 179.206011 196.564966 
L 179.220658 196.229297 
L 179.588927 196.229297 
L 179.588927 195.893628 
L 179.749051 195.893628 
L 179.749051 195.557959 
L 180.062466 195.557959 
L 180.062466 195.22229 
L 180.428504 195.22229 
L 180.518912 194.550952 
L 180.695726 194.550952 
L 180.695726 194.383117 
L 180.884301 194.383117 
L 180.92714 193.879614 
L 181.258501 193.879614 
L 181.300497 193.37611 
L 181.694851 193.37611 
L 181.694851 193.040441 
L 182.178947 193.040441 
L 182.178947 192.872607 
L 183.537433 192.872607 
L 183.537433 192.536938 
L 183.736572 192.536938 
L 183.736572 192.201269 
L 183.922225 192.201269 
L 183.922225 191.8656 
L 184.943154 191.8656 
L 184.949634 191.529931 
L 186.188522 191.529931 
L 186.188522 191.362097 
L 186.309445 191.362097 
L 186.309445 191.194262 
L 186.437579 191.194262 
L 186.437579 191.026428 
L 187.086689 191.026428 
L 187.086689 190.690759 
L 187.971526 190.690759 
L 187.971526 190.35509 
L 188.893811 190.35509 
L 188.893811 190.019421 
L 189.396588 190.019421 
L 189.396588 189.683752 
L 189.834712 189.683752 
L 189.834712 189.348083 
L 189.964184 189.348083 
L 189.964184 189.180248 
L 190.096057 189.180248 
L 190.096057 189.012414 
L 190.308398 189.012414 
L 190.308398 188.844579 
L 190.721255 188.844579 
L 190.721255 188.50891 
L 191.192 188.50891 
L 191.192 188.341076 
L 191.535964 188.341076 
L 191.535964 188.005407 
L 191.936417 188.005407 
L 191.936417 187.837572 
L 192.130543 187.837572 
L 192.165892 187.501903 
L 192.857853 187.501903 
L 192.857853 187.334069 
L 193.014634 187.334069 
L 193.014634 186.9984 
L 193.611305 186.9984 
L 193.611305 186.830566 
L 193.972999 186.830566 
L 193.972999 186.662731 
L 194.275327 186.662731 
L 194.275327 186.327062 
L 194.518414 186.327062 
L 194.572873 185.823559 
L 194.83772 185.823559 
L 194.937037 185.320055 
L 195.544317 185.320055 
L 195.610598 184.816552 
L 195.74003 184.816552 
L 195.74003 184.648717 
L 196.252586 184.648717 
L 196.252586 184.480883 
L 196.713453 184.480883 
L 196.713453 184.145214 
L 196.935153 184.145214 
L 196.936295 183.809545 
L 199.147662 183.809545 
L 199.147662 183.473876 
L 199.319468 183.473876 
L 199.319468 183.306041 
L 199.592125 183.306041 
L 199.592125 183.138207 
L 199.716647 183.138207 
L 199.716647 182.802538 
L 200.250743 182.802538 
L 200.329089 182.466869 
L 200.424193 182.466869 
L 200.424193 182.299034 
L 200.577248 182.299034 
L 200.577248 182.1312 
L 200.702915 182.1312 
L 200.702915 181.795531 
L 200.914827 181.795531 
L 200.942533 181.459862 
L 201.096022 181.459862 
L 201.096022 181.292028 
L 201.326194 181.292028 
L 201.326194 180.956359 
L 201.473009 180.956359 
L 201.473009 180.62069 
L 201.600873 180.62069 
L 201.614235 180.285021 
L 201.788848 180.285021 
L 201.788848 180.117186 
L 202.178277 180.117186 
L 202.178277 179.781517 
L 202.477485 179.781517 
L 202.477485 179.445848 
L 202.814664 179.445848 
L 202.814664 179.278014 
L 202.957813 179.278014 
L 202.957813 179.110179 
L 203.253948 179.110179 
L 203.253948 178.942345 
L 203.762813 178.942345 
L 203.762813 178.606676 
L 204.039591 178.606676 
L 204.123941 178.271007 
L 204.411618 178.271007 
L 204.411618 178.103172 
L 204.653338 178.103172 
L 204.725177 177.767503 
L 204.992713 177.767503 
L 205.103259 177.264 
L 205.526041 177.264 
L 205.54556 176.928331 
L 205.715313 176.928331 
L 205.715313 176.760497 
L 206.587009 176.760497 
L 206.587009 176.424828 
L 206.957959 176.424828 
L 206.957959 176.256993 
L 207.629518 176.256993 
L 207.629518 176.089159 
L 208.490427 176.089159 
L 208.490427 175.75349 
L 209.089967 175.75349 
L 209.089967 175.585655 
L 209.490826 175.585655 
L 209.490826 175.417821 
L 210.256548 175.417821 
L 210.256548 175.249986 
L 211.407444 175.249986 
L 211.407444 175.082152 
L 211.570754 175.082152 
L 211.570754 174.914317 
L 212.034441 174.914317 
L 212.034441 174.746483 
L 212.251701 174.746483 
L 212.251701 174.578648 
L 212.910811 174.578648 
L 212.910811 174.242979 
L 213.155398 174.242979 
L 213.155398 174.075145 
L 213.345844 174.075145 
L 213.345844 173.90731 
L 213.563184 173.90731 
L 213.563184 173.739476 
L 214.367629 173.739476 
L 214.367629 173.403807 
L 214.930965 173.403807 
L 214.994472 172.732469 
L 215.389927 172.732469 
L 215.470674 172.3968 
L 215.631134 172.3968 
L 215.698223 172.061131 
L 216.00942 172.061131 
L 216.00942 171.893297 
L 216.924319 171.893297 
L 216.924319 171.725462 
L 217.312143 171.725462 
L 217.312143 171.557628 
L 217.673562 171.557628 
L 217.673562 171.389793 
L 218.041559 171.389793 
L 218.041559 171.054124 
L 218.40833 171.054124 
L 218.40833 170.718455 
L 218.749116 170.718455 
L 218.749116 170.550621 
L 219.027111 170.550621 
L 219.027111 170.382786 
L 219.480347 170.382786 
L 219.558038 169.879283 
L 220.305273 169.879283 
L 220.357293 169.207945 
L 220.574025 169.207945 
L 220.574025 168.872276 
L 220.761599 168.872276 
L 220.782183 168.536607 
L 221.239459 168.536607 
L 221.239459 168.368772 
L 221.482896 168.368772 
L 221.496208 168.033103 
L 221.910029 168.033103 
L 221.910029 167.697434 
L 222.362584 167.697434 
L 222.362584 167.5296 
L 222.813166 167.5296 
L 222.843151 167.026097 
L 223.113727 167.026097 
L 223.113727 166.858262 
L 223.348802 166.858262 
L 223.348802 166.690428 
L 223.496298 166.690428 
L 223.514932 166.354759 
L 223.616952 166.354759 
L 223.656171 166.01909 
L 224.377444 166.01909 
L 224.377444 165.851255 
L 225.515404 165.851255 
L 225.609395 165.515586 
L 225.628535 165.515586 
L 225.628535 165.347752 
L 225.752593 165.347752 
L 225.847865 165.012083 
L 226.238878 165.012083 
L 226.238878 164.844248 
L 226.950382 164.844248 
L 226.990634 164.340745 
L 227.478769 164.340745 
L 227.478769 164.17291 
L 227.674543 164.17291 
L 227.674543 164.005076 
L 227.99031 164.005076 
L 227.99031 163.837241 
L 228.249063 163.837241 
L 228.249063 163.669407 
L 228.713163 163.669407 
L 228.771483 163.333738 
L 228.84638 163.333738 
L 228.84638 163.165903 
L 229.341272 163.165903 
L 229.446618 162.158897 
L 229.565087 162.158897 
L 229.565087 161.991062 
L 230.191572 161.991062 
L 230.191572 161.823228 
L 230.314365 161.823228 
L 230.314365 161.655393 
L 230.90702 161.655393 
L 230.90702 161.487559 
L 231.022074 161.487559 
L 231.022074 161.15189 
L 231.261883 161.15189 
L 231.370583 160.816221 
L 231.418856 160.816221 
L 231.418856 160.648386 
L 232.325097 160.648386 
L 232.325097 160.480552 
L 232.497462 160.480552 
L 232.503152 160.144883 
L 233.640644 160.144883 
L 233.703178 159.641379 
L 233.835496 159.641379 
L 233.906028 159.137876 
L 234.002898 159.137876 
L 234.002898 158.802207 
L 234.588382 158.802207 
L 234.588382 158.634372 
L 234.996069 158.634372 
L 235.080887 158.130869 
L 235.244764 158.130869 
L 235.244764 157.963034 
L 235.83632 157.963034 
L 235.83632 157.7952 
L 236.710376 157.7952 
L 236.790978 157.459531 
L 237.072424 157.459531 
L 237.168585 156.788193 
L 237.272954 156.788193 
L 237.272954 156.452524 
L 237.522001 156.452524 
L 237.522001 156.116855 
L 238.455216 156.116855 
L 238.510037 155.613352 
L 238.610232 155.613352 
L 238.610232 155.277683 
L 238.938291 155.277683 
L 238.953102 154.774179 
L 239.2417 154.774179 
L 239.2417 154.606345 
L 239.420255 154.606345 
L 239.524158 153.935007 
L 239.717341 153.935007 
L 239.717341 153.599338 
L 240.268615 153.599338 
L 240.268615 153.431503 
L 240.890263 153.431503 
L 240.890263 153.263669 
L 241.301417 153.263669 
L 241.37901 152.760166 
L 241.532496 152.760166 
L 241.532496 152.592331 
L 241.870682 152.592331 
L 241.955461 152.088828 
L 242.107437 152.088828 
L 242.107437 151.920993 
L 242.337264 151.920993 
L 242.337264 151.585324 
L 242.911489 151.585324 
L 242.911489 151.41749 
L 243.433641 151.41749 
L 243.433641 151.249655 
L 243.698937 151.249655 
L 243.800386 150.913986 
L 243.942065 150.913986 
L 243.942065 150.746152 
L 244.154088 150.746152 
L 244.154088 150.578317 
L 244.828271 150.578317 
L 244.828271 150.410483 
L 246.074058 150.410483 
L 246.074058 150.242648 
L 246.655624 150.242648 
L 246.655624 150.074814 
L 246.950561 150.074814 
L 246.950561 149.906979 
L 247.938891 149.906979 
L 247.938891 149.739145 
L 248.709939 149.739145 
L 248.709939 149.57131 
L 249.535372 149.57131 
L 249.535372 149.403476 
L 249.748241 149.403476 
L 249.748241 149.235641 
L 249.904191 149.235641 
L 249.904191 149.067807 
L 250.051671 149.067807 
L 250.051671 148.899972 
L 250.540702 148.899972 
L 250.540702 148.732138 
L 251.092315 148.732138 
L 251.196945 148.396469 
L 251.332132 148.396469 
L 251.332132 148.228634 
L 251.844018 148.228634 
L 251.844018 148.0608 
L 252.623827 148.0608 
L 252.623827 147.892966 
L 252.898888 147.892966 
L 252.898888 147.725131 
L 253.858885 147.725131 
L 253.858885 147.389462 
L 255.654466 147.389462 
L 255.654466 147.221628 
L 257.657044 147.221628 
L 257.657044 146.885959 
L 258.403489 146.885959 
L 258.403489 146.718124 
L 259.866166 146.718124 
L 259.866166 146.55029 
L 259.986177 146.55029 
L 259.986177 146.382455 
L 260.856907 146.382455 
L 260.856907 146.214621 
L 261.707405 146.214621 
L 261.707405 146.046786 
L 262.272736 146.046786 
L 262.272736 145.878952 
L 262.540882 145.878952 
L 262.540882 145.711117 
L 263.114162 145.711117 
L 263.114162 145.375448 
L 263.427004 145.375448 
L 263.427004 145.207614 
L 263.801754 145.207614 
L 263.801754 144.871945 
L 264.217061 144.871945 
L 264.217061 144.536276 
L 264.362656 144.536276 
L 264.362656 144.368441 
L 265.228892 144.368441 
L 265.326133 143.864938 
L 265.60497 143.864938 
L 265.60497 143.529269 
L 266.557073 143.529269 
L 266.557073 143.361434 
L 267.197515 143.361434 
L 267.197515 143.1936 
L 268.54753 143.1936 
L 268.548951 142.522262 
L 268.660555 142.522262 
L 268.660555 142.354428 
L 269.289056 142.354428 
L 269.289056 142.186593 
L 269.420798 142.186593 
L 269.420798 141.850924 
L 269.566267 141.850924 
L 269.566267 141.68309 
L 269.691267 141.68309 
L 269.691267 141.515255 
L 270.142815 141.515255 
L 270.142815 141.347421 
L 270.600232 141.347421 
L 270.639685 140.843917 
L 270.822004 140.843917 
L 270.926105 140.004745 
L 271.049501 140.004745 
L 271.072566 139.165572 
L 271.335922 139.165572 
L 271.335922 138.997738 
L 273.305784 138.997738 
L 273.305784 138.829903 
L 273.663676 138.829903 
L 273.663676 138.662069 
L 274.120669 138.662069 
L 274.120669 138.494234 
L 360.8064 138.494234 
L 360.8064 138.494234 
" style="fill: none; stroke: #ff00ff; stroke-width: 1.5; stroke-linecap: square"/>
   </g>
   <g id="line2d_41">
    <defs>
     <path id="m0cd92ef759" d="M 0 8.485281 
L 5.091169 0 
L 0 -8.485281 
L -5.091169 0 
z
" style="stroke: #ff00ff; stroke-width: 1.5; stroke-linejoin: miter"/>
    </defs>
    <g>
     <use xlink:href="#m0cd92ef759" x="133.289492" y="257.824552" style="fill-opacity: 0; stroke: #ff00ff; stroke-width: 1.5; stroke-linejoin: miter"/>
     <use xlink:href="#m0cd92ef759" x="194.937037" y="185.320055" style="fill-opacity: 0; stroke: #ff00ff; stroke-width: 1.5; stroke-linejoin: miter"/>
     <use xlink:href="#m0cd92ef759" x="252.898888" y="147.725131" style="fill-opacity: 0; stroke: #ff00ff; stroke-width: 1.5; stroke-linejoin: miter"/>
     <use xlink:href="#m0cd92ef759" x="274.120669" y="138.494234" style="fill-opacity: 0; stroke: #ff00ff; stroke-width: 1.5; stroke-linejoin: miter"/>
     <use xlink:href="#m0cd92ef759" x="274.120669" y="138.494234" style="fill-opacity: 0; stroke: #ff00ff; stroke-width: 1.5; stroke-linejoin: miter"/>
     <use xlink:href="#m0cd92ef759" x="360.8064" y="138.494234" style="fill-opacity: 0; stroke: #ff00ff; stroke-width: 1.5; stroke-linejoin: miter"/>
    </g>
   </g>
   <g id="line2d_42">
    <path style="fill: none; stroke: #ff00ff; stroke-width: 1.5; stroke-linecap: square"/>
    <g/>
   </g>
   <g id="line2d_43">
    <path d="M 274.176019 138.494234 
" clip-path="url(#pdbc3e041ed)" style="fill: none; stroke: #ff00ff; stroke-width: 1.5; stroke-linecap: square"/>
    <defs>
     <path id="ma6f8cc98f2" d="M -12 12 
L 12 -12 
M -12 -12 
L 12 12 
" style="stroke: #ff00ff"/>
    </defs>
    <g clip-path="url(#pdbc3e041ed)">
     <use xlink:href="#ma6f8cc98f2" x="274.176019" y="138.494234" style="fill: #ff00ff; stroke: #ff00ff"/>
    </g>
   </g>
   <g id="line2d_44">
    <defs>
     <path id="ma8cd489b16" d="M 0 1.5 
C 0.397805 1.5 0.77937 1.341951 1.06066 1.06066 
C 1.341951 0.77937 1.5 0.397805 1.5 0 
C 1.5 -0.397805 1.341951 -0.77937 1.06066 -1.06066 
C 0.77937 -1.341951 0.397805 -1.5 0 -1.5 
C -0.397805 -1.5 -0.77937 -1.341951 -1.06066 -1.06066 
C -1.341951 -0.77937 -1.5 -0.397805 -1.5 0 
C -1.5 0.397805 -1.341951 0.77937 -1.06066 1.06066 
C -0.77937 1.341951 -0.397805 1.5 0 1.5 
z
" style="stroke: #6495ed"/>
    </defs>
    <g>
     <use xlink:href="#ma8cd489b16" x="113.765312" y="233.656386" style="fill: #6495ed; stroke: #6495ed"/>
     <use xlink:href="#ma8cd489b16" x="113.765312" y="233.656386" style="fill: #6495ed; stroke: #6495ed"/>
    </g>
   </g>
   <g id="line2d_45">
    <path d="M 14.2848 298.944 
L 14.2848 296.929986 
L 27.323974 296.929986 
L 27.323974 296.090814 
L 34.951403 296.090814 
L 34.951403 293.908966 
L 40.363149 293.908966 
L 40.363149 291.559283 
L 44.560826 291.559283 
L 44.560826 290.216607 
L 47.990577 290.216607 
L 47.990577 289.880938 
L 50.890391 289.880938 
L 50.890391 289.377434 
L 53.402323 289.377434 
L 53.402323 288.873931 
L 55.618005 288.873931 
L 55.618005 288.706097 
L 57.6 288.706097 
L 57.6 288.202593 
L 59.392932 288.202593 
L 59.392932 287.866924 
L 62.535479 287.866924 
L 62.535479 287.531255 
L 63.929565 287.531255 
L 63.929565 285.85291 
L 65.227428 285.85291 
L 65.227428 285.181572 
L 66.441498 285.181572 
L 66.441498 284.510234 
L 70.639174 284.510234 
L 70.639174 284.174566 
L 71.556993 284.174566 
L 71.556993 283.671062 
L 72.432107 283.671062 
L 72.432107 283.503228 
L 73.268314 283.503228 
L 73.268314 282.999724 
L 74.836851 282.999724 
L 74.836851 282.496221 
L 75.574654 282.496221 
L 75.574654 282.160552 
L 76.96874 282.160552 
L 76.96874 281.657048 
L 77.628862 281.657048 
L 77.628862 280.98571 
L 78.266603 280.98571 
L 78.266603 280.817876 
L 78.88343 280.817876 
L 78.88343 280.650041 
L 79.480672 280.650041 
L 79.480672 280.314372 
L 81.166416 280.314372 
L 81.166416 280.146538 
L 81.696354 280.146538 
L 81.696354 279.810869 
L 82.211771 279.810869 
L 82.211771 279.643034 
L 82.713442 279.643034 
L 82.713442 279.307366 
L 83.678349 279.307366 
L 83.678349 279.139531 
L 85.471281 279.139531 
L 85.471281 278.971697 
L 87.1081 278.971697 
L 87.1081 278.803862 
L 88.248544 278.803862 
L 88.248544 278.636028 
L 89.668958 278.636028 
L 89.668958 278.468193 
L 91.305777 278.468193 
L 91.305777 278.300359 
L 91.616719 278.300359 
L 91.616719 277.96469 
L 91.922605 277.96469 
L 91.922605 277.629021 
L 92.519847 277.629021 
L 92.519847 277.293352 
L 93.098709 277.293352 
L 93.098709 277.125517 
L 93.934916 277.125517 
L 93.934916 276.957683 
L 94.205591 276.957683 
L 94.205591 276.789848 
L 95.752617 276.789848 
L 95.752617 276.454179 
L 95.998523 276.454179 
L 95.998523 276.11851 
L 96.717523 276.11851 
L 96.717523 275.782841 
L 97.635342 275.782841 
L 97.635342 275.447172 
L 100.147275 275.447172 
L 100.147275 275.111503 
L 100.342215 275.111503 
L 100.342215 274.943669 
L 100.535156 274.943669 
L 100.535156 274.608 
L 100.726138 274.608 
L 100.726138 274.272331 
L 101.287718 274.272331 
L 101.287718 274.104497 
L 101.471247 274.104497 
L 101.471247 273.936662 
L 101.833019 273.936662 
L 101.833019 273.600993 
L 102.011329 273.600993 
L 102.011329 273.433159 
L 102.187964 273.433159 
L 102.187964 272.929655 
L 102.878374 272.929655 
L 102.878374 272.426152 
L 103.047088 272.426152 
L 103.047088 270.915641 
L 103.214303 270.915641 
L 103.214303 268.23029 
L 103.380045 268.23029 
L 103.380045 266.887614 
L 103.544339 266.887614 
L 103.544339 264.537931 
L 103.707211 264.537931 
L 103.707211 262.523917 
L 103.868684 262.523917 
L 103.868684 261.013407 
L 104.028784 261.013407 
L 104.028784 258.663724 
L 104.187532 258.663724 
L 104.187532 256.64971 
L 104.344952 256.64971 
L 104.344952 256.146207 
L 104.501065 256.146207 
L 104.501065 254.803531 
L 104.655893 254.803531 
L 104.655893 253.796524 
L 104.809458 253.796524 
L 104.809458 252.621683 
L 104.961779 252.621683 
L 104.961779 251.78251 
L 105.112877 251.78251 
L 105.112877 250.775503 
L 105.26277 250.775503 
L 105.26277 250.104166 
L 105.411479 250.104166 
L 105.411479 249.600662 
L 105.559021 249.600662 
L 105.559021 248.929324 
L 105.705415 248.929324 
L 105.705415 248.090152 
L 105.850679 248.090152 
L 105.850679 247.922317 
L 105.99483 247.922317 
L 105.99483 247.250979 
L 106.137884 247.250979 
L 106.137884 246.579641 
L 106.279859 246.579641 
L 106.279859 245.908303 
L 106.42077 245.908303 
L 106.42077 245.236966 
L 106.560633 245.236966 
L 106.560633 244.565628 
L 106.699465 244.565628 
L 106.699465 244.229959 
L 106.837279 244.229959 
L 106.837279 243.726455 
L 106.974091 243.726455 
L 106.974091 243.222952 
L 107.109915 243.222952 
L 107.109915 242.719448 
L 107.244765 242.719448 
L 107.244765 242.04811 
L 107.378656 242.04811 
L 107.378656 241.880276 
L 107.5116 241.880276 
L 107.5116 241.712441 
L 107.643612 241.712441 
L 107.643612 241.376772 
L 107.904887 241.376772 
L 107.904887 241.208938 
L 108.034177 241.208938 
L 108.034177 240.873269 
L 108.29012 240.873269 
L 108.29012 240.369766 
L 108.542628 240.369766 
L 108.542628 240.034097 
L 108.667622 240.034097 
L 108.667622 239.194924 
L 108.915146 239.194924 
L 108.915146 238.859255 
L 109.159456 238.859255 
L 109.159456 238.523586 
L 109.400633 238.523586 
L 109.400633 238.187917 
L 109.638757 238.187917 
L 109.638757 238.020083 
L 109.873904 238.020083 
L 109.873904 237.852248 
L 109.990385 237.852248 
L 109.990385 237.684414 
L 110.106149 237.684414 
L 110.106149 237.516579 
L 110.335561 237.516579 
L 110.335561 237.18091 
L 110.449226 237.18091 
L 110.449226 237.013076 
L 110.562208 237.013076 
L 110.562208 236.509572 
L 110.897141 236.509572 
L 110.897141 236.341738 
L 111.226215 236.341738 
L 111.334639 236.006069 
L 111.442442 236.006069 
L 111.442442 235.6704 
L 112.385837 235.6704 
L 112.385837 235.334731 
L 112.589207 235.334731 
L 112.589207 234.999062 
L 112.989468 234.999062 
L 112.989468 234.663393 
L 113.57433 234.663393 
L 113.57433 234.327724 
L 113.765312 234.327724 
L 113.765312 233.656386 
L 360.8064 233.656386 
L 360.8064 233.656386 
" style="fill: none; stroke: #6495ed; stroke-width: 1.5; stroke-linecap: square"/>
   </g>
   <g id="line2d_46">
    <defs>
     <path id="m880a546b1c" d="M -0 6 
L 6 -6 
L -6 -6 
z
" style="stroke: #6495ed; stroke-width: 1.5; stroke-linejoin: miter"/>
    </defs>
    <g>
     <use xlink:href="#m880a546b1c" x="79.480672" y="280.314372" style="fill-opacity: 0; stroke: #6495ed; stroke-width: 1.5; stroke-linejoin: miter"/>
     <use xlink:href="#m880a546b1c" x="113.765312" y="234.327724" style="fill-opacity: 0; stroke: #6495ed; stroke-width: 1.5; stroke-linejoin: miter"/>
     <use xlink:href="#m880a546b1c" x="113.765312" y="233.656386" style="fill-opacity: 0; stroke: #6495ed; stroke-width: 1.5; stroke-linejoin: miter"/>
     <use xlink:href="#m880a546b1c" x="113.765312" y="233.656386" style="fill-opacity: 0; stroke: #6495ed; stroke-width: 1.5; stroke-linejoin: miter"/>
     <use xlink:href="#m880a546b1c" x="113.765312" y="233.656386" style="fill-opacity: 0; stroke: #6495ed; stroke-width: 1.5; stroke-linejoin: miter"/>
     <use xlink:href="#m880a546b1c" x="360.8064" y="233.656386" style="fill-opacity: 0; stroke: #6495ed; stroke-width: 1.5; stroke-linejoin: miter"/>
    </g>
   </g>
   <g id="line2d_47">
    <path style="fill: none; stroke: #6495ed; stroke-width: 1.5; stroke-linecap: square"/>
    <g/>
   </g>
   <g id="line2d_48">
    <path d="M 113.954374 233.656386 
" clip-path="url(#pdbc3e041ed)" style="fill: none; stroke: #6495ed; stroke-width: 1.5; stroke-linecap: square"/>
    <defs>
     <path id="m23b8c7537c" d="M -12 12 
L 12 -12 
M -12 -12 
L 12 12 
" style="stroke: #6495ed"/>
    </defs>
    <g clip-path="url(#pdbc3e041ed)">
     <use xlink:href="#m23b8c7537c" x="113.954374" y="233.656386" style="fill: #6495ed; stroke: #6495ed"/>
    </g>
   </g>
   <g id="line2d_49">
    <path d="M 360.8064 270.412138 
L 380.514816 293.10336 
" style="fill: none; stroke: #000080; stroke-width: 1.5; stroke-linecap: square"/>
    <g>
     <use xlink:href="#m04adf0a15a" x="360.8064" y="270.412138" style="fill-opacity: 0; stroke: #000080; stroke-width: 1.5"/>
     <use xlink:href="#m04adf0a15a" x="380.514816" y="293.10336" style="fill-opacity: 0; stroke: #000080; stroke-width: 1.5"/>
    </g>
   </g>
   <g id="line2d_50">
    <path d="M 360.8064 233.656386 
L 380.514816 199.65312 
" style="fill: none; stroke: #6495ed; stroke-width: 1.5; stroke-linecap: square"/>
    <g>
     <use xlink:href="#m880a546b1c" x="360.8064" y="233.656386" style="fill-opacity: 0; stroke: #6495ed; stroke-width: 1.5; stroke-linejoin: miter"/>
     <use xlink:href="#m880a546b1c" x="380.514816" y="199.65312" style="fill-opacity: 0; stroke: #6495ed; stroke-width: 1.5; stroke-linejoin: miter"/>
    </g>
   </g>
   <g id="line2d_51">
    <path d="M 360.8064 138.494234 
L 380.514816 106.20288 
" style="fill: none; stroke: #ff00ff; stroke-width: 1.5; stroke-linecap: square"/>
    <g>
     <use xlink:href="#m0cd92ef759" x="360.8064" y="138.494234" style="fill-opacity: 0; stroke: #ff00ff; stroke-width: 1.5; stroke-linejoin: miter"/>
     <use xlink:href="#m0cd92ef759" x="380.514816" y="106.20288" style="fill-opacity: 0; stroke: #ff00ff; stroke-width: 1.5; stroke-linejoin: miter"/>
    </g>
   </g>
   <g id="line2d_52">
    <path d="M 360.8064 298.944 
L 360.8064 6.912 
" style="fill: none; stroke: #000000; stroke-width: 1.5; stroke-linecap: square"/>
   </g>
   <g id="patch_3">
    <path d="M 57.6 298.944 
L 360.8064 298.944 
" style="fill: none; stroke: #000000; stroke-width: 0.8; stroke-linejoin: miter; stroke-linecap: square"/>
   </g>
   <g id="patch_4">
    <path d="M 57.6 6.912 
L 360.8064 6.912 
" style="fill: none; stroke: #000000; stroke-width: 0.8; stroke-linejoin: miter; stroke-linecap: square"/>
   </g>
   <g id="text_13">
    <!-- cma -->
    <g transform="translate(386.578944 296.966485)scale(0.14 -0.14)">
     <use xlink:href="#DejaVuSans-63"/>
     <use xlink:href="#DejaVuSans-6d" x="54.980469"/>
     <use xlink:href="#DejaVuSans-61" x="152.392578"/>
    </g>
   </g>
   <g id="text_14">
    <!-- parEgo -->
    <g transform="translate(386.578944 203.516245)scale(0.14 -0.14)">
     <defs>
      <path id="DejaVuSans-45" d="M 628 4666 
L 3578 4666 
L 3578 4134 
L 1259 4134 
L 1259 2753 
L 3481 2753 
L 3481 2222 
L 1259 2222 
L 1259 531 
L 3634 531 
L 3634 0 
L 628 0 
L 628 4666 
z
" transform="scale(0.015625)"/>
     </defs>
     <use xlink:href="#DejaVuSans-70"/>
     <use xlink:href="#DejaVuSans-61" x="63.476562"/>
     <use xlink:href="#DejaVuSans-72" x="124.755859"/>
     <use xlink:href="#DejaVuSans-45" x="165.869141"/>
     <use xlink:href="#DejaVuSans-67" x="229.052734"/>
     <use xlink:href="#DejaVuSans-6f" x="292.529297"/>
    </g>
   </g>
   <g id="text_15">
    <!-- external- -->
    <g transform="translate(386.578944 110.066005)scale(0.14 -0.14)">
     <defs>
      <path id="DejaVuSans-78" d="M 3513 3500 
L 2247 1797 
L 3578 0 
L 2900 0 
L 1881 1375 
L 863 0 
L 184 0 
L 1544 1831 
L 300 3500 
L 978 3500 
L 1906 2253 
L 2834 3500 
L 3513 3500 
z
" transform="scale(0.015625)"/>
     </defs>
     <use xlink:href="#DejaVuSans-65"/>
     <use xlink:href="#DejaVuSans-78" x="59.773438"/>
     <use xlink:href="#DejaVuSans-74" x="118.953125"/>
     <use xlink:href="#DejaVuSans-65" x="158.162109"/>
     <use xlink:href="#DejaVuSans-72" x="219.685547"/>
     <use xlink:href="#DejaVuSans-6e" x="259.048828"/>
     <use xlink:href="#DejaVuSans-61" x="322.427734"/>
     <use xlink:href="#DejaVuSans-6c" x="383.707031"/>
     <use xlink:href="#DejaVuSans-2d" x="411.490234"/>
    </g>
   </g>
   <g id="text_16">
    <!-- best 2016 -->
    <g transform="translate(386.578944 16.615765)scale(0.14 -0.14)">
     <defs>
      <path id="DejaVuSans-62" d="M 3116 1747 
Q 3116 2381 2855 2742 
Q 2594 3103 2138 3103 
Q 1681 3103 1420 2742 
Q 1159 2381 1159 1747 
Q 1159 1113 1420 752 
Q 1681 391 2138 391 
Q 2594 391 2855 752 
Q 3116 1113 3116 1747 
z
M 1159 2969 
Q 1341 3281 1617 3432 
Q 1894 3584 2278 3584 
Q 2916 3584 3314 3078 
Q 3713 2572 3713 1747 
Q 3713 922 3314 415 
Q 2916 -91 2278 -91 
Q 1894 -91 1617 61 
Q 1341 213 1159 525 
L 1159 0 
L 581 0 
L 581 4863 
L 1159 4863 
L 1159 2969 
z
" transform="scale(0.015625)"/>
     </defs>
     <use xlink:href="#DejaVuSans-62"/>
     <use xlink:href="#DejaVuSans-65" x="63.476562"/>
     <use xlink:href="#DejaVuSans-73" x="125"/>
     <use xlink:href="#DejaVuSans-74" x="177.099609"/>
     <use xlink:href="#DejaVuSans-20" x="216.308594"/>
     <use xlink:href="#DejaVuSans-32" x="248.095703"/>
     <use xlink:href="#DejaVuSans-30" x="311.71875"/>
     <use xlink:href="#DejaVuSans-31" x="375.341797"/>
     <use xlink:href="#DejaVuSans-36" x="438.964844"/>
    </g>
   </g>
   <g id="text_17">
    <!-- bbob-biobj f1, f2, f11, 10-D -->
    <g transform="translate(60.632064 17.582726)scale(0.102 -0.102)">
     <defs>
      <path id="DejaVuSans-6a" d="M 603 3500 
L 1178 3500 
L 1178 -63 
Q 1178 -731 923 -1031 
Q 669 -1331 103 -1331 
L -116 -1331 
L -116 -844 
L 38 -844 
Q 366 -844 484 -692 
Q 603 -541 603 -63 
L 603 3500 
z
M 603 4863 
L 1178 4863 
L 1178 4134 
L 603 4134 
L 603 4863 
z
" transform="scale(0.015625)"/>
      <path id="DejaVuSans-44" d="M 1259 4147 
L 1259 519 
L 2022 519 
Q 2988 519 3436 956 
Q 3884 1394 3884 2338 
Q 3884 3275 3436 3711 
Q 2988 4147 2022 4147 
L 1259 4147 
z
M 628 4666 
L 1925 4666 
Q 3281 4666 3915 4102 
Q 4550 3538 4550 2338 
Q 4550 1131 3912 565 
Q 3275 0 1925 0 
L 628 0 
L 628 4666 
z
" transform="scale(0.015625)"/>
     </defs>
     <use xlink:href="#DejaVuSans-62"/>
     <use xlink:href="#DejaVuSans-62" x="63.476562"/>
     <use xlink:href="#DejaVuSans-6f" x="126.953125"/>
     <use xlink:href="#DejaVuSans-62" x="188.134766"/>
     <use xlink:href="#DejaVuSans-2d" x="251.611328"/>
     <use xlink:href="#DejaVuSans-62" x="287.695312"/>
     <use xlink:href="#DejaVuSans-69" x="351.171875"/>
     <use xlink:href="#DejaVuSans-6f" x="378.955078"/>
     <use xlink:href="#DejaVuSans-62" x="440.136719"/>
     <use xlink:href="#DejaVuSans-6a" x="503.613281"/>
     <use xlink:href="#DejaVuSans-20" x="531.396484"/>
     <use xlink:href="#DejaVuSans-66" x="563.183594"/>
     <use xlink:href="#DejaVuSans-31" x="598.388672"/>
     <use xlink:href="#DejaVuSans-2c" x="662.011719"/>
     <use xlink:href="#DejaVuSans-20" x="693.798828"/>
     <use xlink:href="#DejaVuSans-66" x="725.585938"/>
     <use xlink:href="#DejaVuSans-32" x="760.791016"/>
     <use xlink:href="#DejaVuSans-2c" x="824.414062"/>
     <use xlink:href="#DejaVuSans-20" x="856.201172"/>
     <use xlink:href="#DejaVuSans-66" x="887.988281"/>
     <use xlink:href="#DejaVuSans-31" x="923.193359"/>
     <use xlink:href="#DejaVuSans-31" x="986.816406"/>
     <use xlink:href="#DejaVuSans-2c" x="1050.439453"/>
     <use xlink:href="#DejaVuSans-20" x="1082.226562"/>
     <use xlink:href="#DejaVuSans-31" x="1114.013672"/>
     <use xlink:href="#DejaVuSans-30" x="1177.636719"/>
     <use xlink:href="#DejaVuSans-2d" x="1241.259766"/>
     <use xlink:href="#DejaVuSans-44" x="1277.34375"/>
    </g>
    <!-- 58 targets: 1..-1.0e-4 -->
    <g transform="translate(60.632064 29.004495)scale(0.102 -0.102)">
     <defs>
      <path id="DejaVuSans-35" d="M 691 4666 
L 3169 4666 
L 3169 4134 
L 1269 4134 
L 1269 2991 
Q 1406 3038 1543 3061 
Q 1681 3084 1819 3084 
Q 2600 3084 3056 2656 
Q 3513 2228 3513 1497 
Q 3513 744 3044 326 
Q 2575 -91 1722 -91 
Q 1428 -91 1123 -41 
Q 819 9 494 109 
L 494 744 
Q 775 591 1075 516 
Q 1375 441 1709 441 
Q 2250 441 2565 725 
Q 2881 1009 2881 1497 
Q 2881 1984 2565 2268 
Q 2250 2553 1709 2553 
Q 1456 2553 1204 2497 
Q 953 2441 691 2322 
L 691 4666 
z
" transform="scale(0.015625)"/>
      <path id="DejaVuSans-3a" d="M 750 794 
L 1409 794 
L 1409 0 
L 750 0 
L 750 794 
z
M 750 3309 
L 1409 3309 
L 1409 2516 
L 750 2516 
L 750 3309 
z
" transform="scale(0.015625)"/>
     </defs>
     <use xlink:href="#DejaVuSans-35"/>
     <use xlink:href="#DejaVuSans-38" x="63.623047"/>
     <use xlink:href="#DejaVuSans-20" x="127.246094"/>
     <use xlink:href="#DejaVuSans-74" x="159.033203"/>
     <use xlink:href="#DejaVuSans-61" x="198.242188"/>
     <use xlink:href="#DejaVuSans-72" x="259.521484"/>
     <use xlink:href="#DejaVuSans-67" x="298.884766"/>
     <use xlink:href="#DejaVuSans-65" x="362.361328"/>
     <use xlink:href="#DejaVuSans-74" x="423.884766"/>
     <use xlink:href="#DejaVuSans-73" x="463.09375"/>
     <use xlink:href="#DejaVuSans-3a" x="515.193359"/>
     <use xlink:href="#DejaVuSans-20" x="548.884766"/>
     <use xlink:href="#DejaVuSans-31" x="580.671875"/>
     <use xlink:href="#DejaVuSans-2e" x="644.294922"/>
     <use xlink:href="#DejaVuSans-2e" x="676.082031"/>
     <use xlink:href="#DejaVuSans-2d" x="707.869141"/>
     <use xlink:href="#DejaVuSans-31" x="743.953125"/>
     <use xlink:href="#DejaVuSans-2e" x="807.576172"/>
     <use xlink:href="#DejaVuSans-30" x="839.363281"/>
     <use xlink:href="#DejaVuSans-65" x="902.986328"/>
     <use xlink:href="#DejaVuSans-2d" x="964.509766"/>
     <use xlink:href="#DejaVuSans-34" x="1000.59375"/>
    </g>
    <!-- 10 instances -->
    <g transform="translate(60.632064 40.426264)scale(0.102 -0.102)">
     <use xlink:href="#DejaVuSans-31"/>
     <use xlink:href="#DejaVuSans-30" x="63.623047"/>
     <use xlink:href="#DejaVuSans-20" x="127.246094"/>
     <use xlink:href="#DejaVuSans-69" x="159.033203"/>
     <use xlink:href="#DejaVuSans-6e" x="186.816406"/>
     <use xlink:href="#DejaVuSans-73" x="250.195312"/>
     <use xlink:href="#DejaVuSans-74" x="302.294922"/>
     <use xlink:href="#DejaVuSans-61" x="341.503906"/>
     <use xlink:href="#DejaVuSans-6e" x="402.783203"/>
     <use xlink:href="#DejaVuSans-63" x="466.162109"/>
     <use xlink:href="#DejaVuSans-65" x="521.142578"/>
     <use xlink:href="#DejaVuSans-73" x="582.666016"/>
    </g>
   </g>
   <g id="text_18">
    <!-- v2.6, hv-hash=ff0e71e8cd978373 -->
    <g style="fill: #808080" transform="translate(123.707887 293.943992)scale(0.1 -0.1)">
     <defs>
      <path id="DejaVuSans-68" d="M 3513 2113 
L 3513 0 
L 2938 0 
L 2938 2094 
Q 2938 2591 2744 2837 
Q 2550 3084 2163 3084 
Q 1697 3084 1428 2787 
Q 1159 2491 1159 1978 
L 1159 0 
L 581 0 
L 581 4863 
L 1159 4863 
L 1159 2956 
Q 1366 3272 1645 3428 
Q 1925 3584 2291 3584 
Q 2894 3584 3203 3211 
Q 3513 2838 3513 2113 
z
" transform="scale(0.015625)"/>
      <path id="DejaVuSans-3d" d="M 678 2906 
L 4684 2906 
L 4684 2381 
L 678 2381 
L 678 2906 
z
M 678 1631 
L 4684 1631 
L 4684 1100 
L 678 1100 
L 678 1631 
z
" transform="scale(0.015625)"/>
      <path id="DejaVuSans-37" d="M 525 4666 
L 3525 4666 
L 3525 4397 
L 1831 0 
L 1172 0 
L 2766 4134 
L 525 4134 
L 525 4666 
z
" transform="scale(0.015625)"/>
      <path id="DejaVuSans-39" d="M 703 97 
L 703 672 
Q 941 559 1184 500 
Q 1428 441 1663 441 
Q 2288 441 2617 861 
Q 2947 1281 2994 2138 
Q 2813 1869 2534 1725 
Q 2256 1581 1919 1581 
Q 1219 1581 811 2004 
Q 403 2428 403 3163 
Q 403 3881 828 4315 
Q 1253 4750 1959 4750 
Q 2769 4750 3195 4129 
Q 3622 3509 3622 2328 
Q 3622 1225 3098 567 
Q 2575 -91 1691 -91 
Q 1453 -91 1209 -44 
Q 966 3 703 97 
z
M 1959 2075 
Q 2384 2075 2632 2365 
Q 2881 2656 2881 3163 
Q 2881 3666 2632 3958 
Q 2384 4250 1959 4250 
Q 1534 4250 1286 3958 
Q 1038 3666 1038 3163 
Q 1038 2656 1286 2365 
Q 1534 2075 1959 2075 
z
" transform="scale(0.015625)"/>
      <path id="DejaVuSans-33" d="M 2597 2516 
Q 3050 2419 3304 2112 
Q 3559 1806 3559 1356 
Q 3559 666 3084 287 
Q 2609 -91 1734 -91 
Q 1441 -91 1130 -33 
Q 819 25 488 141 
L 488 750 
Q 750 597 1062 519 
Q 1375 441 1716 441 
Q 2309 441 2620 675 
Q 2931 909 2931 1356 
Q 2931 1769 2642 2001 
Q 2353 2234 1838 2234 
L 1294 2234 
L 1294 2753 
L 1863 2753 
Q 2328 2753 2575 2939 
Q 2822 3125 2822 3475 
Q 2822 3834 2567 4026 
Q 2313 4219 1838 4219 
Q 1578 4219 1281 4162 
Q 984 4106 628 3988 
L 628 4550 
Q 988 4650 1302 4700 
Q 1616 4750 1894 4750 
Q 2613 4750 3031 4423 
Q 3450 4097 3450 3541 
Q 3450 3153 3228 2886 
Q 3006 2619 2597 2516 
z
" transform="scale(0.015625)"/>
     </defs>
     <use xlink:href="#DejaVuSans-76"/>
     <use xlink:href="#DejaVuSans-32" x="59.179688"/>
     <use xlink:href="#DejaVuSans-2e" x="122.802734"/>
     <use xlink:href="#DejaVuSans-36" x="154.589844"/>
     <use xlink:href="#DejaVuSans-2c" x="218.212891"/>
     <use xlink:href="#DejaVuSans-20" x="250"/>
     <use xlink:href="#DejaVuSans-68" x="281.787109"/>
     <use xlink:href="#DejaVuSans-76" x="345.166016"/>
     <use xlink:href="#DejaVuSans-2d" x="401.720703"/>
     <use xlink:href="#DejaVuSans-68" x="437.804688"/>
     <use xlink:href="#DejaVuSans-61" x="501.183594"/>
     <use xlink:href="#DejaVuSans-73" x="562.462891"/>
     <use xlink:href="#DejaVuSans-68" x="614.5625"/>
     <use xlink:href="#DejaVuSans-3d" x="677.941406"/>
     <use xlink:href="#DejaVuSans-66" x="761.730469"/>
     <use xlink:href="#DejaVuSans-66" x="796.935547"/>
     <use xlink:href="#DejaVuSans-30" x="832.140625"/>
     <use xlink:href="#DejaVuSans-65" x="895.763672"/>
     <use xlink:href="#DejaVuSans-37" x="957.287109"/>
     <use xlink:href="#DejaVuSans-31" x="1020.910156"/>
     <use xlink:href="#DejaVuSans-65" x="1084.533203"/>
     <use xlink:href="#DejaVuSans-38" x="1146.056641"/>
     <use xlink:href="#DejaVuSans-63" x="1209.679688"/>
     <use xlink:href="#DejaVuSans-64" x="1264.660156"/>
     <use xlink:href="#DejaVuSans-39" x="1328.136719"/>
     <use xlink:href="#DejaVuSans-37" x="1391.759766"/>
     <use xlink:href="#DejaVuSans-38" x="1455.382812"/>
     <use xlink:href="#DejaVuSans-33" x="1519.005859"/>
     <use xlink:href="#DejaVuSans-37" x="1582.628906"/>
     <use xlink:href="#DejaVuSans-33" x="1646.251953"/>
    </g>
   </g>
  </g>
 </g>
 <defs>
  <clipPath id="pdbc3e041ed">
   <rect x="57.6" y="6.912" width="303.2064" height="292.032"/>
  </clipPath>
 </defs>
</svg>
