<?xml version="1.0" encoding="utf-8" standalone="no"?>
<!DOCTYPE svg PUBLIC "-//W3C//DTD SVG 1.1//EN"
  "http://www.w3.org/Graphics/SVG/1.1/DTD/svg11.dtd">
<svg xmlns:xlink="http://www.w3.org/1999/xlink" width="460.8pt" height="345.6pt" viewBox="0 0 460.8 345.6" xmlns="http://www.w3.org/2000/svg" version="1.1">
 <metadata>
  <rdf:RDF xmlns:dc="http://purl.org/dc/elements/1.1/" xmlns:cc="http://creativecommons.org/ns#" xmlns:rdf="http://www.w3.org/1999/02/22-rdf-syntax-ns#">
   <cc:Work>
    <dc:type rdf:resource="http://purl.org/dc/dcmitype/StillImage"/>
    <dc:date>2022-06-19T21:02:45.648296</dc:date>
    <dc:format>image/svg+xml</dc:format>
    <dc:creator>
     <cc:Agent>
      <dc:title>Matplotlib v3.5.1, https://matplotlib.org/</dc:title>
     </cc:Agent>
    </dc:creator>
   </cc:Work>
  </rdf:RDF>
 </metadata>
 <defs>
  <style type="text/css">*{stroke-linejoin: round; stroke-linecap: butt}</style>
 </defs>
 <g id="figure_1">
  <g id="patch_1">
   <path d="M 0 345.6 
L 460.8 345.6 
L 460.8 0 
L 0 0 
z
" style="fill: #ffffff"/>
  </g>
  <g id="axes_1">
   <g id="patch_2">
    <path d="M 57.6 298.944 
L 360.8064 298.944 
L 360.8064 6.912 
L 57.6 6.912 
z
" style="fill: #ffffff"/>
   </g>
   <g id="line2d_1">
    <path d="M 14.2848 298.944 
L 14.2848 297.685241 
L 34.951403 297.685241 
L 34.951403 295.167724 
L 40.363149 295.167724 
L 40.363149 292.650207 
L 47.990577 292.650207 
L 47.990577 291.391448 
L 57.6 291.391448 
L 57.6 288.873931 
L 65.227428 288.873931 
L 65.227428 286.356414 
L 66.441498 286.356414 
L 66.441498 283.838897 
L 74.068926 283.838897 
L 74.068926 278.803862 
L 77.628862 278.803862 
L 77.628862 276.286345 
L 82.211771 276.286345 
L 82.211771 273.768828 
L 83.678349 273.768828 
L 83.678349 272.510069 
L 90.007914 272.510069 
L 90.007914 268.733793 
L 90.668036 268.733793 
L 90.668036 267.475034 
L 93.098709 267.475034 
L 93.098709 266.216276 
L 94.205591 266.216276 
L 94.205591 264.957517 
L 98.723018 264.957517 
L 98.723018 261.181241 
L 101.287718 261.181241 
L 101.287718 258.663724 
L 103.047088 258.663724 
L 103.047088 254.887448 
L 104.344952 254.887448 
L 104.344952 252.369931 
L 110.897141 252.369931 
L 110.897141 248.593655 
L 111.54963 248.593655 
L 111.54963 246.076138 
L 112.790402 246.076138 
L 112.790402 244.817379 
L 116.253478 244.817379 
L 116.253478 243.558621 
L 122.19863 243.558621 
L 122.19863 241.041103 
L 124.535287 241.041103 
L 124.535287 238.523586 
L 125.271028 238.523586 
L 125.271028 237.264828 
L 127.731351 237.264828 
L 127.731351 234.74731 
L 130.695654 234.74731 
L 130.695654 230.971034 
L 135.388902 230.971034 
L 135.388902 229.712276 
L 135.508912 229.712276 
L 135.59842 223.418483 
L 139.240288 223.418483 
L 139.240288 220.900966 
L 142.01707 220.900966 
L 142.01707 218.383448 
L 142.206555 218.383448 
L 142.206555 214.607172 
L 145.712961 214.607172 
L 145.712961 212.089655 
L 146.108646 212.089655 
L 146.108646 209.572138 
L 148.874221 209.572138 
L 148.903591 204.537103 
L 152.181101 204.537103 
L 152.181101 202.019586 
L 153.444416 202.019586 
L 153.444416 198.24331 
L 155.339761 198.24331 
L 155.339761 195.725793 
L 157.595929 195.725793 
L 157.595929 193.208276 
L 159.224273 193.208276 
L 159.224273 191.949517 
L 160.295272 191.949517 
L 160.295272 189.432 
L 163.443978 189.432 
L 163.443978 186.914483 
L 164.536144 186.914483 
L 164.536144 185.655724 
L 166.661411 185.655724 
L 166.661411 181.879448 
L 166.984048 181.879448 
L 166.984048 179.361931 
L 170.625857 179.361931 
L 170.625857 175.585655 
L 170.841952 175.585655 
L 170.841952 174.326897 
L 174.313562 174.326897 
L 174.313562 171.809379 
L 174.585269 171.809379 
L 174.585269 170.550621 
L 176.951458 170.550621 
L 176.951458 169.291862 
L 178.46176 169.291862 
L 178.46176 165.515586 
L 185.247437 165.515586 
L 185.247437 161.73931 
L 188.56348 161.73931 
L 188.56348 157.963034 
L 189.300872 157.963034 
L 189.300872 156.704276 
L 190.689449 156.704276 
L 190.689449 155.445517 
L 193.684745 155.445517 
L 193.684745 152.928 
L 194.773779 152.928 
L 194.773779 150.410483 
L 200.593238 150.410483 
L 200.593238 146.634207 
L 201.950487 146.634207 
L 201.950487 145.375448 
L 204.364746 145.375448 
L 204.364746 144.11669 
L 209.464445 144.11669 
L 209.464445 140.340414 
L 211.514546 140.340414 
L 211.514546 136.564138 
L 212.098812 136.564138 
L 212.098812 132.787862 
L 214.88836 132.787862 
L 214.88836 131.529103 
L 216.364807 131.529103 
L 216.364807 129.011586 
L 218.966317 129.011586 
L 218.966317 127.752828 
L 219.437929 127.752828 
L 219.437929 126.494069 
L 222.992078 126.494069 
L 222.992078 125.23531 
L 225.835092 125.23531 
L 225.835092 121.459034 
L 226.564812 121.459034 
L 226.564812 117.682759 
L 227.699261 117.682759 
L 227.699261 113.906483 
L 231.10396 113.906483 
L 231.10396 110.130207 
L 231.596975 110.130207 
L 231.596975 107.61269 
L 234.030734 107.61269 
L 234.030734 105.095172 
L 235.574008 105.095172 
L 235.574008 103.836414 
L 239.314334 103.836414 
L 239.314334 101.318897 
L 240.946692 101.318897 
L 240.946692 97.542621 
L 241.852863 97.542621 
L 241.852863 95.025103 
L 242.349422 95.025103 
L 242.349422 92.507586 
L 245.7438 92.507586 
L 245.7438 91.248828 
L 249.552513 91.248828 
L 249.552513 89.990069 
L 250.350952 89.990069 
L 250.383698 86.213793 
L 250.532968 86.213793 
L 250.532968 84.955034 
L 255.327367 84.955034 
L 255.327367 81.178759 
L 256.685275 81.178759 
L 256.685275 77.402483 
L 257.397093 77.402483 
L 257.397093 73.626207 
L 259.862543 73.626207 
L 259.862543 71.10869 
L 261.743723 71.10869 
L 261.743723 68.591172 
L 265.344071 68.591172 
L 265.344071 66.073655 
L 269.124522 66.073655 
L 269.124522 62.297379 
L 269.360778 62.297379 
L 269.360778 59.779862 
L 274.454577 59.779862 
L 274.454577 57.262345 
L 275.981669 57.262345 
L 275.981669 56.003586 
L 280.594361 56.003586 
L 280.594361 54.744828 
L 283.9095 54.744828 
L 283.9095 52.22731 
L 292.029297 52.22731 
L 292.029297 48.451034 
L 292.649913 48.451034 
L 292.649913 45.933517 
L 302.055287 45.933517 
L 302.055287 42.157241 
L 360.8064 42.157241 
L 360.8064 42.157241 
" style="fill: none; stroke: #f5deb3; stroke-width: 4; stroke-linecap: square"/>
   </g>
   <g id="line2d_2">
    <defs>
     <path id="mb093b14250" d="M 0 7.778175 
L 7.778175 0 
L 0 -7.778175 
L -7.778175 0 
z
" style="stroke: #f5deb3; stroke-width: 1.5; stroke-linejoin: miter"/>
    </defs>
    <g>
     <use xlink:href="#mb093b14250" x="65.227428" y="288.873931" style="fill: #f5deb3; stroke: #f5deb3; stroke-width: 1.5; stroke-linejoin: miter"/>
     <use xlink:href="#mb093b14250" x="145.712961" y="212.089655" style="fill: #f5deb3; stroke: #f5deb3; stroke-width: 1.5; stroke-linejoin: miter"/>
     <use xlink:href="#mb093b14250" x="194.773779" y="152.928" style="fill: #f5deb3; stroke: #f5deb3; stroke-width: 1.5; stroke-linejoin: miter"/>
     <use xlink:href="#mb093b14250" x="269.124522" y="62.297379" style="fill: #f5deb3; stroke: #f5deb3; stroke-width: 1.5; stroke-linejoin: miter"/>
     <use xlink:href="#mb093b14250" x="302.055287" y="42.157241" style="fill: #f5deb3; stroke: #f5deb3; stroke-width: 1.5; stroke-linejoin: miter"/>
     <use xlink:href="#mb093b14250" x="360.8064" y="42.157241" style="fill: #f5deb3; stroke: #f5deb3; stroke-width: 1.5; stroke-linejoin: miter"/>
    </g>
   </g>
   <g id="line2d_3">
    <path style="fill: none; stroke: #f5deb3; stroke-width: 4; stroke-linecap: square"/>
    <g/>
   </g>
   <g id="line2d_4">
    <path d="M 360.8064 42.157241 
L 380.514816 12.75264 
" style="fill: none; stroke: #f5deb3; stroke-width: 4; stroke-linecap: square"/>
    <g>
     <use xlink:href="#mb093b14250" x="360.8064" y="42.157241" style="fill: #f5deb3; stroke: #f5deb3; stroke-width: 1.5; stroke-linejoin: miter"/>
     <use xlink:href="#mb093b14250" x="380.514816" y="12.75264" style="fill: #f5deb3; stroke: #f5deb3; stroke-width: 1.5; stroke-linejoin: miter"/>
    </g>
   </g>
   <g id="matplotlib.axis_1">
    <g id="xtick_1">
     <g id="line2d_5">
      <path d="M 57.6 298.944 
L 57.6 6.912 
" clip-path="url(#pc3997e235c)" style="fill: none; stroke: #b0b0b0; stroke-width: 0.8; stroke-linecap: square"/>
     </g>
     <g id="line2d_6">
      <defs>
       <path id="m4fa041247c" d="M 0 0 
L 0 3.5 
" style="stroke: #000000; stroke-width: 0.8"/>
      </defs>
      <g>
       <use xlink:href="#m4fa041247c" x="57.6" y="298.944" style="stroke: #000000; stroke-width: 0.8"/>
      </g>
     </g>
     <g id="text_1">
      <!-- 0 -->
      <g transform="translate(52.191875 318.861344)scale(0.17 -0.17)">
       <defs>
        <path id="DejaVuSans-30" d="M 2034 4250 
Q 1547 4250 1301 3770 
Q 1056 3291 1056 2328 
Q 1056 1369 1301 889 
Q 1547 409 2034 409 
Q 2525 409 2770 889 
Q 3016 1369 3016 2328 
Q 3016 3291 2770 3770 
Q 2525 4250 2034 4250 
z
M 2034 4750 
Q 2819 4750 3233 4129 
Q 3647 3509 3647 2328 
Q 3647 1150 3233 529 
Q 2819 -91 2034 -91 
Q 1250 -91 836 529 
Q 422 1150 422 2328 
Q 422 3509 836 4129 
Q 1250 4750 2034 4750 
z
" transform="scale(0.015625)"/>
       </defs>
       <use xlink:href="#DejaVuSans-30"/>
      </g>
     </g>
    </g>
    <g id="xtick_2">
     <g id="line2d_7">
      <path d="M 144.2304 298.944 
L 144.2304 6.912 
" clip-path="url(#pc3997e235c)" style="fill: none; stroke: #b0b0b0; stroke-width: 0.8; stroke-linecap: square"/>
     </g>
     <g id="line2d_8">
      <g>
       <use xlink:href="#m4fa041247c" x="144.2304" y="298.944" style="stroke: #000000; stroke-width: 0.8"/>
      </g>
     </g>
     <g id="text_2">
      <!-- 2 -->
      <g transform="translate(138.822275 318.861344)scale(0.17 -0.17)">
       <defs>
        <path id="DejaVuSans-32" d="M 1228 531 
L 3431 531 
L 3431 0 
L 469 0 
L 469 531 
Q 828 903 1448 1529 
Q 2069 2156 2228 2338 
Q 2531 2678 2651 2914 
Q 2772 3150 2772 3378 
Q 2772 3750 2511 3984 
Q 2250 4219 1831 4219 
Q 1534 4219 1204 4116 
Q 875 4013 500 3803 
L 500 4441 
Q 881 4594 1212 4672 
Q 1544 4750 1819 4750 
Q 2544 4750 2975 4387 
Q 3406 4025 3406 3419 
Q 3406 3131 3298 2873 
Q 3191 2616 2906 2266 
Q 2828 2175 2409 1742 
Q 1991 1309 1228 531 
z
" transform="scale(0.015625)"/>
       </defs>
       <use xlink:href="#DejaVuSans-32"/>
      </g>
     </g>
    </g>
    <g id="xtick_3">
     <g id="line2d_9">
      <path d="M 230.8608 298.944 
L 230.8608 6.912 
" clip-path="url(#pc3997e235c)" style="fill: none; stroke: #b0b0b0; stroke-width: 0.8; stroke-linecap: square"/>
     </g>
     <g id="line2d_10">
      <g>
       <use xlink:href="#m4fa041247c" x="230.8608" y="298.944" style="stroke: #000000; stroke-width: 0.8"/>
      </g>
     </g>
     <g id="text_3">
      <!-- 4 -->
      <g transform="translate(225.452675 318.861344)scale(0.17 -0.17)">
       <defs>
        <path id="DejaVuSans-34" d="M 2419 4116 
L 825 1625 
L 2419 1625 
L 2419 4116 
z
M 2253 4666 
L 3047 4666 
L 3047 1625 
L 3713 1625 
L 3713 1100 
L 3047 1100 
L 3047 0 
L 2419 0 
L 2419 1100 
L 313 1100 
L 313 1709 
L 2253 4666 
z
" transform="scale(0.015625)"/>
       </defs>
       <use xlink:href="#DejaVuSans-34"/>
      </g>
     </g>
    </g>
    <g id="xtick_4">
     <g id="line2d_11">
      <path d="M 317.4912 298.944 
L 317.4912 6.912 
" clip-path="url(#pc3997e235c)" style="fill: none; stroke: #b0b0b0; stroke-width: 0.8; stroke-linecap: square"/>
     </g>
     <g id="line2d_12">
      <g>
       <use xlink:href="#m4fa041247c" x="317.4912" y="298.944" style="stroke: #000000; stroke-width: 0.8"/>
      </g>
     </g>
     <g id="text_4">
      <!-- 6 -->
      <g transform="translate(312.083075 318.861344)scale(0.17 -0.17)">
       <defs>
        <path id="DejaVuSans-36" d="M 2113 2584 
Q 1688 2584 1439 2293 
Q 1191 2003 1191 1497 
Q 1191 994 1439 701 
Q 1688 409 2113 409 
Q 2538 409 2786 701 
Q 3034 994 3034 1497 
Q 3034 2003 2786 2293 
Q 2538 2584 2113 2584 
z
M 3366 4563 
L 3366 3988 
Q 3128 4100 2886 4159 
Q 2644 4219 2406 4219 
Q 1781 4219 1451 3797 
Q 1122 3375 1075 2522 
Q 1259 2794 1537 2939 
Q 1816 3084 2150 3084 
Q 2853 3084 3261 2657 
Q 3669 2231 3669 1497 
Q 3669 778 3244 343 
Q 2819 -91 2113 -91 
Q 1303 -91 875 529 
Q 447 1150 447 2328 
Q 447 3434 972 4092 
Q 1497 4750 2381 4750 
Q 2619 4750 2861 4703 
Q 3103 4656 3366 4563 
z
" transform="scale(0.015625)"/>
       </defs>
       <use xlink:href="#DejaVuSans-36"/>
      </g>
     </g>
    </g>
    <g id="xtick_5">
     <g id="line2d_13">
      <path d="M 100.9152 298.944 
L 100.9152 6.912 
" clip-path="url(#pc3997e235c)" style="fill: none; stroke: #b0b0b0; stroke-width: 0.8; stroke-linecap: square"/>
     </g>
     <g id="line2d_14">
      <defs>
       <path id="m8a6b7e9734" d="M 0 0 
L 0 2 
" style="stroke: #000000; stroke-width: 0.6"/>
      </defs>
      <g>
       <use xlink:href="#m8a6b7e9734" x="100.9152" y="298.944" style="stroke: #000000; stroke-width: 0.6"/>
      </g>
     </g>
    </g>
    <g id="xtick_6">
     <g id="line2d_15">
      <path d="M 187.5456 298.944 
L 187.5456 6.912 
" clip-path="url(#pc3997e235c)" style="fill: none; stroke: #b0b0b0; stroke-width: 0.8; stroke-linecap: square"/>
     </g>
     <g id="line2d_16">
      <g>
       <use xlink:href="#m8a6b7e9734" x="187.5456" y="298.944" style="stroke: #000000; stroke-width: 0.6"/>
      </g>
     </g>
    </g>
    <g id="xtick_7">
     <g id="line2d_17">
      <path d="M 274.176 298.944 
L 274.176 6.912 
" clip-path="url(#pc3997e235c)" style="fill: none; stroke: #b0b0b0; stroke-width: 0.8; stroke-linecap: square"/>
     </g>
     <g id="line2d_18">
      <g>
       <use xlink:href="#m8a6b7e9734" x="274.176" y="298.944" style="stroke: #000000; stroke-width: 0.6"/>
      </g>
     </g>
    </g>
    <g id="xtick_8">
     <g id="line2d_19">
      <path d="M 360.8064 298.944 
L 360.8064 6.912 
" clip-path="url(#pc3997e235c)" style="fill: none; stroke: #b0b0b0; stroke-width: 0.8; stroke-linecap: square"/>
     </g>
     <g id="line2d_20">
      <g>
       <use xlink:href="#m8a6b7e9734" x="360.8064" y="298.944" style="stroke: #000000; stroke-width: 0.6"/>
      </g>
     </g>
    </g>
    <g id="text_5">
     <!-- log10(# f-evals / dimension) -->
     <g transform="translate(88.823278 339.314156)scale(0.17 -0.17)">
      <defs>
       <path id="DejaVuSans-6c" d="M 603 4863 
L 1178 4863 
L 1178 0 
L 603 0 
L 603 4863 
z
" transform="scale(0.015625)"/>
       <path id="DejaVuSans-6f" d="M 1959 3097 
Q 1497 3097 1228 2736 
Q 959 2375 959 1747 
Q 959 1119 1226 758 
Q 1494 397 1959 397 
Q 2419 397 2687 759 
Q 2956 1122 2956 1747 
Q 2956 2369 2687 2733 
Q 2419 3097 1959 3097 
z
M 1959 3584 
Q 2709 3584 3137 3096 
Q 3566 2609 3566 1747 
Q 3566 888 3137 398 
Q 2709 -91 1959 -91 
Q 1206 -91 779 398 
Q 353 888 353 1747 
Q 353 2609 779 3096 
Q 1206 3584 1959 3584 
z
" transform="scale(0.015625)"/>
       <path id="DejaVuSans-67" d="M 2906 1791 
Q 2906 2416 2648 2759 
Q 2391 3103 1925 3103 
Q 1463 3103 1205 2759 
Q 947 2416 947 1791 
Q 947 1169 1205 825 
Q 1463 481 1925 481 
Q 2391 481 2648 825 
Q 2906 1169 2906 1791 
z
M 3481 434 
Q 3481 -459 3084 -895 
Q 2688 -1331 1869 -1331 
Q 1566 -1331 1297 -1286 
Q 1028 -1241 775 -1147 
L 775 -588 
Q 1028 -725 1275 -790 
Q 1522 -856 1778 -856 
Q 2344 -856 2625 -561 
Q 2906 -266 2906 331 
L 2906 616 
Q 2728 306 2450 153 
Q 2172 0 1784 0 
Q 1141 0 747 490 
Q 353 981 353 1791 
Q 353 2603 747 3093 
Q 1141 3584 1784 3584 
Q 2172 3584 2450 3431 
Q 2728 3278 2906 2969 
L 2906 3500 
L 3481 3500 
L 3481 434 
z
" transform="scale(0.015625)"/>
       <path id="DejaVuSans-31" d="M 794 531 
L 1825 531 
L 1825 4091 
L 703 3866 
L 703 4441 
L 1819 4666 
L 2450 4666 
L 2450 531 
L 3481 531 
L 3481 0 
L 794 0 
L 794 531 
z
" transform="scale(0.015625)"/>
       <path id="DejaVuSans-28" d="M 1984 4856 
Q 1566 4138 1362 3434 
Q 1159 2731 1159 2009 
Q 1159 1288 1364 580 
Q 1569 -128 1984 -844 
L 1484 -844 
Q 1016 -109 783 600 
Q 550 1309 550 2009 
Q 550 2706 781 3412 
Q 1013 4119 1484 4856 
L 1984 4856 
z
" transform="scale(0.015625)"/>
       <path id="DejaVuSans-23" d="M 3272 2816 
L 2363 2816 
L 2100 1772 
L 3016 1772 
L 3272 2816 
z
M 2803 4594 
L 2478 3297 
L 3391 3297 
L 3719 4594 
L 4219 4594 
L 3897 3297 
L 4872 3297 
L 4872 2816 
L 3775 2816 
L 3519 1772 
L 4513 1772 
L 4513 1294 
L 3397 1294 
L 3072 0 
L 2572 0 
L 2894 1294 
L 1978 1294 
L 1656 0 
L 1153 0 
L 1478 1294 
L 494 1294 
L 494 1772 
L 1594 1772 
L 1856 2816 
L 850 2816 
L 850 3297 
L 1978 3297 
L 2297 4594 
L 2803 4594 
z
" transform="scale(0.015625)"/>
       <path id="DejaVuSans-20" transform="scale(0.015625)"/>
       <path id="DejaVuSans-66" d="M 2375 4863 
L 2375 4384 
L 1825 4384 
Q 1516 4384 1395 4259 
Q 1275 4134 1275 3809 
L 1275 3500 
L 2222 3500 
L 2222 3053 
L 1275 3053 
L 1275 0 
L 697 0 
L 697 3053 
L 147 3053 
L 147 3500 
L 697 3500 
L 697 3744 
Q 697 4328 969 4595 
Q 1241 4863 1831 4863 
L 2375 4863 
z
" transform="scale(0.015625)"/>
       <path id="DejaVuSans-2d" d="M 313 2009 
L 1997 2009 
L 1997 1497 
L 313 1497 
L 313 2009 
z
" transform="scale(0.015625)"/>
       <path id="DejaVuSans-65" d="M 3597 1894 
L 3597 1613 
L 953 1613 
Q 991 1019 1311 708 
Q 1631 397 2203 397 
Q 2534 397 2845 478 
Q 3156 559 3463 722 
L 3463 178 
Q 3153 47 2828 -22 
Q 2503 -91 2169 -91 
Q 1331 -91 842 396 
Q 353 884 353 1716 
Q 353 2575 817 3079 
Q 1281 3584 2069 3584 
Q 2775 3584 3186 3129 
Q 3597 2675 3597 1894 
z
M 3022 2063 
Q 3016 2534 2758 2815 
Q 2500 3097 2075 3097 
Q 1594 3097 1305 2825 
Q 1016 2553 972 2059 
L 3022 2063 
z
" transform="scale(0.015625)"/>
       <path id="DejaVuSans-76" d="M 191 3500 
L 800 3500 
L 1894 563 
L 2988 3500 
L 3597 3500 
L 2284 0 
L 1503 0 
L 191 3500 
z
" transform="scale(0.015625)"/>
       <path id="DejaVuSans-61" d="M 2194 1759 
Q 1497 1759 1228 1600 
Q 959 1441 959 1056 
Q 959 750 1161 570 
Q 1363 391 1709 391 
Q 2188 391 2477 730 
Q 2766 1069 2766 1631 
L 2766 1759 
L 2194 1759 
z
M 3341 1997 
L 3341 0 
L 2766 0 
L 2766 531 
Q 2569 213 2275 61 
Q 1981 -91 1556 -91 
Q 1019 -91 701 211 
Q 384 513 384 1019 
Q 384 1609 779 1909 
Q 1175 2209 1959 2209 
L 2766 2209 
L 2766 2266 
Q 2766 2663 2505 2880 
Q 2244 3097 1772 3097 
Q 1472 3097 1187 3025 
Q 903 2953 641 2809 
L 641 3341 
Q 956 3463 1253 3523 
Q 1550 3584 1831 3584 
Q 2591 3584 2966 3190 
Q 3341 2797 3341 1997 
z
" transform="scale(0.015625)"/>
       <path id="DejaVuSans-73" d="M 2834 3397 
L 2834 2853 
Q 2591 2978 2328 3040 
Q 2066 3103 1784 3103 
Q 1356 3103 1142 2972 
Q 928 2841 928 2578 
Q 928 2378 1081 2264 
Q 1234 2150 1697 2047 
L 1894 2003 
Q 2506 1872 2764 1633 
Q 3022 1394 3022 966 
Q 3022 478 2636 193 
Q 2250 -91 1575 -91 
Q 1294 -91 989 -36 
Q 684 19 347 128 
L 347 722 
Q 666 556 975 473 
Q 1284 391 1588 391 
Q 1994 391 2212 530 
Q 2431 669 2431 922 
Q 2431 1156 2273 1281 
Q 2116 1406 1581 1522 
L 1381 1569 
Q 847 1681 609 1914 
Q 372 2147 372 2553 
Q 372 3047 722 3315 
Q 1072 3584 1716 3584 
Q 2034 3584 2315 3537 
Q 2597 3491 2834 3397 
z
" transform="scale(0.015625)"/>
       <path id="DejaVuSans-2f" d="M 1625 4666 
L 2156 4666 
L 531 -594 
L 0 -594 
L 1625 4666 
z
" transform="scale(0.015625)"/>
       <path id="DejaVuSans-64" d="M 2906 2969 
L 2906 4863 
L 3481 4863 
L 3481 0 
L 2906 0 
L 2906 525 
Q 2725 213 2448 61 
Q 2172 -91 1784 -91 
Q 1150 -91 751 415 
Q 353 922 353 1747 
Q 353 2572 751 3078 
Q 1150 3584 1784 3584 
Q 2172 3584 2448 3432 
Q 2725 3281 2906 2969 
z
M 947 1747 
Q 947 1113 1208 752 
Q 1469 391 1925 391 
Q 2381 391 2643 752 
Q 2906 1113 2906 1747 
Q 2906 2381 2643 2742 
Q 2381 3103 1925 3103 
Q 1469 3103 1208 2742 
Q 947 2381 947 1747 
z
" transform="scale(0.015625)"/>
       <path id="DejaVuSans-69" d="M 603 3500 
L 1178 3500 
L 1178 0 
L 603 0 
L 603 3500 
z
M 603 4863 
L 1178 4863 
L 1178 4134 
L 603 4134 
L 603 4863 
z
" transform="scale(0.015625)"/>
       <path id="DejaVuSans-6d" d="M 3328 2828 
Q 3544 3216 3844 3400 
Q 4144 3584 4550 3584 
Q 5097 3584 5394 3201 
Q 5691 2819 5691 2113 
L 5691 0 
L 5113 0 
L 5113 2094 
Q 5113 2597 4934 2840 
Q 4756 3084 4391 3084 
Q 3944 3084 3684 2787 
Q 3425 2491 3425 1978 
L 3425 0 
L 2847 0 
L 2847 2094 
Q 2847 2600 2669 2842 
Q 2491 3084 2119 3084 
Q 1678 3084 1418 2786 
Q 1159 2488 1159 1978 
L 1159 0 
L 581 0 
L 581 3500 
L 1159 3500 
L 1159 2956 
Q 1356 3278 1631 3431 
Q 1906 3584 2284 3584 
Q 2666 3584 2933 3390 
Q 3200 3197 3328 2828 
z
" transform="scale(0.015625)"/>
       <path id="DejaVuSans-6e" d="M 3513 2113 
L 3513 0 
L 2938 0 
L 2938 2094 
Q 2938 2591 2744 2837 
Q 2550 3084 2163 3084 
Q 1697 3084 1428 2787 
Q 1159 2491 1159 1978 
L 1159 0 
L 581 0 
L 581 3500 
L 1159 3500 
L 1159 2956 
Q 1366 3272 1645 3428 
Q 1925 3584 2291 3584 
Q 2894 3584 3203 3211 
Q 3513 2838 3513 2113 
z
" transform="scale(0.015625)"/>
       <path id="DejaVuSans-29" d="M 513 4856 
L 1013 4856 
Q 1481 4119 1714 3412 
Q 1947 2706 1947 2009 
Q 1947 1309 1714 600 
Q 1481 -109 1013 -844 
L 513 -844 
Q 928 -128 1133 580 
Q 1338 1288 1338 2009 
Q 1338 2731 1133 3434 
Q 928 4138 513 4856 
z
" transform="scale(0.015625)"/>
      </defs>
      <use xlink:href="#DejaVuSans-6c"/>
      <use xlink:href="#DejaVuSans-6f" x="27.783203"/>
      <use xlink:href="#DejaVuSans-67" x="88.964844"/>
      <use xlink:href="#DejaVuSans-31" x="152.441406"/>
      <use xlink:href="#DejaVuSans-30" x="216.064453"/>
      <use xlink:href="#DejaVuSans-28" x="279.6875"/>
      <use xlink:href="#DejaVuSans-23" x="318.701172"/>
      <use xlink:href="#DejaVuSans-20" x="402.490234"/>
      <use xlink:href="#DejaVuSans-66" x="434.277344"/>
      <use xlink:href="#DejaVuSans-2d" x="463.982422"/>
      <use xlink:href="#DejaVuSans-65" x="500.066406"/>
      <use xlink:href="#DejaVuSans-76" x="561.589844"/>
      <use xlink:href="#DejaVuSans-61" x="620.769531"/>
      <use xlink:href="#DejaVuSans-6c" x="682.048828"/>
      <use xlink:href="#DejaVuSans-73" x="709.832031"/>
      <use xlink:href="#DejaVuSans-20" x="761.931641"/>
      <use xlink:href="#DejaVuSans-2f" x="793.71875"/>
      <use xlink:href="#DejaVuSans-20" x="827.410156"/>
      <use xlink:href="#DejaVuSans-64" x="859.197266"/>
      <use xlink:href="#DejaVuSans-69" x="922.673828"/>
      <use xlink:href="#DejaVuSans-6d" x="950.457031"/>
      <use xlink:href="#DejaVuSans-65" x="1047.869141"/>
      <use xlink:href="#DejaVuSans-6e" x="1109.392578"/>
      <use xlink:href="#DejaVuSans-73" x="1172.771484"/>
      <use xlink:href="#DejaVuSans-69" x="1224.871094"/>
      <use xlink:href="#DejaVuSans-6f" x="1252.654297"/>
      <use xlink:href="#DejaVuSans-6e" x="1313.835938"/>
      <use xlink:href="#DejaVuSans-29" x="1377.214844"/>
     </g>
    </g>
   </g>
   <g id="matplotlib.axis_2">
    <g id="ytick_1">
     <g id="line2d_21">
      <path d="M 57.6 298.944 
L 360.8064 298.944 
" clip-path="url(#pc3997e235c)" style="fill: none; stroke: #b0b0b0; stroke-width: 0.8; stroke-linecap: square"/>
     </g>
     <g id="line2d_22">
      <defs>
       <path id="m60680deacf" d="M 0 0 
L -3.5 0 
" style="stroke: #000000; stroke-width: 0.8"/>
      </defs>
      <g>
       <use xlink:href="#m60680deacf" x="57.6" y="298.944" style="stroke: #000000; stroke-width: 0.8"/>
      </g>
     </g>
     <g id="text_6">
      <!-- 0.0 -->
      <g transform="translate(25.155 305.02275)scale(0.16 -0.16)">
       <defs>
        <path id="DejaVuSans-2e" d="M 684 794 
L 1344 794 
L 1344 0 
L 684 0 
L 684 794 
z
" transform="scale(0.015625)"/>
       </defs>
       <use xlink:href="#DejaVuSans-30"/>
       <use xlink:href="#DejaVuSans-2e" x="63.623047"/>
       <use xlink:href="#DejaVuSans-30" x="95.410156"/>
      </g>
     </g>
    </g>
    <g id="ytick_2">
     <g id="line2d_23">
      <path d="M 57.6 240.5376 
L 360.8064 240.5376 
" clip-path="url(#pc3997e235c)" style="fill: none; stroke: #b0b0b0; stroke-width: 0.8; stroke-linecap: square"/>
     </g>
     <g id="line2d_24">
      <g>
       <use xlink:href="#m60680deacf" x="57.6" y="240.5376" style="stroke: #000000; stroke-width: 0.8"/>
      </g>
     </g>
     <g id="text_7">
      <!-- 0.2 -->
      <g transform="translate(25.155 246.61635)scale(0.16 -0.16)">
       <use xlink:href="#DejaVuSans-30"/>
       <use xlink:href="#DejaVuSans-2e" x="63.623047"/>
       <use xlink:href="#DejaVuSans-32" x="95.410156"/>
      </g>
     </g>
    </g>
    <g id="ytick_3">
     <g id="line2d_25">
      <path d="M 57.6 182.1312 
L 360.8064 182.1312 
" clip-path="url(#pc3997e235c)" style="fill: none; stroke: #b0b0b0; stroke-width: 0.8; stroke-linecap: square"/>
     </g>
     <g id="line2d_26">
      <g>
       <use xlink:href="#m60680deacf" x="57.6" y="182.1312" style="stroke: #000000; stroke-width: 0.8"/>
      </g>
     </g>
     <g id="text_8">
      <!-- 0.4 -->
      <g transform="translate(25.155 188.20995)scale(0.16 -0.16)">
       <use xlink:href="#DejaVuSans-30"/>
       <use xlink:href="#DejaVuSans-2e" x="63.623047"/>
       <use xlink:href="#DejaVuSans-34" x="95.410156"/>
      </g>
     </g>
    </g>
    <g id="ytick_4">
     <g id="line2d_27">
      <path d="M 57.6 123.7248 
L 360.8064 123.7248 
" clip-path="url(#pc3997e235c)" style="fill: none; stroke: #b0b0b0; stroke-width: 0.8; stroke-linecap: square"/>
     </g>
     <g id="line2d_28">
      <g>
       <use xlink:href="#m60680deacf" x="57.6" y="123.7248" style="stroke: #000000; stroke-width: 0.8"/>
      </g>
     </g>
     <g id="text_9">
      <!-- 0.6 -->
      <g transform="translate(25.155 129.80355)scale(0.16 -0.16)">
       <use xlink:href="#DejaVuSans-30"/>
       <use xlink:href="#DejaVuSans-2e" x="63.623047"/>
       <use xlink:href="#DejaVuSans-36" x="95.410156"/>
      </g>
     </g>
    </g>
    <g id="ytick_5">
     <g id="line2d_29">
      <path d="M 57.6 65.3184 
L 360.8064 65.3184 
" clip-path="url(#pc3997e235c)" style="fill: none; stroke: #b0b0b0; stroke-width: 0.8; stroke-linecap: square"/>
     </g>
     <g id="line2d_30">
      <g>
       <use xlink:href="#m60680deacf" x="57.6" y="65.3184" style="stroke: #000000; stroke-width: 0.8"/>
      </g>
     </g>
     <g id="text_10">
      <!-- 0.8 -->
      <g transform="translate(25.155 71.39715)scale(0.16 -0.16)">
       <defs>
        <path id="DejaVuSans-38" d="M 2034 2216 
Q 1584 2216 1326 1975 
Q 1069 1734 1069 1313 
Q 1069 891 1326 650 
Q 1584 409 2034 409 
Q 2484 409 2743 651 
Q 3003 894 3003 1313 
Q 3003 1734 2745 1975 
Q 2488 2216 2034 2216 
z
M 1403 2484 
Q 997 2584 770 2862 
Q 544 3141 544 3541 
Q 544 4100 942 4425 
Q 1341 4750 2034 4750 
Q 2731 4750 3128 4425 
Q 3525 4100 3525 3541 
Q 3525 3141 3298 2862 
Q 3072 2584 2669 2484 
Q 3125 2378 3379 2068 
Q 3634 1759 3634 1313 
Q 3634 634 3220 271 
Q 2806 -91 2034 -91 
Q 1263 -91 848 271 
Q 434 634 434 1313 
Q 434 1759 690 2068 
Q 947 2378 1403 2484 
z
M 1172 3481 
Q 1172 3119 1398 2916 
Q 1625 2713 2034 2713 
Q 2441 2713 2670 2916 
Q 2900 3119 2900 3481 
Q 2900 3844 2670 4047 
Q 2441 4250 2034 4250 
Q 1625 4250 1398 4047 
Q 1172 3844 1172 3481 
z
" transform="scale(0.015625)"/>
       </defs>
       <use xlink:href="#DejaVuSans-30"/>
       <use xlink:href="#DejaVuSans-2e" x="63.623047"/>
       <use xlink:href="#DejaVuSans-38" x="95.410156"/>
      </g>
     </g>
    </g>
    <g id="ytick_6">
     <g id="line2d_31">
      <path d="M 57.6 6.912 
L 360.8064 6.912 
" clip-path="url(#pc3997e235c)" style="fill: none; stroke: #b0b0b0; stroke-width: 0.8; stroke-linecap: square"/>
     </g>
     <g id="line2d_32">
      <g>
       <use xlink:href="#m60680deacf" x="57.6" y="6.912" style="stroke: #000000; stroke-width: 0.8"/>
      </g>
     </g>
     <g id="text_11">
      <!-- 1.0 -->
      <g transform="translate(25.155 12.99075)scale(0.16 -0.16)">
       <use xlink:href="#DejaVuSans-31"/>
       <use xlink:href="#DejaVuSans-2e" x="63.623047"/>
       <use xlink:href="#DejaVuSans-30" x="95.410156"/>
      </g>
     </g>
    </g>
    <g id="text_12">
     <!-- Fraction of function,target pairs -->
     <g transform="translate(17.619531 287.313)rotate(-90)scale(0.17 -0.17)">
      <defs>
       <path id="DejaVuSans-46" d="M 628 4666 
L 3309 4666 
L 3309 4134 
L 1259 4134 
L 1259 2759 
L 3109 2759 
L 3109 2228 
L 1259 2228 
L 1259 0 
L 628 0 
L 628 4666 
z
" transform="scale(0.015625)"/>
       <path id="DejaVuSans-72" d="M 2631 2963 
Q 2534 3019 2420 3045 
Q 2306 3072 2169 3072 
Q 1681 3072 1420 2755 
Q 1159 2438 1159 1844 
L 1159 0 
L 581 0 
L 581 3500 
L 1159 3500 
L 1159 2956 
Q 1341 3275 1631 3429 
Q 1922 3584 2338 3584 
Q 2397 3584 2469 3576 
Q 2541 3569 2628 3553 
L 2631 2963 
z
" transform="scale(0.015625)"/>
       <path id="DejaVuSans-63" d="M 3122 3366 
L 3122 2828 
Q 2878 2963 2633 3030 
Q 2388 3097 2138 3097 
Q 1578 3097 1268 2742 
Q 959 2388 959 1747 
Q 959 1106 1268 751 
Q 1578 397 2138 397 
Q 2388 397 2633 464 
Q 2878 531 3122 666 
L 3122 134 
Q 2881 22 2623 -34 
Q 2366 -91 2075 -91 
Q 1284 -91 818 406 
Q 353 903 353 1747 
Q 353 2603 823 3093 
Q 1294 3584 2113 3584 
Q 2378 3584 2631 3529 
Q 2884 3475 3122 3366 
z
" transform="scale(0.015625)"/>
       <path id="DejaVuSans-74" d="M 1172 4494 
L 1172 3500 
L 2356 3500 
L 2356 3053 
L 1172 3053 
L 1172 1153 
Q 1172 725 1289 603 
Q 1406 481 1766 481 
L 2356 481 
L 2356 0 
L 1766 0 
Q 1100 0 847 248 
Q 594 497 594 1153 
L 594 3053 
L 172 3053 
L 172 3500 
L 594 3500 
L 594 4494 
L 1172 4494 
z
" transform="scale(0.015625)"/>
       <path id="DejaVuSans-75" d="M 544 1381 
L 544 3500 
L 1119 3500 
L 1119 1403 
Q 1119 906 1312 657 
Q 1506 409 1894 409 
Q 2359 409 2629 706 
Q 2900 1003 2900 1516 
L 2900 3500 
L 3475 3500 
L 3475 0 
L 2900 0 
L 2900 538 
Q 2691 219 2414 64 
Q 2138 -91 1772 -91 
Q 1169 -91 856 284 
Q 544 659 544 1381 
z
M 1991 3584 
L 1991 3584 
z
" transform="scale(0.015625)"/>
       <path id="DejaVuSans-2c" d="M 750 794 
L 1409 794 
L 1409 256 
L 897 -744 
L 494 -744 
L 750 256 
L 750 794 
z
" transform="scale(0.015625)"/>
       <path id="DejaVuSans-70" d="M 1159 525 
L 1159 -1331 
L 581 -1331 
L 581 3500 
L 1159 3500 
L 1159 2969 
Q 1341 3281 1617 3432 
Q 1894 3584 2278 3584 
Q 2916 3584 3314 3078 
Q 3713 2572 3713 1747 
Q 3713 922 3314 415 
Q 2916 -91 2278 -91 
Q 1894 -91 1617 61 
Q 1341 213 1159 525 
z
M 3116 1747 
Q 3116 2381 2855 2742 
Q 2594 3103 2138 3103 
Q 1681 3103 1420 2742 
Q 1159 2381 1159 1747 
Q 1159 1113 1420 752 
Q 1681 391 2138 391 
Q 2594 391 2855 752 
Q 3116 1113 3116 1747 
z
" transform="scale(0.015625)"/>
      </defs>
      <use xlink:href="#DejaVuSans-46"/>
      <use xlink:href="#DejaVuSans-72" x="50.269531"/>
      <use xlink:href="#DejaVuSans-61" x="91.382812"/>
      <use xlink:href="#DejaVuSans-63" x="152.662109"/>
      <use xlink:href="#DejaVuSans-74" x="207.642578"/>
      <use xlink:href="#DejaVuSans-69" x="246.851562"/>
      <use xlink:href="#DejaVuSans-6f" x="274.634766"/>
      <use xlink:href="#DejaVuSans-6e" x="335.816406"/>
      <use xlink:href="#DejaVuSans-20" x="399.195312"/>
      <use xlink:href="#DejaVuSans-6f" x="430.982422"/>
      <use xlink:href="#DejaVuSans-66" x="492.164062"/>
      <use xlink:href="#DejaVuSans-20" x="527.369141"/>
      <use xlink:href="#DejaVuSans-66" x="559.15625"/>
      <use xlink:href="#DejaVuSans-75" x="594.361328"/>
      <use xlink:href="#DejaVuSans-6e" x="657.740234"/>
      <use xlink:href="#DejaVuSans-63" x="721.119141"/>
      <use xlink:href="#DejaVuSans-74" x="776.099609"/>
      <use xlink:href="#DejaVuSans-69" x="815.308594"/>
      <use xlink:href="#DejaVuSans-6f" x="843.091797"/>
      <use xlink:href="#DejaVuSans-6e" x="904.273438"/>
      <use xlink:href="#DejaVuSans-2c" x="967.652344"/>
      <use xlink:href="#DejaVuSans-74" x="999.439453"/>
      <use xlink:href="#DejaVuSans-61" x="1038.648438"/>
      <use xlink:href="#DejaVuSans-72" x="1099.927734"/>
      <use xlink:href="#DejaVuSans-67" x="1139.291016"/>
      <use xlink:href="#DejaVuSans-65" x="1202.767578"/>
      <use xlink:href="#DejaVuSans-74" x="1264.291016"/>
      <use xlink:href="#DejaVuSans-20" x="1303.5"/>
      <use xlink:href="#DejaVuSans-70" x="1335.287109"/>
      <use xlink:href="#DejaVuSans-61" x="1398.763672"/>
      <use xlink:href="#DejaVuSans-69" x="1460.042969"/>
      <use xlink:href="#DejaVuSans-72" x="1487.826172"/>
      <use xlink:href="#DejaVuSans-73" x="1528.939453"/>
     </g>
    </g>
   </g>
   <g id="line2d_33">
    <defs>
     <path id="mb6e4b5607c" d="M 0 1.5 
C 0.397805 1.5 0.77937 1.341951 1.06066 1.06066 
C 1.341951 0.77937 1.5 0.397805 1.5 0 
C 1.5 -0.397805 1.341951 -0.77937 1.06066 -1.06066 
C 0.77937 -1.341951 0.397805 -1.5 0 -1.5 
C -0.397805 -1.5 -0.77937 -1.341951 -1.06066 -1.06066 
C -1.341951 -0.77937 -1.5 -0.397805 -1.5 0 
C -1.5 0.397805 -1.341951 0.77937 -1.06066 1.06066 
C -0.77937 1.341951 -0.397805 1.5 0 1.5 
z
" style="stroke: #f5deb3"/>
    </defs>
    <g>
     <use xlink:href="#mb6e4b5607c" x="302.055287" y="42.157241" style="fill: #f5deb3; stroke: #f5deb3"/>
     <use xlink:href="#mb6e4b5607c" x="302.055287" y="42.157241" style="fill: #f5deb3; stroke: #f5deb3"/>
    </g>
   </g>
   <g id="line2d_34">
    <defs>
     <path id="m5be3ba3c59" d="M 0 1.5 
C 0.397805 1.5 0.77937 1.341951 1.06066 1.06066 
C 1.341951 0.77937 1.5 0.397805 1.5 0 
C 1.5 -0.397805 1.341951 -0.77937 1.06066 -1.06066 
C 0.77937 -1.341951 0.397805 -1.5 0 -1.5 
C -0.397805 -1.5 -0.77937 -1.341951 -1.06066 -1.06066 
C -1.341951 -0.77937 -1.5 -0.397805 -1.5 0 
C -1.5 0.397805 -1.341951 0.77937 -1.06066 1.06066 
C -0.77937 1.341951 -0.397805 1.5 0 1.5 
z
" style="stroke: #000080"/>
    </defs>
    <g>
     <use xlink:href="#m5be3ba3c59" x="79.480672" y="279.055614" style="fill: #000080; stroke: #000080"/>
     <use xlink:href="#m5be3ba3c59" x="79.480672" y="279.055614" style="fill: #000080; stroke: #000080"/>
    </g>
   </g>
   <g id="line2d_35">
    <path d="M 14.2848 298.944 
L 14.2848 290.258566 
L 27.323974 290.258566 
L 27.323974 289.50331 
L 34.951403 289.50331 
L 34.951403 288.873931 
L 40.363149 288.873931 
L 40.363149 288.370428 
L 44.560826 288.370428 
L 44.560826 287.111669 
L 47.990577 287.111669 
L 47.990577 286.859917 
L 50.890391 286.859917 
L 50.890391 286.608166 
L 53.402323 286.608166 
L 53.402323 286.104662 
L 55.618005 286.104662 
L 55.618005 285.601159 
L 57.6 285.601159 
L 57.6 285.097655 
L 61.029752 285.097655 
L 61.029752 284.845903 
L 62.535479 284.845903 
L 62.535479 283.713021 
L 63.929565 283.713021 
L 63.929565 283.209517 
L 65.227428 283.209517 
L 65.227428 283.083641 
L 66.441498 283.083641 
L 66.441498 282.957766 
L 67.581941 282.957766 
L 67.581941 282.83189 
L 69.674268 282.83189 
L 69.674268 282.328386 
L 70.639174 282.328386 
L 70.639174 282.20251 
L 71.556993 282.20251 
L 71.556993 281.824883 
L 73.268314 281.824883 
L 73.268314 281.447255 
L 74.068926 281.447255 
L 74.068926 281.321379 
L 74.836851 281.321379 
L 74.836851 281.195503 
L 75.574654 281.195503 
L 75.574654 280.943752 
L 76.284608 280.943752 
L 76.284608 280.692 
L 76.96874 280.692 
L 76.96874 280.566124 
L 77.628862 280.566124 
L 77.628862 280.440248 
L 79.480672 280.440248 
L 79.480672 279.055614 
L 360.8064 279.055614 
" style="fill: none; stroke: #000080; stroke-width: 1.5; stroke-linecap: square"/>
   </g>
   <g id="line2d_36">
    <defs>
     <path id="m6b3be31699" d="M 0 6 
C 1.591219 6 3.117479 5.367802 4.242641 4.242641 
C 5.367802 3.117479 6 1.591219 6 0 
C 6 -1.591219 5.367802 -3.117479 4.242641 -4.242641 
C 3.117479 -5.367802 1.591219 -6 0 -6 
C -1.591219 -6 -3.117479 -5.367802 -4.242641 -4.242641 
C -5.367802 -3.117479 -6 -1.591219 -6 0 
C -6 1.591219 -5.367802 3.117479 -4.242641 4.242641 
C -3.117479 5.367802 -1.591219 6 0 6 
z
" style="stroke: #000080; stroke-width: 1.5"/>
    </defs>
    <g>
     <use xlink:href="#m6b3be31699" x="79.480672" y="280.440248" style="fill-opacity: 0; stroke: #000080; stroke-width: 1.5"/>
     <use xlink:href="#m6b3be31699" x="79.480672" y="280.440248" style="fill-opacity: 0; stroke: #000080; stroke-width: 1.5"/>
     <use xlink:href="#m6b3be31699" x="79.480672" y="279.055614" style="fill-opacity: 0; stroke: #000080; stroke-width: 1.5"/>
     <use xlink:href="#m6b3be31699" x="79.480672" y="279.055614" style="fill-opacity: 0; stroke: #000080; stroke-width: 1.5"/>
     <use xlink:href="#m6b3be31699" x="79.480672" y="279.055614" style="fill-opacity: 0; stroke: #000080; stroke-width: 1.5"/>
     <use xlink:href="#m6b3be31699" x="360.8064" y="279.055614" style="fill-opacity: 0; stroke: #000080; stroke-width: 1.5"/>
    </g>
   </g>
   <g id="line2d_37">
    <path style="fill: none; stroke: #000080; stroke-width: 1.5; stroke-linecap: square"/>
    <g/>
   </g>
   <g id="line2d_38">
    <path d="M 79.480672 279.055614 
" clip-path="url(#pc3997e235c)" style="fill: none; stroke: #000080; stroke-width: 1.5; stroke-linecap: square"/>
    <defs>
     <path id="m9ca107304b" d="M -12 12 
L 12 -12 
M -12 -12 
L 12 12 
" style="stroke: #000080"/>
    </defs>
    <g clip-path="url(#pc3997e235c)">
     <use xlink:href="#m9ca107304b" x="79.480672" y="279.055614" style="fill: #000080; stroke: #000080"/>
    </g>
   </g>
   <g id="line2d_39">
    <defs>
     <path id="ma7b1c55572" d="M 0 1.5 
C 0.397805 1.5 0.77937 1.341951 1.06066 1.06066 
C 1.341951 0.77937 1.5 0.397805 1.5 0 
C 1.5 -0.397805 1.341951 -0.77937 1.06066 -1.06066 
C 0.77937 -1.341951 0.397805 -1.5 0 -1.5 
C -0.397805 -1.5 -0.77937 -1.341951 -1.06066 -1.06066 
C -1.341951 -0.77937 -1.5 -0.397805 -1.5 0 
C -1.5 0.397805 -1.341951 0.77937 -1.06066 1.06066 
C -0.77937 1.341951 -0.397805 1.5 0 1.5 
z
" style="stroke: #ff00ff"/>
    </defs>
    <g>
     <use xlink:href="#ma7b1c55572" x="274.148176" y="164.508579" style="fill: #ff00ff; stroke: #ff00ff"/>
     <use xlink:href="#ma7b1c55572" x="274.148176" y="164.508579" style="fill: #ff00ff; stroke: #ff00ff"/>
    </g>
   </g>
   <g id="line2d_40">
    <path d="M 14.2848 298.944 
L 14.2848 290.258566 
L 27.323974 290.258566 
L 27.323974 290.13269 
L 34.951403 290.13269 
L 34.951403 290.006814 
L 40.363149 290.006814 
L 40.363149 289.880938 
L 44.560826 289.880938 
L 44.560826 289.629186 
L 50.890391 289.629186 
L 50.890391 289.50331 
L 59.392932 289.50331 
L 59.392932 289.251559 
L 61.029752 289.251559 
L 61.029752 289.125683 
L 63.929565 289.125683 
L 63.929565 288.873931 
L 65.227428 288.873931 
L 65.227428 288.622179 
L 67.581941 288.622179 
L 67.581941 288.496303 
L 69.674268 288.496303 
L 69.674268 288.370428 
L 70.639174 288.370428 
L 70.639174 288.118676 
L 71.556993 288.118676 
L 71.556993 287.9928 
L 72.432107 287.9928 
L 72.432107 287.866924 
L 73.268314 287.866924 
L 73.268314 287.741048 
L 76.96874 287.741048 
L 76.96874 287.363421 
L 78.266603 287.363421 
L 78.266603 287.237545 
L 82.713442 287.237545 
L 82.713442 286.985793 
L 85.038813 286.985793 
L 85.038813 286.859917 
L 88.972154 286.859917 
L 88.972154 286.734041 
L 90.340871 286.734041 
L 90.340871 286.608166 
L 90.668036 286.608166 
L 90.668036 286.48229 
L 90.989609 286.48229 
L 90.989609 286.356414 
L 91.305777 286.356414 
L 91.305777 286.230538 
L 93.381595 286.230538 
L 93.381595 286.104662 
L 93.934916 286.104662 
L 93.934916 285.978786 
L 95.752617 285.978786 
L 95.752617 285.727034 
L 97.635342 285.727034 
L 97.635342 285.601159 
L 100.9152 285.601159 
L 100.9152 285.475283 
L 101.287718 285.475283 
L 101.287718 285.223531 
L 102.187964 285.223531 
L 102.187964 285.097655 
L 102.362957 285.097655 
L 102.362957 284.971779 
L 102.536336 284.971779 
L 102.536336 284.845903 
L 103.707211 284.845903 
L 103.707211 284.720028 
L 104.344952 284.720028 
L 104.344952 284.3424 
L 104.655893 284.3424 
L 104.655893 284.216524 
L 105.26277 284.216524 
L 105.26277 284.090648 
L 105.411479 284.090648 
L 105.411479 283.964772 
L 105.705415 283.964772 
L 105.705415 283.838897 
L 105.850679 283.838897 
L 105.850679 283.713021 
L 105.99483 283.713021 
L 105.99483 283.587145 
L 106.42077 283.587145 
L 106.42077 283.461269 
L 107.109915 283.461269 
L 107.109915 283.335393 
L 107.378656 283.335393 
L 107.378656 283.209517 
L 107.5116 283.209517 
L 107.5116 283.083641 
L 108.162584 283.083641 
L 108.162584 282.957766 
L 108.29012 282.957766 
L 108.29012 282.83189 
L 108.542628 282.83189 
L 108.542628 282.706014 
L 108.791791 282.706014 
L 108.791791 282.580138 
L 109.520071 282.580138 
L 109.520071 282.454262 
L 109.638757 282.454262 
L 109.638757 282.328386 
L 110.106149 282.328386 
L 110.106149 282.20251 
L 110.897141 282.20251 
L 110.897141 282.076634 
L 111.656212 282.076634 
L 111.656212 281.950759 
L 112.076599 281.950759 
L 112.180244 281.447255 
L 113.284172 281.447255 
L 113.284172 281.321379 
L 113.478107 281.321379 
L 113.478107 281.069628 
L 113.670063 281.069628 
L 113.670063 280.943752 
L 113.860081 280.943752 
L 113.860081 280.817876 
L 114.141556 280.817876 
L 114.141556 280.692 
L 114.418881 280.692 
L 114.418881 280.566124 
L 114.601519 280.566124 
L 114.601519 280.314372 
L 114.7824 280.314372 
L 114.7824 280.062621 
L 115.050503 280.062621 
L 115.050503 279.936745 
L 115.402131 279.936745 
L 115.489021 279.684993 
L 115.575511 279.684993 
L 115.661605 279.307366 
L 116.746385 279.307366 
L 116.827295 279.055614 
L 117.462345 279.055614 
L 117.462345 278.803862 
L 118.000953 278.803862 
L 118.000953 278.55211 
L 118.227147 278.55211 
L 118.301945 278.174483 
L 118.376446 278.174483 
L 118.376446 278.048607 
L 118.524569 278.048607 
L 118.524569 277.922731 
L 119.034004 277.922731 
L 119.034004 277.670979 
L 119.177058 277.670979 
L 119.24818 277.419228 
L 119.459944 277.419228 
L 119.459944 277.293352 
L 119.669351 277.293352 
L 119.669351 277.0416 
L 119.876453 277.0416 
L 119.944983 276.789848 
L 120.879082 276.789848 
L 120.879082 276.663972 
L 121.137664 276.663972 
L 121.137664 276.538097 
L 121.518993 276.538097 
L 121.581803 276.286345 
L 121.644403 276.286345 
L 121.706797 276.034593 
L 121.768984 276.034593 
L 121.768984 275.908717 
L 121.954321 275.908717 
L 121.954321 275.782841 
L 122.13785 275.782841 
L 122.13785 275.656966 
L 122.677931 275.656966 
L 122.677931 275.53109 
L 123.769595 275.53109 
L 123.769595 275.405214 
L 124.156336 275.405214 
L 124.156336 275.279338 
L 124.695386 275.279338 
L 124.695386 275.153462 
L 124.854134 275.153462 
L 124.854134 275.027586 
L 126.468985 275.027586 
L 126.468985 274.775834 
L 127.366067 274.775834 
L 127.366067 274.649959 
L 127.956104 274.649959 
L 128.000734 274.398207 
L 128.133992 274.398207 
L 128.133992 274.146455 
L 129.334225 274.146455 
L 129.334225 274.020579 
L 133.78762 274.020579 
L 133.78762 273.894703 
L 135.298389 273.894703 
L 135.298389 273.768828 
L 136.947806 273.768828 
L 136.947806 273.642952 
L 137.085822 273.642952 
L 137.085822 273.517076 
L 137.547645 273.517076 
L 137.547645 273.3912 
L 137.866944 273.3912 
L 137.866944 273.265324 
L 138.258593 273.265324 
L 138.258593 273.139448 
L 138.464186 273.139448 
L 138.464186 273.013572 
L 140.173284 273.013572 
L 140.173284 272.887697 
L 140.657135 272.887697 
L 140.657135 272.761821 
L 141.305488 272.761821 
L 141.305488 272.635945 
L 141.458695 272.635945 
L 141.458695 272.510069 
L 141.953481 272.510069 
L 141.953481 272.384193 
L 142.290162 272.384193 
L 142.290162 272.258317 
L 142.47693 272.258317 
L 142.47693 272.132441 
L 142.763822 272.132441 
L 142.784148 271.88069 
L 143.285285 271.88069 
L 143.285285 271.754814 
L 143.521169 271.754814 
L 143.521169 271.628938 
L 143.888708 271.628938 
L 143.946089 271.377186 
L 144.041338 271.377186 
L 144.041338 271.125434 
L 144.211579 271.125434 
L 144.211579 270.999559 
L 144.565997 270.999559 
L 144.584466 270.621931 
L 145.040416 270.621931 
L 145.040416 270.496055 
L 145.432709 270.496055 
L 145.432709 270.370179 
L 145.971958 270.370179 
L 145.971958 270.244303 
L 146.159649 270.244303 
L 146.159649 270.118428 
L 146.311833 270.118428 
L 146.311833 269.992552 
L 146.446082 269.992552 
L 146.446082 269.866676 
L 146.645676 269.866676 
L 146.645676 269.7408 
L 146.908549 269.7408 
L 146.989949 269.111421 
L 147.022411 269.111421 
L 147.119461 268.733793 
L 147.264104 268.733793 
L 147.264104 268.607917 
L 147.423525 268.607917 
L 147.486917 268.356166 
L 147.628773 268.356166 
L 147.628773 268.23029 
L 147.862847 268.23029 
L 147.862847 268.104414 
L 148.246613 268.104414 
L 148.246613 267.978538 
L 148.44312 267.978538 
L 148.44312 267.852662 
L 148.844805 267.852662 
L 148.947561 267.60091 
L 148.962194 267.60091 
L 148.962194 267.475034 
L 149.151403 267.475034 
L 149.180344 267.223283 
L 149.510002 267.223283 
L 149.524205 266.719779 
L 149.665646 266.719779 
L 149.73597 266.468028 
L 149.79204 266.468028 
L 149.79204 266.342152 
L 150.000827 266.342152 
L 150.000827 266.216276 
L 150.166205 266.216276 
L 150.248351 265.461021 
L 150.573397 265.461021 
L 150.573397 265.335145 
L 150.733838 265.335145 
L 150.733838 265.209269 
L 150.892922 265.209269 
L 150.958812 264.957517 
L 151.037576 264.957517 
L 151.037576 264.831641 
L 151.284843 264.831641 
L 151.284843 264.705766 
L 151.41369 264.705766 
L 151.50336 264.454014 
L 151.668766 264.454014 
L 151.769835 264.076386 
L 152.474656 264.076386 
L 152.498913 263.824634 
L 152.631772 263.824634 
L 152.703847 263.321131 
L 152.847174 263.321131 
L 152.942122 262.943503 
L 153.001222 262.943503 
L 153.060137 262.44 
L 153.317193 262.44 
L 153.317193 262.314124 
L 153.75309 262.314124 
L 153.787077 262.062372 
L 154.034453 262.062372 
L 154.034453 261.810621 
L 154.344662 261.810621 
L 154.344662 261.684745 
L 154.465144 261.684745 
L 154.519655 261.432993 
L 154.660647 261.432993 
L 154.757642 261.055366 
L 154.86483 261.055366 
L 154.86483 260.92949 
L 155.193286 260.92949 
L 155.193286 260.803614 
L 155.516105 260.803614 
L 155.577951 260.174234 
L 156.105602 260.174234 
L 156.105602 260.048359 
L 156.334347 260.048359 
L 156.334347 259.922483 
L 156.550574 259.922483 
L 156.550574 259.796607 
L 156.764344 259.796607 
L 156.783658 259.418979 
L 157.023421 259.418979 
L 157.127956 258.915476 
L 157.222487 258.915476 
L 157.222487 258.7896 
L 157.521831 258.7896 
L 157.53111 258.537848 
L 157.76159 258.537848 
L 157.779907 258.286097 
L 157.962102 258.286097 
L 158.025456 257.908469 
L 158.2053 257.908469 
L 158.312387 256.775586 
L 158.559911 256.775586 
L 158.577468 256.272083 
L 158.830209 256.272083 
L 158.830209 256.020331 
L 159.079601 256.020331 
L 159.181837 255.390952 
L 159.54369 255.390952 
L 159.54369 255.265076 
L 159.668298 255.265076 
L 159.668298 254.887448 
L 159.882349 254.887448 
L 159.890533 254.635697 
L 160.061585 254.635697 
L 160.158636 254.132193 
L 160.375185 254.132193 
L 160.454761 253.376938 
L 160.652238 253.376938 
L 160.761927 252.495807 
L 160.777545 252.495807 
L 160.777545 252.369931 
L 161.071844 252.369931 
L 161.071844 252.244055 
L 161.308567 252.244055 
L 161.384298 251.866428 
L 161.444664 251.866428 
L 161.534851 251.4888 
L 161.55733 251.4888 
L 161.579783 250.985297 
L 161.676769 250.985297 
L 161.713939 250.607669 
L 161.847145 250.607669 
L 161.847145 250.481793 
L 162.103487 250.481793 
L 162.161592 250.230041 
L 162.399397 250.230041 
L 162.485131 249.726538 
L 162.527853 249.726538 
L 162.542072 249.474786 
L 162.775144 249.474786 
L 162.838212 249.097159 
L 163.067666 249.097159 
L 163.067666 248.971283 
L 163.198517 248.971283 
L 163.267023 248.467779 
L 163.498092 248.467779 
L 163.605857 248.216028 
L 163.666204 248.216028 
L 163.666204 248.090152 
L 163.779668 248.090152 
L 163.779668 247.8384 
L 163.892451 247.8384 
L 163.991407 247.209021 
L 164.024277 247.209021 
L 164.122545 246.957269 
L 164.135608 246.957269 
L 164.2138 246.705517 
L 164.272231 246.705517 
L 164.324018 246.32789 
L 164.510559 246.32789 
L 164.536144 245.950262 
L 164.871904 245.950262 
L 164.965852 245.195007 
L 165.090391 245.195007 
L 165.17708 244.817379 
L 165.35539 244.817379 
L 165.465221 243.810372 
L 165.525963 243.810372 
L 165.525963 243.684497 
L 165.676963 243.684497 
L 165.676963 243.558621 
L 165.898243 243.558621 
L 165.987215 242.803366 
L 166.05809 242.803366 
L 166.152178 242.173986 
L 166.344759 242.173986 
L 166.39115 241.796359 
L 166.843221 241.796359 
L 166.950346 241.041103 
L 167.028891 241.041103 
L 167.134966 240.411724 
L 167.16834 240.411724 
L 167.16834 240.285848 
L 167.378342 240.285848 
L 167.400311 240.034097 
L 167.515233 240.034097 
L 167.575151 239.656469 
L 167.634879 239.656469 
L 167.726815 239.404717 
L 167.893313 239.404717 
L 167.962699 238.901214 
L 168.063651 238.901214 
L 168.100708 238.649462 
L 168.195663 238.649462 
L 168.279666 238.39771 
L 168.326754 238.39771 
L 168.410176 237.768331 
L 168.441364 237.768331 
L 168.441364 237.516579 
L 168.555279 237.516579 
L 168.555279 237.390703 
L 168.735099 237.390703 
L 168.740211 237.138952 
L 168.90815 237.138952 
L 168.938524 236.8872 
L 169.064557 236.8872 
L 169.109722 236.635448 
L 169.358688 236.635448 
L 169.452437 236.131945 
L 169.516314 236.131945 
L 169.540824 235.754317 
L 169.798687 235.754317 
L 169.856584 235.250814 
L 169.933503 235.250814 
L 170.014887 234.495559 
L 170.157651 234.495559 
L 170.238073 234.243807 
L 170.289928 234.243807 
L 170.383845 233.488552 
L 170.621233 233.488552 
L 170.621233 233.362676 
L 170.782429 233.362676 
L 170.809925 232.859172 
L 170.93316 232.859172 
L 171.042029 232.229793 
L 171.24 232.229793 
L 171.302556 231.600414 
L 171.524288 231.600414 
L 171.524288 231.348662 
L 171.686704 231.348662 
L 171.773916 230.971034 
L 171.869384 230.971034 
L 171.869384 230.845159 
L 172.054594 230.845159 
L 172.054594 230.719283 
L 172.208263 230.719283 
L 172.276159 230.341655 
L 172.322696 230.341655 
L 172.356469 229.712276 
L 172.45323 229.712276 
L 172.549496 229.208772 
L 172.587032 229.208772 
L 172.674324 228.201766 
L 172.724025 228.201766 
L 172.724025 227.950014 
L 172.839484 227.950014 
L 172.929707 227.572386 
L 173.007281 227.572386 
L 173.10076 227.194759 
L 173.189742 227.194759 
L 173.189742 227.068883 
L 173.346455 227.068883 
L 173.442249 226.313628 
L 173.458168 226.313628 
L 173.458168 226.187752 
L 173.585032 226.187752 
L 173.695341 225.432497 
L 173.785471 225.432497 
L 173.816719 224.928993 
L 174.111019 224.928993 
L 174.180052 224.42549 
L 174.290742 224.42549 
L 174.366702 223.670234 
L 174.544011 223.670234 
L 174.600249 223.166731 
L 174.73082 223.166731 
L 174.838326 222.411476 
L 174.871565 222.411476 
L 174.956244 222.159724 
L 175.062472 222.159724 
L 175.062472 221.907972 
L 175.294806 221.907972 
L 175.356041 221.404469 
L 175.538557 221.404469 
L 175.591903 221.026841 
L 175.715792 221.026841 
L 175.810809 220.397462 
L 175.849382 220.397462 
L 175.849382 220.271586 
L 176.319868 220.271586 
L 176.374454 219.768083 
L 176.513611 219.768083 
L 176.59796 219.138703 
L 176.651746 219.138703 
L 176.651746 219.012828 
L 176.798869 219.012828 
L 176.828821 218.6352 
L 176.921701 218.6352 
L 176.921701 218.383448 
L 177.053597 218.383448 
L 177.063452 217.879945 
L 177.243218 217.879945 
L 177.275719 217.502317 
L 177.434167 217.502317 
L 177.508083 217.250566 
L 177.549733 217.250566 
L 177.549733 216.998814 
L 177.696375 216.998814 
L 177.696375 216.747062 
L 177.976891 216.747062 
L 178.036239 216.117683 
L 178.151275 216.117683 
L 178.151275 215.991807 
L 178.262532 215.991807 
L 178.262532 215.865931 
L 178.437353 215.865931 
L 178.540864 215.488303 
L 178.562105 215.488303 
L 178.5712 215.110676 
L 178.779198 215.110676 
L 178.883832 214.229545 
L 179.047089 214.229545 
L 179.047089 214.103669 
L 179.386836 214.103669 
L 179.386836 213.977793 
L 179.660579 213.977793 
L 179.697731 213.600166 
L 179.997952 213.600166 
L 180.042855 212.84491 
L 180.326619 212.84491 
L 180.334901 212.467283 
L 180.464171 212.467283 
L 180.532572 211.963779 
L 180.619764 211.963779 
L 180.619764 211.586152 
L 180.784861 211.586152 
L 180.892341 211.208524 
L 181.081618 211.208524 
L 181.155741 210.830897 
L 181.308361 210.830897 
L 181.308361 210.579145 
L 181.576377 210.579145 
L 181.576377 210.327393 
L 181.697418 210.327393 
L 181.697418 210.075641 
L 182.005498 210.075641 
L 182.005498 209.82389 
L 182.238904 209.82389 
L 182.283747 209.446262 
L 182.667971 209.446262 
L 182.677721 209.068634 
L 183.089854 209.068634 
L 183.199196 208.187503 
L 183.31733 208.187503 
L 183.425361 207.809876 
L 183.483815 207.809876 
L 183.483815 207.558124 
L 184.169198 207.558124 
L 184.184948 207.180497 
L 184.361794 207.180497 
L 184.432957 206.676993 
L 184.481726 206.676993 
L 184.481726 206.551117 
L 184.620688 206.551117 
L 184.728064 205.921738 
L 185.140856 205.921738 
L 185.140856 205.669986 
L 185.292022 205.669986 
L 185.292022 205.418234 
L 185.590758 205.418234 
L 185.590758 205.166483 
L 186.019953 205.166483 
L 186.019953 205.040607 
L 186.285323 205.040607 
L 186.285323 204.914731 
L 186.689288 204.914731 
L 186.689288 204.662979 
L 186.945445 204.662979 
L 186.945445 204.537103 
L 187.360338 204.537103 
L 187.360338 204.411228 
L 187.551243 204.411228 
L 187.551243 204.285352 
L 188.190927 204.285352 
L 188.190927 204.0336 
L 188.67896 204.0336 
L 188.67896 203.781848 
L 189.892919 203.781848 
L 189.892919 203.530097 
L 190.324633 203.530097 
L 190.324633 203.404221 
L 190.55848 203.404221 
L 190.55848 203.278345 
L 190.903102 203.278345 
L 190.903102 203.026593 
L 191.072294 203.026593 
L 191.072294 202.774841 
L 191.447503 202.774841 
L 191.516173 202.271338 
L 191.864782 202.271338 
L 191.864782 202.019586 
L 192.065564 202.019586 
L 192.065564 201.89371 
L 192.694031 201.89371 
L 192.694031 201.641959 
L 193.497863 201.641959 
L 193.497863 201.390207 
L 193.612668 201.390207 
L 193.6535 201.138455 
L 195.383787 201.138455 
L 195.383787 200.886703 
L 196.521822 200.886703 
L 196.521822 200.760828 
L 196.861925 200.760828 
L 196.861925 200.634952 
L 197.19824 200.634952 
L 197.19824 200.3832 
L 197.483226 200.3832 
L 197.483226 200.257324 
L 197.931494 200.257324 
L 197.931494 200.131448 
L 198.047025 200.131448 
L 198.047025 200.005572 
L 199.167956 200.005572 
L 199.218596 199.627945 
L 199.333547 199.627945 
L 199.405787 199.124441 
L 199.609965 199.124441 
L 199.609965 198.87269 
L 199.925291 198.87269 
L 199.925291 198.620938 
L 200.094031 198.620938 
L 200.095962 198.24331 
L 202.085581 198.24331 
L 202.085581 197.991559 
L 202.227471 197.991559 
L 202.227471 197.865683 
L 203.136053 197.865683 
L 203.136053 197.739807 
L 203.937555 197.739807 
L 203.937555 197.488055 
L 204.115367 197.488055 
L 204.115367 197.362179 
L 204.583505 197.362179 
L 204.651065 196.606924 
L 205.068459 196.606924 
L 205.178561 196.229297 
L 205.807458 196.229297 
L 205.807458 196.103421 
L 206.284474 196.103421 
L 206.284474 195.977545 
L 206.759178 195.977545 
L 206.759178 195.851669 
L 206.931799 195.851669 
L 206.931799 195.725793 
L 207.082886 195.725793 
L 207.171899 195.348166 
L 207.538751 195.348166 
L 207.591968 194.970538 
L 208.53301 194.970538 
L 208.53301 194.844662 
L 208.970494 194.844662 
L 208.970494 194.718786 
L 209.242553 194.718786 
L 209.242553 194.59291 
L 209.59074 194.59291 
L 209.59074 194.341159 
L 210.081367 194.341159 
L 210.081367 194.215283 
L 210.532381 194.215283 
L 210.532381 194.089407 
L 210.99394 194.089407 
L 210.99394 193.837655 
L 211.125448 193.837655 
L 211.125448 193.585903 
L 211.422782 193.585903 
L 211.422782 193.334152 
L 211.691009 193.334152 
L 211.752408 193.0824 
L 212.012423 193.0824 
L 212.012423 192.830648 
L 212.430936 192.830648 
L 212.533378 192.578897 
L 212.605502 192.578897 
L 212.605502 192.327145 
L 213.15829 192.327145 
L 213.190562 191.949517 
L 213.343935 191.949517 
L 213.413022 191.697766 
L 213.552801 191.697766 
L 213.552801 191.57189 
L 214.171319 191.57189 
L 214.171319 191.320138 
L 214.354515 191.320138 
L 214.354515 191.194262 
L 214.798002 191.194262 
L 214.798002 191.068386 
L 215.367222 191.068386 
L 215.367222 190.94251 
L 215.499215 190.94251 
L 215.538761 190.690759 
L 215.980813 190.690759 
L 215.980813 190.564883 
L 216.189594 190.564883 
L 216.189594 190.439007 
L 216.350573 190.439007 
L 216.350573 190.313131 
L 217.080331 190.313131 
L 217.080331 190.187255 
L 217.805064 190.187255 
L 217.805064 190.061379 
L 217.983832 190.061379 
L 217.983832 189.935503 
L 218.329028 189.935503 
L 218.329028 189.809628 
L 218.759141 189.809628 
L 218.759141 189.557876 
L 219.008399 189.557876 
L 219.013343 189.180248 
L 219.229627 189.180248 
L 219.229627 188.928497 
L 219.800385 188.928497 
L 219.800385 188.802621 
L 221.803162 188.802621 
L 221.803162 188.550869 
L 221.988577 188.550869 
L 221.988577 188.424993 
L 222.265693 188.424993 
L 222.265693 188.173241 
L 222.68316 188.173241 
L 222.68316 187.92149 
L 222.94142 187.92149 
L 222.94142 187.669738 
L 223.611699 187.669738 
L 223.611699 187.417986 
L 224.133446 187.417986 
L 224.133446 187.29211 
L 225.016212 187.29211 
L 225.016212 187.040359 
L 226.390506 187.040359 
L 226.390506 186.914483 
L 226.535478 186.914483 
L 226.535478 186.788607 
L 226.669236 186.788607 
L 226.765134 186.536855 
L 227.290037 186.536855 
L 227.290037 186.410979 
L 228.169357 186.410979 
L 228.169357 186.285103 
L 228.295043 186.285103 
L 228.372501 186.033352 
L 228.552857 186.033352 
L 228.552857 185.907476 
L 229.015631 185.907476 
L 229.015631 185.7816 
L 229.264843 185.7816 
L 229.264843 185.529848 
L 229.455337 185.529848 
L 229.455337 185.278097 
L 229.726023 185.278097 
L 229.788261 184.900469 
L 230.093659 184.900469 
L 230.093659 184.774593 
L 230.733013 184.774593 
L 230.733013 184.648717 
L 231.400037 184.648717 
L 231.400037 184.522841 
L 231.564023 184.522841 
L 231.564023 184.396966 
L 231.707898 184.396966 
L 231.707898 184.145214 
L 232.763034 184.145214 
L 232.857331 183.767586 
L 232.980591 183.767586 
L 232.980591 183.515834 
L 233.308311 183.515834 
L 233.356807 183.264083 
L 233.456867 183.264083 
L 233.456867 183.138207 
L 233.969919 183.138207 
L 233.969919 183.012331 
L 234.29447 183.012331 
L 234.324695 182.634703 
L 234.456301 182.634703 
L 234.456301 182.382952 
L 234.939059 182.382952 
L 234.939059 182.257076 
L 235.485947 182.257076 
L 235.485947 182.1312 
L 235.830976 182.1312 
L 235.912551 181.627697 
L 236.028394 181.627697 
L 236.028394 181.501821 
L 236.300414 181.501821 
L 236.300414 181.375945 
L 236.90278 181.375945 
L 236.973594 180.872441 
L 237.440368 180.872441 
L 237.440368 180.746566 
L 237.741454 180.746566 
L 237.741454 180.62069 
L 238.571816 180.62069 
L 238.571816 180.494814 
L 238.8723 180.494814 
L 238.953958 180.117186 
L 240.132591 180.117186 
L 240.143964 179.865434 
L 240.260285 179.865434 
L 240.260285 179.739559 
L 241.257197 179.739559 
L 241.257197 179.613683 
L 242.442445 179.613683 
L 242.442445 179.487807 
L 243.492365 179.487807 
L 243.492365 179.236055 
L 243.630363 179.236055 
L 243.630363 178.984303 
L 243.812297 178.984303 
L 243.812297 178.732552 
L 244.294242 178.732552 
L 244.294242 178.606676 
L 244.417446 178.606676 
L 244.417446 178.4808 
L 244.924536 178.4808 
L 244.924536 178.354924 
L 245.141947 178.354924 
L 245.141947 178.229048 
L 245.989489 178.229048 
L 245.989489 178.103172 
L 246.409403 178.103172 
L 246.409403 177.977297 
L 247.139872 177.977297 
L 247.189608 177.599669 
L 247.254801 177.599669 
L 247.254801 177.347917 
L 247.831742 177.347917 
L 247.921961 176.844414 
L 248.043471 176.844414 
L 248.043471 176.592662 
L 248.247619 176.592662 
L 248.357183 176.089159 
L 248.525637 176.089159 
L 248.525637 175.963283 
L 249.724999 175.963283 
L 249.724999 175.837407 
L 250.064824 175.837407 
L 250.137541 175.585655 
L 250.686441 175.585655 
L 250.686441 175.459779 
L 251.631331 175.459779 
L 251.631331 175.208028 
L 251.93407 175.208028 
L 252.024915 174.8304 
L 252.056705 174.8304 
L 252.056705 174.704524 
L 252.249039 174.704524 
L 252.249039 174.578648 
L 253.040017 174.578648 
L 253.139793 174.201021 
L 253.641647 174.201021 
L 253.641647 174.075145 
L 253.776052 174.075145 
L 253.776052 173.823393 
L 254.242171 173.823393 
L 254.27731 173.194014 
L 254.940844 173.194014 
L 254.940844 173.068138 
L 255.080487 173.068138 
L 255.080487 172.942262 
L 255.431446 172.942262 
L 255.431446 172.816386 
L 255.544578 172.816386 
L 255.544578 172.69051 
L 256.186061 172.69051 
L 256.186061 172.564634 
L 256.909968 172.564634 
L 256.909968 172.438759 
L 257.496931 172.438759 
L 257.496931 172.312883 
L 257.730687 172.312883 
L 257.730687 172.061131 
L 258.095343 172.061131 
L 258.095343 171.935255 
L 258.514408 171.935255 
L 258.514408 171.809379 
L 259.994814 171.809379 
L 259.994814 171.557628 
L 260.197604 171.557628 
L 260.197604 171.431752 
L 260.414854 171.431752 
L 260.414854 171.18 
L 260.543234 171.18 
L 260.543234 171.054124 
L 260.862901 171.054124 
L 260.862901 170.928248 
L 261.151079 170.928248 
L 261.151079 170.802372 
L 261.686954 170.802372 
L 261.686954 170.676497 
L 262.34912 170.676497 
L 262.34912 170.550621 
L 262.479152 170.550621 
L 262.479152 170.298869 
L 263.240812 170.298869 
L 263.251473 170.047117 
L 263.549189 170.047117 
L 263.657034 169.417738 
L 263.915469 169.417738 
L 263.962764 169.04011 
L 264.23446 169.04011 
L 264.23446 168.914234 
L 265.12725 168.914234 
L 265.21148 168.662483 
L 266.230752 168.662483 
L 266.230752 168.536607 
L 266.416911 168.536607 
L 266.416911 168.284855 
L 266.637285 168.284855 
L 266.637285 168.033103 
L 266.814253 168.033103 
L 266.870563 167.781352 
L 266.995497 167.781352 
L 266.995497 167.655476 
L 267.655408 167.655476 
L 267.655408 167.403724 
L 267.855263 167.403724 
L 267.855263 167.277848 
L 268.036965 167.277848 
L 268.048719 166.774345 
L 268.717996 166.774345 
L 268.717996 166.648469 
L 268.979774 166.648469 
L 268.979774 166.396717 
L 269.117557 166.396717 
L 269.117557 166.270841 
L 269.289105 166.270841 
L 269.289105 166.01909 
L 271.168584 166.01909 
L 271.168584 165.893214 
L 271.543806 165.893214 
L 271.543806 165.767338 
L 272.464629 165.767338 
L 272.464629 165.641462 
L 272.755003 165.641462 
L 272.755003 165.38971 
L 272.927144 165.38971 
L 272.927144 165.263834 
L 273.039404 165.263834 
L 273.039404 165.012083 
L 273.429226 165.012083 
L 273.429226 164.886207 
L 273.774425 164.886207 
L 273.774425 164.634455 
L 274.148176 164.634455 
L 274.148176 164.508579 
L 360.8064 164.508579 
L 360.8064 164.508579 
" style="fill: none; stroke: #ff00ff; stroke-width: 1.5; stroke-linecap: square"/>
   </g>
   <g id="line2d_41">
    <defs>
     <path id="m6678289cff" d="M 0 8.485281 
L 5.091169 0 
L 0 -8.485281 
L -5.091169 0 
z
" style="stroke: #ff00ff; stroke-width: 1.5; stroke-linejoin: miter"/>
    </defs>
    <g>
     <use xlink:href="#m6678289cff" x="115.661605" y="279.307366" style="fill-opacity: 0; stroke: #ff00ff; stroke-width: 1.5; stroke-linejoin: miter"/>
     <use xlink:href="#m6678289cff" x="178.437353" y="215.865931" style="fill-opacity: 0; stroke: #ff00ff; stroke-width: 1.5; stroke-linejoin: miter"/>
     <use xlink:href="#m6678289cff" x="250.686441" y="175.459779" style="fill-opacity: 0; stroke: #ff00ff; stroke-width: 1.5; stroke-linejoin: miter"/>
     <use xlink:href="#m6678289cff" x="274.148176" y="164.508579" style="fill-opacity: 0; stroke: #ff00ff; stroke-width: 1.5; stroke-linejoin: miter"/>
     <use xlink:href="#m6678289cff" x="274.148176" y="164.508579" style="fill-opacity: 0; stroke: #ff00ff; stroke-width: 1.5; stroke-linejoin: miter"/>
     <use xlink:href="#m6678289cff" x="360.8064" y="164.508579" style="fill-opacity: 0; stroke: #ff00ff; stroke-width: 1.5; stroke-linejoin: miter"/>
    </g>
   </g>
   <g id="line2d_42">
    <path style="fill: none; stroke: #ff00ff; stroke-width: 1.5; stroke-linecap: square"/>
    <g/>
   </g>
   <g id="line2d_43">
    <path d="M 274.176019 164.508579 
" clip-path="url(#pc3997e235c)" style="fill: none; stroke: #ff00ff; stroke-width: 1.5; stroke-linecap: square"/>
    <defs>
     <path id="m861d0a231b" d="M -12 12 
L 12 -12 
M -12 -12 
L 12 12 
" style="stroke: #ff00ff"/>
    </defs>
    <g clip-path="url(#pc3997e235c)">
     <use xlink:href="#m861d0a231b" x="274.176019" y="164.508579" style="fill: #ff00ff; stroke: #ff00ff"/>
    </g>
   </g>
   <g id="line2d_44">
    <defs>
     <path id="m3a4a15b6ff" d="M 0 1.5 
C 0.397805 1.5 0.77937 1.341951 1.06066 1.06066 
C 1.341951 0.77937 1.5 0.397805 1.5 0 
C 1.5 -0.397805 1.341951 -0.77937 1.06066 -1.06066 
C 0.77937 -1.341951 0.397805 -1.5 0 -1.5 
C -0.397805 -1.5 -0.77937 -1.341951 -1.06066 -1.06066 
C -1.341951 -0.77937 -1.5 -0.397805 -1.5 0 
C -1.5 0.397805 -1.341951 0.77937 -1.06066 1.06066 
C -0.77937 1.341951 -0.397805 1.5 0 1.5 
z
" style="stroke: #6495ed"/>
    </defs>
    <g>
     <use xlink:href="#m3a4a15b6ff" x="113.765312" y="252.621683" style="fill: #6495ed; stroke: #6495ed"/>
     <use xlink:href="#m3a4a15b6ff" x="113.765312" y="252.621683" style="fill: #6495ed; stroke: #6495ed"/>
    </g>
   </g>
   <g id="line2d_45">
    <path d="M 14.2848 298.944 
L 14.2848 297.055862 
L 27.323974 297.055862 
L 27.323974 296.426483 
L 34.951403 296.426483 
L 34.951403 294.790097 
L 40.363149 294.790097 
L 40.363149 294.412469 
L 44.560826 294.412469 
L 44.560826 293.657214 
L 47.990577 293.657214 
L 47.990577 293.405462 
L 50.890391 293.405462 
L 50.890391 293.027834 
L 53.402323 293.027834 
L 53.402323 291.769076 
L 59.392932 291.769076 
L 59.392932 291.265572 
L 61.029752 291.265572 
L 61.029752 291.013821 
L 62.535479 291.013821 
L 62.535479 290.762069 
L 63.929565 290.762069 
L 63.929565 290.636193 
L 65.227428 290.636193 
L 65.227428 290.13269 
L 67.581941 290.13269 
L 67.581941 289.755062 
L 68.65718 289.755062 
L 68.65718 289.629186 
L 69.674268 289.629186 
L 69.674268 289.50331 
L 71.556993 289.50331 
L 71.556993 289.251559 
L 72.432107 289.251559 
L 72.432107 289.125683 
L 73.268314 289.125683 
L 73.268314 288.999807 
L 77.628862 288.999807 
L 77.628862 288.496303 
L 78.266603 288.496303 
L 78.266603 287.9928 
L 80.621116 287.9928 
L 80.621116 287.741048 
L 81.166416 287.741048 
L 81.166416 287.615172 
L 82.211771 287.615172 
L 82.211771 287.489297 
L 82.713442 287.489297 
L 82.713442 287.363421 
L 83.202082 287.363421 
L 83.202082 287.237545 
L 84.142855 287.237545 
L 84.142855 286.985793 
L 84.596168 286.985793 
L 84.596168 286.734041 
L 85.471281 286.734041 
L 85.471281 286.608166 
L 85.894031 286.608166 
L 85.894031 286.48229 
L 86.712053 286.48229 
L 86.712053 286.356414 
L 87.495981 286.356414 
L 87.495981 286.230538 
L 87.876026 286.230538 
L 87.876026 286.104662 
L 88.972154 286.104662 
L 88.972154 285.85291 
L 89.323782 285.85291 
L 89.323782 285.727034 
L 89.668958 285.727034 
L 89.668958 285.601159 
L 90.668036 285.601159 
L 90.668036 285.475283 
L 91.305777 285.475283 
L 91.305777 285.223531 
L 92.223596 285.223531 
L 92.223596 285.097655 
L 92.811505 285.097655 
L 92.811505 284.720028 
L 93.66029 284.720028 
L 93.66029 284.594152 
L 93.934916 284.594152 
L 93.934916 284.468276 
L 94.205591 284.468276 
L 94.205591 284.3424 
L 96.480897 284.3424 
L 96.480897 284.216524 
L 96.95121 284.216524 
L 96.95121 284.090648 
L 97.410051 284.090648 
L 97.410051 283.964772 
L 97.635342 283.964772 
L 97.635342 283.838897 
L 98.933205 283.838897 
L 98.933205 283.713021 
L 99.346662 283.713021 
L 99.346662 283.587145 
L 99.751228 283.587145 
L 99.751228 283.335393 
L 99.950294 283.335393 
L 99.950294 283.209517 
L 100.726138 283.209517 
L 100.726138 283.083641 
L 102.878374 283.083641 
L 102.878374 282.328386 
L 103.047088 282.328386 
L 103.047088 280.692 
L 103.214303 280.692 
L 103.214303 280.314372 
L 103.380045 280.314372 
L 103.380045 278.300359 
L 103.544339 278.300359 
L 103.544339 276.663972 
L 103.707211 276.663972 
L 103.707211 275.782841 
L 103.868684 275.782841 
L 103.868684 275.027586 
L 104.028784 275.027586 
L 104.028784 273.768828 
L 104.187532 273.768828 
L 104.187532 273.139448 
L 104.344952 273.139448 
L 104.344952 272.132441 
L 104.655893 272.132441 
L 104.655893 271.754814 
L 104.809458 271.754814 
L 104.809458 271.377186 
L 104.961779 271.377186 
L 104.961779 270.747807 
L 105.112877 270.747807 
L 105.112877 270.496055 
L 105.26277 270.496055 
L 105.26277 269.7408 
L 105.411479 269.7408 
L 105.411479 269.614924 
L 105.559021 269.614924 
L 105.559021 268.859669 
L 105.705415 268.859669 
L 105.705415 267.223283 
L 105.850679 267.223283 
L 105.850679 266.971531 
L 105.99483 266.971531 
L 105.99483 266.719779 
L 106.137884 266.719779 
L 106.137884 266.593903 
L 106.279859 266.593903 
L 106.279859 266.468028 
L 106.42077 266.468028 
L 106.42077 265.964524 
L 106.699465 265.964524 
L 106.699465 265.838648 
L 106.837279 265.838648 
L 106.837279 265.335145 
L 106.974091 265.335145 
L 106.974091 264.957517 
L 107.109915 264.957517 
L 107.109915 264.454014 
L 107.244765 264.454014 
L 107.244765 264.328138 
L 107.5116 264.328138 
L 107.5116 263.698759 
L 107.643612 263.698759 
L 107.643612 263.572883 
L 107.774703 263.572883 
L 107.774703 263.447007 
L 108.034177 263.447007 
L 108.034177 263.069379 
L 108.162584 263.069379 
L 108.162584 262.691752 
L 108.29012 262.691752 
L 108.29012 262.188248 
L 108.416798 262.188248 
L 108.416798 261.936497 
L 108.542628 261.936497 
L 108.542628 261.810621 
L 108.667622 261.810621 
L 108.667622 261.684745 
L 108.791791 261.684745 
L 108.791791 261.558869 
L 108.915146 261.558869 
L 108.915146 261.181241 
L 109.280431 261.181241 
L 109.280431 261.055366 
L 109.400633 261.055366 
L 109.400633 260.551862 
L 109.520071 260.551862 
L 109.520071 259.544855 
L 109.638757 259.544855 
L 109.638757 259.167228 
L 109.756698 259.167228 
L 109.756698 258.537848 
L 109.873904 258.537848 
L 109.873904 258.286097 
L 109.990385 258.286097 
L 109.990385 258.160221 
L 110.106149 258.160221 
L 110.106149 257.908469 
L 110.221204 257.908469 
L 110.221204 257.153214 
L 110.335561 257.153214 
L 110.335561 256.901462 
L 110.449226 256.901462 
L 110.449226 256.64971 
L 110.562208 256.64971 
L 110.562208 256.397959 
L 110.674517 256.397959 
L 110.674517 256.146207 
L 110.897141 256.146207 
L 111.007473 255.516828 
L 111.117162 255.516828 
L 111.226215 255.013324 
L 111.442442 255.013324 
L 111.54963 254.509821 
L 111.656212 254.509821 
L 111.762192 254.006317 
L 112.385837 254.006317 
L 112.385837 253.880441 
L 112.690074 253.880441 
L 112.690074 253.754566 
L 112.989468 253.754566 
L 113.088217 253.502814 
L 113.284172 253.502814 
L 113.381389 253.125186 
L 113.478107 253.125186 
L 113.57433 252.873434 
L 113.765312 252.873434 
L 113.765312 252.621683 
L 360.8064 252.621683 
L 360.8064 252.621683 
" style="fill: none; stroke: #6495ed; stroke-width: 1.5; stroke-linecap: square"/>
   </g>
   <g id="line2d_46">
    <defs>
     <path id="m2874fcd6bc" d="M -0 6 
L 6 -6 
L -6 -6 
z
" style="stroke: #6495ed; stroke-width: 1.5; stroke-linejoin: miter"/>
    </defs>
    <g>
     <use xlink:href="#m2874fcd6bc" x="82.713442" y="287.489297" style="fill-opacity: 0; stroke: #6495ed; stroke-width: 1.5; stroke-linejoin: miter"/>
     <use xlink:href="#m2874fcd6bc" x="113.765312" y="252.873434" style="fill-opacity: 0; stroke: #6495ed; stroke-width: 1.5; stroke-linejoin: miter"/>
     <use xlink:href="#m2874fcd6bc" x="113.765312" y="252.873434" style="fill-opacity: 0; stroke: #6495ed; stroke-width: 1.5; stroke-linejoin: miter"/>
     <use xlink:href="#m2874fcd6bc" x="113.765312" y="252.621683" style="fill-opacity: 0; stroke: #6495ed; stroke-width: 1.5; stroke-linejoin: miter"/>
     <use xlink:href="#m2874fcd6bc" x="113.765312" y="252.621683" style="fill-opacity: 0; stroke: #6495ed; stroke-width: 1.5; stroke-linejoin: miter"/>
     <use xlink:href="#m2874fcd6bc" x="360.8064" y="252.621683" style="fill-opacity: 0; stroke: #6495ed; stroke-width: 1.5; stroke-linejoin: miter"/>
    </g>
   </g>
   <g id="line2d_47">
    <path style="fill: none; stroke: #6495ed; stroke-width: 1.5; stroke-linecap: square"/>
    <g/>
   </g>
   <g id="line2d_48">
    <path d="M 113.954374 252.621683 
" clip-path="url(#pc3997e235c)" style="fill: none; stroke: #6495ed; stroke-width: 1.5; stroke-linecap: square"/>
    <defs>
     <path id="m9115f32782" d="M -12 12 
L 12 -12 
M -12 -12 
L 12 12 
" style="stroke: #6495ed"/>
    </defs>
    <g clip-path="url(#pc3997e235c)">
     <use xlink:href="#m9115f32782" x="113.954374" y="252.621683" style="fill: #6495ed; stroke: #6495ed"/>
    </g>
   </g>
   <g id="line2d_49">
    <path d="M 360.8064 279.055614 
L 380.514816 293.10336 
" style="fill: none; stroke: #000080; stroke-width: 1.5; stroke-linecap: square"/>
    <g>
     <use xlink:href="#m6b3be31699" x="360.8064" y="279.055614" style="fill-opacity: 0; stroke: #000080; stroke-width: 1.5"/>
     <use xlink:href="#m6b3be31699" x="380.514816" y="293.10336" style="fill-opacity: 0; stroke: #000080; stroke-width: 1.5"/>
    </g>
   </g>
   <g id="line2d_50">
    <path d="M 360.8064 252.621683 
L 380.514816 199.65312 
" style="fill: none; stroke: #6495ed; stroke-width: 1.5; stroke-linecap: square"/>
    <g>
     <use xlink:href="#m2874fcd6bc" x="360.8064" y="252.621683" style="fill-opacity: 0; stroke: #6495ed; stroke-width: 1.5; stroke-linejoin: miter"/>
     <use xlink:href="#m2874fcd6bc" x="380.514816" y="199.65312" style="fill-opacity: 0; stroke: #6495ed; stroke-width: 1.5; stroke-linejoin: miter"/>
    </g>
   </g>
   <g id="line2d_51">
    <path d="M 360.8064 164.508579 
L 380.514816 106.20288 
" style="fill: none; stroke: #ff00ff; stroke-width: 1.5; stroke-linecap: square"/>
    <g>
     <use xlink:href="#m6678289cff" x="360.8064" y="164.508579" style="fill-opacity: 0; stroke: #ff00ff; stroke-width: 1.5; stroke-linejoin: miter"/>
     <use xlink:href="#m6678289cff" x="380.514816" y="106.20288" style="fill-opacity: 0; stroke: #ff00ff; stroke-width: 1.5; stroke-linejoin: miter"/>
    </g>
   </g>
   <g id="line2d_52">
    <path d="M 360.8064 298.944 
L 360.8064 6.912 
" style="fill: none; stroke: #000000; stroke-width: 1.5; stroke-linecap: square"/>
   </g>
   <g id="patch_3">
    <path d="M 57.6 298.944 
L 360.8064 298.944 
" style="fill: none; stroke: #000000; stroke-width: 0.8; stroke-linejoin: miter; stroke-linecap: square"/>
   </g>
   <g id="patch_4">
    <path d="M 57.6 6.912 
L 360.8064 6.912 
" style="fill: none; stroke: #000000; stroke-width: 0.8; stroke-linejoin: miter; stroke-linecap: square"/>
   </g>
   <g id="text_13">
    <!-- cma -->
    <g transform="translate(386.578944 296.966485)scale(0.14 -0.14)">
     <use xlink:href="#DejaVuSans-63"/>
     <use xlink:href="#DejaVuSans-6d" x="54.980469"/>
     <use xlink:href="#DejaVuSans-61" x="152.392578"/>
    </g>
   </g>
   <g id="text_14">
    <!-- parEgo -->
    <g transform="translate(386.578944 203.516245)scale(0.14 -0.14)">
     <defs>
      <path id="DejaVuSans-45" d="M 628 4666 
L 3578 4666 
L 3578 4134 
L 1259 4134 
L 1259 2753 
L 3481 2753 
L 3481 2222 
L 1259 2222 
L 1259 531 
L 3634 531 
L 3634 0 
L 628 0 
L 628 4666 
z
" transform="scale(0.015625)"/>
     </defs>
     <use xlink:href="#DejaVuSans-70"/>
     <use xlink:href="#DejaVuSans-61" x="63.476562"/>
     <use xlink:href="#DejaVuSans-72" x="124.755859"/>
     <use xlink:href="#DejaVuSans-45" x="165.869141"/>
     <use xlink:href="#DejaVuSans-67" x="229.052734"/>
     <use xlink:href="#DejaVuSans-6f" x="292.529297"/>
    </g>
   </g>
   <g id="text_15">
    <!-- external- -->
    <g transform="translate(386.578944 110.066005)scale(0.14 -0.14)">
     <defs>
      <path id="DejaVuSans-78" d="M 3513 3500 
L 2247 1797 
L 3578 0 
L 2900 0 
L 1881 1375 
L 863 0 
L 184 0 
L 1544 1831 
L 300 3500 
L 978 3500 
L 1906 2253 
L 2834 3500 
L 3513 3500 
z
" transform="scale(0.015625)"/>
     </defs>
     <use xlink:href="#DejaVuSans-65"/>
     <use xlink:href="#DejaVuSans-78" x="59.773438"/>
     <use xlink:href="#DejaVuSans-74" x="118.953125"/>
     <use xlink:href="#DejaVuSans-65" x="158.162109"/>
     <use xlink:href="#DejaVuSans-72" x="219.685547"/>
     <use xlink:href="#DejaVuSans-6e" x="259.048828"/>
     <use xlink:href="#DejaVuSans-61" x="322.427734"/>
     <use xlink:href="#DejaVuSans-6c" x="383.707031"/>
     <use xlink:href="#DejaVuSans-2d" x="411.490234"/>
    </g>
   </g>
   <g id="text_16">
    <!-- best 2016 -->
    <g transform="translate(386.578944 16.615765)scale(0.14 -0.14)">
     <defs>
      <path id="DejaVuSans-62" d="M 3116 1747 
Q 3116 2381 2855 2742 
Q 2594 3103 2138 3103 
Q 1681 3103 1420 2742 
Q 1159 2381 1159 1747 
Q 1159 1113 1420 752 
Q 1681 391 2138 391 
Q 2594 391 2855 752 
Q 3116 1113 3116 1747 
z
M 1159 2969 
Q 1341 3281 1617 3432 
Q 1894 3584 2278 3584 
Q 2916 3584 3314 3078 
Q 3713 2572 3713 1747 
Q 3713 922 3314 415 
Q 2916 -91 2278 -91 
Q 1894 -91 1617 61 
Q 1341 213 1159 525 
L 1159 0 
L 581 0 
L 581 4863 
L 1159 4863 
L 1159 2969 
z
" transform="scale(0.015625)"/>
     </defs>
     <use xlink:href="#DejaVuSans-62"/>
     <use xlink:href="#DejaVuSans-65" x="63.476562"/>
     <use xlink:href="#DejaVuSans-73" x="125"/>
     <use xlink:href="#DejaVuSans-74" x="177.099609"/>
     <use xlink:href="#DejaVuSans-20" x="216.308594"/>
     <use xlink:href="#DejaVuSans-32" x="248.095703"/>
     <use xlink:href="#DejaVuSans-30" x="311.71875"/>
     <use xlink:href="#DejaVuSans-31" x="375.341797"/>
     <use xlink:href="#DejaVuSans-36" x="438.964844"/>
    </g>
   </g>
   <g id="text_17">
    <!-- bbob-biobj f5, f6, f14, f15, 10-D -->
    <g transform="translate(60.632064 17.582726)scale(0.102 -0.102)">
     <defs>
      <path id="DejaVuSans-6a" d="M 603 3500 
L 1178 3500 
L 1178 -63 
Q 1178 -731 923 -1031 
Q 669 -1331 103 -1331 
L -116 -1331 
L -116 -844 
L 38 -844 
Q 366 -844 484 -692 
Q 603 -541 603 -63 
L 603 3500 
z
M 603 4863 
L 1178 4863 
L 1178 4134 
L 603 4134 
L 603 4863 
z
" transform="scale(0.015625)"/>
      <path id="DejaVuSans-35" d="M 691 4666 
L 3169 4666 
L 3169 4134 
L 1269 4134 
L 1269 2991 
Q 1406 3038 1543 3061 
Q 1681 3084 1819 3084 
Q 2600 3084 3056 2656 
Q 3513 2228 3513 1497 
Q 3513 744 3044 326 
Q 2575 -91 1722 -91 
Q 1428 -91 1123 -41 
Q 819 9 494 109 
L 494 744 
Q 775 591 1075 516 
Q 1375 441 1709 441 
Q 2250 441 2565 725 
Q 2881 1009 2881 1497 
Q 2881 1984 2565 2268 
Q 2250 2553 1709 2553 
Q 1456 2553 1204 2497 
Q 953 2441 691 2322 
L 691 4666 
z
" transform="scale(0.015625)"/>
      <path id="DejaVuSans-44" d="M 1259 4147 
L 1259 519 
L 2022 519 
Q 2988 519 3436 956 
Q 3884 1394 3884 2338 
Q 3884 3275 3436 3711 
Q 2988 4147 2022 4147 
L 1259 4147 
z
M 628 4666 
L 1925 4666 
Q 3281 4666 3915 4102 
Q 4550 3538 4550 2338 
Q 4550 1131 3912 565 
Q 3275 0 1925 0 
L 628 0 
L 628 4666 
z
" transform="scale(0.015625)"/>
     </defs>
     <use xlink:href="#DejaVuSans-62"/>
     <use xlink:href="#DejaVuSans-62" x="63.476562"/>
     <use xlink:href="#DejaVuSans-6f" x="126.953125"/>
     <use xlink:href="#DejaVuSans-62" x="188.134766"/>
     <use xlink:href="#DejaVuSans-2d" x="251.611328"/>
     <use xlink:href="#DejaVuSans-62" x="287.695312"/>
     <use xlink:href="#DejaVuSans-69" x="351.171875"/>
     <use xlink:href="#DejaVuSans-6f" x="378.955078"/>
     <use xlink:href="#DejaVuSans-62" x="440.136719"/>
     <use xlink:href="#DejaVuSans-6a" x="503.613281"/>
     <use xlink:href="#DejaVuSans-20" x="531.396484"/>
     <use xlink:href="#DejaVuSans-66" x="563.183594"/>
     <use xlink:href="#DejaVuSans-35" x="598.388672"/>
     <use xlink:href="#DejaVuSans-2c" x="662.011719"/>
     <use xlink:href="#DejaVuSans-20" x="693.798828"/>
     <use xlink:href="#DejaVuSans-66" x="725.585938"/>
     <use xlink:href="#DejaVuSans-36" x="760.791016"/>
     <use xlink:href="#DejaVuSans-2c" x="824.414062"/>
     <use xlink:href="#DejaVuSans-20" x="856.201172"/>
     <use xlink:href="#DejaVuSans-66" x="887.988281"/>
     <use xlink:href="#DejaVuSans-31" x="923.193359"/>
     <use xlink:href="#DejaVuSans-34" x="986.816406"/>
     <use xlink:href="#DejaVuSans-2c" x="1050.439453"/>
     <use xlink:href="#DejaVuSans-20" x="1082.226562"/>
     <use xlink:href="#DejaVuSans-66" x="1114.013672"/>
     <use xlink:href="#DejaVuSans-31" x="1149.21875"/>
     <use xlink:href="#DejaVuSans-35" x="1212.841797"/>
     <use xlink:href="#DejaVuSans-2c" x="1276.464844"/>
     <use xlink:href="#DejaVuSans-20" x="1308.251953"/>
     <use xlink:href="#DejaVuSans-31" x="1340.039062"/>
     <use xlink:href="#DejaVuSans-30" x="1403.662109"/>
     <use xlink:href="#DejaVuSans-2d" x="1467.285156"/>
     <use xlink:href="#DejaVuSans-44" x="1503.369141"/>
    </g>
    <!-- 58 targets: 1..-1.0e-4 -->
    <g transform="translate(60.632064 29.004495)scale(0.102 -0.102)">
     <defs>
      <path id="DejaVuSans-3a" d="M 750 794 
L 1409 794 
L 1409 0 
L 750 0 
L 750 794 
z
M 750 3309 
L 1409 3309 
L 1409 2516 
L 750 2516 
L 750 3309 
z
" transform="scale(0.015625)"/>
     </defs>
     <use xlink:href="#DejaVuSans-35"/>
     <use xlink:href="#DejaVuSans-38" x="63.623047"/>
     <use xlink:href="#DejaVuSans-20" x="127.246094"/>
     <use xlink:href="#DejaVuSans-74" x="159.033203"/>
     <use xlink:href="#DejaVuSans-61" x="198.242188"/>
     <use xlink:href="#DejaVuSans-72" x="259.521484"/>
     <use xlink:href="#DejaVuSans-67" x="298.884766"/>
     <use xlink:href="#DejaVuSans-65" x="362.361328"/>
     <use xlink:href="#DejaVuSans-74" x="423.884766"/>
     <use xlink:href="#DejaVuSans-73" x="463.09375"/>
     <use xlink:href="#DejaVuSans-3a" x="515.193359"/>
     <use xlink:href="#DejaVuSans-20" x="548.884766"/>
     <use xlink:href="#DejaVuSans-31" x="580.671875"/>
     <use xlink:href="#DejaVuSans-2e" x="644.294922"/>
     <use xlink:href="#DejaVuSans-2e" x="676.082031"/>
     <use xlink:href="#DejaVuSans-2d" x="707.869141"/>
     <use xlink:href="#DejaVuSans-31" x="743.953125"/>
     <use xlink:href="#DejaVuSans-2e" x="807.576172"/>
     <use xlink:href="#DejaVuSans-30" x="839.363281"/>
     <use xlink:href="#DejaVuSans-65" x="902.986328"/>
     <use xlink:href="#DejaVuSans-2d" x="964.509766"/>
     <use xlink:href="#DejaVuSans-34" x="1000.59375"/>
    </g>
    <!-- 10 instances -->
    <g transform="translate(60.632064 40.426264)scale(0.102 -0.102)">
     <use xlink:href="#DejaVuSans-31"/>
     <use xlink:href="#DejaVuSans-30" x="63.623047"/>
     <use xlink:href="#DejaVuSans-20" x="127.246094"/>
     <use xlink:href="#DejaVuSans-69" x="159.033203"/>
     <use xlink:href="#DejaVuSans-6e" x="186.816406"/>
     <use xlink:href="#DejaVuSans-73" x="250.195312"/>
     <use xlink:href="#DejaVuSans-74" x="302.294922"/>
     <use xlink:href="#DejaVuSans-61" x="341.503906"/>
     <use xlink:href="#DejaVuSans-6e" x="402.783203"/>
     <use xlink:href="#DejaVuSans-63" x="466.162109"/>
     <use xlink:href="#DejaVuSans-65" x="521.142578"/>
     <use xlink:href="#DejaVuSans-73" x="582.666016"/>
    </g>
   </g>
   <g id="text_18">
    <!-- v2.6, hv-hash=ff0e71e8cd978373 -->
    <g style="fill: #808080" transform="translate(123.707887 293.943992)scale(0.1 -0.1)">
     <defs>
      <path id="DejaVuSans-68" d="M 3513 2113 
L 3513 0 
L 2938 0 
L 2938 2094 
Q 2938 2591 2744 2837 
Q 2550 3084 2163 3084 
Q 1697 3084 1428 2787 
Q 1159 2491 1159 1978 
L 1159 0 
L 581 0 
L 581 4863 
L 1159 4863 
L 1159 2956 
Q 1366 3272 1645 3428 
Q 1925 3584 2291 3584 
Q 2894 3584 3203 3211 
Q 3513 2838 3513 2113 
z
" transform="scale(0.015625)"/>
      <path id="DejaVuSans-3d" d="M 678 2906 
L 4684 2906 
L 4684 2381 
L 678 2381 
L 678 2906 
z
M 678 1631 
L 4684 1631 
L 4684 1100 
L 678 1100 
L 678 1631 
z
" transform="scale(0.015625)"/>
      <path id="DejaVuSans-37" d="M 525 4666 
L 3525 4666 
L 3525 4397 
L 1831 0 
L 1172 0 
L 2766 4134 
L 525 4134 
L 525 4666 
z
" transform="scale(0.015625)"/>
      <path id="DejaVuSans-39" d="M 703 97 
L 703 672 
Q 941 559 1184 500 
Q 1428 441 1663 441 
Q 2288 441 2617 861 
Q 2947 1281 2994 2138 
Q 2813 1869 2534 1725 
Q 2256 1581 1919 1581 
Q 1219 1581 811 2004 
Q 403 2428 403 3163 
Q 403 3881 828 4315 
Q 1253 4750 1959 4750 
Q 2769 4750 3195 4129 
Q 3622 3509 3622 2328 
Q 3622 1225 3098 567 
Q 2575 -91 1691 -91 
Q 1453 -91 1209 -44 
Q 966 3 703 97 
z
M 1959 2075 
Q 2384 2075 2632 2365 
Q 2881 2656 2881 3163 
Q 2881 3666 2632 3958 
Q 2384 4250 1959 4250 
Q 1534 4250 1286 3958 
Q 1038 3666 1038 3163 
Q 1038 2656 1286 2365 
Q 1534 2075 1959 2075 
z
" transform="scale(0.015625)"/>
      <path id="DejaVuSans-33" d="M 2597 2516 
Q 3050 2419 3304 2112 
Q 3559 1806 3559 1356 
Q 3559 666 3084 287 
Q 2609 -91 1734 -91 
Q 1441 -91 1130 -33 
Q 819 25 488 141 
L 488 750 
Q 750 597 1062 519 
Q 1375 441 1716 441 
Q 2309 441 2620 675 
Q 2931 909 2931 1356 
Q 2931 1769 2642 2001 
Q 2353 2234 1838 2234 
L 1294 2234 
L 1294 2753 
L 1863 2753 
Q 2328 2753 2575 2939 
Q 2822 3125 2822 3475 
Q 2822 3834 2567 4026 
Q 2313 4219 1838 4219 
Q 1578 4219 1281 4162 
Q 984 4106 628 3988 
L 628 4550 
Q 988 4650 1302 4700 
Q 1616 4750 1894 4750 
Q 2613 4750 3031 4423 
Q 3450 4097 3450 3541 
Q 3450 3153 3228 2886 
Q 3006 2619 2597 2516 
z
" transform="scale(0.015625)"/>
     </defs>
     <use xlink:href="#DejaVuSans-76"/>
     <use xlink:href="#DejaVuSans-32" x="59.179688"/>
     <use xlink:href="#DejaVuSans-2e" x="122.802734"/>
     <use xlink:href="#DejaVuSans-36" x="154.589844"/>
     <use xlink:href="#DejaVuSans-2c" x="218.212891"/>
     <use xlink:href="#DejaVuSans-20" x="250"/>
     <use xlink:href="#DejaVuSans-68" x="281.787109"/>
     <use xlink:href="#DejaVuSans-76" x="345.166016"/>
     <use xlink:href="#DejaVuSans-2d" x="401.720703"/>
     <use xlink:href="#DejaVuSans-68" x="437.804688"/>
     <use xlink:href="#DejaVuSans-61" x="501.183594"/>
     <use xlink:href="#DejaVuSans-73" x="562.462891"/>
     <use xlink:href="#DejaVuSans-68" x="614.5625"/>
     <use xlink:href="#DejaVuSans-3d" x="677.941406"/>
     <use xlink:href="#DejaVuSans-66" x="761.730469"/>
     <use xlink:href="#DejaVuSans-66" x="796.935547"/>
     <use xlink:href="#DejaVuSans-30" x="832.140625"/>
     <use xlink:href="#DejaVuSans-65" x="895.763672"/>
     <use xlink:href="#DejaVuSans-37" x="957.287109"/>
     <use xlink:href="#DejaVuSans-31" x="1020.910156"/>
     <use xlink:href="#DejaVuSans-65" x="1084.533203"/>
     <use xlink:href="#DejaVuSans-38" x="1146.056641"/>
     <use xlink:href="#DejaVuSans-63" x="1209.679688"/>
     <use xlink:href="#DejaVuSans-64" x="1264.660156"/>
     <use xlink:href="#DejaVuSans-39" x="1328.136719"/>
     <use xlink:href="#DejaVuSans-37" x="1391.759766"/>
     <use xlink:href="#DejaVuSans-38" x="1455.382812"/>
     <use xlink:href="#DejaVuSans-33" x="1519.005859"/>
     <use xlink:href="#DejaVuSans-37" x="1582.628906"/>
     <use xlink:href="#DejaVuSans-33" x="1646.251953"/>
    </g>
   </g>
  </g>
 </g>
 <defs>
  <clipPath id="pc3997e235c">
   <rect x="57.6" y="6.912" width="303.2064" height="292.032"/>
  </clipPath>
 </defs>
</svg>
