<?xml version="1.0" encoding="utf-8" standalone="no"?>
<!DOCTYPE svg PUBLIC "-//W3C//DTD SVG 1.1//EN"
  "http://www.w3.org/Graphics/SVG/1.1/DTD/svg11.dtd">
<svg xmlns:xlink="http://www.w3.org/1999/xlink" width="460.8pt" height="345.6pt" viewBox="0 0 460.8 345.6" xmlns="http://www.w3.org/2000/svg" version="1.1">
 <metadata>
  <rdf:RDF xmlns:dc="http://purl.org/dc/elements/1.1/" xmlns:cc="http://creativecommons.org/ns#" xmlns:rdf="http://www.w3.org/1999/02/22-rdf-syntax-ns#">
   <cc:Work>
    <dc:type rdf:resource="http://purl.org/dc/dcmitype/StillImage"/>
    <dc:date>2022-06-19T21:02:48.072248</dc:date>
    <dc:format>image/svg+xml</dc:format>
    <dc:creator>
     <cc:Agent>
      <dc:title>Matplotlib v3.5.1, https://matplotlib.org/</dc:title>
     </cc:Agent>
    </dc:creator>
   </cc:Work>
  </rdf:RDF>
 </metadata>
 <defs>
  <style type="text/css">*{stroke-linejoin: round; stroke-linecap: butt}</style>
 </defs>
 <g id="figure_1">
  <g id="patch_1">
   <path d="M 0 345.6 
L 460.8 345.6 
L 460.8 0 
L 0 0 
z
" style="fill: #ffffff"/>
  </g>
  <g id="axes_1">
   <g id="patch_2">
    <path d="M 57.6 298.944 
L 360.8064 298.944 
L 360.8064 6.912 
L 57.6 6.912 
z
" style="fill: #ffffff"/>
   </g>
   <g id="line2d_1">
    <path d="M 34.951403 298.944 
L 34.951403 297.685241 
L 40.363149 297.685241 
L 40.363149 295.167724 
L 53.402323 295.167724 
L 53.402323 293.908966 
L 61.029752 293.908966 
L 61.029752 291.391448 
L 63.929565 291.391448 
L 63.929565 288.873931 
L 71.556993 288.873931 
L 71.556993 286.356414 
L 76.284608 286.356414 
L 76.284608 283.838897 
L 85.894031 283.838897 
L 85.894031 281.321379 
L 106.974091 281.321379 
L 106.974091 278.803862 
L 114.326893 278.803862 
L 114.326893 276.286345 
L 135.805631 276.286345 
L 135.805631 273.768828 
L 152.847174 273.768828 
L 152.847174 272.510069 
L 155.588239 272.510069 
L 155.588239 271.25131 
L 160.785349 271.25131 
L 160.785349 269.992552 
L 162.928937 269.992552 
L 162.928937 268.733793 
L 168.137692 268.733793 
L 168.137692 264.957517 
L 170.983137 264.957517 
L 170.983137 261.181241 
L 172.00309 261.181241 
L 172.00309 257.404966 
L 177.181311 257.404966 
L 177.181311 253.62869 
L 181.094875 253.62869 
L 181.094875 251.111172 
L 182.178947 251.111172 
L 182.178947 248.593655 
L 186.359601 248.593655 
L 186.359601 247.334897 
L 189.633768 247.334897 
L 189.633768 244.817379 
L 193.690174 244.817379 
L 193.690174 242.299862 
L 197.40431 242.299862 
L 197.40431 239.782345 
L 202.684723 239.782345 
L 202.684723 238.523586 
L 203.138516 238.523586 
L 203.138516 237.264828 
L 212.201045 237.264828 
L 212.201045 233.488552 
L 214.731609 233.488552 
L 214.731609 232.229793 
L 219.188738 232.229793 
L 219.188738 229.712276 
L 228.763914 229.712276 
L 228.763914 227.194759 
L 230.384533 227.194759 
L 230.384533 224.677241 
L 233.392686 224.677241 
L 233.392686 222.159724 
L 235.568443 222.159724 
L 235.568443 218.383448 
L 247.675868 218.383448 
L 247.748908 213.348414 
L 249.182063 213.348414 
L 249.182063 209.572138 
L 251.077228 209.572138 
L 251.077228 205.795862 
L 256.409362 205.795862 
L 256.409362 203.278345 
L 257.734834 203.278345 
L 257.734834 200.760828 
L 261.687539 200.760828 
L 261.687539 198.24331 
L 267.198279 198.24331 
L 267.198279 195.725793 
L 268.215172 195.725793 
L 268.215172 193.208276 
L 269.214954 193.208276 
L 269.214954 191.949517 
L 277.511899 191.949517 
L 277.511899 188.173241 
L 281.155228 188.173241 
L 281.155228 185.655724 
L 285.62365 185.655724 
L 285.62365 183.138207 
L 287.069206 183.138207 
L 287.069206 180.62069 
L 288.136522 180.62069 
L 288.136522 179.361931 
L 292.258064 179.361931 
L 292.258064 176.844414 
L 297.809336 176.844414 
L 297.809336 175.585655 
L 298.455266 175.585655 
L 298.455266 174.326897 
L 300.288724 174.326897 
L 300.288724 170.550621 
L 304.200603 170.550621 
L 304.200603 169.291862 
L 309.862305 169.291862 
L 309.862305 165.515586 
L 312.860466 165.515586 
L 312.860466 161.73931 
L 313.527935 161.73931 
L 313.527935 157.963034 
L 317.498063 157.963034 
L 317.498063 156.704276 
L 317.692998 156.704276 
L 317.692998 154.186759 
L 324.990163 154.186759 
L 324.990163 152.928 
L 325.697994 152.928 
L 325.697994 151.669241 
L 328.053816 151.669241 
L 328.053816 150.410483 
L 330.071673 150.410483 
L 330.071673 146.634207 
L 332.101068 146.634207 
L 332.101068 142.857931 
L 332.678919 142.857931 
L 332.678919 140.340414 
L 335.209415 140.340414 
L 335.209415 136.564138 
L 339.451845 136.564138 
L 339.451845 135.305379 
L 340.528312 135.305379 
L 340.528312 131.529103 
L 342.046182 131.529103 
L 342.090205 126.494069 
L 349.260802 126.494069 
L 349.260802 125.23531 
L 349.403306 125.23531 
L 349.403306 122.717793 
L 360.8064 122.717793 
L 360.8064 122.717793 
" style="fill: none; stroke: #f5deb3; stroke-width: 4; stroke-linecap: square"/>
   </g>
   <g id="line2d_2">
    <defs>
     <path id="m9ea5fdfdb9" d="M 0 7.778175 
L 7.778175 0 
L 0 -7.778175 
L -7.778175 0 
z
" style="stroke: #f5deb3; stroke-width: 1.5; stroke-linejoin: miter"/>
    </defs>
    <g>
     <use xlink:href="#m9ea5fdfdb9" x="135.805631" y="273.768828" style="fill: #f5deb3; stroke: #f5deb3; stroke-width: 1.5; stroke-linejoin: miter"/>
     <use xlink:href="#m9ea5fdfdb9" x="214.731609" y="233.488552" style="fill: #f5deb3; stroke: #f5deb3; stroke-width: 1.5; stroke-linejoin: miter"/>
     <use xlink:href="#m9ea5fdfdb9" x="281.155228" y="188.173241" style="fill: #f5deb3; stroke: #f5deb3; stroke-width: 1.5; stroke-linejoin: miter"/>
     <use xlink:href="#m9ea5fdfdb9" x="324.990163" y="154.186759" style="fill: #f5deb3; stroke: #f5deb3; stroke-width: 1.5; stroke-linejoin: miter"/>
     <use xlink:href="#m9ea5fdfdb9" x="349.403306" y="122.717793" style="fill: #f5deb3; stroke: #f5deb3; stroke-width: 1.5; stroke-linejoin: miter"/>
     <use xlink:href="#m9ea5fdfdb9" x="360.8064" y="122.717793" style="fill: #f5deb3; stroke: #f5deb3; stroke-width: 1.5; stroke-linejoin: miter"/>
    </g>
   </g>
   <g id="line2d_3">
    <path style="fill: none; stroke: #f5deb3; stroke-width: 4; stroke-linecap: square"/>
    <g/>
   </g>
   <g id="line2d_4">
    <path d="M 360.8064 122.717793 
L 380.514816 12.75264 
" style="fill: none; stroke: #f5deb3; stroke-width: 4; stroke-linecap: square"/>
    <g>
     <use xlink:href="#m9ea5fdfdb9" x="360.8064" y="122.717793" style="fill: #f5deb3; stroke: #f5deb3; stroke-width: 1.5; stroke-linejoin: miter"/>
     <use xlink:href="#m9ea5fdfdb9" x="380.514816" y="12.75264" style="fill: #f5deb3; stroke: #f5deb3; stroke-width: 1.5; stroke-linejoin: miter"/>
    </g>
   </g>
   <g id="matplotlib.axis_1">
    <g id="xtick_1">
     <g id="line2d_5">
      <path d="M 57.6 298.944 
L 57.6 6.912 
" clip-path="url(#p79d1fc8798)" style="fill: none; stroke: #b0b0b0; stroke-width: 0.8; stroke-linecap: square"/>
     </g>
     <g id="line2d_6">
      <defs>
       <path id="m602833582d" d="M 0 0 
L 0 3.5 
" style="stroke: #000000; stroke-width: 0.8"/>
      </defs>
      <g>
       <use xlink:href="#m602833582d" x="57.6" y="298.944" style="stroke: #000000; stroke-width: 0.8"/>
      </g>
     </g>
     <g id="text_1">
      <!-- 0 -->
      <g transform="translate(52.191875 318.861344)scale(0.17 -0.17)">
       <defs>
        <path id="DejaVuSans-30" d="M 2034 4250 
Q 1547 4250 1301 3770 
Q 1056 3291 1056 2328 
Q 1056 1369 1301 889 
Q 1547 409 2034 409 
Q 2525 409 2770 889 
Q 3016 1369 3016 2328 
Q 3016 3291 2770 3770 
Q 2525 4250 2034 4250 
z
M 2034 4750 
Q 2819 4750 3233 4129 
Q 3647 3509 3647 2328 
Q 3647 1150 3233 529 
Q 2819 -91 2034 -91 
Q 1250 -91 836 529 
Q 422 1150 422 2328 
Q 422 3509 836 4129 
Q 1250 4750 2034 4750 
z
" transform="scale(0.015625)"/>
       </defs>
       <use xlink:href="#DejaVuSans-30"/>
      </g>
     </g>
    </g>
    <g id="xtick_2">
     <g id="line2d_7">
      <path d="M 144.2304 298.944 
L 144.2304 6.912 
" clip-path="url(#p79d1fc8798)" style="fill: none; stroke: #b0b0b0; stroke-width: 0.8; stroke-linecap: square"/>
     </g>
     <g id="line2d_8">
      <g>
       <use xlink:href="#m602833582d" x="144.2304" y="298.944" style="stroke: #000000; stroke-width: 0.8"/>
      </g>
     </g>
     <g id="text_2">
      <!-- 2 -->
      <g transform="translate(138.822275 318.861344)scale(0.17 -0.17)">
       <defs>
        <path id="DejaVuSans-32" d="M 1228 531 
L 3431 531 
L 3431 0 
L 469 0 
L 469 531 
Q 828 903 1448 1529 
Q 2069 2156 2228 2338 
Q 2531 2678 2651 2914 
Q 2772 3150 2772 3378 
Q 2772 3750 2511 3984 
Q 2250 4219 1831 4219 
Q 1534 4219 1204 4116 
Q 875 4013 500 3803 
L 500 4441 
Q 881 4594 1212 4672 
Q 1544 4750 1819 4750 
Q 2544 4750 2975 4387 
Q 3406 4025 3406 3419 
Q 3406 3131 3298 2873 
Q 3191 2616 2906 2266 
Q 2828 2175 2409 1742 
Q 1991 1309 1228 531 
z
" transform="scale(0.015625)"/>
       </defs>
       <use xlink:href="#DejaVuSans-32"/>
      </g>
     </g>
    </g>
    <g id="xtick_3">
     <g id="line2d_9">
      <path d="M 230.8608 298.944 
L 230.8608 6.912 
" clip-path="url(#p79d1fc8798)" style="fill: none; stroke: #b0b0b0; stroke-width: 0.8; stroke-linecap: square"/>
     </g>
     <g id="line2d_10">
      <g>
       <use xlink:href="#m602833582d" x="230.8608" y="298.944" style="stroke: #000000; stroke-width: 0.8"/>
      </g>
     </g>
     <g id="text_3">
      <!-- 4 -->
      <g transform="translate(225.452675 318.861344)scale(0.17 -0.17)">
       <defs>
        <path id="DejaVuSans-34" d="M 2419 4116 
L 825 1625 
L 2419 1625 
L 2419 4116 
z
M 2253 4666 
L 3047 4666 
L 3047 1625 
L 3713 1625 
L 3713 1100 
L 3047 1100 
L 3047 0 
L 2419 0 
L 2419 1100 
L 313 1100 
L 313 1709 
L 2253 4666 
z
" transform="scale(0.015625)"/>
       </defs>
       <use xlink:href="#DejaVuSans-34"/>
      </g>
     </g>
    </g>
    <g id="xtick_4">
     <g id="line2d_11">
      <path d="M 317.4912 298.944 
L 317.4912 6.912 
" clip-path="url(#p79d1fc8798)" style="fill: none; stroke: #b0b0b0; stroke-width: 0.8; stroke-linecap: square"/>
     </g>
     <g id="line2d_12">
      <g>
       <use xlink:href="#m602833582d" x="317.4912" y="298.944" style="stroke: #000000; stroke-width: 0.8"/>
      </g>
     </g>
     <g id="text_4">
      <!-- 6 -->
      <g transform="translate(312.083075 318.861344)scale(0.17 -0.17)">
       <defs>
        <path id="DejaVuSans-36" d="M 2113 2584 
Q 1688 2584 1439 2293 
Q 1191 2003 1191 1497 
Q 1191 994 1439 701 
Q 1688 409 2113 409 
Q 2538 409 2786 701 
Q 3034 994 3034 1497 
Q 3034 2003 2786 2293 
Q 2538 2584 2113 2584 
z
M 3366 4563 
L 3366 3988 
Q 3128 4100 2886 4159 
Q 2644 4219 2406 4219 
Q 1781 4219 1451 3797 
Q 1122 3375 1075 2522 
Q 1259 2794 1537 2939 
Q 1816 3084 2150 3084 
Q 2853 3084 3261 2657 
Q 3669 2231 3669 1497 
Q 3669 778 3244 343 
Q 2819 -91 2113 -91 
Q 1303 -91 875 529 
Q 447 1150 447 2328 
Q 447 3434 972 4092 
Q 1497 4750 2381 4750 
Q 2619 4750 2861 4703 
Q 3103 4656 3366 4563 
z
" transform="scale(0.015625)"/>
       </defs>
       <use xlink:href="#DejaVuSans-36"/>
      </g>
     </g>
    </g>
    <g id="xtick_5">
     <g id="line2d_13">
      <path d="M 100.9152 298.944 
L 100.9152 6.912 
" clip-path="url(#p79d1fc8798)" style="fill: none; stroke: #b0b0b0; stroke-width: 0.8; stroke-linecap: square"/>
     </g>
     <g id="line2d_14">
      <defs>
       <path id="m1b4b20ec8a" d="M 0 0 
L 0 2 
" style="stroke: #000000; stroke-width: 0.6"/>
      </defs>
      <g>
       <use xlink:href="#m1b4b20ec8a" x="100.9152" y="298.944" style="stroke: #000000; stroke-width: 0.6"/>
      </g>
     </g>
    </g>
    <g id="xtick_6">
     <g id="line2d_15">
      <path d="M 187.5456 298.944 
L 187.5456 6.912 
" clip-path="url(#p79d1fc8798)" style="fill: none; stroke: #b0b0b0; stroke-width: 0.8; stroke-linecap: square"/>
     </g>
     <g id="line2d_16">
      <g>
       <use xlink:href="#m1b4b20ec8a" x="187.5456" y="298.944" style="stroke: #000000; stroke-width: 0.6"/>
      </g>
     </g>
    </g>
    <g id="xtick_7">
     <g id="line2d_17">
      <path d="M 274.176 298.944 
L 274.176 6.912 
" clip-path="url(#p79d1fc8798)" style="fill: none; stroke: #b0b0b0; stroke-width: 0.8; stroke-linecap: square"/>
     </g>
     <g id="line2d_18">
      <g>
       <use xlink:href="#m1b4b20ec8a" x="274.176" y="298.944" style="stroke: #000000; stroke-width: 0.6"/>
      </g>
     </g>
    </g>
    <g id="xtick_8">
     <g id="line2d_19">
      <path d="M 360.8064 298.944 
L 360.8064 6.912 
" clip-path="url(#p79d1fc8798)" style="fill: none; stroke: #b0b0b0; stroke-width: 0.8; stroke-linecap: square"/>
     </g>
     <g id="line2d_20">
      <g>
       <use xlink:href="#m1b4b20ec8a" x="360.8064" y="298.944" style="stroke: #000000; stroke-width: 0.6"/>
      </g>
     </g>
    </g>
    <g id="text_5">
     <!-- log10(# f-evals / dimension) -->
     <g transform="translate(88.823278 339.314156)scale(0.17 -0.17)">
      <defs>
       <path id="DejaVuSans-6c" d="M 603 4863 
L 1178 4863 
L 1178 0 
L 603 0 
L 603 4863 
z
" transform="scale(0.015625)"/>
       <path id="DejaVuSans-6f" d="M 1959 3097 
Q 1497 3097 1228 2736 
Q 959 2375 959 1747 
Q 959 1119 1226 758 
Q 1494 397 1959 397 
Q 2419 397 2687 759 
Q 2956 1122 2956 1747 
Q 2956 2369 2687 2733 
Q 2419 3097 1959 3097 
z
M 1959 3584 
Q 2709 3584 3137 3096 
Q 3566 2609 3566 1747 
Q 3566 888 3137 398 
Q 2709 -91 1959 -91 
Q 1206 -91 779 398 
Q 353 888 353 1747 
Q 353 2609 779 3096 
Q 1206 3584 1959 3584 
z
" transform="scale(0.015625)"/>
       <path id="DejaVuSans-67" d="M 2906 1791 
Q 2906 2416 2648 2759 
Q 2391 3103 1925 3103 
Q 1463 3103 1205 2759 
Q 947 2416 947 1791 
Q 947 1169 1205 825 
Q 1463 481 1925 481 
Q 2391 481 2648 825 
Q 2906 1169 2906 1791 
z
M 3481 434 
Q 3481 -459 3084 -895 
Q 2688 -1331 1869 -1331 
Q 1566 -1331 1297 -1286 
Q 1028 -1241 775 -1147 
L 775 -588 
Q 1028 -725 1275 -790 
Q 1522 -856 1778 -856 
Q 2344 -856 2625 -561 
Q 2906 -266 2906 331 
L 2906 616 
Q 2728 306 2450 153 
Q 2172 0 1784 0 
Q 1141 0 747 490 
Q 353 981 353 1791 
Q 353 2603 747 3093 
Q 1141 3584 1784 3584 
Q 2172 3584 2450 3431 
Q 2728 3278 2906 2969 
L 2906 3500 
L 3481 3500 
L 3481 434 
z
" transform="scale(0.015625)"/>
       <path id="DejaVuSans-31" d="M 794 531 
L 1825 531 
L 1825 4091 
L 703 3866 
L 703 4441 
L 1819 4666 
L 2450 4666 
L 2450 531 
L 3481 531 
L 3481 0 
L 794 0 
L 794 531 
z
" transform="scale(0.015625)"/>
       <path id="DejaVuSans-28" d="M 1984 4856 
Q 1566 4138 1362 3434 
Q 1159 2731 1159 2009 
Q 1159 1288 1364 580 
Q 1569 -128 1984 -844 
L 1484 -844 
Q 1016 -109 783 600 
Q 550 1309 550 2009 
Q 550 2706 781 3412 
Q 1013 4119 1484 4856 
L 1984 4856 
z
" transform="scale(0.015625)"/>
       <path id="DejaVuSans-23" d="M 3272 2816 
L 2363 2816 
L 2100 1772 
L 3016 1772 
L 3272 2816 
z
M 2803 4594 
L 2478 3297 
L 3391 3297 
L 3719 4594 
L 4219 4594 
L 3897 3297 
L 4872 3297 
L 4872 2816 
L 3775 2816 
L 3519 1772 
L 4513 1772 
L 4513 1294 
L 3397 1294 
L 3072 0 
L 2572 0 
L 2894 1294 
L 1978 1294 
L 1656 0 
L 1153 0 
L 1478 1294 
L 494 1294 
L 494 1772 
L 1594 1772 
L 1856 2816 
L 850 2816 
L 850 3297 
L 1978 3297 
L 2297 4594 
L 2803 4594 
z
" transform="scale(0.015625)"/>
       <path id="DejaVuSans-20" transform="scale(0.015625)"/>
       <path id="DejaVuSans-66" d="M 2375 4863 
L 2375 4384 
L 1825 4384 
Q 1516 4384 1395 4259 
Q 1275 4134 1275 3809 
L 1275 3500 
L 2222 3500 
L 2222 3053 
L 1275 3053 
L 1275 0 
L 697 0 
L 697 3053 
L 147 3053 
L 147 3500 
L 697 3500 
L 697 3744 
Q 697 4328 969 4595 
Q 1241 4863 1831 4863 
L 2375 4863 
z
" transform="scale(0.015625)"/>
       <path id="DejaVuSans-2d" d="M 313 2009 
L 1997 2009 
L 1997 1497 
L 313 1497 
L 313 2009 
z
" transform="scale(0.015625)"/>
       <path id="DejaVuSans-65" d="M 3597 1894 
L 3597 1613 
L 953 1613 
Q 991 1019 1311 708 
Q 1631 397 2203 397 
Q 2534 397 2845 478 
Q 3156 559 3463 722 
L 3463 178 
Q 3153 47 2828 -22 
Q 2503 -91 2169 -91 
Q 1331 -91 842 396 
Q 353 884 353 1716 
Q 353 2575 817 3079 
Q 1281 3584 2069 3584 
Q 2775 3584 3186 3129 
Q 3597 2675 3597 1894 
z
M 3022 2063 
Q 3016 2534 2758 2815 
Q 2500 3097 2075 3097 
Q 1594 3097 1305 2825 
Q 1016 2553 972 2059 
L 3022 2063 
z
" transform="scale(0.015625)"/>
       <path id="DejaVuSans-76" d="M 191 3500 
L 800 3500 
L 1894 563 
L 2988 3500 
L 3597 3500 
L 2284 0 
L 1503 0 
L 191 3500 
z
" transform="scale(0.015625)"/>
       <path id="DejaVuSans-61" d="M 2194 1759 
Q 1497 1759 1228 1600 
Q 959 1441 959 1056 
Q 959 750 1161 570 
Q 1363 391 1709 391 
Q 2188 391 2477 730 
Q 2766 1069 2766 1631 
L 2766 1759 
L 2194 1759 
z
M 3341 1997 
L 3341 0 
L 2766 0 
L 2766 531 
Q 2569 213 2275 61 
Q 1981 -91 1556 -91 
Q 1019 -91 701 211 
Q 384 513 384 1019 
Q 384 1609 779 1909 
Q 1175 2209 1959 2209 
L 2766 2209 
L 2766 2266 
Q 2766 2663 2505 2880 
Q 2244 3097 1772 3097 
Q 1472 3097 1187 3025 
Q 903 2953 641 2809 
L 641 3341 
Q 956 3463 1253 3523 
Q 1550 3584 1831 3584 
Q 2591 3584 2966 3190 
Q 3341 2797 3341 1997 
z
" transform="scale(0.015625)"/>
       <path id="DejaVuSans-73" d="M 2834 3397 
L 2834 2853 
Q 2591 2978 2328 3040 
Q 2066 3103 1784 3103 
Q 1356 3103 1142 2972 
Q 928 2841 928 2578 
Q 928 2378 1081 2264 
Q 1234 2150 1697 2047 
L 1894 2003 
Q 2506 1872 2764 1633 
Q 3022 1394 3022 966 
Q 3022 478 2636 193 
Q 2250 -91 1575 -91 
Q 1294 -91 989 -36 
Q 684 19 347 128 
L 347 722 
Q 666 556 975 473 
Q 1284 391 1588 391 
Q 1994 391 2212 530 
Q 2431 669 2431 922 
Q 2431 1156 2273 1281 
Q 2116 1406 1581 1522 
L 1381 1569 
Q 847 1681 609 1914 
Q 372 2147 372 2553 
Q 372 3047 722 3315 
Q 1072 3584 1716 3584 
Q 2034 3584 2315 3537 
Q 2597 3491 2834 3397 
z
" transform="scale(0.015625)"/>
       <path id="DejaVuSans-2f" d="M 1625 4666 
L 2156 4666 
L 531 -594 
L 0 -594 
L 1625 4666 
z
" transform="scale(0.015625)"/>
       <path id="DejaVuSans-64" d="M 2906 2969 
L 2906 4863 
L 3481 4863 
L 3481 0 
L 2906 0 
L 2906 525 
Q 2725 213 2448 61 
Q 2172 -91 1784 -91 
Q 1150 -91 751 415 
Q 353 922 353 1747 
Q 353 2572 751 3078 
Q 1150 3584 1784 3584 
Q 2172 3584 2448 3432 
Q 2725 3281 2906 2969 
z
M 947 1747 
Q 947 1113 1208 752 
Q 1469 391 1925 391 
Q 2381 391 2643 752 
Q 2906 1113 2906 1747 
Q 2906 2381 2643 2742 
Q 2381 3103 1925 3103 
Q 1469 3103 1208 2742 
Q 947 2381 947 1747 
z
" transform="scale(0.015625)"/>
       <path id="DejaVuSans-69" d="M 603 3500 
L 1178 3500 
L 1178 0 
L 603 0 
L 603 3500 
z
M 603 4863 
L 1178 4863 
L 1178 4134 
L 603 4134 
L 603 4863 
z
" transform="scale(0.015625)"/>
       <path id="DejaVuSans-6d" d="M 3328 2828 
Q 3544 3216 3844 3400 
Q 4144 3584 4550 3584 
Q 5097 3584 5394 3201 
Q 5691 2819 5691 2113 
L 5691 0 
L 5113 0 
L 5113 2094 
Q 5113 2597 4934 2840 
Q 4756 3084 4391 3084 
Q 3944 3084 3684 2787 
Q 3425 2491 3425 1978 
L 3425 0 
L 2847 0 
L 2847 2094 
Q 2847 2600 2669 2842 
Q 2491 3084 2119 3084 
Q 1678 3084 1418 2786 
Q 1159 2488 1159 1978 
L 1159 0 
L 581 0 
L 581 3500 
L 1159 3500 
L 1159 2956 
Q 1356 3278 1631 3431 
Q 1906 3584 2284 3584 
Q 2666 3584 2933 3390 
Q 3200 3197 3328 2828 
z
" transform="scale(0.015625)"/>
       <path id="DejaVuSans-6e" d="M 3513 2113 
L 3513 0 
L 2938 0 
L 2938 2094 
Q 2938 2591 2744 2837 
Q 2550 3084 2163 3084 
Q 1697 3084 1428 2787 
Q 1159 2491 1159 1978 
L 1159 0 
L 581 0 
L 581 3500 
L 1159 3500 
L 1159 2956 
Q 1366 3272 1645 3428 
Q 1925 3584 2291 3584 
Q 2894 3584 3203 3211 
Q 3513 2838 3513 2113 
z
" transform="scale(0.015625)"/>
       <path id="DejaVuSans-29" d="M 513 4856 
L 1013 4856 
Q 1481 4119 1714 3412 
Q 1947 2706 1947 2009 
Q 1947 1309 1714 600 
Q 1481 -109 1013 -844 
L 513 -844 
Q 928 -128 1133 580 
Q 1338 1288 1338 2009 
Q 1338 2731 1133 3434 
Q 928 4138 513 4856 
z
" transform="scale(0.015625)"/>
      </defs>
      <use xlink:href="#DejaVuSans-6c"/>
      <use xlink:href="#DejaVuSans-6f" x="27.783203"/>
      <use xlink:href="#DejaVuSans-67" x="88.964844"/>
      <use xlink:href="#DejaVuSans-31" x="152.441406"/>
      <use xlink:href="#DejaVuSans-30" x="216.064453"/>
      <use xlink:href="#DejaVuSans-28" x="279.6875"/>
      <use xlink:href="#DejaVuSans-23" x="318.701172"/>
      <use xlink:href="#DejaVuSans-20" x="402.490234"/>
      <use xlink:href="#DejaVuSans-66" x="434.277344"/>
      <use xlink:href="#DejaVuSans-2d" x="463.982422"/>
      <use xlink:href="#DejaVuSans-65" x="500.066406"/>
      <use xlink:href="#DejaVuSans-76" x="561.589844"/>
      <use xlink:href="#DejaVuSans-61" x="620.769531"/>
      <use xlink:href="#DejaVuSans-6c" x="682.048828"/>
      <use xlink:href="#DejaVuSans-73" x="709.832031"/>
      <use xlink:href="#DejaVuSans-20" x="761.931641"/>
      <use xlink:href="#DejaVuSans-2f" x="793.71875"/>
      <use xlink:href="#DejaVuSans-20" x="827.410156"/>
      <use xlink:href="#DejaVuSans-64" x="859.197266"/>
      <use xlink:href="#DejaVuSans-69" x="922.673828"/>
      <use xlink:href="#DejaVuSans-6d" x="950.457031"/>
      <use xlink:href="#DejaVuSans-65" x="1047.869141"/>
      <use xlink:href="#DejaVuSans-6e" x="1109.392578"/>
      <use xlink:href="#DejaVuSans-73" x="1172.771484"/>
      <use xlink:href="#DejaVuSans-69" x="1224.871094"/>
      <use xlink:href="#DejaVuSans-6f" x="1252.654297"/>
      <use xlink:href="#DejaVuSans-6e" x="1313.835938"/>
      <use xlink:href="#DejaVuSans-29" x="1377.214844"/>
     </g>
    </g>
   </g>
   <g id="matplotlib.axis_2">
    <g id="ytick_1">
     <g id="line2d_21">
      <path d="M 57.6 298.944 
L 360.8064 298.944 
" clip-path="url(#p79d1fc8798)" style="fill: none; stroke: #b0b0b0; stroke-width: 0.8; stroke-linecap: square"/>
     </g>
     <g id="line2d_22">
      <defs>
       <path id="md1961c87ff" d="M 0 0 
L -3.5 0 
" style="stroke: #000000; stroke-width: 0.8"/>
      </defs>
      <g>
       <use xlink:href="#md1961c87ff" x="57.6" y="298.944" style="stroke: #000000; stroke-width: 0.8"/>
      </g>
     </g>
     <g id="text_6">
      <!-- 0.0 -->
      <g transform="translate(25.155 305.02275)scale(0.16 -0.16)">
       <defs>
        <path id="DejaVuSans-2e" d="M 684 794 
L 1344 794 
L 1344 0 
L 684 0 
L 684 794 
z
" transform="scale(0.015625)"/>
       </defs>
       <use xlink:href="#DejaVuSans-30"/>
       <use xlink:href="#DejaVuSans-2e" x="63.623047"/>
       <use xlink:href="#DejaVuSans-30" x="95.410156"/>
      </g>
     </g>
    </g>
    <g id="ytick_2">
     <g id="line2d_23">
      <path d="M 57.6 240.5376 
L 360.8064 240.5376 
" clip-path="url(#p79d1fc8798)" style="fill: none; stroke: #b0b0b0; stroke-width: 0.8; stroke-linecap: square"/>
     </g>
     <g id="line2d_24">
      <g>
       <use xlink:href="#md1961c87ff" x="57.6" y="240.5376" style="stroke: #000000; stroke-width: 0.8"/>
      </g>
     </g>
     <g id="text_7">
      <!-- 0.2 -->
      <g transform="translate(25.155 246.61635)scale(0.16 -0.16)">
       <use xlink:href="#DejaVuSans-30"/>
       <use xlink:href="#DejaVuSans-2e" x="63.623047"/>
       <use xlink:href="#DejaVuSans-32" x="95.410156"/>
      </g>
     </g>
    </g>
    <g id="ytick_3">
     <g id="line2d_25">
      <path d="M 57.6 182.1312 
L 360.8064 182.1312 
" clip-path="url(#p79d1fc8798)" style="fill: none; stroke: #b0b0b0; stroke-width: 0.8; stroke-linecap: square"/>
     </g>
     <g id="line2d_26">
      <g>
       <use xlink:href="#md1961c87ff" x="57.6" y="182.1312" style="stroke: #000000; stroke-width: 0.8"/>
      </g>
     </g>
     <g id="text_8">
      <!-- 0.4 -->
      <g transform="translate(25.155 188.20995)scale(0.16 -0.16)">
       <use xlink:href="#DejaVuSans-30"/>
       <use xlink:href="#DejaVuSans-2e" x="63.623047"/>
       <use xlink:href="#DejaVuSans-34" x="95.410156"/>
      </g>
     </g>
    </g>
    <g id="ytick_4">
     <g id="line2d_27">
      <path d="M 57.6 123.7248 
L 360.8064 123.7248 
" clip-path="url(#p79d1fc8798)" style="fill: none; stroke: #b0b0b0; stroke-width: 0.8; stroke-linecap: square"/>
     </g>
     <g id="line2d_28">
      <g>
       <use xlink:href="#md1961c87ff" x="57.6" y="123.7248" style="stroke: #000000; stroke-width: 0.8"/>
      </g>
     </g>
     <g id="text_9">
      <!-- 0.6 -->
      <g transform="translate(25.155 129.80355)scale(0.16 -0.16)">
       <use xlink:href="#DejaVuSans-30"/>
       <use xlink:href="#DejaVuSans-2e" x="63.623047"/>
       <use xlink:href="#DejaVuSans-36" x="95.410156"/>
      </g>
     </g>
    </g>
    <g id="ytick_5">
     <g id="line2d_29">
      <path d="M 57.6 65.3184 
L 360.8064 65.3184 
" clip-path="url(#p79d1fc8798)" style="fill: none; stroke: #b0b0b0; stroke-width: 0.8; stroke-linecap: square"/>
     </g>
     <g id="line2d_30">
      <g>
       <use xlink:href="#md1961c87ff" x="57.6" y="65.3184" style="stroke: #000000; stroke-width: 0.8"/>
      </g>
     </g>
     <g id="text_10">
      <!-- 0.8 -->
      <g transform="translate(25.155 71.39715)scale(0.16 -0.16)">
       <defs>
        <path id="DejaVuSans-38" d="M 2034 2216 
Q 1584 2216 1326 1975 
Q 1069 1734 1069 1313 
Q 1069 891 1326 650 
Q 1584 409 2034 409 
Q 2484 409 2743 651 
Q 3003 894 3003 1313 
Q 3003 1734 2745 1975 
Q 2488 2216 2034 2216 
z
M 1403 2484 
Q 997 2584 770 2862 
Q 544 3141 544 3541 
Q 544 4100 942 4425 
Q 1341 4750 2034 4750 
Q 2731 4750 3128 4425 
Q 3525 4100 3525 3541 
Q 3525 3141 3298 2862 
Q 3072 2584 2669 2484 
Q 3125 2378 3379 2068 
Q 3634 1759 3634 1313 
Q 3634 634 3220 271 
Q 2806 -91 2034 -91 
Q 1263 -91 848 271 
Q 434 634 434 1313 
Q 434 1759 690 2068 
Q 947 2378 1403 2484 
z
M 1172 3481 
Q 1172 3119 1398 2916 
Q 1625 2713 2034 2713 
Q 2441 2713 2670 2916 
Q 2900 3119 2900 3481 
Q 2900 3844 2670 4047 
Q 2441 4250 2034 4250 
Q 1625 4250 1398 4047 
Q 1172 3844 1172 3481 
z
" transform="scale(0.015625)"/>
       </defs>
       <use xlink:href="#DejaVuSans-30"/>
       <use xlink:href="#DejaVuSans-2e" x="63.623047"/>
       <use xlink:href="#DejaVuSans-38" x="95.410156"/>
      </g>
     </g>
    </g>
    <g id="ytick_6">
     <g id="line2d_31">
      <path d="M 57.6 6.912 
L 360.8064 6.912 
" clip-path="url(#p79d1fc8798)" style="fill: none; stroke: #b0b0b0; stroke-width: 0.8; stroke-linecap: square"/>
     </g>
     <g id="line2d_32">
      <g>
       <use xlink:href="#md1961c87ff" x="57.6" y="6.912" style="stroke: #000000; stroke-width: 0.8"/>
      </g>
     </g>
     <g id="text_11">
      <!-- 1.0 -->
      <g transform="translate(25.155 12.99075)scale(0.16 -0.16)">
       <use xlink:href="#DejaVuSans-31"/>
       <use xlink:href="#DejaVuSans-2e" x="63.623047"/>
       <use xlink:href="#DejaVuSans-30" x="95.410156"/>
      </g>
     </g>
    </g>
    <g id="text_12">
     <!-- Fraction of function,target pairs -->
     <g transform="translate(17.619531 287.313)rotate(-90)scale(0.17 -0.17)">
      <defs>
       <path id="DejaVuSans-46" d="M 628 4666 
L 3309 4666 
L 3309 4134 
L 1259 4134 
L 1259 2759 
L 3109 2759 
L 3109 2228 
L 1259 2228 
L 1259 0 
L 628 0 
L 628 4666 
z
" transform="scale(0.015625)"/>
       <path id="DejaVuSans-72" d="M 2631 2963 
Q 2534 3019 2420 3045 
Q 2306 3072 2169 3072 
Q 1681 3072 1420 2755 
Q 1159 2438 1159 1844 
L 1159 0 
L 581 0 
L 581 3500 
L 1159 3500 
L 1159 2956 
Q 1341 3275 1631 3429 
Q 1922 3584 2338 3584 
Q 2397 3584 2469 3576 
Q 2541 3569 2628 3553 
L 2631 2963 
z
" transform="scale(0.015625)"/>
       <path id="DejaVuSans-63" d="M 3122 3366 
L 3122 2828 
Q 2878 2963 2633 3030 
Q 2388 3097 2138 3097 
Q 1578 3097 1268 2742 
Q 959 2388 959 1747 
Q 959 1106 1268 751 
Q 1578 397 2138 397 
Q 2388 397 2633 464 
Q 2878 531 3122 666 
L 3122 134 
Q 2881 22 2623 -34 
Q 2366 -91 2075 -91 
Q 1284 -91 818 406 
Q 353 903 353 1747 
Q 353 2603 823 3093 
Q 1294 3584 2113 3584 
Q 2378 3584 2631 3529 
Q 2884 3475 3122 3366 
z
" transform="scale(0.015625)"/>
       <path id="DejaVuSans-74" d="M 1172 4494 
L 1172 3500 
L 2356 3500 
L 2356 3053 
L 1172 3053 
L 1172 1153 
Q 1172 725 1289 603 
Q 1406 481 1766 481 
L 2356 481 
L 2356 0 
L 1766 0 
Q 1100 0 847 248 
Q 594 497 594 1153 
L 594 3053 
L 172 3053 
L 172 3500 
L 594 3500 
L 594 4494 
L 1172 4494 
z
" transform="scale(0.015625)"/>
       <path id="DejaVuSans-75" d="M 544 1381 
L 544 3500 
L 1119 3500 
L 1119 1403 
Q 1119 906 1312 657 
Q 1506 409 1894 409 
Q 2359 409 2629 706 
Q 2900 1003 2900 1516 
L 2900 3500 
L 3475 3500 
L 3475 0 
L 2900 0 
L 2900 538 
Q 2691 219 2414 64 
Q 2138 -91 1772 -91 
Q 1169 -91 856 284 
Q 544 659 544 1381 
z
M 1991 3584 
L 1991 3584 
z
" transform="scale(0.015625)"/>
       <path id="DejaVuSans-2c" d="M 750 794 
L 1409 794 
L 1409 256 
L 897 -744 
L 494 -744 
L 750 256 
L 750 794 
z
" transform="scale(0.015625)"/>
       <path id="DejaVuSans-70" d="M 1159 525 
L 1159 -1331 
L 581 -1331 
L 581 3500 
L 1159 3500 
L 1159 2969 
Q 1341 3281 1617 3432 
Q 1894 3584 2278 3584 
Q 2916 3584 3314 3078 
Q 3713 2572 3713 1747 
Q 3713 922 3314 415 
Q 2916 -91 2278 -91 
Q 1894 -91 1617 61 
Q 1341 213 1159 525 
z
M 3116 1747 
Q 3116 2381 2855 2742 
Q 2594 3103 2138 3103 
Q 1681 3103 1420 2742 
Q 1159 2381 1159 1747 
Q 1159 1113 1420 752 
Q 1681 391 2138 391 
Q 2594 391 2855 752 
Q 3116 1113 3116 1747 
z
" transform="scale(0.015625)"/>
      </defs>
      <use xlink:href="#DejaVuSans-46"/>
      <use xlink:href="#DejaVuSans-72" x="50.269531"/>
      <use xlink:href="#DejaVuSans-61" x="91.382812"/>
      <use xlink:href="#DejaVuSans-63" x="152.662109"/>
      <use xlink:href="#DejaVuSans-74" x="207.642578"/>
      <use xlink:href="#DejaVuSans-69" x="246.851562"/>
      <use xlink:href="#DejaVuSans-6f" x="274.634766"/>
      <use xlink:href="#DejaVuSans-6e" x="335.816406"/>
      <use xlink:href="#DejaVuSans-20" x="399.195312"/>
      <use xlink:href="#DejaVuSans-6f" x="430.982422"/>
      <use xlink:href="#DejaVuSans-66" x="492.164062"/>
      <use xlink:href="#DejaVuSans-20" x="527.369141"/>
      <use xlink:href="#DejaVuSans-66" x="559.15625"/>
      <use xlink:href="#DejaVuSans-75" x="594.361328"/>
      <use xlink:href="#DejaVuSans-6e" x="657.740234"/>
      <use xlink:href="#DejaVuSans-63" x="721.119141"/>
      <use xlink:href="#DejaVuSans-74" x="776.099609"/>
      <use xlink:href="#DejaVuSans-69" x="815.308594"/>
      <use xlink:href="#DejaVuSans-6f" x="843.091797"/>
      <use xlink:href="#DejaVuSans-6e" x="904.273438"/>
      <use xlink:href="#DejaVuSans-2c" x="967.652344"/>
      <use xlink:href="#DejaVuSans-74" x="999.439453"/>
      <use xlink:href="#DejaVuSans-61" x="1038.648438"/>
      <use xlink:href="#DejaVuSans-72" x="1099.927734"/>
      <use xlink:href="#DejaVuSans-67" x="1139.291016"/>
      <use xlink:href="#DejaVuSans-65" x="1202.767578"/>
      <use xlink:href="#DejaVuSans-74" x="1264.291016"/>
      <use xlink:href="#DejaVuSans-20" x="1303.5"/>
      <use xlink:href="#DejaVuSans-70" x="1335.287109"/>
      <use xlink:href="#DejaVuSans-61" x="1398.763672"/>
      <use xlink:href="#DejaVuSans-69" x="1460.042969"/>
      <use xlink:href="#DejaVuSans-72" x="1487.826172"/>
      <use xlink:href="#DejaVuSans-73" x="1528.939453"/>
     </g>
    </g>
   </g>
   <g id="line2d_33">
    <defs>
     <path id="m5eb21a7f22" d="M 0 1.5 
C 0.397805 1.5 0.77937 1.341951 1.06066 1.06066 
C 1.341951 0.77937 1.5 0.397805 1.5 0 
C 1.5 -0.397805 1.341951 -0.77937 1.06066 -1.06066 
C 0.77937 -1.341951 0.397805 -1.5 0 -1.5 
C -0.397805 -1.5 -0.77937 -1.341951 -1.06066 -1.06066 
C -1.341951 -0.77937 -1.5 -0.397805 -1.5 0 
C -1.5 0.397805 -1.341951 0.77937 -1.06066 1.06066 
C -0.77937 1.341951 -0.397805 1.5 0 1.5 
z
" style="stroke: #f5deb3"/>
    </defs>
    <g>
     <use xlink:href="#m5eb21a7f22" x="363.376325" y="106.353931" style="fill: #f5deb3; stroke: #f5deb3"/>
     <use xlink:href="#m5eb21a7f22" x="363.376325" y="106.353931" style="fill: #f5deb3; stroke: #f5deb3"/>
    </g>
   </g>
   <g id="line2d_34">
    <defs>
     <path id="mf7a4d9be5c" d="M 0 1.5 
C 0.397805 1.5 0.77937 1.341951 1.06066 1.06066 
C 1.341951 0.77937 1.5 0.397805 1.5 0 
C 1.5 -0.397805 1.341951 -0.77937 1.06066 -1.06066 
C 0.77937 -1.341951 0.397805 -1.5 0 -1.5 
C -0.397805 -1.5 -0.77937 -1.341951 -1.06066 -1.06066 
C -1.341951 -0.77937 -1.5 -0.397805 -1.5 0 
C -1.5 0.397805 -1.341951 0.77937 -1.06066 1.06066 
C -0.77937 1.341951 -0.397805 1.5 0 1.5 
z
" style="stroke: #000080"/>
    </defs>
    <g>
     <use xlink:href="#mf7a4d9be5c" x="79.480672" y="283.838897" style="fill: #000080; stroke: #000080"/>
     <use xlink:href="#mf7a4d9be5c" x="79.480672" y="283.838897" style="fill: #000080; stroke: #000080"/>
    </g>
   </g>
   <g id="line2d_35">
    <path d="M 14.2848 298.944 
L 14.2848 291.139697 
L 27.323974 291.139697 
L 27.323974 290.762069 
L 34.951403 290.762069 
L 34.951403 290.258566 
L 40.363149 290.258566 
L 40.363149 290.006814 
L 44.560826 290.006814 
L 44.560826 289.50331 
L 50.890391 289.50331 
L 50.890391 289.377434 
L 53.402323 289.377434 
L 53.402323 288.748055 
L 55.618005 288.748055 
L 55.618005 288.118676 
L 57.6 288.118676 
L 57.6 287.866924 
L 59.392932 287.866924 
L 59.392932 287.489297 
L 61.029752 287.489297 
L 61.029752 287.363421 
L 62.535479 287.363421 
L 62.535479 286.859917 
L 63.929565 286.859917 
L 63.929565 286.608166 
L 66.441498 286.608166 
L 66.441498 286.230538 
L 67.581941 286.230538 
L 67.581941 286.104662 
L 68.65718 286.104662 
L 68.65718 285.85291 
L 69.674268 285.85291 
L 69.674268 285.349407 
L 70.639174 285.349407 
L 70.639174 284.971779 
L 73.268314 284.971779 
L 73.268314 284.720028 
L 74.068926 284.720028 
L 74.068926 284.3424 
L 78.88343 284.3424 
L 78.88343 284.216524 
L 79.480672 284.216524 
L 79.480672 283.838897 
L 360.8064 283.838897 
" style="fill: none; stroke: #000080; stroke-width: 1.5; stroke-linecap: square"/>
   </g>
   <g id="line2d_36">
    <defs>
     <path id="m227522ffea" d="M 0 6 
C 1.591219 6 3.117479 5.367802 4.242641 4.242641 
C 5.367802 3.117479 6 1.591219 6 0 
C 6 -1.591219 5.367802 -3.117479 4.242641 -4.242641 
C 3.117479 -5.367802 1.591219 -6 0 -6 
C -1.591219 -6 -3.117479 -5.367802 -4.242641 -4.242641 
C -5.367802 -3.117479 -6 -1.591219 -6 0 
C -6 1.591219 -5.367802 3.117479 -4.242641 4.242641 
C -3.117479 5.367802 -1.591219 6 0 6 
z
" style="stroke: #000080; stroke-width: 1.5"/>
    </defs>
    <g>
     <use xlink:href="#m227522ffea" x="79.480672" y="284.216524" style="fill-opacity: 0; stroke: #000080; stroke-width: 1.5"/>
     <use xlink:href="#m227522ffea" x="79.480672" y="284.216524" style="fill-opacity: 0; stroke: #000080; stroke-width: 1.5"/>
     <use xlink:href="#m227522ffea" x="79.480672" y="283.838897" style="fill-opacity: 0; stroke: #000080; stroke-width: 1.5"/>
     <use xlink:href="#m227522ffea" x="79.480672" y="283.838897" style="fill-opacity: 0; stroke: #000080; stroke-width: 1.5"/>
     <use xlink:href="#m227522ffea" x="79.480672" y="283.838897" style="fill-opacity: 0; stroke: #000080; stroke-width: 1.5"/>
     <use xlink:href="#m227522ffea" x="360.8064" y="283.838897" style="fill-opacity: 0; stroke: #000080; stroke-width: 1.5"/>
    </g>
   </g>
   <g id="line2d_37">
    <path style="fill: none; stroke: #000080; stroke-width: 1.5; stroke-linecap: square"/>
    <g/>
   </g>
   <g id="line2d_38">
    <path d="M 79.480672 283.838897 
" clip-path="url(#p79d1fc8798)" style="fill: none; stroke: #000080; stroke-width: 1.5; stroke-linecap: square"/>
    <defs>
     <path id="m94ac1b57b3" d="M -12 12 
L 12 -12 
M -12 -12 
L 12 12 
" style="stroke: #000080"/>
    </defs>
    <g clip-path="url(#p79d1fc8798)">
     <use xlink:href="#m94ac1b57b3" x="79.480672" y="283.838897" style="fill: #000080; stroke: #000080"/>
    </g>
   </g>
   <g id="line2d_39">
    <defs>
     <path id="m1c125e02a1" d="M 0 1.5 
C 0.397805 1.5 0.77937 1.341951 1.06066 1.06066 
C 1.341951 0.77937 1.5 0.397805 1.5 0 
C 1.5 -0.397805 1.341951 -0.77937 1.06066 -1.06066 
C 0.77937 -1.341951 0.397805 -1.5 0 -1.5 
C -0.397805 -1.5 -0.77937 -1.341951 -1.06066 -1.06066 
C -1.341951 -0.77937 -1.5 -0.397805 -1.5 0 
C -1.5 0.397805 -1.341951 0.77937 -1.06066 1.06066 
C -0.77937 1.341951 -0.397805 1.5 0 1.5 
z
" style="stroke: #ff00ff"/>
    </defs>
    <g>
     <use xlink:href="#m1c125e02a1" x="272.370774" y="227.194759" style="fill: #ff00ff; stroke: #ff00ff"/>
     <use xlink:href="#m1c125e02a1" x="272.370774" y="227.194759" style="fill: #ff00ff; stroke: #ff00ff"/>
    </g>
   </g>
   <g id="line2d_40">
    <path d="M 14.2848 298.944 
L 14.2848 291.139697 
L 27.323974 291.139697 
L 27.323974 291.013821 
L 34.951403 291.013821 
L 34.951403 290.762069 
L 47.990577 290.762069 
L 47.990577 289.755062 
L 50.890391 289.755062 
L 50.890391 289.629186 
L 55.618005 289.629186 
L 55.618005 289.377434 
L 57.6 289.377434 
L 57.6 289.251559 
L 61.029752 289.251559 
L 61.029752 289.125683 
L 62.535479 289.125683 
L 62.535479 288.748055 
L 66.441498 288.748055 
L 66.441498 288.622179 
L 69.674268 288.622179 
L 69.674268 288.370428 
L 72.432107 288.370428 
L 72.432107 288.244552 
L 74.068926 288.244552 
L 74.068926 288.118676 
L 75.574654 288.118676 
L 75.574654 287.9928 
L 76.96874 287.9928 
L 76.96874 287.741048 
L 78.88343 287.741048 
L 78.88343 287.615172 
L 79.480672 287.615172 
L 79.480672 287.363421 
L 80.059535 287.363421 
L 80.059535 287.237545 
L 82.713442 287.237545 
L 82.713442 286.985793 
L 83.202082 286.985793 
L 83.202082 286.859917 
L 87.1081 286.859917 
L 87.1081 286.734041 
L 93.098709 286.734041 
L 93.098709 286.608166 
L 95.998523 286.608166 
L 95.998523 286.48229 
L 96.717523 286.48229 
L 96.717523 286.356414 
L 97.18203 286.356414 
L 97.18203 286.230538 
L 100.342215 286.230538 
L 100.342215 286.104662 
L 100.726138 286.104662 
L 100.726138 285.727034 
L 101.102381 285.727034 
L 101.102381 285.601159 
L 101.287718 285.601159 
L 101.287718 285.475283 
L 101.471247 285.475283 
L 101.471247 285.223531 
L 102.187964 285.223531 
L 102.187964 285.097655 
L 103.544339 285.097655 
L 103.544339 284.845903 
L 104.501065 284.845903 
L 104.501065 284.720028 
L 104.809458 284.720028 
L 104.809458 284.594152 
L 105.99483 284.594152 
L 105.99483 284.468276 
L 106.137884 284.468276 
L 106.137884 284.3424 
L 106.837279 284.3424 
L 106.837279 284.216524 
L 107.244765 284.216524 
L 107.244765 284.090648 
L 107.5116 284.090648 
L 107.5116 283.964772 
L 107.643612 283.964772 
L 107.643612 283.838897 
L 107.774703 283.838897 
L 107.774703 283.587145 
L 108.915146 283.587145 
L 108.915146 283.461269 
L 109.520071 283.461269 
L 109.520071 283.335393 
L 109.638757 283.335393 
L 109.638757 283.209517 
L 109.873904 283.209517 
L 109.873904 283.083641 
L 110.335561 283.083641 
L 110.335561 282.957766 
L 110.449226 282.957766 
L 110.449226 282.83189 
L 111.117162 282.83189 
L 111.117162 282.706014 
L 111.334639 282.706014 
L 111.334639 282.580138 
L 111.656212 282.580138 
L 111.656212 282.454262 
L 111.86758 282.454262 
L 111.86758 282.328386 
L 112.180244 282.328386 
L 112.180244 281.950759 
L 112.589207 281.950759 
L 112.690074 281.699007 
L 113.186449 281.699007 
L 113.186449 281.573131 
L 114.234452 281.573131 
L 114.234452 281.447255 
L 115.314838 281.447255 
L 115.314838 281.321379 
L 115.575511 281.321379 
L 115.575511 280.943752 
L 115.747307 280.943752 
L 115.83262 280.692 
L 116.501546 280.692 
L 116.501546 280.566124 
L 116.827295 280.566124 
L 116.827295 280.440248 
L 117.617813 280.440248 
L 117.617813 280.314372 
L 117.772007 280.314372 
L 117.772007 280.188497 
L 118.000953 280.188497 
L 118.000953 280.062621 
L 118.227147 280.062621 
L 118.227147 279.936745 
L 118.376446 279.936745 
L 118.450653 279.684993 
L 119.459944 279.684993 
L 119.459944 279.559117 
L 119.944983 279.559117 
L 120.013265 279.307366 
L 121.706797 279.307366 
L 121.706797 279.18149 
L 122.13785 279.18149 
L 122.13785 279.055614 
L 123.145323 279.055614 
L 123.145323 278.929738 
L 124.210942 278.929738 
L 124.210942 278.803862 
L 124.642171 278.803862 
L 124.642171 278.677986 
L 124.801367 278.677986 
L 124.801367 278.55211 
L 124.959227 278.55211 
L 124.959227 278.426234 
L 125.929373 278.426234 
L 125.929373 278.300359 
L 127.087372 278.300359 
L 127.087372 278.174483 
L 128.089678 278.174483 
L 128.089678 278.048607 
L 130.384069 278.048607 
L 130.384069 277.796855 
L 131.153565 277.796855 
L 131.153565 277.670979 
L 132.499119 277.670979 
L 132.499119 277.545103 
L 132.708526 277.545103 
L 132.708526 277.419228 
L 136.499223 277.419228 
L 136.499223 277.293352 
L 136.612375 277.293352 
L 136.612375 277.167476 
L 136.97549 277.167476 
L 136.97549 277.0416 
L 138.180913 277.0416 
L 138.180913 276.915724 
L 138.515235 276.915724 
L 138.515235 276.663972 
L 139.043049 276.663972 
L 139.043049 276.538097 
L 139.962047 276.538097 
L 139.962047 276.412221 
L 140.725251 276.412221 
L 140.725251 276.286345 
L 141.48048 276.286345 
L 141.48048 276.160469 
L 142.059343 276.160469 
L 142.143605 275.908717 
L 142.905644 275.908717 
L 142.905644 275.782841 
L 143.086429 275.782841 
L 143.146307 275.53109 
L 143.442869 275.53109 
L 143.442869 275.405214 
L 144.041338 275.405214 
L 144.098256 275.027586 
L 144.841158 275.027586 
L 144.931992 274.775834 
L 145.130294 274.775834 
L 145.130294 274.649959 
L 145.273213 274.649959 
L 145.273213 274.524083 
L 145.485575 274.524083 
L 145.590864 274.272331 
L 145.886021 274.272331 
L 145.886021 274.020579 
L 146.193574 274.020579 
L 146.193574 273.894703 
L 146.546143 273.894703 
L 146.595975 273.642952 
L 146.810401 273.642952 
L 146.908549 273.265324 
L 147.119461 273.265324 
L 147.119461 273.139448 
L 147.628773 273.139448 
L 147.644469 272.887697 
L 147.753975 272.887697 
L 147.753975 272.761821 
L 147.878349 272.761821 
L 147.878349 272.635945 
L 148.200973 272.635945 
L 148.200973 272.384193 
L 148.548087 272.384193 
L 148.548087 272.258317 
L 148.771063 272.258317 
L 148.83008 271.88069 
L 149.453084 271.88069 
L 149.538397 271.503062 
L 149.707872 271.503062 
L 149.707872 271.377186 
L 149.959255 271.377186 
L 149.959255 271.25131 
L 150.667154 271.25131 
L 150.667154 271.125434 
L 151.037576 271.125434 
L 151.037576 270.999559 
L 151.464982 270.999559 
L 151.490576 270.747807 
L 151.744619 270.747807 
L 151.744619 270.621931 
L 151.932924 270.621931 
L 152.020159 270.370179 
L 152.181101 270.370179 
L 152.181101 270.244303 
L 152.450367 270.244303 
L 152.523139 269.992552 
L 152.631772 269.992552 
L 152.739781 269.614924 
L 152.894708 269.614924 
L 152.894708 269.489048 
L 153.328795 269.489048 
L 153.328795 269.363172 
L 153.467455 269.363172 
L 153.467455 269.111421 
L 153.775755 269.111421 
L 153.775755 268.985545 
L 153.922412 268.985545 
L 153.922412 268.733793 
L 154.156931 268.733793 
L 154.156931 268.482041 
L 154.421422 268.482041 
L 154.421422 268.356166 
L 154.80059 268.356166 
L 154.86483 268.104414 
L 154.928852 268.104414 
L 154.928852 267.978538 
L 155.266666 267.978538 
L 155.266666 267.852662 
L 155.567658 267.852662 
L 155.660098 267.475034 
L 155.752086 267.475034 
L 155.752086 267.349159 
L 156.005274 267.349159 
L 156.115606 267.097407 
L 156.195443 267.097407 
L 156.195443 266.845655 
L 156.442771 266.845655 
L 156.462418 266.593903 
L 156.725657 266.593903 
L 156.725657 266.468028 
L 157.156365 266.468028 
L 157.213055 266.216276 
L 157.278978 266.216276 
L 157.3353 265.838648 
L 157.400797 265.838648 
L 157.400797 265.712772 
L 157.807349 265.712772 
L 157.807349 265.461021 
L 158.410018 265.461021 
L 158.436556 265.083393 
L 158.551127 265.083393 
L 158.559911 264.831641 
L 158.752135 264.831641 
L 158.752135 264.705766 
L 159.468527 264.705766 
L 159.468527 264.57989 
L 159.643442 264.57989 
L 159.693121 264.202262 
L 159.849576 264.202262 
L 159.857774 263.824634 
L 159.996606 263.824634 
L 159.996606 263.572883 
L 160.190875 263.572883 
L 160.287262 263.321131 
L 160.407056 263.321131 
L 160.422971 262.691752 
L 160.549809 262.691752 
L 160.549809 262.565876 
L 160.699326 262.565876 
L 160.699326 262.44 
L 160.816532 262.44 
L 160.816532 262.314124 
L 161.148532 262.314124 
L 161.163832 261.936497 
L 161.262981 261.936497 
L 161.285788 261.432993 
L 161.391854 261.432993 
L 161.391854 261.307117 
L 161.684209 261.307117 
L 161.69908 260.92949 
L 161.906046 260.92949 
L 161.928087 260.677738 
L 162.11803 260.677738 
L 162.11803 260.551862 
L 162.442313 260.551862 
L 162.442313 260.425986 
L 162.570477 260.425986 
L 162.570477 260.048359 
L 162.79619 260.048359 
L 162.894094 259.670731 
L 163.27386 259.670731 
L 163.355708 259.041352 
L 163.686277 259.041352 
L 163.686277 258.915476 
L 164.011136 258.915476 
L 164.011136 258.7896 
L 164.561694 258.7896 
L 164.561694 258.663724 
L 164.733259 258.663724 
L 164.733259 258.537848 
L 165.324768 258.537848 
L 165.379853 258.160221 
L 165.525963 258.160221 
L 165.622743 257.27909 
L 165.850619 257.27909 
L 165.850619 257.153214 
L 165.981296 257.153214 
L 166.022686 256.775586 
L 166.286609 256.775586 
L 166.286609 256.523834 
L 166.466293 256.523834 
L 166.575579 256.146207 
L 166.814929 256.146207 
L 166.860176 255.894455 
L 167.000877 255.894455 
L 167.073627 255.265076 
L 167.753769 255.265076 
L 167.753769 255.1392 
L 168.169334 255.1392 
L 168.258701 254.635697 
L 168.467314 254.635697 
L 168.467314 254.509821 
L 168.689024 254.509821 
L 168.689024 254.258069 
L 168.872652 254.258069 
L 168.877727 254.006317 
L 169.249549 254.006317 
L 169.343842 253.62869 
L 169.408088 253.62869 
L 169.408088 253.502814 
L 169.550619 253.502814 
L 169.555515 253.125186 
L 169.735764 253.125186 
L 169.779348 252.873434 
L 169.957476 252.873434 
L 170.038756 252.369931 
L 170.129185 252.369931 
L 170.186075 252.118179 
L 170.4353 252.118179 
L 170.500586 251.740552 
L 170.924059 251.740552 
L 171.014871 251.4888 
L 171.289169 251.4888 
L 171.333756 250.985297 
L 171.71291 250.985297 
L 171.800001 250.481793 
L 172.041731 250.481793 
L 172.127316 249.852414 
L 172.574528 249.852414 
L 172.661879 249.34891 
L 172.785966 249.34891 
L 172.785966 249.223034 
L 173.05611 249.223034 
L 173.05611 249.097159 
L 173.398404 249.097159 
L 173.438268 248.845407 
L 173.671758 248.845407 
L 173.707122 248.467779 
L 173.824523 248.467779 
L 173.921801 248.216028 
L 174.084104 248.216028 
L 174.084104 247.964276 
L 174.321163 247.964276 
L 174.321163 247.8384 
L 174.468765 247.8384 
L 174.544011 247.460772 
L 174.901062 247.460772 
L 174.948896 247.083145 
L 175.40632 247.083145 
L 175.413492 246.831393 
L 175.52787 246.831393 
L 175.52787 246.705517 
L 175.751039 246.705517 
L 175.859888 246.32789 
L 176.096471 246.32789 
L 176.206783 245.446759 
L 176.360823 245.446759 
L 176.40849 245.069131 
L 176.516992 245.069131 
L 176.604692 244.439752 
L 176.705378 244.439752 
L 176.705378 244.313876 
L 177.03716 244.313876 
L 177.053597 243.936248 
L 177.414837 243.936248 
L 177.414837 243.810372 
L 177.581709 243.810372 
L 177.581709 243.684497 
L 177.854483 243.684497 
L 177.854483 243.558621 
L 177.973763 243.558621 
L 178.048709 243.180993 
L 178.540864 243.180993 
L 178.619637 242.803366 
L 178.910644 242.803366 
L 178.910644 242.551614 
L 179.041177 242.551614 
L 179.064813 242.299862 
L 180.238055 242.299862 
L 180.33766 241.922234 
L 180.455946 241.922234 
L 180.455946 241.670483 
L 180.633351 241.670483 
L 180.633351 241.544607 
L 180.964544 241.544607 
L 180.964544 241.418731 
L 181.092225 241.418731 
L 181.092225 241.292855 
L 181.707684 241.292855 
L 181.707684 241.041103 
L 182.196455 241.041103 
L 182.196455 240.789352 
L 182.365682 240.789352 
L 182.365682 240.663476 
L 182.849938 240.663476 
L 182.960679 240.411724 
L 183.289045 240.411724 
L 183.289045 240.159972 
L 183.800956 240.159972 
L 183.800956 239.908221 
L 183.990523 239.908221 
L 183.990523 239.782345 
L 184.171448 239.782345 
L 184.238849 239.530593 
L 185.270804 239.530593 
L 185.270804 239.278841 
L 185.950462 239.278841 
L 185.950462 239.152966 
L 186.085122 239.152966 
L 186.085122 239.02709 
L 186.263183 239.02709 
L 186.263183 238.901214 
L 187.117506 238.901214 
L 187.117506 238.649462 
L 187.716011 238.649462 
L 187.716011 238.39771 
L 188.161821 238.39771 
L 188.161821 238.145959 
L 189.017726 238.145959 
L 189.017726 237.894207 
L 189.403406 237.894207 
L 189.403406 237.768331 
L 190.040124 237.768331 
L 190.040124 237.642455 
L 190.907822 237.642455 
L 190.907822 237.516579 
L 194.183023 237.516579 
L 194.183023 237.390703 
L 197.03765 237.390703 
L 197.03765 237.138952 
L 203.635281 237.138952 
L 203.635281 237.013076 
L 205.821704 237.013076 
L 205.821704 236.761324 
L 217.42545 236.761324 
L 217.492572 236.383697 
L 218.317672 236.383697 
L 218.317672 236.257821 
L 219.636435 236.257821 
L 219.636435 236.131945 
L 224.96867 236.131945 
L 224.96867 235.880193 
L 230.304098 235.880193 
L 230.304098 235.754317 
L 233.690396 235.754317 
L 233.690396 235.628441 
L 233.920902 235.628441 
L 233.920902 235.502566 
L 235.052305 235.502566 
L 235.052305 235.37669 
L 235.419631 235.37669 
L 235.419631 235.250814 
L 236.806481 235.250814 
L 236.806481 234.999062 
L 236.946526 234.999062 
L 236.946526 234.873186 
L 237.200306 234.873186 
L 237.224598 234.621434 
L 237.636903 234.621434 
L 237.636903 234.369683 
L 240.682941 234.369683 
L 240.682941 234.117931 
L 243.981346 234.117931 
L 243.981346 233.866179 
L 244.91028 233.866179 
L 244.91028 233.614428 
L 246.252523 233.614428 
L 246.252523 233.362676 
L 246.912293 233.362676 
L 246.912293 233.110924 
L 248.50989 233.110924 
L 248.50989 232.859172 
L 248.702581 232.859172 
L 248.702581 232.607421 
L 250.160549 232.607421 
L 250.160549 232.481545 
L 252.415697 232.481545 
L 252.415697 232.229793 
L 252.559178 232.229793 
L 252.559178 232.103917 
L 253.881528 232.103917 
L 253.881528 231.978041 
L 254.596722 231.978041 
L 254.596722 231.72629 
L 254.881705 231.72629 
L 254.923734 231.222786 
L 255.67027 231.222786 
L 255.756356 230.845159 
L 256.655602 230.845159 
L 256.655602 230.593407 
L 257.003609 230.593407 
L 257.003609 230.341655 
L 257.389105 230.341655 
L 257.389105 230.089903 
L 257.817691 230.089903 
L 257.817691 229.838152 
L 258.396701 229.838152 
L 258.396701 229.5864 
L 259.097976 229.5864 
L 259.097976 229.460524 
L 260.734117 229.460524 
L 260.734117 229.334648 
L 262.123208 229.334648 
L 262.184016 228.957021 
L 265.056485 228.957021 
L 265.056485 228.831145 
L 266.564658 228.831145 
L 266.564658 228.705269 
L 268.453416 228.705269 
L 268.453416 228.453517 
L 268.847068 228.453517 
L 268.847068 228.201766 
L 269.317695 228.201766 
L 269.317695 228.07589 
L 269.54407 228.07589 
L 269.54407 227.824138 
L 272.086388 227.824138 
L 272.086388 227.698262 
L 272.198415 227.698262 
L 272.198415 227.44651 
L 272.370774 227.44651 
L 272.370774 227.194759 
L 360.8064 227.194759 
L 360.8064 227.194759 
" style="fill: none; stroke: #ff00ff; stroke-width: 1.5; stroke-linecap: square"/>
   </g>
   <g id="line2d_41">
    <defs>
     <path id="mf4fe40164a" d="M 0 8.485281 
L 5.091169 0 
L 0 -8.485281 
L -5.091169 0 
z
" style="stroke: #ff00ff; stroke-width: 1.5; stroke-linejoin: miter"/>
    </defs>
    <g>
     <use xlink:href="#mf4fe40164a" x="97.18203" y="286.230538" style="fill-opacity: 0; stroke: #ff00ff; stroke-width: 1.5; stroke-linejoin: miter"/>
     <use xlink:href="#mf4fe40164a" x="154.421422" y="268.482041" style="fill-opacity: 0; stroke: #ff00ff; stroke-width: 1.5; stroke-linejoin: miter"/>
     <use xlink:href="#mf4fe40164a" x="235.419631" y="235.250814" style="fill-opacity: 0; stroke: #ff00ff; stroke-width: 1.5; stroke-linejoin: miter"/>
     <use xlink:href="#mf4fe40164a" x="272.370774" y="227.194759" style="fill-opacity: 0; stroke: #ff00ff; stroke-width: 1.5; stroke-linejoin: miter"/>
     <use xlink:href="#mf4fe40164a" x="272.370774" y="227.194759" style="fill-opacity: 0; stroke: #ff00ff; stroke-width: 1.5; stroke-linejoin: miter"/>
     <use xlink:href="#mf4fe40164a" x="360.8064" y="227.194759" style="fill-opacity: 0; stroke: #ff00ff; stroke-width: 1.5; stroke-linejoin: miter"/>
    </g>
   </g>
   <g id="line2d_42">
    <path style="fill: none; stroke: #ff00ff; stroke-width: 1.5; stroke-linecap: square"/>
    <g/>
   </g>
   <g id="line2d_43">
    <path d="M 274.176019 227.194759 
" clip-path="url(#p79d1fc8798)" style="fill: none; stroke: #ff00ff; stroke-width: 1.5; stroke-linecap: square"/>
    <defs>
     <path id="m5572ee5d9c" d="M -12 12 
L 12 -12 
M -12 -12 
L 12 12 
" style="stroke: #ff00ff"/>
    </defs>
    <g clip-path="url(#p79d1fc8798)">
     <use xlink:href="#m5572ee5d9c" x="274.176019" y="227.194759" style="fill: #ff00ff; stroke: #ff00ff"/>
    </g>
   </g>
   <g id="line2d_44">
    <defs>
     <path id="m4a6d2bdc3a" d="M 0 1.5 
C 0.397805 1.5 0.77937 1.341951 1.06066 1.06066 
C 1.341951 0.77937 1.5 0.397805 1.5 0 
C 1.5 -0.397805 1.341951 -0.77937 1.06066 -1.06066 
C 0.77937 -1.341951 0.397805 -1.5 0 -1.5 
C -0.397805 -1.5 -0.77937 -1.341951 -1.06066 -1.06066 
C -1.341951 -0.77937 -1.5 -0.397805 -1.5 0 
C -1.5 0.397805 -1.341951 0.77937 -1.06066 1.06066 
C -0.77937 1.341951 -0.397805 1.5 0 1.5 
z
" style="stroke: #6495ed"/>
    </defs>
    <g>
     <use xlink:href="#m4a6d2bdc3a" x="113.954374" y="271.25131" style="fill: #6495ed; stroke: #6495ed"/>
     <use xlink:href="#m4a6d2bdc3a" x="113.954374" y="271.25131" style="fill: #6495ed; stroke: #6495ed"/>
    </g>
   </g>
   <g id="line2d_45">
    <path d="M 14.2848 298.944 
L 14.2848 297.307614 
L 27.323974 297.307614 
L 27.323974 296.678234 
L 34.951403 296.678234 
L 34.951403 295.922979 
L 40.363149 295.922979 
L 40.363149 295.419476 
L 44.560826 295.419476 
L 44.560826 295.041848 
L 47.990577 295.041848 
L 47.990577 294.664221 
L 50.890391 294.664221 
L 50.890391 294.538345 
L 53.402323 294.538345 
L 53.402323 294.160717 
L 55.618005 294.160717 
L 55.618005 293.908966 
L 57.6 293.908966 
L 57.6 293.531338 
L 59.392932 293.531338 
L 59.392932 293.405462 
L 61.029752 293.405462 
L 61.029752 292.901959 
L 63.929565 292.901959 
L 63.929565 292.776083 
L 65.227428 292.776083 
L 65.227428 292.524331 
L 66.441498 292.524331 
L 66.441498 292.020828 
L 68.65718 292.020828 
L 68.65718 291.265572 
L 70.639174 291.265572 
L 70.639174 291.139697 
L 72.432107 291.139697 
L 72.432107 290.887945 
L 73.268314 290.887945 
L 73.268314 290.636193 
L 74.836851 290.636193 
L 74.836851 290.510317 
L 75.574654 290.510317 
L 75.574654 290.384441 
L 76.96874 290.384441 
L 76.96874 290.258566 
L 77.628862 290.258566 
L 77.628862 289.880938 
L 78.266603 289.880938 
L 78.266603 289.629186 
L 78.88343 289.629186 
L 78.88343 289.50331 
L 79.480672 289.50331 
L 79.480672 289.377434 
L 81.166416 289.377434 
L 81.166416 289.251559 
L 81.696354 289.251559 
L 81.696354 289.125683 
L 82.713442 289.125683 
L 82.713442 288.999807 
L 83.202082 288.999807 
L 83.202082 288.622179 
L 84.596168 288.622179 
L 84.596168 288.496303 
L 85.038813 288.496303 
L 85.038813 288.370428 
L 85.894031 288.370428 
L 85.894031 288.118676 
L 86.712053 288.118676 
L 86.712053 287.9928 
L 87.495981 287.9928 
L 87.495981 287.866924 
L 88.248544 287.866924 
L 88.248544 287.741048 
L 91.305777 287.741048 
L 91.305777 287.615172 
L 91.616719 287.615172 
L 91.616719 287.489297 
L 92.223596 287.489297 
L 92.223596 287.363421 
L 92.811505 287.363421 
L 92.811505 287.237545 
L 93.66029 287.237545 
L 93.66029 287.111669 
L 94.205591 287.111669 
L 94.205591 286.859917 
L 94.472426 286.859917 
L 94.472426 286.734041 
L 94.995002 286.734041 
L 94.995002 286.608166 
L 95.250946 286.608166 
L 95.250946 286.48229 
L 96.241256 286.48229 
L 96.241256 286.356414 
L 96.95121 286.356414 
L 96.95121 286.230538 
L 97.410051 286.230538 
L 97.410051 286.104662 
L 99.346662 286.104662 
L 99.346662 285.978786 
L 100.147275 285.978786 
L 100.147275 285.85291 
L 100.535156 285.85291 
L 100.535156 285.601159 
L 101.471247 285.601159 
L 101.471247 285.475283 
L 103.047088 285.475283 
L 103.047088 284.720028 
L 103.214303 284.720028 
L 103.214303 284.594152 
L 103.380045 284.594152 
L 103.380045 283.461269 
L 103.544339 283.461269 
L 103.544339 283.083641 
L 103.707211 283.083641 
L 103.707211 282.20251 
L 103.868684 282.20251 
L 103.868684 281.573131 
L 104.028784 281.573131 
L 104.028784 281.447255 
L 104.187532 281.447255 
L 104.187532 281.069628 
L 104.344952 281.069628 
L 104.344952 280.943752 
L 104.501065 280.943752 
L 104.501065 280.692 
L 104.655893 280.692 
L 104.655893 279.810869 
L 104.961779 279.810869 
L 104.961779 279.559117 
L 105.112877 279.559117 
L 105.112877 279.433241 
L 105.705415 279.433241 
L 105.705415 279.18149 
L 105.850679 279.18149 
L 105.850679 278.929738 
L 106.279859 278.929738 
L 106.279859 278.677986 
L 106.42077 278.677986 
L 106.42077 278.55211 
L 106.560633 278.55211 
L 106.560633 278.426234 
L 106.837279 278.426234 
L 106.837279 277.670979 
L 106.974091 277.670979 
L 106.974091 277.545103 
L 107.378656 277.545103 
L 107.378656 277.293352 
L 107.5116 277.293352 
L 107.5116 277.167476 
L 107.774703 277.167476 
L 107.774703 277.0416 
L 107.904887 277.0416 
L 107.904887 276.915724 
L 108.034177 276.915724 
L 108.034177 276.538097 
L 108.162584 276.538097 
L 108.162584 275.908717 
L 108.29012 275.908717 
L 108.29012 275.782841 
L 108.416798 275.782841 
L 108.416798 275.656966 
L 108.542628 275.656966 
L 108.542628 275.405214 
L 108.791791 275.405214 
L 108.791791 275.279338 
L 109.037698 275.279338 
L 109.037698 275.153462 
L 109.400633 275.153462 
L 109.400633 274.90171 
L 109.520071 274.90171 
L 109.520071 274.775834 
L 109.638757 274.775834 
L 109.638757 274.649959 
L 109.873904 274.649959 
L 109.873904 274.398207 
L 110.106149 274.398207 
L 110.106149 274.272331 
L 110.562208 274.272331 
L 110.562208 274.146455 
L 110.786158 274.146455 
L 110.786158 274.020579 
L 111.007473 274.020579 
L 111.007473 273.768828 
L 111.334639 273.768828 
L 111.442442 273.517076 
L 111.54963 273.517076 
L 111.54963 273.3912 
L 111.762192 273.3912 
L 111.762192 273.265324 
L 111.97238 273.265324 
L 111.97238 273.139448 
L 112.283321 273.139448 
L 112.385837 272.761821 
L 112.589207 272.761821 
L 112.690074 272.258317 
L 112.790402 272.258317 
L 112.890198 271.88069 
L 113.284172 271.88069 
L 113.284172 271.754814 
L 113.478107 271.754814 
L 113.478107 271.628938 
L 113.670063 271.628938 
L 113.670063 271.377186 
L 113.954374 271.377186 
L 113.954374 271.25131 
L 360.8064 271.25131 
L 360.8064 271.25131 
" style="fill: none; stroke: #6495ed; stroke-width: 1.5; stroke-linecap: square"/>
   </g>
   <g id="line2d_46">
    <defs>
     <path id="m9586692ce2" d="M -0 6 
L 6 -6 
L -6 -6 
z
" style="stroke: #6495ed; stroke-width: 1.5; stroke-linejoin: miter"/>
    </defs>
    <g>
     <use xlink:href="#m9586692ce2" x="97.410051" y="286.230538" style="fill-opacity: 0; stroke: #6495ed; stroke-width: 1.5; stroke-linejoin: miter"/>
     <use xlink:href="#m9586692ce2" x="113.954374" y="271.377186" style="fill-opacity: 0; stroke: #6495ed; stroke-width: 1.5; stroke-linejoin: miter"/>
     <use xlink:href="#m9586692ce2" x="113.954374" y="271.25131" style="fill-opacity: 0; stroke: #6495ed; stroke-width: 1.5; stroke-linejoin: miter"/>
     <use xlink:href="#m9586692ce2" x="113.954374" y="271.25131" style="fill-opacity: 0; stroke: #6495ed; stroke-width: 1.5; stroke-linejoin: miter"/>
     <use xlink:href="#m9586692ce2" x="113.954374" y="271.25131" style="fill-opacity: 0; stroke: #6495ed; stroke-width: 1.5; stroke-linejoin: miter"/>
     <use xlink:href="#m9586692ce2" x="360.8064" y="271.25131" style="fill-opacity: 0; stroke: #6495ed; stroke-width: 1.5; stroke-linejoin: miter"/>
    </g>
   </g>
   <g id="line2d_47">
    <path style="fill: none; stroke: #6495ed; stroke-width: 1.5; stroke-linecap: square"/>
    <g/>
   </g>
   <g id="line2d_48">
    <path d="M 113.954374 271.25131 
" clip-path="url(#p79d1fc8798)" style="fill: none; stroke: #6495ed; stroke-width: 1.5; stroke-linecap: square"/>
    <defs>
     <path id="m08c4a6ede3" d="M -12 12 
L 12 -12 
M -12 -12 
L 12 12 
" style="stroke: #6495ed"/>
    </defs>
    <g clip-path="url(#p79d1fc8798)">
     <use xlink:href="#m08c4a6ede3" x="113.954374" y="271.25131" style="fill: #6495ed; stroke: #6495ed"/>
    </g>
   </g>
   <g id="line2d_49">
    <path d="M 360.8064 283.838897 
L 380.514816 293.10336 
" style="fill: none; stroke: #000080; stroke-width: 1.5; stroke-linecap: square"/>
    <g>
     <use xlink:href="#m227522ffea" x="360.8064" y="283.838897" style="fill-opacity: 0; stroke: #000080; stroke-width: 1.5"/>
     <use xlink:href="#m227522ffea" x="380.514816" y="293.10336" style="fill-opacity: 0; stroke: #000080; stroke-width: 1.5"/>
    </g>
   </g>
   <g id="line2d_50">
    <path d="M 360.8064 271.25131 
L 380.514816 199.65312 
" style="fill: none; stroke: #6495ed; stroke-width: 1.5; stroke-linecap: square"/>
    <g>
     <use xlink:href="#m9586692ce2" x="360.8064" y="271.25131" style="fill-opacity: 0; stroke: #6495ed; stroke-width: 1.5; stroke-linejoin: miter"/>
     <use xlink:href="#m9586692ce2" x="380.514816" y="199.65312" style="fill-opacity: 0; stroke: #6495ed; stroke-width: 1.5; stroke-linejoin: miter"/>
    </g>
   </g>
   <g id="line2d_51">
    <path d="M 360.8064 227.194759 
L 380.514816 106.20288 
" style="fill: none; stroke: #ff00ff; stroke-width: 1.5; stroke-linecap: square"/>
    <g>
     <use xlink:href="#mf4fe40164a" x="360.8064" y="227.194759" style="fill-opacity: 0; stroke: #ff00ff; stroke-width: 1.5; stroke-linejoin: miter"/>
     <use xlink:href="#mf4fe40164a" x="380.514816" y="106.20288" style="fill-opacity: 0; stroke: #ff00ff; stroke-width: 1.5; stroke-linejoin: miter"/>
    </g>
   </g>
   <g id="line2d_52">
    <path d="M 360.8064 298.944 
L 360.8064 6.912 
" style="fill: none; stroke: #000000; stroke-width: 1.5; stroke-linecap: square"/>
   </g>
   <g id="patch_3">
    <path d="M 57.6 298.944 
L 360.8064 298.944 
" style="fill: none; stroke: #000000; stroke-width: 0.8; stroke-linejoin: miter; stroke-linecap: square"/>
   </g>
   <g id="patch_4">
    <path d="M 57.6 6.912 
L 360.8064 6.912 
" style="fill: none; stroke: #000000; stroke-width: 0.8; stroke-linejoin: miter; stroke-linecap: square"/>
   </g>
   <g id="text_13">
    <!-- cma -->
    <g transform="translate(386.578944 296.966485)scale(0.14 -0.14)">
     <use xlink:href="#DejaVuSans-63"/>
     <use xlink:href="#DejaVuSans-6d" x="54.980469"/>
     <use xlink:href="#DejaVuSans-61" x="152.392578"/>
    </g>
   </g>
   <g id="text_14">
    <!-- parEgo -->
    <g transform="translate(386.578944 203.516245)scale(0.14 -0.14)">
     <defs>
      <path id="DejaVuSans-45" d="M 628 4666 
L 3578 4666 
L 3578 4134 
L 1259 4134 
L 1259 2753 
L 3481 2753 
L 3481 2222 
L 1259 2222 
L 1259 531 
L 3634 531 
L 3634 0 
L 628 0 
L 628 4666 
z
" transform="scale(0.015625)"/>
     </defs>
     <use xlink:href="#DejaVuSans-70"/>
     <use xlink:href="#DejaVuSans-61" x="63.476562"/>
     <use xlink:href="#DejaVuSans-72" x="124.755859"/>
     <use xlink:href="#DejaVuSans-45" x="165.869141"/>
     <use xlink:href="#DejaVuSans-67" x="229.052734"/>
     <use xlink:href="#DejaVuSans-6f" x="292.529297"/>
    </g>
   </g>
   <g id="text_15">
    <!-- external- -->
    <g transform="translate(386.578944 110.066005)scale(0.14 -0.14)">
     <defs>
      <path id="DejaVuSans-78" d="M 3513 3500 
L 2247 1797 
L 3578 0 
L 2900 0 
L 1881 1375 
L 863 0 
L 184 0 
L 1544 1831 
L 300 3500 
L 978 3500 
L 1906 2253 
L 2834 3500 
L 3513 3500 
z
" transform="scale(0.015625)"/>
     </defs>
     <use xlink:href="#DejaVuSans-65"/>
     <use xlink:href="#DejaVuSans-78" x="59.773438"/>
     <use xlink:href="#DejaVuSans-74" x="118.953125"/>
     <use xlink:href="#DejaVuSans-65" x="158.162109"/>
     <use xlink:href="#DejaVuSans-72" x="219.685547"/>
     <use xlink:href="#DejaVuSans-6e" x="259.048828"/>
     <use xlink:href="#DejaVuSans-61" x="322.427734"/>
     <use xlink:href="#DejaVuSans-6c" x="383.707031"/>
     <use xlink:href="#DejaVuSans-2d" x="411.490234"/>
    </g>
   </g>
   <g id="text_16">
    <!-- best 2016 -->
    <g transform="translate(386.578944 16.615765)scale(0.14 -0.14)">
     <defs>
      <path id="DejaVuSans-62" d="M 3116 1747 
Q 3116 2381 2855 2742 
Q 2594 3103 2138 3103 
Q 1681 3103 1420 2742 
Q 1159 2381 1159 1747 
Q 1159 1113 1420 752 
Q 1681 391 2138 391 
Q 2594 391 2855 752 
Q 3116 1113 3116 1747 
z
M 1159 2969 
Q 1341 3281 1617 3432 
Q 1894 3584 2278 3584 
Q 2916 3584 3314 3078 
Q 3713 2572 3713 1747 
Q 3713 922 3314 415 
Q 2916 -91 2278 -91 
Q 1894 -91 1617 61 
Q 1341 213 1159 525 
L 1159 0 
L 581 0 
L 581 4863 
L 1159 4863 
L 1159 2969 
z
" transform="scale(0.015625)"/>
     </defs>
     <use xlink:href="#DejaVuSans-62"/>
     <use xlink:href="#DejaVuSans-65" x="63.476562"/>
     <use xlink:href="#DejaVuSans-73" x="125"/>
     <use xlink:href="#DejaVuSans-74" x="177.099609"/>
     <use xlink:href="#DejaVuSans-20" x="216.308594"/>
     <use xlink:href="#DejaVuSans-32" x="248.095703"/>
     <use xlink:href="#DejaVuSans-30" x="311.71875"/>
     <use xlink:href="#DejaVuSans-31" x="375.341797"/>
     <use xlink:href="#DejaVuSans-36" x="438.964844"/>
    </g>
   </g>
   <g id="text_17">
    <!-- bbob-biobj f7, f8, f16, f17, 10-D -->
    <g transform="translate(60.632064 17.582726)scale(0.102 -0.102)">
     <defs>
      <path id="DejaVuSans-6a" d="M 603 3500 
L 1178 3500 
L 1178 -63 
Q 1178 -731 923 -1031 
Q 669 -1331 103 -1331 
L -116 -1331 
L -116 -844 
L 38 -844 
Q 366 -844 484 -692 
Q 603 -541 603 -63 
L 603 3500 
z
M 603 4863 
L 1178 4863 
L 1178 4134 
L 603 4134 
L 603 4863 
z
" transform="scale(0.015625)"/>
      <path id="DejaVuSans-37" d="M 525 4666 
L 3525 4666 
L 3525 4397 
L 1831 0 
L 1172 0 
L 2766 4134 
L 525 4134 
L 525 4666 
z
" transform="scale(0.015625)"/>
      <path id="DejaVuSans-44" d="M 1259 4147 
L 1259 519 
L 2022 519 
Q 2988 519 3436 956 
Q 3884 1394 3884 2338 
Q 3884 3275 3436 3711 
Q 2988 4147 2022 4147 
L 1259 4147 
z
M 628 4666 
L 1925 4666 
Q 3281 4666 3915 4102 
Q 4550 3538 4550 2338 
Q 4550 1131 3912 565 
Q 3275 0 1925 0 
L 628 0 
L 628 4666 
z
" transform="scale(0.015625)"/>
     </defs>
     <use xlink:href="#DejaVuSans-62"/>
     <use xlink:href="#DejaVuSans-62" x="63.476562"/>
     <use xlink:href="#DejaVuSans-6f" x="126.953125"/>
     <use xlink:href="#DejaVuSans-62" x="188.134766"/>
     <use xlink:href="#DejaVuSans-2d" x="251.611328"/>
     <use xlink:href="#DejaVuSans-62" x="287.695312"/>
     <use xlink:href="#DejaVuSans-69" x="351.171875"/>
     <use xlink:href="#DejaVuSans-6f" x="378.955078"/>
     <use xlink:href="#DejaVuSans-62" x="440.136719"/>
     <use xlink:href="#DejaVuSans-6a" x="503.613281"/>
     <use xlink:href="#DejaVuSans-20" x="531.396484"/>
     <use xlink:href="#DejaVuSans-66" x="563.183594"/>
     <use xlink:href="#DejaVuSans-37" x="598.388672"/>
     <use xlink:href="#DejaVuSans-2c" x="662.011719"/>
     <use xlink:href="#DejaVuSans-20" x="693.798828"/>
     <use xlink:href="#DejaVuSans-66" x="725.585938"/>
     <use xlink:href="#DejaVuSans-38" x="760.791016"/>
     <use xlink:href="#DejaVuSans-2c" x="824.414062"/>
     <use xlink:href="#DejaVuSans-20" x="856.201172"/>
     <use xlink:href="#DejaVuSans-66" x="887.988281"/>
     <use xlink:href="#DejaVuSans-31" x="923.193359"/>
     <use xlink:href="#DejaVuSans-36" x="986.816406"/>
     <use xlink:href="#DejaVuSans-2c" x="1050.439453"/>
     <use xlink:href="#DejaVuSans-20" x="1082.226562"/>
     <use xlink:href="#DejaVuSans-66" x="1114.013672"/>
     <use xlink:href="#DejaVuSans-31" x="1149.21875"/>
     <use xlink:href="#DejaVuSans-37" x="1212.841797"/>
     <use xlink:href="#DejaVuSans-2c" x="1276.464844"/>
     <use xlink:href="#DejaVuSans-20" x="1308.251953"/>
     <use xlink:href="#DejaVuSans-31" x="1340.039062"/>
     <use xlink:href="#DejaVuSans-30" x="1403.662109"/>
     <use xlink:href="#DejaVuSans-2d" x="1467.285156"/>
     <use xlink:href="#DejaVuSans-44" x="1503.369141"/>
    </g>
    <!-- 58 targets: 1..-1.0e-4 -->
    <g transform="translate(60.632064 29.004495)scale(0.102 -0.102)">
     <defs>
      <path id="DejaVuSans-35" d="M 691 4666 
L 3169 4666 
L 3169 4134 
L 1269 4134 
L 1269 2991 
Q 1406 3038 1543 3061 
Q 1681 3084 1819 3084 
Q 2600 3084 3056 2656 
Q 3513 2228 3513 1497 
Q 3513 744 3044 326 
Q 2575 -91 1722 -91 
Q 1428 -91 1123 -41 
Q 819 9 494 109 
L 494 744 
Q 775 591 1075 516 
Q 1375 441 1709 441 
Q 2250 441 2565 725 
Q 2881 1009 2881 1497 
Q 2881 1984 2565 2268 
Q 2250 2553 1709 2553 
Q 1456 2553 1204 2497 
Q 953 2441 691 2322 
L 691 4666 
z
" transform="scale(0.015625)"/>
      <path id="DejaVuSans-3a" d="M 750 794 
L 1409 794 
L 1409 0 
L 750 0 
L 750 794 
z
M 750 3309 
L 1409 3309 
L 1409 2516 
L 750 2516 
L 750 3309 
z
" transform="scale(0.015625)"/>
     </defs>
     <use xlink:href="#DejaVuSans-35"/>
     <use xlink:href="#DejaVuSans-38" x="63.623047"/>
     <use xlink:href="#DejaVuSans-20" x="127.246094"/>
     <use xlink:href="#DejaVuSans-74" x="159.033203"/>
     <use xlink:href="#DejaVuSans-61" x="198.242188"/>
     <use xlink:href="#DejaVuSans-72" x="259.521484"/>
     <use xlink:href="#DejaVuSans-67" x="298.884766"/>
     <use xlink:href="#DejaVuSans-65" x="362.361328"/>
     <use xlink:href="#DejaVuSans-74" x="423.884766"/>
     <use xlink:href="#DejaVuSans-73" x="463.09375"/>
     <use xlink:href="#DejaVuSans-3a" x="515.193359"/>
     <use xlink:href="#DejaVuSans-20" x="548.884766"/>
     <use xlink:href="#DejaVuSans-31" x="580.671875"/>
     <use xlink:href="#DejaVuSans-2e" x="644.294922"/>
     <use xlink:href="#DejaVuSans-2e" x="676.082031"/>
     <use xlink:href="#DejaVuSans-2d" x="707.869141"/>
     <use xlink:href="#DejaVuSans-31" x="743.953125"/>
     <use xlink:href="#DejaVuSans-2e" x="807.576172"/>
     <use xlink:href="#DejaVuSans-30" x="839.363281"/>
     <use xlink:href="#DejaVuSans-65" x="902.986328"/>
     <use xlink:href="#DejaVuSans-2d" x="964.509766"/>
     <use xlink:href="#DejaVuSans-34" x="1000.59375"/>
    </g>
    <!-- 10 instances -->
    <g transform="translate(60.632064 40.426264)scale(0.102 -0.102)">
     <use xlink:href="#DejaVuSans-31"/>
     <use xlink:href="#DejaVuSans-30" x="63.623047"/>
     <use xlink:href="#DejaVuSans-20" x="127.246094"/>
     <use xlink:href="#DejaVuSans-69" x="159.033203"/>
     <use xlink:href="#DejaVuSans-6e" x="186.816406"/>
     <use xlink:href="#DejaVuSans-73" x="250.195312"/>
     <use xlink:href="#DejaVuSans-74" x="302.294922"/>
     <use xlink:href="#DejaVuSans-61" x="341.503906"/>
     <use xlink:href="#DejaVuSans-6e" x="402.783203"/>
     <use xlink:href="#DejaVuSans-63" x="466.162109"/>
     <use xlink:href="#DejaVuSans-65" x="521.142578"/>
     <use xlink:href="#DejaVuSans-73" x="582.666016"/>
    </g>
   </g>
   <g id="text_18">
    <!-- v2.6, hv-hash=ff0e71e8cd978373 -->
    <g style="fill: #808080" transform="translate(123.707887 293.943992)scale(0.1 -0.1)">
     <defs>
      <path id="DejaVuSans-68" d="M 3513 2113 
L 3513 0 
L 2938 0 
L 2938 2094 
Q 2938 2591 2744 2837 
Q 2550 3084 2163 3084 
Q 1697 3084 1428 2787 
Q 1159 2491 1159 1978 
L 1159 0 
L 581 0 
L 581 4863 
L 1159 4863 
L 1159 2956 
Q 1366 3272 1645 3428 
Q 1925 3584 2291 3584 
Q 2894 3584 3203 3211 
Q 3513 2838 3513 2113 
z
" transform="scale(0.015625)"/>
      <path id="DejaVuSans-3d" d="M 678 2906 
L 4684 2906 
L 4684 2381 
L 678 2381 
L 678 2906 
z
M 678 1631 
L 4684 1631 
L 4684 1100 
L 678 1100 
L 678 1631 
z
" transform="scale(0.015625)"/>
      <path id="DejaVuSans-39" d="M 703 97 
L 703 672 
Q 941 559 1184 500 
Q 1428 441 1663 441 
Q 2288 441 2617 861 
Q 2947 1281 2994 2138 
Q 2813 1869 2534 1725 
Q 2256 1581 1919 1581 
Q 1219 1581 811 2004 
Q 403 2428 403 3163 
Q 403 3881 828 4315 
Q 1253 4750 1959 4750 
Q 2769 4750 3195 4129 
Q 3622 3509 3622 2328 
Q 3622 1225 3098 567 
Q 2575 -91 1691 -91 
Q 1453 -91 1209 -44 
Q 966 3 703 97 
z
M 1959 2075 
Q 2384 2075 2632 2365 
Q 2881 2656 2881 3163 
Q 2881 3666 2632 3958 
Q 2384 4250 1959 4250 
Q 1534 4250 1286 3958 
Q 1038 3666 1038 3163 
Q 1038 2656 1286 2365 
Q 1534 2075 1959 2075 
z
" transform="scale(0.015625)"/>
      <path id="DejaVuSans-33" d="M 2597 2516 
Q 3050 2419 3304 2112 
Q 3559 1806 3559 1356 
Q 3559 666 3084 287 
Q 2609 -91 1734 -91 
Q 1441 -91 1130 -33 
Q 819 25 488 141 
L 488 750 
Q 750 597 1062 519 
Q 1375 441 1716 441 
Q 2309 441 2620 675 
Q 2931 909 2931 1356 
Q 2931 1769 2642 2001 
Q 2353 2234 1838 2234 
L 1294 2234 
L 1294 2753 
L 1863 2753 
Q 2328 2753 2575 2939 
Q 2822 3125 2822 3475 
Q 2822 3834 2567 4026 
Q 2313 4219 1838 4219 
Q 1578 4219 1281 4162 
Q 984 4106 628 3988 
L 628 4550 
Q 988 4650 1302 4700 
Q 1616 4750 1894 4750 
Q 2613 4750 3031 4423 
Q 3450 4097 3450 3541 
Q 3450 3153 3228 2886 
Q 3006 2619 2597 2516 
z
" transform="scale(0.015625)"/>
     </defs>
     <use xlink:href="#DejaVuSans-76"/>
     <use xlink:href="#DejaVuSans-32" x="59.179688"/>
     <use xlink:href="#DejaVuSans-2e" x="122.802734"/>
     <use xlink:href="#DejaVuSans-36" x="154.589844"/>
     <use xlink:href="#DejaVuSans-2c" x="218.212891"/>
     <use xlink:href="#DejaVuSans-20" x="250"/>
     <use xlink:href="#DejaVuSans-68" x="281.787109"/>
     <use xlink:href="#DejaVuSans-76" x="345.166016"/>
     <use xlink:href="#DejaVuSans-2d" x="401.720703"/>
     <use xlink:href="#DejaVuSans-68" x="437.804688"/>
     <use xlink:href="#DejaVuSans-61" x="501.183594"/>
     <use xlink:href="#DejaVuSans-73" x="562.462891"/>
     <use xlink:href="#DejaVuSans-68" x="614.5625"/>
     <use xlink:href="#DejaVuSans-3d" x="677.941406"/>
     <use xlink:href="#DejaVuSans-66" x="761.730469"/>
     <use xlink:href="#DejaVuSans-66" x="796.935547"/>
     <use xlink:href="#DejaVuSans-30" x="832.140625"/>
     <use xlink:href="#DejaVuSans-65" x="895.763672"/>
     <use xlink:href="#DejaVuSans-37" x="957.287109"/>
     <use xlink:href="#DejaVuSans-31" x="1020.910156"/>
     <use xlink:href="#DejaVuSans-65" x="1084.533203"/>
     <use xlink:href="#DejaVuSans-38" x="1146.056641"/>
     <use xlink:href="#DejaVuSans-63" x="1209.679688"/>
     <use xlink:href="#DejaVuSans-64" x="1264.660156"/>
     <use xlink:href="#DejaVuSans-39" x="1328.136719"/>
     <use xlink:href="#DejaVuSans-37" x="1391.759766"/>
     <use xlink:href="#DejaVuSans-38" x="1455.382812"/>
     <use xlink:href="#DejaVuSans-33" x="1519.005859"/>
     <use xlink:href="#DejaVuSans-37" x="1582.628906"/>
     <use xlink:href="#DejaVuSans-33" x="1646.251953"/>
    </g>
   </g>
  </g>
 </g>
 <defs>
  <clipPath id="p79d1fc8798">
   <rect x="57.6" y="6.912" width="303.2064" height="292.032"/>
  </clipPath>
 </defs>
</svg>
