<?xml version="1.0" encoding="utf-8" standalone="no"?>
<!DOCTYPE svg PUBLIC "-//W3C//DTD SVG 1.1//EN"
  "http://www.w3.org/Graphics/SVG/1.1/DTD/svg11.dtd">
<svg xmlns:xlink="http://www.w3.org/1999/xlink" width="460.8pt" height="345.6pt" viewBox="0 0 460.8 345.6" xmlns="http://www.w3.org/2000/svg" version="1.1">
 <metadata>
  <rdf:RDF xmlns:dc="http://purl.org/dc/elements/1.1/" xmlns:cc="http://creativecommons.org/ns#" xmlns:rdf="http://www.w3.org/1999/02/22-rdf-syntax-ns#">
   <cc:Work>
    <dc:type rdf:resource="http://purl.org/dc/dcmitype/StillImage"/>
    <dc:date>2022-06-19T21:03:00.552191</dc:date>
    <dc:format>image/svg+xml</dc:format>
    <dc:creator>
     <cc:Agent>
      <dc:title>Matplotlib v3.5.1, https://matplotlib.org/</dc:title>
     </cc:Agent>
    </dc:creator>
   </cc:Work>
  </rdf:RDF>
 </metadata>
 <defs>
  <style type="text/css">*{stroke-linejoin: round; stroke-linecap: butt}</style>
 </defs>
 <g id="figure_1">
  <g id="patch_1">
   <path d="M 0 345.6 
L 460.8 345.6 
L 460.8 0 
L 0 0 
z
" style="fill: #ffffff"/>
  </g>
  <g id="axes_1">
   <g id="patch_2">
    <path d="M 57.6 298.944 
L 360.8064 298.944 
L 360.8064 6.912 
L 57.6 6.912 
z
" style="fill: #ffffff"/>
   </g>
   <g id="line2d_1">
    <path d="M 1.245626 298.944 
L 1.245626 296.426483 
L 21.912228 296.426483 
L 21.912228 291.391448 
L 42.578831 291.391448 
L 42.578831 288.873931 
L 55.618005 288.873931 
L 55.618005 286.356414 
L 56.635094 286.356414 
L 56.635094 285.097655 
L 61.797677 285.097655 
L 61.797677 281.321379 
L 67.020361 281.321379 
L 67.020361 278.803862 
L 73.268314 278.803862 
L 73.268314 276.286345 
L 80.342421 276.286345 
L 80.342421 273.768828 
L 82.959349 273.768828 
L 82.959349 271.25131 
L 83.441723 271.25131 
L 83.441723 269.992552 
L 86.712053 269.992552 
L 86.712053 268.733793 
L 87.686963 268.733793 
L 87.686963 264.957517 
L 89.497162 264.957517 
L 89.497162 262.44 
L 91.922605 262.44 
L 91.922605 259.922483 
L 93.66029 259.922483 
L 93.66029 257.404966 
L 94.865713 257.404966 
L 94.865713 253.62869 
L 98.295464 253.62869 
L 98.295464 251.111172 
L 103.214303 251.111172 
L 103.214303 249.852414 
L 104.885773 249.852414 
L 104.885773 248.593655 
L 107.109915 248.593655 
L 107.109915 246.076138 
L 113.381389 246.076138 
L 113.381389 243.558621 
L 117.067958 243.558621 
L 117.067958 241.041103 
L 123.544976 241.041103 
L 123.544976 237.264828 
L 128.657782 237.264828 
L 128.657782 236.006069 
L 129.68393 236.006069 
L 129.68393 233.488552 
L 133.272658 233.488552 
L 133.272658 230.971034 
L 137.734561 230.971034 
L 137.734561 227.194759 
L 138.374515 227.194759 
L 138.374515 224.677241 
L 143.176174 224.677241 
L 143.176174 223.418483 
L 145.695567 223.418483 
L 145.695567 222.159724 
L 148.607806 222.159724 
L 148.607806 218.383448 
L 153.792735 218.383448 
L 153.792735 217.12469 
L 153.922412 217.12469 
L 153.922412 213.348414 
L 159.169088 213.348414 
L 159.169088 209.572138 
L 163.053839 209.572138 
L 163.053839 207.054621 
L 165.340085 207.054621 
L 165.340085 204.537103 
L 165.568365 204.537103 
L 165.568365 202.019586 
L 171.161511 202.019586 
L 171.161511 200.760828 
L 177.311405 200.760828 
L 177.311405 199.502069 
L 179.213336 199.502069 
L 179.213336 198.24331 
L 180.598003 198.24331 
L 180.598003 194.467034 
L 194.868335 194.467034 
L 194.868335 190.690759 
L 200.131646 190.690759 
L 200.182642 183.138207 
L 203.044668 183.138207 
L 203.044668 180.62069 
L 205.366603 180.62069 
L 205.366603 179.361931 
L 208.285737 179.361931 
L 208.285737 176.844414 
L 209.679979 176.844414 
L 209.679979 175.585655 
L 213.815553 175.585655 
L 213.815553 173.068138 
L 216.725971 173.068138 
L 216.725971 171.809379 
L 220.413268 171.809379 
L 220.413268 168.033103 
L 220.970249 168.033103 
L 220.970249 164.256828 
L 224.89881 164.256828 
L 224.89881 162.998069 
L 225.422322 162.998069 
L 225.422322 160.480552 
L 229.825069 160.480552 
L 229.825069 157.963034 
L 230.847627 157.963034 
L 230.847627 155.445517 
L 231.314292 155.445517 
L 231.314292 154.186759 
L 231.724615 154.186759 
L 231.724615 150.410483 
L 232.375584 150.410483 
L 232.375584 149.151724 
L 233.403206 149.151724 
L 233.403206 145.375448 
L 242.375245 145.375448 
L 242.375245 141.599172 
L 247.785475 141.599172 
L 247.785475 139.081655 
L 252.241374 139.081655 
L 252.241374 136.564138 
L 253.297805 136.564138 
L 253.297805 132.787862 
L 255.491627 132.787862 
L 255.491627 130.270345 
L 265.047334 130.270345 
L 265.047334 127.752828 
L 265.937508 127.752828 
L 265.937508 125.23531 
L 268.154852 125.23531 
L 268.154852 122.717793 
L 278.022633 122.717793 
L 278.022633 120.200276 
L 278.148743 120.200276 
L 278.148743 118.941517 
L 278.345958 118.941517 
L 278.44489 112.647724 
L 278.654066 112.647724 
L 278.654066 111.388966 
L 278.859299 111.388966 
L 278.859299 110.130207 
L 279.269503 110.130207 
L 279.269503 106.353931 
L 279.743868 106.353931 
L 279.743868 103.836414 
L 280.960368 103.836414 
L 280.960368 101.318897 
L 286.037989 101.318897 
L 286.037989 100.060138 
L 288.585685 100.060138 
L 288.687148 93.766345 
L 288.784222 93.766345 
L 288.784222 92.507586 
L 295.423365 92.507586 
L 295.423365 88.73131 
L 295.608228 88.73131 
L 295.608228 87.472552 
L 295.917284 87.472552 
L 295.917284 83.696276 
L 296.13274 83.696276 
L 296.13274 81.178759 
L 296.321199 81.178759 
L 296.321199 78.661241 
L 297.045165 78.661241 
L 297.045165 77.402483 
L 299.603192 77.402483 
L 299.603192 73.626207 
L 299.734248 73.626207 
L 299.734248 71.10869 
L 299.984091 71.10869 
L 299.984091 69.849931 
L 302.991021 69.849931 
L 302.991021 66.073655 
L 303.752023 66.073655 
L 303.752023 63.556138 
L 304.37079 63.556138 
L 304.37079 61.038621 
L 304.733605 61.038621 
L 304.733605 59.779862 
L 305.182537 59.779862 
L 305.182537 58.521103 
L 305.340673 58.521103 
L 305.340673 56.003586 
L 305.765402 56.003586 
L 305.765402 53.486069 
L 306.556604 53.486069 
L 306.556604 49.709793 
L 306.68388 49.709793 
L 306.68388 45.933517 
L 312.021077 45.933517 
L 312.021077 42.157241 
L 360.8064 42.157241 
L 360.8064 42.157241 
" style="fill: none; stroke: #f5deb3; stroke-width: 4; stroke-linecap: square"/>
   </g>
   <g id="line2d_2">
    <defs>
     <path id="mfe975cf41d" d="M 0 7.778175 
L 7.778175 0 
L 0 -7.778175 
L -7.778175 0 
z
" style="stroke: #f5deb3; stroke-width: 1.5; stroke-linejoin: miter"/>
    </defs>
    <g>
     <use xlink:href="#mfe975cf41d" x="148.607806" y="218.383448" style="fill: #f5deb3; stroke: #f5deb3; stroke-width: 1.5; stroke-linejoin: miter"/>
     <use xlink:href="#mfe975cf41d" x="213.815553" y="175.585655" style="fill: #f5deb3; stroke: #f5deb3; stroke-width: 1.5; stroke-linejoin: miter"/>
     <use xlink:href="#mfe975cf41d" x="297.045165" y="78.661241" style="fill: #f5deb3; stroke: #f5deb3; stroke-width: 1.5; stroke-linejoin: miter"/>
     <use xlink:href="#mfe975cf41d" x="312.021077" y="42.157241" style="fill: #f5deb3; stroke: #f5deb3; stroke-width: 1.5; stroke-linejoin: miter"/>
     <use xlink:href="#mfe975cf41d" x="360.8064" y="42.157241" style="fill: #f5deb3; stroke: #f5deb3; stroke-width: 1.5; stroke-linejoin: miter"/>
    </g>
   </g>
   <g id="line2d_3">
    <path style="fill: none; stroke: #f5deb3; stroke-width: 4; stroke-linecap: square"/>
    <g/>
   </g>
   <g id="line2d_4">
    <path d="M 360.8064 42.157241 
L 380.514816 12.75264 
" style="fill: none; stroke: #f5deb3; stroke-width: 4; stroke-linecap: square"/>
    <g>
     <use xlink:href="#mfe975cf41d" x="360.8064" y="42.157241" style="fill: #f5deb3; stroke: #f5deb3; stroke-width: 1.5; stroke-linejoin: miter"/>
     <use xlink:href="#mfe975cf41d" x="380.514816" y="12.75264" style="fill: #f5deb3; stroke: #f5deb3; stroke-width: 1.5; stroke-linejoin: miter"/>
    </g>
   </g>
   <g id="matplotlib.axis_1">
    <g id="xtick_1">
     <g id="line2d_5">
      <path d="M 57.6 298.944 
L 57.6 6.912 
" clip-path="url(#p02367a6b2b)" style="fill: none; stroke: #b0b0b0; stroke-width: 0.8; stroke-linecap: square"/>
     </g>
     <g id="line2d_6">
      <defs>
       <path id="m0b533c2e51" d="M 0 0 
L 0 3.5 
" style="stroke: #000000; stroke-width: 0.8"/>
      </defs>
      <g>
       <use xlink:href="#m0b533c2e51" x="57.6" y="298.944" style="stroke: #000000; stroke-width: 0.8"/>
      </g>
     </g>
     <g id="text_1">
      <!-- 0 -->
      <g transform="translate(52.191875 318.861344)scale(0.17 -0.17)">
       <defs>
        <path id="DejaVuSans-30" d="M 2034 4250 
Q 1547 4250 1301 3770 
Q 1056 3291 1056 2328 
Q 1056 1369 1301 889 
Q 1547 409 2034 409 
Q 2525 409 2770 889 
Q 3016 1369 3016 2328 
Q 3016 3291 2770 3770 
Q 2525 4250 2034 4250 
z
M 2034 4750 
Q 2819 4750 3233 4129 
Q 3647 3509 3647 2328 
Q 3647 1150 3233 529 
Q 2819 -91 2034 -91 
Q 1250 -91 836 529 
Q 422 1150 422 2328 
Q 422 3509 836 4129 
Q 1250 4750 2034 4750 
z
" transform="scale(0.015625)"/>
       </defs>
       <use xlink:href="#DejaVuSans-30"/>
      </g>
     </g>
    </g>
    <g id="xtick_2">
     <g id="line2d_7">
      <path d="M 144.2304 298.944 
L 144.2304 6.912 
" clip-path="url(#p02367a6b2b)" style="fill: none; stroke: #b0b0b0; stroke-width: 0.8; stroke-linecap: square"/>
     </g>
     <g id="line2d_8">
      <g>
       <use xlink:href="#m0b533c2e51" x="144.2304" y="298.944" style="stroke: #000000; stroke-width: 0.8"/>
      </g>
     </g>
     <g id="text_2">
      <!-- 2 -->
      <g transform="translate(138.822275 318.861344)scale(0.17 -0.17)">
       <defs>
        <path id="DejaVuSans-32" d="M 1228 531 
L 3431 531 
L 3431 0 
L 469 0 
L 469 531 
Q 828 903 1448 1529 
Q 2069 2156 2228 2338 
Q 2531 2678 2651 2914 
Q 2772 3150 2772 3378 
Q 2772 3750 2511 3984 
Q 2250 4219 1831 4219 
Q 1534 4219 1204 4116 
Q 875 4013 500 3803 
L 500 4441 
Q 881 4594 1212 4672 
Q 1544 4750 1819 4750 
Q 2544 4750 2975 4387 
Q 3406 4025 3406 3419 
Q 3406 3131 3298 2873 
Q 3191 2616 2906 2266 
Q 2828 2175 2409 1742 
Q 1991 1309 1228 531 
z
" transform="scale(0.015625)"/>
       </defs>
       <use xlink:href="#DejaVuSans-32"/>
      </g>
     </g>
    </g>
    <g id="xtick_3">
     <g id="line2d_9">
      <path d="M 230.8608 298.944 
L 230.8608 6.912 
" clip-path="url(#p02367a6b2b)" style="fill: none; stroke: #b0b0b0; stroke-width: 0.8; stroke-linecap: square"/>
     </g>
     <g id="line2d_10">
      <g>
       <use xlink:href="#m0b533c2e51" x="230.8608" y="298.944" style="stroke: #000000; stroke-width: 0.8"/>
      </g>
     </g>
     <g id="text_3">
      <!-- 4 -->
      <g transform="translate(225.452675 318.861344)scale(0.17 -0.17)">
       <defs>
        <path id="DejaVuSans-34" d="M 2419 4116 
L 825 1625 
L 2419 1625 
L 2419 4116 
z
M 2253 4666 
L 3047 4666 
L 3047 1625 
L 3713 1625 
L 3713 1100 
L 3047 1100 
L 3047 0 
L 2419 0 
L 2419 1100 
L 313 1100 
L 313 1709 
L 2253 4666 
z
" transform="scale(0.015625)"/>
       </defs>
       <use xlink:href="#DejaVuSans-34"/>
      </g>
     </g>
    </g>
    <g id="xtick_4">
     <g id="line2d_11">
      <path d="M 317.4912 298.944 
L 317.4912 6.912 
" clip-path="url(#p02367a6b2b)" style="fill: none; stroke: #b0b0b0; stroke-width: 0.8; stroke-linecap: square"/>
     </g>
     <g id="line2d_12">
      <g>
       <use xlink:href="#m0b533c2e51" x="317.4912" y="298.944" style="stroke: #000000; stroke-width: 0.8"/>
      </g>
     </g>
     <g id="text_4">
      <!-- 6 -->
      <g transform="translate(312.083075 318.861344)scale(0.17 -0.17)">
       <defs>
        <path id="DejaVuSans-36" d="M 2113 2584 
Q 1688 2584 1439 2293 
Q 1191 2003 1191 1497 
Q 1191 994 1439 701 
Q 1688 409 2113 409 
Q 2538 409 2786 701 
Q 3034 994 3034 1497 
Q 3034 2003 2786 2293 
Q 2538 2584 2113 2584 
z
M 3366 4563 
L 3366 3988 
Q 3128 4100 2886 4159 
Q 2644 4219 2406 4219 
Q 1781 4219 1451 3797 
Q 1122 3375 1075 2522 
Q 1259 2794 1537 2939 
Q 1816 3084 2150 3084 
Q 2853 3084 3261 2657 
Q 3669 2231 3669 1497 
Q 3669 778 3244 343 
Q 2819 -91 2113 -91 
Q 1303 -91 875 529 
Q 447 1150 447 2328 
Q 447 3434 972 4092 
Q 1497 4750 2381 4750 
Q 2619 4750 2861 4703 
Q 3103 4656 3366 4563 
z
" transform="scale(0.015625)"/>
       </defs>
       <use xlink:href="#DejaVuSans-36"/>
      </g>
     </g>
    </g>
    <g id="xtick_5">
     <g id="line2d_13">
      <path d="M 100.9152 298.944 
L 100.9152 6.912 
" clip-path="url(#p02367a6b2b)" style="fill: none; stroke: #b0b0b0; stroke-width: 0.8; stroke-linecap: square"/>
     </g>
     <g id="line2d_14">
      <defs>
       <path id="mce35598412" d="M 0 0 
L 0 2 
" style="stroke: #000000; stroke-width: 0.6"/>
      </defs>
      <g>
       <use xlink:href="#mce35598412" x="100.9152" y="298.944" style="stroke: #000000; stroke-width: 0.6"/>
      </g>
     </g>
    </g>
    <g id="xtick_6">
     <g id="line2d_15">
      <path d="M 187.5456 298.944 
L 187.5456 6.912 
" clip-path="url(#p02367a6b2b)" style="fill: none; stroke: #b0b0b0; stroke-width: 0.8; stroke-linecap: square"/>
     </g>
     <g id="line2d_16">
      <g>
       <use xlink:href="#mce35598412" x="187.5456" y="298.944" style="stroke: #000000; stroke-width: 0.6"/>
      </g>
     </g>
    </g>
    <g id="xtick_7">
     <g id="line2d_17">
      <path d="M 274.176 298.944 
L 274.176 6.912 
" clip-path="url(#p02367a6b2b)" style="fill: none; stroke: #b0b0b0; stroke-width: 0.8; stroke-linecap: square"/>
     </g>
     <g id="line2d_18">
      <g>
       <use xlink:href="#mce35598412" x="274.176" y="298.944" style="stroke: #000000; stroke-width: 0.6"/>
      </g>
     </g>
    </g>
    <g id="xtick_8">
     <g id="line2d_19">
      <path d="M 360.8064 298.944 
L 360.8064 6.912 
" clip-path="url(#p02367a6b2b)" style="fill: none; stroke: #b0b0b0; stroke-width: 0.8; stroke-linecap: square"/>
     </g>
     <g id="line2d_20">
      <g>
       <use xlink:href="#mce35598412" x="360.8064" y="298.944" style="stroke: #000000; stroke-width: 0.6"/>
      </g>
     </g>
    </g>
    <g id="text_5">
     <!-- log10(# f-evals / dimension) -->
     <g transform="translate(88.823278 339.314156)scale(0.17 -0.17)">
      <defs>
       <path id="DejaVuSans-6c" d="M 603 4863 
L 1178 4863 
L 1178 0 
L 603 0 
L 603 4863 
z
" transform="scale(0.015625)"/>
       <path id="DejaVuSans-6f" d="M 1959 3097 
Q 1497 3097 1228 2736 
Q 959 2375 959 1747 
Q 959 1119 1226 758 
Q 1494 397 1959 397 
Q 2419 397 2687 759 
Q 2956 1122 2956 1747 
Q 2956 2369 2687 2733 
Q 2419 3097 1959 3097 
z
M 1959 3584 
Q 2709 3584 3137 3096 
Q 3566 2609 3566 1747 
Q 3566 888 3137 398 
Q 2709 -91 1959 -91 
Q 1206 -91 779 398 
Q 353 888 353 1747 
Q 353 2609 779 3096 
Q 1206 3584 1959 3584 
z
" transform="scale(0.015625)"/>
       <path id="DejaVuSans-67" d="M 2906 1791 
Q 2906 2416 2648 2759 
Q 2391 3103 1925 3103 
Q 1463 3103 1205 2759 
Q 947 2416 947 1791 
Q 947 1169 1205 825 
Q 1463 481 1925 481 
Q 2391 481 2648 825 
Q 2906 1169 2906 1791 
z
M 3481 434 
Q 3481 -459 3084 -895 
Q 2688 -1331 1869 -1331 
Q 1566 -1331 1297 -1286 
Q 1028 -1241 775 -1147 
L 775 -588 
Q 1028 -725 1275 -790 
Q 1522 -856 1778 -856 
Q 2344 -856 2625 -561 
Q 2906 -266 2906 331 
L 2906 616 
Q 2728 306 2450 153 
Q 2172 0 1784 0 
Q 1141 0 747 490 
Q 353 981 353 1791 
Q 353 2603 747 3093 
Q 1141 3584 1784 3584 
Q 2172 3584 2450 3431 
Q 2728 3278 2906 2969 
L 2906 3500 
L 3481 3500 
L 3481 434 
z
" transform="scale(0.015625)"/>
       <path id="DejaVuSans-31" d="M 794 531 
L 1825 531 
L 1825 4091 
L 703 3866 
L 703 4441 
L 1819 4666 
L 2450 4666 
L 2450 531 
L 3481 531 
L 3481 0 
L 794 0 
L 794 531 
z
" transform="scale(0.015625)"/>
       <path id="DejaVuSans-28" d="M 1984 4856 
Q 1566 4138 1362 3434 
Q 1159 2731 1159 2009 
Q 1159 1288 1364 580 
Q 1569 -128 1984 -844 
L 1484 -844 
Q 1016 -109 783 600 
Q 550 1309 550 2009 
Q 550 2706 781 3412 
Q 1013 4119 1484 4856 
L 1984 4856 
z
" transform="scale(0.015625)"/>
       <path id="DejaVuSans-23" d="M 3272 2816 
L 2363 2816 
L 2100 1772 
L 3016 1772 
L 3272 2816 
z
M 2803 4594 
L 2478 3297 
L 3391 3297 
L 3719 4594 
L 4219 4594 
L 3897 3297 
L 4872 3297 
L 4872 2816 
L 3775 2816 
L 3519 1772 
L 4513 1772 
L 4513 1294 
L 3397 1294 
L 3072 0 
L 2572 0 
L 2894 1294 
L 1978 1294 
L 1656 0 
L 1153 0 
L 1478 1294 
L 494 1294 
L 494 1772 
L 1594 1772 
L 1856 2816 
L 850 2816 
L 850 3297 
L 1978 3297 
L 2297 4594 
L 2803 4594 
z
" transform="scale(0.015625)"/>
       <path id="DejaVuSans-20" transform="scale(0.015625)"/>
       <path id="DejaVuSans-66" d="M 2375 4863 
L 2375 4384 
L 1825 4384 
Q 1516 4384 1395 4259 
Q 1275 4134 1275 3809 
L 1275 3500 
L 2222 3500 
L 2222 3053 
L 1275 3053 
L 1275 0 
L 697 0 
L 697 3053 
L 147 3053 
L 147 3500 
L 697 3500 
L 697 3744 
Q 697 4328 969 4595 
Q 1241 4863 1831 4863 
L 2375 4863 
z
" transform="scale(0.015625)"/>
       <path id="DejaVuSans-2d" d="M 313 2009 
L 1997 2009 
L 1997 1497 
L 313 1497 
L 313 2009 
z
" transform="scale(0.015625)"/>
       <path id="DejaVuSans-65" d="M 3597 1894 
L 3597 1613 
L 953 1613 
Q 991 1019 1311 708 
Q 1631 397 2203 397 
Q 2534 397 2845 478 
Q 3156 559 3463 722 
L 3463 178 
Q 3153 47 2828 -22 
Q 2503 -91 2169 -91 
Q 1331 -91 842 396 
Q 353 884 353 1716 
Q 353 2575 817 3079 
Q 1281 3584 2069 3584 
Q 2775 3584 3186 3129 
Q 3597 2675 3597 1894 
z
M 3022 2063 
Q 3016 2534 2758 2815 
Q 2500 3097 2075 3097 
Q 1594 3097 1305 2825 
Q 1016 2553 972 2059 
L 3022 2063 
z
" transform="scale(0.015625)"/>
       <path id="DejaVuSans-76" d="M 191 3500 
L 800 3500 
L 1894 563 
L 2988 3500 
L 3597 3500 
L 2284 0 
L 1503 0 
L 191 3500 
z
" transform="scale(0.015625)"/>
       <path id="DejaVuSans-61" d="M 2194 1759 
Q 1497 1759 1228 1600 
Q 959 1441 959 1056 
Q 959 750 1161 570 
Q 1363 391 1709 391 
Q 2188 391 2477 730 
Q 2766 1069 2766 1631 
L 2766 1759 
L 2194 1759 
z
M 3341 1997 
L 3341 0 
L 2766 0 
L 2766 531 
Q 2569 213 2275 61 
Q 1981 -91 1556 -91 
Q 1019 -91 701 211 
Q 384 513 384 1019 
Q 384 1609 779 1909 
Q 1175 2209 1959 2209 
L 2766 2209 
L 2766 2266 
Q 2766 2663 2505 2880 
Q 2244 3097 1772 3097 
Q 1472 3097 1187 3025 
Q 903 2953 641 2809 
L 641 3341 
Q 956 3463 1253 3523 
Q 1550 3584 1831 3584 
Q 2591 3584 2966 3190 
Q 3341 2797 3341 1997 
z
" transform="scale(0.015625)"/>
       <path id="DejaVuSans-73" d="M 2834 3397 
L 2834 2853 
Q 2591 2978 2328 3040 
Q 2066 3103 1784 3103 
Q 1356 3103 1142 2972 
Q 928 2841 928 2578 
Q 928 2378 1081 2264 
Q 1234 2150 1697 2047 
L 1894 2003 
Q 2506 1872 2764 1633 
Q 3022 1394 3022 966 
Q 3022 478 2636 193 
Q 2250 -91 1575 -91 
Q 1294 -91 989 -36 
Q 684 19 347 128 
L 347 722 
Q 666 556 975 473 
Q 1284 391 1588 391 
Q 1994 391 2212 530 
Q 2431 669 2431 922 
Q 2431 1156 2273 1281 
Q 2116 1406 1581 1522 
L 1381 1569 
Q 847 1681 609 1914 
Q 372 2147 372 2553 
Q 372 3047 722 3315 
Q 1072 3584 1716 3584 
Q 2034 3584 2315 3537 
Q 2597 3491 2834 3397 
z
" transform="scale(0.015625)"/>
       <path id="DejaVuSans-2f" d="M 1625 4666 
L 2156 4666 
L 531 -594 
L 0 -594 
L 1625 4666 
z
" transform="scale(0.015625)"/>
       <path id="DejaVuSans-64" d="M 2906 2969 
L 2906 4863 
L 3481 4863 
L 3481 0 
L 2906 0 
L 2906 525 
Q 2725 213 2448 61 
Q 2172 -91 1784 -91 
Q 1150 -91 751 415 
Q 353 922 353 1747 
Q 353 2572 751 3078 
Q 1150 3584 1784 3584 
Q 2172 3584 2448 3432 
Q 2725 3281 2906 2969 
z
M 947 1747 
Q 947 1113 1208 752 
Q 1469 391 1925 391 
Q 2381 391 2643 752 
Q 2906 1113 2906 1747 
Q 2906 2381 2643 2742 
Q 2381 3103 1925 3103 
Q 1469 3103 1208 2742 
Q 947 2381 947 1747 
z
" transform="scale(0.015625)"/>
       <path id="DejaVuSans-69" d="M 603 3500 
L 1178 3500 
L 1178 0 
L 603 0 
L 603 3500 
z
M 603 4863 
L 1178 4863 
L 1178 4134 
L 603 4134 
L 603 4863 
z
" transform="scale(0.015625)"/>
       <path id="DejaVuSans-6d" d="M 3328 2828 
Q 3544 3216 3844 3400 
Q 4144 3584 4550 3584 
Q 5097 3584 5394 3201 
Q 5691 2819 5691 2113 
L 5691 0 
L 5113 0 
L 5113 2094 
Q 5113 2597 4934 2840 
Q 4756 3084 4391 3084 
Q 3944 3084 3684 2787 
Q 3425 2491 3425 1978 
L 3425 0 
L 2847 0 
L 2847 2094 
Q 2847 2600 2669 2842 
Q 2491 3084 2119 3084 
Q 1678 3084 1418 2786 
Q 1159 2488 1159 1978 
L 1159 0 
L 581 0 
L 581 3500 
L 1159 3500 
L 1159 2956 
Q 1356 3278 1631 3431 
Q 1906 3584 2284 3584 
Q 2666 3584 2933 3390 
Q 3200 3197 3328 2828 
z
" transform="scale(0.015625)"/>
       <path id="DejaVuSans-6e" d="M 3513 2113 
L 3513 0 
L 2938 0 
L 2938 2094 
Q 2938 2591 2744 2837 
Q 2550 3084 2163 3084 
Q 1697 3084 1428 2787 
Q 1159 2491 1159 1978 
L 1159 0 
L 581 0 
L 581 3500 
L 1159 3500 
L 1159 2956 
Q 1366 3272 1645 3428 
Q 1925 3584 2291 3584 
Q 2894 3584 3203 3211 
Q 3513 2838 3513 2113 
z
" transform="scale(0.015625)"/>
       <path id="DejaVuSans-29" d="M 513 4856 
L 1013 4856 
Q 1481 4119 1714 3412 
Q 1947 2706 1947 2009 
Q 1947 1309 1714 600 
Q 1481 -109 1013 -844 
L 513 -844 
Q 928 -128 1133 580 
Q 1338 1288 1338 2009 
Q 1338 2731 1133 3434 
Q 928 4138 513 4856 
z
" transform="scale(0.015625)"/>
      </defs>
      <use xlink:href="#DejaVuSans-6c"/>
      <use xlink:href="#DejaVuSans-6f" x="27.783203"/>
      <use xlink:href="#DejaVuSans-67" x="88.964844"/>
      <use xlink:href="#DejaVuSans-31" x="152.441406"/>
      <use xlink:href="#DejaVuSans-30" x="216.064453"/>
      <use xlink:href="#DejaVuSans-28" x="279.6875"/>
      <use xlink:href="#DejaVuSans-23" x="318.701172"/>
      <use xlink:href="#DejaVuSans-20" x="402.490234"/>
      <use xlink:href="#DejaVuSans-66" x="434.277344"/>
      <use xlink:href="#DejaVuSans-2d" x="463.982422"/>
      <use xlink:href="#DejaVuSans-65" x="500.066406"/>
      <use xlink:href="#DejaVuSans-76" x="561.589844"/>
      <use xlink:href="#DejaVuSans-61" x="620.769531"/>
      <use xlink:href="#DejaVuSans-6c" x="682.048828"/>
      <use xlink:href="#DejaVuSans-73" x="709.832031"/>
      <use xlink:href="#DejaVuSans-20" x="761.931641"/>
      <use xlink:href="#DejaVuSans-2f" x="793.71875"/>
      <use xlink:href="#DejaVuSans-20" x="827.410156"/>
      <use xlink:href="#DejaVuSans-64" x="859.197266"/>
      <use xlink:href="#DejaVuSans-69" x="922.673828"/>
      <use xlink:href="#DejaVuSans-6d" x="950.457031"/>
      <use xlink:href="#DejaVuSans-65" x="1047.869141"/>
      <use xlink:href="#DejaVuSans-6e" x="1109.392578"/>
      <use xlink:href="#DejaVuSans-73" x="1172.771484"/>
      <use xlink:href="#DejaVuSans-69" x="1224.871094"/>
      <use xlink:href="#DejaVuSans-6f" x="1252.654297"/>
      <use xlink:href="#DejaVuSans-6e" x="1313.835938"/>
      <use xlink:href="#DejaVuSans-29" x="1377.214844"/>
     </g>
    </g>
   </g>
   <g id="matplotlib.axis_2">
    <g id="ytick_1">
     <g id="line2d_21">
      <path d="M 57.6 298.944 
L 360.8064 298.944 
" clip-path="url(#p02367a6b2b)" style="fill: none; stroke: #b0b0b0; stroke-width: 0.8; stroke-linecap: square"/>
     </g>
     <g id="line2d_22">
      <defs>
       <path id="m484f34a51a" d="M 0 0 
L -3.5 0 
" style="stroke: #000000; stroke-width: 0.8"/>
      </defs>
      <g>
       <use xlink:href="#m484f34a51a" x="57.6" y="298.944" style="stroke: #000000; stroke-width: 0.8"/>
      </g>
     </g>
     <g id="text_6">
      <!-- 0.0 -->
      <g transform="translate(25.155 305.02275)scale(0.16 -0.16)">
       <defs>
        <path id="DejaVuSans-2e" d="M 684 794 
L 1344 794 
L 1344 0 
L 684 0 
L 684 794 
z
" transform="scale(0.015625)"/>
       </defs>
       <use xlink:href="#DejaVuSans-30"/>
       <use xlink:href="#DejaVuSans-2e" x="63.623047"/>
       <use xlink:href="#DejaVuSans-30" x="95.410156"/>
      </g>
     </g>
    </g>
    <g id="ytick_2">
     <g id="line2d_23">
      <path d="M 57.6 240.5376 
L 360.8064 240.5376 
" clip-path="url(#p02367a6b2b)" style="fill: none; stroke: #b0b0b0; stroke-width: 0.8; stroke-linecap: square"/>
     </g>
     <g id="line2d_24">
      <g>
       <use xlink:href="#m484f34a51a" x="57.6" y="240.5376" style="stroke: #000000; stroke-width: 0.8"/>
      </g>
     </g>
     <g id="text_7">
      <!-- 0.2 -->
      <g transform="translate(25.155 246.61635)scale(0.16 -0.16)">
       <use xlink:href="#DejaVuSans-30"/>
       <use xlink:href="#DejaVuSans-2e" x="63.623047"/>
       <use xlink:href="#DejaVuSans-32" x="95.410156"/>
      </g>
     </g>
    </g>
    <g id="ytick_3">
     <g id="line2d_25">
      <path d="M 57.6 182.1312 
L 360.8064 182.1312 
" clip-path="url(#p02367a6b2b)" style="fill: none; stroke: #b0b0b0; stroke-width: 0.8; stroke-linecap: square"/>
     </g>
     <g id="line2d_26">
      <g>
       <use xlink:href="#m484f34a51a" x="57.6" y="182.1312" style="stroke: #000000; stroke-width: 0.8"/>
      </g>
     </g>
     <g id="text_8">
      <!-- 0.4 -->
      <g transform="translate(25.155 188.20995)scale(0.16 -0.16)">
       <use xlink:href="#DejaVuSans-30"/>
       <use xlink:href="#DejaVuSans-2e" x="63.623047"/>
       <use xlink:href="#DejaVuSans-34" x="95.410156"/>
      </g>
     </g>
    </g>
    <g id="ytick_4">
     <g id="line2d_27">
      <path d="M 57.6 123.7248 
L 360.8064 123.7248 
" clip-path="url(#p02367a6b2b)" style="fill: none; stroke: #b0b0b0; stroke-width: 0.8; stroke-linecap: square"/>
     </g>
     <g id="line2d_28">
      <g>
       <use xlink:href="#m484f34a51a" x="57.6" y="123.7248" style="stroke: #000000; stroke-width: 0.8"/>
      </g>
     </g>
     <g id="text_9">
      <!-- 0.6 -->
      <g transform="translate(25.155 129.80355)scale(0.16 -0.16)">
       <use xlink:href="#DejaVuSans-30"/>
       <use xlink:href="#DejaVuSans-2e" x="63.623047"/>
       <use xlink:href="#DejaVuSans-36" x="95.410156"/>
      </g>
     </g>
    </g>
    <g id="ytick_5">
     <g id="line2d_29">
      <path d="M 57.6 65.3184 
L 360.8064 65.3184 
" clip-path="url(#p02367a6b2b)" style="fill: none; stroke: #b0b0b0; stroke-width: 0.8; stroke-linecap: square"/>
     </g>
     <g id="line2d_30">
      <g>
       <use xlink:href="#m484f34a51a" x="57.6" y="65.3184" style="stroke: #000000; stroke-width: 0.8"/>
      </g>
     </g>
     <g id="text_10">
      <!-- 0.8 -->
      <g transform="translate(25.155 71.39715)scale(0.16 -0.16)">
       <defs>
        <path id="DejaVuSans-38" d="M 2034 2216 
Q 1584 2216 1326 1975 
Q 1069 1734 1069 1313 
Q 1069 891 1326 650 
Q 1584 409 2034 409 
Q 2484 409 2743 651 
Q 3003 894 3003 1313 
Q 3003 1734 2745 1975 
Q 2488 2216 2034 2216 
z
M 1403 2484 
Q 997 2584 770 2862 
Q 544 3141 544 3541 
Q 544 4100 942 4425 
Q 1341 4750 2034 4750 
Q 2731 4750 3128 4425 
Q 3525 4100 3525 3541 
Q 3525 3141 3298 2862 
Q 3072 2584 2669 2484 
Q 3125 2378 3379 2068 
Q 3634 1759 3634 1313 
Q 3634 634 3220 271 
Q 2806 -91 2034 -91 
Q 1263 -91 848 271 
Q 434 634 434 1313 
Q 434 1759 690 2068 
Q 947 2378 1403 2484 
z
M 1172 3481 
Q 1172 3119 1398 2916 
Q 1625 2713 2034 2713 
Q 2441 2713 2670 2916 
Q 2900 3119 2900 3481 
Q 2900 3844 2670 4047 
Q 2441 4250 2034 4250 
Q 1625 4250 1398 4047 
Q 1172 3844 1172 3481 
z
" transform="scale(0.015625)"/>
       </defs>
       <use xlink:href="#DejaVuSans-30"/>
       <use xlink:href="#DejaVuSans-2e" x="63.623047"/>
       <use xlink:href="#DejaVuSans-38" x="95.410156"/>
      </g>
     </g>
    </g>
    <g id="ytick_6">
     <g id="line2d_31">
      <path d="M 57.6 6.912 
L 360.8064 6.912 
" clip-path="url(#p02367a6b2b)" style="fill: none; stroke: #b0b0b0; stroke-width: 0.8; stroke-linecap: square"/>
     </g>
     <g id="line2d_32">
      <g>
       <use xlink:href="#m484f34a51a" x="57.6" y="6.912" style="stroke: #000000; stroke-width: 0.8"/>
      </g>
     </g>
     <g id="text_11">
      <!-- 1.0 -->
      <g transform="translate(25.155 12.99075)scale(0.16 -0.16)">
       <use xlink:href="#DejaVuSans-31"/>
       <use xlink:href="#DejaVuSans-2e" x="63.623047"/>
       <use xlink:href="#DejaVuSans-30" x="95.410156"/>
      </g>
     </g>
    </g>
    <g id="text_12">
     <!-- Fraction of function,target pairs -->
     <g transform="translate(17.619531 287.313)rotate(-90)scale(0.17 -0.17)">
      <defs>
       <path id="DejaVuSans-46" d="M 628 4666 
L 3309 4666 
L 3309 4134 
L 1259 4134 
L 1259 2759 
L 3109 2759 
L 3109 2228 
L 1259 2228 
L 1259 0 
L 628 0 
L 628 4666 
z
" transform="scale(0.015625)"/>
       <path id="DejaVuSans-72" d="M 2631 2963 
Q 2534 3019 2420 3045 
Q 2306 3072 2169 3072 
Q 1681 3072 1420 2755 
Q 1159 2438 1159 1844 
L 1159 0 
L 581 0 
L 581 3500 
L 1159 3500 
L 1159 2956 
Q 1341 3275 1631 3429 
Q 1922 3584 2338 3584 
Q 2397 3584 2469 3576 
Q 2541 3569 2628 3553 
L 2631 2963 
z
" transform="scale(0.015625)"/>
       <path id="DejaVuSans-63" d="M 3122 3366 
L 3122 2828 
Q 2878 2963 2633 3030 
Q 2388 3097 2138 3097 
Q 1578 3097 1268 2742 
Q 959 2388 959 1747 
Q 959 1106 1268 751 
Q 1578 397 2138 397 
Q 2388 397 2633 464 
Q 2878 531 3122 666 
L 3122 134 
Q 2881 22 2623 -34 
Q 2366 -91 2075 -91 
Q 1284 -91 818 406 
Q 353 903 353 1747 
Q 353 2603 823 3093 
Q 1294 3584 2113 3584 
Q 2378 3584 2631 3529 
Q 2884 3475 3122 3366 
z
" transform="scale(0.015625)"/>
       <path id="DejaVuSans-74" d="M 1172 4494 
L 1172 3500 
L 2356 3500 
L 2356 3053 
L 1172 3053 
L 1172 1153 
Q 1172 725 1289 603 
Q 1406 481 1766 481 
L 2356 481 
L 2356 0 
L 1766 0 
Q 1100 0 847 248 
Q 594 497 594 1153 
L 594 3053 
L 172 3053 
L 172 3500 
L 594 3500 
L 594 4494 
L 1172 4494 
z
" transform="scale(0.015625)"/>
       <path id="DejaVuSans-75" d="M 544 1381 
L 544 3500 
L 1119 3500 
L 1119 1403 
Q 1119 906 1312 657 
Q 1506 409 1894 409 
Q 2359 409 2629 706 
Q 2900 1003 2900 1516 
L 2900 3500 
L 3475 3500 
L 3475 0 
L 2900 0 
L 2900 538 
Q 2691 219 2414 64 
Q 2138 -91 1772 -91 
Q 1169 -91 856 284 
Q 544 659 544 1381 
z
M 1991 3584 
L 1991 3584 
z
" transform="scale(0.015625)"/>
       <path id="DejaVuSans-2c" d="M 750 794 
L 1409 794 
L 1409 256 
L 897 -744 
L 494 -744 
L 750 256 
L 750 794 
z
" transform="scale(0.015625)"/>
       <path id="DejaVuSans-70" d="M 1159 525 
L 1159 -1331 
L 581 -1331 
L 581 3500 
L 1159 3500 
L 1159 2969 
Q 1341 3281 1617 3432 
Q 1894 3584 2278 3584 
Q 2916 3584 3314 3078 
Q 3713 2572 3713 1747 
Q 3713 922 3314 415 
Q 2916 -91 2278 -91 
Q 1894 -91 1617 61 
Q 1341 213 1159 525 
z
M 3116 1747 
Q 3116 2381 2855 2742 
Q 2594 3103 2138 3103 
Q 1681 3103 1420 2742 
Q 1159 2381 1159 1747 
Q 1159 1113 1420 752 
Q 1681 391 2138 391 
Q 2594 391 2855 752 
Q 3116 1113 3116 1747 
z
" transform="scale(0.015625)"/>
      </defs>
      <use xlink:href="#DejaVuSans-46"/>
      <use xlink:href="#DejaVuSans-72" x="50.269531"/>
      <use xlink:href="#DejaVuSans-61" x="91.382812"/>
      <use xlink:href="#DejaVuSans-63" x="152.662109"/>
      <use xlink:href="#DejaVuSans-74" x="207.642578"/>
      <use xlink:href="#DejaVuSans-69" x="246.851562"/>
      <use xlink:href="#DejaVuSans-6f" x="274.634766"/>
      <use xlink:href="#DejaVuSans-6e" x="335.816406"/>
      <use xlink:href="#DejaVuSans-20" x="399.195312"/>
      <use xlink:href="#DejaVuSans-6f" x="430.982422"/>
      <use xlink:href="#DejaVuSans-66" x="492.164062"/>
      <use xlink:href="#DejaVuSans-20" x="527.369141"/>
      <use xlink:href="#DejaVuSans-66" x="559.15625"/>
      <use xlink:href="#DejaVuSans-75" x="594.361328"/>
      <use xlink:href="#DejaVuSans-6e" x="657.740234"/>
      <use xlink:href="#DejaVuSans-63" x="721.119141"/>
      <use xlink:href="#DejaVuSans-74" x="776.099609"/>
      <use xlink:href="#DejaVuSans-69" x="815.308594"/>
      <use xlink:href="#DejaVuSans-6f" x="843.091797"/>
      <use xlink:href="#DejaVuSans-6e" x="904.273438"/>
      <use xlink:href="#DejaVuSans-2c" x="967.652344"/>
      <use xlink:href="#DejaVuSans-74" x="999.439453"/>
      <use xlink:href="#DejaVuSans-61" x="1038.648438"/>
      <use xlink:href="#DejaVuSans-72" x="1099.927734"/>
      <use xlink:href="#DejaVuSans-67" x="1139.291016"/>
      <use xlink:href="#DejaVuSans-65" x="1202.767578"/>
      <use xlink:href="#DejaVuSans-74" x="1264.291016"/>
      <use xlink:href="#DejaVuSans-20" x="1303.5"/>
      <use xlink:href="#DejaVuSans-70" x="1335.287109"/>
      <use xlink:href="#DejaVuSans-61" x="1398.763672"/>
      <use xlink:href="#DejaVuSans-69" x="1460.042969"/>
      <use xlink:href="#DejaVuSans-72" x="1487.826172"/>
      <use xlink:href="#DejaVuSans-73" x="1528.939453"/>
     </g>
    </g>
   </g>
   <g id="line2d_33">
    <defs>
     <path id="m9c41fc04d9" d="M 0 1.5 
C 0.397805 1.5 0.77937 1.341951 1.06066 1.06066 
C 1.341951 0.77937 1.5 0.397805 1.5 0 
C 1.5 -0.397805 1.341951 -0.77937 1.06066 -1.06066 
C 0.77937 -1.341951 0.397805 -1.5 0 -1.5 
C -0.397805 -1.5 -0.77937 -1.341951 -1.06066 -1.06066 
C -1.341951 -0.77937 -1.5 -0.397805 -1.5 0 
C -1.5 0.397805 -1.341951 0.77937 -1.06066 1.06066 
C -0.77937 1.341951 -0.397805 1.5 0 1.5 
z
" style="stroke: #f5deb3"/>
    </defs>
    <g>
     <use xlink:href="#m9c41fc04d9" x="312.021077" y="42.157241" style="fill: #f5deb3; stroke: #f5deb3"/>
     <use xlink:href="#m9c41fc04d9" x="312.021077" y="42.157241" style="fill: #f5deb3; stroke: #f5deb3"/>
    </g>
   </g>
   <g id="line2d_34">
    <defs>
     <path id="mcb42d53be4" d="M 0 1.5 
C 0.397805 1.5 0.77937 1.341951 1.06066 1.06066 
C 1.341951 0.77937 1.5 0.397805 1.5 0 
C 1.5 -0.397805 1.341951 -0.77937 1.06066 -1.06066 
C 0.77937 -1.341951 0.397805 -1.5 0 -1.5 
C -0.397805 -1.5 -0.77937 -1.341951 -1.06066 -1.06066 
C -1.341951 -0.77937 -1.5 -0.397805 -1.5 0 
C -1.5 0.397805 -1.341951 0.77937 -1.06066 1.06066 
C -0.77937 1.341951 -0.397805 1.5 0 1.5 
z
" style="stroke: #000080"/>
    </defs>
    <g>
     <use xlink:href="#mcb42d53be4" x="74.836851" y="284.845903" style="fill: #000080; stroke: #000080"/>
     <use xlink:href="#mcb42d53be4" x="74.836851" y="284.845903" style="fill: #000080; stroke: #000080"/>
    </g>
   </g>
   <g id="line2d_35">
    <path d="M 1.245626 298.944 
L 1.245626 287.866924 
L 14.2848 287.866924 
L 14.2848 287.741048 
L 27.323974 287.741048 
L 27.323974 287.615172 
L 34.951403 287.615172 
L 34.951403 287.489297 
L 44.560826 287.489297 
L 44.560826 287.363421 
L 54.542767 287.363421 
L 54.542767 287.111669 
L 55.618005 287.111669 
L 55.618005 286.985793 
L 57.6 286.985793 
L 57.6 286.859917 
L 59.392932 286.859917 
L 59.392932 286.734041 
L 61.797677 286.734041 
L 61.797677 286.608166 
L 67.581941 286.608166 
L 67.581941 286.356414 
L 68.127242 286.356414 
L 68.127242 286.104662 
L 69.172597 286.104662 
L 69.172597 285.978786 
L 71.103681 285.978786 
L 71.103681 285.85291 
L 72.432107 285.85291 
L 72.432107 285.727034 
L 73.672879 285.727034 
L 73.672879 285.601159 
L 74.836851 285.601159 
L 74.836851 284.845903 
L 360.8064 284.845903 
" style="fill: none; stroke: #000080; stroke-width: 1.5; stroke-linecap: square"/>
   </g>
   <g id="line2d_36">
    <defs>
     <path id="m2779c9c50f" d="M 0 6 
C 1.591219 6 3.117479 5.367802 4.242641 4.242641 
C 5.367802 3.117479 6 1.591219 6 0 
C 6 -1.591219 5.367802 -3.117479 4.242641 -4.242641 
C 3.117479 -5.367802 1.591219 -6 0 -6 
C -1.591219 -6 -3.117479 -5.367802 -4.242641 -4.242641 
C -5.367802 -3.117479 -6 -1.591219 -6 0 
C -6 1.591219 -5.367802 3.117479 -4.242641 4.242641 
C -3.117479 5.367802 -1.591219 6 0 6 
z
" style="stroke: #000080; stroke-width: 1.5"/>
    </defs>
    <g>
     <use xlink:href="#m2779c9c50f" x="74.836851" y="285.601159" style="fill-opacity: 0; stroke: #000080; stroke-width: 1.5"/>
     <use xlink:href="#m2779c9c50f" x="74.836851" y="284.845903" style="fill-opacity: 0; stroke: #000080; stroke-width: 1.5"/>
     <use xlink:href="#m2779c9c50f" x="74.836851" y="284.845903" style="fill-opacity: 0; stroke: #000080; stroke-width: 1.5"/>
     <use xlink:href="#m2779c9c50f" x="74.836851" y="284.845903" style="fill-opacity: 0; stroke: #000080; stroke-width: 1.5"/>
     <use xlink:href="#m2779c9c50f" x="360.8064" y="284.845903" style="fill-opacity: 0; stroke: #000080; stroke-width: 1.5"/>
    </g>
   </g>
   <g id="line2d_37">
    <path style="fill: none; stroke: #000080; stroke-width: 1.5; stroke-linecap: square"/>
    <g/>
   </g>
   <g id="line2d_38">
    <path d="M 74.836851 284.845903 
" clip-path="url(#p02367a6b2b)" style="fill: none; stroke: #000080; stroke-width: 1.5; stroke-linecap: square"/>
    <defs>
     <path id="m699094c517" d="M -12 12 
L 12 -12 
M -12 -12 
L 12 12 
" style="stroke: #000080"/>
    </defs>
    <g clip-path="url(#p02367a6b2b)">
     <use xlink:href="#m699094c517" x="74.836851" y="284.845903" style="fill: #000080; stroke: #000080"/>
    </g>
   </g>
   <g id="line2d_39">
    <defs>
     <path id="m842e9a9481" d="M 0 1.5 
C 0.397805 1.5 0.77937 1.341951 1.06066 1.06066 
C 1.341951 0.77937 1.5 0.397805 1.5 0 
C 1.5 -0.397805 1.341951 -0.77937 1.06066 -1.06066 
C 0.77937 -1.341951 0.397805 -1.5 0 -1.5 
C -0.397805 -1.5 -0.77937 -1.341951 -1.06066 -1.06066 
C -1.341951 -0.77937 -1.5 -0.397805 -1.5 0 
C -1.5 0.397805 -1.341951 0.77937 -1.06066 1.06066 
C -0.77937 1.341951 -0.397805 1.5 0 1.5 
z
" style="stroke: #ff00ff"/>
    </defs>
    <g>
     <use xlink:href="#m842e9a9481" x="274.111111" y="175.459779" style="fill: #ff00ff; stroke: #ff00ff"/>
     <use xlink:href="#m842e9a9481" x="274.111111" y="175.459779" style="fill: #ff00ff; stroke: #ff00ff"/>
    </g>
   </g>
   <g id="line2d_40">
    <path d="M 1.245626 298.944 
L 1.245626 287.866924 
L 87.686963 287.866924 
L 87.686963 287.741048 
L 88.248544 287.741048 
L 88.248544 287.615172 
L 95.503454 287.615172 
L 95.503454 287.489297 
L 96.120281 287.489297 
L 96.120281 287.363421 
L 96.83473 287.363421 
L 96.83473 287.237545 
L 99.037425 287.237545 
L 99.037425 287.111669 
L 102.099854 287.111669 
L 102.099854 286.985793 
L 103.380045 286.985793 
L 103.380045 286.859917 
L 106.209005 286.859917 
L 106.209005 286.734041 
L 107.244765 286.734041 
L 107.244765 286.608166 
L 121.86188 286.608166 
L 121.86188 286.48229 
L 128.614685 286.48229 
L 128.614685 286.230538 
L 129.581749 286.230538 
L 129.581749 286.104662 
L 129.80582 286.104662 
L 129.80582 285.978786 
L 131.729 285.978786 
L 131.729 285.85291 
L 133.205173 285.85291 
L 133.25581 285.601159 
L 133.523594 285.601159 
L 133.523594 285.475283 
L 134.256922 285.475283 
L 134.256922 285.349407 
L 134.368469 285.349407 
L 134.431915 285.097655 
L 134.699196 285.097655 
L 134.699196 284.971779 
L 134.901055 284.971779 
L 134.901055 284.845903 
L 135.52386 284.845903 
L 135.52386 284.720028 
L 135.643015 284.720028 
L 135.643015 284.594152 
L 136.28521 284.594152 
L 136.28521 284.468276 
L 137.614614 284.468276 
L 137.627979 284.216524 
L 138.024583 284.216524 
L 138.024583 284.090648 
L 139.117256 284.090648 
L 139.166565 283.713021 
L 139.301504 283.713021 
L 139.301504 283.461269 
L 139.423341 283.461269 
L 139.423341 283.335393 
L 140.126547 283.335393 
L 140.126547 283.209517 
L 140.657135 283.209517 
L 140.679868 282.957766 
L 141.084433 282.957766 
L 141.106655 282.706014 
L 141.272495 282.706014 
L 141.272495 282.580138 
L 141.42597 282.580138 
L 141.42597 282.454262 
L 141.67542 282.454262 
L 141.67542 282.328386 
L 142.435586 282.328386 
L 142.435586 282.20251 
L 142.620923 282.20251 
L 142.620923 282.076634 
L 142.763822 282.076634 
L 142.824734 281.824883 
L 143.19606 281.824883 
L 143.19606 281.699007 
L 143.773417 281.699007 
L 143.773417 281.573131 
L 143.974714 281.573131 
L 144.06033 281.321379 
L 144.27737 281.321379 
L 144.27737 281.195503 
L 144.71325 281.195503 
L 144.71325 281.069628 
L 145.004344 281.069628 
L 145.040416 280.817876 
L 145.192955 280.817876 
L 145.273213 280.062621 
L 145.370843 280.062621 
L 145.459161 279.684993 
L 145.564597 279.684993 
L 145.669446 279.307366 
L 145.860163 279.307366 
L 145.946218 278.677986 
L 146.108646 278.677986 
L 146.210514 278.174483 
L 146.379077 278.174483 
L 146.379077 278.048607 
L 146.752911 278.048607 
L 146.826795 277.670979 
L 146.867716 277.670979 
L 146.892226 277.419228 
L 147.248088 277.419228 
L 147.336011 277.0416 
L 147.455248 277.0416 
L 147.518533 276.663972 
L 147.917048 276.663972 
L 147.94795 276.160469 
L 148.048032 276.160469 
L 148.147585 275.405214 
L 148.330001 275.405214 
L 148.428077 275.153462 
L 148.495677 275.153462 
L 148.563035 274.90171 
L 148.630152 274.90171 
L 148.630152 274.775834 
L 148.859519 274.775834 
L 148.859519 274.649959 
L 149.006027 274.649959 
L 149.006027 274.524083 
L 149.223672 274.524083 
L 149.223672 274.398207 
L 149.35306 274.398207 
L 149.35306 274.272331 
L 149.65155 274.272331 
L 149.65155 274.146455 
L 149.924541 274.146455 
L 150.021579 273.517076 
L 150.234685 273.517076 
L 150.234685 273.265324 
L 150.573397 273.265324 
L 150.653788 272.887697 
L 150.693856 272.887697 
L 150.693856 272.761821 
L 150.85989 272.761821 
L 150.85989 272.635945 
L 151.284843 272.635945 
L 151.284843 272.510069 
L 151.445764 272.510069 
L 151.496969 272.258317 
L 151.579882 272.258317 
L 151.656094 271.628938 
L 151.801309 271.628938 
L 151.907925 271.377186 
L 151.914178 271.377186 
L 151.97036 271.125434 
L 152.137906 271.125434 
L 152.137906 270.999559 
L 152.310095 270.999559 
L 152.310095 270.873683 
L 152.450367 270.873683 
L 152.553378 270.370179 
L 152.637789 270.370179 
L 152.685854 269.992552 
L 152.94804 269.992552 
L 152.965784 269.614924 
L 153.077776 269.614924 
L 153.159871 269.111421 
L 153.276532 269.111421 
L 153.293969 268.607917 
L 153.398253 268.607917 
L 153.432886 268.356166 
L 153.553602 268.356166 
L 153.616527 267.726786 
L 153.75309 267.726786 
L 153.75309 267.60091 
L 153.88867 267.60091 
L 153.88867 267.349159 
L 154.101358 267.349159 
L 154.201272 266.845655 
L 154.239985 266.845655 
L 154.333671 266.342152 
L 154.372112 266.342152 
L 154.372112 266.216276 
L 154.492419 266.216276 
L 154.530538 265.838648 
L 154.644432 265.838648 
L 154.741511 265.083393 
L 154.773759 265.083393 
L 154.859485 264.831641 
L 155.109071 264.831641 
L 155.177524 264.57989 
L 155.313689 264.57989 
L 155.386602 263.698759 
L 155.531586 263.698759 
L 155.541899 263.321131 
L 155.644723 263.321131 
L 155.660098 263.069379 
L 155.980108 263.069379 
L 156.070548 262.817628 
L 156.140591 262.817628 
L 156.190463 262.565876 
L 156.260061 262.565876 
L 156.359044 262.314124 
L 156.437856 262.314124 
L 156.526128 261.936497 
L 156.638319 261.936497 
L 156.638319 261.810621 
L 156.817409 261.810621 
L 156.817409 261.684745 
L 156.93267 261.684745 
L 156.970935 261.181241 
L 157.085262 261.181241 
L 157.189455 260.677738 
L 157.246045 260.677738 
L 157.278978 260.174234 
L 157.372755 260.174234 
L 157.391454 259.796607 
L 157.540383 259.796607 
L 157.651312 259.167228 
L 157.789059 259.167228 
L 157.871225 258.411972 
L 157.998331 258.411972 
L 158.0976 257.908469 
L 158.178433 257.908469 
L 158.178433 257.782593 
L 158.370139 257.782593 
L 158.467471 257.530841 
L 158.559911 257.530841 
L 158.559911 257.404966 
L 158.726038 257.404966 
L 158.756481 256.901462 
L 158.84319 256.901462 
L 158.847515 256.523834 
L 159.049676 256.523834 
L 159.049676 256.397959 
L 159.291971 256.397959 
L 159.397263 255.642703 
L 159.405662 255.642703 
L 159.405662 255.516828 
L 159.539522 255.516828 
L 159.585318 254.887448 
L 159.763275 254.887448 
L 159.865969 254.258069 
L 159.91915 254.258069 
L 160.008806 254.006317 
L 160.033184 254.006317 
L 160.053475 253.754566 
L 160.36322 253.754566 
L 160.411036 253.376938 
L 160.510264 253.376938 
L 160.593212 252.621683 
L 160.667947 252.621683 
L 160.699326 252.118179 
L 160.820427 252.118179 
L 160.917524 251.4888 
L 160.963953 251.4888 
L 161.071844 250.985297 
L 161.083367 250.985297 
L 161.083367 250.733545 
L 161.209658 250.733545 
L 161.209658 250.607669 
L 161.323737 250.607669 
L 161.395631 250.230041 
L 161.78436 250.230041 
L 161.872937 249.474786 
L 162.034253 249.474786 
L 162.034253 249.34891 
L 162.154339 249.34891 
L 162.154339 249.097159 
L 162.266453 249.097159 
L 162.345614 248.341903 
L 162.395816 248.341903 
L 162.485131 247.964276 
L 162.513623 247.964276 
L 162.552729 247.712524 
L 162.6625 247.712524 
L 162.768124 247.209021 
L 162.8032 247.209021 
L 162.869666 246.579641 
L 162.939377 246.579641 
L 162.953289 246.076138 
L 163.071121 246.076138 
L 163.157294 245.320883 
L 163.246497 245.320883 
L 163.294355 244.943255 
L 163.376115 244.943255 
L 163.430425 244.565628 
L 163.491337 244.565628 
L 163.491337 244.439752 
L 163.625994 244.439752 
L 163.625994 244.188 
L 163.997986 244.188 
L 164.030845 243.558621 
L 164.2268 243.558621 
L 164.2268 243.306869 
L 164.378885 243.306869 
L 164.459284 242.173986 
L 164.526554 242.173986 
L 164.634959 241.922234 
L 164.644495 241.922234 
L 164.736421 241.166979 
L 164.824753 241.166979 
L 164.912672 240.5376 
L 165.000183 240.5376 
L 165.056225 240.034097 
L 165.127593 240.034097 
L 165.17708 239.530593 
L 165.401231 239.530593 
L 165.434777 239.02709 
L 165.528995 239.02709 
L 165.532026 238.775338 
L 165.731028 238.775338 
L 165.799886 238.145959 
L 165.898243 238.145959 
L 165.898243 237.894207 
L 166.049245 237.894207 
L 166.152178 237.138952 
L 166.201971 237.138952 
L 166.23704 236.635448 
L 166.437427 236.635448 
L 166.47206 236.131945 
L 166.555495 236.131945 
L 166.58418 235.628441 
L 166.744012 235.628441 
L 166.758217 235.124938 
L 166.955967 235.124938 
L 167.051272 234.117931 
L 167.173896 234.117931 
L 167.268107 233.614428 
L 167.378342 233.614428 
L 167.468802 232.859172 
L 167.575151 232.859172 
L 167.645719 232.355669 
L 167.863881 232.355669 
L 167.863881 232.103917 
L 168.148245 232.103917 
L 168.248209 231.09691 
L 168.305841 231.09691 
L 168.329367 230.719283 
L 168.425776 230.719283 
L 168.519108 230.089903 
L 168.552698 230.089903 
L 168.655677 229.208772 
L 168.665943 229.208772 
L 168.773409 228.705269 
L 168.809095 228.705269 
L 168.821824 228.201766 
L 168.973898 228.201766 
L 168.989038 227.824138 
L 169.129761 227.824138 
L 169.182262 227.44651 
L 169.261983 227.44651 
L 169.271924 227.194759 
L 169.383404 227.194759 
L 169.454898 226.313628 
L 169.499138 226.313628 
L 169.499138 226.187752 
L 169.675062 226.187752 
L 169.77693 225.684248 
L 169.798687 225.684248 
L 169.798687 225.558372 
L 169.928705 225.558372 
L 170.022051 225.180745 
L 170.055447 225.180745 
L 170.131559 224.928993 
L 170.176605 224.928993 
L 170.28522 223.921986 
L 170.294635 223.921986 
L 170.294635 223.79611 
L 170.50524 223.79611 
L 170.50524 223.670234 
L 170.69279 223.670234 
L 170.699701 223.292607 
L 170.809925 223.292607 
L 170.878489 222.914979 
L 170.942257 222.914979 
L 170.983137 222.2856 
L 171.150271 222.2856 
L 171.190702 221.782097 
L 171.262365 221.782097 
L 171.349337 221.404469 
L 171.387122 221.404469 
L 171.464678 220.900966 
L 171.618835 220.900966 
L 171.669213 220.523338 
L 171.7369 220.523338 
L 171.832556 219.893959 
L 171.860725 219.893959 
L 171.96437 219.642207 
L 172.005239 219.642207 
L 172.105956 219.390455 
L 172.120911 219.390455 
L 172.214638 218.886952 
L 172.381759 218.886952 
L 172.381759 218.761076 
L 172.495145 218.761076 
L 172.555757 218.383448 
L 172.616174 218.383448 
L 172.703332 217.879945 
L 172.79627 217.879945 
L 172.907192 217.628193 
L 172.90924 217.628193 
L 173.001168 217.12469 
L 173.072359 217.12469 
L 173.072359 216.998814 
L 173.195793 216.998814 
L 173.205875 216.49531 
L 173.314415 216.49531 
L 173.314415 216.369434 
L 173.49989 216.369434 
L 173.573175 215.991807 
L 173.642237 215.991807 
L 173.748296 215.362428 
L 173.845967 215.362428 
L 173.845967 215.236552 
L 174.049442 215.236552 
L 174.11294 214.733048 
L 174.212563 214.733048 
L 174.212563 214.607172 
L 174.342049 214.607172 
L 174.357224 214.355421 
L 174.734538 214.355421 
L 174.801324 213.851917 
L 174.926834 213.851917 
L 175.029569 213.348414 
L 175.060646 213.348414 
L 175.097141 213.096662 
L 175.25327 213.096662 
L 175.339851 212.719034 
L 175.476128 212.719034 
L 175.526088 212.215531 
L 175.982031 212.215531 
L 175.982031 212.089655 
L 176.253127 212.089655 
L 176.259984 211.586152 
L 176.41189 211.586152 
L 176.41359 211.3344 
L 176.698683 211.3344 
L 176.797203 210.956772 
L 176.908461 210.956772 
L 177.012479 210.453269 
L 177.045381 210.453269 
L 177.045381 210.327393 
L 177.168252 210.327393 
L 177.168252 210.201517 
L 177.701138 210.201517 
L 177.804033 209.949766 
L 178.213166 209.949766 
L 178.250202 209.320386 
L 178.363942 209.320386 
L 178.391505 208.942759 
L 178.574231 208.942759 
L 178.574231 208.816883 
L 178.716138 208.816883 
L 178.756701 208.313379 
L 178.901711 208.313379 
L 178.961184 208.061628 
L 179.128189 208.061628 
L 179.128189 207.935752 
L 179.28643 207.935752 
L 179.341793 207.432248 
L 179.444798 207.432248 
L 179.512676 207.054621 
L 179.640544 207.054621 
L 179.731959 206.299366 
L 179.820097 206.299366 
L 179.820097 206.047614 
L 180.004975 206.047614 
L 180.114198 205.54411 
L 180.158825 205.54411 
L 180.238055 204.914731 
L 180.726836 204.914731 
L 180.726836 204.788855 
L 180.993881 204.788855 
L 181.065696 204.537103 
L 181.121363 204.537103 
L 181.182144 204.159476 
L 181.772995 204.159476 
L 181.772995 204.0336 
L 182.14639 204.0336 
L 182.188953 203.530097 
L 182.675284 203.530097 
L 182.675284 203.404221 
L 184.440724 203.404221 
L 184.444052 203.026593 
L 184.75863 203.026593 
L 184.804387 202.774841 
L 185.000314 202.774841 
L 185.000314 202.648966 
L 185.23787 202.648966 
L 185.23787 202.52309 
L 185.709351 202.52309 
L 185.709351 202.271338 
L 185.936123 202.271338 
L 185.936123 202.145462 
L 186.076989 202.145462 
L 186.076989 202.019586 
L 187.344183 202.019586 
L 187.344183 201.767834 
L 188.062339 201.767834 
L 188.123551 201.516083 
L 188.414984 201.516083 
L 188.414984 201.390207 
L 189.103638 201.390207 
L 189.103638 201.264331 
L 190.240057 201.264331 
L 190.240057 201.138455 
L 192.967455 201.138455 
L 192.967455 201.012579 
L 193.466992 201.012579 
L 193.468365 200.634952 
L 194.364562 200.634952 
L 194.364562 200.509076 
L 195.889716 200.509076 
L 195.937341 200.257324 
L 196.071129 200.257324 
L 196.071129 200.131448 
L 197.760682 200.131448 
L 197.760682 200.005572 
L 198.53053 200.005572 
L 198.53053 199.879697 
L 198.950178 199.879697 
L 198.950178 199.753821 
L 199.394267 199.753821 
L 199.394267 199.502069 
L 199.558879 199.502069 
L 199.664369 198.998566 
L 200.385258 198.998566 
L 200.385258 198.87269 
L 200.611562 198.87269 
L 200.611562 198.746814 
L 200.883377 198.746814 
L 200.883377 198.495062 
L 201.103801 198.495062 
L 201.103801 198.24331 
L 201.229192 198.24331 
L 201.229192 197.991559 
L 201.428545 197.991559 
L 201.428545 197.865683 
L 201.546436 197.865683 
L 201.592405 197.488055 
L 201.737165 197.488055 
L 201.737165 197.362179 
L 202.19728 197.362179 
L 202.19728 197.236303 
L 202.535658 197.236303 
L 202.535658 197.110428 
L 202.796694 197.110428 
L 202.890952 196.7328 
L 203.135231 196.7328 
L 203.179531 196.355172 
L 203.279232 196.355172 
L 203.279232 196.229297 
L 203.55955 196.229297 
L 203.619679 195.977545 
L 204.061887 195.977545 
L 204.061887 195.725793 
L 204.839176 195.725793 
L 204.839176 195.599917 
L 205.435411 195.599917 
L 205.435411 195.474041 
L 206.189405 195.474041 
L 206.189405 195.348166 
L 207.240694 195.348166 
L 207.260493 194.970538 
L 207.390968 194.970538 
L 207.472995 194.718786 
L 208.281052 194.718786 
L 208.281052 194.59291 
L 209.035428 194.59291 
L 209.035428 194.467034 
L 209.220279 194.467034 
L 209.220279 194.215283 
L 209.425978 194.215283 
L 209.425978 194.089407 
L 209.990593 194.089407 
L 209.990593 193.963531 
L 210.359481 193.963531 
L 210.413387 193.585903 
L 210.665768 193.585903 
L 210.665768 193.460028 
L 211.303188 193.460028 
L 211.303188 193.334152 
L 211.476629 193.334152 
L 211.476629 193.208276 
L 211.698565 193.208276 
L 211.698565 193.0824 
L 211.816197 193.0824 
L 211.816197 192.956524 
L 212.678586 192.956524 
L 212.767637 192.704772 
L 213.25374 192.704772 
L 213.316467 192.327145 
L 213.913291 192.327145 
L 213.913291 192.201269 
L 214.42946 192.201269 
L 214.42946 192.075393 
L 214.882643 192.075393 
L 214.882643 191.949517 
L 215.214211 191.949517 
L 215.2181 191.57189 
L 216.032605 191.57189 
L 216.032605 191.446014 
L 216.506556 191.446014 
L 216.506556 191.194262 
L 217.905339 191.194262 
L 217.905339 191.068386 
L 218.130038 191.068386 
L 218.130038 190.816634 
L 218.280625 190.816634 
L 218.290903 190.439007 
L 219.930994 190.439007 
L 220.020244 190.187255 
L 220.224157 190.187255 
L 220.224157 189.935503 
L 220.33953 189.935503 
L 220.33953 189.809628 
L 220.935528 189.809628 
L 220.935528 189.557876 
L 221.853331 189.557876 
L 221.853331 189.432 
L 222.40362 189.432 
L 222.4772 189.180248 
L 224.073635 189.180248 
L 224.073635 189.054372 
L 224.35619 189.054372 
L 224.35619 188.928497 
L 225.518403 188.928497 
L 225.518403 188.676745 
L 226.238998 188.676745 
L 226.238998 188.550869 
L 227.127744 188.550869 
L 227.127744 188.424993 
L 227.720947 188.424993 
L 227.720947 188.299117 
L 228.50036 188.299117 
L 228.608494 187.669738 
L 229.286741 187.669738 
L 229.395849 187.417986 
L 229.900942 187.417986 
L 229.940493 187.040359 
L 230.069444 187.040359 
L 230.069444 186.914483 
L 230.437709 186.914483 
L 230.437709 186.788607 
L 231.066411 186.788607 
L 231.066411 186.662731 
L 231.894623 186.662731 
L 231.894623 186.410979 
L 232.9626 186.410979 
L 232.9626 186.285103 
L 233.298646 186.285103 
L 233.298646 186.159228 
L 233.521483 186.159228 
L 233.521483 186.033352 
L 233.694846 186.033352 
L 233.694846 185.907476 
L 236.339186 185.907476 
L 236.339186 185.7816 
L 237.483081 185.7816 
L 237.483081 185.655724 
L 238.664417 185.655724 
L 238.664417 185.529848 
L 238.793063 185.529848 
L 238.793063 185.278097 
L 239.903792 185.278097 
L 239.903792 185.026345 
L 240.041474 185.026345 
L 240.041474 184.900469 
L 240.214003 184.900469 
L 240.214003 184.774593 
L 240.586438 184.774593 
L 240.586438 184.648717 
L 241.078177 184.648717 
L 241.078177 184.396966 
L 242.15275 184.396966 
L 242.15275 184.145214 
L 242.288295 184.145214 
L 242.288295 184.019338 
L 243.946006 184.019338 
L 243.946006 183.893462 
L 244.411863 183.893462 
L 244.411863 183.767586 
L 245.477829 183.767586 
L 245.477829 183.515834 
L 247.672597 183.515834 
L 247.672597 183.264083 
L 247.876791 183.264083 
L 247.876791 183.138207 
L 248.481305 183.138207 
L 248.481305 183.012331 
L 249.591509 183.012331 
L 249.591509 182.760579 
L 250.103957 182.760579 
L 250.103957 182.508828 
L 250.625196 182.508828 
L 250.625196 182.257076 
L 251.327284 182.257076 
L 251.327284 182.005324 
L 251.817764 182.005324 
L 251.817764 181.753572 
L 252.796914 181.753572 
L 252.796914 181.627697 
L 253.837934 181.627697 
L 253.837934 181.501821 
L 254.14787 181.501821 
L 254.219931 180.998317 
L 255.67022 180.998317 
L 255.67022 180.872441 
L 256.230529 180.872441 
L 256.237608 180.494814 
L 256.78945 180.494814 
L 256.78945 180.243062 
L 257.351369 180.243062 
L 257.351369 180.117186 
L 257.497844 180.117186 
L 257.497844 179.99131 
L 257.640129 179.99131 
L 257.640129 179.865434 
L 257.903446 179.865434 
L 257.903446 179.739559 
L 259.286302 179.739559 
L 259.366292 179.487807 
L 259.400033 179.487807 
L 259.400033 179.361931 
L 259.937458 179.361931 
L 259.970832 179.110179 
L 260.212765 179.110179 
L 260.212765 178.984303 
L 261.291664 178.984303 
L 261.291664 178.732552 
L 261.676666 178.732552 
L 261.676666 178.606676 
L 261.814244 178.606676 
L 261.814244 178.354924 
L 262.117799 178.354924 
L 262.133452 178.103172 
L 262.487925 178.103172 
L 262.487925 177.977297 
L 263.535168 177.977297 
L 263.535168 177.851421 
L 264.536266 177.851421 
L 264.536266 177.599669 
L 265.74409 177.599669 
L 265.74409 177.473793 
L 266.297758 177.473793 
L 266.297758 177.347917 
L 268.397283 177.347917 
L 268.397283 177.222041 
L 268.573025 177.222041 
L 268.653921 176.97029 
L 269.072407 176.97029 
L 269.072407 176.844414 
L 269.255805 176.844414 
L 269.255805 176.592662 
L 270.597605 176.592662 
L 270.597605 176.466786 
L 271.23197 176.466786 
L 271.23197 176.215034 
L 273.135587 176.215034 
L 273.135587 176.089159 
L 273.279907 176.089159 
L 273.279907 175.837407 
L 273.875038 175.837407 
L 273.875038 175.585655 
L 274.111111 175.585655 
L 274.111111 175.459779 
L 360.8064 175.459779 
L 360.8064 175.459779 
" style="fill: none; stroke: #ff00ff; stroke-width: 1.5; stroke-linecap: square"/>
   </g>
   <g id="line2d_41">
    <defs>
     <path id="m86f263c8f6" d="M 0 8.485281 
L 5.091169 0 
L 0 -8.485281 
L -5.091169 0 
z
" style="stroke: #ff00ff; stroke-width: 1.5; stroke-linejoin: miter"/>
    </defs>
    <g>
     <use xlink:href="#m86f263c8f6" x="141.42597" y="282.454262" style="fill-opacity: 0; stroke: #ff00ff; stroke-width: 1.5; stroke-linejoin: miter"/>
     <use xlink:href="#m86f263c8f6" x="171.398221" y="221.152717" style="fill-opacity: 0; stroke: #ff00ff; stroke-width: 1.5; stroke-linejoin: miter"/>
     <use xlink:href="#m86f263c8f6" x="257.903446" y="179.739559" style="fill-opacity: 0; stroke: #ff00ff; stroke-width: 1.5; stroke-linejoin: miter"/>
     <use xlink:href="#m86f263c8f6" x="274.111111" y="175.459779" style="fill-opacity: 0; stroke: #ff00ff; stroke-width: 1.5; stroke-linejoin: miter"/>
     <use xlink:href="#m86f263c8f6" x="274.111111" y="175.459779" style="fill-opacity: 0; stroke: #ff00ff; stroke-width: 1.5; stroke-linejoin: miter"/>
     <use xlink:href="#m86f263c8f6" x="360.8064" y="175.459779" style="fill-opacity: 0; stroke: #ff00ff; stroke-width: 1.5; stroke-linejoin: miter"/>
    </g>
   </g>
   <g id="line2d_42">
    <path style="fill: none; stroke: #ff00ff; stroke-width: 1.5; stroke-linecap: square"/>
    <g/>
   </g>
   <g id="line2d_43">
    <path d="M 274.176009 175.459779 
" clip-path="url(#p02367a6b2b)" style="fill: none; stroke: #ff00ff; stroke-width: 1.5; stroke-linecap: square"/>
    <defs>
     <path id="mdc9c4db332" d="M -12 12 
L 12 -12 
M -12 -12 
L 12 12 
" style="stroke: #ff00ff"/>
    </defs>
    <g clip-path="url(#p02367a6b2b)">
     <use xlink:href="#mdc9c4db332" x="274.176009" y="175.459779" style="fill: #ff00ff; stroke: #ff00ff"/>
    </g>
   </g>
   <g id="line2d_44">
    <path d="M 360.8064 284.845903 
L 380.514816 293.10336 
" style="fill: none; stroke: #000080; stroke-width: 1.5; stroke-linecap: square"/>
    <g>
     <use xlink:href="#m2779c9c50f" x="360.8064" y="284.845903" style="fill-opacity: 0; stroke: #000080; stroke-width: 1.5"/>
     <use xlink:href="#m2779c9c50f" x="380.514816" y="293.10336" style="fill-opacity: 0; stroke: #000080; stroke-width: 1.5"/>
    </g>
   </g>
   <g id="line2d_45">
    <path d="M 360.8064 175.459779 
L 380.514816 152.928 
" style="fill: none; stroke: #ff00ff; stroke-width: 1.5; stroke-linecap: square"/>
    <g>
     <use xlink:href="#m86f263c8f6" x="360.8064" y="175.459779" style="fill-opacity: 0; stroke: #ff00ff; stroke-width: 1.5; stroke-linejoin: miter"/>
     <use xlink:href="#m86f263c8f6" x="380.514816" y="152.928" style="fill-opacity: 0; stroke: #ff00ff; stroke-width: 1.5; stroke-linejoin: miter"/>
    </g>
   </g>
   <g id="line2d_46">
    <path d="M 360.8064 298.944 
L 360.8064 6.912 
" style="fill: none; stroke: #000000; stroke-width: 1.5; stroke-linecap: square"/>
   </g>
   <g id="patch_3">
    <path d="M 57.6 298.944 
L 360.8064 298.944 
" style="fill: none; stroke: #000000; stroke-width: 0.8; stroke-linejoin: miter; stroke-linecap: square"/>
   </g>
   <g id="patch_4">
    <path d="M 57.6 6.912 
L 360.8064 6.912 
" style="fill: none; stroke: #000000; stroke-width: 0.8; stroke-linejoin: miter; stroke-linecap: square"/>
   </g>
   <g id="text_13">
    <!-- cma -->
    <g transform="translate(386.578944 296.966485)scale(0.14 -0.14)">
     <use xlink:href="#DejaVuSans-63"/>
     <use xlink:href="#DejaVuSans-6d" x="54.980469"/>
     <use xlink:href="#DejaVuSans-61" x="152.392578"/>
    </g>
   </g>
   <g id="text_14">
    <!-- external- -->
    <g transform="translate(386.578944 156.791125)scale(0.14 -0.14)">
     <defs>
      <path id="DejaVuSans-78" d="M 3513 3500 
L 2247 1797 
L 3578 0 
L 2900 0 
L 1881 1375 
L 863 0 
L 184 0 
L 1544 1831 
L 300 3500 
L 978 3500 
L 1906 2253 
L 2834 3500 
L 3513 3500 
z
" transform="scale(0.015625)"/>
     </defs>
     <use xlink:href="#DejaVuSans-65"/>
     <use xlink:href="#DejaVuSans-78" x="59.773438"/>
     <use xlink:href="#DejaVuSans-74" x="118.953125"/>
     <use xlink:href="#DejaVuSans-65" x="158.162109"/>
     <use xlink:href="#DejaVuSans-72" x="219.685547"/>
     <use xlink:href="#DejaVuSans-6e" x="259.048828"/>
     <use xlink:href="#DejaVuSans-61" x="322.427734"/>
     <use xlink:href="#DejaVuSans-6c" x="383.707031"/>
     <use xlink:href="#DejaVuSans-2d" x="411.490234"/>
    </g>
   </g>
   <g id="text_15">
    <!-- best 2016 -->
    <g transform="translate(386.578944 16.615765)scale(0.14 -0.14)">
     <defs>
      <path id="DejaVuSans-62" d="M 3116 1747 
Q 3116 2381 2855 2742 
Q 2594 3103 2138 3103 
Q 1681 3103 1420 2742 
Q 1159 2381 1159 1747 
Q 1159 1113 1420 752 
Q 1681 391 2138 391 
Q 2594 391 2855 752 
Q 3116 1113 3116 1747 
z
M 1159 2969 
Q 1341 3281 1617 3432 
Q 1894 3584 2278 3584 
Q 2916 3584 3314 3078 
Q 3713 2572 3713 1747 
Q 3713 922 3314 415 
Q 2916 -91 2278 -91 
Q 1894 -91 1617 61 
Q 1341 213 1159 525 
L 1159 0 
L 581 0 
L 581 4863 
L 1159 4863 
L 1159 2969 
z
" transform="scale(0.015625)"/>
     </defs>
     <use xlink:href="#DejaVuSans-62"/>
     <use xlink:href="#DejaVuSans-65" x="63.476562"/>
     <use xlink:href="#DejaVuSans-73" x="125"/>
     <use xlink:href="#DejaVuSans-74" x="177.099609"/>
     <use xlink:href="#DejaVuSans-20" x="216.308594"/>
     <use xlink:href="#DejaVuSans-32" x="248.095703"/>
     <use xlink:href="#DejaVuSans-30" x="311.71875"/>
     <use xlink:href="#DejaVuSans-31" x="375.341797"/>
     <use xlink:href="#DejaVuSans-36" x="438.964844"/>
    </g>
   </g>
   <g id="text_16">
    <!-- bbob-biobj f26, f27, f33, f34, 20-D -->
    <g transform="translate(60.632064 17.582726)scale(0.102 -0.102)">
     <defs>
      <path id="DejaVuSans-6a" d="M 603 3500 
L 1178 3500 
L 1178 -63 
Q 1178 -731 923 -1031 
Q 669 -1331 103 -1331 
L -116 -1331 
L -116 -844 
L 38 -844 
Q 366 -844 484 -692 
Q 603 -541 603 -63 
L 603 3500 
z
M 603 4863 
L 1178 4863 
L 1178 4134 
L 603 4134 
L 603 4863 
z
" transform="scale(0.015625)"/>
      <path id="DejaVuSans-37" d="M 525 4666 
L 3525 4666 
L 3525 4397 
L 1831 0 
L 1172 0 
L 2766 4134 
L 525 4134 
L 525 4666 
z
" transform="scale(0.015625)"/>
      <path id="DejaVuSans-33" d="M 2597 2516 
Q 3050 2419 3304 2112 
Q 3559 1806 3559 1356 
Q 3559 666 3084 287 
Q 2609 -91 1734 -91 
Q 1441 -91 1130 -33 
Q 819 25 488 141 
L 488 750 
Q 750 597 1062 519 
Q 1375 441 1716 441 
Q 2309 441 2620 675 
Q 2931 909 2931 1356 
Q 2931 1769 2642 2001 
Q 2353 2234 1838 2234 
L 1294 2234 
L 1294 2753 
L 1863 2753 
Q 2328 2753 2575 2939 
Q 2822 3125 2822 3475 
Q 2822 3834 2567 4026 
Q 2313 4219 1838 4219 
Q 1578 4219 1281 4162 
Q 984 4106 628 3988 
L 628 4550 
Q 988 4650 1302 4700 
Q 1616 4750 1894 4750 
Q 2613 4750 3031 4423 
Q 3450 4097 3450 3541 
Q 3450 3153 3228 2886 
Q 3006 2619 2597 2516 
z
" transform="scale(0.015625)"/>
      <path id="DejaVuSans-44" d="M 1259 4147 
L 1259 519 
L 2022 519 
Q 2988 519 3436 956 
Q 3884 1394 3884 2338 
Q 3884 3275 3436 3711 
Q 2988 4147 2022 4147 
L 1259 4147 
z
M 628 4666 
L 1925 4666 
Q 3281 4666 3915 4102 
Q 4550 3538 4550 2338 
Q 4550 1131 3912 565 
Q 3275 0 1925 0 
L 628 0 
L 628 4666 
z
" transform="scale(0.015625)"/>
     </defs>
     <use xlink:href="#DejaVuSans-62"/>
     <use xlink:href="#DejaVuSans-62" x="63.476562"/>
     <use xlink:href="#DejaVuSans-6f" x="126.953125"/>
     <use xlink:href="#DejaVuSans-62" x="188.134766"/>
     <use xlink:href="#DejaVuSans-2d" x="251.611328"/>
     <use xlink:href="#DejaVuSans-62" x="287.695312"/>
     <use xlink:href="#DejaVuSans-69" x="351.171875"/>
     <use xlink:href="#DejaVuSans-6f" x="378.955078"/>
     <use xlink:href="#DejaVuSans-62" x="440.136719"/>
     <use xlink:href="#DejaVuSans-6a" x="503.613281"/>
     <use xlink:href="#DejaVuSans-20" x="531.396484"/>
     <use xlink:href="#DejaVuSans-66" x="563.183594"/>
     <use xlink:href="#DejaVuSans-32" x="598.388672"/>
     <use xlink:href="#DejaVuSans-36" x="662.011719"/>
     <use xlink:href="#DejaVuSans-2c" x="725.634766"/>
     <use xlink:href="#DejaVuSans-20" x="757.421875"/>
     <use xlink:href="#DejaVuSans-66" x="789.208984"/>
     <use xlink:href="#DejaVuSans-32" x="824.414062"/>
     <use xlink:href="#DejaVuSans-37" x="888.037109"/>
     <use xlink:href="#DejaVuSans-2c" x="951.660156"/>
     <use xlink:href="#DejaVuSans-20" x="983.447266"/>
     <use xlink:href="#DejaVuSans-66" x="1015.234375"/>
     <use xlink:href="#DejaVuSans-33" x="1050.439453"/>
     <use xlink:href="#DejaVuSans-33" x="1114.0625"/>
     <use xlink:href="#DejaVuSans-2c" x="1177.685547"/>
     <use xlink:href="#DejaVuSans-20" x="1209.472656"/>
     <use xlink:href="#DejaVuSans-66" x="1241.259766"/>
     <use xlink:href="#DejaVuSans-33" x="1276.464844"/>
     <use xlink:href="#DejaVuSans-34" x="1340.087891"/>
     <use xlink:href="#DejaVuSans-2c" x="1403.710938"/>
     <use xlink:href="#DejaVuSans-20" x="1435.498047"/>
     <use xlink:href="#DejaVuSans-32" x="1467.285156"/>
     <use xlink:href="#DejaVuSans-30" x="1530.908203"/>
     <use xlink:href="#DejaVuSans-2d" x="1594.53125"/>
     <use xlink:href="#DejaVuSans-44" x="1630.615234"/>
    </g>
    <!-- 58 targets: 1..-1.0e-4 -->
    <g transform="translate(60.632064 29.004495)scale(0.102 -0.102)">
     <defs>
      <path id="DejaVuSans-35" d="M 691 4666 
L 3169 4666 
L 3169 4134 
L 1269 4134 
L 1269 2991 
Q 1406 3038 1543 3061 
Q 1681 3084 1819 3084 
Q 2600 3084 3056 2656 
Q 3513 2228 3513 1497 
Q 3513 744 3044 326 
Q 2575 -91 1722 -91 
Q 1428 -91 1123 -41 
Q 819 9 494 109 
L 494 744 
Q 775 591 1075 516 
Q 1375 441 1709 441 
Q 2250 441 2565 725 
Q 2881 1009 2881 1497 
Q 2881 1984 2565 2268 
Q 2250 2553 1709 2553 
Q 1456 2553 1204 2497 
Q 953 2441 691 2322 
L 691 4666 
z
" transform="scale(0.015625)"/>
      <path id="DejaVuSans-3a" d="M 750 794 
L 1409 794 
L 1409 0 
L 750 0 
L 750 794 
z
M 750 3309 
L 1409 3309 
L 1409 2516 
L 750 2516 
L 750 3309 
z
" transform="scale(0.015625)"/>
     </defs>
     <use xlink:href="#DejaVuSans-35"/>
     <use xlink:href="#DejaVuSans-38" x="63.623047"/>
     <use xlink:href="#DejaVuSans-20" x="127.246094"/>
     <use xlink:href="#DejaVuSans-74" x="159.033203"/>
     <use xlink:href="#DejaVuSans-61" x="198.242188"/>
     <use xlink:href="#DejaVuSans-72" x="259.521484"/>
     <use xlink:href="#DejaVuSans-67" x="298.884766"/>
     <use xlink:href="#DejaVuSans-65" x="362.361328"/>
     <use xlink:href="#DejaVuSans-74" x="423.884766"/>
     <use xlink:href="#DejaVuSans-73" x="463.09375"/>
     <use xlink:href="#DejaVuSans-3a" x="515.193359"/>
     <use xlink:href="#DejaVuSans-20" x="548.884766"/>
     <use xlink:href="#DejaVuSans-31" x="580.671875"/>
     <use xlink:href="#DejaVuSans-2e" x="644.294922"/>
     <use xlink:href="#DejaVuSans-2e" x="676.082031"/>
     <use xlink:href="#DejaVuSans-2d" x="707.869141"/>
     <use xlink:href="#DejaVuSans-31" x="743.953125"/>
     <use xlink:href="#DejaVuSans-2e" x="807.576172"/>
     <use xlink:href="#DejaVuSans-30" x="839.363281"/>
     <use xlink:href="#DejaVuSans-65" x="902.986328"/>
     <use xlink:href="#DejaVuSans-2d" x="964.509766"/>
     <use xlink:href="#DejaVuSans-34" x="1000.59375"/>
    </g>
    <!-- 10 instances -->
    <g transform="translate(60.632064 40.426264)scale(0.102 -0.102)">
     <use xlink:href="#DejaVuSans-31"/>
     <use xlink:href="#DejaVuSans-30" x="63.623047"/>
     <use xlink:href="#DejaVuSans-20" x="127.246094"/>
     <use xlink:href="#DejaVuSans-69" x="159.033203"/>
     <use xlink:href="#DejaVuSans-6e" x="186.816406"/>
     <use xlink:href="#DejaVuSans-73" x="250.195312"/>
     <use xlink:href="#DejaVuSans-74" x="302.294922"/>
     <use xlink:href="#DejaVuSans-61" x="341.503906"/>
     <use xlink:href="#DejaVuSans-6e" x="402.783203"/>
     <use xlink:href="#DejaVuSans-63" x="466.162109"/>
     <use xlink:href="#DejaVuSans-65" x="521.142578"/>
     <use xlink:href="#DejaVuSans-73" x="582.666016"/>
    </g>
   </g>
   <g id="text_17">
    <!-- v2.6, hv-hash=ff0e71e8cd978373 -->
    <g style="fill: #808080" transform="translate(123.707887 293.943992)scale(0.1 -0.1)">
     <defs>
      <path id="DejaVuSans-68" d="M 3513 2113 
L 3513 0 
L 2938 0 
L 2938 2094 
Q 2938 2591 2744 2837 
Q 2550 3084 2163 3084 
Q 1697 3084 1428 2787 
Q 1159 2491 1159 1978 
L 1159 0 
L 581 0 
L 581 4863 
L 1159 4863 
L 1159 2956 
Q 1366 3272 1645 3428 
Q 1925 3584 2291 3584 
Q 2894 3584 3203 3211 
Q 3513 2838 3513 2113 
z
" transform="scale(0.015625)"/>
      <path id="DejaVuSans-3d" d="M 678 2906 
L 4684 2906 
L 4684 2381 
L 678 2381 
L 678 2906 
z
M 678 1631 
L 4684 1631 
L 4684 1100 
L 678 1100 
L 678 1631 
z
" transform="scale(0.015625)"/>
      <path id="DejaVuSans-39" d="M 703 97 
L 703 672 
Q 941 559 1184 500 
Q 1428 441 1663 441 
Q 2288 441 2617 861 
Q 2947 1281 2994 2138 
Q 2813 1869 2534 1725 
Q 2256 1581 1919 1581 
Q 1219 1581 811 2004 
Q 403 2428 403 3163 
Q 403 3881 828 4315 
Q 1253 4750 1959 4750 
Q 2769 4750 3195 4129 
Q 3622 3509 3622 2328 
Q 3622 1225 3098 567 
Q 2575 -91 1691 -91 
Q 1453 -91 1209 -44 
Q 966 3 703 97 
z
M 1959 2075 
Q 2384 2075 2632 2365 
Q 2881 2656 2881 3163 
Q 2881 3666 2632 3958 
Q 2384 4250 1959 4250 
Q 1534 4250 1286 3958 
Q 1038 3666 1038 3163 
Q 1038 2656 1286 2365 
Q 1534 2075 1959 2075 
z
" transform="scale(0.015625)"/>
     </defs>
     <use xlink:href="#DejaVuSans-76"/>
     <use xlink:href="#DejaVuSans-32" x="59.179688"/>
     <use xlink:href="#DejaVuSans-2e" x="122.802734"/>
     <use xlink:href="#DejaVuSans-36" x="154.589844"/>
     <use xlink:href="#DejaVuSans-2c" x="218.212891"/>
     <use xlink:href="#DejaVuSans-20" x="250"/>
     <use xlink:href="#DejaVuSans-68" x="281.787109"/>
     <use xlink:href="#DejaVuSans-76" x="345.166016"/>
     <use xlink:href="#DejaVuSans-2d" x="401.720703"/>
     <use xlink:href="#DejaVuSans-68" x="437.804688"/>
     <use xlink:href="#DejaVuSans-61" x="501.183594"/>
     <use xlink:href="#DejaVuSans-73" x="562.462891"/>
     <use xlink:href="#DejaVuSans-68" x="614.5625"/>
     <use xlink:href="#DejaVuSans-3d" x="677.941406"/>
     <use xlink:href="#DejaVuSans-66" x="761.730469"/>
     <use xlink:href="#DejaVuSans-66" x="796.935547"/>
     <use xlink:href="#DejaVuSans-30" x="832.140625"/>
     <use xlink:href="#DejaVuSans-65" x="895.763672"/>
     <use xlink:href="#DejaVuSans-37" x="957.287109"/>
     <use xlink:href="#DejaVuSans-31" x="1020.910156"/>
     <use xlink:href="#DejaVuSans-65" x="1084.533203"/>
     <use xlink:href="#DejaVuSans-38" x="1146.056641"/>
     <use xlink:href="#DejaVuSans-63" x="1209.679688"/>
     <use xlink:href="#DejaVuSans-64" x="1264.660156"/>
     <use xlink:href="#DejaVuSans-39" x="1328.136719"/>
     <use xlink:href="#DejaVuSans-37" x="1391.759766"/>
     <use xlink:href="#DejaVuSans-38" x="1455.382812"/>
     <use xlink:href="#DejaVuSans-33" x="1519.005859"/>
     <use xlink:href="#DejaVuSans-37" x="1582.628906"/>
     <use xlink:href="#DejaVuSans-33" x="1646.251953"/>
    </g>
   </g>
  </g>
 </g>
 <defs>
  <clipPath id="p02367a6b2b">
   <rect x="57.6" y="6.912" width="303.2064" height="292.032"/>
  </clipPath>
 </defs>
</svg>
