<?xml version="1.0" encoding="utf-8" standalone="no"?>
<!DOCTYPE svg PUBLIC "-//W3C//DTD SVG 1.1//EN"
  "http://www.w3.org/Graphics/SVG/1.1/DTD/svg11.dtd">
<svg xmlns:xlink="http://www.w3.org/1999/xlink" width="460.8pt" height="345.6pt" viewBox="0 0 460.8 345.6" xmlns="http://www.w3.org/2000/svg" version="1.1">
 <metadata>
  <rdf:RDF xmlns:dc="http://purl.org/dc/elements/1.1/" xmlns:cc="http://creativecommons.org/ns#" xmlns:rdf="http://www.w3.org/1999/02/22-rdf-syntax-ns#">
   <cc:Work>
    <dc:type rdf:resource="http://purl.org/dc/dcmitype/StillImage"/>
    <dc:date>2022-06-19T21:02:44.397976</dc:date>
    <dc:format>image/svg+xml</dc:format>
    <dc:creator>
     <cc:Agent>
      <dc:title>Matplotlib v3.5.1, https://matplotlib.org/</dc:title>
     </cc:Agent>
    </dc:creator>
   </cc:Work>
  </rdf:RDF>
 </metadata>
 <defs>
  <style type="text/css">*{stroke-linejoin: round; stroke-linecap: butt}</style>
 </defs>
 <g id="figure_1">
  <g id="patch_1">
   <path d="M 0 345.6 
L 460.8 345.6 
L 460.8 0 
L 0 0 
z
" style="fill: #ffffff"/>
  </g>
  <g id="axes_1">
   <g id="patch_2">
    <path d="M 57.6 298.944 
L 360.8064 298.944 
L 360.8064 6.912 
L 57.6 6.912 
z
" style="fill: #ffffff"/>
   </g>
   <g id="line2d_1">
    <path d="M 57.6 298.944 
L 57.6 297.685241 
L 65.227428 297.685241 
L 65.227428 293.908966 
L 70.639174 293.908966 
L 70.639174 291.391448 
L 74.836851 291.391448 
L 74.836851 290.13269 
L 78.266603 290.13269 
L 78.266603 287.615172 
L 81.166416 287.615172 
L 81.166416 285.097655 
L 83.678349 285.097655 
L 83.678349 282.580138 
L 85.894031 282.580138 
L 85.894031 278.803862 
L 89.668958 278.803862 
L 89.668958 276.286345 
L 91.305777 276.286345 
L 91.305777 275.027586 
L 92.811505 275.027586 
L 92.811505 272.510069 
L 97.857967 272.510069 
L 97.857967 271.25131 
L 98.933205 271.25131 
L 98.933205 266.216276 
L 104.344952 266.216276 
L 104.344952 263.698759 
L 107.244765 263.698759 
L 107.244765 258.663724 
L 110.335561 258.663724 
L 110.335561 254.887448 
L 111.97238 254.887448 
L 111.97238 253.62869 
L 112.989468 253.62869 
L 112.989468 251.111172 
L 117.772007 251.111172 
L 117.772007 248.593655 
L 118.889854 248.593655 
L 118.889854 246.076138 
L 119.24818 246.076138 
L 119.24818 244.817379 
L 123.08753 244.817379 
L 123.08753 241.041103 
L 126.517282 241.041103 
L 126.517282 238.523586 
L 128.57149 238.523586 
L 128.57149 237.264828 
L 129.417095 237.264828 
L 129.417095 233.488552 
L 132.984158 233.488552 
L 132.984158 230.971034 
L 134.304809 230.971034 
L 134.304809 227.194759 
L 134.77709 227.194759 
L 134.77709 224.677241 
L 137.919637 224.677241 
L 137.919637 223.418483 
L 141.173167 223.418483 
L 141.173167 218.383448 
L 144.041338 218.383448 
L 144.041338 215.865931 
L 146.108646 215.865931 
L 146.108646 213.348414 
L 149.238092 213.348414 
L 149.238092 209.572138 
L 149.73597 209.572138 
L 149.73597 205.795862 
L 154.971412 205.795862 
L 154.971412 203.278345 
L 157.222487 203.278345 
L 157.222487 200.760828 
L 157.456756 200.760828 
L 157.456756 198.24331 
L 161.354042 198.24331 
L 161.354042 195.725793 
L 163.79962 195.725793 
L 163.79962 193.208276 
L 164.452864 193.208276 
L 164.452864 191.949517 
L 164.990826 191.949517 
L 164.990826 189.432 
L 166.746854 189.432 
L 166.746854 186.914483 
L 169.368578 186.914483 
L 169.368578 184.396966 
L 170.773255 184.396966 
L 170.773255 183.138207 
L 171.11426 183.138207 
L 171.11426 179.361931 
L 173.382435 179.361931 
L 173.382435 176.844414 
L 173.87517 176.844414 
L 173.87517 175.585655 
L 176.127562 175.585655 
L 176.127562 171.809379 
L 177.492039 171.809379 
L 177.556133 169.291862 
L 181.894052 169.291862 
L 181.894052 165.515586 
L 182.420108 165.515586 
L 182.420108 164.256828 
L 185.151541 164.256828 
L 185.151541 160.480552 
L 190.223749 160.480552 
L 190.223749 156.704276 
L 190.85741 156.704276 
L 190.85741 152.928 
L 192.682582 152.928 
L 192.682582 151.669241 
L 194.115486 151.669241 
L 194.115486 150.410483 
L 195.983044 150.410483 
L 195.983044 147.892966 
L 198.60278 147.892966 
L 198.60278 144.11669 
L 199.772708 144.11669 
L 199.880427 140.340414 
L 202.52251 140.340414 
L 202.52251 137.822897 
L 203.654466 137.822897 
L 203.654466 134.046621 
L 205.213893 134.046621 
L 205.213893 130.270345 
L 208.183964 130.270345 
L 208.183964 129.011586 
L 208.439695 129.011586 
L 208.439695 127.752828 
L 211.232561 127.752828 
L 211.232561 125.23531 
L 213.92718 125.23531 
L 213.92718 123.976552 
L 216.482736 123.976552 
L 216.482736 120.200276 
L 216.955468 120.200276 
L 216.955468 116.424 
L 220.000484 116.424 
L 220.000484 112.647724 
L 220.908088 112.647724 
L 220.908088 111.388966 
L 224.590773 111.388966 
L 224.590773 110.130207 
L 227.166589 110.130207 
L 227.166589 107.61269 
L 231.257278 107.61269 
L 231.257278 106.353931 
L 231.617585 106.353931 
L 231.617585 102.577655 
L 232.877282 102.577655 
L 232.877282 98.801379 
L 233.583762 98.801379 
L 233.583762 96.283862 
L 237.685653 96.283862 
L 237.685653 92.507586 
L 239.684654 92.507586 
L 239.684654 91.248828 
L 241.033209 91.248828 
L 241.033209 88.73131 
L 241.467955 88.73131 
L 241.494696 84.955034 
L 243.821744 84.955034 
L 243.821744 81.178759 
L 244.981456 81.178759 
L 244.981456 78.661241 
L 248.865817 78.661241 
L 248.90154 73.626207 
L 249.77531 73.626207 
L 249.77531 72.367448 
L 250.483122 72.367448 
L 250.483122 69.849931 
L 254.625037 69.849931 
L 254.709942 63.556138 
L 255.396664 63.556138 
L 255.396664 61.038621 
L 258.259322 61.038621 
L 258.259322 59.779862 
L 261.265993 59.779862 
L 261.265993 58.521103 
L 261.578009 58.521103 
L 261.578009 54.744828 
L 265.057065 54.744828 
L 265.057065 52.22731 
L 268.313822 52.22731 
L 268.313822 49.709793 
L 272.245145 49.709793 
L 272.245145 45.933517 
L 275.576145 45.933517 
L 275.576145 42.157241 
L 360.8064 42.157241 
L 360.8064 42.157241 
" style="fill: none; stroke: #f5deb3; stroke-width: 4; stroke-linecap: square"/>
   </g>
   <g id="line2d_2">
    <defs>
     <path id="m7b80cd7f15" d="M 0 7.778175 
L 7.778175 0 
L 0 -7.778175 
L -7.778175 0 
z
" style="stroke: #f5deb3; stroke-width: 1.5; stroke-linejoin: miter"/>
    </defs>
    <g>
     <use xlink:href="#m7b80cd7f15" x="166.746854" y="189.432" style="fill: #f5deb3; stroke: #f5deb3; stroke-width: 1.5; stroke-linejoin: miter"/>
     <use xlink:href="#m7b80cd7f15" x="241.467955" y="88.73131" style="fill: #f5deb3; stroke: #f5deb3; stroke-width: 1.5; stroke-linejoin: miter"/>
     <use xlink:href="#m7b80cd7f15" x="275.576145" y="42.157241" style="fill: #f5deb3; stroke: #f5deb3; stroke-width: 1.5; stroke-linejoin: miter"/>
     <use xlink:href="#m7b80cd7f15" x="275.576145" y="42.157241" style="fill: #f5deb3; stroke: #f5deb3; stroke-width: 1.5; stroke-linejoin: miter"/>
     <use xlink:href="#m7b80cd7f15" x="360.8064" y="42.157241" style="fill: #f5deb3; stroke: #f5deb3; stroke-width: 1.5; stroke-linejoin: miter"/>
    </g>
   </g>
   <g id="line2d_3">
    <path style="fill: none; stroke: #f5deb3; stroke-width: 4; stroke-linecap: square"/>
    <g/>
   </g>
   <g id="line2d_4">
    <path d="M 360.8064 42.157241 
L 380.514816 12.75264 
" style="fill: none; stroke: #f5deb3; stroke-width: 4; stroke-linecap: square"/>
    <g>
     <use xlink:href="#m7b80cd7f15" x="360.8064" y="42.157241" style="fill: #f5deb3; stroke: #f5deb3; stroke-width: 1.5; stroke-linejoin: miter"/>
     <use xlink:href="#m7b80cd7f15" x="380.514816" y="12.75264" style="fill: #f5deb3; stroke: #f5deb3; stroke-width: 1.5; stroke-linejoin: miter"/>
    </g>
   </g>
   <g id="matplotlib.axis_1">
    <g id="xtick_1">
     <g id="line2d_5">
      <path d="M 57.6 298.944 
L 57.6 6.912 
" clip-path="url(#p86caf8207a)" style="fill: none; stroke: #b0b0b0; stroke-width: 0.8; stroke-linecap: square"/>
     </g>
     <g id="line2d_6">
      <defs>
       <path id="mb1ebef2700" d="M 0 0 
L 0 3.5 
" style="stroke: #000000; stroke-width: 0.8"/>
      </defs>
      <g>
       <use xlink:href="#mb1ebef2700" x="57.6" y="298.944" style="stroke: #000000; stroke-width: 0.8"/>
      </g>
     </g>
     <g id="text_1">
      <!-- 0 -->
      <g transform="translate(52.191875 318.861344)scale(0.17 -0.17)">
       <defs>
        <path id="DejaVuSans-30" d="M 2034 4250 
Q 1547 4250 1301 3770 
Q 1056 3291 1056 2328 
Q 1056 1369 1301 889 
Q 1547 409 2034 409 
Q 2525 409 2770 889 
Q 3016 1369 3016 2328 
Q 3016 3291 2770 3770 
Q 2525 4250 2034 4250 
z
M 2034 4750 
Q 2819 4750 3233 4129 
Q 3647 3509 3647 2328 
Q 3647 1150 3233 529 
Q 2819 -91 2034 -91 
Q 1250 -91 836 529 
Q 422 1150 422 2328 
Q 422 3509 836 4129 
Q 1250 4750 2034 4750 
z
" transform="scale(0.015625)"/>
       </defs>
       <use xlink:href="#DejaVuSans-30"/>
      </g>
     </g>
    </g>
    <g id="xtick_2">
     <g id="line2d_7">
      <path d="M 144.2304 298.944 
L 144.2304 6.912 
" clip-path="url(#p86caf8207a)" style="fill: none; stroke: #b0b0b0; stroke-width: 0.8; stroke-linecap: square"/>
     </g>
     <g id="line2d_8">
      <g>
       <use xlink:href="#mb1ebef2700" x="144.2304" y="298.944" style="stroke: #000000; stroke-width: 0.8"/>
      </g>
     </g>
     <g id="text_2">
      <!-- 2 -->
      <g transform="translate(138.822275 318.861344)scale(0.17 -0.17)">
       <defs>
        <path id="DejaVuSans-32" d="M 1228 531 
L 3431 531 
L 3431 0 
L 469 0 
L 469 531 
Q 828 903 1448 1529 
Q 2069 2156 2228 2338 
Q 2531 2678 2651 2914 
Q 2772 3150 2772 3378 
Q 2772 3750 2511 3984 
Q 2250 4219 1831 4219 
Q 1534 4219 1204 4116 
Q 875 4013 500 3803 
L 500 4441 
Q 881 4594 1212 4672 
Q 1544 4750 1819 4750 
Q 2544 4750 2975 4387 
Q 3406 4025 3406 3419 
Q 3406 3131 3298 2873 
Q 3191 2616 2906 2266 
Q 2828 2175 2409 1742 
Q 1991 1309 1228 531 
z
" transform="scale(0.015625)"/>
       </defs>
       <use xlink:href="#DejaVuSans-32"/>
      </g>
     </g>
    </g>
    <g id="xtick_3">
     <g id="line2d_9">
      <path d="M 230.8608 298.944 
L 230.8608 6.912 
" clip-path="url(#p86caf8207a)" style="fill: none; stroke: #b0b0b0; stroke-width: 0.8; stroke-linecap: square"/>
     </g>
     <g id="line2d_10">
      <g>
       <use xlink:href="#mb1ebef2700" x="230.8608" y="298.944" style="stroke: #000000; stroke-width: 0.8"/>
      </g>
     </g>
     <g id="text_3">
      <!-- 4 -->
      <g transform="translate(225.452675 318.861344)scale(0.17 -0.17)">
       <defs>
        <path id="DejaVuSans-34" d="M 2419 4116 
L 825 1625 
L 2419 1625 
L 2419 4116 
z
M 2253 4666 
L 3047 4666 
L 3047 1625 
L 3713 1625 
L 3713 1100 
L 3047 1100 
L 3047 0 
L 2419 0 
L 2419 1100 
L 313 1100 
L 313 1709 
L 2253 4666 
z
" transform="scale(0.015625)"/>
       </defs>
       <use xlink:href="#DejaVuSans-34"/>
      </g>
     </g>
    </g>
    <g id="xtick_4">
     <g id="line2d_11">
      <path d="M 317.4912 298.944 
L 317.4912 6.912 
" clip-path="url(#p86caf8207a)" style="fill: none; stroke: #b0b0b0; stroke-width: 0.8; stroke-linecap: square"/>
     </g>
     <g id="line2d_12">
      <g>
       <use xlink:href="#mb1ebef2700" x="317.4912" y="298.944" style="stroke: #000000; stroke-width: 0.8"/>
      </g>
     </g>
     <g id="text_4">
      <!-- 6 -->
      <g transform="translate(312.083075 318.861344)scale(0.17 -0.17)">
       <defs>
        <path id="DejaVuSans-36" d="M 2113 2584 
Q 1688 2584 1439 2293 
Q 1191 2003 1191 1497 
Q 1191 994 1439 701 
Q 1688 409 2113 409 
Q 2538 409 2786 701 
Q 3034 994 3034 1497 
Q 3034 2003 2786 2293 
Q 2538 2584 2113 2584 
z
M 3366 4563 
L 3366 3988 
Q 3128 4100 2886 4159 
Q 2644 4219 2406 4219 
Q 1781 4219 1451 3797 
Q 1122 3375 1075 2522 
Q 1259 2794 1537 2939 
Q 1816 3084 2150 3084 
Q 2853 3084 3261 2657 
Q 3669 2231 3669 1497 
Q 3669 778 3244 343 
Q 2819 -91 2113 -91 
Q 1303 -91 875 529 
Q 447 1150 447 2328 
Q 447 3434 972 4092 
Q 1497 4750 2381 4750 
Q 2619 4750 2861 4703 
Q 3103 4656 3366 4563 
z
" transform="scale(0.015625)"/>
       </defs>
       <use xlink:href="#DejaVuSans-36"/>
      </g>
     </g>
    </g>
    <g id="xtick_5">
     <g id="line2d_13">
      <path d="M 100.9152 298.944 
L 100.9152 6.912 
" clip-path="url(#p86caf8207a)" style="fill: none; stroke: #b0b0b0; stroke-width: 0.8; stroke-linecap: square"/>
     </g>
     <g id="line2d_14">
      <defs>
       <path id="m1715a7029c" d="M 0 0 
L 0 2 
" style="stroke: #000000; stroke-width: 0.6"/>
      </defs>
      <g>
       <use xlink:href="#m1715a7029c" x="100.9152" y="298.944" style="stroke: #000000; stroke-width: 0.6"/>
      </g>
     </g>
    </g>
    <g id="xtick_6">
     <g id="line2d_15">
      <path d="M 187.5456 298.944 
L 187.5456 6.912 
" clip-path="url(#p86caf8207a)" style="fill: none; stroke: #b0b0b0; stroke-width: 0.8; stroke-linecap: square"/>
     </g>
     <g id="line2d_16">
      <g>
       <use xlink:href="#m1715a7029c" x="187.5456" y="298.944" style="stroke: #000000; stroke-width: 0.6"/>
      </g>
     </g>
    </g>
    <g id="xtick_7">
     <g id="line2d_17">
      <path d="M 274.176 298.944 
L 274.176 6.912 
" clip-path="url(#p86caf8207a)" style="fill: none; stroke: #b0b0b0; stroke-width: 0.8; stroke-linecap: square"/>
     </g>
     <g id="line2d_18">
      <g>
       <use xlink:href="#m1715a7029c" x="274.176" y="298.944" style="stroke: #000000; stroke-width: 0.6"/>
      </g>
     </g>
    </g>
    <g id="xtick_8">
     <g id="line2d_19">
      <path d="M 360.8064 298.944 
L 360.8064 6.912 
" clip-path="url(#p86caf8207a)" style="fill: none; stroke: #b0b0b0; stroke-width: 0.8; stroke-linecap: square"/>
     </g>
     <g id="line2d_20">
      <g>
       <use xlink:href="#m1715a7029c" x="360.8064" y="298.944" style="stroke: #000000; stroke-width: 0.6"/>
      </g>
     </g>
    </g>
    <g id="text_5">
     <!-- log10(# f-evals / dimension) -->
     <g transform="translate(88.823278 339.314156)scale(0.17 -0.17)">
      <defs>
       <path id="DejaVuSans-6c" d="M 603 4863 
L 1178 4863 
L 1178 0 
L 603 0 
L 603 4863 
z
" transform="scale(0.015625)"/>
       <path id="DejaVuSans-6f" d="M 1959 3097 
Q 1497 3097 1228 2736 
Q 959 2375 959 1747 
Q 959 1119 1226 758 
Q 1494 397 1959 397 
Q 2419 397 2687 759 
Q 2956 1122 2956 1747 
Q 2956 2369 2687 2733 
Q 2419 3097 1959 3097 
z
M 1959 3584 
Q 2709 3584 3137 3096 
Q 3566 2609 3566 1747 
Q 3566 888 3137 398 
Q 2709 -91 1959 -91 
Q 1206 -91 779 398 
Q 353 888 353 1747 
Q 353 2609 779 3096 
Q 1206 3584 1959 3584 
z
" transform="scale(0.015625)"/>
       <path id="DejaVuSans-67" d="M 2906 1791 
Q 2906 2416 2648 2759 
Q 2391 3103 1925 3103 
Q 1463 3103 1205 2759 
Q 947 2416 947 1791 
Q 947 1169 1205 825 
Q 1463 481 1925 481 
Q 2391 481 2648 825 
Q 2906 1169 2906 1791 
z
M 3481 434 
Q 3481 -459 3084 -895 
Q 2688 -1331 1869 -1331 
Q 1566 -1331 1297 -1286 
Q 1028 -1241 775 -1147 
L 775 -588 
Q 1028 -725 1275 -790 
Q 1522 -856 1778 -856 
Q 2344 -856 2625 -561 
Q 2906 -266 2906 331 
L 2906 616 
Q 2728 306 2450 153 
Q 2172 0 1784 0 
Q 1141 0 747 490 
Q 353 981 353 1791 
Q 353 2603 747 3093 
Q 1141 3584 1784 3584 
Q 2172 3584 2450 3431 
Q 2728 3278 2906 2969 
L 2906 3500 
L 3481 3500 
L 3481 434 
z
" transform="scale(0.015625)"/>
       <path id="DejaVuSans-31" d="M 794 531 
L 1825 531 
L 1825 4091 
L 703 3866 
L 703 4441 
L 1819 4666 
L 2450 4666 
L 2450 531 
L 3481 531 
L 3481 0 
L 794 0 
L 794 531 
z
" transform="scale(0.015625)"/>
       <path id="DejaVuSans-28" d="M 1984 4856 
Q 1566 4138 1362 3434 
Q 1159 2731 1159 2009 
Q 1159 1288 1364 580 
Q 1569 -128 1984 -844 
L 1484 -844 
Q 1016 -109 783 600 
Q 550 1309 550 2009 
Q 550 2706 781 3412 
Q 1013 4119 1484 4856 
L 1984 4856 
z
" transform="scale(0.015625)"/>
       <path id="DejaVuSans-23" d="M 3272 2816 
L 2363 2816 
L 2100 1772 
L 3016 1772 
L 3272 2816 
z
M 2803 4594 
L 2478 3297 
L 3391 3297 
L 3719 4594 
L 4219 4594 
L 3897 3297 
L 4872 3297 
L 4872 2816 
L 3775 2816 
L 3519 1772 
L 4513 1772 
L 4513 1294 
L 3397 1294 
L 3072 0 
L 2572 0 
L 2894 1294 
L 1978 1294 
L 1656 0 
L 1153 0 
L 1478 1294 
L 494 1294 
L 494 1772 
L 1594 1772 
L 1856 2816 
L 850 2816 
L 850 3297 
L 1978 3297 
L 2297 4594 
L 2803 4594 
z
" transform="scale(0.015625)"/>
       <path id="DejaVuSans-20" transform="scale(0.015625)"/>
       <path id="DejaVuSans-66" d="M 2375 4863 
L 2375 4384 
L 1825 4384 
Q 1516 4384 1395 4259 
Q 1275 4134 1275 3809 
L 1275 3500 
L 2222 3500 
L 2222 3053 
L 1275 3053 
L 1275 0 
L 697 0 
L 697 3053 
L 147 3053 
L 147 3500 
L 697 3500 
L 697 3744 
Q 697 4328 969 4595 
Q 1241 4863 1831 4863 
L 2375 4863 
z
" transform="scale(0.015625)"/>
       <path id="DejaVuSans-2d" d="M 313 2009 
L 1997 2009 
L 1997 1497 
L 313 1497 
L 313 2009 
z
" transform="scale(0.015625)"/>
       <path id="DejaVuSans-65" d="M 3597 1894 
L 3597 1613 
L 953 1613 
Q 991 1019 1311 708 
Q 1631 397 2203 397 
Q 2534 397 2845 478 
Q 3156 559 3463 722 
L 3463 178 
Q 3153 47 2828 -22 
Q 2503 -91 2169 -91 
Q 1331 -91 842 396 
Q 353 884 353 1716 
Q 353 2575 817 3079 
Q 1281 3584 2069 3584 
Q 2775 3584 3186 3129 
Q 3597 2675 3597 1894 
z
M 3022 2063 
Q 3016 2534 2758 2815 
Q 2500 3097 2075 3097 
Q 1594 3097 1305 2825 
Q 1016 2553 972 2059 
L 3022 2063 
z
" transform="scale(0.015625)"/>
       <path id="DejaVuSans-76" d="M 191 3500 
L 800 3500 
L 1894 563 
L 2988 3500 
L 3597 3500 
L 2284 0 
L 1503 0 
L 191 3500 
z
" transform="scale(0.015625)"/>
       <path id="DejaVuSans-61" d="M 2194 1759 
Q 1497 1759 1228 1600 
Q 959 1441 959 1056 
Q 959 750 1161 570 
Q 1363 391 1709 391 
Q 2188 391 2477 730 
Q 2766 1069 2766 1631 
L 2766 1759 
L 2194 1759 
z
M 3341 1997 
L 3341 0 
L 2766 0 
L 2766 531 
Q 2569 213 2275 61 
Q 1981 -91 1556 -91 
Q 1019 -91 701 211 
Q 384 513 384 1019 
Q 384 1609 779 1909 
Q 1175 2209 1959 2209 
L 2766 2209 
L 2766 2266 
Q 2766 2663 2505 2880 
Q 2244 3097 1772 3097 
Q 1472 3097 1187 3025 
Q 903 2953 641 2809 
L 641 3341 
Q 956 3463 1253 3523 
Q 1550 3584 1831 3584 
Q 2591 3584 2966 3190 
Q 3341 2797 3341 1997 
z
" transform="scale(0.015625)"/>
       <path id="DejaVuSans-73" d="M 2834 3397 
L 2834 2853 
Q 2591 2978 2328 3040 
Q 2066 3103 1784 3103 
Q 1356 3103 1142 2972 
Q 928 2841 928 2578 
Q 928 2378 1081 2264 
Q 1234 2150 1697 2047 
L 1894 2003 
Q 2506 1872 2764 1633 
Q 3022 1394 3022 966 
Q 3022 478 2636 193 
Q 2250 -91 1575 -91 
Q 1294 -91 989 -36 
Q 684 19 347 128 
L 347 722 
Q 666 556 975 473 
Q 1284 391 1588 391 
Q 1994 391 2212 530 
Q 2431 669 2431 922 
Q 2431 1156 2273 1281 
Q 2116 1406 1581 1522 
L 1381 1569 
Q 847 1681 609 1914 
Q 372 2147 372 2553 
Q 372 3047 722 3315 
Q 1072 3584 1716 3584 
Q 2034 3584 2315 3537 
Q 2597 3491 2834 3397 
z
" transform="scale(0.015625)"/>
       <path id="DejaVuSans-2f" d="M 1625 4666 
L 2156 4666 
L 531 -594 
L 0 -594 
L 1625 4666 
z
" transform="scale(0.015625)"/>
       <path id="DejaVuSans-64" d="M 2906 2969 
L 2906 4863 
L 3481 4863 
L 3481 0 
L 2906 0 
L 2906 525 
Q 2725 213 2448 61 
Q 2172 -91 1784 -91 
Q 1150 -91 751 415 
Q 353 922 353 1747 
Q 353 2572 751 3078 
Q 1150 3584 1784 3584 
Q 2172 3584 2448 3432 
Q 2725 3281 2906 2969 
z
M 947 1747 
Q 947 1113 1208 752 
Q 1469 391 1925 391 
Q 2381 391 2643 752 
Q 2906 1113 2906 1747 
Q 2906 2381 2643 2742 
Q 2381 3103 1925 3103 
Q 1469 3103 1208 2742 
Q 947 2381 947 1747 
z
" transform="scale(0.015625)"/>
       <path id="DejaVuSans-69" d="M 603 3500 
L 1178 3500 
L 1178 0 
L 603 0 
L 603 3500 
z
M 603 4863 
L 1178 4863 
L 1178 4134 
L 603 4134 
L 603 4863 
z
" transform="scale(0.015625)"/>
       <path id="DejaVuSans-6d" d="M 3328 2828 
Q 3544 3216 3844 3400 
Q 4144 3584 4550 3584 
Q 5097 3584 5394 3201 
Q 5691 2819 5691 2113 
L 5691 0 
L 5113 0 
L 5113 2094 
Q 5113 2597 4934 2840 
Q 4756 3084 4391 3084 
Q 3944 3084 3684 2787 
Q 3425 2491 3425 1978 
L 3425 0 
L 2847 0 
L 2847 2094 
Q 2847 2600 2669 2842 
Q 2491 3084 2119 3084 
Q 1678 3084 1418 2786 
Q 1159 2488 1159 1978 
L 1159 0 
L 581 0 
L 581 3500 
L 1159 3500 
L 1159 2956 
Q 1356 3278 1631 3431 
Q 1906 3584 2284 3584 
Q 2666 3584 2933 3390 
Q 3200 3197 3328 2828 
z
" transform="scale(0.015625)"/>
       <path id="DejaVuSans-6e" d="M 3513 2113 
L 3513 0 
L 2938 0 
L 2938 2094 
Q 2938 2591 2744 2837 
Q 2550 3084 2163 3084 
Q 1697 3084 1428 2787 
Q 1159 2491 1159 1978 
L 1159 0 
L 581 0 
L 581 3500 
L 1159 3500 
L 1159 2956 
Q 1366 3272 1645 3428 
Q 1925 3584 2291 3584 
Q 2894 3584 3203 3211 
Q 3513 2838 3513 2113 
z
" transform="scale(0.015625)"/>
       <path id="DejaVuSans-29" d="M 513 4856 
L 1013 4856 
Q 1481 4119 1714 3412 
Q 1947 2706 1947 2009 
Q 1947 1309 1714 600 
Q 1481 -109 1013 -844 
L 513 -844 
Q 928 -128 1133 580 
Q 1338 1288 1338 2009 
Q 1338 2731 1133 3434 
Q 928 4138 513 4856 
z
" transform="scale(0.015625)"/>
      </defs>
      <use xlink:href="#DejaVuSans-6c"/>
      <use xlink:href="#DejaVuSans-6f" x="27.783203"/>
      <use xlink:href="#DejaVuSans-67" x="88.964844"/>
      <use xlink:href="#DejaVuSans-31" x="152.441406"/>
      <use xlink:href="#DejaVuSans-30" x="216.064453"/>
      <use xlink:href="#DejaVuSans-28" x="279.6875"/>
      <use xlink:href="#DejaVuSans-23" x="318.701172"/>
      <use xlink:href="#DejaVuSans-20" x="402.490234"/>
      <use xlink:href="#DejaVuSans-66" x="434.277344"/>
      <use xlink:href="#DejaVuSans-2d" x="463.982422"/>
      <use xlink:href="#DejaVuSans-65" x="500.066406"/>
      <use xlink:href="#DejaVuSans-76" x="561.589844"/>
      <use xlink:href="#DejaVuSans-61" x="620.769531"/>
      <use xlink:href="#DejaVuSans-6c" x="682.048828"/>
      <use xlink:href="#DejaVuSans-73" x="709.832031"/>
      <use xlink:href="#DejaVuSans-20" x="761.931641"/>
      <use xlink:href="#DejaVuSans-2f" x="793.71875"/>
      <use xlink:href="#DejaVuSans-20" x="827.410156"/>
      <use xlink:href="#DejaVuSans-64" x="859.197266"/>
      <use xlink:href="#DejaVuSans-69" x="922.673828"/>
      <use xlink:href="#DejaVuSans-6d" x="950.457031"/>
      <use xlink:href="#DejaVuSans-65" x="1047.869141"/>
      <use xlink:href="#DejaVuSans-6e" x="1109.392578"/>
      <use xlink:href="#DejaVuSans-73" x="1172.771484"/>
      <use xlink:href="#DejaVuSans-69" x="1224.871094"/>
      <use xlink:href="#DejaVuSans-6f" x="1252.654297"/>
      <use xlink:href="#DejaVuSans-6e" x="1313.835938"/>
      <use xlink:href="#DejaVuSans-29" x="1377.214844"/>
     </g>
    </g>
   </g>
   <g id="matplotlib.axis_2">
    <g id="ytick_1">
     <g id="line2d_21">
      <path d="M 57.6 298.944 
L 360.8064 298.944 
" clip-path="url(#p86caf8207a)" style="fill: none; stroke: #b0b0b0; stroke-width: 0.8; stroke-linecap: square"/>
     </g>
     <g id="line2d_22">
      <defs>
       <path id="mc9b589ff60" d="M 0 0 
L -3.5 0 
" style="stroke: #000000; stroke-width: 0.8"/>
      </defs>
      <g>
       <use xlink:href="#mc9b589ff60" x="57.6" y="298.944" style="stroke: #000000; stroke-width: 0.8"/>
      </g>
     </g>
     <g id="text_6">
      <!-- 0.0 -->
      <g transform="translate(25.155 305.02275)scale(0.16 -0.16)">
       <defs>
        <path id="DejaVuSans-2e" d="M 684 794 
L 1344 794 
L 1344 0 
L 684 0 
L 684 794 
z
" transform="scale(0.015625)"/>
       </defs>
       <use xlink:href="#DejaVuSans-30"/>
       <use xlink:href="#DejaVuSans-2e" x="63.623047"/>
       <use xlink:href="#DejaVuSans-30" x="95.410156"/>
      </g>
     </g>
    </g>
    <g id="ytick_2">
     <g id="line2d_23">
      <path d="M 57.6 240.5376 
L 360.8064 240.5376 
" clip-path="url(#p86caf8207a)" style="fill: none; stroke: #b0b0b0; stroke-width: 0.8; stroke-linecap: square"/>
     </g>
     <g id="line2d_24">
      <g>
       <use xlink:href="#mc9b589ff60" x="57.6" y="240.5376" style="stroke: #000000; stroke-width: 0.8"/>
      </g>
     </g>
     <g id="text_7">
      <!-- 0.2 -->
      <g transform="translate(25.155 246.61635)scale(0.16 -0.16)">
       <use xlink:href="#DejaVuSans-30"/>
       <use xlink:href="#DejaVuSans-2e" x="63.623047"/>
       <use xlink:href="#DejaVuSans-32" x="95.410156"/>
      </g>
     </g>
    </g>
    <g id="ytick_3">
     <g id="line2d_25">
      <path d="M 57.6 182.1312 
L 360.8064 182.1312 
" clip-path="url(#p86caf8207a)" style="fill: none; stroke: #b0b0b0; stroke-width: 0.8; stroke-linecap: square"/>
     </g>
     <g id="line2d_26">
      <g>
       <use xlink:href="#mc9b589ff60" x="57.6" y="182.1312" style="stroke: #000000; stroke-width: 0.8"/>
      </g>
     </g>
     <g id="text_8">
      <!-- 0.4 -->
      <g transform="translate(25.155 188.20995)scale(0.16 -0.16)">
       <use xlink:href="#DejaVuSans-30"/>
       <use xlink:href="#DejaVuSans-2e" x="63.623047"/>
       <use xlink:href="#DejaVuSans-34" x="95.410156"/>
      </g>
     </g>
    </g>
    <g id="ytick_4">
     <g id="line2d_27">
      <path d="M 57.6 123.7248 
L 360.8064 123.7248 
" clip-path="url(#p86caf8207a)" style="fill: none; stroke: #b0b0b0; stroke-width: 0.8; stroke-linecap: square"/>
     </g>
     <g id="line2d_28">
      <g>
       <use xlink:href="#mc9b589ff60" x="57.6" y="123.7248" style="stroke: #000000; stroke-width: 0.8"/>
      </g>
     </g>
     <g id="text_9">
      <!-- 0.6 -->
      <g transform="translate(25.155 129.80355)scale(0.16 -0.16)">
       <use xlink:href="#DejaVuSans-30"/>
       <use xlink:href="#DejaVuSans-2e" x="63.623047"/>
       <use xlink:href="#DejaVuSans-36" x="95.410156"/>
      </g>
     </g>
    </g>
    <g id="ytick_5">
     <g id="line2d_29">
      <path d="M 57.6 65.3184 
L 360.8064 65.3184 
" clip-path="url(#p86caf8207a)" style="fill: none; stroke: #b0b0b0; stroke-width: 0.8; stroke-linecap: square"/>
     </g>
     <g id="line2d_30">
      <g>
       <use xlink:href="#mc9b589ff60" x="57.6" y="65.3184" style="stroke: #000000; stroke-width: 0.8"/>
      </g>
     </g>
     <g id="text_10">
      <!-- 0.8 -->
      <g transform="translate(25.155 71.39715)scale(0.16 -0.16)">
       <defs>
        <path id="DejaVuSans-38" d="M 2034 2216 
Q 1584 2216 1326 1975 
Q 1069 1734 1069 1313 
Q 1069 891 1326 650 
Q 1584 409 2034 409 
Q 2484 409 2743 651 
Q 3003 894 3003 1313 
Q 3003 1734 2745 1975 
Q 2488 2216 2034 2216 
z
M 1403 2484 
Q 997 2584 770 2862 
Q 544 3141 544 3541 
Q 544 4100 942 4425 
Q 1341 4750 2034 4750 
Q 2731 4750 3128 4425 
Q 3525 4100 3525 3541 
Q 3525 3141 3298 2862 
Q 3072 2584 2669 2484 
Q 3125 2378 3379 2068 
Q 3634 1759 3634 1313 
Q 3634 634 3220 271 
Q 2806 -91 2034 -91 
Q 1263 -91 848 271 
Q 434 634 434 1313 
Q 434 1759 690 2068 
Q 947 2378 1403 2484 
z
M 1172 3481 
Q 1172 3119 1398 2916 
Q 1625 2713 2034 2713 
Q 2441 2713 2670 2916 
Q 2900 3119 2900 3481 
Q 2900 3844 2670 4047 
Q 2441 4250 2034 4250 
Q 1625 4250 1398 4047 
Q 1172 3844 1172 3481 
z
" transform="scale(0.015625)"/>
       </defs>
       <use xlink:href="#DejaVuSans-30"/>
       <use xlink:href="#DejaVuSans-2e" x="63.623047"/>
       <use xlink:href="#DejaVuSans-38" x="95.410156"/>
      </g>
     </g>
    </g>
    <g id="ytick_6">
     <g id="line2d_31">
      <path d="M 57.6 6.912 
L 360.8064 6.912 
" clip-path="url(#p86caf8207a)" style="fill: none; stroke: #b0b0b0; stroke-width: 0.8; stroke-linecap: square"/>
     </g>
     <g id="line2d_32">
      <g>
       <use xlink:href="#mc9b589ff60" x="57.6" y="6.912" style="stroke: #000000; stroke-width: 0.8"/>
      </g>
     </g>
     <g id="text_11">
      <!-- 1.0 -->
      <g transform="translate(25.155 12.99075)scale(0.16 -0.16)">
       <use xlink:href="#DejaVuSans-31"/>
       <use xlink:href="#DejaVuSans-2e" x="63.623047"/>
       <use xlink:href="#DejaVuSans-30" x="95.410156"/>
      </g>
     </g>
    </g>
    <g id="text_12">
     <!-- Fraction of function,target pairs -->
     <g transform="translate(17.619531 287.313)rotate(-90)scale(0.17 -0.17)">
      <defs>
       <path id="DejaVuSans-46" d="M 628 4666 
L 3309 4666 
L 3309 4134 
L 1259 4134 
L 1259 2759 
L 3109 2759 
L 3109 2228 
L 1259 2228 
L 1259 0 
L 628 0 
L 628 4666 
z
" transform="scale(0.015625)"/>
       <path id="DejaVuSans-72" d="M 2631 2963 
Q 2534 3019 2420 3045 
Q 2306 3072 2169 3072 
Q 1681 3072 1420 2755 
Q 1159 2438 1159 1844 
L 1159 0 
L 581 0 
L 581 3500 
L 1159 3500 
L 1159 2956 
Q 1341 3275 1631 3429 
Q 1922 3584 2338 3584 
Q 2397 3584 2469 3576 
Q 2541 3569 2628 3553 
L 2631 2963 
z
" transform="scale(0.015625)"/>
       <path id="DejaVuSans-63" d="M 3122 3366 
L 3122 2828 
Q 2878 2963 2633 3030 
Q 2388 3097 2138 3097 
Q 1578 3097 1268 2742 
Q 959 2388 959 1747 
Q 959 1106 1268 751 
Q 1578 397 2138 397 
Q 2388 397 2633 464 
Q 2878 531 3122 666 
L 3122 134 
Q 2881 22 2623 -34 
Q 2366 -91 2075 -91 
Q 1284 -91 818 406 
Q 353 903 353 1747 
Q 353 2603 823 3093 
Q 1294 3584 2113 3584 
Q 2378 3584 2631 3529 
Q 2884 3475 3122 3366 
z
" transform="scale(0.015625)"/>
       <path id="DejaVuSans-74" d="M 1172 4494 
L 1172 3500 
L 2356 3500 
L 2356 3053 
L 1172 3053 
L 1172 1153 
Q 1172 725 1289 603 
Q 1406 481 1766 481 
L 2356 481 
L 2356 0 
L 1766 0 
Q 1100 0 847 248 
Q 594 497 594 1153 
L 594 3053 
L 172 3053 
L 172 3500 
L 594 3500 
L 594 4494 
L 1172 4494 
z
" transform="scale(0.015625)"/>
       <path id="DejaVuSans-75" d="M 544 1381 
L 544 3500 
L 1119 3500 
L 1119 1403 
Q 1119 906 1312 657 
Q 1506 409 1894 409 
Q 2359 409 2629 706 
Q 2900 1003 2900 1516 
L 2900 3500 
L 3475 3500 
L 3475 0 
L 2900 0 
L 2900 538 
Q 2691 219 2414 64 
Q 2138 -91 1772 -91 
Q 1169 -91 856 284 
Q 544 659 544 1381 
z
M 1991 3584 
L 1991 3584 
z
" transform="scale(0.015625)"/>
       <path id="DejaVuSans-2c" d="M 750 794 
L 1409 794 
L 1409 256 
L 897 -744 
L 494 -744 
L 750 256 
L 750 794 
z
" transform="scale(0.015625)"/>
       <path id="DejaVuSans-70" d="M 1159 525 
L 1159 -1331 
L 581 -1331 
L 581 3500 
L 1159 3500 
L 1159 2969 
Q 1341 3281 1617 3432 
Q 1894 3584 2278 3584 
Q 2916 3584 3314 3078 
Q 3713 2572 3713 1747 
Q 3713 922 3314 415 
Q 2916 -91 2278 -91 
Q 1894 -91 1617 61 
Q 1341 213 1159 525 
z
M 3116 1747 
Q 3116 2381 2855 2742 
Q 2594 3103 2138 3103 
Q 1681 3103 1420 2742 
Q 1159 2381 1159 1747 
Q 1159 1113 1420 752 
Q 1681 391 2138 391 
Q 2594 391 2855 752 
Q 3116 1113 3116 1747 
z
" transform="scale(0.015625)"/>
      </defs>
      <use xlink:href="#DejaVuSans-46"/>
      <use xlink:href="#DejaVuSans-72" x="50.269531"/>
      <use xlink:href="#DejaVuSans-61" x="91.382812"/>
      <use xlink:href="#DejaVuSans-63" x="152.662109"/>
      <use xlink:href="#DejaVuSans-74" x="207.642578"/>
      <use xlink:href="#DejaVuSans-69" x="246.851562"/>
      <use xlink:href="#DejaVuSans-6f" x="274.634766"/>
      <use xlink:href="#DejaVuSans-6e" x="335.816406"/>
      <use xlink:href="#DejaVuSans-20" x="399.195312"/>
      <use xlink:href="#DejaVuSans-6f" x="430.982422"/>
      <use xlink:href="#DejaVuSans-66" x="492.164062"/>
      <use xlink:href="#DejaVuSans-20" x="527.369141"/>
      <use xlink:href="#DejaVuSans-66" x="559.15625"/>
      <use xlink:href="#DejaVuSans-75" x="594.361328"/>
      <use xlink:href="#DejaVuSans-6e" x="657.740234"/>
      <use xlink:href="#DejaVuSans-63" x="721.119141"/>
      <use xlink:href="#DejaVuSans-74" x="776.099609"/>
      <use xlink:href="#DejaVuSans-69" x="815.308594"/>
      <use xlink:href="#DejaVuSans-6f" x="843.091797"/>
      <use xlink:href="#DejaVuSans-6e" x="904.273438"/>
      <use xlink:href="#DejaVuSans-2c" x="967.652344"/>
      <use xlink:href="#DejaVuSans-74" x="999.439453"/>
      <use xlink:href="#DejaVuSans-61" x="1038.648438"/>
      <use xlink:href="#DejaVuSans-72" x="1099.927734"/>
      <use xlink:href="#DejaVuSans-67" x="1139.291016"/>
      <use xlink:href="#DejaVuSans-65" x="1202.767578"/>
      <use xlink:href="#DejaVuSans-74" x="1264.291016"/>
      <use xlink:href="#DejaVuSans-20" x="1303.5"/>
      <use xlink:href="#DejaVuSans-70" x="1335.287109"/>
      <use xlink:href="#DejaVuSans-61" x="1398.763672"/>
      <use xlink:href="#DejaVuSans-69" x="1460.042969"/>
      <use xlink:href="#DejaVuSans-72" x="1487.826172"/>
      <use xlink:href="#DejaVuSans-73" x="1528.939453"/>
     </g>
    </g>
   </g>
   <g id="line2d_33">
    <defs>
     <path id="mcb3dfb6fc7" d="M 0 1.5 
C 0.397805 1.5 0.77937 1.341951 1.06066 1.06066 
C 1.341951 0.77937 1.5 0.397805 1.5 0 
C 1.5 -0.397805 1.341951 -0.77937 1.06066 -1.06066 
C 0.77937 -1.341951 0.397805 -1.5 0 -1.5 
C -0.397805 -1.5 -0.77937 -1.341951 -1.06066 -1.06066 
C -1.341951 -0.77937 -1.5 -0.397805 -1.5 0 
C -1.5 0.397805 -1.341951 0.77937 -1.06066 1.06066 
C -0.77937 1.341951 -0.397805 1.5 0 1.5 
z
" style="stroke: #f5deb3"/>
    </defs>
    <g>
     <use xlink:href="#mcb3dfb6fc7" x="275.576145" y="42.157241" style="fill: #f5deb3; stroke: #f5deb3"/>
     <use xlink:href="#mcb3dfb6fc7" x="275.576145" y="42.157241" style="fill: #f5deb3; stroke: #f5deb3"/>
    </g>
   </g>
   <g id="line2d_34">
    <defs>
     <path id="m7bd6b64f82" d="M 0 1.5 
C 0.397805 1.5 0.77937 1.341951 1.06066 1.06066 
C 1.341951 0.77937 1.5 0.397805 1.5 0 
C 1.5 -0.397805 1.341951 -0.77937 1.06066 -1.06066 
C 0.77937 -1.341951 0.397805 -1.5 0 -1.5 
C -0.397805 -1.5 -0.77937 -1.341951 -1.06066 -1.06066 
C -1.341951 -0.77937 -1.5 -0.397805 -1.5 0 
C -1.5 0.397805 -1.341951 0.77937 -1.06066 1.06066 
C -0.77937 1.341951 -0.397805 1.5 0 1.5 
z
" style="stroke: #000080"/>
    </defs>
    <g>
     <use xlink:href="#m7bd6b64f82" x="83.678349" y="272.635945" style="fill: #000080; stroke: #000080"/>
     <use xlink:href="#m7bd6b64f82" x="83.678349" y="272.635945" style="fill: #000080; stroke: #000080"/>
    </g>
   </g>
   <g id="line2d_35">
    <path d="M 44.560826 298.944 
L 44.560826 289.251559 
L 57.6 289.251559 
L 57.6 287.9928 
L 65.227428 287.9928 
L 65.227428 285.601159 
L 70.639174 285.601159 
L 70.639174 284.468276 
L 74.836851 284.468276 
L 74.836851 281.069628 
L 78.266603 281.069628 
L 78.266603 277.0416 
L 81.166416 277.0416 
L 81.166416 274.775834 
L 83.678349 274.775834 
L 83.678349 272.635945 
L 360.8064 272.635945 
" style="fill: none; stroke: #000080; stroke-width: 1.5; stroke-linecap: square"/>
   </g>
   <g id="line2d_36">
    <defs>
     <path id="m0c2482a75d" d="M 0 6 
C 1.591219 6 3.117479 5.367802 4.242641 4.242641 
C 5.367802 3.117479 6 1.591219 6 0 
C 6 -1.591219 5.367802 -3.117479 4.242641 -4.242641 
C 3.117479 -5.367802 1.591219 -6 0 -6 
C -1.591219 -6 -3.117479 -5.367802 -4.242641 -4.242641 
C -5.367802 -3.117479 -6 -1.591219 -6 0 
C -6 1.591219 -5.367802 3.117479 -4.242641 4.242641 
C -3.117479 5.367802 -1.591219 6 0 6 
z
" style="stroke: #000080; stroke-width: 1.5"/>
    </defs>
    <g>
     <use xlink:href="#m0c2482a75d" x="83.678349" y="274.775834" style="fill-opacity: 0; stroke: #000080; stroke-width: 1.5"/>
     <use xlink:href="#m0c2482a75d" x="83.678349" y="274.775834" style="fill-opacity: 0; stroke: #000080; stroke-width: 1.5"/>
     <use xlink:href="#m0c2482a75d" x="83.678349" y="272.635945" style="fill-opacity: 0; stroke: #000080; stroke-width: 1.5"/>
     <use xlink:href="#m0c2482a75d" x="83.678349" y="272.635945" style="fill-opacity: 0; stroke: #000080; stroke-width: 1.5"/>
     <use xlink:href="#m0c2482a75d" x="83.678349" y="272.635945" style="fill-opacity: 0; stroke: #000080; stroke-width: 1.5"/>
     <use xlink:href="#m0c2482a75d" x="360.8064" y="272.635945" style="fill-opacity: 0; stroke: #000080; stroke-width: 1.5"/>
    </g>
   </g>
   <g id="line2d_37">
    <path style="fill: none; stroke: #000080; stroke-width: 1.5; stroke-linecap: square"/>
    <g/>
   </g>
   <g id="line2d_38">
    <path d="M 83.678349 272.635945 
" clip-path="url(#p86caf8207a)" style="fill: none; stroke: #000080; stroke-width: 1.5; stroke-linecap: square"/>
    <defs>
     <path id="m6dc4529a36" d="M -12 12 
L 12 -12 
M -12 -12 
L 12 12 
" style="stroke: #000080"/>
    </defs>
    <g clip-path="url(#p86caf8207a)">
     <use xlink:href="#m6dc4529a36" x="83.678349" y="272.635945" style="fill: #000080; stroke: #000080"/>
    </g>
   </g>
   <g id="line2d_39">
    <defs>
     <path id="m645fca3676" d="M 0 1.5 
C 0.397805 1.5 0.77937 1.341951 1.06066 1.06066 
C 1.341951 0.77937 1.5 0.397805 1.5 0 
C 1.5 -0.397805 1.341951 -0.77937 1.06066 -1.06066 
C 0.77937 -1.341951 0.397805 -1.5 0 -1.5 
C -0.397805 -1.5 -0.77937 -1.341951 -1.06066 -1.06066 
C -1.341951 -0.77937 -1.5 -0.397805 -1.5 0 
C -1.5 0.397805 -1.341951 0.77937 -1.06066 1.06066 
C -0.77937 1.341951 -0.397805 1.5 0 1.5 
z
" style="stroke: #ff00ff"/>
    </defs>
    <g>
     <use xlink:href="#m645fca3676" x="273.860533" y="60.786869" style="fill: #ff00ff; stroke: #ff00ff"/>
     <use xlink:href="#m645fca3676" x="273.860533" y="60.786869" style="fill: #ff00ff; stroke: #ff00ff"/>
    </g>
   </g>
   <g id="line2d_40">
    <path d="M 44.560826 298.944 
L 44.560826 289.251559 
L 57.6 289.251559 
L 57.6 286.104662 
L 65.227428 286.104662 
L 65.227428 284.216524 
L 70.639174 284.216524 
L 70.639174 282.454262 
L 74.836851 282.454262 
L 74.836851 281.069628 
L 78.266603 281.069628 
L 78.266603 279.684993 
L 81.166416 279.684993 
L 81.166416 277.670979 
L 83.678349 277.670979 
L 83.678349 276.034593 
L 85.894031 276.034593 
L 85.894031 274.649959 
L 87.876026 274.649959 
L 87.876026 273.768828 
L 89.668958 273.768828 
L 89.668958 273.013572 
L 91.305777 273.013572 
L 91.305777 272.887697 
L 92.811505 272.887697 
L 92.811505 272.258317 
L 94.205591 272.258317 
L 94.205591 271.503062 
L 95.503454 271.503062 
L 95.503454 269.866676 
L 96.717523 269.866676 
L 96.717523 269.363172 
L 97.857967 269.363172 
L 97.857967 269.237297 
L 98.933205 269.237297 
L 98.933205 268.482041 
L 99.950294 268.482041 
L 99.950294 267.726786 
L 100.9152 267.726786 
L 100.9152 266.845655 
L 101.833019 266.845655 
L 101.833019 265.838648 
L 104.344952 265.838648 
L 104.344952 265.586897 
L 105.112877 265.586897 
L 105.112877 264.57989 
L 105.850679 264.57989 
L 105.850679 264.076386 
L 106.560633 264.076386 
L 106.560633 263.824634 
L 107.244765 263.824634 
L 107.244765 263.447007 
L 107.904887 263.447007 
L 107.904887 263.069379 
L 108.542628 263.069379 
L 108.542628 262.44 
L 109.159456 262.44 
L 109.159456 261.558869 
L 110.897141 261.558869 
L 110.897141 260.803614 
L 111.442442 260.803614 
L 111.442442 260.30011 
L 111.97238 260.30011 
L 111.97238 259.796607 
L 112.487797 259.796607 
L 112.487797 259.293103 
L 113.478107 259.293103 
L 113.478107 259.167228 
L 113.954374 259.167228 
L 113.954374 259.041352 
L 114.418881 259.041352 
L 114.418881 258.7896 
L 115.314838 258.7896 
L 115.314838 258.537848 
L 116.583514 258.537848 
L 116.583514 258.286097 
L 116.988079 258.286097 
L 116.988079 258.034345 
L 117.772007 258.034345 
L 117.772007 257.530841 
L 118.152051 257.530841 
L 118.152051 257.404966 
L 118.524569 257.404966 
L 118.524569 256.775586 
L 118.889854 256.775586 
L 118.889854 256.020331 
L 119.24818 256.020331 
L 119.24818 255.1392 
L 119.944983 255.1392 
L 119.944983 254.761572 
L 120.616896 254.761572 
L 120.616896 254.509821 
L 121.581803 254.509821 
L 121.581803 254.006317 
L 121.892744 254.006317 
L 121.892744 253.880441 
L 122.19863 253.880441 
L 122.19863 253.754566 
L 122.499621 253.754566 
L 122.499621 253.376938 
L 122.795872 253.376938 
L 122.795872 252.873434 
L 123.08753 252.873434 
L 123.08753 252.369931 
L 123.374735 252.369931 
L 123.374735 252.118179 
L 123.657621 252.118179 
L 123.657621 251.614676 
L 123.936316 251.614676 
L 123.936316 251.362924 
L 124.210942 251.362924 
L 124.210942 251.111172 
L 124.481616 251.111172 
L 124.481616 250.985297 
L 124.748451 250.985297 
L 124.748451 250.355917 
L 125.011554 250.355917 
L 125.011554 249.97829 
L 125.526971 249.97829 
L 125.526971 249.852414 
L 126.028642 249.852414 
L 126.028642 249.600662 
L 126.274549 249.600662 
L 126.274549 249.474786 
L 126.517282 249.474786 
L 126.517282 249.097159 
L 127.458055 249.097159 
L 127.458055 248.593655 
L 127.686077 248.593655 
L 127.686077 248.467779 
L 128.133992 248.467779 
L 128.133992 248.216028 
L 128.57149 248.216028 
L 128.57149 247.964276 
L 128.786481 247.964276 
L 128.786481 247.8384 
L 128.999044 247.8384 
L 128.999044 247.586648 
L 129.209231 247.586648 
L 129.209231 247.460772 
L 129.622688 247.460772 
L 129.622688 246.831393 
L 129.826058 246.831393 
L 129.826058 246.579641 
L 130.027253 246.579641 
L 130.027253 246.076138 
L 130.226319 246.076138 
L 130.226319 245.824386 
L 130.4233 245.824386 
L 130.4233 245.69851 
L 130.618241 245.69851 
L 130.618241 245.446759 
L 130.811181 245.446759 
L 130.811181 244.943255 
L 131.002163 244.943255 
L 131.002163 244.691503 
L 131.191226 244.691503 
L 131.191226 244.439752 
L 131.378407 244.439752 
L 131.378407 244.062124 
L 131.563744 244.062124 
L 131.563744 243.936248 
L 131.747272 243.936248 
L 131.747272 243.558621 
L 131.929028 243.558621 
L 131.929028 243.180993 
L 132.109044 243.180993 
L 132.109044 242.803366 
L 132.46399 242.803366 
L 132.46399 242.299862 
L 132.638982 242.299862 
L 132.638982 241.670483 
L 132.812362 241.670483 
L 132.812362 241.544607 
L 133.154399 241.544607 
L 133.154399 241.292855 
L 133.323114 241.292855 
L 133.323114 241.166979 
L 133.490329 241.166979 
L 133.490329 240.663476 
L 133.656071 240.663476 
L 133.656071 240.411724 
L 133.820365 240.411724 
L 133.820365 240.159972 
L 133.983236 240.159972 
L 133.983236 239.908221 
L 134.14471 239.908221 
L 134.14471 239.656469 
L 134.304809 239.656469 
L 134.304809 239.152966 
L 134.463557 239.152966 
L 134.463557 239.02709 
L 134.620977 239.02709 
L 134.620977 238.523586 
L 135.085483 238.523586 
L 135.085483 238.271834 
L 135.538796 238.271834 
L 135.538796 237.264828 
L 135.835047 237.264828 
L 135.835047 237.138952 
L 136.270855 237.138952 
L 136.270855 236.509572 
L 136.413909 236.509572 
L 136.413909 236.383697 
L 136.696795 236.383697 
L 136.696795 236.131945 
L 136.836659 236.131945 
L 136.836659 235.880193 
L 136.97549 235.880193 
L 136.97549 235.37669 
L 137.113304 235.37669 
L 137.113304 234.495559 
L 137.38594 234.495559 
L 137.38594 234.243807 
L 137.520791 234.243807 
L 137.520791 233.740303 
L 137.654681 233.740303 
L 137.654681 233.614428 
L 137.919637 233.614428 
L 137.919637 233.110924 
L 138.050729 233.110924 
L 138.050729 232.859172 
L 138.180913 232.859172 
L 138.180913 232.355669 
L 138.310202 232.355669 
L 138.310202 232.103917 
L 138.692823 232.103917 
L 138.692823 231.72629 
L 138.818654 231.72629 
L 138.818654 231.09691 
L 138.943648 231.09691 
L 138.943648 230.845159 
L 139.067817 230.845159 
L 139.067817 230.593407 
L 139.191172 230.593407 
L 139.191172 230.089903 
L 139.313723 230.089903 
L 139.313723 229.838152 
L 139.435481 229.838152 
L 139.435481 229.5864 
L 139.556456 229.5864 
L 139.556456 229.460524 
L 139.676658 229.460524 
L 139.676658 228.957021 
L 139.796097 228.957021 
L 139.796097 228.705269 
L 139.914782 228.705269 
L 139.914782 228.579393 
L 140.14993 228.579393 
L 140.14993 228.07589 
L 140.26641 228.07589 
L 140.26641 227.824138 
L 140.49723 227.824138 
L 140.49723 227.698262 
L 140.611586 227.698262 
L 140.611586 227.572386 
L 140.838234 227.572386 
L 140.838234 227.44651 
L 141.062184 227.44651 
L 141.173167 226.943007 
L 141.283499 226.943007 
L 141.283499 226.691255 
L 141.50224 226.691255 
L 141.610664 226.187752 
L 141.718467 226.187752 
L 141.825656 225.810124 
L 142.352625 225.810124 
L 142.45627 225.306621 
L 142.559347 225.306621 
L 142.559347 225.054869 
L 142.763822 225.054869 
L 142.865233 224.677241 
L 142.966099 224.677241 
L 143.066428 224.047862 
L 143.166224 224.047862 
L 143.166224 223.670234 
L 143.657415 223.670234 
L 143.754133 223.040855 
L 143.850356 223.040855 
L 143.850356 222.663228 
L 144.041338 222.663228 
L 144.041338 222.2856 
L 144.324223 222.2856 
L 144.417581 221.907972 
L 144.694906 221.907972 
L 144.786447 221.530345 
L 144.968202 221.530345 
L 144.968202 221.404469 
L 145.237585 221.404469 
L 145.237585 221.278593 
L 145.415054 221.278593 
L 145.415054 221.026841 
L 145.590864 221.026841 
L 145.590864 220.77509 
L 145.765046 220.77509 
L 145.765046 220.649214 
L 146.023332 220.649214 
L 146.023332 220.14571 
L 146.27812 220.14571 
L 146.362288 219.642207 
L 146.446082 219.642207 
L 146.529503 219.138703 
L 147.73837 219.138703 
L 147.816265 218.886952 
L 148.048032 218.886952 
L 148.048032 218.509324 
L 148.200973 218.509324 
L 148.276979 218.005821 
L 148.503173 218.005821 
L 148.503173 217.879945 
L 148.652472 217.879945 
L 148.726679 217.628193 
L 148.874221 217.628193 
L 148.947561 217.12469 
L 149.020615 217.12469 
L 149.020615 216.998814 
L 149.238092 216.998814 
L 149.31003 216.49531 
L 149.453084 216.49531 
L 149.453084 215.865931 
L 149.945377 215.865931 
L 149.945377 215.740055 
L 150.221009 215.740055 
L 150.221009 215.614179 
L 150.760445 215.614179 
L 150.8268 214.858924 
L 150.958812 214.858924 
L 151.024471 214.355421 
L 151.089903 214.355421 
L 151.089903 214.229545 
L 151.284843 214.229545 
L 151.284843 214.103669 
L 151.41369 214.103669 
L 151.41369 213.851917 
L 151.60532 213.851917 
L 151.60532 213.726041 
L 151.982822 213.726041 
L 152.045009 213.348414 
L 152.106991 213.348414 
L 152.106991 213.096662 
L 152.352898 213.096662 
L 152.352898 212.719034 
L 152.775647 212.719034 
L 152.775647 212.593159 
L 153.247435 212.593159 
L 153.247435 212.467283 
L 153.478964 212.467283 
L 153.478964 212.341407 
L 153.989717 212.341407 
L 153.989717 211.963779 
L 154.156931 211.963779 
L 154.156931 211.837903 
L 154.377597 211.837903 
L 154.377597 211.712028 
L 154.541415 211.712028 
L 154.541415 211.460276 
L 154.811312 211.460276 
L 154.811312 211.208524 
L 155.13016 211.208524 
L 155.13016 210.956772 
L 155.443693 210.956772 
L 155.495444 210.453269 
L 156.105602 210.453269 
L 156.105602 210.327393 
L 156.304668 210.327393 
L 156.304668 210.201517 
L 157.456756 210.201517 
L 157.456756 210.075641 
L 157.779907 210.075641 
L 157.779907 209.82389 
L 157.916719 209.82389 
L 157.916719 209.698014 
L 158.187393 209.698014 
L 158.187393 209.446262 
L 158.630038 209.446262 
L 158.630038 209.320386 
L 158.847515 209.320386 
L 158.933807 208.942759 
L 159.443406 208.942759 
L 159.485256 208.691007 
L 160.223059 208.691007 
L 160.303279 208.313379 
L 160.343261 208.313379 
L 160.343261 208.187503 
L 160.620781 208.187503 
L 160.699326 207.809876 
L 160.738476 207.809876 
L 160.738476 207.684 
L 160.933013 207.684 
L 160.933013 207.432248 
L 161.542347 207.432248 
L 161.542347 207.180497 
L 162.132562 207.180497 
L 162.168843 206.676993 
L 162.277267 206.676993 
L 162.277267 206.047614 
L 162.420867 206.047614 
L 162.420867 205.921738 
L 162.740015 205.921738 
L 162.740015 205.669986 
L 163.053839 205.669986 
L 163.053839 205.54411 
L 163.632702 205.54411 
L 163.699647 205.166483 
L 163.997986 205.166483 
L 163.997986 205.040607 
L 164.70794 205.040607 
L 164.70794 204.788855 
L 164.990826 204.788855 
L 164.990826 204.537103 
L 165.17708 204.537103 
L 165.17708 204.285352 
L 165.330896 204.285352 
L 165.330896 204.159476 
L 165.844657 204.159476 
L 165.844657 203.907724 
L 165.96353 203.907724 
L 166.022686 203.152469 
L 166.081656 203.152469 
L 166.081656 202.900717 
L 166.228279 202.900717 
L 166.228279 202.774841 
L 166.746854 202.774841 
L 166.746854 202.52309 
L 167.553385 202.52309 
L 167.553385 202.271338 
L 167.769923 202.271338 
L 167.769923 202.145462 
L 168.116567 202.145462 
L 168.195663 201.516083 
L 168.378936 201.516083 
L 168.378936 201.390207 
L 168.637696 201.390207 
L 168.740211 200.886703 
L 168.79126 200.886703 
L 168.867575 200.005572 
L 168.91828 200.005572 
L 168.943582 199.502069 
L 169.06958 199.502069 
L 169.169775 199.124441 
L 169.638546 199.124441 
L 169.638546 198.998566 
L 169.784185 198.998566 
L 169.784185 198.746814 
L 169.928705 198.746814 
L 169.928705 198.495062 
L 170.425955 198.495062 
L 170.425955 198.369186 
L 170.864796 198.369186 
L 170.955893 197.613931 
L 170.978599 197.613931 
L 170.978599 197.362179 
L 171.159263 197.362179 
L 171.159263 197.110428 
L 171.404878 197.110428 
L 171.404878 196.984552 
L 171.537509 196.984552 
L 171.537509 196.858676 
L 171.691074 196.858676 
L 171.778266 196.481048 
L 172.101681 196.481048 
L 172.101681 196.229297 
L 172.377547 196.229297 
L 172.461621 195.725793 
L 172.503517 195.725793 
L 172.503517 195.599917 
L 172.732295 195.599917 
L 172.732295 195.348166 
L 173.161475 195.348166 
L 173.161475 195.096414 
L 173.640268 195.096414 
L 173.7385 194.089407 
L 173.758086 194.089407 
L 173.758086 193.837655 
L 174.126381 193.837655 
L 174.126381 193.711779 
L 174.355328 193.711779 
L 174.431028 193.0824 
L 174.786503 193.0824 
L 174.786503 192.956524 
L 175.007602 192.956524 
L 175.02591 192.704772 
L 175.15357 192.704772 
L 175.15357 192.578897 
L 175.37042 192.578897 
L 175.424244 192.201269 
L 175.531433 192.201269 
L 175.567027 191.446014 
L 175.761601 191.446014 
L 175.761601 191.320138 
L 175.936756 191.320138 
L 176.041072 190.564883 
L 176.093013 190.564883 
L 176.093013 190.439007 
L 176.247984 190.439007 
L 176.247984 190.187255 
L 176.36764 190.187255 
L 176.36764 190.061379 
L 176.520373 190.061379 
L 176.520373 189.809628 
L 176.772205 189.809628 
L 176.772205 189.557876 
L 176.921701 189.557876 
L 176.921701 189.432 
L 177.1192 189.432 
L 177.200883 188.928497 
L 177.379346 188.928497 
L 177.379346 188.802621 
L 177.572122 188.802621 
L 177.60406 188.424993 
L 177.699551 188.424993 
L 177.731273 188.173241 
L 177.889089 188.173241 
L 177.904798 187.795614 
L 178.061171 187.795614 
L 178.061171 187.543862 
L 178.231693 187.543862 
L 178.339408 186.788607 
L 178.385383 186.788607 
L 178.415971 186.536855 
L 178.704102 186.536855 
L 178.779198 186.033352 
L 178.83906 186.033352 
L 178.91362 185.278097 
L 179.208941 185.278097 
L 179.282053 184.900469 
L 179.514118 184.900469 
L 179.614753 184.27109 
L 179.657718 184.27109 
L 179.672018 183.893462 
L 179.800231 183.893462 
L 179.814423 183.264083 
L 180.026029 183.264083 
L 180.110009 182.886455 
L 180.137919 182.886455 
L 180.207514 182.634703 
L 180.497035 182.634703 
L 180.606166 181.753572 
L 180.660496 181.753572 
L 180.70114 181.250069 
L 180.876258 181.250069 
L 180.983218 180.62069 
L 181.142526 180.62069 
L 181.168947 180.368938 
L 181.35286 180.368938 
L 181.405079 180.117186 
L 181.470148 180.117186 
L 181.496113 179.865434 
L 181.638283 179.865434 
L 181.67687 179.361931 
L 181.817686 179.361931 
L 181.855908 179.110179 
L 181.944791 179.110179 
L 181.944791 178.984303 
L 182.083622 178.984303 
L 182.121308 178.606676 
L 182.233915 178.606676 
L 182.233915 178.229048 
L 182.420108 178.229048 
L 182.506372 177.725545 
L 182.567747 177.725545 
L 182.579998 176.97029 
L 182.811266 176.97029 
L 182.871656 176.34091 
L 182.931853 176.34091 
L 183.039725 175.711531 
L 183.194455 175.711531 
L 183.194455 175.585655 
L 183.418335 175.585655 
L 183.418335 175.459779 
L 183.546742 175.459779 
L 183.546742 175.333903 
L 183.697374 175.333903 
L 183.731965 175.082152 
L 183.835357 175.082152 
L 183.84681 174.8304 
L 183.995068 174.8304 
L 183.995068 174.704524 
L 184.142166 174.704524 
L 184.142166 174.452772 
L 184.254541 174.452772 
L 184.343961 174.201021 
L 184.45514 174.201021 
L 184.499429 173.949269 
L 184.642651 173.949269 
L 184.664589 173.697517 
L 184.762993 173.697517 
L 184.87173 173.068138 
L 184.925864 173.068138 
L 185.033667 172.816386 
L 185.119467 172.816386 
L 185.226169 172.312883 
L 185.342847 172.312883 
L 185.395644 171.557628 
L 185.458805 171.557628 
L 185.511278 171.18 
L 185.698978 171.18 
L 185.750786 170.550621 
L 185.91562 170.550621 
L 185.91562 170.424745 
L 186.028112 170.424745 
L 186.028112 170.172993 
L 186.150067 170.172993 
L 186.200649 169.165986 
L 186.301408 169.165986 
L 186.33153 168.788359 
L 186.521195 168.788359 
L 186.630133 168.410731 
L 186.679442 168.410731 
L 186.78747 167.5296 
L 186.816825 167.5296 
L 186.816825 167.403724 
L 187.088617 167.403724 
L 187.117506 166.900221 
L 187.261289 166.900221 
L 187.289914 166.522593 
L 187.422926 166.522593 
L 187.517361 166.01909 
L 187.676822 166.01909 
L 187.779287 165.641462 
L 187.797857 165.641462 
L 187.797857 165.515586 
L 188.17456 165.515586 
L 188.274356 165.137959 
L 188.373626 165.137959 
L 188.481326 164.508579 
L 188.606202 164.508579 
L 188.606202 164.382703 
L 188.730254 164.382703 
L 188.747909 163.8792 
L 188.853493 163.8792 
L 188.958488 163.249821 
L 188.967211 163.249821 
L 189.036852 162.998069 
L 189.11489 162.998069 
L 189.11489 162.872193 
L 189.287158 162.872193 
L 189.304298 162.494566 
L 189.415332 162.494566 
L 189.415332 162.242814 
L 189.669089 162.242814 
L 189.711051 161.865186 
L 189.952601 161.865186 
L 189.952601 161.73931 
L 190.141995 161.73931 
L 190.158374 160.984055 
L 190.264493 160.984055 
L 190.321387 160.606428 
L 190.394284 160.606428 
L 190.418521 160.102924 
L 190.730786 160.102924 
L 190.738725 159.725297 
L 190.951822 159.725297 
L 191.037952 159.347669 
L 191.12369 159.347669 
L 191.1858 159.095917 
L 191.239978 159.095917 
L 191.255429 158.71829 
L 191.470421 158.71829 
L 191.554214 158.08891 
L 191.660323 158.08891 
L 191.660323 157.963034 
L 191.780862 157.963034 
L 191.825866 157.711283 
L 192.07148 157.711283 
L 192.130543 156.956028 
L 192.240789 156.956028 
L 192.240789 156.830152 
L 192.632408 156.830152 
L 192.632408 156.704276 
L 192.903185 156.704276 
L 193.001971 156.326648 
L 193.016041 156.326648 
L 193.072216 156.074897 
L 193.253634 156.074897 
L 193.364413 155.823145 
L 193.371315 155.823145 
L 193.419559 155.445517 
L 193.955614 155.445517 
L 193.955614 155.319641 
L 194.122118 155.319641 
L 194.148623 155.06789 
L 194.333116 155.06789 
L 194.437734 154.690262 
L 194.476816 154.690262 
L 194.567693 154.060883 
L 194.786584 154.060883 
L 194.786584 153.935007 
L 194.914164 153.935007 
L 194.964955 153.683255 
L 195.668098 153.683255 
L 195.668098 153.557379 
L 195.814113 153.557379 
L 195.856488 153.305628 
L 196.239556 153.305628 
L 196.322322 153.053876 
L 196.533492 153.053876 
L 196.550983 152.802124 
L 196.684543 152.802124 
L 196.684543 152.550372 
L 197.096617 152.550372 
L 197.113592 152.172745 
L 197.209498 152.172745 
L 197.209498 152.046869 
L 197.327298 152.046869 
L 197.405424 151.669241 
L 197.455477 151.669241 
L 197.455477 151.543366 
L 197.965039 151.543366 
L 198.029795 151.291614 
L 198.105062 151.291614 
L 198.105062 151.165738 
L 198.260023 151.165738 
L 198.350272 150.78811 
L 198.675794 150.78811 
L 198.675794 150.662234 
L 198.789961 150.662234 
L 198.826142 150.284607 
L 198.959923 150.284607 
L 198.985541 150.032855 
L 199.629766 150.032855 
L 199.629766 149.906979 
L 199.74814 149.906979 
L 199.792339 149.655228 
L 199.94379 149.655228 
L 199.94379 149.529352 
L 200.509377 149.529352 
L 200.509377 149.403476 
L 200.785919 149.403476 
L 200.795223 149.025848 
L 201.349689 149.025848 
L 201.448769 148.774097 
L 201.685339 148.774097 
L 201.765012 148.018841 
L 201.918971 148.018841 
L 201.918971 147.892966 
L 202.175684 147.892966 
L 202.201596 147.389462 
L 202.458764 147.389462 
L 202.458764 147.13771 
L 202.581813 147.13771 
L 202.657785 146.760083 
L 202.699859 146.760083 
L 202.699859 146.634207 
L 202.833869 146.634207 
L 202.921297 145.878952 
L 203.453658 145.878952 
L 203.453658 145.6272 
L 203.76599 145.6272 
L 203.797733 145.123697 
L 203.987072 145.123697 
L 203.987072 144.871945 
L 204.155086 144.871945 
L 204.155086 144.746069 
L 204.325468 144.746069 
L 204.325468 144.620193 
L 204.509595 144.620193 
L 204.509595 144.494317 
L 204.646518 144.494317 
L 204.646518 144.368441 
L 204.831298 144.368441 
L 204.831298 144.11669 
L 205.520254 144.11669 
L 205.520254 143.990814 
L 205.746793 143.990814 
L 205.839496 143.361434 
L 205.87148 143.361434 
L 205.87148 143.235559 
L 205.988289 143.235559 
L 205.988289 143.109683 
L 206.181374 143.109683 
L 206.181374 142.857931 
L 206.355202 142.857931 
L 206.355202 142.606179 
L 206.513717 142.606179 
L 206.585642 142.354428 
L 206.65048 142.354428 
L 206.721884 141.9768 
L 206.796398 141.9768 
L 206.796398 141.850924 
L 206.90762 141.850924 
L 206.998133 141.473297 
L 207.313186 141.473297 
L 207.401773 141.095669 
L 207.512737 141.095669 
L 207.512737 140.969793 
L 207.841754 140.969793 
L 207.927892 140.46629 
L 207.953338 140.46629 
L 208.061105 140.214538 
L 208.092684 140.214538 
L 208.19652 139.711034 
L 208.798664 139.711034 
L 208.798664 139.585159 
L 208.95302 139.585159 
L 208.95302 139.333407 
L 209.073202 139.333407 
L 209.073202 139.207531 
L 209.382131 139.207531 
L 209.482036 138.955779 
L 209.578499 138.955779 
L 209.607632 138.578152 
L 209.761291 138.578152 
L 209.781493 138.200524 
L 210.084773 138.200524 
L 210.13296 137.948772 
L 210.36088 137.948772 
L 210.411155 137.571145 
L 210.630236 137.571145 
L 210.712767 136.564138 
L 211.085123 136.564138 
L 211.176403 136.312386 
L 211.221877 136.312386 
L 211.267241 135.808883 
L 211.376201 135.808883 
L 211.376201 135.683007 
L 211.539781 135.683007 
L 211.573901 135.305379 
L 211.688924 135.305379 
L 211.790292 134.801876 
L 211.88596 134.801876 
L 211.970877 134.424248 
L 212.04007 134.424248 
L 212.142113 133.417241 
L 212.329445 133.417241 
L 212.329445 133.291366 
L 212.659042 133.291366 
L 212.762715 132.913738 
L 212.846224 132.913738 
L 212.919601 132.53611 
L 213.055812 132.53611 
L 213.055812 132.284359 
L 213.310969 132.284359 
L 213.310969 132.032607 
L 213.482331 132.032607 
L 213.489437 131.780855 
L 213.98955 131.780855 
L 213.98955 131.654979 
L 214.348181 131.654979 
L 214.449725 131.403228 
L 214.532808 131.403228 
L 214.619986 131.0256 
L 214.646729 131.0256 
L 214.7356 130.144469 
L 214.79756 130.144469 
L 214.79756 130.018593 
L 215.034656 130.018593 
L 215.034656 129.766841 
L 215.331179 129.766841 
L 215.331179 129.640966 
L 215.536212 129.640966 
L 215.536212 129.51509 
L 215.703276 129.51509 
L 215.755837 129.137462 
L 216.004034 129.137462 
L 216.004034 129.011586 
L 216.2101 129.011586 
L 216.2101 128.88571 
L 216.322481 128.88571 
L 216.322481 128.759834 
L 216.717594 128.759834 
L 216.787285 128.382207 
L 216.860679 128.382207 
L 216.937731 128.130455 
L 216.994822 128.130455 
L 217.073286 127.752828 
L 217.172854 127.752828 
L 217.275772 127.3752 
L 217.356931 127.3752 
L 217.364642 126.997572 
L 217.537315 126.997572 
L 217.577378 126.494069 
L 217.664838 126.494069 
L 217.664838 126.116441 
L 217.868596 126.116441 
L 217.868596 125.86469 
L 218.034864 125.86469 
L 218.034864 125.738814 
L 218.240194 125.738814 
L 218.304476 125.361186 
L 218.436026 125.361186 
L 218.541331 124.857683 
L 218.734069 124.857683 
L 218.773453 124.354179 
L 219.097906 124.354179 
L 219.097906 124.228303 
L 219.321564 124.228303 
L 219.427223 123.976552 
L 219.640193 123.976552 
L 219.701574 123.221297 
L 219.864284 123.221297 
L 219.973658 122.843669 
L 220.055692 122.843669 
L 220.055692 122.717793 
L 220.327679 122.717793 
L 220.327679 122.591917 
L 220.52749 122.591917 
L 220.597412 122.21429 
L 220.660606 122.21429 
L 220.754196 121.710786 
L 220.842518 121.710786 
L 220.947958 121.207283 
L 220.982974 121.207283 
L 220.982974 121.081407 
L 221.186994 121.081407 
L 221.249809 120.577903 
L 221.514458 120.577903 
L 221.546893 120.200276 
L 221.729643 120.200276 
L 221.743392 119.948524 
L 221.93786 119.948524 
L 221.983149 119.570897 
L 222.052381 119.570897 
L 222.128842 118.815641 
L 222.224355 118.815641 
L 222.224355 118.56389 
L 222.497751 118.56389 
L 222.546105 118.060386 
L 222.649718 118.060386 
L 222.745525 117.179255 
L 222.786023 117.179255 
L 222.896947 116.549876 
L 222.974349 116.549876 
L 223.077059 116.172248 
L 223.148056 116.172248 
L 223.213139 115.920497 
L 223.276589 115.920497 
L 223.360857 115.668745 
L 223.44196 115.668745 
L 223.549093 115.165241 
L 223.556029 115.165241 
L 223.64596 114.661738 
L 223.736837 114.661738 
L 223.736837 114.409986 
L 223.891418 114.409986 
L 223.891418 114.158234 
L 224.023106 114.158234 
L 224.121606 113.780607 
L 224.157908 113.780607 
L 224.241003 113.402979 
L 224.382223 113.402979 
L 224.440533 113.151228 
L 224.627491 113.151228 
L 224.682435 112.899476 
L 224.856665 112.899476 
L 224.856665 112.647724 
L 225.076686 112.647724 
L 225.076686 112.521848 
L 225.247319 112.521848 
L 225.276452 112.144221 
L 225.522901 112.144221 
L 225.631267 111.640717 
L 225.685837 111.640717 
L 225.724189 111.137214 
L 225.855967 111.137214 
L 225.897648 110.885462 
L 225.983171 110.885462 
L 225.983171 110.759586 
L 226.115575 110.759586 
L 226.115575 110.507834 
L 226.334596 110.507834 
L 226.437209 109.878455 
L 226.795513 109.878455 
L 226.877059 109.500828 
L 227.013728 109.500828 
L 227.089739 109.1232 
L 227.20661 109.1232 
L 227.301178 108.619697 
L 227.439324 108.619697 
L 227.439324 108.367945 
L 227.567501 108.367945 
L 227.631263 107.864441 
L 227.709273 107.864441 
L 227.778098 107.486814 
L 228.14025 107.486814 
L 228.14025 107.360938 
L 228.531791 107.360938 
L 228.531791 107.235062 
L 228.721385 107.235062 
L 228.721385 106.98331 
L 229.121779 106.98331 
L 229.176379 106.731559 
L 229.261566 106.731559 
L 229.294307 106.479807 
L 229.413532 106.479807 
L 229.413532 106.228055 
L 229.614598 106.228055 
L 229.708831 105.850428 
L 229.853272 105.850428 
L 229.853272 105.598676 
L 230.184748 105.598676 
L 230.291693 105.095172 
L 230.409598 105.095172 
L 230.511443 104.843421 
L 230.607021 104.843421 
L 230.686933 104.465793 
L 230.769342 104.465793 
L 230.8608 103.96229 
L 231.003227 103.96229 
L 231.112129 103.33291 
L 231.145511 103.33291 
L 231.172359 103.081159 
L 231.445134 103.081159 
L 231.445134 102.955283 
L 231.567828 102.955283 
L 231.583221 102.703531 
L 231.822461 102.703531 
L 231.822461 102.577655 
L 232.055166 102.577655 
L 232.055166 102.451779 
L 232.198501 102.451779 
L 232.244873 102.200028 
L 232.346838 102.200028 
L 232.415374 101.696524 
L 232.482799 101.696524 
L 232.592066 101.067145 
L 232.716049 101.067145 
L 232.716049 100.941269 
L 232.938022 100.941269 
L 232.993528 100.563641 
L 233.075646 100.563641 
L 233.164897 99.68251 
L 233.228034 99.68251 
L 233.228034 99.430759 
L 233.351205 99.430759 
L 233.461291 98.927255 
L 233.478485 98.927255 
L 233.478485 98.675503 
L 233.644701 98.675503 
L 233.749054 98.172 
L 233.955243 98.172 
L 233.955243 97.920248 
L 234.107822 97.920248 
L 234.215941 97.668497 
L 234.777985 97.668497 
L 234.777985 97.542621 
L 235.028354 97.542621 
L 235.095311 97.039117 
L 235.164276 97.039117 
L 235.164276 96.787366 
L 235.292535 96.787366 
L 235.292535 96.66149 
L 235.416235 96.66149 
L 235.495066 96.283862 
L 235.637887 96.283862 
L 235.677246 96.03211 
L 235.858399 96.03211 
L 235.870655 95.780359 
L 235.992055 95.780359 
L 236.009231 95.528607 
L 236.116944 95.528607 
L 236.116944 95.402731 
L 236.262197 95.402731 
L 236.365668 94.899228 
L 236.486715 94.899228 
L 236.533386 94.5216 
L 236.905372 94.5216 
L 236.937403 93.892221 
L 237.078508 93.892221 
L 237.117666 93.514593 
L 237.273489 93.514593 
L 237.342258 93.01109 
L 237.486984 93.01109 
L 237.564859 92.759338 
L 237.701351 92.759338 
L 237.701351 92.507586 
L 237.825172 92.507586 
L 237.825172 92.38171 
L 237.947538 92.38171 
L 237.963664 92.129959 
L 238.351663 92.129959 
L 238.351663 92.004083 
L 238.687822 92.004083 
L 238.687822 91.878207 
L 239.113549 91.878207 
L 239.113549 91.626455 
L 239.440056 91.626455 
L 239.547052 91.248828 
L 239.651674 91.248828 
L 239.682888 90.997076 
L 239.953975 90.997076 
L 239.953975 90.745324 
L 240.576957 90.745324 
L 240.603313 90.367697 
L 240.715054 90.367697 
L 240.789551 89.738317 
L 240.87867 89.738317 
L 240.87867 89.612441 
L 241.058386 89.612441 
L 241.156585 89.234814 
L 241.25698 89.234814 
L 241.315343 88.983062 
L 241.457248 88.983062 
L 241.532602 88.73131 
L 241.57948 88.73131 
L 241.57948 88.605434 
L 241.802142 88.605434 
L 241.833137 88.227807 
L 242.174361 88.227807 
L 242.174361 88.101931 
L 242.291522 88.101931 
L 242.367696 87.724303 
L 242.433905 87.724303 
L 242.433905 87.472552 
L 242.634165 87.472552 
L 242.718483 87.094924 
L 243.007205 87.094924 
L 243.007205 86.843172 
L 243.133029 86.843172 
L 243.133029 86.591421 
L 243.840153 86.591421 
L 243.840153 86.465545 
L 244.334634 86.465545 
L 244.418086 85.962041 
L 244.788658 85.962041 
L 244.813314 85.584414 
L 244.979236 85.584414 
L 245.027134 85.332662 
L 245.322894 85.332662 
L 245.344683 84.829159 
L 245.651819 84.829159 
L 245.651819 84.577407 
L 245.921526 84.577407 
L 245.92406 84.199779 
L 246.042358 84.199779 
L 246.042358 83.948028 
L 246.299112 83.948028 
L 246.299112 83.696276 
L 246.657087 83.696276 
L 246.71265 83.318648 
L 246.868727 83.318648 
L 246.868727 83.192772 
L 247.023519 83.192772 
L 247.023519 82.941021 
L 247.179814 82.941021 
L 247.179814 82.689269 
L 247.337954 82.689269 
L 247.395451 82.311641 
L 248.00487 82.311641 
L 248.00487 82.185766 
L 248.129979 82.185766 
L 248.129979 82.05989 
L 248.290047 82.05989 
L 248.290047 81.934014 
L 248.822788 81.934014 
L 248.867623 81.304634 
L 248.965598 81.304634 
L 248.965598 81.178759 
L 249.270643 81.178759 
L 249.329231 80.801131 
L 249.697029 80.801131 
L 249.697029 80.675255 
L 250.002096 80.675255 
L 250.002096 80.549379 
L 250.455594 80.549379 
L 250.455594 80.423503 
L 250.918829 80.423503 
L 251.018629 79.92 
L 251.266949 79.92 
L 251.266949 79.668248 
L 251.397784 79.668248 
L 251.43626 79.290621 
L 251.736301 79.290621 
L 251.842045 78.912993 
L 251.917433 78.912993 
L 251.975997 78.535366 
L 252.406064 78.535366 
L 252.406064 78.40949 
L 252.784631 78.40949 
L 252.802511 77.78011 
L 253.077646 77.78011 
L 253.133288 77.528359 
L 253.261528 77.528359 
L 253.357067 77.150731 
L 253.405365 77.150731 
L 253.405365 77.024855 
L 253.72524 77.024855 
L 253.72524 76.898979 
L 254.035925 76.898979 
L 254.035925 76.773103 
L 254.180518 76.773103 
L 254.232724 76.395476 
L 254.404629 76.395476 
L 254.495887 75.891972 
L 254.532267 75.891972 
L 254.532267 75.640221 
L 254.712589 75.640221 
L 254.712589 75.514345 
L 255.119744 75.514345 
L 255.119744 75.388469 
L 255.284279 75.388469 
L 255.284279 75.262593 
L 255.552478 75.262593 
L 255.552478 75.010841 
L 255.842597 75.010841 
L 255.863025 74.507338 
L 256.07693 74.507338 
L 256.07693 74.255586 
L 256.364952 74.255586 
L 256.364952 74.12971 
L 256.536056 74.12971 
L 256.536056 74.003834 
L 257.095806 74.003834 
L 257.15541 73.752083 
L 257.676951 73.752083 
L 257.756146 73.122703 
L 257.951237 73.122703 
L 257.951237 72.870952 
L 258.13506 72.870952 
L 258.13506 72.6192 
L 258.309672 72.6192 
L 258.391695 72.241572 
L 258.466642 72.241572 
L 258.466642 72.115697 
L 259.092021 72.115697 
L 259.097473 71.612193 
L 259.509307 71.612193 
L 259.568084 71.360441 
L 259.848164 71.360441 
L 259.931984 71.10869 
L 260.011637 71.10869 
L 260.058909 70.731062 
L 260.350276 70.731062 
L 260.350276 70.605186 
L 260.498371 70.605186 
L 260.498371 70.47931 
L 260.882284 70.47931 
L 260.955172 70.101683 
L 261.593622 70.101683 
L 261.658505 69.849931 
L 261.835155 69.849931 
L 261.835155 69.598179 
L 262.002617 69.598179 
L 262.002617 69.472303 
L 262.33384 69.472303 
L 262.33384 69.220552 
L 263.149759 69.220552 
L 263.149759 68.9688 
L 263.320375 68.9688 
L 263.392596 68.591172 
L 263.805672 68.591172 
L 263.913586 68.087669 
L 263.943912 68.087669 
L 263.943912 67.961793 
L 264.157237 67.961793 
L 264.165726 67.584166 
L 264.625428 67.584166 
L 264.625428 67.45829 
L 265.098714 67.45829 
L 265.098714 67.206538 
L 265.748581 67.206538 
L 265.748581 66.954786 
L 266.041892 66.954786 
L 266.041892 66.703034 
L 266.295413 66.703034 
L 266.295413 66.451283 
L 266.59967 66.451283 
L 266.59967 66.325407 
L 267.09416 66.325407 
L 267.153274 65.947779 
L 267.225818 65.947779 
L 267.225818 65.696028 
L 267.366424 65.696028 
L 267.406097 65.3184 
L 267.591073 65.3184 
L 267.591073 65.192524 
L 267.729516 65.192524 
L 267.729516 65.066648 
L 267.878913 65.066648 
L 267.878913 64.940772 
L 268.874417 64.940772 
L 268.874417 64.814897 
L 269.098988 64.814897 
L 269.098988 64.689021 
L 269.377925 64.689021 
L 269.389817 64.311393 
L 269.59288 64.311393 
L 269.59288 64.185517 
L 269.808134 64.185517 
L 269.808134 64.059641 
L 270.09775 64.059641 
L 270.09775 63.933766 
L 270.255621 63.933766 
L 270.255621 63.80789 
L 270.626376 63.80789 
L 270.626376 63.682014 
L 270.795208 63.682014 
L 270.887406 63.304386 
L 271.130824 63.304386 
L 271.228109 62.926759 
L 271.306057 62.926759 
L 271.306057 62.675007 
L 271.595792 62.675007 
L 271.595792 62.549131 
L 271.732845 62.549131 
L 271.743981 62.171503 
L 272.281172 62.171503 
L 272.281172 62.045628 
L 272.671048 62.045628 
L 272.755835 61.290372 
L 273.412581 61.290372 
L 273.412581 61.164497 
L 273.580797 61.164497 
L 273.580797 61.038621 
L 273.783859 61.038621 
L 273.860533 60.786869 
L 360.8064 60.786869 
L 360.8064 60.786869 
" style="fill: none; stroke: #ff00ff; stroke-width: 1.5; stroke-linecap: square"/>
   </g>
   <g id="line2d_41">
    <defs>
     <path id="ma8bc9c4c84" d="M 0 8.485281 
L 5.091169 0 
L 0 -8.485281 
L -5.091169 0 
z
" style="stroke: #ff00ff; stroke-width: 1.5; stroke-linejoin: miter"/>
    </defs>
    <g>
     <use xlink:href="#ma8bc9c4c84" x="132.109044" y="243.180993" style="fill-opacity: 0; stroke: #ff00ff; stroke-width: 1.5; stroke-linejoin: miter"/>
     <use xlink:href="#ma8bc9c4c84" x="204.155086" y="144.871945" style="fill-opacity: 0; stroke: #ff00ff; stroke-width: 1.5; stroke-linejoin: miter"/>
     <use xlink:href="#ma8bc9c4c84" x="262.33384" y="69.472303" style="fill-opacity: 0; stroke: #ff00ff; stroke-width: 1.5; stroke-linejoin: miter"/>
     <use xlink:href="#ma8bc9c4c84" x="273.860533" y="60.786869" style="fill-opacity: 0; stroke: #ff00ff; stroke-width: 1.5; stroke-linejoin: miter"/>
     <use xlink:href="#ma8bc9c4c84" x="273.860533" y="60.786869" style="fill-opacity: 0; stroke: #ff00ff; stroke-width: 1.5; stroke-linejoin: miter"/>
     <use xlink:href="#ma8bc9c4c84" x="360.8064" y="60.786869" style="fill-opacity: 0; stroke: #ff00ff; stroke-width: 1.5; stroke-linejoin: miter"/>
    </g>
   </g>
   <g id="line2d_42">
    <path style="fill: none; stroke: #ff00ff; stroke-width: 1.5; stroke-linecap: square"/>
    <g/>
   </g>
   <g id="line2d_43">
    <path d="M 274.176094 60.786869 
" clip-path="url(#p86caf8207a)" style="fill: none; stroke: #ff00ff; stroke-width: 1.5; stroke-linecap: square"/>
    <defs>
     <path id="m824f6ad4e8" d="M -12 12 
L 12 -12 
M -12 -12 
L 12 12 
" style="stroke: #ff00ff"/>
    </defs>
    <g clip-path="url(#p86caf8207a)">
     <use xlink:href="#m824f6ad4e8" x="274.176094" y="60.786869" style="fill: #ff00ff; stroke: #ff00ff"/>
    </g>
   </g>
   <g id="line2d_44">
    <defs>
     <path id="m439a40f70c" d="M 0 1.5 
C 0.397805 1.5 0.77937 1.341951 1.06066 1.06066 
C 1.341951 0.77937 1.5 0.397805 1.5 0 
C 1.5 -0.397805 1.341951 -0.77937 1.06066 -1.06066 
C 0.77937 -1.341951 0.397805 -1.5 0 -1.5 
C -0.397805 -1.5 -0.77937 -1.341951 -1.06066 -1.06066 
C -1.341951 -0.77937 -1.5 -0.397805 -1.5 0 
C -1.5 0.397805 -1.341951 0.77937 -1.06066 1.06066 
C -0.77937 1.341951 -0.397805 1.5 0 1.5 
z
" style="stroke: #ff7500"/>
    </defs>
    <g>
     <use xlink:href="#m439a40f70c" x="109.159456" y="293.78309" style="fill: #ff7500; stroke: #ff7500"/>
     <use xlink:href="#m439a40f70c" x="109.159456" y="293.78309" style="fill: #ff7500; stroke: #ff7500"/>
    </g>
   </g>
   <g id="line2d_45">
    <path d="M 44.560826 298.944 
L 44.560826 295.922979 
L 98.933205 295.922979 
L 98.933205 295.671228 
L 99.950294 295.671228 
L 99.950294 295.167724 
L 102.708132 295.167724 
L 102.708132 295.041848 
L 104.344952 295.041848 
L 104.344952 294.915972 
L 106.560633 294.915972 
L 106.560633 294.790097 
L 108.542628 294.790097 
L 108.542628 294.412469 
L 109.159456 294.412469 
L 109.159456 293.78309 
L 360.8064 293.78309 
" style="fill: none; stroke: #ff7500; stroke-width: 1.5; stroke-linecap: square"/>
   </g>
   <g id="line2d_46">
    <defs>
     <path id="m39bf15b783" d="M 0 -6 
L -1.347084 -1.854102 
L -5.706339 -1.854102 
L -2.179628 0.708204 
L -3.526712 4.854102 
L -0 2.291796 
L 3.526712 4.854102 
L 2.179628 0.708204 
L 5.706339 -1.854102 
L 1.347084 -1.854102 
z
" style="stroke: #ff7500; stroke-width: 1.5; stroke-linejoin: bevel"/>
    </defs>
    <g>
     <use xlink:href="#m39bf15b783" x="109.159456" y="294.412469" style="fill-opacity: 0; stroke: #ff7500; stroke-width: 1.5; stroke-linejoin: bevel"/>
     <use xlink:href="#m39bf15b783" x="109.159456" y="294.412469" style="fill-opacity: 0; stroke: #ff7500; stroke-width: 1.5; stroke-linejoin: bevel"/>
     <use xlink:href="#m39bf15b783" x="109.159456" y="293.78309" style="fill-opacity: 0; stroke: #ff7500; stroke-width: 1.5; stroke-linejoin: bevel"/>
     <use xlink:href="#m39bf15b783" x="109.159456" y="293.78309" style="fill-opacity: 0; stroke: #ff7500; stroke-width: 1.5; stroke-linejoin: bevel"/>
     <use xlink:href="#m39bf15b783" x="109.159456" y="293.78309" style="fill-opacity: 0; stroke: #ff7500; stroke-width: 1.5; stroke-linejoin: bevel"/>
     <use xlink:href="#m39bf15b783" x="360.8064" y="293.78309" style="fill-opacity: 0; stroke: #ff7500; stroke-width: 1.5; stroke-linejoin: bevel"/>
    </g>
   </g>
   <g id="line2d_47">
    <path style="fill: none; stroke: #ff7500; stroke-width: 1.5; stroke-linecap: square"/>
    <g/>
   </g>
   <g id="line2d_48">
    <path d="M 109.159456 293.78309 
" clip-path="url(#p86caf8207a)" style="fill: none; stroke: #ff7500; stroke-width: 1.5; stroke-linecap: square"/>
    <defs>
     <path id="m6bc287016e" d="M -12 12 
L 12 -12 
M -12 -12 
L 12 12 
" style="stroke: #ff7500"/>
    </defs>
    <g clip-path="url(#p86caf8207a)">
     <use xlink:href="#m6bc287016e" x="109.159456" y="293.78309" style="fill: #ff7500; stroke: #ff7500"/>
    </g>
   </g>
   <g id="line2d_49">
    <defs>
     <path id="m39c852e58d" d="M 0 1.5 
C 0.397805 1.5 0.77937 1.341951 1.06066 1.06066 
C 1.341951 0.77937 1.5 0.397805 1.5 0 
C 1.5 -0.397805 1.341951 -0.77937 1.06066 -1.06066 
C 0.77937 -1.341951 0.397805 -1.5 0 -1.5 
C -0.397805 -1.5 -0.77937 -1.341951 -1.06066 -1.06066 
C -1.341951 -0.77937 -1.5 -0.397805 -1.5 0 
C -1.5 0.397805 -1.341951 0.77937 -1.06066 1.06066 
C -0.77937 1.341951 -0.397805 1.5 0 1.5 
z
" style="stroke: #6495ed"/>
    </defs>
    <g>
     <use xlink:href="#m39c852e58d" x="113.954374" y="239.152966" style="fill: #6495ed; stroke: #6495ed"/>
     <use xlink:href="#m39c852e58d" x="113.954374" y="239.152966" style="fill: #6495ed; stroke: #6495ed"/>
    </g>
   </g>
   <g id="line2d_50">
    <path d="M 44.560826 298.944 
L 44.560826 292.146703 
L 57.6 292.146703 
L 57.6 289.50331 
L 65.227428 289.50331 
L 65.227428 287.237545 
L 70.639174 287.237545 
L 70.639174 286.104662 
L 74.836851 286.104662 
L 74.836851 284.216524 
L 78.266603 284.216524 
L 78.266603 282.20251 
L 81.166416 282.20251 
L 81.166416 280.062621 
L 83.678349 280.062621 
L 83.678349 278.929738 
L 85.894031 278.929738 
L 85.894031 277.419228 
L 87.876026 277.419228 
L 87.876026 276.789848 
L 89.668958 276.789848 
L 89.668958 275.53109 
L 91.305777 275.53109 
L 91.305777 274.524083 
L 92.811505 274.524083 
L 92.811505 273.768828 
L 94.205591 273.768828 
L 94.205591 272.258317 
L 95.503454 272.258317 
L 95.503454 271.88069 
L 96.717523 271.88069 
L 96.717523 270.496055 
L 97.857967 270.496055 
L 97.857967 269.866676 
L 99.950294 269.866676 
L 99.950294 268.482041 
L 100.9152 268.482041 
L 100.9152 267.349159 
L 101.833019 267.349159 
L 101.833019 266.342152 
L 102.708132 266.342152 
L 102.708132 265.083393 
L 103.544339 265.083393 
L 103.544339 262.062372 
L 104.344952 262.062372 
L 104.344952 258.663724 
L 105.112877 258.663724 
L 105.112877 256.397959 
L 105.850679 256.397959 
L 105.850679 255.265076 
L 106.560633 255.265076 
L 106.560633 252.747559 
L 107.244765 252.747559 
L 107.244765 251.4888 
L 107.904887 251.4888 
L 107.904887 250.733545 
L 108.542628 250.733545 
L 108.542628 248.341903 
L 109.159456 248.341903 
L 109.159456 247.209021 
L 109.756698 247.209021 
L 109.756698 246.579641 
L 110.335561 246.579641 
L 110.335561 245.320883 
L 110.897141 245.320883 
L 110.897141 244.062124 
L 111.442442 244.062124 
L 111.442442 243.306869 
L 111.97238 243.306869 
L 111.97238 242.425738 
L 112.487797 242.425738 
L 112.487797 241.670483 
L 112.989468 241.670483 
L 112.989468 240.285848 
L 113.478107 240.285848 
L 113.478107 239.404717 
L 113.954374 239.404717 
L 113.954374 239.152966 
L 360.8064 239.152966 
" style="fill: none; stroke: #6495ed; stroke-width: 1.5; stroke-linecap: square"/>
   </g>
   <g id="line2d_51">
    <defs>
     <path id="mdc1c1a02aa" d="M -0 6 
L 6 -6 
L -6 -6 
z
" style="stroke: #6495ed; stroke-width: 1.5; stroke-linejoin: miter"/>
    </defs>
    <g>
     <use xlink:href="#mdc1c1a02aa" x="92.811505" y="273.768828" style="fill-opacity: 0; stroke: #6495ed; stroke-width: 1.5; stroke-linejoin: miter"/>
     <use xlink:href="#mdc1c1a02aa" x="113.954374" y="239.404717" style="fill-opacity: 0; stroke: #6495ed; stroke-width: 1.5; stroke-linejoin: miter"/>
     <use xlink:href="#mdc1c1a02aa" x="113.954374" y="239.404717" style="fill-opacity: 0; stroke: #6495ed; stroke-width: 1.5; stroke-linejoin: miter"/>
     <use xlink:href="#mdc1c1a02aa" x="113.954374" y="239.152966" style="fill-opacity: 0; stroke: #6495ed; stroke-width: 1.5; stroke-linejoin: miter"/>
     <use xlink:href="#mdc1c1a02aa" x="113.954374" y="239.152966" style="fill-opacity: 0; stroke: #6495ed; stroke-width: 1.5; stroke-linejoin: miter"/>
     <use xlink:href="#mdc1c1a02aa" x="360.8064" y="239.152966" style="fill-opacity: 0; stroke: #6495ed; stroke-width: 1.5; stroke-linejoin: miter"/>
    </g>
   </g>
   <g id="line2d_52">
    <path style="fill: none; stroke: #6495ed; stroke-width: 1.5; stroke-linecap: square"/>
    <g/>
   </g>
   <g id="line2d_53">
    <path d="M 113.954374 239.152966 
" clip-path="url(#p86caf8207a)" style="fill: none; stroke: #6495ed; stroke-width: 1.5; stroke-linecap: square"/>
    <defs>
     <path id="m77fa41f800" d="M -12 12 
L 12 -12 
M -12 -12 
L 12 12 
" style="stroke: #6495ed"/>
    </defs>
    <g clip-path="url(#p86caf8207a)">
     <use xlink:href="#m77fa41f800" x="113.954374" y="239.152966" style="fill: #6495ed; stroke: #6495ed"/>
    </g>
   </g>
   <g id="line2d_54">
    <path d="M 360.8064 293.78309 
L 380.514816 293.10336 
" style="fill: none; stroke: #ff7500; stroke-width: 1.5; stroke-linecap: square"/>
    <g>
     <use xlink:href="#m39bf15b783" x="360.8064" y="293.78309" style="fill-opacity: 0; stroke: #ff7500; stroke-width: 1.5; stroke-linejoin: bevel"/>
     <use xlink:href="#m39bf15b783" x="380.514816" y="293.10336" style="fill-opacity: 0; stroke: #ff7500; stroke-width: 1.5; stroke-linejoin: bevel"/>
    </g>
   </g>
   <g id="line2d_55">
    <path d="M 360.8064 272.635945 
L 380.514816 223.01568 
" style="fill: none; stroke: #000080; stroke-width: 1.5; stroke-linecap: square"/>
    <g>
     <use xlink:href="#m0c2482a75d" x="360.8064" y="272.635945" style="fill-opacity: 0; stroke: #000080; stroke-width: 1.5"/>
     <use xlink:href="#m0c2482a75d" x="380.514816" y="223.01568" style="fill-opacity: 0; stroke: #000080; stroke-width: 1.5"/>
    </g>
   </g>
   <g id="line2d_56">
    <path d="M 360.8064 239.152966 
L 380.514816 152.928 
" style="fill: none; stroke: #6495ed; stroke-width: 1.5; stroke-linecap: square"/>
    <g>
     <use xlink:href="#mdc1c1a02aa" x="360.8064" y="239.152966" style="fill-opacity: 0; stroke: #6495ed; stroke-width: 1.5; stroke-linejoin: miter"/>
     <use xlink:href="#mdc1c1a02aa" x="380.514816" y="152.928" style="fill-opacity: 0; stroke: #6495ed; stroke-width: 1.5; stroke-linejoin: miter"/>
    </g>
   </g>
   <g id="line2d_57">
    <path d="M 360.8064 60.786869 
L 380.514816 82.84032 
" style="fill: none; stroke: #ff00ff; stroke-width: 1.5; stroke-linecap: square"/>
    <g>
     <use xlink:href="#ma8bc9c4c84" x="360.8064" y="60.786869" style="fill-opacity: 0; stroke: #ff00ff; stroke-width: 1.5; stroke-linejoin: miter"/>
     <use xlink:href="#ma8bc9c4c84" x="380.514816" y="82.84032" style="fill-opacity: 0; stroke: #ff00ff; stroke-width: 1.5; stroke-linejoin: miter"/>
    </g>
   </g>
   <g id="line2d_58">
    <path d="M 360.8064 298.944 
L 360.8064 6.912 
" style="fill: none; stroke: #000000; stroke-width: 1.5; stroke-linecap: square"/>
   </g>
   <g id="patch_3">
    <path d="M 57.6 298.944 
L 360.8064 298.944 
" style="fill: none; stroke: #000000; stroke-width: 0.8; stroke-linejoin: miter; stroke-linecap: square"/>
   </g>
   <g id="patch_4">
    <path d="M 57.6 6.912 
L 360.8064 6.912 
" style="fill: none; stroke: #000000; stroke-width: 0.8; stroke-linejoin: miter; stroke-linecap: square"/>
   </g>
   <g id="text_13">
    <!-- ego -->
    <g transform="translate(386.578944 296.966485)scale(0.14 -0.14)">
     <use xlink:href="#DejaVuSans-65"/>
     <use xlink:href="#DejaVuSans-67" x="61.523438"/>
     <use xlink:href="#DejaVuSans-6f" x="125"/>
    </g>
   </g>
   <g id="text_14">
    <!-- cma -->
    <g transform="translate(386.578944 226.878805)scale(0.14 -0.14)">
     <use xlink:href="#DejaVuSans-63"/>
     <use xlink:href="#DejaVuSans-6d" x="54.980469"/>
     <use xlink:href="#DejaVuSans-61" x="152.392578"/>
    </g>
   </g>
   <g id="text_15">
    <!-- parEgo -->
    <g transform="translate(386.578944 156.791125)scale(0.14 -0.14)">
     <defs>
      <path id="DejaVuSans-45" d="M 628 4666 
L 3578 4666 
L 3578 4134 
L 1259 4134 
L 1259 2753 
L 3481 2753 
L 3481 2222 
L 1259 2222 
L 1259 531 
L 3634 531 
L 3634 0 
L 628 0 
L 628 4666 
z
" transform="scale(0.015625)"/>
     </defs>
     <use xlink:href="#DejaVuSans-70"/>
     <use xlink:href="#DejaVuSans-61" x="63.476562"/>
     <use xlink:href="#DejaVuSans-72" x="124.755859"/>
     <use xlink:href="#DejaVuSans-45" x="165.869141"/>
     <use xlink:href="#DejaVuSans-67" x="229.052734"/>
     <use xlink:href="#DejaVuSans-6f" x="292.529297"/>
    </g>
   </g>
   <g id="text_16">
    <!-- external- -->
    <g transform="translate(386.578944 86.703445)scale(0.14 -0.14)">
     <defs>
      <path id="DejaVuSans-78" d="M 3513 3500 
L 2247 1797 
L 3578 0 
L 2900 0 
L 1881 1375 
L 863 0 
L 184 0 
L 1544 1831 
L 300 3500 
L 978 3500 
L 1906 2253 
L 2834 3500 
L 3513 3500 
z
" transform="scale(0.015625)"/>
     </defs>
     <use xlink:href="#DejaVuSans-65"/>
     <use xlink:href="#DejaVuSans-78" x="59.773438"/>
     <use xlink:href="#DejaVuSans-74" x="118.953125"/>
     <use xlink:href="#DejaVuSans-65" x="158.162109"/>
     <use xlink:href="#DejaVuSans-72" x="219.685547"/>
     <use xlink:href="#DejaVuSans-6e" x="259.048828"/>
     <use xlink:href="#DejaVuSans-61" x="322.427734"/>
     <use xlink:href="#DejaVuSans-6c" x="383.707031"/>
     <use xlink:href="#DejaVuSans-2d" x="411.490234"/>
    </g>
   </g>
   <g id="text_17">
    <!-- best 2016 -->
    <g transform="translate(386.578944 16.615765)scale(0.14 -0.14)">
     <defs>
      <path id="DejaVuSans-62" d="M 3116 1747 
Q 3116 2381 2855 2742 
Q 2594 3103 2138 3103 
Q 1681 3103 1420 2742 
Q 1159 2381 1159 1747 
Q 1159 1113 1420 752 
Q 1681 391 2138 391 
Q 2594 391 2855 752 
Q 3116 1113 3116 1747 
z
M 1159 2969 
Q 1341 3281 1617 3432 
Q 1894 3584 2278 3584 
Q 2916 3584 3314 3078 
Q 3713 2572 3713 1747 
Q 3713 922 3314 415 
Q 2916 -91 2278 -91 
Q 1894 -91 1617 61 
Q 1341 213 1159 525 
L 1159 0 
L 581 0 
L 581 4863 
L 1159 4863 
L 1159 2969 
z
" transform="scale(0.015625)"/>
     </defs>
     <use xlink:href="#DejaVuSans-62"/>
     <use xlink:href="#DejaVuSans-65" x="63.476562"/>
     <use xlink:href="#DejaVuSans-73" x="125"/>
     <use xlink:href="#DejaVuSans-74" x="177.099609"/>
     <use xlink:href="#DejaVuSans-20" x="216.308594"/>
     <use xlink:href="#DejaVuSans-32" x="248.095703"/>
     <use xlink:href="#DejaVuSans-30" x="311.71875"/>
     <use xlink:href="#DejaVuSans-31" x="375.341797"/>
     <use xlink:href="#DejaVuSans-36" x="438.964844"/>
    </g>
   </g>
   <g id="text_18">
    <!-- bbob-biobj f5, f6, f14, f15, 2-D -->
    <g transform="translate(60.632064 17.582726)scale(0.102 -0.102)">
     <defs>
      <path id="DejaVuSans-6a" d="M 603 3500 
L 1178 3500 
L 1178 -63 
Q 1178 -731 923 -1031 
Q 669 -1331 103 -1331 
L -116 -1331 
L -116 -844 
L 38 -844 
Q 366 -844 484 -692 
Q 603 -541 603 -63 
L 603 3500 
z
M 603 4863 
L 1178 4863 
L 1178 4134 
L 603 4134 
L 603 4863 
z
" transform="scale(0.015625)"/>
      <path id="DejaVuSans-35" d="M 691 4666 
L 3169 4666 
L 3169 4134 
L 1269 4134 
L 1269 2991 
Q 1406 3038 1543 3061 
Q 1681 3084 1819 3084 
Q 2600 3084 3056 2656 
Q 3513 2228 3513 1497 
Q 3513 744 3044 326 
Q 2575 -91 1722 -91 
Q 1428 -91 1123 -41 
Q 819 9 494 109 
L 494 744 
Q 775 591 1075 516 
Q 1375 441 1709 441 
Q 2250 441 2565 725 
Q 2881 1009 2881 1497 
Q 2881 1984 2565 2268 
Q 2250 2553 1709 2553 
Q 1456 2553 1204 2497 
Q 953 2441 691 2322 
L 691 4666 
z
" transform="scale(0.015625)"/>
      <path id="DejaVuSans-44" d="M 1259 4147 
L 1259 519 
L 2022 519 
Q 2988 519 3436 956 
Q 3884 1394 3884 2338 
Q 3884 3275 3436 3711 
Q 2988 4147 2022 4147 
L 1259 4147 
z
M 628 4666 
L 1925 4666 
Q 3281 4666 3915 4102 
Q 4550 3538 4550 2338 
Q 4550 1131 3912 565 
Q 3275 0 1925 0 
L 628 0 
L 628 4666 
z
" transform="scale(0.015625)"/>
     </defs>
     <use xlink:href="#DejaVuSans-62"/>
     <use xlink:href="#DejaVuSans-62" x="63.476562"/>
     <use xlink:href="#DejaVuSans-6f" x="126.953125"/>
     <use xlink:href="#DejaVuSans-62" x="188.134766"/>
     <use xlink:href="#DejaVuSans-2d" x="251.611328"/>
     <use xlink:href="#DejaVuSans-62" x="287.695312"/>
     <use xlink:href="#DejaVuSans-69" x="351.171875"/>
     <use xlink:href="#DejaVuSans-6f" x="378.955078"/>
     <use xlink:href="#DejaVuSans-62" x="440.136719"/>
     <use xlink:href="#DejaVuSans-6a" x="503.613281"/>
     <use xlink:href="#DejaVuSans-20" x="531.396484"/>
     <use xlink:href="#DejaVuSans-66" x="563.183594"/>
     <use xlink:href="#DejaVuSans-35" x="598.388672"/>
     <use xlink:href="#DejaVuSans-2c" x="662.011719"/>
     <use xlink:href="#DejaVuSans-20" x="693.798828"/>
     <use xlink:href="#DejaVuSans-66" x="725.585938"/>
     <use xlink:href="#DejaVuSans-36" x="760.791016"/>
     <use xlink:href="#DejaVuSans-2c" x="824.414062"/>
     <use xlink:href="#DejaVuSans-20" x="856.201172"/>
     <use xlink:href="#DejaVuSans-66" x="887.988281"/>
     <use xlink:href="#DejaVuSans-31" x="923.193359"/>
     <use xlink:href="#DejaVuSans-34" x="986.816406"/>
     <use xlink:href="#DejaVuSans-2c" x="1050.439453"/>
     <use xlink:href="#DejaVuSans-20" x="1082.226562"/>
     <use xlink:href="#DejaVuSans-66" x="1114.013672"/>
     <use xlink:href="#DejaVuSans-31" x="1149.21875"/>
     <use xlink:href="#DejaVuSans-35" x="1212.841797"/>
     <use xlink:href="#DejaVuSans-2c" x="1276.464844"/>
     <use xlink:href="#DejaVuSans-20" x="1308.251953"/>
     <use xlink:href="#DejaVuSans-32" x="1340.039062"/>
     <use xlink:href="#DejaVuSans-2d" x="1403.662109"/>
     <use xlink:href="#DejaVuSans-44" x="1439.746094"/>
    </g>
    <!-- 58 targets: 1..-1.0e-4 -->
    <g transform="translate(60.632064 29.004495)scale(0.102 -0.102)">
     <defs>
      <path id="DejaVuSans-3a" d="M 750 794 
L 1409 794 
L 1409 0 
L 750 0 
L 750 794 
z
M 750 3309 
L 1409 3309 
L 1409 2516 
L 750 2516 
L 750 3309 
z
" transform="scale(0.015625)"/>
     </defs>
     <use xlink:href="#DejaVuSans-35"/>
     <use xlink:href="#DejaVuSans-38" x="63.623047"/>
     <use xlink:href="#DejaVuSans-20" x="127.246094"/>
     <use xlink:href="#DejaVuSans-74" x="159.033203"/>
     <use xlink:href="#DejaVuSans-61" x="198.242188"/>
     <use xlink:href="#DejaVuSans-72" x="259.521484"/>
     <use xlink:href="#DejaVuSans-67" x="298.884766"/>
     <use xlink:href="#DejaVuSans-65" x="362.361328"/>
     <use xlink:href="#DejaVuSans-74" x="423.884766"/>
     <use xlink:href="#DejaVuSans-73" x="463.09375"/>
     <use xlink:href="#DejaVuSans-3a" x="515.193359"/>
     <use xlink:href="#DejaVuSans-20" x="548.884766"/>
     <use xlink:href="#DejaVuSans-31" x="580.671875"/>
     <use xlink:href="#DejaVuSans-2e" x="644.294922"/>
     <use xlink:href="#DejaVuSans-2e" x="676.082031"/>
     <use xlink:href="#DejaVuSans-2d" x="707.869141"/>
     <use xlink:href="#DejaVuSans-31" x="743.953125"/>
     <use xlink:href="#DejaVuSans-2e" x="807.576172"/>
     <use xlink:href="#DejaVuSans-30" x="839.363281"/>
     <use xlink:href="#DejaVuSans-65" x="902.986328"/>
     <use xlink:href="#DejaVuSans-2d" x="964.509766"/>
     <use xlink:href="#DejaVuSans-34" x="1000.59375"/>
    </g>
    <!-- 10 instances -->
    <g transform="translate(60.632064 40.426264)scale(0.102 -0.102)">
     <use xlink:href="#DejaVuSans-31"/>
     <use xlink:href="#DejaVuSans-30" x="63.623047"/>
     <use xlink:href="#DejaVuSans-20" x="127.246094"/>
     <use xlink:href="#DejaVuSans-69" x="159.033203"/>
     <use xlink:href="#DejaVuSans-6e" x="186.816406"/>
     <use xlink:href="#DejaVuSans-73" x="250.195312"/>
     <use xlink:href="#DejaVuSans-74" x="302.294922"/>
     <use xlink:href="#DejaVuSans-61" x="341.503906"/>
     <use xlink:href="#DejaVuSans-6e" x="402.783203"/>
     <use xlink:href="#DejaVuSans-63" x="466.162109"/>
     <use xlink:href="#DejaVuSans-65" x="521.142578"/>
     <use xlink:href="#DejaVuSans-73" x="582.666016"/>
    </g>
   </g>
   <g id="text_19">
    <!-- v2.6, hv-hash=ff0e71e8cd978373 -->
    <g style="fill: #808080" transform="translate(123.707887 293.943992)scale(0.1 -0.1)">
     <defs>
      <path id="DejaVuSans-68" d="M 3513 2113 
L 3513 0 
L 2938 0 
L 2938 2094 
Q 2938 2591 2744 2837 
Q 2550 3084 2163 3084 
Q 1697 3084 1428 2787 
Q 1159 2491 1159 1978 
L 1159 0 
L 581 0 
L 581 4863 
L 1159 4863 
L 1159 2956 
Q 1366 3272 1645 3428 
Q 1925 3584 2291 3584 
Q 2894 3584 3203 3211 
Q 3513 2838 3513 2113 
z
" transform="scale(0.015625)"/>
      <path id="DejaVuSans-3d" d="M 678 2906 
L 4684 2906 
L 4684 2381 
L 678 2381 
L 678 2906 
z
M 678 1631 
L 4684 1631 
L 4684 1100 
L 678 1100 
L 678 1631 
z
" transform="scale(0.015625)"/>
      <path id="DejaVuSans-37" d="M 525 4666 
L 3525 4666 
L 3525 4397 
L 1831 0 
L 1172 0 
L 2766 4134 
L 525 4134 
L 525 4666 
z
" transform="scale(0.015625)"/>
      <path id="DejaVuSans-39" d="M 703 97 
L 703 672 
Q 941 559 1184 500 
Q 1428 441 1663 441 
Q 2288 441 2617 861 
Q 2947 1281 2994 2138 
Q 2813 1869 2534 1725 
Q 2256 1581 1919 1581 
Q 1219 1581 811 2004 
Q 403 2428 403 3163 
Q 403 3881 828 4315 
Q 1253 4750 1959 4750 
Q 2769 4750 3195 4129 
Q 3622 3509 3622 2328 
Q 3622 1225 3098 567 
Q 2575 -91 1691 -91 
Q 1453 -91 1209 -44 
Q 966 3 703 97 
z
M 1959 2075 
Q 2384 2075 2632 2365 
Q 2881 2656 2881 3163 
Q 2881 3666 2632 3958 
Q 2384 4250 1959 4250 
Q 1534 4250 1286 3958 
Q 1038 3666 1038 3163 
Q 1038 2656 1286 2365 
Q 1534 2075 1959 2075 
z
" transform="scale(0.015625)"/>
      <path id="DejaVuSans-33" d="M 2597 2516 
Q 3050 2419 3304 2112 
Q 3559 1806 3559 1356 
Q 3559 666 3084 287 
Q 2609 -91 1734 -91 
Q 1441 -91 1130 -33 
Q 819 25 488 141 
L 488 750 
Q 750 597 1062 519 
Q 1375 441 1716 441 
Q 2309 441 2620 675 
Q 2931 909 2931 1356 
Q 2931 1769 2642 2001 
Q 2353 2234 1838 2234 
L 1294 2234 
L 1294 2753 
L 1863 2753 
Q 2328 2753 2575 2939 
Q 2822 3125 2822 3475 
Q 2822 3834 2567 4026 
Q 2313 4219 1838 4219 
Q 1578 4219 1281 4162 
Q 984 4106 628 3988 
L 628 4550 
Q 988 4650 1302 4700 
Q 1616 4750 1894 4750 
Q 2613 4750 3031 4423 
Q 3450 4097 3450 3541 
Q 3450 3153 3228 2886 
Q 3006 2619 2597 2516 
z
" transform="scale(0.015625)"/>
     </defs>
     <use xlink:href="#DejaVuSans-76"/>
     <use xlink:href="#DejaVuSans-32" x="59.179688"/>
     <use xlink:href="#DejaVuSans-2e" x="122.802734"/>
     <use xlink:href="#DejaVuSans-36" x="154.589844"/>
     <use xlink:href="#DejaVuSans-2c" x="218.212891"/>
     <use xlink:href="#DejaVuSans-20" x="250"/>
     <use xlink:href="#DejaVuSans-68" x="281.787109"/>
     <use xlink:href="#DejaVuSans-76" x="345.166016"/>
     <use xlink:href="#DejaVuSans-2d" x="401.720703"/>
     <use xlink:href="#DejaVuSans-68" x="437.804688"/>
     <use xlink:href="#DejaVuSans-61" x="501.183594"/>
     <use xlink:href="#DejaVuSans-73" x="562.462891"/>
     <use xlink:href="#DejaVuSans-68" x="614.5625"/>
     <use xlink:href="#DejaVuSans-3d" x="677.941406"/>
     <use xlink:href="#DejaVuSans-66" x="761.730469"/>
     <use xlink:href="#DejaVuSans-66" x="796.935547"/>
     <use xlink:href="#DejaVuSans-30" x="832.140625"/>
     <use xlink:href="#DejaVuSans-65" x="895.763672"/>
     <use xlink:href="#DejaVuSans-37" x="957.287109"/>
     <use xlink:href="#DejaVuSans-31" x="1020.910156"/>
     <use xlink:href="#DejaVuSans-65" x="1084.533203"/>
     <use xlink:href="#DejaVuSans-38" x="1146.056641"/>
     <use xlink:href="#DejaVuSans-63" x="1209.679688"/>
     <use xlink:href="#DejaVuSans-64" x="1264.660156"/>
     <use xlink:href="#DejaVuSans-39" x="1328.136719"/>
     <use xlink:href="#DejaVuSans-37" x="1391.759766"/>
     <use xlink:href="#DejaVuSans-38" x="1455.382812"/>
     <use xlink:href="#DejaVuSans-33" x="1519.005859"/>
     <use xlink:href="#DejaVuSans-37" x="1582.628906"/>
     <use xlink:href="#DejaVuSans-33" x="1646.251953"/>
    </g>
   </g>
  </g>
 </g>
 <defs>
  <clipPath id="p86caf8207a">
   <rect x="57.6" y="6.912" width="303.2064" height="292.032"/>
  </clipPath>
 </defs>
</svg>
