<?xml version="1.0" encoding="utf-8" standalone="no"?>
<!DOCTYPE svg PUBLIC "-//W3C//DTD SVG 1.1//EN"
  "http://www.w3.org/Graphics/SVG/1.1/DTD/svg11.dtd">
<svg xmlns:xlink="http://www.w3.org/1999/xlink" width="460.8pt" height="345.6pt" viewBox="0 0 460.8 345.6" xmlns="http://www.w3.org/2000/svg" version="1.1">
 <metadata>
  <rdf:RDF xmlns:dc="http://purl.org/dc/elements/1.1/" xmlns:cc="http://creativecommons.org/ns#" xmlns:rdf="http://www.w3.org/1999/02/22-rdf-syntax-ns#">
   <cc:Work>
    <dc:type rdf:resource="http://purl.org/dc/dcmitype/StillImage"/>
    <dc:date>2022-06-19T21:02:45.245917</dc:date>
    <dc:format>image/svg+xml</dc:format>
    <dc:creator>
     <cc:Agent>
      <dc:title>Matplotlib v3.5.1, https://matplotlib.org/</dc:title>
     </cc:Agent>
    </dc:creator>
   </cc:Work>
  </rdf:RDF>
 </metadata>
 <defs>
  <style type="text/css">*{stroke-linejoin: round; stroke-linecap: butt}</style>
 </defs>
 <g id="figure_1">
  <g id="patch_1">
   <path d="M 0 345.6 
L 460.8 345.6 
L 460.8 0 
L 0 0 
z
" style="fill: #ffffff"/>
  </g>
  <g id="axes_1">
   <g id="patch_2">
    <path d="M 57.6 298.944 
L 360.8064 298.944 
L 360.8064 6.912 
L 57.6 6.912 
z
" style="fill: #ffffff"/>
   </g>
   <g id="line2d_1">
    <path d="M 40.363149 298.944 
L 40.363149 297.685241 
L 47.990577 297.685241 
L 47.990577 296.426483 
L 53.402323 296.426483 
L 53.402323 293.908966 
L 57.6 293.908966 
L 57.6 292.650207 
L 61.029752 292.650207 
L 61.029752 291.391448 
L 66.441498 291.391448 
L 66.441498 286.356414 
L 74.068926 286.356414 
L 74.068926 283.838897 
L 83.678349 283.838897 
L 83.678349 276.286345 
L 87.1081 276.286345 
L 87.1081 273.768828 
L 90.668036 273.768828 
L 90.668036 272.510069 
L 95.250946 272.510069 
L 95.250946 271.25131 
L 95.752617 271.25131 
L 95.752617 269.992552 
L 97.18203 269.992552 
L 97.18203 268.733793 
L 101.287718 268.733793 
L 101.287718 261.181241 
L 108.034177 261.181241 
L 108.034177 258.663724 
L 108.29012 258.663724 
L 108.29012 256.146207 
L 108.542628 256.146207 
L 108.542628 252.369931 
L 110.221204 252.369931 
L 110.221204 248.593655 
L 114.872193 248.593655 
L 114.872193 247.334897 
L 117.226706 247.334897 
L 117.226706 246.076138 
L 117.384126 246.076138 
L 117.384126 243.558621 
L 123.825333 243.558621 
L 123.825333 241.041103 
L 127.458055 241.041103 
L 127.458055 238.523586 
L 130.964122 238.523586 
L 130.964122 236.006069 
L 132.56918 236.006069 
L 132.56918 232.229793 
L 133.120474 232.229793 
L 133.120474 230.971034 
L 138.36167 230.971034 
L 138.36167 227.194759 
L 141.349389 227.194759 
L 141.349389 224.677241 
L 141.953481 224.677241 
L 142.038218 220.900966 
L 143.888708 220.900966 
L 143.888708 218.383448 
L 147.816265 218.383448 
L 147.816265 214.607172 
L 149.338728 214.607172 
L 149.338728 212.089655 
L 149.931489 212.089655 
L 149.931489 209.572138 
L 150.234685 209.572138 
L 150.234685 207.054621 
L 154.80059 207.054621 
L 154.80059 204.537103 
L 156.442771 204.537103 
L 156.442771 202.019586 
L 156.735336 202.019586 
L 156.735336 199.502069 
L 158.612531 199.502069 
L 158.612531 195.725793 
L 161.869254 195.725793 
L 161.869254 193.208276 
L 162.761101 193.208276 
L 162.8032 189.432 
L 163.27386 189.432 
L 163.27386 188.173241 
L 167.394821 188.173241 
L 167.394821 185.655724 
L 169.491772 185.655724 
L 169.491772 181.879448 
L 171.127772 181.879448 
L 171.127772 178.103172 
L 173.302386 178.103172 
L 173.302386 175.585655 
L 176.086096 175.585655 
L 176.162047 171.809379 
L 177.46634 171.809379 
L 177.46634 170.550621 
L 180.841365 170.550621 
L 180.841365 169.291862 
L 181.428529 169.291862 
L 181.428529 168.033103 
L 183.234714 168.033103 
L 183.234714 164.256828 
L 192.544641 164.256828 
L 192.65106 156.704276 
L 194.252952 156.704276 
L 194.252952 152.928 
L 196.632393 152.928 
L 196.632393 150.410483 
L 197.331771 150.410483 
L 197.331771 147.892966 
L 199.278175 147.892966 
L 199.278175 146.634207 
L 205.230065 146.634207 
L 205.230065 142.857931 
L 205.598232 142.857931 
L 205.598232 141.599172 
L 206.488994 141.599172 
L 206.488994 140.340414 
L 206.717132 140.340414 
L 206.717132 139.081655 
L 212.668941 139.081655 
L 212.668941 136.564138 
L 214.061825 136.564138 
L 214.061825 132.787862 
L 214.354515 132.787862 
L 214.354515 129.011586 
L 215.321728 129.011586 
L 215.321728 125.23531 
L 219.39922 125.23531 
L 219.39922 122.717793 
L 221.310853 122.717793 
L 221.310853 121.459034 
L 222.428375 121.459034 
L 222.428375 120.200276 
L 223.739859 120.200276 
L 223.739859 118.941517 
L 225.631267 118.941517 
L 225.631267 117.682759 
L 228.12829 117.682759 
L 228.12829 113.906483 
L 230.350545 113.906483 
L 230.350545 110.130207 
L 232.491253 110.130207 
L 232.491253 106.353931 
L 233.256211 106.353931 
L 233.256211 102.577655 
L 234.475249 102.577655 
L 234.475249 100.060138 
L 237.945989 100.060138 
L 237.945989 97.542621 
L 240.215376 97.542621 
L 240.215376 96.283862 
L 243.518011 96.283862 
L 243.518011 95.025103 
L 244.133104 95.025103 
L 244.172267 88.73131 
L 246.805807 88.73131 
L 246.805807 86.213793 
L 248.31208 86.213793 
L 248.31208 84.955034 
L 248.706515 84.955034 
L 248.706515 81.178759 
L 248.891515 81.178759 
L 248.891515 78.661241 
L 253.118024 78.661241 
L 253.118024 76.143724 
L 253.928775 76.143724 
L 253.928775 73.626207 
L 254.386539 73.626207 
L 254.386539 71.10869 
L 256.338994 71.10869 
L 256.338994 69.849931 
L 258.80837 69.849931 
L 258.80837 66.073655 
L 259.921311 66.073655 
L 259.921311 63.556138 
L 263.642154 63.556138 
L 263.642154 62.297379 
L 264.700103 62.297379 
L 264.700103 59.779862 
L 266.423815 59.779862 
L 266.423815 58.521103 
L 268.693641 58.521103 
L 268.693641 56.003586 
L 271.432698 56.003586 
L 271.432698 52.22731 
L 273.354503 52.22731 
L 273.354503 48.451034 
L 273.644974 48.451034 
L 273.644974 45.933517 
L 281.664615 45.933517 
L 281.664615 42.157241 
L 360.8064 42.157241 
L 360.8064 42.157241 
" style="fill: none; stroke: #f5deb3; stroke-width: 4; stroke-linecap: square"/>
   </g>
   <g id="line2d_2">
    <defs>
     <path id="m9d6fd2254b" d="M 0 7.778175 
L 7.778175 0 
L 0 -7.778175 
L -7.778175 0 
z
" style="stroke: #f5deb3; stroke-width: 1.5; stroke-linejoin: miter"/>
    </defs>
    <g>
     <use xlink:href="#m9d6fd2254b" x="138.36167" y="227.194759" style="fill: #f5deb3; stroke: #f5deb3; stroke-width: 1.5; stroke-linejoin: miter"/>
     <use xlink:href="#m9d6fd2254b" x="199.278175" y="147.892966" style="fill: #f5deb3; stroke: #f5deb3; stroke-width: 1.5; stroke-linejoin: miter"/>
     <use xlink:href="#m9d6fd2254b" x="248.31208" y="84.955034" style="fill: #f5deb3; stroke: #f5deb3; stroke-width: 1.5; stroke-linejoin: miter"/>
     <use xlink:href="#m9d6fd2254b" x="281.664615" y="42.157241" style="fill: #f5deb3; stroke: #f5deb3; stroke-width: 1.5; stroke-linejoin: miter"/>
     <use xlink:href="#m9d6fd2254b" x="281.664615" y="42.157241" style="fill: #f5deb3; stroke: #f5deb3; stroke-width: 1.5; stroke-linejoin: miter"/>
     <use xlink:href="#m9d6fd2254b" x="360.8064" y="42.157241" style="fill: #f5deb3; stroke: #f5deb3; stroke-width: 1.5; stroke-linejoin: miter"/>
    </g>
   </g>
   <g id="line2d_3">
    <path style="fill: none; stroke: #f5deb3; stroke-width: 4; stroke-linecap: square"/>
    <g/>
   </g>
   <g id="line2d_4">
    <path d="M 360.8064 42.157241 
L 380.514816 12.75264 
" style="fill: none; stroke: #f5deb3; stroke-width: 4; stroke-linecap: square"/>
    <g>
     <use xlink:href="#m9d6fd2254b" x="360.8064" y="42.157241" style="fill: #f5deb3; stroke: #f5deb3; stroke-width: 1.5; stroke-linejoin: miter"/>
     <use xlink:href="#m9d6fd2254b" x="380.514816" y="12.75264" style="fill: #f5deb3; stroke: #f5deb3; stroke-width: 1.5; stroke-linejoin: miter"/>
    </g>
   </g>
   <g id="matplotlib.axis_1">
    <g id="xtick_1">
     <g id="line2d_5">
      <path d="M 57.6 298.944 
L 57.6 6.912 
" clip-path="url(#p444e5d8f34)" style="fill: none; stroke: #b0b0b0; stroke-width: 0.8; stroke-linecap: square"/>
     </g>
     <g id="line2d_6">
      <defs>
       <path id="m526a880599" d="M 0 0 
L 0 3.5 
" style="stroke: #000000; stroke-width: 0.8"/>
      </defs>
      <g>
       <use xlink:href="#m526a880599" x="57.6" y="298.944" style="stroke: #000000; stroke-width: 0.8"/>
      </g>
     </g>
     <g id="text_1">
      <!-- 0 -->
      <g transform="translate(52.191875 318.861344)scale(0.17 -0.17)">
       <defs>
        <path id="DejaVuSans-30" d="M 2034 4250 
Q 1547 4250 1301 3770 
Q 1056 3291 1056 2328 
Q 1056 1369 1301 889 
Q 1547 409 2034 409 
Q 2525 409 2770 889 
Q 3016 1369 3016 2328 
Q 3016 3291 2770 3770 
Q 2525 4250 2034 4250 
z
M 2034 4750 
Q 2819 4750 3233 4129 
Q 3647 3509 3647 2328 
Q 3647 1150 3233 529 
Q 2819 -91 2034 -91 
Q 1250 -91 836 529 
Q 422 1150 422 2328 
Q 422 3509 836 4129 
Q 1250 4750 2034 4750 
z
" transform="scale(0.015625)"/>
       </defs>
       <use xlink:href="#DejaVuSans-30"/>
      </g>
     </g>
    </g>
    <g id="xtick_2">
     <g id="line2d_7">
      <path d="M 144.2304 298.944 
L 144.2304 6.912 
" clip-path="url(#p444e5d8f34)" style="fill: none; stroke: #b0b0b0; stroke-width: 0.8; stroke-linecap: square"/>
     </g>
     <g id="line2d_8">
      <g>
       <use xlink:href="#m526a880599" x="144.2304" y="298.944" style="stroke: #000000; stroke-width: 0.8"/>
      </g>
     </g>
     <g id="text_2">
      <!-- 2 -->
      <g transform="translate(138.822275 318.861344)scale(0.17 -0.17)">
       <defs>
        <path id="DejaVuSans-32" d="M 1228 531 
L 3431 531 
L 3431 0 
L 469 0 
L 469 531 
Q 828 903 1448 1529 
Q 2069 2156 2228 2338 
Q 2531 2678 2651 2914 
Q 2772 3150 2772 3378 
Q 2772 3750 2511 3984 
Q 2250 4219 1831 4219 
Q 1534 4219 1204 4116 
Q 875 4013 500 3803 
L 500 4441 
Q 881 4594 1212 4672 
Q 1544 4750 1819 4750 
Q 2544 4750 2975 4387 
Q 3406 4025 3406 3419 
Q 3406 3131 3298 2873 
Q 3191 2616 2906 2266 
Q 2828 2175 2409 1742 
Q 1991 1309 1228 531 
z
" transform="scale(0.015625)"/>
       </defs>
       <use xlink:href="#DejaVuSans-32"/>
      </g>
     </g>
    </g>
    <g id="xtick_3">
     <g id="line2d_9">
      <path d="M 230.8608 298.944 
L 230.8608 6.912 
" clip-path="url(#p444e5d8f34)" style="fill: none; stroke: #b0b0b0; stroke-width: 0.8; stroke-linecap: square"/>
     </g>
     <g id="line2d_10">
      <g>
       <use xlink:href="#m526a880599" x="230.8608" y="298.944" style="stroke: #000000; stroke-width: 0.8"/>
      </g>
     </g>
     <g id="text_3">
      <!-- 4 -->
      <g transform="translate(225.452675 318.861344)scale(0.17 -0.17)">
       <defs>
        <path id="DejaVuSans-34" d="M 2419 4116 
L 825 1625 
L 2419 1625 
L 2419 4116 
z
M 2253 4666 
L 3047 4666 
L 3047 1625 
L 3713 1625 
L 3713 1100 
L 3047 1100 
L 3047 0 
L 2419 0 
L 2419 1100 
L 313 1100 
L 313 1709 
L 2253 4666 
z
" transform="scale(0.015625)"/>
       </defs>
       <use xlink:href="#DejaVuSans-34"/>
      </g>
     </g>
    </g>
    <g id="xtick_4">
     <g id="line2d_11">
      <path d="M 317.4912 298.944 
L 317.4912 6.912 
" clip-path="url(#p444e5d8f34)" style="fill: none; stroke: #b0b0b0; stroke-width: 0.8; stroke-linecap: square"/>
     </g>
     <g id="line2d_12">
      <g>
       <use xlink:href="#m526a880599" x="317.4912" y="298.944" style="stroke: #000000; stroke-width: 0.8"/>
      </g>
     </g>
     <g id="text_4">
      <!-- 6 -->
      <g transform="translate(312.083075 318.861344)scale(0.17 -0.17)">
       <defs>
        <path id="DejaVuSans-36" d="M 2113 2584 
Q 1688 2584 1439 2293 
Q 1191 2003 1191 1497 
Q 1191 994 1439 701 
Q 1688 409 2113 409 
Q 2538 409 2786 701 
Q 3034 994 3034 1497 
Q 3034 2003 2786 2293 
Q 2538 2584 2113 2584 
z
M 3366 4563 
L 3366 3988 
Q 3128 4100 2886 4159 
Q 2644 4219 2406 4219 
Q 1781 4219 1451 3797 
Q 1122 3375 1075 2522 
Q 1259 2794 1537 2939 
Q 1816 3084 2150 3084 
Q 2853 3084 3261 2657 
Q 3669 2231 3669 1497 
Q 3669 778 3244 343 
Q 2819 -91 2113 -91 
Q 1303 -91 875 529 
Q 447 1150 447 2328 
Q 447 3434 972 4092 
Q 1497 4750 2381 4750 
Q 2619 4750 2861 4703 
Q 3103 4656 3366 4563 
z
" transform="scale(0.015625)"/>
       </defs>
       <use xlink:href="#DejaVuSans-36"/>
      </g>
     </g>
    </g>
    <g id="xtick_5">
     <g id="line2d_13">
      <path d="M 100.9152 298.944 
L 100.9152 6.912 
" clip-path="url(#p444e5d8f34)" style="fill: none; stroke: #b0b0b0; stroke-width: 0.8; stroke-linecap: square"/>
     </g>
     <g id="line2d_14">
      <defs>
       <path id="m29fd91459e" d="M 0 0 
L 0 2 
" style="stroke: #000000; stroke-width: 0.6"/>
      </defs>
      <g>
       <use xlink:href="#m29fd91459e" x="100.9152" y="298.944" style="stroke: #000000; stroke-width: 0.6"/>
      </g>
     </g>
    </g>
    <g id="xtick_6">
     <g id="line2d_15">
      <path d="M 187.5456 298.944 
L 187.5456 6.912 
" clip-path="url(#p444e5d8f34)" style="fill: none; stroke: #b0b0b0; stroke-width: 0.8; stroke-linecap: square"/>
     </g>
     <g id="line2d_16">
      <g>
       <use xlink:href="#m29fd91459e" x="187.5456" y="298.944" style="stroke: #000000; stroke-width: 0.6"/>
      </g>
     </g>
    </g>
    <g id="xtick_7">
     <g id="line2d_17">
      <path d="M 274.176 298.944 
L 274.176 6.912 
" clip-path="url(#p444e5d8f34)" style="fill: none; stroke: #b0b0b0; stroke-width: 0.8; stroke-linecap: square"/>
     </g>
     <g id="line2d_18">
      <g>
       <use xlink:href="#m29fd91459e" x="274.176" y="298.944" style="stroke: #000000; stroke-width: 0.6"/>
      </g>
     </g>
    </g>
    <g id="xtick_8">
     <g id="line2d_19">
      <path d="M 360.8064 298.944 
L 360.8064 6.912 
" clip-path="url(#p444e5d8f34)" style="fill: none; stroke: #b0b0b0; stroke-width: 0.8; stroke-linecap: square"/>
     </g>
     <g id="line2d_20">
      <g>
       <use xlink:href="#m29fd91459e" x="360.8064" y="298.944" style="stroke: #000000; stroke-width: 0.6"/>
      </g>
     </g>
    </g>
    <g id="text_5">
     <!-- log10(# f-evals / dimension) -->
     <g transform="translate(88.823278 339.314156)scale(0.17 -0.17)">
      <defs>
       <path id="DejaVuSans-6c" d="M 603 4863 
L 1178 4863 
L 1178 0 
L 603 0 
L 603 4863 
z
" transform="scale(0.015625)"/>
       <path id="DejaVuSans-6f" d="M 1959 3097 
Q 1497 3097 1228 2736 
Q 959 2375 959 1747 
Q 959 1119 1226 758 
Q 1494 397 1959 397 
Q 2419 397 2687 759 
Q 2956 1122 2956 1747 
Q 2956 2369 2687 2733 
Q 2419 3097 1959 3097 
z
M 1959 3584 
Q 2709 3584 3137 3096 
Q 3566 2609 3566 1747 
Q 3566 888 3137 398 
Q 2709 -91 1959 -91 
Q 1206 -91 779 398 
Q 353 888 353 1747 
Q 353 2609 779 3096 
Q 1206 3584 1959 3584 
z
" transform="scale(0.015625)"/>
       <path id="DejaVuSans-67" d="M 2906 1791 
Q 2906 2416 2648 2759 
Q 2391 3103 1925 3103 
Q 1463 3103 1205 2759 
Q 947 2416 947 1791 
Q 947 1169 1205 825 
Q 1463 481 1925 481 
Q 2391 481 2648 825 
Q 2906 1169 2906 1791 
z
M 3481 434 
Q 3481 -459 3084 -895 
Q 2688 -1331 1869 -1331 
Q 1566 -1331 1297 -1286 
Q 1028 -1241 775 -1147 
L 775 -588 
Q 1028 -725 1275 -790 
Q 1522 -856 1778 -856 
Q 2344 -856 2625 -561 
Q 2906 -266 2906 331 
L 2906 616 
Q 2728 306 2450 153 
Q 2172 0 1784 0 
Q 1141 0 747 490 
Q 353 981 353 1791 
Q 353 2603 747 3093 
Q 1141 3584 1784 3584 
Q 2172 3584 2450 3431 
Q 2728 3278 2906 2969 
L 2906 3500 
L 3481 3500 
L 3481 434 
z
" transform="scale(0.015625)"/>
       <path id="DejaVuSans-31" d="M 794 531 
L 1825 531 
L 1825 4091 
L 703 3866 
L 703 4441 
L 1819 4666 
L 2450 4666 
L 2450 531 
L 3481 531 
L 3481 0 
L 794 0 
L 794 531 
z
" transform="scale(0.015625)"/>
       <path id="DejaVuSans-28" d="M 1984 4856 
Q 1566 4138 1362 3434 
Q 1159 2731 1159 2009 
Q 1159 1288 1364 580 
Q 1569 -128 1984 -844 
L 1484 -844 
Q 1016 -109 783 600 
Q 550 1309 550 2009 
Q 550 2706 781 3412 
Q 1013 4119 1484 4856 
L 1984 4856 
z
" transform="scale(0.015625)"/>
       <path id="DejaVuSans-23" d="M 3272 2816 
L 2363 2816 
L 2100 1772 
L 3016 1772 
L 3272 2816 
z
M 2803 4594 
L 2478 3297 
L 3391 3297 
L 3719 4594 
L 4219 4594 
L 3897 3297 
L 4872 3297 
L 4872 2816 
L 3775 2816 
L 3519 1772 
L 4513 1772 
L 4513 1294 
L 3397 1294 
L 3072 0 
L 2572 0 
L 2894 1294 
L 1978 1294 
L 1656 0 
L 1153 0 
L 1478 1294 
L 494 1294 
L 494 1772 
L 1594 1772 
L 1856 2816 
L 850 2816 
L 850 3297 
L 1978 3297 
L 2297 4594 
L 2803 4594 
z
" transform="scale(0.015625)"/>
       <path id="DejaVuSans-20" transform="scale(0.015625)"/>
       <path id="DejaVuSans-66" d="M 2375 4863 
L 2375 4384 
L 1825 4384 
Q 1516 4384 1395 4259 
Q 1275 4134 1275 3809 
L 1275 3500 
L 2222 3500 
L 2222 3053 
L 1275 3053 
L 1275 0 
L 697 0 
L 697 3053 
L 147 3053 
L 147 3500 
L 697 3500 
L 697 3744 
Q 697 4328 969 4595 
Q 1241 4863 1831 4863 
L 2375 4863 
z
" transform="scale(0.015625)"/>
       <path id="DejaVuSans-2d" d="M 313 2009 
L 1997 2009 
L 1997 1497 
L 313 1497 
L 313 2009 
z
" transform="scale(0.015625)"/>
       <path id="DejaVuSans-65" d="M 3597 1894 
L 3597 1613 
L 953 1613 
Q 991 1019 1311 708 
Q 1631 397 2203 397 
Q 2534 397 2845 478 
Q 3156 559 3463 722 
L 3463 178 
Q 3153 47 2828 -22 
Q 2503 -91 2169 -91 
Q 1331 -91 842 396 
Q 353 884 353 1716 
Q 353 2575 817 3079 
Q 1281 3584 2069 3584 
Q 2775 3584 3186 3129 
Q 3597 2675 3597 1894 
z
M 3022 2063 
Q 3016 2534 2758 2815 
Q 2500 3097 2075 3097 
Q 1594 3097 1305 2825 
Q 1016 2553 972 2059 
L 3022 2063 
z
" transform="scale(0.015625)"/>
       <path id="DejaVuSans-76" d="M 191 3500 
L 800 3500 
L 1894 563 
L 2988 3500 
L 3597 3500 
L 2284 0 
L 1503 0 
L 191 3500 
z
" transform="scale(0.015625)"/>
       <path id="DejaVuSans-61" d="M 2194 1759 
Q 1497 1759 1228 1600 
Q 959 1441 959 1056 
Q 959 750 1161 570 
Q 1363 391 1709 391 
Q 2188 391 2477 730 
Q 2766 1069 2766 1631 
L 2766 1759 
L 2194 1759 
z
M 3341 1997 
L 3341 0 
L 2766 0 
L 2766 531 
Q 2569 213 2275 61 
Q 1981 -91 1556 -91 
Q 1019 -91 701 211 
Q 384 513 384 1019 
Q 384 1609 779 1909 
Q 1175 2209 1959 2209 
L 2766 2209 
L 2766 2266 
Q 2766 2663 2505 2880 
Q 2244 3097 1772 3097 
Q 1472 3097 1187 3025 
Q 903 2953 641 2809 
L 641 3341 
Q 956 3463 1253 3523 
Q 1550 3584 1831 3584 
Q 2591 3584 2966 3190 
Q 3341 2797 3341 1997 
z
" transform="scale(0.015625)"/>
       <path id="DejaVuSans-73" d="M 2834 3397 
L 2834 2853 
Q 2591 2978 2328 3040 
Q 2066 3103 1784 3103 
Q 1356 3103 1142 2972 
Q 928 2841 928 2578 
Q 928 2378 1081 2264 
Q 1234 2150 1697 2047 
L 1894 2003 
Q 2506 1872 2764 1633 
Q 3022 1394 3022 966 
Q 3022 478 2636 193 
Q 2250 -91 1575 -91 
Q 1294 -91 989 -36 
Q 684 19 347 128 
L 347 722 
Q 666 556 975 473 
Q 1284 391 1588 391 
Q 1994 391 2212 530 
Q 2431 669 2431 922 
Q 2431 1156 2273 1281 
Q 2116 1406 1581 1522 
L 1381 1569 
Q 847 1681 609 1914 
Q 372 2147 372 2553 
Q 372 3047 722 3315 
Q 1072 3584 1716 3584 
Q 2034 3584 2315 3537 
Q 2597 3491 2834 3397 
z
" transform="scale(0.015625)"/>
       <path id="DejaVuSans-2f" d="M 1625 4666 
L 2156 4666 
L 531 -594 
L 0 -594 
L 1625 4666 
z
" transform="scale(0.015625)"/>
       <path id="DejaVuSans-64" d="M 2906 2969 
L 2906 4863 
L 3481 4863 
L 3481 0 
L 2906 0 
L 2906 525 
Q 2725 213 2448 61 
Q 2172 -91 1784 -91 
Q 1150 -91 751 415 
Q 353 922 353 1747 
Q 353 2572 751 3078 
Q 1150 3584 1784 3584 
Q 2172 3584 2448 3432 
Q 2725 3281 2906 2969 
z
M 947 1747 
Q 947 1113 1208 752 
Q 1469 391 1925 391 
Q 2381 391 2643 752 
Q 2906 1113 2906 1747 
Q 2906 2381 2643 2742 
Q 2381 3103 1925 3103 
Q 1469 3103 1208 2742 
Q 947 2381 947 1747 
z
" transform="scale(0.015625)"/>
       <path id="DejaVuSans-69" d="M 603 3500 
L 1178 3500 
L 1178 0 
L 603 0 
L 603 3500 
z
M 603 4863 
L 1178 4863 
L 1178 4134 
L 603 4134 
L 603 4863 
z
" transform="scale(0.015625)"/>
       <path id="DejaVuSans-6d" d="M 3328 2828 
Q 3544 3216 3844 3400 
Q 4144 3584 4550 3584 
Q 5097 3584 5394 3201 
Q 5691 2819 5691 2113 
L 5691 0 
L 5113 0 
L 5113 2094 
Q 5113 2597 4934 2840 
Q 4756 3084 4391 3084 
Q 3944 3084 3684 2787 
Q 3425 2491 3425 1978 
L 3425 0 
L 2847 0 
L 2847 2094 
Q 2847 2600 2669 2842 
Q 2491 3084 2119 3084 
Q 1678 3084 1418 2786 
Q 1159 2488 1159 1978 
L 1159 0 
L 581 0 
L 581 3500 
L 1159 3500 
L 1159 2956 
Q 1356 3278 1631 3431 
Q 1906 3584 2284 3584 
Q 2666 3584 2933 3390 
Q 3200 3197 3328 2828 
z
" transform="scale(0.015625)"/>
       <path id="DejaVuSans-6e" d="M 3513 2113 
L 3513 0 
L 2938 0 
L 2938 2094 
Q 2938 2591 2744 2837 
Q 2550 3084 2163 3084 
Q 1697 3084 1428 2787 
Q 1159 2491 1159 1978 
L 1159 0 
L 581 0 
L 581 3500 
L 1159 3500 
L 1159 2956 
Q 1366 3272 1645 3428 
Q 1925 3584 2291 3584 
Q 2894 3584 3203 3211 
Q 3513 2838 3513 2113 
z
" transform="scale(0.015625)"/>
       <path id="DejaVuSans-29" d="M 513 4856 
L 1013 4856 
Q 1481 4119 1714 3412 
Q 1947 2706 1947 2009 
Q 1947 1309 1714 600 
Q 1481 -109 1013 -844 
L 513 -844 
Q 928 -128 1133 580 
Q 1338 1288 1338 2009 
Q 1338 2731 1133 3434 
Q 928 4138 513 4856 
z
" transform="scale(0.015625)"/>
      </defs>
      <use xlink:href="#DejaVuSans-6c"/>
      <use xlink:href="#DejaVuSans-6f" x="27.783203"/>
      <use xlink:href="#DejaVuSans-67" x="88.964844"/>
      <use xlink:href="#DejaVuSans-31" x="152.441406"/>
      <use xlink:href="#DejaVuSans-30" x="216.064453"/>
      <use xlink:href="#DejaVuSans-28" x="279.6875"/>
      <use xlink:href="#DejaVuSans-23" x="318.701172"/>
      <use xlink:href="#DejaVuSans-20" x="402.490234"/>
      <use xlink:href="#DejaVuSans-66" x="434.277344"/>
      <use xlink:href="#DejaVuSans-2d" x="463.982422"/>
      <use xlink:href="#DejaVuSans-65" x="500.066406"/>
      <use xlink:href="#DejaVuSans-76" x="561.589844"/>
      <use xlink:href="#DejaVuSans-61" x="620.769531"/>
      <use xlink:href="#DejaVuSans-6c" x="682.048828"/>
      <use xlink:href="#DejaVuSans-73" x="709.832031"/>
      <use xlink:href="#DejaVuSans-20" x="761.931641"/>
      <use xlink:href="#DejaVuSans-2f" x="793.71875"/>
      <use xlink:href="#DejaVuSans-20" x="827.410156"/>
      <use xlink:href="#DejaVuSans-64" x="859.197266"/>
      <use xlink:href="#DejaVuSans-69" x="922.673828"/>
      <use xlink:href="#DejaVuSans-6d" x="950.457031"/>
      <use xlink:href="#DejaVuSans-65" x="1047.869141"/>
      <use xlink:href="#DejaVuSans-6e" x="1109.392578"/>
      <use xlink:href="#DejaVuSans-73" x="1172.771484"/>
      <use xlink:href="#DejaVuSans-69" x="1224.871094"/>
      <use xlink:href="#DejaVuSans-6f" x="1252.654297"/>
      <use xlink:href="#DejaVuSans-6e" x="1313.835938"/>
      <use xlink:href="#DejaVuSans-29" x="1377.214844"/>
     </g>
    </g>
   </g>
   <g id="matplotlib.axis_2">
    <g id="ytick_1">
     <g id="line2d_21">
      <path d="M 57.6 298.944 
L 360.8064 298.944 
" clip-path="url(#p444e5d8f34)" style="fill: none; stroke: #b0b0b0; stroke-width: 0.8; stroke-linecap: square"/>
     </g>
     <g id="line2d_22">
      <defs>
       <path id="m8b44c7d430" d="M 0 0 
L -3.5 0 
" style="stroke: #000000; stroke-width: 0.8"/>
      </defs>
      <g>
       <use xlink:href="#m8b44c7d430" x="57.6" y="298.944" style="stroke: #000000; stroke-width: 0.8"/>
      </g>
     </g>
     <g id="text_6">
      <!-- 0.0 -->
      <g transform="translate(25.155 305.02275)scale(0.16 -0.16)">
       <defs>
        <path id="DejaVuSans-2e" d="M 684 794 
L 1344 794 
L 1344 0 
L 684 0 
L 684 794 
z
" transform="scale(0.015625)"/>
       </defs>
       <use xlink:href="#DejaVuSans-30"/>
       <use xlink:href="#DejaVuSans-2e" x="63.623047"/>
       <use xlink:href="#DejaVuSans-30" x="95.410156"/>
      </g>
     </g>
    </g>
    <g id="ytick_2">
     <g id="line2d_23">
      <path d="M 57.6 240.5376 
L 360.8064 240.5376 
" clip-path="url(#p444e5d8f34)" style="fill: none; stroke: #b0b0b0; stroke-width: 0.8; stroke-linecap: square"/>
     </g>
     <g id="line2d_24">
      <g>
       <use xlink:href="#m8b44c7d430" x="57.6" y="240.5376" style="stroke: #000000; stroke-width: 0.8"/>
      </g>
     </g>
     <g id="text_7">
      <!-- 0.2 -->
      <g transform="translate(25.155 246.61635)scale(0.16 -0.16)">
       <use xlink:href="#DejaVuSans-30"/>
       <use xlink:href="#DejaVuSans-2e" x="63.623047"/>
       <use xlink:href="#DejaVuSans-32" x="95.410156"/>
      </g>
     </g>
    </g>
    <g id="ytick_3">
     <g id="line2d_25">
      <path d="M 57.6 182.1312 
L 360.8064 182.1312 
" clip-path="url(#p444e5d8f34)" style="fill: none; stroke: #b0b0b0; stroke-width: 0.8; stroke-linecap: square"/>
     </g>
     <g id="line2d_26">
      <g>
       <use xlink:href="#m8b44c7d430" x="57.6" y="182.1312" style="stroke: #000000; stroke-width: 0.8"/>
      </g>
     </g>
     <g id="text_8">
      <!-- 0.4 -->
      <g transform="translate(25.155 188.20995)scale(0.16 -0.16)">
       <use xlink:href="#DejaVuSans-30"/>
       <use xlink:href="#DejaVuSans-2e" x="63.623047"/>
       <use xlink:href="#DejaVuSans-34" x="95.410156"/>
      </g>
     </g>
    </g>
    <g id="ytick_4">
     <g id="line2d_27">
      <path d="M 57.6 123.7248 
L 360.8064 123.7248 
" clip-path="url(#p444e5d8f34)" style="fill: none; stroke: #b0b0b0; stroke-width: 0.8; stroke-linecap: square"/>
     </g>
     <g id="line2d_28">
      <g>
       <use xlink:href="#m8b44c7d430" x="57.6" y="123.7248" style="stroke: #000000; stroke-width: 0.8"/>
      </g>
     </g>
     <g id="text_9">
      <!-- 0.6 -->
      <g transform="translate(25.155 129.80355)scale(0.16 -0.16)">
       <use xlink:href="#DejaVuSans-30"/>
       <use xlink:href="#DejaVuSans-2e" x="63.623047"/>
       <use xlink:href="#DejaVuSans-36" x="95.410156"/>
      </g>
     </g>
    </g>
    <g id="ytick_5">
     <g id="line2d_29">
      <path d="M 57.6 65.3184 
L 360.8064 65.3184 
" clip-path="url(#p444e5d8f34)" style="fill: none; stroke: #b0b0b0; stroke-width: 0.8; stroke-linecap: square"/>
     </g>
     <g id="line2d_30">
      <g>
       <use xlink:href="#m8b44c7d430" x="57.6" y="65.3184" style="stroke: #000000; stroke-width: 0.8"/>
      </g>
     </g>
     <g id="text_10">
      <!-- 0.8 -->
      <g transform="translate(25.155 71.39715)scale(0.16 -0.16)">
       <defs>
        <path id="DejaVuSans-38" d="M 2034 2216 
Q 1584 2216 1326 1975 
Q 1069 1734 1069 1313 
Q 1069 891 1326 650 
Q 1584 409 2034 409 
Q 2484 409 2743 651 
Q 3003 894 3003 1313 
Q 3003 1734 2745 1975 
Q 2488 2216 2034 2216 
z
M 1403 2484 
Q 997 2584 770 2862 
Q 544 3141 544 3541 
Q 544 4100 942 4425 
Q 1341 4750 2034 4750 
Q 2731 4750 3128 4425 
Q 3525 4100 3525 3541 
Q 3525 3141 3298 2862 
Q 3072 2584 2669 2484 
Q 3125 2378 3379 2068 
Q 3634 1759 3634 1313 
Q 3634 634 3220 271 
Q 2806 -91 2034 -91 
Q 1263 -91 848 271 
Q 434 634 434 1313 
Q 434 1759 690 2068 
Q 947 2378 1403 2484 
z
M 1172 3481 
Q 1172 3119 1398 2916 
Q 1625 2713 2034 2713 
Q 2441 2713 2670 2916 
Q 2900 3119 2900 3481 
Q 2900 3844 2670 4047 
Q 2441 4250 2034 4250 
Q 1625 4250 1398 4047 
Q 1172 3844 1172 3481 
z
" transform="scale(0.015625)"/>
       </defs>
       <use xlink:href="#DejaVuSans-30"/>
       <use xlink:href="#DejaVuSans-2e" x="63.623047"/>
       <use xlink:href="#DejaVuSans-38" x="95.410156"/>
      </g>
     </g>
    </g>
    <g id="ytick_6">
     <g id="line2d_31">
      <path d="M 57.6 6.912 
L 360.8064 6.912 
" clip-path="url(#p444e5d8f34)" style="fill: none; stroke: #b0b0b0; stroke-width: 0.8; stroke-linecap: square"/>
     </g>
     <g id="line2d_32">
      <g>
       <use xlink:href="#m8b44c7d430" x="57.6" y="6.912" style="stroke: #000000; stroke-width: 0.8"/>
      </g>
     </g>
     <g id="text_11">
      <!-- 1.0 -->
      <g transform="translate(25.155 12.99075)scale(0.16 -0.16)">
       <use xlink:href="#DejaVuSans-31"/>
       <use xlink:href="#DejaVuSans-2e" x="63.623047"/>
       <use xlink:href="#DejaVuSans-30" x="95.410156"/>
      </g>
     </g>
    </g>
    <g id="text_12">
     <!-- Fraction of function,target pairs -->
     <g transform="translate(17.619531 287.313)rotate(-90)scale(0.17 -0.17)">
      <defs>
       <path id="DejaVuSans-46" d="M 628 4666 
L 3309 4666 
L 3309 4134 
L 1259 4134 
L 1259 2759 
L 3109 2759 
L 3109 2228 
L 1259 2228 
L 1259 0 
L 628 0 
L 628 4666 
z
" transform="scale(0.015625)"/>
       <path id="DejaVuSans-72" d="M 2631 2963 
Q 2534 3019 2420 3045 
Q 2306 3072 2169 3072 
Q 1681 3072 1420 2755 
Q 1159 2438 1159 1844 
L 1159 0 
L 581 0 
L 581 3500 
L 1159 3500 
L 1159 2956 
Q 1341 3275 1631 3429 
Q 1922 3584 2338 3584 
Q 2397 3584 2469 3576 
Q 2541 3569 2628 3553 
L 2631 2963 
z
" transform="scale(0.015625)"/>
       <path id="DejaVuSans-63" d="M 3122 3366 
L 3122 2828 
Q 2878 2963 2633 3030 
Q 2388 3097 2138 3097 
Q 1578 3097 1268 2742 
Q 959 2388 959 1747 
Q 959 1106 1268 751 
Q 1578 397 2138 397 
Q 2388 397 2633 464 
Q 2878 531 3122 666 
L 3122 134 
Q 2881 22 2623 -34 
Q 2366 -91 2075 -91 
Q 1284 -91 818 406 
Q 353 903 353 1747 
Q 353 2603 823 3093 
Q 1294 3584 2113 3584 
Q 2378 3584 2631 3529 
Q 2884 3475 3122 3366 
z
" transform="scale(0.015625)"/>
       <path id="DejaVuSans-74" d="M 1172 4494 
L 1172 3500 
L 2356 3500 
L 2356 3053 
L 1172 3053 
L 1172 1153 
Q 1172 725 1289 603 
Q 1406 481 1766 481 
L 2356 481 
L 2356 0 
L 1766 0 
Q 1100 0 847 248 
Q 594 497 594 1153 
L 594 3053 
L 172 3053 
L 172 3500 
L 594 3500 
L 594 4494 
L 1172 4494 
z
" transform="scale(0.015625)"/>
       <path id="DejaVuSans-75" d="M 544 1381 
L 544 3500 
L 1119 3500 
L 1119 1403 
Q 1119 906 1312 657 
Q 1506 409 1894 409 
Q 2359 409 2629 706 
Q 2900 1003 2900 1516 
L 2900 3500 
L 3475 3500 
L 3475 0 
L 2900 0 
L 2900 538 
Q 2691 219 2414 64 
Q 2138 -91 1772 -91 
Q 1169 -91 856 284 
Q 544 659 544 1381 
z
M 1991 3584 
L 1991 3584 
z
" transform="scale(0.015625)"/>
       <path id="DejaVuSans-2c" d="M 750 794 
L 1409 794 
L 1409 256 
L 897 -744 
L 494 -744 
L 750 256 
L 750 794 
z
" transform="scale(0.015625)"/>
       <path id="DejaVuSans-70" d="M 1159 525 
L 1159 -1331 
L 581 -1331 
L 581 3500 
L 1159 3500 
L 1159 2969 
Q 1341 3281 1617 3432 
Q 1894 3584 2278 3584 
Q 2916 3584 3314 3078 
Q 3713 2572 3713 1747 
Q 3713 922 3314 415 
Q 2916 -91 2278 -91 
Q 1894 -91 1617 61 
Q 1341 213 1159 525 
z
M 3116 1747 
Q 3116 2381 2855 2742 
Q 2594 3103 2138 3103 
Q 1681 3103 1420 2742 
Q 1159 2381 1159 1747 
Q 1159 1113 1420 752 
Q 1681 391 2138 391 
Q 2594 391 2855 752 
Q 3116 1113 3116 1747 
z
" transform="scale(0.015625)"/>
      </defs>
      <use xlink:href="#DejaVuSans-46"/>
      <use xlink:href="#DejaVuSans-72" x="50.269531"/>
      <use xlink:href="#DejaVuSans-61" x="91.382812"/>
      <use xlink:href="#DejaVuSans-63" x="152.662109"/>
      <use xlink:href="#DejaVuSans-74" x="207.642578"/>
      <use xlink:href="#DejaVuSans-69" x="246.851562"/>
      <use xlink:href="#DejaVuSans-6f" x="274.634766"/>
      <use xlink:href="#DejaVuSans-6e" x="335.816406"/>
      <use xlink:href="#DejaVuSans-20" x="399.195312"/>
      <use xlink:href="#DejaVuSans-6f" x="430.982422"/>
      <use xlink:href="#DejaVuSans-66" x="492.164062"/>
      <use xlink:href="#DejaVuSans-20" x="527.369141"/>
      <use xlink:href="#DejaVuSans-66" x="559.15625"/>
      <use xlink:href="#DejaVuSans-75" x="594.361328"/>
      <use xlink:href="#DejaVuSans-6e" x="657.740234"/>
      <use xlink:href="#DejaVuSans-63" x="721.119141"/>
      <use xlink:href="#DejaVuSans-74" x="776.099609"/>
      <use xlink:href="#DejaVuSans-69" x="815.308594"/>
      <use xlink:href="#DejaVuSans-6f" x="843.091797"/>
      <use xlink:href="#DejaVuSans-6e" x="904.273438"/>
      <use xlink:href="#DejaVuSans-2c" x="967.652344"/>
      <use xlink:href="#DejaVuSans-74" x="999.439453"/>
      <use xlink:href="#DejaVuSans-61" x="1038.648438"/>
      <use xlink:href="#DejaVuSans-72" x="1099.927734"/>
      <use xlink:href="#DejaVuSans-67" x="1139.291016"/>
      <use xlink:href="#DejaVuSans-65" x="1202.767578"/>
      <use xlink:href="#DejaVuSans-74" x="1264.291016"/>
      <use xlink:href="#DejaVuSans-20" x="1303.5"/>
      <use xlink:href="#DejaVuSans-70" x="1335.287109"/>
      <use xlink:href="#DejaVuSans-61" x="1398.763672"/>
      <use xlink:href="#DejaVuSans-69" x="1460.042969"/>
      <use xlink:href="#DejaVuSans-72" x="1487.826172"/>
      <use xlink:href="#DejaVuSans-73" x="1528.939453"/>
     </g>
    </g>
   </g>
   <g id="line2d_33">
    <defs>
     <path id="ma249e77b6d" d="M 0 1.5 
C 0.397805 1.5 0.77937 1.341951 1.06066 1.06066 
C 1.341951 0.77937 1.5 0.397805 1.5 0 
C 1.5 -0.397805 1.341951 -0.77937 1.06066 -1.06066 
C 0.77937 -1.341951 0.397805 -1.5 0 -1.5 
C -0.397805 -1.5 -0.77937 -1.341951 -1.06066 -1.06066 
C -1.341951 -0.77937 -1.5 -0.397805 -1.5 0 
C -1.5 0.397805 -1.341951 0.77937 -1.06066 1.06066 
C -0.77937 1.341951 -0.397805 1.5 0 1.5 
z
" style="stroke: #f5deb3"/>
    </defs>
    <g>
     <use xlink:href="#ma249e77b6d" x="281.664615" y="42.157241" style="fill: #f5deb3; stroke: #f5deb3"/>
     <use xlink:href="#ma249e77b6d" x="281.664615" y="42.157241" style="fill: #f5deb3; stroke: #f5deb3"/>
    </g>
   </g>
   <g id="line2d_34">
    <defs>
     <path id="m1cd630eaa7" d="M 0 1.5 
C 0.397805 1.5 0.77937 1.341951 1.06066 1.06066 
C 1.341951 0.77937 1.5 0.397805 1.5 0 
C 1.5 -0.397805 1.341951 -0.77937 1.06066 -1.06066 
C 0.77937 -1.341951 0.397805 -1.5 0 -1.5 
C -0.397805 -1.5 -0.77937 -1.341951 -1.06066 -1.06066 
C -1.341951 -0.77937 -1.5 -0.397805 -1.5 0 
C -1.5 0.397805 -1.341951 0.77937 -1.06066 1.06066 
C -0.77937 1.341951 -0.397805 1.5 0 1.5 
z
" style="stroke: #000080"/>
    </defs>
    <g>
     <use xlink:href="#m1cd630eaa7" x="81.696354" y="278.803862" style="fill: #000080; stroke: #000080"/>
     <use xlink:href="#m1cd630eaa7" x="81.696354" y="278.803862" style="fill: #000080; stroke: #000080"/>
    </g>
   </g>
   <g id="line2d_35">
    <path d="M 27.323974 298.944 
L 27.323974 290.636193 
L 40.363149 290.636193 
L 40.363149 289.125683 
L 47.990577 289.125683 
L 47.990577 286.734041 
L 53.402323 286.734041 
L 53.402323 286.104662 
L 57.6 286.104662 
L 57.6 285.349407 
L 61.029752 285.349407 
L 61.029752 284.845903 
L 63.929565 284.845903 
L 63.929565 283.838897 
L 66.441498 283.838897 
L 66.441498 283.209517 
L 68.65718 283.209517 
L 68.65718 282.706014 
L 70.639174 282.706014 
L 70.639174 282.076634 
L 72.432107 282.076634 
L 72.432107 281.699007 
L 74.068926 281.699007 
L 74.068926 281.195503 
L 75.574654 281.195503 
L 75.574654 280.943752 
L 76.96874 280.943752 
L 76.96874 280.817876 
L 78.266603 280.817876 
L 78.266603 280.566124 
L 79.480672 280.566124 
L 79.480672 280.440248 
L 80.621116 280.440248 
L 80.621116 280.314372 
L 81.696354 280.314372 
L 81.696354 278.803862 
L 360.8064 278.803862 
" style="fill: none; stroke: #000080; stroke-width: 1.5; stroke-linecap: square"/>
   </g>
   <g id="line2d_36">
    <defs>
     <path id="m09cdf314d0" d="M 0 6 
C 1.591219 6 3.117479 5.367802 4.242641 4.242641 
C 5.367802 3.117479 6 1.591219 6 0 
C 6 -1.591219 5.367802 -3.117479 4.242641 -4.242641 
C 3.117479 -5.367802 1.591219 -6 0 -6 
C -1.591219 -6 -3.117479 -5.367802 -4.242641 -4.242641 
C -5.367802 -3.117479 -6 -1.591219 -6 0 
C -6 1.591219 -5.367802 3.117479 -4.242641 4.242641 
C -3.117479 5.367802 -1.591219 6 0 6 
z
" style="stroke: #000080; stroke-width: 1.5"/>
    </defs>
    <g>
     <use xlink:href="#m09cdf314d0" x="81.696354" y="280.314372" style="fill-opacity: 0; stroke: #000080; stroke-width: 1.5"/>
     <use xlink:href="#m09cdf314d0" x="81.696354" y="280.314372" style="fill-opacity: 0; stroke: #000080; stroke-width: 1.5"/>
     <use xlink:href="#m09cdf314d0" x="81.696354" y="278.803862" style="fill-opacity: 0; stroke: #000080; stroke-width: 1.5"/>
     <use xlink:href="#m09cdf314d0" x="81.696354" y="278.803862" style="fill-opacity: 0; stroke: #000080; stroke-width: 1.5"/>
     <use xlink:href="#m09cdf314d0" x="81.696354" y="278.803862" style="fill-opacity: 0; stroke: #000080; stroke-width: 1.5"/>
     <use xlink:href="#m09cdf314d0" x="360.8064" y="278.803862" style="fill-opacity: 0; stroke: #000080; stroke-width: 1.5"/>
    </g>
   </g>
   <g id="line2d_37">
    <path style="fill: none; stroke: #000080; stroke-width: 1.5; stroke-linecap: square"/>
    <g/>
   </g>
   <g id="line2d_38">
    <path d="M 81.696354 278.803862 
" clip-path="url(#p444e5d8f34)" style="fill: none; stroke: #000080; stroke-width: 1.5; stroke-linecap: square"/>
    <defs>
     <path id="m5c60de1436" d="M -12 12 
L 12 -12 
M -12 -12 
L 12 12 
" style="stroke: #000080"/>
    </defs>
    <g clip-path="url(#p444e5d8f34)">
     <use xlink:href="#m5c60de1436" x="81.696354" y="278.803862" style="fill: #000080; stroke: #000080"/>
    </g>
   </g>
   <g id="line2d_39">
    <defs>
     <path id="m16a92dfb7d" d="M 0 1.5 
C 0.397805 1.5 0.77937 1.341951 1.06066 1.06066 
C 1.341951 0.77937 1.5 0.397805 1.5 0 
C 1.5 -0.397805 1.341951 -0.77937 1.06066 -1.06066 
C 0.77937 -1.341951 0.397805 -1.5 0 -1.5 
C -0.397805 -1.5 -0.77937 -1.341951 -1.06066 -1.06066 
C -1.341951 -0.77937 -1.5 -0.397805 -1.5 0 
C -1.5 0.397805 -1.341951 0.77937 -1.06066 1.06066 
C -0.77937 1.341951 -0.397805 1.5 0 1.5 
z
" style="stroke: #ff00ff"/>
    </defs>
    <g>
     <use xlink:href="#m16a92dfb7d" x="274.076147" y="138.829903" style="fill: #ff00ff; stroke: #ff00ff"/>
     <use xlink:href="#m16a92dfb7d" x="274.076147" y="138.829903" style="fill: #ff00ff; stroke: #ff00ff"/>
    </g>
   </g>
   <g id="line2d_40">
    <path d="M 27.323974 298.944 
L 27.323974 290.636193 
L 40.363149 290.636193 
L 40.363149 290.006814 
L 47.990577 290.006814 
L 47.990577 288.873931 
L 53.402323 288.873931 
L 53.402323 288.244552 
L 57.6 288.244552 
L 57.6 288.118676 
L 61.029752 288.118676 
L 61.029752 287.741048 
L 63.929565 287.741048 
L 63.929565 287.363421 
L 66.441498 287.363421 
L 66.441498 286.985793 
L 68.65718 286.985793 
L 68.65718 286.356414 
L 70.639174 286.356414 
L 70.639174 285.978786 
L 78.266603 285.978786 
L 78.266603 285.85291 
L 79.480672 285.85291 
L 79.480672 285.601159 
L 80.621116 285.601159 
L 80.621116 284.845903 
L 81.696354 284.845903 
L 81.696354 284.720028 
L 83.678349 284.720028 
L 83.678349 284.090648 
L 84.596168 284.090648 
L 84.596168 283.964772 
L 86.307488 283.964772 
L 86.307488 283.838897 
L 87.1081 283.838897 
L 87.1081 283.461269 
L 88.613828 283.461269 
L 88.613828 283.083641 
L 89.323782 283.083641 
L 89.323782 282.957766 
L 90.668036 282.957766 
L 90.668036 282.706014 
L 91.305777 282.706014 
L 91.305777 282.328386 
L 91.922605 282.328386 
L 91.922605 282.20251 
L 92.519847 282.20251 
L 92.519847 281.950759 
L 93.098709 281.950759 
L 93.098709 281.824883 
L 93.66029 281.824883 
L 93.66029 281.699007 
L 95.752617 281.699007 
L 95.752617 281.573131 
L 96.717523 281.573131 
L 96.717523 281.447255 
L 97.18203 281.447255 
L 97.18203 281.195503 
L 100.535156 281.195503 
L 100.535156 281.069628 
L 100.9152 281.069628 
L 100.9152 280.943752 
L 102.011329 280.943752 
L 102.011329 280.817876 
L 102.708132 280.817876 
L 102.708132 280.692 
L 103.047088 280.692 
L 103.047088 280.566124 
L 104.344952 280.566124 
L 104.344952 280.314372 
L 104.961779 280.314372 
L 104.961779 280.188497 
L 105.850679 280.188497 
L 105.850679 280.062621 
L 106.42077 280.062621 
L 106.42077 279.936745 
L 106.699465 279.936745 
L 106.699465 279.810869 
L 107.244765 279.810869 
L 107.244765 279.684993 
L 107.5116 279.684993 
L 107.5116 279.559117 
L 107.774703 279.559117 
L 107.774703 279.433241 
L 108.034177 279.433241 
L 108.034177 279.307366 
L 108.29012 279.307366 
L 108.29012 279.18149 
L 108.542628 279.18149 
L 108.542628 279.055614 
L 108.791791 279.055614 
L 108.791791 278.929738 
L 112.790402 278.929738 
L 112.790402 278.55211 
L 113.57433 278.55211 
L 113.57433 278.426234 
L 113.765312 278.426234 
L 113.765312 278.048607 
L 113.954374 278.048607 
L 113.954374 277.922731 
L 114.692177 277.922731 
L 114.692177 277.796855 
L 114.872193 277.796855 
L 114.872193 277.670979 
L 115.227139 277.670979 
L 115.227139 277.545103 
L 115.747307 277.545103 
L 115.747307 277.167476 
L 115.917548 277.167476 
L 115.917548 277.0416 
L 116.253478 277.0416 
L 116.253478 276.789848 
L 116.746385 276.789848 
L 116.746385 276.663972 
L 116.907859 276.663972 
L 116.907859 276.538097 
L 117.067958 276.538097 
L 117.067958 276.286345 
L 117.540239 276.286345 
L 117.540239 276.160469 
L 118.450653 276.160469 
L 118.450653 276.034593 
L 118.74459 276.034593 
L 118.74459 275.908717 
L 119.034004 275.908717 
L 119.034004 275.656966 
L 119.177058 275.656966 
L 119.177058 275.53109 
L 119.459944 275.53109 
L 119.459944 275.405214 
L 120.013265 275.405214 
L 120.013265 275.027586 
L 120.149089 275.027586 
L 120.149089 274.90171 
L 120.28394 274.90171 
L 120.28394 274.775834 
L 120.550775 274.775834 
L 120.550775 274.272331 
L 120.813877 274.272331 
L 120.813877 274.146455 
L 121.073351 274.146455 
L 121.073351 274.020579 
L 121.201758 274.020579 
L 121.201758 273.894703 
L 121.329295 273.894703 
L 121.329295 273.642952 
L 121.455972 273.642952 
L 121.455972 273.517076 
L 121.706797 273.517076 
L 121.706797 273.3912 
L 121.954321 273.3912 
L 121.954321 273.139448 
L 122.19863 273.139448 
L 122.19863 273.013572 
L 122.319605 273.013572 
L 122.319605 272.887697 
L 122.677931 272.887697 
L 122.677931 272.761821 
L 123.374735 272.761821 
L 123.374735 272.510069 
L 123.4884 272.510069 
L 123.4884 272.384193 
L 123.825333 272.384193 
L 123.825333 272.258317 
L 124.046648 272.258317 
L 124.156336 271.88069 
L 124.588805 271.88069 
L 124.695386 271.628938 
L 124.801367 271.628938 
L 124.906754 271.377186 
L 125.526971 271.377186 
L 125.526971 270.999559 
L 125.729248 270.999559 
L 125.829577 270.496055 
L 126.028642 270.496055 
L 126.127391 269.866676 
L 126.323346 269.866676 
L 126.420564 269.237297 
L 126.613505 269.237297 
L 126.709238 268.985545 
L 126.899255 268.985545 
L 126.993549 268.607917 
L 127.087372 268.607917 
L 127.087372 268.482041 
L 127.366067 268.482041 
L 127.366067 268.23029 
L 127.549596 268.23029 
L 127.640693 267.726786 
L 127.731351 267.726786 
L 127.731351 267.60091 
L 128.089678 267.60091 
L 128.178203 267.349159 
L 128.614685 267.349159 
L 128.614685 267.223283 
L 128.786481 267.223283 
L 128.786481 267.097407 
L 128.956723 267.097407 
L 129.041269 266.468028 
L 129.125437 266.468028 
L 129.125437 266.342152 
L 129.375706 266.342152 
L 129.375706 266.216276 
L 129.78556 266.216276 
L 129.86647 265.838648 
L 130.186674 265.838648 
L 130.186674 265.712772 
L 130.344755 265.712772 
L 130.344755 265.461021 
L 130.887807 265.461021 
L 130.887807 265.209269 
L 131.040128 265.209269 
L 131.040128 264.957517 
L 131.191226 264.957517 
L 131.266322 264.328138 
L 131.489828 264.328138 
L 131.563744 264.076386 
L 131.63737 264.076386 
L 131.63737 263.95051 
L 131.856536 263.95051 
L 131.929028 263.447007 
L 132.358208 263.447007 
L 132.428795 263.195255 
L 132.915628 263.195255 
L 132.915628 263.069379 
L 133.188264 263.069379 
L 133.188264 262.943503 
L 133.457005 262.943503 
L 133.457005 262.817628 
L 133.589949 262.817628 
L 133.589949 262.565876 
L 133.78762 262.565876 
L 133.78762 262.44 
L 134.112526 262.44 
L 134.112526 262.188248 
L 134.304809 262.188248 
L 134.304809 262.062372 
L 134.745971 262.062372 
L 134.745971 261.936497 
L 135.116046 261.936497 
L 135.116046 261.810621 
L 135.59842 261.810621 
L 135.59842 261.684745 
L 135.835047 261.684745 
L 135.835047 261.432993 
L 136.068734 261.432993 
L 136.068734 261.181241 
L 136.184497 261.181241 
L 136.184497 260.803614 
L 136.696795 260.803614 
L 136.696795 260.677738 
L 137.085822 260.677738 
L 137.195511 260.425986 
L 137.998402 260.425986 
L 138.050729 259.922483 
L 138.768422 259.922483 
L 138.818654 259.670731 
L 139.018248 259.670731 
L 139.018248 259.418979 
L 140.26641 259.418979 
L 140.26641 259.293103 
L 140.58877 259.293103 
L 140.58877 259.167228 
L 142.45627 259.167228 
L 142.45627 259.041352 
L 143.344534 259.041352 
L 143.344534 258.7896 
L 143.501625 258.7896 
L 143.501625 258.663724 
L 144.380294 258.663724 
L 144.380294 258.537848 
L 145.040416 258.537848 
L 145.040416 258.286097 
L 145.643288 258.286097 
L 145.643288 258.160221 
L 147.847333 258.160221 
L 147.878349 257.782593 
L 148.518156 257.782593 
L 148.518156 257.530841 
L 148.932916 257.530841 
L 148.932916 257.27909 
L 150.932483 257.27909 
L 150.932483 257.027338 
L 151.246016 257.027338 
L 151.246016 256.901462 
L 151.50336 256.901462 
L 151.50336 256.64971 
L 152.279463 256.64971 
L 152.328451 256.272083 
L 153.02481 256.272083 
L 153.071898 255.894455 
L 153.142309 255.894455 
L 153.142309 255.768579 
L 154.563149 255.768579 
L 154.563149 255.642703 
L 154.843441 255.642703 
L 154.843441 255.516828 
L 155.098517 255.516828 
L 155.098517 255.390952 
L 155.639595 255.390952 
L 155.741887 255.1392 
L 155.863909 255.1392 
L 155.863909 255.013324 
L 156.165543 255.013324 
L 156.165543 254.635697 
L 156.34423 254.635697 
L 156.34423 254.509821 
L 156.599372 254.509821 
L 156.599372 254.258069 
L 157.099504 254.258069 
L 157.099504 254.132193 
L 157.344671 254.132193 
L 157.363398 253.62869 
L 157.475372 253.62869 
L 157.549652 253.251062 
L 158.115593 253.251062 
L 158.223191 252.747559 
L 158.25892 252.747559 
L 158.347948 252.369931 
L 158.471883 252.369931 
L 158.471883 252.244055 
L 158.665004 252.244055 
L 158.665004 252.118179 
L 158.786875 252.118179 
L 158.838864 251.866428 
L 159.045398 251.866428 
L 159.045398 251.614676 
L 159.367841 251.614676 
L 159.418251 250.985297 
L 159.701388 250.985297 
L 159.701388 250.859421 
L 159.833168 250.859421 
L 159.915064 250.481793 
L 160.012872 250.481793 
L 160.012872 250.355917 
L 160.158636 250.355917 
L 160.174762 250.104166 
L 160.319282 250.104166 
L 160.319282 249.97829 
L 160.4627 249.97829 
L 160.557708 249.600662 
L 160.793149 249.600662 
L 160.902022 249.223034 
L 160.917524 249.223034 
L 160.948489 248.593655 
L 161.087207 248.593655 
L 161.13322 247.964276 
L 161.209658 247.964276 
L 161.255373 247.712524 
L 161.331318 247.712524 
L 161.437128 246.831393 
L 161.482294 246.831393 
L 161.542347 246.579641 
L 161.661881 246.579641 
L 161.765853 246.076138 
L 161.78066 246.076138 
L 161.810238 245.69851 
L 161.942766 245.69851 
L 161.942766 245.572634 
L 162.306075 245.572634 
L 162.392235 244.565628 
L 162.620084 244.565628 
L 162.690724 243.810372 
L 162.761101 243.810372 
L 162.859187 243.306869 
L 163.053839 243.306869 
L 163.122872 242.803366 
L 163.205379 242.803366 
L 163.219095 242.299862 
L 163.464289 242.299862 
L 163.464289 242.04811 
L 163.612572 242.04811 
L 163.719684 241.544607 
L 163.812909 241.544607 
L 163.812909 241.166979 
L 164.050532 241.166979 
L 164.142137 240.663476 
L 164.259262 240.663476 
L 164.311084 240.411724 
L 164.440019 240.411724 
L 164.542535 240.034097 
L 164.55531 240.034097 
L 164.63178 239.530593 
L 164.669899 239.530593 
L 164.758543 239.02709 
L 164.80901 239.02709 
L 164.871904 238.775338 
L 164.934588 238.775338 
L 164.934588 238.523586 
L 165.121398 238.523586 
L 165.121398 238.271834 
L 165.232599 238.271834 
L 165.232599 238.145959 
L 165.367626 238.145959 
L 165.45305 237.768331 
L 165.634805 237.768331 
L 165.682978 237.516579 
L 165.886348 237.516579 
L 165.957604 237.013076 
L 166.052194 237.013076 
L 166.111072 236.509572 
L 166.251633 236.509572 
L 166.251633 236.383697 
L 166.379563 236.383697 
L 166.47206 235.628441 
L 166.541136 235.628441 
L 166.598506 235.37669 
L 166.826251 235.37669 
L 166.882759 234.621434 
L 167.15166 234.621434 
L 167.173896 234.117931 
L 167.44965 234.117931 
L 167.44965 233.866179 
L 167.569712 233.866179 
L 167.656552 233.614428 
L 167.807563 233.614428 
L 167.91469 232.607421 
L 168.021211 232.607421 
L 168.074246 231.852166 
L 168.263944 231.852166 
L 168.358081 231.474538 
L 168.378936 231.474538 
L 168.378936 231.222786 
L 168.565601 231.222786 
L 168.575917 230.719283 
L 168.770857 230.719283 
L 168.770857 230.593407 
L 168.892945 230.593407 
L 168.963798 230.089903 
L 169.034386 230.089903 
L 169.034386 229.838152 
L 169.274409 229.838152 
L 169.274409 229.5864 
L 169.550619 229.5864 
L 169.550619 229.334648 
L 169.677494 229.334648 
L 169.716361 228.957021 
L 169.8614 228.957021 
L 169.8614 228.705269 
L 170.110183 228.705269 
L 170.138678 228.327641 
L 170.346334 228.327641 
L 170.439971 227.950014 
L 170.708911 227.950014 
L 170.809925 227.44651 
L 170.83738 227.44651 
L 170.873925 227.068883 
L 171.154768 227.068883 
L 171.244475 226.691255 
L 171.475731 226.691255 
L 171.475731 226.565379 
L 171.860725 226.565379 
L 171.88669 226.061876 
L 172.067447 226.061876 
L 172.067447 225.684248 
L 172.204011 225.684248 
L 172.204011 225.432497 
L 172.4742 225.432497 
L 172.4742 225.180745 
L 172.699191 225.180745 
L 172.757085 224.42549 
L 172.946065 224.42549 
L 172.986898 224.047862 
L 173.108866 224.047862 
L 173.18167 223.040855 
L 173.254192 223.040855 
L 173.326436 222.411476 
L 173.406384 222.411476 
L 173.501874 221.656221 
L 173.525671 221.656221 
L 173.557354 220.900966 
L 173.667825 220.900966 
L 173.667825 220.649214 
L 173.832324 220.649214 
L 173.917919 220.14571 
L 173.987664 220.14571 
L 174.05715 219.642207 
L 174.111019 219.642207 
L 174.111019 219.516331 
L 174.324962 219.516331 
L 174.370492 219.138703 
L 174.446132 219.138703 
L 174.446132 218.886952 
L 174.596505 218.886952 
L 174.678701 218.383448 
L 174.834629 218.383448 
L 174.930512 217.879945 
L 174.95257 217.879945 
L 175.018589 217.250566 
L 175.128107 217.250566 
L 175.171736 216.747062 
L 175.409906 216.747062 
L 175.488631 215.740055 
L 175.552798 215.740055 
L 175.638014 215.236552 
L 175.758081 215.236552 
L 175.842375 214.858924 
L 175.898362 214.858924 
L 175.898362 214.733048 
L 176.079176 214.733048 
L 176.141363 213.851917 
L 176.340357 213.851917 
L 176.340357 213.726041 
L 176.496696 213.726041 
L 176.537267 213.348414 
L 176.712072 213.348414 
L 176.738821 212.970786 
L 176.931626 212.970786 
L 177.03716 212.719034 
L 177.076584 212.719034 
L 177.076584 212.467283 
L 177.226946 212.467283 
L 177.226946 212.341407 
L 177.395487 212.341407 
L 177.395487 212.089655 
L 177.556133 212.089655 
L 177.556133 211.837903 
L 177.785079 211.837903 
L 177.829275 211.3344 
L 177.936177 211.3344 
L 177.998778 210.705021 
L 178.104724 210.705021 
L 178.210076 210.201517 
L 178.24095 210.201517 
L 178.314842 209.82389 
L 178.376197 209.82389 
L 178.480044 209.068634 
L 178.625683 209.068634 
L 178.643809 208.691007 
L 178.81813 208.691007 
L 178.865936 208.187503 
L 178.943362 208.187503 
L 178.961184 207.684 
L 179.249919 207.684 
L 179.308303 206.928745 
L 179.672018 206.928745 
L 179.723408 206.425241 
L 179.79171 206.425241 
L 179.842775 205.418234 
L 179.933215 205.418234 
L 179.978273 204.914731 
L 180.056865 204.914731 
L 180.123969 204.159476 
L 180.472392 204.159476 
L 180.543493 203.907724 
L 180.792944 203.907724 
L 180.792944 203.781848 
L 181.092225 203.781848 
L 181.092225 203.530097 
L 181.29263 203.530097 
L 181.345015 203.026593 
L 181.444147 203.026593 
L 181.490923 202.774841 
L 181.573793 202.774841 
L 181.67687 202.271338 
L 181.850816 202.271338 
L 181.942258 201.516083 
L 182.063492 201.516083 
L 182.153909 201.012579 
L 182.203953 201.012579 
L 182.238904 200.509076 
L 182.33841 200.509076 
L 182.442328 200.131448 
L 182.565296 200.131448 
L 182.614259 199.753821 
L 182.745826 199.753821 
L 182.828195 199.124441 
L 182.85718 199.124441 
L 182.85718 198.998566 
L 183.158861 198.998566 
L 183.25363 197.865683 
L 183.286686 197.865683 
L 183.366726 197.488055 
L 183.413649 197.488055 
L 183.446426 197.236303 
L 183.711218 197.236303 
L 183.821604 196.481048 
L 183.876555 196.481048 
L 183.876555 196.229297 
L 184.049515 196.229297 
L 184.103805 195.599917 
L 184.306009 195.599917 
L 184.306009 195.474041 
L 184.417413 195.474041 
L 184.417413 195.096414 
L 184.554643 195.096414 
L 184.576684 194.844662 
L 184.730249 194.844662 
L 184.738986 194.59291 
L 184.938833 194.59291 
L 184.938833 194.467034 
L 185.204877 194.467034 
L 185.251688 193.837655 
L 185.378765 193.837655 
L 185.475612 193.585903 
L 185.492405 193.585903 
L 185.504989 193.208276 
L 185.734223 193.208276 
L 185.77147 192.956524 
L 186.066816 192.956524 
L 186.066816 192.704772 
L 186.180433 192.704772 
L 186.180433 192.578897 
L 186.453534 192.578897 
L 186.461507 192.201269 
L 186.608395 192.201269 
L 186.714865 191.823641 
L 186.746296 191.823641 
L 186.746296 191.697766 
L 186.894881 191.697766 
L 186.894881 191.57189 
L 187.134818 191.57189 
L 187.154035 191.194262 
L 187.352737 191.194262 
L 187.386916 190.816634 
L 187.485307 190.816634 
L 187.590694 190.439007 
L 187.729056 190.439007 
L 187.729056 190.313131 
L 187.984395 190.313131 
L 187.984395 190.061379 
L 188.141784 190.061379 
L 188.214542 189.683752 
L 188.290636 189.683752 
L 188.290636 189.557876 
L 188.591972 189.557876 
L 188.602645 189.180248 
L 188.744379 189.180248 
L 188.797255 188.928497 
L 188.951507 188.928497 
L 188.951507 188.676745 
L 189.194329 188.676745 
L 189.194329 188.550869 
L 189.417035 188.550869 
L 189.505384 188.047366 
L 189.579818 188.047366 
L 189.637135 187.795614 
L 190.10591 187.795614 
L 190.151824 187.417986 
L 190.418521 187.417986 
L 190.418521 187.29211 
L 190.576102 187.29211 
L 190.576102 187.166234 
L 190.687857 187.166234 
L 190.729198 186.536855 
L 190.862142 186.536855 
L 190.862142 186.285103 
L 191.310948 186.285103 
L 191.310948 186.159228 
L 192.003328 186.159228 
L 192.003328 186.033352 
L 192.283245 186.033352 
L 192.283245 185.907476 
L 192.659662 185.907476 
L 192.73976 185.529848 
L 192.915915 185.529848 
L 192.915915 185.278097 
L 193.30772 185.278097 
L 193.30772 185.152221 
L 193.705095 185.152221 
L 193.705095 185.026345 
L 194.1367 185.026345 
L 194.184345 184.648717 
L 194.431212 184.648717 
L 194.537882 184.145214 
L 194.943385 184.145214 
L 195.034568 183.893462 
L 195.315455 183.893462 
L 195.315455 183.767586 
L 196.138562 183.767586 
L 196.138562 183.64171 
L 196.347081 183.64171 
L 196.403551 183.389959 
L 196.569622 183.389959 
L 196.613816 183.012331 
L 196.782655 183.012331 
L 196.782655 182.886455 
L 197.316111 182.886455 
L 197.412105 182.382952 
L 198.495878 182.382952 
L 198.527383 182.1312 
L 198.854005 182.1312 
L 198.854005 182.005324 
L 199.556396 182.005324 
L 199.556396 181.753572 
L 199.687073 181.753572 
L 199.687073 181.627697 
L 199.87359 181.627697 
L 199.87359 181.501821 
L 200.46778 181.501821 
L 200.46778 181.375945 
L 200.809169 181.375945 
L 200.809169 181.250069 
L 201.228283 181.250069 
L 201.228283 181.124193 
L 201.550904 181.124193 
L 201.588393 180.746566 
L 201.675578 180.746566 
L 201.675578 180.62069 
L 201.818821 180.62069 
L 201.818821 180.494814 
L 202.178277 180.494814 
L 202.178277 180.368938 
L 202.502135 180.368938 
L 202.502135 180.243062 
L 203.246601 180.243062 
L 203.246601 180.117186 
L 203.939129 180.117186 
L 203.956434 179.739559 
L 204.426961 179.739559 
L 204.426961 179.613683 
L 204.716118 179.613683 
L 204.716118 179.487807 
L 205.011307 179.487807 
L 205.011307 179.361931 
L 205.244755 179.361931 
L 205.244755 179.236055 
L 205.536164 179.236055 
L 205.596791 178.606676 
L 206.001693 178.606676 
L 206.083324 178.229048 
L 206.508226 178.229048 
L 206.508226 178.103172 
L 206.620477 178.103172 
L 206.620477 177.977297 
L 206.957288 177.977297 
L 206.957288 177.851421 
L 207.101521 177.851421 
L 207.101521 177.725545 
L 207.344731 177.725545 
L 207.382778 177.473793 
L 207.465168 177.473793 
L 207.486035 177.096166 
L 207.811672 177.096166 
L 207.855179 176.718538 
L 208.158199 176.718538 
L 208.158199 176.466786 
L 208.367072 176.466786 
L 208.367072 176.34091 
L 208.48363 176.34091 
L 208.486102 175.963283 
L 209.331979 175.963283 
L 209.331979 175.711531 
L 209.782646 175.711531 
L 209.866675 175.459779 
L 210.298126 175.459779 
L 210.34745 175.082152 
L 211.036619 175.082152 
L 211.036619 174.8304 
L 211.211721 174.8304 
L 211.282161 174.452772 
L 211.550811 174.452772 
L 211.550811 174.326897 
L 212.232467 174.326897 
L 212.232467 174.201021 
L 213.069379 174.201021 
L 213.069379 173.949269 
L 213.42063 173.949269 
L 213.42063 173.697517 
L 214.162637 173.697517 
L 214.162637 173.571641 
L 214.304688 173.571641 
L 214.304688 173.445766 
L 214.468169 173.445766 
L 214.468169 173.194014 
L 214.704987 173.194014 
L 214.722739 172.816386 
L 214.855353 172.816386 
L 214.881763 172.564634 
L 214.983538 172.564634 
L 214.989662 172.312883 
L 215.362935 172.312883 
L 215.362935 172.187007 
L 215.718008 172.187007 
L 215.718008 171.935255 
L 216.549275 171.935255 
L 216.549275 171.683503 
L 216.769389 171.683503 
L 216.769389 171.431752 
L 217.075634 171.431752 
L 217.076417 171.18 
L 217.55335 171.18 
L 217.55335 171.054124 
L 218.0646 171.054124 
L 218.167567 170.676497 
L 218.242034 170.676497 
L 218.242034 170.550621 
L 218.553639 170.550621 
L 218.553639 170.424745 
L 218.686339 170.424745 
L 218.769519 170.172993 
L 218.803117 170.172993 
L 218.803117 170.047117 
L 219.09439 170.047117 
L 219.09439 169.921241 
L 220.154659 169.921241 
L 220.154659 169.795366 
L 220.289111 169.795366 
L 220.289111 169.66949 
L 220.698421 169.66949 
L 220.736482 169.417738 
L 220.836108 169.417738 
L 220.836108 169.291862 
L 220.998234 169.291862 
L 221.076244 168.914234 
L 221.750721 168.914234 
L 221.842093 168.410731 
L 222.848912 168.410731 
L 222.958607 168.158979 
L 222.963761 168.158979 
L 222.963761 168.033103 
L 223.850503 168.033103 
L 223.850503 167.781352 
L 224.179118 167.781352 
L 224.179118 167.655476 
L 224.645038 167.655476 
L 224.726014 167.151972 
L 224.769232 167.151972 
L 224.769232 166.900221 
L 225.140026 166.900221 
L 225.140026 166.648469 
L 225.386747 166.648469 
L 225.386747 166.522593 
L 225.630771 166.522593 
L 225.630771 166.396717 
L 226.355881 166.396717 
L 226.355881 166.270841 
L 226.636298 166.270841 
L 226.640536 166.01909 
L 226.752267 166.01909 
L 226.752267 165.893214 
L 226.920484 165.893214 
L 226.920484 165.767338 
L 227.139097 165.767338 
L 227.198613 165.263834 
L 227.329796 165.263834 
L 227.421264 164.886207 
L 227.566604 164.886207 
L 227.566604 164.760331 
L 228.086915 164.760331 
L 228.086915 164.634455 
L 229.447835 164.634455 
L 229.45554 164.256828 
L 229.704831 164.256828 
L 229.704831 164.130952 
L 229.902229 164.130952 
L 229.902229 164.005076 
L 230.079938 164.005076 
L 230.079938 163.8792 
L 230.360979 163.8792 
L 230.360979 163.753324 
L 230.899136 163.753324 
L 230.984548 163.249821 
L 231.14199 163.249821 
L 231.161994 162.872193 
L 231.34145 162.872193 
L 231.34145 162.620441 
L 231.518483 162.620441 
L 231.518483 162.494566 
L 232.552906 162.494566 
L 232.552906 162.36869 
L 232.711788 162.36869 
L 232.711788 162.242814 
L 233.092862 162.242814 
L 233.092862 162.116938 
L 233.401399 162.116938 
L 233.401399 161.991062 
L 233.607999 161.991062 
L 233.607999 161.865186 
L 233.842561 161.865186 
L 233.842561 161.73931 
L 234.325634 161.73931 
L 234.325634 161.613434 
L 234.737615 161.613434 
L 234.819183 161.361683 
L 235.297142 161.361683 
L 235.407669 160.984055 
L 235.430109 160.984055 
L 235.455176 160.732303 
L 235.615985 160.732303 
L 235.615985 160.606428 
L 235.756008 160.606428 
L 235.756008 160.480552 
L 236.010662 160.480552 
L 236.010662 160.2288 
L 236.123914 160.2288 
L 236.174471 159.977048 
L 236.473598 159.977048 
L 236.473598 159.851172 
L 236.785076 159.851172 
L 236.785076 159.725297 
L 237.89118 159.725297 
L 237.947021 159.473545 
L 238.548579 159.473545 
L 238.548579 159.347669 
L 238.877706 159.347669 
L 238.979877 158.970041 
L 240.168639 158.970041 
L 240.168639 158.844166 
L 240.288912 158.844166 
L 240.288912 158.71829 
L 240.811732 158.71829 
L 240.921143 158.214786 
L 241.394705 158.214786 
L 241.500574 157.837159 
L 241.630061 157.837159 
L 241.680295 157.333655 
L 241.827887 157.333655 
L 241.913381 156.5784 
L 242.087562 156.5784 
L 242.087562 156.452524 
L 242.232416 156.452524 
L 242.232416 156.326648 
L 242.52975 156.326648 
L 242.551993 155.823145 
L 242.868019 155.823145 
L 242.868019 155.697269 
L 243.034604 155.697269 
L 243.034604 155.571393 
L 243.664872 155.571393 
L 243.664872 155.445517 
L 244.232799 155.445517 
L 244.281712 155.193766 
L 245.230316 155.193766 
L 245.276356 154.942014 
L 245.68521 154.942014 
L 245.68521 154.816138 
L 246.205902 154.816138 
L 246.260075 154.564386 
L 246.58057 154.564386 
L 246.679169 154.312634 
L 246.694255 154.312634 
L 246.694255 154.060883 
L 246.833511 154.060883 
L 246.895537 153.431503 
L 246.975098 153.431503 
L 246.975098 153.305628 
L 247.327061 153.305628 
L 247.329726 153.053876 
L 247.523735 153.053876 
L 247.523735 152.928 
L 247.827696 152.928 
L 247.827696 152.676248 
L 248.602197 152.676248 
L 248.602197 152.550372 
L 248.809099 152.550372 
L 248.809099 152.424497 
L 248.998693 152.424497 
L 248.998693 152.172745 
L 249.665833 152.172745 
L 249.665833 152.046869 
L 249.859639 152.046869 
L 249.967451 151.795117 
L 251.163731 151.795117 
L 251.163731 151.669241 
L 252.232498 151.669241 
L 252.238053 151.291614 
L 252.680589 151.291614 
L 252.680589 151.165738 
L 252.857861 151.165738 
L 252.857861 151.039862 
L 252.982589 151.039862 
L 252.982589 150.913986 
L 253.127472 150.913986 
L 253.127472 150.78811 
L 253.339479 150.78811 
L 253.339479 150.662234 
L 253.586367 150.662234 
L 253.586367 150.536359 
L 254.192059 150.536359 
L 254.299835 150.284607 
L 254.588943 150.284607 
L 254.588943 150.032855 
L 255.019338 150.032855 
L 255.031313 149.529352 
L 255.364476 149.529352 
L 255.364476 149.403476 
L 255.535307 149.403476 
L 255.594198 148.774097 
L 255.882934 148.774097 
L 255.933506 148.522345 
L 256.802932 148.522345 
L 256.802932 148.270593 
L 257.030913 148.270593 
L 257.030913 148.144717 
L 257.359373 148.144717 
L 257.44005 147.76709 
L 257.864133 147.76709 
L 257.864133 147.641214 
L 258.15072 147.641214 
L 258.218856 147.263586 
L 258.641139 147.263586 
L 258.706754 147.011834 
L 258.757289 147.011834 
L 258.757289 146.885959 
L 259.05852 146.885959 
L 259.159596 146.508331 
L 259.416531 146.508331 
L 259.416531 146.256579 
L 259.615013 146.256579 
L 259.615013 146.130703 
L 259.909588 146.130703 
L 259.909588 146.004828 
L 260.501524 146.004828 
L 260.501524 145.878952 
L 260.63855 145.878952 
L 260.710117 145.6272 
L 261.03875 145.6272 
L 261.03875 145.501324 
L 261.408747 145.501324 
L 261.448532 144.871945 
L 262.429621 144.871945 
L 262.429621 144.746069 
L 262.834571 144.746069 
L 262.853399 144.494317 
L 263.147933 144.494317 
L 263.147933 144.368441 
L 263.276237 144.368441 
L 263.276237 144.242566 
L 263.590975 144.242566 
L 263.590975 143.990814 
L 263.70449 143.990814 
L 263.70449 143.864938 
L 263.883114 143.864938 
L 263.883114 143.739062 
L 264.367821 143.739062 
L 264.367821 143.613186 
L 265.950009 143.613186 
L 266.023505 143.109683 
L 266.087521 143.109683 
L 266.087521 142.983807 
L 266.61441 142.983807 
L 266.659963 142.732055 
L 267.157618 142.732055 
L 267.157618 142.480303 
L 267.800192 142.480303 
L 267.800192 142.354428 
L 267.931788 142.354428 
L 267.931788 142.228552 
L 268.706828 142.228552 
L 268.782154 141.850924 
L 268.843247 141.850924 
L 268.843247 141.725048 
L 269.128557 141.725048 
L 269.128557 141.599172 
L 269.738601 141.599172 
L 269.738601 141.473297 
L 270.141509 141.473297 
L 270.25247 140.843917 
L 270.309531 140.843917 
L 270.309531 140.718041 
L 270.800723 140.718041 
L 270.868711 140.46629 
L 271.071701 140.46629 
L 271.071701 140.340414 
L 271.692038 140.340414 
L 271.692038 140.214538 
L 271.89339 140.214538 
L 271.89339 139.962786 
L 272.608567 139.962786 
L 272.608567 139.711034 
L 273.302198 139.711034 
L 273.302198 139.459283 
L 273.542138 139.459283 
L 273.583806 139.081655 
L 274.076147 139.081655 
L 274.076147 138.829903 
L 360.8064 138.829903 
L 360.8064 138.829903 
" style="fill: none; stroke: #ff00ff; stroke-width: 1.5; stroke-linecap: square"/>
   </g>
   <g id="line2d_41">
    <defs>
     <path id="m9b7bcd3705" d="M 0 8.485281 
L 5.091169 0 
L 0 -8.485281 
L -5.091169 0 
z
" style="stroke: #ff00ff; stroke-width: 1.5; stroke-linejoin: miter"/>
    </defs>
    <g>
     <use xlink:href="#m9b7bcd3705" x="125.526971" y="270.999559" style="fill-opacity: 0; stroke: #ff00ff; stroke-width: 1.5; stroke-linejoin: miter"/>
     <use xlink:href="#m9b7bcd3705" x="201.818821" y="180.494814" style="fill-opacity: 0; stroke: #ff00ff; stroke-width: 1.5; stroke-linejoin: miter"/>
     <use xlink:href="#m9b7bcd3705" x="274.076147" y="139.081655" style="fill-opacity: 0; stroke: #ff00ff; stroke-width: 1.5; stroke-linejoin: miter"/>
     <use xlink:href="#m9b7bcd3705" x="274.076147" y="138.829903" style="fill-opacity: 0; stroke: #ff00ff; stroke-width: 1.5; stroke-linejoin: miter"/>
     <use xlink:href="#m9b7bcd3705" x="274.076147" y="138.829903" style="fill-opacity: 0; stroke: #ff00ff; stroke-width: 1.5; stroke-linejoin: miter"/>
     <use xlink:href="#m9b7bcd3705" x="360.8064" y="138.829903" style="fill-opacity: 0; stroke: #ff00ff; stroke-width: 1.5; stroke-linejoin: miter"/>
    </g>
   </g>
   <g id="line2d_42">
    <path style="fill: none; stroke: #ff00ff; stroke-width: 1.5; stroke-linecap: square"/>
    <g/>
   </g>
   <g id="line2d_43">
    <path d="M 274.176038 138.829903 
" clip-path="url(#p444e5d8f34)" style="fill: none; stroke: #ff00ff; stroke-width: 1.5; stroke-linecap: square"/>
    <defs>
     <path id="m49d627d042" d="M -12 12 
L 12 -12 
M -12 -12 
L 12 12 
" style="stroke: #ff00ff"/>
    </defs>
    <g clip-path="url(#p444e5d8f34)">
     <use xlink:href="#m49d627d042" x="274.176038" y="138.829903" style="fill: #ff00ff; stroke: #ff00ff"/>
    </g>
   </g>
   <g id="line2d_44">
    <defs>
     <path id="m1813d5829c" d="M 0 1.5 
C 0.397805 1.5 0.77937 1.341951 1.06066 1.06066 
C 1.341951 0.77937 1.5 0.397805 1.5 0 
C 1.5 -0.397805 1.341951 -0.77937 1.06066 -1.06066 
C 0.77937 -1.341951 0.397805 -1.5 0 -1.5 
C -0.397805 -1.5 -0.77937 -1.341951 -1.06066 -1.06066 
C -1.341951 -0.77937 -1.5 -0.397805 -1.5 0 
C -1.5 0.397805 -1.341951 0.77937 -1.06066 1.06066 
C -0.77937 1.341951 -0.397805 1.5 0 1.5 
z
" style="stroke: #6495ed"/>
    </defs>
    <g>
     <use xlink:href="#m1813d5829c" x="113.765312" y="251.362924" style="fill: #6495ed; stroke: #6495ed"/>
     <use xlink:href="#m1813d5829c" x="113.765312" y="251.362924" style="fill: #6495ed; stroke: #6495ed"/>
    </g>
   </g>
   <g id="line2d_45">
    <path d="M 27.323974 298.944 
L 27.323974 296.678234 
L 40.363149 296.678234 
L 40.363149 294.664221 
L 47.990577 294.664221 
L 47.990577 293.78309 
L 53.402323 293.78309 
L 53.402323 292.650207 
L 57.6 292.650207 
L 57.6 291.894952 
L 61.029752 291.894952 
L 61.029752 290.887945 
L 63.929565 290.887945 
L 63.929565 290.636193 
L 66.441498 290.636193 
L 66.441498 288.999807 
L 68.65718 288.999807 
L 68.65718 288.748055 
L 70.639174 288.748055 
L 70.639174 287.9928 
L 72.432107 287.9928 
L 72.432107 287.489297 
L 74.068926 287.489297 
L 74.068926 287.111669 
L 75.574654 287.111669 
L 75.574654 285.978786 
L 76.96874 285.978786 
L 76.96874 285.475283 
L 78.266603 285.475283 
L 78.266603 284.971779 
L 80.621116 284.971779 
L 80.621116 284.594152 
L 81.696354 284.594152 
L 81.696354 283.713021 
L 82.713442 283.713021 
L 82.713442 283.461269 
L 84.596168 283.461269 
L 84.596168 283.209517 
L 85.471281 283.209517 
L 85.471281 282.706014 
L 87.1081 282.706014 
L 87.1081 282.580138 
L 87.876026 282.580138 
L 87.876026 282.454262 
L 89.323782 282.454262 
L 89.323782 282.328386 
L 90.007914 282.328386 
L 90.007914 282.076634 
L 90.668036 282.076634 
L 90.668036 281.573131 
L 91.305777 281.573131 
L 91.305777 281.447255 
L 91.922605 281.447255 
L 91.922605 281.195503 
L 93.66029 281.195503 
L 93.66029 281.069628 
L 94.205591 281.069628 
L 94.205591 280.943752 
L 94.735529 280.943752 
L 94.735529 280.817876 
L 95.250946 280.817876 
L 95.250946 280.692 
L 95.752617 280.692 
L 95.752617 280.566124 
L 97.18203 280.566124 
L 97.18203 280.440248 
L 97.635342 280.440248 
L 97.635342 280.188497 
L 98.077987 280.188497 
L 98.077987 279.810869 
L 99.346662 279.810869 
L 99.346662 279.559117 
L 100.147275 279.559117 
L 100.147275 279.433241 
L 100.9152 279.433241 
L 100.9152 278.929738 
L 101.287718 278.929738 
L 101.287718 278.677986 
L 101.653002 278.677986 
L 101.653002 278.426234 
L 102.362957 278.426234 
L 102.362957 277.670979 
L 102.708132 277.670979 
L 102.708132 277.167476 
L 103.047088 277.167476 
L 103.047088 275.656966 
L 103.380045 275.656966 
L 103.380045 274.020579 
L 103.707211 274.020579 
L 103.707211 272.384193 
L 104.028784 272.384193 
L 104.028784 271.754814 
L 104.344952 271.754814 
L 104.344952 271.503062 
L 104.655893 271.503062 
L 104.655893 270.747807 
L 104.961779 270.747807 
L 104.961779 269.489048 
L 105.26277 269.489048 
L 105.26277 267.852662 
L 105.559021 267.852662 
L 105.559021 267.475034 
L 105.850679 267.475034 
L 105.850679 266.845655 
L 106.137884 266.845655 
L 106.137884 265.335145 
L 106.42077 265.335145 
L 106.42077 264.705766 
L 106.699465 264.705766 
L 106.699465 264.202262 
L 106.974091 264.202262 
L 106.974091 263.824634 
L 107.244765 263.824634 
L 107.244765 263.572883 
L 107.5116 263.572883 
L 107.5116 263.069379 
L 107.774703 263.069379 
L 107.774703 262.691752 
L 108.034177 262.691752 
L 108.034177 262.188248 
L 108.542628 262.188248 
L 108.542628 261.432993 
L 108.791791 261.432993 
L 108.791791 260.677738 
L 109.037698 260.677738 
L 109.037698 260.174234 
L 109.280431 260.174234 
L 109.280431 259.670731 
L 109.520071 259.670731 
L 109.520071 259.041352 
L 109.756698 259.041352 
L 109.756698 258.411972 
L 109.990385 258.411972 
L 109.990385 258.034345 
L 110.221204 258.034345 
L 110.221204 257.782593 
L 110.449226 257.782593 
L 110.449226 257.404966 
L 110.674517 257.404966 
L 110.674517 256.901462 
L 110.897141 256.901462 
L 110.897141 255.894455 
L 111.54963 255.894455 
L 111.54963 255.768579 
L 111.762192 255.768579 
L 111.762192 255.516828 
L 111.97238 255.516828 
L 111.97238 255.390952 
L 112.180244 255.390952 
L 112.180244 254.761572 
L 112.385837 254.761572 
L 112.385837 254.509821 
L 112.589207 254.509821 
L 112.589207 253.880441 
L 112.790402 253.880441 
L 112.790402 253.125186 
L 112.989468 253.125186 
L 112.989468 252.873434 
L 113.381389 252.873434 
L 113.381389 252.369931 
L 113.57433 252.369931 
L 113.57433 251.866428 
L 113.765312 251.866428 
L 113.765312 251.362924 
L 360.8064 251.362924 
L 360.8064 251.362924 
" style="fill: none; stroke: #6495ed; stroke-width: 1.5; stroke-linecap: square"/>
   </g>
   <g id="line2d_46">
    <defs>
     <path id="mbeaf7388cd" d="M -0 6 
L 6 -6 
L -6 -6 
z
" style="stroke: #6495ed; stroke-width: 1.5; stroke-linejoin: miter"/>
    </defs>
    <g>
     <use xlink:href="#mbeaf7388cd" x="101.287718" y="278.929738" style="fill-opacity: 0; stroke: #6495ed; stroke-width: 1.5; stroke-linejoin: miter"/>
     <use xlink:href="#mbeaf7388cd" x="113.765312" y="251.866428" style="fill-opacity: 0; stroke: #6495ed; stroke-width: 1.5; stroke-linejoin: miter"/>
     <use xlink:href="#mbeaf7388cd" x="113.765312" y="251.362924" style="fill-opacity: 0; stroke: #6495ed; stroke-width: 1.5; stroke-linejoin: miter"/>
     <use xlink:href="#mbeaf7388cd" x="113.765312" y="251.362924" style="fill-opacity: 0; stroke: #6495ed; stroke-width: 1.5; stroke-linejoin: miter"/>
     <use xlink:href="#mbeaf7388cd" x="113.765312" y="251.362924" style="fill-opacity: 0; stroke: #6495ed; stroke-width: 1.5; stroke-linejoin: miter"/>
     <use xlink:href="#mbeaf7388cd" x="360.8064" y="251.362924" style="fill-opacity: 0; stroke: #6495ed; stroke-width: 1.5; stroke-linejoin: miter"/>
    </g>
   </g>
   <g id="line2d_47">
    <path style="fill: none; stroke: #6495ed; stroke-width: 1.5; stroke-linecap: square"/>
    <g/>
   </g>
   <g id="line2d_48">
    <path d="M 113.954374 251.362924 
" clip-path="url(#p444e5d8f34)" style="fill: none; stroke: #6495ed; stroke-width: 1.5; stroke-linecap: square"/>
    <defs>
     <path id="m251478d409" d="M -12 12 
L 12 -12 
M -12 -12 
L 12 12 
" style="stroke: #6495ed"/>
    </defs>
    <g clip-path="url(#p444e5d8f34)">
     <use xlink:href="#m251478d409" x="113.954374" y="251.362924" style="fill: #6495ed; stroke: #6495ed"/>
    </g>
   </g>
   <g id="line2d_49">
    <path d="M 360.8064 278.803862 
L 380.514816 293.10336 
" style="fill: none; stroke: #000080; stroke-width: 1.5; stroke-linecap: square"/>
    <g>
     <use xlink:href="#m09cdf314d0" x="360.8064" y="278.803862" style="fill-opacity: 0; stroke: #000080; stroke-width: 1.5"/>
     <use xlink:href="#m09cdf314d0" x="380.514816" y="293.10336" style="fill-opacity: 0; stroke: #000080; stroke-width: 1.5"/>
    </g>
   </g>
   <g id="line2d_50">
    <path d="M 360.8064 251.362924 
L 380.514816 199.65312 
" style="fill: none; stroke: #6495ed; stroke-width: 1.5; stroke-linecap: square"/>
    <g>
     <use xlink:href="#mbeaf7388cd" x="360.8064" y="251.362924" style="fill-opacity: 0; stroke: #6495ed; stroke-width: 1.5; stroke-linejoin: miter"/>
     <use xlink:href="#mbeaf7388cd" x="380.514816" y="199.65312" style="fill-opacity: 0; stroke: #6495ed; stroke-width: 1.5; stroke-linejoin: miter"/>
    </g>
   </g>
   <g id="line2d_51">
    <path d="M 360.8064 138.829903 
L 380.514816 106.20288 
" style="fill: none; stroke: #ff00ff; stroke-width: 1.5; stroke-linecap: square"/>
    <g>
     <use xlink:href="#m9b7bcd3705" x="360.8064" y="138.829903" style="fill-opacity: 0; stroke: #ff00ff; stroke-width: 1.5; stroke-linejoin: miter"/>
     <use xlink:href="#m9b7bcd3705" x="380.514816" y="106.20288" style="fill-opacity: 0; stroke: #ff00ff; stroke-width: 1.5; stroke-linejoin: miter"/>
    </g>
   </g>
   <g id="line2d_52">
    <path d="M 360.8064 298.944 
L 360.8064 6.912 
" style="fill: none; stroke: #000000; stroke-width: 1.5; stroke-linecap: square"/>
   </g>
   <g id="patch_3">
    <path d="M 57.6 298.944 
L 360.8064 298.944 
" style="fill: none; stroke: #000000; stroke-width: 0.8; stroke-linejoin: miter; stroke-linecap: square"/>
   </g>
   <g id="patch_4">
    <path d="M 57.6 6.912 
L 360.8064 6.912 
" style="fill: none; stroke: #000000; stroke-width: 0.8; stroke-linejoin: miter; stroke-linecap: square"/>
   </g>
   <g id="text_13">
    <!-- cma -->
    <g transform="translate(386.578944 296.966485)scale(0.14 -0.14)">
     <use xlink:href="#DejaVuSans-63"/>
     <use xlink:href="#DejaVuSans-6d" x="54.980469"/>
     <use xlink:href="#DejaVuSans-61" x="152.392578"/>
    </g>
   </g>
   <g id="text_14">
    <!-- parEgo -->
    <g transform="translate(386.578944 203.516245)scale(0.14 -0.14)">
     <defs>
      <path id="DejaVuSans-45" d="M 628 4666 
L 3578 4666 
L 3578 4134 
L 1259 4134 
L 1259 2753 
L 3481 2753 
L 3481 2222 
L 1259 2222 
L 1259 531 
L 3634 531 
L 3634 0 
L 628 0 
L 628 4666 
z
" transform="scale(0.015625)"/>
     </defs>
     <use xlink:href="#DejaVuSans-70"/>
     <use xlink:href="#DejaVuSans-61" x="63.476562"/>
     <use xlink:href="#DejaVuSans-72" x="124.755859"/>
     <use xlink:href="#DejaVuSans-45" x="165.869141"/>
     <use xlink:href="#DejaVuSans-67" x="229.052734"/>
     <use xlink:href="#DejaVuSans-6f" x="292.529297"/>
    </g>
   </g>
   <g id="text_15">
    <!-- external- -->
    <g transform="translate(386.578944 110.066005)scale(0.14 -0.14)">
     <defs>
      <path id="DejaVuSans-78" d="M 3513 3500 
L 2247 1797 
L 3578 0 
L 2900 0 
L 1881 1375 
L 863 0 
L 184 0 
L 1544 1831 
L 300 3500 
L 978 3500 
L 1906 2253 
L 2834 3500 
L 3513 3500 
z
" transform="scale(0.015625)"/>
     </defs>
     <use xlink:href="#DejaVuSans-65"/>
     <use xlink:href="#DejaVuSans-78" x="59.773438"/>
     <use xlink:href="#DejaVuSans-74" x="118.953125"/>
     <use xlink:href="#DejaVuSans-65" x="158.162109"/>
     <use xlink:href="#DejaVuSans-72" x="219.685547"/>
     <use xlink:href="#DejaVuSans-6e" x="259.048828"/>
     <use xlink:href="#DejaVuSans-61" x="322.427734"/>
     <use xlink:href="#DejaVuSans-6c" x="383.707031"/>
     <use xlink:href="#DejaVuSans-2d" x="411.490234"/>
    </g>
   </g>
   <g id="text_16">
    <!-- best 2016 -->
    <g transform="translate(386.578944 16.615765)scale(0.14 -0.14)">
     <defs>
      <path id="DejaVuSans-62" d="M 3116 1747 
Q 3116 2381 2855 2742 
Q 2594 3103 2138 3103 
Q 1681 3103 1420 2742 
Q 1159 2381 1159 1747 
Q 1159 1113 1420 752 
Q 1681 391 2138 391 
Q 2594 391 2855 752 
Q 3116 1113 3116 1747 
z
M 1159 2969 
Q 1341 3281 1617 3432 
Q 1894 3584 2278 3584 
Q 2916 3584 3314 3078 
Q 3713 2572 3713 1747 
Q 3713 922 3314 415 
Q 2916 -91 2278 -91 
Q 1894 -91 1617 61 
Q 1341 213 1159 525 
L 1159 0 
L 581 0 
L 581 4863 
L 1159 4863 
L 1159 2969 
z
" transform="scale(0.015625)"/>
     </defs>
     <use xlink:href="#DejaVuSans-62"/>
     <use xlink:href="#DejaVuSans-65" x="63.476562"/>
     <use xlink:href="#DejaVuSans-73" x="125"/>
     <use xlink:href="#DejaVuSans-74" x="177.099609"/>
     <use xlink:href="#DejaVuSans-20" x="216.308594"/>
     <use xlink:href="#DejaVuSans-32" x="248.095703"/>
     <use xlink:href="#DejaVuSans-30" x="311.71875"/>
     <use xlink:href="#DejaVuSans-31" x="375.341797"/>
     <use xlink:href="#DejaVuSans-36" x="438.964844"/>
    </g>
   </g>
   <g id="text_17">
    <!-- bbob-biobj f5, f6, f14, f15, 5-D -->
    <g transform="translate(60.632064 17.582726)scale(0.102 -0.102)">
     <defs>
      <path id="DejaVuSans-6a" d="M 603 3500 
L 1178 3500 
L 1178 -63 
Q 1178 -731 923 -1031 
Q 669 -1331 103 -1331 
L -116 -1331 
L -116 -844 
L 38 -844 
Q 366 -844 484 -692 
Q 603 -541 603 -63 
L 603 3500 
z
M 603 4863 
L 1178 4863 
L 1178 4134 
L 603 4134 
L 603 4863 
z
" transform="scale(0.015625)"/>
      <path id="DejaVuSans-35" d="M 691 4666 
L 3169 4666 
L 3169 4134 
L 1269 4134 
L 1269 2991 
Q 1406 3038 1543 3061 
Q 1681 3084 1819 3084 
Q 2600 3084 3056 2656 
Q 3513 2228 3513 1497 
Q 3513 744 3044 326 
Q 2575 -91 1722 -91 
Q 1428 -91 1123 -41 
Q 819 9 494 109 
L 494 744 
Q 775 591 1075 516 
Q 1375 441 1709 441 
Q 2250 441 2565 725 
Q 2881 1009 2881 1497 
Q 2881 1984 2565 2268 
Q 2250 2553 1709 2553 
Q 1456 2553 1204 2497 
Q 953 2441 691 2322 
L 691 4666 
z
" transform="scale(0.015625)"/>
      <path id="DejaVuSans-44" d="M 1259 4147 
L 1259 519 
L 2022 519 
Q 2988 519 3436 956 
Q 3884 1394 3884 2338 
Q 3884 3275 3436 3711 
Q 2988 4147 2022 4147 
L 1259 4147 
z
M 628 4666 
L 1925 4666 
Q 3281 4666 3915 4102 
Q 4550 3538 4550 2338 
Q 4550 1131 3912 565 
Q 3275 0 1925 0 
L 628 0 
L 628 4666 
z
" transform="scale(0.015625)"/>
     </defs>
     <use xlink:href="#DejaVuSans-62"/>
     <use xlink:href="#DejaVuSans-62" x="63.476562"/>
     <use xlink:href="#DejaVuSans-6f" x="126.953125"/>
     <use xlink:href="#DejaVuSans-62" x="188.134766"/>
     <use xlink:href="#DejaVuSans-2d" x="251.611328"/>
     <use xlink:href="#DejaVuSans-62" x="287.695312"/>
     <use xlink:href="#DejaVuSans-69" x="351.171875"/>
     <use xlink:href="#DejaVuSans-6f" x="378.955078"/>
     <use xlink:href="#DejaVuSans-62" x="440.136719"/>
     <use xlink:href="#DejaVuSans-6a" x="503.613281"/>
     <use xlink:href="#DejaVuSans-20" x="531.396484"/>
     <use xlink:href="#DejaVuSans-66" x="563.183594"/>
     <use xlink:href="#DejaVuSans-35" x="598.388672"/>
     <use xlink:href="#DejaVuSans-2c" x="662.011719"/>
     <use xlink:href="#DejaVuSans-20" x="693.798828"/>
     <use xlink:href="#DejaVuSans-66" x="725.585938"/>
     <use xlink:href="#DejaVuSans-36" x="760.791016"/>
     <use xlink:href="#DejaVuSans-2c" x="824.414062"/>
     <use xlink:href="#DejaVuSans-20" x="856.201172"/>
     <use xlink:href="#DejaVuSans-66" x="887.988281"/>
     <use xlink:href="#DejaVuSans-31" x="923.193359"/>
     <use xlink:href="#DejaVuSans-34" x="986.816406"/>
     <use xlink:href="#DejaVuSans-2c" x="1050.439453"/>
     <use xlink:href="#DejaVuSans-20" x="1082.226562"/>
     <use xlink:href="#DejaVuSans-66" x="1114.013672"/>
     <use xlink:href="#DejaVuSans-31" x="1149.21875"/>
     <use xlink:href="#DejaVuSans-35" x="1212.841797"/>
     <use xlink:href="#DejaVuSans-2c" x="1276.464844"/>
     <use xlink:href="#DejaVuSans-20" x="1308.251953"/>
     <use xlink:href="#DejaVuSans-35" x="1340.039062"/>
     <use xlink:href="#DejaVuSans-2d" x="1403.662109"/>
     <use xlink:href="#DejaVuSans-44" x="1439.746094"/>
    </g>
    <!-- 58 targets: 1..-1.0e-4 -->
    <g transform="translate(60.632064 29.004495)scale(0.102 -0.102)">
     <defs>
      <path id="DejaVuSans-3a" d="M 750 794 
L 1409 794 
L 1409 0 
L 750 0 
L 750 794 
z
M 750 3309 
L 1409 3309 
L 1409 2516 
L 750 2516 
L 750 3309 
z
" transform="scale(0.015625)"/>
     </defs>
     <use xlink:href="#DejaVuSans-35"/>
     <use xlink:href="#DejaVuSans-38" x="63.623047"/>
     <use xlink:href="#DejaVuSans-20" x="127.246094"/>
     <use xlink:href="#DejaVuSans-74" x="159.033203"/>
     <use xlink:href="#DejaVuSans-61" x="198.242188"/>
     <use xlink:href="#DejaVuSans-72" x="259.521484"/>
     <use xlink:href="#DejaVuSans-67" x="298.884766"/>
     <use xlink:href="#DejaVuSans-65" x="362.361328"/>
     <use xlink:href="#DejaVuSans-74" x="423.884766"/>
     <use xlink:href="#DejaVuSans-73" x="463.09375"/>
     <use xlink:href="#DejaVuSans-3a" x="515.193359"/>
     <use xlink:href="#DejaVuSans-20" x="548.884766"/>
     <use xlink:href="#DejaVuSans-31" x="580.671875"/>
     <use xlink:href="#DejaVuSans-2e" x="644.294922"/>
     <use xlink:href="#DejaVuSans-2e" x="676.082031"/>
     <use xlink:href="#DejaVuSans-2d" x="707.869141"/>
     <use xlink:href="#DejaVuSans-31" x="743.953125"/>
     <use xlink:href="#DejaVuSans-2e" x="807.576172"/>
     <use xlink:href="#DejaVuSans-30" x="839.363281"/>
     <use xlink:href="#DejaVuSans-65" x="902.986328"/>
     <use xlink:href="#DejaVuSans-2d" x="964.509766"/>
     <use xlink:href="#DejaVuSans-34" x="1000.59375"/>
    </g>
    <!-- 10 instances -->
    <g transform="translate(60.632064 40.426264)scale(0.102 -0.102)">
     <use xlink:href="#DejaVuSans-31"/>
     <use xlink:href="#DejaVuSans-30" x="63.623047"/>
     <use xlink:href="#DejaVuSans-20" x="127.246094"/>
     <use xlink:href="#DejaVuSans-69" x="159.033203"/>
     <use xlink:href="#DejaVuSans-6e" x="186.816406"/>
     <use xlink:href="#DejaVuSans-73" x="250.195312"/>
     <use xlink:href="#DejaVuSans-74" x="302.294922"/>
     <use xlink:href="#DejaVuSans-61" x="341.503906"/>
     <use xlink:href="#DejaVuSans-6e" x="402.783203"/>
     <use xlink:href="#DejaVuSans-63" x="466.162109"/>
     <use xlink:href="#DejaVuSans-65" x="521.142578"/>
     <use xlink:href="#DejaVuSans-73" x="582.666016"/>
    </g>
   </g>
   <g id="text_18">
    <!-- v2.6, hv-hash=ff0e71e8cd978373 -->
    <g style="fill: #808080" transform="translate(123.707887 293.943992)scale(0.1 -0.1)">
     <defs>
      <path id="DejaVuSans-68" d="M 3513 2113 
L 3513 0 
L 2938 0 
L 2938 2094 
Q 2938 2591 2744 2837 
Q 2550 3084 2163 3084 
Q 1697 3084 1428 2787 
Q 1159 2491 1159 1978 
L 1159 0 
L 581 0 
L 581 4863 
L 1159 4863 
L 1159 2956 
Q 1366 3272 1645 3428 
Q 1925 3584 2291 3584 
Q 2894 3584 3203 3211 
Q 3513 2838 3513 2113 
z
" transform="scale(0.015625)"/>
      <path id="DejaVuSans-3d" d="M 678 2906 
L 4684 2906 
L 4684 2381 
L 678 2381 
L 678 2906 
z
M 678 1631 
L 4684 1631 
L 4684 1100 
L 678 1100 
L 678 1631 
z
" transform="scale(0.015625)"/>
      <path id="DejaVuSans-37" d="M 525 4666 
L 3525 4666 
L 3525 4397 
L 1831 0 
L 1172 0 
L 2766 4134 
L 525 4134 
L 525 4666 
z
" transform="scale(0.015625)"/>
      <path id="DejaVuSans-39" d="M 703 97 
L 703 672 
Q 941 559 1184 500 
Q 1428 441 1663 441 
Q 2288 441 2617 861 
Q 2947 1281 2994 2138 
Q 2813 1869 2534 1725 
Q 2256 1581 1919 1581 
Q 1219 1581 811 2004 
Q 403 2428 403 3163 
Q 403 3881 828 4315 
Q 1253 4750 1959 4750 
Q 2769 4750 3195 4129 
Q 3622 3509 3622 2328 
Q 3622 1225 3098 567 
Q 2575 -91 1691 -91 
Q 1453 -91 1209 -44 
Q 966 3 703 97 
z
M 1959 2075 
Q 2384 2075 2632 2365 
Q 2881 2656 2881 3163 
Q 2881 3666 2632 3958 
Q 2384 4250 1959 4250 
Q 1534 4250 1286 3958 
Q 1038 3666 1038 3163 
Q 1038 2656 1286 2365 
Q 1534 2075 1959 2075 
z
" transform="scale(0.015625)"/>
      <path id="DejaVuSans-33" d="M 2597 2516 
Q 3050 2419 3304 2112 
Q 3559 1806 3559 1356 
Q 3559 666 3084 287 
Q 2609 -91 1734 -91 
Q 1441 -91 1130 -33 
Q 819 25 488 141 
L 488 750 
Q 750 597 1062 519 
Q 1375 441 1716 441 
Q 2309 441 2620 675 
Q 2931 909 2931 1356 
Q 2931 1769 2642 2001 
Q 2353 2234 1838 2234 
L 1294 2234 
L 1294 2753 
L 1863 2753 
Q 2328 2753 2575 2939 
Q 2822 3125 2822 3475 
Q 2822 3834 2567 4026 
Q 2313 4219 1838 4219 
Q 1578 4219 1281 4162 
Q 984 4106 628 3988 
L 628 4550 
Q 988 4650 1302 4700 
Q 1616 4750 1894 4750 
Q 2613 4750 3031 4423 
Q 3450 4097 3450 3541 
Q 3450 3153 3228 2886 
Q 3006 2619 2597 2516 
z
" transform="scale(0.015625)"/>
     </defs>
     <use xlink:href="#DejaVuSans-76"/>
     <use xlink:href="#DejaVuSans-32" x="59.179688"/>
     <use xlink:href="#DejaVuSans-2e" x="122.802734"/>
     <use xlink:href="#DejaVuSans-36" x="154.589844"/>
     <use xlink:href="#DejaVuSans-2c" x="218.212891"/>
     <use xlink:href="#DejaVuSans-20" x="250"/>
     <use xlink:href="#DejaVuSans-68" x="281.787109"/>
     <use xlink:href="#DejaVuSans-76" x="345.166016"/>
     <use xlink:href="#DejaVuSans-2d" x="401.720703"/>
     <use xlink:href="#DejaVuSans-68" x="437.804688"/>
     <use xlink:href="#DejaVuSans-61" x="501.183594"/>
     <use xlink:href="#DejaVuSans-73" x="562.462891"/>
     <use xlink:href="#DejaVuSans-68" x="614.5625"/>
     <use xlink:href="#DejaVuSans-3d" x="677.941406"/>
     <use xlink:href="#DejaVuSans-66" x="761.730469"/>
     <use xlink:href="#DejaVuSans-66" x="796.935547"/>
     <use xlink:href="#DejaVuSans-30" x="832.140625"/>
     <use xlink:href="#DejaVuSans-65" x="895.763672"/>
     <use xlink:href="#DejaVuSans-37" x="957.287109"/>
     <use xlink:href="#DejaVuSans-31" x="1020.910156"/>
     <use xlink:href="#DejaVuSans-65" x="1084.533203"/>
     <use xlink:href="#DejaVuSans-38" x="1146.056641"/>
     <use xlink:href="#DejaVuSans-63" x="1209.679688"/>
     <use xlink:href="#DejaVuSans-64" x="1264.660156"/>
     <use xlink:href="#DejaVuSans-39" x="1328.136719"/>
     <use xlink:href="#DejaVuSans-37" x="1391.759766"/>
     <use xlink:href="#DejaVuSans-38" x="1455.382812"/>
     <use xlink:href="#DejaVuSans-33" x="1519.005859"/>
     <use xlink:href="#DejaVuSans-37" x="1582.628906"/>
     <use xlink:href="#DejaVuSans-33" x="1646.251953"/>
    </g>
   </g>
  </g>
 </g>
 <defs>
  <clipPath id="p444e5d8f34">
   <rect x="57.6" y="6.912" width="303.2064" height="292.032"/>
  </clipPath>
 </defs>
</svg>
