<?xml version="1.0" encoding="utf-8" standalone="no"?>
<!DOCTYPE svg PUBLIC "-//W3C//DTD SVG 1.1//EN"
  "http://www.w3.org/Graphics/SVG/1.1/DTD/svg11.dtd">
<svg xmlns:xlink="http://www.w3.org/1999/xlink" width="460.8pt" height="345.6pt" viewBox="0 0 460.8 345.6" xmlns="http://www.w3.org/2000/svg" version="1.1">
 <metadata>
  <rdf:RDF xmlns:dc="http://purl.org/dc/elements/1.1/" xmlns:cc="http://creativecommons.org/ns#" xmlns:rdf="http://www.w3.org/1999/02/22-rdf-syntax-ns#">
   <cc:Work>
    <dc:type rdf:resource="http://purl.org/dc/dcmitype/StillImage"/>
    <dc:date>2022-06-19T21:02:35.252944</dc:date>
    <dc:format>image/svg+xml</dc:format>
    <dc:creator>
     <cc:Agent>
      <dc:title>Matplotlib v3.5.1, https://matplotlib.org/</dc:title>
     </cc:Agent>
    </dc:creator>
   </cc:Work>
  </rdf:RDF>
 </metadata>
 <defs>
  <style type="text/css">*{stroke-linejoin: round; stroke-linecap: butt}</style>
 </defs>
 <g id="figure_1">
  <g id="patch_1">
   <path d="M 0 345.6 
L 460.8 345.6 
L 460.8 0 
L 0 0 
z
" style="fill: #ffffff"/>
  </g>
  <g id="axes_1">
   <g id="patch_2">
    <path d="M 57.6 298.944 
L 360.8064 298.944 
L 360.8064 6.912 
L 57.6 6.912 
z
" style="fill: #ffffff"/>
   </g>
   <g id="line2d_1">
    <path d="M 40.363149 298.944 
L 40.363149 297.265655 
L 53.402323 297.265655 
L 53.402323 292.230621 
L 57.6 292.230621 
L 57.6 290.552276 
L 61.029752 290.552276 
L 61.029752 283.838897 
L 70.639174 283.838897 
L 70.639174 282.160552 
L 75.574654 282.160552 
L 75.574654 277.125517 
L 76.96874 277.125517 
L 76.96874 273.768828 
L 78.266603 273.768828 
L 78.266603 270.412138 
L 83.678349 270.412138 
L 83.678349 267.055448 
L 85.471281 267.055448 
L 85.471281 265.377103 
L 87.876026 265.377103 
L 87.876026 263.698759 
L 88.613828 263.698759 
L 88.613828 260.342069 
L 93.66029 260.342069 
L 93.66029 255.307034 
L 96.717523 255.307034 
L 96.717523 251.950345 
L 102.708132 251.950345 
L 102.708132 250.272 
L 104.344952 250.272 
L 104.344952 245.236966 
L 105.850679 245.236966 
L 105.850679 240.201931 
L 107.244765 240.201931 
L 107.244765 236.845241 
L 111.117162 236.845241 
L 111.117162 233.488552 
L 113.954374 233.488552 
L 113.954374 230.131862 
L 120.28394 230.131862 
L 120.28394 228.453517 
L 120.41783 228.453517 
L 120.41783 226.775172 
L 120.944062 226.775172 
L 120.944062 223.418483 
L 125.729248 223.418483 
L 125.729248 220.061793 
L 128.528195 220.061793 
L 128.528195 216.705103 
L 130.4233 216.705103 
L 130.4233 213.348414 
L 136.752866 213.348414 
L 136.752866 208.313379 
L 137.787626 208.313379 
L 137.787626 203.278345 
L 138.768422 203.278345 
L 138.768422 201.6 
L 146.193574 201.6 
L 146.193574 198.24331 
L 146.892226 198.24331 
L 146.892226 193.208276 
L 153.421349 193.208276 
L 153.421349 191.529931 
L 160.093991 191.529931 
L 160.093991 188.173241 
L 161.163832 188.173241 
L 161.163832 183.138207 
L 164.063646 183.138207 
L 164.063646 179.781517 
L 167.569712 179.781517 
L 167.569712 178.103172 
L 172.457426 178.103172 
L 172.457426 174.746483 
L 175.258693 174.746483 
L 175.258693 169.711448 
L 176.732137 169.711448 
L 176.732137 166.354759 
L 179.436116 166.354759 
L 179.436116 162.998069 
L 181.609934 162.998069 
L 181.609934 159.641379 
L 182.427518 159.641379 
L 182.427518 157.963034 
L 190.089485 157.963034 
L 190.089485 152.928 
L 194.337049 152.928 
L 194.337049 149.57131 
L 196.824055 149.57131 
L 196.824055 147.892966 
L 197.365285 147.892966 
L 197.365285 142.857931 
L 198.975298 142.857931 
L 198.975298 141.179586 
L 200.441261 141.179586 
L 200.441261 136.144552 
L 201.613344 136.144552 
L 201.613344 134.466207 
L 208.164486 134.466207 
L 208.164486 132.787862 
L 209.022218 132.787862 
L 209.022218 127.752828 
L 210.644016 127.752828 
L 210.644016 122.717793 
L 212.485975 122.717793 
L 212.485975 119.361103 
L 215.523463 119.361103 
L 215.523463 117.682759 
L 216.257177 117.682759 
L 216.257177 116.004414 
L 217.388527 116.004414 
L 217.388527 110.969379 
L 221.503634 110.969379 
L 221.503634 109.291034 
L 223.816065 109.291034 
L 223.816065 104.256 
L 224.840351 104.256 
L 224.840351 99.220966 
L 226.357315 99.220966 
L 226.357315 97.542621 
L 228.383234 97.542621 
L 228.383234 94.185931 
L 232.39822 94.185931 
L 232.39822 90.829241 
L 232.815159 90.829241 
L 232.815159 85.794207 
L 239.998586 85.794207 
L 239.998586 82.437517 
L 240.322159 82.437517 
L 240.322159 79.080828 
L 241.193984 79.080828 
L 241.193984 75.724138 
L 244.346303 75.724138 
L 244.346303 74.045793 
L 249.76209 74.045793 
L 249.76209 70.689103 
L 250.074242 70.689103 
L 250.074242 69.010759 
L 255.287822 69.010759 
L 255.287822 65.654069 
L 256.925317 65.654069 
L 256.925317 60.619034 
L 261.140362 60.619034 
L 261.140362 55.584 
L 265.943133 55.584 
L 265.943133 52.22731 
L 267.21942 52.22731 
L 267.21942 50.548966 
L 270.353147 50.548966 
L 270.353147 47.192276 
L 279.662974 47.192276 
L 279.662974 42.157241 
L 360.8064 42.157241 
L 360.8064 42.157241 
" style="fill: none; stroke: #f5deb3; stroke-width: 4; stroke-linecap: square"/>
   </g>
   <g id="line2d_2">
    <defs>
     <path id="mf81023987a" d="M 0 7.778175 
L 7.778175 0 
L 0 -7.778175 
L -7.778175 0 
z
" style="stroke: #f5deb3; stroke-width: 1.5; stroke-linejoin: miter"/>
    </defs>
    <g>
     <use xlink:href="#mf81023987a" x="93.66029" y="260.342069" style="fill: #f5deb3; stroke: #f5deb3; stroke-width: 1.5; stroke-linejoin: miter"/>
     <use xlink:href="#mf81023987a" x="160.093991" y="188.173241" style="fill: #f5deb3; stroke: #f5deb3; stroke-width: 1.5; stroke-linejoin: miter"/>
     <use xlink:href="#mf81023987a" x="217.388527" y="116.004414" style="fill: #f5deb3; stroke: #f5deb3; stroke-width: 1.5; stroke-linejoin: miter"/>
     <use xlink:href="#mf81023987a" x="256.925317" y="60.619034" style="fill: #f5deb3; stroke: #f5deb3; stroke-width: 1.5; stroke-linejoin: miter"/>
     <use xlink:href="#mf81023987a" x="279.662974" y="42.157241" style="fill: #f5deb3; stroke: #f5deb3; stroke-width: 1.5; stroke-linejoin: miter"/>
     <use xlink:href="#mf81023987a" x="360.8064" y="42.157241" style="fill: #f5deb3; stroke: #f5deb3; stroke-width: 1.5; stroke-linejoin: miter"/>
    </g>
   </g>
   <g id="line2d_3">
    <path style="fill: none; stroke: #f5deb3; stroke-width: 4; stroke-linecap: square"/>
    <g/>
   </g>
   <g id="line2d_4">
    <path d="M 360.8064 42.157241 
L 380.514816 12.75264 
" style="fill: none; stroke: #f5deb3; stroke-width: 4; stroke-linecap: square"/>
    <g>
     <use xlink:href="#mf81023987a" x="360.8064" y="42.157241" style="fill: #f5deb3; stroke: #f5deb3; stroke-width: 1.5; stroke-linejoin: miter"/>
     <use xlink:href="#mf81023987a" x="380.514816" y="12.75264" style="fill: #f5deb3; stroke: #f5deb3; stroke-width: 1.5; stroke-linejoin: miter"/>
    </g>
   </g>
   <g id="matplotlib.axis_1">
    <g id="xtick_1">
     <g id="line2d_5">
      <path d="M 57.6 298.944 
L 57.6 6.912 
" clip-path="url(#pb556d37a95)" style="fill: none; stroke: #b0b0b0; stroke-width: 0.8; stroke-linecap: square"/>
     </g>
     <g id="line2d_6">
      <defs>
       <path id="m00725ab057" d="M 0 0 
L 0 3.5 
" style="stroke: #000000; stroke-width: 0.8"/>
      </defs>
      <g>
       <use xlink:href="#m00725ab057" x="57.6" y="298.944" style="stroke: #000000; stroke-width: 0.8"/>
      </g>
     </g>
     <g id="text_1">
      <!-- 0 -->
      <g transform="translate(52.191875 318.861344)scale(0.17 -0.17)">
       <defs>
        <path id="DejaVuSans-30" d="M 2034 4250 
Q 1547 4250 1301 3770 
Q 1056 3291 1056 2328 
Q 1056 1369 1301 889 
Q 1547 409 2034 409 
Q 2525 409 2770 889 
Q 3016 1369 3016 2328 
Q 3016 3291 2770 3770 
Q 2525 4250 2034 4250 
z
M 2034 4750 
Q 2819 4750 3233 4129 
Q 3647 3509 3647 2328 
Q 3647 1150 3233 529 
Q 2819 -91 2034 -91 
Q 1250 -91 836 529 
Q 422 1150 422 2328 
Q 422 3509 836 4129 
Q 1250 4750 2034 4750 
z
" transform="scale(0.015625)"/>
       </defs>
       <use xlink:href="#DejaVuSans-30"/>
      </g>
     </g>
    </g>
    <g id="xtick_2">
     <g id="line2d_7">
      <path d="M 144.2304 298.944 
L 144.2304 6.912 
" clip-path="url(#pb556d37a95)" style="fill: none; stroke: #b0b0b0; stroke-width: 0.8; stroke-linecap: square"/>
     </g>
     <g id="line2d_8">
      <g>
       <use xlink:href="#m00725ab057" x="144.2304" y="298.944" style="stroke: #000000; stroke-width: 0.8"/>
      </g>
     </g>
     <g id="text_2">
      <!-- 2 -->
      <g transform="translate(138.822275 318.861344)scale(0.17 -0.17)">
       <defs>
        <path id="DejaVuSans-32" d="M 1228 531 
L 3431 531 
L 3431 0 
L 469 0 
L 469 531 
Q 828 903 1448 1529 
Q 2069 2156 2228 2338 
Q 2531 2678 2651 2914 
Q 2772 3150 2772 3378 
Q 2772 3750 2511 3984 
Q 2250 4219 1831 4219 
Q 1534 4219 1204 4116 
Q 875 4013 500 3803 
L 500 4441 
Q 881 4594 1212 4672 
Q 1544 4750 1819 4750 
Q 2544 4750 2975 4387 
Q 3406 4025 3406 3419 
Q 3406 3131 3298 2873 
Q 3191 2616 2906 2266 
Q 2828 2175 2409 1742 
Q 1991 1309 1228 531 
z
" transform="scale(0.015625)"/>
       </defs>
       <use xlink:href="#DejaVuSans-32"/>
      </g>
     </g>
    </g>
    <g id="xtick_3">
     <g id="line2d_9">
      <path d="M 230.8608 298.944 
L 230.8608 6.912 
" clip-path="url(#pb556d37a95)" style="fill: none; stroke: #b0b0b0; stroke-width: 0.8; stroke-linecap: square"/>
     </g>
     <g id="line2d_10">
      <g>
       <use xlink:href="#m00725ab057" x="230.8608" y="298.944" style="stroke: #000000; stroke-width: 0.8"/>
      </g>
     </g>
     <g id="text_3">
      <!-- 4 -->
      <g transform="translate(225.452675 318.861344)scale(0.17 -0.17)">
       <defs>
        <path id="DejaVuSans-34" d="M 2419 4116 
L 825 1625 
L 2419 1625 
L 2419 4116 
z
M 2253 4666 
L 3047 4666 
L 3047 1625 
L 3713 1625 
L 3713 1100 
L 3047 1100 
L 3047 0 
L 2419 0 
L 2419 1100 
L 313 1100 
L 313 1709 
L 2253 4666 
z
" transform="scale(0.015625)"/>
       </defs>
       <use xlink:href="#DejaVuSans-34"/>
      </g>
     </g>
    </g>
    <g id="xtick_4">
     <g id="line2d_11">
      <path d="M 317.4912 298.944 
L 317.4912 6.912 
" clip-path="url(#pb556d37a95)" style="fill: none; stroke: #b0b0b0; stroke-width: 0.8; stroke-linecap: square"/>
     </g>
     <g id="line2d_12">
      <g>
       <use xlink:href="#m00725ab057" x="317.4912" y="298.944" style="stroke: #000000; stroke-width: 0.8"/>
      </g>
     </g>
     <g id="text_4">
      <!-- 6 -->
      <g transform="translate(312.083075 318.861344)scale(0.17 -0.17)">
       <defs>
        <path id="DejaVuSans-36" d="M 2113 2584 
Q 1688 2584 1439 2293 
Q 1191 2003 1191 1497 
Q 1191 994 1439 701 
Q 1688 409 2113 409 
Q 2538 409 2786 701 
Q 3034 994 3034 1497 
Q 3034 2003 2786 2293 
Q 2538 2584 2113 2584 
z
M 3366 4563 
L 3366 3988 
Q 3128 4100 2886 4159 
Q 2644 4219 2406 4219 
Q 1781 4219 1451 3797 
Q 1122 3375 1075 2522 
Q 1259 2794 1537 2939 
Q 1816 3084 2150 3084 
Q 2853 3084 3261 2657 
Q 3669 2231 3669 1497 
Q 3669 778 3244 343 
Q 2819 -91 2113 -91 
Q 1303 -91 875 529 
Q 447 1150 447 2328 
Q 447 3434 972 4092 
Q 1497 4750 2381 4750 
Q 2619 4750 2861 4703 
Q 3103 4656 3366 4563 
z
" transform="scale(0.015625)"/>
       </defs>
       <use xlink:href="#DejaVuSans-36"/>
      </g>
     </g>
    </g>
    <g id="xtick_5">
     <g id="line2d_13">
      <path d="M 100.9152 298.944 
L 100.9152 6.912 
" clip-path="url(#pb556d37a95)" style="fill: none; stroke: #b0b0b0; stroke-width: 0.8; stroke-linecap: square"/>
     </g>
     <g id="line2d_14">
      <defs>
       <path id="m402c07fdcf" d="M 0 0 
L 0 2 
" style="stroke: #000000; stroke-width: 0.6"/>
      </defs>
      <g>
       <use xlink:href="#m402c07fdcf" x="100.9152" y="298.944" style="stroke: #000000; stroke-width: 0.6"/>
      </g>
     </g>
    </g>
    <g id="xtick_6">
     <g id="line2d_15">
      <path d="M 187.5456 298.944 
L 187.5456 6.912 
" clip-path="url(#pb556d37a95)" style="fill: none; stroke: #b0b0b0; stroke-width: 0.8; stroke-linecap: square"/>
     </g>
     <g id="line2d_16">
      <g>
       <use xlink:href="#m402c07fdcf" x="187.5456" y="298.944" style="stroke: #000000; stroke-width: 0.6"/>
      </g>
     </g>
    </g>
    <g id="xtick_7">
     <g id="line2d_17">
      <path d="M 274.176 298.944 
L 274.176 6.912 
" clip-path="url(#pb556d37a95)" style="fill: none; stroke: #b0b0b0; stroke-width: 0.8; stroke-linecap: square"/>
     </g>
     <g id="line2d_18">
      <g>
       <use xlink:href="#m402c07fdcf" x="274.176" y="298.944" style="stroke: #000000; stroke-width: 0.6"/>
      </g>
     </g>
    </g>
    <g id="xtick_8">
     <g id="line2d_19">
      <path d="M 360.8064 298.944 
L 360.8064 6.912 
" clip-path="url(#pb556d37a95)" style="fill: none; stroke: #b0b0b0; stroke-width: 0.8; stroke-linecap: square"/>
     </g>
     <g id="line2d_20">
      <g>
       <use xlink:href="#m402c07fdcf" x="360.8064" y="298.944" style="stroke: #000000; stroke-width: 0.6"/>
      </g>
     </g>
    </g>
    <g id="text_5">
     <!-- log10(# f-evals / dimension) -->
     <g transform="translate(88.823278 339.314156)scale(0.17 -0.17)">
      <defs>
       <path id="DejaVuSans-6c" d="M 603 4863 
L 1178 4863 
L 1178 0 
L 603 0 
L 603 4863 
z
" transform="scale(0.015625)"/>
       <path id="DejaVuSans-6f" d="M 1959 3097 
Q 1497 3097 1228 2736 
Q 959 2375 959 1747 
Q 959 1119 1226 758 
Q 1494 397 1959 397 
Q 2419 397 2687 759 
Q 2956 1122 2956 1747 
Q 2956 2369 2687 2733 
Q 2419 3097 1959 3097 
z
M 1959 3584 
Q 2709 3584 3137 3096 
Q 3566 2609 3566 1747 
Q 3566 888 3137 398 
Q 2709 -91 1959 -91 
Q 1206 -91 779 398 
Q 353 888 353 1747 
Q 353 2609 779 3096 
Q 1206 3584 1959 3584 
z
" transform="scale(0.015625)"/>
       <path id="DejaVuSans-67" d="M 2906 1791 
Q 2906 2416 2648 2759 
Q 2391 3103 1925 3103 
Q 1463 3103 1205 2759 
Q 947 2416 947 1791 
Q 947 1169 1205 825 
Q 1463 481 1925 481 
Q 2391 481 2648 825 
Q 2906 1169 2906 1791 
z
M 3481 434 
Q 3481 -459 3084 -895 
Q 2688 -1331 1869 -1331 
Q 1566 -1331 1297 -1286 
Q 1028 -1241 775 -1147 
L 775 -588 
Q 1028 -725 1275 -790 
Q 1522 -856 1778 -856 
Q 2344 -856 2625 -561 
Q 2906 -266 2906 331 
L 2906 616 
Q 2728 306 2450 153 
Q 2172 0 1784 0 
Q 1141 0 747 490 
Q 353 981 353 1791 
Q 353 2603 747 3093 
Q 1141 3584 1784 3584 
Q 2172 3584 2450 3431 
Q 2728 3278 2906 2969 
L 2906 3500 
L 3481 3500 
L 3481 434 
z
" transform="scale(0.015625)"/>
       <path id="DejaVuSans-31" d="M 794 531 
L 1825 531 
L 1825 4091 
L 703 3866 
L 703 4441 
L 1819 4666 
L 2450 4666 
L 2450 531 
L 3481 531 
L 3481 0 
L 794 0 
L 794 531 
z
" transform="scale(0.015625)"/>
       <path id="DejaVuSans-28" d="M 1984 4856 
Q 1566 4138 1362 3434 
Q 1159 2731 1159 2009 
Q 1159 1288 1364 580 
Q 1569 -128 1984 -844 
L 1484 -844 
Q 1016 -109 783 600 
Q 550 1309 550 2009 
Q 550 2706 781 3412 
Q 1013 4119 1484 4856 
L 1984 4856 
z
" transform="scale(0.015625)"/>
       <path id="DejaVuSans-23" d="M 3272 2816 
L 2363 2816 
L 2100 1772 
L 3016 1772 
L 3272 2816 
z
M 2803 4594 
L 2478 3297 
L 3391 3297 
L 3719 4594 
L 4219 4594 
L 3897 3297 
L 4872 3297 
L 4872 2816 
L 3775 2816 
L 3519 1772 
L 4513 1772 
L 4513 1294 
L 3397 1294 
L 3072 0 
L 2572 0 
L 2894 1294 
L 1978 1294 
L 1656 0 
L 1153 0 
L 1478 1294 
L 494 1294 
L 494 1772 
L 1594 1772 
L 1856 2816 
L 850 2816 
L 850 3297 
L 1978 3297 
L 2297 4594 
L 2803 4594 
z
" transform="scale(0.015625)"/>
       <path id="DejaVuSans-20" transform="scale(0.015625)"/>
       <path id="DejaVuSans-66" d="M 2375 4863 
L 2375 4384 
L 1825 4384 
Q 1516 4384 1395 4259 
Q 1275 4134 1275 3809 
L 1275 3500 
L 2222 3500 
L 2222 3053 
L 1275 3053 
L 1275 0 
L 697 0 
L 697 3053 
L 147 3053 
L 147 3500 
L 697 3500 
L 697 3744 
Q 697 4328 969 4595 
Q 1241 4863 1831 4863 
L 2375 4863 
z
" transform="scale(0.015625)"/>
       <path id="DejaVuSans-2d" d="M 313 2009 
L 1997 2009 
L 1997 1497 
L 313 1497 
L 313 2009 
z
" transform="scale(0.015625)"/>
       <path id="DejaVuSans-65" d="M 3597 1894 
L 3597 1613 
L 953 1613 
Q 991 1019 1311 708 
Q 1631 397 2203 397 
Q 2534 397 2845 478 
Q 3156 559 3463 722 
L 3463 178 
Q 3153 47 2828 -22 
Q 2503 -91 2169 -91 
Q 1331 -91 842 396 
Q 353 884 353 1716 
Q 353 2575 817 3079 
Q 1281 3584 2069 3584 
Q 2775 3584 3186 3129 
Q 3597 2675 3597 1894 
z
M 3022 2063 
Q 3016 2534 2758 2815 
Q 2500 3097 2075 3097 
Q 1594 3097 1305 2825 
Q 1016 2553 972 2059 
L 3022 2063 
z
" transform="scale(0.015625)"/>
       <path id="DejaVuSans-76" d="M 191 3500 
L 800 3500 
L 1894 563 
L 2988 3500 
L 3597 3500 
L 2284 0 
L 1503 0 
L 191 3500 
z
" transform="scale(0.015625)"/>
       <path id="DejaVuSans-61" d="M 2194 1759 
Q 1497 1759 1228 1600 
Q 959 1441 959 1056 
Q 959 750 1161 570 
Q 1363 391 1709 391 
Q 2188 391 2477 730 
Q 2766 1069 2766 1631 
L 2766 1759 
L 2194 1759 
z
M 3341 1997 
L 3341 0 
L 2766 0 
L 2766 531 
Q 2569 213 2275 61 
Q 1981 -91 1556 -91 
Q 1019 -91 701 211 
Q 384 513 384 1019 
Q 384 1609 779 1909 
Q 1175 2209 1959 2209 
L 2766 2209 
L 2766 2266 
Q 2766 2663 2505 2880 
Q 2244 3097 1772 3097 
Q 1472 3097 1187 3025 
Q 903 2953 641 2809 
L 641 3341 
Q 956 3463 1253 3523 
Q 1550 3584 1831 3584 
Q 2591 3584 2966 3190 
Q 3341 2797 3341 1997 
z
" transform="scale(0.015625)"/>
       <path id="DejaVuSans-73" d="M 2834 3397 
L 2834 2853 
Q 2591 2978 2328 3040 
Q 2066 3103 1784 3103 
Q 1356 3103 1142 2972 
Q 928 2841 928 2578 
Q 928 2378 1081 2264 
Q 1234 2150 1697 2047 
L 1894 2003 
Q 2506 1872 2764 1633 
Q 3022 1394 3022 966 
Q 3022 478 2636 193 
Q 2250 -91 1575 -91 
Q 1294 -91 989 -36 
Q 684 19 347 128 
L 347 722 
Q 666 556 975 473 
Q 1284 391 1588 391 
Q 1994 391 2212 530 
Q 2431 669 2431 922 
Q 2431 1156 2273 1281 
Q 2116 1406 1581 1522 
L 1381 1569 
Q 847 1681 609 1914 
Q 372 2147 372 2553 
Q 372 3047 722 3315 
Q 1072 3584 1716 3584 
Q 2034 3584 2315 3537 
Q 2597 3491 2834 3397 
z
" transform="scale(0.015625)"/>
       <path id="DejaVuSans-2f" d="M 1625 4666 
L 2156 4666 
L 531 -594 
L 0 -594 
L 1625 4666 
z
" transform="scale(0.015625)"/>
       <path id="DejaVuSans-64" d="M 2906 2969 
L 2906 4863 
L 3481 4863 
L 3481 0 
L 2906 0 
L 2906 525 
Q 2725 213 2448 61 
Q 2172 -91 1784 -91 
Q 1150 -91 751 415 
Q 353 922 353 1747 
Q 353 2572 751 3078 
Q 1150 3584 1784 3584 
Q 2172 3584 2448 3432 
Q 2725 3281 2906 2969 
z
M 947 1747 
Q 947 1113 1208 752 
Q 1469 391 1925 391 
Q 2381 391 2643 752 
Q 2906 1113 2906 1747 
Q 2906 2381 2643 2742 
Q 2381 3103 1925 3103 
Q 1469 3103 1208 2742 
Q 947 2381 947 1747 
z
" transform="scale(0.015625)"/>
       <path id="DejaVuSans-69" d="M 603 3500 
L 1178 3500 
L 1178 0 
L 603 0 
L 603 3500 
z
M 603 4863 
L 1178 4863 
L 1178 4134 
L 603 4134 
L 603 4863 
z
" transform="scale(0.015625)"/>
       <path id="DejaVuSans-6d" d="M 3328 2828 
Q 3544 3216 3844 3400 
Q 4144 3584 4550 3584 
Q 5097 3584 5394 3201 
Q 5691 2819 5691 2113 
L 5691 0 
L 5113 0 
L 5113 2094 
Q 5113 2597 4934 2840 
Q 4756 3084 4391 3084 
Q 3944 3084 3684 2787 
Q 3425 2491 3425 1978 
L 3425 0 
L 2847 0 
L 2847 2094 
Q 2847 2600 2669 2842 
Q 2491 3084 2119 3084 
Q 1678 3084 1418 2786 
Q 1159 2488 1159 1978 
L 1159 0 
L 581 0 
L 581 3500 
L 1159 3500 
L 1159 2956 
Q 1356 3278 1631 3431 
Q 1906 3584 2284 3584 
Q 2666 3584 2933 3390 
Q 3200 3197 3328 2828 
z
" transform="scale(0.015625)"/>
       <path id="DejaVuSans-6e" d="M 3513 2113 
L 3513 0 
L 2938 0 
L 2938 2094 
Q 2938 2591 2744 2837 
Q 2550 3084 2163 3084 
Q 1697 3084 1428 2787 
Q 1159 2491 1159 1978 
L 1159 0 
L 581 0 
L 581 3500 
L 1159 3500 
L 1159 2956 
Q 1366 3272 1645 3428 
Q 1925 3584 2291 3584 
Q 2894 3584 3203 3211 
Q 3513 2838 3513 2113 
z
" transform="scale(0.015625)"/>
       <path id="DejaVuSans-29" d="M 513 4856 
L 1013 4856 
Q 1481 4119 1714 3412 
Q 1947 2706 1947 2009 
Q 1947 1309 1714 600 
Q 1481 -109 1013 -844 
L 513 -844 
Q 928 -128 1133 580 
Q 1338 1288 1338 2009 
Q 1338 2731 1133 3434 
Q 928 4138 513 4856 
z
" transform="scale(0.015625)"/>
      </defs>
      <use xlink:href="#DejaVuSans-6c"/>
      <use xlink:href="#DejaVuSans-6f" x="27.783203"/>
      <use xlink:href="#DejaVuSans-67" x="88.964844"/>
      <use xlink:href="#DejaVuSans-31" x="152.441406"/>
      <use xlink:href="#DejaVuSans-30" x="216.064453"/>
      <use xlink:href="#DejaVuSans-28" x="279.6875"/>
      <use xlink:href="#DejaVuSans-23" x="318.701172"/>
      <use xlink:href="#DejaVuSans-20" x="402.490234"/>
      <use xlink:href="#DejaVuSans-66" x="434.277344"/>
      <use xlink:href="#DejaVuSans-2d" x="463.982422"/>
      <use xlink:href="#DejaVuSans-65" x="500.066406"/>
      <use xlink:href="#DejaVuSans-76" x="561.589844"/>
      <use xlink:href="#DejaVuSans-61" x="620.769531"/>
      <use xlink:href="#DejaVuSans-6c" x="682.048828"/>
      <use xlink:href="#DejaVuSans-73" x="709.832031"/>
      <use xlink:href="#DejaVuSans-20" x="761.931641"/>
      <use xlink:href="#DejaVuSans-2f" x="793.71875"/>
      <use xlink:href="#DejaVuSans-20" x="827.410156"/>
      <use xlink:href="#DejaVuSans-64" x="859.197266"/>
      <use xlink:href="#DejaVuSans-69" x="922.673828"/>
      <use xlink:href="#DejaVuSans-6d" x="950.457031"/>
      <use xlink:href="#DejaVuSans-65" x="1047.869141"/>
      <use xlink:href="#DejaVuSans-6e" x="1109.392578"/>
      <use xlink:href="#DejaVuSans-73" x="1172.771484"/>
      <use xlink:href="#DejaVuSans-69" x="1224.871094"/>
      <use xlink:href="#DejaVuSans-6f" x="1252.654297"/>
      <use xlink:href="#DejaVuSans-6e" x="1313.835938"/>
      <use xlink:href="#DejaVuSans-29" x="1377.214844"/>
     </g>
    </g>
   </g>
   <g id="matplotlib.axis_2">
    <g id="ytick_1">
     <g id="line2d_21">
      <path d="M 57.6 298.944 
L 360.8064 298.944 
" clip-path="url(#pb556d37a95)" style="fill: none; stroke: #b0b0b0; stroke-width: 0.8; stroke-linecap: square"/>
     </g>
     <g id="line2d_22">
      <defs>
       <path id="m23b25b357a" d="M 0 0 
L -3.5 0 
" style="stroke: #000000; stroke-width: 0.8"/>
      </defs>
      <g>
       <use xlink:href="#m23b25b357a" x="57.6" y="298.944" style="stroke: #000000; stroke-width: 0.8"/>
      </g>
     </g>
     <g id="text_6">
      <!-- 0.0 -->
      <g transform="translate(25.155 305.02275)scale(0.16 -0.16)">
       <defs>
        <path id="DejaVuSans-2e" d="M 684 794 
L 1344 794 
L 1344 0 
L 684 0 
L 684 794 
z
" transform="scale(0.015625)"/>
       </defs>
       <use xlink:href="#DejaVuSans-30"/>
       <use xlink:href="#DejaVuSans-2e" x="63.623047"/>
       <use xlink:href="#DejaVuSans-30" x="95.410156"/>
      </g>
     </g>
    </g>
    <g id="ytick_2">
     <g id="line2d_23">
      <path d="M 57.6 240.5376 
L 360.8064 240.5376 
" clip-path="url(#pb556d37a95)" style="fill: none; stroke: #b0b0b0; stroke-width: 0.8; stroke-linecap: square"/>
     </g>
     <g id="line2d_24">
      <g>
       <use xlink:href="#m23b25b357a" x="57.6" y="240.5376" style="stroke: #000000; stroke-width: 0.8"/>
      </g>
     </g>
     <g id="text_7">
      <!-- 0.2 -->
      <g transform="translate(25.155 246.61635)scale(0.16 -0.16)">
       <use xlink:href="#DejaVuSans-30"/>
       <use xlink:href="#DejaVuSans-2e" x="63.623047"/>
       <use xlink:href="#DejaVuSans-32" x="95.410156"/>
      </g>
     </g>
    </g>
    <g id="ytick_3">
     <g id="line2d_25">
      <path d="M 57.6 182.1312 
L 360.8064 182.1312 
" clip-path="url(#pb556d37a95)" style="fill: none; stroke: #b0b0b0; stroke-width: 0.8; stroke-linecap: square"/>
     </g>
     <g id="line2d_26">
      <g>
       <use xlink:href="#m23b25b357a" x="57.6" y="182.1312" style="stroke: #000000; stroke-width: 0.8"/>
      </g>
     </g>
     <g id="text_8">
      <!-- 0.4 -->
      <g transform="translate(25.155 188.20995)scale(0.16 -0.16)">
       <use xlink:href="#DejaVuSans-30"/>
       <use xlink:href="#DejaVuSans-2e" x="63.623047"/>
       <use xlink:href="#DejaVuSans-34" x="95.410156"/>
      </g>
     </g>
    </g>
    <g id="ytick_4">
     <g id="line2d_27">
      <path d="M 57.6 123.7248 
L 360.8064 123.7248 
" clip-path="url(#pb556d37a95)" style="fill: none; stroke: #b0b0b0; stroke-width: 0.8; stroke-linecap: square"/>
     </g>
     <g id="line2d_28">
      <g>
       <use xlink:href="#m23b25b357a" x="57.6" y="123.7248" style="stroke: #000000; stroke-width: 0.8"/>
      </g>
     </g>
     <g id="text_9">
      <!-- 0.6 -->
      <g transform="translate(25.155 129.80355)scale(0.16 -0.16)">
       <use xlink:href="#DejaVuSans-30"/>
       <use xlink:href="#DejaVuSans-2e" x="63.623047"/>
       <use xlink:href="#DejaVuSans-36" x="95.410156"/>
      </g>
     </g>
    </g>
    <g id="ytick_5">
     <g id="line2d_29">
      <path d="M 57.6 65.3184 
L 360.8064 65.3184 
" clip-path="url(#pb556d37a95)" style="fill: none; stroke: #b0b0b0; stroke-width: 0.8; stroke-linecap: square"/>
     </g>
     <g id="line2d_30">
      <g>
       <use xlink:href="#m23b25b357a" x="57.6" y="65.3184" style="stroke: #000000; stroke-width: 0.8"/>
      </g>
     </g>
     <g id="text_10">
      <!-- 0.8 -->
      <g transform="translate(25.155 71.39715)scale(0.16 -0.16)">
       <defs>
        <path id="DejaVuSans-38" d="M 2034 2216 
Q 1584 2216 1326 1975 
Q 1069 1734 1069 1313 
Q 1069 891 1326 650 
Q 1584 409 2034 409 
Q 2484 409 2743 651 
Q 3003 894 3003 1313 
Q 3003 1734 2745 1975 
Q 2488 2216 2034 2216 
z
M 1403 2484 
Q 997 2584 770 2862 
Q 544 3141 544 3541 
Q 544 4100 942 4425 
Q 1341 4750 2034 4750 
Q 2731 4750 3128 4425 
Q 3525 4100 3525 3541 
Q 3525 3141 3298 2862 
Q 3072 2584 2669 2484 
Q 3125 2378 3379 2068 
Q 3634 1759 3634 1313 
Q 3634 634 3220 271 
Q 2806 -91 2034 -91 
Q 1263 -91 848 271 
Q 434 634 434 1313 
Q 434 1759 690 2068 
Q 947 2378 1403 2484 
z
M 1172 3481 
Q 1172 3119 1398 2916 
Q 1625 2713 2034 2713 
Q 2441 2713 2670 2916 
Q 2900 3119 2900 3481 
Q 2900 3844 2670 4047 
Q 2441 4250 2034 4250 
Q 1625 4250 1398 4047 
Q 1172 3844 1172 3481 
z
" transform="scale(0.015625)"/>
       </defs>
       <use xlink:href="#DejaVuSans-30"/>
       <use xlink:href="#DejaVuSans-2e" x="63.623047"/>
       <use xlink:href="#DejaVuSans-38" x="95.410156"/>
      </g>
     </g>
    </g>
    <g id="ytick_6">
     <g id="line2d_31">
      <path d="M 57.6 6.912 
L 360.8064 6.912 
" clip-path="url(#pb556d37a95)" style="fill: none; stroke: #b0b0b0; stroke-width: 0.8; stroke-linecap: square"/>
     </g>
     <g id="line2d_32">
      <g>
       <use xlink:href="#m23b25b357a" x="57.6" y="6.912" style="stroke: #000000; stroke-width: 0.8"/>
      </g>
     </g>
     <g id="text_11">
      <!-- 1.0 -->
      <g transform="translate(25.155 12.99075)scale(0.16 -0.16)">
       <use xlink:href="#DejaVuSans-31"/>
       <use xlink:href="#DejaVuSans-2e" x="63.623047"/>
       <use xlink:href="#DejaVuSans-30" x="95.410156"/>
      </g>
     </g>
    </g>
    <g id="text_12">
     <!-- Fraction of function,target pairs -->
     <g transform="translate(17.619531 287.313)rotate(-90)scale(0.17 -0.17)">
      <defs>
       <path id="DejaVuSans-46" d="M 628 4666 
L 3309 4666 
L 3309 4134 
L 1259 4134 
L 1259 2759 
L 3109 2759 
L 3109 2228 
L 1259 2228 
L 1259 0 
L 628 0 
L 628 4666 
z
" transform="scale(0.015625)"/>
       <path id="DejaVuSans-72" d="M 2631 2963 
Q 2534 3019 2420 3045 
Q 2306 3072 2169 3072 
Q 1681 3072 1420 2755 
Q 1159 2438 1159 1844 
L 1159 0 
L 581 0 
L 581 3500 
L 1159 3500 
L 1159 2956 
Q 1341 3275 1631 3429 
Q 1922 3584 2338 3584 
Q 2397 3584 2469 3576 
Q 2541 3569 2628 3553 
L 2631 2963 
z
" transform="scale(0.015625)"/>
       <path id="DejaVuSans-63" d="M 3122 3366 
L 3122 2828 
Q 2878 2963 2633 3030 
Q 2388 3097 2138 3097 
Q 1578 3097 1268 2742 
Q 959 2388 959 1747 
Q 959 1106 1268 751 
Q 1578 397 2138 397 
Q 2388 397 2633 464 
Q 2878 531 3122 666 
L 3122 134 
Q 2881 22 2623 -34 
Q 2366 -91 2075 -91 
Q 1284 -91 818 406 
Q 353 903 353 1747 
Q 353 2603 823 3093 
Q 1294 3584 2113 3584 
Q 2378 3584 2631 3529 
Q 2884 3475 3122 3366 
z
" transform="scale(0.015625)"/>
       <path id="DejaVuSans-74" d="M 1172 4494 
L 1172 3500 
L 2356 3500 
L 2356 3053 
L 1172 3053 
L 1172 1153 
Q 1172 725 1289 603 
Q 1406 481 1766 481 
L 2356 481 
L 2356 0 
L 1766 0 
Q 1100 0 847 248 
Q 594 497 594 1153 
L 594 3053 
L 172 3053 
L 172 3500 
L 594 3500 
L 594 4494 
L 1172 4494 
z
" transform="scale(0.015625)"/>
       <path id="DejaVuSans-75" d="M 544 1381 
L 544 3500 
L 1119 3500 
L 1119 1403 
Q 1119 906 1312 657 
Q 1506 409 1894 409 
Q 2359 409 2629 706 
Q 2900 1003 2900 1516 
L 2900 3500 
L 3475 3500 
L 3475 0 
L 2900 0 
L 2900 538 
Q 2691 219 2414 64 
Q 2138 -91 1772 -91 
Q 1169 -91 856 284 
Q 544 659 544 1381 
z
M 1991 3584 
L 1991 3584 
z
" transform="scale(0.015625)"/>
       <path id="DejaVuSans-2c" d="M 750 794 
L 1409 794 
L 1409 256 
L 897 -744 
L 494 -744 
L 750 256 
L 750 794 
z
" transform="scale(0.015625)"/>
       <path id="DejaVuSans-70" d="M 1159 525 
L 1159 -1331 
L 581 -1331 
L 581 3500 
L 1159 3500 
L 1159 2969 
Q 1341 3281 1617 3432 
Q 1894 3584 2278 3584 
Q 2916 3584 3314 3078 
Q 3713 2572 3713 1747 
Q 3713 922 3314 415 
Q 2916 -91 2278 -91 
Q 1894 -91 1617 61 
Q 1341 213 1159 525 
z
M 3116 1747 
Q 3116 2381 2855 2742 
Q 2594 3103 2138 3103 
Q 1681 3103 1420 2742 
Q 1159 2381 1159 1747 
Q 1159 1113 1420 752 
Q 1681 391 2138 391 
Q 2594 391 2855 752 
Q 3116 1113 3116 1747 
z
" transform="scale(0.015625)"/>
      </defs>
      <use xlink:href="#DejaVuSans-46"/>
      <use xlink:href="#DejaVuSans-72" x="50.269531"/>
      <use xlink:href="#DejaVuSans-61" x="91.382812"/>
      <use xlink:href="#DejaVuSans-63" x="152.662109"/>
      <use xlink:href="#DejaVuSans-74" x="207.642578"/>
      <use xlink:href="#DejaVuSans-69" x="246.851562"/>
      <use xlink:href="#DejaVuSans-6f" x="274.634766"/>
      <use xlink:href="#DejaVuSans-6e" x="335.816406"/>
      <use xlink:href="#DejaVuSans-20" x="399.195312"/>
      <use xlink:href="#DejaVuSans-6f" x="430.982422"/>
      <use xlink:href="#DejaVuSans-66" x="492.164062"/>
      <use xlink:href="#DejaVuSans-20" x="527.369141"/>
      <use xlink:href="#DejaVuSans-66" x="559.15625"/>
      <use xlink:href="#DejaVuSans-75" x="594.361328"/>
      <use xlink:href="#DejaVuSans-6e" x="657.740234"/>
      <use xlink:href="#DejaVuSans-63" x="721.119141"/>
      <use xlink:href="#DejaVuSans-74" x="776.099609"/>
      <use xlink:href="#DejaVuSans-69" x="815.308594"/>
      <use xlink:href="#DejaVuSans-6f" x="843.091797"/>
      <use xlink:href="#DejaVuSans-6e" x="904.273438"/>
      <use xlink:href="#DejaVuSans-2c" x="967.652344"/>
      <use xlink:href="#DejaVuSans-74" x="999.439453"/>
      <use xlink:href="#DejaVuSans-61" x="1038.648438"/>
      <use xlink:href="#DejaVuSans-72" x="1099.927734"/>
      <use xlink:href="#DejaVuSans-67" x="1139.291016"/>
      <use xlink:href="#DejaVuSans-65" x="1202.767578"/>
      <use xlink:href="#DejaVuSans-74" x="1264.291016"/>
      <use xlink:href="#DejaVuSans-20" x="1303.5"/>
      <use xlink:href="#DejaVuSans-70" x="1335.287109"/>
      <use xlink:href="#DejaVuSans-61" x="1398.763672"/>
      <use xlink:href="#DejaVuSans-69" x="1460.042969"/>
      <use xlink:href="#DejaVuSans-72" x="1487.826172"/>
      <use xlink:href="#DejaVuSans-73" x="1528.939453"/>
     </g>
    </g>
   </g>
   <g id="line2d_33">
    <defs>
     <path id="m2dd5a8df87" d="M 0 1.5 
C 0.397805 1.5 0.77937 1.341951 1.06066 1.06066 
C 1.341951 0.77937 1.5 0.397805 1.5 0 
C 1.5 -0.397805 1.341951 -0.77937 1.06066 -1.06066 
C 0.77937 -1.341951 0.397805 -1.5 0 -1.5 
C -0.397805 -1.5 -0.77937 -1.341951 -1.06066 -1.06066 
C -1.341951 -0.77937 -1.5 -0.397805 -1.5 0 
C -1.5 0.397805 -1.341951 0.77937 -1.06066 1.06066 
C -0.77937 1.341951 -0.397805 1.5 0 1.5 
z
" style="stroke: #f5deb3"/>
    </defs>
    <g>
     <use xlink:href="#m2dd5a8df87" x="279.662974" y="42.157241" style="fill: #f5deb3; stroke: #f5deb3"/>
     <use xlink:href="#m2dd5a8df87" x="279.662974" y="42.157241" style="fill: #f5deb3; stroke: #f5deb3"/>
    </g>
   </g>
   <g id="line2d_34">
    <defs>
     <path id="mde3d6abf81" d="M 0 1.5 
C 0.397805 1.5 0.77937 1.341951 1.06066 1.06066 
C 1.341951 0.77937 1.5 0.397805 1.5 0 
C 1.5 -0.397805 1.341951 -0.77937 1.06066 -1.06066 
C 0.77937 -1.341951 0.397805 -1.5 0 -1.5 
C -0.397805 -1.5 -0.77937 -1.341951 -1.06066 -1.06066 
C -1.341951 -0.77937 -1.5 -0.397805 -1.5 0 
C -1.5 0.397805 -1.341951 0.77937 -1.06066 1.06066 
C -0.77937 1.341951 -0.397805 1.5 0 1.5 
z
" style="stroke: #000080"/>
    </defs>
    <g>
     <use xlink:href="#mde3d6abf81" x="81.696354" y="270.579972" style="fill: #000080; stroke: #000080"/>
     <use xlink:href="#mde3d6abf81" x="81.696354" y="270.579972" style="fill: #000080; stroke: #000080"/>
    </g>
   </g>
   <g id="line2d_35">
    <path d="M 27.323974 298.944 
L 27.323974 286.188579 
L 40.363149 286.188579 
L 40.363149 285.181572 
L 47.990577 285.181572 
L 47.990577 284.510234 
L 53.402323 284.510234 
L 53.402323 283.838897 
L 57.6 283.838897 
L 57.6 282.999724 
L 61.029752 282.999724 
L 61.029752 282.664055 
L 63.929565 282.664055 
L 63.929565 281.657048 
L 66.441498 281.657048 
L 66.441498 281.489214 
L 68.65718 281.489214 
L 68.65718 280.817876 
L 70.639174 280.817876 
L 70.639174 279.307366 
L 72.432107 279.307366 
L 72.432107 278.636028 
L 74.068926 278.636028 
L 74.068926 275.950676 
L 76.96874 275.950676 
L 76.96874 275.447172 
L 78.266603 275.447172 
L 78.266603 274.440166 
L 79.480672 274.440166 
L 79.480672 274.104497 
L 80.621116 274.104497 
L 80.621116 273.768828 
L 81.696354 273.768828 
L 81.696354 270.579972 
L 360.8064 270.579972 
" style="fill: none; stroke: #000080; stroke-width: 1.5; stroke-linecap: square"/>
   </g>
   <g id="line2d_36">
    <defs>
     <path id="md6fe318cce" d="M 0 6 
C 1.591219 6 3.117479 5.367802 4.242641 4.242641 
C 5.367802 3.117479 6 1.591219 6 0 
C 6 -1.591219 5.367802 -3.117479 4.242641 -4.242641 
C 3.117479 -5.367802 1.591219 -6 0 -6 
C -1.591219 -6 -3.117479 -5.367802 -4.242641 -4.242641 
C -5.367802 -3.117479 -6 -1.591219 -6 0 
C -6 1.591219 -5.367802 3.117479 -4.242641 4.242641 
C -3.117479 5.367802 -1.591219 6 0 6 
z
" style="stroke: #000080; stroke-width: 1.5"/>
    </defs>
    <g>
     <use xlink:href="#md6fe318cce" x="81.696354" y="273.768828" style="fill-opacity: 0; stroke: #000080; stroke-width: 1.5"/>
     <use xlink:href="#md6fe318cce" x="81.696354" y="273.768828" style="fill-opacity: 0; stroke: #000080; stroke-width: 1.5"/>
     <use xlink:href="#md6fe318cce" x="81.696354" y="270.579972" style="fill-opacity: 0; stroke: #000080; stroke-width: 1.5"/>
     <use xlink:href="#md6fe318cce" x="81.696354" y="270.579972" style="fill-opacity: 0; stroke: #000080; stroke-width: 1.5"/>
     <use xlink:href="#md6fe318cce" x="81.696354" y="270.579972" style="fill-opacity: 0; stroke: #000080; stroke-width: 1.5"/>
     <use xlink:href="#md6fe318cce" x="360.8064" y="270.579972" style="fill-opacity: 0; stroke: #000080; stroke-width: 1.5"/>
    </g>
   </g>
   <g id="line2d_37">
    <path style="fill: none; stroke: #000080; stroke-width: 1.5; stroke-linecap: square"/>
    <g/>
   </g>
   <g id="line2d_38">
    <path d="M 81.696354 270.579972 
" clip-path="url(#pb556d37a95)" style="fill: none; stroke: #000080; stroke-width: 1.5; stroke-linecap: square"/>
    <defs>
     <path id="m23bb06889e" d="M -12 12 
L 12 -12 
M -12 -12 
L 12 12 
" style="stroke: #000080"/>
    </defs>
    <g clip-path="url(#pb556d37a95)">
     <use xlink:href="#m23bb06889e" x="81.696354" y="270.579972" style="fill: #000080; stroke: #000080"/>
    </g>
   </g>
   <g id="line2d_39">
    <defs>
     <path id="m437f8eca3c" d="M 0 1.5 
C 0.397805 1.5 0.77937 1.341951 1.06066 1.06066 
C 1.341951 0.77937 1.5 0.397805 1.5 0 
C 1.5 -0.397805 1.341951 -0.77937 1.06066 -1.06066 
C 0.77937 -1.341951 0.397805 -1.5 0 -1.5 
C -0.397805 -1.5 -0.77937 -1.341951 -1.06066 -1.06066 
C -1.341951 -0.77937 -1.5 -0.397805 -1.5 0 
C -1.5 0.397805 -1.341951 0.77937 -1.06066 1.06066 
C -0.77937 1.341951 -0.397805 1.5 0 1.5 
z
" style="stroke: #ff00ff"/>
    </defs>
    <g>
     <use xlink:href="#m437f8eca3c" x="273.396236" y="110.801545" style="fill: #ff00ff; stroke: #ff00ff"/>
     <use xlink:href="#m437f8eca3c" x="273.396236" y="110.801545" style="fill: #ff00ff; stroke: #ff00ff"/>
    </g>
   </g>
   <g id="line2d_40">
    <path d="M 27.323974 298.944 
L 27.323974 286.188579 
L 40.363149 286.188579 
L 40.363149 286.020745 
L 47.990577 286.020745 
L 47.990577 285.85291 
L 53.402323 285.85291 
L 53.402323 285.685076 
L 57.6 285.685076 
L 57.6 285.349407 
L 61.029752 285.349407 
L 61.029752 285.181572 
L 63.929565 285.181572 
L 63.929565 284.845903 
L 68.65718 284.845903 
L 68.65718 284.006731 
L 72.432107 284.006731 
L 72.432107 283.838897 
L 75.574654 283.838897 
L 75.574654 283.167559 
L 78.266603 283.167559 
L 78.266603 282.999724 
L 79.480672 282.999724 
L 79.480672 282.664055 
L 81.696354 282.664055 
L 81.696354 282.496221 
L 82.713442 282.496221 
L 82.713442 281.657048 
L 83.678349 281.657048 
L 83.678349 280.817876 
L 85.471281 280.817876 
L 85.471281 280.482207 
L 86.307488 280.482207 
L 86.307488 280.314372 
L 88.613828 280.314372 
L 88.613828 279.978703 
L 89.323782 279.978703 
L 89.323782 279.643034 
L 90.668036 279.643034 
L 90.668036 279.4752 
L 91.305777 279.4752 
L 91.305777 279.139531 
L 91.922605 279.139531 
L 91.922605 278.468193 
L 92.519847 278.468193 
L 92.519847 278.300359 
L 97.18203 278.300359 
L 97.18203 278.132524 
L 97.635342 278.132524 
L 97.635342 277.461186 
L 98.077987 277.461186 
L 98.077987 277.293352 
L 100.147275 277.293352 
L 100.147275 276.957683 
L 103.380045 276.957683 
L 103.380045 276.789848 
L 104.028784 276.789848 
L 104.028784 276.622014 
L 104.961779 276.622014 
L 104.961779 276.454179 
L 105.26277 276.454179 
L 105.26277 276.11851 
L 106.137884 276.11851 
L 106.137884 275.615007 
L 106.699465 275.615007 
L 106.699465 275.447172 
L 106.974091 275.447172 
L 106.974091 275.279338 
L 107.244765 275.279338 
L 107.244765 275.111503 
L 108.29012 275.111503 
L 108.29012 274.775834 
L 109.280431 274.775834 
L 109.280431 274.440166 
L 109.990385 274.440166 
L 109.990385 273.768828 
L 110.221204 273.768828 
L 110.221204 273.265324 
L 110.449226 273.265324 
L 110.449226 273.09749 
L 110.897141 273.09749 
L 110.897141 272.929655 
L 111.117162 272.929655 
L 111.117162 272.593986 
L 112.180244 272.593986 
L 112.180244 272.258317 
L 112.790402 272.258317 
L 112.790402 271.922648 
L 112.989468 271.922648 
L 112.989468 271.754814 
L 113.186449 271.754814 
L 113.186449 271.419145 
L 114.326893 271.419145 
L 114.326893 271.25131 
L 114.510421 271.25131 
L 114.510421 270.747807 
L 114.692177 270.747807 
L 114.692177 270.579972 
L 114.872193 270.579972 
L 114.872193 270.244303 
L 116.086263 270.244303 
L 116.086263 269.7408 
L 116.253478 269.7408 
L 116.253478 269.572966 
L 117.384126 269.572966 
L 117.384126 268.23029 
L 117.695068 268.23029 
L 117.695068 268.062455 
L 117.848632 268.062455 
L 117.848632 267.558952 
L 118.152051 267.558952 
L 118.152051 267.391117 
L 118.450653 267.391117 
L 118.450653 267.223283 
L 118.74459 267.223283 
L 118.74459 267.055448 
L 119.034004 267.055448 
L 119.034004 266.887614 
L 119.177058 266.887614 
L 119.177058 266.719779 
L 119.319033 266.719779 
L 119.319033 266.048441 
L 119.459944 266.048441 
L 119.459944 265.712772 
L 119.599808 265.712772 
L 119.599808 265.209269 
L 119.738639 265.209269 
L 119.738639 264.8736 
L 119.876453 264.8736 
L 119.876453 264.705766 
L 120.813877 264.705766 
L 120.813877 264.034428 
L 120.944062 264.034428 
L 120.944062 263.36309 
L 121.455972 263.36309 
L 121.455972 262.691752 
L 121.581803 262.691752 
L 121.581803 262.523917 
L 121.706797 262.523917 
L 121.706797 262.188248 
L 122.076872 262.188248 
L 122.076872 261.684745 
L 122.319605 261.684745 
L 122.319605 261.51691 
L 123.029559 261.51691 
L 123.029559 261.013407 
L 123.145323 261.013407 
L 123.145323 260.342069 
L 123.260379 260.342069 
L 123.260379 259.670731 
L 123.4884 259.670731 
L 123.4884 259.502897 
L 124.046648 259.502897 
L 124.046648 258.663724 
L 124.588805 258.663724 
L 124.695386 257.824552 
L 124.801367 257.824552 
L 124.801367 256.985379 
L 125.219419 256.985379 
L 125.219419 256.817545 
L 125.526971 256.817545 
L 125.526971 256.64971 
L 125.729248 256.64971 
L 125.829577 256.146207 
L 125.929373 256.146207 
L 126.028642 255.642703 
L 126.517282 255.642703 
L 126.517282 255.307034 
L 126.804487 255.307034 
L 126.899255 254.300028 
L 127.087372 254.300028 
L 127.18073 253.460855 
L 127.273627 253.460855 
L 127.366067 252.789517 
L 127.640693 252.789517 
L 127.640693 252.621683 
L 127.821575 252.621683 
L 127.821575 252.453848 
L 128.089678 252.453848 
L 128.089678 251.950345 
L 128.354013 251.950345 
L 128.441306 251.614676 
L 128.700779 251.614676 
L 128.786481 250.607669 
L 128.871795 250.607669 
L 128.956723 250.104166 
L 129.292652 250.104166 
L 129.292652 249.768497 
L 129.622688 249.768497 
L 129.7043 249.097159 
L 129.78556 249.097159 
L 129.86647 248.090152 
L 129.947033 248.090152 
L 130.027253 247.754483 
L 130.186674 247.754483 
L 130.265881 247.250979 
L 130.501519 247.250979 
L 130.501519 247.083145 
L 130.734242 247.083145 
L 130.734242 246.747476 
L 131.341119 246.747476 
L 131.341119 246.579641 
L 131.783764 246.579641 
L 131.856536 245.908303 
L 132.001241 245.908303 
L 132.001241 245.740469 
L 132.358208 245.740469 
L 132.358208 245.572634 
L 132.638982 245.572634 
L 132.638982 244.901297 
L 132.984158 244.901297 
L 133.05244 244.565628 
L 133.457005 244.565628 
L 133.457005 244.397793 
L 133.78762 244.397793 
L 133.78762 244.062124 
L 133.918257 244.062124 
L 133.918257 243.558621 
L 134.112526 243.558621 
L 134.112526 243.390786 
L 134.240933 243.390786 
L 134.240933 243.222952 
L 134.368469 243.222952 
L 134.368469 242.887283 
L 134.683578 242.887283 
L 134.683578 242.719448 
L 134.993495 242.719448 
L 134.993495 242.215945 
L 135.35878 242.215945 
L 135.35878 242.04811 
L 135.538796 242.04811 
L 135.538796 241.880276 
L 136.010584 241.880276 
L 136.010584 241.544607 
L 136.184497 241.544607 
L 136.184497 241.376772 
L 136.696795 241.376772 
L 136.752866 240.5376 
L 136.808769 240.5376 
L 136.808769 239.194924 
L 137.520791 239.194924 
L 137.627979 238.523586 
L 138.667556 238.523586 
L 138.667556 237.852248 
L 139.508159 237.852248 
L 139.556456 237.348745 
L 140.58877 237.348745 
L 140.679868 237.013076 
L 141.523975 237.013076 
L 141.523975 236.677407 
L 141.739954 236.677407 
L 141.739954 236.509572 
L 141.910969 236.509572 
L 141.910969 236.173903 
L 142.038218 236.173903 
L 142.038218 235.6704 
L 142.45627 235.6704 
L 142.45627 235.334731 
L 142.620923 235.334731 
L 142.620923 234.999062 
L 143.501625 234.999062 
L 143.501625 234.831228 
L 144.454795 234.831228 
L 144.454795 234.663393 
L 144.602918 234.663393 
L 144.676545 234.15989 
L 144.822939 234.15989 
L 144.822939 233.992055 
L 145.7477 233.992055 
L 145.7477 233.824221 
L 146.562769 233.824221 
L 146.562769 233.656386 
L 149.020615 233.656386 
L 149.020615 233.320717 
L 149.595059 233.320717 
L 149.595059 233.152883 
L 149.875833 233.152883 
L 149.903682 232.817214 
L 150.506141 232.817214 
L 150.506141 232.481545 
L 150.667154 232.481545 
L 150.667154 232.145876 
L 150.879716 232.145876 
L 150.879716 231.810207 
L 151.579882 231.810207 
L 151.579882 231.474538 
L 151.807597 231.474538 
L 151.882893 230.971034 
L 152.953957 230.971034 
L 152.953957 230.635366 
L 153.071898 230.635366 
L 153.071898 230.467531 
L 153.305585 230.467531 
L 153.375128 229.796193 
L 154.563149 229.796193 
L 154.671449 229.124855 
L 155.639595 229.124855 
L 155.639595 228.789186 
L 155.782649 228.789186 
L 155.782649 228.621352 
L 155.904407 228.621352 
L 155.904407 228.453517 
L 156.065535 228.453517 
L 156.165543 227.782179 
L 156.383708 227.782179 
L 156.383708 227.44651 
L 156.696589 227.44651 
L 156.793307 226.775172 
L 157.061501 226.775172 
L 157.118477 226.439503 
L 157.194177 226.439503 
L 157.288377 226.103834 
L 157.325925 226.103834 
L 157.400797 225.600331 
L 157.623641 225.600331 
L 157.734081 224.928993 
L 158.043518 224.928993 
L 158.043518 224.761159 
L 158.2053 224.761159 
L 158.223191 224.42549 
L 158.489522 224.42549 
L 158.489522 224.257655 
L 158.682463 224.257655 
L 158.699905 223.754152 
L 158.890711 223.754152 
L 158.942415 223.250648 
L 159.079601 223.250648 
L 159.079601 223.082814 
L 159.266613 223.082814 
L 159.266613 222.747145 
L 159.585318 222.747145 
L 159.585318 222.57931 
L 159.800309 222.57931 
L 159.849576 221.907972 
L 159.980326 221.907972 
L 160.045361 221.236634 
L 160.351247 221.236634 
L 160.351247 221.0688 
L 160.478568 221.0688 
L 160.478568 220.900966 
L 160.793149 220.900966 
L 160.839886 220.397462 
L 161.224909 220.397462 
L 161.331318 219.222621 
L 161.437128 219.222621 
L 161.452196 218.719117 
L 161.869254 218.719117 
L 161.928087 218.047779 
L 162.377902 218.047779 
L 162.377902 217.544276 
L 162.591753 217.544276 
L 162.620084 216.537269 
L 163.191653 216.537269 
L 163.260183 215.865931 
L 163.328465 215.865931 
L 163.382912 215.194593 
L 163.73303 215.194593 
L 163.746367 214.355421 
L 163.971658 214.355421 
L 164.07675 213.348414 
L 164.142137 213.348414 
L 164.181259 212.677076 
L 164.259262 212.677076 
L 164.259262 212.509241 
L 164.516958 212.509241 
L 164.516958 212.173572 
L 164.63178 212.173572 
L 164.682588 211.502234 
L 164.80901 211.502234 
L 164.80901 211.166566 
L 164.934588 211.166566 
L 164.984586 210.495228 
L 165.046896 210.495228 
L 165.071763 209.991724 
L 165.318637 209.991724 
L 165.392072 209.320386 
L 165.465221 209.320386 
L 165.465221 209.152552 
L 165.64686 209.152552 
L 165.731028 208.816883 
L 165.981296 208.816883 
L 166.063985 207.97771 
L 166.193193 207.97771 
L 166.193193 207.642041 
L 166.575579 207.642041 
L 166.678531 206.4672 
L 166.814929 206.4672 
L 166.837566 206.131531 
L 167.229371 206.131531 
L 167.339833 204.95669 
L 167.427738 204.95669 
L 167.48247 203.614014 
L 167.569712 203.614014 
L 167.569712 203.446179 
L 167.871912 203.446179 
L 167.871912 203.11051 
L 168.010586 203.11051 
L 168.05305 202.607007 
L 168.148245 202.607007 
L 168.211442 201.264331 
L 168.358081 201.264331 
L 168.358081 200.928662 
L 168.4725 200.928662 
L 168.4725 200.592993 
L 168.699272 200.592993 
L 168.760648 199.921655 
L 168.811641 199.921655 
L 168.913216 198.578979 
L 168.953693 198.578979 
L 169.064557 197.739807 
L 169.124754 197.739807 
L 169.124754 197.571972 
L 169.244573 197.571972 
L 169.244573 197.236303 
L 169.472115 197.236303 
L 169.560409 196.564966 
L 169.619042 196.564966 
L 169.619042 196.397131 
L 169.774511 196.397131 
L 169.880655 195.725793 
L 170.176605 195.725793 
L 170.271088 195.22229 
L 170.449309 195.22229 
L 170.523847 194.383117 
L 170.681267 194.383117 
L 170.764077 193.711779 
L 170.864796 193.711779 
L 170.864796 193.37611 
L 171.010341 193.37611 
L 171.028455 193.040441 
L 171.127772 193.040441 
L 171.235523 192.033434 
L 171.458043 192.033434 
L 171.458043 191.8656 
L 171.607866 191.8656 
L 171.67796 191.362097 
L 171.826049 191.362097 
L 171.826049 191.194262 
L 172.041731 191.194262 
L 172.093129 190.858593 
L 172.169963 190.858593 
L 172.169963 190.522924 
L 172.465815 190.522924 
L 172.566188 190.019421 
L 172.641118 190.019421 
L 172.690906 188.676745 
L 172.921523 188.676745 
L 172.921523 188.50891 
L 173.108866 188.50891 
L 173.108866 188.173241 
L 173.221995 188.173241 
L 173.2381 187.334069 
L 173.493935 187.334069 
L 173.525671 186.830566 
L 173.620559 186.830566 
L 173.722818 186.159228 
L 173.7385 186.159228 
L 173.77765 185.655724 
L 174.034017 185.655724 
L 174.141731 184.648717 
L 174.164733 184.648717 
L 174.264083 183.473876 
L 174.370492 183.473876 
L 174.415913 182.970372 
L 174.701055 182.970372 
L 174.79762 181.795531 
L 174.834629 181.795531 
L 174.908429 181.459862 
L 174.974602 181.459862 
L 175.084376 180.62069 
L 175.142661 180.62069 
L 175.22251 179.949352 
L 175.294806 179.949352 
L 175.374013 179.278014 
L 175.588351 179.278014 
L 175.687546 178.77451 
L 175.919314 178.77451 
L 176.00289 178.271007 
L 176.127562 178.271007 
L 176.21022 177.431834 
L 176.306197 177.431834 
L 176.360823 177.096166 
L 176.476377 177.096166 
L 176.530511 176.760497 
L 176.638314 176.760497 
L 176.705378 176.089159 
L 177.004244 176.089159 
L 177.024001 175.585655 
L 177.220434 175.585655 
L 177.233457 175.082152 
L 177.504875 175.082152 
L 177.56253 174.242979 
L 177.721762 174.242979 
L 177.797717 173.571641 
L 177.854483 173.571641 
L 177.911078 173.068138 
L 178.017518 173.068138 
L 178.123358 172.564634 
L 178.154375 172.564634 
L 178.154375 172.228966 
L 178.290243 172.228966 
L 178.394565 171.557628 
L 178.877868 171.557628 
L 178.877868 171.389793 
L 178.996779 171.389793 
L 178.996779 171.054124 
L 179.120831 171.054124 
L 179.138486 170.550621 
L 179.296641 170.550621 
L 179.401344 169.879283 
L 179.465043 169.879283 
L 179.563065 168.536607 
L 179.58031 168.536607 
L 179.631951 168.033103 
L 179.729109 168.033103 
L 179.729109 167.697434 
L 179.882396 167.697434 
L 179.950124 167.361766 
L 180.034443 167.361766 
L 180.112802 166.690428 
L 180.362479 166.690428 
L 180.406522 166.186924 
L 180.787556 166.186924 
L 180.787556 165.851255 
L 180.948523 165.851255 
L 181.033812 165.012083 
L 181.108124 165.012083 
L 181.166307 164.508579 
L 181.297875 164.508579 
L 181.386819 164.005076 
L 181.464951 164.005076 
L 181.573793 163.333738 
L 181.594454 163.333738 
L 181.666588 162.830234 
L 181.74869 162.830234 
L 181.794715 162.326731 
L 181.860998 162.326731 
L 181.901672 161.823228 
L 182.402808 161.823228 
L 182.486689 161.319724 
L 182.594689 161.319724 
L 182.594689 161.15189 
L 182.716668 161.15189 
L 182.804006 160.816221 
L 182.871656 160.816221 
L 182.948674 159.30571 
L 183.068386 159.30571 
L 183.068386 159.137876 
L 183.192084 159.137876 
L 183.26308 157.963034 
L 183.357327 157.963034 
L 183.451103 157.627366 
L 183.609459 157.627366 
L 183.609459 157.459531 
L 183.890268 157.459531 
L 183.990523 156.620359 
L 184.094768 156.620359 
L 184.112838 156.28469 
L 184.283649 156.28469 
L 184.310478 155.949021 
L 184.708387 155.949021 
L 184.708387 155.781186 
L 184.895568 155.781186 
L 184.895568 155.613352 
L 185.033667 155.613352 
L 185.132303 154.942014 
L 185.230425 154.942014 
L 185.243185 154.606345 
L 185.738365 154.606345 
L 185.738365 154.270676 
L 185.923824 154.270676 
L 186.013832 153.599338 
L 186.099348 153.599338 
L 186.143988 153.095834 
L 186.373621 153.095834 
L 186.377625 152.592331 
L 186.509272 152.592331 
L 186.509272 152.424497 
L 186.640005 152.424497 
L 186.74237 151.585324 
L 186.898776 151.585324 
L 186.957094 151.081821 
L 187.088617 151.081821 
L 187.088617 150.913986 
L 187.526779 150.913986 
L 187.526779 150.746152 
L 187.714147 150.746152 
L 187.729056 150.410483 
L 187.954967 150.410483 
L 188.013777 149.906979 
L 188.326764 149.906979 
L 188.326764 149.739145 
L 188.567044 149.739145 
L 188.567044 149.57131 
L 188.730254 149.57131 
L 188.730254 149.403476 
L 189.14947 149.403476 
L 189.24252 149.067807 
L 189.328269 149.067807 
L 189.328269 148.732138 
L 190.17801 148.732138 
L 190.259608 148.0608 
L 190.327878 148.0608 
L 190.327878 147.725131 
L 191.381651 147.725131 
L 191.424558 147.221628 
L 191.84234 147.221628 
L 191.84234 146.885959 
L 192.434717 146.885959 
L 192.434717 146.718124 
L 192.94982 146.718124 
L 192.94982 146.55029 
L 193.30218 146.55029 
L 193.30218 146.382455 
L 193.456691 146.382455 
L 193.456691 146.046786 
L 193.686103 146.046786 
L 193.686103 145.878952 
L 193.907386 145.878952 
L 193.907386 145.711117 
L 194.767372 145.711117 
L 194.874707 145.375448 
L 195.20811 145.375448 
L 195.20811 145.207614 
L 195.375104 145.207614 
L 195.375104 145.039779 
L 195.697391 145.039779 
L 195.697391 144.871945 
L 195.997453 144.871945 
L 196.086069 144.368441 
L 196.198035 144.368441 
L 196.198035 144.200607 
L 196.89743 144.200607 
L 196.89743 144.032772 
L 197.452144 144.032772 
L 197.452144 143.864938 
L 198.350272 143.864938 
L 198.350272 143.697103 
L 198.727774 143.697103 
L 198.727774 143.529269 
L 199.227696 143.529269 
L 199.282208 143.1936 
L 199.474758 143.1936 
L 199.476753 142.857931 
L 199.689046 142.857931 
L 199.689046 142.690097 
L 199.969076 142.690097 
L 200.056341 142.186593 
L 200.513154 142.186593 
L 200.567836 141.515255 
L 201.005183 141.515255 
L 201.005183 141.347421 
L 201.197354 141.347421 
L 201.197354 141.011752 
L 202.716663 141.011752 
L 202.716663 140.843917 
L 203.292268 140.843917 
L 203.370297 140.508248 
L 204.272969 140.508248 
L 204.365515 140.172579 
L 205.086977 140.172579 
L 205.132825 139.83691 
L 205.313643 139.83691 
L 205.424505 139.333407 
L 205.800331 139.333407 
L 205.800331 138.997738 
L 206.108585 138.997738 
L 206.108585 138.829903 
L 206.251098 138.829903 
L 206.251098 138.494234 
L 206.48762 138.494234 
L 206.48762 138.3264 
L 206.821396 138.3264 
L 206.9224 137.990731 
L 207.044227 137.990731 
L 207.044227 137.655062 
L 207.219553 137.655062 
L 207.219553 137.487228 
L 207.615931 137.487228 
L 207.653434 136.81589 
L 207.73079 136.81589 
L 207.73079 136.648055 
L 208.323488 136.648055 
L 208.323488 136.480221 
L 208.654673 136.480221 
L 208.654673 136.312386 
L 208.890825 136.312386 
L 208.890825 136.144552 
L 209.16105 136.144552 
L 209.203928 135.808883 
L 209.317794 135.808883 
L 209.317794 135.473214 
L 209.599479 135.473214 
L 209.688967 135.137545 
L 210.001714 135.137545 
L 210.047271 134.634041 
L 210.796577 134.634041 
L 210.796577 134.466207 
L 211.085123 134.466207 
L 211.085123 134.130538 
L 211.250176 134.130538 
L 211.250176 133.962703 
L 211.537154 133.962703 
L 211.574949 133.4592 
L 211.913793 133.4592 
L 211.913793 133.123531 
L 212.255747 133.123531 
L 212.276977 132.620028 
L 212.442958 132.620028 
L 212.528893 131.94869 
L 213.274592 131.94869 
L 213.274592 131.780855 
L 213.560824 131.780855 
L 213.560824 131.613021 
L 215.866366 131.613021 
L 215.866366 131.445186 
L 216.008592 131.445186 
L 216.008592 131.277352 
L 216.128356 131.277352 
L 216.235086 130.438179 
L 216.92787 130.438179 
L 216.92787 130.270345 
L 217.050565 130.270345 
L 217.050565 130.10251 
L 217.838924 130.10251 
L 217.838924 129.934676 
L 218.049738 129.934676 
L 218.049738 129.599007 
L 218.216999 129.599007 
L 218.216999 129.263338 
L 218.689213 129.263338 
L 218.689213 129.095503 
L 220.185874 129.095503 
L 220.185874 128.759834 
L 220.378652 128.759834 
L 220.378652 128.424166 
L 220.771251 128.424166 
L 220.771251 128.088497 
L 221.015386 128.088497 
L 221.015386 127.920662 
L 221.188567 127.920662 
L 221.188567 127.752828 
L 221.501159 127.752828 
L 221.501159 127.417159 
L 221.963839 127.417159 
L 222.072201 126.745821 
L 222.256184 126.745821 
L 222.346914 126.242317 
L 222.501859 126.242317 
L 222.501859 126.074483 
L 223.498246 126.074483 
L 223.498246 125.906648 
L 223.801286 125.906648 
L 223.801286 125.570979 
L 224.882274 125.570979 
L 224.882274 125.23531 
L 225.362573 125.23531 
L 225.362573 125.067476 
L 225.697227 125.067476 
L 225.697227 124.899641 
L 225.97927 124.899641 
L 225.97927 124.731807 
L 226.467409 124.731807 
L 226.467409 124.563972 
L 226.889842 124.563972 
L 226.889842 124.396138 
L 227.005648 124.396138 
L 227.005648 124.228303 
L 227.132676 124.228303 
L 227.132676 124.060469 
L 228.518373 124.060469 
L 228.518373 123.892634 
L 229.305753 123.892634 
L 229.305753 123.7248 
L 229.957968 123.7248 
L 230.064636 123.221297 
L 230.238102 123.221297 
L 230.238102 123.053462 
L 230.699839 123.053462 
L 230.699839 122.885628 
L 231.66577 122.885628 
L 231.66577 122.549959 
L 232.345795 122.549959 
L 232.345795 122.382124 
L 234.026601 122.382124 
L 234.026601 122.046455 
L 234.388742 122.046455 
L 234.388742 121.878621 
L 234.814915 121.878621 
L 234.814915 121.710786 
L 235.199709 121.710786 
L 235.199709 121.542952 
L 236.094881 121.542952 
L 236.165392 121.207283 
L 236.891043 121.207283 
L 236.891043 121.039448 
L 237.725528 121.039448 
L 237.725528 120.535945 
L 237.90438 120.535945 
L 237.90438 120.36811 
L 238.141938 120.36811 
L 238.141938 120.200276 
L 239.312893 120.200276 
L 239.312893 120.032441 
L 239.915769 120.032441 
L 239.915769 119.864607 
L 240.407514 119.864607 
L 240.516142 119.528938 
L 240.916955 119.528938 
L 240.916955 119.361103 
L 241.108423 119.361103 
L 241.108423 119.193269 
L 241.87592 119.193269 
L 241.87592 119.025434 
L 242.038613 119.025434 
L 242.038613 118.8576 
L 242.267533 118.8576 
L 242.267533 118.521931 
L 242.960199 118.521931 
L 242.960199 118.354097 
L 243.206755 118.354097 
L 243.206755 118.018428 
L 243.433545 118.018428 
L 243.514939 117.514924 
L 244.518926 117.514924 
L 244.518926 117.179255 
L 246.607142 117.179255 
L 246.607142 117.011421 
L 246.879166 117.011421 
L 246.879166 116.843586 
L 247.118482 116.843586 
L 247.118482 116.507917 
L 247.348528 116.507917 
L 247.348528 116.340083 
L 248.728503 116.340083 
L 248.728503 116.172248 
L 249.002279 116.172248 
L 249.078571 115.836579 
L 249.531747 115.836579 
L 249.531747 115.668745 
L 249.803507 115.668745 
L 249.803507 115.50091 
L 250.105378 115.50091 
L 250.105378 115.165241 
L 250.733725 115.165241 
L 250.733725 114.997407 
L 253.098077 114.997407 
L 253.098077 114.661738 
L 253.31452 114.661738 
L 253.340162 114.326069 
L 254.603006 114.326069 
L 254.643324 113.9904 
L 254.753413 113.9904 
L 254.753413 113.822566 
L 256.642802 113.822566 
L 256.642802 113.654731 
L 257.367466 113.654731 
L 257.367466 113.486897 
L 257.743037 113.486897 
L 257.743037 113.319062 
L 258.126982 113.319062 
L 258.126982 113.151228 
L 259.991895 113.151228 
L 259.991895 112.983393 
L 260.36404 112.983393 
L 260.36404 112.815559 
L 260.485328 112.815559 
L 260.485328 112.647724 
L 263.257222 112.647724 
L 263.257222 112.312055 
L 263.948286 112.312055 
L 263.948286 112.144221 
L 264.865365 112.144221 
L 264.865365 111.976386 
L 267.911748 111.976386 
L 267.911748 111.808552 
L 268.593373 111.808552 
L 268.593373 111.472883 
L 270.316645 111.472883 
L 270.316645 111.305048 
L 270.834321 111.305048 
L 270.834321 111.137214 
L 273.396236 111.137214 
L 273.396236 110.801545 
L 360.8064 110.801545 
L 360.8064 110.801545 
" style="fill: none; stroke: #ff00ff; stroke-width: 1.5; stroke-linecap: square"/>
   </g>
   <g id="line2d_41">
    <defs>
     <path id="m52e5e4e9ee" d="M 0 8.485281 
L 5.091169 0 
L 0 -8.485281 
L -5.091169 0 
z
" style="stroke: #ff00ff; stroke-width: 1.5; stroke-linejoin: miter"/>
    </defs>
    <g>
     <use xlink:href="#m52e5e4e9ee" x="132.638982" y="245.572634" style="fill-opacity: 0; stroke: #ff00ff; stroke-width: 1.5; stroke-linejoin: miter"/>
     <use xlink:href="#m52e5e4e9ee" x="196.198035" y="144.200607" style="fill-opacity: 0; stroke: #ff00ff; stroke-width: 1.5; stroke-linejoin: miter"/>
     <use xlink:href="#m52e5e4e9ee" x="260.485328" y="112.647724" style="fill-opacity: 0; stroke: #ff00ff; stroke-width: 1.5; stroke-linejoin: miter"/>
     <use xlink:href="#m52e5e4e9ee" x="273.396236" y="110.801545" style="fill-opacity: 0; stroke: #ff00ff; stroke-width: 1.5; stroke-linejoin: miter"/>
     <use xlink:href="#m52e5e4e9ee" x="273.396236" y="110.801545" style="fill-opacity: 0; stroke: #ff00ff; stroke-width: 1.5; stroke-linejoin: miter"/>
     <use xlink:href="#m52e5e4e9ee" x="360.8064" y="110.801545" style="fill-opacity: 0; stroke: #ff00ff; stroke-width: 1.5; stroke-linejoin: miter"/>
    </g>
   </g>
   <g id="line2d_42">
    <path style="fill: none; stroke: #ff00ff; stroke-width: 1.5; stroke-linecap: square"/>
    <g/>
   </g>
   <g id="line2d_43">
    <path d="M 274.176038 110.801545 
" clip-path="url(#pb556d37a95)" style="fill: none; stroke: #ff00ff; stroke-width: 1.5; stroke-linecap: square"/>
    <defs>
     <path id="m5806d671e7" d="M -12 12 
L 12 -12 
M -12 -12 
L 12 12 
" style="stroke: #ff00ff"/>
    </defs>
    <g clip-path="url(#pb556d37a95)">
     <use xlink:href="#m5806d671e7" x="274.176038" y="110.801545" style="fill: #ff00ff; stroke: #ff00ff"/>
    </g>
   </g>
   <g id="line2d_44">
    <defs>
     <path id="ma3f87740d0" d="M 0 1.5 
C 0.397805 1.5 0.77937 1.341951 1.06066 1.06066 
C 1.341951 0.77937 1.5 0.397805 1.5 0 
C 1.5 -0.397805 1.341951 -0.77937 1.06066 -1.06066 
C 0.77937 -1.341951 0.397805 -1.5 0 -1.5 
C -0.397805 -1.5 -0.77937 -1.341951 -1.06066 -1.06066 
C -1.341951 -0.77937 -1.5 -0.397805 -1.5 0 
C -1.5 0.397805 -1.341951 0.77937 -1.06066 1.06066 
C -0.77937 1.341951 -0.397805 1.5 0 1.5 
z
" style="stroke: #6495ed"/>
    </defs>
    <g>
     <use xlink:href="#ma3f87740d0" x="113.954374" y="239.866262" style="fill: #6495ed; stroke: #6495ed"/>
     <use xlink:href="#ma3f87740d0" x="113.954374" y="239.866262" style="fill: #6495ed; stroke: #6495ed"/>
    </g>
   </g>
   <g id="line2d_45">
    <path d="M 27.323974 298.944 
L 27.323974 296.258648 
L 40.363149 296.258648 
L 40.363149 295.419476 
L 47.990577 295.419476 
L 47.990577 295.083807 
L 53.402323 295.083807 
L 53.402323 294.0768 
L 61.029752 294.0768 
L 61.029752 293.908966 
L 63.929565 293.908966 
L 63.929565 292.901959 
L 66.441498 292.901959 
L 66.441498 291.055779 
L 68.65718 291.055779 
L 68.65718 289.713103 
L 70.639174 289.713103 
L 70.639174 288.873931 
L 72.432107 288.873931 
L 72.432107 288.538262 
L 74.068926 288.538262 
L 74.068926 287.531255 
L 75.574654 287.531255 
L 75.574654 287.195586 
L 76.96874 287.195586 
L 76.96874 286.859917 
L 78.266603 286.859917 
L 78.266603 286.524248 
L 80.621116 286.524248 
L 80.621116 285.349407 
L 81.696354 285.349407 
L 81.696354 284.510234 
L 82.713442 284.510234 
L 82.713442 284.174566 
L 83.678349 284.174566 
L 83.678349 283.167559 
L 84.596168 283.167559 
L 84.596168 281.824883 
L 85.471281 281.824883 
L 85.471281 281.657048 
L 89.323782 281.657048 
L 89.323782 280.98571 
L 90.007914 280.98571 
L 90.007914 280.650041 
L 90.668036 280.650041 
L 90.668036 280.314372 
L 91.305777 280.314372 
L 91.305777 280.146538 
L 91.922605 280.146538 
L 91.922605 279.4752 
L 92.519847 279.4752 
L 92.519847 277.796855 
L 93.098709 277.796855 
L 93.098709 277.629021 
L 93.66029 277.629021 
L 93.66029 277.461186 
L 95.250946 277.461186 
L 95.250946 277.293352 
L 95.752617 277.293352 
L 95.752617 276.789848 
L 96.241256 276.789848 
L 96.241256 275.950676 
L 96.717523 275.950676 
L 96.717523 275.615007 
L 97.635342 275.615007 
L 97.635342 275.447172 
L 98.077987 275.447172 
L 98.077987 275.111503 
L 99.346662 275.111503 
L 99.346662 274.775834 
L 99.751228 274.775834 
L 99.751228 274.104497 
L 100.147275 274.104497 
L 100.147275 273.768828 
L 100.535156 273.768828 
L 100.535156 273.600993 
L 102.708132 273.600993 
L 102.708132 272.593986 
L 103.047088 272.593986 
L 103.047088 272.426152 
L 103.380045 272.426152 
L 103.380045 271.922648 
L 103.707211 271.922648 
L 103.707211 271.25131 
L 104.028784 271.25131 
L 104.028784 268.901628 
L 104.344952 268.901628 
L 104.344952 268.062455 
L 104.655893 268.062455 
L 104.655893 264.537931 
L 104.961779 264.537931 
L 104.961779 262.020414 
L 105.26277 262.020414 
L 105.26277 259.838566 
L 105.559021 259.838566 
L 105.559021 258.663724 
L 105.850679 258.663724 
L 105.850679 257.488883 
L 106.137884 257.488883 
L 106.137884 256.985379 
L 106.42077 256.985379 
L 106.42077 255.642703 
L 106.699465 255.642703 
L 106.699465 255.1392 
L 106.974091 255.1392 
L 106.974091 253.964359 
L 107.244765 253.964359 
L 107.244765 252.621683 
L 107.5116 252.621683 
L 107.5116 251.111172 
L 107.774703 251.111172 
L 107.774703 250.272 
L 108.034177 250.272 
L 108.034177 249.600662 
L 108.29012 249.600662 
L 108.29012 248.929324 
L 108.542628 248.929324 
L 108.542628 246.579641 
L 108.791791 246.579641 
L 108.791791 246.243972 
L 109.037698 246.243972 
L 109.037698 246.076138 
L 109.280431 246.076138 
L 109.280431 245.236966 
L 109.756698 245.236966 
L 109.756698 245.069131 
L 109.990385 245.069131 
L 109.990385 244.901297 
L 110.221204 244.901297 
L 110.221204 244.565628 
L 110.674517 244.565628 
L 110.674517 244.397793 
L 110.897141 244.397793 
L 110.897141 243.89429 
L 111.334639 243.89429 
L 111.334639 243.558621 
L 111.97238 243.558621 
L 111.97238 242.887283 
L 112.180244 242.887283 
L 112.180244 242.383779 
L 112.385837 242.383779 
L 112.385837 242.215945 
L 112.790402 242.215945 
L 112.790402 241.376772 
L 113.186449 241.376772 
L 113.186449 240.873269 
L 113.57433 240.873269 
L 113.57433 240.369766 
L 113.765312 240.369766 
L 113.765312 240.201931 
L 113.954374 240.201931 
L 113.954374 239.866262 
L 360.8064 239.866262 
L 360.8064 239.866262 
" style="fill: none; stroke: #6495ed; stroke-width: 1.5; stroke-linecap: square"/>
   </g>
   <g id="line2d_46">
    <defs>
     <path id="m675bf5bc02" d="M -0 6 
L 6 -6 
L -6 -6 
z
" style="stroke: #6495ed; stroke-width: 1.5; stroke-linejoin: miter"/>
    </defs>
    <g>
     <use xlink:href="#m675bf5bc02" x="70.639174" y="288.873931" style="fill-opacity: 0; stroke: #6495ed; stroke-width: 1.5; stroke-linejoin: miter"/>
     <use xlink:href="#m675bf5bc02" x="113.954374" y="240.201931" style="fill-opacity: 0; stroke: #6495ed; stroke-width: 1.5; stroke-linejoin: miter"/>
     <use xlink:href="#m675bf5bc02" x="113.954374" y="240.201931" style="fill-opacity: 0; stroke: #6495ed; stroke-width: 1.5; stroke-linejoin: miter"/>
     <use xlink:href="#m675bf5bc02" x="113.954374" y="239.866262" style="fill-opacity: 0; stroke: #6495ed; stroke-width: 1.5; stroke-linejoin: miter"/>
     <use xlink:href="#m675bf5bc02" x="113.954374" y="239.866262" style="fill-opacity: 0; stroke: #6495ed; stroke-width: 1.5; stroke-linejoin: miter"/>
     <use xlink:href="#m675bf5bc02" x="360.8064" y="239.866262" style="fill-opacity: 0; stroke: #6495ed; stroke-width: 1.5; stroke-linejoin: miter"/>
    </g>
   </g>
   <g id="line2d_47">
    <path style="fill: none; stroke: #6495ed; stroke-width: 1.5; stroke-linecap: square"/>
    <g/>
   </g>
   <g id="line2d_48">
    <path d="M 113.954374 239.866262 
" clip-path="url(#pb556d37a95)" style="fill: none; stroke: #6495ed; stroke-width: 1.5; stroke-linecap: square"/>
    <defs>
     <path id="m3b32a344d1" d="M -12 12 
L 12 -12 
M -12 -12 
L 12 12 
" style="stroke: #6495ed"/>
    </defs>
    <g clip-path="url(#pb556d37a95)">
     <use xlink:href="#m3b32a344d1" x="113.954374" y="239.866262" style="fill: #6495ed; stroke: #6495ed"/>
    </g>
   </g>
   <g id="line2d_49">
    <path d="M 360.8064 270.579972 
L 380.514816 293.10336 
" style="fill: none; stroke: #000080; stroke-width: 1.5; stroke-linecap: square"/>
    <g>
     <use xlink:href="#md6fe318cce" x="360.8064" y="270.579972" style="fill-opacity: 0; stroke: #000080; stroke-width: 1.5"/>
     <use xlink:href="#md6fe318cce" x="380.514816" y="293.10336" style="fill-opacity: 0; stroke: #000080; stroke-width: 1.5"/>
    </g>
   </g>
   <g id="line2d_50">
    <path d="M 360.8064 239.866262 
L 380.514816 199.65312 
" style="fill: none; stroke: #6495ed; stroke-width: 1.5; stroke-linecap: square"/>
    <g>
     <use xlink:href="#m675bf5bc02" x="360.8064" y="239.866262" style="fill-opacity: 0; stroke: #6495ed; stroke-width: 1.5; stroke-linejoin: miter"/>
     <use xlink:href="#m675bf5bc02" x="380.514816" y="199.65312" style="fill-opacity: 0; stroke: #6495ed; stroke-width: 1.5; stroke-linejoin: miter"/>
    </g>
   </g>
   <g id="line2d_51">
    <path d="M 360.8064 110.801545 
L 380.514816 106.20288 
" style="fill: none; stroke: #ff00ff; stroke-width: 1.5; stroke-linecap: square"/>
    <g>
     <use xlink:href="#m52e5e4e9ee" x="360.8064" y="110.801545" style="fill-opacity: 0; stroke: #ff00ff; stroke-width: 1.5; stroke-linejoin: miter"/>
     <use xlink:href="#m52e5e4e9ee" x="380.514816" y="106.20288" style="fill-opacity: 0; stroke: #ff00ff; stroke-width: 1.5; stroke-linejoin: miter"/>
    </g>
   </g>
   <g id="line2d_52">
    <path d="M 360.8064 298.944 
L 360.8064 6.912 
" style="fill: none; stroke: #000000; stroke-width: 1.5; stroke-linecap: square"/>
   </g>
   <g id="patch_3">
    <path d="M 57.6 298.944 
L 360.8064 298.944 
" style="fill: none; stroke: #000000; stroke-width: 0.8; stroke-linejoin: miter; stroke-linecap: square"/>
   </g>
   <g id="patch_4">
    <path d="M 57.6 6.912 
L 360.8064 6.912 
" style="fill: none; stroke: #000000; stroke-width: 0.8; stroke-linejoin: miter; stroke-linecap: square"/>
   </g>
   <g id="text_13">
    <!-- cma -->
    <g transform="translate(386.578944 296.966485)scale(0.14 -0.14)">
     <use xlink:href="#DejaVuSans-63"/>
     <use xlink:href="#DejaVuSans-6d" x="54.980469"/>
     <use xlink:href="#DejaVuSans-61" x="152.392578"/>
    </g>
   </g>
   <g id="text_14">
    <!-- parEgo -->
    <g transform="translate(386.578944 203.516245)scale(0.14 -0.14)">
     <defs>
      <path id="DejaVuSans-45" d="M 628 4666 
L 3578 4666 
L 3578 4134 
L 1259 4134 
L 1259 2753 
L 3481 2753 
L 3481 2222 
L 1259 2222 
L 1259 531 
L 3634 531 
L 3634 0 
L 628 0 
L 628 4666 
z
" transform="scale(0.015625)"/>
     </defs>
     <use xlink:href="#DejaVuSans-70"/>
     <use xlink:href="#DejaVuSans-61" x="63.476562"/>
     <use xlink:href="#DejaVuSans-72" x="124.755859"/>
     <use xlink:href="#DejaVuSans-45" x="165.869141"/>
     <use xlink:href="#DejaVuSans-67" x="229.052734"/>
     <use xlink:href="#DejaVuSans-6f" x="292.529297"/>
    </g>
   </g>
   <g id="text_15">
    <!-- external- -->
    <g transform="translate(386.578944 110.066005)scale(0.14 -0.14)">
     <defs>
      <path id="DejaVuSans-78" d="M 3513 3500 
L 2247 1797 
L 3578 0 
L 2900 0 
L 1881 1375 
L 863 0 
L 184 0 
L 1544 1831 
L 300 3500 
L 978 3500 
L 1906 2253 
L 2834 3500 
L 3513 3500 
z
" transform="scale(0.015625)"/>
     </defs>
     <use xlink:href="#DejaVuSans-65"/>
     <use xlink:href="#DejaVuSans-78" x="59.773438"/>
     <use xlink:href="#DejaVuSans-74" x="118.953125"/>
     <use xlink:href="#DejaVuSans-65" x="158.162109"/>
     <use xlink:href="#DejaVuSans-72" x="219.685547"/>
     <use xlink:href="#DejaVuSans-6e" x="259.048828"/>
     <use xlink:href="#DejaVuSans-61" x="322.427734"/>
     <use xlink:href="#DejaVuSans-6c" x="383.707031"/>
     <use xlink:href="#DejaVuSans-2d" x="411.490234"/>
    </g>
   </g>
   <g id="text_16">
    <!-- best 2016 -->
    <g transform="translate(386.578944 16.615765)scale(0.14 -0.14)">
     <defs>
      <path id="DejaVuSans-62" d="M 3116 1747 
Q 3116 2381 2855 2742 
Q 2594 3103 2138 3103 
Q 1681 3103 1420 2742 
Q 1159 2381 1159 1747 
Q 1159 1113 1420 752 
Q 1681 391 2138 391 
Q 2594 391 2855 752 
Q 3116 1113 3116 1747 
z
M 1159 2969 
Q 1341 3281 1617 3432 
Q 1894 3584 2278 3584 
Q 2916 3584 3314 3078 
Q 3713 2572 3713 1747 
Q 3713 922 3314 415 
Q 2916 -91 2278 -91 
Q 1894 -91 1617 61 
Q 1341 213 1159 525 
L 1159 0 
L 581 0 
L 581 4863 
L 1159 4863 
L 1159 2969 
z
" transform="scale(0.015625)"/>
     </defs>
     <use xlink:href="#DejaVuSans-62"/>
     <use xlink:href="#DejaVuSans-65" x="63.476562"/>
     <use xlink:href="#DejaVuSans-73" x="125"/>
     <use xlink:href="#DejaVuSans-74" x="177.099609"/>
     <use xlink:href="#DejaVuSans-20" x="216.308594"/>
     <use xlink:href="#DejaVuSans-32" x="248.095703"/>
     <use xlink:href="#DejaVuSans-30" x="311.71875"/>
     <use xlink:href="#DejaVuSans-31" x="375.341797"/>
     <use xlink:href="#DejaVuSans-36" x="438.964844"/>
    </g>
   </g>
   <g id="text_17">
    <!-- bbob-biobj f20, f21, f28, 5-D -->
    <g transform="translate(60.632064 17.582726)scale(0.102 -0.102)">
     <defs>
      <path id="DejaVuSans-6a" d="M 603 3500 
L 1178 3500 
L 1178 -63 
Q 1178 -731 923 -1031 
Q 669 -1331 103 -1331 
L -116 -1331 
L -116 -844 
L 38 -844 
Q 366 -844 484 -692 
Q 603 -541 603 -63 
L 603 3500 
z
M 603 4863 
L 1178 4863 
L 1178 4134 
L 603 4134 
L 603 4863 
z
" transform="scale(0.015625)"/>
      <path id="DejaVuSans-35" d="M 691 4666 
L 3169 4666 
L 3169 4134 
L 1269 4134 
L 1269 2991 
Q 1406 3038 1543 3061 
Q 1681 3084 1819 3084 
Q 2600 3084 3056 2656 
Q 3513 2228 3513 1497 
Q 3513 744 3044 326 
Q 2575 -91 1722 -91 
Q 1428 -91 1123 -41 
Q 819 9 494 109 
L 494 744 
Q 775 591 1075 516 
Q 1375 441 1709 441 
Q 2250 441 2565 725 
Q 2881 1009 2881 1497 
Q 2881 1984 2565 2268 
Q 2250 2553 1709 2553 
Q 1456 2553 1204 2497 
Q 953 2441 691 2322 
L 691 4666 
z
" transform="scale(0.015625)"/>
      <path id="DejaVuSans-44" d="M 1259 4147 
L 1259 519 
L 2022 519 
Q 2988 519 3436 956 
Q 3884 1394 3884 2338 
Q 3884 3275 3436 3711 
Q 2988 4147 2022 4147 
L 1259 4147 
z
M 628 4666 
L 1925 4666 
Q 3281 4666 3915 4102 
Q 4550 3538 4550 2338 
Q 4550 1131 3912 565 
Q 3275 0 1925 0 
L 628 0 
L 628 4666 
z
" transform="scale(0.015625)"/>
     </defs>
     <use xlink:href="#DejaVuSans-62"/>
     <use xlink:href="#DejaVuSans-62" x="63.476562"/>
     <use xlink:href="#DejaVuSans-6f" x="126.953125"/>
     <use xlink:href="#DejaVuSans-62" x="188.134766"/>
     <use xlink:href="#DejaVuSans-2d" x="251.611328"/>
     <use xlink:href="#DejaVuSans-62" x="287.695312"/>
     <use xlink:href="#DejaVuSans-69" x="351.171875"/>
     <use xlink:href="#DejaVuSans-6f" x="378.955078"/>
     <use xlink:href="#DejaVuSans-62" x="440.136719"/>
     <use xlink:href="#DejaVuSans-6a" x="503.613281"/>
     <use xlink:href="#DejaVuSans-20" x="531.396484"/>
     <use xlink:href="#DejaVuSans-66" x="563.183594"/>
     <use xlink:href="#DejaVuSans-32" x="598.388672"/>
     <use xlink:href="#DejaVuSans-30" x="662.011719"/>
     <use xlink:href="#DejaVuSans-2c" x="725.634766"/>
     <use xlink:href="#DejaVuSans-20" x="757.421875"/>
     <use xlink:href="#DejaVuSans-66" x="789.208984"/>
     <use xlink:href="#DejaVuSans-32" x="824.414062"/>
     <use xlink:href="#DejaVuSans-31" x="888.037109"/>
     <use xlink:href="#DejaVuSans-2c" x="951.660156"/>
     <use xlink:href="#DejaVuSans-20" x="983.447266"/>
     <use xlink:href="#DejaVuSans-66" x="1015.234375"/>
     <use xlink:href="#DejaVuSans-32" x="1050.439453"/>
     <use xlink:href="#DejaVuSans-38" x="1114.0625"/>
     <use xlink:href="#DejaVuSans-2c" x="1177.685547"/>
     <use xlink:href="#DejaVuSans-20" x="1209.472656"/>
     <use xlink:href="#DejaVuSans-35" x="1241.259766"/>
     <use xlink:href="#DejaVuSans-2d" x="1304.882812"/>
     <use xlink:href="#DejaVuSans-44" x="1340.966797"/>
    </g>
    <!-- 58 targets: 1..-1.0e-4 -->
    <g transform="translate(60.632064 29.004495)scale(0.102 -0.102)">
     <defs>
      <path id="DejaVuSans-3a" d="M 750 794 
L 1409 794 
L 1409 0 
L 750 0 
L 750 794 
z
M 750 3309 
L 1409 3309 
L 1409 2516 
L 750 2516 
L 750 3309 
z
" transform="scale(0.015625)"/>
     </defs>
     <use xlink:href="#DejaVuSans-35"/>
     <use xlink:href="#DejaVuSans-38" x="63.623047"/>
     <use xlink:href="#DejaVuSans-20" x="127.246094"/>
     <use xlink:href="#DejaVuSans-74" x="159.033203"/>
     <use xlink:href="#DejaVuSans-61" x="198.242188"/>
     <use xlink:href="#DejaVuSans-72" x="259.521484"/>
     <use xlink:href="#DejaVuSans-67" x="298.884766"/>
     <use xlink:href="#DejaVuSans-65" x="362.361328"/>
     <use xlink:href="#DejaVuSans-74" x="423.884766"/>
     <use xlink:href="#DejaVuSans-73" x="463.09375"/>
     <use xlink:href="#DejaVuSans-3a" x="515.193359"/>
     <use xlink:href="#DejaVuSans-20" x="548.884766"/>
     <use xlink:href="#DejaVuSans-31" x="580.671875"/>
     <use xlink:href="#DejaVuSans-2e" x="644.294922"/>
     <use xlink:href="#DejaVuSans-2e" x="676.082031"/>
     <use xlink:href="#DejaVuSans-2d" x="707.869141"/>
     <use xlink:href="#DejaVuSans-31" x="743.953125"/>
     <use xlink:href="#DejaVuSans-2e" x="807.576172"/>
     <use xlink:href="#DejaVuSans-30" x="839.363281"/>
     <use xlink:href="#DejaVuSans-65" x="902.986328"/>
     <use xlink:href="#DejaVuSans-2d" x="964.509766"/>
     <use xlink:href="#DejaVuSans-34" x="1000.59375"/>
    </g>
    <!-- 10 instances -->
    <g transform="translate(60.632064 40.426264)scale(0.102 -0.102)">
     <use xlink:href="#DejaVuSans-31"/>
     <use xlink:href="#DejaVuSans-30" x="63.623047"/>
     <use xlink:href="#DejaVuSans-20" x="127.246094"/>
     <use xlink:href="#DejaVuSans-69" x="159.033203"/>
     <use xlink:href="#DejaVuSans-6e" x="186.816406"/>
     <use xlink:href="#DejaVuSans-73" x="250.195312"/>
     <use xlink:href="#DejaVuSans-74" x="302.294922"/>
     <use xlink:href="#DejaVuSans-61" x="341.503906"/>
     <use xlink:href="#DejaVuSans-6e" x="402.783203"/>
     <use xlink:href="#DejaVuSans-63" x="466.162109"/>
     <use xlink:href="#DejaVuSans-65" x="521.142578"/>
     <use xlink:href="#DejaVuSans-73" x="582.666016"/>
    </g>
   </g>
   <g id="text_18">
    <!-- v2.6, hv-hash=ff0e71e8cd978373 -->
    <g style="fill: #808080" transform="translate(123.707887 293.943992)scale(0.1 -0.1)">
     <defs>
      <path id="DejaVuSans-68" d="M 3513 2113 
L 3513 0 
L 2938 0 
L 2938 2094 
Q 2938 2591 2744 2837 
Q 2550 3084 2163 3084 
Q 1697 3084 1428 2787 
Q 1159 2491 1159 1978 
L 1159 0 
L 581 0 
L 581 4863 
L 1159 4863 
L 1159 2956 
Q 1366 3272 1645 3428 
Q 1925 3584 2291 3584 
Q 2894 3584 3203 3211 
Q 3513 2838 3513 2113 
z
" transform="scale(0.015625)"/>
      <path id="DejaVuSans-3d" d="M 678 2906 
L 4684 2906 
L 4684 2381 
L 678 2381 
L 678 2906 
z
M 678 1631 
L 4684 1631 
L 4684 1100 
L 678 1100 
L 678 1631 
z
" transform="scale(0.015625)"/>
      <path id="DejaVuSans-37" d="M 525 4666 
L 3525 4666 
L 3525 4397 
L 1831 0 
L 1172 0 
L 2766 4134 
L 525 4134 
L 525 4666 
z
" transform="scale(0.015625)"/>
      <path id="DejaVuSans-39" d="M 703 97 
L 703 672 
Q 941 559 1184 500 
Q 1428 441 1663 441 
Q 2288 441 2617 861 
Q 2947 1281 2994 2138 
Q 2813 1869 2534 1725 
Q 2256 1581 1919 1581 
Q 1219 1581 811 2004 
Q 403 2428 403 3163 
Q 403 3881 828 4315 
Q 1253 4750 1959 4750 
Q 2769 4750 3195 4129 
Q 3622 3509 3622 2328 
Q 3622 1225 3098 567 
Q 2575 -91 1691 -91 
Q 1453 -91 1209 -44 
Q 966 3 703 97 
z
M 1959 2075 
Q 2384 2075 2632 2365 
Q 2881 2656 2881 3163 
Q 2881 3666 2632 3958 
Q 2384 4250 1959 4250 
Q 1534 4250 1286 3958 
Q 1038 3666 1038 3163 
Q 1038 2656 1286 2365 
Q 1534 2075 1959 2075 
z
" transform="scale(0.015625)"/>
      <path id="DejaVuSans-33" d="M 2597 2516 
Q 3050 2419 3304 2112 
Q 3559 1806 3559 1356 
Q 3559 666 3084 287 
Q 2609 -91 1734 -91 
Q 1441 -91 1130 -33 
Q 819 25 488 141 
L 488 750 
Q 750 597 1062 519 
Q 1375 441 1716 441 
Q 2309 441 2620 675 
Q 2931 909 2931 1356 
Q 2931 1769 2642 2001 
Q 2353 2234 1838 2234 
L 1294 2234 
L 1294 2753 
L 1863 2753 
Q 2328 2753 2575 2939 
Q 2822 3125 2822 3475 
Q 2822 3834 2567 4026 
Q 2313 4219 1838 4219 
Q 1578 4219 1281 4162 
Q 984 4106 628 3988 
L 628 4550 
Q 988 4650 1302 4700 
Q 1616 4750 1894 4750 
Q 2613 4750 3031 4423 
Q 3450 4097 3450 3541 
Q 3450 3153 3228 2886 
Q 3006 2619 2597 2516 
z
" transform="scale(0.015625)"/>
     </defs>
     <use xlink:href="#DejaVuSans-76"/>
     <use xlink:href="#DejaVuSans-32" x="59.179688"/>
     <use xlink:href="#DejaVuSans-2e" x="122.802734"/>
     <use xlink:href="#DejaVuSans-36" x="154.589844"/>
     <use xlink:href="#DejaVuSans-2c" x="218.212891"/>
     <use xlink:href="#DejaVuSans-20" x="250"/>
     <use xlink:href="#DejaVuSans-68" x="281.787109"/>
     <use xlink:href="#DejaVuSans-76" x="345.166016"/>
     <use xlink:href="#DejaVuSans-2d" x="401.720703"/>
     <use xlink:href="#DejaVuSans-68" x="437.804688"/>
     <use xlink:href="#DejaVuSans-61" x="501.183594"/>
     <use xlink:href="#DejaVuSans-73" x="562.462891"/>
     <use xlink:href="#DejaVuSans-68" x="614.5625"/>
     <use xlink:href="#DejaVuSans-3d" x="677.941406"/>
     <use xlink:href="#DejaVuSans-66" x="761.730469"/>
     <use xlink:href="#DejaVuSans-66" x="796.935547"/>
     <use xlink:href="#DejaVuSans-30" x="832.140625"/>
     <use xlink:href="#DejaVuSans-65" x="895.763672"/>
     <use xlink:href="#DejaVuSans-37" x="957.287109"/>
     <use xlink:href="#DejaVuSans-31" x="1020.910156"/>
     <use xlink:href="#DejaVuSans-65" x="1084.533203"/>
     <use xlink:href="#DejaVuSans-38" x="1146.056641"/>
     <use xlink:href="#DejaVuSans-63" x="1209.679688"/>
     <use xlink:href="#DejaVuSans-64" x="1264.660156"/>
     <use xlink:href="#DejaVuSans-39" x="1328.136719"/>
     <use xlink:href="#DejaVuSans-37" x="1391.759766"/>
     <use xlink:href="#DejaVuSans-38" x="1455.382812"/>
     <use xlink:href="#DejaVuSans-33" x="1519.005859"/>
     <use xlink:href="#DejaVuSans-37" x="1582.628906"/>
     <use xlink:href="#DejaVuSans-33" x="1646.251953"/>
    </g>
   </g>
  </g>
 </g>
 <defs>
  <clipPath id="pb556d37a95">
   <rect x="57.6" y="6.912" width="303.2064" height="292.032"/>
  </clipPath>
 </defs>
</svg>
