<?xml version="1.0" encoding="utf-8" standalone="no"?>
<!DOCTYPE svg PUBLIC "-//W3C//DTD SVG 1.1//EN"
  "http://www.w3.org/Graphics/SVG/1.1/DTD/svg11.dtd">
<svg xmlns:xlink="http://www.w3.org/1999/xlink" width="460.8pt" height="345.6pt" viewBox="0 0 460.8 345.6" xmlns="http://www.w3.org/2000/svg" version="1.1">
 <metadata>
  <rdf:RDF xmlns:dc="http://purl.org/dc/elements/1.1/" xmlns:cc="http://creativecommons.org/ns#" xmlns:rdf="http://www.w3.org/1999/02/22-rdf-syntax-ns#">
   <cc:Work>
    <dc:type rdf:resource="http://purl.org/dc/dcmitype/StillImage"/>
    <dc:date>2022-06-19T21:03:09.451277</dc:date>
    <dc:format>image/svg+xml</dc:format>
    <dc:creator>
     <cc:Agent>
      <dc:title>Matplotlib v3.5.1, https://matplotlib.org/</dc:title>
     </cc:Agent>
    </dc:creator>
   </cc:Work>
  </rdf:RDF>
 </metadata>
 <defs>
  <style type="text/css">*{stroke-linejoin: round; stroke-linecap: butt}</style>
 </defs>
 <g id="figure_1">
  <g id="patch_1">
   <path d="M 0 345.6 
L 460.8 345.6 
L 460.8 0 
L 0 0 
z
" style="fill: #ffffff"/>
  </g>
  <g id="axes_1">
   <g id="patch_2">
    <path d="M 57.6 298.944 
L 360.8064 298.944 
L 360.8064 6.912 
L 57.6 6.912 
z
" style="fill: #ffffff"/>
   </g>
   <g id="line2d_1">
    <path d="M 40.363149 298.944 
L 40.363149 297.685241 
L 47.990577 297.685241 
L 47.990577 296.426483 
L 57.6 296.426483 
L 57.6 292.650207 
L 63.929565 292.650207 
L 63.929565 291.391448 
L 68.65718 291.391448 
L 68.65718 286.356414 
L 70.639174 286.356414 
L 70.639174 283.838897 
L 74.068926 283.838897 
L 74.068926 281.321379 
L 76.96874 281.321379 
L 76.96874 278.803862 
L 82.713442 278.803862 
L 82.713442 276.286345 
L 83.678349 276.286345 
L 83.678349 275.027586 
L 87.1081 275.027586 
L 87.1081 273.768828 
L 90.668036 273.768828 
L 90.668036 269.992552 
L 93.66029 269.992552 
L 93.66029 267.475034 
L 97.635342 267.475034 
L 97.635342 262.44 
L 98.510456 262.44 
L 98.510456 259.922483 
L 104.344952 259.922483 
L 104.344952 257.404966 
L 105.559021 257.404966 
L 105.559021 256.146207 
L 106.137884 256.146207 
L 106.137884 254.887448 
L 107.244765 254.887448 
L 107.244765 251.111172 
L 110.221204 251.111172 
L 110.221204 249.852414 
L 111.117162 249.852414 
L 111.117162 247.334897 
L 111.334639 247.334897 
L 111.334639 243.558621 
L 115.575511 243.558621 
L 115.575511 241.041103 
L 116.583514 241.041103 
L 116.583514 238.523586 
L 117.384126 238.523586 
L 117.384126 236.006069 
L 120.813877 236.006069 
L 120.813877 232.229793 
L 123.145323 232.229793 
L 123.145323 228.453517 
L 123.601383 228.453517 
L 123.601383 225.936 
L 129.292652 225.936 
L 129.292652 223.418483 
L 130.579414 223.418483 
L 130.579414 220.900966 
L 131.191226 220.900966 
L 131.191226 218.383448 
L 135.717106 218.383448 
L 135.717106 214.607172 
L 136.010584 214.607172 
L 136.010584 210.830897 
L 138.667556 210.830897 
L 138.667556 208.313379 
L 141.825656 208.313379 
L 141.825656 205.795862 
L 142.373399 205.795862 
L 142.373399 203.278345 
L 146.362288 203.278345 
L 146.362288 200.760828 
L 146.728219 200.760828 
L 146.728219 198.24331 
L 148.903591 198.24331 
L 148.903591 195.725793 
L 149.595059 195.725793 
L 149.595059 193.208276 
L 152.811444 193.208276 
L 152.811444 190.690759 
L 154.928852 190.690759 
L 154.928852 188.173241 
L 155.536743 188.173241 
L 155.536743 185.655724 
L 158.595008 185.655724 
L 158.595008 184.396966 
L 161.691646 184.396966 
L 161.691646 183.138207 
L 162.928937 183.138207 
L 162.928937 181.879448 
L 164.102932 181.879448 
L 164.102932 178.103172 
L 165.802874 178.103172 
L 165.802874 175.585655 
L 168.451748 175.585655 
L 168.451748 171.809379 
L 169.144777 171.809379 
L 169.144777 168.033103 
L 169.755147 168.033103 
L 169.755147 166.774345 
L 171.990192 166.774345 
L 171.990192 165.515586 
L 175.113541 165.515586 
L 175.113541 164.256828 
L 175.736948 164.256828 
L 175.736948 160.480552 
L 178.80616 160.480552 
L 178.80616 159.221793 
L 180.168573 159.221793 
L 180.168573 155.445517 
L 181.977698 155.445517 
L 181.977698 154.186759 
L 183.30555 154.186759 
L 183.30555 150.410483 
L 184.925864 150.410483 
L 184.925864 147.892966 
L 188.17456 147.892966 
L 188.17456 144.11669 
L 189.616925 144.11669 
L 189.616925 140.340414 
L 191.097231 140.340414 
L 191.097231 137.822897 
L 194.15789 137.822897 
L 194.15789 136.564138 
L 195.668098 136.564138 
L 195.668098 134.046621 
L 196.616139 134.046621 
L 196.616139 131.529103 
L 197.389825 131.529103 
L 197.389825 130.270345 
L 202.468127 130.270345 
L 202.468127 126.494069 
L 203.62168 126.494069 
L 203.62168 125.23531 
L 204.485149 125.23531 
L 204.485149 123.976552 
L 205.218305 123.976552 
L 205.218305 120.200276 
L 209.071405 120.200276 
L 209.071405 118.941517 
L 212.092181 118.941517 
L 212.092181 115.165241 
L 213.00825 115.165241 
L 213.00825 113.906483 
L 214.635591 113.906483 
L 214.635591 110.130207 
L 214.831551 110.130207 
L 214.831551 106.353931 
L 217.264149 106.353931 
L 217.264149 105.095172 
L 221.004588 105.095172 
L 221.004588 103.836414 
L 221.701808 103.836414 
L 221.701808 100.060138 
L 223.031194 100.060138 
L 223.031194 97.542621 
L 224.130217 97.542621 
L 224.130217 93.766345 
L 228.500894 93.766345 
L 228.500894 91.248828 
L 228.822286 91.248828 
L 228.822286 87.472552 
L 230.313397 87.472552 
L 230.313397 84.955034 
L 233.395481 84.955034 
L 233.395481 82.437517 
L 233.872718 82.437517 
L 233.872718 79.92 
L 235.949331 79.92 
L 235.949331 78.661241 
L 236.67768 78.661241 
L 236.67768 77.402483 
L 237.112539 77.402483 
L 237.112539 74.884966 
L 238.188887 74.884966 
L 238.188887 72.367448 
L 240.847388 72.367448 
L 240.847388 69.849931 
L 241.197676 69.849931 
L 241.197676 66.073655 
L 242.04422 66.073655 
L 242.04422 63.556138 
L 244.683304 63.556138 
L 244.683304 59.779862 
L 246.562454 59.779862 
L 246.562454 57.262345 
L 249.3714 57.262345 
L 249.3714 56.003586 
L 255.549895 56.003586 
L 255.549895 54.744828 
L 257.255795 54.744828 
L 257.255795 52.22731 
L 261.784188 52.22731 
L 261.784188 49.709793 
L 263.555013 49.709793 
L 263.555013 45.933517 
L 268.347164 45.933517 
L 268.347164 42.157241 
L 360.8064 42.157241 
L 360.8064 42.157241 
" style="fill: none; stroke: #f5deb3; stroke-width: 4; stroke-linecap: square"/>
   </g>
   <g id="line2d_2">
    <defs>
     <path id="m5c0e5ffb42" d="M 0 7.778175 
L 7.778175 0 
L 0 -7.778175 
L -7.778175 0 
z
" style="stroke: #f5deb3; stroke-width: 1.5; stroke-linejoin: miter"/>
    </defs>
    <g>
     <use xlink:href="#m5c0e5ffb42" x="116.583514" y="241.041103" style="fill: #f5deb3; stroke: #f5deb3; stroke-width: 1.5; stroke-linejoin: miter"/>
     <use xlink:href="#m5c0e5ffb42" x="169.144777" y="171.809379" style="fill: #f5deb3; stroke: #f5deb3; stroke-width: 1.5; stroke-linejoin: miter"/>
     <use xlink:href="#m5c0e5ffb42" x="221.701808" y="100.060138" style="fill: #f5deb3; stroke: #f5deb3; stroke-width: 1.5; stroke-linejoin: miter"/>
     <use xlink:href="#m5c0e5ffb42" x="268.347164" y="45.933517" style="fill: #f5deb3; stroke: #f5deb3; stroke-width: 1.5; stroke-linejoin: miter"/>
     <use xlink:href="#m5c0e5ffb42" x="268.347164" y="42.157241" style="fill: #f5deb3; stroke: #f5deb3; stroke-width: 1.5; stroke-linejoin: miter"/>
     <use xlink:href="#m5c0e5ffb42" x="360.8064" y="42.157241" style="fill: #f5deb3; stroke: #f5deb3; stroke-width: 1.5; stroke-linejoin: miter"/>
    </g>
   </g>
   <g id="line2d_3">
    <path style="fill: none; stroke: #f5deb3; stroke-width: 4; stroke-linecap: square"/>
    <g/>
   </g>
   <g id="line2d_4">
    <path d="M 360.8064 42.157241 
L 380.514816 12.75264 
" style="fill: none; stroke: #f5deb3; stroke-width: 4; stroke-linecap: square"/>
    <g>
     <use xlink:href="#m5c0e5ffb42" x="360.8064" y="42.157241" style="fill: #f5deb3; stroke: #f5deb3; stroke-width: 1.5; stroke-linejoin: miter"/>
     <use xlink:href="#m5c0e5ffb42" x="380.514816" y="12.75264" style="fill: #f5deb3; stroke: #f5deb3; stroke-width: 1.5; stroke-linejoin: miter"/>
    </g>
   </g>
   <g id="matplotlib.axis_1">
    <g id="xtick_1">
     <g id="line2d_5">
      <path d="M 57.6 298.944 
L 57.6 6.912 
" clip-path="url(#p5967cea312)" style="fill: none; stroke: #b0b0b0; stroke-width: 0.8; stroke-linecap: square"/>
     </g>
     <g id="line2d_6">
      <defs>
       <path id="m58fe1069f5" d="M 0 0 
L 0 3.5 
" style="stroke: #000000; stroke-width: 0.8"/>
      </defs>
      <g>
       <use xlink:href="#m58fe1069f5" x="57.6" y="298.944" style="stroke: #000000; stroke-width: 0.8"/>
      </g>
     </g>
     <g id="text_1">
      <!-- 0 -->
      <g transform="translate(52.191875 318.861344)scale(0.17 -0.17)">
       <defs>
        <path id="DejaVuSans-30" d="M 2034 4250 
Q 1547 4250 1301 3770 
Q 1056 3291 1056 2328 
Q 1056 1369 1301 889 
Q 1547 409 2034 409 
Q 2525 409 2770 889 
Q 3016 1369 3016 2328 
Q 3016 3291 2770 3770 
Q 2525 4250 2034 4250 
z
M 2034 4750 
Q 2819 4750 3233 4129 
Q 3647 3509 3647 2328 
Q 3647 1150 3233 529 
Q 2819 -91 2034 -91 
Q 1250 -91 836 529 
Q 422 1150 422 2328 
Q 422 3509 836 4129 
Q 1250 4750 2034 4750 
z
" transform="scale(0.015625)"/>
       </defs>
       <use xlink:href="#DejaVuSans-30"/>
      </g>
     </g>
    </g>
    <g id="xtick_2">
     <g id="line2d_7">
      <path d="M 144.2304 298.944 
L 144.2304 6.912 
" clip-path="url(#p5967cea312)" style="fill: none; stroke: #b0b0b0; stroke-width: 0.8; stroke-linecap: square"/>
     </g>
     <g id="line2d_8">
      <g>
       <use xlink:href="#m58fe1069f5" x="144.2304" y="298.944" style="stroke: #000000; stroke-width: 0.8"/>
      </g>
     </g>
     <g id="text_2">
      <!-- 2 -->
      <g transform="translate(138.822275 318.861344)scale(0.17 -0.17)">
       <defs>
        <path id="DejaVuSans-32" d="M 1228 531 
L 3431 531 
L 3431 0 
L 469 0 
L 469 531 
Q 828 903 1448 1529 
Q 2069 2156 2228 2338 
Q 2531 2678 2651 2914 
Q 2772 3150 2772 3378 
Q 2772 3750 2511 3984 
Q 2250 4219 1831 4219 
Q 1534 4219 1204 4116 
Q 875 4013 500 3803 
L 500 4441 
Q 881 4594 1212 4672 
Q 1544 4750 1819 4750 
Q 2544 4750 2975 4387 
Q 3406 4025 3406 3419 
Q 3406 3131 3298 2873 
Q 3191 2616 2906 2266 
Q 2828 2175 2409 1742 
Q 1991 1309 1228 531 
z
" transform="scale(0.015625)"/>
       </defs>
       <use xlink:href="#DejaVuSans-32"/>
      </g>
     </g>
    </g>
    <g id="xtick_3">
     <g id="line2d_9">
      <path d="M 230.8608 298.944 
L 230.8608 6.912 
" clip-path="url(#p5967cea312)" style="fill: none; stroke: #b0b0b0; stroke-width: 0.8; stroke-linecap: square"/>
     </g>
     <g id="line2d_10">
      <g>
       <use xlink:href="#m58fe1069f5" x="230.8608" y="298.944" style="stroke: #000000; stroke-width: 0.8"/>
      </g>
     </g>
     <g id="text_3">
      <!-- 4 -->
      <g transform="translate(225.452675 318.861344)scale(0.17 -0.17)">
       <defs>
        <path id="DejaVuSans-34" d="M 2419 4116 
L 825 1625 
L 2419 1625 
L 2419 4116 
z
M 2253 4666 
L 3047 4666 
L 3047 1625 
L 3713 1625 
L 3713 1100 
L 3047 1100 
L 3047 0 
L 2419 0 
L 2419 1100 
L 313 1100 
L 313 1709 
L 2253 4666 
z
" transform="scale(0.015625)"/>
       </defs>
       <use xlink:href="#DejaVuSans-34"/>
      </g>
     </g>
    </g>
    <g id="xtick_4">
     <g id="line2d_11">
      <path d="M 317.4912 298.944 
L 317.4912 6.912 
" clip-path="url(#p5967cea312)" style="fill: none; stroke: #b0b0b0; stroke-width: 0.8; stroke-linecap: square"/>
     </g>
     <g id="line2d_12">
      <g>
       <use xlink:href="#m58fe1069f5" x="317.4912" y="298.944" style="stroke: #000000; stroke-width: 0.8"/>
      </g>
     </g>
     <g id="text_4">
      <!-- 6 -->
      <g transform="translate(312.083075 318.861344)scale(0.17 -0.17)">
       <defs>
        <path id="DejaVuSans-36" d="M 2113 2584 
Q 1688 2584 1439 2293 
Q 1191 2003 1191 1497 
Q 1191 994 1439 701 
Q 1688 409 2113 409 
Q 2538 409 2786 701 
Q 3034 994 3034 1497 
Q 3034 2003 2786 2293 
Q 2538 2584 2113 2584 
z
M 3366 4563 
L 3366 3988 
Q 3128 4100 2886 4159 
Q 2644 4219 2406 4219 
Q 1781 4219 1451 3797 
Q 1122 3375 1075 2522 
Q 1259 2794 1537 2939 
Q 1816 3084 2150 3084 
Q 2853 3084 3261 2657 
Q 3669 2231 3669 1497 
Q 3669 778 3244 343 
Q 2819 -91 2113 -91 
Q 1303 -91 875 529 
Q 447 1150 447 2328 
Q 447 3434 972 4092 
Q 1497 4750 2381 4750 
Q 2619 4750 2861 4703 
Q 3103 4656 3366 4563 
z
" transform="scale(0.015625)"/>
       </defs>
       <use xlink:href="#DejaVuSans-36"/>
      </g>
     </g>
    </g>
    <g id="xtick_5">
     <g id="line2d_13">
      <path d="M 100.9152 298.944 
L 100.9152 6.912 
" clip-path="url(#p5967cea312)" style="fill: none; stroke: #b0b0b0; stroke-width: 0.8; stroke-linecap: square"/>
     </g>
     <g id="line2d_14">
      <defs>
       <path id="m5e3fef275d" d="M 0 0 
L 0 2 
" style="stroke: #000000; stroke-width: 0.6"/>
      </defs>
      <g>
       <use xlink:href="#m5e3fef275d" x="100.9152" y="298.944" style="stroke: #000000; stroke-width: 0.6"/>
      </g>
     </g>
    </g>
    <g id="xtick_6">
     <g id="line2d_15">
      <path d="M 187.5456 298.944 
L 187.5456 6.912 
" clip-path="url(#p5967cea312)" style="fill: none; stroke: #b0b0b0; stroke-width: 0.8; stroke-linecap: square"/>
     </g>
     <g id="line2d_16">
      <g>
       <use xlink:href="#m5e3fef275d" x="187.5456" y="298.944" style="stroke: #000000; stroke-width: 0.6"/>
      </g>
     </g>
    </g>
    <g id="xtick_7">
     <g id="line2d_17">
      <path d="M 274.176 298.944 
L 274.176 6.912 
" clip-path="url(#p5967cea312)" style="fill: none; stroke: #b0b0b0; stroke-width: 0.8; stroke-linecap: square"/>
     </g>
     <g id="line2d_18">
      <g>
       <use xlink:href="#m5e3fef275d" x="274.176" y="298.944" style="stroke: #000000; stroke-width: 0.6"/>
      </g>
     </g>
    </g>
    <g id="xtick_8">
     <g id="line2d_19">
      <path d="M 360.8064 298.944 
L 360.8064 6.912 
" clip-path="url(#p5967cea312)" style="fill: none; stroke: #b0b0b0; stroke-width: 0.8; stroke-linecap: square"/>
     </g>
     <g id="line2d_20">
      <g>
       <use xlink:href="#m5e3fef275d" x="360.8064" y="298.944" style="stroke: #000000; stroke-width: 0.6"/>
      </g>
     </g>
    </g>
    <g id="text_5">
     <!-- log10(# f-evals / dimension) -->
     <g transform="translate(88.823278 339.314156)scale(0.17 -0.17)">
      <defs>
       <path id="DejaVuSans-6c" d="M 603 4863 
L 1178 4863 
L 1178 0 
L 603 0 
L 603 4863 
z
" transform="scale(0.015625)"/>
       <path id="DejaVuSans-6f" d="M 1959 3097 
Q 1497 3097 1228 2736 
Q 959 2375 959 1747 
Q 959 1119 1226 758 
Q 1494 397 1959 397 
Q 2419 397 2687 759 
Q 2956 1122 2956 1747 
Q 2956 2369 2687 2733 
Q 2419 3097 1959 3097 
z
M 1959 3584 
Q 2709 3584 3137 3096 
Q 3566 2609 3566 1747 
Q 3566 888 3137 398 
Q 2709 -91 1959 -91 
Q 1206 -91 779 398 
Q 353 888 353 1747 
Q 353 2609 779 3096 
Q 1206 3584 1959 3584 
z
" transform="scale(0.015625)"/>
       <path id="DejaVuSans-67" d="M 2906 1791 
Q 2906 2416 2648 2759 
Q 2391 3103 1925 3103 
Q 1463 3103 1205 2759 
Q 947 2416 947 1791 
Q 947 1169 1205 825 
Q 1463 481 1925 481 
Q 2391 481 2648 825 
Q 2906 1169 2906 1791 
z
M 3481 434 
Q 3481 -459 3084 -895 
Q 2688 -1331 1869 -1331 
Q 1566 -1331 1297 -1286 
Q 1028 -1241 775 -1147 
L 775 -588 
Q 1028 -725 1275 -790 
Q 1522 -856 1778 -856 
Q 2344 -856 2625 -561 
Q 2906 -266 2906 331 
L 2906 616 
Q 2728 306 2450 153 
Q 2172 0 1784 0 
Q 1141 0 747 490 
Q 353 981 353 1791 
Q 353 2603 747 3093 
Q 1141 3584 1784 3584 
Q 2172 3584 2450 3431 
Q 2728 3278 2906 2969 
L 2906 3500 
L 3481 3500 
L 3481 434 
z
" transform="scale(0.015625)"/>
       <path id="DejaVuSans-31" d="M 794 531 
L 1825 531 
L 1825 4091 
L 703 3866 
L 703 4441 
L 1819 4666 
L 2450 4666 
L 2450 531 
L 3481 531 
L 3481 0 
L 794 0 
L 794 531 
z
" transform="scale(0.015625)"/>
       <path id="DejaVuSans-28" d="M 1984 4856 
Q 1566 4138 1362 3434 
Q 1159 2731 1159 2009 
Q 1159 1288 1364 580 
Q 1569 -128 1984 -844 
L 1484 -844 
Q 1016 -109 783 600 
Q 550 1309 550 2009 
Q 550 2706 781 3412 
Q 1013 4119 1484 4856 
L 1984 4856 
z
" transform="scale(0.015625)"/>
       <path id="DejaVuSans-23" d="M 3272 2816 
L 2363 2816 
L 2100 1772 
L 3016 1772 
L 3272 2816 
z
M 2803 4594 
L 2478 3297 
L 3391 3297 
L 3719 4594 
L 4219 4594 
L 3897 3297 
L 4872 3297 
L 4872 2816 
L 3775 2816 
L 3519 1772 
L 4513 1772 
L 4513 1294 
L 3397 1294 
L 3072 0 
L 2572 0 
L 2894 1294 
L 1978 1294 
L 1656 0 
L 1153 0 
L 1478 1294 
L 494 1294 
L 494 1772 
L 1594 1772 
L 1856 2816 
L 850 2816 
L 850 3297 
L 1978 3297 
L 2297 4594 
L 2803 4594 
z
" transform="scale(0.015625)"/>
       <path id="DejaVuSans-20" transform="scale(0.015625)"/>
       <path id="DejaVuSans-66" d="M 2375 4863 
L 2375 4384 
L 1825 4384 
Q 1516 4384 1395 4259 
Q 1275 4134 1275 3809 
L 1275 3500 
L 2222 3500 
L 2222 3053 
L 1275 3053 
L 1275 0 
L 697 0 
L 697 3053 
L 147 3053 
L 147 3500 
L 697 3500 
L 697 3744 
Q 697 4328 969 4595 
Q 1241 4863 1831 4863 
L 2375 4863 
z
" transform="scale(0.015625)"/>
       <path id="DejaVuSans-2d" d="M 313 2009 
L 1997 2009 
L 1997 1497 
L 313 1497 
L 313 2009 
z
" transform="scale(0.015625)"/>
       <path id="DejaVuSans-65" d="M 3597 1894 
L 3597 1613 
L 953 1613 
Q 991 1019 1311 708 
Q 1631 397 2203 397 
Q 2534 397 2845 478 
Q 3156 559 3463 722 
L 3463 178 
Q 3153 47 2828 -22 
Q 2503 -91 2169 -91 
Q 1331 -91 842 396 
Q 353 884 353 1716 
Q 353 2575 817 3079 
Q 1281 3584 2069 3584 
Q 2775 3584 3186 3129 
Q 3597 2675 3597 1894 
z
M 3022 2063 
Q 3016 2534 2758 2815 
Q 2500 3097 2075 3097 
Q 1594 3097 1305 2825 
Q 1016 2553 972 2059 
L 3022 2063 
z
" transform="scale(0.015625)"/>
       <path id="DejaVuSans-76" d="M 191 3500 
L 800 3500 
L 1894 563 
L 2988 3500 
L 3597 3500 
L 2284 0 
L 1503 0 
L 191 3500 
z
" transform="scale(0.015625)"/>
       <path id="DejaVuSans-61" d="M 2194 1759 
Q 1497 1759 1228 1600 
Q 959 1441 959 1056 
Q 959 750 1161 570 
Q 1363 391 1709 391 
Q 2188 391 2477 730 
Q 2766 1069 2766 1631 
L 2766 1759 
L 2194 1759 
z
M 3341 1997 
L 3341 0 
L 2766 0 
L 2766 531 
Q 2569 213 2275 61 
Q 1981 -91 1556 -91 
Q 1019 -91 701 211 
Q 384 513 384 1019 
Q 384 1609 779 1909 
Q 1175 2209 1959 2209 
L 2766 2209 
L 2766 2266 
Q 2766 2663 2505 2880 
Q 2244 3097 1772 3097 
Q 1472 3097 1187 3025 
Q 903 2953 641 2809 
L 641 3341 
Q 956 3463 1253 3523 
Q 1550 3584 1831 3584 
Q 2591 3584 2966 3190 
Q 3341 2797 3341 1997 
z
" transform="scale(0.015625)"/>
       <path id="DejaVuSans-73" d="M 2834 3397 
L 2834 2853 
Q 2591 2978 2328 3040 
Q 2066 3103 1784 3103 
Q 1356 3103 1142 2972 
Q 928 2841 928 2578 
Q 928 2378 1081 2264 
Q 1234 2150 1697 2047 
L 1894 2003 
Q 2506 1872 2764 1633 
Q 3022 1394 3022 966 
Q 3022 478 2636 193 
Q 2250 -91 1575 -91 
Q 1294 -91 989 -36 
Q 684 19 347 128 
L 347 722 
Q 666 556 975 473 
Q 1284 391 1588 391 
Q 1994 391 2212 530 
Q 2431 669 2431 922 
Q 2431 1156 2273 1281 
Q 2116 1406 1581 1522 
L 1381 1569 
Q 847 1681 609 1914 
Q 372 2147 372 2553 
Q 372 3047 722 3315 
Q 1072 3584 1716 3584 
Q 2034 3584 2315 3537 
Q 2597 3491 2834 3397 
z
" transform="scale(0.015625)"/>
       <path id="DejaVuSans-2f" d="M 1625 4666 
L 2156 4666 
L 531 -594 
L 0 -594 
L 1625 4666 
z
" transform="scale(0.015625)"/>
       <path id="DejaVuSans-64" d="M 2906 2969 
L 2906 4863 
L 3481 4863 
L 3481 0 
L 2906 0 
L 2906 525 
Q 2725 213 2448 61 
Q 2172 -91 1784 -91 
Q 1150 -91 751 415 
Q 353 922 353 1747 
Q 353 2572 751 3078 
Q 1150 3584 1784 3584 
Q 2172 3584 2448 3432 
Q 2725 3281 2906 2969 
z
M 947 1747 
Q 947 1113 1208 752 
Q 1469 391 1925 391 
Q 2381 391 2643 752 
Q 2906 1113 2906 1747 
Q 2906 2381 2643 2742 
Q 2381 3103 1925 3103 
Q 1469 3103 1208 2742 
Q 947 2381 947 1747 
z
" transform="scale(0.015625)"/>
       <path id="DejaVuSans-69" d="M 603 3500 
L 1178 3500 
L 1178 0 
L 603 0 
L 603 3500 
z
M 603 4863 
L 1178 4863 
L 1178 4134 
L 603 4134 
L 603 4863 
z
" transform="scale(0.015625)"/>
       <path id="DejaVuSans-6d" d="M 3328 2828 
Q 3544 3216 3844 3400 
Q 4144 3584 4550 3584 
Q 5097 3584 5394 3201 
Q 5691 2819 5691 2113 
L 5691 0 
L 5113 0 
L 5113 2094 
Q 5113 2597 4934 2840 
Q 4756 3084 4391 3084 
Q 3944 3084 3684 2787 
Q 3425 2491 3425 1978 
L 3425 0 
L 2847 0 
L 2847 2094 
Q 2847 2600 2669 2842 
Q 2491 3084 2119 3084 
Q 1678 3084 1418 2786 
Q 1159 2488 1159 1978 
L 1159 0 
L 581 0 
L 581 3500 
L 1159 3500 
L 1159 2956 
Q 1356 3278 1631 3431 
Q 1906 3584 2284 3584 
Q 2666 3584 2933 3390 
Q 3200 3197 3328 2828 
z
" transform="scale(0.015625)"/>
       <path id="DejaVuSans-6e" d="M 3513 2113 
L 3513 0 
L 2938 0 
L 2938 2094 
Q 2938 2591 2744 2837 
Q 2550 3084 2163 3084 
Q 1697 3084 1428 2787 
Q 1159 2491 1159 1978 
L 1159 0 
L 581 0 
L 581 3500 
L 1159 3500 
L 1159 2956 
Q 1366 3272 1645 3428 
Q 1925 3584 2291 3584 
Q 2894 3584 3203 3211 
Q 3513 2838 3513 2113 
z
" transform="scale(0.015625)"/>
       <path id="DejaVuSans-29" d="M 513 4856 
L 1013 4856 
Q 1481 4119 1714 3412 
Q 1947 2706 1947 2009 
Q 1947 1309 1714 600 
Q 1481 -109 1013 -844 
L 513 -844 
Q 928 -128 1133 580 
Q 1338 1288 1338 2009 
Q 1338 2731 1133 3434 
Q 928 4138 513 4856 
z
" transform="scale(0.015625)"/>
      </defs>
      <use xlink:href="#DejaVuSans-6c"/>
      <use xlink:href="#DejaVuSans-6f" x="27.783203"/>
      <use xlink:href="#DejaVuSans-67" x="88.964844"/>
      <use xlink:href="#DejaVuSans-31" x="152.441406"/>
      <use xlink:href="#DejaVuSans-30" x="216.064453"/>
      <use xlink:href="#DejaVuSans-28" x="279.6875"/>
      <use xlink:href="#DejaVuSans-23" x="318.701172"/>
      <use xlink:href="#DejaVuSans-20" x="402.490234"/>
      <use xlink:href="#DejaVuSans-66" x="434.277344"/>
      <use xlink:href="#DejaVuSans-2d" x="463.982422"/>
      <use xlink:href="#DejaVuSans-65" x="500.066406"/>
      <use xlink:href="#DejaVuSans-76" x="561.589844"/>
      <use xlink:href="#DejaVuSans-61" x="620.769531"/>
      <use xlink:href="#DejaVuSans-6c" x="682.048828"/>
      <use xlink:href="#DejaVuSans-73" x="709.832031"/>
      <use xlink:href="#DejaVuSans-20" x="761.931641"/>
      <use xlink:href="#DejaVuSans-2f" x="793.71875"/>
      <use xlink:href="#DejaVuSans-20" x="827.410156"/>
      <use xlink:href="#DejaVuSans-64" x="859.197266"/>
      <use xlink:href="#DejaVuSans-69" x="922.673828"/>
      <use xlink:href="#DejaVuSans-6d" x="950.457031"/>
      <use xlink:href="#DejaVuSans-65" x="1047.869141"/>
      <use xlink:href="#DejaVuSans-6e" x="1109.392578"/>
      <use xlink:href="#DejaVuSans-73" x="1172.771484"/>
      <use xlink:href="#DejaVuSans-69" x="1224.871094"/>
      <use xlink:href="#DejaVuSans-6f" x="1252.654297"/>
      <use xlink:href="#DejaVuSans-6e" x="1313.835938"/>
      <use xlink:href="#DejaVuSans-29" x="1377.214844"/>
     </g>
    </g>
   </g>
   <g id="matplotlib.axis_2">
    <g id="ytick_1">
     <g id="line2d_21">
      <path d="M 57.6 298.944 
L 360.8064 298.944 
" clip-path="url(#p5967cea312)" style="fill: none; stroke: #b0b0b0; stroke-width: 0.8; stroke-linecap: square"/>
     </g>
     <g id="line2d_22">
      <defs>
       <path id="mcbd0bcad81" d="M 0 0 
L -3.5 0 
" style="stroke: #000000; stroke-width: 0.8"/>
      </defs>
      <g>
       <use xlink:href="#mcbd0bcad81" x="57.6" y="298.944" style="stroke: #000000; stroke-width: 0.8"/>
      </g>
     </g>
     <g id="text_6">
      <!-- 0.0 -->
      <g transform="translate(25.155 305.02275)scale(0.16 -0.16)">
       <defs>
        <path id="DejaVuSans-2e" d="M 684 794 
L 1344 794 
L 1344 0 
L 684 0 
L 684 794 
z
" transform="scale(0.015625)"/>
       </defs>
       <use xlink:href="#DejaVuSans-30"/>
       <use xlink:href="#DejaVuSans-2e" x="63.623047"/>
       <use xlink:href="#DejaVuSans-30" x="95.410156"/>
      </g>
     </g>
    </g>
    <g id="ytick_2">
     <g id="line2d_23">
      <path d="M 57.6 240.5376 
L 360.8064 240.5376 
" clip-path="url(#p5967cea312)" style="fill: none; stroke: #b0b0b0; stroke-width: 0.8; stroke-linecap: square"/>
     </g>
     <g id="line2d_24">
      <g>
       <use xlink:href="#mcbd0bcad81" x="57.6" y="240.5376" style="stroke: #000000; stroke-width: 0.8"/>
      </g>
     </g>
     <g id="text_7">
      <!-- 0.2 -->
      <g transform="translate(25.155 246.61635)scale(0.16 -0.16)">
       <use xlink:href="#DejaVuSans-30"/>
       <use xlink:href="#DejaVuSans-2e" x="63.623047"/>
       <use xlink:href="#DejaVuSans-32" x="95.410156"/>
      </g>
     </g>
    </g>
    <g id="ytick_3">
     <g id="line2d_25">
      <path d="M 57.6 182.1312 
L 360.8064 182.1312 
" clip-path="url(#p5967cea312)" style="fill: none; stroke: #b0b0b0; stroke-width: 0.8; stroke-linecap: square"/>
     </g>
     <g id="line2d_26">
      <g>
       <use xlink:href="#mcbd0bcad81" x="57.6" y="182.1312" style="stroke: #000000; stroke-width: 0.8"/>
      </g>
     </g>
     <g id="text_8">
      <!-- 0.4 -->
      <g transform="translate(25.155 188.20995)scale(0.16 -0.16)">
       <use xlink:href="#DejaVuSans-30"/>
       <use xlink:href="#DejaVuSans-2e" x="63.623047"/>
       <use xlink:href="#DejaVuSans-34" x="95.410156"/>
      </g>
     </g>
    </g>
    <g id="ytick_4">
     <g id="line2d_27">
      <path d="M 57.6 123.7248 
L 360.8064 123.7248 
" clip-path="url(#p5967cea312)" style="fill: none; stroke: #b0b0b0; stroke-width: 0.8; stroke-linecap: square"/>
     </g>
     <g id="line2d_28">
      <g>
       <use xlink:href="#mcbd0bcad81" x="57.6" y="123.7248" style="stroke: #000000; stroke-width: 0.8"/>
      </g>
     </g>
     <g id="text_9">
      <!-- 0.6 -->
      <g transform="translate(25.155 129.80355)scale(0.16 -0.16)">
       <use xlink:href="#DejaVuSans-30"/>
       <use xlink:href="#DejaVuSans-2e" x="63.623047"/>
       <use xlink:href="#DejaVuSans-36" x="95.410156"/>
      </g>
     </g>
    </g>
    <g id="ytick_5">
     <g id="line2d_29">
      <path d="M 57.6 65.3184 
L 360.8064 65.3184 
" clip-path="url(#p5967cea312)" style="fill: none; stroke: #b0b0b0; stroke-width: 0.8; stroke-linecap: square"/>
     </g>
     <g id="line2d_30">
      <g>
       <use xlink:href="#mcbd0bcad81" x="57.6" y="65.3184" style="stroke: #000000; stroke-width: 0.8"/>
      </g>
     </g>
     <g id="text_10">
      <!-- 0.8 -->
      <g transform="translate(25.155 71.39715)scale(0.16 -0.16)">
       <defs>
        <path id="DejaVuSans-38" d="M 2034 2216 
Q 1584 2216 1326 1975 
Q 1069 1734 1069 1313 
Q 1069 891 1326 650 
Q 1584 409 2034 409 
Q 2484 409 2743 651 
Q 3003 894 3003 1313 
Q 3003 1734 2745 1975 
Q 2488 2216 2034 2216 
z
M 1403 2484 
Q 997 2584 770 2862 
Q 544 3141 544 3541 
Q 544 4100 942 4425 
Q 1341 4750 2034 4750 
Q 2731 4750 3128 4425 
Q 3525 4100 3525 3541 
Q 3525 3141 3298 2862 
Q 3072 2584 2669 2484 
Q 3125 2378 3379 2068 
Q 3634 1759 3634 1313 
Q 3634 634 3220 271 
Q 2806 -91 2034 -91 
Q 1263 -91 848 271 
Q 434 634 434 1313 
Q 434 1759 690 2068 
Q 947 2378 1403 2484 
z
M 1172 3481 
Q 1172 3119 1398 2916 
Q 1625 2713 2034 2713 
Q 2441 2713 2670 2916 
Q 2900 3119 2900 3481 
Q 2900 3844 2670 4047 
Q 2441 4250 2034 4250 
Q 1625 4250 1398 4047 
Q 1172 3844 1172 3481 
z
" transform="scale(0.015625)"/>
       </defs>
       <use xlink:href="#DejaVuSans-30"/>
       <use xlink:href="#DejaVuSans-2e" x="63.623047"/>
       <use xlink:href="#DejaVuSans-38" x="95.410156"/>
      </g>
     </g>
    </g>
    <g id="ytick_6">
     <g id="line2d_31">
      <path d="M 57.6 6.912 
L 360.8064 6.912 
" clip-path="url(#p5967cea312)" style="fill: none; stroke: #b0b0b0; stroke-width: 0.8; stroke-linecap: square"/>
     </g>
     <g id="line2d_32">
      <g>
       <use xlink:href="#mcbd0bcad81" x="57.6" y="6.912" style="stroke: #000000; stroke-width: 0.8"/>
      </g>
     </g>
     <g id="text_11">
      <!-- 1.0 -->
      <g transform="translate(25.155 12.99075)scale(0.16 -0.16)">
       <use xlink:href="#DejaVuSans-31"/>
       <use xlink:href="#DejaVuSans-2e" x="63.623047"/>
       <use xlink:href="#DejaVuSans-30" x="95.410156"/>
      </g>
     </g>
    </g>
    <g id="text_12">
     <!-- Fraction of function,target pairs -->
     <g transform="translate(17.619531 287.313)rotate(-90)scale(0.17 -0.17)">
      <defs>
       <path id="DejaVuSans-46" d="M 628 4666 
L 3309 4666 
L 3309 4134 
L 1259 4134 
L 1259 2759 
L 3109 2759 
L 3109 2228 
L 1259 2228 
L 1259 0 
L 628 0 
L 628 4666 
z
" transform="scale(0.015625)"/>
       <path id="DejaVuSans-72" d="M 2631 2963 
Q 2534 3019 2420 3045 
Q 2306 3072 2169 3072 
Q 1681 3072 1420 2755 
Q 1159 2438 1159 1844 
L 1159 0 
L 581 0 
L 581 3500 
L 1159 3500 
L 1159 2956 
Q 1341 3275 1631 3429 
Q 1922 3584 2338 3584 
Q 2397 3584 2469 3576 
Q 2541 3569 2628 3553 
L 2631 2963 
z
" transform="scale(0.015625)"/>
       <path id="DejaVuSans-63" d="M 3122 3366 
L 3122 2828 
Q 2878 2963 2633 3030 
Q 2388 3097 2138 3097 
Q 1578 3097 1268 2742 
Q 959 2388 959 1747 
Q 959 1106 1268 751 
Q 1578 397 2138 397 
Q 2388 397 2633 464 
Q 2878 531 3122 666 
L 3122 134 
Q 2881 22 2623 -34 
Q 2366 -91 2075 -91 
Q 1284 -91 818 406 
Q 353 903 353 1747 
Q 353 2603 823 3093 
Q 1294 3584 2113 3584 
Q 2378 3584 2631 3529 
Q 2884 3475 3122 3366 
z
" transform="scale(0.015625)"/>
       <path id="DejaVuSans-74" d="M 1172 4494 
L 1172 3500 
L 2356 3500 
L 2356 3053 
L 1172 3053 
L 1172 1153 
Q 1172 725 1289 603 
Q 1406 481 1766 481 
L 2356 481 
L 2356 0 
L 1766 0 
Q 1100 0 847 248 
Q 594 497 594 1153 
L 594 3053 
L 172 3053 
L 172 3500 
L 594 3500 
L 594 4494 
L 1172 4494 
z
" transform="scale(0.015625)"/>
       <path id="DejaVuSans-75" d="M 544 1381 
L 544 3500 
L 1119 3500 
L 1119 1403 
Q 1119 906 1312 657 
Q 1506 409 1894 409 
Q 2359 409 2629 706 
Q 2900 1003 2900 1516 
L 2900 3500 
L 3475 3500 
L 3475 0 
L 2900 0 
L 2900 538 
Q 2691 219 2414 64 
Q 2138 -91 1772 -91 
Q 1169 -91 856 284 
Q 544 659 544 1381 
z
M 1991 3584 
L 1991 3584 
z
" transform="scale(0.015625)"/>
       <path id="DejaVuSans-2c" d="M 750 794 
L 1409 794 
L 1409 256 
L 897 -744 
L 494 -744 
L 750 256 
L 750 794 
z
" transform="scale(0.015625)"/>
       <path id="DejaVuSans-70" d="M 1159 525 
L 1159 -1331 
L 581 -1331 
L 581 3500 
L 1159 3500 
L 1159 2969 
Q 1341 3281 1617 3432 
Q 1894 3584 2278 3584 
Q 2916 3584 3314 3078 
Q 3713 2572 3713 1747 
Q 3713 922 3314 415 
Q 2916 -91 2278 -91 
Q 1894 -91 1617 61 
Q 1341 213 1159 525 
z
M 3116 1747 
Q 3116 2381 2855 2742 
Q 2594 3103 2138 3103 
Q 1681 3103 1420 2742 
Q 1159 2381 1159 1747 
Q 1159 1113 1420 752 
Q 1681 391 2138 391 
Q 2594 391 2855 752 
Q 3116 1113 3116 1747 
z
" transform="scale(0.015625)"/>
      </defs>
      <use xlink:href="#DejaVuSans-46"/>
      <use xlink:href="#DejaVuSans-72" x="50.269531"/>
      <use xlink:href="#DejaVuSans-61" x="91.382812"/>
      <use xlink:href="#DejaVuSans-63" x="152.662109"/>
      <use xlink:href="#DejaVuSans-74" x="207.642578"/>
      <use xlink:href="#DejaVuSans-69" x="246.851562"/>
      <use xlink:href="#DejaVuSans-6f" x="274.634766"/>
      <use xlink:href="#DejaVuSans-6e" x="335.816406"/>
      <use xlink:href="#DejaVuSans-20" x="399.195312"/>
      <use xlink:href="#DejaVuSans-6f" x="430.982422"/>
      <use xlink:href="#DejaVuSans-66" x="492.164062"/>
      <use xlink:href="#DejaVuSans-20" x="527.369141"/>
      <use xlink:href="#DejaVuSans-66" x="559.15625"/>
      <use xlink:href="#DejaVuSans-75" x="594.361328"/>
      <use xlink:href="#DejaVuSans-6e" x="657.740234"/>
      <use xlink:href="#DejaVuSans-63" x="721.119141"/>
      <use xlink:href="#DejaVuSans-74" x="776.099609"/>
      <use xlink:href="#DejaVuSans-69" x="815.308594"/>
      <use xlink:href="#DejaVuSans-6f" x="843.091797"/>
      <use xlink:href="#DejaVuSans-6e" x="904.273438"/>
      <use xlink:href="#DejaVuSans-2c" x="967.652344"/>
      <use xlink:href="#DejaVuSans-74" x="999.439453"/>
      <use xlink:href="#DejaVuSans-61" x="1038.648438"/>
      <use xlink:href="#DejaVuSans-72" x="1099.927734"/>
      <use xlink:href="#DejaVuSans-67" x="1139.291016"/>
      <use xlink:href="#DejaVuSans-65" x="1202.767578"/>
      <use xlink:href="#DejaVuSans-74" x="1264.291016"/>
      <use xlink:href="#DejaVuSans-20" x="1303.5"/>
      <use xlink:href="#DejaVuSans-70" x="1335.287109"/>
      <use xlink:href="#DejaVuSans-61" x="1398.763672"/>
      <use xlink:href="#DejaVuSans-69" x="1460.042969"/>
      <use xlink:href="#DejaVuSans-72" x="1487.826172"/>
      <use xlink:href="#DejaVuSans-73" x="1528.939453"/>
     </g>
    </g>
   </g>
   <g id="line2d_33">
    <defs>
     <path id="m2429088448" d="M 0 1.5 
C 0.397805 1.5 0.77937 1.341951 1.06066 1.06066 
C 1.341951 0.77937 1.5 0.397805 1.5 0 
C 1.5 -0.397805 1.341951 -0.77937 1.06066 -1.06066 
C 0.77937 -1.341951 0.397805 -1.5 0 -1.5 
C -0.397805 -1.5 -0.77937 -1.341951 -1.06066 -1.06066 
C -1.341951 -0.77937 -1.5 -0.397805 -1.5 0 
C -1.5 0.397805 -1.341951 0.77937 -1.06066 1.06066 
C -0.77937 1.341951 -0.397805 1.5 0 1.5 
z
" style="stroke: #f5deb3"/>
    </defs>
    <g>
     <use xlink:href="#m2429088448" x="268.347164" y="42.157241" style="fill: #f5deb3; stroke: #f5deb3"/>
     <use xlink:href="#m2429088448" x="268.347164" y="42.157241" style="fill: #f5deb3; stroke: #f5deb3"/>
    </g>
   </g>
   <g id="line2d_34">
    <defs>
     <path id="m8bd65fd4fc" d="M 0 1.5 
C 0.397805 1.5 0.77937 1.341951 1.06066 1.06066 
C 1.341951 0.77937 1.5 0.397805 1.5 0 
C 1.5 -0.397805 1.341951 -0.77937 1.06066 -1.06066 
C 0.77937 -1.341951 0.397805 -1.5 0 -1.5 
C -0.397805 -1.5 -0.77937 -1.341951 -1.06066 -1.06066 
C -1.341951 -0.77937 -1.5 -0.397805 -1.5 0 
C -1.5 0.397805 -1.341951 0.77937 -1.06066 1.06066 
C -0.77937 1.341951 -0.397805 1.5 0 1.5 
z
" style="stroke: #000080"/>
    </defs>
    <g>
     <use xlink:href="#m8bd65fd4fc" x="81.696354" y="278.677986" style="fill: #000080; stroke: #000080"/>
     <use xlink:href="#m8bd65fd4fc" x="81.696354" y="278.677986" style="fill: #000080; stroke: #000080"/>
    </g>
   </g>
   <g id="line2d_35">
    <path d="M 27.323974 298.944 
L 27.323974 292.524331 
L 40.363149 292.524331 
L 40.363149 290.006814 
L 47.990577 290.006814 
L 47.990577 289.125683 
L 53.402323 289.125683 
L 53.402323 288.244552 
L 57.6 288.244552 
L 57.6 286.859917 
L 61.029752 286.859917 
L 61.029752 286.356414 
L 63.929565 286.356414 
L 63.929565 285.85291 
L 66.441498 285.85291 
L 66.441498 285.475283 
L 68.65718 285.475283 
L 68.65718 285.097655 
L 70.639174 285.097655 
L 70.639174 283.713021 
L 72.432107 283.713021 
L 72.432107 282.580138 
L 74.068926 282.580138 
L 74.068926 281.573131 
L 75.574654 281.573131 
L 75.574654 281.321379 
L 76.96874 281.321379 
L 76.96874 280.817876 
L 78.266603 280.817876 
L 78.266603 280.188497 
L 79.480672 280.188497 
L 79.480672 279.18149 
L 80.621116 279.18149 
L 80.621116 279.055614 
L 81.696354 279.055614 
L 81.696354 278.677986 
L 360.8064 278.677986 
" style="fill: none; stroke: #000080; stroke-width: 1.5; stroke-linecap: square"/>
   </g>
   <g id="line2d_36">
    <defs>
     <path id="macf4dc51e3" d="M 0 6 
C 1.591219 6 3.117479 5.367802 4.242641 4.242641 
C 5.367802 3.117479 6 1.591219 6 0 
C 6 -1.591219 5.367802 -3.117479 4.242641 -4.242641 
C 3.117479 -5.367802 1.591219 -6 0 -6 
C -1.591219 -6 -3.117479 -5.367802 -4.242641 -4.242641 
C -5.367802 -3.117479 -6 -1.591219 -6 0 
C -6 1.591219 -5.367802 3.117479 -4.242641 4.242641 
C -3.117479 5.367802 -1.591219 6 0 6 
z
" style="stroke: #000080; stroke-width: 1.5"/>
    </defs>
    <g>
     <use xlink:href="#macf4dc51e3" x="81.696354" y="279.055614" style="fill-opacity: 0; stroke: #000080; stroke-width: 1.5"/>
     <use xlink:href="#macf4dc51e3" x="81.696354" y="279.055614" style="fill-opacity: 0; stroke: #000080; stroke-width: 1.5"/>
     <use xlink:href="#macf4dc51e3" x="81.696354" y="278.677986" style="fill-opacity: 0; stroke: #000080; stroke-width: 1.5"/>
     <use xlink:href="#macf4dc51e3" x="81.696354" y="278.677986" style="fill-opacity: 0; stroke: #000080; stroke-width: 1.5"/>
     <use xlink:href="#macf4dc51e3" x="81.696354" y="278.677986" style="fill-opacity: 0; stroke: #000080; stroke-width: 1.5"/>
     <use xlink:href="#macf4dc51e3" x="360.8064" y="278.677986" style="fill-opacity: 0; stroke: #000080; stroke-width: 1.5"/>
    </g>
   </g>
   <g id="line2d_37">
    <path style="fill: none; stroke: #000080; stroke-width: 1.5; stroke-linecap: square"/>
    <g/>
   </g>
   <g id="line2d_38">
    <path d="M 81.696354 278.677986 
" clip-path="url(#p5967cea312)" style="fill: none; stroke: #000080; stroke-width: 1.5; stroke-linecap: square"/>
    <defs>
     <path id="m1398bfddc9" d="M -12 12 
L 12 -12 
M -12 -12 
L 12 12 
" style="stroke: #000080"/>
    </defs>
    <g clip-path="url(#p5967cea312)">
     <use xlink:href="#m1398bfddc9" x="81.696354" y="278.677986" style="fill: #000080; stroke: #000080"/>
    </g>
   </g>
   <g id="line2d_39">
    <defs>
     <path id="md12dcbf4f2" d="M 0 1.5 
C 0.397805 1.5 0.77937 1.341951 1.06066 1.06066 
C 1.341951 0.77937 1.5 0.397805 1.5 0 
C 1.5 -0.397805 1.341951 -0.77937 1.06066 -1.06066 
C 0.77937 -1.341951 0.397805 -1.5 0 -1.5 
C -0.397805 -1.5 -0.77937 -1.341951 -1.06066 -1.06066 
C -1.341951 -0.77937 -1.5 -0.397805 -1.5 0 
C -1.5 0.397805 -1.341951 0.77937 -1.06066 1.06066 
C -0.77937 1.341951 -0.397805 1.5 0 1.5 
z
" style="stroke: #ff00ff"/>
    </defs>
    <g>
     <use xlink:href="#md12dcbf4f2" x="274.145274" y="100.186014" style="fill: #ff00ff; stroke: #ff00ff"/>
     <use xlink:href="#md12dcbf4f2" x="274.145274" y="100.186014" style="fill: #ff00ff; stroke: #ff00ff"/>
    </g>
   </g>
   <g id="line2d_40">
    <path d="M 27.323974 298.944 
L 27.323974 292.524331 
L 40.363149 292.524331 
L 40.363149 291.769076 
L 47.990577 291.769076 
L 47.990577 291.265572 
L 53.402323 291.265572 
L 53.402323 290.636193 
L 57.6 290.636193 
L 57.6 290.384441 
L 61.029752 290.384441 
L 61.029752 290.258566 
L 63.929565 290.258566 
L 63.929565 290.13269 
L 66.441498 290.13269 
L 66.441498 289.125683 
L 68.65718 289.125683 
L 68.65718 287.237545 
L 70.639174 287.237545 
L 70.639174 286.734041 
L 72.432107 286.734041 
L 72.432107 286.48229 
L 74.068926 286.48229 
L 74.068926 286.230538 
L 75.574654 286.230538 
L 75.574654 284.971779 
L 78.266603 284.971779 
L 78.266603 284.3424 
L 79.480672 284.3424 
L 79.480672 284.216524 
L 80.621116 284.216524 
L 80.621116 283.838897 
L 81.696354 283.838897 
L 81.696354 283.083641 
L 82.713442 283.083641 
L 82.713442 282.706014 
L 84.596168 282.706014 
L 84.596168 282.20251 
L 85.471281 282.20251 
L 85.471281 281.447255 
L 86.307488 281.447255 
L 86.307488 280.817876 
L 87.1081 280.817876 
L 87.1081 280.062621 
L 87.876026 280.062621 
L 87.876026 279.684993 
L 88.613828 279.684993 
L 88.613828 278.929738 
L 89.323782 278.929738 
L 89.323782 278.300359 
L 90.007914 278.300359 
L 90.007914 277.922731 
L 90.668036 277.922731 
L 90.668036 277.545103 
L 91.305777 277.545103 
L 91.305777 277.419228 
L 91.922605 277.419228 
L 91.922605 277.293352 
L 92.519847 277.293352 
L 92.519847 277.0416 
L 93.098709 277.0416 
L 93.098709 276.538097 
L 94.735529 276.538097 
L 94.735529 276.412221 
L 96.717523 276.412221 
L 96.717523 276.286345 
L 97.18203 276.286345 
L 97.18203 275.53109 
L 97.635342 275.53109 
L 97.635342 275.405214 
L 99.346662 275.405214 
L 99.346662 275.279338 
L 99.751228 275.279338 
L 99.751228 274.90171 
L 102.011329 274.90171 
L 102.011329 274.398207 
L 102.362957 274.398207 
L 102.362957 274.272331 
L 104.344952 274.272331 
L 104.344952 273.3912 
L 104.655893 273.3912 
L 104.655893 273.139448 
L 105.850679 273.139448 
L 105.850679 272.761821 
L 106.699465 272.761821 
L 106.699465 272.510069 
L 107.244765 272.510069 
L 107.244765 272.384193 
L 107.774703 272.384193 
L 107.774703 271.88069 
L 108.034177 271.88069 
L 108.034177 271.754814 
L 108.29012 271.754814 
L 108.29012 271.628938 
L 108.791791 271.628938 
L 108.791791 271.377186 
L 109.037698 271.377186 
L 109.037698 271.125434 
L 109.280431 271.125434 
L 109.280431 270.118428 
L 109.520071 270.118428 
L 109.520071 269.992552 
L 109.990385 269.992552 
L 109.990385 269.7408 
L 110.449226 269.7408 
L 110.449226 269.489048 
L 111.334639 269.489048 
L 111.334639 269.363172 
L 111.762192 269.363172 
L 111.762192 268.985545 
L 111.97238 268.985545 
L 111.97238 268.607917 
L 112.385837 268.607917 
L 112.385837 268.482041 
L 113.186449 268.482041 
L 113.186449 268.356166 
L 113.381389 268.356166 
L 113.381389 268.104414 
L 113.954374 268.104414 
L 113.954374 267.978538 
L 114.141556 267.978538 
L 114.141556 267.726786 
L 114.510421 267.726786 
L 114.510421 267.475034 
L 114.692177 267.475034 
L 114.692177 267.097407 
L 115.050503 267.097407 
L 115.050503 266.845655 
L 115.227139 266.845655 
L 115.227139 266.719779 
L 115.575511 266.719779 
L 115.575511 266.593903 
L 115.747307 266.593903 
L 115.747307 266.468028 
L 115.917548 266.468028 
L 115.917548 266.342152 
L 116.086263 266.342152 
L 116.086263 266.216276 
L 116.253478 266.216276 
L 116.253478 265.838648 
L 116.746385 265.838648 
L 116.746385 265.461021 
L 117.067958 265.461021 
L 117.067958 265.083393 
L 117.384126 265.083393 
L 117.384126 264.957517 
L 117.695068 264.957517 
L 117.695068 264.831641 
L 117.848632 264.831641 
L 117.848632 264.57989 
L 118.301945 264.57989 
L 118.301945 263.698759 
L 118.74459 263.698759 
L 118.74459 263.447007 
L 118.889854 263.447007 
L 118.889854 263.069379 
L 119.034004 263.069379 
L 119.034004 262.691752 
L 119.177058 262.691752 
L 119.177058 262.44 
L 119.319033 262.44 
L 119.319033 262.314124 
L 119.459944 262.314124 
L 119.459944 261.936497 
L 119.738639 261.936497 
L 119.738639 261.810621 
L 119.876453 261.810621 
L 119.876453 261.558869 
L 120.013265 261.558869 
L 120.013265 261.181241 
L 120.149089 261.181241 
L 120.149089 260.92949 
L 120.550775 260.92949 
L 120.550775 260.551862 
L 120.682786 260.551862 
L 120.682786 260.425986 
L 120.813877 260.425986 
L 120.813877 260.30011 
L 121.329295 260.30011 
L 121.329295 259.796607 
L 121.455972 259.796607 
L 121.455972 259.293103 
L 121.581803 259.293103 
L 121.581803 259.167228 
L 121.706797 259.167228 
L 121.706797 258.663724 
L 121.954321 258.663724 
L 121.954321 258.160221 
L 122.076872 258.160221 
L 122.076872 258.034345 
L 122.19863 258.034345 
L 122.19863 257.908469 
L 122.319605 257.908469 
L 122.319605 257.782593 
L 122.439807 257.782593 
L 122.439807 257.656717 
L 123.145323 257.656717 
L 123.145323 257.27909 
L 123.601383 257.27909 
L 123.601383 257.153214 
L 123.713691 257.153214 
L 123.713691 257.027338 
L 123.936316 257.027338 
L 124.046648 256.775586 
L 124.156336 256.775586 
L 124.265389 256.272083 
L 124.481616 256.272083 
L 124.481616 256.146207 
L 124.695386 256.146207 
L 124.695386 255.894455 
L 124.906754 255.894455 
L 124.906754 255.1392 
L 125.219419 255.1392 
L 125.322496 254.887448 
L 125.425011 254.887448 
L 125.425011 254.761572 
L 125.628382 254.761572 
L 125.729248 254.383945 
L 125.829577 254.383945 
L 125.929373 254.132193 
L 126.127391 254.132193 
L 126.225624 253.754566 
L 126.323346 253.754566 
L 126.420564 253.376938 
L 126.517282 253.376938 
L 126.613505 252.495807 
L 126.804487 252.495807 
L 126.899255 251.992303 
L 126.993549 251.992303 
L 127.087372 250.859421 
L 127.18073 250.859421 
L 127.18073 250.733545 
L 127.366067 250.733545 
L 127.458055 249.97829 
L 128.000734 249.97829 
L 128.089678 249.600662 
L 128.178203 249.600662 
L 128.178203 249.474786 
L 128.441306 249.474786 
L 128.528195 248.719531 
L 128.614685 248.719531 
L 128.700779 248.090152 
L 128.871795 248.090152 
L 128.956723 247.586648 
L 129.041269 247.586648 
L 129.125437 247.083145 
L 129.209231 247.083145 
L 129.292652 246.076138 
L 129.458394 246.076138 
L 129.54072 245.320883 
L 129.7043 245.320883 
L 129.78556 244.943255 
L 129.947033 244.943255 
L 130.027253 244.188 
L 130.107132 244.188 
L 130.107132 243.810372 
L 130.4233 243.810372 
L 130.4233 243.558621 
L 130.656987 243.558621 
L 130.734242 242.929241 
L 130.811181 242.929241 
L 130.811181 242.803366 
L 130.964122 242.803366 
L 130.964122 242.551614 
L 131.115828 242.551614 
L 131.191226 242.173986 
L 131.41562 242.173986 
L 131.41562 241.922234 
L 131.563744 241.922234 
L 131.63737 241.544607 
L 131.71071 241.544607 
L 131.783764 241.041103 
L 131.929028 241.041103 
L 131.929028 240.915228 
L 132.144842 240.915228 
L 132.216233 240.663476 
L 132.287354 240.663476 
L 132.287354 240.5376 
L 132.499119 240.5376 
L 132.499119 240.285848 
L 132.984158 240.285848 
L 132.984158 240.034097 
L 133.25581 240.034097 
L 133.25581 239.656469 
L 133.390178 239.656469 
L 133.390178 239.530593 
L 133.523594 239.530593 
L 133.523594 239.278841 
L 133.983236 239.278841 
L 133.983236 239.152966 
L 134.808158 239.152966 
L 134.808158 238.901214 
L 135.054871 238.901214 
L 135.054871 238.649462 
L 135.177024 238.649462 
L 135.177024 238.020083 
L 135.35878 238.020083 
L 135.35878 237.768331 
L 135.538796 237.768331 
L 135.538796 237.516579 
L 135.657857 237.516579 
L 135.717106 237.138952 
L 136.242113 237.138952 
L 136.299553 236.635448 
L 136.413909 236.635448 
L 136.413909 236.509572 
L 136.808769 236.509572 
L 136.808769 235.754317 
L 137.250116 235.754317 
L 137.250116 235.628441 
L 137.627979 235.628441 
L 137.627979 235.502566 
L 139.796097 235.502566 
L 139.796097 235.37669 
L 140.725251 235.37669 
L 140.770526 234.999062 
L 140.905699 234.999062 
L 140.905699 234.74731 
L 141.173167 234.74731 
L 141.173167 234.369683 
L 143.225848 234.369683 
L 143.225848 234.243807 
L 143.618588 234.243807 
L 143.618588 234.117931 
L 143.965177 234.117931 
L 143.965177 233.992055 
L 146.892226 233.992055 
L 146.924857 233.488552 
L 148.488177 233.488552 
L 148.57797 232.985048 
L 148.815343 232.985048 
L 148.815343 232.733297 
L 149.049758 232.733297 
L 149.049758 232.607421 
L 149.395993 232.607421 
L 149.395993 232.103917 
L 149.65155 232.103917 
L 149.65155 231.978041 
L 150.425115 231.978041 
L 150.425115 231.72629 
L 150.879716 231.72629 
L 150.879716 231.600414 
L 151.037576 231.600414 
L 151.037576 231.348662 
L 151.375128 231.348662 
L 151.375128 231.222786 
L 151.630724 231.222786 
L 151.70673 230.845159 
L 152.279463 230.845159 
L 152.279463 230.593407 
L 152.450367 230.593407 
L 152.450367 230.341655 
L 153.001222 230.341655 
L 153.048369 229.964028 
L 153.741748 229.964028 
L 153.832297 229.712276 
L 154.388563 229.712276 
L 154.476059 229.334648 
L 154.628204 229.334648 
L 154.628204 229.082897 
L 154.971412 229.082897 
L 154.971412 228.831145 
L 155.18278 228.831145 
L 155.28758 228.327641 
L 155.823323 228.327641 
L 155.904407 227.572386 
L 156.442771 227.572386 
L 156.501649 226.943007 
L 156.560344 226.943007 
L 156.657763 226.439503 
L 156.8511 226.439503 
L 156.8511 226.187752 
L 157.023421 226.187752 
L 157.023421 225.936 
L 157.213055 225.936 
L 157.231914 225.306621 
L 157.438121 225.306621 
L 157.438121 225.180745 
L 157.568177 225.180745 
L 157.605171 224.803117 
L 157.734081 224.803117 
L 157.825621 224.173738 
L 158.0976 224.173738 
L 158.2053 223.544359 
L 158.241064 223.544359 
L 158.347948 222.411476 
L 158.418868 222.411476 
L 158.52475 222.159724 
L 158.612531 222.159724 
L 158.665004 221.782097 
L 158.752135 221.782097 
L 158.856162 221.026841 
L 158.907961 221.026841 
L 158.976805 220.649214 
L 159.096679 220.649214 
L 159.130788 220.397462 
L 159.232748 220.397462 
L 159.317295 220.019834 
L 159.351007 220.019834 
L 159.384659 219.264579 
L 159.865969 219.264579 
L 159.964032 218.886952 
L 160.303279 218.886952 
L 160.399093 218.131697 
L 160.573496 218.131697 
L 160.683643 217.754069 
L 160.730652 217.754069 
L 160.730652 217.628193 
L 160.933013 217.628193 
L 161.025681 216.49531 
L 161.36161 216.49531 
L 161.467251 216.117683 
L 161.497325 216.117683 
L 161.542347 215.614179 
L 161.854518 215.614179 
L 161.88398 214.858924 
L 161.97209 214.858924 
L 161.97209 214.607172 
L 162.103487 214.607172 
L 162.205054 214.229545 
L 162.449456 214.229545 
L 162.449456 213.977793 
L 162.591753 213.977793 
L 162.676617 213.600166 
L 162.8032 213.600166 
L 162.887118 213.096662 
L 162.928937 213.096662 
L 163.040002 212.593159 
L 163.219095 212.593159 
L 163.260183 211.837903 
L 163.342092 211.837903 
L 163.342092 211.712028 
L 163.464289 211.712028 
L 163.545315 211.208524 
L 163.666204 211.208524 
L 163.759694 210.327393 
L 163.786321 210.327393 
L 163.786321 210.201517 
L 163.945293 210.201517 
L 164.024277 209.698014 
L 164.102932 209.698014 
L 164.207296 209.068634 
L 164.478528 209.068634 
L 164.478528 208.942759 
L 164.796406 208.942759 
L 164.884457 208.187503 
L 164.909539 208.187503 
L 165.009535 207.306372 
L 165.170902 207.306372 
L 165.170902 207.054621 
L 165.294095 207.054621 
L 165.404283 206.425241 
L 165.64686 206.425241 
L 165.743021 205.669986 
L 165.838694 205.669986 
L 165.933882 205.166483 
L 166.052194 205.166483 
L 166.134572 204.537103 
L 166.460523 204.537103 
L 166.495114 204.0336 
L 166.621405 204.0336 
L 166.621405 203.907724 
L 166.746854 203.907724 
L 166.848875 203.404221 
L 167.073627 203.404221 
L 167.162782 203.026593 
L 167.295726 203.026593 
L 167.383837 202.52309 
L 167.438697 202.52309 
L 167.537044 202.019586 
L 167.580589 202.019586 
L 167.59146 201.767834 
L 167.699821 201.767834 
L 167.807563 201.138455 
L 167.850487 201.138455 
L 167.91469 200.634952 
L 168.084835 200.634952 
L 168.17987 200.257324 
L 168.23246 200.257324 
L 168.295375 199.502069 
L 168.347644 199.502069 
L 168.347644 199.376193 
L 168.4725 199.376193 
L 168.513935 198.998566 
L 168.647973 198.998566 
L 168.750432 198.746814 
L 168.79126 198.746814 
L 168.892945 198.495062 
L 168.923343 198.495062 
L 169.004166 198.24331 
L 169.114734 198.24331 
L 169.224656 197.991559 
L 169.244573 197.991559 
L 169.284344 197.739807 
L 169.393282 197.739807 
L 169.403154 197.236303 
L 169.521218 197.236303 
L 169.570194 196.7328 
L 169.735764 196.7328 
L 169.745458 196.355172 
L 170.053063 196.355172 
L 170.138678 195.096414 
L 170.214455 195.096414 
L 170.214455 194.844662 
L 170.588827 194.844662 
L 170.681267 194.467034 
L 170.727317 194.467034 
L 170.782429 193.837655 
L 170.955893 193.837655 
L 171.037505 193.0824 
L 171.163758 193.0824 
L 171.208643 192.453021 
L 171.315934 192.453021 
L 171.396002 191.697766 
L 171.563924 191.697766 
L 171.660461 191.068386 
L 171.686704 191.068386 
L 171.773916 190.564883 
L 171.826049 190.564883 
L 171.843395 190.313131 
L 172.093129 190.313131 
L 172.204011 189.683752 
L 172.246485 189.683752 
L 172.314244 189.180248 
L 172.440637 189.180248 
L 172.482581 188.424993 
L 172.591198 188.424993 
L 172.674324 187.543862 
L 172.732295 187.543862 
L 172.757085 186.788607 
L 172.946065 186.788607 
L 173.003206 186.285103 
L 173.189742 186.285103 
L 173.278305 185.655724 
L 173.406384 185.655724 
L 173.470098 185.152221 
L 173.533597 185.152221 
L 173.628445 184.900469 
L 173.667825 184.900469 
L 173.769827 184.145214 
L 173.840121 184.145214 
L 173.933441 183.64171 
L 174.157069 183.64171 
L 174.25646 183.264083 
L 174.279322 183.264083 
L 174.37807 182.634703 
L 174.483838 182.634703 
L 174.581522 181.753572 
L 174.596505 181.753572 
L 174.686155 181.375945 
L 174.753113 181.375945 
L 174.834629 180.872441 
L 174.878944 180.872441 
L 174.98194 180.494814 
L 175.055166 180.494814 
L 175.149934 180.243062 
L 175.193513 180.243062 
L 175.208017 179.487807 
L 175.316441 179.487807 
L 175.395557 178.984303 
L 175.445731 178.984303 
L 175.517176 178.354924 
L 175.559914 178.354924 
L 175.666334 177.725545 
L 175.680478 177.725545 
L 175.758081 177.473793 
L 175.912332 177.473793 
L 176.009838 176.97029 
L 176.278825 176.97029 
L 176.313034 176.718538 
L 176.462819 176.718538 
L 176.496696 176.34091 
L 176.58449 176.34091 
L 176.631594 175.963283 
L 176.705378 175.963283 
L 176.758858 175.459779 
L 176.84544 175.459779 
L 176.878635 175.208028 
L 176.97787 175.208028 
L 177.010832 174.956276 
L 177.148646 174.956276 
L 177.252974 174.326897 
L 177.311405 174.326897 
L 177.408389 173.571641 
L 177.46634 173.571641 
L 177.556133 173.194014 
L 177.728103 173.194014 
L 177.797717 172.816386 
L 177.854483 172.816386 
L 177.854483 172.69051 
L 178.017518 172.69051 
L 178.017518 172.564634 
L 178.154375 172.564634 
L 178.24095 172.187007 
L 178.339408 172.187007 
L 178.339408 172.061131 
L 178.498311 172.061131 
L 178.498311 171.935255 
L 178.710121 171.935255 
L 178.794182 171.054124 
L 179.079571 171.054124 
L 179.167874 170.550621 
L 179.214801 170.550621 
L 179.319959 169.543614 
L 179.337428 169.543614 
L 179.349065 169.165986 
L 179.493926 169.165986 
L 179.557313 168.662483 
L 179.689164 168.662483 
L 179.729109 168.033103 
L 179.842775 168.033103 
L 179.904999 167.403724 
L 180.146284 167.403724 
L 180.146284 167.277848 
L 180.263006 167.277848 
L 180.312808 166.648469 
L 180.444974 166.648469 
L 180.510711 165.893214 
L 180.570768 165.893214 
L 180.674054 165.263834 
L 180.695726 165.263834 
L 180.776776 164.886207 
L 180.948523 164.886207 
L 181.028493 164.382703 
L 181.113421 164.382703 
L 181.113421 164.256828 
L 181.271635 164.256828 
L 181.355475 163.627448 
L 181.444147 163.627448 
L 181.475344 163.249821 
L 181.57896 163.249821 
L 181.625402 162.998069 
L 181.707684 162.998069 
L 181.784497 162.36869 
L 181.820236 162.36869 
L 181.927048 161.487559 
L 181.982756 161.487559 
L 181.982756 161.361683 
L 182.183951 161.361683 
L 182.21894 161.109931 
L 182.303643 161.109931 
L 182.333448 160.732303 
L 182.47684 160.732303 
L 182.575099 160.354676 
L 182.624036 160.354676 
L 182.682594 160.102924 
L 182.89094 160.102924 
L 182.96308 159.851172 
L 183.054061 159.851172 
L 183.149358 159.347669 
L 183.220515 159.347669 
L 183.220515 159.221793 
L 183.399584 159.221793 
L 183.446426 158.970041 
L 183.576965 158.970041 
L 183.609459 158.466538 
L 183.849099 158.466538 
L 183.954128 157.963034 
L 184.058574 157.963034 
L 184.063102 157.585407 
L 184.216409 157.585407 
L 184.314946 157.207779 
L 184.328343 157.207779 
L 184.430737 156.704276 
L 184.457357 156.704276 
L 184.488367 156.074897 
L 184.752084 156.074897 
L 184.752084 155.949021 
L 184.899899 155.949021 
L 184.956111 155.445517 
L 185.085194 155.445517 
L 185.175028 155.06789 
L 185.196353 155.06789 
L 185.196353 154.942014 
L 185.638701 154.942014 
L 185.709351 154.312634 
L 185.932024 154.312634 
L 186.026072 153.935007 
L 186.111533 153.935007 
L 186.168292 153.683255 
L 186.373621 153.683255 
L 186.409624 153.431503 
L 186.525167 153.431503 
L 186.556917 153.179752 
L 186.726658 153.179752 
L 186.769835 152.550372 
L 186.875397 152.550372 
L 186.926013 152.046869 
L 186.988123 152.046869 
L 187.096325 151.543366 
L 187.169394 151.543366 
L 187.268927 151.291614 
L 187.390709 151.291614 
L 187.500398 150.78811 
L 187.792288 150.78811 
L 187.792288 150.536359 
L 187.951286 150.536359 
L 188.054101 150.158731 
L 188.134493 150.158731 
L 188.134493 150.032855 
L 188.652374 150.032855 
L 188.652374 149.906979 
L 189.08718 149.906979 
L 189.125271 149.2776 
L 189.324846 149.2776 
L 189.355626 149.025848 
L 189.451064 149.025848 
L 189.451064 148.899972 
L 189.569686 148.899972 
L 189.569686 148.774097 
L 190.033533 148.774097 
L 190.033533 148.648221 
L 190.181281 148.648221 
L 190.285645 148.396469 
L 190.54405 148.396469 
L 190.582506 148.144717 
L 190.987888 148.144717 
L 190.987888 147.892966 
L 191.131465 147.892966 
L 191.131465 147.76709 
L 191.970645 147.76709 
L 191.970645 147.641214 
L 192.335815 147.641214 
L 192.335815 147.389462 
L 193.037126 147.389462 
L 193.037126 147.263586 
L 193.445696 147.263586 
L 193.445696 147.13771 
L 193.721358 147.13771 
L 193.813254 146.508331 
L 194.128748 146.508331 
L 194.128748 146.382455 
L 194.360634 146.382455 
L 194.360634 146.256579 
L 194.491126 146.256579 
L 194.491126 146.004828 
L 194.902717 146.004828 
L 194.902717 145.753076 
L 195.074953 145.753076 
L 195.074953 145.6272 
L 195.342818 145.6272 
L 195.342818 145.375448 
L 195.548005 145.375448 
L 195.548005 145.249572 
L 195.675425 145.249572 
L 195.675425 144.997821 
L 196.014251 144.997821 
L 196.117105 144.620193 
L 196.155233 144.620193 
L 196.155233 144.494317 
L 196.527658 144.494317 
L 196.527658 144.368441 
L 196.771139 144.368441 
L 196.771139 144.11669 
L 196.945428 144.11669 
L 196.945428 143.990814 
L 197.405424 143.990814 
L 197.405424 143.864938 
L 198.008234 143.864938 
L 198.008234 143.613186 
L 198.297237 143.613186 
L 198.297237 143.48731 
L 198.447467 143.48731 
L 198.447467 143.361434 
L 198.706999 143.361434 
L 198.787891 143.109683 
L 199.128363 143.109683 
L 199.128363 142.983807 
L 199.627787 142.983807 
L 199.627787 142.857931 
L 199.750107 142.857931 
L 199.750107 142.732055 
L 200.131646 142.732055 
L 200.131646 142.606179 
L 200.361478 142.606179 
L 200.361478 142.480303 
L 200.543343 142.480303 
L 200.543343 142.354428 
L 200.766367 142.354428 
L 200.766367 142.228552 
L 200.903733 142.228552 
L 200.957293 141.850924 
L 201.029082 141.850924 
L 201.029082 141.599172 
L 201.259162 141.599172 
L 201.259162 141.473297 
L 201.547329 141.473297 
L 201.547329 141.347421 
L 201.721676 141.347421 
L 201.721676 141.095669 
L 202.001152 141.095669 
L 202.001152 140.843917 
L 202.297158 140.843917 
L 202.297158 140.718041 
L 202.44258 140.718041 
L 202.44258 140.46629 
L 202.714983 140.46629 
L 202.714983 140.214538 
L 202.867223 140.214538 
L 202.8922 139.962786 
L 202.991776 139.962786 
L 203.067762 139.585159 
L 203.168056 139.585159 
L 203.168056 139.459283 
L 203.28901 139.459283 
L 203.370297 138.955779 
L 203.494797 138.955779 
L 203.535043 138.704028 
L 203.684005 138.704028 
L 203.684005 138.578152 
L 203.800111 138.578152 
L 203.89974 138.200524 
L 203.942276 138.200524 
L 203.983147 137.822897 
L 204.086499 137.822897 
L 204.086499 137.697021 
L 204.399335 137.697021 
L 204.399335 137.571145 
L 204.607065 137.571145 
L 204.607065 137.445269 
L 205.386652 137.445269 
L 205.386652 137.319393 
L 205.572275 137.319393 
L 205.572275 137.067641 
L 205.919707 137.067641 
L 205.919707 136.941766 
L 206.475245 136.941766 
L 206.580855 136.690014 
L 207.014847 136.690014 
L 207.014847 136.438262 
L 207.306607 136.438262 
L 207.38933 135.683007 
L 207.433824 135.683007 
L 207.433824 135.557131 
L 207.55629 135.557131 
L 207.567974 135.305379 
L 207.675384 135.305379 
L 207.675384 135.053628 
L 208.657123 135.053628 
L 208.657123 134.801876 
L 209.118074 134.801876 
L 209.228895 134.424248 
L 209.34261 134.424248 
L 209.352056 133.920745 
L 209.663443 133.920745 
L 209.69824 133.543117 
L 210.032477 133.543117 
L 210.032477 133.291366 
L 210.439029 133.291366 
L 210.439029 133.16549 
L 210.649525 133.16549 
L 210.649525 133.039614 
L 210.877295 133.039614 
L 210.877295 132.913738 
L 211.051723 132.913738 
L 211.051723 132.787862 
L 211.245907 132.787862 
L 211.245907 132.661986 
L 211.922032 132.661986 
L 211.922032 132.410234 
L 212.284049 132.410234 
L 212.284049 132.284359 
L 212.732166 132.284359 
L 212.732166 132.158483 
L 213.237185 132.158483 
L 213.237185 131.906731 
L 213.376842 131.906731 
L 213.376842 131.780855 
L 213.524928 131.780855 
L 213.524928 131.654979 
L 213.7159 131.654979 
L 213.788766 131.151476 
L 214.09396 131.151476 
L 214.169948 130.773848 
L 214.348181 130.773848 
L 214.348181 130.647972 
L 214.962526 130.647972 
L 215.011517 130.396221 
L 215.098684 130.396221 
L 215.098684 130.270345 
L 215.324306 130.270345 
L 215.428849 130.018593 
L 215.45276 130.018593 
L 215.45276 129.892717 
L 215.695274 129.892717 
L 215.695274 129.766841 
L 215.824575 129.766841 
L 215.824575 129.640966 
L 216.018532 129.640966 
L 216.096218 129.137462 
L 216.289041 129.137462 
L 216.289041 128.88571 
L 216.482332 128.88571 
L 216.482332 128.633959 
L 216.594308 128.633959 
L 216.594308 128.382207 
L 216.878093 128.382207 
L 216.936548 128.130455 
L 217.030171 128.130455 
L 217.030171 128.004579 
L 217.321419 128.004579 
L 217.321419 127.878703 
L 217.562507 127.878703 
L 217.608986 127.501076 
L 218.098738 127.501076 
L 218.098738 127.3752 
L 218.500731 127.3752 
L 218.500731 127.123448 
L 218.68562 127.123448 
L 218.796688 126.745821 
L 218.801688 126.745821 
L 218.862303 126.242317 
L 219.426877 126.242317 
L 219.448974 125.738814 
L 219.669203 125.738814 
L 219.669203 125.612938 
L 220.655106 125.612938 
L 220.747435 124.857683 
L 220.778325 124.857683 
L 220.778325 124.731807 
L 220.939035 124.731807 
L 220.939035 124.605931 
L 221.306477 124.605931 
L 221.306477 124.480055 
L 221.835407 124.480055 
L 221.835407 124.354179 
L 222.307237 124.354179 
L 222.410107 124.102428 
L 222.719444 124.102428 
L 222.719444 123.976552 
L 223.189113 123.976552 
L 223.189113 123.850676 
L 223.336739 123.850676 
L 223.403969 123.347172 
L 223.497133 123.347172 
L 223.497133 123.221297 
L 224.23913 123.221297 
L 224.23913 123.095421 
L 224.594186 123.095421 
L 224.594186 122.843669 
L 224.767671 122.843669 
L 224.86417 122.21429 
L 224.89881 122.21429 
L 224.913267 121.962538 
L 225.128294 121.962538 
L 225.128294 121.836662 
L 225.355516 121.836662 
L 225.355516 121.710786 
L 226.129369 121.710786 
L 226.129369 121.459034 
L 226.631588 121.459034 
L 226.631588 121.333159 
L 226.894488 121.333159 
L 226.894488 121.081407 
L 227.42849 121.081407 
L 227.42849 120.829655 
L 227.620316 120.829655 
L 227.620316 120.703779 
L 228.052876 120.703779 
L 228.052876 120.452028 
L 228.782831 120.452028 
L 228.782831 120.326152 
L 229.415767 120.326152 
L 229.415767 120.200276 
L 229.533218 120.200276 
L 229.533218 120.0744 
L 229.897082 120.0744 
L 229.897082 119.822648 
L 230.108936 119.822648 
L 230.108936 119.570897 
L 230.783136 119.570897 
L 230.887493 119.193269 
L 230.975202 119.193269 
L 230.975202 119.067393 
L 231.266854 119.067393 
L 231.266854 118.941517 
L 231.48976 118.941517 
L 231.598964 118.56389 
L 232.04722 118.56389 
L 232.04722 118.438014 
L 232.70599 118.438014 
L 232.70599 118.312138 
L 232.841252 118.312138 
L 232.841252 118.186262 
L 233.765988 118.186262 
L 233.765988 117.93451 
L 234.619679 117.93451 
L 234.619679 117.682759 
L 234.736696 117.682759 
L 234.736696 117.556883 
L 235.397621 117.556883 
L 235.397621 117.431007 
L 235.546606 117.431007 
L 235.546606 117.305131 
L 235.729016 117.305131 
L 235.729016 117.053379 
L 237.293812 117.053379 
L 237.293812 116.927503 
L 237.777174 116.927503 
L 237.777174 116.801628 
L 238.125068 116.801628 
L 238.125068 116.675752 
L 238.506529 116.675752 
L 238.506529 116.549876 
L 238.711136 116.549876 
L 238.711136 116.298124 
L 238.838848 116.298124 
L 238.838848 116.172248 
L 239.184986 116.172248 
L 239.184986 116.046372 
L 239.582937 116.046372 
L 239.582937 115.794621 
L 239.819037 115.794621 
L 239.844725 115.416993 
L 240.040897 115.416993 
L 240.082192 115.039366 
L 240.174373 115.039366 
L 240.174373 114.91349 
L 240.382356 114.91349 
L 240.382356 114.787614 
L 240.619445 114.787614 
L 240.619445 114.661738 
L 241.001195 114.661738 
L 241.001195 114.409986 
L 241.380946 114.409986 
L 241.380946 114.28411 
L 241.71054 114.28411 
L 241.71054 114.158234 
L 242.673058 114.158234 
L 242.673058 114.032359 
L 242.789359 114.032359 
L 242.835201 113.780607 
L 243.481308 113.780607 
L 243.481308 113.654731 
L 243.602863 113.654731 
L 243.602863 113.402979 
L 243.717941 113.402979 
L 243.82741 113.025352 
L 244.863066 113.025352 
L 244.863066 112.899476 
L 245.23715 112.899476 
L 245.23715 112.7736 
L 246.432847 112.7736 
L 246.432847 112.647724 
L 246.777254 112.647724 
L 246.777254 112.521848 
L 247.394202 112.521848 
L 247.459236 112.270097 
L 247.935324 112.270097 
L 247.935324 112.018345 
L 248.510111 112.018345 
L 248.510111 111.892469 
L 249.259258 111.892469 
L 249.259258 111.640717 
L 249.52575 111.640717 
L 249.52575 111.514841 
L 249.755477 111.514841 
L 249.755477 111.388966 
L 250.129438 111.388966 
L 250.129438 111.26309 
L 250.431482 111.26309 
L 250.431482 111.137214 
L 251.045475 111.137214 
L 251.045475 110.885462 
L 251.320597 110.885462 
L 251.320597 110.759586 
L 251.839578 110.759586 
L 251.870266 110.507834 
L 252.490672 110.507834 
L 252.490672 110.381959 
L 252.865337 110.381959 
L 252.865337 110.130207 
L 253.132654 110.130207 
L 253.202078 109.752579 
L 253.251347 109.752579 
L 253.251347 109.626703 
L 253.909338 109.626703 
L 253.909338 109.500828 
L 254.046733 109.500828 
L 254.046733 109.374952 
L 254.708988 109.374952 
L 254.788876 108.997324 
L 254.873886 108.997324 
L 254.873886 108.871448 
L 255.425433 108.871448 
L 255.425433 108.745572 
L 255.801674 108.745572 
L 255.801674 108.493821 
L 256.06038 108.493821 
L 256.09258 108.242069 
L 256.480624 108.242069 
L 256.480624 108.116193 
L 256.63009 108.116193 
L 256.63009 107.990317 
L 257.009092 107.990317 
L 257.009092 107.738566 
L 258.536972 107.738566 
L 258.536972 107.486814 
L 258.674447 107.486814 
L 258.674447 107.360938 
L 258.837302 107.360938 
L 258.837302 107.109186 
L 259.333401 107.109186 
L 259.333401 106.98331 
L 259.629856 106.98331 
L 259.629856 106.857434 
L 260.250802 106.857434 
L 260.250802 106.731559 
L 260.367411 106.731559 
L 260.367411 106.605683 
L 260.578729 106.605683 
L 260.578729 106.479807 
L 260.705652 106.479807 
L 260.705652 106.353931 
L 260.950955 106.353931 
L 260.950955 106.102179 
L 261.146831 106.102179 
L 261.146831 105.976303 
L 261.556939 105.976303 
L 261.556939 105.850428 
L 262.169527 105.850428 
L 262.274223 105.598676 
L 263.416008 105.598676 
L 263.416008 105.4728 
L 263.776889 105.4728 
L 263.776889 105.221048 
L 263.889225 105.221048 
L 263.889225 105.095172 
L 264.906978 105.095172 
L 264.994649 104.717545 
L 265.390522 104.717545 
L 265.498842 104.088166 
L 265.533898 104.088166 
L 265.635356 103.081159 
L 265.730612 103.081159 
L 265.730612 102.955283 
L 266.238958 102.955283 
L 266.238958 102.829407 
L 267.170836 102.829407 
L 267.170836 102.703531 
L 267.586348 102.703531 
L 267.586348 102.577655 
L 268.215301 102.577655 
L 268.281811 101.8224 
L 268.329666 101.8224 
L 268.329666 101.444772 
L 269.035384 101.444772 
L 269.035384 101.193021 
L 269.754599 101.193021 
L 269.754599 101.067145 
L 270.389071 101.067145 
L 270.389071 100.815393 
L 272.865932 100.815393 
L 272.865932 100.689517 
L 273.73181 100.689517 
L 273.73181 100.437766 
L 273.944897 100.437766 
L 273.944897 100.31189 
L 274.145274 100.31189 
L 274.145274 100.186014 
L 360.8064 100.186014 
L 360.8064 100.186014 
" style="fill: none; stroke: #ff00ff; stroke-width: 1.5; stroke-linecap: square"/>
   </g>
   <g id="line2d_41">
    <defs>
     <path id="m2fc7656f8e" d="M 0 8.485281 
L 5.091169 0 
L 0 -8.485281 
L -5.091169 0 
z
" style="stroke: #ff00ff; stroke-width: 1.5; stroke-linejoin: miter"/>
    </defs>
    <g>
     <use xlink:href="#m2fc7656f8e" x="126.993549" y="251.992303" style="fill-opacity: 0; stroke: #ff00ff; stroke-width: 1.5; stroke-linejoin: miter"/>
     <use xlink:href="#m2fc7656f8e" x="190.582506" y="148.144717" style="fill-opacity: 0; stroke: #ff00ff; stroke-width: 1.5; stroke-linejoin: miter"/>
     <use xlink:href="#m2fc7656f8e" x="270.389071" y="100.815393" style="fill-opacity: 0; stroke: #ff00ff; stroke-width: 1.5; stroke-linejoin: miter"/>
     <use xlink:href="#m2fc7656f8e" x="274.145274" y="100.186014" style="fill-opacity: 0; stroke: #ff00ff; stroke-width: 1.5; stroke-linejoin: miter"/>
     <use xlink:href="#m2fc7656f8e" x="274.145274" y="100.186014" style="fill-opacity: 0; stroke: #ff00ff; stroke-width: 1.5; stroke-linejoin: miter"/>
     <use xlink:href="#m2fc7656f8e" x="360.8064" y="100.186014" style="fill-opacity: 0; stroke: #ff00ff; stroke-width: 1.5; stroke-linejoin: miter"/>
    </g>
   </g>
   <g id="line2d_42">
    <path style="fill: none; stroke: #ff00ff; stroke-width: 1.5; stroke-linecap: square"/>
    <g/>
   </g>
   <g id="line2d_43">
    <path d="M 274.176038 100.186014 
" clip-path="url(#p5967cea312)" style="fill: none; stroke: #ff00ff; stroke-width: 1.5; stroke-linecap: square"/>
    <defs>
     <path id="mf906b0abee" d="M -12 12 
L 12 -12 
M -12 -12 
L 12 12 
" style="stroke: #ff00ff"/>
    </defs>
    <g clip-path="url(#p5967cea312)">
     <use xlink:href="#mf906b0abee" x="274.176038" y="100.186014" style="fill: #ff00ff; stroke: #ff00ff"/>
    </g>
   </g>
   <g id="line2d_44">
    <defs>
     <path id="m872ba443c8" d="M 0 1.5 
C 0.397805 1.5 0.77937 1.341951 1.06066 1.06066 
C 1.341951 0.77937 1.5 0.397805 1.5 0 
C 1.5 -0.397805 1.341951 -0.77937 1.06066 -1.06066 
C 0.77937 -1.341951 0.397805 -1.5 0 -1.5 
C -0.397805 -1.5 -0.77937 -1.341951 -1.06066 -1.06066 
C -1.341951 -0.77937 -1.5 -0.397805 -1.5 0 
C -1.5 0.397805 -1.341951 0.77937 -1.06066 1.06066 
C -0.77937 1.341951 -0.397805 1.5 0 1.5 
z
" style="stroke: #6495ed"/>
    </defs>
    <g>
     <use xlink:href="#m872ba443c8" x="113.954374" y="227.44651" style="fill: #6495ed; stroke: #6495ed"/>
     <use xlink:href="#m872ba443c8" x="113.954374" y="227.44651" style="fill: #6495ed; stroke: #6495ed"/>
    </g>
   </g>
   <g id="line2d_45">
    <path d="M 27.323974 298.944 
L 27.323974 296.552359 
L 40.363149 296.552359 
L 40.363149 296.426483 
L 47.990577 296.426483 
L 47.990577 294.664221 
L 53.402323 294.664221 
L 53.402323 292.650207 
L 57.6 292.650207 
L 57.6 290.384441 
L 61.029752 290.384441 
L 61.029752 290.006814 
L 63.929565 290.006814 
L 63.929565 289.50331 
L 68.65718 289.50331 
L 68.65718 288.496303 
L 70.639174 288.496303 
L 70.639174 287.237545 
L 72.432107 287.237545 
L 72.432107 286.985793 
L 74.068926 286.985793 
L 74.068926 285.727034 
L 75.574654 285.727034 
L 75.574654 284.971779 
L 76.96874 284.971779 
L 76.96874 284.720028 
L 78.266603 284.720028 
L 78.266603 284.3424 
L 79.480672 284.3424 
L 79.480672 284.090648 
L 80.621116 284.090648 
L 80.621116 283.838897 
L 81.696354 283.838897 
L 81.696354 283.209517 
L 82.713442 283.209517 
L 82.713442 282.454262 
L 83.678349 282.454262 
L 83.678349 281.824883 
L 84.596168 281.824883 
L 84.596168 281.699007 
L 85.471281 281.699007 
L 85.471281 281.195503 
L 86.307488 281.195503 
L 86.307488 280.440248 
L 88.613828 280.440248 
L 88.613828 280.188497 
L 90.007914 280.188497 
L 90.007914 280.062621 
L 91.305777 280.062621 
L 91.305777 278.677986 
L 92.519847 278.677986 
L 92.519847 278.174483 
L 93.098709 278.174483 
L 93.098709 278.048607 
L 93.66029 278.048607 
L 93.66029 277.670979 
L 94.735529 277.670979 
L 94.735529 276.789848 
L 95.250946 276.789848 
L 95.250946 276.538097 
L 95.752617 276.538097 
L 95.752617 276.160469 
L 96.241256 276.160469 
L 96.241256 276.034593 
L 96.717523 276.034593 
L 96.717523 275.908717 
L 97.18203 275.908717 
L 97.18203 275.53109 
L 98.077987 275.53109 
L 98.077987 275.279338 
L 98.510456 275.279338 
L 98.510456 274.90171 
L 99.346662 274.90171 
L 99.346662 274.398207 
L 99.751228 274.398207 
L 99.751228 274.272331 
L 100.535156 274.272331 
L 100.535156 274.146455 
L 101.653002 274.146455 
L 101.653002 274.020579 
L 102.362957 274.020579 
L 102.362957 273.517076 
L 102.708132 273.517076 
L 102.708132 271.503062 
L 103.047088 271.503062 
L 103.047088 268.23029 
L 103.380045 268.23029 
L 103.380045 267.223283 
L 103.707211 267.223283 
L 103.707211 265.461021 
L 104.028784 265.461021 
L 104.028784 262.565876 
L 104.344952 262.565876 
L 104.344952 261.055366 
L 104.655893 261.055366 
L 104.655893 260.30011 
L 104.961779 260.30011 
L 104.961779 257.908469 
L 105.26277 257.908469 
L 105.26277 256.64971 
L 105.559021 256.64971 
L 105.559021 255.390952 
L 105.850679 255.390952 
L 105.850679 254.887448 
L 106.137884 254.887448 
L 106.137884 253.376938 
L 106.42077 253.376938 
L 106.42077 252.369931 
L 106.699465 252.369931 
L 106.699465 251.4888 
L 106.974091 251.4888 
L 106.974091 249.474786 
L 107.244765 249.474786 
L 107.244765 247.334897 
L 107.5116 247.334897 
L 107.5116 247.209021 
L 107.774703 247.209021 
L 107.774703 246.202014 
L 108.034177 246.202014 
L 108.034177 244.943255 
L 108.29012 244.943255 
L 108.29012 244.313876 
L 108.542628 244.313876 
L 108.542628 244.188 
L 108.791791 244.188 
L 108.791791 243.055117 
L 109.037698 243.055117 
L 109.037698 240.915228 
L 109.280431 240.915228 
L 109.280431 240.5376 
L 109.520071 240.5376 
L 109.520071 239.782345 
L 109.756698 239.782345 
L 109.756698 238.649462 
L 109.990385 238.649462 
L 109.990385 238.145959 
L 110.221204 238.145959 
L 110.221204 237.264828 
L 110.449226 237.264828 
L 110.449226 236.761324 
L 110.674517 236.761324 
L 110.674517 235.502566 
L 110.897141 235.502566 
L 110.897141 235.37669 
L 111.117162 235.37669 
L 111.117162 235.124938 
L 111.334639 235.124938 
L 111.334639 234.873186 
L 111.54963 234.873186 
L 111.54963 234.117931 
L 111.97238 234.117931 
L 111.97238 233.614428 
L 112.180244 233.614428 
L 112.180244 233.488552 
L 112.385837 233.488552 
L 112.385837 233.2368 
L 112.589207 233.2368 
L 112.589207 232.229793 
L 112.790402 232.229793 
L 112.790402 231.348662 
L 112.989468 231.348662 
L 112.989468 231.222786 
L 113.186449 231.222786 
L 113.186449 230.593407 
L 113.381389 230.593407 
L 113.381389 229.460524 
L 113.765312 229.460524 
L 113.765312 228.831145 
L 113.954374 228.831145 
L 113.954374 227.44651 
L 360.8064 227.44651 
L 360.8064 227.44651 
" style="fill: none; stroke: #6495ed; stroke-width: 1.5; stroke-linecap: square"/>
   </g>
   <g id="line2d_46">
    <defs>
     <path id="m50f68a3b93" d="M -0 6 
L 6 -6 
L -6 -6 
z
" style="stroke: #6495ed; stroke-width: 1.5; stroke-linejoin: miter"/>
    </defs>
    <g>
     <use xlink:href="#m50f68a3b93" x="61.029752" y="290.006814" style="fill-opacity: 0; stroke: #6495ed; stroke-width: 1.5; stroke-linejoin: miter"/>
     <use xlink:href="#m50f68a3b93" x="113.954374" y="228.831145" style="fill-opacity: 0; stroke: #6495ed; stroke-width: 1.5; stroke-linejoin: miter"/>
     <use xlink:href="#m50f68a3b93" x="113.954374" y="228.831145" style="fill-opacity: 0; stroke: #6495ed; stroke-width: 1.5; stroke-linejoin: miter"/>
     <use xlink:href="#m50f68a3b93" x="113.954374" y="227.44651" style="fill-opacity: 0; stroke: #6495ed; stroke-width: 1.5; stroke-linejoin: miter"/>
     <use xlink:href="#m50f68a3b93" x="113.954374" y="227.44651" style="fill-opacity: 0; stroke: #6495ed; stroke-width: 1.5; stroke-linejoin: miter"/>
     <use xlink:href="#m50f68a3b93" x="360.8064" y="227.44651" style="fill-opacity: 0; stroke: #6495ed; stroke-width: 1.5; stroke-linejoin: miter"/>
    </g>
   </g>
   <g id="line2d_47">
    <path style="fill: none; stroke: #6495ed; stroke-width: 1.5; stroke-linecap: square"/>
    <g/>
   </g>
   <g id="line2d_48">
    <path d="M 113.954374 227.44651 
" clip-path="url(#p5967cea312)" style="fill: none; stroke: #6495ed; stroke-width: 1.5; stroke-linecap: square"/>
    <defs>
     <path id="m4b64cd6f4a" d="M -12 12 
L 12 -12 
M -12 -12 
L 12 12 
" style="stroke: #6495ed"/>
    </defs>
    <g clip-path="url(#p5967cea312)">
     <use xlink:href="#m4b64cd6f4a" x="113.954374" y="227.44651" style="fill: #6495ed; stroke: #6495ed"/>
    </g>
   </g>
   <g id="line2d_49">
    <path d="M 360.8064 278.677986 
L 380.514816 293.10336 
" style="fill: none; stroke: #000080; stroke-width: 1.5; stroke-linecap: square"/>
    <g>
     <use xlink:href="#macf4dc51e3" x="360.8064" y="278.677986" style="fill-opacity: 0; stroke: #000080; stroke-width: 1.5"/>
     <use xlink:href="#macf4dc51e3" x="380.514816" y="293.10336" style="fill-opacity: 0; stroke: #000080; stroke-width: 1.5"/>
    </g>
   </g>
   <g id="line2d_50">
    <path d="M 360.8064 227.44651 
L 380.514816 199.65312 
" style="fill: none; stroke: #6495ed; stroke-width: 1.5; stroke-linecap: square"/>
    <g>
     <use xlink:href="#m50f68a3b93" x="360.8064" y="227.44651" style="fill-opacity: 0; stroke: #6495ed; stroke-width: 1.5; stroke-linejoin: miter"/>
     <use xlink:href="#m50f68a3b93" x="380.514816" y="199.65312" style="fill-opacity: 0; stroke: #6495ed; stroke-width: 1.5; stroke-linejoin: miter"/>
    </g>
   </g>
   <g id="line2d_51">
    <path d="M 360.8064 100.186014 
L 380.514816 106.20288 
" style="fill: none; stroke: #ff00ff; stroke-width: 1.5; stroke-linecap: square"/>
    <g>
     <use xlink:href="#m2fc7656f8e" x="360.8064" y="100.186014" style="fill-opacity: 0; stroke: #ff00ff; stroke-width: 1.5; stroke-linejoin: miter"/>
     <use xlink:href="#m2fc7656f8e" x="380.514816" y="106.20288" style="fill-opacity: 0; stroke: #ff00ff; stroke-width: 1.5; stroke-linejoin: miter"/>
    </g>
   </g>
   <g id="line2d_52">
    <path d="M 360.8064 298.944 
L 360.8064 6.912 
" style="fill: none; stroke: #000000; stroke-width: 1.5; stroke-linecap: square"/>
   </g>
   <g id="patch_3">
    <path d="M 57.6 298.944 
L 360.8064 298.944 
" style="fill: none; stroke: #000000; stroke-width: 0.8; stroke-linejoin: miter; stroke-linecap: square"/>
   </g>
   <g id="patch_4">
    <path d="M 57.6 6.912 
L 360.8064 6.912 
" style="fill: none; stroke: #000000; stroke-width: 0.8; stroke-linejoin: miter; stroke-linecap: square"/>
   </g>
   <g id="text_13">
    <!-- cma -->
    <g transform="translate(386.578944 296.966485)scale(0.14 -0.14)">
     <use xlink:href="#DejaVuSans-63"/>
     <use xlink:href="#DejaVuSans-6d" x="54.980469"/>
     <use xlink:href="#DejaVuSans-61" x="152.392578"/>
    </g>
   </g>
   <g id="text_14">
    <!-- parEgo -->
    <g transform="translate(386.578944 203.516245)scale(0.14 -0.14)">
     <defs>
      <path id="DejaVuSans-45" d="M 628 4666 
L 3578 4666 
L 3578 4134 
L 1259 4134 
L 1259 2753 
L 3481 2753 
L 3481 2222 
L 1259 2222 
L 1259 531 
L 3634 531 
L 3634 0 
L 628 0 
L 628 4666 
z
" transform="scale(0.015625)"/>
     </defs>
     <use xlink:href="#DejaVuSans-70"/>
     <use xlink:href="#DejaVuSans-61" x="63.476562"/>
     <use xlink:href="#DejaVuSans-72" x="124.755859"/>
     <use xlink:href="#DejaVuSans-45" x="165.869141"/>
     <use xlink:href="#DejaVuSans-67" x="229.052734"/>
     <use xlink:href="#DejaVuSans-6f" x="292.529297"/>
    </g>
   </g>
   <g id="text_15">
    <!-- external- -->
    <g transform="translate(386.578944 110.066005)scale(0.14 -0.14)">
     <defs>
      <path id="DejaVuSans-78" d="M 3513 3500 
L 2247 1797 
L 3578 0 
L 2900 0 
L 1881 1375 
L 863 0 
L 184 0 
L 1544 1831 
L 300 3500 
L 978 3500 
L 1906 2253 
L 2834 3500 
L 3513 3500 
z
" transform="scale(0.015625)"/>
     </defs>
     <use xlink:href="#DejaVuSans-65"/>
     <use xlink:href="#DejaVuSans-78" x="59.773438"/>
     <use xlink:href="#DejaVuSans-74" x="118.953125"/>
     <use xlink:href="#DejaVuSans-65" x="158.162109"/>
     <use xlink:href="#DejaVuSans-72" x="219.685547"/>
     <use xlink:href="#DejaVuSans-6e" x="259.048828"/>
     <use xlink:href="#DejaVuSans-61" x="322.427734"/>
     <use xlink:href="#DejaVuSans-6c" x="383.707031"/>
     <use xlink:href="#DejaVuSans-2d" x="411.490234"/>
    </g>
   </g>
   <g id="text_16">
    <!-- best 2016 -->
    <g transform="translate(386.578944 16.615765)scale(0.14 -0.14)">
     <defs>
      <path id="DejaVuSans-62" d="M 3116 1747 
Q 3116 2381 2855 2742 
Q 2594 3103 2138 3103 
Q 1681 3103 1420 2742 
Q 1159 2381 1159 1747 
Q 1159 1113 1420 752 
Q 1681 391 2138 391 
Q 2594 391 2855 752 
Q 3116 1113 3116 1747 
z
M 1159 2969 
Q 1341 3281 1617 3432 
Q 1894 3584 2278 3584 
Q 2916 3584 3314 3078 
Q 3713 2572 3713 1747 
Q 3713 922 3314 415 
Q 2916 -91 2278 -91 
Q 1894 -91 1617 61 
Q 1341 213 1159 525 
L 1159 0 
L 581 0 
L 581 4863 
L 1159 4863 
L 1159 2969 
z
" transform="scale(0.015625)"/>
     </defs>
     <use xlink:href="#DejaVuSans-62"/>
     <use xlink:href="#DejaVuSans-65" x="63.476562"/>
     <use xlink:href="#DejaVuSans-73" x="125"/>
     <use xlink:href="#DejaVuSans-74" x="177.099609"/>
     <use xlink:href="#DejaVuSans-20" x="216.308594"/>
     <use xlink:href="#DejaVuSans-32" x="248.095703"/>
     <use xlink:href="#DejaVuSans-30" x="311.71875"/>
     <use xlink:href="#DejaVuSans-31" x="375.341797"/>
     <use xlink:href="#DejaVuSans-36" x="438.964844"/>
    </g>
   </g>
   <g id="text_17">
    <!-- bbob-biobj f3, f4, f12, f13, 5-D -->
    <g transform="translate(60.632064 17.582726)scale(0.102 -0.102)">
     <defs>
      <path id="DejaVuSans-6a" d="M 603 3500 
L 1178 3500 
L 1178 -63 
Q 1178 -731 923 -1031 
Q 669 -1331 103 -1331 
L -116 -1331 
L -116 -844 
L 38 -844 
Q 366 -844 484 -692 
Q 603 -541 603 -63 
L 603 3500 
z
M 603 4863 
L 1178 4863 
L 1178 4134 
L 603 4134 
L 603 4863 
z
" transform="scale(0.015625)"/>
      <path id="DejaVuSans-33" d="M 2597 2516 
Q 3050 2419 3304 2112 
Q 3559 1806 3559 1356 
Q 3559 666 3084 287 
Q 2609 -91 1734 -91 
Q 1441 -91 1130 -33 
Q 819 25 488 141 
L 488 750 
Q 750 597 1062 519 
Q 1375 441 1716 441 
Q 2309 441 2620 675 
Q 2931 909 2931 1356 
Q 2931 1769 2642 2001 
Q 2353 2234 1838 2234 
L 1294 2234 
L 1294 2753 
L 1863 2753 
Q 2328 2753 2575 2939 
Q 2822 3125 2822 3475 
Q 2822 3834 2567 4026 
Q 2313 4219 1838 4219 
Q 1578 4219 1281 4162 
Q 984 4106 628 3988 
L 628 4550 
Q 988 4650 1302 4700 
Q 1616 4750 1894 4750 
Q 2613 4750 3031 4423 
Q 3450 4097 3450 3541 
Q 3450 3153 3228 2886 
Q 3006 2619 2597 2516 
z
" transform="scale(0.015625)"/>
      <path id="DejaVuSans-35" d="M 691 4666 
L 3169 4666 
L 3169 4134 
L 1269 4134 
L 1269 2991 
Q 1406 3038 1543 3061 
Q 1681 3084 1819 3084 
Q 2600 3084 3056 2656 
Q 3513 2228 3513 1497 
Q 3513 744 3044 326 
Q 2575 -91 1722 -91 
Q 1428 -91 1123 -41 
Q 819 9 494 109 
L 494 744 
Q 775 591 1075 516 
Q 1375 441 1709 441 
Q 2250 441 2565 725 
Q 2881 1009 2881 1497 
Q 2881 1984 2565 2268 
Q 2250 2553 1709 2553 
Q 1456 2553 1204 2497 
Q 953 2441 691 2322 
L 691 4666 
z
" transform="scale(0.015625)"/>
      <path id="DejaVuSans-44" d="M 1259 4147 
L 1259 519 
L 2022 519 
Q 2988 519 3436 956 
Q 3884 1394 3884 2338 
Q 3884 3275 3436 3711 
Q 2988 4147 2022 4147 
L 1259 4147 
z
M 628 4666 
L 1925 4666 
Q 3281 4666 3915 4102 
Q 4550 3538 4550 2338 
Q 4550 1131 3912 565 
Q 3275 0 1925 0 
L 628 0 
L 628 4666 
z
" transform="scale(0.015625)"/>
     </defs>
     <use xlink:href="#DejaVuSans-62"/>
     <use xlink:href="#DejaVuSans-62" x="63.476562"/>
     <use xlink:href="#DejaVuSans-6f" x="126.953125"/>
     <use xlink:href="#DejaVuSans-62" x="188.134766"/>
     <use xlink:href="#DejaVuSans-2d" x="251.611328"/>
     <use xlink:href="#DejaVuSans-62" x="287.695312"/>
     <use xlink:href="#DejaVuSans-69" x="351.171875"/>
     <use xlink:href="#DejaVuSans-6f" x="378.955078"/>
     <use xlink:href="#DejaVuSans-62" x="440.136719"/>
     <use xlink:href="#DejaVuSans-6a" x="503.613281"/>
     <use xlink:href="#DejaVuSans-20" x="531.396484"/>
     <use xlink:href="#DejaVuSans-66" x="563.183594"/>
     <use xlink:href="#DejaVuSans-33" x="598.388672"/>
     <use xlink:href="#DejaVuSans-2c" x="662.011719"/>
     <use xlink:href="#DejaVuSans-20" x="693.798828"/>
     <use xlink:href="#DejaVuSans-66" x="725.585938"/>
     <use xlink:href="#DejaVuSans-34" x="760.791016"/>
     <use xlink:href="#DejaVuSans-2c" x="824.414062"/>
     <use xlink:href="#DejaVuSans-20" x="856.201172"/>
     <use xlink:href="#DejaVuSans-66" x="887.988281"/>
     <use xlink:href="#DejaVuSans-31" x="923.193359"/>
     <use xlink:href="#DejaVuSans-32" x="986.816406"/>
     <use xlink:href="#DejaVuSans-2c" x="1050.439453"/>
     <use xlink:href="#DejaVuSans-20" x="1082.226562"/>
     <use xlink:href="#DejaVuSans-66" x="1114.013672"/>
     <use xlink:href="#DejaVuSans-31" x="1149.21875"/>
     <use xlink:href="#DejaVuSans-33" x="1212.841797"/>
     <use xlink:href="#DejaVuSans-2c" x="1276.464844"/>
     <use xlink:href="#DejaVuSans-20" x="1308.251953"/>
     <use xlink:href="#DejaVuSans-35" x="1340.039062"/>
     <use xlink:href="#DejaVuSans-2d" x="1403.662109"/>
     <use xlink:href="#DejaVuSans-44" x="1439.746094"/>
    </g>
    <!-- 58 targets: 1..-1.0e-4 -->
    <g transform="translate(60.632064 29.004495)scale(0.102 -0.102)">
     <defs>
      <path id="DejaVuSans-3a" d="M 750 794 
L 1409 794 
L 1409 0 
L 750 0 
L 750 794 
z
M 750 3309 
L 1409 3309 
L 1409 2516 
L 750 2516 
L 750 3309 
z
" transform="scale(0.015625)"/>
     </defs>
     <use xlink:href="#DejaVuSans-35"/>
     <use xlink:href="#DejaVuSans-38" x="63.623047"/>
     <use xlink:href="#DejaVuSans-20" x="127.246094"/>
     <use xlink:href="#DejaVuSans-74" x="159.033203"/>
     <use xlink:href="#DejaVuSans-61" x="198.242188"/>
     <use xlink:href="#DejaVuSans-72" x="259.521484"/>
     <use xlink:href="#DejaVuSans-67" x="298.884766"/>
     <use xlink:href="#DejaVuSans-65" x="362.361328"/>
     <use xlink:href="#DejaVuSans-74" x="423.884766"/>
     <use xlink:href="#DejaVuSans-73" x="463.09375"/>
     <use xlink:href="#DejaVuSans-3a" x="515.193359"/>
     <use xlink:href="#DejaVuSans-20" x="548.884766"/>
     <use xlink:href="#DejaVuSans-31" x="580.671875"/>
     <use xlink:href="#DejaVuSans-2e" x="644.294922"/>
     <use xlink:href="#DejaVuSans-2e" x="676.082031"/>
     <use xlink:href="#DejaVuSans-2d" x="707.869141"/>
     <use xlink:href="#DejaVuSans-31" x="743.953125"/>
     <use xlink:href="#DejaVuSans-2e" x="807.576172"/>
     <use xlink:href="#DejaVuSans-30" x="839.363281"/>
     <use xlink:href="#DejaVuSans-65" x="902.986328"/>
     <use xlink:href="#DejaVuSans-2d" x="964.509766"/>
     <use xlink:href="#DejaVuSans-34" x="1000.59375"/>
    </g>
    <!-- 10 instances -->
    <g transform="translate(60.632064 40.426264)scale(0.102 -0.102)">
     <use xlink:href="#DejaVuSans-31"/>
     <use xlink:href="#DejaVuSans-30" x="63.623047"/>
     <use xlink:href="#DejaVuSans-20" x="127.246094"/>
     <use xlink:href="#DejaVuSans-69" x="159.033203"/>
     <use xlink:href="#DejaVuSans-6e" x="186.816406"/>
     <use xlink:href="#DejaVuSans-73" x="250.195312"/>
     <use xlink:href="#DejaVuSans-74" x="302.294922"/>
     <use xlink:href="#DejaVuSans-61" x="341.503906"/>
     <use xlink:href="#DejaVuSans-6e" x="402.783203"/>
     <use xlink:href="#DejaVuSans-63" x="466.162109"/>
     <use xlink:href="#DejaVuSans-65" x="521.142578"/>
     <use xlink:href="#DejaVuSans-73" x="582.666016"/>
    </g>
   </g>
   <g id="text_18">
    <!-- v2.6, hv-hash=ff0e71e8cd978373 -->
    <g style="fill: #808080" transform="translate(123.707887 293.943992)scale(0.1 -0.1)">
     <defs>
      <path id="DejaVuSans-68" d="M 3513 2113 
L 3513 0 
L 2938 0 
L 2938 2094 
Q 2938 2591 2744 2837 
Q 2550 3084 2163 3084 
Q 1697 3084 1428 2787 
Q 1159 2491 1159 1978 
L 1159 0 
L 581 0 
L 581 4863 
L 1159 4863 
L 1159 2956 
Q 1366 3272 1645 3428 
Q 1925 3584 2291 3584 
Q 2894 3584 3203 3211 
Q 3513 2838 3513 2113 
z
" transform="scale(0.015625)"/>
      <path id="DejaVuSans-3d" d="M 678 2906 
L 4684 2906 
L 4684 2381 
L 678 2381 
L 678 2906 
z
M 678 1631 
L 4684 1631 
L 4684 1100 
L 678 1100 
L 678 1631 
z
" transform="scale(0.015625)"/>
      <path id="DejaVuSans-37" d="M 525 4666 
L 3525 4666 
L 3525 4397 
L 1831 0 
L 1172 0 
L 2766 4134 
L 525 4134 
L 525 4666 
z
" transform="scale(0.015625)"/>
      <path id="DejaVuSans-39" d="M 703 97 
L 703 672 
Q 941 559 1184 500 
Q 1428 441 1663 441 
Q 2288 441 2617 861 
Q 2947 1281 2994 2138 
Q 2813 1869 2534 1725 
Q 2256 1581 1919 1581 
Q 1219 1581 811 2004 
Q 403 2428 403 3163 
Q 403 3881 828 4315 
Q 1253 4750 1959 4750 
Q 2769 4750 3195 4129 
Q 3622 3509 3622 2328 
Q 3622 1225 3098 567 
Q 2575 -91 1691 -91 
Q 1453 -91 1209 -44 
Q 966 3 703 97 
z
M 1959 2075 
Q 2384 2075 2632 2365 
Q 2881 2656 2881 3163 
Q 2881 3666 2632 3958 
Q 2384 4250 1959 4250 
Q 1534 4250 1286 3958 
Q 1038 3666 1038 3163 
Q 1038 2656 1286 2365 
Q 1534 2075 1959 2075 
z
" transform="scale(0.015625)"/>
     </defs>
     <use xlink:href="#DejaVuSans-76"/>
     <use xlink:href="#DejaVuSans-32" x="59.179688"/>
     <use xlink:href="#DejaVuSans-2e" x="122.802734"/>
     <use xlink:href="#DejaVuSans-36" x="154.589844"/>
     <use xlink:href="#DejaVuSans-2c" x="218.212891"/>
     <use xlink:href="#DejaVuSans-20" x="250"/>
     <use xlink:href="#DejaVuSans-68" x="281.787109"/>
     <use xlink:href="#DejaVuSans-76" x="345.166016"/>
     <use xlink:href="#DejaVuSans-2d" x="401.720703"/>
     <use xlink:href="#DejaVuSans-68" x="437.804688"/>
     <use xlink:href="#DejaVuSans-61" x="501.183594"/>
     <use xlink:href="#DejaVuSans-73" x="562.462891"/>
     <use xlink:href="#DejaVuSans-68" x="614.5625"/>
     <use xlink:href="#DejaVuSans-3d" x="677.941406"/>
     <use xlink:href="#DejaVuSans-66" x="761.730469"/>
     <use xlink:href="#DejaVuSans-66" x="796.935547"/>
     <use xlink:href="#DejaVuSans-30" x="832.140625"/>
     <use xlink:href="#DejaVuSans-65" x="895.763672"/>
     <use xlink:href="#DejaVuSans-37" x="957.287109"/>
     <use xlink:href="#DejaVuSans-31" x="1020.910156"/>
     <use xlink:href="#DejaVuSans-65" x="1084.533203"/>
     <use xlink:href="#DejaVuSans-38" x="1146.056641"/>
     <use xlink:href="#DejaVuSans-63" x="1209.679688"/>
     <use xlink:href="#DejaVuSans-64" x="1264.660156"/>
     <use xlink:href="#DejaVuSans-39" x="1328.136719"/>
     <use xlink:href="#DejaVuSans-37" x="1391.759766"/>
     <use xlink:href="#DejaVuSans-38" x="1455.382812"/>
     <use xlink:href="#DejaVuSans-33" x="1519.005859"/>
     <use xlink:href="#DejaVuSans-37" x="1582.628906"/>
     <use xlink:href="#DejaVuSans-33" x="1646.251953"/>
    </g>
   </g>
  </g>
 </g>
 <defs>
  <clipPath id="p5967cea312">
   <rect x="57.6" y="6.912" width="303.2064" height="292.032"/>
  </clipPath>
 </defs>
</svg>
