<?xml version="1.0" encoding="utf-8" standalone="no"?>
<!DOCTYPE svg PUBLIC "-//W3C//DTD SVG 1.1//EN"
  "http://www.w3.org/Graphics/SVG/1.1/DTD/svg11.dtd">
<svg xmlns:xlink="http://www.w3.org/1999/xlink" width="460.8pt" height="345.6pt" viewBox="0 0 460.8 345.6" xmlns="http://www.w3.org/2000/svg" version="1.1">
 <metadata>
  <rdf:RDF xmlns:dc="http://purl.org/dc/elements/1.1/" xmlns:cc="http://creativecommons.org/ns#" xmlns:rdf="http://www.w3.org/1999/02/22-rdf-syntax-ns#">
   <cc:Work>
    <dc:type rdf:resource="http://purl.org/dc/dcmitype/StillImage"/>
    <dc:date>2022-06-19T21:03:01.782238</dc:date>
    <dc:format>image/svg+xml</dc:format>
    <dc:creator>
     <cc:Agent>
      <dc:title>Matplotlib v3.5.1, https://matplotlib.org/</dc:title>
     </cc:Agent>
    </dc:creator>
   </cc:Work>
  </rdf:RDF>
 </metadata>
 <defs>
  <style type="text/css">*{stroke-linejoin: round; stroke-linecap: butt}</style>
 </defs>
 <g id="figure_1">
  <g id="patch_1">
   <path d="M 0 345.6 
L 460.8 345.6 
L 460.8 0 
L 0 0 
z
" style="fill: #ffffff"/>
  </g>
  <g id="axes_1">
   <g id="patch_2">
    <path d="M 57.6 298.944 
L 360.8064 298.944 
L 360.8064 6.912 
L 57.6 6.912 
z
" style="fill: #ffffff"/>
   </g>
   <g id="line2d_1">
    <path d="M 57.6 298.944 
L 57.6 296.426483 
L 70.639174 296.426483 
L 70.639174 295.167724 
L 76.050921 295.167724 
L 76.050921 292.650207 
L 78.266603 292.650207 
L 78.266603 291.391448 
L 83.678349 291.391448 
L 83.678349 286.356414 
L 87.876026 286.356414 
L 87.876026 283.838897 
L 96.717523 283.838897 
L 96.717523 281.321379 
L 98.223251 281.321379 
L 98.223251 280.062621 
L 99.617337 280.062621 
L 99.617337 277.545103 
L 102.708132 277.545103 
L 102.708132 275.027586 
L 105.36204 275.027586 
L 105.36204 272.510069 
L 112.656511 272.510069 
L 112.656511 271.25131 
L 112.989468 271.25131 
L 112.989468 267.475034 
L 117.6436 267.475034 
L 117.6436 266.216276 
L 126.028642 266.216276 
L 126.028642 262.44 
L 126.836129 262.44 
L 126.836129 261.181241 
L 129.348062 261.181241 
L 129.348062 257.404966 
L 142.317949 257.404966 
L 142.317949 254.887448 
L 142.932537 254.887448 
L 142.932537 252.369931 
L 147.607824 252.369931 
L 147.607824 251.111172 
L 150.515122 251.111172 
L 150.515122 247.334897 
L 152.795543 247.334897 
L 152.795543 246.076138 
L 154.541415 246.076138 
L 154.541415 243.558621 
L 160.115564 243.558621 
L 160.115564 241.041103 
L 160.515541 241.041103 
L 160.515541 239.782345 
L 161.592245 239.782345 
L 161.592245 237.264828 
L 164.410013 237.264828 
L 164.410013 233.488552 
L 164.876089 233.488552 
L 164.876089 230.971034 
L 165.814821 230.971034 
L 165.814821 228.453517 
L 167.343504 228.453517 
L 167.343504 224.677241 
L 169.654784 224.677241 
L 169.654784 220.900966 
L 172.814802 220.900966 
L 172.814802 218.383448 
L 173.073712 218.383448 
L 173.073712 217.12469 
L 173.435613 217.12469 
L 173.435613 214.607172 
L 173.581081 214.607172 
L 173.581081 212.089655 
L 175.767465 212.089655 
L 175.767465 209.572138 
L 176.582244 209.572138 
L 176.582244 207.054621 
L 178.329176 207.054621 
L 178.329176 204.537103 
L 178.992827 204.537103 
L 178.992827 202.019586 
L 179.557313 202.019586 
L 179.557313 200.760828 
L 183.987493 200.760828 
L 183.987493 198.24331 
L 185.409698 198.24331 
L 185.409698 195.725793 
L 186.254454 195.725793 
L 186.254454 193.208276 
L 187.191132 193.208276 
L 187.191132 189.432 
L 188.457446 189.432 
L 188.457446 188.173241 
L 190.765164 188.173241 
L 190.765164 184.396966 
L 194.737448 184.396966 
L 194.737448 183.138207 
L 195.545546 183.138207 
L 195.545546 180.62069 
L 196.375337 180.62069 
L 196.375337 179.361931 
L 198.054917 179.361931 
L 198.054917 175.585655 
L 198.455896 175.585655 
L 198.455896 171.809379 
L 205.061293 171.809379 
L 205.061293 169.291862 
L 206.26733 169.291862 
L 206.26733 166.774345 
L 216.9305 166.774345 
L 216.9305 162.998069 
L 218.210121 162.998069 
L 218.210121 161.73931 
L 220.129605 161.73931 
L 220.129605 159.221793 
L 221.421995 159.221793 
L 221.421995 157.963034 
L 224.613949 157.963034 
L 224.613949 154.186759 
L 224.875207 154.186759 
L 224.875207 152.928 
L 227.960777 152.928 
L 227.960777 149.151724 
L 229.048733 149.151724 
L 229.048733 146.634207 
L 229.688821 146.634207 
L 229.688821 145.375448 
L 230.600664 145.375448 
L 230.600664 141.599172 
L 230.826281 141.599172 
L 230.826281 140.340414 
L 231.808455 140.340414 
L 231.808455 136.564138 
L 232.314942 136.564138 
L 232.314942 132.787862 
L 232.613787 132.787862 
L 232.613787 130.270345 
L 233.429864 130.270345 
L 233.429864 127.752828 
L 234.084591 127.752828 
L 234.084591 126.494069 
L 234.678944 126.494069 
L 234.678944 125.23531 
L 236.03592 125.23531 
L 236.082534 117.682759 
L 237.906191 117.682759 
L 237.906191 116.424 
L 239.710134 116.424 
L 239.710134 115.165241 
L 240.583129 115.165241 
L 240.583129 111.388966 
L 243.16305 111.388966 
L 243.16305 107.61269 
L 244.776841 107.61269 
L 244.776841 105.095172 
L 246.824764 105.095172 
L 246.824764 103.836414 
L 247.131952 103.836414 
L 247.131952 102.577655 
L 247.938461 102.577655 
L 247.938461 100.060138 
L 249.733279 100.060138 
L 249.733279 96.283862 
L 250.729843 96.283862 
L 250.729843 93.766345 
L 251.332005 93.766345 
L 251.332005 89.990069 
L 253.24074 89.990069 
L 253.24074 88.73131 
L 254.021377 88.73131 
L 254.099384 82.437517 
L 256.034376 82.437517 
L 256.034376 79.92 
L 258.992352 79.92 
L 258.992352 77.402483 
L 260.072251 77.402483 
L 260.072251 76.143724 
L 262.745762 76.143724 
L 262.745762 74.884966 
L 263.424827 74.884966 
L 263.424827 73.626207 
L 267.051213 73.626207 
L 267.051213 71.10869 
L 267.419123 71.10869 
L 267.419123 68.591172 
L 268.045731 68.591172 
L 268.045731 66.073655 
L 268.725755 66.073655 
L 268.725755 63.556138 
L 271.449072 63.556138 
L 271.449072 62.297379 
L 272.013386 62.297379 
L 272.013386 58.521103 
L 272.423494 58.521103 
L 272.423494 54.744828 
L 273.78802 54.744828 
L 273.78802 52.22731 
L 276.83162 52.22731 
L 276.83162 48.451034 
L 284.857294 48.451034 
L 284.857294 45.933517 
L 287.115019 45.933517 
L 287.115019 42.157241 
L 360.8064 42.157241 
L 360.8064 42.157241 
" style="fill: none; stroke: #f5deb3; stroke-width: 4; stroke-linecap: square"/>
   </g>
   <g id="line2d_2">
    <defs>
     <path id="mb5effd5f28" d="M 0 7.778175 
L 7.778175 0 
L 0 -7.778175 
L -7.778175 0 
z
" style="stroke: #f5deb3; stroke-width: 1.5; stroke-linejoin: miter"/>
    </defs>
    <g>
     <use xlink:href="#mb5effd5f28" x="161.592245" y="239.782345" style="fill: #f5deb3; stroke: #f5deb3; stroke-width: 1.5; stroke-linejoin: miter"/>
     <use xlink:href="#mb5effd5f28" x="224.875207" y="152.928" style="fill: #f5deb3; stroke: #f5deb3; stroke-width: 1.5; stroke-linejoin: miter"/>
     <use xlink:href="#mb5effd5f28" x="267.051213" y="73.626207" style="fill: #f5deb3; stroke: #f5deb3; stroke-width: 1.5; stroke-linejoin: miter"/>
     <use xlink:href="#mb5effd5f28" x="287.115019" y="42.157241" style="fill: #f5deb3; stroke: #f5deb3; stroke-width: 1.5; stroke-linejoin: miter"/>
     <use xlink:href="#mb5effd5f28" x="360.8064" y="42.157241" style="fill: #f5deb3; stroke: #f5deb3; stroke-width: 1.5; stroke-linejoin: miter"/>
    </g>
   </g>
   <g id="line2d_3">
    <path style="fill: none; stroke: #f5deb3; stroke-width: 4; stroke-linecap: square"/>
    <g/>
   </g>
   <g id="line2d_4">
    <path d="M 360.8064 42.157241 
L 380.514816 12.75264 
" style="fill: none; stroke: #f5deb3; stroke-width: 4; stroke-linecap: square"/>
    <g>
     <use xlink:href="#mb5effd5f28" x="360.8064" y="42.157241" style="fill: #f5deb3; stroke: #f5deb3; stroke-width: 1.5; stroke-linejoin: miter"/>
     <use xlink:href="#mb5effd5f28" x="380.514816" y="12.75264" style="fill: #f5deb3; stroke: #f5deb3; stroke-width: 1.5; stroke-linejoin: miter"/>
    </g>
   </g>
   <g id="matplotlib.axis_1">
    <g id="xtick_1">
     <g id="line2d_5">
      <path d="M 57.6 298.944 
L 57.6 6.912 
" clip-path="url(#p3191f77fb7)" style="fill: none; stroke: #b0b0b0; stroke-width: 0.8; stroke-linecap: square"/>
     </g>
     <g id="line2d_6">
      <defs>
       <path id="ma954f40a42" d="M 0 0 
L 0 3.5 
" style="stroke: #000000; stroke-width: 0.8"/>
      </defs>
      <g>
       <use xlink:href="#ma954f40a42" x="57.6" y="298.944" style="stroke: #000000; stroke-width: 0.8"/>
      </g>
     </g>
     <g id="text_1">
      <!-- 0 -->
      <g transform="translate(52.191875 318.861344)scale(0.17 -0.17)">
       <defs>
        <path id="DejaVuSans-30" d="M 2034 4250 
Q 1547 4250 1301 3770 
Q 1056 3291 1056 2328 
Q 1056 1369 1301 889 
Q 1547 409 2034 409 
Q 2525 409 2770 889 
Q 3016 1369 3016 2328 
Q 3016 3291 2770 3770 
Q 2525 4250 2034 4250 
z
M 2034 4750 
Q 2819 4750 3233 4129 
Q 3647 3509 3647 2328 
Q 3647 1150 3233 529 
Q 2819 -91 2034 -91 
Q 1250 -91 836 529 
Q 422 1150 422 2328 
Q 422 3509 836 4129 
Q 1250 4750 2034 4750 
z
" transform="scale(0.015625)"/>
       </defs>
       <use xlink:href="#DejaVuSans-30"/>
      </g>
     </g>
    </g>
    <g id="xtick_2">
     <g id="line2d_7">
      <path d="M 144.2304 298.944 
L 144.2304 6.912 
" clip-path="url(#p3191f77fb7)" style="fill: none; stroke: #b0b0b0; stroke-width: 0.8; stroke-linecap: square"/>
     </g>
     <g id="line2d_8">
      <g>
       <use xlink:href="#ma954f40a42" x="144.2304" y="298.944" style="stroke: #000000; stroke-width: 0.8"/>
      </g>
     </g>
     <g id="text_2">
      <!-- 2 -->
      <g transform="translate(138.822275 318.861344)scale(0.17 -0.17)">
       <defs>
        <path id="DejaVuSans-32" d="M 1228 531 
L 3431 531 
L 3431 0 
L 469 0 
L 469 531 
Q 828 903 1448 1529 
Q 2069 2156 2228 2338 
Q 2531 2678 2651 2914 
Q 2772 3150 2772 3378 
Q 2772 3750 2511 3984 
Q 2250 4219 1831 4219 
Q 1534 4219 1204 4116 
Q 875 4013 500 3803 
L 500 4441 
Q 881 4594 1212 4672 
Q 1544 4750 1819 4750 
Q 2544 4750 2975 4387 
Q 3406 4025 3406 3419 
Q 3406 3131 3298 2873 
Q 3191 2616 2906 2266 
Q 2828 2175 2409 1742 
Q 1991 1309 1228 531 
z
" transform="scale(0.015625)"/>
       </defs>
       <use xlink:href="#DejaVuSans-32"/>
      </g>
     </g>
    </g>
    <g id="xtick_3">
     <g id="line2d_9">
      <path d="M 230.8608 298.944 
L 230.8608 6.912 
" clip-path="url(#p3191f77fb7)" style="fill: none; stroke: #b0b0b0; stroke-width: 0.8; stroke-linecap: square"/>
     </g>
     <g id="line2d_10">
      <g>
       <use xlink:href="#ma954f40a42" x="230.8608" y="298.944" style="stroke: #000000; stroke-width: 0.8"/>
      </g>
     </g>
     <g id="text_3">
      <!-- 4 -->
      <g transform="translate(225.452675 318.861344)scale(0.17 -0.17)">
       <defs>
        <path id="DejaVuSans-34" d="M 2419 4116 
L 825 1625 
L 2419 1625 
L 2419 4116 
z
M 2253 4666 
L 3047 4666 
L 3047 1625 
L 3713 1625 
L 3713 1100 
L 3047 1100 
L 3047 0 
L 2419 0 
L 2419 1100 
L 313 1100 
L 313 1709 
L 2253 4666 
z
" transform="scale(0.015625)"/>
       </defs>
       <use xlink:href="#DejaVuSans-34"/>
      </g>
     </g>
    </g>
    <g id="xtick_4">
     <g id="line2d_11">
      <path d="M 317.4912 298.944 
L 317.4912 6.912 
" clip-path="url(#p3191f77fb7)" style="fill: none; stroke: #b0b0b0; stroke-width: 0.8; stroke-linecap: square"/>
     </g>
     <g id="line2d_12">
      <g>
       <use xlink:href="#ma954f40a42" x="317.4912" y="298.944" style="stroke: #000000; stroke-width: 0.8"/>
      </g>
     </g>
     <g id="text_4">
      <!-- 6 -->
      <g transform="translate(312.083075 318.861344)scale(0.17 -0.17)">
       <defs>
        <path id="DejaVuSans-36" d="M 2113 2584 
Q 1688 2584 1439 2293 
Q 1191 2003 1191 1497 
Q 1191 994 1439 701 
Q 1688 409 2113 409 
Q 2538 409 2786 701 
Q 3034 994 3034 1497 
Q 3034 2003 2786 2293 
Q 2538 2584 2113 2584 
z
M 3366 4563 
L 3366 3988 
Q 3128 4100 2886 4159 
Q 2644 4219 2406 4219 
Q 1781 4219 1451 3797 
Q 1122 3375 1075 2522 
Q 1259 2794 1537 2939 
Q 1816 3084 2150 3084 
Q 2853 3084 3261 2657 
Q 3669 2231 3669 1497 
Q 3669 778 3244 343 
Q 2819 -91 2113 -91 
Q 1303 -91 875 529 
Q 447 1150 447 2328 
Q 447 3434 972 4092 
Q 1497 4750 2381 4750 
Q 2619 4750 2861 4703 
Q 3103 4656 3366 4563 
z
" transform="scale(0.015625)"/>
       </defs>
       <use xlink:href="#DejaVuSans-36"/>
      </g>
     </g>
    </g>
    <g id="xtick_5">
     <g id="line2d_13">
      <path d="M 100.9152 298.944 
L 100.9152 6.912 
" clip-path="url(#p3191f77fb7)" style="fill: none; stroke: #b0b0b0; stroke-width: 0.8; stroke-linecap: square"/>
     </g>
     <g id="line2d_14">
      <defs>
       <path id="meffb8b7476" d="M 0 0 
L 0 2 
" style="stroke: #000000; stroke-width: 0.6"/>
      </defs>
      <g>
       <use xlink:href="#meffb8b7476" x="100.9152" y="298.944" style="stroke: #000000; stroke-width: 0.6"/>
      </g>
     </g>
    </g>
    <g id="xtick_6">
     <g id="line2d_15">
      <path d="M 187.5456 298.944 
L 187.5456 6.912 
" clip-path="url(#p3191f77fb7)" style="fill: none; stroke: #b0b0b0; stroke-width: 0.8; stroke-linecap: square"/>
     </g>
     <g id="line2d_16">
      <g>
       <use xlink:href="#meffb8b7476" x="187.5456" y="298.944" style="stroke: #000000; stroke-width: 0.6"/>
      </g>
     </g>
    </g>
    <g id="xtick_7">
     <g id="line2d_17">
      <path d="M 274.176 298.944 
L 274.176 6.912 
" clip-path="url(#p3191f77fb7)" style="fill: none; stroke: #b0b0b0; stroke-width: 0.8; stroke-linecap: square"/>
     </g>
     <g id="line2d_18">
      <g>
       <use xlink:href="#meffb8b7476" x="274.176" y="298.944" style="stroke: #000000; stroke-width: 0.6"/>
      </g>
     </g>
    </g>
    <g id="xtick_8">
     <g id="line2d_19">
      <path d="M 360.8064 298.944 
L 360.8064 6.912 
" clip-path="url(#p3191f77fb7)" style="fill: none; stroke: #b0b0b0; stroke-width: 0.8; stroke-linecap: square"/>
     </g>
     <g id="line2d_20">
      <g>
       <use xlink:href="#meffb8b7476" x="360.8064" y="298.944" style="stroke: #000000; stroke-width: 0.6"/>
      </g>
     </g>
    </g>
    <g id="text_5">
     <!-- log10(# f-evals / dimension) -->
     <g transform="translate(88.823278 339.314156)scale(0.17 -0.17)">
      <defs>
       <path id="DejaVuSans-6c" d="M 603 4863 
L 1178 4863 
L 1178 0 
L 603 0 
L 603 4863 
z
" transform="scale(0.015625)"/>
       <path id="DejaVuSans-6f" d="M 1959 3097 
Q 1497 3097 1228 2736 
Q 959 2375 959 1747 
Q 959 1119 1226 758 
Q 1494 397 1959 397 
Q 2419 397 2687 759 
Q 2956 1122 2956 1747 
Q 2956 2369 2687 2733 
Q 2419 3097 1959 3097 
z
M 1959 3584 
Q 2709 3584 3137 3096 
Q 3566 2609 3566 1747 
Q 3566 888 3137 398 
Q 2709 -91 1959 -91 
Q 1206 -91 779 398 
Q 353 888 353 1747 
Q 353 2609 779 3096 
Q 1206 3584 1959 3584 
z
" transform="scale(0.015625)"/>
       <path id="DejaVuSans-67" d="M 2906 1791 
Q 2906 2416 2648 2759 
Q 2391 3103 1925 3103 
Q 1463 3103 1205 2759 
Q 947 2416 947 1791 
Q 947 1169 1205 825 
Q 1463 481 1925 481 
Q 2391 481 2648 825 
Q 2906 1169 2906 1791 
z
M 3481 434 
Q 3481 -459 3084 -895 
Q 2688 -1331 1869 -1331 
Q 1566 -1331 1297 -1286 
Q 1028 -1241 775 -1147 
L 775 -588 
Q 1028 -725 1275 -790 
Q 1522 -856 1778 -856 
Q 2344 -856 2625 -561 
Q 2906 -266 2906 331 
L 2906 616 
Q 2728 306 2450 153 
Q 2172 0 1784 0 
Q 1141 0 747 490 
Q 353 981 353 1791 
Q 353 2603 747 3093 
Q 1141 3584 1784 3584 
Q 2172 3584 2450 3431 
Q 2728 3278 2906 2969 
L 2906 3500 
L 3481 3500 
L 3481 434 
z
" transform="scale(0.015625)"/>
       <path id="DejaVuSans-31" d="M 794 531 
L 1825 531 
L 1825 4091 
L 703 3866 
L 703 4441 
L 1819 4666 
L 2450 4666 
L 2450 531 
L 3481 531 
L 3481 0 
L 794 0 
L 794 531 
z
" transform="scale(0.015625)"/>
       <path id="DejaVuSans-28" d="M 1984 4856 
Q 1566 4138 1362 3434 
Q 1159 2731 1159 2009 
Q 1159 1288 1364 580 
Q 1569 -128 1984 -844 
L 1484 -844 
Q 1016 -109 783 600 
Q 550 1309 550 2009 
Q 550 2706 781 3412 
Q 1013 4119 1484 4856 
L 1984 4856 
z
" transform="scale(0.015625)"/>
       <path id="DejaVuSans-23" d="M 3272 2816 
L 2363 2816 
L 2100 1772 
L 3016 1772 
L 3272 2816 
z
M 2803 4594 
L 2478 3297 
L 3391 3297 
L 3719 4594 
L 4219 4594 
L 3897 3297 
L 4872 3297 
L 4872 2816 
L 3775 2816 
L 3519 1772 
L 4513 1772 
L 4513 1294 
L 3397 1294 
L 3072 0 
L 2572 0 
L 2894 1294 
L 1978 1294 
L 1656 0 
L 1153 0 
L 1478 1294 
L 494 1294 
L 494 1772 
L 1594 1772 
L 1856 2816 
L 850 2816 
L 850 3297 
L 1978 3297 
L 2297 4594 
L 2803 4594 
z
" transform="scale(0.015625)"/>
       <path id="DejaVuSans-20" transform="scale(0.015625)"/>
       <path id="DejaVuSans-66" d="M 2375 4863 
L 2375 4384 
L 1825 4384 
Q 1516 4384 1395 4259 
Q 1275 4134 1275 3809 
L 1275 3500 
L 2222 3500 
L 2222 3053 
L 1275 3053 
L 1275 0 
L 697 0 
L 697 3053 
L 147 3053 
L 147 3500 
L 697 3500 
L 697 3744 
Q 697 4328 969 4595 
Q 1241 4863 1831 4863 
L 2375 4863 
z
" transform="scale(0.015625)"/>
       <path id="DejaVuSans-2d" d="M 313 2009 
L 1997 2009 
L 1997 1497 
L 313 1497 
L 313 2009 
z
" transform="scale(0.015625)"/>
       <path id="DejaVuSans-65" d="M 3597 1894 
L 3597 1613 
L 953 1613 
Q 991 1019 1311 708 
Q 1631 397 2203 397 
Q 2534 397 2845 478 
Q 3156 559 3463 722 
L 3463 178 
Q 3153 47 2828 -22 
Q 2503 -91 2169 -91 
Q 1331 -91 842 396 
Q 353 884 353 1716 
Q 353 2575 817 3079 
Q 1281 3584 2069 3584 
Q 2775 3584 3186 3129 
Q 3597 2675 3597 1894 
z
M 3022 2063 
Q 3016 2534 2758 2815 
Q 2500 3097 2075 3097 
Q 1594 3097 1305 2825 
Q 1016 2553 972 2059 
L 3022 2063 
z
" transform="scale(0.015625)"/>
       <path id="DejaVuSans-76" d="M 191 3500 
L 800 3500 
L 1894 563 
L 2988 3500 
L 3597 3500 
L 2284 0 
L 1503 0 
L 191 3500 
z
" transform="scale(0.015625)"/>
       <path id="DejaVuSans-61" d="M 2194 1759 
Q 1497 1759 1228 1600 
Q 959 1441 959 1056 
Q 959 750 1161 570 
Q 1363 391 1709 391 
Q 2188 391 2477 730 
Q 2766 1069 2766 1631 
L 2766 1759 
L 2194 1759 
z
M 3341 1997 
L 3341 0 
L 2766 0 
L 2766 531 
Q 2569 213 2275 61 
Q 1981 -91 1556 -91 
Q 1019 -91 701 211 
Q 384 513 384 1019 
Q 384 1609 779 1909 
Q 1175 2209 1959 2209 
L 2766 2209 
L 2766 2266 
Q 2766 2663 2505 2880 
Q 2244 3097 1772 3097 
Q 1472 3097 1187 3025 
Q 903 2953 641 2809 
L 641 3341 
Q 956 3463 1253 3523 
Q 1550 3584 1831 3584 
Q 2591 3584 2966 3190 
Q 3341 2797 3341 1997 
z
" transform="scale(0.015625)"/>
       <path id="DejaVuSans-73" d="M 2834 3397 
L 2834 2853 
Q 2591 2978 2328 3040 
Q 2066 3103 1784 3103 
Q 1356 3103 1142 2972 
Q 928 2841 928 2578 
Q 928 2378 1081 2264 
Q 1234 2150 1697 2047 
L 1894 2003 
Q 2506 1872 2764 1633 
Q 3022 1394 3022 966 
Q 3022 478 2636 193 
Q 2250 -91 1575 -91 
Q 1294 -91 989 -36 
Q 684 19 347 128 
L 347 722 
Q 666 556 975 473 
Q 1284 391 1588 391 
Q 1994 391 2212 530 
Q 2431 669 2431 922 
Q 2431 1156 2273 1281 
Q 2116 1406 1581 1522 
L 1381 1569 
Q 847 1681 609 1914 
Q 372 2147 372 2553 
Q 372 3047 722 3315 
Q 1072 3584 1716 3584 
Q 2034 3584 2315 3537 
Q 2597 3491 2834 3397 
z
" transform="scale(0.015625)"/>
       <path id="DejaVuSans-2f" d="M 1625 4666 
L 2156 4666 
L 531 -594 
L 0 -594 
L 1625 4666 
z
" transform="scale(0.015625)"/>
       <path id="DejaVuSans-64" d="M 2906 2969 
L 2906 4863 
L 3481 4863 
L 3481 0 
L 2906 0 
L 2906 525 
Q 2725 213 2448 61 
Q 2172 -91 1784 -91 
Q 1150 -91 751 415 
Q 353 922 353 1747 
Q 353 2572 751 3078 
Q 1150 3584 1784 3584 
Q 2172 3584 2448 3432 
Q 2725 3281 2906 2969 
z
M 947 1747 
Q 947 1113 1208 752 
Q 1469 391 1925 391 
Q 2381 391 2643 752 
Q 2906 1113 2906 1747 
Q 2906 2381 2643 2742 
Q 2381 3103 1925 3103 
Q 1469 3103 1208 2742 
Q 947 2381 947 1747 
z
" transform="scale(0.015625)"/>
       <path id="DejaVuSans-69" d="M 603 3500 
L 1178 3500 
L 1178 0 
L 603 0 
L 603 3500 
z
M 603 4863 
L 1178 4863 
L 1178 4134 
L 603 4134 
L 603 4863 
z
" transform="scale(0.015625)"/>
       <path id="DejaVuSans-6d" d="M 3328 2828 
Q 3544 3216 3844 3400 
Q 4144 3584 4550 3584 
Q 5097 3584 5394 3201 
Q 5691 2819 5691 2113 
L 5691 0 
L 5113 0 
L 5113 2094 
Q 5113 2597 4934 2840 
Q 4756 3084 4391 3084 
Q 3944 3084 3684 2787 
Q 3425 2491 3425 1978 
L 3425 0 
L 2847 0 
L 2847 2094 
Q 2847 2600 2669 2842 
Q 2491 3084 2119 3084 
Q 1678 3084 1418 2786 
Q 1159 2488 1159 1978 
L 1159 0 
L 581 0 
L 581 3500 
L 1159 3500 
L 1159 2956 
Q 1356 3278 1631 3431 
Q 1906 3584 2284 3584 
Q 2666 3584 2933 3390 
Q 3200 3197 3328 2828 
z
" transform="scale(0.015625)"/>
       <path id="DejaVuSans-6e" d="M 3513 2113 
L 3513 0 
L 2938 0 
L 2938 2094 
Q 2938 2591 2744 2837 
Q 2550 3084 2163 3084 
Q 1697 3084 1428 2787 
Q 1159 2491 1159 1978 
L 1159 0 
L 581 0 
L 581 3500 
L 1159 3500 
L 1159 2956 
Q 1366 3272 1645 3428 
Q 1925 3584 2291 3584 
Q 2894 3584 3203 3211 
Q 3513 2838 3513 2113 
z
" transform="scale(0.015625)"/>
       <path id="DejaVuSans-29" d="M 513 4856 
L 1013 4856 
Q 1481 4119 1714 3412 
Q 1947 2706 1947 2009 
Q 1947 1309 1714 600 
Q 1481 -109 1013 -844 
L 513 -844 
Q 928 -128 1133 580 
Q 1338 1288 1338 2009 
Q 1338 2731 1133 3434 
Q 928 4138 513 4856 
z
" transform="scale(0.015625)"/>
      </defs>
      <use xlink:href="#DejaVuSans-6c"/>
      <use xlink:href="#DejaVuSans-6f" x="27.783203"/>
      <use xlink:href="#DejaVuSans-67" x="88.964844"/>
      <use xlink:href="#DejaVuSans-31" x="152.441406"/>
      <use xlink:href="#DejaVuSans-30" x="216.064453"/>
      <use xlink:href="#DejaVuSans-28" x="279.6875"/>
      <use xlink:href="#DejaVuSans-23" x="318.701172"/>
      <use xlink:href="#DejaVuSans-20" x="402.490234"/>
      <use xlink:href="#DejaVuSans-66" x="434.277344"/>
      <use xlink:href="#DejaVuSans-2d" x="463.982422"/>
      <use xlink:href="#DejaVuSans-65" x="500.066406"/>
      <use xlink:href="#DejaVuSans-76" x="561.589844"/>
      <use xlink:href="#DejaVuSans-61" x="620.769531"/>
      <use xlink:href="#DejaVuSans-6c" x="682.048828"/>
      <use xlink:href="#DejaVuSans-73" x="709.832031"/>
      <use xlink:href="#DejaVuSans-20" x="761.931641"/>
      <use xlink:href="#DejaVuSans-2f" x="793.71875"/>
      <use xlink:href="#DejaVuSans-20" x="827.410156"/>
      <use xlink:href="#DejaVuSans-64" x="859.197266"/>
      <use xlink:href="#DejaVuSans-69" x="922.673828"/>
      <use xlink:href="#DejaVuSans-6d" x="950.457031"/>
      <use xlink:href="#DejaVuSans-65" x="1047.869141"/>
      <use xlink:href="#DejaVuSans-6e" x="1109.392578"/>
      <use xlink:href="#DejaVuSans-73" x="1172.771484"/>
      <use xlink:href="#DejaVuSans-69" x="1224.871094"/>
      <use xlink:href="#DejaVuSans-6f" x="1252.654297"/>
      <use xlink:href="#DejaVuSans-6e" x="1313.835938"/>
      <use xlink:href="#DejaVuSans-29" x="1377.214844"/>
     </g>
    </g>
   </g>
   <g id="matplotlib.axis_2">
    <g id="ytick_1">
     <g id="line2d_21">
      <path d="M 57.6 298.944 
L 360.8064 298.944 
" clip-path="url(#p3191f77fb7)" style="fill: none; stroke: #b0b0b0; stroke-width: 0.8; stroke-linecap: square"/>
     </g>
     <g id="line2d_22">
      <defs>
       <path id="m45275413d7" d="M 0 0 
L -3.5 0 
" style="stroke: #000000; stroke-width: 0.8"/>
      </defs>
      <g>
       <use xlink:href="#m45275413d7" x="57.6" y="298.944" style="stroke: #000000; stroke-width: 0.8"/>
      </g>
     </g>
     <g id="text_6">
      <!-- 0.0 -->
      <g transform="translate(25.155 305.02275)scale(0.16 -0.16)">
       <defs>
        <path id="DejaVuSans-2e" d="M 684 794 
L 1344 794 
L 1344 0 
L 684 0 
L 684 794 
z
" transform="scale(0.015625)"/>
       </defs>
       <use xlink:href="#DejaVuSans-30"/>
       <use xlink:href="#DejaVuSans-2e" x="63.623047"/>
       <use xlink:href="#DejaVuSans-30" x="95.410156"/>
      </g>
     </g>
    </g>
    <g id="ytick_2">
     <g id="line2d_23">
      <path d="M 57.6 240.5376 
L 360.8064 240.5376 
" clip-path="url(#p3191f77fb7)" style="fill: none; stroke: #b0b0b0; stroke-width: 0.8; stroke-linecap: square"/>
     </g>
     <g id="line2d_24">
      <g>
       <use xlink:href="#m45275413d7" x="57.6" y="240.5376" style="stroke: #000000; stroke-width: 0.8"/>
      </g>
     </g>
     <g id="text_7">
      <!-- 0.2 -->
      <g transform="translate(25.155 246.61635)scale(0.16 -0.16)">
       <use xlink:href="#DejaVuSans-30"/>
       <use xlink:href="#DejaVuSans-2e" x="63.623047"/>
       <use xlink:href="#DejaVuSans-32" x="95.410156"/>
      </g>
     </g>
    </g>
    <g id="ytick_3">
     <g id="line2d_25">
      <path d="M 57.6 182.1312 
L 360.8064 182.1312 
" clip-path="url(#p3191f77fb7)" style="fill: none; stroke: #b0b0b0; stroke-width: 0.8; stroke-linecap: square"/>
     </g>
     <g id="line2d_26">
      <g>
       <use xlink:href="#m45275413d7" x="57.6" y="182.1312" style="stroke: #000000; stroke-width: 0.8"/>
      </g>
     </g>
     <g id="text_8">
      <!-- 0.4 -->
      <g transform="translate(25.155 188.20995)scale(0.16 -0.16)">
       <use xlink:href="#DejaVuSans-30"/>
       <use xlink:href="#DejaVuSans-2e" x="63.623047"/>
       <use xlink:href="#DejaVuSans-34" x="95.410156"/>
      </g>
     </g>
    </g>
    <g id="ytick_4">
     <g id="line2d_27">
      <path d="M 57.6 123.7248 
L 360.8064 123.7248 
" clip-path="url(#p3191f77fb7)" style="fill: none; stroke: #b0b0b0; stroke-width: 0.8; stroke-linecap: square"/>
     </g>
     <g id="line2d_28">
      <g>
       <use xlink:href="#m45275413d7" x="57.6" y="123.7248" style="stroke: #000000; stroke-width: 0.8"/>
      </g>
     </g>
     <g id="text_9">
      <!-- 0.6 -->
      <g transform="translate(25.155 129.80355)scale(0.16 -0.16)">
       <use xlink:href="#DejaVuSans-30"/>
       <use xlink:href="#DejaVuSans-2e" x="63.623047"/>
       <use xlink:href="#DejaVuSans-36" x="95.410156"/>
      </g>
     </g>
    </g>
    <g id="ytick_5">
     <g id="line2d_29">
      <path d="M 57.6 65.3184 
L 360.8064 65.3184 
" clip-path="url(#p3191f77fb7)" style="fill: none; stroke: #b0b0b0; stroke-width: 0.8; stroke-linecap: square"/>
     </g>
     <g id="line2d_30">
      <g>
       <use xlink:href="#m45275413d7" x="57.6" y="65.3184" style="stroke: #000000; stroke-width: 0.8"/>
      </g>
     </g>
     <g id="text_10">
      <!-- 0.8 -->
      <g transform="translate(25.155 71.39715)scale(0.16 -0.16)">
       <defs>
        <path id="DejaVuSans-38" d="M 2034 2216 
Q 1584 2216 1326 1975 
Q 1069 1734 1069 1313 
Q 1069 891 1326 650 
Q 1584 409 2034 409 
Q 2484 409 2743 651 
Q 3003 894 3003 1313 
Q 3003 1734 2745 1975 
Q 2488 2216 2034 2216 
z
M 1403 2484 
Q 997 2584 770 2862 
Q 544 3141 544 3541 
Q 544 4100 942 4425 
Q 1341 4750 2034 4750 
Q 2731 4750 3128 4425 
Q 3525 4100 3525 3541 
Q 3525 3141 3298 2862 
Q 3072 2584 2669 2484 
Q 3125 2378 3379 2068 
Q 3634 1759 3634 1313 
Q 3634 634 3220 271 
Q 2806 -91 2034 -91 
Q 1263 -91 848 271 
Q 434 634 434 1313 
Q 434 1759 690 2068 
Q 947 2378 1403 2484 
z
M 1172 3481 
Q 1172 3119 1398 2916 
Q 1625 2713 2034 2713 
Q 2441 2713 2670 2916 
Q 2900 3119 2900 3481 
Q 2900 3844 2670 4047 
Q 2441 4250 2034 4250 
Q 1625 4250 1398 4047 
Q 1172 3844 1172 3481 
z
" transform="scale(0.015625)"/>
       </defs>
       <use xlink:href="#DejaVuSans-30"/>
       <use xlink:href="#DejaVuSans-2e" x="63.623047"/>
       <use xlink:href="#DejaVuSans-38" x="95.410156"/>
      </g>
     </g>
    </g>
    <g id="ytick_6">
     <g id="line2d_31">
      <path d="M 57.6 6.912 
L 360.8064 6.912 
" clip-path="url(#p3191f77fb7)" style="fill: none; stroke: #b0b0b0; stroke-width: 0.8; stroke-linecap: square"/>
     </g>
     <g id="line2d_32">
      <g>
       <use xlink:href="#m45275413d7" x="57.6" y="6.912" style="stroke: #000000; stroke-width: 0.8"/>
      </g>
     </g>
     <g id="text_11">
      <!-- 1.0 -->
      <g transform="translate(25.155 12.99075)scale(0.16 -0.16)">
       <use xlink:href="#DejaVuSans-31"/>
       <use xlink:href="#DejaVuSans-2e" x="63.623047"/>
       <use xlink:href="#DejaVuSans-30" x="95.410156"/>
      </g>
     </g>
    </g>
    <g id="text_12">
     <!-- Fraction of function,target pairs -->
     <g transform="translate(17.619531 287.313)rotate(-90)scale(0.17 -0.17)">
      <defs>
       <path id="DejaVuSans-46" d="M 628 4666 
L 3309 4666 
L 3309 4134 
L 1259 4134 
L 1259 2759 
L 3109 2759 
L 3109 2228 
L 1259 2228 
L 1259 0 
L 628 0 
L 628 4666 
z
" transform="scale(0.015625)"/>
       <path id="DejaVuSans-72" d="M 2631 2963 
Q 2534 3019 2420 3045 
Q 2306 3072 2169 3072 
Q 1681 3072 1420 2755 
Q 1159 2438 1159 1844 
L 1159 0 
L 581 0 
L 581 3500 
L 1159 3500 
L 1159 2956 
Q 1341 3275 1631 3429 
Q 1922 3584 2338 3584 
Q 2397 3584 2469 3576 
Q 2541 3569 2628 3553 
L 2631 2963 
z
" transform="scale(0.015625)"/>
       <path id="DejaVuSans-63" d="M 3122 3366 
L 3122 2828 
Q 2878 2963 2633 3030 
Q 2388 3097 2138 3097 
Q 1578 3097 1268 2742 
Q 959 2388 959 1747 
Q 959 1106 1268 751 
Q 1578 397 2138 397 
Q 2388 397 2633 464 
Q 2878 531 3122 666 
L 3122 134 
Q 2881 22 2623 -34 
Q 2366 -91 2075 -91 
Q 1284 -91 818 406 
Q 353 903 353 1747 
Q 353 2603 823 3093 
Q 1294 3584 2113 3584 
Q 2378 3584 2631 3529 
Q 2884 3475 3122 3366 
z
" transform="scale(0.015625)"/>
       <path id="DejaVuSans-74" d="M 1172 4494 
L 1172 3500 
L 2356 3500 
L 2356 3053 
L 1172 3053 
L 1172 1153 
Q 1172 725 1289 603 
Q 1406 481 1766 481 
L 2356 481 
L 2356 0 
L 1766 0 
Q 1100 0 847 248 
Q 594 497 594 1153 
L 594 3053 
L 172 3053 
L 172 3500 
L 594 3500 
L 594 4494 
L 1172 4494 
z
" transform="scale(0.015625)"/>
       <path id="DejaVuSans-75" d="M 544 1381 
L 544 3500 
L 1119 3500 
L 1119 1403 
Q 1119 906 1312 657 
Q 1506 409 1894 409 
Q 2359 409 2629 706 
Q 2900 1003 2900 1516 
L 2900 3500 
L 3475 3500 
L 3475 0 
L 2900 0 
L 2900 538 
Q 2691 219 2414 64 
Q 2138 -91 1772 -91 
Q 1169 -91 856 284 
Q 544 659 544 1381 
z
M 1991 3584 
L 1991 3584 
z
" transform="scale(0.015625)"/>
       <path id="DejaVuSans-2c" d="M 750 794 
L 1409 794 
L 1409 256 
L 897 -744 
L 494 -744 
L 750 256 
L 750 794 
z
" transform="scale(0.015625)"/>
       <path id="DejaVuSans-70" d="M 1159 525 
L 1159 -1331 
L 581 -1331 
L 581 3500 
L 1159 3500 
L 1159 2969 
Q 1341 3281 1617 3432 
Q 1894 3584 2278 3584 
Q 2916 3584 3314 3078 
Q 3713 2572 3713 1747 
Q 3713 922 3314 415 
Q 2916 -91 2278 -91 
Q 1894 -91 1617 61 
Q 1341 213 1159 525 
z
M 3116 1747 
Q 3116 2381 2855 2742 
Q 2594 3103 2138 3103 
Q 1681 3103 1420 2742 
Q 1159 2381 1159 1747 
Q 1159 1113 1420 752 
Q 1681 391 2138 391 
Q 2594 391 2855 752 
Q 3116 1113 3116 1747 
z
" transform="scale(0.015625)"/>
      </defs>
      <use xlink:href="#DejaVuSans-46"/>
      <use xlink:href="#DejaVuSans-72" x="50.269531"/>
      <use xlink:href="#DejaVuSans-61" x="91.382812"/>
      <use xlink:href="#DejaVuSans-63" x="152.662109"/>
      <use xlink:href="#DejaVuSans-74" x="207.642578"/>
      <use xlink:href="#DejaVuSans-69" x="246.851562"/>
      <use xlink:href="#DejaVuSans-6f" x="274.634766"/>
      <use xlink:href="#DejaVuSans-6e" x="335.816406"/>
      <use xlink:href="#DejaVuSans-20" x="399.195312"/>
      <use xlink:href="#DejaVuSans-6f" x="430.982422"/>
      <use xlink:href="#DejaVuSans-66" x="492.164062"/>
      <use xlink:href="#DejaVuSans-20" x="527.369141"/>
      <use xlink:href="#DejaVuSans-66" x="559.15625"/>
      <use xlink:href="#DejaVuSans-75" x="594.361328"/>
      <use xlink:href="#DejaVuSans-6e" x="657.740234"/>
      <use xlink:href="#DejaVuSans-63" x="721.119141"/>
      <use xlink:href="#DejaVuSans-74" x="776.099609"/>
      <use xlink:href="#DejaVuSans-69" x="815.308594"/>
      <use xlink:href="#DejaVuSans-6f" x="843.091797"/>
      <use xlink:href="#DejaVuSans-6e" x="904.273438"/>
      <use xlink:href="#DejaVuSans-2c" x="967.652344"/>
      <use xlink:href="#DejaVuSans-74" x="999.439453"/>
      <use xlink:href="#DejaVuSans-61" x="1038.648438"/>
      <use xlink:href="#DejaVuSans-72" x="1099.927734"/>
      <use xlink:href="#DejaVuSans-67" x="1139.291016"/>
      <use xlink:href="#DejaVuSans-65" x="1202.767578"/>
      <use xlink:href="#DejaVuSans-74" x="1264.291016"/>
      <use xlink:href="#DejaVuSans-20" x="1303.5"/>
      <use xlink:href="#DejaVuSans-70" x="1335.287109"/>
      <use xlink:href="#DejaVuSans-61" x="1398.763672"/>
      <use xlink:href="#DejaVuSans-69" x="1460.042969"/>
      <use xlink:href="#DejaVuSans-72" x="1487.826172"/>
      <use xlink:href="#DejaVuSans-73" x="1528.939453"/>
     </g>
    </g>
   </g>
   <g id="line2d_33">
    <defs>
     <path id="mfddbcc1911" d="M 0 1.5 
C 0.397805 1.5 0.77937 1.341951 1.06066 1.06066 
C 1.341951 0.77937 1.5 0.397805 1.5 0 
C 1.5 -0.397805 1.341951 -0.77937 1.06066 -1.06066 
C 0.77937 -1.341951 0.397805 -1.5 0 -1.5 
C -0.397805 -1.5 -0.77937 -1.341951 -1.06066 -1.06066 
C -1.341951 -0.77937 -1.5 -0.397805 -1.5 0 
C -1.5 0.397805 -1.341951 0.77937 -1.06066 1.06066 
C -0.77937 1.341951 -0.397805 1.5 0 1.5 
z
" style="stroke: #f5deb3"/>
    </defs>
    <g>
     <use xlink:href="#mfddbcc1911" x="287.115019" y="42.157241" style="fill: #f5deb3; stroke: #f5deb3"/>
     <use xlink:href="#mfddbcc1911" x="287.115019" y="42.157241" style="fill: #f5deb3; stroke: #f5deb3"/>
    </g>
   </g>
   <g id="line2d_34">
    <defs>
     <path id="m528bb5de2f" d="M 0 1.5 
C 0.397805 1.5 0.77937 1.341951 1.06066 1.06066 
C 1.341951 0.77937 1.5 0.397805 1.5 0 
C 1.5 -0.397805 1.341951 -0.77937 1.06066 -1.06066 
C 0.77937 -1.341951 0.397805 -1.5 0 -1.5 
C -0.397805 -1.5 -0.77937 -1.341951 -1.06066 -1.06066 
C -1.341951 -0.77937 -1.5 -0.397805 -1.5 0 
C -1.5 0.397805 -1.341951 0.77937 -1.06066 1.06066 
C -0.77937 1.341951 -0.397805 1.5 0 1.5 
z
" style="stroke: #000080"/>
    </defs>
    <g>
     <use xlink:href="#m528bb5de2f" x="78.266603" y="281.699007" style="fill: #000080; stroke: #000080"/>
     <use xlink:href="#m528bb5de2f" x="78.266603" y="281.699007" style="fill: #000080; stroke: #000080"/>
    </g>
   </g>
   <g id="line2d_35">
    <path d="M 36.933397 298.944 
L 36.933397 292.398455 
L 49.972572 292.398455 
L 49.972572 290.762069 
L 57.6 290.762069 
L 57.6 290.13269 
L 63.011746 290.13269 
L 63.011746 288.496303 
L 67.209423 288.496303 
L 67.209423 286.985793 
L 70.639174 286.985793 
L 70.639174 285.475283 
L 73.538988 285.475283 
L 73.538988 284.216524 
L 76.050921 284.216524 
L 76.050921 283.335393 
L 78.266603 283.335393 
L 78.266603 281.699007 
L 360.8064 281.699007 
" style="fill: none; stroke: #000080; stroke-width: 1.5; stroke-linecap: square"/>
   </g>
   <g id="line2d_36">
    <defs>
     <path id="m892245de1f" d="M 0 6 
C 1.591219 6 3.117479 5.367802 4.242641 4.242641 
C 5.367802 3.117479 6 1.591219 6 0 
C 6 -1.591219 5.367802 -3.117479 4.242641 -4.242641 
C 3.117479 -5.367802 1.591219 -6 0 -6 
C -1.591219 -6 -3.117479 -5.367802 -4.242641 -4.242641 
C -5.367802 -3.117479 -6 -1.591219 -6 0 
C -6 1.591219 -5.367802 3.117479 -4.242641 4.242641 
C -3.117479 5.367802 -1.591219 6 0 6 
z
" style="stroke: #000080; stroke-width: 1.5"/>
    </defs>
    <g>
     <use xlink:href="#m892245de1f" x="67.209423" y="288.496303" style="fill-opacity: 0; stroke: #000080; stroke-width: 1.5"/>
     <use xlink:href="#m892245de1f" x="78.266603" y="283.335393" style="fill-opacity: 0; stroke: #000080; stroke-width: 1.5"/>
     <use xlink:href="#m892245de1f" x="78.266603" y="281.699007" style="fill-opacity: 0; stroke: #000080; stroke-width: 1.5"/>
     <use xlink:href="#m892245de1f" x="78.266603" y="281.699007" style="fill-opacity: 0; stroke: #000080; stroke-width: 1.5"/>
     <use xlink:href="#m892245de1f" x="78.266603" y="281.699007" style="fill-opacity: 0; stroke: #000080; stroke-width: 1.5"/>
     <use xlink:href="#m892245de1f" x="360.8064" y="281.699007" style="fill-opacity: 0; stroke: #000080; stroke-width: 1.5"/>
    </g>
   </g>
   <g id="line2d_37">
    <path style="fill: none; stroke: #000080; stroke-width: 1.5; stroke-linecap: square"/>
    <g/>
   </g>
   <g id="line2d_38">
    <path d="M 78.266603 281.699007 
" clip-path="url(#p3191f77fb7)" style="fill: none; stroke: #000080; stroke-width: 1.5; stroke-linecap: square"/>
    <defs>
     <path id="me9d69902fc" d="M -12 12 
L 12 -12 
M -12 -12 
L 12 12 
" style="stroke: #000080"/>
    </defs>
    <g clip-path="url(#p3191f77fb7)">
     <use xlink:href="#me9d69902fc" x="78.266603" y="281.699007" style="fill: #000080; stroke: #000080"/>
    </g>
   </g>
   <g id="line2d_39">
    <defs>
     <path id="md8dc7824af" d="M 0 1.5 
C 0.397805 1.5 0.77937 1.341951 1.06066 1.06066 
C 1.341951 0.77937 1.5 0.397805 1.5 0 
C 1.5 -0.397805 1.341951 -0.77937 1.06066 -1.06066 
C 0.77937 -1.341951 0.397805 -1.5 0 -1.5 
C -0.397805 -1.5 -0.77937 -1.341951 -1.06066 -1.06066 
C -1.341951 -0.77937 -1.5 -0.397805 -1.5 0 
C -1.5 0.397805 -1.341951 0.77937 -1.06066 1.06066 
C -0.77937 1.341951 -0.397805 1.5 0 1.5 
z
" style="stroke: #ff00ff"/>
    </defs>
    <g>
     <use xlink:href="#md8dc7824af" x="273.757974" y="122.591917" style="fill: #ff00ff; stroke: #ff00ff"/>
     <use xlink:href="#md8dc7824af" x="273.757974" y="122.591917" style="fill: #ff00ff; stroke: #ff00ff"/>
    </g>
   </g>
   <g id="line2d_40">
    <path d="M 36.933397 298.944 
L 36.933397 292.398455 
L 49.972572 292.398455 
L 49.972572 291.391448 
L 57.6 291.391448 
L 57.6 289.50331 
L 63.011746 289.50331 
L 63.011746 287.866924 
L 67.209423 287.866924 
L 67.209423 286.734041 
L 70.639174 286.734041 
L 70.639174 286.230538 
L 73.538988 286.230538 
L 73.538988 285.601159 
L 76.050921 285.601159 
L 76.050921 285.097655 
L 78.266603 285.097655 
L 78.266603 284.720028 
L 80.248597 284.720028 
L 80.248597 284.594152 
L 82.04153 284.594152 
L 82.04153 283.587145 
L 83.678349 283.587145 
L 83.678349 283.461269 
L 85.184077 283.461269 
L 85.184077 282.580138 
L 86.578163 282.580138 
L 86.578163 281.950759 
L 87.876026 281.950759 
L 87.876026 281.699007 
L 89.090095 281.699007 
L 89.090095 281.573131 
L 91.305777 281.573131 
L 91.305777 280.692 
L 92.322865 280.692 
L 92.322865 280.062621 
L 94.205591 280.062621 
L 94.205591 279.18149 
L 95.080704 279.18149 
L 95.080704 278.677986 
L 95.916911 278.677986 
L 95.916911 278.426234 
L 97.485448 278.426234 
L 97.485448 278.300359 
L 98.223251 278.300359 
L 98.223251 278.174483 
L 98.933205 278.174483 
L 98.933205 277.922731 
L 99.617337 277.922731 
L 99.617337 277.670979 
L 100.277459 277.670979 
L 100.277459 277.293352 
L 101.532027 277.293352 
L 101.532027 277.167476 
L 102.12927 277.167476 
L 102.12927 276.915724 
L 102.708132 276.915724 
L 102.708132 276.789848 
L 103.269713 276.789848 
L 103.269713 276.538097 
L 103.815014 276.538097 
L 103.815014 276.160469 
L 105.850679 276.160469 
L 105.850679 275.782841 
L 106.326946 275.782841 
L 106.326946 275.53109 
L 106.791453 275.53109 
L 106.791453 275.153462 
L 107.244765 275.153462 
L 107.244765 274.649959 
L 107.68741 274.649959 
L 107.68741 274.398207 
L 108.542628 274.398207 
L 108.542628 274.272331 
L 108.956085 274.272331 
L 108.956085 274.020579 
L 109.360651 274.020579 
L 109.360651 273.3912 
L 111.97238 273.3912 
L 111.97238 273.265324 
L 113.638206 273.265324 
L 113.638206 273.139448 
L 113.954374 273.139448 
L 113.954374 272.887697 
L 114.265316 272.887697 
L 114.265316 272.761821 
L 115.747307 272.761821 
L 115.747307 272.635945 
L 116.308887 272.635945 
L 116.308887 272.384193 
L 116.583514 272.384193 
L 116.583514 272.258317 
L 116.854188 272.258317 
L 116.854188 272.006566 
L 117.121023 272.006566 
L 117.121023 271.754814 
L 117.384126 271.754814 
L 117.384126 271.503062 
L 117.6436 271.503062 
L 117.6436 270.621931 
L 117.899543 270.621931 
L 117.899543 270.496055 
L 118.152051 270.496055 
L 118.152051 270.370179 
L 118.401214 270.370179 
L 118.401214 269.992552 
L 118.64712 269.992552 
L 118.64712 269.7408 
L 119.366121 269.7408 
L 119.366121 269.614924 
L 120.058649 269.614924 
L 120.058649 269.489048 
L 120.506564 269.489048 
L 120.506564 268.356166 
L 120.726585 268.356166 
L 120.726585 268.23029 
L 120.944062 268.23029 
L 120.944062 268.104414 
L 121.99526 268.104414 
L 121.99526 267.978538 
L 122.19863 267.978538 
L 122.19863 267.60091 
L 122.399825 267.60091 
L 122.399825 267.475034 
L 122.598891 267.475034 
L 122.598891 267.097407 
L 122.990812 267.097407 
L 122.990812 266.845655 
L 123.183753 266.845655 
L 123.183753 266.593903 
L 123.374735 266.593903 
L 123.374735 266.468028 
L 123.750979 266.468028 
L 123.750979 266.342152 
L 124.3016 266.342152 
L 124.3016 266.216276 
L 125.011554 266.216276 
L 125.011554 265.964524 
L 125.184934 265.964524 
L 125.184934 265.712772 
L 125.526971 265.712772 
L 125.526971 265.209269 
L 126.028642 265.209269 
L 126.028642 265.083393 
L 126.192937 265.083393 
L 126.192937 264.831641 
L 126.355808 264.831641 
L 126.355808 264.705766 
L 126.677381 264.705766 
L 126.677381 264.57989 
L 126.993549 264.57989 
L 126.993549 264.202262 
L 127.149662 264.202262 
L 127.149662 264.076386 
L 127.304491 264.076386 
L 127.304491 263.95051 
L 127.458055 263.95051 
L 127.458055 263.572883 
L 128.060076 263.572883 
L 128.060076 263.321131 
L 128.207619 263.321131 
L 128.207619 263.069379 
L 128.499277 263.069379 
L 128.499277 262.943503 
L 128.643427 262.943503 
L 128.643427 262.817628 
L 128.928456 262.817628 
L 128.928456 262.691752 
L 129.069367 262.691752 
L 129.069367 262.565876 
L 129.209231 262.565876 
L 129.209231 262.062372 
L 129.485876 262.062372 
L 129.485876 261.936497 
L 129.758512 261.936497 
L 129.758512 261.558869 
L 130.160198 261.558869 
L 130.160198 261.307117 
L 130.292209 261.307117 
L 130.292209 261.181241 
L 130.4233 261.181241 
L 130.4233 261.055366 
L 130.553485 261.055366 
L 130.553485 260.92949 
L 131.065395 260.92949 
L 131.065395 260.677738 
L 131.191226 260.677738 
L 131.191226 260.551862 
L 131.31622 260.551862 
L 131.31622 260.30011 
L 131.440389 260.30011 
L 131.440389 260.048359 
L 131.563744 260.048359 
L 131.563744 259.922483 
L 131.808053 259.922483 
L 131.808053 259.544855 
L 132.287354 259.544855 
L 132.287354 259.418979 
L 132.405295 259.418979 
L 132.405295 259.293103 
L 132.522502 259.293103 
L 132.522502 259.041352 
L 132.638982 259.041352 
L 132.638982 258.537848 
L 132.754746 258.537848 
L 132.754746 258.411972 
L 132.869802 258.411972 
L 132.869802 258.286097 
L 133.097823 258.286097 
L 133.097823 258.034345 
L 133.323114 258.034345 
L 133.323114 257.656717 
L 133.765759 257.656717 
L 133.765759 257.153214 
L 134.091039 257.153214 
L 134.198228 256.64971 
L 134.41079 256.64971 
L 134.516177 256.397959 
L 134.620977 256.397959 
L 134.620977 256.146207 
L 134.931919 256.146207 
L 135.034434 255.894455 
L 135.136394 255.894455 
L 135.237805 255.265076 
L 135.538796 255.265076 
L 135.638065 254.887448 
L 135.736814 254.887448 
L 135.736814 254.509821 
L 136.029987 254.509821 
L 136.029987 254.258069 
L 136.318661 254.258069 
L 136.318661 254.132193 
L 136.790153 254.132193 
L 136.88305 253.754566 
L 136.97549 253.754566 
L 136.97549 253.502814 
L 137.250116 253.502814 
L 137.250116 253.376938 
L 137.610157 253.376938 
L 137.610157 253.251062 
L 137.875736 253.251062 
L 137.875736 252.495807 
L 138.310202 252.495807 
L 138.395904 252.118179 
L 138.650692 252.118179 
L 138.650692 251.866428 
L 138.902075 251.866428 
L 138.985129 251.362924 
L 139.067817 251.362924 
L 139.067817 251.111172 
L 139.232111 251.111172 
L 139.313723 250.733545 
L 139.394983 250.733545 
L 139.394983 250.607669 
L 139.556456 250.607669 
L 139.636676 250.230041 
L 139.954178 250.230041 
L 140.032723 249.600662 
L 140.188837 249.600662 
L 140.26641 249.34891 
L 140.573544 249.34891 
L 140.649551 248.845407 
L 140.800648 248.845407 
L 140.800648 248.719531 
L 140.950542 248.719531 
L 140.950542 248.593655 
L 141.173167 248.593655 
L 141.173167 248.090152 
L 141.320133 248.090152 
L 141.393187 247.712524 
L 142.45627 247.712524 
L 142.45627 247.460772 
L 142.932537 247.460772 
L 142.999601 247.083145 
L 143.133017 247.083145 
L 143.133017 246.831393 
L 144.16759 246.831393 
L 144.16759 246.705517 
L 144.355394 246.705517 
L 144.355394 246.453766 
L 144.541342 246.453766 
L 144.541342 246.202014 
L 144.664294 246.202014 
L 144.664294 246.076138 
L 144.786447 246.076138 
L 144.786447 245.824386 
L 144.907812 245.824386 
L 144.907812 245.69851 
L 145.326529 245.69851 
L 145.326529 245.572634 
L 145.851536 245.572634 
L 145.851536 245.195007 
L 146.750169 245.195007 
L 146.750169 244.943255 
L 147.237402 244.943255 
L 147.237402 244.691503 
L 147.397049 244.691503 
L 147.449964 244.062124 
L 147.555352 244.062124 
L 147.555352 243.810372 
L 147.712333 243.810372 
L 147.712333 243.684497 
L 147.971093 243.684497 
L 147.971093 243.432745 
L 148.226342 243.432745 
L 148.226342 243.306869 
L 148.478174 243.306869 
L 148.478174 243.055117 
L 148.67724 243.055117 
L 148.67724 242.929241 
L 148.874221 242.929241 
L 148.874221 242.803366 
L 149.357835 242.803366 
L 149.357835 242.67749 
L 149.73597 242.67749 
L 149.73597 242.04811 
L 149.875833 242.04811 
L 149.875833 241.922234 
L 150.425115 241.922234 
L 150.515122 241.670483 
L 151.392277 241.670483 
L 151.392277 241.544607 
L 151.562904 241.544607 
L 151.562904 241.418731 
L 151.857828 241.418731 
L 151.857828 241.166979 
L 152.024303 241.166979 
L 152.024303 240.915228 
L 152.393571 240.915228 
L 152.393571 240.5376 
L 152.595631 240.5376 
L 152.595631 240.411724 
L 153.111048 240.411724 
L 153.111048 240.285848 
L 154.322673 240.285848 
L 154.322673 240.159972 
L 154.685842 240.159972 
L 154.685842 239.908221 
L 155.217778 239.908221 
L 155.217778 239.782345 
L 155.391799 239.782345 
L 155.391799 239.656469 
L 155.802997 239.656469 
L 155.904407 238.901214 
L 155.971711 238.901214 
L 155.971711 238.649462 
L 156.631834 238.649462 
L 156.664239 238.271834 
L 157.549652 238.271834 
L 157.549652 238.145959 
L 157.672805 238.145959 
L 157.672805 237.894207 
L 158.0375 237.894207 
L 158.127579 237.390703 
L 158.247018 237.390703 
L 158.247018 237.264828 
L 159.485256 237.264828 
L 159.485256 237.138952 
L 159.816746 237.138952 
L 159.816746 236.8872 
L 160.034538 236.8872 
L 160.034538 236.761324 
L 160.196243 236.761324 
L 160.303279 236.509572 
L 160.4627 236.509572 
L 160.4627 236.257821 
L 160.984551 236.257821 
L 161.087207 235.880193 
L 161.240147 235.880193 
L 161.240147 235.628441 
L 161.839769 235.628441 
L 161.937874 235.250814 
L 162.132562 235.250814 
L 162.132562 234.999062 
L 162.277267 234.999062 
L 162.277267 234.873186 
L 162.539702 234.873186 
L 162.634233 234.495559 
L 163.44172 234.495559 
L 163.44172 234.243807 
L 163.997986 234.243807 
L 164.085482 233.866179 
L 164.172572 233.866179 
L 164.172572 233.740303 
L 164.388551 233.740303 
L 164.388551 233.614428 
L 164.750119 233.614428 
L 164.855153 232.733297 
L 164.917893 232.733297 
L 164.917893 232.607421 
L 165.432746 232.607421 
L 165.534047 231.978041 
L 165.834717 231.978041 
L 165.834717 231.72629 
L 166.267186 231.72629 
L 166.286609 231.222786 
L 166.556452 231.222786 
L 166.556452 231.09691 
L 166.746854 231.09691 
L 166.765788 230.719283 
L 166.991529 230.719283 
L 166.991529 230.593407 
L 167.140533 230.593407 
L 167.140533 230.467531 
L 167.269949 230.467531 
L 167.343504 229.964028 
L 167.489756 229.964028 
L 167.526142 229.460524 
L 168.413644 229.460524 
L 168.482867 229.082897 
L 168.6034 229.082897 
L 168.6034 228.831145 
L 168.740211 228.831145 
L 168.79126 228.453517 
L 168.892945 228.453517 
L 168.892945 228.327641 
L 169.161446 228.327641 
L 169.244573 227.572386 
L 169.294273 227.572386 
L 169.294273 227.44651 
L 169.458999 227.44651 
L 169.524487 226.943007 
L 169.654784 226.943007 
L 169.751918 226.439503 
L 169.800298 226.439503 
L 169.800298 226.187752 
L 169.928705 226.187752 
L 169.992581 225.684248 
L 170.056241 225.684248 
L 170.103845 225.306621 
L 170.182919 225.306621 
L 170.198694 224.803117 
L 170.340075 224.803117 
L 170.340075 224.677241 
L 170.557912 224.677241 
L 170.650504 223.544359 
L 170.819081 223.544359 
L 170.819081 223.418483 
L 171.016381 223.418483 
L 171.016381 223.292607 
L 171.226568 223.292607 
L 171.226568 223.166731 
L 171.390083 223.166731 
L 171.449192 222.663228 
L 171.552189 222.663228 
L 171.654625 222.033848 
L 171.785513 222.033848 
L 171.814477 221.656221 
L 171.958627 221.656221 
L 172.04459 221.404469 
L 172.115927 221.404469 
L 172.130162 221.026841 
L 172.229507 221.026841 
L 172.229507 220.900966 
L 172.3986 220.900966 
L 172.426636 220.397462 
L 172.635578 220.397462 
L 172.690906 220.019834 
L 172.759838 220.019834 
L 172.814802 219.516331 
L 172.951515 219.516331 
L 172.951515 219.264579 
L 173.10076 219.264579 
L 173.114269 218.761076 
L 173.24883 218.761076 
L 173.24883 218.509324 
L 173.515098 218.509324 
L 173.620559 218.257572 
L 173.6337 218.257572 
L 173.712355 218.005821 
L 173.751559 218.005821 
L 173.751559 217.879945 
L 173.868685 217.879945 
L 173.894614 217.250566 
L 173.985085 217.250566 
L 173.985085 216.998814 
L 174.393216 216.998814 
L 174.393216 216.872938 
L 174.556523 216.872938 
L 174.606487 216.49531 
L 174.718424 216.49531 
L 174.718424 216.243559 
L 174.878944 216.243559 
L 174.878944 216.117683 
L 175.074644 216.117683 
L 175.111113 215.362428 
L 175.412297 215.362428 
L 175.495771 214.858924 
L 175.531433 214.858924 
L 175.531433 214.733048 
L 175.649819 214.733048 
L 175.649819 214.607172 
L 175.977392 214.607172 
L 176.035292 214.229545 
L 176.116053 214.229545 
L 176.207929 213.600166 
L 176.253699 213.600166 
L 176.253699 213.348414 
L 176.378996 213.348414 
L 176.378996 213.222538 
L 176.604692 213.222538 
L 176.604692 213.096662 
L 176.716533 213.096662 
L 176.805529 212.593159 
L 176.916185 212.593159 
L 177.026195 211.837903 
L 177.091893 211.837903 
L 177.179135 211.208524 
L 177.481335 211.208524 
L 177.556133 210.705021 
L 177.799823 210.705021 
L 177.904798 209.949766 
L 177.936177 209.949766 
L 178.009191 209.572138 
L 178.07155 209.572138 
L 178.09229 208.942759 
L 178.257396 208.942759 
L 178.288192 208.439255 
L 178.502368 208.439255 
L 178.563116 207.935752 
L 178.714132 207.935752 
L 178.824112 207.306372 
L 178.84404 207.306372 
L 178.91362 206.676993 
L 179.032306 206.676993 
L 179.081538 206.425241 
L 179.160042 206.425241 
L 179.160042 206.299366 
L 179.316074 206.299366 
L 179.422601 205.292359 
L 179.432255 205.292359 
L 179.538128 205.040607 
L 179.662486 205.040607 
L 179.738608 204.159476 
L 179.804963 204.159476 
L 179.804963 204.0336 
L 179.955757 204.0336 
L 180.049394 203.404221 
L 180.105353 203.404221 
L 180.19825 203.026593 
L 180.318334 203.026593 
L 180.3735 202.397214 
L 180.646928 202.397214 
L 180.728188 201.767834 
L 180.871788 201.767834 
L 180.907518 201.264331 
L 181.093992 201.264331 
L 181.182144 200.886703 
L 181.313602 200.886703 
L 181.313602 200.634952 
L 181.487462 200.634952 
L 181.556559 200.131448 
L 181.616811 200.131448 
L 181.702552 199.502069 
L 181.728198 199.502069 
L 181.779386 198.87269 
L 181.957455 198.87269 
L 182.058457 198.24331 
L 182.075238 198.24331 
L 182.092004 197.991559 
L 182.217275 197.991559 
L 182.325173 197.613931 
L 182.481765 197.613931 
L 182.555488 197.236303 
L 182.702072 197.236303 
L 182.702072 197.110428 
L 182.839472 197.110428 
L 182.839472 196.858676 
L 183.023783 196.858676 
L 183.111297 196.229297 
L 183.237868 196.229297 
L 183.237868 196.103421 
L 183.37925 196.103421 
L 183.402711 195.725793 
L 183.535105 195.725793 
L 183.61255 195.22229 
L 183.651154 195.22229 
L 183.712756 194.844662 
L 183.842993 194.844662 
L 183.881127 194.341159 
L 184.002639 194.341159 
L 184.108322 193.711779 
L 184.115848 193.711779 
L 184.160942 193.334152 
L 184.30303 193.334152 
L 184.30303 193.208276 
L 184.488367 193.208276 
L 184.576684 192.453021 
L 184.73753 192.453021 
L 184.744809 192.075393 
L 184.853651 192.075393 
L 184.860885 191.823641 
L 184.983436 191.823641 
L 185.062311 191.57189 
L 185.155102 191.57189 
L 185.254521 189.935503 
L 185.367504 189.935503 
L 185.472812 189.432 
L 185.521755 189.432 
L 185.626206 189.054372 
L 185.653962 189.054372 
L 185.764578 188.550869 
L 185.826515 188.550869 
L 185.908781 188.173241 
L 185.956604 188.173241 
L 186.03151 187.92149 
L 186.092575 187.92149 
L 186.112887 187.543862 
L 186.234295 187.543862 
L 186.254454 186.914483 
L 186.368281 186.914483 
L 186.454863 186.536855 
L 186.507947 186.536855 
L 186.541048 185.907476 
L 186.620255 185.907476 
L 186.620255 185.7816 
L 186.75153 185.7816 
L 186.79726 185.403972 
L 186.907859 185.403972 
L 186.966149 185.152221 
L 187.075763 185.152221 
L 187.075763 185.026345 
L 187.235808 185.026345 
L 187.293092 184.648717 
L 187.394502 184.648717 
L 187.438698 184.396966 
L 187.689272 184.396966 
L 187.77619 183.767586 
L 187.80095 183.767586 
L 187.899666 183.389959 
L 187.924265 183.389959 
L 188.022338 182.886455 
L 188.247192 182.886455 
L 188.307504 182.382952 
L 188.385623 182.382952 
L 188.457446 181.753572 
L 188.534946 181.753572 
L 188.612127 181.501821 
L 188.688994 181.501821 
L 188.688994 181.375945 
L 188.800775 181.375945 
L 188.906064 180.117186 
L 188.935207 180.117186 
L 189.045539 179.613683 
L 189.224176 179.613683 
L 189.310008 178.858428 
L 189.395451 178.858428 
L 189.395451 178.732552 
L 189.683086 178.732552 
L 189.722225 178.103172 
L 189.833602 178.103172 
L 189.916704 177.851421 
L 189.982923 177.851421 
L 189.982923 177.725545 
L 190.131067 177.725545 
L 190.201982 177.347917 
L 190.256351 177.347917 
L 190.267206 176.97029 
L 190.407753 176.97029 
L 190.407753 176.844414 
L 190.573967 176.844414 
L 190.573967 176.718538 
L 190.728139 176.718538 
L 190.833733 176.089159 
L 190.860039 176.089159 
L 190.949206 175.837407 
L 190.980576 175.837407 
L 191.017109 175.208028 
L 191.121098 175.208028 
L 191.121098 175.082152 
L 191.239978 175.082152 
L 191.34787 174.201021 
L 191.419455 174.201021 
L 191.419455 173.949269 
L 191.693045 173.949269 
L 191.693045 173.31989 
L 191.873253 173.31989 
L 191.873253 173.194014 
L 192.017176 173.194014 
L 192.096112 172.69051 
L 192.306628 172.69051 
L 192.306628 172.438759 
L 192.437618 172.438759 
L 192.437618 172.312883 
L 192.5821 172.312883 
L 192.5821 172.061131 
L 192.820466 172.061131 
L 192.914973 171.683503 
L 192.990238 171.683503 
L 193.069878 171.431752 
L 193.320641 171.431752 
L 193.320641 171.305876 
L 193.568105 171.305876 
L 193.645341 170.802372 
L 193.704191 170.802372 
L 193.704191 170.676497 
L 194.000159 170.676497 
L 194.111064 170.172993 
L 194.230111 170.172993 
L 194.304681 169.795366 
L 194.392035 169.795366 
L 194.392035 169.66949 
L 194.517981 169.66949 
L 194.517981 169.543614 
L 194.698904 169.543614 
L 194.792984 169.291862 
L 194.988188 169.291862 
L 194.988188 169.04011 
L 195.110218 169.04011 
L 195.164666 168.662483 
L 195.260611 168.662483 
L 195.260611 168.536607 
L 195.451047 168.536607 
L 195.451047 168.410731 
L 195.91485 168.410731 
L 195.963012 168.033103 
L 196.406683 168.033103 
L 196.453604 167.655476 
L 196.574279 167.655476 
L 196.574279 167.5296 
L 197.113592 167.5296 
L 197.113592 167.403724 
L 197.394283 167.403724 
L 197.49801 167.151972 
L 197.678167 167.151972 
L 197.678167 167.026097 
L 198.080007 167.026097 
L 198.080007 166.774345 
L 199.026458 166.774345 
L 199.026458 166.648469 
L 199.141908 166.648469 
L 199.141908 166.396717 
L 199.633064 166.396717 
L 199.633064 166.270841 
L 199.803781 166.270841 
L 199.865774 165.767338 
L 200.341797 165.767338 
L 200.341797 165.515586 
L 200.871029 165.515586 
L 200.871029 165.38971 
L 201.128642 165.38971 
L 201.128642 165.137959 
L 201.280324 165.137959 
L 201.280324 164.886207 
L 201.612751 164.886207 
L 201.710458 164.508579 
L 202.274818 164.508579 
L 202.274818 164.382703 
L 203.066114 164.382703 
L 203.112769 164.130952 
L 203.41998 164.130952 
L 203.41998 163.8792 
L 203.767313 163.8792 
L 203.767313 163.753324 
L 203.888696 163.753324 
L 203.893955 163.501572 
L 204.957211 163.501572 
L 205.036564 163.123945 
L 205.204086 163.123945 
L 205.204086 162.872193 
L 205.676367 162.872193 
L 205.755131 162.242814 
L 206.104377 162.242814 
L 206.137081 161.991062 
L 206.623207 161.991062 
L 206.702643 161.73931 
L 206.829047 161.73931 
L 206.829047 161.613434 
L 207.117035 161.613434 
L 207.117035 161.487559 
L 207.567974 161.487559 
L 207.567974 161.235807 
L 207.785177 161.235807 
L 207.785177 161.109931 
L 209.044228 161.109931 
L 209.044228 160.984055 
L 209.347727 160.984055 
L 209.347727 160.732303 
L 209.669633 160.732303 
L 209.669633 160.606428 
L 210.101794 160.606428 
L 210.101794 160.354676 
L 211.004213 160.354676 
L 211.004213 160.2288 
L 211.304518 160.2288 
L 211.304518 159.977048 
L 211.417671 159.977048 
L 211.481021 159.725297 
L 211.949469 159.725297 
L 212.04007 159.221793 
L 212.221661 159.221793 
L 212.221661 159.095917 
L 213.366674 159.095917 
L 213.366674 158.970041 
L 213.526504 158.970041 
L 213.529655 158.71829 
L 214.148007 158.71829 
L 214.148007 158.466538 
L 214.483451 158.466538 
L 214.486446 158.08891 
L 215.315425 158.08891 
L 215.315425 157.963034 
L 216.231265 157.963034 
L 216.250362 157.585407 
L 217.120207 157.585407 
L 217.212405 157.333655 
L 217.342786 157.333655 
L 217.342786 157.207779 
L 217.491423 157.207779 
L 217.491423 157.081903 
L 217.8517 157.081903 
L 217.94039 156.830152 
L 217.975251 156.830152 
L 217.975251 156.704276 
L 218.096761 156.704276 
L 218.096761 156.5784 
L 218.46271 156.5784 
L 218.46271 156.452524 
L 218.582326 156.452524 
L 218.582326 156.326648 
L 218.781201 156.326648 
L 218.781201 156.200772 
L 218.990965 156.200772 
L 218.990965 156.074897 
L 220.484541 156.074897 
L 220.484541 155.823145 
L 220.680547 155.823145 
L 220.680547 155.697269 
L 221.022157 155.697269 
L 221.125547 155.06789 
L 221.615697 155.06789 
L 221.69446 154.690262 
L 221.755606 154.690262 
L 221.755606 154.43851 
L 222.062394 154.43851 
L 222.062394 154.312634 
L 222.342575 154.312634 
L 222.342575 154.060883 
L 222.470345 154.060883 
L 222.554395 153.809131 
L 222.988171 153.809131 
L 222.988171 153.683255 
L 223.329067 153.683255 
L 223.329067 153.557379 
L 223.699713 153.557379 
L 223.789419 153.305628 
L 223.889602 153.305628 
L 223.889602 153.179752 
L 224.024459 153.179752 
L 224.024459 153.053876 
L 224.165518 153.053876 
L 224.165518 152.802124 
L 224.325063 152.802124 
L 224.325063 152.676248 
L 224.713324 152.676248 
L 224.745465 152.172745 
L 224.99464 152.172745 
L 224.99464 152.046869 
L 225.147334 152.046869 
L 225.147334 151.920993 
L 225.402175 151.920993 
L 225.402175 151.669241 
L 225.52748 151.669241 
L 225.574878 151.165738 
L 225.651129 151.165738 
L 225.739425 150.536359 
L 225.789577 150.536359 
L 225.789577 150.410483 
L 225.922938 150.410483 
L 225.922938 150.284607 
L 226.285478 150.284607 
L 226.285478 150.158731 
L 226.502542 150.158731 
L 226.60739 149.655228 
L 226.648225 149.655228 
L 226.648225 149.529352 
L 226.850305 149.529352 
L 226.960183 149.2776 
L 227.389617 149.2776 
L 227.389617 149.151724 
L 227.662134 149.151724 
L 227.662134 149.025848 
L 227.965166 149.025848 
L 227.974672 148.648221 
L 228.090548 148.648221 
L 228.090548 148.396469 
L 228.204992 148.396469 
L 228.204992 148.270593 
L 228.446077 148.270593 
L 228.527887 147.892966 
L 228.644648 147.892966 
L 228.644648 147.76709 
L 230.443608 147.76709 
L 230.443608 147.515338 
L 231.019401 147.515338 
L 231.019401 147.263586 
L 231.966391 147.263586 
L 231.966391 147.13771 
L 232.735073 147.13771 
L 232.735073 147.011834 
L 232.878127 147.011834 
L 232.878127 146.885959 
L 233.010596 146.885959 
L 233.010596 146.760083 
L 233.438068 146.760083 
L 233.438068 146.634207 
L 233.837316 146.634207 
L 233.837316 146.508331 
L 234.119954 146.508331 
L 234.222498 146.256579 
L 234.446147 146.256579 
L 234.45858 145.878952 
L 234.750979 145.878952 
L 234.750979 145.753076 
L 235.291296 145.753076 
L 235.291296 145.6272 
L 235.516864 145.6272 
L 235.516864 145.501324 
L 235.701985 145.501324 
L 235.811226 145.249572 
L 236.359817 145.249572 
L 236.359817 144.997821 
L 236.554941 144.997821 
L 236.554941 144.871945 
L 236.925597 144.871945 
L 236.925597 144.620193 
L 237.053259 144.620193 
L 237.134744 144.368441 
L 237.246269 144.368441 
L 237.246269 144.242566 
L 237.434666 144.242566 
L 237.434666 143.990814 
L 237.72248 143.990814 
L 237.785074 143.739062 
L 237.881598 143.739062 
L 237.881598 143.613186 
L 238.83573 143.613186 
L 238.83573 143.48731 
L 239.392107 143.48731 
L 239.392107 143.235559 
L 240.041359 143.235559 
L 240.064439 142.983807 
L 240.34717 142.983807 
L 240.34717 142.732055 
L 241.493805 142.732055 
L 241.493805 142.480303 
L 241.670061 142.480303 
L 241.751424 142.228552 
L 242.551993 142.228552 
L 242.551993 141.9768 
L 242.963758 141.9768 
L 242.963758 141.850924 
L 243.100016 141.850924 
L 243.100016 141.725048 
L 243.546465 141.725048 
L 243.546465 141.599172 
L 243.697606 141.599172 
L 243.758356 140.843917 
L 244.208449 140.843917 
L 244.208449 140.718041 
L 244.412138 140.718041 
L 244.412138 140.592166 
L 244.632651 140.592166 
L 244.632651 140.340414 
L 246.562889 140.340414 
L 246.562889 140.214538 
L 246.711975 140.214538 
L 246.711975 139.83691 
L 246.894948 139.83691 
L 246.894948 139.711034 
L 247.014089 139.711034 
L 247.014089 139.585159 
L 247.267178 139.585159 
L 247.267178 139.459283 
L 247.478324 139.459283 
L 247.535782 138.955779 
L 247.700195 138.955779 
L 247.700195 138.704028 
L 248.179741 138.704028 
L 248.179741 138.452276 
L 248.386623 138.452276 
L 248.386623 138.200524 
L 248.917034 138.200524 
L 248.917034 138.074648 
L 249.082475 138.074648 
L 249.082475 137.948772 
L 250.227972 137.948772 
L 250.280084 137.697021 
L 250.897877 137.697021 
L 250.912352 137.445269 
L 251.175491 137.445269 
L 251.175491 137.193517 
L 251.371037 137.193517 
L 251.459978 136.81589 
L 251.705062 136.81589 
L 251.705062 136.690014 
L 252.024304 136.690014 
L 252.024304 136.438262 
L 252.998949 136.438262 
L 252.998949 136.18651 
L 253.256953 136.18651 
L 253.256953 135.808883 
L 253.551488 135.808883 
L 253.551488 135.683007 
L 254.144178 135.683007 
L 254.144178 135.431255 
L 254.319954 135.431255 
L 254.41736 134.927752 
L 254.579776 134.927752 
L 254.579776 134.801876 
L 254.87546 134.801876 
L 254.974912 134.550124 
L 254.98935 134.550124 
L 254.98935 134.424248 
L 255.296686 134.424248 
L 255.296686 134.298372 
L 255.539057 134.298372 
L 255.539057 134.046621 
L 255.806004 134.046621 
L 255.806004 133.794869 
L 255.964504 133.794869 
L 255.964504 133.668993 
L 256.096778 133.668993 
L 256.096778 133.543117 
L 256.279503 133.543117 
L 256.279503 133.417241 
L 256.514422 133.417241 
L 256.514422 133.16549 
L 257.051837 133.16549 
L 257.119189 132.787862 
L 257.320425 132.787862 
L 257.320425 132.53611 
L 257.496413 132.53611 
L 257.496413 132.410234 
L 257.643006 132.410234 
L 257.643006 132.284359 
L 257.883375 132.284359 
L 257.883375 132.158483 
L 258.85566 132.158483 
L 258.85566 132.032607 
L 259.111863 132.032607 
L 259.111863 131.906731 
L 259.433398 131.906731 
L 259.51792 131.151476 
L 261.704679 131.151476 
L 261.767362 130.018593 
L 261.826452 130.018593 
L 261.925808 129.137462 
L 261.954288 129.137462 
L 261.954288 129.011586 
L 262.294612 129.011586 
L 262.294612 128.88571 
L 262.552506 128.88571 
L 262.552506 128.759834 
L 262.968368 128.759834 
L 262.968368 128.508083 
L 263.629372 128.508083 
L 263.667999 128.130455 
L 263.908717 128.130455 
L 263.908717 127.878703 
L 264.534466 127.878703 
L 264.534466 127.3752 
L 265.152937 127.3752 
L 265.152937 127.123448 
L 265.371887 127.123448 
L 265.371887 126.997572 
L 265.698855 126.997572 
L 265.808843 126.745821 
L 265.831624 126.745821 
L 265.831624 126.619945 
L 266.170351 126.619945 
L 266.170351 126.368193 
L 266.75316 126.368193 
L 266.75316 126.116441 
L 267.926614 126.116441 
L 267.926614 125.990566 
L 268.42818 125.990566 
L 268.530548 124.857683 
L 268.561505 124.857683 
L 268.561505 124.731807 
L 268.788651 124.731807 
L 268.88659 124.354179 
L 269.008961 124.354179 
L 269.008961 124.102428 
L 269.333527 124.102428 
L 269.333527 123.976552 
L 269.691784 123.976552 
L 269.778649 123.473048 
L 270.171557 123.473048 
L 270.171557 123.347172 
L 270.308915 123.347172 
L 270.308915 123.221297 
L 271.861037 123.221297 
L 271.878687 122.969545 
L 272.277774 122.969545 
L 272.277774 122.843669 
L 272.956779 122.843669 
L 272.956779 122.717793 
L 273.757974 122.717793 
L 273.757974 122.591917 
L 360.8064 122.591917 
L 360.8064 122.591917 
" style="fill: none; stroke: #ff00ff; stroke-width: 1.5; stroke-linecap: square"/>
   </g>
   <g id="line2d_41">
    <defs>
     <path id="m2c9b021e77" d="M 0 8.485281 
L 5.091169 0 
L 0 -8.485281 
L -5.091169 0 
z
" style="stroke: #ff00ff; stroke-width: 1.5; stroke-linejoin: miter"/>
    </defs>
    <g>
     <use xlink:href="#m2c9b021e77" x="147.971093" y="243.432745" style="fill-opacity: 0; stroke: #ff00ff; stroke-width: 1.5; stroke-linejoin: miter"/>
     <use xlink:href="#m2c9b021e77" x="189.69987" y="178.229048" style="fill-opacity: 0; stroke: #ff00ff; stroke-width: 1.5; stroke-linejoin: miter"/>
     <use xlink:href="#m2c9b021e77" x="273.757974" y="122.717793" style="fill-opacity: 0; stroke: #ff00ff; stroke-width: 1.5; stroke-linejoin: miter"/>
     <use xlink:href="#m2c9b021e77" x="273.757974" y="122.591917" style="fill-opacity: 0; stroke: #ff00ff; stroke-width: 1.5; stroke-linejoin: miter"/>
     <use xlink:href="#m2c9b021e77" x="273.757974" y="122.591917" style="fill-opacity: 0; stroke: #ff00ff; stroke-width: 1.5; stroke-linejoin: miter"/>
     <use xlink:href="#m2c9b021e77" x="360.8064" y="122.591917" style="fill-opacity: 0; stroke: #ff00ff; stroke-width: 1.5; stroke-linejoin: miter"/>
    </g>
   </g>
   <g id="line2d_42">
    <path style="fill: none; stroke: #ff00ff; stroke-width: 1.5; stroke-linecap: square"/>
    <g/>
   </g>
   <g id="line2d_43">
    <path d="M 274.176063 122.591917 
" clip-path="url(#p3191f77fb7)" style="fill: none; stroke: #ff00ff; stroke-width: 1.5; stroke-linecap: square"/>
    <defs>
     <path id="m306f694459" d="M -12 12 
L 12 -12 
M -12 -12 
L 12 12 
" style="stroke: #ff00ff"/>
    </defs>
    <g clip-path="url(#p3191f77fb7)">
     <use xlink:href="#m306f694459" x="274.176063" y="122.591917" style="fill: #ff00ff; stroke: #ff00ff"/>
    </g>
   </g>
   <g id="line2d_44">
    <defs>
     <path id="meae6782929" d="M 0 1.5 
C 0.397805 1.5 0.77937 1.341951 1.06066 1.06066 
C 1.341951 0.77937 1.5 0.397805 1.5 0 
C 1.5 -0.397805 1.341951 -0.77937 1.06066 -1.06066 
C 0.77937 -1.341951 0.397805 -1.5 0 -1.5 
C -0.397805 -1.5 -0.77937 -1.341951 -1.06066 -1.06066 
C -1.341951 -0.77937 -1.5 -0.397805 -1.5 0 
C -1.5 0.397805 -1.341951 0.77937 -1.06066 1.06066 
C -0.77937 1.341951 -0.397805 1.5 0 1.5 
z
" style="stroke: #6495ed"/>
    </defs>
    <g>
     <use xlink:href="#meae6782929" x="113.954374" y="253.502814" style="fill: #6495ed; stroke: #6495ed"/>
     <use xlink:href="#meae6782929" x="113.954374" y="253.502814" style="fill: #6495ed; stroke: #6495ed"/>
    </g>
   </g>
   <g id="line2d_45">
    <path d="M 36.933397 298.944 
L 36.933397 295.671228 
L 49.972572 295.671228 
L 49.972572 293.657214 
L 57.6 293.657214 
L 57.6 290.636193 
L 63.011746 290.636193 
L 63.011746 289.629186 
L 67.209423 289.629186 
L 67.209423 286.356414 
L 70.639174 286.356414 
L 70.639174 285.727034 
L 73.538988 285.727034 
L 73.538988 285.349407 
L 76.050921 285.349407 
L 76.050921 284.090648 
L 78.266603 284.090648 
L 78.266603 283.083641 
L 80.248597 283.083641 
L 80.248597 282.328386 
L 82.04153 282.328386 
L 82.04153 280.943752 
L 83.678349 280.943752 
L 83.678349 278.426234 
L 85.184077 278.426234 
L 85.184077 278.048607 
L 86.578163 278.048607 
L 86.578163 277.293352 
L 87.876026 277.293352 
L 87.876026 276.915724 
L 89.090095 276.915724 
L 89.090095 276.663972 
L 92.322865 276.663972 
L 92.322865 275.908717 
L 93.287772 275.908717 
L 93.287772 275.027586 
L 94.205591 275.027586 
L 94.205591 274.524083 
L 96.717523 274.524083 
L 96.717523 274.272331 
L 97.485448 274.272331 
L 97.485448 274.146455 
L 98.933205 274.146455 
L 98.933205 273.013572 
L 99.617337 273.013572 
L 99.617337 272.887697 
L 100.277459 272.887697 
L 100.277459 272.635945 
L 100.9152 272.635945 
L 100.9152 272.384193 
L 101.532027 272.384193 
L 101.532027 272.258317 
L 102.708132 272.258317 
L 102.708132 271.503062 
L 103.269713 271.503062 
L 103.269713 270.621931 
L 103.815014 270.621931 
L 103.815014 269.7408 
L 104.344952 269.7408 
L 104.344952 267.726786 
L 104.860369 267.726786 
L 104.860369 266.342152 
L 105.36204 266.342152 
L 105.36204 266.0904 
L 105.850679 266.0904 
L 105.850679 265.461021 
L 106.326946 265.461021 
L 106.326946 263.824634 
L 106.791453 263.824634 
L 106.791453 263.447007 
L 107.244765 263.447007 
L 107.244765 262.691752 
L 107.68741 262.691752 
L 107.68741 262.44 
L 108.119879 262.44 
L 108.119879 262.062372 
L 108.542628 262.062372 
L 108.542628 260.551862 
L 109.360651 260.551862 
L 109.360651 259.418979 
L 109.756698 259.418979 
L 109.756698 258.7896 
L 110.144579 258.7896 
L 110.144579 257.908469 
L 110.524623 257.908469 
L 110.524623 256.901462 
L 110.897141 256.901462 
L 110.897141 256.64971 
L 111.262425 256.64971 
L 111.262425 256.523834 
L 111.620752 256.523834 
L 111.620752 256.020331 
L 111.97238 256.020331 
L 111.97238 255.894455 
L 112.317555 255.894455 
L 112.317555 255.265076 
L 112.656511 255.265076 
L 112.656511 255.013324 
L 112.989468 255.013324 
L 112.989468 254.887448 
L 113.316634 254.887448 
L 113.316634 254.761572 
L 113.638206 254.761572 
L 113.638206 254.006317 
L 113.954374 254.006317 
L 113.954374 253.502814 
L 360.8064 253.502814 
" style="fill: none; stroke: #6495ed; stroke-width: 1.5; stroke-linecap: square"/>
   </g>
   <g id="line2d_46">
    <defs>
     <path id="m1285154b69" d="M -0 6 
L 6 -6 
L -6 -6 
z
" style="stroke: #6495ed; stroke-width: 1.5; stroke-linejoin: miter"/>
    </defs>
    <g>
     <use xlink:href="#m1285154b69" x="113.954374" y="254.006317" style="fill-opacity: 0; stroke: #6495ed; stroke-width: 1.5; stroke-linejoin: miter"/>
     <use xlink:href="#m1285154b69" x="113.954374" y="254.006317" style="fill-opacity: 0; stroke: #6495ed; stroke-width: 1.5; stroke-linejoin: miter"/>
     <use xlink:href="#m1285154b69" x="113.954374" y="253.502814" style="fill-opacity: 0; stroke: #6495ed; stroke-width: 1.5; stroke-linejoin: miter"/>
     <use xlink:href="#m1285154b69" x="113.954374" y="253.502814" style="fill-opacity: 0; stroke: #6495ed; stroke-width: 1.5; stroke-linejoin: miter"/>
     <use xlink:href="#m1285154b69" x="113.954374" y="253.502814" style="fill-opacity: 0; stroke: #6495ed; stroke-width: 1.5; stroke-linejoin: miter"/>
     <use xlink:href="#m1285154b69" x="360.8064" y="253.502814" style="fill-opacity: 0; stroke: #6495ed; stroke-width: 1.5; stroke-linejoin: miter"/>
    </g>
   </g>
   <g id="line2d_47">
    <path style="fill: none; stroke: #6495ed; stroke-width: 1.5; stroke-linecap: square"/>
    <g/>
   </g>
   <g id="line2d_48">
    <path d="M 113.954374 253.502814 
" clip-path="url(#p3191f77fb7)" style="fill: none; stroke: #6495ed; stroke-width: 1.5; stroke-linecap: square"/>
    <defs>
     <path id="m975d941cca" d="M -12 12 
L 12 -12 
M -12 -12 
L 12 12 
" style="stroke: #6495ed"/>
    </defs>
    <g clip-path="url(#p3191f77fb7)">
     <use xlink:href="#m975d941cca" x="113.954374" y="253.502814" style="fill: #6495ed; stroke: #6495ed"/>
    </g>
   </g>
   <g id="line2d_49">
    <path d="M 360.8064 281.699007 
L 380.514816 293.10336 
" style="fill: none; stroke: #000080; stroke-width: 1.5; stroke-linecap: square"/>
    <g>
     <use xlink:href="#m892245de1f" x="360.8064" y="281.699007" style="fill-opacity: 0; stroke: #000080; stroke-width: 1.5"/>
     <use xlink:href="#m892245de1f" x="380.514816" y="293.10336" style="fill-opacity: 0; stroke: #000080; stroke-width: 1.5"/>
    </g>
   </g>
   <g id="line2d_50">
    <path d="M 360.8064 253.502814 
L 380.514816 199.65312 
" style="fill: none; stroke: #6495ed; stroke-width: 1.5; stroke-linecap: square"/>
    <g>
     <use xlink:href="#m1285154b69" x="360.8064" y="253.502814" style="fill-opacity: 0; stroke: #6495ed; stroke-width: 1.5; stroke-linejoin: miter"/>
     <use xlink:href="#m1285154b69" x="380.514816" y="199.65312" style="fill-opacity: 0; stroke: #6495ed; stroke-width: 1.5; stroke-linejoin: miter"/>
    </g>
   </g>
   <g id="line2d_51">
    <path d="M 360.8064 122.591917 
L 380.514816 106.20288 
" style="fill: none; stroke: #ff00ff; stroke-width: 1.5; stroke-linecap: square"/>
    <g>
     <use xlink:href="#m2c9b021e77" x="360.8064" y="122.591917" style="fill-opacity: 0; stroke: #ff00ff; stroke-width: 1.5; stroke-linejoin: miter"/>
     <use xlink:href="#m2c9b021e77" x="380.514816" y="106.20288" style="fill-opacity: 0; stroke: #ff00ff; stroke-width: 1.5; stroke-linejoin: miter"/>
    </g>
   </g>
   <g id="line2d_52">
    <path d="M 360.8064 298.944 
L 360.8064 6.912 
" style="fill: none; stroke: #000000; stroke-width: 1.5; stroke-linecap: square"/>
   </g>
   <g id="patch_3">
    <path d="M 57.6 298.944 
L 360.8064 298.944 
" style="fill: none; stroke: #000000; stroke-width: 0.8; stroke-linejoin: miter; stroke-linecap: square"/>
   </g>
   <g id="patch_4">
    <path d="M 57.6 6.912 
L 360.8064 6.912 
" style="fill: none; stroke: #000000; stroke-width: 0.8; stroke-linejoin: miter; stroke-linecap: square"/>
   </g>
   <g id="text_13">
    <!-- cma -->
    <g transform="translate(386.578944 296.966485)scale(0.14 -0.14)">
     <use xlink:href="#DejaVuSans-63"/>
     <use xlink:href="#DejaVuSans-6d" x="54.980469"/>
     <use xlink:href="#DejaVuSans-61" x="152.392578"/>
    </g>
   </g>
   <g id="text_14">
    <!-- parEgo -->
    <g transform="translate(386.578944 203.516245)scale(0.14 -0.14)">
     <defs>
      <path id="DejaVuSans-45" d="M 628 4666 
L 3578 4666 
L 3578 4134 
L 1259 4134 
L 1259 2753 
L 3481 2753 
L 3481 2222 
L 1259 2222 
L 1259 531 
L 3634 531 
L 3634 0 
L 628 0 
L 628 4666 
z
" transform="scale(0.015625)"/>
     </defs>
     <use xlink:href="#DejaVuSans-70"/>
     <use xlink:href="#DejaVuSans-61" x="63.476562"/>
     <use xlink:href="#DejaVuSans-72" x="124.755859"/>
     <use xlink:href="#DejaVuSans-45" x="165.869141"/>
     <use xlink:href="#DejaVuSans-67" x="229.052734"/>
     <use xlink:href="#DejaVuSans-6f" x="292.529297"/>
    </g>
   </g>
   <g id="text_15">
    <!-- external- -->
    <g transform="translate(386.578944 110.066005)scale(0.14 -0.14)">
     <defs>
      <path id="DejaVuSans-78" d="M 3513 3500 
L 2247 1797 
L 3578 0 
L 2900 0 
L 1881 1375 
L 863 0 
L 184 0 
L 1544 1831 
L 300 3500 
L 978 3500 
L 1906 2253 
L 2834 3500 
L 3513 3500 
z
" transform="scale(0.015625)"/>
     </defs>
     <use xlink:href="#DejaVuSans-65"/>
     <use xlink:href="#DejaVuSans-78" x="59.773438"/>
     <use xlink:href="#DejaVuSans-74" x="118.953125"/>
     <use xlink:href="#DejaVuSans-65" x="158.162109"/>
     <use xlink:href="#DejaVuSans-72" x="219.685547"/>
     <use xlink:href="#DejaVuSans-6e" x="259.048828"/>
     <use xlink:href="#DejaVuSans-61" x="322.427734"/>
     <use xlink:href="#DejaVuSans-6c" x="383.707031"/>
     <use xlink:href="#DejaVuSans-2d" x="411.490234"/>
    </g>
   </g>
   <g id="text_16">
    <!-- best 2016 -->
    <g transform="translate(386.578944 16.615765)scale(0.14 -0.14)">
     <defs>
      <path id="DejaVuSans-62" d="M 3116 1747 
Q 3116 2381 2855 2742 
Q 2594 3103 2138 3103 
Q 1681 3103 1420 2742 
Q 1159 2381 1159 1747 
Q 1159 1113 1420 752 
Q 1681 391 2138 391 
Q 2594 391 2855 752 
Q 3116 1113 3116 1747 
z
M 1159 2969 
Q 1341 3281 1617 3432 
Q 1894 3584 2278 3584 
Q 2916 3584 3314 3078 
Q 3713 2572 3713 1747 
Q 3713 922 3314 415 
Q 2916 -91 2278 -91 
Q 1894 -91 1617 61 
Q 1341 213 1159 525 
L 1159 0 
L 581 0 
L 581 4863 
L 1159 4863 
L 1159 2969 
z
" transform="scale(0.015625)"/>
     </defs>
     <use xlink:href="#DejaVuSans-62"/>
     <use xlink:href="#DejaVuSans-65" x="63.476562"/>
     <use xlink:href="#DejaVuSans-73" x="125"/>
     <use xlink:href="#DejaVuSans-74" x="177.099609"/>
     <use xlink:href="#DejaVuSans-20" x="216.308594"/>
     <use xlink:href="#DejaVuSans-32" x="248.095703"/>
     <use xlink:href="#DejaVuSans-30" x="311.71875"/>
     <use xlink:href="#DejaVuSans-31" x="375.341797"/>
     <use xlink:href="#DejaVuSans-36" x="438.964844"/>
    </g>
   </g>
   <g id="text_17">
    <!-- bbob-biobj f39, f40, f44, f45, 3-D -->
    <g transform="translate(60.632064 17.582726)scale(0.102 -0.102)">
     <defs>
      <path id="DejaVuSans-6a" d="M 603 3500 
L 1178 3500 
L 1178 -63 
Q 1178 -731 923 -1031 
Q 669 -1331 103 -1331 
L -116 -1331 
L -116 -844 
L 38 -844 
Q 366 -844 484 -692 
Q 603 -541 603 -63 
L 603 3500 
z
M 603 4863 
L 1178 4863 
L 1178 4134 
L 603 4134 
L 603 4863 
z
" transform="scale(0.015625)"/>
      <path id="DejaVuSans-33" d="M 2597 2516 
Q 3050 2419 3304 2112 
Q 3559 1806 3559 1356 
Q 3559 666 3084 287 
Q 2609 -91 1734 -91 
Q 1441 -91 1130 -33 
Q 819 25 488 141 
L 488 750 
Q 750 597 1062 519 
Q 1375 441 1716 441 
Q 2309 441 2620 675 
Q 2931 909 2931 1356 
Q 2931 1769 2642 2001 
Q 2353 2234 1838 2234 
L 1294 2234 
L 1294 2753 
L 1863 2753 
Q 2328 2753 2575 2939 
Q 2822 3125 2822 3475 
Q 2822 3834 2567 4026 
Q 2313 4219 1838 4219 
Q 1578 4219 1281 4162 
Q 984 4106 628 3988 
L 628 4550 
Q 988 4650 1302 4700 
Q 1616 4750 1894 4750 
Q 2613 4750 3031 4423 
Q 3450 4097 3450 3541 
Q 3450 3153 3228 2886 
Q 3006 2619 2597 2516 
z
" transform="scale(0.015625)"/>
      <path id="DejaVuSans-39" d="M 703 97 
L 703 672 
Q 941 559 1184 500 
Q 1428 441 1663 441 
Q 2288 441 2617 861 
Q 2947 1281 2994 2138 
Q 2813 1869 2534 1725 
Q 2256 1581 1919 1581 
Q 1219 1581 811 2004 
Q 403 2428 403 3163 
Q 403 3881 828 4315 
Q 1253 4750 1959 4750 
Q 2769 4750 3195 4129 
Q 3622 3509 3622 2328 
Q 3622 1225 3098 567 
Q 2575 -91 1691 -91 
Q 1453 -91 1209 -44 
Q 966 3 703 97 
z
M 1959 2075 
Q 2384 2075 2632 2365 
Q 2881 2656 2881 3163 
Q 2881 3666 2632 3958 
Q 2384 4250 1959 4250 
Q 1534 4250 1286 3958 
Q 1038 3666 1038 3163 
Q 1038 2656 1286 2365 
Q 1534 2075 1959 2075 
z
" transform="scale(0.015625)"/>
      <path id="DejaVuSans-35" d="M 691 4666 
L 3169 4666 
L 3169 4134 
L 1269 4134 
L 1269 2991 
Q 1406 3038 1543 3061 
Q 1681 3084 1819 3084 
Q 2600 3084 3056 2656 
Q 3513 2228 3513 1497 
Q 3513 744 3044 326 
Q 2575 -91 1722 -91 
Q 1428 -91 1123 -41 
Q 819 9 494 109 
L 494 744 
Q 775 591 1075 516 
Q 1375 441 1709 441 
Q 2250 441 2565 725 
Q 2881 1009 2881 1497 
Q 2881 1984 2565 2268 
Q 2250 2553 1709 2553 
Q 1456 2553 1204 2497 
Q 953 2441 691 2322 
L 691 4666 
z
" transform="scale(0.015625)"/>
      <path id="DejaVuSans-44" d="M 1259 4147 
L 1259 519 
L 2022 519 
Q 2988 519 3436 956 
Q 3884 1394 3884 2338 
Q 3884 3275 3436 3711 
Q 2988 4147 2022 4147 
L 1259 4147 
z
M 628 4666 
L 1925 4666 
Q 3281 4666 3915 4102 
Q 4550 3538 4550 2338 
Q 4550 1131 3912 565 
Q 3275 0 1925 0 
L 628 0 
L 628 4666 
z
" transform="scale(0.015625)"/>
     </defs>
     <use xlink:href="#DejaVuSans-62"/>
     <use xlink:href="#DejaVuSans-62" x="63.476562"/>
     <use xlink:href="#DejaVuSans-6f" x="126.953125"/>
     <use xlink:href="#DejaVuSans-62" x="188.134766"/>
     <use xlink:href="#DejaVuSans-2d" x="251.611328"/>
     <use xlink:href="#DejaVuSans-62" x="287.695312"/>
     <use xlink:href="#DejaVuSans-69" x="351.171875"/>
     <use xlink:href="#DejaVuSans-6f" x="378.955078"/>
     <use xlink:href="#DejaVuSans-62" x="440.136719"/>
     <use xlink:href="#DejaVuSans-6a" x="503.613281"/>
     <use xlink:href="#DejaVuSans-20" x="531.396484"/>
     <use xlink:href="#DejaVuSans-66" x="563.183594"/>
     <use xlink:href="#DejaVuSans-33" x="598.388672"/>
     <use xlink:href="#DejaVuSans-39" x="662.011719"/>
     <use xlink:href="#DejaVuSans-2c" x="725.634766"/>
     <use xlink:href="#DejaVuSans-20" x="757.421875"/>
     <use xlink:href="#DejaVuSans-66" x="789.208984"/>
     <use xlink:href="#DejaVuSans-34" x="824.414062"/>
     <use xlink:href="#DejaVuSans-30" x="888.037109"/>
     <use xlink:href="#DejaVuSans-2c" x="951.660156"/>
     <use xlink:href="#DejaVuSans-20" x="983.447266"/>
     <use xlink:href="#DejaVuSans-66" x="1015.234375"/>
     <use xlink:href="#DejaVuSans-34" x="1050.439453"/>
     <use xlink:href="#DejaVuSans-34" x="1114.0625"/>
     <use xlink:href="#DejaVuSans-2c" x="1177.685547"/>
     <use xlink:href="#DejaVuSans-20" x="1209.472656"/>
     <use xlink:href="#DejaVuSans-66" x="1241.259766"/>
     <use xlink:href="#DejaVuSans-34" x="1276.464844"/>
     <use xlink:href="#DejaVuSans-35" x="1340.087891"/>
     <use xlink:href="#DejaVuSans-2c" x="1403.710938"/>
     <use xlink:href="#DejaVuSans-20" x="1435.498047"/>
     <use xlink:href="#DejaVuSans-33" x="1467.285156"/>
     <use xlink:href="#DejaVuSans-2d" x="1530.908203"/>
     <use xlink:href="#DejaVuSans-44" x="1566.992188"/>
    </g>
    <!-- 58 targets: 1..-1.0e-4 -->
    <g transform="translate(60.632064 29.004495)scale(0.102 -0.102)">
     <defs>
      <path id="DejaVuSans-3a" d="M 750 794 
L 1409 794 
L 1409 0 
L 750 0 
L 750 794 
z
M 750 3309 
L 1409 3309 
L 1409 2516 
L 750 2516 
L 750 3309 
z
" transform="scale(0.015625)"/>
     </defs>
     <use xlink:href="#DejaVuSans-35"/>
     <use xlink:href="#DejaVuSans-38" x="63.623047"/>
     <use xlink:href="#DejaVuSans-20" x="127.246094"/>
     <use xlink:href="#DejaVuSans-74" x="159.033203"/>
     <use xlink:href="#DejaVuSans-61" x="198.242188"/>
     <use xlink:href="#DejaVuSans-72" x="259.521484"/>
     <use xlink:href="#DejaVuSans-67" x="298.884766"/>
     <use xlink:href="#DejaVuSans-65" x="362.361328"/>
     <use xlink:href="#DejaVuSans-74" x="423.884766"/>
     <use xlink:href="#DejaVuSans-73" x="463.09375"/>
     <use xlink:href="#DejaVuSans-3a" x="515.193359"/>
     <use xlink:href="#DejaVuSans-20" x="548.884766"/>
     <use xlink:href="#DejaVuSans-31" x="580.671875"/>
     <use xlink:href="#DejaVuSans-2e" x="644.294922"/>
     <use xlink:href="#DejaVuSans-2e" x="676.082031"/>
     <use xlink:href="#DejaVuSans-2d" x="707.869141"/>
     <use xlink:href="#DejaVuSans-31" x="743.953125"/>
     <use xlink:href="#DejaVuSans-2e" x="807.576172"/>
     <use xlink:href="#DejaVuSans-30" x="839.363281"/>
     <use xlink:href="#DejaVuSans-65" x="902.986328"/>
     <use xlink:href="#DejaVuSans-2d" x="964.509766"/>
     <use xlink:href="#DejaVuSans-34" x="1000.59375"/>
    </g>
    <!-- 10 instances -->
    <g transform="translate(60.632064 40.426264)scale(0.102 -0.102)">
     <use xlink:href="#DejaVuSans-31"/>
     <use xlink:href="#DejaVuSans-30" x="63.623047"/>
     <use xlink:href="#DejaVuSans-20" x="127.246094"/>
     <use xlink:href="#DejaVuSans-69" x="159.033203"/>
     <use xlink:href="#DejaVuSans-6e" x="186.816406"/>
     <use xlink:href="#DejaVuSans-73" x="250.195312"/>
     <use xlink:href="#DejaVuSans-74" x="302.294922"/>
     <use xlink:href="#DejaVuSans-61" x="341.503906"/>
     <use xlink:href="#DejaVuSans-6e" x="402.783203"/>
     <use xlink:href="#DejaVuSans-63" x="466.162109"/>
     <use xlink:href="#DejaVuSans-65" x="521.142578"/>
     <use xlink:href="#DejaVuSans-73" x="582.666016"/>
    </g>
   </g>
   <g id="text_18">
    <!-- v2.6, hv-hash=ff0e71e8cd978373 -->
    <g style="fill: #808080" transform="translate(123.707887 293.943992)scale(0.1 -0.1)">
     <defs>
      <path id="DejaVuSans-68" d="M 3513 2113 
L 3513 0 
L 2938 0 
L 2938 2094 
Q 2938 2591 2744 2837 
Q 2550 3084 2163 3084 
Q 1697 3084 1428 2787 
Q 1159 2491 1159 1978 
L 1159 0 
L 581 0 
L 581 4863 
L 1159 4863 
L 1159 2956 
Q 1366 3272 1645 3428 
Q 1925 3584 2291 3584 
Q 2894 3584 3203 3211 
Q 3513 2838 3513 2113 
z
" transform="scale(0.015625)"/>
      <path id="DejaVuSans-3d" d="M 678 2906 
L 4684 2906 
L 4684 2381 
L 678 2381 
L 678 2906 
z
M 678 1631 
L 4684 1631 
L 4684 1100 
L 678 1100 
L 678 1631 
z
" transform="scale(0.015625)"/>
      <path id="DejaVuSans-37" d="M 525 4666 
L 3525 4666 
L 3525 4397 
L 1831 0 
L 1172 0 
L 2766 4134 
L 525 4134 
L 525 4666 
z
" transform="scale(0.015625)"/>
     </defs>
     <use xlink:href="#DejaVuSans-76"/>
     <use xlink:href="#DejaVuSans-32" x="59.179688"/>
     <use xlink:href="#DejaVuSans-2e" x="122.802734"/>
     <use xlink:href="#DejaVuSans-36" x="154.589844"/>
     <use xlink:href="#DejaVuSans-2c" x="218.212891"/>
     <use xlink:href="#DejaVuSans-20" x="250"/>
     <use xlink:href="#DejaVuSans-68" x="281.787109"/>
     <use xlink:href="#DejaVuSans-76" x="345.166016"/>
     <use xlink:href="#DejaVuSans-2d" x="401.720703"/>
     <use xlink:href="#DejaVuSans-68" x="437.804688"/>
     <use xlink:href="#DejaVuSans-61" x="501.183594"/>
     <use xlink:href="#DejaVuSans-73" x="562.462891"/>
     <use xlink:href="#DejaVuSans-68" x="614.5625"/>
     <use xlink:href="#DejaVuSans-3d" x="677.941406"/>
     <use xlink:href="#DejaVuSans-66" x="761.730469"/>
     <use xlink:href="#DejaVuSans-66" x="796.935547"/>
     <use xlink:href="#DejaVuSans-30" x="832.140625"/>
     <use xlink:href="#DejaVuSans-65" x="895.763672"/>
     <use xlink:href="#DejaVuSans-37" x="957.287109"/>
     <use xlink:href="#DejaVuSans-31" x="1020.910156"/>
     <use xlink:href="#DejaVuSans-65" x="1084.533203"/>
     <use xlink:href="#DejaVuSans-38" x="1146.056641"/>
     <use xlink:href="#DejaVuSans-63" x="1209.679688"/>
     <use xlink:href="#DejaVuSans-64" x="1264.660156"/>
     <use xlink:href="#DejaVuSans-39" x="1328.136719"/>
     <use xlink:href="#DejaVuSans-37" x="1391.759766"/>
     <use xlink:href="#DejaVuSans-38" x="1455.382812"/>
     <use xlink:href="#DejaVuSans-33" x="1519.005859"/>
     <use xlink:href="#DejaVuSans-37" x="1582.628906"/>
     <use xlink:href="#DejaVuSans-33" x="1646.251953"/>
    </g>
   </g>
  </g>
 </g>
 <defs>
  <clipPath id="p3191f77fb7">
   <rect x="57.6" y="6.912" width="303.2064" height="292.032"/>
  </clipPath>
 </defs>
</svg>
