<?xml version="1.0" encoding="utf-8" standalone="no"?>
<!DOCTYPE svg PUBLIC "-//W3C//DTD SVG 1.1//EN"
  "http://www.w3.org/Graphics/SVG/1.1/DTD/svg11.dtd">
<svg xmlns:xlink="http://www.w3.org/1999/xlink" width="460.8pt" height="345.6pt" viewBox="0 0 460.8 345.6" xmlns="http://www.w3.org/2000/svg" version="1.1">
 <metadata>
  <rdf:RDF xmlns:dc="http://purl.org/dc/elements/1.1/" xmlns:cc="http://creativecommons.org/ns#" xmlns:rdf="http://www.w3.org/1999/02/22-rdf-syntax-ns#">
   <cc:Work>
    <dc:type rdf:resource="http://purl.org/dc/dcmitype/StillImage"/>
    <dc:date>2022-06-19T21:02:51.985626</dc:date>
    <dc:format>image/svg+xml</dc:format>
    <dc:creator>
     <cc:Agent>
      <dc:title>Matplotlib v3.5.1, https://matplotlib.org/</dc:title>
     </cc:Agent>
    </dc:creator>
   </cc:Work>
  </rdf:RDF>
 </metadata>
 <defs>
  <style type="text/css">*{stroke-linejoin: round; stroke-linecap: butt}</style>
 </defs>
 <g id="figure_1">
  <g id="patch_1">
   <path d="M 0 345.6 
L 460.8 345.6 
L 460.8 0 
L 0 0 
z
" style="fill: #ffffff"/>
  </g>
  <g id="axes_1">
   <g id="patch_2">
    <path d="M 57.6 298.944 
L 360.8064 298.944 
L 360.8064 6.912 
L 57.6 6.912 
z
" style="fill: #ffffff"/>
   </g>
   <g id="line2d_1">
    <path d="M 49.972572 298.944 
L 49.972572 297.685241 
L 63.011746 297.685241 
L 63.011746 296.426483 
L 76.050921 296.426483 
L 76.050921 290.13269 
L 83.678349 290.13269 
L 83.678349 288.873931 
L 91.305777 288.873931 
L 91.305777 286.356414 
L 92.322865 286.356414 
L 92.322865 283.838897 
L 100.277459 283.838897 
L 100.277459 281.321379 
L 102.708132 281.321379 
L 102.708132 278.803862 
L 105.36204 278.803862 
L 105.36204 276.286345 
L 112.656511 276.286345 
L 112.656511 273.768828 
L 117.6436 273.768828 
L 117.6436 272.510069 
L 141.682602 272.510069 
L 141.682602 271.25131 
L 143.721949 271.25131 
L 143.721949 267.475034 
L 145.326529 267.475034 
L 145.326529 266.216276 
L 147.397049 266.216276 
L 147.397049 264.957517 
L 149.73597 264.957517 
L 149.73597 261.181241 
L 154.468783 261.181241 
L 154.577625 254.887448 
L 158.542339 254.887448 
L 158.542339 251.111172 
L 159.062507 251.111172 
L 159.062507 248.593655 
L 163.777449 248.593655 
L 163.777449 247.334897 
L 165.432746 247.334897 
L 165.432746 244.817379 
L 165.834717 244.817379 
L 165.834717 242.299862 
L 167.886182 242.299862 
L 167.886182 241.041103 
L 174.468765 241.041103 
L 174.468765 239.782345 
L 175.872722 239.782345 
L 175.872722 237.264828 
L 176.627113 237.264828 
L 176.627113 236.006069 
L 180.318334 236.006069 
L 180.318334 233.488552 
L 181.745276 233.488552 
L 181.745276 230.971034 
L 186.119652 230.971034 
L 186.119652 227.194759 
L 189.463527 227.194759 
L 189.463527 224.677241 
L 190.696345 224.677241 
L 190.696345 220.900966 
L 191.888193 220.900966 
L 191.888193 217.12469 
L 192.653928 217.12469 
L 192.653928 214.607172 
L 195.4634 214.607172 
L 195.4634 210.830897 
L 199.652842 210.830897 
L 199.652842 208.313379 
L 201.633519 208.313379 
L 201.633519 205.795862 
L 202.366303 205.795862 
L 202.366303 203.278345 
L 202.612801 203.278345 
L 202.612801 200.760828 
L 206.389776 200.760828 
L 206.486245 195.725793 
L 208.145198 195.725793 
L 208.145198 193.208276 
L 215.720813 193.208276 
L 215.720813 190.690759 
L 216.51301 190.690759 
L 216.51301 188.173241 
L 217.560218 188.173241 
L 217.560218 185.655724 
L 218.151061 185.655724 
L 218.151061 183.138207 
L 229.322909 183.138207 
L 229.322909 181.879448 
L 229.457837 181.879448 
L 229.457837 180.62069 
L 229.76807 180.62069 
L 229.76807 176.844414 
L 232.261469 176.844414 
L 232.261469 175.585655 
L 238.955589 175.585655 
L 238.955589 171.809379 
L 246.291521 171.809379 
L 246.291521 168.033103 
L 247.091247 168.033103 
L 247.091247 166.774345 
L 249.01117 166.774345 
L 249.01117 165.515586 
L 252.531021 165.515586 
L 252.531021 164.256828 
L 254.484102 164.256828 
L 254.484102 160.480552 
L 255.418601 160.480552 
L 255.418601 156.704276 
L 259.895313 156.704276 
L 259.895313 155.445517 
L 260.511794 155.445517 
L 260.511794 154.186759 
L 262.310525 154.186759 
L 262.310525 151.669241 
L 262.763714 151.669241 
L 262.763714 147.892966 
L 264.393132 147.892966 
L 264.393132 144.11669 
L 267.374438 144.11669 
L 267.374438 140.340414 
L 269.634875 140.340414 
L 269.634875 137.822897 
L 269.85273 137.822897 
L 269.85273 135.305379 
L 271.04411 135.305379 
L 271.119726 132.787862 
L 273.896972 132.787862 
L 273.896972 129.011586 
L 276.320873 129.011586 
L 276.320873 127.752828 
L 279.019124 127.752828 
L 279.019124 126.494069 
L 279.526792 126.494069 
L 279.526792 123.976552 
L 280.15849 123.976552 
L 280.15849 120.200276 
L 281.132662 120.200276 
L 281.132662 116.424 
L 281.475481 116.424 
L 281.475481 115.165241 
L 282.587639 115.165241 
L 282.587639 112.647724 
L 288.144754 112.647724 
L 288.144754 110.130207 
L 288.331524 110.130207 
L 288.331524 106.353931 
L 288.835218 106.353931 
L 288.835218 102.577655 
L 291.272623 102.577655 
L 291.272623 101.318897 
L 293.655045 101.318897 
L 293.655045 100.060138 
L 294.714857 100.060138 
L 294.714857 98.801379 
L 296.672552 98.801379 
L 296.672552 97.542621 
L 298.690412 97.542621 
L 298.690412 93.766345 
L 300.375091 93.766345 
L 300.375091 89.990069 
L 300.698274 89.990069 
L 300.698274 87.472552 
L 301.428726 87.472552 
L 301.428726 83.696276 
L 301.918912 83.696276 
L 301.918912 79.92 
L 305.452588 79.92 
L 305.452588 77.402483 
L 306.683853 77.402483 
L 306.683853 74.884966 
L 310.293606 74.884966 
L 310.293606 72.367448 
L 310.767988 72.367448 
L 310.767988 71.10869 
L 315.86029 71.10869 
L 315.86029 68.591172 
L 315.998302 68.591172 
L 315.998302 66.073655 
L 316.188237 66.073655 
L 316.188237 62.297379 
L 316.642736 62.297379 
L 316.642736 59.779862 
L 316.876272 59.779862 
L 316.876272 58.521103 
L 317.341234 58.521103 
L 317.396913 53.486069 
L 330.557782 53.486069 
L 330.62446 48.451034 
L 331.389853 48.451034 
L 331.389853 45.933517 
L 339.030896 45.933517 
L 339.030896 42.157241 
L 360.8064 42.157241 
L 360.8064 42.157241 
" style="fill: none; stroke: #f5deb3; stroke-width: 4; stroke-linecap: square"/>
   </g>
   <g id="line2d_2">
    <defs>
     <path id="md275c9ab35" d="M 0 7.778175 
L 7.778175 0 
L 0 -7.778175 
L -7.778175 0 
z
" style="stroke: #f5deb3; stroke-width: 1.5; stroke-linejoin: miter"/>
    </defs>
    <g>
     <use xlink:href="#md275c9ab35" x="154.577625" y="257.404966" style="fill: #f5deb3; stroke: #f5deb3; stroke-width: 1.5; stroke-linejoin: miter"/>
     <use xlink:href="#md275c9ab35" x="229.457837" y="180.62069" style="fill: #f5deb3; stroke: #f5deb3; stroke-width: 1.5; stroke-linejoin: miter"/>
     <use xlink:href="#md275c9ab35" x="281.475481" y="116.424" style="fill: #f5deb3; stroke: #f5deb3; stroke-width: 1.5; stroke-linejoin: miter"/>
     <use xlink:href="#md275c9ab35" x="316.188237" y="62.297379" style="fill: #f5deb3; stroke: #f5deb3; stroke-width: 1.5; stroke-linejoin: miter"/>
     <use xlink:href="#md275c9ab35" x="339.030896" y="42.157241" style="fill: #f5deb3; stroke: #f5deb3; stroke-width: 1.5; stroke-linejoin: miter"/>
     <use xlink:href="#md275c9ab35" x="360.8064" y="42.157241" style="fill: #f5deb3; stroke: #f5deb3; stroke-width: 1.5; stroke-linejoin: miter"/>
    </g>
   </g>
   <g id="line2d_3">
    <path style="fill: none; stroke: #f5deb3; stroke-width: 4; stroke-linecap: square"/>
    <g/>
   </g>
   <g id="line2d_4">
    <path d="M 360.8064 42.157241 
L 380.514816 12.75264 
" style="fill: none; stroke: #f5deb3; stroke-width: 4; stroke-linecap: square"/>
    <g>
     <use xlink:href="#md275c9ab35" x="360.8064" y="42.157241" style="fill: #f5deb3; stroke: #f5deb3; stroke-width: 1.5; stroke-linejoin: miter"/>
     <use xlink:href="#md275c9ab35" x="380.514816" y="12.75264" style="fill: #f5deb3; stroke: #f5deb3; stroke-width: 1.5; stroke-linejoin: miter"/>
    </g>
   </g>
   <g id="matplotlib.axis_1">
    <g id="xtick_1">
     <g id="line2d_5">
      <path d="M 57.6 298.944 
L 57.6 6.912 
" clip-path="url(#pdbeede8f31)" style="fill: none; stroke: #b0b0b0; stroke-width: 0.8; stroke-linecap: square"/>
     </g>
     <g id="line2d_6">
      <defs>
       <path id="m9511fc4701" d="M 0 0 
L 0 3.5 
" style="stroke: #000000; stroke-width: 0.8"/>
      </defs>
      <g>
       <use xlink:href="#m9511fc4701" x="57.6" y="298.944" style="stroke: #000000; stroke-width: 0.8"/>
      </g>
     </g>
     <g id="text_1">
      <!-- 0 -->
      <g transform="translate(52.191875 318.861344)scale(0.17 -0.17)">
       <defs>
        <path id="DejaVuSans-30" d="M 2034 4250 
Q 1547 4250 1301 3770 
Q 1056 3291 1056 2328 
Q 1056 1369 1301 889 
Q 1547 409 2034 409 
Q 2525 409 2770 889 
Q 3016 1369 3016 2328 
Q 3016 3291 2770 3770 
Q 2525 4250 2034 4250 
z
M 2034 4750 
Q 2819 4750 3233 4129 
Q 3647 3509 3647 2328 
Q 3647 1150 3233 529 
Q 2819 -91 2034 -91 
Q 1250 -91 836 529 
Q 422 1150 422 2328 
Q 422 3509 836 4129 
Q 1250 4750 2034 4750 
z
" transform="scale(0.015625)"/>
       </defs>
       <use xlink:href="#DejaVuSans-30"/>
      </g>
     </g>
    </g>
    <g id="xtick_2">
     <g id="line2d_7">
      <path d="M 144.2304 298.944 
L 144.2304 6.912 
" clip-path="url(#pdbeede8f31)" style="fill: none; stroke: #b0b0b0; stroke-width: 0.8; stroke-linecap: square"/>
     </g>
     <g id="line2d_8">
      <g>
       <use xlink:href="#m9511fc4701" x="144.2304" y="298.944" style="stroke: #000000; stroke-width: 0.8"/>
      </g>
     </g>
     <g id="text_2">
      <!-- 2 -->
      <g transform="translate(138.822275 318.861344)scale(0.17 -0.17)">
       <defs>
        <path id="DejaVuSans-32" d="M 1228 531 
L 3431 531 
L 3431 0 
L 469 0 
L 469 531 
Q 828 903 1448 1529 
Q 2069 2156 2228 2338 
Q 2531 2678 2651 2914 
Q 2772 3150 2772 3378 
Q 2772 3750 2511 3984 
Q 2250 4219 1831 4219 
Q 1534 4219 1204 4116 
Q 875 4013 500 3803 
L 500 4441 
Q 881 4594 1212 4672 
Q 1544 4750 1819 4750 
Q 2544 4750 2975 4387 
Q 3406 4025 3406 3419 
Q 3406 3131 3298 2873 
Q 3191 2616 2906 2266 
Q 2828 2175 2409 1742 
Q 1991 1309 1228 531 
z
" transform="scale(0.015625)"/>
       </defs>
       <use xlink:href="#DejaVuSans-32"/>
      </g>
     </g>
    </g>
    <g id="xtick_3">
     <g id="line2d_9">
      <path d="M 230.8608 298.944 
L 230.8608 6.912 
" clip-path="url(#pdbeede8f31)" style="fill: none; stroke: #b0b0b0; stroke-width: 0.8; stroke-linecap: square"/>
     </g>
     <g id="line2d_10">
      <g>
       <use xlink:href="#m9511fc4701" x="230.8608" y="298.944" style="stroke: #000000; stroke-width: 0.8"/>
      </g>
     </g>
     <g id="text_3">
      <!-- 4 -->
      <g transform="translate(225.452675 318.861344)scale(0.17 -0.17)">
       <defs>
        <path id="DejaVuSans-34" d="M 2419 4116 
L 825 1625 
L 2419 1625 
L 2419 4116 
z
M 2253 4666 
L 3047 4666 
L 3047 1625 
L 3713 1625 
L 3713 1100 
L 3047 1100 
L 3047 0 
L 2419 0 
L 2419 1100 
L 313 1100 
L 313 1709 
L 2253 4666 
z
" transform="scale(0.015625)"/>
       </defs>
       <use xlink:href="#DejaVuSans-34"/>
      </g>
     </g>
    </g>
    <g id="xtick_4">
     <g id="line2d_11">
      <path d="M 317.4912 298.944 
L 317.4912 6.912 
" clip-path="url(#pdbeede8f31)" style="fill: none; stroke: #b0b0b0; stroke-width: 0.8; stroke-linecap: square"/>
     </g>
     <g id="line2d_12">
      <g>
       <use xlink:href="#m9511fc4701" x="317.4912" y="298.944" style="stroke: #000000; stroke-width: 0.8"/>
      </g>
     </g>
     <g id="text_4">
      <!-- 6 -->
      <g transform="translate(312.083075 318.861344)scale(0.17 -0.17)">
       <defs>
        <path id="DejaVuSans-36" d="M 2113 2584 
Q 1688 2584 1439 2293 
Q 1191 2003 1191 1497 
Q 1191 994 1439 701 
Q 1688 409 2113 409 
Q 2538 409 2786 701 
Q 3034 994 3034 1497 
Q 3034 2003 2786 2293 
Q 2538 2584 2113 2584 
z
M 3366 4563 
L 3366 3988 
Q 3128 4100 2886 4159 
Q 2644 4219 2406 4219 
Q 1781 4219 1451 3797 
Q 1122 3375 1075 2522 
Q 1259 2794 1537 2939 
Q 1816 3084 2150 3084 
Q 2853 3084 3261 2657 
Q 3669 2231 3669 1497 
Q 3669 778 3244 343 
Q 2819 -91 2113 -91 
Q 1303 -91 875 529 
Q 447 1150 447 2328 
Q 447 3434 972 4092 
Q 1497 4750 2381 4750 
Q 2619 4750 2861 4703 
Q 3103 4656 3366 4563 
z
" transform="scale(0.015625)"/>
       </defs>
       <use xlink:href="#DejaVuSans-36"/>
      </g>
     </g>
    </g>
    <g id="xtick_5">
     <g id="line2d_13">
      <path d="M 100.9152 298.944 
L 100.9152 6.912 
" clip-path="url(#pdbeede8f31)" style="fill: none; stroke: #b0b0b0; stroke-width: 0.8; stroke-linecap: square"/>
     </g>
     <g id="line2d_14">
      <defs>
       <path id="me8ebdadf13" d="M 0 0 
L 0 2 
" style="stroke: #000000; stroke-width: 0.6"/>
      </defs>
      <g>
       <use xlink:href="#me8ebdadf13" x="100.9152" y="298.944" style="stroke: #000000; stroke-width: 0.6"/>
      </g>
     </g>
    </g>
    <g id="xtick_6">
     <g id="line2d_15">
      <path d="M 187.5456 298.944 
L 187.5456 6.912 
" clip-path="url(#pdbeede8f31)" style="fill: none; stroke: #b0b0b0; stroke-width: 0.8; stroke-linecap: square"/>
     </g>
     <g id="line2d_16">
      <g>
       <use xlink:href="#me8ebdadf13" x="187.5456" y="298.944" style="stroke: #000000; stroke-width: 0.6"/>
      </g>
     </g>
    </g>
    <g id="xtick_7">
     <g id="line2d_17">
      <path d="M 274.176 298.944 
L 274.176 6.912 
" clip-path="url(#pdbeede8f31)" style="fill: none; stroke: #b0b0b0; stroke-width: 0.8; stroke-linecap: square"/>
     </g>
     <g id="line2d_18">
      <g>
       <use xlink:href="#me8ebdadf13" x="274.176" y="298.944" style="stroke: #000000; stroke-width: 0.6"/>
      </g>
     </g>
    </g>
    <g id="xtick_8">
     <g id="line2d_19">
      <path d="M 360.8064 298.944 
L 360.8064 6.912 
" clip-path="url(#pdbeede8f31)" style="fill: none; stroke: #b0b0b0; stroke-width: 0.8; stroke-linecap: square"/>
     </g>
     <g id="line2d_20">
      <g>
       <use xlink:href="#me8ebdadf13" x="360.8064" y="298.944" style="stroke: #000000; stroke-width: 0.6"/>
      </g>
     </g>
    </g>
    <g id="text_5">
     <!-- log10(# f-evals / dimension) -->
     <g transform="translate(88.823278 339.314156)scale(0.17 -0.17)">
      <defs>
       <path id="DejaVuSans-6c" d="M 603 4863 
L 1178 4863 
L 1178 0 
L 603 0 
L 603 4863 
z
" transform="scale(0.015625)"/>
       <path id="DejaVuSans-6f" d="M 1959 3097 
Q 1497 3097 1228 2736 
Q 959 2375 959 1747 
Q 959 1119 1226 758 
Q 1494 397 1959 397 
Q 2419 397 2687 759 
Q 2956 1122 2956 1747 
Q 2956 2369 2687 2733 
Q 2419 3097 1959 3097 
z
M 1959 3584 
Q 2709 3584 3137 3096 
Q 3566 2609 3566 1747 
Q 3566 888 3137 398 
Q 2709 -91 1959 -91 
Q 1206 -91 779 398 
Q 353 888 353 1747 
Q 353 2609 779 3096 
Q 1206 3584 1959 3584 
z
" transform="scale(0.015625)"/>
       <path id="DejaVuSans-67" d="M 2906 1791 
Q 2906 2416 2648 2759 
Q 2391 3103 1925 3103 
Q 1463 3103 1205 2759 
Q 947 2416 947 1791 
Q 947 1169 1205 825 
Q 1463 481 1925 481 
Q 2391 481 2648 825 
Q 2906 1169 2906 1791 
z
M 3481 434 
Q 3481 -459 3084 -895 
Q 2688 -1331 1869 -1331 
Q 1566 -1331 1297 -1286 
Q 1028 -1241 775 -1147 
L 775 -588 
Q 1028 -725 1275 -790 
Q 1522 -856 1778 -856 
Q 2344 -856 2625 -561 
Q 2906 -266 2906 331 
L 2906 616 
Q 2728 306 2450 153 
Q 2172 0 1784 0 
Q 1141 0 747 490 
Q 353 981 353 1791 
Q 353 2603 747 3093 
Q 1141 3584 1784 3584 
Q 2172 3584 2450 3431 
Q 2728 3278 2906 2969 
L 2906 3500 
L 3481 3500 
L 3481 434 
z
" transform="scale(0.015625)"/>
       <path id="DejaVuSans-31" d="M 794 531 
L 1825 531 
L 1825 4091 
L 703 3866 
L 703 4441 
L 1819 4666 
L 2450 4666 
L 2450 531 
L 3481 531 
L 3481 0 
L 794 0 
L 794 531 
z
" transform="scale(0.015625)"/>
       <path id="DejaVuSans-28" d="M 1984 4856 
Q 1566 4138 1362 3434 
Q 1159 2731 1159 2009 
Q 1159 1288 1364 580 
Q 1569 -128 1984 -844 
L 1484 -844 
Q 1016 -109 783 600 
Q 550 1309 550 2009 
Q 550 2706 781 3412 
Q 1013 4119 1484 4856 
L 1984 4856 
z
" transform="scale(0.015625)"/>
       <path id="DejaVuSans-23" d="M 3272 2816 
L 2363 2816 
L 2100 1772 
L 3016 1772 
L 3272 2816 
z
M 2803 4594 
L 2478 3297 
L 3391 3297 
L 3719 4594 
L 4219 4594 
L 3897 3297 
L 4872 3297 
L 4872 2816 
L 3775 2816 
L 3519 1772 
L 4513 1772 
L 4513 1294 
L 3397 1294 
L 3072 0 
L 2572 0 
L 2894 1294 
L 1978 1294 
L 1656 0 
L 1153 0 
L 1478 1294 
L 494 1294 
L 494 1772 
L 1594 1772 
L 1856 2816 
L 850 2816 
L 850 3297 
L 1978 3297 
L 2297 4594 
L 2803 4594 
z
" transform="scale(0.015625)"/>
       <path id="DejaVuSans-20" transform="scale(0.015625)"/>
       <path id="DejaVuSans-66" d="M 2375 4863 
L 2375 4384 
L 1825 4384 
Q 1516 4384 1395 4259 
Q 1275 4134 1275 3809 
L 1275 3500 
L 2222 3500 
L 2222 3053 
L 1275 3053 
L 1275 0 
L 697 0 
L 697 3053 
L 147 3053 
L 147 3500 
L 697 3500 
L 697 3744 
Q 697 4328 969 4595 
Q 1241 4863 1831 4863 
L 2375 4863 
z
" transform="scale(0.015625)"/>
       <path id="DejaVuSans-2d" d="M 313 2009 
L 1997 2009 
L 1997 1497 
L 313 1497 
L 313 2009 
z
" transform="scale(0.015625)"/>
       <path id="DejaVuSans-65" d="M 3597 1894 
L 3597 1613 
L 953 1613 
Q 991 1019 1311 708 
Q 1631 397 2203 397 
Q 2534 397 2845 478 
Q 3156 559 3463 722 
L 3463 178 
Q 3153 47 2828 -22 
Q 2503 -91 2169 -91 
Q 1331 -91 842 396 
Q 353 884 353 1716 
Q 353 2575 817 3079 
Q 1281 3584 2069 3584 
Q 2775 3584 3186 3129 
Q 3597 2675 3597 1894 
z
M 3022 2063 
Q 3016 2534 2758 2815 
Q 2500 3097 2075 3097 
Q 1594 3097 1305 2825 
Q 1016 2553 972 2059 
L 3022 2063 
z
" transform="scale(0.015625)"/>
       <path id="DejaVuSans-76" d="M 191 3500 
L 800 3500 
L 1894 563 
L 2988 3500 
L 3597 3500 
L 2284 0 
L 1503 0 
L 191 3500 
z
" transform="scale(0.015625)"/>
       <path id="DejaVuSans-61" d="M 2194 1759 
Q 1497 1759 1228 1600 
Q 959 1441 959 1056 
Q 959 750 1161 570 
Q 1363 391 1709 391 
Q 2188 391 2477 730 
Q 2766 1069 2766 1631 
L 2766 1759 
L 2194 1759 
z
M 3341 1997 
L 3341 0 
L 2766 0 
L 2766 531 
Q 2569 213 2275 61 
Q 1981 -91 1556 -91 
Q 1019 -91 701 211 
Q 384 513 384 1019 
Q 384 1609 779 1909 
Q 1175 2209 1959 2209 
L 2766 2209 
L 2766 2266 
Q 2766 2663 2505 2880 
Q 2244 3097 1772 3097 
Q 1472 3097 1187 3025 
Q 903 2953 641 2809 
L 641 3341 
Q 956 3463 1253 3523 
Q 1550 3584 1831 3584 
Q 2591 3584 2966 3190 
Q 3341 2797 3341 1997 
z
" transform="scale(0.015625)"/>
       <path id="DejaVuSans-73" d="M 2834 3397 
L 2834 2853 
Q 2591 2978 2328 3040 
Q 2066 3103 1784 3103 
Q 1356 3103 1142 2972 
Q 928 2841 928 2578 
Q 928 2378 1081 2264 
Q 1234 2150 1697 2047 
L 1894 2003 
Q 2506 1872 2764 1633 
Q 3022 1394 3022 966 
Q 3022 478 2636 193 
Q 2250 -91 1575 -91 
Q 1294 -91 989 -36 
Q 684 19 347 128 
L 347 722 
Q 666 556 975 473 
Q 1284 391 1588 391 
Q 1994 391 2212 530 
Q 2431 669 2431 922 
Q 2431 1156 2273 1281 
Q 2116 1406 1581 1522 
L 1381 1569 
Q 847 1681 609 1914 
Q 372 2147 372 2553 
Q 372 3047 722 3315 
Q 1072 3584 1716 3584 
Q 2034 3584 2315 3537 
Q 2597 3491 2834 3397 
z
" transform="scale(0.015625)"/>
       <path id="DejaVuSans-2f" d="M 1625 4666 
L 2156 4666 
L 531 -594 
L 0 -594 
L 1625 4666 
z
" transform="scale(0.015625)"/>
       <path id="DejaVuSans-64" d="M 2906 2969 
L 2906 4863 
L 3481 4863 
L 3481 0 
L 2906 0 
L 2906 525 
Q 2725 213 2448 61 
Q 2172 -91 1784 -91 
Q 1150 -91 751 415 
Q 353 922 353 1747 
Q 353 2572 751 3078 
Q 1150 3584 1784 3584 
Q 2172 3584 2448 3432 
Q 2725 3281 2906 2969 
z
M 947 1747 
Q 947 1113 1208 752 
Q 1469 391 1925 391 
Q 2381 391 2643 752 
Q 2906 1113 2906 1747 
Q 2906 2381 2643 2742 
Q 2381 3103 1925 3103 
Q 1469 3103 1208 2742 
Q 947 2381 947 1747 
z
" transform="scale(0.015625)"/>
       <path id="DejaVuSans-69" d="M 603 3500 
L 1178 3500 
L 1178 0 
L 603 0 
L 603 3500 
z
M 603 4863 
L 1178 4863 
L 1178 4134 
L 603 4134 
L 603 4863 
z
" transform="scale(0.015625)"/>
       <path id="DejaVuSans-6d" d="M 3328 2828 
Q 3544 3216 3844 3400 
Q 4144 3584 4550 3584 
Q 5097 3584 5394 3201 
Q 5691 2819 5691 2113 
L 5691 0 
L 5113 0 
L 5113 2094 
Q 5113 2597 4934 2840 
Q 4756 3084 4391 3084 
Q 3944 3084 3684 2787 
Q 3425 2491 3425 1978 
L 3425 0 
L 2847 0 
L 2847 2094 
Q 2847 2600 2669 2842 
Q 2491 3084 2119 3084 
Q 1678 3084 1418 2786 
Q 1159 2488 1159 1978 
L 1159 0 
L 581 0 
L 581 3500 
L 1159 3500 
L 1159 2956 
Q 1356 3278 1631 3431 
Q 1906 3584 2284 3584 
Q 2666 3584 2933 3390 
Q 3200 3197 3328 2828 
z
" transform="scale(0.015625)"/>
       <path id="DejaVuSans-6e" d="M 3513 2113 
L 3513 0 
L 2938 0 
L 2938 2094 
Q 2938 2591 2744 2837 
Q 2550 3084 2163 3084 
Q 1697 3084 1428 2787 
Q 1159 2491 1159 1978 
L 1159 0 
L 581 0 
L 581 3500 
L 1159 3500 
L 1159 2956 
Q 1366 3272 1645 3428 
Q 1925 3584 2291 3584 
Q 2894 3584 3203 3211 
Q 3513 2838 3513 2113 
z
" transform="scale(0.015625)"/>
       <path id="DejaVuSans-29" d="M 513 4856 
L 1013 4856 
Q 1481 4119 1714 3412 
Q 1947 2706 1947 2009 
Q 1947 1309 1714 600 
Q 1481 -109 1013 -844 
L 513 -844 
Q 928 -128 1133 580 
Q 1338 1288 1338 2009 
Q 1338 2731 1133 3434 
Q 928 4138 513 4856 
z
" transform="scale(0.015625)"/>
      </defs>
      <use xlink:href="#DejaVuSans-6c"/>
      <use xlink:href="#DejaVuSans-6f" x="27.783203"/>
      <use xlink:href="#DejaVuSans-67" x="88.964844"/>
      <use xlink:href="#DejaVuSans-31" x="152.441406"/>
      <use xlink:href="#DejaVuSans-30" x="216.064453"/>
      <use xlink:href="#DejaVuSans-28" x="279.6875"/>
      <use xlink:href="#DejaVuSans-23" x="318.701172"/>
      <use xlink:href="#DejaVuSans-20" x="402.490234"/>
      <use xlink:href="#DejaVuSans-66" x="434.277344"/>
      <use xlink:href="#DejaVuSans-2d" x="463.982422"/>
      <use xlink:href="#DejaVuSans-65" x="500.066406"/>
      <use xlink:href="#DejaVuSans-76" x="561.589844"/>
      <use xlink:href="#DejaVuSans-61" x="620.769531"/>
      <use xlink:href="#DejaVuSans-6c" x="682.048828"/>
      <use xlink:href="#DejaVuSans-73" x="709.832031"/>
      <use xlink:href="#DejaVuSans-20" x="761.931641"/>
      <use xlink:href="#DejaVuSans-2f" x="793.71875"/>
      <use xlink:href="#DejaVuSans-20" x="827.410156"/>
      <use xlink:href="#DejaVuSans-64" x="859.197266"/>
      <use xlink:href="#DejaVuSans-69" x="922.673828"/>
      <use xlink:href="#DejaVuSans-6d" x="950.457031"/>
      <use xlink:href="#DejaVuSans-65" x="1047.869141"/>
      <use xlink:href="#DejaVuSans-6e" x="1109.392578"/>
      <use xlink:href="#DejaVuSans-73" x="1172.771484"/>
      <use xlink:href="#DejaVuSans-69" x="1224.871094"/>
      <use xlink:href="#DejaVuSans-6f" x="1252.654297"/>
      <use xlink:href="#DejaVuSans-6e" x="1313.835938"/>
      <use xlink:href="#DejaVuSans-29" x="1377.214844"/>
     </g>
    </g>
   </g>
   <g id="matplotlib.axis_2">
    <g id="ytick_1">
     <g id="line2d_21">
      <path d="M 57.6 298.944 
L 360.8064 298.944 
" clip-path="url(#pdbeede8f31)" style="fill: none; stroke: #b0b0b0; stroke-width: 0.8; stroke-linecap: square"/>
     </g>
     <g id="line2d_22">
      <defs>
       <path id="mfee5c0de86" d="M 0 0 
L -3.5 0 
" style="stroke: #000000; stroke-width: 0.8"/>
      </defs>
      <g>
       <use xlink:href="#mfee5c0de86" x="57.6" y="298.944" style="stroke: #000000; stroke-width: 0.8"/>
      </g>
     </g>
     <g id="text_6">
      <!-- 0.0 -->
      <g transform="translate(25.155 305.02275)scale(0.16 -0.16)">
       <defs>
        <path id="DejaVuSans-2e" d="M 684 794 
L 1344 794 
L 1344 0 
L 684 0 
L 684 794 
z
" transform="scale(0.015625)"/>
       </defs>
       <use xlink:href="#DejaVuSans-30"/>
       <use xlink:href="#DejaVuSans-2e" x="63.623047"/>
       <use xlink:href="#DejaVuSans-30" x="95.410156"/>
      </g>
     </g>
    </g>
    <g id="ytick_2">
     <g id="line2d_23">
      <path d="M 57.6 240.5376 
L 360.8064 240.5376 
" clip-path="url(#pdbeede8f31)" style="fill: none; stroke: #b0b0b0; stroke-width: 0.8; stroke-linecap: square"/>
     </g>
     <g id="line2d_24">
      <g>
       <use xlink:href="#mfee5c0de86" x="57.6" y="240.5376" style="stroke: #000000; stroke-width: 0.8"/>
      </g>
     </g>
     <g id="text_7">
      <!-- 0.2 -->
      <g transform="translate(25.155 246.61635)scale(0.16 -0.16)">
       <use xlink:href="#DejaVuSans-30"/>
       <use xlink:href="#DejaVuSans-2e" x="63.623047"/>
       <use xlink:href="#DejaVuSans-32" x="95.410156"/>
      </g>
     </g>
    </g>
    <g id="ytick_3">
     <g id="line2d_25">
      <path d="M 57.6 182.1312 
L 360.8064 182.1312 
" clip-path="url(#pdbeede8f31)" style="fill: none; stroke: #b0b0b0; stroke-width: 0.8; stroke-linecap: square"/>
     </g>
     <g id="line2d_26">
      <g>
       <use xlink:href="#mfee5c0de86" x="57.6" y="182.1312" style="stroke: #000000; stroke-width: 0.8"/>
      </g>
     </g>
     <g id="text_8">
      <!-- 0.4 -->
      <g transform="translate(25.155 188.20995)scale(0.16 -0.16)">
       <use xlink:href="#DejaVuSans-30"/>
       <use xlink:href="#DejaVuSans-2e" x="63.623047"/>
       <use xlink:href="#DejaVuSans-34" x="95.410156"/>
      </g>
     </g>
    </g>
    <g id="ytick_4">
     <g id="line2d_27">
      <path d="M 57.6 123.7248 
L 360.8064 123.7248 
" clip-path="url(#pdbeede8f31)" style="fill: none; stroke: #b0b0b0; stroke-width: 0.8; stroke-linecap: square"/>
     </g>
     <g id="line2d_28">
      <g>
       <use xlink:href="#mfee5c0de86" x="57.6" y="123.7248" style="stroke: #000000; stroke-width: 0.8"/>
      </g>
     </g>
     <g id="text_9">
      <!-- 0.6 -->
      <g transform="translate(25.155 129.80355)scale(0.16 -0.16)">
       <use xlink:href="#DejaVuSans-30"/>
       <use xlink:href="#DejaVuSans-2e" x="63.623047"/>
       <use xlink:href="#DejaVuSans-36" x="95.410156"/>
      </g>
     </g>
    </g>
    <g id="ytick_5">
     <g id="line2d_29">
      <path d="M 57.6 65.3184 
L 360.8064 65.3184 
" clip-path="url(#pdbeede8f31)" style="fill: none; stroke: #b0b0b0; stroke-width: 0.8; stroke-linecap: square"/>
     </g>
     <g id="line2d_30">
      <g>
       <use xlink:href="#mfee5c0de86" x="57.6" y="65.3184" style="stroke: #000000; stroke-width: 0.8"/>
      </g>
     </g>
     <g id="text_10">
      <!-- 0.8 -->
      <g transform="translate(25.155 71.39715)scale(0.16 -0.16)">
       <defs>
        <path id="DejaVuSans-38" d="M 2034 2216 
Q 1584 2216 1326 1975 
Q 1069 1734 1069 1313 
Q 1069 891 1326 650 
Q 1584 409 2034 409 
Q 2484 409 2743 651 
Q 3003 894 3003 1313 
Q 3003 1734 2745 1975 
Q 2488 2216 2034 2216 
z
M 1403 2484 
Q 997 2584 770 2862 
Q 544 3141 544 3541 
Q 544 4100 942 4425 
Q 1341 4750 2034 4750 
Q 2731 4750 3128 4425 
Q 3525 4100 3525 3541 
Q 3525 3141 3298 2862 
Q 3072 2584 2669 2484 
Q 3125 2378 3379 2068 
Q 3634 1759 3634 1313 
Q 3634 634 3220 271 
Q 2806 -91 2034 -91 
Q 1263 -91 848 271 
Q 434 634 434 1313 
Q 434 1759 690 2068 
Q 947 2378 1403 2484 
z
M 1172 3481 
Q 1172 3119 1398 2916 
Q 1625 2713 2034 2713 
Q 2441 2713 2670 2916 
Q 2900 3119 2900 3481 
Q 2900 3844 2670 4047 
Q 2441 4250 2034 4250 
Q 1625 4250 1398 4047 
Q 1172 3844 1172 3481 
z
" transform="scale(0.015625)"/>
       </defs>
       <use xlink:href="#DejaVuSans-30"/>
       <use xlink:href="#DejaVuSans-2e" x="63.623047"/>
       <use xlink:href="#DejaVuSans-38" x="95.410156"/>
      </g>
     </g>
    </g>
    <g id="ytick_6">
     <g id="line2d_31">
      <path d="M 57.6 6.912 
L 360.8064 6.912 
" clip-path="url(#pdbeede8f31)" style="fill: none; stroke: #b0b0b0; stroke-width: 0.8; stroke-linecap: square"/>
     </g>
     <g id="line2d_32">
      <g>
       <use xlink:href="#mfee5c0de86" x="57.6" y="6.912" style="stroke: #000000; stroke-width: 0.8"/>
      </g>
     </g>
     <g id="text_11">
      <!-- 1.0 -->
      <g transform="translate(25.155 12.99075)scale(0.16 -0.16)">
       <use xlink:href="#DejaVuSans-31"/>
       <use xlink:href="#DejaVuSans-2e" x="63.623047"/>
       <use xlink:href="#DejaVuSans-30" x="95.410156"/>
      </g>
     </g>
    </g>
    <g id="text_12">
     <!-- Fraction of function,target pairs -->
     <g transform="translate(17.619531 287.313)rotate(-90)scale(0.17 -0.17)">
      <defs>
       <path id="DejaVuSans-46" d="M 628 4666 
L 3309 4666 
L 3309 4134 
L 1259 4134 
L 1259 2759 
L 3109 2759 
L 3109 2228 
L 1259 2228 
L 1259 0 
L 628 0 
L 628 4666 
z
" transform="scale(0.015625)"/>
       <path id="DejaVuSans-72" d="M 2631 2963 
Q 2534 3019 2420 3045 
Q 2306 3072 2169 3072 
Q 1681 3072 1420 2755 
Q 1159 2438 1159 1844 
L 1159 0 
L 581 0 
L 581 3500 
L 1159 3500 
L 1159 2956 
Q 1341 3275 1631 3429 
Q 1922 3584 2338 3584 
Q 2397 3584 2469 3576 
Q 2541 3569 2628 3553 
L 2631 2963 
z
" transform="scale(0.015625)"/>
       <path id="DejaVuSans-63" d="M 3122 3366 
L 3122 2828 
Q 2878 2963 2633 3030 
Q 2388 3097 2138 3097 
Q 1578 3097 1268 2742 
Q 959 2388 959 1747 
Q 959 1106 1268 751 
Q 1578 397 2138 397 
Q 2388 397 2633 464 
Q 2878 531 3122 666 
L 3122 134 
Q 2881 22 2623 -34 
Q 2366 -91 2075 -91 
Q 1284 -91 818 406 
Q 353 903 353 1747 
Q 353 2603 823 3093 
Q 1294 3584 2113 3584 
Q 2378 3584 2631 3529 
Q 2884 3475 3122 3366 
z
" transform="scale(0.015625)"/>
       <path id="DejaVuSans-74" d="M 1172 4494 
L 1172 3500 
L 2356 3500 
L 2356 3053 
L 1172 3053 
L 1172 1153 
Q 1172 725 1289 603 
Q 1406 481 1766 481 
L 2356 481 
L 2356 0 
L 1766 0 
Q 1100 0 847 248 
Q 594 497 594 1153 
L 594 3053 
L 172 3053 
L 172 3500 
L 594 3500 
L 594 4494 
L 1172 4494 
z
" transform="scale(0.015625)"/>
       <path id="DejaVuSans-75" d="M 544 1381 
L 544 3500 
L 1119 3500 
L 1119 1403 
Q 1119 906 1312 657 
Q 1506 409 1894 409 
Q 2359 409 2629 706 
Q 2900 1003 2900 1516 
L 2900 3500 
L 3475 3500 
L 3475 0 
L 2900 0 
L 2900 538 
Q 2691 219 2414 64 
Q 2138 -91 1772 -91 
Q 1169 -91 856 284 
Q 544 659 544 1381 
z
M 1991 3584 
L 1991 3584 
z
" transform="scale(0.015625)"/>
       <path id="DejaVuSans-2c" d="M 750 794 
L 1409 794 
L 1409 256 
L 897 -744 
L 494 -744 
L 750 256 
L 750 794 
z
" transform="scale(0.015625)"/>
       <path id="DejaVuSans-70" d="M 1159 525 
L 1159 -1331 
L 581 -1331 
L 581 3500 
L 1159 3500 
L 1159 2969 
Q 1341 3281 1617 3432 
Q 1894 3584 2278 3584 
Q 2916 3584 3314 3078 
Q 3713 2572 3713 1747 
Q 3713 922 3314 415 
Q 2916 -91 2278 -91 
Q 1894 -91 1617 61 
Q 1341 213 1159 525 
z
M 3116 1747 
Q 3116 2381 2855 2742 
Q 2594 3103 2138 3103 
Q 1681 3103 1420 2742 
Q 1159 2381 1159 1747 
Q 1159 1113 1420 752 
Q 1681 391 2138 391 
Q 2594 391 2855 752 
Q 3116 1113 3116 1747 
z
" transform="scale(0.015625)"/>
      </defs>
      <use xlink:href="#DejaVuSans-46"/>
      <use xlink:href="#DejaVuSans-72" x="50.269531"/>
      <use xlink:href="#DejaVuSans-61" x="91.382812"/>
      <use xlink:href="#DejaVuSans-63" x="152.662109"/>
      <use xlink:href="#DejaVuSans-74" x="207.642578"/>
      <use xlink:href="#DejaVuSans-69" x="246.851562"/>
      <use xlink:href="#DejaVuSans-6f" x="274.634766"/>
      <use xlink:href="#DejaVuSans-6e" x="335.816406"/>
      <use xlink:href="#DejaVuSans-20" x="399.195312"/>
      <use xlink:href="#DejaVuSans-6f" x="430.982422"/>
      <use xlink:href="#DejaVuSans-66" x="492.164062"/>
      <use xlink:href="#DejaVuSans-20" x="527.369141"/>
      <use xlink:href="#DejaVuSans-66" x="559.15625"/>
      <use xlink:href="#DejaVuSans-75" x="594.361328"/>
      <use xlink:href="#DejaVuSans-6e" x="657.740234"/>
      <use xlink:href="#DejaVuSans-63" x="721.119141"/>
      <use xlink:href="#DejaVuSans-74" x="776.099609"/>
      <use xlink:href="#DejaVuSans-69" x="815.308594"/>
      <use xlink:href="#DejaVuSans-6f" x="843.091797"/>
      <use xlink:href="#DejaVuSans-6e" x="904.273438"/>
      <use xlink:href="#DejaVuSans-2c" x="967.652344"/>
      <use xlink:href="#DejaVuSans-74" x="999.439453"/>
      <use xlink:href="#DejaVuSans-61" x="1038.648438"/>
      <use xlink:href="#DejaVuSans-72" x="1099.927734"/>
      <use xlink:href="#DejaVuSans-67" x="1139.291016"/>
      <use xlink:href="#DejaVuSans-65" x="1202.767578"/>
      <use xlink:href="#DejaVuSans-74" x="1264.291016"/>
      <use xlink:href="#DejaVuSans-20" x="1303.5"/>
      <use xlink:href="#DejaVuSans-70" x="1335.287109"/>
      <use xlink:href="#DejaVuSans-61" x="1398.763672"/>
      <use xlink:href="#DejaVuSans-69" x="1460.042969"/>
      <use xlink:href="#DejaVuSans-72" x="1487.826172"/>
      <use xlink:href="#DejaVuSans-73" x="1528.939453"/>
     </g>
    </g>
   </g>
   <g id="line2d_33">
    <defs>
     <path id="mb35944fda0" d="M 0 1.5 
C 0.397805 1.5 0.77937 1.341951 1.06066 1.06066 
C 1.341951 0.77937 1.5 0.397805 1.5 0 
C 1.5 -0.397805 1.341951 -0.77937 1.06066 -1.06066 
C 0.77937 -1.341951 0.397805 -1.5 0 -1.5 
C -0.397805 -1.5 -0.77937 -1.341951 -1.06066 -1.06066 
C -1.341951 -0.77937 -1.5 -0.397805 -1.5 0 
C -1.5 0.397805 -1.341951 0.77937 -1.06066 1.06066 
C -0.77937 1.341951 -0.397805 1.5 0 1.5 
z
" style="stroke: #f5deb3"/>
    </defs>
    <g>
     <use xlink:href="#mb35944fda0" x="339.030896" y="42.157241" style="fill: #f5deb3; stroke: #f5deb3"/>
     <use xlink:href="#mb35944fda0" x="339.030896" y="42.157241" style="fill: #f5deb3; stroke: #f5deb3"/>
    </g>
   </g>
   <g id="line2d_34">
    <defs>
     <path id="mf57bf55d1d" d="M 0 1.5 
C 0.397805 1.5 0.77937 1.341951 1.06066 1.06066 
C 1.341951 0.77937 1.5 0.397805 1.5 0 
C 1.5 -0.397805 1.341951 -0.77937 1.06066 -1.06066 
C 0.77937 -1.341951 0.397805 -1.5 0 -1.5 
C -0.397805 -1.5 -0.77937 -1.341951 -1.06066 -1.06066 
C -1.341951 -0.77937 -1.5 -0.397805 -1.5 0 
C -1.5 0.397805 -1.341951 0.77937 -1.06066 1.06066 
C -0.77937 1.341951 -0.397805 1.5 0 1.5 
z
" style="stroke: #000080"/>
    </defs>
    <g>
     <use xlink:href="#mf57bf55d1d" x="78.266603" y="277.922731" style="fill: #000080; stroke: #000080"/>
     <use xlink:href="#mf57bf55d1d" x="78.266603" y="277.922731" style="fill: #000080; stroke: #000080"/>
    </g>
   </g>
   <g id="line2d_35">
    <path d="M 36.933397 298.944 
L 36.933397 287.866924 
L 49.972572 287.866924 
L 49.972572 286.48229 
L 57.6 286.48229 
L 57.6 284.971779 
L 63.011746 284.971779 
L 63.011746 284.090648 
L 67.209423 284.090648 
L 67.209423 282.20251 
L 70.639174 282.20251 
L 70.639174 281.447255 
L 73.538988 281.447255 
L 73.538988 280.062621 
L 76.050921 280.062621 
L 76.050921 279.936745 
L 78.266603 279.936745 
L 78.266603 277.922731 
L 360.8064 277.922731 
" style="fill: none; stroke: #000080; stroke-width: 1.5; stroke-linecap: square"/>
   </g>
   <g id="line2d_36">
    <defs>
     <path id="m08bb848e44" d="M 0 6 
C 1.591219 6 3.117479 5.367802 4.242641 4.242641 
C 5.367802 3.117479 6 1.591219 6 0 
C 6 -1.591219 5.367802 -3.117479 4.242641 -4.242641 
C 3.117479 -5.367802 1.591219 -6 0 -6 
C -1.591219 -6 -3.117479 -5.367802 -4.242641 -4.242641 
C -5.367802 -3.117479 -6 -1.591219 -6 0 
C -6 1.591219 -5.367802 3.117479 -4.242641 4.242641 
C -3.117479 5.367802 -1.591219 6 0 6 
z
" style="stroke: #000080; stroke-width: 1.5"/>
    </defs>
    <g>
     <use xlink:href="#m08bb848e44" x="67.209423" y="284.090648" style="fill-opacity: 0; stroke: #000080; stroke-width: 1.5"/>
     <use xlink:href="#m08bb848e44" x="78.266603" y="279.936745" style="fill-opacity: 0; stroke: #000080; stroke-width: 1.5"/>
     <use xlink:href="#m08bb848e44" x="78.266603" y="277.922731" style="fill-opacity: 0; stroke: #000080; stroke-width: 1.5"/>
     <use xlink:href="#m08bb848e44" x="78.266603" y="277.922731" style="fill-opacity: 0; stroke: #000080; stroke-width: 1.5"/>
     <use xlink:href="#m08bb848e44" x="78.266603" y="277.922731" style="fill-opacity: 0; stroke: #000080; stroke-width: 1.5"/>
     <use xlink:href="#m08bb848e44" x="360.8064" y="277.922731" style="fill-opacity: 0; stroke: #000080; stroke-width: 1.5"/>
    </g>
   </g>
   <g id="line2d_37">
    <path style="fill: none; stroke: #000080; stroke-width: 1.5; stroke-linecap: square"/>
    <g/>
   </g>
   <g id="line2d_38">
    <path d="M 78.266603 277.922731 
" clip-path="url(#pdbeede8f31)" style="fill: none; stroke: #000080; stroke-width: 1.5; stroke-linecap: square"/>
    <defs>
     <path id="med5cf311d9" d="M -12 12 
L 12 -12 
M -12 -12 
L 12 12 
" style="stroke: #000080"/>
    </defs>
    <g clip-path="url(#pdbeede8f31)">
     <use xlink:href="#med5cf311d9" x="78.266603" y="277.922731" style="fill: #000080; stroke: #000080"/>
    </g>
   </g>
   <g id="line2d_39">
    <defs>
     <path id="m0e58635f52" d="M 0 1.5 
C 0.397805 1.5 0.77937 1.341951 1.06066 1.06066 
C 1.341951 0.77937 1.5 0.397805 1.5 0 
C 1.5 -0.397805 1.341951 -0.77937 1.06066 -1.06066 
C 0.77937 -1.341951 0.397805 -1.5 0 -1.5 
C -0.397805 -1.5 -0.77937 -1.341951 -1.06066 -1.06066 
C -1.341951 -0.77937 -1.5 -0.397805 -1.5 0 
C -1.5 0.397805 -1.341951 0.77937 -1.06066 1.06066 
C -0.77937 1.341951 -0.397805 1.5 0 1.5 
z
" style="stroke: #ff00ff"/>
    </defs>
    <g>
     <use xlink:href="#m0e58635f52" x="273.732953" y="179.99131" style="fill: #ff00ff; stroke: #ff00ff"/>
     <use xlink:href="#m0e58635f52" x="273.732953" y="179.99131" style="fill: #ff00ff; stroke: #ff00ff"/>
    </g>
   </g>
   <g id="line2d_40">
    <path d="M 36.933397 298.944 
L 36.933397 287.866924 
L 49.972572 287.866924 
L 49.972572 286.104662 
L 63.011746 286.104662 
L 63.011746 285.097655 
L 67.209423 285.097655 
L 67.209423 284.468276 
L 70.639174 284.468276 
L 70.639174 284.090648 
L 73.538988 284.090648 
L 73.538988 283.461269 
L 76.050921 283.461269 
L 76.050921 283.209517 
L 78.266603 283.209517 
L 78.266603 282.83189 
L 80.248597 282.83189 
L 80.248597 281.699007 
L 82.04153 281.699007 
L 82.04153 281.195503 
L 83.678349 281.195503 
L 83.678349 280.188497 
L 85.184077 280.188497 
L 85.184077 280.062621 
L 86.578163 280.062621 
L 86.578163 279.559117 
L 87.876026 279.559117 
L 87.876026 278.929738 
L 90.230539 278.929738 
L 90.230539 278.677986 
L 91.305777 278.677986 
L 91.305777 278.048607 
L 93.287772 278.048607 
L 93.287772 277.419228 
L 94.205591 277.419228 
L 94.205591 277.293352 
L 95.080704 277.293352 
L 95.080704 276.789848 
L 95.916911 276.789848 
L 95.916911 276.538097 
L 96.717523 276.538097 
L 96.717523 276.160469 
L 98.223251 276.160469 
L 98.223251 275.782841 
L 98.933205 275.782841 
L 98.933205 275.656966 
L 100.277459 275.656966 
L 100.277459 275.53109 
L 100.9152 275.53109 
L 100.9152 275.279338 
L 102.12927 275.279338 
L 102.12927 275.027586 
L 103.269713 275.027586 
L 103.269713 274.775834 
L 104.344952 274.775834 
L 104.344952 274.398207 
L 104.860369 274.398207 
L 104.860369 274.020579 
L 105.36204 274.020579 
L 105.36204 273.3912 
L 106.791453 273.3912 
L 106.791453 273.265324 
L 107.68741 273.265324 
L 107.68741 272.887697 
L 109.360651 272.887697 
L 109.360651 272.635945 
L 110.144579 272.635945 
L 110.144579 272.258317 
L 110.897141 272.258317 
L 110.897141 271.88069 
L 112.989468 271.88069 
L 112.989468 271.377186 
L 113.638206 271.377186 
L 113.638206 271.25131 
L 114.265316 271.25131 
L 114.265316 271.125434 
L 114.571202 271.125434 
L 114.571202 270.873683 
L 115.168444 270.873683 
L 115.168444 270.747807 
L 115.460102 270.747807 
L 115.460102 270.370179 
L 115.747307 270.370179 
L 115.747307 270.244303 
L 116.030193 270.244303 
L 116.030193 270.118428 
L 116.308887 270.118428 
L 116.308887 269.992552 
L 116.854188 269.992552 
L 116.854188 269.866676 
L 117.384126 269.866676 
L 117.384126 269.489048 
L 117.6436 269.489048 
L 117.6436 269.363172 
L 117.899543 269.363172 
L 117.899543 269.237297 
L 118.152051 269.237297 
L 118.152051 268.985545 
L 118.401214 268.985545 
L 118.401214 268.859669 
L 118.64712 268.859669 
L 118.64712 268.733793 
L 118.889854 268.733793 
L 118.889854 268.607917 
L 119.129494 268.607917 
L 119.129494 268.356166 
L 119.830627 268.356166 
L 119.830627 268.23029 
L 120.28394 268.23029 
L 120.28394 267.978538 
L 120.506564 267.978538 
L 120.506564 267.60091 
L 120.726585 267.60091 
L 120.726585 267.475034 
L 121.581803 267.475034 
L 121.581803 267.097407 
L 121.99526 267.097407 
L 121.99526 266.719779 
L 122.19863 266.719779 
L 122.19863 266.593903 
L 122.399825 266.593903 
L 122.399825 266.468028 
L 122.795872 266.468028 
L 122.795872 266.216276 
L 123.563797 266.216276 
L 123.563797 265.712772 
L 123.750979 265.712772 
L 123.750979 265.586897 
L 124.119844 265.586897 
L 124.119844 265.335145 
L 124.481616 265.335145 
L 124.481616 265.209269 
L 124.659926 265.209269 
L 124.659926 265.083393 
L 125.011554 265.083393 
L 125.011554 264.957517 
L 125.695686 264.957517 
L 125.695686 264.705766 
L 126.028642 264.705766 
L 126.028642 264.328138 
L 126.192937 264.328138 
L 126.192937 264.076386 
L 126.836129 264.076386 
L 126.836129 263.95051 
L 126.993549 263.95051 
L 126.993549 263.824634 
L 127.610376 263.824634 
L 127.610376 263.572883 
L 128.060076 263.572883 
L 128.060076 263.447007 
L 128.354013 263.447007 
L 128.354013 263.321131 
L 128.499277 263.321131 
L 128.499277 263.195255 
L 128.928456 263.195255 
L 128.928456 263.069379 
L 129.485876 263.069379 
L 129.485876 262.943503 
L 129.622688 262.943503 
L 129.622688 262.817628 
L 130.160198 262.817628 
L 130.160198 262.44 
L 130.292209 262.44 
L 130.292209 262.188248 
L 130.4233 262.188248 
L 130.4233 261.936497 
L 131.31622 261.936497 
L 131.31622 261.684745 
L 131.440389 261.684745 
L 131.440389 261.558869 
L 131.563744 261.558869 
L 131.563744 261.307117 
L 131.808053 261.307117 
L 131.808053 261.181241 
L 132.168669 261.181241 
L 132.168669 260.803614 
L 132.287354 260.803614 
L 132.287354 260.677738 
L 132.522502 260.677738 
L 132.522502 260.551862 
L 132.638982 260.551862 
L 132.638982 260.048359 
L 132.984158 260.048359 
L 132.984158 259.796607 
L 133.323114 259.796607 
L 133.323114 259.670731 
L 133.434756 259.670731 
L 133.545739 259.167228 
L 133.765759 259.167228 
L 133.874812 258.537848 
L 133.983236 258.537848 
L 134.091039 257.908469 
L 134.198228 257.908469 
L 134.304809 257.404966 
L 134.41079 257.404966 
L 134.41079 257.27909 
L 134.620977 257.27909 
L 134.725196 256.523834 
L 134.931919 256.523834 
L 134.931919 256.272083 
L 135.338671 256.272083 
L 135.438999 255.894455 
L 135.538796 255.894455 
L 135.638065 255.642703 
L 135.736814 255.642703 
L 135.736814 255.516828 
L 135.932769 255.516828 
L 135.932769 255.390952 
L 136.222928 255.390952 
L 136.222928 255.265076 
L 136.696795 255.265076 
L 136.696795 255.1392 
L 136.88305 255.1392 
L 136.88305 255.013324 
L 137.250116 255.013324 
L 137.340774 254.635697 
L 137.875736 254.635697 
L 137.963436 254.383945 
L 138.481218 254.383945 
L 138.481218 254.132193 
L 138.650692 254.132193 
L 138.650692 253.754566 
L 138.902075 253.754566 
L 138.902075 253.502814 
L 139.067817 253.502814 
L 139.067817 253.376938 
L 139.232111 253.376938 
L 139.232111 253.125186 
L 139.394983 253.125186 
L 139.394983 252.99931 
L 139.716555 252.99931 
L 139.716555 252.873434 
L 139.875304 252.873434 
L 139.954178 251.992303 
L 140.032723 251.992303 
L 140.032723 251.614676 
L 140.188837 251.614676 
L 140.188837 251.4888 
L 140.343665 251.4888 
L 140.343665 251.237048 
L 140.49723 251.237048 
L 140.573544 250.355917 
L 140.875745 250.355917 
L 140.875745 250.230041 
L 141.465959 250.230041 
L 141.465959 249.852414 
L 141.896777 249.852414 
L 141.896777 249.600662 
L 142.178603 249.600662 
L 142.178603 249.097159 
L 143.066428 249.097159 
L 143.066428 248.971283 
L 143.331383 248.971283 
L 143.331383 248.467779 
L 143.462475 248.467779 
L 143.462475 248.341903 
L 143.721949 248.341903 
L 143.721949 248.090152 
L 144.602918 248.090152 
L 144.664294 247.586648 
L 144.725469 247.586648 
L 144.725469 247.460772 
L 145.088405 247.460772 
L 145.088405 247.209021 
L 145.966241 247.209021 
L 145.966241 247.083145 
L 146.306218 247.083145 
L 146.306218 246.579641 
L 147.183884 246.579641 
L 147.183884 246.453766 
L 147.397049 246.453766 
L 147.502732 246.076138 
L 148.175569 246.076138 
L 148.175569 245.950262 
L 148.528138 245.950262 
L 148.528138 245.69851 
L 148.923146 245.69851 
L 148.971944 245.446759 
L 150.425115 245.446759 
L 150.515122 245.069131 
L 151.176793 245.069131 
L 151.176793 244.943255 
L 151.562904 244.943255 
L 151.562904 244.817379 
L 151.899585 244.817379 
L 151.982822 244.313876 
L 152.189318 244.313876 
L 152.189318 244.188 
L 152.715833 244.188 
L 152.715833 243.936248 
L 153.421349 243.936248 
L 153.421349 243.684497 
L 154.432362 243.684497 
L 154.432362 243.432745 
L 155.147716 243.432745 
L 155.147716 243.180993 
L 155.28758 243.180993 
L 155.28758 243.055117 
L 155.495444 243.055117 
L 155.495444 242.929241 
L 155.836861 242.929241 
L 155.836861 242.803366 
L 158.454228 242.803366 
L 158.454228 242.67749 
L 158.571617 242.67749 
L 158.571617 242.425738 
L 159.651731 242.425738 
L 159.761902 241.922234 
L 160.088594 241.922234 
L 160.088594 241.670483 
L 160.303279 241.670483 
L 160.356569 241.292855 
L 160.673181 241.292855 
L 160.699326 240.789352 
L 161.592245 240.789352 
L 161.592245 240.663476 
L 161.765853 240.663476 
L 161.765853 240.5376 
L 162.444694 240.5376 
L 162.444694 240.411724 
L 163.122872 240.411724 
L 163.191653 239.782345 
L 163.865975 239.782345 
L 163.976048 239.404717 
L 164.70794 239.404717 
L 164.70794 239.152966 
L 164.855153 239.152966 
L 164.855153 239.02709 
L 166.032527 239.02709 
L 166.130658 238.649462 
L 166.267186 238.649462 
L 166.325396 238.271834 
L 166.708927 238.271834 
L 166.8036 237.894207 
L 166.822478 237.894207 
L 166.822478 237.642455 
L 166.972821 237.642455 
L 166.972821 237.516579 
L 167.306762 237.516579 
L 167.343504 237.138952 
L 167.6168 237.138952 
L 167.6168 236.8872 
L 167.868343 236.8872 
L 167.868343 236.761324 
L 168.134173 236.761324 
L 168.134173 236.635448 
L 168.361558 236.635448 
L 168.361558 236.383697 
L 168.482867 236.383697 
L 168.517384 235.754317 
L 168.6034 235.754317 
L 168.637696 235.502566 
L 169.094679 235.502566 
L 169.178101 235.124938 
L 169.227977 235.124938 
L 169.227977 234.999062 
L 169.393282 234.999062 
L 169.393282 234.74731 
L 169.508137 234.74731 
L 169.606029 233.740303 
L 169.622295 233.740303 
L 169.622295 233.614428 
L 170.151329 233.614428 
L 170.182919 233.110924 
L 170.557912 233.110924 
L 170.557912 232.859172 
L 170.864796 232.859172 
L 170.955893 232.481545 
L 171.031472 232.481545 
L 171.121768 232.229793 
L 171.419661 232.229793 
L 171.493403 231.474538 
L 171.552189 231.474538 
L 171.552189 231.222786 
L 171.669213 231.222786 
L 171.727453 230.845159 
L 171.929885 230.845159 
L 171.929885 230.467531 
L 172.073157 230.467531 
L 172.073157 230.341655 
L 172.412623 230.341655 
L 172.496541 229.712276 
L 172.524431 229.712276 
L 172.524431 229.5864 
L 172.718509 229.5864 
L 172.718509 229.334648 
L 172.85592 229.334648 
L 172.924252 228.957021 
L 173.262233 228.957021 
L 173.369117 228.453517 
L 173.475398 228.453517 
L 173.475398 228.327641 
L 173.803705 228.327641 
L 173.803705 228.07589 
L 174.266624 228.07589 
L 174.292011 227.320634 
L 174.581522 227.320634 
L 174.594009 227.068883 
L 174.878944 227.068883 
L 174.989276 226.439503 
L 175.111113 226.439503 
L 175.208017 225.810124 
L 175.304425 225.810124 
L 175.352444 225.306621 
L 175.590719 225.306621 
L 175.590719 225.180745 
L 175.767465 225.180745 
L 175.872722 224.928993 
L 175.88438 224.928993 
L 175.942567 224.42549 
L 176.035292 224.42549 
L 176.139064 223.79611 
L 176.446989 223.79611 
L 176.537267 223.292607 
L 176.772205 223.292607 
L 176.872001 222.914979 
L 177.222605 222.914979 
L 177.287622 222.411476 
L 177.363192 222.411476 
L 177.363192 222.159724 
L 177.620009 222.159724 
L 177.620009 221.907972 
L 177.894327 221.907972 
L 177.904798 221.404469 
L 178.205956 221.404469 
L 178.205956 221.152717 
L 178.370071 221.152717 
L 178.451594 220.77509 
L 178.502368 220.77509 
L 178.542888 220.523338 
L 178.963164 220.523338 
L 178.963164 220.397462 
L 179.160042 220.397462 
L 179.160042 220.14571 
L 179.316074 220.14571 
L 179.354881 219.768083 
L 179.681545 219.768083 
L 179.729109 219.264579 
L 179.871084 219.264579 
L 179.871084 219.138703 
L 180.011995 219.138703 
L 180.086719 218.6352 
L 180.364317 218.6352 
L 180.446803 218.005821 
L 180.655974 218.005821 
L 180.655974 217.879945 
L 181.190936 217.879945 
L 181.278636 217.376441 
L 181.374636 217.376441 
L 181.400733 216.872938 
L 181.513403 216.872938 
L 181.565178 216.621186 
L 181.651154 216.621186 
L 181.745276 216.117683 
L 181.889818 216.117683 
L 181.889818 215.991807 
L 182.008023 215.991807 
L 182.008023 215.740055 
L 182.275451 215.740055 
L 182.383017 215.362428 
L 182.391266 215.362428 
L 182.432456 214.9848 
L 182.522758 214.9848 
L 182.604477 214.229545 
L 182.637065 214.229545 
L 182.637065 214.103669 
L 182.807233 214.103669 
L 182.807233 213.977793 
L 183.055653 213.977793 
L 183.055653 213.726041 
L 183.449544 213.726041 
L 183.504037 213.096662 
L 183.728124 213.096662 
L 183.827718 212.593159 
L 184.295578 212.593159 
L 184.295578 212.215531 
L 184.429257 212.215531 
L 184.429257 212.089655 
L 184.591363 212.089655 
L 184.664589 211.712028 
L 184.911444 211.712028 
L 185.012156 211.082648 
L 185.17645 211.082648 
L 185.17645 210.830897 
L 185.318157 210.830897 
L 185.318157 210.579145 
L 185.451798 210.579145 
L 185.521755 209.698014 
L 185.633149 209.698014 
L 185.633149 209.446262 
L 185.922457 209.446262 
L 185.922457 209.320386 
L 186.527815 209.320386 
L 186.574092 208.816883 
L 186.790734 208.816883 
L 186.790734 208.691007 
L 187.00491 208.691007 
L 187.00491 208.565131 
L 187.165556 208.565131 
L 187.171953 208.313379 
L 187.36287 208.313379 
L 187.36287 208.187503 
L 187.48279 208.187503 
L 187.570665 207.809876 
L 187.973365 207.809876 
L 187.98562 207.306372 
L 188.331576 207.306372 
L 188.373626 206.802869 
L 188.747909 206.802869 
L 188.747909 206.551117 
L 189.480507 206.551117 
L 189.520069 206.047614 
L 189.621418 206.047614 
L 189.621418 205.669986 
L 190.037927 205.669986 
L 190.059884 204.662979 
L 190.515156 204.662979 
L 190.515156 204.411228 
L 190.765164 204.411228 
L 190.765164 204.285352 
L 191.084767 204.285352 
L 191.084767 204.159476 
L 191.414351 204.159476 
L 191.480598 203.781848 
L 192.06655 203.781848 
L 192.06655 203.530097 
L 192.223682 203.530097 
L 192.223682 203.278345 
L 192.5821 203.278345 
L 192.663484 202.774841 
L 192.768284 202.774841 
L 192.810989 202.52309 
L 192.957346 202.52309 
L 192.957346 202.271338 
L 193.283701 202.271338 
L 193.283701 202.019586 
L 193.398898 202.019586 
L 193.398898 201.767834 
L 193.522523 201.767834 
L 193.545328 201.390207 
L 194.15083 201.390207 
L 194.15083 201.264331 
L 194.291543 201.264331 
L 194.291543 201.012579 
L 195.712834 201.012579 
L 195.729075 200.634952 
L 196.106765 200.634952 
L 196.106765 200.509076 
L 196.288865 200.509076 
L 196.371415 200.131448 
L 196.597546 200.131448 
L 196.640128 199.879697 
L 197.286245 199.879697 
L 197.371981 199.502069 
L 198.307856 199.502069 
L 198.307856 199.376193 
L 198.525983 199.376193 
L 198.581866 199.124441 
L 199.260019 199.124441 
L 199.260019 198.87269 
L 202.394801 198.87269 
L 202.394801 198.746814 
L 208.067425 198.746814 
L 208.067425 198.620938 
L 209.925159 198.620938 
L 209.925159 198.495062 
L 214.728949 198.495062 
L 214.728949 198.24331 
L 217.80657 198.24331 
L 217.80657 197.991559 
L 224.648005 197.991559 
L 224.648005 197.865683 
L 225.429814 197.865683 
L 225.429814 197.613931 
L 225.622985 197.613931 
L 225.622985 197.488055 
L 226.57198 197.488055 
L 226.57198 197.236303 
L 227.090888 197.236303 
L 227.090888 197.110428 
L 228.840446 197.110428 
L 228.840446 196.984552 
L 229.616608 196.984552 
L 229.616608 196.858676 
L 230.201641 196.858676 
L 230.201641 196.7328 
L 230.450018 196.7328 
L 230.450018 196.481048 
L 230.70907 196.481048 
L 230.70907 196.103421 
L 230.92715 196.103421 
L 230.990154 195.599917 
L 231.041151 195.599917 
L 231.041151 194.341159 
L 231.185306 194.341159 
L 231.185306 194.215283 
L 231.358312 194.215283 
L 231.426585 193.711779 
L 232.141181 193.711779 
L 232.183311 193.0824 
L 233.468116 193.0824 
L 233.468116 192.830648 
L 233.909441 192.830648 
L 233.909441 192.578897 
L 234.441482 192.578897 
L 234.45858 192.075393 
L 234.860291 192.075393 
L 234.860291 191.949517 
L 235.010257 191.949517 
L 235.010257 191.823641 
L 236.045918 191.823641 
L 236.045918 191.57189 
L 236.292758 191.57189 
L 236.292758 191.446014 
L 236.641376 191.446014 
L 236.641376 191.194262 
L 237.004922 191.194262 
L 237.004922 191.068386 
L 237.587019 191.068386 
L 237.587019 190.94251 
L 238.364081 190.94251 
L 238.434224 190.690759 
L 239.552385 190.690759 
L 239.552385 190.564883 
L 239.981217 190.564883 
L 239.981217 190.439007 
L 240.394448 190.439007 
L 240.495789 190.061379 
L 241.217067 190.061379 
L 241.217067 189.935503 
L 243.765304 189.935503 
L 243.765304 189.683752 
L 245.091987 189.683752 
L 245.091987 189.432 
L 245.392385 189.432 
L 245.392385 189.306124 
L 245.722241 189.306124 
L 245.722241 189.054372 
L 246.934212 189.054372 
L 246.934212 188.802621 
L 247.736281 188.802621 
L 247.770767 188.424993 
L 248.793684 188.424993 
L 248.793684 188.299117 
L 249.384709 188.299117 
L 249.384709 188.173241 
L 250.612593 188.173241 
L 250.612593 187.795614 
L 251.036337 187.795614 
L 251.036337 187.543862 
L 251.222497 187.543862 
L 251.266843 187.166234 
L 253.482289 187.166234 
L 253.482289 187.040359 
L 254.453892 187.040359 
L 254.453892 186.914483 
L 256.079064 186.914483 
L 256.079064 186.662731 
L 256.788999 186.662731 
L 256.880585 186.285103 
L 257.242534 186.285103 
L 257.242534 186.159228 
L 257.798951 186.159228 
L 257.798951 185.907476 
L 258.03084 185.907476 
L 258.03084 185.655724 
L 258.451821 185.655724 
L 258.469749 185.403972 
L 258.638647 185.403972 
L 258.638647 185.278097 
L 258.861605 185.278097 
L 258.861605 185.026345 
L 259.532813 185.026345 
L 259.532813 184.774593 
L 259.951762 184.774593 
L 259.951762 184.648717 
L 260.167694 184.648717 
L 260.26988 184.396966 
L 260.389399 184.396966 
L 260.493765 183.767586 
L 261.648867 183.767586 
L 261.648867 183.64171 
L 262.927136 183.64171 
L 262.927136 183.515834 
L 263.195902 183.515834 
L 263.195902 183.389959 
L 263.458556 183.389959 
L 263.458556 183.264083 
L 265.078537 183.264083 
L 265.078537 183.138207 
L 265.599797 183.138207 
L 265.599797 183.012331 
L 265.866767 183.012331 
L 265.866767 182.886455 
L 266.570662 182.886455 
L 266.570662 182.760579 
L 266.820308 182.760579 
L 266.855689 182.382952 
L 267.836186 182.382952 
L 267.836186 182.1312 
L 269.261115 182.1312 
L 269.261115 182.005324 
L 269.438198 182.005324 
L 269.545337 181.753572 
L 270.066843 181.753572 
L 270.15487 181.250069 
L 270.721928 181.250069 
L 270.721928 180.998317 
L 271.17519 180.998317 
L 271.17519 180.872441 
L 271.477538 180.872441 
L 271.477538 180.746566 
L 271.733595 180.746566 
L 271.733595 180.62069 
L 272.714709 180.62069 
L 272.714709 180.368938 
L 273.138347 180.368938 
L 273.138347 180.243062 
L 273.680043 180.243062 
L 273.732953 179.99131 
L 360.8064 179.99131 
L 360.8064 179.99131 
" style="fill: none; stroke: #ff00ff; stroke-width: 1.5; stroke-linecap: square"/>
   </g>
   <g id="line2d_41">
    <defs>
     <path id="mf6b4c2b043" d="M 0 8.485281 
L 5.091169 0 
L 0 -8.485281 
L -5.091169 0 
z
" style="stroke: #ff00ff; stroke-width: 1.5; stroke-linejoin: miter"/>
    </defs>
    <g>
     <use xlink:href="#mf6b4c2b043" x="142.178603" y="249.600662" style="fill-opacity: 0; stroke: #ff00ff; stroke-width: 1.5; stroke-linejoin: miter"/>
     <use xlink:href="#mf6b4c2b043" x="194.15083" y="201.264331" style="fill-opacity: 0; stroke: #ff00ff; stroke-width: 1.5; stroke-linejoin: miter"/>
     <use xlink:href="#mf6b4c2b043" x="273.732953" y="180.117186" style="fill-opacity: 0; stroke: #ff00ff; stroke-width: 1.5; stroke-linejoin: miter"/>
     <use xlink:href="#mf6b4c2b043" x="273.732953" y="179.99131" style="fill-opacity: 0; stroke: #ff00ff; stroke-width: 1.5; stroke-linejoin: miter"/>
     <use xlink:href="#mf6b4c2b043" x="273.732953" y="179.99131" style="fill-opacity: 0; stroke: #ff00ff; stroke-width: 1.5; stroke-linejoin: miter"/>
     <use xlink:href="#mf6b4c2b043" x="360.8064" y="179.99131" style="fill-opacity: 0; stroke: #ff00ff; stroke-width: 1.5; stroke-linejoin: miter"/>
    </g>
   </g>
   <g id="line2d_42">
    <path style="fill: none; stroke: #ff00ff; stroke-width: 1.5; stroke-linecap: square"/>
    <g/>
   </g>
   <g id="line2d_43">
    <path d="M 274.176063 179.99131 
" clip-path="url(#pdbeede8f31)" style="fill: none; stroke: #ff00ff; stroke-width: 1.5; stroke-linecap: square"/>
    <defs>
     <path id="mbb6428c8bd" d="M -12 12 
L 12 -12 
M -12 -12 
L 12 12 
" style="stroke: #ff00ff"/>
    </defs>
    <g clip-path="url(#pdbeede8f31)">
     <use xlink:href="#mbb6428c8bd" x="274.176063" y="179.99131" style="fill: #ff00ff; stroke: #ff00ff"/>
    </g>
   </g>
   <g id="line2d_44">
    <defs>
     <path id="ma9731c570b" d="M 0 1.5 
C 0.397805 1.5 0.77937 1.341951 1.06066 1.06066 
C 1.341951 0.77937 1.5 0.397805 1.5 0 
C 1.5 -0.397805 1.341951 -0.77937 1.06066 -1.06066 
C 0.77937 -1.341951 0.397805 -1.5 0 -1.5 
C -0.397805 -1.5 -0.77937 -1.341951 -1.06066 -1.06066 
C -1.341951 -0.77937 -1.5 -0.397805 -1.5 0 
C -1.5 0.397805 -1.341951 0.77937 -1.06066 1.06066 
C -0.77937 1.341951 -0.397805 1.5 0 1.5 
z
" style="stroke: #6495ed"/>
    </defs>
    <g>
     <use xlink:href="#ma9731c570b" x="113.954374" y="259.796607" style="fill: #6495ed; stroke: #6495ed"/>
     <use xlink:href="#ma9731c570b" x="113.954374" y="259.796607" style="fill: #6495ed; stroke: #6495ed"/>
    </g>
   </g>
   <g id="line2d_45">
    <path d="M 36.933397 298.944 
L 36.933397 295.545352 
L 49.972572 295.545352 
L 49.972572 293.657214 
L 57.6 293.657214 
L 57.6 292.650207 
L 63.011746 292.650207 
L 63.011746 291.517324 
L 67.209423 291.517324 
L 67.209423 289.629186 
L 70.639174 289.629186 
L 70.639174 287.615172 
L 73.538988 287.615172 
L 73.538988 286.859917 
L 76.050921 286.859917 
L 76.050921 285.349407 
L 78.266603 285.349407 
L 78.266603 284.3424 
L 80.248597 284.3424 
L 80.248597 282.328386 
L 82.04153 282.328386 
L 82.04153 281.573131 
L 83.678349 281.573131 
L 83.678349 281.447255 
L 85.184077 281.447255 
L 85.184077 281.195503 
L 86.578163 281.195503 
L 86.578163 280.440248 
L 87.876026 280.440248 
L 87.876026 280.062621 
L 89.090095 280.062621 
L 89.090095 278.929738 
L 90.230539 278.929738 
L 90.230539 278.55211 
L 91.305777 278.55211 
L 91.305777 277.670979 
L 92.322865 277.670979 
L 92.322865 276.789848 
L 94.205591 276.789848 
L 94.205591 276.538097 
L 95.916911 276.538097 
L 95.916911 276.160469 
L 96.717523 276.160469 
L 96.717523 275.908717 
L 97.485448 275.908717 
L 97.485448 275.53109 
L 98.223251 275.53109 
L 98.223251 275.279338 
L 98.933205 275.279338 
L 98.933205 274.90171 
L 100.277459 274.90171 
L 100.277459 274.524083 
L 100.9152 274.524083 
L 100.9152 274.146455 
L 101.532027 274.146455 
L 101.532027 273.642952 
L 102.12927 273.642952 
L 102.12927 273.517076 
L 102.708132 273.517076 
L 102.708132 271.754814 
L 103.269713 271.754814 
L 103.269713 271.628938 
L 103.815014 271.628938 
L 103.815014 270.496055 
L 104.344952 270.496055 
L 104.344952 269.992552 
L 104.860369 269.992552 
L 104.860369 269.363172 
L 105.36204 269.363172 
L 105.36204 267.978538 
L 105.850679 267.978538 
L 105.850679 266.468028 
L 106.326946 266.468028 
L 106.326946 265.586897 
L 106.791453 265.586897 
L 106.791453 265.335145 
L 107.244765 265.335145 
L 107.244765 265.083393 
L 107.68741 265.083393 
L 107.68741 264.328138 
L 108.119879 264.328138 
L 108.119879 264.076386 
L 108.956085 264.076386 
L 108.956085 263.447007 
L 109.360651 263.447007 
L 109.360651 262.943503 
L 109.756698 262.943503 
L 109.756698 262.565876 
L 110.144579 262.565876 
L 110.144579 262.062372 
L 110.524623 262.062372 
L 110.524623 261.936497 
L 110.897141 261.936497 
L 110.897141 261.558869 
L 111.620752 261.558869 
L 111.620752 261.055366 
L 111.97238 261.055366 
L 111.97238 260.803614 
L 112.317555 260.803614 
L 112.317555 260.677738 
L 112.656511 260.677738 
L 112.656511 260.425986 
L 113.316634 260.425986 
L 113.316634 260.174234 
L 113.954374 260.174234 
L 113.954374 259.796607 
L 360.8064 259.796607 
" style="fill: none; stroke: #6495ed; stroke-width: 1.5; stroke-linecap: square"/>
   </g>
   <g id="line2d_46">
    <defs>
     <path id="mf8dabcf2e0" d="M -0 6 
L 6 -6 
L -6 -6 
z
" style="stroke: #6495ed; stroke-width: 1.5; stroke-linejoin: miter"/>
    </defs>
    <g>
     <use xlink:href="#mf8dabcf2e0" x="113.954374" y="260.174234" style="fill-opacity: 0; stroke: #6495ed; stroke-width: 1.5; stroke-linejoin: miter"/>
     <use xlink:href="#mf8dabcf2e0" x="113.954374" y="260.174234" style="fill-opacity: 0; stroke: #6495ed; stroke-width: 1.5; stroke-linejoin: miter"/>
     <use xlink:href="#mf8dabcf2e0" x="113.954374" y="259.796607" style="fill-opacity: 0; stroke: #6495ed; stroke-width: 1.5; stroke-linejoin: miter"/>
     <use xlink:href="#mf8dabcf2e0" x="113.954374" y="259.796607" style="fill-opacity: 0; stroke: #6495ed; stroke-width: 1.5; stroke-linejoin: miter"/>
     <use xlink:href="#mf8dabcf2e0" x="360.8064" y="259.796607" style="fill-opacity: 0; stroke: #6495ed; stroke-width: 1.5; stroke-linejoin: miter"/>
    </g>
   </g>
   <g id="line2d_47">
    <path style="fill: none; stroke: #6495ed; stroke-width: 1.5; stroke-linecap: square"/>
    <g/>
   </g>
   <g id="line2d_48">
    <path d="M 113.954374 259.796607 
" clip-path="url(#pdbeede8f31)" style="fill: none; stroke: #6495ed; stroke-width: 1.5; stroke-linecap: square"/>
    <defs>
     <path id="m2d5d0bbcf5" d="M -12 12 
L 12 -12 
M -12 -12 
L 12 12 
" style="stroke: #6495ed"/>
    </defs>
    <g clip-path="url(#pdbeede8f31)">
     <use xlink:href="#m2d5d0bbcf5" x="113.954374" y="259.796607" style="fill: #6495ed; stroke: #6495ed"/>
    </g>
   </g>
   <g id="line2d_49">
    <path d="M 360.8064 277.922731 
L 380.514816 293.10336 
" style="fill: none; stroke: #000080; stroke-width: 1.5; stroke-linecap: square"/>
    <g>
     <use xlink:href="#m08bb848e44" x="360.8064" y="277.922731" style="fill-opacity: 0; stroke: #000080; stroke-width: 1.5"/>
     <use xlink:href="#m08bb848e44" x="380.514816" y="293.10336" style="fill-opacity: 0; stroke: #000080; stroke-width: 1.5"/>
    </g>
   </g>
   <g id="line2d_50">
    <path d="M 360.8064 259.796607 
L 380.514816 199.65312 
" style="fill: none; stroke: #6495ed; stroke-width: 1.5; stroke-linecap: square"/>
    <g>
     <use xlink:href="#mf8dabcf2e0" x="360.8064" y="259.796607" style="fill-opacity: 0; stroke: #6495ed; stroke-width: 1.5; stroke-linejoin: miter"/>
     <use xlink:href="#mf8dabcf2e0" x="380.514816" y="199.65312" style="fill-opacity: 0; stroke: #6495ed; stroke-width: 1.5; stroke-linejoin: miter"/>
    </g>
   </g>
   <g id="line2d_51">
    <path d="M 360.8064 179.99131 
L 380.514816 106.20288 
" style="fill: none; stroke: #ff00ff; stroke-width: 1.5; stroke-linecap: square"/>
    <g>
     <use xlink:href="#mf6b4c2b043" x="360.8064" y="179.99131" style="fill-opacity: 0; stroke: #ff00ff; stroke-width: 1.5; stroke-linejoin: miter"/>
     <use xlink:href="#mf6b4c2b043" x="380.514816" y="106.20288" style="fill-opacity: 0; stroke: #ff00ff; stroke-width: 1.5; stroke-linejoin: miter"/>
    </g>
   </g>
   <g id="line2d_52">
    <path d="M 360.8064 298.944 
L 360.8064 6.912 
" style="fill: none; stroke: #000000; stroke-width: 1.5; stroke-linecap: square"/>
   </g>
   <g id="patch_3">
    <path d="M 57.6 298.944 
L 360.8064 298.944 
" style="fill: none; stroke: #000000; stroke-width: 0.8; stroke-linejoin: miter; stroke-linecap: square"/>
   </g>
   <g id="patch_4">
    <path d="M 57.6 6.912 
L 360.8064 6.912 
" style="fill: none; stroke: #000000; stroke-width: 0.8; stroke-linejoin: miter; stroke-linecap: square"/>
   </g>
   <g id="text_13">
    <!-- cma -->
    <g transform="translate(386.578944 296.966485)scale(0.14 -0.14)">
     <use xlink:href="#DejaVuSans-63"/>
     <use xlink:href="#DejaVuSans-6d" x="54.980469"/>
     <use xlink:href="#DejaVuSans-61" x="152.392578"/>
    </g>
   </g>
   <g id="text_14">
    <!-- parEgo -->
    <g transform="translate(386.578944 203.516245)scale(0.14 -0.14)">
     <defs>
      <path id="DejaVuSans-45" d="M 628 4666 
L 3578 4666 
L 3578 4134 
L 1259 4134 
L 1259 2753 
L 3481 2753 
L 3481 2222 
L 1259 2222 
L 1259 531 
L 3634 531 
L 3634 0 
L 628 0 
L 628 4666 
z
" transform="scale(0.015625)"/>
     </defs>
     <use xlink:href="#DejaVuSans-70"/>
     <use xlink:href="#DejaVuSans-61" x="63.476562"/>
     <use xlink:href="#DejaVuSans-72" x="124.755859"/>
     <use xlink:href="#DejaVuSans-45" x="165.869141"/>
     <use xlink:href="#DejaVuSans-67" x="229.052734"/>
     <use xlink:href="#DejaVuSans-6f" x="292.529297"/>
    </g>
   </g>
   <g id="text_15">
    <!-- external- -->
    <g transform="translate(386.578944 110.066005)scale(0.14 -0.14)">
     <defs>
      <path id="DejaVuSans-78" d="M 3513 3500 
L 2247 1797 
L 3578 0 
L 2900 0 
L 1881 1375 
L 863 0 
L 184 0 
L 1544 1831 
L 300 3500 
L 978 3500 
L 1906 2253 
L 2834 3500 
L 3513 3500 
z
" transform="scale(0.015625)"/>
     </defs>
     <use xlink:href="#DejaVuSans-65"/>
     <use xlink:href="#DejaVuSans-78" x="59.773438"/>
     <use xlink:href="#DejaVuSans-74" x="118.953125"/>
     <use xlink:href="#DejaVuSans-65" x="158.162109"/>
     <use xlink:href="#DejaVuSans-72" x="219.685547"/>
     <use xlink:href="#DejaVuSans-6e" x="259.048828"/>
     <use xlink:href="#DejaVuSans-61" x="322.427734"/>
     <use xlink:href="#DejaVuSans-6c" x="383.707031"/>
     <use xlink:href="#DejaVuSans-2d" x="411.490234"/>
    </g>
   </g>
   <g id="text_16">
    <!-- best 2016 -->
    <g transform="translate(386.578944 16.615765)scale(0.14 -0.14)">
     <defs>
      <path id="DejaVuSans-62" d="M 3116 1747 
Q 3116 2381 2855 2742 
Q 2594 3103 2138 3103 
Q 1681 3103 1420 2742 
Q 1159 2381 1159 1747 
Q 1159 1113 1420 752 
Q 1681 391 2138 391 
Q 2594 391 2855 752 
Q 3116 1113 3116 1747 
z
M 1159 2969 
Q 1341 3281 1617 3432 
Q 1894 3584 2278 3584 
Q 2916 3584 3314 3078 
Q 3713 2572 3713 1747 
Q 3713 922 3314 415 
Q 2916 -91 2278 -91 
Q 1894 -91 1617 61 
Q 1341 213 1159 525 
L 1159 0 
L 581 0 
L 581 4863 
L 1159 4863 
L 1159 2969 
z
" transform="scale(0.015625)"/>
     </defs>
     <use xlink:href="#DejaVuSans-62"/>
     <use xlink:href="#DejaVuSans-65" x="63.476562"/>
     <use xlink:href="#DejaVuSans-73" x="125"/>
     <use xlink:href="#DejaVuSans-74" x="177.099609"/>
     <use xlink:href="#DejaVuSans-20" x="216.308594"/>
     <use xlink:href="#DejaVuSans-32" x="248.095703"/>
     <use xlink:href="#DejaVuSans-30" x="311.71875"/>
     <use xlink:href="#DejaVuSans-31" x="375.341797"/>
     <use xlink:href="#DejaVuSans-36" x="438.964844"/>
    </g>
   </g>
   <g id="text_17">
    <!-- bbob-biobj f24, f25, f31, f32, 3-D -->
    <g transform="translate(60.632064 17.582726)scale(0.102 -0.102)">
     <defs>
      <path id="DejaVuSans-6a" d="M 603 3500 
L 1178 3500 
L 1178 -63 
Q 1178 -731 923 -1031 
Q 669 -1331 103 -1331 
L -116 -1331 
L -116 -844 
L 38 -844 
Q 366 -844 484 -692 
Q 603 -541 603 -63 
L 603 3500 
z
M 603 4863 
L 1178 4863 
L 1178 4134 
L 603 4134 
L 603 4863 
z
" transform="scale(0.015625)"/>
      <path id="DejaVuSans-35" d="M 691 4666 
L 3169 4666 
L 3169 4134 
L 1269 4134 
L 1269 2991 
Q 1406 3038 1543 3061 
Q 1681 3084 1819 3084 
Q 2600 3084 3056 2656 
Q 3513 2228 3513 1497 
Q 3513 744 3044 326 
Q 2575 -91 1722 -91 
Q 1428 -91 1123 -41 
Q 819 9 494 109 
L 494 744 
Q 775 591 1075 516 
Q 1375 441 1709 441 
Q 2250 441 2565 725 
Q 2881 1009 2881 1497 
Q 2881 1984 2565 2268 
Q 2250 2553 1709 2553 
Q 1456 2553 1204 2497 
Q 953 2441 691 2322 
L 691 4666 
z
" transform="scale(0.015625)"/>
      <path id="DejaVuSans-33" d="M 2597 2516 
Q 3050 2419 3304 2112 
Q 3559 1806 3559 1356 
Q 3559 666 3084 287 
Q 2609 -91 1734 -91 
Q 1441 -91 1130 -33 
Q 819 25 488 141 
L 488 750 
Q 750 597 1062 519 
Q 1375 441 1716 441 
Q 2309 441 2620 675 
Q 2931 909 2931 1356 
Q 2931 1769 2642 2001 
Q 2353 2234 1838 2234 
L 1294 2234 
L 1294 2753 
L 1863 2753 
Q 2328 2753 2575 2939 
Q 2822 3125 2822 3475 
Q 2822 3834 2567 4026 
Q 2313 4219 1838 4219 
Q 1578 4219 1281 4162 
Q 984 4106 628 3988 
L 628 4550 
Q 988 4650 1302 4700 
Q 1616 4750 1894 4750 
Q 2613 4750 3031 4423 
Q 3450 4097 3450 3541 
Q 3450 3153 3228 2886 
Q 3006 2619 2597 2516 
z
" transform="scale(0.015625)"/>
      <path id="DejaVuSans-44" d="M 1259 4147 
L 1259 519 
L 2022 519 
Q 2988 519 3436 956 
Q 3884 1394 3884 2338 
Q 3884 3275 3436 3711 
Q 2988 4147 2022 4147 
L 1259 4147 
z
M 628 4666 
L 1925 4666 
Q 3281 4666 3915 4102 
Q 4550 3538 4550 2338 
Q 4550 1131 3912 565 
Q 3275 0 1925 0 
L 628 0 
L 628 4666 
z
" transform="scale(0.015625)"/>
     </defs>
     <use xlink:href="#DejaVuSans-62"/>
     <use xlink:href="#DejaVuSans-62" x="63.476562"/>
     <use xlink:href="#DejaVuSans-6f" x="126.953125"/>
     <use xlink:href="#DejaVuSans-62" x="188.134766"/>
     <use xlink:href="#DejaVuSans-2d" x="251.611328"/>
     <use xlink:href="#DejaVuSans-62" x="287.695312"/>
     <use xlink:href="#DejaVuSans-69" x="351.171875"/>
     <use xlink:href="#DejaVuSans-6f" x="378.955078"/>
     <use xlink:href="#DejaVuSans-62" x="440.136719"/>
     <use xlink:href="#DejaVuSans-6a" x="503.613281"/>
     <use xlink:href="#DejaVuSans-20" x="531.396484"/>
     <use xlink:href="#DejaVuSans-66" x="563.183594"/>
     <use xlink:href="#DejaVuSans-32" x="598.388672"/>
     <use xlink:href="#DejaVuSans-34" x="662.011719"/>
     <use xlink:href="#DejaVuSans-2c" x="725.634766"/>
     <use xlink:href="#DejaVuSans-20" x="757.421875"/>
     <use xlink:href="#DejaVuSans-66" x="789.208984"/>
     <use xlink:href="#DejaVuSans-32" x="824.414062"/>
     <use xlink:href="#DejaVuSans-35" x="888.037109"/>
     <use xlink:href="#DejaVuSans-2c" x="951.660156"/>
     <use xlink:href="#DejaVuSans-20" x="983.447266"/>
     <use xlink:href="#DejaVuSans-66" x="1015.234375"/>
     <use xlink:href="#DejaVuSans-33" x="1050.439453"/>
     <use xlink:href="#DejaVuSans-31" x="1114.0625"/>
     <use xlink:href="#DejaVuSans-2c" x="1177.685547"/>
     <use xlink:href="#DejaVuSans-20" x="1209.472656"/>
     <use xlink:href="#DejaVuSans-66" x="1241.259766"/>
     <use xlink:href="#DejaVuSans-33" x="1276.464844"/>
     <use xlink:href="#DejaVuSans-32" x="1340.087891"/>
     <use xlink:href="#DejaVuSans-2c" x="1403.710938"/>
     <use xlink:href="#DejaVuSans-20" x="1435.498047"/>
     <use xlink:href="#DejaVuSans-33" x="1467.285156"/>
     <use xlink:href="#DejaVuSans-2d" x="1530.908203"/>
     <use xlink:href="#DejaVuSans-44" x="1566.992188"/>
    </g>
    <!-- 58 targets: 1..-1.0e-4 -->
    <g transform="translate(60.632064 29.004495)scale(0.102 -0.102)">
     <defs>
      <path id="DejaVuSans-3a" d="M 750 794 
L 1409 794 
L 1409 0 
L 750 0 
L 750 794 
z
M 750 3309 
L 1409 3309 
L 1409 2516 
L 750 2516 
L 750 3309 
z
" transform="scale(0.015625)"/>
     </defs>
     <use xlink:href="#DejaVuSans-35"/>
     <use xlink:href="#DejaVuSans-38" x="63.623047"/>
     <use xlink:href="#DejaVuSans-20" x="127.246094"/>
     <use xlink:href="#DejaVuSans-74" x="159.033203"/>
     <use xlink:href="#DejaVuSans-61" x="198.242188"/>
     <use xlink:href="#DejaVuSans-72" x="259.521484"/>
     <use xlink:href="#DejaVuSans-67" x="298.884766"/>
     <use xlink:href="#DejaVuSans-65" x="362.361328"/>
     <use xlink:href="#DejaVuSans-74" x="423.884766"/>
     <use xlink:href="#DejaVuSans-73" x="463.09375"/>
     <use xlink:href="#DejaVuSans-3a" x="515.193359"/>
     <use xlink:href="#DejaVuSans-20" x="548.884766"/>
     <use xlink:href="#DejaVuSans-31" x="580.671875"/>
     <use xlink:href="#DejaVuSans-2e" x="644.294922"/>
     <use xlink:href="#DejaVuSans-2e" x="676.082031"/>
     <use xlink:href="#DejaVuSans-2d" x="707.869141"/>
     <use xlink:href="#DejaVuSans-31" x="743.953125"/>
     <use xlink:href="#DejaVuSans-2e" x="807.576172"/>
     <use xlink:href="#DejaVuSans-30" x="839.363281"/>
     <use xlink:href="#DejaVuSans-65" x="902.986328"/>
     <use xlink:href="#DejaVuSans-2d" x="964.509766"/>
     <use xlink:href="#DejaVuSans-34" x="1000.59375"/>
    </g>
    <!-- 10 instances -->
    <g transform="translate(60.632064 40.426264)scale(0.102 -0.102)">
     <use xlink:href="#DejaVuSans-31"/>
     <use xlink:href="#DejaVuSans-30" x="63.623047"/>
     <use xlink:href="#DejaVuSans-20" x="127.246094"/>
     <use xlink:href="#DejaVuSans-69" x="159.033203"/>
     <use xlink:href="#DejaVuSans-6e" x="186.816406"/>
     <use xlink:href="#DejaVuSans-73" x="250.195312"/>
     <use xlink:href="#DejaVuSans-74" x="302.294922"/>
     <use xlink:href="#DejaVuSans-61" x="341.503906"/>
     <use xlink:href="#DejaVuSans-6e" x="402.783203"/>
     <use xlink:href="#DejaVuSans-63" x="466.162109"/>
     <use xlink:href="#DejaVuSans-65" x="521.142578"/>
     <use xlink:href="#DejaVuSans-73" x="582.666016"/>
    </g>
   </g>
   <g id="text_18">
    <!-- v2.6, hv-hash=ff0e71e8cd978373 -->
    <g style="fill: #808080" transform="translate(123.707887 293.943992)scale(0.1 -0.1)">
     <defs>
      <path id="DejaVuSans-68" d="M 3513 2113 
L 3513 0 
L 2938 0 
L 2938 2094 
Q 2938 2591 2744 2837 
Q 2550 3084 2163 3084 
Q 1697 3084 1428 2787 
Q 1159 2491 1159 1978 
L 1159 0 
L 581 0 
L 581 4863 
L 1159 4863 
L 1159 2956 
Q 1366 3272 1645 3428 
Q 1925 3584 2291 3584 
Q 2894 3584 3203 3211 
Q 3513 2838 3513 2113 
z
" transform="scale(0.015625)"/>
      <path id="DejaVuSans-3d" d="M 678 2906 
L 4684 2906 
L 4684 2381 
L 678 2381 
L 678 2906 
z
M 678 1631 
L 4684 1631 
L 4684 1100 
L 678 1100 
L 678 1631 
z
" transform="scale(0.015625)"/>
      <path id="DejaVuSans-37" d="M 525 4666 
L 3525 4666 
L 3525 4397 
L 1831 0 
L 1172 0 
L 2766 4134 
L 525 4134 
L 525 4666 
z
" transform="scale(0.015625)"/>
      <path id="DejaVuSans-39" d="M 703 97 
L 703 672 
Q 941 559 1184 500 
Q 1428 441 1663 441 
Q 2288 441 2617 861 
Q 2947 1281 2994 2138 
Q 2813 1869 2534 1725 
Q 2256 1581 1919 1581 
Q 1219 1581 811 2004 
Q 403 2428 403 3163 
Q 403 3881 828 4315 
Q 1253 4750 1959 4750 
Q 2769 4750 3195 4129 
Q 3622 3509 3622 2328 
Q 3622 1225 3098 567 
Q 2575 -91 1691 -91 
Q 1453 -91 1209 -44 
Q 966 3 703 97 
z
M 1959 2075 
Q 2384 2075 2632 2365 
Q 2881 2656 2881 3163 
Q 2881 3666 2632 3958 
Q 2384 4250 1959 4250 
Q 1534 4250 1286 3958 
Q 1038 3666 1038 3163 
Q 1038 2656 1286 2365 
Q 1534 2075 1959 2075 
z
" transform="scale(0.015625)"/>
     </defs>
     <use xlink:href="#DejaVuSans-76"/>
     <use xlink:href="#DejaVuSans-32" x="59.179688"/>
     <use xlink:href="#DejaVuSans-2e" x="122.802734"/>
     <use xlink:href="#DejaVuSans-36" x="154.589844"/>
     <use xlink:href="#DejaVuSans-2c" x="218.212891"/>
     <use xlink:href="#DejaVuSans-20" x="250"/>
     <use xlink:href="#DejaVuSans-68" x="281.787109"/>
     <use xlink:href="#DejaVuSans-76" x="345.166016"/>
     <use xlink:href="#DejaVuSans-2d" x="401.720703"/>
     <use xlink:href="#DejaVuSans-68" x="437.804688"/>
     <use xlink:href="#DejaVuSans-61" x="501.183594"/>
     <use xlink:href="#DejaVuSans-73" x="562.462891"/>
     <use xlink:href="#DejaVuSans-68" x="614.5625"/>
     <use xlink:href="#DejaVuSans-3d" x="677.941406"/>
     <use xlink:href="#DejaVuSans-66" x="761.730469"/>
     <use xlink:href="#DejaVuSans-66" x="796.935547"/>
     <use xlink:href="#DejaVuSans-30" x="832.140625"/>
     <use xlink:href="#DejaVuSans-65" x="895.763672"/>
     <use xlink:href="#DejaVuSans-37" x="957.287109"/>
     <use xlink:href="#DejaVuSans-31" x="1020.910156"/>
     <use xlink:href="#DejaVuSans-65" x="1084.533203"/>
     <use xlink:href="#DejaVuSans-38" x="1146.056641"/>
     <use xlink:href="#DejaVuSans-63" x="1209.679688"/>
     <use xlink:href="#DejaVuSans-64" x="1264.660156"/>
     <use xlink:href="#DejaVuSans-39" x="1328.136719"/>
     <use xlink:href="#DejaVuSans-37" x="1391.759766"/>
     <use xlink:href="#DejaVuSans-38" x="1455.382812"/>
     <use xlink:href="#DejaVuSans-33" x="1519.005859"/>
     <use xlink:href="#DejaVuSans-37" x="1582.628906"/>
     <use xlink:href="#DejaVuSans-33" x="1646.251953"/>
    </g>
   </g>
  </g>
 </g>
 <defs>
  <clipPath id="pdbeede8f31">
   <rect x="57.6" y="6.912" width="303.2064" height="292.032"/>
  </clipPath>
 </defs>
</svg>
