<?xml version="1.0" encoding="utf-8" standalone="no"?>
<!DOCTYPE svg PUBLIC "-//W3C//DTD SVG 1.1//EN"
  "http://www.w3.org/Graphics/SVG/1.1/DTD/svg11.dtd">
<svg xmlns:xlink="http://www.w3.org/1999/xlink" width="460.8pt" height="345.6pt" viewBox="0 0 460.8 345.6" xmlns="http://www.w3.org/2000/svg" version="1.1">
 <metadata>
  <rdf:RDF xmlns:dc="http://purl.org/dc/elements/1.1/" xmlns:cc="http://creativecommons.org/ns#" xmlns:rdf="http://www.w3.org/1999/02/22-rdf-syntax-ns#">
   <cc:Work>
    <dc:type rdf:resource="http://purl.org/dc/dcmitype/StillImage"/>
    <dc:date>2022-06-19T21:02:34.400358</dc:date>
    <dc:format>image/svg+xml</dc:format>
    <dc:creator>
     <cc:Agent>
      <dc:title>Matplotlib v3.5.1, https://matplotlib.org/</dc:title>
     </cc:Agent>
    </dc:creator>
   </cc:Work>
  </rdf:RDF>
 </metadata>
 <defs>
  <style type="text/css">*{stroke-linejoin: round; stroke-linecap: butt}</style>
 </defs>
 <g id="figure_1">
  <g id="patch_1">
   <path d="M 0 345.6 
L 460.8 345.6 
L 460.8 0 
L 0 0 
z
" style="fill: #ffffff"/>
  </g>
  <g id="axes_1">
   <g id="patch_2">
    <path d="M 57.6 298.944 
L 360.8064 298.944 
L 360.8064 6.912 
L 57.6 6.912 
z
" style="fill: #ffffff"/>
   </g>
   <g id="line2d_1">
    <path d="M 65.227428 298.944 
L 65.227428 297.265655 
L 70.639174 297.265655 
L 70.639174 295.58731 
L 74.836851 295.58731 
L 74.836851 292.230621 
L 83.678349 292.230621 
L 83.678349 290.552276 
L 87.876026 290.552276 
L 87.876026 287.195586 
L 89.668958 287.195586 
L 89.668958 283.838897 
L 96.717523 283.838897 
L 96.717523 282.160552 
L 100.9152 282.160552 
L 100.9152 273.768828 
L 105.112877 273.768828 
L 105.112877 270.412138 
L 105.850679 270.412138 
L 105.850679 267.055448 
L 106.560633 267.055448 
L 106.560633 265.377103 
L 111.442442 265.377103 
L 111.442442 262.020414 
L 117.384126 262.020414 
L 117.384126 260.342069 
L 121.581803 260.342069 
L 121.581803 255.307034 
L 124.210942 255.307034 
L 124.210942 253.62869 
L 124.748451 253.62869 
L 124.748451 248.593655 
L 125.011554 248.593655 
L 125.011554 245.236966 
L 129.622688 245.236966 
L 129.622688 240.201931 
L 132.984158 240.201931 
L 132.984158 236.845241 
L 133.323114 236.845241 
L 133.323114 231.810207 
L 138.438609 231.810207 
L 138.438609 228.453517 
L 138.818654 228.453517 
L 138.818654 223.418483 
L 142.763822 223.418483 
L 142.865233 218.383448 
L 143.850356 218.383448 
L 143.850356 215.026759 
L 145.148219 215.026759 
L 145.148219 211.670069 
L 147.423525 211.670069 
L 147.423525 208.313379 
L 149.020615 208.313379 
L 149.020615 203.278345 
L 149.806031 203.278345 
L 149.806031 199.921655 
L 152.715833 199.921655 
L 152.715833 196.564966 
L 153.650761 196.564966 
L 153.650761 193.208276 
L 155.443693 193.208276 
L 155.443693 191.529931 
L 155.85377 191.529931 
L 155.85377 188.173241 
L 156.84148 188.173241 
L 156.84148 184.816552 
L 159.857774 184.816552 
L 159.857774 181.459862 
L 160.102084 181.459862 
L 160.102084 176.424828 
L 160.816532 176.424828 
L 160.816532 174.746483 
L 163.96507 174.746483 
L 163.96507 173.068138 
L 165.021997 173.068138 
L 165.021997 168.033103 
L 165.814821 168.033103 
L 165.814821 166.354759 
L 167.823671 166.354759 
L 167.823671 161.319724 
L 171.493403 161.319724 
L 171.493403 159.641379 
L 172.058879 159.641379 
L 172.058879 154.606345 
L 172.670177 154.606345 
L 172.670177 152.928 
L 177.936177 152.928 
L 177.936177 147.892966 
L 185.479812 147.892966 
L 185.479812 144.536276 
L 186.620255 144.536276 
L 186.620255 142.857931 
L 187.862709 142.857931 
L 187.954967 132.787862 
L 193.267517 132.787862 
L 193.267517 131.109517 
L 194.214721 131.109517 
L 194.214721 127.752828 
L 195.360209 127.752828 
L 195.360209 122.717793 
L 198.954795 122.717793 
L 198.954795 119.361103 
L 203.086711 119.361103 
L 203.086711 116.004414 
L 203.28738 116.004414 
L 203.28738 114.326069 
L 203.750098 114.326069 
L 203.750098 112.647724 
L 207.220875 112.647724 
L 207.220875 109.291034 
L 207.816155 109.291034 
L 207.816155 104.256 
L 211.785107 104.256 
L 211.785107 99.220966 
L 216.162904 99.220966 
L 216.162904 97.542621 
L 216.864638 97.542621 
L 216.864638 95.864276 
L 216.990891 95.864276 
L 216.990891 94.185931 
L 217.215643 94.185931 
L 217.215643 90.829241 
L 222.868198 90.829241 
L 222.868198 85.794207 
L 223.801286 85.794207 
L 223.801286 80.759172 
L 229.754774 80.759172 
L 229.754774 77.402483 
L 230.122245 77.402483 
L 230.122245 74.045793 
L 230.803337 74.045793 
L 230.803337 69.010759 
L 235.895141 69.010759 
L 235.895141 65.654069 
L 239.130525 65.654069 
L 239.130525 62.297379 
L 243.212219 62.297379 
L 243.212219 60.619034 
L 247.213757 60.619034 
L 247.213757 58.94069 
L 248.228126 58.94069 
L 248.228126 55.584 
L 252.702044 55.584 
L 252.702044 52.22731 
L 254.033456 52.22731 
L 254.033456 47.192276 
L 258.887064 47.192276 
L 258.887064 42.157241 
L 360.8064 42.157241 
L 360.8064 42.157241 
" style="fill: none; stroke: #f5deb3; stroke-width: 4; stroke-linecap: square"/>
   </g>
   <g id="line2d_2">
    <defs>
     <path id="m80f3b862d9" d="M 0 7.778175 
L 7.778175 0 
L 0 -7.778175 
L -7.778175 0 
z
" style="stroke: #f5deb3; stroke-width: 1.5; stroke-linejoin: miter"/>
    </defs>
    <g>
     <use xlink:href="#m80f3b862d9" x="153.650761" y="193.208276" style="fill: #f5deb3; stroke: #f5deb3; stroke-width: 1.5; stroke-linejoin: miter"/>
     <use xlink:href="#m80f3b862d9" x="211.785107" y="104.256" style="fill: #f5deb3; stroke: #f5deb3; stroke-width: 1.5; stroke-linejoin: miter"/>
     <use xlink:href="#m80f3b862d9" x="258.887064" y="42.157241" style="fill: #f5deb3; stroke: #f5deb3; stroke-width: 1.5; stroke-linejoin: miter"/>
     <use xlink:href="#m80f3b862d9" x="258.887064" y="42.157241" style="fill: #f5deb3; stroke: #f5deb3; stroke-width: 1.5; stroke-linejoin: miter"/>
     <use xlink:href="#m80f3b862d9" x="360.8064" y="42.157241" style="fill: #f5deb3; stroke: #f5deb3; stroke-width: 1.5; stroke-linejoin: miter"/>
    </g>
   </g>
   <g id="line2d_3">
    <path style="fill: none; stroke: #f5deb3; stroke-width: 4; stroke-linecap: square"/>
    <g/>
   </g>
   <g id="line2d_4">
    <path d="M 360.8064 42.157241 
L 380.514816 12.75264 
" style="fill: none; stroke: #f5deb3; stroke-width: 4; stroke-linecap: square"/>
    <g>
     <use xlink:href="#m80f3b862d9" x="360.8064" y="42.157241" style="fill: #f5deb3; stroke: #f5deb3; stroke-width: 1.5; stroke-linejoin: miter"/>
     <use xlink:href="#m80f3b862d9" x="380.514816" y="12.75264" style="fill: #f5deb3; stroke: #f5deb3; stroke-width: 1.5; stroke-linejoin: miter"/>
    </g>
   </g>
   <g id="matplotlib.axis_1">
    <g id="xtick_1">
     <g id="line2d_5">
      <path d="M 57.6 298.944 
L 57.6 6.912 
" clip-path="url(#pbeb940a6e9)" style="fill: none; stroke: #b0b0b0; stroke-width: 0.8; stroke-linecap: square"/>
     </g>
     <g id="line2d_6">
      <defs>
       <path id="m28b4977f7e" d="M 0 0 
L 0 3.5 
" style="stroke: #000000; stroke-width: 0.8"/>
      </defs>
      <g>
       <use xlink:href="#m28b4977f7e" x="57.6" y="298.944" style="stroke: #000000; stroke-width: 0.8"/>
      </g>
     </g>
     <g id="text_1">
      <!-- 0 -->
      <g transform="translate(52.191875 318.861344)scale(0.17 -0.17)">
       <defs>
        <path id="DejaVuSans-30" d="M 2034 4250 
Q 1547 4250 1301 3770 
Q 1056 3291 1056 2328 
Q 1056 1369 1301 889 
Q 1547 409 2034 409 
Q 2525 409 2770 889 
Q 3016 1369 3016 2328 
Q 3016 3291 2770 3770 
Q 2525 4250 2034 4250 
z
M 2034 4750 
Q 2819 4750 3233 4129 
Q 3647 3509 3647 2328 
Q 3647 1150 3233 529 
Q 2819 -91 2034 -91 
Q 1250 -91 836 529 
Q 422 1150 422 2328 
Q 422 3509 836 4129 
Q 1250 4750 2034 4750 
z
" transform="scale(0.015625)"/>
       </defs>
       <use xlink:href="#DejaVuSans-30"/>
      </g>
     </g>
    </g>
    <g id="xtick_2">
     <g id="line2d_7">
      <path d="M 144.2304 298.944 
L 144.2304 6.912 
" clip-path="url(#pbeb940a6e9)" style="fill: none; stroke: #b0b0b0; stroke-width: 0.8; stroke-linecap: square"/>
     </g>
     <g id="line2d_8">
      <g>
       <use xlink:href="#m28b4977f7e" x="144.2304" y="298.944" style="stroke: #000000; stroke-width: 0.8"/>
      </g>
     </g>
     <g id="text_2">
      <!-- 2 -->
      <g transform="translate(138.822275 318.861344)scale(0.17 -0.17)">
       <defs>
        <path id="DejaVuSans-32" d="M 1228 531 
L 3431 531 
L 3431 0 
L 469 0 
L 469 531 
Q 828 903 1448 1529 
Q 2069 2156 2228 2338 
Q 2531 2678 2651 2914 
Q 2772 3150 2772 3378 
Q 2772 3750 2511 3984 
Q 2250 4219 1831 4219 
Q 1534 4219 1204 4116 
Q 875 4013 500 3803 
L 500 4441 
Q 881 4594 1212 4672 
Q 1544 4750 1819 4750 
Q 2544 4750 2975 4387 
Q 3406 4025 3406 3419 
Q 3406 3131 3298 2873 
Q 3191 2616 2906 2266 
Q 2828 2175 2409 1742 
Q 1991 1309 1228 531 
z
" transform="scale(0.015625)"/>
       </defs>
       <use xlink:href="#DejaVuSans-32"/>
      </g>
     </g>
    </g>
    <g id="xtick_3">
     <g id="line2d_9">
      <path d="M 230.8608 298.944 
L 230.8608 6.912 
" clip-path="url(#pbeb940a6e9)" style="fill: none; stroke: #b0b0b0; stroke-width: 0.8; stroke-linecap: square"/>
     </g>
     <g id="line2d_10">
      <g>
       <use xlink:href="#m28b4977f7e" x="230.8608" y="298.944" style="stroke: #000000; stroke-width: 0.8"/>
      </g>
     </g>
     <g id="text_3">
      <!-- 4 -->
      <g transform="translate(225.452675 318.861344)scale(0.17 -0.17)">
       <defs>
        <path id="DejaVuSans-34" d="M 2419 4116 
L 825 1625 
L 2419 1625 
L 2419 4116 
z
M 2253 4666 
L 3047 4666 
L 3047 1625 
L 3713 1625 
L 3713 1100 
L 3047 1100 
L 3047 0 
L 2419 0 
L 2419 1100 
L 313 1100 
L 313 1709 
L 2253 4666 
z
" transform="scale(0.015625)"/>
       </defs>
       <use xlink:href="#DejaVuSans-34"/>
      </g>
     </g>
    </g>
    <g id="xtick_4">
     <g id="line2d_11">
      <path d="M 317.4912 298.944 
L 317.4912 6.912 
" clip-path="url(#pbeb940a6e9)" style="fill: none; stroke: #b0b0b0; stroke-width: 0.8; stroke-linecap: square"/>
     </g>
     <g id="line2d_12">
      <g>
       <use xlink:href="#m28b4977f7e" x="317.4912" y="298.944" style="stroke: #000000; stroke-width: 0.8"/>
      </g>
     </g>
     <g id="text_4">
      <!-- 6 -->
      <g transform="translate(312.083075 318.861344)scale(0.17 -0.17)">
       <defs>
        <path id="DejaVuSans-36" d="M 2113 2584 
Q 1688 2584 1439 2293 
Q 1191 2003 1191 1497 
Q 1191 994 1439 701 
Q 1688 409 2113 409 
Q 2538 409 2786 701 
Q 3034 994 3034 1497 
Q 3034 2003 2786 2293 
Q 2538 2584 2113 2584 
z
M 3366 4563 
L 3366 3988 
Q 3128 4100 2886 4159 
Q 2644 4219 2406 4219 
Q 1781 4219 1451 3797 
Q 1122 3375 1075 2522 
Q 1259 2794 1537 2939 
Q 1816 3084 2150 3084 
Q 2853 3084 3261 2657 
Q 3669 2231 3669 1497 
Q 3669 778 3244 343 
Q 2819 -91 2113 -91 
Q 1303 -91 875 529 
Q 447 1150 447 2328 
Q 447 3434 972 4092 
Q 1497 4750 2381 4750 
Q 2619 4750 2861 4703 
Q 3103 4656 3366 4563 
z
" transform="scale(0.015625)"/>
       </defs>
       <use xlink:href="#DejaVuSans-36"/>
      </g>
     </g>
    </g>
    <g id="xtick_5">
     <g id="line2d_13">
      <path d="M 100.9152 298.944 
L 100.9152 6.912 
" clip-path="url(#pbeb940a6e9)" style="fill: none; stroke: #b0b0b0; stroke-width: 0.8; stroke-linecap: square"/>
     </g>
     <g id="line2d_14">
      <defs>
       <path id="m93dc526739" d="M 0 0 
L 0 2 
" style="stroke: #000000; stroke-width: 0.6"/>
      </defs>
      <g>
       <use xlink:href="#m93dc526739" x="100.9152" y="298.944" style="stroke: #000000; stroke-width: 0.6"/>
      </g>
     </g>
    </g>
    <g id="xtick_6">
     <g id="line2d_15">
      <path d="M 187.5456 298.944 
L 187.5456 6.912 
" clip-path="url(#pbeb940a6e9)" style="fill: none; stroke: #b0b0b0; stroke-width: 0.8; stroke-linecap: square"/>
     </g>
     <g id="line2d_16">
      <g>
       <use xlink:href="#m93dc526739" x="187.5456" y="298.944" style="stroke: #000000; stroke-width: 0.6"/>
      </g>
     </g>
    </g>
    <g id="xtick_7">
     <g id="line2d_17">
      <path d="M 274.176 298.944 
L 274.176 6.912 
" clip-path="url(#pbeb940a6e9)" style="fill: none; stroke: #b0b0b0; stroke-width: 0.8; stroke-linecap: square"/>
     </g>
     <g id="line2d_18">
      <g>
       <use xlink:href="#m93dc526739" x="274.176" y="298.944" style="stroke: #000000; stroke-width: 0.6"/>
      </g>
     </g>
    </g>
    <g id="xtick_8">
     <g id="line2d_19">
      <path d="M 360.8064 298.944 
L 360.8064 6.912 
" clip-path="url(#pbeb940a6e9)" style="fill: none; stroke: #b0b0b0; stroke-width: 0.8; stroke-linecap: square"/>
     </g>
     <g id="line2d_20">
      <g>
       <use xlink:href="#m93dc526739" x="360.8064" y="298.944" style="stroke: #000000; stroke-width: 0.6"/>
      </g>
     </g>
    </g>
    <g id="text_5">
     <!-- log10(# f-evals / dimension) -->
     <g transform="translate(88.823278 339.314156)scale(0.17 -0.17)">
      <defs>
       <path id="DejaVuSans-6c" d="M 603 4863 
L 1178 4863 
L 1178 0 
L 603 0 
L 603 4863 
z
" transform="scale(0.015625)"/>
       <path id="DejaVuSans-6f" d="M 1959 3097 
Q 1497 3097 1228 2736 
Q 959 2375 959 1747 
Q 959 1119 1226 758 
Q 1494 397 1959 397 
Q 2419 397 2687 759 
Q 2956 1122 2956 1747 
Q 2956 2369 2687 2733 
Q 2419 3097 1959 3097 
z
M 1959 3584 
Q 2709 3584 3137 3096 
Q 3566 2609 3566 1747 
Q 3566 888 3137 398 
Q 2709 -91 1959 -91 
Q 1206 -91 779 398 
Q 353 888 353 1747 
Q 353 2609 779 3096 
Q 1206 3584 1959 3584 
z
" transform="scale(0.015625)"/>
       <path id="DejaVuSans-67" d="M 2906 1791 
Q 2906 2416 2648 2759 
Q 2391 3103 1925 3103 
Q 1463 3103 1205 2759 
Q 947 2416 947 1791 
Q 947 1169 1205 825 
Q 1463 481 1925 481 
Q 2391 481 2648 825 
Q 2906 1169 2906 1791 
z
M 3481 434 
Q 3481 -459 3084 -895 
Q 2688 -1331 1869 -1331 
Q 1566 -1331 1297 -1286 
Q 1028 -1241 775 -1147 
L 775 -588 
Q 1028 -725 1275 -790 
Q 1522 -856 1778 -856 
Q 2344 -856 2625 -561 
Q 2906 -266 2906 331 
L 2906 616 
Q 2728 306 2450 153 
Q 2172 0 1784 0 
Q 1141 0 747 490 
Q 353 981 353 1791 
Q 353 2603 747 3093 
Q 1141 3584 1784 3584 
Q 2172 3584 2450 3431 
Q 2728 3278 2906 2969 
L 2906 3500 
L 3481 3500 
L 3481 434 
z
" transform="scale(0.015625)"/>
       <path id="DejaVuSans-31" d="M 794 531 
L 1825 531 
L 1825 4091 
L 703 3866 
L 703 4441 
L 1819 4666 
L 2450 4666 
L 2450 531 
L 3481 531 
L 3481 0 
L 794 0 
L 794 531 
z
" transform="scale(0.015625)"/>
       <path id="DejaVuSans-28" d="M 1984 4856 
Q 1566 4138 1362 3434 
Q 1159 2731 1159 2009 
Q 1159 1288 1364 580 
Q 1569 -128 1984 -844 
L 1484 -844 
Q 1016 -109 783 600 
Q 550 1309 550 2009 
Q 550 2706 781 3412 
Q 1013 4119 1484 4856 
L 1984 4856 
z
" transform="scale(0.015625)"/>
       <path id="DejaVuSans-23" d="M 3272 2816 
L 2363 2816 
L 2100 1772 
L 3016 1772 
L 3272 2816 
z
M 2803 4594 
L 2478 3297 
L 3391 3297 
L 3719 4594 
L 4219 4594 
L 3897 3297 
L 4872 3297 
L 4872 2816 
L 3775 2816 
L 3519 1772 
L 4513 1772 
L 4513 1294 
L 3397 1294 
L 3072 0 
L 2572 0 
L 2894 1294 
L 1978 1294 
L 1656 0 
L 1153 0 
L 1478 1294 
L 494 1294 
L 494 1772 
L 1594 1772 
L 1856 2816 
L 850 2816 
L 850 3297 
L 1978 3297 
L 2297 4594 
L 2803 4594 
z
" transform="scale(0.015625)"/>
       <path id="DejaVuSans-20" transform="scale(0.015625)"/>
       <path id="DejaVuSans-66" d="M 2375 4863 
L 2375 4384 
L 1825 4384 
Q 1516 4384 1395 4259 
Q 1275 4134 1275 3809 
L 1275 3500 
L 2222 3500 
L 2222 3053 
L 1275 3053 
L 1275 0 
L 697 0 
L 697 3053 
L 147 3053 
L 147 3500 
L 697 3500 
L 697 3744 
Q 697 4328 969 4595 
Q 1241 4863 1831 4863 
L 2375 4863 
z
" transform="scale(0.015625)"/>
       <path id="DejaVuSans-2d" d="M 313 2009 
L 1997 2009 
L 1997 1497 
L 313 1497 
L 313 2009 
z
" transform="scale(0.015625)"/>
       <path id="DejaVuSans-65" d="M 3597 1894 
L 3597 1613 
L 953 1613 
Q 991 1019 1311 708 
Q 1631 397 2203 397 
Q 2534 397 2845 478 
Q 3156 559 3463 722 
L 3463 178 
Q 3153 47 2828 -22 
Q 2503 -91 2169 -91 
Q 1331 -91 842 396 
Q 353 884 353 1716 
Q 353 2575 817 3079 
Q 1281 3584 2069 3584 
Q 2775 3584 3186 3129 
Q 3597 2675 3597 1894 
z
M 3022 2063 
Q 3016 2534 2758 2815 
Q 2500 3097 2075 3097 
Q 1594 3097 1305 2825 
Q 1016 2553 972 2059 
L 3022 2063 
z
" transform="scale(0.015625)"/>
       <path id="DejaVuSans-76" d="M 191 3500 
L 800 3500 
L 1894 563 
L 2988 3500 
L 3597 3500 
L 2284 0 
L 1503 0 
L 191 3500 
z
" transform="scale(0.015625)"/>
       <path id="DejaVuSans-61" d="M 2194 1759 
Q 1497 1759 1228 1600 
Q 959 1441 959 1056 
Q 959 750 1161 570 
Q 1363 391 1709 391 
Q 2188 391 2477 730 
Q 2766 1069 2766 1631 
L 2766 1759 
L 2194 1759 
z
M 3341 1997 
L 3341 0 
L 2766 0 
L 2766 531 
Q 2569 213 2275 61 
Q 1981 -91 1556 -91 
Q 1019 -91 701 211 
Q 384 513 384 1019 
Q 384 1609 779 1909 
Q 1175 2209 1959 2209 
L 2766 2209 
L 2766 2266 
Q 2766 2663 2505 2880 
Q 2244 3097 1772 3097 
Q 1472 3097 1187 3025 
Q 903 2953 641 2809 
L 641 3341 
Q 956 3463 1253 3523 
Q 1550 3584 1831 3584 
Q 2591 3584 2966 3190 
Q 3341 2797 3341 1997 
z
" transform="scale(0.015625)"/>
       <path id="DejaVuSans-73" d="M 2834 3397 
L 2834 2853 
Q 2591 2978 2328 3040 
Q 2066 3103 1784 3103 
Q 1356 3103 1142 2972 
Q 928 2841 928 2578 
Q 928 2378 1081 2264 
Q 1234 2150 1697 2047 
L 1894 2003 
Q 2506 1872 2764 1633 
Q 3022 1394 3022 966 
Q 3022 478 2636 193 
Q 2250 -91 1575 -91 
Q 1294 -91 989 -36 
Q 684 19 347 128 
L 347 722 
Q 666 556 975 473 
Q 1284 391 1588 391 
Q 1994 391 2212 530 
Q 2431 669 2431 922 
Q 2431 1156 2273 1281 
Q 2116 1406 1581 1522 
L 1381 1569 
Q 847 1681 609 1914 
Q 372 2147 372 2553 
Q 372 3047 722 3315 
Q 1072 3584 1716 3584 
Q 2034 3584 2315 3537 
Q 2597 3491 2834 3397 
z
" transform="scale(0.015625)"/>
       <path id="DejaVuSans-2f" d="M 1625 4666 
L 2156 4666 
L 531 -594 
L 0 -594 
L 1625 4666 
z
" transform="scale(0.015625)"/>
       <path id="DejaVuSans-64" d="M 2906 2969 
L 2906 4863 
L 3481 4863 
L 3481 0 
L 2906 0 
L 2906 525 
Q 2725 213 2448 61 
Q 2172 -91 1784 -91 
Q 1150 -91 751 415 
Q 353 922 353 1747 
Q 353 2572 751 3078 
Q 1150 3584 1784 3584 
Q 2172 3584 2448 3432 
Q 2725 3281 2906 2969 
z
M 947 1747 
Q 947 1113 1208 752 
Q 1469 391 1925 391 
Q 2381 391 2643 752 
Q 2906 1113 2906 1747 
Q 2906 2381 2643 2742 
Q 2381 3103 1925 3103 
Q 1469 3103 1208 2742 
Q 947 2381 947 1747 
z
" transform="scale(0.015625)"/>
       <path id="DejaVuSans-69" d="M 603 3500 
L 1178 3500 
L 1178 0 
L 603 0 
L 603 3500 
z
M 603 4863 
L 1178 4863 
L 1178 4134 
L 603 4134 
L 603 4863 
z
" transform="scale(0.015625)"/>
       <path id="DejaVuSans-6d" d="M 3328 2828 
Q 3544 3216 3844 3400 
Q 4144 3584 4550 3584 
Q 5097 3584 5394 3201 
Q 5691 2819 5691 2113 
L 5691 0 
L 5113 0 
L 5113 2094 
Q 5113 2597 4934 2840 
Q 4756 3084 4391 3084 
Q 3944 3084 3684 2787 
Q 3425 2491 3425 1978 
L 3425 0 
L 2847 0 
L 2847 2094 
Q 2847 2600 2669 2842 
Q 2491 3084 2119 3084 
Q 1678 3084 1418 2786 
Q 1159 2488 1159 1978 
L 1159 0 
L 581 0 
L 581 3500 
L 1159 3500 
L 1159 2956 
Q 1356 3278 1631 3431 
Q 1906 3584 2284 3584 
Q 2666 3584 2933 3390 
Q 3200 3197 3328 2828 
z
" transform="scale(0.015625)"/>
       <path id="DejaVuSans-6e" d="M 3513 2113 
L 3513 0 
L 2938 0 
L 2938 2094 
Q 2938 2591 2744 2837 
Q 2550 3084 2163 3084 
Q 1697 3084 1428 2787 
Q 1159 2491 1159 1978 
L 1159 0 
L 581 0 
L 581 3500 
L 1159 3500 
L 1159 2956 
Q 1366 3272 1645 3428 
Q 1925 3584 2291 3584 
Q 2894 3584 3203 3211 
Q 3513 2838 3513 2113 
z
" transform="scale(0.015625)"/>
       <path id="DejaVuSans-29" d="M 513 4856 
L 1013 4856 
Q 1481 4119 1714 3412 
Q 1947 2706 1947 2009 
Q 1947 1309 1714 600 
Q 1481 -109 1013 -844 
L 513 -844 
Q 928 -128 1133 580 
Q 1338 1288 1338 2009 
Q 1338 2731 1133 3434 
Q 928 4138 513 4856 
z
" transform="scale(0.015625)"/>
      </defs>
      <use xlink:href="#DejaVuSans-6c"/>
      <use xlink:href="#DejaVuSans-6f" x="27.783203"/>
      <use xlink:href="#DejaVuSans-67" x="88.964844"/>
      <use xlink:href="#DejaVuSans-31" x="152.441406"/>
      <use xlink:href="#DejaVuSans-30" x="216.064453"/>
      <use xlink:href="#DejaVuSans-28" x="279.6875"/>
      <use xlink:href="#DejaVuSans-23" x="318.701172"/>
      <use xlink:href="#DejaVuSans-20" x="402.490234"/>
      <use xlink:href="#DejaVuSans-66" x="434.277344"/>
      <use xlink:href="#DejaVuSans-2d" x="463.982422"/>
      <use xlink:href="#DejaVuSans-65" x="500.066406"/>
      <use xlink:href="#DejaVuSans-76" x="561.589844"/>
      <use xlink:href="#DejaVuSans-61" x="620.769531"/>
      <use xlink:href="#DejaVuSans-6c" x="682.048828"/>
      <use xlink:href="#DejaVuSans-73" x="709.832031"/>
      <use xlink:href="#DejaVuSans-20" x="761.931641"/>
      <use xlink:href="#DejaVuSans-2f" x="793.71875"/>
      <use xlink:href="#DejaVuSans-20" x="827.410156"/>
      <use xlink:href="#DejaVuSans-64" x="859.197266"/>
      <use xlink:href="#DejaVuSans-69" x="922.673828"/>
      <use xlink:href="#DejaVuSans-6d" x="950.457031"/>
      <use xlink:href="#DejaVuSans-65" x="1047.869141"/>
      <use xlink:href="#DejaVuSans-6e" x="1109.392578"/>
      <use xlink:href="#DejaVuSans-73" x="1172.771484"/>
      <use xlink:href="#DejaVuSans-69" x="1224.871094"/>
      <use xlink:href="#DejaVuSans-6f" x="1252.654297"/>
      <use xlink:href="#DejaVuSans-6e" x="1313.835938"/>
      <use xlink:href="#DejaVuSans-29" x="1377.214844"/>
     </g>
    </g>
   </g>
   <g id="matplotlib.axis_2">
    <g id="ytick_1">
     <g id="line2d_21">
      <path d="M 57.6 298.944 
L 360.8064 298.944 
" clip-path="url(#pbeb940a6e9)" style="fill: none; stroke: #b0b0b0; stroke-width: 0.8; stroke-linecap: square"/>
     </g>
     <g id="line2d_22">
      <defs>
       <path id="mdcc5cc1b80" d="M 0 0 
L -3.5 0 
" style="stroke: #000000; stroke-width: 0.8"/>
      </defs>
      <g>
       <use xlink:href="#mdcc5cc1b80" x="57.6" y="298.944" style="stroke: #000000; stroke-width: 0.8"/>
      </g>
     </g>
     <g id="text_6">
      <!-- 0.0 -->
      <g transform="translate(25.155 305.02275)scale(0.16 -0.16)">
       <defs>
        <path id="DejaVuSans-2e" d="M 684 794 
L 1344 794 
L 1344 0 
L 684 0 
L 684 794 
z
" transform="scale(0.015625)"/>
       </defs>
       <use xlink:href="#DejaVuSans-30"/>
       <use xlink:href="#DejaVuSans-2e" x="63.623047"/>
       <use xlink:href="#DejaVuSans-30" x="95.410156"/>
      </g>
     </g>
    </g>
    <g id="ytick_2">
     <g id="line2d_23">
      <path d="M 57.6 240.5376 
L 360.8064 240.5376 
" clip-path="url(#pbeb940a6e9)" style="fill: none; stroke: #b0b0b0; stroke-width: 0.8; stroke-linecap: square"/>
     </g>
     <g id="line2d_24">
      <g>
       <use xlink:href="#mdcc5cc1b80" x="57.6" y="240.5376" style="stroke: #000000; stroke-width: 0.8"/>
      </g>
     </g>
     <g id="text_7">
      <!-- 0.2 -->
      <g transform="translate(25.155 246.61635)scale(0.16 -0.16)">
       <use xlink:href="#DejaVuSans-30"/>
       <use xlink:href="#DejaVuSans-2e" x="63.623047"/>
       <use xlink:href="#DejaVuSans-32" x="95.410156"/>
      </g>
     </g>
    </g>
    <g id="ytick_3">
     <g id="line2d_25">
      <path d="M 57.6 182.1312 
L 360.8064 182.1312 
" clip-path="url(#pbeb940a6e9)" style="fill: none; stroke: #b0b0b0; stroke-width: 0.8; stroke-linecap: square"/>
     </g>
     <g id="line2d_26">
      <g>
       <use xlink:href="#mdcc5cc1b80" x="57.6" y="182.1312" style="stroke: #000000; stroke-width: 0.8"/>
      </g>
     </g>
     <g id="text_8">
      <!-- 0.4 -->
      <g transform="translate(25.155 188.20995)scale(0.16 -0.16)">
       <use xlink:href="#DejaVuSans-30"/>
       <use xlink:href="#DejaVuSans-2e" x="63.623047"/>
       <use xlink:href="#DejaVuSans-34" x="95.410156"/>
      </g>
     </g>
    </g>
    <g id="ytick_4">
     <g id="line2d_27">
      <path d="M 57.6 123.7248 
L 360.8064 123.7248 
" clip-path="url(#pbeb940a6e9)" style="fill: none; stroke: #b0b0b0; stroke-width: 0.8; stroke-linecap: square"/>
     </g>
     <g id="line2d_28">
      <g>
       <use xlink:href="#mdcc5cc1b80" x="57.6" y="123.7248" style="stroke: #000000; stroke-width: 0.8"/>
      </g>
     </g>
     <g id="text_9">
      <!-- 0.6 -->
      <g transform="translate(25.155 129.80355)scale(0.16 -0.16)">
       <use xlink:href="#DejaVuSans-30"/>
       <use xlink:href="#DejaVuSans-2e" x="63.623047"/>
       <use xlink:href="#DejaVuSans-36" x="95.410156"/>
      </g>
     </g>
    </g>
    <g id="ytick_5">
     <g id="line2d_29">
      <path d="M 57.6 65.3184 
L 360.8064 65.3184 
" clip-path="url(#pbeb940a6e9)" style="fill: none; stroke: #b0b0b0; stroke-width: 0.8; stroke-linecap: square"/>
     </g>
     <g id="line2d_30">
      <g>
       <use xlink:href="#mdcc5cc1b80" x="57.6" y="65.3184" style="stroke: #000000; stroke-width: 0.8"/>
      </g>
     </g>
     <g id="text_10">
      <!-- 0.8 -->
      <g transform="translate(25.155 71.39715)scale(0.16 -0.16)">
       <defs>
        <path id="DejaVuSans-38" d="M 2034 2216 
Q 1584 2216 1326 1975 
Q 1069 1734 1069 1313 
Q 1069 891 1326 650 
Q 1584 409 2034 409 
Q 2484 409 2743 651 
Q 3003 894 3003 1313 
Q 3003 1734 2745 1975 
Q 2488 2216 2034 2216 
z
M 1403 2484 
Q 997 2584 770 2862 
Q 544 3141 544 3541 
Q 544 4100 942 4425 
Q 1341 4750 2034 4750 
Q 2731 4750 3128 4425 
Q 3525 4100 3525 3541 
Q 3525 3141 3298 2862 
Q 3072 2584 2669 2484 
Q 3125 2378 3379 2068 
Q 3634 1759 3634 1313 
Q 3634 634 3220 271 
Q 2806 -91 2034 -91 
Q 1263 -91 848 271 
Q 434 634 434 1313 
Q 434 1759 690 2068 
Q 947 2378 1403 2484 
z
M 1172 3481 
Q 1172 3119 1398 2916 
Q 1625 2713 2034 2713 
Q 2441 2713 2670 2916 
Q 2900 3119 2900 3481 
Q 2900 3844 2670 4047 
Q 2441 4250 2034 4250 
Q 1625 4250 1398 4047 
Q 1172 3844 1172 3481 
z
" transform="scale(0.015625)"/>
       </defs>
       <use xlink:href="#DejaVuSans-30"/>
       <use xlink:href="#DejaVuSans-2e" x="63.623047"/>
       <use xlink:href="#DejaVuSans-38" x="95.410156"/>
      </g>
     </g>
    </g>
    <g id="ytick_6">
     <g id="line2d_31">
      <path d="M 57.6 6.912 
L 360.8064 6.912 
" clip-path="url(#pbeb940a6e9)" style="fill: none; stroke: #b0b0b0; stroke-width: 0.8; stroke-linecap: square"/>
     </g>
     <g id="line2d_32">
      <g>
       <use xlink:href="#mdcc5cc1b80" x="57.6" y="6.912" style="stroke: #000000; stroke-width: 0.8"/>
      </g>
     </g>
     <g id="text_11">
      <!-- 1.0 -->
      <g transform="translate(25.155 12.99075)scale(0.16 -0.16)">
       <use xlink:href="#DejaVuSans-31"/>
       <use xlink:href="#DejaVuSans-2e" x="63.623047"/>
       <use xlink:href="#DejaVuSans-30" x="95.410156"/>
      </g>
     </g>
    </g>
    <g id="text_12">
     <!-- Fraction of function,target pairs -->
     <g transform="translate(17.619531 287.313)rotate(-90)scale(0.17 -0.17)">
      <defs>
       <path id="DejaVuSans-46" d="M 628 4666 
L 3309 4666 
L 3309 4134 
L 1259 4134 
L 1259 2759 
L 3109 2759 
L 3109 2228 
L 1259 2228 
L 1259 0 
L 628 0 
L 628 4666 
z
" transform="scale(0.015625)"/>
       <path id="DejaVuSans-72" d="M 2631 2963 
Q 2534 3019 2420 3045 
Q 2306 3072 2169 3072 
Q 1681 3072 1420 2755 
Q 1159 2438 1159 1844 
L 1159 0 
L 581 0 
L 581 3500 
L 1159 3500 
L 1159 2956 
Q 1341 3275 1631 3429 
Q 1922 3584 2338 3584 
Q 2397 3584 2469 3576 
Q 2541 3569 2628 3553 
L 2631 2963 
z
" transform="scale(0.015625)"/>
       <path id="DejaVuSans-63" d="M 3122 3366 
L 3122 2828 
Q 2878 2963 2633 3030 
Q 2388 3097 2138 3097 
Q 1578 3097 1268 2742 
Q 959 2388 959 1747 
Q 959 1106 1268 751 
Q 1578 397 2138 397 
Q 2388 397 2633 464 
Q 2878 531 3122 666 
L 3122 134 
Q 2881 22 2623 -34 
Q 2366 -91 2075 -91 
Q 1284 -91 818 406 
Q 353 903 353 1747 
Q 353 2603 823 3093 
Q 1294 3584 2113 3584 
Q 2378 3584 2631 3529 
Q 2884 3475 3122 3366 
z
" transform="scale(0.015625)"/>
       <path id="DejaVuSans-74" d="M 1172 4494 
L 1172 3500 
L 2356 3500 
L 2356 3053 
L 1172 3053 
L 1172 1153 
Q 1172 725 1289 603 
Q 1406 481 1766 481 
L 2356 481 
L 2356 0 
L 1766 0 
Q 1100 0 847 248 
Q 594 497 594 1153 
L 594 3053 
L 172 3053 
L 172 3500 
L 594 3500 
L 594 4494 
L 1172 4494 
z
" transform="scale(0.015625)"/>
       <path id="DejaVuSans-75" d="M 544 1381 
L 544 3500 
L 1119 3500 
L 1119 1403 
Q 1119 906 1312 657 
Q 1506 409 1894 409 
Q 2359 409 2629 706 
Q 2900 1003 2900 1516 
L 2900 3500 
L 3475 3500 
L 3475 0 
L 2900 0 
L 2900 538 
Q 2691 219 2414 64 
Q 2138 -91 1772 -91 
Q 1169 -91 856 284 
Q 544 659 544 1381 
z
M 1991 3584 
L 1991 3584 
z
" transform="scale(0.015625)"/>
       <path id="DejaVuSans-2c" d="M 750 794 
L 1409 794 
L 1409 256 
L 897 -744 
L 494 -744 
L 750 256 
L 750 794 
z
" transform="scale(0.015625)"/>
       <path id="DejaVuSans-70" d="M 1159 525 
L 1159 -1331 
L 581 -1331 
L 581 3500 
L 1159 3500 
L 1159 2969 
Q 1341 3281 1617 3432 
Q 1894 3584 2278 3584 
Q 2916 3584 3314 3078 
Q 3713 2572 3713 1747 
Q 3713 922 3314 415 
Q 2916 -91 2278 -91 
Q 1894 -91 1617 61 
Q 1341 213 1159 525 
z
M 3116 1747 
Q 3116 2381 2855 2742 
Q 2594 3103 2138 3103 
Q 1681 3103 1420 2742 
Q 1159 2381 1159 1747 
Q 1159 1113 1420 752 
Q 1681 391 2138 391 
Q 2594 391 2855 752 
Q 3116 1113 3116 1747 
z
" transform="scale(0.015625)"/>
      </defs>
      <use xlink:href="#DejaVuSans-46"/>
      <use xlink:href="#DejaVuSans-72" x="50.269531"/>
      <use xlink:href="#DejaVuSans-61" x="91.382812"/>
      <use xlink:href="#DejaVuSans-63" x="152.662109"/>
      <use xlink:href="#DejaVuSans-74" x="207.642578"/>
      <use xlink:href="#DejaVuSans-69" x="246.851562"/>
      <use xlink:href="#DejaVuSans-6f" x="274.634766"/>
      <use xlink:href="#DejaVuSans-6e" x="335.816406"/>
      <use xlink:href="#DejaVuSans-20" x="399.195312"/>
      <use xlink:href="#DejaVuSans-6f" x="430.982422"/>
      <use xlink:href="#DejaVuSans-66" x="492.164062"/>
      <use xlink:href="#DejaVuSans-20" x="527.369141"/>
      <use xlink:href="#DejaVuSans-66" x="559.15625"/>
      <use xlink:href="#DejaVuSans-75" x="594.361328"/>
      <use xlink:href="#DejaVuSans-6e" x="657.740234"/>
      <use xlink:href="#DejaVuSans-63" x="721.119141"/>
      <use xlink:href="#DejaVuSans-74" x="776.099609"/>
      <use xlink:href="#DejaVuSans-69" x="815.308594"/>
      <use xlink:href="#DejaVuSans-6f" x="843.091797"/>
      <use xlink:href="#DejaVuSans-6e" x="904.273438"/>
      <use xlink:href="#DejaVuSans-2c" x="967.652344"/>
      <use xlink:href="#DejaVuSans-74" x="999.439453"/>
      <use xlink:href="#DejaVuSans-61" x="1038.648438"/>
      <use xlink:href="#DejaVuSans-72" x="1099.927734"/>
      <use xlink:href="#DejaVuSans-67" x="1139.291016"/>
      <use xlink:href="#DejaVuSans-65" x="1202.767578"/>
      <use xlink:href="#DejaVuSans-74" x="1264.291016"/>
      <use xlink:href="#DejaVuSans-20" x="1303.5"/>
      <use xlink:href="#DejaVuSans-70" x="1335.287109"/>
      <use xlink:href="#DejaVuSans-61" x="1398.763672"/>
      <use xlink:href="#DejaVuSans-69" x="1460.042969"/>
      <use xlink:href="#DejaVuSans-72" x="1487.826172"/>
      <use xlink:href="#DejaVuSans-73" x="1528.939453"/>
     </g>
    </g>
   </g>
   <g id="line2d_33">
    <defs>
     <path id="mecafb71638" d="M 0 1.5 
C 0.397805 1.5 0.77937 1.341951 1.06066 1.06066 
C 1.341951 0.77937 1.5 0.397805 1.5 0 
C 1.5 -0.397805 1.341951 -0.77937 1.06066 -1.06066 
C 0.77937 -1.341951 0.397805 -1.5 0 -1.5 
C -0.397805 -1.5 -0.77937 -1.341951 -1.06066 -1.06066 
C -1.341951 -0.77937 -1.5 -0.397805 -1.5 0 
C -1.5 0.397805 -1.341951 0.77937 -1.06066 1.06066 
C -0.77937 1.341951 -0.397805 1.5 0 1.5 
z
" style="stroke: #f5deb3"/>
    </defs>
    <g>
     <use xlink:href="#mecafb71638" x="258.887064" y="42.157241" style="fill: #f5deb3; stroke: #f5deb3"/>
     <use xlink:href="#mecafb71638" x="258.887064" y="42.157241" style="fill: #f5deb3; stroke: #f5deb3"/>
    </g>
   </g>
   <g id="line2d_34">
    <defs>
     <path id="m37349aa749" d="M 0 1.5 
C 0.397805 1.5 0.77937 1.341951 1.06066 1.06066 
C 1.341951 0.77937 1.5 0.397805 1.5 0 
C 1.5 -0.397805 1.341951 -0.77937 1.06066 -1.06066 
C 0.77937 -1.341951 0.397805 -1.5 0 -1.5 
C -0.397805 -1.5 -0.77937 -1.341951 -1.06066 -1.06066 
C -1.341951 -0.77937 -1.5 -0.397805 -1.5 0 
C -1.5 0.397805 -1.341951 0.77937 -1.06066 1.06066 
C -0.77937 1.341951 -0.397805 1.5 0 1.5 
z
" style="stroke: #000080"/>
    </defs>
    <g>
     <use xlink:href="#m37349aa749" x="83.678349" y="273.768828" style="fill: #000080; stroke: #000080"/>
     <use xlink:href="#m37349aa749" x="83.678349" y="273.768828" style="fill: #000080; stroke: #000080"/>
    </g>
   </g>
   <g id="line2d_35">
    <path d="M 44.560826 298.944 
L 44.560826 287.027752 
L 57.6 287.027752 
L 57.6 286.020745 
L 65.227428 286.020745 
L 65.227428 281.489214 
L 70.639174 281.489214 
L 70.639174 280.314372 
L 74.836851 280.314372 
L 74.836851 279.139531 
L 78.266603 279.139531 
L 78.266603 278.803862 
L 81.166416 278.803862 
L 81.166416 276.286345 
L 83.678349 276.286345 
L 83.678349 273.768828 
L 360.8064 273.768828 
" style="fill: none; stroke: #000080; stroke-width: 1.5; stroke-linecap: square"/>
   </g>
   <g id="line2d_36">
    <defs>
     <path id="m08792484ca" d="M 0 6 
C 1.591219 6 3.117479 5.367802 4.242641 4.242641 
C 5.367802 3.117479 6 1.591219 6 0 
C 6 -1.591219 5.367802 -3.117479 4.242641 -4.242641 
C 3.117479 -5.367802 1.591219 -6 0 -6 
C -1.591219 -6 -3.117479 -5.367802 -4.242641 -4.242641 
C -5.367802 -3.117479 -6 -1.591219 -6 0 
C -6 1.591219 -5.367802 3.117479 -4.242641 4.242641 
C -3.117479 5.367802 -1.591219 6 0 6 
z
" style="stroke: #000080; stroke-width: 1.5"/>
    </defs>
    <g>
     <use xlink:href="#m08792484ca" x="83.678349" y="276.286345" style="fill-opacity: 0; stroke: #000080; stroke-width: 1.5"/>
     <use xlink:href="#m08792484ca" x="83.678349" y="276.286345" style="fill-opacity: 0; stroke: #000080; stroke-width: 1.5"/>
     <use xlink:href="#m08792484ca" x="83.678349" y="273.768828" style="fill-opacity: 0; stroke: #000080; stroke-width: 1.5"/>
     <use xlink:href="#m08792484ca" x="83.678349" y="273.768828" style="fill-opacity: 0; stroke: #000080; stroke-width: 1.5"/>
     <use xlink:href="#m08792484ca" x="83.678349" y="273.768828" style="fill-opacity: 0; stroke: #000080; stroke-width: 1.5"/>
     <use xlink:href="#m08792484ca" x="360.8064" y="273.768828" style="fill-opacity: 0; stroke: #000080; stroke-width: 1.5"/>
    </g>
   </g>
   <g id="line2d_37">
    <path style="fill: none; stroke: #000080; stroke-width: 1.5; stroke-linecap: square"/>
    <g/>
   </g>
   <g id="line2d_38">
    <path d="M 83.678349 273.768828 
" clip-path="url(#pbeb940a6e9)" style="fill: none; stroke: #000080; stroke-width: 1.5; stroke-linecap: square"/>
    <defs>
     <path id="ma0896b0bb6" d="M -12 12 
L 12 -12 
M -12 -12 
L 12 12 
" style="stroke: #000080"/>
    </defs>
    <g clip-path="url(#pbeb940a6e9)">
     <use xlink:href="#ma0896b0bb6" x="83.678349" y="273.768828" style="fill: #000080; stroke: #000080"/>
    </g>
   </g>
   <g id="line2d_39">
    <defs>
     <path id="m1d4cca06cf" d="M 0 1.5 
C 0.397805 1.5 0.77937 1.341951 1.06066 1.06066 
C 1.341951 0.77937 1.5 0.397805 1.5 0 
C 1.5 -0.397805 1.341951 -0.77937 1.06066 -1.06066 
C 0.77937 -1.341951 0.397805 -1.5 0 -1.5 
C -0.397805 -1.5 -0.77937 -1.341951 -1.06066 -1.06066 
C -1.341951 -0.77937 -1.5 -0.397805 -1.5 0 
C -1.5 0.397805 -1.341951 0.77937 -1.06066 1.06066 
C -0.77937 1.341951 -0.397805 1.5 0 1.5 
z
" style="stroke: #ff00ff"/>
    </defs>
    <g>
     <use xlink:href="#m1d4cca06cf" x="270.57109" y="63.136552" style="fill: #ff00ff; stroke: #ff00ff"/>
     <use xlink:href="#m1d4cca06cf" x="270.57109" y="63.136552" style="fill: #ff00ff; stroke: #ff00ff"/>
    </g>
   </g>
   <g id="line2d_40">
    <path d="M 44.560826 298.944 
L 44.560826 287.027752 
L 57.6 287.027752 
L 57.6 286.020745 
L 65.227428 286.020745 
L 65.227428 282.496221 
L 70.639174 282.496221 
L 70.639174 281.153545 
L 74.836851 281.153545 
L 74.836851 279.810869 
L 81.166416 279.810869 
L 81.166416 279.139531 
L 83.678349 279.139531 
L 83.678349 277.96469 
L 85.894031 277.96469 
L 85.894031 275.447172 
L 87.876026 275.447172 
L 87.876026 274.943669 
L 89.668958 274.943669 
L 89.668958 273.936662 
L 91.305777 273.936662 
L 91.305777 273.09749 
L 92.811505 273.09749 
L 92.811505 272.929655 
L 97.857967 272.929655 
L 97.857967 272.761821 
L 98.933205 272.761821 
L 98.933205 270.412138 
L 99.950294 270.412138 
L 99.950294 268.733793 
L 101.833019 268.733793 
L 101.833019 267.726786 
L 103.544339 267.726786 
L 103.544339 267.391117 
L 104.344952 267.391117 
L 104.344952 266.551945 
L 105.112877 266.551945 
L 105.112877 262.020414 
L 105.850679 262.020414 
L 105.850679 259.670731 
L 107.244765 259.670731 
L 107.244765 258.831559 
L 107.904887 258.831559 
L 107.904887 257.153214 
L 108.542628 257.153214 
L 108.542628 255.474869 
L 109.159456 255.474869 
L 109.159456 253.796524 
L 109.756698 253.796524 
L 109.756698 249.768497 
L 110.335561 249.768497 
L 110.335561 249.432828 
L 111.442442 249.432828 
L 111.442442 248.090152 
L 113.478107 248.090152 
L 113.478107 247.922317 
L 113.954374 247.922317 
L 113.954374 247.754483 
L 114.418881 247.754483 
L 114.418881 247.586648 
L 115.314838 247.586648 
L 115.314838 247.083145 
L 115.747307 247.083145 
L 115.747307 246.91531 
L 116.170056 246.91531 
L 116.170056 246.579641 
L 116.583514 246.579641 
L 116.583514 245.069131 
L 118.152051 245.069131 
L 118.152051 244.229959 
L 119.24818 244.229959 
L 119.24818 243.558621 
L 120.28394 243.558621 
L 120.28394 242.551614 
L 120.616896 242.551614 
L 120.616896 242.04811 
L 120.944062 242.04811 
L 120.944062 241.880276 
L 121.581803 241.880276 
L 121.581803 241.544607 
L 121.892744 241.544607 
L 121.892744 239.698428 
L 122.19863 239.698428 
L 122.19863 238.859255 
L 122.499621 238.859255 
L 122.499621 238.355752 
L 123.08753 238.355752 
L 123.08753 238.187917 
L 123.374735 238.187917 
L 123.374735 238.020083 
L 123.657621 238.020083 
L 123.657621 237.852248 
L 123.936316 237.852248 
L 123.936316 237.013076 
L 124.481616 237.013076 
L 124.481616 236.677407 
L 125.011554 236.677407 
L 125.011554 236.509572 
L 125.271028 236.509572 
L 125.271028 236.173903 
L 125.779479 236.173903 
L 125.779479 235.6704 
L 126.028642 235.6704 
L 126.028642 235.334731 
L 126.517282 235.334731 
L 126.517282 235.166897 
L 126.756923 235.166897 
L 126.756923 234.663393 
L 126.993549 234.663393 
L 126.993549 233.488552 
L 127.227236 233.488552 
L 127.227236 233.152883 
L 128.57149 233.152883 
L 128.57149 232.985048 
L 128.786481 232.985048 
L 128.786481 232.817214 
L 128.999044 232.817214 
L 128.999044 232.649379 
L 129.209231 232.649379 
L 129.209231 232.481545 
L 129.622688 232.481545 
L 129.622688 232.31371 
L 129.826058 232.31371 
L 129.826058 231.810207 
L 130.226319 231.810207 
L 130.226319 230.467531 
L 130.811181 230.467531 
L 130.811181 230.299697 
L 131.002163 230.299697 
L 131.002163 229.628359 
L 131.563744 229.628359 
L 131.563744 229.460524 
L 131.747272 229.460524 
L 131.747272 228.285683 
L 132.812362 228.285683 
L 132.812362 227.950014 
L 133.154399 227.950014 
L 133.154399 227.782179 
L 134.304809 227.782179 
L 134.304809 227.278676 
L 134.620977 227.278676 
L 134.620977 226.943007 
L 134.77709 226.943007 
L 134.77709 225.768166 
L 135.085483 225.768166 
L 135.085483 225.264662 
L 135.237805 225.264662 
L 135.237805 224.593324 
L 135.388902 224.593324 
L 135.388902 223.754152 
L 135.538796 223.754152 
L 135.538796 222.914979 
L 135.687504 222.914979 
L 135.687504 222.747145 
L 135.835047 222.747145 
L 135.835047 221.740138 
L 136.126705 221.740138 
L 136.126705 221.572303 
L 136.555884 221.572303 
L 136.555884 220.900966 
L 136.696795 220.900966 
L 136.696795 220.565297 
L 136.836659 220.565297 
L 136.836659 220.397462 
L 136.97549 220.397462 
L 136.97549 219.893959 
L 137.654681 219.893959 
L 137.654681 219.222621 
L 137.787626 219.222621 
L 137.787626 218.215614 
L 137.919637 218.215614 
L 137.919637 218.047779 
L 138.050729 218.047779 
L 138.050729 216.872938 
L 138.180913 216.872938 
L 138.180913 216.705103 
L 138.310202 216.705103 
L 138.310202 216.537269 
L 138.438609 216.537269 
L 138.438609 216.2016 
L 139.313723 216.2016 
L 139.313723 215.865931 
L 139.676658 215.865931 
L 139.676658 215.530262 
L 140.14993 215.530262 
L 140.14993 214.858924 
L 140.26641 214.858924 
L 140.26641 214.355421 
L 140.382174 214.355421 
L 140.382174 214.187586 
L 140.725251 214.187586 
L 140.725251 214.019752 
L 140.838234 214.019752 
L 140.838234 213.684083 
L 140.950542 213.684083 
L 140.950542 213.348414 
L 141.283499 213.348414 
L 141.393187 212.173572 
L 141.50224 212.173572 
L 141.50224 211.837903 
L 142.45627 211.837903 
L 142.45627 211.670069 
L 142.661862 211.670069 
L 142.661862 211.166566 
L 142.966099 211.166566 
L 142.966099 210.327393 
L 143.265494 210.327393 
L 143.265494 209.82389 
L 143.462475 209.82389 
L 143.560197 209.152552 
L 143.850356 209.152552 
L 143.850356 208.816883 
L 144.136106 208.816883 
L 144.2304 208.145545 
L 144.417581 208.145545 
L 144.417581 207.809876 
L 145.678157 207.809876 
L 145.678157 207.474207 
L 145.851536 207.474207 
L 145.851536 206.4672 
L 146.193574 206.4672 
L 146.27812 205.795862 
L 146.362288 205.795862 
L 146.446082 204.788855 
L 146.612557 204.788855 
L 146.695245 203.781848 
L 146.777571 203.781848 
L 146.777571 203.446179 
L 147.022411 203.446179 
L 147.022411 203.11051 
L 147.183884 203.11051 
L 147.183884 202.774841 
L 147.660152 202.774841 
L 147.660152 202.607007 
L 148.200973 202.607007 
L 148.276979 202.271338 
L 148.503173 202.271338 
L 148.503173 201.935669 
L 148.874221 201.935669 
L 148.947561 200.928662 
L 149.595059 200.928662 
L 149.665646 200.257324 
L 150.152479 200.257324 
L 150.221009 199.585986 
L 150.289291 199.585986 
L 150.357325 199.250317 
L 151.41369 199.250317 
L 151.41369 199.082483 
L 151.668766 199.082483 
L 151.668766 198.914648 
L 151.982822 198.914648 
L 151.982822 198.746814 
L 152.106991 198.746814 
L 152.16877 198.24331 
L 152.291722 198.24331 
L 152.352898 197.236303 
L 152.474656 197.236303 
L 152.474656 196.900634 
L 152.595631 196.900634 
L 152.595631 196.397131 
L 152.835271 196.397131 
L 152.835271 196.061462 
L 152.953957 196.061462 
L 152.953957 195.725793 
L 153.071898 195.725793 
L 153.130592 193.711779 
L 153.247435 193.711779 
L 153.247435 193.543945 
L 153.421349 193.543945 
L 153.421349 193.208276 
L 153.821002 193.208276 
L 153.821002 193.040441 
L 154.267588 193.040441 
L 154.322673 192.704772 
L 154.86483 192.704772 
L 154.86483 192.201269 
L 155.077392 192.201269 
L 155.077392 191.697766 
L 155.391799 191.697766 
L 155.391799 191.529931 
L 155.701037 191.529931 
L 155.701037 191.026428 
L 156.005274 191.026428 
L 156.105602 190.522924 
L 156.648044 190.522924 
L 156.648044 190.35509 
L 157.032948 190.35509 
L 157.032948 190.019421 
L 157.316545 190.019421 
L 157.363398 189.515917 
L 158.052543 189.515917 
L 158.052543 189.348083 
L 158.365703 189.348083 
L 158.365703 189.012414 
L 159.019705 189.012414 
L 159.019705 188.676745 
L 159.190332 188.676745 
L 159.275069 188.173241 
L 159.443406 188.173241 
L 159.443406 187.837572 
L 159.651731 187.837572 
L 159.651731 187.669738 
L 159.775628 187.669738 
L 159.775628 187.501903 
L 160.020999 187.501903 
L 160.020999 187.334069 
L 160.541906 187.334069 
L 160.620781 186.830566 
L 161.504837 186.830566 
L 161.504837 186.494897 
L 161.691646 186.494897 
L 161.691646 186.159228 
L 161.950101 186.159228 
L 161.950101 185.823559 
L 162.775144 185.823559 
L 162.775144 185.655724 
L 162.915008 185.655724 
L 162.915008 185.48789 
L 163.191653 185.48789 
L 163.191653 185.320055 
L 164.161708 185.320055 
L 164.161708 184.648717 
L 164.928329 184.648717 
L 164.928329 184.480883 
L 165.207944 184.480883 
L 165.207944 184.313048 
L 166.052194 184.313048 
L 166.052194 183.977379 
L 166.169767 183.977379 
L 166.169767 183.473876 
L 166.460523 183.473876 
L 166.460523 183.138207 
L 166.916583 183.138207 
L 166.916583 182.970372 
L 167.38933 182.970372 
L 167.416772 182.634703 
L 167.526142 182.634703 
L 167.526142 182.299034 
L 167.796816 182.299034 
L 167.850487 181.795531 
L 168.714635 181.795531 
L 168.714635 181.627697 
L 168.968849 181.627697 
L 168.968849 181.292028 
L 169.467197 181.292028 
L 169.540824 180.285021 
L 169.662898 180.285021 
L 169.687218 179.781517 
L 169.832482 179.781517 
L 169.904695 179.278014 
L 170.167131 179.278014 
L 170.167131 179.110179 
L 170.727317 179.110179 
L 170.796182 178.438841 
L 171.091717 178.438841 
L 171.091717 178.271007 
L 171.47131 178.271007 
L 171.537509 177.767503 
L 171.843395 177.767503 
L 171.843395 177.431834 
L 172.271923 177.431834 
L 172.356469 176.928331 
L 172.566188 176.928331 
L 172.62865 176.424828 
L 172.99913 176.424828 
L 172.99913 176.256993 
L 173.12102 176.256993 
L 173.12102 176.089159 
L 173.541519 176.089159 
L 173.581081 174.914317 
L 173.679622 174.914317 
L 173.7385 174.578648 
L 173.914037 174.578648 
L 173.914037 174.242979 
L 174.068707 174.242979 
L 174.068707 173.90731 
L 174.412132 173.90731 
L 174.412132 173.571641 
L 174.600249 173.571641 
L 174.600249 172.732469 
L 174.7494 172.732469 
L 174.7494 172.3968 
L 174.95257 172.3968 
L 175.0442 171.893297 
L 175.316441 171.893297 
L 175.334451 171.389793 
L 175.549238 171.389793 
L 175.549238 171.221959 
L 175.761601 171.221959 
L 175.796762 170.550621 
L 175.901855 170.550621 
L 175.971592 169.879283 
L 176.023726 169.879283 
L 176.023726 169.543614 
L 176.33353 169.543614 
L 176.36764 169.04011 
L 176.486539 169.04011 
L 176.537267 168.200938 
L 176.655103 168.200938 
L 176.738821 167.865269 
L 176.872001 167.865269 
L 176.872001 167.697434 
L 177.03716 167.697434 
L 177.03716 167.5296 
L 177.265975 167.5296 
L 177.363192 167.026097 
L 177.524113 167.026097 
L 177.60406 166.522593 
L 177.635944 166.522593 
L 177.667774 166.186924 
L 177.762943 166.186924 
L 177.778757 165.851255 
L 178.169864 165.851255 
L 178.262532 165.179917 
L 178.354746 165.179917 
L 178.400683 164.844248 
L 178.67398 164.844248 
L 178.779198 163.837241 
L 178.943362 163.837241 
L 178.943362 163.669407 
L 179.091369 163.669407 
L 179.194285 162.998069 
L 179.23822 162.998069 
L 179.23822 162.830234 
L 179.412941 162.830234 
L 179.499697 162.494566 
L 179.586055 162.494566 
L 179.586055 162.158897 
L 179.771814 162.158897 
L 179.842775 161.487559 
L 179.997952 161.487559 
L 179.997952 161.319724 
L 180.137919 161.319724 
L 180.23528 160.816221 
L 180.3735 160.816221 
L 180.3735 160.648386 
L 180.55168 160.648386 
L 180.633351 159.809214 
L 180.687602 159.809214 
L 180.687602 159.641379 
L 180.889661 159.641379 
L 180.996545 158.802207 
L 181.009863 158.802207 
L 181.089573 158.130869 
L 181.155741 158.130869 
L 181.195331 157.459531 
L 181.41811 157.459531 
L 181.457152 157.123862 
L 181.547935 157.123862 
L 181.560869 156.620359 
L 181.944791 156.620359 
L 181.944791 156.452524 
L 182.071044 156.452524 
L 182.171439 155.277683 
L 182.221437 155.277683 
L 182.296185 154.774179 
L 182.432456 154.774179 
L 182.530946 153.767172 
L 182.579998 153.767172 
L 182.604477 153.095834 
L 182.799165 153.095834 
L 182.799165 152.760166 
L 183.08747 152.760166 
L 183.08747 152.592331 
L 183.347923 152.592331 
L 183.347923 152.256662 
L 183.46513 152.256662 
L 183.52346 151.41749 
L 183.593219 151.41749 
L 183.68583 151.081821 
L 183.75499 151.081821 
L 183.823897 150.410483 
L 183.892552 150.410483 
L 183.972335 149.739145 
L 184.029116 149.739145 
L 184.085726 149.067807 
L 184.299304 149.067807 
L 184.310478 148.732138 
L 184.477298 148.732138 
L 184.477298 148.396469 
L 184.631672 148.396469 
L 184.631672 148.0608 
L 184.784791 148.0608 
L 184.79568 147.725131 
L 184.95827 147.725131 
L 185.001391 147.221628 
L 185.172894 147.221628 
L 185.172894 147.053793 
L 185.33227 147.053793 
L 185.406185 146.718124 
L 185.490306 146.718124 
L 185.594932 146.046786 
L 185.636619 146.046786 
L 185.719719 145.375448 
L 185.781803 145.375448 
L 185.79213 145.039779 
L 186.048492 145.039779 
L 186.150067 143.697103 
L 186.271237 143.697103 
L 186.321495 143.025766 
L 186.590592 143.025766 
L 186.590592 142.690097 
L 186.953212 142.690097 
L 187.011362 142.354428 
L 187.242181 142.354428 
L 187.299446 141.850924 
L 187.403982 141.850924 
L 187.470203 141.347421 
L 187.517361 141.347421 
L 187.517361 141.011752 
L 187.667479 141.011752 
L 187.760698 139.333407 
L 187.779287 139.333407 
L 187.881197 138.494234 
L 188.110777 138.494234 
L 188.210911 138.158566 
L 188.238128 138.158566 
L 188.238128 137.822897 
L 188.427553 137.822897 
L 188.427553 137.487228 
L 188.694894 137.487228 
L 188.694894 137.319393 
L 188.879797 137.319393 
L 188.897312 136.983724 
L 189.019466 136.983724 
L 189.106235 135.808883 
L 189.192606 135.808883 
L 189.192606 135.641048 
L 189.355626 135.641048 
L 189.355626 135.473214 
L 189.525714 135.473214 
L 189.601754 134.96971 
L 189.685885 134.96971 
L 189.719432 134.466207 
L 189.853025 134.466207 
L 189.952601 134.130538 
L 190.337611 134.130538 
L 190.434661 133.123531 
L 190.450788 133.123531 
L 190.450788 132.955697 
L 190.802117 132.955697 
L 190.802117 132.284359 
L 190.920404 132.284359 
L 190.983188 131.780855 
L 191.10813 131.780855 
L 191.178047 131.445186 
L 191.424558 131.445186 
L 191.516173 130.606014 
L 191.584592 130.606014 
L 191.622496 129.934676 
L 192.137913 129.934676 
L 192.137913 129.431172 
L 192.546084 129.431172 
L 192.567702 128.927669 
L 192.661095 128.927669 
L 192.661095 128.592 
L 192.853597 128.592 
L 192.952643 127.584993 
L 193.079226 127.584993 
L 193.079226 127.417159 
L 193.336779 127.417159 
L 193.398898 126.913655 
L 193.467679 126.913655 
L 193.549885 126.410152 
L 193.922135 126.410152 
L 193.922135 126.242317 
L 194.068997 126.242317 
L 194.148623 125.738814 
L 194.287162 125.738814 
L 194.287162 125.570979 
L 194.411634 125.570979 
L 194.424688 125.23531 
L 194.690328 125.23531 
L 194.760964 124.731807 
L 194.812169 124.731807 
L 194.812169 124.563972 
L 194.977631 124.563972 
L 194.977631 124.396138 
L 195.378825 124.396138 
L 195.459283 123.556966 
L 195.545546 123.556966 
L 195.545546 123.221297 
L 195.680309 123.221297 
L 195.680309 122.885628 
L 195.814113 122.885628 
L 195.814113 122.549959 
L 196.013051 122.549959 
L 196.013051 122.382124 
L 196.198035 122.382124 
L 196.251402 122.046455 
L 196.322322 122.046455 
L 196.428203 121.542952 
L 196.475071 121.542952 
L 196.475071 121.375117 
L 196.725004 121.375117 
L 196.725004 121.207283 
L 196.937437 121.207283 
L 196.988749 120.871614 
L 197.073959 120.871614 
L 197.102277 120.200276 
L 197.215124 120.200276 
L 197.282509 119.864607 
L 197.802167 119.864607 
L 197.894634 118.8576 
L 197.943404 118.8576 
L 197.943404 118.689766 
L 198.270663 118.689766 
L 198.270663 118.521931 
L 198.826142 118.521931 
L 198.826142 118.354097 
L 199.092759 118.354097 
L 199.102938 118.018428 
L 199.239824 118.018428 
L 199.350628 117.179255 
L 199.555402 117.179255 
L 199.555402 117.011421 
L 200.11333 117.011421 
L 200.161491 116.507917 
L 200.598878 116.507917 
L 200.598878 116.340083 
L 200.776611 116.340083 
L 200.827749 115.836579 
L 200.929608 115.836579 
L 200.97112 115.333076 
L 201.200085 115.333076 
L 201.200085 115.165241 
L 201.354204 115.165241 
L 201.354204 114.829572 
L 202.175684 114.829572 
L 202.175684 114.661738 
L 202.322045 114.661738 
L 202.360598 114.158234 
L 202.666207 114.158234 
L 202.666207 113.9904 
L 202.808815 113.9904 
L 202.808815 113.822566 
L 203.070235 113.822566 
L 203.11962 113.151228 
L 203.397045 113.151228 
L 203.397045 112.983393 
L 204.650307 112.983393 
L 204.733477 112.647724 
L 204.898723 112.647724 
L 204.898723 112.47989 
L 205.924665 112.47989 
L 205.924665 112.312055 
L 206.037626 112.312055 
L 206.037626 111.976386 
L 206.233691 111.976386 
L 206.233691 111.808552 
L 206.43118 111.808552 
L 206.451849 111.472883 
L 207.104846 111.472883 
L 207.204344 110.465876 
L 207.567974 110.465876 
L 207.567974 110.298041 
L 207.771274 110.298041 
L 207.771274 109.962372 
L 207.886467 109.962372 
L 207.969225 109.291034 
L 208.315383 109.291034 
L 208.315383 109.1232 
L 208.535476 109.1232 
L 208.535476 108.955366 
L 208.707272 108.955366 
L 208.707272 108.787531 
L 210.310469 108.787531 
L 210.366472 107.780524 
L 210.616445 107.780524 
L 210.616445 107.61269 
L 211.087814 107.61269 
L 211.087814 107.444855 
L 211.675889 107.444855 
L 211.675889 107.109186 
L 212.715886 107.109186 
L 212.715886 106.773517 
L 213.279862 106.773517 
L 213.279862 106.437848 
L 213.869244 106.437848 
L 213.869244 106.102179 
L 214.159438 106.102179 
L 214.159438 105.76651 
L 214.402406 105.76651 
L 214.402406 105.598676 
L 214.666762 105.598676 
L 214.726731 105.263007 
L 215.245085 105.263007 
L 215.245085 104.927338 
L 215.391212 104.927338 
L 215.391212 104.591669 
L 215.696959 104.591669 
L 215.696959 104.423834 
L 216.214198 104.423834 
L 216.214198 104.256 
L 216.361148 104.256 
L 216.361148 103.920331 
L 216.937731 103.920331 
L 217.032133 103.584662 
L 217.43006 103.584662 
L 217.495252 103.081159 
L 217.556403 103.081159 
L 217.647758 102.577655 
L 217.761332 102.577655 
L 217.761332 102.409821 
L 217.971519 102.409821 
L 218.033004 102.074152 
L 218.146131 102.074152 
L 218.146131 101.906317 
L 218.488752 101.906317 
L 218.496013 101.234979 
L 218.800259 101.234979 
L 218.827027 100.731476 
L 218.937265 100.731476 
L 218.937265 100.395807 
L 219.415128 100.395807 
L 219.415128 100.227972 
L 219.547744 100.227972 
L 219.547744 100.060138 
L 219.676023 100.060138 
L 219.676023 99.892303 
L 220.167284 99.892303 
L 220.170605 99.556634 
L 220.426212 99.556634 
L 220.504668 99.053131 
L 221.326473 99.053131 
L 221.326473 98.885297 
L 221.44942 98.885297 
L 221.44942 98.717462 
L 221.8864 98.717462 
L 221.90155 98.381793 
L 222.285289 98.381793 
L 222.285289 98.046124 
L 222.960039 98.046124 
L 222.960039 97.87829 
L 223.095544 97.87829 
L 223.159391 97.206952 
L 223.255462 97.206952 
L 223.255462 97.039117 
L 223.517156 97.039117 
L 223.568506 96.703448 
L 223.932245 96.703448 
L 223.932245 96.535614 
L 224.082538 96.535614 
L 224.082538 96.199945 
L 225.074127 96.199945 
L 225.074127 96.03211 
L 225.426466 96.03211 
L 225.426466 95.696441 
L 225.57903 95.696441 
L 225.687075 95.192938 
L 225.759995 95.192938 
L 225.842462 94.689434 
L 226.564103 94.689434 
L 226.564103 94.353766 
L 226.718301 94.353766 
L 226.718301 94.185931 
L 226.84099 94.185931 
L 226.84099 93.850262 
L 227.179176 93.850262 
L 227.288672 93.346759 
L 227.472013 93.346759 
L 227.546198 93.01109 
L 228.583881 93.01109 
L 228.583881 92.843255 
L 229.227743 92.843255 
L 229.227743 92.675421 
L 229.342292 92.675421 
L 229.342292 92.507586 
L 229.698829 92.507586 
L 229.698829 92.339752 
L 230.062478 92.339752 
L 230.062478 92.171917 
L 230.495147 92.171917 
L 230.495147 92.004083 
L 230.808054 92.004083 
L 230.862681 91.500579 
L 231.011627 91.500579 
L 231.011627 91.332745 
L 231.658198 91.332745 
L 231.658198 91.16491 
L 232.518144 91.16491 
L 232.518144 90.997076 
L 232.682782 90.997076 
L 232.682782 90.661407 
L 233.007799 90.661407 
L 233.015349 90.325738 
L 233.177375 90.325738 
L 233.177375 89.990069 
L 234.264668 89.990069 
L 234.264668 89.822234 
L 234.836703 89.822234 
L 234.836703 89.486566 
L 235.099066 89.486566 
L 235.099066 89.150897 
L 235.951914 89.150897 
L 235.951914 88.983062 
L 236.143244 88.983062 
L 236.202815 88.479559 
L 236.336866 88.479559 
L 236.336866 88.311724 
L 236.665801 88.311724 
L 236.665801 87.976055 
L 237.626666 87.976055 
L 237.626666 87.640386 
L 237.79657 87.640386 
L 237.79657 87.304717 
L 237.968177 87.304717 
L 237.968177 86.969048 
L 238.590785 86.969048 
L 238.590785 86.801214 
L 239.627491 86.801214 
L 239.627491 86.465545 
L 239.99164 86.465545 
L 239.99164 86.29771 
L 240.94372 86.29771 
L 240.972315 85.626372 
L 241.098819 85.626372 
L 241.098819 85.290703 
L 241.240736 85.290703 
L 241.240736 85.122869 
L 241.425627 85.122869 
L 241.425627 84.7872 
L 241.656466 84.7872 
L 241.682411 84.283697 
L 241.912753 84.283697 
L 241.912753 84.115862 
L 242.2623 84.115862 
L 242.331948 83.444524 
L 243.458886 83.444524 
L 243.458886 83.27669 
L 244.077841 83.27669 
L 244.094604 82.941021 
L 244.191632 82.941021 
L 244.300136 82.605352 
L 244.380533 82.605352 
L 244.380533 82.269683 
L 244.54212 82.269683 
L 244.611984 81.598345 
L 244.864763 81.598345 
L 244.864763 81.262676 
L 245.305445 81.262676 
L 245.305445 81.094841 
L 245.499957 81.094841 
L 245.499957 80.927007 
L 245.689486 80.927007 
L 245.689486 80.591338 
L 245.859335 80.591338 
L 245.957393 80.087834 
L 245.990668 80.087834 
L 246.03942 79.584331 
L 246.164503 79.584331 
L 246.164503 79.248662 
L 246.416727 79.248662 
L 246.460285 78.745159 
L 246.637174 78.745159 
L 246.649368 78.241655 
L 247.117689 78.241655 
L 247.117689 78.073821 
L 247.739477 78.073821 
L 247.829376 77.738152 
L 248.147999 77.738152 
L 248.147999 77.570317 
L 248.530564 77.570317 
L 248.530564 77.402483 
L 248.70586 77.402483 
L 248.70586 77.234648 
L 248.951222 77.234648 
L 248.951222 76.898979 
L 249.062351 76.898979 
L 249.062351 76.731145 
L 249.421331 76.731145 
L 249.421331 76.395476 
L 249.622586 76.395476 
L 249.622586 76.227641 
L 250.930484 76.227641 
L 250.930484 76.059807 
L 251.094497 76.059807 
L 251.107005 75.220634 
L 251.322182 75.220634 
L 251.428697 74.717131 
L 251.54965 74.717131 
L 251.54965 74.549297 
L 252.167578 74.549297 
L 252.167578 74.381462 
L 252.340421 74.381462 
L 252.340421 74.045793 
L 252.598965 74.045793 
L 252.616431 73.54229 
L 253.507234 73.54229 
L 253.565841 73.038786 
L 253.772046 73.038786 
L 253.874722 72.535283 
L 254.141541 72.535283 
L 254.141541 72.031779 
L 254.271784 72.031779 
L 254.271784 71.863945 
L 254.610672 71.863945 
L 254.610672 71.528276 
L 254.766508 71.528276 
L 254.766508 71.360441 
L 255.019755 71.360441 
L 255.019755 71.024772 
L 255.26347 71.024772 
L 255.316091 70.521269 
L 255.417837 70.521269 
L 255.417837 70.1856 
L 256.014792 70.1856 
L 256.014792 70.017766 
L 256.281126 70.017766 
L 256.281126 69.849931 
L 256.78331 69.849931 
L 256.787577 69.346428 
L 257.325494 69.346428 
L 257.407555 69.010759 
L 257.758622 69.010759 
L 257.758622 68.842924 
L 257.955693 68.842924 
L 257.955693 68.507255 
L 258.134618 68.507255 
L 258.134618 68.339421 
L 259.454256 68.339421 
L 259.454256 68.003752 
L 259.733187 68.003752 
L 259.733187 67.835917 
L 260.168552 67.835917 
L 260.241689 67.164579 
L 261.156191 67.164579 
L 261.156191 66.996745 
L 262.623211 66.996745 
L 262.623211 66.82891 
L 263.60035 66.82891 
L 263.60035 66.661076 
L 263.836498 66.661076 
L 263.836498 66.325407 
L 264.058126 66.325407 
L 264.058126 66.157572 
L 264.282107 66.157572 
L 264.350894 65.654069 
L 264.430012 65.654069 
L 264.430012 65.486234 
L 264.671004 65.486234 
L 264.671004 65.3184 
L 264.833368 65.3184 
L 264.833368 64.982731 
L 265.656937 64.982731 
L 265.656937 64.814897 
L 266.493703 64.814897 
L 266.493703 64.479228 
L 267.081958 64.479228 
L 267.081958 64.143559 
L 267.810565 64.143559 
L 267.810565 63.975724 
L 268.258379 63.975724 
L 268.258379 63.80789 
L 268.441708 63.80789 
L 268.462874 63.304386 
L 270.57109 63.304386 
L 270.57109 63.136552 
L 360.8064 63.136552 
L 360.8064 63.136552 
" style="fill: none; stroke: #ff00ff; stroke-width: 1.5; stroke-linecap: square"/>
   </g>
   <g id="line2d_41">
    <defs>
     <path id="m46bfd9cb43" d="M 0 8.485281 
L 5.091169 0 
L 0 -8.485281 
L -5.091169 0 
z
" style="stroke: #ff00ff; stroke-width: 1.5; stroke-linejoin: miter"/>
    </defs>
    <g>
     <use xlink:href="#m46bfd9cb43" x="83.678349" y="279.139531" style="fill-opacity: 0; stroke: #ff00ff; stroke-width: 1.5; stroke-linejoin: miter"/>
     <use xlink:href="#m46bfd9cb43" x="159.443406" y="187.837572" style="fill-opacity: 0; stroke: #ff00ff; stroke-width: 1.5; stroke-linejoin: miter"/>
     <use xlink:href="#m46bfd9cb43" x="213.279862" y="106.773517" style="fill-opacity: 0; stroke: #ff00ff; stroke-width: 1.5; stroke-linejoin: miter"/>
     <use xlink:href="#m46bfd9cb43" x="270.57109" y="63.304386" style="fill-opacity: 0; stroke: #ff00ff; stroke-width: 1.5; stroke-linejoin: miter"/>
     <use xlink:href="#m46bfd9cb43" x="270.57109" y="63.136552" style="fill-opacity: 0; stroke: #ff00ff; stroke-width: 1.5; stroke-linejoin: miter"/>
     <use xlink:href="#m46bfd9cb43" x="360.8064" y="63.136552" style="fill-opacity: 0; stroke: #ff00ff; stroke-width: 1.5; stroke-linejoin: miter"/>
    </g>
   </g>
   <g id="line2d_42">
    <path style="fill: none; stroke: #ff00ff; stroke-width: 1.5; stroke-linecap: square"/>
    <g/>
   </g>
   <g id="line2d_43">
    <path d="M 274.176094 63.136552 
" clip-path="url(#pbeb940a6e9)" style="fill: none; stroke: #ff00ff; stroke-width: 1.5; stroke-linecap: square"/>
    <defs>
     <path id="mcd1b088004" d="M -12 12 
L 12 -12 
M -12 -12 
L 12 12 
" style="stroke: #ff00ff"/>
    </defs>
    <g clip-path="url(#pbeb940a6e9)">
     <use xlink:href="#mcd1b088004" x="274.176094" y="63.136552" style="fill: #ff00ff; stroke: #ff00ff"/>
    </g>
   </g>
   <g id="line2d_44">
    <defs>
     <path id="mdd9bff1498" d="M 0 1.5 
C 0.397805 1.5 0.77937 1.341951 1.06066 1.06066 
C 1.341951 0.77937 1.5 0.397805 1.5 0 
C 1.5 -0.397805 1.341951 -0.77937 1.06066 -1.06066 
C 0.77937 -1.341951 0.397805 -1.5 0 -1.5 
C -0.397805 -1.5 -0.77937 -1.341951 -1.06066 -1.06066 
C -1.341951 -0.77937 -1.5 -0.397805 -1.5 0 
C -1.5 0.397805 -1.341951 0.77937 -1.06066 1.06066 
C -0.77937 1.341951 -0.397805 1.5 0 1.5 
z
" style="stroke: #6495ed"/>
    </defs>
    <g>
     <use xlink:href="#mdd9bff1498" x="113.954374" y="216.872938" style="fill: #6495ed; stroke: #6495ed"/>
     <use xlink:href="#mdd9bff1498" x="113.954374" y="216.872938" style="fill: #6495ed; stroke: #6495ed"/>
    </g>
   </g>
   <g id="line2d_45">
    <path d="M 44.560826 298.944 
L 44.560826 296.426483 
L 57.6 296.426483 
L 57.6 293.741131 
L 65.227428 293.741131 
L 65.227428 291.223614 
L 70.639174 291.223614 
L 70.639174 290.048772 
L 74.836851 290.048772 
L 74.836851 287.363421 
L 78.266603 287.363421 
L 78.266603 285.181572 
L 81.166416 285.181572 
L 81.166416 282.664055 
L 83.678349 282.664055 
L 83.678349 279.810869 
L 87.876026 279.810869 
L 87.876026 278.636028 
L 89.668958 278.636028 
L 89.668958 276.789848 
L 91.305777 276.789848 
L 91.305777 276.286345 
L 92.811505 276.286345 
L 92.811505 271.754814 
L 94.205591 271.754814 
L 94.205591 271.586979 
L 95.503454 271.586979 
L 95.503454 270.915641 
L 96.717523 270.915641 
L 96.717523 270.076469 
L 97.857967 270.076469 
L 97.857967 267.223283 
L 98.933205 267.223283 
L 98.933205 266.551945 
L 99.950294 266.551945 
L 99.950294 264.537931 
L 100.9152 264.537931 
L 100.9152 264.034428 
L 101.833019 264.034428 
L 101.833019 262.691752 
L 102.708132 262.691752 
L 102.708132 259.335062 
L 103.544339 259.335062 
L 103.544339 253.62869 
L 104.344952 253.62869 
L 104.344952 248.425821 
L 105.112877 248.425821 
L 105.112877 246.076138 
L 105.850679 246.076138 
L 105.850679 239.530593 
L 106.560633 239.530593 
L 106.560633 239.02709 
L 107.244765 239.02709 
L 107.244765 234.327724 
L 107.904887 234.327724 
L 107.904887 233.152883 
L 108.542628 233.152883 
L 108.542628 231.978041 
L 109.159456 231.978041 
L 109.159456 229.796193 
L 109.756698 229.796193 
L 109.756698 227.614345 
L 110.335561 227.614345 
L 110.335561 224.761159 
L 110.897141 224.761159 
L 110.897141 223.418483 
L 111.442442 223.418483 
L 111.442442 223.082814 
L 111.97238 223.082814 
L 111.97238 222.914979 
L 112.487797 222.914979 
L 112.487797 219.55829 
L 112.989468 219.55829 
L 112.989468 219.390455 
L 113.478107 219.390455 
L 113.478107 218.719117 
L 113.954374 218.719117 
L 113.954374 216.872938 
L 360.8064 216.872938 
" style="fill: none; stroke: #6495ed; stroke-width: 1.5; stroke-linecap: square"/>
   </g>
   <g id="line2d_46">
    <defs>
     <path id="m18563c6164" d="M -0 6 
L 6 -6 
L -6 -6 
z
" style="stroke: #6495ed; stroke-width: 1.5; stroke-linejoin: miter"/>
    </defs>
    <g>
     <use xlink:href="#m18563c6164" x="91.305777" y="276.286345" style="fill-opacity: 0; stroke: #6495ed; stroke-width: 1.5; stroke-linejoin: miter"/>
     <use xlink:href="#m18563c6164" x="113.954374" y="218.719117" style="fill-opacity: 0; stroke: #6495ed; stroke-width: 1.5; stroke-linejoin: miter"/>
     <use xlink:href="#m18563c6164" x="113.954374" y="218.719117" style="fill-opacity: 0; stroke: #6495ed; stroke-width: 1.5; stroke-linejoin: miter"/>
     <use xlink:href="#m18563c6164" x="113.954374" y="216.872938" style="fill-opacity: 0; stroke: #6495ed; stroke-width: 1.5; stroke-linejoin: miter"/>
     <use xlink:href="#m18563c6164" x="113.954374" y="216.872938" style="fill-opacity: 0; stroke: #6495ed; stroke-width: 1.5; stroke-linejoin: miter"/>
     <use xlink:href="#m18563c6164" x="360.8064" y="216.872938" style="fill-opacity: 0; stroke: #6495ed; stroke-width: 1.5; stroke-linejoin: miter"/>
    </g>
   </g>
   <g id="line2d_47">
    <path style="fill: none; stroke: #6495ed; stroke-width: 1.5; stroke-linecap: square"/>
    <g/>
   </g>
   <g id="line2d_48">
    <path d="M 113.954374 216.872938 
" clip-path="url(#pbeb940a6e9)" style="fill: none; stroke: #6495ed; stroke-width: 1.5; stroke-linecap: square"/>
    <defs>
     <path id="m2dc96e78b6" d="M -12 12 
L 12 -12 
M -12 -12 
L 12 12 
" style="stroke: #6495ed"/>
    </defs>
    <g clip-path="url(#pbeb940a6e9)">
     <use xlink:href="#m2dc96e78b6" x="113.954374" y="216.872938" style="fill: #6495ed; stroke: #6495ed"/>
    </g>
   </g>
   <g id="line2d_49">
    <path d="M 360.8064 273.768828 
L 380.514816 293.10336 
" style="fill: none; stroke: #000080; stroke-width: 1.5; stroke-linecap: square"/>
    <g>
     <use xlink:href="#m08792484ca" x="360.8064" y="273.768828" style="fill-opacity: 0; stroke: #000080; stroke-width: 1.5"/>
     <use xlink:href="#m08792484ca" x="380.514816" y="293.10336" style="fill-opacity: 0; stroke: #000080; stroke-width: 1.5"/>
    </g>
   </g>
   <g id="line2d_50">
    <path d="M 360.8064 216.872938 
L 380.514816 199.65312 
" style="fill: none; stroke: #6495ed; stroke-width: 1.5; stroke-linecap: square"/>
    <g>
     <use xlink:href="#m18563c6164" x="360.8064" y="216.872938" style="fill-opacity: 0; stroke: #6495ed; stroke-width: 1.5; stroke-linejoin: miter"/>
     <use xlink:href="#m18563c6164" x="380.514816" y="199.65312" style="fill-opacity: 0; stroke: #6495ed; stroke-width: 1.5; stroke-linejoin: miter"/>
    </g>
   </g>
   <g id="line2d_51">
    <path d="M 360.8064 63.136552 
L 380.514816 106.20288 
" style="fill: none; stroke: #ff00ff; stroke-width: 1.5; stroke-linecap: square"/>
    <g>
     <use xlink:href="#m46bfd9cb43" x="360.8064" y="63.136552" style="fill-opacity: 0; stroke: #ff00ff; stroke-width: 1.5; stroke-linejoin: miter"/>
     <use xlink:href="#m46bfd9cb43" x="380.514816" y="106.20288" style="fill-opacity: 0; stroke: #ff00ff; stroke-width: 1.5; stroke-linejoin: miter"/>
    </g>
   </g>
   <g id="line2d_52">
    <path d="M 360.8064 298.944 
L 360.8064 6.912 
" style="fill: none; stroke: #000000; stroke-width: 1.5; stroke-linecap: square"/>
   </g>
   <g id="patch_3">
    <path d="M 57.6 298.944 
L 360.8064 298.944 
" style="fill: none; stroke: #000000; stroke-width: 0.8; stroke-linejoin: miter; stroke-linecap: square"/>
   </g>
   <g id="patch_4">
    <path d="M 57.6 6.912 
L 360.8064 6.912 
" style="fill: none; stroke: #000000; stroke-width: 0.8; stroke-linejoin: miter; stroke-linecap: square"/>
   </g>
   <g id="text_13">
    <!-- cma -->
    <g transform="translate(386.578944 296.966485)scale(0.14 -0.14)">
     <use xlink:href="#DejaVuSans-63"/>
     <use xlink:href="#DejaVuSans-6d" x="54.980469"/>
     <use xlink:href="#DejaVuSans-61" x="152.392578"/>
    </g>
   </g>
   <g id="text_14">
    <!-- parEgo -->
    <g transform="translate(386.578944 203.516245)scale(0.14 -0.14)">
     <defs>
      <path id="DejaVuSans-45" d="M 628 4666 
L 3578 4666 
L 3578 4134 
L 1259 4134 
L 1259 2753 
L 3481 2753 
L 3481 2222 
L 1259 2222 
L 1259 531 
L 3634 531 
L 3634 0 
L 628 0 
L 628 4666 
z
" transform="scale(0.015625)"/>
     </defs>
     <use xlink:href="#DejaVuSans-70"/>
     <use xlink:href="#DejaVuSans-61" x="63.476562"/>
     <use xlink:href="#DejaVuSans-72" x="124.755859"/>
     <use xlink:href="#DejaVuSans-45" x="165.869141"/>
     <use xlink:href="#DejaVuSans-67" x="229.052734"/>
     <use xlink:href="#DejaVuSans-6f" x="292.529297"/>
    </g>
   </g>
   <g id="text_15">
    <!-- external- -->
    <g transform="translate(386.578944 110.066005)scale(0.14 -0.14)">
     <defs>
      <path id="DejaVuSans-78" d="M 3513 3500 
L 2247 1797 
L 3578 0 
L 2900 0 
L 1881 1375 
L 863 0 
L 184 0 
L 1544 1831 
L 300 3500 
L 978 3500 
L 1906 2253 
L 2834 3500 
L 3513 3500 
z
" transform="scale(0.015625)"/>
     </defs>
     <use xlink:href="#DejaVuSans-65"/>
     <use xlink:href="#DejaVuSans-78" x="59.773438"/>
     <use xlink:href="#DejaVuSans-74" x="118.953125"/>
     <use xlink:href="#DejaVuSans-65" x="158.162109"/>
     <use xlink:href="#DejaVuSans-72" x="219.685547"/>
     <use xlink:href="#DejaVuSans-6e" x="259.048828"/>
     <use xlink:href="#DejaVuSans-61" x="322.427734"/>
     <use xlink:href="#DejaVuSans-6c" x="383.707031"/>
     <use xlink:href="#DejaVuSans-2d" x="411.490234"/>
    </g>
   </g>
   <g id="text_16">
    <!-- best 2016 -->
    <g transform="translate(386.578944 16.615765)scale(0.14 -0.14)">
     <defs>
      <path id="DejaVuSans-62" d="M 3116 1747 
Q 3116 2381 2855 2742 
Q 2594 3103 2138 3103 
Q 1681 3103 1420 2742 
Q 1159 2381 1159 1747 
Q 1159 1113 1420 752 
Q 1681 391 2138 391 
Q 2594 391 2855 752 
Q 3116 1113 3116 1747 
z
M 1159 2969 
Q 1341 3281 1617 3432 
Q 1894 3584 2278 3584 
Q 2916 3584 3314 3078 
Q 3713 2572 3713 1747 
Q 3713 922 3314 415 
Q 2916 -91 2278 -91 
Q 1894 -91 1617 61 
Q 1341 213 1159 525 
L 1159 0 
L 581 0 
L 581 4863 
L 1159 4863 
L 1159 2969 
z
" transform="scale(0.015625)"/>
     </defs>
     <use xlink:href="#DejaVuSans-62"/>
     <use xlink:href="#DejaVuSans-65" x="63.476562"/>
     <use xlink:href="#DejaVuSans-73" x="125"/>
     <use xlink:href="#DejaVuSans-74" x="177.099609"/>
     <use xlink:href="#DejaVuSans-20" x="216.308594"/>
     <use xlink:href="#DejaVuSans-32" x="248.095703"/>
     <use xlink:href="#DejaVuSans-30" x="311.71875"/>
     <use xlink:href="#DejaVuSans-31" x="375.341797"/>
     <use xlink:href="#DejaVuSans-36" x="438.964844"/>
    </g>
   </g>
   <g id="text_17">
    <!-- bbob-biobj f20, f21, f28, 2-D -->
    <g transform="translate(60.632064 17.582726)scale(0.102 -0.102)">
     <defs>
      <path id="DejaVuSans-6a" d="M 603 3500 
L 1178 3500 
L 1178 -63 
Q 1178 -731 923 -1031 
Q 669 -1331 103 -1331 
L -116 -1331 
L -116 -844 
L 38 -844 
Q 366 -844 484 -692 
Q 603 -541 603 -63 
L 603 3500 
z
M 603 4863 
L 1178 4863 
L 1178 4134 
L 603 4134 
L 603 4863 
z
" transform="scale(0.015625)"/>
      <path id="DejaVuSans-44" d="M 1259 4147 
L 1259 519 
L 2022 519 
Q 2988 519 3436 956 
Q 3884 1394 3884 2338 
Q 3884 3275 3436 3711 
Q 2988 4147 2022 4147 
L 1259 4147 
z
M 628 4666 
L 1925 4666 
Q 3281 4666 3915 4102 
Q 4550 3538 4550 2338 
Q 4550 1131 3912 565 
Q 3275 0 1925 0 
L 628 0 
L 628 4666 
z
" transform="scale(0.015625)"/>
     </defs>
     <use xlink:href="#DejaVuSans-62"/>
     <use xlink:href="#DejaVuSans-62" x="63.476562"/>
     <use xlink:href="#DejaVuSans-6f" x="126.953125"/>
     <use xlink:href="#DejaVuSans-62" x="188.134766"/>
     <use xlink:href="#DejaVuSans-2d" x="251.611328"/>
     <use xlink:href="#DejaVuSans-62" x="287.695312"/>
     <use xlink:href="#DejaVuSans-69" x="351.171875"/>
     <use xlink:href="#DejaVuSans-6f" x="378.955078"/>
     <use xlink:href="#DejaVuSans-62" x="440.136719"/>
     <use xlink:href="#DejaVuSans-6a" x="503.613281"/>
     <use xlink:href="#DejaVuSans-20" x="531.396484"/>
     <use xlink:href="#DejaVuSans-66" x="563.183594"/>
     <use xlink:href="#DejaVuSans-32" x="598.388672"/>
     <use xlink:href="#DejaVuSans-30" x="662.011719"/>
     <use xlink:href="#DejaVuSans-2c" x="725.634766"/>
     <use xlink:href="#DejaVuSans-20" x="757.421875"/>
     <use xlink:href="#DejaVuSans-66" x="789.208984"/>
     <use xlink:href="#DejaVuSans-32" x="824.414062"/>
     <use xlink:href="#DejaVuSans-31" x="888.037109"/>
     <use xlink:href="#DejaVuSans-2c" x="951.660156"/>
     <use xlink:href="#DejaVuSans-20" x="983.447266"/>
     <use xlink:href="#DejaVuSans-66" x="1015.234375"/>
     <use xlink:href="#DejaVuSans-32" x="1050.439453"/>
     <use xlink:href="#DejaVuSans-38" x="1114.0625"/>
     <use xlink:href="#DejaVuSans-2c" x="1177.685547"/>
     <use xlink:href="#DejaVuSans-20" x="1209.472656"/>
     <use xlink:href="#DejaVuSans-32" x="1241.259766"/>
     <use xlink:href="#DejaVuSans-2d" x="1304.882812"/>
     <use xlink:href="#DejaVuSans-44" x="1340.966797"/>
    </g>
    <!-- 58 targets: 1..-1.0e-4 -->
    <g transform="translate(60.632064 29.004495)scale(0.102 -0.102)">
     <defs>
      <path id="DejaVuSans-35" d="M 691 4666 
L 3169 4666 
L 3169 4134 
L 1269 4134 
L 1269 2991 
Q 1406 3038 1543 3061 
Q 1681 3084 1819 3084 
Q 2600 3084 3056 2656 
Q 3513 2228 3513 1497 
Q 3513 744 3044 326 
Q 2575 -91 1722 -91 
Q 1428 -91 1123 -41 
Q 819 9 494 109 
L 494 744 
Q 775 591 1075 516 
Q 1375 441 1709 441 
Q 2250 441 2565 725 
Q 2881 1009 2881 1497 
Q 2881 1984 2565 2268 
Q 2250 2553 1709 2553 
Q 1456 2553 1204 2497 
Q 953 2441 691 2322 
L 691 4666 
z
" transform="scale(0.015625)"/>
      <path id="DejaVuSans-3a" d="M 750 794 
L 1409 794 
L 1409 0 
L 750 0 
L 750 794 
z
M 750 3309 
L 1409 3309 
L 1409 2516 
L 750 2516 
L 750 3309 
z
" transform="scale(0.015625)"/>
     </defs>
     <use xlink:href="#DejaVuSans-35"/>
     <use xlink:href="#DejaVuSans-38" x="63.623047"/>
     <use xlink:href="#DejaVuSans-20" x="127.246094"/>
     <use xlink:href="#DejaVuSans-74" x="159.033203"/>
     <use xlink:href="#DejaVuSans-61" x="198.242188"/>
     <use xlink:href="#DejaVuSans-72" x="259.521484"/>
     <use xlink:href="#DejaVuSans-67" x="298.884766"/>
     <use xlink:href="#DejaVuSans-65" x="362.361328"/>
     <use xlink:href="#DejaVuSans-74" x="423.884766"/>
     <use xlink:href="#DejaVuSans-73" x="463.09375"/>
     <use xlink:href="#DejaVuSans-3a" x="515.193359"/>
     <use xlink:href="#DejaVuSans-20" x="548.884766"/>
     <use xlink:href="#DejaVuSans-31" x="580.671875"/>
     <use xlink:href="#DejaVuSans-2e" x="644.294922"/>
     <use xlink:href="#DejaVuSans-2e" x="676.082031"/>
     <use xlink:href="#DejaVuSans-2d" x="707.869141"/>
     <use xlink:href="#DejaVuSans-31" x="743.953125"/>
     <use xlink:href="#DejaVuSans-2e" x="807.576172"/>
     <use xlink:href="#DejaVuSans-30" x="839.363281"/>
     <use xlink:href="#DejaVuSans-65" x="902.986328"/>
     <use xlink:href="#DejaVuSans-2d" x="964.509766"/>
     <use xlink:href="#DejaVuSans-34" x="1000.59375"/>
    </g>
    <!-- 10 instances -->
    <g transform="translate(60.632064 40.426264)scale(0.102 -0.102)">
     <use xlink:href="#DejaVuSans-31"/>
     <use xlink:href="#DejaVuSans-30" x="63.623047"/>
     <use xlink:href="#DejaVuSans-20" x="127.246094"/>
     <use xlink:href="#DejaVuSans-69" x="159.033203"/>
     <use xlink:href="#DejaVuSans-6e" x="186.816406"/>
     <use xlink:href="#DejaVuSans-73" x="250.195312"/>
     <use xlink:href="#DejaVuSans-74" x="302.294922"/>
     <use xlink:href="#DejaVuSans-61" x="341.503906"/>
     <use xlink:href="#DejaVuSans-6e" x="402.783203"/>
     <use xlink:href="#DejaVuSans-63" x="466.162109"/>
     <use xlink:href="#DejaVuSans-65" x="521.142578"/>
     <use xlink:href="#DejaVuSans-73" x="582.666016"/>
    </g>
   </g>
   <g id="text_18">
    <!-- v2.6, hv-hash=ff0e71e8cd978373 -->
    <g style="fill: #808080" transform="translate(123.707887 293.943992)scale(0.1 -0.1)">
     <defs>
      <path id="DejaVuSans-68" d="M 3513 2113 
L 3513 0 
L 2938 0 
L 2938 2094 
Q 2938 2591 2744 2837 
Q 2550 3084 2163 3084 
Q 1697 3084 1428 2787 
Q 1159 2491 1159 1978 
L 1159 0 
L 581 0 
L 581 4863 
L 1159 4863 
L 1159 2956 
Q 1366 3272 1645 3428 
Q 1925 3584 2291 3584 
Q 2894 3584 3203 3211 
Q 3513 2838 3513 2113 
z
" transform="scale(0.015625)"/>
      <path id="DejaVuSans-3d" d="M 678 2906 
L 4684 2906 
L 4684 2381 
L 678 2381 
L 678 2906 
z
M 678 1631 
L 4684 1631 
L 4684 1100 
L 678 1100 
L 678 1631 
z
" transform="scale(0.015625)"/>
      <path id="DejaVuSans-37" d="M 525 4666 
L 3525 4666 
L 3525 4397 
L 1831 0 
L 1172 0 
L 2766 4134 
L 525 4134 
L 525 4666 
z
" transform="scale(0.015625)"/>
      <path id="DejaVuSans-39" d="M 703 97 
L 703 672 
Q 941 559 1184 500 
Q 1428 441 1663 441 
Q 2288 441 2617 861 
Q 2947 1281 2994 2138 
Q 2813 1869 2534 1725 
Q 2256 1581 1919 1581 
Q 1219 1581 811 2004 
Q 403 2428 403 3163 
Q 403 3881 828 4315 
Q 1253 4750 1959 4750 
Q 2769 4750 3195 4129 
Q 3622 3509 3622 2328 
Q 3622 1225 3098 567 
Q 2575 -91 1691 -91 
Q 1453 -91 1209 -44 
Q 966 3 703 97 
z
M 1959 2075 
Q 2384 2075 2632 2365 
Q 2881 2656 2881 3163 
Q 2881 3666 2632 3958 
Q 2384 4250 1959 4250 
Q 1534 4250 1286 3958 
Q 1038 3666 1038 3163 
Q 1038 2656 1286 2365 
Q 1534 2075 1959 2075 
z
" transform="scale(0.015625)"/>
      <path id="DejaVuSans-33" d="M 2597 2516 
Q 3050 2419 3304 2112 
Q 3559 1806 3559 1356 
Q 3559 666 3084 287 
Q 2609 -91 1734 -91 
Q 1441 -91 1130 -33 
Q 819 25 488 141 
L 488 750 
Q 750 597 1062 519 
Q 1375 441 1716 441 
Q 2309 441 2620 675 
Q 2931 909 2931 1356 
Q 2931 1769 2642 2001 
Q 2353 2234 1838 2234 
L 1294 2234 
L 1294 2753 
L 1863 2753 
Q 2328 2753 2575 2939 
Q 2822 3125 2822 3475 
Q 2822 3834 2567 4026 
Q 2313 4219 1838 4219 
Q 1578 4219 1281 4162 
Q 984 4106 628 3988 
L 628 4550 
Q 988 4650 1302 4700 
Q 1616 4750 1894 4750 
Q 2613 4750 3031 4423 
Q 3450 4097 3450 3541 
Q 3450 3153 3228 2886 
Q 3006 2619 2597 2516 
z
" transform="scale(0.015625)"/>
     </defs>
     <use xlink:href="#DejaVuSans-76"/>
     <use xlink:href="#DejaVuSans-32" x="59.179688"/>
     <use xlink:href="#DejaVuSans-2e" x="122.802734"/>
     <use xlink:href="#DejaVuSans-36" x="154.589844"/>
     <use xlink:href="#DejaVuSans-2c" x="218.212891"/>
     <use xlink:href="#DejaVuSans-20" x="250"/>
     <use xlink:href="#DejaVuSans-68" x="281.787109"/>
     <use xlink:href="#DejaVuSans-76" x="345.166016"/>
     <use xlink:href="#DejaVuSans-2d" x="401.720703"/>
     <use xlink:href="#DejaVuSans-68" x="437.804688"/>
     <use xlink:href="#DejaVuSans-61" x="501.183594"/>
     <use xlink:href="#DejaVuSans-73" x="562.462891"/>
     <use xlink:href="#DejaVuSans-68" x="614.5625"/>
     <use xlink:href="#DejaVuSans-3d" x="677.941406"/>
     <use xlink:href="#DejaVuSans-66" x="761.730469"/>
     <use xlink:href="#DejaVuSans-66" x="796.935547"/>
     <use xlink:href="#DejaVuSans-30" x="832.140625"/>
     <use xlink:href="#DejaVuSans-65" x="895.763672"/>
     <use xlink:href="#DejaVuSans-37" x="957.287109"/>
     <use xlink:href="#DejaVuSans-31" x="1020.910156"/>
     <use xlink:href="#DejaVuSans-65" x="1084.533203"/>
     <use xlink:href="#DejaVuSans-38" x="1146.056641"/>
     <use xlink:href="#DejaVuSans-63" x="1209.679688"/>
     <use xlink:href="#DejaVuSans-64" x="1264.660156"/>
     <use xlink:href="#DejaVuSans-39" x="1328.136719"/>
     <use xlink:href="#DejaVuSans-37" x="1391.759766"/>
     <use xlink:href="#DejaVuSans-38" x="1455.382812"/>
     <use xlink:href="#DejaVuSans-33" x="1519.005859"/>
     <use xlink:href="#DejaVuSans-37" x="1582.628906"/>
     <use xlink:href="#DejaVuSans-33" x="1646.251953"/>
    </g>
   </g>
  </g>
 </g>
 <defs>
  <clipPath id="pbeb940a6e9">
   <rect x="57.6" y="6.912" width="303.2064" height="292.032"/>
  </clipPath>
 </defs>
</svg>
